<?xml version="1.0" encoding="utf-8"?>
<svg xmlns="http://www.w3.org/2000/svg" xmlns:xlink="http://www.w3.org/1999/xlink" width="600" height="400" viewBox="0 0 2400 1600">
<defs>
  <clipPath id="clip300">
    <rect x="0" y="0" width="2400" height="1600"/>
  </clipPath>
</defs>
<path clip-path="url(#clip300)" d="M0 1600 L2400 1600 L2400 0 L0 0  Z" fill="#ffffff" fill-rule="evenodd" fill-opacity="1"/>
<defs>
  <clipPath id="clip301">
    <rect x="480" y="0" width="1681" height="1600"/>
  </clipPath>
</defs>
<path clip-path="url(#clip300)" d="M340.028 1423.18 L2352.76 1423.18 L2352.76 123.472 L340.028 123.472  Z" fill="#ffffff" fill-rule="evenodd" fill-opacity="1"/>
<defs>
  <clipPath id="clip302">
    <rect x="340" y="123" width="2014" height="1301"/>
  </clipPath>
</defs>
<polyline clip-path="url(#clip302)" style="stroke:#000000; stroke-linecap:round; stroke-linejoin:round; stroke-width:2; stroke-opacity:0.1; fill:none" points="634.342,1423.18 634.342,123.472 "/>
<polyline clip-path="url(#clip302)" style="stroke:#000000; stroke-linecap:round; stroke-linejoin:round; stroke-width:2; stroke-opacity:0.1; fill:none" points="1109.04,1423.18 1109.04,123.472 "/>
<polyline clip-path="url(#clip302)" style="stroke:#000000; stroke-linecap:round; stroke-linejoin:round; stroke-width:2; stroke-opacity:0.1; fill:none" points="1583.74,1423.18 1583.74,123.472 "/>
<polyline clip-path="url(#clip302)" style="stroke:#000000; stroke-linecap:round; stroke-linejoin:round; stroke-width:2; stroke-opacity:0.1; fill:none" points="2058.44,1423.18 2058.44,123.472 "/>
<polyline clip-path="url(#clip300)" style="stroke:#000000; stroke-linecap:round; stroke-linejoin:round; stroke-width:4; stroke-opacity:1; fill:none" points="340.028,1423.18 2352.76,1423.18 "/>
<polyline clip-path="url(#clip300)" style="stroke:#000000; stroke-linecap:round; stroke-linejoin:round; stroke-width:4; stroke-opacity:1; fill:none" points="634.342,1423.18 634.342,1404.28 "/>
<polyline clip-path="url(#clip300)" style="stroke:#000000; stroke-linecap:round; stroke-linejoin:round; stroke-width:4; stroke-opacity:1; fill:none" points="1109.04,1423.18 1109.04,1404.28 "/>
<polyline clip-path="url(#clip300)" style="stroke:#000000; stroke-linecap:round; stroke-linejoin:round; stroke-width:4; stroke-opacity:1; fill:none" points="1583.74,1423.18 1583.74,1404.28 "/>
<polyline clip-path="url(#clip300)" style="stroke:#000000; stroke-linecap:round; stroke-linejoin:round; stroke-width:4; stroke-opacity:1; fill:none" points="2058.44,1423.18 2058.44,1404.28 "/>
<path clip-path="url(#clip300)" d="M628.995 1481.64 L645.314 1481.64 L645.314 1485.58 L623.37 1485.58 L623.37 1481.64 Q626.032 1478.89 630.615 1474.26 Q635.221 1469.61 636.402 1468.27 Q638.647 1465.74 639.527 1464.01 Q640.43 1462.25 640.43 1460.56 Q640.43 1457.8 638.485 1456.07 Q636.564 1454.33 633.462 1454.33 Q631.263 1454.33 628.809 1455.09 Q626.379 1455.86 623.601 1457.41 L623.601 1452.69 Q626.425 1451.55 628.879 1450.97 Q631.332 1450.39 633.369 1450.39 Q638.74 1450.39 641.934 1453.08 Q645.129 1455.77 645.129 1460.26 Q645.129 1462.39 644.318 1464.31 Q643.531 1466.2 641.425 1468.8 Q640.846 1469.47 637.744 1472.69 Q634.643 1475.88 628.995 1481.64 Z" fill="#000000" fill-rule="nonzero" fill-opacity="1" /><path clip-path="url(#clip300)" d="M1112.05 1455.09 L1100.25 1473.54 L1112.05 1473.54 L1112.05 1455.09 M1110.82 1451.02 L1116.7 1451.02 L1116.7 1473.54 L1121.63 1473.54 L1121.63 1477.43 L1116.7 1477.43 L1116.7 1485.58 L1112.05 1485.58 L1112.05 1477.43 L1096.45 1477.43 L1096.45 1472.92 L1110.82 1451.02 Z" fill="#000000" fill-rule="nonzero" fill-opacity="1" /><path clip-path="url(#clip300)" d="M1584.15 1466.44 Q1581 1466.44 1579.15 1468.59 Q1577.32 1470.74 1577.32 1474.49 Q1577.32 1478.22 1579.15 1480.39 Q1581 1482.55 1584.15 1482.55 Q1587.3 1482.55 1589.12 1480.39 Q1590.98 1478.22 1590.98 1474.49 Q1590.98 1470.74 1589.12 1468.59 Q1587.3 1466.44 1584.15 1466.44 M1593.43 1451.78 L1593.43 1456.04 Q1591.67 1455.21 1589.86 1454.77 Q1588.08 1454.33 1586.32 1454.33 Q1581.69 1454.33 1579.24 1457.45 Q1576.81 1460.58 1576.46 1466.9 Q1577.83 1464.89 1579.89 1463.82 Q1581.95 1462.73 1584.42 1462.73 Q1589.63 1462.73 1592.64 1465.9 Q1595.67 1469.05 1595.67 1474.49 Q1595.67 1479.82 1592.53 1483.03 Q1589.38 1486.25 1584.15 1486.25 Q1578.15 1486.25 1574.98 1481.67 Q1571.81 1477.06 1571.81 1468.33 Q1571.81 1460.14 1575.7 1455.28 Q1579.59 1450.39 1586.14 1450.39 Q1587.9 1450.39 1589.68 1450.74 Q1591.48 1451.09 1593.43 1451.78 Z" fill="#000000" fill-rule="nonzero" fill-opacity="1" /><path clip-path="url(#clip300)" d="M2058.44 1469.17 Q2055.11 1469.17 2053.19 1470.95 Q2051.29 1472.73 2051.29 1475.86 Q2051.29 1478.98 2053.19 1480.77 Q2055.11 1482.55 2058.44 1482.55 Q2061.78 1482.55 2063.7 1480.77 Q2065.62 1478.96 2065.62 1475.86 Q2065.62 1472.73 2063.7 1470.95 Q2061.8 1469.17 2058.44 1469.17 M2053.77 1467.18 Q2050.76 1466.44 2049.07 1464.38 Q2047.4 1462.32 2047.4 1459.35 Q2047.4 1455.21 2050.34 1452.8 Q2053.3 1450.39 2058.44 1450.39 Q2063.6 1450.39 2066.54 1452.8 Q2069.48 1455.21 2069.48 1459.35 Q2069.48 1462.32 2067.79 1464.38 Q2066.13 1466.44 2063.14 1467.18 Q2066.52 1467.96 2068.4 1470.26 Q2070.29 1472.55 2070.29 1475.86 Q2070.29 1480.88 2067.21 1483.57 Q2064.16 1486.25 2058.44 1486.25 Q2052.72 1486.25 2049.65 1483.57 Q2046.59 1480.88 2046.59 1475.86 Q2046.59 1472.55 2048.49 1470.26 Q2050.39 1467.96 2053.77 1467.18 M2052.05 1459.79 Q2052.05 1462.48 2053.72 1463.98 Q2055.41 1465.49 2058.44 1465.49 Q2061.45 1465.49 2063.14 1463.98 Q2064.85 1462.48 2064.85 1459.79 Q2064.85 1457.11 2063.14 1455.6 Q2061.45 1454.1 2058.44 1454.1 Q2055.41 1454.1 2053.72 1455.6 Q2052.05 1457.11 2052.05 1459.79 Z" fill="#000000" fill-rule="nonzero" fill-opacity="1" /><path clip-path="url(#clip300)" d="M1286.11 1525.81 L1286.11 1562.76 L1293.87 1562.76 Q1303.71 1562.76 1308.26 1558.3 Q1312.84 1553.85 1312.84 1544.24 Q1312.84 1534.69 1308.26 1530.26 Q1303.71 1525.81 1293.87 1525.81 L1286.11 1525.81 M1279.68 1520.52 L1292.89 1520.52 Q1306.7 1520.52 1313.16 1526.28 Q1319.62 1532.01 1319.62 1544.24 Q1319.62 1556.52 1313.13 1562.28 Q1306.64 1568.04 1292.89 1568.04 L1279.68 1568.04 L1279.68 1520.52 Z" fill="#000000" fill-rule="nonzero" fill-opacity="1" /><path clip-path="url(#clip300)" d="M1329.62 1532.4 L1335.47 1532.4 L1335.47 1568.04 L1329.62 1568.04 L1329.62 1532.4 M1329.62 1518.52 L1335.47 1518.52 L1335.47 1525.93 L1329.62 1525.93 L1329.62 1518.52 Z" fill="#000000" fill-rule="nonzero" fill-opacity="1" /><path clip-path="url(#clip300)" d="M1370.45 1533.45 L1370.45 1538.98 Q1367.97 1537.71 1365.3 1537.07 Q1362.62 1536.44 1359.76 1536.44 Q1355.4 1536.44 1353.2 1537.77 Q1351.04 1539.11 1351.04 1541.79 Q1351.04 1543.82 1352.6 1545 Q1354.16 1546.15 1358.87 1547.2 L1360.87 1547.64 Q1367.11 1548.98 1369.72 1551.43 Q1372.36 1553.85 1372.36 1558.21 Q1372.36 1563.17 1368.42 1566.07 Q1364.5 1568.97 1357.63 1568.97 Q1354.76 1568.97 1351.64 1568.39 Q1348.56 1567.85 1345.12 1566.74 L1345.12 1560.69 Q1348.37 1562.38 1351.52 1563.24 Q1354.67 1564.07 1357.75 1564.07 Q1361.89 1564.07 1364.12 1562.66 Q1366.35 1561.23 1366.35 1558.65 Q1366.35 1556.27 1364.73 1554.99 Q1363.13 1553.72 1357.69 1552.54 L1355.65 1552.07 Q1350.21 1550.92 1347.79 1548.56 Q1345.37 1546.18 1345.37 1542.04 Q1345.37 1537.01 1348.94 1534.27 Q1352.5 1531.54 1359.06 1531.54 Q1362.31 1531.54 1365.17 1532.01 Q1368.04 1532.49 1370.45 1533.45 Z" fill="#000000" fill-rule="nonzero" fill-opacity="1" /><path clip-path="url(#clip300)" d="M1381.47 1518.52 L1387.36 1518.52 L1387.36 1547.77 L1404.83 1532.4 L1412.31 1532.4 L1393.4 1549.07 L1413.1 1568.04 L1405.47 1568.04 L1387.36 1550.63 L1387.36 1568.04 L1381.47 1568.04 L1381.47 1518.52 Z" fill="#000000" fill-rule="nonzero" fill-opacity="1" /><polyline clip-path="url(#clip302)" style="stroke:#000000; stroke-linecap:round; stroke-linejoin:round; stroke-width:2; stroke-opacity:0.1; fill:none" points="340.028,1171.6 2352.76,1171.6 "/>
<polyline clip-path="url(#clip302)" style="stroke:#000000; stroke-linecap:round; stroke-linejoin:round; stroke-width:2; stroke-opacity:0.1; fill:none" points="340.028,902.38 2352.76,902.38 "/>
<polyline clip-path="url(#clip302)" style="stroke:#000000; stroke-linecap:round; stroke-linejoin:round; stroke-width:2; stroke-opacity:0.1; fill:none" points="340.028,633.164 2352.76,633.164 "/>
<polyline clip-path="url(#clip302)" style="stroke:#000000; stroke-linecap:round; stroke-linejoin:round; stroke-width:2; stroke-opacity:0.1; fill:none" points="340.028,363.947 2352.76,363.947 "/>
<polyline clip-path="url(#clip300)" style="stroke:#000000; stroke-linecap:round; stroke-linejoin:round; stroke-width:4; stroke-opacity:1; fill:none" points="340.028,1423.18 340.028,123.472 "/>
<polyline clip-path="url(#clip300)" style="stroke:#000000; stroke-linecap:round; stroke-linejoin:round; stroke-width:4; stroke-opacity:1; fill:none" points="340.028,1171.6 358.925,1171.6 "/>
<polyline clip-path="url(#clip300)" style="stroke:#000000; stroke-linecap:round; stroke-linejoin:round; stroke-width:4; stroke-opacity:1; fill:none" points="340.028,902.38 358.925,902.38 "/>
<polyline clip-path="url(#clip300)" style="stroke:#000000; stroke-linecap:round; stroke-linejoin:round; stroke-width:4; stroke-opacity:1; fill:none" points="340.028,633.164 358.925,633.164 "/>
<polyline clip-path="url(#clip300)" style="stroke:#000000; stroke-linecap:round; stroke-linejoin:round; stroke-width:4; stroke-opacity:1; fill:none" points="340.028,363.947 358.925,363.947 "/>
<path clip-path="url(#clip300)" d="M127.2 1157.4 Q123.589 1157.4 121.76 1160.96 Q119.955 1164.5 119.955 1171.63 Q119.955 1178.74 121.76 1182.3 Q123.589 1185.84 127.2 1185.84 Q130.834 1185.84 132.64 1182.3 Q134.468 1178.74 134.468 1171.63 Q134.468 1164.5 132.64 1160.96 Q130.834 1157.4 127.2 1157.4 M127.2 1153.69 Q133.01 1153.69 136.066 1158.3 Q139.144 1162.88 139.144 1171.63 Q139.144 1180.36 136.066 1184.97 Q133.01 1189.55 127.2 1189.55 Q121.39 1189.55 118.311 1184.97 Q115.256 1180.36 115.256 1171.63 Q115.256 1162.88 118.311 1158.3 Q121.39 1153.69 127.2 1153.69 Z" fill="#000000" fill-rule="nonzero" fill-opacity="1" /><path clip-path="url(#clip300)" d="M147.362 1183 L152.246 1183 L152.246 1188.88 L147.362 1188.88 L147.362 1183 Z" fill="#000000" fill-rule="nonzero" fill-opacity="1" /><path clip-path="url(#clip300)" d="M172.431 1157.4 Q168.82 1157.4 166.991 1160.96 Q165.186 1164.5 165.186 1171.63 Q165.186 1178.74 166.991 1182.3 Q168.82 1185.84 172.431 1185.84 Q176.065 1185.84 177.871 1182.3 Q179.7 1178.74 179.7 1171.63 Q179.7 1164.5 177.871 1160.96 Q176.065 1157.4 172.431 1157.4 M172.431 1153.69 Q178.241 1153.69 181.297 1158.3 Q184.376 1162.88 184.376 1171.63 Q184.376 1180.36 181.297 1184.97 Q178.241 1189.55 172.431 1189.55 Q166.621 1189.55 163.542 1184.97 Q160.487 1180.36 160.487 1171.63 Q160.487 1162.88 163.542 1158.3 Q166.621 1153.69 172.431 1153.69 Z" fill="#000000" fill-rule="nonzero" fill-opacity="1" /><path clip-path="url(#clip300)" d="M202.593 1157.4 Q198.982 1157.4 197.153 1160.96 Q195.348 1164.5 195.348 1171.63 Q195.348 1178.74 197.153 1182.3 Q198.982 1185.84 202.593 1185.84 Q206.227 1185.84 208.033 1182.3 Q209.861 1178.74 209.861 1171.63 Q209.861 1164.5 208.033 1160.96 Q206.227 1157.4 202.593 1157.4 M202.593 1153.69 Q208.403 1153.69 211.459 1158.3 Q214.537 1162.88 214.537 1171.63 Q214.537 1180.36 211.459 1184.97 Q208.403 1189.55 202.593 1189.55 Q196.783 1189.55 193.704 1184.97 Q190.649 1180.36 190.649 1171.63 Q190.649 1162.88 193.704 1158.3 Q196.783 1153.69 202.593 1153.69 Z" fill="#000000" fill-rule="nonzero" fill-opacity="1" /><path clip-path="url(#clip300)" d="M222.894 1188.16 L222.894 1183.9 Q224.653 1184.73 226.459 1185.17 Q228.264 1185.61 230 1185.61 Q234.63 1185.61 237.06 1182.51 Q239.514 1179.39 239.861 1173.04 Q238.519 1175.03 236.459 1176.1 Q234.398 1177.16 231.898 1177.16 Q226.713 1177.16 223.681 1174.04 Q220.672 1170.89 220.672 1165.45 Q220.672 1160.13 223.82 1156.91 Q226.968 1153.69 232.199 1153.69 Q238.195 1153.69 241.343 1158.3 Q244.514 1162.88 244.514 1171.63 Q244.514 1179.8 240.625 1184.69 Q236.76 1189.55 230.209 1189.55 Q228.449 1189.55 226.644 1189.2 Q224.838 1188.85 222.894 1188.16 M232.199 1173.51 Q235.347 1173.51 237.176 1171.35 Q239.028 1169.2 239.028 1165.45 Q239.028 1161.72 237.176 1159.57 Q235.347 1157.4 232.199 1157.4 Q229.051 1157.4 227.199 1159.57 Q225.371 1161.72 225.371 1165.45 Q225.371 1169.2 227.199 1171.35 Q229.051 1173.51 232.199 1173.51 Z" fill="#000000" fill-rule="nonzero" fill-opacity="1" /><path clip-path="url(#clip300)" d="M251.736 1154.32 L273.958 1154.32 L273.958 1156.31 L261.412 1188.88 L256.528 1188.88 L268.333 1158.25 L251.736 1158.25 L251.736 1154.32 Z" fill="#000000" fill-rule="nonzero" fill-opacity="1" /><path clip-path="url(#clip300)" d="M283.125 1154.32 L301.481 1154.32 L301.481 1158.25 L287.407 1158.25 L287.407 1166.72 Q288.426 1166.38 289.444 1166.22 Q290.463 1166.03 291.481 1166.03 Q297.268 1166.03 300.648 1169.2 Q304.028 1172.37 304.028 1177.79 Q304.028 1183.37 300.555 1186.47 Q297.083 1189.55 290.764 1189.55 Q288.588 1189.55 286.319 1189.18 Q284.074 1188.81 281.667 1188.07 L281.667 1183.37 Q283.75 1184.5 285.972 1185.06 Q288.194 1185.61 290.671 1185.61 Q294.676 1185.61 297.014 1183.51 Q299.352 1181.4 299.352 1177.79 Q299.352 1174.18 297.014 1172.07 Q294.676 1169.97 290.671 1169.97 Q288.796 1169.97 286.921 1170.38 Q285.069 1170.8 283.125 1171.68 L283.125 1154.32 Z" fill="#000000" fill-rule="nonzero" fill-opacity="1" /><path clip-path="url(#clip300)" d="M126.205 888.179 Q122.593 888.179 120.765 891.744 Q118.959 895.285 118.959 902.415 Q118.959 909.521 120.765 913.086 Q122.593 916.628 126.205 916.628 Q129.839 916.628 131.644 913.086 Q133.473 909.521 133.473 902.415 Q133.473 895.285 131.644 891.744 Q129.839 888.179 126.205 888.179 M126.205 884.475 Q132.015 884.475 135.07 889.082 Q138.149 893.665 138.149 902.415 Q138.149 911.142 135.07 915.748 Q132.015 920.332 126.205 920.332 Q120.394 920.332 117.316 915.748 Q114.26 911.142 114.26 902.415 Q114.26 893.665 117.316 889.082 Q120.394 884.475 126.205 884.475 Z" fill="#000000" fill-rule="nonzero" fill-opacity="1" /><path clip-path="url(#clip300)" d="M146.366 913.781 L151.251 913.781 L151.251 919.66 L146.366 919.66 L146.366 913.781 Z" fill="#000000" fill-rule="nonzero" fill-opacity="1" /><path clip-path="url(#clip300)" d="M171.436 888.179 Q167.825 888.179 165.996 891.744 Q164.19 895.285 164.19 902.415 Q164.19 909.521 165.996 913.086 Q167.825 916.628 171.436 916.628 Q175.07 916.628 176.876 913.086 Q178.704 909.521 178.704 902.415 Q178.704 895.285 176.876 891.744 Q175.07 888.179 171.436 888.179 M171.436 884.475 Q177.246 884.475 180.301 889.082 Q183.38 893.665 183.38 902.415 Q183.38 911.142 180.301 915.748 Q177.246 920.332 171.436 920.332 Q165.626 920.332 162.547 915.748 Q159.491 911.142 159.491 902.415 Q159.491 893.665 162.547 889.082 Q165.626 884.475 171.436 884.475 Z" fill="#000000" fill-rule="nonzero" fill-opacity="1" /><path clip-path="url(#clip300)" d="M192.408 915.725 L200.047 915.725 L200.047 889.36 L191.737 891.026 L191.737 886.767 L200 885.1 L204.676 885.1 L204.676 915.725 L212.315 915.725 L212.315 919.66 L192.408 919.66 L192.408 915.725 Z" fill="#000000" fill-rule="nonzero" fill-opacity="1" /><path clip-path="url(#clip300)" d="M231.76 888.179 Q228.148 888.179 226.32 891.744 Q224.514 895.285 224.514 902.415 Q224.514 909.521 226.32 913.086 Q228.148 916.628 231.76 916.628 Q235.394 916.628 237.199 913.086 Q239.028 909.521 239.028 902.415 Q239.028 895.285 237.199 891.744 Q235.394 888.179 231.76 888.179 M231.76 884.475 Q237.57 884.475 240.625 889.082 Q243.704 893.665 243.704 902.415 Q243.704 911.142 240.625 915.748 Q237.57 920.332 231.76 920.332 Q225.949 920.332 222.871 915.748 Q219.815 911.142 219.815 902.415 Q219.815 893.665 222.871 889.082 Q225.949 884.475 231.76 884.475 Z" fill="#000000" fill-rule="nonzero" fill-opacity="1" /><path clip-path="url(#clip300)" d="M261.921 888.179 Q258.31 888.179 256.482 891.744 Q254.676 895.285 254.676 902.415 Q254.676 909.521 256.482 913.086 Q258.31 916.628 261.921 916.628 Q265.556 916.628 267.361 913.086 Q269.19 909.521 269.19 902.415 Q269.19 895.285 267.361 891.744 Q265.556 888.179 261.921 888.179 M261.921 884.475 Q267.732 884.475 270.787 889.082 Q273.866 893.665 273.866 902.415 Q273.866 911.142 270.787 915.748 Q267.732 920.332 261.921 920.332 Q256.111 920.332 253.033 915.748 Q249.977 911.142 249.977 902.415 Q249.977 893.665 253.033 889.082 Q256.111 884.475 261.921 884.475 Z" fill="#000000" fill-rule="nonzero" fill-opacity="1" /><path clip-path="url(#clip300)" d="M292.083 888.179 Q288.472 888.179 286.643 891.744 Q284.838 895.285 284.838 902.415 Q284.838 909.521 286.643 913.086 Q288.472 916.628 292.083 916.628 Q295.718 916.628 297.523 913.086 Q299.352 909.521 299.352 902.415 Q299.352 895.285 297.523 891.744 Q295.718 888.179 292.083 888.179 M292.083 884.475 Q297.893 884.475 300.949 889.082 Q304.028 893.665 304.028 902.415 Q304.028 911.142 300.949 915.748 Q297.893 920.332 292.083 920.332 Q286.273 920.332 283.194 915.748 Q280.139 911.142 280.139 902.415 Q280.139 893.665 283.194 889.082 Q286.273 884.475 292.083 884.475 Z" fill="#000000" fill-rule="nonzero" fill-opacity="1" /><path clip-path="url(#clip300)" d="M127.2 618.962 Q123.589 618.962 121.76 622.527 Q119.955 626.069 119.955 633.198 Q119.955 640.305 121.76 643.87 Q123.589 647.411 127.2 647.411 Q130.834 647.411 132.64 643.87 Q134.468 640.305 134.468 633.198 Q134.468 626.069 132.64 622.527 Q130.834 618.962 127.2 618.962 M127.2 615.259 Q133.01 615.259 136.066 619.865 Q139.144 624.448 139.144 633.198 Q139.144 641.925 136.066 646.532 Q133.01 651.115 127.2 651.115 Q121.39 651.115 118.311 646.532 Q115.256 641.925 115.256 633.198 Q115.256 624.448 118.311 619.865 Q121.39 615.259 127.2 615.259 Z" fill="#000000" fill-rule="nonzero" fill-opacity="1" /><path clip-path="url(#clip300)" d="M147.362 644.564 L152.246 644.564 L152.246 650.444 L147.362 650.444 L147.362 644.564 Z" fill="#000000" fill-rule="nonzero" fill-opacity="1" /><path clip-path="url(#clip300)" d="M172.431 618.962 Q168.82 618.962 166.991 622.527 Q165.186 626.069 165.186 633.198 Q165.186 640.305 166.991 643.87 Q168.82 647.411 172.431 647.411 Q176.065 647.411 177.871 643.87 Q179.7 640.305 179.7 633.198 Q179.7 626.069 177.871 622.527 Q176.065 618.962 172.431 618.962 M172.431 615.259 Q178.241 615.259 181.297 619.865 Q184.376 624.448 184.376 633.198 Q184.376 641.925 181.297 646.532 Q178.241 651.115 172.431 651.115 Q166.621 651.115 163.542 646.532 Q160.487 641.925 160.487 633.198 Q160.487 624.448 163.542 619.865 Q166.621 615.259 172.431 615.259 Z" fill="#000000" fill-rule="nonzero" fill-opacity="1" /><path clip-path="url(#clip300)" d="M193.403 646.508 L201.042 646.508 L201.042 620.143 L192.732 621.809 L192.732 617.55 L200.996 615.884 L205.672 615.884 L205.672 646.508 L213.311 646.508 L213.311 650.444 L193.403 650.444 L193.403 646.508 Z" fill="#000000" fill-rule="nonzero" fill-opacity="1" /><path clip-path="url(#clip300)" d="M232.755 618.962 Q229.144 618.962 227.315 622.527 Q225.51 626.069 225.51 633.198 Q225.51 640.305 227.315 643.87 Q229.144 647.411 232.755 647.411 Q236.389 647.411 238.195 643.87 Q240.023 640.305 240.023 633.198 Q240.023 626.069 238.195 622.527 Q236.389 618.962 232.755 618.962 M232.755 615.259 Q238.565 615.259 241.621 619.865 Q244.699 624.448 244.699 633.198 Q244.699 641.925 241.621 646.532 Q238.565 651.115 232.755 651.115 Q226.945 651.115 223.866 646.532 Q220.811 641.925 220.811 633.198 Q220.811 624.448 223.866 619.865 Q226.945 615.259 232.755 615.259 Z" fill="#000000" fill-rule="nonzero" fill-opacity="1" /><path clip-path="url(#clip300)" d="M256.945 646.508 L273.264 646.508 L273.264 650.444 L251.32 650.444 L251.32 646.508 Q253.982 643.754 258.565 639.124 Q263.171 634.471 264.352 633.129 Q266.597 630.606 267.477 628.87 Q268.38 627.11 268.38 625.421 Q268.38 622.666 266.435 620.93 Q264.514 619.194 261.412 619.194 Q259.213 619.194 256.759 619.958 Q254.329 620.722 251.551 622.272 L251.551 617.55 Q254.375 616.416 256.829 615.837 Q259.283 615.259 261.32 615.259 Q266.69 615.259 269.884 617.944 Q273.079 620.629 273.079 625.12 Q273.079 627.249 272.269 629.171 Q271.482 631.069 269.375 633.661 Q268.796 634.333 265.695 637.55 Q262.593 640.745 256.945 646.508 Z" fill="#000000" fill-rule="nonzero" fill-opacity="1" /><path clip-path="url(#clip300)" d="M283.125 615.884 L301.481 615.884 L301.481 619.819 L287.407 619.819 L287.407 628.291 Q288.426 627.944 289.444 627.782 Q290.463 627.596 291.481 627.596 Q297.268 627.596 300.648 630.768 Q304.028 633.939 304.028 639.356 Q304.028 644.934 300.555 648.036 Q297.083 651.115 290.764 651.115 Q288.588 651.115 286.319 650.745 Q284.074 650.374 281.667 649.633 L281.667 644.934 Q283.75 646.069 285.972 646.624 Q288.194 647.18 290.671 647.18 Q294.676 647.18 297.014 645.073 Q299.352 642.967 299.352 639.356 Q299.352 635.745 297.014 633.638 Q294.676 631.532 290.671 631.532 Q288.796 631.532 286.921 631.948 Q285.069 632.365 283.125 633.245 L283.125 615.884 Z" fill="#000000" fill-rule="nonzero" fill-opacity="1" /><path clip-path="url(#clip300)" d="M126.205 349.746 Q122.593 349.746 120.765 353.31 Q118.959 356.852 118.959 363.982 Q118.959 371.088 120.765 374.653 Q122.593 378.194 126.205 378.194 Q129.839 378.194 131.644 374.653 Q133.473 371.088 133.473 363.982 Q133.473 356.852 131.644 353.31 Q129.839 349.746 126.205 349.746 M126.205 346.042 Q132.015 346.042 135.07 350.648 Q138.149 355.232 138.149 363.982 Q138.149 372.708 135.07 377.315 Q132.015 381.898 126.205 381.898 Q120.394 381.898 117.316 377.315 Q114.26 372.708 114.26 363.982 Q114.26 355.232 117.316 350.648 Q120.394 346.042 126.205 346.042 Z" fill="#000000" fill-rule="nonzero" fill-opacity="1" /><path clip-path="url(#clip300)" d="M146.366 375.347 L151.251 375.347 L151.251 381.227 L146.366 381.227 L146.366 375.347 Z" fill="#000000" fill-rule="nonzero" fill-opacity="1" /><path clip-path="url(#clip300)" d="M171.436 349.746 Q167.825 349.746 165.996 353.31 Q164.19 356.852 164.19 363.982 Q164.19 371.088 165.996 374.653 Q167.825 378.194 171.436 378.194 Q175.07 378.194 176.876 374.653 Q178.704 371.088 178.704 363.982 Q178.704 356.852 176.876 353.31 Q175.07 349.746 171.436 349.746 M171.436 346.042 Q177.246 346.042 180.301 350.648 Q183.38 355.232 183.38 363.982 Q183.38 372.708 180.301 377.315 Q177.246 381.898 171.436 381.898 Q165.626 381.898 162.547 377.315 Q159.491 372.708 159.491 363.982 Q159.491 355.232 162.547 350.648 Q165.626 346.042 171.436 346.042 Z" fill="#000000" fill-rule="nonzero" fill-opacity="1" /><path clip-path="url(#clip300)" d="M192.408 377.292 L200.047 377.292 L200.047 350.926 L191.737 352.593 L191.737 348.334 L200 346.667 L204.676 346.667 L204.676 377.292 L212.315 377.292 L212.315 381.227 L192.408 381.227 L192.408 377.292 Z" fill="#000000" fill-rule="nonzero" fill-opacity="1" /><path clip-path="url(#clip300)" d="M231.76 349.746 Q228.148 349.746 226.32 353.31 Q224.514 356.852 224.514 363.982 Q224.514 371.088 226.32 374.653 Q228.148 378.194 231.76 378.194 Q235.394 378.194 237.199 374.653 Q239.028 371.088 239.028 363.982 Q239.028 356.852 237.199 353.31 Q235.394 349.746 231.76 349.746 M231.76 346.042 Q237.57 346.042 240.625 350.648 Q243.704 355.232 243.704 363.982 Q243.704 372.708 240.625 377.315 Q237.57 381.898 231.76 381.898 Q225.949 381.898 222.871 377.315 Q219.815 372.708 219.815 363.982 Q219.815 355.232 222.871 350.648 Q225.949 346.042 231.76 346.042 Z" fill="#000000" fill-rule="nonzero" fill-opacity="1" /><path clip-path="url(#clip300)" d="M251.968 346.667 L270.324 346.667 L270.324 350.602 L256.25 350.602 L256.25 359.074 Q257.269 358.727 258.287 358.565 Q259.306 358.38 260.324 358.38 Q266.111 358.38 269.491 361.551 Q272.87 364.722 272.87 370.139 Q272.87 375.718 269.398 378.819 Q265.926 381.898 259.607 381.898 Q257.431 381.898 255.162 381.528 Q252.917 381.157 250.509 380.417 L250.509 375.718 Q252.593 376.852 254.815 377.407 Q257.037 377.963 259.514 377.963 Q263.519 377.963 265.857 375.857 Q268.195 373.75 268.195 370.139 Q268.195 366.528 265.857 364.421 Q263.519 362.315 259.514 362.315 Q257.639 362.315 255.764 362.732 Q253.912 363.148 251.968 364.028 L251.968 346.667 Z" fill="#000000" fill-rule="nonzero" fill-opacity="1" /><path clip-path="url(#clip300)" d="M292.083 349.746 Q288.472 349.746 286.643 353.31 Q284.838 356.852 284.838 363.982 Q284.838 371.088 286.643 374.653 Q288.472 378.194 292.083 378.194 Q295.718 378.194 297.523 374.653 Q299.352 371.088 299.352 363.982 Q299.352 356.852 297.523 353.31 Q295.718 349.746 292.083 349.746 M292.083 346.042 Q297.893 346.042 300.949 350.648 Q304.028 355.232 304.028 363.982 Q304.028 372.708 300.949 377.315 Q297.893 381.898 292.083 381.898 Q286.273 381.898 283.194 377.315 Q280.139 372.708 280.139 363.982 Q280.139 355.232 283.194 350.648 Q286.273 346.042 292.083 346.042 Z" fill="#000000" fill-rule="nonzero" fill-opacity="1" /><path clip-path="url(#clip300)" d="M33.7671 788.508 L14.479 788.508 L14.479 782.652 L64.0042 782.652 L64.0042 788.508 L58.657 788.508 Q61.8398 790.354 63.3994 793.187 Q64.9272 795.988 64.9272 799.935 Q64.9272 806.396 59.771 810.47 Q54.6147 814.512 46.212 814.512 Q37.8093 814.512 32.6531 810.47 Q27.4968 806.396 27.4968 799.935 Q27.4968 795.988 29.0564 793.187 Q30.5842 790.354 33.7671 788.508 M46.212 808.465 Q52.6732 808.465 56.3653 805.823 Q60.0256 803.149 60.0256 798.502 Q60.0256 793.855 56.3653 791.182 Q52.6732 788.508 46.212 788.508 Q39.7508 788.508 36.0905 791.182 Q32.3984 793.855 32.3984 798.502 Q32.3984 803.149 36.0905 805.823 Q39.7508 808.465 46.212 808.465 Z" fill="#000000" fill-rule="nonzero" fill-opacity="1" /><path clip-path="url(#clip300)" d="M74.8259 743.503 L79.3773 743.503 L79.3773 777.368 L74.8259 777.368 L74.8259 743.503 Z" fill="#000000" fill-rule="nonzero" fill-opacity="1" /><path clip-path="url(#clip300)" d="M28.3562 737.996 L28.3562 732.14 L64.0042 732.14 L64.0042 737.996 L28.3562 737.996 M14.479 737.996 L14.479 732.14 L21.895 732.14 L21.895 737.996 L14.479 737.996 Z" fill="#000000" fill-rule="nonzero" fill-opacity="1" /><path clip-path="url(#clip300)" d="M1046.32 12.096 L1081.08 12.096 L1081.08 18.9825 L1054.5 18.9825 L1054.5 36.8065 L1078.49 36.8065 L1078.49 43.6931 L1054.5 43.6931 L1054.5 72.576 L1046.32 72.576 L1046.32 12.096 Z" fill="#000000" fill-rule="nonzero" fill-opacity="1" /><path clip-path="url(#clip300)" d="M1087.68 27.2059 L1095.13 27.2059 L1095.13 72.576 L1087.68 72.576 L1087.68 27.2059 M1087.68 9.54393 L1095.13 9.54393 L1095.13 18.9825 L1087.68 18.9825 L1087.68 9.54393 Z" fill="#000000" fill-rule="nonzero" fill-opacity="1" /><path clip-path="url(#clip300)" d="M1148.44 45.1919 L1148.44 72.576 L1140.99 72.576 L1140.99 45.4349 Q1140.99 38.994 1138.48 35.7938 Q1135.97 32.5936 1130.94 32.5936 Q1124.91 32.5936 1121.42 36.4419 Q1117.94 40.2903 1117.94 46.9338 L1117.94 72.576 L1110.45 72.576 L1110.45 27.2059 L1117.94 27.2059 L1117.94 34.2544 Q1120.61 30.163 1124.22 28.1376 Q1127.87 26.1121 1132.61 26.1121 Q1140.42 26.1121 1144.43 30.9732 Q1148.44 35.7938 1148.44 45.1919 Z" fill="#000000" fill-rule="nonzero" fill-opacity="1" /><path clip-path="url(#clip300)" d="M1183.93 49.7694 Q1174.9 49.7694 1171.41 51.8354 Q1167.93 53.9013 1167.93 58.8839 Q1167.93 62.8538 1170.52 65.2034 Q1173.15 67.5124 1177.65 67.5124 Q1183.85 67.5124 1187.58 63.1374 Q1191.34 58.7219 1191.34 51.4303 L1191.34 49.7694 L1183.93 49.7694 M1198.8 46.6907 L1198.8 72.576 L1191.34 72.576 L1191.34 65.6895 Q1188.79 69.8214 1184.98 71.8063 Q1181.18 73.7508 1175.67 73.7508 Q1168.7 73.7508 1164.57 69.8619 Q1160.48 65.9325 1160.48 59.3701 Q1160.48 51.7138 1165.58 47.825 Q1170.72 43.9361 1180.89 43.9361 L1191.34 43.9361 L1191.34 43.2069 Q1191.34 38.0623 1187.94 35.2672 Q1184.58 32.4315 1178.46 32.4315 Q1174.57 32.4315 1170.89 33.3632 Q1167.2 34.295 1163.8 36.1584 L1163.8 29.2718 Q1167.89 27.692 1171.74 26.9223 Q1175.59 26.1121 1179.23 26.1121 Q1189.07 26.1121 1193.94 31.2163 Q1198.8 36.3204 1198.8 46.6907 Z" fill="#000000" fill-rule="nonzero" fill-opacity="1" /><path clip-path="url(#clip300)" d="M1214.15 9.54393 L1221.6 9.54393 L1221.6 72.576 L1214.15 72.576 L1214.15 9.54393 Z" fill="#000000" fill-rule="nonzero" fill-opacity="1" /><path clip-path="url(#clip300)" d="M1293.43 34.0924 L1293.43 9.54393 L1300.88 9.54393 L1300.88 72.576 L1293.43 72.576 L1293.43 65.7705 Q1291.08 69.8214 1287.47 71.8063 Q1283.91 73.7508 1278.88 73.7508 Q1270.66 73.7508 1265.47 67.1883 Q1260.33 60.6258 1260.33 49.9314 Q1260.33 39.2371 1265.47 32.6746 Q1270.66 26.1121 1278.88 26.1121 Q1283.91 26.1121 1287.47 28.0971 Q1291.08 30.0415 1293.43 34.0924 M1268.03 49.9314 Q1268.03 58.1548 1271.39 62.8538 Q1274.79 67.5124 1280.71 67.5124 Q1286.62 67.5124 1290.02 62.8538 Q1293.43 58.1548 1293.43 49.9314 Q1293.43 41.7081 1290.02 37.0496 Q1286.62 32.3505 1280.71 32.3505 Q1274.79 32.3505 1271.39 37.0496 Q1268.03 41.7081 1268.03 49.9314 Z" fill="#000000" fill-rule="nonzero" fill-opacity="1" /><path clip-path="url(#clip300)" d="M1316.23 27.2059 L1323.69 27.2059 L1323.69 72.576 L1316.23 72.576 L1316.23 27.2059 M1316.23 9.54393 L1323.69 9.54393 L1323.69 18.9825 L1316.23 18.9825 L1316.23 9.54393 Z" fill="#000000" fill-rule="nonzero" fill-opacity="1" /><path clip-path="url(#clip300)" d="M1368.21 28.5427 L1368.21 35.5912 Q1365.05 33.9709 1361.64 33.1607 Q1358.24 32.3505 1354.59 32.3505 Q1349.05 32.3505 1346.25 34.0519 Q1343.5 35.7533 1343.5 39.156 Q1343.5 41.7486 1345.48 43.2475 Q1347.47 44.7058 1353.46 46.0426 L1356.01 46.6097 Q1363.95 48.3111 1367.27 51.4303 Q1370.64 54.509 1370.64 60.0587 Q1370.64 66.3781 1365.61 70.0644 Q1360.63 73.7508 1351.88 73.7508 Q1348.23 73.7508 1344.27 73.0216 Q1340.34 72.3329 1335.96 70.9151 L1335.96 63.2184 Q1340.09 65.3654 1344.1 66.4591 Q1348.11 67.5124 1352.04 67.5124 Q1357.31 67.5124 1360.14 65.73 Q1362.98 63.9071 1362.98 60.6258 Q1362.98 57.5877 1360.91 55.9673 Q1358.89 54.3469 1351.96 52.8481 L1349.37 52.2405 Q1342.44 50.7821 1339.36 47.7845 Q1336.28 44.7463 1336.28 39.4801 Q1336.28 33.0797 1340.82 29.5959 Q1345.36 26.1121 1353.7 26.1121 Q1357.84 26.1121 1361.48 26.7198 Q1365.13 27.3274 1368.21 28.5427 Z" fill="#000000" fill-rule="nonzero" fill-opacity="1" /><path clip-path="url(#clip300)" d="M1389.88 14.324 L1389.88 27.2059 L1405.23 27.2059 L1405.23 32.9987 L1389.88 32.9987 L1389.88 57.6282 Q1389.88 63.1779 1391.38 64.7578 Q1392.92 66.3376 1397.57 66.3376 L1405.23 66.3376 L1405.23 72.576 L1397.57 72.576 Q1388.95 72.576 1385.67 69.3758 Q1382.38 66.1351 1382.38 57.6282 L1382.38 32.9987 L1376.92 32.9987 L1376.92 27.2059 L1382.38 27.2059 L1382.38 14.324 L1389.88 14.324 Z" fill="#000000" fill-rule="nonzero" fill-opacity="1" /><path clip-path="url(#clip300)" d="M1435.65 49.7694 Q1426.62 49.7694 1423.14 51.8354 Q1419.65 53.9013 1419.65 58.8839 Q1419.65 62.8538 1422.24 65.2034 Q1424.88 67.5124 1429.37 67.5124 Q1435.57 67.5124 1439.3 63.1374 Q1443.07 58.7219 1443.07 51.4303 L1443.07 49.7694 L1435.65 49.7694 M1450.52 46.6907 L1450.52 72.576 L1443.07 72.576 L1443.07 65.6895 Q1440.51 69.8214 1436.71 71.8063 Q1432.9 73.7508 1427.39 73.7508 Q1420.42 73.7508 1416.29 69.8619 Q1412.2 65.9325 1412.2 59.3701 Q1412.2 51.7138 1417.3 47.825 Q1422.45 43.9361 1432.62 43.9361 L1443.07 43.9361 L1443.07 43.2069 Q1443.07 38.0623 1439.66 35.2672 Q1436.3 32.4315 1430.18 32.4315 Q1426.3 32.4315 1422.61 33.3632 Q1418.92 34.295 1415.52 36.1584 L1415.52 29.2718 Q1419.61 27.692 1423.46 26.9223 Q1427.31 26.1121 1430.95 26.1121 Q1440.8 26.1121 1445.66 31.2163 Q1450.52 36.3204 1450.52 46.6907 Z" fill="#000000" fill-rule="nonzero" fill-opacity="1" /><path clip-path="url(#clip300)" d="M1503.59 45.1919 L1503.59 72.576 L1496.13 72.576 L1496.13 45.4349 Q1496.13 38.994 1493.62 35.7938 Q1491.11 32.5936 1486.09 32.5936 Q1480.05 32.5936 1476.57 36.4419 Q1473.08 40.2903 1473.08 46.9338 L1473.08 72.576 L1465.59 72.576 L1465.59 27.2059 L1473.08 27.2059 L1473.08 34.2544 Q1475.76 30.163 1479.36 28.1376 Q1483.01 26.1121 1487.75 26.1121 Q1495.57 26.1121 1499.58 30.9732 Q1503.59 35.7938 1503.59 45.1919 Z" fill="#000000" fill-rule="nonzero" fill-opacity="1" /><path clip-path="url(#clip300)" d="M1551.1 28.9478 L1551.1 35.9153 Q1547.94 34.1734 1544.74 33.3227 Q1541.58 32.4315 1538.34 32.4315 Q1531.09 32.4315 1527.08 37.0496 Q1523.07 41.6271 1523.07 49.9314 Q1523.07 58.2358 1527.08 62.8538 Q1531.09 67.4314 1538.34 67.4314 Q1541.58 67.4314 1544.74 66.5807 Q1547.94 65.6895 1551.1 63.9476 L1551.1 70.8341 Q1547.99 72.2924 1544.62 73.0216 Q1541.3 73.7508 1537.53 73.7508 Q1527.28 73.7508 1521.25 67.3098 Q1515.21 60.8689 1515.21 49.9314 Q1515.21 38.832 1521.29 32.472 Q1527.41 26.1121 1538.02 26.1121 Q1541.46 26.1121 1544.74 26.8413 Q1548.03 27.5299 1551.1 28.9478 Z" fill="#000000" fill-rule="nonzero" fill-opacity="1" /><path clip-path="url(#clip300)" d="M1602.87 48.0275 L1602.87 51.6733 L1568.6 51.6733 Q1569.09 59.3701 1573.22 63.421 Q1577.39 67.4314 1584.81 67.4314 Q1589.1 67.4314 1593.11 66.3781 Q1597.16 65.3249 1601.13 63.2184 L1601.13 70.267 Q1597.12 71.9684 1592.91 72.8596 Q1588.7 73.7508 1584.36 73.7508 Q1573.51 73.7508 1567.15 67.4314 Q1560.83 61.1119 1560.83 50.3365 Q1560.83 39.1965 1566.82 32.6746 Q1572.86 26.1121 1583.07 26.1121 Q1592.22 26.1121 1597.53 32.0264 Q1602.87 37.9003 1602.87 48.0275 M1595.42 45.84 Q1595.34 39.7232 1591.98 36.0774 Q1588.66 32.4315 1583.15 32.4315 Q1576.91 32.4315 1573.14 35.9558 Q1569.41 39.4801 1568.85 45.8805 L1595.42 45.84 Z" fill="#000000" fill-rule="nonzero" fill-opacity="1" /><path clip-path="url(#clip300)" d="M1644.03 28.5427 L1644.03 35.5912 Q1640.87 33.9709 1637.47 33.1607 Q1634.07 32.3505 1630.42 32.3505 Q1624.87 32.3505 1622.08 34.0519 Q1619.32 35.7533 1619.32 39.156 Q1619.32 41.7486 1621.31 43.2475 Q1623.29 44.7058 1629.29 46.0426 L1631.84 46.6097 Q1639.78 48.3111 1643.1 51.4303 Q1646.46 54.509 1646.46 60.0587 Q1646.46 66.3781 1641.44 70.0644 Q1636.46 73.7508 1627.71 73.7508 Q1624.06 73.7508 1620.09 73.0216 Q1616.16 72.3329 1611.79 70.9151 L1611.79 63.2184 Q1615.92 65.3654 1619.93 66.4591 Q1623.94 67.5124 1627.87 67.5124 Q1633.14 67.5124 1635.97 65.73 Q1638.81 63.9071 1638.81 60.6258 Q1638.81 57.5877 1636.74 55.9673 Q1634.71 54.3469 1627.79 52.8481 L1625.2 52.2405 Q1618.27 50.7821 1615.19 47.7845 Q1612.11 44.7463 1612.11 39.4801 Q1612.11 33.0797 1616.65 29.5959 Q1621.18 26.1121 1629.53 26.1121 Q1633.66 26.1121 1637.31 26.7198 Q1640.95 27.3274 1644.03 28.5427 Z" fill="#000000" fill-rule="nonzero" fill-opacity="1" /><circle clip-path="url(#clip302)" cx="396.992" cy="886.166" r="14.4" fill="#009af9" fill-rule="evenodd" fill-opacity="1" stroke="#000000" stroke-opacity="1" stroke-width="3.2"/>
<circle clip-path="url(#clip302)" cx="634.342" cy="934.488" r="14.4" fill="#009af9" fill-rule="evenodd" fill-opacity="1" stroke="#000000" stroke-opacity="1" stroke-width="3.2"/>
<circle clip-path="url(#clip302)" cx="871.692" cy="785.029" r="14.4" fill="#009af9" fill-rule="evenodd" fill-opacity="1" stroke="#000000" stroke-opacity="1" stroke-width="3.2"/>
<circle clip-path="url(#clip302)" cx="1109.04" cy="623.877" r="14.4" fill="#009af9" fill-rule="evenodd" fill-opacity="1" stroke="#000000" stroke-opacity="1" stroke-width="3.2"/>
<circle clip-path="url(#clip302)" cx="1346.39" cy="471.052" r="14.4" fill="#009af9" fill-rule="evenodd" fill-opacity="1" stroke="#000000" stroke-opacity="1" stroke-width="3.2"/>
<circle clip-path="url(#clip302)" cx="1583.74" cy="160.256" r="14.4" fill="#009af9" fill-rule="evenodd" fill-opacity="1" stroke="#000000" stroke-opacity="1" stroke-width="3.2"/>
<circle clip-path="url(#clip302)" cx="1821.09" cy="603.233" r="14.4" fill="#009af9" fill-rule="evenodd" fill-opacity="1" stroke="#000000" stroke-opacity="1" stroke-width="3.2"/>
<circle clip-path="url(#clip302)" cx="2058.44" cy="993.653" r="14.4" fill="#009af9" fill-rule="evenodd" fill-opacity="1" stroke="#000000" stroke-opacity="1" stroke-width="3.2"/>
<circle clip-path="url(#clip302)" cx="2295.79" cy="1386.4" r="14.4" fill="#009af9" fill-rule="evenodd" fill-opacity="1" stroke="#000000" stroke-opacity="1" stroke-width="3.2"/>
</svg>
