<?xml version="1.0" encoding="utf-8"?>
<svg xmlns="http://www.w3.org/2000/svg" xmlns:xlink="http://www.w3.org/1999/xlink" width="600" height="400" viewBox="0 0 2400 1600">
<defs>
  <clipPath id="clip870">
    <rect x="0" y="0" width="2400" height="1600"/>
  </clipPath>
</defs>
<path clip-path="url(#clip870)" d="M0 1600 L2400 1600 L2400 0 L0 0  Z" fill="#ffffff" fill-rule="evenodd" fill-opacity="1"/>
<defs>
  <clipPath id="clip871">
    <rect x="480" y="0" width="1681" height="1600"/>
  </clipPath>
</defs>
<path clip-path="url(#clip870)" d="M277.621 1423.18 L2352.76 1423.18 L2352.76 123.472 L277.621 123.472  Z" fill="#ffffff" fill-rule="evenodd" fill-opacity="1"/>
<defs>
  <clipPath id="clip872">
    <rect x="277" y="123" width="2076" height="1301"/>
  </clipPath>
</defs>
<polyline clip-path="url(#clip872)" style="stroke:#000000; stroke-linecap:round; stroke-linejoin:round; stroke-width:2; stroke-opacity:0.1; fill:none" points="316.774,1423.18 316.774,123.472 "/>
<polyline clip-path="url(#clip872)" style="stroke:#000000; stroke-linecap:round; stroke-linejoin:round; stroke-width:2; stroke-opacity:0.1; fill:none" points="806.193,1423.18 806.193,123.472 "/>
<polyline clip-path="url(#clip872)" style="stroke:#000000; stroke-linecap:round; stroke-linejoin:round; stroke-width:2; stroke-opacity:0.1; fill:none" points="1295.61,1423.18 1295.61,123.472 "/>
<polyline clip-path="url(#clip872)" style="stroke:#000000; stroke-linecap:round; stroke-linejoin:round; stroke-width:2; stroke-opacity:0.1; fill:none" points="1785.03,1423.18 1785.03,123.472 "/>
<polyline clip-path="url(#clip872)" style="stroke:#000000; stroke-linecap:round; stroke-linejoin:round; stroke-width:2; stroke-opacity:0.1; fill:none" points="2274.45,1423.18 2274.45,123.472 "/>
<polyline clip-path="url(#clip872)" style="stroke:#000000; stroke-linecap:round; stroke-linejoin:round; stroke-width:2; stroke-opacity:0.1; fill:none" points="277.621,1281.14 2352.76,1281.14 "/>
<polyline clip-path="url(#clip872)" style="stroke:#000000; stroke-linecap:round; stroke-linejoin:round; stroke-width:2; stroke-opacity:0.1; fill:none" points="277.621,974.609 2352.76,974.609 "/>
<polyline clip-path="url(#clip872)" style="stroke:#000000; stroke-linecap:round; stroke-linejoin:round; stroke-width:2; stroke-opacity:0.1; fill:none" points="277.621,668.074 2352.76,668.074 "/>
<polyline clip-path="url(#clip872)" style="stroke:#000000; stroke-linecap:round; stroke-linejoin:round; stroke-width:2; stroke-opacity:0.1; fill:none" points="277.621,361.54 2352.76,361.54 "/>
<polyline clip-path="url(#clip870)" style="stroke:#000000; stroke-linecap:round; stroke-linejoin:round; stroke-width:4; stroke-opacity:1; fill:none" points="277.621,1423.18 2352.76,1423.18 "/>
<polyline clip-path="url(#clip870)" style="stroke:#000000; stroke-linecap:round; stroke-linejoin:round; stroke-width:4; stroke-opacity:1; fill:none" points="316.774,1423.18 316.774,1404.28 "/>
<polyline clip-path="url(#clip870)" style="stroke:#000000; stroke-linecap:round; stroke-linejoin:round; stroke-width:4; stroke-opacity:1; fill:none" points="806.193,1423.18 806.193,1404.28 "/>
<polyline clip-path="url(#clip870)" style="stroke:#000000; stroke-linecap:round; stroke-linejoin:round; stroke-width:4; stroke-opacity:1; fill:none" points="1295.61,1423.18 1295.61,1404.28 "/>
<polyline clip-path="url(#clip870)" style="stroke:#000000; stroke-linecap:round; stroke-linejoin:round; stroke-width:4; stroke-opacity:1; fill:none" points="1785.03,1423.18 1785.03,1404.28 "/>
<polyline clip-path="url(#clip870)" style="stroke:#000000; stroke-linecap:round; stroke-linejoin:round; stroke-width:4; stroke-opacity:1; fill:none" points="2274.45,1423.18 2274.45,1404.28 "/>
<path clip-path="url(#clip870)" d="M316.774 1454.1 Q313.163 1454.1 311.334 1457.66 Q309.529 1461.2 309.529 1468.33 Q309.529 1475.44 311.334 1479.01 Q313.163 1482.55 316.774 1482.55 Q320.408 1482.55 322.214 1479.01 Q324.043 1475.44 324.043 1468.33 Q324.043 1461.2 322.214 1457.66 Q320.408 1454.1 316.774 1454.1 M316.774 1450.39 Q322.584 1450.39 325.64 1455 Q328.718 1459.58 328.718 1468.33 Q328.718 1477.06 325.64 1481.67 Q322.584 1486.25 316.774 1486.25 Q310.964 1486.25 307.885 1481.67 Q304.83 1477.06 304.83 1468.33 Q304.83 1459.58 307.885 1455 Q310.964 1450.39 316.774 1450.39 Z" fill="#000000" fill-rule="nonzero" fill-opacity="1" /><path clip-path="url(#clip870)" d="M785.464 1481.64 L801.783 1481.64 L801.783 1485.58 L779.839 1485.58 L779.839 1481.64 Q782.501 1478.89 787.084 1474.26 Q791.691 1469.61 792.871 1468.27 Q795.116 1465.74 795.996 1464.01 Q796.899 1462.25 796.899 1460.56 Q796.899 1457.8 794.954 1456.07 Q793.033 1454.33 789.931 1454.33 Q787.732 1454.33 785.279 1455.09 Q782.848 1455.86 780.07 1457.41 L780.07 1452.69 Q782.894 1451.55 785.348 1450.97 Q787.802 1450.39 789.839 1450.39 Q795.209 1450.39 798.403 1453.08 Q801.598 1455.77 801.598 1460.26 Q801.598 1462.39 800.788 1464.31 Q800.001 1466.2 797.894 1468.8 Q797.316 1469.47 794.214 1472.69 Q791.112 1475.88 785.464 1481.64 Z" fill="#000000" fill-rule="nonzero" fill-opacity="1" /><path clip-path="url(#clip870)" d="M811.644 1451.02 L830.001 1451.02 L830.001 1454.96 L815.927 1454.96 L815.927 1463.43 Q816.945 1463.08 817.964 1462.92 Q818.982 1462.73 820.001 1462.73 Q825.788 1462.73 829.167 1465.9 Q832.547 1469.08 832.547 1474.49 Q832.547 1480.07 829.075 1483.17 Q825.602 1486.25 819.283 1486.25 Q817.107 1486.25 814.839 1485.88 Q812.593 1485.51 810.186 1484.77 L810.186 1480.07 Q812.269 1481.2 814.491 1481.76 Q816.714 1482.32 819.19 1482.32 Q823.195 1482.32 825.533 1480.21 Q827.871 1478.1 827.871 1474.49 Q827.871 1470.88 825.533 1468.77 Q823.195 1466.67 819.19 1466.67 Q817.315 1466.67 815.44 1467.08 Q813.589 1467.5 811.644 1468.38 L811.644 1451.02 Z" fill="#000000" fill-rule="nonzero" fill-opacity="1" /><path clip-path="url(#clip870)" d="M1270.31 1451.02 L1288.67 1451.02 L1288.67 1454.96 L1274.59 1454.96 L1274.59 1463.43 Q1275.61 1463.08 1276.63 1462.92 Q1277.65 1462.73 1278.67 1462.73 Q1284.45 1462.73 1287.83 1465.9 Q1291.21 1469.08 1291.21 1474.49 Q1291.21 1480.07 1287.74 1483.17 Q1284.27 1486.25 1277.95 1486.25 Q1275.77 1486.25 1273.51 1485.88 Q1271.26 1485.51 1268.85 1484.77 L1268.85 1480.07 Q1270.94 1481.2 1273.16 1481.76 Q1275.38 1482.32 1277.86 1482.32 Q1281.86 1482.32 1284.2 1480.21 Q1286.54 1478.1 1286.54 1474.49 Q1286.54 1470.88 1284.2 1468.77 Q1281.86 1466.67 1277.86 1466.67 Q1275.98 1466.67 1274.11 1467.08 Q1272.26 1467.5 1270.31 1468.38 L1270.31 1451.02 Z" fill="#000000" fill-rule="nonzero" fill-opacity="1" /><path clip-path="url(#clip870)" d="M1310.43 1454.1 Q1306.82 1454.1 1304.99 1457.66 Q1303.18 1461.2 1303.18 1468.33 Q1303.18 1475.44 1304.99 1479.01 Q1306.82 1482.55 1310.43 1482.55 Q1314.06 1482.55 1315.87 1479.01 Q1317.69 1475.44 1317.69 1468.33 Q1317.69 1461.2 1315.87 1457.66 Q1314.06 1454.1 1310.43 1454.1 M1310.43 1450.39 Q1316.24 1450.39 1319.29 1455 Q1322.37 1459.58 1322.37 1468.33 Q1322.37 1477.06 1319.29 1481.67 Q1316.24 1486.25 1310.43 1486.25 Q1304.62 1486.25 1301.54 1481.67 Q1298.48 1477.06 1298.48 1468.33 Q1298.48 1459.58 1301.54 1455 Q1304.62 1450.39 1310.43 1450.39 Z" fill="#000000" fill-rule="nonzero" fill-opacity="1" /><path clip-path="url(#clip870)" d="M1758.88 1451.02 L1781.11 1451.02 L1781.11 1453.01 L1768.56 1485.58 L1763.68 1485.58 L1775.48 1454.96 L1758.88 1454.96 L1758.88 1451.02 Z" fill="#000000" fill-rule="nonzero" fill-opacity="1" /><path clip-path="url(#clip870)" d="M1790.27 1451.02 L1808.63 1451.02 L1808.63 1454.96 L1794.56 1454.96 L1794.56 1463.43 Q1795.57 1463.08 1796.59 1462.92 Q1797.61 1462.73 1798.63 1462.73 Q1804.42 1462.73 1807.8 1465.9 Q1811.18 1469.08 1811.18 1474.49 Q1811.18 1480.07 1807.7 1483.17 Q1804.23 1486.25 1797.91 1486.25 Q1795.74 1486.25 1793.47 1485.88 Q1791.22 1485.51 1788.81 1484.77 L1788.81 1480.07 Q1790.9 1481.2 1793.12 1481.76 Q1795.34 1482.32 1797.82 1482.32 Q1801.82 1482.32 1804.16 1480.21 Q1806.5 1478.1 1806.5 1474.49 Q1806.5 1470.88 1804.16 1468.77 Q1801.82 1466.67 1797.82 1466.67 Q1795.94 1466.67 1794.07 1467.08 Q1792.22 1467.5 1790.27 1468.38 L1790.27 1451.02 Z" fill="#000000" fill-rule="nonzero" fill-opacity="1" /><path clip-path="url(#clip870)" d="M2234.06 1481.64 L2241.69 1481.64 L2241.69 1455.28 L2233.38 1456.95 L2233.38 1452.69 L2241.65 1451.02 L2246.32 1451.02 L2246.32 1481.64 L2253.96 1481.64 L2253.96 1485.58 L2234.06 1485.58 L2234.06 1481.64 Z" fill="#000000" fill-rule="nonzero" fill-opacity="1" /><path clip-path="url(#clip870)" d="M2273.41 1454.1 Q2269.8 1454.1 2267.97 1457.66 Q2266.16 1461.2 2266.16 1468.33 Q2266.16 1475.44 2267.97 1479.01 Q2269.8 1482.55 2273.41 1482.55 Q2277.04 1482.55 2278.85 1479.01 Q2280.68 1475.44 2280.68 1468.33 Q2280.68 1461.2 2278.85 1457.66 Q2277.04 1454.1 2273.41 1454.1 M2273.41 1450.39 Q2279.22 1450.39 2282.27 1455 Q2285.35 1459.58 2285.35 1468.33 Q2285.35 1477.06 2282.27 1481.67 Q2279.22 1486.25 2273.41 1486.25 Q2267.6 1486.25 2264.52 1481.67 Q2261.46 1477.06 2261.46 1468.33 Q2261.46 1459.58 2264.52 1455 Q2267.6 1450.39 2273.41 1450.39 Z" fill="#000000" fill-rule="nonzero" fill-opacity="1" /><path clip-path="url(#clip870)" d="M2303.57 1454.1 Q2299.96 1454.1 2298.13 1457.66 Q2296.32 1461.2 2296.32 1468.33 Q2296.32 1475.44 2298.13 1479.01 Q2299.96 1482.55 2303.57 1482.55 Q2307.2 1482.55 2309.01 1479.01 Q2310.84 1475.44 2310.84 1468.33 Q2310.84 1461.2 2309.01 1457.66 Q2307.2 1454.1 2303.57 1454.1 M2303.57 1450.39 Q2309.38 1450.39 2312.43 1455 Q2315.51 1459.58 2315.51 1468.33 Q2315.51 1477.06 2312.43 1481.67 Q2309.38 1486.25 2303.57 1486.25 Q2297.76 1486.25 2294.68 1481.67 Q2291.62 1477.06 2291.62 1468.33 Q2291.62 1459.58 2294.68 1455 Q2297.76 1450.39 2303.57 1450.39 Z" fill="#000000" fill-rule="nonzero" fill-opacity="1" /><path clip-path="url(#clip870)" d="M1182.91 1520.52 L1189.34 1520.52 L1189.34 1568.04 L1182.91 1568.04 L1182.91 1520.52 Z" fill="#000000" fill-rule="nonzero" fill-opacity="1" /><path clip-path="url(#clip870)" d="M1207.67 1522.27 L1207.67 1532.4 L1219.73 1532.4 L1219.73 1536.95 L1207.67 1536.95 L1207.67 1556.3 Q1207.67 1560.66 1208.85 1561.9 Q1210.06 1563.14 1213.72 1563.14 L1219.73 1563.14 L1219.73 1568.04 L1213.72 1568.04 Q1206.94 1568.04 1204.36 1565.53 Q1201.78 1562.98 1201.78 1556.3 L1201.78 1536.95 L1197.49 1536.95 L1197.49 1532.4 L1201.78 1532.4 L1201.78 1522.27 L1207.67 1522.27 Z" fill="#000000" fill-rule="nonzero" fill-opacity="1" /><path clip-path="url(#clip870)" d="M1257.93 1548.76 L1257.93 1551.62 L1231 1551.62 Q1231.38 1557.67 1234.63 1560.85 Q1237.91 1564 1243.73 1564 Q1247.11 1564 1250.26 1563.17 Q1253.44 1562.35 1256.56 1560.69 L1256.56 1566.23 Q1253.41 1567.57 1250.1 1568.27 Q1246.79 1568.97 1243.38 1568.97 Q1234.85 1568.97 1229.86 1564 Q1224.89 1559.04 1224.89 1550.57 Q1224.89 1541.82 1229.6 1536.69 Q1234.34 1531.54 1242.36 1531.54 Q1249.56 1531.54 1253.73 1536.18 Q1257.93 1540.8 1257.93 1548.76 M1252.07 1547.04 Q1252.01 1542.23 1249.37 1539.37 Q1246.76 1536.5 1242.43 1536.5 Q1237.53 1536.5 1234.57 1539.27 Q1231.64 1542.04 1231.19 1547.07 L1252.07 1547.04 Z" fill="#000000" fill-rule="nonzero" fill-opacity="1" /><path clip-path="url(#clip870)" d="M1288.2 1537.87 Q1287.21 1537.3 1286.03 1537.04 Q1284.89 1536.76 1283.49 1536.76 Q1278.52 1536.76 1275.85 1540 Q1273.21 1543.22 1273.21 1549.27 L1273.21 1568.04 L1267.32 1568.04 L1267.32 1532.4 L1273.21 1532.4 L1273.21 1537.93 Q1275.05 1534.69 1278.01 1533.13 Q1280.97 1531.54 1285.21 1531.54 Q1285.81 1531.54 1286.54 1531.63 Q1287.27 1531.7 1288.17 1531.85 L1288.2 1537.87 Z" fill="#000000" fill-rule="nonzero" fill-opacity="1" /><path clip-path="url(#clip870)" d="M1310.54 1550.12 Q1303.44 1550.12 1300.71 1551.75 Q1297.97 1553.37 1297.97 1557.29 Q1297.97 1560.4 1300.01 1562.25 Q1302.07 1564.07 1305.61 1564.07 Q1310.48 1564.07 1313.41 1560.63 Q1316.37 1557.16 1316.37 1551.43 L1316.37 1550.12 L1310.54 1550.12 M1322.22 1547.71 L1322.22 1568.04 L1316.37 1568.04 L1316.37 1562.63 Q1314.36 1565.88 1311.37 1567.44 Q1308.38 1568.97 1304.05 1568.97 Q1298.57 1568.97 1295.33 1565.91 Q1292.11 1562.82 1292.11 1557.67 Q1292.11 1551.65 1296.12 1548.6 Q1300.17 1545.54 1308.15 1545.54 L1316.37 1545.54 L1316.37 1544.97 Q1316.37 1540.93 1313.69 1538.73 Q1311.05 1536.5 1306.24 1536.5 Q1303.19 1536.5 1300.29 1537.23 Q1297.4 1537.97 1294.72 1539.43 L1294.72 1534.02 Q1297.94 1532.78 1300.96 1532.17 Q1303.98 1531.54 1306.85 1531.54 Q1314.58 1531.54 1318.4 1535.55 Q1322.22 1539.56 1322.22 1547.71 Z" fill="#000000" fill-rule="nonzero" fill-opacity="1" /><path clip-path="url(#clip870)" d="M1340.08 1522.27 L1340.08 1532.4 L1352.14 1532.4 L1352.14 1536.95 L1340.08 1536.95 L1340.08 1556.3 Q1340.08 1560.66 1341.26 1561.9 Q1342.47 1563.14 1346.13 1563.14 L1352.14 1563.14 L1352.14 1568.04 L1346.13 1568.04 Q1339.35 1568.04 1336.77 1565.53 Q1334.19 1562.98 1334.19 1556.3 L1334.19 1536.95 L1329.89 1536.95 L1329.89 1532.4 L1334.19 1532.4 L1334.19 1522.27 L1340.08 1522.27 Z" fill="#000000" fill-rule="nonzero" fill-opacity="1" /><path clip-path="url(#clip870)" d="M1359.84 1532.4 L1365.7 1532.4 L1365.7 1568.04 L1359.84 1568.04 L1359.84 1532.4 M1359.84 1518.52 L1365.7 1518.52 L1365.7 1525.93 L1359.84 1525.93 L1359.84 1518.52 Z" fill="#000000" fill-rule="nonzero" fill-opacity="1" /><path clip-path="url(#clip870)" d="M1391.77 1536.5 Q1387.06 1536.5 1384.32 1540.19 Q1381.58 1543.85 1381.58 1550.25 Q1381.58 1556.65 1384.29 1560.34 Q1387.03 1564 1391.77 1564 Q1396.45 1564 1399.18 1560.31 Q1401.92 1556.62 1401.92 1550.25 Q1401.92 1543.92 1399.18 1540.23 Q1396.45 1536.5 1391.77 1536.5 M1391.77 1531.54 Q1399.41 1531.54 1403.77 1536.5 Q1408.13 1541.47 1408.13 1550.25 Q1408.13 1559 1403.77 1564 Q1399.41 1568.97 1391.77 1568.97 Q1384.1 1568.97 1379.74 1564 Q1375.41 1559 1375.41 1550.25 Q1375.41 1541.47 1379.74 1536.5 Q1384.1 1531.54 1391.77 1531.54 Z" fill="#000000" fill-rule="nonzero" fill-opacity="1" /><path clip-path="url(#clip870)" d="M1447.47 1546.53 L1447.47 1568.04 L1441.61 1568.04 L1441.61 1546.72 Q1441.61 1541.66 1439.64 1539.14 Q1437.66 1536.63 1433.72 1536.63 Q1428.98 1536.63 1426.24 1539.65 Q1423.5 1542.68 1423.5 1547.9 L1423.5 1568.04 L1417.61 1568.04 L1417.61 1532.4 L1423.5 1532.4 L1423.5 1537.93 Q1425.6 1534.72 1428.43 1533.13 Q1431.3 1531.54 1435.02 1531.54 Q1441.17 1531.54 1444.32 1535.36 Q1447.47 1539.14 1447.47 1546.53 Z" fill="#000000" fill-rule="nonzero" fill-opacity="1" /><polyline clip-path="url(#clip870)" style="stroke:#000000; stroke-linecap:round; stroke-linejoin:round; stroke-width:4; stroke-opacity:1; fill:none" points="277.621,1423.18 277.621,123.472 "/>
<polyline clip-path="url(#clip870)" style="stroke:#000000; stroke-linecap:round; stroke-linejoin:round; stroke-width:4; stroke-opacity:1; fill:none" points="277.621,1281.14 296.518,1281.14 "/>
<polyline clip-path="url(#clip870)" style="stroke:#000000; stroke-linecap:round; stroke-linejoin:round; stroke-width:4; stroke-opacity:1; fill:none" points="277.621,974.609 296.518,974.609 "/>
<polyline clip-path="url(#clip870)" style="stroke:#000000; stroke-linecap:round; stroke-linejoin:round; stroke-width:4; stroke-opacity:1; fill:none" points="277.621,668.074 296.518,668.074 "/>
<polyline clip-path="url(#clip870)" style="stroke:#000000; stroke-linecap:round; stroke-linejoin:round; stroke-width:4; stroke-opacity:1; fill:none" points="277.621,361.54 296.518,361.54 "/>
<path clip-path="url(#clip870)" d="M114.931 1294.49 L122.57 1294.49 L122.57 1268.12 L114.26 1269.79 L114.26 1265.53 L122.524 1263.86 L127.2 1263.86 L127.2 1294.49 L134.839 1294.49 L134.839 1298.42 L114.931 1298.42 L114.931 1294.49 Z" fill="#000000" fill-rule="nonzero" fill-opacity="1" /><path clip-path="url(#clip870)" d="M158.45 1279.79 Q161.806 1280.51 163.681 1282.78 Q165.579 1285.04 165.579 1288.38 Q165.579 1293.49 162.061 1296.29 Q158.542 1299.1 152.061 1299.1 Q149.885 1299.1 147.57 1298.66 Q145.279 1298.24 142.825 1297.38 L142.825 1292.87 Q144.769 1294 147.084 1294.58 Q149.399 1295.16 151.922 1295.16 Q156.32 1295.16 158.612 1293.42 Q160.927 1291.69 160.927 1288.38 Q160.927 1285.32 158.774 1283.61 Q156.644 1281.87 152.825 1281.87 L148.797 1281.87 L148.797 1278.03 L153.01 1278.03 Q156.459 1278.03 158.288 1276.66 Q160.116 1275.28 160.116 1272.68 Q160.116 1270.02 158.218 1268.61 Q156.343 1267.17 152.825 1267.17 Q150.903 1267.17 148.704 1267.59 Q146.505 1268.01 143.866 1268.89 L143.866 1264.72 Q146.529 1263.98 148.843 1263.61 Q151.181 1263.24 153.241 1263.24 Q158.565 1263.24 161.667 1265.67 Q164.769 1268.08 164.769 1272.2 Q164.769 1275.07 163.126 1277.06 Q161.482 1279.03 158.45 1279.79 Z" fill="#000000" fill-rule="nonzero" fill-opacity="1" /><path clip-path="url(#clip870)" d="M174.445 1292.54 L179.329 1292.54 L179.329 1298.42 L174.445 1298.42 L174.445 1292.54 Z" fill="#000000" fill-rule="nonzero" fill-opacity="1" /><path clip-path="url(#clip870)" d="M189.561 1263.86 L207.917 1263.86 L207.917 1267.8 L193.843 1267.8 L193.843 1276.27 Q194.862 1275.92 195.88 1275.76 Q196.899 1275.58 197.917 1275.58 Q203.704 1275.58 207.084 1278.75 Q210.463 1281.92 210.463 1287.34 Q210.463 1292.91 206.991 1296.02 Q203.519 1299.1 197.2 1299.1 Q195.024 1299.1 192.755 1298.72 Q190.51 1298.35 188.102 1297.61 L188.102 1292.91 Q190.186 1294.05 192.408 1294.6 Q194.63 1295.16 197.107 1295.16 Q201.112 1295.16 203.449 1293.05 Q205.787 1290.95 205.787 1287.34 Q205.787 1283.73 203.449 1281.62 Q201.112 1279.51 197.107 1279.51 Q195.232 1279.51 193.357 1279.93 Q191.505 1280.35 189.561 1281.23 L189.561 1263.86 Z" fill="#000000" fill-rule="nonzero" fill-opacity="1" /><path clip-path="url(#clip870)" d="M229.676 1266.94 Q226.065 1266.94 224.236 1270.51 Q222.431 1274.05 222.431 1281.18 Q222.431 1288.29 224.236 1291.85 Q226.065 1295.39 229.676 1295.39 Q233.31 1295.39 235.116 1291.85 Q236.945 1288.29 236.945 1281.18 Q236.945 1274.05 235.116 1270.51 Q233.31 1266.94 229.676 1266.94 M229.676 1263.24 Q235.486 1263.24 238.542 1267.85 Q241.621 1272.43 241.621 1281.18 Q241.621 1289.91 238.542 1294.51 Q235.486 1299.1 229.676 1299.1 Q223.866 1299.1 220.787 1294.51 Q217.732 1289.91 217.732 1281.18 Q217.732 1272.43 220.787 1267.85 Q223.866 1263.24 229.676 1263.24 Z" fill="#000000" fill-rule="nonzero" fill-opacity="1" /><path clip-path="url(#clip870)" d="M115.927 987.954 L123.566 987.954 L123.566 961.588 L115.256 963.255 L115.256 958.996 L123.519 957.329 L128.195 957.329 L128.195 987.954 L135.834 987.954 L135.834 991.889 L115.927 991.889 L115.927 987.954 Z" fill="#000000" fill-rule="nonzero" fill-opacity="1" /><path clip-path="url(#clip870)" d="M159.445 973.255 Q162.802 973.973 164.677 976.241 Q166.575 978.51 166.575 981.843 Q166.575 986.959 163.056 989.76 Q159.538 992.56 153.056 992.56 Q150.88 992.56 148.566 992.121 Q146.274 991.704 143.82 990.848 L143.82 986.334 Q145.765 987.468 148.079 988.047 Q150.394 988.625 152.917 988.625 Q157.315 988.625 159.607 986.889 Q161.922 985.153 161.922 981.843 Q161.922 978.787 159.769 977.074 Q157.64 975.338 153.82 975.338 L149.792 975.338 L149.792 971.496 L154.005 971.496 Q157.454 971.496 159.283 970.13 Q161.112 968.741 161.112 966.149 Q161.112 963.487 159.214 962.075 Q157.339 960.639 153.82 960.639 Q151.899 960.639 149.7 961.056 Q147.501 961.473 144.862 962.352 L144.862 958.186 Q147.524 957.445 149.839 957.075 Q152.177 956.704 154.237 956.704 Q159.561 956.704 162.663 959.135 Q165.765 961.542 165.765 965.662 Q165.765 968.533 164.121 970.524 Q162.477 972.491 159.445 973.255 Z" fill="#000000" fill-rule="nonzero" fill-opacity="1" /><path clip-path="url(#clip870)" d="M175.44 986.01 L180.325 986.01 L180.325 991.889 L175.44 991.889 L175.44 986.01 Z" fill="#000000" fill-rule="nonzero" fill-opacity="1" /><path clip-path="url(#clip870)" d="M189.329 957.329 L211.551 957.329 L211.551 959.32 L199.005 991.889 L194.121 991.889 L205.926 961.264 L189.329 961.264 L189.329 957.329 Z" fill="#000000" fill-rule="nonzero" fill-opacity="1" /><path clip-path="url(#clip870)" d="M220.718 957.329 L239.074 957.329 L239.074 961.264 L225 961.264 L225 969.737 Q226.019 969.389 227.037 969.227 Q228.056 969.042 229.074 969.042 Q234.861 969.042 238.241 972.213 Q241.621 975.385 241.621 980.801 Q241.621 986.38 238.148 989.482 Q234.676 992.56 228.357 992.56 Q226.181 992.56 223.912 992.19 Q221.667 991.82 219.26 991.079 L219.26 986.38 Q221.343 987.514 223.565 988.07 Q225.787 988.625 228.264 988.625 Q232.269 988.625 234.607 986.519 Q236.945 984.412 236.945 980.801 Q236.945 977.19 234.607 975.084 Q232.269 972.977 228.264 972.977 Q226.389 972.977 224.514 973.394 Q222.662 973.811 220.718 974.69 L220.718 957.329 Z" fill="#000000" fill-rule="nonzero" fill-opacity="1" /><path clip-path="url(#clip870)" d="M114.931 681.419 L122.57 681.419 L122.57 655.054 L114.26 656.72 L114.26 652.461 L122.524 650.794 L127.2 650.794 L127.2 681.419 L134.839 681.419 L134.839 685.354 L114.931 685.354 L114.931 681.419 Z" fill="#000000" fill-rule="nonzero" fill-opacity="1" /><path clip-path="url(#clip870)" d="M157.13 654.868 L145.325 673.317 L157.13 673.317 L157.13 654.868 M155.903 650.794 L161.783 650.794 L161.783 673.317 L166.714 673.317 L166.714 677.206 L161.783 677.206 L161.783 685.354 L157.13 685.354 L157.13 677.206 L141.529 677.206 L141.529 672.692 L155.903 650.794 Z" fill="#000000" fill-rule="nonzero" fill-opacity="1" /><path clip-path="url(#clip870)" d="M174.445 679.475 L179.329 679.475 L179.329 685.354 L174.445 685.354 L174.445 679.475 Z" fill="#000000" fill-rule="nonzero" fill-opacity="1" /><path clip-path="url(#clip870)" d="M199.514 653.873 Q195.903 653.873 194.075 657.438 Q192.269 660.979 192.269 668.109 Q192.269 675.216 194.075 678.78 Q195.903 682.322 199.514 682.322 Q203.149 682.322 204.954 678.78 Q206.783 675.216 206.783 668.109 Q206.783 660.979 204.954 657.438 Q203.149 653.873 199.514 653.873 M199.514 650.169 Q205.324 650.169 208.38 654.776 Q211.459 659.359 211.459 668.109 Q211.459 676.836 208.38 681.442 Q205.324 686.026 199.514 686.026 Q193.704 686.026 190.625 681.442 Q187.57 676.836 187.57 668.109 Q187.57 659.359 190.625 654.776 Q193.704 650.169 199.514 650.169 Z" fill="#000000" fill-rule="nonzero" fill-opacity="1" /><path clip-path="url(#clip870)" d="M229.676 653.873 Q226.065 653.873 224.236 657.438 Q222.431 660.979 222.431 668.109 Q222.431 675.216 224.236 678.78 Q226.065 682.322 229.676 682.322 Q233.31 682.322 235.116 678.78 Q236.945 675.216 236.945 668.109 Q236.945 660.979 235.116 657.438 Q233.31 653.873 229.676 653.873 M229.676 650.169 Q235.486 650.169 238.542 654.776 Q241.621 659.359 241.621 668.109 Q241.621 676.836 238.542 681.442 Q235.486 686.026 229.676 686.026 Q223.866 686.026 220.787 681.442 Q217.732 676.836 217.732 668.109 Q217.732 659.359 220.787 654.776 Q223.866 650.169 229.676 650.169 Z" fill="#000000" fill-rule="nonzero" fill-opacity="1" /><path clip-path="url(#clip870)" d="M115.927 374.884 L123.566 374.884 L123.566 348.519 L115.256 350.185 L115.256 345.926 L123.519 344.26 L128.195 344.26 L128.195 374.884 L135.834 374.884 L135.834 378.82 L115.927 378.82 L115.927 374.884 Z" fill="#000000" fill-rule="nonzero" fill-opacity="1" /><path clip-path="url(#clip870)" d="M158.126 348.334 L146.32 366.783 L158.126 366.783 L158.126 348.334 M156.899 344.26 L162.778 344.26 L162.778 366.783 L167.709 366.783 L167.709 370.671 L162.778 370.671 L162.778 378.82 L158.126 378.82 L158.126 370.671 L142.524 370.671 L142.524 366.158 L156.899 344.26 Z" fill="#000000" fill-rule="nonzero" fill-opacity="1" /><path clip-path="url(#clip870)" d="M175.44 372.94 L180.325 372.94 L180.325 378.82 L175.44 378.82 L175.44 372.94 Z" fill="#000000" fill-rule="nonzero" fill-opacity="1" /><path clip-path="url(#clip870)" d="M194.538 374.884 L210.857 374.884 L210.857 378.82 L188.913 378.82 L188.913 374.884 Q191.575 372.13 196.158 367.5 Q200.764 362.847 201.945 361.505 Q204.19 358.982 205.07 357.246 Q205.973 355.486 205.973 353.796 Q205.973 351.042 204.028 349.306 Q202.107 347.57 199.005 347.57 Q196.806 347.57 194.352 348.334 Q191.922 349.097 189.144 350.648 L189.144 345.926 Q191.968 344.792 194.422 344.213 Q196.875 343.635 198.912 343.635 Q204.283 343.635 207.477 346.32 Q210.672 349.005 210.672 353.496 Q210.672 355.625 209.861 357.546 Q209.074 359.445 206.968 362.037 Q206.389 362.708 203.287 365.926 Q200.186 369.12 194.538 374.884 Z" fill="#000000" fill-rule="nonzero" fill-opacity="1" /><path clip-path="url(#clip870)" d="M220.718 344.26 L239.074 344.26 L239.074 348.195 L225 348.195 L225 356.667 Q226.019 356.32 227.037 356.158 Q228.056 355.972 229.074 355.972 Q234.861 355.972 238.241 359.144 Q241.621 362.315 241.621 367.732 Q241.621 373.31 238.148 376.412 Q234.676 379.491 228.357 379.491 Q226.181 379.491 223.912 379.12 Q221.667 378.75 219.26 378.009 L219.26 373.31 Q221.343 374.445 223.565 375 Q225.787 375.556 228.264 375.556 Q232.269 375.556 234.607 373.449 Q236.945 371.343 236.945 367.732 Q236.945 364.121 234.607 362.014 Q232.269 359.908 228.264 359.908 Q226.389 359.908 224.514 360.324 Q222.662 360.741 220.718 361.621 L220.718 344.26 Z" fill="#000000" fill-rule="nonzero" fill-opacity="1" /><path clip-path="url(#clip870)" d="M20.4822 1058.66 L57.4351 1058.66 L57.4351 1050.9 Q57.4351 1041.06 52.9791 1036.51 Q48.5231 1031.93 38.9109 1031.93 Q29.3623 1031.93 24.9382 1036.51 Q20.4822 1041.06 20.4822 1050.9 L20.4822 1058.66 M15.1986 1065.09 L15.1986 1051.88 Q15.1986 1038.07 20.9596 1031.61 Q26.6887 1025.15 38.9109 1025.15 Q51.1967 1025.15 56.9577 1031.64 Q62.7186 1038.13 62.7186 1051.88 L62.7186 1065.09 L15.1986 1065.09 Z" fill="#000000" fill-rule="nonzero" fill-opacity="1" /><path clip-path="url(#clip870)" d="M27.0707 1015.15 L27.0707 1009.3 L62.7186 1009.3 L62.7186 1015.15 L27.0707 1015.15 M13.1934 1015.15 L13.1934 1009.3 L20.6095 1009.3 L20.6095 1015.15 L13.1934 1015.15 Z" fill="#000000" fill-rule="nonzero" fill-opacity="1" /><path clip-path="url(#clip870)" d="M28.121 974.318 L33.6592 974.318 Q32.386 976.8 31.7495 979.474 Q31.1129 982.148 31.1129 985.012 Q31.1129 989.373 32.4497 991.569 Q33.7865 993.733 36.4601 993.733 Q38.4971 993.733 39.6748 992.174 Q40.8206 990.614 41.8709 985.903 L42.3165 983.898 Q43.6533 977.66 46.1041 975.05 Q48.5231 972.408 52.8836 972.408 Q57.8489 972.408 60.7453 976.355 Q63.6417 980.27 63.6417 987.145 Q63.6417 990.009 63.0687 993.128 Q62.5277 996.216 61.4137 999.653 L55.3662 999.653 Q57.0531 996.407 57.9125 993.256 Q58.7401 990.105 58.7401 987.017 Q58.7401 982.88 57.3396 980.652 Q55.9073 978.424 53.3292 978.424 Q50.9421 978.424 49.6689 980.047 Q48.3958 981.638 47.2181 987.081 L46.7407 989.118 Q45.5949 994.561 43.2396 996.98 Q40.8524 999.399 36.7147 999.399 Q31.6858 999.399 28.9486 995.834 Q26.2113 992.269 26.2113 985.712 Q26.2113 982.466 26.6887 979.601 Q27.1662 976.737 28.121 974.318 Z" fill="#000000" fill-rule="nonzero" fill-opacity="1" /><path clip-path="url(#clip870)" d="M16.9492 957.29 L27.0707 957.29 L27.0707 945.227 L31.6221 945.227 L31.6221 957.29 L50.9739 957.29 Q55.3344 957.29 56.5757 956.112 Q57.817 954.902 57.817 951.242 L57.817 945.227 L62.7186 945.227 L62.7186 951.242 Q62.7186 958.022 60.2042 960.6 Q57.6579 963.178 50.9739 963.178 L31.6221 963.178 L31.6221 967.475 L27.0707 967.475 L27.0707 963.178 L16.9492 963.178 L16.9492 957.29 Z" fill="#000000" fill-rule="nonzero" fill-opacity="1" /><path clip-path="url(#clip870)" d="M44.7992 921.323 Q44.7992 928.421 46.4224 931.158 Q48.0457 933.896 51.9606 933.896 Q55.0798 933.896 56.9258 931.859 Q58.7401 929.79 58.7401 926.257 Q58.7401 921.387 55.3026 918.459 Q51.8333 915.499 46.1041 915.499 L44.7992 915.499 L44.7992 921.323 M42.3802 909.642 L62.7186 909.642 L62.7186 915.499 L57.3078 915.499 Q60.5543 917.504 62.1139 920.496 Q63.6417 923.488 63.6417 927.816 Q63.6417 933.291 60.5861 936.537 Q57.4987 939.752 52.3425 939.752 Q46.3269 939.752 43.2714 935.742 Q40.2159 931.699 40.2159 923.71 L40.2159 915.499 L39.6429 915.499 Q35.6007 915.499 33.4045 918.172 Q31.1765 920.814 31.1765 925.62 Q31.1765 928.676 31.9086 931.572 Q32.6407 934.468 34.1048 937.142 L28.6939 937.142 Q27.4526 933.927 26.8479 930.904 Q26.2113 927.88 26.2113 925.015 Q26.2113 917.281 30.2217 913.462 Q34.2321 909.642 42.3802 909.642 Z" fill="#000000" fill-rule="nonzero" fill-opacity="1" /><path clip-path="url(#clip870)" d="M41.2025 867.947 L62.7186 867.947 L62.7186 873.803 L41.3935 873.803 Q36.3328 873.803 33.8183 875.777 Q31.3039 877.75 31.3039 881.697 Q31.3039 886.439 34.3276 889.176 Q37.3513 891.914 42.5712 891.914 L62.7186 891.914 L62.7186 897.802 L27.0707 897.802 L27.0707 891.914 L32.6088 891.914 Q29.3942 889.813 27.8027 886.98 Q26.2113 884.116 26.2113 880.392 Q26.2113 874.249 30.0307 871.098 Q33.8183 867.947 41.2025 867.947 Z" fill="#000000" fill-rule="nonzero" fill-opacity="1" /><path clip-path="url(#clip870)" d="M28.4393 830.612 L33.9138 830.612 Q32.5452 833.095 31.8768 835.609 Q31.1765 838.092 31.1765 840.638 Q31.1765 846.335 34.805 849.486 Q38.4016 852.637 44.9265 852.637 Q51.4513 852.637 55.0798 849.486 Q58.6764 846.335 58.6764 840.638 Q58.6764 838.092 58.008 835.609 Q57.3078 833.095 55.9391 830.612 L61.35 830.612 Q62.4958 833.063 63.0687 835.705 Q63.6417 838.314 63.6417 841.275 Q63.6417 849.327 58.5809 854.07 Q53.5202 858.812 44.9265 858.812 Q36.2055 858.812 31.2084 854.038 Q26.2113 849.232 26.2113 840.893 Q26.2113 838.187 26.7842 835.609 Q27.3253 833.031 28.4393 830.612 Z" fill="#000000" fill-rule="nonzero" fill-opacity="1" /><path clip-path="url(#clip870)" d="M43.4305 789.935 L46.2951 789.935 L46.2951 816.862 Q52.3425 816.48 55.5254 813.234 Q58.6764 809.955 58.6764 804.131 Q58.6764 800.757 57.8489 797.606 Q57.0213 794.423 55.3662 791.304 L60.9044 791.304 Q62.2412 794.455 62.9414 797.765 Q63.6417 801.075 63.6417 804.481 Q63.6417 813.011 58.6764 818.008 Q53.7112 822.973 45.2448 822.973 Q36.4919 822.973 31.3675 818.262 Q26.2113 813.52 26.2113 805.499 Q26.2113 798.306 30.8583 794.136 Q35.4734 789.935 43.4305 789.935 M41.7118 795.792 Q36.9057 795.855 34.0411 798.497 Q31.1765 801.107 31.1765 805.436 Q31.1765 810.337 33.9456 813.297 Q36.7147 816.225 41.7436 816.671 L41.7118 795.792 Z" fill="#000000" fill-rule="nonzero" fill-opacity="1" /><path clip-path="url(#clip870)" d="M28.121 757.597 L33.6592 757.597 Q32.386 760.08 31.7495 762.754 Q31.1129 765.427 31.1129 768.292 Q31.1129 772.652 32.4497 774.848 Q33.7865 777.013 36.4601 777.013 Q38.4971 777.013 39.6748 775.453 Q40.8206 773.894 41.8709 769.183 L42.3165 767.178 Q43.6533 760.939 46.1041 758.329 Q48.5231 755.688 52.8836 755.688 Q57.8489 755.688 60.7453 759.634 Q63.6417 763.549 63.6417 770.424 Q63.6417 773.289 63.0687 776.408 Q62.5277 779.495 61.4137 782.933 L55.3662 782.933 Q57.0531 779.686 57.9125 776.535 Q58.7401 773.384 58.7401 770.297 Q58.7401 766.159 57.3396 763.931 Q55.9073 761.703 53.3292 761.703 Q50.9421 761.703 49.6689 763.326 Q48.3958 764.918 47.2181 770.361 L46.7407 772.398 Q45.5949 777.84 43.2396 780.259 Q40.8524 782.678 36.7147 782.678 Q31.6858 782.678 28.9486 779.113 Q26.2113 775.549 26.2113 768.992 Q26.2113 765.745 26.6887 762.881 Q27.1662 760.016 28.121 757.597 Z" fill="#000000" fill-rule="nonzero" fill-opacity="1" /><path clip-path="url(#clip870)" d="M17.6626 700.384 L55.7944 709.884 Q57.5013 710.271 58.9505 710.271 Q61.9779 710.271 61.9779 708.306 Q61.9779 707.34 61.366 706.567 Q60.7541 705.794 59.4658 705.182 Q58.1776 704.57 56.986 704.184 Q55.7622 703.797 53.8298 703.282 Q53.0569 703.121 52.8636 702.992 Q52.6382 702.831 52.6382 702.38 Q52.6382 701.575 53.2823 701.575 Q57.4369 702.445 59.8201 703.572 Q63.4594 705.376 63.4594 708.435 Q63.4594 710.754 62.0423 712.396 Q60.6252 714.039 58.4997 714.425 Q63.4594 718.644 63.4594 723.024 Q63.4594 726.889 60.5286 729.337 Q57.5657 731.784 52.8958 731.784 Q48.1938 731.784 43.685 729.466 Q39.1761 727.115 36.3742 723.411 Q33.5723 719.707 33.5723 715.907 Q33.5723 711.881 37.7913 709.82 L22.1392 705.859 L20.851 705.665 Q20.4645 705.665 20.2713 705.826 Q20.0459 705.955 19.8848 706.728 Q19.7238 707.469 19.7238 708.95 Q19.7238 709.562 19.6916 709.852 Q19.6594 710.11 19.4984 710.335 Q19.3051 710.561 18.9187 710.561 Q17.7914 710.561 17.6626 709.627 Q16.9541 703.443 16.9541 701.253 Q16.9541 700.867 17.1473 700.641 Q17.3084 700.416 17.5016 700.416 L17.6626 700.384 M40.8186 710.625 Q40.5288 710.625 39.7236 710.851 Q38.9185 711.076 37.7913 711.591 Q36.6641 712.107 35.8589 713.234 Q35.0216 714.329 35.0216 715.81 Q35.0216 717.807 36.7285 719.9 Q38.4354 721.962 41.3339 723.475 Q43.6528 724.635 48.5158 725.891 Q53.3789 727.115 55.7944 727.115 Q57.2758 727.115 58.5963 726.792 Q59.8845 726.438 60.9473 725.44 Q61.9779 724.441 61.9779 722.896 Q61.9779 719.127 57.308 715.424 Q56.5029 714.715 56.1808 714.554 Q55.8266 714.361 54.8604 714.103 L41.9458 710.818 Q40.9797 710.625 40.8186 710.625 Z" fill="#000000" fill-rule="nonzero" fill-opacity="1" /><path clip-path="url(#clip870)" d="M52.7353 681.86 Q53.7272 681.86 54.4712 682.672 Q55.1926 683.461 55.1926 684.317 Q55.1926 685.106 54.7192 685.602 Q54.2232 686.076 53.5243 686.076 Q52.6 686.076 51.8335 685.287 Q51.067 684.498 51.067 683.573 Q51.067 682.807 51.5405 682.333 Q52.0139 681.86 52.7353 681.86 M74.9863 681.454 Q75.1667 681.454 75.8881 681.657 Q76.587 681.86 77.6691 682.356 Q78.7287 682.829 79.7206 683.483 Q80.7125 684.137 81.4114 685.219 Q82.1103 686.279 82.1103 687.496 Q82.1103 689.142 81.0281 690.224 Q79.946 691.283 78.3229 691.283 Q77.4436 691.283 74.6256 690.224 Q66.4196 687.158 66.0814 687.045 Q64.7964 686.527 63.6692 686.527 Q63.1507 686.527 62.8351 686.639 Q62.4969 686.752 62.3842 686.978 Q62.2489 687.203 62.2264 687.338 Q62.2038 687.451 62.2038 687.676 Q62.2038 689.007 63.5565 690.246 Q64.9091 691.486 67.93 692.343 Q68.4936 692.523 68.6289 692.636 Q68.7642 692.749 68.7642 693.087 Q68.7416 693.651 68.2907 693.651 Q68.1555 693.651 67.637 693.493 Q67.0959 693.335 66.2843 693.042 Q65.4502 692.749 64.5935 692.23 Q63.7143 691.712 62.9478 691.081 Q62.1813 690.427 61.6853 689.502 Q61.1893 688.578 61.1893 687.541 Q61.1893 685.85 62.294 684.813 Q63.3761 683.754 64.9767 683.754 Q65.856 683.754 67.4115 684.362 Q69.4405 685.106 70.0943 685.377 L74.9412 687.18 Q76.6997 687.834 77.2407 688.037 Q77.7593 688.217 78.3905 688.375 Q78.9992 688.511 79.5628 688.511 Q80.3518 688.511 80.7125 688.263 Q81.0732 687.992 81.0732 687.406 Q81.0732 685.783 79.4726 684.588 Q77.8494 683.393 75.3696 682.694 Q75.3019 682.672 75.1892 682.649 Q74.6256 682.469 74.558 682.288 Q74.5354 682.198 74.5354 682.018 Q74.5354 681.454 74.9863 681.454 Z" fill="#000000" fill-rule="nonzero" fill-opacity="1" /><path clip-path="url(#clip870)" d="M13.1934 648.213 L13.1934 634.718 L17.7449 634.718 L17.7449 642.357 L66.7608 642.357 L66.7608 634.718 L71.3123 634.718 L71.3123 648.213 L13.1934 648.213 Z" fill="#000000" fill-rule="nonzero" fill-opacity="1" /><path clip-path="url(#clip870)" d="M33.9138 594.487 Q29.9671 592.291 28.0892 589.235 Q26.2113 586.18 26.2113 582.042 Q26.2113 576.472 30.1262 573.448 Q34.0093 570.424 41.2025 570.424 L62.7186 570.424 L62.7186 576.313 L41.3935 576.313 Q36.2691 576.313 33.7865 578.127 Q31.3039 579.941 31.3039 583.665 Q31.3039 588.217 34.3276 590.858 Q37.3513 593.5 42.5712 593.5 L62.7186 593.5 L62.7186 599.388 L41.3935 599.388 Q36.2373 599.388 33.7865 601.203 Q31.3039 603.017 31.3039 606.804 Q31.3039 611.292 34.3594 613.934 Q37.3831 616.576 42.5712 616.576 L62.7186 616.576 L62.7186 622.464 L27.0707 622.464 L27.0707 616.576 L32.6088 616.576 Q29.3305 614.571 27.7709 611.77 Q26.2113 608.969 26.2113 605.118 Q26.2113 601.234 28.1847 598.529 Q30.158 595.792 33.9138 594.487 Z" fill="#000000" fill-rule="nonzero" fill-opacity="1" /><path clip-path="url(#clip870)" d="M33.9138 530.989 Q29.9671 528.793 28.0892 525.737 Q26.2113 522.682 26.2113 518.544 Q26.2113 512.974 30.1262 509.95 Q34.0093 506.927 41.2025 506.927 L62.7186 506.927 L62.7186 512.815 L41.3935 512.815 Q36.2691 512.815 33.7865 514.629 Q31.3039 516.443 31.3039 520.167 Q31.3039 524.719 34.3276 527.36 Q37.3513 530.002 42.5712 530.002 L62.7186 530.002 L62.7186 535.891 L41.3935 535.891 Q36.2373 535.891 33.7865 537.705 Q31.3039 539.519 31.3039 543.307 Q31.3039 547.794 34.3594 550.436 Q37.3831 553.078 42.5712 553.078 L62.7186 553.078 L62.7186 558.966 L27.0707 558.966 L27.0707 553.078 L32.6088 553.078 Q29.3305 551.073 27.7709 548.272 Q26.2113 545.471 26.2113 541.62 Q26.2113 537.737 28.1847 535.031 Q30.158 532.294 33.9138 530.989 Z" fill="#000000" fill-rule="nonzero" fill-opacity="1" /><path clip-path="url(#clip870)" d="M13.1934 481.559 L71.3123 481.559 L71.3123 495.055 L66.7608 495.055 L66.7608 487.447 L17.7449 487.447 L17.7449 495.055 L13.1934 495.055 L13.1934 481.559 Z" fill="#000000" fill-rule="nonzero" fill-opacity="1" /><path clip-path="url(#clip870)" d="M778.342 18.8205 L778.342 65.8515 L788.226 65.8515 Q800.744 65.8515 806.536 60.1802 Q812.37 54.509 812.37 42.2752 Q812.37 30.1225 806.536 24.4918 Q800.744 18.8205 788.226 18.8205 L778.342 18.8205 M770.159 12.096 L786.971 12.096 Q804.552 12.096 812.775 19.4281 Q820.998 26.7198 820.998 42.2752 Q820.998 57.9117 812.734 65.2439 Q804.47 72.576 786.971 72.576 L770.159 72.576 L770.159 12.096 Z" fill="#000000" fill-rule="nonzero" fill-opacity="1" /><path clip-path="url(#clip870)" d="M833.718 27.2059 L841.172 27.2059 L841.172 72.576 L833.718 72.576 L833.718 27.2059 M833.718 9.54393 L841.172 9.54393 L841.172 18.9825 L833.718 18.9825 L833.718 9.54393 Z" fill="#000000" fill-rule="nonzero" fill-opacity="1" /><path clip-path="url(#clip870)" d="M885.691 28.5427 L885.691 35.5912 Q882.531 33.9709 879.129 33.1607 Q875.726 32.3505 872.08 32.3505 Q866.53 32.3505 863.735 34.0519 Q860.981 35.7533 860.981 39.156 Q860.981 41.7486 862.966 43.2475 Q864.95 44.7058 870.946 46.0426 L873.498 46.6097 Q881.438 48.3111 884.759 51.4303 Q888.122 54.509 888.122 60.0587 Q888.122 66.3781 883.099 70.0644 Q878.116 73.7508 869.366 73.7508 Q865.72 73.7508 861.75 73.0216 Q857.821 72.3329 853.446 70.9151 L853.446 63.2184 Q857.578 65.3654 861.588 66.4591 Q865.599 67.5124 869.528 67.5124 Q874.794 67.5124 877.63 65.73 Q880.465 63.9071 880.465 60.6258 Q880.465 57.5877 878.399 55.9673 Q876.374 54.3469 869.447 52.8481 L866.854 52.2405 Q859.927 50.7821 856.849 47.7845 Q853.77 44.7463 853.77 39.4801 Q853.77 33.0797 858.307 29.5959 Q862.844 26.1121 871.189 26.1121 Q875.321 26.1121 878.967 26.7198 Q882.612 27.3274 885.691 28.5427 Z" fill="#000000" fill-rule="nonzero" fill-opacity="1" /><path clip-path="url(#clip870)" d="M907.363 14.324 L907.363 27.2059 L922.716 27.2059 L922.716 32.9987 L907.363 32.9987 L907.363 57.6282 Q907.363 63.1779 908.862 64.7578 Q910.402 66.3376 915.06 66.3376 L922.716 66.3376 L922.716 72.576 L915.06 72.576 Q906.432 72.576 903.151 69.3758 Q899.869 66.1351 899.869 57.6282 L899.869 32.9987 L894.401 32.9987 L894.401 27.2059 L899.869 27.2059 L899.869 14.324 L907.363 14.324 Z" fill="#000000" fill-rule="nonzero" fill-opacity="1" /><path clip-path="url(#clip870)" d="M953.139 49.7694 Q944.105 49.7694 940.621 51.8354 Q937.138 53.9013 937.138 58.8839 Q937.138 62.8538 939.73 65.2034 Q942.363 67.5124 946.86 67.5124 Q953.058 67.5124 956.784 63.1374 Q960.552 58.7219 960.552 51.4303 L960.552 49.7694 L953.139 49.7694 M968.005 46.6907 L968.005 72.576 L960.552 72.576 L960.552 65.6895 Q958 69.8214 954.192 71.8063 Q950.384 73.7508 944.875 73.7508 Q937.907 73.7508 933.775 69.8619 Q929.684 65.9325 929.684 59.3701 Q929.684 51.7138 934.788 47.825 Q939.933 43.9361 950.101 43.9361 L960.552 43.9361 L960.552 43.2069 Q960.552 38.0623 957.149 35.2672 Q953.787 32.4315 947.67 32.4315 Q943.781 32.4315 940.095 33.3632 Q936.408 34.295 933.006 36.1584 L933.006 29.2718 Q937.097 27.692 940.945 26.9223 Q944.794 26.1121 948.44 26.1121 Q958.283 26.1121 963.144 31.2163 Q968.005 36.3204 968.005 46.6907 Z" fill="#000000" fill-rule="nonzero" fill-opacity="1" /><path clip-path="url(#clip870)" d="M1021.07 45.1919 L1021.07 72.576 L1013.62 72.576 L1013.62 45.4349 Q1013.62 38.994 1011.11 35.7938 Q1008.6 32.5936 1003.57 32.5936 Q997.537 32.5936 994.053 36.4419 Q990.569 40.2903 990.569 46.9338 L990.569 72.576 L983.075 72.576 L983.075 27.2059 L990.569 27.2059 L990.569 34.2544 Q993.243 30.163 996.848 28.1376 Q1000.49 26.1121 1005.23 26.1121 Q1013.05 26.1121 1017.06 30.9732 Q1021.07 35.7938 1021.07 45.1919 Z" fill="#000000" fill-rule="nonzero" fill-opacity="1" /><path clip-path="url(#clip870)" d="M1068.59 28.9478 L1068.59 35.9153 Q1065.43 34.1734 1062.23 33.3227 Q1059.07 32.4315 1055.83 32.4315 Q1048.58 32.4315 1044.57 37.0496 Q1040.56 41.6271 1040.56 49.9314 Q1040.56 58.2358 1044.57 62.8538 Q1048.58 67.4314 1055.83 67.4314 Q1059.07 67.4314 1062.23 66.5807 Q1065.43 65.6895 1068.59 63.9476 L1068.59 70.8341 Q1065.47 72.2924 1062.11 73.0216 Q1058.79 73.7508 1055.02 73.7508 Q1044.77 73.7508 1038.73 67.3098 Q1032.7 60.8689 1032.7 49.9314 Q1032.7 38.832 1038.77 32.472 Q1044.89 26.1121 1055.51 26.1121 Q1058.95 26.1121 1062.23 26.8413 Q1065.51 27.5299 1068.59 28.9478 Z" fill="#000000" fill-rule="nonzero" fill-opacity="1" /><path clip-path="url(#clip870)" d="M1120.36 48.0275 L1120.36 51.6733 L1086.09 51.6733 Q1086.58 59.3701 1090.71 63.421 Q1094.88 67.4314 1102.29 67.4314 Q1106.59 67.4314 1110.6 66.3781 Q1114.65 65.3249 1118.62 63.2184 L1118.62 70.267 Q1114.61 71.9684 1110.39 72.8596 Q1106.18 73.7508 1101.85 73.7508 Q1090.99 73.7508 1084.63 67.4314 Q1078.31 61.1119 1078.31 50.3365 Q1078.31 39.1965 1084.31 32.6746 Q1090.34 26.1121 1100.55 26.1121 Q1109.71 26.1121 1115.01 32.0264 Q1120.36 37.9003 1120.36 48.0275 M1112.91 45.84 Q1112.83 39.7232 1109.46 36.0774 Q1106.14 32.4315 1100.63 32.4315 Q1094.39 32.4315 1090.63 35.9558 Q1086.9 39.4801 1086.33 45.8805 L1112.91 45.84 Z" fill="#000000" fill-rule="nonzero" fill-opacity="1" /><path clip-path="url(#clip870)" d="M1166.34 14.324 L1166.34 27.2059 L1181.69 27.2059 L1181.69 32.9987 L1166.34 32.9987 L1166.34 57.6282 Q1166.34 63.1779 1167.84 64.7578 Q1169.38 66.3376 1174.03 66.3376 L1181.69 66.3376 L1181.69 72.576 L1174.03 72.576 Q1165.41 72.576 1162.12 69.3758 Q1158.84 66.1351 1158.84 57.6282 L1158.84 32.9987 L1153.37 32.9987 L1153.37 27.2059 L1158.84 27.2059 L1158.84 14.324 L1166.34 14.324 Z" fill="#000000" fill-rule="nonzero" fill-opacity="1" /><path clip-path="url(#clip870)" d="M1217.78 34.1734 Q1216.53 33.4443 1215.03 33.1202 Q1213.57 32.7556 1211.79 32.7556 Q1205.47 32.7556 1202.07 36.8875 Q1198.7 40.9789 1198.7 48.6757 L1198.7 72.576 L1191.21 72.576 L1191.21 27.2059 L1198.7 27.2059 L1198.7 34.2544 Q1201.05 30.1225 1204.82 28.1376 Q1208.59 26.1121 1213.98 26.1121 Q1214.75 26.1121 1215.68 26.2337 Q1216.61 26.3147 1217.74 26.5172 L1217.78 34.1734 Z" fill="#000000" fill-rule="nonzero" fill-opacity="1" /><path clip-path="url(#clip870)" d="M1246.22 49.7694 Q1237.19 49.7694 1233.7 51.8354 Q1230.22 53.9013 1230.22 58.8839 Q1230.22 62.8538 1232.81 65.2034 Q1235.45 67.5124 1239.94 67.5124 Q1246.14 67.5124 1249.87 63.1374 Q1253.63 58.7219 1253.63 51.4303 L1253.63 49.7694 L1246.22 49.7694 M1261.09 46.6907 L1261.09 72.576 L1253.63 72.576 L1253.63 65.6895 Q1251.08 69.8214 1247.27 71.8063 Q1243.47 73.7508 1237.96 73.7508 Q1230.99 73.7508 1226.86 69.8619 Q1222.77 65.9325 1222.77 59.3701 Q1222.77 51.7138 1227.87 47.825 Q1233.02 43.9361 1243.18 43.9361 L1253.63 43.9361 L1253.63 43.2069 Q1253.63 38.0623 1250.23 35.2672 Q1246.87 32.4315 1240.75 32.4315 Q1236.86 32.4315 1233.18 33.3632 Q1229.49 34.295 1226.09 36.1584 L1226.09 29.2718 Q1230.18 27.692 1234.03 26.9223 Q1237.88 26.1121 1241.52 26.1121 Q1251.37 26.1121 1256.23 31.2163 Q1261.09 36.3204 1261.09 46.6907 Z" fill="#000000" fill-rule="nonzero" fill-opacity="1" /><path clip-path="url(#clip870)" d="M1309.09 28.9478 L1309.09 35.9153 Q1305.93 34.1734 1302.73 33.3227 Q1299.57 32.4315 1296.33 32.4315 Q1289.08 32.4315 1285.07 37.0496 Q1281.06 41.6271 1281.06 49.9314 Q1281.06 58.2358 1285.07 62.8538 Q1289.08 67.4314 1296.33 67.4314 Q1299.57 67.4314 1302.73 66.5807 Q1305.93 65.6895 1309.09 63.9476 L1309.09 70.8341 Q1305.97 72.2924 1302.61 73.0216 Q1299.29 73.7508 1295.52 73.7508 Q1285.27 73.7508 1279.24 67.3098 Q1273.2 60.8689 1273.2 49.9314 Q1273.2 38.832 1279.28 32.472 Q1285.39 26.1121 1296.01 26.1121 Q1299.45 26.1121 1302.73 26.8413 Q1306.01 27.5299 1309.09 28.9478 Z" fill="#000000" fill-rule="nonzero" fill-opacity="1" /><path clip-path="url(#clip870)" d="M1360.86 48.0275 L1360.86 51.6733 L1326.59 51.6733 Q1327.08 59.3701 1331.21 63.421 Q1335.38 67.4314 1342.8 67.4314 Q1347.09 67.4314 1351.1 66.3781 Q1355.15 65.3249 1359.12 63.2184 L1359.12 70.267 Q1355.11 71.9684 1350.9 72.8596 Q1346.68 73.7508 1342.35 73.7508 Q1331.49 73.7508 1325.13 67.4314 Q1318.81 61.1119 1318.81 50.3365 Q1318.81 39.1965 1324.81 32.6746 Q1330.84 26.1121 1341.05 26.1121 Q1350.21 26.1121 1355.51 32.0264 Q1360.86 37.9003 1360.86 48.0275 M1353.41 45.84 Q1353.33 39.7232 1349.97 36.0774 Q1346.64 32.4315 1341.13 32.4315 Q1334.9 32.4315 1331.13 35.9558 Q1327.4 39.4801 1326.83 45.8805 L1353.41 45.84 Z" fill="#000000" fill-rule="nonzero" fill-opacity="1" /><path clip-path="url(#clip870)" d="M1432.04 49.9314 Q1432.04 41.7081 1428.63 37.0496 Q1425.27 32.3505 1419.36 32.3505 Q1413.44 32.3505 1410.04 37.0496 Q1406.68 41.7081 1406.68 49.9314 Q1406.68 58.1548 1410.04 62.8538 Q1413.44 67.5124 1419.36 67.5124 Q1425.27 67.5124 1428.63 62.8538 Q1432.04 58.1548 1432.04 49.9314 M1406.68 34.0924 Q1409.03 30.0415 1412.59 28.0971 Q1416.2 26.1121 1421.18 26.1121 Q1429.44 26.1121 1434.59 32.6746 Q1439.77 39.2371 1439.77 49.9314 Q1439.77 60.6258 1434.59 67.1883 Q1429.44 73.7508 1421.18 73.7508 Q1416.2 73.7508 1412.59 71.8063 Q1409.03 69.8214 1406.68 65.7705 L1406.68 72.576 L1399.18 72.576 L1399.18 9.54393 L1406.68 9.54393 L1406.68 34.0924 Z" fill="#000000" fill-rule="nonzero" fill-opacity="1" /><path clip-path="url(#clip870)" d="M1490.94 48.0275 L1490.94 51.6733 L1456.67 51.6733 Q1457.15 59.3701 1461.28 63.421 Q1465.46 67.4314 1472.87 67.4314 Q1477.16 67.4314 1481.17 66.3781 Q1485.22 65.3249 1489.19 63.2184 L1489.19 70.267 Q1485.18 71.9684 1480.97 72.8596 Q1476.76 73.7508 1472.42 73.7508 Q1461.57 73.7508 1455.21 67.4314 Q1448.89 61.1119 1448.89 50.3365 Q1448.89 39.1965 1454.88 32.6746 Q1460.92 26.1121 1471.13 26.1121 Q1480.28 26.1121 1485.59 32.0264 Q1490.94 37.9003 1490.94 48.0275 M1483.48 45.84 Q1483.4 39.7232 1480.04 36.0774 Q1476.72 32.4315 1471.21 32.4315 Q1464.97 32.4315 1461.2 35.9558 Q1457.48 39.4801 1456.91 45.8805 L1483.48 45.84 Z" fill="#000000" fill-rule="nonzero" fill-opacity="1" /><path clip-path="url(#clip870)" d="M1532.09 28.5427 L1532.09 35.5912 Q1528.93 33.9709 1525.53 33.1607 Q1522.13 32.3505 1518.48 32.3505 Q1512.93 32.3505 1510.14 34.0519 Q1507.38 35.7533 1507.38 39.156 Q1507.38 41.7486 1509.37 43.2475 Q1511.35 44.7058 1517.35 46.0426 L1519.9 46.6097 Q1527.84 48.3111 1531.16 51.4303 Q1534.52 54.509 1534.52 60.0587 Q1534.52 66.3781 1529.5 70.0644 Q1524.52 73.7508 1515.77 73.7508 Q1512.12 73.7508 1508.15 73.0216 Q1504.22 72.3329 1499.85 70.9151 L1499.85 63.2184 Q1503.98 65.3654 1507.99 66.4591 Q1512 67.5124 1515.93 67.5124 Q1521.2 67.5124 1524.03 65.73 Q1526.87 63.9071 1526.87 60.6258 Q1526.87 57.5877 1524.8 55.9673 Q1522.78 54.3469 1515.85 52.8481 L1513.26 52.2405 Q1506.33 50.7821 1503.25 47.7845 Q1500.17 44.7463 1500.17 39.4801 Q1500.17 33.0797 1504.71 29.5959 Q1509.25 26.1121 1517.59 26.1121 Q1521.72 26.1121 1525.37 26.7198 Q1529.02 27.3274 1532.09 28.5427 Z" fill="#000000" fill-rule="nonzero" fill-opacity="1" /><path clip-path="url(#clip870)" d="M1553.77 14.324 L1553.77 27.2059 L1569.12 27.2059 L1569.12 32.9987 L1553.77 32.9987 L1553.77 57.6282 Q1553.77 63.1779 1555.27 64.7578 Q1556.8 66.3376 1561.46 66.3376 L1569.12 66.3376 L1569.12 72.576 L1561.46 72.576 Q1552.83 72.576 1549.55 69.3758 Q1546.27 66.1351 1546.27 57.6282 L1546.27 32.9987 L1540.8 32.9987 L1540.8 27.2059 L1546.27 27.2059 L1546.27 14.324 L1553.77 14.324 Z" fill="#000000" fill-rule="nonzero" fill-opacity="1" /><path clip-path="url(#clip870)" d="M1599.95 27.2059 L1607.85 27.2059 L1622.02 65.2844 L1636.2 27.2059 L1644.1 27.2059 L1627.09 72.576 L1616.96 72.576 L1599.95 27.2059 Z" fill="#000000" fill-rule="nonzero" fill-opacity="1" /><path clip-path="url(#clip870)" d="M1693.2 48.0275 L1693.2 51.6733 L1658.93 51.6733 Q1659.41 59.3701 1663.55 63.421 Q1667.72 67.4314 1675.13 67.4314 Q1679.43 67.4314 1683.44 66.3781 Q1687.49 65.3249 1691.46 63.2184 L1691.46 70.267 Q1687.45 71.9684 1683.23 72.8596 Q1679.02 73.7508 1674.69 73.7508 Q1663.83 73.7508 1657.47 67.4314 Q1651.15 61.1119 1651.15 50.3365 Q1651.15 39.1965 1657.15 32.6746 Q1663.18 26.1121 1673.39 26.1121 Q1682.54 26.1121 1687.85 32.0264 Q1693.2 37.9003 1693.2 48.0275 M1685.74 45.84 Q1685.66 39.7232 1682.3 36.0774 Q1678.98 32.4315 1673.47 32.4315 Q1667.23 32.4315 1663.46 35.9558 Q1659.74 39.4801 1659.17 45.8805 L1685.74 45.84 Z" fill="#000000" fill-rule="nonzero" fill-opacity="1" /><path clip-path="url(#clip870)" d="M1731.72 34.1734 Q1730.47 33.4443 1728.97 33.1202 Q1727.51 32.7556 1725.73 32.7556 Q1719.41 32.7556 1716 36.8875 Q1712.64 40.9789 1712.64 48.6757 L1712.64 72.576 L1705.15 72.576 L1705.15 27.2059 L1712.64 27.2059 L1712.64 34.2544 Q1714.99 30.1225 1718.76 28.1376 Q1722.53 26.1121 1727.91 26.1121 Q1728.68 26.1121 1729.62 26.2337 Q1730.55 26.3147 1731.68 26.5172 L1731.72 34.1734 Z" fill="#000000" fill-rule="nonzero" fill-opacity="1" /><path clip-path="url(#clip870)" d="M1746.91 14.324 L1746.91 27.2059 L1762.27 27.2059 L1762.27 32.9987 L1746.91 32.9987 L1746.91 57.6282 Q1746.91 63.1779 1748.41 64.7578 Q1749.95 66.3376 1754.61 66.3376 L1762.27 66.3376 L1762.27 72.576 L1754.61 72.576 Q1745.98 72.576 1742.7 69.3758 Q1739.42 66.1351 1739.42 57.6282 L1739.42 32.9987 L1733.95 32.9987 L1733.95 27.2059 L1739.42 27.2059 L1739.42 14.324 L1746.91 14.324 Z" fill="#000000" fill-rule="nonzero" fill-opacity="1" /><path clip-path="url(#clip870)" d="M1810.88 48.0275 L1810.88 51.6733 L1776.61 51.6733 Q1777.09 59.3701 1781.22 63.421 Q1785.4 67.4314 1792.81 67.4314 Q1797.1 67.4314 1801.11 66.3781 Q1805.17 65.3249 1809.14 63.2184 L1809.14 70.267 Q1805.12 71.9684 1800.91 72.8596 Q1796.7 73.7508 1792.36 73.7508 Q1781.51 73.7508 1775.15 67.4314 Q1768.83 61.1119 1768.83 50.3365 Q1768.83 39.1965 1774.82 32.6746 Q1780.86 26.1121 1791.07 26.1121 Q1800.22 26.1121 1805.53 32.0264 Q1810.88 37.9003 1810.88 48.0275 M1803.42 45.84 Q1803.34 39.7232 1799.98 36.0774 Q1796.66 32.4315 1791.15 32.4315 Q1784.91 32.4315 1781.14 35.9558 Q1777.42 39.4801 1776.85 45.8805 L1803.42 45.84 Z" fill="#000000" fill-rule="nonzero" fill-opacity="1" /><path clip-path="url(#clip870)" d="M1859.37 27.2059 L1842.96 49.2833 L1860.22 72.576 L1851.43 72.576 L1838.22 54.752 L1825.01 72.576 L1816.22 72.576 L1833.85 48.8377 L1817.72 27.2059 L1826.51 27.2059 L1838.54 43.369 L1850.58 27.2059 L1859.37 27.2059 Z" fill="#000000" fill-rule="nonzero" fill-opacity="1" /><polyline clip-path="url(#clip872)" style="stroke:#009af9; stroke-linecap:round; stroke-linejoin:round; stroke-width:4; stroke-opacity:1; fill:none" points="336.351,1386.4 355.928,1386.4 375.504,1386.4 395.081,1386.4 414.658,1386.4 434.235,1386.4 453.811,1386.4 473.388,1386.4 492.965,1386.4 512.542,1386.4 532.118,1386.4 551.695,1386.4 571.272,1386.4 590.849,1386.4 610.425,1386.4 630.002,1386.4 649.579,1386.4 669.156,1386.4 688.732,1386.4 708.309,1386.4 727.886,1386.4 747.463,1386.4 767.039,1386.4 786.616,1386.4 806.193,1386.4 825.77,1386.4 845.346,1386.4 864.923,1386.4 884.5,1386.4 904.077,1386.4 923.653,1386.4 943.23,1386.4 962.807,1386.4 982.384,1386.4 1001.96,1386.4 1021.54,1386.4 1041.11,1386.4 1060.69,1386.4 1080.27,1386.4 1099.84,1386.4 1119.42,1386.4 1139,1386.4 1158.57,1386.4 1178.15,1386.4 1197.73,1386.4 1217.3,1386.4 1236.88,1386.4 1256.46,1386.4 1276.03,1386.4 1295.61,1386.4 1315.19,1386.4 1334.76,1386.4 1354.34,1386.4 1373.92,1386.4 1393.5,1386.4 1413.07,1386.4 1432.65,1386.4 1452.23,1386.4 1471.8,1386.4 1491.38,1386.4 1510.96,1386.4 1530.53,1386.4 1550.11,1386.4 1569.69,1386.4 1589.26,1386.4 1608.84,1386.4 1628.42,1386.4 1647.99,1386.4 1667.57,1386.4 1687.15,1386.4 1706.72,1386.4 1726.3,1386.4 1745.88,1386.4 1765.45,1386.4 1785.03,1386.4 1804.61,1386.4 1824.18,1386.4 1843.76,1386.4 1863.34,1386.4 1882.91,1386.4 1902.49,1386.4 1922.07,1386.4 1941.64,1386.4 1961.22,1386.4 1980.8,1386.4 2000.37,1386.4 2019.95,1386.4 2039.53,1386.4 2059.1,1386.4 2078.68,1386.4 2098.26,1386.4 2117.83,1386.4 2137.41,1386.4 2156.99,1386.4 2176.57,1386.4 2196.14,1386.4 2215.72,1386.4 2235.3,1386.4 2254.87,1386.4 2274.45,1386.4 2294.03,1386.4 "/>
<polyline clip-path="url(#clip872)" style="stroke:#e26f46; stroke-linecap:round; stroke-linejoin:round; stroke-width:4; stroke-opacity:1; fill:none" points="336.351,160.256 355.928,160.256 375.504,160.256 395.081,160.256 414.658,160.256 434.235,160.256 453.811,160.256 473.388,160.256 492.965,160.256 512.542,160.256 532.118,160.256 551.695,160.256 571.272,160.256 590.849,160.256 610.425,160.256 630.002,160.256 649.579,160.256 669.156,160.256 688.732,160.256 708.309,160.256 727.886,160.256 747.463,160.256 767.039,160.256 786.616,160.256 806.193,160.256 825.77,160.256 845.346,160.256 864.923,160.256 884.5,160.256 904.077,160.256 923.653,160.256 943.23,160.256 962.807,160.256 982.384,160.256 1001.96,160.256 1021.54,160.256 1041.11,160.256 1060.69,160.256 1080.27,160.256 1099.84,160.256 1119.42,160.256 1139,160.256 1158.57,160.256 1178.15,160.256 1197.73,160.256 1217.3,160.256 1236.88,160.256 1256.46,160.256 1276.03,160.256 1295.61,160.256 1315.19,160.256 1334.76,160.256 1354.34,160.256 1373.92,160.256 1393.5,160.256 1413.07,160.256 1432.65,160.256 1452.23,160.256 1471.8,160.256 1491.38,160.256 1510.96,160.256 1530.53,160.256 1550.11,160.256 1569.69,160.256 1589.26,160.256 1608.84,160.256 1628.42,160.256 1647.99,160.256 1667.57,160.256 1687.15,160.256 1706.72,160.256 1726.3,160.256 1745.88,160.256 1765.45,160.256 1785.03,160.256 1804.61,160.256 1824.18,160.256 1843.76,160.256 1863.34,160.256 1882.91,160.256 1902.49,160.256 1922.07,160.256 1941.64,160.256 1961.22,160.256 1980.8,160.256 2000.37,160.256 2019.95,160.256 2039.53,160.256 2059.1,160.256 2078.68,160.256 2098.26,160.256 2117.83,160.256 2137.41,160.256 2156.99,160.256 2176.57,160.256 2196.14,160.256 2215.72,160.256 2235.3,160.256 2254.87,160.256 2274.45,160.256 2294.03,160.256 "/>
</svg>
