<?xml version="1.0" encoding="utf-8"?>
<svg xmlns="http://www.w3.org/2000/svg" xmlns:xlink="http://www.w3.org/1999/xlink" width="600" height="400" viewBox="0 0 2400 1600">
<defs>
  <clipPath id="clip830">
    <rect x="0" y="0" width="2400" height="1600"/>
  </clipPath>
</defs>
<path clip-path="url(#clip830)" d="M0 1600 L2400 1600 L2400 0 L0 0  Z" fill="#ffffff" fill-rule="evenodd" fill-opacity="1"/>
<defs>
  <clipPath id="clip831">
    <rect x="480" y="0" width="1681" height="1600"/>
  </clipPath>
</defs>
<path clip-path="url(#clip830)" d="M235.283 1423.18 L2352.76 1423.18 L2352.76 47.2441 L235.283 47.2441  Z" fill="#ffffff" fill-rule="evenodd" fill-opacity="1"/>
<defs>
  <clipPath id="clip832">
    <rect x="235" y="47" width="2118" height="1377"/>
  </clipPath>
</defs>
<polyline clip-path="url(#clip832)" style="stroke:#000000; stroke-linecap:round; stroke-linejoin:round; stroke-width:2; stroke-opacity:0.1; fill:none" points="494.973,1423.18 494.973,47.2441 "/>
<polyline clip-path="url(#clip832)" style="stroke:#000000; stroke-linecap:round; stroke-linejoin:round; stroke-width:2; stroke-opacity:0.1; fill:none" points="894.496,1423.18 894.496,47.2441 "/>
<polyline clip-path="url(#clip832)" style="stroke:#000000; stroke-linecap:round; stroke-linejoin:round; stroke-width:2; stroke-opacity:0.1; fill:none" points="1294.02,1423.18 1294.02,47.2441 "/>
<polyline clip-path="url(#clip832)" style="stroke:#000000; stroke-linecap:round; stroke-linejoin:round; stroke-width:2; stroke-opacity:0.1; fill:none" points="1693.54,1423.18 1693.54,47.2441 "/>
<polyline clip-path="url(#clip832)" style="stroke:#000000; stroke-linecap:round; stroke-linejoin:round; stroke-width:2; stroke-opacity:0.1; fill:none" points="2093.07,1423.18 2093.07,47.2441 "/>
<polyline clip-path="url(#clip832)" style="stroke:#000000; stroke-linecap:round; stroke-linejoin:round; stroke-width:2; stroke-opacity:0.1; fill:none" points="235.283,1387.1 2352.76,1387.1 "/>
<polyline clip-path="url(#clip832)" style="stroke:#000000; stroke-linecap:round; stroke-linejoin:round; stroke-width:2; stroke-opacity:0.1; fill:none" points="235.283,1107.95 2352.76,1107.95 "/>
<polyline clip-path="url(#clip832)" style="stroke:#000000; stroke-linecap:round; stroke-linejoin:round; stroke-width:2; stroke-opacity:0.1; fill:none" points="235.283,828.809 2352.76,828.809 "/>
<polyline clip-path="url(#clip832)" style="stroke:#000000; stroke-linecap:round; stroke-linejoin:round; stroke-width:2; stroke-opacity:0.1; fill:none" points="235.283,549.665 2352.76,549.665 "/>
<polyline clip-path="url(#clip832)" style="stroke:#000000; stroke-linecap:round; stroke-linejoin:round; stroke-width:2; stroke-opacity:0.1; fill:none" points="235.283,270.522 2352.76,270.522 "/>
<polyline clip-path="url(#clip830)" style="stroke:#000000; stroke-linecap:round; stroke-linejoin:round; stroke-width:4; stroke-opacity:1; fill:none" points="235.283,1423.18 2352.76,1423.18 "/>
<polyline clip-path="url(#clip830)" style="stroke:#000000; stroke-linecap:round; stroke-linejoin:round; stroke-width:4; stroke-opacity:1; fill:none" points="494.973,1423.18 494.973,1404.28 "/>
<polyline clip-path="url(#clip830)" style="stroke:#000000; stroke-linecap:round; stroke-linejoin:round; stroke-width:4; stroke-opacity:1; fill:none" points="894.496,1423.18 894.496,1404.28 "/>
<polyline clip-path="url(#clip830)" style="stroke:#000000; stroke-linecap:round; stroke-linejoin:round; stroke-width:4; stroke-opacity:1; fill:none" points="1294.02,1423.18 1294.02,1404.28 "/>
<polyline clip-path="url(#clip830)" style="stroke:#000000; stroke-linecap:round; stroke-linejoin:round; stroke-width:4; stroke-opacity:1; fill:none" points="1693.54,1423.18 1693.54,1404.28 "/>
<polyline clip-path="url(#clip830)" style="stroke:#000000; stroke-linecap:round; stroke-linejoin:round; stroke-width:4; stroke-opacity:1; fill:none" points="2093.07,1423.18 2093.07,1404.28 "/>
<path clip-path="url(#clip830)" d="M446.964 1481.64 L454.603 1481.64 L454.603 1455.28 L446.293 1456.95 L446.293 1452.69 L454.556 1451.02 L459.232 1451.02 L459.232 1481.64 L466.871 1481.64 L466.871 1485.58 L446.964 1485.58 L446.964 1481.64 Z" fill="#000000" fill-rule="nonzero" fill-opacity="1" /><path clip-path="url(#clip830)" d="M475.135 1451.02 L497.357 1451.02 L497.357 1453.01 L484.811 1485.58 L479.927 1485.58 L491.732 1454.96 L475.135 1454.96 L475.135 1451.02 Z" fill="#000000" fill-rule="nonzero" fill-opacity="1" /><path clip-path="url(#clip830)" d="M506.478 1479.7 L511.362 1479.7 L511.362 1485.58 L506.478 1485.58 L506.478 1479.7 Z" fill="#000000" fill-rule="nonzero" fill-opacity="1" /><path clip-path="url(#clip830)" d="M532.126 1466.44 Q528.977 1466.44 527.126 1468.59 Q525.297 1470.74 525.297 1474.49 Q525.297 1478.22 527.126 1480.39 Q528.977 1482.55 532.126 1482.55 Q535.274 1482.55 537.102 1480.39 Q538.954 1478.22 538.954 1474.49 Q538.954 1470.74 537.102 1468.59 Q535.274 1466.44 532.126 1466.44 M541.408 1451.78 L541.408 1456.04 Q539.649 1455.21 537.843 1454.77 Q536.061 1454.33 534.301 1454.33 Q529.672 1454.33 527.218 1457.45 Q524.788 1460.58 524.44 1466.9 Q525.806 1464.89 527.866 1463.82 Q529.926 1462.73 532.403 1462.73 Q537.612 1462.73 540.621 1465.9 Q543.653 1469.05 543.653 1474.49 Q543.653 1479.82 540.505 1483.03 Q537.357 1486.25 532.126 1486.25 Q526.13 1486.25 522.959 1481.67 Q519.788 1477.06 519.788 1468.33 Q519.788 1460.14 523.676 1455.28 Q527.565 1450.39 534.116 1450.39 Q535.876 1450.39 537.658 1450.74 Q539.463 1451.09 541.408 1451.78 Z" fill="#000000" fill-rule="nonzero" fill-opacity="1" /><path clip-path="url(#clip830)" d="M846.614 1481.64 L854.253 1481.64 L854.253 1455.28 L845.943 1456.95 L845.943 1452.69 L854.207 1451.02 L858.883 1451.02 L858.883 1481.64 L866.522 1481.64 L866.522 1485.58 L846.614 1485.58 L846.614 1481.64 Z" fill="#000000" fill-rule="nonzero" fill-opacity="1" /><path clip-path="url(#clip830)" d="M874.786 1451.02 L897.008 1451.02 L897.008 1453.01 L884.461 1485.58 L879.577 1485.58 L891.383 1454.96 L874.786 1454.96 L874.786 1451.02 Z" fill="#000000" fill-rule="nonzero" fill-opacity="1" /><path clip-path="url(#clip830)" d="M906.128 1479.7 L911.012 1479.7 L911.012 1485.58 L906.128 1485.58 L906.128 1479.7 Z" fill="#000000" fill-rule="nonzero" fill-opacity="1" /><path clip-path="url(#clip830)" d="M931.197 1469.17 Q927.864 1469.17 925.943 1470.95 Q924.045 1472.73 924.045 1475.86 Q924.045 1478.98 925.943 1480.77 Q927.864 1482.55 931.197 1482.55 Q934.531 1482.55 936.452 1480.77 Q938.373 1478.96 938.373 1475.86 Q938.373 1472.73 936.452 1470.95 Q934.554 1469.17 931.197 1469.17 M926.521 1467.18 Q923.512 1466.44 921.822 1464.38 Q920.156 1462.32 920.156 1459.35 Q920.156 1455.21 923.096 1452.8 Q926.058 1450.39 931.197 1450.39 Q936.359 1450.39 939.299 1452.8 Q942.239 1455.21 942.239 1459.35 Q942.239 1462.32 940.549 1464.38 Q938.882 1466.44 935.896 1467.18 Q939.276 1467.96 941.151 1470.26 Q943.049 1472.55 943.049 1475.86 Q943.049 1480.88 939.97 1483.57 Q936.915 1486.25 931.197 1486.25 Q925.48 1486.25 922.401 1483.57 Q919.346 1480.88 919.346 1475.86 Q919.346 1472.55 921.244 1470.26 Q923.142 1467.96 926.521 1467.18 M924.808 1459.79 Q924.808 1462.48 926.475 1463.98 Q928.165 1465.49 931.197 1465.49 Q934.207 1465.49 935.896 1463.98 Q937.609 1462.48 937.609 1459.79 Q937.609 1457.11 935.896 1455.6 Q934.207 1454.1 931.197 1454.1 Q928.165 1454.1 926.475 1455.6 Q924.808 1457.11 924.808 1459.79 Z" fill="#000000" fill-rule="nonzero" fill-opacity="1" /><path clip-path="url(#clip830)" d="M1246.09 1481.64 L1253.73 1481.64 L1253.73 1455.28 L1245.42 1456.95 L1245.42 1452.69 L1253.68 1451.02 L1258.36 1451.02 L1258.36 1481.64 L1266 1481.64 L1266 1485.58 L1246.09 1485.58 L1246.09 1481.64 Z" fill="#000000" fill-rule="nonzero" fill-opacity="1" /><path clip-path="url(#clip830)" d="M1285.44 1469.17 Q1282.11 1469.17 1280.19 1470.95 Q1278.29 1472.73 1278.29 1475.86 Q1278.29 1478.98 1280.19 1480.77 Q1282.11 1482.55 1285.44 1482.55 Q1288.78 1482.55 1290.7 1480.77 Q1292.62 1478.96 1292.62 1475.86 Q1292.62 1472.73 1290.7 1470.95 Q1288.8 1469.17 1285.44 1469.17 M1280.77 1467.18 Q1277.76 1466.44 1276.07 1464.38 Q1274.4 1462.32 1274.4 1459.35 Q1274.4 1455.21 1277.34 1452.8 Q1280.3 1450.39 1285.44 1450.39 Q1290.61 1450.39 1293.54 1452.8 Q1296.48 1455.21 1296.48 1459.35 Q1296.48 1462.32 1294.79 1464.38 Q1293.13 1466.44 1290.14 1467.18 Q1293.52 1467.96 1295.4 1470.26 Q1297.29 1472.55 1297.29 1475.86 Q1297.29 1480.88 1294.22 1483.57 Q1291.16 1486.25 1285.44 1486.25 Q1279.73 1486.25 1276.65 1483.57 Q1273.59 1480.88 1273.59 1475.86 Q1273.59 1472.55 1275.49 1470.26 Q1277.39 1467.96 1280.77 1467.18 M1279.05 1459.79 Q1279.05 1462.48 1280.72 1463.98 Q1282.41 1465.49 1285.44 1465.49 Q1288.45 1465.49 1290.14 1463.98 Q1291.86 1462.48 1291.86 1459.79 Q1291.86 1457.11 1290.14 1455.6 Q1288.45 1454.1 1285.44 1454.1 Q1282.41 1454.1 1280.72 1455.6 Q1279.05 1457.11 1279.05 1459.79 Z" fill="#000000" fill-rule="nonzero" fill-opacity="1" /><path clip-path="url(#clip830)" d="M1305.6 1479.7 L1310.49 1479.7 L1310.49 1485.58 L1305.6 1485.58 L1305.6 1479.7 Z" fill="#000000" fill-rule="nonzero" fill-opacity="1" /><path clip-path="url(#clip830)" d="M1330.67 1454.1 Q1327.06 1454.1 1325.23 1457.66 Q1323.43 1461.2 1323.43 1468.33 Q1323.43 1475.44 1325.23 1479.01 Q1327.06 1482.55 1330.67 1482.55 Q1334.31 1482.55 1336.11 1479.01 Q1337.94 1475.44 1337.94 1468.33 Q1337.94 1461.2 1336.11 1457.66 Q1334.31 1454.1 1330.67 1454.1 M1330.67 1450.39 Q1336.48 1450.39 1339.54 1455 Q1342.62 1459.58 1342.62 1468.33 Q1342.62 1477.06 1339.54 1481.67 Q1336.48 1486.25 1330.67 1486.25 Q1324.86 1486.25 1321.79 1481.67 Q1318.73 1477.06 1318.73 1468.33 Q1318.73 1459.58 1321.79 1455 Q1324.86 1450.39 1330.67 1450.39 Z" fill="#000000" fill-rule="nonzero" fill-opacity="1" /><path clip-path="url(#clip830)" d="M1646.41 1481.64 L1654.05 1481.64 L1654.05 1455.28 L1645.74 1456.95 L1645.74 1452.69 L1654.01 1451.02 L1658.68 1451.02 L1658.68 1481.64 L1666.32 1481.64 L1666.32 1485.58 L1646.41 1485.58 L1646.41 1481.64 Z" fill="#000000" fill-rule="nonzero" fill-opacity="1" /><path clip-path="url(#clip830)" d="M1685.76 1469.17 Q1682.43 1469.17 1680.51 1470.95 Q1678.61 1472.73 1678.61 1475.86 Q1678.61 1478.98 1680.51 1480.77 Q1682.43 1482.55 1685.76 1482.55 Q1689.1 1482.55 1691.02 1480.77 Q1692.94 1478.96 1692.94 1475.86 Q1692.94 1472.73 1691.02 1470.95 Q1689.12 1469.17 1685.76 1469.17 M1681.09 1467.18 Q1678.08 1466.44 1676.39 1464.38 Q1674.72 1462.32 1674.72 1459.35 Q1674.72 1455.21 1677.66 1452.8 Q1680.63 1450.39 1685.76 1450.39 Q1690.93 1450.39 1693.87 1452.8 Q1696.81 1455.21 1696.81 1459.35 Q1696.81 1462.32 1695.12 1464.38 Q1693.45 1466.44 1690.46 1467.18 Q1693.84 1467.96 1695.72 1470.26 Q1697.62 1472.55 1697.62 1475.86 Q1697.62 1480.88 1694.54 1483.57 Q1691.48 1486.25 1685.76 1486.25 Q1680.05 1486.25 1676.97 1483.57 Q1673.91 1480.88 1673.91 1475.86 Q1673.91 1472.55 1675.81 1470.26 Q1677.71 1467.96 1681.09 1467.18 M1679.38 1459.79 Q1679.38 1462.48 1681.04 1463.98 Q1682.73 1465.49 1685.76 1465.49 Q1688.77 1465.49 1690.46 1463.98 Q1692.18 1462.48 1692.18 1459.79 Q1692.18 1457.11 1690.46 1455.6 Q1688.77 1454.1 1685.76 1454.1 Q1682.73 1454.1 1681.04 1455.6 Q1679.38 1457.11 1679.38 1459.79 Z" fill="#000000" fill-rule="nonzero" fill-opacity="1" /><path clip-path="url(#clip830)" d="M1705.93 1479.7 L1710.81 1479.7 L1710.81 1485.58 L1705.93 1485.58 L1705.93 1479.7 Z" fill="#000000" fill-rule="nonzero" fill-opacity="1" /><path clip-path="url(#clip830)" d="M1725.02 1481.64 L1741.34 1481.64 L1741.34 1485.58 L1719.4 1485.58 L1719.4 1481.64 Q1722.06 1478.89 1726.64 1474.26 Q1731.25 1469.61 1732.43 1468.27 Q1734.68 1465.74 1735.56 1464.01 Q1736.46 1462.25 1736.46 1460.56 Q1736.46 1457.8 1734.51 1456.07 Q1732.59 1454.33 1729.49 1454.33 Q1727.29 1454.33 1724.84 1455.09 Q1722.41 1455.86 1719.63 1457.41 L1719.63 1452.69 Q1722.45 1451.55 1724.91 1450.97 Q1727.36 1450.39 1729.4 1450.39 Q1734.77 1450.39 1737.96 1453.08 Q1741.16 1455.77 1741.16 1460.26 Q1741.16 1462.39 1740.35 1464.31 Q1739.56 1466.2 1737.45 1468.8 Q1736.88 1469.47 1733.77 1472.69 Q1730.67 1475.88 1725.02 1481.64 Z" fill="#000000" fill-rule="nonzero" fill-opacity="1" /><path clip-path="url(#clip830)" d="M2044.89 1481.64 L2052.53 1481.64 L2052.53 1455.28 L2044.22 1456.95 L2044.22 1452.69 L2052.49 1451.02 L2057.16 1451.02 L2057.16 1481.64 L2064.8 1481.64 L2064.8 1485.58 L2044.89 1485.58 L2044.89 1481.64 Z" fill="#000000" fill-rule="nonzero" fill-opacity="1" /><path clip-path="url(#clip830)" d="M2084.25 1469.17 Q2080.91 1469.17 2078.99 1470.95 Q2077.09 1472.73 2077.09 1475.86 Q2077.09 1478.98 2078.99 1480.77 Q2080.91 1482.55 2084.25 1482.55 Q2087.58 1482.55 2089.5 1480.77 Q2091.42 1478.96 2091.42 1475.86 Q2091.42 1472.73 2089.5 1470.95 Q2087.6 1469.17 2084.25 1469.17 M2079.57 1467.18 Q2076.56 1466.44 2074.87 1464.38 Q2073.2 1462.32 2073.2 1459.35 Q2073.2 1455.21 2076.14 1452.8 Q2079.11 1450.39 2084.25 1450.39 Q2089.41 1450.39 2092.35 1452.8 Q2095.29 1455.21 2095.29 1459.35 Q2095.29 1462.32 2093.6 1464.38 Q2091.93 1466.44 2088.95 1467.18 Q2092.33 1467.96 2094.2 1470.26 Q2096.1 1472.55 2096.1 1475.86 Q2096.1 1480.88 2093.02 1483.57 Q2089.96 1486.25 2084.25 1486.25 Q2078.53 1486.25 2075.45 1483.57 Q2072.39 1480.88 2072.39 1475.86 Q2072.39 1472.55 2074.29 1470.26 Q2076.19 1467.96 2079.57 1467.18 M2077.86 1459.79 Q2077.86 1462.48 2079.52 1463.98 Q2081.21 1465.49 2084.25 1465.49 Q2087.26 1465.49 2088.95 1463.98 Q2090.66 1462.48 2090.66 1459.79 Q2090.66 1457.11 2088.95 1455.6 Q2087.26 1454.1 2084.25 1454.1 Q2081.21 1454.1 2079.52 1455.6 Q2077.86 1457.11 2077.86 1459.79 Z" fill="#000000" fill-rule="nonzero" fill-opacity="1" /><path clip-path="url(#clip830)" d="M2104.41 1479.7 L2109.29 1479.7 L2109.29 1485.58 L2104.41 1485.58 L2104.41 1479.7 Z" fill="#000000" fill-rule="nonzero" fill-opacity="1" /><path clip-path="url(#clip830)" d="M2132.32 1455.09 L2120.52 1473.54 L2132.32 1473.54 L2132.32 1455.09 M2131.1 1451.02 L2136.98 1451.02 L2136.98 1473.54 L2141.91 1473.54 L2141.91 1477.43 L2136.98 1477.43 L2136.98 1485.58 L2132.32 1485.58 L2132.32 1477.43 L2116.72 1477.43 L2116.72 1472.92 L2131.1 1451.02 Z" fill="#000000" fill-rule="nonzero" fill-opacity="1" /><path clip-path="url(#clip830)" d="M1002.18 1520.52 L1029.49 1520.52 L1029.49 1525.93 L1008.61 1525.93 L1008.61 1539.94 L1027.46 1539.94 L1027.46 1545.35 L1008.61 1545.35 L1008.61 1568.04 L1002.18 1568.04 L1002.18 1520.52 Z" fill="#000000" fill-rule="nonzero" fill-opacity="1" /><path clip-path="url(#clip830)" d="M1055.34 1537.87 Q1054.35 1537.3 1053.17 1537.04 Q1052.03 1536.76 1050.63 1536.76 Q1045.66 1536.76 1042.99 1540 Q1040.35 1543.22 1040.35 1549.27 L1040.35 1568.04 L1034.46 1568.04 L1034.46 1532.4 L1040.35 1532.4 L1040.35 1537.93 Q1042.19 1534.69 1045.15 1533.13 Q1048.11 1531.54 1052.35 1531.54 Q1052.95 1531.54 1053.68 1531.63 Q1054.41 1531.7 1055.31 1531.85 L1055.34 1537.87 Z" fill="#000000" fill-rule="nonzero" fill-opacity="1" /><path clip-path="url(#clip830)" d="M1090.54 1548.76 L1090.54 1551.62 L1063.61 1551.62 Q1063.99 1557.67 1067.24 1560.85 Q1070.52 1564 1076.34 1564 Q1079.72 1564 1082.87 1563.17 Q1086.05 1562.35 1089.17 1560.69 L1089.17 1566.23 Q1086.02 1567.57 1082.71 1568.27 Q1079.4 1568.97 1075.99 1568.97 Q1067.46 1568.97 1062.47 1564 Q1057.5 1559.04 1057.5 1550.57 Q1057.5 1541.82 1062.21 1536.69 Q1066.95 1531.54 1074.98 1531.54 Q1082.17 1531.54 1086.34 1536.18 Q1090.54 1540.8 1090.54 1548.76 M1084.68 1547.04 Q1084.62 1542.23 1081.98 1539.37 Q1079.37 1536.5 1075.04 1536.5 Q1070.14 1536.5 1067.18 1539.27 Q1064.25 1542.04 1063.8 1547.07 L1084.68 1547.04 Z" fill="#000000" fill-rule="nonzero" fill-opacity="1" /><path clip-path="url(#clip830)" d="M1103.65 1550.25 Q1103.65 1556.71 1106.29 1560.4 Q1108.97 1564.07 1113.62 1564.07 Q1118.26 1564.07 1120.94 1560.4 Q1123.61 1556.71 1123.61 1550.25 Q1123.61 1543.79 1120.94 1540.13 Q1118.26 1536.44 1113.62 1536.44 Q1108.97 1536.44 1106.29 1540.13 Q1103.65 1543.79 1103.65 1550.25 M1123.61 1562.7 Q1121.76 1565.88 1118.93 1567.44 Q1116.13 1568.97 1112.18 1568.97 Q1105.72 1568.97 1101.65 1563.81 Q1097.61 1558.65 1097.61 1550.25 Q1097.61 1541.85 1101.65 1536.69 Q1105.72 1531.54 1112.18 1531.54 Q1116.13 1531.54 1118.93 1533.1 Q1121.76 1534.62 1123.61 1537.81 L1123.61 1532.4 L1129.47 1532.4 L1129.47 1581.6 L1123.61 1581.6 L1123.61 1562.7 Z" fill="#000000" fill-rule="nonzero" fill-opacity="1" /><path clip-path="url(#clip830)" d="M1140.92 1553.98 L1140.92 1532.4 L1146.78 1532.4 L1146.78 1553.75 Q1146.78 1558.81 1148.75 1561.36 Q1150.73 1563.87 1154.67 1563.87 Q1159.42 1563.87 1162.15 1560.85 Q1164.92 1557.83 1164.92 1552.61 L1164.92 1532.4 L1170.78 1532.4 L1170.78 1568.04 L1164.92 1568.04 L1164.92 1562.57 Q1162.79 1565.82 1159.96 1567.41 Q1157.16 1568.97 1153.43 1568.97 Q1147.29 1568.97 1144.11 1565.15 Q1140.92 1561.33 1140.92 1553.98 M1155.66 1531.54 L1155.66 1531.54 Z" fill="#000000" fill-rule="nonzero" fill-opacity="1" /><path clip-path="url(#clip830)" d="M1213.33 1548.76 L1213.33 1551.62 L1186.41 1551.62 Q1186.79 1557.67 1190.04 1560.85 Q1193.31 1564 1199.14 1564 Q1202.51 1564 1205.66 1563.17 Q1208.85 1562.35 1211.97 1560.69 L1211.97 1566.23 Q1208.81 1567.57 1205.5 1568.27 Q1202.19 1568.97 1198.79 1568.97 Q1190.26 1568.97 1185.26 1564 Q1180.3 1559.04 1180.3 1550.57 Q1180.3 1541.82 1185.01 1536.69 Q1189.75 1531.54 1197.77 1531.54 Q1204.96 1531.54 1209.13 1536.18 Q1213.33 1540.8 1213.33 1548.76 M1207.48 1547.04 Q1207.41 1542.23 1204.77 1539.37 Q1202.16 1536.5 1197.83 1536.5 Q1192.93 1536.5 1189.97 1539.27 Q1187.04 1542.04 1186.6 1547.07 L1207.48 1547.04 Z" fill="#000000" fill-rule="nonzero" fill-opacity="1" /><path clip-path="url(#clip830)" d="M1252.58 1546.53 L1252.58 1568.04 L1246.72 1568.04 L1246.72 1546.72 Q1246.72 1541.66 1244.75 1539.14 Q1242.78 1536.63 1238.83 1536.63 Q1234.09 1536.63 1231.35 1539.65 Q1228.61 1542.68 1228.61 1547.9 L1228.61 1568.04 L1222.72 1568.04 L1222.72 1532.4 L1228.61 1532.4 L1228.61 1537.93 Q1230.71 1534.72 1233.55 1533.13 Q1236.41 1531.54 1240.13 1531.54 Q1246.28 1531.54 1249.43 1535.36 Q1252.58 1539.14 1252.58 1546.53 Z" fill="#000000" fill-rule="nonzero" fill-opacity="1" /><path clip-path="url(#clip830)" d="M1289.91 1533.76 L1289.91 1539.24 Q1287.43 1537.87 1284.92 1537.2 Q1282.43 1536.5 1279.89 1536.5 Q1274.19 1536.5 1271.04 1540.13 Q1267.89 1543.73 1267.89 1550.25 Q1267.89 1556.78 1271.04 1560.4 Q1274.19 1564 1279.89 1564 Q1282.43 1564 1284.92 1563.33 Q1287.43 1562.63 1289.91 1561.26 L1289.91 1566.68 Q1287.46 1567.82 1284.82 1568.39 Q1282.21 1568.97 1279.25 1568.97 Q1271.2 1568.97 1266.46 1563.91 Q1261.71 1558.85 1261.71 1550.25 Q1261.71 1541.53 1266.49 1536.53 Q1271.29 1531.54 1279.63 1531.54 Q1282.34 1531.54 1284.92 1532.11 Q1287.49 1532.65 1289.91 1533.76 Z" fill="#000000" fill-rule="nonzero" fill-opacity="1" /><path clip-path="url(#clip830)" d="M1300.1 1532.4 L1305.96 1532.4 L1305.96 1568.04 L1300.1 1568.04 L1300.1 1532.4 M1300.1 1518.52 L1305.96 1518.52 L1305.96 1525.93 L1300.1 1525.93 L1300.1 1518.52 Z" fill="#000000" fill-rule="nonzero" fill-opacity="1" /><path clip-path="url(#clip830)" d="M1348.7 1548.76 L1348.7 1551.62 L1321.77 1551.62 Q1322.16 1557.67 1325.4 1560.85 Q1328.68 1564 1334.51 1564 Q1337.88 1564 1341.03 1563.17 Q1344.21 1562.35 1347.33 1560.69 L1347.33 1566.23 Q1344.18 1567.57 1340.87 1568.27 Q1337.56 1568.97 1334.16 1568.97 Q1325.63 1568.97 1320.63 1564 Q1315.66 1559.04 1315.66 1550.57 Q1315.66 1541.82 1320.37 1536.69 Q1325.12 1531.54 1333.14 1531.54 Q1340.33 1531.54 1344.5 1536.18 Q1348.7 1540.8 1348.7 1548.76 M1342.84 1547.04 Q1342.78 1542.23 1340.14 1539.37 Q1337.53 1536.5 1333.2 1536.5 Q1328.3 1536.5 1325.34 1539.27 Q1322.41 1542.04 1321.96 1547.07 L1342.84 1547.04 Z" fill="#000000" fill-rule="nonzero" fill-opacity="1" /><path clip-path="url(#clip830)" d="M1381.04 1533.45 L1381.04 1538.98 Q1378.56 1537.71 1375.88 1537.07 Q1373.21 1536.44 1370.34 1536.44 Q1365.98 1536.44 1363.79 1537.77 Q1361.62 1539.11 1361.62 1541.79 Q1361.62 1543.82 1363.18 1545 Q1364.74 1546.15 1369.45 1547.2 L1371.46 1547.64 Q1377.7 1548.98 1380.31 1551.43 Q1382.95 1553.85 1382.95 1558.21 Q1382.95 1563.17 1379 1566.07 Q1375.09 1568.97 1368.21 1568.97 Q1365.35 1568.97 1362.23 1568.39 Q1359.14 1567.85 1355.7 1566.74 L1355.7 1560.69 Q1358.95 1562.38 1362.1 1563.24 Q1365.25 1564.07 1368.34 1564.07 Q1372.48 1564.07 1374.7 1562.66 Q1376.93 1561.23 1376.93 1558.65 Q1376.93 1556.27 1375.31 1554.99 Q1373.72 1553.72 1368.28 1552.54 L1366.24 1552.07 Q1360.8 1550.92 1358.38 1548.56 Q1355.96 1546.18 1355.96 1542.04 Q1355.96 1537.01 1359.52 1534.27 Q1363.09 1531.54 1369.64 1531.54 Q1372.89 1531.54 1375.76 1532.01 Q1378.62 1532.49 1381.04 1533.45 Z" fill="#000000" fill-rule="nonzero" fill-opacity="1" /><path clip-path="url(#clip830)" d="M1412.45 1518.52 L1425.95 1518.52 L1425.95 1523.07 L1418.31 1523.07 L1418.31 1572.09 L1425.95 1572.09 L1425.95 1576.64 L1412.45 1576.64 L1412.45 1518.52 Z" fill="#000000" fill-rule="nonzero" fill-opacity="1" /><path clip-path="url(#clip830)" d="M1471.08 1561.26 L1471.08 1548.5 L1460.58 1548.5 L1460.58 1543.22 L1477.45 1543.22 L1477.45 1563.62 Q1473.72 1566.26 1469.24 1567.63 Q1464.75 1568.97 1459.66 1568.97 Q1448.52 1568.97 1442.21 1562.47 Q1435.94 1555.95 1435.94 1544.33 Q1435.94 1532.68 1442.21 1526.19 Q1448.52 1519.66 1459.66 1519.66 Q1464.3 1519.66 1468.47 1520.81 Q1472.67 1521.96 1476.21 1524.18 L1476.21 1531.03 Q1472.64 1528 1468.63 1526.48 Q1464.62 1524.95 1460.2 1524.95 Q1451.48 1524.95 1447.08 1529.82 Q1442.72 1534.69 1442.72 1544.33 Q1442.72 1553.94 1447.08 1558.81 Q1451.48 1563.68 1460.2 1563.68 Q1463.6 1563.68 1466.28 1563.11 Q1468.95 1562.51 1471.08 1561.26 Z" fill="#000000" fill-rule="nonzero" fill-opacity="1" /><path clip-path="url(#clip830)" d="M1489.19 1520.52 L1495.62 1520.52 L1495.62 1540 L1518.98 1540 L1518.98 1520.52 L1525.41 1520.52 L1525.41 1568.04 L1518.98 1568.04 L1518.98 1545.41 L1495.62 1545.41 L1495.62 1568.04 L1489.19 1568.04 L1489.19 1520.52 Z" fill="#000000" fill-rule="nonzero" fill-opacity="1" /><path clip-path="url(#clip830)" d="M1535.41 1532.4 L1563.23 1532.4 L1563.23 1537.74 L1541.2 1563.37 L1563.23 1563.37 L1563.23 1568.04 L1534.61 1568.04 L1534.61 1562.7 L1556.64 1537.07 L1535.41 1537.07 L1535.41 1532.4 Z" fill="#000000" fill-rule="nonzero" fill-opacity="1" /><path clip-path="url(#clip830)" d="M1585.86 1518.52 L1585.86 1576.64 L1572.36 1576.64 L1572.36 1572.09 L1579.97 1572.09 L1579.97 1523.07 L1572.36 1523.07 L1572.36 1518.52 L1585.86 1518.52 Z" fill="#000000" fill-rule="nonzero" fill-opacity="1" /><polyline clip-path="url(#clip830)" style="stroke:#000000; stroke-linecap:round; stroke-linejoin:round; stroke-width:4; stroke-opacity:1; fill:none" points="235.283,1423.18 235.283,47.2441 "/>
<polyline clip-path="url(#clip830)" style="stroke:#000000; stroke-linecap:round; stroke-linejoin:round; stroke-width:4; stroke-opacity:1; fill:none" points="235.283,1387.1 254.18,1387.1 "/>
<polyline clip-path="url(#clip830)" style="stroke:#000000; stroke-linecap:round; stroke-linejoin:round; stroke-width:4; stroke-opacity:1; fill:none" points="235.283,1107.95 254.18,1107.95 "/>
<polyline clip-path="url(#clip830)" style="stroke:#000000; stroke-linecap:round; stroke-linejoin:round; stroke-width:4; stroke-opacity:1; fill:none" points="235.283,828.809 254.18,828.809 "/>
<polyline clip-path="url(#clip830)" style="stroke:#000000; stroke-linecap:round; stroke-linejoin:round; stroke-width:4; stroke-opacity:1; fill:none" points="235.283,549.665 254.18,549.665 "/>
<polyline clip-path="url(#clip830)" style="stroke:#000000; stroke-linecap:round; stroke-linejoin:round; stroke-width:4; stroke-opacity:1; fill:none" points="235.283,270.522 254.18,270.522 "/>
<path clip-path="url(#clip830)" d="M187.338 1372.89 Q183.727 1372.89 181.899 1376.46 Q180.093 1380 180.093 1387.13 Q180.093 1394.24 181.899 1397.8 Q183.727 1401.34 187.338 1401.34 Q190.973 1401.34 192.778 1397.8 Q194.607 1394.24 194.607 1387.13 Q194.607 1380 192.778 1376.46 Q190.973 1372.89 187.338 1372.89 M187.338 1369.19 Q193.149 1369.19 196.204 1373.8 Q199.283 1378.38 199.283 1387.13 Q199.283 1395.86 196.204 1400.46 Q193.149 1405.05 187.338 1405.05 Q181.528 1405.05 178.45 1400.46 Q175.394 1395.86 175.394 1387.13 Q175.394 1378.38 178.45 1373.8 Q181.528 1369.19 187.338 1369.19 Z" fill="#000000" fill-rule="nonzero" fill-opacity="1" /><path clip-path="url(#clip830)" d="M121.043 1121.3 L137.362 1121.3 L137.362 1125.23 L115.418 1125.23 L115.418 1121.3 Q118.08 1118.54 122.663 1113.91 Q127.269 1109.26 128.45 1107.92 Q130.695 1105.39 131.575 1103.66 Q132.478 1101.9 132.478 1100.21 Q132.478 1097.45 130.533 1095.72 Q128.612 1093.98 125.51 1093.98 Q123.311 1093.98 120.857 1094.75 Q118.427 1095.51 115.649 1097.06 L115.649 1092.34 Q118.473 1091.2 120.927 1090.63 Q123.38 1090.05 125.418 1090.05 Q130.788 1090.05 133.982 1092.73 Q137.177 1095.42 137.177 1099.91 Q137.177 1102.04 136.367 1103.96 Q135.579 1105.86 133.473 1108.45 Q132.894 1109.12 129.792 1112.34 Q126.691 1115.53 121.043 1121.3 Z" fill="#000000" fill-rule="nonzero" fill-opacity="1" /><path clip-path="url(#clip830)" d="M157.177 1093.75 Q153.566 1093.75 151.737 1097.32 Q149.931 1100.86 149.931 1107.99 Q149.931 1115.09 151.737 1118.66 Q153.566 1122.2 157.177 1122.2 Q160.811 1122.2 162.616 1118.66 Q164.445 1115.09 164.445 1107.99 Q164.445 1100.86 162.616 1097.32 Q160.811 1093.75 157.177 1093.75 M157.177 1090.05 Q162.987 1090.05 166.042 1094.65 Q169.121 1099.24 169.121 1107.99 Q169.121 1116.71 166.042 1121.32 Q162.987 1125.9 157.177 1125.9 Q151.366 1125.9 148.288 1121.32 Q145.232 1116.71 145.232 1107.99 Q145.232 1099.24 148.288 1094.65 Q151.366 1090.05 157.177 1090.05 Z" fill="#000000" fill-rule="nonzero" fill-opacity="1" /><path clip-path="url(#clip830)" d="M187.338 1093.75 Q183.727 1093.75 181.899 1097.32 Q180.093 1100.86 180.093 1107.99 Q180.093 1115.09 181.899 1118.66 Q183.727 1122.2 187.338 1122.2 Q190.973 1122.2 192.778 1118.66 Q194.607 1115.09 194.607 1107.99 Q194.607 1100.86 192.778 1097.32 Q190.973 1093.75 187.338 1093.75 M187.338 1090.05 Q193.149 1090.05 196.204 1094.65 Q199.283 1099.24 199.283 1107.99 Q199.283 1116.71 196.204 1121.32 Q193.149 1125.9 187.338 1125.9 Q181.528 1125.9 178.45 1121.32 Q175.394 1116.71 175.394 1107.99 Q175.394 1099.24 178.45 1094.65 Q181.528 1090.05 187.338 1090.05 Z" fill="#000000" fill-rule="nonzero" fill-opacity="1" /><path clip-path="url(#clip830)" d="M129.862 815.603 L118.056 834.052 L129.862 834.052 L129.862 815.603 M128.635 811.529 L134.515 811.529 L134.515 834.052 L139.445 834.052 L139.445 837.941 L134.515 837.941 L134.515 846.089 L129.862 846.089 L129.862 837.941 L114.26 837.941 L114.26 833.427 L128.635 811.529 Z" fill="#000000" fill-rule="nonzero" fill-opacity="1" /><path clip-path="url(#clip830)" d="M157.177 814.607 Q153.566 814.607 151.737 818.172 Q149.931 821.714 149.931 828.844 Q149.931 835.95 151.737 839.515 Q153.566 843.056 157.177 843.056 Q160.811 843.056 162.616 839.515 Q164.445 835.95 164.445 828.844 Q164.445 821.714 162.616 818.172 Q160.811 814.607 157.177 814.607 M157.177 810.904 Q162.987 810.904 166.042 815.51 Q169.121 820.094 169.121 828.844 Q169.121 837.57 166.042 842.177 Q162.987 846.76 157.177 846.76 Q151.366 846.76 148.288 842.177 Q145.232 837.57 145.232 828.844 Q145.232 820.094 148.288 815.51 Q151.366 810.904 157.177 810.904 Z" fill="#000000" fill-rule="nonzero" fill-opacity="1" /><path clip-path="url(#clip830)" d="M187.338 814.607 Q183.727 814.607 181.899 818.172 Q180.093 821.714 180.093 828.844 Q180.093 835.95 181.899 839.515 Q183.727 843.056 187.338 843.056 Q190.973 843.056 192.778 839.515 Q194.607 835.95 194.607 828.844 Q194.607 821.714 192.778 818.172 Q190.973 814.607 187.338 814.607 M187.338 810.904 Q193.149 810.904 196.204 815.51 Q199.283 820.094 199.283 828.844 Q199.283 837.57 196.204 842.177 Q193.149 846.76 187.338 846.76 Q181.528 846.76 178.45 842.177 Q175.394 837.57 175.394 828.844 Q175.394 820.094 178.45 815.51 Q181.528 810.904 187.338 810.904 Z" fill="#000000" fill-rule="nonzero" fill-opacity="1" /><path clip-path="url(#clip830)" d="M127.593 547.802 Q124.445 547.802 122.593 549.955 Q120.765 552.107 120.765 555.857 Q120.765 559.584 122.593 561.76 Q124.445 563.913 127.593 563.913 Q130.742 563.913 132.57 561.76 Q134.422 559.584 134.422 555.857 Q134.422 552.107 132.57 549.955 Q130.742 547.802 127.593 547.802 M136.876 533.149 L136.876 537.408 Q135.117 536.575 133.311 536.135 Q131.529 535.696 129.769 535.696 Q125.14 535.696 122.686 538.821 Q120.255 541.945 119.908 548.265 Q121.274 546.251 123.334 545.186 Q125.394 544.098 127.871 544.098 Q133.08 544.098 136.089 547.27 Q139.121 550.418 139.121 555.857 Q139.121 561.181 135.973 564.399 Q132.825 567.617 127.593 567.617 Q121.598 567.617 118.427 563.033 Q115.256 558.427 115.256 549.7 Q115.256 541.506 119.144 536.645 Q123.033 531.76 129.584 531.76 Q131.343 531.76 133.126 532.108 Q134.931 532.455 136.876 533.149 Z" fill="#000000" fill-rule="nonzero" fill-opacity="1" /><path clip-path="url(#clip830)" d="M157.177 535.464 Q153.566 535.464 151.737 539.029 Q149.931 542.57 149.931 549.7 Q149.931 556.807 151.737 560.371 Q153.566 563.913 157.177 563.913 Q160.811 563.913 162.616 560.371 Q164.445 556.807 164.445 549.7 Q164.445 542.57 162.616 539.029 Q160.811 535.464 157.177 535.464 M157.177 531.76 Q162.987 531.76 166.042 536.367 Q169.121 540.95 169.121 549.7 Q169.121 558.427 166.042 563.033 Q162.987 567.617 157.177 567.617 Q151.366 567.617 148.288 563.033 Q145.232 558.427 145.232 549.7 Q145.232 540.95 148.288 536.367 Q151.366 531.76 157.177 531.76 Z" fill="#000000" fill-rule="nonzero" fill-opacity="1" /><path clip-path="url(#clip830)" d="M187.338 535.464 Q183.727 535.464 181.899 539.029 Q180.093 542.57 180.093 549.7 Q180.093 556.807 181.899 560.371 Q183.727 563.913 187.338 563.913 Q190.973 563.913 192.778 560.371 Q194.607 556.807 194.607 549.7 Q194.607 542.57 192.778 539.029 Q190.973 535.464 187.338 535.464 M187.338 531.76 Q193.149 531.76 196.204 536.367 Q199.283 540.95 199.283 549.7 Q199.283 558.427 196.204 563.033 Q193.149 567.617 187.338 567.617 Q181.528 567.617 178.45 563.033 Q175.394 558.427 175.394 549.7 Q175.394 540.95 178.45 536.367 Q181.528 531.76 187.338 531.76 Z" fill="#000000" fill-rule="nonzero" fill-opacity="1" /><path clip-path="url(#clip830)" d="M127.015 271.39 Q123.681 271.39 121.76 273.172 Q119.862 274.955 119.862 278.08 Q119.862 281.205 121.76 282.987 Q123.681 284.77 127.015 284.77 Q130.348 284.77 132.269 282.987 Q134.191 281.182 134.191 278.08 Q134.191 274.955 132.269 273.172 Q130.371 271.39 127.015 271.39 M122.339 269.399 Q119.33 268.659 117.64 266.598 Q115.973 264.538 115.973 261.575 Q115.973 257.432 118.913 255.024 Q121.876 252.617 127.015 252.617 Q132.177 252.617 135.117 255.024 Q138.056 257.432 138.056 261.575 Q138.056 264.538 136.367 266.598 Q134.7 268.659 131.714 269.399 Q135.093 270.186 136.968 272.478 Q138.867 274.77 138.867 278.08 Q138.867 283.103 135.788 285.788 Q132.732 288.473 127.015 288.473 Q121.297 288.473 118.218 285.788 Q115.163 283.103 115.163 278.08 Q115.163 274.77 117.061 272.478 Q118.959 270.186 122.339 269.399 M120.626 262.015 Q120.626 264.7 122.293 266.205 Q123.982 267.709 127.015 267.709 Q130.024 267.709 131.714 266.205 Q133.427 264.7 133.427 262.015 Q133.427 259.33 131.714 257.825 Q130.024 256.321 127.015 256.321 Q123.982 256.321 122.293 257.825 Q120.626 259.33 120.626 262.015 Z" fill="#000000" fill-rule="nonzero" fill-opacity="1" /><path clip-path="url(#clip830)" d="M157.177 256.321 Q153.566 256.321 151.737 259.885 Q149.931 263.427 149.931 270.557 Q149.931 277.663 151.737 281.228 Q153.566 284.77 157.177 284.77 Q160.811 284.77 162.616 281.228 Q164.445 277.663 164.445 270.557 Q164.445 263.427 162.616 259.885 Q160.811 256.321 157.177 256.321 M157.177 252.617 Q162.987 252.617 166.042 257.223 Q169.121 261.807 169.121 270.557 Q169.121 279.283 166.042 283.89 Q162.987 288.473 157.177 288.473 Q151.366 288.473 148.288 283.89 Q145.232 279.283 145.232 270.557 Q145.232 261.807 148.288 257.223 Q151.366 252.617 157.177 252.617 Z" fill="#000000" fill-rule="nonzero" fill-opacity="1" /><path clip-path="url(#clip830)" d="M187.338 256.321 Q183.727 256.321 181.899 259.885 Q180.093 263.427 180.093 270.557 Q180.093 277.663 181.899 281.228 Q183.727 284.77 187.338 284.77 Q190.973 284.77 192.778 281.228 Q194.607 277.663 194.607 270.557 Q194.607 263.427 192.778 259.885 Q190.973 256.321 187.338 256.321 M187.338 252.617 Q193.149 252.617 196.204 257.223 Q199.283 261.807 199.283 270.557 Q199.283 279.283 196.204 283.89 Q193.149 288.473 187.338 288.473 Q181.528 288.473 178.45 283.89 Q175.394 279.283 175.394 270.557 Q175.394 261.807 178.45 257.223 Q181.528 252.617 187.338 252.617 Z" fill="#000000" fill-rule="nonzero" fill-opacity="1" /><path clip-path="url(#clip830)" d="M41.3104 969.884 L58.7206 969.884 L58.7206 959.571 Q58.7206 954.383 56.5881 951.901 Q54.4238 949.386 49.9996 949.386 Q45.5436 949.386 43.4429 951.901 Q41.3104 954.383 41.3104 959.571 L41.3104 969.884 M21.7677 969.884 L36.0905 969.884 L36.0905 960.367 Q36.0905 955.656 34.34 953.365 Q32.5576 951.041 28.9291 951.041 Q25.3325 951.041 23.5501 953.365 Q21.7677 955.656 21.7677 960.367 L21.7677 969.884 M16.4842 976.313 L16.4842 959.89 Q16.4842 952.537 19.5397 948.559 Q22.5952 944.58 28.2289 944.58 Q32.5894 944.58 35.1675 946.617 Q37.7456 948.654 38.3822 952.601 Q39.4007 947.858 42.6472 945.248 Q45.8619 942.607 50.6998 942.607 Q57.0655 942.607 60.5348 946.935 Q64.0042 951.264 64.0042 959.253 L64.0042 976.313 L16.4842 976.313 Z" fill="#000000" fill-rule="nonzero" fill-opacity="1" /><path clip-path="url(#clip830)" d="M32.4621 918.035 Q32.4621 922.746 36.1542 925.483 Q39.8145 928.22 46.212 928.22 Q52.6095 928.22 56.3017 925.515 Q59.9619 922.778 59.9619 918.035 Q59.9619 913.356 56.2698 910.619 Q52.5777 907.882 46.212 907.882 Q39.8781 907.882 36.186 910.619 Q32.4621 913.356 32.4621 918.035 M27.4968 918.035 Q27.4968 910.396 32.4621 906.036 Q37.4273 901.675 46.212 901.675 Q54.9649 901.675 59.9619 906.036 Q64.9272 910.396 64.9272 918.035 Q64.9272 925.706 59.9619 930.066 Q54.9649 934.395 46.212 934.395 Q37.4273 934.395 32.4621 930.066 Q27.4968 925.706 27.4968 918.035 Z" fill="#000000" fill-rule="nonzero" fill-opacity="1" /><path clip-path="url(#clip830)" d="M32.4621 878.154 Q32.4621 882.865 36.1542 885.602 Q39.8145 888.339 46.212 888.339 Q52.6095 888.339 56.3017 885.634 Q59.9619 882.896 59.9619 878.154 Q59.9619 873.475 56.2698 870.738 Q52.5777 868.001 46.212 868.001 Q39.8781 868.001 36.186 870.738 Q32.4621 873.475 32.4621 878.154 M27.4968 878.154 Q27.4968 870.515 32.4621 866.155 Q37.4273 861.794 46.212 861.794 Q54.9649 861.794 59.9619 866.155 Q64.9272 870.515 64.9272 878.154 Q64.9272 885.825 59.9619 890.185 Q54.9649 894.514 46.212 894.514 Q37.4273 894.514 32.4621 890.185 Q27.4968 885.825 27.4968 878.154 Z" fill="#000000" fill-rule="nonzero" fill-opacity="1" /><path clip-path="url(#clip830)" d="M29.4065 829.361 L34.9447 829.361 Q33.6716 831.843 33.035 834.517 Q32.3984 837.191 32.3984 840.055 Q32.3984 844.416 33.7352 846.612 Q35.072 848.776 37.7456 848.776 Q39.7826 848.776 40.9603 847.217 Q42.1061 845.657 43.1565 840.946 L43.6021 838.941 Q44.9389 832.703 47.3897 830.093 Q49.8086 827.451 54.1691 827.451 Q59.1344 827.451 62.0308 831.398 Q64.9272 835.313 64.9272 842.188 Q64.9272 845.052 64.3543 848.171 Q63.8132 851.259 62.6992 854.696 L56.6518 854.696 Q58.3387 851.45 59.198 848.299 Q60.0256 845.148 60.0256 842.06 Q60.0256 837.923 58.6251 835.695 Q57.1929 833.467 54.6147 833.467 Q52.2276 833.467 50.9545 835.09 Q49.6813 836.681 48.5037 842.124 L48.0262 844.161 Q46.8804 849.604 44.5251 852.023 Q42.138 854.442 38.0002 854.442 Q32.9713 854.442 30.2341 850.877 Q27.4968 847.312 27.4968 840.755 Q27.4968 837.509 27.9743 834.644 Q28.4517 831.78 29.4065 829.361 Z" fill="#000000" fill-rule="nonzero" fill-opacity="1" /><path clip-path="url(#clip830)" d="M18.2347 812.333 L28.3562 812.333 L28.3562 800.269 L32.9077 800.269 L32.9077 812.333 L52.2594 812.333 Q56.6199 812.333 57.8613 811.155 Q59.1026 809.945 59.1026 806.285 L59.1026 800.269 L64.0042 800.269 L64.0042 806.285 Q64.0042 813.065 61.4897 815.643 Q58.9434 818.221 52.2594 818.221 L32.9077 818.221 L32.9077 822.518 L28.3562 822.518 L28.3562 818.221 L18.2347 818.221 L18.2347 812.333 Z" fill="#000000" fill-rule="nonzero" fill-opacity="1" /><path clip-path="url(#clip830)" d="M16.4842 771.592 L16.4842 744.283 L21.895 744.283 L21.895 765.163 L35.8996 765.163 L35.8996 746.32 L41.3104 746.32 L41.3104 765.163 L64.0042 765.163 L64.0042 771.592 L16.4842 771.592 Z" fill="#000000" fill-rule="nonzero" fill-opacity="1" /><path clip-path="url(#clip830)" d="M46.0847 724.136 Q46.0847 731.233 47.7079 733.971 Q49.3312 736.708 53.2461 736.708 Q56.3653 736.708 58.2114 734.671 Q60.0256 732.602 60.0256 729.069 Q60.0256 724.199 56.5881 721.271 Q53.1188 718.311 47.3897 718.311 L46.0847 718.311 L46.0847 724.136 M43.6657 712.455 L64.0042 712.455 L64.0042 718.311 L58.5933 718.311 Q61.8398 720.316 63.3994 723.308 Q64.9272 726.3 64.9272 730.629 Q64.9272 736.103 61.8716 739.35 Q58.7843 742.564 53.6281 742.564 Q47.6125 742.564 44.5569 738.554 Q41.5014 734.512 41.5014 726.523 L41.5014 718.311 L40.9285 718.311 Q36.8862 718.311 34.6901 720.985 Q32.4621 723.626 32.4621 728.432 Q32.4621 731.488 33.1941 734.384 Q33.9262 737.281 35.3903 739.954 L29.9795 739.954 Q28.7381 736.74 28.1334 733.716 Q27.4968 730.692 27.4968 727.828 Q27.4968 720.093 31.5072 716.274 Q35.5176 712.455 43.6657 712.455 Z" fill="#000000" fill-rule="nonzero" fill-opacity="1" /><path clip-path="url(#clip830)" d="M29.7248 674.738 L35.1993 674.738 Q33.8307 677.22 33.1623 679.735 Q32.4621 682.217 32.4621 684.764 Q32.4621 690.461 36.0905 693.612 Q39.6872 696.763 46.212 696.763 Q52.7369 696.763 56.3653 693.612 Q59.9619 690.461 59.9619 684.764 Q59.9619 682.217 59.2935 679.735 Q58.5933 677.22 57.2247 674.738 L62.6355 674.738 Q63.7814 677.189 64.3543 679.83 Q64.9272 682.44 64.9272 685.4 Q64.9272 693.453 59.8664 698.195 Q54.8057 702.938 46.212 702.938 Q37.491 702.938 32.4939 698.164 Q27.4968 693.357 27.4968 685.018 Q27.4968 682.313 28.0697 679.735 Q28.6108 677.157 29.7248 674.738 Z" fill="#000000" fill-rule="nonzero" fill-opacity="1" /><path clip-path="url(#clip830)" d="M18.2347 658.76 L28.3562 658.76 L28.3562 646.697 L32.9077 646.697 L32.9077 658.76 L52.2594 658.76 Q56.6199 658.76 57.8613 657.582 Q59.1026 656.373 59.1026 652.712 L59.1026 646.697 L64.0042 646.697 L64.0042 652.712 Q64.0042 659.492 61.4897 662.07 Q58.9434 664.648 52.2594 664.648 L32.9077 664.648 L32.9077 668.945 L28.3562 668.945 L28.3562 664.648 L18.2347 664.648 L18.2347 658.76 Z" fill="#000000" fill-rule="nonzero" fill-opacity="1" /><path clip-path="url(#clip830)" d="M32.4621 625.181 Q32.4621 629.891 36.1542 632.629 Q39.8145 635.366 46.212 635.366 Q52.6095 635.366 56.3017 632.66 Q59.9619 629.923 59.9619 625.181 Q59.9619 620.502 56.2698 617.765 Q52.5777 615.027 46.212 615.027 Q39.8781 615.027 36.186 617.765 Q32.4621 620.502 32.4621 625.181 M27.4968 625.181 Q27.4968 617.542 32.4621 613.181 Q37.4273 608.821 46.212 608.821 Q54.9649 608.821 59.9619 613.181 Q64.9272 617.542 64.9272 625.181 Q64.9272 632.851 59.9619 637.212 Q54.9649 641.541 46.212 641.541 Q37.4273 641.541 32.4621 637.212 Q27.4968 632.851 27.4968 625.181 Z" fill="#000000" fill-rule="nonzero" fill-opacity="1" /><path clip-path="url(#clip830)" d="M33.8307 578.456 Q33.2578 579.443 33.0032 580.621 Q32.7167 581.767 32.7167 583.167 Q32.7167 588.132 35.9632 590.806 Q39.1779 593.448 45.2253 593.448 L64.0042 593.448 L64.0042 599.336 L28.3562 599.336 L28.3562 593.448 L33.8944 593.448 Q30.6479 591.602 29.0883 588.642 Q27.4968 585.682 27.4968 581.448 Q27.4968 580.844 27.5923 580.112 Q27.656 579.379 27.8151 578.488 L33.8307 578.456 Z" fill="#000000" fill-rule="nonzero" fill-opacity="1" /><path clip-path="url(#clip830)" d="M61.808 545.737 L77.5631 545.737 L77.5631 551.625 L28.579 551.625 Q14.0652 551.625 14.0652 538.066 Q14.0652 524.252 26.3192 524.252 Q35.0402 524.252 38.223 529.727 Q41.0876 520.815 49.5858 520.815 Q64.6726 520.815 64.6726 536.156 Q64.6726 542.904 61.808 545.737 M54.1691 545.737 Q59.6755 542.204 59.6755 535.934 Q59.6755 526.767 49.6813 526.767 Q40.7057 526.767 41.4059 541.535 L35.995 541.535 Q35.995 529.982 25.8099 529.982 Q18.8395 529.982 18.8395 537.429 Q18.8395 545.737 28.77 545.737 L54.1691 545.737 Z" fill="#000000" fill-rule="nonzero" fill-opacity="1" /><path clip-path="url(#clip830)" d="M39.1142 507.606 L39.1142 494.111 L42.7427 494.111 L42.7427 513.144 L39.2416 513.144 Q38.2549 512.062 36.4725 510.057 Q26.7648 499.108 23.7729 499.108 Q21.6722 499.108 20.3991 500.763 Q19.0941 502.418 19.0941 505.124 Q19.0941 506.779 19.667 508.72 Q20.2081 510.662 21.3221 512.953 L17.4072 512.953 Q16.516 510.503 16.0704 508.402 Q15.6248 506.269 15.6248 504.455 Q15.6248 499.84 17.7255 497.071 Q19.8262 494.302 23.2636 494.302 Q27.6878 494.302 36.7271 504.837 Q38.2549 506.619 39.1142 507.606 Z" fill="#000000" fill-rule="nonzero" fill-opacity="1" /><polyline clip-path="url(#clip832)" style="stroke:#009af9; stroke-linecap:round; stroke-linejoin:round; stroke-width:4; stroke-opacity:1; fill:none" points="295.211,1384.24 297.211,1384.21 299.211,1384.18 301.21,1384.15 303.21,1384.12 305.209,1384.09 307.209,1384.05 309.209,1384.02 311.208,1383.99 313.208,1383.96 315.207,1383.93 317.207,1383.89 319.207,1383.86 321.206,1383.83 323.206,1383.79 325.206,1383.76 327.205,1383.73 329.205,1383.69 331.204,1383.66 333.204,1383.62 335.204,1383.59 337.203,1383.55 339.203,1383.51 341.202,1383.48 343.202,1383.44 345.202,1383.4 347.201,1383.37 349.201,1383.33 351.201,1383.29 353.2,1383.25 355.2,1383.21 357.199,1383.18 359.199,1383.14 361.199,1383.1 363.198,1383.06 365.198,1383.02 367.197,1382.98 369.197,1382.93 371.197,1382.89 373.196,1382.85 375.196,1382.81 377.196,1382.77 379.195,1382.72 381.195,1382.68 383.194,1382.64 385.194,1382.59 387.194,1382.55 389.193,1382.5 391.193,1382.46 393.193,1382.41 395.192,1382.37 397.192,1382.32 399.191,1382.27 401.191,1382.23 403.191,1382.18 405.19,1382.13 407.19,1382.08 409.189,1382.03 411.189,1381.98 413.189,1381.93 415.188,1381.88 417.188,1381.83 419.188,1381.78 421.187,1381.73 423.187,1381.68 425.186,1381.63 427.186,1381.57 429.186,1381.52 431.185,1381.46 433.185,1381.41 435.184,1381.35 437.184,1381.3 439.184,1381.24 441.183,1381.19 443.183,1381.13 445.183,1381.07 447.182,1381.01 449.182,1380.96 451.181,1380.9 453.181,1380.84 455.181,1380.78 457.18,1380.72 459.18,1380.65 461.179,1380.59 463.179,1380.53 465.179,1380.47 467.178,1380.4 469.178,1380.34 471.178,1380.27 473.177,1380.21 475.177,1380.14 477.176,1380.08 479.176,1380.01 481.176,1379.94 483.175,1379.87 485.175,1379.8 487.174,1379.73 489.174,1379.66 491.174,1379.59 493.173,1379.52 495.173,1379.45 497.173,1379.37 499.172,1379.3 501.172,1379.23 503.171,1379.15 505.171,1379.07 507.171,1379 509.17,1378.92 511.17,1378.84 513.169,1378.76 515.169,1378.68 517.169,1378.6 519.168,1378.52 521.168,1378.44 523.168,1378.36 525.167,1378.27 527.167,1378.19 529.166,1378.1 531.166,1378.02 533.166,1377.93 535.165,1377.84 537.165,1377.75 539.164,1377.66 541.164,1377.57 543.164,1377.48 545.163,1377.39 547.163,1377.3 549.163,1377.2 551.162,1377.11 553.162,1377.01 555.161,1376.92 557.161,1376.82 559.161,1376.72 561.16,1376.62 563.16,1376.52 565.159,1376.42 567.159,1376.32 569.159,1376.21 571.158,1376.11 573.158,1376 575.158,1375.9 577.157,1375.79 579.157,1375.68 581.156,1375.57 583.156,1375.46 585.156,1375.35 587.155,1375.23 589.155,1375.12 591.154,1375 593.154,1374.89 595.154,1374.77 597.153,1374.65 599.153,1374.53 601.153,1374.41 603.152,1374.29 605.152,1374.16 607.151,1374.04 609.151,1373.91 611.151,1373.78 613.15,1373.65 615.15,1373.52 617.149,1373.39 619.149,1373.26 621.149,1373.12 623.148,1372.98 625.148,1372.85 627.148,1372.71 629.147,1372.57 631.147,1372.42 633.146,1372.28 635.146,1372.14 637.146,1371.99 639.145,1371.84 641.145,1371.69 643.144,1371.54 645.144,1371.39 647.144,1371.23 649.143,1371.08 651.143,1370.92 653.143,1370.76 655.142,1370.6 657.142,1370.43 659.141,1370.27 661.141,1370.1 663.141,1369.93 665.14,1369.76 667.14,1369.59 669.139,1369.41 671.139,1369.24 673.139,1369.06 675.138,1368.88 677.138,1368.7 679.138,1368.51 681.137,1368.33 683.137,1368.14 685.136,1367.95 687.136,1367.76 689.136,1367.56 691.135,1367.36 693.135,1367.17 695.134,1366.96 697.134,1366.76 699.134,1366.55 701.133,1366.35 703.133,1366.13 705.133,1365.92 707.132,1365.71 709.132,1365.49 711.131,1365.27 713.131,1365.04 715.131,1364.82 717.13,1364.59 719.13,1364.36 721.129,1364.12 723.129,1363.89 725.129,1363.65 727.128,1363.41 729.128,1363.16 731.128,1362.91 733.127,1362.66 735.127,1362.41 737.126,1362.15 739.126,1361.89 741.126,1361.63 743.125,1361.36 745.125,1361.09 747.124,1360.82 749.124,1360.54 751.124,1360.26 753.123,1359.98 755.123,1359.69 757.123,1359.4 759.122,1359.11 761.122,1358.81 763.121,1358.51 765.121,1358.2 767.121,1357.89 769.12,1357.58 771.12,1357.26 773.119,1356.94 775.119,1356.62 777.119,1356.29 779.118,1355.96 781.118,1355.62 783.118,1355.28 785.117,1354.93 787.117,1354.58 789.116,1354.23 791.116,1353.87 793.116,1353.51 795.115,1353.14 797.115,1352.76 799.114,1352.38 801.114,1352 803.114,1351.61 805.113,1351.22 807.113,1350.82 809.113,1350.42 811.112,1350.01 813.112,1349.59 815.111,1349.17 817.111,1348.74 819.111,1348.31 821.11,1347.87 823.11,1347.43 825.109,1346.98 827.109,1346.52 829.109,1346.06 831.108,1345.59 833.108,1345.12 835.108,1344.64 837.107,1344.15 839.107,1343.65 841.106,1343.15 843.106,1342.64 845.106,1342.12 847.105,1341.6 849.105,1341.07 851.104,1340.53 853.104,1339.98 855.104,1339.43 857.103,1338.87 859.103,1338.3 861.103,1337.72 863.102,1337.13 865.102,1336.54 867.101,1335.93 869.101,1335.32 871.101,1334.7 873.1,1334.06 875.1,1333.42 877.1,1332.77 879.099,1332.11 881.099,1331.44 883.098,1330.76 885.098,1330.07 887.098,1329.37 889.097,1328.66 891.097,1327.94 893.096,1327.2 895.096,1326.46 897.096,1325.7 899.095,1324.93 901.095,1324.15 903.095,1323.36 905.094,1322.56 907.094,1321.74 909.093,1320.91 911.093,1320.07 913.093,1319.21 915.092,1318.34 917.092,1317.45 919.091,1316.56 921.091,1315.64 923.091,1314.71 925.09,1313.77 927.09,1312.81 929.09,1311.84 931.089,1310.85 933.089,1309.84 935.088,1308.82 937.088,1307.78 939.088,1306.72 941.087,1305.64 943.087,1304.55 945.086,1303.44 947.086,1302.31 949.086,1301.15 951.085,1299.98 953.085,1298.79 955.085,1297.58 957.084,1296.35 959.084,1295.1 961.083,1293.82 963.083,1292.52 965.083,1291.2 967.082,1289.86 969.082,1288.49 971.081,1287.1 973.081,1285.68 975.081,1284.23 977.08,1282.77 979.08,1281.27 981.08,1279.75 983.079,1278.19 985.079,1276.61 987.078,1275.01 989.078,1273.37 991.078,1271.7 993.077,1270 995.077,1268.26 997.076,1266.5 999.076,1264.7 1001.08,1262.87 1003.08,1261 1005.07,1259.1 1007.07,1257.16 1009.07,1255.18 1011.07,1253.16 1013.07,1251.11 1015.07,1249.01 1017.07,1246.87 1019.07,1244.7 1021.07,1242.47 1023.07,1240.21 1025.07,1237.89 1027.07,1235.54 1029.07,1233.13 1031.07,1230.68 1033.07,1228.17 1035.07,1225.61 1037.07,1223.01 1039.07,1220.34 1041.07,1217.63 1043.07,1214.85 1045.07,1212.02 1047.07,1209.13 1049.07,1206.18 1051.07,1203.17 1053.07,1200.09 1055.07,1196.95 1057.06,1193.74 1059.06,1190.46 1061.06,1187.11 1063.06,1183.69 1065.06,1180.2 1067.06,1176.63 1069.06,1172.98 1071.06,1169.25 1073.06,1165.44 1075.06,1161.54 1077.06,1157.56 1079.06,1153.49 1081.06,1149.33 1083.06,1145.08 1085.06,1140.73 1087.06,1136.28 1089.06,1131.73 1091.06,1127.08 1093.06,1122.33 1095.06,1117.47 1097.06,1112.49 1099.06,1107.4 1101.06,1102.2 1103.06,1096.87 1105.06,1091.43 1107.06,1085.85 1109.05,1080.15 1111.05,1074.32 1113.05,1068.35 1115.05,1062.24 1117.05,1055.99 1119.05,1049.6 1121.05,1043.05 1123.05,1036.35 1125.05,1029.5 1127.05,1022.49 1129.05,1015.31 1131.05,1007.97 1133.05,1000.46 1135.05,992.766 1137.05,984.899 1139.05,976.849 1141.05,968.613 1143.05,960.186 1145.05,951.566 1147.05,942.749 1149.05,933.729 1151.05,924.505 1153.05,915.072 1155.05,905.427 1157.05,895.566 1159.05,885.486 1161.04,875.183 1163.04,864.656 1165.04,853.9 1167.04,842.913 1169.04,831.694 1171.04,820.239 1173.04,808.548 1175.04,796.618 1177.04,784.449 1179.04,772.04 1181.04,759.39 1183.04,746.501 1185.04,733.373 1187.04,720.007 1189.04,706.407 1191.04,692.574 1193.04,678.513 1195.04,664.227 1197.04,649.723 1199.04,635.006 1201.04,620.085 1203.04,604.966 1205.04,589.661 1207.04,574.179 1209.04,558.533 1211.04,542.735 1213.03,526.801 1215.03,510.746 1217.03,494.588 1219.03,478.346 1221.03,462.039 1223.03,445.691 1225.03,429.324 1227.03,412.964 1229.03,396.636 1231.03,380.37 1233.03,364.193 1235.03,348.138 1237.03,332.237 1239.03,316.521 1241.03,301.027 1243.03,285.79 1245.03,270.845 1247.03,256.23 1249.03,241.983 1251.03,228.14 1253.03,214.74 1255.03,201.82 1257.03,189.418 1259.03,177.57 1261.03,166.311 1263.03,155.677 1265.02,145.699 1267.02,136.41 1269.02,127.839 1271.02,120.012 1273.02,112.954 1275.02,106.688 1277.02,101.232 1279.02,96.6018 1281.02,92.8113 1283.02,89.8698 1285.02,87.7837 1287.02,86.5558 1289.02,86.1857 1291.02,86.6695 1293.02,88.0002 1295.02,90.1673 1297.02,93.1572 1299.02,96.9536 1301.02,101.537 1303.02,106.886 1305.02,112.975 1307.02,119.779 1309.02,127.269 1311.02,135.415 1313.02,144.186 1315.02,153.548 1317.01,163.467 1319.01,173.911 1321.01,184.843 1323.01,196.229 1325.01,208.034 1327.01,220.222 1329.01,232.76 1331.01,245.613 1333.01,258.748 1335.01,272.132 1337.01,285.735 1339.01,299.525 1341.01,313.473 1343.01,327.551 1345.01,341.732 1347.01,355.991 1349.01,370.303 1351.01,384.645 1353.01,398.996 1355.01,413.336 1357.01,427.644 1359.01,441.905 1361.01,456.101 1363.01,470.218 1365.01,484.241 1367.01,498.157 1369,511.956 1371,525.626 1373,539.159 1375,552.544 1377,565.776 1379,578.846 1381,591.75 1383,604.482 1385,617.037 1387,629.412 1389,641.603 1391,653.609 1393,665.427 1395,677.055 1397,688.493 1399,699.74 1401,710.795 1403,721.66 1405,732.334 1407,742.818 1409,753.113 1411,763.221 1413,773.143 1415,782.88 1417,792.436 1419,801.811 1420.99,811.007 1422.99,820.028 1424.99,828.876 1426.99,837.552 1428.99,846.06 1430.99,854.402 1432.99,862.581 1434.99,870.6 1436.99,878.461 1438.99,886.168 1440.99,893.722 1442.99,901.127 1444.99,908.385 1446.99,915.5 1448.99,922.474 1450.99,929.31 1452.99,936.01 1454.99,942.578 1456.99,949.016 1458.99,955.327 1460.99,961.513 1462.99,967.577 1464.99,973.522 1466.99,979.349 1468.99,985.063 1470.99,990.665 1472.98,996.157 1474.98,1001.54 1476.98,1006.82 1478.98,1012 1480.98,1017.08 1482.98,1022.06 1484.98,1026.94 1486.98,1031.73 1488.98,1036.43 1490.98,1041.04 1492.98,1045.56 1494.98,1050 1496.98,1054.35 1498.98,1058.62 1500.98,1062.81 1502.98,1066.92 1504.98,1070.96 1506.98,1074.92 1508.98,1078.81 1510.98,1082.62 1512.98,1086.37 1514.98,1090.05 1516.98,1093.66 1518.98,1097.2 1520.98,1100.68 1522.98,1104.1 1524.97,1107.46 1526.97,1110.76 1528.97,1114 1530.97,1117.18 1532.97,1120.31 1534.97,1123.38 1536.97,1126.4 1538.97,1129.36 1540.97,1132.28 1542.97,1135.14 1544.97,1137.95 1546.97,1140.72 1548.97,1143.44 1550.97,1146.12 1552.97,1148.75 1554.97,1151.33 1556.97,1153.87 1558.97,1156.37 1560.97,1158.83 1562.97,1161.25 1564.97,1163.63 1566.97,1165.97 1568.97,1168.27 1570.97,1170.53 1572.97,1172.76 1574.97,1174.95 1576.97,1177.11 1578.96,1179.23 1580.96,1181.32 1582.96,1183.38 1584.96,1185.4 1586.96,1187.4 1588.96,1189.36 1590.96,1191.29 1592.96,1193.19 1594.96,1195.06 1596.96,1196.91 1598.96,1198.73 1600.96,1200.51 1602.96,1202.28 1604.96,1204.01 1606.96,1205.72 1608.96,1207.41 1610.96,1209.07 1612.96,1210.7 1614.96,1212.31 1616.96,1213.9 1618.96,1215.46 1620.96,1217.01 1622.96,1218.53 1624.96,1220.02 1626.96,1221.5 1628.96,1222.96 1630.95,1224.39 1632.95,1225.81 1634.95,1227.2 1636.95,1228.58 1638.95,1229.94 1640.95,1231.28 1642.95,1232.59 1644.95,1233.9 1646.95,1235.18 1648.95,1236.45 1650.95,1237.7 1652.95,1238.93 1654.95,1240.15 1656.95,1241.35 1658.95,1242.53 1660.95,1243.7 1662.95,1244.85 1664.95,1245.99 1666.95,1247.11 1668.95,1248.22 1670.95,1249.31 1672.95,1250.39 1674.95,1251.46 1676.95,1252.51 1678.95,1253.55 1680.95,1254.58 1682.94,1255.59 1684.94,1256.59 1686.94,1257.58 1688.94,1258.55 1690.94,1259.52 1692.94,1260.47 1694.94,1261.41 1696.94,1262.34 1698.94,1263.25 1700.94,1264.16 1702.94,1265.05 1704.94,1265.94 1706.94,1266.81 1708.94,1267.68 1710.94,1268.53 1712.94,1269.37 1714.94,1270.2 1716.94,1271.03 1718.94,1271.84 1720.94,1272.64 1722.94,1273.44 1724.94,1274.22 1726.94,1275 1728.94,1275.77 1730.94,1276.52 1732.94,1277.27 1734.93,1278.01 1736.93,1278.75 1738.93,1279.47 1740.93,1280.19 1742.93,1280.9 1744.93,1281.6 1746.93,1282.29 1748.93,1282.98 1750.93,1283.65 1752.93,1284.32 1754.93,1284.99 1756.93,1285.64 1758.93,1286.29 1760.93,1286.93 1762.93,1287.57 1764.93,1288.2 1766.93,1288.82 1768.93,1289.43 1770.93,1290.04 1772.93,1290.64 1774.93,1291.24 1776.93,1291.83 1778.93,1292.41 1780.93,1292.98 1782.93,1293.56 1784.93,1294.12 1786.92,1294.68 1788.92,1295.23 1790.92,1295.78 1792.92,1296.32 1794.92,1296.86 1796.92,1297.39 1798.92,1297.92 1800.92,1298.44 1802.92,1298.95 1804.92,1299.46 1806.92,1299.97 1808.92,1300.47 1810.92,1300.96 1812.92,1301.46 1814.92,1301.94 1816.92,1302.42 1818.92,1302.9 1820.92,1303.37 1822.92,1303.84 1824.92,1304.3 1826.92,1304.76 1828.92,1305.21 1830.92,1305.66 1832.92,1306.11 1834.92,1306.55 1836.92,1306.98 1838.91,1307.42 1840.91,1307.85 1842.91,1308.27 1844.91,1308.69 1846.91,1309.11 1848.91,1309.52 1850.91,1309.93 1852.91,1310.34 1854.91,1310.74 1856.91,1311.14 1858.91,1311.53 1860.91,1311.92 1862.91,1312.31 1864.91,1312.69 1866.91,1313.07 1868.91,1313.45 1870.91,1313.83 1872.91,1314.2 1874.91,1314.56 1876.91,1314.93 1878.91,1315.29 1880.91,1315.65 1882.91,1316 1884.91,1316.35 1886.91,1316.7 1888.91,1317.05 1890.9,1317.39 1892.9,1317.73 1894.9,1318.06 1896.9,1318.4 1898.9,1318.73 1900.9,1319.06 1902.9,1319.38 1904.9,1319.7 1906.9,1320.02 1908.9,1320.34 1910.9,1320.66 1912.9,1320.97 1914.9,1321.28 1916.9,1321.58 1918.9,1321.89 1920.9,1322.19 1922.9,1322.49 1924.9,1322.79 1926.9,1323.08 1928.9,1323.37 1930.9,1323.66 1932.9,1323.95 1934.9,1324.23 1936.9,1324.52 1938.9,1324.8 1940.9,1325.08 1942.89,1325.35 1944.89,1325.63 1946.89,1325.9 1948.89,1326.17 1950.89,1326.43 1952.89,1326.7 1954.89,1326.96 1956.89,1327.22 1958.89,1327.48 1960.89,1327.74 1962.89,1327.99 1964.89,1328.25 1966.89,1328.5 1968.89,1328.75 1970.89,1329 1972.89,1329.24 1974.89,1329.49 1976.89,1329.73 1978.89,1329.97 1980.89,1330.21 1982.89,1330.44 1984.89,1330.68 1986.89,1330.91 1988.89,1331.14 1990.89,1331.37 1992.89,1331.6 1994.88,1331.82 1996.88,1332.05 1998.88,1332.27 2000.88,1332.49 2002.88,1332.71 2004.88,1332.93 2006.88,1333.15 2008.88,1333.36 2010.88,1333.57 2012.88,1333.79 2014.88,1334 2016.88,1334.21 2018.88,1334.41 2020.88,1334.62 2022.88,1334.82 2024.88,1335.03 2026.88,1335.23 2028.88,1335.43 2030.88,1335.63 2032.88,1335.82 2034.88,1336.02 2036.88,1336.21 2038.88,1336.41 2040.88,1336.6 2042.88,1336.79 2044.88,1336.98 2046.87,1337.17 2048.87,1337.35 2050.87,1337.54 2052.87,1337.72 2054.87,1337.9 2056.87,1338.09 2058.87,1338.27 2060.87,1338.44 2062.87,1338.62 2064.87,1338.8 2066.87,1338.97 2068.87,1339.15 2070.87,1339.32 2072.87,1339.49 2074.87,1339.67 2076.87,1339.84 2078.87,1340 2080.87,1340.17 2082.87,1340.34 2084.87,1340.5 2086.87,1340.67 2088.87,1340.83 2090.87,1340.99 2092.87,1341.15 2094.87,1341.31 2096.87,1341.47 2098.86,1341.63 2100.86,1341.79 2102.86,1341.94 2104.86,1342.1 2106.86,1342.25 2108.86,1342.41 2110.86,1342.56 2112.86,1342.71 2114.86,1342.86 2116.86,1343.01 2118.86,1343.16 2120.86,1343.3 2122.86,1343.45 2124.86,1343.6 2126.86,1343.74 2128.86,1343.88 2130.86,1344.03 2132.86,1344.17 2134.86,1344.31 2136.86,1344.45 2138.86,1344.59 2140.86,1344.73 2142.86,1344.87 2144.86,1345 2146.86,1345.14 2148.86,1345.27 2150.85,1345.41 2152.85,1345.54 2154.85,1345.68 2156.85,1345.81 2158.85,1345.94 2160.85,1346.07 2162.85,1346.2 2164.85,1346.33 2166.85,1346.46 2168.85,1346.58 2170.85,1346.71 2172.85,1346.84 2174.85,1346.96 2176.85,1347.08 2178.85,1347.21 2180.85,1347.33 2182.85,1347.45 2184.85,1347.58 2186.85,1347.7 2188.85,1347.82 2190.85,1347.94 2192.85,1348.05 2194.85,1348.17 2196.85,1348.29 2198.85,1348.41 2200.85,1348.52 2202.84,1348.64 2204.84,1348.75 2206.84,1348.87 2208.84,1348.98 2210.84,1349.09 2212.84,1349.21 2214.84,1349.32 2216.84,1349.43 2218.84,1349.54 2220.84,1349.65 2222.84,1349.76 2224.84,1349.87 2226.84,1349.97 2228.84,1350.08 2230.84,1350.19 2232.84,1350.29 2234.84,1350.4 2236.84,1350.5 2238.84,1350.61 2240.84,1350.71 2242.84,1350.82 2244.84,1350.92 2246.84,1351.02 2248.84,1351.12 2250.84,1351.22 2252.84,1351.32 2254.83,1351.42 2256.83,1351.52 2258.83,1351.62 2260.83,1351.72 2262.83,1351.82 2264.83,1351.92 2266.83,1352.01 2268.83,1352.11 2270.83,1352.2 2272.83,1352.3 2274.83,1352.39 2276.83,1352.49 2278.83,1352.58 2280.83,1352.68 2282.83,1352.77 2284.83,1352.86 2286.83,1352.95 2288.83,1353.04 2290.83,1353.14 2292.83,1353.23 "/>
<polyline clip-path="url(#clip832)" style="stroke:#ff0000; stroke-linecap:round; stroke-linejoin:round; stroke-width:4; stroke-opacity:1; fill:none" points="1194.14,2799.12 1194.14,-1328.69 "/>
<polyline clip-path="url(#clip832)" style="stroke:#ff0000; stroke-linecap:round; stroke-linejoin:round; stroke-width:4; stroke-opacity:1; fill:none" points="1393.9,2799.12 1393.9,-1328.69 "/>
</svg>
