<?xml version="1.0" encoding="utf-8"?>
<svg xmlns="http://www.w3.org/2000/svg" xmlns:xlink="http://www.w3.org/1999/xlink" width="600" height="400" viewBox="0 0 2400 1600">
<defs>
  <clipPath id="clip470">
    <rect x="0" y="0" width="2400" height="1600"/>
  </clipPath>
</defs>
<path clip-path="url(#clip470)" d="M0 1600 L2400 1600 L2400 0 L0 0  Z" fill="#ffffff" fill-rule="evenodd" fill-opacity="1"/>
<defs>
  <clipPath id="clip471">
    <rect x="480" y="0" width="1681" height="1600"/>
  </clipPath>
</defs>
<path clip-path="url(#clip470)" d="M309.866 1423.18 L2352.76 1423.18 L2352.76 47.2441 L309.866 47.2441  Z" fill="#ffffff" fill-rule="evenodd" fill-opacity="1"/>
<defs>
  <clipPath id="clip472">
    <rect x="309" y="47" width="2044" height="1377"/>
  </clipPath>
</defs>
<polyline clip-path="url(#clip472)" style="stroke:#000000; stroke-linecap:round; stroke-linejoin:round; stroke-width:2; stroke-opacity:0.1; fill:none" points="560.409,1423.18 560.409,47.2441 "/>
<polyline clip-path="url(#clip472)" style="stroke:#000000; stroke-linecap:round; stroke-linejoin:round; stroke-width:2; stroke-opacity:0.1; fill:none" points="945.86,1423.18 945.86,47.2441 "/>
<polyline clip-path="url(#clip472)" style="stroke:#000000; stroke-linecap:round; stroke-linejoin:round; stroke-width:2; stroke-opacity:0.1; fill:none" points="1331.31,1423.18 1331.31,47.2441 "/>
<polyline clip-path="url(#clip472)" style="stroke:#000000; stroke-linecap:round; stroke-linejoin:round; stroke-width:2; stroke-opacity:0.1; fill:none" points="1716.76,1423.18 1716.76,47.2441 "/>
<polyline clip-path="url(#clip472)" style="stroke:#000000; stroke-linecap:round; stroke-linejoin:round; stroke-width:2; stroke-opacity:0.1; fill:none" points="2102.21,1423.18 2102.21,47.2441 "/>
<polyline clip-path="url(#clip472)" style="stroke:#000000; stroke-linecap:round; stroke-linejoin:round; stroke-width:2; stroke-opacity:0.1; fill:none" points="309.866,1168.66 2352.76,1168.66 "/>
<polyline clip-path="url(#clip472)" style="stroke:#000000; stroke-linecap:round; stroke-linejoin:round; stroke-width:2; stroke-opacity:0.1; fill:none" points="309.866,889.038 2352.76,889.038 "/>
<polyline clip-path="url(#clip472)" style="stroke:#000000; stroke-linecap:round; stroke-linejoin:round; stroke-width:2; stroke-opacity:0.1; fill:none" points="309.866,609.413 2352.76,609.413 "/>
<polyline clip-path="url(#clip472)" style="stroke:#000000; stroke-linecap:round; stroke-linejoin:round; stroke-width:2; stroke-opacity:0.1; fill:none" points="309.866,329.788 2352.76,329.788 "/>
<polyline clip-path="url(#clip472)" style="stroke:#000000; stroke-linecap:round; stroke-linejoin:round; stroke-width:2; stroke-opacity:0.1; fill:none" points="309.866,50.1625 2352.76,50.1625 "/>
<polyline clip-path="url(#clip470)" style="stroke:#000000; stroke-linecap:round; stroke-linejoin:round; stroke-width:4; stroke-opacity:1; fill:none" points="309.866,1423.18 2352.76,1423.18 "/>
<polyline clip-path="url(#clip470)" style="stroke:#000000; stroke-linecap:round; stroke-linejoin:round; stroke-width:4; stroke-opacity:1; fill:none" points="560.409,1423.18 560.409,1404.28 "/>
<polyline clip-path="url(#clip470)" style="stroke:#000000; stroke-linecap:round; stroke-linejoin:round; stroke-width:4; stroke-opacity:1; fill:none" points="945.86,1423.18 945.86,1404.28 "/>
<polyline clip-path="url(#clip470)" style="stroke:#000000; stroke-linecap:round; stroke-linejoin:round; stroke-width:4; stroke-opacity:1; fill:none" points="1331.31,1423.18 1331.31,1404.28 "/>
<polyline clip-path="url(#clip470)" style="stroke:#000000; stroke-linecap:round; stroke-linejoin:round; stroke-width:4; stroke-opacity:1; fill:none" points="1716.76,1423.18 1716.76,1404.28 "/>
<polyline clip-path="url(#clip470)" style="stroke:#000000; stroke-linecap:round; stroke-linejoin:round; stroke-width:4; stroke-opacity:1; fill:none" points="2102.21,1423.18 2102.21,1404.28 "/>
<path clip-path="url(#clip470)" d="M512.4 1481.64 L520.039 1481.64 L520.039 1455.28 L511.729 1456.95 L511.729 1452.69 L519.992 1451.02 L524.668 1451.02 L524.668 1481.64 L532.307 1481.64 L532.307 1485.58 L512.4 1485.58 L512.4 1481.64 Z" fill="#000000" fill-rule="nonzero" fill-opacity="1" /><path clip-path="url(#clip470)" d="M540.571 1451.02 L562.793 1451.02 L562.793 1453.01 L550.247 1485.58 L545.363 1485.58 L557.168 1454.96 L540.571 1454.96 L540.571 1451.02 Z" fill="#000000" fill-rule="nonzero" fill-opacity="1" /><path clip-path="url(#clip470)" d="M571.913 1479.7 L576.798 1479.7 L576.798 1485.58 L571.913 1485.58 L571.913 1479.7 Z" fill="#000000" fill-rule="nonzero" fill-opacity="1" /><path clip-path="url(#clip470)" d="M597.561 1466.44 Q594.413 1466.44 592.562 1468.59 Q590.733 1470.74 590.733 1474.49 Q590.733 1478.22 592.562 1480.39 Q594.413 1482.55 597.561 1482.55 Q600.71 1482.55 602.538 1480.39 Q604.39 1478.22 604.39 1474.49 Q604.39 1470.74 602.538 1468.59 Q600.71 1466.44 597.561 1466.44 M606.844 1451.78 L606.844 1456.04 Q605.085 1455.21 603.279 1454.77 Q601.497 1454.33 599.737 1454.33 Q595.108 1454.33 592.654 1457.45 Q590.224 1460.58 589.876 1466.9 Q591.242 1464.89 593.302 1463.82 Q595.362 1462.73 597.839 1462.73 Q603.048 1462.73 606.057 1465.9 Q609.089 1469.05 609.089 1474.49 Q609.089 1479.82 605.941 1483.03 Q602.793 1486.25 597.561 1486.25 Q591.566 1486.25 588.395 1481.67 Q585.224 1477.06 585.224 1468.33 Q585.224 1460.14 589.112 1455.28 Q593.001 1450.39 599.552 1450.39 Q601.311 1450.39 603.094 1450.74 Q604.899 1451.09 606.844 1451.78 Z" fill="#000000" fill-rule="nonzero" fill-opacity="1" /><path clip-path="url(#clip470)" d="M897.978 1481.64 L905.617 1481.64 L905.617 1455.28 L897.307 1456.95 L897.307 1452.69 L905.571 1451.02 L910.247 1451.02 L910.247 1481.64 L917.885 1481.64 L917.885 1485.58 L897.978 1485.58 L897.978 1481.64 Z" fill="#000000" fill-rule="nonzero" fill-opacity="1" /><path clip-path="url(#clip470)" d="M926.149 1451.02 L948.371 1451.02 L948.371 1453.01 L935.825 1485.58 L930.941 1485.58 L942.746 1454.96 L926.149 1454.96 L926.149 1451.02 Z" fill="#000000" fill-rule="nonzero" fill-opacity="1" /><path clip-path="url(#clip470)" d="M957.492 1479.7 L962.376 1479.7 L962.376 1485.58 L957.492 1485.58 L957.492 1479.7 Z" fill="#000000" fill-rule="nonzero" fill-opacity="1" /><path clip-path="url(#clip470)" d="M982.561 1469.17 Q979.228 1469.17 977.306 1470.95 Q975.408 1472.73 975.408 1475.86 Q975.408 1478.98 977.306 1480.77 Q979.228 1482.55 982.561 1482.55 Q985.894 1482.55 987.816 1480.77 Q989.737 1478.96 989.737 1475.86 Q989.737 1472.73 987.816 1470.95 Q985.918 1469.17 982.561 1469.17 M977.885 1467.18 Q974.876 1466.44 973.186 1464.38 Q971.519 1462.32 971.519 1459.35 Q971.519 1455.21 974.459 1452.8 Q977.422 1450.39 982.561 1450.39 Q987.723 1450.39 990.663 1452.8 Q993.603 1455.21 993.603 1459.35 Q993.603 1462.32 991.913 1464.38 Q990.246 1466.44 987.26 1467.18 Q990.64 1467.96 992.515 1470.26 Q994.413 1472.55 994.413 1475.86 Q994.413 1480.88 991.334 1483.57 Q988.279 1486.25 982.561 1486.25 Q976.844 1486.25 973.765 1483.57 Q970.709 1480.88 970.709 1475.86 Q970.709 1472.55 972.607 1470.26 Q974.506 1467.96 977.885 1467.18 M976.172 1459.79 Q976.172 1462.48 977.839 1463.98 Q979.529 1465.49 982.561 1465.49 Q985.57 1465.49 987.26 1463.98 Q988.973 1462.48 988.973 1459.79 Q988.973 1457.11 987.26 1455.6 Q985.57 1454.1 982.561 1454.1 Q979.529 1454.1 977.839 1455.6 Q976.172 1457.11 976.172 1459.79 Z" fill="#000000" fill-rule="nonzero" fill-opacity="1" /><path clip-path="url(#clip470)" d="M1283.38 1481.64 L1291.02 1481.64 L1291.02 1455.28 L1282.71 1456.95 L1282.71 1452.69 L1290.98 1451.02 L1295.65 1451.02 L1295.65 1481.64 L1303.29 1481.64 L1303.29 1485.58 L1283.38 1485.58 L1283.38 1481.64 Z" fill="#000000" fill-rule="nonzero" fill-opacity="1" /><path clip-path="url(#clip470)" d="M1322.73 1469.17 Q1319.4 1469.17 1317.48 1470.95 Q1315.58 1472.73 1315.58 1475.86 Q1315.58 1478.98 1317.48 1480.77 Q1319.4 1482.55 1322.73 1482.55 Q1326.07 1482.55 1327.99 1480.77 Q1329.91 1478.96 1329.91 1475.86 Q1329.91 1472.73 1327.99 1470.95 Q1326.09 1469.17 1322.73 1469.17 M1318.06 1467.18 Q1315.05 1466.44 1313.36 1464.38 Q1311.69 1462.32 1311.69 1459.35 Q1311.69 1455.21 1314.63 1452.8 Q1317.6 1450.39 1322.73 1450.39 Q1327.9 1450.39 1330.84 1452.8 Q1333.78 1455.21 1333.78 1459.35 Q1333.78 1462.32 1332.09 1464.38 Q1330.42 1466.44 1327.43 1467.18 Q1330.81 1467.96 1332.69 1470.26 Q1334.59 1472.55 1334.59 1475.86 Q1334.59 1480.88 1331.51 1483.57 Q1328.45 1486.25 1322.73 1486.25 Q1317.02 1486.25 1313.94 1483.57 Q1310.88 1480.88 1310.88 1475.86 Q1310.88 1472.55 1312.78 1470.26 Q1314.68 1467.96 1318.06 1467.18 M1316.35 1459.79 Q1316.35 1462.48 1318.01 1463.98 Q1319.7 1465.49 1322.73 1465.49 Q1325.74 1465.49 1327.43 1463.98 Q1329.15 1462.48 1329.15 1459.79 Q1329.15 1457.11 1327.43 1455.6 Q1325.74 1454.1 1322.73 1454.1 Q1319.7 1454.1 1318.01 1455.6 Q1316.35 1457.11 1316.35 1459.79 Z" fill="#000000" fill-rule="nonzero" fill-opacity="1" /><path clip-path="url(#clip470)" d="M1342.9 1479.7 L1347.78 1479.7 L1347.78 1485.58 L1342.9 1485.58 L1342.9 1479.7 Z" fill="#000000" fill-rule="nonzero" fill-opacity="1" /><path clip-path="url(#clip470)" d="M1367.97 1454.1 Q1364.35 1454.1 1362.53 1457.66 Q1360.72 1461.2 1360.72 1468.33 Q1360.72 1475.44 1362.53 1479.01 Q1364.35 1482.55 1367.97 1482.55 Q1371.6 1482.55 1373.41 1479.01 Q1375.23 1475.44 1375.23 1468.33 Q1375.23 1461.2 1373.41 1457.66 Q1371.6 1454.1 1367.97 1454.1 M1367.97 1450.39 Q1373.78 1450.39 1376.83 1455 Q1379.91 1459.58 1379.91 1468.33 Q1379.91 1477.06 1376.83 1481.67 Q1373.78 1486.25 1367.97 1486.25 Q1362.16 1486.25 1359.08 1481.67 Q1356.02 1477.06 1356.02 1468.33 Q1356.02 1459.58 1359.08 1455 Q1362.16 1450.39 1367.97 1450.39 Z" fill="#000000" fill-rule="nonzero" fill-opacity="1" /><path clip-path="url(#clip470)" d="M1669.63 1481.64 L1677.27 1481.64 L1677.27 1455.28 L1668.96 1456.95 L1668.96 1452.69 L1677.22 1451.02 L1681.9 1451.02 L1681.9 1481.64 L1689.54 1481.64 L1689.54 1485.58 L1669.63 1485.58 L1669.63 1481.64 Z" fill="#000000" fill-rule="nonzero" fill-opacity="1" /><path clip-path="url(#clip470)" d="M1708.98 1469.17 Q1705.65 1469.17 1703.73 1470.95 Q1701.83 1472.73 1701.83 1475.86 Q1701.83 1478.98 1703.73 1480.77 Q1705.65 1482.55 1708.98 1482.55 Q1712.32 1482.55 1714.24 1480.77 Q1716.16 1478.96 1716.16 1475.86 Q1716.16 1472.73 1714.24 1470.95 Q1712.34 1469.17 1708.98 1469.17 M1704.31 1467.18 Q1701.3 1466.44 1699.61 1464.38 Q1697.94 1462.32 1697.94 1459.35 Q1697.94 1455.21 1700.88 1452.8 Q1703.85 1450.39 1708.98 1450.39 Q1714.15 1450.39 1717.09 1452.8 Q1720.03 1455.21 1720.03 1459.35 Q1720.03 1462.32 1718.34 1464.38 Q1716.67 1466.44 1713.68 1467.18 Q1717.06 1467.96 1718.94 1470.26 Q1720.84 1472.55 1720.84 1475.86 Q1720.84 1480.88 1717.76 1483.57 Q1714.7 1486.25 1708.98 1486.25 Q1703.27 1486.25 1700.19 1483.57 Q1697.13 1480.88 1697.13 1475.86 Q1697.13 1472.55 1699.03 1470.26 Q1700.93 1467.96 1704.31 1467.18 M1702.6 1459.79 Q1702.6 1462.48 1704.26 1463.98 Q1705.95 1465.49 1708.98 1465.49 Q1711.99 1465.49 1713.68 1463.98 Q1715.4 1462.48 1715.4 1459.79 Q1715.4 1457.11 1713.68 1455.6 Q1711.99 1454.1 1708.98 1454.1 Q1705.95 1454.1 1704.26 1455.6 Q1702.6 1457.11 1702.6 1459.79 Z" fill="#000000" fill-rule="nonzero" fill-opacity="1" /><path clip-path="url(#clip470)" d="M1729.15 1479.7 L1734.03 1479.7 L1734.03 1485.58 L1729.15 1485.58 L1729.15 1479.7 Z" fill="#000000" fill-rule="nonzero" fill-opacity="1" /><path clip-path="url(#clip470)" d="M1748.24 1481.64 L1764.56 1481.64 L1764.56 1485.58 L1742.62 1485.58 L1742.62 1481.64 Q1745.28 1478.89 1749.86 1474.26 Q1754.47 1469.61 1755.65 1468.27 Q1757.9 1465.74 1758.78 1464.01 Q1759.68 1462.25 1759.68 1460.56 Q1759.68 1457.8 1757.73 1456.07 Q1755.81 1454.33 1752.71 1454.33 Q1750.51 1454.33 1748.06 1455.09 Q1745.63 1455.86 1742.85 1457.41 L1742.85 1452.69 Q1745.67 1451.55 1748.13 1450.97 Q1750.58 1450.39 1752.62 1450.39 Q1757.99 1450.39 1761.18 1453.08 Q1764.38 1455.77 1764.38 1460.26 Q1764.38 1462.39 1763.57 1464.31 Q1762.78 1466.2 1760.67 1468.8 Q1760.09 1469.47 1756.99 1472.69 Q1753.89 1475.88 1748.24 1481.64 Z" fill="#000000" fill-rule="nonzero" fill-opacity="1" /><path clip-path="url(#clip470)" d="M2054.04 1481.64 L2061.68 1481.64 L2061.68 1455.28 L2053.37 1456.95 L2053.37 1452.69 L2061.63 1451.02 L2066.31 1451.02 L2066.31 1481.64 L2073.95 1481.64 L2073.95 1485.58 L2054.04 1485.58 L2054.04 1481.64 Z" fill="#000000" fill-rule="nonzero" fill-opacity="1" /><path clip-path="url(#clip470)" d="M2093.39 1469.17 Q2090.06 1469.17 2088.14 1470.95 Q2086.24 1472.73 2086.24 1475.86 Q2086.24 1478.98 2088.14 1480.77 Q2090.06 1482.55 2093.39 1482.55 Q2096.73 1482.55 2098.65 1480.77 Q2100.57 1478.96 2100.57 1475.86 Q2100.57 1472.73 2098.65 1470.95 Q2096.75 1469.17 2093.39 1469.17 M2088.72 1467.18 Q2085.71 1466.44 2084.02 1464.38 Q2082.35 1462.32 2082.35 1459.35 Q2082.35 1455.21 2085.29 1452.8 Q2088.25 1450.39 2093.39 1450.39 Q2098.56 1450.39 2101.5 1452.8 Q2104.43 1455.21 2104.43 1459.35 Q2104.43 1462.32 2102.75 1464.38 Q2101.08 1466.44 2098.09 1467.18 Q2101.47 1467.96 2103.35 1470.26 Q2105.25 1472.55 2105.25 1475.86 Q2105.25 1480.88 2102.17 1483.57 Q2099.11 1486.25 2093.39 1486.25 Q2087.68 1486.25 2084.6 1483.57 Q2081.54 1480.88 2081.54 1475.86 Q2081.54 1472.55 2083.44 1470.26 Q2085.34 1467.96 2088.72 1467.18 M2087 1459.79 Q2087 1462.48 2088.67 1463.98 Q2090.36 1465.49 2093.39 1465.49 Q2096.4 1465.49 2098.09 1463.98 Q2099.81 1462.48 2099.81 1459.79 Q2099.81 1457.11 2098.09 1455.6 Q2096.4 1454.1 2093.39 1454.1 Q2090.36 1454.1 2088.67 1455.6 Q2087 1457.11 2087 1459.79 Z" fill="#000000" fill-rule="nonzero" fill-opacity="1" /><path clip-path="url(#clip470)" d="M2113.56 1479.7 L2118.44 1479.7 L2118.44 1485.58 L2113.56 1485.58 L2113.56 1479.7 Z" fill="#000000" fill-rule="nonzero" fill-opacity="1" /><path clip-path="url(#clip470)" d="M2141.47 1455.09 L2129.67 1473.54 L2141.47 1473.54 L2141.47 1455.09 M2140.24 1451.02 L2146.12 1451.02 L2146.12 1473.54 L2151.06 1473.54 L2151.06 1477.43 L2146.12 1477.43 L2146.12 1485.58 L2141.47 1485.58 L2141.47 1477.43 L2125.87 1477.43 L2125.87 1472.92 L2140.24 1451.02 Z" fill="#000000" fill-rule="nonzero" fill-opacity="1" /><path clip-path="url(#clip470)" d="M1039.48 1520.52 L1066.78 1520.52 L1066.78 1525.93 L1045.9 1525.93 L1045.9 1539.94 L1064.75 1539.94 L1064.75 1545.35 L1045.9 1545.35 L1045.9 1568.04 L1039.48 1568.04 L1039.48 1520.52 Z" fill="#000000" fill-rule="nonzero" fill-opacity="1" /><path clip-path="url(#clip470)" d="M1092.63 1537.87 Q1091.64 1537.3 1090.46 1537.04 Q1089.32 1536.76 1087.92 1536.76 Q1082.95 1536.76 1080.28 1540 Q1077.64 1543.22 1077.64 1549.27 L1077.64 1568.04 L1071.75 1568.04 L1071.75 1532.4 L1077.64 1532.4 L1077.64 1537.93 Q1079.48 1534.69 1082.44 1533.13 Q1085.4 1531.54 1089.64 1531.54 Q1090.24 1531.54 1090.97 1531.63 Q1091.71 1531.7 1092.6 1531.85 L1092.63 1537.87 Z" fill="#000000" fill-rule="nonzero" fill-opacity="1" /><path clip-path="url(#clip470)" d="M1127.83 1548.76 L1127.83 1551.62 L1100.9 1551.62 Q1101.29 1557.67 1104.53 1560.85 Q1107.81 1564 1113.64 1564 Q1117.01 1564 1120.16 1563.17 Q1123.34 1562.35 1126.46 1560.69 L1126.46 1566.23 Q1123.31 1567.57 1120 1568.27 Q1116.69 1568.97 1113.29 1568.97 Q1104.76 1568.97 1099.76 1564 Q1094.79 1559.04 1094.79 1550.57 Q1094.79 1541.82 1099.5 1536.69 Q1104.25 1531.54 1112.27 1531.54 Q1119.46 1531.54 1123.63 1536.18 Q1127.83 1540.8 1127.83 1548.76 M1121.97 1547.04 Q1121.91 1542.23 1119.27 1539.37 Q1116.66 1536.5 1112.33 1536.5 Q1107.43 1536.5 1104.47 1539.27 Q1101.54 1542.04 1101.1 1547.07 L1121.97 1547.04 Z" fill="#000000" fill-rule="nonzero" fill-opacity="1" /><path clip-path="url(#clip470)" d="M1140.94 1550.25 Q1140.94 1556.71 1143.59 1560.4 Q1146.26 1564.07 1150.91 1564.07 Q1155.55 1564.07 1158.23 1560.4 Q1160.9 1556.71 1160.9 1550.25 Q1160.9 1543.79 1158.23 1540.13 Q1155.55 1536.44 1150.91 1536.44 Q1146.26 1536.44 1143.59 1540.13 Q1140.94 1543.79 1140.94 1550.25 M1160.9 1562.7 Q1159.05 1565.88 1156.22 1567.44 Q1153.42 1568.97 1149.47 1568.97 Q1143.01 1568.97 1138.94 1563.81 Q1134.9 1558.65 1134.9 1550.25 Q1134.9 1541.85 1138.94 1536.69 Q1143.01 1531.54 1149.47 1531.54 Q1153.42 1531.54 1156.22 1533.1 Q1159.05 1534.62 1160.9 1537.81 L1160.9 1532.4 L1166.76 1532.4 L1166.76 1581.6 L1160.9 1581.6 L1160.9 1562.7 Z" fill="#000000" fill-rule="nonzero" fill-opacity="1" /><path clip-path="url(#clip470)" d="M1178.22 1553.98 L1178.22 1532.4 L1184.07 1532.4 L1184.07 1553.75 Q1184.07 1558.81 1186.05 1561.36 Q1188.02 1563.87 1191.97 1563.87 Q1196.71 1563.87 1199.45 1560.85 Q1202.21 1557.83 1202.21 1552.61 L1202.21 1532.4 L1208.07 1532.4 L1208.07 1568.04 L1202.21 1568.04 L1202.21 1562.57 Q1200.08 1565.82 1197.25 1567.41 Q1194.45 1568.97 1190.72 1568.97 Q1184.58 1568.97 1181.4 1565.15 Q1178.22 1561.33 1178.22 1553.98 M1192.95 1531.54 L1192.95 1531.54 Z" fill="#000000" fill-rule="nonzero" fill-opacity="1" /><path clip-path="url(#clip470)" d="M1250.63 1548.76 L1250.63 1551.62 L1223.7 1551.62 Q1224.08 1557.67 1227.33 1560.85 Q1230.61 1564 1236.43 1564 Q1239.8 1564 1242.95 1563.17 Q1246.14 1562.35 1249.26 1560.69 L1249.26 1566.23 Q1246.11 1567.57 1242.8 1568.27 Q1239.49 1568.97 1236.08 1568.97 Q1227.55 1568.97 1222.55 1564 Q1217.59 1559.04 1217.59 1550.57 Q1217.59 1541.82 1222.3 1536.69 Q1227.04 1531.54 1235.06 1531.54 Q1242.25 1531.54 1246.42 1536.18 Q1250.63 1540.8 1250.63 1548.76 M1244.77 1547.04 Q1244.71 1542.23 1242.06 1539.37 Q1239.45 1536.5 1235.13 1536.5 Q1230.22 1536.5 1227.26 1539.27 Q1224.34 1542.04 1223.89 1547.07 L1244.77 1547.04 Z" fill="#000000" fill-rule="nonzero" fill-opacity="1" /><path clip-path="url(#clip470)" d="M1289.87 1546.53 L1289.87 1568.04 L1284.01 1568.04 L1284.01 1546.72 Q1284.01 1541.66 1282.04 1539.14 Q1280.07 1536.63 1276.12 1536.63 Q1271.38 1536.63 1268.64 1539.65 Q1265.9 1542.68 1265.9 1547.9 L1265.9 1568.04 L1260.01 1568.04 L1260.01 1532.4 L1265.9 1532.4 L1265.9 1537.93 Q1268 1534.72 1270.84 1533.13 Q1273.7 1531.54 1277.43 1531.54 Q1283.57 1531.54 1286.72 1535.36 Q1289.87 1539.14 1289.87 1546.53 Z" fill="#000000" fill-rule="nonzero" fill-opacity="1" /><path clip-path="url(#clip470)" d="M1327.2 1533.76 L1327.2 1539.24 Q1324.72 1537.87 1322.21 1537.2 Q1319.73 1536.5 1317.18 1536.5 Q1311.48 1536.5 1308.33 1540.13 Q1305.18 1543.73 1305.18 1550.25 Q1305.18 1556.78 1308.33 1560.4 Q1311.48 1564 1317.18 1564 Q1319.73 1564 1322.21 1563.33 Q1324.72 1562.63 1327.2 1561.26 L1327.2 1566.68 Q1324.75 1567.82 1322.11 1568.39 Q1319.5 1568.97 1316.54 1568.97 Q1308.49 1568.97 1303.75 1563.91 Q1299 1558.85 1299 1550.25 Q1299 1541.53 1303.78 1536.53 Q1308.59 1531.54 1316.92 1531.54 Q1319.63 1531.54 1322.21 1532.11 Q1324.79 1532.65 1327.2 1533.76 Z" fill="#000000" fill-rule="nonzero" fill-opacity="1" /><path clip-path="url(#clip470)" d="M1337.39 1532.4 L1343.25 1532.4 L1343.25 1568.04 L1337.39 1568.04 L1337.39 1532.4 M1337.39 1518.52 L1343.25 1518.52 L1343.25 1525.93 L1337.39 1525.93 L1337.39 1518.52 Z" fill="#000000" fill-rule="nonzero" fill-opacity="1" /><path clip-path="url(#clip470)" d="M1385.99 1548.76 L1385.99 1551.62 L1359.07 1551.62 Q1359.45 1557.67 1362.69 1560.85 Q1365.97 1564 1371.8 1564 Q1375.17 1564 1378.32 1563.17 Q1381.5 1562.35 1384.62 1560.69 L1384.62 1566.23 Q1381.47 1567.57 1378.16 1568.27 Q1374.85 1568.97 1371.45 1568.97 Q1362.92 1568.97 1357.92 1564 Q1352.95 1559.04 1352.95 1550.57 Q1352.95 1541.82 1357.66 1536.69 Q1362.41 1531.54 1370.43 1531.54 Q1377.62 1531.54 1381.79 1536.18 Q1385.99 1540.8 1385.99 1548.76 M1380.14 1547.04 Q1380.07 1542.23 1377.43 1539.37 Q1374.82 1536.5 1370.49 1536.5 Q1365.59 1536.5 1362.63 1539.27 Q1359.7 1542.04 1359.26 1547.07 L1380.14 1547.04 Z" fill="#000000" fill-rule="nonzero" fill-opacity="1" /><path clip-path="url(#clip470)" d="M1418.33 1533.45 L1418.33 1538.98 Q1415.85 1537.71 1413.17 1537.07 Q1410.5 1536.44 1407.64 1536.44 Q1403.28 1536.44 1401.08 1537.77 Q1398.91 1539.11 1398.91 1541.79 Q1398.91 1543.82 1400.47 1545 Q1402.03 1546.15 1406.74 1547.2 L1408.75 1547.64 Q1414.99 1548.98 1417.6 1551.43 Q1420.24 1553.85 1420.24 1558.21 Q1420.24 1563.17 1416.29 1566.07 Q1412.38 1568.97 1405.5 1568.97 Q1402.64 1568.97 1399.52 1568.39 Q1396.43 1567.85 1392.99 1566.74 L1392.99 1560.69 Q1396.24 1562.38 1399.39 1563.24 Q1402.54 1564.07 1405.63 1564.07 Q1409.77 1564.07 1412 1562.66 Q1414.22 1561.23 1414.22 1558.65 Q1414.22 1556.27 1412.6 1554.99 Q1411.01 1553.72 1405.57 1552.54 L1403.53 1552.07 Q1398.09 1550.92 1395.67 1548.56 Q1393.25 1546.18 1393.25 1542.04 Q1393.25 1537.01 1396.81 1534.27 Q1400.38 1531.54 1406.94 1531.54 Q1410.18 1531.54 1413.05 1532.01 Q1415.91 1532.49 1418.33 1533.45 Z" fill="#000000" fill-rule="nonzero" fill-opacity="1" /><path clip-path="url(#clip470)" d="M1449.74 1518.52 L1463.24 1518.52 L1463.24 1523.07 L1455.6 1523.07 L1455.6 1572.09 L1463.24 1572.09 L1463.24 1576.64 L1449.74 1576.64 L1449.74 1518.52 Z" fill="#000000" fill-rule="nonzero" fill-opacity="1" /><path clip-path="url(#clip470)" d="M1508.37 1561.26 L1508.37 1548.5 L1497.87 1548.5 L1497.87 1543.22 L1514.74 1543.22 L1514.74 1563.62 Q1511.01 1566.26 1506.53 1567.63 Q1502.04 1568.97 1496.95 1568.97 Q1485.81 1568.97 1479.5 1562.47 Q1473.23 1555.95 1473.23 1544.33 Q1473.23 1532.68 1479.5 1526.19 Q1485.81 1519.66 1496.95 1519.66 Q1501.59 1519.66 1505.76 1520.81 Q1509.96 1521.96 1513.5 1524.18 L1513.5 1531.03 Q1509.93 1528 1505.92 1526.48 Q1501.91 1524.95 1497.49 1524.95 Q1488.77 1524.95 1484.37 1529.82 Q1480.01 1534.69 1480.01 1544.33 Q1480.01 1553.94 1484.37 1558.81 Q1488.77 1563.68 1497.49 1563.68 Q1500.89 1563.68 1503.57 1563.11 Q1506.24 1562.51 1508.37 1561.26 Z" fill="#000000" fill-rule="nonzero" fill-opacity="1" /><path clip-path="url(#clip470)" d="M1526.48 1520.52 L1532.91 1520.52 L1532.91 1540 L1556.27 1540 L1556.27 1520.52 L1562.7 1520.52 L1562.7 1568.04 L1556.27 1568.04 L1556.27 1545.41 L1532.91 1545.41 L1532.91 1568.04 L1526.48 1568.04 L1526.48 1520.52 Z" fill="#000000" fill-rule="nonzero" fill-opacity="1" /><path clip-path="url(#clip470)" d="M1572.7 1532.4 L1600.52 1532.4 L1600.52 1537.74 L1578.49 1563.37 L1600.52 1563.37 L1600.52 1568.04 L1571.9 1568.04 L1571.9 1562.7 L1593.93 1537.07 L1572.7 1537.07 L1572.7 1532.4 Z" fill="#000000" fill-rule="nonzero" fill-opacity="1" /><path clip-path="url(#clip470)" d="M1623.15 1518.52 L1623.15 1576.64 L1609.65 1576.64 L1609.65 1572.09 L1617.26 1572.09 L1617.26 1523.07 L1609.65 1523.07 L1609.65 1518.52 L1623.15 1518.52 Z" fill="#000000" fill-rule="nonzero" fill-opacity="1" /><polyline clip-path="url(#clip470)" style="stroke:#000000; stroke-linecap:round; stroke-linejoin:round; stroke-width:4; stroke-opacity:1; fill:none" points="309.866,1423.18 309.866,47.2441 "/>
<polyline clip-path="url(#clip470)" style="stroke:#000000; stroke-linecap:round; stroke-linejoin:round; stroke-width:4; stroke-opacity:1; fill:none" points="309.866,1168.66 328.763,1168.66 "/>
<polyline clip-path="url(#clip470)" style="stroke:#000000; stroke-linecap:round; stroke-linejoin:round; stroke-width:4; stroke-opacity:1; fill:none" points="309.866,889.038 328.763,889.038 "/>
<polyline clip-path="url(#clip470)" style="stroke:#000000; stroke-linecap:round; stroke-linejoin:round; stroke-width:4; stroke-opacity:1; fill:none" points="309.866,609.413 328.763,609.413 "/>
<polyline clip-path="url(#clip470)" style="stroke:#000000; stroke-linecap:round; stroke-linejoin:round; stroke-width:4; stroke-opacity:1; fill:none" points="309.866,329.788 328.763,329.788 "/>
<polyline clip-path="url(#clip470)" style="stroke:#000000; stroke-linecap:round; stroke-linejoin:round; stroke-width:4; stroke-opacity:1; fill:none" points="309.866,50.1625 328.763,50.1625 "/>
<path clip-path="url(#clip470)" d="M126.205 1154.46 Q122.593 1154.46 120.765 1158.03 Q118.959 1161.57 118.959 1168.7 Q118.959 1175.8 120.765 1179.37 Q122.593 1182.91 126.205 1182.91 Q129.839 1182.91 131.644 1179.37 Q133.473 1175.8 133.473 1168.7 Q133.473 1161.57 131.644 1158.03 Q129.839 1154.46 126.205 1154.46 M126.205 1150.76 Q132.015 1150.76 135.07 1155.36 Q138.149 1159.95 138.149 1168.7 Q138.149 1177.42 135.07 1182.03 Q132.015 1186.61 126.205 1186.61 Q120.394 1186.61 117.316 1182.03 Q114.26 1177.42 114.26 1168.7 Q114.26 1159.95 117.316 1155.36 Q120.394 1150.76 126.205 1150.76 Z" fill="#000000" fill-rule="nonzero" fill-opacity="1" /><path clip-path="url(#clip470)" d="M146.366 1180.06 L151.251 1180.06 L151.251 1185.94 L146.366 1185.94 L146.366 1180.06 Z" fill="#000000" fill-rule="nonzero" fill-opacity="1" /><path clip-path="url(#clip470)" d="M161.575 1185.22 L161.575 1180.97 Q163.334 1181.8 165.14 1182.24 Q166.945 1182.68 168.681 1182.68 Q173.311 1182.68 175.741 1179.58 Q178.195 1176.45 178.542 1170.11 Q177.2 1172.1 175.139 1173.16 Q173.079 1174.23 170.579 1174.23 Q165.394 1174.23 162.362 1171.1 Q159.353 1167.96 159.353 1162.52 Q159.353 1157.19 162.501 1153.98 Q165.649 1150.76 170.88 1150.76 Q176.876 1150.76 180.024 1155.36 Q183.195 1159.95 183.195 1168.7 Q183.195 1176.87 179.306 1181.75 Q175.44 1186.61 168.889 1186.61 Q167.13 1186.61 165.325 1186.27 Q163.519 1185.92 161.575 1185.22 M170.88 1170.57 Q174.028 1170.57 175.857 1168.42 Q177.709 1166.27 177.709 1162.52 Q177.709 1158.79 175.857 1156.64 Q174.028 1154.46 170.88 1154.46 Q167.732 1154.46 165.88 1156.64 Q164.052 1158.79 164.052 1162.52 Q164.052 1166.27 165.88 1168.42 Q167.732 1170.57 170.88 1170.57 Z" fill="#000000" fill-rule="nonzero" fill-opacity="1" /><path clip-path="url(#clip470)" d="M191.737 1185.22 L191.737 1180.97 Q193.496 1181.8 195.301 1182.24 Q197.107 1182.68 198.843 1182.68 Q203.473 1182.68 205.903 1179.58 Q208.357 1176.45 208.704 1170.11 Q207.362 1172.1 205.301 1173.16 Q203.241 1174.23 200.741 1174.23 Q195.556 1174.23 192.524 1171.1 Q189.514 1167.96 189.514 1162.52 Q189.514 1157.19 192.663 1153.98 Q195.811 1150.76 201.042 1150.76 Q207.037 1150.76 210.186 1155.36 Q213.357 1159.95 213.357 1168.7 Q213.357 1176.87 209.468 1181.75 Q205.602 1186.61 199.051 1186.61 Q197.292 1186.61 195.487 1186.27 Q193.681 1185.92 191.737 1185.22 M201.042 1170.57 Q204.19 1170.57 206.019 1168.42 Q207.871 1166.27 207.871 1162.52 Q207.871 1158.79 206.019 1156.64 Q204.19 1154.46 201.042 1154.46 Q197.894 1154.46 196.042 1156.64 Q194.213 1158.79 194.213 1162.52 Q194.213 1166.27 196.042 1168.42 Q197.894 1170.57 201.042 1170.57 Z" fill="#000000" fill-rule="nonzero" fill-opacity="1" /><path clip-path="url(#clip470)" d="M231.76 1169.53 Q228.426 1169.53 226.505 1171.31 Q224.607 1173.1 224.607 1176.22 Q224.607 1179.35 226.505 1181.13 Q228.426 1182.91 231.76 1182.91 Q235.093 1182.91 237.014 1181.13 Q238.935 1179.32 238.935 1176.22 Q238.935 1173.1 237.014 1171.31 Q235.116 1169.53 231.76 1169.53 M227.084 1167.54 Q224.074 1166.8 222.385 1164.74 Q220.718 1162.68 220.718 1159.72 Q220.718 1155.57 223.658 1153.16 Q226.621 1150.76 231.76 1150.76 Q236.922 1150.76 239.861 1153.16 Q242.801 1155.57 242.801 1159.72 Q242.801 1162.68 241.111 1164.74 Q239.445 1166.8 236.459 1167.54 Q239.838 1168.33 241.713 1170.62 Q243.611 1172.91 243.611 1176.22 Q243.611 1181.24 240.533 1183.93 Q237.477 1186.61 231.76 1186.61 Q226.042 1186.61 222.963 1183.93 Q219.908 1181.24 219.908 1176.22 Q219.908 1172.91 221.806 1170.62 Q223.704 1168.33 227.084 1167.54 M225.371 1160.16 Q225.371 1162.84 227.037 1164.35 Q228.727 1165.85 231.76 1165.85 Q234.769 1165.85 236.459 1164.35 Q238.172 1162.84 238.172 1160.16 Q238.172 1157.47 236.459 1155.97 Q234.769 1154.46 231.76 1154.46 Q228.727 1154.46 227.037 1155.97 Q225.371 1157.47 225.371 1160.16 Z" fill="#000000" fill-rule="nonzero" fill-opacity="1" /><path clip-path="url(#clip470)" d="M261.921 1154.46 Q258.31 1154.46 256.482 1158.03 Q254.676 1161.57 254.676 1168.7 Q254.676 1175.8 256.482 1179.37 Q258.31 1182.91 261.921 1182.91 Q265.556 1182.91 267.361 1179.37 Q269.19 1175.8 269.19 1168.7 Q269.19 1161.57 267.361 1158.03 Q265.556 1154.46 261.921 1154.46 M261.921 1150.76 Q267.732 1150.76 270.787 1155.36 Q273.866 1159.95 273.866 1168.7 Q273.866 1177.42 270.787 1182.03 Q267.732 1186.61 261.921 1186.61 Q256.111 1186.61 253.033 1182.03 Q249.977 1177.42 249.977 1168.7 Q249.977 1159.95 253.033 1155.36 Q256.111 1150.76 261.921 1150.76 Z" fill="#000000" fill-rule="nonzero" fill-opacity="1" /><path clip-path="url(#clip470)" d="M127.2 874.836 Q123.589 874.836 121.76 878.401 Q119.955 881.943 119.955 889.072 Q119.955 896.179 121.76 899.743 Q123.589 903.285 127.2 903.285 Q130.834 903.285 132.64 899.743 Q134.468 896.179 134.468 889.072 Q134.468 881.943 132.64 878.401 Q130.834 874.836 127.2 874.836 M127.2 871.133 Q133.01 871.133 136.066 875.739 Q139.144 880.322 139.144 889.072 Q139.144 897.799 136.066 902.405 Q133.01 906.989 127.2 906.989 Q121.39 906.989 118.311 902.405 Q115.256 897.799 115.256 889.072 Q115.256 880.322 118.311 875.739 Q121.39 871.133 127.2 871.133 Z" fill="#000000" fill-rule="nonzero" fill-opacity="1" /><path clip-path="url(#clip470)" d="M147.362 900.438 L152.246 900.438 L152.246 906.318 L147.362 906.318 L147.362 900.438 Z" fill="#000000" fill-rule="nonzero" fill-opacity="1" /><path clip-path="url(#clip470)" d="M162.57 905.6 L162.57 901.341 Q164.329 902.174 166.135 902.614 Q167.94 903.054 169.677 903.054 Q174.306 903.054 176.737 899.952 Q179.19 896.827 179.538 890.484 Q178.195 892.475 176.135 893.54 Q174.075 894.605 171.575 894.605 Q166.39 894.605 163.357 891.48 Q160.348 888.331 160.348 882.892 Q160.348 877.568 163.496 874.35 Q166.644 871.133 171.876 871.133 Q177.871 871.133 181.019 875.739 Q184.19 880.322 184.19 889.072 Q184.19 897.243 180.301 902.128 Q176.436 906.989 169.885 906.989 Q168.126 906.989 166.32 906.642 Q164.515 906.294 162.57 905.6 M171.876 890.947 Q175.024 890.947 176.852 888.794 Q178.704 886.642 178.704 882.892 Q178.704 879.165 176.852 877.012 Q175.024 874.836 171.876 874.836 Q168.727 874.836 166.876 877.012 Q165.047 879.165 165.047 882.892 Q165.047 886.642 166.876 888.794 Q168.727 890.947 171.876 890.947 Z" fill="#000000" fill-rule="nonzero" fill-opacity="1" /><path clip-path="url(#clip470)" d="M192.732 905.6 L192.732 901.341 Q194.491 902.174 196.297 902.614 Q198.102 903.054 199.838 903.054 Q204.468 903.054 206.899 899.952 Q209.352 896.827 209.699 890.484 Q208.357 892.475 206.297 893.54 Q204.237 894.605 201.737 894.605 Q196.551 894.605 193.519 891.48 Q190.51 888.331 190.51 882.892 Q190.51 877.568 193.658 874.35 Q196.806 871.133 202.037 871.133 Q208.033 871.133 211.181 875.739 Q214.352 880.322 214.352 889.072 Q214.352 897.243 210.463 902.128 Q206.598 906.989 200.047 906.989 Q198.287 906.989 196.482 906.642 Q194.676 906.294 192.732 905.6 M202.037 890.947 Q205.186 890.947 207.014 888.794 Q208.866 886.642 208.866 882.892 Q208.866 879.165 207.014 877.012 Q205.186 874.836 202.037 874.836 Q198.889 874.836 197.037 877.012 Q195.209 879.165 195.209 882.892 Q195.209 886.642 197.037 888.794 Q198.889 890.947 202.037 890.947 Z" fill="#000000" fill-rule="nonzero" fill-opacity="1" /><path clip-path="url(#clip470)" d="M232.755 889.906 Q229.422 889.906 227.5 891.688 Q225.602 893.47 225.602 896.595 Q225.602 899.72 227.5 901.503 Q229.422 903.285 232.755 903.285 Q236.088 903.285 238.009 901.503 Q239.931 899.697 239.931 896.595 Q239.931 893.47 238.009 891.688 Q236.111 889.906 232.755 889.906 M228.079 887.915 Q225.07 887.174 223.38 885.114 Q221.713 883.054 221.713 880.091 Q221.713 875.947 224.653 873.54 Q227.616 871.133 232.755 871.133 Q237.917 871.133 240.857 873.54 Q243.797 875.947 243.797 880.091 Q243.797 883.054 242.107 885.114 Q240.44 887.174 237.454 887.915 Q240.834 888.702 242.709 890.994 Q244.607 893.285 244.607 896.595 Q244.607 901.618 241.528 904.304 Q238.472 906.989 232.755 906.989 Q227.037 906.989 223.959 904.304 Q220.903 901.618 220.903 896.595 Q220.903 893.285 222.801 890.994 Q224.699 888.702 228.079 887.915 M226.366 880.531 Q226.366 883.216 228.033 884.72 Q229.723 886.225 232.755 886.225 Q235.764 886.225 237.454 884.72 Q239.167 883.216 239.167 880.531 Q239.167 877.845 237.454 876.341 Q235.764 874.836 232.755 874.836 Q229.723 874.836 228.033 876.341 Q226.366 877.845 226.366 880.531 Z" fill="#000000" fill-rule="nonzero" fill-opacity="1" /><path clip-path="url(#clip470)" d="M252.963 871.758 L271.32 871.758 L271.32 875.693 L257.246 875.693 L257.246 884.165 Q258.264 883.818 259.283 883.656 Q260.301 883.47 261.32 883.47 Q267.107 883.47 270.486 886.642 Q273.866 889.813 273.866 895.23 Q273.866 900.808 270.394 903.91 Q266.921 906.989 260.602 906.989 Q258.426 906.989 256.158 906.618 Q253.912 906.248 251.505 905.507 L251.505 900.808 Q253.588 901.943 255.81 902.498 Q258.033 903.054 260.509 903.054 Q264.514 903.054 266.852 900.947 Q269.19 898.841 269.19 895.23 Q269.19 891.619 266.852 889.512 Q264.514 887.406 260.509 887.406 Q258.634 887.406 256.759 887.822 Q254.908 888.239 252.963 889.119 L252.963 871.758 Z" fill="#000000" fill-rule="nonzero" fill-opacity="1" /><path clip-path="url(#clip470)" d="M126.205 595.211 Q122.593 595.211 120.765 598.776 Q118.959 602.318 118.959 609.447 Q118.959 616.554 120.765 620.118 Q122.593 623.66 126.205 623.66 Q129.839 623.66 131.644 620.118 Q133.473 616.554 133.473 609.447 Q133.473 602.318 131.644 598.776 Q129.839 595.211 126.205 595.211 M126.205 591.508 Q132.015 591.508 135.07 596.114 Q138.149 600.697 138.149 609.447 Q138.149 618.174 135.07 622.78 Q132.015 627.364 126.205 627.364 Q120.394 627.364 117.316 622.78 Q114.26 618.174 114.26 609.447 Q114.26 600.697 117.316 596.114 Q120.394 591.508 126.205 591.508 Z" fill="#000000" fill-rule="nonzero" fill-opacity="1" /><path clip-path="url(#clip470)" d="M146.366 620.813 L151.251 620.813 L151.251 626.693 L146.366 626.693 L146.366 620.813 Z" fill="#000000" fill-rule="nonzero" fill-opacity="1" /><path clip-path="url(#clip470)" d="M161.575 625.975 L161.575 621.716 Q163.334 622.549 165.14 622.989 Q166.945 623.429 168.681 623.429 Q173.311 623.429 175.741 620.327 Q178.195 617.202 178.542 610.859 Q177.2 612.85 175.139 613.915 Q173.079 614.98 170.579 614.98 Q165.394 614.98 162.362 611.855 Q159.353 608.706 159.353 603.267 Q159.353 597.943 162.501 594.725 Q165.649 591.508 170.88 591.508 Q176.876 591.508 180.024 596.114 Q183.195 600.697 183.195 609.447 Q183.195 617.618 179.306 622.503 Q175.44 627.364 168.889 627.364 Q167.13 627.364 165.325 627.017 Q163.519 626.669 161.575 625.975 M170.88 611.322 Q174.028 611.322 175.857 609.169 Q177.709 607.017 177.709 603.267 Q177.709 599.54 175.857 597.387 Q174.028 595.211 170.88 595.211 Q167.732 595.211 165.88 597.387 Q164.052 599.54 164.052 603.267 Q164.052 607.017 165.88 609.169 Q167.732 611.322 170.88 611.322 Z" fill="#000000" fill-rule="nonzero" fill-opacity="1" /><path clip-path="url(#clip470)" d="M191.737 625.975 L191.737 621.716 Q193.496 622.549 195.301 622.989 Q197.107 623.429 198.843 623.429 Q203.473 623.429 205.903 620.327 Q208.357 617.202 208.704 610.859 Q207.362 612.85 205.301 613.915 Q203.241 614.98 200.741 614.98 Q195.556 614.98 192.524 611.855 Q189.514 608.706 189.514 603.267 Q189.514 597.943 192.663 594.725 Q195.811 591.508 201.042 591.508 Q207.037 591.508 210.186 596.114 Q213.357 600.697 213.357 609.447 Q213.357 617.618 209.468 622.503 Q205.602 627.364 199.051 627.364 Q197.292 627.364 195.487 627.017 Q193.681 626.669 191.737 625.975 M201.042 611.322 Q204.19 611.322 206.019 609.169 Q207.871 607.017 207.871 603.267 Q207.871 599.54 206.019 597.387 Q204.19 595.211 201.042 595.211 Q197.894 595.211 196.042 597.387 Q194.213 599.54 194.213 603.267 Q194.213 607.017 196.042 609.169 Q197.894 611.322 201.042 611.322 Z" fill="#000000" fill-rule="nonzero" fill-opacity="1" /><path clip-path="url(#clip470)" d="M221.898 625.975 L221.898 621.716 Q223.658 622.549 225.463 622.989 Q227.269 623.429 229.005 623.429 Q233.635 623.429 236.065 620.327 Q238.519 617.202 238.866 610.859 Q237.523 612.85 235.463 613.915 Q233.403 614.98 230.903 614.98 Q225.718 614.98 222.686 611.855 Q219.676 608.706 219.676 603.267 Q219.676 597.943 222.824 594.725 Q225.973 591.508 231.204 591.508 Q237.199 591.508 240.347 596.114 Q243.519 600.697 243.519 609.447 Q243.519 617.618 239.63 622.503 Q235.764 627.364 229.213 627.364 Q227.454 627.364 225.648 627.017 Q223.843 626.669 221.898 625.975 M231.204 611.322 Q234.352 611.322 236.181 609.169 Q238.033 607.017 238.033 603.267 Q238.033 599.54 236.181 597.387 Q234.352 595.211 231.204 595.211 Q228.056 595.211 226.204 597.387 Q224.375 599.54 224.375 603.267 Q224.375 607.017 226.204 609.169 Q228.056 611.322 231.204 611.322 Z" fill="#000000" fill-rule="nonzero" fill-opacity="1" /><path clip-path="url(#clip470)" d="M261.921 595.211 Q258.31 595.211 256.482 598.776 Q254.676 602.318 254.676 609.447 Q254.676 616.554 256.482 620.118 Q258.31 623.66 261.921 623.66 Q265.556 623.66 267.361 620.118 Q269.19 616.554 269.19 609.447 Q269.19 602.318 267.361 598.776 Q265.556 595.211 261.921 595.211 M261.921 591.508 Q267.732 591.508 270.787 596.114 Q273.866 600.697 273.866 609.447 Q273.866 618.174 270.787 622.78 Q267.732 627.364 261.921 627.364 Q256.111 627.364 253.033 622.78 Q249.977 618.174 249.977 609.447 Q249.977 600.697 253.033 596.114 Q256.111 591.508 261.921 591.508 Z" fill="#000000" fill-rule="nonzero" fill-opacity="1" /><path clip-path="url(#clip470)" d="M127.2 315.586 Q123.589 315.586 121.76 319.151 Q119.955 322.693 119.955 329.822 Q119.955 336.929 121.76 340.493 Q123.589 344.035 127.2 344.035 Q130.834 344.035 132.64 340.493 Q134.468 336.929 134.468 329.822 Q134.468 322.693 132.64 319.151 Q130.834 315.586 127.2 315.586 M127.2 311.883 Q133.01 311.883 136.066 316.489 Q139.144 321.072 139.144 329.822 Q139.144 338.549 136.066 343.155 Q133.01 347.739 127.2 347.739 Q121.39 347.739 118.311 343.155 Q115.256 338.549 115.256 329.822 Q115.256 321.072 118.311 316.489 Q121.39 311.883 127.2 311.883 Z" fill="#000000" fill-rule="nonzero" fill-opacity="1" /><path clip-path="url(#clip470)" d="M147.362 341.188 L152.246 341.188 L152.246 347.068 L147.362 347.068 L147.362 341.188 Z" fill="#000000" fill-rule="nonzero" fill-opacity="1" /><path clip-path="url(#clip470)" d="M162.57 346.35 L162.57 342.091 Q164.329 342.924 166.135 343.364 Q167.94 343.804 169.677 343.804 Q174.306 343.804 176.737 340.702 Q179.19 337.577 179.538 331.234 Q178.195 333.225 176.135 334.29 Q174.075 335.355 171.575 335.355 Q166.39 335.355 163.357 332.23 Q160.348 329.082 160.348 323.642 Q160.348 318.318 163.496 315.1 Q166.644 311.883 171.876 311.883 Q177.871 311.883 181.019 316.489 Q184.19 321.072 184.19 329.822 Q184.19 337.993 180.301 342.878 Q176.436 347.739 169.885 347.739 Q168.126 347.739 166.32 347.392 Q164.515 347.044 162.57 346.35 M171.876 331.697 Q175.024 331.697 176.852 329.544 Q178.704 327.392 178.704 323.642 Q178.704 319.915 176.852 317.762 Q175.024 315.586 171.876 315.586 Q168.727 315.586 166.876 317.762 Q165.047 319.915 165.047 323.642 Q165.047 327.392 166.876 329.544 Q168.727 331.697 171.876 331.697 Z" fill="#000000" fill-rule="nonzero" fill-opacity="1" /><path clip-path="url(#clip470)" d="M192.732 346.35 L192.732 342.091 Q194.491 342.924 196.297 343.364 Q198.102 343.804 199.838 343.804 Q204.468 343.804 206.899 340.702 Q209.352 337.577 209.699 331.234 Q208.357 333.225 206.297 334.29 Q204.237 335.355 201.737 335.355 Q196.551 335.355 193.519 332.23 Q190.51 329.082 190.51 323.642 Q190.51 318.318 193.658 315.1 Q196.806 311.883 202.037 311.883 Q208.033 311.883 211.181 316.489 Q214.352 321.072 214.352 329.822 Q214.352 337.993 210.463 342.878 Q206.598 347.739 200.047 347.739 Q198.287 347.739 196.482 347.392 Q194.676 347.044 192.732 346.35 M202.037 331.697 Q205.186 331.697 207.014 329.544 Q208.866 327.392 208.866 323.642 Q208.866 319.915 207.014 317.762 Q205.186 315.586 202.037 315.586 Q198.889 315.586 197.037 317.762 Q195.209 319.915 195.209 323.642 Q195.209 327.392 197.037 329.544 Q198.889 331.697 202.037 331.697 Z" fill="#000000" fill-rule="nonzero" fill-opacity="1" /><path clip-path="url(#clip470)" d="M222.894 346.35 L222.894 342.091 Q224.653 342.924 226.459 343.364 Q228.264 343.804 230 343.804 Q234.63 343.804 237.06 340.702 Q239.514 337.577 239.861 331.234 Q238.519 333.225 236.459 334.29 Q234.398 335.355 231.898 335.355 Q226.713 335.355 223.681 332.23 Q220.672 329.082 220.672 323.642 Q220.672 318.318 223.82 315.1 Q226.968 311.883 232.199 311.883 Q238.195 311.883 241.343 316.489 Q244.514 321.072 244.514 329.822 Q244.514 337.993 240.625 342.878 Q236.76 347.739 230.209 347.739 Q228.449 347.739 226.644 347.392 Q224.838 347.044 222.894 346.35 M232.199 331.697 Q235.347 331.697 237.176 329.544 Q239.028 327.392 239.028 323.642 Q239.028 319.915 237.176 317.762 Q235.347 315.586 232.199 315.586 Q229.051 315.586 227.199 317.762 Q225.371 319.915 225.371 323.642 Q225.371 327.392 227.199 329.544 Q229.051 331.697 232.199 331.697 Z" fill="#000000" fill-rule="nonzero" fill-opacity="1" /><path clip-path="url(#clip470)" d="M252.963 312.508 L271.32 312.508 L271.32 316.443 L257.246 316.443 L257.246 324.915 Q258.264 324.568 259.283 324.406 Q260.301 324.22 261.32 324.22 Q267.107 324.22 270.486 327.392 Q273.866 330.563 273.866 335.98 Q273.866 341.558 270.394 344.66 Q266.921 347.739 260.602 347.739 Q258.426 347.739 256.158 347.368 Q253.912 346.998 251.505 346.257 L251.505 341.558 Q253.588 342.693 255.81 343.248 Q258.033 343.804 260.509 343.804 Q264.514 343.804 266.852 341.697 Q269.19 339.591 269.19 335.98 Q269.19 332.369 266.852 330.262 Q264.514 328.156 260.509 328.156 Q258.634 328.156 256.759 328.572 Q254.908 328.989 252.963 329.869 L252.963 312.508 Z" fill="#000000" fill-rule="nonzero" fill-opacity="1" /><path clip-path="url(#clip470)" d="M117.015 63.5074 L124.654 63.5074 L124.654 37.1418 L116.343 38.8084 L116.343 34.5492 L124.607 32.8825 L129.283 32.8825 L129.283 63.5074 L136.922 63.5074 L136.922 67.4425 L117.015 67.4425 L117.015 63.5074 Z" fill="#000000" fill-rule="nonzero" fill-opacity="1" /><path clip-path="url(#clip470)" d="M146.366 61.5629 L151.251 61.5629 L151.251 67.4425 L146.366 67.4425 L146.366 61.5629 Z" fill="#000000" fill-rule="nonzero" fill-opacity="1" /><path clip-path="url(#clip470)" d="M171.436 35.9612 Q167.825 35.9612 165.996 39.526 Q164.19 43.0677 164.19 50.1972 Q164.19 57.3037 165.996 60.8685 Q167.825 64.4101 171.436 64.4101 Q175.07 64.4101 176.876 60.8685 Q178.704 57.3037 178.704 50.1972 Q178.704 43.0677 176.876 39.526 Q175.07 35.9612 171.436 35.9612 M171.436 32.2575 Q177.246 32.2575 180.301 36.864 Q183.38 41.4473 183.38 50.1972 Q183.38 58.9241 180.301 63.5305 Q177.246 68.1138 171.436 68.1138 Q165.626 68.1138 162.547 63.5305 Q159.491 58.9241 159.491 50.1972 Q159.491 41.4473 162.547 36.864 Q165.626 32.2575 171.436 32.2575 Z" fill="#000000" fill-rule="nonzero" fill-opacity="1" /><path clip-path="url(#clip470)" d="M201.598 35.9612 Q197.987 35.9612 196.158 39.526 Q194.352 43.0677 194.352 50.1972 Q194.352 57.3037 196.158 60.8685 Q197.987 64.4101 201.598 64.4101 Q205.232 64.4101 207.037 60.8685 Q208.866 57.3037 208.866 50.1972 Q208.866 43.0677 207.037 39.526 Q205.232 35.9612 201.598 35.9612 M201.598 32.2575 Q207.408 32.2575 210.463 36.864 Q213.542 41.4473 213.542 50.1972 Q213.542 58.9241 210.463 63.5305 Q207.408 68.1138 201.598 68.1138 Q195.787 68.1138 192.709 63.5305 Q189.653 58.9241 189.653 50.1972 Q189.653 41.4473 192.709 36.864 Q195.787 32.2575 201.598 32.2575 Z" fill="#000000" fill-rule="nonzero" fill-opacity="1" /><path clip-path="url(#clip470)" d="M231.76 35.9612 Q228.148 35.9612 226.32 39.526 Q224.514 43.0677 224.514 50.1972 Q224.514 57.3037 226.32 60.8685 Q228.148 64.4101 231.76 64.4101 Q235.394 64.4101 237.199 60.8685 Q239.028 57.3037 239.028 50.1972 Q239.028 43.0677 237.199 39.526 Q235.394 35.9612 231.76 35.9612 M231.76 32.2575 Q237.57 32.2575 240.625 36.864 Q243.704 41.4473 243.704 50.1972 Q243.704 58.9241 240.625 63.5305 Q237.57 68.1138 231.76 68.1138 Q225.949 68.1138 222.871 63.5305 Q219.815 58.9241 219.815 50.1972 Q219.815 41.4473 222.871 36.864 Q225.949 32.2575 231.76 32.2575 Z" fill="#000000" fill-rule="nonzero" fill-opacity="1" /><path clip-path="url(#clip470)" d="M261.921 35.9612 Q258.31 35.9612 256.482 39.526 Q254.676 43.0677 254.676 50.1972 Q254.676 57.3037 256.482 60.8685 Q258.31 64.4101 261.921 64.4101 Q265.556 64.4101 267.361 60.8685 Q269.19 57.3037 269.19 50.1972 Q269.19 43.0677 267.361 39.526 Q265.556 35.9612 261.921 35.9612 M261.921 32.2575 Q267.732 32.2575 270.787 36.864 Q273.866 41.4473 273.866 50.1972 Q273.866 58.9241 270.787 63.5305 Q267.732 68.1138 261.921 68.1138 Q256.111 68.1138 253.033 63.5305 Q249.977 58.9241 249.977 50.1972 Q249.977 41.4473 253.033 36.864 Q256.111 32.2575 261.921 32.2575 Z" fill="#000000" fill-rule="nonzero" fill-opacity="1" /><path clip-path="url(#clip470)" d="M41.7242 981.804 Q42.4244 979.735 44.7161 977.793 Q47.0077 975.82 51.0181 973.846 L64.0042 967.322 L64.0042 974.228 L51.8138 980.308 Q47.0395 982.663 45.48 984.891 Q43.9204 987.087 43.9204 990.906 L43.9204 997.909 L64.0042 997.909 L64.0042 1004.34 L16.4842 1004.34 L16.4842 989.824 Q16.4842 981.676 19.8898 977.666 Q23.2955 973.655 30.1704 973.655 Q34.6582 973.655 37.6183 975.756 Q40.5784 977.825 41.7242 981.804 M21.7677 997.909 L38.6368 997.909 L38.6368 989.824 Q38.6368 985.177 36.5043 982.822 Q34.34 980.435 30.1704 980.435 Q26.0009 980.435 23.9002 982.822 Q21.7677 985.177 21.7677 989.824 L21.7677 997.909 Z" fill="#000000" fill-rule="nonzero" fill-opacity="1" /><path clip-path="url(#clip470)" d="M44.7161 931.737 L47.5806 931.737 L47.5806 958.664 Q53.6281 958.282 56.8109 955.036 Q59.9619 951.757 59.9619 945.933 Q59.9619 942.559 59.1344 939.408 Q58.3069 936.225 56.6518 933.106 L62.1899 933.106 Q63.5267 936.257 64.227 939.567 Q64.9272 942.877 64.9272 946.283 Q64.9272 954.813 59.9619 959.81 Q54.9967 964.775 46.5303 964.775 Q37.7774 964.775 32.6531 960.065 Q27.4968 955.322 27.4968 947.301 Q27.4968 940.108 32.1438 935.939 Q36.7589 931.737 44.7161 931.737 M42.9973 937.594 Q38.1912 937.657 35.3266 940.299 Q32.4621 942.909 32.4621 947.238 Q32.4621 952.139 35.2312 955.099 Q38.0002 958.028 43.0292 958.473 L42.9973 937.594 Z" fill="#000000" fill-rule="nonzero" fill-opacity="1" /><path clip-path="url(#clip470)" d="M14.479 904.078 L19.3487 904.078 L19.3487 909.68 Q19.3487 912.831 20.6219 914.072 Q21.895 915.282 25.2052 915.282 L28.3562 915.282 L28.3562 905.638 L32.9077 905.638 L32.9077 915.282 L64.0042 915.282 L64.0042 921.17 L32.9077 921.17 L32.9077 926.772 L28.3562 926.772 L28.3562 921.17 L25.8736 921.17 Q19.9216 921.17 17.2162 918.401 Q14.479 915.632 14.479 909.616 L14.479 904.078 Z" fill="#000000" fill-rule="nonzero" fill-opacity="1" /><path clip-path="url(#clip470)" d="M14.479 899.177 L14.479 893.32 L64.0042 893.32 L64.0042 899.177 L14.479 899.177 Z" fill="#000000" fill-rule="nonzero" fill-opacity="1" /><path clip-path="url(#clip470)" d="M44.7161 850.574 L47.5806 850.574 L47.5806 877.501 Q53.6281 877.119 56.8109 873.873 Q59.9619 870.595 59.9619 864.77 Q59.9619 861.396 59.1344 858.245 Q58.3069 855.062 56.6518 851.943 L62.1899 851.943 Q63.5267 855.094 64.227 858.404 Q64.9272 861.714 64.9272 865.12 Q64.9272 873.65 59.9619 878.647 Q54.9967 883.613 46.5303 883.613 Q37.7774 883.613 32.6531 878.902 Q27.4968 874.159 27.4968 866.139 Q27.4968 858.945 32.1438 854.776 Q36.7589 850.574 44.7161 850.574 M42.9973 856.431 Q38.1912 856.495 35.3266 859.136 Q32.4621 861.746 32.4621 866.075 Q32.4621 870.977 35.2312 873.937 Q38.0002 876.865 43.0292 877.31 L42.9973 856.431 Z" fill="#000000" fill-rule="nonzero" fill-opacity="1" /><path clip-path="url(#clip470)" d="M29.7248 815.308 L35.1993 815.308 Q33.8307 817.791 33.1623 820.306 Q32.4621 822.788 32.4621 825.334 Q32.4621 831.032 36.0905 834.183 Q39.6872 837.334 46.212 837.334 Q52.7369 837.334 56.3653 834.183 Q59.9619 831.032 59.9619 825.334 Q59.9619 822.788 59.2935 820.306 Q58.5933 817.791 57.2247 815.308 L62.6355 815.308 Q63.7814 817.759 64.3543 820.401 Q64.9272 823.011 64.9272 825.971 Q64.9272 834.024 59.8664 838.766 Q54.8057 843.509 46.212 843.509 Q37.491 843.509 32.4939 838.734 Q27.4968 833.928 27.4968 825.589 Q27.4968 822.884 28.0697 820.306 Q28.6108 817.727 29.7248 815.308 Z" fill="#000000" fill-rule="nonzero" fill-opacity="1" /><path clip-path="url(#clip470)" d="M18.2347 799.331 L28.3562 799.331 L28.3562 787.268 L32.9077 787.268 L32.9077 799.331 L52.2594 799.331 Q56.6199 799.331 57.8613 798.153 Q59.1026 796.943 59.1026 793.283 L59.1026 787.268 L64.0042 787.268 L64.0042 793.283 Q64.0042 800.063 61.4897 802.641 Q58.9434 805.219 52.2594 805.219 L32.9077 805.219 L32.9077 809.516 L28.3562 809.516 L28.3562 805.219 L18.2347 805.219 L18.2347 799.331 Z" fill="#000000" fill-rule="nonzero" fill-opacity="1" /><path clip-path="url(#clip470)" d="M28.3562 779.565 L28.3562 773.709 L64.0042 773.709 L64.0042 779.565 L28.3562 779.565 M14.479 779.565 L14.479 773.709 L21.895 773.709 L21.895 779.565 L14.479 779.565 Z" fill="#000000" fill-rule="nonzero" fill-opacity="1" /><path clip-path="url(#clip470)" d="M28.3562 765.656 L28.3562 759.449 L58.275 748.309 L28.3562 737.169 L28.3562 730.963 L64.0042 744.331 L64.0042 752.288 L28.3562 765.656 Z" fill="#000000" fill-rule="nonzero" fill-opacity="1" /><path clip-path="url(#clip470)" d="M28.3562 722.878 L28.3562 717.022 L64.0042 717.022 L64.0042 722.878 L28.3562 722.878 M14.479 722.878 L14.479 717.022 L21.895 717.022 L21.895 722.878 L14.479 722.878 Z" fill="#000000" fill-rule="nonzero" fill-opacity="1" /><path clip-path="url(#clip470)" d="M18.2347 698.975 L28.3562 698.975 L28.3562 686.912 L32.9077 686.912 L32.9077 698.975 L52.2594 698.975 Q56.6199 698.975 57.8613 697.798 Q59.1026 696.588 59.1026 692.928 L59.1026 686.912 L64.0042 686.912 L64.0042 692.928 Q64.0042 699.707 61.4897 702.285 Q58.9434 704.863 52.2594 704.863 L32.9077 704.863 L32.9077 709.16 L28.3562 709.16 L28.3562 704.863 L18.2347 704.863 L18.2347 698.975 Z" fill="#000000" fill-rule="nonzero" fill-opacity="1" /><path clip-path="url(#clip470)" d="M67.3143 664.378 Q73.68 666.86 75.6216 669.216 Q77.5631 671.571 77.5631 675.518 L77.5631 680.196 L72.6615 680.196 L72.6615 676.759 Q72.6615 674.34 71.5157 673.003 Q70.3699 671.666 66.1048 670.043 L63.4312 668.993 L28.3562 683.411 L28.3562 677.204 L56.238 666.064 L28.3562 654.924 L28.3562 648.718 L67.3143 664.378 Z" fill="#000000" fill-rule="nonzero" fill-opacity="1" /><path clip-path="url(#clip470)" d="M14.1925 612.37 L79.3773 612.37 L79.3773 617.781 L14.1925 617.781 L14.1925 612.37 Z" fill="#000000" fill-rule="nonzero" fill-opacity="1" /><path clip-path="url(#clip470)" d="M18.0438 569.21 L24.314 569.21 Q22.5634 572.871 21.704 576.117 Q20.8447 579.364 20.8447 582.387 Q20.8447 587.639 22.8817 590.504 Q24.9187 593.336 28.6745 593.336 Q31.8255 593.336 33.4488 591.458 Q35.0402 589.549 36.0269 584.265 L36.8226 580.382 Q38.1912 573.189 41.6605 569.783 Q45.098 566.346 50.8908 566.346 Q57.7976 566.346 61.3624 570.993 Q64.9272 575.608 64.9272 584.552 Q64.9272 587.925 64.1633 591.745 Q63.3994 595.532 61.9035 599.607 L55.2831 599.607 Q57.4793 595.692 58.5933 591.936 Q59.7073 588.18 59.7073 584.552 Q59.7073 579.045 57.543 576.053 Q55.3786 573.062 51.3682 573.062 Q47.8671 573.062 45.8937 575.226 Q43.9204 577.358 42.9337 582.26 L42.1698 586.175 Q40.7375 593.368 37.682 596.583 Q34.6264 599.797 29.1837 599.797 Q22.8817 599.797 19.2532 595.373 Q15.6248 590.917 15.6248 583.119 Q15.6248 579.777 16.2295 576.308 Q16.8343 572.839 18.0438 569.21 Z" fill="#000000" fill-rule="nonzero" fill-opacity="1" /><path clip-path="url(#clip470)" d="M58.5933 554.633 L58.5933 544.129 L22.3406 544.129 L24.6323 555.556 L18.7758 555.556 L16.4842 544.193 L16.4842 537.764 L58.5933 537.764 L58.5933 527.26 L64.0042 527.26 L64.0042 554.633 L58.5933 554.633 Z" fill="#000000" fill-rule="nonzero" fill-opacity="1" /><path clip-path="url(#clip470)" d="M58.5933 513.16 L58.5933 502.657 L22.3406 502.657 L24.6323 514.083 L18.7758 514.083 L16.4842 502.72 L16.4842 496.291 L58.5933 496.291 L58.5933 485.788 L64.0042 485.788 L64.0042 513.16 L58.5933 513.16 Z" fill="#000000" fill-rule="nonzero" fill-opacity="1" /><path clip-path="url(#clip470)" d="M14.1925 466.086 L79.3773 466.086 L79.3773 471.497 L14.1925 471.497 L14.1925 466.086 Z" fill="#000000" fill-rule="nonzero" fill-opacity="1" /><polyline clip-path="url(#clip472)" style="stroke:#009af9; stroke-linecap:round; stroke-linejoin:round; stroke-width:4; stroke-opacity:1; fill:none" points="367.683,94.1022 369.613,94.1261 371.542,94.1506 373.471,94.1756 375.4,94.201 377.329,94.227 379.259,94.2534 381.188,94.2804 383.117,94.3079 385.046,94.3359 386.975,94.3644 388.904,94.3935 390.834,94.423 392.763,94.4531 394.692,94.4838 396.621,94.5149 398.55,94.5466 400.48,94.5788 402.409,94.6116 404.338,94.6449 406.267,94.6787 408.196,94.7131 410.125,94.7481 412.055,94.7836 413.984,94.8196 415.913,94.8563 417.842,94.8935 419.771,94.9312 421.701,94.9696 423.63,95.0085 425.559,95.048 427.488,95.088 429.417,95.1287 431.347,95.1699 433.276,95.2118 435.205,95.2542 437.134,95.2973 439.063,95.3409 440.992,95.3852 442.922,95.43 444.851,95.4755 446.78,95.5216 448.709,95.5683 450.638,95.6157 452.568,95.6637 454.497,95.7123 456.426,95.7616 458.355,95.8115 460.284,95.8621 462.213,95.9133 464.143,95.9652 466.072,96.0177 468.001,96.0709 469.93,96.1248 471.859,96.1793 473.789,96.2346 475.718,96.2905 477.647,96.3471 479.576,96.4045 481.505,96.4625 483.434,96.5212 485.364,96.5806 487.293,96.6408 489.222,96.7017 491.151,96.7633 493.08,96.8256 495.01,96.8887 496.939,96.9525 498.868,97.0171 500.797,97.0824 502.726,97.1485 504.655,97.2154 506.585,97.283 508.514,97.3514 510.443,97.4206 512.372,97.4906 514.301,97.5614 516.231,97.633 518.16,97.7054 520.089,97.7786 522.018,97.8526 523.947,97.9275 525.877,98.0032 527.806,98.0798 529.735,98.1572 531.664,98.2354 533.593,98.3146 535.522,98.3945 537.452,98.4754 539.381,98.5572 541.31,98.6398 543.239,98.7234 545.168,98.8078 547.098,98.8932 549.027,98.9795 550.956,99.0668 552.885,99.1549 554.814,99.2441 556.743,99.3341 558.673,99.4252 560.602,99.5172 562.531,99.6102 564.46,99.7042 566.389,99.7992 568.319,99.8952 570.248,99.9922 572.177,100.09 574.106,100.189 576.035,100.289 577.964,100.391 579.894,100.493 581.823,100.596 583.752,100.701 585.681,100.806 587.61,100.913 589.54,101.02 591.469,101.129 593.398,101.239 595.327,101.35 597.256,101.462 599.186,101.576 601.115,101.69 603.044,101.806 604.973,101.923 606.902,102.041 608.831,102.161 610.761,102.282 612.69,102.403 614.619,102.527 616.548,102.651 618.477,102.777 620.407,102.904 622.336,103.032 624.265,103.162 626.194,103.293 628.123,103.425 630.052,103.559 631.982,103.694 633.911,103.831 635.84,103.968 637.769,104.108 639.698,104.249 641.628,104.391 643.557,104.534 645.486,104.68 647.415,104.826 649.344,104.974 651.273,105.124 653.203,105.275 655.132,105.428 657.061,105.582 658.99,105.738 660.919,105.896 662.849,106.055 664.778,106.216 666.707,106.378 668.636,106.542 670.565,106.708 672.495,106.876 674.424,107.045 676.353,107.216 678.282,107.389 680.211,107.564 682.14,107.74 684.07,107.919 685.999,108.099 687.928,108.281 689.857,108.465 691.786,108.65 693.716,108.838 695.645,109.028 697.574,109.22 699.503,109.413 701.432,109.609 703.361,109.807 705.291,110.007 707.22,110.209 709.149,110.413 711.078,110.619 713.007,110.828 714.937,111.038 716.866,111.251 718.795,111.466 720.724,111.684 722.653,111.903 724.582,112.125 726.512,112.35 728.441,112.576 730.37,112.806 732.299,113.037 734.228,113.271 736.158,113.508 738.087,113.747 740.016,113.989 741.945,114.233 743.874,114.48 745.803,114.73 747.733,114.982 749.662,115.238 751.591,115.495 753.52,115.756 755.449,116.02 757.379,116.286 759.308,116.555 761.237,116.828 763.166,117.103 765.095,117.381 767.025,117.663 768.954,117.947 770.883,118.235 772.812,118.525 774.741,118.819 776.67,119.117 778.6,119.417 780.529,119.721 782.458,120.029 784.387,120.34 786.316,120.654 788.246,120.972 790.175,121.293 792.104,121.618 794.033,121.947 795.962,122.28 797.891,122.616 799.821,122.956 801.75,123.3 803.679,123.648 805.608,124 807.537,124.356 809.467,124.717 811.396,125.081 813.325,125.449 815.254,125.822 817.183,126.2 819.112,126.581 821.042,126.967 822.971,127.358 824.9,127.753 826.829,128.153 828.758,128.558 830.688,128.968 832.617,129.382 834.546,129.801 836.475,130.226 838.404,130.655 840.334,131.09 842.263,131.53 844.192,131.975 846.121,132.426 848.05,132.882 849.979,133.344 851.909,133.811 853.838,134.284 855.767,134.763 857.696,135.248 859.625,135.739 861.555,136.236 863.484,136.739 865.413,137.248 867.342,137.764 869.271,138.286 871.2,138.815 873.13,139.351 875.059,139.893 876.988,140.443 878.917,140.999 880.846,141.562 882.776,142.133 884.705,142.711 886.634,143.297 888.563,143.89 890.492,144.491 892.421,145.1 894.351,145.716 896.28,146.341 898.209,146.974 900.138,147.616 902.067,148.266 903.997,148.924 905.926,149.592 907.855,150.268 909.784,150.954 911.713,151.648 913.643,152.353 915.572,153.066 917.501,153.79 919.43,154.523 921.359,155.267 923.288,156.021 925.218,156.785 927.147,157.559 929.076,158.345 931.005,159.142 932.934,159.949 934.864,160.769 936.793,161.599 938.722,162.442 940.651,163.297 942.58,164.163 944.509,165.043 946.439,165.934 948.368,166.839 950.297,167.757 952.226,168.689 954.155,169.633 956.085,170.592 958.014,171.565 959.943,172.553 961.872,173.555 963.801,174.572 965.73,175.604 967.66,176.651 969.589,177.715 971.518,178.795 973.447,179.891 975.376,181.003 977.306,182.133 979.235,183.28 981.164,184.445 983.093,185.628 985.022,186.83 986.951,188.05 988.881,189.29 990.81,190.549 992.739,191.827 994.668,193.127 996.597,194.447 998.527,195.788 1000.46,197.15 1002.38,198.535 1004.31,199.942 1006.24,201.373 1008.17,202.826 1010.1,204.304 1012.03,205.805 1013.96,207.332 1015.89,208.884 1017.82,210.462 1019.75,212.067 1021.68,213.699 1023.61,215.358 1025.54,217.045 1027.46,218.762 1029.39,220.507 1031.32,222.283 1033.25,224.09 1035.18,225.928 1037.11,227.798 1039.04,229.7 1040.97,231.636 1042.9,233.607 1044.83,235.612 1046.76,237.653 1048.69,239.731 1050.61,241.846 1052.54,243.999 1054.47,246.192 1056.4,248.424 1058.33,250.697 1060.26,253.012 1062.19,255.37 1064.12,257.771 1066.05,260.217 1067.98,262.709 1069.91,265.247 1071.84,267.834 1073.76,270.469 1075.69,273.155 1077.62,275.891 1079.55,278.681 1081.48,281.524 1083.41,284.422 1085.34,287.376 1087.27,290.388 1089.2,293.459 1091.13,296.59 1093.06,299.783 1094.99,303.04 1096.91,306.361 1098.84,309.749 1100.77,313.205 1102.7,316.73 1104.63,320.327 1106.56,323.996 1108.49,327.741 1110.42,331.562 1112.35,335.461 1114.28,339.441 1116.21,343.503 1118.14,347.65 1120.07,351.883 1121.99,356.204 1123.92,360.616 1125.85,365.121 1127.78,369.721 1129.71,374.419 1131.64,379.216 1133.57,384.115 1135.5,389.119 1137.43,394.231 1139.36,399.452 1141.29,404.785 1143.22,410.234 1145.14,415.8 1147.07,421.487 1149,427.298 1150.93,433.235 1152.86,439.301 1154.79,445.5 1156.72,451.834 1158.65,458.307 1160.58,464.921 1162.51,471.681 1164.44,478.589 1166.37,485.648 1168.29,492.862 1170.22,500.234 1172.15,507.767 1174.08,515.465 1176.01,523.332 1177.94,531.369 1179.87,539.582 1181.8,547.974 1183.73,556.547 1185.66,565.305 1187.59,574.251 1189.52,583.389 1191.45,592.721 1193.37,602.252 1195.3,611.983 1197.23,621.917 1199.16,632.058 1201.09,642.407 1203.02,652.968 1204.95,663.742 1206.88,674.731 1208.81,685.937 1210.74,697.362 1212.67,709.005 1214.6,720.869 1216.52,732.953 1218.45,745.257 1220.38,757.781 1222.31,770.523 1224.24,783.481 1226.17,796.655 1228.1,810.039 1230.03,823.632 1231.96,837.428 1233.89,851.422 1235.82,865.608 1237.75,879.979 1239.67,894.527 1241.6,909.243 1243.53,924.116 1245.46,939.137 1247.39,954.291 1249.32,969.565 1251.25,984.945 1253.18,1000.41 1255.11,1015.95 1257.04,1031.55 1258.97,1047.17 1260.9,1062.8 1262.82,1078.42 1264.75,1094 1266.68,1109.51 1268.61,1124.93 1270.54,1140.22 1272.47,1155.36 1274.4,1170.32 1276.33,1185.06 1278.26,1199.54 1280.19,1213.74 1282.12,1227.62 1284.05,1241.14 1285.98,1254.26 1287.9,1266.94 1289.83,1279.16 1291.76,1290.87 1293.69,1302.04 1295.62,1312.63 1297.55,1322.6 1299.48,1331.93 1301.41,1340.58 1303.34,1348.52 1305.27,1355.72 1307.2,1362.16 1309.13,1367.82 1311.05,1372.66 1312.98,1376.68 1314.91,1379.86 1316.84,1382.18 1318.77,1383.64 1320.7,1384.24 1322.63,1383.97 1324.56,1382.83 1326.49,1380.83 1328.42,1377.97 1330.35,1374.28 1332.28,1369.76 1334.2,1364.43 1336.13,1358.32 1338.06,1351.44 1339.99,1343.82 1341.92,1335.5 1343.85,1326.49 1345.78,1316.84 1347.71,1306.57 1349.64,1295.72 1351.57,1284.32 1353.5,1272.42 1355.43,1260.05 1357.35,1247.24 1359.28,1234.03 1361.21,1220.46 1363.14,1206.56 1365.07,1192.37 1367,1177.92 1368.93,1163.25 1370.86,1148.39 1372.79,1133.37 1374.72,1118.22 1376.65,1102.98 1378.58,1087.66 1380.51,1072.29 1382.43,1056.9 1384.36,1041.52 1386.29,1026.16 1388.22,1010.84 1390.15,995.586 1392.08,980.414 1394.01,965.339 1395.94,950.377 1397.87,935.541 1399.8,920.844 1401.73,906.296 1403.66,891.909 1405.58,877.691 1407.51,863.65 1409.44,849.793 1411.37,836.128 1413.3,822.658 1415.23,809.388 1417.16,796.323 1419.09,783.465 1421.02,770.817 1422.95,758.38 1424.88,746.157 1426.81,734.147 1428.73,722.351 1430.66,710.769 1432.59,699.4 1434.52,688.243 1436.45,677.298 1438.38,666.563 1440.31,656.036 1442.24,645.715 1444.17,635.598 1446.1,625.682 1448.03,615.965 1449.96,606.445 1451.88,597.118 1453.81,587.982 1455.74,579.033 1457.67,570.269 1459.6,561.686 1461.53,553.281 1463.46,545.052 1465.39,536.994 1467.32,529.105 1469.25,521.382 1471.18,513.82 1473.11,506.417 1475.04,499.169 1476.96,492.074 1478.89,485.129 1480.82,478.329 1482.75,471.672 1484.68,465.154 1486.61,458.774 1488.54,452.527 1490.47,446.411 1492.4,440.422 1494.33,434.559 1496.26,428.818 1498.19,423.196 1500.11,417.69 1502.04,412.299 1503.97,407.018 1505.9,401.847 1507.83,396.781 1509.76,391.82 1511.69,386.959 1513.62,382.198 1515.55,377.533 1517.48,372.963 1519.41,368.485 1521.34,364.096 1523.26,359.796 1525.19,355.582 1527.12,351.451 1529.05,347.402 1530.98,343.434 1532.91,339.543 1534.84,335.728 1536.77,331.989 1538.7,328.321 1540.63,324.725 1542.56,321.198 1544.49,317.74 1546.41,314.347 1548.34,311.019 1550.27,307.754 1552.2,304.551 1554.13,301.408 1556.06,298.324 1557.99,295.298 1559.92,292.328 1561.85,289.413 1563.78,286.551 1565.71,283.743 1567.64,280.985 1569.57,278.278 1571.49,275.62 1573.42,273.01 1575.35,270.446 1577.28,267.929 1579.21,265.456 1581.14,263.027 1583.07,260.641 1585,258.297 1586.93,255.994 1588.86,253.731 1590.79,251.507 1592.72,249.321 1594.64,247.173 1596.57,245.062 1598.5,242.987 1600.43,240.947 1602.36,238.941 1604.29,236.97 1606.22,235.031 1608.15,233.124 1610.08,231.249 1612.01,229.405 1613.94,227.591 1615.87,225.807 1617.79,224.052 1619.72,222.325 1621.65,220.626 1623.58,218.955 1625.51,217.31 1627.44,215.691 1629.37,214.098 1631.3,212.53 1633.23,210.987 1635.16,209.468 1637.09,207.973 1639.02,206.501 1640.94,205.051 1642.87,203.624 1644.8,202.219 1646.73,200.835 1648.66,199.472 1650.59,198.129 1652.52,196.807 1654.45,195.505 1656.38,194.222 1658.31,192.958 1660.24,191.712 1662.17,190.485 1664.1,189.276 1666.02,188.085 1667.95,186.911 1669.88,185.754 1671.81,184.613 1673.74,183.489 1675.67,182.381 1677.6,181.289 1679.53,180.212 1681.46,179.151 1683.39,178.104 1685.32,177.072 1687.25,176.054 1689.17,175.051 1691.1,174.061 1693.03,173.085 1694.96,172.122 1696.89,171.172 1698.82,170.235 1700.75,169.311 1702.68,168.4 1704.61,167.5 1706.54,166.613 1708.47,165.737 1710.4,164.873 1712.32,164.02 1714.25,163.179 1716.18,162.349 1718.11,161.529 1720.04,160.72 1721.97,159.922 1723.9,159.133 1725.83,158.355 1727.76,157.587 1729.69,156.829 1731.62,156.08 1733.55,155.341 1735.47,154.611 1737.4,153.89 1739.33,153.178 1741.26,152.475 1743.19,151.781 1745.12,151.095 1747.05,150.417 1748.98,149.748 1750.91,149.088 1752.84,148.435 1754.77,147.79 1756.7,147.153 1758.63,146.523 1760.55,145.901 1762.48,145.286 1764.41,144.679 1766.34,144.079 1768.27,143.486 1770.2,142.9 1772.13,142.321 1774.06,141.748 1775.99,141.182 1777.92,140.623 1779.85,140.07 1781.78,139.524 1783.7,138.983 1785.63,138.449 1787.56,137.921 1789.49,137.399 1791.42,136.883 1793.35,136.373 1795.28,135.868 1797.21,135.369 1799.14,134.876 1801.07,134.388 1803,133.905 1804.93,133.428 1806.85,132.956 1808.78,132.489 1810.71,132.027 1812.64,131.57 1814.57,131.118 1816.5,130.671 1818.43,130.229 1820.36,129.791 1822.29,129.358 1824.22,128.93 1826.15,128.506 1828.08,128.087 1830,127.672 1831.93,127.262 1833.86,126.855 1835.79,126.453 1837.72,126.055 1839.65,125.662 1841.58,125.272 1843.51,124.886 1845.44,124.505 1847.37,124.127 1849.3,123.753 1851.23,123.383 1853.16,123.016 1855.08,122.653 1857.01,122.294 1858.94,121.939 1860.87,121.587 1862.8,121.238 1864.73,120.893 1866.66,120.551 1868.59,120.213 1870.52,119.878 1872.45,119.546 1874.38,119.218 1876.31,118.892 1878.23,118.57 1880.16,118.251 1882.09,117.935 1884.02,117.622 1885.95,117.312 1887.88,117.005 1889.81,116.701 1891.74,116.4 1893.67,116.102 1895.6,115.806 1897.53,115.513 1899.46,115.223 1901.38,114.936 1903.31,114.651 1905.24,114.369 1907.17,114.09 1909.1,113.813 1911.03,113.538 1912.96,113.267 1914.89,112.997 1916.82,112.73 1918.75,112.466 1920.68,112.204 1922.61,111.944 1924.53,111.687 1926.46,111.432 1928.39,111.179 1930.32,110.928 1932.25,110.68 1934.18,110.434 1936.11,110.19 1938.04,109.948 1939.97,109.708 1941.9,109.471 1943.83,109.235 1945.76,109.002 1947.69,108.77 1949.61,108.541 1951.54,108.314 1953.47,108.088 1955.4,107.865 1957.33,107.643 1959.26,107.423 1961.19,107.205 1963.12,106.989 1965.05,106.775 1966.98,106.563 1968.91,106.352 1970.84,106.143 1972.76,105.936 1974.69,105.731 1976.62,105.527 1978.55,105.325 1980.48,105.125 1982.41,104.926 1984.34,104.729 1986.27,104.534 1988.2,104.34 1990.13,104.147 1992.06,103.957 1993.99,103.768 1995.91,103.58 1997.84,103.394 1999.77,103.209 2001.7,103.026 2003.63,102.845 2005.56,102.665 2007.49,102.486 2009.42,102.308 2011.35,102.133 2013.28,101.958 2015.21,101.785 2017.14,101.613 2019.06,101.443 2020.99,101.274 2022.92,101.106 2024.85,100.939 2026.78,100.774 2028.71,100.61 2030.64,100.447 2032.57,100.286 2034.5,100.126 2036.43,99.9669 2038.36,99.8092 2040.29,99.6527 2042.22,99.4974 2044.14,99.3432 2046.07,99.1902 2048,99.0384 2049.93,98.8877 2051.86,98.7381 2053.79,98.5897 2055.72,98.4424 2057.65,98.2961 2059.58,98.151 2061.51,98.0069 2063.44,97.8639 2065.37,97.722 2067.29,97.5811 2069.22,97.4412 2071.15,97.3024 2073.08,97.1645 2075.01,97.0277 2076.94,96.8919 2078.87,96.757 2080.8,96.6232 2082.73,96.4902 2084.66,96.3583 2086.59,96.2273 2088.52,96.0972 2090.44,95.9681 2092.37,95.8399 2094.3,95.7126 2096.23,95.5862 2098.16,95.4607 2100.09,95.3361 2102.02,95.2124 2103.95,95.0895 2105.88,94.9675 2107.81,94.8464 2109.74,94.7261 2111.67,94.6066 2113.59,94.488 2115.52,94.3702 2117.45,94.2532 2119.38,94.137 2121.31,94.0216 2123.24,93.907 2125.17,93.7932 2127.1,93.6802 2129.03,93.5679 2130.96,93.4565 2132.89,93.3457 2134.82,93.2358 2136.75,93.1265 2138.67,93.018 2140.6,92.9103 2142.53,92.8032 2144.46,92.6969 2146.39,92.5913 2148.32,92.4864 2150.25,92.3822 2152.18,92.2787 2154.11,92.1758 2156.04,92.0737 2157.97,91.9722 2159.9,91.8714 2161.82,91.7713 2163.75,91.6718 2165.68,91.573 2167.61,91.4748 2169.54,91.3772 2171.47,91.2803 2173.4,91.184 2175.33,91.0884 2177.26,90.9934 2179.19,90.8989 2181.12,90.8051 2183.05,90.7119 2184.97,90.6193 2186.9,90.5273 2188.83,90.4358 2190.76,90.345 2192.69,90.2547 2194.62,90.165 2196.55,90.0759 2198.48,89.9873 2200.41,89.8993 2202.34,89.8119 2204.27,89.725 2206.2,89.6386 2208.12,89.5528 2210.05,89.4675 2211.98,89.3828 2213.91,89.2985 2215.84,89.2148 2217.77,89.1317 2219.7,89.049 2221.63,88.9668 2223.56,88.8852 2225.49,88.804 2227.42,88.7234 2229.35,88.6432 2231.28,88.5636 2233.2,88.4844 2235.13,88.4057 2237.06,88.3275 2238.99,88.2497 2240.92,88.1725 2242.85,88.0956 2244.78,88.0193 2246.71,87.9434 2248.64,87.868 2250.57,87.793 2252.5,87.7185 2254.43,87.6444 2256.35,87.5708 2258.28,87.4976 2260.21,87.4248 2262.14,87.3525 2264.07,87.2806 2266,87.2091 2267.93,87.138 2269.86,87.0674 2271.79,86.9971 2273.72,86.9273 2275.65,86.8579 2277.58,86.7889 2279.5,86.7203 2281.43,86.6521 2283.36,86.5843 2285.29,86.5169 2287.22,86.4499 2289.15,86.3833 2291.08,86.317 2293.01,86.2512 2294.94,86.1857 "/>
<polyline clip-path="url(#clip472)" style="stroke:#ff0000; stroke-linecap:round; stroke-linejoin:round; stroke-width:4; stroke-opacity:1; fill:none" points="1234.95,2799.12 1234.95,-1328.69 "/>
<polyline clip-path="url(#clip472)" style="stroke:#ff0000; stroke-linecap:round; stroke-linejoin:round; stroke-width:4; stroke-opacity:1; fill:none" points="1427.67,2799.12 1427.67,-1328.69 "/>
</svg>
