<?xml version="1.0" encoding="utf-8"?>
<svg xmlns="http://www.w3.org/2000/svg" xmlns:xlink="http://www.w3.org/1999/xlink" width="600" height="400" viewBox="0 0 2400 1600">
<defs>
  <clipPath id="clip310">
    <rect x="0" y="0" width="2400" height="1600"/>
  </clipPath>
</defs>
<path clip-path="url(#clip310)" d="M0 1600 L2400 1600 L2400 0 L0 0  Z" fill="#ffffff" fill-rule="evenodd" fill-opacity="1"/>
<defs>
  <clipPath id="clip311">
    <rect x="480" y="0" width="1681" height="1600"/>
  </clipPath>
</defs>
<path clip-path="url(#clip310)" d="M264.287 1423.18 L2352.76 1423.18 L2352.76 47.2441 L264.287 47.2441  Z" fill="#ffffff" fill-rule="evenodd" fill-opacity="1"/>
<defs>
  <clipPath id="clip312">
    <rect x="264" y="47" width="2089" height="1377"/>
  </clipPath>
</defs>
<polyline clip-path="url(#clip312)" style="stroke:#000000; stroke-linecap:round; stroke-linejoin:round; stroke-width:2; stroke-opacity:0.1; fill:none" points="520.42,1423.18 520.42,47.2441 "/>
<polyline clip-path="url(#clip312)" style="stroke:#000000; stroke-linecap:round; stroke-linejoin:round; stroke-width:2; stroke-opacity:0.1; fill:none" points="914.471,1423.18 914.471,47.2441 "/>
<polyline clip-path="url(#clip312)" style="stroke:#000000; stroke-linecap:round; stroke-linejoin:round; stroke-width:2; stroke-opacity:0.1; fill:none" points="1308.52,1423.18 1308.52,47.2441 "/>
<polyline clip-path="url(#clip312)" style="stroke:#000000; stroke-linecap:round; stroke-linejoin:round; stroke-width:2; stroke-opacity:0.1; fill:none" points="1702.57,1423.18 1702.57,47.2441 "/>
<polyline clip-path="url(#clip312)" style="stroke:#000000; stroke-linecap:round; stroke-linejoin:round; stroke-width:2; stroke-opacity:0.1; fill:none" points="2096.62,1423.18 2096.62,47.2441 "/>
<polyline clip-path="url(#clip312)" style="stroke:#000000; stroke-linecap:round; stroke-linejoin:round; stroke-width:2; stroke-opacity:0.1; fill:none" points="264.287,1384.64 2352.76,1384.64 "/>
<polyline clip-path="url(#clip312)" style="stroke:#000000; stroke-linecap:round; stroke-linejoin:round; stroke-width:2; stroke-opacity:0.1; fill:none" points="264.287,1062.35 2352.76,1062.35 "/>
<polyline clip-path="url(#clip312)" style="stroke:#000000; stroke-linecap:round; stroke-linejoin:round; stroke-width:2; stroke-opacity:0.1; fill:none" points="264.287,740.054 2352.76,740.054 "/>
<polyline clip-path="url(#clip312)" style="stroke:#000000; stroke-linecap:round; stroke-linejoin:round; stroke-width:2; stroke-opacity:0.1; fill:none" points="264.287,417.76 2352.76,417.76 "/>
<polyline clip-path="url(#clip312)" style="stroke:#000000; stroke-linecap:round; stroke-linejoin:round; stroke-width:2; stroke-opacity:0.1; fill:none" points="264.287,95.4667 2352.76,95.4667 "/>
<polyline clip-path="url(#clip310)" style="stroke:#000000; stroke-linecap:round; stroke-linejoin:round; stroke-width:4; stroke-opacity:1; fill:none" points="264.287,1423.18 2352.76,1423.18 "/>
<polyline clip-path="url(#clip310)" style="stroke:#000000; stroke-linecap:round; stroke-linejoin:round; stroke-width:4; stroke-opacity:1; fill:none" points="520.42,1423.18 520.42,1404.28 "/>
<polyline clip-path="url(#clip310)" style="stroke:#000000; stroke-linecap:round; stroke-linejoin:round; stroke-width:4; stroke-opacity:1; fill:none" points="914.471,1423.18 914.471,1404.28 "/>
<polyline clip-path="url(#clip310)" style="stroke:#000000; stroke-linecap:round; stroke-linejoin:round; stroke-width:4; stroke-opacity:1; fill:none" points="1308.52,1423.18 1308.52,1404.28 "/>
<polyline clip-path="url(#clip310)" style="stroke:#000000; stroke-linecap:round; stroke-linejoin:round; stroke-width:4; stroke-opacity:1; fill:none" points="1702.57,1423.18 1702.57,1404.28 "/>
<polyline clip-path="url(#clip310)" style="stroke:#000000; stroke-linecap:round; stroke-linejoin:round; stroke-width:4; stroke-opacity:1; fill:none" points="2096.62,1423.18 2096.62,1404.28 "/>
<path clip-path="url(#clip310)" d="M476.497 1481.64 L492.816 1481.64 L492.816 1485.58 L470.872 1485.58 L470.872 1481.64 Q473.534 1478.89 478.117 1474.26 Q482.724 1469.61 483.904 1468.27 Q486.15 1465.74 487.029 1464.01 Q487.932 1462.25 487.932 1460.56 Q487.932 1457.8 485.988 1456.07 Q484.066 1454.33 480.964 1454.33 Q478.765 1454.33 476.312 1455.09 Q473.881 1455.86 471.103 1457.41 L471.103 1452.69 Q473.927 1451.55 476.381 1450.97 Q478.835 1450.39 480.872 1450.39 Q486.242 1450.39 489.437 1453.08 Q492.631 1455.77 492.631 1460.26 Q492.631 1462.39 491.821 1464.31 Q491.034 1466.2 488.927 1468.8 Q488.349 1469.47 485.247 1472.69 Q482.145 1475.88 476.497 1481.64 Z" fill="#000000" fill-rule="nonzero" fill-opacity="1" /><path clip-path="url(#clip310)" d="M513.21 1466.44 Q510.062 1466.44 508.21 1468.59 Q506.381 1470.74 506.381 1474.49 Q506.381 1478.22 508.21 1480.39 Q510.062 1482.55 513.21 1482.55 Q516.358 1482.55 518.186 1480.39 Q520.038 1478.22 520.038 1474.49 Q520.038 1470.74 518.186 1468.59 Q516.358 1466.44 513.21 1466.44 M522.492 1451.78 L522.492 1456.04 Q520.733 1455.21 518.927 1454.77 Q517.145 1454.33 515.386 1454.33 Q510.756 1454.33 508.302 1457.45 Q505.872 1460.58 505.525 1466.9 Q506.89 1464.89 508.95 1463.82 Q511.011 1462.73 513.487 1462.73 Q518.696 1462.73 521.705 1465.9 Q524.737 1469.05 524.737 1474.49 Q524.737 1479.82 521.589 1483.03 Q518.441 1486.25 513.21 1486.25 Q507.214 1486.25 504.043 1481.67 Q500.872 1477.06 500.872 1468.33 Q500.872 1460.14 504.761 1455.28 Q508.649 1450.39 515.2 1450.39 Q516.96 1450.39 518.742 1450.74 Q520.548 1451.09 522.492 1451.78 Z" fill="#000000" fill-rule="nonzero" fill-opacity="1" /><path clip-path="url(#clip310)" d="M532.793 1479.7 L537.677 1479.7 L537.677 1485.58 L532.793 1485.58 L532.793 1479.7 Z" fill="#000000" fill-rule="nonzero" fill-opacity="1" /><path clip-path="url(#clip310)" d="M558.441 1466.44 Q555.293 1466.44 553.441 1468.59 Q551.612 1470.74 551.612 1474.49 Q551.612 1478.22 553.441 1480.39 Q555.293 1482.55 558.441 1482.55 Q561.589 1482.55 563.418 1480.39 Q565.27 1478.22 565.27 1474.49 Q565.27 1470.74 563.418 1468.59 Q561.589 1466.44 558.441 1466.44 M567.723 1451.78 L567.723 1456.04 Q565.964 1455.21 564.158 1454.77 Q562.376 1454.33 560.617 1454.33 Q555.987 1454.33 553.534 1457.45 Q551.103 1460.58 550.756 1466.9 Q552.121 1464.89 554.182 1463.82 Q556.242 1462.73 558.719 1462.73 Q563.927 1462.73 566.936 1465.9 Q569.969 1469.05 569.969 1474.49 Q569.969 1479.82 566.82 1483.03 Q563.672 1486.25 558.441 1486.25 Q552.446 1486.25 549.274 1481.67 Q546.103 1477.06 546.103 1468.33 Q546.103 1460.14 549.992 1455.28 Q553.881 1450.39 560.432 1450.39 Q562.191 1450.39 563.973 1450.74 Q565.779 1451.09 567.723 1451.78 Z" fill="#000000" fill-rule="nonzero" fill-opacity="1" /><path clip-path="url(#clip310)" d="M870.675 1481.64 L886.994 1481.64 L886.994 1485.58 L865.05 1485.58 L865.05 1481.64 Q867.712 1478.89 872.295 1474.26 Q876.902 1469.61 878.082 1468.27 Q880.328 1465.74 881.207 1464.01 Q882.11 1462.25 882.11 1460.56 Q882.11 1457.8 880.166 1456.07 Q878.244 1454.33 875.142 1454.33 Q872.943 1454.33 870.49 1455.09 Q868.059 1455.86 865.281 1457.41 L865.281 1452.69 Q868.105 1451.55 870.559 1450.97 Q873.013 1450.39 875.05 1450.39 Q880.42 1450.39 883.615 1453.08 Q886.809 1455.77 886.809 1460.26 Q886.809 1462.39 885.999 1464.31 Q885.212 1466.2 883.105 1468.8 Q882.527 1469.47 879.425 1472.69 Q876.323 1475.88 870.675 1481.64 Z" fill="#000000" fill-rule="nonzero" fill-opacity="1" /><path clip-path="url(#clip310)" d="M907.388 1466.44 Q904.24 1466.44 902.388 1468.59 Q900.559 1470.74 900.559 1474.49 Q900.559 1478.22 902.388 1480.39 Q904.24 1482.55 907.388 1482.55 Q910.536 1482.55 912.364 1480.39 Q914.216 1478.22 914.216 1474.49 Q914.216 1470.74 912.364 1468.59 Q910.536 1466.44 907.388 1466.44 M916.67 1451.78 L916.67 1456.04 Q914.911 1455.21 913.105 1454.77 Q911.323 1454.33 909.564 1454.33 Q904.934 1454.33 902.48 1457.45 Q900.05 1460.58 899.702 1466.9 Q901.068 1464.89 903.128 1463.82 Q905.189 1462.73 907.665 1462.73 Q912.874 1462.73 915.883 1465.9 Q918.915 1469.05 918.915 1474.49 Q918.915 1479.82 915.767 1483.03 Q912.619 1486.25 907.388 1486.25 Q901.392 1486.25 898.221 1481.67 Q895.05 1477.06 895.05 1468.33 Q895.05 1460.14 898.939 1455.28 Q902.827 1450.39 909.378 1450.39 Q911.138 1450.39 912.92 1450.74 Q914.726 1451.09 916.67 1451.78 Z" fill="#000000" fill-rule="nonzero" fill-opacity="1" /><path clip-path="url(#clip310)" d="M926.971 1479.7 L931.855 1479.7 L931.855 1485.58 L926.971 1485.58 L926.971 1479.7 Z" fill="#000000" fill-rule="nonzero" fill-opacity="1" /><path clip-path="url(#clip310)" d="M952.04 1469.17 Q948.707 1469.17 946.786 1470.95 Q944.887 1472.73 944.887 1475.86 Q944.887 1478.98 946.786 1480.77 Q948.707 1482.55 952.04 1482.55 Q955.373 1482.55 957.295 1480.77 Q959.216 1478.96 959.216 1475.86 Q959.216 1472.73 957.295 1470.95 Q955.397 1469.17 952.04 1469.17 M947.364 1467.18 Q944.355 1466.44 942.665 1464.38 Q940.999 1462.32 940.999 1459.35 Q940.999 1455.21 943.938 1452.8 Q946.901 1450.39 952.04 1450.39 Q957.202 1450.39 960.142 1452.8 Q963.082 1455.21 963.082 1459.35 Q963.082 1462.32 961.392 1464.38 Q959.725 1466.44 956.739 1467.18 Q960.119 1467.96 961.994 1470.26 Q963.892 1472.55 963.892 1475.86 Q963.892 1480.88 960.813 1483.57 Q957.758 1486.25 952.04 1486.25 Q946.323 1486.25 943.244 1483.57 Q940.188 1480.88 940.188 1475.86 Q940.188 1472.55 942.087 1470.26 Q943.985 1467.96 947.364 1467.18 M945.651 1459.79 Q945.651 1462.48 947.318 1463.98 Q949.008 1465.49 952.04 1465.49 Q955.049 1465.49 956.739 1463.98 Q958.452 1462.48 958.452 1459.79 Q958.452 1457.11 956.739 1455.6 Q955.049 1454.1 952.04 1454.1 Q949.008 1454.1 947.318 1455.6 Q945.651 1457.11 945.651 1459.79 Z" fill="#000000" fill-rule="nonzero" fill-opacity="1" /><path clip-path="url(#clip310)" d="M1264.68 1481.64 L1281 1481.64 L1281 1485.58 L1259.05 1485.58 L1259.05 1481.64 Q1261.72 1478.89 1266.3 1474.26 Q1270.91 1469.61 1272.09 1468.27 Q1274.33 1465.74 1275.21 1464.01 Q1276.11 1462.25 1276.11 1460.56 Q1276.11 1457.8 1274.17 1456.07 Q1272.25 1454.33 1269.15 1454.33 Q1266.95 1454.33 1264.49 1455.09 Q1262.06 1455.86 1259.29 1457.41 L1259.29 1452.69 Q1262.11 1451.55 1264.56 1450.97 Q1267.02 1450.39 1269.05 1450.39 Q1274.42 1450.39 1277.62 1453.08 Q1280.81 1455.77 1280.81 1460.26 Q1280.81 1462.39 1280 1464.31 Q1279.22 1466.2 1277.11 1468.8 Q1276.53 1469.47 1273.43 1472.69 Q1270.33 1475.88 1264.68 1481.64 Z" fill="#000000" fill-rule="nonzero" fill-opacity="1" /><path clip-path="url(#clip310)" d="M1289.63 1451.02 L1311.85 1451.02 L1311.85 1453.01 L1299.31 1485.58 L1294.42 1485.58 L1306.23 1454.96 L1289.63 1454.96 L1289.63 1451.02 Z" fill="#000000" fill-rule="nonzero" fill-opacity="1" /><path clip-path="url(#clip310)" d="M1320.98 1479.7 L1325.86 1479.7 L1325.86 1485.58 L1320.98 1485.58 L1320.98 1479.7 Z" fill="#000000" fill-rule="nonzero" fill-opacity="1" /><path clip-path="url(#clip310)" d="M1346.04 1454.1 Q1342.43 1454.1 1340.6 1457.66 Q1338.8 1461.2 1338.8 1468.33 Q1338.8 1475.44 1340.6 1479.01 Q1342.43 1482.55 1346.04 1482.55 Q1349.68 1482.55 1351.48 1479.01 Q1353.31 1475.44 1353.31 1468.33 Q1353.31 1461.2 1351.48 1457.66 Q1349.68 1454.1 1346.04 1454.1 M1346.04 1450.39 Q1351.85 1450.39 1354.91 1455 Q1357.99 1459.58 1357.99 1468.33 Q1357.99 1477.06 1354.91 1481.67 Q1351.85 1486.25 1346.04 1486.25 Q1340.23 1486.25 1337.16 1481.67 Q1334.1 1477.06 1334.1 1468.33 Q1334.1 1459.58 1337.16 1455 Q1340.23 1450.39 1346.04 1450.39 Z" fill="#000000" fill-rule="nonzero" fill-opacity="1" /><path clip-path="url(#clip310)" d="M1659.53 1481.64 L1675.85 1481.64 L1675.85 1485.58 L1653.9 1485.58 L1653.9 1481.64 Q1656.57 1478.89 1661.15 1474.26 Q1665.76 1469.61 1666.94 1468.27 Q1669.18 1465.74 1670.06 1464.01 Q1670.96 1462.25 1670.96 1460.56 Q1670.96 1457.8 1669.02 1456.07 Q1667.1 1454.33 1664 1454.33 Q1661.8 1454.33 1659.34 1455.09 Q1656.91 1455.86 1654.14 1457.41 L1654.14 1452.69 Q1656.96 1451.55 1659.41 1450.97 Q1661.87 1450.39 1663.9 1450.39 Q1669.27 1450.39 1672.47 1453.08 Q1675.66 1455.77 1675.66 1460.26 Q1675.66 1462.39 1674.85 1464.31 Q1674.07 1466.2 1671.96 1468.8 Q1671.38 1469.47 1668.28 1472.69 Q1665.18 1475.88 1659.53 1481.64 Z" fill="#000000" fill-rule="nonzero" fill-opacity="1" /><path clip-path="url(#clip310)" d="M1684.48 1451.02 L1706.7 1451.02 L1706.7 1453.01 L1694.16 1485.58 L1689.27 1485.58 L1701.08 1454.96 L1684.48 1454.96 L1684.48 1451.02 Z" fill="#000000" fill-rule="nonzero" fill-opacity="1" /><path clip-path="url(#clip310)" d="M1715.82 1479.7 L1720.71 1479.7 L1720.71 1485.58 L1715.82 1485.58 L1715.82 1479.7 Z" fill="#000000" fill-rule="nonzero" fill-opacity="1" /><path clip-path="url(#clip310)" d="M1734.92 1481.64 L1751.24 1481.64 L1751.24 1485.58 L1729.3 1485.58 L1729.3 1481.64 Q1731.96 1478.89 1736.54 1474.26 Q1741.15 1469.61 1742.33 1468.27 Q1744.57 1465.74 1745.45 1464.01 Q1746.36 1462.25 1746.36 1460.56 Q1746.36 1457.8 1744.41 1456.07 Q1742.49 1454.33 1739.39 1454.33 Q1737.19 1454.33 1734.74 1455.09 Q1732.31 1455.86 1729.53 1457.41 L1729.53 1452.69 Q1732.35 1451.55 1734.81 1450.97 Q1737.26 1450.39 1739.3 1450.39 Q1744.67 1450.39 1747.86 1453.08 Q1751.06 1455.77 1751.06 1460.26 Q1751.06 1462.39 1750.25 1464.31 Q1749.46 1466.2 1747.35 1468.8 Q1746.77 1469.47 1743.67 1472.69 Q1740.57 1475.88 1734.92 1481.64 Z" fill="#000000" fill-rule="nonzero" fill-opacity="1" /><path clip-path="url(#clip310)" d="M2052.54 1481.64 L2068.86 1481.64 L2068.86 1485.58 L2046.91 1485.58 L2046.91 1481.64 Q2049.57 1478.89 2054.16 1474.26 Q2058.76 1469.61 2059.94 1468.27 Q2062.19 1465.74 2063.07 1464.01 Q2063.97 1462.25 2063.97 1460.56 Q2063.97 1457.8 2062.03 1456.07 Q2060.11 1454.33 2057.01 1454.33 Q2054.81 1454.33 2052.35 1455.09 Q2049.92 1455.86 2047.14 1457.41 L2047.14 1452.69 Q2049.97 1451.55 2052.42 1450.97 Q2054.88 1450.39 2056.91 1450.39 Q2062.28 1450.39 2065.48 1453.08 Q2068.67 1455.77 2068.67 1460.26 Q2068.67 1462.39 2067.86 1464.31 Q2067.07 1466.2 2064.97 1468.8 Q2064.39 1469.47 2061.29 1472.69 Q2058.19 1475.88 2052.54 1481.64 Z" fill="#000000" fill-rule="nonzero" fill-opacity="1" /><path clip-path="url(#clip310)" d="M2077.49 1451.02 L2099.71 1451.02 L2099.71 1453.01 L2087.17 1485.58 L2082.28 1485.58 L2094.09 1454.96 L2077.49 1454.96 L2077.49 1451.02 Z" fill="#000000" fill-rule="nonzero" fill-opacity="1" /><path clip-path="url(#clip310)" d="M2108.83 1479.7 L2113.72 1479.7 L2113.72 1485.58 L2108.83 1485.58 L2108.83 1479.7 Z" fill="#000000" fill-rule="nonzero" fill-opacity="1" /><path clip-path="url(#clip310)" d="M2136.75 1455.09 L2124.94 1473.54 L2136.75 1473.54 L2136.75 1455.09 M2135.52 1451.02 L2141.4 1451.02 L2141.4 1473.54 L2146.33 1473.54 L2146.33 1477.43 L2141.4 1477.43 L2141.4 1485.58 L2136.75 1485.58 L2136.75 1477.43 L2121.15 1477.43 L2121.15 1472.92 L2135.52 1451.02 Z" fill="#000000" fill-rule="nonzero" fill-opacity="1" /><path clip-path="url(#clip310)" d="M1016.69 1520.52 L1043.99 1520.52 L1043.99 1525.93 L1023.12 1525.93 L1023.12 1539.94 L1041.96 1539.94 L1041.96 1545.35 L1023.12 1545.35 L1023.12 1568.04 L1016.69 1568.04 L1016.69 1520.52 Z" fill="#000000" fill-rule="nonzero" fill-opacity="1" /><path clip-path="url(#clip310)" d="M1069.84 1537.87 Q1068.85 1537.3 1067.68 1537.04 Q1066.53 1536.76 1065.13 1536.76 Q1060.16 1536.76 1057.49 1540 Q1054.85 1543.22 1054.85 1549.27 L1054.85 1568.04 L1048.96 1568.04 L1048.96 1532.4 L1054.85 1532.4 L1054.85 1537.93 Q1056.69 1534.69 1059.65 1533.13 Q1062.61 1531.54 1066.85 1531.54 Q1067.45 1531.54 1068.18 1531.63 Q1068.92 1531.7 1069.81 1531.85 L1069.84 1537.87 Z" fill="#000000" fill-rule="nonzero" fill-opacity="1" /><path clip-path="url(#clip310)" d="M1105.04 1548.76 L1105.04 1551.62 L1078.11 1551.62 Q1078.5 1557.67 1081.74 1560.85 Q1085.02 1564 1090.85 1564 Q1094.22 1564 1097.37 1563.17 Q1100.55 1562.35 1103.67 1560.69 L1103.67 1566.23 Q1100.52 1567.57 1097.21 1568.27 Q1093.9 1568.97 1090.5 1568.97 Q1081.97 1568.97 1076.97 1564 Q1072 1559.04 1072 1550.57 Q1072 1541.82 1076.71 1536.69 Q1081.46 1531.54 1089.48 1531.54 Q1096.67 1531.54 1100.84 1536.18 Q1105.04 1540.8 1105.04 1548.76 M1099.19 1547.04 Q1099.12 1542.23 1096.48 1539.37 Q1093.87 1536.5 1089.54 1536.5 Q1084.64 1536.5 1081.68 1539.27 Q1078.75 1542.04 1078.31 1547.07 L1099.19 1547.04 Z" fill="#000000" fill-rule="nonzero" fill-opacity="1" /><path clip-path="url(#clip310)" d="M1118.16 1550.25 Q1118.16 1556.71 1120.8 1560.4 Q1123.47 1564.07 1128.12 1564.07 Q1132.76 1564.07 1135.44 1560.4 Q1138.11 1556.71 1138.11 1550.25 Q1138.11 1543.79 1135.44 1540.13 Q1132.76 1536.44 1128.12 1536.44 Q1123.47 1536.44 1120.8 1540.13 Q1118.16 1543.79 1118.16 1550.25 M1138.11 1562.7 Q1136.27 1565.88 1133.43 1567.44 Q1130.63 1568.97 1126.69 1568.97 Q1120.22 1568.97 1116.15 1563.81 Q1112.11 1558.65 1112.11 1550.25 Q1112.11 1541.85 1116.15 1536.69 Q1120.22 1531.54 1126.69 1531.54 Q1130.63 1531.54 1133.43 1533.1 Q1136.27 1534.62 1138.11 1537.81 L1138.11 1532.4 L1143.97 1532.4 L1143.97 1581.6 L1138.11 1581.6 L1138.11 1562.7 Z" fill="#000000" fill-rule="nonzero" fill-opacity="1" /><path clip-path="url(#clip310)" d="M1155.43 1553.98 L1155.43 1532.4 L1161.28 1532.4 L1161.28 1553.75 Q1161.28 1558.81 1163.26 1561.36 Q1165.23 1563.87 1169.18 1563.87 Q1173.92 1563.87 1176.66 1560.85 Q1179.43 1557.83 1179.43 1552.61 L1179.43 1532.4 L1185.28 1532.4 L1185.28 1568.04 L1179.43 1568.04 L1179.43 1562.57 Q1177.29 1565.82 1174.46 1567.41 Q1171.66 1568.97 1167.93 1568.97 Q1161.79 1568.97 1158.61 1565.15 Q1155.43 1561.33 1155.43 1553.98 M1170.16 1531.54 L1170.16 1531.54 Z" fill="#000000" fill-rule="nonzero" fill-opacity="1" /><path clip-path="url(#clip310)" d="M1227.84 1548.76 L1227.84 1551.62 L1200.91 1551.62 Q1201.29 1557.67 1204.54 1560.85 Q1207.82 1564 1213.64 1564 Q1217.01 1564 1220.17 1563.17 Q1223.35 1562.35 1226.47 1560.69 L1226.47 1566.23 Q1223.32 1567.57 1220.01 1568.27 Q1216.7 1568.97 1213.29 1568.97 Q1204.76 1568.97 1199.76 1564 Q1194.8 1559.04 1194.8 1550.57 Q1194.8 1541.82 1199.51 1536.69 Q1204.25 1531.54 1212.27 1531.54 Q1219.47 1531.54 1223.63 1536.18 Q1227.84 1540.8 1227.84 1548.76 M1221.98 1547.04 Q1221.92 1542.23 1219.27 1539.37 Q1216.66 1536.5 1212.34 1536.5 Q1207.43 1536.5 1204.47 1539.27 Q1201.55 1542.04 1201.1 1547.07 L1221.98 1547.04 Z" fill="#000000" fill-rule="nonzero" fill-opacity="1" /><path clip-path="url(#clip310)" d="M1267.08 1546.53 L1267.08 1568.04 L1261.22 1568.04 L1261.22 1546.72 Q1261.22 1541.66 1259.25 1539.14 Q1257.28 1536.63 1253.33 1536.63 Q1248.59 1536.63 1245.85 1539.65 Q1243.11 1542.68 1243.11 1547.9 L1243.11 1568.04 L1237.23 1568.04 L1237.23 1532.4 L1243.11 1532.4 L1243.11 1537.93 Q1245.21 1534.72 1248.05 1533.13 Q1250.91 1531.54 1254.64 1531.54 Q1260.78 1531.54 1263.93 1535.36 Q1267.08 1539.14 1267.08 1546.53 Z" fill="#000000" fill-rule="nonzero" fill-opacity="1" /><path clip-path="url(#clip310)" d="M1304.42 1533.76 L1304.42 1539.24 Q1301.93 1537.87 1299.42 1537.2 Q1296.94 1536.5 1294.39 1536.5 Q1288.69 1536.5 1285.54 1540.13 Q1282.39 1543.73 1282.39 1550.25 Q1282.39 1556.78 1285.54 1560.4 Q1288.69 1564 1294.39 1564 Q1296.94 1564 1299.42 1563.33 Q1301.93 1562.63 1304.42 1561.26 L1304.42 1566.68 Q1301.96 1567.82 1299.32 1568.39 Q1296.71 1568.97 1293.75 1568.97 Q1285.7 1568.97 1280.96 1563.91 Q1276.22 1558.85 1276.22 1550.25 Q1276.22 1541.53 1280.99 1536.53 Q1285.8 1531.54 1294.14 1531.54 Q1296.84 1531.54 1299.42 1532.11 Q1302 1532.65 1304.42 1533.76 Z" fill="#000000" fill-rule="nonzero" fill-opacity="1" /><path clip-path="url(#clip310)" d="M1314.6 1532.4 L1320.46 1532.4 L1320.46 1568.04 L1314.6 1568.04 L1314.6 1532.4 M1314.6 1518.52 L1320.46 1518.52 L1320.46 1525.93 L1314.6 1525.93 L1314.6 1518.52 Z" fill="#000000" fill-rule="nonzero" fill-opacity="1" /><path clip-path="url(#clip310)" d="M1363.2 1548.76 L1363.2 1551.62 L1336.28 1551.62 Q1336.66 1557.67 1339.9 1560.85 Q1343.18 1564 1349.01 1564 Q1352.38 1564 1355.53 1563.17 Q1358.72 1562.35 1361.83 1560.69 L1361.83 1566.23 Q1358.68 1567.57 1355.37 1568.27 Q1352.06 1568.97 1348.66 1568.97 Q1340.13 1568.97 1335.13 1564 Q1330.17 1559.04 1330.17 1550.57 Q1330.17 1541.82 1334.88 1536.69 Q1339.62 1531.54 1347.64 1531.54 Q1354.83 1531.54 1359 1536.18 Q1363.2 1540.8 1363.2 1548.76 M1357.35 1547.04 Q1357.28 1542.23 1354.64 1539.37 Q1352.03 1536.5 1347.7 1536.5 Q1342.8 1536.5 1339.84 1539.27 Q1336.91 1542.04 1336.47 1547.07 L1357.35 1547.04 Z" fill="#000000" fill-rule="nonzero" fill-opacity="1" /><path clip-path="url(#clip310)" d="M1395.54 1533.45 L1395.54 1538.98 Q1393.06 1537.71 1390.38 1537.07 Q1387.71 1536.44 1384.85 1536.44 Q1380.49 1536.44 1378.29 1537.77 Q1376.13 1539.11 1376.13 1541.79 Q1376.13 1543.82 1377.69 1545 Q1379.24 1546.15 1383.96 1547.2 L1385.96 1547.64 Q1392.2 1548.98 1394.81 1551.43 Q1397.45 1553.85 1397.45 1558.21 Q1397.45 1563.17 1393.5 1566.07 Q1389.59 1568.97 1382.71 1568.97 Q1379.85 1568.97 1376.73 1568.39 Q1373.64 1567.85 1370.21 1566.74 L1370.21 1560.69 Q1373.45 1562.38 1376.6 1563.24 Q1379.75 1564.07 1382.84 1564.07 Q1386.98 1564.07 1389.21 1562.66 Q1391.43 1561.23 1391.43 1558.65 Q1391.43 1556.27 1389.81 1554.99 Q1388.22 1553.72 1382.78 1552.54 L1380.74 1552.07 Q1375.3 1550.92 1372.88 1548.56 Q1370.46 1546.18 1370.46 1542.04 Q1370.46 1537.01 1374.02 1534.27 Q1377.59 1531.54 1384.15 1531.54 Q1387.39 1531.54 1390.26 1532.01 Q1393.12 1532.49 1395.54 1533.45 Z" fill="#000000" fill-rule="nonzero" fill-opacity="1" /><path clip-path="url(#clip310)" d="M1426.96 1518.52 L1440.45 1518.52 L1440.45 1523.07 L1432.81 1523.07 L1432.81 1572.09 L1440.45 1572.09 L1440.45 1576.64 L1426.96 1576.64 L1426.96 1518.52 Z" fill="#000000" fill-rule="nonzero" fill-opacity="1" /><path clip-path="url(#clip310)" d="M1485.58 1561.26 L1485.58 1548.5 L1475.08 1548.5 L1475.08 1543.22 L1491.95 1543.22 L1491.95 1563.62 Q1488.23 1566.26 1483.74 1567.63 Q1479.25 1568.97 1474.16 1568.97 Q1463.02 1568.97 1456.72 1562.47 Q1450.45 1555.95 1450.45 1544.33 Q1450.45 1532.68 1456.72 1526.19 Q1463.02 1519.66 1474.16 1519.66 Q1478.8 1519.66 1482.97 1520.81 Q1487.18 1521.96 1490.71 1524.18 L1490.71 1531.03 Q1487.14 1528 1483.13 1526.48 Q1479.12 1524.95 1474.7 1524.95 Q1465.98 1524.95 1461.59 1529.82 Q1457.22 1534.69 1457.22 1544.33 Q1457.22 1553.94 1461.59 1558.81 Q1465.98 1563.68 1474.7 1563.68 Q1478.1 1563.68 1480.78 1563.11 Q1483.45 1562.51 1485.58 1561.26 Z" fill="#000000" fill-rule="nonzero" fill-opacity="1" /><path clip-path="url(#clip310)" d="M1503.69 1520.52 L1510.12 1520.52 L1510.12 1540 L1533.49 1540 L1533.49 1520.52 L1539.92 1520.52 L1539.92 1568.04 L1533.49 1568.04 L1533.49 1545.41 L1510.12 1545.41 L1510.12 1568.04 L1503.69 1568.04 L1503.69 1520.52 Z" fill="#000000" fill-rule="nonzero" fill-opacity="1" /><path clip-path="url(#clip310)" d="M1549.91 1532.4 L1577.73 1532.4 L1577.73 1537.74 L1555.7 1563.37 L1577.73 1563.37 L1577.73 1568.04 L1549.11 1568.04 L1549.11 1562.7 L1571.14 1537.07 L1549.91 1537.07 L1549.91 1532.4 Z" fill="#000000" fill-rule="nonzero" fill-opacity="1" /><path clip-path="url(#clip310)" d="M1600.36 1518.52 L1600.36 1576.64 L1586.86 1576.64 L1586.86 1572.09 L1594.47 1572.09 L1594.47 1523.07 L1586.86 1523.07 L1586.86 1518.52 L1600.36 1518.52 Z" fill="#000000" fill-rule="nonzero" fill-opacity="1" /><polyline clip-path="url(#clip310)" style="stroke:#000000; stroke-linecap:round; stroke-linejoin:round; stroke-width:4; stroke-opacity:1; fill:none" points="264.287,1423.18 264.287,47.2441 "/>
<polyline clip-path="url(#clip310)" style="stroke:#000000; stroke-linecap:round; stroke-linejoin:round; stroke-width:4; stroke-opacity:1; fill:none" points="264.287,1384.64 283.185,1384.64 "/>
<polyline clip-path="url(#clip310)" style="stroke:#000000; stroke-linecap:round; stroke-linejoin:round; stroke-width:4; stroke-opacity:1; fill:none" points="264.287,1062.35 283.185,1062.35 "/>
<polyline clip-path="url(#clip310)" style="stroke:#000000; stroke-linecap:round; stroke-linejoin:round; stroke-width:4; stroke-opacity:1; fill:none" points="264.287,740.054 283.185,740.054 "/>
<polyline clip-path="url(#clip310)" style="stroke:#000000; stroke-linecap:round; stroke-linejoin:round; stroke-width:4; stroke-opacity:1; fill:none" points="264.287,417.76 283.185,417.76 "/>
<polyline clip-path="url(#clip310)" style="stroke:#000000; stroke-linecap:round; stroke-linejoin:round; stroke-width:4; stroke-opacity:1; fill:none" points="264.287,95.4667 283.185,95.4667 "/>
<path clip-path="url(#clip310)" d="M216.343 1370.44 Q212.732 1370.44 210.903 1374 Q209.098 1377.55 209.098 1384.68 Q209.098 1391.78 210.903 1395.35 Q212.732 1398.89 216.343 1398.89 Q219.977 1398.89 221.783 1395.35 Q223.611 1391.78 223.611 1384.68 Q223.611 1377.55 221.783 1374 Q219.977 1370.44 216.343 1370.44 M216.343 1366.74 Q222.153 1366.74 225.209 1371.34 Q228.287 1375.93 228.287 1384.68 Q228.287 1393.4 225.209 1398.01 Q222.153 1402.59 216.343 1402.59 Q210.533 1402.59 207.454 1398.01 Q204.399 1393.4 204.399 1384.68 Q204.399 1375.93 207.454 1371.34 Q210.533 1366.74 216.343 1366.74 Z" fill="#000000" fill-rule="nonzero" fill-opacity="1" /><path clip-path="url(#clip310)" d="M146.066 1045.07 L164.422 1045.07 L164.422 1049 L150.348 1049 L150.348 1057.47 Q151.366 1057.13 152.385 1056.97 Q153.403 1056.78 154.422 1056.78 Q160.209 1056.78 163.589 1059.95 Q166.968 1063.12 166.968 1068.54 Q166.968 1074.12 163.496 1077.22 Q160.024 1080.3 153.704 1080.3 Q151.528 1080.3 149.26 1079.93 Q147.015 1079.56 144.607 1078.82 L144.607 1074.12 Q146.691 1075.25 148.913 1075.81 Q151.135 1076.36 153.612 1076.36 Q157.616 1076.36 159.954 1074.26 Q162.292 1072.15 162.292 1068.54 Q162.292 1064.93 159.954 1062.82 Q157.616 1060.72 153.612 1060.72 Q151.737 1060.72 149.862 1061.13 Q148.01 1061.55 146.066 1062.43 L146.066 1045.07 Z" fill="#000000" fill-rule="nonzero" fill-opacity="1" /><path clip-path="url(#clip310)" d="M186.181 1048.15 Q182.57 1048.15 180.741 1051.71 Q178.936 1055.25 178.936 1062.38 Q178.936 1069.49 180.741 1073.05 Q182.57 1076.59 186.181 1076.59 Q189.815 1076.59 191.621 1073.05 Q193.45 1069.49 193.45 1062.38 Q193.45 1055.25 191.621 1051.71 Q189.815 1048.15 186.181 1048.15 M186.181 1044.44 Q191.991 1044.44 195.047 1049.05 Q198.125 1053.63 198.125 1062.38 Q198.125 1071.11 195.047 1075.72 Q191.991 1080.3 186.181 1080.3 Q180.371 1080.3 177.292 1075.72 Q174.237 1071.11 174.237 1062.38 Q174.237 1053.63 177.292 1049.05 Q180.371 1044.44 186.181 1044.44 Z" fill="#000000" fill-rule="nonzero" fill-opacity="1" /><path clip-path="url(#clip310)" d="M216.343 1048.15 Q212.732 1048.15 210.903 1051.71 Q209.098 1055.25 209.098 1062.38 Q209.098 1069.49 210.903 1073.05 Q212.732 1076.59 216.343 1076.59 Q219.977 1076.59 221.783 1073.05 Q223.611 1069.49 223.611 1062.38 Q223.611 1055.25 221.783 1051.71 Q219.977 1048.15 216.343 1048.15 M216.343 1044.44 Q222.153 1044.44 225.209 1049.05 Q228.287 1053.63 228.287 1062.38 Q228.287 1071.11 225.209 1075.72 Q222.153 1080.3 216.343 1080.3 Q210.533 1080.3 207.454 1075.72 Q204.399 1071.11 204.399 1062.38 Q204.399 1053.63 207.454 1049.05 Q210.533 1044.44 216.343 1044.44 Z" fill="#000000" fill-rule="nonzero" fill-opacity="1" /><path clip-path="url(#clip310)" d="M116.668 753.398 L124.306 753.398 L124.306 727.033 L115.996 728.7 L115.996 724.44 L124.26 722.774 L128.936 722.774 L128.936 753.398 L136.575 753.398 L136.575 757.334 L116.668 757.334 L116.668 753.398 Z" fill="#000000" fill-rule="nonzero" fill-opacity="1" /><path clip-path="url(#clip310)" d="M156.019 725.852 Q152.408 725.852 150.579 729.417 Q148.774 732.959 148.774 740.088 Q148.774 747.195 150.579 750.76 Q152.408 754.301 156.019 754.301 Q159.653 754.301 161.459 750.76 Q163.288 747.195 163.288 740.088 Q163.288 732.959 161.459 729.417 Q159.653 725.852 156.019 725.852 M156.019 722.149 Q161.829 722.149 164.885 726.755 Q167.964 731.338 167.964 740.088 Q167.964 748.815 164.885 753.422 Q161.829 758.005 156.019 758.005 Q150.209 758.005 147.13 753.422 Q144.075 748.815 144.075 740.088 Q144.075 731.338 147.13 726.755 Q150.209 722.149 156.019 722.149 Z" fill="#000000" fill-rule="nonzero" fill-opacity="1" /><path clip-path="url(#clip310)" d="M186.181 725.852 Q182.57 725.852 180.741 729.417 Q178.936 732.959 178.936 740.088 Q178.936 747.195 180.741 750.76 Q182.57 754.301 186.181 754.301 Q189.815 754.301 191.621 750.76 Q193.45 747.195 193.45 740.088 Q193.45 732.959 191.621 729.417 Q189.815 725.852 186.181 725.852 M186.181 722.149 Q191.991 722.149 195.047 726.755 Q198.125 731.338 198.125 740.088 Q198.125 748.815 195.047 753.422 Q191.991 758.005 186.181 758.005 Q180.371 758.005 177.292 753.422 Q174.237 748.815 174.237 740.088 Q174.237 731.338 177.292 726.755 Q180.371 722.149 186.181 722.149 Z" fill="#000000" fill-rule="nonzero" fill-opacity="1" /><path clip-path="url(#clip310)" d="M216.343 725.852 Q212.732 725.852 210.903 729.417 Q209.098 732.959 209.098 740.088 Q209.098 747.195 210.903 750.76 Q212.732 754.301 216.343 754.301 Q219.977 754.301 221.783 750.76 Q223.611 747.195 223.611 740.088 Q223.611 732.959 221.783 729.417 Q219.977 725.852 216.343 725.852 M216.343 722.149 Q222.153 722.149 225.209 726.755 Q228.287 731.338 228.287 740.088 Q228.287 748.815 225.209 753.422 Q222.153 758.005 216.343 758.005 Q210.533 758.005 207.454 753.422 Q204.399 748.815 204.399 740.088 Q204.399 731.338 207.454 726.755 Q210.533 722.149 216.343 722.149 Z" fill="#000000" fill-rule="nonzero" fill-opacity="1" /><path clip-path="url(#clip310)" d="M116.668 431.105 L124.306 431.105 L124.306 404.739 L115.996 406.406 L115.996 402.147 L124.26 400.48 L128.936 400.48 L128.936 431.105 L136.575 431.105 L136.575 435.04 L116.668 435.04 L116.668 431.105 Z" fill="#000000" fill-rule="nonzero" fill-opacity="1" /><path clip-path="url(#clip310)" d="M146.066 400.48 L164.422 400.48 L164.422 404.415 L150.348 404.415 L150.348 412.888 Q151.366 412.54 152.385 412.378 Q153.403 412.193 154.422 412.193 Q160.209 412.193 163.589 415.364 Q166.968 418.536 166.968 423.952 Q166.968 429.531 163.496 432.633 Q160.024 435.711 153.704 435.711 Q151.528 435.711 149.26 435.341 Q147.015 434.971 144.607 434.23 L144.607 429.531 Q146.691 430.665 148.913 431.221 Q151.135 431.776 153.612 431.776 Q157.616 431.776 159.954 429.67 Q162.292 427.563 162.292 423.952 Q162.292 420.341 159.954 418.235 Q157.616 416.128 153.612 416.128 Q151.737 416.128 149.862 416.545 Q148.01 416.962 146.066 417.841 L146.066 400.48 Z" fill="#000000" fill-rule="nonzero" fill-opacity="1" /><path clip-path="url(#clip310)" d="M186.181 403.559 Q182.57 403.559 180.741 407.124 Q178.936 410.665 178.936 417.795 Q178.936 424.901 180.741 428.466 Q182.57 432.008 186.181 432.008 Q189.815 432.008 191.621 428.466 Q193.45 424.901 193.45 417.795 Q193.45 410.665 191.621 407.124 Q189.815 403.559 186.181 403.559 M186.181 399.855 Q191.991 399.855 195.047 404.462 Q198.125 409.045 198.125 417.795 Q198.125 426.522 195.047 431.128 Q191.991 435.711 186.181 435.711 Q180.371 435.711 177.292 431.128 Q174.237 426.522 174.237 417.795 Q174.237 409.045 177.292 404.462 Q180.371 399.855 186.181 399.855 Z" fill="#000000" fill-rule="nonzero" fill-opacity="1" /><path clip-path="url(#clip310)" d="M216.343 403.559 Q212.732 403.559 210.903 407.124 Q209.098 410.665 209.098 417.795 Q209.098 424.901 210.903 428.466 Q212.732 432.008 216.343 432.008 Q219.977 432.008 221.783 428.466 Q223.611 424.901 223.611 417.795 Q223.611 410.665 221.783 407.124 Q219.977 403.559 216.343 403.559 M216.343 399.855 Q222.153 399.855 225.209 404.462 Q228.287 409.045 228.287 417.795 Q228.287 426.522 225.209 431.128 Q222.153 435.711 216.343 435.711 Q210.533 435.711 207.454 431.128 Q204.399 426.522 204.399 417.795 Q204.399 409.045 207.454 404.462 Q210.533 399.855 216.343 399.855 Z" fill="#000000" fill-rule="nonzero" fill-opacity="1" /><path clip-path="url(#clip310)" d="M119.885 108.812 L136.204 108.812 L136.204 112.747 L114.26 112.747 L114.26 108.812 Q116.922 106.057 121.505 101.427 Q126.112 96.7746 127.292 95.432 Q129.538 92.9088 130.417 91.1727 Q131.32 89.4135 131.32 87.7237 Q131.32 84.9691 129.376 83.233 Q127.455 81.4969 124.353 81.4969 Q122.154 81.4969 119.7 82.2608 Q117.269 83.0246 114.492 84.5756 L114.492 79.8534 Q117.316 78.7191 119.769 78.1404 Q122.223 77.5617 124.26 77.5617 Q129.63 77.5617 132.825 80.2469 Q136.019 82.932 136.019 87.4228 Q136.019 89.5524 135.209 91.4737 Q134.422 93.3718 132.316 95.9644 Q131.737 96.6357 128.635 99.8533 Q125.533 103.048 119.885 108.812 Z" fill="#000000" fill-rule="nonzero" fill-opacity="1" /><path clip-path="url(#clip310)" d="M156.019 81.2654 Q152.408 81.2654 150.579 84.8302 Q148.774 88.3718 148.774 95.5014 Q148.774 102.608 150.579 106.173 Q152.408 109.714 156.019 109.714 Q159.653 109.714 161.459 106.173 Q163.288 102.608 163.288 95.5014 Q163.288 88.3718 161.459 84.8302 Q159.653 81.2654 156.019 81.2654 M156.019 77.5617 Q161.829 77.5617 164.885 82.1682 Q167.964 86.7515 167.964 95.5014 Q167.964 104.228 164.885 108.835 Q161.829 113.418 156.019 113.418 Q150.209 113.418 147.13 108.835 Q144.075 104.228 144.075 95.5014 Q144.075 86.7515 147.13 82.1682 Q150.209 77.5617 156.019 77.5617 Z" fill="#000000" fill-rule="nonzero" fill-opacity="1" /><path clip-path="url(#clip310)" d="M186.181 81.2654 Q182.57 81.2654 180.741 84.8302 Q178.936 88.3718 178.936 95.5014 Q178.936 102.608 180.741 106.173 Q182.57 109.714 186.181 109.714 Q189.815 109.714 191.621 106.173 Q193.45 102.608 193.45 95.5014 Q193.45 88.3718 191.621 84.8302 Q189.815 81.2654 186.181 81.2654 M186.181 77.5617 Q191.991 77.5617 195.047 82.1682 Q198.125 86.7515 198.125 95.5014 Q198.125 104.228 195.047 108.835 Q191.991 113.418 186.181 113.418 Q180.371 113.418 177.292 108.835 Q174.237 104.228 174.237 95.5014 Q174.237 86.7515 177.292 82.1682 Q180.371 77.5617 186.181 77.5617 Z" fill="#000000" fill-rule="nonzero" fill-opacity="1" /><path clip-path="url(#clip310)" d="M216.343 81.2654 Q212.732 81.2654 210.903 84.8302 Q209.098 88.3718 209.098 95.5014 Q209.098 102.608 210.903 106.173 Q212.732 109.714 216.343 109.714 Q219.977 109.714 221.783 106.173 Q223.611 102.608 223.611 95.5014 Q223.611 88.3718 221.783 84.8302 Q219.977 81.2654 216.343 81.2654 M216.343 77.5617 Q222.153 77.5617 225.209 82.1682 Q228.287 86.7515 228.287 95.5014 Q228.287 104.228 225.209 108.835 Q222.153 113.418 216.343 113.418 Q210.533 113.418 207.454 108.835 Q204.399 104.228 204.399 95.5014 Q204.399 86.7515 207.454 82.1682 Q210.533 77.5617 216.343 77.5617 Z" fill="#000000" fill-rule="nonzero" fill-opacity="1" /><path clip-path="url(#clip310)" d="M41.3104 969.884 L58.7206 969.884 L58.7206 959.571 Q58.7206 954.383 56.5881 951.901 Q54.4238 949.386 49.9996 949.386 Q45.5436 949.386 43.4429 951.901 Q41.3104 954.383 41.3104 959.571 L41.3104 969.884 M21.7677 969.884 L36.0905 969.884 L36.0905 960.367 Q36.0905 955.656 34.34 953.365 Q32.5576 951.041 28.9291 951.041 Q25.3325 951.041 23.5501 953.365 Q21.7677 955.656 21.7677 960.367 L21.7677 969.884 M16.4842 976.313 L16.4842 959.89 Q16.4842 952.537 19.5397 948.559 Q22.5952 944.58 28.2289 944.58 Q32.5894 944.58 35.1675 946.617 Q37.7456 948.654 38.3822 952.601 Q39.4007 947.858 42.6472 945.248 Q45.8619 942.607 50.6998 942.607 Q57.0655 942.607 60.5348 946.935 Q64.0042 951.264 64.0042 959.253 L64.0042 976.313 L16.4842 976.313 Z" fill="#000000" fill-rule="nonzero" fill-opacity="1" /><path clip-path="url(#clip310)" d="M32.4621 918.035 Q32.4621 922.746 36.1542 925.483 Q39.8145 928.22 46.212 928.22 Q52.6095 928.22 56.3017 925.515 Q59.9619 922.778 59.9619 918.035 Q59.9619 913.356 56.2698 910.619 Q52.5777 907.882 46.212 907.882 Q39.8781 907.882 36.186 910.619 Q32.4621 913.356 32.4621 918.035 M27.4968 918.035 Q27.4968 910.396 32.4621 906.036 Q37.4273 901.675 46.212 901.675 Q54.9649 901.675 59.9619 906.036 Q64.9272 910.396 64.9272 918.035 Q64.9272 925.706 59.9619 930.066 Q54.9649 934.395 46.212 934.395 Q37.4273 934.395 32.4621 930.066 Q27.4968 925.706 27.4968 918.035 Z" fill="#000000" fill-rule="nonzero" fill-opacity="1" /><path clip-path="url(#clip310)" d="M32.4621 878.154 Q32.4621 882.865 36.1542 885.602 Q39.8145 888.339 46.212 888.339 Q52.6095 888.339 56.3017 885.634 Q59.9619 882.896 59.9619 878.154 Q59.9619 873.475 56.2698 870.738 Q52.5777 868.001 46.212 868.001 Q39.8781 868.001 36.186 870.738 Q32.4621 873.475 32.4621 878.154 M27.4968 878.154 Q27.4968 870.515 32.4621 866.155 Q37.4273 861.794 46.212 861.794 Q54.9649 861.794 59.9619 866.155 Q64.9272 870.515 64.9272 878.154 Q64.9272 885.825 59.9619 890.185 Q54.9649 894.514 46.212 894.514 Q37.4273 894.514 32.4621 890.185 Q27.4968 885.825 27.4968 878.154 Z" fill="#000000" fill-rule="nonzero" fill-opacity="1" /><path clip-path="url(#clip310)" d="M29.4065 829.361 L34.9447 829.361 Q33.6716 831.843 33.035 834.517 Q32.3984 837.191 32.3984 840.055 Q32.3984 844.416 33.7352 846.612 Q35.072 848.776 37.7456 848.776 Q39.7826 848.776 40.9603 847.217 Q42.1061 845.657 43.1565 840.946 L43.6021 838.941 Q44.9389 832.703 47.3897 830.093 Q49.8086 827.451 54.1691 827.451 Q59.1344 827.451 62.0308 831.398 Q64.9272 835.313 64.9272 842.188 Q64.9272 845.052 64.3543 848.171 Q63.8132 851.259 62.6992 854.696 L56.6518 854.696 Q58.3387 851.45 59.198 848.299 Q60.0256 845.148 60.0256 842.06 Q60.0256 837.923 58.6251 835.695 Q57.1929 833.467 54.6147 833.467 Q52.2276 833.467 50.9545 835.09 Q49.6813 836.681 48.5037 842.124 L48.0262 844.161 Q46.8804 849.604 44.5251 852.023 Q42.138 854.442 38.0002 854.442 Q32.9713 854.442 30.2341 850.877 Q27.4968 847.312 27.4968 840.755 Q27.4968 837.509 27.9743 834.644 Q28.4517 831.78 29.4065 829.361 Z" fill="#000000" fill-rule="nonzero" fill-opacity="1" /><path clip-path="url(#clip310)" d="M18.2347 812.333 L28.3562 812.333 L28.3562 800.269 L32.9077 800.269 L32.9077 812.333 L52.2594 812.333 Q56.6199 812.333 57.8613 811.155 Q59.1026 809.945 59.1026 806.285 L59.1026 800.269 L64.0042 800.269 L64.0042 806.285 Q64.0042 813.065 61.4897 815.643 Q58.9434 818.221 52.2594 818.221 L32.9077 818.221 L32.9077 822.518 L28.3562 822.518 L28.3562 818.221 L18.2347 818.221 L18.2347 812.333 Z" fill="#000000" fill-rule="nonzero" fill-opacity="1" /><path clip-path="url(#clip310)" d="M16.4842 771.592 L16.4842 744.283 L21.895 744.283 L21.895 765.163 L35.8996 765.163 L35.8996 746.32 L41.3104 746.32 L41.3104 765.163 L64.0042 765.163 L64.0042 771.592 L16.4842 771.592 Z" fill="#000000" fill-rule="nonzero" fill-opacity="1" /><path clip-path="url(#clip310)" d="M46.0847 724.136 Q46.0847 731.233 47.7079 733.971 Q49.3312 736.708 53.2461 736.708 Q56.3653 736.708 58.2114 734.671 Q60.0256 732.602 60.0256 729.069 Q60.0256 724.199 56.5881 721.271 Q53.1188 718.311 47.3897 718.311 L46.0847 718.311 L46.0847 724.136 M43.6657 712.455 L64.0042 712.455 L64.0042 718.311 L58.5933 718.311 Q61.8398 720.316 63.3994 723.308 Q64.9272 726.3 64.9272 730.629 Q64.9272 736.103 61.8716 739.35 Q58.7843 742.564 53.6281 742.564 Q47.6125 742.564 44.5569 738.554 Q41.5014 734.512 41.5014 726.523 L41.5014 718.311 L40.9285 718.311 Q36.8862 718.311 34.6901 720.985 Q32.4621 723.626 32.4621 728.432 Q32.4621 731.488 33.1941 734.384 Q33.9262 737.281 35.3903 739.954 L29.9795 739.954 Q28.7381 736.74 28.1334 733.716 Q27.4968 730.692 27.4968 727.828 Q27.4968 720.093 31.5072 716.274 Q35.5176 712.455 43.6657 712.455 Z" fill="#000000" fill-rule="nonzero" fill-opacity="1" /><path clip-path="url(#clip310)" d="M29.7248 674.738 L35.1993 674.738 Q33.8307 677.22 33.1623 679.735 Q32.4621 682.217 32.4621 684.764 Q32.4621 690.461 36.0905 693.612 Q39.6872 696.763 46.212 696.763 Q52.7369 696.763 56.3653 693.612 Q59.9619 690.461 59.9619 684.764 Q59.9619 682.217 59.2935 679.735 Q58.5933 677.22 57.2247 674.738 L62.6355 674.738 Q63.7814 677.189 64.3543 679.83 Q64.9272 682.44 64.9272 685.4 Q64.9272 693.453 59.8664 698.195 Q54.8057 702.938 46.212 702.938 Q37.491 702.938 32.4939 698.164 Q27.4968 693.357 27.4968 685.018 Q27.4968 682.313 28.0697 679.735 Q28.6108 677.157 29.7248 674.738 Z" fill="#000000" fill-rule="nonzero" fill-opacity="1" /><path clip-path="url(#clip310)" d="M18.2347 658.76 L28.3562 658.76 L28.3562 646.697 L32.9077 646.697 L32.9077 658.76 L52.2594 658.76 Q56.6199 658.76 57.8613 657.582 Q59.1026 656.373 59.1026 652.712 L59.1026 646.697 L64.0042 646.697 L64.0042 652.712 Q64.0042 659.492 61.4897 662.07 Q58.9434 664.648 52.2594 664.648 L32.9077 664.648 L32.9077 668.945 L28.3562 668.945 L28.3562 664.648 L18.2347 664.648 L18.2347 658.76 Z" fill="#000000" fill-rule="nonzero" fill-opacity="1" /><path clip-path="url(#clip310)" d="M32.4621 625.181 Q32.4621 629.891 36.1542 632.629 Q39.8145 635.366 46.212 635.366 Q52.6095 635.366 56.3017 632.66 Q59.9619 629.923 59.9619 625.181 Q59.9619 620.502 56.2698 617.765 Q52.5777 615.027 46.212 615.027 Q39.8781 615.027 36.186 617.765 Q32.4621 620.502 32.4621 625.181 M27.4968 625.181 Q27.4968 617.542 32.4621 613.181 Q37.4273 608.821 46.212 608.821 Q54.9649 608.821 59.9619 613.181 Q64.9272 617.542 64.9272 625.181 Q64.9272 632.851 59.9619 637.212 Q54.9649 641.541 46.212 641.541 Q37.4273 641.541 32.4621 637.212 Q27.4968 632.851 27.4968 625.181 Z" fill="#000000" fill-rule="nonzero" fill-opacity="1" /><path clip-path="url(#clip310)" d="M33.8307 578.456 Q33.2578 579.443 33.0032 580.621 Q32.7167 581.767 32.7167 583.167 Q32.7167 588.132 35.9632 590.806 Q39.1779 593.448 45.2253 593.448 L64.0042 593.448 L64.0042 599.336 L28.3562 599.336 L28.3562 593.448 L33.8944 593.448 Q30.6479 591.602 29.0883 588.642 Q27.4968 585.682 27.4968 581.448 Q27.4968 580.844 27.5923 580.112 Q27.656 579.379 27.8151 578.488 L33.8307 578.456 Z" fill="#000000" fill-rule="nonzero" fill-opacity="1" /><path clip-path="url(#clip310)" d="M61.808 545.737 L77.5631 545.737 L77.5631 551.625 L28.579 551.625 Q14.0652 551.625 14.0652 538.066 Q14.0652 524.252 26.3192 524.252 Q35.0402 524.252 38.223 529.727 Q41.0876 520.815 49.5858 520.815 Q64.6726 520.815 64.6726 536.156 Q64.6726 542.904 61.808 545.737 M54.1691 545.737 Q59.6755 542.204 59.6755 535.934 Q59.6755 526.767 49.6813 526.767 Q40.7057 526.767 41.4059 541.535 L35.995 541.535 Q35.995 529.982 25.8099 529.982 Q18.8395 529.982 18.8395 537.429 Q18.8395 545.737 28.77 545.737 L54.1691 545.737 Z" fill="#000000" fill-rule="nonzero" fill-opacity="1" /><path clip-path="url(#clip310)" d="M39.1142 507.606 L39.1142 494.111 L42.7427 494.111 L42.7427 513.144 L39.2416 513.144 Q38.2549 512.062 36.4725 510.057 Q26.7648 499.108 23.7729 499.108 Q21.6722 499.108 20.3991 500.763 Q19.0941 502.418 19.0941 505.124 Q19.0941 506.779 19.667 508.72 Q20.2081 510.662 21.3221 512.953 L17.4072 512.953 Q16.516 510.503 16.0704 508.402 Q15.6248 506.269 15.6248 504.455 Q15.6248 499.84 17.7255 497.071 Q19.8262 494.302 23.2636 494.302 Q27.6878 494.302 36.7271 504.837 Q38.2549 506.619 39.1142 507.606 Z" fill="#000000" fill-rule="nonzero" fill-opacity="1" /><polyline clip-path="url(#clip312)" style="stroke:#009af9; stroke-linecap:round; stroke-linejoin:round; stroke-width:4; stroke-opacity:1; fill:none" points="323.395,1319.27 325.367,1319.15 327.339,1319.03 329.312,1318.9 331.284,1318.78 333.256,1318.66 335.228,1318.53 337.201,1318.4 339.173,1318.28 341.145,1318.15 343.117,1318.02 345.089,1317.89 347.062,1317.76 349.034,1317.63 351.006,1317.5 352.978,1317.37 354.951,1317.23 356.923,1317.1 358.895,1316.97 360.867,1316.83 362.839,1316.7 364.812,1316.56 366.784,1316.42 368.756,1316.29 370.728,1316.15 372.701,1316.01 374.673,1315.87 376.645,1315.73 378.617,1315.59 380.589,1315.44 382.562,1315.3 384.534,1315.16 386.506,1315.01 388.478,1314.87 390.451,1314.72 392.423,1314.57 394.395,1314.42 396.367,1314.28 398.339,1314.13 400.312,1313.98 402.284,1313.82 404.256,1313.67 406.228,1313.52 408.201,1313.37 410.173,1313.21 412.145,1313.06 414.117,1312.9 416.09,1312.74 418.062,1312.58 420.034,1312.42 422.006,1312.26 423.978,1312.1 425.951,1311.94 427.923,1311.78 429.895,1311.62 431.867,1311.45 433.84,1311.29 435.812,1311.12 437.784,1310.95 439.756,1310.78 441.728,1310.61 443.701,1310.44 445.673,1310.27 447.645,1310.1 449.617,1309.93 451.59,1309.75 453.562,1309.58 455.534,1309.4 457.506,1309.22 459.478,1309.04 461.451,1308.86 463.423,1308.68 465.395,1308.5 467.367,1308.32 469.34,1308.13 471.312,1307.95 473.284,1307.76 475.256,1307.58 477.229,1307.39 479.201,1307.2 481.173,1307.01 483.145,1306.82 485.117,1306.62 487.09,1306.43 489.062,1306.23 491.034,1306.04 493.006,1305.84 494.979,1305.64 496.951,1305.44 498.923,1305.24 500.895,1305.04 502.867,1304.83 504.84,1304.63 506.812,1304.42 508.784,1304.21 510.756,1304 512.729,1303.79 514.701,1303.58 516.673,1303.37 518.645,1303.15 520.617,1302.94 522.59,1302.72 524.562,1302.5 526.534,1302.28 528.506,1302.06 530.479,1301.84 532.451,1301.62 534.423,1301.39 536.395,1301.16 538.368,1300.93 540.34,1300.7 542.312,1300.47 544.284,1300.24 546.256,1300.01 548.229,1299.77 550.201,1299.53 552.173,1299.29 554.145,1299.05 556.118,1298.81 558.09,1298.57 560.062,1298.32 562.034,1298.08 564.006,1297.83 565.979,1297.58 567.951,1297.32 569.923,1297.07 571.895,1296.82 573.868,1296.56 575.84,1296.3 577.812,1296.04 579.784,1295.78 581.756,1295.51 583.729,1295.25 585.701,1294.98 587.673,1294.71 589.645,1294.44 591.618,1294.17 593.59,1293.89 595.562,1293.61 597.534,1293.34 599.507,1293.06 601.479,1292.77 603.451,1292.49 605.423,1292.2 607.395,1291.91 609.368,1291.62 611.34,1291.33 613.312,1291.03 615.284,1290.74 617.257,1290.44 619.229,1290.14 621.201,1289.83 623.173,1289.53 625.145,1289.22 627.118,1288.91 629.09,1288.6 631.062,1288.29 633.034,1287.97 635.007,1287.65 636.979,1287.33 638.951,1287.01 640.923,1286.68 642.895,1286.35 644.868,1286.02 646.84,1285.69 648.812,1285.35 650.784,1285.01 652.757,1284.67 654.729,1284.33 656.701,1283.99 658.673,1283.64 660.646,1283.29 662.618,1282.93 664.59,1282.58 666.562,1282.22 668.534,1281.86 670.507,1281.49 672.479,1281.12 674.451,1280.75 676.423,1280.38 678.396,1280.01 680.368,1279.63 682.34,1279.25 684.312,1278.86 686.284,1278.47 688.257,1278.08 690.229,1277.69 692.201,1277.29 694.173,1276.89 696.146,1276.49 698.118,1276.09 700.09,1275.68 702.062,1275.26 704.034,1274.85 706.007,1274.43 707.979,1274.01 709.951,1273.58 711.923,1273.15 713.896,1272.72 715.868,1272.28 717.84,1271.84 719.812,1271.4 721.784,1270.95 723.757,1270.5 725.729,1270.05 727.701,1269.59 729.673,1269.13 731.646,1268.66 733.618,1268.19 735.59,1267.72 737.562,1267.24 739.535,1266.76 741.507,1266.27 743.479,1265.78 745.451,1265.29 747.423,1264.79 749.396,1264.29 751.368,1263.78 753.34,1263.27 755.312,1262.75 757.285,1262.23 759.257,1261.71 761.229,1261.18 763.201,1260.64 765.173,1260.1 767.146,1259.56 769.118,1259.01 771.09,1258.46 773.062,1257.9 775.035,1257.34 777.007,1256.77 778.979,1256.2 780.951,1255.62 782.923,1255.04 784.896,1254.45 786.868,1253.85 788.84,1253.25 790.812,1252.65 792.785,1252.04 794.757,1251.42 796.729,1250.8 798.701,1250.17 800.674,1249.54 802.646,1248.9 804.618,1248.25 806.59,1247.6 808.562,1246.94 810.535,1246.28 812.507,1245.61 814.479,1244.93 816.451,1244.25 818.424,1243.56 820.396,1242.86 822.368,1242.16 824.34,1241.45 826.312,1240.73 828.285,1240.01 830.257,1239.28 832.229,1238.54 834.201,1237.8 836.174,1237.04 838.146,1236.28 840.118,1235.52 842.09,1234.74 844.062,1233.96 846.035,1233.17 848.007,1232.37 849.979,1231.56 851.951,1230.74 853.924,1229.92 855.896,1229.09 857.868,1228.25 859.84,1227.4 861.813,1226.54 863.785,1225.67 865.757,1224.8 867.729,1223.91 869.701,1223.02 871.674,1222.11 873.646,1221.2 875.618,1220.27 877.59,1219.34 879.563,1218.4 881.535,1217.44 883.507,1216.48 885.479,1215.5 887.451,1214.52 889.424,1213.52 891.396,1212.52 893.368,1211.5 895.34,1210.47 897.313,1209.43 899.285,1208.38 901.257,1207.31 903.229,1206.24 905.201,1205.15 907.174,1204.05 909.146,1202.94 911.118,1201.81 913.09,1200.67 915.063,1199.52 917.035,1198.36 919.007,1197.18 920.979,1195.99 922.952,1194.78 924.924,1193.56 926.896,1192.33 928.868,1191.08 930.84,1189.82 932.813,1188.54 934.785,1187.24 936.757,1185.93 938.729,1184.61 940.702,1183.27 942.674,1181.91 944.646,1180.54 946.618,1179.15 948.59,1177.74 950.563,1176.31 952.535,1174.87 954.507,1173.41 956.479,1171.93 958.452,1170.43 960.424,1168.92 962.396,1167.38 964.368,1165.83 966.34,1164.25 968.313,1162.66 970.285,1161.04 972.257,1159.4 974.229,1157.75 976.202,1156.07 978.174,1154.37 980.146,1152.64 982.118,1150.9 984.091,1149.13 986.063,1147.34 988.035,1145.52 990.007,1143.68 991.979,1141.81 993.952,1139.92 995.924,1138.01 997.896,1136.07 999.868,1134.1 1001.84,1132.1 1003.81,1130.08 1005.78,1128.03 1007.76,1125.95 1009.73,1123.84 1011.7,1121.7 1013.67,1119.53 1015.65,1117.33 1017.62,1115.1 1019.59,1112.84 1021.56,1110.55 1023.54,1108.22 1025.51,1105.86 1027.48,1103.47 1029.45,1101.04 1031.42,1098.57 1033.4,1096.07 1035.37,1093.53 1037.34,1090.96 1039.31,1088.35 1041.29,1085.69 1043.26,1083 1045.23,1080.27 1047.2,1077.5 1049.17,1074.68 1051.15,1071.82 1053.12,1068.92 1055.09,1065.98 1057.06,1062.99 1059.04,1059.95 1061.01,1056.87 1062.98,1053.74 1064.95,1050.56 1066.92,1047.32 1068.9,1044.04 1070.87,1040.71 1072.84,1037.33 1074.81,1033.89 1076.79,1030.39 1078.76,1026.84 1080.73,1023.24 1082.7,1019.57 1084.67,1015.85 1086.65,1012.07 1088.62,1008.22 1090.59,1004.31 1092.56,1000.34 1094.54,996.304 1096.51,992.2 1098.48,988.029 1100.45,983.789 1102.42,979.478 1104.4,975.096 1106.37,970.641 1108.34,966.111 1110.31,961.505 1112.29,956.821 1114.26,952.059 1116.23,947.216 1118.2,942.291 1120.17,937.283 1122.15,932.19 1124.12,927.01 1126.09,921.742 1128.06,916.384 1130.04,910.934 1132.01,905.391 1133.98,899.753 1135.95,894.018 1137.92,888.186 1139.9,882.253 1141.87,876.218 1143.84,870.079 1145.81,863.836 1147.79,857.485 1149.76,851.025 1151.73,844.455 1153.7,837.772 1155.67,830.975 1157.65,824.062 1159.62,817.031 1161.59,809.882 1163.56,802.611 1165.54,795.217 1167.51,787.699 1169.48,780.055 1171.45,772.284 1173.42,764.384 1175.4,756.353 1177.37,748.191 1179.34,739.896 1181.31,731.467 1183.29,722.902 1185.26,714.201 1187.23,705.363 1189.2,696.388 1191.17,687.273 1193.15,678.02 1195.12,668.628 1197.09,659.096 1199.06,649.426 1201.04,639.616 1203.01,629.669 1204.98,619.583 1206.95,609.362 1208.92,599.006 1210.9,588.516 1212.87,577.895 1214.84,567.146 1216.81,556.27 1218.79,545.271 1220.76,534.153 1222.73,522.92 1224.7,511.577 1226.67,500.127 1228.65,488.578 1230.62,476.935 1232.59,465.205 1234.56,453.395 1236.54,441.514 1238.51,429.569 1240.48,417.571 1242.45,405.529 1244.42,393.455 1246.4,381.359 1248.37,369.255 1250.34,357.155 1252.31,345.073 1254.29,333.025 1256.26,321.026 1258.23,309.092 1260.2,297.24 1262.17,285.489 1264.15,273.857 1266.12,262.364 1268.09,251.031 1270.06,239.878 1272.04,228.927 1274.01,218.201 1275.98,207.722 1277.95,197.514 1279.92,187.6 1281.9,178.005 1283.87,168.753 1285.84,159.868 1287.81,151.375 1289.79,143.298 1291.76,135.662 1293.73,128.49 1295.7,121.804 1297.67,115.629 1299.65,109.986 1301.62,104.896 1303.59,100.379 1305.56,96.4529 1307.54,93.1361 1309.51,90.4441 1311.48,88.3914 1313.45,86.9905 1315.42,86.2523 1317.4,86.1857 1319.37,86.7975 1321.34,88.0927 1323.31,90.0739 1325.29,92.7417 1327.26,96.0944 1329.23,100.128 1331.2,104.837 1333.17,110.213 1335.15,116.245 1337.12,122.922 1339.09,130.228 1341.06,138.149 1343.04,146.666 1345.01,155.759 1346.98,165.407 1348.95,175.589 1350.92,186.28 1352.9,197.455 1354.87,209.09 1356.84,221.157 1358.81,233.63 1360.79,246.481 1362.76,259.683 1364.73,273.207 1366.7,287.026 1368.67,301.111 1370.65,315.436 1372.62,329.973 1374.59,344.695 1376.56,359.576 1378.54,374.591 1380.51,389.715 1382.48,404.925 1384.45,420.196 1386.42,435.508 1388.4,450.838 1390.37,466.167 1392.34,481.476 1394.31,496.746 1396.29,511.96 1398.26,527.103 1400.23,542.16 1402.2,557.115 1404.17,571.958 1406.15,586.674 1408.12,601.254 1410.09,615.688 1412.06,629.965 1414.04,644.079 1416.01,658.021 1417.98,671.784 1419.95,685.363 1421.92,698.753 1423.9,711.949 1425.87,724.948 1427.84,737.745 1429.81,750.338 1431.79,762.726 1433.76,774.907 1435.73,786.879 1437.7,798.642 1439.67,810.195 1441.65,821.539 1443.62,832.674 1445.59,843.6 1447.56,854.32 1449.54,864.834 1451.51,875.143 1453.48,885.25 1455.45,895.156 1457.42,904.864 1459.4,914.375 1461.37,923.693 1463.34,932.82 1465.31,941.759 1467.29,950.511 1469.26,959.081 1471.23,967.471 1473.2,975.684 1475.17,983.722 1477.15,991.59 1479.12,999.29 1481.09,1006.83 1483.06,1014.2 1485.04,1021.41 1487.01,1028.47 1488.98,1035.38 1490.95,1042.14 1492.92,1048.75 1494.9,1055.22 1496.87,1061.55 1498.84,1067.74 1500.81,1073.79 1502.79,1079.72 1504.76,1085.52 1506.73,1091.19 1508.7,1096.73 1510.67,1102.16 1512.65,1107.47 1514.62,1112.67 1516.59,1117.75 1518.56,1122.72 1520.54,1127.59 1522.51,1132.35 1524.48,1137.01 1526.45,1141.57 1528.42,1146.03 1530.4,1150.4 1532.37,1154.67 1534.34,1158.85 1536.31,1162.95 1538.29,1166.95 1540.26,1170.87 1542.23,1174.71 1544.2,1178.47 1546.17,1182.15 1548.15,1185.75 1550.12,1189.28 1552.09,1192.73 1554.06,1196.11 1556.04,1199.43 1558.01,1202.67 1559.98,1205.85 1561.95,1208.96 1563.92,1212 1565.9,1214.99 1567.87,1217.91 1569.84,1220.78 1571.81,1223.59 1573.79,1226.34 1575.76,1229.03 1577.73,1231.67 1579.7,1234.26 1581.67,1236.8 1583.65,1239.28 1585.62,1241.72 1587.59,1244.11 1589.56,1246.45 1591.54,1248.75 1593.51,1251 1595.48,1253.2 1597.45,1255.37 1599.42,1257.49 1601.4,1259.57 1603.37,1261.61 1605.34,1263.61 1607.31,1265.58 1609.29,1267.5 1611.26,1269.39 1613.23,1271.25 1615.2,1273.07 1617.17,1274.85 1619.15,1276.61 1621.12,1278.32 1623.09,1280.01 1625.06,1281.67 1627.04,1283.29 1629.01,1284.89 1630.98,1286.45 1632.95,1287.99 1634.92,1289.5 1636.9,1290.98 1638.87,1292.44 1640.84,1293.86 1642.81,1295.27 1644.79,1296.65 1646.76,1298 1648.73,1299.33 1650.7,1300.63 1652.67,1301.92 1654.65,1303.18 1656.62,1304.41 1658.59,1305.63 1660.56,1306.82 1662.54,1308 1664.51,1309.15 1666.48,1310.28 1668.45,1311.4 1670.43,1312.49 1672.4,1313.57 1674.37,1314.63 1676.34,1315.67 1678.31,1316.69 1680.29,1317.69 1682.26,1318.68 1684.23,1319.65 1686.2,1320.61 1688.18,1321.55 1690.15,1322.47 1692.12,1323.38 1694.09,1324.27 1696.06,1325.15 1698.04,1326.01 1700.01,1326.86 1701.98,1327.7 1703.95,1328.52 1705.93,1329.33 1707.9,1330.12 1709.87,1330.91 1711.84,1331.68 1713.81,1332.43 1715.79,1333.18 1717.76,1333.91 1719.73,1334.63 1721.7,1335.35 1723.68,1336.04 1725.65,1336.73 1727.62,1337.41 1729.59,1338.08 1731.56,1338.73 1733.54,1339.38 1735.51,1340.02 1737.48,1340.64 1739.45,1341.26 1741.43,1341.87 1743.4,1342.46 1745.37,1343.05 1747.34,1343.63 1749.31,1344.2 1751.29,1344.76 1753.26,1345.32 1755.23,1345.86 1757.2,1346.4 1759.18,1346.93 1761.15,1347.45 1763.12,1347.96 1765.09,1348.47 1767.06,1348.96 1769.04,1349.45 1771.01,1349.94 1772.98,1350.41 1774.95,1350.88 1776.93,1351.34 1778.9,1351.8 1780.87,1352.25 1782.84,1352.69 1784.81,1353.12 1786.79,1353.55 1788.76,1353.98 1790.73,1354.39 1792.7,1354.8 1794.68,1355.21 1796.65,1355.61 1798.62,1356 1800.59,1356.39 1802.56,1356.77 1804.54,1357.15 1806.51,1357.52 1808.48,1357.88 1810.45,1358.24 1812.43,1358.6 1814.4,1358.95 1816.37,1359.3 1818.34,1359.64 1820.31,1359.97 1822.29,1360.31 1824.26,1360.63 1826.23,1360.95 1828.2,1361.27 1830.18,1361.59 1832.15,1361.89 1834.12,1362.2 1836.09,1362.5 1838.06,1362.8 1840.04,1363.09 1842.01,1363.38 1843.98,1363.66 1845.95,1363.94 1847.93,1364.22 1849.9,1364.49 1851.87,1364.76 1853.84,1365.03 1855.81,1365.29 1857.79,1365.55 1859.76,1365.8 1861.73,1366.05 1863.7,1366.3 1865.68,1366.55 1867.65,1366.79 1869.62,1367.03 1871.59,1367.26 1873.56,1367.49 1875.54,1367.72 1877.51,1367.95 1879.48,1368.17 1881.45,1368.39 1883.43,1368.61 1885.4,1368.82 1887.37,1369.04 1889.34,1369.24 1891.31,1369.45 1893.29,1369.65 1895.26,1369.85 1897.23,1370.05 1899.2,1370.25 1901.18,1370.44 1903.15,1370.63 1905.12,1370.82 1907.09,1371 1909.06,1371.19 1911.04,1371.37 1913.01,1371.55 1914.98,1371.72 1916.95,1371.9 1918.93,1372.07 1920.9,1372.24 1922.87,1372.4 1924.84,1372.57 1926.81,1372.73 1928.79,1372.89 1930.76,1373.05 1932.73,1373.21 1934.7,1373.36 1936.68,1373.52 1938.65,1373.67 1940.62,1373.82 1942.59,1373.96 1944.56,1374.11 1946.54,1374.25 1948.51,1374.39 1950.48,1374.53 1952.45,1374.67 1954.43,1374.81 1956.4,1374.94 1958.37,1375.07 1960.34,1375.2 1962.31,1375.33 1964.29,1375.46 1966.26,1375.59 1968.23,1375.71 1970.2,1375.84 1972.18,1375.96 1974.15,1376.08 1976.12,1376.2 1978.09,1376.31 1980.06,1376.43 1982.04,1376.54 1984.01,1376.66 1985.98,1376.77 1987.95,1376.88 1989.93,1376.99 1991.9,1377.09 1993.87,1377.2 1995.84,1377.3 1997.81,1377.41 1999.79,1377.51 2001.76,1377.61 2003.73,1377.71 2005.7,1377.81 2007.68,1377.9 2009.65,1378 2011.62,1378.09 2013.59,1378.19 2015.56,1378.28 2017.54,1378.37 2019.51,1378.46 2021.48,1378.55 2023.45,1378.64 2025.43,1378.73 2027.4,1378.81 2029.37,1378.9 2031.34,1378.98 2033.31,1379.06 2035.29,1379.14 2037.26,1379.22 2039.23,1379.3 2041.2,1379.38 2043.18,1379.46 2045.15,1379.54 2047.12,1379.61 2049.09,1379.69 2051.06,1379.76 2053.04,1379.83 2055.01,1379.9 2056.98,1379.98 2058.95,1380.05 2060.93,1380.11 2062.9,1380.18 2064.87,1380.25 2066.84,1380.32 2068.81,1380.38 2070.79,1380.45 2072.76,1380.51 2074.73,1380.58 2076.7,1380.64 2078.68,1380.7 2080.65,1380.76 2082.62,1380.82 2084.59,1380.88 2086.56,1380.94 2088.54,1381 2090.51,1381.06 2092.48,1381.11 2094.45,1381.17 2096.43,1381.22 2098.4,1381.28 2100.37,1381.33 2102.34,1381.39 2104.31,1381.44 2106.29,1381.49 2108.26,1381.54 2110.23,1381.59 2112.2,1381.64 2114.18,1381.69 2116.15,1381.74 2118.12,1381.79 2120.09,1381.84 2122.06,1381.88 2124.04,1381.93 2126.01,1381.97 2127.98,1382.02 2129.95,1382.06 2131.93,1382.11 2133.9,1382.15 2135.87,1382.19 2137.84,1382.24 2139.81,1382.28 2141.79,1382.32 2143.76,1382.36 2145.73,1382.4 2147.7,1382.44 2149.68,1382.48 2151.65,1382.52 2153.62,1382.55 2155.59,1382.59 2157.56,1382.63 2159.54,1382.67 2161.51,1382.7 2163.48,1382.74 2165.45,1382.77 2167.43,1382.81 2169.4,1382.84 2171.37,1382.88 2173.34,1382.91 2175.31,1382.94 2177.29,1382.97 2179.26,1383.01 2181.23,1383.04 2183.2,1383.07 2185.18,1383.1 2187.15,1383.13 2189.12,1383.16 2191.09,1383.19 2193.06,1383.22 2195.04,1383.25 2197.01,1383.27 2198.98,1383.3 2200.95,1383.33 2202.93,1383.36 2204.9,1383.38 2206.87,1383.41 2208.84,1383.43 2210.81,1383.46 2212.79,1383.48 2214.76,1383.51 2216.73,1383.53 2218.7,1383.56 2220.68,1383.58 2222.65,1383.6 2224.62,1383.63 2226.59,1383.65 2228.56,1383.67 2230.54,1383.69 2232.51,1383.72 2234.48,1383.74 2236.45,1383.76 2238.43,1383.78 2240.4,1383.8 2242.37,1383.82 2244.34,1383.84 2246.31,1383.86 2248.29,1383.88 2250.26,1383.9 2252.23,1383.91 2254.2,1383.93 2256.18,1383.95 2258.15,1383.97 2260.12,1383.99 2262.09,1384 2264.06,1384.02 2266.04,1384.04 2268.01,1384.05 2269.98,1384.07 2271.95,1384.08 2273.93,1384.1 2275.9,1384.11 2277.87,1384.13 2279.84,1384.14 2281.81,1384.16 2283.79,1384.17 2285.76,1384.19 2287.73,1384.2 2289.7,1384.21 2291.68,1384.23 2293.65,1384.24 "/>
<polyline clip-path="url(#clip312)" style="stroke:#ff0000; stroke-linecap:round; stroke-linejoin:round; stroke-width:4; stroke-opacity:1; fill:none" points="1210.01,2799.12 1210.01,-1328.69 "/>
<polyline clip-path="url(#clip312)" style="stroke:#ff0000; stroke-linecap:round; stroke-linejoin:round; stroke-width:4; stroke-opacity:1; fill:none" points="1407.03,2799.12 1407.03,-1328.69 "/>
</svg>
