<?xml version="1.0" encoding="utf-8"?>
<svg xmlns="http://www.w3.org/2000/svg" xmlns:xlink="http://www.w3.org/1999/xlink" width="600" height="400" viewBox="0 0 2400 1600">
<defs>
  <clipPath id="clip350">
    <rect x="0" y="0" width="2400" height="1600"/>
  </clipPath>
</defs>
<path clip-path="url(#clip350)" d="M0 1600 L2400 1600 L2400 0 L0 0  Z" fill="#ffffff" fill-rule="evenodd" fill-opacity="1"/>
<defs>
  <clipPath id="clip351">
    <rect x="480" y="0" width="1681" height="1600"/>
  </clipPath>
</defs>
<path clip-path="url(#clip350)" d="M279.866 1423.18 L2352.76 1423.18 L2352.76 47.2441 L279.866 47.2441  Z" fill="#ffffff" fill-rule="evenodd" fill-opacity="1"/>
<defs>
  <clipPath id="clip352">
    <rect x="279" y="47" width="2074" height="1377"/>
  </clipPath>
</defs>
<polyline clip-path="url(#clip352)" style="stroke:#000000; stroke-linecap:round; stroke-linejoin:round; stroke-width:2; stroke-opacity:0.1; fill:none" points="534.088,1423.18 534.088,47.2441 "/>
<polyline clip-path="url(#clip352)" style="stroke:#000000; stroke-linecap:round; stroke-linejoin:round; stroke-width:2; stroke-opacity:0.1; fill:none" points="925.2,1423.18 925.2,47.2441 "/>
<polyline clip-path="url(#clip352)" style="stroke:#000000; stroke-linecap:round; stroke-linejoin:round; stroke-width:2; stroke-opacity:0.1; fill:none" points="1316.31,1423.18 1316.31,47.2441 "/>
<polyline clip-path="url(#clip352)" style="stroke:#000000; stroke-linecap:round; stroke-linejoin:round; stroke-width:2; stroke-opacity:0.1; fill:none" points="1707.42,1423.18 1707.42,47.2441 "/>
<polyline clip-path="url(#clip352)" style="stroke:#000000; stroke-linecap:round; stroke-linejoin:round; stroke-width:2; stroke-opacity:0.1; fill:none" points="2098.53,1423.18 2098.53,47.2441 "/>
<polyline clip-path="url(#clip352)" style="stroke:#000000; stroke-linecap:round; stroke-linejoin:round; stroke-width:2; stroke-opacity:0.1; fill:none" points="279.866,1245.02 2352.76,1245.02 "/>
<polyline clip-path="url(#clip352)" style="stroke:#000000; stroke-linecap:round; stroke-linejoin:round; stroke-width:2; stroke-opacity:0.1; fill:none" points="279.866,942.052 2352.76,942.052 "/>
<polyline clip-path="url(#clip352)" style="stroke:#000000; stroke-linecap:round; stroke-linejoin:round; stroke-width:2; stroke-opacity:0.1; fill:none" points="279.866,639.084 2352.76,639.084 "/>
<polyline clip-path="url(#clip352)" style="stroke:#000000; stroke-linecap:round; stroke-linejoin:round; stroke-width:2; stroke-opacity:0.1; fill:none" points="279.866,336.116 2352.76,336.116 "/>
<polyline clip-path="url(#clip350)" style="stroke:#000000; stroke-linecap:round; stroke-linejoin:round; stroke-width:4; stroke-opacity:1; fill:none" points="279.866,1423.18 2352.76,1423.18 "/>
<polyline clip-path="url(#clip350)" style="stroke:#000000; stroke-linecap:round; stroke-linejoin:round; stroke-width:4; stroke-opacity:1; fill:none" points="534.088,1423.18 534.088,1404.28 "/>
<polyline clip-path="url(#clip350)" style="stroke:#000000; stroke-linecap:round; stroke-linejoin:round; stroke-width:4; stroke-opacity:1; fill:none" points="925.2,1423.18 925.2,1404.28 "/>
<polyline clip-path="url(#clip350)" style="stroke:#000000; stroke-linecap:round; stroke-linejoin:round; stroke-width:4; stroke-opacity:1; fill:none" points="1316.31,1423.18 1316.31,1404.28 "/>
<polyline clip-path="url(#clip350)" style="stroke:#000000; stroke-linecap:round; stroke-linejoin:round; stroke-width:4; stroke-opacity:1; fill:none" points="1707.42,1423.18 1707.42,1404.28 "/>
<polyline clip-path="url(#clip350)" style="stroke:#000000; stroke-linecap:round; stroke-linejoin:round; stroke-width:4; stroke-opacity:1; fill:none" points="2098.53,1423.18 2098.53,1404.28 "/>
<path clip-path="url(#clip350)" d="M490.165 1481.64 L506.484 1481.64 L506.484 1485.58 L484.54 1485.58 L484.54 1481.64 Q487.202 1478.89 491.785 1474.26 Q496.392 1469.61 497.572 1468.27 Q499.818 1465.74 500.697 1464.01 Q501.6 1462.25 501.6 1460.56 Q501.6 1457.8 499.656 1456.07 Q497.734 1454.33 494.632 1454.33 Q492.433 1454.33 489.98 1455.09 Q487.549 1455.86 484.771 1457.41 L484.771 1452.69 Q487.595 1451.55 490.049 1450.97 Q492.503 1450.39 494.54 1450.39 Q499.91 1450.39 503.105 1453.08 Q506.299 1455.77 506.299 1460.26 Q506.299 1462.39 505.489 1464.31 Q504.702 1466.2 502.595 1468.8 Q502.017 1469.47 498.915 1472.69 Q495.813 1475.88 490.165 1481.64 Z" fill="#000000" fill-rule="nonzero" fill-opacity="1" /><path clip-path="url(#clip350)" d="M526.878 1466.44 Q523.73 1466.44 521.878 1468.59 Q520.049 1470.74 520.049 1474.49 Q520.049 1478.22 521.878 1480.39 Q523.73 1482.55 526.878 1482.55 Q530.026 1482.55 531.855 1480.39 Q533.706 1478.22 533.706 1474.49 Q533.706 1470.74 531.855 1468.59 Q530.026 1466.44 526.878 1466.44 M536.16 1451.78 L536.16 1456.04 Q534.401 1455.21 532.595 1454.77 Q530.813 1454.33 529.054 1454.33 Q524.424 1454.33 521.97 1457.45 Q519.54 1460.58 519.193 1466.9 Q520.558 1464.89 522.618 1463.82 Q524.679 1462.73 527.155 1462.73 Q532.364 1462.73 535.373 1465.9 Q538.405 1469.05 538.405 1474.49 Q538.405 1479.82 535.257 1483.03 Q532.109 1486.25 526.878 1486.25 Q520.882 1486.25 517.711 1481.67 Q514.54 1477.06 514.54 1468.33 Q514.54 1460.14 518.429 1455.28 Q522.318 1450.39 528.868 1450.39 Q530.628 1450.39 532.41 1450.74 Q534.216 1451.09 536.16 1451.78 Z" fill="#000000" fill-rule="nonzero" fill-opacity="1" /><path clip-path="url(#clip350)" d="M546.461 1479.7 L551.345 1479.7 L551.345 1485.58 L546.461 1485.58 L546.461 1479.7 Z" fill="#000000" fill-rule="nonzero" fill-opacity="1" /><path clip-path="url(#clip350)" d="M572.109 1466.44 Q568.961 1466.44 567.109 1468.59 Q565.28 1470.74 565.28 1474.49 Q565.28 1478.22 567.109 1480.39 Q568.961 1482.55 572.109 1482.55 Q575.257 1482.55 577.086 1480.39 Q578.938 1478.22 578.938 1474.49 Q578.938 1470.74 577.086 1468.59 Q575.257 1466.44 572.109 1466.44 M581.391 1451.78 L581.391 1456.04 Q579.632 1455.21 577.826 1454.77 Q576.044 1454.33 574.285 1454.33 Q569.655 1454.33 567.202 1457.45 Q564.771 1460.58 564.424 1466.9 Q565.79 1464.89 567.85 1463.82 Q569.91 1462.73 572.387 1462.73 Q577.595 1462.73 580.604 1465.9 Q583.637 1469.05 583.637 1474.49 Q583.637 1479.82 580.489 1483.03 Q577.34 1486.25 572.109 1486.25 Q566.114 1486.25 562.942 1481.67 Q559.771 1477.06 559.771 1468.33 Q559.771 1460.14 563.66 1455.28 Q567.549 1450.39 574.1 1450.39 Q575.859 1450.39 577.641 1450.74 Q579.447 1451.09 581.391 1451.78 Z" fill="#000000" fill-rule="nonzero" fill-opacity="1" /><path clip-path="url(#clip350)" d="M881.404 1481.64 L897.723 1481.64 L897.723 1485.58 L875.779 1485.58 L875.779 1481.64 Q878.441 1478.89 883.024 1474.26 Q887.63 1469.61 888.811 1468.27 Q891.056 1465.74 891.936 1464.01 Q892.839 1462.25 892.839 1460.56 Q892.839 1457.8 890.894 1456.07 Q888.973 1454.33 885.871 1454.33 Q883.672 1454.33 881.218 1455.09 Q878.788 1455.86 876.01 1457.41 L876.01 1452.69 Q878.834 1451.55 881.288 1450.97 Q883.742 1450.39 885.779 1450.39 Q891.149 1450.39 894.343 1453.08 Q897.538 1455.77 897.538 1460.26 Q897.538 1462.39 896.728 1464.31 Q895.941 1466.2 893.834 1468.8 Q893.255 1469.47 890.154 1472.69 Q887.052 1475.88 881.404 1481.64 Z" fill="#000000" fill-rule="nonzero" fill-opacity="1" /><path clip-path="url(#clip350)" d="M918.116 1466.44 Q914.968 1466.44 913.116 1468.59 Q911.288 1470.74 911.288 1474.49 Q911.288 1478.22 913.116 1480.39 Q914.968 1482.55 918.116 1482.55 Q921.264 1482.55 923.093 1480.39 Q924.945 1478.22 924.945 1474.49 Q924.945 1470.74 923.093 1468.59 Q921.264 1466.44 918.116 1466.44 M927.399 1451.78 L927.399 1456.04 Q925.639 1455.21 923.834 1454.77 Q922.051 1454.33 920.292 1454.33 Q915.663 1454.33 913.209 1457.45 Q910.778 1460.58 910.431 1466.9 Q911.797 1464.89 913.857 1463.82 Q915.917 1462.73 918.394 1462.73 Q923.602 1462.73 926.612 1465.9 Q929.644 1469.05 929.644 1474.49 Q929.644 1479.82 926.496 1483.03 Q923.348 1486.25 918.116 1486.25 Q912.121 1486.25 908.95 1481.67 Q905.778 1477.06 905.778 1468.33 Q905.778 1460.14 909.667 1455.28 Q913.556 1450.39 920.107 1450.39 Q921.866 1450.39 923.649 1450.74 Q925.454 1451.09 927.399 1451.78 Z" fill="#000000" fill-rule="nonzero" fill-opacity="1" /><path clip-path="url(#clip350)" d="M937.7 1479.7 L942.584 1479.7 L942.584 1485.58 L937.7 1485.58 L937.7 1479.7 Z" fill="#000000" fill-rule="nonzero" fill-opacity="1" /><path clip-path="url(#clip350)" d="M962.769 1469.17 Q959.436 1469.17 957.514 1470.95 Q955.616 1472.73 955.616 1475.86 Q955.616 1478.98 957.514 1480.77 Q959.436 1482.55 962.769 1482.55 Q966.102 1482.55 968.023 1480.77 Q969.945 1478.96 969.945 1475.86 Q969.945 1472.73 968.023 1470.95 Q966.125 1469.17 962.769 1469.17 M958.093 1467.18 Q955.084 1466.44 953.394 1464.38 Q951.727 1462.32 951.727 1459.35 Q951.727 1455.21 954.667 1452.8 Q957.63 1450.39 962.769 1450.39 Q967.931 1450.39 970.871 1452.8 Q973.81 1455.21 973.81 1459.35 Q973.81 1462.32 972.121 1464.38 Q970.454 1466.44 967.468 1467.18 Q970.848 1467.96 972.723 1470.26 Q974.621 1472.55 974.621 1475.86 Q974.621 1480.88 971.542 1483.57 Q968.486 1486.25 962.769 1486.25 Q957.051 1486.25 953.973 1483.57 Q950.917 1480.88 950.917 1475.86 Q950.917 1472.55 952.815 1470.26 Q954.713 1467.96 958.093 1467.18 M956.38 1459.79 Q956.38 1462.48 958.047 1463.98 Q959.736 1465.49 962.769 1465.49 Q965.778 1465.49 967.468 1463.98 Q969.181 1462.48 969.181 1459.79 Q969.181 1457.11 967.468 1455.6 Q965.778 1454.1 962.769 1454.1 Q959.736 1454.1 958.047 1455.6 Q956.38 1457.11 956.38 1459.79 Z" fill="#000000" fill-rule="nonzero" fill-opacity="1" /><path clip-path="url(#clip350)" d="M1272.47 1481.64 L1288.79 1481.64 L1288.79 1485.58 L1266.84 1485.58 L1266.84 1481.64 Q1269.51 1478.89 1274.09 1474.26 Q1278.7 1469.61 1279.88 1468.27 Q1282.12 1465.74 1283 1464.01 Q1283.9 1462.25 1283.9 1460.56 Q1283.9 1457.8 1281.96 1456.07 Q1280.04 1454.33 1276.94 1454.33 Q1274.74 1454.33 1272.28 1455.09 Q1269.85 1455.86 1267.08 1457.41 L1267.08 1452.69 Q1269.9 1451.55 1272.35 1450.97 Q1274.81 1450.39 1276.84 1450.39 Q1282.21 1450.39 1285.41 1453.08 Q1288.6 1455.77 1288.6 1460.26 Q1288.6 1462.39 1287.79 1464.31 Q1287.01 1466.2 1284.9 1468.8 Q1284.32 1469.47 1281.22 1472.69 Q1278.12 1475.88 1272.47 1481.64 Z" fill="#000000" fill-rule="nonzero" fill-opacity="1" /><path clip-path="url(#clip350)" d="M1297.42 1451.02 L1319.64 1451.02 L1319.64 1453.01 L1307.1 1485.58 L1302.21 1485.58 L1314.02 1454.96 L1297.42 1454.96 L1297.42 1451.02 Z" fill="#000000" fill-rule="nonzero" fill-opacity="1" /><path clip-path="url(#clip350)" d="M1328.76 1479.7 L1333.65 1479.7 L1333.65 1485.58 L1328.76 1485.58 L1328.76 1479.7 Z" fill="#000000" fill-rule="nonzero" fill-opacity="1" /><path clip-path="url(#clip350)" d="M1353.83 1454.1 Q1350.22 1454.1 1348.39 1457.66 Q1346.59 1461.2 1346.59 1468.33 Q1346.59 1475.44 1348.39 1479.01 Q1350.22 1482.55 1353.83 1482.55 Q1357.47 1482.55 1359.27 1479.01 Q1361.1 1475.44 1361.1 1468.33 Q1361.1 1461.2 1359.27 1457.66 Q1357.47 1454.1 1353.83 1454.1 M1353.83 1450.39 Q1359.64 1450.39 1362.7 1455 Q1365.78 1459.58 1365.78 1468.33 Q1365.78 1477.06 1362.7 1481.67 Q1359.64 1486.25 1353.83 1486.25 Q1348.02 1486.25 1344.95 1481.67 Q1341.89 1477.06 1341.89 1468.33 Q1341.89 1459.58 1344.95 1455 Q1348.02 1450.39 1353.83 1450.39 Z" fill="#000000" fill-rule="nonzero" fill-opacity="1" /><path clip-path="url(#clip350)" d="M1664.38 1481.64 L1680.7 1481.64 L1680.7 1485.58 L1658.75 1485.58 L1658.75 1481.64 Q1661.42 1478.89 1666 1474.26 Q1670.61 1469.61 1671.79 1468.27 Q1674.03 1465.74 1674.91 1464.01 Q1675.81 1462.25 1675.81 1460.56 Q1675.81 1457.8 1673.87 1456.07 Q1671.95 1454.33 1668.85 1454.33 Q1666.65 1454.33 1664.19 1455.09 Q1661.76 1455.86 1658.98 1457.41 L1658.98 1452.69 Q1661.81 1451.55 1664.26 1450.97 Q1666.72 1450.39 1668.75 1450.39 Q1674.12 1450.39 1677.32 1453.08 Q1680.51 1455.77 1680.51 1460.26 Q1680.51 1462.39 1679.7 1464.31 Q1678.92 1466.2 1676.81 1468.8 Q1676.23 1469.47 1673.13 1472.69 Q1670.03 1475.88 1664.38 1481.64 Z" fill="#000000" fill-rule="nonzero" fill-opacity="1" /><path clip-path="url(#clip350)" d="M1689.33 1451.02 L1711.55 1451.02 L1711.55 1453.01 L1699.01 1485.58 L1694.12 1485.58 L1705.93 1454.96 L1689.33 1454.96 L1689.33 1451.02 Z" fill="#000000" fill-rule="nonzero" fill-opacity="1" /><path clip-path="url(#clip350)" d="M1720.67 1479.7 L1725.56 1479.7 L1725.56 1485.58 L1720.67 1485.58 L1720.67 1479.7 Z" fill="#000000" fill-rule="nonzero" fill-opacity="1" /><path clip-path="url(#clip350)" d="M1739.77 1481.64 L1756.09 1481.64 L1756.09 1485.58 L1734.15 1485.58 L1734.15 1481.64 Q1736.81 1478.89 1741.39 1474.26 Q1746 1469.61 1747.18 1468.27 Q1749.42 1465.74 1750.3 1464.01 Q1751.21 1462.25 1751.21 1460.56 Q1751.21 1457.8 1749.26 1456.07 Q1747.34 1454.33 1744.24 1454.33 Q1742.04 1454.33 1739.59 1455.09 Q1737.16 1455.86 1734.38 1457.41 L1734.38 1452.69 Q1737.2 1451.55 1739.66 1450.97 Q1742.11 1450.39 1744.15 1450.39 Q1749.52 1450.39 1752.71 1453.08 Q1755.91 1455.77 1755.91 1460.26 Q1755.91 1462.39 1755.1 1464.31 Q1754.31 1466.2 1752.2 1468.8 Q1751.62 1469.47 1748.52 1472.69 Q1745.42 1475.88 1739.77 1481.64 Z" fill="#000000" fill-rule="nonzero" fill-opacity="1" /><path clip-path="url(#clip350)" d="M2054.45 1481.64 L2070.77 1481.64 L2070.77 1485.58 L2048.82 1485.58 L2048.82 1481.64 Q2051.49 1478.89 2056.07 1474.26 Q2060.67 1469.61 2061.86 1468.27 Q2064.1 1465.74 2064.98 1464.01 Q2065.88 1462.25 2065.88 1460.56 Q2065.88 1457.8 2063.94 1456.07 Q2062.02 1454.33 2058.92 1454.33 Q2056.72 1454.33 2054.26 1455.09 Q2051.83 1455.86 2049.05 1457.41 L2049.05 1452.69 Q2051.88 1451.55 2054.33 1450.97 Q2056.79 1450.39 2058.82 1450.39 Q2064.19 1450.39 2067.39 1453.08 Q2070.58 1455.77 2070.58 1460.26 Q2070.58 1462.39 2069.77 1464.31 Q2068.99 1466.2 2066.88 1468.8 Q2066.3 1469.47 2063.2 1472.69 Q2060.1 1475.88 2054.45 1481.64 Z" fill="#000000" fill-rule="nonzero" fill-opacity="1" /><path clip-path="url(#clip350)" d="M2079.4 1451.02 L2101.62 1451.02 L2101.62 1453.01 L2089.08 1485.58 L2084.19 1485.58 L2096 1454.96 L2079.4 1454.96 L2079.4 1451.02 Z" fill="#000000" fill-rule="nonzero" fill-opacity="1" /><path clip-path="url(#clip350)" d="M2110.74 1479.7 L2115.63 1479.7 L2115.63 1485.58 L2110.74 1485.58 L2110.74 1479.7 Z" fill="#000000" fill-rule="nonzero" fill-opacity="1" /><path clip-path="url(#clip350)" d="M2138.66 1455.09 L2126.86 1473.54 L2138.66 1473.54 L2138.66 1455.09 M2137.43 1451.02 L2143.31 1451.02 L2143.31 1473.54 L2148.24 1473.54 L2148.24 1477.43 L2143.31 1477.43 L2143.31 1485.58 L2138.66 1485.58 L2138.66 1477.43 L2123.06 1477.43 L2123.06 1472.92 L2137.43 1451.02 Z" fill="#000000" fill-rule="nonzero" fill-opacity="1" /><path clip-path="url(#clip350)" d="M1024.48 1520.52 L1051.78 1520.52 L1051.78 1525.93 L1030.9 1525.93 L1030.9 1539.94 L1049.75 1539.94 L1049.75 1545.35 L1030.9 1545.35 L1030.9 1568.04 L1024.48 1568.04 L1024.48 1520.52 Z" fill="#000000" fill-rule="nonzero" fill-opacity="1" /><path clip-path="url(#clip350)" d="M1077.63 1537.87 Q1076.64 1537.3 1075.46 1537.04 Q1074.32 1536.76 1072.92 1536.76 Q1067.95 1536.76 1065.28 1540 Q1062.64 1543.22 1062.64 1549.27 L1062.64 1568.04 L1056.75 1568.04 L1056.75 1532.4 L1062.64 1532.4 L1062.64 1537.93 Q1064.48 1534.69 1067.44 1533.13 Q1070.4 1531.54 1074.64 1531.54 Q1075.24 1531.54 1075.97 1531.63 Q1076.71 1531.7 1077.6 1531.85 L1077.63 1537.87 Z" fill="#000000" fill-rule="nonzero" fill-opacity="1" /><path clip-path="url(#clip350)" d="M1112.83 1548.76 L1112.83 1551.62 L1085.9 1551.62 Q1086.29 1557.67 1089.53 1560.85 Q1092.81 1564 1098.64 1564 Q1102.01 1564 1105.16 1563.17 Q1108.34 1562.35 1111.46 1560.69 L1111.46 1566.23 Q1108.31 1567.57 1105 1568.27 Q1101.69 1568.97 1098.29 1568.97 Q1089.76 1568.97 1084.76 1564 Q1079.79 1559.04 1079.79 1550.57 Q1079.79 1541.82 1084.5 1536.69 Q1089.25 1531.54 1097.27 1531.54 Q1104.46 1531.54 1108.63 1536.18 Q1112.83 1540.8 1112.83 1548.76 M1106.97 1547.04 Q1106.91 1542.23 1104.27 1539.37 Q1101.66 1536.5 1097.33 1536.5 Q1092.43 1536.5 1089.47 1539.27 Q1086.54 1542.04 1086.1 1547.07 L1106.97 1547.04 Z" fill="#000000" fill-rule="nonzero" fill-opacity="1" /><path clip-path="url(#clip350)" d="M1125.94 1550.25 Q1125.94 1556.71 1128.59 1560.4 Q1131.26 1564.07 1135.91 1564.07 Q1140.55 1564.07 1143.23 1560.4 Q1145.9 1556.71 1145.9 1550.25 Q1145.9 1543.79 1143.23 1540.13 Q1140.55 1536.44 1135.91 1536.44 Q1131.26 1536.44 1128.59 1540.13 Q1125.94 1543.79 1125.94 1550.25 M1145.9 1562.7 Q1144.05 1565.88 1141.22 1567.44 Q1138.42 1568.97 1134.47 1568.97 Q1128.01 1568.97 1123.94 1563.81 Q1119.9 1558.65 1119.9 1550.25 Q1119.9 1541.85 1123.94 1536.69 Q1128.01 1531.54 1134.47 1531.54 Q1138.42 1531.54 1141.22 1533.1 Q1144.05 1534.62 1145.9 1537.81 L1145.9 1532.4 L1151.76 1532.4 L1151.76 1581.6 L1145.9 1581.6 L1145.9 1562.7 Z" fill="#000000" fill-rule="nonzero" fill-opacity="1" /><path clip-path="url(#clip350)" d="M1163.22 1553.98 L1163.22 1532.4 L1169.07 1532.4 L1169.07 1553.75 Q1169.07 1558.81 1171.05 1561.36 Q1173.02 1563.87 1176.97 1563.87 Q1181.71 1563.87 1184.45 1560.85 Q1187.21 1557.83 1187.21 1552.61 L1187.21 1532.4 L1193.07 1532.4 L1193.07 1568.04 L1187.21 1568.04 L1187.21 1562.57 Q1185.08 1565.82 1182.25 1567.41 Q1179.45 1568.97 1175.72 1568.97 Q1169.58 1568.97 1166.4 1565.15 Q1163.22 1561.33 1163.22 1553.98 M1177.95 1531.54 L1177.95 1531.54 Z" fill="#000000" fill-rule="nonzero" fill-opacity="1" /><path clip-path="url(#clip350)" d="M1235.63 1548.76 L1235.63 1551.62 L1208.7 1551.62 Q1209.08 1557.67 1212.33 1560.85 Q1215.61 1564 1221.43 1564 Q1224.8 1564 1227.95 1563.17 Q1231.14 1562.35 1234.26 1560.69 L1234.26 1566.23 Q1231.11 1567.57 1227.8 1568.27 Q1224.49 1568.97 1221.08 1568.97 Q1212.55 1568.97 1207.55 1564 Q1202.59 1559.04 1202.59 1550.57 Q1202.59 1541.82 1207.3 1536.69 Q1212.04 1531.54 1220.06 1531.54 Q1227.25 1531.54 1231.42 1536.18 Q1235.63 1540.8 1235.63 1548.76 M1229.77 1547.04 Q1229.71 1542.23 1227.06 1539.37 Q1224.45 1536.5 1220.13 1536.5 Q1215.22 1536.5 1212.26 1539.27 Q1209.34 1542.04 1208.89 1547.07 L1229.77 1547.04 Z" fill="#000000" fill-rule="nonzero" fill-opacity="1" /><path clip-path="url(#clip350)" d="M1274.87 1546.53 L1274.87 1568.04 L1269.01 1568.04 L1269.01 1546.72 Q1269.01 1541.66 1267.04 1539.14 Q1265.07 1536.63 1261.12 1536.63 Q1256.38 1536.63 1253.64 1539.65 Q1250.9 1542.68 1250.9 1547.9 L1250.9 1568.04 L1245.02 1568.04 L1245.02 1532.4 L1250.9 1532.4 L1250.9 1537.93 Q1253 1534.72 1255.84 1533.13 Q1258.7 1531.54 1262.43 1531.54 Q1268.57 1531.54 1271.72 1535.36 Q1274.87 1539.14 1274.87 1546.53 Z" fill="#000000" fill-rule="nonzero" fill-opacity="1" /><path clip-path="url(#clip350)" d="M1312.21 1533.76 L1312.21 1539.24 Q1309.72 1537.87 1307.21 1537.2 Q1304.73 1536.5 1302.18 1536.5 Q1296.48 1536.5 1293.33 1540.13 Q1290.18 1543.73 1290.18 1550.25 Q1290.18 1556.78 1293.33 1560.4 Q1296.48 1564 1302.18 1564 Q1304.73 1564 1307.21 1563.33 Q1309.72 1562.63 1312.21 1561.26 L1312.21 1566.68 Q1309.75 1567.82 1307.11 1568.39 Q1304.5 1568.97 1301.54 1568.97 Q1293.49 1568.97 1288.75 1563.91 Q1284 1558.85 1284 1550.25 Q1284 1541.53 1288.78 1536.53 Q1293.59 1531.54 1301.92 1531.54 Q1304.63 1531.54 1307.21 1532.11 Q1309.79 1532.65 1312.21 1533.76 Z" fill="#000000" fill-rule="nonzero" fill-opacity="1" /><path clip-path="url(#clip350)" d="M1322.39 1532.4 L1328.25 1532.4 L1328.25 1568.04 L1322.39 1568.04 L1322.39 1532.4 M1322.39 1518.52 L1328.25 1518.52 L1328.25 1525.93 L1322.39 1525.93 L1322.39 1518.52 Z" fill="#000000" fill-rule="nonzero" fill-opacity="1" /><path clip-path="url(#clip350)" d="M1370.99 1548.76 L1370.99 1551.62 L1344.07 1551.62 Q1344.45 1557.67 1347.69 1560.85 Q1350.97 1564 1356.8 1564 Q1360.17 1564 1363.32 1563.17 Q1366.5 1562.35 1369.62 1560.69 L1369.62 1566.23 Q1366.47 1567.57 1363.16 1568.27 Q1359.85 1568.97 1356.45 1568.97 Q1347.92 1568.97 1342.92 1564 Q1337.95 1559.04 1337.95 1550.57 Q1337.95 1541.82 1342.66 1536.69 Q1347.41 1531.54 1355.43 1531.54 Q1362.62 1531.54 1366.79 1536.18 Q1370.99 1540.8 1370.99 1548.76 M1365.14 1547.04 Q1365.07 1542.23 1362.43 1539.37 Q1359.82 1536.5 1355.49 1536.5 Q1350.59 1536.5 1347.63 1539.27 Q1344.7 1542.04 1344.26 1547.07 L1365.14 1547.04 Z" fill="#000000" fill-rule="nonzero" fill-opacity="1" /><path clip-path="url(#clip350)" d="M1403.33 1533.45 L1403.33 1538.98 Q1400.85 1537.71 1398.17 1537.07 Q1395.5 1536.44 1392.64 1536.44 Q1388.28 1536.44 1386.08 1537.77 Q1383.91 1539.11 1383.91 1541.79 Q1383.91 1543.82 1385.47 1545 Q1387.03 1546.15 1391.74 1547.2 L1393.75 1547.64 Q1399.99 1548.98 1402.6 1551.43 Q1405.24 1553.85 1405.24 1558.21 Q1405.24 1563.17 1401.29 1566.07 Q1397.38 1568.97 1390.5 1568.97 Q1387.64 1568.97 1384.52 1568.39 Q1381.43 1567.85 1377.99 1566.74 L1377.99 1560.69 Q1381.24 1562.38 1384.39 1563.24 Q1387.54 1564.07 1390.63 1564.07 Q1394.77 1564.07 1397 1562.66 Q1399.22 1561.23 1399.22 1558.65 Q1399.22 1556.27 1397.6 1554.99 Q1396.01 1553.72 1390.57 1552.54 L1388.53 1552.07 Q1383.09 1550.92 1380.67 1548.56 Q1378.25 1546.18 1378.25 1542.04 Q1378.25 1537.01 1381.81 1534.27 Q1385.38 1531.54 1391.94 1531.54 Q1395.18 1531.54 1398.05 1532.01 Q1400.91 1532.49 1403.33 1533.45 Z" fill="#000000" fill-rule="nonzero" fill-opacity="1" /><path clip-path="url(#clip350)" d="M1434.74 1518.52 L1448.24 1518.52 L1448.24 1523.07 L1440.6 1523.07 L1440.6 1572.09 L1448.24 1572.09 L1448.24 1576.64 L1434.74 1576.64 L1434.74 1518.52 Z" fill="#000000" fill-rule="nonzero" fill-opacity="1" /><path clip-path="url(#clip350)" d="M1493.37 1561.26 L1493.37 1548.5 L1482.87 1548.5 L1482.87 1543.22 L1499.74 1543.22 L1499.74 1563.62 Q1496.01 1566.26 1491.53 1567.63 Q1487.04 1568.97 1481.95 1568.97 Q1470.81 1568.97 1464.5 1562.47 Q1458.23 1555.95 1458.23 1544.33 Q1458.23 1532.68 1464.5 1526.19 Q1470.81 1519.66 1481.95 1519.66 Q1486.59 1519.66 1490.76 1520.81 Q1494.96 1521.96 1498.5 1524.18 L1498.5 1531.03 Q1494.93 1528 1490.92 1526.48 Q1486.91 1524.95 1482.49 1524.95 Q1473.77 1524.95 1469.37 1529.82 Q1465.01 1534.69 1465.01 1544.33 Q1465.01 1553.94 1469.37 1558.81 Q1473.77 1563.68 1482.49 1563.68 Q1485.89 1563.68 1488.57 1563.11 Q1491.24 1562.51 1493.37 1561.26 Z" fill="#000000" fill-rule="nonzero" fill-opacity="1" /><path clip-path="url(#clip350)" d="M1511.48 1520.52 L1517.91 1520.52 L1517.91 1540 L1541.27 1540 L1541.27 1520.52 L1547.7 1520.52 L1547.7 1568.04 L1541.27 1568.04 L1541.27 1545.41 L1517.91 1545.41 L1517.91 1568.04 L1511.48 1568.04 L1511.48 1520.52 Z" fill="#000000" fill-rule="nonzero" fill-opacity="1" /><path clip-path="url(#clip350)" d="M1557.7 1532.4 L1585.52 1532.4 L1585.52 1537.74 L1563.49 1563.37 L1585.52 1563.37 L1585.52 1568.04 L1556.9 1568.04 L1556.9 1562.7 L1578.93 1537.07 L1557.7 1537.07 L1557.7 1532.4 Z" fill="#000000" fill-rule="nonzero" fill-opacity="1" /><path clip-path="url(#clip350)" d="M1608.15 1518.52 L1608.15 1576.64 L1594.65 1576.64 L1594.65 1572.09 L1602.26 1572.09 L1602.26 1523.07 L1594.65 1523.07 L1594.65 1518.52 L1608.15 1518.52 Z" fill="#000000" fill-rule="nonzero" fill-opacity="1" /><polyline clip-path="url(#clip350)" style="stroke:#000000; stroke-linecap:round; stroke-linejoin:round; stroke-width:4; stroke-opacity:1; fill:none" points="279.866,1423.18 279.866,47.2441 "/>
<polyline clip-path="url(#clip350)" style="stroke:#000000; stroke-linecap:round; stroke-linejoin:round; stroke-width:4; stroke-opacity:1; fill:none" points="279.866,1245.02 298.764,1245.02 "/>
<polyline clip-path="url(#clip350)" style="stroke:#000000; stroke-linecap:round; stroke-linejoin:round; stroke-width:4; stroke-opacity:1; fill:none" points="279.866,942.052 298.764,942.052 "/>
<polyline clip-path="url(#clip350)" style="stroke:#000000; stroke-linecap:round; stroke-linejoin:round; stroke-width:4; stroke-opacity:1; fill:none" points="279.866,639.084 298.764,639.084 "/>
<polyline clip-path="url(#clip350)" style="stroke:#000000; stroke-linecap:round; stroke-linejoin:round; stroke-width:4; stroke-opacity:1; fill:none" points="279.866,336.116 298.764,336.116 "/>
<path clip-path="url(#clip350)" d="M126.205 1230.82 Q122.593 1230.82 120.765 1234.38 Q118.959 1237.92 118.959 1245.05 Q118.959 1252.16 120.765 1255.73 Q122.593 1259.27 126.205 1259.27 Q129.839 1259.27 131.644 1255.73 Q133.473 1252.16 133.473 1245.05 Q133.473 1237.92 131.644 1234.38 Q129.839 1230.82 126.205 1230.82 M126.205 1227.11 Q132.015 1227.11 135.07 1231.72 Q138.149 1236.3 138.149 1245.05 Q138.149 1253.78 135.07 1258.39 Q132.015 1262.97 126.205 1262.97 Q120.394 1262.97 117.316 1258.39 Q114.26 1253.78 114.26 1245.05 Q114.26 1236.3 117.316 1231.72 Q120.394 1227.11 126.205 1227.11 Z" fill="#000000" fill-rule="nonzero" fill-opacity="1" /><path clip-path="url(#clip350)" d="M146.366 1256.42 L151.251 1256.42 L151.251 1262.3 L146.366 1262.3 L146.366 1256.42 Z" fill="#000000" fill-rule="nonzero" fill-opacity="1" /><path clip-path="url(#clip350)" d="M161.575 1261.58 L161.575 1257.32 Q163.334 1258.16 165.14 1258.6 Q166.945 1259.04 168.681 1259.04 Q173.311 1259.04 175.741 1255.93 Q178.195 1252.81 178.542 1246.47 Q177.2 1248.46 175.139 1249.52 Q173.079 1250.59 170.579 1250.59 Q165.394 1250.59 162.362 1247.46 Q159.353 1244.31 159.353 1238.87 Q159.353 1233.55 162.501 1230.33 Q165.649 1227.11 170.88 1227.11 Q176.876 1227.11 180.024 1231.72 Q183.195 1236.3 183.195 1245.05 Q183.195 1253.23 179.306 1258.11 Q175.44 1262.97 168.889 1262.97 Q167.13 1262.97 165.325 1262.62 Q163.519 1262.28 161.575 1261.58 M170.88 1246.93 Q174.028 1246.93 175.857 1244.78 Q177.709 1242.62 177.709 1238.87 Q177.709 1235.15 175.857 1232.99 Q174.028 1230.82 170.88 1230.82 Q167.732 1230.82 165.88 1232.99 Q164.052 1235.15 164.052 1238.87 Q164.052 1242.62 165.88 1244.78 Q167.732 1246.93 170.88 1246.93 Z" fill="#000000" fill-rule="nonzero" fill-opacity="1" /><path clip-path="url(#clip350)" d="M191.737 1261.58 L191.737 1257.32 Q193.496 1258.16 195.301 1258.6 Q197.107 1259.04 198.843 1259.04 Q203.473 1259.04 205.903 1255.93 Q208.357 1252.81 208.704 1246.47 Q207.362 1248.46 205.301 1249.52 Q203.241 1250.59 200.741 1250.59 Q195.556 1250.59 192.524 1247.46 Q189.514 1244.31 189.514 1238.87 Q189.514 1233.55 192.663 1230.33 Q195.811 1227.11 201.042 1227.11 Q207.037 1227.11 210.186 1231.72 Q213.357 1236.3 213.357 1245.05 Q213.357 1253.23 209.468 1258.11 Q205.602 1262.97 199.051 1262.97 Q197.292 1262.97 195.487 1262.62 Q193.681 1262.28 191.737 1261.58 M201.042 1246.93 Q204.19 1246.93 206.019 1244.78 Q207.871 1242.62 207.871 1238.87 Q207.871 1235.15 206.019 1232.99 Q204.19 1230.82 201.042 1230.82 Q197.894 1230.82 196.042 1232.99 Q194.213 1235.15 194.213 1238.87 Q194.213 1242.62 196.042 1244.78 Q197.894 1246.93 201.042 1246.93 Z" fill="#000000" fill-rule="nonzero" fill-opacity="1" /><path clip-path="url(#clip350)" d="M232.338 1243.16 Q229.19 1243.16 227.338 1245.31 Q225.51 1247.46 225.51 1251.21 Q225.51 1254.94 227.338 1257.11 Q229.19 1259.27 232.338 1259.27 Q235.486 1259.27 237.315 1257.11 Q239.167 1254.94 239.167 1251.21 Q239.167 1247.46 237.315 1245.31 Q235.486 1243.16 232.338 1243.16 M241.621 1228.5 L241.621 1232.76 Q239.861 1231.93 238.056 1231.49 Q236.273 1231.05 234.514 1231.05 Q229.885 1231.05 227.431 1234.17 Q225 1237.3 224.653 1243.62 Q226.019 1241.61 228.079 1240.54 Q230.139 1239.45 232.616 1239.45 Q237.824 1239.45 240.834 1242.62 Q243.866 1245.77 243.866 1251.21 Q243.866 1256.54 240.718 1259.75 Q237.57 1262.97 232.338 1262.97 Q226.343 1262.97 223.172 1258.39 Q220 1253.78 220 1245.05 Q220 1236.86 223.889 1232 Q227.778 1227.11 234.329 1227.11 Q236.088 1227.11 237.871 1227.46 Q239.676 1227.81 241.621 1228.5 Z" fill="#000000" fill-rule="nonzero" fill-opacity="1" /><path clip-path="url(#clip350)" d="M127.269 927.851 Q123.658 927.851 121.83 931.415 Q120.024 934.957 120.024 942.087 Q120.024 949.193 121.83 952.758 Q123.658 956.299 127.269 956.299 Q130.904 956.299 132.709 952.758 Q134.538 949.193 134.538 942.087 Q134.538 934.957 132.709 931.415 Q130.904 927.851 127.269 927.851 M127.269 924.147 Q133.08 924.147 136.135 928.753 Q139.214 933.337 139.214 942.087 Q139.214 950.813 136.135 955.42 Q133.08 960.003 127.269 960.003 Q121.459 960.003 118.381 955.42 Q115.325 950.813 115.325 942.087 Q115.325 933.337 118.381 928.753 Q121.459 924.147 127.269 924.147 Z" fill="#000000" fill-rule="nonzero" fill-opacity="1" /><path clip-path="url(#clip350)" d="M147.431 953.452 L152.316 953.452 L152.316 959.332 L147.431 959.332 L147.431 953.452 Z" fill="#000000" fill-rule="nonzero" fill-opacity="1" /><path clip-path="url(#clip350)" d="M162.64 958.614 L162.64 954.355 Q164.399 955.188 166.204 955.628 Q168.01 956.068 169.746 956.068 Q174.376 956.068 176.806 952.966 Q179.26 949.841 179.607 943.499 Q178.264 945.489 176.204 946.554 Q174.144 947.619 171.644 947.619 Q166.459 947.619 163.427 944.494 Q160.417 941.346 160.417 935.906 Q160.417 930.582 163.565 927.364 Q166.714 924.147 171.945 924.147 Q177.94 924.147 181.089 928.753 Q184.26 933.337 184.26 942.087 Q184.26 950.258 180.371 955.142 Q176.505 960.003 169.954 960.003 Q168.195 960.003 166.39 959.656 Q164.584 959.309 162.64 958.614 M171.945 943.962 Q175.093 943.962 176.922 941.809 Q178.774 939.656 178.774 935.906 Q178.774 932.179 176.922 930.026 Q175.093 927.851 171.945 927.851 Q168.797 927.851 166.945 930.026 Q165.116 932.179 165.116 935.906 Q165.116 939.656 166.945 941.809 Q168.797 943.962 171.945 943.962 Z" fill="#000000" fill-rule="nonzero" fill-opacity="1" /><path clip-path="url(#clip350)" d="M192.801 958.614 L192.801 954.355 Q194.561 955.188 196.366 955.628 Q198.172 956.068 199.908 956.068 Q204.537 956.068 206.968 952.966 Q209.422 949.841 209.769 943.499 Q208.426 945.489 206.366 946.554 Q204.306 947.619 201.806 947.619 Q196.621 947.619 193.588 944.494 Q190.579 941.346 190.579 935.906 Q190.579 930.582 193.727 927.364 Q196.875 924.147 202.107 924.147 Q208.102 924.147 211.25 928.753 Q214.422 933.337 214.422 942.087 Q214.422 950.258 210.533 955.142 Q206.667 960.003 200.116 960.003 Q198.357 960.003 196.551 959.656 Q194.746 959.309 192.801 958.614 M202.107 943.962 Q205.255 943.962 207.084 941.809 Q208.936 939.656 208.936 935.906 Q208.936 932.179 207.084 930.026 Q205.255 927.851 202.107 927.851 Q198.959 927.851 197.107 930.026 Q195.278 932.179 195.278 935.906 Q195.278 939.656 197.107 941.809 Q198.959 943.962 202.107 943.962 Z" fill="#000000" fill-rule="nonzero" fill-opacity="1" /><path clip-path="url(#clip350)" d="M221.644 924.772 L243.866 924.772 L243.866 926.763 L231.32 959.332 L226.435 959.332 L238.241 928.707 L221.644 928.707 L221.644 924.772 Z" fill="#000000" fill-rule="nonzero" fill-opacity="1" /><path clip-path="url(#clip350)" d="M126.459 624.883 Q122.848 624.883 121.019 628.448 Q119.214 631.989 119.214 639.119 Q119.214 646.225 121.019 649.79 Q122.848 653.332 126.459 653.332 Q130.093 653.332 131.899 649.79 Q133.728 646.225 133.728 639.119 Q133.728 631.989 131.899 628.448 Q130.093 624.883 126.459 624.883 M126.459 621.179 Q132.269 621.179 135.325 625.786 Q138.404 630.369 138.404 639.119 Q138.404 647.846 135.325 652.452 Q132.269 657.035 126.459 657.035 Q120.649 657.035 117.57 652.452 Q114.515 647.846 114.515 639.119 Q114.515 630.369 117.57 625.786 Q120.649 621.179 126.459 621.179 Z" fill="#000000" fill-rule="nonzero" fill-opacity="1" /><path clip-path="url(#clip350)" d="M146.621 650.485 L151.505 650.485 L151.505 656.364 L146.621 656.364 L146.621 650.485 Z" fill="#000000" fill-rule="nonzero" fill-opacity="1" /><path clip-path="url(#clip350)" d="M161.829 655.647 L161.829 651.387 Q163.589 652.221 165.394 652.66 Q167.2 653.1 168.936 653.1 Q173.565 653.1 175.996 649.998 Q178.45 646.873 178.797 640.531 Q177.454 642.522 175.394 643.586 Q173.334 644.651 170.834 644.651 Q165.649 644.651 162.616 641.526 Q159.607 638.378 159.607 632.938 Q159.607 627.614 162.755 624.397 Q165.903 621.179 171.135 621.179 Q177.13 621.179 180.278 625.786 Q183.45 630.369 183.45 639.119 Q183.45 647.29 179.561 652.174 Q175.695 657.035 169.144 657.035 Q167.385 657.035 165.579 656.688 Q163.774 656.341 161.829 655.647 M171.135 640.994 Q174.283 640.994 176.112 638.841 Q177.964 636.688 177.964 632.938 Q177.964 629.211 176.112 627.059 Q174.283 624.883 171.135 624.883 Q167.987 624.883 166.135 627.059 Q164.306 629.211 164.306 632.938 Q164.306 636.688 166.135 638.841 Q167.987 640.994 171.135 640.994 Z" fill="#000000" fill-rule="nonzero" fill-opacity="1" /><path clip-path="url(#clip350)" d="M191.991 655.647 L191.991 651.387 Q193.75 652.221 195.556 652.66 Q197.362 653.1 199.098 653.1 Q203.727 653.1 206.158 649.998 Q208.612 646.873 208.959 640.531 Q207.616 642.522 205.556 643.586 Q203.496 644.651 200.996 644.651 Q195.811 644.651 192.778 641.526 Q189.769 638.378 189.769 632.938 Q189.769 627.614 192.917 624.397 Q196.065 621.179 201.297 621.179 Q207.292 621.179 210.44 625.786 Q213.611 630.369 213.611 639.119 Q213.611 647.29 209.723 652.174 Q205.857 657.035 199.306 657.035 Q197.547 657.035 195.741 656.688 Q193.936 656.341 191.991 655.647 M201.297 640.994 Q204.445 640.994 206.274 638.841 Q208.125 636.688 208.125 632.938 Q208.125 629.211 206.274 627.059 Q204.445 624.883 201.297 624.883 Q198.149 624.883 196.297 627.059 Q194.468 629.211 194.468 632.938 Q194.468 636.688 196.297 638.841 Q198.149 640.994 201.297 640.994 Z" fill="#000000" fill-rule="nonzero" fill-opacity="1" /><path clip-path="url(#clip350)" d="M232.014 639.952 Q228.681 639.952 226.76 641.735 Q224.861 643.517 224.861 646.642 Q224.861 649.767 226.76 651.549 Q228.681 653.332 232.014 653.332 Q235.347 653.332 237.269 651.549 Q239.19 649.744 239.19 646.642 Q239.19 643.517 237.269 641.735 Q235.371 639.952 232.014 639.952 M227.338 637.961 Q224.329 637.221 222.639 635.161 Q220.973 633.1 220.973 630.137 Q220.973 625.994 223.912 623.587 Q226.875 621.179 232.014 621.179 Q237.176 621.179 240.116 623.587 Q243.056 625.994 243.056 630.137 Q243.056 633.1 241.366 635.161 Q239.699 637.221 236.713 637.961 Q240.093 638.748 241.968 641.04 Q243.866 643.332 243.866 646.642 Q243.866 651.665 240.787 654.35 Q237.732 657.035 232.014 657.035 Q226.297 657.035 223.218 654.35 Q220.162 651.665 220.162 646.642 Q220.162 643.332 222.061 641.04 Q223.959 638.748 227.338 637.961 M225.625 630.577 Q225.625 633.262 227.292 634.767 Q228.982 636.272 232.014 636.272 Q235.023 636.272 236.713 634.767 Q238.426 633.262 238.426 630.577 Q238.426 627.892 236.713 626.387 Q235.023 624.883 232.014 624.883 Q228.982 624.883 227.292 626.387 Q225.625 627.892 225.625 630.577 Z" fill="#000000" fill-rule="nonzero" fill-opacity="1" /><path clip-path="url(#clip350)" d="M126.552 321.915 Q122.941 321.915 121.112 325.48 Q119.306 329.021 119.306 336.151 Q119.306 343.257 121.112 346.822 Q122.941 350.364 126.552 350.364 Q130.186 350.364 131.992 346.822 Q133.82 343.257 133.82 336.151 Q133.82 329.021 131.992 325.48 Q130.186 321.915 126.552 321.915 M126.552 318.211 Q132.362 318.211 135.417 322.818 Q138.496 327.401 138.496 336.151 Q138.496 344.878 135.417 349.484 Q132.362 354.068 126.552 354.068 Q120.742 354.068 117.663 349.484 Q114.607 344.878 114.607 336.151 Q114.607 327.401 117.663 322.818 Q120.742 318.211 126.552 318.211 Z" fill="#000000" fill-rule="nonzero" fill-opacity="1" /><path clip-path="url(#clip350)" d="M146.714 347.517 L151.598 347.517 L151.598 353.396 L146.714 353.396 L146.714 347.517 Z" fill="#000000" fill-rule="nonzero" fill-opacity="1" /><path clip-path="url(#clip350)" d="M161.922 352.679 L161.922 348.42 Q163.681 349.253 165.487 349.693 Q167.292 350.132 169.028 350.132 Q173.658 350.132 176.089 347.031 Q178.542 343.906 178.889 337.563 Q177.547 339.554 175.487 340.619 Q173.427 341.683 170.927 341.683 Q165.741 341.683 162.709 338.558 Q159.7 335.41 159.7 329.971 Q159.7 324.646 162.848 321.429 Q165.996 318.211 171.227 318.211 Q177.223 318.211 180.371 322.818 Q183.542 327.401 183.542 336.151 Q183.542 344.322 179.653 349.207 Q175.788 354.068 169.237 354.068 Q167.477 354.068 165.672 353.72 Q163.866 353.373 161.922 352.679 M171.227 338.026 Q174.376 338.026 176.204 335.873 Q178.056 333.721 178.056 329.971 Q178.056 326.244 176.204 324.091 Q174.376 321.915 171.227 321.915 Q168.079 321.915 166.227 324.091 Q164.399 326.244 164.399 329.971 Q164.399 333.721 166.227 335.873 Q168.079 338.026 171.227 338.026 Z" fill="#000000" fill-rule="nonzero" fill-opacity="1" /><path clip-path="url(#clip350)" d="M192.084 352.679 L192.084 348.42 Q193.843 349.253 195.649 349.693 Q197.454 350.132 199.19 350.132 Q203.82 350.132 206.25 347.031 Q208.704 343.906 209.051 337.563 Q207.709 339.554 205.649 340.619 Q203.588 341.683 201.088 341.683 Q195.903 341.683 192.871 338.558 Q189.862 335.41 189.862 329.971 Q189.862 324.646 193.01 321.429 Q196.158 318.211 201.389 318.211 Q207.385 318.211 210.533 322.818 Q213.704 327.401 213.704 336.151 Q213.704 344.322 209.815 349.207 Q205.949 354.068 199.399 354.068 Q197.639 354.068 195.834 353.72 Q194.028 353.373 192.084 352.679 M201.389 338.026 Q204.537 338.026 206.366 335.873 Q208.218 333.721 208.218 329.971 Q208.218 326.244 206.366 324.091 Q204.537 321.915 201.389 321.915 Q198.241 321.915 196.389 324.091 Q194.561 326.244 194.561 329.971 Q194.561 333.721 196.389 335.873 Q198.241 338.026 201.389 338.026 Z" fill="#000000" fill-rule="nonzero" fill-opacity="1" /><path clip-path="url(#clip350)" d="M222.246 352.679 L222.246 348.42 Q224.005 349.253 225.81 349.693 Q227.616 350.132 229.352 350.132 Q233.982 350.132 236.412 347.031 Q238.866 343.906 239.213 337.563 Q237.871 339.554 235.81 340.619 Q233.75 341.683 231.25 341.683 Q226.065 341.683 223.033 338.558 Q220.023 335.41 220.023 329.971 Q220.023 324.646 223.172 321.429 Q226.32 318.211 231.551 318.211 Q237.547 318.211 240.695 322.818 Q243.866 327.401 243.866 336.151 Q243.866 344.322 239.977 349.207 Q236.111 354.068 229.56 354.068 Q227.801 354.068 225.996 353.72 Q224.19 353.373 222.246 352.679 M231.551 338.026 Q234.699 338.026 236.528 335.873 Q238.38 333.721 238.38 329.971 Q238.38 326.244 236.528 324.091 Q234.699 321.915 231.551 321.915 Q228.403 321.915 226.551 324.091 Q224.723 326.244 224.723 329.971 Q224.723 333.721 226.551 335.873 Q228.403 338.026 231.551 338.026 Z" fill="#000000" fill-rule="nonzero" fill-opacity="1" /><path clip-path="url(#clip350)" d="M41.7242 981.804 Q42.4244 979.735 44.7161 977.793 Q47.0077 975.82 51.0181 973.846 L64.0042 967.322 L64.0042 974.228 L51.8138 980.308 Q47.0395 982.663 45.48 984.891 Q43.9204 987.087 43.9204 990.906 L43.9204 997.909 L64.0042 997.909 L64.0042 1004.34 L16.4842 1004.34 L16.4842 989.824 Q16.4842 981.676 19.8898 977.666 Q23.2955 973.655 30.1704 973.655 Q34.6582 973.655 37.6183 975.756 Q40.5784 977.825 41.7242 981.804 M21.7677 997.909 L38.6368 997.909 L38.6368 989.824 Q38.6368 985.177 36.5043 982.822 Q34.34 980.435 30.1704 980.435 Q26.0009 980.435 23.9002 982.822 Q21.7677 985.177 21.7677 989.824 L21.7677 997.909 Z" fill="#000000" fill-rule="nonzero" fill-opacity="1" /><path clip-path="url(#clip350)" d="M44.7161 931.737 L47.5806 931.737 L47.5806 958.664 Q53.6281 958.282 56.8109 955.036 Q59.9619 951.757 59.9619 945.933 Q59.9619 942.559 59.1344 939.408 Q58.3069 936.225 56.6518 933.106 L62.1899 933.106 Q63.5267 936.257 64.227 939.567 Q64.9272 942.877 64.9272 946.283 Q64.9272 954.813 59.9619 959.81 Q54.9967 964.775 46.5303 964.775 Q37.7774 964.775 32.6531 960.065 Q27.4968 955.322 27.4968 947.301 Q27.4968 940.108 32.1438 935.939 Q36.7589 931.737 44.7161 931.737 M42.9973 937.594 Q38.1912 937.657 35.3266 940.299 Q32.4621 942.909 32.4621 947.238 Q32.4621 952.139 35.2312 955.099 Q38.0002 958.028 43.0292 958.473 L42.9973 937.594 Z" fill="#000000" fill-rule="nonzero" fill-opacity="1" /><path clip-path="url(#clip350)" d="M14.479 904.078 L19.3487 904.078 L19.3487 909.68 Q19.3487 912.831 20.6219 914.072 Q21.895 915.282 25.2052 915.282 L28.3562 915.282 L28.3562 905.638 L32.9077 905.638 L32.9077 915.282 L64.0042 915.282 L64.0042 921.17 L32.9077 921.17 L32.9077 926.772 L28.3562 926.772 L28.3562 921.17 L25.8736 921.17 Q19.9216 921.17 17.2162 918.401 Q14.479 915.632 14.479 909.616 L14.479 904.078 Z" fill="#000000" fill-rule="nonzero" fill-opacity="1" /><path clip-path="url(#clip350)" d="M14.479 899.177 L14.479 893.32 L64.0042 893.32 L64.0042 899.177 L14.479 899.177 Z" fill="#000000" fill-rule="nonzero" fill-opacity="1" /><path clip-path="url(#clip350)" d="M44.7161 850.574 L47.5806 850.574 L47.5806 877.501 Q53.6281 877.119 56.8109 873.873 Q59.9619 870.595 59.9619 864.77 Q59.9619 861.396 59.1344 858.245 Q58.3069 855.062 56.6518 851.943 L62.1899 851.943 Q63.5267 855.094 64.227 858.404 Q64.9272 861.714 64.9272 865.12 Q64.9272 873.65 59.9619 878.647 Q54.9967 883.613 46.5303 883.613 Q37.7774 883.613 32.6531 878.902 Q27.4968 874.159 27.4968 866.139 Q27.4968 858.945 32.1438 854.776 Q36.7589 850.574 44.7161 850.574 M42.9973 856.431 Q38.1912 856.495 35.3266 859.136 Q32.4621 861.746 32.4621 866.075 Q32.4621 870.977 35.2312 873.937 Q38.0002 876.865 43.0292 877.31 L42.9973 856.431 Z" fill="#000000" fill-rule="nonzero" fill-opacity="1" /><path clip-path="url(#clip350)" d="M29.7248 815.308 L35.1993 815.308 Q33.8307 817.791 33.1623 820.306 Q32.4621 822.788 32.4621 825.334 Q32.4621 831.032 36.0905 834.183 Q39.6872 837.334 46.212 837.334 Q52.7369 837.334 56.3653 834.183 Q59.9619 831.032 59.9619 825.334 Q59.9619 822.788 59.2935 820.306 Q58.5933 817.791 57.2247 815.308 L62.6355 815.308 Q63.7814 817.759 64.3543 820.401 Q64.9272 823.011 64.9272 825.971 Q64.9272 834.024 59.8664 838.766 Q54.8057 843.509 46.212 843.509 Q37.491 843.509 32.4939 838.734 Q27.4968 833.928 27.4968 825.589 Q27.4968 822.884 28.0697 820.306 Q28.6108 817.727 29.7248 815.308 Z" fill="#000000" fill-rule="nonzero" fill-opacity="1" /><path clip-path="url(#clip350)" d="M18.2347 799.331 L28.3562 799.331 L28.3562 787.268 L32.9077 787.268 L32.9077 799.331 L52.2594 799.331 Q56.6199 799.331 57.8613 798.153 Q59.1026 796.943 59.1026 793.283 L59.1026 787.268 L64.0042 787.268 L64.0042 793.283 Q64.0042 800.063 61.4897 802.641 Q58.9434 805.219 52.2594 805.219 L32.9077 805.219 L32.9077 809.516 L28.3562 809.516 L28.3562 805.219 L18.2347 805.219 L18.2347 799.331 Z" fill="#000000" fill-rule="nonzero" fill-opacity="1" /><path clip-path="url(#clip350)" d="M28.3562 779.565 L28.3562 773.709 L64.0042 773.709 L64.0042 779.565 L28.3562 779.565 M14.479 779.565 L14.479 773.709 L21.895 773.709 L21.895 779.565 L14.479 779.565 Z" fill="#000000" fill-rule="nonzero" fill-opacity="1" /><path clip-path="url(#clip350)" d="M28.3562 765.656 L28.3562 759.449 L58.275 748.309 L28.3562 737.169 L28.3562 730.963 L64.0042 744.331 L64.0042 752.288 L28.3562 765.656 Z" fill="#000000" fill-rule="nonzero" fill-opacity="1" /><path clip-path="url(#clip350)" d="M28.3562 722.878 L28.3562 717.022 L64.0042 717.022 L64.0042 722.878 L28.3562 722.878 M14.479 722.878 L14.479 717.022 L21.895 717.022 L21.895 722.878 L14.479 722.878 Z" fill="#000000" fill-rule="nonzero" fill-opacity="1" /><path clip-path="url(#clip350)" d="M18.2347 698.975 L28.3562 698.975 L28.3562 686.912 L32.9077 686.912 L32.9077 698.975 L52.2594 698.975 Q56.6199 698.975 57.8613 697.798 Q59.1026 696.588 59.1026 692.928 L59.1026 686.912 L64.0042 686.912 L64.0042 692.928 Q64.0042 699.707 61.4897 702.285 Q58.9434 704.863 52.2594 704.863 L32.9077 704.863 L32.9077 709.16 L28.3562 709.16 L28.3562 704.863 L18.2347 704.863 L18.2347 698.975 Z" fill="#000000" fill-rule="nonzero" fill-opacity="1" /><path clip-path="url(#clip350)" d="M67.3143 664.378 Q73.68 666.86 75.6216 669.216 Q77.5631 671.571 77.5631 675.518 L77.5631 680.196 L72.6615 680.196 L72.6615 676.759 Q72.6615 674.34 71.5157 673.003 Q70.3699 671.666 66.1048 670.043 L63.4312 668.993 L28.3562 683.411 L28.3562 677.204 L56.238 666.064 L28.3562 654.924 L28.3562 648.718 L67.3143 664.378 Z" fill="#000000" fill-rule="nonzero" fill-opacity="1" /><path clip-path="url(#clip350)" d="M14.1925 612.37 L79.3773 612.37 L79.3773 617.781 L14.1925 617.781 L14.1925 612.37 Z" fill="#000000" fill-rule="nonzero" fill-opacity="1" /><path clip-path="url(#clip350)" d="M18.0438 569.21 L24.314 569.21 Q22.5634 572.871 21.704 576.117 Q20.8447 579.364 20.8447 582.387 Q20.8447 587.639 22.8817 590.504 Q24.9187 593.336 28.6745 593.336 Q31.8255 593.336 33.4488 591.458 Q35.0402 589.549 36.0269 584.265 L36.8226 580.382 Q38.1912 573.189 41.6605 569.783 Q45.098 566.346 50.8908 566.346 Q57.7976 566.346 61.3624 570.993 Q64.9272 575.608 64.9272 584.552 Q64.9272 587.925 64.1633 591.745 Q63.3994 595.532 61.9035 599.607 L55.2831 599.607 Q57.4793 595.692 58.5933 591.936 Q59.7073 588.18 59.7073 584.552 Q59.7073 579.045 57.543 576.053 Q55.3786 573.062 51.3682 573.062 Q47.8671 573.062 45.8937 575.226 Q43.9204 577.358 42.9337 582.26 L42.1698 586.175 Q40.7375 593.368 37.682 596.583 Q34.6264 599.797 29.1837 599.797 Q22.8817 599.797 19.2532 595.373 Q15.6248 590.917 15.6248 583.119 Q15.6248 579.777 16.2295 576.308 Q16.8343 572.839 18.0438 569.21 Z" fill="#000000" fill-rule="nonzero" fill-opacity="1" /><path clip-path="url(#clip350)" d="M58.5933 554.633 L58.5933 544.129 L22.3406 544.129 L24.6323 555.556 L18.7758 555.556 L16.4842 544.193 L16.4842 537.764 L58.5933 537.764 L58.5933 527.26 L64.0042 527.26 L64.0042 554.633 L58.5933 554.633 Z" fill="#000000" fill-rule="nonzero" fill-opacity="1" /><path clip-path="url(#clip350)" d="M58.5933 513.16 L58.5933 502.657 L22.3406 502.657 L24.6323 514.083 L18.7758 514.083 L16.4842 502.72 L16.4842 496.291 L58.5933 496.291 L58.5933 485.788 L64.0042 485.788 L64.0042 513.16 L58.5933 513.16 Z" fill="#000000" fill-rule="nonzero" fill-opacity="1" /><path clip-path="url(#clip350)" d="M14.1925 466.086 L79.3773 466.086 L79.3773 471.497 L14.1925 471.497 L14.1925 466.086 Z" fill="#000000" fill-rule="nonzero" fill-opacity="1" /><polyline clip-path="url(#clip352)" style="stroke:#009af9; stroke-linecap:round; stroke-linejoin:round; stroke-width:4; stroke-opacity:1; fill:none" points="338.533,86.5442 340.49,86.5272 342.448,86.5106 344.405,86.4943 346.363,86.4785 348.32,86.463 350.278,86.4479 352.235,86.4332 354.193,86.4189 356.15,86.405 358.108,86.3915 360.065,86.3785 362.023,86.3658 363.98,86.3535 365.938,86.3416 367.895,86.3301 369.853,86.3191 371.81,86.3085 373.768,86.2982 375.725,86.2885 377.683,86.2791 379.64,86.2701 381.598,86.2616 383.555,86.2536 385.513,86.2459 387.47,86.2387 389.428,86.232 391.386,86.2257 393.343,86.2198 395.301,86.2144 397.258,86.2095 399.216,86.205 401.173,86.2009 403.131,86.1974 405.088,86.1943 407.046,86.1916 409.003,86.1895 410.961,86.1878 412.918,86.1866 414.876,86.1859 416.833,86.1857 418.791,86.1859 420.748,86.1867 422.706,86.188 424.663,86.1897 426.621,86.192 428.578,86.1948 430.536,86.1981 432.493,86.2019 434.451,86.2062 436.408,86.211 438.366,86.2164 440.323,86.2223 442.281,86.2288 444.238,86.2358 446.196,86.2433 448.153,86.2514 450.111,86.2601 452.068,86.2693 454.026,86.279 455.983,86.2894 457.941,86.3003 459.899,86.3117 461.856,86.3238 463.814,86.3364 465.771,86.3497 467.729,86.3635 469.686,86.3779 471.644,86.393 473.601,86.4086 475.559,86.4248 477.516,86.4417 479.474,86.4592 481.431,86.4773 483.389,86.4961 485.346,86.5155 487.304,86.5355 489.261,86.5562 491.219,86.5776 493.176,86.5996 495.134,86.6223 497.091,86.6456 499.049,86.6696 501.006,86.6943 502.964,86.7198 504.921,86.7458 506.879,86.7726 508.836,86.8002 510.794,86.8284 512.751,86.8573 514.709,86.887 516.666,86.9174 518.624,86.9485 520.581,86.9804 522.539,87.0131 524.496,87.0465 526.454,87.0807 528.412,87.1156 530.369,87.1513 532.327,87.1878 534.284,87.2251 536.242,87.2633 538.199,87.3022 540.157,87.3419 542.114,87.3825 544.072,87.4239 546.029,87.4661 547.987,87.5092 549.944,87.5531 551.902,87.5979 553.859,87.6436 555.817,87.6901 557.774,87.7376 559.732,87.7859 561.689,87.8352 563.647,87.8853 565.604,87.9364 567.562,87.9884 569.519,88.0414 571.477,88.0953 573.434,88.1502 575.392,88.206 577.349,88.2628 579.307,88.3206 581.264,88.3794 583.222,88.4392 585.179,88.5001 587.137,88.5619 589.094,88.6248 591.052,88.6887 593.009,88.7537 594.967,88.8198 596.925,88.887 598.882,88.9552 600.84,89.0246 602.797,89.095 604.755,89.1666 606.712,89.2394 608.67,89.3133 610.627,89.3883 612.585,89.4645 614.542,89.5419 616.5,89.6205 618.457,89.7003 620.415,89.7814 622.372,89.8636 624.33,89.9472 626.287,90.032 628.245,90.118 630.202,90.2054 632.16,90.294 634.117,90.384 636.075,90.4753 638.032,90.568 639.99,90.662 641.947,90.7574 643.905,90.8542 645.862,90.9524 647.82,91.0521 649.777,91.1531 651.735,91.2556 653.692,91.3596 655.65,91.4651 657.607,91.5721 659.565,91.6806 661.522,91.7907 663.48,91.9023 665.437,92.0154 667.395,92.1302 669.353,92.2466 671.31,92.3646 673.268,92.4842 675.225,92.6056 677.183,92.7286 679.14,92.8533 681.098,92.9797 683.055,93.1079 685.013,93.2379 686.97,93.3696 688.928,93.5032 690.885,93.6385 692.843,93.7758 694.8,93.9149 696.758,94.0558 698.715,94.1988 700.673,94.3436 702.63,94.4904 704.588,94.6392 706.545,94.7901 708.503,94.9429 710.46,95.0978 712.418,95.2548 714.375,95.414 716.333,95.5752 718.29,95.7387 720.248,95.9043 722.205,96.0721 724.163,96.2422 726.12,96.4145 728.078,96.5892 730.035,96.7662 731.993,96.9456 733.95,97.1273 735.908,97.3115 737.866,97.4981 739.823,97.6872 741.781,97.8789 743.738,98.0731 745.696,98.2698 747.653,98.4692 749.611,98.6712 751.568,98.876 753.526,99.0834 755.483,99.2936 757.441,99.5066 759.398,99.7224 761.356,99.9411 763.313,100.163 765.271,100.387 767.228,100.615 769.186,100.845 771.143,101.079 773.101,101.315 775.058,101.555 777.016,101.798 778.973,102.045 780.931,102.294 782.888,102.547 784.846,102.803 786.803,103.063 788.761,103.326 790.718,103.593 792.676,103.863 794.633,104.137 796.591,104.414 798.548,104.695 800.506,104.98 802.463,105.269 804.421,105.561 806.379,105.858 808.336,106.158 810.294,106.463 812.251,106.772 814.209,107.084 816.166,107.401 818.124,107.723 820.081,108.048 822.039,108.378 823.996,108.713 825.954,109.052 827.911,109.395 829.869,109.744 831.826,110.097 833.784,110.454 835.741,110.817 837.699,111.185 839.656,111.557 841.614,111.935 843.571,112.318 845.529,112.706 847.486,113.1 849.444,113.499 851.401,113.903 853.359,114.313 855.316,114.729 857.274,115.151 859.231,115.578 861.189,116.011 863.146,116.45 865.104,116.896 867.061,117.348 869.019,117.806 870.976,118.27 872.934,118.741 874.891,119.218 876.849,119.703 878.807,120.194 880.764,120.692 882.722,121.197 884.679,121.71 886.637,122.229 888.594,122.756 890.552,123.291 892.509,123.833 894.467,124.383 896.424,124.941 898.382,125.507 900.339,126.082 902.297,126.664 904.254,127.255 906.212,127.855 908.169,128.463 910.127,129.08 912.084,129.707 914.042,130.342 915.999,130.987 917.957,131.641 919.914,132.306 921.872,132.979 923.829,133.663 925.787,134.358 927.744,135.062 929.702,135.777 931.659,136.503 933.617,137.24 935.574,137.988 937.532,138.747 939.489,139.518 941.447,140.3 943.404,141.095 945.362,141.901 947.32,142.72 949.277,143.552 951.235,144.396 953.192,145.254 955.15,146.125 957.107,147.009 959.065,147.907 961.022,148.819 962.98,149.746 964.937,150.687 966.895,151.643 968.852,152.614 970.81,153.601 972.767,154.603 974.725,155.622 976.682,156.656 978.64,157.708 980.597,158.776 982.555,159.861 984.512,160.965 986.47,162.086 988.427,163.225 990.385,164.383 992.342,165.56 994.3,166.757 996.257,167.973 998.215,169.21 1000.17,170.467 1002.13,171.745 1004.09,173.044 1006.04,174.366 1008,175.709 1009.96,177.076 1011.92,178.465 1013.87,179.878 1015.83,181.316 1017.79,182.778 1019.75,184.265 1021.71,185.778 1023.66,187.317 1025.62,188.882 1027.58,190.475 1029.54,192.096 1031.49,193.746 1033.45,195.424 1035.41,197.132 1037.37,198.87 1039.32,200.639 1041.28,202.44 1043.24,204.273 1045.2,206.139 1047.15,208.039 1049.11,209.973 1051.07,211.942 1053.03,213.947 1054.98,215.989 1056.94,218.068 1058.9,220.185 1060.86,222.342 1062.81,224.538 1064.77,226.776 1066.73,229.055 1068.69,231.377 1070.64,233.742 1072.6,236.152 1074.56,238.608 1076.52,241.11 1078.47,243.66 1080.43,246.259 1082.39,248.907 1084.35,251.606 1086.3,254.358 1088.26,257.163 1090.22,260.022 1092.18,262.937 1094.13,265.909 1096.09,268.939 1098.05,272.029 1100.01,275.18 1101.96,278.393 1103.92,281.671 1105.88,285.013 1107.84,288.422 1109.79,291.9 1111.75,295.447 1113.71,299.066 1115.67,302.758 1117.62,306.525 1119.58,310.369 1121.54,314.29 1123.5,318.292 1125.45,322.376 1127.41,326.544 1129.37,330.798 1131.33,335.139 1133.28,339.57 1135.24,344.093 1137.2,348.71 1139.16,353.423 1141.11,358.234 1143.07,363.146 1145.03,368.16 1146.99,373.279 1148.94,378.506 1150.9,383.843 1152.86,389.292 1154.82,394.855 1156.77,400.536 1158.73,406.337 1160.69,412.26 1162.65,418.308 1164.6,424.484 1166.56,430.79 1168.52,437.229 1170.48,443.804 1172.43,450.518 1174.39,457.374 1176.35,464.373 1178.31,471.52 1180.26,478.816 1182.22,486.266 1184.18,493.871 1186.14,501.634 1188.09,509.559 1190.05,517.648 1192.01,525.904 1193.97,534.329 1195.92,542.927 1197.88,551.7 1199.84,560.65 1201.8,569.78 1203.75,579.092 1205.71,588.589 1207.67,598.273 1209.63,608.145 1211.58,618.209 1213.54,628.464 1215.5,638.914 1217.46,649.559 1219.41,660.4 1221.37,671.438 1223.33,682.674 1225.29,694.108 1227.24,705.739 1229.2,717.568 1231.16,729.594 1233.12,741.814 1235.07,754.229 1237.03,766.835 1238.99,779.629 1240.95,792.609 1242.9,805.771 1244.86,819.11 1246.82,832.621 1248.78,846.298 1250.73,860.136 1252.69,874.126 1254.65,888.26 1256.61,902.531 1258.56,916.927 1260.52,931.439 1262.48,946.054 1264.44,960.761 1266.39,975.545 1268.35,990.393 1270.31,1005.29 1272.27,1020.22 1274.22,1035.16 1276.18,1050.09 1278.14,1065.01 1280.1,1079.87 1282.05,1094.68 1284.01,1109.39 1285.97,1123.99 1287.93,1138.46 1289.88,1152.76 1291.84,1166.88 1293.8,1180.79 1295.76,1194.46 1297.71,1207.86 1299.67,1220.97 1301.63,1233.75 1303.59,1246.19 1305.54,1258.25 1307.5,1269.9 1309.46,1281.13 1311.42,1291.89 1313.37,1302.17 1315.33,1311.94 1317.29,1321.17 1319.25,1329.85 1321.2,1337.94 1323.16,1345.44 1325.12,1352.32 1327.08,1358.56 1329.03,1364.15 1330.99,1369.08 1332.95,1373.33 1334.91,1376.89 1336.86,1379.76 1338.82,1381.93 1340.78,1383.4 1342.74,1384.17 1344.69,1384.24 1346.65,1383.61 1348.61,1382.29 1350.57,1380.29 1352.52,1377.62 1354.48,1374.29 1356.44,1370.32 1358.4,1365.71 1360.35,1360.49 1362.31,1354.68 1364.27,1348.3 1366.23,1341.36 1368.19,1333.89 1370.14,1325.92 1372.1,1317.46 1374.06,1308.55 1376.02,1299.2 1377.97,1289.45 1379.93,1279.32 1381.89,1268.82 1383.85,1258 1385.8,1246.88 1387.76,1235.47 1389.72,1223.82 1391.68,1211.93 1393.63,1199.83 1395.59,1187.55 1397.55,1175.11 1399.51,1162.53 1401.46,1149.83 1403.42,1137.04 1405.38,1124.16 1407.34,1111.23 1409.29,1098.25 1411.25,1085.25 1413.21,1072.23 1415.17,1059.22 1417.12,1046.24 1419.08,1033.28 1421.04,1020.37 1423,1007.51 1424.95,994.723 1426.91,982.011 1428.87,969.386 1430.83,956.856 1432.78,944.428 1434.74,932.11 1436.7,919.908 1438.66,907.828 1440.61,895.875 1442.57,884.055 1444.53,872.37 1446.49,860.825 1448.44,849.424 1450.4,838.168 1452.36,827.06 1454.32,816.103 1456.27,805.297 1458.23,794.644 1460.19,784.145 1462.15,773.801 1464.1,763.611 1466.06,753.577 1468.02,743.698 1469.98,733.973 1471.93,724.403 1473.89,714.985 1475.85,705.721 1477.81,696.608 1479.76,687.645 1481.72,678.832 1483.68,670.166 1485.64,661.646 1487.59,653.271 1489.55,645.039 1491.51,636.948 1493.47,628.997 1495.42,621.183 1497.38,613.506 1499.34,605.962 1501.3,598.549 1503.25,591.267 1505.21,584.113 1507.17,577.085 1509.13,570.18 1511.08,563.397 1513.04,556.735 1515,550.19 1516.96,543.76 1518.91,537.445 1520.87,531.241 1522.83,525.147 1524.79,519.16 1526.74,513.28 1528.7,507.503 1530.66,501.828 1532.62,496.253 1534.57,490.776 1536.53,485.396 1538.49,480.109 1540.45,474.916 1542.4,469.813 1544.36,464.799 1546.32,459.873 1548.28,455.032 1550.23,450.275 1552.19,445.6 1554.15,441.006 1556.11,436.491 1558.06,432.054 1560.02,427.692 1561.98,423.405 1563.94,419.191 1565.89,415.048 1567.85,410.976 1569.81,406.972 1571.77,403.036 1573.72,399.165 1575.68,395.359 1577.64,391.617 1579.6,387.937 1581.55,384.317 1583.51,380.757 1585.47,377.256 1587.43,373.812 1589.38,370.424 1591.34,367.091 1593.3,363.813 1595.26,360.587 1597.21,357.413 1599.17,354.29 1601.13,351.216 1603.09,348.192 1605.04,345.215 1607,342.285 1608.96,339.402 1610.92,336.563 1612.87,333.769 1614.83,331.018 1616.79,328.31 1618.75,325.643 1620.7,323.018 1622.66,320.432 1624.62,317.886 1626.58,315.379 1628.53,312.909 1630.49,310.477 1632.45,308.081 1634.41,305.72 1636.36,303.395 1638.32,301.105 1640.28,298.848 1642.24,296.624 1644.19,294.433 1646.15,292.273 1648.11,290.145 1650.07,288.048 1652.02,285.981 1653.98,283.943 1655.94,281.935 1657.9,279.955 1659.85,278.003 1661.81,276.079 1663.77,274.181 1665.73,272.311 1667.68,270.466 1669.64,268.647 1671.6,266.853 1673.56,265.083 1675.51,263.338 1677.47,261.617 1679.43,259.919 1681.39,258.244 1683.34,256.592 1685.3,254.962 1687.26,253.353 1689.22,251.766 1691.17,250.201 1693.13,248.655 1695.09,247.13 1697.05,245.626 1699,244.14 1700.96,242.674 1702.92,241.227 1704.88,239.799 1706.83,238.389 1708.79,236.997 1710.75,235.623 1712.71,234.266 1714.67,232.926 1716.62,231.604 1718.58,230.297 1720.54,229.007 1722.5,227.734 1724.45,226.476 1726.41,225.233 1728.37,224.006 1730.33,222.794 1732.28,221.596 1734.24,220.413 1736.2,219.245 1738.16,218.09 1740.11,216.95 1742.07,215.823 1744.03,214.709 1745.99,213.609 1747.94,212.521 1749.9,211.447 1751.86,210.385 1753.82,209.336 1755.77,208.298 1757.73,207.273 1759.69,206.26 1761.65,205.258 1763.6,204.268 1765.56,203.289 1767.52,202.321 1769.48,201.365 1771.43,200.419 1773.39,199.483 1775.35,198.559 1777.31,197.644 1779.26,196.74 1781.22,195.846 1783.18,194.961 1785.14,194.087 1787.09,193.222 1789.05,192.366 1791.01,191.52 1792.97,190.683 1794.92,189.855 1796.88,189.036 1798.84,188.226 1800.8,187.424 1802.75,186.631 1804.71,185.847 1806.67,185.071 1808.63,184.303 1810.58,183.543 1812.54,182.791 1814.5,182.047 1816.46,181.31 1818.41,180.581 1820.37,179.86 1822.33,179.146 1824.29,178.44 1826.24,177.741 1828.2,177.049 1830.16,176.364 1832.12,175.685 1834.07,175.014 1836.03,174.35 1837.99,173.692 1839.95,173.041 1841.9,172.396 1843.86,171.758 1845.82,171.125 1847.78,170.5 1849.73,169.88 1851.69,169.266 1853.65,168.659 1855.61,168.057 1857.56,167.461 1859.52,166.871 1861.48,166.287 1863.44,165.708 1865.39,165.135 1867.35,164.567 1869.31,164.005 1871.27,163.448 1873.22,162.897 1875.18,162.35 1877.14,161.809 1879.1,161.272 1881.05,160.741 1883.01,160.215 1884.97,159.694 1886.93,159.177 1888.88,158.665 1890.84,158.158 1892.8,157.656 1894.76,157.158 1896.71,156.665 1898.67,156.176 1900.63,155.692 1902.59,155.212 1904.54,154.736 1906.5,154.265 1908.46,153.798 1910.42,153.335 1912.37,152.876 1914.33,152.422 1916.29,151.971 1918.25,151.524 1920.2,151.082 1922.16,150.643 1924.12,150.208 1926.08,149.777 1928.03,149.349 1929.99,148.926 1931.95,148.506 1933.91,148.089 1935.86,147.677 1937.82,147.267 1939.78,146.862 1941.74,146.46 1943.69,146.061 1945.65,145.665 1947.61,145.273 1949.57,144.885 1951.52,144.499 1953.48,144.117 1955.44,143.738 1957.4,143.363 1959.35,142.99 1961.31,142.621 1963.27,142.254 1965.23,141.891 1967.18,141.53 1969.14,141.173 1971.1,140.819 1973.06,140.467 1975.01,140.119 1976.97,139.773 1978.93,139.43 1980.89,139.09 1982.84,138.753 1984.8,138.418 1986.76,138.086 1988.72,137.757 1990.67,137.43 1992.63,137.106 1994.59,136.785 1996.55,136.466 1998.5,136.15 2000.46,135.836 2002.42,135.525 2004.38,135.217 2006.33,134.91 2008.29,134.606 2010.25,134.305 2012.21,134.006 2014.16,133.709 2016.12,133.415 2018.08,133.123 2020.04,132.833 2021.99,132.545 2023.95,132.26 2025.91,131.977 2027.87,131.696 2029.82,131.417 2031.78,131.141 2033.74,130.866 2035.7,130.594 2037.65,130.324 2039.61,130.056 2041.57,129.79 2043.53,129.526 2045.48,129.263 2047.44,129.003 2049.4,128.745 2051.36,128.489 2053.31,128.235 2055.27,127.983 2057.23,127.732 2059.19,127.484 2061.15,127.237 2063.1,126.993 2065.06,126.75 2067.02,126.509 2068.98,126.269 2070.93,126.032 2072.89,125.796 2074.85,125.562 2076.81,125.33 2078.76,125.099 2080.72,124.87 2082.68,124.643 2084.64,124.418 2086.59,124.194 2088.55,123.972 2090.51,123.751 2092.47,123.533 2094.42,123.315 2096.38,123.1 2098.34,122.886 2100.3,122.673 2102.25,122.462 2104.21,122.253 2106.17,122.045 2108.13,121.838 2110.08,121.633 2112.04,121.43 2114,121.228 2115.96,121.028 2117.91,120.829 2119.87,120.631 2121.83,120.435 2123.79,120.24 2125.74,120.047 2127.7,119.855 2129.66,119.664 2131.62,119.475 2133.57,119.287 2135.53,119.101 2137.49,118.916 2139.45,118.732 2141.4,118.549 2143.36,118.368 2145.32,118.188 2147.28,118.01 2149.23,117.833 2151.19,117.656 2153.15,117.482 2155.11,117.308 2157.06,117.136 2159.02,116.965 2160.98,116.795 2162.94,116.626 2164.89,116.459 2166.85,116.292 2168.81,116.127 2170.77,115.964 2172.72,115.801 2174.68,115.639 2176.64,115.479 2178.6,115.319 2180.55,115.161 2182.51,115.004 2184.47,114.848 2186.43,114.694 2188.38,114.54 2190.34,114.387 2192.3,114.236 2194.26,114.085 2196.21,113.936 2198.17,113.787 2200.13,113.64 2202.09,113.494 2204.04,113.349 2206,113.205 2207.96,113.061 2209.92,112.919 2211.87,112.778 2213.83,112.638 2215.79,112.499 2217.75,112.361 2219.7,112.224 2221.66,112.087 2223.62,111.952 2225.58,111.818 2227.53,111.685 2229.49,111.552 2231.45,111.421 2233.41,111.291 2235.36,111.161 2237.32,111.033 2239.28,110.905 2241.24,110.778 2243.19,110.652 2245.15,110.527 2247.11,110.403 2249.07,110.28 2251.02,110.158 2252.98,110.037 2254.94,109.916 2256.9,109.796 2258.85,109.678 2260.81,109.56 2262.77,109.443 2264.73,109.327 2266.68,109.211 2268.64,109.097 2270.6,108.983 2272.56,108.87 2274.51,108.758 2276.47,108.647 2278.43,108.537 2280.39,108.427 2282.34,108.318 2284.3,108.21 2286.26,108.103 2288.22,107.997 2290.17,107.891 2292.13,107.786 2294.09,107.682 "/>
<polyline clip-path="url(#clip352)" style="stroke:#ff0000; stroke-linecap:round; stroke-linejoin:round; stroke-width:4; stroke-opacity:1; fill:none" points="1218.53,2799.12 1218.53,-1328.69 "/>
<polyline clip-path="url(#clip352)" style="stroke:#ff0000; stroke-linecap:round; stroke-linejoin:round; stroke-width:4; stroke-opacity:1; fill:none" points="1414.09,2799.12 1414.09,-1328.69 "/>
</svg>
