<?xml version="1.0" encoding="utf-8"?>
<svg xmlns="http://www.w3.org/2000/svg" xmlns:xlink="http://www.w3.org/1999/xlink" width="600" height="400" viewBox="0 0 2400 1600">
<defs>
  <clipPath id="clip710">
    <rect x="0" y="0" width="2400" height="1600"/>
  </clipPath>
</defs>
<path clip-path="url(#clip710)" d="M0 1600 L2400 1600 L2400 0 L0 0  Z" fill="#ffffff" fill-rule="evenodd" fill-opacity="1"/>
<defs>
  <clipPath id="clip711">
    <rect x="480" y="0" width="1681" height="1600"/>
  </clipPath>
</defs>
<path clip-path="url(#clip710)" d="M262.551 1423.18 L2352.76 1423.18 L2352.76 47.2441 L262.551 47.2441  Z" fill="#ffffff" fill-rule="evenodd" fill-opacity="1"/>
<defs>
  <clipPath id="clip712">
    <rect x="262" y="47" width="2091" height="1377"/>
  </clipPath>
</defs>
<polyline clip-path="url(#clip712)" style="stroke:#000000; stroke-linecap:round; stroke-linejoin:round; stroke-width:2; stroke-opacity:0.1; fill:none" points="518.897,1423.18 518.897,47.2441 "/>
<polyline clip-path="url(#clip712)" style="stroke:#000000; stroke-linecap:round; stroke-linejoin:round; stroke-width:2; stroke-opacity:0.1; fill:none" points="913.275,1423.18 913.275,47.2441 "/>
<polyline clip-path="url(#clip712)" style="stroke:#000000; stroke-linecap:round; stroke-linejoin:round; stroke-width:2; stroke-opacity:0.1; fill:none" points="1307.65,1423.18 1307.65,47.2441 "/>
<polyline clip-path="url(#clip712)" style="stroke:#000000; stroke-linecap:round; stroke-linejoin:round; stroke-width:2; stroke-opacity:0.1; fill:none" points="1702.03,1423.18 1702.03,47.2441 "/>
<polyline clip-path="url(#clip712)" style="stroke:#000000; stroke-linecap:round; stroke-linejoin:round; stroke-width:2; stroke-opacity:0.1; fill:none" points="2096.41,1423.18 2096.41,47.2441 "/>
<polyline clip-path="url(#clip712)" style="stroke:#000000; stroke-linecap:round; stroke-linejoin:round; stroke-width:2; stroke-opacity:0.1; fill:none" points="262.551,1384.38 2352.76,1384.38 "/>
<polyline clip-path="url(#clip712)" style="stroke:#000000; stroke-linecap:round; stroke-linejoin:round; stroke-width:2; stroke-opacity:0.1; fill:none" points="262.551,994.482 2352.76,994.482 "/>
<polyline clip-path="url(#clip712)" style="stroke:#000000; stroke-linecap:round; stroke-linejoin:round; stroke-width:2; stroke-opacity:0.1; fill:none" points="262.551,604.585 2352.76,604.585 "/>
<polyline clip-path="url(#clip712)" style="stroke:#000000; stroke-linecap:round; stroke-linejoin:round; stroke-width:2; stroke-opacity:0.1; fill:none" points="262.551,214.689 2352.76,214.689 "/>
<polyline clip-path="url(#clip710)" style="stroke:#000000; stroke-linecap:round; stroke-linejoin:round; stroke-width:4; stroke-opacity:1; fill:none" points="262.551,1423.18 2352.76,1423.18 "/>
<polyline clip-path="url(#clip710)" style="stroke:#000000; stroke-linecap:round; stroke-linejoin:round; stroke-width:4; stroke-opacity:1; fill:none" points="518.897,1423.18 518.897,1404.28 "/>
<polyline clip-path="url(#clip710)" style="stroke:#000000; stroke-linecap:round; stroke-linejoin:round; stroke-width:4; stroke-opacity:1; fill:none" points="913.275,1423.18 913.275,1404.28 "/>
<polyline clip-path="url(#clip710)" style="stroke:#000000; stroke-linecap:round; stroke-linejoin:round; stroke-width:4; stroke-opacity:1; fill:none" points="1307.65,1423.18 1307.65,1404.28 "/>
<polyline clip-path="url(#clip710)" style="stroke:#000000; stroke-linecap:round; stroke-linejoin:round; stroke-width:4; stroke-opacity:1; fill:none" points="1702.03,1423.18 1702.03,1404.28 "/>
<polyline clip-path="url(#clip710)" style="stroke:#000000; stroke-linecap:round; stroke-linejoin:round; stroke-width:4; stroke-opacity:1; fill:none" points="2096.41,1423.18 2096.41,1404.28 "/>
<path clip-path="url(#clip710)" d="M470.888 1481.64 L478.527 1481.64 L478.527 1455.28 L470.217 1456.95 L470.217 1452.69 L478.481 1451.02 L483.157 1451.02 L483.157 1481.64 L490.795 1481.64 L490.795 1485.58 L470.888 1485.58 L470.888 1481.64 Z" fill="#000000" fill-rule="nonzero" fill-opacity="1" /><path clip-path="url(#clip710)" d="M499.059 1451.02 L521.281 1451.02 L521.281 1453.01 L508.735 1485.58 L503.851 1485.58 L515.656 1454.96 L499.059 1454.96 L499.059 1451.02 Z" fill="#000000" fill-rule="nonzero" fill-opacity="1" /><path clip-path="url(#clip710)" d="M530.402 1479.7 L535.286 1479.7 L535.286 1485.58 L530.402 1485.58 L530.402 1479.7 Z" fill="#000000" fill-rule="nonzero" fill-opacity="1" /><path clip-path="url(#clip710)" d="M556.05 1466.44 Q552.902 1466.44 551.05 1468.59 Q549.221 1470.74 549.221 1474.49 Q549.221 1478.22 551.05 1480.39 Q552.902 1482.55 556.05 1482.55 Q559.198 1482.55 561.026 1480.39 Q562.878 1478.22 562.878 1474.49 Q562.878 1470.74 561.026 1468.59 Q559.198 1466.44 556.05 1466.44 M565.332 1451.78 L565.332 1456.04 Q563.573 1455.21 561.767 1454.77 Q559.985 1454.33 558.226 1454.33 Q553.596 1454.33 551.142 1457.45 Q548.712 1460.58 548.365 1466.9 Q549.73 1464.89 551.79 1463.82 Q553.851 1462.73 556.327 1462.73 Q561.536 1462.73 564.545 1465.9 Q567.577 1469.05 567.577 1474.49 Q567.577 1479.82 564.429 1483.03 Q561.281 1486.25 556.05 1486.25 Q550.054 1486.25 546.883 1481.67 Q543.712 1477.06 543.712 1468.33 Q543.712 1460.14 547.601 1455.28 Q551.489 1450.39 558.04 1450.39 Q559.8 1450.39 561.582 1450.74 Q563.388 1451.09 565.332 1451.78 Z" fill="#000000" fill-rule="nonzero" fill-opacity="1" /><path clip-path="url(#clip710)" d="M865.394 1481.64 L873.032 1481.64 L873.032 1455.28 L864.722 1456.95 L864.722 1452.69 L872.986 1451.02 L877.662 1451.02 L877.662 1481.64 L885.301 1481.64 L885.301 1485.58 L865.394 1485.58 L865.394 1481.64 Z" fill="#000000" fill-rule="nonzero" fill-opacity="1" /><path clip-path="url(#clip710)" d="M893.565 1451.02 L915.787 1451.02 L915.787 1453.01 L903.241 1485.58 L898.356 1485.58 L910.162 1454.96 L893.565 1454.96 L893.565 1451.02 Z" fill="#000000" fill-rule="nonzero" fill-opacity="1" /><path clip-path="url(#clip710)" d="M924.907 1479.7 L929.791 1479.7 L929.791 1485.58 L924.907 1485.58 L924.907 1479.7 Z" fill="#000000" fill-rule="nonzero" fill-opacity="1" /><path clip-path="url(#clip710)" d="M949.977 1469.17 Q946.643 1469.17 944.722 1470.95 Q942.824 1472.73 942.824 1475.86 Q942.824 1478.98 944.722 1480.77 Q946.643 1482.55 949.977 1482.55 Q953.31 1482.55 955.231 1480.77 Q957.152 1478.96 957.152 1475.86 Q957.152 1472.73 955.231 1470.95 Q953.333 1469.17 949.977 1469.17 M945.301 1467.18 Q942.291 1466.44 940.602 1464.38 Q938.935 1462.32 938.935 1459.35 Q938.935 1455.21 941.875 1452.8 Q944.838 1450.39 949.977 1450.39 Q955.139 1450.39 958.078 1452.8 Q961.018 1455.21 961.018 1459.35 Q961.018 1462.32 959.328 1464.38 Q957.662 1466.44 954.676 1467.18 Q958.055 1467.96 959.93 1470.26 Q961.828 1472.55 961.828 1475.86 Q961.828 1480.88 958.75 1483.57 Q955.694 1486.25 949.977 1486.25 Q944.259 1486.25 941.18 1483.57 Q938.125 1480.88 938.125 1475.86 Q938.125 1472.55 940.023 1470.26 Q941.921 1467.96 945.301 1467.18 M943.588 1459.79 Q943.588 1462.48 945.254 1463.98 Q946.944 1465.49 949.977 1465.49 Q952.986 1465.49 954.676 1463.98 Q956.389 1462.48 956.389 1459.79 Q956.389 1457.11 954.676 1455.6 Q952.986 1454.1 949.977 1454.1 Q946.944 1454.1 945.254 1455.6 Q943.588 1457.11 943.588 1459.79 Z" fill="#000000" fill-rule="nonzero" fill-opacity="1" /><path clip-path="url(#clip710)" d="M1259.73 1481.64 L1267.36 1481.64 L1267.36 1455.28 L1259.05 1456.95 L1259.05 1452.69 L1267.32 1451.02 L1271.99 1451.02 L1271.99 1481.64 L1279.63 1481.64 L1279.63 1485.58 L1259.73 1485.58 L1259.73 1481.64 Z" fill="#000000" fill-rule="nonzero" fill-opacity="1" /><path clip-path="url(#clip710)" d="M1299.08 1469.17 Q1295.74 1469.17 1293.82 1470.95 Q1291.92 1472.73 1291.92 1475.86 Q1291.92 1478.98 1293.82 1480.77 Q1295.74 1482.55 1299.08 1482.55 Q1302.41 1482.55 1304.33 1480.77 Q1306.25 1478.96 1306.25 1475.86 Q1306.25 1472.73 1304.33 1470.95 Q1302.43 1469.17 1299.08 1469.17 M1294.4 1467.18 Q1291.39 1466.44 1289.7 1464.38 Q1288.04 1462.32 1288.04 1459.35 Q1288.04 1455.21 1290.98 1452.8 Q1293.94 1450.39 1299.08 1450.39 Q1304.24 1450.39 1307.18 1452.8 Q1310.12 1455.21 1310.12 1459.35 Q1310.12 1462.32 1308.43 1464.38 Q1306.76 1466.44 1303.78 1467.18 Q1307.16 1467.96 1309.03 1470.26 Q1310.93 1472.55 1310.93 1475.86 Q1310.93 1480.88 1307.85 1483.57 Q1304.79 1486.25 1299.08 1486.25 Q1293.36 1486.25 1290.28 1483.57 Q1287.23 1480.88 1287.23 1475.86 Q1287.23 1472.55 1289.12 1470.26 Q1291.02 1467.96 1294.4 1467.18 M1292.69 1459.79 Q1292.69 1462.48 1294.36 1463.98 Q1296.04 1465.49 1299.08 1465.49 Q1302.09 1465.49 1303.78 1463.98 Q1305.49 1462.48 1305.49 1459.79 Q1305.49 1457.11 1303.78 1455.6 Q1302.09 1454.1 1299.08 1454.1 Q1296.04 1454.1 1294.36 1455.6 Q1292.69 1457.11 1292.69 1459.79 Z" fill="#000000" fill-rule="nonzero" fill-opacity="1" /><path clip-path="url(#clip710)" d="M1319.24 1479.7 L1324.12 1479.7 L1324.12 1485.58 L1319.24 1485.58 L1319.24 1479.7 Z" fill="#000000" fill-rule="nonzero" fill-opacity="1" /><path clip-path="url(#clip710)" d="M1344.31 1454.1 Q1340.7 1454.1 1338.87 1457.66 Q1337.06 1461.2 1337.06 1468.33 Q1337.06 1475.44 1338.87 1479.01 Q1340.7 1482.55 1344.31 1482.55 Q1347.94 1482.55 1349.75 1479.01 Q1351.58 1475.44 1351.58 1468.33 Q1351.58 1461.2 1349.75 1457.66 Q1347.94 1454.1 1344.31 1454.1 M1344.31 1450.39 Q1350.12 1450.39 1353.17 1455 Q1356.25 1459.58 1356.25 1468.33 Q1356.25 1477.06 1353.17 1481.67 Q1350.12 1486.25 1344.31 1486.25 Q1338.5 1486.25 1335.42 1481.67 Q1332.36 1477.06 1332.36 1468.33 Q1332.36 1459.58 1335.42 1455 Q1338.5 1450.39 1344.31 1450.39 Z" fill="#000000" fill-rule="nonzero" fill-opacity="1" /><path clip-path="url(#clip710)" d="M1654.9 1481.64 L1662.54 1481.64 L1662.54 1455.28 L1654.23 1456.95 L1654.23 1452.69 L1662.49 1451.02 L1667.17 1451.02 L1667.17 1481.64 L1674.81 1481.64 L1674.81 1485.58 L1654.9 1485.58 L1654.9 1481.64 Z" fill="#000000" fill-rule="nonzero" fill-opacity="1" /><path clip-path="url(#clip710)" d="M1694.25 1469.17 Q1690.92 1469.17 1689 1470.95 Q1687.1 1472.73 1687.1 1475.86 Q1687.1 1478.98 1689 1480.77 Q1690.92 1482.55 1694.25 1482.55 Q1697.59 1482.55 1699.51 1480.77 Q1701.43 1478.96 1701.43 1475.86 Q1701.43 1472.73 1699.51 1470.95 Q1697.61 1469.17 1694.25 1469.17 M1689.58 1467.18 Q1686.57 1466.44 1684.88 1464.38 Q1683.21 1462.32 1683.21 1459.35 Q1683.21 1455.21 1686.15 1452.8 Q1689.12 1450.39 1694.25 1450.39 Q1699.42 1450.39 1702.36 1452.8 Q1705.3 1455.21 1705.3 1459.35 Q1705.3 1462.32 1703.61 1464.38 Q1701.94 1466.44 1698.95 1467.18 Q1702.33 1467.96 1704.21 1470.26 Q1706.11 1472.55 1706.11 1475.86 Q1706.11 1480.88 1703.03 1483.57 Q1699.97 1486.25 1694.25 1486.25 Q1688.54 1486.25 1685.46 1483.57 Q1682.4 1480.88 1682.4 1475.86 Q1682.4 1472.55 1684.3 1470.26 Q1686.2 1467.96 1689.58 1467.18 M1687.87 1459.79 Q1687.87 1462.48 1689.53 1463.98 Q1691.22 1465.49 1694.25 1465.49 Q1697.26 1465.49 1698.95 1463.98 Q1700.67 1462.48 1700.67 1459.79 Q1700.67 1457.11 1698.95 1455.6 Q1697.26 1454.1 1694.25 1454.1 Q1691.22 1454.1 1689.53 1455.6 Q1687.87 1457.11 1687.87 1459.79 Z" fill="#000000" fill-rule="nonzero" fill-opacity="1" /><path clip-path="url(#clip710)" d="M1714.42 1479.7 L1719.3 1479.7 L1719.3 1485.58 L1714.42 1485.58 L1714.42 1479.7 Z" fill="#000000" fill-rule="nonzero" fill-opacity="1" /><path clip-path="url(#clip710)" d="M1733.51 1481.64 L1749.83 1481.64 L1749.83 1485.58 L1727.89 1485.58 L1727.89 1481.64 Q1730.55 1478.89 1735.13 1474.26 Q1739.74 1469.61 1740.92 1468.27 Q1743.17 1465.74 1744.05 1464.01 Q1744.95 1462.25 1744.95 1460.56 Q1744.95 1457.8 1743 1456.07 Q1741.08 1454.33 1737.98 1454.33 Q1735.78 1454.33 1733.33 1455.09 Q1730.9 1455.86 1728.12 1457.41 L1728.12 1452.69 Q1730.94 1451.55 1733.4 1450.97 Q1735.85 1450.39 1737.89 1450.39 Q1743.26 1450.39 1746.45 1453.08 Q1749.65 1455.77 1749.65 1460.26 Q1749.65 1462.39 1748.84 1464.31 Q1748.05 1466.2 1745.94 1468.8 Q1745.36 1469.47 1742.26 1472.69 Q1739.16 1475.88 1733.51 1481.64 Z" fill="#000000" fill-rule="nonzero" fill-opacity="1" /><path clip-path="url(#clip710)" d="M2048.24 1481.64 L2055.88 1481.64 L2055.88 1455.28 L2047.57 1456.95 L2047.57 1452.69 L2055.83 1451.02 L2060.51 1451.02 L2060.51 1481.64 L2068.15 1481.64 L2068.15 1485.58 L2048.24 1485.58 L2048.24 1481.64 Z" fill="#000000" fill-rule="nonzero" fill-opacity="1" /><path clip-path="url(#clip710)" d="M2087.59 1469.17 Q2084.26 1469.17 2082.34 1470.95 Q2080.44 1472.73 2080.44 1475.86 Q2080.44 1478.98 2082.34 1480.77 Q2084.26 1482.55 2087.59 1482.55 Q2090.92 1482.55 2092.85 1480.77 Q2094.77 1478.96 2094.77 1475.86 Q2094.77 1472.73 2092.85 1470.95 Q2090.95 1469.17 2087.59 1469.17 M2082.91 1467.18 Q2079.91 1466.44 2078.22 1464.38 Q2076.55 1462.32 2076.55 1459.35 Q2076.55 1455.21 2079.49 1452.8 Q2082.45 1450.39 2087.59 1450.39 Q2092.75 1450.39 2095.69 1452.8 Q2098.63 1455.21 2098.63 1459.35 Q2098.63 1462.32 2096.94 1464.38 Q2095.28 1466.44 2092.29 1467.18 Q2095.67 1467.96 2097.54 1470.26 Q2099.44 1472.55 2099.44 1475.86 Q2099.44 1480.88 2096.36 1483.57 Q2093.31 1486.25 2087.59 1486.25 Q2081.87 1486.25 2078.79 1483.57 Q2075.74 1480.88 2075.74 1475.86 Q2075.74 1472.55 2077.64 1470.26 Q2079.54 1467.96 2082.91 1467.18 M2081.2 1459.79 Q2081.2 1462.48 2082.87 1463.98 Q2084.56 1465.49 2087.59 1465.49 Q2090.6 1465.49 2092.29 1463.98 Q2094 1462.48 2094 1459.79 Q2094 1457.11 2092.29 1455.6 Q2090.6 1454.1 2087.59 1454.1 Q2084.56 1454.1 2082.87 1455.6 Q2081.2 1457.11 2081.2 1459.79 Z" fill="#000000" fill-rule="nonzero" fill-opacity="1" /><path clip-path="url(#clip710)" d="M2107.75 1479.7 L2112.64 1479.7 L2112.64 1485.58 L2107.75 1485.58 L2107.75 1479.7 Z" fill="#000000" fill-rule="nonzero" fill-opacity="1" /><path clip-path="url(#clip710)" d="M2135.67 1455.09 L2123.86 1473.54 L2135.67 1473.54 L2135.67 1455.09 M2134.44 1451.02 L2140.32 1451.02 L2140.32 1473.54 L2145.25 1473.54 L2145.25 1477.43 L2140.32 1477.43 L2140.32 1485.58 L2135.67 1485.58 L2135.67 1477.43 L2120.07 1477.43 L2120.07 1472.92 L2134.44 1451.02 Z" fill="#000000" fill-rule="nonzero" fill-opacity="1" /><path clip-path="url(#clip710)" d="M1015.82 1520.52 L1043.13 1520.52 L1043.13 1525.93 L1022.25 1525.93 L1022.25 1539.94 L1041.09 1539.94 L1041.09 1545.35 L1022.25 1545.35 L1022.25 1568.04 L1015.82 1568.04 L1015.82 1520.52 Z" fill="#000000" fill-rule="nonzero" fill-opacity="1" /><path clip-path="url(#clip710)" d="M1068.97 1537.87 Q1067.98 1537.3 1066.81 1537.04 Q1065.66 1536.76 1064.26 1536.76 Q1059.3 1536.76 1056.62 1540 Q1053.98 1543.22 1053.98 1549.27 L1053.98 1568.04 L1048.09 1568.04 L1048.09 1532.4 L1053.98 1532.4 L1053.98 1537.93 Q1055.83 1534.69 1058.79 1533.13 Q1061.75 1531.54 1065.98 1531.54 Q1066.58 1531.54 1067.32 1531.63 Q1068.05 1531.7 1068.94 1531.85 L1068.97 1537.87 Z" fill="#000000" fill-rule="nonzero" fill-opacity="1" /><path clip-path="url(#clip710)" d="M1104.17 1548.76 L1104.17 1551.62 L1077.25 1551.62 Q1077.63 1557.67 1080.88 1560.85 Q1084.15 1564 1089.98 1564 Q1093.35 1564 1096.5 1563.17 Q1099.69 1562.35 1102.81 1560.69 L1102.81 1566.23 Q1099.65 1567.57 1096.34 1568.27 Q1093.03 1568.97 1089.63 1568.97 Q1081.1 1568.97 1076.1 1564 Q1071.14 1559.04 1071.14 1550.57 Q1071.14 1541.82 1075.85 1536.69 Q1080.59 1531.54 1088.61 1531.54 Q1095.8 1531.54 1099.97 1536.18 Q1104.17 1540.8 1104.17 1548.76 M1098.32 1547.04 Q1098.25 1542.23 1095.61 1539.37 Q1093 1536.5 1088.67 1536.5 Q1083.77 1536.5 1080.81 1539.27 Q1077.88 1542.04 1077.44 1547.07 L1098.32 1547.04 Z" fill="#000000" fill-rule="nonzero" fill-opacity="1" /><path clip-path="url(#clip710)" d="M1117.29 1550.25 Q1117.29 1556.71 1119.93 1560.4 Q1122.6 1564.07 1127.25 1564.07 Q1131.9 1564.07 1134.57 1560.4 Q1137.24 1556.71 1137.24 1550.25 Q1137.24 1543.79 1134.57 1540.13 Q1131.9 1536.44 1127.25 1536.44 Q1122.6 1536.44 1119.93 1540.13 Q1117.29 1543.79 1117.29 1550.25 M1137.24 1562.7 Q1135.4 1565.88 1132.56 1567.44 Q1129.76 1568.97 1125.82 1568.97 Q1119.36 1568.97 1115.28 1563.81 Q1111.24 1558.65 1111.24 1550.25 Q1111.24 1541.85 1115.28 1536.69 Q1119.36 1531.54 1125.82 1531.54 Q1129.76 1531.54 1132.56 1533.1 Q1135.4 1534.62 1137.24 1537.81 L1137.24 1532.4 L1143.1 1532.4 L1143.1 1581.6 L1137.24 1581.6 L1137.24 1562.7 Z" fill="#000000" fill-rule="nonzero" fill-opacity="1" /><path clip-path="url(#clip710)" d="M1154.56 1553.98 L1154.56 1532.4 L1160.41 1532.4 L1160.41 1553.75 Q1160.41 1558.81 1162.39 1561.36 Q1164.36 1563.87 1168.31 1563.87 Q1173.05 1563.87 1175.79 1560.85 Q1178.56 1557.83 1178.56 1552.61 L1178.56 1532.4 L1184.41 1532.4 L1184.41 1568.04 L1178.56 1568.04 L1178.56 1562.57 Q1176.42 1565.82 1173.59 1567.41 Q1170.79 1568.97 1167.07 1568.97 Q1160.92 1568.97 1157.74 1565.15 Q1154.56 1561.33 1154.56 1553.98 M1169.29 1531.54 L1169.29 1531.54 Z" fill="#000000" fill-rule="nonzero" fill-opacity="1" /><path clip-path="url(#clip710)" d="M1226.97 1548.76 L1226.97 1551.62 L1200.04 1551.62 Q1200.42 1557.67 1203.67 1560.85 Q1206.95 1564 1212.77 1564 Q1216.15 1564 1219.3 1563.17 Q1222.48 1562.35 1225.6 1560.69 L1225.6 1566.23 Q1222.45 1567.57 1219.14 1568.27 Q1215.83 1568.97 1212.42 1568.97 Q1203.89 1568.97 1198.9 1564 Q1193.93 1559.04 1193.93 1550.57 Q1193.93 1541.82 1198.64 1536.69 Q1203.38 1531.54 1211.4 1531.54 Q1218.6 1531.54 1222.77 1536.18 Q1226.97 1540.8 1226.97 1548.76 M1221.11 1547.04 Q1221.05 1542.23 1218.41 1539.37 Q1215.8 1536.5 1211.47 1536.5 Q1206.57 1536.5 1203.61 1539.27 Q1200.68 1542.04 1200.23 1547.07 L1221.11 1547.04 Z" fill="#000000" fill-rule="nonzero" fill-opacity="1" /><path clip-path="url(#clip710)" d="M1266.21 1546.53 L1266.21 1568.04 L1260.36 1568.04 L1260.36 1546.72 Q1260.36 1541.66 1258.38 1539.14 Q1256.41 1536.63 1252.46 1536.63 Q1247.72 1536.63 1244.98 1539.65 Q1242.25 1542.68 1242.25 1547.9 L1242.25 1568.04 L1236.36 1568.04 L1236.36 1532.4 L1242.25 1532.4 L1242.25 1537.93 Q1244.35 1534.72 1247.18 1533.13 Q1250.04 1531.54 1253.77 1531.54 Q1259.91 1531.54 1263.06 1535.36 Q1266.21 1539.14 1266.21 1546.53 Z" fill="#000000" fill-rule="nonzero" fill-opacity="1" /><path clip-path="url(#clip710)" d="M1303.55 1533.76 L1303.55 1539.24 Q1301.07 1537.87 1298.55 1537.2 Q1296.07 1536.5 1293.52 1536.5 Q1287.82 1536.5 1284.67 1540.13 Q1281.52 1543.73 1281.52 1550.25 Q1281.52 1556.78 1284.67 1560.4 Q1287.82 1564 1293.52 1564 Q1296.07 1564 1298.55 1563.33 Q1301.07 1562.63 1303.55 1561.26 L1303.55 1566.68 Q1301.1 1567.82 1298.46 1568.39 Q1295.85 1568.97 1292.89 1568.97 Q1284.83 1568.97 1280.09 1563.91 Q1275.35 1558.85 1275.35 1550.25 Q1275.35 1541.53 1280.12 1536.53 Q1284.93 1531.54 1293.27 1531.54 Q1295.97 1531.54 1298.55 1532.11 Q1301.13 1532.65 1303.55 1533.76 Z" fill="#000000" fill-rule="nonzero" fill-opacity="1" /><path clip-path="url(#clip710)" d="M1313.73 1532.4 L1319.59 1532.4 L1319.59 1568.04 L1313.73 1568.04 L1313.73 1532.4 M1313.73 1518.52 L1319.59 1518.52 L1319.59 1525.93 L1313.73 1525.93 L1313.73 1518.52 Z" fill="#000000" fill-rule="nonzero" fill-opacity="1" /><path clip-path="url(#clip710)" d="M1362.33 1548.76 L1362.33 1551.62 L1335.41 1551.62 Q1335.79 1557.67 1339.04 1560.85 Q1342.31 1564 1348.14 1564 Q1351.51 1564 1354.66 1563.17 Q1357.85 1562.35 1360.97 1560.69 L1360.97 1566.23 Q1357.82 1567.57 1354.51 1568.27 Q1351.19 1568.97 1347.79 1568.97 Q1339.26 1568.97 1334.26 1564 Q1329.3 1559.04 1329.3 1550.57 Q1329.3 1541.82 1334.01 1536.69 Q1338.75 1531.54 1346.77 1531.54 Q1353.96 1531.54 1358.13 1536.18 Q1362.33 1540.8 1362.33 1548.76 M1356.48 1547.04 Q1356.41 1542.23 1353.77 1539.37 Q1351.16 1536.5 1346.83 1536.5 Q1341.93 1536.5 1338.97 1539.27 Q1336.04 1542.04 1335.6 1547.07 L1356.48 1547.04 Z" fill="#000000" fill-rule="nonzero" fill-opacity="1" /><path clip-path="url(#clip710)" d="M1394.67 1533.45 L1394.67 1538.98 Q1392.19 1537.71 1389.52 1537.07 Q1386.84 1536.44 1383.98 1536.44 Q1379.62 1536.44 1377.42 1537.77 Q1375.26 1539.11 1375.26 1541.79 Q1375.26 1543.82 1376.82 1545 Q1378.38 1546.15 1383.09 1547.2 L1385.09 1547.64 Q1391.33 1548.98 1393.94 1551.43 Q1396.58 1553.85 1396.58 1558.21 Q1396.58 1563.17 1392.64 1566.07 Q1388.72 1568.97 1381.85 1568.97 Q1378.98 1568.97 1375.86 1568.39 Q1372.77 1567.85 1369.34 1566.74 L1369.34 1560.69 Q1372.58 1562.38 1375.73 1563.24 Q1378.89 1564.07 1381.97 1564.07 Q1386.11 1564.07 1388.34 1562.66 Q1390.57 1561.23 1390.57 1558.65 Q1390.57 1556.27 1388.94 1554.99 Q1387.35 1553.72 1381.91 1552.54 L1379.87 1552.07 Q1374.43 1550.92 1372.01 1548.56 Q1369.59 1546.18 1369.59 1542.04 Q1369.59 1537.01 1373.16 1534.27 Q1376.72 1531.54 1383.28 1531.54 Q1386.52 1531.54 1389.39 1532.01 Q1392.25 1532.49 1394.67 1533.45 Z" fill="#000000" fill-rule="nonzero" fill-opacity="1" /><path clip-path="url(#clip710)" d="M1426.09 1518.52 L1439.58 1518.52 L1439.58 1523.07 L1431.94 1523.07 L1431.94 1572.09 L1439.58 1572.09 L1439.58 1576.64 L1426.09 1576.64 L1426.09 1518.52 Z" fill="#000000" fill-rule="nonzero" fill-opacity="1" /><path clip-path="url(#clip710)" d="M1484.72 1561.26 L1484.72 1548.5 L1474.21 1548.5 L1474.21 1543.22 L1491.08 1543.22 L1491.08 1563.62 Q1487.36 1566.26 1482.87 1567.63 Q1478.38 1568.97 1473.29 1568.97 Q1462.15 1568.97 1455.85 1562.47 Q1449.58 1555.95 1449.58 1544.33 Q1449.58 1532.68 1455.85 1526.19 Q1462.15 1519.66 1473.29 1519.66 Q1477.94 1519.66 1482.11 1520.81 Q1486.31 1521.96 1489.84 1524.18 L1489.84 1531.03 Q1486.28 1528 1482.26 1526.48 Q1478.25 1524.95 1473.83 1524.95 Q1465.11 1524.95 1460.72 1529.82 Q1456.36 1534.69 1456.36 1544.33 Q1456.36 1553.94 1460.72 1558.81 Q1465.11 1563.68 1473.83 1563.68 Q1477.24 1563.68 1479.91 1563.11 Q1482.58 1562.51 1484.72 1561.26 Z" fill="#000000" fill-rule="nonzero" fill-opacity="1" /><path clip-path="url(#clip710)" d="M1502.83 1520.52 L1509.26 1520.52 L1509.26 1540 L1532.62 1540 L1532.62 1520.52 L1539.05 1520.52 L1539.05 1568.04 L1532.62 1568.04 L1532.62 1545.41 L1509.26 1545.41 L1509.26 1568.04 L1502.83 1568.04 L1502.83 1520.52 Z" fill="#000000" fill-rule="nonzero" fill-opacity="1" /><path clip-path="url(#clip710)" d="M1549.04 1532.4 L1576.86 1532.4 L1576.86 1537.74 L1554.83 1563.37 L1576.86 1563.37 L1576.86 1568.04 L1548.25 1568.04 L1548.25 1562.7 L1570.27 1537.07 L1549.04 1537.07 L1549.04 1532.4 Z" fill="#000000" fill-rule="nonzero" fill-opacity="1" /><path clip-path="url(#clip710)" d="M1599.49 1518.52 L1599.49 1576.64 L1585.99 1576.64 L1585.99 1572.09 L1593.6 1572.09 L1593.6 1523.07 L1585.99 1523.07 L1585.99 1518.52 L1599.49 1518.52 Z" fill="#000000" fill-rule="nonzero" fill-opacity="1" /><polyline clip-path="url(#clip710)" style="stroke:#000000; stroke-linecap:round; stroke-linejoin:round; stroke-width:4; stroke-opacity:1; fill:none" points="262.551,1423.18 262.551,47.2441 "/>
<polyline clip-path="url(#clip710)" style="stroke:#000000; stroke-linecap:round; stroke-linejoin:round; stroke-width:4; stroke-opacity:1; fill:none" points="262.551,1384.38 281.449,1384.38 "/>
<polyline clip-path="url(#clip710)" style="stroke:#000000; stroke-linecap:round; stroke-linejoin:round; stroke-width:4; stroke-opacity:1; fill:none" points="262.551,994.482 281.449,994.482 "/>
<polyline clip-path="url(#clip710)" style="stroke:#000000; stroke-linecap:round; stroke-linejoin:round; stroke-width:4; stroke-opacity:1; fill:none" points="262.551,604.585 281.449,604.585 "/>
<polyline clip-path="url(#clip710)" style="stroke:#000000; stroke-linecap:round; stroke-linejoin:round; stroke-width:4; stroke-opacity:1; fill:none" points="262.551,214.689 281.449,214.689 "/>
<path clip-path="url(#clip710)" d="M214.607 1370.18 Q210.996 1370.18 209.167 1373.74 Q207.362 1377.28 207.362 1384.41 Q207.362 1391.52 209.167 1395.08 Q210.996 1398.63 214.607 1398.63 Q218.241 1398.63 220.047 1395.08 Q221.875 1391.52 221.875 1384.41 Q221.875 1377.28 220.047 1373.74 Q218.241 1370.18 214.607 1370.18 M214.607 1366.47 Q220.417 1366.47 223.473 1371.08 Q226.551 1375.66 226.551 1384.41 Q226.551 1393.14 223.473 1397.75 Q220.417 1402.33 214.607 1402.33 Q208.797 1402.33 205.718 1397.75 Q202.662 1393.14 202.662 1384.41 Q202.662 1375.66 205.718 1371.08 Q208.797 1366.47 214.607 1366.47 Z" fill="#000000" fill-rule="nonzero" fill-opacity="1" /><path clip-path="url(#clip710)" d="M144.329 977.202 L162.686 977.202 L162.686 981.137 L148.612 981.137 L148.612 989.609 Q149.63 989.262 150.649 989.1 Q151.667 988.914 152.686 988.914 Q158.473 988.914 161.852 992.086 Q165.232 995.257 165.232 1000.67 Q165.232 1006.25 161.76 1009.35 Q158.288 1012.43 151.968 1012.43 Q149.792 1012.43 147.524 1012.06 Q145.279 1011.69 142.871 1010.95 L142.871 1006.25 Q144.954 1007.39 147.177 1007.94 Q149.399 1008.5 151.876 1008.5 Q155.88 1008.5 158.218 1006.39 Q160.556 1004.28 160.556 1000.67 Q160.556 997.063 158.218 994.956 Q155.88 992.85 151.876 992.85 Q150.001 992.85 148.126 993.266 Q146.274 993.683 144.329 994.563 L144.329 977.202 Z" fill="#000000" fill-rule="nonzero" fill-opacity="1" /><path clip-path="url(#clip710)" d="M184.445 980.28 Q180.834 980.28 179.005 983.845 Q177.2 987.387 177.2 994.516 Q177.2 1001.62 179.005 1005.19 Q180.834 1008.73 184.445 1008.73 Q188.079 1008.73 189.885 1005.19 Q191.713 1001.62 191.713 994.516 Q191.713 987.387 189.885 983.845 Q188.079 980.28 184.445 980.28 M184.445 976.577 Q190.255 976.577 193.311 981.183 Q196.389 985.766 196.389 994.516 Q196.389 1003.24 193.311 1007.85 Q190.255 1012.43 184.445 1012.43 Q178.635 1012.43 175.556 1007.85 Q172.501 1003.24 172.501 994.516 Q172.501 985.766 175.556 981.183 Q178.635 976.577 184.445 976.577 Z" fill="#000000" fill-rule="nonzero" fill-opacity="1" /><path clip-path="url(#clip710)" d="M214.607 980.28 Q210.996 980.28 209.167 983.845 Q207.362 987.387 207.362 994.516 Q207.362 1001.62 209.167 1005.19 Q210.996 1008.73 214.607 1008.73 Q218.241 1008.73 220.047 1005.19 Q221.875 1001.62 221.875 994.516 Q221.875 987.387 220.047 983.845 Q218.241 980.28 214.607 980.28 M214.607 976.577 Q220.417 976.577 223.473 981.183 Q226.551 985.766 226.551 994.516 Q226.551 1003.24 223.473 1007.85 Q220.417 1012.43 214.607 1012.43 Q208.797 1012.43 205.718 1007.85 Q202.662 1003.24 202.662 994.516 Q202.662 985.766 205.718 981.183 Q208.797 976.577 214.607 976.577 Z" fill="#000000" fill-rule="nonzero" fill-opacity="1" /><path clip-path="url(#clip710)" d="M114.931 617.93 L122.57 617.93 L122.57 591.564 L114.26 593.231 L114.26 588.972 L122.524 587.305 L127.2 587.305 L127.2 617.93 L134.839 617.93 L134.839 621.865 L114.931 621.865 L114.931 617.93 Z" fill="#000000" fill-rule="nonzero" fill-opacity="1" /><path clip-path="url(#clip710)" d="M154.283 590.384 Q150.672 590.384 148.843 593.949 Q147.038 597.49 147.038 604.62 Q147.038 611.726 148.843 615.291 Q150.672 618.833 154.283 618.833 Q157.917 618.833 159.723 615.291 Q161.552 611.726 161.552 604.62 Q161.552 597.49 159.723 593.949 Q157.917 590.384 154.283 590.384 M154.283 586.68 Q160.093 586.68 163.149 591.287 Q166.227 595.87 166.227 604.62 Q166.227 613.347 163.149 617.953 Q160.093 622.536 154.283 622.536 Q148.473 622.536 145.394 617.953 Q142.339 613.347 142.339 604.62 Q142.339 595.87 145.394 591.287 Q148.473 586.68 154.283 586.68 Z" fill="#000000" fill-rule="nonzero" fill-opacity="1" /><path clip-path="url(#clip710)" d="M184.445 590.384 Q180.834 590.384 179.005 593.949 Q177.2 597.49 177.2 604.62 Q177.2 611.726 179.005 615.291 Q180.834 618.833 184.445 618.833 Q188.079 618.833 189.885 615.291 Q191.713 611.726 191.713 604.62 Q191.713 597.49 189.885 593.949 Q188.079 590.384 184.445 590.384 M184.445 586.68 Q190.255 586.68 193.311 591.287 Q196.389 595.87 196.389 604.62 Q196.389 613.347 193.311 617.953 Q190.255 622.536 184.445 622.536 Q178.635 622.536 175.556 617.953 Q172.501 613.347 172.501 604.62 Q172.501 595.87 175.556 591.287 Q178.635 586.68 184.445 586.68 Z" fill="#000000" fill-rule="nonzero" fill-opacity="1" /><path clip-path="url(#clip710)" d="M214.607 590.384 Q210.996 590.384 209.167 593.949 Q207.362 597.49 207.362 604.62 Q207.362 611.726 209.167 615.291 Q210.996 618.833 214.607 618.833 Q218.241 618.833 220.047 615.291 Q221.875 611.726 221.875 604.62 Q221.875 597.49 220.047 593.949 Q218.241 590.384 214.607 590.384 M214.607 586.68 Q220.417 586.68 223.473 591.287 Q226.551 595.87 226.551 604.62 Q226.551 613.347 223.473 617.953 Q220.417 622.536 214.607 622.536 Q208.797 622.536 205.718 617.953 Q202.662 613.347 202.662 604.62 Q202.662 595.87 205.718 591.287 Q208.797 586.68 214.607 586.68 Z" fill="#000000" fill-rule="nonzero" fill-opacity="1" /><path clip-path="url(#clip710)" d="M114.931 228.034 L122.57 228.034 L122.57 201.668 L114.26 203.335 L114.26 199.075 L122.524 197.409 L127.2 197.409 L127.2 228.034 L134.839 228.034 L134.839 231.969 L114.931 231.969 L114.931 228.034 Z" fill="#000000" fill-rule="nonzero" fill-opacity="1" /><path clip-path="url(#clip710)" d="M144.329 197.409 L162.686 197.409 L162.686 201.344 L148.612 201.344 L148.612 209.816 Q149.63 209.469 150.649 209.307 Q151.667 209.122 152.686 209.122 Q158.473 209.122 161.852 212.293 Q165.232 215.464 165.232 220.881 Q165.232 226.46 161.76 229.561 Q158.288 232.64 151.968 232.64 Q149.792 232.64 147.524 232.27 Q145.279 231.899 142.871 231.159 L142.871 226.46 Q144.954 227.594 147.177 228.149 Q149.399 228.705 151.876 228.705 Q155.88 228.705 158.218 226.598 Q160.556 224.492 160.556 220.881 Q160.556 217.27 158.218 215.163 Q155.88 213.057 151.876 213.057 Q150.001 213.057 148.126 213.474 Q146.274 213.89 144.329 214.77 L144.329 197.409 Z" fill="#000000" fill-rule="nonzero" fill-opacity="1" /><path clip-path="url(#clip710)" d="M184.445 200.487 Q180.834 200.487 179.005 204.052 Q177.2 207.594 177.2 214.724 Q177.2 221.83 179.005 225.395 Q180.834 228.936 184.445 228.936 Q188.079 228.936 189.885 225.395 Q191.713 221.83 191.713 214.724 Q191.713 207.594 189.885 204.052 Q188.079 200.487 184.445 200.487 M184.445 196.784 Q190.255 196.784 193.311 201.39 Q196.389 205.974 196.389 214.724 Q196.389 223.45 193.311 228.057 Q190.255 232.64 184.445 232.64 Q178.635 232.64 175.556 228.057 Q172.501 223.45 172.501 214.724 Q172.501 205.974 175.556 201.39 Q178.635 196.784 184.445 196.784 Z" fill="#000000" fill-rule="nonzero" fill-opacity="1" /><path clip-path="url(#clip710)" d="M214.607 200.487 Q210.996 200.487 209.167 204.052 Q207.362 207.594 207.362 214.724 Q207.362 221.83 209.167 225.395 Q210.996 228.936 214.607 228.936 Q218.241 228.936 220.047 225.395 Q221.875 221.83 221.875 214.724 Q221.875 207.594 220.047 204.052 Q218.241 200.487 214.607 200.487 M214.607 196.784 Q220.417 196.784 223.473 201.39 Q226.551 205.974 226.551 214.724 Q226.551 223.45 223.473 228.057 Q220.417 232.64 214.607 232.64 Q208.797 232.64 205.718 228.057 Q202.662 223.45 202.662 214.724 Q202.662 205.974 205.718 201.39 Q208.797 196.784 214.607 196.784 Z" fill="#000000" fill-rule="nonzero" fill-opacity="1" /><path clip-path="url(#clip710)" d="M41.3104 969.884 L58.7206 969.884 L58.7206 959.571 Q58.7206 954.383 56.5881 951.901 Q54.4238 949.386 49.9996 949.386 Q45.5436 949.386 43.4429 951.901 Q41.3104 954.383 41.3104 959.571 L41.3104 969.884 M21.7677 969.884 L36.0905 969.884 L36.0905 960.367 Q36.0905 955.656 34.34 953.365 Q32.5576 951.041 28.9291 951.041 Q25.3325 951.041 23.5501 953.365 Q21.7677 955.656 21.7677 960.367 L21.7677 969.884 M16.4842 976.313 L16.4842 959.89 Q16.4842 952.537 19.5397 948.559 Q22.5952 944.58 28.2289 944.58 Q32.5894 944.58 35.1675 946.617 Q37.7456 948.654 38.3822 952.601 Q39.4007 947.858 42.6472 945.248 Q45.8619 942.607 50.6998 942.607 Q57.0655 942.607 60.5348 946.935 Q64.0042 951.264 64.0042 959.253 L64.0042 976.313 L16.4842 976.313 Z" fill="#000000" fill-rule="nonzero" fill-opacity="1" /><path clip-path="url(#clip710)" d="M32.4621 918.035 Q32.4621 922.746 36.1542 925.483 Q39.8145 928.22 46.212 928.22 Q52.6095 928.22 56.3017 925.515 Q59.9619 922.778 59.9619 918.035 Q59.9619 913.356 56.2698 910.619 Q52.5777 907.882 46.212 907.882 Q39.8781 907.882 36.186 910.619 Q32.4621 913.356 32.4621 918.035 M27.4968 918.035 Q27.4968 910.396 32.4621 906.036 Q37.4273 901.675 46.212 901.675 Q54.9649 901.675 59.9619 906.036 Q64.9272 910.396 64.9272 918.035 Q64.9272 925.706 59.9619 930.066 Q54.9649 934.395 46.212 934.395 Q37.4273 934.395 32.4621 930.066 Q27.4968 925.706 27.4968 918.035 Z" fill="#000000" fill-rule="nonzero" fill-opacity="1" /><path clip-path="url(#clip710)" d="M32.4621 878.154 Q32.4621 882.865 36.1542 885.602 Q39.8145 888.339 46.212 888.339 Q52.6095 888.339 56.3017 885.634 Q59.9619 882.896 59.9619 878.154 Q59.9619 873.475 56.2698 870.738 Q52.5777 868.001 46.212 868.001 Q39.8781 868.001 36.186 870.738 Q32.4621 873.475 32.4621 878.154 M27.4968 878.154 Q27.4968 870.515 32.4621 866.155 Q37.4273 861.794 46.212 861.794 Q54.9649 861.794 59.9619 866.155 Q64.9272 870.515 64.9272 878.154 Q64.9272 885.825 59.9619 890.185 Q54.9649 894.514 46.212 894.514 Q37.4273 894.514 32.4621 890.185 Q27.4968 885.825 27.4968 878.154 Z" fill="#000000" fill-rule="nonzero" fill-opacity="1" /><path clip-path="url(#clip710)" d="M29.4065 829.361 L34.9447 829.361 Q33.6716 831.843 33.035 834.517 Q32.3984 837.191 32.3984 840.055 Q32.3984 844.416 33.7352 846.612 Q35.072 848.776 37.7456 848.776 Q39.7826 848.776 40.9603 847.217 Q42.1061 845.657 43.1565 840.946 L43.6021 838.941 Q44.9389 832.703 47.3897 830.093 Q49.8086 827.451 54.1691 827.451 Q59.1344 827.451 62.0308 831.398 Q64.9272 835.313 64.9272 842.188 Q64.9272 845.052 64.3543 848.171 Q63.8132 851.259 62.6992 854.696 L56.6518 854.696 Q58.3387 851.45 59.198 848.299 Q60.0256 845.148 60.0256 842.06 Q60.0256 837.923 58.6251 835.695 Q57.1929 833.467 54.6147 833.467 Q52.2276 833.467 50.9545 835.09 Q49.6813 836.681 48.5037 842.124 L48.0262 844.161 Q46.8804 849.604 44.5251 852.023 Q42.138 854.442 38.0002 854.442 Q32.9713 854.442 30.2341 850.877 Q27.4968 847.312 27.4968 840.755 Q27.4968 837.509 27.9743 834.644 Q28.4517 831.78 29.4065 829.361 Z" fill="#000000" fill-rule="nonzero" fill-opacity="1" /><path clip-path="url(#clip710)" d="M18.2347 812.333 L28.3562 812.333 L28.3562 800.269 L32.9077 800.269 L32.9077 812.333 L52.2594 812.333 Q56.6199 812.333 57.8613 811.155 Q59.1026 809.945 59.1026 806.285 L59.1026 800.269 L64.0042 800.269 L64.0042 806.285 Q64.0042 813.065 61.4897 815.643 Q58.9434 818.221 52.2594 818.221 L32.9077 818.221 L32.9077 822.518 L28.3562 822.518 L28.3562 818.221 L18.2347 818.221 L18.2347 812.333 Z" fill="#000000" fill-rule="nonzero" fill-opacity="1" /><path clip-path="url(#clip710)" d="M16.4842 771.592 L16.4842 744.283 L21.895 744.283 L21.895 765.163 L35.8996 765.163 L35.8996 746.32 L41.3104 746.32 L41.3104 765.163 L64.0042 765.163 L64.0042 771.592 L16.4842 771.592 Z" fill="#000000" fill-rule="nonzero" fill-opacity="1" /><path clip-path="url(#clip710)" d="M46.0847 724.136 Q46.0847 731.233 47.7079 733.971 Q49.3312 736.708 53.2461 736.708 Q56.3653 736.708 58.2114 734.671 Q60.0256 732.602 60.0256 729.069 Q60.0256 724.199 56.5881 721.271 Q53.1188 718.311 47.3897 718.311 L46.0847 718.311 L46.0847 724.136 M43.6657 712.455 L64.0042 712.455 L64.0042 718.311 L58.5933 718.311 Q61.8398 720.316 63.3994 723.308 Q64.9272 726.3 64.9272 730.629 Q64.9272 736.103 61.8716 739.35 Q58.7843 742.564 53.6281 742.564 Q47.6125 742.564 44.5569 738.554 Q41.5014 734.512 41.5014 726.523 L41.5014 718.311 L40.9285 718.311 Q36.8862 718.311 34.6901 720.985 Q32.4621 723.626 32.4621 728.432 Q32.4621 731.488 33.1941 734.384 Q33.9262 737.281 35.3903 739.954 L29.9795 739.954 Q28.7381 736.74 28.1334 733.716 Q27.4968 730.692 27.4968 727.828 Q27.4968 720.093 31.5072 716.274 Q35.5176 712.455 43.6657 712.455 Z" fill="#000000" fill-rule="nonzero" fill-opacity="1" /><path clip-path="url(#clip710)" d="M29.7248 674.738 L35.1993 674.738 Q33.8307 677.22 33.1623 679.735 Q32.4621 682.217 32.4621 684.764 Q32.4621 690.461 36.0905 693.612 Q39.6872 696.763 46.212 696.763 Q52.7369 696.763 56.3653 693.612 Q59.9619 690.461 59.9619 684.764 Q59.9619 682.217 59.2935 679.735 Q58.5933 677.22 57.2247 674.738 L62.6355 674.738 Q63.7814 677.189 64.3543 679.83 Q64.9272 682.44 64.9272 685.4 Q64.9272 693.453 59.8664 698.195 Q54.8057 702.938 46.212 702.938 Q37.491 702.938 32.4939 698.164 Q27.4968 693.357 27.4968 685.018 Q27.4968 682.313 28.0697 679.735 Q28.6108 677.157 29.7248 674.738 Z" fill="#000000" fill-rule="nonzero" fill-opacity="1" /><path clip-path="url(#clip710)" d="M18.2347 658.76 L28.3562 658.76 L28.3562 646.697 L32.9077 646.697 L32.9077 658.76 L52.2594 658.76 Q56.6199 658.76 57.8613 657.582 Q59.1026 656.373 59.1026 652.712 L59.1026 646.697 L64.0042 646.697 L64.0042 652.712 Q64.0042 659.492 61.4897 662.07 Q58.9434 664.648 52.2594 664.648 L32.9077 664.648 L32.9077 668.945 L28.3562 668.945 L28.3562 664.648 L18.2347 664.648 L18.2347 658.76 Z" fill="#000000" fill-rule="nonzero" fill-opacity="1" /><path clip-path="url(#clip710)" d="M32.4621 625.181 Q32.4621 629.891 36.1542 632.629 Q39.8145 635.366 46.212 635.366 Q52.6095 635.366 56.3017 632.66 Q59.9619 629.923 59.9619 625.181 Q59.9619 620.502 56.2698 617.765 Q52.5777 615.027 46.212 615.027 Q39.8781 615.027 36.186 617.765 Q32.4621 620.502 32.4621 625.181 M27.4968 625.181 Q27.4968 617.542 32.4621 613.181 Q37.4273 608.821 46.212 608.821 Q54.9649 608.821 59.9619 613.181 Q64.9272 617.542 64.9272 625.181 Q64.9272 632.851 59.9619 637.212 Q54.9649 641.541 46.212 641.541 Q37.4273 641.541 32.4621 637.212 Q27.4968 632.851 27.4968 625.181 Z" fill="#000000" fill-rule="nonzero" fill-opacity="1" /><path clip-path="url(#clip710)" d="M33.8307 578.456 Q33.2578 579.443 33.0032 580.621 Q32.7167 581.767 32.7167 583.167 Q32.7167 588.132 35.9632 590.806 Q39.1779 593.448 45.2253 593.448 L64.0042 593.448 L64.0042 599.336 L28.3562 599.336 L28.3562 593.448 L33.8944 593.448 Q30.6479 591.602 29.0883 588.642 Q27.4968 585.682 27.4968 581.448 Q27.4968 580.844 27.5923 580.112 Q27.656 579.379 27.8151 578.488 L33.8307 578.456 Z" fill="#000000" fill-rule="nonzero" fill-opacity="1" /><path clip-path="url(#clip710)" d="M61.808 545.737 L77.5631 545.737 L77.5631 551.625 L28.579 551.625 Q14.0652 551.625 14.0652 538.066 Q14.0652 524.252 26.3192 524.252 Q35.0402 524.252 38.223 529.727 Q41.0876 520.815 49.5858 520.815 Q64.6726 520.815 64.6726 536.156 Q64.6726 542.904 61.808 545.737 M54.1691 545.737 Q59.6755 542.204 59.6755 535.934 Q59.6755 526.767 49.6813 526.767 Q40.7057 526.767 41.4059 541.535 L35.995 541.535 Q35.995 529.982 25.8099 529.982 Q18.8395 529.982 18.8395 537.429 Q18.8395 545.737 28.77 545.737 L54.1691 545.737 Z" fill="#000000" fill-rule="nonzero" fill-opacity="1" /><path clip-path="url(#clip710)" d="M39.1142 507.606 L39.1142 494.111 L42.7427 494.111 L42.7427 513.144 L39.2416 513.144 Q38.2549 512.062 36.4725 510.057 Q26.7648 499.108 23.7729 499.108 Q21.6722 499.108 20.3991 500.763 Q19.0941 502.418 19.0941 505.124 Q19.0941 506.779 19.667 508.72 Q20.2081 510.662 21.3221 512.953 L17.4072 512.953 Q16.516 510.503 16.0704 508.402 Q15.6248 506.269 15.6248 504.455 Q15.6248 499.84 17.7255 497.071 Q19.8262 494.302 23.2636 494.302 Q27.6878 494.302 36.7271 504.837 Q38.2549 506.619 39.1142 507.606 Z" fill="#000000" fill-rule="nonzero" fill-opacity="1" /><polyline clip-path="url(#clip712)" style="stroke:#009af9; stroke-linecap:round; stroke-linejoin:round; stroke-width:4; stroke-opacity:1; fill:none" points="321.708,1384.24 323.682,1384.23 325.656,1384.23 327.63,1384.23 329.603,1384.22 331.577,1384.22 333.551,1384.22 335.525,1384.21 337.499,1384.21 339.473,1384.21 341.447,1384.2 343.42,1384.2 345.394,1384.19 347.368,1384.19 349.342,1384.19 351.316,1384.18 353.29,1384.18 355.264,1384.17 357.238,1384.17 359.211,1384.16 361.185,1384.16 363.159,1384.15 365.133,1384.15 367.107,1384.14 369.081,1384.14 371.055,1384.13 373.028,1384.13 375.002,1384.12 376.976,1384.12 378.95,1384.11 380.924,1384.11 382.898,1384.1 384.872,1384.1 386.846,1384.09 388.819,1384.09 390.793,1384.08 392.767,1384.08 394.741,1384.07 396.715,1384.06 398.689,1384.06 400.663,1384.05 402.636,1384.05 404.61,1384.04 406.584,1384.03 408.558,1384.03 410.532,1384.02 412.506,1384.02 414.48,1384.01 416.453,1384 418.427,1384 420.401,1383.99 422.375,1383.98 424.349,1383.97 426.323,1383.97 428.297,1383.96 430.271,1383.95 432.244,1383.95 434.218,1383.94 436.192,1383.93 438.166,1383.92 440.14,1383.92 442.114,1383.91 444.088,1383.9 446.061,1383.89 448.035,1383.88 450.009,1383.87 451.983,1383.87 453.957,1383.86 455.931,1383.85 457.905,1383.84 459.879,1383.83 461.852,1383.82 463.826,1383.81 465.8,1383.81 467.774,1383.8 469.748,1383.79 471.722,1383.78 473.696,1383.77 475.669,1383.76 477.643,1383.75 479.617,1383.74 481.591,1383.73 483.565,1383.72 485.539,1383.71 487.513,1383.7 489.486,1383.69 491.46,1383.68 493.434,1383.67 495.408,1383.65 497.382,1383.64 499.356,1383.63 501.33,1383.62 503.304,1383.61 505.277,1383.6 507.251,1383.59 509.225,1383.57 511.199,1383.56 513.173,1383.55 515.147,1383.54 517.121,1383.52 519.094,1383.51 521.068,1383.5 523.042,1383.49 525.016,1383.47 526.99,1383.46 528.964,1383.45 530.938,1383.43 532.912,1383.42 534.885,1383.41 536.859,1383.39 538.833,1383.38 540.807,1383.36 542.781,1383.35 544.755,1383.33 546.729,1383.32 548.702,1383.3 550.676,1383.29 552.65,1383.27 554.624,1383.26 556.598,1383.24 558.572,1383.23 560.546,1383.21 562.519,1383.19 564.493,1383.18 566.467,1383.16 568.441,1383.14 570.415,1383.12 572.389,1383.11 574.363,1383.09 576.337,1383.07 578.31,1383.05 580.284,1383.04 582.258,1383.02 584.232,1383 586.206,1382.98 588.18,1382.96 590.154,1382.94 592.127,1382.92 594.101,1382.9 596.075,1382.88 598.049,1382.86 600.023,1382.84 601.997,1382.82 603.971,1382.8 605.945,1382.78 607.918,1382.75 609.892,1382.73 611.866,1382.71 613.84,1382.69 615.814,1382.67 617.788,1382.64 619.762,1382.62 621.735,1382.6 623.709,1382.57 625.683,1382.55 627.657,1382.52 629.631,1382.5 631.605,1382.47 633.579,1382.45 635.553,1382.42 637.526,1382.4 639.5,1382.37 641.474,1382.34 643.448,1382.32 645.422,1382.29 647.396,1382.26 649.37,1382.23 651.343,1382.2 653.317,1382.18 655.291,1382.15 657.265,1382.12 659.239,1382.09 661.213,1382.06 663.187,1382.03 665.16,1382 667.134,1381.97 669.108,1381.93 671.082,1381.9 673.056,1381.87 675.03,1381.84 677.004,1381.8 678.978,1381.77 680.951,1381.74 682.925,1381.7 684.899,1381.67 686.873,1381.63 688.847,1381.59 690.821,1381.56 692.795,1381.52 694.768,1381.48 696.742,1381.45 698.716,1381.41 700.69,1381.37 702.664,1381.33 704.638,1381.29 706.612,1381.25 708.586,1381.21 710.559,1381.17 712.533,1381.13 714.507,1381.08 716.481,1381.04 718.455,1381 720.429,1380.95 722.403,1380.91 724.376,1380.86 726.35,1380.82 728.324,1380.77 730.298,1380.73 732.272,1380.68 734.246,1380.63 736.22,1380.58 738.193,1380.53 740.167,1380.48 742.141,1380.43 744.115,1380.38 746.089,1380.33 748.063,1380.27 750.037,1380.22 752.011,1380.17 753.984,1380.11 755.958,1380.06 757.932,1380 759.906,1379.94 761.88,1379.88 763.854,1379.83 765.828,1379.77 767.801,1379.71 769.775,1379.64 771.749,1379.58 773.723,1379.52 775.697,1379.46 777.671,1379.39 779.645,1379.33 781.619,1379.26 783.592,1379.19 785.566,1379.12 787.54,1379.05 789.514,1378.98 791.488,1378.91 793.462,1378.84 795.436,1378.77 797.409,1378.69 799.383,1378.62 801.357,1378.54 803.331,1378.46 805.305,1378.38 807.279,1378.3 809.253,1378.22 811.226,1378.14 813.2,1378.06 815.174,1377.97 817.148,1377.89 819.122,1377.8 821.096,1377.71 823.07,1377.62 825.044,1377.53 827.017,1377.44 828.991,1377.35 830.965,1377.25 832.939,1377.15 834.913,1377.06 836.887,1376.96 838.861,1376.86 840.834,1376.75 842.808,1376.65 844.782,1376.55 846.756,1376.44 848.73,1376.33 850.704,1376.22 852.678,1376.11 854.652,1375.99 856.625,1375.88 858.599,1375.76 860.573,1375.64 862.547,1375.52 864.521,1375.4 866.495,1375.27 868.469,1375.15 870.442,1375.02 872.416,1374.89 874.39,1374.75 876.364,1374.62 878.338,1374.48 880.312,1374.34 882.286,1374.2 884.26,1374.06 886.233,1373.91 888.207,1373.76 890.181,1373.61 892.155,1373.46 894.129,1373.3 896.103,1373.14 898.077,1372.98 900.05,1372.82 902.024,1372.65 903.998,1372.48 905.972,1372.31 907.946,1372.14 909.92,1371.96 911.894,1371.78 913.867,1371.59 915.841,1371.4 917.815,1371.21 919.789,1371.02 921.763,1370.82 923.737,1370.62 925.711,1370.42 927.685,1370.21 929.658,1370 931.632,1369.78 933.606,1369.56 935.58,1369.34 937.554,1369.11 939.528,1368.88 941.502,1368.65 943.475,1368.41 945.449,1368.16 947.423,1367.92 949.397,1367.66 951.371,1367.41 953.345,1367.14 955.319,1366.88 957.293,1366.6 959.266,1366.33 961.24,1366.04 963.214,1365.76 965.188,1365.46 967.162,1365.16 969.136,1364.86 971.11,1364.55 973.083,1364.23 975.057,1363.91 977.031,1363.58 979.005,1363.24 980.979,1362.9 982.953,1362.55 984.927,1362.19 986.9,1361.83 988.874,1361.46 990.848,1361.08 992.822,1360.7 994.796,1360.3 996.77,1359.9 998.744,1359.49 1000.72,1359.07 1002.69,1358.64 1004.67,1358.21 1006.64,1357.76 1008.61,1357.3 1010.59,1356.84 1012.56,1356.36 1014.53,1355.88 1016.51,1355.38 1018.48,1354.88 1020.46,1354.36 1022.43,1353.83 1024.4,1353.29 1026.38,1352.73 1028.35,1352.17 1030.33,1351.59 1032.3,1351 1034.27,1350.39 1036.25,1349.77 1038.22,1349.14 1040.19,1348.49 1042.17,1347.83 1044.14,1347.15 1046.12,1346.45 1048.09,1345.74 1050.06,1345.01 1052.04,1344.27 1054.01,1343.5 1055.99,1342.72 1057.96,1341.92 1059.93,1341.09 1061.91,1340.25 1063.88,1339.39 1065.86,1338.5 1067.83,1337.59 1069.8,1336.66 1071.78,1335.71 1073.75,1334.73 1075.72,1333.72 1077.7,1332.69 1079.67,1331.63 1081.65,1330.54 1083.62,1329.42 1085.59,1328.28 1087.57,1327.1 1089.54,1325.89 1091.52,1324.64 1093.49,1323.36 1095.46,1322.05 1097.44,1320.7 1099.41,1319.31 1101.38,1317.88 1103.36,1316.41 1105.33,1314.89 1107.31,1313.34 1109.28,1311.73 1111.25,1310.08 1113.23,1308.38 1115.2,1306.63 1117.18,1304.82 1119.15,1302.96 1121.12,1301.05 1123.1,1299.07 1125.07,1297.03 1127.04,1294.93 1129.02,1292.76 1130.99,1290.52 1132.97,1288.2 1134.94,1285.81 1136.91,1283.35 1138.89,1280.8 1140.86,1278.17 1142.84,1275.44 1144.81,1272.63 1146.78,1269.72 1148.76,1266.71 1150.73,1263.59 1152.71,1260.36 1154.68,1257.02 1156.65,1253.57 1158.63,1249.98 1160.6,1246.27 1162.57,1242.42 1164.55,1238.43 1166.52,1234.29 1168.5,1229.99 1170.47,1225.53 1172.44,1220.9 1174.42,1216.1 1176.39,1211.1 1178.37,1205.91 1180.34,1200.52 1182.31,1194.91 1184.29,1189.08 1186.26,1183.01 1188.23,1176.7 1190.21,1170.12 1192.18,1163.28 1194.16,1156.14 1196.13,1148.71 1198.1,1140.97 1200.08,1132.9 1202.05,1124.48 1204.03,1115.7 1206,1106.54 1207.97,1096.98 1209.95,1087 1211.92,1076.58 1213.89,1065.71 1215.87,1054.35 1217.84,1042.48 1219.82,1030.09 1221.79,1017.15 1223.76,1003.62 1225.74,989.499 1227.71,974.743 1229.69,959.332 1231.66,943.239 1233.63,926.437 1235.61,908.901 1237.58,890.605 1239.56,871.526 1241.53,851.641 1243.5,830.93 1245.48,809.377 1247.45,786.968 1249.42,763.694 1251.4,739.552 1253.37,714.545 1255.35,688.686 1257.32,661.994 1259.29,634.5 1261.27,606.249 1263.24,577.297 1265.22,547.718 1267.19,517.599 1269.16,487.049 1271.14,456.196 1273.11,425.185 1275.08,394.185 1277.06,363.385 1279.03,332.993 1281.01,303.236 1282.98,274.358 1284.95,246.614 1286.93,220.268 1288.9,195.589 1290.88,172.842 1292.85,152.283 1294.82,134.153 1296.8,118.669 1298.77,106.019 1300.75,96.3568 1302.72,89.7929 1304.69,86.3954 1306.67,86.1857 1308.64,89.1382 1310.61,95.1821 1312.59,104.204 1314.56,116.051 1316.54,130.54 1318.51,147.458 1320.48,166.573 1322.46,187.641 1324.43,210.41 1326.41,234.625 1328.38,260.039 1330.35,286.411 1332.33,313.515 1334.3,341.136 1336.27,369.081 1338.25,397.173 1340.22,425.253 1342.2,453.182 1344.17,480.839 1346.14,508.12 1348.12,534.937 1350.09,561.219 1352.07,586.907 1354.04,611.954 1356.01,636.325 1357.99,659.995 1359.96,682.947 1361.93,705.172 1363.91,726.665 1365.88,747.428 1367.86,767.469 1369.83,786.796 1371.8,805.423 1373.78,823.365 1375.75,840.639 1377.73,857.264 1379.7,873.258 1381.67,888.643 1383.65,903.438 1385.62,917.665 1387.6,931.345 1389.57,944.499 1391.54,957.146 1393.52,969.307 1395.49,981.001 1397.46,992.249 1399.44,1003.07 1401.41,1013.48 1403.39,1023.49 1405.36,1033.13 1407.33,1042.4 1409.31,1051.34 1411.28,1059.94 1413.26,1068.23 1415.23,1076.21 1417.2,1083.9 1419.18,1091.32 1421.15,1098.47 1423.12,1105.37 1425.1,1112.03 1427.07,1118.46 1429.05,1124.66 1431.02,1130.65 1432.99,1136.43 1434.97,1142.02 1436.94,1147.42 1438.92,1152.65 1440.89,1157.7 1442.86,1162.58 1444.84,1167.31 1446.81,1171.89 1448.78,1176.32 1450.76,1180.61 1452.73,1184.76 1454.71,1188.79 1456.68,1192.69 1458.65,1196.48 1460.63,1200.15 1462.6,1203.71 1464.58,1207.16 1466.55,1210.52 1468.52,1213.77 1470.5,1216.93 1472.47,1220 1474.45,1222.98 1476.42,1225.88 1478.39,1228.7 1480.37,1231.44 1482.34,1234.1 1484.31,1236.69 1486.29,1239.21 1488.26,1241.67 1490.24,1244.06 1492.21,1246.38 1494.18,1248.65 1496.16,1250.85 1498.13,1253 1500.11,1255.1 1502.08,1257.14 1504.05,1259.13 1506.03,1261.07 1508,1262.96 1509.97,1264.81 1511.95,1266.61 1513.92,1268.37 1515.9,1270.08 1517.87,1271.76 1519.84,1273.39 1521.82,1274.99 1523.79,1276.55 1525.77,1278.08 1527.74,1279.56 1529.71,1281.02 1531.69,1282.44 1533.66,1283.84 1535.63,1285.2 1537.61,1286.53 1539.58,1287.83 1541.56,1289.1 1543.53,1290.35 1545.5,1291.57 1547.48,1292.76 1549.45,1293.93 1551.43,1295.07 1553.4,1296.19 1555.37,1297.29 1557.35,1298.36 1559.32,1299.42 1561.3,1300.45 1563.27,1301.46 1565.24,1302.45 1567.22,1303.42 1569.19,1304.37 1571.16,1305.31 1573.14,1306.22 1575.11,1307.12 1577.09,1308 1579.06,1308.87 1581.03,1309.71 1583.01,1310.55 1584.98,1311.36 1586.96,1312.16 1588.93,1312.95 1590.9,1313.72 1592.88,1314.48 1594.85,1315.23 1596.82,1315.96 1598.8,1316.68 1600.77,1317.38 1602.75,1318.07 1604.72,1318.76 1606.69,1319.43 1608.67,1320.08 1610.64,1320.73 1612.62,1321.37 1614.59,1321.99 1616.56,1322.6 1618.54,1323.21 1620.51,1323.8 1622.49,1324.39 1624.46,1324.96 1626.43,1325.53 1628.41,1326.08 1630.38,1326.63 1632.35,1327.17 1634.33,1327.7 1636.3,1328.22 1638.28,1328.73 1640.25,1329.24 1642.22,1329.74 1644.2,1330.22 1646.17,1330.71 1648.15,1331.18 1650.12,1331.65 1652.09,1332.11 1654.07,1332.56 1656.04,1333.01 1658.01,1333.45 1659.99,1333.88 1661.96,1334.31 1663.94,1334.73 1665.91,1335.15 1667.88,1335.55 1669.86,1335.96 1671.83,1336.35 1673.81,1336.75 1675.78,1337.13 1677.75,1337.51 1679.73,1337.89 1681.7,1338.26 1683.67,1338.62 1685.65,1338.98 1687.62,1339.33 1689.6,1339.68 1691.57,1340.03 1693.54,1340.37 1695.52,1340.71 1697.49,1341.04 1699.47,1341.36 1701.44,1341.69 1703.41,1342 1705.39,1342.32 1707.36,1342.63 1709.34,1342.93 1711.31,1343.24 1713.28,1343.53 1715.26,1343.83 1717.23,1344.12 1719.2,1344.41 1721.18,1344.69 1723.15,1344.97 1725.13,1345.25 1727.1,1345.52 1729.07,1345.79 1731.05,1346.05 1733.02,1346.32 1735,1346.58 1736.97,1346.83 1738.94,1347.09 1740.92,1347.34 1742.89,1347.58 1744.86,1347.83 1746.84,1348.07 1748.81,1348.31 1750.79,1348.54 1752.76,1348.78 1754.73,1349.01 1756.71,1349.23 1758.68,1349.46 1760.66,1349.68 1762.63,1349.9 1764.6,1350.12 1766.58,1350.33 1768.55,1350.54 1770.52,1350.75 1772.5,1350.96 1774.47,1351.17 1776.45,1351.37 1778.42,1351.57 1780.39,1351.77 1782.37,1351.96 1784.34,1352.16 1786.32,1352.35 1788.29,1352.54 1790.26,1352.73 1792.24,1352.91 1794.21,1353.1 1796.19,1353.28 1798.16,1353.46 1800.13,1353.64 1802.11,1353.81 1804.08,1353.99 1806.05,1354.16 1808.03,1354.33 1810,1354.5 1811.98,1354.67 1813.95,1354.83 1815.92,1355 1817.9,1355.16 1819.87,1355.32 1821.85,1355.48 1823.82,1355.64 1825.79,1355.79 1827.77,1355.95 1829.74,1356.1 1831.71,1356.25 1833.69,1356.4 1835.66,1356.55 1837.64,1356.69 1839.61,1356.84 1841.58,1356.98 1843.56,1357.13 1845.53,1357.27 1847.51,1357.41 1849.48,1357.54 1851.45,1357.68 1853.43,1357.82 1855.4,1357.95 1857.37,1358.08 1859.35,1358.22 1861.32,1358.35 1863.3,1358.48 1865.27,1358.6 1867.24,1358.73 1869.22,1358.86 1871.19,1358.98 1873.17,1359.11 1875.14,1359.23 1877.11,1359.35 1879.09,1359.47 1881.06,1359.59 1883.04,1359.71 1885.01,1359.82 1886.98,1359.94 1888.96,1360.06 1890.93,1360.17 1892.9,1360.28 1894.88,1360.39 1896.85,1360.5 1898.83,1360.61 1900.8,1360.72 1902.77,1360.83 1904.75,1360.94 1906.72,1361.04 1908.7,1361.15 1910.67,1361.25 1912.64,1361.36 1914.62,1361.46 1916.59,1361.56 1918.56,1361.66 1920.54,1361.76 1922.51,1361.86 1924.49,1361.96 1926.46,1362.06 1928.43,1362.15 1930.41,1362.25 1932.38,1362.35 1934.36,1362.44 1936.33,1362.53 1938.3,1362.63 1940.28,1362.72 1942.25,1362.81 1944.23,1362.9 1946.2,1362.99 1948.17,1363.08 1950.15,1363.17 1952.12,1363.25 1954.09,1363.34 1956.07,1363.43 1958.04,1363.51 1960.02,1363.6 1961.99,1363.68 1963.96,1363.77 1965.94,1363.85 1967.91,1363.93 1969.89,1364.01 1971.86,1364.09 1973.83,1364.17 1975.81,1364.25 1977.78,1364.33 1979.75,1364.41 1981.73,1364.49 1983.7,1364.57 1985.68,1364.64 1987.65,1364.72 1989.62,1364.8 1991.6,1364.87 1993.57,1364.95 1995.55,1365.02 1997.52,1365.09 1999.49,1365.17 2001.47,1365.24 2003.44,1365.31 2005.41,1365.38 2007.39,1365.45 2009.36,1365.52 2011.34,1365.59 2013.31,1365.66 2015.28,1365.73 2017.26,1365.8 2019.23,1365.87 2021.21,1365.93 2023.18,1366 2025.15,1366.07 2027.13,1366.13 2029.1,1366.2 2031.08,1366.26 2033.05,1366.33 2035.02,1366.39 2037,1366.45 2038.97,1366.52 2040.94,1366.58 2042.92,1366.64 2044.89,1366.7 2046.87,1366.76 2048.84,1366.82 2050.81,1366.89 2052.79,1366.95 2054.76,1367 2056.74,1367.06 2058.71,1367.12 2060.68,1367.18 2062.66,1367.24 2064.63,1367.3 2066.6,1367.35 2068.58,1367.41 2070.55,1367.47 2072.53,1367.52 2074.5,1367.58 2076.47,1367.63 2078.45,1367.69 2080.42,1367.74 2082.4,1367.8 2084.37,1367.85 2086.34,1367.91 2088.32,1367.96 2090.29,1368.01 2092.26,1368.06 2094.24,1368.12 2096.21,1368.17 2098.19,1368.22 2100.16,1368.27 2102.13,1368.32 2104.11,1368.37 2106.08,1368.42 2108.06,1368.47 2110.03,1368.52 2112,1368.57 2113.98,1368.62 2115.95,1368.67 2117.93,1368.72 2119.9,1368.77 2121.87,1368.81 2123.85,1368.86 2125.82,1368.91 2127.79,1368.96 2129.77,1369 2131.74,1369.05 2133.72,1369.09 2135.69,1369.14 2137.66,1369.19 2139.64,1369.23 2141.61,1369.28 2143.59,1369.32 2145.56,1369.36 2147.53,1369.41 2149.51,1369.45 2151.48,1369.5 2153.45,1369.54 2155.43,1369.58 2157.4,1369.62 2159.38,1369.67 2161.35,1369.71 2163.32,1369.75 2165.3,1369.79 2167.27,1369.83 2169.25,1369.88 2171.22,1369.92 2173.19,1369.96 2175.17,1370 2177.14,1370.04 2179.11,1370.08 2181.09,1370.12 2183.06,1370.16 2185.04,1370.2 2187.01,1370.24 2188.98,1370.28 2190.96,1370.31 2192.93,1370.35 2194.91,1370.39 2196.88,1370.43 2198.85,1370.47 2200.83,1370.5 2202.8,1370.54 2204.78,1370.58 2206.75,1370.62 2208.72,1370.65 2210.7,1370.69 2212.67,1370.73 2214.64,1370.76 2216.62,1370.8 2218.59,1370.83 2220.57,1370.87 2222.54,1370.91 2224.51,1370.94 2226.49,1370.98 2228.46,1371.01 2230.44,1371.04 2232.41,1371.08 2234.38,1371.11 2236.36,1371.15 2238.33,1371.18 2240.3,1371.22 2242.28,1371.25 2244.25,1371.28 2246.23,1371.32 2248.2,1371.35 2250.17,1371.38 2252.15,1371.41 2254.12,1371.45 2256.1,1371.48 2258.07,1371.51 2260.04,1371.54 2262.02,1371.57 2263.99,1371.61 2265.97,1371.64 2267.94,1371.67 2269.91,1371.7 2271.89,1371.73 2273.86,1371.76 2275.83,1371.79 2277.81,1371.82 2279.78,1371.85 2281.76,1371.88 2283.73,1371.91 2285.7,1371.94 2287.68,1371.97 2289.65,1372 2291.63,1372.03 2293.6,1372.06 "/>
<polyline clip-path="url(#clip712)" style="stroke:#ff0000; stroke-linecap:round; stroke-linejoin:round; stroke-width:4; stroke-opacity:1; fill:none" points="1258.36,2799.12 1258.36,-1328.69 "/>
<polyline clip-path="url(#clip712)" style="stroke:#ff0000; stroke-linecap:round; stroke-linejoin:round; stroke-width:4; stroke-opacity:1; fill:none" points="1356.95,2799.12 1356.95,-1328.69 "/>
</svg>
