<?xml version="1.0" encoding="utf-8"?>
<svg xmlns="http://www.w3.org/2000/svg" xmlns:xlink="http://www.w3.org/1999/xlink" width="600" height="400" viewBox="0 0 2400 1600">
<defs>
  <clipPath id="clip790">
    <rect x="0" y="0" width="2400" height="1600"/>
  </clipPath>
</defs>
<path clip-path="url(#clip790)" d="M0 1600 L2400 1600 L2400 0 L0 0  Z" fill="#ffffff" fill-rule="evenodd" fill-opacity="1"/>
<defs>
  <clipPath id="clip791">
    <rect x="480" y="0" width="1681" height="1600"/>
  </clipPath>
</defs>
<path clip-path="url(#clip790)" d="M220.005 1423.18 L2352.76 1423.18 L2352.76 47.2441 L220.005 47.2441  Z" fill="#ffffff" fill-rule="evenodd" fill-opacity="1"/>
<defs>
  <clipPath id="clip792">
    <rect x="220" y="47" width="2134" height="1377"/>
  </clipPath>
</defs>
<polyline clip-path="url(#clip792)" style="stroke:#000000; stroke-linecap:round; stroke-linejoin:round; stroke-width:2; stroke-opacity:0.1; fill:none" points="280.366,1423.18 280.366,47.2441 "/>
<polyline clip-path="url(#clip792)" style="stroke:#000000; stroke-linecap:round; stroke-linejoin:round; stroke-width:2; stroke-opacity:0.1; fill:none" points="951.042,1423.18 951.042,47.2441 "/>
<polyline clip-path="url(#clip792)" style="stroke:#000000; stroke-linecap:round; stroke-linejoin:round; stroke-width:2; stroke-opacity:0.1; fill:none" points="1621.72,1423.18 1621.72,47.2441 "/>
<polyline clip-path="url(#clip792)" style="stroke:#000000; stroke-linecap:round; stroke-linejoin:round; stroke-width:2; stroke-opacity:0.1; fill:none" points="2292.4,1423.18 2292.4,47.2441 "/>
<polyline clip-path="url(#clip792)" style="stroke:#000000; stroke-linecap:round; stroke-linejoin:round; stroke-width:2; stroke-opacity:0.1; fill:none" points="220.005,1310.62 2352.76,1310.62 "/>
<polyline clip-path="url(#clip792)" style="stroke:#000000; stroke-linecap:round; stroke-linejoin:round; stroke-width:2; stroke-opacity:0.1; fill:none" points="220.005,1117.66 2352.76,1117.66 "/>
<polyline clip-path="url(#clip792)" style="stroke:#000000; stroke-linecap:round; stroke-linejoin:round; stroke-width:2; stroke-opacity:0.1; fill:none" points="220.005,924.698 2352.76,924.698 "/>
<polyline clip-path="url(#clip792)" style="stroke:#000000; stroke-linecap:round; stroke-linejoin:round; stroke-width:2; stroke-opacity:0.1; fill:none" points="220.005,731.738 2352.76,731.738 "/>
<polyline clip-path="url(#clip792)" style="stroke:#000000; stroke-linecap:round; stroke-linejoin:round; stroke-width:2; stroke-opacity:0.1; fill:none" points="220.005,538.778 2352.76,538.778 "/>
<polyline clip-path="url(#clip792)" style="stroke:#000000; stroke-linecap:round; stroke-linejoin:round; stroke-width:2; stroke-opacity:0.1; fill:none" points="220.005,345.818 2352.76,345.818 "/>
<polyline clip-path="url(#clip792)" style="stroke:#000000; stroke-linecap:round; stroke-linejoin:round; stroke-width:2; stroke-opacity:0.1; fill:none" points="220.005,152.857 2352.76,152.857 "/>
<polyline clip-path="url(#clip790)" style="stroke:#000000; stroke-linecap:round; stroke-linejoin:round; stroke-width:4; stroke-opacity:1; fill:none" points="220.005,1423.18 2352.76,1423.18 "/>
<polyline clip-path="url(#clip790)" style="stroke:#000000; stroke-linecap:round; stroke-linejoin:round; stroke-width:4; stroke-opacity:1; fill:none" points="280.366,1423.18 280.366,1404.28 "/>
<polyline clip-path="url(#clip790)" style="stroke:#000000; stroke-linecap:round; stroke-linejoin:round; stroke-width:4; stroke-opacity:1; fill:none" points="951.042,1423.18 951.042,1404.28 "/>
<polyline clip-path="url(#clip790)" style="stroke:#000000; stroke-linecap:round; stroke-linejoin:round; stroke-width:4; stroke-opacity:1; fill:none" points="1621.72,1423.18 1621.72,1404.28 "/>
<polyline clip-path="url(#clip790)" style="stroke:#000000; stroke-linecap:round; stroke-linejoin:round; stroke-width:4; stroke-opacity:1; fill:none" points="2292.4,1423.18 2292.4,1404.28 "/>
<path clip-path="url(#clip790)" d="M270.748 1481.64 L278.387 1481.64 L278.387 1455.28 L270.077 1456.95 L270.077 1452.69 L278.341 1451.02 L283.016 1451.02 L283.016 1481.64 L290.655 1481.64 L290.655 1485.58 L270.748 1485.58 L270.748 1481.64 Z" fill="#000000" fill-rule="nonzero" fill-opacity="1" /><path clip-path="url(#clip790)" d="M945.695 1481.64 L962.015 1481.64 L962.015 1485.58 L940.07 1485.58 L940.07 1481.64 Q942.732 1478.89 947.316 1474.26 Q951.922 1469.61 953.103 1468.27 Q955.348 1465.74 956.228 1464.01 Q957.13 1462.25 957.13 1460.56 Q957.13 1457.8 955.186 1456.07 Q953.265 1454.33 950.163 1454.33 Q947.964 1454.33 945.51 1455.09 Q943.079 1455.86 940.302 1457.41 L940.302 1452.69 Q943.126 1451.55 945.579 1450.97 Q948.033 1450.39 950.07 1450.39 Q955.44 1450.39 958.635 1453.08 Q961.829 1455.77 961.829 1460.26 Q961.829 1462.39 961.019 1464.31 Q960.232 1466.2 958.126 1468.8 Q957.547 1469.47 954.445 1472.69 Q951.343 1475.88 945.695 1481.64 Z" fill="#000000" fill-rule="nonzero" fill-opacity="1" /><path clip-path="url(#clip790)" d="M1625.97 1466.95 Q1629.32 1467.66 1631.2 1469.93 Q1633.1 1472.2 1633.1 1475.53 Q1633.1 1480.65 1629.58 1483.45 Q1626.06 1486.25 1619.58 1486.25 Q1617.4 1486.25 1615.09 1485.81 Q1612.8 1485.39 1610.34 1484.54 L1610.34 1480.02 Q1612.29 1481.16 1614.6 1481.74 Q1616.92 1482.32 1619.44 1482.32 Q1623.84 1482.32 1626.13 1480.58 Q1628.44 1478.84 1628.44 1475.53 Q1628.44 1472.48 1626.29 1470.77 Q1624.16 1469.03 1620.34 1469.03 L1616.31 1469.03 L1616.31 1465.19 L1620.53 1465.19 Q1623.98 1465.19 1625.8 1463.82 Q1627.63 1462.43 1627.63 1459.84 Q1627.63 1457.18 1625.73 1455.77 Q1623.86 1454.33 1620.34 1454.33 Q1618.42 1454.33 1616.22 1454.75 Q1614.02 1455.16 1611.38 1456.04 L1611.38 1451.88 Q1614.05 1451.14 1616.36 1450.77 Q1618.7 1450.39 1620.76 1450.39 Q1626.08 1450.39 1629.18 1452.83 Q1632.29 1455.23 1632.29 1459.35 Q1632.29 1462.22 1630.64 1464.21 Q1629 1466.18 1625.97 1466.95 Z" fill="#000000" fill-rule="nonzero" fill-opacity="1" /><path clip-path="url(#clip790)" d="M2295.4 1455.09 L2283.6 1473.54 L2295.4 1473.54 L2295.4 1455.09 M2294.18 1451.02 L2300.06 1451.02 L2300.06 1473.54 L2304.99 1473.54 L2304.99 1477.43 L2300.06 1477.43 L2300.06 1485.58 L2295.4 1485.58 L2295.4 1477.43 L2279.8 1477.43 L2279.8 1472.92 L2294.18 1451.02 Z" fill="#000000" fill-rule="nonzero" fill-opacity="1" /><path clip-path="url(#clip790)" d="M1084.83 1525.81 L1084.83 1562.76 L1092.59 1562.76 Q1102.43 1562.76 1106.98 1558.3 Q1111.56 1553.85 1111.56 1544.24 Q1111.56 1534.69 1106.98 1530.26 Q1102.43 1525.81 1092.59 1525.81 L1084.83 1525.81 M1078.4 1520.52 L1091.61 1520.52 Q1105.42 1520.52 1111.88 1526.28 Q1118.34 1532.01 1118.34 1544.24 Q1118.34 1556.52 1111.85 1562.28 Q1105.36 1568.04 1091.61 1568.04 L1078.4 1568.04 L1078.4 1520.52 Z" fill="#000000" fill-rule="nonzero" fill-opacity="1" /><path clip-path="url(#clip790)" d="M1128.34 1532.4 L1134.19 1532.4 L1134.19 1568.04 L1128.34 1568.04 L1128.34 1532.4 M1128.34 1518.52 L1134.19 1518.52 L1134.19 1525.93 L1128.34 1525.93 L1128.34 1518.52 Z" fill="#000000" fill-rule="nonzero" fill-opacity="1" /><path clip-path="url(#clip790)" d="M1169.17 1533.45 L1169.17 1538.98 Q1166.69 1537.71 1164.02 1537.07 Q1161.34 1536.44 1158.48 1536.44 Q1154.12 1536.44 1151.92 1537.77 Q1149.76 1539.11 1149.76 1541.79 Q1149.76 1543.82 1151.32 1545 Q1152.88 1546.15 1157.59 1547.2 L1159.59 1547.64 Q1165.83 1548.98 1168.44 1551.43 Q1171.08 1553.85 1171.08 1558.21 Q1171.08 1563.17 1167.13 1566.07 Q1163.22 1568.97 1156.35 1568.97 Q1153.48 1568.97 1150.36 1568.39 Q1147.27 1567.85 1143.84 1566.74 L1143.84 1560.69 Q1147.08 1562.38 1150.23 1563.24 Q1153.39 1564.07 1156.47 1564.07 Q1160.61 1564.07 1162.84 1562.66 Q1165.07 1561.23 1165.07 1558.65 Q1165.07 1556.27 1163.44 1554.99 Q1161.85 1553.72 1156.41 1552.54 L1154.37 1552.07 Q1148.93 1550.92 1146.51 1548.56 Q1144.09 1546.18 1144.09 1542.04 Q1144.09 1537.01 1147.66 1534.27 Q1151.22 1531.54 1157.78 1531.54 Q1161.02 1531.54 1163.89 1532.01 Q1166.75 1532.49 1169.17 1533.45 Z" fill="#000000" fill-rule="nonzero" fill-opacity="1" /><path clip-path="url(#clip790)" d="M1206.06 1533.76 L1206.06 1539.24 Q1203.58 1537.87 1201.06 1537.2 Q1198.58 1536.5 1196.04 1536.5 Q1190.34 1536.5 1187.19 1540.13 Q1184.04 1543.73 1184.04 1550.25 Q1184.04 1556.78 1187.19 1560.4 Q1190.34 1564 1196.04 1564 Q1198.58 1564 1201.06 1563.33 Q1203.58 1562.63 1206.06 1561.26 L1206.06 1566.68 Q1203.61 1567.82 1200.97 1568.39 Q1198.36 1568.97 1195.4 1568.97 Q1187.35 1568.97 1182.6 1563.91 Q1177.86 1558.85 1177.86 1550.25 Q1177.86 1541.53 1182.64 1536.53 Q1187.44 1531.54 1195.78 1531.54 Q1198.49 1531.54 1201.06 1532.11 Q1203.64 1532.65 1206.06 1533.76 Z" fill="#000000" fill-rule="nonzero" fill-opacity="1" /><path clip-path="url(#clip790)" d="M1237.22 1520.52 L1243.65 1520.52 L1243.65 1568.04 L1237.22 1568.04 L1237.22 1520.52 Z" fill="#000000" fill-rule="nonzero" fill-opacity="1" /><path clip-path="url(#clip790)" d="M1285.82 1546.53 L1285.82 1568.04 L1279.97 1568.04 L1279.97 1546.72 Q1279.97 1541.66 1277.99 1539.14 Q1276.02 1536.63 1272.07 1536.63 Q1267.33 1536.63 1264.59 1539.65 Q1261.86 1542.68 1261.86 1547.9 L1261.86 1568.04 L1255.97 1568.04 L1255.97 1532.4 L1261.86 1532.4 L1261.86 1537.93 Q1263.96 1534.72 1266.79 1533.13 Q1269.65 1531.54 1273.38 1531.54 Q1279.52 1531.54 1282.67 1535.36 Q1285.82 1539.14 1285.82 1546.53 Z" fill="#000000" fill-rule="nonzero" fill-opacity="1" /><path clip-path="url(#clip790)" d="M1320.96 1537.81 L1320.96 1518.52 L1326.82 1518.52 L1326.82 1568.04 L1320.96 1568.04 L1320.96 1562.7 Q1319.12 1565.88 1316.28 1567.44 Q1313.48 1568.97 1309.54 1568.97 Q1303.07 1568.97 1299 1563.81 Q1294.96 1558.65 1294.96 1550.25 Q1294.96 1541.85 1299 1536.69 Q1303.07 1531.54 1309.54 1531.54 Q1313.48 1531.54 1316.28 1533.1 Q1319.12 1534.62 1320.96 1537.81 M1301.01 1550.25 Q1301.01 1556.71 1303.65 1560.4 Q1306.32 1564.07 1310.97 1564.07 Q1315.62 1564.07 1318.29 1560.4 Q1320.96 1556.71 1320.96 1550.25 Q1320.96 1543.79 1318.29 1540.13 Q1315.62 1536.44 1310.97 1536.44 Q1306.32 1536.44 1303.65 1540.13 Q1301.01 1543.79 1301.01 1550.25 Z" fill="#000000" fill-rule="nonzero" fill-opacity="1" /><path clip-path="url(#clip790)" d="M1369.37 1548.76 L1369.37 1551.62 L1342.45 1551.62 Q1342.83 1557.67 1346.07 1560.85 Q1349.35 1564 1355.18 1564 Q1358.55 1564 1361.7 1563.17 Q1364.89 1562.35 1368 1560.69 L1368 1566.23 Q1364.85 1567.57 1361.54 1568.27 Q1358.23 1568.97 1354.83 1568.97 Q1346.3 1568.97 1341.3 1564 Q1336.34 1559.04 1336.34 1550.57 Q1336.34 1541.82 1341.05 1536.69 Q1345.79 1531.54 1353.81 1531.54 Q1361 1531.54 1365.17 1536.18 Q1369.37 1540.8 1369.37 1548.76 M1363.52 1547.04 Q1363.45 1542.23 1360.81 1539.37 Q1358.2 1536.5 1353.87 1536.5 Q1348.97 1536.5 1346.01 1539.27 Q1343.08 1542.04 1342.64 1547.07 L1363.52 1547.04 Z" fill="#000000" fill-rule="nonzero" fill-opacity="1" /><path clip-path="url(#clip790)" d="M1407.47 1532.4 L1394.58 1549.74 L1408.14 1568.04 L1401.23 1568.04 L1390.86 1554.04 L1380.48 1568.04 L1373.57 1568.04 L1387.42 1549.39 L1374.75 1532.4 L1381.66 1532.4 L1391.11 1545.1 L1400.57 1532.4 L1407.47 1532.4 Z" fill="#000000" fill-rule="nonzero" fill-opacity="1" /><path clip-path="url(#clip790)" d="M1436.6 1518.52 L1450.09 1518.52 L1450.09 1523.07 L1442.45 1523.07 L1442.45 1572.09 L1450.09 1572.09 L1450.09 1576.64 L1436.6 1576.64 L1436.6 1518.52 Z" fill="#000000" fill-rule="nonzero" fill-opacity="1" /><path clip-path="url(#clip790)" d="M1462.57 1532.4 L1468.42 1532.4 L1468.42 1568.04 L1462.57 1568.04 L1462.57 1532.4 M1462.57 1518.52 L1468.42 1518.52 L1468.42 1525.93 L1462.57 1525.93 L1462.57 1518.52 Z" fill="#000000" fill-rule="nonzero" fill-opacity="1" /><path clip-path="url(#clip790)" d="M1494.36 1518.52 L1494.36 1576.64 L1480.87 1576.64 L1480.87 1572.09 L1488.48 1572.09 L1488.48 1523.07 L1480.87 1523.07 L1480.87 1518.52 L1494.36 1518.52 Z" fill="#000000" fill-rule="nonzero" fill-opacity="1" /><polyline clip-path="url(#clip790)" style="stroke:#000000; stroke-linecap:round; stroke-linejoin:round; stroke-width:4; stroke-opacity:1; fill:none" points="220.005,1423.18 220.005,47.2441 "/>
<polyline clip-path="url(#clip790)" style="stroke:#000000; stroke-linecap:round; stroke-linejoin:round; stroke-width:4; stroke-opacity:1; fill:none" points="220.005,1310.62 238.903,1310.62 "/>
<polyline clip-path="url(#clip790)" style="stroke:#000000; stroke-linecap:round; stroke-linejoin:round; stroke-width:4; stroke-opacity:1; fill:none" points="220.005,1117.66 238.903,1117.66 "/>
<polyline clip-path="url(#clip790)" style="stroke:#000000; stroke-linecap:round; stroke-linejoin:round; stroke-width:4; stroke-opacity:1; fill:none" points="220.005,924.698 238.903,924.698 "/>
<polyline clip-path="url(#clip790)" style="stroke:#000000; stroke-linecap:round; stroke-linejoin:round; stroke-width:4; stroke-opacity:1; fill:none" points="220.005,731.738 238.903,731.738 "/>
<polyline clip-path="url(#clip790)" style="stroke:#000000; stroke-linecap:round; stroke-linejoin:round; stroke-width:4; stroke-opacity:1; fill:none" points="220.005,538.778 238.903,538.778 "/>
<polyline clip-path="url(#clip790)" style="stroke:#000000; stroke-linecap:round; stroke-linejoin:round; stroke-width:4; stroke-opacity:1; fill:none" points="220.005,345.818 238.903,345.818 "/>
<polyline clip-path="url(#clip790)" style="stroke:#000000; stroke-linecap:round; stroke-linejoin:round; stroke-width:4; stroke-opacity:1; fill:none" points="220.005,152.857 238.903,152.857 "/>
<path clip-path="url(#clip790)" d="M126.667 1311.49 Q123.334 1311.49 121.413 1313.27 Q119.515 1315.05 119.515 1318.18 Q119.515 1321.3 121.413 1323.08 Q123.334 1324.87 126.667 1324.87 Q130.001 1324.87 131.922 1323.08 Q133.843 1321.28 133.843 1318.18 Q133.843 1315.05 131.922 1313.27 Q130.024 1311.49 126.667 1311.49 M121.992 1309.5 Q118.982 1308.76 117.293 1306.69 Q115.626 1304.63 115.626 1301.67 Q115.626 1297.53 118.566 1295.12 Q121.529 1292.71 126.667 1292.71 Q131.83 1292.71 134.769 1295.12 Q137.709 1297.53 137.709 1301.67 Q137.709 1304.63 136.019 1306.69 Q134.353 1308.76 131.367 1309.5 Q134.746 1310.28 136.621 1312.57 Q138.519 1314.87 138.519 1318.18 Q138.519 1323.2 135.441 1325.88 Q132.385 1328.57 126.667 1328.57 Q120.95 1328.57 117.871 1325.88 Q114.816 1323.2 114.816 1318.18 Q114.816 1314.87 116.714 1312.57 Q118.612 1310.28 121.992 1309.5 M120.279 1302.11 Q120.279 1304.8 121.945 1306.3 Q123.635 1307.81 126.667 1307.81 Q129.677 1307.81 131.367 1306.3 Q133.08 1304.8 133.08 1302.11 Q133.08 1299.43 131.367 1297.92 Q129.677 1296.42 126.667 1296.42 Q123.635 1296.42 121.945 1297.92 Q120.279 1299.43 120.279 1302.11 Z" fill="#000000" fill-rule="nonzero" fill-opacity="1" /><path clip-path="url(#clip790)" d="M146.829 1322.02 L151.714 1322.02 L151.714 1327.9 L146.829 1327.9 L146.829 1322.02 Z" fill="#000000" fill-rule="nonzero" fill-opacity="1" /><path clip-path="url(#clip790)" d="M172.477 1308.76 Q169.329 1308.76 167.477 1310.91 Q165.649 1313.06 165.649 1316.81 Q165.649 1320.54 167.477 1322.71 Q169.329 1324.87 172.477 1324.87 Q175.626 1324.87 177.454 1322.71 Q179.306 1320.54 179.306 1316.81 Q179.306 1313.06 177.454 1310.91 Q175.626 1308.76 172.477 1308.76 M181.76 1294.1 L181.76 1298.36 Q180.001 1297.53 178.195 1297.09 Q176.413 1296.65 174.653 1296.65 Q170.024 1296.65 167.57 1299.77 Q165.14 1302.9 164.792 1309.22 Q166.158 1307.2 168.218 1306.14 Q170.278 1305.05 172.755 1305.05 Q177.964 1305.05 180.973 1308.22 Q184.005 1311.37 184.005 1316.81 Q184.005 1322.13 180.857 1325.35 Q177.709 1328.57 172.477 1328.57 Q166.482 1328.57 163.311 1323.99 Q160.14 1319.38 160.14 1310.65 Q160.14 1302.46 164.028 1297.6 Q167.917 1292.71 174.468 1292.71 Q176.227 1292.71 178.01 1293.06 Q179.815 1293.41 181.76 1294.1 Z" fill="#000000" fill-rule="nonzero" fill-opacity="1" /><path clip-path="url(#clip790)" d="M126.922 1118.53 Q123.589 1118.53 121.668 1120.31 Q119.769 1122.09 119.769 1125.22 Q119.769 1128.34 121.668 1130.12 Q123.589 1131.91 126.922 1131.91 Q130.255 1131.91 132.177 1130.12 Q134.098 1128.32 134.098 1125.22 Q134.098 1122.09 132.177 1120.31 Q130.279 1118.53 126.922 1118.53 M122.246 1116.54 Q119.237 1115.79 117.547 1113.73 Q115.881 1111.67 115.881 1108.71 Q115.881 1104.57 118.82 1102.16 Q121.783 1099.75 126.922 1099.75 Q132.084 1099.75 135.024 1102.16 Q137.964 1104.57 137.964 1108.71 Q137.964 1111.67 136.274 1113.73 Q134.607 1115.79 131.621 1116.54 Q135.001 1117.32 136.876 1119.61 Q138.774 1121.91 138.774 1125.22 Q138.774 1130.24 135.695 1132.92 Q132.64 1135.61 126.922 1135.61 Q121.205 1135.61 118.126 1132.92 Q115.07 1130.24 115.07 1125.22 Q115.07 1121.91 116.968 1119.61 Q118.867 1117.32 122.246 1116.54 M120.533 1109.15 Q120.533 1111.84 122.2 1113.34 Q123.89 1114.85 126.922 1114.85 Q129.931 1114.85 131.621 1113.34 Q133.334 1111.84 133.334 1109.15 Q133.334 1106.47 131.621 1104.96 Q129.931 1103.46 126.922 1103.46 Q123.89 1103.46 122.2 1104.96 Q120.533 1106.47 120.533 1109.15 Z" fill="#000000" fill-rule="nonzero" fill-opacity="1" /><path clip-path="url(#clip790)" d="M147.084 1129.06 L151.968 1129.06 L151.968 1134.94 L147.084 1134.94 L147.084 1129.06 Z" fill="#000000" fill-rule="nonzero" fill-opacity="1" /><path clip-path="url(#clip790)" d="M172.153 1118.53 Q168.82 1118.53 166.899 1120.31 Q165.001 1122.09 165.001 1125.22 Q165.001 1128.34 166.899 1130.12 Q168.82 1131.91 172.153 1131.91 Q175.487 1131.91 177.408 1130.12 Q179.329 1128.32 179.329 1125.22 Q179.329 1122.09 177.408 1120.31 Q175.51 1118.53 172.153 1118.53 M167.477 1116.54 Q164.468 1115.79 162.778 1113.73 Q161.112 1111.67 161.112 1108.71 Q161.112 1104.57 164.052 1102.16 Q167.015 1099.75 172.153 1099.75 Q177.315 1099.75 180.255 1102.16 Q183.195 1104.57 183.195 1108.71 Q183.195 1111.67 181.505 1113.73 Q179.839 1115.79 176.852 1116.54 Q180.232 1117.32 182.107 1119.61 Q184.005 1121.91 184.005 1125.22 Q184.005 1130.24 180.926 1132.92 Q177.871 1135.61 172.153 1135.61 Q166.436 1135.61 163.357 1132.92 Q160.302 1130.24 160.302 1125.22 Q160.302 1121.91 162.2 1119.61 Q164.098 1117.32 167.477 1116.54 M165.765 1109.15 Q165.765 1111.84 167.431 1113.34 Q169.121 1114.85 172.153 1114.85 Q175.163 1114.85 176.852 1113.34 Q178.565 1111.84 178.565 1109.15 Q178.565 1106.47 176.852 1104.96 Q175.163 1103.46 172.153 1103.46 Q169.121 1103.46 167.431 1104.96 Q165.765 1106.47 165.765 1109.15 Z" fill="#000000" fill-rule="nonzero" fill-opacity="1" /><path clip-path="url(#clip790)" d="M116.968 941.261 L116.968 937.001 Q118.728 937.835 120.533 938.274 Q122.339 938.714 124.075 938.714 Q128.705 938.714 131.135 935.612 Q133.589 932.487 133.936 926.145 Q132.593 928.136 130.533 929.2 Q128.473 930.265 125.973 930.265 Q120.788 930.265 117.756 927.14 Q114.746 923.992 114.746 918.552 Q114.746 913.228 117.894 910.011 Q121.043 906.793 126.274 906.793 Q132.269 906.793 135.417 911.4 Q138.589 915.983 138.589 924.733 Q138.589 932.904 134.7 937.788 Q130.834 942.649 124.283 942.649 Q122.524 942.649 120.718 942.302 Q118.913 941.955 116.968 941.261 M126.274 926.608 Q129.422 926.608 131.251 924.455 Q133.103 922.302 133.103 918.552 Q133.103 914.825 131.251 912.673 Q129.422 910.497 126.274 910.497 Q123.126 910.497 121.274 912.673 Q119.445 914.825 119.445 918.552 Q119.445 922.302 121.274 924.455 Q123.126 926.608 126.274 926.608 Z" fill="#000000" fill-rule="nonzero" fill-opacity="1" /><path clip-path="url(#clip790)" d="M146.991 936.099 L151.876 936.099 L151.876 941.978 L146.991 941.978 L146.991 936.099 Z" fill="#000000" fill-rule="nonzero" fill-opacity="1" /><path clip-path="url(#clip790)" d="M172.061 910.497 Q168.45 910.497 166.621 914.062 Q164.815 917.603 164.815 924.733 Q164.815 931.839 166.621 935.404 Q168.45 938.946 172.061 938.946 Q175.695 938.946 177.501 935.404 Q179.329 931.839 179.329 924.733 Q179.329 917.603 177.501 914.062 Q175.695 910.497 172.061 910.497 M172.061 906.793 Q177.871 906.793 180.926 911.4 Q184.005 915.983 184.005 924.733 Q184.005 933.46 180.926 938.066 Q177.871 942.649 172.061 942.649 Q166.251 942.649 163.172 938.066 Q160.116 933.46 160.116 924.733 Q160.116 915.983 163.172 911.4 Q166.251 906.793 172.061 906.793 Z" fill="#000000" fill-rule="nonzero" fill-opacity="1" /><path clip-path="url(#clip790)" d="M118.566 748.3 L118.566 744.041 Q120.325 744.874 122.13 745.314 Q123.936 745.754 125.672 745.754 Q130.302 745.754 132.732 742.652 Q135.186 739.527 135.533 733.185 Q134.191 735.175 132.13 736.24 Q130.07 737.305 127.57 737.305 Q122.385 737.305 119.353 734.18 Q116.343 731.032 116.343 725.592 Q116.343 720.268 119.492 717.05 Q122.64 713.833 127.871 713.833 Q133.867 713.833 137.015 718.439 Q140.186 723.023 140.186 731.773 Q140.186 739.944 136.297 744.828 Q132.431 749.689 125.88 749.689 Q124.121 749.689 122.316 749.342 Q120.51 748.995 118.566 748.3 M127.871 733.648 Q131.019 733.648 132.848 731.495 Q134.7 729.342 134.7 725.592 Q134.7 721.865 132.848 719.713 Q131.019 717.537 127.871 717.537 Q124.723 717.537 122.871 719.713 Q121.043 721.865 121.043 725.592 Q121.043 729.342 122.871 731.495 Q124.723 733.648 127.871 733.648 Z" fill="#000000" fill-rule="nonzero" fill-opacity="1" /><path clip-path="url(#clip790)" d="M148.589 743.138 L153.473 743.138 L153.473 749.018 L148.589 749.018 L148.589 743.138 Z" fill="#000000" fill-rule="nonzero" fill-opacity="1" /><path clip-path="url(#clip790)" d="M167.686 745.083 L184.005 745.083 L184.005 749.018 L162.061 749.018 L162.061 745.083 Q164.723 742.328 169.306 737.699 Q173.913 733.046 175.093 731.703 Q177.339 729.18 178.218 727.444 Q179.121 725.685 179.121 723.995 Q179.121 721.24 177.176 719.504 Q175.255 717.768 172.153 717.768 Q169.954 717.768 167.501 718.532 Q165.07 719.296 162.292 720.847 L162.292 716.125 Q165.116 714.99 167.57 714.412 Q170.024 713.833 172.061 713.833 Q177.431 713.833 180.626 716.518 Q183.82 719.203 183.82 723.694 Q183.82 725.824 183.01 727.745 Q182.223 729.643 180.116 732.236 Q179.538 732.907 176.436 736.124 Q173.334 739.319 167.686 745.083 Z" fill="#000000" fill-rule="nonzero" fill-opacity="1" /><path clip-path="url(#clip790)" d="M116.482 555.34 L116.482 551.081 Q118.242 551.914 120.047 552.354 Q121.853 552.794 123.589 552.794 Q128.218 552.794 130.649 549.692 Q133.103 546.567 133.45 540.224 Q132.107 542.215 130.047 543.28 Q127.987 544.345 125.487 544.345 Q120.302 544.345 117.269 541.22 Q114.26 538.072 114.26 532.632 Q114.26 527.308 117.408 524.09 Q120.556 520.873 125.788 520.873 Q131.783 520.873 134.931 525.479 Q138.103 530.063 138.103 538.812 Q138.103 546.984 134.214 551.868 Q130.348 556.729 123.797 556.729 Q122.038 556.729 120.232 556.382 Q118.427 556.035 116.482 555.34 M125.788 540.687 Q128.936 540.687 130.765 538.535 Q132.617 536.382 132.617 532.632 Q132.617 528.905 130.765 526.752 Q128.936 524.576 125.788 524.576 Q122.64 524.576 120.788 526.752 Q118.959 528.905 118.959 532.632 Q118.959 536.382 120.788 538.535 Q122.64 540.687 125.788 540.687 Z" fill="#000000" fill-rule="nonzero" fill-opacity="1" /><path clip-path="url(#clip790)" d="M146.505 550.178 L151.39 550.178 L151.39 556.058 L146.505 556.058 L146.505 550.178 Z" fill="#000000" fill-rule="nonzero" fill-opacity="1" /><path clip-path="url(#clip790)" d="M174.422 525.572 L162.616 544.021 L174.422 544.021 L174.422 525.572 M173.195 521.498 L179.075 521.498 L179.075 544.021 L184.005 544.021 L184.005 547.91 L179.075 547.91 L179.075 556.058 L174.422 556.058 L174.422 547.91 L158.82 547.91 L158.82 543.396 L173.195 521.498 Z" fill="#000000" fill-rule="nonzero" fill-opacity="1" /><path clip-path="url(#clip790)" d="M116.806 362.38 L116.806 358.121 Q118.566 358.954 120.371 359.394 Q122.177 359.834 123.913 359.834 Q128.542 359.834 130.973 356.732 Q133.427 353.607 133.774 347.264 Q132.431 349.255 130.371 350.32 Q128.311 351.385 125.811 351.385 Q120.626 351.385 117.593 348.26 Q114.584 345.112 114.584 339.672 Q114.584 334.348 117.732 331.13 Q120.88 327.913 126.112 327.913 Q132.107 327.913 135.255 332.519 Q138.427 337.102 138.427 345.852 Q138.427 354.024 134.538 358.908 Q130.672 363.769 124.121 363.769 Q122.362 363.769 120.556 363.422 Q118.751 363.074 116.806 362.38 M126.112 347.727 Q129.26 347.727 131.089 345.574 Q132.941 343.422 132.941 339.672 Q132.941 335.945 131.089 333.792 Q129.26 331.616 126.112 331.616 Q122.964 331.616 121.112 333.792 Q119.283 335.945 119.283 339.672 Q119.283 343.422 121.112 345.574 Q122.964 347.727 126.112 347.727 Z" fill="#000000" fill-rule="nonzero" fill-opacity="1" /><path clip-path="url(#clip790)" d="M146.829 357.218 L151.714 357.218 L151.714 363.098 L146.829 363.098 L146.829 357.218 Z" fill="#000000" fill-rule="nonzero" fill-opacity="1" /><path clip-path="url(#clip790)" d="M172.477 343.954 Q169.329 343.954 167.477 346.107 Q165.649 348.26 165.649 352.01 Q165.649 355.736 167.477 357.912 Q169.329 360.065 172.477 360.065 Q175.626 360.065 177.454 357.912 Q179.306 355.736 179.306 352.01 Q179.306 348.26 177.454 346.107 Q175.626 343.954 172.477 343.954 M181.76 329.301 L181.76 333.561 Q180.001 332.727 178.195 332.288 Q176.413 331.848 174.653 331.848 Q170.024 331.848 167.57 334.973 Q165.14 338.098 164.792 344.417 Q166.158 342.403 168.218 341.338 Q170.278 340.25 172.755 340.25 Q177.964 340.25 180.973 343.422 Q184.005 346.57 184.005 352.01 Q184.005 357.334 180.857 360.551 Q177.709 363.769 172.477 363.769 Q166.482 363.769 163.311 359.186 Q160.14 354.579 160.14 345.852 Q160.14 337.658 164.028 332.797 Q167.917 327.913 174.468 327.913 Q176.227 327.913 178.01 328.26 Q179.815 328.607 181.76 329.301 Z" fill="#000000" fill-rule="nonzero" fill-opacity="1" /><path clip-path="url(#clip790)" d="M117.061 169.42 L117.061 165.161 Q118.82 165.994 120.626 166.434 Q122.431 166.873 124.168 166.873 Q128.797 166.873 131.228 163.772 Q133.681 160.647 134.029 154.304 Q132.686 156.295 130.626 157.36 Q128.566 158.424 126.066 158.424 Q120.88 158.424 117.848 155.299 Q114.839 152.151 114.839 146.712 Q114.839 141.388 117.987 138.17 Q121.135 134.952 126.367 134.952 Q132.362 134.952 135.51 139.559 Q138.681 144.142 138.681 152.892 Q138.681 161.063 134.792 165.948 Q130.927 170.809 124.376 170.809 Q122.617 170.809 120.811 170.461 Q119.006 170.114 117.061 169.42 M126.367 154.767 Q129.515 154.767 131.343 152.614 Q133.195 150.462 133.195 146.712 Q133.195 142.985 131.343 140.832 Q129.515 138.656 126.367 138.656 Q123.218 138.656 121.367 140.832 Q119.538 142.985 119.538 146.712 Q119.538 150.462 121.367 152.614 Q123.218 154.767 126.367 154.767 Z" fill="#000000" fill-rule="nonzero" fill-opacity="1" /><path clip-path="url(#clip790)" d="M147.084 164.258 L151.968 164.258 L151.968 170.137 L147.084 170.137 L147.084 164.258 Z" fill="#000000" fill-rule="nonzero" fill-opacity="1" /><path clip-path="url(#clip790)" d="M172.153 153.725 Q168.82 153.725 166.899 155.508 Q165.001 157.29 165.001 160.415 Q165.001 163.54 166.899 165.323 Q168.82 167.105 172.153 167.105 Q175.487 167.105 177.408 165.323 Q179.329 163.517 179.329 160.415 Q179.329 157.29 177.408 155.508 Q175.51 153.725 172.153 153.725 M167.477 151.735 Q164.468 150.994 162.778 148.934 Q161.112 146.874 161.112 143.911 Q161.112 139.767 164.052 137.36 Q167.015 134.952 172.153 134.952 Q177.315 134.952 180.255 137.36 Q183.195 139.767 183.195 143.911 Q183.195 146.874 181.505 148.934 Q179.839 150.994 176.852 151.735 Q180.232 152.522 182.107 154.813 Q184.005 157.105 184.005 160.415 Q184.005 165.438 180.926 168.123 Q177.871 170.809 172.153 170.809 Q166.436 170.809 163.357 168.123 Q160.302 165.438 160.302 160.415 Q160.302 157.105 162.2 154.813 Q164.098 152.522 167.477 151.735 M165.765 144.35 Q165.765 147.036 167.431 148.54 Q169.121 150.045 172.153 150.045 Q175.163 150.045 176.852 148.54 Q178.565 147.036 178.565 144.35 Q178.565 141.665 176.852 140.161 Q175.163 138.656 172.153 138.656 Q169.121 138.656 167.431 140.161 Q165.765 141.665 165.765 144.35 Z" fill="#000000" fill-rule="nonzero" fill-opacity="1" /><path clip-path="url(#clip790)" d="M21.7677 981.565 L58.7206 981.565 L58.7206 973.799 Q58.7206 963.964 54.2646 959.412 Q49.8086 954.829 40.1964 954.829 Q30.6479 954.829 26.2237 959.412 Q21.7677 963.964 21.7677 973.799 L21.7677 981.565 M16.4842 987.994 L16.4842 974.785 Q16.4842 960.972 22.2451 954.511 Q27.9743 948.049 40.1964 948.049 Q52.4822 948.049 58.2432 954.542 Q64.0042 961.035 64.0042 974.785 L64.0042 987.994 L16.4842 987.994 Z" fill="#000000" fill-rule="nonzero" fill-opacity="1" /><path clip-path="url(#clip790)" d="M28.3562 938.055 L28.3562 932.199 L64.0042 932.199 L64.0042 938.055 L28.3562 938.055 M14.479 938.055 L14.479 932.199 L21.895 932.199 L21.895 938.055 L14.479 938.055 Z" fill="#000000" fill-rule="nonzero" fill-opacity="1" /><path clip-path="url(#clip790)" d="M29.4065 897.219 L34.9447 897.219 Q33.6716 899.702 33.035 902.375 Q32.3984 905.049 32.3984 907.914 Q32.3984 912.274 33.7352 914.47 Q35.072 916.635 37.7456 916.635 Q39.7826 916.635 40.9603 915.075 Q42.1061 913.515 43.1565 908.805 L43.6021 906.8 Q44.9389 900.561 47.3897 897.951 Q49.8086 895.309 54.1691 895.309 Q59.1344 895.309 62.0308 899.256 Q64.9272 903.171 64.9272 910.046 Q64.9272 912.911 64.3543 916.03 Q63.8132 919.117 62.6992 922.555 L56.6518 922.555 Q58.3387 919.308 59.198 916.157 Q60.0256 913.006 60.0256 909.919 Q60.0256 905.781 58.6251 903.553 Q57.1929 901.325 54.6147 901.325 Q52.2276 901.325 50.9545 902.948 Q49.6813 904.54 48.5037 909.982 L48.0262 912.019 Q46.8804 917.462 44.5251 919.881 Q42.138 922.3 38.0002 922.3 Q32.9713 922.3 30.2341 918.735 Q27.4968 915.17 27.4968 908.614 Q27.4968 905.367 27.9743 902.503 Q28.4517 899.638 29.4065 897.219 Z" fill="#000000" fill-rule="nonzero" fill-opacity="1" /><path clip-path="url(#clip790)" d="M18.2347 880.191 L28.3562 880.191 L28.3562 868.128 L32.9077 868.128 L32.9077 880.191 L52.2594 880.191 Q56.6199 880.191 57.8613 879.013 Q59.1026 877.804 59.1026 874.144 L59.1026 868.128 L64.0042 868.128 L64.0042 874.144 Q64.0042 880.923 61.4897 883.501 Q58.9434 886.079 52.2594 886.079 L32.9077 886.079 L32.9077 890.376 L28.3562 890.376 L28.3562 886.079 L18.2347 886.079 L18.2347 880.191 Z" fill="#000000" fill-rule="nonzero" fill-opacity="1" /><path clip-path="url(#clip790)" d="M46.0847 844.225 Q46.0847 851.322 47.7079 854.06 Q49.3312 856.797 53.2461 856.797 Q56.3653 856.797 58.2114 854.76 Q60.0256 852.691 60.0256 849.158 Q60.0256 844.288 56.5881 841.36 Q53.1188 838.4 47.3897 838.4 L46.0847 838.4 L46.0847 844.225 M43.6657 832.544 L64.0042 832.544 L64.0042 838.4 L58.5933 838.4 Q61.8398 840.405 63.3994 843.397 Q64.9272 846.389 64.9272 850.718 Q64.9272 856.192 61.8716 859.439 Q58.7843 862.653 53.6281 862.653 Q47.6125 862.653 44.5569 858.643 Q41.5014 854.601 41.5014 846.612 L41.5014 838.4 L40.9285 838.4 Q36.8862 838.4 34.6901 841.074 Q32.4621 843.715 32.4621 848.522 Q32.4621 851.577 33.1941 854.473 Q33.9262 857.37 35.3903 860.043 L29.9795 860.043 Q28.7381 856.829 28.1334 853.805 Q27.4968 850.781 27.4968 847.917 Q27.4968 840.182 31.5072 836.363 Q35.5176 832.544 43.6657 832.544 Z" fill="#000000" fill-rule="nonzero" fill-opacity="1" /><path clip-path="url(#clip790)" d="M42.4881 790.848 L64.0042 790.848 L64.0042 796.705 L42.679 796.705 Q37.6183 796.705 35.1038 798.678 Q32.5894 800.651 32.5894 804.598 Q32.5894 809.341 35.6131 812.078 Q38.6368 814.815 43.8567 814.815 L64.0042 814.815 L64.0042 820.703 L28.3562 820.703 L28.3562 814.815 L33.8944 814.815 Q30.6797 812.714 29.0883 809.882 Q27.4968 807.017 27.4968 803.293 Q27.4968 797.15 31.3163 793.999 Q35.1038 790.848 42.4881 790.848 Z" fill="#000000" fill-rule="nonzero" fill-opacity="1" /><path clip-path="url(#clip790)" d="M29.7248 753.513 L35.1993 753.513 Q33.8307 755.996 33.1623 758.51 Q32.4621 760.993 32.4621 763.539 Q32.4621 769.237 36.0905 772.388 Q39.6872 775.539 46.212 775.539 Q52.7369 775.539 56.3653 772.388 Q59.9619 769.237 59.9619 763.539 Q59.9619 760.993 59.2935 758.51 Q58.5933 755.996 57.2247 753.513 L62.6355 753.513 Q63.7814 755.964 64.3543 758.606 Q64.9272 761.216 64.9272 764.176 Q64.9272 772.229 59.8664 776.971 Q54.8057 781.713 46.212 781.713 Q37.491 781.713 32.4939 776.939 Q27.4968 772.133 27.4968 763.794 Q27.4968 761.089 28.0697 758.51 Q28.6108 755.932 29.7248 753.513 Z" fill="#000000" fill-rule="nonzero" fill-opacity="1" /><path clip-path="url(#clip790)" d="M44.7161 712.837 L47.5806 712.837 L47.5806 739.763 Q53.6281 739.382 56.8109 736.135 Q59.9619 732.857 59.9619 727.032 Q59.9619 723.658 59.1344 720.507 Q58.3069 717.324 56.6518 714.205 L62.1899 714.205 Q63.5267 717.356 64.227 720.666 Q64.9272 723.976 64.9272 727.382 Q64.9272 735.912 59.9619 740.909 Q54.9967 745.875 46.5303 745.875 Q37.7774 745.875 32.6531 741.164 Q27.4968 736.421 27.4968 728.401 Q27.4968 721.207 32.1438 717.038 Q36.7589 712.837 44.7161 712.837 M42.9973 718.693 Q38.1912 718.757 35.3266 721.398 Q32.4621 724.008 32.4621 728.337 Q32.4621 733.239 35.2312 736.199 Q38.0002 739.127 43.0292 739.572 L42.9973 718.693 Z" fill="#000000" fill-rule="nonzero" fill-opacity="1" /><path clip-path="url(#clip790)" d="M29.4065 680.499 L34.9447 680.499 Q33.6716 682.981 33.035 685.655 Q32.3984 688.329 32.3984 691.193 Q32.3984 695.554 33.7352 697.75 Q35.072 699.914 37.7456 699.914 Q39.7826 699.914 40.9603 698.355 Q42.1061 696.795 43.1565 692.084 L43.6021 690.079 Q44.9389 683.841 47.3897 681.231 Q49.8086 678.589 54.1691 678.589 Q59.1344 678.589 62.0308 682.536 Q64.9272 686.451 64.9272 693.326 Q64.9272 696.19 64.3543 699.309 Q63.8132 702.397 62.6992 705.834 L56.6518 705.834 Q58.3387 702.588 59.198 699.437 Q60.0256 696.286 60.0256 693.198 Q60.0256 689.061 58.6251 686.833 Q57.1929 684.605 54.6147 684.605 Q52.2276 684.605 50.9545 686.228 Q49.6813 687.819 48.5037 693.262 L48.0262 695.299 Q46.8804 700.742 44.5251 703.161 Q42.138 705.58 38.0002 705.58 Q32.9713 705.58 30.2341 702.015 Q27.4968 698.45 27.4968 691.893 Q27.4968 688.647 27.9743 685.782 Q28.4517 682.918 29.4065 680.499 Z" fill="#000000" fill-rule="nonzero" fill-opacity="1" /><path clip-path="url(#clip790)" d="M14.479 649.084 L14.479 635.589 L19.0304 635.589 L19.0304 643.228 L68.0464 643.228 L68.0464 635.589 L72.5979 635.589 L72.5979 649.084 L14.479 649.084 Z" fill="#000000" fill-rule="nonzero" fill-opacity="1" /><path clip-path="url(#clip790)" d="M35.1993 595.357 Q31.2526 593.161 29.3747 590.106 Q27.4968 587.05 27.4968 582.912 Q27.4968 577.342 31.4117 574.319 Q35.2948 571.295 42.4881 571.295 L64.0042 571.295 L64.0042 577.183 L42.679 577.183 Q37.5546 577.183 35.072 578.998 Q32.5894 580.812 32.5894 584.536 Q32.5894 589.087 35.6131 591.729 Q38.6368 594.371 43.8567 594.371 L64.0042 594.371 L64.0042 600.259 L42.679 600.259 Q37.5228 600.259 35.072 602.073 Q32.5894 603.887 32.5894 607.675 Q32.5894 612.163 35.6449 614.805 Q38.6686 617.446 43.8567 617.446 L64.0042 617.446 L64.0042 623.335 L28.3562 623.335 L28.3562 617.446 L33.8944 617.446 Q30.616 615.441 29.0564 612.64 Q27.4968 609.839 27.4968 605.988 Q27.4968 602.105 29.4702 599.4 Q31.4436 596.662 35.1993 595.357 Z" fill="#000000" fill-rule="nonzero" fill-opacity="1" /><path clip-path="url(#clip790)" d="M35.1993 531.859 Q31.2526 529.663 29.3747 526.608 Q27.4968 523.552 27.4968 519.415 Q27.4968 513.845 31.4117 510.821 Q35.2948 507.797 42.4881 507.797 L64.0042 507.797 L64.0042 513.685 L42.679 513.685 Q37.5546 513.685 35.072 515.5 Q32.5894 517.314 32.5894 521.038 Q32.5894 525.589 35.6131 528.231 Q38.6368 530.873 43.8567 530.873 L64.0042 530.873 L64.0042 536.761 L42.679 536.761 Q37.5228 536.761 35.072 538.575 Q32.5894 540.39 32.5894 544.177 Q32.5894 548.665 35.6449 551.307 Q38.6686 553.948 43.8567 553.948 L64.0042 553.948 L64.0042 559.837 L28.3562 559.837 L28.3562 553.948 L33.8944 553.948 Q30.616 551.943 29.0564 549.142 Q27.4968 546.341 27.4968 542.49 Q27.4968 538.607 29.4702 535.902 Q31.4436 533.164 35.1993 531.859 Z" fill="#000000" fill-rule="nonzero" fill-opacity="1" /><path clip-path="url(#clip790)" d="M14.479 482.43 L72.5979 482.43 L72.5979 495.925 L68.0464 495.925 L68.0464 488.318 L19.0304 488.318 L19.0304 495.925 L14.479 495.925 L14.479 482.43 Z" fill="#000000" fill-rule="nonzero" fill-opacity="1" /><circle clip-path="url(#clip792)" cx="280.366" cy="1384.24" r="14.4" fill="#009af9" fill-rule="evenodd" fill-opacity="1" stroke="#000000" stroke-opacity="1" stroke-width="3.2"/>
<circle clip-path="url(#clip792)" cx="951.042" cy="840.453" r="14.4" fill="#009af9" fill-rule="evenodd" fill-opacity="1" stroke="#000000" stroke-opacity="1" stroke-width="3.2"/>
<circle clip-path="url(#clip792)" cx="1621.72" cy="1113.75" r="14.4" fill="#009af9" fill-rule="evenodd" fill-opacity="1" stroke="#000000" stroke-opacity="1" stroke-width="3.2"/>
<circle clip-path="url(#clip792)" cx="2292.4" cy="86.1857" r="14.4" fill="#009af9" fill-rule="evenodd" fill-opacity="1" stroke="#000000" stroke-opacity="1" stroke-width="3.2"/>
<path clip-path="url(#clip790)" d="M291.097 196.789 L556.802 196.789 L556.802 93.1086 L291.097 93.1086  Z" fill="#ffffff" fill-rule="evenodd" fill-opacity="1"/>
<polyline clip-path="url(#clip790)" style="stroke:#000000; stroke-linecap:round; stroke-linejoin:round; stroke-width:4; stroke-opacity:1; fill:none" points="291.097,196.789 556.802,196.789 556.802,93.1086 291.097,93.1086 291.097,196.789 "/>
<circle clip-path="url(#clip790)" cx="385.886" cy="144.949" r="20.48" fill="#009af9" fill-rule="evenodd" fill-opacity="1" stroke="#000000" stroke-opacity="1" stroke-width="4.55111"/>
<path clip-path="url(#clip790)" d="M494.517 164.636 Q492.712 169.266 490.999 170.678 Q489.286 172.09 486.415 172.09 L483.013 172.09 L483.013 168.525 L485.513 168.525 Q487.272 168.525 488.244 167.692 Q489.216 166.858 490.397 163.756 L491.161 161.812 L480.675 136.303 L485.189 136.303 L493.29 156.581 L501.392 136.303 L505.906 136.303 L494.517 164.636 Z" fill="#000000" fill-rule="nonzero" fill-opacity="1" /><path clip-path="url(#clip790)" d="M513.198 158.293 L520.837 158.293 L520.837 131.928 L512.526 133.595 L512.526 129.335 L520.79 127.669 L525.466 127.669 L525.466 158.293 L533.105 158.293 L533.105 162.229 L513.198 162.229 L513.198 158.293 Z" fill="#000000" fill-rule="nonzero" fill-opacity="1" /></svg>
