<?xml version="1.0" encoding="utf-8"?>
<svg xmlns="http://www.w3.org/2000/svg" xmlns:xlink="http://www.w3.org/1999/xlink" width="600" height="400" viewBox="0 0 2400 1600">
<defs>
  <clipPath id="clip750">
    <rect x="0" y="0" width="2400" height="1600"/>
  </clipPath>
</defs>
<path clip-path="url(#clip750)" d="M0 1600 L2400 1600 L2400 0 L0 0  Z" fill="#ffffff" fill-rule="evenodd" fill-opacity="1"/>
<defs>
  <clipPath id="clip751">
    <rect x="480" y="0" width="1681" height="1600"/>
  </clipPath>
</defs>
<path clip-path="url(#clip750)" d="M279.866 1423.18 L2352.76 1423.18 L2352.76 47.2441 L279.866 47.2441  Z" fill="#ffffff" fill-rule="evenodd" fill-opacity="1"/>
<defs>
  <clipPath id="clip752">
    <rect x="279" y="47" width="2074" height="1377"/>
  </clipPath>
</defs>
<polyline clip-path="url(#clip752)" style="stroke:#000000; stroke-linecap:round; stroke-linejoin:round; stroke-width:2; stroke-opacity:0.1; fill:none" points="534.088,1423.18 534.088,47.2441 "/>
<polyline clip-path="url(#clip752)" style="stroke:#000000; stroke-linecap:round; stroke-linejoin:round; stroke-width:2; stroke-opacity:0.1; fill:none" points="925.2,1423.18 925.2,47.2441 "/>
<polyline clip-path="url(#clip752)" style="stroke:#000000; stroke-linecap:round; stroke-linejoin:round; stroke-width:2; stroke-opacity:0.1; fill:none" points="1316.31,1423.18 1316.31,47.2441 "/>
<polyline clip-path="url(#clip752)" style="stroke:#000000; stroke-linecap:round; stroke-linejoin:round; stroke-width:2; stroke-opacity:0.1; fill:none" points="1707.42,1423.18 1707.42,47.2441 "/>
<polyline clip-path="url(#clip752)" style="stroke:#000000; stroke-linecap:round; stroke-linejoin:round; stroke-width:2; stroke-opacity:0.1; fill:none" points="2098.53,1423.18 2098.53,47.2441 "/>
<polyline clip-path="url(#clip752)" style="stroke:#000000; stroke-linecap:round; stroke-linejoin:round; stroke-width:2; stroke-opacity:0.1; fill:none" points="279.866,1250.94 2352.76,1250.94 "/>
<polyline clip-path="url(#clip752)" style="stroke:#000000; stroke-linecap:round; stroke-linejoin:round; stroke-width:2; stroke-opacity:0.1; fill:none" points="279.866,956.239 2352.76,956.239 "/>
<polyline clip-path="url(#clip752)" style="stroke:#000000; stroke-linecap:round; stroke-linejoin:round; stroke-width:2; stroke-opacity:0.1; fill:none" points="279.866,661.533 2352.76,661.533 "/>
<polyline clip-path="url(#clip752)" style="stroke:#000000; stroke-linecap:round; stroke-linejoin:round; stroke-width:2; stroke-opacity:0.1; fill:none" points="279.866,366.827 2352.76,366.827 "/>
<polyline clip-path="url(#clip752)" style="stroke:#000000; stroke-linecap:round; stroke-linejoin:round; stroke-width:2; stroke-opacity:0.1; fill:none" points="279.866,72.1212 2352.76,72.1212 "/>
<polyline clip-path="url(#clip750)" style="stroke:#000000; stroke-linecap:round; stroke-linejoin:round; stroke-width:4; stroke-opacity:1; fill:none" points="279.866,1423.18 2352.76,1423.18 "/>
<polyline clip-path="url(#clip750)" style="stroke:#000000; stroke-linecap:round; stroke-linejoin:round; stroke-width:4; stroke-opacity:1; fill:none" points="534.088,1423.18 534.088,1404.28 "/>
<polyline clip-path="url(#clip750)" style="stroke:#000000; stroke-linecap:round; stroke-linejoin:round; stroke-width:4; stroke-opacity:1; fill:none" points="925.2,1423.18 925.2,1404.28 "/>
<polyline clip-path="url(#clip750)" style="stroke:#000000; stroke-linecap:round; stroke-linejoin:round; stroke-width:4; stroke-opacity:1; fill:none" points="1316.31,1423.18 1316.31,1404.28 "/>
<polyline clip-path="url(#clip750)" style="stroke:#000000; stroke-linecap:round; stroke-linejoin:round; stroke-width:4; stroke-opacity:1; fill:none" points="1707.42,1423.18 1707.42,1404.28 "/>
<polyline clip-path="url(#clip750)" style="stroke:#000000; stroke-linecap:round; stroke-linejoin:round; stroke-width:4; stroke-opacity:1; fill:none" points="2098.53,1423.18 2098.53,1404.28 "/>
<path clip-path="url(#clip750)" d="M486.079 1481.64 L493.718 1481.64 L493.718 1455.28 L485.408 1456.95 L485.408 1452.69 L493.672 1451.02 L498.348 1451.02 L498.348 1481.64 L505.987 1481.64 L505.987 1485.58 L486.079 1485.58 L486.079 1481.64 Z" fill="#000000" fill-rule="nonzero" fill-opacity="1" /><path clip-path="url(#clip750)" d="M514.25 1451.02 L536.473 1451.02 L536.473 1453.01 L523.926 1485.58 L519.042 1485.58 L530.848 1454.96 L514.25 1454.96 L514.25 1451.02 Z" fill="#000000" fill-rule="nonzero" fill-opacity="1" /><path clip-path="url(#clip750)" d="M545.593 1479.7 L550.477 1479.7 L550.477 1485.58 L545.593 1485.58 L545.593 1479.7 Z" fill="#000000" fill-rule="nonzero" fill-opacity="1" /><path clip-path="url(#clip750)" d="M571.241 1466.44 Q568.093 1466.44 566.241 1468.59 Q564.412 1470.74 564.412 1474.49 Q564.412 1478.22 566.241 1480.39 Q568.093 1482.55 571.241 1482.55 Q574.389 1482.55 576.218 1480.39 Q578.07 1478.22 578.07 1474.49 Q578.07 1470.74 576.218 1468.59 Q574.389 1466.44 571.241 1466.44 M580.523 1451.78 L580.523 1456.04 Q578.764 1455.21 576.958 1454.77 Q575.176 1454.33 573.417 1454.33 Q568.787 1454.33 566.333 1457.45 Q563.903 1460.58 563.556 1466.9 Q564.921 1464.89 566.982 1463.82 Q569.042 1462.73 571.519 1462.73 Q576.727 1462.73 579.736 1465.9 Q582.769 1469.05 582.769 1474.49 Q582.769 1479.82 579.62 1483.03 Q576.472 1486.25 571.241 1486.25 Q565.246 1486.25 562.074 1481.67 Q558.903 1477.06 558.903 1468.33 Q558.903 1460.14 562.792 1455.28 Q566.681 1450.39 573.232 1450.39 Q574.991 1450.39 576.773 1450.74 Q578.579 1451.09 580.523 1451.78 Z" fill="#000000" fill-rule="nonzero" fill-opacity="1" /><path clip-path="url(#clip750)" d="M877.318 1481.64 L884.957 1481.64 L884.957 1455.28 L876.647 1456.95 L876.647 1452.69 L884.91 1451.02 L889.586 1451.02 L889.586 1481.64 L897.225 1481.64 L897.225 1485.58 L877.318 1485.58 L877.318 1481.64 Z" fill="#000000" fill-rule="nonzero" fill-opacity="1" /><path clip-path="url(#clip750)" d="M905.489 1451.02 L927.711 1451.02 L927.711 1453.01 L915.165 1485.58 L910.281 1485.58 L922.086 1454.96 L905.489 1454.96 L905.489 1451.02 Z" fill="#000000" fill-rule="nonzero" fill-opacity="1" /><path clip-path="url(#clip750)" d="M936.831 1479.7 L941.716 1479.7 L941.716 1485.58 L936.831 1485.58 L936.831 1479.7 Z" fill="#000000" fill-rule="nonzero" fill-opacity="1" /><path clip-path="url(#clip750)" d="M961.901 1469.17 Q958.567 1469.17 956.646 1470.95 Q954.748 1472.73 954.748 1475.86 Q954.748 1478.98 956.646 1480.77 Q958.567 1482.55 961.901 1482.55 Q965.234 1482.55 967.155 1480.77 Q969.077 1478.96 969.077 1475.86 Q969.077 1472.73 967.155 1470.95 Q965.257 1469.17 961.901 1469.17 M957.225 1467.18 Q954.216 1466.44 952.526 1464.38 Q950.859 1462.32 950.859 1459.35 Q950.859 1455.21 953.799 1452.8 Q956.762 1450.39 961.901 1450.39 Q967.063 1450.39 970.003 1452.8 Q972.942 1455.21 972.942 1459.35 Q972.942 1462.32 971.253 1464.38 Q969.586 1466.44 966.6 1467.18 Q969.979 1467.96 971.854 1470.26 Q973.753 1472.55 973.753 1475.86 Q973.753 1480.88 970.674 1483.57 Q967.618 1486.25 961.901 1486.25 Q956.183 1486.25 953.105 1483.57 Q950.049 1480.88 950.049 1475.86 Q950.049 1472.55 951.947 1470.26 Q953.845 1467.96 957.225 1467.18 M955.512 1459.79 Q955.512 1462.48 957.179 1463.98 Q958.868 1465.49 961.901 1465.49 Q964.91 1465.49 966.6 1463.98 Q968.313 1462.48 968.313 1459.79 Q968.313 1457.11 966.6 1455.6 Q964.91 1454.1 961.901 1454.1 Q958.868 1454.1 957.179 1455.6 Q955.512 1457.11 955.512 1459.79 Z" fill="#000000" fill-rule="nonzero" fill-opacity="1" /><path clip-path="url(#clip750)" d="M1268.38 1481.64 L1276.02 1481.64 L1276.02 1455.28 L1267.71 1456.95 L1267.71 1452.69 L1275.98 1451.02 L1280.65 1451.02 L1280.65 1481.64 L1288.29 1481.64 L1288.29 1485.58 L1268.38 1485.58 L1268.38 1481.64 Z" fill="#000000" fill-rule="nonzero" fill-opacity="1" /><path clip-path="url(#clip750)" d="M1307.73 1469.17 Q1304.4 1469.17 1302.48 1470.95 Q1300.58 1472.73 1300.58 1475.86 Q1300.58 1478.98 1302.48 1480.77 Q1304.4 1482.55 1307.73 1482.55 Q1311.07 1482.55 1312.99 1480.77 Q1314.91 1478.96 1314.91 1475.86 Q1314.91 1472.73 1312.99 1470.95 Q1311.09 1469.17 1307.73 1469.17 M1303.06 1467.18 Q1300.05 1466.44 1298.36 1464.38 Q1296.69 1462.32 1296.69 1459.35 Q1296.69 1455.21 1299.63 1452.8 Q1302.6 1450.39 1307.73 1450.39 Q1312.9 1450.39 1315.84 1452.8 Q1318.78 1455.21 1318.78 1459.35 Q1318.78 1462.32 1317.09 1464.38 Q1315.42 1466.44 1312.43 1467.18 Q1315.81 1467.96 1317.69 1470.26 Q1319.59 1472.55 1319.59 1475.86 Q1319.59 1480.88 1316.51 1483.57 Q1313.45 1486.25 1307.73 1486.25 Q1302.02 1486.25 1298.94 1483.57 Q1295.88 1480.88 1295.88 1475.86 Q1295.88 1472.55 1297.78 1470.26 Q1299.68 1467.96 1303.06 1467.18 M1301.35 1459.79 Q1301.35 1462.48 1303.01 1463.98 Q1304.7 1465.49 1307.73 1465.49 Q1310.74 1465.49 1312.43 1463.98 Q1314.15 1462.48 1314.15 1459.79 Q1314.15 1457.11 1312.43 1455.6 Q1310.74 1454.1 1307.73 1454.1 Q1304.7 1454.1 1303.01 1455.6 Q1301.35 1457.11 1301.35 1459.79 Z" fill="#000000" fill-rule="nonzero" fill-opacity="1" /><path clip-path="url(#clip750)" d="M1327.9 1479.7 L1332.78 1479.7 L1332.78 1485.58 L1327.9 1485.58 L1327.9 1479.7 Z" fill="#000000" fill-rule="nonzero" fill-opacity="1" /><path clip-path="url(#clip750)" d="M1352.97 1454.1 Q1349.35 1454.1 1347.53 1457.66 Q1345.72 1461.2 1345.72 1468.33 Q1345.72 1475.44 1347.53 1479.01 Q1349.35 1482.55 1352.97 1482.55 Q1356.6 1482.55 1358.41 1479.01 Q1360.23 1475.44 1360.23 1468.33 Q1360.23 1461.2 1358.41 1457.66 Q1356.6 1454.1 1352.97 1454.1 M1352.97 1450.39 Q1358.78 1450.39 1361.83 1455 Q1364.91 1459.58 1364.91 1468.33 Q1364.91 1477.06 1361.83 1481.67 Q1358.78 1486.25 1352.97 1486.25 Q1347.16 1486.25 1344.08 1481.67 Q1341.02 1477.06 1341.02 1468.33 Q1341.02 1459.58 1344.08 1455 Q1347.16 1450.39 1352.97 1450.39 Z" fill="#000000" fill-rule="nonzero" fill-opacity="1" /><path clip-path="url(#clip750)" d="M1660.29 1481.64 L1667.93 1481.64 L1667.93 1455.28 L1659.62 1456.95 L1659.62 1452.69 L1667.89 1451.02 L1672.56 1451.02 L1672.56 1481.64 L1680.2 1481.64 L1680.2 1485.58 L1660.29 1485.58 L1660.29 1481.64 Z" fill="#000000" fill-rule="nonzero" fill-opacity="1" /><path clip-path="url(#clip750)" d="M1699.64 1469.17 Q1696.31 1469.17 1694.39 1470.95 Q1692.49 1472.73 1692.49 1475.86 Q1692.49 1478.98 1694.39 1480.77 Q1696.31 1482.55 1699.64 1482.55 Q1702.98 1482.55 1704.9 1480.77 Q1706.82 1478.96 1706.82 1475.86 Q1706.82 1472.73 1704.9 1470.95 Q1703 1469.17 1699.64 1469.17 M1694.97 1467.18 Q1691.96 1466.44 1690.27 1464.38 Q1688.6 1462.32 1688.6 1459.35 Q1688.6 1455.21 1691.54 1452.8 Q1694.51 1450.39 1699.64 1450.39 Q1704.81 1450.39 1707.75 1452.8 Q1710.69 1455.21 1710.69 1459.35 Q1710.69 1462.32 1709 1464.38 Q1707.33 1466.44 1704.34 1467.18 Q1707.72 1467.96 1709.6 1470.26 Q1711.5 1472.55 1711.5 1475.86 Q1711.5 1480.88 1708.42 1483.57 Q1705.36 1486.25 1699.64 1486.25 Q1693.93 1486.25 1690.85 1483.57 Q1687.79 1480.88 1687.79 1475.86 Q1687.79 1472.55 1689.69 1470.26 Q1691.59 1467.96 1694.97 1467.18 M1693.26 1459.79 Q1693.26 1462.48 1694.92 1463.98 Q1696.61 1465.49 1699.64 1465.49 Q1702.65 1465.49 1704.34 1463.98 Q1706.06 1462.48 1706.06 1459.79 Q1706.06 1457.11 1704.34 1455.6 Q1702.65 1454.1 1699.64 1454.1 Q1696.61 1454.1 1694.92 1455.6 Q1693.26 1457.11 1693.26 1459.79 Z" fill="#000000" fill-rule="nonzero" fill-opacity="1" /><path clip-path="url(#clip750)" d="M1719.81 1479.7 L1724.69 1479.7 L1724.69 1485.58 L1719.81 1485.58 L1719.81 1479.7 Z" fill="#000000" fill-rule="nonzero" fill-opacity="1" /><path clip-path="url(#clip750)" d="M1738.9 1481.64 L1755.22 1481.64 L1755.22 1485.58 L1733.28 1485.58 L1733.28 1481.64 Q1735.94 1478.89 1740.52 1474.26 Q1745.13 1469.61 1746.31 1468.27 Q1748.56 1465.74 1749.44 1464.01 Q1750.34 1462.25 1750.34 1460.56 Q1750.34 1457.8 1748.39 1456.07 Q1746.47 1454.33 1743.37 1454.33 Q1741.17 1454.33 1738.72 1455.09 Q1736.29 1455.86 1733.51 1457.41 L1733.51 1452.69 Q1736.33 1451.55 1738.79 1450.97 Q1741.24 1450.39 1743.28 1450.39 Q1748.65 1450.39 1751.84 1453.08 Q1755.04 1455.77 1755.04 1460.26 Q1755.04 1462.39 1754.23 1464.31 Q1753.44 1466.2 1751.33 1468.8 Q1750.76 1469.47 1747.65 1472.69 Q1744.55 1475.88 1738.9 1481.64 Z" fill="#000000" fill-rule="nonzero" fill-opacity="1" /><path clip-path="url(#clip750)" d="M2050.36 1481.64 L2058 1481.64 L2058 1455.28 L2049.69 1456.95 L2049.69 1452.69 L2057.96 1451.02 L2062.63 1451.02 L2062.63 1481.64 L2070.27 1481.64 L2070.27 1485.58 L2050.36 1485.58 L2050.36 1481.64 Z" fill="#000000" fill-rule="nonzero" fill-opacity="1" /><path clip-path="url(#clip750)" d="M2089.71 1469.17 Q2086.38 1469.17 2084.46 1470.95 Q2082.56 1472.73 2082.56 1475.86 Q2082.56 1478.98 2084.46 1480.77 Q2086.38 1482.55 2089.71 1482.55 Q2093.05 1482.55 2094.97 1480.77 Q2096.89 1478.96 2096.89 1475.86 Q2096.89 1472.73 2094.97 1470.95 Q2093.07 1469.17 2089.71 1469.17 M2085.04 1467.18 Q2082.03 1466.44 2080.34 1464.38 Q2078.67 1462.32 2078.67 1459.35 Q2078.67 1455.21 2081.61 1452.8 Q2084.58 1450.39 2089.71 1450.39 Q2094.88 1450.39 2097.82 1452.8 Q2100.76 1455.21 2100.76 1459.35 Q2100.76 1462.32 2099.07 1464.38 Q2097.4 1466.44 2094.41 1467.18 Q2097.79 1467.96 2099.67 1470.26 Q2101.57 1472.55 2101.57 1475.86 Q2101.57 1480.88 2098.49 1483.57 Q2095.43 1486.25 2089.71 1486.25 Q2084 1486.25 2080.92 1483.57 Q2077.86 1480.88 2077.86 1475.86 Q2077.86 1472.55 2079.76 1470.26 Q2081.66 1467.96 2085.04 1467.18 M2083.33 1459.79 Q2083.33 1462.48 2084.99 1463.98 Q2086.68 1465.49 2089.71 1465.49 Q2092.72 1465.49 2094.41 1463.98 Q2096.13 1462.48 2096.13 1459.79 Q2096.13 1457.11 2094.41 1455.6 Q2092.72 1454.1 2089.71 1454.1 Q2086.68 1454.1 2084.99 1455.6 Q2083.33 1457.11 2083.33 1459.79 Z" fill="#000000" fill-rule="nonzero" fill-opacity="1" /><path clip-path="url(#clip750)" d="M2109.88 1479.7 L2114.76 1479.7 L2114.76 1485.58 L2109.88 1485.58 L2109.88 1479.7 Z" fill="#000000" fill-rule="nonzero" fill-opacity="1" /><path clip-path="url(#clip750)" d="M2137.79 1455.09 L2125.99 1473.54 L2137.79 1473.54 L2137.79 1455.09 M2136.57 1451.02 L2142.45 1451.02 L2142.45 1473.54 L2147.38 1473.54 L2147.38 1477.43 L2142.45 1477.43 L2142.45 1485.58 L2137.79 1485.58 L2137.79 1477.43 L2122.19 1477.43 L2122.19 1472.92 L2136.57 1451.02 Z" fill="#000000" fill-rule="nonzero" fill-opacity="1" /><path clip-path="url(#clip750)" d="M1024.48 1520.52 L1051.78 1520.52 L1051.78 1525.93 L1030.9 1525.93 L1030.9 1539.94 L1049.75 1539.94 L1049.75 1545.35 L1030.9 1545.35 L1030.9 1568.04 L1024.48 1568.04 L1024.48 1520.52 Z" fill="#000000" fill-rule="nonzero" fill-opacity="1" /><path clip-path="url(#clip750)" d="M1077.63 1537.87 Q1076.64 1537.3 1075.46 1537.04 Q1074.32 1536.76 1072.92 1536.76 Q1067.95 1536.76 1065.28 1540 Q1062.64 1543.22 1062.64 1549.27 L1062.64 1568.04 L1056.75 1568.04 L1056.75 1532.4 L1062.64 1532.4 L1062.64 1537.93 Q1064.48 1534.69 1067.44 1533.13 Q1070.4 1531.54 1074.64 1531.54 Q1075.24 1531.54 1075.97 1531.63 Q1076.71 1531.7 1077.6 1531.85 L1077.63 1537.87 Z" fill="#000000" fill-rule="nonzero" fill-opacity="1" /><path clip-path="url(#clip750)" d="M1112.83 1548.76 L1112.83 1551.62 L1085.9 1551.62 Q1086.29 1557.67 1089.53 1560.85 Q1092.81 1564 1098.64 1564 Q1102.01 1564 1105.16 1563.17 Q1108.34 1562.35 1111.46 1560.69 L1111.46 1566.23 Q1108.31 1567.57 1105 1568.27 Q1101.69 1568.97 1098.29 1568.97 Q1089.76 1568.97 1084.76 1564 Q1079.79 1559.04 1079.79 1550.57 Q1079.79 1541.82 1084.5 1536.69 Q1089.25 1531.54 1097.27 1531.54 Q1104.46 1531.54 1108.63 1536.18 Q1112.83 1540.8 1112.83 1548.76 M1106.97 1547.04 Q1106.91 1542.23 1104.27 1539.37 Q1101.66 1536.5 1097.33 1536.5 Q1092.43 1536.5 1089.47 1539.27 Q1086.54 1542.04 1086.1 1547.07 L1106.97 1547.04 Z" fill="#000000" fill-rule="nonzero" fill-opacity="1" /><path clip-path="url(#clip750)" d="M1125.94 1550.25 Q1125.94 1556.71 1128.59 1560.4 Q1131.26 1564.07 1135.91 1564.07 Q1140.55 1564.07 1143.23 1560.4 Q1145.9 1556.71 1145.9 1550.25 Q1145.9 1543.79 1143.23 1540.13 Q1140.55 1536.44 1135.91 1536.44 Q1131.26 1536.44 1128.59 1540.13 Q1125.94 1543.79 1125.94 1550.25 M1145.9 1562.7 Q1144.05 1565.88 1141.22 1567.44 Q1138.42 1568.97 1134.47 1568.97 Q1128.01 1568.97 1123.94 1563.81 Q1119.9 1558.65 1119.9 1550.25 Q1119.9 1541.85 1123.94 1536.69 Q1128.01 1531.54 1134.47 1531.54 Q1138.42 1531.54 1141.22 1533.1 Q1144.05 1534.62 1145.9 1537.81 L1145.9 1532.4 L1151.76 1532.4 L1151.76 1581.6 L1145.9 1581.6 L1145.9 1562.7 Z" fill="#000000" fill-rule="nonzero" fill-opacity="1" /><path clip-path="url(#clip750)" d="M1163.22 1553.98 L1163.22 1532.4 L1169.07 1532.4 L1169.07 1553.75 Q1169.07 1558.81 1171.05 1561.36 Q1173.02 1563.87 1176.97 1563.87 Q1181.71 1563.87 1184.45 1560.85 Q1187.21 1557.83 1187.21 1552.61 L1187.21 1532.4 L1193.07 1532.4 L1193.07 1568.04 L1187.21 1568.04 L1187.21 1562.57 Q1185.08 1565.82 1182.25 1567.41 Q1179.45 1568.97 1175.72 1568.97 Q1169.58 1568.97 1166.4 1565.15 Q1163.22 1561.33 1163.22 1553.98 M1177.95 1531.54 L1177.95 1531.54 Z" fill="#000000" fill-rule="nonzero" fill-opacity="1" /><path clip-path="url(#clip750)" d="M1235.63 1548.76 L1235.63 1551.62 L1208.7 1551.62 Q1209.08 1557.67 1212.33 1560.85 Q1215.61 1564 1221.43 1564 Q1224.8 1564 1227.95 1563.17 Q1231.14 1562.35 1234.26 1560.69 L1234.26 1566.23 Q1231.11 1567.57 1227.8 1568.27 Q1224.49 1568.97 1221.08 1568.97 Q1212.55 1568.97 1207.55 1564 Q1202.59 1559.04 1202.59 1550.57 Q1202.59 1541.82 1207.3 1536.69 Q1212.04 1531.54 1220.06 1531.54 Q1227.25 1531.54 1231.42 1536.18 Q1235.63 1540.8 1235.63 1548.76 M1229.77 1547.04 Q1229.71 1542.23 1227.06 1539.37 Q1224.45 1536.5 1220.13 1536.5 Q1215.22 1536.5 1212.26 1539.27 Q1209.34 1542.04 1208.89 1547.07 L1229.77 1547.04 Z" fill="#000000" fill-rule="nonzero" fill-opacity="1" /><path clip-path="url(#clip750)" d="M1274.87 1546.53 L1274.87 1568.04 L1269.01 1568.04 L1269.01 1546.72 Q1269.01 1541.66 1267.04 1539.14 Q1265.07 1536.63 1261.12 1536.63 Q1256.38 1536.63 1253.64 1539.65 Q1250.9 1542.68 1250.9 1547.9 L1250.9 1568.04 L1245.02 1568.04 L1245.02 1532.4 L1250.9 1532.4 L1250.9 1537.93 Q1253 1534.72 1255.84 1533.13 Q1258.7 1531.54 1262.43 1531.54 Q1268.57 1531.54 1271.72 1535.36 Q1274.87 1539.14 1274.87 1546.53 Z" fill="#000000" fill-rule="nonzero" fill-opacity="1" /><path clip-path="url(#clip750)" d="M1312.21 1533.76 L1312.21 1539.24 Q1309.72 1537.87 1307.21 1537.2 Q1304.73 1536.5 1302.18 1536.5 Q1296.48 1536.5 1293.33 1540.13 Q1290.18 1543.73 1290.18 1550.25 Q1290.18 1556.78 1293.33 1560.4 Q1296.48 1564 1302.18 1564 Q1304.73 1564 1307.21 1563.33 Q1309.72 1562.63 1312.21 1561.26 L1312.21 1566.68 Q1309.75 1567.82 1307.11 1568.39 Q1304.5 1568.97 1301.54 1568.97 Q1293.49 1568.97 1288.75 1563.91 Q1284 1558.85 1284 1550.25 Q1284 1541.53 1288.78 1536.53 Q1293.59 1531.54 1301.92 1531.54 Q1304.63 1531.54 1307.21 1532.11 Q1309.79 1532.65 1312.21 1533.76 Z" fill="#000000" fill-rule="nonzero" fill-opacity="1" /><path clip-path="url(#clip750)" d="M1322.39 1532.4 L1328.25 1532.4 L1328.25 1568.04 L1322.39 1568.04 L1322.39 1532.4 M1322.39 1518.52 L1328.25 1518.52 L1328.25 1525.93 L1322.39 1525.93 L1322.39 1518.52 Z" fill="#000000" fill-rule="nonzero" fill-opacity="1" /><path clip-path="url(#clip750)" d="M1370.99 1548.76 L1370.99 1551.62 L1344.07 1551.62 Q1344.45 1557.67 1347.69 1560.85 Q1350.97 1564 1356.8 1564 Q1360.17 1564 1363.32 1563.17 Q1366.5 1562.35 1369.62 1560.69 L1369.62 1566.23 Q1366.47 1567.57 1363.16 1568.27 Q1359.85 1568.97 1356.45 1568.97 Q1347.92 1568.97 1342.92 1564 Q1337.95 1559.04 1337.95 1550.57 Q1337.95 1541.82 1342.66 1536.69 Q1347.41 1531.54 1355.43 1531.54 Q1362.62 1531.54 1366.79 1536.18 Q1370.99 1540.8 1370.99 1548.76 M1365.14 1547.04 Q1365.07 1542.23 1362.43 1539.37 Q1359.82 1536.5 1355.49 1536.5 Q1350.59 1536.5 1347.63 1539.27 Q1344.7 1542.04 1344.26 1547.07 L1365.14 1547.04 Z" fill="#000000" fill-rule="nonzero" fill-opacity="1" /><path clip-path="url(#clip750)" d="M1403.33 1533.45 L1403.33 1538.98 Q1400.85 1537.71 1398.17 1537.07 Q1395.5 1536.44 1392.64 1536.44 Q1388.28 1536.44 1386.08 1537.77 Q1383.91 1539.11 1383.91 1541.79 Q1383.91 1543.82 1385.47 1545 Q1387.03 1546.15 1391.74 1547.2 L1393.75 1547.64 Q1399.99 1548.98 1402.6 1551.43 Q1405.24 1553.85 1405.24 1558.21 Q1405.24 1563.17 1401.29 1566.07 Q1397.38 1568.97 1390.5 1568.97 Q1387.64 1568.97 1384.52 1568.39 Q1381.43 1567.85 1377.99 1566.74 L1377.99 1560.69 Q1381.24 1562.38 1384.39 1563.24 Q1387.54 1564.07 1390.63 1564.07 Q1394.77 1564.07 1397 1562.66 Q1399.22 1561.23 1399.22 1558.65 Q1399.22 1556.27 1397.6 1554.99 Q1396.01 1553.72 1390.57 1552.54 L1388.53 1552.07 Q1383.09 1550.92 1380.67 1548.56 Q1378.25 1546.18 1378.25 1542.04 Q1378.25 1537.01 1381.81 1534.27 Q1385.38 1531.54 1391.94 1531.54 Q1395.18 1531.54 1398.05 1532.01 Q1400.91 1532.49 1403.33 1533.45 Z" fill="#000000" fill-rule="nonzero" fill-opacity="1" /><path clip-path="url(#clip750)" d="M1434.74 1518.52 L1448.24 1518.52 L1448.24 1523.07 L1440.6 1523.07 L1440.6 1572.09 L1448.24 1572.09 L1448.24 1576.64 L1434.74 1576.64 L1434.74 1518.52 Z" fill="#000000" fill-rule="nonzero" fill-opacity="1" /><path clip-path="url(#clip750)" d="M1493.37 1561.26 L1493.37 1548.5 L1482.87 1548.5 L1482.87 1543.22 L1499.74 1543.22 L1499.74 1563.62 Q1496.01 1566.26 1491.53 1567.63 Q1487.04 1568.97 1481.95 1568.97 Q1470.81 1568.97 1464.5 1562.47 Q1458.23 1555.95 1458.23 1544.33 Q1458.23 1532.68 1464.5 1526.19 Q1470.81 1519.66 1481.95 1519.66 Q1486.59 1519.66 1490.76 1520.81 Q1494.96 1521.96 1498.5 1524.18 L1498.5 1531.03 Q1494.93 1528 1490.92 1526.48 Q1486.91 1524.95 1482.49 1524.95 Q1473.77 1524.95 1469.37 1529.82 Q1465.01 1534.69 1465.01 1544.33 Q1465.01 1553.94 1469.37 1558.81 Q1473.77 1563.68 1482.49 1563.68 Q1485.89 1563.68 1488.57 1563.11 Q1491.24 1562.51 1493.37 1561.26 Z" fill="#000000" fill-rule="nonzero" fill-opacity="1" /><path clip-path="url(#clip750)" d="M1511.48 1520.52 L1517.91 1520.52 L1517.91 1540 L1541.27 1540 L1541.27 1520.52 L1547.7 1520.52 L1547.7 1568.04 L1541.27 1568.04 L1541.27 1545.41 L1517.91 1545.41 L1517.91 1568.04 L1511.48 1568.04 L1511.48 1520.52 Z" fill="#000000" fill-rule="nonzero" fill-opacity="1" /><path clip-path="url(#clip750)" d="M1557.7 1532.4 L1585.52 1532.4 L1585.52 1537.74 L1563.49 1563.37 L1585.52 1563.37 L1585.52 1568.04 L1556.9 1568.04 L1556.9 1562.7 L1578.93 1537.07 L1557.7 1537.07 L1557.7 1532.4 Z" fill="#000000" fill-rule="nonzero" fill-opacity="1" /><path clip-path="url(#clip750)" d="M1608.15 1518.52 L1608.15 1576.64 L1594.65 1576.64 L1594.65 1572.09 L1602.26 1572.09 L1602.26 1523.07 L1594.65 1523.07 L1594.65 1518.52 L1608.15 1518.52 Z" fill="#000000" fill-rule="nonzero" fill-opacity="1" /><polyline clip-path="url(#clip750)" style="stroke:#000000; stroke-linecap:round; stroke-linejoin:round; stroke-width:4; stroke-opacity:1; fill:none" points="279.866,1423.18 279.866,47.2441 "/>
<polyline clip-path="url(#clip750)" style="stroke:#000000; stroke-linecap:round; stroke-linejoin:round; stroke-width:4; stroke-opacity:1; fill:none" points="279.866,1250.94 298.764,1250.94 "/>
<polyline clip-path="url(#clip750)" style="stroke:#000000; stroke-linecap:round; stroke-linejoin:round; stroke-width:4; stroke-opacity:1; fill:none" points="279.866,956.239 298.764,956.239 "/>
<polyline clip-path="url(#clip750)" style="stroke:#000000; stroke-linecap:round; stroke-linejoin:round; stroke-width:4; stroke-opacity:1; fill:none" points="279.866,661.533 298.764,661.533 "/>
<polyline clip-path="url(#clip750)" style="stroke:#000000; stroke-linecap:round; stroke-linejoin:round; stroke-width:4; stroke-opacity:1; fill:none" points="279.866,366.827 298.764,366.827 "/>
<polyline clip-path="url(#clip750)" style="stroke:#000000; stroke-linecap:round; stroke-linejoin:round; stroke-width:4; stroke-opacity:1; fill:none" points="279.866,72.1212 298.764,72.1212 "/>
<path clip-path="url(#clip750)" d="M126.205 1236.74 Q122.593 1236.74 120.765 1240.31 Q118.959 1243.85 118.959 1250.98 Q118.959 1258.09 120.765 1261.65 Q122.593 1265.19 126.205 1265.19 Q129.839 1265.19 131.644 1261.65 Q133.473 1258.09 133.473 1250.98 Q133.473 1243.85 131.644 1240.31 Q129.839 1236.74 126.205 1236.74 M126.205 1233.04 Q132.015 1233.04 135.07 1237.65 Q138.149 1242.23 138.149 1250.98 Q138.149 1259.71 135.07 1264.31 Q132.015 1268.9 126.205 1268.9 Q120.394 1268.9 117.316 1264.31 Q114.26 1259.71 114.26 1250.98 Q114.26 1242.23 117.316 1237.65 Q120.394 1233.04 126.205 1233.04 Z" fill="#000000" fill-rule="nonzero" fill-opacity="1" /><path clip-path="url(#clip750)" d="M146.366 1262.35 L151.251 1262.35 L151.251 1268.22 L146.366 1268.22 L146.366 1262.35 Z" fill="#000000" fill-rule="nonzero" fill-opacity="1" /><path clip-path="url(#clip750)" d="M161.575 1267.51 L161.575 1263.25 Q163.334 1264.08 165.14 1264.52 Q166.945 1264.96 168.681 1264.96 Q173.311 1264.96 175.741 1261.86 Q178.195 1258.73 178.542 1252.39 Q177.2 1254.38 175.139 1255.45 Q173.079 1256.51 170.579 1256.51 Q165.394 1256.51 162.362 1253.39 Q159.353 1250.24 159.353 1244.8 Q159.353 1239.47 162.501 1236.26 Q165.649 1233.04 170.88 1233.04 Q176.876 1233.04 180.024 1237.65 Q183.195 1242.23 183.195 1250.98 Q183.195 1259.15 179.306 1264.03 Q175.44 1268.9 168.889 1268.9 Q167.13 1268.9 165.325 1268.55 Q163.519 1268.2 161.575 1267.51 M170.88 1252.85 Q174.028 1252.85 175.857 1250.7 Q177.709 1248.55 177.709 1244.8 Q177.709 1241.07 175.857 1238.92 Q174.028 1236.74 170.88 1236.74 Q167.732 1236.74 165.88 1238.92 Q164.052 1241.07 164.052 1244.8 Q164.052 1248.55 165.88 1250.7 Q167.732 1252.85 170.88 1252.85 Z" fill="#000000" fill-rule="nonzero" fill-opacity="1" /><path clip-path="url(#clip750)" d="M191.737 1267.51 L191.737 1263.25 Q193.496 1264.08 195.301 1264.52 Q197.107 1264.96 198.843 1264.96 Q203.473 1264.96 205.903 1261.86 Q208.357 1258.73 208.704 1252.39 Q207.362 1254.38 205.301 1255.45 Q203.241 1256.51 200.741 1256.51 Q195.556 1256.51 192.524 1253.39 Q189.514 1250.24 189.514 1244.8 Q189.514 1239.47 192.663 1236.26 Q195.811 1233.04 201.042 1233.04 Q207.037 1233.04 210.186 1237.65 Q213.357 1242.23 213.357 1250.98 Q213.357 1259.15 209.468 1264.03 Q205.602 1268.9 199.051 1268.9 Q197.292 1268.9 195.487 1268.55 Q193.681 1268.2 191.737 1267.51 M201.042 1252.85 Q204.19 1252.85 206.019 1250.7 Q207.871 1248.55 207.871 1244.8 Q207.871 1241.07 206.019 1238.92 Q204.19 1236.74 201.042 1236.74 Q197.894 1236.74 196.042 1238.92 Q194.213 1241.07 194.213 1244.8 Q194.213 1248.55 196.042 1250.7 Q197.894 1252.85 201.042 1252.85 Z" fill="#000000" fill-rule="nonzero" fill-opacity="1" /><path clip-path="url(#clip750)" d="M232.338 1249.08 Q229.19 1249.08 227.338 1251.23 Q225.51 1253.39 225.51 1257.14 Q225.51 1260.86 227.338 1263.04 Q229.19 1265.19 232.338 1265.19 Q235.486 1265.19 237.315 1263.04 Q239.167 1260.86 239.167 1257.14 Q239.167 1253.39 237.315 1251.23 Q235.486 1249.08 232.338 1249.08 M241.621 1234.43 L241.621 1238.69 Q239.861 1237.85 238.056 1237.41 Q236.273 1236.97 234.514 1236.97 Q229.885 1236.97 227.431 1240.1 Q225 1243.22 224.653 1249.54 Q226.019 1247.53 228.079 1246.47 Q230.139 1245.38 232.616 1245.38 Q237.824 1245.38 240.834 1248.55 Q243.866 1251.7 243.866 1257.14 Q243.866 1262.46 240.718 1265.68 Q237.57 1268.9 232.338 1268.9 Q226.343 1268.9 223.172 1264.31 Q220 1259.71 220 1250.98 Q220 1242.78 223.889 1237.92 Q227.778 1233.04 234.329 1233.04 Q236.088 1233.04 237.871 1233.39 Q239.676 1233.73 241.621 1234.43 Z" fill="#000000" fill-rule="nonzero" fill-opacity="1" /><path clip-path="url(#clip750)" d="M127.269 942.037 Q123.658 942.037 121.83 945.602 Q120.024 949.144 120.024 956.273 Q120.024 963.38 121.83 966.945 Q123.658 970.486 127.269 970.486 Q130.904 970.486 132.709 966.945 Q134.538 963.38 134.538 956.273 Q134.538 949.144 132.709 945.602 Q130.904 942.037 127.269 942.037 M127.269 938.334 Q133.08 938.334 136.135 942.94 Q139.214 947.524 139.214 956.273 Q139.214 965 136.135 969.607 Q133.08 974.19 127.269 974.19 Q121.459 974.19 118.381 969.607 Q115.325 965 115.325 956.273 Q115.325 947.524 118.381 942.94 Q121.459 938.334 127.269 938.334 Z" fill="#000000" fill-rule="nonzero" fill-opacity="1" /><path clip-path="url(#clip750)" d="M147.431 967.639 L152.316 967.639 L152.316 973.519 L147.431 973.519 L147.431 967.639 Z" fill="#000000" fill-rule="nonzero" fill-opacity="1" /><path clip-path="url(#clip750)" d="M162.64 972.801 L162.64 968.542 Q164.399 969.375 166.204 969.815 Q168.01 970.255 169.746 970.255 Q174.376 970.255 176.806 967.153 Q179.26 964.028 179.607 957.685 Q178.264 959.676 176.204 960.741 Q174.144 961.806 171.644 961.806 Q166.459 961.806 163.427 958.681 Q160.417 955.533 160.417 950.093 Q160.417 944.769 163.565 941.551 Q166.714 938.334 171.945 938.334 Q177.94 938.334 181.089 942.94 Q184.26 947.524 184.26 956.273 Q184.26 964.445 180.371 969.329 Q176.505 974.19 169.954 974.19 Q168.195 974.19 166.39 973.843 Q164.584 973.496 162.64 972.801 M171.945 958.148 Q175.093 958.148 176.922 955.996 Q178.774 953.843 178.774 950.093 Q178.774 946.366 176.922 944.213 Q175.093 942.037 171.945 942.037 Q168.797 942.037 166.945 944.213 Q165.116 946.366 165.116 950.093 Q165.116 953.843 166.945 955.996 Q168.797 958.148 171.945 958.148 Z" fill="#000000" fill-rule="nonzero" fill-opacity="1" /><path clip-path="url(#clip750)" d="M192.801 972.801 L192.801 968.542 Q194.561 969.375 196.366 969.815 Q198.172 970.255 199.908 970.255 Q204.537 970.255 206.968 967.153 Q209.422 964.028 209.769 957.685 Q208.426 959.676 206.366 960.741 Q204.306 961.806 201.806 961.806 Q196.621 961.806 193.588 958.681 Q190.579 955.533 190.579 950.093 Q190.579 944.769 193.727 941.551 Q196.875 938.334 202.107 938.334 Q208.102 938.334 211.25 942.94 Q214.422 947.524 214.422 956.273 Q214.422 964.445 210.533 969.329 Q206.667 974.19 200.116 974.19 Q198.357 974.19 196.551 973.843 Q194.746 973.496 192.801 972.801 M202.107 958.148 Q205.255 958.148 207.084 955.996 Q208.936 953.843 208.936 950.093 Q208.936 946.366 207.084 944.213 Q205.255 942.037 202.107 942.037 Q198.959 942.037 197.107 944.213 Q195.278 946.366 195.278 950.093 Q195.278 953.843 197.107 955.996 Q198.959 958.148 202.107 958.148 Z" fill="#000000" fill-rule="nonzero" fill-opacity="1" /><path clip-path="url(#clip750)" d="M221.644 938.959 L243.866 938.959 L243.866 940.949 L231.32 973.519 L226.435 973.519 L238.241 942.894 L221.644 942.894 L221.644 938.959 Z" fill="#000000" fill-rule="nonzero" fill-opacity="1" /><path clip-path="url(#clip750)" d="M126.459 647.332 Q122.848 647.332 121.019 650.896 Q119.214 654.438 119.214 661.568 Q119.214 668.674 121.019 672.239 Q122.848 675.78 126.459 675.78 Q130.093 675.78 131.899 672.239 Q133.728 668.674 133.728 661.568 Q133.728 654.438 131.899 650.896 Q130.093 647.332 126.459 647.332 M126.459 643.628 Q132.269 643.628 135.325 648.234 Q138.404 652.818 138.404 661.568 Q138.404 670.294 135.325 674.901 Q132.269 679.484 126.459 679.484 Q120.649 679.484 117.57 674.901 Q114.515 670.294 114.515 661.568 Q114.515 652.818 117.57 648.234 Q120.649 643.628 126.459 643.628 Z" fill="#000000" fill-rule="nonzero" fill-opacity="1" /><path clip-path="url(#clip750)" d="M146.621 672.933 L151.505 672.933 L151.505 678.813 L146.621 678.813 L146.621 672.933 Z" fill="#000000" fill-rule="nonzero" fill-opacity="1" /><path clip-path="url(#clip750)" d="M161.829 678.095 L161.829 673.836 Q163.589 674.669 165.394 675.109 Q167.2 675.549 168.936 675.549 Q173.565 675.549 175.996 672.447 Q178.45 669.322 178.797 662.98 Q177.454 664.97 175.394 666.035 Q173.334 667.1 170.834 667.1 Q165.649 667.1 162.616 663.975 Q159.607 660.827 159.607 655.387 Q159.607 650.063 162.755 646.845 Q165.903 643.628 171.135 643.628 Q177.13 643.628 180.278 648.234 Q183.45 652.818 183.45 661.568 Q183.45 669.739 179.561 674.623 Q175.695 679.484 169.144 679.484 Q167.385 679.484 165.579 679.137 Q163.774 678.79 161.829 678.095 M171.135 663.443 Q174.283 663.443 176.112 661.29 Q177.964 659.137 177.964 655.387 Q177.964 651.66 176.112 649.507 Q174.283 647.332 171.135 647.332 Q167.987 647.332 166.135 649.507 Q164.306 651.66 164.306 655.387 Q164.306 659.137 166.135 661.29 Q167.987 663.443 171.135 663.443 Z" fill="#000000" fill-rule="nonzero" fill-opacity="1" /><path clip-path="url(#clip750)" d="M191.991 678.095 L191.991 673.836 Q193.75 674.669 195.556 675.109 Q197.362 675.549 199.098 675.549 Q203.727 675.549 206.158 672.447 Q208.612 669.322 208.959 662.98 Q207.616 664.97 205.556 666.035 Q203.496 667.1 200.996 667.1 Q195.811 667.1 192.778 663.975 Q189.769 660.827 189.769 655.387 Q189.769 650.063 192.917 646.845 Q196.065 643.628 201.297 643.628 Q207.292 643.628 210.44 648.234 Q213.611 652.818 213.611 661.568 Q213.611 669.739 209.723 674.623 Q205.857 679.484 199.306 679.484 Q197.547 679.484 195.741 679.137 Q193.936 678.79 191.991 678.095 M201.297 663.443 Q204.445 663.443 206.274 661.29 Q208.125 659.137 208.125 655.387 Q208.125 651.66 206.274 649.507 Q204.445 647.332 201.297 647.332 Q198.149 647.332 196.297 649.507 Q194.468 651.66 194.468 655.387 Q194.468 659.137 196.297 661.29 Q198.149 663.443 201.297 663.443 Z" fill="#000000" fill-rule="nonzero" fill-opacity="1" /><path clip-path="url(#clip750)" d="M232.014 662.401 Q228.681 662.401 226.76 664.183 Q224.861 665.966 224.861 669.091 Q224.861 672.216 226.76 673.998 Q228.681 675.78 232.014 675.78 Q235.347 675.78 237.269 673.998 Q239.19 672.193 239.19 669.091 Q239.19 665.966 237.269 664.183 Q235.371 662.401 232.014 662.401 M227.338 660.41 Q224.329 659.669 222.639 657.609 Q220.973 655.549 220.973 652.586 Q220.973 648.443 223.912 646.035 Q226.875 643.628 232.014 643.628 Q237.176 643.628 240.116 646.035 Q243.056 648.443 243.056 652.586 Q243.056 655.549 241.366 657.609 Q239.699 659.669 236.713 660.41 Q240.093 661.197 241.968 663.489 Q243.866 665.781 243.866 669.091 Q243.866 674.114 240.787 676.799 Q237.732 679.484 232.014 679.484 Q226.297 679.484 223.218 676.799 Q220.162 674.114 220.162 669.091 Q220.162 665.781 222.061 663.489 Q223.959 661.197 227.338 660.41 M225.625 653.026 Q225.625 655.711 227.292 657.216 Q228.982 658.72 232.014 658.72 Q235.023 658.72 236.713 657.216 Q238.426 655.711 238.426 653.026 Q238.426 650.341 236.713 648.836 Q235.023 647.332 232.014 647.332 Q228.982 647.332 227.292 648.836 Q225.625 650.341 225.625 653.026 Z" fill="#000000" fill-rule="nonzero" fill-opacity="1" /><path clip-path="url(#clip750)" d="M126.552 352.626 Q122.941 352.626 121.112 356.19 Q119.306 359.732 119.306 366.862 Q119.306 373.968 121.112 377.533 Q122.941 381.075 126.552 381.075 Q130.186 381.075 131.992 377.533 Q133.82 373.968 133.82 366.862 Q133.82 359.732 131.992 356.19 Q130.186 352.626 126.552 352.626 M126.552 348.922 Q132.362 348.922 135.417 353.528 Q138.496 358.112 138.496 366.862 Q138.496 375.589 135.417 380.195 Q132.362 384.778 126.552 384.778 Q120.742 384.778 117.663 380.195 Q114.607 375.589 114.607 366.862 Q114.607 358.112 117.663 353.528 Q120.742 348.922 126.552 348.922 Z" fill="#000000" fill-rule="nonzero" fill-opacity="1" /><path clip-path="url(#clip750)" d="M146.714 378.227 L151.598 378.227 L151.598 384.107 L146.714 384.107 L146.714 378.227 Z" fill="#000000" fill-rule="nonzero" fill-opacity="1" /><path clip-path="url(#clip750)" d="M161.922 383.389 L161.922 379.13 Q163.681 379.964 165.487 380.403 Q167.292 380.843 169.028 380.843 Q173.658 380.843 176.089 377.741 Q178.542 374.616 178.889 368.274 Q177.547 370.264 175.487 371.329 Q173.427 372.394 170.927 372.394 Q165.741 372.394 162.709 369.269 Q159.7 366.121 159.7 360.681 Q159.7 355.357 162.848 352.14 Q165.996 348.922 171.227 348.922 Q177.223 348.922 180.371 353.528 Q183.542 358.112 183.542 366.862 Q183.542 375.033 179.653 379.917 Q175.788 384.778 169.237 384.778 Q167.477 384.778 165.672 384.431 Q163.866 384.084 161.922 383.389 M171.227 368.737 Q174.376 368.737 176.204 366.584 Q178.056 364.431 178.056 360.681 Q178.056 356.954 176.204 354.802 Q174.376 352.626 171.227 352.626 Q168.079 352.626 166.227 354.802 Q164.399 356.954 164.399 360.681 Q164.399 364.431 166.227 366.584 Q168.079 368.737 171.227 368.737 Z" fill="#000000" fill-rule="nonzero" fill-opacity="1" /><path clip-path="url(#clip750)" d="M192.084 383.389 L192.084 379.13 Q193.843 379.964 195.649 380.403 Q197.454 380.843 199.19 380.843 Q203.82 380.843 206.25 377.741 Q208.704 374.616 209.051 368.274 Q207.709 370.264 205.649 371.329 Q203.588 372.394 201.088 372.394 Q195.903 372.394 192.871 369.269 Q189.862 366.121 189.862 360.681 Q189.862 355.357 193.01 352.14 Q196.158 348.922 201.389 348.922 Q207.385 348.922 210.533 353.528 Q213.704 358.112 213.704 366.862 Q213.704 375.033 209.815 379.917 Q205.949 384.778 199.399 384.778 Q197.639 384.778 195.834 384.431 Q194.028 384.084 192.084 383.389 M201.389 368.737 Q204.537 368.737 206.366 366.584 Q208.218 364.431 208.218 360.681 Q208.218 356.954 206.366 354.802 Q204.537 352.626 201.389 352.626 Q198.241 352.626 196.389 354.802 Q194.561 356.954 194.561 360.681 Q194.561 364.431 196.389 366.584 Q198.241 368.737 201.389 368.737 Z" fill="#000000" fill-rule="nonzero" fill-opacity="1" /><path clip-path="url(#clip750)" d="M222.246 383.389 L222.246 379.13 Q224.005 379.964 225.81 380.403 Q227.616 380.843 229.352 380.843 Q233.982 380.843 236.412 377.741 Q238.866 374.616 239.213 368.274 Q237.871 370.264 235.81 371.329 Q233.75 372.394 231.25 372.394 Q226.065 372.394 223.033 369.269 Q220.023 366.121 220.023 360.681 Q220.023 355.357 223.172 352.14 Q226.32 348.922 231.551 348.922 Q237.547 348.922 240.695 353.528 Q243.866 358.112 243.866 366.862 Q243.866 375.033 239.977 379.917 Q236.111 384.778 229.56 384.778 Q227.801 384.778 225.996 384.431 Q224.19 384.084 222.246 383.389 M231.551 368.737 Q234.699 368.737 236.528 366.584 Q238.38 364.431 238.38 360.681 Q238.38 356.954 236.528 354.802 Q234.699 352.626 231.551 352.626 Q228.403 352.626 226.551 354.802 Q224.723 356.954 224.723 360.681 Q224.723 364.431 226.551 366.584 Q228.403 368.737 231.551 368.737 Z" fill="#000000" fill-rule="nonzero" fill-opacity="1" /><path clip-path="url(#clip750)" d="M117.177 85.466 L124.816 85.466 L124.816 59.1004 L116.506 60.767 L116.506 56.5078 L124.769 54.8412 L129.445 54.8412 L129.445 85.466 L137.084 85.466 L137.084 89.4012 L117.177 89.4012 L117.177 85.466 Z" fill="#000000" fill-rule="nonzero" fill-opacity="1" /><path clip-path="url(#clip750)" d="M146.529 83.5216 L151.413 83.5216 L151.413 89.4012 L146.529 89.4012 L146.529 83.5216 Z" fill="#000000" fill-rule="nonzero" fill-opacity="1" /><path clip-path="url(#clip750)" d="M171.598 57.9198 Q167.987 57.9198 166.158 61.4846 Q164.352 65.0263 164.352 72.1559 Q164.352 79.2623 166.158 82.8271 Q167.987 86.3688 171.598 86.3688 Q175.232 86.3688 177.038 82.8271 Q178.866 79.2623 178.866 72.1559 Q178.866 65.0263 177.038 61.4846 Q175.232 57.9198 171.598 57.9198 M171.598 54.2162 Q177.408 54.2162 180.464 58.8226 Q183.542 63.4059 183.542 72.1559 Q183.542 80.8827 180.464 85.4891 Q177.408 90.0724 171.598 90.0724 Q165.788 90.0724 162.709 85.4891 Q159.653 80.8827 159.653 72.1559 Q159.653 63.4059 162.709 58.8226 Q165.788 54.2162 171.598 54.2162 Z" fill="#000000" fill-rule="nonzero" fill-opacity="1" /><path clip-path="url(#clip750)" d="M201.76 57.9198 Q198.149 57.9198 196.32 61.4846 Q194.514 65.0263 194.514 72.1559 Q194.514 79.2623 196.32 82.8271 Q198.149 86.3688 201.76 86.3688 Q205.394 86.3688 207.199 82.8271 Q209.028 79.2623 209.028 72.1559 Q209.028 65.0263 207.199 61.4846 Q205.394 57.9198 201.76 57.9198 M201.76 54.2162 Q207.57 54.2162 210.625 58.8226 Q213.704 63.4059 213.704 72.1559 Q213.704 80.8827 210.625 85.4891 Q207.57 90.0724 201.76 90.0724 Q195.95 90.0724 192.871 85.4891 Q189.815 80.8827 189.815 72.1559 Q189.815 63.4059 192.871 58.8226 Q195.95 54.2162 201.76 54.2162 Z" fill="#000000" fill-rule="nonzero" fill-opacity="1" /><path clip-path="url(#clip750)" d="M231.922 57.9198 Q228.31 57.9198 226.482 61.4846 Q224.676 65.0263 224.676 72.1559 Q224.676 79.2623 226.482 82.8271 Q228.31 86.3688 231.922 86.3688 Q235.556 86.3688 237.361 82.8271 Q239.19 79.2623 239.19 72.1559 Q239.19 65.0263 237.361 61.4846 Q235.556 57.9198 231.922 57.9198 M231.922 54.2162 Q237.732 54.2162 240.787 58.8226 Q243.866 63.4059 243.866 72.1559 Q243.866 80.8827 240.787 85.4891 Q237.732 90.0724 231.922 90.0724 Q226.111 90.0724 223.033 85.4891 Q219.977 80.8827 219.977 72.1559 Q219.977 63.4059 223.033 58.8226 Q226.111 54.2162 231.922 54.2162 Z" fill="#000000" fill-rule="nonzero" fill-opacity="1" /><path clip-path="url(#clip750)" d="M41.7242 981.804 Q42.4244 979.735 44.7161 977.793 Q47.0077 975.82 51.0181 973.846 L64.0042 967.322 L64.0042 974.228 L51.8138 980.308 Q47.0395 982.663 45.48 984.891 Q43.9204 987.087 43.9204 990.906 L43.9204 997.909 L64.0042 997.909 L64.0042 1004.34 L16.4842 1004.34 L16.4842 989.824 Q16.4842 981.676 19.8898 977.666 Q23.2955 973.655 30.1704 973.655 Q34.6582 973.655 37.6183 975.756 Q40.5784 977.825 41.7242 981.804 M21.7677 997.909 L38.6368 997.909 L38.6368 989.824 Q38.6368 985.177 36.5043 982.822 Q34.34 980.435 30.1704 980.435 Q26.0009 980.435 23.9002 982.822 Q21.7677 985.177 21.7677 989.824 L21.7677 997.909 Z" fill="#000000" fill-rule="nonzero" fill-opacity="1" /><path clip-path="url(#clip750)" d="M44.7161 931.737 L47.5806 931.737 L47.5806 958.664 Q53.6281 958.282 56.8109 955.036 Q59.9619 951.757 59.9619 945.933 Q59.9619 942.559 59.1344 939.408 Q58.3069 936.225 56.6518 933.106 L62.1899 933.106 Q63.5267 936.257 64.227 939.567 Q64.9272 942.877 64.9272 946.283 Q64.9272 954.813 59.9619 959.81 Q54.9967 964.775 46.5303 964.775 Q37.7774 964.775 32.6531 960.065 Q27.4968 955.322 27.4968 947.301 Q27.4968 940.108 32.1438 935.939 Q36.7589 931.737 44.7161 931.737 M42.9973 937.594 Q38.1912 937.657 35.3266 940.299 Q32.4621 942.909 32.4621 947.238 Q32.4621 952.139 35.2312 955.099 Q38.0002 958.028 43.0292 958.473 L42.9973 937.594 Z" fill="#000000" fill-rule="nonzero" fill-opacity="1" /><path clip-path="url(#clip750)" d="M14.479 904.078 L19.3487 904.078 L19.3487 909.68 Q19.3487 912.831 20.6219 914.072 Q21.895 915.282 25.2052 915.282 L28.3562 915.282 L28.3562 905.638 L32.9077 905.638 L32.9077 915.282 L64.0042 915.282 L64.0042 921.17 L32.9077 921.17 L32.9077 926.772 L28.3562 926.772 L28.3562 921.17 L25.8736 921.17 Q19.9216 921.17 17.2162 918.401 Q14.479 915.632 14.479 909.616 L14.479 904.078 Z" fill="#000000" fill-rule="nonzero" fill-opacity="1" /><path clip-path="url(#clip750)" d="M14.479 899.177 L14.479 893.32 L64.0042 893.32 L64.0042 899.177 L14.479 899.177 Z" fill="#000000" fill-rule="nonzero" fill-opacity="1" /><path clip-path="url(#clip750)" d="M44.7161 850.574 L47.5806 850.574 L47.5806 877.501 Q53.6281 877.119 56.8109 873.873 Q59.9619 870.595 59.9619 864.77 Q59.9619 861.396 59.1344 858.245 Q58.3069 855.062 56.6518 851.943 L62.1899 851.943 Q63.5267 855.094 64.227 858.404 Q64.9272 861.714 64.9272 865.12 Q64.9272 873.65 59.9619 878.647 Q54.9967 883.613 46.5303 883.613 Q37.7774 883.613 32.6531 878.902 Q27.4968 874.159 27.4968 866.139 Q27.4968 858.945 32.1438 854.776 Q36.7589 850.574 44.7161 850.574 M42.9973 856.431 Q38.1912 856.495 35.3266 859.136 Q32.4621 861.746 32.4621 866.075 Q32.4621 870.977 35.2312 873.937 Q38.0002 876.865 43.0292 877.31 L42.9973 856.431 Z" fill="#000000" fill-rule="nonzero" fill-opacity="1" /><path clip-path="url(#clip750)" d="M29.7248 815.308 L35.1993 815.308 Q33.8307 817.791 33.1623 820.306 Q32.4621 822.788 32.4621 825.334 Q32.4621 831.032 36.0905 834.183 Q39.6872 837.334 46.212 837.334 Q52.7369 837.334 56.3653 834.183 Q59.9619 831.032 59.9619 825.334 Q59.9619 822.788 59.2935 820.306 Q58.5933 817.791 57.2247 815.308 L62.6355 815.308 Q63.7814 817.759 64.3543 820.401 Q64.9272 823.011 64.9272 825.971 Q64.9272 834.024 59.8664 838.766 Q54.8057 843.509 46.212 843.509 Q37.491 843.509 32.4939 838.734 Q27.4968 833.928 27.4968 825.589 Q27.4968 822.884 28.0697 820.306 Q28.6108 817.727 29.7248 815.308 Z" fill="#000000" fill-rule="nonzero" fill-opacity="1" /><path clip-path="url(#clip750)" d="M18.2347 799.331 L28.3562 799.331 L28.3562 787.268 L32.9077 787.268 L32.9077 799.331 L52.2594 799.331 Q56.6199 799.331 57.8613 798.153 Q59.1026 796.943 59.1026 793.283 L59.1026 787.268 L64.0042 787.268 L64.0042 793.283 Q64.0042 800.063 61.4897 802.641 Q58.9434 805.219 52.2594 805.219 L32.9077 805.219 L32.9077 809.516 L28.3562 809.516 L28.3562 805.219 L18.2347 805.219 L18.2347 799.331 Z" fill="#000000" fill-rule="nonzero" fill-opacity="1" /><path clip-path="url(#clip750)" d="M28.3562 779.565 L28.3562 773.709 L64.0042 773.709 L64.0042 779.565 L28.3562 779.565 M14.479 779.565 L14.479 773.709 L21.895 773.709 L21.895 779.565 L14.479 779.565 Z" fill="#000000" fill-rule="nonzero" fill-opacity="1" /><path clip-path="url(#clip750)" d="M28.3562 765.656 L28.3562 759.449 L58.275 748.309 L28.3562 737.169 L28.3562 730.963 L64.0042 744.331 L64.0042 752.288 L28.3562 765.656 Z" fill="#000000" fill-rule="nonzero" fill-opacity="1" /><path clip-path="url(#clip750)" d="M28.3562 722.878 L28.3562 717.022 L64.0042 717.022 L64.0042 722.878 L28.3562 722.878 M14.479 722.878 L14.479 717.022 L21.895 717.022 L21.895 722.878 L14.479 722.878 Z" fill="#000000" fill-rule="nonzero" fill-opacity="1" /><path clip-path="url(#clip750)" d="M18.2347 698.975 L28.3562 698.975 L28.3562 686.912 L32.9077 686.912 L32.9077 698.975 L52.2594 698.975 Q56.6199 698.975 57.8613 697.798 Q59.1026 696.588 59.1026 692.928 L59.1026 686.912 L64.0042 686.912 L64.0042 692.928 Q64.0042 699.707 61.4897 702.285 Q58.9434 704.863 52.2594 704.863 L32.9077 704.863 L32.9077 709.16 L28.3562 709.16 L28.3562 704.863 L18.2347 704.863 L18.2347 698.975 Z" fill="#000000" fill-rule="nonzero" fill-opacity="1" /><path clip-path="url(#clip750)" d="M67.3143 664.378 Q73.68 666.86 75.6216 669.216 Q77.5631 671.571 77.5631 675.518 L77.5631 680.196 L72.6615 680.196 L72.6615 676.759 Q72.6615 674.34 71.5157 673.003 Q70.3699 671.666 66.1048 670.043 L63.4312 668.993 L28.3562 683.411 L28.3562 677.204 L56.238 666.064 L28.3562 654.924 L28.3562 648.718 L67.3143 664.378 Z" fill="#000000" fill-rule="nonzero" fill-opacity="1" /><path clip-path="url(#clip750)" d="M14.1925 612.37 L79.3773 612.37 L79.3773 617.781 L14.1925 617.781 L14.1925 612.37 Z" fill="#000000" fill-rule="nonzero" fill-opacity="1" /><path clip-path="url(#clip750)" d="M18.0438 569.21 L24.314 569.21 Q22.5634 572.871 21.704 576.117 Q20.8447 579.364 20.8447 582.387 Q20.8447 587.639 22.8817 590.504 Q24.9187 593.336 28.6745 593.336 Q31.8255 593.336 33.4488 591.458 Q35.0402 589.549 36.0269 584.265 L36.8226 580.382 Q38.1912 573.189 41.6605 569.783 Q45.098 566.346 50.8908 566.346 Q57.7976 566.346 61.3624 570.993 Q64.9272 575.608 64.9272 584.552 Q64.9272 587.925 64.1633 591.745 Q63.3994 595.532 61.9035 599.607 L55.2831 599.607 Q57.4793 595.692 58.5933 591.936 Q59.7073 588.18 59.7073 584.552 Q59.7073 579.045 57.543 576.053 Q55.3786 573.062 51.3682 573.062 Q47.8671 573.062 45.8937 575.226 Q43.9204 577.358 42.9337 582.26 L42.1698 586.175 Q40.7375 593.368 37.682 596.583 Q34.6264 599.797 29.1837 599.797 Q22.8817 599.797 19.2532 595.373 Q15.6248 590.917 15.6248 583.119 Q15.6248 579.777 16.2295 576.308 Q16.8343 572.839 18.0438 569.21 Z" fill="#000000" fill-rule="nonzero" fill-opacity="1" /><path clip-path="url(#clip750)" d="M58.5933 554.633 L58.5933 544.129 L22.3406 544.129 L24.6323 555.556 L18.7758 555.556 L16.4842 544.193 L16.4842 537.764 L58.5933 537.764 L58.5933 527.26 L64.0042 527.26 L64.0042 554.633 L58.5933 554.633 Z" fill="#000000" fill-rule="nonzero" fill-opacity="1" /><path clip-path="url(#clip750)" d="M58.5933 513.16 L58.5933 502.657 L22.3406 502.657 L24.6323 514.083 L18.7758 514.083 L16.4842 502.72 L16.4842 496.291 L58.5933 496.291 L58.5933 485.788 L64.0042 485.788 L64.0042 513.16 L58.5933 513.16 Z" fill="#000000" fill-rule="nonzero" fill-opacity="1" /><path clip-path="url(#clip750)" d="M14.1925 466.086 L79.3773 466.086 L79.3773 471.497 L14.1925 471.497 L14.1925 466.086 Z" fill="#000000" fill-rule="nonzero" fill-opacity="1" /><polyline clip-path="url(#clip752)" style="stroke:#009af9; stroke-linecap:round; stroke-linejoin:round; stroke-width:4; stroke-opacity:1; fill:none" points="338.533,86.8521 340.49,86.8626 342.448,86.8732 344.405,86.884 346.363,86.8948 348.32,86.9058 350.278,86.917 352.235,86.9282 354.193,86.9396 356.15,86.9511 358.108,86.9627 360.065,86.9744 362.023,86.9863 363.98,86.9983 365.938,87.0104 367.895,87.0226 369.853,87.035 371.81,87.0475 373.768,87.0601 375.725,87.0729 377.683,87.0858 379.64,87.0988 381.598,87.112 383.555,87.1253 385.513,87.1388 387.47,87.1524 389.428,87.1661 391.386,87.1799 393.343,87.1939 395.301,87.2081 397.258,87.2224 399.216,87.2368 401.173,87.2514 403.131,87.2661 405.088,87.281 407.046,87.296 409.003,87.3111 410.961,87.3265 412.918,87.3419 414.876,87.3575 416.833,87.3733 418.791,87.3893 420.748,87.4053 422.706,87.4216 424.663,87.438 426.621,87.4545 428.578,87.4713 430.536,87.4881 432.493,87.5052 434.451,87.5224 436.408,87.5398 438.366,87.5573 440.323,87.575 442.281,87.5929 444.238,87.611 446.196,87.6292 448.153,87.6476 450.111,87.6662 452.068,87.6849 454.026,87.7039 455.983,87.723 457.941,87.7423 459.899,87.7617 461.856,87.7814 463.814,87.8012 465.771,87.8213 467.729,87.8415 469.686,87.8619 471.644,87.8825 473.601,87.9033 475.559,87.9243 477.516,87.9455 479.474,87.9668 481.431,87.9884 483.389,88.0102 485.346,88.0322 487.304,88.0544 489.261,88.0768 491.219,88.0994 493.176,88.1223 495.134,88.1453 497.091,88.1685 499.049,88.192 501.006,88.2157 502.964,88.2396 504.921,88.2637 506.879,88.2881 508.836,88.3127 510.794,88.3375 512.751,88.3625 514.709,88.3878 516.666,88.4133 518.624,88.439 520.581,88.465 522.539,88.4912 524.496,88.5177 526.454,88.5444 528.412,88.5713 530.369,88.5985 532.327,88.626 534.284,88.6537 536.242,88.6817 538.199,88.7099 540.157,88.7384 542.114,88.7672 544.072,88.7962 546.029,88.8255 547.987,88.855 549.944,88.8849 551.902,88.915 553.859,88.9454 555.817,88.9761 557.774,89.007 559.732,89.0383 561.689,89.0698 563.647,89.1017 565.604,89.1338 567.562,89.1663 569.519,89.199 571.477,89.232 573.434,89.2654 575.392,89.2991 577.349,89.333 579.307,89.3673 581.264,89.402 583.222,89.4369 585.179,89.4722 587.137,89.5078 589.094,89.5437 591.052,89.58 593.009,89.6166 594.967,89.6536 596.925,89.6909 598.882,89.7286 600.84,89.7666 602.797,89.805 604.755,89.8438 606.712,89.8829 608.67,89.9224 610.627,89.9622 612.585,90.0025 614.542,90.0431 616.5,90.0841 618.457,90.1256 620.415,90.1674 622.372,90.2096 624.33,90.2522 626.287,90.2952 628.245,90.3387 630.202,90.3825 632.16,90.4268 634.117,90.4715 636.075,90.5167 638.032,90.5622 639.99,90.6083 641.947,90.6547 643.905,90.7017 645.862,90.7491 647.82,90.7969 649.777,90.8452 651.735,90.894 653.692,90.9433 655.65,90.993 657.607,91.0433 659.565,91.094 661.522,91.1453 663.48,91.197 665.437,91.2493 667.395,91.3021 669.353,91.3554 671.31,91.4092 673.268,91.4636 675.225,91.5185 677.183,91.574 679.14,91.63 681.098,91.6866 683.055,91.7438 685.013,91.8016 686.97,91.8599 688.928,91.9188 690.885,91.9784 692.843,92.0385 694.8,92.0992 696.758,92.1606 698.715,92.2226 700.673,92.2853 702.63,92.3485 704.588,92.4125 706.545,92.4771 708.503,92.5424 710.46,92.6083 712.418,92.675 714.375,92.7423 716.333,92.8104 718.29,92.8791 720.248,92.9486 722.205,93.0188 724.163,93.0898 726.12,93.1615 728.078,93.234 730.035,93.3072 731.993,93.3812 733.95,93.4561 735.908,93.5317 737.866,93.6081 739.823,93.6854 741.781,93.7635 743.738,93.8425 745.696,93.9223 747.653,94.0029 749.611,94.0845 751.568,94.167 753.526,94.2503 755.483,94.3346 757.441,94.4198 759.398,94.506 761.356,94.5931 763.313,94.6812 765.271,94.7702 767.228,94.8603 769.186,94.9514 771.143,95.0435 773.101,95.1367 775.058,95.2309 777.016,95.3261 778.973,95.4225 780.931,95.52 782.888,95.6186 784.846,95.7183 786.803,95.8192 788.761,95.9212 790.718,96.0244 792.676,96.1289 794.633,96.2345 796.591,96.3414 798.548,96.4495 800.506,96.559 802.463,96.6697 804.421,96.7817 806.379,96.8951 808.336,97.0098 810.294,97.1259 812.251,97.2434 814.209,97.3623 816.166,97.4827 818.124,97.6045 820.081,97.7278 822.039,97.8526 823.996,97.9789 825.954,98.1068 827.911,98.2363 829.869,98.3674 831.826,98.5001 833.784,98.6345 835.741,98.7706 837.699,98.9083 839.656,99.0478 841.614,99.1891 843.571,99.3322 845.529,99.4771 847.486,99.6238 849.444,99.7725 851.401,99.9231 853.359,100.076 855.316,100.23 857.274,100.387 859.231,100.545 861.189,100.706 863.146,100.869 865.104,101.033 867.061,101.201 869.019,101.37 870.976,101.542 872.934,101.715 874.891,101.892 876.849,102.07 878.807,102.252 880.764,102.435 882.722,102.621 884.679,102.81 886.637,103.001 888.594,103.195 890.552,103.392 892.509,103.591 894.467,103.793 896.424,103.998 898.382,104.206 900.339,104.417 902.297,104.631 904.254,104.848 906.212,105.068 908.169,105.292 910.127,105.518 912.084,105.748 914.042,105.982 915.999,106.218 917.957,106.459 919.914,106.702 921.872,106.95 923.829,107.201 925.787,107.456 927.744,107.715 929.702,107.978 931.659,108.245 933.617,108.515 935.574,108.791 937.532,109.07 939.489,109.354 941.447,109.642 943.404,109.934 945.362,110.232 947.32,110.534 949.277,110.841 951.235,111.153 953.192,111.469 955.15,111.791 957.107,112.119 959.065,112.451 961.022,112.789 962.98,113.133 964.937,113.482 966.895,113.837 968.852,114.199 970.81,114.566 972.767,114.939 974.725,115.319 976.682,115.705 978.64,116.098 980.597,116.498 982.555,116.905 984.512,117.319 986.47,117.74 988.427,118.169 990.385,118.605 992.342,119.049 994.3,119.501 996.257,119.962 998.215,120.43 1000.17,120.907 1002.13,121.393 1004.09,121.888 1006.04,122.393 1008,122.906 1009.96,123.43 1011.92,123.963 1013.87,124.506 1015.83,125.06 1017.79,125.625 1019.75,126.2 1021.71,126.787 1023.66,127.385 1025.62,127.995 1027.58,128.617 1029.54,129.252 1031.49,129.899 1033.45,130.559 1035.41,131.233 1037.37,131.921 1039.32,132.623 1041.28,133.339 1043.24,134.071 1045.2,134.817 1047.15,135.58 1049.11,136.359 1051.07,137.154 1053.03,137.967 1054.98,138.797 1056.94,139.646 1058.9,140.513 1060.86,141.399 1062.81,142.305 1064.77,143.232 1066.73,144.179 1068.69,145.148 1070.64,146.14 1072.6,147.154 1074.56,148.191 1076.52,149.253 1078.47,150.34 1080.43,151.453 1082.39,152.593 1084.35,153.76 1086.3,154.955 1088.26,156.179 1090.22,157.434 1092.18,158.72 1094.13,160.038 1096.09,161.389 1098.05,162.774 1100.01,164.195 1101.96,165.653 1103.92,167.148 1105.88,168.682 1107.84,170.257 1109.79,171.874 1111.75,173.534 1113.71,175.239 1115.67,176.99 1117.62,178.789 1119.58,180.638 1121.54,182.539 1123.5,184.493 1125.45,186.502 1127.41,188.569 1129.37,190.695 1131.33,192.883 1133.28,195.134 1135.24,197.453 1137.2,199.84 1139.16,202.299 1141.11,204.833 1143.07,207.444 1145.03,210.135 1146.99,212.91 1148.94,215.771 1150.9,218.723 1152.86,221.77 1154.82,224.914 1156.77,228.16 1158.73,231.512 1160.69,234.974 1162.65,238.552 1164.6,242.25 1166.56,246.074 1168.52,250.028 1170.48,254.118 1172.43,258.35 1174.39,262.731 1176.35,267.267 1178.31,271.964 1180.26,276.831 1182.22,281.874 1184.18,287.102 1186.14,292.523 1188.09,298.146 1190.05,303.98 1192.01,310.035 1193.97,316.321 1195.92,322.849 1197.88,329.63 1199.84,336.677 1201.8,344.001 1203.75,351.615 1205.71,359.534 1207.67,367.772 1209.63,376.344 1211.58,385.265 1213.54,394.553 1215.5,404.224 1217.46,414.296 1219.41,424.789 1221.37,435.721 1223.33,447.113 1225.29,458.986 1227.24,471.361 1229.2,484.261 1231.16,497.708 1233.12,511.726 1235.07,526.338 1237.03,541.568 1238.99,557.441 1240.95,573.978 1242.9,591.205 1244.86,609.144 1246.82,627.815 1248.78,647.238 1250.73,667.432 1252.69,688.412 1254.65,710.188 1256.61,732.769 1258.56,756.156 1260.52,780.347 1262.48,805.33 1264.44,831.085 1266.39,857.585 1268.35,884.789 1270.31,912.643 1272.27,941.082 1274.22,970.024 1276.18,999.368 1278.14,1029 1280.1,1058.78 1282.05,1088.55 1284.01,1118.14 1285.97,1147.34 1287.93,1175.96 1289.88,1203.75 1291.84,1230.47 1293.8,1255.86 1295.76,1279.66 1297.71,1301.61 1299.67,1321.45 1301.63,1338.95 1303.59,1353.86 1305.54,1365.99 1307.5,1375.18 1309.46,1381.29 1311.42,1384.24 1313.37,1383.98 1315.33,1380.53 1317.29,1373.93 1319.25,1364.28 1321.2,1351.72 1323.16,1336.42 1325.12,1318.6 1327.08,1298.48 1329.03,1276.31 1330.99,1252.34 1332.95,1226.85 1334.91,1200.08 1336.86,1172.3 1338.82,1143.74 1340.78,1114.62 1342.74,1085.17 1344.69,1055.57 1346.65,1025.99 1348.61,996.587 1350.57,967.484 1352.52,938.799 1354.48,910.625 1356.44,883.042 1358.4,856.113 1360.35,829.888 1362.31,804.405 1364.27,779.689 1366.23,755.76 1368.19,732.626 1370.14,710.291 1372.1,688.75 1374.06,667.996 1376.02,648.017 1377.97,628.797 1379.93,610.319 1381.89,592.564 1383.85,575.509 1385.8,559.132 1387.76,543.411 1389.72,528.322 1391.68,513.842 1393.63,499.947 1395.59,486.614 1397.55,473.819 1399.51,461.542 1401.46,449.759 1403.42,438.45 1405.38,427.594 1407.34,417.171 1409.29,407.162 1411.25,397.549 1413.21,388.314 1415.17,379.44 1417.12,370.912 1419.08,362.712 1421.04,354.828 1423,347.243 1424.95,339.946 1426.91,332.923 1428.87,326.163 1430.83,319.652 1432.78,313.38 1434.74,307.337 1436.7,301.513 1438.66,295.897 1440.61,290.482 1442.57,285.257 1444.53,280.215 1446.49,275.349 1448.44,270.649 1450.4,266.111 1452.36,261.725 1454.32,257.487 1456.27,253.39 1458.23,249.428 1460.19,245.596 1462.15,241.888 1464.1,238.3 1466.06,234.825 1468.02,231.461 1469.98,228.202 1471.93,225.045 1473.89,221.985 1475.85,219.018 1477.81,216.141 1479.76,213.351 1481.72,210.644 1483.68,208.017 1485.64,205.467 1487.59,202.991 1489.55,200.587 1491.51,198.251 1493.47,195.982 1495.42,193.776 1497.38,191.632 1499.34,189.548 1501.3,187.52 1503.25,185.548 1505.21,183.629 1507.17,181.762 1509.13,179.944 1511.08,178.175 1513.04,176.451 1515,174.773 1516.96,173.137 1518.91,171.544 1520.87,169.991 1522.83,168.477 1524.79,167.001 1526.74,165.562 1528.7,164.158 1530.66,162.789 1532.62,161.452 1534.57,160.148 1536.53,158.875 1538.49,157.633 1540.45,156.419 1542.4,155.234 1544.36,154.077 1546.32,152.946 1548.28,151.841 1550.23,150.762 1552.19,149.706 1554.15,148.675 1556.11,147.666 1558.06,146.68 1560.02,145.715 1561.98,144.771 1563.94,143.848 1565.89,142.945 1567.85,142.061 1569.81,141.196 1571.77,140.349 1573.72,139.52 1575.68,138.708 1577.64,137.913 1579.6,137.134 1581.55,136.371 1583.51,135.624 1585.47,134.891 1587.43,134.174 1589.38,133.47 1591.34,132.781 1593.3,132.105 1595.26,131.442 1597.21,130.792 1599.17,130.155 1601.13,129.53 1603.09,128.917 1605.04,128.315 1607,127.725 1608.96,127.146 1610.92,126.578 1612.87,126.02 1614.83,125.472 1616.79,124.934 1618.75,124.407 1620.7,123.888 1622.66,123.379 1624.62,122.879 1626.58,122.388 1628.53,121.906 1630.49,121.432 1632.45,120.967 1634.41,120.509 1636.36,120.06 1638.32,119.618 1640.28,119.183 1642.24,118.756 1644.19,118.337 1646.15,117.924 1648.11,117.518 1650.07,117.119 1652.02,116.727 1653.98,116.341 1655.94,115.961 1657.9,115.587 1659.85,115.22 1661.81,114.858 1663.77,114.503 1665.73,114.152 1667.68,113.808 1669.64,113.469 1671.6,113.135 1673.56,112.806 1675.51,112.483 1677.47,112.164 1679.43,111.851 1681.39,111.542 1683.34,111.238 1685.3,110.938 1687.26,110.643 1689.22,110.353 1691.17,110.067 1693.13,109.785 1695.09,109.507 1697.05,109.233 1699,108.964 1700.96,108.698 1702.92,108.436 1704.88,108.178 1706.83,107.923 1708.79,107.673 1710.75,107.425 1712.71,107.182 1714.67,106.941 1716.62,106.705 1718.58,106.471 1720.54,106.241 1722.5,106.013 1724.45,105.789 1726.41,105.569 1728.37,105.351 1730.33,105.136 1732.28,104.924 1734.24,104.714 1736.2,104.508 1738.16,104.304 1740.11,104.104 1742.07,103.905 1744.03,103.71 1745.99,103.517 1747.94,103.326 1749.9,103.138 1751.86,102.952 1753.82,102.769 1755.77,102.588 1757.73,102.41 1759.69,102.234 1761.65,102.06 1763.6,101.888 1765.56,101.718 1767.52,101.551 1769.48,101.385 1771.43,101.222 1773.39,101.06 1775.35,100.901 1777.31,100.744 1779.26,100.588 1781.22,100.435 1783.18,100.283 1785.14,100.133 1787.09,99.9849 1789.05,99.8386 1791.01,99.6941 1792.97,99.5512 1794.92,99.4101 1796.88,99.2707 1798.84,99.1328 1800.8,98.9966 1802.75,98.862 1804.71,98.729 1806.67,98.5975 1808.63,98.4675 1810.58,98.339 1812.54,98.212 1814.5,98.0865 1816.46,97.9623 1818.41,97.8396 1820.37,97.7183 1822.33,97.5983 1824.29,97.4797 1826.24,97.3624 1828.2,97.2464 1830.16,97.1317 1832.12,97.0183 1834.07,96.9061 1836.03,96.7951 1837.99,96.6854 1839.95,96.5768 1841.9,96.4695 1843.86,96.3633 1845.82,96.2582 1847.78,96.1543 1849.73,96.0515 1851.69,95.9497 1853.65,95.8491 1855.61,95.7495 1857.56,95.651 1859.52,95.5535 1861.48,95.4571 1863.44,95.3616 1865.39,95.2672 1867.35,95.1737 1869.31,95.0812 1871.27,94.9897 1873.22,94.8991 1875.18,94.8094 1877.14,94.7206 1879.1,94.6328 1881.05,94.5458 1883.01,94.4597 1884.97,94.3745 1886.93,94.2901 1888.88,94.2066 1890.84,94.1239 1892.8,94.0421 1894.76,93.961 1896.71,93.8808 1898.67,93.8013 1900.63,93.7227 1902.59,93.6448 1904.54,93.5676 1906.5,93.4912 1908.46,93.4156 1910.42,93.3407 1912.37,93.2665 1914.33,93.193 1916.29,93.1202 1918.25,93.0482 1920.2,92.9768 1922.16,92.9061 1924.12,92.836 1926.08,92.7667 1928.03,92.6979 1929.99,92.6299 1931.95,92.5624 1933.91,92.4956 1935.86,92.4294 1937.82,92.3638 1939.78,92.2989 1941.74,92.2345 1943.69,92.1707 1945.65,92.1075 1947.61,92.0449 1949.57,91.9829 1951.52,91.9214 1953.48,91.8605 1955.44,91.8001 1957.4,91.7403 1959.35,91.681 1961.31,91.6223 1963.27,91.5641 1965.23,91.5064 1967.18,91.4492 1969.14,91.3925 1971.1,91.3363 1973.06,91.2806 1975.01,91.2254 1976.97,91.1707 1978.93,91.1165 1980.89,91.0627 1982.84,91.0094 1984.8,90.9566 1986.76,90.9042 1988.72,90.8523 1990.67,90.8008 1992.63,90.7498 1994.59,90.6992 1996.55,90.649 1998.5,90.5993 2000.46,90.55 2002.42,90.5011 2004.38,90.4526 2006.33,90.4045 2008.29,90.3569 2010.25,90.3096 2012.21,90.2627 2014.16,90.2163 2016.12,90.1702 2018.08,90.1245 2020.04,90.0791 2021.99,90.0342 2023.95,89.9896 2025.91,89.9454 2027.87,89.9015 2029.82,89.858 2031.78,89.8149 2033.74,89.7721 2035.7,89.7297 2037.65,89.6876 2039.61,89.6458 2041.57,89.6044 2043.53,89.5633 2045.48,89.5226 2047.44,89.4821 2049.4,89.442 2051.36,89.4022 2053.31,89.3628 2055.27,89.3236 2057.23,89.2848 2059.19,89.2462 2061.15,89.208 2063.1,89.1701 2065.06,89.1324 2067.02,89.0951 2068.98,89.058 2070.93,89.0213 2072.89,88.9848 2074.85,88.9486 2076.81,88.9127 2078.76,88.8771 2080.72,88.8417 2082.68,88.8066 2084.64,88.7718 2086.59,88.7373 2088.55,88.703 2090.51,88.669 2092.47,88.6352 2094.42,88.6017 2096.38,88.5684 2098.34,88.5354 2100.3,88.5027 2102.25,88.4702 2104.21,88.4379 2106.17,88.4059 2108.13,88.3741 2110.08,88.3425 2112.04,88.3112 2114,88.2802 2115.96,88.2493 2117.91,88.2187 2119.87,88.1883 2121.83,88.1581 2123.79,88.1282 2125.74,88.0985 2127.7,88.069 2129.66,88.0397 2131.62,88.0106 2133.57,87.9817 2135.53,87.9531 2137.49,87.9246 2139.45,87.8964 2141.4,87.8683 2143.36,87.8405 2145.32,87.8129 2147.28,87.7854 2149.23,87.7582 2151.19,87.7312 2153.15,87.7043 2155.11,87.6777 2157.06,87.6512 2159.02,87.6249 2160.98,87.5988 2162.94,87.5729 2164.89,87.5472 2166.85,87.5216 2168.81,87.4963 2170.77,87.4711 2172.72,87.4461 2174.68,87.4212 2176.64,87.3966 2178.6,87.3721 2180.55,87.3478 2182.51,87.3236 2184.47,87.2997 2186.43,87.2758 2188.38,87.2522 2190.34,87.2287 2192.3,87.2054 2194.26,87.1822 2196.21,87.1592 2198.17,87.1364 2200.13,87.1137 2202.09,87.0912 2204.04,87.0688 2206,87.0465 2207.96,87.0245 2209.92,87.0025 2211.87,86.9808 2213.83,86.9591 2215.79,86.9377 2217.75,86.9163 2219.7,86.8951 2221.66,86.8741 2223.62,86.8532 2225.58,86.8324 2227.53,86.8118 2229.49,86.7913 2231.45,86.7709 2233.41,86.7507 2235.36,86.7306 2237.32,86.7107 2239.28,86.6909 2241.24,86.6712 2243.19,86.6516 2245.15,86.6322 2247.11,86.6129 2249.07,86.5937 2251.02,86.5747 2252.98,86.5558 2254.94,86.537 2256.9,86.5183 2258.85,86.4997 2260.81,86.4813 2262.77,86.463 2264.73,86.4448 2266.68,86.4267 2268.64,86.4088 2270.6,86.3909 2272.56,86.3732 2274.51,86.3556 2276.47,86.3381 2278.43,86.3207 2280.39,86.3035 2282.34,86.2863 2284.3,86.2693 2286.26,86.2523 2288.22,86.2355 2290.17,86.2188 2292.13,86.2022 2294.09,86.1857 "/>
<polyline clip-path="url(#clip752)" style="stroke:#ff0000; stroke-linecap:round; stroke-linejoin:round; stroke-width:4; stroke-opacity:1; fill:none" points="1267.42,2799.12 1267.42,-1328.69 "/>
<polyline clip-path="url(#clip752)" style="stroke:#ff0000; stroke-linecap:round; stroke-linejoin:round; stroke-width:4; stroke-opacity:1; fill:none" points="1365.2,2799.12 1365.2,-1328.69 "/>
</svg>
