<?xml version="1.0" encoding="utf-8"?>
<svg xmlns="http://www.w3.org/2000/svg" xmlns:xlink="http://www.w3.org/1999/xlink" width="600" height="400" viewBox="0 0 2400 1600">
<defs>
  <clipPath id="clip570">
    <rect x="0" y="0" width="2400" height="1600"/>
  </clipPath>
</defs>
<path clip-path="url(#clip570)" d="M0 1600 L2400 1600 L2400 0 L0 0  Z" fill="#ffffff" fill-rule="evenodd" fill-opacity="1"/>
<defs>
  <clipPath id="clip571">
    <rect x="480" y="0" width="1681" height="1600"/>
  </clipPath>
</defs>
<path clip-path="url(#clip570)" d="M247.459 1423.18 L2352.76 1423.18 L2352.76 123.472 L247.459 123.472  Z" fill="#ffffff" fill-rule="evenodd" fill-opacity="1"/>
<defs>
  <clipPath id="clip572">
    <rect x="247" y="123" width="2106" height="1301"/>
  </clipPath>
</defs>
<polyline clip-path="url(#clip572)" style="stroke:#000000; stroke-linecap:round; stroke-linejoin:round; stroke-width:2; stroke-opacity:0.1; fill:none" points="287.181,1423.18 287.181,123.472 "/>
<polyline clip-path="url(#clip572)" style="stroke:#000000; stroke-linecap:round; stroke-linejoin:round; stroke-width:2; stroke-opacity:0.1; fill:none" points="783.714,1423.18 783.714,123.472 "/>
<polyline clip-path="url(#clip572)" style="stroke:#000000; stroke-linecap:round; stroke-linejoin:round; stroke-width:2; stroke-opacity:0.1; fill:none" points="1280.25,1423.18 1280.25,123.472 "/>
<polyline clip-path="url(#clip572)" style="stroke:#000000; stroke-linecap:round; stroke-linejoin:round; stroke-width:2; stroke-opacity:0.1; fill:none" points="1776.78,1423.18 1776.78,123.472 "/>
<polyline clip-path="url(#clip572)" style="stroke:#000000; stroke-linecap:round; stroke-linejoin:round; stroke-width:2; stroke-opacity:0.1; fill:none" points="2273.31,1423.18 2273.31,123.472 "/>
<polyline clip-path="url(#clip572)" style="stroke:#000000; stroke-linecap:round; stroke-linejoin:round; stroke-width:2; stroke-opacity:0.1; fill:none" points="247.459,1182.66 2352.76,1182.66 "/>
<polyline clip-path="url(#clip572)" style="stroke:#000000; stroke-linecap:round; stroke-linejoin:round; stroke-width:2; stroke-opacity:0.1; fill:none" points="247.459,912.993 2352.76,912.993 "/>
<polyline clip-path="url(#clip572)" style="stroke:#000000; stroke-linecap:round; stroke-linejoin:round; stroke-width:2; stroke-opacity:0.1; fill:none" points="247.459,643.326 2352.76,643.326 "/>
<polyline clip-path="url(#clip572)" style="stroke:#000000; stroke-linecap:round; stroke-linejoin:round; stroke-width:2; stroke-opacity:0.1; fill:none" points="247.459,373.658 2352.76,373.658 "/>
<polyline clip-path="url(#clip570)" style="stroke:#000000; stroke-linecap:round; stroke-linejoin:round; stroke-width:4; stroke-opacity:1; fill:none" points="247.459,1423.18 2352.76,1423.18 "/>
<polyline clip-path="url(#clip570)" style="stroke:#000000; stroke-linecap:round; stroke-linejoin:round; stroke-width:4; stroke-opacity:1; fill:none" points="287.181,1423.18 287.181,1404.28 "/>
<polyline clip-path="url(#clip570)" style="stroke:#000000; stroke-linecap:round; stroke-linejoin:round; stroke-width:4; stroke-opacity:1; fill:none" points="783.714,1423.18 783.714,1404.28 "/>
<polyline clip-path="url(#clip570)" style="stroke:#000000; stroke-linecap:round; stroke-linejoin:round; stroke-width:4; stroke-opacity:1; fill:none" points="1280.25,1423.18 1280.25,1404.28 "/>
<polyline clip-path="url(#clip570)" style="stroke:#000000; stroke-linecap:round; stroke-linejoin:round; stroke-width:4; stroke-opacity:1; fill:none" points="1776.78,1423.18 1776.78,1404.28 "/>
<polyline clip-path="url(#clip570)" style="stroke:#000000; stroke-linecap:round; stroke-linejoin:round; stroke-width:4; stroke-opacity:1; fill:none" points="2273.31,1423.18 2273.31,1404.28 "/>
<path clip-path="url(#clip570)" d="M287.181 1454.1 Q283.57 1454.1 281.742 1457.66 Q279.936 1461.2 279.936 1468.33 Q279.936 1475.44 281.742 1479.01 Q283.57 1482.55 287.181 1482.55 Q290.816 1482.55 292.621 1479.01 Q294.45 1475.44 294.45 1468.33 Q294.45 1461.2 292.621 1457.66 Q290.816 1454.1 287.181 1454.1 M287.181 1450.39 Q292.991 1450.39 296.047 1455 Q299.126 1459.58 299.126 1468.33 Q299.126 1477.06 296.047 1481.67 Q292.991 1486.25 287.181 1486.25 Q281.371 1486.25 278.292 1481.67 Q275.237 1477.06 275.237 1468.33 Q275.237 1459.58 278.292 1455 Q281.371 1450.39 287.181 1450.39 Z" fill="#000000" fill-rule="nonzero" fill-opacity="1" /><path clip-path="url(#clip570)" d="M762.985 1481.64 L779.304 1481.64 L779.304 1485.58 L757.36 1485.58 L757.36 1481.64 Q760.022 1478.89 764.605 1474.26 Q769.211 1469.61 770.392 1468.27 Q772.637 1465.74 773.517 1464.01 Q774.42 1462.25 774.42 1460.56 Q774.42 1457.8 772.475 1456.07 Q770.554 1454.33 767.452 1454.33 Q765.253 1454.33 762.799 1455.09 Q760.369 1455.86 757.591 1457.41 L757.591 1452.69 Q760.415 1451.55 762.869 1450.97 Q765.323 1450.39 767.36 1450.39 Q772.73 1450.39 775.924 1453.08 Q779.119 1455.77 779.119 1460.26 Q779.119 1462.39 778.309 1464.31 Q777.522 1466.2 775.415 1468.8 Q774.836 1469.47 771.735 1472.69 Q768.633 1475.88 762.985 1481.64 Z" fill="#000000" fill-rule="nonzero" fill-opacity="1" /><path clip-path="url(#clip570)" d="M789.165 1451.02 L807.521 1451.02 L807.521 1454.96 L793.447 1454.96 L793.447 1463.43 Q794.466 1463.08 795.484 1462.92 Q796.503 1462.73 797.521 1462.73 Q803.308 1462.73 806.688 1465.9 Q810.068 1469.08 810.068 1474.49 Q810.068 1480.07 806.595 1483.17 Q803.123 1486.25 796.804 1486.25 Q794.628 1486.25 792.359 1485.88 Q790.114 1485.51 787.707 1484.77 L787.707 1480.07 Q789.79 1481.2 792.012 1481.76 Q794.234 1482.32 796.711 1482.32 Q800.716 1482.32 803.054 1480.21 Q805.392 1478.1 805.392 1474.49 Q805.392 1470.88 803.054 1468.77 Q800.716 1466.67 796.711 1466.67 Q794.836 1466.67 792.961 1467.08 Q791.109 1467.5 789.165 1468.38 L789.165 1451.02 Z" fill="#000000" fill-rule="nonzero" fill-opacity="1" /><path clip-path="url(#clip570)" d="M1254.95 1451.02 L1273.3 1451.02 L1273.3 1454.96 L1259.23 1454.96 L1259.23 1463.43 Q1260.25 1463.08 1261.26 1462.92 Q1262.28 1462.73 1263.3 1462.73 Q1269.09 1462.73 1272.47 1465.9 Q1275.85 1469.08 1275.85 1474.49 Q1275.85 1480.07 1272.38 1483.17 Q1268.9 1486.25 1262.58 1486.25 Q1260.41 1486.25 1258.14 1485.88 Q1255.89 1485.51 1253.49 1484.77 L1253.49 1480.07 Q1255.57 1481.2 1257.79 1481.76 Q1260.01 1482.32 1262.49 1482.32 Q1266.5 1482.32 1268.83 1480.21 Q1271.17 1478.1 1271.17 1474.49 Q1271.17 1470.88 1268.83 1468.77 Q1266.5 1466.67 1262.49 1466.67 Q1260.62 1466.67 1258.74 1467.08 Q1256.89 1467.5 1254.95 1468.38 L1254.95 1451.02 Z" fill="#000000" fill-rule="nonzero" fill-opacity="1" /><path clip-path="url(#clip570)" d="M1295.06 1454.1 Q1291.45 1454.1 1289.62 1457.66 Q1287.82 1461.2 1287.82 1468.33 Q1287.82 1475.44 1289.62 1479.01 Q1291.45 1482.55 1295.06 1482.55 Q1298.69 1482.55 1300.5 1479.01 Q1302.33 1475.44 1302.33 1468.33 Q1302.33 1461.2 1300.5 1457.66 Q1298.69 1454.1 1295.06 1454.1 M1295.06 1450.39 Q1300.87 1450.39 1303.93 1455 Q1307.01 1459.58 1307.01 1468.33 Q1307.01 1477.06 1303.93 1481.67 Q1300.87 1486.25 1295.06 1486.25 Q1289.25 1486.25 1286.17 1481.67 Q1283.12 1477.06 1283.12 1468.33 Q1283.12 1459.58 1286.17 1455 Q1289.25 1450.39 1295.06 1450.39 Z" fill="#000000" fill-rule="nonzero" fill-opacity="1" /><path clip-path="url(#clip570)" d="M1750.63 1451.02 L1772.85 1451.02 L1772.85 1453.01 L1760.31 1485.58 L1755.42 1485.58 L1767.23 1454.96 L1750.63 1454.96 L1750.63 1451.02 Z" fill="#000000" fill-rule="nonzero" fill-opacity="1" /><path clip-path="url(#clip570)" d="M1782.02 1451.02 L1800.38 1451.02 L1800.38 1454.96 L1786.3 1454.96 L1786.3 1463.43 Q1787.32 1463.08 1788.34 1462.92 Q1789.36 1462.73 1790.38 1462.73 Q1796.16 1462.73 1799.54 1465.9 Q1802.92 1469.08 1802.92 1474.49 Q1802.92 1480.07 1799.45 1483.17 Q1795.98 1486.25 1789.66 1486.25 Q1787.48 1486.25 1785.22 1485.88 Q1782.97 1485.51 1780.56 1484.77 L1780.56 1480.07 Q1782.65 1481.2 1784.87 1481.76 Q1787.09 1482.32 1789.57 1482.32 Q1793.57 1482.32 1795.91 1480.21 Q1798.25 1478.1 1798.25 1474.49 Q1798.25 1470.88 1795.91 1468.77 Q1793.57 1466.67 1789.57 1466.67 Q1787.69 1466.67 1785.82 1467.08 Q1783.97 1467.5 1782.02 1468.38 L1782.02 1451.02 Z" fill="#000000" fill-rule="nonzero" fill-opacity="1" /><path clip-path="url(#clip570)" d="M2232.92 1481.64 L2240.56 1481.64 L2240.56 1455.28 L2232.25 1456.95 L2232.25 1452.69 L2240.51 1451.02 L2245.19 1451.02 L2245.19 1481.64 L2252.82 1481.64 L2252.82 1485.58 L2232.92 1485.58 L2232.92 1481.64 Z" fill="#000000" fill-rule="nonzero" fill-opacity="1" /><path clip-path="url(#clip570)" d="M2272.27 1454.1 Q2268.66 1454.1 2266.83 1457.66 Q2265.02 1461.2 2265.02 1468.33 Q2265.02 1475.44 2266.83 1479.01 Q2268.66 1482.55 2272.27 1482.55 Q2275.9 1482.55 2277.71 1479.01 Q2279.54 1475.44 2279.54 1468.33 Q2279.54 1461.2 2277.71 1457.66 Q2275.9 1454.1 2272.27 1454.1 M2272.27 1450.39 Q2278.08 1450.39 2281.13 1455 Q2284.21 1459.58 2284.21 1468.33 Q2284.21 1477.06 2281.13 1481.67 Q2278.08 1486.25 2272.27 1486.25 Q2266.46 1486.25 2263.38 1481.67 Q2260.32 1477.06 2260.32 1468.33 Q2260.32 1459.58 2263.38 1455 Q2266.46 1450.39 2272.27 1450.39 Z" fill="#000000" fill-rule="nonzero" fill-opacity="1" /><path clip-path="url(#clip570)" d="M2302.43 1454.1 Q2298.82 1454.1 2296.99 1457.66 Q2295.19 1461.2 2295.19 1468.33 Q2295.19 1475.44 2296.99 1479.01 Q2298.82 1482.55 2302.43 1482.55 Q2306.07 1482.55 2307.87 1479.01 Q2309.7 1475.44 2309.7 1468.33 Q2309.7 1461.2 2307.87 1457.66 Q2306.07 1454.1 2302.43 1454.1 M2302.43 1450.39 Q2308.24 1450.39 2311.3 1455 Q2314.38 1459.58 2314.38 1468.33 Q2314.38 1477.06 2311.3 1481.67 Q2308.24 1486.25 2302.43 1486.25 Q2296.62 1486.25 2293.54 1481.67 Q2290.49 1477.06 2290.49 1468.33 Q2290.49 1459.58 2293.54 1455 Q2296.62 1450.39 2302.43 1450.39 Z" fill="#000000" fill-rule="nonzero" fill-opacity="1" /><path clip-path="url(#clip570)" d="M1167.83 1520.52 L1174.26 1520.52 L1174.26 1568.04 L1167.83 1568.04 L1167.83 1520.52 Z" fill="#000000" fill-rule="nonzero" fill-opacity="1" /><path clip-path="url(#clip570)" d="M1192.59 1522.27 L1192.59 1532.4 L1204.65 1532.4 L1204.65 1536.95 L1192.59 1536.95 L1192.59 1556.3 Q1192.59 1560.66 1193.77 1561.9 Q1194.98 1563.14 1198.64 1563.14 L1204.65 1563.14 L1204.65 1568.04 L1198.64 1568.04 Q1191.86 1568.04 1189.28 1565.53 Q1186.7 1562.98 1186.7 1556.3 L1186.7 1536.95 L1182.41 1536.95 L1182.41 1532.4 L1186.7 1532.4 L1186.7 1522.27 L1192.59 1522.27 Z" fill="#000000" fill-rule="nonzero" fill-opacity="1" /><path clip-path="url(#clip570)" d="M1242.85 1548.76 L1242.85 1551.62 L1215.92 1551.62 Q1216.3 1557.67 1219.55 1560.85 Q1222.83 1564 1228.65 1564 Q1232.03 1564 1235.18 1563.17 Q1238.36 1562.35 1241.48 1560.69 L1241.48 1566.23 Q1238.33 1567.57 1235.02 1568.27 Q1231.71 1568.97 1228.3 1568.97 Q1219.77 1568.97 1214.78 1564 Q1209.81 1559.04 1209.81 1550.57 Q1209.81 1541.82 1214.52 1536.69 Q1219.26 1531.54 1227.28 1531.54 Q1234.48 1531.54 1238.65 1536.18 Q1242.85 1540.8 1242.85 1548.76 M1236.99 1547.04 Q1236.93 1542.23 1234.29 1539.37 Q1231.68 1536.5 1227.35 1536.5 Q1222.45 1536.5 1219.49 1539.27 Q1216.56 1542.04 1216.11 1547.07 L1236.99 1547.04 Z" fill="#000000" fill-rule="nonzero" fill-opacity="1" /><path clip-path="url(#clip570)" d="M1273.12 1537.87 Q1272.13 1537.3 1270.95 1537.04 Q1269.81 1536.76 1268.41 1536.76 Q1263.44 1536.76 1260.77 1540 Q1258.13 1543.22 1258.13 1549.27 L1258.13 1568.04 L1252.24 1568.04 L1252.24 1532.4 L1258.13 1532.4 L1258.13 1537.93 Q1259.97 1534.69 1262.93 1533.13 Q1265.89 1531.54 1270.12 1531.54 Q1270.73 1531.54 1271.46 1531.63 Q1272.19 1531.7 1273.08 1531.85 L1273.12 1537.87 Z" fill="#000000" fill-rule="nonzero" fill-opacity="1" /><path clip-path="url(#clip570)" d="M1295.46 1550.12 Q1288.36 1550.12 1285.63 1551.75 Q1282.89 1553.37 1282.89 1557.29 Q1282.89 1560.4 1284.93 1562.25 Q1286.99 1564.07 1290.53 1564.07 Q1295.4 1564.07 1298.32 1560.63 Q1301.28 1557.16 1301.28 1551.43 L1301.28 1550.12 L1295.46 1550.12 M1307.14 1547.71 L1307.14 1568.04 L1301.28 1568.04 L1301.28 1562.63 Q1299.28 1565.88 1296.29 1567.44 Q1293.3 1568.97 1288.97 1568.97 Q1283.49 1568.97 1280.25 1565.91 Q1277.03 1562.82 1277.03 1557.67 Q1277.03 1551.65 1281.04 1548.6 Q1285.08 1545.54 1293.07 1545.54 L1301.28 1545.54 L1301.28 1544.97 Q1301.28 1540.93 1298.61 1538.73 Q1295.97 1536.5 1291.16 1536.5 Q1288.11 1536.5 1285.21 1537.23 Q1282.32 1537.97 1279.64 1539.43 L1279.64 1534.02 Q1282.86 1532.78 1285.88 1532.17 Q1288.9 1531.54 1291.77 1531.54 Q1299.5 1531.54 1303.32 1535.55 Q1307.14 1539.56 1307.14 1547.71 Z" fill="#000000" fill-rule="nonzero" fill-opacity="1" /><path clip-path="url(#clip570)" d="M1325 1522.27 L1325 1532.4 L1337.06 1532.4 L1337.06 1536.95 L1325 1536.95 L1325 1556.3 Q1325 1560.66 1326.17 1561.9 Q1327.38 1563.14 1331.04 1563.14 L1337.06 1563.14 L1337.06 1568.04 L1331.04 1568.04 Q1324.27 1568.04 1321.69 1565.53 Q1319.11 1562.98 1319.11 1556.3 L1319.11 1536.95 L1314.81 1536.95 L1314.81 1532.4 L1319.11 1532.4 L1319.11 1522.27 L1325 1522.27 Z" fill="#000000" fill-rule="nonzero" fill-opacity="1" /><path clip-path="url(#clip570)" d="M1344.76 1532.4 L1350.62 1532.4 L1350.62 1568.04 L1344.76 1568.04 L1344.76 1532.4 M1344.76 1518.52 L1350.62 1518.52 L1350.62 1525.93 L1344.76 1525.93 L1344.76 1518.52 Z" fill="#000000" fill-rule="nonzero" fill-opacity="1" /><path clip-path="url(#clip570)" d="M1376.69 1536.5 Q1371.98 1536.5 1369.24 1540.19 Q1366.5 1543.85 1366.5 1550.25 Q1366.5 1556.65 1369.21 1560.34 Q1371.94 1564 1376.69 1564 Q1381.37 1564 1384.1 1560.31 Q1386.84 1556.62 1386.84 1550.25 Q1386.84 1543.92 1384.1 1540.23 Q1381.37 1536.5 1376.69 1536.5 M1376.69 1531.54 Q1384.33 1531.54 1388.69 1536.5 Q1393.05 1541.47 1393.05 1550.25 Q1393.05 1559 1388.69 1564 Q1384.33 1568.97 1376.69 1568.97 Q1369.02 1568.97 1364.66 1564 Q1360.33 1559 1360.33 1550.25 Q1360.33 1541.47 1364.66 1536.5 Q1369.02 1531.54 1376.69 1531.54 Z" fill="#000000" fill-rule="nonzero" fill-opacity="1" /><path clip-path="url(#clip570)" d="M1432.39 1546.53 L1432.39 1568.04 L1426.53 1568.04 L1426.53 1546.72 Q1426.53 1541.66 1424.56 1539.14 Q1422.58 1536.63 1418.64 1536.63 Q1413.89 1536.63 1411.16 1539.65 Q1408.42 1542.68 1408.42 1547.9 L1408.42 1568.04 L1402.53 1568.04 L1402.53 1532.4 L1408.42 1532.4 L1408.42 1537.93 Q1410.52 1534.72 1413.35 1533.13 Q1416.22 1531.54 1419.94 1531.54 Q1426.08 1531.54 1429.24 1535.36 Q1432.39 1539.14 1432.39 1546.53 Z" fill="#000000" fill-rule="nonzero" fill-opacity="1" /><polyline clip-path="url(#clip570)" style="stroke:#000000; stroke-linecap:round; stroke-linejoin:round; stroke-width:4; stroke-opacity:1; fill:none" points="247.459,1423.18 247.459,123.472 "/>
<polyline clip-path="url(#clip570)" style="stroke:#000000; stroke-linecap:round; stroke-linejoin:round; stroke-width:4; stroke-opacity:1; fill:none" points="247.459,1182.66 266.356,1182.66 "/>
<polyline clip-path="url(#clip570)" style="stroke:#000000; stroke-linecap:round; stroke-linejoin:round; stroke-width:4; stroke-opacity:1; fill:none" points="247.459,912.993 266.356,912.993 "/>
<polyline clip-path="url(#clip570)" style="stroke:#000000; stroke-linecap:round; stroke-linejoin:round; stroke-width:4; stroke-opacity:1; fill:none" points="247.459,643.326 266.356,643.326 "/>
<polyline clip-path="url(#clip570)" style="stroke:#000000; stroke-linecap:round; stroke-linejoin:round; stroke-width:4; stroke-opacity:1; fill:none" points="247.459,373.658 266.356,373.658 "/>
<path clip-path="url(#clip570)" d="M114.931 1196.01 L122.57 1196.01 L122.57 1169.64 L114.26 1171.31 L114.26 1167.05 L122.524 1165.38 L127.2 1165.38 L127.2 1196.01 L134.839 1196.01 L134.839 1199.94 L114.931 1199.94 L114.931 1196.01 Z" fill="#000000" fill-rule="nonzero" fill-opacity="1" /><path clip-path="url(#clip570)" d="M143.103 1165.38 L165.325 1165.38 L165.325 1167.37 L152.778 1199.94 L147.894 1199.94 L159.7 1169.32 L143.103 1169.32 L143.103 1165.38 Z" fill="#000000" fill-rule="nonzero" fill-opacity="1" /><path clip-path="url(#clip570)" d="M174.445 1194.06 L179.329 1194.06 L179.329 1199.94 L174.445 1199.94 L174.445 1194.06 Z" fill="#000000" fill-rule="nonzero" fill-opacity="1" /><path clip-path="url(#clip570)" d="M199.514 1168.46 Q195.903 1168.46 194.075 1172.02 Q192.269 1175.57 192.269 1182.7 Q192.269 1189.8 194.075 1193.37 Q195.903 1196.91 199.514 1196.91 Q203.149 1196.91 204.954 1193.37 Q206.783 1189.8 206.783 1182.7 Q206.783 1175.57 204.954 1172.02 Q203.149 1168.46 199.514 1168.46 M199.514 1164.76 Q205.324 1164.76 208.38 1169.36 Q211.459 1173.95 211.459 1182.7 Q211.459 1191.42 208.38 1196.03 Q205.324 1200.61 199.514 1200.61 Q193.704 1200.61 190.625 1196.03 Q187.57 1191.42 187.57 1182.7 Q187.57 1173.95 190.625 1169.36 Q193.704 1164.76 199.514 1164.76 Z" fill="#000000" fill-rule="nonzero" fill-opacity="1" /><path clip-path="url(#clip570)" d="M115.927 926.338 L123.566 926.338 L123.566 899.973 L115.256 901.639 L115.256 897.38 L123.519 895.713 L128.195 895.713 L128.195 926.338 L135.834 926.338 L135.834 930.273 L115.927 930.273 L115.927 926.338 Z" fill="#000000" fill-rule="nonzero" fill-opacity="1" /><path clip-path="url(#clip570)" d="M144.098 895.713 L166.32 895.713 L166.32 897.704 L153.774 930.273 L148.89 930.273 L160.695 899.649 L144.098 899.649 L144.098 895.713 Z" fill="#000000" fill-rule="nonzero" fill-opacity="1" /><path clip-path="url(#clip570)" d="M175.44 924.394 L180.325 924.394 L180.325 930.273 L175.44 930.273 L175.44 924.394 Z" fill="#000000" fill-rule="nonzero" fill-opacity="1" /><path clip-path="url(#clip570)" d="M190.556 895.713 L208.912 895.713 L208.912 899.649 L194.838 899.649 L194.838 908.121 Q195.857 907.774 196.875 907.612 Q197.894 907.426 198.912 907.426 Q204.699 907.426 208.079 910.598 Q211.459 913.769 211.459 919.186 Q211.459 924.764 207.987 927.866 Q204.514 930.945 198.195 930.945 Q196.019 930.945 193.75 930.574 Q191.505 930.204 189.098 929.463 L189.098 924.764 Q191.181 925.899 193.403 926.454 Q195.625 927.01 198.102 927.01 Q202.107 927.01 204.445 924.903 Q206.783 922.797 206.783 919.186 Q206.783 915.574 204.445 913.468 Q202.107 911.362 198.102 911.362 Q196.227 911.362 194.352 911.778 Q192.5 912.195 190.556 913.074 L190.556 895.713 Z" fill="#000000" fill-rule="nonzero" fill-opacity="1" /><path clip-path="url(#clip570)" d="M114.931 656.671 L122.57 656.671 L122.57 630.305 L114.26 631.972 L114.26 627.713 L122.524 626.046 L127.2 626.046 L127.2 656.671 L134.839 656.671 L134.839 660.606 L114.931 660.606 L114.931 656.671 Z" fill="#000000" fill-rule="nonzero" fill-opacity="1" /><path clip-path="url(#clip570)" d="M154.283 644.194 Q150.95 644.194 149.028 645.976 Q147.13 647.759 147.13 650.884 Q147.13 654.009 149.028 655.791 Q150.95 657.573 154.283 657.573 Q157.616 657.573 159.538 655.791 Q161.459 653.986 161.459 650.884 Q161.459 647.759 159.538 645.976 Q157.64 644.194 154.283 644.194 M149.607 642.203 Q146.598 641.462 144.908 639.402 Q143.241 637.342 143.241 634.379 Q143.241 630.236 146.181 627.828 Q149.144 625.421 154.283 625.421 Q159.445 625.421 162.385 627.828 Q165.325 630.236 165.325 634.379 Q165.325 637.342 163.635 639.402 Q161.968 641.462 158.982 642.203 Q162.362 642.99 164.237 645.282 Q166.135 647.574 166.135 650.884 Q166.135 655.907 163.056 658.592 Q160.001 661.277 154.283 661.277 Q148.566 661.277 145.487 658.592 Q142.431 655.907 142.431 650.884 Q142.431 647.574 144.329 645.282 Q146.228 642.99 149.607 642.203 M147.894 634.819 Q147.894 637.504 149.561 639.009 Q151.251 640.513 154.283 640.513 Q157.292 640.513 158.982 639.009 Q160.695 637.504 160.695 634.819 Q160.695 632.134 158.982 630.629 Q157.292 629.125 154.283 629.125 Q151.251 629.125 149.561 630.629 Q147.894 632.134 147.894 634.819 Z" fill="#000000" fill-rule="nonzero" fill-opacity="1" /><path clip-path="url(#clip570)" d="M174.445 654.726 L179.329 654.726 L179.329 660.606 L174.445 660.606 L174.445 654.726 Z" fill="#000000" fill-rule="nonzero" fill-opacity="1" /><path clip-path="url(#clip570)" d="M199.514 629.125 Q195.903 629.125 194.075 632.689 Q192.269 636.231 192.269 643.361 Q192.269 650.467 194.075 654.032 Q195.903 657.573 199.514 657.573 Q203.149 657.573 204.954 654.032 Q206.783 650.467 206.783 643.361 Q206.783 636.231 204.954 632.689 Q203.149 629.125 199.514 629.125 M199.514 625.421 Q205.324 625.421 208.38 630.027 Q211.459 634.611 211.459 643.361 Q211.459 652.087 208.38 656.694 Q205.324 661.277 199.514 661.277 Q193.704 661.277 190.625 656.694 Q187.57 652.087 187.57 643.361 Q187.57 634.611 190.625 630.027 Q193.704 625.421 199.514 625.421 Z" fill="#000000" fill-rule="nonzero" fill-opacity="1" /><path clip-path="url(#clip570)" d="M115.927 387.003 L123.566 387.003 L123.566 360.637 L115.256 362.304 L115.256 358.045 L123.519 356.378 L128.195 356.378 L128.195 387.003 L135.834 387.003 L135.834 390.938 L115.927 390.938 L115.927 387.003 Z" fill="#000000" fill-rule="nonzero" fill-opacity="1" /><path clip-path="url(#clip570)" d="M155.278 374.526 Q151.945 374.526 150.024 376.309 Q148.126 378.091 148.126 381.216 Q148.126 384.341 150.024 386.123 Q151.945 387.906 155.278 387.906 Q158.612 387.906 160.533 386.123 Q162.454 384.318 162.454 381.216 Q162.454 378.091 160.533 376.309 Q158.635 374.526 155.278 374.526 M150.603 372.536 Q147.593 371.795 145.904 369.735 Q144.237 367.674 144.237 364.712 Q144.237 360.568 147.177 358.161 Q150.14 355.753 155.278 355.753 Q160.44 355.753 163.38 358.161 Q166.32 360.568 166.32 364.712 Q166.32 367.674 164.63 369.735 Q162.964 371.795 159.978 372.536 Q163.357 373.323 165.232 375.614 Q167.13 377.906 167.13 381.216 Q167.13 386.239 164.052 388.924 Q160.996 391.61 155.278 391.61 Q149.561 391.61 146.482 388.924 Q143.427 386.239 143.427 381.216 Q143.427 377.906 145.325 375.614 Q147.223 373.323 150.603 372.536 M148.89 365.151 Q148.89 367.836 150.556 369.341 Q152.246 370.846 155.278 370.846 Q158.288 370.846 159.978 369.341 Q161.69 367.836 161.69 365.151 Q161.69 362.466 159.978 360.962 Q158.288 359.457 155.278 359.457 Q152.246 359.457 150.556 360.962 Q148.89 362.466 148.89 365.151 Z" fill="#000000" fill-rule="nonzero" fill-opacity="1" /><path clip-path="url(#clip570)" d="M175.44 385.059 L180.325 385.059 L180.325 390.938 L175.44 390.938 L175.44 385.059 Z" fill="#000000" fill-rule="nonzero" fill-opacity="1" /><path clip-path="url(#clip570)" d="M190.556 356.378 L208.912 356.378 L208.912 360.313 L194.838 360.313 L194.838 368.786 Q195.857 368.438 196.875 368.276 Q197.894 368.091 198.912 368.091 Q204.699 368.091 208.079 371.262 Q211.459 374.434 211.459 379.85 Q211.459 385.429 207.987 388.531 Q204.514 391.61 198.195 391.61 Q196.019 391.61 193.75 391.239 Q191.505 390.869 189.098 390.128 L189.098 385.429 Q191.181 386.563 193.403 387.119 Q195.625 387.674 198.102 387.674 Q202.107 387.674 204.445 385.568 Q206.783 383.461 206.783 379.85 Q206.783 376.239 204.445 374.133 Q202.107 372.026 198.102 372.026 Q196.227 372.026 194.352 372.443 Q192.5 372.86 190.556 373.739 L190.556 356.378 Z" fill="#000000" fill-rule="nonzero" fill-opacity="1" /><path clip-path="url(#clip570)" d="M20.4822 1058.66 L57.4351 1058.66 L57.4351 1050.9 Q57.4351 1041.06 52.9791 1036.51 Q48.5231 1031.93 38.9109 1031.93 Q29.3623 1031.93 24.9382 1036.51 Q20.4822 1041.06 20.4822 1050.9 L20.4822 1058.66 M15.1986 1065.09 L15.1986 1051.88 Q15.1986 1038.07 20.9596 1031.61 Q26.6887 1025.15 38.9109 1025.15 Q51.1967 1025.15 56.9577 1031.64 Q62.7186 1038.13 62.7186 1051.88 L62.7186 1065.09 L15.1986 1065.09 Z" fill="#000000" fill-rule="nonzero" fill-opacity="1" /><path clip-path="url(#clip570)" d="M27.0707 1015.15 L27.0707 1009.3 L62.7186 1009.3 L62.7186 1015.15 L27.0707 1015.15 M13.1934 1015.15 L13.1934 1009.3 L20.6095 1009.3 L20.6095 1015.15 L13.1934 1015.15 Z" fill="#000000" fill-rule="nonzero" fill-opacity="1" /><path clip-path="url(#clip570)" d="M28.121 974.318 L33.6592 974.318 Q32.386 976.8 31.7495 979.474 Q31.1129 982.148 31.1129 985.012 Q31.1129 989.373 32.4497 991.569 Q33.7865 993.733 36.4601 993.733 Q38.4971 993.733 39.6748 992.174 Q40.8206 990.614 41.8709 985.903 L42.3165 983.898 Q43.6533 977.66 46.1041 975.05 Q48.5231 972.408 52.8836 972.408 Q57.8489 972.408 60.7453 976.355 Q63.6417 980.27 63.6417 987.145 Q63.6417 990.009 63.0687 993.128 Q62.5277 996.216 61.4137 999.653 L55.3662 999.653 Q57.0531 996.407 57.9125 993.256 Q58.7401 990.105 58.7401 987.017 Q58.7401 982.88 57.3396 980.652 Q55.9073 978.424 53.3292 978.424 Q50.9421 978.424 49.6689 980.047 Q48.3958 981.638 47.2181 987.081 L46.7407 989.118 Q45.5949 994.561 43.2396 996.98 Q40.8524 999.399 36.7147 999.399 Q31.6858 999.399 28.9486 995.834 Q26.2113 992.269 26.2113 985.712 Q26.2113 982.466 26.6887 979.601 Q27.1662 976.737 28.121 974.318 Z" fill="#000000" fill-rule="nonzero" fill-opacity="1" /><path clip-path="url(#clip570)" d="M16.9492 957.29 L27.0707 957.29 L27.0707 945.227 L31.6221 945.227 L31.6221 957.29 L50.9739 957.29 Q55.3344 957.29 56.5757 956.112 Q57.817 954.902 57.817 951.242 L57.817 945.227 L62.7186 945.227 L62.7186 951.242 Q62.7186 958.022 60.2042 960.6 Q57.6579 963.178 50.9739 963.178 L31.6221 963.178 L31.6221 967.475 L27.0707 967.475 L27.0707 963.178 L16.9492 963.178 L16.9492 957.29 Z" fill="#000000" fill-rule="nonzero" fill-opacity="1" /><path clip-path="url(#clip570)" d="M44.7992 921.323 Q44.7992 928.421 46.4224 931.158 Q48.0457 933.896 51.9606 933.896 Q55.0798 933.896 56.9258 931.859 Q58.7401 929.79 58.7401 926.257 Q58.7401 921.387 55.3026 918.459 Q51.8333 915.499 46.1041 915.499 L44.7992 915.499 L44.7992 921.323 M42.3802 909.642 L62.7186 909.642 L62.7186 915.499 L57.3078 915.499 Q60.5543 917.504 62.1139 920.496 Q63.6417 923.488 63.6417 927.816 Q63.6417 933.291 60.5861 936.537 Q57.4987 939.752 52.3425 939.752 Q46.3269 939.752 43.2714 935.742 Q40.2159 931.699 40.2159 923.71 L40.2159 915.499 L39.6429 915.499 Q35.6007 915.499 33.4045 918.172 Q31.1765 920.814 31.1765 925.62 Q31.1765 928.676 31.9086 931.572 Q32.6407 934.468 34.1048 937.142 L28.6939 937.142 Q27.4526 933.927 26.8479 930.904 Q26.2113 927.88 26.2113 925.015 Q26.2113 917.281 30.2217 913.462 Q34.2321 909.642 42.3802 909.642 Z" fill="#000000" fill-rule="nonzero" fill-opacity="1" /><path clip-path="url(#clip570)" d="M41.2025 867.947 L62.7186 867.947 L62.7186 873.803 L41.3935 873.803 Q36.3328 873.803 33.8183 875.777 Q31.3039 877.75 31.3039 881.697 Q31.3039 886.439 34.3276 889.176 Q37.3513 891.914 42.5712 891.914 L62.7186 891.914 L62.7186 897.802 L27.0707 897.802 L27.0707 891.914 L32.6088 891.914 Q29.3942 889.813 27.8027 886.98 Q26.2113 884.116 26.2113 880.392 Q26.2113 874.249 30.0307 871.098 Q33.8183 867.947 41.2025 867.947 Z" fill="#000000" fill-rule="nonzero" fill-opacity="1" /><path clip-path="url(#clip570)" d="M28.4393 830.612 L33.9138 830.612 Q32.5452 833.095 31.8768 835.609 Q31.1765 838.092 31.1765 840.638 Q31.1765 846.335 34.805 849.486 Q38.4016 852.637 44.9265 852.637 Q51.4513 852.637 55.0798 849.486 Q58.6764 846.335 58.6764 840.638 Q58.6764 838.092 58.008 835.609 Q57.3078 833.095 55.9391 830.612 L61.35 830.612 Q62.4958 833.063 63.0687 835.705 Q63.6417 838.314 63.6417 841.275 Q63.6417 849.327 58.5809 854.07 Q53.5202 858.812 44.9265 858.812 Q36.2055 858.812 31.2084 854.038 Q26.2113 849.232 26.2113 840.893 Q26.2113 838.187 26.7842 835.609 Q27.3253 833.031 28.4393 830.612 Z" fill="#000000" fill-rule="nonzero" fill-opacity="1" /><path clip-path="url(#clip570)" d="M43.4305 789.935 L46.2951 789.935 L46.2951 816.862 Q52.3425 816.48 55.5254 813.234 Q58.6764 809.955 58.6764 804.131 Q58.6764 800.757 57.8489 797.606 Q57.0213 794.423 55.3662 791.304 L60.9044 791.304 Q62.2412 794.455 62.9414 797.765 Q63.6417 801.075 63.6417 804.481 Q63.6417 813.011 58.6764 818.008 Q53.7112 822.973 45.2448 822.973 Q36.4919 822.973 31.3675 818.262 Q26.2113 813.52 26.2113 805.499 Q26.2113 798.306 30.8583 794.136 Q35.4734 789.935 43.4305 789.935 M41.7118 795.792 Q36.9057 795.855 34.0411 798.497 Q31.1765 801.107 31.1765 805.436 Q31.1765 810.337 33.9456 813.297 Q36.7147 816.225 41.7436 816.671 L41.7118 795.792 Z" fill="#000000" fill-rule="nonzero" fill-opacity="1" /><path clip-path="url(#clip570)" d="M28.121 757.597 L33.6592 757.597 Q32.386 760.08 31.7495 762.754 Q31.1129 765.427 31.1129 768.292 Q31.1129 772.652 32.4497 774.848 Q33.7865 777.013 36.4601 777.013 Q38.4971 777.013 39.6748 775.453 Q40.8206 773.894 41.8709 769.183 L42.3165 767.178 Q43.6533 760.939 46.1041 758.329 Q48.5231 755.688 52.8836 755.688 Q57.8489 755.688 60.7453 759.634 Q63.6417 763.549 63.6417 770.424 Q63.6417 773.289 63.0687 776.408 Q62.5277 779.495 61.4137 782.933 L55.3662 782.933 Q57.0531 779.686 57.9125 776.535 Q58.7401 773.384 58.7401 770.297 Q58.7401 766.159 57.3396 763.931 Q55.9073 761.703 53.3292 761.703 Q50.9421 761.703 49.6689 763.326 Q48.3958 764.918 47.2181 770.361 L46.7407 772.398 Q45.5949 777.84 43.2396 780.259 Q40.8524 782.678 36.7147 782.678 Q31.6858 782.678 28.9486 779.113 Q26.2113 775.549 26.2113 768.992 Q26.2113 765.745 26.6887 762.881 Q27.1662 760.016 28.121 757.597 Z" fill="#000000" fill-rule="nonzero" fill-opacity="1" /><path clip-path="url(#clip570)" d="M17.6626 700.384 L55.7944 709.884 Q57.5013 710.271 58.9505 710.271 Q61.9779 710.271 61.9779 708.306 Q61.9779 707.34 61.366 706.567 Q60.7541 705.794 59.4658 705.182 Q58.1776 704.57 56.986 704.184 Q55.7622 703.797 53.8298 703.282 Q53.0569 703.121 52.8636 702.992 Q52.6382 702.831 52.6382 702.38 Q52.6382 701.575 53.2823 701.575 Q57.4369 702.445 59.8201 703.572 Q63.4594 705.376 63.4594 708.435 Q63.4594 710.754 62.0423 712.396 Q60.6252 714.039 58.4997 714.425 Q63.4594 718.644 63.4594 723.024 Q63.4594 726.889 60.5286 729.337 Q57.5657 731.784 52.8958 731.784 Q48.1938 731.784 43.685 729.466 Q39.1761 727.115 36.3742 723.411 Q33.5723 719.707 33.5723 715.907 Q33.5723 711.881 37.7913 709.82 L22.1392 705.859 L20.851 705.665 Q20.4645 705.665 20.2713 705.826 Q20.0459 705.955 19.8848 706.728 Q19.7238 707.469 19.7238 708.95 Q19.7238 709.562 19.6916 709.852 Q19.6594 710.11 19.4984 710.335 Q19.3051 710.561 18.9187 710.561 Q17.7914 710.561 17.6626 709.627 Q16.9541 703.443 16.9541 701.253 Q16.9541 700.867 17.1473 700.641 Q17.3084 700.416 17.5016 700.416 L17.6626 700.384 M40.8186 710.625 Q40.5288 710.625 39.7236 710.851 Q38.9185 711.076 37.7913 711.591 Q36.6641 712.107 35.8589 713.234 Q35.0216 714.329 35.0216 715.81 Q35.0216 717.807 36.7285 719.9 Q38.4354 721.962 41.3339 723.475 Q43.6528 724.635 48.5158 725.891 Q53.3789 727.115 55.7944 727.115 Q57.2758 727.115 58.5963 726.792 Q59.8845 726.438 60.9473 725.44 Q61.9779 724.441 61.9779 722.896 Q61.9779 719.127 57.308 715.424 Q56.5029 714.715 56.1808 714.554 Q55.8266 714.361 54.8604 714.103 L41.9458 710.818 Q40.9797 710.625 40.8186 710.625 Z" fill="#000000" fill-rule="nonzero" fill-opacity="1" /><path clip-path="url(#clip570)" d="M52.7353 681.86 Q53.7272 681.86 54.4712 682.672 Q55.1926 683.461 55.1926 684.317 Q55.1926 685.106 54.7192 685.602 Q54.2232 686.076 53.5243 686.076 Q52.6 686.076 51.8335 685.287 Q51.067 684.498 51.067 683.573 Q51.067 682.807 51.5405 682.333 Q52.0139 681.86 52.7353 681.86 M74.9863 681.454 Q75.1667 681.454 75.8881 681.657 Q76.587 681.86 77.6691 682.356 Q78.7287 682.829 79.7206 683.483 Q80.7125 684.137 81.4114 685.219 Q82.1103 686.279 82.1103 687.496 Q82.1103 689.142 81.0281 690.224 Q79.946 691.283 78.3229 691.283 Q77.4436 691.283 74.6256 690.224 Q66.4196 687.158 66.0814 687.045 Q64.7964 686.527 63.6692 686.527 Q63.1507 686.527 62.8351 686.639 Q62.4969 686.752 62.3842 686.978 Q62.2489 687.203 62.2264 687.338 Q62.2038 687.451 62.2038 687.676 Q62.2038 689.007 63.5565 690.246 Q64.9091 691.486 67.93 692.343 Q68.4936 692.523 68.6289 692.636 Q68.7642 692.749 68.7642 693.087 Q68.7416 693.651 68.2907 693.651 Q68.1555 693.651 67.637 693.493 Q67.0959 693.335 66.2843 693.042 Q65.4502 692.749 64.5935 692.23 Q63.7143 691.712 62.9478 691.081 Q62.1813 690.427 61.6853 689.502 Q61.1893 688.578 61.1893 687.541 Q61.1893 685.85 62.294 684.813 Q63.3761 683.754 64.9767 683.754 Q65.856 683.754 67.4115 684.362 Q69.4405 685.106 70.0943 685.377 L74.9412 687.18 Q76.6997 687.834 77.2407 688.037 Q77.7593 688.217 78.3905 688.375 Q78.9992 688.511 79.5628 688.511 Q80.3518 688.511 80.7125 688.263 Q81.0732 687.992 81.0732 687.406 Q81.0732 685.783 79.4726 684.588 Q77.8494 683.393 75.3696 682.694 Q75.3019 682.672 75.1892 682.649 Q74.6256 682.469 74.558 682.288 Q74.5354 682.198 74.5354 682.018 Q74.5354 681.454 74.9863 681.454 Z" fill="#000000" fill-rule="nonzero" fill-opacity="1" /><path clip-path="url(#clip570)" d="M13.1934 648.213 L13.1934 634.718 L17.7449 634.718 L17.7449 642.357 L66.7608 642.357 L66.7608 634.718 L71.3123 634.718 L71.3123 648.213 L13.1934 648.213 Z" fill="#000000" fill-rule="nonzero" fill-opacity="1" /><path clip-path="url(#clip570)" d="M33.9138 594.487 Q29.9671 592.291 28.0892 589.235 Q26.2113 586.18 26.2113 582.042 Q26.2113 576.472 30.1262 573.448 Q34.0093 570.424 41.2025 570.424 L62.7186 570.424 L62.7186 576.313 L41.3935 576.313 Q36.2691 576.313 33.7865 578.127 Q31.3039 579.941 31.3039 583.665 Q31.3039 588.217 34.3276 590.858 Q37.3513 593.5 42.5712 593.5 L62.7186 593.5 L62.7186 599.388 L41.3935 599.388 Q36.2373 599.388 33.7865 601.203 Q31.3039 603.017 31.3039 606.804 Q31.3039 611.292 34.3594 613.934 Q37.3831 616.576 42.5712 616.576 L62.7186 616.576 L62.7186 622.464 L27.0707 622.464 L27.0707 616.576 L32.6088 616.576 Q29.3305 614.571 27.7709 611.77 Q26.2113 608.969 26.2113 605.118 Q26.2113 601.234 28.1847 598.529 Q30.158 595.792 33.9138 594.487 Z" fill="#000000" fill-rule="nonzero" fill-opacity="1" /><path clip-path="url(#clip570)" d="M33.9138 530.989 Q29.9671 528.793 28.0892 525.737 Q26.2113 522.682 26.2113 518.544 Q26.2113 512.974 30.1262 509.95 Q34.0093 506.927 41.2025 506.927 L62.7186 506.927 L62.7186 512.815 L41.3935 512.815 Q36.2691 512.815 33.7865 514.629 Q31.3039 516.443 31.3039 520.167 Q31.3039 524.719 34.3276 527.36 Q37.3513 530.002 42.5712 530.002 L62.7186 530.002 L62.7186 535.891 L41.3935 535.891 Q36.2373 535.891 33.7865 537.705 Q31.3039 539.519 31.3039 543.307 Q31.3039 547.794 34.3594 550.436 Q37.3831 553.078 42.5712 553.078 L62.7186 553.078 L62.7186 558.966 L27.0707 558.966 L27.0707 553.078 L32.6088 553.078 Q29.3305 551.073 27.7709 548.272 Q26.2113 545.471 26.2113 541.62 Q26.2113 537.737 28.1847 535.031 Q30.158 532.294 33.9138 530.989 Z" fill="#000000" fill-rule="nonzero" fill-opacity="1" /><path clip-path="url(#clip570)" d="M13.1934 481.559 L71.3123 481.559 L71.3123 495.055 L66.7608 495.055 L66.7608 487.447 L17.7449 487.447 L17.7449 495.055 L13.1934 495.055 L13.1934 481.559 Z" fill="#000000" fill-rule="nonzero" fill-opacity="1" /><path clip-path="url(#clip570)" d="M763.261 18.8205 L763.261 65.8515 L773.145 65.8515 Q785.663 65.8515 791.456 60.1802 Q797.289 54.509 797.289 42.2752 Q797.289 30.1225 791.456 24.4918 Q785.663 18.8205 773.145 18.8205 L763.261 18.8205 M755.078 12.096 L771.89 12.096 Q789.471 12.096 797.694 19.4281 Q805.917 26.7198 805.917 42.2752 Q805.917 57.9117 797.653 65.2439 Q789.39 72.576 771.89 72.576 L755.078 72.576 L755.078 12.096 Z" fill="#000000" fill-rule="nonzero" fill-opacity="1" /><path clip-path="url(#clip570)" d="M818.637 27.2059 L826.091 27.2059 L826.091 72.576 L818.637 72.576 L818.637 27.2059 M818.637 9.54393 L826.091 9.54393 L826.091 18.9825 L818.637 18.9825 L818.637 9.54393 Z" fill="#000000" fill-rule="nonzero" fill-opacity="1" /><path clip-path="url(#clip570)" d="M870.61 28.5427 L870.61 35.5912 Q867.45 33.9709 864.048 33.1607 Q860.645 32.3505 856.999 32.3505 Q851.449 32.3505 848.654 34.0519 Q845.9 35.7533 845.9 39.156 Q845.9 41.7486 847.885 43.2475 Q849.87 44.7058 855.865 46.0426 L858.417 46.6097 Q866.357 48.3111 869.678 51.4303 Q873.041 54.509 873.041 60.0587 Q873.041 66.3781 868.018 70.0644 Q863.035 73.7508 854.285 73.7508 Q850.639 73.7508 846.669 73.0216 Q842.74 72.3329 838.365 70.9151 L838.365 63.2184 Q842.497 65.3654 846.507 66.4591 Q850.518 67.5124 854.447 67.5124 Q859.713 67.5124 862.549 65.73 Q865.385 63.9071 865.385 60.6258 Q865.385 57.5877 863.319 55.9673 Q861.293 54.3469 854.366 52.8481 L851.773 52.2405 Q844.846 50.7821 841.768 47.7845 Q838.689 44.7463 838.689 39.4801 Q838.689 33.0797 843.226 29.5959 Q847.763 26.1121 856.108 26.1121 Q860.24 26.1121 863.886 26.7198 Q867.532 27.3274 870.61 28.5427 Z" fill="#000000" fill-rule="nonzero" fill-opacity="1" /><path clip-path="url(#clip570)" d="M892.283 14.324 L892.283 27.2059 L907.635 27.2059 L907.635 32.9987 L892.283 32.9987 L892.283 57.6282 Q892.283 63.1779 893.781 64.7578 Q895.321 66.3376 899.979 66.3376 L907.635 66.3376 L907.635 72.576 L899.979 72.576 Q891.351 72.576 888.07 69.3758 Q884.788 66.1351 884.788 57.6282 L884.788 32.9987 L879.32 32.9987 L879.32 27.2059 L884.788 27.2059 L884.788 14.324 L892.283 14.324 Z" fill="#000000" fill-rule="nonzero" fill-opacity="1" /><path clip-path="url(#clip570)" d="M938.058 49.7694 Q929.024 49.7694 925.54 51.8354 Q922.057 53.9013 922.057 58.8839 Q922.057 62.8538 924.649 65.2034 Q927.282 67.5124 931.779 67.5124 Q937.977 67.5124 941.704 63.1374 Q945.471 58.7219 945.471 51.4303 L945.471 49.7694 L938.058 49.7694 M952.925 46.6907 L952.925 72.576 L945.471 72.576 L945.471 65.6895 Q942.919 69.8214 939.111 71.8063 Q935.303 73.7508 929.794 73.7508 Q922.826 73.7508 918.694 69.8619 Q914.603 65.9325 914.603 59.3701 Q914.603 51.7138 919.707 47.825 Q924.852 43.9361 935.02 43.9361 L945.471 43.9361 L945.471 43.2069 Q945.471 38.0623 942.068 35.2672 Q938.706 32.4315 932.589 32.4315 Q928.7 32.4315 925.014 33.3632 Q921.328 34.295 917.925 36.1584 L917.925 29.2718 Q922.016 27.692 925.865 26.9223 Q929.713 26.1121 933.359 26.1121 Q943.202 26.1121 948.063 31.2163 Q952.925 36.3204 952.925 46.6907 Z" fill="#000000" fill-rule="nonzero" fill-opacity="1" /><path clip-path="url(#clip570)" d="M1005.99 45.1919 L1005.99 72.576 L998.538 72.576 L998.538 45.4349 Q998.538 38.994 996.026 35.7938 Q993.515 32.5936 988.492 32.5936 Q982.456 32.5936 978.972 36.4419 Q975.488 40.2903 975.488 46.9338 L975.488 72.576 L967.994 72.576 L967.994 27.2059 L975.488 27.2059 L975.488 34.2544 Q978.162 30.163 981.767 28.1376 Q985.413 26.1121 990.152 26.1121 Q997.971 26.1121 1001.98 30.9732 Q1005.99 35.7938 1005.99 45.1919 Z" fill="#000000" fill-rule="nonzero" fill-opacity="1" /><path clip-path="url(#clip570)" d="M1053.51 28.9478 L1053.51 35.9153 Q1050.35 34.1734 1047.15 33.3227 Q1043.99 32.4315 1040.75 32.4315 Q1033.5 32.4315 1029.49 37.0496 Q1025.48 41.6271 1025.48 49.9314 Q1025.48 58.2358 1029.49 62.8538 Q1033.5 67.4314 1040.75 67.4314 Q1043.99 67.4314 1047.15 66.5807 Q1050.35 65.6895 1053.51 63.9476 L1053.51 70.8341 Q1050.39 72.2924 1047.03 73.0216 Q1043.71 73.7508 1039.94 73.7508 Q1029.69 73.7508 1023.65 67.3098 Q1017.62 60.8689 1017.62 49.9314 Q1017.62 38.832 1023.69 32.472 Q1029.81 26.1121 1040.42 26.1121 Q1043.87 26.1121 1047.15 26.8413 Q1050.43 27.5299 1053.51 28.9478 Z" fill="#000000" fill-rule="nonzero" fill-opacity="1" /><path clip-path="url(#clip570)" d="M1105.28 48.0275 L1105.28 51.6733 L1071.01 51.6733 Q1071.49 59.3701 1075.63 63.421 Q1079.8 67.4314 1087.21 67.4314 Q1091.51 67.4314 1095.52 66.3781 Q1099.57 65.3249 1103.54 63.2184 L1103.54 70.267 Q1099.53 71.9684 1095.31 72.8596 Q1091.1 73.7508 1086.77 73.7508 Q1075.91 73.7508 1069.55 67.4314 Q1063.23 61.1119 1063.23 50.3365 Q1063.23 39.1965 1069.23 32.6746 Q1075.26 26.1121 1085.47 26.1121 Q1094.63 26.1121 1099.93 32.0264 Q1105.28 37.9003 1105.28 48.0275 M1097.83 45.84 Q1097.74 39.7232 1094.38 36.0774 Q1091.06 32.4315 1085.55 32.4315 Q1079.31 32.4315 1075.55 35.9558 Q1071.82 39.4801 1071.25 45.8805 L1097.83 45.84 Z" fill="#000000" fill-rule="nonzero" fill-opacity="1" /><path clip-path="url(#clip570)" d="M1151.26 14.324 L1151.26 27.2059 L1166.61 27.2059 L1166.61 32.9987 L1151.26 32.9987 L1151.26 57.6282 Q1151.26 63.1779 1152.76 64.7578 Q1154.3 66.3376 1158.95 66.3376 L1166.61 66.3376 L1166.61 72.576 L1158.95 72.576 Q1150.33 72.576 1147.04 69.3758 Q1143.76 66.1351 1143.76 57.6282 L1143.76 32.9987 L1138.29 32.9987 L1138.29 27.2059 L1143.76 27.2059 L1143.76 14.324 L1151.26 14.324 Z" fill="#000000" fill-rule="nonzero" fill-opacity="1" /><path clip-path="url(#clip570)" d="M1202.7 34.1734 Q1201.45 33.4443 1199.95 33.1202 Q1198.49 32.7556 1196.71 32.7556 Q1190.39 32.7556 1186.99 36.8875 Q1183.62 40.9789 1183.62 48.6757 L1183.62 72.576 L1176.13 72.576 L1176.13 27.2059 L1183.62 27.2059 L1183.62 34.2544 Q1185.97 30.1225 1189.74 28.1376 Q1193.51 26.1121 1198.9 26.1121 Q1199.67 26.1121 1200.6 26.2337 Q1201.53 26.3147 1202.66 26.5172 L1202.7 34.1734 Z" fill="#000000" fill-rule="nonzero" fill-opacity="1" /><path clip-path="url(#clip570)" d="M1231.14 49.7694 Q1222.11 49.7694 1218.62 51.8354 Q1215.14 53.9013 1215.14 58.8839 Q1215.14 62.8538 1217.73 65.2034 Q1220.37 67.5124 1224.86 67.5124 Q1231.06 67.5124 1234.79 63.1374 Q1238.55 58.7219 1238.55 51.4303 L1238.55 49.7694 L1231.14 49.7694 M1246.01 46.6907 L1246.01 72.576 L1238.55 72.576 L1238.55 65.6895 Q1236 69.8214 1232.19 71.8063 Q1228.39 73.7508 1222.88 73.7508 Q1215.91 73.7508 1211.78 69.8619 Q1207.69 65.9325 1207.69 59.3701 Q1207.69 51.7138 1212.79 47.825 Q1217.93 43.9361 1228.1 43.9361 L1238.55 43.9361 L1238.55 43.2069 Q1238.55 38.0623 1235.15 35.2672 Q1231.79 32.4315 1225.67 32.4315 Q1221.78 32.4315 1218.1 33.3632 Q1214.41 34.295 1211.01 36.1584 L1211.01 29.2718 Q1215.1 27.692 1218.95 26.9223 Q1222.8 26.1121 1226.44 26.1121 Q1236.29 26.1121 1241.15 31.2163 Q1246.01 36.3204 1246.01 46.6907 Z" fill="#000000" fill-rule="nonzero" fill-opacity="1" /><path clip-path="url(#clip570)" d="M1294.01 28.9478 L1294.01 35.9153 Q1290.85 34.1734 1287.65 33.3227 Q1284.49 32.4315 1281.25 32.4315 Q1274 32.4315 1269.99 37.0496 Q1265.98 41.6271 1265.98 49.9314 Q1265.98 58.2358 1269.99 62.8538 Q1274 67.4314 1281.25 67.4314 Q1284.49 67.4314 1287.65 66.5807 Q1290.85 65.6895 1294.01 63.9476 L1294.01 70.8341 Q1290.89 72.2924 1287.53 73.0216 Q1284.21 73.7508 1280.44 73.7508 Q1270.19 73.7508 1264.16 67.3098 Q1258.12 60.8689 1258.12 49.9314 Q1258.12 38.832 1264.2 32.472 Q1270.31 26.1121 1280.93 26.1121 Q1284.37 26.1121 1287.65 26.8413 Q1290.93 27.5299 1294.01 28.9478 Z" fill="#000000" fill-rule="nonzero" fill-opacity="1" /><path clip-path="url(#clip570)" d="M1345.78 48.0275 L1345.78 51.6733 L1311.51 51.6733 Q1312 59.3701 1316.13 63.421 Q1320.3 67.4314 1327.71 67.4314 Q1332.01 67.4314 1336.02 66.3781 Q1340.07 65.3249 1344.04 63.2184 L1344.04 70.267 Q1340.03 71.9684 1335.82 72.8596 Q1331.6 73.7508 1327.27 73.7508 Q1316.41 73.7508 1310.05 67.4314 Q1303.73 61.1119 1303.73 50.3365 Q1303.73 39.1965 1309.73 32.6746 Q1315.76 26.1121 1325.97 26.1121 Q1335.13 26.1121 1340.43 32.0264 Q1345.78 37.9003 1345.78 48.0275 M1338.33 45.84 Q1338.25 39.7232 1334.88 36.0774 Q1331.56 32.4315 1326.05 32.4315 Q1319.81 32.4315 1316.05 35.9558 Q1312.32 39.4801 1311.75 45.8805 L1338.33 45.84 Z" fill="#000000" fill-rule="nonzero" fill-opacity="1" /><path clip-path="url(#clip570)" d="M1416.96 49.9314 Q1416.96 41.7081 1413.55 37.0496 Q1410.19 32.3505 1404.28 32.3505 Q1398.36 32.3505 1394.96 37.0496 Q1391.6 41.7081 1391.6 49.9314 Q1391.6 58.1548 1394.96 62.8538 Q1398.36 67.5124 1404.28 67.5124 Q1410.19 67.5124 1413.55 62.8538 Q1416.96 58.1548 1416.96 49.9314 M1391.6 34.0924 Q1393.95 30.0415 1397.51 28.0971 Q1401.12 26.1121 1406.1 26.1121 Q1414.36 26.1121 1419.51 32.6746 Q1424.69 39.2371 1424.69 49.9314 Q1424.69 60.6258 1419.51 67.1883 Q1414.36 73.7508 1406.1 73.7508 Q1401.12 73.7508 1397.51 71.8063 Q1393.95 69.8214 1391.6 65.7705 L1391.6 72.576 L1384.1 72.576 L1384.1 9.54393 L1391.6 9.54393 L1391.6 34.0924 Z" fill="#000000" fill-rule="nonzero" fill-opacity="1" /><path clip-path="url(#clip570)" d="M1475.86 48.0275 L1475.86 51.6733 L1441.59 51.6733 Q1442.07 59.3701 1446.2 63.421 Q1450.38 67.4314 1457.79 67.4314 Q1462.08 67.4314 1466.09 66.3781 Q1470.14 65.3249 1474.11 63.2184 L1474.11 70.267 Q1470.1 71.9684 1465.89 72.8596 Q1461.68 73.7508 1457.34 73.7508 Q1446.49 73.7508 1440.13 67.4314 Q1433.81 61.1119 1433.81 50.3365 Q1433.81 39.1965 1439.8 32.6746 Q1445.84 26.1121 1456.05 26.1121 Q1465.2 26.1121 1470.51 32.0264 Q1475.86 37.9003 1475.86 48.0275 M1468.4 45.84 Q1468.32 39.7232 1464.96 36.0774 Q1461.64 32.4315 1456.13 32.4315 Q1449.89 32.4315 1446.12 35.9558 Q1442.4 39.4801 1441.83 45.8805 L1468.4 45.84 Z" fill="#000000" fill-rule="nonzero" fill-opacity="1" /><path clip-path="url(#clip570)" d="M1517.01 28.5427 L1517.01 35.5912 Q1513.85 33.9709 1510.45 33.1607 Q1507.05 32.3505 1503.4 32.3505 Q1497.85 32.3505 1495.06 34.0519 Q1492.3 35.7533 1492.3 39.156 Q1492.3 41.7486 1494.29 43.2475 Q1496.27 44.7058 1502.27 46.0426 L1504.82 46.6097 Q1512.76 48.3111 1516.08 51.4303 Q1519.44 54.509 1519.44 60.0587 Q1519.44 66.3781 1514.42 70.0644 Q1509.44 73.7508 1500.69 73.7508 Q1497.04 73.7508 1493.07 73.0216 Q1489.14 72.3329 1484.77 70.9151 L1484.77 63.2184 Q1488.9 65.3654 1492.91 66.4591 Q1496.92 67.5124 1500.85 67.5124 Q1506.12 67.5124 1508.95 65.73 Q1511.79 63.9071 1511.79 60.6258 Q1511.79 57.5877 1509.72 55.9673 Q1507.7 54.3469 1500.77 52.8481 L1498.18 52.2405 Q1491.25 50.7821 1488.17 47.7845 Q1485.09 44.7463 1485.09 39.4801 Q1485.09 33.0797 1489.63 29.5959 Q1494.17 26.1121 1502.51 26.1121 Q1506.64 26.1121 1510.29 26.7198 Q1513.93 27.3274 1517.01 28.5427 Z" fill="#000000" fill-rule="nonzero" fill-opacity="1" /><path clip-path="url(#clip570)" d="M1538.69 14.324 L1538.69 27.2059 L1554.04 27.2059 L1554.04 32.9987 L1538.69 32.9987 L1538.69 57.6282 Q1538.69 63.1779 1540.18 64.7578 Q1541.72 66.3376 1546.38 66.3376 L1554.04 66.3376 L1554.04 72.576 L1546.38 72.576 Q1537.75 72.576 1534.47 69.3758 Q1531.19 66.1351 1531.19 57.6282 L1531.19 32.9987 L1525.72 32.9987 L1525.72 27.2059 L1531.19 27.2059 L1531.19 14.324 L1538.69 14.324 Z" fill="#000000" fill-rule="nonzero" fill-opacity="1" /><path clip-path="url(#clip570)" d="M1584.87 27.2059 L1592.76 27.2059 L1606.94 65.2844 L1621.12 27.2059 L1629.02 27.2059 L1612.01 72.576 L1601.88 72.576 L1584.87 27.2059 Z" fill="#000000" fill-rule="nonzero" fill-opacity="1" /><path clip-path="url(#clip570)" d="M1678.12 48.0275 L1678.12 51.6733 L1643.85 51.6733 Q1644.33 59.3701 1648.46 63.421 Q1652.64 67.4314 1660.05 67.4314 Q1664.34 67.4314 1668.35 66.3781 Q1672.41 65.3249 1676.38 63.2184 L1676.38 70.267 Q1672.37 71.9684 1668.15 72.8596 Q1663.94 73.7508 1659.6 73.7508 Q1648.75 73.7508 1642.39 67.4314 Q1636.07 61.1119 1636.07 50.3365 Q1636.07 39.1965 1642.06 32.6746 Q1648.1 26.1121 1658.31 26.1121 Q1667.46 26.1121 1672.77 32.0264 Q1678.12 37.9003 1678.12 48.0275 M1670.66 45.84 Q1670.58 39.7232 1667.22 36.0774 Q1663.9 32.4315 1658.39 32.4315 Q1652.15 32.4315 1648.38 35.9558 Q1644.66 39.4801 1644.09 45.8805 L1670.66 45.84 Z" fill="#000000" fill-rule="nonzero" fill-opacity="1" /><path clip-path="url(#clip570)" d="M1716.64 34.1734 Q1715.39 33.4443 1713.89 33.1202 Q1712.43 32.7556 1710.65 32.7556 Q1704.33 32.7556 1700.92 36.8875 Q1697.56 40.9789 1697.56 48.6757 L1697.56 72.576 L1690.07 72.576 L1690.07 27.2059 L1697.56 27.2059 L1697.56 34.2544 Q1699.91 30.1225 1703.68 28.1376 Q1707.45 26.1121 1712.83 26.1121 Q1713.6 26.1121 1714.54 26.2337 Q1715.47 26.3147 1716.6 26.5172 L1716.64 34.1734 Z" fill="#000000" fill-rule="nonzero" fill-opacity="1" /><path clip-path="url(#clip570)" d="M1731.83 14.324 L1731.83 27.2059 L1747.19 27.2059 L1747.19 32.9987 L1731.83 32.9987 L1731.83 57.6282 Q1731.83 63.1779 1733.33 64.7578 Q1734.87 66.3376 1739.53 66.3376 L1747.19 66.3376 L1747.19 72.576 L1739.53 72.576 Q1730.9 72.576 1727.62 69.3758 Q1724.34 66.1351 1724.34 57.6282 L1724.34 32.9987 L1718.87 32.9987 L1718.87 27.2059 L1724.34 27.2059 L1724.34 14.324 L1731.83 14.324 Z" fill="#000000" fill-rule="nonzero" fill-opacity="1" /><path clip-path="url(#clip570)" d="M1795.8 48.0275 L1795.8 51.6733 L1761.53 51.6733 Q1762.01 59.3701 1766.14 63.421 Q1770.32 67.4314 1777.73 67.4314 Q1782.02 67.4314 1786.03 66.3781 Q1790.08 65.3249 1794.05 63.2184 L1794.05 70.267 Q1790.04 71.9684 1785.83 72.8596 Q1781.62 73.7508 1777.28 73.7508 Q1766.43 73.7508 1760.07 67.4314 Q1753.75 61.1119 1753.75 50.3365 Q1753.75 39.1965 1759.74 32.6746 Q1765.78 26.1121 1775.99 26.1121 Q1785.14 26.1121 1790.45 32.0264 Q1795.8 37.9003 1795.8 48.0275 M1788.34 45.84 Q1788.26 39.7232 1784.9 36.0774 Q1781.58 32.4315 1776.07 32.4315 Q1769.83 32.4315 1766.06 35.9558 Q1762.34 39.4801 1761.77 45.8805 L1788.34 45.84 Z" fill="#000000" fill-rule="nonzero" fill-opacity="1" /><path clip-path="url(#clip570)" d="M1844.29 27.2059 L1827.88 49.2833 L1845.14 72.576 L1836.35 72.576 L1823.14 54.752 L1809.93 72.576 L1801.14 72.576 L1818.76 48.8377 L1802.64 27.2059 L1811.43 27.2059 L1823.46 43.369 L1835.5 27.2059 L1844.29 27.2059 Z" fill="#000000" fill-rule="nonzero" fill-opacity="1" /><polyline clip-path="url(#clip572)" style="stroke:#009af9; stroke-linecap:round; stroke-linejoin:round; stroke-width:4; stroke-opacity:1; fill:none" points="307.043,1386.4 326.904,1386.4 346.765,1386.4 366.626,1386.4 386.488,1386.4 406.349,1386.4 426.21,1386.4 446.072,1386.4 465.933,1386.4 485.794,1386.4 505.656,1386.4 525.517,1386.4 545.378,1386.4 565.239,1386.4 585.101,1386.4 604.962,1386.4 624.823,1386.4 644.685,1386.4 664.546,1386.4 684.407,1386.4 704.268,1386.4 724.13,1386.4 743.991,1386.4 763.852,1386.4 783.714,1386.4 803.575,1386.4 823.436,1386.4 843.298,1386.4 863.159,1386.4 883.02,1386.4 902.881,1386.4 922.743,1386.4 942.604,1386.4 962.465,1386.4 982.327,1386.4 1002.19,1386.4 1022.05,1386.4 1041.91,1386.4 1061.77,1386.4 1081.63,1386.4 1101.49,1386.4 1121.36,1386.4 1141.22,1386.4 1161.08,1386.4 1180.94,1386.4 1200.8,1386.4 1220.66,1386.4 1240.52,1386.4 1260.38,1386.4 1280.25,1386.4 1300.11,1386.4 1319.97,1386.4 1339.83,1386.4 1359.69,1386.4 1379.55,1386.4 1399.41,1386.4 1419.28,1386.4 1439.14,1386.4 1459,1386.4 1478.86,1386.4 1498.72,1386.4 1518.58,1386.4 1538.44,1386.4 1558.3,1386.4 1578.17,1386.4 1598.03,1386.4 1617.89,1386.4 1637.75,1386.4 1657.61,1386.4 1677.47,1386.4 1697.33,1386.4 1717.19,1386.4 1737.06,1386.4 1756.92,1386.4 1776.78,1386.4 1796.64,1386.4 1816.5,1386.4 1836.36,1386.4 1856.22,1386.4 1876.08,1386.4 1895.95,1386.4 1915.81,1386.4 1935.67,1386.4 1955.53,1386.4 1975.39,1386.4 1995.25,1386.4 2015.11,1386.4 2034.98,1386.4 2054.84,1386.4 2074.7,1386.4 2094.56,1386.4 2114.42,1386.4 2134.28,1386.4 2154.14,1386.4 2174,1386.4 2193.87,1386.4 2213.73,1386.4 2233.59,1386.4 2253.45,1386.4 2273.31,1386.4 2293.17,1386.4 "/>
<polyline clip-path="url(#clip572)" style="stroke:#e26f46; stroke-linecap:round; stroke-linejoin:round; stroke-width:4; stroke-opacity:1; fill:none" points="307.043,160.256 326.904,160.256 346.765,160.256 366.626,160.256 386.488,160.256 406.349,160.256 426.21,160.256 446.072,160.256 465.933,160.256 485.794,160.256 505.656,160.256 525.517,160.256 545.378,160.256 565.239,160.256 585.101,160.256 604.962,160.256 624.823,160.256 644.685,160.256 664.546,160.256 684.407,160.256 704.268,160.256 724.13,160.256 743.991,160.256 763.852,160.256 783.714,160.256 803.575,160.256 823.436,160.256 843.298,160.256 863.159,160.256 883.02,160.256 902.881,160.256 922.743,160.256 942.604,160.256 962.465,160.256 982.327,160.256 1002.19,160.256 1022.05,160.256 1041.91,160.256 1061.77,160.256 1081.63,160.256 1101.49,160.256 1121.36,160.256 1141.22,160.256 1161.08,160.256 1180.94,160.256 1200.8,160.256 1220.66,160.256 1240.52,160.256 1260.38,160.256 1280.25,160.256 1300.11,160.256 1319.97,160.256 1339.83,160.256 1359.69,160.256 1379.55,160.256 1399.41,160.256 1419.28,160.256 1439.14,160.256 1459,160.256 1478.86,160.256 1498.72,160.256 1518.58,160.256 1538.44,160.256 1558.3,160.256 1578.17,160.256 1598.03,160.256 1617.89,160.256 1637.75,160.256 1657.61,160.256 1677.47,160.256 1697.33,160.256 1717.19,160.256 1737.06,160.256 1756.92,160.256 1776.78,160.256 1796.64,160.256 1816.5,160.256 1836.36,160.256 1856.22,160.256 1876.08,160.256 1895.95,160.256 1915.81,160.256 1935.67,160.256 1955.53,160.256 1975.39,160.256 1995.25,160.256 2015.11,160.256 2034.98,160.256 2054.84,160.256 2074.7,160.256 2094.56,160.256 2114.42,160.256 2134.28,160.256 2154.14,160.256 2174,160.256 2193.87,160.256 2213.73,160.256 2233.59,160.256 2253.45,160.256 2273.31,160.256 2293.17,160.256 "/>
</svg>
