<?xml version="1.0" encoding="utf-8"?>
<svg xmlns="http://www.w3.org/2000/svg" xmlns:xlink="http://www.w3.org/1999/xlink" width="600" height="400" viewBox="0 0 2400 1600">
<defs>
  <clipPath id="clip750">
    <rect x="0" y="0" width="2400" height="1600"/>
  </clipPath>
</defs>
<path clip-path="url(#clip750)" d="M0 1600 L2400 1600 L2400 0 L0 0  Z" fill="#ffffff" fill-rule="evenodd" fill-opacity="1"/>
<defs>
  <clipPath id="clip751">
    <rect x="480" y="0" width="1681" height="1600"/>
  </clipPath>
</defs>
<path clip-path="url(#clip750)" d="M250.352 1423.18 L2352.76 1423.18 L2352.76 47.2441 L250.352 47.2441  Z" fill="#ffffff" fill-rule="evenodd" fill-opacity="1"/>
<defs>
  <clipPath id="clip752">
    <rect x="250" y="47" width="2103" height="1377"/>
  </clipPath>
</defs>
<polyline clip-path="url(#clip752)" style="stroke:#000000; stroke-linecap:round; stroke-linejoin:round; stroke-width:2; stroke-opacity:0.1; fill:none" points="593.197,1423.18 593.197,47.2441 "/>
<polyline clip-path="url(#clip752)" style="stroke:#000000; stroke-linecap:round; stroke-linejoin:round; stroke-width:2; stroke-opacity:0.1; fill:none" points="1159.88,1423.18 1159.88,47.2441 "/>
<polyline clip-path="url(#clip752)" style="stroke:#000000; stroke-linecap:round; stroke-linejoin:round; stroke-width:2; stroke-opacity:0.1; fill:none" points="1726.57,1423.18 1726.57,47.2441 "/>
<polyline clip-path="url(#clip752)" style="stroke:#000000; stroke-linecap:round; stroke-linejoin:round; stroke-width:2; stroke-opacity:0.1; fill:none" points="2293.25,1423.18 2293.25,47.2441 "/>
<polyline clip-path="url(#clip752)" style="stroke:#000000; stroke-linecap:round; stroke-linejoin:round; stroke-width:2; stroke-opacity:0.1; fill:none" points="250.352,1180.65 2352.76,1180.65 "/>
<polyline clip-path="url(#clip752)" style="stroke:#000000; stroke-linecap:round; stroke-linejoin:round; stroke-width:2; stroke-opacity:0.1; fill:none" points="250.352,904.402 2352.76,904.402 "/>
<polyline clip-path="url(#clip752)" style="stroke:#000000; stroke-linecap:round; stroke-linejoin:round; stroke-width:2; stroke-opacity:0.1; fill:none" points="250.352,628.153 2352.76,628.153 "/>
<polyline clip-path="url(#clip752)" style="stroke:#000000; stroke-linecap:round; stroke-linejoin:round; stroke-width:2; stroke-opacity:0.1; fill:none" points="250.352,351.904 2352.76,351.904 "/>
<polyline clip-path="url(#clip752)" style="stroke:#000000; stroke-linecap:round; stroke-linejoin:round; stroke-width:2; stroke-opacity:0.1; fill:none" points="250.352,75.6554 2352.76,75.6554 "/>
<polyline clip-path="url(#clip750)" style="stroke:#000000; stroke-linecap:round; stroke-linejoin:round; stroke-width:4; stroke-opacity:1; fill:none" points="250.352,1423.18 2352.76,1423.18 "/>
<polyline clip-path="url(#clip750)" style="stroke:#000000; stroke-linecap:round; stroke-linejoin:round; stroke-width:4; stroke-opacity:1; fill:none" points="593.197,1423.18 593.197,1404.28 "/>
<polyline clip-path="url(#clip750)" style="stroke:#000000; stroke-linecap:round; stroke-linejoin:round; stroke-width:4; stroke-opacity:1; fill:none" points="1159.88,1423.18 1159.88,1404.28 "/>
<polyline clip-path="url(#clip750)" style="stroke:#000000; stroke-linecap:round; stroke-linejoin:round; stroke-width:4; stroke-opacity:1; fill:none" points="1726.57,1423.18 1726.57,1404.28 "/>
<polyline clip-path="url(#clip750)" style="stroke:#000000; stroke-linecap:round; stroke-linejoin:round; stroke-width:4; stroke-opacity:1; fill:none" points="2293.25,1423.18 2293.25,1404.28 "/>
<path clip-path="url(#clip750)" d="M587.85 1481.64 L604.169 1481.64 L604.169 1485.58 L582.225 1485.58 L582.225 1481.64 Q584.887 1478.89 589.47 1474.26 Q594.077 1469.61 595.257 1468.27 Q597.503 1465.74 598.382 1464.01 Q599.285 1462.25 599.285 1460.56 Q599.285 1457.8 597.341 1456.07 Q595.419 1454.33 592.317 1454.33 Q590.118 1454.33 587.665 1455.09 Q585.234 1455.86 582.456 1457.41 L582.456 1452.69 Q585.28 1451.55 587.734 1450.97 Q590.188 1450.39 592.225 1450.39 Q597.595 1450.39 600.79 1453.08 Q603.984 1455.77 603.984 1460.26 Q603.984 1462.39 603.174 1464.31 Q602.387 1466.2 600.28 1468.8 Q599.702 1469.47 596.6 1472.69 Q593.498 1475.88 587.85 1481.64 Z" fill="#000000" fill-rule="nonzero" fill-opacity="1" /><path clip-path="url(#clip750)" d="M1162.89 1455.09 L1151.09 1473.54 L1162.89 1473.54 L1162.89 1455.09 M1161.67 1451.02 L1167.54 1451.02 L1167.54 1473.54 L1172.48 1473.54 L1172.48 1477.43 L1167.54 1477.43 L1167.54 1485.58 L1162.89 1485.58 L1162.89 1477.43 L1147.29 1477.43 L1147.29 1472.92 L1161.67 1451.02 Z" fill="#000000" fill-rule="nonzero" fill-opacity="1" /><path clip-path="url(#clip750)" d="M1726.97 1466.44 Q1723.83 1466.44 1721.97 1468.59 Q1720.14 1470.74 1720.14 1474.49 Q1720.14 1478.22 1721.97 1480.39 Q1723.83 1482.55 1726.97 1482.55 Q1730.12 1482.55 1731.95 1480.39 Q1733.8 1478.22 1733.8 1474.49 Q1733.8 1470.74 1731.95 1468.59 Q1730.12 1466.44 1726.97 1466.44 M1736.26 1451.78 L1736.26 1456.04 Q1734.5 1455.21 1732.69 1454.77 Q1730.91 1454.33 1729.15 1454.33 Q1724.52 1454.33 1722.07 1457.45 Q1719.64 1460.58 1719.29 1466.9 Q1720.65 1464.89 1722.71 1463.82 Q1724.77 1462.73 1727.25 1462.73 Q1732.46 1462.73 1735.47 1465.9 Q1738.5 1469.05 1738.5 1474.49 Q1738.5 1479.82 1735.35 1483.03 Q1732.2 1486.25 1726.97 1486.25 Q1720.98 1486.25 1717.81 1481.67 Q1714.64 1477.06 1714.64 1468.33 Q1714.64 1460.14 1718.52 1455.28 Q1722.41 1450.39 1728.96 1450.39 Q1730.72 1450.39 1732.51 1450.74 Q1734.31 1451.09 1736.26 1451.78 Z" fill="#000000" fill-rule="nonzero" fill-opacity="1" /><path clip-path="url(#clip750)" d="M2293.25 1469.17 Q2289.92 1469.17 2288 1470.95 Q2286.1 1472.73 2286.1 1475.86 Q2286.1 1478.98 2288 1480.77 Q2289.92 1482.55 2293.25 1482.55 Q2296.59 1482.55 2298.51 1480.77 Q2300.43 1478.96 2300.43 1475.86 Q2300.43 1472.73 2298.51 1470.95 Q2296.61 1469.17 2293.25 1469.17 M2288.58 1467.18 Q2285.57 1466.44 2283.88 1464.38 Q2282.21 1462.32 2282.21 1459.35 Q2282.21 1455.21 2285.15 1452.8 Q2288.12 1450.39 2293.25 1450.39 Q2298.42 1450.39 2301.36 1452.8 Q2304.3 1455.21 2304.3 1459.35 Q2304.3 1462.32 2302.61 1464.38 Q2300.94 1466.44 2297.95 1467.18 Q2301.33 1467.96 2303.21 1470.26 Q2305.11 1472.55 2305.11 1475.86 Q2305.11 1480.88 2302.03 1483.57 Q2298.97 1486.25 2293.25 1486.25 Q2287.54 1486.25 2284.46 1483.57 Q2281.4 1480.88 2281.4 1475.86 Q2281.4 1472.55 2283.3 1470.26 Q2285.2 1467.96 2288.58 1467.18 M2286.87 1459.79 Q2286.87 1462.48 2288.53 1463.98 Q2290.22 1465.49 2293.25 1465.49 Q2296.26 1465.49 2297.95 1463.98 Q2299.67 1462.48 2299.67 1459.79 Q2299.67 1457.11 2297.95 1455.6 Q2296.26 1454.1 2293.25 1454.1 Q2290.22 1454.1 2288.53 1455.6 Q2286.87 1457.11 2286.87 1459.79 Z" fill="#000000" fill-rule="nonzero" fill-opacity="1" /><path clip-path="url(#clip750)" d="M1100 1525.81 L1100 1562.76 L1107.77 1562.76 Q1117.6 1562.76 1122.15 1558.3 Q1126.74 1553.85 1126.74 1544.24 Q1126.74 1534.69 1122.15 1530.26 Q1117.6 1525.81 1107.77 1525.81 L1100 1525.81 M1093.57 1520.52 L1106.78 1520.52 Q1120.59 1520.52 1127.05 1526.28 Q1133.52 1532.01 1133.52 1544.24 Q1133.52 1556.52 1127.02 1562.28 Q1120.53 1568.04 1106.78 1568.04 L1093.57 1568.04 L1093.57 1520.52 Z" fill="#000000" fill-rule="nonzero" fill-opacity="1" /><path clip-path="url(#clip750)" d="M1143.51 1532.4 L1149.37 1532.4 L1149.37 1568.04 L1143.51 1568.04 L1143.51 1532.4 M1143.51 1518.52 L1149.37 1518.52 L1149.37 1525.93 L1143.51 1525.93 L1143.51 1518.52 Z" fill="#000000" fill-rule="nonzero" fill-opacity="1" /><path clip-path="url(#clip750)" d="M1184.35 1533.45 L1184.35 1538.98 Q1181.86 1537.71 1179.19 1537.07 Q1176.52 1536.44 1173.65 1536.44 Q1169.29 1536.44 1167.09 1537.77 Q1164.93 1539.11 1164.93 1541.79 Q1164.93 1543.82 1166.49 1545 Q1168.05 1546.15 1172.76 1547.2 L1174.77 1547.64 Q1181 1548.98 1183.61 1551.43 Q1186.26 1553.85 1186.26 1558.21 Q1186.26 1563.17 1182.31 1566.07 Q1178.39 1568.97 1171.52 1568.97 Q1168.65 1568.97 1165.53 1568.39 Q1162.45 1567.85 1159.01 1566.74 L1159.01 1560.69 Q1162.26 1562.38 1165.41 1563.24 Q1168.56 1564.07 1171.65 1564.07 Q1175.78 1564.07 1178.01 1562.66 Q1180.24 1561.23 1180.24 1558.65 Q1180.24 1556.27 1178.62 1554.99 Q1177.02 1553.72 1171.58 1552.54 L1169.55 1552.07 Q1164.1 1550.92 1161.68 1548.56 Q1159.26 1546.18 1159.26 1542.04 Q1159.26 1537.01 1162.83 1534.27 Q1166.39 1531.54 1172.95 1531.54 Q1176.2 1531.54 1179.06 1532.01 Q1181.93 1532.49 1184.35 1533.45 Z" fill="#000000" fill-rule="nonzero" fill-opacity="1" /><path clip-path="url(#clip750)" d="M1221.23 1533.76 L1221.23 1539.24 Q1218.75 1537.87 1216.24 1537.2 Q1213.76 1536.5 1211.21 1536.5 Q1205.51 1536.5 1202.36 1540.13 Q1199.21 1543.73 1199.21 1550.25 Q1199.21 1556.78 1202.36 1560.4 Q1205.51 1564 1211.21 1564 Q1213.76 1564 1216.24 1563.33 Q1218.75 1562.63 1221.23 1561.26 L1221.23 1566.68 Q1218.78 1567.82 1216.14 1568.39 Q1213.53 1568.97 1210.57 1568.97 Q1202.52 1568.97 1197.78 1563.91 Q1193.03 1558.85 1193.03 1550.25 Q1193.03 1541.53 1197.81 1536.53 Q1202.62 1531.54 1210.95 1531.54 Q1213.66 1531.54 1216.24 1532.11 Q1218.82 1532.65 1221.23 1533.76 Z" fill="#000000" fill-rule="nonzero" fill-opacity="1" /><path clip-path="url(#clip750)" d="M1252.39 1520.52 L1258.82 1520.52 L1258.82 1568.04 L1252.39 1568.04 L1252.39 1520.52 Z" fill="#000000" fill-rule="nonzero" fill-opacity="1" /><path clip-path="url(#clip750)" d="M1301 1546.53 L1301 1568.04 L1295.14 1568.04 L1295.14 1546.72 Q1295.14 1541.66 1293.17 1539.14 Q1291.19 1536.63 1287.25 1536.63 Q1282.5 1536.63 1279.77 1539.65 Q1277.03 1542.68 1277.03 1547.9 L1277.03 1568.04 L1271.14 1568.04 L1271.14 1532.4 L1277.03 1532.4 L1277.03 1537.93 Q1279.13 1534.72 1281.96 1533.13 Q1284.83 1531.54 1288.55 1531.54 Q1294.7 1531.54 1297.85 1535.36 Q1301 1539.14 1301 1546.53 Z" fill="#000000" fill-rule="nonzero" fill-opacity="1" /><path clip-path="url(#clip750)" d="M1336.14 1537.81 L1336.14 1518.52 L1341.99 1518.52 L1341.99 1568.04 L1336.14 1568.04 L1336.14 1562.7 Q1334.29 1565.88 1331.46 1567.44 Q1328.66 1568.97 1324.71 1568.97 Q1318.25 1568.97 1314.17 1563.81 Q1310.13 1558.65 1310.13 1550.25 Q1310.13 1541.85 1314.17 1536.69 Q1318.25 1531.54 1324.71 1531.54 Q1328.66 1531.54 1331.46 1533.1 Q1334.29 1534.62 1336.14 1537.81 M1316.18 1550.25 Q1316.18 1556.71 1318.82 1560.4 Q1321.49 1564.07 1326.14 1564.07 Q1330.79 1564.07 1333.46 1560.4 Q1336.14 1556.71 1336.14 1550.25 Q1336.14 1543.79 1333.46 1540.13 Q1330.79 1536.44 1326.14 1536.44 Q1321.49 1536.44 1318.82 1540.13 Q1316.18 1543.79 1316.18 1550.25 Z" fill="#000000" fill-rule="nonzero" fill-opacity="1" /><path clip-path="url(#clip750)" d="M1384.55 1548.76 L1384.55 1551.62 L1357.62 1551.62 Q1358 1557.67 1361.25 1560.85 Q1364.53 1564 1370.35 1564 Q1373.73 1564 1376.88 1563.17 Q1380.06 1562.35 1383.18 1560.69 L1383.18 1566.23 Q1380.03 1567.57 1376.72 1568.27 Q1373.41 1568.97 1370 1568.97 Q1361.47 1568.97 1356.47 1564 Q1351.51 1559.04 1351.51 1550.57 Q1351.51 1541.82 1356.22 1536.69 Q1360.96 1531.54 1368.98 1531.54 Q1376.18 1531.54 1380.35 1536.18 Q1384.55 1540.8 1384.55 1548.76 M1378.69 1547.04 Q1378.63 1542.23 1375.99 1539.37 Q1373.38 1536.5 1369.05 1536.5 Q1364.14 1536.5 1361.18 1539.27 Q1358.26 1542.04 1357.81 1547.07 L1378.69 1547.04 Z" fill="#000000" fill-rule="nonzero" fill-opacity="1" /><path clip-path="url(#clip750)" d="M1422.65 1532.4 L1409.76 1549.74 L1423.31 1568.04 L1416.41 1568.04 L1406.03 1554.04 L1395.66 1568.04 L1388.75 1568.04 L1402.59 1549.39 L1389.93 1532.4 L1396.83 1532.4 L1406.29 1545.1 L1415.74 1532.4 L1422.65 1532.4 Z" fill="#000000" fill-rule="nonzero" fill-opacity="1" /><path clip-path="url(#clip750)" d="M1451.77 1518.52 L1465.26 1518.52 L1465.26 1523.07 L1457.63 1523.07 L1457.63 1572.09 L1465.26 1572.09 L1465.26 1576.64 L1451.77 1576.64 L1451.77 1518.52 Z" fill="#000000" fill-rule="nonzero" fill-opacity="1" /><path clip-path="url(#clip750)" d="M1477.74 1532.4 L1483.6 1532.4 L1483.6 1568.04 L1477.74 1568.04 L1477.74 1532.4 M1477.74 1518.52 L1483.6 1518.52 L1483.6 1525.93 L1477.74 1525.93 L1477.74 1518.52 Z" fill="#000000" fill-rule="nonzero" fill-opacity="1" /><path clip-path="url(#clip750)" d="M1509.54 1518.52 L1509.54 1576.64 L1496.04 1576.64 L1496.04 1572.09 L1503.65 1572.09 L1503.65 1523.07 L1496.04 1523.07 L1496.04 1518.52 L1509.54 1518.52 Z" fill="#000000" fill-rule="nonzero" fill-opacity="1" /><polyline clip-path="url(#clip750)" style="stroke:#000000; stroke-linecap:round; stroke-linejoin:round; stroke-width:4; stroke-opacity:1; fill:none" points="250.352,1423.18 250.352,47.2441 "/>
<polyline clip-path="url(#clip750)" style="stroke:#000000; stroke-linecap:round; stroke-linejoin:round; stroke-width:4; stroke-opacity:1; fill:none" points="250.352,1180.65 269.25,1180.65 "/>
<polyline clip-path="url(#clip750)" style="stroke:#000000; stroke-linecap:round; stroke-linejoin:round; stroke-width:4; stroke-opacity:1; fill:none" points="250.352,904.402 269.25,904.402 "/>
<polyline clip-path="url(#clip750)" style="stroke:#000000; stroke-linecap:round; stroke-linejoin:round; stroke-width:4; stroke-opacity:1; fill:none" points="250.352,628.153 269.25,628.153 "/>
<polyline clip-path="url(#clip750)" style="stroke:#000000; stroke-linecap:round; stroke-linejoin:round; stroke-width:4; stroke-opacity:1; fill:none" points="250.352,351.904 269.25,351.904 "/>
<polyline clip-path="url(#clip750)" style="stroke:#000000; stroke-linecap:round; stroke-linejoin:round; stroke-width:4; stroke-opacity:1; fill:none" points="250.352,75.6554 269.25,75.6554 "/>
<path clip-path="url(#clip750)" d="M130.857 1167.45 L119.052 1185.89 L130.857 1185.89 L130.857 1167.45 M129.63 1163.37 L135.51 1163.37 L135.51 1185.89 L140.441 1185.89 L140.441 1189.78 L135.51 1189.78 L135.51 1197.93 L130.857 1197.93 L130.857 1189.78 L115.256 1189.78 L115.256 1185.27 L129.63 1163.37 Z" fill="#000000" fill-rule="nonzero" fill-opacity="1" /><path clip-path="url(#clip750)" d="M148.172 1192.05 L153.056 1192.05 L153.056 1197.93 L148.172 1197.93 L148.172 1192.05 Z" fill="#000000" fill-rule="nonzero" fill-opacity="1" /><path clip-path="url(#clip750)" d="M173.82 1178.79 Q170.672 1178.79 168.82 1180.94 Q166.991 1183.09 166.991 1186.84 Q166.991 1190.57 168.82 1192.75 Q170.672 1194.9 173.82 1194.9 Q176.968 1194.9 178.797 1192.75 Q180.649 1190.57 180.649 1186.84 Q180.649 1183.09 178.797 1180.94 Q176.968 1178.79 173.82 1178.79 M183.102 1164.14 L183.102 1168.39 Q181.343 1167.56 179.538 1167.12 Q177.755 1166.68 175.996 1166.68 Q171.366 1166.68 168.913 1169.81 Q166.482 1172.93 166.135 1179.25 Q167.501 1177.24 169.561 1176.17 Q171.621 1175.08 174.098 1175.08 Q179.306 1175.08 182.315 1178.26 Q185.348 1181.4 185.348 1186.84 Q185.348 1192.17 182.2 1195.39 Q179.051 1198.6 173.82 1198.6 Q167.825 1198.6 164.653 1194.02 Q161.482 1189.41 161.482 1180.69 Q161.482 1172.49 165.371 1167.63 Q169.26 1162.75 175.811 1162.75 Q177.57 1162.75 179.352 1163.09 Q181.158 1163.44 183.102 1164.14 Z" fill="#000000" fill-rule="nonzero" fill-opacity="1" /><path clip-path="url(#clip750)" d="M193.45 1163.37 L211.806 1163.37 L211.806 1167.31 L197.732 1167.31 L197.732 1175.78 Q198.75 1175.43 199.769 1175.27 Q200.787 1175.08 201.806 1175.08 Q207.593 1175.08 210.973 1178.26 Q214.352 1181.43 214.352 1186.84 Q214.352 1192.42 210.88 1195.52 Q207.408 1198.6 201.088 1198.6 Q198.912 1198.6 196.644 1198.23 Q194.399 1197.86 191.991 1197.12 L191.991 1192.42 Q194.075 1193.56 196.297 1194.11 Q198.519 1194.67 200.996 1194.67 Q205 1194.67 207.338 1192.56 Q209.676 1190.45 209.676 1186.84 Q209.676 1183.23 207.338 1181.13 Q205 1179.02 200.996 1179.02 Q199.121 1179.02 197.246 1179.44 Q195.394 1179.85 193.45 1180.73 L193.45 1163.37 Z" fill="#000000" fill-rule="nonzero" fill-opacity="1" /><path clip-path="url(#clip750)" d="M129.862 891.196 L118.056 909.645 L129.862 909.645 L129.862 891.196 M128.635 887.122 L134.515 887.122 L134.515 909.645 L139.445 909.645 L139.445 913.534 L134.515 913.534 L134.515 921.682 L129.862 921.682 L129.862 913.534 L114.26 913.534 L114.26 909.02 L128.635 887.122 Z" fill="#000000" fill-rule="nonzero" fill-opacity="1" /><path clip-path="url(#clip750)" d="M147.177 915.803 L152.061 915.803 L152.061 921.682 L147.177 921.682 L147.177 915.803 Z" fill="#000000" fill-rule="nonzero" fill-opacity="1" /><path clip-path="url(#clip750)" d="M161.065 887.122 L183.288 887.122 L183.288 889.113 L170.741 921.682 L165.857 921.682 L177.663 891.058 L161.065 891.058 L161.065 887.122 Z" fill="#000000" fill-rule="nonzero" fill-opacity="1" /><path clip-path="url(#clip750)" d="M202.408 890.201 Q198.797 890.201 196.968 893.766 Q195.163 897.307 195.163 904.437 Q195.163 911.544 196.968 915.108 Q198.797 918.65 202.408 918.65 Q206.042 918.65 207.848 915.108 Q209.676 911.544 209.676 904.437 Q209.676 897.307 207.848 893.766 Q206.042 890.201 202.408 890.201 M202.408 886.497 Q208.218 886.497 211.274 891.104 Q214.352 895.687 214.352 904.437 Q214.352 913.164 211.274 917.77 Q208.218 922.354 202.408 922.354 Q196.598 922.354 193.519 917.77 Q190.463 913.164 190.463 904.437 Q190.463 895.687 193.519 891.104 Q196.598 886.497 202.408 886.497 Z" fill="#000000" fill-rule="nonzero" fill-opacity="1" /><path clip-path="url(#clip750)" d="M130.857 614.947 L119.052 633.396 L130.857 633.396 L130.857 614.947 M129.63 610.873 L135.51 610.873 L135.51 633.396 L140.441 633.396 L140.441 637.285 L135.51 637.285 L135.51 645.433 L130.857 645.433 L130.857 637.285 L115.256 637.285 L115.256 632.771 L129.63 610.873 Z" fill="#000000" fill-rule="nonzero" fill-opacity="1" /><path clip-path="url(#clip750)" d="M148.172 639.554 L153.056 639.554 L153.056 645.433 L148.172 645.433 L148.172 639.554 Z" fill="#000000" fill-rule="nonzero" fill-opacity="1" /><path clip-path="url(#clip750)" d="M162.061 610.873 L184.283 610.873 L184.283 612.864 L171.737 645.433 L166.852 645.433 L178.658 614.809 L162.061 614.809 L162.061 610.873 Z" fill="#000000" fill-rule="nonzero" fill-opacity="1" /><path clip-path="url(#clip750)" d="M193.45 610.873 L211.806 610.873 L211.806 614.809 L197.732 614.809 L197.732 623.281 Q198.75 622.933 199.769 622.771 Q200.787 622.586 201.806 622.586 Q207.593 622.586 210.973 625.758 Q214.352 628.929 214.352 634.345 Q214.352 639.924 210.88 643.026 Q207.408 646.105 201.088 646.105 Q198.912 646.105 196.644 645.734 Q194.399 645.364 191.991 644.623 L191.991 639.924 Q194.075 641.058 196.297 641.614 Q198.519 642.17 200.996 642.17 Q205 642.17 207.338 640.063 Q209.676 637.957 209.676 634.345 Q209.676 630.734 207.338 628.628 Q205 626.521 200.996 626.521 Q199.121 626.521 197.246 626.938 Q195.394 627.355 193.45 628.234 L193.45 610.873 Z" fill="#000000" fill-rule="nonzero" fill-opacity="1" /><path clip-path="url(#clip750)" d="M129.862 338.698 L118.056 357.147 L129.862 357.147 L129.862 338.698 M128.635 334.624 L134.515 334.624 L134.515 357.147 L139.445 357.147 L139.445 361.036 L134.515 361.036 L134.515 369.184 L129.862 369.184 L129.862 361.036 L114.26 361.036 L114.26 356.522 L128.635 334.624 Z" fill="#000000" fill-rule="nonzero" fill-opacity="1" /><path clip-path="url(#clip750)" d="M147.177 363.305 L152.061 363.305 L152.061 369.184 L147.177 369.184 L147.177 363.305 Z" fill="#000000" fill-rule="nonzero" fill-opacity="1" /><path clip-path="url(#clip750)" d="M172.246 352.772 Q168.913 352.772 166.991 354.555 Q165.093 356.337 165.093 359.462 Q165.093 362.587 166.991 364.37 Q168.913 366.152 172.246 366.152 Q175.579 366.152 177.501 364.37 Q179.422 362.564 179.422 359.462 Q179.422 356.337 177.501 354.555 Q175.602 352.772 172.246 352.772 M167.57 350.782 Q164.561 350.041 162.871 347.981 Q161.204 345.921 161.204 342.958 Q161.204 338.814 164.144 336.407 Q167.107 333.999 172.246 333.999 Q177.408 333.999 180.348 336.407 Q183.288 338.814 183.288 342.958 Q183.288 345.921 181.598 347.981 Q179.931 350.041 176.945 350.782 Q180.325 351.569 182.2 353.86 Q184.098 356.152 184.098 359.462 Q184.098 364.485 181.019 367.171 Q177.964 369.856 172.246 369.856 Q166.528 369.856 163.45 367.171 Q160.394 364.485 160.394 359.462 Q160.394 356.152 162.292 353.86 Q164.19 351.569 167.57 350.782 M165.857 343.398 Q165.857 346.083 167.524 347.587 Q169.214 349.092 172.246 349.092 Q175.255 349.092 176.945 347.587 Q178.658 346.083 178.658 343.398 Q178.658 340.712 176.945 339.208 Q175.255 337.703 172.246 337.703 Q169.214 337.703 167.524 339.208 Q165.857 340.712 165.857 343.398 Z" fill="#000000" fill-rule="nonzero" fill-opacity="1" /><path clip-path="url(#clip750)" d="M202.408 337.703 Q198.797 337.703 196.968 341.268 Q195.163 344.81 195.163 351.939 Q195.163 359.046 196.968 362.61 Q198.797 366.152 202.408 366.152 Q206.042 366.152 207.848 362.61 Q209.676 359.046 209.676 351.939 Q209.676 344.81 207.848 341.268 Q206.042 337.703 202.408 337.703 M202.408 333.999 Q208.218 333.999 211.274 338.606 Q214.352 343.189 214.352 351.939 Q214.352 360.666 211.274 365.272 Q208.218 369.856 202.408 369.856 Q196.598 369.856 193.519 365.272 Q190.463 360.666 190.463 351.939 Q190.463 343.189 193.519 338.606 Q196.598 333.999 202.408 333.999 Z" fill="#000000" fill-rule="nonzero" fill-opacity="1" /><path clip-path="url(#clip750)" d="M130.857 62.4495 L119.052 80.8985 L130.857 80.8985 L130.857 62.4495 M129.63 58.3754 L135.51 58.3754 L135.51 80.8985 L140.441 80.8985 L140.441 84.7873 L135.51 84.7873 L135.51 92.9354 L130.857 92.9354 L130.857 84.7873 L115.256 84.7873 L115.256 80.2735 L129.63 58.3754 Z" fill="#000000" fill-rule="nonzero" fill-opacity="1" /><path clip-path="url(#clip750)" d="M148.172 87.0558 L153.056 87.0558 L153.056 92.9354 L148.172 92.9354 L148.172 87.0558 Z" fill="#000000" fill-rule="nonzero" fill-opacity="1" /><path clip-path="url(#clip750)" d="M173.241 76.5235 Q169.908 76.5235 167.987 78.3059 Q166.089 80.0883 166.089 83.2133 Q166.089 86.3382 167.987 88.1206 Q169.908 89.903 173.241 89.903 Q176.575 89.903 178.496 88.1206 Q180.417 86.3151 180.417 83.2133 Q180.417 80.0883 178.496 78.3059 Q176.598 76.5235 173.241 76.5235 M168.565 74.5327 Q165.556 73.792 163.866 71.7318 Q162.2 69.6717 162.2 66.7087 Q162.2 62.5652 165.14 60.1578 Q168.102 57.7504 173.241 57.7504 Q178.403 57.7504 181.343 60.1578 Q184.283 62.5652 184.283 66.7087 Q184.283 69.6717 182.593 71.7318 Q180.926 73.792 177.94 74.5327 Q181.32 75.3198 183.195 77.6114 Q185.093 79.9031 185.093 83.2133 Q185.093 88.2364 182.014 90.9215 Q178.959 93.6067 173.241 93.6067 Q167.524 93.6067 164.445 90.9215 Q161.39 88.2364 161.39 83.2133 Q161.39 79.9031 163.288 77.6114 Q165.186 75.3198 168.565 74.5327 M166.852 67.1485 Q166.852 69.8337 168.519 71.3383 Q170.209 72.8429 173.241 72.8429 Q176.251 72.8429 177.94 71.3383 Q179.653 69.8337 179.653 67.1485 Q179.653 64.4634 177.94 62.9587 Q176.251 61.4541 173.241 61.4541 Q170.209 61.4541 168.519 62.9587 Q166.852 64.4634 166.852 67.1485 Z" fill="#000000" fill-rule="nonzero" fill-opacity="1" /><path clip-path="url(#clip750)" d="M193.45 58.3754 L211.806 58.3754 L211.806 62.3106 L197.732 62.3106 L197.732 70.7828 Q198.75 70.4355 199.769 70.2735 Q200.787 70.0883 201.806 70.0883 Q207.593 70.0883 210.973 73.2596 Q214.352 76.4309 214.352 81.8475 Q214.352 87.4262 210.88 90.528 Q207.408 93.6067 201.088 93.6067 Q198.912 93.6067 196.644 93.2363 Q194.399 92.866 191.991 92.1252 L191.991 87.4262 Q194.075 88.5604 196.297 89.116 Q198.519 89.6716 200.996 89.6716 Q205 89.6716 207.338 87.5651 Q209.676 85.4586 209.676 81.8475 Q209.676 78.2364 207.338 76.13 Q205 74.0235 200.996 74.0235 Q199.121 74.0235 197.246 74.4402 Q195.394 74.8568 193.45 75.7364 L193.45 58.3754 Z" fill="#000000" fill-rule="nonzero" fill-opacity="1" /><path clip-path="url(#clip750)" d="M21.7677 981.565 L58.7206 981.565 L58.7206 973.799 Q58.7206 963.964 54.2646 959.412 Q49.8086 954.829 40.1964 954.829 Q30.6479 954.829 26.2237 959.412 Q21.7677 963.964 21.7677 973.799 L21.7677 981.565 M16.4842 987.994 L16.4842 974.785 Q16.4842 960.972 22.2451 954.511 Q27.9743 948.049 40.1964 948.049 Q52.4822 948.049 58.2432 954.542 Q64.0042 961.035 64.0042 974.785 L64.0042 987.994 L16.4842 987.994 Z" fill="#000000" fill-rule="nonzero" fill-opacity="1" /><path clip-path="url(#clip750)" d="M28.3562 938.055 L28.3562 932.199 L64.0042 932.199 L64.0042 938.055 L28.3562 938.055 M14.479 938.055 L14.479 932.199 L21.895 932.199 L21.895 938.055 L14.479 938.055 Z" fill="#000000" fill-rule="nonzero" fill-opacity="1" /><path clip-path="url(#clip750)" d="M29.4065 897.219 L34.9447 897.219 Q33.6716 899.702 33.035 902.375 Q32.3984 905.049 32.3984 907.914 Q32.3984 912.274 33.7352 914.47 Q35.072 916.635 37.7456 916.635 Q39.7826 916.635 40.9603 915.075 Q42.1061 913.515 43.1565 908.805 L43.6021 906.8 Q44.9389 900.561 47.3897 897.951 Q49.8086 895.309 54.1691 895.309 Q59.1344 895.309 62.0308 899.256 Q64.9272 903.171 64.9272 910.046 Q64.9272 912.911 64.3543 916.03 Q63.8132 919.117 62.6992 922.555 L56.6518 922.555 Q58.3387 919.308 59.198 916.157 Q60.0256 913.006 60.0256 909.919 Q60.0256 905.781 58.6251 903.553 Q57.1929 901.325 54.6147 901.325 Q52.2276 901.325 50.9545 902.948 Q49.6813 904.54 48.5037 909.982 L48.0262 912.019 Q46.8804 917.462 44.5251 919.881 Q42.138 922.3 38.0002 922.3 Q32.9713 922.3 30.2341 918.735 Q27.4968 915.17 27.4968 908.614 Q27.4968 905.367 27.9743 902.503 Q28.4517 899.638 29.4065 897.219 Z" fill="#000000" fill-rule="nonzero" fill-opacity="1" /><path clip-path="url(#clip750)" d="M18.2347 880.191 L28.3562 880.191 L28.3562 868.128 L32.9077 868.128 L32.9077 880.191 L52.2594 880.191 Q56.6199 880.191 57.8613 879.013 Q59.1026 877.804 59.1026 874.144 L59.1026 868.128 L64.0042 868.128 L64.0042 874.144 Q64.0042 880.923 61.4897 883.501 Q58.9434 886.079 52.2594 886.079 L32.9077 886.079 L32.9077 890.376 L28.3562 890.376 L28.3562 886.079 L18.2347 886.079 L18.2347 880.191 Z" fill="#000000" fill-rule="nonzero" fill-opacity="1" /><path clip-path="url(#clip750)" d="M46.0847 844.225 Q46.0847 851.322 47.7079 854.06 Q49.3312 856.797 53.2461 856.797 Q56.3653 856.797 58.2114 854.76 Q60.0256 852.691 60.0256 849.158 Q60.0256 844.288 56.5881 841.36 Q53.1188 838.4 47.3897 838.4 L46.0847 838.4 L46.0847 844.225 M43.6657 832.544 L64.0042 832.544 L64.0042 838.4 L58.5933 838.4 Q61.8398 840.405 63.3994 843.397 Q64.9272 846.389 64.9272 850.718 Q64.9272 856.192 61.8716 859.439 Q58.7843 862.653 53.6281 862.653 Q47.6125 862.653 44.5569 858.643 Q41.5014 854.601 41.5014 846.612 L41.5014 838.4 L40.9285 838.4 Q36.8862 838.4 34.6901 841.074 Q32.4621 843.715 32.4621 848.522 Q32.4621 851.577 33.1941 854.473 Q33.9262 857.37 35.3903 860.043 L29.9795 860.043 Q28.7381 856.829 28.1334 853.805 Q27.4968 850.781 27.4968 847.917 Q27.4968 840.182 31.5072 836.363 Q35.5176 832.544 43.6657 832.544 Z" fill="#000000" fill-rule="nonzero" fill-opacity="1" /><path clip-path="url(#clip750)" d="M42.4881 790.848 L64.0042 790.848 L64.0042 796.705 L42.679 796.705 Q37.6183 796.705 35.1038 798.678 Q32.5894 800.651 32.5894 804.598 Q32.5894 809.341 35.6131 812.078 Q38.6368 814.815 43.8567 814.815 L64.0042 814.815 L64.0042 820.703 L28.3562 820.703 L28.3562 814.815 L33.8944 814.815 Q30.6797 812.714 29.0883 809.882 Q27.4968 807.017 27.4968 803.293 Q27.4968 797.15 31.3163 793.999 Q35.1038 790.848 42.4881 790.848 Z" fill="#000000" fill-rule="nonzero" fill-opacity="1" /><path clip-path="url(#clip750)" d="M29.7248 753.513 L35.1993 753.513 Q33.8307 755.996 33.1623 758.51 Q32.4621 760.993 32.4621 763.539 Q32.4621 769.237 36.0905 772.388 Q39.6872 775.539 46.212 775.539 Q52.7369 775.539 56.3653 772.388 Q59.9619 769.237 59.9619 763.539 Q59.9619 760.993 59.2935 758.51 Q58.5933 755.996 57.2247 753.513 L62.6355 753.513 Q63.7814 755.964 64.3543 758.606 Q64.9272 761.216 64.9272 764.176 Q64.9272 772.229 59.8664 776.971 Q54.8057 781.713 46.212 781.713 Q37.491 781.713 32.4939 776.939 Q27.4968 772.133 27.4968 763.794 Q27.4968 761.089 28.0697 758.51 Q28.6108 755.932 29.7248 753.513 Z" fill="#000000" fill-rule="nonzero" fill-opacity="1" /><path clip-path="url(#clip750)" d="M44.7161 712.837 L47.5806 712.837 L47.5806 739.763 Q53.6281 739.382 56.8109 736.135 Q59.9619 732.857 59.9619 727.032 Q59.9619 723.658 59.1344 720.507 Q58.3069 717.324 56.6518 714.205 L62.1899 714.205 Q63.5267 717.356 64.227 720.666 Q64.9272 723.976 64.9272 727.382 Q64.9272 735.912 59.9619 740.909 Q54.9967 745.875 46.5303 745.875 Q37.7774 745.875 32.6531 741.164 Q27.4968 736.421 27.4968 728.401 Q27.4968 721.207 32.1438 717.038 Q36.7589 712.837 44.7161 712.837 M42.9973 718.693 Q38.1912 718.757 35.3266 721.398 Q32.4621 724.008 32.4621 728.337 Q32.4621 733.239 35.2312 736.199 Q38.0002 739.127 43.0292 739.572 L42.9973 718.693 Z" fill="#000000" fill-rule="nonzero" fill-opacity="1" /><path clip-path="url(#clip750)" d="M29.4065 680.499 L34.9447 680.499 Q33.6716 682.981 33.035 685.655 Q32.3984 688.329 32.3984 691.193 Q32.3984 695.554 33.7352 697.75 Q35.072 699.914 37.7456 699.914 Q39.7826 699.914 40.9603 698.355 Q42.1061 696.795 43.1565 692.084 L43.6021 690.079 Q44.9389 683.841 47.3897 681.231 Q49.8086 678.589 54.1691 678.589 Q59.1344 678.589 62.0308 682.536 Q64.9272 686.451 64.9272 693.326 Q64.9272 696.19 64.3543 699.309 Q63.8132 702.397 62.6992 705.834 L56.6518 705.834 Q58.3387 702.588 59.198 699.437 Q60.0256 696.286 60.0256 693.198 Q60.0256 689.061 58.6251 686.833 Q57.1929 684.605 54.6147 684.605 Q52.2276 684.605 50.9545 686.228 Q49.6813 687.819 48.5037 693.262 L48.0262 695.299 Q46.8804 700.742 44.5251 703.161 Q42.138 705.58 38.0002 705.58 Q32.9713 705.58 30.2341 702.015 Q27.4968 698.45 27.4968 691.893 Q27.4968 688.647 27.9743 685.782 Q28.4517 682.918 29.4065 680.499 Z" fill="#000000" fill-rule="nonzero" fill-opacity="1" /><path clip-path="url(#clip750)" d="M14.479 649.084 L14.479 635.589 L19.0304 635.589 L19.0304 643.228 L68.0464 643.228 L68.0464 635.589 L72.5979 635.589 L72.5979 649.084 L14.479 649.084 Z" fill="#000000" fill-rule="nonzero" fill-opacity="1" /><path clip-path="url(#clip750)" d="M35.1993 595.357 Q31.2526 593.161 29.3747 590.106 Q27.4968 587.05 27.4968 582.912 Q27.4968 577.342 31.4117 574.319 Q35.2948 571.295 42.4881 571.295 L64.0042 571.295 L64.0042 577.183 L42.679 577.183 Q37.5546 577.183 35.072 578.998 Q32.5894 580.812 32.5894 584.536 Q32.5894 589.087 35.6131 591.729 Q38.6368 594.371 43.8567 594.371 L64.0042 594.371 L64.0042 600.259 L42.679 600.259 Q37.5228 600.259 35.072 602.073 Q32.5894 603.887 32.5894 607.675 Q32.5894 612.163 35.6449 614.805 Q38.6686 617.446 43.8567 617.446 L64.0042 617.446 L64.0042 623.335 L28.3562 623.335 L28.3562 617.446 L33.8944 617.446 Q30.616 615.441 29.0564 612.64 Q27.4968 609.839 27.4968 605.988 Q27.4968 602.105 29.4702 599.4 Q31.4436 596.662 35.1993 595.357 Z" fill="#000000" fill-rule="nonzero" fill-opacity="1" /><path clip-path="url(#clip750)" d="M35.1993 531.859 Q31.2526 529.663 29.3747 526.608 Q27.4968 523.552 27.4968 519.415 Q27.4968 513.845 31.4117 510.821 Q35.2948 507.797 42.4881 507.797 L64.0042 507.797 L64.0042 513.685 L42.679 513.685 Q37.5546 513.685 35.072 515.5 Q32.5894 517.314 32.5894 521.038 Q32.5894 525.589 35.6131 528.231 Q38.6368 530.873 43.8567 530.873 L64.0042 530.873 L64.0042 536.761 L42.679 536.761 Q37.5228 536.761 35.072 538.575 Q32.5894 540.39 32.5894 544.177 Q32.5894 548.665 35.6449 551.307 Q38.6686 553.948 43.8567 553.948 L64.0042 553.948 L64.0042 559.837 L28.3562 559.837 L28.3562 553.948 L33.8944 553.948 Q30.616 551.943 29.0564 549.142 Q27.4968 546.341 27.4968 542.49 Q27.4968 538.607 29.4702 535.902 Q31.4436 533.164 35.1993 531.859 Z" fill="#000000" fill-rule="nonzero" fill-opacity="1" /><path clip-path="url(#clip750)" d="M14.479 482.43 L72.5979 482.43 L72.5979 495.925 L68.0464 495.925 L68.0464 488.318 L19.0304 488.318 L19.0304 495.925 L14.479 495.925 L14.479 482.43 Z" fill="#000000" fill-rule="nonzero" fill-opacity="1" /><circle clip-path="url(#clip752)" cx="309.854" cy="86.1857" r="14.4" fill="#009af9" fill-rule="evenodd" fill-opacity="1" stroke="#000000" stroke-opacity="1" stroke-width="3.2"/>
<circle clip-path="url(#clip752)" cx="593.197" cy="1384.24" r="14.4" fill="#009af9" fill-rule="evenodd" fill-opacity="1" stroke="#000000" stroke-opacity="1" stroke-width="3.2"/>
<circle clip-path="url(#clip752)" cx="876.54" cy="829.565" r="14.4" fill="#009af9" fill-rule="evenodd" fill-opacity="1" stroke="#000000" stroke-opacity="1" stroke-width="3.2"/>
<circle clip-path="url(#clip752)" cx="1159.88" cy="1271.05" r="14.4" fill="#009af9" fill-rule="evenodd" fill-opacity="1" stroke="#000000" stroke-opacity="1" stroke-width="3.2"/>
<circle clip-path="url(#clip752)" cx="1443.23" cy="1109.07" r="14.4" fill="#009af9" fill-rule="evenodd" fill-opacity="1" stroke="#000000" stroke-opacity="1" stroke-width="3.2"/>
<circle clip-path="url(#clip752)" cx="1726.57" cy="208.052" r="14.4" fill="#009af9" fill-rule="evenodd" fill-opacity="1" stroke="#000000" stroke-opacity="1" stroke-width="3.2"/>
<circle clip-path="url(#clip752)" cx="2009.91" cy="402.721" r="14.4" fill="#009af9" fill-rule="evenodd" fill-opacity="1" stroke="#000000" stroke-opacity="1" stroke-width="3.2"/>
<circle clip-path="url(#clip752)" cx="2293.25" cy="388.798" r="14.4" fill="#009af9" fill-rule="evenodd" fill-opacity="1" stroke="#000000" stroke-opacity="1" stroke-width="3.2"/>
<path clip-path="url(#clip750)" d="M2020.01 1377.32 L2282.68 1377.32 L2282.68 1273.64 L2020.01 1273.64  Z" fill="#ffffff" fill-rule="evenodd" fill-opacity="1"/>
<polyline clip-path="url(#clip750)" style="stroke:#000000; stroke-linecap:round; stroke-linejoin:round; stroke-width:4; stroke-opacity:1; fill:none" points="2020.01,1377.32 2282.68,1377.32 2282.68,1273.64 2020.01,1273.64 2020.01,1377.32 "/>
<circle clip-path="url(#clip750)" cx="2113.45" cy="1325.48" r="20.48" fill="#009af9" fill-rule="evenodd" fill-opacity="1" stroke="#000000" stroke-opacity="1" stroke-width="4.55111"/>
<path clip-path="url(#clip750)" d="M2220.73 1345.16 Q2218.92 1349.79 2217.21 1351.2 Q2215.5 1352.62 2212.63 1352.62 L2209.22 1352.62 L2209.22 1349.05 L2211.72 1349.05 Q2213.48 1349.05 2214.45 1348.22 Q2215.43 1347.38 2216.61 1344.28 L2217.37 1342.34 L2206.89 1316.83 L2211.4 1316.83 L2219.5 1337.11 L2227.6 1316.83 L2232.12 1316.83 L2220.73 1345.16 Z" fill="#000000" fill-rule="nonzero" fill-opacity="1" /><path clip-path="url(#clip750)" d="M2239.41 1338.82 L2247.05 1338.82 L2247.05 1312.45 L2238.74 1314.12 L2238.74 1309.86 L2247 1308.2 L2251.68 1308.2 L2251.68 1338.82 L2259.32 1338.82 L2259.32 1342.76 L2239.41 1342.76 L2239.41 1338.82 Z" fill="#000000" fill-rule="nonzero" fill-opacity="1" /></svg>
