<?xml version="1.0" encoding="utf-8"?>
<svg xmlns="http://www.w3.org/2000/svg" xmlns:xlink="http://www.w3.org/1999/xlink" width="600" height="400" viewBox="0 0 2400 1600">
<defs>
  <clipPath id="clip120">
    <rect x="0" y="0" width="2400" height="1600"/>
  </clipPath>
</defs>
<path clip-path="url(#clip120)" d="M0 1600 L2400 1600 L2400 0 L0 0  Z" fill="#ffffff" fill-rule="evenodd" fill-opacity="1"/>
<defs>
  <clipPath id="clip121">
    <rect x="480" y="0" width="1681" height="1600"/>
  </clipPath>
</defs>
<path clip-path="url(#clip120)" d="M264.287 1423.18 L2352.76 1423.18 L2352.76 47.2441 L264.287 47.2441  Z" fill="#ffffff" fill-rule="evenodd" fill-opacity="1"/>
<defs>
  <clipPath id="clip122">
    <rect x="264" y="47" width="2089" height="1377"/>
  </clipPath>
</defs>
<polyline clip-path="url(#clip122)" style="stroke:#000000; stroke-linecap:round; stroke-linejoin:round; stroke-width:2; stroke-opacity:0.1; fill:none" points="323.395,1423.18 323.395,47.2441 "/>
<polyline clip-path="url(#clip122)" style="stroke:#000000; stroke-linecap:round; stroke-linejoin:round; stroke-width:2; stroke-opacity:0.1; fill:none" points="815.958,1423.18 815.958,47.2441 "/>
<polyline clip-path="url(#clip122)" style="stroke:#000000; stroke-linecap:round; stroke-linejoin:round; stroke-width:2; stroke-opacity:0.1; fill:none" points="1308.52,1423.18 1308.52,47.2441 "/>
<polyline clip-path="url(#clip122)" style="stroke:#000000; stroke-linecap:round; stroke-linejoin:round; stroke-width:2; stroke-opacity:0.1; fill:none" points="1801.08,1423.18 1801.08,47.2441 "/>
<polyline clip-path="url(#clip122)" style="stroke:#000000; stroke-linecap:round; stroke-linejoin:round; stroke-width:2; stroke-opacity:0.1; fill:none" points="2293.65,1423.18 2293.65,47.2441 "/>
<polyline clip-path="url(#clip122)" style="stroke:#000000; stroke-linecap:round; stroke-linejoin:round; stroke-width:2; stroke-opacity:0.1; fill:none" points="264.287,1188.69 2352.76,1188.69 "/>
<polyline clip-path="url(#clip122)" style="stroke:#000000; stroke-linecap:round; stroke-linejoin:round; stroke-width:2; stroke-opacity:0.1; fill:none" points="264.287,931.829 2352.76,931.829 "/>
<polyline clip-path="url(#clip122)" style="stroke:#000000; stroke-linecap:round; stroke-linejoin:round; stroke-width:2; stroke-opacity:0.1; fill:none" points="264.287,674.966 2352.76,674.966 "/>
<polyline clip-path="url(#clip122)" style="stroke:#000000; stroke-linecap:round; stroke-linejoin:round; stroke-width:2; stroke-opacity:0.1; fill:none" points="264.287,418.103 2352.76,418.103 "/>
<polyline clip-path="url(#clip122)" style="stroke:#000000; stroke-linecap:round; stroke-linejoin:round; stroke-width:2; stroke-opacity:0.1; fill:none" points="264.287,161.241 2352.76,161.241 "/>
<polyline clip-path="url(#clip120)" style="stroke:#000000; stroke-linecap:round; stroke-linejoin:round; stroke-width:4; stroke-opacity:1; fill:none" points="264.287,1423.18 2352.76,1423.18 "/>
<polyline clip-path="url(#clip120)" style="stroke:#000000; stroke-linecap:round; stroke-linejoin:round; stroke-width:4; stroke-opacity:1; fill:none" points="323.395,1423.18 323.395,1404.28 "/>
<polyline clip-path="url(#clip120)" style="stroke:#000000; stroke-linecap:round; stroke-linejoin:round; stroke-width:4; stroke-opacity:1; fill:none" points="815.958,1423.18 815.958,1404.28 "/>
<polyline clip-path="url(#clip120)" style="stroke:#000000; stroke-linecap:round; stroke-linejoin:round; stroke-width:4; stroke-opacity:1; fill:none" points="1308.52,1423.18 1308.52,1404.28 "/>
<polyline clip-path="url(#clip120)" style="stroke:#000000; stroke-linecap:round; stroke-linejoin:round; stroke-width:4; stroke-opacity:1; fill:none" points="1801.08,1423.18 1801.08,1404.28 "/>
<polyline clip-path="url(#clip120)" style="stroke:#000000; stroke-linecap:round; stroke-linejoin:round; stroke-width:4; stroke-opacity:1; fill:none" points="2293.65,1423.18 2293.65,1404.28 "/>
<path clip-path="url(#clip120)" d="M264.472 1481.64 L280.791 1481.64 L280.791 1485.58 L258.847 1485.58 L258.847 1481.64 Q261.509 1478.89 266.092 1474.26 Q270.698 1469.61 271.879 1468.27 Q274.124 1465.74 275.004 1464.01 Q275.907 1462.25 275.907 1460.56 Q275.907 1457.8 273.962 1456.07 Q272.041 1454.33 268.939 1454.33 Q266.74 1454.33 264.286 1455.09 Q261.856 1455.86 259.078 1457.41 L259.078 1452.69 Q261.902 1451.55 264.356 1450.97 Q266.81 1450.39 268.847 1450.39 Q274.217 1450.39 277.411 1453.08 Q280.606 1455.77 280.606 1460.26 Q280.606 1462.39 279.796 1464.31 Q279.009 1466.2 276.902 1468.8 Q276.323 1469.47 273.222 1472.69 Q270.12 1475.88 264.472 1481.64 Z" fill="#000000" fill-rule="nonzero" fill-opacity="1" /><path clip-path="url(#clip120)" d="M290.745 1484.86 L290.745 1480.6 Q292.504 1481.44 294.309 1481.88 Q296.115 1482.32 297.851 1482.32 Q302.481 1482.32 304.911 1479.21 Q307.365 1476.09 307.712 1469.75 Q306.37 1471.74 304.309 1472.8 Q302.249 1473.87 299.749 1473.87 Q294.564 1473.87 291.532 1470.74 Q288.522 1467.59 288.522 1462.15 Q288.522 1456.83 291.671 1453.61 Q294.819 1450.39 300.05 1450.39 Q306.045 1450.39 309.194 1455 Q312.365 1459.58 312.365 1468.33 Q312.365 1476.51 308.476 1481.39 Q304.61 1486.25 298.059 1486.25 Q296.3 1486.25 294.495 1485.9 Q292.689 1485.56 290.745 1484.86 M300.05 1470.21 Q303.198 1470.21 305.027 1468.06 Q306.879 1465.9 306.879 1462.15 Q306.879 1458.43 305.027 1456.27 Q303.198 1454.1 300.05 1454.1 Q296.902 1454.1 295.05 1456.27 Q293.221 1458.43 293.221 1462.15 Q293.221 1465.9 295.05 1468.06 Q296.902 1470.21 300.05 1470.21 Z" fill="#000000" fill-rule="nonzero" fill-opacity="1" /><path clip-path="url(#clip120)" d="M320.768 1479.7 L325.652 1479.7 L325.652 1485.58 L320.768 1485.58 L320.768 1479.7 Z" fill="#000000" fill-rule="nonzero" fill-opacity="1" /><path clip-path="url(#clip120)" d="M335.976 1484.86 L335.976 1480.6 Q337.735 1481.44 339.541 1481.88 Q341.346 1482.32 343.082 1482.32 Q347.712 1482.32 350.142 1479.21 Q352.596 1476.09 352.943 1469.75 Q351.601 1471.74 349.541 1472.8 Q347.48 1473.87 344.98 1473.87 Q339.795 1473.87 336.763 1470.74 Q333.754 1467.59 333.754 1462.15 Q333.754 1456.83 336.902 1453.61 Q340.05 1450.39 345.281 1450.39 Q351.277 1450.39 354.425 1455 Q357.596 1459.58 357.596 1468.33 Q357.596 1476.51 353.707 1481.39 Q349.842 1486.25 343.291 1486.25 Q341.531 1486.25 339.726 1485.9 Q337.92 1485.56 335.976 1484.86 M345.281 1470.21 Q348.43 1470.21 350.258 1468.06 Q352.11 1465.9 352.11 1462.15 Q352.11 1458.43 350.258 1456.27 Q348.43 1454.1 345.281 1454.1 Q342.133 1454.1 340.281 1456.27 Q338.453 1458.43 338.453 1462.15 Q338.453 1465.9 340.281 1468.06 Q342.133 1470.21 345.281 1470.21 Z" fill="#000000" fill-rule="nonzero" fill-opacity="1" /><path clip-path="url(#clip120)" d="M375.999 1454.1 Q372.388 1454.1 370.559 1457.66 Q368.753 1461.2 368.753 1468.33 Q368.753 1475.44 370.559 1479.01 Q372.388 1482.55 375.999 1482.55 Q379.633 1482.55 381.439 1479.01 Q383.267 1475.44 383.267 1468.33 Q383.267 1461.2 381.439 1457.66 Q379.633 1454.1 375.999 1454.1 M375.999 1450.39 Q381.809 1450.39 384.865 1455 Q387.943 1459.58 387.943 1468.33 Q387.943 1477.06 384.865 1481.67 Q381.809 1486.25 375.999 1486.25 Q370.189 1486.25 367.11 1481.67 Q364.054 1477.06 364.054 1468.33 Q364.054 1459.58 367.11 1455 Q370.189 1450.39 375.999 1450.39 Z" fill="#000000" fill-rule="nonzero" fill-opacity="1" /><path clip-path="url(#clip120)" d="M757.533 1481.64 L773.852 1481.64 L773.852 1485.58 L751.908 1485.58 L751.908 1481.64 Q754.57 1478.89 759.153 1474.26 Q763.759 1469.61 764.94 1468.27 Q767.185 1465.74 768.065 1464.01 Q768.968 1462.25 768.968 1460.56 Q768.968 1457.8 767.023 1456.07 Q765.102 1454.33 762 1454.33 Q759.801 1454.33 757.347 1455.09 Q754.917 1455.86 752.139 1457.41 L752.139 1452.69 Q754.963 1451.55 757.417 1450.97 Q759.871 1450.39 761.908 1450.39 Q767.278 1450.39 770.472 1453.08 Q773.667 1455.77 773.667 1460.26 Q773.667 1462.39 772.857 1464.31 Q772.07 1466.2 769.963 1468.8 Q769.384 1469.47 766.283 1472.69 Q763.181 1475.88 757.533 1481.64 Z" fill="#000000" fill-rule="nonzero" fill-opacity="1" /><path clip-path="url(#clip120)" d="M783.806 1484.86 L783.806 1480.6 Q785.565 1481.44 787.37 1481.88 Q789.176 1482.32 790.912 1482.32 Q795.542 1482.32 797.972 1479.21 Q800.426 1476.09 800.773 1469.75 Q799.431 1471.74 797.37 1472.8 Q795.31 1473.87 792.81 1473.87 Q787.625 1473.87 784.593 1470.74 Q781.583 1467.59 781.583 1462.15 Q781.583 1456.83 784.732 1453.61 Q787.88 1450.39 793.111 1450.39 Q799.107 1450.39 802.255 1455 Q805.426 1459.58 805.426 1468.33 Q805.426 1476.51 801.537 1481.39 Q797.671 1486.25 791.12 1486.25 Q789.361 1486.25 787.556 1485.9 Q785.75 1485.56 783.806 1484.86 M793.111 1470.21 Q796.259 1470.21 798.088 1468.06 Q799.94 1465.9 799.94 1462.15 Q799.94 1458.43 798.088 1456.27 Q796.259 1454.1 793.111 1454.1 Q789.963 1454.1 788.111 1456.27 Q786.283 1458.43 786.283 1462.15 Q786.283 1465.9 788.111 1468.06 Q789.963 1470.21 793.111 1470.21 Z" fill="#000000" fill-rule="nonzero" fill-opacity="1" /><path clip-path="url(#clip120)" d="M813.829 1479.7 L818.713 1479.7 L818.713 1485.58 L813.829 1485.58 L813.829 1479.7 Z" fill="#000000" fill-rule="nonzero" fill-opacity="1" /><path clip-path="url(#clip120)" d="M829.037 1484.86 L829.037 1480.6 Q830.796 1481.44 832.602 1481.88 Q834.407 1482.32 836.143 1482.32 Q840.773 1482.32 843.203 1479.21 Q845.657 1476.09 846.004 1469.75 Q844.662 1471.74 842.602 1472.8 Q840.541 1473.87 838.041 1473.87 Q832.856 1473.87 829.824 1470.74 Q826.815 1467.59 826.815 1462.15 Q826.815 1456.83 829.963 1453.61 Q833.111 1450.39 838.342 1450.39 Q844.338 1450.39 847.486 1455 Q850.657 1459.58 850.657 1468.33 Q850.657 1476.51 846.768 1481.39 Q842.903 1486.25 836.352 1486.25 Q834.592 1486.25 832.787 1485.9 Q830.981 1485.56 829.037 1484.86 M838.342 1470.21 Q841.491 1470.21 843.319 1468.06 Q845.171 1465.9 845.171 1462.15 Q845.171 1458.43 843.319 1456.27 Q841.491 1454.1 838.342 1454.1 Q835.194 1454.1 833.342 1456.27 Q831.514 1458.43 831.514 1462.15 Q831.514 1465.9 833.342 1468.06 Q835.194 1470.21 838.342 1470.21 Z" fill="#000000" fill-rule="nonzero" fill-opacity="1" /><path clip-path="url(#clip120)" d="M859.106 1451.02 L877.463 1451.02 L877.463 1454.96 L863.389 1454.96 L863.389 1463.43 Q864.407 1463.08 865.426 1462.92 Q866.444 1462.73 867.463 1462.73 Q873.25 1462.73 876.629 1465.9 Q880.009 1469.08 880.009 1474.49 Q880.009 1480.07 876.537 1483.17 Q873.064 1486.25 866.745 1486.25 Q864.569 1486.25 862.301 1485.88 Q860.055 1485.51 857.648 1484.77 L857.648 1480.07 Q859.731 1481.2 861.953 1481.76 Q864.176 1482.32 866.652 1482.32 Q870.657 1482.32 872.995 1480.21 Q875.333 1478.1 875.333 1474.49 Q875.333 1470.88 872.995 1468.77 Q870.657 1466.67 866.652 1466.67 Q864.777 1466.67 862.902 1467.08 Q861.051 1467.5 859.106 1468.38 L859.106 1451.02 Z" fill="#000000" fill-rule="nonzero" fill-opacity="1" /><path clip-path="url(#clip120)" d="M1259.67 1466.95 Q1263.02 1467.66 1264.9 1469.93 Q1266.8 1472.2 1266.8 1475.53 Q1266.8 1480.65 1263.28 1483.45 Q1259.76 1486.25 1253.28 1486.25 Q1251.1 1486.25 1248.79 1485.81 Q1246.5 1485.39 1244.04 1484.54 L1244.04 1480.02 Q1245.99 1481.16 1248.3 1481.74 Q1250.62 1482.32 1253.14 1482.32 Q1257.54 1482.32 1259.83 1480.58 Q1262.14 1478.84 1262.14 1475.53 Q1262.14 1472.48 1259.99 1470.77 Q1257.86 1469.03 1254.04 1469.03 L1250.01 1469.03 L1250.01 1465.19 L1254.23 1465.19 Q1257.68 1465.19 1259.51 1463.82 Q1261.33 1462.43 1261.33 1459.84 Q1261.33 1457.18 1259.44 1455.77 Q1257.56 1454.33 1254.04 1454.33 Q1252.12 1454.33 1249.92 1454.75 Q1247.72 1455.16 1245.08 1456.04 L1245.08 1451.88 Q1247.75 1451.14 1250.06 1450.77 Q1252.4 1450.39 1254.46 1450.39 Q1259.78 1450.39 1262.89 1452.83 Q1265.99 1455.23 1265.99 1459.35 Q1265.99 1462.22 1264.34 1464.21 Q1262.7 1466.18 1259.67 1466.95 Z" fill="#000000" fill-rule="nonzero" fill-opacity="1" /><path clip-path="url(#clip120)" d="M1285.66 1454.1 Q1282.05 1454.1 1280.22 1457.66 Q1278.42 1461.2 1278.42 1468.33 Q1278.42 1475.44 1280.22 1479.01 Q1282.05 1482.55 1285.66 1482.55 Q1289.3 1482.55 1291.1 1479.01 Q1292.93 1475.44 1292.93 1468.33 Q1292.93 1461.2 1291.1 1457.66 Q1289.3 1454.1 1285.66 1454.1 M1285.66 1450.39 Q1291.47 1450.39 1294.53 1455 Q1297.61 1459.58 1297.61 1468.33 Q1297.61 1477.06 1294.53 1481.67 Q1291.47 1486.25 1285.66 1486.25 Q1279.85 1486.25 1276.77 1481.67 Q1273.72 1477.06 1273.72 1468.33 Q1273.72 1459.58 1276.77 1455 Q1279.85 1450.39 1285.66 1450.39 Z" fill="#000000" fill-rule="nonzero" fill-opacity="1" /><path clip-path="url(#clip120)" d="M1305.82 1479.7 L1310.71 1479.7 L1310.71 1485.58 L1305.82 1485.58 L1305.82 1479.7 Z" fill="#000000" fill-rule="nonzero" fill-opacity="1" /><path clip-path="url(#clip120)" d="M1330.89 1454.1 Q1327.28 1454.1 1325.45 1457.66 Q1323.65 1461.2 1323.65 1468.33 Q1323.65 1475.44 1325.45 1479.01 Q1327.28 1482.55 1330.89 1482.55 Q1334.53 1482.55 1336.33 1479.01 Q1338.16 1475.44 1338.16 1468.33 Q1338.16 1461.2 1336.33 1457.66 Q1334.53 1454.1 1330.89 1454.1 M1330.89 1450.39 Q1336.7 1450.39 1339.76 1455 Q1342.84 1459.58 1342.84 1468.33 Q1342.84 1477.06 1339.76 1481.67 Q1336.7 1486.25 1330.89 1486.25 Q1325.08 1486.25 1322.01 1481.67 Q1318.95 1477.06 1318.95 1468.33 Q1318.95 1459.58 1322.01 1455 Q1325.08 1450.39 1330.89 1450.39 Z" fill="#000000" fill-rule="nonzero" fill-opacity="1" /><path clip-path="url(#clip120)" d="M1361.06 1454.1 Q1357.44 1454.1 1355.62 1457.66 Q1353.81 1461.2 1353.81 1468.33 Q1353.81 1475.44 1355.62 1479.01 Q1357.44 1482.55 1361.06 1482.55 Q1364.69 1482.55 1366.5 1479.01 Q1368.32 1475.44 1368.32 1468.33 Q1368.32 1461.2 1366.5 1457.66 Q1364.69 1454.1 1361.06 1454.1 M1361.06 1450.39 Q1366.87 1450.39 1369.92 1455 Q1373 1459.58 1373 1468.33 Q1373 1477.06 1369.92 1481.67 Q1366.87 1486.25 1361.06 1486.25 Q1355.25 1486.25 1352.17 1481.67 Q1349.11 1477.06 1349.11 1468.33 Q1349.11 1459.58 1352.17 1455 Q1355.25 1450.39 1361.06 1450.39 Z" fill="#000000" fill-rule="nonzero" fill-opacity="1" /><path clip-path="url(#clip120)" d="M1752.73 1466.95 Q1756.09 1467.66 1757.96 1469.93 Q1759.86 1472.2 1759.86 1475.53 Q1759.86 1480.65 1756.34 1483.45 Q1752.82 1486.25 1746.34 1486.25 Q1744.16 1486.25 1741.85 1485.81 Q1739.56 1485.39 1737.1 1484.54 L1737.1 1480.02 Q1739.05 1481.16 1741.36 1481.74 Q1743.68 1482.32 1746.2 1482.32 Q1750.6 1482.32 1752.89 1480.58 Q1755.21 1478.84 1755.21 1475.53 Q1755.21 1472.48 1753.05 1470.77 Q1750.92 1469.03 1747.1 1469.03 L1743.08 1469.03 L1743.08 1465.19 L1747.29 1465.19 Q1750.74 1465.19 1752.57 1463.82 Q1754.4 1462.43 1754.4 1459.84 Q1754.4 1457.18 1752.5 1455.77 Q1750.62 1454.33 1747.1 1454.33 Q1745.18 1454.33 1742.98 1454.75 Q1740.78 1455.16 1738.15 1456.04 L1738.15 1451.88 Q1740.81 1451.14 1743.12 1450.77 Q1745.46 1450.39 1747.52 1450.39 Q1752.84 1450.39 1755.95 1452.83 Q1759.05 1455.23 1759.05 1459.35 Q1759.05 1462.22 1757.4 1464.21 Q1755.76 1466.18 1752.73 1466.95 Z" fill="#000000" fill-rule="nonzero" fill-opacity="1" /><path clip-path="url(#clip120)" d="M1778.72 1454.1 Q1775.11 1454.1 1773.28 1457.66 Q1771.48 1461.2 1771.48 1468.33 Q1771.48 1475.44 1773.28 1479.01 Q1775.11 1482.55 1778.72 1482.55 Q1782.36 1482.55 1784.16 1479.01 Q1785.99 1475.44 1785.99 1468.33 Q1785.99 1461.2 1784.16 1457.66 Q1782.36 1454.1 1778.72 1454.1 M1778.72 1450.39 Q1784.53 1450.39 1787.59 1455 Q1790.67 1459.58 1790.67 1468.33 Q1790.67 1477.06 1787.59 1481.67 Q1784.53 1486.25 1778.72 1486.25 Q1772.91 1486.25 1769.84 1481.67 Q1766.78 1477.06 1766.78 1468.33 Q1766.78 1459.58 1769.84 1455 Q1772.91 1450.39 1778.72 1450.39 Z" fill="#000000" fill-rule="nonzero" fill-opacity="1" /><path clip-path="url(#clip120)" d="M1798.89 1479.7 L1803.77 1479.7 L1803.77 1485.58 L1798.89 1485.58 L1798.89 1479.7 Z" fill="#000000" fill-rule="nonzero" fill-opacity="1" /><path clip-path="url(#clip120)" d="M1823.96 1454.1 Q1820.34 1454.1 1818.52 1457.66 Q1816.71 1461.2 1816.71 1468.33 Q1816.71 1475.44 1818.52 1479.01 Q1820.34 1482.55 1823.96 1482.55 Q1827.59 1482.55 1829.39 1479.01 Q1831.22 1475.44 1831.22 1468.33 Q1831.22 1461.2 1829.39 1457.66 Q1827.59 1454.1 1823.96 1454.1 M1823.96 1450.39 Q1829.77 1450.39 1832.82 1455 Q1835.9 1459.58 1835.9 1468.33 Q1835.9 1477.06 1832.82 1481.67 Q1829.77 1486.25 1823.96 1486.25 Q1818.15 1486.25 1815.07 1481.67 Q1812.01 1477.06 1812.01 1468.33 Q1812.01 1459.58 1815.07 1455 Q1818.15 1450.39 1823.96 1450.39 Z" fill="#000000" fill-rule="nonzero" fill-opacity="1" /><path clip-path="url(#clip120)" d="M1844.16 1451.02 L1862.52 1451.02 L1862.52 1454.96 L1848.45 1454.96 L1848.45 1463.43 Q1849.46 1463.08 1850.48 1462.92 Q1851.5 1462.73 1852.52 1462.73 Q1858.31 1462.73 1861.69 1465.9 Q1865.07 1469.08 1865.07 1474.49 Q1865.07 1480.07 1861.59 1483.17 Q1858.12 1486.25 1851.8 1486.25 Q1849.63 1486.25 1847.36 1485.88 Q1845.11 1485.51 1842.71 1484.77 L1842.71 1480.07 Q1844.79 1481.2 1847.01 1481.76 Q1849.23 1482.32 1851.71 1482.32 Q1855.71 1482.32 1858.05 1480.21 Q1860.39 1478.1 1860.39 1474.49 Q1860.39 1470.88 1858.05 1468.77 Q1855.71 1466.67 1851.71 1466.67 Q1849.83 1466.67 1847.96 1467.08 Q1846.11 1467.5 1844.16 1468.38 L1844.16 1451.02 Z" fill="#000000" fill-rule="nonzero" fill-opacity="1" /><path clip-path="url(#clip120)" d="M2244.79 1466.95 Q2248.15 1467.66 2250.03 1469.93 Q2251.92 1472.2 2251.92 1475.53 Q2251.92 1480.65 2248.41 1483.45 Q2244.89 1486.25 2238.41 1486.25 Q2236.23 1486.25 2233.91 1485.81 Q2231.62 1485.39 2229.17 1484.54 L2229.17 1480.02 Q2231.11 1481.16 2233.43 1481.74 Q2235.74 1482.32 2238.27 1482.32 Q2242.66 1482.32 2244.96 1480.58 Q2247.27 1478.84 2247.27 1475.53 Q2247.27 1472.48 2245.12 1470.77 Q2242.99 1469.03 2239.17 1469.03 L2235.14 1469.03 L2235.14 1465.19 L2239.35 1465.19 Q2242.8 1465.19 2244.63 1463.82 Q2246.46 1462.43 2246.46 1459.84 Q2246.46 1457.18 2244.56 1455.77 Q2242.69 1454.33 2239.17 1454.33 Q2237.25 1454.33 2235.05 1454.75 Q2232.85 1455.16 2230.21 1456.04 L2230.21 1451.88 Q2232.87 1451.14 2235.19 1450.77 Q2237.53 1450.39 2239.59 1450.39 Q2244.91 1450.39 2248.01 1452.83 Q2251.11 1455.23 2251.11 1459.35 Q2251.11 1462.22 2249.47 1464.21 Q2247.83 1466.18 2244.79 1466.95 Z" fill="#000000" fill-rule="nonzero" fill-opacity="1" /><path clip-path="url(#clip120)" d="M2270.79 1454.1 Q2267.18 1454.1 2265.35 1457.66 Q2263.54 1461.2 2263.54 1468.33 Q2263.54 1475.44 2265.35 1479.01 Q2267.18 1482.55 2270.79 1482.55 Q2274.42 1482.55 2276.23 1479.01 Q2278.06 1475.44 2278.06 1468.33 Q2278.06 1461.2 2276.23 1457.66 Q2274.42 1454.1 2270.79 1454.1 M2270.79 1450.39 Q2276.6 1450.39 2279.66 1455 Q2282.73 1459.58 2282.73 1468.33 Q2282.73 1477.06 2279.66 1481.67 Q2276.6 1486.25 2270.79 1486.25 Q2264.98 1486.25 2261.9 1481.67 Q2258.85 1477.06 2258.85 1468.33 Q2258.85 1459.58 2261.9 1455 Q2264.98 1450.39 2270.79 1450.39 Z" fill="#000000" fill-rule="nonzero" fill-opacity="1" /><path clip-path="url(#clip120)" d="M2290.95 1479.7 L2295.84 1479.7 L2295.84 1485.58 L2290.95 1485.58 L2290.95 1479.7 Z" fill="#000000" fill-rule="nonzero" fill-opacity="1" /><path clip-path="url(#clip120)" d="M2306.83 1481.64 L2314.47 1481.64 L2314.47 1455.28 L2306.16 1456.95 L2306.16 1452.69 L2314.42 1451.02 L2319.1 1451.02 L2319.1 1481.64 L2326.74 1481.64 L2326.74 1485.58 L2306.83 1485.58 L2306.83 1481.64 Z" fill="#000000" fill-rule="nonzero" fill-opacity="1" /><path clip-path="url(#clip120)" d="M2346.18 1454.1 Q2342.57 1454.1 2340.74 1457.66 Q2338.94 1461.2 2338.94 1468.33 Q2338.94 1475.44 2340.74 1479.01 Q2342.57 1482.55 2346.18 1482.55 Q2349.82 1482.55 2351.62 1479.01 Q2353.45 1475.44 2353.45 1468.33 Q2353.45 1461.2 2351.62 1457.66 Q2349.82 1454.1 2346.18 1454.1 M2346.18 1450.39 Q2351.99 1450.39 2355.05 1455 Q2358.13 1459.58 2358.13 1468.33 Q2358.13 1477.06 2355.05 1481.67 Q2351.99 1486.25 2346.18 1486.25 Q2340.37 1486.25 2337.29 1481.67 Q2334.24 1477.06 2334.24 1468.33 Q2334.24 1459.58 2337.29 1455 Q2340.37 1450.39 2346.18 1450.39 Z" fill="#000000" fill-rule="nonzero" fill-opacity="1" /><path clip-path="url(#clip120)" d="M1016.69 1520.52 L1043.99 1520.52 L1043.99 1525.93 L1023.12 1525.93 L1023.12 1539.94 L1041.96 1539.94 L1041.96 1545.35 L1023.12 1545.35 L1023.12 1568.04 L1016.69 1568.04 L1016.69 1520.52 Z" fill="#000000" fill-rule="nonzero" fill-opacity="1" /><path clip-path="url(#clip120)" d="M1069.84 1537.87 Q1068.85 1537.3 1067.68 1537.04 Q1066.53 1536.76 1065.13 1536.76 Q1060.16 1536.76 1057.49 1540 Q1054.85 1543.22 1054.85 1549.27 L1054.85 1568.04 L1048.96 1568.04 L1048.96 1532.4 L1054.85 1532.4 L1054.85 1537.93 Q1056.69 1534.69 1059.65 1533.13 Q1062.61 1531.54 1066.85 1531.54 Q1067.45 1531.54 1068.18 1531.63 Q1068.92 1531.7 1069.81 1531.85 L1069.84 1537.87 Z" fill="#000000" fill-rule="nonzero" fill-opacity="1" /><path clip-path="url(#clip120)" d="M1105.04 1548.76 L1105.04 1551.62 L1078.11 1551.62 Q1078.5 1557.67 1081.74 1560.85 Q1085.02 1564 1090.85 1564 Q1094.22 1564 1097.37 1563.17 Q1100.55 1562.35 1103.67 1560.69 L1103.67 1566.23 Q1100.52 1567.57 1097.21 1568.27 Q1093.9 1568.97 1090.5 1568.97 Q1081.97 1568.97 1076.97 1564 Q1072 1559.04 1072 1550.57 Q1072 1541.82 1076.71 1536.69 Q1081.46 1531.54 1089.48 1531.54 Q1096.67 1531.54 1100.84 1536.18 Q1105.04 1540.8 1105.04 1548.76 M1099.19 1547.04 Q1099.12 1542.23 1096.48 1539.37 Q1093.87 1536.5 1089.54 1536.5 Q1084.64 1536.5 1081.68 1539.27 Q1078.75 1542.04 1078.31 1547.07 L1099.19 1547.04 Z" fill="#000000" fill-rule="nonzero" fill-opacity="1" /><path clip-path="url(#clip120)" d="M1118.16 1550.25 Q1118.16 1556.71 1120.8 1560.4 Q1123.47 1564.07 1128.12 1564.07 Q1132.76 1564.07 1135.44 1560.4 Q1138.11 1556.71 1138.11 1550.25 Q1138.11 1543.79 1135.44 1540.13 Q1132.76 1536.44 1128.12 1536.44 Q1123.47 1536.44 1120.8 1540.13 Q1118.16 1543.79 1118.16 1550.25 M1138.11 1562.7 Q1136.27 1565.88 1133.43 1567.44 Q1130.63 1568.97 1126.69 1568.97 Q1120.22 1568.97 1116.15 1563.81 Q1112.11 1558.65 1112.11 1550.25 Q1112.11 1541.85 1116.15 1536.69 Q1120.22 1531.54 1126.69 1531.54 Q1130.63 1531.54 1133.43 1533.1 Q1136.27 1534.62 1138.11 1537.81 L1138.11 1532.4 L1143.97 1532.4 L1143.97 1581.6 L1138.11 1581.6 L1138.11 1562.7 Z" fill="#000000" fill-rule="nonzero" fill-opacity="1" /><path clip-path="url(#clip120)" d="M1155.43 1553.98 L1155.43 1532.4 L1161.28 1532.4 L1161.28 1553.75 Q1161.28 1558.81 1163.26 1561.36 Q1165.23 1563.87 1169.18 1563.87 Q1173.92 1563.87 1176.66 1560.85 Q1179.43 1557.83 1179.43 1552.61 L1179.43 1532.4 L1185.28 1532.4 L1185.28 1568.04 L1179.43 1568.04 L1179.43 1562.57 Q1177.29 1565.82 1174.46 1567.41 Q1171.66 1568.97 1167.93 1568.97 Q1161.79 1568.97 1158.61 1565.15 Q1155.43 1561.33 1155.43 1553.98 M1170.16 1531.54 L1170.16 1531.54 Z" fill="#000000" fill-rule="nonzero" fill-opacity="1" /><path clip-path="url(#clip120)" d="M1227.84 1548.76 L1227.84 1551.62 L1200.91 1551.62 Q1201.29 1557.67 1204.54 1560.85 Q1207.82 1564 1213.64 1564 Q1217.01 1564 1220.17 1563.17 Q1223.35 1562.35 1226.47 1560.69 L1226.47 1566.23 Q1223.32 1567.57 1220.01 1568.27 Q1216.7 1568.97 1213.29 1568.97 Q1204.76 1568.97 1199.76 1564 Q1194.8 1559.04 1194.8 1550.57 Q1194.8 1541.82 1199.51 1536.69 Q1204.25 1531.54 1212.27 1531.54 Q1219.47 1531.54 1223.63 1536.18 Q1227.84 1540.8 1227.84 1548.76 M1221.98 1547.04 Q1221.92 1542.23 1219.27 1539.37 Q1216.66 1536.5 1212.34 1536.5 Q1207.43 1536.5 1204.47 1539.27 Q1201.55 1542.04 1201.1 1547.07 L1221.98 1547.04 Z" fill="#000000" fill-rule="nonzero" fill-opacity="1" /><path clip-path="url(#clip120)" d="M1267.08 1546.53 L1267.08 1568.04 L1261.22 1568.04 L1261.22 1546.72 Q1261.22 1541.66 1259.25 1539.14 Q1257.28 1536.63 1253.33 1536.63 Q1248.59 1536.63 1245.85 1539.65 Q1243.11 1542.68 1243.11 1547.9 L1243.11 1568.04 L1237.23 1568.04 L1237.23 1532.4 L1243.11 1532.4 L1243.11 1537.93 Q1245.21 1534.72 1248.05 1533.13 Q1250.91 1531.54 1254.64 1531.54 Q1260.78 1531.54 1263.93 1535.36 Q1267.08 1539.14 1267.08 1546.53 Z" fill="#000000" fill-rule="nonzero" fill-opacity="1" /><path clip-path="url(#clip120)" d="M1304.42 1533.76 L1304.42 1539.24 Q1301.93 1537.87 1299.42 1537.2 Q1296.94 1536.5 1294.39 1536.5 Q1288.69 1536.5 1285.54 1540.13 Q1282.39 1543.73 1282.39 1550.25 Q1282.39 1556.78 1285.54 1560.4 Q1288.69 1564 1294.39 1564 Q1296.94 1564 1299.42 1563.33 Q1301.93 1562.63 1304.42 1561.26 L1304.42 1566.68 Q1301.96 1567.82 1299.32 1568.39 Q1296.71 1568.97 1293.75 1568.97 Q1285.7 1568.97 1280.96 1563.91 Q1276.22 1558.85 1276.22 1550.25 Q1276.22 1541.53 1280.99 1536.53 Q1285.8 1531.54 1294.14 1531.54 Q1296.84 1531.54 1299.42 1532.11 Q1302 1532.65 1304.42 1533.76 Z" fill="#000000" fill-rule="nonzero" fill-opacity="1" /><path clip-path="url(#clip120)" d="M1314.6 1532.4 L1320.46 1532.4 L1320.46 1568.04 L1314.6 1568.04 L1314.6 1532.4 M1314.6 1518.52 L1320.46 1518.52 L1320.46 1525.93 L1314.6 1525.93 L1314.6 1518.52 Z" fill="#000000" fill-rule="nonzero" fill-opacity="1" /><path clip-path="url(#clip120)" d="M1363.2 1548.76 L1363.2 1551.62 L1336.28 1551.62 Q1336.66 1557.67 1339.9 1560.85 Q1343.18 1564 1349.01 1564 Q1352.38 1564 1355.53 1563.17 Q1358.72 1562.35 1361.83 1560.69 L1361.83 1566.23 Q1358.68 1567.57 1355.37 1568.27 Q1352.06 1568.97 1348.66 1568.97 Q1340.13 1568.97 1335.13 1564 Q1330.17 1559.04 1330.17 1550.57 Q1330.17 1541.82 1334.88 1536.69 Q1339.62 1531.54 1347.64 1531.54 Q1354.83 1531.54 1359 1536.18 Q1363.2 1540.8 1363.2 1548.76 M1357.35 1547.04 Q1357.28 1542.23 1354.64 1539.37 Q1352.03 1536.5 1347.7 1536.5 Q1342.8 1536.5 1339.84 1539.27 Q1336.91 1542.04 1336.47 1547.07 L1357.35 1547.04 Z" fill="#000000" fill-rule="nonzero" fill-opacity="1" /><path clip-path="url(#clip120)" d="M1395.54 1533.45 L1395.54 1538.98 Q1393.06 1537.71 1390.38 1537.07 Q1387.71 1536.44 1384.85 1536.44 Q1380.49 1536.44 1378.29 1537.77 Q1376.13 1539.11 1376.13 1541.79 Q1376.13 1543.82 1377.69 1545 Q1379.24 1546.15 1383.96 1547.2 L1385.96 1547.64 Q1392.2 1548.98 1394.81 1551.43 Q1397.45 1553.85 1397.45 1558.21 Q1397.45 1563.17 1393.5 1566.07 Q1389.59 1568.97 1382.71 1568.97 Q1379.85 1568.97 1376.73 1568.39 Q1373.64 1567.85 1370.21 1566.74 L1370.21 1560.69 Q1373.45 1562.38 1376.6 1563.24 Q1379.75 1564.07 1382.84 1564.07 Q1386.98 1564.07 1389.21 1562.66 Q1391.43 1561.23 1391.43 1558.65 Q1391.43 1556.27 1389.81 1554.99 Q1388.22 1553.72 1382.78 1552.54 L1380.74 1552.07 Q1375.3 1550.92 1372.88 1548.56 Q1370.46 1546.18 1370.46 1542.04 Q1370.46 1537.01 1374.02 1534.27 Q1377.59 1531.54 1384.15 1531.54 Q1387.39 1531.54 1390.26 1532.01 Q1393.12 1532.49 1395.54 1533.45 Z" fill="#000000" fill-rule="nonzero" fill-opacity="1" /><path clip-path="url(#clip120)" d="M1426.96 1518.52 L1440.45 1518.52 L1440.45 1523.07 L1432.81 1523.07 L1432.81 1572.09 L1440.45 1572.09 L1440.45 1576.64 L1426.96 1576.64 L1426.96 1518.52 Z" fill="#000000" fill-rule="nonzero" fill-opacity="1" /><path clip-path="url(#clip120)" d="M1485.58 1561.26 L1485.58 1548.5 L1475.08 1548.5 L1475.08 1543.22 L1491.95 1543.22 L1491.95 1563.62 Q1488.23 1566.26 1483.74 1567.63 Q1479.25 1568.97 1474.16 1568.97 Q1463.02 1568.97 1456.72 1562.47 Q1450.45 1555.95 1450.45 1544.33 Q1450.45 1532.68 1456.72 1526.19 Q1463.02 1519.66 1474.16 1519.66 Q1478.8 1519.66 1482.97 1520.81 Q1487.18 1521.96 1490.71 1524.18 L1490.71 1531.03 Q1487.14 1528 1483.13 1526.48 Q1479.12 1524.95 1474.7 1524.95 Q1465.98 1524.95 1461.59 1529.82 Q1457.22 1534.69 1457.22 1544.33 Q1457.22 1553.94 1461.59 1558.81 Q1465.98 1563.68 1474.7 1563.68 Q1478.1 1563.68 1480.78 1563.11 Q1483.45 1562.51 1485.58 1561.26 Z" fill="#000000" fill-rule="nonzero" fill-opacity="1" /><path clip-path="url(#clip120)" d="M1503.69 1520.52 L1510.12 1520.52 L1510.12 1540 L1533.49 1540 L1533.49 1520.52 L1539.92 1520.52 L1539.92 1568.04 L1533.49 1568.04 L1533.49 1545.41 L1510.12 1545.41 L1510.12 1568.04 L1503.69 1568.04 L1503.69 1520.52 Z" fill="#000000" fill-rule="nonzero" fill-opacity="1" /><path clip-path="url(#clip120)" d="M1549.91 1532.4 L1577.73 1532.4 L1577.73 1537.74 L1555.7 1563.37 L1577.73 1563.37 L1577.73 1568.04 L1549.11 1568.04 L1549.11 1562.7 L1571.14 1537.07 L1549.91 1537.07 L1549.91 1532.4 Z" fill="#000000" fill-rule="nonzero" fill-opacity="1" /><path clip-path="url(#clip120)" d="M1600.36 1518.52 L1600.36 1576.64 L1586.86 1576.64 L1586.86 1572.09 L1594.47 1572.09 L1594.47 1523.07 L1586.86 1523.07 L1586.86 1518.52 L1600.36 1518.52 Z" fill="#000000" fill-rule="nonzero" fill-opacity="1" /><polyline clip-path="url(#clip120)" style="stroke:#000000; stroke-linecap:round; stroke-linejoin:round; stroke-width:4; stroke-opacity:1; fill:none" points="264.287,1423.18 264.287,47.2441 "/>
<polyline clip-path="url(#clip120)" style="stroke:#000000; stroke-linecap:round; stroke-linejoin:round; stroke-width:4; stroke-opacity:1; fill:none" points="264.287,1188.69 283.185,1188.69 "/>
<polyline clip-path="url(#clip120)" style="stroke:#000000; stroke-linecap:round; stroke-linejoin:round; stroke-width:4; stroke-opacity:1; fill:none" points="264.287,931.829 283.185,931.829 "/>
<polyline clip-path="url(#clip120)" style="stroke:#000000; stroke-linecap:round; stroke-linejoin:round; stroke-width:4; stroke-opacity:1; fill:none" points="264.287,674.966 283.185,674.966 "/>
<polyline clip-path="url(#clip120)" style="stroke:#000000; stroke-linecap:round; stroke-linejoin:round; stroke-width:4; stroke-opacity:1; fill:none" points="264.287,418.103 283.185,418.103 "/>
<polyline clip-path="url(#clip120)" style="stroke:#000000; stroke-linecap:round; stroke-linejoin:round; stroke-width:4; stroke-opacity:1; fill:none" points="264.287,161.241 283.185,161.241 "/>
<path clip-path="url(#clip120)" d="M116.668 1202.04 L124.306 1202.04 L124.306 1175.67 L115.996 1177.34 L115.996 1173.08 L124.26 1171.41 L128.936 1171.41 L128.936 1202.04 L136.575 1202.04 L136.575 1205.97 L116.668 1205.97 L116.668 1202.04 Z" fill="#000000" fill-rule="nonzero" fill-opacity="1" /><path clip-path="url(#clip120)" d="M156.019 1174.49 Q152.408 1174.49 150.579 1178.06 Q148.774 1181.6 148.774 1188.73 Q148.774 1195.83 150.579 1199.4 Q152.408 1202.94 156.019 1202.94 Q159.653 1202.94 161.459 1199.4 Q163.288 1195.83 163.288 1188.73 Q163.288 1181.6 161.459 1178.06 Q159.653 1174.49 156.019 1174.49 M156.019 1170.79 Q161.829 1170.79 164.885 1175.39 Q167.964 1179.98 167.964 1188.73 Q167.964 1197.45 164.885 1202.06 Q161.829 1206.64 156.019 1206.64 Q150.209 1206.64 147.13 1202.06 Q144.075 1197.45 144.075 1188.73 Q144.075 1179.98 147.13 1175.39 Q150.209 1170.79 156.019 1170.79 Z" fill="#000000" fill-rule="nonzero" fill-opacity="1" /><path clip-path="url(#clip120)" d="M186.181 1174.49 Q182.57 1174.49 180.741 1178.06 Q178.936 1181.6 178.936 1188.73 Q178.936 1195.83 180.741 1199.4 Q182.57 1202.94 186.181 1202.94 Q189.815 1202.94 191.621 1199.4 Q193.45 1195.83 193.45 1188.73 Q193.45 1181.6 191.621 1178.06 Q189.815 1174.49 186.181 1174.49 M186.181 1170.79 Q191.991 1170.79 195.047 1175.39 Q198.125 1179.98 198.125 1188.73 Q198.125 1197.45 195.047 1202.06 Q191.991 1206.64 186.181 1206.64 Q180.371 1206.64 177.292 1202.06 Q174.237 1197.45 174.237 1188.73 Q174.237 1179.98 177.292 1175.39 Q180.371 1170.79 186.181 1170.79 Z" fill="#000000" fill-rule="nonzero" fill-opacity="1" /><path clip-path="url(#clip120)" d="M216.343 1174.49 Q212.732 1174.49 210.903 1178.06 Q209.098 1181.6 209.098 1188.73 Q209.098 1195.83 210.903 1199.4 Q212.732 1202.94 216.343 1202.94 Q219.977 1202.94 221.783 1199.4 Q223.611 1195.83 223.611 1188.73 Q223.611 1181.6 221.783 1178.06 Q219.977 1174.49 216.343 1174.49 M216.343 1170.79 Q222.153 1170.79 225.209 1175.39 Q228.287 1179.98 228.287 1188.73 Q228.287 1197.45 225.209 1202.06 Q222.153 1206.64 216.343 1206.64 Q210.533 1206.64 207.454 1202.06 Q204.399 1197.45 204.399 1188.73 Q204.399 1179.98 207.454 1175.39 Q210.533 1170.79 216.343 1170.79 Z" fill="#000000" fill-rule="nonzero" fill-opacity="1" /><path clip-path="url(#clip120)" d="M116.668 945.174 L124.306 945.174 L124.306 918.808 L115.996 920.475 L115.996 916.215 L124.26 914.549 L128.936 914.549 L128.936 945.174 L136.575 945.174 L136.575 949.109 L116.668 949.109 L116.668 945.174 Z" fill="#000000" fill-rule="nonzero" fill-opacity="1" /><path clip-path="url(#clip120)" d="M146.066 914.549 L164.422 914.549 L164.422 918.484 L150.348 918.484 L150.348 926.956 Q151.366 926.609 152.385 926.447 Q153.403 926.262 154.422 926.262 Q160.209 926.262 163.589 929.433 Q166.968 932.604 166.968 938.021 Q166.968 943.6 163.496 946.701 Q160.024 949.78 153.704 949.78 Q151.528 949.78 149.26 949.41 Q147.015 949.039 144.607 948.299 L144.607 943.6 Q146.691 944.734 148.913 945.289 Q151.135 945.845 153.612 945.845 Q157.616 945.845 159.954 943.738 Q162.292 941.632 162.292 938.021 Q162.292 934.41 159.954 932.303 Q157.616 930.197 153.612 930.197 Q151.737 930.197 149.862 930.614 Q148.01 931.03 146.066 931.91 L146.066 914.549 Z" fill="#000000" fill-rule="nonzero" fill-opacity="1" /><path clip-path="url(#clip120)" d="M186.181 917.628 Q182.57 917.628 180.741 921.192 Q178.936 924.734 178.936 931.864 Q178.936 938.97 180.741 942.535 Q182.57 946.076 186.181 946.076 Q189.815 946.076 191.621 942.535 Q193.45 938.97 193.45 931.864 Q193.45 924.734 191.621 921.192 Q189.815 917.628 186.181 917.628 M186.181 913.924 Q191.991 913.924 195.047 918.53 Q198.125 923.114 198.125 931.864 Q198.125 940.59 195.047 945.197 Q191.991 949.78 186.181 949.78 Q180.371 949.78 177.292 945.197 Q174.237 940.59 174.237 931.864 Q174.237 923.114 177.292 918.53 Q180.371 913.924 186.181 913.924 Z" fill="#000000" fill-rule="nonzero" fill-opacity="1" /><path clip-path="url(#clip120)" d="M216.343 917.628 Q212.732 917.628 210.903 921.192 Q209.098 924.734 209.098 931.864 Q209.098 938.97 210.903 942.535 Q212.732 946.076 216.343 946.076 Q219.977 946.076 221.783 942.535 Q223.611 938.97 223.611 931.864 Q223.611 924.734 221.783 921.192 Q219.977 917.628 216.343 917.628 M216.343 913.924 Q222.153 913.924 225.209 918.53 Q228.287 923.114 228.287 931.864 Q228.287 940.59 225.209 945.197 Q222.153 949.78 216.343 949.78 Q210.533 949.78 207.454 945.197 Q204.399 940.59 204.399 931.864 Q204.399 923.114 207.454 918.53 Q210.533 913.924 216.343 913.924 Z" fill="#000000" fill-rule="nonzero" fill-opacity="1" /><path clip-path="url(#clip120)" d="M119.885 688.311 L136.204 688.311 L136.204 692.246 L114.26 692.246 L114.26 688.311 Q116.922 685.556 121.505 680.927 Q126.112 676.274 127.292 674.931 Q129.538 672.408 130.417 670.672 Q131.32 668.913 131.32 667.223 Q131.32 664.469 129.376 662.732 Q127.455 660.996 124.353 660.996 Q122.154 660.996 119.7 661.76 Q117.269 662.524 114.492 664.075 L114.492 659.353 Q117.316 658.219 119.769 657.64 Q122.223 657.061 124.26 657.061 Q129.63 657.061 132.825 659.746 Q136.019 662.432 136.019 666.922 Q136.019 669.052 135.209 670.973 Q134.422 672.871 132.316 675.464 Q131.737 676.135 128.635 679.353 Q125.533 682.547 119.885 688.311 Z" fill="#000000" fill-rule="nonzero" fill-opacity="1" /><path clip-path="url(#clip120)" d="M156.019 660.765 Q152.408 660.765 150.579 664.33 Q148.774 667.871 148.774 675.001 Q148.774 682.107 150.579 685.672 Q152.408 689.214 156.019 689.214 Q159.653 689.214 161.459 685.672 Q163.288 682.107 163.288 675.001 Q163.288 667.871 161.459 664.33 Q159.653 660.765 156.019 660.765 M156.019 657.061 Q161.829 657.061 164.885 661.668 Q167.964 666.251 167.964 675.001 Q167.964 683.728 164.885 688.334 Q161.829 692.917 156.019 692.917 Q150.209 692.917 147.13 688.334 Q144.075 683.728 144.075 675.001 Q144.075 666.251 147.13 661.668 Q150.209 657.061 156.019 657.061 Z" fill="#000000" fill-rule="nonzero" fill-opacity="1" /><path clip-path="url(#clip120)" d="M186.181 660.765 Q182.57 660.765 180.741 664.33 Q178.936 667.871 178.936 675.001 Q178.936 682.107 180.741 685.672 Q182.57 689.214 186.181 689.214 Q189.815 689.214 191.621 685.672 Q193.45 682.107 193.45 675.001 Q193.45 667.871 191.621 664.33 Q189.815 660.765 186.181 660.765 M186.181 657.061 Q191.991 657.061 195.047 661.668 Q198.125 666.251 198.125 675.001 Q198.125 683.728 195.047 688.334 Q191.991 692.917 186.181 692.917 Q180.371 692.917 177.292 688.334 Q174.237 683.728 174.237 675.001 Q174.237 666.251 177.292 661.668 Q180.371 657.061 186.181 657.061 Z" fill="#000000" fill-rule="nonzero" fill-opacity="1" /><path clip-path="url(#clip120)" d="M216.343 660.765 Q212.732 660.765 210.903 664.33 Q209.098 667.871 209.098 675.001 Q209.098 682.107 210.903 685.672 Q212.732 689.214 216.343 689.214 Q219.977 689.214 221.783 685.672 Q223.611 682.107 223.611 675.001 Q223.611 667.871 221.783 664.33 Q219.977 660.765 216.343 660.765 M216.343 657.061 Q222.153 657.061 225.209 661.668 Q228.287 666.251 228.287 675.001 Q228.287 683.728 225.209 688.334 Q222.153 692.917 216.343 692.917 Q210.533 692.917 207.454 688.334 Q204.399 683.728 204.399 675.001 Q204.399 666.251 207.454 661.668 Q210.533 657.061 216.343 657.061 Z" fill="#000000" fill-rule="nonzero" fill-opacity="1" /><path clip-path="url(#clip120)" d="M119.885 431.448 L136.204 431.448 L136.204 435.383 L114.26 435.383 L114.26 431.448 Q116.922 428.694 121.505 424.064 Q126.112 419.411 127.292 418.069 Q129.538 415.546 130.417 413.81 Q131.32 412.05 131.32 410.36 Q131.32 407.606 129.376 405.87 Q127.455 404.134 124.353 404.134 Q122.154 404.134 119.7 404.898 Q117.269 405.661 114.492 407.212 L114.492 402.49 Q117.316 401.356 119.769 400.777 Q122.223 400.198 124.26 400.198 Q129.63 400.198 132.825 402.884 Q136.019 405.569 136.019 410.06 Q136.019 412.189 135.209 414.11 Q134.422 416.009 132.316 418.601 Q131.737 419.272 128.635 422.49 Q125.533 425.684 119.885 431.448 Z" fill="#000000" fill-rule="nonzero" fill-opacity="1" /><path clip-path="url(#clip120)" d="M146.066 400.823 L164.422 400.823 L164.422 404.759 L150.348 404.759 L150.348 413.231 Q151.366 412.884 152.385 412.722 Q153.403 412.536 154.422 412.536 Q160.209 412.536 163.589 415.708 Q166.968 418.879 166.968 424.296 Q166.968 429.874 163.496 432.976 Q160.024 436.055 153.704 436.055 Q151.528 436.055 149.26 435.684 Q147.015 435.314 144.607 434.573 L144.607 429.874 Q146.691 431.008 148.913 431.564 Q151.135 432.12 153.612 432.12 Q157.616 432.12 159.954 430.013 Q162.292 427.907 162.292 424.296 Q162.292 420.684 159.954 418.578 Q157.616 416.472 153.612 416.472 Q151.737 416.472 149.862 416.888 Q148.01 417.305 146.066 418.184 L146.066 400.823 Z" fill="#000000" fill-rule="nonzero" fill-opacity="1" /><path clip-path="url(#clip120)" d="M186.181 403.902 Q182.57 403.902 180.741 407.467 Q178.936 411.009 178.936 418.138 Q178.936 425.245 180.741 428.809 Q182.57 432.351 186.181 432.351 Q189.815 432.351 191.621 428.809 Q193.45 425.245 193.45 418.138 Q193.45 411.009 191.621 407.467 Q189.815 403.902 186.181 403.902 M186.181 400.198 Q191.991 400.198 195.047 404.805 Q198.125 409.388 198.125 418.138 Q198.125 426.865 195.047 431.471 Q191.991 436.055 186.181 436.055 Q180.371 436.055 177.292 431.471 Q174.237 426.865 174.237 418.138 Q174.237 409.388 177.292 404.805 Q180.371 400.198 186.181 400.198 Z" fill="#000000" fill-rule="nonzero" fill-opacity="1" /><path clip-path="url(#clip120)" d="M216.343 403.902 Q212.732 403.902 210.903 407.467 Q209.098 411.009 209.098 418.138 Q209.098 425.245 210.903 428.809 Q212.732 432.351 216.343 432.351 Q219.977 432.351 221.783 428.809 Q223.611 425.245 223.611 418.138 Q223.611 411.009 221.783 407.467 Q219.977 403.902 216.343 403.902 M216.343 400.198 Q222.153 400.198 225.209 404.805 Q228.287 409.388 228.287 418.138 Q228.287 426.865 225.209 431.471 Q222.153 436.055 216.343 436.055 Q210.533 436.055 207.454 431.471 Q204.399 426.865 204.399 418.138 Q204.399 409.388 207.454 404.805 Q210.533 400.198 216.343 400.198 Z" fill="#000000" fill-rule="nonzero" fill-opacity="1" /><path clip-path="url(#clip120)" d="M130.024 159.887 Q133.38 160.604 135.255 162.873 Q137.154 165.141 137.154 168.475 Q137.154 173.59 133.635 176.391 Q130.117 179.192 123.635 179.192 Q121.459 179.192 119.144 178.752 Q116.853 178.336 114.399 177.479 L114.399 172.965 Q116.343 174.1 118.658 174.678 Q120.973 175.257 123.496 175.257 Q127.894 175.257 130.186 173.521 Q132.501 171.785 132.501 168.475 Q132.501 165.419 130.348 163.706 Q128.218 161.97 124.399 161.97 L120.371 161.97 L120.371 158.127 L124.584 158.127 Q128.033 158.127 129.862 156.762 Q131.691 155.373 131.691 152.78 Q131.691 150.118 129.792 148.706 Q127.917 147.271 124.399 147.271 Q122.478 147.271 120.279 147.688 Q118.08 148.104 115.441 148.984 L115.441 144.817 Q118.103 144.077 120.418 143.706 Q122.755 143.336 124.816 143.336 Q130.14 143.336 133.242 145.766 Q136.343 148.174 136.343 152.294 Q136.343 155.164 134.7 157.155 Q133.056 159.123 130.024 159.887 Z" fill="#000000" fill-rule="nonzero" fill-opacity="1" /><path clip-path="url(#clip120)" d="M156.019 147.039 Q152.408 147.039 150.579 150.604 Q148.774 154.146 148.774 161.276 Q148.774 168.382 150.579 171.947 Q152.408 175.488 156.019 175.488 Q159.653 175.488 161.459 171.947 Q163.288 168.382 163.288 161.276 Q163.288 154.146 161.459 150.604 Q159.653 147.039 156.019 147.039 M156.019 143.336 Q161.829 143.336 164.885 147.942 Q167.964 152.526 167.964 161.276 Q167.964 170.002 164.885 174.609 Q161.829 179.192 156.019 179.192 Q150.209 179.192 147.13 174.609 Q144.075 170.002 144.075 161.276 Q144.075 152.526 147.13 147.942 Q150.209 143.336 156.019 143.336 Z" fill="#000000" fill-rule="nonzero" fill-opacity="1" /><path clip-path="url(#clip120)" d="M186.181 147.039 Q182.57 147.039 180.741 150.604 Q178.936 154.146 178.936 161.276 Q178.936 168.382 180.741 171.947 Q182.57 175.488 186.181 175.488 Q189.815 175.488 191.621 171.947 Q193.45 168.382 193.45 161.276 Q193.45 154.146 191.621 150.604 Q189.815 147.039 186.181 147.039 M186.181 143.336 Q191.991 143.336 195.047 147.942 Q198.125 152.526 198.125 161.276 Q198.125 170.002 195.047 174.609 Q191.991 179.192 186.181 179.192 Q180.371 179.192 177.292 174.609 Q174.237 170.002 174.237 161.276 Q174.237 152.526 177.292 147.942 Q180.371 143.336 186.181 143.336 Z" fill="#000000" fill-rule="nonzero" fill-opacity="1" /><path clip-path="url(#clip120)" d="M216.343 147.039 Q212.732 147.039 210.903 150.604 Q209.098 154.146 209.098 161.276 Q209.098 168.382 210.903 171.947 Q212.732 175.488 216.343 175.488 Q219.977 175.488 221.783 171.947 Q223.611 168.382 223.611 161.276 Q223.611 154.146 221.783 150.604 Q219.977 147.039 216.343 147.039 M216.343 143.336 Q222.153 143.336 225.209 147.942 Q228.287 152.526 228.287 161.276 Q228.287 170.002 225.209 174.609 Q222.153 179.192 216.343 179.192 Q210.533 179.192 207.454 174.609 Q204.399 170.002 204.399 161.276 Q204.399 152.526 207.454 147.942 Q210.533 143.336 216.343 143.336 Z" fill="#000000" fill-rule="nonzero" fill-opacity="1" /><path clip-path="url(#clip120)" d="M41.7242 960.972 Q42.4244 958.903 44.7161 956.961 Q47.0077 954.988 51.0181 953.015 L64.0042 946.49 L64.0042 953.397 L51.8138 959.476 Q47.0395 961.831 45.48 964.059 Q43.9204 966.255 43.9204 970.075 L43.9204 977.077 L64.0042 977.077 L64.0042 983.506 L16.4842 983.506 L16.4842 968.993 Q16.4842 960.844 19.8898 956.834 Q23.2955 952.824 30.1704 952.824 Q34.6582 952.824 37.6183 954.924 Q40.5784 956.993 41.7242 960.972 M21.7677 977.077 L38.6368 977.077 L38.6368 968.993 Q38.6368 964.346 36.5043 961.99 Q34.34 959.603 30.1704 959.603 Q26.0009 959.603 23.9002 961.99 Q21.7677 964.346 21.7677 968.993 L21.7677 977.077 Z" fill="#000000" fill-rule="nonzero" fill-opacity="1" /><path clip-path="url(#clip120)" d="M44.7161 910.905 L47.5806 910.905 L47.5806 937.832 Q53.6281 937.45 56.8109 934.204 Q59.9619 930.926 59.9619 925.101 Q59.9619 921.727 59.1344 918.576 Q58.3069 915.393 56.6518 912.274 L62.1899 912.274 Q63.5267 915.425 64.227 918.735 Q64.9272 922.045 64.9272 925.451 Q64.9272 933.981 59.9619 938.978 Q54.9967 943.943 46.5303 943.943 Q37.7774 943.943 32.6531 939.233 Q27.4968 934.49 27.4968 926.47 Q27.4968 919.276 32.1438 915.107 Q36.7589 910.905 44.7161 910.905 M42.9973 916.762 Q38.1912 916.826 35.3266 919.467 Q32.4621 922.077 32.4621 926.406 Q32.4621 931.308 35.2312 934.268 Q38.0002 937.196 43.0292 937.641 L42.9973 916.762 Z" fill="#000000" fill-rule="nonzero" fill-opacity="1" /><path clip-path="url(#clip120)" d="M14.479 883.246 L19.3487 883.246 L19.3487 888.848 Q19.3487 891.999 20.6219 893.241 Q21.895 894.45 25.2052 894.45 L28.3562 894.45 L28.3562 884.806 L32.9077 884.806 L32.9077 894.45 L64.0042 894.45 L64.0042 900.338 L32.9077 900.338 L32.9077 905.94 L28.3562 905.94 L28.3562 900.338 L25.8736 900.338 Q19.9216 900.338 17.2162 897.569 Q14.479 894.8 14.479 888.785 L14.479 883.246 Z" fill="#000000" fill-rule="nonzero" fill-opacity="1" /><path clip-path="url(#clip120)" d="M14.479 878.345 L14.479 872.488 L64.0042 872.488 L64.0042 878.345 L14.479 878.345 Z" fill="#000000" fill-rule="nonzero" fill-opacity="1" /><path clip-path="url(#clip120)" d="M44.7161 829.743 L47.5806 829.743 L47.5806 856.67 Q53.6281 856.288 56.8109 853.041 Q59.9619 849.763 59.9619 843.938 Q59.9619 840.564 59.1344 837.413 Q58.3069 834.231 56.6518 831.111 L62.1899 831.111 Q63.5267 834.262 64.227 837.573 Q64.9272 840.883 64.9272 844.288 Q64.9272 852.818 59.9619 857.815 Q54.9967 862.781 46.5303 862.781 Q37.7774 862.781 32.6531 858.07 Q27.4968 853.328 27.4968 845.307 Q27.4968 838.114 32.1438 833.944 Q36.7589 829.743 44.7161 829.743 M42.9973 835.599 Q38.1912 835.663 35.3266 838.305 Q32.4621 840.915 32.4621 845.243 Q32.4621 850.145 35.2312 853.105 Q38.0002 856.033 43.0292 856.479 L42.9973 835.599 Z" fill="#000000" fill-rule="nonzero" fill-opacity="1" /><path clip-path="url(#clip120)" d="M29.7248 794.477 L35.1993 794.477 Q33.8307 796.959 33.1623 799.474 Q32.4621 801.956 32.4621 804.503 Q32.4621 810.2 36.0905 813.351 Q39.6872 816.502 46.212 816.502 Q52.7369 816.502 56.3653 813.351 Q59.9619 810.2 59.9619 804.503 Q59.9619 801.956 59.2935 799.474 Q58.5933 796.959 57.2247 794.477 L62.6355 794.477 Q63.7814 796.927 64.3543 799.569 Q64.9272 802.179 64.9272 805.139 Q64.9272 813.192 59.8664 817.934 Q54.8057 822.677 46.212 822.677 Q37.491 822.677 32.4939 817.902 Q27.4968 813.096 27.4968 804.757 Q27.4968 802.052 28.0697 799.474 Q28.6108 796.896 29.7248 794.477 Z" fill="#000000" fill-rule="nonzero" fill-opacity="1" /><path clip-path="url(#clip120)" d="M18.2347 778.499 L28.3562 778.499 L28.3562 766.436 L32.9077 766.436 L32.9077 778.499 L52.2594 778.499 Q56.6199 778.499 57.8613 777.321 Q59.1026 776.112 59.1026 772.451 L59.1026 766.436 L64.0042 766.436 L64.0042 772.451 Q64.0042 779.231 61.4897 781.809 Q58.9434 784.387 52.2594 784.387 L32.9077 784.387 L32.9077 788.684 L28.3562 788.684 L28.3562 784.387 L18.2347 784.387 L18.2347 778.499 Z" fill="#000000" fill-rule="nonzero" fill-opacity="1" /><path clip-path="url(#clip120)" d="M28.3562 758.733 L28.3562 752.877 L64.0042 752.877 L64.0042 758.733 L28.3562 758.733 M14.479 758.733 L14.479 752.877 L21.895 752.877 L21.895 758.733 L14.479 758.733 Z" fill="#000000" fill-rule="nonzero" fill-opacity="1" /><path clip-path="url(#clip120)" d="M28.3562 744.824 L28.3562 738.618 L58.275 727.478 L28.3562 716.338 L28.3562 710.131 L64.0042 723.499 L64.0042 731.456 L28.3562 744.824 Z" fill="#000000" fill-rule="nonzero" fill-opacity="1" /><path clip-path="url(#clip120)" d="M28.3562 702.047 L28.3562 696.19 L64.0042 696.19 L64.0042 702.047 L28.3562 702.047 M14.479 702.047 L14.479 696.19 L21.895 696.19 L21.895 702.047 L14.479 702.047 Z" fill="#000000" fill-rule="nonzero" fill-opacity="1" /><path clip-path="url(#clip120)" d="M18.2347 678.143 L28.3562 678.143 L28.3562 666.08 L32.9077 666.08 L32.9077 678.143 L52.2594 678.143 Q56.6199 678.143 57.8613 676.966 Q59.1026 675.756 59.1026 672.096 L59.1026 666.08 L64.0042 666.08 L64.0042 672.096 Q64.0042 678.875 61.4897 681.454 Q58.9434 684.032 52.2594 684.032 L32.9077 684.032 L32.9077 688.329 L28.3562 688.329 L28.3562 684.032 L18.2347 684.032 L18.2347 678.143 Z" fill="#000000" fill-rule="nonzero" fill-opacity="1" /><path clip-path="url(#clip120)" d="M67.3143 643.546 Q73.68 646.028 75.6216 648.384 Q77.5631 650.739 77.5631 654.686 L77.5631 659.365 L72.6615 659.365 L72.6615 655.927 Q72.6615 653.508 71.5157 652.171 Q70.3699 650.835 66.1048 649.211 L63.4312 648.161 L28.3562 662.579 L28.3562 656.373 L56.238 645.233 L28.3562 634.093 L28.3562 627.886 L67.3143 643.546 Z" fill="#000000" fill-rule="nonzero" fill-opacity="1" /><path clip-path="url(#clip120)" d="M18.0438 570.34 L24.314 570.34 Q22.5634 574 21.704 577.247 Q20.8447 580.493 20.8447 583.517 Q20.8447 588.769 22.8817 591.633 Q24.9187 594.466 28.6745 594.466 Q31.8255 594.466 33.4488 592.588 Q35.0402 590.679 36.0269 585.395 L36.8226 581.512 Q38.1912 574.319 41.6605 570.913 Q45.098 567.476 50.8908 567.476 Q57.7976 567.476 61.3624 572.123 Q64.9272 576.738 64.9272 585.682 Q64.9272 589.055 64.1633 592.875 Q63.3994 596.662 61.9035 600.736 L55.2831 600.736 Q57.4793 596.822 58.5933 593.066 Q59.7073 589.31 59.7073 585.682 Q59.7073 580.175 57.543 577.183 Q55.3786 574.191 51.3682 574.191 Q47.8671 574.191 45.8937 576.356 Q43.9204 578.488 42.9337 583.39 L42.1698 587.305 Q40.7375 594.498 37.682 597.713 Q34.6264 600.927 29.1837 600.927 Q22.8817 600.927 19.2532 596.503 Q15.6248 592.047 15.6248 584.249 Q15.6248 580.907 16.2295 577.438 Q16.8343 573.969 18.0438 570.34 Z" fill="#000000" fill-rule="nonzero" fill-opacity="1" /><path clip-path="url(#clip120)" d="M58.5933 555.763 L58.5933 545.259 L22.3406 545.259 L24.6323 556.686 L18.7758 556.686 L16.4842 545.323 L16.4842 538.894 L58.5933 538.894 L58.5933 528.39 L64.0042 528.39 L64.0042 555.763 L58.5933 555.763 Z" fill="#000000" fill-rule="nonzero" fill-opacity="1" /><path clip-path="url(#clip120)" d="M58.5933 514.29 L58.5933 503.787 L22.3406 503.787 L24.6323 515.213 L18.7758 515.213 L16.4842 503.85 L16.4842 497.421 L58.5933 497.421 L58.5933 486.918 L64.0042 486.918 L64.0042 514.29 L58.5933 514.29 Z" fill="#000000" fill-rule="nonzero" fill-opacity="1" /><polyline clip-path="url(#clip122)" style="stroke:#009af9; stroke-linecap:round; stroke-linejoin:round; stroke-width:4; stroke-opacity:1; fill:none" points="323.395,1312.59 325.367,1311.52 327.339,1310.44 329.312,1309.36 331.284,1308.28 333.256,1307.19 335.228,1306.09 337.201,1305 339.173,1303.89 341.145,1302.79 343.117,1301.68 345.089,1300.56 347.062,1299.44 349.034,1298.31 351.006,1297.19 352.978,1296.05 354.951,1294.91 356.923,1293.77 358.895,1292.62 360.867,1291.47 362.839,1290.31 364.812,1289.15 366.784,1287.99 368.756,1286.81 370.728,1285.64 372.701,1284.46 374.673,1283.27 376.645,1282.08 378.617,1280.89 380.589,1279.69 382.562,1278.48 384.534,1277.27 386.506,1276.06 388.478,1274.84 390.451,1273.62 392.423,1272.39 394.395,1271.15 396.367,1269.91 398.339,1268.67 400.312,1267.42 402.284,1266.16 404.256,1264.9 406.228,1263.64 408.201,1262.37 410.173,1261.09 412.145,1259.81 414.117,1258.53 416.09,1257.23 418.062,1255.94 420.034,1254.64 422.006,1253.33 423.978,1252.02 425.951,1250.7 427.923,1249.37 429.895,1248.04 431.867,1246.71 433.84,1245.37 435.812,1244.02 437.784,1242.67 439.756,1241.32 441.728,1239.95 443.701,1238.59 445.673,1237.21 447.645,1235.83 449.617,1234.45 451.59,1233.06 453.562,1231.66 455.534,1230.26 457.506,1228.85 459.478,1227.44 461.451,1226.02 463.423,1224.59 465.395,1223.16 467.367,1221.72 469.34,1220.28 471.312,1218.83 473.284,1217.37 475.256,1215.91 477.229,1214.44 479.201,1212.96 481.173,1211.48 483.145,1210 485.117,1208.5 487.09,1207.01 489.062,1205.5 491.034,1203.99 493.006,1202.47 494.979,1200.95 496.951,1199.41 498.923,1197.88 500.895,1196.33 502.867,1194.78 504.84,1193.23 506.812,1191.66 508.784,1190.09 510.756,1188.52 512.729,1186.93 514.701,1185.34 516.673,1183.75 518.645,1182.14 520.617,1180.53 522.59,1178.92 524.562,1177.29 526.534,1175.66 528.506,1174.03 530.479,1172.38 532.451,1170.73 534.423,1169.07 536.395,1167.41 538.368,1165.74 540.34,1164.06 542.312,1162.37 544.284,1160.68 546.256,1158.98 548.229,1157.27 550.201,1155.55 552.173,1153.83 554.145,1152.1 556.118,1150.37 558.09,1148.62 560.062,1146.87 562.034,1145.11 564.006,1143.35 565.979,1141.57 567.951,1139.79 569.923,1138 571.895,1136.21 573.868,1134.4 575.84,1132.59 577.812,1130.77 579.784,1128.94 581.756,1127.11 583.729,1125.27 585.701,1123.42 587.673,1121.56 589.645,1119.69 591.618,1117.82 593.59,1115.94 595.562,1114.05 597.534,1112.15 599.507,1110.24 601.479,1108.33 603.451,1106.41 605.423,1104.48 607.395,1102.54 609.368,1100.6 611.34,1098.64 613.312,1096.68 615.284,1094.71 617.257,1092.73 619.229,1090.74 621.201,1088.75 623.173,1086.74 625.145,1084.73 627.118,1082.71 629.09,1080.68 631.062,1078.64 633.034,1076.59 635.007,1074.54 636.979,1072.47 638.951,1070.4 640.923,1068.32 642.895,1066.23 644.868,1064.13 646.84,1062.02 648.812,1059.91 650.784,1057.78 652.757,1055.65 654.729,1053.5 656.701,1051.35 658.673,1049.19 660.646,1047.02 662.618,1044.84 664.59,1042.66 666.562,1040.46 668.534,1038.25 670.507,1036.04 672.479,1033.81 674.451,1031.58 676.423,1029.34 678.396,1027.08 680.368,1024.82 682.34,1022.55 684.312,1020.27 686.284,1017.98 688.257,1015.68 690.229,1013.37 692.201,1011.05 694.173,1008.73 696.146,1006.39 698.118,1004.04 700.09,1001.69 702.062,999.32 704.034,996.945 706.007,994.559 707.979,992.164 709.951,989.759 711.923,987.345 713.896,984.921 715.868,982.487 717.84,980.043 719.812,977.589 721.784,975.125 723.757,972.651 725.729,970.168 727.701,967.674 729.673,965.171 731.646,962.657 733.618,960.134 735.59,957.6 737.562,955.057 739.535,952.503 741.507,949.939 743.479,947.365 745.451,944.781 747.423,942.186 749.396,939.582 751.368,936.967 753.34,934.342 755.312,931.706 757.285,929.061 759.257,926.405 761.229,923.739 763.201,921.062 765.173,918.375 767.146,915.678 769.118,912.971 771.09,910.253 773.062,907.524 775.035,904.785 777.007,902.036 778.979,899.277 780.951,896.506 782.923,893.726 784.896,890.935 786.868,888.133 788.84,885.321 790.812,882.499 792.785,879.666 794.757,876.822 796.729,873.968 798.701,871.104 800.674,868.229 802.646,865.343 804.618,862.447 806.59,859.54 808.562,856.623 810.535,853.695 812.507,850.757 814.479,847.808 816.451,844.849 818.424,841.879 820.396,838.899 822.368,835.908 824.34,832.907 826.312,829.895 828.285,826.872 830.257,823.84 832.229,820.796 834.201,817.742 836.174,814.678 838.146,811.604 840.118,808.519 842.09,805.423 844.062,802.317 846.035,799.201 848.007,796.075 849.979,792.938 851.951,789.791 853.924,786.633 855.896,783.466 857.868,780.288 859.84,777.1 861.813,773.901 863.785,770.693 865.757,767.474 867.729,764.246 869.701,761.007 871.674,757.759 873.646,754.5 875.618,751.231 877.59,747.953 879.563,744.665 881.535,741.367 883.507,738.059 885.479,734.741 887.451,731.414 889.424,728.077 891.396,724.731 893.368,721.375 895.34,718.01 897.313,714.635 899.285,711.251 901.257,707.857 903.229,704.455 905.201,701.043 907.174,697.622 909.146,694.192 911.118,690.753 913.09,687.306 915.063,683.849 917.035,680.384 919.007,676.91 920.979,673.427 922.952,669.936 924.924,666.437 926.896,662.929 928.868,659.413 930.84,655.889 932.813,652.357 934.785,648.817 936.757,645.269 938.729,641.713 940.702,638.15 942.674,634.579 944.646,631 946.618,627.414 948.59,623.821 950.563,620.221 952.535,616.614 954.507,613 956.479,609.379 958.452,605.752 960.424,602.118 962.396,598.477 964.368,594.831 966.34,591.178 968.313,587.519 970.285,583.854 972.257,580.184 974.229,576.508 976.202,572.827 978.174,569.14 980.146,565.448 982.118,561.752 984.091,558.05 986.063,554.344 988.035,550.633 990.007,546.918 991.979,543.199 993.952,539.476 995.924,535.749 997.896,532.019 999.868,528.285 1001.84,524.547 1003.81,520.807 1005.78,517.064 1007.76,513.318 1009.73,509.569 1011.7,505.819 1013.67,502.066 1015.65,498.311 1017.62,494.555 1019.59,490.797 1021.56,487.038 1023.54,483.278 1025.51,479.517 1027.48,475.755 1029.45,471.993 1031.42,468.231 1033.4,464.469 1035.37,460.707 1037.34,456.946 1039.31,453.186 1041.29,449.426 1043.26,445.668 1045.23,441.912 1047.2,438.157 1049.17,434.405 1051.15,430.654 1053.12,426.907 1055.09,423.162 1057.06,419.42 1059.04,415.682 1061.01,411.947 1062.98,408.217 1064.95,404.49 1066.92,400.768 1068.9,397.051 1070.87,393.339 1072.84,389.633 1074.81,385.932 1076.79,382.237 1078.76,378.549 1080.73,374.867 1082.7,371.192 1084.67,367.524 1086.65,363.864 1088.62,360.212 1090.59,356.568 1092.56,352.932 1094.54,349.306 1096.51,345.688 1098.48,342.08 1100.45,338.482 1102.42,334.894 1104.4,331.317 1106.37,327.75 1108.34,324.195 1110.31,320.651 1112.29,317.12 1114.26,313.6 1116.23,310.093 1118.2,306.6 1120.17,303.119 1122.15,299.652 1124.12,296.2 1126.09,292.762 1128.06,289.338 1130.04,285.93 1132.01,282.537 1133.98,279.161 1135.95,275.8 1137.92,272.457 1139.9,269.13 1141.87,265.821 1143.84,262.53 1145.81,259.257 1147.79,256.002 1149.76,252.767 1151.73,249.551 1153.7,246.354 1155.67,243.178 1157.65,240.023 1159.62,236.888 1161.59,233.775 1163.56,230.683 1165.54,227.614 1167.51,224.567 1169.48,221.543 1171.45,218.543 1173.42,215.566 1175.4,212.613 1177.37,209.685 1179.34,206.781 1181.31,203.903 1183.29,201.051 1185.26,198.224 1187.23,195.425 1189.2,192.652 1191.17,189.906 1193.15,187.188 1195.12,184.498 1197.09,181.836 1199.06,179.204 1201.04,176.6 1203.01,174.026 1204.98,171.482 1206.95,168.969 1208.92,166.486 1210.9,164.034 1212.87,161.614 1214.84,159.226 1216.81,156.87 1218.79,154.546 1220.76,152.256 1222.73,149.999 1224.7,147.775 1226.67,145.586 1228.65,143.431 1230.62,141.311 1232.59,139.226 1234.56,137.177 1236.54,135.163 1238.51,133.186 1240.48,131.245 1242.45,129.341 1244.42,127.474 1246.4,125.644 1248.37,123.853 1250.34,122.099 1252.31,120.384 1254.29,118.708 1256.26,117.07 1258.23,115.472 1260.2,113.914 1262.17,112.395 1264.15,110.917 1266.12,109.479 1268.09,108.082 1270.06,106.726 1272.04,105.412 1274.01,104.139 1275.98,102.907 1277.95,101.718 1279.92,100.571 1281.9,99.466 1283.87,98.404 1285.84,97.385 1287.81,96.4092 1289.79,95.4767 1291.76,94.5877 1293.73,93.7425 1295.7,92.9412 1297.67,92.184 1299.65,91.4711 1301.62,90.8026 1303.59,90.1788 1305.56,89.5996 1307.54,89.0654 1309.51,88.5762 1311.48,88.1322 1313.45,87.7334 1315.42,87.3801 1317.4,87.0722 1319.37,86.81 1321.34,86.5934 1323.31,86.4226 1325.29,86.2977 1327.26,86.2187 1329.23,86.1857 1331.2,86.1987 1333.17,86.2578 1335.15,86.363 1337.12,86.5144 1339.09,86.7119 1341.06,86.9556 1343.04,87.2455 1345.01,87.5816 1346.98,87.9639 1348.95,88.3923 1350.92,88.8669 1352.9,89.3876 1354.87,89.9543 1356.84,90.5671 1358.81,91.2258 1360.79,91.9304 1362.76,92.6808 1364.73,93.4769 1366.7,94.3187 1368.67,95.206 1370.65,96.1388 1372.62,97.1169 1374.59,98.1402 1376.56,99.2087 1378.54,100.322 1380.51,101.48 1382.48,102.683 1384.45,103.93 1386.42,105.222 1388.4,106.558 1390.37,107.938 1392.34,109.361 1394.31,110.829 1396.29,112.339 1398.26,113.893 1400.23,115.49 1402.2,117.13 1404.17,118.812 1406.15,120.536 1408.12,122.303 1410.09,124.111 1412.06,125.961 1414.04,127.852 1416.01,129.785 1417.98,131.758 1419.95,133.771 1421.92,135.825 1423.9,137.919 1425.87,140.052 1427.84,142.225 1429.81,144.436 1431.79,146.687 1433.76,148.976 1435.73,151.302 1437.7,153.667 1439.67,156.069 1441.65,158.508 1443.62,160.984 1445.59,163.496 1447.56,166.045 1449.54,168.629 1451.51,171.248 1453.48,173.903 1455.45,176.592 1457.42,179.315 1459.4,182.072 1461.37,184.863 1463.34,187.686 1465.31,190.543 1467.29,193.432 1469.26,196.353 1471.23,199.305 1473.2,202.289 1475.17,205.303 1477.15,208.348 1479.12,211.423 1481.09,214.527 1483.06,217.661 1485.04,220.823 1487.01,224.014 1488.98,227.233 1490.95,230.479 1492.92,233.753 1494.9,237.053 1496.87,240.38 1498.84,243.732 1500.81,247.11 1502.79,250.513 1504.76,253.941 1506.73,257.393 1508.7,260.868 1510.67,264.367 1512.65,267.89 1514.62,271.434 1516.59,275.001 1518.56,278.589 1520.54,282.199 1522.51,285.83 1524.48,289.481 1526.45,293.152 1528.42,296.843 1530.4,300.553 1532.37,304.282 1534.34,308.029 1536.31,311.794 1538.29,315.577 1540.26,319.377 1542.23,323.193 1544.2,327.026 1546.17,330.875 1548.15,334.739 1550.12,338.618 1552.09,342.513 1554.06,346.421 1556.04,350.343 1558.01,354.279 1559.98,358.228 1561.95,362.189 1563.92,366.163 1565.9,370.149 1567.87,374.147 1569.84,378.155 1571.81,382.174 1573.79,386.204 1575.76,390.244 1577.73,394.293 1579.7,398.352 1581.67,402.42 1583.65,406.496 1585.62,410.58 1587.59,414.672 1589.56,418.772 1591.54,422.879 1593.51,426.992 1595.48,431.112 1597.45,435.238 1599.42,439.37 1601.4,443.507 1603.37,447.649 1605.34,451.796 1607.31,455.947 1609.29,460.103 1611.26,464.262 1613.23,468.425 1615.2,472.59 1617.17,476.759 1619.15,480.93 1621.12,485.103 1623.09,489.278 1625.06,493.454 1627.04,497.632 1629.01,501.811 1630.98,505.991 1632.95,510.171 1634.92,514.351 1636.9,518.531 1638.87,522.71 1640.84,526.889 1642.81,531.067 1644.79,535.244 1646.76,539.419 1648.73,543.593 1650.7,547.764 1652.67,551.934 1654.65,556.1 1656.62,560.265 1658.59,564.426 1660.56,568.584 1662.54,572.738 1664.51,576.889 1666.48,581.036 1668.45,585.179 1670.43,589.317 1672.4,593.451 1674.37,597.581 1676.34,601.705 1678.31,605.824 1680.29,609.938 1682.26,614.046 1684.23,618.148 1686.2,622.245 1688.18,626.335 1690.15,630.419 1692.12,634.497 1694.09,638.567 1696.06,642.631 1698.04,646.688 1700.01,650.738 1701.98,654.78 1703.95,658.815 1705.93,662.842 1707.9,666.862 1709.87,670.873 1711.84,674.876 1713.81,678.871 1715.79,682.858 1717.76,686.836 1719.73,690.805 1721.7,694.765 1723.68,698.716 1725.65,702.659 1727.62,706.592 1729.59,710.515 1731.56,714.43 1733.54,718.334 1735.51,722.229 1737.48,726.114 1739.45,729.989 1741.43,733.854 1743.4,737.709 1745.37,741.554 1747.34,745.388 1749.31,749.212 1751.29,753.026 1753.26,756.828 1755.23,760.62 1757.2,764.402 1759.18,768.172 1761.15,771.931 1763.12,775.68 1765.09,779.417 1767.06,783.143 1769.04,786.858 1771.01,790.561 1772.98,794.253 1774.95,797.934 1776.93,801.603 1778.9,805.26 1780.87,808.906 1782.84,812.54 1784.81,816.162 1786.79,819.772 1788.76,823.371 1790.73,826.958 1792.7,830.532 1794.68,834.095 1796.65,837.645 1798.62,841.184 1800.59,844.71 1802.56,848.224 1804.54,851.726 1806.51,855.216 1808.48,858.693 1810.45,862.158 1812.43,865.611 1814.4,869.051 1816.37,872.479 1818.34,875.894 1820.31,879.297 1822.29,882.688 1824.26,886.066 1826.23,889.432 1828.2,892.785 1830.18,896.125 1832.15,899.453 1834.12,902.768 1836.09,906.071 1838.06,909.361 1840.04,912.639 1842.01,915.903 1843.98,919.156 1845.95,922.395 1847.93,925.622 1849.9,928.837 1851.87,932.039 1853.84,935.228 1855.81,938.404 1857.79,941.568 1859.76,944.719 1861.73,947.858 1863.7,950.984 1865.68,954.097 1867.65,957.198 1869.62,960.286 1871.59,963.362 1873.56,966.425 1875.54,969.475 1877.51,972.513 1879.48,975.538 1881.45,978.551 1883.43,981.551 1885.4,984.539 1887.37,987.514 1889.34,990.477 1891.31,993.427 1893.29,996.365 1895.26,999.29 1897.23,1002.2 1899.2,1005.1 1901.18,1007.99 1903.15,1010.87 1905.12,1013.73 1907.09,1016.58 1909.06,1019.42 1911.04,1022.25 1913.01,1025.06 1914.98,1027.87 1916.95,1030.66 1918.93,1033.43 1920.9,1036.2 1922.87,1038.95 1924.84,1041.7 1926.81,1044.43 1928.79,1047.14 1930.76,1049.85 1932.73,1052.54 1934.7,1055.23 1936.68,1057.9 1938.65,1060.55 1940.62,1063.2 1942.59,1065.84 1944.56,1068.46 1946.54,1071.07 1948.51,1073.67 1950.48,1076.26 1952.45,1078.83 1954.43,1081.4 1956.4,1083.95 1958.37,1086.49 1960.34,1089.02 1962.31,1091.54 1964.29,1094.05 1966.26,1096.55 1968.23,1099.03 1970.2,1101.5 1972.18,1103.97 1974.15,1106.42 1976.12,1108.86 1978.09,1111.29 1980.06,1113.7 1982.04,1116.11 1984.01,1118.51 1985.98,1120.89 1987.95,1123.26 1989.93,1125.63 1991.9,1127.98 1993.87,1130.32 1995.84,1132.65 1997.81,1134.97 1999.79,1137.28 2001.76,1139.58 2003.73,1141.86 2005.7,1144.14 2007.68,1146.41 2009.65,1148.66 2011.62,1150.91 2013.59,1153.14 2015.56,1155.37 2017.54,1157.58 2019.51,1159.79 2021.48,1161.98 2023.45,1164.16 2025.43,1166.34 2027.4,1168.5 2029.37,1170.65 2031.34,1172.8 2033.31,1174.93 2035.29,1177.05 2037.26,1179.17 2039.23,1181.27 2041.2,1183.36 2043.18,1185.45 2045.15,1187.52 2047.12,1189.59 2049.09,1191.64 2051.06,1193.69 2053.04,1195.72 2055.01,1197.75 2056.98,1199.76 2058.95,1201.77 2060.93,1203.77 2062.9,1205.76 2064.87,1207.73 2066.84,1209.7 2068.81,1211.66 2070.79,1213.61 2072.76,1215.56 2074.73,1217.49 2076.7,1219.41 2078.68,1221.33 2080.65,1223.23 2082.62,1225.13 2084.59,1227.02 2086.56,1228.89 2088.54,1230.76 2090.51,1232.63 2092.48,1234.48 2094.45,1236.32 2096.43,1238.16 2098.4,1239.98 2100.37,1241.8 2102.34,1243.61 2104.31,1245.41 2106.29,1247.2 2108.26,1248.99 2110.23,1250.76 2112.2,1252.53 2114.18,1254.29 2116.15,1256.04 2118.12,1257.78 2120.09,1259.51 2122.06,1261.24 2124.04,1262.95 2126.01,1264.66 2127.98,1266.37 2129.95,1268.06 2131.93,1269.74 2133.9,1271.42 2135.87,1273.09 2137.84,1274.75 2139.81,1276.41 2141.79,1278.05 2143.76,1279.69 2145.73,1281.32 2147.7,1282.94 2149.68,1284.56 2151.65,1286.17 2153.62,1287.77 2155.59,1289.36 2157.56,1290.95 2159.54,1292.52 2161.51,1294.09 2163.48,1295.66 2165.45,1297.21 2167.43,1298.76 2169.4,1300.3 2171.37,1301.84 2173.34,1303.36 2175.31,1304.88 2177.29,1306.39 2179.26,1307.9 2181.23,1309.4 2183.2,1310.89 2185.18,1312.37 2187.15,1313.85 2189.12,1315.32 2191.09,1316.78 2193.06,1318.24 2195.04,1319.69 2197.01,1321.13 2198.98,1322.57 2200.95,1324 2202.93,1325.42 2204.9,1326.84 2206.87,1328.25 2208.84,1329.65 2210.81,1331.05 2212.79,1332.44 2214.76,1333.82 2216.73,1335.2 2218.7,1336.57 2220.68,1337.94 2222.65,1339.29 2224.62,1340.65 2226.59,1341.99 2228.56,1343.33 2230.54,1344.67 2232.51,1345.99 2234.48,1347.31 2236.45,1348.63 2238.43,1349.94 2240.4,1351.24 2242.37,1352.54 2244.34,1353.83 2246.31,1355.11 2248.29,1356.39 2250.26,1357.66 2252.23,1358.93 2254.2,1360.19 2256.18,1361.45 2258.15,1362.7 2260.12,1363.94 2262.09,1365.18 2264.06,1366.41 2266.04,1367.64 2268.01,1368.86 2269.98,1370.08 2271.95,1371.29 2273.93,1372.49 2275.9,1373.69 2277.87,1374.88 2279.84,1376.07 2281.81,1377.25 2283.79,1378.43 2285.76,1379.6 2287.73,1380.77 2289.7,1381.93 2291.68,1383.09 2293.65,1384.24 "/>
<path clip-path="url(#clip120)" d="M2021.86 196.789 L2283.14 196.789 L2283.14 93.1086 L2021.86 93.1086  Z" fill="#ffffff" fill-rule="evenodd" fill-opacity="1"/>
<polyline clip-path="url(#clip120)" style="stroke:#000000; stroke-linecap:round; stroke-linejoin:round; stroke-width:4; stroke-opacity:1; fill:none" points="2021.86,196.789 2283.14,196.789 2283.14,93.1086 2021.86,93.1086 2021.86,196.789 "/>
<polyline clip-path="url(#clip120)" style="stroke:#009af9; stroke-linecap:round; stroke-linejoin:round; stroke-width:4; stroke-opacity:1; fill:none" points="2045.07,144.949 2184.3,144.949 "/>
<path clip-path="url(#clip120)" d="M2221.35 164.636 Q2219.54 169.266 2217.83 170.678 Q2216.12 172.09 2213.25 172.09 L2209.84 172.09 L2209.84 168.525 L2212.34 168.525 Q2214.1 168.525 2215.07 167.692 Q2216.05 166.858 2217.23 163.756 L2217.99 161.812 L2207.5 136.303 L2212.02 136.303 L2220.12 156.581 L2228.22 136.303 L2232.74 136.303 L2221.35 164.636 Z" fill="#000000" fill-rule="nonzero" fill-opacity="1" /><path clip-path="url(#clip120)" d="M2240.03 158.293 L2247.67 158.293 L2247.67 131.928 L2239.36 133.595 L2239.36 129.335 L2247.62 127.669 L2252.3 127.669 L2252.3 158.293 L2259.94 158.293 L2259.94 162.229 L2240.03 162.229 L2240.03 158.293 Z" fill="#000000" fill-rule="nonzero" fill-opacity="1" /></svg>
