<?xml version="1.0" encoding="utf-8"?>
<svg xmlns="http://www.w3.org/2000/svg" xmlns:xlink="http://www.w3.org/1999/xlink" width="600" height="400" viewBox="0 0 2400 1600">
<defs>
  <clipPath id="clip160">
    <rect x="0" y="0" width="2400" height="1600"/>
  </clipPath>
</defs>
<path clip-path="url(#clip160)" d="M0 1600 L2400 1600 L2400 0 L0 0  Z" fill="#ffffff" fill-rule="evenodd" fill-opacity="1"/>
<defs>
  <clipPath id="clip161">
    <rect x="480" y="0" width="1681" height="1600"/>
  </clipPath>
</defs>
<path clip-path="url(#clip160)" d="M310.352 1423.18 L2352.76 1423.18 L2352.76 123.472 L310.352 123.472  Z" fill="#ffffff" fill-rule="evenodd" fill-opacity="1"/>
<defs>
  <clipPath id="clip162">
    <rect x="310" y="123" width="2043" height="1301"/>
  </clipPath>
</defs>
<polyline clip-path="url(#clip162)" style="stroke:#000000; stroke-linecap:round; stroke-linejoin:round; stroke-width:2; stroke-opacity:0.1; fill:none" points="643.412,1423.18 643.412,123.472 "/>
<polyline clip-path="url(#clip162)" style="stroke:#000000; stroke-linecap:round; stroke-linejoin:round; stroke-width:2; stroke-opacity:0.1; fill:none" points="1193.93,1423.18 1193.93,123.472 "/>
<polyline clip-path="url(#clip162)" style="stroke:#000000; stroke-linecap:round; stroke-linejoin:round; stroke-width:2; stroke-opacity:0.1; fill:none" points="1744.44,1423.18 1744.44,123.472 "/>
<polyline clip-path="url(#clip162)" style="stroke:#000000; stroke-linecap:round; stroke-linejoin:round; stroke-width:2; stroke-opacity:0.1; fill:none" points="2294.95,1423.18 2294.95,123.472 "/>
<polyline clip-path="url(#clip162)" style="stroke:#000000; stroke-linecap:round; stroke-linejoin:round; stroke-width:2; stroke-opacity:0.1; fill:none" points="310.352,1208.28 2352.76,1208.28 "/>
<polyline clip-path="url(#clip162)" style="stroke:#000000; stroke-linecap:round; stroke-linejoin:round; stroke-width:2; stroke-opacity:0.1; fill:none" points="310.352,977.518 2352.76,977.518 "/>
<polyline clip-path="url(#clip162)" style="stroke:#000000; stroke-linecap:round; stroke-linejoin:round; stroke-width:2; stroke-opacity:0.1; fill:none" points="310.352,746.759 2352.76,746.759 "/>
<polyline clip-path="url(#clip162)" style="stroke:#000000; stroke-linecap:round; stroke-linejoin:round; stroke-width:2; stroke-opacity:0.1; fill:none" points="310.352,516 2352.76,516 "/>
<polyline clip-path="url(#clip162)" style="stroke:#000000; stroke-linecap:round; stroke-linejoin:round; stroke-width:2; stroke-opacity:0.1; fill:none" points="310.352,285.241 2352.76,285.241 "/>
<polyline clip-path="url(#clip160)" style="stroke:#000000; stroke-linecap:round; stroke-linejoin:round; stroke-width:4; stroke-opacity:1; fill:none" points="310.352,1423.18 2352.76,1423.18 "/>
<polyline clip-path="url(#clip160)" style="stroke:#000000; stroke-linecap:round; stroke-linejoin:round; stroke-width:4; stroke-opacity:1; fill:none" points="643.412,1423.18 643.412,1404.28 "/>
<polyline clip-path="url(#clip160)" style="stroke:#000000; stroke-linecap:round; stroke-linejoin:round; stroke-width:4; stroke-opacity:1; fill:none" points="1193.93,1423.18 1193.93,1404.28 "/>
<polyline clip-path="url(#clip160)" style="stroke:#000000; stroke-linecap:round; stroke-linejoin:round; stroke-width:4; stroke-opacity:1; fill:none" points="1744.44,1423.18 1744.44,1404.28 "/>
<polyline clip-path="url(#clip160)" style="stroke:#000000; stroke-linecap:round; stroke-linejoin:round; stroke-width:4; stroke-opacity:1; fill:none" points="2294.95,1423.18 2294.95,1404.28 "/>
<path clip-path="url(#clip160)" d="M638.065 1481.64 L654.385 1481.64 L654.385 1485.58 L632.44 1485.58 L632.44 1481.64 Q635.102 1478.89 639.686 1474.26 Q644.292 1469.61 645.473 1468.27 Q647.718 1465.74 648.598 1464.01 Q649.5 1462.25 649.5 1460.56 Q649.5 1457.8 647.556 1456.07 Q645.635 1454.33 642.533 1454.33 Q640.334 1454.33 637.88 1455.09 Q635.449 1455.86 632.672 1457.41 L632.672 1452.69 Q635.496 1451.55 637.949 1450.97 Q640.403 1450.39 642.44 1450.39 Q647.811 1450.39 651.005 1453.08 Q654.199 1455.77 654.199 1460.26 Q654.199 1462.39 653.389 1464.31 Q652.602 1466.2 650.496 1468.8 Q649.917 1469.47 646.815 1472.69 Q643.713 1475.88 638.065 1481.64 Z" fill="#000000" fill-rule="nonzero" fill-opacity="1" /><path clip-path="url(#clip160)" d="M1196.93 1455.09 L1185.13 1473.54 L1196.93 1473.54 L1196.93 1455.09 M1195.71 1451.02 L1201.59 1451.02 L1201.59 1473.54 L1206.52 1473.54 L1206.52 1477.43 L1201.59 1477.43 L1201.59 1485.58 L1196.93 1485.58 L1196.93 1477.43 L1181.33 1477.43 L1181.33 1472.92 L1195.71 1451.02 Z" fill="#000000" fill-rule="nonzero" fill-opacity="1" /><path clip-path="url(#clip160)" d="M1744.84 1466.44 Q1741.7 1466.44 1739.84 1468.59 Q1738.02 1470.74 1738.02 1474.49 Q1738.02 1478.22 1739.84 1480.39 Q1741.7 1482.55 1744.84 1482.55 Q1747.99 1482.55 1749.82 1480.39 Q1751.67 1478.22 1751.67 1474.49 Q1751.67 1470.74 1749.82 1468.59 Q1747.99 1466.44 1744.84 1466.44 M1754.13 1451.78 L1754.13 1456.04 Q1752.37 1455.21 1750.56 1454.77 Q1748.78 1454.33 1747.02 1454.33 Q1742.39 1454.33 1739.94 1457.45 Q1737.51 1460.58 1737.16 1466.9 Q1738.52 1464.89 1740.58 1463.82 Q1742.64 1462.73 1745.12 1462.73 Q1750.33 1462.73 1753.34 1465.9 Q1756.37 1469.05 1756.37 1474.49 Q1756.37 1479.82 1753.22 1483.03 Q1750.08 1486.25 1744.84 1486.25 Q1738.85 1486.25 1735.68 1481.67 Q1732.51 1477.06 1732.51 1468.33 Q1732.51 1460.14 1736.39 1455.28 Q1740.28 1450.39 1746.83 1450.39 Q1748.59 1450.39 1750.38 1450.74 Q1752.18 1451.09 1754.13 1451.78 Z" fill="#000000" fill-rule="nonzero" fill-opacity="1" /><path clip-path="url(#clip160)" d="M2294.95 1469.17 Q2291.62 1469.17 2289.7 1470.95 Q2287.8 1472.73 2287.8 1475.86 Q2287.8 1478.98 2289.7 1480.77 Q2291.62 1482.55 2294.95 1482.55 Q2298.29 1482.55 2300.21 1480.77 Q2302.13 1478.96 2302.13 1475.86 Q2302.13 1472.73 2300.21 1470.95 Q2298.31 1469.17 2294.95 1469.17 M2290.28 1467.18 Q2287.27 1466.44 2285.58 1464.38 Q2283.91 1462.32 2283.91 1459.35 Q2283.91 1455.21 2286.85 1452.8 Q2289.81 1450.39 2294.95 1450.39 Q2300.11 1450.39 2303.05 1452.8 Q2305.99 1455.21 2305.99 1459.35 Q2305.99 1462.32 2304.3 1464.38 Q2302.64 1466.44 2299.65 1467.18 Q2303.03 1467.96 2304.91 1470.26 Q2306.8 1472.55 2306.8 1475.86 Q2306.8 1480.88 2303.73 1483.57 Q2300.67 1486.25 2294.95 1486.25 Q2289.23 1486.25 2286.16 1483.57 Q2283.1 1480.88 2283.1 1475.86 Q2283.1 1472.55 2285 1470.26 Q2286.9 1467.96 2290.28 1467.18 M2288.56 1459.79 Q2288.56 1462.48 2290.23 1463.98 Q2291.92 1465.49 2294.95 1465.49 Q2297.96 1465.49 2299.65 1463.98 Q2301.36 1462.48 2301.36 1459.79 Q2301.36 1457.11 2299.65 1455.6 Q2297.96 1454.1 2294.95 1454.1 Q2291.92 1454.1 2290.23 1455.6 Q2288.56 1457.11 2288.56 1459.79 Z" fill="#000000" fill-rule="nonzero" fill-opacity="1" /><path clip-path="url(#clip160)" d="M1271.27 1525.81 L1271.27 1562.76 L1279.04 1562.76 Q1288.87 1562.76 1293.42 1558.3 Q1298.01 1553.85 1298.01 1544.24 Q1298.01 1534.69 1293.42 1530.26 Q1288.87 1525.81 1279.04 1525.81 L1271.27 1525.81 M1264.84 1520.52 L1278.05 1520.52 Q1291.86 1520.52 1298.32 1526.28 Q1304.79 1532.01 1304.79 1544.24 Q1304.79 1556.52 1298.29 1562.28 Q1291.8 1568.04 1278.05 1568.04 L1264.84 1568.04 L1264.84 1520.52 Z" fill="#000000" fill-rule="nonzero" fill-opacity="1" /><path clip-path="url(#clip160)" d="M1314.78 1532.4 L1320.64 1532.4 L1320.64 1568.04 L1314.78 1568.04 L1314.78 1532.4 M1314.78 1518.52 L1320.64 1518.52 L1320.64 1525.93 L1314.78 1525.93 L1314.78 1518.52 Z" fill="#000000" fill-rule="nonzero" fill-opacity="1" /><path clip-path="url(#clip160)" d="M1355.62 1533.45 L1355.62 1538.98 Q1353.13 1537.71 1350.46 1537.07 Q1347.79 1536.44 1344.92 1536.44 Q1340.56 1536.44 1338.37 1537.77 Q1336.2 1539.11 1336.2 1541.79 Q1336.2 1543.82 1337.76 1545 Q1339.32 1546.15 1344.03 1547.2 L1346.04 1547.64 Q1352.27 1548.98 1354.88 1551.43 Q1357.53 1553.85 1357.53 1558.21 Q1357.53 1563.17 1353.58 1566.07 Q1349.66 1568.97 1342.79 1568.97 Q1339.92 1568.97 1336.81 1568.39 Q1333.72 1567.85 1330.28 1566.74 L1330.28 1560.69 Q1333.53 1562.38 1336.68 1563.24 Q1339.83 1564.07 1342.92 1564.07 Q1347.05 1564.07 1349.28 1562.66 Q1351.51 1561.23 1351.51 1558.65 Q1351.51 1556.27 1349.89 1554.99 Q1348.3 1553.72 1342.85 1552.54 L1340.82 1552.07 Q1335.37 1550.92 1332.95 1548.56 Q1330.54 1546.18 1330.54 1542.04 Q1330.54 1537.01 1334.1 1534.27 Q1337.66 1531.54 1344.22 1531.54 Q1347.47 1531.54 1350.33 1532.01 Q1353.2 1532.49 1355.62 1533.45 Z" fill="#000000" fill-rule="nonzero" fill-opacity="1" /><path clip-path="url(#clip160)" d="M1366.63 1518.52 L1372.52 1518.52 L1372.52 1547.77 L1389.99 1532.4 L1397.47 1532.4 L1378.56 1549.07 L1398.27 1568.04 L1390.63 1568.04 L1372.52 1550.63 L1372.52 1568.04 L1366.63 1568.04 L1366.63 1518.52 Z" fill="#000000" fill-rule="nonzero" fill-opacity="1" /><polyline clip-path="url(#clip160)" style="stroke:#000000; stroke-linecap:round; stroke-linejoin:round; stroke-width:4; stroke-opacity:1; fill:none" points="310.352,1423.18 310.352,123.472 "/>
<polyline clip-path="url(#clip160)" style="stroke:#000000; stroke-linecap:round; stroke-linejoin:round; stroke-width:4; stroke-opacity:1; fill:none" points="310.352,1208.28 329.25,1208.28 "/>
<polyline clip-path="url(#clip160)" style="stroke:#000000; stroke-linecap:round; stroke-linejoin:round; stroke-width:4; stroke-opacity:1; fill:none" points="310.352,977.518 329.25,977.518 "/>
<polyline clip-path="url(#clip160)" style="stroke:#000000; stroke-linecap:round; stroke-linejoin:round; stroke-width:4; stroke-opacity:1; fill:none" points="310.352,746.759 329.25,746.759 "/>
<polyline clip-path="url(#clip160)" style="stroke:#000000; stroke-linecap:round; stroke-linejoin:round; stroke-width:4; stroke-opacity:1; fill:none" points="310.352,516 329.25,516 "/>
<polyline clip-path="url(#clip160)" style="stroke:#000000; stroke-linecap:round; stroke-linejoin:round; stroke-width:4; stroke-opacity:1; fill:none" points="310.352,285.241 329.25,285.241 "/>
<path clip-path="url(#clip160)" d="M126.529 1194.08 Q122.918 1194.08 121.089 1197.64 Q119.283 1201.18 119.283 1208.31 Q119.283 1215.42 121.089 1218.98 Q122.918 1222.52 126.529 1222.52 Q130.163 1222.52 131.968 1218.98 Q133.797 1215.42 133.797 1208.31 Q133.797 1201.18 131.968 1197.64 Q130.163 1194.08 126.529 1194.08 M126.529 1190.37 Q132.339 1190.37 135.394 1194.98 Q138.473 1199.56 138.473 1208.31 Q138.473 1217.04 135.394 1221.64 Q132.339 1226.23 126.529 1226.23 Q120.718 1226.23 117.64 1221.64 Q114.584 1217.04 114.584 1208.31 Q114.584 1199.56 117.64 1194.98 Q120.718 1190.37 126.529 1190.37 Z" fill="#000000" fill-rule="nonzero" fill-opacity="1" /><path clip-path="url(#clip160)" d="M146.691 1219.68 L151.575 1219.68 L151.575 1225.56 L146.691 1225.56 L146.691 1219.68 Z" fill="#000000" fill-rule="nonzero" fill-opacity="1" /><path clip-path="url(#clip160)" d="M171.76 1194.08 Q168.149 1194.08 166.32 1197.64 Q164.515 1201.18 164.515 1208.31 Q164.515 1215.42 166.32 1218.98 Q168.149 1222.52 171.76 1222.52 Q175.394 1222.52 177.2 1218.98 Q179.028 1215.42 179.028 1208.31 Q179.028 1201.18 177.2 1197.64 Q175.394 1194.08 171.76 1194.08 M171.76 1190.37 Q177.57 1190.37 180.626 1194.98 Q183.704 1199.56 183.704 1208.31 Q183.704 1217.04 180.626 1221.64 Q177.57 1226.23 171.76 1226.23 Q165.95 1226.23 162.871 1221.64 Q159.815 1217.04 159.815 1208.31 Q159.815 1199.56 162.871 1194.98 Q165.95 1190.37 171.76 1190.37 Z" fill="#000000" fill-rule="nonzero" fill-opacity="1" /><path clip-path="url(#clip160)" d="M201.922 1194.08 Q198.311 1194.08 196.482 1197.64 Q194.676 1201.18 194.676 1208.31 Q194.676 1215.42 196.482 1218.98 Q198.311 1222.52 201.922 1222.52 Q205.556 1222.52 207.362 1218.98 Q209.19 1215.42 209.19 1208.31 Q209.19 1201.18 207.362 1197.64 Q205.556 1194.08 201.922 1194.08 M201.922 1190.37 Q207.732 1190.37 210.787 1194.98 Q213.866 1199.56 213.866 1208.31 Q213.866 1217.04 210.787 1221.64 Q207.732 1226.23 201.922 1226.23 Q196.112 1226.23 193.033 1221.64 Q189.977 1217.04 189.977 1208.31 Q189.977 1199.56 193.033 1194.98 Q196.112 1190.37 201.922 1190.37 Z" fill="#000000" fill-rule="nonzero" fill-opacity="1" /><path clip-path="url(#clip160)" d="M232.084 1209.14 Q228.75 1209.14 226.829 1210.93 Q224.931 1212.71 224.931 1215.83 Q224.931 1218.96 226.829 1220.74 Q228.75 1222.52 232.084 1222.52 Q235.417 1222.52 237.338 1220.74 Q239.259 1218.94 239.259 1215.83 Q239.259 1212.71 237.338 1210.93 Q235.44 1209.14 232.084 1209.14 M227.408 1207.15 Q224.398 1206.41 222.709 1204.35 Q221.042 1202.29 221.042 1199.33 Q221.042 1195.19 223.982 1192.78 Q226.945 1190.37 232.084 1190.37 Q237.246 1190.37 240.185 1192.78 Q243.125 1195.19 243.125 1199.33 Q243.125 1202.29 241.435 1204.35 Q239.769 1206.41 236.783 1207.15 Q240.162 1207.94 242.037 1210.23 Q243.935 1212.52 243.935 1215.83 Q243.935 1220.86 240.857 1223.54 Q237.801 1226.23 232.084 1226.23 Q226.366 1226.23 223.287 1223.54 Q220.232 1220.86 220.232 1215.83 Q220.232 1212.52 222.13 1210.23 Q224.028 1207.94 227.408 1207.15 M225.695 1199.77 Q225.695 1202.45 227.361 1203.96 Q229.051 1205.46 232.084 1205.46 Q235.093 1205.46 236.783 1203.96 Q238.496 1202.45 238.496 1199.77 Q238.496 1197.08 236.783 1195.58 Q235.093 1194.08 232.084 1194.08 Q229.051 1194.08 227.361 1195.58 Q225.695 1197.08 225.695 1199.77 Z" fill="#000000" fill-rule="nonzero" fill-opacity="1" /><path clip-path="url(#clip160)" d="M262.824 1206.41 Q259.676 1206.41 257.824 1208.57 Q255.996 1210.72 255.996 1214.47 Q255.996 1218.2 257.824 1220.37 Q259.676 1222.52 262.824 1222.52 Q265.972 1222.52 267.801 1220.37 Q269.653 1218.2 269.653 1214.47 Q269.653 1210.72 267.801 1208.57 Q265.972 1206.41 262.824 1206.41 M272.107 1191.76 L272.107 1196.02 Q270.347 1195.19 268.542 1194.75 Q266.759 1194.31 265 1194.31 Q260.37 1194.31 257.917 1197.43 Q255.486 1200.56 255.139 1206.88 Q256.505 1204.86 258.565 1203.8 Q260.625 1202.71 263.102 1202.71 Q268.31 1202.71 271.32 1205.88 Q274.352 1209.03 274.352 1214.47 Q274.352 1219.79 271.204 1223.01 Q268.056 1226.23 262.824 1226.23 Q256.829 1226.23 253.658 1221.64 Q250.486 1217.04 250.486 1208.31 Q250.486 1200.12 254.375 1195.26 Q258.264 1190.37 264.815 1190.37 Q266.574 1190.37 268.357 1190.72 Q270.162 1191.07 272.107 1191.76 Z" fill="#000000" fill-rule="nonzero" fill-opacity="1" /><path clip-path="url(#clip160)" d="M126.783 963.316 Q123.172 963.316 121.343 966.881 Q119.538 970.423 119.538 977.552 Q119.538 984.659 121.343 988.224 Q123.172 991.765 126.783 991.765 Q130.417 991.765 132.223 988.224 Q134.052 984.659 134.052 977.552 Q134.052 970.423 132.223 966.881 Q130.417 963.316 126.783 963.316 M126.783 959.613 Q132.593 959.613 135.649 964.219 Q138.728 968.802 138.728 977.552 Q138.728 986.279 135.649 990.886 Q132.593 995.469 126.783 995.469 Q120.973 995.469 117.894 990.886 Q114.839 986.279 114.839 977.552 Q114.839 968.802 117.894 964.219 Q120.973 959.613 126.783 959.613 Z" fill="#000000" fill-rule="nonzero" fill-opacity="1" /><path clip-path="url(#clip160)" d="M146.945 988.918 L151.829 988.918 L151.829 994.798 L146.945 994.798 L146.945 988.918 Z" fill="#000000" fill-rule="nonzero" fill-opacity="1" /><path clip-path="url(#clip160)" d="M172.014 963.316 Q168.403 963.316 166.575 966.881 Q164.769 970.423 164.769 977.552 Q164.769 984.659 166.575 988.224 Q168.403 991.765 172.014 991.765 Q175.649 991.765 177.454 988.224 Q179.283 984.659 179.283 977.552 Q179.283 970.423 177.454 966.881 Q175.649 963.316 172.014 963.316 M172.014 959.613 Q177.825 959.613 180.88 964.219 Q183.959 968.802 183.959 977.552 Q183.959 986.279 180.88 990.886 Q177.825 995.469 172.014 995.469 Q166.204 995.469 163.126 990.886 Q160.07 986.279 160.07 977.552 Q160.07 968.802 163.126 964.219 Q166.204 959.613 172.014 959.613 Z" fill="#000000" fill-rule="nonzero" fill-opacity="1" /><path clip-path="url(#clip160)" d="M202.176 963.316 Q198.565 963.316 196.737 966.881 Q194.931 970.423 194.931 977.552 Q194.931 984.659 196.737 988.224 Q198.565 991.765 202.176 991.765 Q205.811 991.765 207.616 988.224 Q209.445 984.659 209.445 977.552 Q209.445 970.423 207.616 966.881 Q205.811 963.316 202.176 963.316 M202.176 959.613 Q207.987 959.613 211.042 964.219 Q214.121 968.802 214.121 977.552 Q214.121 986.279 211.042 990.886 Q207.987 995.469 202.176 995.469 Q196.366 995.469 193.288 990.886 Q190.232 986.279 190.232 977.552 Q190.232 968.802 193.288 964.219 Q196.366 959.613 202.176 959.613 Z" fill="#000000" fill-rule="nonzero" fill-opacity="1" /><path clip-path="url(#clip160)" d="M232.338 978.386 Q229.005 978.386 227.084 980.168 Q225.185 981.95 225.185 985.075 Q225.185 988.2 227.084 989.983 Q229.005 991.765 232.338 991.765 Q235.672 991.765 237.593 989.983 Q239.514 988.177 239.514 985.075 Q239.514 981.95 237.593 980.168 Q235.695 978.386 232.338 978.386 M227.662 976.395 Q224.653 975.654 222.963 973.594 Q221.297 971.534 221.297 968.571 Q221.297 964.427 224.236 962.02 Q227.199 959.613 232.338 959.613 Q237.5 959.613 240.44 962.02 Q243.38 964.427 243.38 968.571 Q243.38 971.534 241.69 973.594 Q240.023 975.654 237.037 976.395 Q240.417 977.182 242.292 979.474 Q244.19 981.765 244.19 985.075 Q244.19 990.099 241.111 992.784 Q238.056 995.469 232.338 995.469 Q226.621 995.469 223.542 992.784 Q220.486 990.099 220.486 985.075 Q220.486 981.765 222.385 979.474 Q224.283 977.182 227.662 976.395 M225.949 969.011 Q225.949 971.696 227.616 973.201 Q229.306 974.705 232.338 974.705 Q235.347 974.705 237.037 973.201 Q238.75 971.696 238.75 969.011 Q238.75 966.326 237.037 964.821 Q235.347 963.316 232.338 963.316 Q229.306 963.316 227.616 964.821 Q225.949 966.326 225.949 969.011 Z" fill="#000000" fill-rule="nonzero" fill-opacity="1" /><path clip-path="url(#clip160)" d="M262.5 978.386 Q259.167 978.386 257.246 980.168 Q255.347 981.95 255.347 985.075 Q255.347 988.2 257.246 989.983 Q259.167 991.765 262.5 991.765 Q265.833 991.765 267.755 989.983 Q269.676 988.177 269.676 985.075 Q269.676 981.95 267.755 980.168 Q265.857 978.386 262.5 978.386 M257.824 976.395 Q254.815 975.654 253.125 973.594 Q251.458 971.534 251.458 968.571 Q251.458 964.427 254.398 962.02 Q257.361 959.613 262.5 959.613 Q267.662 959.613 270.602 962.02 Q273.542 964.427 273.542 968.571 Q273.542 971.534 271.852 973.594 Q270.185 975.654 267.199 976.395 Q270.579 977.182 272.454 979.474 Q274.352 981.765 274.352 985.075 Q274.352 990.099 271.273 992.784 Q268.218 995.469 262.5 995.469 Q256.783 995.469 253.704 992.784 Q250.648 990.099 250.648 985.075 Q250.648 981.765 252.546 979.474 Q254.445 977.182 257.824 976.395 M256.111 969.011 Q256.111 971.696 257.778 973.201 Q259.468 974.705 262.5 974.705 Q265.509 974.705 267.199 973.201 Q268.912 971.696 268.912 969.011 Q268.912 966.326 267.199 964.821 Q265.509 963.316 262.5 963.316 Q259.468 963.316 257.778 964.821 Q256.111 966.326 256.111 969.011 Z" fill="#000000" fill-rule="nonzero" fill-opacity="1" /><path clip-path="url(#clip160)" d="M126.691 732.557 Q123.08 732.557 121.251 736.122 Q119.445 739.664 119.445 746.793 Q119.445 753.9 121.251 757.465 Q123.08 761.006 126.691 761.006 Q130.325 761.006 132.13 757.465 Q133.959 753.9 133.959 746.793 Q133.959 739.664 132.13 736.122 Q130.325 732.557 126.691 732.557 M126.691 728.854 Q132.501 728.854 135.556 733.46 Q138.635 738.043 138.635 746.793 Q138.635 755.52 135.556 760.127 Q132.501 764.71 126.691 764.71 Q120.88 764.71 117.802 760.127 Q114.746 755.52 114.746 746.793 Q114.746 738.043 117.802 733.46 Q120.88 728.854 126.691 728.854 Z" fill="#000000" fill-rule="nonzero" fill-opacity="1" /><path clip-path="url(#clip160)" d="M146.853 758.159 L151.737 758.159 L151.737 764.039 L146.853 764.039 L146.853 758.159 Z" fill="#000000" fill-rule="nonzero" fill-opacity="1" /><path clip-path="url(#clip160)" d="M171.922 732.557 Q168.311 732.557 166.482 736.122 Q164.677 739.664 164.677 746.793 Q164.677 753.9 166.482 757.465 Q168.311 761.006 171.922 761.006 Q175.556 761.006 177.362 757.465 Q179.19 753.9 179.19 746.793 Q179.19 739.664 177.362 736.122 Q175.556 732.557 171.922 732.557 M171.922 728.854 Q177.732 728.854 180.788 733.46 Q183.866 738.043 183.866 746.793 Q183.866 755.52 180.788 760.127 Q177.732 764.71 171.922 764.71 Q166.112 764.71 163.033 760.127 Q159.978 755.52 159.978 746.793 Q159.978 738.043 163.033 733.46 Q166.112 728.854 171.922 728.854 Z" fill="#000000" fill-rule="nonzero" fill-opacity="1" /><path clip-path="url(#clip160)" d="M202.084 732.557 Q198.473 732.557 196.644 736.122 Q194.838 739.664 194.838 746.793 Q194.838 753.9 196.644 757.465 Q198.473 761.006 202.084 761.006 Q205.718 761.006 207.524 757.465 Q209.352 753.9 209.352 746.793 Q209.352 739.664 207.524 736.122 Q205.718 732.557 202.084 732.557 M202.084 728.854 Q207.894 728.854 210.949 733.46 Q214.028 738.043 214.028 746.793 Q214.028 755.52 210.949 760.127 Q207.894 764.71 202.084 764.71 Q196.274 764.71 193.195 760.127 Q190.139 755.52 190.139 746.793 Q190.139 738.043 193.195 733.46 Q196.274 728.854 202.084 728.854 Z" fill="#000000" fill-rule="nonzero" fill-opacity="1" /><path clip-path="url(#clip160)" d="M222.385 763.321 L222.385 759.062 Q224.144 759.895 225.949 760.335 Q227.755 760.775 229.491 760.775 Q234.121 760.775 236.551 757.673 Q239.005 754.548 239.352 748.205 Q238.009 750.196 235.949 751.261 Q233.889 752.326 231.389 752.326 Q226.204 752.326 223.172 749.201 Q220.162 746.053 220.162 740.613 Q220.162 735.289 223.31 732.071 Q226.459 728.854 231.69 728.854 Q237.685 728.854 240.834 733.46 Q244.005 738.043 244.005 746.793 Q244.005 754.965 240.116 759.849 Q236.25 764.71 229.699 764.71 Q227.94 764.71 226.135 764.363 Q224.329 764.016 222.385 763.321 M231.69 748.668 Q234.838 748.668 236.667 746.516 Q238.519 744.363 238.519 740.613 Q238.519 736.886 236.667 734.733 Q234.838 732.557 231.69 732.557 Q228.542 732.557 226.69 734.733 Q224.861 736.886 224.861 740.613 Q224.861 744.363 226.69 746.516 Q228.542 748.668 231.69 748.668 Z" fill="#000000" fill-rule="nonzero" fill-opacity="1" /><path clip-path="url(#clip160)" d="M262.408 732.557 Q258.796 732.557 256.968 736.122 Q255.162 739.664 255.162 746.793 Q255.162 753.9 256.968 757.465 Q258.796 761.006 262.408 761.006 Q266.042 761.006 267.847 757.465 Q269.676 753.9 269.676 746.793 Q269.676 739.664 267.847 736.122 Q266.042 732.557 262.408 732.557 M262.408 728.854 Q268.218 728.854 271.273 733.46 Q274.352 738.043 274.352 746.793 Q274.352 755.52 271.273 760.127 Q268.218 764.71 262.408 764.71 Q256.597 764.71 253.519 760.127 Q250.463 755.52 250.463 746.793 Q250.463 738.043 253.519 733.46 Q256.597 728.854 262.408 728.854 Z" fill="#000000" fill-rule="nonzero" fill-opacity="1" /><path clip-path="url(#clip160)" d="M128.288 501.799 Q124.677 501.799 122.848 505.363 Q121.043 508.905 121.043 516.035 Q121.043 523.141 122.848 526.706 Q124.677 530.247 128.288 530.247 Q131.922 530.247 133.728 526.706 Q135.556 523.141 135.556 516.035 Q135.556 508.905 133.728 505.363 Q131.922 501.799 128.288 501.799 M128.288 498.095 Q134.098 498.095 137.154 502.701 Q140.232 507.285 140.232 516.035 Q140.232 524.761 137.154 529.368 Q134.098 533.951 128.288 533.951 Q122.478 533.951 119.399 529.368 Q116.343 524.761 116.343 516.035 Q116.343 507.285 119.399 502.701 Q122.478 498.095 128.288 498.095 Z" fill="#000000" fill-rule="nonzero" fill-opacity="1" /><path clip-path="url(#clip160)" d="M148.45 527.4 L153.334 527.4 L153.334 533.28 L148.45 533.28 L148.45 527.4 Z" fill="#000000" fill-rule="nonzero" fill-opacity="1" /><path clip-path="url(#clip160)" d="M173.519 501.799 Q169.908 501.799 168.079 505.363 Q166.274 508.905 166.274 516.035 Q166.274 523.141 168.079 526.706 Q169.908 530.247 173.519 530.247 Q177.153 530.247 178.959 526.706 Q180.788 523.141 180.788 516.035 Q180.788 508.905 178.959 505.363 Q177.153 501.799 173.519 501.799 M173.519 498.095 Q179.329 498.095 182.385 502.701 Q185.463 507.285 185.463 516.035 Q185.463 524.761 182.385 529.368 Q179.329 533.951 173.519 533.951 Q167.709 533.951 164.63 529.368 Q161.575 524.761 161.575 516.035 Q161.575 507.285 164.63 502.701 Q167.709 498.095 173.519 498.095 Z" fill="#000000" fill-rule="nonzero" fill-opacity="1" /><path clip-path="url(#clip160)" d="M203.681 501.799 Q200.07 501.799 198.241 505.363 Q196.436 508.905 196.436 516.035 Q196.436 523.141 198.241 526.706 Q200.07 530.247 203.681 530.247 Q207.315 530.247 209.121 526.706 Q210.949 523.141 210.949 516.035 Q210.949 508.905 209.121 505.363 Q207.315 501.799 203.681 501.799 M203.681 498.095 Q209.491 498.095 212.547 502.701 Q215.625 507.285 215.625 516.035 Q215.625 524.761 212.547 529.368 Q209.491 533.951 203.681 533.951 Q197.871 533.951 194.792 529.368 Q191.737 524.761 191.737 516.035 Q191.737 507.285 194.792 502.701 Q197.871 498.095 203.681 498.095 Z" fill="#000000" fill-rule="nonzero" fill-opacity="1" /><path clip-path="url(#clip160)" d="M223.982 532.562 L223.982 528.303 Q225.741 529.136 227.547 529.576 Q229.352 530.016 231.088 530.016 Q235.718 530.016 238.148 526.914 Q240.602 523.789 240.949 517.447 Q239.607 519.437 237.547 520.502 Q235.486 521.567 232.986 521.567 Q227.801 521.567 224.769 518.442 Q221.76 515.294 221.76 509.854 Q221.76 504.53 224.908 501.312 Q228.056 498.095 233.287 498.095 Q239.283 498.095 242.431 502.701 Q245.602 507.285 245.602 516.035 Q245.602 524.206 241.713 529.09 Q237.847 533.951 231.297 533.951 Q229.537 533.951 227.732 533.604 Q225.926 533.257 223.982 532.562 M233.287 517.91 Q236.435 517.91 238.264 515.757 Q240.116 513.604 240.116 509.854 Q240.116 506.127 238.264 503.974 Q236.435 501.799 233.287 501.799 Q230.139 501.799 228.287 503.974 Q226.459 506.127 226.459 509.854 Q226.459 513.604 228.287 515.757 Q230.139 517.91 233.287 517.91 Z" fill="#000000" fill-rule="nonzero" fill-opacity="1" /><path clip-path="url(#clip160)" d="M258.033 529.345 L274.352 529.345 L274.352 533.28 L252.408 533.28 L252.408 529.345 Q255.07 526.59 259.653 521.96 Q264.259 517.308 265.44 515.965 Q267.685 513.442 268.565 511.706 Q269.468 509.947 269.468 508.257 Q269.468 505.502 267.523 503.766 Q265.602 502.03 262.5 502.03 Q260.301 502.03 257.847 502.794 Q255.417 503.558 252.639 505.109 L252.639 500.386 Q255.463 499.252 257.917 498.674 Q260.37 498.095 262.408 498.095 Q267.778 498.095 270.972 500.78 Q274.167 503.465 274.167 507.956 Q274.167 510.085 273.357 512.007 Q272.569 513.905 270.463 516.497 Q269.884 517.169 266.782 520.386 Q263.681 523.581 258.033 529.345 Z" fill="#000000" fill-rule="nonzero" fill-opacity="1" /><path clip-path="url(#clip160)" d="M126.205 271.04 Q122.593 271.04 120.765 274.604 Q118.959 278.146 118.959 285.276 Q118.959 292.382 120.765 295.947 Q122.593 299.489 126.205 299.489 Q129.839 299.489 131.644 295.947 Q133.473 292.382 133.473 285.276 Q133.473 278.146 131.644 274.604 Q129.839 271.04 126.205 271.04 M126.205 267.336 Q132.015 267.336 135.07 271.942 Q138.149 276.526 138.149 285.276 Q138.149 294.002 135.07 298.609 Q132.015 303.192 126.205 303.192 Q120.394 303.192 117.316 298.609 Q114.26 294.002 114.26 285.276 Q114.26 276.526 117.316 271.942 Q120.394 267.336 126.205 267.336 Z" fill="#000000" fill-rule="nonzero" fill-opacity="1" /><path clip-path="url(#clip160)" d="M146.366 296.641 L151.251 296.641 L151.251 302.521 L146.366 302.521 L146.366 296.641 Z" fill="#000000" fill-rule="nonzero" fill-opacity="1" /><path clip-path="url(#clip160)" d="M171.436 271.04 Q167.825 271.04 165.996 274.604 Q164.19 278.146 164.19 285.276 Q164.19 292.382 165.996 295.947 Q167.825 299.489 171.436 299.489 Q175.07 299.489 176.876 295.947 Q178.704 292.382 178.704 285.276 Q178.704 278.146 176.876 274.604 Q175.07 271.04 171.436 271.04 M171.436 267.336 Q177.246 267.336 180.301 271.942 Q183.38 276.526 183.38 285.276 Q183.38 294.002 180.301 298.609 Q177.246 303.192 171.436 303.192 Q165.626 303.192 162.547 298.609 Q159.491 294.002 159.491 285.276 Q159.491 276.526 162.547 271.942 Q165.626 267.336 171.436 267.336 Z" fill="#000000" fill-rule="nonzero" fill-opacity="1" /><path clip-path="url(#clip160)" d="M201.598 271.04 Q197.987 271.04 196.158 274.604 Q194.352 278.146 194.352 285.276 Q194.352 292.382 196.158 295.947 Q197.987 299.489 201.598 299.489 Q205.232 299.489 207.037 295.947 Q208.866 292.382 208.866 285.276 Q208.866 278.146 207.037 274.604 Q205.232 271.04 201.598 271.04 M201.598 267.336 Q207.408 267.336 210.463 271.942 Q213.542 276.526 213.542 285.276 Q213.542 294.002 210.463 298.609 Q207.408 303.192 201.598 303.192 Q195.787 303.192 192.709 298.609 Q189.653 294.002 189.653 285.276 Q189.653 276.526 192.709 271.942 Q195.787 267.336 201.598 267.336 Z" fill="#000000" fill-rule="nonzero" fill-opacity="1" /><path clip-path="url(#clip160)" d="M221.898 301.803 L221.898 297.544 Q223.658 298.377 225.463 298.817 Q227.269 299.257 229.005 299.257 Q233.635 299.257 236.065 296.155 Q238.519 293.03 238.866 286.688 Q237.523 288.678 235.463 289.743 Q233.403 290.808 230.903 290.808 Q225.718 290.808 222.686 287.683 Q219.676 284.535 219.676 279.095 Q219.676 273.771 222.824 270.553 Q225.973 267.336 231.204 267.336 Q237.199 267.336 240.347 271.942 Q243.519 276.526 243.519 285.276 Q243.519 293.447 239.63 298.331 Q235.764 303.192 229.213 303.192 Q227.454 303.192 225.648 302.845 Q223.843 302.498 221.898 301.803 M231.204 287.151 Q234.352 287.151 236.181 284.998 Q238.033 282.845 238.033 279.095 Q238.033 275.368 236.181 273.216 Q234.352 271.04 231.204 271.04 Q228.056 271.04 226.204 273.216 Q224.375 275.368 224.375 279.095 Q224.375 282.845 226.204 284.998 Q228.056 287.151 231.204 287.151 Z" fill="#000000" fill-rule="nonzero" fill-opacity="1" /><path clip-path="url(#clip160)" d="M264.769 272.035 L252.963 290.484 L264.769 290.484 L264.769 272.035 M263.542 267.961 L269.421 267.961 L269.421 290.484 L274.352 290.484 L274.352 294.373 L269.421 294.373 L269.421 302.521 L264.769 302.521 L264.769 294.373 L249.167 294.373 L249.167 289.859 L263.542 267.961 Z" fill="#000000" fill-rule="nonzero" fill-opacity="1" /><path clip-path="url(#clip160)" d="M33.7671 788.508 L14.479 788.508 L14.479 782.652 L64.0042 782.652 L64.0042 788.508 L58.657 788.508 Q61.8398 790.354 63.3994 793.187 Q64.9272 795.988 64.9272 799.935 Q64.9272 806.396 59.771 810.47 Q54.6147 814.512 46.212 814.512 Q37.8093 814.512 32.6531 810.47 Q27.4968 806.396 27.4968 799.935 Q27.4968 795.988 29.0564 793.187 Q30.5842 790.354 33.7671 788.508 M46.212 808.465 Q52.6732 808.465 56.3653 805.823 Q60.0256 803.149 60.0256 798.502 Q60.0256 793.855 56.3653 791.182 Q52.6732 788.508 46.212 788.508 Q39.7508 788.508 36.0905 791.182 Q32.3984 793.855 32.3984 798.502 Q32.3984 803.149 36.0905 805.823 Q39.7508 808.465 46.212 808.465 Z" fill="#000000" fill-rule="nonzero" fill-opacity="1" /><path clip-path="url(#clip160)" d="M74.8259 743.503 L79.3773 743.503 L79.3773 777.368 L74.8259 777.368 L74.8259 743.503 Z" fill="#000000" fill-rule="nonzero" fill-opacity="1" /><path clip-path="url(#clip160)" d="M28.3562 737.996 L28.3562 732.14 L64.0042 732.14 L64.0042 737.996 L28.3562 737.996 M14.479 737.996 L14.479 732.14 L21.895 732.14 L21.895 737.996 L14.479 737.996 Z" fill="#000000" fill-rule="nonzero" fill-opacity="1" /><path clip-path="url(#clip160)" d="M1031.48 12.096 L1066.24 12.096 L1066.24 18.9825 L1039.67 18.9825 L1039.67 36.8065 L1063.65 36.8065 L1063.65 43.6931 L1039.67 43.6931 L1039.67 72.576 L1031.48 72.576 L1031.48 12.096 Z" fill="#000000" fill-rule="nonzero" fill-opacity="1" /><path clip-path="url(#clip160)" d="M1072.84 27.2059 L1080.3 27.2059 L1080.3 72.576 L1072.84 72.576 L1072.84 27.2059 M1072.84 9.54393 L1080.3 9.54393 L1080.3 18.9825 L1072.84 18.9825 L1072.84 9.54393 Z" fill="#000000" fill-rule="nonzero" fill-opacity="1" /><path clip-path="url(#clip160)" d="M1133.61 45.1919 L1133.61 72.576 L1126.15 72.576 L1126.15 45.4349 Q1126.15 38.994 1123.64 35.7938 Q1121.13 32.5936 1116.11 32.5936 Q1110.07 32.5936 1106.59 36.4419 Q1103.1 40.2903 1103.1 46.9338 L1103.1 72.576 L1095.61 72.576 L1095.61 27.2059 L1103.1 27.2059 L1103.1 34.2544 Q1105.78 30.163 1109.38 28.1376 Q1113.03 26.1121 1117.77 26.1121 Q1125.59 26.1121 1129.6 30.9732 Q1133.61 35.7938 1133.61 45.1919 Z" fill="#000000" fill-rule="nonzero" fill-opacity="1" /><path clip-path="url(#clip160)" d="M1169.09 49.7694 Q1160.06 49.7694 1156.58 51.8354 Q1153.09 53.9013 1153.09 58.8839 Q1153.09 62.8538 1155.68 65.2034 Q1158.32 67.5124 1162.81 67.5124 Q1169.01 67.5124 1172.74 63.1374 Q1176.51 58.7219 1176.51 51.4303 L1176.51 49.7694 L1169.09 49.7694 M1183.96 46.6907 L1183.96 72.576 L1176.51 72.576 L1176.51 65.6895 Q1173.95 69.8214 1170.15 71.8063 Q1166.34 73.7508 1160.83 73.7508 Q1153.86 73.7508 1149.73 69.8619 Q1145.64 65.9325 1145.64 59.3701 Q1145.64 51.7138 1150.74 47.825 Q1155.89 43.9361 1166.05 43.9361 L1176.51 43.9361 L1176.51 43.2069 Q1176.51 38.0623 1173.1 35.2672 Q1169.74 32.4315 1163.62 32.4315 Q1159.73 32.4315 1156.05 33.3632 Q1152.36 34.295 1148.96 36.1584 L1148.96 29.2718 Q1153.05 27.692 1156.9 26.9223 Q1160.75 26.1121 1164.39 26.1121 Q1174.24 26.1121 1179.1 31.2163 Q1183.96 36.3204 1183.96 46.6907 Z" fill="#000000" fill-rule="nonzero" fill-opacity="1" /><path clip-path="url(#clip160)" d="M1199.31 9.54393 L1206.77 9.54393 L1206.77 72.576 L1199.31 72.576 L1199.31 9.54393 Z" fill="#000000" fill-rule="nonzero" fill-opacity="1" /><path clip-path="url(#clip160)" d="M1278.59 34.0924 L1278.59 9.54393 L1286.04 9.54393 L1286.04 72.576 L1278.59 72.576 L1278.59 65.7705 Q1276.24 69.8214 1272.63 71.8063 Q1269.07 73.7508 1264.05 73.7508 Q1255.82 73.7508 1250.64 67.1883 Q1245.49 60.6258 1245.49 49.9314 Q1245.49 39.2371 1250.64 32.6746 Q1255.82 26.1121 1264.05 26.1121 Q1269.07 26.1121 1272.63 28.0971 Q1276.24 30.0415 1278.59 34.0924 M1253.19 49.9314 Q1253.19 58.1548 1256.55 62.8538 Q1259.95 67.5124 1265.87 67.5124 Q1271.78 67.5124 1275.19 62.8538 Q1278.59 58.1548 1278.59 49.9314 Q1278.59 41.7081 1275.19 37.0496 Q1271.78 32.3505 1265.87 32.3505 Q1259.95 32.3505 1256.55 37.0496 Q1253.19 41.7081 1253.19 49.9314 Z" fill="#000000" fill-rule="nonzero" fill-opacity="1" /><path clip-path="url(#clip160)" d="M1301.39 27.2059 L1308.85 27.2059 L1308.85 72.576 L1301.39 72.576 L1301.39 27.2059 M1301.39 9.54393 L1308.85 9.54393 L1308.85 18.9825 L1301.39 18.9825 L1301.39 9.54393 Z" fill="#000000" fill-rule="nonzero" fill-opacity="1" /><path clip-path="url(#clip160)" d="M1353.37 28.5427 L1353.37 35.5912 Q1350.21 33.9709 1346.81 33.1607 Q1343.4 32.3505 1339.76 32.3505 Q1334.21 32.3505 1331.41 34.0519 Q1328.66 35.7533 1328.66 39.156 Q1328.66 41.7486 1330.64 43.2475 Q1332.63 44.7058 1338.62 46.0426 L1341.17 46.6097 Q1349.11 48.3111 1352.44 51.4303 Q1355.8 54.509 1355.8 60.0587 Q1355.8 66.3781 1350.78 70.0644 Q1345.79 73.7508 1337.04 73.7508 Q1333.4 73.7508 1329.43 73.0216 Q1325.5 72.3329 1321.12 70.9151 L1321.12 63.2184 Q1325.25 65.3654 1329.27 66.4591 Q1333.28 67.5124 1337.2 67.5124 Q1342.47 67.5124 1345.31 65.73 Q1348.14 63.9071 1348.14 60.6258 Q1348.14 57.5877 1346.08 55.9673 Q1344.05 54.3469 1337.12 52.8481 L1334.53 52.2405 Q1327.6 50.7821 1324.53 47.7845 Q1321.45 44.7463 1321.45 39.4801 Q1321.45 33.0797 1325.98 29.5959 Q1330.52 26.1121 1338.87 26.1121 Q1343 26.1121 1346.64 26.7198 Q1350.29 27.3274 1353.37 28.5427 Z" fill="#000000" fill-rule="nonzero" fill-opacity="1" /><path clip-path="url(#clip160)" d="M1375.04 14.324 L1375.04 27.2059 L1390.39 27.2059 L1390.39 32.9987 L1375.04 32.9987 L1375.04 57.6282 Q1375.04 63.1779 1376.54 64.7578 Q1378.08 66.3376 1382.74 66.3376 L1390.39 66.3376 L1390.39 72.576 L1382.74 72.576 Q1374.11 72.576 1370.83 69.3758 Q1367.55 66.1351 1367.55 57.6282 L1367.55 32.9987 L1362.08 32.9987 L1362.08 27.2059 L1367.55 27.2059 L1367.55 14.324 L1375.04 14.324 Z" fill="#000000" fill-rule="nonzero" fill-opacity="1" /><path clip-path="url(#clip160)" d="M1420.82 49.7694 Q1411.78 49.7694 1408.3 51.8354 Q1404.81 53.9013 1404.81 58.8839 Q1404.81 62.8538 1407.41 65.2034 Q1410.04 67.5124 1414.54 67.5124 Q1420.73 67.5124 1424.46 63.1374 Q1428.23 58.7219 1428.23 51.4303 L1428.23 49.7694 L1420.82 49.7694 M1435.68 46.6907 L1435.68 72.576 L1428.23 72.576 L1428.23 65.6895 Q1425.68 69.8214 1421.87 71.8063 Q1418.06 73.7508 1412.55 73.7508 Q1405.58 73.7508 1401.45 69.8619 Q1397.36 65.9325 1397.36 59.3701 Q1397.36 51.7138 1402.46 47.825 Q1407.61 43.9361 1417.78 43.9361 L1428.23 43.9361 L1428.23 43.2069 Q1428.23 38.0623 1424.83 35.2672 Q1421.46 32.4315 1415.35 32.4315 Q1411.46 32.4315 1407.77 33.3632 Q1404.09 34.295 1400.68 36.1584 L1400.68 29.2718 Q1404.77 27.692 1408.62 26.9223 Q1412.47 26.1121 1416.12 26.1121 Q1425.96 26.1121 1430.82 31.2163 Q1435.68 36.3204 1435.68 46.6907 Z" fill="#000000" fill-rule="nonzero" fill-opacity="1" /><path clip-path="url(#clip160)" d="M1488.75 45.1919 L1488.75 72.576 L1481.3 72.576 L1481.3 45.4349 Q1481.3 38.994 1478.78 35.7938 Q1476.27 32.5936 1471.25 32.5936 Q1465.21 32.5936 1461.73 36.4419 Q1458.25 40.2903 1458.25 46.9338 L1458.25 72.576 L1450.75 72.576 L1450.75 27.2059 L1458.25 27.2059 L1458.25 34.2544 Q1460.92 30.163 1464.52 28.1376 Q1468.17 26.1121 1472.91 26.1121 Q1480.73 26.1121 1484.74 30.9732 Q1488.75 35.7938 1488.75 45.1919 Z" fill="#000000" fill-rule="nonzero" fill-opacity="1" /><path clip-path="url(#clip160)" d="M1536.27 28.9478 L1536.27 35.9153 Q1533.11 34.1734 1529.91 33.3227 Q1526.75 32.4315 1523.51 32.4315 Q1516.25 32.4315 1512.24 37.0496 Q1508.23 41.6271 1508.23 49.9314 Q1508.23 58.2358 1512.24 62.8538 Q1516.25 67.4314 1523.51 67.4314 Q1526.75 67.4314 1529.91 66.5807 Q1533.11 65.6895 1536.27 63.9476 L1536.27 70.8341 Q1533.15 72.2924 1529.78 73.0216 Q1526.46 73.7508 1522.7 73.7508 Q1512.45 73.7508 1506.41 67.3098 Q1500.38 60.8689 1500.38 49.9314 Q1500.38 38.832 1506.45 32.472 Q1512.57 26.1121 1523.18 26.1121 Q1526.63 26.1121 1529.91 26.8413 Q1533.19 27.5299 1536.27 28.9478 Z" fill="#000000" fill-rule="nonzero" fill-opacity="1" /><path clip-path="url(#clip160)" d="M1588.04 48.0275 L1588.04 51.6733 L1553.77 51.6733 Q1554.25 59.3701 1558.38 63.421 Q1562.56 67.4314 1569.97 67.4314 Q1574.26 67.4314 1578.27 66.3781 Q1582.33 65.3249 1586.3 63.2184 L1586.3 70.267 Q1582.28 71.9684 1578.07 72.8596 Q1573.86 73.7508 1569.52 73.7508 Q1558.67 73.7508 1552.31 67.4314 Q1545.99 61.1119 1545.99 50.3365 Q1545.99 39.1965 1551.98 32.6746 Q1558.02 26.1121 1568.23 26.1121 Q1577.38 26.1121 1582.69 32.0264 Q1588.04 37.9003 1588.04 48.0275 M1580.58 45.84 Q1580.5 39.7232 1577.14 36.0774 Q1573.82 32.4315 1568.31 32.4315 Q1562.07 32.4315 1558.3 35.9558 Q1554.58 39.4801 1554.01 45.8805 L1580.58 45.84 Z" fill="#000000" fill-rule="nonzero" fill-opacity="1" /><path clip-path="url(#clip160)" d="M1629.19 28.5427 L1629.19 35.5912 Q1626.03 33.9709 1622.63 33.1607 Q1619.23 32.3505 1615.58 32.3505 Q1610.03 32.3505 1607.24 34.0519 Q1604.48 35.7533 1604.48 39.156 Q1604.48 41.7486 1606.47 43.2475 Q1608.45 44.7058 1614.45 46.0426 L1617 46.6097 Q1624.94 48.3111 1628.26 51.4303 Q1631.62 54.509 1631.62 60.0587 Q1631.62 66.3781 1626.6 70.0644 Q1621.62 73.7508 1612.87 73.7508 Q1609.22 73.7508 1605.25 73.0216 Q1601.32 72.3329 1596.95 70.9151 L1596.95 63.2184 Q1601.08 65.3654 1605.09 66.4591 Q1609.1 67.5124 1613.03 67.5124 Q1618.3 67.5124 1621.13 65.73 Q1623.97 63.9071 1623.97 60.6258 Q1623.97 57.5877 1621.9 55.9673 Q1619.88 54.3469 1612.95 52.8481 L1610.36 52.2405 Q1603.43 50.7821 1600.35 47.7845 Q1597.27 44.7463 1597.27 39.4801 Q1597.27 33.0797 1601.81 29.5959 Q1606.35 26.1121 1614.69 26.1121 Q1618.82 26.1121 1622.47 26.7198 Q1626.12 27.3274 1629.19 28.5427 Z" fill="#000000" fill-rule="nonzero" fill-opacity="1" /><circle clip-path="url(#clip162)" cx="368.156" cy="1238.37" r="14.4" fill="#009af9" fill-rule="evenodd" fill-opacity="1" stroke="#000000" stroke-opacity="1" stroke-width="3.2"/>
<circle clip-path="url(#clip162)" cx="643.412" cy="477.769" r="14.4" fill="#009af9" fill-rule="evenodd" fill-opacity="1" stroke="#000000" stroke-opacity="1" stroke-width="3.2"/>
<circle clip-path="url(#clip162)" cx="918.669" cy="501.441" r="14.4" fill="#009af9" fill-rule="evenodd" fill-opacity="1" stroke="#000000" stroke-opacity="1" stroke-width="3.2"/>
<circle clip-path="url(#clip162)" cx="1193.93" cy="413.125" r="14.4" fill="#009af9" fill-rule="evenodd" fill-opacity="1" stroke="#000000" stroke-opacity="1" stroke-width="3.2"/>
<circle clip-path="url(#clip162)" cx="1469.18" cy="160.256" r="14.4" fill="#009af9" fill-rule="evenodd" fill-opacity="1" stroke="#000000" stroke-opacity="1" stroke-width="3.2"/>
<circle clip-path="url(#clip162)" cx="1744.44" cy="363.116" r="14.4" fill="#009af9" fill-rule="evenodd" fill-opacity="1" stroke="#000000" stroke-opacity="1" stroke-width="3.2"/>
<circle clip-path="url(#clip162)" cx="2019.7" cy="441.941" r="14.4" fill="#009af9" fill-rule="evenodd" fill-opacity="1" stroke="#000000" stroke-opacity="1" stroke-width="3.2"/>
<circle clip-path="url(#clip162)" cx="2294.95" cy="1386.4" r="14.4" fill="#009af9" fill-rule="evenodd" fill-opacity="1" stroke="#000000" stroke-opacity="1" stroke-width="3.2"/>
</svg>
