<?xml version="1.0" encoding="utf-8"?>
<svg xmlns="http://www.w3.org/2000/svg" xmlns:xlink="http://www.w3.org/1999/xlink" width="600" height="400" viewBox="0 0 2400 1600">
<defs>
  <clipPath id="clip370">
    <rect x="0" y="0" width="2400" height="1600"/>
  </clipPath>
</defs>
<path clip-path="url(#clip370)" d="M0 1600 L2400 1600 L2400 0 L0 0  Z" fill="#ffffff" fill-rule="evenodd" fill-opacity="1"/>
<defs>
  <clipPath id="clip371">
    <rect x="480" y="0" width="1681" height="1600"/>
  </clipPath>
</defs>
<path clip-path="url(#clip370)" d="M340.028 1423.18 L2352.76 1423.18 L2352.76 123.472 L340.028 123.472  Z" fill="#ffffff" fill-rule="evenodd" fill-opacity="1"/>
<defs>
  <clipPath id="clip372">
    <rect x="340" y="123" width="2014" height="1301"/>
  </clipPath>
</defs>
<polyline clip-path="url(#clip372)" style="stroke:#000000; stroke-linecap:round; stroke-linejoin:round; stroke-width:2; stroke-opacity:0.1; fill:none" points="607.969,1423.18 607.969,123.472 "/>
<polyline clip-path="url(#clip372)" style="stroke:#000000; stroke-linecap:round; stroke-linejoin:round; stroke-width:2; stroke-opacity:0.1; fill:none" points="1029.93,1423.18 1029.93,123.472 "/>
<polyline clip-path="url(#clip372)" style="stroke:#000000; stroke-linecap:round; stroke-linejoin:round; stroke-width:2; stroke-opacity:0.1; fill:none" points="1451.88,1423.18 1451.88,123.472 "/>
<polyline clip-path="url(#clip372)" style="stroke:#000000; stroke-linecap:round; stroke-linejoin:round; stroke-width:2; stroke-opacity:0.1; fill:none" points="1873.84,1423.18 1873.84,123.472 "/>
<polyline clip-path="url(#clip372)" style="stroke:#000000; stroke-linecap:round; stroke-linejoin:round; stroke-width:2; stroke-opacity:0.1; fill:none" points="2295.79,1423.18 2295.79,123.472 "/>
<polyline clip-path="url(#clip372)" style="stroke:#000000; stroke-linecap:round; stroke-linejoin:round; stroke-width:2; stroke-opacity:0.1; fill:none" points="340.028,1332.91 2352.76,1332.91 "/>
<polyline clip-path="url(#clip372)" style="stroke:#000000; stroke-linecap:round; stroke-linejoin:round; stroke-width:2; stroke-opacity:0.1; fill:none" points="340.028,1051.5 2352.76,1051.5 "/>
<polyline clip-path="url(#clip372)" style="stroke:#000000; stroke-linecap:round; stroke-linejoin:round; stroke-width:2; stroke-opacity:0.1; fill:none" points="340.028,770.09 2352.76,770.09 "/>
<polyline clip-path="url(#clip372)" style="stroke:#000000; stroke-linecap:round; stroke-linejoin:round; stroke-width:2; stroke-opacity:0.1; fill:none" points="340.028,488.682 2352.76,488.682 "/>
<polyline clip-path="url(#clip372)" style="stroke:#000000; stroke-linecap:round; stroke-linejoin:round; stroke-width:2; stroke-opacity:0.1; fill:none" points="340.028,207.273 2352.76,207.273 "/>
<polyline clip-path="url(#clip370)" style="stroke:#000000; stroke-linecap:round; stroke-linejoin:round; stroke-width:4; stroke-opacity:1; fill:none" points="340.028,1423.18 2352.76,1423.18 "/>
<polyline clip-path="url(#clip370)" style="stroke:#000000; stroke-linecap:round; stroke-linejoin:round; stroke-width:4; stroke-opacity:1; fill:none" points="607.969,1423.18 607.969,1404.28 "/>
<polyline clip-path="url(#clip370)" style="stroke:#000000; stroke-linecap:round; stroke-linejoin:round; stroke-width:4; stroke-opacity:1; fill:none" points="1029.93,1423.18 1029.93,1404.28 "/>
<polyline clip-path="url(#clip370)" style="stroke:#000000; stroke-linecap:round; stroke-linejoin:round; stroke-width:4; stroke-opacity:1; fill:none" points="1451.88,1423.18 1451.88,1404.28 "/>
<polyline clip-path="url(#clip370)" style="stroke:#000000; stroke-linecap:round; stroke-linejoin:round; stroke-width:4; stroke-opacity:1; fill:none" points="1873.84,1423.18 1873.84,1404.28 "/>
<polyline clip-path="url(#clip370)" style="stroke:#000000; stroke-linecap:round; stroke-linejoin:round; stroke-width:4; stroke-opacity:1; fill:none" points="2295.79,1423.18 2295.79,1404.28 "/>
<path clip-path="url(#clip370)" d="M602.622 1481.64 L618.942 1481.64 L618.942 1485.58 L596.997 1485.58 L596.997 1481.64 Q599.659 1478.89 604.243 1474.26 Q608.849 1469.61 610.03 1468.27 Q612.275 1465.74 613.155 1464.01 Q614.057 1462.25 614.057 1460.56 Q614.057 1457.8 612.113 1456.07 Q610.192 1454.33 607.09 1454.33 Q604.891 1454.33 602.437 1455.09 Q600.007 1455.86 597.229 1457.41 L597.229 1452.69 Q600.053 1451.55 602.507 1450.97 Q604.96 1450.39 606.997 1450.39 Q612.368 1450.39 615.562 1453.08 Q618.756 1455.77 618.756 1460.26 Q618.756 1462.39 617.946 1464.31 Q617.159 1466.2 615.053 1468.8 Q614.474 1469.47 611.372 1472.69 Q608.27 1475.88 602.622 1481.64 Z" fill="#000000" fill-rule="nonzero" fill-opacity="1" /><path clip-path="url(#clip370)" d="M1032.93 1455.09 L1021.13 1473.54 L1032.93 1473.54 L1032.93 1455.09 M1031.71 1451.02 L1037.59 1451.02 L1037.59 1473.54 L1042.52 1473.54 L1042.52 1477.43 L1037.59 1477.43 L1037.59 1485.58 L1032.93 1485.58 L1032.93 1477.43 L1017.33 1477.43 L1017.33 1472.92 L1031.71 1451.02 Z" fill="#000000" fill-rule="nonzero" fill-opacity="1" /><path clip-path="url(#clip370)" d="M1452.29 1466.44 Q1449.14 1466.44 1447.29 1468.59 Q1445.46 1470.74 1445.46 1474.49 Q1445.46 1478.22 1447.29 1480.39 Q1449.14 1482.55 1452.29 1482.55 Q1455.43 1482.55 1457.26 1480.39 Q1459.11 1478.22 1459.11 1474.49 Q1459.11 1470.74 1457.26 1468.59 Q1455.43 1466.44 1452.29 1466.44 M1461.57 1451.78 L1461.57 1456.04 Q1459.81 1455.21 1458 1454.77 Q1456.22 1454.33 1454.46 1454.33 Q1449.83 1454.33 1447.38 1457.45 Q1444.95 1460.58 1444.6 1466.9 Q1445.97 1464.89 1448.03 1463.82 Q1450.09 1462.73 1452.56 1462.73 Q1457.77 1462.73 1460.78 1465.9 Q1463.81 1469.05 1463.81 1474.49 Q1463.81 1479.82 1460.67 1483.03 Q1457.52 1486.25 1452.29 1486.25 Q1446.29 1486.25 1443.12 1481.67 Q1439.95 1477.06 1439.95 1468.33 Q1439.95 1460.14 1443.84 1455.28 Q1447.73 1450.39 1454.28 1450.39 Q1456.04 1450.39 1457.82 1450.74 Q1459.62 1451.09 1461.57 1451.78 Z" fill="#000000" fill-rule="nonzero" fill-opacity="1" /><path clip-path="url(#clip370)" d="M1873.84 1469.17 Q1870.5 1469.17 1868.58 1470.95 Q1866.68 1472.73 1866.68 1475.86 Q1866.68 1478.98 1868.58 1480.77 Q1870.5 1482.55 1873.84 1482.55 Q1877.17 1482.55 1879.09 1480.77 Q1881.01 1478.96 1881.01 1475.86 Q1881.01 1472.73 1879.09 1470.95 Q1877.19 1469.17 1873.84 1469.17 M1869.16 1467.18 Q1866.15 1466.44 1864.46 1464.38 Q1862.79 1462.32 1862.79 1459.35 Q1862.79 1455.21 1865.73 1452.8 Q1868.7 1450.39 1873.84 1450.39 Q1879 1450.39 1881.94 1452.8 Q1884.88 1455.21 1884.88 1459.35 Q1884.88 1462.32 1883.19 1464.38 Q1881.52 1466.44 1878.54 1467.18 Q1881.91 1467.96 1883.79 1470.26 Q1885.69 1472.55 1885.69 1475.86 Q1885.69 1480.88 1882.61 1483.57 Q1879.55 1486.25 1873.84 1486.25 Q1868.12 1486.25 1865.04 1483.57 Q1861.98 1480.88 1861.98 1475.86 Q1861.98 1472.55 1863.88 1470.26 Q1865.78 1467.96 1869.16 1467.18 M1867.45 1459.79 Q1867.45 1462.48 1869.11 1463.98 Q1870.8 1465.49 1873.84 1465.49 Q1876.85 1465.49 1878.54 1463.98 Q1880.25 1462.48 1880.25 1459.79 Q1880.25 1457.11 1878.54 1455.6 Q1876.85 1454.1 1873.84 1454.1 Q1870.8 1454.1 1869.11 1455.6 Q1867.45 1457.11 1867.45 1459.79 Z" fill="#000000" fill-rule="nonzero" fill-opacity="1" /><path clip-path="url(#clip370)" d="M2270.48 1481.64 L2278.12 1481.64 L2278.12 1455.28 L2269.81 1456.95 L2269.81 1452.69 L2278.07 1451.02 L2282.75 1451.02 L2282.75 1481.64 L2290.39 1481.64 L2290.39 1485.58 L2270.48 1485.58 L2270.48 1481.64 Z" fill="#000000" fill-rule="nonzero" fill-opacity="1" /><path clip-path="url(#clip370)" d="M2309.83 1454.1 Q2306.22 1454.1 2304.39 1457.66 Q2302.59 1461.2 2302.59 1468.33 Q2302.59 1475.44 2304.39 1479.01 Q2306.22 1482.55 2309.83 1482.55 Q2313.47 1482.55 2315.27 1479.01 Q2317.1 1475.44 2317.1 1468.33 Q2317.1 1461.2 2315.27 1457.66 Q2313.47 1454.1 2309.83 1454.1 M2309.83 1450.39 Q2315.64 1450.39 2318.7 1455 Q2321.78 1459.58 2321.78 1468.33 Q2321.78 1477.06 2318.7 1481.67 Q2315.64 1486.25 2309.83 1486.25 Q2304.02 1486.25 2300.94 1481.67 Q2297.89 1477.06 2297.89 1468.33 Q2297.89 1459.58 2300.94 1455 Q2304.02 1450.39 2309.83 1450.39 Z" fill="#000000" fill-rule="nonzero" fill-opacity="1" /><path clip-path="url(#clip370)" d="M1286.11 1525.81 L1286.11 1562.76 L1293.87 1562.76 Q1303.71 1562.76 1308.26 1558.3 Q1312.84 1553.85 1312.84 1544.24 Q1312.84 1534.69 1308.26 1530.26 Q1303.71 1525.81 1293.87 1525.81 L1286.11 1525.81 M1279.68 1520.52 L1292.89 1520.52 Q1306.7 1520.52 1313.16 1526.28 Q1319.62 1532.01 1319.62 1544.24 Q1319.62 1556.52 1313.13 1562.28 Q1306.64 1568.04 1292.89 1568.04 L1279.68 1568.04 L1279.68 1520.52 Z" fill="#000000" fill-rule="nonzero" fill-opacity="1" /><path clip-path="url(#clip370)" d="M1329.62 1532.4 L1335.47 1532.4 L1335.47 1568.04 L1329.62 1568.04 L1329.62 1532.4 M1329.62 1518.52 L1335.47 1518.52 L1335.47 1525.93 L1329.62 1525.93 L1329.62 1518.52 Z" fill="#000000" fill-rule="nonzero" fill-opacity="1" /><path clip-path="url(#clip370)" d="M1370.45 1533.45 L1370.45 1538.98 Q1367.97 1537.71 1365.3 1537.07 Q1362.62 1536.44 1359.76 1536.44 Q1355.4 1536.44 1353.2 1537.77 Q1351.04 1539.11 1351.04 1541.79 Q1351.04 1543.82 1352.6 1545 Q1354.16 1546.15 1358.87 1547.2 L1360.87 1547.64 Q1367.11 1548.98 1369.72 1551.43 Q1372.36 1553.85 1372.36 1558.21 Q1372.36 1563.17 1368.42 1566.07 Q1364.5 1568.97 1357.63 1568.97 Q1354.76 1568.97 1351.64 1568.39 Q1348.56 1567.85 1345.12 1566.74 L1345.12 1560.69 Q1348.37 1562.38 1351.52 1563.24 Q1354.67 1564.07 1357.75 1564.07 Q1361.89 1564.07 1364.12 1562.66 Q1366.35 1561.23 1366.35 1558.65 Q1366.35 1556.27 1364.73 1554.99 Q1363.13 1553.72 1357.69 1552.54 L1355.65 1552.07 Q1350.21 1550.92 1347.79 1548.56 Q1345.37 1546.18 1345.37 1542.04 Q1345.37 1537.01 1348.94 1534.27 Q1352.5 1531.54 1359.06 1531.54 Q1362.31 1531.54 1365.17 1532.01 Q1368.04 1532.49 1370.45 1533.45 Z" fill="#000000" fill-rule="nonzero" fill-opacity="1" /><path clip-path="url(#clip370)" d="M1381.47 1518.52 L1387.36 1518.52 L1387.36 1547.77 L1404.83 1532.4 L1412.31 1532.4 L1393.4 1549.07 L1413.1 1568.04 L1405.47 1568.04 L1387.36 1550.63 L1387.36 1568.04 L1381.47 1568.04 L1381.47 1518.52 Z" fill="#000000" fill-rule="nonzero" fill-opacity="1" /><polyline clip-path="url(#clip370)" style="stroke:#000000; stroke-linecap:round; stroke-linejoin:round; stroke-width:4; stroke-opacity:1; fill:none" points="340.028,1423.18 340.028,123.472 "/>
<polyline clip-path="url(#clip370)" style="stroke:#000000; stroke-linecap:round; stroke-linejoin:round; stroke-width:4; stroke-opacity:1; fill:none" points="340.028,1332.91 358.925,1332.91 "/>
<polyline clip-path="url(#clip370)" style="stroke:#000000; stroke-linecap:round; stroke-linejoin:round; stroke-width:4; stroke-opacity:1; fill:none" points="340.028,1051.5 358.925,1051.5 "/>
<polyline clip-path="url(#clip370)" style="stroke:#000000; stroke-linecap:round; stroke-linejoin:round; stroke-width:4; stroke-opacity:1; fill:none" points="340.028,770.09 358.925,770.09 "/>
<polyline clip-path="url(#clip370)" style="stroke:#000000; stroke-linecap:round; stroke-linejoin:round; stroke-width:4; stroke-opacity:1; fill:none" points="340.028,488.682 358.925,488.682 "/>
<polyline clip-path="url(#clip370)" style="stroke:#000000; stroke-linecap:round; stroke-linejoin:round; stroke-width:4; stroke-opacity:1; fill:none" points="340.028,207.273 358.925,207.273 "/>
<path clip-path="url(#clip370)" d="M127.2 1318.71 Q123.589 1318.71 121.76 1322.27 Q119.955 1325.81 119.955 1332.94 Q119.955 1340.05 121.76 1343.61 Q123.589 1347.15 127.2 1347.15 Q130.834 1347.15 132.64 1343.61 Q134.468 1340.05 134.468 1332.94 Q134.468 1325.81 132.64 1322.27 Q130.834 1318.71 127.2 1318.71 M127.2 1315 Q133.01 1315 136.066 1319.61 Q139.144 1324.19 139.144 1332.94 Q139.144 1341.67 136.066 1346.27 Q133.01 1350.86 127.2 1350.86 Q121.39 1350.86 118.311 1346.27 Q115.256 1341.67 115.256 1332.94 Q115.256 1324.19 118.311 1319.61 Q121.39 1315 127.2 1315 Z" fill="#000000" fill-rule="nonzero" fill-opacity="1" /><path clip-path="url(#clip370)" d="M147.362 1344.31 L152.246 1344.31 L152.246 1350.19 L147.362 1350.19 L147.362 1344.31 Z" fill="#000000" fill-rule="nonzero" fill-opacity="1" /><path clip-path="url(#clip370)" d="M172.431 1318.71 Q168.82 1318.71 166.991 1322.27 Q165.186 1325.81 165.186 1332.94 Q165.186 1340.05 166.991 1343.61 Q168.82 1347.15 172.431 1347.15 Q176.065 1347.15 177.871 1343.61 Q179.7 1340.05 179.7 1332.94 Q179.7 1325.81 177.871 1322.27 Q176.065 1318.71 172.431 1318.71 M172.431 1315 Q178.241 1315 181.297 1319.61 Q184.376 1324.19 184.376 1332.94 Q184.376 1341.67 181.297 1346.27 Q178.241 1350.86 172.431 1350.86 Q166.621 1350.86 163.542 1346.27 Q160.487 1341.67 160.487 1332.94 Q160.487 1324.19 163.542 1319.61 Q166.621 1315 172.431 1315 Z" fill="#000000" fill-rule="nonzero" fill-opacity="1" /><path clip-path="url(#clip370)" d="M202.593 1318.71 Q198.982 1318.71 197.153 1322.27 Q195.348 1325.81 195.348 1332.94 Q195.348 1340.05 197.153 1343.61 Q198.982 1347.15 202.593 1347.15 Q206.227 1347.15 208.033 1343.61 Q209.861 1340.05 209.861 1332.94 Q209.861 1325.81 208.033 1322.27 Q206.227 1318.71 202.593 1318.71 M202.593 1315 Q208.403 1315 211.459 1319.61 Q214.537 1324.19 214.537 1332.94 Q214.537 1341.67 211.459 1346.27 Q208.403 1350.86 202.593 1350.86 Q196.783 1350.86 193.704 1346.27 Q190.649 1341.67 190.649 1332.94 Q190.649 1324.19 193.704 1319.61 Q196.783 1315 202.593 1315 Z" fill="#000000" fill-rule="nonzero" fill-opacity="1" /><path clip-path="url(#clip370)" d="M232.755 1333.77 Q229.422 1333.77 227.5 1335.56 Q225.602 1337.34 225.602 1340.46 Q225.602 1343.59 227.5 1345.37 Q229.422 1347.15 232.755 1347.15 Q236.088 1347.15 238.009 1345.37 Q239.931 1343.57 239.931 1340.46 Q239.931 1337.34 238.009 1335.56 Q236.111 1333.77 232.755 1333.77 M228.079 1331.78 Q225.07 1331.04 223.38 1328.98 Q221.713 1326.92 221.713 1323.96 Q221.713 1319.82 224.653 1317.41 Q227.616 1315 232.755 1315 Q237.917 1315 240.857 1317.41 Q243.797 1319.82 243.797 1323.96 Q243.797 1326.92 242.107 1328.98 Q240.44 1331.04 237.454 1331.78 Q240.834 1332.57 242.709 1334.86 Q244.607 1337.15 244.607 1340.46 Q244.607 1345.49 241.528 1348.17 Q238.472 1350.86 232.755 1350.86 Q227.037 1350.86 223.959 1348.17 Q220.903 1345.49 220.903 1340.46 Q220.903 1337.15 222.801 1334.86 Q224.699 1332.57 228.079 1331.78 M226.366 1324.4 Q226.366 1327.09 228.033 1328.59 Q229.723 1330.09 232.755 1330.09 Q235.764 1330.09 237.454 1328.59 Q239.167 1327.09 239.167 1324.4 Q239.167 1321.71 237.454 1320.21 Q235.764 1318.71 232.755 1318.71 Q229.723 1318.71 228.033 1320.21 Q226.366 1321.71 226.366 1324.4 Z" fill="#000000" fill-rule="nonzero" fill-opacity="1" /><path clip-path="url(#clip370)" d="M251.736 1315.63 L273.958 1315.63 L273.958 1317.62 L261.412 1350.19 L256.528 1350.19 L268.333 1319.56 L251.736 1319.56 L251.736 1315.63 Z" fill="#000000" fill-rule="nonzero" fill-opacity="1" /><path clip-path="url(#clip370)" d="M283.125 1315.63 L301.481 1315.63 L301.481 1319.56 L287.407 1319.56 L287.407 1328.03 Q288.426 1327.69 289.444 1327.52 Q290.463 1327.34 291.481 1327.34 Q297.268 1327.34 300.648 1330.51 Q304.028 1333.68 304.028 1339.1 Q304.028 1344.68 300.555 1347.78 Q297.083 1350.86 290.764 1350.86 Q288.588 1350.86 286.319 1350.49 Q284.074 1350.12 281.667 1349.38 L281.667 1344.68 Q283.75 1345.81 285.972 1346.37 Q288.194 1346.92 290.671 1346.92 Q294.676 1346.92 297.014 1344.82 Q299.352 1342.71 299.352 1339.1 Q299.352 1335.49 297.014 1333.38 Q294.676 1331.27 290.671 1331.27 Q288.796 1331.27 286.921 1331.69 Q285.069 1332.11 283.125 1332.99 L283.125 1315.63 Z" fill="#000000" fill-rule="nonzero" fill-opacity="1" /><path clip-path="url(#clip370)" d="M126.205 1037.3 Q122.593 1037.3 120.765 1040.86 Q118.959 1044.4 118.959 1051.53 Q118.959 1058.64 120.765 1062.2 Q122.593 1065.75 126.205 1065.75 Q129.839 1065.75 131.644 1062.2 Q133.473 1058.64 133.473 1051.53 Q133.473 1044.4 131.644 1040.86 Q129.839 1037.3 126.205 1037.3 M126.205 1033.59 Q132.015 1033.59 135.07 1038.2 Q138.149 1042.78 138.149 1051.53 Q138.149 1060.26 135.07 1064.87 Q132.015 1069.45 126.205 1069.45 Q120.394 1069.45 117.316 1064.87 Q114.26 1060.26 114.26 1051.53 Q114.26 1042.78 117.316 1038.2 Q120.394 1033.59 126.205 1033.59 Z" fill="#000000" fill-rule="nonzero" fill-opacity="1" /><path clip-path="url(#clip370)" d="M146.366 1062.9 L151.251 1062.9 L151.251 1068.78 L146.366 1068.78 L146.366 1062.9 Z" fill="#000000" fill-rule="nonzero" fill-opacity="1" /><path clip-path="url(#clip370)" d="M171.436 1037.3 Q167.825 1037.3 165.996 1040.86 Q164.19 1044.4 164.19 1051.53 Q164.19 1058.64 165.996 1062.2 Q167.825 1065.75 171.436 1065.75 Q175.07 1065.75 176.876 1062.2 Q178.704 1058.64 178.704 1051.53 Q178.704 1044.4 176.876 1040.86 Q175.07 1037.3 171.436 1037.3 M171.436 1033.59 Q177.246 1033.59 180.301 1038.2 Q183.38 1042.78 183.38 1051.53 Q183.38 1060.26 180.301 1064.87 Q177.246 1069.45 171.436 1069.45 Q165.626 1069.45 162.547 1064.87 Q159.491 1060.26 159.491 1051.53 Q159.491 1042.78 162.547 1038.2 Q165.626 1033.59 171.436 1033.59 Z" fill="#000000" fill-rule="nonzero" fill-opacity="1" /><path clip-path="url(#clip370)" d="M201.598 1037.3 Q197.987 1037.3 196.158 1040.86 Q194.352 1044.4 194.352 1051.53 Q194.352 1058.64 196.158 1062.2 Q197.987 1065.75 201.598 1065.75 Q205.232 1065.75 207.037 1062.2 Q208.866 1058.64 208.866 1051.53 Q208.866 1044.4 207.037 1040.86 Q205.232 1037.3 201.598 1037.3 M201.598 1033.59 Q207.408 1033.59 210.463 1038.2 Q213.542 1042.78 213.542 1051.53 Q213.542 1060.26 210.463 1064.87 Q207.408 1069.45 201.598 1069.45 Q195.787 1069.45 192.709 1064.87 Q189.653 1060.26 189.653 1051.53 Q189.653 1042.78 192.709 1038.2 Q195.787 1033.59 201.598 1033.59 Z" fill="#000000" fill-rule="nonzero" fill-opacity="1" /><path clip-path="url(#clip370)" d="M221.898 1068.06 L221.898 1063.8 Q223.658 1064.63 225.463 1065.07 Q227.269 1065.51 229.005 1065.51 Q233.635 1065.51 236.065 1062.41 Q238.519 1059.29 238.866 1052.95 Q237.523 1054.94 235.463 1056 Q233.403 1057.07 230.903 1057.07 Q225.718 1057.07 222.686 1053.94 Q219.676 1050.79 219.676 1045.35 Q219.676 1040.03 222.824 1036.81 Q225.973 1033.59 231.204 1033.59 Q237.199 1033.59 240.347 1038.2 Q243.519 1042.78 243.519 1051.53 Q243.519 1059.7 239.63 1064.59 Q235.764 1069.45 229.213 1069.45 Q227.454 1069.45 225.648 1069.1 Q223.843 1068.76 221.898 1068.06 M231.204 1053.41 Q234.352 1053.41 236.181 1051.26 Q238.033 1049.1 238.033 1045.35 Q238.033 1041.63 236.181 1039.47 Q234.352 1037.3 231.204 1037.3 Q228.056 1037.3 226.204 1039.47 Q224.375 1041.63 224.375 1045.35 Q224.375 1049.1 226.204 1051.26 Q228.056 1053.41 231.204 1053.41 Z" fill="#000000" fill-rule="nonzero" fill-opacity="1" /><path clip-path="url(#clip370)" d="M261.921 1037.3 Q258.31 1037.3 256.482 1040.86 Q254.676 1044.4 254.676 1051.53 Q254.676 1058.64 256.482 1062.2 Q258.31 1065.75 261.921 1065.75 Q265.556 1065.75 267.361 1062.2 Q269.19 1058.64 269.19 1051.53 Q269.19 1044.4 267.361 1040.86 Q265.556 1037.3 261.921 1037.3 M261.921 1033.59 Q267.732 1033.59 270.787 1038.2 Q273.866 1042.78 273.866 1051.53 Q273.866 1060.26 270.787 1064.87 Q267.732 1069.45 261.921 1069.45 Q256.111 1069.45 253.033 1064.87 Q249.977 1060.26 249.977 1051.53 Q249.977 1042.78 253.033 1038.2 Q256.111 1033.59 261.921 1033.59 Z" fill="#000000" fill-rule="nonzero" fill-opacity="1" /><path clip-path="url(#clip370)" d="M292.083 1037.3 Q288.472 1037.3 286.643 1040.86 Q284.838 1044.4 284.838 1051.53 Q284.838 1058.64 286.643 1062.2 Q288.472 1065.75 292.083 1065.75 Q295.718 1065.75 297.523 1062.2 Q299.352 1058.64 299.352 1051.53 Q299.352 1044.4 297.523 1040.86 Q295.718 1037.3 292.083 1037.3 M292.083 1033.59 Q297.893 1033.59 300.949 1038.2 Q304.028 1042.78 304.028 1051.53 Q304.028 1060.26 300.949 1064.87 Q297.893 1069.45 292.083 1069.45 Q286.273 1069.45 283.194 1064.87 Q280.139 1060.26 280.139 1051.53 Q280.139 1042.78 283.194 1038.2 Q286.273 1033.59 292.083 1033.59 Z" fill="#000000" fill-rule="nonzero" fill-opacity="1" /><path clip-path="url(#clip370)" d="M127.2 755.889 Q123.589 755.889 121.76 759.453 Q119.955 762.995 119.955 770.125 Q119.955 777.231 121.76 780.796 Q123.589 784.338 127.2 784.338 Q130.834 784.338 132.64 780.796 Q134.468 777.231 134.468 770.125 Q134.468 762.995 132.64 759.453 Q130.834 755.889 127.2 755.889 M127.2 752.185 Q133.01 752.185 136.066 756.791 Q139.144 761.375 139.144 770.125 Q139.144 778.852 136.066 783.458 Q133.01 788.041 127.2 788.041 Q121.39 788.041 118.311 783.458 Q115.256 778.852 115.256 770.125 Q115.256 761.375 118.311 756.791 Q121.39 752.185 127.2 752.185 Z" fill="#000000" fill-rule="nonzero" fill-opacity="1" /><path clip-path="url(#clip370)" d="M147.362 781.49 L152.246 781.49 L152.246 787.37 L147.362 787.37 L147.362 781.49 Z" fill="#000000" fill-rule="nonzero" fill-opacity="1" /><path clip-path="url(#clip370)" d="M172.431 755.889 Q168.82 755.889 166.991 759.453 Q165.186 762.995 165.186 770.125 Q165.186 777.231 166.991 780.796 Q168.82 784.338 172.431 784.338 Q176.065 784.338 177.871 780.796 Q179.7 777.231 179.7 770.125 Q179.7 762.995 177.871 759.453 Q176.065 755.889 172.431 755.889 M172.431 752.185 Q178.241 752.185 181.297 756.791 Q184.376 761.375 184.376 770.125 Q184.376 778.852 181.297 783.458 Q178.241 788.041 172.431 788.041 Q166.621 788.041 163.542 783.458 Q160.487 778.852 160.487 770.125 Q160.487 761.375 163.542 756.791 Q166.621 752.185 172.431 752.185 Z" fill="#000000" fill-rule="nonzero" fill-opacity="1" /><path clip-path="url(#clip370)" d="M202.593 755.889 Q198.982 755.889 197.153 759.453 Q195.348 762.995 195.348 770.125 Q195.348 777.231 197.153 780.796 Q198.982 784.338 202.593 784.338 Q206.227 784.338 208.033 780.796 Q209.861 777.231 209.861 770.125 Q209.861 762.995 208.033 759.453 Q206.227 755.889 202.593 755.889 M202.593 752.185 Q208.403 752.185 211.459 756.791 Q214.537 761.375 214.537 770.125 Q214.537 778.852 211.459 783.458 Q208.403 788.041 202.593 788.041 Q196.783 788.041 193.704 783.458 Q190.649 778.852 190.649 770.125 Q190.649 761.375 193.704 756.791 Q196.783 752.185 202.593 752.185 Z" fill="#000000" fill-rule="nonzero" fill-opacity="1" /><path clip-path="url(#clip370)" d="M222.894 786.652 L222.894 782.393 Q224.653 783.227 226.459 783.666 Q228.264 784.106 230 784.106 Q234.63 784.106 237.06 781.004 Q239.514 777.879 239.861 771.537 Q238.519 773.527 236.459 774.592 Q234.398 775.657 231.898 775.657 Q226.713 775.657 223.681 772.532 Q220.672 769.384 220.672 763.944 Q220.672 758.62 223.82 755.403 Q226.968 752.185 232.199 752.185 Q238.195 752.185 241.343 756.791 Q244.514 761.375 244.514 770.125 Q244.514 778.296 240.625 783.18 Q236.76 788.041 230.209 788.041 Q228.449 788.041 226.644 787.694 Q224.838 787.347 222.894 786.652 M232.199 772 Q235.347 772 237.176 769.847 Q239.028 767.694 239.028 763.944 Q239.028 760.217 237.176 758.065 Q235.347 755.889 232.199 755.889 Q229.051 755.889 227.199 758.065 Q225.371 760.217 225.371 763.944 Q225.371 767.694 227.199 769.847 Q229.051 772 232.199 772 Z" fill="#000000" fill-rule="nonzero" fill-opacity="1" /><path clip-path="url(#clip370)" d="M256.945 783.435 L273.264 783.435 L273.264 787.37 L251.32 787.37 L251.32 783.435 Q253.982 780.68 258.565 776.051 Q263.171 771.398 264.352 770.055 Q266.597 767.532 267.477 765.796 Q268.38 764.037 268.38 762.347 Q268.38 759.592 266.435 757.856 Q264.514 756.12 261.412 756.12 Q259.213 756.12 256.759 756.884 Q254.329 757.648 251.551 759.199 L251.551 754.477 Q254.375 753.342 256.829 752.764 Q259.283 752.185 261.32 752.185 Q266.69 752.185 269.884 754.87 Q273.079 757.555 273.079 762.046 Q273.079 764.176 272.269 766.097 Q271.482 767.995 269.375 770.588 Q268.796 771.259 265.695 774.477 Q262.593 777.671 256.945 783.435 Z" fill="#000000" fill-rule="nonzero" fill-opacity="1" /><path clip-path="url(#clip370)" d="M283.125 752.81 L301.481 752.81 L301.481 756.745 L287.407 756.745 L287.407 765.217 Q288.426 764.87 289.444 764.708 Q290.463 764.523 291.481 764.523 Q297.268 764.523 300.648 767.694 Q304.028 770.865 304.028 776.282 Q304.028 781.861 300.555 784.963 Q297.083 788.041 290.764 788.041 Q288.588 788.041 286.319 787.671 Q284.074 787.301 281.667 786.56 L281.667 781.861 Q283.75 782.995 285.972 783.551 Q288.194 784.106 290.671 784.106 Q294.676 784.106 297.014 782 Q299.352 779.893 299.352 776.282 Q299.352 772.671 297.014 770.565 Q294.676 768.458 290.671 768.458 Q288.796 768.458 286.921 768.875 Q285.069 769.291 283.125 770.171 L283.125 752.81 Z" fill="#000000" fill-rule="nonzero" fill-opacity="1" /><path clip-path="url(#clip370)" d="M126.205 474.48 Q122.593 474.48 120.765 478.045 Q118.959 481.587 118.959 488.716 Q118.959 495.823 120.765 499.388 Q122.593 502.929 126.205 502.929 Q129.839 502.929 131.644 499.388 Q133.473 495.823 133.473 488.716 Q133.473 481.587 131.644 478.045 Q129.839 474.48 126.205 474.48 M126.205 470.777 Q132.015 470.777 135.07 475.383 Q138.149 479.966 138.149 488.716 Q138.149 497.443 135.07 502.05 Q132.015 506.633 126.205 506.633 Q120.394 506.633 117.316 502.05 Q114.26 497.443 114.26 488.716 Q114.26 479.966 117.316 475.383 Q120.394 470.777 126.205 470.777 Z" fill="#000000" fill-rule="nonzero" fill-opacity="1" /><path clip-path="url(#clip370)" d="M146.366 500.082 L151.251 500.082 L151.251 505.962 L146.366 505.962 L146.366 500.082 Z" fill="#000000" fill-rule="nonzero" fill-opacity="1" /><path clip-path="url(#clip370)" d="M171.436 474.48 Q167.825 474.48 165.996 478.045 Q164.19 481.587 164.19 488.716 Q164.19 495.823 165.996 499.388 Q167.825 502.929 171.436 502.929 Q175.07 502.929 176.876 499.388 Q178.704 495.823 178.704 488.716 Q178.704 481.587 176.876 478.045 Q175.07 474.48 171.436 474.48 M171.436 470.777 Q177.246 470.777 180.301 475.383 Q183.38 479.966 183.38 488.716 Q183.38 497.443 180.301 502.05 Q177.246 506.633 171.436 506.633 Q165.626 506.633 162.547 502.05 Q159.491 497.443 159.491 488.716 Q159.491 479.966 162.547 475.383 Q165.626 470.777 171.436 470.777 Z" fill="#000000" fill-rule="nonzero" fill-opacity="1" /><path clip-path="url(#clip370)" d="M201.598 474.48 Q197.987 474.48 196.158 478.045 Q194.352 481.587 194.352 488.716 Q194.352 495.823 196.158 499.388 Q197.987 502.929 201.598 502.929 Q205.232 502.929 207.037 499.388 Q208.866 495.823 208.866 488.716 Q208.866 481.587 207.037 478.045 Q205.232 474.48 201.598 474.48 M201.598 470.777 Q207.408 470.777 210.463 475.383 Q213.542 479.966 213.542 488.716 Q213.542 497.443 210.463 502.05 Q207.408 506.633 201.598 506.633 Q195.787 506.633 192.709 502.05 Q189.653 497.443 189.653 488.716 Q189.653 479.966 192.709 475.383 Q195.787 470.777 201.598 470.777 Z" fill="#000000" fill-rule="nonzero" fill-opacity="1" /><path clip-path="url(#clip370)" d="M221.898 505.244 L221.898 500.985 Q223.658 501.818 225.463 502.258 Q227.269 502.698 229.005 502.698 Q233.635 502.698 236.065 499.596 Q238.519 496.471 238.866 490.128 Q237.523 492.119 235.463 493.184 Q233.403 494.249 230.903 494.249 Q225.718 494.249 222.686 491.124 Q219.676 487.976 219.676 482.536 Q219.676 477.212 222.824 473.994 Q225.973 470.777 231.204 470.777 Q237.199 470.777 240.347 475.383 Q243.519 479.966 243.519 488.716 Q243.519 496.888 239.63 501.772 Q235.764 506.633 229.213 506.633 Q227.454 506.633 225.648 506.286 Q223.843 505.938 221.898 505.244 M231.204 490.591 Q234.352 490.591 236.181 488.439 Q238.033 486.286 238.033 482.536 Q238.033 478.809 236.181 476.656 Q234.352 474.48 231.204 474.48 Q228.056 474.48 226.204 476.656 Q224.375 478.809 224.375 482.536 Q224.375 486.286 226.204 488.439 Q228.056 490.591 231.204 490.591 Z" fill="#000000" fill-rule="nonzero" fill-opacity="1" /><path clip-path="url(#clip370)" d="M251.968 471.402 L270.324 471.402 L270.324 475.337 L256.25 475.337 L256.25 483.809 Q257.269 483.462 258.287 483.3 Q259.306 483.115 260.324 483.115 Q266.111 483.115 269.491 486.286 Q272.87 489.457 272.87 494.874 Q272.87 500.452 269.398 503.554 Q265.926 506.633 259.607 506.633 Q257.431 506.633 255.162 506.263 Q252.917 505.892 250.509 505.151 L250.509 500.452 Q252.593 501.587 254.815 502.142 Q257.037 502.698 259.514 502.698 Q263.519 502.698 265.857 500.591 Q268.195 498.485 268.195 494.874 Q268.195 491.263 265.857 489.156 Q263.519 487.05 259.514 487.05 Q257.639 487.05 255.764 487.466 Q253.912 487.883 251.968 488.763 L251.968 471.402 Z" fill="#000000" fill-rule="nonzero" fill-opacity="1" /><path clip-path="url(#clip370)" d="M292.083 474.48 Q288.472 474.48 286.643 478.045 Q284.838 481.587 284.838 488.716 Q284.838 495.823 286.643 499.388 Q288.472 502.929 292.083 502.929 Q295.718 502.929 297.523 499.388 Q299.352 495.823 299.352 488.716 Q299.352 481.587 297.523 478.045 Q295.718 474.48 292.083 474.48 M292.083 470.777 Q297.893 470.777 300.949 475.383 Q304.028 479.966 304.028 488.716 Q304.028 497.443 300.949 502.05 Q297.893 506.633 292.083 506.633 Q286.273 506.633 283.194 502.05 Q280.139 497.443 280.139 488.716 Q280.139 479.966 283.194 475.383 Q286.273 470.777 292.083 470.777 Z" fill="#000000" fill-rule="nonzero" fill-opacity="1" /><path clip-path="url(#clip370)" d="M127.2 193.072 Q123.589 193.072 121.76 196.637 Q119.955 200.178 119.955 207.308 Q119.955 214.414 121.76 217.979 Q123.589 221.521 127.2 221.521 Q130.834 221.521 132.64 217.979 Q134.468 214.414 134.468 207.308 Q134.468 200.178 132.64 196.637 Q130.834 193.072 127.2 193.072 M127.2 189.368 Q133.01 189.368 136.066 193.975 Q139.144 198.558 139.144 207.308 Q139.144 216.035 136.066 220.641 Q133.01 225.225 127.2 225.225 Q121.39 225.225 118.311 220.641 Q115.256 216.035 115.256 207.308 Q115.256 198.558 118.311 193.975 Q121.39 189.368 127.2 189.368 Z" fill="#000000" fill-rule="nonzero" fill-opacity="1" /><path clip-path="url(#clip370)" d="M147.362 218.674 L152.246 218.674 L152.246 224.553 L147.362 224.553 L147.362 218.674 Z" fill="#000000" fill-rule="nonzero" fill-opacity="1" /><path clip-path="url(#clip370)" d="M172.431 193.072 Q168.82 193.072 166.991 196.637 Q165.186 200.178 165.186 207.308 Q165.186 214.414 166.991 217.979 Q168.82 221.521 172.431 221.521 Q176.065 221.521 177.871 217.979 Q179.7 214.414 179.7 207.308 Q179.7 200.178 177.871 196.637 Q176.065 193.072 172.431 193.072 M172.431 189.368 Q178.241 189.368 181.297 193.975 Q184.376 198.558 184.376 207.308 Q184.376 216.035 181.297 220.641 Q178.241 225.225 172.431 225.225 Q166.621 225.225 163.542 220.641 Q160.487 216.035 160.487 207.308 Q160.487 198.558 163.542 193.975 Q166.621 189.368 172.431 189.368 Z" fill="#000000" fill-rule="nonzero" fill-opacity="1" /><path clip-path="url(#clip370)" d="M202.593 193.072 Q198.982 193.072 197.153 196.637 Q195.348 200.178 195.348 207.308 Q195.348 214.414 197.153 217.979 Q198.982 221.521 202.593 221.521 Q206.227 221.521 208.033 217.979 Q209.861 214.414 209.861 207.308 Q209.861 200.178 208.033 196.637 Q206.227 193.072 202.593 193.072 M202.593 189.368 Q208.403 189.368 211.459 193.975 Q214.537 198.558 214.537 207.308 Q214.537 216.035 211.459 220.641 Q208.403 225.225 202.593 225.225 Q196.783 225.225 193.704 220.641 Q190.649 216.035 190.649 207.308 Q190.649 198.558 193.704 193.975 Q196.783 189.368 202.593 189.368 Z" fill="#000000" fill-rule="nonzero" fill-opacity="1" /><path clip-path="url(#clip370)" d="M222.894 223.836 L222.894 219.576 Q224.653 220.41 226.459 220.85 Q228.264 221.289 230 221.289 Q234.63 221.289 237.06 218.188 Q239.514 215.063 239.861 208.72 Q238.519 210.711 236.459 211.776 Q234.398 212.84 231.898 212.84 Q226.713 212.84 223.681 209.715 Q220.672 206.567 220.672 201.127 Q220.672 195.803 223.82 192.586 Q226.968 189.368 232.199 189.368 Q238.195 189.368 241.343 193.975 Q244.514 198.558 244.514 207.308 Q244.514 215.479 240.625 220.363 Q236.76 225.225 230.209 225.225 Q228.449 225.225 226.644 224.877 Q224.838 224.53 222.894 223.836 M232.199 209.183 Q235.347 209.183 237.176 207.03 Q239.028 204.877 239.028 201.127 Q239.028 197.401 237.176 195.248 Q235.347 193.072 232.199 193.072 Q229.051 193.072 227.199 195.248 Q225.371 197.401 225.371 201.127 Q225.371 204.877 227.199 207.03 Q229.051 209.183 232.199 209.183 Z" fill="#000000" fill-rule="nonzero" fill-opacity="1" /><path clip-path="url(#clip370)" d="M251.736 189.993 L273.958 189.993 L273.958 191.984 L261.412 224.553 L256.528 224.553 L268.333 193.928 L251.736 193.928 L251.736 189.993 Z" fill="#000000" fill-rule="nonzero" fill-opacity="1" /><path clip-path="url(#clip370)" d="M283.125 189.993 L301.481 189.993 L301.481 193.928 L287.407 193.928 L287.407 202.401 Q288.426 202.053 289.444 201.891 Q290.463 201.706 291.481 201.706 Q297.268 201.706 300.648 204.877 Q304.028 208.049 304.028 213.465 Q304.028 219.044 300.555 222.146 Q297.083 225.225 290.764 225.225 Q288.588 225.225 286.319 224.854 Q284.074 224.484 281.667 223.743 L281.667 219.044 Q283.75 220.178 285.972 220.734 Q288.194 221.289 290.671 221.289 Q294.676 221.289 297.014 219.183 Q299.352 217.076 299.352 213.465 Q299.352 209.854 297.014 207.748 Q294.676 205.641 290.671 205.641 Q288.796 205.641 286.921 206.058 Q285.069 206.475 283.125 207.354 L283.125 189.993 Z" fill="#000000" fill-rule="nonzero" fill-opacity="1" /><path clip-path="url(#clip370)" d="M33.7671 788.508 L14.479 788.508 L14.479 782.652 L64.0042 782.652 L64.0042 788.508 L58.657 788.508 Q61.8398 790.354 63.3994 793.187 Q64.9272 795.988 64.9272 799.935 Q64.9272 806.396 59.771 810.47 Q54.6147 814.512 46.212 814.512 Q37.8093 814.512 32.6531 810.47 Q27.4968 806.396 27.4968 799.935 Q27.4968 795.988 29.0564 793.187 Q30.5842 790.354 33.7671 788.508 M46.212 808.465 Q52.6732 808.465 56.3653 805.823 Q60.0256 803.149 60.0256 798.502 Q60.0256 793.855 56.3653 791.182 Q52.6732 788.508 46.212 788.508 Q39.7508 788.508 36.0905 791.182 Q32.3984 793.855 32.3984 798.502 Q32.3984 803.149 36.0905 805.823 Q39.7508 808.465 46.212 808.465 Z" fill="#000000" fill-rule="nonzero" fill-opacity="1" /><path clip-path="url(#clip370)" d="M74.8259 743.503 L79.3773 743.503 L79.3773 777.368 L74.8259 777.368 L74.8259 743.503 Z" fill="#000000" fill-rule="nonzero" fill-opacity="1" /><path clip-path="url(#clip370)" d="M28.3562 737.996 L28.3562 732.14 L64.0042 732.14 L64.0042 737.996 L28.3562 737.996 M14.479 737.996 L14.479 732.14 L21.895 732.14 L21.895 737.996 L14.479 737.996 Z" fill="#000000" fill-rule="nonzero" fill-opacity="1" /><path clip-path="url(#clip370)" d="M1046.32 12.096 L1081.08 12.096 L1081.08 18.9825 L1054.5 18.9825 L1054.5 36.8065 L1078.49 36.8065 L1078.49 43.6931 L1054.5 43.6931 L1054.5 72.576 L1046.32 72.576 L1046.32 12.096 Z" fill="#000000" fill-rule="nonzero" fill-opacity="1" /><path clip-path="url(#clip370)" d="M1087.68 27.2059 L1095.13 27.2059 L1095.13 72.576 L1087.68 72.576 L1087.68 27.2059 M1087.68 9.54393 L1095.13 9.54393 L1095.13 18.9825 L1087.68 18.9825 L1087.68 9.54393 Z" fill="#000000" fill-rule="nonzero" fill-opacity="1" /><path clip-path="url(#clip370)" d="M1148.44 45.1919 L1148.44 72.576 L1140.99 72.576 L1140.99 45.4349 Q1140.99 38.994 1138.48 35.7938 Q1135.97 32.5936 1130.94 32.5936 Q1124.91 32.5936 1121.42 36.4419 Q1117.94 40.2903 1117.94 46.9338 L1117.94 72.576 L1110.45 72.576 L1110.45 27.2059 L1117.94 27.2059 L1117.94 34.2544 Q1120.61 30.163 1124.22 28.1376 Q1127.87 26.1121 1132.61 26.1121 Q1140.42 26.1121 1144.43 30.9732 Q1148.44 35.7938 1148.44 45.1919 Z" fill="#000000" fill-rule="nonzero" fill-opacity="1" /><path clip-path="url(#clip370)" d="M1183.93 49.7694 Q1174.9 49.7694 1171.41 51.8354 Q1167.93 53.9013 1167.93 58.8839 Q1167.93 62.8538 1170.52 65.2034 Q1173.15 67.5124 1177.65 67.5124 Q1183.85 67.5124 1187.58 63.1374 Q1191.34 58.7219 1191.34 51.4303 L1191.34 49.7694 L1183.93 49.7694 M1198.8 46.6907 L1198.8 72.576 L1191.34 72.576 L1191.34 65.6895 Q1188.79 69.8214 1184.98 71.8063 Q1181.18 73.7508 1175.67 73.7508 Q1168.7 73.7508 1164.57 69.8619 Q1160.48 65.9325 1160.48 59.3701 Q1160.48 51.7138 1165.58 47.825 Q1170.72 43.9361 1180.89 43.9361 L1191.34 43.9361 L1191.34 43.2069 Q1191.34 38.0623 1187.94 35.2672 Q1184.58 32.4315 1178.46 32.4315 Q1174.57 32.4315 1170.89 33.3632 Q1167.2 34.295 1163.8 36.1584 L1163.8 29.2718 Q1167.89 27.692 1171.74 26.9223 Q1175.59 26.1121 1179.23 26.1121 Q1189.07 26.1121 1193.94 31.2163 Q1198.8 36.3204 1198.8 46.6907 Z" fill="#000000" fill-rule="nonzero" fill-opacity="1" /><path clip-path="url(#clip370)" d="M1214.15 9.54393 L1221.6 9.54393 L1221.6 72.576 L1214.15 72.576 L1214.15 9.54393 Z" fill="#000000" fill-rule="nonzero" fill-opacity="1" /><path clip-path="url(#clip370)" d="M1293.43 34.0924 L1293.43 9.54393 L1300.88 9.54393 L1300.88 72.576 L1293.43 72.576 L1293.43 65.7705 Q1291.08 69.8214 1287.47 71.8063 Q1283.91 73.7508 1278.88 73.7508 Q1270.66 73.7508 1265.47 67.1883 Q1260.33 60.6258 1260.33 49.9314 Q1260.33 39.2371 1265.47 32.6746 Q1270.66 26.1121 1278.88 26.1121 Q1283.91 26.1121 1287.47 28.0971 Q1291.08 30.0415 1293.43 34.0924 M1268.03 49.9314 Q1268.03 58.1548 1271.39 62.8538 Q1274.79 67.5124 1280.71 67.5124 Q1286.62 67.5124 1290.02 62.8538 Q1293.43 58.1548 1293.43 49.9314 Q1293.43 41.7081 1290.02 37.0496 Q1286.62 32.3505 1280.71 32.3505 Q1274.79 32.3505 1271.39 37.0496 Q1268.03 41.7081 1268.03 49.9314 Z" fill="#000000" fill-rule="nonzero" fill-opacity="1" /><path clip-path="url(#clip370)" d="M1316.23 27.2059 L1323.69 27.2059 L1323.69 72.576 L1316.23 72.576 L1316.23 27.2059 M1316.23 9.54393 L1323.69 9.54393 L1323.69 18.9825 L1316.23 18.9825 L1316.23 9.54393 Z" fill="#000000" fill-rule="nonzero" fill-opacity="1" /><path clip-path="url(#clip370)" d="M1368.21 28.5427 L1368.21 35.5912 Q1365.05 33.9709 1361.64 33.1607 Q1358.24 32.3505 1354.59 32.3505 Q1349.05 32.3505 1346.25 34.0519 Q1343.5 35.7533 1343.5 39.156 Q1343.5 41.7486 1345.48 43.2475 Q1347.47 44.7058 1353.46 46.0426 L1356.01 46.6097 Q1363.95 48.3111 1367.27 51.4303 Q1370.64 54.509 1370.64 60.0587 Q1370.64 66.3781 1365.61 70.0644 Q1360.63 73.7508 1351.88 73.7508 Q1348.23 73.7508 1344.27 73.0216 Q1340.34 72.3329 1335.96 70.9151 L1335.96 63.2184 Q1340.09 65.3654 1344.1 66.4591 Q1348.11 67.5124 1352.04 67.5124 Q1357.31 67.5124 1360.14 65.73 Q1362.98 63.9071 1362.98 60.6258 Q1362.98 57.5877 1360.91 55.9673 Q1358.89 54.3469 1351.96 52.8481 L1349.37 52.2405 Q1342.44 50.7821 1339.36 47.7845 Q1336.28 44.7463 1336.28 39.4801 Q1336.28 33.0797 1340.82 29.5959 Q1345.36 26.1121 1353.7 26.1121 Q1357.84 26.1121 1361.48 26.7198 Q1365.13 27.3274 1368.21 28.5427 Z" fill="#000000" fill-rule="nonzero" fill-opacity="1" /><path clip-path="url(#clip370)" d="M1389.88 14.324 L1389.88 27.2059 L1405.23 27.2059 L1405.23 32.9987 L1389.88 32.9987 L1389.88 57.6282 Q1389.88 63.1779 1391.38 64.7578 Q1392.92 66.3376 1397.57 66.3376 L1405.23 66.3376 L1405.23 72.576 L1397.57 72.576 Q1388.95 72.576 1385.67 69.3758 Q1382.38 66.1351 1382.38 57.6282 L1382.38 32.9987 L1376.92 32.9987 L1376.92 27.2059 L1382.38 27.2059 L1382.38 14.324 L1389.88 14.324 Z" fill="#000000" fill-rule="nonzero" fill-opacity="1" /><path clip-path="url(#clip370)" d="M1435.65 49.7694 Q1426.62 49.7694 1423.14 51.8354 Q1419.65 53.9013 1419.65 58.8839 Q1419.65 62.8538 1422.24 65.2034 Q1424.88 67.5124 1429.37 67.5124 Q1435.57 67.5124 1439.3 63.1374 Q1443.07 58.7219 1443.07 51.4303 L1443.07 49.7694 L1435.65 49.7694 M1450.52 46.6907 L1450.52 72.576 L1443.07 72.576 L1443.07 65.6895 Q1440.51 69.8214 1436.71 71.8063 Q1432.9 73.7508 1427.39 73.7508 Q1420.42 73.7508 1416.29 69.8619 Q1412.2 65.9325 1412.2 59.3701 Q1412.2 51.7138 1417.3 47.825 Q1422.45 43.9361 1432.62 43.9361 L1443.07 43.9361 L1443.07 43.2069 Q1443.07 38.0623 1439.66 35.2672 Q1436.3 32.4315 1430.18 32.4315 Q1426.3 32.4315 1422.61 33.3632 Q1418.92 34.295 1415.52 36.1584 L1415.52 29.2718 Q1419.61 27.692 1423.46 26.9223 Q1427.31 26.1121 1430.95 26.1121 Q1440.8 26.1121 1445.66 31.2163 Q1450.52 36.3204 1450.52 46.6907 Z" fill="#000000" fill-rule="nonzero" fill-opacity="1" /><path clip-path="url(#clip370)" d="M1503.59 45.1919 L1503.59 72.576 L1496.13 72.576 L1496.13 45.4349 Q1496.13 38.994 1493.62 35.7938 Q1491.11 32.5936 1486.09 32.5936 Q1480.05 32.5936 1476.57 36.4419 Q1473.08 40.2903 1473.08 46.9338 L1473.08 72.576 L1465.59 72.576 L1465.59 27.2059 L1473.08 27.2059 L1473.08 34.2544 Q1475.76 30.163 1479.36 28.1376 Q1483.01 26.1121 1487.75 26.1121 Q1495.57 26.1121 1499.58 30.9732 Q1503.59 35.7938 1503.59 45.1919 Z" fill="#000000" fill-rule="nonzero" fill-opacity="1" /><path clip-path="url(#clip370)" d="M1551.1 28.9478 L1551.1 35.9153 Q1547.94 34.1734 1544.74 33.3227 Q1541.58 32.4315 1538.34 32.4315 Q1531.09 32.4315 1527.08 37.0496 Q1523.07 41.6271 1523.07 49.9314 Q1523.07 58.2358 1527.08 62.8538 Q1531.09 67.4314 1538.34 67.4314 Q1541.58 67.4314 1544.74 66.5807 Q1547.94 65.6895 1551.1 63.9476 L1551.1 70.8341 Q1547.99 72.2924 1544.62 73.0216 Q1541.3 73.7508 1537.53 73.7508 Q1527.28 73.7508 1521.25 67.3098 Q1515.21 60.8689 1515.21 49.9314 Q1515.21 38.832 1521.29 32.472 Q1527.41 26.1121 1538.02 26.1121 Q1541.46 26.1121 1544.74 26.8413 Q1548.03 27.5299 1551.1 28.9478 Z" fill="#000000" fill-rule="nonzero" fill-opacity="1" /><path clip-path="url(#clip370)" d="M1602.87 48.0275 L1602.87 51.6733 L1568.6 51.6733 Q1569.09 59.3701 1573.22 63.421 Q1577.39 67.4314 1584.81 67.4314 Q1589.1 67.4314 1593.11 66.3781 Q1597.16 65.3249 1601.13 63.2184 L1601.13 70.267 Q1597.12 71.9684 1592.91 72.8596 Q1588.7 73.7508 1584.36 73.7508 Q1573.51 73.7508 1567.15 67.4314 Q1560.83 61.1119 1560.83 50.3365 Q1560.83 39.1965 1566.82 32.6746 Q1572.86 26.1121 1583.07 26.1121 Q1592.22 26.1121 1597.53 32.0264 Q1602.87 37.9003 1602.87 48.0275 M1595.42 45.84 Q1595.34 39.7232 1591.98 36.0774 Q1588.66 32.4315 1583.15 32.4315 Q1576.91 32.4315 1573.14 35.9558 Q1569.41 39.4801 1568.85 45.8805 L1595.42 45.84 Z" fill="#000000" fill-rule="nonzero" fill-opacity="1" /><path clip-path="url(#clip370)" d="M1644.03 28.5427 L1644.03 35.5912 Q1640.87 33.9709 1637.47 33.1607 Q1634.07 32.3505 1630.42 32.3505 Q1624.87 32.3505 1622.08 34.0519 Q1619.32 35.7533 1619.32 39.156 Q1619.32 41.7486 1621.31 43.2475 Q1623.29 44.7058 1629.29 46.0426 L1631.84 46.6097 Q1639.78 48.3111 1643.1 51.4303 Q1646.46 54.509 1646.46 60.0587 Q1646.46 66.3781 1641.44 70.0644 Q1636.46 73.7508 1627.71 73.7508 Q1624.06 73.7508 1620.09 73.0216 Q1616.16 72.3329 1611.79 70.9151 L1611.79 63.2184 Q1615.92 65.3654 1619.93 66.4591 Q1623.94 67.5124 1627.87 67.5124 Q1633.14 67.5124 1635.97 65.73 Q1638.81 63.9071 1638.81 60.6258 Q1638.81 57.5877 1636.74 55.9673 Q1634.71 54.3469 1627.79 52.8481 L1625.2 52.2405 Q1618.27 50.7821 1615.19 47.7845 Q1612.11 44.7463 1612.11 39.4801 Q1612.11 33.0797 1616.65 29.5959 Q1621.18 26.1121 1629.53 26.1121 Q1633.66 26.1121 1637.31 26.7198 Q1640.95 27.3274 1644.03 28.5427 Z" fill="#000000" fill-rule="nonzero" fill-opacity="1" /><circle clip-path="url(#clip372)" cx="396.992" cy="507.16" r="14.4" fill="#009af9" fill-rule="evenodd" fill-opacity="1" stroke="#000000" stroke-opacity="1" stroke-width="3.2"/>
<circle clip-path="url(#clip372)" cx="607.969" cy="1386.4" r="14.4" fill="#009af9" fill-rule="evenodd" fill-opacity="1" stroke="#000000" stroke-opacity="1" stroke-width="3.2"/>
<circle clip-path="url(#clip372)" cx="818.947" cy="444.832" r="14.4" fill="#009af9" fill-rule="evenodd" fill-opacity="1" stroke="#000000" stroke-opacity="1" stroke-width="3.2"/>
<circle clip-path="url(#clip372)" cx="1029.93" cy="886.79" r="14.4" fill="#009af9" fill-rule="evenodd" fill-opacity="1" stroke="#000000" stroke-opacity="1" stroke-width="3.2"/>
<circle clip-path="url(#clip372)" cx="1240.9" cy="510.744" r="14.4" fill="#009af9" fill-rule="evenodd" fill-opacity="1" stroke="#000000" stroke-opacity="1" stroke-width="3.2"/>
<circle clip-path="url(#clip372)" cx="1451.88" cy="709.072" r="14.4" fill="#009af9" fill-rule="evenodd" fill-opacity="1" stroke="#000000" stroke-opacity="1" stroke-width="3.2"/>
<circle clip-path="url(#clip372)" cx="1662.86" cy="160.256" r="14.4" fill="#009af9" fill-rule="evenodd" fill-opacity="1" stroke="#000000" stroke-opacity="1" stroke-width="3.2"/>
<circle clip-path="url(#clip372)" cx="1873.84" cy="922.511" r="14.4" fill="#009af9" fill-rule="evenodd" fill-opacity="1" stroke="#000000" stroke-opacity="1" stroke-width="3.2"/>
<circle clip-path="url(#clip372)" cx="2084.81" cy="1121.88" r="14.4" fill="#009af9" fill-rule="evenodd" fill-opacity="1" stroke="#000000" stroke-opacity="1" stroke-width="3.2"/>
<circle clip-path="url(#clip372)" cx="2295.79" cy="1263.4" r="14.4" fill="#009af9" fill-rule="evenodd" fill-opacity="1" stroke="#000000" stroke-opacity="1" stroke-width="3.2"/>
</svg>
