<?xml version="1.0" encoding="utf-8"?>
<svg xmlns="http://www.w3.org/2000/svg" xmlns:xlink="http://www.w3.org/1999/xlink" width="600" height="400" viewBox="0 0 2400 1600">
<defs>
  <clipPath id="clip600">
    <rect x="0" y="0" width="2400" height="1600"/>
  </clipPath>
</defs>
<path clip-path="url(#clip600)" d="M0 1600 L2400 1600 L2400 0 L0 0  Z" fill="#ffffff" fill-rule="evenodd" fill-opacity="1"/>
<defs>
  <clipPath id="clip601">
    <rect x="480" y="0" width="1681" height="1600"/>
  </clipPath>
</defs>
<path clip-path="url(#clip600)" d="M309.866 1423.18 L2352.76 1423.18 L2352.76 123.472 L309.866 123.472  Z" fill="#ffffff" fill-rule="evenodd" fill-opacity="1"/>
<defs>
  <clipPath id="clip602">
    <rect x="309" y="123" width="2044" height="1301"/>
  </clipPath>
</defs>
<polyline clip-path="url(#clip602)" style="stroke:#000000; stroke-linecap:round; stroke-linejoin:round; stroke-width:2; stroke-opacity:0.1; fill:none" points="329.138,1423.18 329.138,123.472 "/>
<polyline clip-path="url(#clip602)" style="stroke:#000000; stroke-linecap:round; stroke-linejoin:round; stroke-width:2; stroke-opacity:0.1; fill:none" points="714.589,1423.18 714.589,123.472 "/>
<polyline clip-path="url(#clip602)" style="stroke:#000000; stroke-linecap:round; stroke-linejoin:round; stroke-width:2; stroke-opacity:0.1; fill:none" points="1100.04,1423.18 1100.04,123.472 "/>
<polyline clip-path="url(#clip602)" style="stroke:#000000; stroke-linecap:round; stroke-linejoin:round; stroke-width:2; stroke-opacity:0.1; fill:none" points="1485.49,1423.18 1485.49,123.472 "/>
<polyline clip-path="url(#clip602)" style="stroke:#000000; stroke-linecap:round; stroke-linejoin:round; stroke-width:2; stroke-opacity:0.1; fill:none" points="1870.94,1423.18 1870.94,123.472 "/>
<polyline clip-path="url(#clip602)" style="stroke:#000000; stroke-linecap:round; stroke-linejoin:round; stroke-width:2; stroke-opacity:0.1; fill:none" points="2256.39,1423.18 2256.39,123.472 "/>
<polyline clip-path="url(#clip600)" style="stroke:#000000; stroke-linecap:round; stroke-linejoin:round; stroke-width:4; stroke-opacity:1; fill:none" points="309.866,1423.18 2352.76,1423.18 "/>
<polyline clip-path="url(#clip600)" style="stroke:#000000; stroke-linecap:round; stroke-linejoin:round; stroke-width:4; stroke-opacity:1; fill:none" points="329.138,1423.18 329.138,1404.28 "/>
<polyline clip-path="url(#clip600)" style="stroke:#000000; stroke-linecap:round; stroke-linejoin:round; stroke-width:4; stroke-opacity:1; fill:none" points="714.589,1423.18 714.589,1404.28 "/>
<polyline clip-path="url(#clip600)" style="stroke:#000000; stroke-linecap:round; stroke-linejoin:round; stroke-width:4; stroke-opacity:1; fill:none" points="1100.04,1423.18 1100.04,1404.28 "/>
<polyline clip-path="url(#clip600)" style="stroke:#000000; stroke-linecap:round; stroke-linejoin:round; stroke-width:4; stroke-opacity:1; fill:none" points="1485.49,1423.18 1485.49,1404.28 "/>
<polyline clip-path="url(#clip600)" style="stroke:#000000; stroke-linecap:round; stroke-linejoin:round; stroke-width:4; stroke-opacity:1; fill:none" points="1870.94,1423.18 1870.94,1404.28 "/>
<polyline clip-path="url(#clip600)" style="stroke:#000000; stroke-linecap:round; stroke-linejoin:round; stroke-width:4; stroke-opacity:1; fill:none" points="2256.39,1423.18 2256.39,1404.28 "/>
<path clip-path="url(#clip600)" d="M329.138 1454.1 Q325.527 1454.1 323.699 1457.66 Q321.893 1461.2 321.893 1468.33 Q321.893 1475.44 323.699 1479.01 Q325.527 1482.55 329.138 1482.55 Q332.773 1482.55 334.578 1479.01 Q336.407 1475.44 336.407 1468.33 Q336.407 1461.2 334.578 1457.66 Q332.773 1454.1 329.138 1454.1 M329.138 1450.39 Q334.948 1450.39 338.004 1455 Q341.083 1459.58 341.083 1468.33 Q341.083 1477.06 338.004 1481.67 Q334.948 1486.25 329.138 1486.25 Q323.328 1486.25 320.249 1481.67 Q317.194 1477.06 317.194 1468.33 Q317.194 1459.58 320.249 1455 Q323.328 1450.39 329.138 1450.39 Z" fill="#000000" fill-rule="nonzero" fill-opacity="1" /><path clip-path="url(#clip600)" d="M689.277 1481.64 L696.916 1481.64 L696.916 1455.28 L688.606 1456.95 L688.606 1452.69 L696.869 1451.02 L701.545 1451.02 L701.545 1481.64 L709.184 1481.64 L709.184 1485.58 L689.277 1485.58 L689.277 1481.64 Z" fill="#000000" fill-rule="nonzero" fill-opacity="1" /><path clip-path="url(#clip600)" d="M728.629 1454.1 Q725.017 1454.1 723.189 1457.66 Q721.383 1461.2 721.383 1468.33 Q721.383 1475.44 723.189 1479.01 Q725.017 1482.55 728.629 1482.55 Q732.263 1482.55 734.068 1479.01 Q735.897 1475.44 735.897 1468.33 Q735.897 1461.2 734.068 1457.66 Q732.263 1454.1 728.629 1454.1 M728.629 1450.39 Q734.439 1450.39 737.494 1455 Q740.573 1459.58 740.573 1468.33 Q740.573 1477.06 737.494 1481.67 Q734.439 1486.25 728.629 1486.25 Q722.818 1486.25 719.74 1481.67 Q716.684 1477.06 716.684 1468.33 Q716.684 1459.58 719.74 1455 Q722.818 1450.39 728.629 1450.39 Z" fill="#000000" fill-rule="nonzero" fill-opacity="1" /><path clip-path="url(#clip600)" d="M1078.81 1481.64 L1095.13 1481.64 L1095.13 1485.58 L1073.19 1485.58 L1073.19 1481.64 Q1075.85 1478.89 1080.43 1474.26 Q1085.04 1469.61 1086.22 1468.27 Q1088.47 1465.74 1089.35 1464.01 Q1090.25 1462.25 1090.25 1460.56 Q1090.25 1457.8 1088.3 1456.07 Q1086.38 1454.33 1083.28 1454.33 Q1081.08 1454.33 1078.63 1455.09 Q1076.2 1455.86 1073.42 1457.41 L1073.42 1452.69 Q1076.24 1451.55 1078.7 1450.97 Q1081.15 1450.39 1083.19 1450.39 Q1088.56 1450.39 1091.75 1453.08 Q1094.95 1455.77 1094.95 1460.26 Q1094.95 1462.39 1094.14 1464.31 Q1093.35 1466.2 1091.24 1468.8 Q1090.67 1469.47 1087.56 1472.69 Q1084.46 1475.88 1078.81 1481.64 Z" fill="#000000" fill-rule="nonzero" fill-opacity="1" /><path clip-path="url(#clip600)" d="M1114.95 1454.1 Q1111.34 1454.1 1109.51 1457.66 Q1107.7 1461.2 1107.7 1468.33 Q1107.7 1475.44 1109.51 1479.01 Q1111.34 1482.55 1114.95 1482.55 Q1118.58 1482.55 1120.39 1479.01 Q1122.22 1475.44 1122.22 1468.33 Q1122.22 1461.2 1120.39 1457.66 Q1118.58 1454.1 1114.95 1454.1 M1114.95 1450.39 Q1120.76 1450.39 1123.81 1455 Q1126.89 1459.58 1126.89 1468.33 Q1126.89 1477.06 1123.81 1481.67 Q1120.76 1486.25 1114.95 1486.25 Q1109.14 1486.25 1106.06 1481.67 Q1103 1477.06 1103 1468.33 Q1103 1459.58 1106.06 1455 Q1109.14 1450.39 1114.95 1450.39 Z" fill="#000000" fill-rule="nonzero" fill-opacity="1" /><path clip-path="url(#clip600)" d="M1474.33 1466.95 Q1477.69 1467.66 1479.57 1469.93 Q1481.46 1472.2 1481.46 1475.53 Q1481.46 1480.65 1477.94 1483.45 Q1474.43 1486.25 1467.95 1486.25 Q1465.77 1486.25 1463.45 1485.81 Q1461.16 1485.39 1458.71 1484.54 L1458.71 1480.02 Q1460.65 1481.16 1462.97 1481.74 Q1465.28 1482.32 1467.81 1482.32 Q1472.2 1482.32 1474.5 1480.58 Q1476.81 1478.84 1476.81 1475.53 Q1476.81 1472.48 1474.66 1470.77 Q1472.53 1469.03 1468.71 1469.03 L1464.68 1469.03 L1464.68 1465.19 L1468.89 1465.19 Q1472.34 1465.19 1474.17 1463.82 Q1476 1462.43 1476 1459.84 Q1476 1457.18 1474.1 1455.77 Q1472.23 1454.33 1468.71 1454.33 Q1466.79 1454.33 1464.59 1454.75 Q1462.39 1455.16 1459.75 1456.04 L1459.75 1451.88 Q1462.41 1451.14 1464.73 1450.77 Q1467.07 1450.39 1469.13 1450.39 Q1474.45 1450.39 1477.55 1452.83 Q1480.65 1455.23 1480.65 1459.35 Q1480.65 1462.22 1479.01 1464.21 Q1477.37 1466.18 1474.33 1466.95 Z" fill="#000000" fill-rule="nonzero" fill-opacity="1" /><path clip-path="url(#clip600)" d="M1500.33 1454.1 Q1496.72 1454.1 1494.89 1457.66 Q1493.08 1461.2 1493.08 1468.33 Q1493.08 1475.44 1494.89 1479.01 Q1496.72 1482.55 1500.33 1482.55 Q1503.96 1482.55 1505.77 1479.01 Q1507.6 1475.44 1507.6 1468.33 Q1507.6 1461.2 1505.77 1457.66 Q1503.96 1454.1 1500.33 1454.1 M1500.33 1450.39 Q1506.14 1450.39 1509.19 1455 Q1512.27 1459.58 1512.27 1468.33 Q1512.27 1477.06 1509.19 1481.67 Q1506.14 1486.25 1500.33 1486.25 Q1494.52 1486.25 1491.44 1481.67 Q1488.38 1477.06 1488.38 1468.33 Q1488.38 1459.58 1491.44 1455 Q1494.52 1450.39 1500.33 1450.39 Z" fill="#000000" fill-rule="nonzero" fill-opacity="1" /><path clip-path="url(#clip600)" d="M1859.11 1455.09 L1847.31 1473.54 L1859.11 1473.54 L1859.11 1455.09 M1857.89 1451.02 L1863.77 1451.02 L1863.77 1473.54 L1868.7 1473.54 L1868.7 1477.43 L1863.77 1477.43 L1863.77 1485.58 L1859.11 1485.58 L1859.11 1477.43 L1843.51 1477.43 L1843.51 1472.92 L1857.89 1451.02 Z" fill="#000000" fill-rule="nonzero" fill-opacity="1" /><path clip-path="url(#clip600)" d="M1886.43 1454.1 Q1882.82 1454.1 1880.99 1457.66 Q1879.18 1461.2 1879.18 1468.33 Q1879.18 1475.44 1880.99 1479.01 Q1882.82 1482.55 1886.43 1482.55 Q1890.06 1482.55 1891.87 1479.01 Q1893.7 1475.44 1893.7 1468.33 Q1893.7 1461.2 1891.87 1457.66 Q1890.06 1454.1 1886.43 1454.1 M1886.43 1450.39 Q1892.24 1450.39 1895.29 1455 Q1898.37 1459.58 1898.37 1468.33 Q1898.37 1477.06 1895.29 1481.67 Q1892.24 1486.25 1886.43 1486.25 Q1880.62 1486.25 1877.54 1481.67 Q1874.48 1477.06 1874.48 1468.33 Q1874.48 1459.58 1877.54 1455 Q1880.62 1450.39 1886.43 1450.39 Z" fill="#000000" fill-rule="nonzero" fill-opacity="1" /><path clip-path="url(#clip600)" d="M2231.09 1451.02 L2249.45 1451.02 L2249.45 1454.96 L2235.37 1454.96 L2235.37 1463.43 Q2236.39 1463.08 2237.41 1462.92 Q2238.43 1462.73 2239.45 1462.73 Q2245.24 1462.73 2248.62 1465.9 Q2252 1469.08 2252 1474.49 Q2252 1480.07 2248.52 1483.17 Q2245.05 1486.25 2238.73 1486.25 Q2236.56 1486.25 2234.29 1485.88 Q2232.04 1485.51 2229.63 1484.77 L2229.63 1480.07 Q2231.72 1481.2 2233.94 1481.76 Q2236.16 1482.32 2238.64 1482.32 Q2242.64 1482.32 2244.98 1480.21 Q2247.32 1478.1 2247.32 1474.49 Q2247.32 1470.88 2244.98 1468.77 Q2242.64 1466.67 2238.64 1466.67 Q2236.76 1466.67 2234.89 1467.08 Q2233.04 1467.5 2231.09 1468.38 L2231.09 1451.02 Z" fill="#000000" fill-rule="nonzero" fill-opacity="1" /><path clip-path="url(#clip600)" d="M2271.21 1454.1 Q2267.6 1454.1 2265.77 1457.66 Q2263.96 1461.2 2263.96 1468.33 Q2263.96 1475.44 2265.77 1479.01 Q2267.6 1482.55 2271.21 1482.55 Q2274.84 1482.55 2276.65 1479.01 Q2278.48 1475.44 2278.48 1468.33 Q2278.48 1461.2 2276.65 1457.66 Q2274.84 1454.1 2271.21 1454.1 M2271.21 1450.39 Q2277.02 1450.39 2280.07 1455 Q2283.15 1459.58 2283.15 1468.33 Q2283.15 1477.06 2280.07 1481.67 Q2277.02 1486.25 2271.21 1486.25 Q2265.4 1486.25 2262.32 1481.67 Q2259.26 1477.06 2259.26 1468.33 Q2259.26 1459.58 2262.32 1455 Q2265.4 1450.39 2271.21 1450.39 Z" fill="#000000" fill-rule="nonzero" fill-opacity="1" /><path clip-path="url(#clip600)" d="M1199.03 1520.52 L1205.46 1520.52 L1205.46 1568.04 L1199.03 1568.04 L1199.03 1520.52 Z" fill="#000000" fill-rule="nonzero" fill-opacity="1" /><path clip-path="url(#clip600)" d="M1223.79 1522.27 L1223.79 1532.4 L1235.86 1532.4 L1235.86 1536.95 L1223.79 1536.95 L1223.79 1556.3 Q1223.79 1560.66 1224.97 1561.9 Q1226.18 1563.14 1229.84 1563.14 L1235.86 1563.14 L1235.86 1568.04 L1229.84 1568.04 Q1223.06 1568.04 1220.48 1565.53 Q1217.91 1562.98 1217.91 1556.3 L1217.91 1536.95 L1213.61 1536.95 L1213.61 1532.4 L1217.91 1532.4 L1217.91 1522.27 L1223.79 1522.27 Z" fill="#000000" fill-rule="nonzero" fill-opacity="1" /><path clip-path="url(#clip600)" d="M1274.05 1548.76 L1274.05 1551.62 L1247.12 1551.62 Q1247.51 1557.67 1250.75 1560.85 Q1254.03 1564 1259.86 1564 Q1263.23 1564 1266.38 1563.17 Q1269.56 1562.35 1272.68 1560.69 L1272.68 1566.23 Q1269.53 1567.57 1266.22 1568.27 Q1262.91 1568.97 1259.51 1568.97 Q1250.98 1568.97 1245.98 1564 Q1241.01 1559.04 1241.01 1550.57 Q1241.01 1541.82 1245.72 1536.69 Q1250.47 1531.54 1258.49 1531.54 Q1265.68 1531.54 1269.85 1536.18 Q1274.05 1540.8 1274.05 1548.76 M1268.19 1547.04 Q1268.13 1542.23 1265.49 1539.37 Q1262.88 1536.5 1258.55 1536.5 Q1253.65 1536.5 1250.69 1539.27 Q1247.76 1542.04 1247.32 1547.07 L1268.19 1547.04 Z" fill="#000000" fill-rule="nonzero" fill-opacity="1" /><path clip-path="url(#clip600)" d="M1304.32 1537.87 Q1303.33 1537.3 1302.16 1537.04 Q1301.01 1536.76 1299.61 1536.76 Q1294.64 1536.76 1291.97 1540 Q1289.33 1543.22 1289.33 1549.27 L1289.33 1568.04 L1283.44 1568.04 L1283.44 1532.4 L1289.33 1532.4 L1289.33 1537.93 Q1291.18 1534.69 1294.14 1533.13 Q1297.1 1531.54 1301.33 1531.54 Q1301.93 1531.54 1302.67 1531.63 Q1303.4 1531.7 1304.29 1531.85 L1304.32 1537.87 Z" fill="#000000" fill-rule="nonzero" fill-opacity="1" /><path clip-path="url(#clip600)" d="M1326.66 1550.12 Q1319.57 1550.12 1316.83 1551.75 Q1314.09 1553.37 1314.09 1557.29 Q1314.09 1560.4 1316.13 1562.25 Q1318.2 1564.07 1321.73 1564.07 Q1326.6 1564.07 1329.53 1560.63 Q1332.49 1557.16 1332.49 1551.43 L1332.49 1550.12 L1326.66 1550.12 M1338.34 1547.71 L1338.34 1568.04 L1332.49 1568.04 L1332.49 1562.63 Q1330.48 1565.88 1327.49 1567.44 Q1324.5 1568.97 1320.17 1568.97 Q1314.7 1568.97 1311.45 1565.91 Q1308.24 1562.82 1308.24 1557.67 Q1308.24 1551.65 1312.25 1548.6 Q1316.29 1545.54 1324.28 1545.54 L1332.49 1545.54 L1332.49 1544.97 Q1332.49 1540.93 1329.81 1538.73 Q1327.17 1536.5 1322.37 1536.5 Q1319.31 1536.5 1316.42 1537.23 Q1313.52 1537.97 1310.85 1539.43 L1310.85 1534.02 Q1314.06 1532.78 1317.08 1532.17 Q1320.11 1531.54 1322.97 1531.54 Q1330.71 1531.54 1334.53 1535.55 Q1338.34 1539.56 1338.34 1547.71 Z" fill="#000000" fill-rule="nonzero" fill-opacity="1" /><path clip-path="url(#clip600)" d="M1356.2 1522.27 L1356.2 1532.4 L1368.26 1532.4 L1368.26 1536.95 L1356.2 1536.95 L1356.2 1556.3 Q1356.2 1560.66 1357.38 1561.9 Q1358.59 1563.14 1362.25 1563.14 L1368.26 1563.14 L1368.26 1568.04 L1362.25 1568.04 Q1355.47 1568.04 1352.89 1565.53 Q1350.31 1562.98 1350.31 1556.3 L1350.31 1536.95 L1346.02 1536.95 L1346.02 1532.4 L1350.31 1532.4 L1350.31 1522.27 L1356.2 1522.27 Z" fill="#000000" fill-rule="nonzero" fill-opacity="1" /><path clip-path="url(#clip600)" d="M1375.97 1532.4 L1381.82 1532.4 L1381.82 1568.04 L1375.97 1568.04 L1375.97 1532.4 M1375.97 1518.52 L1381.82 1518.52 L1381.82 1525.93 L1375.97 1525.93 L1375.97 1518.52 Z" fill="#000000" fill-rule="nonzero" fill-opacity="1" /><path clip-path="url(#clip600)" d="M1407.89 1536.5 Q1403.18 1536.5 1400.44 1540.19 Q1397.71 1543.85 1397.71 1550.25 Q1397.71 1556.65 1400.41 1560.34 Q1403.15 1564 1407.89 1564 Q1412.57 1564 1415.31 1560.31 Q1418.04 1556.62 1418.04 1550.25 Q1418.04 1543.92 1415.31 1540.23 Q1412.57 1536.5 1407.89 1536.5 M1407.89 1531.54 Q1415.53 1531.54 1419.89 1536.5 Q1424.25 1541.47 1424.25 1550.25 Q1424.25 1559 1419.89 1564 Q1415.53 1568.97 1407.89 1568.97 Q1400.22 1568.97 1395.86 1564 Q1391.53 1559 1391.53 1550.25 Q1391.53 1541.47 1395.86 1536.5 Q1400.22 1531.54 1407.89 1531.54 Z" fill="#000000" fill-rule="nonzero" fill-opacity="1" /><path clip-path="url(#clip600)" d="M1463.59 1546.53 L1463.59 1568.04 L1457.73 1568.04 L1457.73 1546.72 Q1457.73 1541.66 1455.76 1539.14 Q1453.79 1536.63 1449.84 1536.63 Q1445.1 1536.63 1442.36 1539.65 Q1439.62 1542.68 1439.62 1547.9 L1439.62 1568.04 L1433.74 1568.04 L1433.74 1532.4 L1439.62 1532.4 L1439.62 1537.93 Q1441.72 1534.72 1444.56 1533.13 Q1447.42 1531.54 1451.15 1531.54 Q1457.29 1531.54 1460.44 1535.36 Q1463.59 1539.14 1463.59 1546.53 Z" fill="#000000" fill-rule="nonzero" fill-opacity="1" /><polyline clip-path="url(#clip602)" style="stroke:#000000; stroke-linecap:round; stroke-linejoin:round; stroke-width:2; stroke-opacity:0.1; fill:none" points="309.866,1346.72 2352.76,1346.72 "/>
<polyline clip-path="url(#clip602)" style="stroke:#000000; stroke-linecap:round; stroke-linejoin:round; stroke-width:2; stroke-opacity:0.1; fill:none" points="309.866,1047.75 2352.76,1047.75 "/>
<polyline clip-path="url(#clip602)" style="stroke:#000000; stroke-linecap:round; stroke-linejoin:round; stroke-width:2; stroke-opacity:0.1; fill:none" points="309.866,748.777 2352.76,748.777 "/>
<polyline clip-path="url(#clip602)" style="stroke:#000000; stroke-linecap:round; stroke-linejoin:round; stroke-width:2; stroke-opacity:0.1; fill:none" points="309.866,449.806 2352.76,449.806 "/>
<polyline clip-path="url(#clip602)" style="stroke:#000000; stroke-linecap:round; stroke-linejoin:round; stroke-width:2; stroke-opacity:0.1; fill:none" points="309.866,150.834 2352.76,150.834 "/>
<polyline clip-path="url(#clip600)" style="stroke:#000000; stroke-linecap:round; stroke-linejoin:round; stroke-width:4; stroke-opacity:1; fill:none" points="309.866,1423.18 309.866,123.472 "/>
<polyline clip-path="url(#clip600)" style="stroke:#000000; stroke-linecap:round; stroke-linejoin:round; stroke-width:4; stroke-opacity:1; fill:none" points="309.866,1346.72 328.763,1346.72 "/>
<polyline clip-path="url(#clip600)" style="stroke:#000000; stroke-linecap:round; stroke-linejoin:round; stroke-width:4; stroke-opacity:1; fill:none" points="309.866,1047.75 328.763,1047.75 "/>
<polyline clip-path="url(#clip600)" style="stroke:#000000; stroke-linecap:round; stroke-linejoin:round; stroke-width:4; stroke-opacity:1; fill:none" points="309.866,748.777 328.763,748.777 "/>
<polyline clip-path="url(#clip600)" style="stroke:#000000; stroke-linecap:round; stroke-linejoin:round; stroke-width:4; stroke-opacity:1; fill:none" points="309.866,449.806 328.763,449.806 "/>
<polyline clip-path="url(#clip600)" style="stroke:#000000; stroke-linecap:round; stroke-linejoin:round; stroke-width:4; stroke-opacity:1; fill:none" points="309.866,150.834 328.763,150.834 "/>
<path clip-path="url(#clip600)" d="M127.2 1332.52 Q123.589 1332.52 121.76 1336.08 Q119.955 1339.63 119.955 1346.76 Q119.955 1353.86 121.76 1357.43 Q123.589 1360.97 127.2 1360.97 Q130.834 1360.97 132.64 1357.43 Q134.468 1353.86 134.468 1346.76 Q134.468 1339.63 132.64 1336.08 Q130.834 1332.52 127.2 1332.52 M127.2 1328.82 Q133.01 1328.82 136.066 1333.42 Q139.144 1338.01 139.144 1346.76 Q139.144 1355.48 136.066 1360.09 Q133.01 1364.67 127.2 1364.67 Q121.39 1364.67 118.311 1360.09 Q115.256 1355.48 115.256 1346.76 Q115.256 1338.01 118.311 1333.42 Q121.39 1328.82 127.2 1328.82 Z" fill="#000000" fill-rule="nonzero" fill-opacity="1" /><path clip-path="url(#clip600)" d="M147.362 1358.12 L152.246 1358.12 L152.246 1364 L147.362 1364 L147.362 1358.12 Z" fill="#000000" fill-rule="nonzero" fill-opacity="1" /><path clip-path="url(#clip600)" d="M172.431 1332.52 Q168.82 1332.52 166.991 1336.08 Q165.186 1339.63 165.186 1346.76 Q165.186 1353.86 166.991 1357.43 Q168.82 1360.97 172.431 1360.97 Q176.065 1360.97 177.871 1357.43 Q179.7 1353.86 179.7 1346.76 Q179.7 1339.63 177.871 1336.08 Q176.065 1332.52 172.431 1332.52 M172.431 1328.82 Q178.241 1328.82 181.297 1333.42 Q184.376 1338.01 184.376 1346.76 Q184.376 1355.48 181.297 1360.09 Q178.241 1364.67 172.431 1364.67 Q166.621 1364.67 163.542 1360.09 Q160.487 1355.48 160.487 1346.76 Q160.487 1338.01 163.542 1333.42 Q166.621 1328.82 172.431 1328.82 Z" fill="#000000" fill-rule="nonzero" fill-opacity="1" /><path clip-path="url(#clip600)" d="M202.593 1332.52 Q198.982 1332.52 197.153 1336.08 Q195.348 1339.63 195.348 1346.76 Q195.348 1353.86 197.153 1357.43 Q198.982 1360.97 202.593 1360.97 Q206.227 1360.97 208.033 1357.43 Q209.861 1353.86 209.861 1346.76 Q209.861 1339.63 208.033 1336.08 Q206.227 1332.52 202.593 1332.52 M202.593 1328.82 Q208.403 1328.82 211.459 1333.42 Q214.537 1338.01 214.537 1346.76 Q214.537 1355.48 211.459 1360.09 Q208.403 1364.67 202.593 1364.67 Q196.783 1364.67 193.704 1360.09 Q190.649 1355.48 190.649 1346.76 Q190.649 1338.01 193.704 1333.42 Q196.783 1328.82 202.593 1328.82 Z" fill="#000000" fill-rule="nonzero" fill-opacity="1" /><path clip-path="url(#clip600)" d="M222.894 1363.28 L222.894 1359.02 Q224.653 1359.86 226.459 1360.3 Q228.264 1360.74 230 1360.74 Q234.63 1360.74 237.06 1357.63 Q239.514 1354.51 239.861 1348.17 Q238.519 1350.16 236.459 1351.22 Q234.398 1352.29 231.898 1352.29 Q226.713 1352.29 223.681 1349.16 Q220.672 1346.01 220.672 1340.57 Q220.672 1335.25 223.82 1332.03 Q226.968 1328.82 232.199 1328.82 Q238.195 1328.82 241.343 1333.42 Q244.514 1338.01 244.514 1346.76 Q244.514 1354.93 240.625 1359.81 Q236.76 1364.67 230.209 1364.67 Q228.449 1364.67 226.644 1364.32 Q224.838 1363.98 222.894 1363.28 M232.199 1348.63 Q235.347 1348.63 237.176 1346.48 Q239.028 1344.32 239.028 1340.57 Q239.028 1336.85 237.176 1334.7 Q235.347 1332.52 232.199 1332.52 Q229.051 1332.52 227.199 1334.7 Q225.371 1336.85 225.371 1340.57 Q225.371 1344.32 227.199 1346.48 Q229.051 1348.63 232.199 1348.63 Z" fill="#000000" fill-rule="nonzero" fill-opacity="1" /><path clip-path="url(#clip600)" d="M252.963 1329.44 L271.32 1329.44 L271.32 1333.38 L257.246 1333.38 L257.246 1341.85 Q258.264 1341.5 259.283 1341.34 Q260.301 1341.15 261.32 1341.15 Q267.107 1341.15 270.486 1344.32 Q273.866 1347.5 273.866 1352.91 Q273.866 1358.49 270.394 1361.59 Q266.921 1364.67 260.602 1364.67 Q258.426 1364.67 256.158 1364.3 Q253.912 1363.93 251.505 1363.19 L251.505 1358.49 Q253.588 1359.63 255.81 1360.18 Q258.033 1360.74 260.509 1360.74 Q264.514 1360.74 266.852 1358.63 Q269.19 1356.52 269.19 1352.91 Q269.19 1349.3 266.852 1347.2 Q264.514 1345.09 260.509 1345.09 Q258.634 1345.09 256.759 1345.51 Q254.908 1345.92 252.963 1346.8 L252.963 1329.44 Z" fill="#000000" fill-rule="nonzero" fill-opacity="1" /><path clip-path="url(#clip600)" d="M126.205 1033.55 Q122.593 1033.55 120.765 1037.11 Q118.959 1040.65 118.959 1047.78 Q118.959 1054.89 120.765 1058.45 Q122.593 1062 126.205 1062 Q129.839 1062 131.644 1058.45 Q133.473 1054.89 133.473 1047.78 Q133.473 1040.65 131.644 1037.11 Q129.839 1033.55 126.205 1033.55 M126.205 1029.84 Q132.015 1029.84 135.07 1034.45 Q138.149 1039.03 138.149 1047.78 Q138.149 1056.51 135.07 1061.12 Q132.015 1065.7 126.205 1065.7 Q120.394 1065.7 117.316 1061.12 Q114.26 1056.51 114.26 1047.78 Q114.26 1039.03 117.316 1034.45 Q120.394 1029.84 126.205 1029.84 Z" fill="#000000" fill-rule="nonzero" fill-opacity="1" /><path clip-path="url(#clip600)" d="M146.366 1059.15 L151.251 1059.15 L151.251 1065.03 L146.366 1065.03 L146.366 1059.15 Z" fill="#000000" fill-rule="nonzero" fill-opacity="1" /><path clip-path="url(#clip600)" d="M171.436 1033.55 Q167.825 1033.55 165.996 1037.11 Q164.19 1040.65 164.19 1047.78 Q164.19 1054.89 165.996 1058.45 Q167.825 1062 171.436 1062 Q175.07 1062 176.876 1058.45 Q178.704 1054.89 178.704 1047.78 Q178.704 1040.65 176.876 1037.11 Q175.07 1033.55 171.436 1033.55 M171.436 1029.84 Q177.246 1029.84 180.301 1034.45 Q183.38 1039.03 183.38 1047.78 Q183.38 1056.51 180.301 1061.12 Q177.246 1065.7 171.436 1065.7 Q165.626 1065.7 162.547 1061.12 Q159.491 1056.51 159.491 1047.78 Q159.491 1039.03 162.547 1034.45 Q165.626 1029.84 171.436 1029.84 Z" fill="#000000" fill-rule="nonzero" fill-opacity="1" /><path clip-path="url(#clip600)" d="M192.408 1061.09 L200.047 1061.09 L200.047 1034.73 L191.737 1036.39 L191.737 1032.14 L200 1030.47 L204.676 1030.47 L204.676 1061.09 L212.315 1061.09 L212.315 1065.03 L192.408 1065.03 L192.408 1061.09 Z" fill="#000000" fill-rule="nonzero" fill-opacity="1" /><path clip-path="url(#clip600)" d="M231.76 1033.55 Q228.148 1033.55 226.32 1037.11 Q224.514 1040.65 224.514 1047.78 Q224.514 1054.89 226.32 1058.45 Q228.148 1062 231.76 1062 Q235.394 1062 237.199 1058.45 Q239.028 1054.89 239.028 1047.78 Q239.028 1040.65 237.199 1037.11 Q235.394 1033.55 231.76 1033.55 M231.76 1029.84 Q237.57 1029.84 240.625 1034.45 Q243.704 1039.03 243.704 1047.78 Q243.704 1056.51 240.625 1061.12 Q237.57 1065.7 231.76 1065.7 Q225.949 1065.7 222.871 1061.12 Q219.815 1056.51 219.815 1047.78 Q219.815 1039.03 222.871 1034.45 Q225.949 1029.84 231.76 1029.84 Z" fill="#000000" fill-rule="nonzero" fill-opacity="1" /><path clip-path="url(#clip600)" d="M261.921 1033.55 Q258.31 1033.55 256.482 1037.11 Q254.676 1040.65 254.676 1047.78 Q254.676 1054.89 256.482 1058.45 Q258.31 1062 261.921 1062 Q265.556 1062 267.361 1058.45 Q269.19 1054.89 269.19 1047.78 Q269.19 1040.65 267.361 1037.11 Q265.556 1033.55 261.921 1033.55 M261.921 1029.84 Q267.732 1029.84 270.787 1034.45 Q273.866 1039.03 273.866 1047.78 Q273.866 1056.51 270.787 1061.12 Q267.732 1065.7 261.921 1065.7 Q256.111 1065.7 253.033 1061.12 Q249.977 1056.51 249.977 1047.78 Q249.977 1039.03 253.033 1034.45 Q256.111 1029.84 261.921 1029.84 Z" fill="#000000" fill-rule="nonzero" fill-opacity="1" /><path clip-path="url(#clip600)" d="M127.2 734.576 Q123.589 734.576 121.76 738.141 Q119.955 741.683 119.955 748.812 Q119.955 755.919 121.76 759.483 Q123.589 763.025 127.2 763.025 Q130.834 763.025 132.64 759.483 Q134.468 755.919 134.468 748.812 Q134.468 741.683 132.64 738.141 Q130.834 734.576 127.2 734.576 M127.2 730.872 Q133.01 730.872 136.066 735.479 Q139.144 740.062 139.144 748.812 Q139.144 757.539 136.066 762.145 Q133.01 766.729 127.2 766.729 Q121.39 766.729 118.311 762.145 Q115.256 757.539 115.256 748.812 Q115.256 740.062 118.311 735.479 Q121.39 730.872 127.2 730.872 Z" fill="#000000" fill-rule="nonzero" fill-opacity="1" /><path clip-path="url(#clip600)" d="M147.362 760.178 L152.246 760.178 L152.246 766.057 L147.362 766.057 L147.362 760.178 Z" fill="#000000" fill-rule="nonzero" fill-opacity="1" /><path clip-path="url(#clip600)" d="M172.431 734.576 Q168.82 734.576 166.991 738.141 Q165.186 741.683 165.186 748.812 Q165.186 755.919 166.991 759.483 Q168.82 763.025 172.431 763.025 Q176.065 763.025 177.871 759.483 Q179.7 755.919 179.7 748.812 Q179.7 741.683 177.871 738.141 Q176.065 734.576 172.431 734.576 M172.431 730.872 Q178.241 730.872 181.297 735.479 Q184.376 740.062 184.376 748.812 Q184.376 757.539 181.297 762.145 Q178.241 766.729 172.431 766.729 Q166.621 766.729 163.542 762.145 Q160.487 757.539 160.487 748.812 Q160.487 740.062 163.542 735.479 Q166.621 730.872 172.431 730.872 Z" fill="#000000" fill-rule="nonzero" fill-opacity="1" /><path clip-path="url(#clip600)" d="M193.403 762.122 L201.042 762.122 L201.042 735.757 L192.732 737.423 L192.732 733.164 L200.996 731.497 L205.672 731.497 L205.672 762.122 L213.311 762.122 L213.311 766.057 L193.403 766.057 L193.403 762.122 Z" fill="#000000" fill-rule="nonzero" fill-opacity="1" /><path clip-path="url(#clip600)" d="M232.755 734.576 Q229.144 734.576 227.315 738.141 Q225.51 741.683 225.51 748.812 Q225.51 755.919 227.315 759.483 Q229.144 763.025 232.755 763.025 Q236.389 763.025 238.195 759.483 Q240.023 755.919 240.023 748.812 Q240.023 741.683 238.195 738.141 Q236.389 734.576 232.755 734.576 M232.755 730.872 Q238.565 730.872 241.621 735.479 Q244.699 740.062 244.699 748.812 Q244.699 757.539 241.621 762.145 Q238.565 766.729 232.755 766.729 Q226.945 766.729 223.866 762.145 Q220.811 757.539 220.811 748.812 Q220.811 740.062 223.866 735.479 Q226.945 730.872 232.755 730.872 Z" fill="#000000" fill-rule="nonzero" fill-opacity="1" /><path clip-path="url(#clip600)" d="M252.963 731.497 L271.32 731.497 L271.32 735.433 L257.246 735.433 L257.246 743.905 Q258.264 743.558 259.283 743.396 Q260.301 743.21 261.32 743.21 Q267.107 743.21 270.486 746.382 Q273.866 749.553 273.866 754.97 Q273.866 760.548 270.394 763.65 Q266.921 766.729 260.602 766.729 Q258.426 766.729 256.158 766.358 Q253.912 765.988 251.505 765.247 L251.505 760.548 Q253.588 761.682 255.81 762.238 Q258.033 762.794 260.509 762.794 Q264.514 762.794 266.852 760.687 Q269.19 758.581 269.19 754.97 Q269.19 751.358 266.852 749.252 Q264.514 747.146 260.509 747.146 Q258.634 747.146 256.759 747.562 Q254.908 747.979 252.963 748.858 L252.963 731.497 Z" fill="#000000" fill-rule="nonzero" fill-opacity="1" /><path clip-path="url(#clip600)" d="M126.205 435.605 Q122.593 435.605 120.765 439.169 Q118.959 442.711 118.959 449.841 Q118.959 456.947 120.765 460.512 Q122.593 464.054 126.205 464.054 Q129.839 464.054 131.644 460.512 Q133.473 456.947 133.473 449.841 Q133.473 442.711 131.644 439.169 Q129.839 435.605 126.205 435.605 M126.205 431.901 Q132.015 431.901 135.07 436.507 Q138.149 441.091 138.149 449.841 Q138.149 458.567 135.07 463.174 Q132.015 467.757 126.205 467.757 Q120.394 467.757 117.316 463.174 Q114.26 458.567 114.26 449.841 Q114.26 441.091 117.316 436.507 Q120.394 431.901 126.205 431.901 Z" fill="#000000" fill-rule="nonzero" fill-opacity="1" /><path clip-path="url(#clip600)" d="M146.366 461.206 L151.251 461.206 L151.251 467.086 L146.366 467.086 L146.366 461.206 Z" fill="#000000" fill-rule="nonzero" fill-opacity="1" /><path clip-path="url(#clip600)" d="M171.436 435.605 Q167.825 435.605 165.996 439.169 Q164.19 442.711 164.19 449.841 Q164.19 456.947 165.996 460.512 Q167.825 464.054 171.436 464.054 Q175.07 464.054 176.876 460.512 Q178.704 456.947 178.704 449.841 Q178.704 442.711 176.876 439.169 Q175.07 435.605 171.436 435.605 M171.436 431.901 Q177.246 431.901 180.301 436.507 Q183.38 441.091 183.38 449.841 Q183.38 458.567 180.301 463.174 Q177.246 467.757 171.436 467.757 Q165.626 467.757 162.547 463.174 Q159.491 458.567 159.491 449.841 Q159.491 441.091 162.547 436.507 Q165.626 431.901 171.436 431.901 Z" fill="#000000" fill-rule="nonzero" fill-opacity="1" /><path clip-path="url(#clip600)" d="M192.408 463.151 L200.047 463.151 L200.047 436.785 L191.737 438.452 L191.737 434.193 L200 432.526 L204.676 432.526 L204.676 463.151 L212.315 463.151 L212.315 467.086 L192.408 467.086 L192.408 463.151 Z" fill="#000000" fill-rule="nonzero" fill-opacity="1" /><path clip-path="url(#clip600)" d="M222.57 463.151 L230.209 463.151 L230.209 436.785 L221.898 438.452 L221.898 434.193 L230.162 432.526 L234.838 432.526 L234.838 463.151 L242.477 463.151 L242.477 467.086 L222.57 467.086 L222.57 463.151 Z" fill="#000000" fill-rule="nonzero" fill-opacity="1" /><path clip-path="url(#clip600)" d="M261.921 435.605 Q258.31 435.605 256.482 439.169 Q254.676 442.711 254.676 449.841 Q254.676 456.947 256.482 460.512 Q258.31 464.054 261.921 464.054 Q265.556 464.054 267.361 460.512 Q269.19 456.947 269.19 449.841 Q269.19 442.711 267.361 439.169 Q265.556 435.605 261.921 435.605 M261.921 431.901 Q267.732 431.901 270.787 436.507 Q273.866 441.091 273.866 449.841 Q273.866 458.567 270.787 463.174 Q267.732 467.757 261.921 467.757 Q256.111 467.757 253.033 463.174 Q249.977 458.567 249.977 449.841 Q249.977 441.091 253.033 436.507 Q256.111 431.901 261.921 431.901 Z" fill="#000000" fill-rule="nonzero" fill-opacity="1" /><path clip-path="url(#clip600)" d="M127.2 136.633 Q123.589 136.633 121.76 140.198 Q119.955 143.74 119.955 150.869 Q119.955 157.976 121.76 161.54 Q123.589 165.082 127.2 165.082 Q130.834 165.082 132.64 161.54 Q134.468 157.976 134.468 150.869 Q134.468 143.74 132.64 140.198 Q130.834 136.633 127.2 136.633 M127.2 132.929 Q133.01 132.929 136.066 137.536 Q139.144 142.119 139.144 150.869 Q139.144 159.596 136.066 164.202 Q133.01 168.786 127.2 168.786 Q121.39 168.786 118.311 164.202 Q115.256 159.596 115.256 150.869 Q115.256 142.119 118.311 137.536 Q121.39 132.929 127.2 132.929 Z" fill="#000000" fill-rule="nonzero" fill-opacity="1" /><path clip-path="url(#clip600)" d="M147.362 162.235 L152.246 162.235 L152.246 168.114 L147.362 168.114 L147.362 162.235 Z" fill="#000000" fill-rule="nonzero" fill-opacity="1" /><path clip-path="url(#clip600)" d="M172.431 136.633 Q168.82 136.633 166.991 140.198 Q165.186 143.74 165.186 150.869 Q165.186 157.976 166.991 161.54 Q168.82 165.082 172.431 165.082 Q176.065 165.082 177.871 161.54 Q179.7 157.976 179.7 150.869 Q179.7 143.74 177.871 140.198 Q176.065 136.633 172.431 136.633 M172.431 132.929 Q178.241 132.929 181.297 137.536 Q184.376 142.119 184.376 150.869 Q184.376 159.596 181.297 164.202 Q178.241 168.786 172.431 168.786 Q166.621 168.786 163.542 164.202 Q160.487 159.596 160.487 150.869 Q160.487 142.119 163.542 137.536 Q166.621 132.929 172.431 132.929 Z" fill="#000000" fill-rule="nonzero" fill-opacity="1" /><path clip-path="url(#clip600)" d="M193.403 164.179 L201.042 164.179 L201.042 137.814 L192.732 139.48 L192.732 135.221 L200.996 133.554 L205.672 133.554 L205.672 164.179 L213.311 164.179 L213.311 168.114 L193.403 168.114 L193.403 164.179 Z" fill="#000000" fill-rule="nonzero" fill-opacity="1" /><path clip-path="url(#clip600)" d="M223.565 164.179 L231.204 164.179 L231.204 137.814 L222.894 139.48 L222.894 135.221 L231.158 133.554 L235.834 133.554 L235.834 164.179 L243.472 164.179 L243.472 168.114 L223.565 168.114 L223.565 164.179 Z" fill="#000000" fill-rule="nonzero" fill-opacity="1" /><path clip-path="url(#clip600)" d="M252.963 133.554 L271.32 133.554 L271.32 137.49 L257.246 137.49 L257.246 145.962 Q258.264 145.615 259.283 145.453 Q260.301 145.267 261.32 145.267 Q267.107 145.267 270.486 148.439 Q273.866 151.61 273.866 157.027 Q273.866 162.605 270.394 165.707 Q266.921 168.786 260.602 168.786 Q258.426 168.786 256.158 168.415 Q253.912 168.045 251.505 167.304 L251.505 162.605 Q253.588 163.739 255.81 164.295 Q258.033 164.851 260.509 164.851 Q264.514 164.851 266.852 162.744 Q269.19 160.638 269.19 157.027 Q269.19 153.415 266.852 151.309 Q264.514 149.203 260.509 149.203 Q258.634 149.203 256.759 149.619 Q254.908 150.036 252.963 150.915 L252.963 133.554 Z" fill="#000000" fill-rule="nonzero" fill-opacity="1" /><path clip-path="url(#clip600)" d="M33.7671 788.508 L14.479 788.508 L14.479 782.652 L64.0042 782.652 L64.0042 788.508 L58.657 788.508 Q61.8398 790.354 63.3994 793.187 Q64.9272 795.988 64.9272 799.935 Q64.9272 806.396 59.771 810.47 Q54.6147 814.512 46.212 814.512 Q37.8093 814.512 32.6531 810.47 Q27.4968 806.396 27.4968 799.935 Q27.4968 795.988 29.0564 793.187 Q30.5842 790.354 33.7671 788.508 M46.212 808.465 Q52.6732 808.465 56.3653 805.823 Q60.0256 803.149 60.0256 798.502 Q60.0256 793.855 56.3653 791.182 Q52.6732 788.508 46.212 788.508 Q39.7508 788.508 36.0905 791.182 Q32.3984 793.855 32.3984 798.502 Q32.3984 803.149 36.0905 805.823 Q39.7508 808.465 46.212 808.465 Z" fill="#000000" fill-rule="nonzero" fill-opacity="1" /><path clip-path="url(#clip600)" d="M74.8259 743.503 L79.3773 743.503 L79.3773 777.368 L74.8259 777.368 L74.8259 743.503 Z" fill="#000000" fill-rule="nonzero" fill-opacity="1" /><path clip-path="url(#clip600)" d="M28.3562 737.996 L28.3562 732.14 L64.0042 732.14 L64.0042 737.996 L28.3562 737.996 M14.479 737.996 L14.479 732.14 L21.895 732.14 L21.895 737.996 L14.479 737.996 Z" fill="#000000" fill-rule="nonzero" fill-opacity="1" /><path clip-path="url(#clip600)" d="M794.465 18.8205 L794.465 65.8515 L804.349 65.8515 Q816.866 65.8515 822.659 60.1802 Q828.492 54.509 828.492 42.2752 Q828.492 30.1225 822.659 24.4918 Q816.866 18.8205 804.349 18.8205 L794.465 18.8205 M786.282 12.096 L803.093 12.096 Q820.674 12.096 828.897 19.4281 Q837.121 26.7198 837.121 42.2752 Q837.121 57.9117 828.857 65.2439 Q820.593 72.576 803.093 72.576 L786.282 72.576 L786.282 12.096 Z" fill="#000000" fill-rule="nonzero" fill-opacity="1" /><path clip-path="url(#clip600)" d="M849.841 27.2059 L857.294 27.2059 L857.294 72.576 L849.841 72.576 L849.841 27.2059 M849.841 9.54393 L857.294 9.54393 L857.294 18.9825 L849.841 18.9825 L849.841 9.54393 Z" fill="#000000" fill-rule="nonzero" fill-opacity="1" /><path clip-path="url(#clip600)" d="M901.814 28.5427 L901.814 35.5912 Q898.654 33.9709 895.251 33.1607 Q891.849 32.3505 888.203 32.3505 Q882.653 32.3505 879.858 34.0519 Q877.103 35.7533 877.103 39.156 Q877.103 41.7486 879.088 43.2475 Q881.073 44.7058 887.068 46.0426 L889.621 46.6097 Q897.56 48.3111 900.882 51.4303 Q904.244 54.509 904.244 60.0587 Q904.244 66.3781 899.221 70.0644 Q894.239 73.7508 885.489 73.7508 Q881.843 73.7508 877.873 73.0216 Q873.944 72.3329 869.569 70.9151 L869.569 63.2184 Q873.7 65.3654 877.711 66.4591 Q881.721 67.5124 885.651 67.5124 Q890.917 67.5124 893.752 65.73 Q896.588 63.9071 896.588 60.6258 Q896.588 57.5877 894.522 55.9673 Q892.497 54.3469 885.57 52.8481 L882.977 52.2405 Q876.05 50.7821 872.971 47.7845 Q869.893 44.7463 869.893 39.4801 Q869.893 33.0797 874.43 29.5959 Q878.967 26.1121 887.311 26.1121 Q891.443 26.1121 895.089 26.7198 Q898.735 27.3274 901.814 28.5427 Z" fill="#000000" fill-rule="nonzero" fill-opacity="1" /><path clip-path="url(#clip600)" d="M923.486 14.324 L923.486 27.2059 L938.839 27.2059 L938.839 32.9987 L923.486 32.9987 L923.486 57.6282 Q923.486 63.1779 924.985 64.7578 Q926.524 66.3376 931.183 66.3376 L938.839 66.3376 L938.839 72.576 L931.183 72.576 Q922.554 72.576 919.273 69.3758 Q915.992 66.1351 915.992 57.6282 L915.992 32.9987 L910.523 32.9987 L910.523 27.2059 L915.992 27.2059 L915.992 14.324 L923.486 14.324 Z" fill="#000000" fill-rule="nonzero" fill-opacity="1" /><path clip-path="url(#clip600)" d="M969.261 49.7694 Q960.228 49.7694 956.744 51.8354 Q953.26 53.9013 953.26 58.8839 Q953.26 62.8538 955.853 65.2034 Q958.486 67.5124 962.982 67.5124 Q969.18 67.5124 972.907 63.1374 Q976.674 58.7219 976.674 51.4303 L976.674 49.7694 L969.261 49.7694 M984.128 46.6907 L984.128 72.576 L976.674 72.576 L976.674 65.6895 Q974.122 69.8214 970.315 71.8063 Q966.507 73.7508 960.997 73.7508 Q954.03 73.7508 949.898 69.8619 Q945.807 65.9325 945.807 59.3701 Q945.807 51.7138 950.911 47.825 Q956.055 43.9361 966.223 43.9361 L976.674 43.9361 L976.674 43.2069 Q976.674 38.0623 973.272 35.2672 Q969.909 32.4315 963.793 32.4315 Q959.904 32.4315 956.217 33.3632 Q952.531 34.295 949.128 36.1584 L949.128 29.2718 Q953.22 27.692 957.068 26.9223 Q960.916 26.1121 964.562 26.1121 Q974.406 26.1121 979.267 31.2163 Q984.128 36.3204 984.128 46.6907 Z" fill="#000000" fill-rule="nonzero" fill-opacity="1" /><path clip-path="url(#clip600)" d="M1037.19 45.1919 L1037.19 72.576 L1029.74 72.576 L1029.74 45.4349 Q1029.74 38.994 1027.23 35.7938 Q1024.72 32.5936 1019.7 32.5936 Q1013.66 32.5936 1010.18 36.4419 Q1006.69 40.2903 1006.69 46.9338 L1006.69 72.576 L999.197 72.576 L999.197 27.2059 L1006.69 27.2059 L1006.69 34.2544 Q1009.37 30.163 1012.97 28.1376 Q1016.62 26.1121 1021.36 26.1121 Q1029.17 26.1121 1033.18 30.9732 Q1037.19 35.7938 1037.19 45.1919 Z" fill="#000000" fill-rule="nonzero" fill-opacity="1" /><path clip-path="url(#clip600)" d="M1084.71 28.9478 L1084.71 35.9153 Q1081.55 34.1734 1078.35 33.3227 Q1075.19 32.4315 1071.95 32.4315 Q1064.7 32.4315 1060.69 37.0496 Q1056.68 41.6271 1056.68 49.9314 Q1056.68 58.2358 1060.69 62.8538 Q1064.7 67.4314 1071.95 67.4314 Q1075.19 67.4314 1078.35 66.5807 Q1081.55 65.6895 1084.71 63.9476 L1084.71 70.8341 Q1081.59 72.2924 1078.23 73.0216 Q1074.91 73.7508 1071.14 73.7508 Q1060.89 73.7508 1054.86 67.3098 Q1048.82 60.8689 1048.82 49.9314 Q1048.82 38.832 1054.9 32.472 Q1061.01 26.1121 1071.63 26.1121 Q1075.07 26.1121 1078.35 26.8413 Q1081.63 27.5299 1084.71 28.9478 Z" fill="#000000" fill-rule="nonzero" fill-opacity="1" /><path clip-path="url(#clip600)" d="M1136.48 48.0275 L1136.48 51.6733 L1102.21 51.6733 Q1102.7 59.3701 1106.83 63.421 Q1111 67.4314 1118.42 67.4314 Q1122.71 67.4314 1126.72 66.3781 Q1130.77 65.3249 1134.74 63.2184 L1134.74 70.267 Q1130.73 71.9684 1126.52 72.8596 Q1122.3 73.7508 1117.97 73.7508 Q1107.11 73.7508 1100.75 67.4314 Q1094.43 61.1119 1094.43 50.3365 Q1094.43 39.1965 1100.43 32.6746 Q1106.47 26.1121 1116.67 26.1121 Q1125.83 26.1121 1131.14 32.0264 Q1136.48 37.9003 1136.48 48.0275 M1129.03 45.84 Q1128.95 39.7232 1125.59 36.0774 Q1122.26 32.4315 1116.75 32.4315 Q1110.52 32.4315 1106.75 35.9558 Q1103.02 39.4801 1102.46 45.8805 L1129.03 45.84 Z" fill="#000000" fill-rule="nonzero" fill-opacity="1" /><path clip-path="url(#clip600)" d="M1182.46 14.324 L1182.46 27.2059 L1197.81 27.2059 L1197.81 32.9987 L1182.46 32.9987 L1182.46 57.6282 Q1182.46 63.1779 1183.96 64.7578 Q1185.5 66.3376 1190.16 66.3376 L1197.81 66.3376 L1197.81 72.576 L1190.16 72.576 Q1181.53 72.576 1178.25 69.3758 Q1174.97 66.1351 1174.97 57.6282 L1174.97 32.9987 L1169.5 32.9987 L1169.5 27.2059 L1174.97 27.2059 L1174.97 14.324 L1182.46 14.324 Z" fill="#000000" fill-rule="nonzero" fill-opacity="1" /><path clip-path="url(#clip600)" d="M1233.91 34.1734 Q1232.65 33.4443 1231.15 33.1202 Q1229.69 32.7556 1227.91 32.7556 Q1221.59 32.7556 1218.19 36.8875 Q1214.83 40.9789 1214.83 48.6757 L1214.83 72.576 L1207.33 72.576 L1207.33 27.2059 L1214.83 27.2059 L1214.83 34.2544 Q1217.18 30.1225 1220.94 28.1376 Q1224.71 26.1121 1230.1 26.1121 Q1230.87 26.1121 1231.8 26.2337 Q1232.73 26.3147 1233.87 26.5172 L1233.91 34.1734 Z" fill="#000000" fill-rule="nonzero" fill-opacity="1" /><path clip-path="url(#clip600)" d="M1262.34 49.7694 Q1253.31 49.7694 1249.83 51.8354 Q1246.34 53.9013 1246.34 58.8839 Q1246.34 62.8538 1248.94 65.2034 Q1251.57 67.5124 1256.07 67.5124 Q1262.26 67.5124 1265.99 63.1374 Q1269.76 58.7219 1269.76 51.4303 L1269.76 49.7694 L1262.34 49.7694 M1277.21 46.6907 L1277.21 72.576 L1269.76 72.576 L1269.76 65.6895 Q1267.21 69.8214 1263.4 71.8063 Q1259.59 73.7508 1254.08 73.7508 Q1247.11 73.7508 1242.98 69.8619 Q1238.89 65.9325 1238.89 59.3701 Q1238.89 51.7138 1243.99 47.825 Q1249.14 43.9361 1259.31 43.9361 L1269.76 43.9361 L1269.76 43.2069 Q1269.76 38.0623 1266.35 35.2672 Q1262.99 32.4315 1256.88 32.4315 Q1252.99 32.4315 1249.3 33.3632 Q1245.61 34.295 1242.21 36.1584 L1242.21 29.2718 Q1246.3 27.692 1250.15 26.9223 Q1254 26.1121 1257.65 26.1121 Q1267.49 26.1121 1272.35 31.2163 Q1277.21 36.3204 1277.21 46.6907 Z" fill="#000000" fill-rule="nonzero" fill-opacity="1" /><path clip-path="url(#clip600)" d="M1325.21 28.9478 L1325.21 35.9153 Q1322.05 34.1734 1318.85 33.3227 Q1315.69 32.4315 1312.45 32.4315 Q1305.2 32.4315 1301.19 37.0496 Q1297.18 41.6271 1297.18 49.9314 Q1297.18 58.2358 1301.19 62.8538 Q1305.2 67.4314 1312.45 67.4314 Q1315.69 67.4314 1318.85 66.5807 Q1322.05 65.6895 1325.21 63.9476 L1325.21 70.8341 Q1322.1 72.2924 1318.73 73.0216 Q1315.41 73.7508 1311.64 73.7508 Q1301.39 73.7508 1295.36 67.3098 Q1289.32 60.8689 1289.32 49.9314 Q1289.32 38.832 1295.4 32.472 Q1301.52 26.1121 1312.13 26.1121 Q1315.57 26.1121 1318.85 26.8413 Q1322.14 27.5299 1325.21 28.9478 Z" fill="#000000" fill-rule="nonzero" fill-opacity="1" /><path clip-path="url(#clip600)" d="M1376.98 48.0275 L1376.98 51.6733 L1342.71 51.6733 Q1343.2 59.3701 1347.33 63.421 Q1351.5 67.4314 1358.92 67.4314 Q1363.21 67.4314 1367.22 66.3781 Q1371.27 65.3249 1375.24 63.2184 L1375.24 70.267 Q1371.23 71.9684 1367.02 72.8596 Q1362.81 73.7508 1358.47 73.7508 Q1347.62 73.7508 1341.26 67.4314 Q1334.94 61.1119 1334.94 50.3365 Q1334.94 39.1965 1340.93 32.6746 Q1346.97 26.1121 1357.18 26.1121 Q1366.33 26.1121 1371.64 32.0264 Q1376.98 37.9003 1376.98 48.0275 M1369.53 45.84 Q1369.45 39.7232 1366.09 36.0774 Q1362.77 32.4315 1357.26 32.4315 Q1351.02 32.4315 1347.25 35.9558 Q1343.52 39.4801 1342.96 45.8805 L1369.53 45.84 Z" fill="#000000" fill-rule="nonzero" fill-opacity="1" /><path clip-path="url(#clip600)" d="M1448.16 49.9314 Q1448.16 41.7081 1444.76 37.0496 Q1441.39 32.3505 1435.48 32.3505 Q1429.57 32.3505 1426.16 37.0496 Q1422.8 41.7081 1422.8 49.9314 Q1422.8 58.1548 1426.16 62.8538 Q1429.57 67.5124 1435.48 67.5124 Q1441.39 67.5124 1444.76 62.8538 Q1448.16 58.1548 1448.16 49.9314 M1422.8 34.0924 Q1425.15 30.0415 1428.71 28.0971 Q1432.32 26.1121 1437.3 26.1121 Q1445.57 26.1121 1450.71 32.6746 Q1455.9 39.2371 1455.9 49.9314 Q1455.9 60.6258 1450.71 67.1883 Q1445.57 73.7508 1437.3 73.7508 Q1432.32 73.7508 1428.71 71.8063 Q1425.15 69.8214 1422.8 65.7705 L1422.8 72.576 L1415.31 72.576 L1415.31 9.54393 L1422.8 9.54393 L1422.8 34.0924 Z" fill="#000000" fill-rule="nonzero" fill-opacity="1" /><path clip-path="url(#clip600)" d="M1507.06 48.0275 L1507.06 51.6733 L1472.79 51.6733 Q1473.27 59.3701 1477.41 63.421 Q1481.58 67.4314 1488.99 67.4314 Q1493.29 67.4314 1497.3 66.3781 Q1501.35 65.3249 1505.32 63.2184 L1505.32 70.267 Q1501.31 71.9684 1497.09 72.8596 Q1492.88 73.7508 1488.55 73.7508 Q1477.69 73.7508 1471.33 67.4314 Q1465.01 61.1119 1465.01 50.3365 Q1465.01 39.1965 1471.01 32.6746 Q1477.04 26.1121 1487.25 26.1121 Q1496.41 26.1121 1501.71 32.0264 Q1507.06 37.9003 1507.06 48.0275 M1499.61 45.84 Q1499.52 39.7232 1496.16 36.0774 Q1492.84 32.4315 1487.33 32.4315 Q1481.09 32.4315 1477.33 35.9558 Q1473.6 39.4801 1473.03 45.8805 L1499.61 45.84 Z" fill="#000000" fill-rule="nonzero" fill-opacity="1" /><path clip-path="url(#clip600)" d="M1548.22 28.5427 L1548.22 35.5912 Q1545.06 33.9709 1541.65 33.1607 Q1538.25 32.3505 1534.61 32.3505 Q1529.06 32.3505 1526.26 34.0519 Q1523.51 35.7533 1523.51 39.156 Q1523.51 41.7486 1525.49 43.2475 Q1527.48 44.7058 1533.47 46.0426 L1536.02 46.6097 Q1543.96 48.3111 1547.28 51.4303 Q1550.65 54.509 1550.65 60.0587 Q1550.65 66.3781 1545.62 70.0644 Q1540.64 73.7508 1531.89 73.7508 Q1528.25 73.7508 1524.28 73.0216 Q1520.35 72.3329 1515.97 70.9151 L1515.97 63.2184 Q1520.1 65.3654 1524.11 66.4591 Q1528.12 67.5124 1532.05 67.5124 Q1537.32 67.5124 1540.16 65.73 Q1542.99 63.9071 1542.99 60.6258 Q1542.99 57.5877 1540.92 55.9673 Q1538.9 54.3469 1531.97 52.8481 L1529.38 52.2405 Q1522.45 50.7821 1519.37 47.7845 Q1516.3 44.7463 1516.3 39.4801 Q1516.3 33.0797 1520.83 29.5959 Q1525.37 26.1121 1533.71 26.1121 Q1537.85 26.1121 1541.49 26.7198 Q1545.14 27.3274 1548.22 28.5427 Z" fill="#000000" fill-rule="nonzero" fill-opacity="1" /><path clip-path="url(#clip600)" d="M1569.89 14.324 L1569.89 27.2059 L1585.24 27.2059 L1585.24 32.9987 L1569.89 32.9987 L1569.89 57.6282 Q1569.89 63.1779 1571.39 64.7578 Q1572.93 66.3376 1577.59 66.3376 L1585.24 66.3376 L1585.24 72.576 L1577.59 72.576 Q1568.96 72.576 1565.68 69.3758 Q1562.39 66.1351 1562.39 57.6282 L1562.39 32.9987 L1556.93 32.9987 L1556.93 27.2059 L1562.39 27.2059 L1562.39 14.324 L1569.89 14.324 Z" fill="#000000" fill-rule="nonzero" fill-opacity="1" /><path clip-path="url(#clip600)" d="M1616.07 27.2059 L1623.97 27.2059 L1638.15 65.2844 L1652.32 27.2059 L1660.22 27.2059 L1643.21 72.576 L1633.08 72.576 L1616.07 27.2059 Z" fill="#000000" fill-rule="nonzero" fill-opacity="1" /><path clip-path="url(#clip600)" d="M1709.32 48.0275 L1709.32 51.6733 L1675.05 51.6733 Q1675.54 59.3701 1679.67 63.421 Q1683.84 67.4314 1691.25 67.4314 Q1695.55 67.4314 1699.56 66.3781 Q1703.61 65.3249 1707.58 63.2184 L1707.58 70.267 Q1703.57 71.9684 1699.36 72.8596 Q1695.14 73.7508 1690.81 73.7508 Q1679.95 73.7508 1673.59 67.4314 Q1667.27 61.1119 1667.27 50.3365 Q1667.27 39.1965 1673.27 32.6746 Q1679.3 26.1121 1689.51 26.1121 Q1698.67 26.1121 1703.97 32.0264 Q1709.32 37.9003 1709.32 48.0275 M1701.87 45.84 Q1701.79 39.7232 1698.42 36.0774 Q1695.1 32.4315 1689.59 32.4315 Q1683.35 32.4315 1679.59 35.9558 Q1675.86 39.4801 1675.29 45.8805 L1701.87 45.84 Z" fill="#000000" fill-rule="nonzero" fill-opacity="1" /><path clip-path="url(#clip600)" d="M1747.85 34.1734 Q1746.59 33.4443 1745.09 33.1202 Q1743.63 32.7556 1741.85 32.7556 Q1735.53 32.7556 1732.13 36.8875 Q1728.77 40.9789 1728.77 48.6757 L1728.77 72.576 L1721.27 72.576 L1721.27 27.2059 L1728.77 27.2059 L1728.77 34.2544 Q1731.11 30.1225 1734.88 28.1376 Q1738.65 26.1121 1744.04 26.1121 Q1744.81 26.1121 1745.74 26.2337 Q1746.67 26.3147 1747.8 26.5172 L1747.85 34.1734 Z" fill="#000000" fill-rule="nonzero" fill-opacity="1" /><path clip-path="url(#clip600)" d="M1763.04 14.324 L1763.04 27.2059 L1778.39 27.2059 L1778.39 32.9987 L1763.04 32.9987 L1763.04 57.6282 Q1763.04 63.1779 1764.53 64.7578 Q1766.07 66.3376 1770.73 66.3376 L1778.39 66.3376 L1778.39 72.576 L1770.73 72.576 Q1762.1 72.576 1758.82 69.3758 Q1755.54 66.1351 1755.54 57.6282 L1755.54 32.9987 L1750.07 32.9987 L1750.07 27.2059 L1755.54 27.2059 L1755.54 14.324 L1763.04 14.324 Z" fill="#000000" fill-rule="nonzero" fill-opacity="1" /><path clip-path="url(#clip600)" d="M1827 48.0275 L1827 51.6733 L1792.73 51.6733 Q1793.22 59.3701 1797.35 63.421 Q1801.52 67.4314 1808.93 67.4314 Q1813.23 67.4314 1817.24 66.3781 Q1821.29 65.3249 1825.26 63.2184 L1825.26 70.267 Q1821.25 71.9684 1817.03 72.8596 Q1812.82 73.7508 1808.49 73.7508 Q1797.63 73.7508 1791.27 67.4314 Q1784.95 61.1119 1784.95 50.3365 Q1784.95 39.1965 1790.95 32.6746 Q1796.98 26.1121 1807.19 26.1121 Q1816.35 26.1121 1821.65 32.0264 Q1827 37.9003 1827 48.0275 M1819.55 45.84 Q1819.47 39.7232 1816.1 36.0774 Q1812.78 32.4315 1807.27 32.4315 Q1801.03 32.4315 1797.27 35.9558 Q1793.54 39.4801 1792.97 45.8805 L1819.55 45.84 Z" fill="#000000" fill-rule="nonzero" fill-opacity="1" /><path clip-path="url(#clip600)" d="M1875.49 27.2059 L1859.08 49.2833 L1876.34 72.576 L1867.55 72.576 L1854.34 54.752 L1841.14 72.576 L1832.35 72.576 L1849.97 48.8377 L1833.85 27.2059 L1842.64 27.2059 L1854.67 43.369 L1866.7 27.2059 L1875.49 27.2059 Z" fill="#000000" fill-rule="nonzero" fill-opacity="1" /><polyline clip-path="url(#clip602)" style="stroke:#009af9; stroke-linecap:round; stroke-linejoin:round; stroke-width:4; stroke-opacity:1; fill:none" points="367.683,729.065 406.229,746.302 444.774,747.722 483.319,744.362 521.864,719.283 560.409,636.258 598.954,614.432 637.499,532.551 676.044,463.613 714.589,450.375 753.134,201.759 791.679,160.256 830.225,177.485 868.77,178.212 907.315,176.481 945.86,176.161 984.405,175.823 1022.95,176.354 1061.5,177.79 1100.04,179.266 1138.59,180.026 1177.13,181.191 1215.68,183.204 1254.22,184.802 1292.77,184.98 1331.31,184.961 1369.86,184.92 1408.4,184.997 1446.95,186.041 1485.49,187.661 1524.04,188.456 1562.58,188.03 1601.13,187.974 1639.67,187.933 1678.22,187.874 1716.76,190.183 1755.31,201.339 1793.85,207.564 1832.4,208.597 1870.94,208.843 1909.49,209.088 1948.03,215.426 1986.58,223.044 2025.12,222.971 2063.67,222.111 2102.21,221.799 2140.76,221.507 2179.3,231.286 2217.85,251.56 2256.39,254.725 2294.94,254.725 "/>
<polyline clip-path="url(#clip602)" style="stroke:#e26f46; stroke-linecap:round; stroke-linejoin:round; stroke-width:4; stroke-opacity:1; fill:none" points="367.683,1170.33 406.229,1172.56 444.774,1201.92 483.319,1210.41 521.864,1224.05 560.409,1258.24 598.954,1272.6 637.499,1298.78 676.044,1316.88 714.589,1317.12 753.134,1363.71 791.679,1377.93 830.225,1372.79 868.77,1373.27 907.315,1374.71 945.86,1375.11 984.405,1375.39 1022.95,1376.04 1061.5,1374.93 1100.04,1373.88 1138.59,1373.39 1177.13,1372.79 1215.68,1372.13 1254.22,1372.6 1292.77,1373.79 1331.31,1374.25 1369.86,1374.15 1408.4,1373.56 1446.95,1373.59 1485.49,1373.73 1524.04,1374.1 1562.58,1374.36 1601.13,1374.47 1639.67,1374.51 1678.22,1374.55 1716.76,1374.41 1755.31,1368.47 1793.85,1365.64 1832.4,1365.19 1870.94,1365.1 1909.49,1365.02 1948.03,1364.1 1986.58,1368.37 2025.12,1371.25 2063.67,1371.65 2102.21,1371.76 2140.76,1371.88 2179.3,1367.25 2217.85,1355.06 2256.39,1353.4 2294.94,1353.4 "/>
<polyline clip-path="url(#clip602)" style="stroke:#3da44d; stroke-linecap:round; stroke-linejoin:round; stroke-width:4; stroke-opacity:1; fill:none" points="367.683,873.564 406.229,881.543 444.774,862.911 483.319,857.132 521.864,853.532 560.409,856.587 598.954,840.435 637.499,840.283 676.044,839.593 714.589,846.893 753.134,867.217 791.679,857.429 830.225,857.544 868.77,856.132 907.315,854.447 945.86,853.931 984.405,853.671 1022.95,853.435 1061.5,855.656 1100.04,856.946 1138.59,857.372 1177.13,857.691 1215.68,857.326 1254.22,855.065 1292.77,853.26 1331.31,853.017 1369.86,854.924 1408.4,855.2 1446.95,853.827 1485.49,852.276 1524.04,851.255 1562.58,851.284 1601.13,851.219 1639.67,851.212 1678.22,851.219 1716.76,852.211 1755.31,859.265 1793.85,860.363 1832.4,860.217 1870.94,860.083 1909.49,859.963 1948.03,856.58 1986.58,844.859 2025.12,842.129 2063.67,842.534 2102.21,842.693 2140.76,842.916 2179.3,853.046 2217.85,863.889 2256.39,863.685 2294.94,863.685 "/>
<polyline clip-path="url(#clip602)" style="stroke:#c271d2; stroke-linecap:round; stroke-linejoin:round; stroke-width:4; stroke-opacity:1; fill:none" points="367.683,938.92 406.229,955.407 444.774,928.141 483.319,916.432 521.864,903.502 560.409,906.272 598.954,920.537 637.499,916.118 676.044,912.994 714.589,905.337 753.134,896.87 791.679,901.788 830.225,906.499 868.77,907.599 907.315,907.688 945.86,907.621 984.405,907.476 1022.95,905.107 1061.5,902.99 1100.04,902.812 1138.59,903.028 1177.13,903.545 1215.68,905.109 1254.22,907.134 1292.77,906.722 1331.31,905.624 1369.86,901.915 1408.4,903.122 1446.95,905.074 1485.49,906.719 1524.04,907.188 1562.58,906.555 1601.13,906.359 1639.67,906.281 1678.22,906.174 1716.76,902.618 1755.31,899.93 1793.85,902.466 1832.4,903.578 1870.94,903.985 1909.49,904.355 1948.03,909.512 1986.58,913.86 2025.12,909.98 2063.67,908.42 2102.21,907.933 2140.76,907.242 2179.3,894.102 2217.85,896.687 2256.39,900.498 2294.94,900.498 "/>
<polyline clip-path="url(#clip602)" style="stroke:#ac8d18; stroke-linecap:round; stroke-linejoin:round; stroke-width:4; stroke-opacity:1; fill:none" points="367.683,814.089 406.229,740.234 444.774,772.405 483.319,789.31 521.864,810.081 560.409,782.924 598.954,763.361 637.499,752.843 676.044,744.876 714.589,745.758 753.134,718.475 791.679,707.972 830.225,706.665 868.77,705.751 907.315,705.362 945.86,705.496 984.405,705.569 1022.95,707.648 1061.5,708.691 1100.04,708.491 1138.59,708.334 1177.13,708.106 1215.68,707.589 1254.22,707.152 1292.77,707.89 1331.31,708.522 1369.86,710.786 1408.4,710.923 1446.95,710.714 1485.49,710.225 1524.04,709.864 1562.58,710.15 1601.13,710.186 1639.67,710.198 1678.22,710.225 1716.76,712.583 1755.31,712.528 1793.85,711.838 1832.4,711.387 1870.94,711.215 1909.49,711.023 1948.03,711.223 1986.58,712.576 2025.12,714.702 2063.67,715.229 2102.21,715.407 2140.76,715.813 2179.3,720.791 2217.85,718.884 2256.39,716.635 2294.94,716.635 "/>
<polyline clip-path="url(#clip602)" style="stroke:#00a9ad; stroke-linecap:round; stroke-linejoin:round; stroke-width:4; stroke-opacity:1; fill:none" points="367.683,817.048 406.229,812.094 444.774,790.36 483.319,788.384 521.864,778.623 560.409,763.247 598.954,744.569 637.499,726.439 676.044,706.663 714.589,707.947 753.134,653.187 791.679,643.495 830.225,650.454 868.77,652.168 907.315,653.109 945.86,653.368 984.405,653.526 1022.95,655.359 1061.5,655.89 1100.04,656.051 1138.59,656.014 1177.13,655.994 1215.68,656.067 1254.22,656.997 1292.77,658.514 1331.31,659.321 1369.86,657.31 1408.4,653.512 1446.95,652.663 1485.49,653.358 1524.04,654.291 1562.58,654.521 1601.13,654.78 1639.67,654.852 1678.22,654.915 1716.76,656.889 1755.31,661.047 1793.85,661.06 1832.4,660.75 1870.94,660.712 1909.49,660.703 1948.03,659.107 1986.58,663.153 2025.12,666.439 2063.67,666.982 2102.21,667.055 2140.76,667.053 2179.3,672.174 2217.85,670.731 2256.39,670.305 2294.94,670.305 "/>
<polyline clip-path="url(#clip602)" style="stroke:#ed5d92; stroke-linecap:round; stroke-linejoin:round; stroke-width:4; stroke-opacity:1; fill:none" points="367.683,863.414 406.229,872.073 444.774,848.3 483.319,827.175 521.864,804.535 560.409,799.442 598.954,803.215 637.499,785.894 676.044,768.647 714.589,756.513 753.134,708.145 791.679,709.665 830.225,705.745 868.77,704.908 907.315,704.643 945.86,704.501 984.405,704.469 1022.95,703.559 1061.5,703.661 1100.04,703.776 1138.59,703.776 1177.13,703.707 1215.68,703.408 1254.22,702.705 1292.77,702.285 1331.31,702.452 1369.86,707.126 1408.4,710.026 1446.95,710.236 1485.49,709.91 1524.04,710.117 1562.58,710.188 1601.13,710.162 1639.67,710.17 1678.22,710.197 1716.76,710.973 1755.31,710.787 1793.85,710.298 1832.4,710.324 1870.94,710.21 1909.49,710.146 1948.03,710.855 1986.58,713.862 2025.12,716.489 2063.67,716.753 2102.21,716.905 2140.76,717.117 2179.3,722.893 2217.85,724.645 2256.39,723.996 2294.94,723.996 "/>
<polyline clip-path="url(#clip602)" style="stroke:#c68125; stroke-linecap:round; stroke-linejoin:round; stroke-width:4; stroke-opacity:1; fill:none" points="367.683,933.158 406.229,996.178 444.774,1052.25 483.319,1076.39 521.864,1097.35 560.409,1104.34 598.954,1130.85 637.499,1160.02 676.044,1194.66 714.589,1206.63 753.134,1280.84 791.679,1291.85 830.225,1288.5 868.77,1288.29 907.315,1288.49 945.86,1288.53 984.405,1288.56 1022.95,1288.15 1061.5,1287.72 1100.04,1287.41 1138.59,1287.3 1177.13,1287.14 1215.68,1286.86 1254.22,1286.51 1292.77,1286.09 1331.31,1285.74 1369.86,1283.48 1408.4,1282.87 1446.95,1282.65 1485.49,1282.23 1524.04,1281.68 1562.58,1281.64 1601.13,1281.59 1639.67,1281.58 1678.22,1281.55 1716.76,1279.96 1755.31,1277.06 1793.85,1276.29 1832.4,1276.16 1870.94,1276.19 1909.49,1276.2 1948.03,1274.6 1986.58,1269.34 2025.12,1266.6 2063.67,1266.47 2102.21,1266.41 2140.76,1266.31 2179.3,1259.85 2217.85,1256.99 2256.39,1257.24 2294.94,1257.24 "/>
<polyline clip-path="url(#clip602)" style="stroke:#00a98d; stroke-linecap:round; stroke-linejoin:round; stroke-width:4; stroke-opacity:1; fill:none" points="367.683,1386.4 406.229,1300.03 444.774,1251.19 483.319,1233.58 521.864,1229.61 560.409,1260.42 598.954,1219.92 637.499,1209.82 676.044,1173.52 714.589,1160.63 753.134,1129.97 791.679,1117.91 830.225,1122.44 868.77,1122.86 907.315,1122.65 945.86,1122.63 984.405,1122.6 1022.95,1123.2 1061.5,1123.57 1100.04,1123.85 1138.59,1123.98 1177.13,1124.17 1215.68,1124.57 1254.22,1125.11 1292.77,1125.58 1331.31,1125.83 1369.86,1127.14 1408.4,1127.21 1446.95,1127.44 1485.49,1127.95 1524.04,1128.43 1562.58,1128.45 1601.13,1128.48 1639.67,1128.49 1678.22,1128.51 1716.76,1129.77 1755.31,1132.42 1793.85,1133.17 1832.4,1133.32 1870.94,1133.32 1909.49,1133.34 1948.03,1134.7 1986.58,1138.29 2025.12,1139.93 2063.67,1139.94 2102.21,1139.97 2140.76,1140.02 2179.3,1143.09 2217.85,1142.85 2256.39,1142.52 2294.94,1142.52 "/>
</svg>
