<?xml version="1.0" encoding="utf-8"?>
<svg xmlns="http://www.w3.org/2000/svg" xmlns:xlink="http://www.w3.org/1999/xlink" width="600" height="400" viewBox="0 0 2400 1600">
<defs>
  <clipPath id="clip750">
    <rect x="0" y="0" width="2400" height="1600"/>
  </clipPath>
</defs>
<path clip-path="url(#clip750)" d="M0 1600 L2400 1600 L2400 0 L0 0  Z" fill="#ffffff" fill-rule="evenodd" fill-opacity="1"/>
<defs>
  <clipPath id="clip751">
    <rect x="480" y="0" width="1681" height="1600"/>
  </clipPath>
</defs>
<path clip-path="url(#clip750)" d="M310.352 1423.18 L2352.76 1423.18 L2352.76 123.472 L310.352 123.472  Z" fill="#ffffff" fill-rule="evenodd" fill-opacity="1"/>
<defs>
  <clipPath id="clip752">
    <rect x="310" y="123" width="2043" height="1301"/>
  </clipPath>
</defs>
<polyline clip-path="url(#clip752)" style="stroke:#000000; stroke-linecap:round; stroke-linejoin:round; stroke-width:2; stroke-opacity:0.1; fill:none" points="609.005,1423.18 609.005,123.472 "/>
<polyline clip-path="url(#clip752)" style="stroke:#000000; stroke-linecap:round; stroke-linejoin:round; stroke-width:2; stroke-opacity:0.1; fill:none" points="1090.7,1423.18 1090.7,123.472 "/>
<polyline clip-path="url(#clip752)" style="stroke:#000000; stroke-linecap:round; stroke-linejoin:round; stroke-width:2; stroke-opacity:0.1; fill:none" points="1572.4,1423.18 1572.4,123.472 "/>
<polyline clip-path="url(#clip752)" style="stroke:#000000; stroke-linecap:round; stroke-linejoin:round; stroke-width:2; stroke-opacity:0.1; fill:none" points="2054.1,1423.18 2054.1,123.472 "/>
<polyline clip-path="url(#clip752)" style="stroke:#000000; stroke-linecap:round; stroke-linejoin:round; stroke-width:2; stroke-opacity:0.1; fill:none" points="310.352,1185 2352.76,1185 "/>
<polyline clip-path="url(#clip752)" style="stroke:#000000; stroke-linecap:round; stroke-linejoin:round; stroke-width:2; stroke-opacity:0.1; fill:none" points="310.352,943.052 2352.76,943.052 "/>
<polyline clip-path="url(#clip752)" style="stroke:#000000; stroke-linecap:round; stroke-linejoin:round; stroke-width:2; stroke-opacity:0.1; fill:none" points="310.352,701.105 2352.76,701.105 "/>
<polyline clip-path="url(#clip752)" style="stroke:#000000; stroke-linecap:round; stroke-linejoin:round; stroke-width:2; stroke-opacity:0.1; fill:none" points="310.352,459.158 2352.76,459.158 "/>
<polyline clip-path="url(#clip752)" style="stroke:#000000; stroke-linecap:round; stroke-linejoin:round; stroke-width:2; stroke-opacity:0.1; fill:none" points="310.352,217.211 2352.76,217.211 "/>
<polyline clip-path="url(#clip750)" style="stroke:#000000; stroke-linecap:round; stroke-linejoin:round; stroke-width:4; stroke-opacity:1; fill:none" points="310.352,1423.18 2352.76,1423.18 "/>
<polyline clip-path="url(#clip750)" style="stroke:#000000; stroke-linecap:round; stroke-linejoin:round; stroke-width:4; stroke-opacity:1; fill:none" points="609.005,1423.18 609.005,1404.28 "/>
<polyline clip-path="url(#clip750)" style="stroke:#000000; stroke-linecap:round; stroke-linejoin:round; stroke-width:4; stroke-opacity:1; fill:none" points="1090.7,1423.18 1090.7,1404.28 "/>
<polyline clip-path="url(#clip750)" style="stroke:#000000; stroke-linecap:round; stroke-linejoin:round; stroke-width:4; stroke-opacity:1; fill:none" points="1572.4,1423.18 1572.4,1404.28 "/>
<polyline clip-path="url(#clip750)" style="stroke:#000000; stroke-linecap:round; stroke-linejoin:round; stroke-width:4; stroke-opacity:1; fill:none" points="2054.1,1423.18 2054.1,1404.28 "/>
<path clip-path="url(#clip750)" d="M603.658 1481.64 L619.977 1481.64 L619.977 1485.58 L598.033 1485.58 L598.033 1481.64 Q600.695 1478.89 605.278 1474.26 Q609.885 1469.61 611.065 1468.27 Q613.311 1465.74 614.19 1464.01 Q615.093 1462.25 615.093 1460.56 Q615.093 1457.8 613.149 1456.07 Q611.228 1454.33 608.126 1454.33 Q605.927 1454.33 603.473 1455.09 Q601.042 1455.86 598.265 1457.41 L598.265 1452.69 Q601.089 1451.55 603.542 1450.97 Q605.996 1450.39 608.033 1450.39 Q613.403 1450.39 616.598 1453.08 Q619.792 1455.77 619.792 1460.26 Q619.792 1462.39 618.982 1464.31 Q618.195 1466.2 616.089 1468.8 Q615.51 1469.47 612.408 1472.69 Q609.306 1475.88 603.658 1481.64 Z" fill="#000000" fill-rule="nonzero" fill-opacity="1" /><path clip-path="url(#clip750)" d="M1093.71 1455.09 L1081.91 1473.54 L1093.71 1473.54 L1093.71 1455.09 M1092.49 1451.02 L1098.37 1451.02 L1098.37 1473.54 L1103.3 1473.54 L1103.3 1477.43 L1098.37 1477.43 L1098.37 1485.58 L1093.71 1485.58 L1093.71 1477.43 L1078.11 1477.43 L1078.11 1472.92 L1092.49 1451.02 Z" fill="#000000" fill-rule="nonzero" fill-opacity="1" /><path clip-path="url(#clip750)" d="M1572.81 1466.44 Q1569.66 1466.44 1567.81 1468.59 Q1565.98 1470.74 1565.98 1474.49 Q1565.98 1478.22 1567.81 1480.39 Q1569.66 1482.55 1572.81 1482.55 Q1575.96 1482.55 1577.79 1480.39 Q1579.64 1478.22 1579.64 1474.49 Q1579.64 1470.74 1577.79 1468.59 Q1575.96 1466.44 1572.81 1466.44 M1582.09 1451.78 L1582.09 1456.04 Q1580.33 1455.21 1578.53 1454.77 Q1576.74 1454.33 1574.98 1454.33 Q1570.35 1454.33 1567.9 1457.45 Q1565.47 1460.58 1565.12 1466.9 Q1566.49 1464.89 1568.55 1463.82 Q1570.61 1462.73 1573.09 1462.73 Q1578.29 1462.73 1581.3 1465.9 Q1584.34 1469.05 1584.34 1474.49 Q1584.34 1479.82 1581.19 1483.03 Q1578.04 1486.25 1572.81 1486.25 Q1566.81 1486.25 1563.64 1481.67 Q1560.47 1477.06 1560.47 1468.33 Q1560.47 1460.14 1564.36 1455.28 Q1568.25 1450.39 1574.8 1450.39 Q1576.56 1450.39 1578.34 1450.74 Q1580.15 1451.09 1582.09 1451.78 Z" fill="#000000" fill-rule="nonzero" fill-opacity="1" /><path clip-path="url(#clip750)" d="M2054.1 1469.17 Q2050.77 1469.17 2048.85 1470.95 Q2046.95 1472.73 2046.95 1475.86 Q2046.95 1478.98 2048.85 1480.77 Q2050.77 1482.55 2054.1 1482.55 Q2057.44 1482.55 2059.36 1480.77 Q2061.28 1478.96 2061.28 1475.86 Q2061.28 1472.73 2059.36 1470.95 Q2057.46 1469.17 2054.1 1469.17 M2049.43 1467.18 Q2046.42 1466.44 2044.73 1464.38 Q2043.06 1462.32 2043.06 1459.35 Q2043.06 1455.21 2046 1452.8 Q2048.96 1450.39 2054.1 1450.39 Q2059.26 1450.39 2062.2 1452.8 Q2065.14 1455.21 2065.14 1459.35 Q2065.14 1462.32 2063.45 1464.38 Q2061.79 1466.44 2058.8 1467.18 Q2062.18 1467.96 2064.06 1470.26 Q2065.95 1472.55 2065.95 1475.86 Q2065.95 1480.88 2062.88 1483.57 Q2059.82 1486.25 2054.1 1486.25 Q2048.38 1486.25 2045.31 1483.57 Q2042.25 1480.88 2042.25 1475.86 Q2042.25 1472.55 2044.15 1470.26 Q2046.05 1467.96 2049.43 1467.18 M2047.71 1459.79 Q2047.71 1462.48 2049.38 1463.98 Q2051.07 1465.49 2054.1 1465.49 Q2057.11 1465.49 2058.8 1463.98 Q2060.51 1462.48 2060.51 1459.79 Q2060.51 1457.11 2058.8 1455.6 Q2057.11 1454.1 2054.1 1454.1 Q2051.07 1454.1 2049.38 1455.6 Q2047.71 1457.11 2047.71 1459.79 Z" fill="#000000" fill-rule="nonzero" fill-opacity="1" /><path clip-path="url(#clip750)" d="M1271.27 1525.81 L1271.27 1562.76 L1279.04 1562.76 Q1288.87 1562.76 1293.42 1558.3 Q1298.01 1553.85 1298.01 1544.24 Q1298.01 1534.69 1293.42 1530.26 Q1288.87 1525.81 1279.04 1525.81 L1271.27 1525.81 M1264.84 1520.52 L1278.05 1520.52 Q1291.86 1520.52 1298.32 1526.28 Q1304.79 1532.01 1304.79 1544.24 Q1304.79 1556.52 1298.29 1562.28 Q1291.8 1568.04 1278.05 1568.04 L1264.84 1568.04 L1264.84 1520.52 Z" fill="#000000" fill-rule="nonzero" fill-opacity="1" /><path clip-path="url(#clip750)" d="M1314.78 1532.4 L1320.64 1532.4 L1320.64 1568.04 L1314.78 1568.04 L1314.78 1532.4 M1314.78 1518.52 L1320.64 1518.52 L1320.64 1525.93 L1314.78 1525.93 L1314.78 1518.52 Z" fill="#000000" fill-rule="nonzero" fill-opacity="1" /><path clip-path="url(#clip750)" d="M1355.62 1533.45 L1355.62 1538.98 Q1353.13 1537.71 1350.46 1537.07 Q1347.79 1536.44 1344.92 1536.44 Q1340.56 1536.44 1338.37 1537.77 Q1336.2 1539.11 1336.2 1541.79 Q1336.2 1543.82 1337.76 1545 Q1339.32 1546.15 1344.03 1547.2 L1346.04 1547.64 Q1352.27 1548.98 1354.88 1551.43 Q1357.53 1553.85 1357.53 1558.21 Q1357.53 1563.17 1353.58 1566.07 Q1349.66 1568.97 1342.79 1568.97 Q1339.92 1568.97 1336.81 1568.39 Q1333.72 1567.85 1330.28 1566.74 L1330.28 1560.69 Q1333.53 1562.38 1336.68 1563.24 Q1339.83 1564.07 1342.92 1564.07 Q1347.05 1564.07 1349.28 1562.66 Q1351.51 1561.23 1351.51 1558.65 Q1351.51 1556.27 1349.89 1554.99 Q1348.3 1553.72 1342.85 1552.54 L1340.82 1552.07 Q1335.37 1550.92 1332.95 1548.56 Q1330.54 1546.18 1330.54 1542.04 Q1330.54 1537.01 1334.1 1534.27 Q1337.66 1531.54 1344.22 1531.54 Q1347.47 1531.54 1350.33 1532.01 Q1353.2 1532.49 1355.62 1533.45 Z" fill="#000000" fill-rule="nonzero" fill-opacity="1" /><path clip-path="url(#clip750)" d="M1366.63 1518.52 L1372.52 1518.52 L1372.52 1547.77 L1389.99 1532.4 L1397.47 1532.4 L1378.56 1549.07 L1398.27 1568.04 L1390.63 1568.04 L1372.52 1550.63 L1372.52 1568.04 L1366.63 1568.04 L1366.63 1518.52 Z" fill="#000000" fill-rule="nonzero" fill-opacity="1" /><polyline clip-path="url(#clip750)" style="stroke:#000000; stroke-linecap:round; stroke-linejoin:round; stroke-width:4; stroke-opacity:1; fill:none" points="310.352,1423.18 310.352,123.472 "/>
<polyline clip-path="url(#clip750)" style="stroke:#000000; stroke-linecap:round; stroke-linejoin:round; stroke-width:4; stroke-opacity:1; fill:none" points="310.352,1185 329.25,1185 "/>
<polyline clip-path="url(#clip750)" style="stroke:#000000; stroke-linecap:round; stroke-linejoin:round; stroke-width:4; stroke-opacity:1; fill:none" points="310.352,943.052 329.25,943.052 "/>
<polyline clip-path="url(#clip750)" style="stroke:#000000; stroke-linecap:round; stroke-linejoin:round; stroke-width:4; stroke-opacity:1; fill:none" points="310.352,701.105 329.25,701.105 "/>
<polyline clip-path="url(#clip750)" style="stroke:#000000; stroke-linecap:round; stroke-linejoin:round; stroke-width:4; stroke-opacity:1; fill:none" points="310.352,459.158 329.25,459.158 "/>
<polyline clip-path="url(#clip750)" style="stroke:#000000; stroke-linecap:round; stroke-linejoin:round; stroke-width:4; stroke-opacity:1; fill:none" points="310.352,217.211 329.25,217.211 "/>
<path clip-path="url(#clip750)" d="M126.783 1170.8 Q123.172 1170.8 121.343 1174.36 Q119.538 1177.9 119.538 1185.03 Q119.538 1192.14 121.343 1195.7 Q123.172 1199.25 126.783 1199.25 Q130.417 1199.25 132.223 1195.7 Q134.052 1192.14 134.052 1185.03 Q134.052 1177.9 132.223 1174.36 Q130.417 1170.8 126.783 1170.8 M126.783 1167.09 Q132.593 1167.09 135.649 1171.7 Q138.728 1176.28 138.728 1185.03 Q138.728 1193.76 135.649 1198.37 Q132.593 1202.95 126.783 1202.95 Q120.973 1202.95 117.894 1198.37 Q114.839 1193.76 114.839 1185.03 Q114.839 1176.28 117.894 1171.7 Q120.973 1167.09 126.783 1167.09 Z" fill="#000000" fill-rule="nonzero" fill-opacity="1" /><path clip-path="url(#clip750)" d="M146.945 1196.4 L151.829 1196.4 L151.829 1202.28 L146.945 1202.28 L146.945 1196.4 Z" fill="#000000" fill-rule="nonzero" fill-opacity="1" /><path clip-path="url(#clip750)" d="M172.014 1170.8 Q168.403 1170.8 166.575 1174.36 Q164.769 1177.9 164.769 1185.03 Q164.769 1192.14 166.575 1195.7 Q168.403 1199.25 172.014 1199.25 Q175.649 1199.25 177.454 1195.7 Q179.283 1192.14 179.283 1185.03 Q179.283 1177.9 177.454 1174.36 Q175.649 1170.8 172.014 1170.8 M172.014 1167.09 Q177.825 1167.09 180.88 1171.7 Q183.959 1176.28 183.959 1185.03 Q183.959 1193.76 180.88 1198.37 Q177.825 1202.95 172.014 1202.95 Q166.204 1202.95 163.126 1198.37 Q160.07 1193.76 160.07 1185.03 Q160.07 1176.28 163.126 1171.7 Q166.204 1167.09 172.014 1167.09 Z" fill="#000000" fill-rule="nonzero" fill-opacity="1" /><path clip-path="url(#clip750)" d="M202.176 1170.8 Q198.565 1170.8 196.737 1174.36 Q194.931 1177.9 194.931 1185.03 Q194.931 1192.14 196.737 1195.7 Q198.565 1199.25 202.176 1199.25 Q205.811 1199.25 207.616 1195.7 Q209.445 1192.14 209.445 1185.03 Q209.445 1177.9 207.616 1174.36 Q205.811 1170.8 202.176 1170.8 M202.176 1167.09 Q207.987 1167.09 211.042 1171.7 Q214.121 1176.28 214.121 1185.03 Q214.121 1193.76 211.042 1198.37 Q207.987 1202.95 202.176 1202.95 Q196.366 1202.95 193.288 1198.37 Q190.232 1193.76 190.232 1185.03 Q190.232 1176.28 193.288 1171.7 Q196.366 1167.09 202.176 1167.09 Z" fill="#000000" fill-rule="nonzero" fill-opacity="1" /><path clip-path="url(#clip750)" d="M232.338 1185.87 Q229.005 1185.87 227.084 1187.65 Q225.185 1189.43 225.185 1192.56 Q225.185 1195.68 227.084 1197.46 Q229.005 1199.25 232.338 1199.25 Q235.672 1199.25 237.593 1197.46 Q239.514 1195.66 239.514 1192.56 Q239.514 1189.43 237.593 1187.65 Q235.695 1185.87 232.338 1185.87 M227.662 1183.88 Q224.653 1183.14 222.963 1181.08 Q221.297 1179.02 221.297 1176.05 Q221.297 1171.91 224.236 1169.5 Q227.199 1167.09 232.338 1167.09 Q237.5 1167.09 240.44 1169.5 Q243.38 1171.91 243.38 1176.05 Q243.38 1179.02 241.69 1181.08 Q240.023 1183.14 237.037 1183.88 Q240.417 1184.66 242.292 1186.96 Q244.19 1189.25 244.19 1192.56 Q244.19 1197.58 241.111 1200.27 Q238.056 1202.95 232.338 1202.95 Q226.621 1202.95 223.542 1200.27 Q220.486 1197.58 220.486 1192.56 Q220.486 1189.25 222.385 1186.96 Q224.283 1184.66 227.662 1183.88 M225.949 1176.49 Q225.949 1179.18 227.616 1180.68 Q229.306 1182.19 232.338 1182.19 Q235.347 1182.19 237.037 1180.68 Q238.75 1179.18 238.75 1176.49 Q238.75 1173.81 237.037 1172.3 Q235.347 1170.8 232.338 1170.8 Q229.306 1170.8 227.616 1172.3 Q225.949 1173.81 225.949 1176.49 Z" fill="#000000" fill-rule="nonzero" fill-opacity="1" /><path clip-path="url(#clip750)" d="M262.5 1185.87 Q259.167 1185.87 257.246 1187.65 Q255.347 1189.43 255.347 1192.56 Q255.347 1195.68 257.246 1197.46 Q259.167 1199.25 262.5 1199.25 Q265.833 1199.25 267.755 1197.46 Q269.676 1195.66 269.676 1192.56 Q269.676 1189.43 267.755 1187.65 Q265.857 1185.87 262.5 1185.87 M257.824 1183.88 Q254.815 1183.14 253.125 1181.08 Q251.458 1179.02 251.458 1176.05 Q251.458 1171.91 254.398 1169.5 Q257.361 1167.09 262.5 1167.09 Q267.662 1167.09 270.602 1169.5 Q273.542 1171.91 273.542 1176.05 Q273.542 1179.02 271.852 1181.08 Q270.185 1183.14 267.199 1183.88 Q270.579 1184.66 272.454 1186.96 Q274.352 1189.25 274.352 1192.56 Q274.352 1197.58 271.273 1200.27 Q268.218 1202.95 262.5 1202.95 Q256.783 1202.95 253.704 1200.27 Q250.648 1197.58 250.648 1192.56 Q250.648 1189.25 252.546 1186.96 Q254.445 1184.66 257.824 1183.88 M256.111 1176.49 Q256.111 1179.18 257.778 1180.68 Q259.468 1182.19 262.5 1182.19 Q265.509 1182.19 267.199 1180.68 Q268.912 1179.18 268.912 1176.49 Q268.912 1173.81 267.199 1172.3 Q265.509 1170.8 262.5 1170.8 Q259.468 1170.8 257.778 1172.3 Q256.111 1173.81 256.111 1176.49 Z" fill="#000000" fill-rule="nonzero" fill-opacity="1" /><path clip-path="url(#clip750)" d="M126.691 928.851 Q123.08 928.851 121.251 932.415 Q119.445 935.957 119.445 943.087 Q119.445 950.193 121.251 953.758 Q123.08 957.3 126.691 957.3 Q130.325 957.3 132.13 953.758 Q133.959 950.193 133.959 943.087 Q133.959 935.957 132.13 932.415 Q130.325 928.851 126.691 928.851 M126.691 925.147 Q132.501 925.147 135.556 929.753 Q138.635 934.337 138.635 943.087 Q138.635 951.813 135.556 956.42 Q132.501 961.003 126.691 961.003 Q120.88 961.003 117.802 956.42 Q114.746 951.813 114.746 943.087 Q114.746 934.337 117.802 929.753 Q120.88 925.147 126.691 925.147 Z" fill="#000000" fill-rule="nonzero" fill-opacity="1" /><path clip-path="url(#clip750)" d="M146.853 954.452 L151.737 954.452 L151.737 960.332 L146.853 960.332 L146.853 954.452 Z" fill="#000000" fill-rule="nonzero" fill-opacity="1" /><path clip-path="url(#clip750)" d="M171.922 928.851 Q168.311 928.851 166.482 932.415 Q164.677 935.957 164.677 943.087 Q164.677 950.193 166.482 953.758 Q168.311 957.3 171.922 957.3 Q175.556 957.3 177.362 953.758 Q179.19 950.193 179.19 943.087 Q179.19 935.957 177.362 932.415 Q175.556 928.851 171.922 928.851 M171.922 925.147 Q177.732 925.147 180.788 929.753 Q183.866 934.337 183.866 943.087 Q183.866 951.813 180.788 956.42 Q177.732 961.003 171.922 961.003 Q166.112 961.003 163.033 956.42 Q159.978 951.813 159.978 943.087 Q159.978 934.337 163.033 929.753 Q166.112 925.147 171.922 925.147 Z" fill="#000000" fill-rule="nonzero" fill-opacity="1" /><path clip-path="url(#clip750)" d="M202.084 928.851 Q198.473 928.851 196.644 932.415 Q194.838 935.957 194.838 943.087 Q194.838 950.193 196.644 953.758 Q198.473 957.3 202.084 957.3 Q205.718 957.3 207.524 953.758 Q209.352 950.193 209.352 943.087 Q209.352 935.957 207.524 932.415 Q205.718 928.851 202.084 928.851 M202.084 925.147 Q207.894 925.147 210.949 929.753 Q214.028 934.337 214.028 943.087 Q214.028 951.813 210.949 956.42 Q207.894 961.003 202.084 961.003 Q196.274 961.003 193.195 956.42 Q190.139 951.813 190.139 943.087 Q190.139 934.337 193.195 929.753 Q196.274 925.147 202.084 925.147 Z" fill="#000000" fill-rule="nonzero" fill-opacity="1" /><path clip-path="url(#clip750)" d="M222.385 959.614 L222.385 955.355 Q224.144 956.188 225.949 956.628 Q227.755 957.068 229.491 957.068 Q234.121 957.068 236.551 953.966 Q239.005 950.841 239.352 944.499 Q238.009 946.489 235.949 947.554 Q233.889 948.619 231.389 948.619 Q226.204 948.619 223.172 945.494 Q220.162 942.346 220.162 936.906 Q220.162 931.582 223.31 928.365 Q226.459 925.147 231.69 925.147 Q237.685 925.147 240.834 929.753 Q244.005 934.337 244.005 943.087 Q244.005 951.258 240.116 956.142 Q236.25 961.003 229.699 961.003 Q227.94 961.003 226.135 960.656 Q224.329 960.309 222.385 959.614 M231.69 944.962 Q234.838 944.962 236.667 942.809 Q238.519 940.656 238.519 936.906 Q238.519 933.179 236.667 931.027 Q234.838 928.851 231.69 928.851 Q228.542 928.851 226.69 931.027 Q224.861 933.179 224.861 936.906 Q224.861 940.656 226.69 942.809 Q228.542 944.962 231.69 944.962 Z" fill="#000000" fill-rule="nonzero" fill-opacity="1" /><path clip-path="url(#clip750)" d="M262.408 928.851 Q258.796 928.851 256.968 932.415 Q255.162 935.957 255.162 943.087 Q255.162 950.193 256.968 953.758 Q258.796 957.3 262.408 957.3 Q266.042 957.3 267.847 953.758 Q269.676 950.193 269.676 943.087 Q269.676 935.957 267.847 932.415 Q266.042 928.851 262.408 928.851 M262.408 925.147 Q268.218 925.147 271.273 929.753 Q274.352 934.337 274.352 943.087 Q274.352 951.813 271.273 956.42 Q268.218 961.003 262.408 961.003 Q256.597 961.003 253.519 956.42 Q250.463 951.813 250.463 943.087 Q250.463 934.337 253.519 929.753 Q256.597 925.147 262.408 925.147 Z" fill="#000000" fill-rule="nonzero" fill-opacity="1" /><path clip-path="url(#clip750)" d="M128.288 686.904 Q124.677 686.904 122.848 690.468 Q121.043 694.01 121.043 701.14 Q121.043 708.246 122.848 711.811 Q124.677 715.352 128.288 715.352 Q131.922 715.352 133.728 711.811 Q135.556 708.246 135.556 701.14 Q135.556 694.01 133.728 690.468 Q131.922 686.904 128.288 686.904 M128.288 683.2 Q134.098 683.2 137.154 687.806 Q140.232 692.39 140.232 701.14 Q140.232 709.866 137.154 714.473 Q134.098 719.056 128.288 719.056 Q122.478 719.056 119.399 714.473 Q116.343 709.866 116.343 701.14 Q116.343 692.39 119.399 687.806 Q122.478 683.2 128.288 683.2 Z" fill="#000000" fill-rule="nonzero" fill-opacity="1" /><path clip-path="url(#clip750)" d="M148.45 712.505 L153.334 712.505 L153.334 718.385 L148.45 718.385 L148.45 712.505 Z" fill="#000000" fill-rule="nonzero" fill-opacity="1" /><path clip-path="url(#clip750)" d="M173.519 686.904 Q169.908 686.904 168.079 690.468 Q166.274 694.01 166.274 701.14 Q166.274 708.246 168.079 711.811 Q169.908 715.352 173.519 715.352 Q177.153 715.352 178.959 711.811 Q180.788 708.246 180.788 701.14 Q180.788 694.01 178.959 690.468 Q177.153 686.904 173.519 686.904 M173.519 683.2 Q179.329 683.2 182.385 687.806 Q185.463 692.39 185.463 701.14 Q185.463 709.866 182.385 714.473 Q179.329 719.056 173.519 719.056 Q167.709 719.056 164.63 714.473 Q161.575 709.866 161.575 701.14 Q161.575 692.39 164.63 687.806 Q167.709 683.2 173.519 683.2 Z" fill="#000000" fill-rule="nonzero" fill-opacity="1" /><path clip-path="url(#clip750)" d="M203.681 686.904 Q200.07 686.904 198.241 690.468 Q196.436 694.01 196.436 701.14 Q196.436 708.246 198.241 711.811 Q200.07 715.352 203.681 715.352 Q207.315 715.352 209.121 711.811 Q210.949 708.246 210.949 701.14 Q210.949 694.01 209.121 690.468 Q207.315 686.904 203.681 686.904 M203.681 683.2 Q209.491 683.2 212.547 687.806 Q215.625 692.39 215.625 701.14 Q215.625 709.866 212.547 714.473 Q209.491 719.056 203.681 719.056 Q197.871 719.056 194.792 714.473 Q191.737 709.866 191.737 701.14 Q191.737 692.39 194.792 687.806 Q197.871 683.2 203.681 683.2 Z" fill="#000000" fill-rule="nonzero" fill-opacity="1" /><path clip-path="url(#clip750)" d="M223.982 717.667 L223.982 713.408 Q225.741 714.241 227.547 714.681 Q229.352 715.121 231.088 715.121 Q235.718 715.121 238.148 712.019 Q240.602 708.894 240.949 702.552 Q239.607 704.542 237.547 705.607 Q235.486 706.672 232.986 706.672 Q227.801 706.672 224.769 703.547 Q221.76 700.399 221.76 694.959 Q221.76 689.635 224.908 686.417 Q228.056 683.2 233.287 683.2 Q239.283 683.2 242.431 687.806 Q245.602 692.39 245.602 701.14 Q245.602 709.311 241.713 714.195 Q237.847 719.056 231.297 719.056 Q229.537 719.056 227.732 718.709 Q225.926 718.362 223.982 717.667 M233.287 703.015 Q236.435 703.015 238.264 700.862 Q240.116 698.709 240.116 694.959 Q240.116 691.232 238.264 689.079 Q236.435 686.904 233.287 686.904 Q230.139 686.904 228.287 689.079 Q226.459 691.232 226.459 694.959 Q226.459 698.709 228.287 700.862 Q230.139 703.015 233.287 703.015 Z" fill="#000000" fill-rule="nonzero" fill-opacity="1" /><path clip-path="url(#clip750)" d="M258.033 714.45 L274.352 714.45 L274.352 718.385 L252.408 718.385 L252.408 714.45 Q255.07 711.695 259.653 707.065 Q264.259 702.413 265.44 701.07 Q267.685 698.547 268.565 696.811 Q269.468 695.052 269.468 693.362 Q269.468 690.607 267.523 688.871 Q265.602 687.135 262.5 687.135 Q260.301 687.135 257.847 687.899 Q255.417 688.663 252.639 690.214 L252.639 685.491 Q255.463 684.357 257.917 683.779 Q260.37 683.2 262.408 683.2 Q267.778 683.2 270.972 685.885 Q274.167 688.57 274.167 693.061 Q274.167 695.191 273.357 697.112 Q272.569 699.01 270.463 701.603 Q269.884 702.274 266.782 705.491 Q263.681 708.686 258.033 714.45 Z" fill="#000000" fill-rule="nonzero" fill-opacity="1" /><path clip-path="url(#clip750)" d="M126.205 444.956 Q122.593 444.956 120.765 448.521 Q118.959 452.063 118.959 459.192 Q118.959 466.299 120.765 469.864 Q122.593 473.405 126.205 473.405 Q129.839 473.405 131.644 469.864 Q133.473 466.299 133.473 459.192 Q133.473 452.063 131.644 448.521 Q129.839 444.956 126.205 444.956 M126.205 441.253 Q132.015 441.253 135.07 445.859 Q138.149 450.442 138.149 459.192 Q138.149 467.919 135.07 472.526 Q132.015 477.109 126.205 477.109 Q120.394 477.109 117.316 472.526 Q114.26 467.919 114.26 459.192 Q114.26 450.442 117.316 445.859 Q120.394 441.253 126.205 441.253 Z" fill="#000000" fill-rule="nonzero" fill-opacity="1" /><path clip-path="url(#clip750)" d="M146.366 470.558 L151.251 470.558 L151.251 476.438 L146.366 476.438 L146.366 470.558 Z" fill="#000000" fill-rule="nonzero" fill-opacity="1" /><path clip-path="url(#clip750)" d="M171.436 444.956 Q167.825 444.956 165.996 448.521 Q164.19 452.063 164.19 459.192 Q164.19 466.299 165.996 469.864 Q167.825 473.405 171.436 473.405 Q175.07 473.405 176.876 469.864 Q178.704 466.299 178.704 459.192 Q178.704 452.063 176.876 448.521 Q175.07 444.956 171.436 444.956 M171.436 441.253 Q177.246 441.253 180.301 445.859 Q183.38 450.442 183.38 459.192 Q183.38 467.919 180.301 472.526 Q177.246 477.109 171.436 477.109 Q165.626 477.109 162.547 472.526 Q159.491 467.919 159.491 459.192 Q159.491 450.442 162.547 445.859 Q165.626 441.253 171.436 441.253 Z" fill="#000000" fill-rule="nonzero" fill-opacity="1" /><path clip-path="url(#clip750)" d="M201.598 444.956 Q197.987 444.956 196.158 448.521 Q194.352 452.063 194.352 459.192 Q194.352 466.299 196.158 469.864 Q197.987 473.405 201.598 473.405 Q205.232 473.405 207.037 469.864 Q208.866 466.299 208.866 459.192 Q208.866 452.063 207.037 448.521 Q205.232 444.956 201.598 444.956 M201.598 441.253 Q207.408 441.253 210.463 445.859 Q213.542 450.442 213.542 459.192 Q213.542 467.919 210.463 472.526 Q207.408 477.109 201.598 477.109 Q195.787 477.109 192.709 472.526 Q189.653 467.919 189.653 459.192 Q189.653 450.442 192.709 445.859 Q195.787 441.253 201.598 441.253 Z" fill="#000000" fill-rule="nonzero" fill-opacity="1" /><path clip-path="url(#clip750)" d="M221.898 475.72 L221.898 471.461 Q223.658 472.294 225.463 472.734 Q227.269 473.174 229.005 473.174 Q233.635 473.174 236.065 470.072 Q238.519 466.947 238.866 460.604 Q237.523 462.595 235.463 463.66 Q233.403 464.725 230.903 464.725 Q225.718 464.725 222.686 461.6 Q219.676 458.452 219.676 453.012 Q219.676 447.688 222.824 444.47 Q225.973 441.253 231.204 441.253 Q237.199 441.253 240.347 445.859 Q243.519 450.442 243.519 459.192 Q243.519 467.364 239.63 472.248 Q235.764 477.109 229.213 477.109 Q227.454 477.109 225.648 476.762 Q223.843 476.415 221.898 475.72 M231.204 461.067 Q234.352 461.067 236.181 458.915 Q238.033 456.762 238.033 453.012 Q238.033 449.285 236.181 447.132 Q234.352 444.956 231.204 444.956 Q228.056 444.956 226.204 447.132 Q224.375 449.285 224.375 453.012 Q224.375 456.762 226.204 458.915 Q228.056 461.067 231.204 461.067 Z" fill="#000000" fill-rule="nonzero" fill-opacity="1" /><path clip-path="url(#clip750)" d="M264.769 445.952 L252.963 464.401 L264.769 464.401 L264.769 445.952 M263.542 441.878 L269.421 441.878 L269.421 464.401 L274.352 464.401 L274.352 468.29 L269.421 468.29 L269.421 476.438 L264.769 476.438 L264.769 468.29 L249.167 468.29 L249.167 463.776 L263.542 441.878 Z" fill="#000000" fill-rule="nonzero" fill-opacity="1" /><path clip-path="url(#clip750)" d="M126.529 203.009 Q122.918 203.009 121.089 206.574 Q119.283 210.116 119.283 217.245 Q119.283 224.352 121.089 227.917 Q122.918 231.458 126.529 231.458 Q130.163 231.458 131.968 227.917 Q133.797 224.352 133.797 217.245 Q133.797 210.116 131.968 206.574 Q130.163 203.009 126.529 203.009 M126.529 199.306 Q132.339 199.306 135.394 203.912 Q138.473 208.495 138.473 217.245 Q138.473 225.972 135.394 230.579 Q132.339 235.162 126.529 235.162 Q120.718 235.162 117.64 230.579 Q114.584 225.972 114.584 217.245 Q114.584 208.495 117.64 203.912 Q120.718 199.306 126.529 199.306 Z" fill="#000000" fill-rule="nonzero" fill-opacity="1" /><path clip-path="url(#clip750)" d="M146.691 228.611 L151.575 228.611 L151.575 234.491 L146.691 234.491 L146.691 228.611 Z" fill="#000000" fill-rule="nonzero" fill-opacity="1" /><path clip-path="url(#clip750)" d="M171.76 203.009 Q168.149 203.009 166.32 206.574 Q164.515 210.116 164.515 217.245 Q164.515 224.352 166.32 227.917 Q168.149 231.458 171.76 231.458 Q175.394 231.458 177.2 227.917 Q179.028 224.352 179.028 217.245 Q179.028 210.116 177.2 206.574 Q175.394 203.009 171.76 203.009 M171.76 199.306 Q177.57 199.306 180.626 203.912 Q183.704 208.495 183.704 217.245 Q183.704 225.972 180.626 230.579 Q177.57 235.162 171.76 235.162 Q165.95 235.162 162.871 230.579 Q159.815 225.972 159.815 217.245 Q159.815 208.495 162.871 203.912 Q165.95 199.306 171.76 199.306 Z" fill="#000000" fill-rule="nonzero" fill-opacity="1" /><path clip-path="url(#clip750)" d="M201.922 203.009 Q198.311 203.009 196.482 206.574 Q194.676 210.116 194.676 217.245 Q194.676 224.352 196.482 227.917 Q198.311 231.458 201.922 231.458 Q205.556 231.458 207.362 227.917 Q209.19 224.352 209.19 217.245 Q209.19 210.116 207.362 206.574 Q205.556 203.009 201.922 203.009 M201.922 199.306 Q207.732 199.306 210.787 203.912 Q213.866 208.495 213.866 217.245 Q213.866 225.972 210.787 230.579 Q207.732 235.162 201.922 235.162 Q196.112 235.162 193.033 230.579 Q189.977 225.972 189.977 217.245 Q189.977 208.495 193.033 203.912 Q196.112 199.306 201.922 199.306 Z" fill="#000000" fill-rule="nonzero" fill-opacity="1" /><path clip-path="url(#clip750)" d="M222.223 233.773 L222.223 229.514 Q223.982 230.347 225.787 230.787 Q227.593 231.227 229.329 231.227 Q233.959 231.227 236.389 228.125 Q238.843 225 239.19 218.657 Q237.847 220.648 235.787 221.713 Q233.727 222.778 231.227 222.778 Q226.042 222.778 223.01 219.653 Q220 216.505 220 211.065 Q220 205.741 223.148 202.523 Q226.297 199.306 231.528 199.306 Q237.523 199.306 240.672 203.912 Q243.843 208.495 243.843 217.245 Q243.843 225.417 239.954 230.301 Q236.088 235.162 229.537 235.162 Q227.778 235.162 225.973 234.815 Q224.167 234.467 222.223 233.773 M231.528 219.12 Q234.676 219.12 236.505 216.968 Q238.357 214.815 238.357 211.065 Q238.357 207.338 236.505 205.185 Q234.676 203.009 231.528 203.009 Q228.38 203.009 226.528 205.185 Q224.699 207.338 224.699 211.065 Q224.699 214.815 226.528 216.968 Q228.38 219.12 231.528 219.12 Z" fill="#000000" fill-rule="nonzero" fill-opacity="1" /><path clip-path="url(#clip750)" d="M262.824 215.347 Q259.676 215.347 257.824 217.5 Q255.996 219.653 255.996 223.403 Q255.996 227.13 257.824 229.305 Q259.676 231.458 262.824 231.458 Q265.972 231.458 267.801 229.305 Q269.653 227.13 269.653 223.403 Q269.653 219.653 267.801 217.5 Q265.972 215.347 262.824 215.347 M272.107 200.695 L272.107 204.954 Q270.347 204.12 268.542 203.681 Q266.759 203.241 265 203.241 Q260.37 203.241 257.917 206.366 Q255.486 209.491 255.139 215.81 Q256.505 213.796 258.565 212.731 Q260.625 211.644 263.102 211.644 Q268.31 211.644 271.32 214.815 Q274.352 217.963 274.352 223.403 Q274.352 228.727 271.204 231.944 Q268.056 235.162 262.824 235.162 Q256.829 235.162 253.658 230.579 Q250.486 225.972 250.486 217.245 Q250.486 209.051 254.375 204.19 Q258.264 199.306 264.815 199.306 Q266.574 199.306 268.357 199.653 Q270.162 200 272.107 200.695 Z" fill="#000000" fill-rule="nonzero" fill-opacity="1" /><path clip-path="url(#clip750)" d="M33.7671 788.508 L14.479 788.508 L14.479 782.652 L64.0042 782.652 L64.0042 788.508 L58.657 788.508 Q61.8398 790.354 63.3994 793.187 Q64.9272 795.988 64.9272 799.935 Q64.9272 806.396 59.771 810.47 Q54.6147 814.512 46.212 814.512 Q37.8093 814.512 32.6531 810.47 Q27.4968 806.396 27.4968 799.935 Q27.4968 795.988 29.0564 793.187 Q30.5842 790.354 33.7671 788.508 M46.212 808.465 Q52.6732 808.465 56.3653 805.823 Q60.0256 803.149 60.0256 798.502 Q60.0256 793.855 56.3653 791.182 Q52.6732 788.508 46.212 788.508 Q39.7508 788.508 36.0905 791.182 Q32.3984 793.855 32.3984 798.502 Q32.3984 803.149 36.0905 805.823 Q39.7508 808.465 46.212 808.465 Z" fill="#000000" fill-rule="nonzero" fill-opacity="1" /><path clip-path="url(#clip750)" d="M74.8259 743.503 L79.3773 743.503 L79.3773 777.368 L74.8259 777.368 L74.8259 743.503 Z" fill="#000000" fill-rule="nonzero" fill-opacity="1" /><path clip-path="url(#clip750)" d="M28.3562 737.996 L28.3562 732.14 L64.0042 732.14 L64.0042 737.996 L28.3562 737.996 M14.479 737.996 L14.479 732.14 L21.895 732.14 L21.895 737.996 L14.479 737.996 Z" fill="#000000" fill-rule="nonzero" fill-opacity="1" /><path clip-path="url(#clip750)" d="M1031.48 12.096 L1066.24 12.096 L1066.24 18.9825 L1039.67 18.9825 L1039.67 36.8065 L1063.65 36.8065 L1063.65 43.6931 L1039.67 43.6931 L1039.67 72.576 L1031.48 72.576 L1031.48 12.096 Z" fill="#000000" fill-rule="nonzero" fill-opacity="1" /><path clip-path="url(#clip750)" d="M1072.84 27.2059 L1080.3 27.2059 L1080.3 72.576 L1072.84 72.576 L1072.84 27.2059 M1072.84 9.54393 L1080.3 9.54393 L1080.3 18.9825 L1072.84 18.9825 L1072.84 9.54393 Z" fill="#000000" fill-rule="nonzero" fill-opacity="1" /><path clip-path="url(#clip750)" d="M1133.61 45.1919 L1133.61 72.576 L1126.15 72.576 L1126.15 45.4349 Q1126.15 38.994 1123.64 35.7938 Q1121.13 32.5936 1116.11 32.5936 Q1110.07 32.5936 1106.59 36.4419 Q1103.1 40.2903 1103.1 46.9338 L1103.1 72.576 L1095.61 72.576 L1095.61 27.2059 L1103.1 27.2059 L1103.1 34.2544 Q1105.78 30.163 1109.38 28.1376 Q1113.03 26.1121 1117.77 26.1121 Q1125.59 26.1121 1129.6 30.9732 Q1133.61 35.7938 1133.61 45.1919 Z" fill="#000000" fill-rule="nonzero" fill-opacity="1" /><path clip-path="url(#clip750)" d="M1169.09 49.7694 Q1160.06 49.7694 1156.58 51.8354 Q1153.09 53.9013 1153.09 58.8839 Q1153.09 62.8538 1155.68 65.2034 Q1158.32 67.5124 1162.81 67.5124 Q1169.01 67.5124 1172.74 63.1374 Q1176.51 58.7219 1176.51 51.4303 L1176.51 49.7694 L1169.09 49.7694 M1183.96 46.6907 L1183.96 72.576 L1176.51 72.576 L1176.51 65.6895 Q1173.95 69.8214 1170.15 71.8063 Q1166.34 73.7508 1160.83 73.7508 Q1153.86 73.7508 1149.73 69.8619 Q1145.64 65.9325 1145.64 59.3701 Q1145.64 51.7138 1150.74 47.825 Q1155.89 43.9361 1166.05 43.9361 L1176.51 43.9361 L1176.51 43.2069 Q1176.51 38.0623 1173.1 35.2672 Q1169.74 32.4315 1163.62 32.4315 Q1159.73 32.4315 1156.05 33.3632 Q1152.36 34.295 1148.96 36.1584 L1148.96 29.2718 Q1153.05 27.692 1156.9 26.9223 Q1160.75 26.1121 1164.39 26.1121 Q1174.24 26.1121 1179.1 31.2163 Q1183.96 36.3204 1183.96 46.6907 Z" fill="#000000" fill-rule="nonzero" fill-opacity="1" /><path clip-path="url(#clip750)" d="M1199.31 9.54393 L1206.77 9.54393 L1206.77 72.576 L1199.31 72.576 L1199.31 9.54393 Z" fill="#000000" fill-rule="nonzero" fill-opacity="1" /><path clip-path="url(#clip750)" d="M1278.59 34.0924 L1278.59 9.54393 L1286.04 9.54393 L1286.04 72.576 L1278.59 72.576 L1278.59 65.7705 Q1276.24 69.8214 1272.63 71.8063 Q1269.07 73.7508 1264.05 73.7508 Q1255.82 73.7508 1250.64 67.1883 Q1245.49 60.6258 1245.49 49.9314 Q1245.49 39.2371 1250.64 32.6746 Q1255.82 26.1121 1264.05 26.1121 Q1269.07 26.1121 1272.63 28.0971 Q1276.24 30.0415 1278.59 34.0924 M1253.19 49.9314 Q1253.19 58.1548 1256.55 62.8538 Q1259.95 67.5124 1265.87 67.5124 Q1271.78 67.5124 1275.19 62.8538 Q1278.59 58.1548 1278.59 49.9314 Q1278.59 41.7081 1275.19 37.0496 Q1271.78 32.3505 1265.87 32.3505 Q1259.95 32.3505 1256.55 37.0496 Q1253.19 41.7081 1253.19 49.9314 Z" fill="#000000" fill-rule="nonzero" fill-opacity="1" /><path clip-path="url(#clip750)" d="M1301.39 27.2059 L1308.85 27.2059 L1308.85 72.576 L1301.39 72.576 L1301.39 27.2059 M1301.39 9.54393 L1308.85 9.54393 L1308.85 18.9825 L1301.39 18.9825 L1301.39 9.54393 Z" fill="#000000" fill-rule="nonzero" fill-opacity="1" /><path clip-path="url(#clip750)" d="M1353.37 28.5427 L1353.37 35.5912 Q1350.21 33.9709 1346.81 33.1607 Q1343.4 32.3505 1339.76 32.3505 Q1334.21 32.3505 1331.41 34.0519 Q1328.66 35.7533 1328.66 39.156 Q1328.66 41.7486 1330.64 43.2475 Q1332.63 44.7058 1338.62 46.0426 L1341.17 46.6097 Q1349.11 48.3111 1352.44 51.4303 Q1355.8 54.509 1355.8 60.0587 Q1355.8 66.3781 1350.78 70.0644 Q1345.79 73.7508 1337.04 73.7508 Q1333.4 73.7508 1329.43 73.0216 Q1325.5 72.3329 1321.12 70.9151 L1321.12 63.2184 Q1325.25 65.3654 1329.27 66.4591 Q1333.28 67.5124 1337.2 67.5124 Q1342.47 67.5124 1345.31 65.73 Q1348.14 63.9071 1348.14 60.6258 Q1348.14 57.5877 1346.08 55.9673 Q1344.05 54.3469 1337.12 52.8481 L1334.53 52.2405 Q1327.6 50.7821 1324.53 47.7845 Q1321.45 44.7463 1321.45 39.4801 Q1321.45 33.0797 1325.98 29.5959 Q1330.52 26.1121 1338.87 26.1121 Q1343 26.1121 1346.64 26.7198 Q1350.29 27.3274 1353.37 28.5427 Z" fill="#000000" fill-rule="nonzero" fill-opacity="1" /><path clip-path="url(#clip750)" d="M1375.04 14.324 L1375.04 27.2059 L1390.39 27.2059 L1390.39 32.9987 L1375.04 32.9987 L1375.04 57.6282 Q1375.04 63.1779 1376.54 64.7578 Q1378.08 66.3376 1382.74 66.3376 L1390.39 66.3376 L1390.39 72.576 L1382.74 72.576 Q1374.11 72.576 1370.83 69.3758 Q1367.55 66.1351 1367.55 57.6282 L1367.55 32.9987 L1362.08 32.9987 L1362.08 27.2059 L1367.55 27.2059 L1367.55 14.324 L1375.04 14.324 Z" fill="#000000" fill-rule="nonzero" fill-opacity="1" /><path clip-path="url(#clip750)" d="M1420.82 49.7694 Q1411.78 49.7694 1408.3 51.8354 Q1404.81 53.9013 1404.81 58.8839 Q1404.81 62.8538 1407.41 65.2034 Q1410.04 67.5124 1414.54 67.5124 Q1420.73 67.5124 1424.46 63.1374 Q1428.23 58.7219 1428.23 51.4303 L1428.23 49.7694 L1420.82 49.7694 M1435.68 46.6907 L1435.68 72.576 L1428.23 72.576 L1428.23 65.6895 Q1425.68 69.8214 1421.87 71.8063 Q1418.06 73.7508 1412.55 73.7508 Q1405.58 73.7508 1401.45 69.8619 Q1397.36 65.9325 1397.36 59.3701 Q1397.36 51.7138 1402.46 47.825 Q1407.61 43.9361 1417.78 43.9361 L1428.23 43.9361 L1428.23 43.2069 Q1428.23 38.0623 1424.83 35.2672 Q1421.46 32.4315 1415.35 32.4315 Q1411.46 32.4315 1407.77 33.3632 Q1404.09 34.295 1400.68 36.1584 L1400.68 29.2718 Q1404.77 27.692 1408.62 26.9223 Q1412.47 26.1121 1416.12 26.1121 Q1425.96 26.1121 1430.82 31.2163 Q1435.68 36.3204 1435.68 46.6907 Z" fill="#000000" fill-rule="nonzero" fill-opacity="1" /><path clip-path="url(#clip750)" d="M1488.75 45.1919 L1488.75 72.576 L1481.3 72.576 L1481.3 45.4349 Q1481.3 38.994 1478.78 35.7938 Q1476.27 32.5936 1471.25 32.5936 Q1465.21 32.5936 1461.73 36.4419 Q1458.25 40.2903 1458.25 46.9338 L1458.25 72.576 L1450.75 72.576 L1450.75 27.2059 L1458.25 27.2059 L1458.25 34.2544 Q1460.92 30.163 1464.52 28.1376 Q1468.17 26.1121 1472.91 26.1121 Q1480.73 26.1121 1484.74 30.9732 Q1488.75 35.7938 1488.75 45.1919 Z" fill="#000000" fill-rule="nonzero" fill-opacity="1" /><path clip-path="url(#clip750)" d="M1536.27 28.9478 L1536.27 35.9153 Q1533.11 34.1734 1529.91 33.3227 Q1526.75 32.4315 1523.51 32.4315 Q1516.25 32.4315 1512.24 37.0496 Q1508.23 41.6271 1508.23 49.9314 Q1508.23 58.2358 1512.24 62.8538 Q1516.25 67.4314 1523.51 67.4314 Q1526.75 67.4314 1529.91 66.5807 Q1533.11 65.6895 1536.27 63.9476 L1536.27 70.8341 Q1533.15 72.2924 1529.78 73.0216 Q1526.46 73.7508 1522.7 73.7508 Q1512.45 73.7508 1506.41 67.3098 Q1500.38 60.8689 1500.38 49.9314 Q1500.38 38.832 1506.45 32.472 Q1512.57 26.1121 1523.18 26.1121 Q1526.63 26.1121 1529.91 26.8413 Q1533.19 27.5299 1536.27 28.9478 Z" fill="#000000" fill-rule="nonzero" fill-opacity="1" /><path clip-path="url(#clip750)" d="M1588.04 48.0275 L1588.04 51.6733 L1553.77 51.6733 Q1554.25 59.3701 1558.38 63.421 Q1562.56 67.4314 1569.97 67.4314 Q1574.26 67.4314 1578.27 66.3781 Q1582.33 65.3249 1586.3 63.2184 L1586.3 70.267 Q1582.28 71.9684 1578.07 72.8596 Q1573.86 73.7508 1569.52 73.7508 Q1558.67 73.7508 1552.31 67.4314 Q1545.99 61.1119 1545.99 50.3365 Q1545.99 39.1965 1551.98 32.6746 Q1558.02 26.1121 1568.23 26.1121 Q1577.38 26.1121 1582.69 32.0264 Q1588.04 37.9003 1588.04 48.0275 M1580.58 45.84 Q1580.5 39.7232 1577.14 36.0774 Q1573.82 32.4315 1568.31 32.4315 Q1562.07 32.4315 1558.3 35.9558 Q1554.58 39.4801 1554.01 45.8805 L1580.58 45.84 Z" fill="#000000" fill-rule="nonzero" fill-opacity="1" /><path clip-path="url(#clip750)" d="M1629.19 28.5427 L1629.19 35.5912 Q1626.03 33.9709 1622.63 33.1607 Q1619.23 32.3505 1615.58 32.3505 Q1610.03 32.3505 1607.24 34.0519 Q1604.48 35.7533 1604.48 39.156 Q1604.48 41.7486 1606.47 43.2475 Q1608.45 44.7058 1614.45 46.0426 L1617 46.6097 Q1624.94 48.3111 1628.26 51.4303 Q1631.62 54.509 1631.62 60.0587 Q1631.62 66.3781 1626.6 70.0644 Q1621.62 73.7508 1612.87 73.7508 Q1609.22 73.7508 1605.25 73.0216 Q1601.32 72.3329 1596.95 70.9151 L1596.95 63.2184 Q1601.08 65.3654 1605.09 66.4591 Q1609.1 67.5124 1613.03 67.5124 Q1618.3 67.5124 1621.13 65.73 Q1623.97 63.9071 1623.97 60.6258 Q1623.97 57.5877 1621.9 55.9673 Q1619.88 54.3469 1612.95 52.8481 L1610.36 52.2405 Q1603.43 50.7821 1600.35 47.7845 Q1597.27 44.7463 1597.27 39.4801 Q1597.27 33.0797 1601.81 29.5959 Q1606.35 26.1121 1614.69 26.1121 Q1618.82 26.1121 1622.47 26.7198 Q1626.12 27.3274 1629.19 28.5427 Z" fill="#000000" fill-rule="nonzero" fill-opacity="1" /><circle clip-path="url(#clip752)" cx="368.156" cy="301.425" r="14.4" fill="#009af9" fill-rule="evenodd" fill-opacity="1" stroke="#000000" stroke-opacity="1" stroke-width="3.2"/>
<circle clip-path="url(#clip752)" cx="609.005" cy="1376.49" r="14.4" fill="#009af9" fill-rule="evenodd" fill-opacity="1" stroke="#000000" stroke-opacity="1" stroke-width="3.2"/>
<circle clip-path="url(#clip752)" cx="849.855" cy="160.256" r="14.4" fill="#009af9" fill-rule="evenodd" fill-opacity="1" stroke="#000000" stroke-opacity="1" stroke-width="3.2"/>
<circle clip-path="url(#clip752)" cx="1090.7" cy="557.411" r="14.4" fill="#009af9" fill-rule="evenodd" fill-opacity="1" stroke="#000000" stroke-opacity="1" stroke-width="3.2"/>
<circle clip-path="url(#clip752)" cx="1331.55" cy="673.56" r="14.4" fill="#009af9" fill-rule="evenodd" fill-opacity="1" stroke="#000000" stroke-opacity="1" stroke-width="3.2"/>
<circle clip-path="url(#clip752)" cx="1572.4" cy="413.476" r="14.4" fill="#009af9" fill-rule="evenodd" fill-opacity="1" stroke="#000000" stroke-opacity="1" stroke-width="3.2"/>
<circle clip-path="url(#clip752)" cx="1813.25" cy="490.519" r="14.4" fill="#009af9" fill-rule="evenodd" fill-opacity="1" stroke="#000000" stroke-opacity="1" stroke-width="3.2"/>
<circle clip-path="url(#clip752)" cx="2054.1" cy="747.764" r="14.4" fill="#009af9" fill-rule="evenodd" fill-opacity="1" stroke="#000000" stroke-opacity="1" stroke-width="3.2"/>
<circle clip-path="url(#clip752)" cx="2294.95" cy="1386.4" r="14.4" fill="#009af9" fill-rule="evenodd" fill-opacity="1" stroke="#000000" stroke-opacity="1" stroke-width="3.2"/>
</svg>
