<?xml version="1.0" encoding="utf-8"?>
<svg xmlns="http://www.w3.org/2000/svg" xmlns:xlink="http://www.w3.org/1999/xlink" width="600" height="400" viewBox="0 0 2400 1600">
<defs>
  <clipPath id="clip790">
    <rect x="0" y="0" width="2400" height="1600"/>
  </clipPath>
</defs>
<path clip-path="url(#clip790)" d="M0 1600 L2400 1600 L2400 0 L0 0  Z" fill="#ffffff" fill-rule="evenodd" fill-opacity="1"/>
<defs>
  <clipPath id="clip791">
    <rect x="480" y="0" width="1681" height="1600"/>
  </clipPath>
</defs>
<path clip-path="url(#clip790)" d="M280.19 1423.18 L2352.76 1423.18 L2352.76 47.2441 L280.19 47.2441  Z" fill="#ffffff" fill-rule="evenodd" fill-opacity="1"/>
<defs>
  <clipPath id="clip792">
    <rect x="280" y="47" width="2074" height="1377"/>
  </clipPath>
</defs>
<polyline clip-path="url(#clip792)" style="stroke:#000000; stroke-linecap:round; stroke-linejoin:round; stroke-width:2; stroke-opacity:0.1; fill:none" points="534.373,1423.18 534.373,47.2441 "/>
<polyline clip-path="url(#clip792)" style="stroke:#000000; stroke-linecap:round; stroke-linejoin:round; stroke-width:2; stroke-opacity:0.1; fill:none" points="925.423,1423.18 925.423,47.2441 "/>
<polyline clip-path="url(#clip792)" style="stroke:#000000; stroke-linecap:round; stroke-linejoin:round; stroke-width:2; stroke-opacity:0.1; fill:none" points="1316.47,1423.18 1316.47,47.2441 "/>
<polyline clip-path="url(#clip792)" style="stroke:#000000; stroke-linecap:round; stroke-linejoin:round; stroke-width:2; stroke-opacity:0.1; fill:none" points="1707.52,1423.18 1707.52,47.2441 "/>
<polyline clip-path="url(#clip792)" style="stroke:#000000; stroke-linecap:round; stroke-linejoin:round; stroke-width:2; stroke-opacity:0.1; fill:none" points="2098.57,1423.18 2098.57,47.2441 "/>
<polyline clip-path="url(#clip792)" style="stroke:#000000; stroke-linecap:round; stroke-linejoin:round; stroke-width:2; stroke-opacity:0.1; fill:none" points="280.19,1299.4 2352.76,1299.4 "/>
<polyline clip-path="url(#clip792)" style="stroke:#000000; stroke-linecap:round; stroke-linejoin:round; stroke-width:2; stroke-opacity:0.1; fill:none" points="280.19,992.352 2352.76,992.352 "/>
<polyline clip-path="url(#clip792)" style="stroke:#000000; stroke-linecap:round; stroke-linejoin:round; stroke-width:2; stroke-opacity:0.1; fill:none" points="280.19,685.306 2352.76,685.306 "/>
<polyline clip-path="url(#clip792)" style="stroke:#000000; stroke-linecap:round; stroke-linejoin:round; stroke-width:2; stroke-opacity:0.1; fill:none" points="280.19,378.26 2352.76,378.26 "/>
<polyline clip-path="url(#clip792)" style="stroke:#000000; stroke-linecap:round; stroke-linejoin:round; stroke-width:2; stroke-opacity:0.1; fill:none" points="280.19,71.2135 2352.76,71.2135 "/>
<polyline clip-path="url(#clip790)" style="stroke:#000000; stroke-linecap:round; stroke-linejoin:round; stroke-width:4; stroke-opacity:1; fill:none" points="280.19,1423.18 2352.76,1423.18 "/>
<polyline clip-path="url(#clip790)" style="stroke:#000000; stroke-linecap:round; stroke-linejoin:round; stroke-width:4; stroke-opacity:1; fill:none" points="534.373,1423.18 534.373,1404.28 "/>
<polyline clip-path="url(#clip790)" style="stroke:#000000; stroke-linecap:round; stroke-linejoin:round; stroke-width:4; stroke-opacity:1; fill:none" points="925.423,1423.18 925.423,1404.28 "/>
<polyline clip-path="url(#clip790)" style="stroke:#000000; stroke-linecap:round; stroke-linejoin:round; stroke-width:4; stroke-opacity:1; fill:none" points="1316.47,1423.18 1316.47,1404.28 "/>
<polyline clip-path="url(#clip790)" style="stroke:#000000; stroke-linecap:round; stroke-linejoin:round; stroke-width:4; stroke-opacity:1; fill:none" points="1707.52,1423.18 1707.52,1404.28 "/>
<polyline clip-path="url(#clip790)" style="stroke:#000000; stroke-linecap:round; stroke-linejoin:round; stroke-width:4; stroke-opacity:1; fill:none" points="2098.57,1423.18 2098.57,1404.28 "/>
<path clip-path="url(#clip790)" d="M490.449 1481.64 L506.769 1481.64 L506.769 1485.58 L484.824 1485.58 L484.824 1481.64 Q487.486 1478.89 492.07 1474.26 Q496.676 1469.61 497.857 1468.27 Q500.102 1465.74 500.982 1464.01 Q501.884 1462.25 501.884 1460.56 Q501.884 1457.8 499.94 1456.07 Q498.019 1454.33 494.917 1454.33 Q492.718 1454.33 490.264 1455.09 Q487.834 1455.86 485.056 1457.41 L485.056 1452.69 Q487.88 1451.55 490.334 1450.97 Q492.787 1450.39 494.824 1450.39 Q500.195 1450.39 503.389 1453.08 Q506.583 1455.77 506.583 1460.26 Q506.583 1462.39 505.773 1464.31 Q504.986 1466.2 502.88 1468.8 Q502.301 1469.47 499.199 1472.69 Q496.097 1475.88 490.449 1481.64 Z" fill="#000000" fill-rule="nonzero" fill-opacity="1" /><path clip-path="url(#clip790)" d="M516.722 1484.86 L516.722 1480.6 Q518.482 1481.44 520.287 1481.88 Q522.093 1482.32 523.829 1482.32 Q528.458 1482.32 530.889 1479.21 Q533.343 1476.09 533.69 1469.75 Q532.347 1471.74 530.287 1472.8 Q528.227 1473.87 525.727 1473.87 Q520.542 1473.87 517.509 1470.74 Q514.5 1467.59 514.5 1462.15 Q514.5 1456.83 517.648 1453.61 Q520.796 1450.39 526.028 1450.39 Q532.023 1450.39 535.171 1455 Q538.343 1459.58 538.343 1468.33 Q538.343 1476.51 534.454 1481.39 Q530.588 1486.25 524.037 1486.25 Q522.278 1486.25 520.472 1485.9 Q518.667 1485.56 516.722 1484.86 M526.028 1470.21 Q529.176 1470.21 531.005 1468.06 Q532.856 1465.9 532.856 1462.15 Q532.856 1458.43 531.005 1456.27 Q529.176 1454.1 526.028 1454.1 Q522.88 1454.1 521.028 1456.27 Q519.199 1458.43 519.199 1462.15 Q519.199 1465.9 521.028 1468.06 Q522.88 1470.21 526.028 1470.21 Z" fill="#000000" fill-rule="nonzero" fill-opacity="1" /><path clip-path="url(#clip790)" d="M546.745 1479.7 L551.629 1479.7 L551.629 1485.58 L546.745 1485.58 L546.745 1479.7 Z" fill="#000000" fill-rule="nonzero" fill-opacity="1" /><path clip-path="url(#clip790)" d="M572.393 1466.44 Q569.245 1466.44 567.393 1468.59 Q565.565 1470.74 565.565 1474.49 Q565.565 1478.22 567.393 1480.39 Q569.245 1482.55 572.393 1482.55 Q575.541 1482.55 577.37 1480.39 Q579.222 1478.22 579.222 1474.49 Q579.222 1470.74 577.37 1468.59 Q575.541 1466.44 572.393 1466.44 M581.676 1451.78 L581.676 1456.04 Q579.916 1455.21 578.111 1454.77 Q576.328 1454.33 574.569 1454.33 Q569.94 1454.33 567.486 1457.45 Q565.055 1460.58 564.708 1466.9 Q566.074 1464.89 568.134 1463.82 Q570.194 1462.73 572.671 1462.73 Q577.879 1462.73 580.889 1465.9 Q583.921 1469.05 583.921 1474.49 Q583.921 1479.82 580.773 1483.03 Q577.625 1486.25 572.393 1486.25 Q566.398 1486.25 563.227 1481.67 Q560.055 1477.06 560.055 1468.33 Q560.055 1460.14 563.944 1455.28 Q567.833 1450.39 574.384 1450.39 Q576.143 1450.39 577.926 1450.74 Q579.731 1451.09 581.676 1451.78 Z" fill="#000000" fill-rule="nonzero" fill-opacity="1" /><path clip-path="url(#clip790)" d="M881.627 1481.64 L897.946 1481.64 L897.946 1485.58 L876.002 1485.58 L876.002 1481.64 Q878.664 1478.89 883.247 1474.26 Q887.854 1469.61 889.034 1468.27 Q891.279 1465.74 892.159 1464.01 Q893.062 1462.25 893.062 1460.56 Q893.062 1457.8 891.117 1456.07 Q889.196 1454.33 886.094 1454.33 Q883.895 1454.33 881.442 1455.09 Q879.011 1455.86 876.233 1457.41 L876.233 1452.69 Q879.057 1451.55 881.511 1450.97 Q883.965 1450.39 886.002 1450.39 Q891.372 1450.39 894.566 1453.08 Q897.761 1455.77 897.761 1460.26 Q897.761 1462.39 896.951 1464.31 Q896.164 1466.2 894.057 1468.8 Q893.479 1469.47 890.377 1472.69 Q887.275 1475.88 881.627 1481.64 Z" fill="#000000" fill-rule="nonzero" fill-opacity="1" /><path clip-path="url(#clip790)" d="M907.9 1484.86 L907.9 1480.6 Q909.659 1481.44 911.465 1481.88 Q913.27 1482.32 915.006 1482.32 Q919.636 1482.32 922.066 1479.21 Q924.52 1476.09 924.867 1469.75 Q923.525 1471.74 921.464 1472.8 Q919.404 1473.87 916.904 1473.87 Q911.719 1473.87 908.687 1470.74 Q905.678 1467.59 905.678 1462.15 Q905.678 1456.83 908.826 1453.61 Q911.974 1450.39 917.205 1450.39 Q923.201 1450.39 926.349 1455 Q929.52 1459.58 929.52 1468.33 Q929.52 1476.51 925.631 1481.39 Q921.765 1486.25 915.215 1486.25 Q913.455 1486.25 911.65 1485.9 Q909.844 1485.56 907.9 1484.86 M917.205 1470.21 Q920.353 1470.21 922.182 1468.06 Q924.034 1465.9 924.034 1462.15 Q924.034 1458.43 922.182 1456.27 Q920.353 1454.1 917.205 1454.1 Q914.057 1454.1 912.205 1456.27 Q910.377 1458.43 910.377 1462.15 Q910.377 1465.9 912.205 1468.06 Q914.057 1470.21 917.205 1470.21 Z" fill="#000000" fill-rule="nonzero" fill-opacity="1" /><path clip-path="url(#clip790)" d="M937.923 1479.7 L942.807 1479.7 L942.807 1485.58 L937.923 1485.58 L937.923 1479.7 Z" fill="#000000" fill-rule="nonzero" fill-opacity="1" /><path clip-path="url(#clip790)" d="M962.992 1469.17 Q959.659 1469.17 957.737 1470.95 Q955.839 1472.73 955.839 1475.86 Q955.839 1478.98 957.737 1480.77 Q959.659 1482.55 962.992 1482.55 Q966.325 1482.55 968.247 1480.77 Q970.168 1478.96 970.168 1475.86 Q970.168 1472.73 968.247 1470.95 Q966.349 1469.17 962.992 1469.17 M958.316 1467.18 Q955.307 1466.44 953.617 1464.38 Q951.95 1462.32 951.95 1459.35 Q951.95 1455.21 954.89 1452.8 Q957.853 1450.39 962.992 1450.39 Q968.154 1450.39 971.094 1452.8 Q974.034 1455.21 974.034 1459.35 Q974.034 1462.32 972.344 1464.38 Q970.677 1466.44 967.691 1467.18 Q971.071 1467.96 972.946 1470.26 Q974.844 1472.55 974.844 1475.86 Q974.844 1480.88 971.765 1483.57 Q968.71 1486.25 962.992 1486.25 Q957.274 1486.25 954.196 1483.57 Q951.14 1480.88 951.14 1475.86 Q951.14 1472.55 953.038 1470.26 Q954.937 1467.96 958.316 1467.18 M956.603 1459.79 Q956.603 1462.48 958.27 1463.98 Q959.96 1465.49 962.992 1465.49 Q966.001 1465.49 967.691 1463.98 Q969.404 1462.48 969.404 1459.79 Q969.404 1457.11 967.691 1455.6 Q966.001 1454.1 962.992 1454.1 Q959.96 1454.1 958.27 1455.6 Q956.603 1457.11 956.603 1459.79 Z" fill="#000000" fill-rule="nonzero" fill-opacity="1" /><path clip-path="url(#clip790)" d="M1282.7 1466.95 Q1286.06 1467.66 1287.93 1469.93 Q1289.83 1472.2 1289.83 1475.53 Q1289.83 1480.65 1286.31 1483.45 Q1282.79 1486.25 1276.31 1486.25 Q1274.14 1486.25 1271.82 1485.81 Q1269.53 1485.39 1267.08 1484.54 L1267.08 1480.02 Q1269.02 1481.16 1271.33 1481.74 Q1273.65 1482.32 1276.17 1482.32 Q1280.57 1482.32 1282.86 1480.58 Q1285.18 1478.84 1285.18 1475.53 Q1285.18 1472.48 1283.02 1470.77 Q1280.89 1469.03 1277.08 1469.03 L1273.05 1469.03 L1273.05 1465.19 L1277.26 1465.19 Q1280.71 1465.19 1282.54 1463.82 Q1284.37 1462.43 1284.37 1459.84 Q1284.37 1457.18 1282.47 1455.77 Q1280.59 1454.33 1277.08 1454.33 Q1275.15 1454.33 1272.95 1454.75 Q1270.76 1455.16 1268.12 1456.04 L1268.12 1451.88 Q1270.78 1451.14 1273.09 1450.77 Q1275.43 1450.39 1277.49 1450.39 Q1282.82 1450.39 1285.92 1452.83 Q1289.02 1455.23 1289.02 1459.35 Q1289.02 1462.22 1287.38 1464.21 Q1285.73 1466.18 1282.7 1466.95 Z" fill="#000000" fill-rule="nonzero" fill-opacity="1" /><path clip-path="url(#clip790)" d="M1308.7 1454.1 Q1305.08 1454.1 1303.26 1457.66 Q1301.45 1461.2 1301.45 1468.33 Q1301.45 1475.44 1303.26 1479.01 Q1305.08 1482.55 1308.7 1482.55 Q1312.33 1482.55 1314.14 1479.01 Q1315.96 1475.44 1315.96 1468.33 Q1315.96 1461.2 1314.14 1457.66 Q1312.33 1454.1 1308.7 1454.1 M1308.7 1450.39 Q1314.51 1450.39 1317.56 1455 Q1320.64 1459.58 1320.64 1468.33 Q1320.64 1477.06 1317.56 1481.67 Q1314.51 1486.25 1308.7 1486.25 Q1302.89 1486.25 1299.81 1481.67 Q1296.75 1477.06 1296.75 1468.33 Q1296.75 1459.58 1299.81 1455 Q1302.89 1450.39 1308.7 1450.39 Z" fill="#000000" fill-rule="nonzero" fill-opacity="1" /><path clip-path="url(#clip790)" d="M1328.86 1479.7 L1333.74 1479.7 L1333.74 1485.58 L1328.86 1485.58 L1328.86 1479.7 Z" fill="#000000" fill-rule="nonzero" fill-opacity="1" /><path clip-path="url(#clip790)" d="M1353.93 1454.1 Q1350.32 1454.1 1348.49 1457.66 Q1346.68 1461.2 1346.68 1468.33 Q1346.68 1475.44 1348.49 1479.01 Q1350.32 1482.55 1353.93 1482.55 Q1357.56 1482.55 1359.37 1479.01 Q1361.19 1475.44 1361.19 1468.33 Q1361.19 1461.2 1359.37 1457.66 Q1357.56 1454.1 1353.93 1454.1 M1353.93 1450.39 Q1359.74 1450.39 1362.79 1455 Q1365.87 1459.58 1365.87 1468.33 Q1365.87 1477.06 1362.79 1481.67 Q1359.74 1486.25 1353.93 1486.25 Q1348.12 1486.25 1345.04 1481.67 Q1341.98 1477.06 1341.98 1468.33 Q1341.98 1459.58 1345.04 1455 Q1348.12 1450.39 1353.93 1450.39 Z" fill="#000000" fill-rule="nonzero" fill-opacity="1" /><path clip-path="url(#clip790)" d="M1674.55 1466.95 Q1677.91 1467.66 1679.78 1469.93 Q1681.68 1472.2 1681.68 1475.53 Q1681.68 1480.65 1678.16 1483.45 Q1674.64 1486.25 1668.16 1486.25 Q1665.98 1486.25 1663.67 1485.81 Q1661.38 1485.39 1658.92 1484.54 L1658.92 1480.02 Q1660.87 1481.16 1663.18 1481.74 Q1665.5 1482.32 1668.02 1482.32 Q1672.42 1482.32 1674.71 1480.58 Q1677.03 1478.84 1677.03 1475.53 Q1677.03 1472.48 1674.87 1470.77 Q1672.74 1469.03 1668.92 1469.03 L1664.9 1469.03 L1664.9 1465.19 L1669.11 1465.19 Q1672.56 1465.19 1674.39 1463.82 Q1676.22 1462.43 1676.22 1459.84 Q1676.22 1457.18 1674.32 1455.77 Q1672.44 1454.33 1668.92 1454.33 Q1667 1454.33 1664.8 1454.75 Q1662.6 1455.16 1659.97 1456.04 L1659.97 1451.88 Q1662.63 1451.14 1664.94 1450.77 Q1667.28 1450.39 1669.34 1450.39 Q1674.66 1450.39 1677.77 1452.83 Q1680.87 1455.23 1680.87 1459.35 Q1680.87 1462.22 1679.22 1464.21 Q1677.58 1466.18 1674.55 1466.95 Z" fill="#000000" fill-rule="nonzero" fill-opacity="1" /><path clip-path="url(#clip790)" d="M1700.54 1454.1 Q1696.93 1454.1 1695.1 1457.66 Q1693.3 1461.2 1693.3 1468.33 Q1693.3 1475.44 1695.1 1479.01 Q1696.93 1482.55 1700.54 1482.55 Q1704.18 1482.55 1705.98 1479.01 Q1707.81 1475.44 1707.81 1468.33 Q1707.81 1461.2 1705.98 1457.66 Q1704.18 1454.1 1700.54 1454.1 M1700.54 1450.39 Q1706.35 1450.39 1709.41 1455 Q1712.49 1459.58 1712.49 1468.33 Q1712.49 1477.06 1709.41 1481.67 Q1706.35 1486.25 1700.54 1486.25 Q1694.73 1486.25 1691.66 1481.67 Q1688.6 1477.06 1688.6 1468.33 Q1688.6 1459.58 1691.66 1455 Q1694.73 1450.39 1700.54 1450.39 Z" fill="#000000" fill-rule="nonzero" fill-opacity="1" /><path clip-path="url(#clip790)" d="M1720.71 1479.7 L1725.59 1479.7 L1725.59 1485.58 L1720.71 1485.58 L1720.71 1479.7 Z" fill="#000000" fill-rule="nonzero" fill-opacity="1" /><path clip-path="url(#clip790)" d="M1739.8 1481.64 L1756.12 1481.64 L1756.12 1485.58 L1734.18 1485.58 L1734.18 1481.64 Q1736.84 1478.89 1741.42 1474.26 Q1746.03 1469.61 1747.21 1468.27 Q1749.46 1465.74 1750.34 1464.01 Q1751.24 1462.25 1751.24 1460.56 Q1751.24 1457.8 1749.29 1456.07 Q1747.37 1454.33 1744.27 1454.33 Q1742.07 1454.33 1739.62 1455.09 Q1737.19 1455.86 1734.41 1457.41 L1734.41 1452.69 Q1737.23 1451.55 1739.69 1450.97 Q1742.14 1450.39 1744.18 1450.39 Q1749.55 1450.39 1752.74 1453.08 Q1755.94 1455.77 1755.94 1460.26 Q1755.94 1462.39 1755.13 1464.31 Q1754.34 1466.2 1752.23 1468.8 Q1751.65 1469.47 1748.55 1472.69 Q1745.45 1475.88 1739.8 1481.64 Z" fill="#000000" fill-rule="nonzero" fill-opacity="1" /><path clip-path="url(#clip790)" d="M2064.56 1466.95 Q2067.91 1467.66 2069.79 1469.93 Q2071.69 1472.2 2071.69 1475.53 Q2071.69 1480.65 2068.17 1483.45 Q2064.65 1486.25 2058.17 1486.25 Q2055.99 1486.25 2053.68 1485.81 Q2051.39 1485.39 2048.93 1484.54 L2048.93 1480.02 Q2050.88 1481.16 2053.19 1481.74 Q2055.51 1482.32 2058.03 1482.32 Q2062.43 1482.32 2064.72 1480.58 Q2067.03 1478.84 2067.03 1475.53 Q2067.03 1472.48 2064.88 1470.77 Q2062.75 1469.03 2058.93 1469.03 L2054.9 1469.03 L2054.9 1465.19 L2059.12 1465.19 Q2062.57 1465.19 2064.4 1463.82 Q2066.22 1462.43 2066.22 1459.84 Q2066.22 1457.18 2064.33 1455.77 Q2062.45 1454.33 2058.93 1454.33 Q2057.01 1454.33 2054.81 1454.75 Q2052.61 1455.16 2049.97 1456.04 L2049.97 1451.88 Q2052.64 1451.14 2054.95 1450.77 Q2057.29 1450.39 2059.35 1450.39 Q2064.67 1450.39 2067.77 1452.83 Q2070.88 1455.23 2070.88 1459.35 Q2070.88 1462.22 2069.23 1464.21 Q2067.59 1466.18 2064.56 1466.95 Z" fill="#000000" fill-rule="nonzero" fill-opacity="1" /><path clip-path="url(#clip790)" d="M2090.55 1454.1 Q2086.94 1454.1 2085.11 1457.66 Q2083.31 1461.2 2083.31 1468.33 Q2083.31 1475.44 2085.11 1479.01 Q2086.94 1482.55 2090.55 1482.55 Q2094.19 1482.55 2095.99 1479.01 Q2097.82 1475.44 2097.82 1468.33 Q2097.82 1461.2 2095.99 1457.66 Q2094.19 1454.1 2090.55 1454.1 M2090.55 1450.39 Q2096.36 1450.39 2099.42 1455 Q2102.5 1459.58 2102.5 1468.33 Q2102.5 1477.06 2099.42 1481.67 Q2096.36 1486.25 2090.55 1486.25 Q2084.74 1486.25 2081.66 1481.67 Q2078.61 1477.06 2078.61 1468.33 Q2078.61 1459.58 2081.66 1455 Q2084.74 1450.39 2090.55 1450.39 Z" fill="#000000" fill-rule="nonzero" fill-opacity="1" /><path clip-path="url(#clip790)" d="M2110.71 1479.7 L2115.6 1479.7 L2115.6 1485.58 L2110.71 1485.58 L2110.71 1479.7 Z" fill="#000000" fill-rule="nonzero" fill-opacity="1" /><path clip-path="url(#clip790)" d="M2138.63 1455.09 L2126.83 1473.54 L2138.63 1473.54 L2138.63 1455.09 M2137.4 1451.02 L2143.28 1451.02 L2143.28 1473.54 L2148.21 1473.54 L2148.21 1477.43 L2143.28 1477.43 L2143.28 1485.58 L2138.63 1485.58 L2138.63 1477.43 L2123.03 1477.43 L2123.03 1472.92 L2137.4 1451.02 Z" fill="#000000" fill-rule="nonzero" fill-opacity="1" /><path clip-path="url(#clip790)" d="M1024.64 1520.52 L1051.95 1520.52 L1051.95 1525.93 L1031.07 1525.93 L1031.07 1539.94 L1049.91 1539.94 L1049.91 1545.35 L1031.07 1545.35 L1031.07 1568.04 L1024.64 1568.04 L1024.64 1520.52 Z" fill="#000000" fill-rule="nonzero" fill-opacity="1" /><path clip-path="url(#clip790)" d="M1077.79 1537.87 Q1076.8 1537.3 1075.63 1537.04 Q1074.48 1536.76 1073.08 1536.76 Q1068.11 1536.76 1065.44 1540 Q1062.8 1543.22 1062.8 1549.27 L1062.8 1568.04 L1056.91 1568.04 L1056.91 1532.4 L1062.8 1532.4 L1062.8 1537.93 Q1064.65 1534.69 1067.61 1533.13 Q1070.57 1531.54 1074.8 1531.54 Q1075.4 1531.54 1076.14 1531.63 Q1076.87 1531.7 1077.76 1531.85 L1077.79 1537.87 Z" fill="#000000" fill-rule="nonzero" fill-opacity="1" /><path clip-path="url(#clip790)" d="M1112.99 1548.76 L1112.99 1551.62 L1086.07 1551.62 Q1086.45 1557.67 1089.69 1560.85 Q1092.97 1564 1098.8 1564 Q1102.17 1564 1105.32 1563.17 Q1108.51 1562.35 1111.62 1560.69 L1111.62 1566.23 Q1108.47 1567.57 1105.16 1568.27 Q1101.85 1568.97 1098.45 1568.97 Q1089.92 1568.97 1084.92 1564 Q1079.96 1559.04 1079.96 1550.57 Q1079.96 1541.82 1084.67 1536.69 Q1089.41 1531.54 1097.43 1531.54 Q1104.62 1531.54 1108.79 1536.18 Q1112.99 1540.8 1112.99 1548.76 M1107.14 1547.04 Q1107.07 1542.23 1104.43 1539.37 Q1101.82 1536.5 1097.49 1536.5 Q1092.59 1536.5 1089.63 1539.27 Q1086.7 1542.04 1086.26 1547.07 L1107.14 1547.04 Z" fill="#000000" fill-rule="nonzero" fill-opacity="1" /><path clip-path="url(#clip790)" d="M1126.11 1550.25 Q1126.11 1556.71 1128.75 1560.4 Q1131.42 1564.07 1136.07 1564.07 Q1140.72 1564.07 1143.39 1560.4 Q1146.06 1556.71 1146.06 1550.25 Q1146.06 1543.79 1143.39 1540.13 Q1140.72 1536.44 1136.07 1536.44 Q1131.42 1536.44 1128.75 1540.13 Q1126.11 1543.79 1126.11 1550.25 M1146.06 1562.7 Q1144.22 1565.88 1141.38 1567.44 Q1138.58 1568.97 1134.64 1568.97 Q1128.18 1568.97 1124.1 1563.81 Q1120.06 1558.65 1120.06 1550.25 Q1120.06 1541.85 1124.1 1536.69 Q1128.18 1531.54 1134.64 1531.54 Q1138.58 1531.54 1141.38 1533.1 Q1144.22 1534.62 1146.06 1537.81 L1146.06 1532.4 L1151.92 1532.4 L1151.92 1581.6 L1146.06 1581.6 L1146.06 1562.7 Z" fill="#000000" fill-rule="nonzero" fill-opacity="1" /><path clip-path="url(#clip790)" d="M1163.38 1553.98 L1163.38 1532.4 L1169.23 1532.4 L1169.23 1553.75 Q1169.23 1558.81 1171.21 1561.36 Q1173.18 1563.87 1177.13 1563.87 Q1181.87 1563.87 1184.61 1560.85 Q1187.38 1557.83 1187.38 1552.61 L1187.38 1532.4 L1193.23 1532.4 L1193.23 1568.04 L1187.38 1568.04 L1187.38 1562.57 Q1185.24 1565.82 1182.41 1567.41 Q1179.61 1568.97 1175.89 1568.97 Q1169.74 1568.97 1166.56 1565.15 Q1163.38 1561.33 1163.38 1553.98 M1178.11 1531.54 L1178.11 1531.54 Z" fill="#000000" fill-rule="nonzero" fill-opacity="1" /><path clip-path="url(#clip790)" d="M1235.79 1548.76 L1235.79 1551.62 L1208.86 1551.62 Q1209.24 1557.67 1212.49 1560.85 Q1215.77 1564 1221.59 1564 Q1224.97 1564 1228.12 1563.17 Q1231.3 1562.35 1234.42 1560.69 L1234.42 1566.23 Q1231.27 1567.57 1227.96 1568.27 Q1224.65 1568.97 1221.24 1568.97 Q1212.71 1568.97 1207.71 1564 Q1202.75 1559.04 1202.75 1550.57 Q1202.75 1541.82 1207.46 1536.69 Q1212.2 1531.54 1220.22 1531.54 Q1227.42 1531.54 1231.59 1536.18 Q1235.79 1540.8 1235.79 1548.76 M1229.93 1547.04 Q1229.87 1542.23 1227.23 1539.37 Q1224.62 1536.5 1220.29 1536.5 Q1215.39 1536.5 1212.43 1539.27 Q1209.5 1542.04 1209.05 1547.07 L1229.93 1547.04 Z" fill="#000000" fill-rule="nonzero" fill-opacity="1" /><path clip-path="url(#clip790)" d="M1275.03 1546.53 L1275.03 1568.04 L1269.18 1568.04 L1269.18 1546.72 Q1269.18 1541.66 1267.2 1539.14 Q1265.23 1536.63 1261.28 1536.63 Q1256.54 1536.63 1253.8 1539.65 Q1251.07 1542.68 1251.07 1547.9 L1251.07 1568.04 L1245.18 1568.04 L1245.18 1532.4 L1251.07 1532.4 L1251.07 1537.93 Q1253.17 1534.72 1256 1533.13 Q1258.86 1531.54 1262.59 1531.54 Q1268.73 1531.54 1271.88 1535.36 Q1275.03 1539.14 1275.03 1546.53 Z" fill="#000000" fill-rule="nonzero" fill-opacity="1" /><path clip-path="url(#clip790)" d="M1312.37 1533.76 L1312.37 1539.24 Q1309.88 1537.87 1307.37 1537.2 Q1304.89 1536.5 1302.34 1536.5 Q1296.64 1536.5 1293.49 1540.13 Q1290.34 1543.73 1290.34 1550.25 Q1290.34 1556.78 1293.49 1560.4 Q1296.64 1564 1302.34 1564 Q1304.89 1564 1307.37 1563.33 Q1309.88 1562.63 1312.37 1561.26 L1312.37 1566.68 Q1309.92 1567.82 1307.27 1568.39 Q1304.66 1568.97 1301.7 1568.97 Q1293.65 1568.97 1288.91 1563.91 Q1284.17 1558.85 1284.17 1550.25 Q1284.17 1541.53 1288.94 1536.53 Q1293.75 1531.54 1302.09 1531.54 Q1304.79 1531.54 1307.37 1532.11 Q1309.95 1532.65 1312.37 1533.76 Z" fill="#000000" fill-rule="nonzero" fill-opacity="1" /><path clip-path="url(#clip790)" d="M1322.55 1532.4 L1328.41 1532.4 L1328.41 1568.04 L1322.55 1568.04 L1322.55 1532.4 M1322.55 1518.52 L1328.41 1518.52 L1328.41 1525.93 L1322.55 1525.93 L1322.55 1518.52 Z" fill="#000000" fill-rule="nonzero" fill-opacity="1" /><path clip-path="url(#clip790)" d="M1371.15 1548.76 L1371.15 1551.62 L1344.23 1551.62 Q1344.61 1557.67 1347.86 1560.85 Q1351.13 1564 1356.96 1564 Q1360.33 1564 1363.48 1563.17 Q1366.67 1562.35 1369.79 1560.69 L1369.79 1566.23 Q1366.63 1567.57 1363.32 1568.27 Q1360.01 1568.97 1356.61 1568.97 Q1348.08 1568.97 1343.08 1564 Q1338.12 1559.04 1338.12 1550.57 Q1338.12 1541.82 1342.83 1536.69 Q1347.57 1531.54 1355.59 1531.54 Q1362.78 1531.54 1366.95 1536.18 Q1371.15 1540.8 1371.15 1548.76 M1365.3 1547.04 Q1365.23 1542.23 1362.59 1539.37 Q1359.98 1536.5 1355.65 1536.5 Q1350.75 1536.5 1347.79 1539.27 Q1344.86 1542.04 1344.42 1547.07 L1365.3 1547.04 Z" fill="#000000" fill-rule="nonzero" fill-opacity="1" /><path clip-path="url(#clip790)" d="M1403.49 1533.45 L1403.49 1538.98 Q1401.01 1537.71 1398.34 1537.07 Q1395.66 1536.44 1392.8 1536.44 Q1388.44 1536.44 1386.24 1537.77 Q1384.08 1539.11 1384.08 1541.79 Q1384.08 1543.82 1385.64 1545 Q1387.2 1546.15 1391.91 1547.2 L1393.91 1547.64 Q1400.15 1548.98 1402.76 1551.43 Q1405.4 1553.85 1405.4 1558.21 Q1405.4 1563.17 1401.46 1566.07 Q1397.54 1568.97 1390.67 1568.97 Q1387.8 1568.97 1384.68 1568.39 Q1381.59 1567.85 1378.16 1566.74 L1378.16 1560.69 Q1381.4 1562.38 1384.55 1563.24 Q1387.71 1564.07 1390.79 1564.07 Q1394.93 1564.07 1397.16 1562.66 Q1399.39 1561.23 1399.39 1558.65 Q1399.39 1556.27 1397.76 1554.99 Q1396.17 1553.72 1390.73 1552.54 L1388.69 1552.07 Q1383.25 1550.92 1380.83 1548.56 Q1378.41 1546.18 1378.41 1542.04 Q1378.41 1537.01 1381.98 1534.27 Q1385.54 1531.54 1392.1 1531.54 Q1395.34 1531.54 1398.21 1532.01 Q1401.07 1532.49 1403.49 1533.45 Z" fill="#000000" fill-rule="nonzero" fill-opacity="1" /><path clip-path="url(#clip790)" d="M1434.91 1518.52 L1448.4 1518.52 L1448.4 1523.07 L1440.76 1523.07 L1440.76 1572.09 L1448.4 1572.09 L1448.4 1576.64 L1434.91 1576.64 L1434.91 1518.52 Z" fill="#000000" fill-rule="nonzero" fill-opacity="1" /><path clip-path="url(#clip790)" d="M1493.54 1561.26 L1493.54 1548.5 L1483.03 1548.5 L1483.03 1543.22 L1499.9 1543.22 L1499.9 1563.62 Q1496.18 1566.26 1491.69 1567.63 Q1487.2 1568.97 1482.11 1568.97 Q1470.97 1568.97 1464.67 1562.47 Q1458.4 1555.95 1458.4 1544.33 Q1458.4 1532.68 1464.67 1526.19 Q1470.97 1519.66 1482.11 1519.66 Q1486.76 1519.66 1490.93 1520.81 Q1495.13 1521.96 1498.66 1524.18 L1498.66 1531.03 Q1495.09 1528 1491.08 1526.48 Q1487.07 1524.95 1482.65 1524.95 Q1473.93 1524.95 1469.54 1529.82 Q1465.18 1534.69 1465.18 1544.33 Q1465.18 1553.94 1469.54 1558.81 Q1473.93 1563.68 1482.65 1563.68 Q1486.06 1563.68 1488.73 1563.11 Q1491.4 1562.51 1493.54 1561.26 Z" fill="#000000" fill-rule="nonzero" fill-opacity="1" /><path clip-path="url(#clip790)" d="M1511.65 1520.52 L1518.07 1520.52 L1518.07 1540 L1541.44 1540 L1541.44 1520.52 L1547.87 1520.52 L1547.87 1568.04 L1541.44 1568.04 L1541.44 1545.41 L1518.07 1545.41 L1518.07 1568.04 L1511.65 1568.04 L1511.65 1520.52 Z" fill="#000000" fill-rule="nonzero" fill-opacity="1" /><path clip-path="url(#clip790)" d="M1557.86 1532.4 L1585.68 1532.4 L1585.68 1537.74 L1563.65 1563.37 L1585.68 1563.37 L1585.68 1568.04 L1557.06 1568.04 L1557.06 1562.7 L1579.09 1537.07 L1557.86 1537.07 L1557.86 1532.4 Z" fill="#000000" fill-rule="nonzero" fill-opacity="1" /><path clip-path="url(#clip790)" d="M1608.31 1518.52 L1608.31 1576.64 L1594.81 1576.64 L1594.81 1572.09 L1602.42 1572.09 L1602.42 1523.07 L1594.81 1523.07 L1594.81 1518.52 L1608.31 1518.52 Z" fill="#000000" fill-rule="nonzero" fill-opacity="1" /><polyline clip-path="url(#clip790)" style="stroke:#000000; stroke-linecap:round; stroke-linejoin:round; stroke-width:4; stroke-opacity:1; fill:none" points="280.19,1423.18 280.19,47.2441 "/>
<polyline clip-path="url(#clip790)" style="stroke:#000000; stroke-linecap:round; stroke-linejoin:round; stroke-width:4; stroke-opacity:1; fill:none" points="280.19,1299.4 299.088,1299.4 "/>
<polyline clip-path="url(#clip790)" style="stroke:#000000; stroke-linecap:round; stroke-linejoin:round; stroke-width:4; stroke-opacity:1; fill:none" points="280.19,992.352 299.088,992.352 "/>
<polyline clip-path="url(#clip790)" style="stroke:#000000; stroke-linecap:round; stroke-linejoin:round; stroke-width:4; stroke-opacity:1; fill:none" points="280.19,685.306 299.088,685.306 "/>
<polyline clip-path="url(#clip790)" style="stroke:#000000; stroke-linecap:round; stroke-linejoin:round; stroke-width:4; stroke-opacity:1; fill:none" points="280.19,378.26 299.088,378.26 "/>
<polyline clip-path="url(#clip790)" style="stroke:#000000; stroke-linecap:round; stroke-linejoin:round; stroke-width:4; stroke-opacity:1; fill:none" points="280.19,71.2135 299.088,71.2135 "/>
<path clip-path="url(#clip790)" d="M128.288 1285.2 Q124.677 1285.2 122.848 1288.76 Q121.043 1292.3 121.043 1299.43 Q121.043 1306.54 122.848 1310.1 Q124.677 1313.65 128.288 1313.65 Q131.922 1313.65 133.728 1310.1 Q135.556 1306.54 135.556 1299.43 Q135.556 1292.3 133.728 1288.76 Q131.922 1285.2 128.288 1285.2 M128.288 1281.49 Q134.098 1281.49 137.154 1286.1 Q140.232 1290.68 140.232 1299.43 Q140.232 1308.16 137.154 1312.77 Q134.098 1317.35 128.288 1317.35 Q122.478 1317.35 119.399 1312.77 Q116.343 1308.16 116.343 1299.43 Q116.343 1290.68 119.399 1286.1 Q122.478 1281.49 128.288 1281.49 Z" fill="#000000" fill-rule="nonzero" fill-opacity="1" /><path clip-path="url(#clip790)" d="M148.45 1310.8 L153.334 1310.8 L153.334 1316.68 L148.45 1316.68 L148.45 1310.8 Z" fill="#000000" fill-rule="nonzero" fill-opacity="1" /><path clip-path="url(#clip790)" d="M163.658 1315.96 L163.658 1311.7 Q165.417 1312.53 167.223 1312.97 Q169.028 1313.41 170.764 1313.41 Q175.394 1313.41 177.825 1310.31 Q180.278 1307.19 180.626 1300.85 Q179.283 1302.84 177.223 1303.9 Q175.163 1304.97 172.663 1304.97 Q167.477 1304.97 164.445 1301.84 Q161.436 1298.69 161.436 1293.25 Q161.436 1287.93 164.584 1284.71 Q167.732 1281.49 172.964 1281.49 Q178.959 1281.49 182.107 1286.1 Q185.278 1290.68 185.278 1299.43 Q185.278 1307.6 181.389 1312.49 Q177.524 1317.35 170.973 1317.35 Q169.214 1317.35 167.408 1317 Q165.602 1316.66 163.658 1315.96 M172.964 1301.31 Q176.112 1301.31 177.94 1299.16 Q179.792 1297 179.792 1293.25 Q179.792 1289.53 177.94 1287.37 Q176.112 1285.2 172.964 1285.2 Q169.815 1285.2 167.964 1287.37 Q166.135 1289.53 166.135 1293.25 Q166.135 1297 167.964 1299.16 Q169.815 1301.31 172.964 1301.31 Z" fill="#000000" fill-rule="nonzero" fill-opacity="1" /><path clip-path="url(#clip790)" d="M193.82 1315.96 L193.82 1311.7 Q195.579 1312.53 197.385 1312.97 Q199.19 1313.41 200.926 1313.41 Q205.556 1313.41 207.987 1310.31 Q210.44 1307.19 210.787 1300.85 Q209.445 1302.84 207.385 1303.9 Q205.324 1304.97 202.824 1304.97 Q197.639 1304.97 194.607 1301.84 Q191.598 1298.69 191.598 1293.25 Q191.598 1287.93 194.746 1284.71 Q197.894 1281.49 203.125 1281.49 Q209.121 1281.49 212.269 1286.1 Q215.44 1290.68 215.44 1299.43 Q215.44 1307.6 211.551 1312.49 Q207.686 1317.35 201.135 1317.35 Q199.375 1317.35 197.57 1317 Q195.764 1316.66 193.82 1315.96 M203.125 1301.31 Q206.274 1301.31 208.102 1299.16 Q209.954 1297 209.954 1293.25 Q209.954 1289.53 208.102 1287.37 Q206.274 1285.2 203.125 1285.2 Q199.977 1285.2 198.125 1287.37 Q196.297 1289.53 196.297 1293.25 Q196.297 1297 198.125 1299.16 Q199.977 1301.31 203.125 1301.31 Z" fill="#000000" fill-rule="nonzero" fill-opacity="1" /><path clip-path="url(#clip790)" d="M227.871 1312.74 L244.19 1312.74 L244.19 1316.68 L222.246 1316.68 L222.246 1312.74 Q224.908 1309.99 229.491 1305.36 Q234.097 1300.71 235.278 1299.36 Q237.523 1296.84 238.403 1295.1 Q239.306 1293.35 239.306 1291.66 Q239.306 1288.9 237.361 1287.16 Q235.44 1285.43 232.338 1285.43 Q230.139 1285.43 227.685 1286.19 Q225.255 1286.96 222.477 1288.51 L222.477 1283.79 Q225.301 1282.65 227.755 1282.07 Q230.209 1281.49 232.246 1281.49 Q237.616 1281.49 240.81 1284.18 Q244.005 1286.86 244.005 1291.35 Q244.005 1293.48 243.195 1295.41 Q242.408 1297.3 240.301 1299.9 Q239.722 1300.57 236.621 1303.79 Q233.519 1306.98 227.871 1312.74 Z" fill="#000000" fill-rule="nonzero" fill-opacity="1" /><path clip-path="url(#clip790)" d="M126.205 978.151 Q122.593 978.151 120.765 981.716 Q118.959 985.257 118.959 992.387 Q118.959 999.493 120.765 1003.06 Q122.593 1006.6 126.205 1006.6 Q129.839 1006.6 131.644 1003.06 Q133.473 999.493 133.473 992.387 Q133.473 985.257 131.644 981.716 Q129.839 978.151 126.205 978.151 M126.205 974.447 Q132.015 974.447 135.07 979.054 Q138.149 983.637 138.149 992.387 Q138.149 1001.11 135.07 1005.72 Q132.015 1010.3 126.205 1010.3 Q120.394 1010.3 117.316 1005.72 Q114.26 1001.11 114.26 992.387 Q114.26 983.637 117.316 979.054 Q120.394 974.447 126.205 974.447 Z" fill="#000000" fill-rule="nonzero" fill-opacity="1" /><path clip-path="url(#clip790)" d="M146.366 1003.75 L151.251 1003.75 L151.251 1009.63 L146.366 1009.63 L146.366 1003.75 Z" fill="#000000" fill-rule="nonzero" fill-opacity="1" /><path clip-path="url(#clip790)" d="M161.575 1008.91 L161.575 1004.66 Q163.334 1005.49 165.14 1005.93 Q166.945 1006.37 168.681 1006.37 Q173.311 1006.37 175.741 1003.27 Q178.195 1000.14 178.542 993.799 Q177.2 995.79 175.139 996.855 Q173.079 997.919 170.579 997.919 Q165.394 997.919 162.362 994.794 Q159.353 991.646 159.353 986.206 Q159.353 980.882 162.501 977.665 Q165.649 974.447 170.88 974.447 Q176.876 974.447 180.024 979.054 Q183.195 983.637 183.195 992.387 Q183.195 1000.56 179.306 1005.44 Q175.44 1010.3 168.889 1010.3 Q167.13 1010.3 165.325 1009.96 Q163.519 1009.61 161.575 1008.91 M170.88 994.262 Q174.028 994.262 175.857 992.109 Q177.709 989.956 177.709 986.206 Q177.709 982.48 175.857 980.327 Q174.028 978.151 170.88 978.151 Q167.732 978.151 165.88 980.327 Q164.052 982.48 164.052 986.206 Q164.052 989.956 165.88 992.109 Q167.732 994.262 170.88 994.262 Z" fill="#000000" fill-rule="nonzero" fill-opacity="1" /><path clip-path="url(#clip790)" d="M191.737 1008.91 L191.737 1004.66 Q193.496 1005.49 195.301 1005.93 Q197.107 1006.37 198.843 1006.37 Q203.473 1006.37 205.903 1003.27 Q208.357 1000.14 208.704 993.799 Q207.362 995.79 205.301 996.855 Q203.241 997.919 200.741 997.919 Q195.556 997.919 192.524 994.794 Q189.514 991.646 189.514 986.206 Q189.514 980.882 192.663 977.665 Q195.811 974.447 201.042 974.447 Q207.037 974.447 210.186 979.054 Q213.357 983.637 213.357 992.387 Q213.357 1000.56 209.468 1005.44 Q205.602 1010.3 199.051 1010.3 Q197.292 1010.3 195.487 1009.96 Q193.681 1009.61 191.737 1008.91 M201.042 994.262 Q204.19 994.262 206.019 992.109 Q207.871 989.956 207.871 986.206 Q207.871 982.48 206.019 980.327 Q204.19 978.151 201.042 978.151 Q197.894 978.151 196.042 980.327 Q194.213 982.48 194.213 986.206 Q194.213 989.956 196.042 992.109 Q197.894 994.262 201.042 994.262 Z" fill="#000000" fill-rule="nonzero" fill-opacity="1" /><path clip-path="url(#clip790)" d="M234.607 979.146 L222.801 997.595 L234.607 997.595 L234.607 979.146 M233.38 975.072 L239.259 975.072 L239.259 997.595 L244.19 997.595 L244.19 1001.48 L239.259 1001.48 L239.259 1009.63 L234.607 1009.63 L234.607 1001.48 L219.005 1001.48 L219.005 996.97 L233.38 975.072 Z" fill="#000000" fill-rule="nonzero" fill-opacity="1" /><path clip-path="url(#clip790)" d="M126.529 671.105 Q122.918 671.105 121.089 674.669 Q119.283 678.211 119.283 685.341 Q119.283 692.447 121.089 696.012 Q122.918 699.554 126.529 699.554 Q130.163 699.554 131.968 696.012 Q133.797 692.447 133.797 685.341 Q133.797 678.211 131.968 674.669 Q130.163 671.105 126.529 671.105 M126.529 667.401 Q132.339 667.401 135.394 672.007 Q138.473 676.591 138.473 685.341 Q138.473 694.068 135.394 698.674 Q132.339 703.257 126.529 703.257 Q120.718 703.257 117.64 698.674 Q114.584 694.068 114.584 685.341 Q114.584 676.591 117.64 672.007 Q120.718 667.401 126.529 667.401 Z" fill="#000000" fill-rule="nonzero" fill-opacity="1" /><path clip-path="url(#clip790)" d="M146.691 696.706 L151.575 696.706 L151.575 702.586 L146.691 702.586 L146.691 696.706 Z" fill="#000000" fill-rule="nonzero" fill-opacity="1" /><path clip-path="url(#clip790)" d="M161.899 701.868 L161.899 697.609 Q163.658 698.442 165.464 698.882 Q167.269 699.322 169.005 699.322 Q173.635 699.322 176.065 696.22 Q178.519 693.095 178.866 686.753 Q177.524 688.743 175.464 689.808 Q173.403 690.873 170.903 690.873 Q165.718 690.873 162.686 687.748 Q159.677 684.6 159.677 679.16 Q159.677 673.836 162.825 670.619 Q165.973 667.401 171.204 667.401 Q177.2 667.401 180.348 672.007 Q183.519 676.591 183.519 685.341 Q183.519 693.512 179.63 698.396 Q175.764 703.257 169.214 703.257 Q167.454 703.257 165.649 702.91 Q163.843 702.563 161.899 701.868 M171.204 687.216 Q174.352 687.216 176.181 685.063 Q178.033 682.91 178.033 679.16 Q178.033 675.433 176.181 673.281 Q174.352 671.105 171.204 671.105 Q168.056 671.105 166.204 673.281 Q164.376 675.433 164.376 679.16 Q164.376 682.91 166.204 685.063 Q168.056 687.216 171.204 687.216 Z" fill="#000000" fill-rule="nonzero" fill-opacity="1" /><path clip-path="url(#clip790)" d="M192.061 701.868 L192.061 697.609 Q193.82 698.442 195.625 698.882 Q197.431 699.322 199.167 699.322 Q203.797 699.322 206.227 696.22 Q208.681 693.095 209.028 686.753 Q207.686 688.743 205.625 689.808 Q203.565 690.873 201.065 690.873 Q195.88 690.873 192.848 687.748 Q189.838 684.6 189.838 679.16 Q189.838 673.836 192.987 670.619 Q196.135 667.401 201.366 667.401 Q207.362 667.401 210.51 672.007 Q213.681 676.591 213.681 685.341 Q213.681 693.512 209.792 698.396 Q205.926 703.257 199.375 703.257 Q197.616 703.257 195.811 702.91 Q194.005 702.563 192.061 701.868 M201.366 687.216 Q204.514 687.216 206.343 685.063 Q208.195 682.91 208.195 679.16 Q208.195 675.433 206.343 673.281 Q204.514 671.105 201.366 671.105 Q198.218 671.105 196.366 673.281 Q194.538 675.433 194.538 679.16 Q194.538 682.91 196.366 685.063 Q198.218 687.216 201.366 687.216 Z" fill="#000000" fill-rule="nonzero" fill-opacity="1" /><path clip-path="url(#clip790)" d="M232.662 683.443 Q229.514 683.443 227.662 685.595 Q225.834 687.748 225.834 691.498 Q225.834 695.225 227.662 697.401 Q229.514 699.554 232.662 699.554 Q235.81 699.554 237.639 697.401 Q239.491 695.225 239.491 691.498 Q239.491 687.748 237.639 685.595 Q235.81 683.443 232.662 683.443 M241.945 668.79 L241.945 673.049 Q240.185 672.216 238.38 671.776 Q236.597 671.336 234.838 671.336 Q230.209 671.336 227.755 674.461 Q225.324 677.586 224.977 683.906 Q226.343 681.892 228.403 680.827 Q230.463 679.739 232.94 679.739 Q238.148 679.739 241.158 682.91 Q244.19 686.058 244.19 691.498 Q244.19 696.822 241.042 700.04 Q237.894 703.257 232.662 703.257 Q226.667 703.257 223.496 698.674 Q220.324 694.068 220.324 685.341 Q220.324 677.146 224.213 672.285 Q228.102 667.401 234.653 667.401 Q236.412 667.401 238.195 667.748 Q240 668.095 241.945 668.79 Z" fill="#000000" fill-rule="nonzero" fill-opacity="1" /><path clip-path="url(#clip790)" d="M126.783 364.058 Q123.172 364.058 121.343 367.623 Q119.538 371.165 119.538 378.294 Q119.538 385.401 121.343 388.966 Q123.172 392.507 126.783 392.507 Q130.417 392.507 132.223 388.966 Q134.052 385.401 134.052 378.294 Q134.052 371.165 132.223 367.623 Q130.417 364.058 126.783 364.058 M126.783 360.355 Q132.593 360.355 135.649 364.961 Q138.728 369.545 138.728 378.294 Q138.728 387.021 135.649 391.628 Q132.593 396.211 126.783 396.211 Q120.973 396.211 117.894 391.628 Q114.839 387.021 114.839 378.294 Q114.839 369.545 117.894 364.961 Q120.973 360.355 126.783 360.355 Z" fill="#000000" fill-rule="nonzero" fill-opacity="1" /><path clip-path="url(#clip790)" d="M146.945 389.66 L151.829 389.66 L151.829 395.54 L146.945 395.54 L146.945 389.66 Z" fill="#000000" fill-rule="nonzero" fill-opacity="1" /><path clip-path="url(#clip790)" d="M162.153 394.822 L162.153 390.563 Q163.913 391.396 165.718 391.836 Q167.524 392.276 169.26 392.276 Q173.889 392.276 176.32 389.174 Q178.774 386.049 179.121 379.706 Q177.778 381.697 175.718 382.762 Q173.658 383.827 171.158 383.827 Q165.973 383.827 162.94 380.702 Q159.931 377.554 159.931 372.114 Q159.931 366.79 163.079 363.572 Q166.227 360.355 171.459 360.355 Q177.454 360.355 180.602 364.961 Q183.774 369.545 183.774 378.294 Q183.774 386.466 179.885 391.35 Q176.019 396.211 169.468 396.211 Q167.709 396.211 165.903 395.864 Q164.098 395.517 162.153 394.822 M171.459 380.169 Q174.607 380.169 176.436 378.017 Q178.288 375.864 178.288 372.114 Q178.288 368.387 176.436 366.234 Q174.607 364.058 171.459 364.058 Q168.311 364.058 166.459 366.234 Q164.63 368.387 164.63 372.114 Q164.63 375.864 166.459 378.017 Q168.311 380.169 171.459 380.169 Z" fill="#000000" fill-rule="nonzero" fill-opacity="1" /><path clip-path="url(#clip790)" d="M192.315 394.822 L192.315 390.563 Q194.075 391.396 195.88 391.836 Q197.686 392.276 199.422 392.276 Q204.051 392.276 206.482 389.174 Q208.936 386.049 209.283 379.706 Q207.94 381.697 205.88 382.762 Q203.82 383.827 201.32 383.827 Q196.135 383.827 193.102 380.702 Q190.093 377.554 190.093 372.114 Q190.093 366.79 193.241 363.572 Q196.389 360.355 201.621 360.355 Q207.616 360.355 210.764 364.961 Q213.936 369.545 213.936 378.294 Q213.936 386.466 210.047 391.35 Q206.181 396.211 199.63 396.211 Q197.871 396.211 196.065 395.864 Q194.26 395.517 192.315 394.822 M201.621 380.169 Q204.769 380.169 206.598 378.017 Q208.449 375.864 208.449 372.114 Q208.449 368.387 206.598 366.234 Q204.769 364.058 201.621 364.058 Q198.473 364.058 196.621 366.234 Q194.792 368.387 194.792 372.114 Q194.792 375.864 196.621 378.017 Q198.473 380.169 201.621 380.169 Z" fill="#000000" fill-rule="nonzero" fill-opacity="1" /><path clip-path="url(#clip790)" d="M232.338 379.128 Q229.005 379.128 227.084 380.91 Q225.185 382.693 225.185 385.818 Q225.185 388.943 227.084 390.725 Q229.005 392.507 232.338 392.507 Q235.672 392.507 237.593 390.725 Q239.514 388.919 239.514 385.818 Q239.514 382.693 237.593 380.91 Q235.695 379.128 232.338 379.128 M227.662 377.137 Q224.653 376.396 222.963 374.336 Q221.297 372.276 221.297 369.313 Q221.297 365.17 224.236 362.762 Q227.199 360.355 232.338 360.355 Q237.5 360.355 240.44 362.762 Q243.38 365.17 243.38 369.313 Q243.38 372.276 241.69 374.336 Q240.023 376.396 237.037 377.137 Q240.417 377.924 242.292 380.216 Q244.19 382.507 244.19 385.818 Q244.19 390.841 241.111 393.526 Q238.056 396.211 232.338 396.211 Q226.621 396.211 223.542 393.526 Q220.486 390.841 220.486 385.818 Q220.486 382.507 222.385 380.216 Q224.283 377.924 227.662 377.137 M225.949 369.753 Q225.949 372.438 227.616 373.943 Q229.306 375.447 232.338 375.447 Q235.347 375.447 237.037 373.943 Q238.75 372.438 238.75 369.753 Q238.75 367.068 237.037 365.563 Q235.347 364.058 232.338 364.058 Q229.306 364.058 227.616 365.563 Q225.949 367.068 225.949 369.753 Z" fill="#000000" fill-rule="nonzero" fill-opacity="1" /><path clip-path="url(#clip790)" d="M117.501 84.5583 L125.14 84.5583 L125.14 58.1927 L116.83 59.8594 L116.83 55.6002 L125.093 53.9335 L129.769 53.9335 L129.769 84.5583 L137.408 84.5583 L137.408 88.4935 L117.501 88.4935 L117.501 84.5583 Z" fill="#000000" fill-rule="nonzero" fill-opacity="1" /><path clip-path="url(#clip790)" d="M146.853 82.6139 L151.737 82.6139 L151.737 88.4935 L146.853 88.4935 L146.853 82.6139 Z" fill="#000000" fill-rule="nonzero" fill-opacity="1" /><path clip-path="url(#clip790)" d="M171.922 57.0122 Q168.311 57.0122 166.482 60.577 Q164.677 64.1186 164.677 71.2482 Q164.677 78.3547 166.482 81.9195 Q168.311 85.4611 171.922 85.4611 Q175.556 85.4611 177.362 81.9195 Q179.19 78.3547 179.19 71.2482 Q179.19 64.1186 177.362 60.577 Q175.556 57.0122 171.922 57.0122 M171.922 53.3085 Q177.732 53.3085 180.788 57.915 Q183.866 62.4983 183.866 71.2482 Q183.866 79.975 180.788 84.5815 Q177.732 89.1648 171.922 89.1648 Q166.112 89.1648 163.033 84.5815 Q159.978 79.975 159.978 71.2482 Q159.978 62.4983 163.033 57.915 Q166.112 53.3085 171.922 53.3085 Z" fill="#000000" fill-rule="nonzero" fill-opacity="1" /><path clip-path="url(#clip790)" d="M202.084 57.0122 Q198.473 57.0122 196.644 60.577 Q194.838 64.1186 194.838 71.2482 Q194.838 78.3547 196.644 81.9195 Q198.473 85.4611 202.084 85.4611 Q205.718 85.4611 207.524 81.9195 Q209.352 78.3547 209.352 71.2482 Q209.352 64.1186 207.524 60.577 Q205.718 57.0122 202.084 57.0122 M202.084 53.3085 Q207.894 53.3085 210.949 57.915 Q214.028 62.4983 214.028 71.2482 Q214.028 79.975 210.949 84.5815 Q207.894 89.1648 202.084 89.1648 Q196.274 89.1648 193.195 84.5815 Q190.139 79.975 190.139 71.2482 Q190.139 62.4983 193.195 57.915 Q196.274 53.3085 202.084 53.3085 Z" fill="#000000" fill-rule="nonzero" fill-opacity="1" /><path clip-path="url(#clip790)" d="M232.246 57.0122 Q228.635 57.0122 226.806 60.577 Q225 64.1186 225 71.2482 Q225 78.3547 226.806 81.9195 Q228.635 85.4611 232.246 85.4611 Q235.88 85.4611 237.685 81.9195 Q239.514 78.3547 239.514 71.2482 Q239.514 64.1186 237.685 60.577 Q235.88 57.0122 232.246 57.0122 M232.246 53.3085 Q238.056 53.3085 241.111 57.915 Q244.19 62.4983 244.19 71.2482 Q244.19 79.975 241.111 84.5815 Q238.056 89.1648 232.246 89.1648 Q226.435 89.1648 223.357 84.5815 Q220.301 79.975 220.301 71.2482 Q220.301 62.4983 223.357 57.915 Q226.435 53.3085 232.246 53.3085 Z" fill="#000000" fill-rule="nonzero" fill-opacity="1" /><path clip-path="url(#clip790)" d="M41.7242 981.804 Q42.4244 979.735 44.7161 977.793 Q47.0077 975.82 51.0181 973.846 L64.0042 967.322 L64.0042 974.228 L51.8138 980.308 Q47.0395 982.663 45.48 984.891 Q43.9204 987.087 43.9204 990.906 L43.9204 997.909 L64.0042 997.909 L64.0042 1004.34 L16.4842 1004.34 L16.4842 989.824 Q16.4842 981.676 19.8898 977.666 Q23.2955 973.655 30.1704 973.655 Q34.6582 973.655 37.6183 975.756 Q40.5784 977.825 41.7242 981.804 M21.7677 997.909 L38.6368 997.909 L38.6368 989.824 Q38.6368 985.177 36.5043 982.822 Q34.34 980.435 30.1704 980.435 Q26.0009 980.435 23.9002 982.822 Q21.7677 985.177 21.7677 989.824 L21.7677 997.909 Z" fill="#000000" fill-rule="nonzero" fill-opacity="1" /><path clip-path="url(#clip790)" d="M44.7161 931.737 L47.5806 931.737 L47.5806 958.664 Q53.6281 958.282 56.8109 955.036 Q59.9619 951.757 59.9619 945.933 Q59.9619 942.559 59.1344 939.408 Q58.3069 936.225 56.6518 933.106 L62.1899 933.106 Q63.5267 936.257 64.227 939.567 Q64.9272 942.877 64.9272 946.283 Q64.9272 954.813 59.9619 959.81 Q54.9967 964.775 46.5303 964.775 Q37.7774 964.775 32.6531 960.065 Q27.4968 955.322 27.4968 947.301 Q27.4968 940.108 32.1438 935.939 Q36.7589 931.737 44.7161 931.737 M42.9973 937.594 Q38.1912 937.657 35.3266 940.299 Q32.4621 942.909 32.4621 947.238 Q32.4621 952.139 35.2312 955.099 Q38.0002 958.028 43.0292 958.473 L42.9973 937.594 Z" fill="#000000" fill-rule="nonzero" fill-opacity="1" /><path clip-path="url(#clip790)" d="M14.479 904.078 L19.3487 904.078 L19.3487 909.68 Q19.3487 912.831 20.6219 914.072 Q21.895 915.282 25.2052 915.282 L28.3562 915.282 L28.3562 905.638 L32.9077 905.638 L32.9077 915.282 L64.0042 915.282 L64.0042 921.17 L32.9077 921.17 L32.9077 926.772 L28.3562 926.772 L28.3562 921.17 L25.8736 921.17 Q19.9216 921.17 17.2162 918.401 Q14.479 915.632 14.479 909.616 L14.479 904.078 Z" fill="#000000" fill-rule="nonzero" fill-opacity="1" /><path clip-path="url(#clip790)" d="M14.479 899.177 L14.479 893.32 L64.0042 893.32 L64.0042 899.177 L14.479 899.177 Z" fill="#000000" fill-rule="nonzero" fill-opacity="1" /><path clip-path="url(#clip790)" d="M44.7161 850.574 L47.5806 850.574 L47.5806 877.501 Q53.6281 877.119 56.8109 873.873 Q59.9619 870.595 59.9619 864.77 Q59.9619 861.396 59.1344 858.245 Q58.3069 855.062 56.6518 851.943 L62.1899 851.943 Q63.5267 855.094 64.227 858.404 Q64.9272 861.714 64.9272 865.12 Q64.9272 873.65 59.9619 878.647 Q54.9967 883.613 46.5303 883.613 Q37.7774 883.613 32.6531 878.902 Q27.4968 874.159 27.4968 866.139 Q27.4968 858.945 32.1438 854.776 Q36.7589 850.574 44.7161 850.574 M42.9973 856.431 Q38.1912 856.495 35.3266 859.136 Q32.4621 861.746 32.4621 866.075 Q32.4621 870.977 35.2312 873.937 Q38.0002 876.865 43.0292 877.31 L42.9973 856.431 Z" fill="#000000" fill-rule="nonzero" fill-opacity="1" /><path clip-path="url(#clip790)" d="M29.7248 815.308 L35.1993 815.308 Q33.8307 817.791 33.1623 820.306 Q32.4621 822.788 32.4621 825.334 Q32.4621 831.032 36.0905 834.183 Q39.6872 837.334 46.212 837.334 Q52.7369 837.334 56.3653 834.183 Q59.9619 831.032 59.9619 825.334 Q59.9619 822.788 59.2935 820.306 Q58.5933 817.791 57.2247 815.308 L62.6355 815.308 Q63.7814 817.759 64.3543 820.401 Q64.9272 823.011 64.9272 825.971 Q64.9272 834.024 59.8664 838.766 Q54.8057 843.509 46.212 843.509 Q37.491 843.509 32.4939 838.734 Q27.4968 833.928 27.4968 825.589 Q27.4968 822.884 28.0697 820.306 Q28.6108 817.727 29.7248 815.308 Z" fill="#000000" fill-rule="nonzero" fill-opacity="1" /><path clip-path="url(#clip790)" d="M18.2347 799.331 L28.3562 799.331 L28.3562 787.268 L32.9077 787.268 L32.9077 799.331 L52.2594 799.331 Q56.6199 799.331 57.8613 798.153 Q59.1026 796.943 59.1026 793.283 L59.1026 787.268 L64.0042 787.268 L64.0042 793.283 Q64.0042 800.063 61.4897 802.641 Q58.9434 805.219 52.2594 805.219 L32.9077 805.219 L32.9077 809.516 L28.3562 809.516 L28.3562 805.219 L18.2347 805.219 L18.2347 799.331 Z" fill="#000000" fill-rule="nonzero" fill-opacity="1" /><path clip-path="url(#clip790)" d="M28.3562 779.565 L28.3562 773.709 L64.0042 773.709 L64.0042 779.565 L28.3562 779.565 M14.479 779.565 L14.479 773.709 L21.895 773.709 L21.895 779.565 L14.479 779.565 Z" fill="#000000" fill-rule="nonzero" fill-opacity="1" /><path clip-path="url(#clip790)" d="M28.3562 765.656 L28.3562 759.449 L58.275 748.309 L28.3562 737.169 L28.3562 730.963 L64.0042 744.331 L64.0042 752.288 L28.3562 765.656 Z" fill="#000000" fill-rule="nonzero" fill-opacity="1" /><path clip-path="url(#clip790)" d="M28.3562 722.878 L28.3562 717.022 L64.0042 717.022 L64.0042 722.878 L28.3562 722.878 M14.479 722.878 L14.479 717.022 L21.895 717.022 L21.895 722.878 L14.479 722.878 Z" fill="#000000" fill-rule="nonzero" fill-opacity="1" /><path clip-path="url(#clip790)" d="M18.2347 698.975 L28.3562 698.975 L28.3562 686.912 L32.9077 686.912 L32.9077 698.975 L52.2594 698.975 Q56.6199 698.975 57.8613 697.798 Q59.1026 696.588 59.1026 692.928 L59.1026 686.912 L64.0042 686.912 L64.0042 692.928 Q64.0042 699.707 61.4897 702.285 Q58.9434 704.863 52.2594 704.863 L32.9077 704.863 L32.9077 709.16 L28.3562 709.16 L28.3562 704.863 L18.2347 704.863 L18.2347 698.975 Z" fill="#000000" fill-rule="nonzero" fill-opacity="1" /><path clip-path="url(#clip790)" d="M67.3143 664.378 Q73.68 666.86 75.6216 669.216 Q77.5631 671.571 77.5631 675.518 L77.5631 680.196 L72.6615 680.196 L72.6615 676.759 Q72.6615 674.34 71.5157 673.003 Q70.3699 671.666 66.1048 670.043 L63.4312 668.993 L28.3562 683.411 L28.3562 677.204 L56.238 666.064 L28.3562 654.924 L28.3562 648.718 L67.3143 664.378 Z" fill="#000000" fill-rule="nonzero" fill-opacity="1" /><path clip-path="url(#clip790)" d="M14.1925 612.37 L79.3773 612.37 L79.3773 617.781 L14.1925 617.781 L14.1925 612.37 Z" fill="#000000" fill-rule="nonzero" fill-opacity="1" /><path clip-path="url(#clip790)" d="M18.0438 569.21 L24.314 569.21 Q22.5634 572.871 21.704 576.117 Q20.8447 579.364 20.8447 582.387 Q20.8447 587.639 22.8817 590.504 Q24.9187 593.336 28.6745 593.336 Q31.8255 593.336 33.4488 591.458 Q35.0402 589.549 36.0269 584.265 L36.8226 580.382 Q38.1912 573.189 41.6605 569.783 Q45.098 566.346 50.8908 566.346 Q57.7976 566.346 61.3624 570.993 Q64.9272 575.608 64.9272 584.552 Q64.9272 587.925 64.1633 591.745 Q63.3994 595.532 61.9035 599.607 L55.2831 599.607 Q57.4793 595.692 58.5933 591.936 Q59.7073 588.18 59.7073 584.552 Q59.7073 579.045 57.543 576.053 Q55.3786 573.062 51.3682 573.062 Q47.8671 573.062 45.8937 575.226 Q43.9204 577.358 42.9337 582.26 L42.1698 586.175 Q40.7375 593.368 37.682 596.583 Q34.6264 599.797 29.1837 599.797 Q22.8817 599.797 19.2532 595.373 Q15.6248 590.917 15.6248 583.119 Q15.6248 579.777 16.2295 576.308 Q16.8343 572.839 18.0438 569.21 Z" fill="#000000" fill-rule="nonzero" fill-opacity="1" /><path clip-path="url(#clip790)" d="M58.5933 554.633 L58.5933 544.129 L22.3406 544.129 L24.6323 555.556 L18.7758 555.556 L16.4842 544.193 L16.4842 537.764 L58.5933 537.764 L58.5933 527.26 L64.0042 527.26 L64.0042 554.633 L58.5933 554.633 Z" fill="#000000" fill-rule="nonzero" fill-opacity="1" /><path clip-path="url(#clip790)" d="M58.5933 513.16 L58.5933 502.657 L22.3406 502.657 L24.6323 514.083 L18.7758 514.083 L16.4842 502.72 L16.4842 496.291 L58.5933 496.291 L58.5933 485.788 L64.0042 485.788 L64.0042 513.16 L58.5933 513.16 Z" fill="#000000" fill-rule="nonzero" fill-opacity="1" /><path clip-path="url(#clip790)" d="M14.1925 466.086 L79.3773 466.086 L79.3773 471.497 L14.1925 471.497 L14.1925 466.086 Z" fill="#000000" fill-rule="nonzero" fill-opacity="1" /><polyline clip-path="url(#clip792)" style="stroke:#009af9; stroke-linecap:round; stroke-linejoin:round; stroke-width:4; stroke-opacity:1; fill:none" points="338.848,86.1857 340.805,86.1975 342.762,86.2095 344.719,86.2216 346.676,86.2339 348.634,86.2462 350.591,86.2587 352.548,86.2712 354.505,86.2839 356.462,86.2968 358.42,86.3097 360.377,86.3228 362.334,86.336 364.291,86.3493 366.248,86.3628 368.206,86.3764 370.163,86.3901 372.12,86.4039 374.077,86.4179 376.034,86.432 377.992,86.4463 379.949,86.4607 381.906,86.4752 383.863,86.4898 385.821,86.5046 387.778,86.5196 389.735,86.5347 391.692,86.5499 393.649,86.5653 395.607,86.5808 397.564,86.5965 399.521,86.6123 401.478,86.6282 403.435,86.6444 405.393,86.6606 407.35,86.6771 409.307,86.6936 411.264,86.7104 413.221,86.7273 415.179,86.7443 417.136,86.7615 419.093,86.7789 421.05,86.7965 423.007,86.8142 424.965,86.832 426.922,86.8501 428.879,86.8683 430.836,86.8867 432.794,86.9052 434.751,86.924 436.708,86.9429 438.665,86.9619 440.622,86.9812 442.58,87.0007 444.537,87.0203 446.494,87.0401 448.451,87.0601 450.408,87.0803 452.366,87.1007 454.323,87.1212 456.28,87.142 458.237,87.1629 460.194,87.1841 462.152,87.2055 464.109,87.227 466.066,87.2488 468.023,87.2707 469.98,87.2929 471.938,87.3153 473.895,87.3379 475.852,87.3606 477.809,87.3837 479.767,87.4069 481.724,87.4303 483.681,87.454 485.638,87.4779 487.595,87.502 489.553,87.5264 491.51,87.5509 493.467,87.5757 495.424,87.6008 497.381,87.6261 499.339,87.6516 501.296,87.6773 503.253,87.7033 505.21,87.7296 507.167,87.7561 509.125,87.7828 511.082,87.8098 513.039,87.8371 514.996,87.8646 516.953,87.8924 518.911,87.9204 520.868,87.9487 522.825,87.9773 524.782,88.0061 526.74,88.0352 528.697,88.0646 530.654,88.0943 532.611,88.1243 534.568,88.1545 536.526,88.185 538.483,88.2159 540.44,88.247 542.397,88.2784 544.354,88.3101 546.312,88.3422 548.269,88.3745 550.226,88.4071 552.183,88.4401 554.14,88.4734 556.098,88.507 558.055,88.5409 560.012,88.5751 561.969,88.6097 563.926,88.6446 565.884,88.6799 567.841,88.7155 569.798,88.7514 571.755,88.7877 573.713,88.8243 575.67,88.8613 577.627,88.8987 579.584,88.9364 581.541,88.9745 583.499,89.013 585.456,89.0518 587.413,89.091 589.37,89.1306 591.327,89.1706 593.285,89.211 595.242,89.2518 597.199,89.293 599.156,89.3346 601.113,89.3766 603.071,89.419 605.028,89.4618 606.985,89.5051 608.942,89.5488 610.899,89.5929 612.857,89.6375 614.814,89.6825 616.771,89.728 618.728,89.7739 620.686,89.8203 622.643,89.8671 624.6,89.9145 626.557,89.9623 628.514,90.0105 630.472,90.0593 632.429,90.1086 634.386,90.1583 636.343,90.2086 638.3,90.2594 640.258,90.3107 642.215,90.3625 644.172,90.4148 646.129,90.4677 648.086,90.5211 650.044,90.5751 652.001,90.6296 653.958,90.6847 655.915,90.7404 657.872,90.7966 659.83,90.8534 661.787,90.9109 663.744,90.9689 665.701,91.0275 667.658,91.0867 669.616,91.1465 671.573,91.207 673.53,91.2681 675.487,91.3298 677.445,91.3922 679.402,91.4553 681.359,91.519 683.316,91.5834 685.273,91.6485 687.231,91.7142 689.188,91.7807 691.145,91.8479 693.102,91.9158 695.059,91.9844 697.017,92.0538 698.974,92.1239 700.931,92.1948 702.888,92.2664 704.845,92.3388 706.803,92.412 708.76,92.486 710.717,92.5608 712.674,92.6364 714.631,92.7129 716.589,92.7902 718.546,92.8683 720.503,92.9473 722.46,93.0272 724.418,93.1079 726.375,93.1896 728.332,93.2721 730.289,93.3556 732.246,93.44 734.204,93.5254 736.161,93.6117 738.118,93.699 740.075,93.7873 742.032,93.8766 743.99,93.9668 745.947,94.0582 747.904,94.1505 749.861,94.2439 751.818,94.3384 753.776,94.434 755.733,94.5306 757.69,94.6284 759.647,94.7273 761.604,94.8274 763.562,94.9286 765.519,95.031 767.476,95.1346 769.433,95.2394 771.391,95.3455 773.348,95.4528 775.305,95.5614 777.262,95.6712 779.219,95.7824 781.177,95.8948 783.134,96.0087 785.091,96.1239 787.048,96.2404 789.005,96.3584 790.963,96.4778 792.92,96.5987 794.877,96.721 796.834,96.8448 798.791,96.9701 800.749,97.097 802.706,97.2254 804.663,97.3554 806.62,97.487 808.577,97.6202 810.535,97.7551 812.492,97.8917 814.449,98.0299 816.406,98.17 818.364,98.3117 820.321,98.4553 822.278,98.6007 824.235,98.7479 826.192,98.897 828.15,99.048 830.107,99.201 832.064,99.3559 834.021,99.5128 835.978,99.6718 837.936,99.8328 839.893,99.9959 841.85,100.161 843.807,100.329 845.764,100.498 847.722,100.67 849.679,100.844 851.636,101.021 853.593,101.199 855.55,101.381 857.508,101.564 859.465,101.75 861.422,101.939 863.379,102.13 865.337,102.324 867.294,102.52 869.251,102.719 871.208,102.921 873.165,103.126 875.123,103.333 877.08,103.544 879.037,103.757 880.994,103.973 882.951,104.192 884.909,104.415 886.866,104.64 888.823,104.869 890.78,105.101 892.737,105.337 894.695,105.575 896.652,105.817 898.609,106.063 900.566,106.312 902.523,106.565 904.481,106.822 906.438,107.082 908.395,107.346 910.352,107.615 912.309,107.887 914.267,108.163 916.224,108.443 918.181,108.728 920.138,109.017 922.096,109.31 924.053,109.608 926.01,109.91 927.967,110.217 929.924,110.528 931.882,110.845 933.839,111.166 935.796,111.493 937.753,111.824 939.71,112.161 941.668,112.503 943.625,112.851 945.582,113.204 947.539,113.562 949.496,113.927 951.454,114.297 953.411,114.674 955.368,115.056 957.325,115.445 959.282,115.841 961.24,116.242 963.197,116.651 965.154,117.066 967.111,117.488 969.069,117.918 971.026,118.354 972.983,118.798 974.94,119.25 976.897,119.71 978.855,120.177 980.812,120.652 982.769,121.136 984.726,121.628 986.683,122.129 988.641,122.639 990.598,123.157 992.555,123.685 994.512,124.223 996.469,124.77 998.427,125.327 1000.38,125.894 1002.34,126.472 1004.3,127.06 1006.26,127.659 1008.21,128.269 1010.17,128.891 1012.13,129.524 1014.08,130.169 1016.04,130.826 1018,131.496 1019.96,132.179 1021.91,132.875 1023.87,133.584 1025.83,134.308 1027.78,135.045 1029.74,135.797 1031.7,136.564 1033.66,137.346 1035.61,138.144 1037.57,138.957 1039.53,139.788 1041.49,140.635 1043.44,141.499 1045.4,142.382 1047.36,143.282 1049.31,144.202 1051.27,145.14 1053.23,146.099 1055.19,147.077 1057.14,148.077 1059.1,149.098 1061.06,150.141 1063.01,151.206 1064.97,152.295 1066.93,153.408 1068.89,154.545 1070.84,155.708 1072.8,156.897 1074.76,158.112 1076.71,159.355 1078.67,160.626 1080.63,161.927 1082.59,163.257 1084.54,164.618 1086.5,166.012 1088.46,167.437 1090.42,168.897 1092.37,170.391 1094.33,171.922 1096.29,173.489 1098.24,175.094 1100.2,176.738 1102.16,178.423 1104.12,180.15 1106.07,181.919 1108.03,183.733 1109.99,185.593 1111.94,187.5 1113.9,189.456 1115.86,191.463 1117.82,193.521 1119.77,195.633 1121.73,197.801 1123.69,200.027 1125.65,202.311 1127.6,204.657 1129.56,207.067 1131.52,209.542 1133.47,212.085 1135.43,214.698 1137.39,217.384 1139.35,220.145 1141.3,222.984 1143.26,225.904 1145.22,228.907 1147.17,231.996 1149.13,235.175 1151.09,238.447 1153.05,241.815 1155,245.283 1156.96,248.855 1158.92,252.533 1160.87,256.323 1162.83,260.228 1164.79,264.253 1166.75,268.403 1168.7,272.681 1170.66,277.093 1172.62,281.645 1174.58,286.34 1176.53,291.186 1178.49,296.188 1180.45,301.351 1182.4,306.682 1184.36,312.189 1186.32,317.877 1188.28,323.753 1190.23,329.826 1192.19,336.103 1194.15,342.592 1196.1,349.301 1198.06,356.24 1200.02,363.416 1201.98,370.841 1203.93,378.522 1205.89,386.472 1207.85,394.699 1209.81,403.215 1211.76,412.032 1213.72,421.16 1215.68,430.612 1217.63,440.4 1219.59,450.537 1221.55,461.035 1223.51,471.908 1225.46,483.17 1227.42,494.834 1229.38,506.914 1231.33,519.424 1233.29,532.378 1235.25,545.79 1237.21,559.675 1239.16,574.045 1241.12,588.914 1243.08,604.295 1245.03,620.2 1246.99,636.639 1248.95,653.624 1250.91,671.162 1252.86,689.261 1254.82,707.926 1256.78,727.158 1258.74,746.96 1260.69,767.326 1262.65,788.251 1264.61,809.723 1266.56,831.728 1268.52,854.245 1270.48,877.247 1272.44,900.702 1274.39,924.571 1276.35,948.807 1278.31,973.355 1280.26,998.152 1282.22,1023.13 1284.18,1048.2 1286.14,1073.27 1288.09,1098.25 1290.05,1123.03 1292.01,1147.48 1293.97,1171.49 1295.92,1194.92 1297.88,1217.62 1299.84,1239.46 1301.79,1260.28 1303.75,1279.95 1305.71,1298.3 1307.67,1315.2 1309.62,1330.52 1311.58,1344.12 1313.54,1355.88 1315.49,1365.71 1317.45,1373.52 1319.41,1379.24 1321.37,1382.82 1323.32,1384.24 1325.28,1383.49 1327.24,1380.58 1329.19,1375.57 1331.15,1368.49 1333.11,1359.43 1335.07,1348.48 1337.02,1335.75 1338.98,1321.36 1340.94,1305.44 1342.9,1288.13 1344.85,1269.56 1346.81,1249.88 1348.77,1229.24 1350.72,1207.77 1352.68,1185.62 1354.64,1162.91 1356.6,1139.77 1358.55,1116.32 1360.51,1092.67 1362.47,1068.93 1364.42,1045.17 1366.38,1021.5 1368.34,997.973 1370.3,974.667 1372.25,951.638 1374.21,928.936 1376.17,906.605 1378.13,884.68 1380.08,863.192 1382.04,842.166 1384,821.621 1385.95,801.571 1387.91,782.028 1389.87,762.998 1391.83,744.484 1393.78,726.487 1395.74,709.007 1397.7,692.039 1399.65,675.577 1401.61,659.614 1403.57,644.143 1405.53,629.153 1407.48,614.635 1409.44,600.577 1411.4,586.967 1413.35,573.795 1415.31,561.048 1417.27,548.714 1419.23,536.779 1421.18,525.233 1423.14,514.063 1425.1,503.256 1427.06,492.8 1429.01,482.685 1430.97,472.897 1432.93,463.426 1434.88,454.262 1436.84,445.392 1438.8,436.807 1440.76,428.496 1442.71,420.45 1444.67,412.658 1446.63,405.113 1448.58,397.805 1450.54,390.725 1452.5,383.865 1454.46,377.217 1456.41,370.774 1458.37,364.527 1460.33,358.471 1462.28,352.597 1464.24,346.899 1466.2,341.371 1468.16,336.008 1470.11,330.802 1472.07,325.748 1474.03,320.841 1475.99,316.076 1477.94,311.447 1479.9,306.95 1481.86,302.581 1483.81,298.334 1485.77,294.205 1487.73,290.191 1489.69,286.287 1491.64,282.49 1493.6,278.796 1495.56,275.201 1497.51,271.703 1499.47,268.297 1501.43,264.981 1503.39,261.751 1505.34,258.606 1507.3,255.542 1509.26,252.556 1511.22,249.646 1513.17,246.81 1515.13,244.045 1517.09,241.349 1519.04,238.719 1521,236.154 1522.96,233.651 1524.92,231.209 1526.87,228.826 1528.83,226.499 1530.79,224.228 1532.74,222.01 1534.7,219.844 1536.66,217.728 1538.62,215.661 1540.57,213.642 1542.53,211.668 1544.49,209.739 1546.44,207.853 1548.4,206.009 1550.36,204.206 1552.32,202.442 1554.27,200.717 1556.23,199.029 1558.19,197.378 1560.15,195.762 1562.1,194.18 1564.06,192.632 1566.02,191.116 1567.97,189.632 1569.93,188.178 1571.89,186.754 1573.85,185.36 1575.8,183.994 1577.76,182.655 1579.72,181.343 1581.67,180.057 1583.63,178.797 1585.59,177.561 1587.55,176.35 1589.5,175.162 1591.46,173.997 1593.42,172.854 1595.38,171.733 1597.33,170.633 1599.29,169.554 1601.25,168.495 1603.2,167.456 1605.16,166.436 1607.12,165.435 1609.08,164.452 1611.03,163.487 1612.99,162.539 1614.95,161.608 1616.9,160.694 1618.86,159.796 1620.82,158.914 1622.78,158.047 1624.73,157.195 1626.69,156.359 1628.65,155.536 1630.6,154.728 1632.56,153.933 1634.52,153.152 1636.48,152.384 1638.43,151.629 1640.39,150.886 1642.35,150.155 1644.31,149.437 1646.26,148.73 1648.22,148.035 1650.18,147.351 1652.13,146.678 1654.09,146.016 1656.05,145.365 1658.01,144.723 1659.96,144.092 1661.92,143.471 1663.88,142.859 1665.83,142.257 1667.79,141.664 1669.75,141.08 1671.71,140.506 1673.66,139.939 1675.62,139.382 1677.58,138.832 1679.54,138.291 1681.49,137.758 1683.45,137.233 1685.41,136.716 1687.36,136.206 1689.32,135.703 1691.28,135.208 1693.24,134.72 1695.19,134.239 1697.15,133.765 1699.11,133.297 1701.06,132.837 1703.02,132.382 1704.98,131.934 1706.94,131.492 1708.89,131.057 1710.85,130.627 1712.81,130.203 1714.76,129.785 1716.72,129.373 1718.68,128.966 1720.64,128.565 1722.59,128.169 1724.55,127.778 1726.51,127.393 1728.47,127.012 1730.42,126.637 1732.38,126.267 1734.34,125.901 1736.29,125.54 1738.25,125.184 1740.21,124.832 1742.17,124.485 1744.12,124.142 1746.08,123.804 1748.04,123.469 1749.99,123.139 1751.95,122.814 1753.91,122.492 1755.87,122.174 1757.82,121.86 1759.78,121.55 1761.74,121.244 1763.69,120.941 1765.65,120.642 1767.61,120.347 1769.57,120.055 1771.52,119.767 1773.48,119.482 1775.44,119.201 1777.4,118.923 1779.35,118.648 1781.31,118.376 1783.27,118.108 1785.22,117.842 1787.18,117.58 1789.14,117.321 1791.1,117.065 1793.05,116.811 1795.01,116.561 1796.97,116.313 1798.92,116.068 1800.88,115.826 1802.84,115.586 1804.8,115.35 1806.75,115.116 1808.71,114.884 1810.67,114.655 1812.63,114.428 1814.58,114.204 1816.54,113.983 1818.5,113.764 1820.45,113.547 1822.41,113.332 1824.37,113.12 1826.33,112.91 1828.28,112.702 1830.24,112.497 1832.2,112.293 1834.15,112.092 1836.11,111.893 1838.07,111.696 1840.03,111.501 1841.98,111.308 1843.94,111.117 1845.9,110.927 1847.85,110.74 1849.81,110.555 1851.77,110.372 1853.73,110.19 1855.68,110.01 1857.64,109.832 1859.6,109.656 1861.56,109.482 1863.51,109.309 1865.47,109.138 1867.43,108.969 1869.38,108.801 1871.34,108.635 1873.3,108.471 1875.26,108.308 1877.21,108.147 1879.17,107.987 1881.13,107.829 1883.08,107.672 1885.04,107.517 1887,107.363 1888.96,107.211 1890.91,107.06 1892.87,106.911 1894.83,106.763 1896.79,106.616 1898.74,106.471 1900.7,106.327 1902.66,106.184 1904.61,106.043 1906.57,105.903 1908.53,105.764 1910.49,105.627 1912.44,105.49 1914.4,105.355 1916.36,105.222 1918.31,105.089 1920.27,104.958 1922.23,104.827 1924.19,104.698 1926.14,104.57 1928.1,104.443 1930.06,104.318 1932.01,104.193 1933.97,104.069 1935.93,103.947 1937.89,103.826 1939.84,103.705 1941.8,103.586 1943.76,103.468 1945.72,103.35 1947.67,103.234 1949.63,103.119 1951.59,103.004 1953.54,102.891 1955.5,102.778 1957.46,102.667 1959.42,102.556 1961.37,102.447 1963.33,102.338 1965.29,102.23 1967.24,102.123 1969.2,102.017 1971.16,101.912 1973.12,101.808 1975.07,101.704 1977.03,101.601 1978.99,101.5 1980.95,101.398 1982.9,101.298 1984.86,101.199 1986.82,101.1 1988.77,101.002 1990.73,100.905 1992.69,100.809 1994.65,100.714 1996.6,100.619 1998.56,100.525 2000.52,100.431 2002.47,100.339 2004.43,100.247 2006.39,100.156 2008.35,100.065 2010.3,99.9755 2012.26,99.8864 2014.22,99.798 2016.17,99.7103 2018.13,99.6233 2020.09,99.5369 2022.05,99.4511 2024,99.366 2025.96,99.2815 2027.92,99.1977 2029.88,99.1145 2031.83,99.0319 2033.79,98.9499 2035.75,98.8685 2037.7,98.7877 2039.66,98.7075 2041.62,98.6279 2043.58,98.5489 2045.53,98.4704 2047.49,98.3926 2049.45,98.3152 2051.4,98.2385 2053.36,98.1623 2055.32,98.0866 2057.28,98.0115 2059.23,97.9369 2061.19,97.8628 2063.15,97.7893 2065.11,97.7163 2067.06,97.6438 2069.02,97.5718 2070.98,97.5003 2072.93,97.4293 2074.89,97.3588 2076.85,97.2888 2078.81,97.2193 2080.76,97.1503 2082.72,97.0817 2084.68,97.0136 2086.63,96.946 2088.59,96.8788 2090.55,96.8121 2092.51,96.7458 2094.46,96.68 2096.42,96.6146 2098.38,96.5497 2100.33,96.4852 2102.29,96.4212 2104.25,96.3575 2106.21,96.2943 2108.16,96.2315 2110.12,96.1691 2112.08,96.1072 2114.04,96.0456 2115.99,95.9845 2117.95,95.9237 2119.91,95.8634 2121.86,95.8034 2123.82,95.7438 2125.78,95.6846 2127.74,95.6258 2129.69,95.5674 2131.65,95.5094 2133.61,95.4517 2135.56,95.3944 2137.52,95.3374 2139.48,95.2808 2141.44,95.2246 2143.39,95.1687 2145.35,95.1132 2147.31,95.058 2149.26,95.0032 2151.22,94.9487 2153.18,94.8946 2155.14,94.8408 2157.09,94.7873 2159.05,94.7342 2161.01,94.6814 2162.97,94.6289 2164.92,94.5767 2166.88,94.5249 2168.84,94.4733 2170.79,94.4221 2172.75,94.3712 2174.71,94.3206 2176.67,94.2703 2178.62,94.2203 2180.58,94.1707 2182.54,94.1213 2184.49,94.0722 2186.45,94.0234 2188.41,93.9749 2190.37,93.9266 2192.32,93.8787 2194.28,93.831 2196.24,93.7837 2198.2,93.7366 2200.15,93.6898 2202.11,93.6432 2204.07,93.5969 2206.02,93.5509 2207.98,93.5052 2209.94,93.4597 2211.9,93.4145 2213.85,93.3696 2215.81,93.3249 2217.77,93.2804 2219.72,93.2362 2221.68,93.1923 2223.64,93.1486 2225.6,93.1052 2227.55,93.062 2229.51,93.0191 2231.47,92.9764 2233.42,92.9339 2235.38,92.8917 2237.34,92.8497 2239.3,92.8079 2241.25,92.7664 2243.21,92.7251 2245.17,92.6841 2247.13,92.6432 2249.08,92.6026 2251.04,92.5622 2253,92.5221 2254.95,92.4821 2256.91,92.4424 2258.87,92.4029 2260.83,92.3636 2262.78,92.3245 2264.74,92.2856 2266.7,92.247 2268.65,92.2085 2270.61,92.1703 2272.57,92.1322 2274.53,92.0944 2276.48,92.0567 2278.44,92.0193 2280.4,91.9821 2282.36,91.945 2284.31,91.9082 2286.27,91.8715 2288.23,91.8351 2290.18,91.7988 2292.14,91.7627 2294.1,91.7268 "/>
<polyline clip-path="url(#clip792)" style="stroke:#ff0000; stroke-linecap:round; stroke-linejoin:round; stroke-width:4; stroke-opacity:1; fill:none" points="1267.59,2799.12 1267.59,-1328.69 "/>
<polyline clip-path="url(#clip792)" style="stroke:#ff0000; stroke-linecap:round; stroke-linejoin:round; stroke-width:4; stroke-opacity:1; fill:none" points="1365.35,2799.12 1365.35,-1328.69 "/>
</svg>
