<?xml version="1.0" encoding="utf-8"?>
<svg xmlns="http://www.w3.org/2000/svg" xmlns:xlink="http://www.w3.org/1999/xlink" width="600" height="400" viewBox="0 0 2400 1600">
<defs>
  <clipPath id="clip840">
    <rect x="0" y="0" width="2400" height="1600"/>
  </clipPath>
</defs>
<path clip-path="url(#clip840)" d="M0 1600 L2400 1600 L2400 0 L0 0  Z" fill="#ffffff" fill-rule="evenodd" fill-opacity="1"/>
<defs>
  <clipPath id="clip841">
    <rect x="480" y="0" width="1681" height="1600"/>
  </clipPath>
</defs>
<path clip-path="url(#clip840)" d="M262.551 1423.18 L2352.76 1423.18 L2352.76 47.2441 L262.551 47.2441  Z" fill="#ffffff" fill-rule="evenodd" fill-opacity="1"/>
<defs>
  <clipPath id="clip842">
    <rect x="262" y="47" width="2091" height="1377"/>
  </clipPath>
</defs>
<polyline clip-path="url(#clip842)" style="stroke:#000000; stroke-linecap:round; stroke-linejoin:round; stroke-width:2; stroke-opacity:0.1; fill:none" points="321.708,1423.18 321.708,47.2441 "/>
<polyline clip-path="url(#clip842)" style="stroke:#000000; stroke-linecap:round; stroke-linejoin:round; stroke-width:2; stroke-opacity:0.1; fill:none" points="814.681,1423.18 814.681,47.2441 "/>
<polyline clip-path="url(#clip842)" style="stroke:#000000; stroke-linecap:round; stroke-linejoin:round; stroke-width:2; stroke-opacity:0.1; fill:none" points="1307.65,1423.18 1307.65,47.2441 "/>
<polyline clip-path="url(#clip842)" style="stroke:#000000; stroke-linecap:round; stroke-linejoin:round; stroke-width:2; stroke-opacity:0.1; fill:none" points="1800.63,1423.18 1800.63,47.2441 "/>
<polyline clip-path="url(#clip842)" style="stroke:#000000; stroke-linecap:round; stroke-linejoin:round; stroke-width:2; stroke-opacity:0.1; fill:none" points="2293.6,1423.18 2293.6,47.2441 "/>
<polyline clip-path="url(#clip842)" style="stroke:#000000; stroke-linecap:round; stroke-linejoin:round; stroke-width:2; stroke-opacity:0.1; fill:none" points="262.551,1295.44 2352.76,1295.44 "/>
<polyline clip-path="url(#clip842)" style="stroke:#000000; stroke-linecap:round; stroke-linejoin:round; stroke-width:2; stroke-opacity:0.1; fill:none" points="262.551,1094.8 2352.76,1094.8 "/>
<polyline clip-path="url(#clip842)" style="stroke:#000000; stroke-linecap:round; stroke-linejoin:round; stroke-width:2; stroke-opacity:0.1; fill:none" points="262.551,894.164 2352.76,894.164 "/>
<polyline clip-path="url(#clip842)" style="stroke:#000000; stroke-linecap:round; stroke-linejoin:round; stroke-width:2; stroke-opacity:0.1; fill:none" points="262.551,693.528 2352.76,693.528 "/>
<polyline clip-path="url(#clip842)" style="stroke:#000000; stroke-linecap:round; stroke-linejoin:round; stroke-width:2; stroke-opacity:0.1; fill:none" points="262.551,492.891 2352.76,492.891 "/>
<polyline clip-path="url(#clip842)" style="stroke:#000000; stroke-linecap:round; stroke-linejoin:round; stroke-width:2; stroke-opacity:0.1; fill:none" points="262.551,292.255 2352.76,292.255 "/>
<polyline clip-path="url(#clip842)" style="stroke:#000000; stroke-linecap:round; stroke-linejoin:round; stroke-width:2; stroke-opacity:0.1; fill:none" points="262.551,91.6182 2352.76,91.6182 "/>
<polyline clip-path="url(#clip840)" style="stroke:#000000; stroke-linecap:round; stroke-linejoin:round; stroke-width:4; stroke-opacity:1; fill:none" points="262.551,1423.18 2352.76,1423.18 "/>
<polyline clip-path="url(#clip840)" style="stroke:#000000; stroke-linecap:round; stroke-linejoin:round; stroke-width:4; stroke-opacity:1; fill:none" points="321.708,1423.18 321.708,1404.28 "/>
<polyline clip-path="url(#clip840)" style="stroke:#000000; stroke-linecap:round; stroke-linejoin:round; stroke-width:4; stroke-opacity:1; fill:none" points="814.681,1423.18 814.681,1404.28 "/>
<polyline clip-path="url(#clip840)" style="stroke:#000000; stroke-linecap:round; stroke-linejoin:round; stroke-width:4; stroke-opacity:1; fill:none" points="1307.65,1423.18 1307.65,1404.28 "/>
<polyline clip-path="url(#clip840)" style="stroke:#000000; stroke-linecap:round; stroke-linejoin:round; stroke-width:4; stroke-opacity:1; fill:none" points="1800.63,1423.18 1800.63,1404.28 "/>
<polyline clip-path="url(#clip840)" style="stroke:#000000; stroke-linecap:round; stroke-linejoin:round; stroke-width:4; stroke-opacity:1; fill:none" points="2293.6,1423.18 2293.6,1404.28 "/>
<path clip-path="url(#clip840)" d="M262.785 1481.64 L279.104 1481.64 L279.104 1485.58 L257.16 1485.58 L257.16 1481.64 Q259.822 1478.89 264.405 1474.26 Q269.011 1469.61 270.192 1468.27 Q272.437 1465.74 273.317 1464.01 Q274.22 1462.25 274.22 1460.56 Q274.22 1457.8 272.275 1456.07 Q270.354 1454.33 267.252 1454.33 Q265.053 1454.33 262.599 1455.09 Q260.169 1455.86 257.391 1457.41 L257.391 1452.69 Q260.215 1451.55 262.669 1450.97 Q265.123 1450.39 267.16 1450.39 Q272.53 1450.39 275.724 1453.08 Q278.919 1455.77 278.919 1460.26 Q278.919 1462.39 278.109 1464.31 Q277.322 1466.2 275.215 1468.8 Q274.636 1469.47 271.535 1472.69 Q268.433 1475.88 262.785 1481.64 Z" fill="#000000" fill-rule="nonzero" fill-opacity="1" /><path clip-path="url(#clip840)" d="M289.058 1484.86 L289.058 1480.6 Q290.817 1481.44 292.622 1481.88 Q294.428 1482.32 296.164 1482.32 Q300.794 1482.32 303.224 1479.21 Q305.678 1476.09 306.025 1469.75 Q304.683 1471.74 302.622 1472.8 Q300.562 1473.87 298.062 1473.87 Q292.877 1473.87 289.845 1470.74 Q286.835 1467.59 286.835 1462.15 Q286.835 1456.83 289.984 1453.61 Q293.132 1450.39 298.363 1450.39 Q304.359 1450.39 307.507 1455 Q310.678 1459.58 310.678 1468.33 Q310.678 1476.51 306.789 1481.39 Q302.923 1486.25 296.372 1486.25 Q294.613 1486.25 292.808 1485.9 Q291.002 1485.56 289.058 1484.86 M298.363 1470.21 Q301.511 1470.21 303.34 1468.06 Q305.192 1465.9 305.192 1462.15 Q305.192 1458.43 303.34 1456.27 Q301.511 1454.1 298.363 1454.1 Q295.215 1454.1 293.363 1456.27 Q291.535 1458.43 291.535 1462.15 Q291.535 1465.9 293.363 1468.06 Q295.215 1470.21 298.363 1470.21 Z" fill="#000000" fill-rule="nonzero" fill-opacity="1" /><path clip-path="url(#clip840)" d="M319.081 1479.7 L323.965 1479.7 L323.965 1485.58 L319.081 1485.58 L319.081 1479.7 Z" fill="#000000" fill-rule="nonzero" fill-opacity="1" /><path clip-path="url(#clip840)" d="M334.289 1484.86 L334.289 1480.6 Q336.048 1481.44 337.854 1481.88 Q339.659 1482.32 341.395 1482.32 Q346.025 1482.32 348.456 1479.21 Q350.909 1476.09 351.256 1469.75 Q349.914 1471.74 347.854 1472.8 Q345.793 1473.87 343.293 1473.87 Q338.108 1473.87 335.076 1470.74 Q332.067 1467.59 332.067 1462.15 Q332.067 1456.83 335.215 1453.61 Q338.363 1450.39 343.594 1450.39 Q349.59 1450.39 352.738 1455 Q355.909 1459.58 355.909 1468.33 Q355.909 1476.51 352.02 1481.39 Q348.155 1486.25 341.604 1486.25 Q339.844 1486.25 338.039 1485.9 Q336.233 1485.56 334.289 1484.86 M343.594 1470.21 Q346.743 1470.21 348.571 1468.06 Q350.423 1465.9 350.423 1462.15 Q350.423 1458.43 348.571 1456.27 Q346.743 1454.1 343.594 1454.1 Q340.446 1454.1 338.594 1456.27 Q336.766 1458.43 336.766 1462.15 Q336.766 1465.9 338.594 1468.06 Q340.446 1470.21 343.594 1470.21 Z" fill="#000000" fill-rule="nonzero" fill-opacity="1" /><path clip-path="url(#clip840)" d="M374.312 1454.1 Q370.701 1454.1 368.872 1457.66 Q367.067 1461.2 367.067 1468.33 Q367.067 1475.44 368.872 1479.01 Q370.701 1482.55 374.312 1482.55 Q377.946 1482.55 379.752 1479.01 Q381.58 1475.44 381.58 1468.33 Q381.58 1461.2 379.752 1457.66 Q377.946 1454.1 374.312 1454.1 M374.312 1450.39 Q380.122 1450.39 383.178 1455 Q386.256 1459.58 386.256 1468.33 Q386.256 1477.06 383.178 1481.67 Q380.122 1486.25 374.312 1486.25 Q368.502 1486.25 365.423 1481.67 Q362.367 1477.06 362.367 1468.33 Q362.367 1459.58 365.423 1455 Q368.502 1450.39 374.312 1450.39 Z" fill="#000000" fill-rule="nonzero" fill-opacity="1" /><path clip-path="url(#clip840)" d="M756.255 1481.64 L772.575 1481.64 L772.575 1485.58 L750.63 1485.58 L750.63 1481.64 Q753.292 1478.89 757.876 1474.26 Q762.482 1469.61 763.663 1468.27 Q765.908 1465.74 766.787 1464.01 Q767.69 1462.25 767.69 1460.56 Q767.69 1457.8 765.746 1456.07 Q763.825 1454.33 760.723 1454.33 Q758.524 1454.33 756.07 1455.09 Q753.639 1455.86 750.862 1457.41 L750.862 1452.69 Q753.686 1451.55 756.139 1450.97 Q758.593 1450.39 760.63 1450.39 Q766 1450.39 769.195 1453.08 Q772.389 1455.77 772.389 1460.26 Q772.389 1462.39 771.579 1464.31 Q770.792 1466.2 768.686 1468.8 Q768.107 1469.47 765.005 1472.69 Q761.903 1475.88 756.255 1481.64 Z" fill="#000000" fill-rule="nonzero" fill-opacity="1" /><path clip-path="url(#clip840)" d="M782.528 1484.86 L782.528 1480.6 Q784.287 1481.44 786.093 1481.88 Q787.898 1482.32 789.635 1482.32 Q794.264 1482.32 796.695 1479.21 Q799.148 1476.09 799.496 1469.75 Q798.153 1471.74 796.093 1472.8 Q794.033 1473.87 791.533 1473.87 Q786.348 1473.87 783.315 1470.74 Q780.306 1467.59 780.306 1462.15 Q780.306 1456.83 783.454 1453.61 Q786.602 1450.39 791.834 1450.39 Q797.829 1450.39 800.977 1455 Q804.148 1459.58 804.148 1468.33 Q804.148 1476.51 800.26 1481.39 Q796.394 1486.25 789.843 1486.25 Q788.084 1486.25 786.278 1485.9 Q784.473 1485.56 782.528 1484.86 M791.834 1470.21 Q794.982 1470.21 796.81 1468.06 Q798.662 1465.9 798.662 1462.15 Q798.662 1458.43 796.81 1456.27 Q794.982 1454.1 791.834 1454.1 Q788.686 1454.1 786.834 1456.27 Q785.005 1458.43 785.005 1462.15 Q785.005 1465.9 786.834 1468.06 Q788.686 1470.21 791.834 1470.21 Z" fill="#000000" fill-rule="nonzero" fill-opacity="1" /><path clip-path="url(#clip840)" d="M812.551 1479.7 L817.435 1479.7 L817.435 1485.58 L812.551 1485.58 L812.551 1479.7 Z" fill="#000000" fill-rule="nonzero" fill-opacity="1" /><path clip-path="url(#clip840)" d="M827.759 1484.86 L827.759 1480.6 Q829.519 1481.44 831.324 1481.88 Q833.13 1482.32 834.866 1482.32 Q839.495 1482.32 841.926 1479.21 Q844.38 1476.09 844.727 1469.75 Q843.384 1471.74 841.324 1472.8 Q839.264 1473.87 836.764 1473.87 Q831.579 1473.87 828.546 1470.74 Q825.537 1467.59 825.537 1462.15 Q825.537 1456.83 828.685 1453.61 Q831.833 1450.39 837.065 1450.39 Q843.06 1450.39 846.208 1455 Q849.38 1459.58 849.38 1468.33 Q849.38 1476.51 845.491 1481.39 Q841.625 1486.25 835.074 1486.25 Q833.315 1486.25 831.509 1485.9 Q829.704 1485.56 827.759 1484.86 M837.065 1470.21 Q840.213 1470.21 842.042 1468.06 Q843.894 1465.9 843.894 1462.15 Q843.894 1458.43 842.042 1456.27 Q840.213 1454.1 837.065 1454.1 Q833.917 1454.1 832.065 1456.27 Q830.236 1458.43 830.236 1462.15 Q830.236 1465.9 832.065 1468.06 Q833.917 1470.21 837.065 1470.21 Z" fill="#000000" fill-rule="nonzero" fill-opacity="1" /><path clip-path="url(#clip840)" d="M857.829 1451.02 L876.185 1451.02 L876.185 1454.96 L862.111 1454.96 L862.111 1463.43 Q863.13 1463.08 864.148 1462.92 Q865.167 1462.73 866.185 1462.73 Q871.972 1462.73 875.352 1465.9 Q878.731 1469.08 878.731 1474.49 Q878.731 1480.07 875.259 1483.17 Q871.787 1486.25 865.468 1486.25 Q863.292 1486.25 861.023 1485.88 Q858.778 1485.51 856.37 1484.77 L856.37 1480.07 Q858.454 1481.2 860.676 1481.76 Q862.898 1482.32 865.375 1482.32 Q869.38 1482.32 871.717 1480.21 Q874.055 1478.1 874.055 1474.49 Q874.055 1470.88 871.717 1468.77 Q869.38 1466.67 865.375 1466.67 Q863.5 1466.67 861.625 1467.08 Q859.773 1467.5 857.829 1468.38 L857.829 1451.02 Z" fill="#000000" fill-rule="nonzero" fill-opacity="1" /><path clip-path="url(#clip840)" d="M1258.8 1466.95 Q1262.16 1467.66 1264.03 1469.93 Q1265.93 1472.2 1265.93 1475.53 Q1265.93 1480.65 1262.41 1483.45 Q1258.89 1486.25 1252.41 1486.25 Q1250.23 1486.25 1247.92 1485.81 Q1245.63 1485.39 1243.17 1484.54 L1243.17 1480.02 Q1245.12 1481.16 1247.43 1481.74 Q1249.75 1482.32 1252.27 1482.32 Q1256.67 1482.32 1258.96 1480.58 Q1261.28 1478.84 1261.28 1475.53 Q1261.28 1472.48 1259.12 1470.77 Q1256.99 1469.03 1253.17 1469.03 L1249.15 1469.03 L1249.15 1465.19 L1253.36 1465.19 Q1256.81 1465.19 1258.64 1463.82 Q1260.47 1462.43 1260.47 1459.84 Q1260.47 1457.18 1258.57 1455.77 Q1256.69 1454.33 1253.17 1454.33 Q1251.25 1454.33 1249.05 1454.75 Q1246.86 1455.16 1244.22 1456.04 L1244.22 1451.88 Q1246.88 1451.14 1249.19 1450.77 Q1251.53 1450.39 1253.59 1450.39 Q1258.92 1450.39 1262.02 1452.83 Q1265.12 1455.23 1265.12 1459.35 Q1265.12 1462.22 1263.48 1464.21 Q1261.83 1466.18 1258.8 1466.95 Z" fill="#000000" fill-rule="nonzero" fill-opacity="1" /><path clip-path="url(#clip840)" d="M1284.79 1454.1 Q1281.18 1454.1 1279.36 1457.66 Q1277.55 1461.2 1277.55 1468.33 Q1277.55 1475.44 1279.36 1479.01 Q1281.18 1482.55 1284.79 1482.55 Q1288.43 1482.55 1290.23 1479.01 Q1292.06 1475.44 1292.06 1468.33 Q1292.06 1461.2 1290.23 1457.66 Q1288.43 1454.1 1284.79 1454.1 M1284.79 1450.39 Q1290.61 1450.39 1293.66 1455 Q1296.74 1459.58 1296.74 1468.33 Q1296.74 1477.06 1293.66 1481.67 Q1290.61 1486.25 1284.79 1486.25 Q1278.98 1486.25 1275.91 1481.67 Q1272.85 1477.06 1272.85 1468.33 Q1272.85 1459.58 1275.91 1455 Q1278.98 1450.39 1284.79 1450.39 Z" fill="#000000" fill-rule="nonzero" fill-opacity="1" /><path clip-path="url(#clip840)" d="M1304.96 1479.7 L1309.84 1479.7 L1309.84 1485.58 L1304.96 1485.58 L1304.96 1479.7 Z" fill="#000000" fill-rule="nonzero" fill-opacity="1" /><path clip-path="url(#clip840)" d="M1330.03 1454.1 Q1326.42 1454.1 1324.59 1457.66 Q1322.78 1461.2 1322.78 1468.33 Q1322.78 1475.44 1324.59 1479.01 Q1326.42 1482.55 1330.03 1482.55 Q1333.66 1482.55 1335.47 1479.01 Q1337.29 1475.44 1337.29 1468.33 Q1337.29 1461.2 1335.47 1457.66 Q1333.66 1454.1 1330.03 1454.1 M1330.03 1450.39 Q1335.84 1450.39 1338.89 1455 Q1341.97 1459.58 1341.97 1468.33 Q1341.97 1477.06 1338.89 1481.67 Q1335.84 1486.25 1330.03 1486.25 Q1324.22 1486.25 1321.14 1481.67 Q1318.08 1477.06 1318.08 1468.33 Q1318.08 1459.58 1321.14 1455 Q1324.22 1450.39 1330.03 1450.39 Z" fill="#000000" fill-rule="nonzero" fill-opacity="1" /><path clip-path="url(#clip840)" d="M1360.19 1454.1 Q1356.58 1454.1 1354.75 1457.66 Q1352.94 1461.2 1352.94 1468.33 Q1352.94 1475.44 1354.75 1479.01 Q1356.58 1482.55 1360.19 1482.55 Q1363.82 1482.55 1365.63 1479.01 Q1367.46 1475.44 1367.46 1468.33 Q1367.46 1461.2 1365.63 1457.66 Q1363.82 1454.1 1360.19 1454.1 M1360.19 1450.39 Q1366 1450.39 1369.05 1455 Q1372.13 1459.58 1372.13 1468.33 Q1372.13 1477.06 1369.05 1481.67 Q1366 1486.25 1360.19 1486.25 Q1354.38 1486.25 1351.3 1481.67 Q1348.24 1477.06 1348.24 1468.33 Q1348.24 1459.58 1351.3 1455 Q1354.38 1450.39 1360.19 1450.39 Z" fill="#000000" fill-rule="nonzero" fill-opacity="1" /><path clip-path="url(#clip840)" d="M1752.27 1466.95 Q1755.63 1467.66 1757.5 1469.93 Q1759.4 1472.2 1759.4 1475.53 Q1759.4 1480.65 1755.88 1483.45 Q1752.36 1486.25 1745.88 1486.25 Q1743.71 1486.25 1741.39 1485.81 Q1739.1 1485.39 1736.65 1484.54 L1736.65 1480.02 Q1738.59 1481.16 1740.9 1481.74 Q1743.22 1482.32 1745.74 1482.32 Q1750.14 1482.32 1752.43 1480.58 Q1754.75 1478.84 1754.75 1475.53 Q1754.75 1472.48 1752.59 1470.77 Q1750.46 1469.03 1746.65 1469.03 L1742.62 1469.03 L1742.62 1465.19 L1746.83 1465.19 Q1750.28 1465.19 1752.11 1463.82 Q1753.94 1462.43 1753.94 1459.84 Q1753.94 1457.18 1752.04 1455.77 Q1750.16 1454.33 1746.65 1454.33 Q1744.72 1454.33 1742.52 1454.75 Q1740.33 1455.16 1737.69 1456.04 L1737.69 1451.88 Q1740.35 1451.14 1742.66 1450.77 Q1745 1450.39 1747.06 1450.39 Q1752.39 1450.39 1755.49 1452.83 Q1758.59 1455.23 1758.59 1459.35 Q1758.59 1462.22 1756.95 1464.21 Q1755.3 1466.18 1752.27 1466.95 Z" fill="#000000" fill-rule="nonzero" fill-opacity="1" /><path clip-path="url(#clip840)" d="M1778.27 1454.1 Q1774.65 1454.1 1772.83 1457.66 Q1771.02 1461.2 1771.02 1468.33 Q1771.02 1475.44 1772.83 1479.01 Q1774.65 1482.55 1778.27 1482.55 Q1781.9 1482.55 1783.71 1479.01 Q1785.53 1475.44 1785.53 1468.33 Q1785.53 1461.2 1783.71 1457.66 Q1781.9 1454.1 1778.27 1454.1 M1778.27 1450.39 Q1784.08 1450.39 1787.13 1455 Q1790.21 1459.58 1790.21 1468.33 Q1790.21 1477.06 1787.13 1481.67 Q1784.08 1486.25 1778.27 1486.25 Q1772.46 1486.25 1769.38 1481.67 Q1766.32 1477.06 1766.32 1468.33 Q1766.32 1459.58 1769.38 1455 Q1772.46 1450.39 1778.27 1450.39 Z" fill="#000000" fill-rule="nonzero" fill-opacity="1" /><path clip-path="url(#clip840)" d="M1798.43 1479.7 L1803.31 1479.7 L1803.31 1485.58 L1798.43 1485.58 L1798.43 1479.7 Z" fill="#000000" fill-rule="nonzero" fill-opacity="1" /><path clip-path="url(#clip840)" d="M1823.5 1454.1 Q1819.89 1454.1 1818.06 1457.66 Q1816.25 1461.2 1816.25 1468.33 Q1816.25 1475.44 1818.06 1479.01 Q1819.89 1482.55 1823.5 1482.55 Q1827.13 1482.55 1828.94 1479.01 Q1830.77 1475.44 1830.77 1468.33 Q1830.77 1461.2 1828.94 1457.66 Q1827.13 1454.1 1823.5 1454.1 M1823.5 1450.39 Q1829.31 1450.39 1832.36 1455 Q1835.44 1459.58 1835.44 1468.33 Q1835.44 1477.06 1832.36 1481.67 Q1829.31 1486.25 1823.5 1486.25 Q1817.69 1486.25 1814.61 1481.67 Q1811.55 1477.06 1811.55 1468.33 Q1811.55 1459.58 1814.61 1455 Q1817.69 1450.39 1823.5 1450.39 Z" fill="#000000" fill-rule="nonzero" fill-opacity="1" /><path clip-path="url(#clip840)" d="M1843.7 1451.02 L1862.06 1451.02 L1862.06 1454.96 L1847.99 1454.96 L1847.99 1463.43 Q1849.01 1463.08 1850.02 1462.92 Q1851.04 1462.73 1852.06 1462.73 Q1857.85 1462.73 1861.23 1465.9 Q1864.61 1469.08 1864.61 1474.49 Q1864.61 1480.07 1861.14 1483.17 Q1857.66 1486.25 1851.34 1486.25 Q1849.17 1486.25 1846.9 1485.88 Q1844.65 1485.51 1842.25 1484.77 L1842.25 1480.07 Q1844.33 1481.2 1846.55 1481.76 Q1848.77 1482.32 1851.25 1482.32 Q1855.26 1482.32 1857.59 1480.21 Q1859.93 1478.1 1859.93 1474.49 Q1859.93 1470.88 1857.59 1468.77 Q1855.26 1466.67 1851.25 1466.67 Q1849.38 1466.67 1847.5 1467.08 Q1845.65 1467.5 1843.7 1468.38 L1843.7 1451.02 Z" fill="#000000" fill-rule="nonzero" fill-opacity="1" /><path clip-path="url(#clip840)" d="M2244.75 1466.95 Q2248.1 1467.66 2249.98 1469.93 Q2251.87 1472.2 2251.87 1475.53 Q2251.87 1480.65 2248.36 1483.45 Q2244.84 1486.25 2238.36 1486.25 Q2236.18 1486.25 2233.87 1485.81 Q2231.57 1485.39 2229.12 1484.54 L2229.12 1480.02 Q2231.06 1481.16 2233.38 1481.74 Q2235.69 1482.32 2238.22 1482.32 Q2242.62 1482.32 2244.91 1480.58 Q2247.22 1478.84 2247.22 1475.53 Q2247.22 1472.48 2245.07 1470.77 Q2242.94 1469.03 2239.12 1469.03 L2235.09 1469.03 L2235.09 1465.19 L2239.31 1465.19 Q2242.75 1465.19 2244.58 1463.82 Q2246.41 1462.43 2246.41 1459.84 Q2246.41 1457.18 2244.51 1455.77 Q2242.64 1454.33 2239.12 1454.33 Q2237.2 1454.33 2235 1454.75 Q2232.8 1455.16 2230.16 1456.04 L2230.16 1451.88 Q2232.82 1451.14 2235.14 1450.77 Q2237.48 1450.39 2239.54 1450.39 Q2244.86 1450.39 2247.96 1452.83 Q2251.06 1455.23 2251.06 1459.35 Q2251.06 1462.22 2249.42 1464.21 Q2247.78 1466.18 2244.75 1466.95 Z" fill="#000000" fill-rule="nonzero" fill-opacity="1" /><path clip-path="url(#clip840)" d="M2270.74 1454.1 Q2267.13 1454.1 2265.3 1457.66 Q2263.5 1461.2 2263.5 1468.33 Q2263.5 1475.44 2265.3 1479.01 Q2267.13 1482.55 2270.74 1482.55 Q2274.37 1482.55 2276.18 1479.01 Q2278.01 1475.44 2278.01 1468.33 Q2278.01 1461.2 2276.18 1457.66 Q2274.37 1454.1 2270.74 1454.1 M2270.74 1450.39 Q2276.55 1450.39 2279.61 1455 Q2282.68 1459.58 2282.68 1468.33 Q2282.68 1477.06 2279.61 1481.67 Q2276.55 1486.25 2270.74 1486.25 Q2264.93 1486.25 2261.85 1481.67 Q2258.8 1477.06 2258.8 1468.33 Q2258.8 1459.58 2261.85 1455 Q2264.93 1450.39 2270.74 1450.39 Z" fill="#000000" fill-rule="nonzero" fill-opacity="1" /><path clip-path="url(#clip840)" d="M2290.9 1479.7 L2295.79 1479.7 L2295.79 1485.58 L2290.9 1485.58 L2290.9 1479.7 Z" fill="#000000" fill-rule="nonzero" fill-opacity="1" /><path clip-path="url(#clip840)" d="M2306.78 1481.64 L2314.42 1481.64 L2314.42 1455.28 L2306.11 1456.95 L2306.11 1452.69 L2314.37 1451.02 L2319.05 1451.02 L2319.05 1481.64 L2326.69 1481.64 L2326.69 1485.58 L2306.78 1485.58 L2306.78 1481.64 Z" fill="#000000" fill-rule="nonzero" fill-opacity="1" /><path clip-path="url(#clip840)" d="M2346.13 1454.1 Q2342.52 1454.1 2340.69 1457.66 Q2338.89 1461.2 2338.89 1468.33 Q2338.89 1475.44 2340.69 1479.01 Q2342.52 1482.55 2346.13 1482.55 Q2349.77 1482.55 2351.57 1479.01 Q2353.4 1475.44 2353.4 1468.33 Q2353.4 1461.2 2351.57 1457.66 Q2349.77 1454.1 2346.13 1454.1 M2346.13 1450.39 Q2351.94 1450.39 2355 1455 Q2358.08 1459.58 2358.08 1468.33 Q2358.08 1477.06 2355 1481.67 Q2351.94 1486.25 2346.13 1486.25 Q2340.32 1486.25 2337.24 1481.67 Q2334.19 1477.06 2334.19 1468.33 Q2334.19 1459.58 2337.24 1455 Q2340.32 1450.39 2346.13 1450.39 Z" fill="#000000" fill-rule="nonzero" fill-opacity="1" /><path clip-path="url(#clip840)" d="M1015.82 1520.52 L1043.13 1520.52 L1043.13 1525.93 L1022.25 1525.93 L1022.25 1539.94 L1041.09 1539.94 L1041.09 1545.35 L1022.25 1545.35 L1022.25 1568.04 L1015.82 1568.04 L1015.82 1520.52 Z" fill="#000000" fill-rule="nonzero" fill-opacity="1" /><path clip-path="url(#clip840)" d="M1068.97 1537.87 Q1067.98 1537.3 1066.81 1537.04 Q1065.66 1536.76 1064.26 1536.76 Q1059.3 1536.76 1056.62 1540 Q1053.98 1543.22 1053.98 1549.27 L1053.98 1568.04 L1048.09 1568.04 L1048.09 1532.4 L1053.98 1532.4 L1053.98 1537.93 Q1055.83 1534.69 1058.79 1533.13 Q1061.75 1531.54 1065.98 1531.54 Q1066.58 1531.54 1067.32 1531.63 Q1068.05 1531.7 1068.94 1531.85 L1068.97 1537.87 Z" fill="#000000" fill-rule="nonzero" fill-opacity="1" /><path clip-path="url(#clip840)" d="M1104.17 1548.76 L1104.17 1551.62 L1077.25 1551.62 Q1077.63 1557.67 1080.88 1560.85 Q1084.15 1564 1089.98 1564 Q1093.35 1564 1096.5 1563.17 Q1099.69 1562.35 1102.81 1560.69 L1102.81 1566.23 Q1099.65 1567.57 1096.34 1568.27 Q1093.03 1568.97 1089.63 1568.97 Q1081.1 1568.97 1076.1 1564 Q1071.14 1559.04 1071.14 1550.57 Q1071.14 1541.82 1075.85 1536.69 Q1080.59 1531.54 1088.61 1531.54 Q1095.8 1531.54 1099.97 1536.18 Q1104.17 1540.8 1104.17 1548.76 M1098.32 1547.04 Q1098.25 1542.23 1095.61 1539.37 Q1093 1536.5 1088.67 1536.5 Q1083.77 1536.5 1080.81 1539.27 Q1077.88 1542.04 1077.44 1547.07 L1098.32 1547.04 Z" fill="#000000" fill-rule="nonzero" fill-opacity="1" /><path clip-path="url(#clip840)" d="M1117.29 1550.25 Q1117.29 1556.71 1119.93 1560.4 Q1122.6 1564.07 1127.25 1564.07 Q1131.9 1564.07 1134.57 1560.4 Q1137.24 1556.71 1137.24 1550.25 Q1137.24 1543.79 1134.57 1540.13 Q1131.9 1536.44 1127.25 1536.44 Q1122.6 1536.44 1119.93 1540.13 Q1117.29 1543.79 1117.29 1550.25 M1137.24 1562.7 Q1135.4 1565.88 1132.56 1567.44 Q1129.76 1568.97 1125.82 1568.97 Q1119.36 1568.97 1115.28 1563.81 Q1111.24 1558.65 1111.24 1550.25 Q1111.24 1541.85 1115.28 1536.69 Q1119.36 1531.54 1125.82 1531.54 Q1129.76 1531.54 1132.56 1533.1 Q1135.4 1534.62 1137.24 1537.81 L1137.24 1532.4 L1143.1 1532.4 L1143.1 1581.6 L1137.24 1581.6 L1137.24 1562.7 Z" fill="#000000" fill-rule="nonzero" fill-opacity="1" /><path clip-path="url(#clip840)" d="M1154.56 1553.98 L1154.56 1532.4 L1160.41 1532.4 L1160.41 1553.75 Q1160.41 1558.81 1162.39 1561.36 Q1164.36 1563.87 1168.31 1563.87 Q1173.05 1563.87 1175.79 1560.85 Q1178.56 1557.83 1178.56 1552.61 L1178.56 1532.4 L1184.41 1532.4 L1184.41 1568.04 L1178.56 1568.04 L1178.56 1562.57 Q1176.42 1565.82 1173.59 1567.41 Q1170.79 1568.97 1167.07 1568.97 Q1160.92 1568.97 1157.74 1565.15 Q1154.56 1561.33 1154.56 1553.98 M1169.29 1531.54 L1169.29 1531.54 Z" fill="#000000" fill-rule="nonzero" fill-opacity="1" /><path clip-path="url(#clip840)" d="M1226.97 1548.76 L1226.97 1551.62 L1200.04 1551.62 Q1200.42 1557.67 1203.67 1560.85 Q1206.95 1564 1212.77 1564 Q1216.15 1564 1219.3 1563.17 Q1222.48 1562.35 1225.6 1560.69 L1225.6 1566.23 Q1222.45 1567.57 1219.14 1568.27 Q1215.83 1568.97 1212.42 1568.97 Q1203.89 1568.97 1198.9 1564 Q1193.93 1559.04 1193.93 1550.57 Q1193.93 1541.82 1198.64 1536.69 Q1203.38 1531.54 1211.4 1531.54 Q1218.6 1531.54 1222.77 1536.18 Q1226.97 1540.8 1226.97 1548.76 M1221.11 1547.04 Q1221.05 1542.23 1218.41 1539.37 Q1215.8 1536.5 1211.47 1536.5 Q1206.57 1536.5 1203.61 1539.27 Q1200.68 1542.04 1200.23 1547.07 L1221.11 1547.04 Z" fill="#000000" fill-rule="nonzero" fill-opacity="1" /><path clip-path="url(#clip840)" d="M1266.21 1546.53 L1266.21 1568.04 L1260.36 1568.04 L1260.36 1546.72 Q1260.36 1541.66 1258.38 1539.14 Q1256.41 1536.63 1252.46 1536.63 Q1247.72 1536.63 1244.98 1539.65 Q1242.25 1542.68 1242.25 1547.9 L1242.25 1568.04 L1236.36 1568.04 L1236.36 1532.4 L1242.25 1532.4 L1242.25 1537.93 Q1244.35 1534.72 1247.18 1533.13 Q1250.04 1531.54 1253.77 1531.54 Q1259.91 1531.54 1263.06 1535.36 Q1266.21 1539.14 1266.21 1546.53 Z" fill="#000000" fill-rule="nonzero" fill-opacity="1" /><path clip-path="url(#clip840)" d="M1303.55 1533.76 L1303.55 1539.24 Q1301.07 1537.87 1298.55 1537.2 Q1296.07 1536.5 1293.52 1536.5 Q1287.82 1536.5 1284.67 1540.13 Q1281.52 1543.73 1281.52 1550.25 Q1281.52 1556.78 1284.67 1560.4 Q1287.82 1564 1293.52 1564 Q1296.07 1564 1298.55 1563.33 Q1301.07 1562.63 1303.55 1561.26 L1303.55 1566.68 Q1301.1 1567.82 1298.46 1568.39 Q1295.85 1568.97 1292.89 1568.97 Q1284.83 1568.97 1280.09 1563.91 Q1275.35 1558.85 1275.35 1550.25 Q1275.35 1541.53 1280.12 1536.53 Q1284.93 1531.54 1293.27 1531.54 Q1295.97 1531.54 1298.55 1532.11 Q1301.13 1532.65 1303.55 1533.76 Z" fill="#000000" fill-rule="nonzero" fill-opacity="1" /><path clip-path="url(#clip840)" d="M1313.73 1532.4 L1319.59 1532.4 L1319.59 1568.04 L1313.73 1568.04 L1313.73 1532.4 M1313.73 1518.52 L1319.59 1518.52 L1319.59 1525.93 L1313.73 1525.93 L1313.73 1518.52 Z" fill="#000000" fill-rule="nonzero" fill-opacity="1" /><path clip-path="url(#clip840)" d="M1362.33 1548.76 L1362.33 1551.62 L1335.41 1551.62 Q1335.79 1557.67 1339.04 1560.85 Q1342.31 1564 1348.14 1564 Q1351.51 1564 1354.66 1563.17 Q1357.85 1562.35 1360.97 1560.69 L1360.97 1566.23 Q1357.82 1567.57 1354.51 1568.27 Q1351.19 1568.97 1347.79 1568.97 Q1339.26 1568.97 1334.26 1564 Q1329.3 1559.04 1329.3 1550.57 Q1329.3 1541.82 1334.01 1536.69 Q1338.75 1531.54 1346.77 1531.54 Q1353.96 1531.54 1358.13 1536.18 Q1362.33 1540.8 1362.33 1548.76 M1356.48 1547.04 Q1356.41 1542.23 1353.77 1539.37 Q1351.16 1536.5 1346.83 1536.5 Q1341.93 1536.5 1338.97 1539.27 Q1336.04 1542.04 1335.6 1547.07 L1356.48 1547.04 Z" fill="#000000" fill-rule="nonzero" fill-opacity="1" /><path clip-path="url(#clip840)" d="M1394.67 1533.45 L1394.67 1538.98 Q1392.19 1537.71 1389.52 1537.07 Q1386.84 1536.44 1383.98 1536.44 Q1379.62 1536.44 1377.42 1537.77 Q1375.26 1539.11 1375.26 1541.79 Q1375.26 1543.82 1376.82 1545 Q1378.38 1546.15 1383.09 1547.2 L1385.09 1547.64 Q1391.33 1548.98 1393.94 1551.43 Q1396.58 1553.85 1396.58 1558.21 Q1396.58 1563.17 1392.64 1566.07 Q1388.72 1568.97 1381.85 1568.97 Q1378.98 1568.97 1375.86 1568.39 Q1372.77 1567.85 1369.34 1566.74 L1369.34 1560.69 Q1372.58 1562.38 1375.73 1563.24 Q1378.89 1564.07 1381.97 1564.07 Q1386.11 1564.07 1388.34 1562.66 Q1390.57 1561.23 1390.57 1558.65 Q1390.57 1556.27 1388.94 1554.99 Q1387.35 1553.72 1381.91 1552.54 L1379.87 1552.07 Q1374.43 1550.92 1372.01 1548.56 Q1369.59 1546.18 1369.59 1542.04 Q1369.59 1537.01 1373.16 1534.27 Q1376.72 1531.54 1383.28 1531.54 Q1386.52 1531.54 1389.39 1532.01 Q1392.25 1532.49 1394.67 1533.45 Z" fill="#000000" fill-rule="nonzero" fill-opacity="1" /><path clip-path="url(#clip840)" d="M1426.09 1518.52 L1439.58 1518.52 L1439.58 1523.07 L1431.94 1523.07 L1431.94 1572.09 L1439.58 1572.09 L1439.58 1576.64 L1426.09 1576.64 L1426.09 1518.52 Z" fill="#000000" fill-rule="nonzero" fill-opacity="1" /><path clip-path="url(#clip840)" d="M1484.72 1561.26 L1484.72 1548.5 L1474.21 1548.5 L1474.21 1543.22 L1491.08 1543.22 L1491.08 1563.62 Q1487.36 1566.26 1482.87 1567.63 Q1478.38 1568.97 1473.29 1568.97 Q1462.15 1568.97 1455.85 1562.47 Q1449.58 1555.95 1449.58 1544.33 Q1449.58 1532.68 1455.85 1526.19 Q1462.15 1519.66 1473.29 1519.66 Q1477.94 1519.66 1482.11 1520.81 Q1486.31 1521.96 1489.84 1524.18 L1489.84 1531.03 Q1486.28 1528 1482.26 1526.48 Q1478.25 1524.95 1473.83 1524.95 Q1465.11 1524.95 1460.72 1529.82 Q1456.36 1534.69 1456.36 1544.33 Q1456.36 1553.94 1460.72 1558.81 Q1465.11 1563.68 1473.83 1563.68 Q1477.24 1563.68 1479.91 1563.11 Q1482.58 1562.51 1484.72 1561.26 Z" fill="#000000" fill-rule="nonzero" fill-opacity="1" /><path clip-path="url(#clip840)" d="M1502.83 1520.52 L1509.26 1520.52 L1509.26 1540 L1532.62 1540 L1532.62 1520.52 L1539.05 1520.52 L1539.05 1568.04 L1532.62 1568.04 L1532.62 1545.41 L1509.26 1545.41 L1509.26 1568.04 L1502.83 1568.04 L1502.83 1520.52 Z" fill="#000000" fill-rule="nonzero" fill-opacity="1" /><path clip-path="url(#clip840)" d="M1549.04 1532.4 L1576.86 1532.4 L1576.86 1537.74 L1554.83 1563.37 L1576.86 1563.37 L1576.86 1568.04 L1548.25 1568.04 L1548.25 1562.7 L1570.27 1537.07 L1549.04 1537.07 L1549.04 1532.4 Z" fill="#000000" fill-rule="nonzero" fill-opacity="1" /><path clip-path="url(#clip840)" d="M1599.49 1518.52 L1599.49 1576.64 L1585.99 1576.64 L1585.99 1572.09 L1593.6 1572.09 L1593.6 1523.07 L1585.99 1523.07 L1585.99 1518.52 L1599.49 1518.52 Z" fill="#000000" fill-rule="nonzero" fill-opacity="1" /><polyline clip-path="url(#clip840)" style="stroke:#000000; stroke-linecap:round; stroke-linejoin:round; stroke-width:4; stroke-opacity:1; fill:none" points="262.551,1423.18 262.551,47.2441 "/>
<polyline clip-path="url(#clip840)" style="stroke:#000000; stroke-linecap:round; stroke-linejoin:round; stroke-width:4; stroke-opacity:1; fill:none" points="262.551,1295.44 281.449,1295.44 "/>
<polyline clip-path="url(#clip840)" style="stroke:#000000; stroke-linecap:round; stroke-linejoin:round; stroke-width:4; stroke-opacity:1; fill:none" points="262.551,1094.8 281.449,1094.8 "/>
<polyline clip-path="url(#clip840)" style="stroke:#000000; stroke-linecap:round; stroke-linejoin:round; stroke-width:4; stroke-opacity:1; fill:none" points="262.551,894.164 281.449,894.164 "/>
<polyline clip-path="url(#clip840)" style="stroke:#000000; stroke-linecap:round; stroke-linejoin:round; stroke-width:4; stroke-opacity:1; fill:none" points="262.551,693.528 281.449,693.528 "/>
<polyline clip-path="url(#clip840)" style="stroke:#000000; stroke-linecap:round; stroke-linejoin:round; stroke-width:4; stroke-opacity:1; fill:none" points="262.551,492.891 281.449,492.891 "/>
<polyline clip-path="url(#clip840)" style="stroke:#000000; stroke-linecap:round; stroke-linejoin:round; stroke-width:4; stroke-opacity:1; fill:none" points="262.551,292.255 281.449,292.255 "/>
<polyline clip-path="url(#clip840)" style="stroke:#000000; stroke-linecap:round; stroke-linejoin:round; stroke-width:4; stroke-opacity:1; fill:none" points="262.551,91.6182 281.449,91.6182 "/>
<path clip-path="url(#clip840)" d="M148.311 1308.78 L164.63 1308.78 L164.63 1312.72 L142.686 1312.72 L142.686 1308.78 Q145.348 1306.03 149.931 1301.4 Q154.538 1296.74 155.718 1295.4 Q157.964 1292.88 158.843 1291.14 Q159.746 1289.38 159.746 1287.69 Q159.746 1284.94 157.802 1283.2 Q155.88 1281.47 152.778 1281.47 Q150.579 1281.47 148.126 1282.23 Q145.695 1282.99 142.917 1284.55 L142.917 1279.82 Q145.741 1278.69 148.195 1278.11 Q150.649 1277.53 152.686 1277.53 Q158.056 1277.53 161.251 1280.22 Q164.445 1282.9 164.445 1287.39 Q164.445 1289.52 163.635 1291.44 Q162.848 1293.34 160.741 1295.93 Q160.163 1296.61 157.061 1299.82 Q153.959 1303.02 148.311 1308.78 Z" fill="#000000" fill-rule="nonzero" fill-opacity="1" /><path clip-path="url(#clip840)" d="M174.491 1278.16 L192.848 1278.16 L192.848 1282.09 L178.774 1282.09 L178.774 1290.56 Q179.792 1290.22 180.811 1290.06 Q181.829 1289.87 182.848 1289.87 Q188.635 1289.87 192.014 1293.04 Q195.394 1296.21 195.394 1301.63 Q195.394 1307.21 191.922 1310.31 Q188.45 1313.39 182.13 1313.39 Q179.954 1313.39 177.686 1313.02 Q175.44 1312.65 173.033 1311.91 L173.033 1307.21 Q175.116 1308.34 177.339 1308.9 Q179.561 1309.45 182.038 1309.45 Q186.042 1309.45 188.38 1307.35 Q190.718 1305.24 190.718 1301.63 Q190.718 1298.02 188.38 1295.91 Q186.042 1293.81 182.038 1293.81 Q180.163 1293.81 178.288 1294.22 Q176.436 1294.64 174.491 1295.52 L174.491 1278.16 Z" fill="#000000" fill-rule="nonzero" fill-opacity="1" /><path clip-path="url(#clip840)" d="M214.607 1281.24 Q210.996 1281.24 209.167 1284.8 Q207.362 1288.34 207.362 1295.47 Q207.362 1302.58 209.167 1306.14 Q210.996 1309.68 214.607 1309.68 Q218.241 1309.68 220.047 1306.14 Q221.875 1302.58 221.875 1295.47 Q221.875 1288.34 220.047 1284.8 Q218.241 1281.24 214.607 1281.24 M214.607 1277.53 Q220.417 1277.53 223.473 1282.14 Q226.551 1286.72 226.551 1295.47 Q226.551 1304.2 223.473 1308.81 Q220.417 1313.39 214.607 1313.39 Q208.797 1313.39 205.718 1308.81 Q202.662 1304.2 202.662 1295.47 Q202.662 1286.72 205.718 1282.14 Q208.797 1277.53 214.607 1277.53 Z" fill="#000000" fill-rule="nonzero" fill-opacity="1" /><path clip-path="url(#clip840)" d="M144.329 1077.52 L162.686 1077.52 L162.686 1081.46 L148.612 1081.46 L148.612 1089.93 Q149.63 1089.58 150.649 1089.42 Q151.667 1089.23 152.686 1089.23 Q158.473 1089.23 161.852 1092.4 Q165.232 1095.58 165.232 1100.99 Q165.232 1106.57 161.76 1109.67 Q158.288 1112.75 151.968 1112.75 Q149.792 1112.75 147.524 1112.38 Q145.279 1112.01 142.871 1111.27 L142.871 1106.57 Q144.954 1107.71 147.177 1108.26 Q149.399 1108.82 151.876 1108.82 Q155.88 1108.82 158.218 1106.71 Q160.556 1104.6 160.556 1100.99 Q160.556 1097.38 158.218 1095.28 Q155.88 1093.17 151.876 1093.17 Q150.001 1093.17 148.126 1093.59 Q146.274 1094 144.329 1094.88 L144.329 1077.52 Z" fill="#000000" fill-rule="nonzero" fill-opacity="1" /><path clip-path="url(#clip840)" d="M184.445 1080.6 Q180.834 1080.6 179.005 1084.16 Q177.2 1087.71 177.2 1094.84 Q177.2 1101.94 179.005 1105.51 Q180.834 1109.05 184.445 1109.05 Q188.079 1109.05 189.885 1105.51 Q191.713 1101.94 191.713 1094.84 Q191.713 1087.71 189.885 1084.16 Q188.079 1080.6 184.445 1080.6 M184.445 1076.9 Q190.255 1076.9 193.311 1081.5 Q196.389 1086.09 196.389 1094.84 Q196.389 1103.56 193.311 1108.17 Q190.255 1112.75 184.445 1112.75 Q178.635 1112.75 175.556 1108.17 Q172.501 1103.56 172.501 1094.84 Q172.501 1086.09 175.556 1081.5 Q178.635 1076.9 184.445 1076.9 Z" fill="#000000" fill-rule="nonzero" fill-opacity="1" /><path clip-path="url(#clip840)" d="M214.607 1080.6 Q210.996 1080.6 209.167 1084.16 Q207.362 1087.71 207.362 1094.84 Q207.362 1101.94 209.167 1105.51 Q210.996 1109.05 214.607 1109.05 Q218.241 1109.05 220.047 1105.51 Q221.875 1101.94 221.875 1094.84 Q221.875 1087.71 220.047 1084.16 Q218.241 1080.6 214.607 1080.6 M214.607 1076.9 Q220.417 1076.9 223.473 1081.5 Q226.551 1086.09 226.551 1094.84 Q226.551 1103.56 223.473 1108.17 Q220.417 1112.75 214.607 1112.75 Q208.797 1112.75 205.718 1108.17 Q202.662 1103.56 202.662 1094.84 Q202.662 1086.09 205.718 1081.5 Q208.797 1076.9 214.607 1076.9 Z" fill="#000000" fill-rule="nonzero" fill-opacity="1" /><path clip-path="url(#clip840)" d="M143.103 876.884 L165.325 876.884 L165.325 878.875 L152.778 911.444 L147.894 911.444 L159.7 880.819 L143.103 880.819 L143.103 876.884 Z" fill="#000000" fill-rule="nonzero" fill-opacity="1" /><path clip-path="url(#clip840)" d="M174.491 876.884 L192.848 876.884 L192.848 880.819 L178.774 880.819 L178.774 889.291 Q179.792 888.944 180.811 888.782 Q181.829 888.597 182.848 888.597 Q188.635 888.597 192.014 891.768 Q195.394 894.94 195.394 900.356 Q195.394 905.935 191.922 909.037 Q188.45 912.115 182.13 912.115 Q179.954 912.115 177.686 911.745 Q175.44 911.375 173.033 910.634 L173.033 905.935 Q175.116 907.069 177.339 907.625 Q179.561 908.18 182.038 908.18 Q186.042 908.18 188.38 906.074 Q190.718 903.967 190.718 900.356 Q190.718 896.745 188.38 894.639 Q186.042 892.532 182.038 892.532 Q180.163 892.532 178.288 892.949 Q176.436 893.365 174.491 894.245 L174.491 876.884 Z" fill="#000000" fill-rule="nonzero" fill-opacity="1" /><path clip-path="url(#clip840)" d="M214.607 879.963 Q210.996 879.963 209.167 883.528 Q207.362 887.069 207.362 894.199 Q207.362 901.305 209.167 904.87 Q210.996 908.412 214.607 908.412 Q218.241 908.412 220.047 904.87 Q221.875 901.305 221.875 894.199 Q221.875 887.069 220.047 883.528 Q218.241 879.963 214.607 879.963 M214.607 876.259 Q220.417 876.259 223.473 880.866 Q226.551 885.449 226.551 894.199 Q226.551 902.926 223.473 907.532 Q220.417 912.115 214.607 912.115 Q208.797 912.115 205.718 907.532 Q202.662 902.926 202.662 894.199 Q202.662 885.449 205.718 880.866 Q208.797 876.259 214.607 876.259 Z" fill="#000000" fill-rule="nonzero" fill-opacity="1" /><path clip-path="url(#clip840)" d="M114.931 706.872 L122.57 706.872 L122.57 680.507 L114.26 682.174 L114.26 677.914 L122.524 676.248 L127.2 676.248 L127.2 706.872 L134.839 706.872 L134.839 710.808 L114.931 710.808 L114.931 706.872 Z" fill="#000000" fill-rule="nonzero" fill-opacity="1" /><path clip-path="url(#clip840)" d="M154.283 679.326 Q150.672 679.326 148.843 682.891 Q147.038 686.433 147.038 693.562 Q147.038 700.669 148.843 704.234 Q150.672 707.775 154.283 707.775 Q157.917 707.775 159.723 704.234 Q161.552 700.669 161.552 693.562 Q161.552 686.433 159.723 682.891 Q157.917 679.326 154.283 679.326 M154.283 675.623 Q160.093 675.623 163.149 680.229 Q166.227 684.812 166.227 693.562 Q166.227 702.289 163.149 706.896 Q160.093 711.479 154.283 711.479 Q148.473 711.479 145.394 706.896 Q142.339 702.289 142.339 693.562 Q142.339 684.812 145.394 680.229 Q148.473 675.623 154.283 675.623 Z" fill="#000000" fill-rule="nonzero" fill-opacity="1" /><path clip-path="url(#clip840)" d="M184.445 679.326 Q180.834 679.326 179.005 682.891 Q177.2 686.433 177.2 693.562 Q177.2 700.669 179.005 704.234 Q180.834 707.775 184.445 707.775 Q188.079 707.775 189.885 704.234 Q191.713 700.669 191.713 693.562 Q191.713 686.433 189.885 682.891 Q188.079 679.326 184.445 679.326 M184.445 675.623 Q190.255 675.623 193.311 680.229 Q196.389 684.812 196.389 693.562 Q196.389 702.289 193.311 706.896 Q190.255 711.479 184.445 711.479 Q178.635 711.479 175.556 706.896 Q172.501 702.289 172.501 693.562 Q172.501 684.812 175.556 680.229 Q178.635 675.623 184.445 675.623 Z" fill="#000000" fill-rule="nonzero" fill-opacity="1" /><path clip-path="url(#clip840)" d="M214.607 679.326 Q210.996 679.326 209.167 682.891 Q207.362 686.433 207.362 693.562 Q207.362 700.669 209.167 704.234 Q210.996 707.775 214.607 707.775 Q218.241 707.775 220.047 704.234 Q221.875 700.669 221.875 693.562 Q221.875 686.433 220.047 682.891 Q218.241 679.326 214.607 679.326 M214.607 675.623 Q220.417 675.623 223.473 680.229 Q226.551 684.812 226.551 693.562 Q226.551 702.289 223.473 706.896 Q220.417 711.479 214.607 711.479 Q208.797 711.479 205.718 706.896 Q202.662 702.289 202.662 693.562 Q202.662 684.812 205.718 680.229 Q208.797 675.623 214.607 675.623 Z" fill="#000000" fill-rule="nonzero" fill-opacity="1" /><path clip-path="url(#clip840)" d="M114.931 506.236 L122.57 506.236 L122.57 479.87 L114.26 481.537 L114.26 477.278 L122.524 475.611 L127.2 475.611 L127.2 506.236 L134.839 506.236 L134.839 510.171 L114.931 510.171 L114.931 506.236 Z" fill="#000000" fill-rule="nonzero" fill-opacity="1" /><path clip-path="url(#clip840)" d="M148.311 506.236 L164.63 506.236 L164.63 510.171 L142.686 510.171 L142.686 506.236 Q145.348 503.481 149.931 498.852 Q154.538 494.199 155.718 492.856 Q157.964 490.333 158.843 488.597 Q159.746 486.838 159.746 485.148 Q159.746 482.393 157.802 480.657 Q155.88 478.921 152.778 478.921 Q150.579 478.921 148.126 479.685 Q145.695 480.449 142.917 482 L142.917 477.278 Q145.741 476.144 148.195 475.565 Q150.649 474.986 152.686 474.986 Q158.056 474.986 161.251 477.671 Q164.445 480.356 164.445 484.847 Q164.445 486.977 163.635 488.898 Q162.848 490.796 160.741 493.389 Q160.163 494.06 157.061 497.278 Q153.959 500.472 148.311 506.236 Z" fill="#000000" fill-rule="nonzero" fill-opacity="1" /><path clip-path="url(#clip840)" d="M174.491 475.611 L192.848 475.611 L192.848 479.546 L178.774 479.546 L178.774 488.018 Q179.792 487.671 180.811 487.509 Q181.829 487.324 182.848 487.324 Q188.635 487.324 192.014 490.495 Q195.394 493.667 195.394 499.083 Q195.394 504.662 191.922 507.764 Q188.45 510.842 182.13 510.842 Q179.954 510.842 177.686 510.472 Q175.44 510.102 173.033 509.361 L173.033 504.662 Q175.116 505.796 177.339 506.352 Q179.561 506.907 182.038 506.907 Q186.042 506.907 188.38 504.801 Q190.718 502.694 190.718 499.083 Q190.718 495.472 188.38 493.366 Q186.042 491.259 182.038 491.259 Q180.163 491.259 178.288 491.676 Q176.436 492.093 174.491 492.972 L174.491 475.611 Z" fill="#000000" fill-rule="nonzero" fill-opacity="1" /><path clip-path="url(#clip840)" d="M214.607 478.69 Q210.996 478.69 209.167 482.255 Q207.362 485.796 207.362 492.926 Q207.362 500.032 209.167 503.597 Q210.996 507.139 214.607 507.139 Q218.241 507.139 220.047 503.597 Q221.875 500.032 221.875 492.926 Q221.875 485.796 220.047 482.255 Q218.241 478.69 214.607 478.69 M214.607 474.986 Q220.417 474.986 223.473 479.593 Q226.551 484.176 226.551 492.926 Q226.551 501.653 223.473 506.259 Q220.417 510.842 214.607 510.842 Q208.797 510.842 205.718 506.259 Q202.662 501.653 202.662 492.926 Q202.662 484.176 205.718 479.593 Q208.797 474.986 214.607 474.986 Z" fill="#000000" fill-rule="nonzero" fill-opacity="1" /><path clip-path="url(#clip840)" d="M114.931 305.599 L122.57 305.599 L122.57 279.234 L114.26 280.901 L114.26 276.641 L122.524 274.975 L127.2 274.975 L127.2 305.599 L134.839 305.599 L134.839 309.535 L114.931 309.535 L114.931 305.599 Z" fill="#000000" fill-rule="nonzero" fill-opacity="1" /><path clip-path="url(#clip840)" d="M144.329 274.975 L162.686 274.975 L162.686 278.91 L148.612 278.91 L148.612 287.382 Q149.63 287.035 150.649 286.873 Q151.667 286.688 152.686 286.688 Q158.473 286.688 161.852 289.859 Q165.232 293.03 165.232 298.447 Q165.232 304.025 161.76 307.127 Q158.288 310.206 151.968 310.206 Q149.792 310.206 147.524 309.836 Q145.279 309.465 142.871 308.724 L142.871 304.025 Q144.954 305.16 147.177 305.715 Q149.399 306.271 151.876 306.271 Q155.88 306.271 158.218 304.164 Q160.556 302.058 160.556 298.447 Q160.556 294.836 158.218 292.729 Q155.88 290.623 151.876 290.623 Q150.001 290.623 148.126 291.039 Q146.274 291.456 144.329 292.336 L144.329 274.975 Z" fill="#000000" fill-rule="nonzero" fill-opacity="1" /><path clip-path="url(#clip840)" d="M184.445 278.053 Q180.834 278.053 179.005 281.618 Q177.2 285.16 177.2 292.289 Q177.2 299.396 179.005 302.961 Q180.834 306.502 184.445 306.502 Q188.079 306.502 189.885 302.961 Q191.713 299.396 191.713 292.289 Q191.713 285.16 189.885 281.618 Q188.079 278.053 184.445 278.053 M184.445 274.35 Q190.255 274.35 193.311 278.956 Q196.389 283.539 196.389 292.289 Q196.389 301.016 193.311 305.623 Q190.255 310.206 184.445 310.206 Q178.635 310.206 175.556 305.623 Q172.501 301.016 172.501 292.289 Q172.501 283.539 175.556 278.956 Q178.635 274.35 184.445 274.35 Z" fill="#000000" fill-rule="nonzero" fill-opacity="1" /><path clip-path="url(#clip840)" d="M214.607 278.053 Q210.996 278.053 209.167 281.618 Q207.362 285.16 207.362 292.289 Q207.362 299.396 209.167 302.961 Q210.996 306.502 214.607 306.502 Q218.241 306.502 220.047 302.961 Q221.875 299.396 221.875 292.289 Q221.875 285.16 220.047 281.618 Q218.241 278.053 214.607 278.053 M214.607 274.35 Q220.417 274.35 223.473 278.956 Q226.551 283.539 226.551 292.289 Q226.551 301.016 223.473 305.623 Q220.417 310.206 214.607 310.206 Q208.797 310.206 205.718 305.623 Q202.662 301.016 202.662 292.289 Q202.662 283.539 205.718 278.956 Q208.797 274.35 214.607 274.35 Z" fill="#000000" fill-rule="nonzero" fill-opacity="1" /><path clip-path="url(#clip840)" d="M114.931 104.963 L122.57 104.963 L122.57 78.5974 L114.26 80.2641 L114.26 76.0048 L122.524 74.3382 L127.2 74.3382 L127.2 104.963 L134.839 104.963 L134.839 108.898 L114.931 108.898 L114.931 104.963 Z" fill="#000000" fill-rule="nonzero" fill-opacity="1" /><path clip-path="url(#clip840)" d="M143.103 74.3382 L165.325 74.3382 L165.325 76.3289 L152.778 108.898 L147.894 108.898 L159.7 78.2733 L143.103 78.2733 L143.103 74.3382 Z" fill="#000000" fill-rule="nonzero" fill-opacity="1" /><path clip-path="url(#clip840)" d="M174.491 74.3382 L192.848 74.3382 L192.848 78.2733 L178.774 78.2733 L178.774 86.7455 Q179.792 86.3983 180.811 86.2362 Q181.829 86.0511 182.848 86.0511 Q188.635 86.0511 192.014 89.2223 Q195.394 92.3936 195.394 97.8103 Q195.394 103.389 191.922 106.491 Q188.45 109.569 182.13 109.569 Q179.954 109.569 177.686 109.199 Q175.44 108.829 173.033 108.088 L173.033 103.389 Q175.116 104.523 177.339 105.079 Q179.561 105.634 182.038 105.634 Q186.042 105.634 188.38 103.528 Q190.718 101.421 190.718 97.8103 Q190.718 94.1992 188.38 92.0927 Q186.042 89.9862 182.038 89.9862 Q180.163 89.9862 178.288 90.4029 Q176.436 90.8196 174.491 91.6992 L174.491 74.3382 Z" fill="#000000" fill-rule="nonzero" fill-opacity="1" /><path clip-path="url(#clip840)" d="M214.607 77.4168 Q210.996 77.4168 209.167 80.9816 Q207.362 84.5233 207.362 91.6529 Q207.362 98.7593 209.167 102.324 Q210.996 105.866 214.607 105.866 Q218.241 105.866 220.047 102.324 Q221.875 98.7593 221.875 91.6529 Q221.875 84.5233 220.047 80.9816 Q218.241 77.4168 214.607 77.4168 M214.607 73.7132 Q220.417 73.7132 223.473 78.3196 Q226.551 82.9029 226.551 91.6529 Q226.551 100.38 223.473 104.986 Q220.417 109.569 214.607 109.569 Q208.797 109.569 205.718 104.986 Q202.662 100.38 202.662 91.6529 Q202.662 82.9029 205.718 78.3196 Q208.797 73.7132 214.607 73.7132 Z" fill="#000000" fill-rule="nonzero" fill-opacity="1" /><path clip-path="url(#clip840)" d="M41.7242 960.972 Q42.4244 958.903 44.7161 956.961 Q47.0077 954.988 51.0181 953.015 L64.0042 946.49 L64.0042 953.397 L51.8138 959.476 Q47.0395 961.831 45.48 964.059 Q43.9204 966.255 43.9204 970.075 L43.9204 977.077 L64.0042 977.077 L64.0042 983.506 L16.4842 983.506 L16.4842 968.993 Q16.4842 960.844 19.8898 956.834 Q23.2955 952.824 30.1704 952.824 Q34.6582 952.824 37.6183 954.924 Q40.5784 956.993 41.7242 960.972 M21.7677 977.077 L38.6368 977.077 L38.6368 968.993 Q38.6368 964.346 36.5043 961.99 Q34.34 959.603 30.1704 959.603 Q26.0009 959.603 23.9002 961.99 Q21.7677 964.346 21.7677 968.993 L21.7677 977.077 Z" fill="#000000" fill-rule="nonzero" fill-opacity="1" /><path clip-path="url(#clip840)" d="M44.7161 910.905 L47.5806 910.905 L47.5806 937.832 Q53.6281 937.45 56.8109 934.204 Q59.9619 930.926 59.9619 925.101 Q59.9619 921.727 59.1344 918.576 Q58.3069 915.393 56.6518 912.274 L62.1899 912.274 Q63.5267 915.425 64.227 918.735 Q64.9272 922.045 64.9272 925.451 Q64.9272 933.981 59.9619 938.978 Q54.9967 943.943 46.5303 943.943 Q37.7774 943.943 32.6531 939.233 Q27.4968 934.49 27.4968 926.47 Q27.4968 919.276 32.1438 915.107 Q36.7589 910.905 44.7161 910.905 M42.9973 916.762 Q38.1912 916.826 35.3266 919.467 Q32.4621 922.077 32.4621 926.406 Q32.4621 931.308 35.2312 934.268 Q38.0002 937.196 43.0292 937.641 L42.9973 916.762 Z" fill="#000000" fill-rule="nonzero" fill-opacity="1" /><path clip-path="url(#clip840)" d="M14.479 883.246 L19.3487 883.246 L19.3487 888.848 Q19.3487 891.999 20.6219 893.241 Q21.895 894.45 25.2052 894.45 L28.3562 894.45 L28.3562 884.806 L32.9077 884.806 L32.9077 894.45 L64.0042 894.45 L64.0042 900.338 L32.9077 900.338 L32.9077 905.94 L28.3562 905.94 L28.3562 900.338 L25.8736 900.338 Q19.9216 900.338 17.2162 897.569 Q14.479 894.8 14.479 888.785 L14.479 883.246 Z" fill="#000000" fill-rule="nonzero" fill-opacity="1" /><path clip-path="url(#clip840)" d="M14.479 878.345 L14.479 872.488 L64.0042 872.488 L64.0042 878.345 L14.479 878.345 Z" fill="#000000" fill-rule="nonzero" fill-opacity="1" /><path clip-path="url(#clip840)" d="M44.7161 829.743 L47.5806 829.743 L47.5806 856.67 Q53.6281 856.288 56.8109 853.041 Q59.9619 849.763 59.9619 843.938 Q59.9619 840.564 59.1344 837.413 Q58.3069 834.231 56.6518 831.111 L62.1899 831.111 Q63.5267 834.262 64.227 837.573 Q64.9272 840.883 64.9272 844.288 Q64.9272 852.818 59.9619 857.815 Q54.9967 862.781 46.5303 862.781 Q37.7774 862.781 32.6531 858.07 Q27.4968 853.328 27.4968 845.307 Q27.4968 838.114 32.1438 833.944 Q36.7589 829.743 44.7161 829.743 M42.9973 835.599 Q38.1912 835.663 35.3266 838.305 Q32.4621 840.915 32.4621 845.243 Q32.4621 850.145 35.2312 853.105 Q38.0002 856.033 43.0292 856.479 L42.9973 835.599 Z" fill="#000000" fill-rule="nonzero" fill-opacity="1" /><path clip-path="url(#clip840)" d="M29.7248 794.477 L35.1993 794.477 Q33.8307 796.959 33.1623 799.474 Q32.4621 801.956 32.4621 804.503 Q32.4621 810.2 36.0905 813.351 Q39.6872 816.502 46.212 816.502 Q52.7369 816.502 56.3653 813.351 Q59.9619 810.2 59.9619 804.503 Q59.9619 801.956 59.2935 799.474 Q58.5933 796.959 57.2247 794.477 L62.6355 794.477 Q63.7814 796.927 64.3543 799.569 Q64.9272 802.179 64.9272 805.139 Q64.9272 813.192 59.8664 817.934 Q54.8057 822.677 46.212 822.677 Q37.491 822.677 32.4939 817.902 Q27.4968 813.096 27.4968 804.757 Q27.4968 802.052 28.0697 799.474 Q28.6108 796.896 29.7248 794.477 Z" fill="#000000" fill-rule="nonzero" fill-opacity="1" /><path clip-path="url(#clip840)" d="M18.2347 778.499 L28.3562 778.499 L28.3562 766.436 L32.9077 766.436 L32.9077 778.499 L52.2594 778.499 Q56.6199 778.499 57.8613 777.321 Q59.1026 776.112 59.1026 772.451 L59.1026 766.436 L64.0042 766.436 L64.0042 772.451 Q64.0042 779.231 61.4897 781.809 Q58.9434 784.387 52.2594 784.387 L32.9077 784.387 L32.9077 788.684 L28.3562 788.684 L28.3562 784.387 L18.2347 784.387 L18.2347 778.499 Z" fill="#000000" fill-rule="nonzero" fill-opacity="1" /><path clip-path="url(#clip840)" d="M28.3562 758.733 L28.3562 752.877 L64.0042 752.877 L64.0042 758.733 L28.3562 758.733 M14.479 758.733 L14.479 752.877 L21.895 752.877 L21.895 758.733 L14.479 758.733 Z" fill="#000000" fill-rule="nonzero" fill-opacity="1" /><path clip-path="url(#clip840)" d="M28.3562 744.824 L28.3562 738.618 L58.275 727.478 L28.3562 716.338 L28.3562 710.131 L64.0042 723.499 L64.0042 731.456 L28.3562 744.824 Z" fill="#000000" fill-rule="nonzero" fill-opacity="1" /><path clip-path="url(#clip840)" d="M28.3562 702.047 L28.3562 696.19 L64.0042 696.19 L64.0042 702.047 L28.3562 702.047 M14.479 702.047 L14.479 696.19 L21.895 696.19 L21.895 702.047 L14.479 702.047 Z" fill="#000000" fill-rule="nonzero" fill-opacity="1" /><path clip-path="url(#clip840)" d="M18.2347 678.143 L28.3562 678.143 L28.3562 666.08 L32.9077 666.08 L32.9077 678.143 L52.2594 678.143 Q56.6199 678.143 57.8613 676.966 Q59.1026 675.756 59.1026 672.096 L59.1026 666.08 L64.0042 666.08 L64.0042 672.096 Q64.0042 678.875 61.4897 681.454 Q58.9434 684.032 52.2594 684.032 L32.9077 684.032 L32.9077 688.329 L28.3562 688.329 L28.3562 684.032 L18.2347 684.032 L18.2347 678.143 Z" fill="#000000" fill-rule="nonzero" fill-opacity="1" /><path clip-path="url(#clip840)" d="M67.3143 643.546 Q73.68 646.028 75.6216 648.384 Q77.5631 650.739 77.5631 654.686 L77.5631 659.365 L72.6615 659.365 L72.6615 655.927 Q72.6615 653.508 71.5157 652.171 Q70.3699 650.835 66.1048 649.211 L63.4312 648.161 L28.3562 662.579 L28.3562 656.373 L56.238 645.233 L28.3562 634.093 L28.3562 627.886 L67.3143 643.546 Z" fill="#000000" fill-rule="nonzero" fill-opacity="1" /><path clip-path="url(#clip840)" d="M18.0438 570.34 L24.314 570.34 Q22.5634 574 21.704 577.247 Q20.8447 580.493 20.8447 583.517 Q20.8447 588.769 22.8817 591.633 Q24.9187 594.466 28.6745 594.466 Q31.8255 594.466 33.4488 592.588 Q35.0402 590.679 36.0269 585.395 L36.8226 581.512 Q38.1912 574.319 41.6605 570.913 Q45.098 567.476 50.8908 567.476 Q57.7976 567.476 61.3624 572.123 Q64.9272 576.738 64.9272 585.682 Q64.9272 589.055 64.1633 592.875 Q63.3994 596.662 61.9035 600.736 L55.2831 600.736 Q57.4793 596.822 58.5933 593.066 Q59.7073 589.31 59.7073 585.682 Q59.7073 580.175 57.543 577.183 Q55.3786 574.191 51.3682 574.191 Q47.8671 574.191 45.8937 576.356 Q43.9204 578.488 42.9337 583.39 L42.1698 587.305 Q40.7375 594.498 37.682 597.713 Q34.6264 600.927 29.1837 600.927 Q22.8817 600.927 19.2532 596.503 Q15.6248 592.047 15.6248 584.249 Q15.6248 580.907 16.2295 577.438 Q16.8343 573.969 18.0438 570.34 Z" fill="#000000" fill-rule="nonzero" fill-opacity="1" /><path clip-path="url(#clip840)" d="M58.5933 555.763 L58.5933 545.259 L22.3406 545.259 L24.6323 556.686 L18.7758 556.686 L16.4842 545.323 L16.4842 538.894 L58.5933 538.894 L58.5933 528.39 L64.0042 528.39 L64.0042 555.763 L58.5933 555.763 Z" fill="#000000" fill-rule="nonzero" fill-opacity="1" /><path clip-path="url(#clip840)" d="M58.5933 514.29 L58.5933 503.787 L22.3406 503.787 L24.6323 515.213 L18.7758 515.213 L16.4842 503.85 L16.4842 497.421 L58.5933 497.421 L58.5933 486.918 L64.0042 486.918 L64.0042 514.29 L58.5933 514.29 Z" fill="#000000" fill-rule="nonzero" fill-opacity="1" /><polyline clip-path="url(#clip842)" style="stroke:#009af9; stroke-linecap:round; stroke-linejoin:round; stroke-width:4; stroke-opacity:1; fill:none" points="321.708,1307.14 323.682,1306.58 325.656,1306.01 327.63,1305.45 329.603,1304.88 331.577,1304.3 333.551,1303.73 335.525,1303.15 337.499,1302.57 339.473,1301.98 341.447,1301.39 343.42,1300.8 345.394,1300.21 347.368,1299.62 349.342,1299.02 351.316,1298.42 353.29,1297.81 355.264,1297.2 357.238,1296.59 359.211,1295.98 361.185,1295.36 363.159,1294.74 365.133,1294.12 367.107,1293.5 369.081,1292.87 371.055,1292.24 373.028,1291.6 375.002,1290.96 376.976,1290.32 378.95,1289.68 380.924,1289.03 382.898,1288.38 384.872,1287.73 386.846,1287.07 388.819,1286.41 390.793,1285.74 392.767,1285.08 394.741,1284.41 396.715,1283.73 398.689,1283.05 400.663,1282.37 402.636,1281.69 404.61,1281 406.584,1280.31 408.558,1279.62 410.532,1278.92 412.506,1278.22 414.48,1277.51 416.453,1276.8 418.427,1276.09 420.401,1275.37 422.375,1274.65 424.349,1273.93 426.323,1273.2 428.297,1272.47 430.271,1271.74 432.244,1271 434.218,1270.25 436.192,1269.51 438.166,1268.76 440.14,1268 442.114,1267.24 444.088,1266.48 446.061,1265.72 448.035,1264.95 450.009,1264.17 451.983,1263.39 453.957,1262.61 455.931,1261.83 457.905,1261.03 459.879,1260.24 461.852,1259.44 463.826,1258.64 465.8,1257.83 467.774,1257.02 469.748,1256.2 471.722,1255.38 473.696,1254.56 475.669,1253.73 477.643,1252.89 479.617,1252.06 481.591,1251.21 483.565,1250.37 485.539,1249.51 487.513,1248.66 489.486,1247.8 491.46,1246.93 493.434,1246.06 495.408,1245.19 497.382,1244.31 499.356,1243.42 501.33,1242.53 503.304,1241.64 505.277,1240.74 507.251,1239.84 509.225,1238.93 511.199,1238.01 513.173,1237.09 515.147,1236.17 517.121,1235.24 519.094,1234.31 521.068,1233.37 523.042,1232.42 525.016,1231.47 526.99,1230.52 528.964,1229.56 530.938,1228.59 532.912,1227.62 534.885,1226.64 536.859,1225.66 538.833,1224.67 540.807,1223.68 542.781,1222.68 544.755,1221.68 546.729,1220.67 548.702,1219.65 550.676,1218.63 552.65,1217.6 554.624,1216.57 556.598,1215.53 558.572,1214.49 560.546,1213.44 562.519,1212.38 564.493,1211.32 566.467,1210.25 568.441,1209.17 570.415,1208.09 572.389,1207.01 574.363,1205.91 576.337,1204.81 578.31,1203.71 580.284,1202.6 582.258,1201.48 584.232,1200.35 586.206,1199.22 588.18,1198.08 590.154,1196.94 592.127,1195.78 594.101,1194.63 596.075,1193.46 598.049,1192.29 600.023,1191.11 601.997,1189.92 603.971,1188.73 605.945,1187.53 607.918,1186.32 609.892,1185.11 611.866,1183.89 613.84,1182.66 615.814,1181.43 617.788,1180.18 619.762,1178.93 621.735,1177.68 623.709,1176.41 625.683,1175.14 627.657,1173.86 629.631,1172.57 631.605,1171.28 633.579,1169.97 635.553,1168.66 637.526,1167.34 639.5,1166.02 641.474,1164.68 643.448,1163.34 645.422,1161.99 647.396,1160.63 649.37,1159.26 651.343,1157.89 653.317,1156.5 655.291,1155.11 657.265,1153.71 659.239,1152.3 661.213,1150.88 663.187,1149.46 665.16,1148.02 667.134,1146.58 669.108,1145.12 671.082,1143.66 673.056,1142.19 675.03,1140.71 677.004,1139.22 678.978,1137.73 680.951,1136.22 682.925,1134.7 684.899,1133.18 686.873,1131.64 688.847,1130.1 690.821,1128.54 692.795,1126.98 694.768,1125.41 696.742,1123.82 698.716,1122.23 700.69,1120.63 702.664,1119.01 704.638,1117.39 706.612,1115.76 708.586,1114.11 710.559,1112.46 712.533,1110.8 714.507,1109.12 716.481,1107.44 718.455,1105.74 720.429,1104.03 722.403,1102.32 724.376,1100.59 726.35,1098.85 728.324,1097.1 730.298,1095.34 732.272,1093.57 734.246,1091.78 736.22,1089.99 738.193,1088.18 740.167,1086.37 742.141,1084.54 744.115,1082.7 746.089,1080.85 748.063,1078.98 750.037,1077.11 752.011,1075.22 753.984,1073.32 755.958,1071.41 757.932,1069.48 759.906,1067.54 761.88,1065.6 763.854,1063.63 765.828,1061.66 767.801,1059.67 769.775,1057.67 771.749,1055.66 773.723,1053.64 775.697,1051.6 777.671,1049.55 779.645,1047.48 781.619,1045.41 783.592,1043.31 785.566,1041.21 787.54,1039.09 789.514,1036.96 791.488,1034.81 793.462,1032.65 795.436,1030.48 797.409,1028.29 799.383,1026.09 801.357,1023.88 803.331,1021.64 805.305,1019.4 807.279,1017.14 809.253,1014.87 811.226,1012.58 813.2,1010.27 815.174,1007.96 817.148,1005.62 819.122,1003.27 821.096,1000.91 823.07,998.531 825.044,996.137 827.017,993.726 828.991,991.301 830.965,988.859 832.939,986.402 834.913,983.929 836.887,981.44 838.861,978.934 840.834,976.413 842.808,973.875 844.782,971.32 846.756,968.749 848.73,966.162 850.704,963.557 852.678,960.936 854.652,958.298 856.625,955.643 858.599,952.97 860.573,950.281 862.547,947.574 864.521,944.849 866.495,942.107 868.469,939.348 870.442,936.57 872.416,933.775 874.39,930.962 876.364,928.13 878.338,925.281 880.312,922.413 882.286,919.527 884.26,916.622 886.233,913.699 888.207,910.757 890.181,907.797 892.155,904.818 894.129,901.819 896.103,898.802 898.077,895.765 900.05,892.709 902.024,889.634 903.998,886.54 905.972,883.426 907.946,880.292 909.92,877.139 911.894,873.966 913.867,870.773 915.841,867.56 917.815,864.327 919.789,861.074 921.763,857.801 923.737,854.508 925.711,851.194 927.685,847.86 929.658,844.505 931.632,841.13 933.606,837.734 935.58,834.317 937.554,830.88 939.528,827.422 941.502,823.943 943.475,820.443 945.449,816.921 947.423,813.379 949.397,809.816 951.371,806.231 953.345,802.626 955.319,798.998 957.293,795.35 959.266,791.68 961.24,787.989 963.214,784.276 965.188,780.542 967.162,776.787 969.136,773.01 971.11,769.211 973.083,765.391 975.057,761.549 977.031,757.685 979.005,753.8 980.979,749.894 982.953,745.966 984.927,742.016 986.9,738.044 988.874,734.051 990.848,730.037 992.822,726.001 994.796,721.943 996.77,717.864 998.744,713.764 1000.72,709.642 1002.69,705.499 1004.67,701.335 1006.64,697.149 1008.61,692.943 1010.59,688.715 1012.56,684.466 1014.53,680.197 1016.51,675.906 1018.48,671.595 1020.46,667.264 1022.43,662.911 1024.4,658.539 1026.38,654.146 1028.35,649.733 1030.33,645.301 1032.3,640.848 1034.27,636.376 1036.25,631.884 1038.22,627.374 1040.19,622.844 1042.17,618.295 1044.14,613.727 1046.12,609.141 1048.09,604.537 1050.06,599.914 1052.04,595.274 1054.01,590.617 1055.99,585.942 1057.96,581.25 1059.93,576.541 1061.91,571.816 1063.88,567.075 1065.86,562.318 1067.83,557.546 1069.8,552.758 1071.78,547.956 1073.75,543.139 1075.72,538.308 1077.7,533.464 1079.67,528.606 1081.65,523.735 1083.62,518.852 1085.59,513.957 1087.57,509.051 1089.54,504.133 1091.52,499.205 1093.49,494.266 1095.46,489.318 1097.44,484.361 1099.41,479.395 1101.38,474.422 1103.36,469.441 1105.33,464.453 1107.31,459.458 1109.28,454.458 1111.25,449.453 1113.23,444.444 1115.2,439.431 1117.18,434.414 1119.15,429.395 1121.12,424.375 1123.1,419.353 1125.07,414.331 1127.04,409.31 1129.02,404.289 1130.99,399.271 1132.97,394.256 1134.94,389.244 1136.91,384.236 1138.89,379.233 1140.86,374.237 1142.84,369.248 1144.81,364.266 1146.78,359.293 1148.76,354.33 1150.73,349.377 1152.71,344.435 1154.68,339.507 1156.65,334.591 1158.63,329.69 1160.6,324.805 1162.57,319.935 1164.55,315.084 1166.52,310.25 1168.5,305.437 1170.47,300.644 1172.44,295.872 1174.42,291.124 1176.39,286.399 1178.37,281.7 1180.34,277.027 1182.31,272.381 1184.29,267.763 1186.26,263.175 1188.23,258.618 1190.21,254.094 1192.18,249.602 1194.16,245.145 1196.13,240.723 1198.1,236.338 1200.08,231.992 1202.05,227.685 1204.03,223.418 1206,219.193 1207.97,215.011 1209.95,210.874 1211.92,206.782 1213.89,202.738 1215.87,198.741 1217.84,194.794 1219.82,190.897 1221.79,187.052 1223.76,183.261 1225.74,179.524 1227.71,175.843 1229.69,172.219 1231.66,168.653 1233.63,165.147 1235.61,161.701 1237.58,158.317 1239.56,154.997 1241.53,151.741 1243.5,148.551 1245.48,145.428 1247.45,142.372 1249.42,139.386 1251.4,136.47 1253.37,133.626 1255.35,130.855 1257.32,128.157 1259.29,125.534 1261.27,122.988 1263.24,120.518 1265.22,118.126 1267.19,115.814 1269.16,113.582 1271.14,111.43 1273.11,109.361 1275.08,107.375 1277.06,105.473 1279.03,103.655 1281.01,101.923 1282.98,100.278 1284.95,98.7199 1286.93,97.2498 1288.9,95.8684 1290.88,94.5766 1292.85,93.3749 1294.82,92.264 1296.8,91.2444 1298.77,90.3169 1300.75,89.4819 1302.72,88.7399 1304.69,88.0914 1306.67,87.5368 1308.64,87.0766 1310.61,86.7111 1312.59,86.4405 1314.56,86.2653 1316.54,86.1857 1318.51,86.2018 1320.48,86.3138 1322.46,86.5219 1324.43,86.8262 1326.41,87.2267 1328.38,87.7235 1330.35,88.3164 1332.33,89.0055 1334.3,89.7906 1336.27,90.6717 1338.25,91.6484 1340.22,92.7207 1342.2,93.8882 1344.17,95.1506 1346.14,96.5076 1348.12,97.9589 1350.09,99.5039 1352.07,101.142 1354.04,102.874 1356.01,104.697 1357.99,106.613 1359.96,108.619 1361.93,110.716 1363.91,112.904 1365.88,115.18 1367.86,117.544 1369.83,119.997 1371.8,122.536 1373.78,125.161 1375.75,127.872 1377.73,130.667 1379.7,133.545 1381.67,136.505 1383.65,139.547 1385.62,142.67 1387.6,145.872 1389.57,149.152 1391.54,152.509 1393.52,155.943 1395.49,159.452 1397.46,163.034 1399.44,166.69 1401.41,170.417 1403.39,174.214 1405.36,178.081 1407.33,182.015 1409.31,186.016 1411.28,190.083 1413.26,194.213 1415.23,198.407 1417.2,202.662 1419.18,206.977 1421.15,211.351 1423.12,215.783 1425.1,220.271 1427.07,224.814 1429.05,229.41 1431.02,234.059 1432.99,238.758 1434.97,243.507 1436.94,248.305 1438.92,253.149 1440.89,258.038 1442.86,262.972 1444.84,267.948 1446.81,272.965 1448.78,278.023 1450.76,283.119 1452.73,288.253 1454.71,293.422 1456.68,298.626 1458.65,303.864 1460.63,309.133 1462.6,314.433 1464.58,319.763 1466.55,325.121 1468.52,330.505 1470.5,335.915 1472.47,341.35 1474.45,346.807 1476.42,352.286 1478.39,357.786 1480.37,363.305 1482.34,368.843 1484.31,374.397 1486.29,379.967 1488.26,385.552 1490.24,391.151 1492.21,396.762 1494.18,402.384 1496.16,408.017 1498.13,413.659 1500.11,419.308 1502.08,424.965 1504.05,430.628 1506.03,436.296 1508,441.968 1509.97,447.643 1511.95,453.32 1513.92,458.999 1515.9,464.677 1517.87,470.355 1519.84,476.031 1521.82,481.705 1523.79,487.376 1525.77,493.043 1527.74,498.704 1529.71,504.36 1531.69,510.01 1533.66,515.652 1535.63,521.286 1537.61,526.912 1539.58,532.528 1541.56,538.133 1543.53,543.729 1545.5,549.312 1547.48,554.884 1549.45,560.442 1551.43,565.988 1553.4,571.519 1555.37,577.036 1557.35,582.538 1559.32,588.025 1561.3,593.495 1563.27,598.948 1565.24,604.385 1567.22,609.803 1569.19,615.204 1571.16,620.586 1573.14,625.949 1575.11,631.293 1577.09,636.617 1579.06,641.921 1581.03,647.204 1583.01,652.466 1584.98,657.707 1586.96,662.926 1588.93,668.124 1590.9,673.299 1592.88,678.451 1594.85,683.581 1596.82,688.688 1598.8,693.771 1600.77,698.831 1602.75,703.866 1604.72,708.878 1606.69,713.866 1608.67,718.828 1610.64,723.767 1612.62,728.68 1614.59,733.568 1616.56,738.431 1618.54,743.268 1620.51,748.081 1622.49,752.867 1624.46,757.628 1626.43,762.362 1628.41,767.071 1630.38,771.754 1632.35,776.41 1634.33,781.04 1636.3,785.644 1638.28,790.221 1640.25,794.772 1642.22,799.296 1644.2,803.794 1646.17,808.265 1648.15,812.709 1650.12,817.127 1652.09,821.518 1654.07,825.882 1656.04,830.22 1658.01,834.531 1659.99,838.815 1661.96,843.072 1663.94,847.303 1665.91,851.507 1667.88,855.684 1669.86,859.835 1671.83,863.96 1673.81,868.057 1675.78,872.128 1677.75,876.173 1679.73,880.192 1681.7,884.184 1683.67,888.149 1685.65,892.089 1687.62,896.002 1689.6,899.89 1691.57,903.751 1693.54,907.587 1695.52,911.396 1697.49,915.18 1699.47,918.938 1701.44,922.671 1703.41,926.378 1705.39,930.06 1707.36,933.717 1709.34,937.348 1711.31,940.955 1713.28,944.536 1715.26,948.092 1717.23,951.624 1719.2,955.131 1721.18,958.614 1723.15,962.072 1725.13,965.506 1727.1,968.916 1729.07,972.301 1731.05,975.663 1733.02,979.001 1735,982.315 1736.97,985.606 1738.94,988.873 1740.92,992.117 1742.89,995.338 1744.86,998.535 1746.84,1001.71 1748.81,1004.86 1750.79,1007.99 1752.76,1011.1 1754.73,1014.18 1756.71,1017.24 1758.68,1020.28 1760.66,1023.3 1762.63,1026.3 1764.6,1029.27 1766.58,1032.23 1768.55,1035.16 1770.52,1038.07 1772.5,1040.96 1774.47,1043.82 1776.45,1046.67 1778.42,1049.5 1780.39,1052.3 1782.37,1055.09 1784.34,1057.85 1786.32,1060.6 1788.29,1063.32 1790.26,1066.03 1792.24,1068.71 1794.21,1071.38 1796.19,1074.02 1798.16,1076.65 1800.13,1079.25 1802.11,1081.84 1804.08,1084.41 1806.05,1086.96 1808.03,1089.49 1810,1092 1811.98,1094.5 1813.95,1096.97 1815.92,1099.43 1817.9,1101.87 1819.87,1104.29 1821.85,1106.69 1823.82,1109.08 1825.79,1111.45 1827.77,1113.8 1829.74,1116.13 1831.71,1118.45 1833.69,1120.75 1835.66,1123.03 1837.64,1125.3 1839.61,1127.55 1841.58,1129.78 1843.56,1132 1845.53,1134.2 1847.51,1136.38 1849.48,1138.55 1851.45,1140.7 1853.43,1142.84 1855.4,1144.96 1857.37,1147.06 1859.35,1149.15 1861.32,1151.23 1863.3,1153.29 1865.27,1155.33 1867.24,1157.36 1869.22,1159.37 1871.19,1161.37 1873.17,1163.36 1875.14,1165.33 1877.11,1167.29 1879.09,1169.23 1881.06,1171.16 1883.04,1173.07 1885.01,1174.97 1886.98,1176.86 1888.96,1178.73 1890.93,1180.59 1892.9,1182.43 1894.88,1184.27 1896.85,1186.08 1898.83,1187.89 1900.8,1189.68 1902.77,1191.46 1904.75,1193.23 1906.72,1194.98 1908.7,1196.72 1910.67,1198.45 1912.64,1200.17 1914.62,1201.87 1916.59,1203.57 1918.56,1205.24 1920.54,1206.91 1922.51,1208.57 1924.49,1210.21 1926.46,1211.84 1928.43,1213.46 1930.41,1215.07 1932.38,1216.67 1934.36,1218.26 1936.33,1219.83 1938.3,1221.39 1940.28,1222.95 1942.25,1224.49 1944.23,1226.02 1946.2,1227.54 1948.17,1229.05 1950.15,1230.55 1952.12,1232.03 1954.09,1233.51 1956.07,1234.98 1958.04,1236.43 1960.02,1237.88 1961.99,1239.31 1963.96,1240.74 1965.94,1242.16 1967.91,1243.56 1969.89,1244.96 1971.86,1246.34 1973.83,1247.72 1975.81,1249.09 1977.78,1250.45 1979.75,1251.79 1981.73,1253.13 1983.7,1254.46 1985.68,1255.78 1987.65,1257.09 1989.62,1258.39 1991.6,1259.69 1993.57,1260.97 1995.55,1262.25 1997.52,1263.51 1999.49,1264.77 2001.47,1266.02 2003.44,1267.26 2005.41,1268.49 2007.39,1269.71 2009.36,1270.93 2011.34,1272.14 2013.31,1273.33 2015.28,1274.52 2017.26,1275.71 2019.23,1276.88 2021.21,1278.05 2023.18,1279.21 2025.15,1280.36 2027.13,1281.5 2029.1,1282.63 2031.08,1283.76 2033.05,1284.88 2035.02,1285.99 2037,1287.1 2038.97,1288.19 2040.94,1289.28 2042.92,1290.37 2044.89,1291.44 2046.87,1292.51 2048.84,1293.57 2050.81,1294.62 2052.79,1295.67 2054.76,1296.71 2056.74,1297.74 2058.71,1298.77 2060.68,1299.79 2062.66,1300.8 2064.63,1301.81 2066.6,1302.81 2068.58,1303.8 2070.55,1304.79 2072.53,1305.77 2074.5,1306.74 2076.47,1307.71 2078.45,1308.67 2080.42,1309.62 2082.4,1310.57 2084.37,1311.51 2086.34,1312.45 2088.32,1313.38 2090.29,1314.3 2092.26,1315.22 2094.24,1316.13 2096.21,1317.03 2098.19,1317.93 2100.16,1318.83 2102.13,1319.72 2104.11,1320.6 2106.08,1321.47 2108.06,1322.35 2110.03,1323.21 2112,1324.07 2113.98,1324.93 2115.95,1325.77 2117.93,1326.62 2119.9,1327.46 2121.87,1328.29 2123.85,1329.12 2125.82,1329.94 2127.79,1330.76 2129.77,1331.57 2131.74,1332.38 2133.72,1333.18 2135.69,1333.97 2137.66,1334.77 2139.64,1335.55 2141.61,1336.33 2143.59,1337.11 2145.56,1337.88 2147.53,1338.65 2149.51,1339.41 2151.48,1340.17 2153.45,1340.92 2155.43,1341.67 2157.4,1342.42 2159.38,1343.15 2161.35,1343.89 2163.32,1344.62 2165.3,1345.34 2167.27,1346.06 2169.25,1346.78 2171.22,1347.49 2173.19,1348.2 2175.17,1348.9 2177.14,1349.6 2179.11,1350.3 2181.09,1350.99 2183.06,1351.67 2185.04,1352.36 2187.01,1353.03 2188.98,1353.71 2190.96,1354.38 2192.93,1355.04 2194.91,1355.7 2196.88,1356.36 2198.85,1357.02 2200.83,1357.67 2202.8,1358.31 2204.78,1358.95 2206.75,1359.59 2208.72,1360.22 2210.7,1360.86 2212.67,1361.48 2214.64,1362.1 2216.62,1362.72 2218.59,1363.34 2220.57,1363.95 2222.54,1364.56 2224.51,1365.16 2226.49,1365.76 2228.46,1366.36 2230.44,1366.96 2232.41,1367.55 2234.38,1368.13 2236.36,1368.72 2238.33,1369.3 2240.3,1369.87 2242.28,1370.45 2244.25,1371.02 2246.23,1371.58 2248.2,1372.15 2250.17,1372.71 2252.15,1373.26 2254.12,1373.82 2256.1,1374.37 2258.07,1374.91 2260.04,1375.46 2262.02,1376 2263.99,1376.54 2265.97,1377.07 2267.94,1377.6 2269.91,1378.13 2271.89,1378.65 2273.86,1379.18 2275.83,1379.7 2277.81,1380.21 2279.78,1380.73 2281.76,1381.24 2283.73,1381.74 2285.7,1382.25 2287.68,1382.75 2289.65,1383.25 2291.63,1383.75 2293.6,1384.24 "/>
<path clip-path="url(#clip840)" d="M2021.63 196.789 L2283.08 196.789 L2283.08 93.1086 L2021.63 93.1086  Z" fill="#ffffff" fill-rule="evenodd" fill-opacity="1"/>
<polyline clip-path="url(#clip840)" style="stroke:#000000; stroke-linecap:round; stroke-linejoin:round; stroke-width:4; stroke-opacity:1; fill:none" points="2021.63,196.789 2283.08,196.789 2283.08,93.1086 2021.63,93.1086 2021.63,196.789 "/>
<polyline clip-path="url(#clip840)" style="stroke:#009af9; stroke-linecap:round; stroke-linejoin:round; stroke-width:4; stroke-opacity:1; fill:none" points="2044.86,144.949 2184.2,144.949 "/>
<path clip-path="url(#clip840)" d="M2221.27 164.636 Q2219.46 169.266 2217.75 170.678 Q2216.04 172.09 2213.17 172.09 L2209.77 172.09 L2209.77 168.525 L2212.27 168.525 Q2214.02 168.525 2215 167.692 Q2215.97 166.858 2217.15 163.756 L2217.91 161.812 L2207.43 136.303 L2211.94 136.303 L2220.04 156.581 L2228.15 136.303 L2232.66 136.303 L2221.27 164.636 Z" fill="#000000" fill-rule="nonzero" fill-opacity="1" /><path clip-path="url(#clip840)" d="M2239.95 158.293 L2247.59 158.293 L2247.59 131.928 L2239.28 133.595 L2239.28 129.335 L2247.54 127.669 L2252.22 127.669 L2252.22 158.293 L2259.86 158.293 L2259.86 162.229 L2239.95 162.229 L2239.95 158.293 Z" fill="#000000" fill-rule="nonzero" fill-opacity="1" /></svg>
