<?xml version="1.0" encoding="utf-8"?>
<svg xmlns="http://www.w3.org/2000/svg" xmlns:xlink="http://www.w3.org/1999/xlink" width="600" height="400" viewBox="0 0 2400 1600">
<defs>
  <clipPath id="clip980">
    <rect x="0" y="0" width="2400" height="1600"/>
  </clipPath>
</defs>
<path clip-path="url(#clip980)" d="M0 1600 L2400 1600 L2400 0 L0 0  Z" fill="#ffffff" fill-rule="evenodd" fill-opacity="1"/>
<defs>
  <clipPath id="clip981">
    <rect x="480" y="0" width="1681" height="1600"/>
  </clipPath>
</defs>
<path clip-path="url(#clip980)" d="M309.866 1423.18 L2352.76 1423.18 L2352.76 123.472 L309.866 123.472  Z" fill="#ffffff" fill-rule="evenodd" fill-opacity="1"/>
<defs>
  <clipPath id="clip982">
    <rect x="309" y="123" width="2044" height="1301"/>
  </clipPath>
</defs>
<polyline clip-path="url(#clip982)" style="stroke:#000000; stroke-linecap:round; stroke-linejoin:round; stroke-width:2; stroke-opacity:0.1; fill:none" points="329.138,1423.18 329.138,123.472 "/>
<polyline clip-path="url(#clip982)" style="stroke:#000000; stroke-linecap:round; stroke-linejoin:round; stroke-width:2; stroke-opacity:0.1; fill:none" points="714.589,1423.18 714.589,123.472 "/>
<polyline clip-path="url(#clip982)" style="stroke:#000000; stroke-linecap:round; stroke-linejoin:round; stroke-width:2; stroke-opacity:0.1; fill:none" points="1100.04,1423.18 1100.04,123.472 "/>
<polyline clip-path="url(#clip982)" style="stroke:#000000; stroke-linecap:round; stroke-linejoin:round; stroke-width:2; stroke-opacity:0.1; fill:none" points="1485.49,1423.18 1485.49,123.472 "/>
<polyline clip-path="url(#clip982)" style="stroke:#000000; stroke-linecap:round; stroke-linejoin:round; stroke-width:2; stroke-opacity:0.1; fill:none" points="1870.94,1423.18 1870.94,123.472 "/>
<polyline clip-path="url(#clip982)" style="stroke:#000000; stroke-linecap:round; stroke-linejoin:round; stroke-width:2; stroke-opacity:0.1; fill:none" points="2256.39,1423.18 2256.39,123.472 "/>
<polyline clip-path="url(#clip980)" style="stroke:#000000; stroke-linecap:round; stroke-linejoin:round; stroke-width:4; stroke-opacity:1; fill:none" points="309.866,1423.18 2352.76,1423.18 "/>
<polyline clip-path="url(#clip980)" style="stroke:#000000; stroke-linecap:round; stroke-linejoin:round; stroke-width:4; stroke-opacity:1; fill:none" points="329.138,1423.18 329.138,1404.28 "/>
<polyline clip-path="url(#clip980)" style="stroke:#000000; stroke-linecap:round; stroke-linejoin:round; stroke-width:4; stroke-opacity:1; fill:none" points="714.589,1423.18 714.589,1404.28 "/>
<polyline clip-path="url(#clip980)" style="stroke:#000000; stroke-linecap:round; stroke-linejoin:round; stroke-width:4; stroke-opacity:1; fill:none" points="1100.04,1423.18 1100.04,1404.28 "/>
<polyline clip-path="url(#clip980)" style="stroke:#000000; stroke-linecap:round; stroke-linejoin:round; stroke-width:4; stroke-opacity:1; fill:none" points="1485.49,1423.18 1485.49,1404.28 "/>
<polyline clip-path="url(#clip980)" style="stroke:#000000; stroke-linecap:round; stroke-linejoin:round; stroke-width:4; stroke-opacity:1; fill:none" points="1870.94,1423.18 1870.94,1404.28 "/>
<polyline clip-path="url(#clip980)" style="stroke:#000000; stroke-linecap:round; stroke-linejoin:round; stroke-width:4; stroke-opacity:1; fill:none" points="2256.39,1423.18 2256.39,1404.28 "/>
<path clip-path="url(#clip980)" d="M329.138 1454.1 Q325.527 1454.1 323.699 1457.66 Q321.893 1461.2 321.893 1468.33 Q321.893 1475.44 323.699 1479.01 Q325.527 1482.55 329.138 1482.55 Q332.773 1482.55 334.578 1479.01 Q336.407 1475.44 336.407 1468.33 Q336.407 1461.2 334.578 1457.66 Q332.773 1454.1 329.138 1454.1 M329.138 1450.39 Q334.948 1450.39 338.004 1455 Q341.083 1459.58 341.083 1468.33 Q341.083 1477.06 338.004 1481.67 Q334.948 1486.25 329.138 1486.25 Q323.328 1486.25 320.249 1481.67 Q317.194 1477.06 317.194 1468.33 Q317.194 1459.58 320.249 1455 Q323.328 1450.39 329.138 1450.39 Z" fill="#000000" fill-rule="nonzero" fill-opacity="1" /><path clip-path="url(#clip980)" d="M689.277 1481.64 L696.916 1481.64 L696.916 1455.28 L688.606 1456.95 L688.606 1452.69 L696.869 1451.02 L701.545 1451.02 L701.545 1481.64 L709.184 1481.64 L709.184 1485.58 L689.277 1485.58 L689.277 1481.64 Z" fill="#000000" fill-rule="nonzero" fill-opacity="1" /><path clip-path="url(#clip980)" d="M728.629 1454.1 Q725.017 1454.1 723.189 1457.66 Q721.383 1461.2 721.383 1468.33 Q721.383 1475.44 723.189 1479.01 Q725.017 1482.55 728.629 1482.55 Q732.263 1482.55 734.068 1479.01 Q735.897 1475.44 735.897 1468.33 Q735.897 1461.2 734.068 1457.66 Q732.263 1454.1 728.629 1454.1 M728.629 1450.39 Q734.439 1450.39 737.494 1455 Q740.573 1459.58 740.573 1468.33 Q740.573 1477.06 737.494 1481.67 Q734.439 1486.25 728.629 1486.25 Q722.818 1486.25 719.74 1481.67 Q716.684 1477.06 716.684 1468.33 Q716.684 1459.58 719.74 1455 Q722.818 1450.39 728.629 1450.39 Z" fill="#000000" fill-rule="nonzero" fill-opacity="1" /><path clip-path="url(#clip980)" d="M1078.81 1481.64 L1095.13 1481.64 L1095.13 1485.58 L1073.19 1485.58 L1073.19 1481.64 Q1075.85 1478.89 1080.43 1474.26 Q1085.04 1469.61 1086.22 1468.27 Q1088.47 1465.74 1089.35 1464.01 Q1090.25 1462.25 1090.25 1460.56 Q1090.25 1457.8 1088.3 1456.07 Q1086.38 1454.33 1083.28 1454.33 Q1081.08 1454.33 1078.63 1455.09 Q1076.2 1455.86 1073.42 1457.41 L1073.42 1452.69 Q1076.24 1451.55 1078.7 1450.97 Q1081.15 1450.39 1083.19 1450.39 Q1088.56 1450.39 1091.75 1453.08 Q1094.95 1455.77 1094.95 1460.26 Q1094.95 1462.39 1094.14 1464.31 Q1093.35 1466.2 1091.24 1468.8 Q1090.67 1469.47 1087.56 1472.69 Q1084.46 1475.88 1078.81 1481.64 Z" fill="#000000" fill-rule="nonzero" fill-opacity="1" /><path clip-path="url(#clip980)" d="M1114.95 1454.1 Q1111.34 1454.1 1109.51 1457.66 Q1107.7 1461.2 1107.7 1468.33 Q1107.7 1475.44 1109.51 1479.01 Q1111.34 1482.55 1114.95 1482.55 Q1118.58 1482.55 1120.39 1479.01 Q1122.22 1475.44 1122.22 1468.33 Q1122.22 1461.2 1120.39 1457.66 Q1118.58 1454.1 1114.95 1454.1 M1114.95 1450.39 Q1120.76 1450.39 1123.81 1455 Q1126.89 1459.58 1126.89 1468.33 Q1126.89 1477.06 1123.81 1481.67 Q1120.76 1486.25 1114.95 1486.25 Q1109.14 1486.25 1106.06 1481.67 Q1103 1477.06 1103 1468.33 Q1103 1459.58 1106.06 1455 Q1109.14 1450.39 1114.95 1450.39 Z" fill="#000000" fill-rule="nonzero" fill-opacity="1" /><path clip-path="url(#clip980)" d="M1474.33 1466.95 Q1477.69 1467.66 1479.57 1469.93 Q1481.46 1472.2 1481.46 1475.53 Q1481.46 1480.65 1477.94 1483.45 Q1474.43 1486.25 1467.95 1486.25 Q1465.77 1486.25 1463.45 1485.81 Q1461.16 1485.39 1458.71 1484.54 L1458.71 1480.02 Q1460.65 1481.16 1462.97 1481.74 Q1465.28 1482.32 1467.81 1482.32 Q1472.2 1482.32 1474.5 1480.58 Q1476.81 1478.84 1476.81 1475.53 Q1476.81 1472.48 1474.66 1470.77 Q1472.53 1469.03 1468.71 1469.03 L1464.68 1469.03 L1464.68 1465.19 L1468.89 1465.19 Q1472.34 1465.19 1474.17 1463.82 Q1476 1462.43 1476 1459.84 Q1476 1457.18 1474.1 1455.77 Q1472.23 1454.33 1468.71 1454.33 Q1466.79 1454.33 1464.59 1454.75 Q1462.39 1455.16 1459.75 1456.04 L1459.75 1451.88 Q1462.41 1451.14 1464.73 1450.77 Q1467.07 1450.39 1469.13 1450.39 Q1474.45 1450.39 1477.55 1452.83 Q1480.65 1455.23 1480.65 1459.35 Q1480.65 1462.22 1479.01 1464.21 Q1477.37 1466.18 1474.33 1466.95 Z" fill="#000000" fill-rule="nonzero" fill-opacity="1" /><path clip-path="url(#clip980)" d="M1500.33 1454.1 Q1496.72 1454.1 1494.89 1457.66 Q1493.08 1461.2 1493.08 1468.33 Q1493.08 1475.44 1494.89 1479.01 Q1496.72 1482.55 1500.33 1482.55 Q1503.96 1482.55 1505.77 1479.01 Q1507.6 1475.44 1507.6 1468.33 Q1507.6 1461.2 1505.77 1457.66 Q1503.96 1454.1 1500.33 1454.1 M1500.33 1450.39 Q1506.14 1450.39 1509.19 1455 Q1512.27 1459.58 1512.27 1468.33 Q1512.27 1477.06 1509.19 1481.67 Q1506.14 1486.25 1500.33 1486.25 Q1494.52 1486.25 1491.44 1481.67 Q1488.38 1477.06 1488.38 1468.33 Q1488.38 1459.58 1491.44 1455 Q1494.52 1450.39 1500.33 1450.39 Z" fill="#000000" fill-rule="nonzero" fill-opacity="1" /><path clip-path="url(#clip980)" d="M1859.11 1455.09 L1847.31 1473.54 L1859.11 1473.54 L1859.11 1455.09 M1857.89 1451.02 L1863.77 1451.02 L1863.77 1473.54 L1868.7 1473.54 L1868.7 1477.43 L1863.77 1477.43 L1863.77 1485.58 L1859.11 1485.58 L1859.11 1477.43 L1843.51 1477.43 L1843.51 1472.92 L1857.89 1451.02 Z" fill="#000000" fill-rule="nonzero" fill-opacity="1" /><path clip-path="url(#clip980)" d="M1886.43 1454.1 Q1882.82 1454.1 1880.99 1457.66 Q1879.18 1461.2 1879.18 1468.33 Q1879.18 1475.44 1880.99 1479.01 Q1882.82 1482.55 1886.43 1482.55 Q1890.06 1482.55 1891.87 1479.01 Q1893.7 1475.44 1893.7 1468.33 Q1893.7 1461.2 1891.87 1457.66 Q1890.06 1454.1 1886.43 1454.1 M1886.43 1450.39 Q1892.24 1450.39 1895.29 1455 Q1898.37 1459.58 1898.37 1468.33 Q1898.37 1477.06 1895.29 1481.67 Q1892.24 1486.25 1886.43 1486.25 Q1880.62 1486.25 1877.54 1481.67 Q1874.48 1477.06 1874.48 1468.33 Q1874.48 1459.58 1877.54 1455 Q1880.62 1450.39 1886.43 1450.39 Z" fill="#000000" fill-rule="nonzero" fill-opacity="1" /><path clip-path="url(#clip980)" d="M2231.09 1451.02 L2249.45 1451.02 L2249.45 1454.96 L2235.37 1454.96 L2235.37 1463.43 Q2236.39 1463.08 2237.41 1462.92 Q2238.43 1462.73 2239.45 1462.73 Q2245.24 1462.73 2248.62 1465.9 Q2252 1469.08 2252 1474.49 Q2252 1480.07 2248.52 1483.17 Q2245.05 1486.25 2238.73 1486.25 Q2236.56 1486.25 2234.29 1485.88 Q2232.04 1485.51 2229.63 1484.77 L2229.63 1480.07 Q2231.72 1481.2 2233.94 1481.76 Q2236.16 1482.32 2238.64 1482.32 Q2242.64 1482.32 2244.98 1480.21 Q2247.32 1478.1 2247.32 1474.49 Q2247.32 1470.88 2244.98 1468.77 Q2242.64 1466.67 2238.64 1466.67 Q2236.76 1466.67 2234.89 1467.08 Q2233.04 1467.5 2231.09 1468.38 L2231.09 1451.02 Z" fill="#000000" fill-rule="nonzero" fill-opacity="1" /><path clip-path="url(#clip980)" d="M2271.21 1454.1 Q2267.6 1454.1 2265.77 1457.66 Q2263.96 1461.2 2263.96 1468.33 Q2263.96 1475.44 2265.77 1479.01 Q2267.6 1482.55 2271.21 1482.55 Q2274.84 1482.55 2276.65 1479.01 Q2278.48 1475.44 2278.48 1468.33 Q2278.48 1461.2 2276.65 1457.66 Q2274.84 1454.1 2271.21 1454.1 M2271.21 1450.39 Q2277.02 1450.39 2280.07 1455 Q2283.15 1459.58 2283.15 1468.33 Q2283.15 1477.06 2280.07 1481.67 Q2277.02 1486.25 2271.21 1486.25 Q2265.4 1486.25 2262.32 1481.67 Q2259.26 1477.06 2259.26 1468.33 Q2259.26 1459.58 2262.32 1455 Q2265.4 1450.39 2271.21 1450.39 Z" fill="#000000" fill-rule="nonzero" fill-opacity="1" /><path clip-path="url(#clip980)" d="M1199.03 1520.52 L1205.46 1520.52 L1205.46 1568.04 L1199.03 1568.04 L1199.03 1520.52 Z" fill="#000000" fill-rule="nonzero" fill-opacity="1" /><path clip-path="url(#clip980)" d="M1223.79 1522.27 L1223.79 1532.4 L1235.86 1532.4 L1235.86 1536.95 L1223.79 1536.95 L1223.79 1556.3 Q1223.79 1560.66 1224.97 1561.9 Q1226.18 1563.14 1229.84 1563.14 L1235.86 1563.14 L1235.86 1568.04 L1229.84 1568.04 Q1223.06 1568.04 1220.48 1565.53 Q1217.91 1562.98 1217.91 1556.3 L1217.91 1536.95 L1213.61 1536.95 L1213.61 1532.4 L1217.91 1532.4 L1217.91 1522.27 L1223.79 1522.27 Z" fill="#000000" fill-rule="nonzero" fill-opacity="1" /><path clip-path="url(#clip980)" d="M1274.05 1548.76 L1274.05 1551.62 L1247.12 1551.62 Q1247.51 1557.67 1250.75 1560.85 Q1254.03 1564 1259.86 1564 Q1263.23 1564 1266.38 1563.17 Q1269.56 1562.35 1272.68 1560.69 L1272.68 1566.23 Q1269.53 1567.57 1266.22 1568.27 Q1262.91 1568.97 1259.51 1568.97 Q1250.98 1568.97 1245.98 1564 Q1241.01 1559.04 1241.01 1550.57 Q1241.01 1541.82 1245.72 1536.69 Q1250.47 1531.54 1258.49 1531.54 Q1265.68 1531.54 1269.85 1536.18 Q1274.05 1540.8 1274.05 1548.76 M1268.19 1547.04 Q1268.13 1542.23 1265.49 1539.37 Q1262.88 1536.5 1258.55 1536.5 Q1253.65 1536.5 1250.69 1539.27 Q1247.76 1542.04 1247.32 1547.07 L1268.19 1547.04 Z" fill="#000000" fill-rule="nonzero" fill-opacity="1" /><path clip-path="url(#clip980)" d="M1304.32 1537.87 Q1303.33 1537.3 1302.16 1537.04 Q1301.01 1536.76 1299.61 1536.76 Q1294.64 1536.76 1291.97 1540 Q1289.33 1543.22 1289.33 1549.27 L1289.33 1568.04 L1283.44 1568.04 L1283.44 1532.4 L1289.33 1532.4 L1289.33 1537.93 Q1291.18 1534.69 1294.14 1533.13 Q1297.1 1531.54 1301.33 1531.54 Q1301.93 1531.54 1302.67 1531.63 Q1303.4 1531.7 1304.29 1531.85 L1304.32 1537.87 Z" fill="#000000" fill-rule="nonzero" fill-opacity="1" /><path clip-path="url(#clip980)" d="M1326.66 1550.12 Q1319.57 1550.12 1316.83 1551.75 Q1314.09 1553.37 1314.09 1557.29 Q1314.09 1560.4 1316.13 1562.25 Q1318.2 1564.07 1321.73 1564.07 Q1326.6 1564.07 1329.53 1560.63 Q1332.49 1557.16 1332.49 1551.43 L1332.49 1550.12 L1326.66 1550.12 M1338.34 1547.71 L1338.34 1568.04 L1332.49 1568.04 L1332.49 1562.63 Q1330.48 1565.88 1327.49 1567.44 Q1324.5 1568.97 1320.17 1568.97 Q1314.7 1568.97 1311.45 1565.91 Q1308.24 1562.82 1308.24 1557.67 Q1308.24 1551.65 1312.25 1548.6 Q1316.29 1545.54 1324.28 1545.54 L1332.49 1545.54 L1332.49 1544.97 Q1332.49 1540.93 1329.81 1538.73 Q1327.17 1536.5 1322.37 1536.5 Q1319.31 1536.5 1316.42 1537.23 Q1313.52 1537.97 1310.85 1539.43 L1310.85 1534.02 Q1314.06 1532.78 1317.08 1532.17 Q1320.11 1531.54 1322.97 1531.54 Q1330.71 1531.54 1334.53 1535.55 Q1338.34 1539.56 1338.34 1547.71 Z" fill="#000000" fill-rule="nonzero" fill-opacity="1" /><path clip-path="url(#clip980)" d="M1356.2 1522.27 L1356.2 1532.4 L1368.26 1532.4 L1368.26 1536.95 L1356.2 1536.95 L1356.2 1556.3 Q1356.2 1560.66 1357.38 1561.9 Q1358.59 1563.14 1362.25 1563.14 L1368.26 1563.14 L1368.26 1568.04 L1362.25 1568.04 Q1355.47 1568.04 1352.89 1565.53 Q1350.31 1562.98 1350.31 1556.3 L1350.31 1536.95 L1346.02 1536.95 L1346.02 1532.4 L1350.31 1532.4 L1350.31 1522.27 L1356.2 1522.27 Z" fill="#000000" fill-rule="nonzero" fill-opacity="1" /><path clip-path="url(#clip980)" d="M1375.97 1532.4 L1381.82 1532.4 L1381.82 1568.04 L1375.97 1568.04 L1375.97 1532.4 M1375.97 1518.52 L1381.82 1518.52 L1381.82 1525.93 L1375.97 1525.93 L1375.97 1518.52 Z" fill="#000000" fill-rule="nonzero" fill-opacity="1" /><path clip-path="url(#clip980)" d="M1407.89 1536.5 Q1403.18 1536.5 1400.44 1540.19 Q1397.71 1543.85 1397.71 1550.25 Q1397.71 1556.65 1400.41 1560.34 Q1403.15 1564 1407.89 1564 Q1412.57 1564 1415.31 1560.31 Q1418.04 1556.62 1418.04 1550.25 Q1418.04 1543.92 1415.31 1540.23 Q1412.57 1536.5 1407.89 1536.5 M1407.89 1531.54 Q1415.53 1531.54 1419.89 1536.5 Q1424.25 1541.47 1424.25 1550.25 Q1424.25 1559 1419.89 1564 Q1415.53 1568.97 1407.89 1568.97 Q1400.22 1568.97 1395.86 1564 Q1391.53 1559 1391.53 1550.25 Q1391.53 1541.47 1395.86 1536.5 Q1400.22 1531.54 1407.89 1531.54 Z" fill="#000000" fill-rule="nonzero" fill-opacity="1" /><path clip-path="url(#clip980)" d="M1463.59 1546.53 L1463.59 1568.04 L1457.73 1568.04 L1457.73 1546.72 Q1457.73 1541.66 1455.76 1539.14 Q1453.79 1536.63 1449.84 1536.63 Q1445.1 1536.63 1442.36 1539.65 Q1439.62 1542.68 1439.62 1547.9 L1439.62 1568.04 L1433.74 1568.04 L1433.74 1532.4 L1439.62 1532.4 L1439.62 1537.93 Q1441.72 1534.72 1444.56 1533.13 Q1447.42 1531.54 1451.15 1531.54 Q1457.29 1531.54 1460.44 1535.36 Q1463.59 1539.14 1463.59 1546.53 Z" fill="#000000" fill-rule="nonzero" fill-opacity="1" /><polyline clip-path="url(#clip982)" style="stroke:#000000; stroke-linecap:round; stroke-linejoin:round; stroke-width:2; stroke-opacity:0.1; fill:none" points="309.866,1313.41 2352.76,1313.41 "/>
<polyline clip-path="url(#clip982)" style="stroke:#000000; stroke-linecap:round; stroke-linejoin:round; stroke-width:2; stroke-opacity:0.1; fill:none" points="309.866,945.923 2352.76,945.923 "/>
<polyline clip-path="url(#clip982)" style="stroke:#000000; stroke-linecap:round; stroke-linejoin:round; stroke-width:2; stroke-opacity:0.1; fill:none" points="309.866,578.433 2352.76,578.433 "/>
<polyline clip-path="url(#clip982)" style="stroke:#000000; stroke-linecap:round; stroke-linejoin:round; stroke-width:2; stroke-opacity:0.1; fill:none" points="309.866,210.943 2352.76,210.943 "/>
<polyline clip-path="url(#clip980)" style="stroke:#000000; stroke-linecap:round; stroke-linejoin:round; stroke-width:4; stroke-opacity:1; fill:none" points="309.866,1423.18 309.866,123.472 "/>
<polyline clip-path="url(#clip980)" style="stroke:#000000; stroke-linecap:round; stroke-linejoin:round; stroke-width:4; stroke-opacity:1; fill:none" points="309.866,1313.41 328.763,1313.41 "/>
<polyline clip-path="url(#clip980)" style="stroke:#000000; stroke-linecap:round; stroke-linejoin:round; stroke-width:4; stroke-opacity:1; fill:none" points="309.866,945.923 328.763,945.923 "/>
<polyline clip-path="url(#clip980)" style="stroke:#000000; stroke-linecap:round; stroke-linejoin:round; stroke-width:4; stroke-opacity:1; fill:none" points="309.866,578.433 328.763,578.433 "/>
<polyline clip-path="url(#clip980)" style="stroke:#000000; stroke-linecap:round; stroke-linejoin:round; stroke-width:4; stroke-opacity:1; fill:none" points="309.866,210.943 328.763,210.943 "/>
<path clip-path="url(#clip980)" d="M126.205 1299.21 Q122.593 1299.21 120.765 1302.78 Q118.959 1306.32 118.959 1313.45 Q118.959 1320.55 120.765 1324.12 Q122.593 1327.66 126.205 1327.66 Q129.839 1327.66 131.644 1324.12 Q133.473 1320.55 133.473 1313.45 Q133.473 1306.32 131.644 1302.78 Q129.839 1299.21 126.205 1299.21 M126.205 1295.51 Q132.015 1295.51 135.07 1300.11 Q138.149 1304.7 138.149 1313.45 Q138.149 1322.17 135.07 1326.78 Q132.015 1331.36 126.205 1331.36 Q120.394 1331.36 117.316 1326.78 Q114.26 1322.17 114.26 1313.45 Q114.26 1304.7 117.316 1300.11 Q120.394 1295.51 126.205 1295.51 Z" fill="#000000" fill-rule="nonzero" fill-opacity="1" /><path clip-path="url(#clip980)" d="M146.366 1324.81 L151.251 1324.81 L151.251 1330.69 L146.366 1330.69 L146.366 1324.81 Z" fill="#000000" fill-rule="nonzero" fill-opacity="1" /><path clip-path="url(#clip980)" d="M171.436 1299.21 Q167.825 1299.21 165.996 1302.78 Q164.19 1306.32 164.19 1313.45 Q164.19 1320.55 165.996 1324.12 Q167.825 1327.66 171.436 1327.66 Q175.07 1327.66 176.876 1324.12 Q178.704 1320.55 178.704 1313.45 Q178.704 1306.32 176.876 1302.78 Q175.07 1299.21 171.436 1299.21 M171.436 1295.51 Q177.246 1295.51 180.301 1300.11 Q183.38 1304.7 183.38 1313.45 Q183.38 1322.17 180.301 1326.78 Q177.246 1331.36 171.436 1331.36 Q165.626 1331.36 162.547 1326.78 Q159.491 1322.17 159.491 1313.45 Q159.491 1304.7 162.547 1300.11 Q165.626 1295.51 171.436 1295.51 Z" fill="#000000" fill-rule="nonzero" fill-opacity="1" /><path clip-path="url(#clip980)" d="M201.598 1299.21 Q197.987 1299.21 196.158 1302.78 Q194.352 1306.32 194.352 1313.45 Q194.352 1320.55 196.158 1324.12 Q197.987 1327.66 201.598 1327.66 Q205.232 1327.66 207.037 1324.12 Q208.866 1320.55 208.866 1313.45 Q208.866 1306.32 207.037 1302.78 Q205.232 1299.21 201.598 1299.21 M201.598 1295.51 Q207.408 1295.51 210.463 1300.11 Q213.542 1304.7 213.542 1313.45 Q213.542 1322.17 210.463 1326.78 Q207.408 1331.36 201.598 1331.36 Q195.787 1331.36 192.709 1326.78 Q189.653 1322.17 189.653 1313.45 Q189.653 1304.7 192.709 1300.11 Q195.787 1295.51 201.598 1295.51 Z" fill="#000000" fill-rule="nonzero" fill-opacity="1" /><path clip-path="url(#clip980)" d="M221.898 1329.98 L221.898 1325.72 Q223.658 1326.55 225.463 1326.99 Q227.269 1327.43 229.005 1327.43 Q233.635 1327.43 236.065 1324.33 Q238.519 1321.2 238.866 1314.86 Q237.523 1316.85 235.463 1317.92 Q233.403 1318.98 230.903 1318.98 Q225.718 1318.98 222.686 1315.86 Q219.676 1312.71 219.676 1307.27 Q219.676 1301.94 222.824 1298.73 Q225.973 1295.51 231.204 1295.51 Q237.199 1295.51 240.347 1300.11 Q243.519 1304.7 243.519 1313.45 Q243.519 1321.62 239.63 1326.5 Q235.764 1331.36 229.213 1331.36 Q227.454 1331.36 225.648 1331.02 Q223.843 1330.67 221.898 1329.98 M231.204 1315.32 Q234.352 1315.32 236.181 1313.17 Q238.033 1311.02 238.033 1307.27 Q238.033 1303.54 236.181 1301.39 Q234.352 1299.21 231.204 1299.21 Q228.056 1299.21 226.204 1301.39 Q224.375 1303.54 224.375 1307.27 Q224.375 1311.02 226.204 1313.17 Q228.056 1315.32 231.204 1315.32 Z" fill="#000000" fill-rule="nonzero" fill-opacity="1" /><path clip-path="url(#clip980)" d="M261.921 1299.21 Q258.31 1299.21 256.482 1302.78 Q254.676 1306.32 254.676 1313.45 Q254.676 1320.55 256.482 1324.12 Q258.31 1327.66 261.921 1327.66 Q265.556 1327.66 267.361 1324.12 Q269.19 1320.55 269.19 1313.45 Q269.19 1306.32 267.361 1302.78 Q265.556 1299.21 261.921 1299.21 M261.921 1295.51 Q267.732 1295.51 270.787 1300.11 Q273.866 1304.7 273.866 1313.45 Q273.866 1322.17 270.787 1326.78 Q267.732 1331.36 261.921 1331.36 Q256.111 1331.36 253.033 1326.78 Q249.977 1322.17 249.977 1313.45 Q249.977 1304.7 253.033 1300.11 Q256.111 1295.51 261.921 1295.51 Z" fill="#000000" fill-rule="nonzero" fill-opacity="1" /><path clip-path="url(#clip980)" d="M127.2 931.722 Q123.589 931.722 121.76 935.287 Q119.955 938.828 119.955 945.958 Q119.955 953.064 121.76 956.629 Q123.589 960.171 127.2 960.171 Q130.834 960.171 132.64 956.629 Q134.468 953.064 134.468 945.958 Q134.468 938.828 132.64 935.287 Q130.834 931.722 127.2 931.722 M127.2 928.018 Q133.01 928.018 136.066 932.625 Q139.144 937.208 139.144 945.958 Q139.144 954.685 136.066 959.291 Q133.01 963.874 127.2 963.874 Q121.39 963.874 118.311 959.291 Q115.256 954.685 115.256 945.958 Q115.256 937.208 118.311 932.625 Q121.39 928.018 127.2 928.018 Z" fill="#000000" fill-rule="nonzero" fill-opacity="1" /><path clip-path="url(#clip980)" d="M147.362 957.324 L152.246 957.324 L152.246 963.203 L147.362 963.203 L147.362 957.324 Z" fill="#000000" fill-rule="nonzero" fill-opacity="1" /><path clip-path="url(#clip980)" d="M172.431 931.722 Q168.82 931.722 166.991 935.287 Q165.186 938.828 165.186 945.958 Q165.186 953.064 166.991 956.629 Q168.82 960.171 172.431 960.171 Q176.065 960.171 177.871 956.629 Q179.7 953.064 179.7 945.958 Q179.7 938.828 177.871 935.287 Q176.065 931.722 172.431 931.722 M172.431 928.018 Q178.241 928.018 181.297 932.625 Q184.376 937.208 184.376 945.958 Q184.376 954.685 181.297 959.291 Q178.241 963.874 172.431 963.874 Q166.621 963.874 163.542 959.291 Q160.487 954.685 160.487 945.958 Q160.487 937.208 163.542 932.625 Q166.621 928.018 172.431 928.018 Z" fill="#000000" fill-rule="nonzero" fill-opacity="1" /><path clip-path="url(#clip980)" d="M202.593 931.722 Q198.982 931.722 197.153 935.287 Q195.348 938.828 195.348 945.958 Q195.348 953.064 197.153 956.629 Q198.982 960.171 202.593 960.171 Q206.227 960.171 208.033 956.629 Q209.861 953.064 209.861 945.958 Q209.861 938.828 208.033 935.287 Q206.227 931.722 202.593 931.722 M202.593 928.018 Q208.403 928.018 211.459 932.625 Q214.537 937.208 214.537 945.958 Q214.537 954.685 211.459 959.291 Q208.403 963.874 202.593 963.874 Q196.783 963.874 193.704 959.291 Q190.649 954.685 190.649 945.958 Q190.649 937.208 193.704 932.625 Q196.783 928.018 202.593 928.018 Z" fill="#000000" fill-rule="nonzero" fill-opacity="1" /><path clip-path="url(#clip980)" d="M222.894 962.486 L222.894 958.226 Q224.653 959.06 226.459 959.499 Q228.264 959.939 230 959.939 Q234.63 959.939 237.06 956.837 Q239.514 953.712 239.861 947.37 Q238.519 949.361 236.459 950.425 Q234.398 951.49 231.898 951.49 Q226.713 951.49 223.681 948.365 Q220.672 945.217 220.672 939.777 Q220.672 934.453 223.82 931.236 Q226.968 928.018 232.199 928.018 Q238.195 928.018 241.343 932.625 Q244.514 937.208 244.514 945.958 Q244.514 954.129 240.625 959.013 Q236.76 963.874 230.209 963.874 Q228.449 963.874 226.644 963.527 Q224.838 963.18 222.894 962.486 M232.199 947.833 Q235.347 947.833 237.176 945.68 Q239.028 943.527 239.028 939.777 Q239.028 936.05 237.176 933.898 Q235.347 931.722 232.199 931.722 Q229.051 931.722 227.199 933.898 Q225.371 936.05 225.371 939.777 Q225.371 943.527 227.199 945.68 Q229.051 947.833 232.199 947.833 Z" fill="#000000" fill-rule="nonzero" fill-opacity="1" /><path clip-path="url(#clip980)" d="M252.963 928.643 L271.32 928.643 L271.32 932.578 L257.246 932.578 L257.246 941.05 Q258.264 940.703 259.283 940.541 Q260.301 940.356 261.32 940.356 Q267.107 940.356 270.486 943.527 Q273.866 946.699 273.866 952.115 Q273.866 957.694 270.394 960.796 Q266.921 963.874 260.602 963.874 Q258.426 963.874 256.158 963.504 Q253.912 963.134 251.505 962.393 L251.505 957.694 Q253.588 958.828 255.81 959.384 Q258.033 959.939 260.509 959.939 Q264.514 959.939 266.852 957.833 Q269.19 955.726 269.19 952.115 Q269.19 948.504 266.852 946.398 Q264.514 944.291 260.509 944.291 Q258.634 944.291 256.759 944.708 Q254.908 945.124 252.963 946.004 L252.963 928.643 Z" fill="#000000" fill-rule="nonzero" fill-opacity="1" /><path clip-path="url(#clip980)" d="M126.205 564.232 Q122.593 564.232 120.765 567.796 Q118.959 571.338 118.959 578.468 Q118.959 585.574 120.765 589.139 Q122.593 592.681 126.205 592.681 Q129.839 592.681 131.644 589.139 Q133.473 585.574 133.473 578.468 Q133.473 571.338 131.644 567.796 Q129.839 564.232 126.205 564.232 M126.205 560.528 Q132.015 560.528 135.07 565.134 Q138.149 569.718 138.149 578.468 Q138.149 587.195 135.07 591.801 Q132.015 596.384 126.205 596.384 Q120.394 596.384 117.316 591.801 Q114.26 587.195 114.26 578.468 Q114.26 569.718 117.316 565.134 Q120.394 560.528 126.205 560.528 Z" fill="#000000" fill-rule="nonzero" fill-opacity="1" /><path clip-path="url(#clip980)" d="M146.366 589.833 L151.251 589.833 L151.251 595.713 L146.366 595.713 L146.366 589.833 Z" fill="#000000" fill-rule="nonzero" fill-opacity="1" /><path clip-path="url(#clip980)" d="M171.436 564.232 Q167.825 564.232 165.996 567.796 Q164.19 571.338 164.19 578.468 Q164.19 585.574 165.996 589.139 Q167.825 592.681 171.436 592.681 Q175.07 592.681 176.876 589.139 Q178.704 585.574 178.704 578.468 Q178.704 571.338 176.876 567.796 Q175.07 564.232 171.436 564.232 M171.436 560.528 Q177.246 560.528 180.301 565.134 Q183.38 569.718 183.38 578.468 Q183.38 587.195 180.301 591.801 Q177.246 596.384 171.436 596.384 Q165.626 596.384 162.547 591.801 Q159.491 587.195 159.491 578.468 Q159.491 569.718 162.547 565.134 Q165.626 560.528 171.436 560.528 Z" fill="#000000" fill-rule="nonzero" fill-opacity="1" /><path clip-path="url(#clip980)" d="M192.408 591.778 L200.047 591.778 L200.047 565.412 L191.737 567.079 L191.737 562.82 L200 561.153 L204.676 561.153 L204.676 591.778 L212.315 591.778 L212.315 595.713 L192.408 595.713 L192.408 591.778 Z" fill="#000000" fill-rule="nonzero" fill-opacity="1" /><path clip-path="url(#clip980)" d="M231.76 564.232 Q228.148 564.232 226.32 567.796 Q224.514 571.338 224.514 578.468 Q224.514 585.574 226.32 589.139 Q228.148 592.681 231.76 592.681 Q235.394 592.681 237.199 589.139 Q239.028 585.574 239.028 578.468 Q239.028 571.338 237.199 567.796 Q235.394 564.232 231.76 564.232 M231.76 560.528 Q237.57 560.528 240.625 565.134 Q243.704 569.718 243.704 578.468 Q243.704 587.195 240.625 591.801 Q237.57 596.384 231.76 596.384 Q225.949 596.384 222.871 591.801 Q219.815 587.195 219.815 578.468 Q219.815 569.718 222.871 565.134 Q225.949 560.528 231.76 560.528 Z" fill="#000000" fill-rule="nonzero" fill-opacity="1" /><path clip-path="url(#clip980)" d="M261.921 564.232 Q258.31 564.232 256.482 567.796 Q254.676 571.338 254.676 578.468 Q254.676 585.574 256.482 589.139 Q258.31 592.681 261.921 592.681 Q265.556 592.681 267.361 589.139 Q269.19 585.574 269.19 578.468 Q269.19 571.338 267.361 567.796 Q265.556 564.232 261.921 564.232 M261.921 560.528 Q267.732 560.528 270.787 565.134 Q273.866 569.718 273.866 578.468 Q273.866 587.195 270.787 591.801 Q267.732 596.384 261.921 596.384 Q256.111 596.384 253.033 591.801 Q249.977 587.195 249.977 578.468 Q249.977 569.718 253.033 565.134 Q256.111 560.528 261.921 560.528 Z" fill="#000000" fill-rule="nonzero" fill-opacity="1" /><path clip-path="url(#clip980)" d="M127.2 196.742 Q123.589 196.742 121.76 200.306 Q119.955 203.848 119.955 210.978 Q119.955 218.084 121.76 221.649 Q123.589 225.191 127.2 225.191 Q130.834 225.191 132.64 221.649 Q134.468 218.084 134.468 210.978 Q134.468 203.848 132.64 200.306 Q130.834 196.742 127.2 196.742 M127.2 193.038 Q133.01 193.038 136.066 197.644 Q139.144 202.228 139.144 210.978 Q139.144 219.704 136.066 224.311 Q133.01 228.894 127.2 228.894 Q121.39 228.894 118.311 224.311 Q115.256 219.704 115.256 210.978 Q115.256 202.228 118.311 197.644 Q121.39 193.038 127.2 193.038 Z" fill="#000000" fill-rule="nonzero" fill-opacity="1" /><path clip-path="url(#clip980)" d="M147.362 222.343 L152.246 222.343 L152.246 228.223 L147.362 228.223 L147.362 222.343 Z" fill="#000000" fill-rule="nonzero" fill-opacity="1" /><path clip-path="url(#clip980)" d="M172.431 196.742 Q168.82 196.742 166.991 200.306 Q165.186 203.848 165.186 210.978 Q165.186 218.084 166.991 221.649 Q168.82 225.191 172.431 225.191 Q176.065 225.191 177.871 221.649 Q179.7 218.084 179.7 210.978 Q179.7 203.848 177.871 200.306 Q176.065 196.742 172.431 196.742 M172.431 193.038 Q178.241 193.038 181.297 197.644 Q184.376 202.228 184.376 210.978 Q184.376 219.704 181.297 224.311 Q178.241 228.894 172.431 228.894 Q166.621 228.894 163.542 224.311 Q160.487 219.704 160.487 210.978 Q160.487 202.228 163.542 197.644 Q166.621 193.038 172.431 193.038 Z" fill="#000000" fill-rule="nonzero" fill-opacity="1" /><path clip-path="url(#clip980)" d="M193.403 224.288 L201.042 224.288 L201.042 197.922 L192.732 199.589 L192.732 195.33 L200.996 193.663 L205.672 193.663 L205.672 224.288 L213.311 224.288 L213.311 228.223 L193.403 228.223 L193.403 224.288 Z" fill="#000000" fill-rule="nonzero" fill-opacity="1" /><path clip-path="url(#clip980)" d="M232.755 196.742 Q229.144 196.742 227.315 200.306 Q225.51 203.848 225.51 210.978 Q225.51 218.084 227.315 221.649 Q229.144 225.191 232.755 225.191 Q236.389 225.191 238.195 221.649 Q240.023 218.084 240.023 210.978 Q240.023 203.848 238.195 200.306 Q236.389 196.742 232.755 196.742 M232.755 193.038 Q238.565 193.038 241.621 197.644 Q244.699 202.228 244.699 210.978 Q244.699 219.704 241.621 224.311 Q238.565 228.894 232.755 228.894 Q226.945 228.894 223.866 224.311 Q220.811 219.704 220.811 210.978 Q220.811 202.228 223.866 197.644 Q226.945 193.038 232.755 193.038 Z" fill="#000000" fill-rule="nonzero" fill-opacity="1" /><path clip-path="url(#clip980)" d="M252.963 193.663 L271.32 193.663 L271.32 197.598 L257.246 197.598 L257.246 206.07 Q258.264 205.723 259.283 205.561 Q260.301 205.376 261.32 205.376 Q267.107 205.376 270.486 208.547 Q273.866 211.718 273.866 217.135 Q273.866 222.714 270.394 225.816 Q266.921 228.894 260.602 228.894 Q258.426 228.894 256.158 228.524 Q253.912 228.153 251.505 227.413 L251.505 222.714 Q253.588 223.848 255.81 224.403 Q258.033 224.959 260.509 224.959 Q264.514 224.959 266.852 222.853 Q269.19 220.746 269.19 217.135 Q269.19 213.524 266.852 211.417 Q264.514 209.311 260.509 209.311 Q258.634 209.311 256.759 209.728 Q254.908 210.144 252.963 211.024 L252.963 193.663 Z" fill="#000000" fill-rule="nonzero" fill-opacity="1" /><path clip-path="url(#clip980)" d="M33.7671 788.508 L14.479 788.508 L14.479 782.652 L64.0042 782.652 L64.0042 788.508 L58.657 788.508 Q61.8398 790.354 63.3994 793.187 Q64.9272 795.988 64.9272 799.935 Q64.9272 806.396 59.771 810.47 Q54.6147 814.512 46.212 814.512 Q37.8093 814.512 32.6531 810.47 Q27.4968 806.396 27.4968 799.935 Q27.4968 795.988 29.0564 793.187 Q30.5842 790.354 33.7671 788.508 M46.212 808.465 Q52.6732 808.465 56.3653 805.823 Q60.0256 803.149 60.0256 798.502 Q60.0256 793.855 56.3653 791.182 Q52.6732 788.508 46.212 788.508 Q39.7508 788.508 36.0905 791.182 Q32.3984 793.855 32.3984 798.502 Q32.3984 803.149 36.0905 805.823 Q39.7508 808.465 46.212 808.465 Z" fill="#000000" fill-rule="nonzero" fill-opacity="1" /><path clip-path="url(#clip980)" d="M74.8259 743.503 L79.3773 743.503 L79.3773 777.368 L74.8259 777.368 L74.8259 743.503 Z" fill="#000000" fill-rule="nonzero" fill-opacity="1" /><path clip-path="url(#clip980)" d="M28.3562 737.996 L28.3562 732.14 L64.0042 732.14 L64.0042 737.996 L28.3562 737.996 M14.479 737.996 L14.479 732.14 L21.895 732.14 L21.895 737.996 L14.479 737.996 Z" fill="#000000" fill-rule="nonzero" fill-opacity="1" /><path clip-path="url(#clip980)" d="M794.465 18.8205 L794.465 65.8515 L804.349 65.8515 Q816.866 65.8515 822.659 60.1802 Q828.492 54.509 828.492 42.2752 Q828.492 30.1225 822.659 24.4918 Q816.866 18.8205 804.349 18.8205 L794.465 18.8205 M786.282 12.096 L803.093 12.096 Q820.674 12.096 828.897 19.4281 Q837.121 26.7198 837.121 42.2752 Q837.121 57.9117 828.857 65.2439 Q820.593 72.576 803.093 72.576 L786.282 72.576 L786.282 12.096 Z" fill="#000000" fill-rule="nonzero" fill-opacity="1" /><path clip-path="url(#clip980)" d="M849.841 27.2059 L857.294 27.2059 L857.294 72.576 L849.841 72.576 L849.841 27.2059 M849.841 9.54393 L857.294 9.54393 L857.294 18.9825 L849.841 18.9825 L849.841 9.54393 Z" fill="#000000" fill-rule="nonzero" fill-opacity="1" /><path clip-path="url(#clip980)" d="M901.814 28.5427 L901.814 35.5912 Q898.654 33.9709 895.251 33.1607 Q891.849 32.3505 888.203 32.3505 Q882.653 32.3505 879.858 34.0519 Q877.103 35.7533 877.103 39.156 Q877.103 41.7486 879.088 43.2475 Q881.073 44.7058 887.068 46.0426 L889.621 46.6097 Q897.56 48.3111 900.882 51.4303 Q904.244 54.509 904.244 60.0587 Q904.244 66.3781 899.221 70.0644 Q894.239 73.7508 885.489 73.7508 Q881.843 73.7508 877.873 73.0216 Q873.944 72.3329 869.569 70.9151 L869.569 63.2184 Q873.7 65.3654 877.711 66.4591 Q881.721 67.5124 885.651 67.5124 Q890.917 67.5124 893.752 65.73 Q896.588 63.9071 896.588 60.6258 Q896.588 57.5877 894.522 55.9673 Q892.497 54.3469 885.57 52.8481 L882.977 52.2405 Q876.05 50.7821 872.971 47.7845 Q869.893 44.7463 869.893 39.4801 Q869.893 33.0797 874.43 29.5959 Q878.967 26.1121 887.311 26.1121 Q891.443 26.1121 895.089 26.7198 Q898.735 27.3274 901.814 28.5427 Z" fill="#000000" fill-rule="nonzero" fill-opacity="1" /><path clip-path="url(#clip980)" d="M923.486 14.324 L923.486 27.2059 L938.839 27.2059 L938.839 32.9987 L923.486 32.9987 L923.486 57.6282 Q923.486 63.1779 924.985 64.7578 Q926.524 66.3376 931.183 66.3376 L938.839 66.3376 L938.839 72.576 L931.183 72.576 Q922.554 72.576 919.273 69.3758 Q915.992 66.1351 915.992 57.6282 L915.992 32.9987 L910.523 32.9987 L910.523 27.2059 L915.992 27.2059 L915.992 14.324 L923.486 14.324 Z" fill="#000000" fill-rule="nonzero" fill-opacity="1" /><path clip-path="url(#clip980)" d="M969.261 49.7694 Q960.228 49.7694 956.744 51.8354 Q953.26 53.9013 953.26 58.8839 Q953.26 62.8538 955.853 65.2034 Q958.486 67.5124 962.982 67.5124 Q969.18 67.5124 972.907 63.1374 Q976.674 58.7219 976.674 51.4303 L976.674 49.7694 L969.261 49.7694 M984.128 46.6907 L984.128 72.576 L976.674 72.576 L976.674 65.6895 Q974.122 69.8214 970.315 71.8063 Q966.507 73.7508 960.997 73.7508 Q954.03 73.7508 949.898 69.8619 Q945.807 65.9325 945.807 59.3701 Q945.807 51.7138 950.911 47.825 Q956.055 43.9361 966.223 43.9361 L976.674 43.9361 L976.674 43.2069 Q976.674 38.0623 973.272 35.2672 Q969.909 32.4315 963.793 32.4315 Q959.904 32.4315 956.217 33.3632 Q952.531 34.295 949.128 36.1584 L949.128 29.2718 Q953.22 27.692 957.068 26.9223 Q960.916 26.1121 964.562 26.1121 Q974.406 26.1121 979.267 31.2163 Q984.128 36.3204 984.128 46.6907 Z" fill="#000000" fill-rule="nonzero" fill-opacity="1" /><path clip-path="url(#clip980)" d="M1037.19 45.1919 L1037.19 72.576 L1029.74 72.576 L1029.74 45.4349 Q1029.74 38.994 1027.23 35.7938 Q1024.72 32.5936 1019.7 32.5936 Q1013.66 32.5936 1010.18 36.4419 Q1006.69 40.2903 1006.69 46.9338 L1006.69 72.576 L999.197 72.576 L999.197 27.2059 L1006.69 27.2059 L1006.69 34.2544 Q1009.37 30.163 1012.97 28.1376 Q1016.62 26.1121 1021.36 26.1121 Q1029.17 26.1121 1033.18 30.9732 Q1037.19 35.7938 1037.19 45.1919 Z" fill="#000000" fill-rule="nonzero" fill-opacity="1" /><path clip-path="url(#clip980)" d="M1084.71 28.9478 L1084.71 35.9153 Q1081.55 34.1734 1078.35 33.3227 Q1075.19 32.4315 1071.95 32.4315 Q1064.7 32.4315 1060.69 37.0496 Q1056.68 41.6271 1056.68 49.9314 Q1056.68 58.2358 1060.69 62.8538 Q1064.7 67.4314 1071.95 67.4314 Q1075.19 67.4314 1078.35 66.5807 Q1081.55 65.6895 1084.71 63.9476 L1084.71 70.8341 Q1081.59 72.2924 1078.23 73.0216 Q1074.91 73.7508 1071.14 73.7508 Q1060.89 73.7508 1054.86 67.3098 Q1048.82 60.8689 1048.82 49.9314 Q1048.82 38.832 1054.9 32.472 Q1061.01 26.1121 1071.63 26.1121 Q1075.07 26.1121 1078.35 26.8413 Q1081.63 27.5299 1084.71 28.9478 Z" fill="#000000" fill-rule="nonzero" fill-opacity="1" /><path clip-path="url(#clip980)" d="M1136.48 48.0275 L1136.48 51.6733 L1102.21 51.6733 Q1102.7 59.3701 1106.83 63.421 Q1111 67.4314 1118.42 67.4314 Q1122.71 67.4314 1126.72 66.3781 Q1130.77 65.3249 1134.74 63.2184 L1134.74 70.267 Q1130.73 71.9684 1126.52 72.8596 Q1122.3 73.7508 1117.97 73.7508 Q1107.11 73.7508 1100.75 67.4314 Q1094.43 61.1119 1094.43 50.3365 Q1094.43 39.1965 1100.43 32.6746 Q1106.47 26.1121 1116.67 26.1121 Q1125.83 26.1121 1131.14 32.0264 Q1136.48 37.9003 1136.48 48.0275 M1129.03 45.84 Q1128.95 39.7232 1125.59 36.0774 Q1122.26 32.4315 1116.75 32.4315 Q1110.52 32.4315 1106.75 35.9558 Q1103.02 39.4801 1102.46 45.8805 L1129.03 45.84 Z" fill="#000000" fill-rule="nonzero" fill-opacity="1" /><path clip-path="url(#clip980)" d="M1182.46 14.324 L1182.46 27.2059 L1197.81 27.2059 L1197.81 32.9987 L1182.46 32.9987 L1182.46 57.6282 Q1182.46 63.1779 1183.96 64.7578 Q1185.5 66.3376 1190.16 66.3376 L1197.81 66.3376 L1197.81 72.576 L1190.16 72.576 Q1181.53 72.576 1178.25 69.3758 Q1174.97 66.1351 1174.97 57.6282 L1174.97 32.9987 L1169.5 32.9987 L1169.5 27.2059 L1174.97 27.2059 L1174.97 14.324 L1182.46 14.324 Z" fill="#000000" fill-rule="nonzero" fill-opacity="1" /><path clip-path="url(#clip980)" d="M1233.91 34.1734 Q1232.65 33.4443 1231.15 33.1202 Q1229.69 32.7556 1227.91 32.7556 Q1221.59 32.7556 1218.19 36.8875 Q1214.83 40.9789 1214.83 48.6757 L1214.83 72.576 L1207.33 72.576 L1207.33 27.2059 L1214.83 27.2059 L1214.83 34.2544 Q1217.18 30.1225 1220.94 28.1376 Q1224.71 26.1121 1230.1 26.1121 Q1230.87 26.1121 1231.8 26.2337 Q1232.73 26.3147 1233.87 26.5172 L1233.91 34.1734 Z" fill="#000000" fill-rule="nonzero" fill-opacity="1" /><path clip-path="url(#clip980)" d="M1262.34 49.7694 Q1253.31 49.7694 1249.83 51.8354 Q1246.34 53.9013 1246.34 58.8839 Q1246.34 62.8538 1248.94 65.2034 Q1251.57 67.5124 1256.07 67.5124 Q1262.26 67.5124 1265.99 63.1374 Q1269.76 58.7219 1269.76 51.4303 L1269.76 49.7694 L1262.34 49.7694 M1277.21 46.6907 L1277.21 72.576 L1269.76 72.576 L1269.76 65.6895 Q1267.21 69.8214 1263.4 71.8063 Q1259.59 73.7508 1254.08 73.7508 Q1247.11 73.7508 1242.98 69.8619 Q1238.89 65.9325 1238.89 59.3701 Q1238.89 51.7138 1243.99 47.825 Q1249.14 43.9361 1259.31 43.9361 L1269.76 43.9361 L1269.76 43.2069 Q1269.76 38.0623 1266.35 35.2672 Q1262.99 32.4315 1256.88 32.4315 Q1252.99 32.4315 1249.3 33.3632 Q1245.61 34.295 1242.21 36.1584 L1242.21 29.2718 Q1246.3 27.692 1250.15 26.9223 Q1254 26.1121 1257.65 26.1121 Q1267.49 26.1121 1272.35 31.2163 Q1277.21 36.3204 1277.21 46.6907 Z" fill="#000000" fill-rule="nonzero" fill-opacity="1" /><path clip-path="url(#clip980)" d="M1325.21 28.9478 L1325.21 35.9153 Q1322.05 34.1734 1318.85 33.3227 Q1315.69 32.4315 1312.45 32.4315 Q1305.2 32.4315 1301.19 37.0496 Q1297.18 41.6271 1297.18 49.9314 Q1297.18 58.2358 1301.19 62.8538 Q1305.2 67.4314 1312.45 67.4314 Q1315.69 67.4314 1318.85 66.5807 Q1322.05 65.6895 1325.21 63.9476 L1325.21 70.8341 Q1322.1 72.2924 1318.73 73.0216 Q1315.41 73.7508 1311.64 73.7508 Q1301.39 73.7508 1295.36 67.3098 Q1289.32 60.8689 1289.32 49.9314 Q1289.32 38.832 1295.4 32.472 Q1301.52 26.1121 1312.13 26.1121 Q1315.57 26.1121 1318.85 26.8413 Q1322.14 27.5299 1325.21 28.9478 Z" fill="#000000" fill-rule="nonzero" fill-opacity="1" /><path clip-path="url(#clip980)" d="M1376.98 48.0275 L1376.98 51.6733 L1342.71 51.6733 Q1343.2 59.3701 1347.33 63.421 Q1351.5 67.4314 1358.92 67.4314 Q1363.21 67.4314 1367.22 66.3781 Q1371.27 65.3249 1375.24 63.2184 L1375.24 70.267 Q1371.23 71.9684 1367.02 72.8596 Q1362.81 73.7508 1358.47 73.7508 Q1347.62 73.7508 1341.26 67.4314 Q1334.94 61.1119 1334.94 50.3365 Q1334.94 39.1965 1340.93 32.6746 Q1346.97 26.1121 1357.18 26.1121 Q1366.33 26.1121 1371.64 32.0264 Q1376.98 37.9003 1376.98 48.0275 M1369.53 45.84 Q1369.45 39.7232 1366.09 36.0774 Q1362.77 32.4315 1357.26 32.4315 Q1351.02 32.4315 1347.25 35.9558 Q1343.52 39.4801 1342.96 45.8805 L1369.53 45.84 Z" fill="#000000" fill-rule="nonzero" fill-opacity="1" /><path clip-path="url(#clip980)" d="M1448.16 49.9314 Q1448.16 41.7081 1444.76 37.0496 Q1441.39 32.3505 1435.48 32.3505 Q1429.57 32.3505 1426.16 37.0496 Q1422.8 41.7081 1422.8 49.9314 Q1422.8 58.1548 1426.16 62.8538 Q1429.57 67.5124 1435.48 67.5124 Q1441.39 67.5124 1444.76 62.8538 Q1448.16 58.1548 1448.16 49.9314 M1422.8 34.0924 Q1425.15 30.0415 1428.71 28.0971 Q1432.32 26.1121 1437.3 26.1121 Q1445.57 26.1121 1450.71 32.6746 Q1455.9 39.2371 1455.9 49.9314 Q1455.9 60.6258 1450.71 67.1883 Q1445.57 73.7508 1437.3 73.7508 Q1432.32 73.7508 1428.71 71.8063 Q1425.15 69.8214 1422.8 65.7705 L1422.8 72.576 L1415.31 72.576 L1415.31 9.54393 L1422.8 9.54393 L1422.8 34.0924 Z" fill="#000000" fill-rule="nonzero" fill-opacity="1" /><path clip-path="url(#clip980)" d="M1507.06 48.0275 L1507.06 51.6733 L1472.79 51.6733 Q1473.27 59.3701 1477.41 63.421 Q1481.58 67.4314 1488.99 67.4314 Q1493.29 67.4314 1497.3 66.3781 Q1501.35 65.3249 1505.32 63.2184 L1505.32 70.267 Q1501.31 71.9684 1497.09 72.8596 Q1492.88 73.7508 1488.55 73.7508 Q1477.69 73.7508 1471.33 67.4314 Q1465.01 61.1119 1465.01 50.3365 Q1465.01 39.1965 1471.01 32.6746 Q1477.04 26.1121 1487.25 26.1121 Q1496.41 26.1121 1501.71 32.0264 Q1507.06 37.9003 1507.06 48.0275 M1499.61 45.84 Q1499.52 39.7232 1496.16 36.0774 Q1492.84 32.4315 1487.33 32.4315 Q1481.09 32.4315 1477.33 35.9558 Q1473.6 39.4801 1473.03 45.8805 L1499.61 45.84 Z" fill="#000000" fill-rule="nonzero" fill-opacity="1" /><path clip-path="url(#clip980)" d="M1548.22 28.5427 L1548.22 35.5912 Q1545.06 33.9709 1541.65 33.1607 Q1538.25 32.3505 1534.61 32.3505 Q1529.06 32.3505 1526.26 34.0519 Q1523.51 35.7533 1523.51 39.156 Q1523.51 41.7486 1525.49 43.2475 Q1527.48 44.7058 1533.47 46.0426 L1536.02 46.6097 Q1543.96 48.3111 1547.28 51.4303 Q1550.65 54.509 1550.65 60.0587 Q1550.65 66.3781 1545.62 70.0644 Q1540.64 73.7508 1531.89 73.7508 Q1528.25 73.7508 1524.28 73.0216 Q1520.35 72.3329 1515.97 70.9151 L1515.97 63.2184 Q1520.1 65.3654 1524.11 66.4591 Q1528.12 67.5124 1532.05 67.5124 Q1537.32 67.5124 1540.16 65.73 Q1542.99 63.9071 1542.99 60.6258 Q1542.99 57.5877 1540.92 55.9673 Q1538.9 54.3469 1531.97 52.8481 L1529.38 52.2405 Q1522.45 50.7821 1519.37 47.7845 Q1516.3 44.7463 1516.3 39.4801 Q1516.3 33.0797 1520.83 29.5959 Q1525.37 26.1121 1533.71 26.1121 Q1537.85 26.1121 1541.49 26.7198 Q1545.14 27.3274 1548.22 28.5427 Z" fill="#000000" fill-rule="nonzero" fill-opacity="1" /><path clip-path="url(#clip980)" d="M1569.89 14.324 L1569.89 27.2059 L1585.24 27.2059 L1585.24 32.9987 L1569.89 32.9987 L1569.89 57.6282 Q1569.89 63.1779 1571.39 64.7578 Q1572.93 66.3376 1577.59 66.3376 L1585.24 66.3376 L1585.24 72.576 L1577.59 72.576 Q1568.96 72.576 1565.68 69.3758 Q1562.39 66.1351 1562.39 57.6282 L1562.39 32.9987 L1556.93 32.9987 L1556.93 27.2059 L1562.39 27.2059 L1562.39 14.324 L1569.89 14.324 Z" fill="#000000" fill-rule="nonzero" fill-opacity="1" /><path clip-path="url(#clip980)" d="M1616.07 27.2059 L1623.97 27.2059 L1638.15 65.2844 L1652.32 27.2059 L1660.22 27.2059 L1643.21 72.576 L1633.08 72.576 L1616.07 27.2059 Z" fill="#000000" fill-rule="nonzero" fill-opacity="1" /><path clip-path="url(#clip980)" d="M1709.32 48.0275 L1709.32 51.6733 L1675.05 51.6733 Q1675.54 59.3701 1679.67 63.421 Q1683.84 67.4314 1691.25 67.4314 Q1695.55 67.4314 1699.56 66.3781 Q1703.61 65.3249 1707.58 63.2184 L1707.58 70.267 Q1703.57 71.9684 1699.36 72.8596 Q1695.14 73.7508 1690.81 73.7508 Q1679.95 73.7508 1673.59 67.4314 Q1667.27 61.1119 1667.27 50.3365 Q1667.27 39.1965 1673.27 32.6746 Q1679.3 26.1121 1689.51 26.1121 Q1698.67 26.1121 1703.97 32.0264 Q1709.32 37.9003 1709.32 48.0275 M1701.87 45.84 Q1701.79 39.7232 1698.42 36.0774 Q1695.1 32.4315 1689.59 32.4315 Q1683.35 32.4315 1679.59 35.9558 Q1675.86 39.4801 1675.29 45.8805 L1701.87 45.84 Z" fill="#000000" fill-rule="nonzero" fill-opacity="1" /><path clip-path="url(#clip980)" d="M1747.85 34.1734 Q1746.59 33.4443 1745.09 33.1202 Q1743.63 32.7556 1741.85 32.7556 Q1735.53 32.7556 1732.13 36.8875 Q1728.77 40.9789 1728.77 48.6757 L1728.77 72.576 L1721.27 72.576 L1721.27 27.2059 L1728.77 27.2059 L1728.77 34.2544 Q1731.11 30.1225 1734.88 28.1376 Q1738.65 26.1121 1744.04 26.1121 Q1744.81 26.1121 1745.74 26.2337 Q1746.67 26.3147 1747.8 26.5172 L1747.85 34.1734 Z" fill="#000000" fill-rule="nonzero" fill-opacity="1" /><path clip-path="url(#clip980)" d="M1763.04 14.324 L1763.04 27.2059 L1778.39 27.2059 L1778.39 32.9987 L1763.04 32.9987 L1763.04 57.6282 Q1763.04 63.1779 1764.53 64.7578 Q1766.07 66.3376 1770.73 66.3376 L1778.39 66.3376 L1778.39 72.576 L1770.73 72.576 Q1762.1 72.576 1758.82 69.3758 Q1755.54 66.1351 1755.54 57.6282 L1755.54 32.9987 L1750.07 32.9987 L1750.07 27.2059 L1755.54 27.2059 L1755.54 14.324 L1763.04 14.324 Z" fill="#000000" fill-rule="nonzero" fill-opacity="1" /><path clip-path="url(#clip980)" d="M1827 48.0275 L1827 51.6733 L1792.73 51.6733 Q1793.22 59.3701 1797.35 63.421 Q1801.52 67.4314 1808.93 67.4314 Q1813.23 67.4314 1817.24 66.3781 Q1821.29 65.3249 1825.26 63.2184 L1825.26 70.267 Q1821.25 71.9684 1817.03 72.8596 Q1812.82 73.7508 1808.49 73.7508 Q1797.63 73.7508 1791.27 67.4314 Q1784.95 61.1119 1784.95 50.3365 Q1784.95 39.1965 1790.95 32.6746 Q1796.98 26.1121 1807.19 26.1121 Q1816.35 26.1121 1821.65 32.0264 Q1827 37.9003 1827 48.0275 M1819.55 45.84 Q1819.47 39.7232 1816.1 36.0774 Q1812.78 32.4315 1807.27 32.4315 Q1801.03 32.4315 1797.27 35.9558 Q1793.54 39.4801 1792.97 45.8805 L1819.55 45.84 Z" fill="#000000" fill-rule="nonzero" fill-opacity="1" /><path clip-path="url(#clip980)" d="M1875.49 27.2059 L1859.08 49.2833 L1876.34 72.576 L1867.55 72.576 L1854.34 54.752 L1841.14 72.576 L1832.35 72.576 L1849.97 48.8377 L1833.85 27.2059 L1842.64 27.2059 L1854.67 43.369 L1866.7 27.2059 L1875.49 27.2059 Z" fill="#000000" fill-rule="nonzero" fill-opacity="1" /><polyline clip-path="url(#clip982)" style="stroke:#009af9; stroke-linecap:round; stroke-linejoin:round; stroke-width:4; stroke-opacity:1; fill:none" points="367.683,311.282 406.229,244.904 444.774,239.897 483.319,275.284 521.864,311.887 560.409,352.148 598.954,430.907 637.499,590.456 676.044,716.603 714.589,788.911 753.134,823.064 791.679,849.153 830.225,922.163 868.77,980.292 907.315,1043.39 945.86,1100.28 984.405,1136.03 1022.95,1158.22 1061.5,1188.69 1100.04,1214.95 1138.59,1234.31 1177.13,1248.77 1215.68,1260.31 1254.22,1274.35 1292.77,1285.14 1331.31,1294.65 1369.86,1302.97 1408.4,1311.35 1446.95,1318.58 1485.49,1326.17 1524.04,1332.82 1562.58,1338.86 1601.13,1343.23 1639.67,1348.02 1678.22,1351.94 1716.76,1355.88 1755.31,1359.29 1793.85,1361.91 1832.4,1364.86 1870.94,1367.38 1909.49,1369.86 1948.03,1372.36 1986.58,1374.06 2025.12,1376.19 2063.67,1378.07 2102.21,1379.98 2140.76,1381.5 2179.3,1383.06 2217.85,1384.79 2256.39,1386.4 2294.94,1386.4 "/>
<polyline clip-path="url(#clip982)" style="stroke:#e26f46; stroke-linecap:round; stroke-linejoin:round; stroke-width:4; stroke-opacity:1; fill:none" points="367.683,595.188 406.229,680.437 444.774,743.983 483.319,792.973 521.864,822.206 560.409,841.644 598.954,852.686 637.499,827.915 676.044,778.28 714.589,729.529 753.134,697.183 791.679,670.466 830.225,630.736 868.77,622.381 907.315,571.629 945.86,537.044 984.405,508.064 1022.95,490.606 1061.5,462.046 1100.04,433.367 1138.59,412.965 1177.13,395.268 1215.68,380.5 1254.22,361.552 1292.77,347.197 1331.31,332.997 1369.86,320.146 1408.4,307.7 1446.95,295.542 1485.49,282.302 1524.04,270.46 1562.58,259.827 1601.13,251.743 1639.67,242.107 1678.22,234.181 1716.76,226.167 1755.31,219.496 1793.85,213.854 1832.4,207.828 1870.94,202.417 1909.49,196.876 1948.03,191.675 1986.58,187.819 2025.12,183.394 2063.67,179.024 2102.21,174.59 2140.76,170.921 2179.3,167.405 2217.85,163.692 2256.39,160.256 2294.94,160.256 "/>
<polyline clip-path="url(#clip982)" style="stroke:#3da44d; stroke-linecap:round; stroke-linejoin:round; stroke-width:4; stroke-opacity:1; fill:none" points="367.683,400.312 406.229,407.992 444.774,386.576 483.319,354.448 521.864,322.139 560.409,292.786 598.954,254.08 637.499,215.686 676.044,217.783 714.589,247.478 753.134,269.428 791.679,290.863 830.225,294.629 868.77,262.534 907.315,273.416 945.86,259.626 984.405,255.397 1022.95,250.16 1061.5,248.907 1100.04,248.418 1138.59,244.991 1177.13,244.803 1215.68,245.116 1254.22,245.51 1292.77,245.855 1331.31,247.639 1369.86,249.643 1408.4,250.198 1446.95,253.526 1485.49,255.803 1524.04,259.405 1562.58,261.391 1601.13,264.18 1639.67,267.864 1678.22,270.981 1716.76,274.062 1755.31,276.472 1793.85,279.002 1832.4,281.26 1870.94,284.008 1909.49,286.438 1948.03,288.232 1986.58,290.308 2025.12,292.538 2063.67,295.594 2102.21,298.142 2140.76,300.682 2179.3,302.849 2217.85,305.351 2256.39,307.586 2294.94,307.586 "/>
<polyline clip-path="url(#clip982)" style="stroke:#c271d2; stroke-linecap:round; stroke-linejoin:round; stroke-width:4; stroke-opacity:1; fill:none" points="367.683,386.269 406.229,370.064 444.774,354.994 483.319,332.362 521.864,320.837 560.409,309.425 598.954,301.9 637.499,299.216 676.044,306.546 714.589,304.45 753.134,305.453 791.679,302.272 830.225,297.267 868.77,291.756 907.315,294.37 945.86,294.364 984.405,292.253 1022.95,292.488 1061.5,287.973 1100.04,290.905 1138.59,291.515 1177.13,289.985 1215.68,290.903 1254.22,292.501 1292.77,290.866 1331.31,289.223 1369.86,286.97 1408.4,286.381 1446.95,284.112 1485.49,284.17 1524.04,281.909 1562.58,281.059 1601.13,279.69 1639.67,278.066 1678.22,276.786 1716.76,275.473 1755.31,274.524 1793.85,273.317 1832.4,272.621 1870.94,271.939 1909.49,271.516 1948.03,271.227 1986.58,270.567 2025.12,269.12 2063.67,267.372 2102.21,266.429 2140.76,265.265 2179.3,264.261 2217.85,262.211 2256.39,260.821 2294.94,260.821 "/>
<polyline clip-path="url(#clip982)" style="stroke:#ac8d18; stroke-linecap:round; stroke-linejoin:round; stroke-width:4; stroke-opacity:1; fill:none" points="367.683,268.893 406.229,253.584 444.774,234.09 483.319,224.696 521.864,214.873 560.409,205.795 598.954,195.2 637.499,211.786 676.044,211.39 714.589,216.283 753.134,224.646 791.679,229.698 830.225,234.742 868.77,229.079 907.315,224.936 945.86,221.085 984.405,226.971 1022.95,228.386 1061.5,226.24 1100.04,221.24 1138.59,219.901 1177.13,219.636 1215.68,216.625 1254.22,214.166 1292.77,214.876 1331.31,215.27 1369.86,215.361 1408.4,213.963 1446.95,211.518 1485.49,211.104 1524.04,209.796 1562.58,207.872 1601.13,206.594 1639.67,205.15 1678.22,203.622 1716.76,202.326 1755.31,200.041 1793.85,198.861 1832.4,196.654 1870.94,194.075 1909.49,192.053 1948.03,189.756 1986.58,187.562 2025.12,185.479 2063.67,183.006 2102.21,180.615 2140.76,178.712 2179.3,176.065 2217.85,173.719 2256.39,170.645 2294.94,170.645 "/>
<polyline clip-path="url(#clip982)" style="stroke:#00a9ad; stroke-linecap:round; stroke-linejoin:round; stroke-width:4; stroke-opacity:1; fill:none" points="367.683,458.324 406.229,421.56 444.774,401.969 483.319,389.615 521.864,378.43 560.409,372.934 598.954,354.455 637.499,330.372 676.044,337.261 714.589,347.444 753.134,356.073 791.679,365.745 830.225,362.653 868.77,348.552 907.315,349.646 945.86,343.727 984.405,333.463 1022.95,329.692 1061.5,331.046 1100.04,327.618 1138.59,323.442 1177.13,321.808 1215.68,320.753 1254.22,317.159 1292.77,312.98 1331.31,310.723 1369.86,309.397 1408.4,307.861 1446.95,306.326 1485.49,302.931 1524.04,300.738 1562.58,299.399 1601.13,297.406 1639.67,295.19 1678.22,293.031 1716.76,290.541 1755.31,288.487 1793.85,286.996 1832.4,285.108 1870.94,283.389 1909.49,282.073 1948.03,280.559 1986.58,279.87 2025.12,278.517 2063.67,277.346 2102.21,276.145 2140.76,274.168 2179.3,273.127 2217.85,271.755 2256.39,270.551 2294.94,270.551 "/>
<polyline clip-path="url(#clip982)" style="stroke:#ed5d92; stroke-linecap:round; stroke-linejoin:round; stroke-width:4; stroke-opacity:1; fill:none" points="367.683,567.937 406.229,555.231 444.774,559.77 483.319,563.94 521.864,581.823 560.409,601.021 598.954,635.687 637.499,656.211 676.044,650.361 714.589,633.914 753.134,617.935 791.679,599.492 830.225,602.213 868.77,626.431 907.315,629.058 945.86,641.434 984.405,654.257 1022.95,657.113 1061.5,662.456 1100.04,671.362 1138.59,678.16 1177.13,684.327 1215.68,688.164 1254.22,694.105 1292.77,698.795 1331.31,703.327 1369.86,706.255 1408.4,710.034 1446.95,715.002 1485.49,719.037 1524.04,722.842 1562.58,726.66 1601.13,728.901 1639.67,732.972 1678.22,736.535 1716.76,740.036 1755.31,743.169 1793.85,745.98 1832.4,748.961 1870.94,751.523 1909.49,753.959 1948.03,756.552 1986.58,758.473 2025.12,760.997 2063.67,763.632 2102.21,766.01 2140.76,768.786 2179.3,771.199 2217.85,773.968 2256.39,776.601 2294.94,776.601 "/>
<polyline clip-path="url(#clip982)" style="stroke:#c68125; stroke-linecap:round; stroke-linejoin:round; stroke-width:4; stroke-opacity:1; fill:none" points="367.683,547.433 406.229,631.765 444.774,670.825 483.319,698.015 521.864,699.215 560.409,688.68 598.954,670.036 637.499,661.938 676.044,663.651 714.589,677.568 753.134,685.906 791.679,701.693 830.225,701.93 868.77,690.766 907.315,689.785 945.86,685.251 984.405,674.805 1022.95,676.642 1061.5,672.39 1100.04,664.701 1138.59,661.177 1177.13,654.3 1215.68,651.469 1254.22,647.497 1292.77,645.615 1331.31,640.08 1369.86,638.766 1408.4,634.924 1446.95,630.199 1485.49,627.4 1524.04,624.902 1562.58,620.529 1601.13,620.698 1639.67,616.488 1678.22,613.186 1716.76,610.459 1755.31,608.858 1793.85,605.654 1832.4,603.836 1870.94,602.536 1909.49,600.346 1948.03,598.535 1986.58,596.861 2025.12,595.005 2063.67,592.823 2102.21,590.901 2140.76,588.785 2179.3,586.736 2217.85,584.398 2256.39,582.603 2294.94,582.603 "/>
</svg>
