<?xml version="1.0" encoding="utf-8"?>
<svg xmlns="http://www.w3.org/2000/svg" xmlns:xlink="http://www.w3.org/1999/xlink" width="600" height="400" viewBox="0 0 2400 1600">
<defs>
  <clipPath id="clip020">
    <rect x="0" y="0" width="2400" height="1600"/>
  </clipPath>
</defs>
<path clip-path="url(#clip020)" d="M0 1600 L2400 1600 L2400 0 L0 0  Z" fill="#ffffff" fill-rule="evenodd" fill-opacity="1"/>
<defs>
  <clipPath id="clip021">
    <rect x="480" y="0" width="1681" height="1600"/>
  </clipPath>
</defs>
<path clip-path="url(#clip020)" d="M309.866 1423.18 L2352.76 1423.18 L2352.76 123.472 L309.866 123.472  Z" fill="#ffffff" fill-rule="evenodd" fill-opacity="1"/>
<defs>
  <clipPath id="clip022">
    <rect x="309" y="123" width="2044" height="1301"/>
  </clipPath>
</defs>
<polyline clip-path="url(#clip022)" style="stroke:#000000; stroke-linecap:round; stroke-linejoin:round; stroke-width:2; stroke-opacity:0.1; fill:none" points="643.006,1423.18 643.006,123.472 "/>
<polyline clip-path="url(#clip022)" style="stroke:#000000; stroke-linecap:round; stroke-linejoin:round; stroke-width:2; stroke-opacity:0.1; fill:none" points="1193.65,1423.18 1193.65,123.472 "/>
<polyline clip-path="url(#clip022)" style="stroke:#000000; stroke-linecap:round; stroke-linejoin:round; stroke-width:2; stroke-opacity:0.1; fill:none" points="1744.29,1423.18 1744.29,123.472 "/>
<polyline clip-path="url(#clip022)" style="stroke:#000000; stroke-linecap:round; stroke-linejoin:round; stroke-width:2; stroke-opacity:0.1; fill:none" points="2294.94,1423.18 2294.94,123.472 "/>
<polyline clip-path="url(#clip020)" style="stroke:#000000; stroke-linecap:round; stroke-linejoin:round; stroke-width:4; stroke-opacity:1; fill:none" points="309.866,1423.18 2352.76,1423.18 "/>
<polyline clip-path="url(#clip020)" style="stroke:#000000; stroke-linecap:round; stroke-linejoin:round; stroke-width:4; stroke-opacity:1; fill:none" points="643.006,1423.18 643.006,1404.28 "/>
<polyline clip-path="url(#clip020)" style="stroke:#000000; stroke-linecap:round; stroke-linejoin:round; stroke-width:4; stroke-opacity:1; fill:none" points="1193.65,1423.18 1193.65,1404.28 "/>
<polyline clip-path="url(#clip020)" style="stroke:#000000; stroke-linecap:round; stroke-linejoin:round; stroke-width:4; stroke-opacity:1; fill:none" points="1744.29,1423.18 1744.29,1404.28 "/>
<polyline clip-path="url(#clip020)" style="stroke:#000000; stroke-linecap:round; stroke-linejoin:round; stroke-width:4; stroke-opacity:1; fill:none" points="2294.94,1423.18 2294.94,1404.28 "/>
<path clip-path="url(#clip020)" d="M637.658 1481.64 L653.978 1481.64 L653.978 1485.58 L632.033 1485.58 L632.033 1481.64 Q634.695 1478.89 639.279 1474.26 Q643.885 1469.61 645.066 1468.27 Q647.311 1465.74 648.191 1464.01 Q649.093 1462.25 649.093 1460.56 Q649.093 1457.8 647.149 1456.07 Q645.228 1454.33 642.126 1454.33 Q639.927 1454.33 637.473 1455.09 Q635.043 1455.86 632.265 1457.41 L632.265 1452.69 Q635.089 1451.55 637.543 1450.97 Q639.996 1450.39 642.033 1450.39 Q647.404 1450.39 650.598 1453.08 Q653.793 1455.77 653.793 1460.26 Q653.793 1462.39 652.982 1464.31 Q652.195 1466.2 650.089 1468.8 Q649.51 1469.47 646.408 1472.69 Q643.306 1475.88 637.658 1481.64 Z" fill="#000000" fill-rule="nonzero" fill-opacity="1" /><path clip-path="url(#clip020)" d="M1196.66 1455.09 L1184.85 1473.54 L1196.66 1473.54 L1196.66 1455.09 M1195.43 1451.02 L1201.31 1451.02 L1201.31 1473.54 L1206.24 1473.54 L1206.24 1477.43 L1201.31 1477.43 L1201.31 1485.58 L1196.66 1485.58 L1196.66 1477.43 L1181.06 1477.43 L1181.06 1472.92 L1195.43 1451.02 Z" fill="#000000" fill-rule="nonzero" fill-opacity="1" /><path clip-path="url(#clip020)" d="M1744.7 1466.44 Q1741.55 1466.44 1739.7 1468.59 Q1737.87 1470.74 1737.87 1474.49 Q1737.87 1478.22 1739.7 1480.39 Q1741.55 1482.55 1744.7 1482.55 Q1747.85 1482.55 1749.68 1480.39 Q1751.53 1478.22 1751.53 1474.49 Q1751.53 1470.74 1749.68 1468.59 Q1747.85 1466.44 1744.7 1466.44 M1753.98 1451.78 L1753.98 1456.04 Q1752.22 1455.21 1750.42 1454.77 Q1748.63 1454.33 1746.88 1454.33 Q1742.25 1454.33 1739.79 1457.45 Q1737.36 1460.58 1737.01 1466.9 Q1738.38 1464.89 1740.44 1463.82 Q1742.5 1462.73 1744.98 1462.73 Q1750.19 1462.73 1753.19 1465.9 Q1756.23 1469.05 1756.23 1474.49 Q1756.23 1479.82 1753.08 1483.03 Q1749.93 1486.25 1744.7 1486.25 Q1738.7 1486.25 1735.53 1481.67 Q1732.36 1477.06 1732.36 1468.33 Q1732.36 1460.14 1736.25 1455.28 Q1740.14 1450.39 1746.69 1450.39 Q1748.45 1450.39 1750.23 1450.74 Q1752.04 1451.09 1753.98 1451.78 Z" fill="#000000" fill-rule="nonzero" fill-opacity="1" /><path clip-path="url(#clip020)" d="M2294.94 1469.17 Q2291.6 1469.17 2289.68 1470.95 Q2287.79 1472.73 2287.79 1475.86 Q2287.79 1478.98 2289.68 1480.77 Q2291.6 1482.55 2294.94 1482.55 Q2298.27 1482.55 2300.19 1480.77 Q2302.11 1478.96 2302.11 1475.86 Q2302.11 1472.73 2300.19 1470.95 Q2298.29 1469.17 2294.94 1469.17 M2290.26 1467.18 Q2287.25 1466.44 2285.56 1464.38 Q2283.9 1462.32 2283.9 1459.35 Q2283.9 1455.21 2286.84 1452.8 Q2289.8 1450.39 2294.94 1450.39 Q2300.1 1450.39 2303.04 1452.8 Q2305.98 1455.21 2305.98 1459.35 Q2305.98 1462.32 2304.29 1464.38 Q2302.62 1466.44 2299.64 1467.18 Q2303.02 1467.96 2304.89 1470.26 Q2306.79 1472.55 2306.79 1475.86 Q2306.79 1480.88 2303.71 1483.57 Q2300.66 1486.25 2294.94 1486.25 Q2289.22 1486.25 2286.14 1483.57 Q2283.09 1480.88 2283.09 1475.86 Q2283.09 1472.55 2284.98 1470.26 Q2286.88 1467.96 2290.26 1467.18 M2288.55 1459.79 Q2288.55 1462.48 2290.22 1463.98 Q2291.91 1465.49 2294.94 1465.49 Q2297.95 1465.49 2299.64 1463.98 Q2301.35 1462.48 2301.35 1459.79 Q2301.35 1457.11 2299.64 1455.6 Q2297.95 1454.1 2294.94 1454.1 Q2291.91 1454.1 2290.22 1455.6 Q2288.55 1457.11 2288.55 1459.79 Z" fill="#000000" fill-rule="nonzero" fill-opacity="1" /><path clip-path="url(#clip020)" d="M1271.03 1525.81 L1271.03 1562.76 L1278.79 1562.76 Q1288.63 1562.76 1293.18 1558.3 Q1297.76 1553.85 1297.76 1544.24 Q1297.76 1534.69 1293.18 1530.26 Q1288.63 1525.81 1278.79 1525.81 L1271.03 1525.81 M1264.6 1520.52 L1277.81 1520.52 Q1291.62 1520.52 1298.08 1526.28 Q1304.54 1532.01 1304.54 1544.24 Q1304.54 1556.52 1298.05 1562.28 Q1291.56 1568.04 1277.81 1568.04 L1264.6 1568.04 L1264.6 1520.52 Z" fill="#000000" fill-rule="nonzero" fill-opacity="1" /><path clip-path="url(#clip020)" d="M1314.54 1532.4 L1320.39 1532.4 L1320.39 1568.04 L1314.54 1568.04 L1314.54 1532.4 M1314.54 1518.52 L1320.39 1518.52 L1320.39 1525.93 L1314.54 1525.93 L1314.54 1518.52 Z" fill="#000000" fill-rule="nonzero" fill-opacity="1" /><path clip-path="url(#clip020)" d="M1355.37 1533.45 L1355.37 1538.98 Q1352.89 1537.71 1350.22 1537.07 Q1347.54 1536.44 1344.68 1536.44 Q1340.32 1536.44 1338.12 1537.77 Q1335.96 1539.11 1335.96 1541.79 Q1335.96 1543.82 1337.52 1545 Q1339.08 1546.15 1343.79 1547.2 L1345.79 1547.64 Q1352.03 1548.98 1354.64 1551.43 Q1357.28 1553.85 1357.28 1558.21 Q1357.28 1563.17 1353.34 1566.07 Q1349.42 1568.97 1342.55 1568.97 Q1339.68 1568.97 1336.56 1568.39 Q1333.48 1567.85 1330.04 1566.74 L1330.04 1560.69 Q1333.28 1562.38 1336.44 1563.24 Q1339.59 1564.07 1342.67 1564.07 Q1346.81 1564.07 1349.04 1562.66 Q1351.27 1561.23 1351.27 1558.65 Q1351.27 1556.27 1349.64 1554.99 Q1348.05 1553.72 1342.61 1552.54 L1340.57 1552.07 Q1335.13 1550.92 1332.71 1548.56 Q1330.29 1546.18 1330.29 1542.04 Q1330.29 1537.01 1333.86 1534.27 Q1337.42 1531.54 1343.98 1531.54 Q1347.23 1531.54 1350.09 1532.01 Q1352.95 1532.49 1355.37 1533.45 Z" fill="#000000" fill-rule="nonzero" fill-opacity="1" /><path clip-path="url(#clip020)" d="M1366.39 1518.52 L1372.27 1518.52 L1372.27 1547.77 L1389.75 1532.4 L1397.23 1532.4 L1378.32 1549.07 L1398.02 1568.04 L1390.38 1568.04 L1372.27 1550.63 L1372.27 1568.04 L1366.39 1568.04 L1366.39 1518.52 Z" fill="#000000" fill-rule="nonzero" fill-opacity="1" /><polyline clip-path="url(#clip022)" style="stroke:#000000; stroke-linecap:round; stroke-linejoin:round; stroke-width:2; stroke-opacity:0.1; fill:none" points="309.866,1313.41 2352.76,1313.41 "/>
<polyline clip-path="url(#clip022)" style="stroke:#000000; stroke-linecap:round; stroke-linejoin:round; stroke-width:2; stroke-opacity:0.1; fill:none" points="309.866,945.923 2352.76,945.923 "/>
<polyline clip-path="url(#clip022)" style="stroke:#000000; stroke-linecap:round; stroke-linejoin:round; stroke-width:2; stroke-opacity:0.1; fill:none" points="309.866,578.433 2352.76,578.433 "/>
<polyline clip-path="url(#clip022)" style="stroke:#000000; stroke-linecap:round; stroke-linejoin:round; stroke-width:2; stroke-opacity:0.1; fill:none" points="309.866,210.943 2352.76,210.943 "/>
<polyline clip-path="url(#clip020)" style="stroke:#000000; stroke-linecap:round; stroke-linejoin:round; stroke-width:4; stroke-opacity:1; fill:none" points="309.866,1423.18 309.866,123.472 "/>
<polyline clip-path="url(#clip020)" style="stroke:#000000; stroke-linecap:round; stroke-linejoin:round; stroke-width:4; stroke-opacity:1; fill:none" points="309.866,1313.41 328.763,1313.41 "/>
<polyline clip-path="url(#clip020)" style="stroke:#000000; stroke-linecap:round; stroke-linejoin:round; stroke-width:4; stroke-opacity:1; fill:none" points="309.866,945.923 328.763,945.923 "/>
<polyline clip-path="url(#clip020)" style="stroke:#000000; stroke-linecap:round; stroke-linejoin:round; stroke-width:4; stroke-opacity:1; fill:none" points="309.866,578.433 328.763,578.433 "/>
<polyline clip-path="url(#clip020)" style="stroke:#000000; stroke-linecap:round; stroke-linejoin:round; stroke-width:4; stroke-opacity:1; fill:none" points="309.866,210.943 328.763,210.943 "/>
<path clip-path="url(#clip020)" d="M126.205 1299.21 Q122.593 1299.21 120.765 1302.78 Q118.959 1306.32 118.959 1313.45 Q118.959 1320.55 120.765 1324.12 Q122.593 1327.66 126.205 1327.66 Q129.839 1327.66 131.644 1324.12 Q133.473 1320.55 133.473 1313.45 Q133.473 1306.32 131.644 1302.78 Q129.839 1299.21 126.205 1299.21 M126.205 1295.51 Q132.015 1295.51 135.07 1300.11 Q138.149 1304.7 138.149 1313.45 Q138.149 1322.17 135.07 1326.78 Q132.015 1331.36 126.205 1331.36 Q120.394 1331.36 117.316 1326.78 Q114.26 1322.17 114.26 1313.45 Q114.26 1304.7 117.316 1300.11 Q120.394 1295.51 126.205 1295.51 Z" fill="#000000" fill-rule="nonzero" fill-opacity="1" /><path clip-path="url(#clip020)" d="M146.366 1324.81 L151.251 1324.81 L151.251 1330.69 L146.366 1330.69 L146.366 1324.81 Z" fill="#000000" fill-rule="nonzero" fill-opacity="1" /><path clip-path="url(#clip020)" d="M171.436 1299.21 Q167.825 1299.21 165.996 1302.78 Q164.19 1306.32 164.19 1313.45 Q164.19 1320.55 165.996 1324.12 Q167.825 1327.66 171.436 1327.66 Q175.07 1327.66 176.876 1324.12 Q178.704 1320.55 178.704 1313.45 Q178.704 1306.32 176.876 1302.78 Q175.07 1299.21 171.436 1299.21 M171.436 1295.51 Q177.246 1295.51 180.301 1300.11 Q183.38 1304.7 183.38 1313.45 Q183.38 1322.17 180.301 1326.78 Q177.246 1331.36 171.436 1331.36 Q165.626 1331.36 162.547 1326.78 Q159.491 1322.17 159.491 1313.45 Q159.491 1304.7 162.547 1300.11 Q165.626 1295.51 171.436 1295.51 Z" fill="#000000" fill-rule="nonzero" fill-opacity="1" /><path clip-path="url(#clip020)" d="M201.598 1299.21 Q197.987 1299.21 196.158 1302.78 Q194.352 1306.32 194.352 1313.45 Q194.352 1320.55 196.158 1324.12 Q197.987 1327.66 201.598 1327.66 Q205.232 1327.66 207.037 1324.12 Q208.866 1320.55 208.866 1313.45 Q208.866 1306.32 207.037 1302.78 Q205.232 1299.21 201.598 1299.21 M201.598 1295.51 Q207.408 1295.51 210.463 1300.11 Q213.542 1304.7 213.542 1313.45 Q213.542 1322.17 210.463 1326.78 Q207.408 1331.36 201.598 1331.36 Q195.787 1331.36 192.709 1326.78 Q189.653 1322.17 189.653 1313.45 Q189.653 1304.7 192.709 1300.11 Q195.787 1295.51 201.598 1295.51 Z" fill="#000000" fill-rule="nonzero" fill-opacity="1" /><path clip-path="url(#clip020)" d="M221.898 1329.98 L221.898 1325.72 Q223.658 1326.55 225.463 1326.99 Q227.269 1327.43 229.005 1327.43 Q233.635 1327.43 236.065 1324.33 Q238.519 1321.2 238.866 1314.86 Q237.523 1316.85 235.463 1317.92 Q233.403 1318.98 230.903 1318.98 Q225.718 1318.98 222.686 1315.86 Q219.676 1312.71 219.676 1307.27 Q219.676 1301.94 222.824 1298.73 Q225.973 1295.51 231.204 1295.51 Q237.199 1295.51 240.347 1300.11 Q243.519 1304.7 243.519 1313.45 Q243.519 1321.62 239.63 1326.5 Q235.764 1331.36 229.213 1331.36 Q227.454 1331.36 225.648 1331.02 Q223.843 1330.67 221.898 1329.98 M231.204 1315.32 Q234.352 1315.32 236.181 1313.17 Q238.033 1311.02 238.033 1307.27 Q238.033 1303.54 236.181 1301.39 Q234.352 1299.21 231.204 1299.21 Q228.056 1299.21 226.204 1301.39 Q224.375 1303.54 224.375 1307.27 Q224.375 1311.02 226.204 1313.17 Q228.056 1315.32 231.204 1315.32 Z" fill="#000000" fill-rule="nonzero" fill-opacity="1" /><path clip-path="url(#clip020)" d="M261.921 1299.21 Q258.31 1299.21 256.482 1302.78 Q254.676 1306.32 254.676 1313.45 Q254.676 1320.55 256.482 1324.12 Q258.31 1327.66 261.921 1327.66 Q265.556 1327.66 267.361 1324.12 Q269.19 1320.55 269.19 1313.45 Q269.19 1306.32 267.361 1302.78 Q265.556 1299.21 261.921 1299.21 M261.921 1295.51 Q267.732 1295.51 270.787 1300.11 Q273.866 1304.7 273.866 1313.45 Q273.866 1322.17 270.787 1326.78 Q267.732 1331.36 261.921 1331.36 Q256.111 1331.36 253.033 1326.78 Q249.977 1322.17 249.977 1313.45 Q249.977 1304.7 253.033 1300.11 Q256.111 1295.51 261.921 1295.51 Z" fill="#000000" fill-rule="nonzero" fill-opacity="1" /><path clip-path="url(#clip020)" d="M127.2 931.722 Q123.589 931.722 121.76 935.287 Q119.955 938.828 119.955 945.958 Q119.955 953.064 121.76 956.629 Q123.589 960.171 127.2 960.171 Q130.834 960.171 132.64 956.629 Q134.468 953.064 134.468 945.958 Q134.468 938.828 132.64 935.287 Q130.834 931.722 127.2 931.722 M127.2 928.018 Q133.01 928.018 136.066 932.625 Q139.144 937.208 139.144 945.958 Q139.144 954.685 136.066 959.291 Q133.01 963.874 127.2 963.874 Q121.39 963.874 118.311 959.291 Q115.256 954.685 115.256 945.958 Q115.256 937.208 118.311 932.625 Q121.39 928.018 127.2 928.018 Z" fill="#000000" fill-rule="nonzero" fill-opacity="1" /><path clip-path="url(#clip020)" d="M147.362 957.324 L152.246 957.324 L152.246 963.203 L147.362 963.203 L147.362 957.324 Z" fill="#000000" fill-rule="nonzero" fill-opacity="1" /><path clip-path="url(#clip020)" d="M172.431 931.722 Q168.82 931.722 166.991 935.287 Q165.186 938.828 165.186 945.958 Q165.186 953.064 166.991 956.629 Q168.82 960.171 172.431 960.171 Q176.065 960.171 177.871 956.629 Q179.7 953.064 179.7 945.958 Q179.7 938.828 177.871 935.287 Q176.065 931.722 172.431 931.722 M172.431 928.018 Q178.241 928.018 181.297 932.625 Q184.376 937.208 184.376 945.958 Q184.376 954.685 181.297 959.291 Q178.241 963.874 172.431 963.874 Q166.621 963.874 163.542 959.291 Q160.487 954.685 160.487 945.958 Q160.487 937.208 163.542 932.625 Q166.621 928.018 172.431 928.018 Z" fill="#000000" fill-rule="nonzero" fill-opacity="1" /><path clip-path="url(#clip020)" d="M202.593 931.722 Q198.982 931.722 197.153 935.287 Q195.348 938.828 195.348 945.958 Q195.348 953.064 197.153 956.629 Q198.982 960.171 202.593 960.171 Q206.227 960.171 208.033 956.629 Q209.861 953.064 209.861 945.958 Q209.861 938.828 208.033 935.287 Q206.227 931.722 202.593 931.722 M202.593 928.018 Q208.403 928.018 211.459 932.625 Q214.537 937.208 214.537 945.958 Q214.537 954.685 211.459 959.291 Q208.403 963.874 202.593 963.874 Q196.783 963.874 193.704 959.291 Q190.649 954.685 190.649 945.958 Q190.649 937.208 193.704 932.625 Q196.783 928.018 202.593 928.018 Z" fill="#000000" fill-rule="nonzero" fill-opacity="1" /><path clip-path="url(#clip020)" d="M222.894 962.486 L222.894 958.226 Q224.653 959.06 226.459 959.499 Q228.264 959.939 230 959.939 Q234.63 959.939 237.06 956.837 Q239.514 953.712 239.861 947.37 Q238.519 949.361 236.459 950.425 Q234.398 951.49 231.898 951.49 Q226.713 951.49 223.681 948.365 Q220.672 945.217 220.672 939.777 Q220.672 934.453 223.82 931.236 Q226.968 928.018 232.199 928.018 Q238.195 928.018 241.343 932.625 Q244.514 937.208 244.514 945.958 Q244.514 954.129 240.625 959.013 Q236.76 963.874 230.209 963.874 Q228.449 963.874 226.644 963.527 Q224.838 963.18 222.894 962.486 M232.199 947.833 Q235.347 947.833 237.176 945.68 Q239.028 943.527 239.028 939.777 Q239.028 936.05 237.176 933.898 Q235.347 931.722 232.199 931.722 Q229.051 931.722 227.199 933.898 Q225.371 936.05 225.371 939.777 Q225.371 943.527 227.199 945.68 Q229.051 947.833 232.199 947.833 Z" fill="#000000" fill-rule="nonzero" fill-opacity="1" /><path clip-path="url(#clip020)" d="M252.963 928.643 L271.32 928.643 L271.32 932.578 L257.246 932.578 L257.246 941.05 Q258.264 940.703 259.283 940.541 Q260.301 940.356 261.32 940.356 Q267.107 940.356 270.486 943.527 Q273.866 946.699 273.866 952.115 Q273.866 957.694 270.394 960.796 Q266.921 963.874 260.602 963.874 Q258.426 963.874 256.158 963.504 Q253.912 963.134 251.505 962.393 L251.505 957.694 Q253.588 958.828 255.81 959.384 Q258.033 959.939 260.509 959.939 Q264.514 959.939 266.852 957.833 Q269.19 955.726 269.19 952.115 Q269.19 948.504 266.852 946.398 Q264.514 944.291 260.509 944.291 Q258.634 944.291 256.759 944.708 Q254.908 945.124 252.963 946.004 L252.963 928.643 Z" fill="#000000" fill-rule="nonzero" fill-opacity="1" /><path clip-path="url(#clip020)" d="M126.205 564.232 Q122.593 564.232 120.765 567.796 Q118.959 571.338 118.959 578.468 Q118.959 585.574 120.765 589.139 Q122.593 592.681 126.205 592.681 Q129.839 592.681 131.644 589.139 Q133.473 585.574 133.473 578.468 Q133.473 571.338 131.644 567.796 Q129.839 564.232 126.205 564.232 M126.205 560.528 Q132.015 560.528 135.07 565.134 Q138.149 569.718 138.149 578.468 Q138.149 587.195 135.07 591.801 Q132.015 596.384 126.205 596.384 Q120.394 596.384 117.316 591.801 Q114.26 587.195 114.26 578.468 Q114.26 569.718 117.316 565.134 Q120.394 560.528 126.205 560.528 Z" fill="#000000" fill-rule="nonzero" fill-opacity="1" /><path clip-path="url(#clip020)" d="M146.366 589.833 L151.251 589.833 L151.251 595.713 L146.366 595.713 L146.366 589.833 Z" fill="#000000" fill-rule="nonzero" fill-opacity="1" /><path clip-path="url(#clip020)" d="M171.436 564.232 Q167.825 564.232 165.996 567.796 Q164.19 571.338 164.19 578.468 Q164.19 585.574 165.996 589.139 Q167.825 592.681 171.436 592.681 Q175.07 592.681 176.876 589.139 Q178.704 585.574 178.704 578.468 Q178.704 571.338 176.876 567.796 Q175.07 564.232 171.436 564.232 M171.436 560.528 Q177.246 560.528 180.301 565.134 Q183.38 569.718 183.38 578.468 Q183.38 587.195 180.301 591.801 Q177.246 596.384 171.436 596.384 Q165.626 596.384 162.547 591.801 Q159.491 587.195 159.491 578.468 Q159.491 569.718 162.547 565.134 Q165.626 560.528 171.436 560.528 Z" fill="#000000" fill-rule="nonzero" fill-opacity="1" /><path clip-path="url(#clip020)" d="M192.408 591.778 L200.047 591.778 L200.047 565.412 L191.737 567.079 L191.737 562.82 L200 561.153 L204.676 561.153 L204.676 591.778 L212.315 591.778 L212.315 595.713 L192.408 595.713 L192.408 591.778 Z" fill="#000000" fill-rule="nonzero" fill-opacity="1" /><path clip-path="url(#clip020)" d="M231.76 564.232 Q228.148 564.232 226.32 567.796 Q224.514 571.338 224.514 578.468 Q224.514 585.574 226.32 589.139 Q228.148 592.681 231.76 592.681 Q235.394 592.681 237.199 589.139 Q239.028 585.574 239.028 578.468 Q239.028 571.338 237.199 567.796 Q235.394 564.232 231.76 564.232 M231.76 560.528 Q237.57 560.528 240.625 565.134 Q243.704 569.718 243.704 578.468 Q243.704 587.195 240.625 591.801 Q237.57 596.384 231.76 596.384 Q225.949 596.384 222.871 591.801 Q219.815 587.195 219.815 578.468 Q219.815 569.718 222.871 565.134 Q225.949 560.528 231.76 560.528 Z" fill="#000000" fill-rule="nonzero" fill-opacity="1" /><path clip-path="url(#clip020)" d="M261.921 564.232 Q258.31 564.232 256.482 567.796 Q254.676 571.338 254.676 578.468 Q254.676 585.574 256.482 589.139 Q258.31 592.681 261.921 592.681 Q265.556 592.681 267.361 589.139 Q269.19 585.574 269.19 578.468 Q269.19 571.338 267.361 567.796 Q265.556 564.232 261.921 564.232 M261.921 560.528 Q267.732 560.528 270.787 565.134 Q273.866 569.718 273.866 578.468 Q273.866 587.195 270.787 591.801 Q267.732 596.384 261.921 596.384 Q256.111 596.384 253.033 591.801 Q249.977 587.195 249.977 578.468 Q249.977 569.718 253.033 565.134 Q256.111 560.528 261.921 560.528 Z" fill="#000000" fill-rule="nonzero" fill-opacity="1" /><path clip-path="url(#clip020)" d="M127.2 196.742 Q123.589 196.742 121.76 200.306 Q119.955 203.848 119.955 210.978 Q119.955 218.084 121.76 221.649 Q123.589 225.191 127.2 225.191 Q130.834 225.191 132.64 221.649 Q134.468 218.084 134.468 210.978 Q134.468 203.848 132.64 200.306 Q130.834 196.742 127.2 196.742 M127.2 193.038 Q133.01 193.038 136.066 197.644 Q139.144 202.228 139.144 210.978 Q139.144 219.704 136.066 224.311 Q133.01 228.894 127.2 228.894 Q121.39 228.894 118.311 224.311 Q115.256 219.704 115.256 210.978 Q115.256 202.228 118.311 197.644 Q121.39 193.038 127.2 193.038 Z" fill="#000000" fill-rule="nonzero" fill-opacity="1" /><path clip-path="url(#clip020)" d="M147.362 222.343 L152.246 222.343 L152.246 228.223 L147.362 228.223 L147.362 222.343 Z" fill="#000000" fill-rule="nonzero" fill-opacity="1" /><path clip-path="url(#clip020)" d="M172.431 196.742 Q168.82 196.742 166.991 200.306 Q165.186 203.848 165.186 210.978 Q165.186 218.084 166.991 221.649 Q168.82 225.191 172.431 225.191 Q176.065 225.191 177.871 221.649 Q179.7 218.084 179.7 210.978 Q179.7 203.848 177.871 200.306 Q176.065 196.742 172.431 196.742 M172.431 193.038 Q178.241 193.038 181.297 197.644 Q184.376 202.228 184.376 210.978 Q184.376 219.704 181.297 224.311 Q178.241 228.894 172.431 228.894 Q166.621 228.894 163.542 224.311 Q160.487 219.704 160.487 210.978 Q160.487 202.228 163.542 197.644 Q166.621 193.038 172.431 193.038 Z" fill="#000000" fill-rule="nonzero" fill-opacity="1" /><path clip-path="url(#clip020)" d="M193.403 224.288 L201.042 224.288 L201.042 197.922 L192.732 199.589 L192.732 195.33 L200.996 193.663 L205.672 193.663 L205.672 224.288 L213.311 224.288 L213.311 228.223 L193.403 228.223 L193.403 224.288 Z" fill="#000000" fill-rule="nonzero" fill-opacity="1" /><path clip-path="url(#clip020)" d="M232.755 196.742 Q229.144 196.742 227.315 200.306 Q225.51 203.848 225.51 210.978 Q225.51 218.084 227.315 221.649 Q229.144 225.191 232.755 225.191 Q236.389 225.191 238.195 221.649 Q240.023 218.084 240.023 210.978 Q240.023 203.848 238.195 200.306 Q236.389 196.742 232.755 196.742 M232.755 193.038 Q238.565 193.038 241.621 197.644 Q244.699 202.228 244.699 210.978 Q244.699 219.704 241.621 224.311 Q238.565 228.894 232.755 228.894 Q226.945 228.894 223.866 224.311 Q220.811 219.704 220.811 210.978 Q220.811 202.228 223.866 197.644 Q226.945 193.038 232.755 193.038 Z" fill="#000000" fill-rule="nonzero" fill-opacity="1" /><path clip-path="url(#clip020)" d="M252.963 193.663 L271.32 193.663 L271.32 197.598 L257.246 197.598 L257.246 206.07 Q258.264 205.723 259.283 205.561 Q260.301 205.376 261.32 205.376 Q267.107 205.376 270.486 208.547 Q273.866 211.718 273.866 217.135 Q273.866 222.714 270.394 225.816 Q266.921 228.894 260.602 228.894 Q258.426 228.894 256.158 228.524 Q253.912 228.153 251.505 227.413 L251.505 222.714 Q253.588 223.848 255.81 224.403 Q258.033 224.959 260.509 224.959 Q264.514 224.959 266.852 222.853 Q269.19 220.746 269.19 217.135 Q269.19 213.524 266.852 211.417 Q264.514 209.311 260.509 209.311 Q258.634 209.311 256.759 209.728 Q254.908 210.144 252.963 211.024 L252.963 193.663 Z" fill="#000000" fill-rule="nonzero" fill-opacity="1" /><path clip-path="url(#clip020)" d="M33.7671 788.508 L14.479 788.508 L14.479 782.652 L64.0042 782.652 L64.0042 788.508 L58.657 788.508 Q61.8398 790.354 63.3994 793.187 Q64.9272 795.988 64.9272 799.935 Q64.9272 806.396 59.771 810.47 Q54.6147 814.512 46.212 814.512 Q37.8093 814.512 32.6531 810.47 Q27.4968 806.396 27.4968 799.935 Q27.4968 795.988 29.0564 793.187 Q30.5842 790.354 33.7671 788.508 M46.212 808.465 Q52.6732 808.465 56.3653 805.823 Q60.0256 803.149 60.0256 798.502 Q60.0256 793.855 56.3653 791.182 Q52.6732 788.508 46.212 788.508 Q39.7508 788.508 36.0905 791.182 Q32.3984 793.855 32.3984 798.502 Q32.3984 803.149 36.0905 805.823 Q39.7508 808.465 46.212 808.465 Z" fill="#000000" fill-rule="nonzero" fill-opacity="1" /><path clip-path="url(#clip020)" d="M74.8259 743.503 L79.3773 743.503 L79.3773 777.368 L74.8259 777.368 L74.8259 743.503 Z" fill="#000000" fill-rule="nonzero" fill-opacity="1" /><path clip-path="url(#clip020)" d="M28.3562 737.996 L28.3562 732.14 L64.0042 732.14 L64.0042 737.996 L28.3562 737.996 M14.479 737.996 L14.479 732.14 L21.895 732.14 L21.895 737.996 L14.479 737.996 Z" fill="#000000" fill-rule="nonzero" fill-opacity="1" /><path clip-path="url(#clip020)" d="M1031.24 12.096 L1066 12.096 L1066 18.9825 L1039.42 18.9825 L1039.42 36.8065 L1063.4 36.8065 L1063.4 43.6931 L1039.42 43.6931 L1039.42 72.576 L1031.24 72.576 L1031.24 12.096 Z" fill="#000000" fill-rule="nonzero" fill-opacity="1" /><path clip-path="url(#clip020)" d="M1072.6 27.2059 L1080.05 27.2059 L1080.05 72.576 L1072.6 72.576 L1072.6 27.2059 M1072.6 9.54393 L1080.05 9.54393 L1080.05 18.9825 L1072.6 18.9825 L1072.6 9.54393 Z" fill="#000000" fill-rule="nonzero" fill-opacity="1" /><path clip-path="url(#clip020)" d="M1133.36 45.1919 L1133.36 72.576 L1125.91 72.576 L1125.91 45.4349 Q1125.91 38.994 1123.4 35.7938 Q1120.89 32.5936 1115.86 32.5936 Q1109.83 32.5936 1106.34 36.4419 Q1102.86 40.2903 1102.86 46.9338 L1102.86 72.576 L1095.37 72.576 L1095.37 27.2059 L1102.86 27.2059 L1102.86 34.2544 Q1105.53 30.163 1109.14 28.1376 Q1112.78 26.1121 1117.52 26.1121 Q1125.34 26.1121 1129.35 30.9732 Q1133.36 35.7938 1133.36 45.1919 Z" fill="#000000" fill-rule="nonzero" fill-opacity="1" /><path clip-path="url(#clip020)" d="M1168.85 49.7694 Q1159.82 49.7694 1156.33 51.8354 Q1152.85 53.9013 1152.85 58.8839 Q1152.85 62.8538 1155.44 65.2034 Q1158.07 67.5124 1162.57 67.5124 Q1168.77 67.5124 1172.5 63.1374 Q1176.26 58.7219 1176.26 51.4303 L1176.26 49.7694 L1168.85 49.7694 M1183.72 46.6907 L1183.72 72.576 L1176.26 72.576 L1176.26 65.6895 Q1173.71 69.8214 1169.9 71.8063 Q1166.09 73.7508 1160.59 73.7508 Q1153.62 73.7508 1149.49 69.8619 Q1145.39 65.9325 1145.39 59.3701 Q1145.39 51.7138 1150.5 47.825 Q1155.64 43.9361 1165.81 43.9361 L1176.26 43.9361 L1176.26 43.2069 Q1176.26 38.0623 1172.86 35.2672 Q1169.5 32.4315 1163.38 32.4315 Q1159.49 32.4315 1155.81 33.3632 Q1152.12 34.295 1148.72 36.1584 L1148.72 29.2718 Q1152.81 27.692 1156.66 26.9223 Q1160.5 26.1121 1164.15 26.1121 Q1173.99 26.1121 1178.86 31.2163 Q1183.72 36.3204 1183.72 46.6907 Z" fill="#000000" fill-rule="nonzero" fill-opacity="1" /><path clip-path="url(#clip020)" d="M1199.07 9.54393 L1206.52 9.54393 L1206.52 72.576 L1199.07 72.576 L1199.07 9.54393 Z" fill="#000000" fill-rule="nonzero" fill-opacity="1" /><path clip-path="url(#clip020)" d="M1278.35 34.0924 L1278.35 9.54393 L1285.8 9.54393 L1285.8 72.576 L1278.35 72.576 L1278.35 65.7705 Q1276 69.8214 1272.39 71.8063 Q1268.83 73.7508 1263.8 73.7508 Q1255.58 73.7508 1250.39 67.1883 Q1245.25 60.6258 1245.25 49.9314 Q1245.25 39.2371 1250.39 32.6746 Q1255.58 26.1121 1263.8 26.1121 Q1268.83 26.1121 1272.39 28.0971 Q1276 30.0415 1278.35 34.0924 M1252.95 49.9314 Q1252.95 58.1548 1256.31 62.8538 Q1259.71 67.5124 1265.63 67.5124 Q1271.54 67.5124 1274.94 62.8538 Q1278.35 58.1548 1278.35 49.9314 Q1278.35 41.7081 1274.94 37.0496 Q1271.54 32.3505 1265.63 32.3505 Q1259.71 32.3505 1256.31 37.0496 Q1252.95 41.7081 1252.95 49.9314 Z" fill="#000000" fill-rule="nonzero" fill-opacity="1" /><path clip-path="url(#clip020)" d="M1301.15 27.2059 L1308.61 27.2059 L1308.61 72.576 L1301.15 72.576 L1301.15 27.2059 M1301.15 9.54393 L1308.61 9.54393 L1308.61 18.9825 L1301.15 18.9825 L1301.15 9.54393 Z" fill="#000000" fill-rule="nonzero" fill-opacity="1" /><path clip-path="url(#clip020)" d="M1353.12 28.5427 L1353.12 35.5912 Q1349.97 33.9709 1346.56 33.1607 Q1343.16 32.3505 1339.51 32.3505 Q1333.96 32.3505 1331.17 34.0519 Q1328.41 35.7533 1328.41 39.156 Q1328.41 41.7486 1330.4 43.2475 Q1332.38 44.7058 1338.38 46.0426 L1340.93 46.6097 Q1348.87 48.3111 1352.19 51.4303 Q1355.56 54.509 1355.56 60.0587 Q1355.56 66.3781 1350.53 70.0644 Q1345.55 73.7508 1336.8 73.7508 Q1333.15 73.7508 1329.18 73.0216 Q1325.25 72.3329 1320.88 70.9151 L1320.88 63.2184 Q1325.01 65.3654 1329.02 66.4591 Q1333.03 67.5124 1336.96 67.5124 Q1342.23 67.5124 1345.06 65.73 Q1347.9 63.9071 1347.9 60.6258 Q1347.9 57.5877 1345.83 55.9673 Q1343.81 54.3469 1336.88 52.8481 L1334.29 52.2405 Q1327.36 50.7821 1324.28 47.7845 Q1321.2 44.7463 1321.2 39.4801 Q1321.2 33.0797 1325.74 29.5959 Q1330.28 26.1121 1338.62 26.1121 Q1342.75 26.1121 1346.4 26.7198 Q1350.05 27.3274 1353.12 28.5427 Z" fill="#000000" fill-rule="nonzero" fill-opacity="1" /><path clip-path="url(#clip020)" d="M1374.8 14.324 L1374.8 27.2059 L1390.15 27.2059 L1390.15 32.9987 L1374.8 32.9987 L1374.8 57.6282 Q1374.8 63.1779 1376.3 64.7578 Q1377.84 66.3376 1382.49 66.3376 L1390.15 66.3376 L1390.15 72.576 L1382.49 72.576 Q1373.87 72.576 1370.58 69.3758 Q1367.3 66.1351 1367.3 57.6282 L1367.3 32.9987 L1361.83 32.9987 L1361.83 27.2059 L1367.3 27.2059 L1367.3 14.324 L1374.8 14.324 Z" fill="#000000" fill-rule="nonzero" fill-opacity="1" /><path clip-path="url(#clip020)" d="M1420.57 49.7694 Q1411.54 49.7694 1408.06 51.8354 Q1404.57 53.9013 1404.57 58.8839 Q1404.57 62.8538 1407.16 65.2034 Q1409.8 67.5124 1414.29 67.5124 Q1420.49 67.5124 1424.22 63.1374 Q1427.99 58.7219 1427.99 51.4303 L1427.99 49.7694 L1420.57 49.7694 M1435.44 46.6907 L1435.44 72.576 L1427.99 72.576 L1427.99 65.6895 Q1425.43 69.8214 1421.63 71.8063 Q1417.82 73.7508 1412.31 73.7508 Q1405.34 73.7508 1401.21 69.8619 Q1397.12 65.9325 1397.12 59.3701 Q1397.12 51.7138 1402.22 47.825 Q1407.37 43.9361 1417.53 43.9361 L1427.99 43.9361 L1427.99 43.2069 Q1427.99 38.0623 1424.58 35.2672 Q1421.22 32.4315 1415.1 32.4315 Q1411.21 32.4315 1407.53 33.3632 Q1403.84 34.295 1400.44 36.1584 L1400.44 29.2718 Q1404.53 27.692 1408.38 26.9223 Q1412.23 26.1121 1415.87 26.1121 Q1425.72 26.1121 1430.58 31.2163 Q1435.44 36.3204 1435.44 46.6907 Z" fill="#000000" fill-rule="nonzero" fill-opacity="1" /><path clip-path="url(#clip020)" d="M1488.51 45.1919 L1488.51 72.576 L1481.05 72.576 L1481.05 45.4349 Q1481.05 38.994 1478.54 35.7938 Q1476.03 32.5936 1471.01 32.5936 Q1464.97 32.5936 1461.49 36.4419 Q1458 40.2903 1458 46.9338 L1458 72.576 L1450.51 72.576 L1450.51 27.2059 L1458 27.2059 L1458 34.2544 Q1460.68 30.163 1464.28 28.1376 Q1467.93 26.1121 1472.67 26.1121 Q1480.49 26.1121 1484.5 30.9732 Q1488.51 35.7938 1488.51 45.1919 Z" fill="#000000" fill-rule="nonzero" fill-opacity="1" /><path clip-path="url(#clip020)" d="M1536.02 28.9478 L1536.02 35.9153 Q1532.86 34.1734 1529.66 33.3227 Q1526.5 32.4315 1523.26 32.4315 Q1516.01 32.4315 1512 37.0496 Q1507.99 41.6271 1507.99 49.9314 Q1507.99 58.2358 1512 62.8538 Q1516.01 67.4314 1523.26 67.4314 Q1526.5 67.4314 1529.66 66.5807 Q1532.86 65.6895 1536.02 63.9476 L1536.02 70.8341 Q1532.9 72.2924 1529.54 73.0216 Q1526.22 73.7508 1522.45 73.7508 Q1512.2 73.7508 1506.17 67.3098 Q1500.13 60.8689 1500.13 49.9314 Q1500.13 38.832 1506.21 32.472 Q1512.33 26.1121 1522.94 26.1121 Q1526.38 26.1121 1529.66 26.8413 Q1532.94 27.5299 1536.02 28.9478 Z" fill="#000000" fill-rule="nonzero" fill-opacity="1" /><path clip-path="url(#clip020)" d="M1587.79 48.0275 L1587.79 51.6733 L1553.52 51.6733 Q1554.01 59.3701 1558.14 63.421 Q1562.31 67.4314 1569.73 67.4314 Q1574.02 67.4314 1578.03 66.3781 Q1582.08 65.3249 1586.05 63.2184 L1586.05 70.267 Q1582.04 71.9684 1577.83 72.8596 Q1573.62 73.7508 1569.28 73.7508 Q1558.42 73.7508 1552.06 67.4314 Q1545.75 61.1119 1545.75 50.3365 Q1545.75 39.1965 1551.74 32.6746 Q1557.78 26.1121 1567.98 26.1121 Q1577.14 26.1121 1582.45 32.0264 Q1587.79 37.9003 1587.79 48.0275 M1580.34 45.84 Q1580.26 39.7232 1576.9 36.0774 Q1573.58 32.4315 1568.07 32.4315 Q1561.83 32.4315 1558.06 35.9558 Q1554.33 39.4801 1553.77 45.8805 L1580.34 45.84 Z" fill="#000000" fill-rule="nonzero" fill-opacity="1" /><path clip-path="url(#clip020)" d="M1628.95 28.5427 L1628.95 35.5912 Q1625.79 33.9709 1622.39 33.1607 Q1618.99 32.3505 1615.34 32.3505 Q1609.79 32.3505 1607 34.0519 Q1604.24 35.7533 1604.24 39.156 Q1604.24 41.7486 1606.23 43.2475 Q1608.21 44.7058 1614.21 46.0426 L1616.76 46.6097 Q1624.7 48.3111 1628.02 51.4303 Q1631.38 54.509 1631.38 60.0587 Q1631.38 66.3781 1626.36 70.0644 Q1621.38 73.7508 1612.63 73.7508 Q1608.98 73.7508 1605.01 73.0216 Q1601.08 72.3329 1596.71 70.9151 L1596.71 63.2184 Q1600.84 65.3654 1604.85 66.4591 Q1608.86 67.5124 1612.79 67.5124 Q1618.05 67.5124 1620.89 65.73 Q1623.73 63.9071 1623.73 60.6258 Q1623.73 57.5877 1621.66 55.9673 Q1619.63 54.3469 1612.71 52.8481 L1610.11 52.2405 Q1603.19 50.7821 1600.11 47.7845 Q1597.03 44.7463 1597.03 39.4801 Q1597.03 33.0797 1601.57 29.5959 Q1606.1 26.1121 1614.45 26.1121 Q1618.58 26.1121 1622.23 26.7198 Q1625.87 27.3274 1628.95 28.5427 Z" fill="#000000" fill-rule="nonzero" fill-opacity="1" /><circle clip-path="url(#clip022)" cx="367.683" cy="1386.4" r="14.4" fill="#009af9" fill-rule="evenodd" fill-opacity="1" stroke="#000000" stroke-opacity="1" stroke-width="3.2"/>
<circle clip-path="url(#clip022)" cx="643.006" cy="160.256" r="14.4" fill="#009af9" fill-rule="evenodd" fill-opacity="1" stroke="#000000" stroke-opacity="1" stroke-width="3.2"/>
<circle clip-path="url(#clip022)" cx="918.328" cy="307.586" r="14.4" fill="#009af9" fill-rule="evenodd" fill-opacity="1" stroke="#000000" stroke-opacity="1" stroke-width="3.2"/>
<circle clip-path="url(#clip022)" cx="1193.65" cy="260.821" r="14.4" fill="#009af9" fill-rule="evenodd" fill-opacity="1" stroke="#000000" stroke-opacity="1" stroke-width="3.2"/>
<circle clip-path="url(#clip022)" cx="1468.97" cy="170.645" r="14.4" fill="#009af9" fill-rule="evenodd" fill-opacity="1" stroke="#000000" stroke-opacity="1" stroke-width="3.2"/>
<circle clip-path="url(#clip022)" cx="1744.29" cy="270.551" r="14.4" fill="#009af9" fill-rule="evenodd" fill-opacity="1" stroke="#000000" stroke-opacity="1" stroke-width="3.2"/>
<circle clip-path="url(#clip022)" cx="2019.62" cy="776.601" r="14.4" fill="#009af9" fill-rule="evenodd" fill-opacity="1" stroke="#000000" stroke-opacity="1" stroke-width="3.2"/>
<circle clip-path="url(#clip022)" cx="2294.94" cy="582.603" r="14.4" fill="#009af9" fill-rule="evenodd" fill-opacity="1" stroke="#000000" stroke-opacity="1" stroke-width="3.2"/>
</svg>
