<?xml version="1.0" encoding="utf-8"?>
<svg xmlns="http://www.w3.org/2000/svg" xmlns:xlink="http://www.w3.org/1999/xlink" width="600" height="400" viewBox="0 0 2400 1600">
<defs>
  <clipPath id="clip440">
    <rect x="0" y="0" width="2400" height="1600"/>
  </clipPath>
</defs>
<path clip-path="url(#clip440)" d="M0 1600 L2400 1600 L2400 0 L0 0  Z" fill="#ffffff" fill-rule="evenodd" fill-opacity="1"/>
<defs>
  <clipPath id="clip441">
    <rect x="480" y="0" width="1681" height="1600"/>
  </clipPath>
</defs>
<path clip-path="url(#clip440)" d="M340.028 1423.18 L2352.76 1423.18 L2352.76 123.472 L340.028 123.472  Z" fill="#ffffff" fill-rule="evenodd" fill-opacity="1"/>
<defs>
  <clipPath id="clip442">
    <rect x="340" y="123" width="2014" height="1301"/>
  </clipPath>
</defs>
<polyline clip-path="url(#clip442)" style="stroke:#000000; stroke-linecap:round; stroke-linejoin:round; stroke-width:2; stroke-opacity:0.1; fill:none" points="359.016,1423.18 359.016,123.472 "/>
<polyline clip-path="url(#clip442)" style="stroke:#000000; stroke-linecap:round; stroke-linejoin:round; stroke-width:2; stroke-opacity:0.1; fill:none" points="738.776,1423.18 738.776,123.472 "/>
<polyline clip-path="url(#clip442)" style="stroke:#000000; stroke-linecap:round; stroke-linejoin:round; stroke-width:2; stroke-opacity:0.1; fill:none" points="1118.54,1423.18 1118.54,123.472 "/>
<polyline clip-path="url(#clip442)" style="stroke:#000000; stroke-linecap:round; stroke-linejoin:round; stroke-width:2; stroke-opacity:0.1; fill:none" points="1498.3,1423.18 1498.3,123.472 "/>
<polyline clip-path="url(#clip442)" style="stroke:#000000; stroke-linecap:round; stroke-linejoin:round; stroke-width:2; stroke-opacity:0.1; fill:none" points="1878.06,1423.18 1878.06,123.472 "/>
<polyline clip-path="url(#clip442)" style="stroke:#000000; stroke-linecap:round; stroke-linejoin:round; stroke-width:2; stroke-opacity:0.1; fill:none" points="2257.82,1423.18 2257.82,123.472 "/>
<polyline clip-path="url(#clip442)" style="stroke:#000000; stroke-linecap:round; stroke-linejoin:round; stroke-width:2; stroke-opacity:0.1; fill:none" points="340.028,1166.26 2352.76,1166.26 "/>
<polyline clip-path="url(#clip442)" style="stroke:#000000; stroke-linecap:round; stroke-linejoin:round; stroke-width:2; stroke-opacity:0.1; fill:none" points="340.028,881.283 2352.76,881.283 "/>
<polyline clip-path="url(#clip442)" style="stroke:#000000; stroke-linecap:round; stroke-linejoin:round; stroke-width:2; stroke-opacity:0.1; fill:none" points="340.028,596.307 2352.76,596.307 "/>
<polyline clip-path="url(#clip442)" style="stroke:#000000; stroke-linecap:round; stroke-linejoin:round; stroke-width:2; stroke-opacity:0.1; fill:none" points="340.028,311.33 2352.76,311.33 "/>
<polyline clip-path="url(#clip440)" style="stroke:#000000; stroke-linecap:round; stroke-linejoin:round; stroke-width:4; stroke-opacity:1; fill:none" points="340.028,1423.18 2352.76,1423.18 "/>
<polyline clip-path="url(#clip440)" style="stroke:#000000; stroke-linecap:round; stroke-linejoin:round; stroke-width:4; stroke-opacity:1; fill:none" points="359.016,1423.18 359.016,1404.28 "/>
<polyline clip-path="url(#clip440)" style="stroke:#000000; stroke-linecap:round; stroke-linejoin:round; stroke-width:4; stroke-opacity:1; fill:none" points="738.776,1423.18 738.776,1404.28 "/>
<polyline clip-path="url(#clip440)" style="stroke:#000000; stroke-linecap:round; stroke-linejoin:round; stroke-width:4; stroke-opacity:1; fill:none" points="1118.54,1423.18 1118.54,1404.28 "/>
<polyline clip-path="url(#clip440)" style="stroke:#000000; stroke-linecap:round; stroke-linejoin:round; stroke-width:4; stroke-opacity:1; fill:none" points="1498.3,1423.18 1498.3,1404.28 "/>
<polyline clip-path="url(#clip440)" style="stroke:#000000; stroke-linecap:round; stroke-linejoin:round; stroke-width:4; stroke-opacity:1; fill:none" points="1878.06,1423.18 1878.06,1404.28 "/>
<polyline clip-path="url(#clip440)" style="stroke:#000000; stroke-linecap:round; stroke-linejoin:round; stroke-width:4; stroke-opacity:1; fill:none" points="2257.82,1423.18 2257.82,1404.28 "/>
<path clip-path="url(#clip440)" d="M359.016 1454.1 Q355.405 1454.1 353.576 1457.66 Q351.77 1461.2 351.77 1468.33 Q351.77 1475.44 353.576 1479.01 Q355.405 1482.55 359.016 1482.55 Q362.65 1482.55 364.455 1479.01 Q366.284 1475.44 366.284 1468.33 Q366.284 1461.2 364.455 1457.66 Q362.65 1454.1 359.016 1454.1 M359.016 1450.39 Q364.826 1450.39 367.881 1455 Q370.96 1459.58 370.96 1468.33 Q370.96 1477.06 367.881 1481.67 Q364.826 1486.25 359.016 1486.25 Q353.206 1486.25 350.127 1481.67 Q347.071 1477.06 347.071 1468.33 Q347.071 1459.58 350.127 1455 Q353.206 1450.39 359.016 1450.39 Z" fill="#000000" fill-rule="nonzero" fill-opacity="1" /><path clip-path="url(#clip440)" d="M713.463 1481.64 L721.102 1481.64 L721.102 1455.28 L712.792 1456.95 L712.792 1452.69 L721.056 1451.02 L725.732 1451.02 L725.732 1481.64 L733.371 1481.64 L733.371 1485.58 L713.463 1485.58 L713.463 1481.64 Z" fill="#000000" fill-rule="nonzero" fill-opacity="1" /><path clip-path="url(#clip440)" d="M752.815 1454.1 Q749.204 1454.1 747.375 1457.66 Q745.57 1461.2 745.57 1468.33 Q745.57 1475.44 747.375 1479.01 Q749.204 1482.55 752.815 1482.55 Q756.449 1482.55 758.255 1479.01 Q760.083 1475.44 760.083 1468.33 Q760.083 1461.2 758.255 1457.66 Q756.449 1454.1 752.815 1454.1 M752.815 1450.39 Q758.625 1450.39 761.681 1455 Q764.759 1459.58 764.759 1468.33 Q764.759 1477.06 761.681 1481.67 Q758.625 1486.25 752.815 1486.25 Q747.005 1486.25 743.926 1481.67 Q740.871 1477.06 740.871 1468.33 Q740.871 1459.58 743.926 1455 Q747.005 1450.39 752.815 1450.39 Z" fill="#000000" fill-rule="nonzero" fill-opacity="1" /><path clip-path="url(#clip440)" d="M1097.31 1481.64 L1113.63 1481.64 L1113.63 1485.58 L1091.68 1485.58 L1091.68 1481.64 Q1094.35 1478.89 1098.93 1474.26 Q1103.54 1469.61 1104.72 1468.27 Q1106.96 1465.74 1107.84 1464.01 Q1108.74 1462.25 1108.74 1460.56 Q1108.74 1457.8 1106.8 1456.07 Q1104.88 1454.33 1101.78 1454.33 Q1099.58 1454.33 1097.12 1455.09 Q1094.69 1455.86 1091.92 1457.41 L1091.92 1452.69 Q1094.74 1451.55 1097.19 1450.97 Q1099.65 1450.39 1101.68 1450.39 Q1107.05 1450.39 1110.25 1453.08 Q1113.44 1455.77 1113.44 1460.26 Q1113.44 1462.39 1112.63 1464.31 Q1111.85 1466.2 1109.74 1468.8 Q1109.16 1469.47 1106.06 1472.69 Q1102.96 1475.88 1097.31 1481.64 Z" fill="#000000" fill-rule="nonzero" fill-opacity="1" /><path clip-path="url(#clip440)" d="M1133.44 1454.1 Q1129.83 1454.1 1128 1457.66 Q1126.2 1461.2 1126.2 1468.33 Q1126.2 1475.44 1128 1479.01 Q1129.83 1482.55 1133.44 1482.55 Q1137.08 1482.55 1138.88 1479.01 Q1140.71 1475.44 1140.71 1468.33 Q1140.71 1461.2 1138.88 1457.66 Q1137.08 1454.1 1133.44 1454.1 M1133.44 1450.39 Q1139.25 1450.39 1142.31 1455 Q1145.39 1459.58 1145.39 1468.33 Q1145.39 1477.06 1142.31 1481.67 Q1139.25 1486.25 1133.44 1486.25 Q1127.63 1486.25 1124.55 1481.67 Q1121.5 1477.06 1121.5 1468.33 Q1121.5 1459.58 1124.55 1455 Q1127.63 1450.39 1133.44 1450.39 Z" fill="#000000" fill-rule="nonzero" fill-opacity="1" /><path clip-path="url(#clip440)" d="M1487.14 1466.95 Q1490.49 1467.66 1492.37 1469.93 Q1494.27 1472.2 1494.27 1475.53 Q1494.27 1480.65 1490.75 1483.45 Q1487.23 1486.25 1480.75 1486.25 Q1478.57 1486.25 1476.26 1485.81 Q1473.97 1485.39 1471.51 1484.54 L1471.51 1480.02 Q1473.46 1481.16 1475.77 1481.74 Q1478.09 1482.32 1480.61 1482.32 Q1485.01 1482.32 1487.3 1480.58 Q1489.62 1478.84 1489.62 1475.53 Q1489.62 1472.48 1487.46 1470.77 Q1485.33 1469.03 1481.51 1469.03 L1477.49 1469.03 L1477.49 1465.19 L1481.7 1465.19 Q1485.15 1465.19 1486.98 1463.82 Q1488.81 1462.43 1488.81 1459.84 Q1488.81 1457.18 1486.91 1455.77 Q1485.03 1454.33 1481.51 1454.33 Q1479.59 1454.33 1477.39 1454.75 Q1475.19 1455.16 1472.56 1456.04 L1472.56 1451.88 Q1475.22 1451.14 1477.53 1450.77 Q1479.87 1450.39 1481.93 1450.39 Q1487.25 1450.39 1490.36 1452.83 Q1493.46 1455.23 1493.46 1459.35 Q1493.46 1462.22 1491.81 1464.21 Q1490.17 1466.18 1487.14 1466.95 Z" fill="#000000" fill-rule="nonzero" fill-opacity="1" /><path clip-path="url(#clip440)" d="M1513.13 1454.1 Q1509.52 1454.1 1507.69 1457.66 Q1505.89 1461.2 1505.89 1468.33 Q1505.89 1475.44 1507.69 1479.01 Q1509.52 1482.55 1513.13 1482.55 Q1516.77 1482.55 1518.57 1479.01 Q1520.4 1475.44 1520.4 1468.33 Q1520.4 1461.2 1518.57 1457.66 Q1516.77 1454.1 1513.13 1454.1 M1513.13 1450.39 Q1518.94 1450.39 1522 1455 Q1525.08 1459.58 1525.08 1468.33 Q1525.08 1477.06 1522 1481.67 Q1518.94 1486.25 1513.13 1486.25 Q1507.32 1486.25 1504.24 1481.67 Q1501.19 1477.06 1501.19 1468.33 Q1501.19 1459.58 1504.24 1455 Q1507.32 1450.39 1513.13 1450.39 Z" fill="#000000" fill-rule="nonzero" fill-opacity="1" /><path clip-path="url(#clip440)" d="M1866.23 1455.09 L1854.42 1473.54 L1866.23 1473.54 L1866.23 1455.09 M1865 1451.02 L1870.88 1451.02 L1870.88 1473.54 L1875.81 1473.54 L1875.81 1477.43 L1870.88 1477.43 L1870.88 1485.58 L1866.23 1485.58 L1866.23 1477.43 L1850.63 1477.43 L1850.63 1472.92 L1865 1451.02 Z" fill="#000000" fill-rule="nonzero" fill-opacity="1" /><path clip-path="url(#clip440)" d="M1893.54 1454.1 Q1889.93 1454.1 1888.1 1457.66 Q1886.3 1461.2 1886.3 1468.33 Q1886.3 1475.44 1888.1 1479.01 Q1889.93 1482.55 1893.54 1482.55 Q1897.18 1482.55 1898.98 1479.01 Q1900.81 1475.44 1900.81 1468.33 Q1900.81 1461.2 1898.98 1457.66 Q1897.18 1454.1 1893.54 1454.1 M1893.54 1450.39 Q1899.35 1450.39 1902.41 1455 Q1905.49 1459.58 1905.49 1468.33 Q1905.49 1477.06 1902.41 1481.67 Q1899.35 1486.25 1893.54 1486.25 Q1887.73 1486.25 1884.65 1481.67 Q1881.6 1477.06 1881.6 1468.33 Q1881.6 1459.58 1884.65 1455 Q1887.73 1450.39 1893.54 1450.39 Z" fill="#000000" fill-rule="nonzero" fill-opacity="1" /><path clip-path="url(#clip440)" d="M2232.52 1451.02 L2250.87 1451.02 L2250.87 1454.96 L2236.8 1454.96 L2236.8 1463.43 Q2237.82 1463.08 2238.83 1462.92 Q2239.85 1462.73 2240.87 1462.73 Q2246.66 1462.73 2250.04 1465.9 Q2253.42 1469.08 2253.42 1474.49 Q2253.42 1480.07 2249.95 1483.17 Q2246.47 1486.25 2240.15 1486.25 Q2237.98 1486.25 2235.71 1485.88 Q2233.46 1485.51 2231.06 1484.77 L2231.06 1480.07 Q2233.14 1481.2 2235.36 1481.76 Q2237.58 1482.32 2240.06 1482.32 Q2244.07 1482.32 2246.4 1480.21 Q2248.74 1478.1 2248.74 1474.49 Q2248.74 1470.88 2246.4 1468.77 Q2244.07 1466.67 2240.06 1466.67 Q2238.19 1466.67 2236.31 1467.08 Q2234.46 1467.5 2232.52 1468.38 L2232.52 1451.02 Z" fill="#000000" fill-rule="nonzero" fill-opacity="1" /><path clip-path="url(#clip440)" d="M2272.63 1454.1 Q2269.02 1454.1 2267.19 1457.66 Q2265.39 1461.2 2265.39 1468.33 Q2265.39 1475.44 2267.19 1479.01 Q2269.02 1482.55 2272.63 1482.55 Q2276.26 1482.55 2278.07 1479.01 Q2279.9 1475.44 2279.9 1468.33 Q2279.9 1461.2 2278.07 1457.66 Q2276.26 1454.1 2272.63 1454.1 M2272.63 1450.39 Q2278.44 1450.39 2281.5 1455 Q2284.58 1459.58 2284.58 1468.33 Q2284.58 1477.06 2281.5 1481.67 Q2278.44 1486.25 2272.63 1486.25 Q2266.82 1486.25 2263.74 1481.67 Q2260.69 1477.06 2260.69 1468.33 Q2260.69 1459.58 2263.74 1455 Q2266.82 1450.39 2272.63 1450.39 Z" fill="#000000" fill-rule="nonzero" fill-opacity="1" /><path clip-path="url(#clip440)" d="M1214.11 1520.52 L1220.54 1520.52 L1220.54 1568.04 L1214.11 1568.04 L1214.11 1520.52 Z" fill="#000000" fill-rule="nonzero" fill-opacity="1" /><path clip-path="url(#clip440)" d="M1238.87 1522.27 L1238.87 1532.4 L1250.94 1532.4 L1250.94 1536.95 L1238.87 1536.95 L1238.87 1556.3 Q1238.87 1560.66 1240.05 1561.9 Q1241.26 1563.14 1244.92 1563.14 L1250.94 1563.14 L1250.94 1568.04 L1244.92 1568.04 Q1238.14 1568.04 1235.56 1565.53 Q1232.99 1562.98 1232.99 1556.3 L1232.99 1536.95 L1228.69 1536.95 L1228.69 1532.4 L1232.99 1532.4 L1232.99 1522.27 L1238.87 1522.27 Z" fill="#000000" fill-rule="nonzero" fill-opacity="1" /><path clip-path="url(#clip440)" d="M1289.13 1548.76 L1289.13 1551.62 L1262.21 1551.62 Q1262.59 1557.67 1265.83 1560.85 Q1269.11 1564 1274.94 1564 Q1278.31 1564 1281.46 1563.17 Q1284.64 1562.35 1287.76 1560.69 L1287.76 1566.23 Q1284.61 1567.57 1281.3 1568.27 Q1277.99 1568.97 1274.59 1568.97 Q1266.06 1568.97 1261.06 1564 Q1256.09 1559.04 1256.09 1550.57 Q1256.09 1541.82 1260.8 1536.69 Q1265.55 1531.54 1273.57 1531.54 Q1280.76 1531.54 1284.93 1536.18 Q1289.13 1540.8 1289.13 1548.76 M1283.28 1547.04 Q1283.21 1542.23 1280.57 1539.37 Q1277.96 1536.5 1273.63 1536.5 Q1268.73 1536.5 1265.77 1539.27 Q1262.84 1542.04 1262.4 1547.07 L1283.28 1547.04 Z" fill="#000000" fill-rule="nonzero" fill-opacity="1" /><path clip-path="url(#clip440)" d="M1319.4 1537.87 Q1318.41 1537.3 1317.24 1537.04 Q1316.09 1536.76 1314.69 1536.76 Q1309.73 1536.76 1307.05 1540 Q1304.41 1543.22 1304.41 1549.27 L1304.41 1568.04 L1298.52 1568.04 L1298.52 1532.4 L1304.41 1532.4 L1304.41 1537.93 Q1306.26 1534.69 1309.22 1533.13 Q1312.18 1531.54 1316.41 1531.54 Q1317.01 1531.54 1317.75 1531.63 Q1318.48 1531.7 1319.37 1531.85 L1319.4 1537.87 Z" fill="#000000" fill-rule="nonzero" fill-opacity="1" /><path clip-path="url(#clip440)" d="M1341.74 1550.12 Q1334.65 1550.12 1331.91 1551.75 Q1329.17 1553.37 1329.17 1557.29 Q1329.17 1560.4 1331.21 1562.25 Q1333.28 1564.07 1336.81 1564.07 Q1341.68 1564.07 1344.61 1560.63 Q1347.57 1557.16 1347.57 1551.43 L1347.57 1550.12 L1341.74 1550.12 M1353.43 1547.71 L1353.43 1568.04 L1347.57 1568.04 L1347.57 1562.63 Q1345.56 1565.88 1342.57 1567.44 Q1339.58 1568.97 1335.25 1568.97 Q1329.78 1568.97 1326.53 1565.91 Q1323.32 1562.82 1323.32 1557.67 Q1323.32 1551.65 1327.33 1548.6 Q1331.37 1545.54 1339.36 1545.54 L1347.57 1545.54 L1347.57 1544.97 Q1347.57 1540.93 1344.9 1538.73 Q1342.25 1536.5 1337.45 1536.5 Q1334.39 1536.5 1331.5 1537.23 Q1328.6 1537.97 1325.93 1539.43 L1325.93 1534.02 Q1329.14 1532.78 1332.16 1532.17 Q1335.19 1531.54 1338.05 1531.54 Q1345.79 1531.54 1349.61 1535.55 Q1353.43 1539.56 1353.43 1547.71 Z" fill="#000000" fill-rule="nonzero" fill-opacity="1" /><path clip-path="url(#clip440)" d="M1371.28 1522.27 L1371.28 1532.4 L1383.34 1532.4 L1383.34 1536.95 L1371.28 1536.95 L1371.28 1556.3 Q1371.28 1560.66 1372.46 1561.9 Q1373.67 1563.14 1377.33 1563.14 L1383.34 1563.14 L1383.34 1568.04 L1377.33 1568.04 Q1370.55 1568.04 1367.97 1565.53 Q1365.39 1562.98 1365.39 1556.3 L1365.39 1536.95 L1361.1 1536.95 L1361.1 1532.4 L1365.39 1532.4 L1365.39 1522.27 L1371.28 1522.27 Z" fill="#000000" fill-rule="nonzero" fill-opacity="1" /><path clip-path="url(#clip440)" d="M1391.05 1532.4 L1396.9 1532.4 L1396.9 1568.04 L1391.05 1568.04 L1391.05 1532.4 M1391.05 1518.52 L1396.9 1518.52 L1396.9 1525.93 L1391.05 1525.93 L1391.05 1518.52 Z" fill="#000000" fill-rule="nonzero" fill-opacity="1" /><path clip-path="url(#clip440)" d="M1422.97 1536.5 Q1418.26 1536.5 1415.52 1540.19 Q1412.79 1543.85 1412.79 1550.25 Q1412.79 1556.65 1415.49 1560.34 Q1418.23 1564 1422.97 1564 Q1427.65 1564 1430.39 1560.31 Q1433.12 1556.62 1433.12 1550.25 Q1433.12 1543.92 1430.39 1540.23 Q1427.65 1536.5 1422.97 1536.5 M1422.97 1531.54 Q1430.61 1531.54 1434.97 1536.5 Q1439.33 1541.47 1439.33 1550.25 Q1439.33 1559 1434.97 1564 Q1430.61 1568.97 1422.97 1568.97 Q1415.3 1568.97 1410.94 1564 Q1406.61 1559 1406.61 1550.25 Q1406.61 1541.47 1410.94 1536.5 Q1415.3 1531.54 1422.97 1531.54 Z" fill="#000000" fill-rule="nonzero" fill-opacity="1" /><path clip-path="url(#clip440)" d="M1478.67 1546.53 L1478.67 1568.04 L1472.81 1568.04 L1472.81 1546.72 Q1472.81 1541.66 1470.84 1539.14 Q1468.87 1536.63 1464.92 1536.63 Q1460.18 1536.63 1457.44 1539.65 Q1454.7 1542.68 1454.7 1547.9 L1454.7 1568.04 L1448.82 1568.04 L1448.82 1532.4 L1454.7 1532.4 L1454.7 1537.93 Q1456.8 1534.72 1459.64 1533.13 Q1462.5 1531.54 1466.23 1531.54 Q1472.37 1531.54 1475.52 1535.36 Q1478.67 1539.14 1478.67 1546.53 Z" fill="#000000" fill-rule="nonzero" fill-opacity="1" /><polyline clip-path="url(#clip440)" style="stroke:#000000; stroke-linecap:round; stroke-linejoin:round; stroke-width:4; stroke-opacity:1; fill:none" points="340.028,1423.18 340.028,123.472 "/>
<polyline clip-path="url(#clip440)" style="stroke:#000000; stroke-linecap:round; stroke-linejoin:round; stroke-width:4; stroke-opacity:1; fill:none" points="340.028,1166.26 358.925,1166.26 "/>
<polyline clip-path="url(#clip440)" style="stroke:#000000; stroke-linecap:round; stroke-linejoin:round; stroke-width:4; stroke-opacity:1; fill:none" points="340.028,881.283 358.925,881.283 "/>
<polyline clip-path="url(#clip440)" style="stroke:#000000; stroke-linecap:round; stroke-linejoin:round; stroke-width:4; stroke-opacity:1; fill:none" points="340.028,596.307 358.925,596.307 "/>
<polyline clip-path="url(#clip440)" style="stroke:#000000; stroke-linecap:round; stroke-linejoin:round; stroke-width:4; stroke-opacity:1; fill:none" points="340.028,311.33 358.925,311.33 "/>
<path clip-path="url(#clip440)" d="M127.2 1152.06 Q123.589 1152.06 121.76 1155.62 Q119.955 1159.16 119.955 1166.29 Q119.955 1173.4 121.76 1176.97 Q123.589 1180.51 127.2 1180.51 Q130.834 1180.51 132.64 1176.97 Q134.468 1173.4 134.468 1166.29 Q134.468 1159.16 132.64 1155.62 Q130.834 1152.06 127.2 1152.06 M127.2 1148.35 Q133.01 1148.35 136.066 1152.96 Q139.144 1157.54 139.144 1166.29 Q139.144 1175.02 136.066 1179.63 Q133.01 1184.21 127.2 1184.21 Q121.39 1184.21 118.311 1179.63 Q115.256 1175.02 115.256 1166.29 Q115.256 1157.54 118.311 1152.96 Q121.39 1148.35 127.2 1148.35 Z" fill="#000000" fill-rule="nonzero" fill-opacity="1" /><path clip-path="url(#clip440)" d="M147.362 1177.66 L152.246 1177.66 L152.246 1183.54 L147.362 1183.54 L147.362 1177.66 Z" fill="#000000" fill-rule="nonzero" fill-opacity="1" /><path clip-path="url(#clip440)" d="M172.431 1152.06 Q168.82 1152.06 166.991 1155.62 Q165.186 1159.16 165.186 1166.29 Q165.186 1173.4 166.991 1176.97 Q168.82 1180.51 172.431 1180.51 Q176.065 1180.51 177.871 1176.97 Q179.7 1173.4 179.7 1166.29 Q179.7 1159.16 177.871 1155.62 Q176.065 1152.06 172.431 1152.06 M172.431 1148.35 Q178.241 1148.35 181.297 1152.96 Q184.376 1157.54 184.376 1166.29 Q184.376 1175.02 181.297 1179.63 Q178.241 1184.21 172.431 1184.21 Q166.621 1184.21 163.542 1179.63 Q160.487 1175.02 160.487 1166.29 Q160.487 1157.54 163.542 1152.96 Q166.621 1148.35 172.431 1148.35 Z" fill="#000000" fill-rule="nonzero" fill-opacity="1" /><path clip-path="url(#clip440)" d="M202.593 1152.06 Q198.982 1152.06 197.153 1155.62 Q195.348 1159.16 195.348 1166.29 Q195.348 1173.4 197.153 1176.97 Q198.982 1180.51 202.593 1180.51 Q206.227 1180.51 208.033 1176.97 Q209.861 1173.4 209.861 1166.29 Q209.861 1159.16 208.033 1155.62 Q206.227 1152.06 202.593 1152.06 M202.593 1148.35 Q208.403 1148.35 211.459 1152.96 Q214.537 1157.54 214.537 1166.29 Q214.537 1175.02 211.459 1179.63 Q208.403 1184.21 202.593 1184.21 Q196.783 1184.21 193.704 1179.63 Q190.649 1175.02 190.649 1166.29 Q190.649 1157.54 193.704 1152.96 Q196.783 1148.35 202.593 1148.35 Z" fill="#000000" fill-rule="nonzero" fill-opacity="1" /><path clip-path="url(#clip440)" d="M232.755 1167.13 Q229.422 1167.13 227.5 1168.91 Q225.602 1170.69 225.602 1173.82 Q225.602 1176.94 227.5 1178.72 Q229.422 1180.51 232.755 1180.51 Q236.088 1180.51 238.009 1178.72 Q239.931 1176.92 239.931 1173.82 Q239.931 1170.69 238.009 1168.91 Q236.111 1167.13 232.755 1167.13 M228.079 1165.14 Q225.07 1164.4 223.38 1162.34 Q221.713 1160.28 221.713 1157.31 Q221.713 1153.17 224.653 1150.76 Q227.616 1148.35 232.755 1148.35 Q237.917 1148.35 240.857 1150.76 Q243.797 1153.17 243.797 1157.31 Q243.797 1160.28 242.107 1162.34 Q240.44 1164.4 237.454 1165.14 Q240.834 1165.92 242.709 1168.22 Q244.607 1170.51 244.607 1173.82 Q244.607 1178.84 241.528 1181.53 Q238.472 1184.21 232.755 1184.21 Q227.037 1184.21 223.959 1181.53 Q220.903 1178.84 220.903 1173.82 Q220.903 1170.51 222.801 1168.22 Q224.699 1165.92 228.079 1165.14 M226.366 1157.75 Q226.366 1160.44 228.033 1161.94 Q229.723 1163.45 232.755 1163.45 Q235.764 1163.45 237.454 1161.94 Q239.167 1160.44 239.167 1157.75 Q239.167 1155.07 237.454 1153.56 Q235.764 1152.06 232.755 1152.06 Q229.723 1152.06 228.033 1153.56 Q226.366 1155.07 226.366 1157.75 Z" fill="#000000" fill-rule="nonzero" fill-opacity="1" /><path clip-path="url(#clip440)" d="M251.736 1148.98 L273.958 1148.98 L273.958 1150.97 L261.412 1183.54 L256.528 1183.54 L268.333 1152.91 L251.736 1152.91 L251.736 1148.98 Z" fill="#000000" fill-rule="nonzero" fill-opacity="1" /><path clip-path="url(#clip440)" d="M283.125 1148.98 L301.481 1148.98 L301.481 1152.91 L287.407 1152.91 L287.407 1161.39 Q288.426 1161.04 289.444 1160.88 Q290.463 1160.69 291.481 1160.69 Q297.268 1160.69 300.648 1163.86 Q304.028 1167.04 304.028 1172.45 Q304.028 1178.03 300.555 1181.13 Q297.083 1184.21 290.764 1184.21 Q288.588 1184.21 286.319 1183.84 Q284.074 1183.47 281.667 1182.73 L281.667 1178.03 Q283.75 1179.16 285.972 1179.72 Q288.194 1180.28 290.671 1180.28 Q294.676 1180.28 297.014 1178.17 Q299.352 1176.06 299.352 1172.45 Q299.352 1168.84 297.014 1166.73 Q294.676 1164.63 290.671 1164.63 Q288.796 1164.63 286.921 1165.04 Q285.069 1165.46 283.125 1166.34 L283.125 1148.98 Z" fill="#000000" fill-rule="nonzero" fill-opacity="1" /><path clip-path="url(#clip440)" d="M126.205 867.082 Q122.593 867.082 120.765 870.647 Q118.959 874.188 118.959 881.318 Q118.959 888.424 120.765 891.989 Q122.593 895.531 126.205 895.531 Q129.839 895.531 131.644 891.989 Q133.473 888.424 133.473 881.318 Q133.473 874.188 131.644 870.647 Q129.839 867.082 126.205 867.082 M126.205 863.378 Q132.015 863.378 135.07 867.985 Q138.149 872.568 138.149 881.318 Q138.149 890.045 135.07 894.651 Q132.015 899.234 126.205 899.234 Q120.394 899.234 117.316 894.651 Q114.26 890.045 114.26 881.318 Q114.26 872.568 117.316 867.985 Q120.394 863.378 126.205 863.378 Z" fill="#000000" fill-rule="nonzero" fill-opacity="1" /><path clip-path="url(#clip440)" d="M146.366 892.684 L151.251 892.684 L151.251 898.563 L146.366 898.563 L146.366 892.684 Z" fill="#000000" fill-rule="nonzero" fill-opacity="1" /><path clip-path="url(#clip440)" d="M171.436 867.082 Q167.825 867.082 165.996 870.647 Q164.19 874.188 164.19 881.318 Q164.19 888.424 165.996 891.989 Q167.825 895.531 171.436 895.531 Q175.07 895.531 176.876 891.989 Q178.704 888.424 178.704 881.318 Q178.704 874.188 176.876 870.647 Q175.07 867.082 171.436 867.082 M171.436 863.378 Q177.246 863.378 180.301 867.985 Q183.38 872.568 183.38 881.318 Q183.38 890.045 180.301 894.651 Q177.246 899.234 171.436 899.234 Q165.626 899.234 162.547 894.651 Q159.491 890.045 159.491 881.318 Q159.491 872.568 162.547 867.985 Q165.626 863.378 171.436 863.378 Z" fill="#000000" fill-rule="nonzero" fill-opacity="1" /><path clip-path="url(#clip440)" d="M201.598 867.082 Q197.987 867.082 196.158 870.647 Q194.352 874.188 194.352 881.318 Q194.352 888.424 196.158 891.989 Q197.987 895.531 201.598 895.531 Q205.232 895.531 207.037 891.989 Q208.866 888.424 208.866 881.318 Q208.866 874.188 207.037 870.647 Q205.232 867.082 201.598 867.082 M201.598 863.378 Q207.408 863.378 210.463 867.985 Q213.542 872.568 213.542 881.318 Q213.542 890.045 210.463 894.651 Q207.408 899.234 201.598 899.234 Q195.787 899.234 192.709 894.651 Q189.653 890.045 189.653 881.318 Q189.653 872.568 192.709 867.985 Q195.787 863.378 201.598 863.378 Z" fill="#000000" fill-rule="nonzero" fill-opacity="1" /><path clip-path="url(#clip440)" d="M221.898 897.846 L221.898 893.586 Q223.658 894.42 225.463 894.86 Q227.269 895.299 229.005 895.299 Q233.635 895.299 236.065 892.197 Q238.519 889.073 238.866 882.73 Q237.523 884.721 235.463 885.785 Q233.403 886.85 230.903 886.85 Q225.718 886.85 222.686 883.725 Q219.676 880.577 219.676 875.137 Q219.676 869.813 222.824 866.596 Q225.973 863.378 231.204 863.378 Q237.199 863.378 240.347 867.985 Q243.519 872.568 243.519 881.318 Q243.519 889.489 239.63 894.373 Q235.764 899.234 229.213 899.234 Q227.454 899.234 225.648 898.887 Q223.843 898.54 221.898 897.846 M231.204 883.193 Q234.352 883.193 236.181 881.04 Q238.033 878.887 238.033 875.137 Q238.033 871.411 236.181 869.258 Q234.352 867.082 231.204 867.082 Q228.056 867.082 226.204 869.258 Q224.375 871.411 224.375 875.137 Q224.375 878.887 226.204 881.04 Q228.056 883.193 231.204 883.193 Z" fill="#000000" fill-rule="nonzero" fill-opacity="1" /><path clip-path="url(#clip440)" d="M261.921 867.082 Q258.31 867.082 256.482 870.647 Q254.676 874.188 254.676 881.318 Q254.676 888.424 256.482 891.989 Q258.31 895.531 261.921 895.531 Q265.556 895.531 267.361 891.989 Q269.19 888.424 269.19 881.318 Q269.19 874.188 267.361 870.647 Q265.556 867.082 261.921 867.082 M261.921 863.378 Q267.732 863.378 270.787 867.985 Q273.866 872.568 273.866 881.318 Q273.866 890.045 270.787 894.651 Q267.732 899.234 261.921 899.234 Q256.111 899.234 253.033 894.651 Q249.977 890.045 249.977 881.318 Q249.977 872.568 253.033 867.985 Q256.111 863.378 261.921 863.378 Z" fill="#000000" fill-rule="nonzero" fill-opacity="1" /><path clip-path="url(#clip440)" d="M292.083 867.082 Q288.472 867.082 286.643 870.647 Q284.838 874.188 284.838 881.318 Q284.838 888.424 286.643 891.989 Q288.472 895.531 292.083 895.531 Q295.718 895.531 297.523 891.989 Q299.352 888.424 299.352 881.318 Q299.352 874.188 297.523 870.647 Q295.718 867.082 292.083 867.082 M292.083 863.378 Q297.893 863.378 300.949 867.985 Q304.028 872.568 304.028 881.318 Q304.028 890.045 300.949 894.651 Q297.893 899.234 292.083 899.234 Q286.273 899.234 283.194 894.651 Q280.139 890.045 280.139 881.318 Q280.139 872.568 283.194 867.985 Q286.273 863.378 292.083 863.378 Z" fill="#000000" fill-rule="nonzero" fill-opacity="1" /><path clip-path="url(#clip440)" d="M127.2 582.105 Q123.589 582.105 121.76 585.67 Q119.955 589.212 119.955 596.342 Q119.955 603.448 121.76 607.013 Q123.589 610.554 127.2 610.554 Q130.834 610.554 132.64 607.013 Q134.468 603.448 134.468 596.342 Q134.468 589.212 132.64 585.67 Q130.834 582.105 127.2 582.105 M127.2 578.402 Q133.01 578.402 136.066 583.008 Q139.144 587.592 139.144 596.342 Q139.144 605.068 136.066 609.675 Q133.01 614.258 127.2 614.258 Q121.39 614.258 118.311 609.675 Q115.256 605.068 115.256 596.342 Q115.256 587.592 118.311 583.008 Q121.39 578.402 127.2 578.402 Z" fill="#000000" fill-rule="nonzero" fill-opacity="1" /><path clip-path="url(#clip440)" d="M147.362 607.707 L152.246 607.707 L152.246 613.587 L147.362 613.587 L147.362 607.707 Z" fill="#000000" fill-rule="nonzero" fill-opacity="1" /><path clip-path="url(#clip440)" d="M172.431 582.105 Q168.82 582.105 166.991 585.67 Q165.186 589.212 165.186 596.342 Q165.186 603.448 166.991 607.013 Q168.82 610.554 172.431 610.554 Q176.065 610.554 177.871 607.013 Q179.7 603.448 179.7 596.342 Q179.7 589.212 177.871 585.67 Q176.065 582.105 172.431 582.105 M172.431 578.402 Q178.241 578.402 181.297 583.008 Q184.376 587.592 184.376 596.342 Q184.376 605.068 181.297 609.675 Q178.241 614.258 172.431 614.258 Q166.621 614.258 163.542 609.675 Q160.487 605.068 160.487 596.342 Q160.487 587.592 163.542 583.008 Q166.621 578.402 172.431 578.402 Z" fill="#000000" fill-rule="nonzero" fill-opacity="1" /><path clip-path="url(#clip440)" d="M202.593 582.105 Q198.982 582.105 197.153 585.67 Q195.348 589.212 195.348 596.342 Q195.348 603.448 197.153 607.013 Q198.982 610.554 202.593 610.554 Q206.227 610.554 208.033 607.013 Q209.861 603.448 209.861 596.342 Q209.861 589.212 208.033 585.67 Q206.227 582.105 202.593 582.105 M202.593 578.402 Q208.403 578.402 211.459 583.008 Q214.537 587.592 214.537 596.342 Q214.537 605.068 211.459 609.675 Q208.403 614.258 202.593 614.258 Q196.783 614.258 193.704 609.675 Q190.649 605.068 190.649 596.342 Q190.649 587.592 193.704 583.008 Q196.783 578.402 202.593 578.402 Z" fill="#000000" fill-rule="nonzero" fill-opacity="1" /><path clip-path="url(#clip440)" d="M222.894 612.869 L222.894 608.61 Q224.653 609.443 226.459 609.883 Q228.264 610.323 230 610.323 Q234.63 610.323 237.06 607.221 Q239.514 604.096 239.861 597.754 Q238.519 599.744 236.459 600.809 Q234.398 601.874 231.898 601.874 Q226.713 601.874 223.681 598.749 Q220.672 595.601 220.672 590.161 Q220.672 584.837 223.82 581.619 Q226.968 578.402 232.199 578.402 Q238.195 578.402 241.343 583.008 Q244.514 587.592 244.514 596.342 Q244.514 604.513 240.625 609.397 Q236.76 614.258 230.209 614.258 Q228.449 614.258 226.644 613.911 Q224.838 613.564 222.894 612.869 M232.199 598.216 Q235.347 598.216 237.176 596.064 Q239.028 593.911 239.028 590.161 Q239.028 586.434 237.176 584.281 Q235.347 582.105 232.199 582.105 Q229.051 582.105 227.199 584.281 Q225.371 586.434 225.371 590.161 Q225.371 593.911 227.199 596.064 Q229.051 598.216 232.199 598.216 Z" fill="#000000" fill-rule="nonzero" fill-opacity="1" /><path clip-path="url(#clip440)" d="M256.945 609.652 L273.264 609.652 L273.264 613.587 L251.32 613.587 L251.32 609.652 Q253.982 606.897 258.565 602.267 Q263.171 597.615 264.352 596.272 Q266.597 593.749 267.477 592.013 Q268.38 590.254 268.38 588.564 Q268.38 585.809 266.435 584.073 Q264.514 582.337 261.412 582.337 Q259.213 582.337 256.759 583.101 Q254.329 583.865 251.551 585.416 L251.551 580.693 Q254.375 579.559 256.829 578.98 Q259.283 578.402 261.32 578.402 Q266.69 578.402 269.884 581.087 Q273.079 583.772 273.079 588.263 Q273.079 590.392 272.269 592.314 Q271.482 594.212 269.375 596.804 Q268.796 597.476 265.695 600.693 Q262.593 603.888 256.945 609.652 Z" fill="#000000" fill-rule="nonzero" fill-opacity="1" /><path clip-path="url(#clip440)" d="M283.125 579.027 L301.481 579.027 L301.481 582.962 L287.407 582.962 L287.407 591.434 Q288.426 591.087 289.444 590.925 Q290.463 590.74 291.481 590.74 Q297.268 590.74 300.648 593.911 Q304.028 597.082 304.028 602.499 Q304.028 608.078 300.555 611.179 Q297.083 614.258 290.764 614.258 Q288.588 614.258 286.319 613.888 Q284.074 613.517 281.667 612.777 L281.667 608.078 Q283.75 609.212 285.972 609.767 Q288.194 610.323 290.671 610.323 Q294.676 610.323 297.014 608.216 Q299.352 606.11 299.352 602.499 Q299.352 598.888 297.014 596.781 Q294.676 594.675 290.671 594.675 Q288.796 594.675 286.921 595.092 Q285.069 595.508 283.125 596.388 L283.125 579.027 Z" fill="#000000" fill-rule="nonzero" fill-opacity="1" /><path clip-path="url(#clip440)" d="M126.205 297.129 Q122.593 297.129 120.765 300.694 Q118.959 304.235 118.959 311.365 Q118.959 318.472 120.765 322.036 Q122.593 325.578 126.205 325.578 Q129.839 325.578 131.644 322.036 Q133.473 318.472 133.473 311.365 Q133.473 304.235 131.644 300.694 Q129.839 297.129 126.205 297.129 M126.205 293.425 Q132.015 293.425 135.07 298.032 Q138.149 302.615 138.149 311.365 Q138.149 320.092 135.07 324.698 Q132.015 329.282 126.205 329.282 Q120.394 329.282 117.316 324.698 Q114.26 320.092 114.26 311.365 Q114.26 302.615 117.316 298.032 Q120.394 293.425 126.205 293.425 Z" fill="#000000" fill-rule="nonzero" fill-opacity="1" /><path clip-path="url(#clip440)" d="M146.366 322.731 L151.251 322.731 L151.251 328.61 L146.366 328.61 L146.366 322.731 Z" fill="#000000" fill-rule="nonzero" fill-opacity="1" /><path clip-path="url(#clip440)" d="M171.436 297.129 Q167.825 297.129 165.996 300.694 Q164.19 304.235 164.19 311.365 Q164.19 318.472 165.996 322.036 Q167.825 325.578 171.436 325.578 Q175.07 325.578 176.876 322.036 Q178.704 318.472 178.704 311.365 Q178.704 304.235 176.876 300.694 Q175.07 297.129 171.436 297.129 M171.436 293.425 Q177.246 293.425 180.301 298.032 Q183.38 302.615 183.38 311.365 Q183.38 320.092 180.301 324.698 Q177.246 329.282 171.436 329.282 Q165.626 329.282 162.547 324.698 Q159.491 320.092 159.491 311.365 Q159.491 302.615 162.547 298.032 Q165.626 293.425 171.436 293.425 Z" fill="#000000" fill-rule="nonzero" fill-opacity="1" /><path clip-path="url(#clip440)" d="M201.598 297.129 Q197.987 297.129 196.158 300.694 Q194.352 304.235 194.352 311.365 Q194.352 318.472 196.158 322.036 Q197.987 325.578 201.598 325.578 Q205.232 325.578 207.037 322.036 Q208.866 318.472 208.866 311.365 Q208.866 304.235 207.037 300.694 Q205.232 297.129 201.598 297.129 M201.598 293.425 Q207.408 293.425 210.463 298.032 Q213.542 302.615 213.542 311.365 Q213.542 320.092 210.463 324.698 Q207.408 329.282 201.598 329.282 Q195.787 329.282 192.709 324.698 Q189.653 320.092 189.653 311.365 Q189.653 302.615 192.709 298.032 Q195.787 293.425 201.598 293.425 Z" fill="#000000" fill-rule="nonzero" fill-opacity="1" /><path clip-path="url(#clip440)" d="M221.898 327.893 L221.898 323.634 Q223.658 324.467 225.463 324.907 Q227.269 325.346 229.005 325.346 Q233.635 325.346 236.065 322.245 Q238.519 319.12 238.866 312.777 Q237.523 314.768 235.463 315.833 Q233.403 316.897 230.903 316.897 Q225.718 316.897 222.686 313.772 Q219.676 310.624 219.676 305.185 Q219.676 299.861 222.824 296.643 Q225.973 293.425 231.204 293.425 Q237.199 293.425 240.347 298.032 Q243.519 302.615 243.519 311.365 Q243.519 319.536 239.63 324.421 Q235.764 329.282 229.213 329.282 Q227.454 329.282 225.648 328.934 Q223.843 328.587 221.898 327.893 M231.204 313.24 Q234.352 313.24 236.181 311.087 Q238.033 308.935 238.033 305.185 Q238.033 301.458 236.181 299.305 Q234.352 297.129 231.204 297.129 Q228.056 297.129 226.204 299.305 Q224.375 301.458 224.375 305.185 Q224.375 308.935 226.204 311.087 Q228.056 313.24 231.204 313.24 Z" fill="#000000" fill-rule="nonzero" fill-opacity="1" /><path clip-path="url(#clip440)" d="M251.968 294.05 L270.324 294.05 L270.324 297.986 L256.25 297.986 L256.25 306.458 Q257.269 306.11 258.287 305.948 Q259.306 305.763 260.324 305.763 Q266.111 305.763 269.491 308.935 Q272.87 312.106 272.87 317.522 Q272.87 323.101 269.398 326.203 Q265.926 329.282 259.607 329.282 Q257.431 329.282 255.162 328.911 Q252.917 328.541 250.509 327.8 L250.509 323.101 Q252.593 324.235 254.815 324.791 Q257.037 325.346 259.514 325.346 Q263.519 325.346 265.857 323.24 Q268.195 321.134 268.195 317.522 Q268.195 313.911 265.857 311.805 Q263.519 309.698 259.514 309.698 Q257.639 309.698 255.764 310.115 Q253.912 310.532 251.968 311.411 L251.968 294.05 Z" fill="#000000" fill-rule="nonzero" fill-opacity="1" /><path clip-path="url(#clip440)" d="M292.083 297.129 Q288.472 297.129 286.643 300.694 Q284.838 304.235 284.838 311.365 Q284.838 318.472 286.643 322.036 Q288.472 325.578 292.083 325.578 Q295.718 325.578 297.523 322.036 Q299.352 318.472 299.352 311.365 Q299.352 304.235 297.523 300.694 Q295.718 297.129 292.083 297.129 M292.083 293.425 Q297.893 293.425 300.949 298.032 Q304.028 302.615 304.028 311.365 Q304.028 320.092 300.949 324.698 Q297.893 329.282 292.083 329.282 Q286.273 329.282 283.194 324.698 Q280.139 320.092 280.139 311.365 Q280.139 302.615 283.194 298.032 Q286.273 293.425 292.083 293.425 Z" fill="#000000" fill-rule="nonzero" fill-opacity="1" /><path clip-path="url(#clip440)" d="M33.7671 788.508 L14.479 788.508 L14.479 782.652 L64.0042 782.652 L64.0042 788.508 L58.657 788.508 Q61.8398 790.354 63.3994 793.187 Q64.9272 795.988 64.9272 799.935 Q64.9272 806.396 59.771 810.47 Q54.6147 814.512 46.212 814.512 Q37.8093 814.512 32.6531 810.47 Q27.4968 806.396 27.4968 799.935 Q27.4968 795.988 29.0564 793.187 Q30.5842 790.354 33.7671 788.508 M46.212 808.465 Q52.6732 808.465 56.3653 805.823 Q60.0256 803.149 60.0256 798.502 Q60.0256 793.855 56.3653 791.182 Q52.6732 788.508 46.212 788.508 Q39.7508 788.508 36.0905 791.182 Q32.3984 793.855 32.3984 798.502 Q32.3984 803.149 36.0905 805.823 Q39.7508 808.465 46.212 808.465 Z" fill="#000000" fill-rule="nonzero" fill-opacity="1" /><path clip-path="url(#clip440)" d="M74.8259 743.503 L79.3773 743.503 L79.3773 777.368 L74.8259 777.368 L74.8259 743.503 Z" fill="#000000" fill-rule="nonzero" fill-opacity="1" /><path clip-path="url(#clip440)" d="M28.3562 737.996 L28.3562 732.14 L64.0042 732.14 L64.0042 737.996 L28.3562 737.996 M14.479 737.996 L14.479 732.14 L21.895 732.14 L21.895 737.996 L14.479 737.996 Z" fill="#000000" fill-rule="nonzero" fill-opacity="1" /><path clip-path="url(#clip440)" d="M809.546 18.8205 L809.546 65.8515 L819.43 65.8515 Q831.947 65.8515 837.74 60.1802 Q843.573 54.509 843.573 42.2752 Q843.573 30.1225 837.74 24.4918 Q831.947 18.8205 819.43 18.8205 L809.546 18.8205 M801.363 12.096 L818.174 12.096 Q835.755 12.096 843.978 19.4281 Q852.202 26.7198 852.202 42.2752 Q852.202 57.9117 843.938 65.2439 Q835.674 72.576 818.174 72.576 L801.363 72.576 L801.363 12.096 Z" fill="#000000" fill-rule="nonzero" fill-opacity="1" /><path clip-path="url(#clip440)" d="M864.922 27.2059 L872.375 27.2059 L872.375 72.576 L864.922 72.576 L864.922 27.2059 M864.922 9.54393 L872.375 9.54393 L872.375 18.9825 L864.922 18.9825 L864.922 9.54393 Z" fill="#000000" fill-rule="nonzero" fill-opacity="1" /><path clip-path="url(#clip440)" d="M916.895 28.5427 L916.895 35.5912 Q913.735 33.9709 910.332 33.1607 Q906.929 32.3505 903.284 32.3505 Q897.734 32.3505 894.939 34.0519 Q892.184 35.7533 892.184 39.156 Q892.184 41.7486 894.169 43.2475 Q896.154 44.7058 902.149 46.0426 L904.701 46.6097 Q912.641 48.3111 915.963 51.4303 Q919.325 54.509 919.325 60.0587 Q919.325 66.3781 914.302 70.0644 Q909.319 73.7508 900.57 73.7508 Q896.924 73.7508 892.954 73.0216 Q889.024 72.3329 884.649 70.9151 L884.649 63.2184 Q888.781 65.3654 892.792 66.4591 Q896.802 67.5124 900.732 67.5124 Q905.998 67.5124 908.833 65.73 Q911.669 63.9071 911.669 60.6258 Q911.669 57.5877 909.603 55.9673 Q907.578 54.3469 900.651 52.8481 L898.058 52.2405 Q891.131 50.7821 888.052 47.7845 Q884.974 44.7463 884.974 39.4801 Q884.974 33.0797 889.511 29.5959 Q894.048 26.1121 902.392 26.1121 Q906.524 26.1121 910.17 26.7198 Q913.816 27.3274 916.895 28.5427 Z" fill="#000000" fill-rule="nonzero" fill-opacity="1" /><path clip-path="url(#clip440)" d="M938.567 14.324 L938.567 27.2059 L953.92 27.2059 L953.92 32.9987 L938.567 32.9987 L938.567 57.6282 Q938.567 63.1779 940.066 64.7578 Q941.605 66.3376 946.264 66.3376 L953.92 66.3376 L953.92 72.576 L946.264 72.576 Q937.635 72.576 934.354 69.3758 Q931.073 66.1351 931.073 57.6282 L931.073 32.9987 L925.604 32.9987 L925.604 27.2059 L931.073 27.2059 L931.073 14.324 L938.567 14.324 Z" fill="#000000" fill-rule="nonzero" fill-opacity="1" /><path clip-path="url(#clip440)" d="M984.342 49.7694 Q975.309 49.7694 971.825 51.8354 Q968.341 53.9013 968.341 58.8839 Q968.341 62.8538 970.934 65.2034 Q973.567 67.5124 978.063 67.5124 Q984.261 67.5124 987.988 63.1374 Q991.755 58.7219 991.755 51.4303 L991.755 49.7694 L984.342 49.7694 M999.209 46.6907 L999.209 72.576 L991.755 72.576 L991.755 65.6895 Q989.203 69.8214 985.395 71.8063 Q981.588 73.7508 976.078 73.7508 Q969.111 73.7508 964.979 69.8619 Q960.887 65.9325 960.887 59.3701 Q960.887 51.7138 965.992 47.825 Q971.136 43.9361 981.304 43.9361 L991.755 43.9361 L991.755 43.2069 Q991.755 38.0623 988.353 35.2672 Q984.99 32.4315 978.873 32.4315 Q974.985 32.4315 971.298 33.3632 Q967.612 34.295 964.209 36.1584 L964.209 29.2718 Q968.301 27.692 972.149 26.9223 Q975.997 26.1121 979.643 26.1121 Q989.487 26.1121 994.348 31.2163 Q999.209 36.3204 999.209 46.6907 Z" fill="#000000" fill-rule="nonzero" fill-opacity="1" /><path clip-path="url(#clip440)" d="M1052.28 45.1919 L1052.28 72.576 L1044.82 72.576 L1044.82 45.4349 Q1044.82 38.994 1042.31 35.7938 Q1039.8 32.5936 1034.78 32.5936 Q1028.74 32.5936 1025.26 36.4419 Q1021.77 40.2903 1021.77 46.9338 L1021.77 72.576 L1014.28 72.576 L1014.28 27.2059 L1021.77 27.2059 L1021.77 34.2544 Q1024.45 30.163 1028.05 28.1376 Q1031.7 26.1121 1036.44 26.1121 Q1044.26 26.1121 1048.27 30.9732 Q1052.28 35.7938 1052.28 45.1919 Z" fill="#000000" fill-rule="nonzero" fill-opacity="1" /><path clip-path="url(#clip440)" d="M1099.79 28.9478 L1099.79 35.9153 Q1096.63 34.1734 1093.43 33.3227 Q1090.27 32.4315 1087.03 32.4315 Q1079.78 32.4315 1075.77 37.0496 Q1071.76 41.6271 1071.76 49.9314 Q1071.76 58.2358 1075.77 62.8538 Q1079.78 67.4314 1087.03 67.4314 Q1090.27 67.4314 1093.43 66.5807 Q1096.63 65.6895 1099.79 63.9476 L1099.79 70.8341 Q1096.67 72.2924 1093.31 73.0216 Q1089.99 73.7508 1086.22 73.7508 Q1075.97 73.7508 1069.94 67.3098 Q1063.9 60.8689 1063.9 49.9314 Q1063.9 38.832 1069.98 32.472 Q1076.1 26.1121 1086.71 26.1121 Q1090.15 26.1121 1093.43 26.8413 Q1096.71 27.5299 1099.79 28.9478 Z" fill="#000000" fill-rule="nonzero" fill-opacity="1" /><path clip-path="url(#clip440)" d="M1151.56 48.0275 L1151.56 51.6733 L1117.29 51.6733 Q1117.78 59.3701 1121.91 63.421 Q1126.08 67.4314 1133.5 67.4314 Q1137.79 67.4314 1141.8 66.3781 Q1145.85 65.3249 1149.82 63.2184 L1149.82 70.267 Q1145.81 71.9684 1141.6 72.8596 Q1137.39 73.7508 1133.05 73.7508 Q1122.19 73.7508 1115.83 67.4314 Q1109.52 61.1119 1109.52 50.3365 Q1109.52 39.1965 1115.51 32.6746 Q1121.55 26.1121 1131.75 26.1121 Q1140.91 26.1121 1146.22 32.0264 Q1151.56 37.9003 1151.56 48.0275 M1144.11 45.84 Q1144.03 39.7232 1140.67 36.0774 Q1137.34 32.4315 1131.84 32.4315 Q1125.6 32.4315 1121.83 35.9558 Q1118.1 39.4801 1117.54 45.8805 L1144.11 45.84 Z" fill="#000000" fill-rule="nonzero" fill-opacity="1" /><path clip-path="url(#clip440)" d="M1197.54 14.324 L1197.54 27.2059 L1212.89 27.2059 L1212.89 32.9987 L1197.54 32.9987 L1197.54 57.6282 Q1197.54 63.1779 1199.04 64.7578 Q1200.58 66.3376 1205.24 66.3376 L1212.89 66.3376 L1212.89 72.576 L1205.24 72.576 Q1196.61 72.576 1193.33 69.3758 Q1190.05 66.1351 1190.05 57.6282 L1190.05 32.9987 L1184.58 32.9987 L1184.58 27.2059 L1190.05 27.2059 L1190.05 14.324 L1197.54 14.324 Z" fill="#000000" fill-rule="nonzero" fill-opacity="1" /><path clip-path="url(#clip440)" d="M1248.99 34.1734 Q1247.73 33.4443 1246.23 33.1202 Q1244.77 32.7556 1242.99 32.7556 Q1236.67 32.7556 1233.27 36.8875 Q1229.91 40.9789 1229.91 48.6757 L1229.91 72.576 L1222.41 72.576 L1222.41 27.2059 L1229.91 27.2059 L1229.91 34.2544 Q1232.26 30.1225 1236.02 28.1376 Q1239.79 26.1121 1245.18 26.1121 Q1245.95 26.1121 1246.88 26.2337 Q1247.81 26.3147 1248.95 26.5172 L1248.99 34.1734 Z" fill="#000000" fill-rule="nonzero" fill-opacity="1" /><path clip-path="url(#clip440)" d="M1277.43 49.7694 Q1268.39 49.7694 1264.91 51.8354 Q1261.42 53.9013 1261.42 58.8839 Q1261.42 62.8538 1264.02 65.2034 Q1266.65 67.5124 1271.15 67.5124 Q1277.34 67.5124 1281.07 63.1374 Q1284.84 58.7219 1284.84 51.4303 L1284.84 49.7694 L1277.43 49.7694 M1292.29 46.6907 L1292.29 72.576 L1284.84 72.576 L1284.84 65.6895 Q1282.29 69.8214 1278.48 71.8063 Q1274.67 73.7508 1269.16 73.7508 Q1262.19 73.7508 1258.06 69.8619 Q1253.97 65.9325 1253.97 59.3701 Q1253.97 51.7138 1259.07 47.825 Q1264.22 43.9361 1274.39 43.9361 L1284.84 43.9361 L1284.84 43.2069 Q1284.84 38.0623 1281.44 35.2672 Q1278.07 32.4315 1271.96 32.4315 Q1268.07 32.4315 1264.38 33.3632 Q1260.69 34.295 1257.29 36.1584 L1257.29 29.2718 Q1261.38 27.692 1265.23 26.9223 Q1269.08 26.1121 1272.73 26.1121 Q1282.57 26.1121 1287.43 31.2163 Q1292.29 36.3204 1292.29 46.6907 Z" fill="#000000" fill-rule="nonzero" fill-opacity="1" /><path clip-path="url(#clip440)" d="M1340.3 28.9478 L1340.3 35.9153 Q1337.14 34.1734 1333.94 33.3227 Q1330.78 32.4315 1327.53 32.4315 Q1320.28 32.4315 1316.27 37.0496 Q1312.26 41.6271 1312.26 49.9314 Q1312.26 58.2358 1316.27 62.8538 Q1320.28 67.4314 1327.53 67.4314 Q1330.78 67.4314 1333.94 66.5807 Q1337.14 65.6895 1340.3 63.9476 L1340.3 70.8341 Q1337.18 72.2924 1333.81 73.0216 Q1330.49 73.7508 1326.72 73.7508 Q1316.48 73.7508 1310.44 67.3098 Q1304.4 60.8689 1304.4 49.9314 Q1304.4 38.832 1310.48 32.472 Q1316.6 26.1121 1327.21 26.1121 Q1330.65 26.1121 1333.94 26.8413 Q1337.22 27.5299 1340.3 28.9478 Z" fill="#000000" fill-rule="nonzero" fill-opacity="1" /><path clip-path="url(#clip440)" d="M1392.07 48.0275 L1392.07 51.6733 L1357.8 51.6733 Q1358.28 59.3701 1362.41 63.421 Q1366.59 67.4314 1374 67.4314 Q1378.29 67.4314 1382.3 66.3781 Q1386.35 65.3249 1390.32 63.2184 L1390.32 70.267 Q1386.31 71.9684 1382.1 72.8596 Q1377.89 73.7508 1373.55 73.7508 Q1362.7 73.7508 1356.34 67.4314 Q1350.02 61.1119 1350.02 50.3365 Q1350.02 39.1965 1356.01 32.6746 Q1362.05 26.1121 1372.26 26.1121 Q1381.41 26.1121 1386.72 32.0264 Q1392.07 37.9003 1392.07 48.0275 M1384.61 45.84 Q1384.53 39.7232 1381.17 36.0774 Q1377.85 32.4315 1372.34 32.4315 Q1366.1 32.4315 1362.33 35.9558 Q1358.61 39.4801 1358.04 45.8805 L1384.61 45.84 Z" fill="#000000" fill-rule="nonzero" fill-opacity="1" /><path clip-path="url(#clip440)" d="M1463.24 49.9314 Q1463.24 41.7081 1459.84 37.0496 Q1456.48 32.3505 1450.56 32.3505 Q1444.65 32.3505 1441.24 37.0496 Q1437.88 41.7081 1437.88 49.9314 Q1437.88 58.1548 1441.24 62.8538 Q1444.65 67.5124 1450.56 67.5124 Q1456.48 67.5124 1459.84 62.8538 Q1463.24 58.1548 1463.24 49.9314 M1437.88 34.0924 Q1440.23 30.0415 1443.8 28.0971 Q1447.4 26.1121 1452.38 26.1121 Q1460.65 26.1121 1465.79 32.6746 Q1470.98 39.2371 1470.98 49.9314 Q1470.98 60.6258 1465.79 67.1883 Q1460.65 73.7508 1452.38 73.7508 Q1447.4 73.7508 1443.8 71.8063 Q1440.23 69.8214 1437.88 65.7705 L1437.88 72.576 L1430.39 72.576 L1430.39 9.54393 L1437.88 9.54393 L1437.88 34.0924 Z" fill="#000000" fill-rule="nonzero" fill-opacity="1" /><path clip-path="url(#clip440)" d="M1522.14 48.0275 L1522.14 51.6733 L1487.87 51.6733 Q1488.36 59.3701 1492.49 63.421 Q1496.66 67.4314 1504.07 67.4314 Q1508.37 67.4314 1512.38 66.3781 Q1516.43 65.3249 1520.4 63.2184 L1520.4 70.267 Q1516.39 71.9684 1512.18 72.8596 Q1507.96 73.7508 1503.63 73.7508 Q1492.77 73.7508 1486.41 67.4314 Q1480.09 61.1119 1480.09 50.3365 Q1480.09 39.1965 1486.09 32.6746 Q1492.12 26.1121 1502.33 26.1121 Q1511.49 26.1121 1516.79 32.0264 Q1522.14 37.9003 1522.14 48.0275 M1514.69 45.84 Q1514.61 39.7232 1511.24 36.0774 Q1507.92 32.4315 1502.41 32.4315 Q1496.17 32.4315 1492.41 35.9558 Q1488.68 39.4801 1488.11 45.8805 L1514.69 45.84 Z" fill="#000000" fill-rule="nonzero" fill-opacity="1" /><path clip-path="url(#clip440)" d="M1563.3 28.5427 L1563.3 35.5912 Q1560.14 33.9709 1556.73 33.1607 Q1553.33 32.3505 1549.69 32.3505 Q1544.14 32.3505 1541.34 34.0519 Q1538.59 35.7533 1538.59 39.156 Q1538.59 41.7486 1540.57 43.2475 Q1542.56 44.7058 1548.55 46.0426 L1551.1 46.6097 Q1559.04 48.3111 1562.37 51.4303 Q1565.73 54.509 1565.73 60.0587 Q1565.73 66.3781 1560.7 70.0644 Q1555.72 73.7508 1546.97 73.7508 Q1543.33 73.7508 1539.36 73.0216 Q1535.43 72.3329 1531.05 70.9151 L1531.05 63.2184 Q1535.18 65.3654 1539.19 66.4591 Q1543.2 67.5124 1547.13 67.5124 Q1552.4 67.5124 1555.24 65.73 Q1558.07 63.9071 1558.07 60.6258 Q1558.07 57.5877 1556.01 55.9673 Q1553.98 54.3469 1547.05 52.8481 L1544.46 52.2405 Q1537.53 50.7821 1534.46 47.7845 Q1531.38 44.7463 1531.38 39.4801 Q1531.38 33.0797 1535.91 29.5959 Q1540.45 26.1121 1548.8 26.1121 Q1552.93 26.1121 1556.57 26.7198 Q1560.22 27.3274 1563.3 28.5427 Z" fill="#000000" fill-rule="nonzero" fill-opacity="1" /><path clip-path="url(#clip440)" d="M1584.97 14.324 L1584.97 27.2059 L1600.32 27.2059 L1600.32 32.9987 L1584.97 32.9987 L1584.97 57.6282 Q1584.97 63.1779 1586.47 64.7578 Q1588.01 66.3376 1592.67 66.3376 L1600.32 66.3376 L1600.32 72.576 L1592.67 72.576 Q1584.04 72.576 1580.76 69.3758 Q1577.48 66.1351 1577.48 57.6282 L1577.48 32.9987 L1572.01 32.9987 L1572.01 27.2059 L1577.48 27.2059 L1577.48 14.324 L1584.97 14.324 Z" fill="#000000" fill-rule="nonzero" fill-opacity="1" /><path clip-path="url(#clip440)" d="M1631.15 27.2059 L1639.05 27.2059 L1653.23 65.2844 L1667.41 27.2059 L1675.3 27.2059 L1658.29 72.576 L1648.16 72.576 L1631.15 27.2059 Z" fill="#000000" fill-rule="nonzero" fill-opacity="1" /><path clip-path="url(#clip440)" d="M1724.4 48.0275 L1724.4 51.6733 L1690.13 51.6733 Q1690.62 59.3701 1694.75 63.421 Q1698.92 67.4314 1706.33 67.4314 Q1710.63 67.4314 1714.64 66.3781 Q1718.69 65.3249 1722.66 63.2184 L1722.66 70.267 Q1718.65 71.9684 1714.44 72.8596 Q1710.22 73.7508 1705.89 73.7508 Q1695.03 73.7508 1688.67 67.4314 Q1682.35 61.1119 1682.35 50.3365 Q1682.35 39.1965 1688.35 32.6746 Q1694.38 26.1121 1704.59 26.1121 Q1713.75 26.1121 1719.05 32.0264 Q1724.4 37.9003 1724.4 48.0275 M1716.95 45.84 Q1716.87 39.7232 1713.5 36.0774 Q1710.18 32.4315 1704.67 32.4315 Q1698.44 32.4315 1694.67 35.9558 Q1690.94 39.4801 1690.37 45.8805 L1716.95 45.84 Z" fill="#000000" fill-rule="nonzero" fill-opacity="1" /><path clip-path="url(#clip440)" d="M1762.93 34.1734 Q1761.67 33.4443 1760.17 33.1202 Q1758.71 32.7556 1756.93 32.7556 Q1750.61 32.7556 1747.21 36.8875 Q1743.85 40.9789 1743.85 48.6757 L1743.85 72.576 L1736.35 72.576 L1736.35 27.2059 L1743.85 27.2059 L1743.85 34.2544 Q1746.2 30.1225 1749.96 28.1376 Q1753.73 26.1121 1759.12 26.1121 Q1759.89 26.1121 1760.82 26.2337 Q1761.75 26.3147 1762.89 26.5172 L1762.93 34.1734 Z" fill="#000000" fill-rule="nonzero" fill-opacity="1" /><path clip-path="url(#clip440)" d="M1778.12 14.324 L1778.12 27.2059 L1793.47 27.2059 L1793.47 32.9987 L1778.12 32.9987 L1778.12 57.6282 Q1778.12 63.1779 1779.62 64.7578 Q1781.16 66.3376 1785.81 66.3376 L1793.47 66.3376 L1793.47 72.576 L1785.81 72.576 Q1777.19 72.576 1773.9 69.3758 Q1770.62 66.1351 1770.62 57.6282 L1770.62 32.9987 L1765.15 32.9987 L1765.15 27.2059 L1770.62 27.2059 L1770.62 14.324 L1778.12 14.324 Z" fill="#000000" fill-rule="nonzero" fill-opacity="1" /><path clip-path="url(#clip440)" d="M1842.08 48.0275 L1842.08 51.6733 L1807.81 51.6733 Q1808.3 59.3701 1812.43 63.421 Q1816.6 67.4314 1824.01 67.4314 Q1828.31 67.4314 1832.32 66.3781 Q1836.37 65.3249 1840.34 63.2184 L1840.34 70.267 Q1836.33 71.9684 1832.12 72.8596 Q1827.9 73.7508 1823.57 73.7508 Q1812.71 73.7508 1806.35 67.4314 Q1800.03 61.1119 1800.03 50.3365 Q1800.03 39.1965 1806.03 32.6746 Q1812.06 26.1121 1822.27 26.1121 Q1831.43 26.1121 1836.73 32.0264 Q1842.08 37.9003 1842.08 48.0275 M1834.63 45.84 Q1834.55 39.7232 1831.18 36.0774 Q1827.86 32.4315 1822.35 32.4315 Q1816.11 32.4315 1812.35 35.9558 Q1808.62 39.4801 1808.05 45.8805 L1834.63 45.84 Z" fill="#000000" fill-rule="nonzero" fill-opacity="1" /><path clip-path="url(#clip440)" d="M1890.57 27.2059 L1874.16 49.2833 L1891.42 72.576 L1882.63 72.576 L1869.42 54.752 L1856.22 72.576 L1847.43 72.576 L1865.05 48.8377 L1848.93 27.2059 L1857.72 27.2059 L1869.75 43.369 L1881.78 27.2059 L1890.57 27.2059 Z" fill="#000000" fill-rule="nonzero" fill-opacity="1" /><polyline clip-path="url(#clip442)" style="stroke:#009af9; stroke-linecap:round; stroke-linejoin:round; stroke-width:4; stroke-opacity:1; fill:none" points="396.992,538.899 434.968,646.639 472.944,748.085 510.92,824.407 548.896,880.914 586.872,886.3 624.848,886.53 662.824,1070.42 700.8,1131.73 738.776,1173.39 776.752,1186.62 814.728,1190.39 852.704,1191.93 890.68,1192.13 928.656,1192.18 966.632,1192.19 1004.61,1192.35 1042.58,1192.97 1080.56,1328.28 1118.54,1386.4 1156.51,1384.66 1194.49,1380.31 1232.46,1378.77 1270.44,1378.37 1308.42,1378.25 1346.39,1378.21 1384.37,1378.2 1422.34,1378.2 1460.32,1378.2 1498.3,1378.2 1536.27,1378.2 1574.25,1378.2 1612.22,1378.2 1650.2,1378.2 1688.18,1378.2 1726.15,1378.2 1764.13,1378.2 1802.1,1378.2 1840.08,1378.2 1878.06,1378.2 1916.03,1378.2 1954.01,1378.2 1991.98,1378.2 2029.96,1378.2 2067.94,1378.2 2105.91,1378.2 2143.89,1378.2 2181.86,1378.2 2219.84,1378.2 2257.82,1378.2 2295.79,1378.2 "/>
<polyline clip-path="url(#clip442)" style="stroke:#e26f46; stroke-linecap:round; stroke-linejoin:round; stroke-width:4; stroke-opacity:1; fill:none" points="396.992,713.277 434.968,801.678 472.944,856.528 510.92,825.72 548.896,861.355 586.872,865.263 624.848,872.302 662.824,864.942 700.8,851.188 738.776,837.18 776.752,835.543 814.728,835.33 852.704,833.906 890.68,833.564 928.656,833.486 966.632,833.466 1004.61,833.203 1042.58,826.536 1080.56,713.267 1118.54,725.498 1156.51,747.329 1194.49,754.432 1232.46,756.18 1270.44,756.744 1308.42,756.876 1346.39,756.919 1384.37,756.93 1422.34,756.931 1460.32,756.931 1498.3,756.931 1536.27,756.931 1574.25,756.931 1612.22,756.931 1650.2,756.931 1688.18,756.931 1726.15,756.931 1764.13,756.931 1802.1,756.931 1840.08,756.931 1878.06,756.931 1916.03,756.931 1954.01,756.931 1991.98,756.931 2029.96,756.931 2067.94,756.931 2105.91,756.931 2143.89,756.931 2181.86,756.931 2219.84,756.931 2257.82,756.931 2295.79,756.931 "/>
<polyline clip-path="url(#clip442)" style="stroke:#3da44d; stroke-linecap:round; stroke-linejoin:round; stroke-width:4; stroke-opacity:1; fill:none" points="396.992,655.564 434.968,671.995 472.944,633.944 510.92,676.988 548.896,623.152 586.872,608.017 624.848,591.483 662.824,534.957 700.8,556.108 738.776,565.422 776.752,568.934 814.728,572.002 852.704,573.84 890.68,574.412 928.656,574.515 966.632,574.54 1004.61,574.806 1042.58,581.304 1080.56,604.861 1118.54,552.544 1156.51,538.391 1194.49,537.622 1232.46,537.874 1270.44,537.787 1308.42,537.823 1346.39,537.821 1384.37,537.827 1422.34,537.829 1460.32,537.829 1498.3,537.829 1536.27,537.829 1574.25,537.829 1612.22,537.829 1650.2,537.829 1688.18,537.829 1726.15,537.829 1764.13,537.829 1802.1,537.829 1840.08,537.829 1878.06,537.829 1916.03,537.829 1954.01,537.829 1991.98,537.829 2029.96,537.829 2067.94,537.829 2105.91,537.829 2143.89,537.829 2181.86,537.829 2219.84,537.829 2257.82,537.829 2295.79,537.829 "/>
<polyline clip-path="url(#clip442)" style="stroke:#c271d2; stroke-linecap:round; stroke-linejoin:round; stroke-width:4; stroke-opacity:1; fill:none" points="396.992,641.535 434.968,565.491 472.944,566.822 510.92,518.054 548.896,536.354 586.872,560.469 624.848,586.571 662.824,660.905 700.8,585.387 738.776,562.29 776.752,541.358 814.728,526.869 852.704,524.57 890.68,523.987 928.656,523.893 966.632,523.877 1004.61,523.875 1042.58,525.735 1080.56,529.275 1118.54,526.092 1156.51,512.751 1194.49,505.95 1232.46,504.63 1270.44,504.282 1308.42,504.178 1346.39,504.174 1384.37,504.167 1422.34,504.165 1460.32,504.165 1498.3,504.165 1536.27,504.165 1574.25,504.165 1612.22,504.165 1650.2,504.165 1688.18,504.165 1726.15,504.165 1764.13,504.165 1802.1,504.165 1840.08,504.165 1878.06,504.165 1916.03,504.165 1954.01,504.165 1991.98,504.165 2029.96,504.165 2067.94,504.165 2105.91,504.165 2143.89,504.165 2181.86,504.165 2219.84,504.165 2257.82,504.165 2295.79,504.165 "/>
<polyline clip-path="url(#clip442)" style="stroke:#ac8d18; stroke-linecap:round; stroke-linejoin:round; stroke-width:4; stroke-opacity:1; fill:none" points="396.992,292.218 434.968,379.685 472.944,387.924 510.92,395.774 548.896,362.066 586.872,337.048 624.848,307.822 662.824,167.987 700.8,228.679 738.776,241.286 776.752,261.62 814.728,276.514 852.704,278.415 890.68,278.745 928.656,278.829 966.632,278.844 1004.61,278.727 1042.58,276.85 1080.56,300.796 1118.54,216.194 1156.51,171.267 1194.49,163.626 1232.46,161.296 1270.44,160.592 1308.42,160.373 1346.39,160.288 1384.37,160.261 1422.34,160.256 1460.32,160.256 1498.3,160.256 1536.27,160.256 1574.25,160.256 1612.22,160.256 1650.2,160.256 1688.18,160.256 1726.15,160.256 1764.13,160.256 1802.1,160.256 1840.08,160.256 1878.06,160.256 1916.03,160.256 1954.01,160.256 1991.98,160.256 2029.96,160.256 2067.94,160.256 2105.91,160.256 2143.89,160.256 2181.86,160.256 2219.84,160.256 2257.82,160.256 2295.79,160.256 "/>
<polyline clip-path="url(#clip442)" style="stroke:#00a9ad; stroke-linecap:round; stroke-linejoin:round; stroke-width:4; stroke-opacity:1; fill:none" points="396.992,523.895 434.968,425.292 472.944,363.066 510.92,337.51 548.896,308.474 586.872,303.76 624.848,300.601 662.824,271.01 700.8,257.673 738.776,245.924 776.752,241.884 814.728,240.418 852.704,240.122 890.68,240.066 928.656,240.036 966.632,240.031 1004.61,239.94 1042.58,239.585 1080.56,186.643 1118.54,265.436 1156.51,310.053 1194.49,321.261 1232.46,323.016 1270.44,323.644 1308.42,323.789 1346.39,323.811 1384.37,323.813 1422.34,323.813 1460.32,323.813 1498.3,323.813 1536.27,323.813 1574.25,323.813 1612.22,323.813 1650.2,323.813 1688.18,323.813 1726.15,323.813 1764.13,323.813 1802.1,323.813 1840.08,323.813 1878.06,323.813 1916.03,323.813 1954.01,323.813 1991.98,323.813 2029.96,323.813 2067.94,323.813 2105.91,323.813 2143.89,323.813 2181.86,323.813 2219.84,323.813 2257.82,323.813 2295.79,323.813 "/>
<polyline clip-path="url(#clip442)" style="stroke:#ed5d92; stroke-linecap:round; stroke-linejoin:round; stroke-width:4; stroke-opacity:1; fill:none" points="396.992,603.412 434.968,576.218 472.944,543.023 510.92,503.083 548.896,502.674 586.872,505.293 624.848,513.384 662.824,499.83 700.8,488.039 738.776,481.326 776.752,478.696 814.728,477.614 852.704,476.853 890.68,476.836 928.656,476.831 966.632,476.828 1004.61,476.854 1042.58,475.71 1080.56,504.517 1118.54,470.544 1156.51,465.95 1194.49,464.068 1232.46,464.87 1270.44,465.029 1308.42,465.11 1346.39,465.163 1384.37,465.189 1422.34,465.194 1460.32,465.194 1498.3,465.194 1536.27,465.194 1574.25,465.194 1612.22,465.194 1650.2,465.194 1688.18,465.194 1726.15,465.194 1764.13,465.194 1802.1,465.194 1840.08,465.194 1878.06,465.194 1916.03,465.194 1954.01,465.194 1991.98,465.194 2029.96,465.194 2067.94,465.194 2105.91,465.194 2143.89,465.194 2181.86,465.194 2219.84,465.194 2257.82,465.194 2295.79,465.194 "/>
<polyline clip-path="url(#clip442)" style="stroke:#c68125; stroke-linecap:round; stroke-linejoin:round; stroke-width:4; stroke-opacity:1; fill:none" points="396.992,668.778 434.968,648.805 472.944,685.648 510.92,783.157 548.896,866.706 586.872,882.658 624.848,887.902 662.824,916.785 700.8,936.905 738.776,948.417 776.752,949.776 814.728,950.023 852.704,950.46 890.68,950.469 928.656,950.467 966.632,950.467 1004.61,950.515 1042.58,951.483 1080.56,969.178 1118.54,1031.01 1156.51,1040.84 1194.49,1041.47 1232.46,1040.88 1270.44,1040.77 1308.42,1040.71 1346.39,1040.68 1384.37,1040.66 1422.34,1040.66 1460.32,1040.66 1498.3,1040.66 1536.27,1040.66 1574.25,1040.66 1612.22,1040.66 1650.2,1040.66 1688.18,1040.66 1726.15,1040.66 1764.13,1040.66 1802.1,1040.66 1840.08,1040.66 1878.06,1040.66 1916.03,1040.66 1954.01,1040.66 1991.98,1040.66 2029.96,1040.66 2067.94,1040.66 2105.91,1040.66 2143.89,1040.66 2181.86,1040.66 2219.84,1040.66 2257.82,1040.66 2295.79,1040.66 "/>
<polyline clip-path="url(#clip442)" style="stroke:#00a98d; stroke-linecap:round; stroke-linejoin:round; stroke-width:4; stroke-opacity:1; fill:none" points="396.992,1093.02 434.968,1221.56 472.944,1269.56 510.92,1192.41 548.896,1080.83 586.872,1058.55 624.848,1050.38 662.824,1129.63 700.8,1115.97 738.776,1127 776.752,1132.5 814.728,1133.61 852.704,1133.97 890.68,1134 928.656,1134.01 966.632,1134.01 1004.61,1133.99 1042.58,1131.21 1080.56,1049.74 1118.54,953.242 1156.51,927.337 1194.49,925.487 1232.46,925.874 1270.44,925.835 1308.42,925.874 1346.39,925.889 1384.37,925.894 1422.34,925.896 1460.32,925.896 1498.3,925.896 1536.27,925.896 1574.25,925.896 1612.22,925.896 1650.2,925.896 1688.18,925.896 1726.15,925.896 1764.13,925.896 1802.1,925.896 1840.08,925.896 1878.06,925.896 1916.03,925.896 1954.01,925.896 1991.98,925.896 2029.96,925.896 2067.94,925.896 2105.91,925.896 2143.89,925.896 2181.86,925.896 2219.84,925.896 2257.82,925.896 2295.79,925.896 "/>
</svg>
