<?xml version="1.0" encoding="utf-8"?>
<svg xmlns="http://www.w3.org/2000/svg" xmlns:xlink="http://www.w3.org/1999/xlink" width="600" height="400" viewBox="0 0 2400 1600">
<defs>
  <clipPath id="clip090">
    <rect x="0" y="0" width="2400" height="1600"/>
  </clipPath>
</defs>
<path clip-path="url(#clip090)" d="M0 1600 L2400 1600 L2400 0 L0 0  Z" fill="#ffffff" fill-rule="evenodd" fill-opacity="1"/>
<defs>
  <clipPath id="clip091">
    <rect x="480" y="0" width="1681" height="1600"/>
  </clipPath>
</defs>
<path clip-path="url(#clip090)" d="M340.028 1423.18 L2352.76 1423.18 L2352.76 123.472 L340.028 123.472  Z" fill="#ffffff" fill-rule="evenodd" fill-opacity="1"/>
<defs>
  <clipPath id="clip092">
    <rect x="340" y="123" width="2014" height="1301"/>
  </clipPath>
</defs>
<polyline clip-path="url(#clip092)" style="stroke:#000000; stroke-linecap:round; stroke-linejoin:round; stroke-width:2; stroke-opacity:0.1; fill:none" points="634.342,1423.18 634.342,123.472 "/>
<polyline clip-path="url(#clip092)" style="stroke:#000000; stroke-linecap:round; stroke-linejoin:round; stroke-width:2; stroke-opacity:0.1; fill:none" points="1109.04,1423.18 1109.04,123.472 "/>
<polyline clip-path="url(#clip092)" style="stroke:#000000; stroke-linecap:round; stroke-linejoin:round; stroke-width:2; stroke-opacity:0.1; fill:none" points="1583.74,1423.18 1583.74,123.472 "/>
<polyline clip-path="url(#clip092)" style="stroke:#000000; stroke-linecap:round; stroke-linejoin:round; stroke-width:2; stroke-opacity:0.1; fill:none" points="2058.44,1423.18 2058.44,123.472 "/>
<polyline clip-path="url(#clip092)" style="stroke:#000000; stroke-linecap:round; stroke-linejoin:round; stroke-width:2; stroke-opacity:0.1; fill:none" points="340.028,1173.03 2352.76,1173.03 "/>
<polyline clip-path="url(#clip092)" style="stroke:#000000; stroke-linecap:round; stroke-linejoin:round; stroke-width:2; stroke-opacity:0.1; fill:none" points="340.028,886.135 2352.76,886.135 "/>
<polyline clip-path="url(#clip092)" style="stroke:#000000; stroke-linecap:round; stroke-linejoin:round; stroke-width:2; stroke-opacity:0.1; fill:none" points="340.028,599.241 2352.76,599.241 "/>
<polyline clip-path="url(#clip092)" style="stroke:#000000; stroke-linecap:round; stroke-linejoin:round; stroke-width:2; stroke-opacity:0.1; fill:none" points="340.028,312.347 2352.76,312.347 "/>
<polyline clip-path="url(#clip090)" style="stroke:#000000; stroke-linecap:round; stroke-linejoin:round; stroke-width:4; stroke-opacity:1; fill:none" points="340.028,1423.18 2352.76,1423.18 "/>
<polyline clip-path="url(#clip090)" style="stroke:#000000; stroke-linecap:round; stroke-linejoin:round; stroke-width:4; stroke-opacity:1; fill:none" points="634.342,1423.18 634.342,1404.28 "/>
<polyline clip-path="url(#clip090)" style="stroke:#000000; stroke-linecap:round; stroke-linejoin:round; stroke-width:4; stroke-opacity:1; fill:none" points="1109.04,1423.18 1109.04,1404.28 "/>
<polyline clip-path="url(#clip090)" style="stroke:#000000; stroke-linecap:round; stroke-linejoin:round; stroke-width:4; stroke-opacity:1; fill:none" points="1583.74,1423.18 1583.74,1404.28 "/>
<polyline clip-path="url(#clip090)" style="stroke:#000000; stroke-linecap:round; stroke-linejoin:round; stroke-width:4; stroke-opacity:1; fill:none" points="2058.44,1423.18 2058.44,1404.28 "/>
<path clip-path="url(#clip090)" d="M628.995 1481.64 L645.314 1481.64 L645.314 1485.58 L623.37 1485.58 L623.37 1481.64 Q626.032 1478.89 630.615 1474.26 Q635.221 1469.61 636.402 1468.27 Q638.647 1465.74 639.527 1464.01 Q640.43 1462.25 640.43 1460.56 Q640.43 1457.8 638.485 1456.07 Q636.564 1454.33 633.462 1454.33 Q631.263 1454.33 628.809 1455.09 Q626.379 1455.86 623.601 1457.41 L623.601 1452.69 Q626.425 1451.55 628.879 1450.97 Q631.332 1450.39 633.369 1450.39 Q638.74 1450.39 641.934 1453.08 Q645.129 1455.77 645.129 1460.26 Q645.129 1462.39 644.318 1464.31 Q643.531 1466.2 641.425 1468.8 Q640.846 1469.47 637.744 1472.69 Q634.643 1475.88 628.995 1481.64 Z" fill="#000000" fill-rule="nonzero" fill-opacity="1" /><path clip-path="url(#clip090)" d="M1112.05 1455.09 L1100.25 1473.54 L1112.05 1473.54 L1112.05 1455.09 M1110.82 1451.02 L1116.7 1451.02 L1116.7 1473.54 L1121.63 1473.54 L1121.63 1477.43 L1116.7 1477.43 L1116.7 1485.58 L1112.05 1485.58 L1112.05 1477.43 L1096.45 1477.43 L1096.45 1472.92 L1110.82 1451.02 Z" fill="#000000" fill-rule="nonzero" fill-opacity="1" /><path clip-path="url(#clip090)" d="M1584.15 1466.44 Q1581 1466.44 1579.15 1468.59 Q1577.32 1470.74 1577.32 1474.49 Q1577.32 1478.22 1579.15 1480.39 Q1581 1482.55 1584.15 1482.55 Q1587.3 1482.55 1589.12 1480.39 Q1590.98 1478.22 1590.98 1474.49 Q1590.98 1470.74 1589.12 1468.59 Q1587.3 1466.44 1584.15 1466.44 M1593.43 1451.78 L1593.43 1456.04 Q1591.67 1455.21 1589.86 1454.77 Q1588.08 1454.33 1586.32 1454.33 Q1581.69 1454.33 1579.24 1457.45 Q1576.81 1460.58 1576.46 1466.9 Q1577.83 1464.89 1579.89 1463.82 Q1581.95 1462.73 1584.42 1462.73 Q1589.63 1462.73 1592.64 1465.9 Q1595.67 1469.05 1595.67 1474.49 Q1595.67 1479.82 1592.53 1483.03 Q1589.38 1486.25 1584.15 1486.25 Q1578.15 1486.25 1574.98 1481.67 Q1571.81 1477.06 1571.81 1468.33 Q1571.81 1460.14 1575.7 1455.28 Q1579.59 1450.39 1586.14 1450.39 Q1587.9 1450.39 1589.68 1450.74 Q1591.48 1451.09 1593.43 1451.78 Z" fill="#000000" fill-rule="nonzero" fill-opacity="1" /><path clip-path="url(#clip090)" d="M2058.44 1469.17 Q2055.11 1469.17 2053.19 1470.95 Q2051.29 1472.73 2051.29 1475.86 Q2051.29 1478.98 2053.19 1480.77 Q2055.11 1482.55 2058.44 1482.55 Q2061.78 1482.55 2063.7 1480.77 Q2065.62 1478.96 2065.62 1475.86 Q2065.62 1472.73 2063.7 1470.95 Q2061.8 1469.17 2058.44 1469.17 M2053.77 1467.18 Q2050.76 1466.44 2049.07 1464.38 Q2047.4 1462.32 2047.4 1459.35 Q2047.4 1455.21 2050.34 1452.8 Q2053.3 1450.39 2058.44 1450.39 Q2063.6 1450.39 2066.54 1452.8 Q2069.48 1455.21 2069.48 1459.35 Q2069.48 1462.32 2067.79 1464.38 Q2066.13 1466.44 2063.14 1467.18 Q2066.52 1467.96 2068.4 1470.26 Q2070.29 1472.55 2070.29 1475.86 Q2070.29 1480.88 2067.21 1483.57 Q2064.16 1486.25 2058.44 1486.25 Q2052.72 1486.25 2049.65 1483.57 Q2046.59 1480.88 2046.59 1475.86 Q2046.59 1472.55 2048.49 1470.26 Q2050.39 1467.96 2053.77 1467.18 M2052.05 1459.79 Q2052.05 1462.48 2053.72 1463.98 Q2055.41 1465.49 2058.44 1465.49 Q2061.45 1465.49 2063.14 1463.98 Q2064.85 1462.48 2064.85 1459.79 Q2064.85 1457.11 2063.14 1455.6 Q2061.45 1454.1 2058.44 1454.1 Q2055.41 1454.1 2053.72 1455.6 Q2052.05 1457.11 2052.05 1459.79 Z" fill="#000000" fill-rule="nonzero" fill-opacity="1" /><path clip-path="url(#clip090)" d="M1286.11 1525.81 L1286.11 1562.76 L1293.87 1562.76 Q1303.71 1562.76 1308.26 1558.3 Q1312.84 1553.85 1312.84 1544.24 Q1312.84 1534.69 1308.26 1530.26 Q1303.71 1525.81 1293.87 1525.81 L1286.11 1525.81 M1279.68 1520.52 L1292.89 1520.52 Q1306.7 1520.52 1313.16 1526.28 Q1319.62 1532.01 1319.62 1544.24 Q1319.62 1556.52 1313.13 1562.28 Q1306.64 1568.04 1292.89 1568.04 L1279.68 1568.04 L1279.68 1520.52 Z" fill="#000000" fill-rule="nonzero" fill-opacity="1" /><path clip-path="url(#clip090)" d="M1329.62 1532.4 L1335.47 1532.4 L1335.47 1568.04 L1329.62 1568.04 L1329.62 1532.4 M1329.62 1518.52 L1335.47 1518.52 L1335.47 1525.93 L1329.62 1525.93 L1329.62 1518.52 Z" fill="#000000" fill-rule="nonzero" fill-opacity="1" /><path clip-path="url(#clip090)" d="M1370.45 1533.45 L1370.45 1538.98 Q1367.97 1537.71 1365.3 1537.07 Q1362.62 1536.44 1359.76 1536.44 Q1355.4 1536.44 1353.2 1537.77 Q1351.04 1539.11 1351.04 1541.79 Q1351.04 1543.82 1352.6 1545 Q1354.16 1546.15 1358.87 1547.2 L1360.87 1547.64 Q1367.11 1548.98 1369.72 1551.43 Q1372.36 1553.85 1372.36 1558.21 Q1372.36 1563.17 1368.42 1566.07 Q1364.5 1568.97 1357.63 1568.97 Q1354.76 1568.97 1351.64 1568.39 Q1348.56 1567.85 1345.12 1566.74 L1345.12 1560.69 Q1348.37 1562.38 1351.52 1563.24 Q1354.67 1564.07 1357.75 1564.07 Q1361.89 1564.07 1364.12 1562.66 Q1366.35 1561.23 1366.35 1558.65 Q1366.35 1556.27 1364.73 1554.99 Q1363.13 1553.72 1357.69 1552.54 L1355.65 1552.07 Q1350.21 1550.92 1347.79 1548.56 Q1345.37 1546.18 1345.37 1542.04 Q1345.37 1537.01 1348.94 1534.27 Q1352.5 1531.54 1359.06 1531.54 Q1362.31 1531.54 1365.17 1532.01 Q1368.04 1532.49 1370.45 1533.45 Z" fill="#000000" fill-rule="nonzero" fill-opacity="1" /><path clip-path="url(#clip090)" d="M1381.47 1518.52 L1387.36 1518.52 L1387.36 1547.77 L1404.83 1532.4 L1412.31 1532.4 L1393.4 1549.07 L1413.1 1568.04 L1405.47 1568.04 L1387.36 1550.63 L1387.36 1568.04 L1381.47 1568.04 L1381.47 1518.52 Z" fill="#000000" fill-rule="nonzero" fill-opacity="1" /><polyline clip-path="url(#clip090)" style="stroke:#000000; stroke-linecap:round; stroke-linejoin:round; stroke-width:4; stroke-opacity:1; fill:none" points="340.028,1423.18 340.028,123.472 "/>
<polyline clip-path="url(#clip090)" style="stroke:#000000; stroke-linecap:round; stroke-linejoin:round; stroke-width:4; stroke-opacity:1; fill:none" points="340.028,1173.03 358.925,1173.03 "/>
<polyline clip-path="url(#clip090)" style="stroke:#000000; stroke-linecap:round; stroke-linejoin:round; stroke-width:4; stroke-opacity:1; fill:none" points="340.028,886.135 358.925,886.135 "/>
<polyline clip-path="url(#clip090)" style="stroke:#000000; stroke-linecap:round; stroke-linejoin:round; stroke-width:4; stroke-opacity:1; fill:none" points="340.028,599.241 358.925,599.241 "/>
<polyline clip-path="url(#clip090)" style="stroke:#000000; stroke-linecap:round; stroke-linejoin:round; stroke-width:4; stroke-opacity:1; fill:none" points="340.028,312.347 358.925,312.347 "/>
<path clip-path="url(#clip090)" d="M127.2 1158.83 Q123.589 1158.83 121.76 1162.39 Q119.955 1165.93 119.955 1173.06 Q119.955 1180.17 121.76 1183.73 Q123.589 1187.28 127.2 1187.28 Q130.834 1187.28 132.64 1183.73 Q134.468 1180.17 134.468 1173.06 Q134.468 1165.93 132.64 1162.39 Q130.834 1158.83 127.2 1158.83 M127.2 1155.12 Q133.01 1155.12 136.066 1159.73 Q139.144 1164.31 139.144 1173.06 Q139.144 1181.79 136.066 1186.4 Q133.01 1190.98 127.2 1190.98 Q121.39 1190.98 118.311 1186.4 Q115.256 1181.79 115.256 1173.06 Q115.256 1164.31 118.311 1159.73 Q121.39 1155.12 127.2 1155.12 Z" fill="#000000" fill-rule="nonzero" fill-opacity="1" /><path clip-path="url(#clip090)" d="M147.362 1184.43 L152.246 1184.43 L152.246 1190.31 L147.362 1190.31 L147.362 1184.43 Z" fill="#000000" fill-rule="nonzero" fill-opacity="1" /><path clip-path="url(#clip090)" d="M172.431 1158.83 Q168.82 1158.83 166.991 1162.39 Q165.186 1165.93 165.186 1173.06 Q165.186 1180.17 166.991 1183.73 Q168.82 1187.28 172.431 1187.28 Q176.065 1187.28 177.871 1183.73 Q179.7 1180.17 179.7 1173.06 Q179.7 1165.93 177.871 1162.39 Q176.065 1158.83 172.431 1158.83 M172.431 1155.12 Q178.241 1155.12 181.297 1159.73 Q184.376 1164.31 184.376 1173.06 Q184.376 1181.79 181.297 1186.4 Q178.241 1190.98 172.431 1190.98 Q166.621 1190.98 163.542 1186.4 Q160.487 1181.79 160.487 1173.06 Q160.487 1164.31 163.542 1159.73 Q166.621 1155.12 172.431 1155.12 Z" fill="#000000" fill-rule="nonzero" fill-opacity="1" /><path clip-path="url(#clip090)" d="M202.593 1158.83 Q198.982 1158.83 197.153 1162.39 Q195.348 1165.93 195.348 1173.06 Q195.348 1180.17 197.153 1183.73 Q198.982 1187.28 202.593 1187.28 Q206.227 1187.28 208.033 1183.73 Q209.861 1180.17 209.861 1173.06 Q209.861 1165.93 208.033 1162.39 Q206.227 1158.83 202.593 1158.83 M202.593 1155.12 Q208.403 1155.12 211.459 1159.73 Q214.537 1164.31 214.537 1173.06 Q214.537 1181.79 211.459 1186.4 Q208.403 1190.98 202.593 1190.98 Q196.783 1190.98 193.704 1186.4 Q190.649 1181.79 190.649 1173.06 Q190.649 1164.31 193.704 1159.73 Q196.783 1155.12 202.593 1155.12 Z" fill="#000000" fill-rule="nonzero" fill-opacity="1" /><path clip-path="url(#clip090)" d="M232.755 1173.9 Q229.422 1173.9 227.5 1175.68 Q225.602 1177.46 225.602 1180.59 Q225.602 1183.71 227.5 1185.49 Q229.422 1187.28 232.755 1187.28 Q236.088 1187.28 238.009 1185.49 Q239.931 1183.69 239.931 1180.59 Q239.931 1177.46 238.009 1175.68 Q236.111 1173.9 232.755 1173.9 M228.079 1171.91 Q225.07 1171.17 223.38 1169.11 Q221.713 1167.04 221.713 1164.08 Q221.713 1159.94 224.653 1157.53 Q227.616 1155.12 232.755 1155.12 Q237.917 1155.12 240.857 1157.53 Q243.797 1159.94 243.797 1164.08 Q243.797 1167.04 242.107 1169.11 Q240.44 1171.17 237.454 1171.91 Q240.834 1172.69 242.709 1174.98 Q244.607 1177.28 244.607 1180.59 Q244.607 1185.61 241.528 1188.29 Q238.472 1190.98 232.755 1190.98 Q227.037 1190.98 223.959 1188.29 Q220.903 1185.61 220.903 1180.59 Q220.903 1177.28 222.801 1174.98 Q224.699 1172.69 228.079 1171.91 M226.366 1164.52 Q226.366 1167.21 228.033 1168.71 Q229.723 1170.22 232.755 1170.22 Q235.764 1170.22 237.454 1168.71 Q239.167 1167.21 239.167 1164.52 Q239.167 1161.84 237.454 1160.33 Q235.764 1158.83 232.755 1158.83 Q229.723 1158.83 228.033 1160.33 Q226.366 1161.84 226.366 1164.52 Z" fill="#000000" fill-rule="nonzero" fill-opacity="1" /><path clip-path="url(#clip090)" d="M251.736 1155.75 L273.958 1155.75 L273.958 1157.74 L261.412 1190.31 L256.528 1190.31 L268.333 1159.68 L251.736 1159.68 L251.736 1155.75 Z" fill="#000000" fill-rule="nonzero" fill-opacity="1" /><path clip-path="url(#clip090)" d="M283.125 1155.75 L301.481 1155.75 L301.481 1159.68 L287.407 1159.68 L287.407 1168.16 Q288.426 1167.81 289.444 1167.65 Q290.463 1167.46 291.481 1167.46 Q297.268 1167.46 300.648 1170.63 Q304.028 1173.8 304.028 1179.22 Q304.028 1184.8 300.555 1187.9 Q297.083 1190.98 290.764 1190.98 Q288.588 1190.98 286.319 1190.61 Q284.074 1190.24 281.667 1189.5 L281.667 1184.8 Q283.75 1185.93 285.972 1186.49 Q288.194 1187.04 290.671 1187.04 Q294.676 1187.04 297.014 1184.94 Q299.352 1182.83 299.352 1179.22 Q299.352 1175.61 297.014 1173.5 Q294.676 1171.4 290.671 1171.4 Q288.796 1171.4 286.921 1171.81 Q285.069 1172.23 283.125 1173.11 L283.125 1155.75 Z" fill="#000000" fill-rule="nonzero" fill-opacity="1" /><path clip-path="url(#clip090)" d="M126.205 871.933 Q122.593 871.933 120.765 875.498 Q118.959 879.04 118.959 886.17 Q118.959 893.276 120.765 896.841 Q122.593 900.382 126.205 900.382 Q129.839 900.382 131.644 896.841 Q133.473 893.276 133.473 886.17 Q133.473 879.04 131.644 875.498 Q129.839 871.933 126.205 871.933 M126.205 868.23 Q132.015 868.23 135.07 872.836 Q138.149 877.42 138.149 886.17 Q138.149 894.896 135.07 899.503 Q132.015 904.086 126.205 904.086 Q120.394 904.086 117.316 899.503 Q114.26 894.896 114.26 886.17 Q114.26 877.42 117.316 872.836 Q120.394 868.23 126.205 868.23 Z" fill="#000000" fill-rule="nonzero" fill-opacity="1" /><path clip-path="url(#clip090)" d="M146.366 897.535 L151.251 897.535 L151.251 903.415 L146.366 903.415 L146.366 897.535 Z" fill="#000000" fill-rule="nonzero" fill-opacity="1" /><path clip-path="url(#clip090)" d="M171.436 871.933 Q167.825 871.933 165.996 875.498 Q164.19 879.04 164.19 886.17 Q164.19 893.276 165.996 896.841 Q167.825 900.382 171.436 900.382 Q175.07 900.382 176.876 896.841 Q178.704 893.276 178.704 886.17 Q178.704 879.04 176.876 875.498 Q175.07 871.933 171.436 871.933 M171.436 868.23 Q177.246 868.23 180.301 872.836 Q183.38 877.42 183.38 886.17 Q183.38 894.896 180.301 899.503 Q177.246 904.086 171.436 904.086 Q165.626 904.086 162.547 899.503 Q159.491 894.896 159.491 886.17 Q159.491 877.42 162.547 872.836 Q165.626 868.23 171.436 868.23 Z" fill="#000000" fill-rule="nonzero" fill-opacity="1" /><path clip-path="url(#clip090)" d="M201.598 871.933 Q197.987 871.933 196.158 875.498 Q194.352 879.04 194.352 886.17 Q194.352 893.276 196.158 896.841 Q197.987 900.382 201.598 900.382 Q205.232 900.382 207.037 896.841 Q208.866 893.276 208.866 886.17 Q208.866 879.04 207.037 875.498 Q205.232 871.933 201.598 871.933 M201.598 868.23 Q207.408 868.23 210.463 872.836 Q213.542 877.42 213.542 886.17 Q213.542 894.896 210.463 899.503 Q207.408 904.086 201.598 904.086 Q195.787 904.086 192.709 899.503 Q189.653 894.896 189.653 886.17 Q189.653 877.42 192.709 872.836 Q195.787 868.23 201.598 868.23 Z" fill="#000000" fill-rule="nonzero" fill-opacity="1" /><path clip-path="url(#clip090)" d="M221.898 902.697 L221.898 898.438 Q223.658 899.271 225.463 899.711 Q227.269 900.151 229.005 900.151 Q233.635 900.151 236.065 897.049 Q238.519 893.924 238.866 887.582 Q237.523 889.572 235.463 890.637 Q233.403 891.702 230.903 891.702 Q225.718 891.702 222.686 888.577 Q219.676 885.429 219.676 879.989 Q219.676 874.665 222.824 871.447 Q225.973 868.23 231.204 868.23 Q237.199 868.23 240.347 872.836 Q243.519 877.42 243.519 886.17 Q243.519 894.341 239.63 899.225 Q235.764 904.086 229.213 904.086 Q227.454 904.086 225.648 903.739 Q223.843 903.392 221.898 902.697 M231.204 888.045 Q234.352 888.045 236.181 885.892 Q238.033 883.739 238.033 879.989 Q238.033 876.262 236.181 874.109 Q234.352 871.933 231.204 871.933 Q228.056 871.933 226.204 874.109 Q224.375 876.262 224.375 879.989 Q224.375 883.739 226.204 885.892 Q228.056 888.045 231.204 888.045 Z" fill="#000000" fill-rule="nonzero" fill-opacity="1" /><path clip-path="url(#clip090)" d="M261.921 871.933 Q258.31 871.933 256.482 875.498 Q254.676 879.04 254.676 886.17 Q254.676 893.276 256.482 896.841 Q258.31 900.382 261.921 900.382 Q265.556 900.382 267.361 896.841 Q269.19 893.276 269.19 886.17 Q269.19 879.04 267.361 875.498 Q265.556 871.933 261.921 871.933 M261.921 868.23 Q267.732 868.23 270.787 872.836 Q273.866 877.42 273.866 886.17 Q273.866 894.896 270.787 899.503 Q267.732 904.086 261.921 904.086 Q256.111 904.086 253.033 899.503 Q249.977 894.896 249.977 886.17 Q249.977 877.42 253.033 872.836 Q256.111 868.23 261.921 868.23 Z" fill="#000000" fill-rule="nonzero" fill-opacity="1" /><path clip-path="url(#clip090)" d="M292.083 871.933 Q288.472 871.933 286.643 875.498 Q284.838 879.04 284.838 886.17 Q284.838 893.276 286.643 896.841 Q288.472 900.382 292.083 900.382 Q295.718 900.382 297.523 896.841 Q299.352 893.276 299.352 886.17 Q299.352 879.04 297.523 875.498 Q295.718 871.933 292.083 871.933 M292.083 868.23 Q297.893 868.23 300.949 872.836 Q304.028 877.42 304.028 886.17 Q304.028 894.896 300.949 899.503 Q297.893 904.086 292.083 904.086 Q286.273 904.086 283.194 899.503 Q280.139 894.896 280.139 886.17 Q280.139 877.42 283.194 872.836 Q286.273 868.23 292.083 868.23 Z" fill="#000000" fill-rule="nonzero" fill-opacity="1" /><path clip-path="url(#clip090)" d="M127.2 585.04 Q123.589 585.04 121.76 588.604 Q119.955 592.146 119.955 599.276 Q119.955 606.382 121.76 609.947 Q123.589 613.488 127.2 613.488 Q130.834 613.488 132.64 609.947 Q134.468 606.382 134.468 599.276 Q134.468 592.146 132.64 588.604 Q130.834 585.04 127.2 585.04 M127.2 581.336 Q133.01 581.336 136.066 585.942 Q139.144 590.526 139.144 599.276 Q139.144 608.002 136.066 612.609 Q133.01 617.192 127.2 617.192 Q121.39 617.192 118.311 612.609 Q115.256 608.002 115.256 599.276 Q115.256 590.526 118.311 585.942 Q121.39 581.336 127.2 581.336 Z" fill="#000000" fill-rule="nonzero" fill-opacity="1" /><path clip-path="url(#clip090)" d="M147.362 610.641 L152.246 610.641 L152.246 616.521 L147.362 616.521 L147.362 610.641 Z" fill="#000000" fill-rule="nonzero" fill-opacity="1" /><path clip-path="url(#clip090)" d="M172.431 585.04 Q168.82 585.04 166.991 588.604 Q165.186 592.146 165.186 599.276 Q165.186 606.382 166.991 609.947 Q168.82 613.488 172.431 613.488 Q176.065 613.488 177.871 609.947 Q179.7 606.382 179.7 599.276 Q179.7 592.146 177.871 588.604 Q176.065 585.04 172.431 585.04 M172.431 581.336 Q178.241 581.336 181.297 585.942 Q184.376 590.526 184.376 599.276 Q184.376 608.002 181.297 612.609 Q178.241 617.192 172.431 617.192 Q166.621 617.192 163.542 612.609 Q160.487 608.002 160.487 599.276 Q160.487 590.526 163.542 585.942 Q166.621 581.336 172.431 581.336 Z" fill="#000000" fill-rule="nonzero" fill-opacity="1" /><path clip-path="url(#clip090)" d="M202.593 585.04 Q198.982 585.04 197.153 588.604 Q195.348 592.146 195.348 599.276 Q195.348 606.382 197.153 609.947 Q198.982 613.488 202.593 613.488 Q206.227 613.488 208.033 609.947 Q209.861 606.382 209.861 599.276 Q209.861 592.146 208.033 588.604 Q206.227 585.04 202.593 585.04 M202.593 581.336 Q208.403 581.336 211.459 585.942 Q214.537 590.526 214.537 599.276 Q214.537 608.002 211.459 612.609 Q208.403 617.192 202.593 617.192 Q196.783 617.192 193.704 612.609 Q190.649 608.002 190.649 599.276 Q190.649 590.526 193.704 585.942 Q196.783 581.336 202.593 581.336 Z" fill="#000000" fill-rule="nonzero" fill-opacity="1" /><path clip-path="url(#clip090)" d="M222.894 615.803 L222.894 611.544 Q224.653 612.377 226.459 612.817 Q228.264 613.257 230 613.257 Q234.63 613.257 237.06 610.155 Q239.514 607.03 239.861 600.688 Q238.519 602.678 236.459 603.743 Q234.398 604.808 231.898 604.808 Q226.713 604.808 223.681 601.683 Q220.672 598.535 220.672 593.095 Q220.672 587.771 223.82 584.553 Q226.968 581.336 232.199 581.336 Q238.195 581.336 241.343 585.942 Q244.514 590.526 244.514 599.276 Q244.514 607.447 240.625 612.331 Q236.76 617.192 230.209 617.192 Q228.449 617.192 226.644 616.845 Q224.838 616.498 222.894 615.803 M232.199 601.151 Q235.347 601.151 237.176 598.998 Q239.028 596.845 239.028 593.095 Q239.028 589.368 237.176 587.215 Q235.347 585.04 232.199 585.04 Q229.051 585.04 227.199 587.215 Q225.371 589.368 225.371 593.095 Q225.371 596.845 227.199 598.998 Q229.051 601.151 232.199 601.151 Z" fill="#000000" fill-rule="nonzero" fill-opacity="1" /><path clip-path="url(#clip090)" d="M256.945 612.586 L273.264 612.586 L273.264 616.521 L251.32 616.521 L251.32 612.586 Q253.982 609.831 258.565 605.201 Q263.171 600.549 264.352 599.206 Q266.597 596.683 267.477 594.947 Q268.38 593.188 268.38 591.498 Q268.38 588.743 266.435 587.007 Q264.514 585.271 261.412 585.271 Q259.213 585.271 256.759 586.035 Q254.329 586.799 251.551 588.35 L251.551 583.628 Q254.375 582.493 256.829 581.915 Q259.283 581.336 261.32 581.336 Q266.69 581.336 269.884 584.021 Q273.079 586.706 273.079 591.197 Q273.079 593.327 272.269 595.248 Q271.482 597.146 269.375 599.739 Q268.796 600.41 265.695 603.627 Q262.593 606.822 256.945 612.586 Z" fill="#000000" fill-rule="nonzero" fill-opacity="1" /><path clip-path="url(#clip090)" d="M283.125 581.961 L301.481 581.961 L301.481 585.896 L287.407 585.896 L287.407 594.368 Q288.426 594.021 289.444 593.859 Q290.463 593.674 291.481 593.674 Q297.268 593.674 300.648 596.845 Q304.028 600.016 304.028 605.433 Q304.028 611.012 300.555 614.113 Q297.083 617.192 290.764 617.192 Q288.588 617.192 286.319 616.822 Q284.074 616.451 281.667 615.711 L281.667 611.012 Q283.75 612.146 285.972 612.701 Q288.194 613.257 290.671 613.257 Q294.676 613.257 297.014 611.151 Q299.352 609.044 299.352 605.433 Q299.352 601.822 297.014 599.715 Q294.676 597.609 290.671 597.609 Q288.796 597.609 286.921 598.026 Q285.069 598.442 283.125 599.322 L283.125 581.961 Z" fill="#000000" fill-rule="nonzero" fill-opacity="1" /><path clip-path="url(#clip090)" d="M126.205 298.146 Q122.593 298.146 120.765 301.71 Q118.959 305.252 118.959 312.382 Q118.959 319.488 120.765 323.053 Q122.593 326.595 126.205 326.595 Q129.839 326.595 131.644 323.053 Q133.473 319.488 133.473 312.382 Q133.473 305.252 131.644 301.71 Q129.839 298.146 126.205 298.146 M126.205 294.442 Q132.015 294.442 135.07 299.048 Q138.149 303.632 138.149 312.382 Q138.149 321.108 135.07 325.715 Q132.015 330.298 126.205 330.298 Q120.394 330.298 117.316 325.715 Q114.26 321.108 114.26 312.382 Q114.26 303.632 117.316 299.048 Q120.394 294.442 126.205 294.442 Z" fill="#000000" fill-rule="nonzero" fill-opacity="1" /><path clip-path="url(#clip090)" d="M146.366 323.747 L151.251 323.747 L151.251 329.627 L146.366 329.627 L146.366 323.747 Z" fill="#000000" fill-rule="nonzero" fill-opacity="1" /><path clip-path="url(#clip090)" d="M171.436 298.146 Q167.825 298.146 165.996 301.71 Q164.19 305.252 164.19 312.382 Q164.19 319.488 165.996 323.053 Q167.825 326.595 171.436 326.595 Q175.07 326.595 176.876 323.053 Q178.704 319.488 178.704 312.382 Q178.704 305.252 176.876 301.71 Q175.07 298.146 171.436 298.146 M171.436 294.442 Q177.246 294.442 180.301 299.048 Q183.38 303.632 183.38 312.382 Q183.38 321.108 180.301 325.715 Q177.246 330.298 171.436 330.298 Q165.626 330.298 162.547 325.715 Q159.491 321.108 159.491 312.382 Q159.491 303.632 162.547 299.048 Q165.626 294.442 171.436 294.442 Z" fill="#000000" fill-rule="nonzero" fill-opacity="1" /><path clip-path="url(#clip090)" d="M201.598 298.146 Q197.987 298.146 196.158 301.71 Q194.352 305.252 194.352 312.382 Q194.352 319.488 196.158 323.053 Q197.987 326.595 201.598 326.595 Q205.232 326.595 207.037 323.053 Q208.866 319.488 208.866 312.382 Q208.866 305.252 207.037 301.71 Q205.232 298.146 201.598 298.146 M201.598 294.442 Q207.408 294.442 210.463 299.048 Q213.542 303.632 213.542 312.382 Q213.542 321.108 210.463 325.715 Q207.408 330.298 201.598 330.298 Q195.787 330.298 192.709 325.715 Q189.653 321.108 189.653 312.382 Q189.653 303.632 192.709 299.048 Q195.787 294.442 201.598 294.442 Z" fill="#000000" fill-rule="nonzero" fill-opacity="1" /><path clip-path="url(#clip090)" d="M221.898 328.909 L221.898 324.65 Q223.658 325.483 225.463 325.923 Q227.269 326.363 229.005 326.363 Q233.635 326.363 236.065 323.261 Q238.519 320.136 238.866 313.794 Q237.523 315.784 235.463 316.849 Q233.403 317.914 230.903 317.914 Q225.718 317.914 222.686 314.789 Q219.676 311.641 219.676 306.201 Q219.676 300.877 222.824 297.659 Q225.973 294.442 231.204 294.442 Q237.199 294.442 240.347 299.048 Q243.519 303.632 243.519 312.382 Q243.519 320.553 239.63 325.437 Q235.764 330.298 229.213 330.298 Q227.454 330.298 225.648 329.951 Q223.843 329.604 221.898 328.909 M231.204 314.257 Q234.352 314.257 236.181 312.104 Q238.033 309.951 238.033 306.201 Q238.033 302.474 236.181 300.321 Q234.352 298.146 231.204 298.146 Q228.056 298.146 226.204 300.321 Q224.375 302.474 224.375 306.201 Q224.375 309.951 226.204 312.104 Q228.056 314.257 231.204 314.257 Z" fill="#000000" fill-rule="nonzero" fill-opacity="1" /><path clip-path="url(#clip090)" d="M251.968 295.067 L270.324 295.067 L270.324 299.002 L256.25 299.002 L256.25 307.474 Q257.269 307.127 258.287 306.965 Q259.306 306.78 260.324 306.78 Q266.111 306.78 269.491 309.951 Q272.87 313.122 272.87 318.539 Q272.87 324.118 269.398 327.22 Q265.926 330.298 259.607 330.298 Q257.431 330.298 255.162 329.928 Q252.917 329.557 250.509 328.817 L250.509 324.118 Q252.593 325.252 254.815 325.807 Q257.037 326.363 259.514 326.363 Q263.519 326.363 265.857 324.257 Q268.195 322.15 268.195 318.539 Q268.195 314.928 265.857 312.821 Q263.519 310.715 259.514 310.715 Q257.639 310.715 255.764 311.132 Q253.912 311.548 251.968 312.428 L251.968 295.067 Z" fill="#000000" fill-rule="nonzero" fill-opacity="1" /><path clip-path="url(#clip090)" d="M292.083 298.146 Q288.472 298.146 286.643 301.71 Q284.838 305.252 284.838 312.382 Q284.838 319.488 286.643 323.053 Q288.472 326.595 292.083 326.595 Q295.718 326.595 297.523 323.053 Q299.352 319.488 299.352 312.382 Q299.352 305.252 297.523 301.71 Q295.718 298.146 292.083 298.146 M292.083 294.442 Q297.893 294.442 300.949 299.048 Q304.028 303.632 304.028 312.382 Q304.028 321.108 300.949 325.715 Q297.893 330.298 292.083 330.298 Q286.273 330.298 283.194 325.715 Q280.139 321.108 280.139 312.382 Q280.139 303.632 283.194 299.048 Q286.273 294.442 292.083 294.442 Z" fill="#000000" fill-rule="nonzero" fill-opacity="1" /><path clip-path="url(#clip090)" d="M33.7671 788.508 L14.479 788.508 L14.479 782.652 L64.0042 782.652 L64.0042 788.508 L58.657 788.508 Q61.8398 790.354 63.3994 793.187 Q64.9272 795.988 64.9272 799.935 Q64.9272 806.396 59.771 810.47 Q54.6147 814.512 46.212 814.512 Q37.8093 814.512 32.6531 810.47 Q27.4968 806.396 27.4968 799.935 Q27.4968 795.988 29.0564 793.187 Q30.5842 790.354 33.7671 788.508 M46.212 808.465 Q52.6732 808.465 56.3653 805.823 Q60.0256 803.149 60.0256 798.502 Q60.0256 793.855 56.3653 791.182 Q52.6732 788.508 46.212 788.508 Q39.7508 788.508 36.0905 791.182 Q32.3984 793.855 32.3984 798.502 Q32.3984 803.149 36.0905 805.823 Q39.7508 808.465 46.212 808.465 Z" fill="#000000" fill-rule="nonzero" fill-opacity="1" /><path clip-path="url(#clip090)" d="M74.8259 743.503 L79.3773 743.503 L79.3773 777.368 L74.8259 777.368 L74.8259 743.503 Z" fill="#000000" fill-rule="nonzero" fill-opacity="1" /><path clip-path="url(#clip090)" d="M28.3562 737.996 L28.3562 732.14 L64.0042 732.14 L64.0042 737.996 L28.3562 737.996 M14.479 737.996 L14.479 732.14 L21.895 732.14 L21.895 737.996 L14.479 737.996 Z" fill="#000000" fill-rule="nonzero" fill-opacity="1" /><path clip-path="url(#clip090)" d="M1046.32 12.096 L1081.08 12.096 L1081.08 18.9825 L1054.5 18.9825 L1054.5 36.8065 L1078.49 36.8065 L1078.49 43.6931 L1054.5 43.6931 L1054.5 72.576 L1046.32 72.576 L1046.32 12.096 Z" fill="#000000" fill-rule="nonzero" fill-opacity="1" /><path clip-path="url(#clip090)" d="M1087.68 27.2059 L1095.13 27.2059 L1095.13 72.576 L1087.68 72.576 L1087.68 27.2059 M1087.68 9.54393 L1095.13 9.54393 L1095.13 18.9825 L1087.68 18.9825 L1087.68 9.54393 Z" fill="#000000" fill-rule="nonzero" fill-opacity="1" /><path clip-path="url(#clip090)" d="M1148.44 45.1919 L1148.44 72.576 L1140.99 72.576 L1140.99 45.4349 Q1140.99 38.994 1138.48 35.7938 Q1135.97 32.5936 1130.94 32.5936 Q1124.91 32.5936 1121.42 36.4419 Q1117.94 40.2903 1117.94 46.9338 L1117.94 72.576 L1110.45 72.576 L1110.45 27.2059 L1117.94 27.2059 L1117.94 34.2544 Q1120.61 30.163 1124.22 28.1376 Q1127.87 26.1121 1132.61 26.1121 Q1140.42 26.1121 1144.43 30.9732 Q1148.44 35.7938 1148.44 45.1919 Z" fill="#000000" fill-rule="nonzero" fill-opacity="1" /><path clip-path="url(#clip090)" d="M1183.93 49.7694 Q1174.9 49.7694 1171.41 51.8354 Q1167.93 53.9013 1167.93 58.8839 Q1167.93 62.8538 1170.52 65.2034 Q1173.15 67.5124 1177.65 67.5124 Q1183.85 67.5124 1187.58 63.1374 Q1191.34 58.7219 1191.34 51.4303 L1191.34 49.7694 L1183.93 49.7694 M1198.8 46.6907 L1198.8 72.576 L1191.34 72.576 L1191.34 65.6895 Q1188.79 69.8214 1184.98 71.8063 Q1181.18 73.7508 1175.67 73.7508 Q1168.7 73.7508 1164.57 69.8619 Q1160.48 65.9325 1160.48 59.3701 Q1160.48 51.7138 1165.58 47.825 Q1170.72 43.9361 1180.89 43.9361 L1191.34 43.9361 L1191.34 43.2069 Q1191.34 38.0623 1187.94 35.2672 Q1184.58 32.4315 1178.46 32.4315 Q1174.57 32.4315 1170.89 33.3632 Q1167.2 34.295 1163.8 36.1584 L1163.8 29.2718 Q1167.89 27.692 1171.74 26.9223 Q1175.59 26.1121 1179.23 26.1121 Q1189.07 26.1121 1193.94 31.2163 Q1198.8 36.3204 1198.8 46.6907 Z" fill="#000000" fill-rule="nonzero" fill-opacity="1" /><path clip-path="url(#clip090)" d="M1214.15 9.54393 L1221.6 9.54393 L1221.6 72.576 L1214.15 72.576 L1214.15 9.54393 Z" fill="#000000" fill-rule="nonzero" fill-opacity="1" /><path clip-path="url(#clip090)" d="M1293.43 34.0924 L1293.43 9.54393 L1300.88 9.54393 L1300.88 72.576 L1293.43 72.576 L1293.43 65.7705 Q1291.08 69.8214 1287.47 71.8063 Q1283.91 73.7508 1278.88 73.7508 Q1270.66 73.7508 1265.47 67.1883 Q1260.33 60.6258 1260.33 49.9314 Q1260.33 39.2371 1265.47 32.6746 Q1270.66 26.1121 1278.88 26.1121 Q1283.91 26.1121 1287.47 28.0971 Q1291.08 30.0415 1293.43 34.0924 M1268.03 49.9314 Q1268.03 58.1548 1271.39 62.8538 Q1274.79 67.5124 1280.71 67.5124 Q1286.62 67.5124 1290.02 62.8538 Q1293.43 58.1548 1293.43 49.9314 Q1293.43 41.7081 1290.02 37.0496 Q1286.62 32.3505 1280.71 32.3505 Q1274.79 32.3505 1271.39 37.0496 Q1268.03 41.7081 1268.03 49.9314 Z" fill="#000000" fill-rule="nonzero" fill-opacity="1" /><path clip-path="url(#clip090)" d="M1316.23 27.2059 L1323.69 27.2059 L1323.69 72.576 L1316.23 72.576 L1316.23 27.2059 M1316.23 9.54393 L1323.69 9.54393 L1323.69 18.9825 L1316.23 18.9825 L1316.23 9.54393 Z" fill="#000000" fill-rule="nonzero" fill-opacity="1" /><path clip-path="url(#clip090)" d="M1368.21 28.5427 L1368.21 35.5912 Q1365.05 33.9709 1361.64 33.1607 Q1358.24 32.3505 1354.59 32.3505 Q1349.05 32.3505 1346.25 34.0519 Q1343.5 35.7533 1343.5 39.156 Q1343.5 41.7486 1345.48 43.2475 Q1347.47 44.7058 1353.46 46.0426 L1356.01 46.6097 Q1363.95 48.3111 1367.27 51.4303 Q1370.64 54.509 1370.64 60.0587 Q1370.64 66.3781 1365.61 70.0644 Q1360.63 73.7508 1351.88 73.7508 Q1348.23 73.7508 1344.27 73.0216 Q1340.34 72.3329 1335.96 70.9151 L1335.96 63.2184 Q1340.09 65.3654 1344.1 66.4591 Q1348.11 67.5124 1352.04 67.5124 Q1357.31 67.5124 1360.14 65.73 Q1362.98 63.9071 1362.98 60.6258 Q1362.98 57.5877 1360.91 55.9673 Q1358.89 54.3469 1351.96 52.8481 L1349.37 52.2405 Q1342.44 50.7821 1339.36 47.7845 Q1336.28 44.7463 1336.28 39.4801 Q1336.28 33.0797 1340.82 29.5959 Q1345.36 26.1121 1353.7 26.1121 Q1357.84 26.1121 1361.48 26.7198 Q1365.13 27.3274 1368.21 28.5427 Z" fill="#000000" fill-rule="nonzero" fill-opacity="1" /><path clip-path="url(#clip090)" d="M1389.88 14.324 L1389.88 27.2059 L1405.23 27.2059 L1405.23 32.9987 L1389.88 32.9987 L1389.88 57.6282 Q1389.88 63.1779 1391.38 64.7578 Q1392.92 66.3376 1397.57 66.3376 L1405.23 66.3376 L1405.23 72.576 L1397.57 72.576 Q1388.95 72.576 1385.67 69.3758 Q1382.38 66.1351 1382.38 57.6282 L1382.38 32.9987 L1376.92 32.9987 L1376.92 27.2059 L1382.38 27.2059 L1382.38 14.324 L1389.88 14.324 Z" fill="#000000" fill-rule="nonzero" fill-opacity="1" /><path clip-path="url(#clip090)" d="M1435.65 49.7694 Q1426.62 49.7694 1423.14 51.8354 Q1419.65 53.9013 1419.65 58.8839 Q1419.65 62.8538 1422.24 65.2034 Q1424.88 67.5124 1429.37 67.5124 Q1435.57 67.5124 1439.3 63.1374 Q1443.07 58.7219 1443.07 51.4303 L1443.07 49.7694 L1435.65 49.7694 M1450.52 46.6907 L1450.52 72.576 L1443.07 72.576 L1443.07 65.6895 Q1440.51 69.8214 1436.71 71.8063 Q1432.9 73.7508 1427.39 73.7508 Q1420.42 73.7508 1416.29 69.8619 Q1412.2 65.9325 1412.2 59.3701 Q1412.2 51.7138 1417.3 47.825 Q1422.45 43.9361 1432.62 43.9361 L1443.07 43.9361 L1443.07 43.2069 Q1443.07 38.0623 1439.66 35.2672 Q1436.3 32.4315 1430.18 32.4315 Q1426.3 32.4315 1422.61 33.3632 Q1418.92 34.295 1415.52 36.1584 L1415.52 29.2718 Q1419.61 27.692 1423.46 26.9223 Q1427.31 26.1121 1430.95 26.1121 Q1440.8 26.1121 1445.66 31.2163 Q1450.52 36.3204 1450.52 46.6907 Z" fill="#000000" fill-rule="nonzero" fill-opacity="1" /><path clip-path="url(#clip090)" d="M1503.59 45.1919 L1503.59 72.576 L1496.13 72.576 L1496.13 45.4349 Q1496.13 38.994 1493.62 35.7938 Q1491.11 32.5936 1486.09 32.5936 Q1480.05 32.5936 1476.57 36.4419 Q1473.08 40.2903 1473.08 46.9338 L1473.08 72.576 L1465.59 72.576 L1465.59 27.2059 L1473.08 27.2059 L1473.08 34.2544 Q1475.76 30.163 1479.36 28.1376 Q1483.01 26.1121 1487.75 26.1121 Q1495.57 26.1121 1499.58 30.9732 Q1503.59 35.7938 1503.59 45.1919 Z" fill="#000000" fill-rule="nonzero" fill-opacity="1" /><path clip-path="url(#clip090)" d="M1551.1 28.9478 L1551.1 35.9153 Q1547.94 34.1734 1544.74 33.3227 Q1541.58 32.4315 1538.34 32.4315 Q1531.09 32.4315 1527.08 37.0496 Q1523.07 41.6271 1523.07 49.9314 Q1523.07 58.2358 1527.08 62.8538 Q1531.09 67.4314 1538.34 67.4314 Q1541.58 67.4314 1544.74 66.5807 Q1547.94 65.6895 1551.1 63.9476 L1551.1 70.8341 Q1547.99 72.2924 1544.62 73.0216 Q1541.3 73.7508 1537.53 73.7508 Q1527.28 73.7508 1521.25 67.3098 Q1515.21 60.8689 1515.21 49.9314 Q1515.21 38.832 1521.29 32.472 Q1527.41 26.1121 1538.02 26.1121 Q1541.46 26.1121 1544.74 26.8413 Q1548.03 27.5299 1551.1 28.9478 Z" fill="#000000" fill-rule="nonzero" fill-opacity="1" /><path clip-path="url(#clip090)" d="M1602.87 48.0275 L1602.87 51.6733 L1568.6 51.6733 Q1569.09 59.3701 1573.22 63.421 Q1577.39 67.4314 1584.81 67.4314 Q1589.1 67.4314 1593.11 66.3781 Q1597.16 65.3249 1601.13 63.2184 L1601.13 70.267 Q1597.12 71.9684 1592.91 72.8596 Q1588.7 73.7508 1584.36 73.7508 Q1573.51 73.7508 1567.15 67.4314 Q1560.83 61.1119 1560.83 50.3365 Q1560.83 39.1965 1566.82 32.6746 Q1572.86 26.1121 1583.07 26.1121 Q1592.22 26.1121 1597.53 32.0264 Q1602.87 37.9003 1602.87 48.0275 M1595.42 45.84 Q1595.34 39.7232 1591.98 36.0774 Q1588.66 32.4315 1583.15 32.4315 Q1576.91 32.4315 1573.14 35.9558 Q1569.41 39.4801 1568.85 45.8805 L1595.42 45.84 Z" fill="#000000" fill-rule="nonzero" fill-opacity="1" /><path clip-path="url(#clip090)" d="M1644.03 28.5427 L1644.03 35.5912 Q1640.87 33.9709 1637.47 33.1607 Q1634.07 32.3505 1630.42 32.3505 Q1624.87 32.3505 1622.08 34.0519 Q1619.32 35.7533 1619.32 39.156 Q1619.32 41.7486 1621.31 43.2475 Q1623.29 44.7058 1629.29 46.0426 L1631.84 46.6097 Q1639.78 48.3111 1643.1 51.4303 Q1646.46 54.509 1646.46 60.0587 Q1646.46 66.3781 1641.44 70.0644 Q1636.46 73.7508 1627.71 73.7508 Q1624.06 73.7508 1620.09 73.0216 Q1616.16 72.3329 1611.79 70.9151 L1611.79 63.2184 Q1615.92 65.3654 1619.93 66.4591 Q1623.94 67.5124 1627.87 67.5124 Q1633.14 67.5124 1635.97 65.73 Q1638.81 63.9071 1638.81 60.6258 Q1638.81 57.5877 1636.74 55.9673 Q1634.71 54.3469 1627.79 52.8481 L1625.2 52.2405 Q1618.27 50.7821 1615.19 47.7845 Q1612.11 44.7463 1612.11 39.4801 Q1612.11 33.0797 1616.65 29.5959 Q1621.18 26.1121 1629.53 26.1121 Q1633.66 26.1121 1637.31 26.7198 Q1640.95 27.3274 1644.03 28.5427 Z" fill="#000000" fill-rule="nonzero" fill-opacity="1" /><circle clip-path="url(#clip092)" cx="396.992" cy="1386.4" r="14.4" fill="#009af9" fill-rule="evenodd" fill-opacity="1" stroke="#000000" stroke-opacity="1" stroke-width="3.2"/>
<circle clip-path="url(#clip092)" cx="634.342" cy="760.946" r="14.4" fill="#009af9" fill-rule="evenodd" fill-opacity="1" stroke="#000000" stroke-opacity="1" stroke-width="3.2"/>
<circle clip-path="url(#clip092)" cx="871.692" cy="540.369" r="14.4" fill="#009af9" fill-rule="evenodd" fill-opacity="1" stroke="#000000" stroke-opacity="1" stroke-width="3.2"/>
<circle clip-path="url(#clip092)" cx="1109.04" cy="506.479" r="14.4" fill="#009af9" fill-rule="evenodd" fill-opacity="1" stroke="#000000" stroke-opacity="1" stroke-width="3.2"/>
<circle clip-path="url(#clip092)" cx="1346.39" cy="160.256" r="14.4" fill="#009af9" fill-rule="evenodd" fill-opacity="1" stroke="#000000" stroke-opacity="1" stroke-width="3.2"/>
<circle clip-path="url(#clip092)" cx="1583.74" cy="324.913" r="14.4" fill="#009af9" fill-rule="evenodd" fill-opacity="1" stroke="#000000" stroke-opacity="1" stroke-width="3.2"/>
<circle clip-path="url(#clip092)" cx="1821.09" cy="467.246" r="14.4" fill="#009af9" fill-rule="evenodd" fill-opacity="1" stroke="#000000" stroke-opacity="1" stroke-width="3.2"/>
<circle clip-path="url(#clip092)" cx="2058.44" cy="1046.58" r="14.4" fill="#009af9" fill-rule="evenodd" fill-opacity="1" stroke="#000000" stroke-opacity="1" stroke-width="3.2"/>
<circle clip-path="url(#clip092)" cx="2295.79" cy="931.047" r="14.4" fill="#009af9" fill-rule="evenodd" fill-opacity="1" stroke="#000000" stroke-opacity="1" stroke-width="3.2"/>
</svg>
