<?xml version="1.0" encoding="utf-8"?>
<svg xmlns="http://www.w3.org/2000/svg" xmlns:xlink="http://www.w3.org/1999/xlink" width="600" height="400" viewBox="0 0 2400 1600">
<defs>
  <clipPath id="clip110">
    <rect x="0" y="0" width="2400" height="1600"/>
  </clipPath>
</defs>
<path clip-path="url(#clip110)" d="M0 1600 L2400 1600 L2400 0 L0 0  Z" fill="#ffffff" fill-rule="evenodd" fill-opacity="1"/>
<defs>
  <clipPath id="clip111">
    <rect x="480" y="0" width="1681" height="1600"/>
  </clipPath>
</defs>
<path clip-path="url(#clip110)" d="M234.125 1423.18 L2352.76 1423.18 L2352.76 47.2441 L234.125 47.2441  Z" fill="#ffffff" fill-rule="evenodd" fill-opacity="1"/>
<defs>
  <clipPath id="clip112">
    <rect x="234" y="47" width="2120" height="1377"/>
  </clipPath>
</defs>
<polyline clip-path="url(#clip112)" style="stroke:#000000; stroke-linecap:round; stroke-linejoin:round; stroke-width:2; stroke-opacity:0.1; fill:none" points="493.957,1423.18 493.957,47.2441 "/>
<polyline clip-path="url(#clip112)" style="stroke:#000000; stroke-linecap:round; stroke-linejoin:round; stroke-width:2; stroke-opacity:0.1; fill:none" points="893.699,1423.18 893.699,47.2441 "/>
<polyline clip-path="url(#clip112)" style="stroke:#000000; stroke-linecap:round; stroke-linejoin:round; stroke-width:2; stroke-opacity:0.1; fill:none" points="1293.44,1423.18 1293.44,47.2441 "/>
<polyline clip-path="url(#clip112)" style="stroke:#000000; stroke-linecap:round; stroke-linejoin:round; stroke-width:2; stroke-opacity:0.1; fill:none" points="1693.18,1423.18 1693.18,47.2441 "/>
<polyline clip-path="url(#clip112)" style="stroke:#000000; stroke-linecap:round; stroke-linejoin:round; stroke-width:2; stroke-opacity:0.1; fill:none" points="2092.92,1423.18 2092.92,47.2441 "/>
<polyline clip-path="url(#clip112)" style="stroke:#000000; stroke-linecap:round; stroke-linejoin:round; stroke-width:2; stroke-opacity:0.1; fill:none" points="234.125,1279.84 2352.76,1279.84 "/>
<polyline clip-path="url(#clip112)" style="stroke:#000000; stroke-linecap:round; stroke-linejoin:round; stroke-width:2; stroke-opacity:0.1; fill:none" points="234.125,1030.57 2352.76,1030.57 "/>
<polyline clip-path="url(#clip112)" style="stroke:#000000; stroke-linecap:round; stroke-linejoin:round; stroke-width:2; stroke-opacity:0.1; fill:none" points="234.125,781.296 2352.76,781.296 "/>
<polyline clip-path="url(#clip112)" style="stroke:#000000; stroke-linecap:round; stroke-linejoin:round; stroke-width:2; stroke-opacity:0.1; fill:none" points="234.125,532.026 2352.76,532.026 "/>
<polyline clip-path="url(#clip112)" style="stroke:#000000; stroke-linecap:round; stroke-linejoin:round; stroke-width:2; stroke-opacity:0.1; fill:none" points="234.125,282.755 2352.76,282.755 "/>
<polyline clip-path="url(#clip110)" style="stroke:#000000; stroke-linecap:round; stroke-linejoin:round; stroke-width:4; stroke-opacity:1; fill:none" points="234.125,1423.18 2352.76,1423.18 "/>
<polyline clip-path="url(#clip110)" style="stroke:#000000; stroke-linecap:round; stroke-linejoin:round; stroke-width:4; stroke-opacity:1; fill:none" points="493.957,1423.18 493.957,1404.28 "/>
<polyline clip-path="url(#clip110)" style="stroke:#000000; stroke-linecap:round; stroke-linejoin:round; stroke-width:4; stroke-opacity:1; fill:none" points="893.699,1423.18 893.699,1404.28 "/>
<polyline clip-path="url(#clip110)" style="stroke:#000000; stroke-linecap:round; stroke-linejoin:round; stroke-width:4; stroke-opacity:1; fill:none" points="1293.44,1423.18 1293.44,1404.28 "/>
<polyline clip-path="url(#clip110)" style="stroke:#000000; stroke-linecap:round; stroke-linejoin:round; stroke-width:4; stroke-opacity:1; fill:none" points="1693.18,1423.18 1693.18,1404.28 "/>
<polyline clip-path="url(#clip110)" style="stroke:#000000; stroke-linecap:round; stroke-linejoin:round; stroke-width:4; stroke-opacity:1; fill:none" points="2092.92,1423.18 2092.92,1404.28 "/>
<path clip-path="url(#clip110)" d="M450.034 1481.64 L466.353 1481.64 L466.353 1485.58 L444.409 1485.58 L444.409 1481.64 Q447.071 1478.89 451.654 1474.26 Q456.261 1469.61 457.441 1468.27 Q459.687 1465.74 460.566 1464.01 Q461.469 1462.25 461.469 1460.56 Q461.469 1457.8 459.525 1456.07 Q457.604 1454.33 454.502 1454.33 Q452.303 1454.33 449.849 1455.09 Q447.418 1455.86 444.641 1457.41 L444.641 1452.69 Q447.465 1451.55 449.918 1450.97 Q452.372 1450.39 454.409 1450.39 Q459.779 1450.39 462.974 1453.08 Q466.168 1455.77 466.168 1460.26 Q466.168 1462.39 465.358 1464.31 Q464.571 1466.2 462.465 1468.8 Q461.886 1469.47 458.784 1472.69 Q455.682 1475.88 450.034 1481.64 Z" fill="#000000" fill-rule="nonzero" fill-opacity="1" /><path clip-path="url(#clip110)" d="M489.015 1455.09 L477.21 1473.54 L489.015 1473.54 L489.015 1455.09 M487.789 1451.02 L493.668 1451.02 L493.668 1473.54 L498.599 1473.54 L498.599 1477.43 L493.668 1477.43 L493.668 1485.58 L489.015 1485.58 L489.015 1477.43 L473.414 1477.43 L473.414 1472.92 L487.789 1451.02 Z" fill="#000000" fill-rule="nonzero" fill-opacity="1" /><path clip-path="url(#clip110)" d="M506.33 1479.7 L511.214 1479.7 L511.214 1485.58 L506.33 1485.58 L506.33 1479.7 Z" fill="#000000" fill-rule="nonzero" fill-opacity="1" /><path clip-path="url(#clip110)" d="M531.978 1466.44 Q528.83 1466.44 526.978 1468.59 Q525.149 1470.74 525.149 1474.49 Q525.149 1478.22 526.978 1480.39 Q528.83 1482.55 531.978 1482.55 Q535.126 1482.55 536.955 1480.39 Q538.807 1478.22 538.807 1474.49 Q538.807 1470.74 536.955 1468.59 Q535.126 1466.44 531.978 1466.44 M541.26 1451.78 L541.26 1456.04 Q539.501 1455.21 537.696 1454.77 Q535.913 1454.33 534.154 1454.33 Q529.524 1454.33 527.071 1457.45 Q524.64 1460.58 524.293 1466.9 Q525.659 1464.89 527.719 1463.82 Q529.779 1462.73 532.256 1462.73 Q537.464 1462.73 540.473 1465.9 Q543.506 1469.05 543.506 1474.49 Q543.506 1479.82 540.358 1483.03 Q537.21 1486.25 531.978 1486.25 Q525.983 1486.25 522.811 1481.67 Q519.64 1477.06 519.64 1468.33 Q519.64 1460.14 523.529 1455.28 Q527.418 1450.39 533.969 1450.39 Q535.728 1450.39 537.51 1450.74 Q539.316 1451.09 541.26 1451.78 Z" fill="#000000" fill-rule="nonzero" fill-opacity="1" /><path clip-path="url(#clip110)" d="M849.903 1481.64 L866.222 1481.64 L866.222 1485.58 L844.278 1485.58 L844.278 1481.64 Q846.94 1478.89 851.523 1474.26 Q856.13 1469.61 857.31 1468.27 Q859.556 1465.74 860.435 1464.01 Q861.338 1462.25 861.338 1460.56 Q861.338 1457.8 859.394 1456.07 Q857.472 1454.33 854.371 1454.33 Q852.172 1454.33 849.718 1455.09 Q847.287 1455.86 844.51 1457.41 L844.51 1452.69 Q847.334 1451.55 849.787 1450.97 Q852.241 1450.39 854.278 1450.39 Q859.648 1450.39 862.843 1453.08 Q866.037 1455.77 866.037 1460.26 Q866.037 1462.39 865.227 1464.31 Q864.44 1466.2 862.334 1468.8 Q861.755 1469.47 858.653 1472.69 Q855.551 1475.88 849.903 1481.64 Z" fill="#000000" fill-rule="nonzero" fill-opacity="1" /><path clip-path="url(#clip110)" d="M888.884 1455.09 L877.079 1473.54 L888.884 1473.54 L888.884 1455.09 M887.657 1451.02 L893.537 1451.02 L893.537 1473.54 L898.468 1473.54 L898.468 1477.43 L893.537 1477.43 L893.537 1485.58 L888.884 1485.58 L888.884 1477.43 L873.283 1477.43 L873.283 1472.92 L887.657 1451.02 Z" fill="#000000" fill-rule="nonzero" fill-opacity="1" /><path clip-path="url(#clip110)" d="M906.199 1479.7 L911.083 1479.7 L911.083 1485.58 L906.199 1485.58 L906.199 1479.7 Z" fill="#000000" fill-rule="nonzero" fill-opacity="1" /><path clip-path="url(#clip110)" d="M931.268 1469.17 Q927.935 1469.17 926.014 1470.95 Q924.116 1472.73 924.116 1475.86 Q924.116 1478.98 926.014 1480.77 Q927.935 1482.55 931.268 1482.55 Q934.602 1482.55 936.523 1480.77 Q938.444 1478.96 938.444 1475.86 Q938.444 1472.73 936.523 1470.95 Q934.625 1469.17 931.268 1469.17 M926.592 1467.18 Q923.583 1466.44 921.893 1464.38 Q920.227 1462.32 920.227 1459.35 Q920.227 1455.21 923.167 1452.8 Q926.129 1450.39 931.268 1450.39 Q936.43 1450.39 939.37 1452.8 Q942.31 1455.21 942.31 1459.35 Q942.31 1462.32 940.62 1464.38 Q938.953 1466.44 935.967 1467.18 Q939.347 1467.96 941.222 1470.26 Q943.12 1472.55 943.12 1475.86 Q943.12 1480.88 940.041 1483.57 Q936.986 1486.25 931.268 1486.25 Q925.551 1486.25 922.472 1483.57 Q919.417 1480.88 919.417 1475.86 Q919.417 1472.55 921.315 1470.26 Q923.213 1467.96 926.592 1467.18 M924.879 1459.79 Q924.879 1462.48 926.546 1463.98 Q928.236 1465.49 931.268 1465.49 Q934.278 1465.49 935.967 1463.98 Q937.68 1462.48 937.68 1459.79 Q937.68 1457.11 935.967 1455.6 Q934.278 1454.1 931.268 1454.1 Q928.236 1454.1 926.546 1455.6 Q924.879 1457.11 924.879 1459.79 Z" fill="#000000" fill-rule="nonzero" fill-opacity="1" /><path clip-path="url(#clip110)" d="M1249.6 1481.64 L1265.92 1481.64 L1265.92 1485.58 L1243.97 1485.58 L1243.97 1481.64 Q1246.64 1478.89 1251.22 1474.26 Q1255.83 1469.61 1257.01 1468.27 Q1259.25 1465.74 1260.13 1464.01 Q1261.03 1462.25 1261.03 1460.56 Q1261.03 1457.8 1259.09 1456.07 Q1257.17 1454.33 1254.07 1454.33 Q1251.87 1454.33 1249.41 1455.09 Q1246.98 1455.86 1244.2 1457.41 L1244.2 1452.69 Q1247.03 1451.55 1249.48 1450.97 Q1251.94 1450.39 1253.97 1450.39 Q1259.34 1450.39 1262.54 1453.08 Q1265.73 1455.77 1265.73 1460.26 Q1265.73 1462.39 1264.92 1464.31 Q1264.14 1466.2 1262.03 1468.8 Q1261.45 1469.47 1258.35 1472.69 Q1255.25 1475.88 1249.6 1481.64 Z" fill="#000000" fill-rule="nonzero" fill-opacity="1" /><path clip-path="url(#clip110)" d="M1275.78 1451.02 L1294.14 1451.02 L1294.14 1454.96 L1280.06 1454.96 L1280.06 1463.43 Q1281.08 1463.08 1282.1 1462.92 Q1283.12 1462.73 1284.14 1462.73 Q1289.92 1462.73 1293.3 1465.9 Q1296.68 1469.08 1296.68 1474.49 Q1296.68 1480.07 1293.21 1483.17 Q1289.74 1486.25 1283.42 1486.25 Q1281.24 1486.25 1278.97 1485.88 Q1276.73 1485.51 1274.32 1484.77 L1274.32 1480.07 Q1276.4 1481.2 1278.63 1481.76 Q1280.85 1482.32 1283.32 1482.32 Q1287.33 1482.32 1289.67 1480.21 Q1292.01 1478.1 1292.01 1474.49 Q1292.01 1470.88 1289.67 1468.77 Q1287.33 1466.67 1283.32 1466.67 Q1281.45 1466.67 1279.58 1467.08 Q1277.72 1467.5 1275.78 1468.38 L1275.78 1451.02 Z" fill="#000000" fill-rule="nonzero" fill-opacity="1" /><path clip-path="url(#clip110)" d="M1305.89 1479.7 L1310.78 1479.7 L1310.78 1485.58 L1305.89 1485.58 L1305.89 1479.7 Z" fill="#000000" fill-rule="nonzero" fill-opacity="1" /><path clip-path="url(#clip110)" d="M1330.96 1454.1 Q1327.35 1454.1 1325.52 1457.66 Q1323.72 1461.2 1323.72 1468.33 Q1323.72 1475.44 1325.52 1479.01 Q1327.35 1482.55 1330.96 1482.55 Q1334.6 1482.55 1336.4 1479.01 Q1338.23 1475.44 1338.23 1468.33 Q1338.23 1461.2 1336.4 1457.66 Q1334.6 1454.1 1330.96 1454.1 M1330.96 1450.39 Q1336.77 1450.39 1339.83 1455 Q1342.91 1459.58 1342.91 1468.33 Q1342.91 1477.06 1339.83 1481.67 Q1336.77 1486.25 1330.96 1486.25 Q1325.15 1486.25 1322.07 1481.67 Q1319.02 1477.06 1319.02 1468.33 Q1319.02 1459.58 1322.07 1455 Q1325.15 1450.39 1330.96 1450.39 Z" fill="#000000" fill-rule="nonzero" fill-opacity="1" /><path clip-path="url(#clip110)" d="M1650.14 1481.64 L1666.46 1481.64 L1666.46 1485.58 L1644.51 1485.58 L1644.51 1481.64 Q1647.18 1478.89 1651.76 1474.26 Q1656.37 1469.61 1657.55 1468.27 Q1659.79 1465.74 1660.67 1464.01 Q1661.57 1462.25 1661.57 1460.56 Q1661.57 1457.8 1659.63 1456.07 Q1657.71 1454.33 1654.61 1454.33 Q1652.41 1454.33 1649.95 1455.09 Q1647.52 1455.86 1644.75 1457.41 L1644.75 1452.69 Q1647.57 1451.55 1650.02 1450.97 Q1652.48 1450.39 1654.51 1450.39 Q1659.88 1450.39 1663.08 1453.08 Q1666.27 1455.77 1666.27 1460.26 Q1666.27 1462.39 1665.46 1464.31 Q1664.68 1466.2 1662.57 1468.8 Q1661.99 1469.47 1658.89 1472.69 Q1655.79 1475.88 1650.14 1481.64 Z" fill="#000000" fill-rule="nonzero" fill-opacity="1" /><path clip-path="url(#clip110)" d="M1676.32 1451.02 L1694.68 1451.02 L1694.68 1454.96 L1680.6 1454.96 L1680.6 1463.43 Q1681.62 1463.08 1682.64 1462.92 Q1683.66 1462.73 1684.68 1462.73 Q1690.46 1462.73 1693.84 1465.9 Q1697.22 1469.08 1697.22 1474.49 Q1697.22 1480.07 1693.75 1483.17 Q1690.28 1486.25 1683.96 1486.25 Q1681.78 1486.25 1679.51 1485.88 Q1677.27 1485.51 1674.86 1484.77 L1674.86 1480.07 Q1676.94 1481.2 1679.17 1481.76 Q1681.39 1482.32 1683.87 1482.32 Q1687.87 1482.32 1690.21 1480.21 Q1692.55 1478.1 1692.55 1474.49 Q1692.55 1470.88 1690.21 1468.77 Q1687.87 1466.67 1683.87 1466.67 Q1681.99 1466.67 1680.12 1467.08 Q1678.26 1467.5 1676.32 1468.38 L1676.32 1451.02 Z" fill="#000000" fill-rule="nonzero" fill-opacity="1" /><path clip-path="url(#clip110)" d="M1706.43 1479.7 L1711.32 1479.7 L1711.32 1485.58 L1706.43 1485.58 L1706.43 1479.7 Z" fill="#000000" fill-rule="nonzero" fill-opacity="1" /><path clip-path="url(#clip110)" d="M1725.53 1481.64 L1741.85 1481.64 L1741.85 1485.58 L1719.91 1485.58 L1719.91 1481.64 Q1722.57 1478.89 1727.15 1474.26 Q1731.76 1469.61 1732.94 1468.27 Q1735.18 1465.74 1736.06 1464.01 Q1736.97 1462.25 1736.97 1460.56 Q1736.97 1457.8 1735.02 1456.07 Q1733.1 1454.33 1730 1454.33 Q1727.8 1454.33 1725.35 1455.09 Q1722.92 1455.86 1720.14 1457.41 L1720.14 1452.69 Q1722.96 1451.55 1725.42 1450.97 Q1727.87 1450.39 1729.91 1450.39 Q1735.28 1450.39 1738.47 1453.08 Q1741.67 1455.77 1741.67 1460.26 Q1741.67 1462.39 1740.86 1464.31 Q1740.07 1466.2 1737.96 1468.8 Q1737.38 1469.47 1734.28 1472.69 Q1731.18 1475.88 1725.53 1481.64 Z" fill="#000000" fill-rule="nonzero" fill-opacity="1" /><path clip-path="url(#clip110)" d="M2048.84 1481.64 L2065.16 1481.64 L2065.16 1485.58 L2043.21 1485.58 L2043.21 1481.64 Q2045.88 1478.89 2050.46 1474.26 Q2055.07 1469.61 2056.25 1468.27 Q2058.49 1465.74 2059.37 1464.01 Q2060.27 1462.25 2060.27 1460.56 Q2060.27 1457.8 2058.33 1456.07 Q2056.41 1454.33 2053.31 1454.33 Q2051.11 1454.33 2048.65 1455.09 Q2046.22 1455.86 2043.44 1457.41 L2043.44 1452.69 Q2046.27 1451.55 2048.72 1450.97 Q2051.18 1450.39 2053.21 1450.39 Q2058.58 1450.39 2061.78 1453.08 Q2064.97 1455.77 2064.97 1460.26 Q2064.97 1462.39 2064.16 1464.31 Q2063.38 1466.2 2061.27 1468.8 Q2060.69 1469.47 2057.59 1472.69 Q2054.49 1475.88 2048.84 1481.64 Z" fill="#000000" fill-rule="nonzero" fill-opacity="1" /><path clip-path="url(#clip110)" d="M2075.02 1451.02 L2093.38 1451.02 L2093.38 1454.96 L2079.3 1454.96 L2079.3 1463.43 Q2080.32 1463.08 2081.34 1462.92 Q2082.36 1462.73 2083.38 1462.73 Q2089.16 1462.73 2092.54 1465.9 Q2095.92 1469.08 2095.92 1474.49 Q2095.92 1480.07 2092.45 1483.17 Q2088.98 1486.25 2082.66 1486.25 Q2080.48 1486.25 2078.21 1485.88 Q2075.97 1485.51 2073.56 1484.77 L2073.56 1480.07 Q2075.64 1481.2 2077.87 1481.76 Q2080.09 1482.32 2082.57 1482.32 Q2086.57 1482.32 2088.91 1480.21 Q2091.25 1478.1 2091.25 1474.49 Q2091.25 1470.88 2088.91 1468.77 Q2086.57 1466.67 2082.57 1466.67 Q2080.69 1466.67 2078.82 1467.08 Q2076.96 1467.5 2075.02 1468.38 L2075.02 1451.02 Z" fill="#000000" fill-rule="nonzero" fill-opacity="1" /><path clip-path="url(#clip110)" d="M2105.13 1479.7 L2110.02 1479.7 L2110.02 1485.58 L2105.13 1485.58 L2105.13 1479.7 Z" fill="#000000" fill-rule="nonzero" fill-opacity="1" /><path clip-path="url(#clip110)" d="M2133.05 1455.09 L2121.25 1473.54 L2133.05 1473.54 L2133.05 1455.09 M2131.82 1451.02 L2137.7 1451.02 L2137.7 1473.54 L2142.63 1473.54 L2142.63 1477.43 L2137.7 1477.43 L2137.7 1485.58 L2133.05 1485.58 L2133.05 1477.43 L2117.45 1477.43 L2117.45 1472.92 L2131.82 1451.02 Z" fill="#000000" fill-rule="nonzero" fill-opacity="1" /><path clip-path="url(#clip110)" d="M1001.6 1520.52 L1028.91 1520.52 L1028.91 1525.93 L1008.03 1525.93 L1008.03 1539.94 L1026.88 1539.94 L1026.88 1545.35 L1008.03 1545.35 L1008.03 1568.04 L1001.6 1568.04 L1001.6 1520.52 Z" fill="#000000" fill-rule="nonzero" fill-opacity="1" /><path clip-path="url(#clip110)" d="M1054.76 1537.87 Q1053.77 1537.3 1052.59 1537.04 Q1051.45 1536.76 1050.05 1536.76 Q1045.08 1536.76 1042.41 1540 Q1039.77 1543.22 1039.77 1549.27 L1039.77 1568.04 L1033.88 1568.04 L1033.88 1532.4 L1039.77 1532.4 L1039.77 1537.93 Q1041.61 1534.69 1044.57 1533.13 Q1047.53 1531.54 1051.77 1531.54 Q1052.37 1531.54 1053.1 1531.63 Q1053.84 1531.7 1054.73 1531.85 L1054.76 1537.87 Z" fill="#000000" fill-rule="nonzero" fill-opacity="1" /><path clip-path="url(#clip110)" d="M1089.96 1548.76 L1089.96 1551.62 L1063.03 1551.62 Q1063.42 1557.67 1066.66 1560.85 Q1069.94 1564 1075.77 1564 Q1079.14 1564 1082.29 1563.17 Q1085.47 1562.35 1088.59 1560.69 L1088.59 1566.23 Q1085.44 1567.57 1082.13 1568.27 Q1078.82 1568.97 1075.42 1568.97 Q1066.89 1568.97 1061.89 1564 Q1056.92 1559.04 1056.92 1550.57 Q1056.92 1541.82 1061.63 1536.69 Q1066.38 1531.54 1074.4 1531.54 Q1081.59 1531.54 1085.76 1536.18 Q1089.96 1540.8 1089.96 1548.76 M1084.1 1547.04 Q1084.04 1542.23 1081.4 1539.37 Q1078.79 1536.5 1074.46 1536.5 Q1069.56 1536.5 1066.6 1539.27 Q1063.67 1542.04 1063.22 1547.07 L1084.1 1547.04 Z" fill="#000000" fill-rule="nonzero" fill-opacity="1" /><path clip-path="url(#clip110)" d="M1103.07 1550.25 Q1103.07 1556.71 1105.72 1560.4 Q1108.39 1564.07 1113.04 1564.07 Q1117.68 1564.07 1120.36 1560.4 Q1123.03 1556.71 1123.03 1550.25 Q1123.03 1543.79 1120.36 1540.13 Q1117.68 1536.44 1113.04 1536.44 Q1108.39 1536.44 1105.72 1540.13 Q1103.07 1543.79 1103.07 1550.25 M1123.03 1562.7 Q1121.18 1565.88 1118.35 1567.44 Q1115.55 1568.97 1111.6 1568.97 Q1105.14 1568.97 1101.07 1563.81 Q1097.03 1558.65 1097.03 1550.25 Q1097.03 1541.85 1101.07 1536.69 Q1105.14 1531.54 1111.6 1531.54 Q1115.55 1531.54 1118.35 1533.1 Q1121.18 1534.62 1123.03 1537.81 L1123.03 1532.4 L1128.89 1532.4 L1128.89 1581.6 L1123.03 1581.6 L1123.03 1562.7 Z" fill="#000000" fill-rule="nonzero" fill-opacity="1" /><path clip-path="url(#clip110)" d="M1140.35 1553.98 L1140.35 1532.4 L1146.2 1532.4 L1146.2 1553.75 Q1146.2 1558.81 1148.18 1561.36 Q1150.15 1563.87 1154.1 1563.87 Q1158.84 1563.87 1161.58 1560.85 Q1164.34 1557.83 1164.34 1552.61 L1164.34 1532.4 L1170.2 1532.4 L1170.2 1568.04 L1164.34 1568.04 L1164.34 1562.57 Q1162.21 1565.82 1159.38 1567.41 Q1156.58 1568.97 1152.85 1568.97 Q1146.71 1568.97 1143.53 1565.15 Q1140.35 1561.33 1140.35 1553.98 M1155.08 1531.54 L1155.08 1531.54 Z" fill="#000000" fill-rule="nonzero" fill-opacity="1" /><path clip-path="url(#clip110)" d="M1212.76 1548.76 L1212.76 1551.62 L1185.83 1551.62 Q1186.21 1557.67 1189.46 1560.85 Q1192.74 1564 1198.56 1564 Q1201.93 1564 1205.08 1563.17 Q1208.27 1562.35 1211.39 1560.69 L1211.39 1566.23 Q1208.24 1567.57 1204.93 1568.27 Q1201.62 1568.97 1198.21 1568.97 Q1189.68 1568.97 1184.68 1564 Q1179.72 1559.04 1179.72 1550.57 Q1179.72 1541.82 1184.43 1536.69 Q1189.17 1531.54 1197.19 1531.54 Q1204.38 1531.54 1208.55 1536.18 Q1212.76 1540.8 1212.76 1548.76 M1206.9 1547.04 Q1206.84 1542.23 1204.19 1539.37 Q1201.58 1536.5 1197.25 1536.5 Q1192.35 1536.5 1189.39 1539.27 Q1186.46 1542.04 1186.02 1547.07 L1206.9 1547.04 Z" fill="#000000" fill-rule="nonzero" fill-opacity="1" /><path clip-path="url(#clip110)" d="M1252 1546.53 L1252 1568.04 L1246.14 1568.04 L1246.14 1546.72 Q1246.14 1541.66 1244.17 1539.14 Q1242.2 1536.63 1238.25 1536.63 Q1233.51 1536.63 1230.77 1539.65 Q1228.03 1542.68 1228.03 1547.9 L1228.03 1568.04 L1222.14 1568.04 L1222.14 1532.4 L1228.03 1532.4 L1228.03 1537.93 Q1230.13 1534.72 1232.97 1533.13 Q1235.83 1531.54 1239.55 1531.54 Q1245.7 1531.54 1248.85 1535.36 Q1252 1539.14 1252 1546.53 Z" fill="#000000" fill-rule="nonzero" fill-opacity="1" /><path clip-path="url(#clip110)" d="M1289.33 1533.76 L1289.33 1539.24 Q1286.85 1537.87 1284.34 1537.2 Q1281.86 1536.5 1279.31 1536.5 Q1273.61 1536.5 1270.46 1540.13 Q1267.31 1543.73 1267.31 1550.25 Q1267.31 1556.78 1270.46 1560.4 Q1273.61 1564 1279.31 1564 Q1281.86 1564 1284.34 1563.33 Q1286.85 1562.63 1289.33 1561.26 L1289.33 1566.68 Q1286.88 1567.82 1284.24 1568.39 Q1281.63 1568.97 1278.67 1568.97 Q1270.62 1568.97 1265.88 1563.91 Q1261.13 1558.85 1261.13 1550.25 Q1261.13 1541.53 1265.91 1536.53 Q1270.72 1531.54 1279.05 1531.54 Q1281.76 1531.54 1284.34 1532.11 Q1286.92 1532.65 1289.33 1533.76 Z" fill="#000000" fill-rule="nonzero" fill-opacity="1" /><path clip-path="url(#clip110)" d="M1299.52 1532.4 L1305.38 1532.4 L1305.38 1568.04 L1299.52 1568.04 L1299.52 1532.4 M1299.52 1518.52 L1305.38 1518.52 L1305.38 1525.93 L1299.52 1525.93 L1299.52 1518.52 Z" fill="#000000" fill-rule="nonzero" fill-opacity="1" /><path clip-path="url(#clip110)" d="M1348.12 1548.76 L1348.12 1551.62 L1321.2 1551.62 Q1321.58 1557.67 1324.82 1560.85 Q1328.1 1564 1333.93 1564 Q1337.3 1564 1340.45 1563.17 Q1343.63 1562.35 1346.75 1560.69 L1346.75 1566.23 Q1343.6 1567.57 1340.29 1568.27 Q1336.98 1568.97 1333.58 1568.97 Q1325.05 1568.97 1320.05 1564 Q1315.08 1559.04 1315.08 1550.57 Q1315.08 1541.82 1319.79 1536.69 Q1324.54 1531.54 1332.56 1531.54 Q1339.75 1531.54 1343.92 1536.18 Q1348.12 1540.8 1348.12 1548.76 M1342.27 1547.04 Q1342.2 1542.23 1339.56 1539.37 Q1336.95 1536.5 1332.62 1536.5 Q1327.72 1536.5 1324.76 1539.27 Q1321.83 1542.04 1321.39 1547.07 L1342.27 1547.04 Z" fill="#000000" fill-rule="nonzero" fill-opacity="1" /><path clip-path="url(#clip110)" d="M1380.46 1533.45 L1380.46 1538.98 Q1377.98 1537.71 1375.3 1537.07 Q1372.63 1536.44 1369.77 1536.44 Q1365.4 1536.44 1363.21 1537.77 Q1361.04 1539.11 1361.04 1541.79 Q1361.04 1543.82 1362.6 1545 Q1364.16 1546.15 1368.87 1547.2 L1370.88 1547.64 Q1377.12 1548.98 1379.73 1551.43 Q1382.37 1553.85 1382.37 1558.21 Q1382.37 1563.17 1378.42 1566.07 Q1374.51 1568.97 1367.63 1568.97 Q1364.77 1568.97 1361.65 1568.39 Q1358.56 1567.85 1355.12 1566.74 L1355.12 1560.69 Q1358.37 1562.38 1361.52 1563.24 Q1364.67 1564.07 1367.76 1564.07 Q1371.9 1564.07 1374.13 1562.66 Q1376.35 1561.23 1376.35 1558.65 Q1376.35 1556.27 1374.73 1554.99 Q1373.14 1553.72 1367.7 1552.54 L1365.66 1552.07 Q1360.22 1550.92 1357.8 1548.56 Q1355.38 1546.18 1355.38 1542.04 Q1355.38 1537.01 1358.94 1534.27 Q1362.51 1531.54 1369.07 1531.54 Q1372.31 1531.54 1375.18 1532.01 Q1378.04 1532.49 1380.46 1533.45 Z" fill="#000000" fill-rule="nonzero" fill-opacity="1" /><path clip-path="url(#clip110)" d="M1411.87 1518.52 L1425.37 1518.52 L1425.37 1523.07 L1417.73 1523.07 L1417.73 1572.09 L1425.37 1572.09 L1425.37 1576.64 L1411.87 1576.64 L1411.87 1518.52 Z" fill="#000000" fill-rule="nonzero" fill-opacity="1" /><path clip-path="url(#clip110)" d="M1470.5 1561.26 L1470.5 1548.5 L1460 1548.5 L1460 1543.22 L1476.87 1543.22 L1476.87 1563.62 Q1473.14 1566.26 1468.66 1567.63 Q1464.17 1568.97 1459.08 1568.97 Q1447.94 1568.97 1441.63 1562.47 Q1435.36 1555.95 1435.36 1544.33 Q1435.36 1532.68 1441.63 1526.19 Q1447.94 1519.66 1459.08 1519.66 Q1463.72 1519.66 1467.89 1520.81 Q1472.09 1521.96 1475.63 1524.18 L1475.63 1531.03 Q1472.06 1528 1468.05 1526.48 Q1464.04 1524.95 1459.62 1524.95 Q1450.9 1524.95 1446.5 1529.82 Q1442.14 1534.69 1442.14 1544.33 Q1442.14 1553.94 1446.5 1558.81 Q1450.9 1563.68 1459.62 1563.68 Q1463.02 1563.68 1465.7 1563.11 Q1468.37 1562.51 1470.5 1561.26 Z" fill="#000000" fill-rule="nonzero" fill-opacity="1" /><path clip-path="url(#clip110)" d="M1488.61 1520.52 L1495.04 1520.52 L1495.04 1540 L1518.4 1540 L1518.4 1520.52 L1524.83 1520.52 L1524.83 1568.04 L1518.4 1568.04 L1518.4 1545.41 L1495.04 1545.41 L1495.04 1568.04 L1488.61 1568.04 L1488.61 1520.52 Z" fill="#000000" fill-rule="nonzero" fill-opacity="1" /><path clip-path="url(#clip110)" d="M1534.83 1532.4 L1562.65 1532.4 L1562.65 1537.74 L1540.62 1563.37 L1562.65 1563.37 L1562.65 1568.04 L1534.03 1568.04 L1534.03 1562.7 L1556.06 1537.07 L1534.83 1537.07 L1534.83 1532.4 Z" fill="#000000" fill-rule="nonzero" fill-opacity="1" /><path clip-path="url(#clip110)" d="M1585.28 1518.52 L1585.28 1576.64 L1571.78 1576.64 L1571.78 1572.09 L1579.39 1572.09 L1579.39 1523.07 L1571.78 1523.07 L1571.78 1518.52 L1585.28 1518.52 Z" fill="#000000" fill-rule="nonzero" fill-opacity="1" /><polyline clip-path="url(#clip110)" style="stroke:#000000; stroke-linecap:round; stroke-linejoin:round; stroke-width:4; stroke-opacity:1; fill:none" points="234.125,1423.18 234.125,47.2441 "/>
<polyline clip-path="url(#clip110)" style="stroke:#000000; stroke-linecap:round; stroke-linejoin:round; stroke-width:4; stroke-opacity:1; fill:none" points="234.125,1279.84 253.023,1279.84 "/>
<polyline clip-path="url(#clip110)" style="stroke:#000000; stroke-linecap:round; stroke-linejoin:round; stroke-width:4; stroke-opacity:1; fill:none" points="234.125,1030.57 253.023,1030.57 "/>
<polyline clip-path="url(#clip110)" style="stroke:#000000; stroke-linecap:round; stroke-linejoin:round; stroke-width:4; stroke-opacity:1; fill:none" points="234.125,781.296 253.023,781.296 "/>
<polyline clip-path="url(#clip110)" style="stroke:#000000; stroke-linecap:round; stroke-linejoin:round; stroke-width:4; stroke-opacity:1; fill:none" points="234.125,532.026 253.023,532.026 "/>
<polyline clip-path="url(#clip110)" style="stroke:#000000; stroke-linecap:round; stroke-linejoin:round; stroke-width:4; stroke-opacity:1; fill:none" points="234.125,282.755 253.023,282.755 "/>
<path clip-path="url(#clip110)" d="M119.885 1293.18 L136.204 1293.18 L136.204 1297.12 L114.26 1297.12 L114.26 1293.18 Q116.922 1290.43 121.505 1285.8 Q126.112 1281.15 127.292 1279.8 Q129.538 1277.28 130.417 1275.54 Q131.32 1273.78 131.32 1272.09 Q131.32 1269.34 129.376 1267.6 Q127.455 1265.87 124.353 1265.87 Q122.154 1265.87 119.7 1266.63 Q117.269 1267.4 114.492 1268.95 L114.492 1264.22 Q117.316 1263.09 119.769 1262.51 Q122.223 1261.93 124.26 1261.93 Q129.63 1261.93 132.825 1264.62 Q136.019 1267.3 136.019 1271.79 Q136.019 1273.92 135.209 1275.84 Q134.422 1277.74 132.316 1280.33 Q131.737 1281.01 128.635 1284.22 Q125.533 1287.42 119.885 1293.18 Z" fill="#000000" fill-rule="nonzero" fill-opacity="1" /><path clip-path="url(#clip110)" d="M158.866 1266.63 L147.061 1285.08 L158.866 1285.08 L158.866 1266.63 M157.64 1262.56 L163.519 1262.56 L163.519 1285.08 L168.45 1285.08 L168.45 1288.97 L163.519 1288.97 L163.519 1297.12 L158.866 1297.12 L158.866 1288.97 L143.265 1288.97 L143.265 1284.46 L157.64 1262.56 Z" fill="#000000" fill-rule="nonzero" fill-opacity="1" /><path clip-path="url(#clip110)" d="M186.181 1265.64 Q182.57 1265.64 180.741 1269.2 Q178.936 1272.74 178.936 1279.87 Q178.936 1286.98 180.741 1290.54 Q182.57 1294.08 186.181 1294.08 Q189.815 1294.08 191.621 1290.54 Q193.45 1286.98 193.45 1279.87 Q193.45 1272.74 191.621 1269.2 Q189.815 1265.64 186.181 1265.64 M186.181 1261.93 Q191.991 1261.93 195.047 1266.54 Q198.125 1271.12 198.125 1279.87 Q198.125 1288.6 195.047 1293.21 Q191.991 1297.79 186.181 1297.79 Q180.371 1297.79 177.292 1293.21 Q174.237 1288.6 174.237 1279.87 Q174.237 1271.12 177.292 1266.54 Q180.371 1261.93 186.181 1261.93 Z" fill="#000000" fill-rule="nonzero" fill-opacity="1" /><path clip-path="url(#clip110)" d="M119.885 1043.91 L136.204 1043.91 L136.204 1047.85 L114.26 1047.85 L114.26 1043.91 Q116.922 1041.16 121.505 1036.53 Q126.112 1031.87 127.292 1030.53 Q129.538 1028.01 130.417 1026.27 Q131.32 1024.51 131.32 1022.82 Q131.32 1020.07 129.376 1018.33 Q127.455 1016.6 124.353 1016.6 Q122.154 1016.6 119.7 1017.36 Q117.269 1018.12 114.492 1019.68 L114.492 1014.95 Q117.316 1013.82 119.769 1013.24 Q122.223 1012.66 124.26 1012.66 Q129.63 1012.66 132.825 1015.35 Q136.019 1018.03 136.019 1022.52 Q136.019 1024.65 135.209 1026.57 Q134.422 1028.47 132.316 1031.06 Q131.737 1031.74 128.635 1034.95 Q125.533 1038.15 119.885 1043.91 Z" fill="#000000" fill-rule="nonzero" fill-opacity="1" /><path clip-path="url(#clip110)" d="M156.598 1028.7 Q153.45 1028.7 151.598 1030.86 Q149.769 1033.01 149.769 1036.76 Q149.769 1040.49 151.598 1042.66 Q153.45 1044.81 156.598 1044.81 Q159.746 1044.81 161.575 1042.66 Q163.427 1040.49 163.427 1036.76 Q163.427 1033.01 161.575 1030.86 Q159.746 1028.7 156.598 1028.7 M165.88 1014.05 L165.88 1018.31 Q164.121 1017.48 162.315 1017.04 Q160.533 1016.6 158.774 1016.6 Q154.144 1016.6 151.691 1019.72 Q149.26 1022.85 148.913 1029.17 Q150.278 1027.15 152.339 1026.09 Q154.399 1025 156.876 1025 Q162.084 1025 165.093 1028.17 Q168.126 1031.32 168.126 1036.76 Q168.126 1042.08 164.977 1045.3 Q161.829 1048.52 156.598 1048.52 Q150.603 1048.52 147.431 1043.93 Q144.26 1039.33 144.26 1030.6 Q144.26 1022.41 148.149 1017.55 Q152.038 1012.66 158.589 1012.66 Q160.348 1012.66 162.13 1013.01 Q163.936 1013.36 165.88 1014.05 Z" fill="#000000" fill-rule="nonzero" fill-opacity="1" /><path clip-path="url(#clip110)" d="M186.181 1016.37 Q182.57 1016.37 180.741 1019.93 Q178.936 1023.47 178.936 1030.6 Q178.936 1037.71 180.741 1041.27 Q182.57 1044.81 186.181 1044.81 Q189.815 1044.81 191.621 1041.27 Q193.45 1037.71 193.45 1030.6 Q193.45 1023.47 191.621 1019.93 Q189.815 1016.37 186.181 1016.37 M186.181 1012.66 Q191.991 1012.66 195.047 1017.27 Q198.125 1021.85 198.125 1030.6 Q198.125 1039.33 195.047 1043.93 Q191.991 1048.52 186.181 1048.52 Q180.371 1048.52 177.292 1043.93 Q174.237 1039.33 174.237 1030.6 Q174.237 1021.85 177.292 1017.27 Q180.371 1012.66 186.181 1012.66 Z" fill="#000000" fill-rule="nonzero" fill-opacity="1" /><path clip-path="url(#clip110)" d="M119.885 794.641 L136.204 794.641 L136.204 798.576 L114.26 798.576 L114.26 794.641 Q116.922 791.887 121.505 787.257 Q126.112 782.604 127.292 781.262 Q129.538 778.738 130.417 777.002 Q131.32 775.243 131.32 773.553 Q131.32 770.799 129.376 769.063 Q127.455 767.326 124.353 767.326 Q122.154 767.326 119.7 768.09 Q117.269 768.854 114.492 770.405 L114.492 765.683 Q117.316 764.549 119.769 763.97 Q122.223 763.391 124.26 763.391 Q129.63 763.391 132.825 766.076 Q136.019 768.762 136.019 773.252 Q136.019 775.382 135.209 777.303 Q134.422 779.201 132.316 781.794 Q131.737 782.465 128.635 785.683 Q125.533 788.877 119.885 794.641 Z" fill="#000000" fill-rule="nonzero" fill-opacity="1" /><path clip-path="url(#clip110)" d="M156.019 782.164 Q152.686 782.164 150.765 783.947 Q148.866 785.729 148.866 788.854 Q148.866 791.979 150.765 793.761 Q152.686 795.544 156.019 795.544 Q159.353 795.544 161.274 793.761 Q163.195 791.956 163.195 788.854 Q163.195 785.729 161.274 783.947 Q159.376 782.164 156.019 782.164 M151.343 780.174 Q148.334 779.433 146.644 777.373 Q144.978 775.313 144.978 772.35 Q144.978 768.206 147.917 765.799 Q150.88 763.391 156.019 763.391 Q161.181 763.391 164.121 765.799 Q167.061 768.206 167.061 772.35 Q167.061 775.313 165.371 777.373 Q163.704 779.433 160.718 780.174 Q164.098 780.961 165.973 783.252 Q167.871 785.544 167.871 788.854 Q167.871 793.877 164.792 796.562 Q161.737 799.248 156.019 799.248 Q150.302 799.248 147.223 796.562 Q144.167 793.877 144.167 788.854 Q144.167 785.544 146.066 783.252 Q147.964 780.961 151.343 780.174 M149.63 772.789 Q149.63 775.475 151.297 776.979 Q152.987 778.484 156.019 778.484 Q159.028 778.484 160.718 776.979 Q162.431 775.475 162.431 772.789 Q162.431 770.104 160.718 768.6 Q159.028 767.095 156.019 767.095 Q152.987 767.095 151.297 768.6 Q149.63 770.104 149.63 772.789 Z" fill="#000000" fill-rule="nonzero" fill-opacity="1" /><path clip-path="url(#clip110)" d="M186.181 767.095 Q182.57 767.095 180.741 770.66 Q178.936 774.201 178.936 781.331 Q178.936 788.437 180.741 792.002 Q182.57 795.544 186.181 795.544 Q189.815 795.544 191.621 792.002 Q193.45 788.437 193.45 781.331 Q193.45 774.201 191.621 770.66 Q189.815 767.095 186.181 767.095 M186.181 763.391 Q191.991 763.391 195.047 767.998 Q198.125 772.581 198.125 781.331 Q198.125 790.058 195.047 794.664 Q191.991 799.248 186.181 799.248 Q180.371 799.248 177.292 794.664 Q174.237 790.058 174.237 781.331 Q174.237 772.581 177.292 767.998 Q180.371 763.391 186.181 763.391 Z" fill="#000000" fill-rule="nonzero" fill-opacity="1" /><path clip-path="url(#clip110)" d="M130.024 530.672 Q133.38 531.389 135.255 533.658 Q137.154 535.926 137.154 539.26 Q137.154 544.375 133.635 547.176 Q130.117 549.977 123.635 549.977 Q121.459 549.977 119.144 549.537 Q116.853 549.121 114.399 548.264 L114.399 543.75 Q116.343 544.884 118.658 545.463 Q120.973 546.042 123.496 546.042 Q127.894 546.042 130.186 544.306 Q132.501 542.57 132.501 539.26 Q132.501 536.204 130.348 534.491 Q128.218 532.755 124.399 532.755 L120.371 532.755 L120.371 528.912 L124.584 528.912 Q128.033 528.912 129.862 527.547 Q131.691 526.158 131.691 523.565 Q131.691 520.903 129.792 519.491 Q127.917 518.056 124.399 518.056 Q122.478 518.056 120.279 518.473 Q118.08 518.889 115.441 519.769 L115.441 515.602 Q118.103 514.862 120.418 514.491 Q122.755 514.121 124.816 514.121 Q130.14 514.121 133.242 516.551 Q136.343 518.959 136.343 523.079 Q136.343 525.949 134.7 527.94 Q133.056 529.908 130.024 530.672 Z" fill="#000000" fill-rule="nonzero" fill-opacity="1" /><path clip-path="url(#clip110)" d="M156.019 517.824 Q152.408 517.824 150.579 521.389 Q148.774 524.931 148.774 532.06 Q148.774 539.167 150.579 542.732 Q152.408 546.273 156.019 546.273 Q159.653 546.273 161.459 542.732 Q163.288 539.167 163.288 532.06 Q163.288 524.931 161.459 521.389 Q159.653 517.824 156.019 517.824 M156.019 514.121 Q161.829 514.121 164.885 518.727 Q167.964 523.311 167.964 532.06 Q167.964 540.787 164.885 545.394 Q161.829 549.977 156.019 549.977 Q150.209 549.977 147.13 545.394 Q144.075 540.787 144.075 532.06 Q144.075 523.311 147.13 518.727 Q150.209 514.121 156.019 514.121 Z" fill="#000000" fill-rule="nonzero" fill-opacity="1" /><path clip-path="url(#clip110)" d="M186.181 517.824 Q182.57 517.824 180.741 521.389 Q178.936 524.931 178.936 532.06 Q178.936 539.167 180.741 542.732 Q182.57 546.273 186.181 546.273 Q189.815 546.273 191.621 542.732 Q193.45 539.167 193.45 532.06 Q193.45 524.931 191.621 521.389 Q189.815 517.824 186.181 517.824 M186.181 514.121 Q191.991 514.121 195.047 518.727 Q198.125 523.311 198.125 532.06 Q198.125 540.787 195.047 545.394 Q191.991 549.977 186.181 549.977 Q180.371 549.977 177.292 545.394 Q174.237 540.787 174.237 532.06 Q174.237 523.311 177.292 518.727 Q180.371 514.121 186.181 514.121 Z" fill="#000000" fill-rule="nonzero" fill-opacity="1" /><path clip-path="url(#clip110)" d="M130.024 281.401 Q133.38 282.119 135.255 284.387 Q137.154 286.656 137.154 289.989 Q137.154 295.105 133.635 297.906 Q130.117 300.707 123.635 300.707 Q121.459 300.707 119.144 300.267 Q116.853 299.85 114.399 298.994 L114.399 294.48 Q116.343 295.614 118.658 296.193 Q120.973 296.771 123.496 296.771 Q127.894 296.771 130.186 295.035 Q132.501 293.299 132.501 289.989 Q132.501 286.933 130.348 285.221 Q128.218 283.484 124.399 283.484 L120.371 283.484 L120.371 279.642 L124.584 279.642 Q128.033 279.642 129.862 278.276 Q131.691 276.887 131.691 274.295 Q131.691 271.633 129.792 270.221 Q127.917 268.785 124.399 268.785 Q122.478 268.785 120.279 269.202 Q118.08 269.619 115.441 270.498 L115.441 266.332 Q118.103 265.591 120.418 265.221 Q122.755 264.85 124.816 264.85 Q130.14 264.85 133.242 267.281 Q136.343 269.688 136.343 273.809 Q136.343 276.679 134.7 278.67 Q133.056 280.637 130.024 281.401 Z" fill="#000000" fill-rule="nonzero" fill-opacity="1" /><path clip-path="url(#clip110)" d="M150.047 296.1 L166.366 296.1 L166.366 300.035 L144.422 300.035 L144.422 296.1 Q147.084 293.345 151.667 288.716 Q156.274 284.063 157.454 282.721 Q159.7 280.197 160.579 278.461 Q161.482 276.702 161.482 275.012 Q161.482 272.258 159.538 270.522 Q157.616 268.785 154.515 268.785 Q152.316 268.785 149.862 269.549 Q147.431 270.313 144.654 271.864 L144.654 267.142 Q147.478 266.008 149.931 265.429 Q152.385 264.85 154.422 264.85 Q159.792 264.85 162.987 267.535 Q166.181 270.221 166.181 274.711 Q166.181 276.841 165.371 278.762 Q164.584 280.66 162.477 283.253 Q161.899 283.924 158.797 287.142 Q155.695 290.336 150.047 296.1 Z" fill="#000000" fill-rule="nonzero" fill-opacity="1" /><path clip-path="url(#clip110)" d="M186.181 268.554 Q182.57 268.554 180.741 272.119 Q178.936 275.66 178.936 282.79 Q178.936 289.896 180.741 293.461 Q182.57 297.003 186.181 297.003 Q189.815 297.003 191.621 293.461 Q193.45 289.896 193.45 282.79 Q193.45 275.66 191.621 272.119 Q189.815 268.554 186.181 268.554 M186.181 264.85 Q191.991 264.85 195.047 269.457 Q198.125 274.04 198.125 282.79 Q198.125 291.517 195.047 296.123 Q191.991 300.707 186.181 300.707 Q180.371 300.707 177.292 296.123 Q174.237 291.517 174.237 282.79 Q174.237 274.04 177.292 269.457 Q180.371 264.85 186.181 264.85 Z" fill="#000000" fill-rule="nonzero" fill-opacity="1" /><path clip-path="url(#clip110)" d="M41.3104 969.884 L58.7206 969.884 L58.7206 959.571 Q58.7206 954.383 56.5881 951.901 Q54.4238 949.386 49.9996 949.386 Q45.5436 949.386 43.4429 951.901 Q41.3104 954.383 41.3104 959.571 L41.3104 969.884 M21.7677 969.884 L36.0905 969.884 L36.0905 960.367 Q36.0905 955.656 34.34 953.365 Q32.5576 951.041 28.9291 951.041 Q25.3325 951.041 23.5501 953.365 Q21.7677 955.656 21.7677 960.367 L21.7677 969.884 M16.4842 976.313 L16.4842 959.89 Q16.4842 952.537 19.5397 948.559 Q22.5952 944.58 28.2289 944.58 Q32.5894 944.58 35.1675 946.617 Q37.7456 948.654 38.3822 952.601 Q39.4007 947.858 42.6472 945.248 Q45.8619 942.607 50.6998 942.607 Q57.0655 942.607 60.5348 946.935 Q64.0042 951.264 64.0042 959.253 L64.0042 976.313 L16.4842 976.313 Z" fill="#000000" fill-rule="nonzero" fill-opacity="1" /><path clip-path="url(#clip110)" d="M32.4621 918.035 Q32.4621 922.746 36.1542 925.483 Q39.8145 928.22 46.212 928.22 Q52.6095 928.22 56.3017 925.515 Q59.9619 922.778 59.9619 918.035 Q59.9619 913.356 56.2698 910.619 Q52.5777 907.882 46.212 907.882 Q39.8781 907.882 36.186 910.619 Q32.4621 913.356 32.4621 918.035 M27.4968 918.035 Q27.4968 910.396 32.4621 906.036 Q37.4273 901.675 46.212 901.675 Q54.9649 901.675 59.9619 906.036 Q64.9272 910.396 64.9272 918.035 Q64.9272 925.706 59.9619 930.066 Q54.9649 934.395 46.212 934.395 Q37.4273 934.395 32.4621 930.066 Q27.4968 925.706 27.4968 918.035 Z" fill="#000000" fill-rule="nonzero" fill-opacity="1" /><path clip-path="url(#clip110)" d="M32.4621 878.154 Q32.4621 882.865 36.1542 885.602 Q39.8145 888.339 46.212 888.339 Q52.6095 888.339 56.3017 885.634 Q59.9619 882.896 59.9619 878.154 Q59.9619 873.475 56.2698 870.738 Q52.5777 868.001 46.212 868.001 Q39.8781 868.001 36.186 870.738 Q32.4621 873.475 32.4621 878.154 M27.4968 878.154 Q27.4968 870.515 32.4621 866.155 Q37.4273 861.794 46.212 861.794 Q54.9649 861.794 59.9619 866.155 Q64.9272 870.515 64.9272 878.154 Q64.9272 885.825 59.9619 890.185 Q54.9649 894.514 46.212 894.514 Q37.4273 894.514 32.4621 890.185 Q27.4968 885.825 27.4968 878.154 Z" fill="#000000" fill-rule="nonzero" fill-opacity="1" /><path clip-path="url(#clip110)" d="M29.4065 829.361 L34.9447 829.361 Q33.6716 831.843 33.035 834.517 Q32.3984 837.191 32.3984 840.055 Q32.3984 844.416 33.7352 846.612 Q35.072 848.776 37.7456 848.776 Q39.7826 848.776 40.9603 847.217 Q42.1061 845.657 43.1565 840.946 L43.6021 838.941 Q44.9389 832.703 47.3897 830.093 Q49.8086 827.451 54.1691 827.451 Q59.1344 827.451 62.0308 831.398 Q64.9272 835.313 64.9272 842.188 Q64.9272 845.052 64.3543 848.171 Q63.8132 851.259 62.6992 854.696 L56.6518 854.696 Q58.3387 851.45 59.198 848.299 Q60.0256 845.148 60.0256 842.06 Q60.0256 837.923 58.6251 835.695 Q57.1929 833.467 54.6147 833.467 Q52.2276 833.467 50.9545 835.09 Q49.6813 836.681 48.5037 842.124 L48.0262 844.161 Q46.8804 849.604 44.5251 852.023 Q42.138 854.442 38.0002 854.442 Q32.9713 854.442 30.2341 850.877 Q27.4968 847.312 27.4968 840.755 Q27.4968 837.509 27.9743 834.644 Q28.4517 831.78 29.4065 829.361 Z" fill="#000000" fill-rule="nonzero" fill-opacity="1" /><path clip-path="url(#clip110)" d="M18.2347 812.333 L28.3562 812.333 L28.3562 800.269 L32.9077 800.269 L32.9077 812.333 L52.2594 812.333 Q56.6199 812.333 57.8613 811.155 Q59.1026 809.945 59.1026 806.285 L59.1026 800.269 L64.0042 800.269 L64.0042 806.285 Q64.0042 813.065 61.4897 815.643 Q58.9434 818.221 52.2594 818.221 L32.9077 818.221 L32.9077 822.518 L28.3562 822.518 L28.3562 818.221 L18.2347 818.221 L18.2347 812.333 Z" fill="#000000" fill-rule="nonzero" fill-opacity="1" /><path clip-path="url(#clip110)" d="M16.4842 771.592 L16.4842 744.283 L21.895 744.283 L21.895 765.163 L35.8996 765.163 L35.8996 746.32 L41.3104 746.32 L41.3104 765.163 L64.0042 765.163 L64.0042 771.592 L16.4842 771.592 Z" fill="#000000" fill-rule="nonzero" fill-opacity="1" /><path clip-path="url(#clip110)" d="M46.0847 724.136 Q46.0847 731.233 47.7079 733.971 Q49.3312 736.708 53.2461 736.708 Q56.3653 736.708 58.2114 734.671 Q60.0256 732.602 60.0256 729.069 Q60.0256 724.199 56.5881 721.271 Q53.1188 718.311 47.3897 718.311 L46.0847 718.311 L46.0847 724.136 M43.6657 712.455 L64.0042 712.455 L64.0042 718.311 L58.5933 718.311 Q61.8398 720.316 63.3994 723.308 Q64.9272 726.3 64.9272 730.629 Q64.9272 736.103 61.8716 739.35 Q58.7843 742.564 53.6281 742.564 Q47.6125 742.564 44.5569 738.554 Q41.5014 734.512 41.5014 726.523 L41.5014 718.311 L40.9285 718.311 Q36.8862 718.311 34.6901 720.985 Q32.4621 723.626 32.4621 728.432 Q32.4621 731.488 33.1941 734.384 Q33.9262 737.281 35.3903 739.954 L29.9795 739.954 Q28.7381 736.74 28.1334 733.716 Q27.4968 730.692 27.4968 727.828 Q27.4968 720.093 31.5072 716.274 Q35.5176 712.455 43.6657 712.455 Z" fill="#000000" fill-rule="nonzero" fill-opacity="1" /><path clip-path="url(#clip110)" d="M29.7248 674.738 L35.1993 674.738 Q33.8307 677.22 33.1623 679.735 Q32.4621 682.217 32.4621 684.764 Q32.4621 690.461 36.0905 693.612 Q39.6872 696.763 46.212 696.763 Q52.7369 696.763 56.3653 693.612 Q59.9619 690.461 59.9619 684.764 Q59.9619 682.217 59.2935 679.735 Q58.5933 677.22 57.2247 674.738 L62.6355 674.738 Q63.7814 677.189 64.3543 679.83 Q64.9272 682.44 64.9272 685.4 Q64.9272 693.453 59.8664 698.195 Q54.8057 702.938 46.212 702.938 Q37.491 702.938 32.4939 698.164 Q27.4968 693.357 27.4968 685.018 Q27.4968 682.313 28.0697 679.735 Q28.6108 677.157 29.7248 674.738 Z" fill="#000000" fill-rule="nonzero" fill-opacity="1" /><path clip-path="url(#clip110)" d="M18.2347 658.76 L28.3562 658.76 L28.3562 646.697 L32.9077 646.697 L32.9077 658.76 L52.2594 658.76 Q56.6199 658.76 57.8613 657.582 Q59.1026 656.373 59.1026 652.712 L59.1026 646.697 L64.0042 646.697 L64.0042 652.712 Q64.0042 659.492 61.4897 662.07 Q58.9434 664.648 52.2594 664.648 L32.9077 664.648 L32.9077 668.945 L28.3562 668.945 L28.3562 664.648 L18.2347 664.648 L18.2347 658.76 Z" fill="#000000" fill-rule="nonzero" fill-opacity="1" /><path clip-path="url(#clip110)" d="M32.4621 625.181 Q32.4621 629.891 36.1542 632.629 Q39.8145 635.366 46.212 635.366 Q52.6095 635.366 56.3017 632.66 Q59.9619 629.923 59.9619 625.181 Q59.9619 620.502 56.2698 617.765 Q52.5777 615.027 46.212 615.027 Q39.8781 615.027 36.186 617.765 Q32.4621 620.502 32.4621 625.181 M27.4968 625.181 Q27.4968 617.542 32.4621 613.181 Q37.4273 608.821 46.212 608.821 Q54.9649 608.821 59.9619 613.181 Q64.9272 617.542 64.9272 625.181 Q64.9272 632.851 59.9619 637.212 Q54.9649 641.541 46.212 641.541 Q37.4273 641.541 32.4621 637.212 Q27.4968 632.851 27.4968 625.181 Z" fill="#000000" fill-rule="nonzero" fill-opacity="1" /><path clip-path="url(#clip110)" d="M33.8307 578.456 Q33.2578 579.443 33.0032 580.621 Q32.7167 581.767 32.7167 583.167 Q32.7167 588.132 35.9632 590.806 Q39.1779 593.448 45.2253 593.448 L64.0042 593.448 L64.0042 599.336 L28.3562 599.336 L28.3562 593.448 L33.8944 593.448 Q30.6479 591.602 29.0883 588.642 Q27.4968 585.682 27.4968 581.448 Q27.4968 580.844 27.5923 580.112 Q27.656 579.379 27.8151 578.488 L33.8307 578.456 Z" fill="#000000" fill-rule="nonzero" fill-opacity="1" /><path clip-path="url(#clip110)" d="M61.808 545.737 L77.5631 545.737 L77.5631 551.625 L28.579 551.625 Q14.0652 551.625 14.0652 538.066 Q14.0652 524.252 26.3192 524.252 Q35.0402 524.252 38.223 529.727 Q41.0876 520.815 49.5858 520.815 Q64.6726 520.815 64.6726 536.156 Q64.6726 542.904 61.808 545.737 M54.1691 545.737 Q59.6755 542.204 59.6755 535.934 Q59.6755 526.767 49.6813 526.767 Q40.7057 526.767 41.4059 541.535 L35.995 541.535 Q35.995 529.982 25.8099 529.982 Q18.8395 529.982 18.8395 537.429 Q18.8395 545.737 28.77 545.737 L54.1691 545.737 Z" fill="#000000" fill-rule="nonzero" fill-opacity="1" /><path clip-path="url(#clip110)" d="M39.1142 507.606 L39.1142 494.111 L42.7427 494.111 L42.7427 513.144 L39.2416 513.144 Q38.2549 512.062 36.4725 510.057 Q26.7648 499.108 23.7729 499.108 Q21.6722 499.108 20.3991 500.763 Q19.0941 502.418 19.0941 505.124 Q19.0941 506.779 19.667 508.72 Q20.2081 510.662 21.3221 512.953 L17.4072 512.953 Q16.516 510.503 16.0704 508.402 Q15.6248 506.269 15.6248 504.455 Q15.6248 499.84 17.7255 497.071 Q19.8262 494.302 23.2636 494.302 Q27.6878 494.302 36.7271 504.837 Q38.2549 506.619 39.1142 507.606 Z" fill="#000000" fill-rule="nonzero" fill-opacity="1" /><polyline clip-path="url(#clip112)" style="stroke:#009af9; stroke-linecap:round; stroke-linejoin:round; stroke-width:4; stroke-opacity:1; fill:none" points="294.087,86.1857 296.087,89.3195 298.088,92.491 300.089,95.6995 302.09,98.9444 304.09,102.225 306.091,105.541 308.092,108.892 310.092,112.276 312.093,115.694 314.094,119.144 316.094,122.627 318.095,126.141 320.096,129.686 322.097,133.262 324.097,136.867 326.098,140.502 328.099,144.165 330.099,147.856 332.1,151.575 334.101,155.321 336.102,159.093 338.102,162.891 340.103,166.714 342.104,170.562 344.104,174.435 346.105,178.331 348.106,182.25 350.107,186.192 352.107,190.156 354.108,194.142 356.109,198.149 358.109,202.176 360.11,206.224 362.111,210.291 364.111,214.378 366.112,218.483 368.113,222.606 370.114,226.747 372.114,230.906 374.115,235.081 376.116,239.272 378.116,243.48 380.117,247.702 382.118,251.94 384.119,256.193 386.119,260.459 388.12,264.739 390.121,269.032 392.121,273.339 394.122,277.657 396.123,281.988 398.124,286.33 400.124,290.683 402.125,295.048 404.126,299.422 406.126,303.807 408.127,308.201 410.128,312.605 412.129,317.017 414.129,321.438 416.13,325.867 418.131,330.304 420.131,334.748 422.132,339.199 424.133,343.657 426.133,348.121 428.134,352.591 430.135,357.067 432.136,361.549 434.136,366.035 436.137,370.526 438.138,375.022 440.138,379.521 442.139,384.024 444.14,388.531 446.141,393.041 448.141,397.553 450.142,402.069 452.143,406.586 454.143,411.105 456.144,415.626 458.145,420.149 460.146,424.672 462.146,429.197 464.147,433.721 466.148,438.247 468.148,442.772 470.149,447.297 472.15,451.822 474.15,456.345 476.151,460.868 478.152,465.39 480.153,469.91 482.153,474.429 484.154,478.945 486.155,483.46 488.155,487.972 490.156,492.481 492.157,496.988 494.158,501.491 496.158,505.992 498.159,510.488 500.16,514.981 502.16,519.471 504.161,523.956 506.162,528.437 508.163,532.913 510.163,537.385 512.164,541.852 514.165,546.313 516.165,550.77 518.166,555.221 520.167,559.667 522.167,564.106 524.168,568.54 526.169,572.968 528.17,577.389 530.17,581.804 532.171,586.213 534.172,590.614 536.172,595.009 538.173,599.397 540.174,603.777 542.175,608.15 544.175,612.516 546.176,616.874 548.177,621.224 550.177,625.566 552.178,629.9 554.179,634.226 556.18,638.543 558.18,642.852 560.181,647.153 562.182,651.445 564.182,655.727 566.183,660.001 568.184,664.266 570.184,668.522 572.185,672.768 574.186,677.005 576.187,681.233 578.187,685.45 580.188,689.658 582.189,693.856 584.189,698.045 586.19,702.223 588.191,706.391 590.192,710.549 592.192,714.696 594.193,718.833 596.194,722.959 598.194,727.075 600.195,731.18 602.196,735.275 604.197,739.358 606.197,743.431 608.198,747.492 610.199,751.543 612.199,755.582 614.2,759.61 616.201,763.627 618.201,767.632 620.202,771.626 622.203,775.608 624.204,779.579 626.204,783.537 628.205,787.485 630.206,791.42 632.206,795.344 634.207,799.255 636.208,803.155 638.209,807.042 640.209,810.918 642.21,814.781 644.211,818.632 646.211,822.471 648.212,826.297 650.213,830.112 652.214,833.913 654.214,837.703 656.215,841.479 658.216,845.244 660.216,848.995 662.217,852.734 664.218,856.461 666.219,860.174 668.219,863.875 670.22,867.563 672.221,871.238 674.221,874.9 676.222,878.55 678.223,882.186 680.223,885.81 682.224,889.42 684.225,893.018 686.226,896.602 688.226,900.173 690.227,903.732 692.228,907.277 694.228,910.808 696.229,914.327 698.23,917.832 700.231,921.324 702.231,924.803 704.232,928.269 706.233,931.721 708.233,935.16 710.234,938.585 712.235,941.997 714.236,945.396 716.236,948.781 718.237,952.153 720.238,955.511 722.238,958.856 724.239,962.188 726.24,965.505 728.24,968.81 730.241,972.101 732.242,975.378 734.243,978.642 736.243,981.892 738.244,985.128 740.245,988.351 742.245,991.561 744.246,994.756 746.247,997.939 748.248,1001.11 750.248,1004.26 752.249,1007.4 754.25,1010.53 756.25,1013.64 758.251,1016.75 760.252,1019.83 762.253,1022.9 764.253,1025.96 766.254,1029.01 768.255,1032.04 770.255,1035.06 772.256,1038.06 774.257,1041.06 776.257,1044.03 778.258,1047 780.259,1049.95 782.26,1052.88 784.26,1055.8 786.261,1058.71 788.262,1061.61 790.262,1064.49 792.263,1067.36 794.264,1070.21 796.265,1073.05 798.265,1075.88 800.266,1078.69 802.267,1081.49 804.267,1084.28 806.268,1087.05 808.269,1089.81 810.27,1092.55 812.27,1095.28 814.271,1098 816.272,1100.71 818.272,1103.4 820.273,1106.07 822.274,1108.74 824.274,1111.39 826.275,1114.02 828.276,1116.64 830.277,1119.25 832.277,1121.85 834.278,1124.43 836.279,1127 838.279,1129.55 840.28,1132.09 842.281,1134.62 844.282,1137.13 846.282,1139.63 848.283,1142.12 850.284,1144.59 852.284,1147.05 854.285,1149.5 856.286,1151.93 858.287,1154.35 860.287,1156.76 862.288,1159.15 864.289,1161.53 866.289,1163.9 868.29,1166.25 870.291,1168.59 872.291,1170.91 874.292,1173.23 876.293,1175.52 878.294,1177.81 880.294,1180.08 882.295,1182.34 884.296,1184.59 886.296,1186.82 888.297,1189.04 890.298,1191.24 892.299,1193.44 894.299,1195.62 896.3,1197.78 898.301,1199.93 900.301,1202.07 902.302,1204.2 904.303,1206.31 906.304,1208.41 908.304,1210.5 910.305,1212.57 912.306,1214.63 914.306,1216.68 916.307,1218.72 918.308,1220.74 920.309,1222.75 922.309,1224.74 924.31,1226.72 926.311,1228.69 928.311,1230.65 930.312,1232.59 932.313,1234.52 934.313,1236.44 936.314,1238.34 938.315,1240.23 940.316,1242.11 942.316,1243.98 944.317,1245.83 946.318,1247.67 948.318,1249.49 950.319,1251.31 952.32,1253.11 954.321,1254.9 956.321,1256.67 958.322,1258.43 960.323,1260.18 962.323,1261.92 964.324,1263.64 966.325,1265.36 968.326,1267.05 970.326,1268.74 972.327,1270.41 974.328,1272.07 976.328,1273.72 978.329,1275.35 980.33,1276.98 982.33,1278.59 984.331,1280.18 986.332,1281.77 988.333,1283.34 990.333,1284.9 992.334,1286.44 994.335,1287.98 996.335,1289.5 998.336,1291.01 1000.34,1292.5 1002.34,1293.99 1004.34,1295.46 1006.34,1296.92 1008.34,1298.36 1010.34,1299.8 1012.34,1301.22 1014.34,1302.62 1016.34,1304.02 1018.34,1305.4 1020.34,1306.78 1022.34,1308.13 1024.35,1309.48 1026.35,1310.82 1028.35,1312.14 1030.35,1313.45 1032.35,1314.74 1034.35,1316.03 1036.35,1317.3 1038.35,1318.56 1040.35,1319.81 1042.35,1321.04 1044.35,1322.27 1046.35,1323.48 1048.35,1324.68 1050.35,1325.86 1052.36,1327.04 1054.36,1328.2 1056.36,1329.35 1058.36,1330.49 1060.36,1331.61 1062.36,1332.73 1064.36,1333.83 1066.36,1334.92 1068.36,1335.99 1070.36,1337.06 1072.36,1338.11 1074.36,1339.15 1076.36,1340.18 1078.36,1341.19 1080.37,1342.2 1082.37,1343.19 1084.37,1344.17 1086.37,1345.14 1088.37,1346.09 1090.37,1347.04 1092.37,1347.97 1094.37,1348.89 1096.37,1349.8 1098.37,1350.69 1100.37,1351.58 1102.37,1352.45 1104.37,1353.31 1106.37,1354.16 1108.38,1354.99 1110.38,1355.82 1112.38,1356.63 1114.38,1357.43 1116.38,1358.22 1118.38,1359 1120.38,1359.76 1122.38,1360.51 1124.38,1361.25 1126.38,1361.98 1128.38,1362.7 1130.38,1363.4 1132.38,1364.1 1134.38,1364.78 1136.39,1365.45 1138.39,1366.11 1140.39,1366.75 1142.39,1367.39 1144.39,1368.01 1146.39,1368.62 1148.39,1369.22 1150.39,1369.81 1152.39,1370.38 1154.39,1370.94 1156.39,1371.5 1158.39,1372.04 1160.39,1372.56 1162.39,1373.08 1164.39,1373.59 1166.4,1374.08 1168.4,1374.56 1170.4,1375.03 1172.4,1375.49 1174.4,1375.93 1176.4,1376.37 1178.4,1376.79 1180.4,1377.2 1182.4,1377.6 1184.4,1377.99 1186.4,1378.36 1188.4,1378.73 1190.4,1379.08 1192.4,1379.42 1194.41,1379.75 1196.41,1380.07 1198.41,1380.37 1200.41,1380.67 1202.41,1380.95 1204.41,1381.22 1206.41,1381.48 1208.41,1381.73 1210.41,1381.96 1212.41,1382.19 1214.41,1382.4 1216.41,1382.6 1218.41,1382.79 1220.41,1382.97 1222.42,1383.13 1224.42,1383.29 1226.42,1383.43 1228.42,1383.56 1230.42,1383.68 1232.42,1383.79 1234.42,1383.89 1236.42,1383.97 1238.42,1384.04 1240.42,1384.1 1242.42,1384.15 1244.42,1384.19 1246.42,1384.22 1248.42,1384.23 1250.43,1384.24 1252.43,1384.23 1254.43,1384.21 1256.43,1384.18 1258.43,1384.14 1260.43,1384.08 1262.43,1384.02 1264.43,1383.94 1266.43,1383.85 1268.43,1383.75 1270.43,1383.63 1272.43,1383.51 1274.43,1383.37 1276.43,1383.23 1278.44,1383.07 1280.44,1382.9 1282.44,1382.72 1284.44,1382.52 1286.44,1382.32 1288.44,1382.1 1290.44,1381.87 1292.44,1381.63 1294.44,1381.38 1296.44,1381.12 1298.44,1380.84 1300.44,1380.55 1302.44,1380.25 1304.44,1379.94 1306.45,1379.62 1308.45,1379.29 1310.45,1378.95 1312.45,1378.59 1314.45,1378.22 1316.45,1377.84 1318.45,1377.45 1320.45,1377.05 1322.45,1376.63 1324.45,1376.2 1326.45,1375.77 1328.45,1375.32 1330.45,1374.86 1332.45,1374.38 1334.46,1373.9 1336.46,1373.4 1338.46,1372.89 1340.46,1372.37 1342.46,1371.84 1344.46,1371.3 1346.46,1370.74 1348.46,1370.18 1350.46,1369.6 1352.46,1369.01 1354.46,1368.41 1356.46,1367.79 1358.46,1367.17 1360.46,1366.53 1362.47,1365.88 1364.47,1365.22 1366.47,1364.55 1368.47,1363.87 1370.47,1363.17 1372.47,1362.46 1374.47,1361.74 1376.47,1361.01 1378.47,1360.27 1380.47,1359.52 1382.47,1358.75 1384.47,1357.97 1386.47,1357.18 1388.47,1356.38 1390.48,1355.57 1392.48,1354.74 1394.48,1353.9 1396.48,1353.05 1398.48,1352.19 1400.48,1351.32 1402.48,1350.44 1404.48,1349.54 1406.48,1348.63 1408.48,1347.71 1410.48,1346.78 1412.48,1345.83 1414.48,1344.88 1416.48,1343.91 1418.48,1342.93 1420.49,1341.94 1422.49,1340.93 1424.49,1339.92 1426.49,1338.89 1428.49,1337.85 1430.49,1336.8 1432.49,1335.74 1434.49,1334.66 1436.49,1333.57 1438.49,1332.47 1440.49,1331.36 1442.49,1330.24 1444.49,1329.1 1446.49,1327.95 1448.5,1326.79 1450.5,1325.62 1452.5,1324.44 1454.5,1323.24 1456.5,1322.03 1458.5,1320.81 1460.5,1319.58 1462.5,1318.34 1464.5,1317.08 1466.5,1315.81 1468.5,1314.53 1470.5,1313.24 1472.5,1311.93 1474.5,1310.61 1476.51,1309.28 1478.51,1307.94 1480.51,1306.59 1482.51,1305.22 1484.51,1303.84 1486.51,1302.45 1488.51,1301.05 1490.51,1299.63 1492.51,1298.21 1494.51,1296.77 1496.51,1295.32 1498.51,1293.85 1500.51,1292.37 1502.51,1290.89 1504.52,1289.38 1506.52,1287.87 1508.52,1286.34 1510.52,1284.81 1512.52,1283.26 1514.52,1281.69 1516.52,1280.12 1518.52,1278.53 1520.52,1276.93 1522.52,1275.32 1524.52,1273.69 1526.52,1272.05 1528.52,1270.4 1530.52,1268.74 1532.53,1267.06 1534.53,1265.38 1536.53,1263.68 1538.53,1261.96 1540.53,1260.24 1542.53,1258.5 1544.53,1256.75 1546.53,1254.99 1548.53,1253.21 1550.53,1251.43 1552.53,1249.63 1554.53,1247.81 1556.53,1245.99 1558.53,1244.15 1560.54,1242.3 1562.54,1240.44 1564.54,1238.56 1566.54,1236.67 1568.54,1234.77 1570.54,1232.86 1572.54,1230.93 1574.54,1228.99 1576.54,1227.04 1578.54,1225.07 1580.54,1223.1 1582.54,1221.11 1584.54,1219.1 1586.54,1217.09 1588.55,1215.06 1590.55,1213.02 1592.55,1210.96 1594.55,1208.9 1596.55,1206.82 1598.55,1204.72 1600.55,1202.62 1602.55,1200.5 1604.55,1198.37 1606.55,1196.23 1608.55,1194.07 1610.55,1191.9 1612.55,1189.72 1614.55,1187.52 1616.56,1185.32 1618.56,1183.1 1620.56,1180.86 1622.56,1178.62 1624.56,1176.36 1626.56,1174.08 1628.56,1171.8 1630.56,1169.5 1632.56,1167.19 1634.56,1164.87 1636.56,1162.53 1638.56,1160.18 1640.56,1157.82 1642.56,1155.44 1644.57,1153.05 1646.57,1150.65 1648.57,1148.23 1650.57,1145.81 1652.57,1143.37 1654.57,1140.91 1656.57,1138.45 1658.57,1135.97 1660.57,1133.47 1662.57,1130.97 1664.57,1128.45 1666.57,1125.92 1668.57,1123.37 1670.57,1120.82 1672.57,1118.24 1674.58,1115.66 1676.58,1113.06 1678.58,1110.45 1680.58,1107.83 1682.58,1105.2 1684.58,1102.55 1686.58,1099.89 1688.58,1097.21 1690.58,1094.52 1692.58,1091.82 1694.58,1089.11 1696.58,1086.38 1698.58,1083.64 1700.58,1080.89 1702.59,1078.12 1704.59,1075.34 1706.59,1072.55 1708.59,1069.75 1710.59,1066.93 1712.59,1064.1 1714.59,1061.25 1716.59,1058.4 1718.59,1055.53 1720.59,1052.65 1722.59,1049.75 1724.59,1046.84 1726.59,1043.92 1728.59,1040.99 1730.6,1038.04 1732.6,1035.08 1734.6,1032.1 1736.6,1029.12 1738.6,1026.12 1740.6,1023.11 1742.6,1020.08 1744.6,1017.05 1746.6,1014 1748.6,1010.93 1750.6,1007.86 1752.6,1004.77 1754.6,1001.67 1756.6,998.553 1758.61,995.426 1760.61,992.287 1762.61,989.135 1764.61,985.97 1766.61,982.792 1768.61,979.602 1770.61,976.399 1772.61,973.184 1774.61,969.956 1776.61,966.716 1778.61,963.463 1780.61,960.197 1782.61,956.919 1784.61,953.629 1786.62,950.326 1788.62,947.011 1790.62,943.683 1792.62,940.343 1794.62,936.991 1796.62,933.627 1798.62,930.25 1800.62,926.862 1802.62,923.461 1804.62,920.047 1806.62,916.622 1808.62,913.185 1810.62,909.736 1812.62,906.274 1814.63,902.801 1816.63,899.316 1818.63,895.819 1820.63,892.31 1822.63,888.79 1824.63,885.258 1826.63,881.714 1828.63,878.158 1830.63,874.591 1832.63,871.013 1834.63,867.422 1836.63,863.821 1838.63,860.208 1840.63,856.584 1842.64,852.948 1844.64,849.302 1846.64,845.644 1848.64,841.975 1850.64,838.295 1852.64,834.604 1854.64,830.902 1856.64,827.189 1858.64,823.466 1860.64,819.732 1862.64,815.987 1864.64,812.232 1866.64,808.466 1868.64,804.69 1870.65,800.903 1872.65,797.106 1874.65,793.299 1876.65,789.482 1878.65,785.655 1880.65,781.817 1882.65,777.97 1884.65,774.114 1886.65,770.247 1888.65,766.371 1890.65,762.485 1892.65,758.59 1894.65,754.686 1896.65,750.772 1898.66,746.849 1900.66,742.918 1902.66,738.977 1904.66,735.027 1906.66,731.069 1908.66,727.102 1910.66,723.127 1912.66,719.143 1914.66,715.151 1916.66,711.15 1918.66,707.142 1920.66,703.126 1922.66,699.102 1924.66,695.07 1926.66,691.031 1928.67,686.984 1930.67,682.93 1932.67,678.868 1934.67,674.8 1936.67,670.725 1938.67,666.643 1940.67,662.554 1942.67,658.459 1944.67,654.357 1946.67,650.249 1948.67,646.136 1950.67,642.016 1952.67,637.89 1954.67,633.759 1956.68,629.623 1958.68,625.481 1960.68,621.334 1962.68,617.183 1964.68,613.026 1966.68,608.865 1968.68,604.699 1970.68,600.53 1972.68,596.356 1974.68,592.178 1976.68,587.997 1978.68,583.812 1980.68,579.624 1982.68,575.432 1984.69,571.238 1986.69,567.041 1988.69,562.842 1990.69,558.64 1992.69,554.436 1994.69,550.23 1996.69,546.023 1998.69,541.814 2000.69,537.604 2002.69,533.392 2004.69,529.181 2006.69,524.968 2008.69,520.755 2010.69,516.542 2012.7,512.33 2014.7,508.118 2016.7,503.906 2018.7,499.695 2020.7,495.486 2022.7,491.278 2024.7,487.071 2026.7,482.867 2028.7,478.664 2030.7,474.464 2032.7,470.267 2034.7,466.073 2036.7,461.883 2038.7,457.696 2040.71,453.512 2042.71,449.333 2044.71,445.159 2046.71,440.989 2048.71,436.825 2050.71,432.665 2052.71,428.512 2054.71,424.364 2056.71,420.223 2058.71,416.089 2060.71,411.961 2062.71,407.841 2064.71,403.729 2066.71,399.624 2068.72,395.528 2070.72,391.441 2072.72,387.362 2074.72,383.293 2076.72,379.234 2078.72,375.185 2080.72,371.146 2082.72,367.119 2084.72,363.102 2086.72,359.097 2088.72,355.104 2090.72,351.124 2092.72,347.156 2094.72,343.202 2096.73,339.261 2098.73,335.334 2100.73,331.422 2102.73,327.524 2104.73,323.641 2106.73,319.775 2108.73,315.924 2110.73,312.09 2112.73,308.273 2114.73,304.473 2116.73,300.691 2118.73,296.927 2120.73,293.182 2122.73,289.456 2124.74,285.75 2126.74,282.064 2128.74,278.398 2130.74,274.754 2132.74,271.131 2134.74,267.53 2136.74,263.952 2138.74,260.397 2140.74,256.865 2142.74,253.357 2144.74,249.874 2146.74,246.415 2148.74,242.983 2150.74,239.576 2152.75,236.196 2154.75,232.843 2156.75,229.517 2158.75,226.22 2160.75,222.951 2162.75,219.711 2164.75,216.502 2166.75,213.322 2168.75,210.174 2170.75,207.057 2172.75,203.972 2174.75,200.919 2176.75,197.9 2178.75,194.914 2180.75,191.963 2182.76,189.046 2184.76,186.165 2186.76,183.32 2188.76,180.511 2190.76,177.74 2192.76,175.006 2194.76,172.311 2196.76,169.655 2198.76,167.038 2200.76,164.462 2202.76,161.927 2204.76,159.433 2206.76,156.981 2208.76,154.571 2210.77,152.205 2212.77,149.883 2214.77,147.606 2216.77,145.374 2218.77,143.187 2220.77,141.048 2222.77,138.955 2224.77,136.91 2226.77,134.913 2228.77,132.966 2230.77,131.068 2232.77,129.22 2234.77,127.424 2236.77,125.679 2238.78,123.987 2240.78,122.347 2242.78,120.761 2244.78,119.23 2246.78,117.753 2248.78,116.332 2250.78,114.967 2252.78,113.659 2254.78,112.409 2256.78,111.217 2258.78,110.084 2260.78,109.01 2262.78,107.997 2264.78,107.045 2266.79,106.154 2268.79,105.325 2270.79,104.56 2272.79,103.858 2274.79,103.22 2276.79,102.647 2278.79,102.139 2280.79,101.698 2282.79,101.323 2284.79,101.016 2286.79,100.777 2288.79,100.607 2290.79,100.507 2292.79,100.476 "/>
<polyline clip-path="url(#clip112)" style="stroke:#ff0000; stroke-linecap:round; stroke-linejoin:round; stroke-width:4; stroke-opacity:1; fill:none" points="1283.45,2799.12 1283.45,-1328.69 "/>
<polyline clip-path="url(#clip112)" style="stroke:#ff0000; stroke-linecap:round; stroke-linejoin:round; stroke-width:4; stroke-opacity:1; fill:none" points="1303.43,2799.12 1303.43,-1328.69 "/>
</svg>
