<?xml version="1.0" encoding="utf-8"?>
<svg xmlns="http://www.w3.org/2000/svg" xmlns:xlink="http://www.w3.org/1999/xlink" width="600" height="400" viewBox="0 0 2400 1600">
<defs>
  <clipPath id="clip480">
    <rect x="0" y="0" width="2400" height="1600"/>
  </clipPath>
</defs>
<path clip-path="url(#clip480)" d="M0 1600 L2400 1600 L2400 0 L0 0  Z" fill="#ffffff" fill-rule="evenodd" fill-opacity="1"/>
<defs>
  <clipPath id="clip481">
    <rect x="480" y="0" width="1681" height="1600"/>
  </clipPath>
</defs>
<path clip-path="url(#clip480)" d="M234.612 1423.18 L2352.76 1423.18 L2352.76 47.2441 L234.612 47.2441  Z" fill="#ffffff" fill-rule="evenodd" fill-opacity="1"/>
<defs>
  <clipPath id="clip482">
    <rect x="234" y="47" width="2119" height="1377"/>
  </clipPath>
</defs>
<polyline clip-path="url(#clip482)" style="stroke:#000000; stroke-linecap:round; stroke-linejoin:round; stroke-width:2; stroke-opacity:0.1; fill:none" points="294.559,1423.18 294.559,47.2441 "/>
<polyline clip-path="url(#clip482)" style="stroke:#000000; stroke-linecap:round; stroke-linejoin:round; stroke-width:2; stroke-opacity:0.1; fill:none" points="794.121,1423.18 794.121,47.2441 "/>
<polyline clip-path="url(#clip482)" style="stroke:#000000; stroke-linecap:round; stroke-linejoin:round; stroke-width:2; stroke-opacity:0.1; fill:none" points="1293.68,1423.18 1293.68,47.2441 "/>
<polyline clip-path="url(#clip482)" style="stroke:#000000; stroke-linecap:round; stroke-linejoin:round; stroke-width:2; stroke-opacity:0.1; fill:none" points="1793.25,1423.18 1793.25,47.2441 "/>
<polyline clip-path="url(#clip482)" style="stroke:#000000; stroke-linecap:round; stroke-linejoin:round; stroke-width:2; stroke-opacity:0.1; fill:none" points="2292.81,1423.18 2292.81,47.2441 "/>
<polyline clip-path="url(#clip482)" style="stroke:#000000; stroke-linecap:round; stroke-linejoin:round; stroke-width:2; stroke-opacity:0.1; fill:none" points="234.612,1324.83 2352.76,1324.83 "/>
<polyline clip-path="url(#clip482)" style="stroke:#000000; stroke-linecap:round; stroke-linejoin:round; stroke-width:2; stroke-opacity:0.1; fill:none" points="234.612,1138.35 2352.76,1138.35 "/>
<polyline clip-path="url(#clip482)" style="stroke:#000000; stroke-linecap:round; stroke-linejoin:round; stroke-width:2; stroke-opacity:0.1; fill:none" points="234.612,951.88 2352.76,951.88 "/>
<polyline clip-path="url(#clip482)" style="stroke:#000000; stroke-linecap:round; stroke-linejoin:round; stroke-width:2; stroke-opacity:0.1; fill:none" points="234.612,765.407 2352.76,765.407 "/>
<polyline clip-path="url(#clip482)" style="stroke:#000000; stroke-linecap:round; stroke-linejoin:round; stroke-width:2; stroke-opacity:0.1; fill:none" points="234.612,578.933 2352.76,578.933 "/>
<polyline clip-path="url(#clip482)" style="stroke:#000000; stroke-linecap:round; stroke-linejoin:round; stroke-width:2; stroke-opacity:0.1; fill:none" points="234.612,392.459 2352.76,392.459 "/>
<polyline clip-path="url(#clip482)" style="stroke:#000000; stroke-linecap:round; stroke-linejoin:round; stroke-width:2; stroke-opacity:0.1; fill:none" points="234.612,205.986 2352.76,205.986 "/>
<polyline clip-path="url(#clip480)" style="stroke:#000000; stroke-linecap:round; stroke-linejoin:round; stroke-width:4; stroke-opacity:1; fill:none" points="234.612,1423.18 2352.76,1423.18 "/>
<polyline clip-path="url(#clip480)" style="stroke:#000000; stroke-linecap:round; stroke-linejoin:round; stroke-width:4; stroke-opacity:1; fill:none" points="294.559,1423.18 294.559,1404.28 "/>
<polyline clip-path="url(#clip480)" style="stroke:#000000; stroke-linecap:round; stroke-linejoin:round; stroke-width:4; stroke-opacity:1; fill:none" points="794.121,1423.18 794.121,1404.28 "/>
<polyline clip-path="url(#clip480)" style="stroke:#000000; stroke-linecap:round; stroke-linejoin:round; stroke-width:4; stroke-opacity:1; fill:none" points="1293.68,1423.18 1293.68,1404.28 "/>
<polyline clip-path="url(#clip480)" style="stroke:#000000; stroke-linecap:round; stroke-linejoin:round; stroke-width:4; stroke-opacity:1; fill:none" points="1793.25,1423.18 1793.25,1404.28 "/>
<polyline clip-path="url(#clip480)" style="stroke:#000000; stroke-linecap:round; stroke-linejoin:round; stroke-width:4; stroke-opacity:1; fill:none" points="2292.81,1423.18 2292.81,1404.28 "/>
<path clip-path="url(#clip480)" d="M235.636 1481.64 L251.955 1481.64 L251.955 1485.58 L230.011 1485.58 L230.011 1481.64 Q232.673 1478.89 237.256 1474.26 Q241.863 1469.61 243.043 1468.27 Q245.288 1465.74 246.168 1464.01 Q247.071 1462.25 247.071 1460.56 Q247.071 1457.8 245.126 1456.07 Q243.205 1454.33 240.103 1454.33 Q237.904 1454.33 235.451 1455.09 Q233.02 1455.86 230.242 1457.41 L230.242 1452.69 Q233.066 1451.55 235.52 1450.97 Q237.974 1450.39 240.011 1450.39 Q245.381 1450.39 248.575 1453.08 Q251.77 1455.77 251.77 1460.26 Q251.77 1462.39 250.96 1464.31 Q250.173 1466.2 248.066 1468.8 Q247.488 1469.47 244.386 1472.69 Q241.284 1475.88 235.636 1481.64 Z" fill="#000000" fill-rule="nonzero" fill-opacity="1" /><path clip-path="url(#clip480)" d="M274.617 1455.09 L262.812 1473.54 L274.617 1473.54 L274.617 1455.09 M273.39 1451.02 L279.27 1451.02 L279.27 1473.54 L284.2 1473.54 L284.2 1477.43 L279.27 1477.43 L279.27 1485.58 L274.617 1485.58 L274.617 1477.43 L259.015 1477.43 L259.015 1472.92 L273.39 1451.02 Z" fill="#000000" fill-rule="nonzero" fill-opacity="1" /><path clip-path="url(#clip480)" d="M291.932 1479.7 L296.816 1479.7 L296.816 1485.58 L291.932 1485.58 L291.932 1479.7 Z" fill="#000000" fill-rule="nonzero" fill-opacity="1" /><path clip-path="url(#clip480)" d="M307.14 1484.86 L307.14 1480.6 Q308.899 1481.44 310.705 1481.88 Q312.51 1482.32 314.246 1482.32 Q318.876 1482.32 321.307 1479.21 Q323.76 1476.09 324.107 1469.75 Q322.765 1471.74 320.705 1472.8 Q318.645 1473.87 316.145 1473.87 Q310.959 1473.87 307.927 1470.74 Q304.918 1467.59 304.918 1462.15 Q304.918 1456.83 308.066 1453.61 Q311.214 1450.39 316.445 1450.39 Q322.441 1450.39 325.589 1455 Q328.76 1459.58 328.76 1468.33 Q328.76 1476.51 324.871 1481.39 Q321.006 1486.25 314.455 1486.25 Q312.696 1486.25 310.89 1485.9 Q309.084 1485.56 307.14 1484.86 M316.445 1470.21 Q319.594 1470.21 321.422 1468.06 Q323.274 1465.9 323.274 1462.15 Q323.274 1458.43 321.422 1456.27 Q319.594 1454.1 316.445 1454.1 Q313.297 1454.1 311.446 1456.27 Q309.617 1458.43 309.617 1462.15 Q309.617 1465.9 311.446 1468.06 Q313.297 1470.21 316.445 1470.21 Z" fill="#000000" fill-rule="nonzero" fill-opacity="1" /><path clip-path="url(#clip480)" d="M347.163 1454.1 Q343.552 1454.1 341.723 1457.66 Q339.918 1461.2 339.918 1468.33 Q339.918 1475.44 341.723 1479.01 Q343.552 1482.55 347.163 1482.55 Q350.797 1482.55 352.603 1479.01 Q354.431 1475.44 354.431 1468.33 Q354.431 1461.2 352.603 1457.66 Q350.797 1454.1 347.163 1454.1 M347.163 1450.39 Q352.973 1450.39 356.029 1455 Q359.107 1459.58 359.107 1468.33 Q359.107 1477.06 356.029 1481.67 Q352.973 1486.25 347.163 1486.25 Q341.353 1486.25 338.274 1481.67 Q335.219 1477.06 335.219 1468.33 Q335.219 1459.58 338.274 1455 Q341.353 1450.39 347.163 1450.39 Z" fill="#000000" fill-rule="nonzero" fill-opacity="1" /><path clip-path="url(#clip480)" d="M735.696 1481.64 L752.015 1481.64 L752.015 1485.58 L730.071 1485.58 L730.071 1481.64 Q732.733 1478.89 737.316 1474.26 Q741.923 1469.61 743.103 1468.27 Q745.348 1465.74 746.228 1464.01 Q747.131 1462.25 747.131 1460.56 Q747.131 1457.8 745.186 1456.07 Q743.265 1454.33 740.163 1454.33 Q737.964 1454.33 735.511 1455.09 Q733.08 1455.86 730.302 1457.41 L730.302 1452.69 Q733.126 1451.55 735.58 1450.97 Q738.034 1450.39 740.071 1450.39 Q745.441 1450.39 748.636 1453.08 Q751.83 1455.77 751.83 1460.26 Q751.83 1462.39 751.02 1464.31 Q750.233 1466.2 748.126 1468.8 Q747.548 1469.47 744.446 1472.69 Q741.344 1475.88 735.696 1481.64 Z" fill="#000000" fill-rule="nonzero" fill-opacity="1" /><path clip-path="url(#clip480)" d="M774.677 1455.09 L762.872 1473.54 L774.677 1473.54 L774.677 1455.09 M773.45 1451.02 L779.33 1451.02 L779.33 1473.54 L784.26 1473.54 L784.26 1477.43 L779.33 1477.43 L779.33 1485.58 L774.677 1485.58 L774.677 1477.43 L759.075 1477.43 L759.075 1472.92 L773.45 1451.02 Z" fill="#000000" fill-rule="nonzero" fill-opacity="1" /><path clip-path="url(#clip480)" d="M791.992 1479.7 L796.876 1479.7 L796.876 1485.58 L791.992 1485.58 L791.992 1479.7 Z" fill="#000000" fill-rule="nonzero" fill-opacity="1" /><path clip-path="url(#clip480)" d="M807.2 1484.86 L807.2 1480.6 Q808.959 1481.44 810.765 1481.88 Q812.57 1482.32 814.306 1482.32 Q818.936 1482.32 821.367 1479.21 Q823.82 1476.09 824.168 1469.75 Q822.825 1471.74 820.765 1472.8 Q818.705 1473.87 816.205 1473.87 Q811.019 1473.87 807.987 1470.74 Q804.978 1467.59 804.978 1462.15 Q804.978 1456.83 808.126 1453.61 Q811.274 1450.39 816.506 1450.39 Q822.501 1450.39 825.649 1455 Q828.82 1459.58 828.82 1468.33 Q828.82 1476.51 824.931 1481.39 Q821.066 1486.25 814.515 1486.25 Q812.756 1486.25 810.95 1485.9 Q809.144 1485.56 807.2 1484.86 M816.506 1470.21 Q819.654 1470.21 821.482 1468.06 Q823.334 1465.9 823.334 1462.15 Q823.334 1458.43 821.482 1456.27 Q819.654 1454.1 816.506 1454.1 Q813.357 1454.1 811.506 1456.27 Q809.677 1458.43 809.677 1462.15 Q809.677 1465.9 811.506 1468.06 Q813.357 1470.21 816.506 1470.21 Z" fill="#000000" fill-rule="nonzero" fill-opacity="1" /><path clip-path="url(#clip480)" d="M837.269 1451.02 L855.626 1451.02 L855.626 1454.96 L841.552 1454.96 L841.552 1463.43 Q842.57 1463.08 843.589 1462.92 Q844.607 1462.73 845.626 1462.73 Q851.413 1462.73 854.792 1465.9 Q858.172 1469.08 858.172 1474.49 Q858.172 1480.07 854.7 1483.17 Q851.228 1486.25 844.908 1486.25 Q842.732 1486.25 840.464 1485.88 Q838.218 1485.51 835.811 1484.77 L835.811 1480.07 Q837.894 1481.2 840.117 1481.76 Q842.339 1482.32 844.816 1482.32 Q848.82 1482.32 851.158 1480.21 Q853.496 1478.1 853.496 1474.49 Q853.496 1470.88 851.158 1468.77 Q848.82 1466.67 844.816 1466.67 Q842.941 1466.67 841.066 1467.08 Q839.214 1467.5 837.269 1468.38 L837.269 1451.02 Z" fill="#000000" fill-rule="nonzero" fill-opacity="1" /><path clip-path="url(#clip480)" d="M1234.76 1481.64 L1251.08 1481.64 L1251.08 1485.58 L1229.14 1485.58 L1229.14 1481.64 Q1231.8 1478.89 1236.38 1474.26 Q1240.99 1469.61 1242.17 1468.27 Q1244.41 1465.74 1245.29 1464.01 Q1246.2 1462.25 1246.2 1460.56 Q1246.2 1457.8 1244.25 1456.07 Q1242.33 1454.33 1239.23 1454.33 Q1237.03 1454.33 1234.58 1455.09 Q1232.14 1455.86 1229.37 1457.41 L1229.37 1452.69 Q1232.19 1451.55 1234.64 1450.97 Q1237.1 1450.39 1239.14 1450.39 Q1244.51 1450.39 1247.7 1453.08 Q1250.89 1455.77 1250.89 1460.26 Q1250.89 1462.39 1250.08 1464.31 Q1249.3 1466.2 1247.19 1468.8 Q1246.61 1469.47 1243.51 1472.69 Q1240.41 1475.88 1234.76 1481.64 Z" fill="#000000" fill-rule="nonzero" fill-opacity="1" /><path clip-path="url(#clip480)" d="M1260.94 1451.02 L1279.3 1451.02 L1279.3 1454.96 L1265.22 1454.96 L1265.22 1463.43 Q1266.24 1463.08 1267.26 1462.92 Q1268.28 1462.73 1269.3 1462.73 Q1275.08 1462.73 1278.46 1465.9 Q1281.84 1469.08 1281.84 1474.49 Q1281.84 1480.07 1278.37 1483.17 Q1274.9 1486.25 1268.58 1486.25 Q1266.4 1486.25 1264.14 1485.88 Q1261.89 1485.51 1259.48 1484.77 L1259.48 1480.07 Q1261.57 1481.2 1263.79 1481.76 Q1266.01 1482.32 1268.49 1482.32 Q1272.49 1482.32 1274.83 1480.21 Q1277.17 1478.1 1277.17 1474.49 Q1277.17 1470.88 1274.83 1468.77 Q1272.49 1466.67 1268.49 1466.67 Q1266.61 1466.67 1264.74 1467.08 Q1262.89 1467.5 1260.94 1468.38 L1260.94 1451.02 Z" fill="#000000" fill-rule="nonzero" fill-opacity="1" /><path clip-path="url(#clip480)" d="M1291.06 1479.7 L1295.94 1479.7 L1295.94 1485.58 L1291.06 1485.58 L1291.06 1479.7 Z" fill="#000000" fill-rule="nonzero" fill-opacity="1" /><path clip-path="url(#clip480)" d="M1316.13 1454.1 Q1312.51 1454.1 1310.69 1457.66 Q1308.88 1461.2 1308.88 1468.33 Q1308.88 1475.44 1310.69 1479.01 Q1312.51 1482.55 1316.13 1482.55 Q1319.76 1482.55 1321.57 1479.01 Q1323.39 1475.44 1323.39 1468.33 Q1323.39 1461.2 1321.57 1457.66 Q1319.76 1454.1 1316.13 1454.1 M1316.13 1450.39 Q1321.94 1450.39 1324.99 1455 Q1328.07 1459.58 1328.07 1468.33 Q1328.07 1477.06 1324.99 1481.67 Q1321.94 1486.25 1316.13 1486.25 Q1310.32 1486.25 1307.24 1481.67 Q1304.18 1477.06 1304.18 1468.33 Q1304.18 1459.58 1307.24 1455 Q1310.32 1450.39 1316.13 1450.39 Z" fill="#000000" fill-rule="nonzero" fill-opacity="1" /><path clip-path="url(#clip480)" d="M1346.29 1454.1 Q1342.68 1454.1 1340.85 1457.66 Q1339.04 1461.2 1339.04 1468.33 Q1339.04 1475.44 1340.85 1479.01 Q1342.68 1482.55 1346.29 1482.55 Q1349.92 1482.55 1351.73 1479.01 Q1353.56 1475.44 1353.56 1468.33 Q1353.56 1461.2 1351.73 1457.66 Q1349.92 1454.1 1346.29 1454.1 M1346.29 1450.39 Q1352.1 1450.39 1355.15 1455 Q1358.23 1459.58 1358.23 1468.33 Q1358.23 1477.06 1355.15 1481.67 Q1352.1 1486.25 1346.29 1486.25 Q1340.48 1486.25 1337.4 1481.67 Q1334.34 1477.06 1334.34 1468.33 Q1334.34 1459.58 1337.4 1455 Q1340.48 1450.39 1346.29 1450.39 Z" fill="#000000" fill-rule="nonzero" fill-opacity="1" /><path clip-path="url(#clip480)" d="M1734.82 1481.64 L1751.14 1481.64 L1751.14 1485.58 L1729.2 1485.58 L1729.2 1481.64 Q1731.86 1478.89 1736.44 1474.26 Q1741.05 1469.61 1742.23 1468.27 Q1744.47 1465.74 1745.35 1464.01 Q1746.26 1462.25 1746.26 1460.56 Q1746.26 1457.8 1744.31 1456.07 Q1742.39 1454.33 1739.29 1454.33 Q1737.09 1454.33 1734.64 1455.09 Q1732.2 1455.86 1729.43 1457.41 L1729.43 1452.69 Q1732.25 1451.55 1734.7 1450.97 Q1737.16 1450.39 1739.2 1450.39 Q1744.57 1450.39 1747.76 1453.08 Q1750.95 1455.77 1750.95 1460.26 Q1750.95 1462.39 1750.14 1464.31 Q1749.36 1466.2 1747.25 1468.8 Q1746.67 1469.47 1743.57 1472.69 Q1740.47 1475.88 1734.82 1481.64 Z" fill="#000000" fill-rule="nonzero" fill-opacity="1" /><path clip-path="url(#clip480)" d="M1761 1451.02 L1779.36 1451.02 L1779.36 1454.96 L1765.28 1454.96 L1765.28 1463.43 Q1766.3 1463.08 1767.32 1462.92 Q1768.34 1462.73 1769.36 1462.73 Q1775.14 1462.73 1778.52 1465.9 Q1781.9 1469.08 1781.9 1474.49 Q1781.9 1480.07 1778.43 1483.17 Q1774.96 1486.25 1768.64 1486.25 Q1766.46 1486.25 1764.2 1485.88 Q1761.95 1485.51 1759.54 1484.77 L1759.54 1480.07 Q1761.63 1481.2 1763.85 1481.76 Q1766.07 1482.32 1768.55 1482.32 Q1772.55 1482.32 1774.89 1480.21 Q1777.23 1478.1 1777.23 1474.49 Q1777.23 1470.88 1774.89 1468.77 Q1772.55 1466.67 1768.55 1466.67 Q1766.67 1466.67 1764.8 1467.08 Q1762.95 1467.5 1761 1468.38 L1761 1451.02 Z" fill="#000000" fill-rule="nonzero" fill-opacity="1" /><path clip-path="url(#clip480)" d="M1791.12 1479.7 L1796 1479.7 L1796 1485.58 L1791.12 1485.58 L1791.12 1479.7 Z" fill="#000000" fill-rule="nonzero" fill-opacity="1" /><path clip-path="url(#clip480)" d="M1816.19 1454.1 Q1812.57 1454.1 1810.75 1457.66 Q1808.94 1461.2 1808.94 1468.33 Q1808.94 1475.44 1810.75 1479.01 Q1812.57 1482.55 1816.19 1482.55 Q1819.82 1482.55 1821.63 1479.01 Q1823.45 1475.44 1823.45 1468.33 Q1823.45 1461.2 1821.63 1457.66 Q1819.82 1454.1 1816.19 1454.1 M1816.19 1450.39 Q1822 1450.39 1825.05 1455 Q1828.13 1459.58 1828.13 1468.33 Q1828.13 1477.06 1825.05 1481.67 Q1822 1486.25 1816.19 1486.25 Q1810.38 1486.25 1807.3 1481.67 Q1804.24 1477.06 1804.24 1468.33 Q1804.24 1459.58 1807.3 1455 Q1810.38 1450.39 1816.19 1450.39 Z" fill="#000000" fill-rule="nonzero" fill-opacity="1" /><path clip-path="url(#clip480)" d="M1836.39 1451.02 L1854.75 1451.02 L1854.75 1454.96 L1840.68 1454.96 L1840.68 1463.43 Q1841.69 1463.08 1842.71 1462.92 Q1843.73 1462.73 1844.75 1462.73 Q1850.54 1462.73 1853.92 1465.9 Q1857.3 1469.08 1857.3 1474.49 Q1857.3 1480.07 1853.82 1483.17 Q1850.35 1486.25 1844.03 1486.25 Q1841.86 1486.25 1839.59 1485.88 Q1837.34 1485.51 1834.94 1484.77 L1834.94 1480.07 Q1837.02 1481.2 1839.24 1481.76 Q1841.46 1482.32 1843.94 1482.32 Q1847.94 1482.32 1850.28 1480.21 Q1852.62 1478.1 1852.62 1474.49 Q1852.62 1470.88 1850.28 1468.77 Q1847.94 1466.67 1843.94 1466.67 Q1842.07 1466.67 1840.19 1467.08 Q1838.34 1467.5 1836.39 1468.38 L1836.39 1451.02 Z" fill="#000000" fill-rule="nonzero" fill-opacity="1" /><path clip-path="url(#clip480)" d="M2233.89 1481.64 L2250.2 1481.64 L2250.2 1485.58 L2228.26 1485.58 L2228.26 1481.64 Q2230.92 1478.89 2235.51 1474.26 Q2240.11 1469.61 2241.29 1468.27 Q2243.54 1465.74 2244.42 1464.01 Q2245.32 1462.25 2245.32 1460.56 Q2245.32 1457.8 2243.38 1456.07 Q2241.45 1454.33 2238.35 1454.33 Q2236.15 1454.33 2233.7 1455.09 Q2231.27 1455.86 2228.49 1457.41 L2228.49 1452.69 Q2231.32 1451.55 2233.77 1450.97 Q2236.22 1450.39 2238.26 1450.39 Q2243.63 1450.39 2246.82 1453.08 Q2250.02 1455.77 2250.02 1460.26 Q2250.02 1462.39 2249.21 1464.31 Q2248.42 1466.2 2246.32 1468.8 Q2245.74 1469.47 2242.64 1472.69 Q2239.53 1475.88 2233.89 1481.64 Z" fill="#000000" fill-rule="nonzero" fill-opacity="1" /><path clip-path="url(#clip480)" d="M2260.07 1451.02 L2278.42 1451.02 L2278.42 1454.96 L2264.35 1454.96 L2264.35 1463.43 Q2265.37 1463.08 2266.38 1462.92 Q2267.4 1462.73 2268.42 1462.73 Q2274.21 1462.73 2277.59 1465.9 Q2280.97 1469.08 2280.97 1474.49 Q2280.97 1480.07 2277.5 1483.17 Q2274.02 1486.25 2267.7 1486.25 Q2265.53 1486.25 2263.26 1485.88 Q2261.01 1485.51 2258.61 1484.77 L2258.61 1480.07 Q2260.69 1481.2 2262.91 1481.76 Q2265.13 1482.32 2267.61 1482.32 Q2271.62 1482.32 2273.95 1480.21 Q2276.29 1478.1 2276.29 1474.49 Q2276.29 1470.88 2273.95 1468.77 Q2271.62 1466.67 2267.61 1466.67 Q2265.74 1466.67 2263.86 1467.08 Q2262.01 1467.5 2260.07 1468.38 L2260.07 1451.02 Z" fill="#000000" fill-rule="nonzero" fill-opacity="1" /><path clip-path="url(#clip480)" d="M2290.18 1479.7 L2295.07 1479.7 L2295.07 1485.58 L2290.18 1485.58 L2290.18 1479.7 Z" fill="#000000" fill-rule="nonzero" fill-opacity="1" /><path clip-path="url(#clip480)" d="M2306.06 1481.64 L2313.7 1481.64 L2313.7 1455.28 L2305.39 1456.95 L2305.39 1452.69 L2313.65 1451.02 L2318.33 1451.02 L2318.33 1481.64 L2325.97 1481.64 L2325.97 1485.58 L2306.06 1485.58 L2306.06 1481.64 Z" fill="#000000" fill-rule="nonzero" fill-opacity="1" /><path clip-path="url(#clip480)" d="M2345.41 1454.1 Q2341.8 1454.1 2339.97 1457.66 Q2338.17 1461.2 2338.17 1468.33 Q2338.17 1475.44 2339.97 1479.01 Q2341.8 1482.55 2345.41 1482.55 Q2349.05 1482.55 2350.85 1479.01 Q2352.68 1475.44 2352.68 1468.33 Q2352.68 1461.2 2350.85 1457.66 Q2349.05 1454.1 2345.41 1454.1 M2345.41 1450.39 Q2351.22 1450.39 2354.28 1455 Q2357.36 1459.58 2357.36 1468.33 Q2357.36 1477.06 2354.28 1481.67 Q2351.22 1486.25 2345.41 1486.25 Q2339.6 1486.25 2336.52 1481.67 Q2333.47 1477.06 2333.47 1468.33 Q2333.47 1459.58 2336.52 1455 Q2339.6 1450.39 2345.41 1450.39 Z" fill="#000000" fill-rule="nonzero" fill-opacity="1" /><path clip-path="url(#clip480)" d="M1001.85 1520.52 L1029.16 1520.52 L1029.16 1525.93 L1008.28 1525.93 L1008.28 1539.94 L1027.12 1539.94 L1027.12 1545.35 L1008.28 1545.35 L1008.28 1568.04 L1001.85 1568.04 L1001.85 1520.52 Z" fill="#000000" fill-rule="nonzero" fill-opacity="1" /><path clip-path="url(#clip480)" d="M1055 1537.87 Q1054.01 1537.3 1052.84 1537.04 Q1051.69 1536.76 1050.29 1536.76 Q1045.33 1536.76 1042.65 1540 Q1040.01 1543.22 1040.01 1549.27 L1040.01 1568.04 L1034.12 1568.04 L1034.12 1532.4 L1040.01 1532.4 L1040.01 1537.93 Q1041.86 1534.69 1044.82 1533.13 Q1047.78 1531.54 1052.01 1531.54 Q1052.61 1531.54 1053.35 1531.63 Q1054.08 1531.7 1054.97 1531.85 L1055 1537.87 Z" fill="#000000" fill-rule="nonzero" fill-opacity="1" /><path clip-path="url(#clip480)" d="M1090.2 1548.76 L1090.2 1551.62 L1063.28 1551.62 Q1063.66 1557.67 1066.91 1560.85 Q1070.18 1564 1076.01 1564 Q1079.38 1564 1082.53 1563.17 Q1085.72 1562.35 1088.84 1560.69 L1088.84 1566.23 Q1085.68 1567.57 1082.37 1568.27 Q1079.06 1568.97 1075.66 1568.97 Q1067.13 1568.97 1062.13 1564 Q1057.17 1559.04 1057.17 1550.57 Q1057.17 1541.82 1061.88 1536.69 Q1066.62 1531.54 1074.64 1531.54 Q1081.83 1531.54 1086 1536.18 Q1090.2 1540.8 1090.2 1548.76 M1084.35 1547.04 Q1084.28 1542.23 1081.64 1539.37 Q1079.03 1536.5 1074.7 1536.5 Q1069.8 1536.5 1066.84 1539.27 Q1063.91 1542.04 1063.47 1547.07 L1084.35 1547.04 Z" fill="#000000" fill-rule="nonzero" fill-opacity="1" /><path clip-path="url(#clip480)" d="M1103.32 1550.25 Q1103.32 1556.71 1105.96 1560.4 Q1108.63 1564.07 1113.28 1564.07 Q1117.93 1564.07 1120.6 1560.4 Q1123.27 1556.71 1123.27 1550.25 Q1123.27 1543.79 1120.6 1540.13 Q1117.93 1536.44 1113.28 1536.44 Q1108.63 1536.44 1105.96 1540.13 Q1103.32 1543.79 1103.32 1550.25 M1123.27 1562.7 Q1121.43 1565.88 1118.59 1567.44 Q1115.79 1568.97 1111.85 1568.97 Q1105.39 1568.97 1101.31 1563.81 Q1097.27 1558.65 1097.27 1550.25 Q1097.27 1541.85 1101.31 1536.69 Q1105.39 1531.54 1111.85 1531.54 Q1115.79 1531.54 1118.59 1533.1 Q1121.43 1534.62 1123.27 1537.81 L1123.27 1532.4 L1129.13 1532.4 L1129.13 1581.6 L1123.27 1581.6 L1123.27 1562.7 Z" fill="#000000" fill-rule="nonzero" fill-opacity="1" /><path clip-path="url(#clip480)" d="M1140.59 1553.98 L1140.59 1532.4 L1146.44 1532.4 L1146.44 1553.75 Q1146.44 1558.81 1148.42 1561.36 Q1150.39 1563.87 1154.34 1563.87 Q1159.08 1563.87 1161.82 1560.85 Q1164.59 1557.83 1164.59 1552.61 L1164.59 1532.4 L1170.44 1532.4 L1170.44 1568.04 L1164.59 1568.04 L1164.59 1562.57 Q1162.45 1565.82 1159.62 1567.41 Q1156.82 1568.97 1153.1 1568.97 Q1146.95 1568.97 1143.77 1565.15 Q1140.59 1561.33 1140.59 1553.98 M1155.33 1531.54 L1155.33 1531.54 Z" fill="#000000" fill-rule="nonzero" fill-opacity="1" /><path clip-path="url(#clip480)" d="M1213 1548.76 L1213 1551.62 L1186.07 1551.62 Q1186.45 1557.67 1189.7 1560.85 Q1192.98 1564 1198.8 1564 Q1202.18 1564 1205.33 1563.17 Q1208.51 1562.35 1211.63 1560.69 L1211.63 1566.23 Q1208.48 1567.57 1205.17 1568.27 Q1201.86 1568.97 1198.45 1568.97 Q1189.92 1568.97 1184.93 1564 Q1179.96 1559.04 1179.96 1550.57 Q1179.96 1541.82 1184.67 1536.69 Q1189.41 1531.54 1197.43 1531.54 Q1204.63 1531.54 1208.8 1536.18 Q1213 1540.8 1213 1548.76 M1207.14 1547.04 Q1207.08 1542.23 1204.44 1539.37 Q1201.83 1536.5 1197.5 1536.5 Q1192.6 1536.5 1189.64 1539.27 Q1186.71 1542.04 1186.26 1547.07 L1207.14 1547.04 Z" fill="#000000" fill-rule="nonzero" fill-opacity="1" /><path clip-path="url(#clip480)" d="M1252.24 1546.53 L1252.24 1568.04 L1246.39 1568.04 L1246.39 1546.72 Q1246.39 1541.66 1244.41 1539.14 Q1242.44 1536.63 1238.49 1536.63 Q1233.75 1536.63 1231.01 1539.65 Q1228.28 1542.68 1228.28 1547.9 L1228.28 1568.04 L1222.39 1568.04 L1222.39 1532.4 L1228.28 1532.4 L1228.28 1537.93 Q1230.38 1534.72 1233.21 1533.13 Q1236.07 1531.54 1239.8 1531.54 Q1245.94 1531.54 1249.09 1535.36 Q1252.24 1539.14 1252.24 1546.53 Z" fill="#000000" fill-rule="nonzero" fill-opacity="1" /><path clip-path="url(#clip480)" d="M1289.58 1533.76 L1289.58 1539.24 Q1287.1 1537.87 1284.58 1537.2 Q1282.1 1536.5 1279.55 1536.5 Q1273.85 1536.5 1270.7 1540.13 Q1267.55 1543.73 1267.55 1550.25 Q1267.55 1556.78 1270.7 1560.4 Q1273.85 1564 1279.55 1564 Q1282.1 1564 1284.58 1563.33 Q1287.1 1562.63 1289.58 1561.26 L1289.58 1566.68 Q1287.13 1567.82 1284.49 1568.39 Q1281.88 1568.97 1278.92 1568.97 Q1270.86 1568.97 1266.12 1563.91 Q1261.38 1558.85 1261.38 1550.25 Q1261.38 1541.53 1266.15 1536.53 Q1270.96 1531.54 1279.3 1531.54 Q1282 1531.54 1284.58 1532.11 Q1287.16 1532.65 1289.58 1533.76 Z" fill="#000000" fill-rule="nonzero" fill-opacity="1" /><path clip-path="url(#clip480)" d="M1299.76 1532.4 L1305.62 1532.4 L1305.62 1568.04 L1299.76 1568.04 L1299.76 1532.4 M1299.76 1518.52 L1305.62 1518.52 L1305.62 1525.93 L1299.76 1525.93 L1299.76 1518.52 Z" fill="#000000" fill-rule="nonzero" fill-opacity="1" /><path clip-path="url(#clip480)" d="M1348.37 1548.76 L1348.37 1551.62 L1321.44 1551.62 Q1321.82 1557.67 1325.07 1560.85 Q1328.35 1564 1334.17 1564 Q1337.54 1564 1340.69 1563.17 Q1343.88 1562.35 1347 1560.69 L1347 1566.23 Q1343.85 1567.57 1340.54 1568.27 Q1337.23 1568.97 1333.82 1568.97 Q1325.29 1568.97 1320.29 1564 Q1315.33 1559.04 1315.33 1550.57 Q1315.33 1541.82 1320.04 1536.69 Q1324.78 1531.54 1332.8 1531.54 Q1339.99 1531.54 1344.16 1536.18 Q1348.37 1540.8 1348.37 1548.76 M1342.51 1547.04 Q1342.45 1542.23 1339.8 1539.37 Q1337.19 1536.5 1332.86 1536.5 Q1327.96 1536.5 1325 1539.27 Q1322.07 1542.04 1321.63 1547.07 L1342.51 1547.04 Z" fill="#000000" fill-rule="nonzero" fill-opacity="1" /><path clip-path="url(#clip480)" d="M1380.7 1533.45 L1380.7 1538.98 Q1378.22 1537.71 1375.55 1537.07 Q1372.87 1536.44 1370.01 1536.44 Q1365.65 1536.44 1363.45 1537.77 Q1361.29 1539.11 1361.29 1541.79 Q1361.29 1543.82 1362.85 1545 Q1364.41 1546.15 1369.12 1547.2 L1371.12 1547.64 Q1377.36 1548.98 1379.97 1551.43 Q1382.61 1553.85 1382.61 1558.21 Q1382.61 1563.17 1378.67 1566.07 Q1374.75 1568.97 1367.88 1568.97 Q1365.01 1568.97 1361.89 1568.39 Q1358.8 1567.85 1355.37 1566.74 L1355.37 1560.69 Q1358.61 1562.38 1361.76 1563.24 Q1364.92 1564.07 1368 1564.07 Q1372.14 1564.07 1374.37 1562.66 Q1376.6 1561.23 1376.6 1558.65 Q1376.6 1556.27 1374.97 1554.99 Q1373.38 1553.72 1367.94 1552.54 L1365.9 1552.07 Q1360.46 1550.92 1358.04 1548.56 Q1355.62 1546.18 1355.62 1542.04 Q1355.62 1537.01 1359.19 1534.27 Q1362.75 1531.54 1369.31 1531.54 Q1372.55 1531.54 1375.42 1532.01 Q1378.28 1532.49 1380.7 1533.45 Z" fill="#000000" fill-rule="nonzero" fill-opacity="1" /><path clip-path="url(#clip480)" d="M1412.12 1518.52 L1425.61 1518.52 L1425.61 1523.07 L1417.97 1523.07 L1417.97 1572.09 L1425.61 1572.09 L1425.61 1576.64 L1412.12 1576.64 L1412.12 1518.52 Z" fill="#000000" fill-rule="nonzero" fill-opacity="1" /><path clip-path="url(#clip480)" d="M1470.75 1561.26 L1470.75 1548.5 L1460.24 1548.5 L1460.24 1543.22 L1477.11 1543.22 L1477.11 1563.62 Q1473.39 1566.26 1468.9 1567.63 Q1464.41 1568.97 1459.32 1568.97 Q1448.18 1568.97 1441.88 1562.47 Q1435.61 1555.95 1435.61 1544.33 Q1435.61 1532.68 1441.88 1526.19 Q1448.18 1519.66 1459.32 1519.66 Q1463.97 1519.66 1468.14 1520.81 Q1472.34 1521.96 1475.87 1524.18 L1475.87 1531.03 Q1472.31 1528 1468.3 1526.48 Q1464.28 1524.95 1459.86 1524.95 Q1451.14 1524.95 1446.75 1529.82 Q1442.39 1534.69 1442.39 1544.33 Q1442.39 1553.94 1446.75 1558.81 Q1451.14 1563.68 1459.86 1563.68 Q1463.27 1563.68 1465.94 1563.11 Q1468.61 1562.51 1470.75 1561.26 Z" fill="#000000" fill-rule="nonzero" fill-opacity="1" /><path clip-path="url(#clip480)" d="M1488.86 1520.52 L1495.29 1520.52 L1495.29 1540 L1518.65 1540 L1518.65 1520.52 L1525.08 1520.52 L1525.08 1568.04 L1518.65 1568.04 L1518.65 1545.41 L1495.29 1545.41 L1495.29 1568.04 L1488.86 1568.04 L1488.86 1520.52 Z" fill="#000000" fill-rule="nonzero" fill-opacity="1" /><path clip-path="url(#clip480)" d="M1535.07 1532.4 L1562.89 1532.4 L1562.89 1537.74 L1540.86 1563.37 L1562.89 1563.37 L1562.89 1568.04 L1534.28 1568.04 L1534.28 1562.7 L1556.3 1537.07 L1535.07 1537.07 L1535.07 1532.4 Z" fill="#000000" fill-rule="nonzero" fill-opacity="1" /><path clip-path="url(#clip480)" d="M1585.52 1518.52 L1585.52 1576.64 L1572.02 1576.64 L1572.02 1572.09 L1579.63 1572.09 L1579.63 1523.07 L1572.02 1523.07 L1572.02 1518.52 L1585.52 1518.52 Z" fill="#000000" fill-rule="nonzero" fill-opacity="1" /><polyline clip-path="url(#clip480)" style="stroke:#000000; stroke-linecap:round; stroke-linejoin:round; stroke-width:4; stroke-opacity:1; fill:none" points="234.612,1423.18 234.612,47.2441 "/>
<polyline clip-path="url(#clip480)" style="stroke:#000000; stroke-linecap:round; stroke-linejoin:round; stroke-width:4; stroke-opacity:1; fill:none" points="234.612,1324.83 253.509,1324.83 "/>
<polyline clip-path="url(#clip480)" style="stroke:#000000; stroke-linecap:round; stroke-linejoin:round; stroke-width:4; stroke-opacity:1; fill:none" points="234.612,1138.35 253.509,1138.35 "/>
<polyline clip-path="url(#clip480)" style="stroke:#000000; stroke-linecap:round; stroke-linejoin:round; stroke-width:4; stroke-opacity:1; fill:none" points="234.612,951.88 253.509,951.88 "/>
<polyline clip-path="url(#clip480)" style="stroke:#000000; stroke-linecap:round; stroke-linejoin:round; stroke-width:4; stroke-opacity:1; fill:none" points="234.612,765.407 253.509,765.407 "/>
<polyline clip-path="url(#clip480)" style="stroke:#000000; stroke-linecap:round; stroke-linejoin:round; stroke-width:4; stroke-opacity:1; fill:none" points="234.612,578.933 253.509,578.933 "/>
<polyline clip-path="url(#clip480)" style="stroke:#000000; stroke-linecap:round; stroke-linejoin:round; stroke-width:4; stroke-opacity:1; fill:none" points="234.612,392.459 253.509,392.459 "/>
<polyline clip-path="url(#clip480)" style="stroke:#000000; stroke-linecap:round; stroke-linejoin:round; stroke-width:4; stroke-opacity:1; fill:none" points="234.612,205.986 253.509,205.986 "/>
<path clip-path="url(#clip480)" d="M121.968 1338.17 L138.288 1338.17 L138.288 1342.11 L116.343 1342.11 L116.343 1338.17 Q119.006 1335.42 123.589 1330.79 Q128.195 1326.14 129.376 1324.79 Q131.621 1322.27 132.501 1320.53 Q133.404 1318.77 133.404 1317.08 Q133.404 1314.33 131.459 1312.59 Q129.538 1310.86 126.436 1310.86 Q124.237 1310.86 121.783 1311.62 Q119.353 1312.39 116.575 1313.94 L116.575 1309.21 Q119.399 1308.08 121.853 1307.5 Q124.306 1306.92 126.343 1306.92 Q131.714 1306.92 134.908 1309.61 Q138.103 1312.29 138.103 1316.78 Q138.103 1318.91 137.292 1320.83 Q136.505 1322.73 134.399 1325.33 Q133.82 1326 130.718 1329.21 Q127.617 1332.41 121.968 1338.17 Z" fill="#000000" fill-rule="nonzero" fill-opacity="1" /><path clip-path="url(#clip480)" d="M162.269 1323.47 Q165.626 1324.19 167.501 1326.46 Q169.399 1328.73 169.399 1332.06 Q169.399 1337.18 165.88 1339.98 Q162.362 1342.78 155.88 1342.78 Q153.704 1342.78 151.39 1342.34 Q149.098 1341.92 146.644 1341.07 L146.644 1336.55 Q148.589 1337.69 150.903 1338.27 Q153.218 1338.84 155.741 1338.84 Q160.14 1338.84 162.431 1337.11 Q164.746 1335.37 164.746 1332.06 Q164.746 1329.01 162.593 1327.29 Q160.464 1325.56 156.644 1325.56 L152.616 1325.56 L152.616 1321.71 L156.829 1321.71 Q160.278 1321.71 162.107 1320.35 Q163.936 1318.96 163.936 1316.37 Q163.936 1313.71 162.038 1312.29 Q160.163 1310.86 156.644 1310.86 Q154.723 1310.86 152.524 1311.27 Q150.325 1311.69 147.686 1312.57 L147.686 1308.4 Q150.348 1307.66 152.663 1307.29 Q155.001 1306.92 157.061 1306.92 Q162.385 1306.92 165.487 1309.35 Q168.589 1311.76 168.589 1315.88 Q168.589 1318.75 166.945 1320.74 Q165.302 1322.71 162.269 1323.47 Z" fill="#000000" fill-rule="nonzero" fill-opacity="1" /><path clip-path="url(#clip480)" d="M182.292 1338.17 L198.612 1338.17 L198.612 1342.11 L176.667 1342.11 L176.667 1338.17 Q179.329 1335.42 183.913 1330.79 Q188.519 1326.14 189.7 1324.79 Q191.945 1322.27 192.825 1320.53 Q193.727 1318.77 193.727 1317.08 Q193.727 1314.33 191.783 1312.59 Q189.862 1310.86 186.76 1310.86 Q184.561 1310.86 182.107 1311.62 Q179.676 1312.39 176.899 1313.94 L176.899 1309.21 Q179.723 1308.08 182.176 1307.5 Q184.63 1306.92 186.667 1306.92 Q192.038 1306.92 195.232 1309.61 Q198.426 1312.29 198.426 1316.78 Q198.426 1318.91 197.616 1320.83 Q196.829 1322.73 194.723 1325.33 Q194.144 1326 191.042 1329.21 Q187.94 1332.41 182.292 1338.17 Z" fill="#000000" fill-rule="nonzero" fill-opacity="1" /><path clip-path="url(#clip480)" d="M121.019 1151.7 L137.339 1151.7 L137.339 1155.63 L115.394 1155.63 L115.394 1151.7 Q118.056 1148.94 122.64 1144.31 Q127.246 1139.66 128.427 1138.32 Q130.672 1135.8 131.552 1134.06 Q132.455 1132.3 132.455 1130.61 Q132.455 1127.86 130.51 1126.12 Q128.589 1124.38 125.487 1124.38 Q123.288 1124.38 120.834 1125.15 Q118.404 1125.91 115.626 1127.46 L115.626 1122.74 Q118.45 1121.61 120.904 1121.03 Q123.357 1120.45 125.394 1120.45 Q130.765 1120.45 133.959 1123.13 Q137.154 1125.82 137.154 1130.31 Q137.154 1132.44 136.343 1134.36 Q135.556 1136.26 133.45 1138.85 Q132.871 1139.52 129.769 1142.74 Q126.667 1145.94 121.019 1151.7 Z" fill="#000000" fill-rule="nonzero" fill-opacity="1" /><path clip-path="url(#clip480)" d="M161.32 1137 Q164.677 1137.72 166.552 1139.99 Q168.45 1142.25 168.45 1145.59 Q168.45 1150.7 164.931 1153.5 Q161.413 1156.31 154.931 1156.31 Q152.755 1156.31 150.441 1155.87 Q148.149 1155.45 145.695 1154.59 L145.695 1150.08 Q147.64 1151.21 149.954 1151.79 Q152.269 1152.37 154.792 1152.37 Q159.19 1152.37 161.482 1150.63 Q163.797 1148.9 163.797 1145.59 Q163.797 1142.53 161.644 1140.82 Q159.515 1139.08 155.695 1139.08 L151.667 1139.08 L151.667 1135.24 L155.88 1135.24 Q159.329 1135.24 161.158 1133.88 Q162.987 1132.49 162.987 1129.89 Q162.987 1127.23 161.089 1125.82 Q159.214 1124.38 155.695 1124.38 Q153.774 1124.38 151.575 1124.8 Q149.376 1125.22 146.737 1126.1 L146.737 1121.93 Q149.399 1121.19 151.714 1120.82 Q154.052 1120.45 156.112 1120.45 Q161.436 1120.45 164.538 1122.88 Q167.64 1125.29 167.64 1129.41 Q167.64 1132.28 165.996 1134.27 Q164.352 1136.24 161.32 1137 Z" fill="#000000" fill-rule="nonzero" fill-opacity="1" /><path clip-path="url(#clip480)" d="M191.482 1137 Q194.838 1137.72 196.713 1139.99 Q198.612 1142.25 198.612 1145.59 Q198.612 1150.7 195.093 1153.5 Q191.575 1156.31 185.093 1156.31 Q182.917 1156.31 180.602 1155.87 Q178.311 1155.45 175.857 1154.59 L175.857 1150.08 Q177.801 1151.21 180.116 1151.79 Q182.431 1152.37 184.954 1152.37 Q189.352 1152.37 191.644 1150.63 Q193.959 1148.9 193.959 1145.59 Q193.959 1142.53 191.806 1140.82 Q189.676 1139.08 185.857 1139.08 L181.829 1139.08 L181.829 1135.24 L186.042 1135.24 Q189.491 1135.24 191.32 1133.88 Q193.149 1132.49 193.149 1129.89 Q193.149 1127.23 191.25 1125.82 Q189.375 1124.38 185.857 1124.38 Q183.936 1124.38 181.737 1124.8 Q179.538 1125.22 176.899 1126.1 L176.899 1121.93 Q179.561 1121.19 181.876 1120.82 Q184.213 1120.45 186.274 1120.45 Q191.598 1120.45 194.7 1122.88 Q197.801 1125.29 197.801 1129.41 Q197.801 1132.28 196.158 1134.27 Q194.514 1136.24 191.482 1137 Z" fill="#000000" fill-rule="nonzero" fill-opacity="1" /><path clip-path="url(#clip480)" d="M119.885 965.225 L136.204 965.225 L136.204 969.16 L114.26 969.16 L114.26 965.225 Q116.922 962.471 121.505 957.841 Q126.112 953.188 127.292 951.846 Q129.538 949.323 130.417 947.586 Q131.32 945.827 131.32 944.137 Q131.32 941.383 129.376 939.647 Q127.455 937.911 124.353 937.911 Q122.154 937.911 119.7 938.674 Q117.269 939.438 114.492 940.989 L114.492 936.267 Q117.316 935.133 119.769 934.554 Q122.223 933.975 124.26 933.975 Q129.63 933.975 132.825 936.661 Q136.019 939.346 136.019 943.837 Q136.019 945.966 135.209 947.887 Q134.422 949.786 132.316 952.378 Q131.737 953.049 128.635 956.267 Q125.533 959.461 119.885 965.225 Z" fill="#000000" fill-rule="nonzero" fill-opacity="1" /><path clip-path="url(#clip480)" d="M160.186 950.526 Q163.542 951.244 165.417 953.512 Q167.315 955.781 167.315 959.114 Q167.315 964.23 163.797 967.031 Q160.278 969.832 153.797 969.832 Q151.621 969.832 149.306 969.392 Q147.015 968.975 144.561 968.119 L144.561 963.605 Q146.505 964.739 148.82 965.318 Q151.135 965.897 153.658 965.897 Q158.056 965.897 160.348 964.16 Q162.663 962.424 162.663 959.114 Q162.663 956.059 160.51 954.346 Q158.38 952.61 154.561 952.61 L150.533 952.61 L150.533 948.767 L154.746 948.767 Q158.195 948.767 160.024 947.401 Q161.852 946.012 161.852 943.42 Q161.852 940.758 159.954 939.346 Q158.079 937.911 154.561 937.911 Q152.64 937.911 150.441 938.327 Q148.241 938.744 145.603 939.624 L145.603 935.457 Q148.265 934.716 150.579 934.346 Q152.917 933.975 154.978 933.975 Q160.302 933.975 163.403 936.406 Q166.505 938.813 166.505 942.934 Q166.505 945.804 164.862 947.795 Q163.218 949.762 160.186 950.526 Z" fill="#000000" fill-rule="nonzero" fill-opacity="1" /><path clip-path="url(#clip480)" d="M189.028 938.674 L177.223 957.123 L189.028 957.123 L189.028 938.674 M187.801 934.6 L193.681 934.6 L193.681 957.123 L198.612 957.123 L198.612 961.012 L193.681 961.012 L193.681 969.16 L189.028 969.16 L189.028 961.012 L173.427 961.012 L173.427 956.498 L187.801 934.6 Z" fill="#000000" fill-rule="nonzero" fill-opacity="1" /><path clip-path="url(#clip480)" d="M121.367 778.752 L137.686 778.752 L137.686 782.687 L115.742 782.687 L115.742 778.752 Q118.404 775.997 122.987 771.367 Q127.593 766.715 128.774 765.372 Q131.019 762.849 131.899 761.113 Q132.802 759.354 132.802 757.664 Q132.802 754.909 130.857 753.173 Q128.936 751.437 125.834 751.437 Q123.635 751.437 121.181 752.201 Q118.751 752.965 115.973 754.516 L115.973 749.793 Q118.797 748.659 121.251 748.08 Q123.705 747.502 125.742 747.502 Q131.112 747.502 134.306 750.187 Q137.501 752.872 137.501 757.363 Q137.501 759.492 136.691 761.414 Q135.904 763.312 133.797 765.904 Q133.218 766.576 130.117 769.793 Q127.015 772.988 121.367 778.752 Z" fill="#000000" fill-rule="nonzero" fill-opacity="1" /><path clip-path="url(#clip480)" d="M161.667 764.053 Q165.024 764.77 166.899 767.039 Q168.797 769.307 168.797 772.64 Q168.797 777.756 165.278 780.557 Q161.76 783.358 155.278 783.358 Q153.103 783.358 150.788 782.918 Q148.496 782.502 146.042 781.645 L146.042 777.131 Q147.987 778.265 150.302 778.844 Q152.616 779.423 155.14 779.423 Q159.538 779.423 161.829 777.687 Q164.144 775.951 164.144 772.64 Q164.144 769.585 161.991 767.872 Q159.862 766.136 156.042 766.136 L152.015 766.136 L152.015 762.293 L156.228 762.293 Q159.677 762.293 161.505 760.928 Q163.334 759.539 163.334 756.946 Q163.334 754.284 161.436 752.872 Q159.561 751.437 156.042 751.437 Q154.121 751.437 151.922 751.854 Q149.723 752.27 147.084 753.15 L147.084 748.983 Q149.746 748.242 152.061 747.872 Q154.399 747.502 156.459 747.502 Q161.783 747.502 164.885 749.932 Q167.987 752.34 167.987 756.46 Q167.987 759.33 166.343 761.321 Q164.7 763.289 161.667 764.053 Z" fill="#000000" fill-rule="nonzero" fill-opacity="1" /><path clip-path="url(#clip480)" d="M177.709 748.127 L196.065 748.127 L196.065 752.062 L181.991 752.062 L181.991 760.534 Q183.01 760.187 184.028 760.025 Q185.047 759.84 186.065 759.84 Q191.852 759.84 195.232 763.011 Q198.612 766.182 198.612 771.599 Q198.612 777.178 195.139 780.279 Q191.667 783.358 185.348 783.358 Q183.172 783.358 180.903 782.988 Q178.658 782.617 176.251 781.877 L176.251 777.178 Q178.334 778.312 180.556 778.867 Q182.778 779.423 185.255 779.423 Q189.26 779.423 191.598 777.316 Q193.936 775.21 193.936 771.599 Q193.936 767.988 191.598 765.881 Q189.26 763.775 185.255 763.775 Q183.38 763.775 181.505 764.191 Q179.653 764.608 177.709 765.488 L177.709 748.127 Z" fill="#000000" fill-rule="nonzero" fill-opacity="1" /><path clip-path="url(#clip480)" d="M120.209 592.278 L136.529 592.278 L136.529 596.213 L114.584 596.213 L114.584 592.278 Q117.246 589.523 121.83 584.894 Q126.436 580.241 127.617 578.898 Q129.862 576.375 130.742 574.639 Q131.644 572.88 131.644 571.19 Q131.644 568.435 129.7 566.699 Q127.779 564.963 124.677 564.963 Q122.478 564.963 120.024 565.727 Q117.593 566.491 114.816 568.042 L114.816 563.32 Q117.64 562.185 120.093 561.607 Q122.547 561.028 124.584 561.028 Q129.955 561.028 133.149 563.713 Q136.343 566.398 136.343 570.889 Q136.343 573.019 135.533 574.94 Q134.746 576.838 132.64 579.431 Q132.061 580.102 128.959 583.32 Q125.857 586.514 120.209 592.278 Z" fill="#000000" fill-rule="nonzero" fill-opacity="1" /><path clip-path="url(#clip480)" d="M160.51 577.579 Q163.866 578.296 165.741 580.565 Q167.64 582.833 167.64 586.167 Q167.64 591.283 164.121 594.083 Q160.603 596.884 154.121 596.884 Q151.945 596.884 149.63 596.445 Q147.339 596.028 144.885 595.171 L144.885 590.658 Q146.829 591.792 149.144 592.37 Q151.459 592.949 153.982 592.949 Q158.38 592.949 160.672 591.213 Q162.987 589.477 162.987 586.167 Q162.987 583.111 160.834 581.398 Q158.704 579.662 154.885 579.662 L150.857 579.662 L150.857 575.82 L155.07 575.82 Q158.519 575.82 160.348 574.454 Q162.177 573.065 162.177 570.472 Q162.177 567.81 160.278 566.398 Q158.403 564.963 154.885 564.963 Q152.964 564.963 150.765 565.38 Q148.566 565.797 145.927 566.676 L145.927 562.51 Q148.589 561.769 150.903 561.398 Q153.241 561.028 155.302 561.028 Q160.626 561.028 163.727 563.459 Q166.829 565.866 166.829 569.986 Q166.829 572.857 165.186 574.847 Q163.542 576.815 160.51 577.579 Z" fill="#000000" fill-rule="nonzero" fill-opacity="1" /><path clip-path="url(#clip480)" d="M187.084 577.07 Q183.936 577.07 182.084 579.222 Q180.255 581.375 180.255 585.125 Q180.255 588.852 182.084 591.028 Q183.936 593.181 187.084 593.181 Q190.232 593.181 192.061 591.028 Q193.913 588.852 193.913 585.125 Q193.913 581.375 192.061 579.222 Q190.232 577.07 187.084 577.07 M196.366 562.417 L196.366 566.676 Q194.607 565.843 192.801 565.403 Q191.019 564.963 189.26 564.963 Q184.63 564.963 182.176 568.088 Q179.746 571.213 179.399 577.533 Q180.764 575.519 182.825 574.454 Q184.885 573.366 187.362 573.366 Q192.57 573.366 195.579 576.537 Q198.612 579.685 198.612 585.125 Q198.612 590.449 195.463 593.667 Q192.315 596.884 187.084 596.884 Q181.089 596.884 177.917 592.301 Q174.746 587.695 174.746 578.968 Q174.746 570.773 178.635 565.912 Q182.524 561.028 189.075 561.028 Q190.834 561.028 192.616 561.375 Q194.422 561.722 196.366 562.417 Z" fill="#000000" fill-rule="nonzero" fill-opacity="1" /><path clip-path="url(#clip480)" d="M121.274 405.804 L137.593 405.804 L137.593 409.739 L115.649 409.739 L115.649 405.804 Q118.311 403.05 122.894 398.42 Q127.501 393.767 128.681 392.425 Q130.927 389.901 131.806 388.165 Q132.709 386.406 132.709 384.716 Q132.709 381.962 130.765 380.226 Q128.843 378.489 125.742 378.489 Q123.543 378.489 121.089 379.253 Q118.658 380.017 115.881 381.568 L115.881 376.846 Q118.705 375.712 121.158 375.133 Q123.612 374.554 125.649 374.554 Q131.019 374.554 134.214 377.24 Q137.408 379.925 137.408 384.415 Q137.408 386.545 136.598 388.466 Q135.811 390.364 133.704 392.957 Q133.126 393.628 130.024 396.846 Q126.922 400.04 121.274 405.804 Z" fill="#000000" fill-rule="nonzero" fill-opacity="1" /><path clip-path="url(#clip480)" d="M161.575 391.105 Q164.931 391.823 166.806 394.091 Q168.704 396.36 168.704 399.693 Q168.704 404.809 165.186 407.61 Q161.667 410.411 155.186 410.411 Q153.01 410.411 150.695 409.971 Q148.403 409.554 145.95 408.698 L145.95 404.184 Q147.894 405.318 150.209 405.897 Q152.524 406.475 155.047 406.475 Q159.445 406.475 161.737 404.739 Q164.052 403.003 164.052 399.693 Q164.052 396.638 161.899 394.925 Q159.769 393.188 155.95 393.188 L151.922 393.188 L151.922 389.346 L156.135 389.346 Q159.584 389.346 161.413 387.98 Q163.241 386.591 163.241 383.999 Q163.241 381.337 161.343 379.925 Q159.468 378.489 155.95 378.489 Q154.028 378.489 151.829 378.906 Q149.63 379.323 146.991 380.202 L146.991 376.036 Q149.653 375.295 151.968 374.925 Q154.306 374.554 156.366 374.554 Q161.69 374.554 164.792 376.985 Q167.894 379.392 167.894 383.513 Q167.894 386.383 166.251 388.374 Q164.607 390.341 161.575 391.105 Z" fill="#000000" fill-rule="nonzero" fill-opacity="1" /><path clip-path="url(#clip480)" d="M176.389 375.179 L198.612 375.179 L198.612 377.17 L186.065 409.739 L181.181 409.739 L192.987 379.114 L176.389 379.114 L176.389 375.179 Z" fill="#000000" fill-rule="nonzero" fill-opacity="1" /><path clip-path="url(#clip480)" d="M120.464 219.33 L136.783 219.33 L136.783 223.266 L114.839 223.266 L114.839 219.33 Q117.501 216.576 122.084 211.946 Q126.691 207.293 127.871 205.951 Q130.117 203.428 130.996 201.692 Q131.899 199.932 131.899 198.243 Q131.899 195.488 129.955 193.752 Q128.033 192.016 124.931 192.016 Q122.732 192.016 120.279 192.78 Q117.848 193.544 115.07 195.094 L115.07 190.372 Q117.894 189.238 120.348 188.659 Q122.802 188.081 124.839 188.081 Q130.209 188.081 133.404 190.766 Q136.598 193.451 136.598 197.942 Q136.598 200.071 135.788 201.993 Q135.001 203.891 132.894 206.483 Q132.316 207.155 129.214 210.372 Q126.112 213.567 120.464 219.33 Z" fill="#000000" fill-rule="nonzero" fill-opacity="1" /><path clip-path="url(#clip480)" d="M160.765 204.631 Q164.121 205.349 165.996 207.618 Q167.894 209.886 167.894 213.219 Q167.894 218.335 164.376 221.136 Q160.857 223.937 154.376 223.937 Q152.2 223.937 149.885 223.497 Q147.593 223.08 145.14 222.224 L145.14 217.71 Q147.084 218.844 149.399 219.423 Q151.714 220.002 154.237 220.002 Q158.635 220.002 160.927 218.266 Q163.241 216.53 163.241 213.219 Q163.241 210.164 161.089 208.451 Q158.959 206.715 155.14 206.715 L151.112 206.715 L151.112 202.872 L155.325 202.872 Q158.774 202.872 160.603 201.506 Q162.431 200.118 162.431 197.525 Q162.431 194.863 160.533 193.451 Q158.658 192.016 155.14 192.016 Q153.218 192.016 151.019 192.432 Q148.82 192.849 146.181 193.729 L146.181 189.562 Q148.843 188.821 151.158 188.451 Q153.496 188.081 155.556 188.081 Q160.88 188.081 163.982 190.511 Q167.084 192.919 167.084 197.039 Q167.084 199.909 165.44 201.9 Q163.797 203.868 160.765 204.631 Z" fill="#000000" fill-rule="nonzero" fill-opacity="1" /><path clip-path="url(#clip480)" d="M186.76 206.854 Q183.426 206.854 181.505 208.636 Q179.607 210.418 179.607 213.543 Q179.607 216.668 181.505 218.451 Q183.426 220.233 186.76 220.233 Q190.093 220.233 192.014 218.451 Q193.936 216.645 193.936 213.543 Q193.936 210.418 192.014 208.636 Q190.116 206.854 186.76 206.854 M182.084 204.863 Q179.075 204.122 177.385 202.062 Q175.718 200.002 175.718 197.039 Q175.718 192.895 178.658 190.488 Q181.621 188.081 186.76 188.081 Q191.922 188.081 194.862 190.488 Q197.801 192.895 197.801 197.039 Q197.801 200.002 196.112 202.062 Q194.445 204.122 191.459 204.863 Q194.838 205.65 196.713 207.942 Q198.612 210.233 198.612 213.543 Q198.612 218.567 195.533 221.252 Q192.477 223.937 186.76 223.937 Q181.042 223.937 177.964 221.252 Q174.908 218.567 174.908 213.543 Q174.908 210.233 176.806 207.942 Q178.704 205.65 182.084 204.863 M180.371 197.479 Q180.371 200.164 182.038 201.669 Q183.727 203.173 186.76 203.173 Q189.769 203.173 191.459 201.669 Q193.172 200.164 193.172 197.479 Q193.172 194.794 191.459 193.289 Q189.769 191.784 186.76 191.784 Q183.727 191.784 182.038 193.289 Q180.371 194.794 180.371 197.479 Z" fill="#000000" fill-rule="nonzero" fill-opacity="1" /><path clip-path="url(#clip480)" d="M41.7242 960.972 Q42.4244 958.903 44.7161 956.961 Q47.0077 954.988 51.0181 953.015 L64.0042 946.49 L64.0042 953.397 L51.8138 959.476 Q47.0395 961.831 45.48 964.059 Q43.9204 966.255 43.9204 970.075 L43.9204 977.077 L64.0042 977.077 L64.0042 983.506 L16.4842 983.506 L16.4842 968.993 Q16.4842 960.844 19.8898 956.834 Q23.2955 952.824 30.1704 952.824 Q34.6582 952.824 37.6183 954.924 Q40.5784 956.993 41.7242 960.972 M21.7677 977.077 L38.6368 977.077 L38.6368 968.993 Q38.6368 964.346 36.5043 961.99 Q34.34 959.603 30.1704 959.603 Q26.0009 959.603 23.9002 961.99 Q21.7677 964.346 21.7677 968.993 L21.7677 977.077 Z" fill="#000000" fill-rule="nonzero" fill-opacity="1" /><path clip-path="url(#clip480)" d="M44.7161 910.905 L47.5806 910.905 L47.5806 937.832 Q53.6281 937.45 56.8109 934.204 Q59.9619 930.926 59.9619 925.101 Q59.9619 921.727 59.1344 918.576 Q58.3069 915.393 56.6518 912.274 L62.1899 912.274 Q63.5267 915.425 64.227 918.735 Q64.9272 922.045 64.9272 925.451 Q64.9272 933.981 59.9619 938.978 Q54.9967 943.943 46.5303 943.943 Q37.7774 943.943 32.6531 939.233 Q27.4968 934.49 27.4968 926.47 Q27.4968 919.276 32.1438 915.107 Q36.7589 910.905 44.7161 910.905 M42.9973 916.762 Q38.1912 916.826 35.3266 919.467 Q32.4621 922.077 32.4621 926.406 Q32.4621 931.308 35.2312 934.268 Q38.0002 937.196 43.0292 937.641 L42.9973 916.762 Z" fill="#000000" fill-rule="nonzero" fill-opacity="1" /><path clip-path="url(#clip480)" d="M14.479 883.246 L19.3487 883.246 L19.3487 888.848 Q19.3487 891.999 20.6219 893.241 Q21.895 894.45 25.2052 894.45 L28.3562 894.45 L28.3562 884.806 L32.9077 884.806 L32.9077 894.45 L64.0042 894.45 L64.0042 900.338 L32.9077 900.338 L32.9077 905.94 L28.3562 905.94 L28.3562 900.338 L25.8736 900.338 Q19.9216 900.338 17.2162 897.569 Q14.479 894.8 14.479 888.785 L14.479 883.246 Z" fill="#000000" fill-rule="nonzero" fill-opacity="1" /><path clip-path="url(#clip480)" d="M14.479 878.345 L14.479 872.488 L64.0042 872.488 L64.0042 878.345 L14.479 878.345 Z" fill="#000000" fill-rule="nonzero" fill-opacity="1" /><path clip-path="url(#clip480)" d="M44.7161 829.743 L47.5806 829.743 L47.5806 856.67 Q53.6281 856.288 56.8109 853.041 Q59.9619 849.763 59.9619 843.938 Q59.9619 840.564 59.1344 837.413 Q58.3069 834.231 56.6518 831.111 L62.1899 831.111 Q63.5267 834.262 64.227 837.573 Q64.9272 840.883 64.9272 844.288 Q64.9272 852.818 59.9619 857.815 Q54.9967 862.781 46.5303 862.781 Q37.7774 862.781 32.6531 858.07 Q27.4968 853.328 27.4968 845.307 Q27.4968 838.114 32.1438 833.944 Q36.7589 829.743 44.7161 829.743 M42.9973 835.599 Q38.1912 835.663 35.3266 838.305 Q32.4621 840.915 32.4621 845.243 Q32.4621 850.145 35.2312 853.105 Q38.0002 856.033 43.0292 856.479 L42.9973 835.599 Z" fill="#000000" fill-rule="nonzero" fill-opacity="1" /><path clip-path="url(#clip480)" d="M29.7248 794.477 L35.1993 794.477 Q33.8307 796.959 33.1623 799.474 Q32.4621 801.956 32.4621 804.503 Q32.4621 810.2 36.0905 813.351 Q39.6872 816.502 46.212 816.502 Q52.7369 816.502 56.3653 813.351 Q59.9619 810.2 59.9619 804.503 Q59.9619 801.956 59.2935 799.474 Q58.5933 796.959 57.2247 794.477 L62.6355 794.477 Q63.7814 796.927 64.3543 799.569 Q64.9272 802.179 64.9272 805.139 Q64.9272 813.192 59.8664 817.934 Q54.8057 822.677 46.212 822.677 Q37.491 822.677 32.4939 817.902 Q27.4968 813.096 27.4968 804.757 Q27.4968 802.052 28.0697 799.474 Q28.6108 796.896 29.7248 794.477 Z" fill="#000000" fill-rule="nonzero" fill-opacity="1" /><path clip-path="url(#clip480)" d="M18.2347 778.499 L28.3562 778.499 L28.3562 766.436 L32.9077 766.436 L32.9077 778.499 L52.2594 778.499 Q56.6199 778.499 57.8613 777.321 Q59.1026 776.112 59.1026 772.451 L59.1026 766.436 L64.0042 766.436 L64.0042 772.451 Q64.0042 779.231 61.4897 781.809 Q58.9434 784.387 52.2594 784.387 L32.9077 784.387 L32.9077 788.684 L28.3562 788.684 L28.3562 784.387 L18.2347 784.387 L18.2347 778.499 Z" fill="#000000" fill-rule="nonzero" fill-opacity="1" /><path clip-path="url(#clip480)" d="M28.3562 758.733 L28.3562 752.877 L64.0042 752.877 L64.0042 758.733 L28.3562 758.733 M14.479 758.733 L14.479 752.877 L21.895 752.877 L21.895 758.733 L14.479 758.733 Z" fill="#000000" fill-rule="nonzero" fill-opacity="1" /><path clip-path="url(#clip480)" d="M28.3562 744.824 L28.3562 738.618 L58.275 727.478 L28.3562 716.338 L28.3562 710.131 L64.0042 723.499 L64.0042 731.456 L28.3562 744.824 Z" fill="#000000" fill-rule="nonzero" fill-opacity="1" /><path clip-path="url(#clip480)" d="M28.3562 702.047 L28.3562 696.19 L64.0042 696.19 L64.0042 702.047 L28.3562 702.047 M14.479 702.047 L14.479 696.19 L21.895 696.19 L21.895 702.047 L14.479 702.047 Z" fill="#000000" fill-rule="nonzero" fill-opacity="1" /><path clip-path="url(#clip480)" d="M18.2347 678.143 L28.3562 678.143 L28.3562 666.08 L32.9077 666.08 L32.9077 678.143 L52.2594 678.143 Q56.6199 678.143 57.8613 676.966 Q59.1026 675.756 59.1026 672.096 L59.1026 666.08 L64.0042 666.08 L64.0042 672.096 Q64.0042 678.875 61.4897 681.454 Q58.9434 684.032 52.2594 684.032 L32.9077 684.032 L32.9077 688.329 L28.3562 688.329 L28.3562 684.032 L18.2347 684.032 L18.2347 678.143 Z" fill="#000000" fill-rule="nonzero" fill-opacity="1" /><path clip-path="url(#clip480)" d="M67.3143 643.546 Q73.68 646.028 75.6216 648.384 Q77.5631 650.739 77.5631 654.686 L77.5631 659.365 L72.6615 659.365 L72.6615 655.927 Q72.6615 653.508 71.5157 652.171 Q70.3699 650.835 66.1048 649.211 L63.4312 648.161 L28.3562 662.579 L28.3562 656.373 L56.238 645.233 L28.3562 634.093 L28.3562 627.886 L67.3143 643.546 Z" fill="#000000" fill-rule="nonzero" fill-opacity="1" /><path clip-path="url(#clip480)" d="M18.0438 570.34 L24.314 570.34 Q22.5634 574 21.704 577.247 Q20.8447 580.493 20.8447 583.517 Q20.8447 588.769 22.8817 591.633 Q24.9187 594.466 28.6745 594.466 Q31.8255 594.466 33.4488 592.588 Q35.0402 590.679 36.0269 585.395 L36.8226 581.512 Q38.1912 574.319 41.6605 570.913 Q45.098 567.476 50.8908 567.476 Q57.7976 567.476 61.3624 572.123 Q64.9272 576.738 64.9272 585.682 Q64.9272 589.055 64.1633 592.875 Q63.3994 596.662 61.9035 600.736 L55.2831 600.736 Q57.4793 596.822 58.5933 593.066 Q59.7073 589.31 59.7073 585.682 Q59.7073 580.175 57.543 577.183 Q55.3786 574.191 51.3682 574.191 Q47.8671 574.191 45.8937 576.356 Q43.9204 578.488 42.9337 583.39 L42.1698 587.305 Q40.7375 594.498 37.682 597.713 Q34.6264 600.927 29.1837 600.927 Q22.8817 600.927 19.2532 596.503 Q15.6248 592.047 15.6248 584.249 Q15.6248 580.907 16.2295 577.438 Q16.8343 573.969 18.0438 570.34 Z" fill="#000000" fill-rule="nonzero" fill-opacity="1" /><path clip-path="url(#clip480)" d="M58.5933 555.763 L58.5933 545.259 L22.3406 545.259 L24.6323 556.686 L18.7758 556.686 L16.4842 545.323 L16.4842 538.894 L58.5933 538.894 L58.5933 528.39 L64.0042 528.39 L64.0042 555.763 L58.5933 555.763 Z" fill="#000000" fill-rule="nonzero" fill-opacity="1" /><path clip-path="url(#clip480)" d="M58.5933 514.29 L58.5933 503.787 L22.3406 503.787 L24.6323 515.213 L18.7758 515.213 L16.4842 503.85 L16.4842 497.421 L58.5933 497.421 L58.5933 486.918 L64.0042 486.918 L64.0042 514.29 L58.5933 514.29 Z" fill="#000000" fill-rule="nonzero" fill-opacity="1" /><polyline clip-path="url(#clip482)" style="stroke:#009af9; stroke-linecap:round; stroke-linejoin:round; stroke-width:4; stroke-opacity:1; fill:none" points="294.559,849.578 296.559,852.326 298.56,855.067 300.56,857.801 302.56,860.527 304.56,863.246 306.561,865.958 308.561,868.663 310.561,871.361 312.561,874.051 314.562,876.735 316.562,879.411 318.562,882.08 320.562,884.741 322.563,887.396 324.563,890.043 326.563,892.684 328.563,895.317 330.564,897.942 332.564,900.561 334.564,903.173 336.564,905.777 338.565,908.374 340.565,910.964 342.565,913.547 344.565,916.123 346.566,918.691 348.566,921.252 350.566,923.807 352.566,926.354 354.567,928.893 356.567,931.426 358.567,933.952 360.567,936.47 362.568,938.981 364.568,941.485 366.568,943.982 368.568,946.472 370.569,948.954 372.569,951.43 374.569,953.898 376.569,956.359 378.57,958.813 380.57,961.26 382.57,963.699 384.57,966.132 386.571,968.557 388.571,970.976 390.571,973.387 392.571,975.791 394.572,978.187 396.572,980.577 398.572,982.959 400.572,985.335 402.573,987.703 404.573,990.064 406.573,992.418 408.573,994.765 410.574,997.105 412.574,999.437 414.574,1001.76 416.574,1004.08 418.575,1006.39 420.575,1008.7 422.575,1010.99 424.575,1013.28 426.576,1015.57 428.576,1017.84 430.576,1020.11 432.576,1022.37 434.577,1024.62 436.577,1026.87 438.577,1029.11 440.577,1031.34 442.578,1033.57 444.578,1035.79 446.578,1038 448.578,1040.2 450.579,1042.4 452.579,1044.59 454.579,1046.77 456.579,1048.95 458.58,1051.12 460.58,1053.28 462.58,1055.44 464.58,1057.58 466.581,1059.72 468.581,1061.86 470.581,1063.98 472.581,1066.1 474.582,1068.21 476.582,1070.32 478.582,1072.42 480.582,1074.51 482.583,1076.59 484.583,1078.67 486.583,1080.74 488.583,1082.8 490.584,1084.85 492.584,1086.9 494.584,1088.94 496.584,1090.98 498.585,1093 500.585,1095.02 502.585,1097.03 504.585,1099.04 506.586,1101.04 508.586,1103.03 510.586,1105.01 512.586,1106.99 514.586,1108.96 516.587,1110.92 518.587,1112.88 520.587,1114.83 522.587,1116.77 524.588,1118.7 526.588,1120.63 528.588,1122.55 530.588,1124.47 532.589,1126.37 534.589,1128.27 536.589,1130.16 538.589,1132.05 540.59,1133.93 542.59,1135.8 544.59,1137.66 546.59,1139.52 548.591,1141.37 550.591,1143.21 552.591,1145.05 554.591,1146.87 556.592,1148.69 558.592,1150.51 560.592,1152.32 562.592,1154.12 564.593,1155.91 566.593,1157.7 568.593,1159.47 570.593,1161.25 572.594,1163.01 574.594,1164.77 576.594,1166.52 578.594,1168.26 580.595,1170 582.595,1171.73 584.595,1173.45 586.595,1175.17 588.596,1176.88 590.596,1178.58 592.596,1180.27 594.596,1181.96 596.597,1183.64 598.597,1185.31 600.597,1186.98 602.597,1188.64 604.598,1190.29 606.598,1191.93 608.598,1193.57 610.598,1195.2 612.599,1196.83 614.599,1198.44 616.599,1200.05 618.599,1201.66 620.6,1203.25 622.6,1204.84 624.6,1206.42 626.6,1208 628.601,1209.56 630.601,1211.12 632.601,1212.68 634.601,1214.22 636.602,1215.76 638.602,1217.29 640.602,1218.82 642.602,1220.34 644.603,1221.85 646.603,1223.35 648.603,1224.85 650.603,1226.34 652.604,1227.82 654.604,1229.3 656.604,1230.77 658.604,1232.23 660.605,1233.68 662.605,1235.13 664.605,1236.57 666.605,1238.01 668.606,1239.43 670.606,1240.85 672.606,1242.26 674.606,1243.67 676.607,1245.07 678.607,1246.46 680.607,1247.85 682.607,1249.22 684.608,1250.59 686.608,1251.96 688.608,1253.31 690.608,1254.66 692.609,1256 694.609,1257.34 696.609,1258.67 698.609,1259.99 700.61,1261.3 702.61,1262.61 704.61,1263.91 706.61,1265.21 708.611,1266.49 710.611,1267.77 712.611,1269.04 714.611,1270.31 716.612,1271.57 718.612,1272.82 720.612,1274.06 722.612,1275.3 724.613,1276.53 726.613,1277.75 728.613,1278.97 730.613,1280.18 732.614,1281.38 734.614,1282.57 736.614,1283.76 738.614,1284.94 740.615,1286.12 742.615,1287.28 744.615,1288.44 746.615,1289.6 748.616,1290.74 750.616,1291.88 752.616,1293.01 754.616,1294.14 756.617,1295.26 758.617,1296.37 760.617,1297.47 762.617,1298.57 764.618,1299.66 766.618,1300.74 768.618,1301.82 770.618,1302.89 772.619,1303.95 774.619,1305.01 776.619,1306.05 778.619,1307.09 780.62,1308.13 782.62,1309.16 784.62,1310.18 786.62,1311.19 788.621,1312.19 790.621,1313.19 792.621,1314.19 794.621,1315.17 796.622,1316.15 798.622,1317.12 800.622,1318.08 802.622,1319.04 804.623,1319.99 806.623,1320.93 808.623,1321.87 810.623,1322.8 812.624,1323.72 814.624,1324.64 816.624,1325.55 818.624,1326.45 820.625,1327.34 822.625,1328.23 824.625,1329.11 826.625,1329.98 828.626,1330.85 830.626,1331.71 832.626,1332.56 834.626,1333.4 836.627,1334.24 838.627,1335.07 840.627,1335.9 842.627,1336.72 844.628,1337.53 846.628,1338.33 848.628,1339.13 850.628,1339.92 852.629,1340.7 854.629,1341.47 856.629,1342.24 858.629,1343 860.63,1343.76 862.63,1344.51 864.63,1345.25 866.63,1345.98 868.631,1346.71 870.631,1347.43 872.631,1348.14 874.631,1348.84 876.632,1349.54 878.632,1350.24 880.632,1350.92 882.632,1351.6 884.633,1352.27 886.633,1352.93 888.633,1353.59 890.633,1354.24 892.634,1354.88 894.634,1355.52 896.634,1356.15 898.634,1356.77 900.635,1357.38 902.635,1357.99 904.635,1358.59 906.635,1359.19 908.636,1359.77 910.636,1360.35 912.636,1360.93 914.636,1361.49 916.637,1362.05 918.637,1362.61 920.637,1363.15 922.637,1363.69 924.638,1364.22 926.638,1364.75 928.638,1365.26 930.638,1365.77 932.639,1366.28 934.639,1366.77 936.639,1367.26 938.639,1367.75 940.64,1368.22 942.64,1368.69 944.64,1369.15 946.64,1369.61 948.641,1370.05 950.641,1370.5 952.641,1370.93 954.641,1371.36 956.642,1371.78 958.642,1372.19 960.642,1372.6 962.642,1372.99 964.643,1373.39 966.643,1373.77 968.643,1374.15 970.643,1374.52 972.644,1374.89 974.644,1375.24 976.644,1375.59 978.644,1375.94 980.645,1376.27 982.645,1376.6 984.645,1376.92 986.645,1377.24 988.646,1377.55 990.646,1377.85 992.646,1378.15 994.646,1378.43 996.647,1378.71 998.647,1378.99 1000.65,1379.25 1002.65,1379.51 1004.65,1379.77 1006.65,1380.01 1008.65,1380.25 1010.65,1380.48 1012.65,1380.71 1014.65,1380.93 1016.65,1381.14 1018.65,1381.34 1020.65,1381.54 1022.65,1381.73 1024.65,1381.91 1026.65,1382.09 1028.65,1382.26 1030.65,1382.42 1032.65,1382.58 1034.65,1382.73 1036.65,1382.87 1038.65,1383 1040.65,1383.13 1042.65,1383.25 1044.65,1383.36 1046.65,1383.47 1048.65,1383.57 1050.65,1383.66 1052.65,1383.75 1054.65,1383.83 1056.65,1383.9 1058.65,1383.97 1060.65,1384.02 1062.65,1384.07 1064.66,1384.12 1066.66,1384.16 1068.66,1384.19 1070.66,1384.21 1072.66,1384.23 1074.66,1384.24 1076.66,1384.24 1078.66,1384.23 1080.66,1384.22 1082.66,1384.2 1084.66,1384.18 1086.66,1384.15 1088.66,1384.11 1090.66,1384.06 1092.66,1384.01 1094.66,1383.95 1096.66,1383.88 1098.66,1383.81 1100.66,1383.73 1102.66,1383.64 1104.66,1383.54 1106.66,1383.44 1108.66,1383.33 1110.66,1383.22 1112.66,1383.09 1114.66,1382.96 1116.66,1382.83 1118.66,1382.68 1120.66,1382.53 1122.66,1382.38 1124.66,1382.21 1126.66,1382.04 1128.66,1381.86 1130.66,1381.68 1132.66,1381.48 1134.66,1381.29 1136.66,1381.08 1138.66,1380.87 1140.66,1380.65 1142.66,1380.42 1144.67,1380.19 1146.67,1379.94 1148.67,1379.7 1150.67,1379.44 1152.67,1379.18 1154.67,1378.91 1156.67,1378.64 1158.67,1378.35 1160.67,1378.06 1162.67,1377.77 1164.67,1377.46 1166.67,1377.15 1168.67,1376.84 1170.67,1376.51 1172.67,1376.18 1174.67,1375.84 1176.67,1375.5 1178.67,1375.15 1180.67,1374.79 1182.67,1374.42 1184.67,1374.05 1186.67,1373.67 1188.67,1373.28 1190.67,1372.89 1192.67,1372.49 1194.67,1372.08 1196.67,1371.66 1198.67,1371.24 1200.67,1370.81 1202.67,1370.38 1204.67,1369.94 1206.67,1369.49 1208.67,1369.03 1210.67,1368.57 1212.67,1368.1 1214.67,1367.62 1216.67,1367.13 1218.67,1366.64 1220.67,1366.14 1222.67,1365.64 1224.68,1365.13 1226.68,1364.61 1228.68,1364.08 1230.68,1363.55 1232.68,1363.01 1234.68,1362.46 1236.68,1361.91 1238.68,1361.35 1240.68,1360.78 1242.68,1360.21 1244.68,1359.62 1246.68,1359.04 1248.68,1358.44 1250.68,1357.84 1252.68,1357.23 1254.68,1356.61 1256.68,1355.99 1258.68,1355.36 1260.68,1354.72 1262.68,1354.08 1264.68,1353.43 1266.68,1352.77 1268.68,1352.1 1270.68,1351.43 1272.68,1350.75 1274.68,1350.07 1276.68,1349.37 1278.68,1348.67 1280.68,1347.97 1282.68,1347.25 1284.68,1346.53 1286.68,1345.8 1288.68,1345.07 1290.68,1344.33 1292.68,1343.58 1294.68,1342.82 1296.68,1342.06 1298.68,1341.29 1300.68,1340.51 1302.68,1339.73 1304.69,1338.94 1306.69,1338.14 1308.69,1337.34 1310.69,1336.53 1312.69,1335.71 1314.69,1334.88 1316.69,1334.05 1318.69,1333.21 1320.69,1332.37 1322.69,1331.51 1324.69,1330.65 1326.69,1329.79 1328.69,1328.91 1330.69,1328.03 1332.69,1327.14 1334.69,1326.25 1336.69,1325.35 1338.69,1324.44 1340.69,1323.52 1342.69,1322.6 1344.69,1321.67 1346.69,1320.73 1348.69,1319.79 1350.69,1318.84 1352.69,1317.88 1354.69,1316.92 1356.69,1315.95 1358.69,1314.97 1360.69,1313.98 1362.69,1312.99 1364.69,1311.99 1366.69,1310.98 1368.69,1309.97 1370.69,1308.95 1372.69,1307.92 1374.69,1306.89 1376.69,1305.85 1378.69,1304.8 1380.69,1303.74 1382.69,1302.68 1384.7,1301.61 1386.7,1300.54 1388.7,1299.45 1390.7,1298.36 1392.7,1297.27 1394.7,1296.16 1396.7,1295.05 1398.7,1293.93 1400.7,1292.81 1402.7,1291.68 1404.7,1290.54 1406.7,1289.39 1408.7,1288.24 1410.7,1287.08 1412.7,1285.91 1414.7,1284.74 1416.7,1283.56 1418.7,1282.37 1420.7,1281.17 1422.7,1279.97 1424.7,1278.76 1426.7,1277.55 1428.7,1276.33 1430.7,1275.1 1432.7,1273.86 1434.7,1272.62 1436.7,1271.37 1438.7,1270.11 1440.7,1268.84 1442.7,1267.57 1444.7,1266.29 1446.7,1265.01 1448.7,1263.72 1450.7,1262.42 1452.7,1261.11 1454.7,1259.8 1456.7,1258.48 1458.7,1257.15 1460.7,1255.81 1462.7,1254.47 1464.71,1253.12 1466.71,1251.77 1468.71,1250.41 1470.71,1249.04 1472.71,1247.66 1474.71,1246.28 1476.71,1244.89 1478.71,1243.49 1480.71,1242.08 1482.71,1240.67 1484.71,1239.26 1486.71,1237.83 1488.71,1236.4 1490.71,1234.96 1492.71,1233.51 1494.71,1232.06 1496.71,1230.6 1498.71,1229.13 1500.71,1227.66 1502.71,1226.18 1504.71,1224.69 1506.71,1223.19 1508.71,1221.69 1510.71,1220.18 1512.71,1218.66 1514.71,1217.14 1516.71,1215.61 1518.71,1214.07 1520.71,1212.53 1522.71,1210.98 1524.71,1209.42 1526.71,1207.85 1528.71,1206.28 1530.71,1204.7 1532.71,1203.12 1534.71,1201.52 1536.71,1199.92 1538.71,1198.31 1540.71,1196.7 1542.71,1195.08 1544.72,1193.45 1546.72,1191.82 1548.72,1190.17 1550.72,1188.52 1552.72,1186.87 1554.72,1185.2 1556.72,1183.53 1558.72,1181.86 1560.72,1180.17 1562.72,1178.48 1564.72,1176.78 1566.72,1175.08 1568.72,1173.36 1570.72,1171.64 1572.72,1169.92 1574.72,1168.18 1576.72,1166.44 1578.72,1164.7 1580.72,1162.94 1582.72,1161.18 1584.72,1159.41 1586.72,1157.63 1588.72,1155.85 1590.72,1154.06 1592.72,1152.27 1594.72,1150.46 1596.72,1148.65 1598.72,1146.83 1600.72,1145.01 1602.72,1143.18 1604.72,1141.34 1606.72,1139.49 1608.72,1137.64 1610.72,1135.78 1612.72,1133.91 1614.72,1132.04 1616.72,1130.16 1618.72,1128.27 1620.72,1126.37 1622.72,1124.47 1624.73,1122.56 1626.73,1120.64 1628.73,1118.72 1630.73,1116.79 1632.73,1114.85 1634.73,1112.91 1636.73,1110.96 1638.73,1109 1640.73,1107.03 1642.73,1105.06 1644.73,1103.08 1646.73,1101.09 1648.73,1099.1 1650.73,1097.1 1652.73,1095.09 1654.73,1093.08 1656.73,1091.06 1658.73,1089.03 1660.73,1086.99 1662.73,1084.95 1664.73,1082.9 1666.73,1080.84 1668.73,1078.78 1670.73,1076.71 1672.73,1074.63 1674.73,1072.54 1676.73,1070.45 1678.73,1068.35 1680.73,1066.24 1682.73,1064.13 1684.73,1062.01 1686.73,1059.88 1688.73,1057.75 1690.73,1055.61 1692.73,1053.46 1694.73,1051.3 1696.73,1049.14 1698.73,1046.97 1700.73,1044.79 1702.73,1042.61 1704.74,1040.42 1706.74,1038.22 1708.74,1036.01 1710.74,1033.8 1712.74,1031.58 1714.74,1029.35 1716.74,1027.12 1718.74,1024.88 1720.74,1022.63 1722.74,1020.38 1724.74,1018.12 1726.74,1015.85 1728.74,1013.57 1730.74,1011.29 1732.74,1009 1734.74,1006.7 1736.74,1004.4 1738.74,1002.09 1740.74,999.767 1742.74,997.442 1744.74,995.109 1746.74,992.77 1748.74,990.423 1750.74,988.069 1752.74,985.709 1754.74,983.341 1756.74,980.966 1758.74,978.584 1760.74,976.194 1762.74,973.798 1764.74,971.395 1766.74,968.984 1768.74,966.567 1770.74,964.142 1772.74,961.711 1774.74,959.272 1776.74,956.826 1778.74,954.373 1780.74,951.913 1782.74,949.446 1784.75,946.972 1786.75,944.49 1788.75,942.002 1790.75,939.506 1792.75,937.004 1794.75,934.494 1796.75,931.977 1798.75,929.453 1800.75,926.922 1802.75,924.384 1804.75,921.839 1806.75,919.287 1808.75,916.727 1810.75,914.161 1812.75,911.587 1814.75,909.007 1816.75,906.419 1818.75,903.824 1820.75,901.222 1822.75,898.613 1824.75,895.997 1826.75,893.373 1828.75,890.743 1830.75,888.105 1832.75,885.46 1834.75,882.809 1836.75,880.15 1838.75,877.484 1840.75,874.81 1842.75,872.13 1844.75,869.443 1846.75,866.748 1848.75,864.047 1850.75,861.338 1852.75,858.622 1854.75,855.899 1856.75,853.169 1858.75,850.432 1860.75,847.687 1862.75,844.936 1864.76,842.177 1866.76,839.411 1868.76,836.638 1870.76,833.858 1872.76,831.071 1874.76,828.277 1876.76,825.476 1878.76,822.667 1880.76,819.851 1882.76,817.029 1884.76,814.199 1886.76,811.361 1888.76,808.517 1890.76,805.666 1892.76,802.807 1894.76,799.942 1896.76,797.069 1898.76,794.189 1900.76,791.302 1902.76,788.408 1904.76,785.506 1906.76,782.598 1908.76,779.682 1910.76,776.759 1912.76,773.829 1914.76,770.892 1916.76,767.948 1918.76,764.996 1920.76,762.038 1922.76,759.072 1924.76,756.099 1926.76,753.119 1928.76,750.132 1930.76,747.138 1932.76,744.136 1934.76,741.127 1936.76,738.112 1938.76,735.089 1940.76,732.058 1942.76,729.021 1944.76,725.977 1946.77,722.925 1948.77,719.866 1950.77,716.8 1952.77,713.727 1954.77,710.647 1956.77,707.559 1958.77,704.464 1960.77,701.362 1962.77,698.253 1964.77,695.137 1966.77,692.014 1968.77,688.883 1970.77,685.746 1972.77,682.601 1974.77,679.448 1976.77,676.289 1978.77,673.123 1980.77,669.949 1982.77,666.768 1984.77,663.58 1986.77,660.385 1988.77,657.183 1990.77,653.973 1992.77,650.756 1994.77,647.532 1996.77,644.301 1998.77,641.063 2000.77,637.817 2002.77,634.564 2004.77,631.304 2006.77,628.037 2008.77,624.763 2010.77,621.481 2012.77,618.193 2014.77,614.897 2016.77,611.594 2018.77,608.283 2020.77,604.966 2022.77,601.641 2024.77,598.309 2026.78,594.97 2028.78,591.623 2030.78,588.27 2032.78,584.909 2034.78,581.541 2036.78,578.166 2038.78,574.783 2040.78,571.394 2042.78,567.997 2044.78,564.593 2046.78,561.181 2048.78,557.763 2050.78,554.337 2052.78,550.904 2054.78,547.464 2056.78,544.017 2058.78,540.562 2060.78,537.1 2062.78,533.631 2064.78,530.155 2066.78,526.671 2068.78,523.18 2070.78,519.682 2072.78,516.177 2074.78,512.665 2076.78,509.145 2078.78,505.618 2080.78,502.084 2082.78,498.542 2084.78,494.994 2086.78,491.438 2088.78,487.875 2090.78,484.304 2092.78,480.727 2094.78,477.142 2096.78,473.55 2098.78,469.95 2100.78,466.344 2102.78,462.73 2104.78,459.109 2106.79,455.48 2108.79,451.845 2110.79,448.202 2112.79,444.552 2114.79,440.894 2116.79,437.23 2118.79,433.558 2120.79,429.879 2122.79,426.192 2124.79,422.498 2126.79,418.798 2128.79,415.089 2130.79,411.374 2132.79,407.651 2134.79,403.921 2136.79,400.184 2138.79,396.439 2140.79,392.687 2142.79,388.928 2144.79,385.162 2146.79,381.388 2148.79,377.607 2150.79,373.819 2152.79,370.024 2154.79,366.221 2156.79,362.411 2158.79,358.594 2160.79,354.769 2162.79,350.937 2164.79,347.098 2166.79,343.252 2168.79,339.398 2170.79,335.537 2172.79,331.669 2174.79,327.793 2176.79,323.91 2178.79,320.02 2180.79,316.122 2182.79,312.218 2184.79,308.306 2186.8,304.386 2188.8,300.459 2190.8,296.526 2192.8,292.584 2194.8,288.636 2196.8,284.68 2198.8,280.717 2200.8,276.746 2202.8,272.768 2204.8,268.783 2206.8,264.791 2208.8,260.791 2210.8,256.784 2212.8,252.77 2214.8,248.748 2216.8,244.719 2218.8,240.683 2220.8,236.639 2222.8,232.588 2224.8,228.53 2226.8,224.464 2228.8,220.392 2230.8,216.311 2232.8,212.224 2234.8,208.129 2236.8,204.027 2238.8,199.917 2240.8,195.8 2242.8,191.676 2244.8,187.545 2246.8,183.406 2248.8,179.26 2250.8,175.106 2252.8,170.945 2254.8,166.777 2256.8,162.602 2258.8,158.419 2260.8,154.229 2262.8,150.031 2264.8,145.826 2266.81,141.614 2268.81,137.394 2270.81,133.167 2272.81,128.933 2274.81,124.691 2276.81,120.442 2278.81,116.186 2280.81,111.922 2282.81,107.651 2284.81,103.373 2286.81,99.0871 2288.81,94.794 2290.81,90.4935 2292.81,86.1857 "/>
<path clip-path="url(#clip480)" d="M305.216 196.789 L569.461 196.789 L569.461 93.1086 L305.216 93.1086  Z" fill="#ffffff" fill-rule="evenodd" fill-opacity="1"/>
<polyline clip-path="url(#clip480)" style="stroke:#000000; stroke-linecap:round; stroke-linejoin:round; stroke-width:4; stroke-opacity:1; fill:none" points="305.216,196.789 569.461,196.789 569.461,93.1086 305.216,93.1086 305.216,196.789 "/>
<polyline clip-path="url(#clip480)" style="stroke:#009af9; stroke-linecap:round; stroke-linejoin:round; stroke-width:4; stroke-opacity:1; fill:none" points="328.751,144.949 469.961,144.949 "/>
<path clip-path="url(#clip480)" d="M507.338 164.636 Q505.533 169.266 503.82 170.678 Q502.107 172.09 499.237 172.09 L495.834 172.09 L495.834 168.525 L498.334 168.525 Q500.093 168.525 501.065 167.692 Q502.037 166.858 503.218 163.756 L503.982 161.812 L493.496 136.303 L498.01 136.303 L506.112 156.581 L514.213 136.303 L518.727 136.303 L507.338 164.636 Z" fill="#000000" fill-rule="nonzero" fill-opacity="1" /><path clip-path="url(#clip480)" d="M526.019 158.293 L533.658 158.293 L533.658 131.928 L525.348 133.595 L525.348 129.335 L533.611 127.669 L538.287 127.669 L538.287 158.293 L545.926 158.293 L545.926 162.229 L526.019 162.229 L526.019 158.293 Z" fill="#000000" fill-rule="nonzero" fill-opacity="1" /></svg>
