<?xml version="1.0" encoding="utf-8"?>
<svg xmlns="http://www.w3.org/2000/svg" xmlns:xlink="http://www.w3.org/1999/xlink" width="600" height="400" viewBox="0 0 2400 1600">
<defs>
  <clipPath id="clip030">
    <rect x="0" y="0" width="2400" height="1600"/>
  </clipPath>
</defs>
<path clip-path="url(#clip030)" d="M0 1600 L2400 1600 L2400 0 L0 0  Z" fill="#ffffff" fill-rule="evenodd" fill-opacity="1"/>
<defs>
  <clipPath id="clip031">
    <rect x="480" y="0" width="1681" height="1600"/>
  </clipPath>
</defs>
<path clip-path="url(#clip030)" d="M264.287 1423.18 L2352.76 1423.18 L2352.76 47.2441 L264.287 47.2441  Z" fill="#ffffff" fill-rule="evenodd" fill-opacity="1"/>
<defs>
  <clipPath id="clip032">
    <rect x="264" y="47" width="2089" height="1377"/>
  </clipPath>
</defs>
<polyline clip-path="url(#clip032)" style="stroke:#000000; stroke-linecap:round; stroke-linejoin:round; stroke-width:2; stroke-opacity:0.1; fill:none" points="520.42,1423.18 520.42,47.2441 "/>
<polyline clip-path="url(#clip032)" style="stroke:#000000; stroke-linecap:round; stroke-linejoin:round; stroke-width:2; stroke-opacity:0.1; fill:none" points="914.471,1423.18 914.471,47.2441 "/>
<polyline clip-path="url(#clip032)" style="stroke:#000000; stroke-linecap:round; stroke-linejoin:round; stroke-width:2; stroke-opacity:0.1; fill:none" points="1308.52,1423.18 1308.52,47.2441 "/>
<polyline clip-path="url(#clip032)" style="stroke:#000000; stroke-linecap:round; stroke-linejoin:round; stroke-width:2; stroke-opacity:0.1; fill:none" points="1702.57,1423.18 1702.57,47.2441 "/>
<polyline clip-path="url(#clip032)" style="stroke:#000000; stroke-linecap:round; stroke-linejoin:round; stroke-width:2; stroke-opacity:0.1; fill:none" points="2096.62,1423.18 2096.62,47.2441 "/>
<polyline clip-path="url(#clip032)" style="stroke:#000000; stroke-linecap:round; stroke-linejoin:round; stroke-width:2; stroke-opacity:0.1; fill:none" points="264.287,1384.24 2352.76,1384.24 "/>
<polyline clip-path="url(#clip032)" style="stroke:#000000; stroke-linecap:round; stroke-linejoin:round; stroke-width:2; stroke-opacity:0.1; fill:none" points="264.287,1132.51 2352.76,1132.51 "/>
<polyline clip-path="url(#clip032)" style="stroke:#000000; stroke-linecap:round; stroke-linejoin:round; stroke-width:2; stroke-opacity:0.1; fill:none" points="264.287,880.789 2352.76,880.789 "/>
<polyline clip-path="url(#clip032)" style="stroke:#000000; stroke-linecap:round; stroke-linejoin:round; stroke-width:2; stroke-opacity:0.1; fill:none" points="264.287,629.064 2352.76,629.064 "/>
<polyline clip-path="url(#clip032)" style="stroke:#000000; stroke-linecap:round; stroke-linejoin:round; stroke-width:2; stroke-opacity:0.1; fill:none" points="264.287,377.339 2352.76,377.339 "/>
<polyline clip-path="url(#clip032)" style="stroke:#000000; stroke-linecap:round; stroke-linejoin:round; stroke-width:2; stroke-opacity:0.1; fill:none" points="264.287,125.615 2352.76,125.615 "/>
<polyline clip-path="url(#clip030)" style="stroke:#000000; stroke-linecap:round; stroke-linejoin:round; stroke-width:4; stroke-opacity:1; fill:none" points="264.287,1423.18 2352.76,1423.18 "/>
<polyline clip-path="url(#clip030)" style="stroke:#000000; stroke-linecap:round; stroke-linejoin:round; stroke-width:4; stroke-opacity:1; fill:none" points="520.42,1423.18 520.42,1404.28 "/>
<polyline clip-path="url(#clip030)" style="stroke:#000000; stroke-linecap:round; stroke-linejoin:round; stroke-width:4; stroke-opacity:1; fill:none" points="914.471,1423.18 914.471,1404.28 "/>
<polyline clip-path="url(#clip030)" style="stroke:#000000; stroke-linecap:round; stroke-linejoin:round; stroke-width:4; stroke-opacity:1; fill:none" points="1308.52,1423.18 1308.52,1404.28 "/>
<polyline clip-path="url(#clip030)" style="stroke:#000000; stroke-linecap:round; stroke-linejoin:round; stroke-width:4; stroke-opacity:1; fill:none" points="1702.57,1423.18 1702.57,1404.28 "/>
<polyline clip-path="url(#clip030)" style="stroke:#000000; stroke-linecap:round; stroke-linejoin:round; stroke-width:4; stroke-opacity:1; fill:none" points="2096.62,1423.18 2096.62,1404.28 "/>
<path clip-path="url(#clip030)" d="M476.497 1481.64 L492.816 1481.64 L492.816 1485.58 L470.872 1485.58 L470.872 1481.64 Q473.534 1478.89 478.117 1474.26 Q482.724 1469.61 483.904 1468.27 Q486.15 1465.74 487.029 1464.01 Q487.932 1462.25 487.932 1460.56 Q487.932 1457.8 485.988 1456.07 Q484.066 1454.33 480.964 1454.33 Q478.765 1454.33 476.312 1455.09 Q473.881 1455.86 471.103 1457.41 L471.103 1452.69 Q473.927 1451.55 476.381 1450.97 Q478.835 1450.39 480.872 1450.39 Q486.242 1450.39 489.437 1453.08 Q492.631 1455.77 492.631 1460.26 Q492.631 1462.39 491.821 1464.31 Q491.034 1466.2 488.927 1468.8 Q488.349 1469.47 485.247 1472.69 Q482.145 1475.88 476.497 1481.64 Z" fill="#000000" fill-rule="nonzero" fill-opacity="1" /><path clip-path="url(#clip030)" d="M502.77 1484.86 L502.77 1480.6 Q504.529 1481.44 506.335 1481.88 Q508.14 1482.32 509.876 1482.32 Q514.506 1482.32 516.936 1479.21 Q519.39 1476.09 519.737 1469.75 Q518.395 1471.74 516.335 1472.8 Q514.274 1473.87 511.774 1473.87 Q506.589 1473.87 503.557 1470.74 Q500.548 1467.59 500.548 1462.15 Q500.548 1456.83 503.696 1453.61 Q506.844 1450.39 512.075 1450.39 Q518.071 1450.39 521.219 1455 Q524.39 1459.58 524.39 1468.33 Q524.39 1476.51 520.501 1481.39 Q516.636 1486.25 510.085 1486.25 Q508.325 1486.25 506.52 1485.9 Q504.714 1485.56 502.77 1484.86 M512.075 1470.21 Q515.224 1470.21 517.052 1468.06 Q518.904 1465.9 518.904 1462.15 Q518.904 1458.43 517.052 1456.27 Q515.224 1454.1 512.075 1454.1 Q508.927 1454.1 507.075 1456.27 Q505.247 1458.43 505.247 1462.15 Q505.247 1465.9 507.075 1468.06 Q508.927 1470.21 512.075 1470.21 Z" fill="#000000" fill-rule="nonzero" fill-opacity="1" /><path clip-path="url(#clip030)" d="M532.793 1479.7 L537.677 1479.7 L537.677 1485.58 L532.793 1485.58 L532.793 1479.7 Z" fill="#000000" fill-rule="nonzero" fill-opacity="1" /><path clip-path="url(#clip030)" d="M558.441 1466.44 Q555.293 1466.44 553.441 1468.59 Q551.612 1470.74 551.612 1474.49 Q551.612 1478.22 553.441 1480.39 Q555.293 1482.55 558.441 1482.55 Q561.589 1482.55 563.418 1480.39 Q565.27 1478.22 565.27 1474.49 Q565.27 1470.74 563.418 1468.59 Q561.589 1466.44 558.441 1466.44 M567.723 1451.78 L567.723 1456.04 Q565.964 1455.21 564.158 1454.77 Q562.376 1454.33 560.617 1454.33 Q555.987 1454.33 553.534 1457.45 Q551.103 1460.58 550.756 1466.9 Q552.121 1464.89 554.182 1463.82 Q556.242 1462.73 558.719 1462.73 Q563.927 1462.73 566.936 1465.9 Q569.969 1469.05 569.969 1474.49 Q569.969 1479.82 566.82 1483.03 Q563.672 1486.25 558.441 1486.25 Q552.446 1486.25 549.274 1481.67 Q546.103 1477.06 546.103 1468.33 Q546.103 1460.14 549.992 1455.28 Q553.881 1450.39 560.432 1450.39 Q562.191 1450.39 563.973 1450.74 Q565.779 1451.09 567.723 1451.78 Z" fill="#000000" fill-rule="nonzero" fill-opacity="1" /><path clip-path="url(#clip030)" d="M870.675 1481.64 L886.994 1481.64 L886.994 1485.58 L865.05 1485.58 L865.05 1481.64 Q867.712 1478.89 872.295 1474.26 Q876.902 1469.61 878.082 1468.27 Q880.328 1465.74 881.207 1464.01 Q882.11 1462.25 882.11 1460.56 Q882.11 1457.8 880.166 1456.07 Q878.244 1454.33 875.142 1454.33 Q872.943 1454.33 870.49 1455.09 Q868.059 1455.86 865.281 1457.41 L865.281 1452.69 Q868.105 1451.55 870.559 1450.97 Q873.013 1450.39 875.05 1450.39 Q880.42 1450.39 883.615 1453.08 Q886.809 1455.77 886.809 1460.26 Q886.809 1462.39 885.999 1464.31 Q885.212 1466.2 883.105 1468.8 Q882.527 1469.47 879.425 1472.69 Q876.323 1475.88 870.675 1481.64 Z" fill="#000000" fill-rule="nonzero" fill-opacity="1" /><path clip-path="url(#clip030)" d="M896.948 1484.86 L896.948 1480.6 Q898.707 1481.44 900.513 1481.88 Q902.318 1482.32 904.054 1482.32 Q908.684 1482.32 911.114 1479.21 Q913.568 1476.09 913.915 1469.75 Q912.573 1471.74 910.513 1472.8 Q908.452 1473.87 905.952 1473.87 Q900.767 1473.87 897.735 1470.74 Q894.726 1467.59 894.726 1462.15 Q894.726 1456.83 897.874 1453.61 Q901.022 1450.39 906.253 1450.39 Q912.249 1450.39 915.397 1455 Q918.568 1459.58 918.568 1468.33 Q918.568 1476.51 914.679 1481.39 Q910.814 1486.25 904.263 1486.25 Q902.503 1486.25 900.698 1485.9 Q898.892 1485.56 896.948 1484.86 M906.253 1470.21 Q909.402 1470.21 911.23 1468.06 Q913.082 1465.9 913.082 1462.15 Q913.082 1458.43 911.23 1456.27 Q909.402 1454.1 906.253 1454.1 Q903.105 1454.1 901.253 1456.27 Q899.425 1458.43 899.425 1462.15 Q899.425 1465.9 901.253 1468.06 Q903.105 1470.21 906.253 1470.21 Z" fill="#000000" fill-rule="nonzero" fill-opacity="1" /><path clip-path="url(#clip030)" d="M926.971 1479.7 L931.855 1479.7 L931.855 1485.58 L926.971 1485.58 L926.971 1479.7 Z" fill="#000000" fill-rule="nonzero" fill-opacity="1" /><path clip-path="url(#clip030)" d="M952.04 1469.17 Q948.707 1469.17 946.786 1470.95 Q944.887 1472.73 944.887 1475.86 Q944.887 1478.98 946.786 1480.77 Q948.707 1482.55 952.04 1482.55 Q955.373 1482.55 957.295 1480.77 Q959.216 1478.96 959.216 1475.86 Q959.216 1472.73 957.295 1470.95 Q955.397 1469.17 952.04 1469.17 M947.364 1467.18 Q944.355 1466.44 942.665 1464.38 Q940.999 1462.32 940.999 1459.35 Q940.999 1455.21 943.938 1452.8 Q946.901 1450.39 952.04 1450.39 Q957.202 1450.39 960.142 1452.8 Q963.082 1455.21 963.082 1459.35 Q963.082 1462.32 961.392 1464.38 Q959.725 1466.44 956.739 1467.18 Q960.119 1467.96 961.994 1470.26 Q963.892 1472.55 963.892 1475.86 Q963.892 1480.88 960.813 1483.57 Q957.758 1486.25 952.04 1486.25 Q946.323 1486.25 943.244 1483.57 Q940.188 1480.88 940.188 1475.86 Q940.188 1472.55 942.087 1470.26 Q943.985 1467.96 947.364 1467.18 M945.651 1459.79 Q945.651 1462.48 947.318 1463.98 Q949.008 1465.49 952.04 1465.49 Q955.049 1465.49 956.739 1463.98 Q958.452 1462.48 958.452 1459.79 Q958.452 1457.11 956.739 1455.6 Q955.049 1454.1 952.04 1454.1 Q949.008 1454.1 947.318 1455.6 Q945.651 1457.11 945.651 1459.79 Z" fill="#000000" fill-rule="nonzero" fill-opacity="1" /><path clip-path="url(#clip030)" d="M1274.75 1466.95 Q1278.11 1467.66 1279.98 1469.93 Q1281.88 1472.2 1281.88 1475.53 Q1281.88 1480.65 1278.36 1483.45 Q1274.84 1486.25 1268.36 1486.25 Q1266.18 1486.25 1263.87 1485.81 Q1261.58 1485.39 1259.12 1484.54 L1259.12 1480.02 Q1261.07 1481.16 1263.38 1481.74 Q1265.7 1482.32 1268.22 1482.32 Q1272.62 1482.32 1274.91 1480.58 Q1277.23 1478.84 1277.23 1475.53 Q1277.23 1472.48 1275.07 1470.77 Q1272.94 1469.03 1269.12 1469.03 L1265.1 1469.03 L1265.1 1465.19 L1269.31 1465.19 Q1272.76 1465.19 1274.59 1463.82 Q1276.42 1462.43 1276.42 1459.84 Q1276.42 1457.18 1274.52 1455.77 Q1272.64 1454.33 1269.12 1454.33 Q1267.2 1454.33 1265 1454.75 Q1262.8 1455.16 1260.17 1456.04 L1260.17 1451.88 Q1262.83 1451.14 1265.14 1450.77 Q1267.48 1450.39 1269.54 1450.39 Q1274.86 1450.39 1277.97 1452.83 Q1281.07 1455.23 1281.07 1459.35 Q1281.07 1462.22 1279.42 1464.21 Q1277.78 1466.18 1274.75 1466.95 Z" fill="#000000" fill-rule="nonzero" fill-opacity="1" /><path clip-path="url(#clip030)" d="M1300.74 1454.1 Q1297.13 1454.1 1295.3 1457.66 Q1293.5 1461.2 1293.5 1468.33 Q1293.5 1475.44 1295.3 1479.01 Q1297.13 1482.55 1300.74 1482.55 Q1304.38 1482.55 1306.18 1479.01 Q1308.01 1475.44 1308.01 1468.33 Q1308.01 1461.2 1306.18 1457.66 Q1304.38 1454.1 1300.74 1454.1 M1300.74 1450.39 Q1306.55 1450.39 1309.61 1455 Q1312.69 1459.58 1312.69 1468.33 Q1312.69 1477.06 1309.61 1481.67 Q1306.55 1486.25 1300.74 1486.25 Q1294.93 1486.25 1291.86 1481.67 Q1288.8 1477.06 1288.8 1468.33 Q1288.8 1459.58 1291.86 1455 Q1294.93 1450.39 1300.74 1450.39 Z" fill="#000000" fill-rule="nonzero" fill-opacity="1" /><path clip-path="url(#clip030)" d="M1320.91 1479.7 L1325.79 1479.7 L1325.79 1485.58 L1320.91 1485.58 L1320.91 1479.7 Z" fill="#000000" fill-rule="nonzero" fill-opacity="1" /><path clip-path="url(#clip030)" d="M1345.98 1454.1 Q1342.36 1454.1 1340.54 1457.66 Q1338.73 1461.2 1338.73 1468.33 Q1338.73 1475.44 1340.54 1479.01 Q1342.36 1482.55 1345.98 1482.55 Q1349.61 1482.55 1351.41 1479.01 Q1353.24 1475.44 1353.24 1468.33 Q1353.24 1461.2 1351.41 1457.66 Q1349.61 1454.1 1345.98 1454.1 M1345.98 1450.39 Q1351.79 1450.39 1354.84 1455 Q1357.92 1459.58 1357.92 1468.33 Q1357.92 1477.06 1354.84 1481.67 Q1351.79 1486.25 1345.98 1486.25 Q1340.16 1486.25 1337.09 1481.67 Q1334.03 1477.06 1334.03 1468.33 Q1334.03 1459.58 1337.09 1455 Q1340.16 1450.39 1345.98 1450.39 Z" fill="#000000" fill-rule="nonzero" fill-opacity="1" /><path clip-path="url(#clip030)" d="M1669.6 1466.95 Q1672.95 1467.66 1674.83 1469.93 Q1676.73 1472.2 1676.73 1475.53 Q1676.73 1480.65 1673.21 1483.45 Q1669.69 1486.25 1663.21 1486.25 Q1661.03 1486.25 1658.72 1485.81 Q1656.43 1485.39 1653.97 1484.54 L1653.97 1480.02 Q1655.92 1481.16 1658.23 1481.74 Q1660.55 1482.32 1663.07 1482.32 Q1667.47 1482.32 1669.76 1480.58 Q1672.07 1478.84 1672.07 1475.53 Q1672.07 1472.48 1669.92 1470.77 Q1667.79 1469.03 1663.97 1469.03 L1659.95 1469.03 L1659.95 1465.19 L1664.16 1465.19 Q1667.61 1465.19 1669.44 1463.82 Q1671.26 1462.43 1671.26 1459.84 Q1671.26 1457.18 1669.37 1455.77 Q1667.49 1454.33 1663.97 1454.33 Q1662.05 1454.33 1659.85 1454.75 Q1657.65 1455.16 1655.01 1456.04 L1655.01 1451.88 Q1657.68 1451.14 1659.99 1450.77 Q1662.33 1450.39 1664.39 1450.39 Q1669.71 1450.39 1672.82 1452.83 Q1675.92 1455.23 1675.92 1459.35 Q1675.92 1462.22 1674.27 1464.21 Q1672.63 1466.18 1669.6 1466.95 Z" fill="#000000" fill-rule="nonzero" fill-opacity="1" /><path clip-path="url(#clip030)" d="M1695.59 1454.1 Q1691.98 1454.1 1690.15 1457.66 Q1688.35 1461.2 1688.35 1468.33 Q1688.35 1475.44 1690.15 1479.01 Q1691.98 1482.55 1695.59 1482.55 Q1699.23 1482.55 1701.03 1479.01 Q1702.86 1475.44 1702.86 1468.33 Q1702.86 1461.2 1701.03 1457.66 Q1699.23 1454.1 1695.59 1454.1 M1695.59 1450.39 Q1701.4 1450.39 1704.46 1455 Q1707.54 1459.58 1707.54 1468.33 Q1707.54 1477.06 1704.46 1481.67 Q1701.4 1486.25 1695.59 1486.25 Q1689.78 1486.25 1686.7 1481.67 Q1683.65 1477.06 1683.65 1468.33 Q1683.65 1459.58 1686.7 1455 Q1689.78 1450.39 1695.59 1450.39 Z" fill="#000000" fill-rule="nonzero" fill-opacity="1" /><path clip-path="url(#clip030)" d="M1715.76 1479.7 L1720.64 1479.7 L1720.64 1485.58 L1715.76 1485.58 L1715.76 1479.7 Z" fill="#000000" fill-rule="nonzero" fill-opacity="1" /><path clip-path="url(#clip030)" d="M1734.85 1481.64 L1751.17 1481.64 L1751.17 1485.58 L1729.23 1485.58 L1729.23 1481.64 Q1731.89 1478.89 1736.47 1474.26 Q1741.08 1469.61 1742.26 1468.27 Q1744.5 1465.74 1745.38 1464.01 Q1746.29 1462.25 1746.29 1460.56 Q1746.29 1457.8 1744.34 1456.07 Q1742.42 1454.33 1739.32 1454.33 Q1737.12 1454.33 1734.67 1455.09 Q1732.24 1455.86 1729.46 1457.41 L1729.46 1452.69 Q1732.28 1451.55 1734.74 1450.97 Q1737.19 1450.39 1739.23 1450.39 Q1744.6 1450.39 1747.79 1453.08 Q1750.99 1455.77 1750.99 1460.26 Q1750.99 1462.39 1750.18 1464.31 Q1749.39 1466.2 1747.28 1468.8 Q1746.7 1469.47 1743.6 1472.69 Q1740.5 1475.88 1734.85 1481.64 Z" fill="#000000" fill-rule="nonzero" fill-opacity="1" /><path clip-path="url(#clip030)" d="M2062.61 1466.95 Q2065.96 1467.66 2067.84 1469.93 Q2069.74 1472.2 2069.74 1475.53 Q2069.74 1480.65 2066.22 1483.45 Q2062.7 1486.25 2056.22 1486.25 Q2054.04 1486.25 2051.73 1485.81 Q2049.44 1485.39 2046.98 1484.54 L2046.98 1480.02 Q2048.93 1481.16 2051.24 1481.74 Q2053.56 1482.32 2056.08 1482.32 Q2060.48 1482.32 2062.77 1480.58 Q2065.08 1478.84 2065.08 1475.53 Q2065.08 1472.48 2062.93 1470.77 Q2060.8 1469.03 2056.98 1469.03 L2052.95 1469.03 L2052.95 1465.19 L2057.17 1465.19 Q2060.62 1465.19 2062.44 1463.82 Q2064.27 1462.43 2064.27 1459.84 Q2064.27 1457.18 2062.38 1455.77 Q2060.5 1454.33 2056.98 1454.33 Q2055.06 1454.33 2052.86 1454.75 Q2050.66 1455.16 2048.02 1456.04 L2048.02 1451.88 Q2050.69 1451.14 2053 1450.77 Q2055.34 1450.39 2057.4 1450.39 Q2062.72 1450.39 2065.82 1452.83 Q2068.93 1455.23 2068.93 1459.35 Q2068.93 1462.22 2067.28 1464.21 Q2065.64 1466.18 2062.61 1466.95 Z" fill="#000000" fill-rule="nonzero" fill-opacity="1" /><path clip-path="url(#clip030)" d="M2088.6 1454.1 Q2084.99 1454.1 2083.16 1457.66 Q2081.36 1461.2 2081.36 1468.33 Q2081.36 1475.44 2083.16 1479.01 Q2084.99 1482.55 2088.6 1482.55 Q2092.24 1482.55 2094.04 1479.01 Q2095.87 1475.44 2095.87 1468.33 Q2095.87 1461.2 2094.04 1457.66 Q2092.24 1454.1 2088.6 1454.1 M2088.6 1450.39 Q2094.41 1450.39 2097.47 1455 Q2100.55 1459.58 2100.55 1468.33 Q2100.55 1477.06 2097.47 1481.67 Q2094.41 1486.25 2088.6 1486.25 Q2082.79 1486.25 2079.71 1481.67 Q2076.66 1477.06 2076.66 1468.33 Q2076.66 1459.58 2079.71 1455 Q2082.79 1450.39 2088.6 1450.39 Z" fill="#000000" fill-rule="nonzero" fill-opacity="1" /><path clip-path="url(#clip030)" d="M2108.76 1479.7 L2113.65 1479.7 L2113.65 1485.58 L2108.76 1485.58 L2108.76 1479.7 Z" fill="#000000" fill-rule="nonzero" fill-opacity="1" /><path clip-path="url(#clip030)" d="M2136.68 1455.09 L2124.88 1473.54 L2136.68 1473.54 L2136.68 1455.09 M2135.45 1451.02 L2141.33 1451.02 L2141.33 1473.54 L2146.26 1473.54 L2146.26 1477.43 L2141.33 1477.43 L2141.33 1485.58 L2136.68 1485.58 L2136.68 1477.43 L2121.08 1477.43 L2121.08 1472.92 L2135.45 1451.02 Z" fill="#000000" fill-rule="nonzero" fill-opacity="1" /><path clip-path="url(#clip030)" d="M1016.69 1520.52 L1043.99 1520.52 L1043.99 1525.93 L1023.12 1525.93 L1023.12 1539.94 L1041.96 1539.94 L1041.96 1545.35 L1023.12 1545.35 L1023.12 1568.04 L1016.69 1568.04 L1016.69 1520.52 Z" fill="#000000" fill-rule="nonzero" fill-opacity="1" /><path clip-path="url(#clip030)" d="M1069.84 1537.87 Q1068.85 1537.3 1067.68 1537.04 Q1066.53 1536.76 1065.13 1536.76 Q1060.16 1536.76 1057.49 1540 Q1054.85 1543.22 1054.85 1549.27 L1054.85 1568.04 L1048.96 1568.04 L1048.96 1532.4 L1054.85 1532.4 L1054.85 1537.93 Q1056.69 1534.69 1059.65 1533.13 Q1062.61 1531.54 1066.85 1531.54 Q1067.45 1531.54 1068.18 1531.63 Q1068.92 1531.7 1069.81 1531.85 L1069.84 1537.87 Z" fill="#000000" fill-rule="nonzero" fill-opacity="1" /><path clip-path="url(#clip030)" d="M1105.04 1548.76 L1105.04 1551.62 L1078.11 1551.62 Q1078.5 1557.67 1081.74 1560.85 Q1085.02 1564 1090.85 1564 Q1094.22 1564 1097.37 1563.17 Q1100.55 1562.35 1103.67 1560.69 L1103.67 1566.23 Q1100.52 1567.57 1097.21 1568.27 Q1093.9 1568.97 1090.5 1568.97 Q1081.97 1568.97 1076.97 1564 Q1072 1559.04 1072 1550.57 Q1072 1541.82 1076.71 1536.69 Q1081.46 1531.54 1089.48 1531.54 Q1096.67 1531.54 1100.84 1536.18 Q1105.04 1540.8 1105.04 1548.76 M1099.19 1547.04 Q1099.12 1542.23 1096.48 1539.37 Q1093.87 1536.5 1089.54 1536.5 Q1084.64 1536.5 1081.68 1539.27 Q1078.75 1542.04 1078.31 1547.07 L1099.19 1547.04 Z" fill="#000000" fill-rule="nonzero" fill-opacity="1" /><path clip-path="url(#clip030)" d="M1118.16 1550.25 Q1118.16 1556.71 1120.8 1560.4 Q1123.47 1564.07 1128.12 1564.07 Q1132.76 1564.07 1135.44 1560.4 Q1138.11 1556.71 1138.11 1550.25 Q1138.11 1543.79 1135.44 1540.13 Q1132.76 1536.44 1128.12 1536.44 Q1123.47 1536.44 1120.8 1540.13 Q1118.16 1543.79 1118.16 1550.25 M1138.11 1562.7 Q1136.27 1565.88 1133.43 1567.44 Q1130.63 1568.97 1126.69 1568.97 Q1120.22 1568.97 1116.15 1563.81 Q1112.11 1558.65 1112.11 1550.25 Q1112.11 1541.85 1116.15 1536.69 Q1120.22 1531.54 1126.69 1531.54 Q1130.63 1531.54 1133.43 1533.1 Q1136.27 1534.62 1138.11 1537.81 L1138.11 1532.4 L1143.97 1532.4 L1143.97 1581.6 L1138.11 1581.6 L1138.11 1562.7 Z" fill="#000000" fill-rule="nonzero" fill-opacity="1" /><path clip-path="url(#clip030)" d="M1155.43 1553.98 L1155.43 1532.4 L1161.28 1532.4 L1161.28 1553.75 Q1161.28 1558.81 1163.26 1561.36 Q1165.23 1563.87 1169.18 1563.87 Q1173.92 1563.87 1176.66 1560.85 Q1179.43 1557.83 1179.43 1552.61 L1179.43 1532.4 L1185.28 1532.4 L1185.28 1568.04 L1179.43 1568.04 L1179.43 1562.57 Q1177.29 1565.82 1174.46 1567.41 Q1171.66 1568.97 1167.93 1568.97 Q1161.79 1568.97 1158.61 1565.15 Q1155.43 1561.33 1155.43 1553.98 M1170.16 1531.54 L1170.16 1531.54 Z" fill="#000000" fill-rule="nonzero" fill-opacity="1" /><path clip-path="url(#clip030)" d="M1227.84 1548.76 L1227.84 1551.62 L1200.91 1551.62 Q1201.29 1557.67 1204.54 1560.85 Q1207.82 1564 1213.64 1564 Q1217.01 1564 1220.17 1563.17 Q1223.35 1562.35 1226.47 1560.69 L1226.47 1566.23 Q1223.32 1567.57 1220.01 1568.27 Q1216.7 1568.97 1213.29 1568.97 Q1204.76 1568.97 1199.76 1564 Q1194.8 1559.04 1194.8 1550.57 Q1194.8 1541.82 1199.51 1536.69 Q1204.25 1531.54 1212.27 1531.54 Q1219.47 1531.54 1223.63 1536.18 Q1227.84 1540.8 1227.84 1548.76 M1221.98 1547.04 Q1221.92 1542.23 1219.27 1539.37 Q1216.66 1536.5 1212.34 1536.5 Q1207.43 1536.5 1204.47 1539.27 Q1201.55 1542.04 1201.1 1547.07 L1221.98 1547.04 Z" fill="#000000" fill-rule="nonzero" fill-opacity="1" /><path clip-path="url(#clip030)" d="M1267.08 1546.53 L1267.08 1568.04 L1261.22 1568.04 L1261.22 1546.72 Q1261.22 1541.66 1259.25 1539.14 Q1257.28 1536.63 1253.33 1536.63 Q1248.59 1536.63 1245.85 1539.65 Q1243.11 1542.68 1243.11 1547.9 L1243.11 1568.04 L1237.23 1568.04 L1237.23 1532.4 L1243.11 1532.4 L1243.11 1537.93 Q1245.21 1534.72 1248.05 1533.13 Q1250.91 1531.54 1254.64 1531.54 Q1260.78 1531.54 1263.93 1535.36 Q1267.08 1539.14 1267.08 1546.53 Z" fill="#000000" fill-rule="nonzero" fill-opacity="1" /><path clip-path="url(#clip030)" d="M1304.42 1533.76 L1304.42 1539.24 Q1301.93 1537.87 1299.42 1537.2 Q1296.94 1536.5 1294.39 1536.5 Q1288.69 1536.5 1285.54 1540.13 Q1282.39 1543.73 1282.39 1550.25 Q1282.39 1556.78 1285.54 1560.4 Q1288.69 1564 1294.39 1564 Q1296.94 1564 1299.42 1563.33 Q1301.93 1562.63 1304.42 1561.26 L1304.42 1566.68 Q1301.96 1567.82 1299.32 1568.39 Q1296.71 1568.97 1293.75 1568.97 Q1285.7 1568.97 1280.96 1563.91 Q1276.22 1558.85 1276.22 1550.25 Q1276.22 1541.53 1280.99 1536.53 Q1285.8 1531.54 1294.14 1531.54 Q1296.84 1531.54 1299.42 1532.11 Q1302 1532.65 1304.42 1533.76 Z" fill="#000000" fill-rule="nonzero" fill-opacity="1" /><path clip-path="url(#clip030)" d="M1314.6 1532.4 L1320.46 1532.4 L1320.46 1568.04 L1314.6 1568.04 L1314.6 1532.4 M1314.6 1518.52 L1320.46 1518.52 L1320.46 1525.93 L1314.6 1525.93 L1314.6 1518.52 Z" fill="#000000" fill-rule="nonzero" fill-opacity="1" /><path clip-path="url(#clip030)" d="M1363.2 1548.76 L1363.2 1551.62 L1336.28 1551.62 Q1336.66 1557.67 1339.9 1560.85 Q1343.18 1564 1349.01 1564 Q1352.38 1564 1355.53 1563.17 Q1358.72 1562.35 1361.83 1560.69 L1361.83 1566.23 Q1358.68 1567.57 1355.37 1568.27 Q1352.06 1568.97 1348.66 1568.97 Q1340.13 1568.97 1335.13 1564 Q1330.17 1559.04 1330.17 1550.57 Q1330.17 1541.82 1334.88 1536.69 Q1339.62 1531.54 1347.64 1531.54 Q1354.83 1531.54 1359 1536.18 Q1363.2 1540.8 1363.2 1548.76 M1357.35 1547.04 Q1357.28 1542.23 1354.64 1539.37 Q1352.03 1536.5 1347.7 1536.5 Q1342.8 1536.5 1339.84 1539.27 Q1336.91 1542.04 1336.47 1547.07 L1357.35 1547.04 Z" fill="#000000" fill-rule="nonzero" fill-opacity="1" /><path clip-path="url(#clip030)" d="M1395.54 1533.45 L1395.54 1538.98 Q1393.06 1537.71 1390.38 1537.07 Q1387.71 1536.44 1384.85 1536.44 Q1380.49 1536.44 1378.29 1537.77 Q1376.13 1539.11 1376.13 1541.79 Q1376.13 1543.82 1377.69 1545 Q1379.24 1546.15 1383.96 1547.2 L1385.96 1547.64 Q1392.2 1548.98 1394.81 1551.43 Q1397.45 1553.85 1397.45 1558.21 Q1397.45 1563.17 1393.5 1566.07 Q1389.59 1568.97 1382.71 1568.97 Q1379.85 1568.97 1376.73 1568.39 Q1373.64 1567.85 1370.21 1566.74 L1370.21 1560.69 Q1373.45 1562.38 1376.6 1563.24 Q1379.75 1564.07 1382.84 1564.07 Q1386.98 1564.07 1389.21 1562.66 Q1391.43 1561.23 1391.43 1558.65 Q1391.43 1556.27 1389.81 1554.99 Q1388.22 1553.72 1382.78 1552.54 L1380.74 1552.07 Q1375.3 1550.92 1372.88 1548.56 Q1370.46 1546.18 1370.46 1542.04 Q1370.46 1537.01 1374.02 1534.27 Q1377.59 1531.54 1384.15 1531.54 Q1387.39 1531.54 1390.26 1532.01 Q1393.12 1532.49 1395.54 1533.45 Z" fill="#000000" fill-rule="nonzero" fill-opacity="1" /><path clip-path="url(#clip030)" d="M1426.96 1518.52 L1440.45 1518.52 L1440.45 1523.07 L1432.81 1523.07 L1432.81 1572.09 L1440.45 1572.09 L1440.45 1576.64 L1426.96 1576.64 L1426.96 1518.52 Z" fill="#000000" fill-rule="nonzero" fill-opacity="1" /><path clip-path="url(#clip030)" d="M1485.58 1561.26 L1485.58 1548.5 L1475.08 1548.5 L1475.08 1543.22 L1491.95 1543.22 L1491.95 1563.62 Q1488.23 1566.26 1483.74 1567.63 Q1479.25 1568.97 1474.16 1568.97 Q1463.02 1568.97 1456.72 1562.47 Q1450.45 1555.95 1450.45 1544.33 Q1450.45 1532.68 1456.72 1526.19 Q1463.02 1519.66 1474.16 1519.66 Q1478.8 1519.66 1482.97 1520.81 Q1487.18 1521.96 1490.71 1524.18 L1490.71 1531.03 Q1487.14 1528 1483.13 1526.48 Q1479.12 1524.95 1474.7 1524.95 Q1465.98 1524.95 1461.59 1529.82 Q1457.22 1534.69 1457.22 1544.33 Q1457.22 1553.94 1461.59 1558.81 Q1465.98 1563.68 1474.7 1563.68 Q1478.1 1563.68 1480.78 1563.11 Q1483.45 1562.51 1485.58 1561.26 Z" fill="#000000" fill-rule="nonzero" fill-opacity="1" /><path clip-path="url(#clip030)" d="M1503.69 1520.52 L1510.12 1520.52 L1510.12 1540 L1533.49 1540 L1533.49 1520.52 L1539.92 1520.52 L1539.92 1568.04 L1533.49 1568.04 L1533.49 1545.41 L1510.12 1545.41 L1510.12 1568.04 L1503.69 1568.04 L1503.69 1520.52 Z" fill="#000000" fill-rule="nonzero" fill-opacity="1" /><path clip-path="url(#clip030)" d="M1549.91 1532.4 L1577.73 1532.4 L1577.73 1537.74 L1555.7 1563.37 L1577.73 1563.37 L1577.73 1568.04 L1549.11 1568.04 L1549.11 1562.7 L1571.14 1537.07 L1549.91 1537.07 L1549.91 1532.4 Z" fill="#000000" fill-rule="nonzero" fill-opacity="1" /><path clip-path="url(#clip030)" d="M1600.36 1518.52 L1600.36 1576.64 L1586.86 1576.64 L1586.86 1572.09 L1594.47 1572.09 L1594.47 1523.07 L1586.86 1523.07 L1586.86 1518.52 L1600.36 1518.52 Z" fill="#000000" fill-rule="nonzero" fill-opacity="1" /><polyline clip-path="url(#clip030)" style="stroke:#000000; stroke-linecap:round; stroke-linejoin:round; stroke-width:4; stroke-opacity:1; fill:none" points="264.287,1423.18 264.287,47.2441 "/>
<polyline clip-path="url(#clip030)" style="stroke:#000000; stroke-linecap:round; stroke-linejoin:round; stroke-width:4; stroke-opacity:1; fill:none" points="264.287,1384.24 283.185,1384.24 "/>
<polyline clip-path="url(#clip030)" style="stroke:#000000; stroke-linecap:round; stroke-linejoin:round; stroke-width:4; stroke-opacity:1; fill:none" points="264.287,1132.51 283.185,1132.51 "/>
<polyline clip-path="url(#clip030)" style="stroke:#000000; stroke-linecap:round; stroke-linejoin:round; stroke-width:4; stroke-opacity:1; fill:none" points="264.287,880.789 283.185,880.789 "/>
<polyline clip-path="url(#clip030)" style="stroke:#000000; stroke-linecap:round; stroke-linejoin:round; stroke-width:4; stroke-opacity:1; fill:none" points="264.287,629.064 283.185,629.064 "/>
<polyline clip-path="url(#clip030)" style="stroke:#000000; stroke-linecap:round; stroke-linejoin:round; stroke-width:4; stroke-opacity:1; fill:none" points="264.287,377.339 283.185,377.339 "/>
<polyline clip-path="url(#clip030)" style="stroke:#000000; stroke-linecap:round; stroke-linejoin:round; stroke-width:4; stroke-opacity:1; fill:none" points="264.287,125.615 283.185,125.615 "/>
<path clip-path="url(#clip030)" d="M216.343 1370.04 Q212.732 1370.04 210.903 1373.6 Q209.098 1377.14 209.098 1384.27 Q209.098 1391.38 210.903 1394.94 Q212.732 1398.49 216.343 1398.49 Q219.977 1398.49 221.783 1394.94 Q223.611 1391.38 223.611 1384.27 Q223.611 1377.14 221.783 1373.6 Q219.977 1370.04 216.343 1370.04 M216.343 1366.33 Q222.153 1366.33 225.209 1370.94 Q228.287 1375.52 228.287 1384.27 Q228.287 1393 225.209 1397.61 Q222.153 1402.19 216.343 1402.19 Q210.533 1402.19 207.454 1397.61 Q204.399 1393 204.399 1384.27 Q204.399 1375.52 207.454 1370.94 Q210.533 1366.33 216.343 1366.33 Z" fill="#000000" fill-rule="nonzero" fill-opacity="1" /><path clip-path="url(#clip030)" d="M146.066 1115.23 L164.422 1115.23 L164.422 1119.17 L150.348 1119.17 L150.348 1127.64 Q151.366 1127.29 152.385 1127.13 Q153.403 1126.95 154.422 1126.95 Q160.209 1126.95 163.589 1130.12 Q166.968 1133.29 166.968 1138.71 Q166.968 1144.28 163.496 1147.39 Q160.024 1150.46 153.704 1150.46 Q151.528 1150.46 149.26 1150.09 Q147.015 1149.72 144.607 1148.98 L144.607 1144.28 Q146.691 1145.42 148.913 1145.97 Q151.135 1146.53 153.612 1146.53 Q157.616 1146.53 159.954 1144.42 Q162.292 1142.32 162.292 1138.71 Q162.292 1135.09 159.954 1132.99 Q157.616 1130.88 153.612 1130.88 Q151.737 1130.88 149.862 1131.3 Q148.01 1131.71 146.066 1132.59 L146.066 1115.23 Z" fill="#000000" fill-rule="nonzero" fill-opacity="1" /><path clip-path="url(#clip030)" d="M186.181 1118.31 Q182.57 1118.31 180.741 1121.88 Q178.936 1125.42 178.936 1132.55 Q178.936 1139.65 180.741 1143.22 Q182.57 1146.76 186.181 1146.76 Q189.815 1146.76 191.621 1143.22 Q193.45 1139.65 193.45 1132.55 Q193.45 1125.42 191.621 1121.88 Q189.815 1118.31 186.181 1118.31 M186.181 1114.61 Q191.991 1114.61 195.047 1119.22 Q198.125 1123.8 198.125 1132.55 Q198.125 1141.28 195.047 1145.88 Q191.991 1150.46 186.181 1150.46 Q180.371 1150.46 177.292 1145.88 Q174.237 1141.28 174.237 1132.55 Q174.237 1123.8 177.292 1119.22 Q180.371 1114.61 186.181 1114.61 Z" fill="#000000" fill-rule="nonzero" fill-opacity="1" /><path clip-path="url(#clip030)" d="M216.343 1118.31 Q212.732 1118.31 210.903 1121.88 Q209.098 1125.42 209.098 1132.55 Q209.098 1139.65 210.903 1143.22 Q212.732 1146.76 216.343 1146.76 Q219.977 1146.76 221.783 1143.22 Q223.611 1139.65 223.611 1132.55 Q223.611 1125.42 221.783 1121.88 Q219.977 1118.31 216.343 1118.31 M216.343 1114.61 Q222.153 1114.61 225.209 1119.22 Q228.287 1123.8 228.287 1132.55 Q228.287 1141.28 225.209 1145.88 Q222.153 1150.46 216.343 1150.46 Q210.533 1150.46 207.454 1145.88 Q204.399 1141.28 204.399 1132.55 Q204.399 1123.8 207.454 1119.22 Q210.533 1114.61 216.343 1114.61 Z" fill="#000000" fill-rule="nonzero" fill-opacity="1" /><path clip-path="url(#clip030)" d="M116.668 894.134 L124.306 894.134 L124.306 867.768 L115.996 869.435 L115.996 865.176 L124.26 863.509 L128.936 863.509 L128.936 894.134 L136.575 894.134 L136.575 898.069 L116.668 898.069 L116.668 894.134 Z" fill="#000000" fill-rule="nonzero" fill-opacity="1" /><path clip-path="url(#clip030)" d="M156.019 866.588 Q152.408 866.588 150.579 870.152 Q148.774 873.694 148.774 880.824 Q148.774 887.93 150.579 891.495 Q152.408 895.036 156.019 895.036 Q159.653 895.036 161.459 891.495 Q163.288 887.93 163.288 880.824 Q163.288 873.694 161.459 870.152 Q159.653 866.588 156.019 866.588 M156.019 862.884 Q161.829 862.884 164.885 867.49 Q167.964 872.074 167.964 880.824 Q167.964 889.55 164.885 894.157 Q161.829 898.74 156.019 898.74 Q150.209 898.74 147.13 894.157 Q144.075 889.55 144.075 880.824 Q144.075 872.074 147.13 867.49 Q150.209 862.884 156.019 862.884 Z" fill="#000000" fill-rule="nonzero" fill-opacity="1" /><path clip-path="url(#clip030)" d="M186.181 866.588 Q182.57 866.588 180.741 870.152 Q178.936 873.694 178.936 880.824 Q178.936 887.93 180.741 891.495 Q182.57 895.036 186.181 895.036 Q189.815 895.036 191.621 891.495 Q193.45 887.93 193.45 880.824 Q193.45 873.694 191.621 870.152 Q189.815 866.588 186.181 866.588 M186.181 862.884 Q191.991 862.884 195.047 867.49 Q198.125 872.074 198.125 880.824 Q198.125 889.55 195.047 894.157 Q191.991 898.74 186.181 898.74 Q180.371 898.74 177.292 894.157 Q174.237 889.55 174.237 880.824 Q174.237 872.074 177.292 867.49 Q180.371 862.884 186.181 862.884 Z" fill="#000000" fill-rule="nonzero" fill-opacity="1" /><path clip-path="url(#clip030)" d="M216.343 866.588 Q212.732 866.588 210.903 870.152 Q209.098 873.694 209.098 880.824 Q209.098 887.93 210.903 891.495 Q212.732 895.036 216.343 895.036 Q219.977 895.036 221.783 891.495 Q223.611 887.93 223.611 880.824 Q223.611 873.694 221.783 870.152 Q219.977 866.588 216.343 866.588 M216.343 862.884 Q222.153 862.884 225.209 867.49 Q228.287 872.074 228.287 880.824 Q228.287 889.55 225.209 894.157 Q222.153 898.74 216.343 898.74 Q210.533 898.74 207.454 894.157 Q204.399 889.55 204.399 880.824 Q204.399 872.074 207.454 867.49 Q210.533 862.884 216.343 862.884 Z" fill="#000000" fill-rule="nonzero" fill-opacity="1" /><path clip-path="url(#clip030)" d="M116.668 642.409 L124.306 642.409 L124.306 616.043 L115.996 617.71 L115.996 613.451 L124.26 611.784 L128.936 611.784 L128.936 642.409 L136.575 642.409 L136.575 646.344 L116.668 646.344 L116.668 642.409 Z" fill="#000000" fill-rule="nonzero" fill-opacity="1" /><path clip-path="url(#clip030)" d="M146.066 611.784 L164.422 611.784 L164.422 615.719 L150.348 615.719 L150.348 624.191 Q151.366 623.844 152.385 623.682 Q153.403 623.497 154.422 623.497 Q160.209 623.497 163.589 626.668 Q166.968 629.84 166.968 635.256 Q166.968 640.835 163.496 643.937 Q160.024 647.015 153.704 647.015 Q151.528 647.015 149.26 646.645 Q147.015 646.275 144.607 645.534 L144.607 640.835 Q146.691 641.969 148.913 642.525 Q151.135 643.08 153.612 643.08 Q157.616 643.08 159.954 640.974 Q162.292 638.867 162.292 635.256 Q162.292 631.645 159.954 629.539 Q157.616 627.432 153.612 627.432 Q151.737 627.432 149.862 627.849 Q148.01 628.266 146.066 629.145 L146.066 611.784 Z" fill="#000000" fill-rule="nonzero" fill-opacity="1" /><path clip-path="url(#clip030)" d="M186.181 614.863 Q182.57 614.863 180.741 618.428 Q178.936 621.969 178.936 629.099 Q178.936 636.205 180.741 639.77 Q182.57 643.312 186.181 643.312 Q189.815 643.312 191.621 639.77 Q193.45 636.205 193.45 629.099 Q193.45 621.969 191.621 618.428 Q189.815 614.863 186.181 614.863 M186.181 611.159 Q191.991 611.159 195.047 615.766 Q198.125 620.349 198.125 629.099 Q198.125 637.826 195.047 642.432 Q191.991 647.015 186.181 647.015 Q180.371 647.015 177.292 642.432 Q174.237 637.826 174.237 629.099 Q174.237 620.349 177.292 615.766 Q180.371 611.159 186.181 611.159 Z" fill="#000000" fill-rule="nonzero" fill-opacity="1" /><path clip-path="url(#clip030)" d="M216.343 614.863 Q212.732 614.863 210.903 618.428 Q209.098 621.969 209.098 629.099 Q209.098 636.205 210.903 639.77 Q212.732 643.312 216.343 643.312 Q219.977 643.312 221.783 639.77 Q223.611 636.205 223.611 629.099 Q223.611 621.969 221.783 618.428 Q219.977 614.863 216.343 614.863 M216.343 611.159 Q222.153 611.159 225.209 615.766 Q228.287 620.349 228.287 629.099 Q228.287 637.826 225.209 642.432 Q222.153 647.015 216.343 647.015 Q210.533 647.015 207.454 642.432 Q204.399 637.826 204.399 629.099 Q204.399 620.349 207.454 615.766 Q210.533 611.159 216.343 611.159 Z" fill="#000000" fill-rule="nonzero" fill-opacity="1" /><path clip-path="url(#clip030)" d="M119.885 390.684 L136.204 390.684 L136.204 394.619 L114.26 394.619 L114.26 390.684 Q116.922 387.93 121.505 383.3 Q126.112 378.647 127.292 377.305 Q129.538 374.782 130.417 373.045 Q131.32 371.286 131.32 369.596 Q131.32 366.842 129.376 365.106 Q127.455 363.37 124.353 363.37 Q122.154 363.37 119.7 364.133 Q117.269 364.897 114.492 366.448 L114.492 361.726 Q117.316 360.592 119.769 360.013 Q122.223 359.434 124.26 359.434 Q129.63 359.434 132.825 362.12 Q136.019 364.805 136.019 369.296 Q136.019 371.425 135.209 373.346 Q134.422 375.245 132.316 377.837 Q131.737 378.508 128.635 381.726 Q125.533 384.92 119.885 390.684 Z" fill="#000000" fill-rule="nonzero" fill-opacity="1" /><path clip-path="url(#clip030)" d="M156.019 363.138 Q152.408 363.138 150.579 366.703 Q148.774 370.245 148.774 377.374 Q148.774 384.481 150.579 388.045 Q152.408 391.587 156.019 391.587 Q159.653 391.587 161.459 388.045 Q163.288 384.481 163.288 377.374 Q163.288 370.245 161.459 366.703 Q159.653 363.138 156.019 363.138 M156.019 359.434 Q161.829 359.434 164.885 364.041 Q167.964 368.624 167.964 377.374 Q167.964 386.101 164.885 390.707 Q161.829 395.291 156.019 395.291 Q150.209 395.291 147.13 390.707 Q144.075 386.101 144.075 377.374 Q144.075 368.624 147.13 364.041 Q150.209 359.434 156.019 359.434 Z" fill="#000000" fill-rule="nonzero" fill-opacity="1" /><path clip-path="url(#clip030)" d="M186.181 363.138 Q182.57 363.138 180.741 366.703 Q178.936 370.245 178.936 377.374 Q178.936 384.481 180.741 388.045 Q182.57 391.587 186.181 391.587 Q189.815 391.587 191.621 388.045 Q193.45 384.481 193.45 377.374 Q193.45 370.245 191.621 366.703 Q189.815 363.138 186.181 363.138 M186.181 359.434 Q191.991 359.434 195.047 364.041 Q198.125 368.624 198.125 377.374 Q198.125 386.101 195.047 390.707 Q191.991 395.291 186.181 395.291 Q180.371 395.291 177.292 390.707 Q174.237 386.101 174.237 377.374 Q174.237 368.624 177.292 364.041 Q180.371 359.434 186.181 359.434 Z" fill="#000000" fill-rule="nonzero" fill-opacity="1" /><path clip-path="url(#clip030)" d="M216.343 363.138 Q212.732 363.138 210.903 366.703 Q209.098 370.245 209.098 377.374 Q209.098 384.481 210.903 388.045 Q212.732 391.587 216.343 391.587 Q219.977 391.587 221.783 388.045 Q223.611 384.481 223.611 377.374 Q223.611 370.245 221.783 366.703 Q219.977 363.138 216.343 363.138 M216.343 359.434 Q222.153 359.434 225.209 364.041 Q228.287 368.624 228.287 377.374 Q228.287 386.101 225.209 390.707 Q222.153 395.291 216.343 395.291 Q210.533 395.291 207.454 390.707 Q204.399 386.101 204.399 377.374 Q204.399 368.624 207.454 364.041 Q210.533 359.434 216.343 359.434 Z" fill="#000000" fill-rule="nonzero" fill-opacity="1" /><path clip-path="url(#clip030)" d="M119.885 138.96 L136.204 138.96 L136.204 142.895 L114.26 142.895 L114.26 138.96 Q116.922 136.205 121.505 131.575 Q126.112 126.923 127.292 125.58 Q129.538 123.057 130.417 121.321 Q131.32 119.562 131.32 117.872 Q131.32 115.117 129.376 113.381 Q127.455 111.645 124.353 111.645 Q122.154 111.645 119.7 112.409 Q117.269 113.173 114.492 114.724 L114.492 110.001 Q117.316 108.867 119.769 108.288 Q122.223 107.71 124.26 107.71 Q129.63 107.71 132.825 110.395 Q136.019 113.08 136.019 117.571 Q136.019 119.7 135.209 121.622 Q134.422 123.52 132.316 126.112 Q131.737 126.784 128.635 130.001 Q125.533 133.196 119.885 138.96 Z" fill="#000000" fill-rule="nonzero" fill-opacity="1" /><path clip-path="url(#clip030)" d="M146.066 108.335 L164.422 108.335 L164.422 112.27 L150.348 112.27 L150.348 120.742 Q151.366 120.395 152.385 120.233 Q153.403 120.048 154.422 120.048 Q160.209 120.048 163.589 123.219 Q166.968 126.39 166.968 131.807 Q166.968 137.386 163.496 140.487 Q160.024 143.566 153.704 143.566 Q151.528 143.566 149.26 143.196 Q147.015 142.825 144.607 142.085 L144.607 137.386 Q146.691 138.52 148.913 139.075 Q151.135 139.631 153.612 139.631 Q157.616 139.631 159.954 137.524 Q162.292 135.418 162.292 131.807 Q162.292 128.196 159.954 126.089 Q157.616 123.983 153.612 123.983 Q151.737 123.983 149.862 124.399 Q148.01 124.816 146.066 125.696 L146.066 108.335 Z" fill="#000000" fill-rule="nonzero" fill-opacity="1" /><path clip-path="url(#clip030)" d="M186.181 111.413 Q182.57 111.413 180.741 114.978 Q178.936 118.52 178.936 125.649 Q178.936 132.756 180.741 136.321 Q182.57 139.862 186.181 139.862 Q189.815 139.862 191.621 136.321 Q193.45 132.756 193.45 125.649 Q193.45 118.52 191.621 114.978 Q189.815 111.413 186.181 111.413 M186.181 107.71 Q191.991 107.71 195.047 112.316 Q198.125 116.9 198.125 125.649 Q198.125 134.376 195.047 138.983 Q191.991 143.566 186.181 143.566 Q180.371 143.566 177.292 138.983 Q174.237 134.376 174.237 125.649 Q174.237 116.9 177.292 112.316 Q180.371 107.71 186.181 107.71 Z" fill="#000000" fill-rule="nonzero" fill-opacity="1" /><path clip-path="url(#clip030)" d="M216.343 111.413 Q212.732 111.413 210.903 114.978 Q209.098 118.52 209.098 125.649 Q209.098 132.756 210.903 136.321 Q212.732 139.862 216.343 139.862 Q219.977 139.862 221.783 136.321 Q223.611 132.756 223.611 125.649 Q223.611 118.52 221.783 114.978 Q219.977 111.413 216.343 111.413 M216.343 107.71 Q222.153 107.71 225.209 112.316 Q228.287 116.9 228.287 125.649 Q228.287 134.376 225.209 138.983 Q222.153 143.566 216.343 143.566 Q210.533 143.566 207.454 138.983 Q204.399 134.376 204.399 125.649 Q204.399 116.9 207.454 112.316 Q210.533 107.71 216.343 107.71 Z" fill="#000000" fill-rule="nonzero" fill-opacity="1" /><path clip-path="url(#clip030)" d="M41.3104 969.884 L58.7206 969.884 L58.7206 959.571 Q58.7206 954.383 56.5881 951.901 Q54.4238 949.386 49.9996 949.386 Q45.5436 949.386 43.4429 951.901 Q41.3104 954.383 41.3104 959.571 L41.3104 969.884 M21.7677 969.884 L36.0905 969.884 L36.0905 960.367 Q36.0905 955.656 34.34 953.365 Q32.5576 951.041 28.9291 951.041 Q25.3325 951.041 23.5501 953.365 Q21.7677 955.656 21.7677 960.367 L21.7677 969.884 M16.4842 976.313 L16.4842 959.89 Q16.4842 952.537 19.5397 948.559 Q22.5952 944.58 28.2289 944.58 Q32.5894 944.58 35.1675 946.617 Q37.7456 948.654 38.3822 952.601 Q39.4007 947.858 42.6472 945.248 Q45.8619 942.607 50.6998 942.607 Q57.0655 942.607 60.5348 946.935 Q64.0042 951.264 64.0042 959.253 L64.0042 976.313 L16.4842 976.313 Z" fill="#000000" fill-rule="nonzero" fill-opacity="1" /><path clip-path="url(#clip030)" d="M32.4621 918.035 Q32.4621 922.746 36.1542 925.483 Q39.8145 928.22 46.212 928.22 Q52.6095 928.22 56.3017 925.515 Q59.9619 922.778 59.9619 918.035 Q59.9619 913.356 56.2698 910.619 Q52.5777 907.882 46.212 907.882 Q39.8781 907.882 36.186 910.619 Q32.4621 913.356 32.4621 918.035 M27.4968 918.035 Q27.4968 910.396 32.4621 906.036 Q37.4273 901.675 46.212 901.675 Q54.9649 901.675 59.9619 906.036 Q64.9272 910.396 64.9272 918.035 Q64.9272 925.706 59.9619 930.066 Q54.9649 934.395 46.212 934.395 Q37.4273 934.395 32.4621 930.066 Q27.4968 925.706 27.4968 918.035 Z" fill="#000000" fill-rule="nonzero" fill-opacity="1" /><path clip-path="url(#clip030)" d="M32.4621 878.154 Q32.4621 882.865 36.1542 885.602 Q39.8145 888.339 46.212 888.339 Q52.6095 888.339 56.3017 885.634 Q59.9619 882.896 59.9619 878.154 Q59.9619 873.475 56.2698 870.738 Q52.5777 868.001 46.212 868.001 Q39.8781 868.001 36.186 870.738 Q32.4621 873.475 32.4621 878.154 M27.4968 878.154 Q27.4968 870.515 32.4621 866.155 Q37.4273 861.794 46.212 861.794 Q54.9649 861.794 59.9619 866.155 Q64.9272 870.515 64.9272 878.154 Q64.9272 885.825 59.9619 890.185 Q54.9649 894.514 46.212 894.514 Q37.4273 894.514 32.4621 890.185 Q27.4968 885.825 27.4968 878.154 Z" fill="#000000" fill-rule="nonzero" fill-opacity="1" /><path clip-path="url(#clip030)" d="M29.4065 829.361 L34.9447 829.361 Q33.6716 831.843 33.035 834.517 Q32.3984 837.191 32.3984 840.055 Q32.3984 844.416 33.7352 846.612 Q35.072 848.776 37.7456 848.776 Q39.7826 848.776 40.9603 847.217 Q42.1061 845.657 43.1565 840.946 L43.6021 838.941 Q44.9389 832.703 47.3897 830.093 Q49.8086 827.451 54.1691 827.451 Q59.1344 827.451 62.0308 831.398 Q64.9272 835.313 64.9272 842.188 Q64.9272 845.052 64.3543 848.171 Q63.8132 851.259 62.6992 854.696 L56.6518 854.696 Q58.3387 851.45 59.198 848.299 Q60.0256 845.148 60.0256 842.06 Q60.0256 837.923 58.6251 835.695 Q57.1929 833.467 54.6147 833.467 Q52.2276 833.467 50.9545 835.09 Q49.6813 836.681 48.5037 842.124 L48.0262 844.161 Q46.8804 849.604 44.5251 852.023 Q42.138 854.442 38.0002 854.442 Q32.9713 854.442 30.2341 850.877 Q27.4968 847.312 27.4968 840.755 Q27.4968 837.509 27.9743 834.644 Q28.4517 831.78 29.4065 829.361 Z" fill="#000000" fill-rule="nonzero" fill-opacity="1" /><path clip-path="url(#clip030)" d="M18.2347 812.333 L28.3562 812.333 L28.3562 800.269 L32.9077 800.269 L32.9077 812.333 L52.2594 812.333 Q56.6199 812.333 57.8613 811.155 Q59.1026 809.945 59.1026 806.285 L59.1026 800.269 L64.0042 800.269 L64.0042 806.285 Q64.0042 813.065 61.4897 815.643 Q58.9434 818.221 52.2594 818.221 L32.9077 818.221 L32.9077 822.518 L28.3562 822.518 L28.3562 818.221 L18.2347 818.221 L18.2347 812.333 Z" fill="#000000" fill-rule="nonzero" fill-opacity="1" /><path clip-path="url(#clip030)" d="M16.4842 771.592 L16.4842 744.283 L21.895 744.283 L21.895 765.163 L35.8996 765.163 L35.8996 746.32 L41.3104 746.32 L41.3104 765.163 L64.0042 765.163 L64.0042 771.592 L16.4842 771.592 Z" fill="#000000" fill-rule="nonzero" fill-opacity="1" /><path clip-path="url(#clip030)" d="M46.0847 724.136 Q46.0847 731.233 47.7079 733.971 Q49.3312 736.708 53.2461 736.708 Q56.3653 736.708 58.2114 734.671 Q60.0256 732.602 60.0256 729.069 Q60.0256 724.199 56.5881 721.271 Q53.1188 718.311 47.3897 718.311 L46.0847 718.311 L46.0847 724.136 M43.6657 712.455 L64.0042 712.455 L64.0042 718.311 L58.5933 718.311 Q61.8398 720.316 63.3994 723.308 Q64.9272 726.3 64.9272 730.629 Q64.9272 736.103 61.8716 739.35 Q58.7843 742.564 53.6281 742.564 Q47.6125 742.564 44.5569 738.554 Q41.5014 734.512 41.5014 726.523 L41.5014 718.311 L40.9285 718.311 Q36.8862 718.311 34.6901 720.985 Q32.4621 723.626 32.4621 728.432 Q32.4621 731.488 33.1941 734.384 Q33.9262 737.281 35.3903 739.954 L29.9795 739.954 Q28.7381 736.74 28.1334 733.716 Q27.4968 730.692 27.4968 727.828 Q27.4968 720.093 31.5072 716.274 Q35.5176 712.455 43.6657 712.455 Z" fill="#000000" fill-rule="nonzero" fill-opacity="1" /><path clip-path="url(#clip030)" d="M29.7248 674.738 L35.1993 674.738 Q33.8307 677.22 33.1623 679.735 Q32.4621 682.217 32.4621 684.764 Q32.4621 690.461 36.0905 693.612 Q39.6872 696.763 46.212 696.763 Q52.7369 696.763 56.3653 693.612 Q59.9619 690.461 59.9619 684.764 Q59.9619 682.217 59.2935 679.735 Q58.5933 677.22 57.2247 674.738 L62.6355 674.738 Q63.7814 677.189 64.3543 679.83 Q64.9272 682.44 64.9272 685.4 Q64.9272 693.453 59.8664 698.195 Q54.8057 702.938 46.212 702.938 Q37.491 702.938 32.4939 698.164 Q27.4968 693.357 27.4968 685.018 Q27.4968 682.313 28.0697 679.735 Q28.6108 677.157 29.7248 674.738 Z" fill="#000000" fill-rule="nonzero" fill-opacity="1" /><path clip-path="url(#clip030)" d="M18.2347 658.76 L28.3562 658.76 L28.3562 646.697 L32.9077 646.697 L32.9077 658.76 L52.2594 658.76 Q56.6199 658.76 57.8613 657.582 Q59.1026 656.373 59.1026 652.712 L59.1026 646.697 L64.0042 646.697 L64.0042 652.712 Q64.0042 659.492 61.4897 662.07 Q58.9434 664.648 52.2594 664.648 L32.9077 664.648 L32.9077 668.945 L28.3562 668.945 L28.3562 664.648 L18.2347 664.648 L18.2347 658.76 Z" fill="#000000" fill-rule="nonzero" fill-opacity="1" /><path clip-path="url(#clip030)" d="M32.4621 625.181 Q32.4621 629.891 36.1542 632.629 Q39.8145 635.366 46.212 635.366 Q52.6095 635.366 56.3017 632.66 Q59.9619 629.923 59.9619 625.181 Q59.9619 620.502 56.2698 617.765 Q52.5777 615.027 46.212 615.027 Q39.8781 615.027 36.186 617.765 Q32.4621 620.502 32.4621 625.181 M27.4968 625.181 Q27.4968 617.542 32.4621 613.181 Q37.4273 608.821 46.212 608.821 Q54.9649 608.821 59.9619 613.181 Q64.9272 617.542 64.9272 625.181 Q64.9272 632.851 59.9619 637.212 Q54.9649 641.541 46.212 641.541 Q37.4273 641.541 32.4621 637.212 Q27.4968 632.851 27.4968 625.181 Z" fill="#000000" fill-rule="nonzero" fill-opacity="1" /><path clip-path="url(#clip030)" d="M33.8307 578.456 Q33.2578 579.443 33.0032 580.621 Q32.7167 581.767 32.7167 583.167 Q32.7167 588.132 35.9632 590.806 Q39.1779 593.448 45.2253 593.448 L64.0042 593.448 L64.0042 599.336 L28.3562 599.336 L28.3562 593.448 L33.8944 593.448 Q30.6479 591.602 29.0883 588.642 Q27.4968 585.682 27.4968 581.448 Q27.4968 580.844 27.5923 580.112 Q27.656 579.379 27.8151 578.488 L33.8307 578.456 Z" fill="#000000" fill-rule="nonzero" fill-opacity="1" /><path clip-path="url(#clip030)" d="M61.808 545.737 L77.5631 545.737 L77.5631 551.625 L28.579 551.625 Q14.0652 551.625 14.0652 538.066 Q14.0652 524.252 26.3192 524.252 Q35.0402 524.252 38.223 529.727 Q41.0876 520.815 49.5858 520.815 Q64.6726 520.815 64.6726 536.156 Q64.6726 542.904 61.808 545.737 M54.1691 545.737 Q59.6755 542.204 59.6755 535.934 Q59.6755 526.767 49.6813 526.767 Q40.7057 526.767 41.4059 541.535 L35.995 541.535 Q35.995 529.982 25.8099 529.982 Q18.8395 529.982 18.8395 537.429 Q18.8395 545.737 28.77 545.737 L54.1691 545.737 Z" fill="#000000" fill-rule="nonzero" fill-opacity="1" /><path clip-path="url(#clip030)" d="M39.1142 507.606 L39.1142 494.111 L42.7427 494.111 L42.7427 513.144 L39.2416 513.144 Q38.2549 512.062 36.4725 510.057 Q26.7648 499.108 23.7729 499.108 Q21.6722 499.108 20.3991 500.763 Q19.0941 502.418 19.0941 505.124 Q19.0941 506.779 19.667 508.72 Q20.2081 510.662 21.3221 512.953 L17.4072 512.953 Q16.516 510.503 16.0704 508.402 Q15.6248 506.269 15.6248 504.455 Q15.6248 499.84 17.7255 497.071 Q19.8262 494.302 23.2636 494.302 Q27.6878 494.302 36.7271 504.837 Q38.2549 506.619 39.1142 507.606 Z" fill="#000000" fill-rule="nonzero" fill-opacity="1" /><polyline clip-path="url(#clip032)" style="stroke:#009af9; stroke-linecap:round; stroke-linejoin:round; stroke-width:4; stroke-opacity:1; fill:none" points="323.395,1377.31 325.367,1377.3 327.339,1377.29 329.312,1377.28 331.284,1377.27 333.256,1377.26 335.228,1377.24 337.201,1377.23 339.173,1377.22 341.145,1377.21 343.117,1377.2 345.089,1377.18 347.062,1377.17 349.034,1377.16 351.006,1377.15 352.978,1377.14 354.951,1377.12 356.923,1377.11 358.895,1377.1 360.867,1377.09 362.839,1377.07 364.812,1377.06 366.784,1377.05 368.756,1377.03 370.728,1377.02 372.701,1377.01 374.673,1377 376.645,1376.98 378.617,1376.97 380.589,1376.96 382.562,1376.94 384.534,1376.93 386.506,1376.92 388.478,1376.9 390.451,1376.89 392.423,1376.88 394.395,1376.86 396.367,1376.85 398.339,1376.83 400.312,1376.82 402.284,1376.81 404.256,1376.79 406.228,1376.78 408.201,1376.76 410.173,1376.75 412.145,1376.73 414.117,1376.72 416.09,1376.71 418.062,1376.69 420.034,1376.68 422.006,1376.66 423.978,1376.65 425.951,1376.63 427.923,1376.62 429.895,1376.6 431.867,1376.59 433.84,1376.57 435.812,1376.56 437.784,1376.54 439.756,1376.52 441.728,1376.51 443.701,1376.49 445.673,1376.48 447.645,1376.46 449.617,1376.45 451.59,1376.43 453.562,1376.41 455.534,1376.4 457.506,1376.38 459.478,1376.36 461.451,1376.35 463.423,1376.33 465.395,1376.31 467.367,1376.3 469.34,1376.28 471.312,1376.26 473.284,1376.25 475.256,1376.23 477.229,1376.21 479.201,1376.19 481.173,1376.18 483.145,1376.16 485.117,1376.14 487.09,1376.12 489.062,1376.1 491.034,1376.09 493.006,1376.07 494.979,1376.05 496.951,1376.03 498.923,1376.01 500.895,1375.99 502.867,1375.98 504.84,1375.96 506.812,1375.94 508.784,1375.92 510.756,1375.9 512.729,1375.88 514.701,1375.86 516.673,1375.84 518.645,1375.82 520.617,1375.8 522.59,1375.78 524.562,1375.76 526.534,1375.74 528.506,1375.72 530.479,1375.7 532.451,1375.68 534.423,1375.66 536.395,1375.64 538.368,1375.62 540.34,1375.59 542.312,1375.57 544.284,1375.55 546.256,1375.53 548.229,1375.51 550.201,1375.49 552.173,1375.46 554.145,1375.44 556.118,1375.42 558.09,1375.4 560.062,1375.38 562.034,1375.35 564.006,1375.33 565.979,1375.31 567.951,1375.28 569.923,1375.26 571.895,1375.24 573.868,1375.21 575.84,1375.19 577.812,1375.16 579.784,1375.14 581.756,1375.12 583.729,1375.09 585.701,1375.07 587.673,1375.04 589.645,1375.02 591.618,1374.99 593.59,1374.97 595.562,1374.94 597.534,1374.92 599.507,1374.89 601.479,1374.86 603.451,1374.84 605.423,1374.81 607.395,1374.78 609.368,1374.76 611.34,1374.73 613.312,1374.7 615.284,1374.68 617.257,1374.65 619.229,1374.62 621.201,1374.59 623.173,1374.56 625.145,1374.54 627.118,1374.51 629.09,1374.48 631.062,1374.45 633.034,1374.42 635.007,1374.39 636.979,1374.36 638.951,1374.33 640.923,1374.3 642.895,1374.27 644.868,1374.24 646.84,1374.21 648.812,1374.18 650.784,1374.15 652.757,1374.11 654.729,1374.08 656.701,1374.05 658.673,1374.02 660.646,1373.99 662.618,1373.95 664.59,1373.92 666.562,1373.89 668.534,1373.85 670.507,1373.82 672.479,1373.79 674.451,1373.75 676.423,1373.72 678.396,1373.68 680.368,1373.65 682.34,1373.61 684.312,1373.57 686.284,1373.54 688.257,1373.5 690.229,1373.47 692.201,1373.43 694.173,1373.39 696.146,1373.35 698.118,1373.32 700.09,1373.28 702.062,1373.24 704.034,1373.2 706.007,1373.16 707.979,1373.12 709.951,1373.08 711.923,1373.04 713.896,1373 715.868,1372.96 717.84,1372.92 719.812,1372.88 721.784,1372.84 723.757,1372.79 725.729,1372.75 727.701,1372.71 729.673,1372.67 731.646,1372.62 733.618,1372.58 735.59,1372.53 737.562,1372.49 739.535,1372.44 741.507,1372.4 743.479,1372.35 745.451,1372.3 747.423,1372.26 749.396,1372.21 751.368,1372.16 753.34,1372.11 755.312,1372.07 757.285,1372.02 759.257,1371.97 761.229,1371.92 763.201,1371.87 765.173,1371.82 767.146,1371.76 769.118,1371.71 771.09,1371.66 773.062,1371.61 775.035,1371.55 777.007,1371.5 778.979,1371.45 780.951,1371.39 782.923,1371.34 784.896,1371.28 786.868,1371.22 788.84,1371.17 790.812,1371.11 792.785,1371.05 794.757,1370.99 796.729,1370.93 798.701,1370.87 800.674,1370.81 802.646,1370.75 804.618,1370.69 806.59,1370.63 808.562,1370.56 810.535,1370.5 812.507,1370.43 814.479,1370.37 816.451,1370.3 818.424,1370.24 820.396,1370.17 822.368,1370.1 824.34,1370.03 826.312,1369.96 828.285,1369.89 830.257,1369.82 832.229,1369.75 834.201,1369.68 836.174,1369.61 838.146,1369.53 840.118,1369.46 842.09,1369.38 844.062,1369.31 846.035,1369.23 848.007,1369.15 849.979,1369.07 851.951,1368.99 853.924,1368.91 855.896,1368.83 857.868,1368.75 859.84,1368.66 861.813,1368.58 863.785,1368.49 865.757,1368.41 867.729,1368.32 869.701,1368.23 871.674,1368.14 873.646,1368.05 875.618,1367.96 877.59,1367.87 879.563,1367.77 881.535,1367.68 883.507,1367.58 885.479,1367.49 887.451,1367.39 889.424,1367.29 891.396,1367.19 893.368,1367.09 895.34,1366.98 897.313,1366.88 899.285,1366.77 901.257,1366.66 903.229,1366.55 905.201,1366.44 907.174,1366.33 909.146,1366.22 911.118,1366.11 913.09,1365.99 915.063,1365.87 917.035,1365.75 919.007,1365.63 920.979,1365.51 922.952,1365.39 924.924,1365.26 926.896,1365.13 928.868,1365 930.84,1364.87 932.813,1364.74 934.785,1364.61 936.757,1364.47 938.729,1364.33 940.702,1364.19 942.674,1364.05 944.646,1363.91 946.618,1363.76 948.59,1363.61 950.563,1363.46 952.535,1363.31 954.507,1363.15 956.479,1362.99 958.452,1362.84 960.424,1362.67 962.396,1362.51 964.368,1362.34 966.34,1362.17 968.313,1362 970.285,1361.83 972.257,1361.65 974.229,1361.47 976.202,1361.28 978.174,1361.1 980.146,1360.91 982.118,1360.72 984.091,1360.52 986.063,1360.32 988.035,1360.12 990.007,1359.92 991.979,1359.71 993.952,1359.5 995.924,1359.28 997.896,1359.06 999.868,1358.84 1001.84,1358.62 1003.81,1358.38 1005.78,1358.15 1007.76,1357.91 1009.73,1357.67 1011.7,1357.42 1013.67,1357.17 1015.65,1356.92 1017.62,1356.66 1019.59,1356.39 1021.56,1356.12 1023.54,1355.85 1025.51,1355.57 1027.48,1355.28 1029.45,1354.99 1031.42,1354.69 1033.4,1354.39 1035.37,1354.08 1037.34,1353.77 1039.31,1353.45 1041.29,1353.12 1043.26,1352.79 1045.23,1352.45 1047.2,1352.11 1049.17,1351.75 1051.15,1351.39 1053.12,1351.03 1055.09,1350.65 1057.06,1350.27 1059.04,1349.88 1061.01,1349.48 1062.98,1349.07 1064.95,1348.65 1066.92,1348.22 1068.9,1347.79 1070.87,1347.34 1072.84,1346.89 1074.81,1346.42 1076.79,1345.94 1078.76,1345.46 1080.73,1344.96 1082.7,1344.45 1084.67,1343.93 1086.65,1343.39 1088.62,1342.84 1090.59,1342.28 1092.56,1341.71 1094.54,1341.12 1096.51,1340.52 1098.48,1339.9 1100.45,1339.26 1102.42,1338.61 1104.4,1337.94 1106.37,1337.26 1108.34,1336.55 1110.31,1335.83 1112.29,1335.09 1114.26,1334.33 1116.23,1333.55 1118.2,1332.74 1120.17,1331.92 1122.15,1331.07 1124.12,1330.19 1126.09,1329.29 1128.06,1328.36 1130.04,1327.41 1132.01,1326.43 1133.98,1325.42 1135.95,1324.37 1137.92,1323.3 1139.9,1322.19 1141.87,1321.05 1143.84,1319.87 1145.81,1318.65 1147.79,1317.39 1149.76,1316.09 1151.73,1314.75 1153.7,1313.36 1155.67,1311.92 1157.65,1310.44 1159.62,1308.9 1161.59,1307.3 1163.56,1305.65 1165.54,1303.94 1167.51,1302.17 1169.48,1300.33 1171.45,1298.42 1173.42,1296.44 1175.4,1294.38 1177.37,1292.23 1179.34,1290.01 1181.31,1287.69 1183.29,1285.28 1185.26,1282.76 1187.23,1280.14 1189.2,1277.41 1191.17,1274.56 1193.15,1271.58 1195.12,1268.47 1197.09,1265.22 1199.06,1261.82 1201.04,1258.26 1203.01,1254.53 1204.98,1250.61 1206.95,1246.51 1208.92,1242.21 1210.9,1237.68 1212.87,1232.92 1214.84,1227.92 1216.81,1222.64 1218.79,1217.09 1220.76,1211.23 1222.73,1205.04 1224.7,1198.5 1226.67,1191.58 1228.65,1184.26 1230.62,1176.5 1232.59,1168.27 1234.56,1159.54 1236.54,1150.26 1238.51,1140.39 1240.48,1129.88 1242.45,1118.68 1244.42,1106.73 1246.4,1093.97 1248.37,1080.34 1250.34,1065.76 1252.31,1050.14 1254.29,1033.41 1256.26,1015.47 1258.23,996.22 1260.2,975.55 1262.17,953.347 1264.15,929.492 1266.12,903.859 1268.09,876.32 1270.06,846.75 1272.04,815.024 1274.01,781.031 1275.98,744.678 1277.95,705.899 1279.92,664.672 1281.9,621.036 1283.87,575.107 1285.84,527.107 1287.81,477.389 1289.79,426.463 1291.76,375.024 1293.73,323.969 1295.7,274.402 1297.67,227.621 1299.65,185.079 1301.62,148.309 1303.59,118.821 1305.56,97.9824 1307.54,86.8761 1309.51,86.1857 1311.48,96.1095 1313.45,116.331 1315.42,146.05 1317.4,184.068 1319.37,228.915 1321.34,278.983 1323.31,332.664 1325.29,388.451 1327.26,445.012 1329.23,501.234 1331.2,556.232 1333.17,609.342 1335.15,660.094 1337.12,708.188 1339.09,753.458 1341.06,795.844 1343.04,835.365 1345.01,872.099 1346.98,906.161 1348.95,937.69 1350.92,966.84 1352.9,993.771 1354.87,1018.64 1356.84,1041.61 1358.81,1062.83 1360.79,1082.43 1362.76,1100.55 1364.73,1117.32 1366.7,1132.84 1368.67,1147.22 1370.65,1160.55 1372.62,1172.93 1374.59,1184.44 1376.56,1195.13 1378.54,1205.1 1380.51,1214.38 1382.48,1223.04 1384.45,1231.13 1386.42,1238.7 1388.4,1245.77 1390.37,1252.4 1392.34,1258.62 1394.31,1264.45 1396.29,1269.93 1398.26,1275.09 1400.23,1279.94 1402.2,1284.51 1404.17,1288.82 1406.15,1292.88 1408.12,1296.72 1410.09,1300.35 1412.06,1303.78 1414.04,1307.03 1416.01,1310.11 1417.98,1313.03 1419.95,1315.8 1421.92,1318.43 1423.9,1320.93 1425.87,1323.3 1427.84,1325.56 1429.81,1327.71 1431.79,1329.76 1433.76,1331.72 1435.73,1333.58 1437.7,1335.36 1439.67,1337.05 1441.65,1338.68 1443.62,1340.23 1445.59,1341.71 1447.56,1343.13 1449.54,1344.48 1451.51,1345.78 1453.48,1347.03 1455.45,1348.22 1457.42,1349.37 1459.4,1350.47 1461.37,1351.52 1463.34,1352.54 1465.31,1353.51 1467.29,1354.45 1469.26,1355.35 1471.23,1356.21 1473.2,1357.05 1475.17,1357.85 1477.15,1358.62 1479.12,1359.37 1481.09,1360.08 1483.06,1360.77 1485.04,1361.44 1487.01,1362.08 1488.98,1362.7 1490.95,1363.3 1492.92,1363.88 1494.9,1364.44 1496.87,1364.98 1498.84,1365.5 1500.81,1366.01 1502.79,1366.49 1504.76,1366.97 1506.73,1367.42 1508.7,1367.86 1510.67,1368.29 1512.65,1368.71 1514.62,1369.11 1516.59,1369.49 1518.56,1369.87 1520.54,1370.24 1522.51,1370.59 1524.48,1370.93 1526.45,1371.27 1528.42,1371.59 1530.4,1371.9 1532.37,1372.21 1534.34,1372.5 1536.31,1372.79 1538.29,1373.06 1540.26,1373.33 1542.23,1373.6 1544.2,1373.85 1546.17,1374.1 1548.15,1374.34 1550.12,1374.57 1552.09,1374.8 1554.06,1375.02 1556.04,1375.24 1558.01,1375.45 1559.98,1375.65 1561.95,1375.85 1563.92,1376.04 1565.9,1376.23 1567.87,1376.42 1569.84,1376.59 1571.81,1376.77 1573.79,1376.94 1575.76,1377.1 1577.73,1377.26 1579.7,1377.42 1581.67,1377.57 1583.65,1377.72 1585.62,1377.86 1587.59,1378.01 1589.56,1378.14 1591.54,1378.28 1593.51,1378.41 1595.48,1378.54 1597.45,1378.66 1599.42,1378.78 1601.4,1378.9 1603.37,1379.02 1605.34,1379.13 1607.31,1379.24 1609.29,1379.35 1611.26,1379.45 1613.23,1379.56 1615.2,1379.66 1617.17,1379.76 1619.15,1379.85 1621.12,1379.94 1623.09,1380.04 1625.06,1380.12 1627.04,1380.21 1629.01,1380.3 1630.98,1380.38 1632.95,1380.46 1634.92,1380.54 1636.9,1380.62 1638.87,1380.7 1640.84,1380.77 1642.81,1380.84 1644.79,1380.91 1646.76,1380.98 1648.73,1381.05 1650.7,1381.12 1652.67,1381.18 1654.65,1381.25 1656.62,1381.31 1658.59,1381.37 1660.56,1381.43 1662.54,1381.49 1664.51,1381.55 1666.48,1381.6 1668.45,1381.66 1670.43,1381.71 1672.4,1381.76 1674.37,1381.81 1676.34,1381.86 1678.31,1381.91 1680.29,1381.96 1682.26,1382.01 1684.23,1382.05 1686.2,1382.1 1688.18,1382.14 1690.15,1382.19 1692.12,1382.23 1694.09,1382.27 1696.06,1382.31 1698.04,1382.35 1700.01,1382.39 1701.98,1382.43 1703.95,1382.47 1705.93,1382.5 1707.9,1382.54 1709.87,1382.58 1711.84,1382.61 1713.81,1382.64 1715.79,1382.68 1717.76,1382.71 1719.73,1382.74 1721.7,1382.77 1723.68,1382.8 1725.65,1382.83 1727.62,1382.86 1729.59,1382.89 1731.56,1382.92 1733.54,1382.95 1735.51,1382.98 1737.48,1383 1739.45,1383.03 1741.43,1383.05 1743.4,1383.08 1745.37,1383.1 1747.34,1383.13 1749.31,1383.15 1751.29,1383.18 1753.26,1383.2 1755.23,1383.22 1757.2,1383.24 1759.18,1383.26 1761.15,1383.28 1763.12,1383.31 1765.09,1383.33 1767.06,1383.35 1769.04,1383.36 1771.01,1383.38 1772.98,1383.4 1774.95,1383.42 1776.93,1383.44 1778.9,1383.46 1780.87,1383.47 1782.84,1383.49 1784.81,1383.51 1786.79,1383.52 1788.76,1383.54 1790.73,1383.56 1792.7,1383.57 1794.68,1383.59 1796.65,1383.6 1798.62,1383.62 1800.59,1383.63 1802.56,1383.64 1804.54,1383.66 1806.51,1383.67 1808.48,1383.68 1810.45,1383.7 1812.43,1383.71 1814.4,1383.72 1816.37,1383.73 1818.34,1383.75 1820.31,1383.76 1822.29,1383.77 1824.26,1383.78 1826.23,1383.79 1828.2,1383.8 1830.18,1383.81 1832.15,1383.82 1834.12,1383.83 1836.09,1383.84 1838.06,1383.85 1840.04,1383.86 1842.01,1383.87 1843.98,1383.88 1845.95,1383.89 1847.93,1383.9 1849.9,1383.91 1851.87,1383.92 1853.84,1383.92 1855.81,1383.93 1857.79,1383.94 1859.76,1383.95 1861.73,1383.96 1863.7,1383.96 1865.68,1383.97 1867.65,1383.98 1869.62,1383.99 1871.59,1383.99 1873.56,1384 1875.54,1384.01 1877.51,1384.01 1879.48,1384.02 1881.45,1384.02 1883.43,1384.03 1885.4,1384.04 1887.37,1384.04 1889.34,1384.05 1891.31,1384.05 1893.29,1384.06 1895.26,1384.06 1897.23,1384.07 1899.2,1384.07 1901.18,1384.08 1903.15,1384.08 1905.12,1384.09 1907.09,1384.09 1909.06,1384.1 1911.04,1384.1 1913.01,1384.11 1914.98,1384.11 1916.95,1384.12 1918.93,1384.12 1920.9,1384.12 1922.87,1384.13 1924.84,1384.13 1926.81,1384.14 1928.79,1384.14 1930.76,1384.14 1932.73,1384.15 1934.7,1384.15 1936.68,1384.15 1938.65,1384.16 1940.62,1384.16 1942.59,1384.16 1944.56,1384.17 1946.54,1384.17 1948.51,1384.17 1950.48,1384.17 1952.45,1384.18 1954.43,1384.18 1956.4,1384.18 1958.37,1384.18 1960.34,1384.19 1962.31,1384.19 1964.29,1384.19 1966.26,1384.19 1968.23,1384.2 1970.2,1384.2 1972.18,1384.2 1974.15,1384.2 1976.12,1384.2 1978.09,1384.2 1980.06,1384.21 1982.04,1384.21 1984.01,1384.21 1985.98,1384.21 1987.95,1384.21 1989.93,1384.21 1991.9,1384.22 1993.87,1384.22 1995.84,1384.22 1997.81,1384.22 1999.79,1384.22 2001.76,1384.22 2003.73,1384.22 2005.7,1384.22 2007.68,1384.23 2009.65,1384.23 2011.62,1384.23 2013.59,1384.23 2015.56,1384.23 2017.54,1384.23 2019.51,1384.23 2021.48,1384.23 2023.45,1384.23 2025.43,1384.23 2027.4,1384.23 2029.37,1384.23 2031.34,1384.23 2033.31,1384.24 2035.29,1384.24 2037.26,1384.24 2039.23,1384.24 2041.2,1384.24 2043.18,1384.24 2045.15,1384.24 2047.12,1384.24 2049.09,1384.24 2051.06,1384.24 2053.04,1384.24 2055.01,1384.24 2056.98,1384.24 2058.95,1384.24 2060.93,1384.24 2062.9,1384.24 2064.87,1384.24 2066.84,1384.24 2068.81,1384.24 2070.79,1384.24 2072.76,1384.24 2074.73,1384.24 2076.7,1384.24 2078.68,1384.24 2080.65,1384.24 2082.62,1384.24 2084.59,1384.24 2086.56,1384.24 2088.54,1384.24 2090.51,1384.24 2092.48,1384.23 2094.45,1384.23 2096.43,1384.23 2098.4,1384.23 2100.37,1384.23 2102.34,1384.23 2104.31,1384.23 2106.29,1384.23 2108.26,1384.23 2110.23,1384.23 2112.2,1384.23 2114.18,1384.23 2116.15,1384.23 2118.12,1384.23 2120.09,1384.23 2122.06,1384.23 2124.04,1384.23 2126.01,1384.22 2127.98,1384.22 2129.95,1384.22 2131.93,1384.22 2133.9,1384.22 2135.87,1384.22 2137.84,1384.22 2139.81,1384.22 2141.79,1384.22 2143.76,1384.22 2145.73,1384.22 2147.7,1384.22 2149.68,1384.21 2151.65,1384.21 2153.62,1384.21 2155.59,1384.21 2157.56,1384.21 2159.54,1384.21 2161.51,1384.21 2163.48,1384.21 2165.45,1384.21 2167.43,1384.21 2169.4,1384.2 2171.37,1384.2 2173.34,1384.2 2175.31,1384.2 2177.29,1384.2 2179.26,1384.2 2181.23,1384.2 2183.2,1384.2 2185.18,1384.2 2187.15,1384.19 2189.12,1384.19 2191.09,1384.19 2193.06,1384.19 2195.04,1384.19 2197.01,1384.19 2198.98,1384.19 2200.95,1384.19 2202.93,1384.18 2204.9,1384.18 2206.87,1384.18 2208.84,1384.18 2210.81,1384.18 2212.79,1384.18 2214.76,1384.18 2216.73,1384.17 2218.7,1384.17 2220.68,1384.17 2222.65,1384.17 2224.62,1384.17 2226.59,1384.17 2228.56,1384.17 2230.54,1384.17 2232.51,1384.16 2234.48,1384.16 2236.45,1384.16 2238.43,1384.16 2240.4,1384.16 2242.37,1384.16 2244.34,1384.16 2246.31,1384.15 2248.29,1384.15 2250.26,1384.15 2252.23,1384.15 2254.2,1384.15 2256.18,1384.15 2258.15,1384.15 2260.12,1384.14 2262.09,1384.14 2264.06,1384.14 2266.04,1384.14 2268.01,1384.14 2269.98,1384.14 2271.95,1384.13 2273.93,1384.13 2275.9,1384.13 2277.87,1384.13 2279.84,1384.13 2281.81,1384.13 2283.79,1384.13 2285.76,1384.12 2287.73,1384.12 2289.7,1384.12 2291.68,1384.12 2293.65,1384.12 "/>
<polyline clip-path="url(#clip032)" style="stroke:#ff0000; stroke-linecap:round; stroke-linejoin:round; stroke-width:4; stroke-opacity:1; fill:none" points="1298.67,2799.12 1298.67,-1328.69 "/>
<polyline clip-path="url(#clip032)" style="stroke:#ff0000; stroke-linecap:round; stroke-linejoin:round; stroke-width:4; stroke-opacity:1; fill:none" points="1318.37,2799.12 1318.37,-1328.69 "/>
</svg>
