<?xml version="1.0" encoding="utf-8"?>
<svg xmlns="http://www.w3.org/2000/svg" xmlns:xlink="http://www.w3.org/1999/xlink" width="600" height="400" viewBox="0 0 2400 1600">
<defs>
  <clipPath id="clip070">
    <rect x="0" y="0" width="2400" height="1600"/>
  </clipPath>
</defs>
<path clip-path="url(#clip070)" d="M0 1600 L2400 1600 L2400 0 L0 0  Z" fill="#ffffff" fill-rule="evenodd" fill-opacity="1"/>
<defs>
  <clipPath id="clip071">
    <rect x="480" y="0" width="1681" height="1600"/>
  </clipPath>
</defs>
<path clip-path="url(#clip070)" d="M279.704 1423.18 L2352.76 1423.18 L2352.76 47.2441 L279.704 47.2441  Z" fill="#ffffff" fill-rule="evenodd" fill-opacity="1"/>
<defs>
  <clipPath id="clip072">
    <rect x="279" y="47" width="2074" height="1377"/>
  </clipPath>
</defs>
<polyline clip-path="url(#clip072)" style="stroke:#000000; stroke-linecap:round; stroke-linejoin:round; stroke-width:2; stroke-opacity:0.1; fill:none" points="533.946,1423.18 533.946,47.2441 "/>
<polyline clip-path="url(#clip072)" style="stroke:#000000; stroke-linecap:round; stroke-linejoin:round; stroke-width:2; stroke-opacity:0.1; fill:none" points="925.088,1423.18 925.088,47.2441 "/>
<polyline clip-path="url(#clip072)" style="stroke:#000000; stroke-linecap:round; stroke-linejoin:round; stroke-width:2; stroke-opacity:0.1; fill:none" points="1316.23,1423.18 1316.23,47.2441 "/>
<polyline clip-path="url(#clip072)" style="stroke:#000000; stroke-linecap:round; stroke-linejoin:round; stroke-width:2; stroke-opacity:0.1; fill:none" points="1707.37,1423.18 1707.37,47.2441 "/>
<polyline clip-path="url(#clip072)" style="stroke:#000000; stroke-linecap:round; stroke-linejoin:round; stroke-width:2; stroke-opacity:0.1; fill:none" points="2098.51,1423.18 2098.51,47.2441 "/>
<polyline clip-path="url(#clip072)" style="stroke:#000000; stroke-linecap:round; stroke-linejoin:round; stroke-width:2; stroke-opacity:0.1; fill:none" points="279.704,1178.64 2352.76,1178.64 "/>
<polyline clip-path="url(#clip072)" style="stroke:#000000; stroke-linecap:round; stroke-linejoin:round; stroke-width:2; stroke-opacity:0.1; fill:none" points="279.704,903.987 2352.76,903.987 "/>
<polyline clip-path="url(#clip072)" style="stroke:#000000; stroke-linecap:round; stroke-linejoin:round; stroke-width:2; stroke-opacity:0.1; fill:none" points="279.704,629.335 2352.76,629.335 "/>
<polyline clip-path="url(#clip072)" style="stroke:#000000; stroke-linecap:round; stroke-linejoin:round; stroke-width:2; stroke-opacity:0.1; fill:none" points="279.704,354.683 2352.76,354.683 "/>
<polyline clip-path="url(#clip072)" style="stroke:#000000; stroke-linecap:round; stroke-linejoin:round; stroke-width:2; stroke-opacity:0.1; fill:none" points="279.704,80.0313 2352.76,80.0313 "/>
<polyline clip-path="url(#clip070)" style="stroke:#000000; stroke-linecap:round; stroke-linejoin:round; stroke-width:4; stroke-opacity:1; fill:none" points="279.704,1423.18 2352.76,1423.18 "/>
<polyline clip-path="url(#clip070)" style="stroke:#000000; stroke-linecap:round; stroke-linejoin:round; stroke-width:4; stroke-opacity:1; fill:none" points="533.946,1423.18 533.946,1404.28 "/>
<polyline clip-path="url(#clip070)" style="stroke:#000000; stroke-linecap:round; stroke-linejoin:round; stroke-width:4; stroke-opacity:1; fill:none" points="925.088,1423.18 925.088,1404.28 "/>
<polyline clip-path="url(#clip070)" style="stroke:#000000; stroke-linecap:round; stroke-linejoin:round; stroke-width:4; stroke-opacity:1; fill:none" points="1316.23,1423.18 1316.23,1404.28 "/>
<polyline clip-path="url(#clip070)" style="stroke:#000000; stroke-linecap:round; stroke-linejoin:round; stroke-width:4; stroke-opacity:1; fill:none" points="1707.37,1423.18 1707.37,1404.28 "/>
<polyline clip-path="url(#clip070)" style="stroke:#000000; stroke-linecap:round; stroke-linejoin:round; stroke-width:4; stroke-opacity:1; fill:none" points="2098.51,1423.18 2098.51,1404.28 "/>
<path clip-path="url(#clip070)" d="M490.023 1481.64 L506.342 1481.64 L506.342 1485.58 L484.398 1485.58 L484.398 1481.64 Q487.06 1478.89 491.643 1474.26 Q496.25 1469.61 497.43 1468.27 Q499.675 1465.74 500.555 1464.01 Q501.458 1462.25 501.458 1460.56 Q501.458 1457.8 499.513 1456.07 Q497.592 1454.33 494.49 1454.33 Q492.291 1454.33 489.838 1455.09 Q487.407 1455.86 484.629 1457.41 L484.629 1452.69 Q487.453 1451.55 489.907 1450.97 Q492.361 1450.39 494.398 1450.39 Q499.768 1450.39 502.963 1453.08 Q506.157 1455.77 506.157 1460.26 Q506.157 1462.39 505.347 1464.31 Q504.56 1466.2 502.453 1468.8 Q501.875 1469.47 498.773 1472.69 Q495.671 1475.88 490.023 1481.64 Z" fill="#000000" fill-rule="nonzero" fill-opacity="1" /><path clip-path="url(#clip070)" d="M516.296 1484.86 L516.296 1480.6 Q518.055 1481.44 519.861 1481.88 Q521.666 1482.32 523.402 1482.32 Q528.032 1482.32 530.462 1479.21 Q532.916 1476.09 533.263 1469.75 Q531.921 1471.74 529.861 1472.8 Q527.8 1473.87 525.3 1473.87 Q520.115 1473.87 517.083 1470.74 Q514.074 1467.59 514.074 1462.15 Q514.074 1456.83 517.222 1453.61 Q520.37 1450.39 525.601 1450.39 Q531.597 1450.39 534.745 1455 Q537.916 1459.58 537.916 1468.33 Q537.916 1476.51 534.027 1481.39 Q530.161 1486.25 523.611 1486.25 Q521.851 1486.25 520.046 1485.9 Q518.24 1485.56 516.296 1484.86 M525.601 1470.21 Q528.749 1470.21 530.578 1468.06 Q532.43 1465.9 532.43 1462.15 Q532.43 1458.43 530.578 1456.27 Q528.749 1454.1 525.601 1454.1 Q522.453 1454.1 520.601 1456.27 Q518.773 1458.43 518.773 1462.15 Q518.773 1465.9 520.601 1468.06 Q522.453 1470.21 525.601 1470.21 Z" fill="#000000" fill-rule="nonzero" fill-opacity="1" /><path clip-path="url(#clip070)" d="M546.319 1479.7 L551.203 1479.7 L551.203 1485.58 L546.319 1485.58 L546.319 1479.7 Z" fill="#000000" fill-rule="nonzero" fill-opacity="1" /><path clip-path="url(#clip070)" d="M571.967 1466.44 Q568.819 1466.44 566.967 1468.59 Q565.138 1470.74 565.138 1474.49 Q565.138 1478.22 566.967 1480.39 Q568.819 1482.55 571.967 1482.55 Q575.115 1482.55 576.944 1480.39 Q578.795 1478.22 578.795 1474.49 Q578.795 1470.74 576.944 1468.59 Q575.115 1466.44 571.967 1466.44 M581.249 1451.78 L581.249 1456.04 Q579.49 1455.21 577.684 1454.77 Q575.902 1454.33 574.143 1454.33 Q569.513 1454.33 567.059 1457.45 Q564.629 1460.58 564.282 1466.9 Q565.647 1464.89 567.708 1463.82 Q569.768 1462.73 572.245 1462.73 Q577.453 1462.73 580.462 1465.9 Q583.494 1469.05 583.494 1474.49 Q583.494 1479.82 580.346 1483.03 Q577.198 1486.25 571.967 1486.25 Q565.971 1486.25 562.8 1481.67 Q559.629 1477.06 559.629 1468.33 Q559.629 1460.14 563.518 1455.28 Q567.407 1450.39 573.957 1450.39 Q575.717 1450.39 577.499 1450.74 Q579.305 1451.09 581.249 1451.78 Z" fill="#000000" fill-rule="nonzero" fill-opacity="1" /><path clip-path="url(#clip070)" d="M881.292 1481.64 L897.611 1481.64 L897.611 1485.58 L875.667 1485.58 L875.667 1481.64 Q878.329 1478.89 882.912 1474.26 Q887.519 1469.61 888.699 1468.27 Q890.945 1465.74 891.824 1464.01 Q892.727 1462.25 892.727 1460.56 Q892.727 1457.8 890.783 1456.07 Q888.861 1454.33 885.76 1454.33 Q883.56 1454.33 881.107 1455.09 Q878.676 1455.86 875.898 1457.41 L875.898 1452.69 Q878.723 1451.55 881.176 1450.97 Q883.63 1450.39 885.667 1450.39 Q891.037 1450.39 894.232 1453.08 Q897.426 1455.77 897.426 1460.26 Q897.426 1462.39 896.616 1464.31 Q895.829 1466.2 893.722 1468.8 Q893.144 1469.47 890.042 1472.69 Q886.94 1475.88 881.292 1481.64 Z" fill="#000000" fill-rule="nonzero" fill-opacity="1" /><path clip-path="url(#clip070)" d="M907.565 1484.86 L907.565 1480.6 Q909.324 1481.44 911.13 1481.88 Q912.935 1482.32 914.671 1482.32 Q919.301 1482.32 921.732 1479.21 Q924.185 1476.09 924.532 1469.75 Q923.19 1471.74 921.13 1472.8 Q919.07 1473.87 916.57 1473.87 Q911.384 1473.87 908.352 1470.74 Q905.343 1467.59 905.343 1462.15 Q905.343 1456.83 908.491 1453.61 Q911.639 1450.39 916.87 1450.39 Q922.866 1450.39 926.014 1455 Q929.185 1459.58 929.185 1468.33 Q929.185 1476.51 925.296 1481.39 Q921.431 1486.25 914.88 1486.25 Q913.12 1486.25 911.315 1485.9 Q909.509 1485.56 907.565 1484.86 M916.87 1470.21 Q920.019 1470.21 921.847 1468.06 Q923.699 1465.9 923.699 1462.15 Q923.699 1458.43 921.847 1456.27 Q920.019 1454.1 916.87 1454.1 Q913.722 1454.1 911.87 1456.27 Q910.042 1458.43 910.042 1462.15 Q910.042 1465.9 911.87 1468.06 Q913.722 1470.21 916.87 1470.21 Z" fill="#000000" fill-rule="nonzero" fill-opacity="1" /><path clip-path="url(#clip070)" d="M937.588 1479.7 L942.472 1479.7 L942.472 1485.58 L937.588 1485.58 L937.588 1479.7 Z" fill="#000000" fill-rule="nonzero" fill-opacity="1" /><path clip-path="url(#clip070)" d="M962.657 1469.17 Q959.324 1469.17 957.403 1470.95 Q955.505 1472.73 955.505 1475.86 Q955.505 1478.98 957.403 1480.77 Q959.324 1482.55 962.657 1482.55 Q965.991 1482.55 967.912 1480.77 Q969.833 1478.96 969.833 1475.86 Q969.833 1472.73 967.912 1470.95 Q966.014 1469.17 962.657 1469.17 M957.981 1467.18 Q954.972 1466.44 953.282 1464.38 Q951.616 1462.32 951.616 1459.35 Q951.616 1455.21 954.555 1452.8 Q957.518 1450.39 962.657 1450.39 Q967.819 1450.39 970.759 1452.8 Q973.699 1455.21 973.699 1459.35 Q973.699 1462.32 972.009 1464.38 Q970.342 1466.44 967.356 1467.18 Q970.736 1467.96 972.611 1470.26 Q974.509 1472.55 974.509 1475.86 Q974.509 1480.88 971.43 1483.57 Q968.375 1486.25 962.657 1486.25 Q956.94 1486.25 953.861 1483.57 Q950.805 1480.88 950.805 1475.86 Q950.805 1472.55 952.704 1470.26 Q954.602 1467.96 957.981 1467.18 M956.268 1459.79 Q956.268 1462.48 957.935 1463.98 Q959.625 1465.49 962.657 1465.49 Q965.667 1465.49 967.356 1463.98 Q969.069 1462.48 969.069 1459.79 Q969.069 1457.11 967.356 1455.6 Q965.667 1454.1 962.657 1454.1 Q959.625 1454.1 957.935 1455.6 Q956.268 1457.11 956.268 1459.79 Z" fill="#000000" fill-rule="nonzero" fill-opacity="1" /><path clip-path="url(#clip070)" d="M1282.46 1466.95 Q1285.81 1467.66 1287.69 1469.93 Q1289.59 1472.2 1289.59 1475.53 Q1289.59 1480.65 1286.07 1483.45 Q1282.55 1486.25 1276.07 1486.25 Q1273.89 1486.25 1271.58 1485.81 Q1269.29 1485.39 1266.83 1484.54 L1266.83 1480.02 Q1268.78 1481.16 1271.09 1481.74 Q1273.41 1482.32 1275.93 1482.32 Q1280.33 1482.32 1282.62 1480.58 Q1284.93 1478.84 1284.93 1475.53 Q1284.93 1472.48 1282.78 1470.77 Q1280.65 1469.03 1276.83 1469.03 L1272.8 1469.03 L1272.8 1465.19 L1277.02 1465.19 Q1280.47 1465.19 1282.29 1463.82 Q1284.12 1462.43 1284.12 1459.84 Q1284.12 1457.18 1282.23 1455.77 Q1280.35 1454.33 1276.83 1454.33 Q1274.91 1454.33 1272.71 1454.75 Q1270.51 1455.16 1267.87 1456.04 L1267.87 1451.88 Q1270.54 1451.14 1272.85 1450.77 Q1275.19 1450.39 1277.25 1450.39 Q1282.57 1450.39 1285.67 1452.83 Q1288.78 1455.23 1288.78 1459.35 Q1288.78 1462.22 1287.13 1464.21 Q1285.49 1466.18 1282.46 1466.95 Z" fill="#000000" fill-rule="nonzero" fill-opacity="1" /><path clip-path="url(#clip070)" d="M1308.45 1454.1 Q1304.84 1454.1 1303.01 1457.66 Q1301.21 1461.2 1301.21 1468.33 Q1301.21 1475.44 1303.01 1479.01 Q1304.84 1482.55 1308.45 1482.55 Q1312.09 1482.55 1313.89 1479.01 Q1315.72 1475.44 1315.72 1468.33 Q1315.72 1461.2 1313.89 1457.66 Q1312.09 1454.1 1308.45 1454.1 M1308.45 1450.39 Q1314.26 1450.39 1317.32 1455 Q1320.4 1459.58 1320.4 1468.33 Q1320.4 1477.06 1317.32 1481.67 Q1314.26 1486.25 1308.45 1486.25 Q1302.64 1486.25 1299.56 1481.67 Q1296.51 1477.06 1296.51 1468.33 Q1296.51 1459.58 1299.56 1455 Q1302.64 1450.39 1308.45 1450.39 Z" fill="#000000" fill-rule="nonzero" fill-opacity="1" /><path clip-path="url(#clip070)" d="M1328.61 1479.7 L1333.5 1479.7 L1333.5 1485.58 L1328.61 1485.58 L1328.61 1479.7 Z" fill="#000000" fill-rule="nonzero" fill-opacity="1" /><path clip-path="url(#clip070)" d="M1353.68 1454.1 Q1350.07 1454.1 1348.24 1457.66 Q1346.44 1461.2 1346.44 1468.33 Q1346.44 1475.44 1348.24 1479.01 Q1350.07 1482.55 1353.68 1482.55 Q1357.32 1482.55 1359.12 1479.01 Q1360.95 1475.44 1360.95 1468.33 Q1360.95 1461.2 1359.12 1457.66 Q1357.32 1454.1 1353.68 1454.1 M1353.68 1450.39 Q1359.49 1450.39 1362.55 1455 Q1365.63 1459.58 1365.63 1468.33 Q1365.63 1477.06 1362.55 1481.67 Q1359.49 1486.25 1353.68 1486.25 Q1347.87 1486.25 1344.79 1481.67 Q1341.74 1477.06 1341.74 1468.33 Q1341.74 1459.58 1344.79 1455 Q1347.87 1450.39 1353.68 1450.39 Z" fill="#000000" fill-rule="nonzero" fill-opacity="1" /><path clip-path="url(#clip070)" d="M1674.4 1466.95 Q1677.75 1467.66 1679.63 1469.93 Q1681.53 1472.2 1681.53 1475.53 Q1681.53 1480.65 1678.01 1483.45 Q1674.49 1486.25 1668.01 1486.25 Q1665.83 1486.25 1663.52 1485.81 Q1661.23 1485.39 1658.77 1484.54 L1658.77 1480.02 Q1660.72 1481.16 1663.03 1481.74 Q1665.35 1482.32 1667.87 1482.32 Q1672.27 1482.32 1674.56 1480.58 Q1676.87 1478.84 1676.87 1475.53 Q1676.87 1472.48 1674.72 1470.77 Q1672.59 1469.03 1668.77 1469.03 L1664.74 1469.03 L1664.74 1465.19 L1668.96 1465.19 Q1672.41 1465.19 1674.24 1463.82 Q1676.06 1462.43 1676.06 1459.84 Q1676.06 1457.18 1674.17 1455.77 Q1672.29 1454.33 1668.77 1454.33 Q1666.85 1454.33 1664.65 1454.75 Q1662.45 1455.16 1659.81 1456.04 L1659.81 1451.88 Q1662.48 1451.14 1664.79 1450.77 Q1667.13 1450.39 1669.19 1450.39 Q1674.51 1450.39 1677.62 1452.83 Q1680.72 1455.23 1680.72 1459.35 Q1680.72 1462.22 1679.07 1464.21 Q1677.43 1466.18 1674.4 1466.95 Z" fill="#000000" fill-rule="nonzero" fill-opacity="1" /><path clip-path="url(#clip070)" d="M1700.39 1454.1 Q1696.78 1454.1 1694.95 1457.66 Q1693.15 1461.2 1693.15 1468.33 Q1693.15 1475.44 1694.95 1479.01 Q1696.78 1482.55 1700.39 1482.55 Q1704.03 1482.55 1705.83 1479.01 Q1707.66 1475.44 1707.66 1468.33 Q1707.66 1461.2 1705.83 1457.66 Q1704.03 1454.1 1700.39 1454.1 M1700.39 1450.39 Q1706.2 1450.39 1709.26 1455 Q1712.34 1459.58 1712.34 1468.33 Q1712.34 1477.06 1709.26 1481.67 Q1706.2 1486.25 1700.39 1486.25 Q1694.58 1486.25 1691.5 1481.67 Q1688.45 1477.06 1688.45 1468.33 Q1688.45 1459.58 1691.5 1455 Q1694.58 1450.39 1700.39 1450.39 Z" fill="#000000" fill-rule="nonzero" fill-opacity="1" /><path clip-path="url(#clip070)" d="M1720.55 1479.7 L1725.44 1479.7 L1725.44 1485.58 L1720.55 1485.58 L1720.55 1479.7 Z" fill="#000000" fill-rule="nonzero" fill-opacity="1" /><path clip-path="url(#clip070)" d="M1739.65 1481.64 L1755.97 1481.64 L1755.97 1485.58 L1734.03 1485.58 L1734.03 1481.64 Q1736.69 1478.89 1741.27 1474.26 Q1745.88 1469.61 1747.06 1468.27 Q1749.3 1465.74 1750.18 1464.01 Q1751.09 1462.25 1751.09 1460.56 Q1751.09 1457.8 1749.14 1456.07 Q1747.22 1454.33 1744.12 1454.33 Q1741.92 1454.33 1739.47 1455.09 Q1737.04 1455.86 1734.26 1457.41 L1734.26 1452.69 Q1737.08 1451.55 1739.54 1450.97 Q1741.99 1450.39 1744.03 1450.39 Q1749.4 1450.39 1752.59 1453.08 Q1755.79 1455.77 1755.79 1460.26 Q1755.79 1462.39 1754.98 1464.31 Q1754.19 1466.2 1752.08 1468.8 Q1751.5 1469.47 1748.4 1472.69 Q1745.3 1475.88 1739.65 1481.64 Z" fill="#000000" fill-rule="nonzero" fill-opacity="1" /><path clip-path="url(#clip070)" d="M2064.5 1466.95 Q2067.85 1467.66 2069.73 1469.93 Q2071.63 1472.2 2071.63 1475.53 Q2071.63 1480.65 2068.11 1483.45 Q2064.59 1486.25 2058.11 1486.25 Q2055.93 1486.25 2053.62 1485.81 Q2051.33 1485.39 2048.87 1484.54 L2048.87 1480.02 Q2050.82 1481.16 2053.13 1481.74 Q2055.45 1482.32 2057.97 1482.32 Q2062.37 1482.32 2064.66 1480.58 Q2066.97 1478.84 2066.97 1475.53 Q2066.97 1472.48 2064.82 1470.77 Q2062.69 1469.03 2058.87 1469.03 L2054.84 1469.03 L2054.84 1465.19 L2059.06 1465.19 Q2062.51 1465.19 2064.34 1463.82 Q2066.16 1462.43 2066.16 1459.84 Q2066.16 1457.18 2064.27 1455.77 Q2062.39 1454.33 2058.87 1454.33 Q2056.95 1454.33 2054.75 1454.75 Q2052.55 1455.16 2049.91 1456.04 L2049.91 1451.88 Q2052.58 1451.14 2054.89 1450.77 Q2057.23 1450.39 2059.29 1450.39 Q2064.61 1450.39 2067.72 1452.83 Q2070.82 1455.23 2070.82 1459.35 Q2070.82 1462.22 2069.17 1464.21 Q2067.53 1466.18 2064.5 1466.95 Z" fill="#000000" fill-rule="nonzero" fill-opacity="1" /><path clip-path="url(#clip070)" d="M2090.49 1454.1 Q2086.88 1454.1 2085.05 1457.66 Q2083.25 1461.2 2083.25 1468.33 Q2083.25 1475.44 2085.05 1479.01 Q2086.88 1482.55 2090.49 1482.55 Q2094.13 1482.55 2095.93 1479.01 Q2097.76 1475.44 2097.76 1468.33 Q2097.76 1461.2 2095.93 1457.66 Q2094.13 1454.1 2090.49 1454.1 M2090.49 1450.39 Q2096.3 1450.39 2099.36 1455 Q2102.44 1459.58 2102.44 1468.33 Q2102.44 1477.06 2099.36 1481.67 Q2096.3 1486.25 2090.49 1486.25 Q2084.68 1486.25 2081.6 1481.67 Q2078.55 1477.06 2078.55 1468.33 Q2078.55 1459.58 2081.6 1455 Q2084.68 1450.39 2090.49 1450.39 Z" fill="#000000" fill-rule="nonzero" fill-opacity="1" /><path clip-path="url(#clip070)" d="M2110.65 1479.7 L2115.54 1479.7 L2115.54 1485.58 L2110.65 1485.58 L2110.65 1479.7 Z" fill="#000000" fill-rule="nonzero" fill-opacity="1" /><path clip-path="url(#clip070)" d="M2138.57 1455.09 L2126.77 1473.54 L2138.57 1473.54 L2138.57 1455.09 M2137.34 1451.02 L2143.22 1451.02 L2143.22 1473.54 L2148.15 1473.54 L2148.15 1477.43 L2143.22 1477.43 L2143.22 1485.58 L2138.57 1485.58 L2138.57 1477.43 L2122.97 1477.43 L2122.97 1472.92 L2137.34 1451.02 Z" fill="#000000" fill-rule="nonzero" fill-opacity="1" /><path clip-path="url(#clip070)" d="M1024.39 1520.52 L1051.7 1520.52 L1051.7 1525.93 L1030.82 1525.93 L1030.82 1539.94 L1049.67 1539.94 L1049.67 1545.35 L1030.82 1545.35 L1030.82 1568.04 L1024.39 1568.04 L1024.39 1520.52 Z" fill="#000000" fill-rule="nonzero" fill-opacity="1" /><path clip-path="url(#clip070)" d="M1077.55 1537.87 Q1076.56 1537.3 1075.38 1537.04 Q1074.24 1536.76 1072.84 1536.76 Q1067.87 1536.76 1065.2 1540 Q1062.56 1543.22 1062.56 1549.27 L1062.56 1568.04 L1056.67 1568.04 L1056.67 1532.4 L1062.56 1532.4 L1062.56 1537.93 Q1064.4 1534.69 1067.36 1533.13 Q1070.32 1531.54 1074.56 1531.54 Q1075.16 1531.54 1075.89 1531.63 Q1076.62 1531.7 1077.52 1531.85 L1077.55 1537.87 Z" fill="#000000" fill-rule="nonzero" fill-opacity="1" /><path clip-path="url(#clip070)" d="M1112.75 1548.76 L1112.75 1551.62 L1085.82 1551.62 Q1086.21 1557.67 1089.45 1560.85 Q1092.73 1564 1098.55 1564 Q1101.93 1564 1105.08 1563.17 Q1108.26 1562.35 1111.38 1560.69 L1111.38 1566.23 Q1108.23 1567.57 1104.92 1568.27 Q1101.61 1568.97 1098.2 1568.97 Q1089.67 1568.97 1084.68 1564 Q1079.71 1559.04 1079.71 1550.57 Q1079.71 1541.82 1084.42 1536.69 Q1089.17 1531.54 1097.19 1531.54 Q1104.38 1531.54 1108.55 1536.18 Q1112.75 1540.8 1112.75 1548.76 M1106.89 1547.04 Q1106.83 1542.23 1104.19 1539.37 Q1101.58 1536.5 1097.25 1536.5 Q1092.35 1536.5 1089.39 1539.27 Q1086.46 1542.04 1086.01 1547.07 L1106.89 1547.04 Z" fill="#000000" fill-rule="nonzero" fill-opacity="1" /><path clip-path="url(#clip070)" d="M1125.86 1550.25 Q1125.86 1556.71 1128.51 1560.4 Q1131.18 1564.07 1135.83 1564.07 Q1140.47 1564.07 1143.15 1560.4 Q1145.82 1556.71 1145.82 1550.25 Q1145.82 1543.79 1143.15 1540.13 Q1140.47 1536.44 1135.83 1536.44 Q1131.18 1536.44 1128.51 1540.13 Q1125.86 1543.79 1125.86 1550.25 M1145.82 1562.7 Q1143.97 1565.88 1141.14 1567.44 Q1138.34 1568.97 1134.39 1568.97 Q1127.93 1568.97 1123.86 1563.81 Q1119.82 1558.65 1119.82 1550.25 Q1119.82 1541.85 1123.86 1536.69 Q1127.93 1531.54 1134.39 1531.54 Q1138.34 1531.54 1141.14 1533.1 Q1143.97 1534.62 1145.82 1537.81 L1145.82 1532.4 L1151.68 1532.4 L1151.68 1581.6 L1145.82 1581.6 L1145.82 1562.7 Z" fill="#000000" fill-rule="nonzero" fill-opacity="1" /><path clip-path="url(#clip070)" d="M1163.13 1553.98 L1163.13 1532.4 L1168.99 1532.4 L1168.99 1553.75 Q1168.99 1558.81 1170.96 1561.36 Q1172.94 1563.87 1176.88 1563.87 Q1181.63 1563.87 1184.36 1560.85 Q1187.13 1557.83 1187.13 1552.61 L1187.13 1532.4 L1192.99 1532.4 L1192.99 1568.04 L1187.13 1568.04 L1187.13 1562.57 Q1185 1565.82 1182.17 1567.41 Q1179.37 1568.97 1175.64 1568.97 Q1169.5 1568.97 1166.32 1565.15 Q1163.13 1561.33 1163.13 1553.98 M1177.87 1531.54 L1177.87 1531.54 Z" fill="#000000" fill-rule="nonzero" fill-opacity="1" /><path clip-path="url(#clip070)" d="M1235.54 1548.76 L1235.54 1551.62 L1208.62 1551.62 Q1209 1557.67 1212.25 1560.85 Q1215.52 1564 1221.35 1564 Q1224.72 1564 1227.87 1563.17 Q1231.06 1562.35 1234.18 1560.69 L1234.18 1566.23 Q1231.02 1567.57 1227.71 1568.27 Q1224.4 1568.97 1221 1568.97 Q1212.47 1568.97 1207.47 1564 Q1202.51 1559.04 1202.51 1550.57 Q1202.51 1541.82 1207.22 1536.69 Q1211.96 1531.54 1219.98 1531.54 Q1227.17 1531.54 1231.34 1536.18 Q1235.54 1540.8 1235.54 1548.76 M1229.69 1547.04 Q1229.62 1542.23 1226.98 1539.37 Q1224.37 1536.5 1220.04 1536.5 Q1215.14 1536.5 1212.18 1539.27 Q1209.25 1542.04 1208.81 1547.07 L1229.69 1547.04 Z" fill="#000000" fill-rule="nonzero" fill-opacity="1" /><path clip-path="url(#clip070)" d="M1274.79 1546.53 L1274.79 1568.04 L1268.93 1568.04 L1268.93 1546.72 Q1268.93 1541.66 1266.96 1539.14 Q1264.99 1536.63 1261.04 1536.63 Q1256.3 1536.63 1253.56 1539.65 Q1250.82 1542.68 1250.82 1547.9 L1250.82 1568.04 L1244.93 1568.04 L1244.93 1532.4 L1250.82 1532.4 L1250.82 1537.93 Q1252.92 1534.72 1255.76 1533.13 Q1258.62 1531.54 1262.34 1531.54 Q1268.49 1531.54 1271.64 1535.36 Q1274.79 1539.14 1274.79 1546.53 Z" fill="#000000" fill-rule="nonzero" fill-opacity="1" /><path clip-path="url(#clip070)" d="M1312.12 1533.76 L1312.12 1539.24 Q1309.64 1537.87 1307.13 1537.2 Q1304.64 1536.5 1302.1 1536.5 Q1296.4 1536.5 1293.25 1540.13 Q1290.1 1543.73 1290.1 1550.25 Q1290.1 1556.78 1293.25 1560.4 Q1296.4 1564 1302.1 1564 Q1304.64 1564 1307.13 1563.33 Q1309.64 1562.63 1312.12 1561.26 L1312.12 1566.68 Q1309.67 1567.82 1307.03 1568.39 Q1304.42 1568.97 1301.46 1568.97 Q1293.41 1568.97 1288.67 1563.91 Q1283.92 1558.85 1283.92 1550.25 Q1283.92 1541.53 1288.7 1536.53 Q1293.5 1531.54 1301.84 1531.54 Q1304.55 1531.54 1307.13 1532.11 Q1309.71 1532.65 1312.12 1533.76 Z" fill="#000000" fill-rule="nonzero" fill-opacity="1" /><path clip-path="url(#clip070)" d="M1322.31 1532.4 L1328.17 1532.4 L1328.17 1568.04 L1322.31 1568.04 L1322.31 1532.4 M1322.31 1518.52 L1328.17 1518.52 L1328.17 1525.93 L1322.31 1525.93 L1322.31 1518.52 Z" fill="#000000" fill-rule="nonzero" fill-opacity="1" /><path clip-path="url(#clip070)" d="M1370.91 1548.76 L1370.91 1551.62 L1343.98 1551.62 Q1344.37 1557.67 1347.61 1560.85 Q1350.89 1564 1356.72 1564 Q1360.09 1564 1363.24 1563.17 Q1366.42 1562.35 1369.54 1560.69 L1369.54 1566.23 Q1366.39 1567.57 1363.08 1568.27 Q1359.77 1568.97 1356.37 1568.97 Q1347.84 1568.97 1342.84 1564 Q1337.87 1559.04 1337.87 1550.57 Q1337.87 1541.82 1342.58 1536.69 Q1347.33 1531.54 1355.35 1531.54 Q1362.54 1531.54 1366.71 1536.18 Q1370.91 1540.8 1370.91 1548.76 M1365.05 1547.04 Q1364.99 1542.23 1362.35 1539.37 Q1359.74 1536.5 1355.41 1536.5 Q1350.51 1536.5 1347.55 1539.27 Q1344.62 1542.04 1344.18 1547.07 L1365.05 1547.04 Z" fill="#000000" fill-rule="nonzero" fill-opacity="1" /><path clip-path="url(#clip070)" d="M1403.25 1533.45 L1403.25 1538.98 Q1400.77 1537.71 1398.09 1537.07 Q1395.42 1536.44 1392.55 1536.44 Q1388.19 1536.44 1386 1537.77 Q1383.83 1539.11 1383.83 1541.79 Q1383.83 1543.82 1385.39 1545 Q1386.95 1546.15 1391.66 1547.2 L1393.67 1547.64 Q1399.91 1548.98 1402.52 1551.43 Q1405.16 1553.85 1405.16 1558.21 Q1405.16 1563.17 1401.21 1566.07 Q1397.3 1568.97 1390.42 1568.97 Q1387.56 1568.97 1384.44 1568.39 Q1381.35 1567.85 1377.91 1566.74 L1377.91 1560.69 Q1381.16 1562.38 1384.31 1563.24 Q1387.46 1564.07 1390.55 1564.07 Q1394.69 1564.07 1396.92 1562.66 Q1399.14 1561.23 1399.14 1558.65 Q1399.14 1556.27 1397.52 1554.99 Q1395.93 1553.72 1390.49 1552.54 L1388.45 1552.07 Q1383.01 1550.92 1380.59 1548.56 Q1378.17 1546.18 1378.17 1542.04 Q1378.17 1537.01 1381.73 1534.27 Q1385.3 1531.54 1391.85 1531.54 Q1395.1 1531.54 1397.97 1532.01 Q1400.83 1532.49 1403.25 1533.45 Z" fill="#000000" fill-rule="nonzero" fill-opacity="1" /><path clip-path="url(#clip070)" d="M1434.66 1518.52 L1448.16 1518.52 L1448.16 1523.07 L1440.52 1523.07 L1440.52 1572.09 L1448.16 1572.09 L1448.16 1576.64 L1434.66 1576.64 L1434.66 1518.52 Z" fill="#000000" fill-rule="nonzero" fill-opacity="1" /><path clip-path="url(#clip070)" d="M1493.29 1561.26 L1493.29 1548.5 L1482.79 1548.5 L1482.79 1543.22 L1499.66 1543.22 L1499.66 1563.62 Q1495.93 1566.26 1491.45 1567.63 Q1486.96 1568.97 1481.87 1568.97 Q1470.73 1568.97 1464.42 1562.47 Q1458.15 1555.95 1458.15 1544.33 Q1458.15 1532.68 1464.42 1526.19 Q1470.73 1519.66 1481.87 1519.66 Q1486.51 1519.66 1490.68 1520.81 Q1494.88 1521.96 1498.42 1524.18 L1498.42 1531.03 Q1494.85 1528 1490.84 1526.48 Q1486.83 1524.95 1482.41 1524.95 Q1473.69 1524.95 1469.29 1529.82 Q1464.93 1534.69 1464.93 1544.33 Q1464.93 1553.94 1469.29 1558.81 Q1473.69 1563.68 1482.41 1563.68 Q1485.81 1563.68 1488.49 1563.11 Q1491.16 1562.51 1493.29 1561.26 Z" fill="#000000" fill-rule="nonzero" fill-opacity="1" /><path clip-path="url(#clip070)" d="M1511.4 1520.52 L1517.83 1520.52 L1517.83 1540 L1541.19 1540 L1541.19 1520.52 L1547.62 1520.52 L1547.62 1568.04 L1541.19 1568.04 L1541.19 1545.41 L1517.83 1545.41 L1517.83 1568.04 L1511.4 1568.04 L1511.4 1520.52 Z" fill="#000000" fill-rule="nonzero" fill-opacity="1" /><path clip-path="url(#clip070)" d="M1557.62 1532.4 L1585.44 1532.4 L1585.44 1537.74 L1563.41 1563.37 L1585.44 1563.37 L1585.44 1568.04 L1556.82 1568.04 L1556.82 1562.7 L1578.85 1537.07 L1557.62 1537.07 L1557.62 1532.4 Z" fill="#000000" fill-rule="nonzero" fill-opacity="1" /><path clip-path="url(#clip070)" d="M1608.07 1518.52 L1608.07 1576.64 L1594.57 1576.64 L1594.57 1572.09 L1602.18 1572.09 L1602.18 1523.07 L1594.57 1523.07 L1594.57 1518.52 L1608.07 1518.52 Z" fill="#000000" fill-rule="nonzero" fill-opacity="1" /><polyline clip-path="url(#clip070)" style="stroke:#000000; stroke-linecap:round; stroke-linejoin:round; stroke-width:4; stroke-opacity:1; fill:none" points="279.704,1423.18 279.704,47.2441 "/>
<polyline clip-path="url(#clip070)" style="stroke:#000000; stroke-linecap:round; stroke-linejoin:round; stroke-width:4; stroke-opacity:1; fill:none" points="279.704,1178.64 298.602,1178.64 "/>
<polyline clip-path="url(#clip070)" style="stroke:#000000; stroke-linecap:round; stroke-linejoin:round; stroke-width:4; stroke-opacity:1; fill:none" points="279.704,903.987 298.602,903.987 "/>
<polyline clip-path="url(#clip070)" style="stroke:#000000; stroke-linecap:round; stroke-linejoin:round; stroke-width:4; stroke-opacity:1; fill:none" points="279.704,629.335 298.602,629.335 "/>
<polyline clip-path="url(#clip070)" style="stroke:#000000; stroke-linecap:round; stroke-linejoin:round; stroke-width:4; stroke-opacity:1; fill:none" points="279.704,354.683 298.602,354.683 "/>
<polyline clip-path="url(#clip070)" style="stroke:#000000; stroke-linecap:round; stroke-linejoin:round; stroke-width:4; stroke-opacity:1; fill:none" points="279.704,80.0313 298.602,80.0313 "/>
<path clip-path="url(#clip070)" d="M126.205 1164.44 Q122.593 1164.44 120.765 1168 Q118.959 1171.54 118.959 1178.67 Q118.959 1185.78 120.765 1189.35 Q122.593 1192.89 126.205 1192.89 Q129.839 1192.89 131.644 1189.35 Q133.473 1185.78 133.473 1178.67 Q133.473 1171.54 131.644 1168 Q129.839 1164.44 126.205 1164.44 M126.205 1160.73 Q132.015 1160.73 135.07 1165.34 Q138.149 1169.92 138.149 1178.67 Q138.149 1187.4 135.07 1192.01 Q132.015 1196.59 126.205 1196.59 Q120.394 1196.59 117.316 1192.01 Q114.26 1187.4 114.26 1178.67 Q114.26 1169.92 117.316 1165.34 Q120.394 1160.73 126.205 1160.73 Z" fill="#000000" fill-rule="nonzero" fill-opacity="1" /><path clip-path="url(#clip070)" d="M146.366 1190.04 L151.251 1190.04 L151.251 1195.92 L146.366 1195.92 L146.366 1190.04 Z" fill="#000000" fill-rule="nonzero" fill-opacity="1" /><path clip-path="url(#clip070)" d="M161.575 1195.2 L161.575 1190.94 Q163.334 1191.78 165.14 1192.22 Q166.945 1192.66 168.681 1192.66 Q173.311 1192.66 175.741 1189.55 Q178.195 1186.43 178.542 1180.09 Q177.2 1182.08 175.139 1183.14 Q173.079 1184.21 170.579 1184.21 Q165.394 1184.21 162.362 1181.08 Q159.353 1177.93 159.353 1172.49 Q159.353 1167.17 162.501 1163.95 Q165.649 1160.73 170.88 1160.73 Q176.876 1160.73 180.024 1165.34 Q183.195 1169.92 183.195 1178.67 Q183.195 1186.85 179.306 1191.73 Q175.44 1196.59 168.889 1196.59 Q167.13 1196.59 165.325 1196.24 Q163.519 1195.9 161.575 1195.2 M170.88 1180.55 Q174.028 1180.55 175.857 1178.4 Q177.709 1176.24 177.709 1172.49 Q177.709 1168.77 175.857 1166.61 Q174.028 1164.44 170.88 1164.44 Q167.732 1164.44 165.88 1166.61 Q164.052 1168.77 164.052 1172.49 Q164.052 1176.24 165.88 1178.4 Q167.732 1180.55 170.88 1180.55 Z" fill="#000000" fill-rule="nonzero" fill-opacity="1" /><path clip-path="url(#clip070)" d="M201.598 1179.51 Q198.264 1179.51 196.343 1181.29 Q194.445 1183.07 194.445 1186.2 Q194.445 1189.32 196.343 1191.1 Q198.264 1192.89 201.598 1192.89 Q204.931 1192.89 206.852 1191.1 Q208.774 1189.3 208.774 1186.2 Q208.774 1183.07 206.852 1181.29 Q204.954 1179.51 201.598 1179.51 M196.922 1177.52 Q193.913 1176.78 192.223 1174.72 Q190.556 1172.66 190.556 1169.69 Q190.556 1165.55 193.496 1163.14 Q196.459 1160.73 201.598 1160.73 Q206.76 1160.73 209.699 1163.14 Q212.639 1165.55 212.639 1169.69 Q212.639 1172.66 210.949 1174.72 Q209.283 1176.78 206.297 1177.52 Q209.676 1178.3 211.551 1180.6 Q213.449 1182.89 213.449 1186.2 Q213.449 1191.22 210.371 1193.91 Q207.315 1196.59 201.598 1196.59 Q195.88 1196.59 192.801 1193.91 Q189.746 1191.22 189.746 1186.2 Q189.746 1182.89 191.644 1180.6 Q193.542 1178.3 196.922 1177.52 M195.209 1170.13 Q195.209 1172.82 196.875 1174.32 Q198.565 1175.83 201.598 1175.83 Q204.607 1175.83 206.297 1174.32 Q208.01 1172.82 208.01 1170.13 Q208.01 1167.45 206.297 1165.94 Q204.607 1164.44 201.598 1164.44 Q198.565 1164.44 196.875 1165.94 Q195.209 1167.45 195.209 1170.13 Z" fill="#000000" fill-rule="nonzero" fill-opacity="1" /><path clip-path="url(#clip070)" d="M231.76 1164.44 Q228.148 1164.44 226.32 1168 Q224.514 1171.54 224.514 1178.67 Q224.514 1185.78 226.32 1189.35 Q228.148 1192.89 231.76 1192.89 Q235.394 1192.89 237.199 1189.35 Q239.028 1185.78 239.028 1178.67 Q239.028 1171.54 237.199 1168 Q235.394 1164.44 231.76 1164.44 M231.76 1160.73 Q237.57 1160.73 240.625 1165.34 Q243.704 1169.92 243.704 1178.67 Q243.704 1187.4 240.625 1192.01 Q237.57 1196.59 231.76 1196.59 Q225.949 1196.59 222.871 1192.01 Q219.815 1187.4 219.815 1178.67 Q219.815 1169.92 222.871 1165.34 Q225.949 1160.73 231.76 1160.73 Z" fill="#000000" fill-rule="nonzero" fill-opacity="1" /><path clip-path="url(#clip070)" d="M127.2 889.786 Q123.589 889.786 121.76 893.351 Q119.955 896.893 119.955 904.022 Q119.955 911.129 121.76 914.693 Q123.589 918.235 127.2 918.235 Q130.834 918.235 132.64 914.693 Q134.468 911.129 134.468 904.022 Q134.468 896.893 132.64 893.351 Q130.834 889.786 127.2 889.786 M127.2 886.082 Q133.01 886.082 136.066 890.689 Q139.144 895.272 139.144 904.022 Q139.144 912.749 136.066 917.355 Q133.01 921.939 127.2 921.939 Q121.39 921.939 118.311 917.355 Q115.256 912.749 115.256 904.022 Q115.256 895.272 118.311 890.689 Q121.39 886.082 127.2 886.082 Z" fill="#000000" fill-rule="nonzero" fill-opacity="1" /><path clip-path="url(#clip070)" d="M147.362 915.388 L152.246 915.388 L152.246 921.267 L147.362 921.267 L147.362 915.388 Z" fill="#000000" fill-rule="nonzero" fill-opacity="1" /><path clip-path="url(#clip070)" d="M162.57 920.55 L162.57 916.291 Q164.329 917.124 166.135 917.564 Q167.94 918.004 169.677 918.004 Q174.306 918.004 176.737 914.902 Q179.19 911.777 179.538 905.434 Q178.195 907.425 176.135 908.49 Q174.075 909.554 171.575 909.554 Q166.39 909.554 163.357 906.43 Q160.348 903.281 160.348 897.842 Q160.348 892.518 163.496 889.3 Q166.644 886.082 171.876 886.082 Q177.871 886.082 181.019 890.689 Q184.19 895.272 184.19 904.022 Q184.19 912.193 180.301 917.078 Q176.436 921.939 169.885 921.939 Q168.126 921.939 166.32 921.591 Q164.515 921.244 162.57 920.55 M171.876 905.897 Q175.024 905.897 176.852 903.744 Q178.704 901.592 178.704 897.842 Q178.704 894.115 176.852 891.962 Q175.024 889.786 171.876 889.786 Q168.727 889.786 166.876 891.962 Q165.047 894.115 165.047 897.842 Q165.047 901.592 166.876 903.744 Q168.727 905.897 171.876 905.897 Z" fill="#000000" fill-rule="nonzero" fill-opacity="1" /><path clip-path="url(#clip070)" d="M202.593 904.855 Q199.26 904.855 197.338 906.638 Q195.44 908.42 195.44 911.545 Q195.44 914.67 197.338 916.453 Q199.26 918.235 202.593 918.235 Q205.926 918.235 207.848 916.453 Q209.769 914.647 209.769 911.545 Q209.769 908.42 207.848 906.638 Q205.949 904.855 202.593 904.855 M197.917 902.865 Q194.908 902.124 193.218 900.064 Q191.551 898.004 191.551 895.041 Q191.551 890.897 194.491 888.49 Q197.454 886.082 202.593 886.082 Q207.755 886.082 210.695 888.49 Q213.635 890.897 213.635 895.041 Q213.635 898.004 211.945 900.064 Q210.278 902.124 207.292 902.865 Q210.672 903.652 212.547 905.943 Q214.445 908.235 214.445 911.545 Q214.445 916.568 211.366 919.254 Q208.311 921.939 202.593 921.939 Q196.875 921.939 193.797 919.254 Q190.741 916.568 190.741 911.545 Q190.741 908.235 192.639 905.943 Q194.538 903.652 197.917 902.865 M196.204 895.48 Q196.204 898.166 197.871 899.67 Q199.561 901.175 202.593 901.175 Q205.602 901.175 207.292 899.67 Q209.005 898.166 209.005 895.48 Q209.005 892.795 207.292 891.291 Q205.602 889.786 202.593 889.786 Q199.561 889.786 197.871 891.291 Q196.204 892.795 196.204 895.48 Z" fill="#000000" fill-rule="nonzero" fill-opacity="1" /><path clip-path="url(#clip070)" d="M222.801 886.707 L241.158 886.707 L241.158 890.643 L227.084 890.643 L227.084 899.115 Q228.102 898.768 229.121 898.605 Q230.139 898.42 231.158 898.42 Q236.945 898.42 240.324 901.592 Q243.704 904.763 243.704 910.179 Q243.704 915.758 240.232 918.86 Q236.76 921.939 230.44 921.939 Q228.264 921.939 225.996 921.568 Q223.75 921.198 221.343 920.457 L221.343 915.758 Q223.426 916.892 225.648 917.448 Q227.871 918.004 230.347 918.004 Q234.352 918.004 236.69 915.897 Q239.028 913.791 239.028 910.179 Q239.028 906.568 236.69 904.462 Q234.352 902.355 230.347 902.355 Q228.473 902.355 226.598 902.772 Q224.746 903.189 222.801 904.068 L222.801 886.707 Z" fill="#000000" fill-rule="nonzero" fill-opacity="1" /><path clip-path="url(#clip070)" d="M126.205 615.134 Q122.593 615.134 120.765 618.699 Q118.959 622.241 118.959 629.37 Q118.959 636.477 120.765 640.041 Q122.593 643.583 126.205 643.583 Q129.839 643.583 131.644 640.041 Q133.473 636.477 133.473 629.37 Q133.473 622.241 131.644 618.699 Q129.839 615.134 126.205 615.134 M126.205 611.43 Q132.015 611.43 135.07 616.037 Q138.149 620.62 138.149 629.37 Q138.149 638.097 135.07 642.703 Q132.015 647.287 126.205 647.287 Q120.394 647.287 117.316 642.703 Q114.26 638.097 114.26 629.37 Q114.26 620.62 117.316 616.037 Q120.394 611.43 126.205 611.43 Z" fill="#000000" fill-rule="nonzero" fill-opacity="1" /><path clip-path="url(#clip070)" d="M146.366 640.736 L151.251 640.736 L151.251 646.615 L146.366 646.615 L146.366 640.736 Z" fill="#000000" fill-rule="nonzero" fill-opacity="1" /><path clip-path="url(#clip070)" d="M161.575 645.898 L161.575 641.639 Q163.334 642.472 165.14 642.912 Q166.945 643.352 168.681 643.352 Q173.311 643.352 175.741 640.25 Q178.195 637.125 178.542 630.782 Q177.2 632.773 175.139 633.838 Q173.079 634.902 170.579 634.902 Q165.394 634.902 162.362 631.777 Q159.353 628.629 159.353 623.19 Q159.353 617.866 162.501 614.648 Q165.649 611.43 170.88 611.43 Q176.876 611.43 180.024 616.037 Q183.195 620.62 183.195 629.37 Q183.195 637.541 179.306 642.426 Q175.44 647.287 168.889 647.287 Q167.13 647.287 165.325 646.939 Q163.519 646.592 161.575 645.898 M170.88 631.245 Q174.028 631.245 175.857 629.092 Q177.709 626.94 177.709 623.19 Q177.709 619.463 175.857 617.31 Q174.028 615.134 170.88 615.134 Q167.732 615.134 165.88 617.31 Q164.052 619.463 164.052 623.19 Q164.052 626.94 165.88 629.092 Q167.732 631.245 170.88 631.245 Z" fill="#000000" fill-rule="nonzero" fill-opacity="1" /><path clip-path="url(#clip070)" d="M191.737 645.898 L191.737 641.639 Q193.496 642.472 195.301 642.912 Q197.107 643.352 198.843 643.352 Q203.473 643.352 205.903 640.25 Q208.357 637.125 208.704 630.782 Q207.362 632.773 205.301 633.838 Q203.241 634.902 200.741 634.902 Q195.556 634.902 192.524 631.777 Q189.514 628.629 189.514 623.19 Q189.514 617.866 192.663 614.648 Q195.811 611.43 201.042 611.43 Q207.037 611.43 210.186 616.037 Q213.357 620.62 213.357 629.37 Q213.357 637.541 209.468 642.426 Q205.602 647.287 199.051 647.287 Q197.292 647.287 195.487 646.939 Q193.681 646.592 191.737 645.898 M201.042 631.245 Q204.19 631.245 206.019 629.092 Q207.871 626.94 207.871 623.19 Q207.871 619.463 206.019 617.31 Q204.19 615.134 201.042 615.134 Q197.894 615.134 196.042 617.31 Q194.213 619.463 194.213 623.19 Q194.213 626.94 196.042 629.092 Q197.894 631.245 201.042 631.245 Z" fill="#000000" fill-rule="nonzero" fill-opacity="1" /><path clip-path="url(#clip070)" d="M231.76 615.134 Q228.148 615.134 226.32 618.699 Q224.514 622.241 224.514 629.37 Q224.514 636.477 226.32 640.041 Q228.148 643.583 231.76 643.583 Q235.394 643.583 237.199 640.041 Q239.028 636.477 239.028 629.37 Q239.028 622.241 237.199 618.699 Q235.394 615.134 231.76 615.134 M231.76 611.43 Q237.57 611.43 240.625 616.037 Q243.704 620.62 243.704 629.37 Q243.704 638.097 240.625 642.703 Q237.57 647.287 231.76 647.287 Q225.949 647.287 222.871 642.703 Q219.815 638.097 219.815 629.37 Q219.815 620.62 222.871 616.037 Q225.949 611.43 231.76 611.43 Z" fill="#000000" fill-rule="nonzero" fill-opacity="1" /><path clip-path="url(#clip070)" d="M127.2 340.482 Q123.589 340.482 121.76 344.047 Q119.955 347.588 119.955 354.718 Q119.955 361.825 121.76 365.389 Q123.589 368.931 127.2 368.931 Q130.834 368.931 132.64 365.389 Q134.468 361.825 134.468 354.718 Q134.468 347.588 132.64 344.047 Q130.834 340.482 127.2 340.482 M127.2 336.778 Q133.01 336.778 136.066 341.385 Q139.144 345.968 139.144 354.718 Q139.144 363.445 136.066 368.051 Q133.01 372.635 127.2 372.635 Q121.39 372.635 118.311 368.051 Q115.256 363.445 115.256 354.718 Q115.256 345.968 118.311 341.385 Q121.39 336.778 127.2 336.778 Z" fill="#000000" fill-rule="nonzero" fill-opacity="1" /><path clip-path="url(#clip070)" d="M147.362 366.084 L152.246 366.084 L152.246 371.963 L147.362 371.963 L147.362 366.084 Z" fill="#000000" fill-rule="nonzero" fill-opacity="1" /><path clip-path="url(#clip070)" d="M162.57 371.246 L162.57 366.987 Q164.329 367.82 166.135 368.26 Q167.94 368.699 169.677 368.699 Q174.306 368.699 176.737 365.598 Q179.19 362.473 179.538 356.13 Q178.195 358.121 176.135 359.186 Q174.075 360.25 171.575 360.25 Q166.39 360.25 163.357 357.125 Q160.348 353.977 160.348 348.538 Q160.348 343.214 163.496 339.996 Q166.644 336.778 171.876 336.778 Q177.871 336.778 181.019 341.385 Q184.19 345.968 184.19 354.718 Q184.19 362.889 180.301 367.774 Q176.436 372.635 169.885 372.635 Q168.126 372.635 166.32 372.287 Q164.515 371.94 162.57 371.246 M171.876 356.593 Q175.024 356.593 176.852 354.44 Q178.704 352.288 178.704 348.538 Q178.704 344.811 176.852 342.658 Q175.024 340.482 171.876 340.482 Q168.727 340.482 166.876 342.658 Q165.047 344.811 165.047 348.538 Q165.047 352.288 166.876 354.44 Q168.727 356.593 171.876 356.593 Z" fill="#000000" fill-rule="nonzero" fill-opacity="1" /><path clip-path="url(#clip070)" d="M192.732 371.246 L192.732 366.987 Q194.491 367.82 196.297 368.26 Q198.102 368.699 199.838 368.699 Q204.468 368.699 206.899 365.598 Q209.352 362.473 209.699 356.13 Q208.357 358.121 206.297 359.186 Q204.237 360.25 201.737 360.25 Q196.551 360.25 193.519 357.125 Q190.51 353.977 190.51 348.538 Q190.51 343.214 193.658 339.996 Q196.806 336.778 202.037 336.778 Q208.033 336.778 211.181 341.385 Q214.352 345.968 214.352 354.718 Q214.352 362.889 210.463 367.774 Q206.598 372.635 200.047 372.635 Q198.287 372.635 196.482 372.287 Q194.676 371.94 192.732 371.246 M202.037 356.593 Q205.186 356.593 207.014 354.44 Q208.866 352.288 208.866 348.538 Q208.866 344.811 207.014 342.658 Q205.186 340.482 202.037 340.482 Q198.889 340.482 197.037 342.658 Q195.209 344.811 195.209 348.538 Q195.209 352.288 197.037 354.44 Q198.889 356.593 202.037 356.593 Z" fill="#000000" fill-rule="nonzero" fill-opacity="1" /><path clip-path="url(#clip070)" d="M222.801 337.403 L241.158 337.403 L241.158 341.339 L227.084 341.339 L227.084 349.811 Q228.102 349.463 229.121 349.301 Q230.139 349.116 231.158 349.116 Q236.945 349.116 240.324 352.288 Q243.704 355.459 243.704 360.875 Q243.704 366.454 240.232 369.556 Q236.76 372.635 230.44 372.635 Q228.264 372.635 225.996 372.264 Q223.75 371.894 221.343 371.153 L221.343 366.454 Q223.426 367.588 225.648 368.144 Q227.871 368.699 230.347 368.699 Q234.352 368.699 236.69 366.593 Q239.028 364.487 239.028 360.875 Q239.028 357.264 236.69 355.158 Q234.352 353.051 230.347 353.051 Q228.473 353.051 226.598 353.468 Q224.746 353.885 222.801 354.764 L222.801 337.403 Z" fill="#000000" fill-rule="nonzero" fill-opacity="1" /><path clip-path="url(#clip070)" d="M117.015 93.3762 L124.654 93.3762 L124.654 67.0106 L116.343 68.6772 L116.343 64.418 L124.607 62.7513 L129.283 62.7513 L129.283 93.3762 L136.922 93.3762 L136.922 97.3113 L117.015 97.3113 L117.015 93.3762 Z" fill="#000000" fill-rule="nonzero" fill-opacity="1" /><path clip-path="url(#clip070)" d="M146.366 91.4317 L151.251 91.4317 L151.251 97.3113 L146.366 97.3113 L146.366 91.4317 Z" fill="#000000" fill-rule="nonzero" fill-opacity="1" /><path clip-path="url(#clip070)" d="M171.436 65.83 Q167.825 65.83 165.996 69.3948 Q164.19 72.9365 164.19 80.0661 Q164.19 87.1725 165.996 90.7373 Q167.825 94.2789 171.436 94.2789 Q175.07 94.2789 176.876 90.7373 Q178.704 87.1725 178.704 80.0661 Q178.704 72.9365 176.876 69.3948 Q175.07 65.83 171.436 65.83 M171.436 62.1263 Q177.246 62.1263 180.301 66.7328 Q183.38 71.3161 183.38 80.0661 Q183.38 88.7929 180.301 93.3993 Q177.246 97.9826 171.436 97.9826 Q165.626 97.9826 162.547 93.3993 Q159.491 88.7929 159.491 80.0661 Q159.491 71.3161 162.547 66.7328 Q165.626 62.1263 171.436 62.1263 Z" fill="#000000" fill-rule="nonzero" fill-opacity="1" /><path clip-path="url(#clip070)" d="M201.598 65.83 Q197.987 65.83 196.158 69.3948 Q194.352 72.9365 194.352 80.0661 Q194.352 87.1725 196.158 90.7373 Q197.987 94.2789 201.598 94.2789 Q205.232 94.2789 207.037 90.7373 Q208.866 87.1725 208.866 80.0661 Q208.866 72.9365 207.037 69.3948 Q205.232 65.83 201.598 65.83 M201.598 62.1263 Q207.408 62.1263 210.463 66.7328 Q213.542 71.3161 213.542 80.0661 Q213.542 88.7929 210.463 93.3993 Q207.408 97.9826 201.598 97.9826 Q195.787 97.9826 192.709 93.3993 Q189.653 88.7929 189.653 80.0661 Q189.653 71.3161 192.709 66.7328 Q195.787 62.1263 201.598 62.1263 Z" fill="#000000" fill-rule="nonzero" fill-opacity="1" /><path clip-path="url(#clip070)" d="M231.76 65.83 Q228.148 65.83 226.32 69.3948 Q224.514 72.9365 224.514 80.0661 Q224.514 87.1725 226.32 90.7373 Q228.148 94.2789 231.76 94.2789 Q235.394 94.2789 237.199 90.7373 Q239.028 87.1725 239.028 80.0661 Q239.028 72.9365 237.199 69.3948 Q235.394 65.83 231.76 65.83 M231.76 62.1263 Q237.57 62.1263 240.625 66.7328 Q243.704 71.3161 243.704 80.0661 Q243.704 88.7929 240.625 93.3993 Q237.57 97.9826 231.76 97.9826 Q225.949 97.9826 222.871 93.3993 Q219.815 88.7929 219.815 80.0661 Q219.815 71.3161 222.871 66.7328 Q225.949 62.1263 231.76 62.1263 Z" fill="#000000" fill-rule="nonzero" fill-opacity="1" /><path clip-path="url(#clip070)" d="M41.7242 981.804 Q42.4244 979.735 44.7161 977.793 Q47.0077 975.82 51.0181 973.846 L64.0042 967.322 L64.0042 974.228 L51.8138 980.308 Q47.0395 982.663 45.48 984.891 Q43.9204 987.087 43.9204 990.906 L43.9204 997.909 L64.0042 997.909 L64.0042 1004.34 L16.4842 1004.34 L16.4842 989.824 Q16.4842 981.676 19.8898 977.666 Q23.2955 973.655 30.1704 973.655 Q34.6582 973.655 37.6183 975.756 Q40.5784 977.825 41.7242 981.804 M21.7677 997.909 L38.6368 997.909 L38.6368 989.824 Q38.6368 985.177 36.5043 982.822 Q34.34 980.435 30.1704 980.435 Q26.0009 980.435 23.9002 982.822 Q21.7677 985.177 21.7677 989.824 L21.7677 997.909 Z" fill="#000000" fill-rule="nonzero" fill-opacity="1" /><path clip-path="url(#clip070)" d="M44.7161 931.737 L47.5806 931.737 L47.5806 958.664 Q53.6281 958.282 56.8109 955.036 Q59.9619 951.757 59.9619 945.933 Q59.9619 942.559 59.1344 939.408 Q58.3069 936.225 56.6518 933.106 L62.1899 933.106 Q63.5267 936.257 64.227 939.567 Q64.9272 942.877 64.9272 946.283 Q64.9272 954.813 59.9619 959.81 Q54.9967 964.775 46.5303 964.775 Q37.7774 964.775 32.6531 960.065 Q27.4968 955.322 27.4968 947.301 Q27.4968 940.108 32.1438 935.939 Q36.7589 931.737 44.7161 931.737 M42.9973 937.594 Q38.1912 937.657 35.3266 940.299 Q32.4621 942.909 32.4621 947.238 Q32.4621 952.139 35.2312 955.099 Q38.0002 958.028 43.0292 958.473 L42.9973 937.594 Z" fill="#000000" fill-rule="nonzero" fill-opacity="1" /><path clip-path="url(#clip070)" d="M14.479 904.078 L19.3487 904.078 L19.3487 909.68 Q19.3487 912.831 20.6219 914.072 Q21.895 915.282 25.2052 915.282 L28.3562 915.282 L28.3562 905.638 L32.9077 905.638 L32.9077 915.282 L64.0042 915.282 L64.0042 921.17 L32.9077 921.17 L32.9077 926.772 L28.3562 926.772 L28.3562 921.17 L25.8736 921.17 Q19.9216 921.17 17.2162 918.401 Q14.479 915.632 14.479 909.616 L14.479 904.078 Z" fill="#000000" fill-rule="nonzero" fill-opacity="1" /><path clip-path="url(#clip070)" d="M14.479 899.177 L14.479 893.32 L64.0042 893.32 L64.0042 899.177 L14.479 899.177 Z" fill="#000000" fill-rule="nonzero" fill-opacity="1" /><path clip-path="url(#clip070)" d="M44.7161 850.574 L47.5806 850.574 L47.5806 877.501 Q53.6281 877.119 56.8109 873.873 Q59.9619 870.595 59.9619 864.77 Q59.9619 861.396 59.1344 858.245 Q58.3069 855.062 56.6518 851.943 L62.1899 851.943 Q63.5267 855.094 64.227 858.404 Q64.9272 861.714 64.9272 865.12 Q64.9272 873.65 59.9619 878.647 Q54.9967 883.613 46.5303 883.613 Q37.7774 883.613 32.6531 878.902 Q27.4968 874.159 27.4968 866.139 Q27.4968 858.945 32.1438 854.776 Q36.7589 850.574 44.7161 850.574 M42.9973 856.431 Q38.1912 856.495 35.3266 859.136 Q32.4621 861.746 32.4621 866.075 Q32.4621 870.977 35.2312 873.937 Q38.0002 876.865 43.0292 877.31 L42.9973 856.431 Z" fill="#000000" fill-rule="nonzero" fill-opacity="1" /><path clip-path="url(#clip070)" d="M29.7248 815.308 L35.1993 815.308 Q33.8307 817.791 33.1623 820.306 Q32.4621 822.788 32.4621 825.334 Q32.4621 831.032 36.0905 834.183 Q39.6872 837.334 46.212 837.334 Q52.7369 837.334 56.3653 834.183 Q59.9619 831.032 59.9619 825.334 Q59.9619 822.788 59.2935 820.306 Q58.5933 817.791 57.2247 815.308 L62.6355 815.308 Q63.7814 817.759 64.3543 820.401 Q64.9272 823.011 64.9272 825.971 Q64.9272 834.024 59.8664 838.766 Q54.8057 843.509 46.212 843.509 Q37.491 843.509 32.4939 838.734 Q27.4968 833.928 27.4968 825.589 Q27.4968 822.884 28.0697 820.306 Q28.6108 817.727 29.7248 815.308 Z" fill="#000000" fill-rule="nonzero" fill-opacity="1" /><path clip-path="url(#clip070)" d="M18.2347 799.331 L28.3562 799.331 L28.3562 787.268 L32.9077 787.268 L32.9077 799.331 L52.2594 799.331 Q56.6199 799.331 57.8613 798.153 Q59.1026 796.943 59.1026 793.283 L59.1026 787.268 L64.0042 787.268 L64.0042 793.283 Q64.0042 800.063 61.4897 802.641 Q58.9434 805.219 52.2594 805.219 L32.9077 805.219 L32.9077 809.516 L28.3562 809.516 L28.3562 805.219 L18.2347 805.219 L18.2347 799.331 Z" fill="#000000" fill-rule="nonzero" fill-opacity="1" /><path clip-path="url(#clip070)" d="M28.3562 779.565 L28.3562 773.709 L64.0042 773.709 L64.0042 779.565 L28.3562 779.565 M14.479 779.565 L14.479 773.709 L21.895 773.709 L21.895 779.565 L14.479 779.565 Z" fill="#000000" fill-rule="nonzero" fill-opacity="1" /><path clip-path="url(#clip070)" d="M28.3562 765.656 L28.3562 759.449 L58.275 748.309 L28.3562 737.169 L28.3562 730.963 L64.0042 744.331 L64.0042 752.288 L28.3562 765.656 Z" fill="#000000" fill-rule="nonzero" fill-opacity="1" /><path clip-path="url(#clip070)" d="M28.3562 722.878 L28.3562 717.022 L64.0042 717.022 L64.0042 722.878 L28.3562 722.878 M14.479 722.878 L14.479 717.022 L21.895 717.022 L21.895 722.878 L14.479 722.878 Z" fill="#000000" fill-rule="nonzero" fill-opacity="1" /><path clip-path="url(#clip070)" d="M18.2347 698.975 L28.3562 698.975 L28.3562 686.912 L32.9077 686.912 L32.9077 698.975 L52.2594 698.975 Q56.6199 698.975 57.8613 697.798 Q59.1026 696.588 59.1026 692.928 L59.1026 686.912 L64.0042 686.912 L64.0042 692.928 Q64.0042 699.707 61.4897 702.285 Q58.9434 704.863 52.2594 704.863 L32.9077 704.863 L32.9077 709.16 L28.3562 709.16 L28.3562 704.863 L18.2347 704.863 L18.2347 698.975 Z" fill="#000000" fill-rule="nonzero" fill-opacity="1" /><path clip-path="url(#clip070)" d="M67.3143 664.378 Q73.68 666.86 75.6216 669.216 Q77.5631 671.571 77.5631 675.518 L77.5631 680.196 L72.6615 680.196 L72.6615 676.759 Q72.6615 674.34 71.5157 673.003 Q70.3699 671.666 66.1048 670.043 L63.4312 668.993 L28.3562 683.411 L28.3562 677.204 L56.238 666.064 L28.3562 654.924 L28.3562 648.718 L67.3143 664.378 Z" fill="#000000" fill-rule="nonzero" fill-opacity="1" /><path clip-path="url(#clip070)" d="M14.1925 612.37 L79.3773 612.37 L79.3773 617.781 L14.1925 617.781 L14.1925 612.37 Z" fill="#000000" fill-rule="nonzero" fill-opacity="1" /><path clip-path="url(#clip070)" d="M18.0438 569.21 L24.314 569.21 Q22.5634 572.871 21.704 576.117 Q20.8447 579.364 20.8447 582.387 Q20.8447 587.639 22.8817 590.504 Q24.9187 593.336 28.6745 593.336 Q31.8255 593.336 33.4488 591.458 Q35.0402 589.549 36.0269 584.265 L36.8226 580.382 Q38.1912 573.189 41.6605 569.783 Q45.098 566.346 50.8908 566.346 Q57.7976 566.346 61.3624 570.993 Q64.9272 575.608 64.9272 584.552 Q64.9272 587.925 64.1633 591.745 Q63.3994 595.532 61.9035 599.607 L55.2831 599.607 Q57.4793 595.692 58.5933 591.936 Q59.7073 588.18 59.7073 584.552 Q59.7073 579.045 57.543 576.053 Q55.3786 573.062 51.3682 573.062 Q47.8671 573.062 45.8937 575.226 Q43.9204 577.358 42.9337 582.26 L42.1698 586.175 Q40.7375 593.368 37.682 596.583 Q34.6264 599.797 29.1837 599.797 Q22.8817 599.797 19.2532 595.373 Q15.6248 590.917 15.6248 583.119 Q15.6248 579.777 16.2295 576.308 Q16.8343 572.839 18.0438 569.21 Z" fill="#000000" fill-rule="nonzero" fill-opacity="1" /><path clip-path="url(#clip070)" d="M58.5933 554.633 L58.5933 544.129 L22.3406 544.129 L24.6323 555.556 L18.7758 555.556 L16.4842 544.193 L16.4842 537.764 L58.5933 537.764 L58.5933 527.26 L64.0042 527.26 L64.0042 554.633 L58.5933 554.633 Z" fill="#000000" fill-rule="nonzero" fill-opacity="1" /><path clip-path="url(#clip070)" d="M58.5933 513.16 L58.5933 502.657 L22.3406 502.657 L24.6323 514.083 L18.7758 514.083 L16.4842 502.72 L16.4842 496.291 L58.5933 496.291 L58.5933 485.788 L64.0042 485.788 L64.0042 513.16 L58.5933 513.16 Z" fill="#000000" fill-rule="nonzero" fill-opacity="1" /><path clip-path="url(#clip070)" d="M14.1925 466.086 L79.3773 466.086 L79.3773 471.497 L14.1925 471.497 L14.1925 466.086 Z" fill="#000000" fill-rule="nonzero" fill-opacity="1" /><polyline clip-path="url(#clip072)" style="stroke:#009af9; stroke-linecap:round; stroke-linejoin:round; stroke-width:4; stroke-opacity:1; fill:none" points="338.375,86.1857 340.333,86.1868 342.291,86.1879 344.248,86.189 346.206,86.1902 348.164,86.1914 350.121,86.1926 352.079,86.1939 354.037,86.1952 355.994,86.1965 357.952,86.1978 359.91,86.1991 361.867,86.2005 363.825,86.2019 365.783,86.2034 367.74,86.2048 369.698,86.2063 371.656,86.2078 373.613,86.2094 375.571,86.211 377.529,86.2126 379.486,86.2142 381.444,86.2159 383.402,86.2176 385.359,86.2193 387.317,86.2211 389.275,86.2228 391.232,86.2247 393.19,86.2265 395.148,86.2284 397.105,86.2303 399.063,86.2322 401.021,86.2342 402.978,86.2362 404.936,86.2383 406.894,86.2403 408.851,86.2424 410.809,86.2446 412.767,86.2467 414.724,86.249 416.682,86.2512 418.64,86.2535 420.597,86.2558 422.555,86.2581 424.513,86.2605 426.47,86.2629 428.428,86.2654 430.386,86.2679 432.343,86.2704 434.301,86.2729 436.259,86.2755 438.216,86.2782 440.174,86.2809 442.132,86.2836 444.089,86.2863 446.047,86.2891 448.005,86.2919 449.962,86.2948 451.92,86.2977 453.878,86.3007 455.835,86.3037 457.793,86.3067 459.751,86.3098 461.708,86.3129 463.666,86.3161 465.624,86.3193 467.581,86.3225 469.539,86.3258 471.497,86.3292 473.454,86.3325 475.412,86.336 477.37,86.3394 479.327,86.343 481.285,86.3465 483.243,86.3501 485.2,86.3538 487.158,86.3575 489.116,86.3612 491.073,86.365 493.031,86.3689 494.989,86.3728 496.946,86.3767 498.904,86.3807 500.862,86.3848 502.819,86.3889 504.777,86.3931 506.735,86.3973 508.692,86.4015 510.65,86.4058 512.608,86.4102 514.565,86.4146 516.523,86.4191 518.481,86.4237 520.438,86.4283 522.396,86.4329 524.354,86.4376 526.311,86.4424 528.269,86.4472 530.227,86.4521 532.184,86.457 534.142,86.462 536.1,86.4671 538.057,86.4722 540.015,86.4774 541.973,86.4826 543.93,86.488 545.888,86.4933 547.846,86.4988 549.803,86.5043 551.761,86.5099 553.719,86.5155 555.676,86.5212 557.634,86.527 559.592,86.5329 561.549,86.5388 563.507,86.5448 565.465,86.5508 567.422,86.557 569.38,86.5632 571.338,86.5694 573.295,86.5758 575.253,86.5822 577.211,86.5887 579.168,86.5953 581.126,86.602 583.084,86.6087 585.041,86.6155 586.999,86.6224 588.957,86.6294 590.914,86.6365 592.872,86.6436 594.83,86.6509 596.787,86.6582 598.745,86.6656 600.703,86.6731 602.66,86.6807 604.618,86.6883 606.576,86.6961 608.533,86.7039 610.491,86.7119 612.449,86.7199 614.406,86.728 616.364,86.7363 618.322,86.7446 620.279,86.753 622.237,86.7615 624.195,86.7701 626.152,86.7788 628.11,86.7877 630.068,86.7966 632.025,86.8056 633.983,86.8147 635.941,86.824 637.898,86.8333 639.856,86.8428 641.814,86.8523 643.771,86.862 645.729,86.8718 647.687,86.8817 649.644,86.8918 651.602,86.9019 653.56,86.9122 655.517,86.9225 657.475,86.9331 659.433,86.9437 661.39,86.9544 663.348,86.9653 665.306,86.9763 667.263,86.9875 669.221,86.9987 671.179,87.0101 673.136,87.0217 675.094,87.0333 677.052,87.0452 679.009,87.0571 680.967,87.0692 682.925,87.0814 684.882,87.0938 686.84,87.1064 688.798,87.119 690.755,87.1319 692.713,87.1448 694.671,87.158 696.628,87.1713 698.586,87.1847 700.544,87.1983 702.501,87.2121 704.459,87.2261 706.417,87.2402 708.374,87.2545 710.332,87.2689 712.29,87.2835 714.247,87.2983 716.205,87.3133 718.163,87.3285 720.12,87.3438 722.078,87.3594 724.036,87.3751 725.993,87.391 727.951,87.4071 729.909,87.4234 731.866,87.4399 733.824,87.4566 735.782,87.4735 737.739,87.4907 739.697,87.508 741.655,87.5255 743.612,87.5433 745.57,87.5613 747.528,87.5795 749.485,87.5979 751.443,87.6166 753.401,87.6355 755.358,87.6546 757.316,87.6739 759.274,87.6935 761.231,87.7134 763.189,87.7335 765.147,87.7539 767.104,87.7745 769.062,87.7954 771.02,87.8165 772.977,87.8379 774.935,87.8596 776.893,87.8815 778.85,87.9038 780.808,87.9263 782.766,87.9491 784.723,87.9722 786.681,87.9956 788.639,88.0193 790.596,88.0433 792.554,88.0677 794.512,88.0923 796.469,88.1173 798.427,88.1426 800.385,88.1682 802.342,88.1941 804.3,88.2204 806.258,88.2471 808.215,88.2741 810.173,88.3015 812.131,88.3292 814.088,88.3573 816.046,88.3858 818.004,88.4146 819.961,88.4438 821.919,88.4735 823.877,88.5035 825.834,88.534 827.792,88.5648 829.75,88.5961 831.707,88.6278 833.665,88.6599 835.623,88.6925 837.58,88.7256 839.538,88.7591 841.496,88.793 843.453,88.8274 845.411,88.8623 847.369,88.8977 849.326,88.9336 851.284,88.97 853.242,89.007 855.199,89.0444 857.157,89.0824 859.115,89.1209 861.072,89.1599 863.03,89.1996 864.988,89.2398 866.945,89.2806 868.903,89.3219 870.861,89.3639 872.818,89.4065 874.776,89.4497 876.734,89.4935 878.691,89.538 880.649,89.5832 882.607,89.629 884.564,89.6755 886.522,89.7227 888.48,89.7706 890.437,89.8192 892.395,89.8686 894.353,89.9187 896.31,89.9696 898.268,90.0213 900.226,90.0737 902.183,90.127 904.141,90.1811 906.099,90.236 908.056,90.2918 910.014,90.3484 911.972,90.406 913.929,90.4644 915.887,90.5238 917.845,90.5841 919.802,90.6454 921.76,90.7077 923.718,90.771 925.675,90.8353 927.633,90.9006 929.591,90.967 931.548,91.0345 933.506,91.1031 935.464,91.1728 937.421,91.2437 939.379,91.3158 941.337,91.3891 943.294,91.4636 945.252,91.5394 947.21,91.6164 949.167,91.6948 951.125,91.7745 953.083,91.8556 955.04,91.938 956.998,92.0219 958.956,92.1073 960.913,92.1942 962.871,92.2826 964.829,92.3725 966.786,92.4641 968.744,92.5573 970.702,92.6521 972.659,92.7487 974.617,92.847 976.575,92.9471 978.532,93.0491 980.49,93.1529 982.448,93.2586 984.405,93.3663 986.363,93.4761 988.321,93.5878 990.278,93.7017 992.236,93.8178 994.194,93.936 996.151,94.0566 998.109,94.1794 1000.07,94.3047 1002.02,94.4323 1003.98,94.5625 1005.94,94.6953 1007.9,94.8307 1009.86,94.9688 1011.81,95.1096 1013.77,95.2533 1015.73,95.3999 1017.69,95.5495 1019.64,95.7022 1021.6,95.858 1023.56,96.0171 1025.52,96.1795 1027.47,96.3453 1029.43,96.5146 1031.39,96.6875 1033.35,96.8641 1035.3,97.0445 1037.26,97.2289 1039.22,97.4172 1041.18,97.6097 1043.14,97.8065 1045.09,98.0076 1047.05,98.2132 1049.01,98.4235 1050.97,98.6385 1052.92,98.8585 1054.88,99.0835 1056.84,99.3137 1058.8,99.5493 1060.75,99.7904 1062.71,100.037 1064.67,100.29 1066.63,100.549 1068.59,100.814 1070.54,101.085 1072.5,101.363 1074.46,101.648 1076.42,101.94 1078.37,102.24 1080.33,102.547 1082.29,102.861 1084.25,103.184 1086.2,103.515 1088.16,103.855 1090.12,104.204 1092.08,104.561 1094.03,104.929 1095.99,105.306 1097.95,105.694 1099.91,106.092 1101.87,106.501 1103.82,106.921 1105.78,107.353 1107.74,107.797 1109.7,108.254 1111.65,108.725 1113.61,109.208 1115.57,109.706 1117.53,110.219 1119.48,110.746 1121.44,111.29 1123.4,111.85 1125.36,112.427 1127.32,113.022 1129.27,113.636 1131.23,114.269 1133.19,114.922 1135.15,115.596 1137.1,116.291 1139.06,117.01 1141.02,117.752 1142.98,118.519 1144.93,119.312 1146.89,120.131 1148.85,120.979 1150.81,121.857 1152.76,122.765 1154.72,123.705 1156.68,124.679 1158.64,125.689 1160.6,126.735 1162.55,127.82 1164.51,128.946 1166.47,130.115 1168.43,131.329 1170.38,132.589 1172.34,133.899 1174.3,135.261 1176.26,136.678 1178.21,138.153 1180.17,139.688 1182.13,141.288 1184.09,142.955 1186.05,144.693 1188,146.507 1189.96,148.4 1191.92,150.377 1193.88,152.444 1195.83,154.604 1197.79,156.865 1199.75,159.232 1201.71,161.712 1203.66,164.311 1205.62,167.038 1207.58,169.899 1209.54,172.905 1211.49,176.065 1213.45,179.388 1215.41,182.886 1217.37,186.571 1219.33,190.456 1221.28,194.554 1223.24,198.882 1225.2,203.456 1227.16,208.293 1229.11,213.414 1231.07,218.841 1233.03,224.595 1234.99,230.703 1236.94,237.193 1238.9,244.095 1240.86,251.442 1242.82,259.272 1244.78,267.623 1246.73,276.54 1248.69,286.071 1250.65,296.268 1252.61,307.189 1254.56,318.897 1256.52,331.463 1258.48,344.961 1260.44,359.475 1262.39,375.095 1264.35,391.921 1266.31,410.06 1268.27,429.626 1270.22,450.746 1272.18,473.552 1274.14,498.183 1276.1,524.787 1278.06,553.513 1280.01,584.511 1281.97,617.926 1283.93,653.89 1285.89,692.511 1287.84,733.864 1289.8,777.97 1291.76,824.777 1293.72,874.133 1295.67,925.763 1297.63,979.229 1299.59,1033.91 1301.55,1088.97 1303.51,1143.35 1305.46,1195.76 1307.42,1244.74 1309.38,1288.69 1311.34,1326 1313.29,1355.14 1315.25,1374.85 1317.21,1384.24 1319.17,1382.88 1321.12,1370.9 1323.08,1348.9 1325.04,1317.94 1327,1279.41 1328.95,1234.86 1330.91,1185.88 1332.87,1134.01 1334.83,1080.62 1336.79,1026.89 1338.74,973.779 1340.7,922.022 1342.66,872.161 1344.62,824.566 1346.57,779.466 1348.53,736.976 1350.49,697.126 1352.45,659.881 1354.4,625.164 1356.36,592.864 1358.32,562.854 1360.28,534.996 1362.24,509.149 1364.19,485.17 1366.15,462.923 1368.11,442.276 1370.07,423.106 1372.02,405.296 1373.98,388.738 1375.94,373.331 1377.9,358.983 1379.85,345.609 1381.81,333.13 1383.77,321.477 1385.73,310.582 1387.68,300.387 1389.64,290.837 1391.6,281.882 1393.56,273.477 1395.52,265.58 1397.47,258.153 1399.43,251.161 1401.39,244.572 1403.35,238.358 1405.3,232.491 1407.26,226.948 1409.22,221.706 1411.18,216.743 1413.13,212.042 1415.09,207.584 1417.05,203.354 1419.01,199.336 1420.97,195.518 1422.92,191.886 1424.88,188.43 1426.84,185.137 1428.8,181.998 1430.75,179.004 1432.71,176.146 1434.67,173.416 1436.63,170.807 1438.58,168.312 1440.54,165.924 1442.5,163.637 1444.46,161.447 1446.41,159.347 1448.37,157.332 1450.33,155.399 1452.29,153.543 1454.25,151.76 1456.2,150.046 1458.16,148.398 1460.12,146.812 1462.08,145.285 1464.03,143.815 1465.99,142.398 1467.95,141.033 1469.91,139.716 1471.86,138.446 1473.82,137.219 1475.78,136.036 1477.74,134.892 1479.7,133.787 1481.65,132.719 1483.61,131.686 1485.57,130.687 1487.53,129.72 1489.48,128.784 1491.44,127.877 1493.4,126.999 1495.36,126.147 1497.31,125.322 1499.27,124.522 1501.23,123.746 1503.19,122.993 1505.14,122.262 1507.1,121.552 1509.06,120.863 1511.02,120.194 1512.98,119.543 1514.93,118.911 1516.89,118.296 1518.85,117.698 1520.81,117.116 1522.76,116.55 1524.72,115.999 1526.68,115.463 1528.64,114.941 1530.59,114.432 1532.55,113.937 1534.51,113.454 1536.47,112.983 1538.43,112.525 1540.38,112.077 1542.34,111.641 1544.3,111.215 1546.26,110.8 1548.21,110.395 1550.17,109.999 1552.13,109.613 1554.09,109.236 1556.04,108.867 1558,108.507 1559.96,108.156 1561.92,107.812 1563.87,107.476 1565.83,107.148 1567.79,106.827 1569.75,106.513 1571.71,106.206 1573.66,105.905 1575.62,105.611 1577.58,105.324 1579.54,105.042 1581.49,104.766 1583.45,104.497 1585.41,104.232 1587.37,103.973 1589.32,103.72 1591.28,103.472 1593.24,103.228 1595.2,102.99 1597.16,102.756 1599.11,102.527 1601.07,102.302 1603.03,102.082 1604.99,101.866 1606.94,101.654 1608.9,101.446 1610.86,101.242 1612.82,101.042 1614.77,100.846 1616.73,100.653 1618.69,100.464 1620.65,100.278 1622.6,100.096 1624.56,99.9168 1626.52,99.741 1628.48,99.5684 1630.44,99.3988 1632.39,99.2322 1634.35,99.0685 1636.31,98.9077 1638.27,98.7496 1640.22,98.5943 1642.18,98.4416 1644.14,98.2915 1646.1,98.1439 1648.05,97.9989 1650.01,97.8562 1651.97,97.7159 1653.93,97.5779 1655.89,97.4421 1657.84,97.3086 1659.8,97.1772 1661.76,97.048 1663.72,96.9208 1665.67,96.7956 1667.63,96.6724 1669.59,96.5512 1671.55,96.4318 1673.5,96.3143 1675.46,96.1986 1677.42,96.0846 1679.38,95.9725 1681.33,95.862 1683.29,95.7532 1685.25,95.646 1687.21,95.5404 1689.17,95.4364 1691.12,95.3339 1693.08,95.2329 1695.04,95.1334 1697,95.0353 1698.95,94.9387 1700.91,94.8434 1702.87,94.7495 1704.83,94.657 1706.78,94.5657 1708.74,94.4758 1710.7,94.3871 1712.66,94.2996 1714.62,94.2133 1716.57,94.1282 1718.53,94.0443 1720.49,93.9616 1722.45,93.8799 1724.4,93.7994 1726.36,93.7199 1728.32,93.6415 1730.28,93.5641 1732.23,93.4878 1734.19,93.4125 1736.15,93.3381 1738.11,93.2647 1740.06,93.1923 1742.02,93.1208 1743.98,93.0502 1745.94,92.9805 1747.9,92.9117 1749.85,92.8438 1751.81,92.7768 1753.77,92.7105 1755.73,92.6451 1757.68,92.5805 1759.64,92.5167 1761.6,92.4537 1763.56,92.3915 1765.51,92.33 1767.47,92.2692 1769.43,92.2092 1771.39,92.1499 1773.35,92.0914 1775.3,92.0335 1777.26,91.9763 1779.22,91.9198 1781.18,91.8639 1783.13,91.8087 1785.09,91.7541 1787.05,91.7002 1789.01,91.6469 1790.96,91.5941 1792.92,91.542 1794.88,91.4905 1796.84,91.4396 1798.79,91.3892 1800.75,91.3394 1802.71,91.2902 1804.67,91.2415 1806.63,91.1934 1808.58,91.1457 1810.54,91.0986 1812.5,91.052 1814.46,91.006 1816.41,90.9604 1818.37,90.9153 1820.33,90.8707 1822.29,90.8265 1824.24,90.7829 1826.2,90.7397 1828.16,90.6969 1830.12,90.6546 1832.08,90.6128 1834.03,90.5714 1835.99,90.5304 1837.95,90.4898 1839.91,90.4497 1841.86,90.4099 1843.82,90.3706 1845.78,90.3317 1847.74,90.2931 1849.69,90.255 1851.65,90.2172 1853.61,90.1798 1855.57,90.1428 1857.52,90.1062 1859.48,90.0699 1861.44,90.0339 1863.4,89.9983 1865.36,89.9631 1867.31,89.9282 1869.27,89.8937 1871.23,89.8594 1873.19,89.8255 1875.14,89.792 1877.1,89.7587 1879.06,89.7258 1881.02,89.6932 1882.97,89.6608 1884.93,89.6288 1886.89,89.5971 1888.85,89.5657 1890.81,89.5346 1892.76,89.5037 1894.72,89.4732 1896.68,89.4429 1898.64,89.4129 1900.59,89.3831 1902.55,89.3537 1904.51,89.3245 1906.47,89.2955 1908.42,89.2669 1910.38,89.2385 1912.34,89.2103 1914.3,89.1824 1916.25,89.1547 1918.21,89.1273 1920.17,89.1001 1922.13,89.0731 1924.09,89.0464 1926.04,89.0199 1928,88.9937 1929.96,88.9676 1931.92,88.9418 1933.87,88.9162 1935.83,88.8908 1937.79,88.8657 1939.75,88.8407 1941.7,88.816 1943.66,88.7915 1945.62,88.7671 1947.58,88.743 1949.54,88.7191 1951.49,88.6954 1953.45,88.6718 1955.41,88.6485 1957.37,88.6253 1959.32,88.6024 1961.28,88.5796 1963.24,88.557 1965.2,88.5346 1967.15,88.5124 1969.11,88.4903 1971.07,88.4684 1973.03,88.4467 1974.98,88.4252 1976.94,88.4038 1978.9,88.3827 1980.86,88.3616 1982.82,88.3408 1984.77,88.3201 1986.73,88.2995 1988.69,88.2791 1990.65,88.2589 1992.6,88.2388 1994.56,88.2189 1996.52,88.1991 1998.48,88.1795 2000.43,88.16 2002.39,88.1407 2004.35,88.1215 2006.31,88.1025 2008.27,88.0836 2010.22,88.0649 2012.18,88.0463 2014.14,88.0278 2016.1,88.0094 2018.05,87.9912 2020.01,87.9732 2021.97,87.9552 2023.93,87.9374 2025.88,87.9197 2027.84,87.9022 2029.8,87.8847 2031.76,87.8674 2033.71,87.8502 2035.67,87.8332 2037.63,87.8162 2039.59,87.7994 2041.55,87.7827 2043.5,87.7661 2045.46,87.7497 2047.42,87.7333 2049.38,87.7171 2051.33,87.701 2053.29,87.6849 2055.25,87.669 2057.21,87.6532 2059.16,87.6376 2061.12,87.622 2063.08,87.6065 2065.04,87.5911 2067,87.5759 2068.95,87.5607 2070.91,87.5456 2072.87,87.5307 2074.83,87.5158 2076.78,87.5011 2078.74,87.4864 2080.7,87.4718 2082.66,87.4574 2084.61,87.443 2086.57,87.4287 2088.53,87.4145 2090.49,87.4004 2092.44,87.3864 2094.4,87.3725 2096.36,87.3587 2098.32,87.3449 2100.28,87.3313 2102.23,87.3177 2104.19,87.3042 2106.15,87.2908 2108.11,87.2775 2110.06,87.2643 2112.02,87.2512 2113.98,87.2381 2115.94,87.2251 2117.89,87.2122 2119.85,87.1994 2121.81,87.1867 2123.77,87.174 2125.73,87.1615 2127.68,87.149 2129.64,87.1365 2131.6,87.1242 2133.56,87.1119 2135.51,87.0997 2137.47,87.0876 2139.43,87.0755 2141.39,87.0635 2143.34,87.0516 2145.3,87.0398 2147.26,87.028 2149.22,87.0163 2151.17,87.0047 2153.13,86.9931 2155.09,86.9816 2157.05,86.9702 2159.01,86.9588 2160.96,86.9476 2162.92,86.9363 2164.88,86.9252 2166.84,86.9141 2168.79,86.903 2170.75,86.8921 2172.71,86.8812 2174.67,86.8703 2176.62,86.8595 2178.58,86.8488 2180.54,86.8381 2182.5,86.8275 2184.46,86.817 2186.41,86.8065 2188.37,86.7961 2190.33,86.7857 2192.29,86.7754 2194.24,86.7651 2196.2,86.755 2198.16,86.7448 2200.12,86.7347 2202.07,86.7247 2204.03,86.7147 2205.99,86.7048 2207.95,86.6949 2209.9,86.6851 2211.86,86.6754 2213.82,86.6657 2215.78,86.656 2217.74,86.6464 2219.69,86.6368 2221.65,86.6273 2223.61,86.6179 2225.57,86.6085 2227.52,86.5991 2229.48,86.5898 2231.44,86.5806 2233.4,86.5714 2235.35,86.5622 2237.31,86.5531 2239.27,86.5441 2241.23,86.535 2243.19,86.5261 2245.14,86.5172 2247.1,86.5083 2249.06,86.4994 2251.02,86.4907 2252.97,86.4819 2254.93,86.4732 2256.89,86.4646 2258.85,86.456 2260.8,86.4474 2262.76,86.4389 2264.72,86.4304 2266.68,86.422 2268.63,86.4136 2270.59,86.4052 2272.55,86.3969 2274.51,86.3886 2276.47,86.3804 2278.42,86.3722 2280.38,86.364 2282.34,86.3559 2284.3,86.3479 2286.25,86.3398 2288.21,86.3318 2290.17,86.3239 2292.13,86.316 2294.08,86.3081 "/>
<polyline clip-path="url(#clip072)" style="stroke:#ff0000; stroke-linecap:round; stroke-linejoin:round; stroke-width:4; stroke-opacity:1; fill:none" points="1306.45,2799.12 1306.45,-1328.69 "/>
<polyline clip-path="url(#clip072)" style="stroke:#ff0000; stroke-linecap:round; stroke-linejoin:round; stroke-width:4; stroke-opacity:1; fill:none" points="1326.01,2799.12 1326.01,-1328.69 "/>
</svg>
