<?xml version="1.0" encoding="utf-8"?>
<svg xmlns="http://www.w3.org/2000/svg" xmlns:xlink="http://www.w3.org/1999/xlink" width="600" height="400" viewBox="0 0 2400 1600">
<defs>
  <clipPath id="clip460">
    <rect x="0" y="0" width="2400" height="1600"/>
  </clipPath>
</defs>
<path clip-path="url(#clip460)" d="M0 1600 L2400 1600 L2400 0 L0 0  Z" fill="#ffffff" fill-rule="evenodd" fill-opacity="1"/>
<defs>
  <clipPath id="clip461">
    <rect x="480" y="0" width="1681" height="1600"/>
  </clipPath>
</defs>
<path clip-path="url(#clip460)" d="M310.352 1423.18 L2352.76 1423.18 L2352.76 123.472 L310.352 123.472  Z" fill="#ffffff" fill-rule="evenodd" fill-opacity="1"/>
<defs>
  <clipPath id="clip462">
    <rect x="310" y="123" width="2043" height="1301"/>
  </clipPath>
</defs>
<polyline clip-path="url(#clip462)" style="stroke:#000000; stroke-linecap:round; stroke-linejoin:round; stroke-width:2; stroke-opacity:0.1; fill:none" points="609.005,1423.18 609.005,123.472 "/>
<polyline clip-path="url(#clip462)" style="stroke:#000000; stroke-linecap:round; stroke-linejoin:round; stroke-width:2; stroke-opacity:0.1; fill:none" points="1090.7,1423.18 1090.7,123.472 "/>
<polyline clip-path="url(#clip462)" style="stroke:#000000; stroke-linecap:round; stroke-linejoin:round; stroke-width:2; stroke-opacity:0.1; fill:none" points="1572.4,1423.18 1572.4,123.472 "/>
<polyline clip-path="url(#clip462)" style="stroke:#000000; stroke-linecap:round; stroke-linejoin:round; stroke-width:2; stroke-opacity:0.1; fill:none" points="2054.1,1423.18 2054.1,123.472 "/>
<polyline clip-path="url(#clip462)" style="stroke:#000000; stroke-linecap:round; stroke-linejoin:round; stroke-width:2; stroke-opacity:0.1; fill:none" points="310.352,1229.77 2352.76,1229.77 "/>
<polyline clip-path="url(#clip462)" style="stroke:#000000; stroke-linecap:round; stroke-linejoin:round; stroke-width:2; stroke-opacity:0.1; fill:none" points="310.352,1000.15 2352.76,1000.15 "/>
<polyline clip-path="url(#clip462)" style="stroke:#000000; stroke-linecap:round; stroke-linejoin:round; stroke-width:2; stroke-opacity:0.1; fill:none" points="310.352,770.536 2352.76,770.536 "/>
<polyline clip-path="url(#clip462)" style="stroke:#000000; stroke-linecap:round; stroke-linejoin:round; stroke-width:2; stroke-opacity:0.1; fill:none" points="310.352,540.92 2352.76,540.92 "/>
<polyline clip-path="url(#clip462)" style="stroke:#000000; stroke-linecap:round; stroke-linejoin:round; stroke-width:2; stroke-opacity:0.1; fill:none" points="310.352,311.305 2352.76,311.305 "/>
<polyline clip-path="url(#clip460)" style="stroke:#000000; stroke-linecap:round; stroke-linejoin:round; stroke-width:4; stroke-opacity:1; fill:none" points="310.352,1423.18 2352.76,1423.18 "/>
<polyline clip-path="url(#clip460)" style="stroke:#000000; stroke-linecap:round; stroke-linejoin:round; stroke-width:4; stroke-opacity:1; fill:none" points="609.005,1423.18 609.005,1404.28 "/>
<polyline clip-path="url(#clip460)" style="stroke:#000000; stroke-linecap:round; stroke-linejoin:round; stroke-width:4; stroke-opacity:1; fill:none" points="1090.7,1423.18 1090.7,1404.28 "/>
<polyline clip-path="url(#clip460)" style="stroke:#000000; stroke-linecap:round; stroke-linejoin:round; stroke-width:4; stroke-opacity:1; fill:none" points="1572.4,1423.18 1572.4,1404.28 "/>
<polyline clip-path="url(#clip460)" style="stroke:#000000; stroke-linecap:round; stroke-linejoin:round; stroke-width:4; stroke-opacity:1; fill:none" points="2054.1,1423.18 2054.1,1404.28 "/>
<path clip-path="url(#clip460)" d="M603.658 1481.64 L619.977 1481.64 L619.977 1485.58 L598.033 1485.58 L598.033 1481.64 Q600.695 1478.89 605.278 1474.26 Q609.885 1469.61 611.065 1468.27 Q613.311 1465.74 614.19 1464.01 Q615.093 1462.25 615.093 1460.56 Q615.093 1457.8 613.149 1456.07 Q611.228 1454.33 608.126 1454.33 Q605.927 1454.33 603.473 1455.09 Q601.042 1455.86 598.265 1457.41 L598.265 1452.69 Q601.089 1451.55 603.542 1450.97 Q605.996 1450.39 608.033 1450.39 Q613.403 1450.39 616.598 1453.08 Q619.792 1455.77 619.792 1460.26 Q619.792 1462.39 618.982 1464.31 Q618.195 1466.2 616.089 1468.8 Q615.51 1469.47 612.408 1472.69 Q609.306 1475.88 603.658 1481.64 Z" fill="#000000" fill-rule="nonzero" fill-opacity="1" /><path clip-path="url(#clip460)" d="M1093.71 1455.09 L1081.91 1473.54 L1093.71 1473.54 L1093.71 1455.09 M1092.49 1451.02 L1098.37 1451.02 L1098.37 1473.54 L1103.3 1473.54 L1103.3 1477.43 L1098.37 1477.43 L1098.37 1485.58 L1093.71 1485.58 L1093.71 1477.43 L1078.11 1477.43 L1078.11 1472.92 L1092.49 1451.02 Z" fill="#000000" fill-rule="nonzero" fill-opacity="1" /><path clip-path="url(#clip460)" d="M1572.81 1466.44 Q1569.66 1466.44 1567.81 1468.59 Q1565.98 1470.74 1565.98 1474.49 Q1565.98 1478.22 1567.81 1480.39 Q1569.66 1482.55 1572.81 1482.55 Q1575.96 1482.55 1577.79 1480.39 Q1579.64 1478.22 1579.64 1474.49 Q1579.64 1470.74 1577.79 1468.59 Q1575.96 1466.44 1572.81 1466.44 M1582.09 1451.78 L1582.09 1456.04 Q1580.33 1455.21 1578.53 1454.77 Q1576.74 1454.33 1574.98 1454.33 Q1570.35 1454.33 1567.9 1457.45 Q1565.47 1460.58 1565.12 1466.9 Q1566.49 1464.89 1568.55 1463.82 Q1570.61 1462.73 1573.09 1462.73 Q1578.29 1462.73 1581.3 1465.9 Q1584.34 1469.05 1584.34 1474.49 Q1584.34 1479.82 1581.19 1483.03 Q1578.04 1486.25 1572.81 1486.25 Q1566.81 1486.25 1563.64 1481.67 Q1560.47 1477.06 1560.47 1468.33 Q1560.47 1460.14 1564.36 1455.28 Q1568.25 1450.39 1574.8 1450.39 Q1576.56 1450.39 1578.34 1450.74 Q1580.15 1451.09 1582.09 1451.78 Z" fill="#000000" fill-rule="nonzero" fill-opacity="1" /><path clip-path="url(#clip460)" d="M2054.1 1469.17 Q2050.77 1469.17 2048.85 1470.95 Q2046.95 1472.73 2046.95 1475.86 Q2046.95 1478.98 2048.85 1480.77 Q2050.77 1482.55 2054.1 1482.55 Q2057.44 1482.55 2059.36 1480.77 Q2061.28 1478.96 2061.28 1475.86 Q2061.28 1472.73 2059.36 1470.95 Q2057.46 1469.17 2054.1 1469.17 M2049.43 1467.18 Q2046.42 1466.44 2044.73 1464.38 Q2043.06 1462.32 2043.06 1459.35 Q2043.06 1455.21 2046 1452.8 Q2048.96 1450.39 2054.1 1450.39 Q2059.26 1450.39 2062.2 1452.8 Q2065.14 1455.21 2065.14 1459.35 Q2065.14 1462.32 2063.45 1464.38 Q2061.79 1466.44 2058.8 1467.18 Q2062.18 1467.96 2064.06 1470.26 Q2065.95 1472.55 2065.95 1475.86 Q2065.95 1480.88 2062.88 1483.57 Q2059.82 1486.25 2054.1 1486.25 Q2048.38 1486.25 2045.31 1483.57 Q2042.25 1480.88 2042.25 1475.86 Q2042.25 1472.55 2044.15 1470.26 Q2046.05 1467.96 2049.43 1467.18 M2047.71 1459.79 Q2047.71 1462.48 2049.38 1463.98 Q2051.07 1465.49 2054.1 1465.49 Q2057.11 1465.49 2058.8 1463.98 Q2060.51 1462.48 2060.51 1459.79 Q2060.51 1457.11 2058.8 1455.6 Q2057.11 1454.1 2054.1 1454.1 Q2051.07 1454.1 2049.38 1455.6 Q2047.71 1457.11 2047.71 1459.79 Z" fill="#000000" fill-rule="nonzero" fill-opacity="1" /><path clip-path="url(#clip460)" d="M1271.27 1525.81 L1271.27 1562.76 L1279.04 1562.76 Q1288.87 1562.76 1293.42 1558.3 Q1298.01 1553.85 1298.01 1544.24 Q1298.01 1534.69 1293.42 1530.26 Q1288.87 1525.81 1279.04 1525.81 L1271.27 1525.81 M1264.84 1520.52 L1278.05 1520.52 Q1291.86 1520.52 1298.32 1526.28 Q1304.79 1532.01 1304.79 1544.24 Q1304.79 1556.52 1298.29 1562.28 Q1291.8 1568.04 1278.05 1568.04 L1264.84 1568.04 L1264.84 1520.52 Z" fill="#000000" fill-rule="nonzero" fill-opacity="1" /><path clip-path="url(#clip460)" d="M1314.78 1532.4 L1320.64 1532.4 L1320.64 1568.04 L1314.78 1568.04 L1314.78 1532.4 M1314.78 1518.52 L1320.64 1518.52 L1320.64 1525.93 L1314.78 1525.93 L1314.78 1518.52 Z" fill="#000000" fill-rule="nonzero" fill-opacity="1" /><path clip-path="url(#clip460)" d="M1355.62 1533.45 L1355.62 1538.98 Q1353.13 1537.71 1350.46 1537.07 Q1347.79 1536.44 1344.92 1536.44 Q1340.56 1536.44 1338.37 1537.77 Q1336.2 1539.11 1336.2 1541.79 Q1336.2 1543.82 1337.76 1545 Q1339.32 1546.15 1344.03 1547.2 L1346.04 1547.64 Q1352.27 1548.98 1354.88 1551.43 Q1357.53 1553.85 1357.53 1558.21 Q1357.53 1563.17 1353.58 1566.07 Q1349.66 1568.97 1342.79 1568.97 Q1339.92 1568.97 1336.81 1568.39 Q1333.72 1567.85 1330.28 1566.74 L1330.28 1560.69 Q1333.53 1562.38 1336.68 1563.24 Q1339.83 1564.07 1342.92 1564.07 Q1347.05 1564.07 1349.28 1562.66 Q1351.51 1561.23 1351.51 1558.65 Q1351.51 1556.27 1349.89 1554.99 Q1348.3 1553.72 1342.85 1552.54 L1340.82 1552.07 Q1335.37 1550.92 1332.95 1548.56 Q1330.54 1546.18 1330.54 1542.04 Q1330.54 1537.01 1334.1 1534.27 Q1337.66 1531.54 1344.22 1531.54 Q1347.47 1531.54 1350.33 1532.01 Q1353.2 1532.49 1355.62 1533.45 Z" fill="#000000" fill-rule="nonzero" fill-opacity="1" /><path clip-path="url(#clip460)" d="M1366.63 1518.52 L1372.52 1518.52 L1372.52 1547.77 L1389.99 1532.4 L1397.47 1532.4 L1378.56 1549.07 L1398.27 1568.04 L1390.63 1568.04 L1372.52 1550.63 L1372.52 1568.04 L1366.63 1568.04 L1366.63 1518.52 Z" fill="#000000" fill-rule="nonzero" fill-opacity="1" /><polyline clip-path="url(#clip460)" style="stroke:#000000; stroke-linecap:round; stroke-linejoin:round; stroke-width:4; stroke-opacity:1; fill:none" points="310.352,1423.18 310.352,123.472 "/>
<polyline clip-path="url(#clip460)" style="stroke:#000000; stroke-linecap:round; stroke-linejoin:round; stroke-width:4; stroke-opacity:1; fill:none" points="310.352,1229.77 329.25,1229.77 "/>
<polyline clip-path="url(#clip460)" style="stroke:#000000; stroke-linecap:round; stroke-linejoin:round; stroke-width:4; stroke-opacity:1; fill:none" points="310.352,1000.15 329.25,1000.15 "/>
<polyline clip-path="url(#clip460)" style="stroke:#000000; stroke-linecap:round; stroke-linejoin:round; stroke-width:4; stroke-opacity:1; fill:none" points="310.352,770.536 329.25,770.536 "/>
<polyline clip-path="url(#clip460)" style="stroke:#000000; stroke-linecap:round; stroke-linejoin:round; stroke-width:4; stroke-opacity:1; fill:none" points="310.352,540.92 329.25,540.92 "/>
<polyline clip-path="url(#clip460)" style="stroke:#000000; stroke-linecap:round; stroke-linejoin:round; stroke-width:4; stroke-opacity:1; fill:none" points="310.352,311.305 329.25,311.305 "/>
<path clip-path="url(#clip460)" d="M126.529 1215.57 Q122.918 1215.57 121.089 1219.13 Q119.283 1222.67 119.283 1229.8 Q119.283 1236.91 121.089 1240.47 Q122.918 1244.01 126.529 1244.01 Q130.163 1244.01 131.968 1240.47 Q133.797 1236.91 133.797 1229.8 Q133.797 1222.67 131.968 1219.13 Q130.163 1215.57 126.529 1215.57 M126.529 1211.86 Q132.339 1211.86 135.394 1216.47 Q138.473 1221.05 138.473 1229.8 Q138.473 1238.53 135.394 1243.13 Q132.339 1247.72 126.529 1247.72 Q120.718 1247.72 117.64 1243.13 Q114.584 1238.53 114.584 1229.8 Q114.584 1221.05 117.64 1216.47 Q120.718 1211.86 126.529 1211.86 Z" fill="#000000" fill-rule="nonzero" fill-opacity="1" /><path clip-path="url(#clip460)" d="M146.691 1241.17 L151.575 1241.17 L151.575 1247.05 L146.691 1247.05 L146.691 1241.17 Z" fill="#000000" fill-rule="nonzero" fill-opacity="1" /><path clip-path="url(#clip460)" d="M171.76 1215.57 Q168.149 1215.57 166.32 1219.13 Q164.515 1222.67 164.515 1229.8 Q164.515 1236.91 166.32 1240.47 Q168.149 1244.01 171.76 1244.01 Q175.394 1244.01 177.2 1240.47 Q179.028 1236.91 179.028 1229.8 Q179.028 1222.67 177.2 1219.13 Q175.394 1215.57 171.76 1215.57 M171.76 1211.86 Q177.57 1211.86 180.626 1216.47 Q183.704 1221.05 183.704 1229.8 Q183.704 1238.53 180.626 1243.13 Q177.57 1247.72 171.76 1247.72 Q165.95 1247.72 162.871 1243.13 Q159.815 1238.53 159.815 1229.8 Q159.815 1221.05 162.871 1216.47 Q165.95 1211.86 171.76 1211.86 Z" fill="#000000" fill-rule="nonzero" fill-opacity="1" /><path clip-path="url(#clip460)" d="M201.922 1215.57 Q198.311 1215.57 196.482 1219.13 Q194.676 1222.67 194.676 1229.8 Q194.676 1236.91 196.482 1240.47 Q198.311 1244.01 201.922 1244.01 Q205.556 1244.01 207.362 1240.47 Q209.19 1236.91 209.19 1229.8 Q209.19 1222.67 207.362 1219.13 Q205.556 1215.57 201.922 1215.57 M201.922 1211.86 Q207.732 1211.86 210.787 1216.47 Q213.866 1221.05 213.866 1229.8 Q213.866 1238.53 210.787 1243.13 Q207.732 1247.72 201.922 1247.72 Q196.112 1247.72 193.033 1243.13 Q189.977 1238.53 189.977 1229.8 Q189.977 1221.05 193.033 1216.47 Q196.112 1211.86 201.922 1211.86 Z" fill="#000000" fill-rule="nonzero" fill-opacity="1" /><path clip-path="url(#clip460)" d="M232.084 1230.64 Q228.75 1230.64 226.829 1232.42 Q224.931 1234.2 224.931 1237.32 Q224.931 1240.45 226.829 1242.23 Q228.75 1244.01 232.084 1244.01 Q235.417 1244.01 237.338 1242.23 Q239.259 1240.43 239.259 1237.32 Q239.259 1234.2 237.338 1232.42 Q235.44 1230.64 232.084 1230.64 M227.408 1228.64 Q224.398 1227.9 222.709 1225.84 Q221.042 1223.78 221.042 1220.82 Q221.042 1216.68 223.982 1214.27 Q226.945 1211.86 232.084 1211.86 Q237.246 1211.86 240.185 1214.27 Q243.125 1216.68 243.125 1220.82 Q243.125 1223.78 241.435 1225.84 Q239.769 1227.9 236.783 1228.64 Q240.162 1229.43 242.037 1231.72 Q243.935 1234.01 243.935 1237.32 Q243.935 1242.35 240.857 1245.03 Q237.801 1247.72 232.084 1247.72 Q226.366 1247.72 223.287 1245.03 Q220.232 1242.35 220.232 1237.32 Q220.232 1234.01 222.13 1231.72 Q224.028 1229.43 227.408 1228.64 M225.695 1221.26 Q225.695 1223.95 227.361 1225.45 Q229.051 1226.95 232.084 1226.95 Q235.093 1226.95 236.783 1225.45 Q238.496 1223.95 238.496 1221.26 Q238.496 1218.57 236.783 1217.07 Q235.093 1215.57 232.084 1215.57 Q229.051 1215.57 227.361 1217.07 Q225.695 1218.57 225.695 1221.26 Z" fill="#000000" fill-rule="nonzero" fill-opacity="1" /><path clip-path="url(#clip460)" d="M262.824 1227.9 Q259.676 1227.9 257.824 1230.06 Q255.996 1232.21 255.996 1235.96 Q255.996 1239.69 257.824 1241.86 Q259.676 1244.01 262.824 1244.01 Q265.972 1244.01 267.801 1241.86 Q269.653 1239.69 269.653 1235.96 Q269.653 1232.21 267.801 1230.06 Q265.972 1227.9 262.824 1227.9 M272.107 1213.25 L272.107 1217.51 Q270.347 1216.68 268.542 1216.24 Q266.759 1215.8 265 1215.8 Q260.37 1215.8 257.917 1218.92 Q255.486 1222.05 255.139 1228.37 Q256.505 1226.35 258.565 1225.29 Q260.625 1224.2 263.102 1224.2 Q268.31 1224.2 271.32 1227.37 Q274.352 1230.52 274.352 1235.96 Q274.352 1241.28 271.204 1244.5 Q268.056 1247.72 262.824 1247.72 Q256.829 1247.72 253.658 1243.13 Q250.486 1238.53 250.486 1229.8 Q250.486 1221.61 254.375 1216.75 Q258.264 1211.86 264.815 1211.86 Q266.574 1211.86 268.357 1212.21 Q270.162 1212.56 272.107 1213.25 Z" fill="#000000" fill-rule="nonzero" fill-opacity="1" /><path clip-path="url(#clip460)" d="M126.783 985.95 Q123.172 985.95 121.343 989.515 Q119.538 993.057 119.538 1000.19 Q119.538 1007.29 121.343 1010.86 Q123.172 1014.4 126.783 1014.4 Q130.417 1014.4 132.223 1010.86 Q134.052 1007.29 134.052 1000.19 Q134.052 993.057 132.223 989.515 Q130.417 985.95 126.783 985.95 M126.783 982.246 Q132.593 982.246 135.649 986.853 Q138.728 991.436 138.728 1000.19 Q138.728 1008.91 135.649 1013.52 Q132.593 1018.1 126.783 1018.1 Q120.973 1018.1 117.894 1013.52 Q114.839 1008.91 114.839 1000.19 Q114.839 991.436 117.894 986.853 Q120.973 982.246 126.783 982.246 Z" fill="#000000" fill-rule="nonzero" fill-opacity="1" /><path clip-path="url(#clip460)" d="M146.945 1011.55 L151.829 1011.55 L151.829 1017.43 L146.945 1017.43 L146.945 1011.55 Z" fill="#000000" fill-rule="nonzero" fill-opacity="1" /><path clip-path="url(#clip460)" d="M172.014 985.95 Q168.403 985.95 166.575 989.515 Q164.769 993.057 164.769 1000.19 Q164.769 1007.29 166.575 1010.86 Q168.403 1014.4 172.014 1014.4 Q175.649 1014.4 177.454 1010.86 Q179.283 1007.29 179.283 1000.19 Q179.283 993.057 177.454 989.515 Q175.649 985.95 172.014 985.95 M172.014 982.246 Q177.825 982.246 180.88 986.853 Q183.959 991.436 183.959 1000.19 Q183.959 1008.91 180.88 1013.52 Q177.825 1018.1 172.014 1018.1 Q166.204 1018.1 163.126 1013.52 Q160.07 1008.91 160.07 1000.19 Q160.07 991.436 163.126 986.853 Q166.204 982.246 172.014 982.246 Z" fill="#000000" fill-rule="nonzero" fill-opacity="1" /><path clip-path="url(#clip460)" d="M202.176 985.95 Q198.565 985.95 196.737 989.515 Q194.931 993.057 194.931 1000.19 Q194.931 1007.29 196.737 1010.86 Q198.565 1014.4 202.176 1014.4 Q205.811 1014.4 207.616 1010.86 Q209.445 1007.29 209.445 1000.19 Q209.445 993.057 207.616 989.515 Q205.811 985.95 202.176 985.95 M202.176 982.246 Q207.987 982.246 211.042 986.853 Q214.121 991.436 214.121 1000.19 Q214.121 1008.91 211.042 1013.52 Q207.987 1018.1 202.176 1018.1 Q196.366 1018.1 193.288 1013.52 Q190.232 1008.91 190.232 1000.19 Q190.232 991.436 193.288 986.853 Q196.366 982.246 202.176 982.246 Z" fill="#000000" fill-rule="nonzero" fill-opacity="1" /><path clip-path="url(#clip460)" d="M232.338 1001.02 Q229.005 1001.02 227.084 1002.8 Q225.185 1004.58 225.185 1007.71 Q225.185 1010.83 227.084 1012.62 Q229.005 1014.4 232.338 1014.4 Q235.672 1014.4 237.593 1012.62 Q239.514 1010.81 239.514 1007.71 Q239.514 1004.58 237.593 1002.8 Q235.695 1001.02 232.338 1001.02 M227.662 999.029 Q224.653 998.288 222.963 996.228 Q221.297 994.168 221.297 991.205 Q221.297 987.061 224.236 984.654 Q227.199 982.246 232.338 982.246 Q237.5 982.246 240.44 984.654 Q243.38 987.061 243.38 991.205 Q243.38 994.168 241.69 996.228 Q240.023 998.288 237.037 999.029 Q240.417 999.816 242.292 1002.11 Q244.19 1004.4 244.19 1007.71 Q244.19 1012.73 241.111 1015.42 Q238.056 1018.1 232.338 1018.1 Q226.621 1018.1 223.542 1015.42 Q220.486 1012.73 220.486 1007.71 Q220.486 1004.4 222.385 1002.11 Q224.283 999.816 227.662 999.029 M225.949 991.644 Q225.949 994.33 227.616 995.834 Q229.306 997.339 232.338 997.339 Q235.347 997.339 237.037 995.834 Q238.75 994.33 238.75 991.644 Q238.75 988.959 237.037 987.455 Q235.347 985.95 232.338 985.95 Q229.306 985.95 227.616 987.455 Q225.949 988.959 225.949 991.644 Z" fill="#000000" fill-rule="nonzero" fill-opacity="1" /><path clip-path="url(#clip460)" d="M262.5 1001.02 Q259.167 1001.02 257.246 1002.8 Q255.347 1004.58 255.347 1007.71 Q255.347 1010.83 257.246 1012.62 Q259.167 1014.4 262.5 1014.4 Q265.833 1014.4 267.755 1012.62 Q269.676 1010.81 269.676 1007.71 Q269.676 1004.58 267.755 1002.8 Q265.857 1001.02 262.5 1001.02 M257.824 999.029 Q254.815 998.288 253.125 996.228 Q251.458 994.168 251.458 991.205 Q251.458 987.061 254.398 984.654 Q257.361 982.246 262.5 982.246 Q267.662 982.246 270.602 984.654 Q273.542 987.061 273.542 991.205 Q273.542 994.168 271.852 996.228 Q270.185 998.288 267.199 999.029 Q270.579 999.816 272.454 1002.11 Q274.352 1004.4 274.352 1007.71 Q274.352 1012.73 271.273 1015.42 Q268.218 1018.1 262.5 1018.1 Q256.783 1018.1 253.704 1015.42 Q250.648 1012.73 250.648 1007.71 Q250.648 1004.4 252.546 1002.11 Q254.445 999.816 257.824 999.029 M256.111 991.644 Q256.111 994.33 257.778 995.834 Q259.468 997.339 262.5 997.339 Q265.509 997.339 267.199 995.834 Q268.912 994.33 268.912 991.644 Q268.912 988.959 267.199 987.455 Q265.509 985.95 262.5 985.95 Q259.468 985.95 257.778 987.455 Q256.111 988.959 256.111 991.644 Z" fill="#000000" fill-rule="nonzero" fill-opacity="1" /><path clip-path="url(#clip460)" d="M126.691 756.334 Q123.08 756.334 121.251 759.899 Q119.445 763.441 119.445 770.571 Q119.445 777.677 121.251 781.242 Q123.08 784.783 126.691 784.783 Q130.325 784.783 132.13 781.242 Q133.959 777.677 133.959 770.571 Q133.959 763.441 132.13 759.899 Q130.325 756.334 126.691 756.334 M126.691 752.631 Q132.501 752.631 135.556 757.237 Q138.635 761.821 138.635 770.571 Q138.635 779.297 135.556 783.904 Q132.501 788.487 126.691 788.487 Q120.88 788.487 117.802 783.904 Q114.746 779.297 114.746 770.571 Q114.746 761.821 117.802 757.237 Q120.88 752.631 126.691 752.631 Z" fill="#000000" fill-rule="nonzero" fill-opacity="1" /><path clip-path="url(#clip460)" d="M146.853 781.936 L151.737 781.936 L151.737 787.816 L146.853 787.816 L146.853 781.936 Z" fill="#000000" fill-rule="nonzero" fill-opacity="1" /><path clip-path="url(#clip460)" d="M171.922 756.334 Q168.311 756.334 166.482 759.899 Q164.677 763.441 164.677 770.571 Q164.677 777.677 166.482 781.242 Q168.311 784.783 171.922 784.783 Q175.556 784.783 177.362 781.242 Q179.19 777.677 179.19 770.571 Q179.19 763.441 177.362 759.899 Q175.556 756.334 171.922 756.334 M171.922 752.631 Q177.732 752.631 180.788 757.237 Q183.866 761.821 183.866 770.571 Q183.866 779.297 180.788 783.904 Q177.732 788.487 171.922 788.487 Q166.112 788.487 163.033 783.904 Q159.978 779.297 159.978 770.571 Q159.978 761.821 163.033 757.237 Q166.112 752.631 171.922 752.631 Z" fill="#000000" fill-rule="nonzero" fill-opacity="1" /><path clip-path="url(#clip460)" d="M202.084 756.334 Q198.473 756.334 196.644 759.899 Q194.838 763.441 194.838 770.571 Q194.838 777.677 196.644 781.242 Q198.473 784.783 202.084 784.783 Q205.718 784.783 207.524 781.242 Q209.352 777.677 209.352 770.571 Q209.352 763.441 207.524 759.899 Q205.718 756.334 202.084 756.334 M202.084 752.631 Q207.894 752.631 210.949 757.237 Q214.028 761.821 214.028 770.571 Q214.028 779.297 210.949 783.904 Q207.894 788.487 202.084 788.487 Q196.274 788.487 193.195 783.904 Q190.139 779.297 190.139 770.571 Q190.139 761.821 193.195 757.237 Q196.274 752.631 202.084 752.631 Z" fill="#000000" fill-rule="nonzero" fill-opacity="1" /><path clip-path="url(#clip460)" d="M222.385 787.098 L222.385 782.839 Q224.144 783.672 225.949 784.112 Q227.755 784.552 229.491 784.552 Q234.121 784.552 236.551 781.45 Q239.005 778.325 239.352 771.983 Q238.009 773.973 235.949 775.038 Q233.889 776.103 231.389 776.103 Q226.204 776.103 223.172 772.978 Q220.162 769.83 220.162 764.39 Q220.162 759.066 223.31 755.848 Q226.459 752.631 231.69 752.631 Q237.685 752.631 240.834 757.237 Q244.005 761.821 244.005 770.571 Q244.005 778.742 240.116 783.626 Q236.25 788.487 229.699 788.487 Q227.94 788.487 226.135 788.14 Q224.329 787.793 222.385 787.098 M231.69 772.446 Q234.838 772.446 236.667 770.293 Q238.519 768.14 238.519 764.39 Q238.519 760.663 236.667 758.51 Q234.838 756.334 231.69 756.334 Q228.542 756.334 226.69 758.51 Q224.861 760.663 224.861 764.39 Q224.861 768.14 226.69 770.293 Q228.542 772.446 231.69 772.446 Z" fill="#000000" fill-rule="nonzero" fill-opacity="1" /><path clip-path="url(#clip460)" d="M262.408 756.334 Q258.796 756.334 256.968 759.899 Q255.162 763.441 255.162 770.571 Q255.162 777.677 256.968 781.242 Q258.796 784.783 262.408 784.783 Q266.042 784.783 267.847 781.242 Q269.676 777.677 269.676 770.571 Q269.676 763.441 267.847 759.899 Q266.042 756.334 262.408 756.334 M262.408 752.631 Q268.218 752.631 271.273 757.237 Q274.352 761.821 274.352 770.571 Q274.352 779.297 271.273 783.904 Q268.218 788.487 262.408 788.487 Q256.597 788.487 253.519 783.904 Q250.463 779.297 250.463 770.571 Q250.463 761.821 253.519 757.237 Q256.597 752.631 262.408 752.631 Z" fill="#000000" fill-rule="nonzero" fill-opacity="1" /><path clip-path="url(#clip460)" d="M128.288 526.719 Q124.677 526.719 122.848 530.284 Q121.043 533.825 121.043 540.955 Q121.043 548.061 122.848 551.626 Q124.677 555.168 128.288 555.168 Q131.922 555.168 133.728 551.626 Q135.556 548.061 135.556 540.955 Q135.556 533.825 133.728 530.284 Q131.922 526.719 128.288 526.719 M128.288 523.015 Q134.098 523.015 137.154 527.622 Q140.232 532.205 140.232 540.955 Q140.232 549.682 137.154 554.288 Q134.098 558.871 128.288 558.871 Q122.478 558.871 119.399 554.288 Q116.343 549.682 116.343 540.955 Q116.343 532.205 119.399 527.622 Q122.478 523.015 128.288 523.015 Z" fill="#000000" fill-rule="nonzero" fill-opacity="1" /><path clip-path="url(#clip460)" d="M148.45 552.321 L153.334 552.321 L153.334 558.2 L148.45 558.2 L148.45 552.321 Z" fill="#000000" fill-rule="nonzero" fill-opacity="1" /><path clip-path="url(#clip460)" d="M173.519 526.719 Q169.908 526.719 168.079 530.284 Q166.274 533.825 166.274 540.955 Q166.274 548.061 168.079 551.626 Q169.908 555.168 173.519 555.168 Q177.153 555.168 178.959 551.626 Q180.788 548.061 180.788 540.955 Q180.788 533.825 178.959 530.284 Q177.153 526.719 173.519 526.719 M173.519 523.015 Q179.329 523.015 182.385 527.622 Q185.463 532.205 185.463 540.955 Q185.463 549.682 182.385 554.288 Q179.329 558.871 173.519 558.871 Q167.709 558.871 164.63 554.288 Q161.575 549.682 161.575 540.955 Q161.575 532.205 164.63 527.622 Q167.709 523.015 173.519 523.015 Z" fill="#000000" fill-rule="nonzero" fill-opacity="1" /><path clip-path="url(#clip460)" d="M203.681 526.719 Q200.07 526.719 198.241 530.284 Q196.436 533.825 196.436 540.955 Q196.436 548.061 198.241 551.626 Q200.07 555.168 203.681 555.168 Q207.315 555.168 209.121 551.626 Q210.949 548.061 210.949 540.955 Q210.949 533.825 209.121 530.284 Q207.315 526.719 203.681 526.719 M203.681 523.015 Q209.491 523.015 212.547 527.622 Q215.625 532.205 215.625 540.955 Q215.625 549.682 212.547 554.288 Q209.491 558.871 203.681 558.871 Q197.871 558.871 194.792 554.288 Q191.737 549.682 191.737 540.955 Q191.737 532.205 194.792 527.622 Q197.871 523.015 203.681 523.015 Z" fill="#000000" fill-rule="nonzero" fill-opacity="1" /><path clip-path="url(#clip460)" d="M223.982 557.483 L223.982 553.223 Q225.741 554.057 227.547 554.497 Q229.352 554.936 231.088 554.936 Q235.718 554.936 238.148 551.834 Q240.602 548.71 240.949 542.367 Q239.607 544.358 237.547 545.422 Q235.486 546.487 232.986 546.487 Q227.801 546.487 224.769 543.362 Q221.76 540.214 221.76 534.774 Q221.76 529.45 224.908 526.233 Q228.056 523.015 233.287 523.015 Q239.283 523.015 242.431 527.622 Q245.602 532.205 245.602 540.955 Q245.602 549.126 241.713 554.01 Q237.847 558.871 231.297 558.871 Q229.537 558.871 227.732 558.524 Q225.926 558.177 223.982 557.483 M233.287 542.83 Q236.435 542.83 238.264 540.677 Q240.116 538.524 240.116 534.774 Q240.116 531.048 238.264 528.895 Q236.435 526.719 233.287 526.719 Q230.139 526.719 228.287 528.895 Q226.459 531.048 226.459 534.774 Q226.459 538.524 228.287 540.677 Q230.139 542.83 233.287 542.83 Z" fill="#000000" fill-rule="nonzero" fill-opacity="1" /><path clip-path="url(#clip460)" d="M258.033 554.265 L274.352 554.265 L274.352 558.2 L252.408 558.2 L252.408 554.265 Q255.07 551.51 259.653 546.881 Q264.259 542.228 265.44 540.885 Q267.685 538.362 268.565 536.626 Q269.468 534.867 269.468 533.177 Q269.468 530.423 267.523 528.686 Q265.602 526.95 262.5 526.95 Q260.301 526.95 257.847 527.714 Q255.417 528.478 252.639 530.029 L252.639 525.307 Q255.463 524.173 257.917 523.594 Q260.37 523.015 262.408 523.015 Q267.778 523.015 270.972 525.7 Q274.167 528.386 274.167 532.876 Q274.167 535.006 273.357 536.927 Q272.569 538.825 270.463 541.418 Q269.884 542.089 266.782 545.307 Q263.681 548.501 258.033 554.265 Z" fill="#000000" fill-rule="nonzero" fill-opacity="1" /><path clip-path="url(#clip460)" d="M126.205 297.103 Q122.593 297.103 120.765 300.668 Q118.959 304.21 118.959 311.339 Q118.959 318.446 120.765 322.011 Q122.593 325.552 126.205 325.552 Q129.839 325.552 131.644 322.011 Q133.473 318.446 133.473 311.339 Q133.473 304.21 131.644 300.668 Q129.839 297.103 126.205 297.103 M126.205 293.4 Q132.015 293.4 135.07 298.006 Q138.149 302.589 138.149 311.339 Q138.149 320.066 135.07 324.673 Q132.015 329.256 126.205 329.256 Q120.394 329.256 117.316 324.673 Q114.26 320.066 114.26 311.339 Q114.26 302.589 117.316 298.006 Q120.394 293.4 126.205 293.4 Z" fill="#000000" fill-rule="nonzero" fill-opacity="1" /><path clip-path="url(#clip460)" d="M146.366 322.705 L151.251 322.705 L151.251 328.585 L146.366 328.585 L146.366 322.705 Z" fill="#000000" fill-rule="nonzero" fill-opacity="1" /><path clip-path="url(#clip460)" d="M171.436 297.103 Q167.825 297.103 165.996 300.668 Q164.19 304.21 164.19 311.339 Q164.19 318.446 165.996 322.011 Q167.825 325.552 171.436 325.552 Q175.07 325.552 176.876 322.011 Q178.704 318.446 178.704 311.339 Q178.704 304.21 176.876 300.668 Q175.07 297.103 171.436 297.103 M171.436 293.4 Q177.246 293.4 180.301 298.006 Q183.38 302.589 183.38 311.339 Q183.38 320.066 180.301 324.673 Q177.246 329.256 171.436 329.256 Q165.626 329.256 162.547 324.673 Q159.491 320.066 159.491 311.339 Q159.491 302.589 162.547 298.006 Q165.626 293.4 171.436 293.4 Z" fill="#000000" fill-rule="nonzero" fill-opacity="1" /><path clip-path="url(#clip460)" d="M201.598 297.103 Q197.987 297.103 196.158 300.668 Q194.352 304.21 194.352 311.339 Q194.352 318.446 196.158 322.011 Q197.987 325.552 201.598 325.552 Q205.232 325.552 207.037 322.011 Q208.866 318.446 208.866 311.339 Q208.866 304.21 207.037 300.668 Q205.232 297.103 201.598 297.103 M201.598 293.4 Q207.408 293.4 210.463 298.006 Q213.542 302.589 213.542 311.339 Q213.542 320.066 210.463 324.673 Q207.408 329.256 201.598 329.256 Q195.787 329.256 192.709 324.673 Q189.653 320.066 189.653 311.339 Q189.653 302.589 192.709 298.006 Q195.787 293.4 201.598 293.4 Z" fill="#000000" fill-rule="nonzero" fill-opacity="1" /><path clip-path="url(#clip460)" d="M221.898 327.867 L221.898 323.608 Q223.658 324.441 225.463 324.881 Q227.269 325.321 229.005 325.321 Q233.635 325.321 236.065 322.219 Q238.519 319.094 238.866 312.751 Q237.523 314.742 235.463 315.807 Q233.403 316.872 230.903 316.872 Q225.718 316.872 222.686 313.747 Q219.676 310.599 219.676 305.159 Q219.676 299.835 222.824 296.617 Q225.973 293.4 231.204 293.4 Q237.199 293.4 240.347 298.006 Q243.519 302.589 243.519 311.339 Q243.519 319.511 239.63 324.395 Q235.764 329.256 229.213 329.256 Q227.454 329.256 225.648 328.909 Q223.843 328.561 221.898 327.867 M231.204 313.214 Q234.352 313.214 236.181 311.062 Q238.033 308.909 238.033 305.159 Q238.033 301.432 236.181 299.279 Q234.352 297.103 231.204 297.103 Q228.056 297.103 226.204 299.279 Q224.375 301.432 224.375 305.159 Q224.375 308.909 226.204 311.062 Q228.056 313.214 231.204 313.214 Z" fill="#000000" fill-rule="nonzero" fill-opacity="1" /><path clip-path="url(#clip460)" d="M264.769 298.099 L252.963 316.548 L264.769 316.548 L264.769 298.099 M263.542 294.025 L269.421 294.025 L269.421 316.548 L274.352 316.548 L274.352 320.436 L269.421 320.436 L269.421 328.585 L264.769 328.585 L264.769 320.436 L249.167 320.436 L249.167 315.923 L263.542 294.025 Z" fill="#000000" fill-rule="nonzero" fill-opacity="1" /><path clip-path="url(#clip460)" d="M33.7671 788.508 L14.479 788.508 L14.479 782.652 L64.0042 782.652 L64.0042 788.508 L58.657 788.508 Q61.8398 790.354 63.3994 793.187 Q64.9272 795.988 64.9272 799.935 Q64.9272 806.396 59.771 810.47 Q54.6147 814.512 46.212 814.512 Q37.8093 814.512 32.6531 810.47 Q27.4968 806.396 27.4968 799.935 Q27.4968 795.988 29.0564 793.187 Q30.5842 790.354 33.7671 788.508 M46.212 808.465 Q52.6732 808.465 56.3653 805.823 Q60.0256 803.149 60.0256 798.502 Q60.0256 793.855 56.3653 791.182 Q52.6732 788.508 46.212 788.508 Q39.7508 788.508 36.0905 791.182 Q32.3984 793.855 32.3984 798.502 Q32.3984 803.149 36.0905 805.823 Q39.7508 808.465 46.212 808.465 Z" fill="#000000" fill-rule="nonzero" fill-opacity="1" /><path clip-path="url(#clip460)" d="M74.8259 743.503 L79.3773 743.503 L79.3773 777.368 L74.8259 777.368 L74.8259 743.503 Z" fill="#000000" fill-rule="nonzero" fill-opacity="1" /><path clip-path="url(#clip460)" d="M28.3562 737.996 L28.3562 732.14 L64.0042 732.14 L64.0042 737.996 L28.3562 737.996 M14.479 737.996 L14.479 732.14 L21.895 732.14 L21.895 737.996 L14.479 737.996 Z" fill="#000000" fill-rule="nonzero" fill-opacity="1" /><path clip-path="url(#clip460)" d="M1031.48 12.096 L1066.24 12.096 L1066.24 18.9825 L1039.67 18.9825 L1039.67 36.8065 L1063.65 36.8065 L1063.65 43.6931 L1039.67 43.6931 L1039.67 72.576 L1031.48 72.576 L1031.48 12.096 Z" fill="#000000" fill-rule="nonzero" fill-opacity="1" /><path clip-path="url(#clip460)" d="M1072.84 27.2059 L1080.3 27.2059 L1080.3 72.576 L1072.84 72.576 L1072.84 27.2059 M1072.84 9.54393 L1080.3 9.54393 L1080.3 18.9825 L1072.84 18.9825 L1072.84 9.54393 Z" fill="#000000" fill-rule="nonzero" fill-opacity="1" /><path clip-path="url(#clip460)" d="M1133.61 45.1919 L1133.61 72.576 L1126.15 72.576 L1126.15 45.4349 Q1126.15 38.994 1123.64 35.7938 Q1121.13 32.5936 1116.11 32.5936 Q1110.07 32.5936 1106.59 36.4419 Q1103.1 40.2903 1103.1 46.9338 L1103.1 72.576 L1095.61 72.576 L1095.61 27.2059 L1103.1 27.2059 L1103.1 34.2544 Q1105.78 30.163 1109.38 28.1376 Q1113.03 26.1121 1117.77 26.1121 Q1125.59 26.1121 1129.6 30.9732 Q1133.61 35.7938 1133.61 45.1919 Z" fill="#000000" fill-rule="nonzero" fill-opacity="1" /><path clip-path="url(#clip460)" d="M1169.09 49.7694 Q1160.06 49.7694 1156.58 51.8354 Q1153.09 53.9013 1153.09 58.8839 Q1153.09 62.8538 1155.68 65.2034 Q1158.32 67.5124 1162.81 67.5124 Q1169.01 67.5124 1172.74 63.1374 Q1176.51 58.7219 1176.51 51.4303 L1176.51 49.7694 L1169.09 49.7694 M1183.96 46.6907 L1183.96 72.576 L1176.51 72.576 L1176.51 65.6895 Q1173.95 69.8214 1170.15 71.8063 Q1166.34 73.7508 1160.83 73.7508 Q1153.86 73.7508 1149.73 69.8619 Q1145.64 65.9325 1145.64 59.3701 Q1145.64 51.7138 1150.74 47.825 Q1155.89 43.9361 1166.05 43.9361 L1176.51 43.9361 L1176.51 43.2069 Q1176.51 38.0623 1173.1 35.2672 Q1169.74 32.4315 1163.62 32.4315 Q1159.73 32.4315 1156.05 33.3632 Q1152.36 34.295 1148.96 36.1584 L1148.96 29.2718 Q1153.05 27.692 1156.9 26.9223 Q1160.75 26.1121 1164.39 26.1121 Q1174.24 26.1121 1179.1 31.2163 Q1183.96 36.3204 1183.96 46.6907 Z" fill="#000000" fill-rule="nonzero" fill-opacity="1" /><path clip-path="url(#clip460)" d="M1199.31 9.54393 L1206.77 9.54393 L1206.77 72.576 L1199.31 72.576 L1199.31 9.54393 Z" fill="#000000" fill-rule="nonzero" fill-opacity="1" /><path clip-path="url(#clip460)" d="M1278.59 34.0924 L1278.59 9.54393 L1286.04 9.54393 L1286.04 72.576 L1278.59 72.576 L1278.59 65.7705 Q1276.24 69.8214 1272.63 71.8063 Q1269.07 73.7508 1264.05 73.7508 Q1255.82 73.7508 1250.64 67.1883 Q1245.49 60.6258 1245.49 49.9314 Q1245.49 39.2371 1250.64 32.6746 Q1255.82 26.1121 1264.05 26.1121 Q1269.07 26.1121 1272.63 28.0971 Q1276.24 30.0415 1278.59 34.0924 M1253.19 49.9314 Q1253.19 58.1548 1256.55 62.8538 Q1259.95 67.5124 1265.87 67.5124 Q1271.78 67.5124 1275.19 62.8538 Q1278.59 58.1548 1278.59 49.9314 Q1278.59 41.7081 1275.19 37.0496 Q1271.78 32.3505 1265.87 32.3505 Q1259.95 32.3505 1256.55 37.0496 Q1253.19 41.7081 1253.19 49.9314 Z" fill="#000000" fill-rule="nonzero" fill-opacity="1" /><path clip-path="url(#clip460)" d="M1301.39 27.2059 L1308.85 27.2059 L1308.85 72.576 L1301.39 72.576 L1301.39 27.2059 M1301.39 9.54393 L1308.85 9.54393 L1308.85 18.9825 L1301.39 18.9825 L1301.39 9.54393 Z" fill="#000000" fill-rule="nonzero" fill-opacity="1" /><path clip-path="url(#clip460)" d="M1353.37 28.5427 L1353.37 35.5912 Q1350.21 33.9709 1346.81 33.1607 Q1343.4 32.3505 1339.76 32.3505 Q1334.21 32.3505 1331.41 34.0519 Q1328.66 35.7533 1328.66 39.156 Q1328.66 41.7486 1330.64 43.2475 Q1332.63 44.7058 1338.62 46.0426 L1341.17 46.6097 Q1349.11 48.3111 1352.44 51.4303 Q1355.8 54.509 1355.8 60.0587 Q1355.8 66.3781 1350.78 70.0644 Q1345.79 73.7508 1337.04 73.7508 Q1333.4 73.7508 1329.43 73.0216 Q1325.5 72.3329 1321.12 70.9151 L1321.12 63.2184 Q1325.25 65.3654 1329.27 66.4591 Q1333.28 67.5124 1337.2 67.5124 Q1342.47 67.5124 1345.31 65.73 Q1348.14 63.9071 1348.14 60.6258 Q1348.14 57.5877 1346.08 55.9673 Q1344.05 54.3469 1337.12 52.8481 L1334.53 52.2405 Q1327.6 50.7821 1324.53 47.7845 Q1321.45 44.7463 1321.45 39.4801 Q1321.45 33.0797 1325.98 29.5959 Q1330.52 26.1121 1338.87 26.1121 Q1343 26.1121 1346.64 26.7198 Q1350.29 27.3274 1353.37 28.5427 Z" fill="#000000" fill-rule="nonzero" fill-opacity="1" /><path clip-path="url(#clip460)" d="M1375.04 14.324 L1375.04 27.2059 L1390.39 27.2059 L1390.39 32.9987 L1375.04 32.9987 L1375.04 57.6282 Q1375.04 63.1779 1376.54 64.7578 Q1378.08 66.3376 1382.74 66.3376 L1390.39 66.3376 L1390.39 72.576 L1382.74 72.576 Q1374.11 72.576 1370.83 69.3758 Q1367.55 66.1351 1367.55 57.6282 L1367.55 32.9987 L1362.08 32.9987 L1362.08 27.2059 L1367.55 27.2059 L1367.55 14.324 L1375.04 14.324 Z" fill="#000000" fill-rule="nonzero" fill-opacity="1" /><path clip-path="url(#clip460)" d="M1420.82 49.7694 Q1411.78 49.7694 1408.3 51.8354 Q1404.81 53.9013 1404.81 58.8839 Q1404.81 62.8538 1407.41 65.2034 Q1410.04 67.5124 1414.54 67.5124 Q1420.73 67.5124 1424.46 63.1374 Q1428.23 58.7219 1428.23 51.4303 L1428.23 49.7694 L1420.82 49.7694 M1435.68 46.6907 L1435.68 72.576 L1428.23 72.576 L1428.23 65.6895 Q1425.68 69.8214 1421.87 71.8063 Q1418.06 73.7508 1412.55 73.7508 Q1405.58 73.7508 1401.45 69.8619 Q1397.36 65.9325 1397.36 59.3701 Q1397.36 51.7138 1402.46 47.825 Q1407.61 43.9361 1417.78 43.9361 L1428.23 43.9361 L1428.23 43.2069 Q1428.23 38.0623 1424.83 35.2672 Q1421.46 32.4315 1415.35 32.4315 Q1411.46 32.4315 1407.77 33.3632 Q1404.09 34.295 1400.68 36.1584 L1400.68 29.2718 Q1404.77 27.692 1408.62 26.9223 Q1412.47 26.1121 1416.12 26.1121 Q1425.96 26.1121 1430.82 31.2163 Q1435.68 36.3204 1435.68 46.6907 Z" fill="#000000" fill-rule="nonzero" fill-opacity="1" /><path clip-path="url(#clip460)" d="M1488.75 45.1919 L1488.75 72.576 L1481.3 72.576 L1481.3 45.4349 Q1481.3 38.994 1478.78 35.7938 Q1476.27 32.5936 1471.25 32.5936 Q1465.21 32.5936 1461.73 36.4419 Q1458.25 40.2903 1458.25 46.9338 L1458.25 72.576 L1450.75 72.576 L1450.75 27.2059 L1458.25 27.2059 L1458.25 34.2544 Q1460.92 30.163 1464.52 28.1376 Q1468.17 26.1121 1472.91 26.1121 Q1480.73 26.1121 1484.74 30.9732 Q1488.75 35.7938 1488.75 45.1919 Z" fill="#000000" fill-rule="nonzero" fill-opacity="1" /><path clip-path="url(#clip460)" d="M1536.27 28.9478 L1536.27 35.9153 Q1533.11 34.1734 1529.91 33.3227 Q1526.75 32.4315 1523.51 32.4315 Q1516.25 32.4315 1512.24 37.0496 Q1508.23 41.6271 1508.23 49.9314 Q1508.23 58.2358 1512.24 62.8538 Q1516.25 67.4314 1523.51 67.4314 Q1526.75 67.4314 1529.91 66.5807 Q1533.11 65.6895 1536.27 63.9476 L1536.27 70.8341 Q1533.15 72.2924 1529.78 73.0216 Q1526.46 73.7508 1522.7 73.7508 Q1512.45 73.7508 1506.41 67.3098 Q1500.38 60.8689 1500.38 49.9314 Q1500.38 38.832 1506.45 32.472 Q1512.57 26.1121 1523.18 26.1121 Q1526.63 26.1121 1529.91 26.8413 Q1533.19 27.5299 1536.27 28.9478 Z" fill="#000000" fill-rule="nonzero" fill-opacity="1" /><path clip-path="url(#clip460)" d="M1588.04 48.0275 L1588.04 51.6733 L1553.77 51.6733 Q1554.25 59.3701 1558.38 63.421 Q1562.56 67.4314 1569.97 67.4314 Q1574.26 67.4314 1578.27 66.3781 Q1582.33 65.3249 1586.3 63.2184 L1586.3 70.267 Q1582.28 71.9684 1578.07 72.8596 Q1573.86 73.7508 1569.52 73.7508 Q1558.67 73.7508 1552.31 67.4314 Q1545.99 61.1119 1545.99 50.3365 Q1545.99 39.1965 1551.98 32.6746 Q1558.02 26.1121 1568.23 26.1121 Q1577.38 26.1121 1582.69 32.0264 Q1588.04 37.9003 1588.04 48.0275 M1580.58 45.84 Q1580.5 39.7232 1577.14 36.0774 Q1573.82 32.4315 1568.31 32.4315 Q1562.07 32.4315 1558.3 35.9558 Q1554.58 39.4801 1554.01 45.8805 L1580.58 45.84 Z" fill="#000000" fill-rule="nonzero" fill-opacity="1" /><path clip-path="url(#clip460)" d="M1629.19 28.5427 L1629.19 35.5912 Q1626.03 33.9709 1622.63 33.1607 Q1619.23 32.3505 1615.58 32.3505 Q1610.03 32.3505 1607.24 34.0519 Q1604.48 35.7533 1604.48 39.156 Q1604.48 41.7486 1606.47 43.2475 Q1608.45 44.7058 1614.45 46.0426 L1617 46.6097 Q1624.94 48.3111 1628.26 51.4303 Q1631.62 54.509 1631.62 60.0587 Q1631.62 66.3781 1626.6 70.0644 Q1621.62 73.7508 1612.87 73.7508 Q1609.22 73.7508 1605.25 73.0216 Q1601.32 72.3329 1596.95 70.9151 L1596.95 63.2184 Q1601.08 65.3654 1605.09 66.4591 Q1609.1 67.5124 1613.03 67.5124 Q1618.3 67.5124 1621.13 65.73 Q1623.97 63.9071 1623.97 60.6258 Q1623.97 57.5877 1621.9 55.9673 Q1619.88 54.3469 1612.95 52.8481 L1610.36 52.2405 Q1603.43 50.7821 1600.35 47.7845 Q1597.27 44.7463 1597.27 39.4801 Q1597.27 33.0797 1601.81 29.5959 Q1606.35 26.1121 1614.69 26.1121 Q1618.82 26.1121 1622.47 26.7198 Q1626.12 27.3274 1629.19 28.5427 Z" fill="#000000" fill-rule="nonzero" fill-opacity="1" /><circle clip-path="url(#clip462)" cx="368.156" cy="827.163" r="14.4" fill="#009af9" fill-rule="evenodd" fill-opacity="1" stroke="#000000" stroke-opacity="1" stroke-width="3.2"/>
<circle clip-path="url(#clip462)" cx="609.005" cy="736.33" r="14.4" fill="#009af9" fill-rule="evenodd" fill-opacity="1" stroke="#000000" stroke-opacity="1" stroke-width="3.2"/>
<circle clip-path="url(#clip462)" cx="849.855" cy="600.937" r="14.4" fill="#009af9" fill-rule="evenodd" fill-opacity="1" stroke="#000000" stroke-opacity="1" stroke-width="3.2"/>
<circle clip-path="url(#clip462)" cx="1090.7" cy="160.256" r="14.4" fill="#009af9" fill-rule="evenodd" fill-opacity="1" stroke="#000000" stroke-opacity="1" stroke-width="3.2"/>
<circle clip-path="url(#clip462)" cx="1331.55" cy="402.421" r="14.4" fill="#009af9" fill-rule="evenodd" fill-opacity="1" stroke="#000000" stroke-opacity="1" stroke-width="3.2"/>
<circle clip-path="url(#clip462)" cx="1572.4" cy="379.814" r="14.4" fill="#009af9" fill-rule="evenodd" fill-opacity="1" stroke="#000000" stroke-opacity="1" stroke-width="3.2"/>
<circle clip-path="url(#clip462)" cx="1813.25" cy="407.878" r="14.4" fill="#009af9" fill-rule="evenodd" fill-opacity="1" stroke="#000000" stroke-opacity="1" stroke-width="3.2"/>
<circle clip-path="url(#clip462)" cx="2054.1" cy="500.217" r="14.4" fill="#009af9" fill-rule="evenodd" fill-opacity="1" stroke="#000000" stroke-opacity="1" stroke-width="3.2"/>
<circle clip-path="url(#clip462)" cx="2294.95" cy="1386.4" r="14.4" fill="#009af9" fill-rule="evenodd" fill-opacity="1" stroke="#000000" stroke-opacity="1" stroke-width="3.2"/>
</svg>
