<?xml version="1.0" encoding="utf-8"?>
<svg xmlns="http://www.w3.org/2000/svg" xmlns:xlink="http://www.w3.org/1999/xlink" width="600" height="400" viewBox="0 0 2400 1600">
<defs>
  <clipPath id="clip510">
    <rect x="0" y="0" width="2400" height="1600"/>
  </clipPath>
</defs>
<path clip-path="url(#clip510)" d="M0 1600 L2400 1600 L2400 0 L0 0  Z" fill="#ffffff" fill-rule="evenodd" fill-opacity="1"/>
<defs>
  <clipPath id="clip511">
    <rect x="480" y="0" width="1681" height="1600"/>
  </clipPath>
</defs>
<path clip-path="url(#clip510)" d="M280.19 1423.18 L2352.76 1423.18 L2352.76 47.2441 L280.19 47.2441  Z" fill="#ffffff" fill-rule="evenodd" fill-opacity="1"/>
<defs>
  <clipPath id="clip512">
    <rect x="280" y="47" width="2074" height="1377"/>
  </clipPath>
</defs>
<polyline clip-path="url(#clip512)" style="stroke:#000000; stroke-linecap:round; stroke-linejoin:round; stroke-width:2; stroke-opacity:0.1; fill:none" points="534.373,1423.18 534.373,47.2441 "/>
<polyline clip-path="url(#clip512)" style="stroke:#000000; stroke-linecap:round; stroke-linejoin:round; stroke-width:2; stroke-opacity:0.1; fill:none" points="925.423,1423.18 925.423,47.2441 "/>
<polyline clip-path="url(#clip512)" style="stroke:#000000; stroke-linecap:round; stroke-linejoin:round; stroke-width:2; stroke-opacity:0.1; fill:none" points="1316.47,1423.18 1316.47,47.2441 "/>
<polyline clip-path="url(#clip512)" style="stroke:#000000; stroke-linecap:round; stroke-linejoin:round; stroke-width:2; stroke-opacity:0.1; fill:none" points="1707.52,1423.18 1707.52,47.2441 "/>
<polyline clip-path="url(#clip512)" style="stroke:#000000; stroke-linecap:round; stroke-linejoin:round; stroke-width:2; stroke-opacity:0.1; fill:none" points="2098.57,1423.18 2098.57,47.2441 "/>
<polyline clip-path="url(#clip512)" style="stroke:#000000; stroke-linecap:round; stroke-linejoin:round; stroke-width:2; stroke-opacity:0.1; fill:none" points="280.19,1358.65 2352.76,1358.65 "/>
<polyline clip-path="url(#clip512)" style="stroke:#000000; stroke-linecap:round; stroke-linejoin:round; stroke-width:2; stroke-opacity:0.1; fill:none" points="280.19,1143.73 2352.76,1143.73 "/>
<polyline clip-path="url(#clip512)" style="stroke:#000000; stroke-linecap:round; stroke-linejoin:round; stroke-width:2; stroke-opacity:0.1; fill:none" points="280.19,928.8 2352.76,928.8 "/>
<polyline clip-path="url(#clip512)" style="stroke:#000000; stroke-linecap:round; stroke-linejoin:round; stroke-width:2; stroke-opacity:0.1; fill:none" points="280.19,713.874 2352.76,713.874 "/>
<polyline clip-path="url(#clip512)" style="stroke:#000000; stroke-linecap:round; stroke-linejoin:round; stroke-width:2; stroke-opacity:0.1; fill:none" points="280.19,498.948 2352.76,498.948 "/>
<polyline clip-path="url(#clip512)" style="stroke:#000000; stroke-linecap:round; stroke-linejoin:round; stroke-width:2; stroke-opacity:0.1; fill:none" points="280.19,284.023 2352.76,284.023 "/>
<polyline clip-path="url(#clip512)" style="stroke:#000000; stroke-linecap:round; stroke-linejoin:round; stroke-width:2; stroke-opacity:0.1; fill:none" points="280.19,69.0971 2352.76,69.0971 "/>
<polyline clip-path="url(#clip510)" style="stroke:#000000; stroke-linecap:round; stroke-linejoin:round; stroke-width:4; stroke-opacity:1; fill:none" points="280.19,1423.18 2352.76,1423.18 "/>
<polyline clip-path="url(#clip510)" style="stroke:#000000; stroke-linecap:round; stroke-linejoin:round; stroke-width:4; stroke-opacity:1; fill:none" points="534.373,1423.18 534.373,1404.28 "/>
<polyline clip-path="url(#clip510)" style="stroke:#000000; stroke-linecap:round; stroke-linejoin:round; stroke-width:4; stroke-opacity:1; fill:none" points="925.423,1423.18 925.423,1404.28 "/>
<polyline clip-path="url(#clip510)" style="stroke:#000000; stroke-linecap:round; stroke-linejoin:round; stroke-width:4; stroke-opacity:1; fill:none" points="1316.47,1423.18 1316.47,1404.28 "/>
<polyline clip-path="url(#clip510)" style="stroke:#000000; stroke-linecap:round; stroke-linejoin:round; stroke-width:4; stroke-opacity:1; fill:none" points="1707.52,1423.18 1707.52,1404.28 "/>
<polyline clip-path="url(#clip510)" style="stroke:#000000; stroke-linecap:round; stroke-linejoin:round; stroke-width:4; stroke-opacity:1; fill:none" points="2098.57,1423.18 2098.57,1404.28 "/>
<path clip-path="url(#clip510)" d="M490.449 1481.64 L506.769 1481.64 L506.769 1485.58 L484.824 1485.58 L484.824 1481.64 Q487.486 1478.89 492.07 1474.26 Q496.676 1469.61 497.857 1468.27 Q500.102 1465.74 500.982 1464.01 Q501.884 1462.25 501.884 1460.56 Q501.884 1457.8 499.94 1456.07 Q498.019 1454.33 494.917 1454.33 Q492.718 1454.33 490.264 1455.09 Q487.834 1455.86 485.056 1457.41 L485.056 1452.69 Q487.88 1451.55 490.334 1450.97 Q492.787 1450.39 494.824 1450.39 Q500.195 1450.39 503.389 1453.08 Q506.583 1455.77 506.583 1460.26 Q506.583 1462.39 505.773 1464.31 Q504.986 1466.2 502.88 1468.8 Q502.301 1469.47 499.199 1472.69 Q496.097 1475.88 490.449 1481.64 Z" fill="#000000" fill-rule="nonzero" fill-opacity="1" /><path clip-path="url(#clip510)" d="M526.583 1454.1 Q522.972 1454.1 521.144 1457.66 Q519.338 1461.2 519.338 1468.33 Q519.338 1475.44 521.144 1479.01 Q522.972 1482.55 526.583 1482.55 Q530.218 1482.55 532.023 1479.01 Q533.852 1475.44 533.852 1468.33 Q533.852 1461.2 532.023 1457.66 Q530.218 1454.1 526.583 1454.1 M526.583 1450.39 Q532.393 1450.39 535.449 1455 Q538.528 1459.58 538.528 1468.33 Q538.528 1477.06 535.449 1481.67 Q532.393 1486.25 526.583 1486.25 Q520.773 1486.25 517.694 1481.67 Q514.639 1477.06 514.639 1468.33 Q514.639 1459.58 517.694 1455 Q520.773 1450.39 526.583 1450.39 Z" fill="#000000" fill-rule="nonzero" fill-opacity="1" /><path clip-path="url(#clip510)" d="M546.745 1479.7 L551.629 1479.7 L551.629 1485.58 L546.745 1485.58 L546.745 1479.7 Z" fill="#000000" fill-rule="nonzero" fill-opacity="1" /><path clip-path="url(#clip510)" d="M572.393 1466.44 Q569.245 1466.44 567.393 1468.59 Q565.565 1470.74 565.565 1474.49 Q565.565 1478.22 567.393 1480.39 Q569.245 1482.55 572.393 1482.55 Q575.541 1482.55 577.37 1480.39 Q579.222 1478.22 579.222 1474.49 Q579.222 1470.74 577.37 1468.59 Q575.541 1466.44 572.393 1466.44 M581.676 1451.78 L581.676 1456.04 Q579.916 1455.21 578.111 1454.77 Q576.328 1454.33 574.569 1454.33 Q569.94 1454.33 567.486 1457.45 Q565.055 1460.58 564.708 1466.9 Q566.074 1464.89 568.134 1463.82 Q570.194 1462.73 572.671 1462.73 Q577.879 1462.73 580.889 1465.9 Q583.921 1469.05 583.921 1474.49 Q583.921 1479.82 580.773 1483.03 Q577.625 1486.25 572.393 1486.25 Q566.398 1486.25 563.227 1481.67 Q560.055 1477.06 560.055 1468.33 Q560.055 1460.14 563.944 1455.28 Q567.833 1450.39 574.384 1450.39 Q576.143 1450.39 577.926 1450.74 Q579.731 1451.09 581.676 1451.78 Z" fill="#000000" fill-rule="nonzero" fill-opacity="1" /><path clip-path="url(#clip510)" d="M881.627 1481.64 L897.946 1481.64 L897.946 1485.58 L876.002 1485.58 L876.002 1481.64 Q878.664 1478.89 883.247 1474.26 Q887.854 1469.61 889.034 1468.27 Q891.279 1465.74 892.159 1464.01 Q893.062 1462.25 893.062 1460.56 Q893.062 1457.8 891.117 1456.07 Q889.196 1454.33 886.094 1454.33 Q883.895 1454.33 881.442 1455.09 Q879.011 1455.86 876.233 1457.41 L876.233 1452.69 Q879.057 1451.55 881.511 1450.97 Q883.965 1450.39 886.002 1450.39 Q891.372 1450.39 894.566 1453.08 Q897.761 1455.77 897.761 1460.26 Q897.761 1462.39 896.951 1464.31 Q896.164 1466.2 894.057 1468.8 Q893.479 1469.47 890.377 1472.69 Q887.275 1475.88 881.627 1481.64 Z" fill="#000000" fill-rule="nonzero" fill-opacity="1" /><path clip-path="url(#clip510)" d="M917.761 1454.1 Q914.15 1454.1 912.321 1457.66 Q910.515 1461.2 910.515 1468.33 Q910.515 1475.44 912.321 1479.01 Q914.15 1482.55 917.761 1482.55 Q921.395 1482.55 923.201 1479.01 Q925.029 1475.44 925.029 1468.33 Q925.029 1461.2 923.201 1457.66 Q921.395 1454.1 917.761 1454.1 M917.761 1450.39 Q923.571 1450.39 926.626 1455 Q929.705 1459.58 929.705 1468.33 Q929.705 1477.06 926.626 1481.67 Q923.571 1486.25 917.761 1486.25 Q911.951 1486.25 908.872 1481.67 Q905.816 1477.06 905.816 1468.33 Q905.816 1459.58 908.872 1455 Q911.951 1450.39 917.761 1450.39 Z" fill="#000000" fill-rule="nonzero" fill-opacity="1" /><path clip-path="url(#clip510)" d="M937.923 1479.7 L942.807 1479.7 L942.807 1485.58 L937.923 1485.58 L937.923 1479.7 Z" fill="#000000" fill-rule="nonzero" fill-opacity="1" /><path clip-path="url(#clip510)" d="M962.992 1469.17 Q959.659 1469.17 957.737 1470.95 Q955.839 1472.73 955.839 1475.86 Q955.839 1478.98 957.737 1480.77 Q959.659 1482.55 962.992 1482.55 Q966.325 1482.55 968.247 1480.77 Q970.168 1478.96 970.168 1475.86 Q970.168 1472.73 968.247 1470.95 Q966.349 1469.17 962.992 1469.17 M958.316 1467.18 Q955.307 1466.44 953.617 1464.38 Q951.95 1462.32 951.95 1459.35 Q951.95 1455.21 954.89 1452.8 Q957.853 1450.39 962.992 1450.39 Q968.154 1450.39 971.094 1452.8 Q974.034 1455.21 974.034 1459.35 Q974.034 1462.32 972.344 1464.38 Q970.677 1466.44 967.691 1467.18 Q971.071 1467.96 972.946 1470.26 Q974.844 1472.55 974.844 1475.86 Q974.844 1480.88 971.765 1483.57 Q968.71 1486.25 962.992 1486.25 Q957.274 1486.25 954.196 1483.57 Q951.14 1480.88 951.14 1475.86 Q951.14 1472.55 953.038 1470.26 Q954.937 1467.96 958.316 1467.18 M956.603 1459.79 Q956.603 1462.48 958.27 1463.98 Q959.96 1465.49 962.992 1465.49 Q966.001 1465.49 967.691 1463.98 Q969.404 1462.48 969.404 1459.79 Q969.404 1457.11 967.691 1455.6 Q966.001 1454.1 962.992 1454.1 Q959.96 1454.1 958.27 1455.6 Q956.603 1457.11 956.603 1459.79 Z" fill="#000000" fill-rule="nonzero" fill-opacity="1" /><path clip-path="url(#clip510)" d="M1272.63 1481.64 L1288.95 1481.64 L1288.95 1485.58 L1267.01 1485.58 L1267.01 1481.64 Q1269.67 1478.89 1274.25 1474.26 Q1278.86 1469.61 1280.04 1468.27 Q1282.28 1465.74 1283.16 1464.01 Q1284.07 1462.25 1284.07 1460.56 Q1284.07 1457.8 1282.12 1456.07 Q1280.2 1454.33 1277.1 1454.33 Q1274.9 1454.33 1272.45 1455.09 Q1270.01 1455.86 1267.24 1457.41 L1267.24 1452.69 Q1270.06 1451.55 1272.51 1450.97 Q1274.97 1450.39 1277.01 1450.39 Q1282.38 1450.39 1285.57 1453.08 Q1288.76 1455.77 1288.76 1460.26 Q1288.76 1462.39 1287.95 1464.31 Q1287.17 1466.2 1285.06 1468.8 Q1284.48 1469.47 1281.38 1472.69 Q1278.28 1475.88 1272.63 1481.64 Z" fill="#000000" fill-rule="nonzero" fill-opacity="1" /><path clip-path="url(#clip510)" d="M1299.57 1481.64 L1307.21 1481.64 L1307.21 1455.28 L1298.9 1456.95 L1298.9 1452.69 L1307.17 1451.02 L1311.84 1451.02 L1311.84 1481.64 L1319.48 1481.64 L1319.48 1485.58 L1299.57 1485.58 L1299.57 1481.64 Z" fill="#000000" fill-rule="nonzero" fill-opacity="1" /><path clip-path="url(#clip510)" d="M1328.93 1479.7 L1333.81 1479.7 L1333.81 1485.58 L1328.93 1485.58 L1328.93 1479.7 Z" fill="#000000" fill-rule="nonzero" fill-opacity="1" /><path clip-path="url(#clip510)" d="M1354 1454.1 Q1350.38 1454.1 1348.56 1457.66 Q1346.75 1461.2 1346.75 1468.33 Q1346.75 1475.44 1348.56 1479.01 Q1350.38 1482.55 1354 1482.55 Q1357.63 1482.55 1359.44 1479.01 Q1361.26 1475.44 1361.26 1468.33 Q1361.26 1461.2 1359.44 1457.66 Q1357.63 1454.1 1354 1454.1 M1354 1450.39 Q1359.81 1450.39 1362.86 1455 Q1365.94 1459.58 1365.94 1468.33 Q1365.94 1477.06 1362.86 1481.67 Q1359.81 1486.25 1354 1486.25 Q1348.19 1486.25 1345.11 1481.67 Q1342.05 1477.06 1342.05 1468.33 Q1342.05 1459.58 1345.11 1455 Q1348.19 1450.39 1354 1450.39 Z" fill="#000000" fill-rule="nonzero" fill-opacity="1" /><path clip-path="url(#clip510)" d="M1664.48 1481.64 L1680.8 1481.64 L1680.8 1485.58 L1658.85 1485.58 L1658.85 1481.64 Q1661.52 1478.89 1666.1 1474.26 Q1670.71 1469.61 1671.89 1468.27 Q1674.13 1465.74 1675.01 1464.01 Q1675.91 1462.25 1675.91 1460.56 Q1675.91 1457.8 1673.97 1456.07 Q1672.05 1454.33 1668.95 1454.33 Q1666.75 1454.33 1664.29 1455.09 Q1661.86 1455.86 1659.09 1457.41 L1659.09 1452.69 Q1661.91 1451.55 1664.36 1450.97 Q1666.82 1450.39 1668.85 1450.39 Q1674.22 1450.39 1677.42 1453.08 Q1680.61 1455.77 1680.61 1460.26 Q1680.61 1462.39 1679.8 1464.31 Q1679.02 1466.2 1676.91 1468.8 Q1676.33 1469.47 1673.23 1472.69 Q1670.13 1475.88 1664.48 1481.64 Z" fill="#000000" fill-rule="nonzero" fill-opacity="1" /><path clip-path="url(#clip510)" d="M1691.42 1481.64 L1699.06 1481.64 L1699.06 1455.28 L1690.75 1456.95 L1690.75 1452.69 L1699.02 1451.02 L1703.69 1451.02 L1703.69 1481.64 L1711.33 1481.64 L1711.33 1485.58 L1691.42 1485.58 L1691.42 1481.64 Z" fill="#000000" fill-rule="nonzero" fill-opacity="1" /><path clip-path="url(#clip510)" d="M1720.78 1479.7 L1725.66 1479.7 L1725.66 1485.58 L1720.78 1485.58 L1720.78 1479.7 Z" fill="#000000" fill-rule="nonzero" fill-opacity="1" /><path clip-path="url(#clip510)" d="M1739.87 1481.64 L1756.19 1481.64 L1756.19 1485.58 L1734.25 1485.58 L1734.25 1481.64 Q1736.91 1478.89 1741.49 1474.26 Q1746.1 1469.61 1747.28 1468.27 Q1749.53 1465.74 1750.4 1464.01 Q1751.31 1462.25 1751.31 1460.56 Q1751.31 1457.8 1749.36 1456.07 Q1747.44 1454.33 1744.34 1454.33 Q1742.14 1454.33 1739.69 1455.09 Q1737.26 1455.86 1734.48 1457.41 L1734.48 1452.69 Q1737.3 1451.55 1739.76 1450.97 Q1742.21 1450.39 1744.25 1450.39 Q1749.62 1450.39 1752.81 1453.08 Q1756.01 1455.77 1756.01 1460.26 Q1756.01 1462.39 1755.2 1464.31 Q1754.41 1466.2 1752.3 1468.8 Q1751.72 1469.47 1748.62 1472.69 Q1745.52 1475.88 1739.87 1481.64 Z" fill="#000000" fill-rule="nonzero" fill-opacity="1" /><path clip-path="url(#clip510)" d="M2054.49 1481.64 L2070.81 1481.64 L2070.81 1485.58 L2048.86 1485.58 L2048.86 1481.64 Q2051.52 1478.89 2056.11 1474.26 Q2060.71 1469.61 2061.9 1468.27 Q2064.14 1465.74 2065.02 1464.01 Q2065.92 1462.25 2065.92 1460.56 Q2065.92 1457.8 2063.98 1456.07 Q2062.06 1454.33 2058.96 1454.33 Q2056.76 1454.33 2054.3 1455.09 Q2051.87 1455.86 2049.09 1457.41 L2049.09 1452.69 Q2051.92 1451.55 2054.37 1450.97 Q2056.83 1450.39 2058.86 1450.39 Q2064.23 1450.39 2067.43 1453.08 Q2070.62 1455.77 2070.62 1460.26 Q2070.62 1462.39 2069.81 1464.31 Q2069.02 1466.2 2066.92 1468.8 Q2066.34 1469.47 2063.24 1472.69 Q2060.14 1475.88 2054.49 1481.64 Z" fill="#000000" fill-rule="nonzero" fill-opacity="1" /><path clip-path="url(#clip510)" d="M2081.43 1481.64 L2089.07 1481.64 L2089.07 1455.28 L2080.76 1456.95 L2080.76 1452.69 L2089.02 1451.02 L2093.7 1451.02 L2093.7 1481.64 L2101.34 1481.64 L2101.34 1485.58 L2081.43 1485.58 L2081.43 1481.64 Z" fill="#000000" fill-rule="nonzero" fill-opacity="1" /><path clip-path="url(#clip510)" d="M2110.78 1479.7 L2115.67 1479.7 L2115.67 1485.58 L2110.78 1485.58 L2110.78 1479.7 Z" fill="#000000" fill-rule="nonzero" fill-opacity="1" /><path clip-path="url(#clip510)" d="M2138.7 1455.09 L2126.89 1473.54 L2138.7 1473.54 L2138.7 1455.09 M2137.47 1451.02 L2143.35 1451.02 L2143.35 1473.54 L2148.28 1473.54 L2148.28 1477.43 L2143.35 1477.43 L2143.35 1485.58 L2138.7 1485.58 L2138.7 1477.43 L2123.1 1477.43 L2123.1 1472.92 L2137.47 1451.02 Z" fill="#000000" fill-rule="nonzero" fill-opacity="1" /><path clip-path="url(#clip510)" d="M1024.64 1520.52 L1051.95 1520.52 L1051.95 1525.93 L1031.07 1525.93 L1031.07 1539.94 L1049.91 1539.94 L1049.91 1545.35 L1031.07 1545.35 L1031.07 1568.04 L1024.64 1568.04 L1024.64 1520.52 Z" fill="#000000" fill-rule="nonzero" fill-opacity="1" /><path clip-path="url(#clip510)" d="M1077.79 1537.87 Q1076.8 1537.3 1075.63 1537.04 Q1074.48 1536.76 1073.08 1536.76 Q1068.11 1536.76 1065.44 1540 Q1062.8 1543.22 1062.8 1549.27 L1062.8 1568.04 L1056.91 1568.04 L1056.91 1532.4 L1062.8 1532.4 L1062.8 1537.93 Q1064.65 1534.69 1067.61 1533.13 Q1070.57 1531.54 1074.8 1531.54 Q1075.4 1531.54 1076.14 1531.63 Q1076.87 1531.7 1077.76 1531.85 L1077.79 1537.87 Z" fill="#000000" fill-rule="nonzero" fill-opacity="1" /><path clip-path="url(#clip510)" d="M1112.99 1548.76 L1112.99 1551.62 L1086.07 1551.62 Q1086.45 1557.67 1089.69 1560.85 Q1092.97 1564 1098.8 1564 Q1102.17 1564 1105.32 1563.17 Q1108.51 1562.35 1111.62 1560.69 L1111.62 1566.23 Q1108.47 1567.57 1105.16 1568.27 Q1101.85 1568.97 1098.45 1568.97 Q1089.92 1568.97 1084.92 1564 Q1079.96 1559.04 1079.96 1550.57 Q1079.96 1541.82 1084.67 1536.69 Q1089.41 1531.54 1097.43 1531.54 Q1104.62 1531.54 1108.79 1536.18 Q1112.99 1540.8 1112.99 1548.76 M1107.14 1547.04 Q1107.07 1542.23 1104.43 1539.37 Q1101.82 1536.5 1097.49 1536.5 Q1092.59 1536.5 1089.63 1539.27 Q1086.7 1542.04 1086.26 1547.07 L1107.14 1547.04 Z" fill="#000000" fill-rule="nonzero" fill-opacity="1" /><path clip-path="url(#clip510)" d="M1126.11 1550.25 Q1126.11 1556.71 1128.75 1560.4 Q1131.42 1564.07 1136.07 1564.07 Q1140.72 1564.07 1143.39 1560.4 Q1146.06 1556.71 1146.06 1550.25 Q1146.06 1543.79 1143.39 1540.13 Q1140.72 1536.44 1136.07 1536.44 Q1131.42 1536.44 1128.75 1540.13 Q1126.11 1543.79 1126.11 1550.25 M1146.06 1562.7 Q1144.22 1565.88 1141.38 1567.44 Q1138.58 1568.97 1134.64 1568.97 Q1128.18 1568.97 1124.1 1563.81 Q1120.06 1558.65 1120.06 1550.25 Q1120.06 1541.85 1124.1 1536.69 Q1128.18 1531.54 1134.64 1531.54 Q1138.58 1531.54 1141.38 1533.1 Q1144.22 1534.62 1146.06 1537.81 L1146.06 1532.4 L1151.92 1532.4 L1151.92 1581.6 L1146.06 1581.6 L1146.06 1562.7 Z" fill="#000000" fill-rule="nonzero" fill-opacity="1" /><path clip-path="url(#clip510)" d="M1163.38 1553.98 L1163.38 1532.4 L1169.23 1532.4 L1169.23 1553.75 Q1169.23 1558.81 1171.21 1561.36 Q1173.18 1563.87 1177.13 1563.87 Q1181.87 1563.87 1184.61 1560.85 Q1187.38 1557.83 1187.38 1552.61 L1187.38 1532.4 L1193.23 1532.4 L1193.23 1568.04 L1187.38 1568.04 L1187.38 1562.57 Q1185.24 1565.82 1182.41 1567.41 Q1179.61 1568.97 1175.89 1568.97 Q1169.74 1568.97 1166.56 1565.15 Q1163.38 1561.33 1163.38 1553.98 M1178.11 1531.54 L1178.11 1531.54 Z" fill="#000000" fill-rule="nonzero" fill-opacity="1" /><path clip-path="url(#clip510)" d="M1235.79 1548.76 L1235.79 1551.62 L1208.86 1551.62 Q1209.24 1557.67 1212.49 1560.85 Q1215.77 1564 1221.59 1564 Q1224.97 1564 1228.12 1563.17 Q1231.3 1562.35 1234.42 1560.69 L1234.42 1566.23 Q1231.27 1567.57 1227.96 1568.27 Q1224.65 1568.97 1221.24 1568.97 Q1212.71 1568.97 1207.71 1564 Q1202.75 1559.04 1202.75 1550.57 Q1202.75 1541.82 1207.46 1536.69 Q1212.2 1531.54 1220.22 1531.54 Q1227.42 1531.54 1231.59 1536.18 Q1235.79 1540.8 1235.79 1548.76 M1229.93 1547.04 Q1229.87 1542.23 1227.23 1539.37 Q1224.62 1536.5 1220.29 1536.5 Q1215.39 1536.5 1212.43 1539.27 Q1209.5 1542.04 1209.05 1547.07 L1229.93 1547.04 Z" fill="#000000" fill-rule="nonzero" fill-opacity="1" /><path clip-path="url(#clip510)" d="M1275.03 1546.53 L1275.03 1568.04 L1269.18 1568.04 L1269.18 1546.72 Q1269.18 1541.66 1267.2 1539.14 Q1265.23 1536.63 1261.28 1536.63 Q1256.54 1536.63 1253.8 1539.65 Q1251.07 1542.68 1251.07 1547.9 L1251.07 1568.04 L1245.18 1568.04 L1245.18 1532.4 L1251.07 1532.4 L1251.07 1537.93 Q1253.17 1534.72 1256 1533.13 Q1258.86 1531.54 1262.59 1531.54 Q1268.73 1531.54 1271.88 1535.36 Q1275.03 1539.14 1275.03 1546.53 Z" fill="#000000" fill-rule="nonzero" fill-opacity="1" /><path clip-path="url(#clip510)" d="M1312.37 1533.76 L1312.37 1539.24 Q1309.88 1537.87 1307.37 1537.2 Q1304.89 1536.5 1302.34 1536.5 Q1296.64 1536.5 1293.49 1540.13 Q1290.34 1543.73 1290.34 1550.25 Q1290.34 1556.78 1293.49 1560.4 Q1296.64 1564 1302.34 1564 Q1304.89 1564 1307.37 1563.33 Q1309.88 1562.63 1312.37 1561.26 L1312.37 1566.68 Q1309.92 1567.82 1307.27 1568.39 Q1304.66 1568.97 1301.7 1568.97 Q1293.65 1568.97 1288.91 1563.91 Q1284.17 1558.85 1284.17 1550.25 Q1284.17 1541.53 1288.94 1536.53 Q1293.75 1531.54 1302.09 1531.54 Q1304.79 1531.54 1307.37 1532.11 Q1309.95 1532.65 1312.37 1533.76 Z" fill="#000000" fill-rule="nonzero" fill-opacity="1" /><path clip-path="url(#clip510)" d="M1322.55 1532.4 L1328.41 1532.4 L1328.41 1568.04 L1322.55 1568.04 L1322.55 1532.4 M1322.55 1518.52 L1328.41 1518.52 L1328.41 1525.93 L1322.55 1525.93 L1322.55 1518.52 Z" fill="#000000" fill-rule="nonzero" fill-opacity="1" /><path clip-path="url(#clip510)" d="M1371.15 1548.76 L1371.15 1551.62 L1344.23 1551.62 Q1344.61 1557.67 1347.86 1560.85 Q1351.13 1564 1356.96 1564 Q1360.33 1564 1363.48 1563.17 Q1366.67 1562.35 1369.79 1560.69 L1369.79 1566.23 Q1366.63 1567.57 1363.32 1568.27 Q1360.01 1568.97 1356.61 1568.97 Q1348.08 1568.97 1343.08 1564 Q1338.12 1559.04 1338.12 1550.57 Q1338.12 1541.82 1342.83 1536.69 Q1347.57 1531.54 1355.59 1531.54 Q1362.78 1531.54 1366.95 1536.18 Q1371.15 1540.8 1371.15 1548.76 M1365.3 1547.04 Q1365.23 1542.23 1362.59 1539.37 Q1359.98 1536.5 1355.65 1536.5 Q1350.75 1536.5 1347.79 1539.27 Q1344.86 1542.04 1344.42 1547.07 L1365.3 1547.04 Z" fill="#000000" fill-rule="nonzero" fill-opacity="1" /><path clip-path="url(#clip510)" d="M1403.49 1533.45 L1403.49 1538.98 Q1401.01 1537.71 1398.34 1537.07 Q1395.66 1536.44 1392.8 1536.44 Q1388.44 1536.44 1386.24 1537.77 Q1384.08 1539.11 1384.08 1541.79 Q1384.08 1543.82 1385.64 1545 Q1387.2 1546.15 1391.91 1547.2 L1393.91 1547.64 Q1400.15 1548.98 1402.76 1551.43 Q1405.4 1553.85 1405.4 1558.21 Q1405.4 1563.17 1401.46 1566.07 Q1397.54 1568.97 1390.67 1568.97 Q1387.8 1568.97 1384.68 1568.39 Q1381.59 1567.85 1378.16 1566.74 L1378.16 1560.69 Q1381.4 1562.38 1384.55 1563.24 Q1387.71 1564.07 1390.79 1564.07 Q1394.93 1564.07 1397.16 1562.66 Q1399.39 1561.23 1399.39 1558.65 Q1399.39 1556.27 1397.76 1554.99 Q1396.17 1553.72 1390.73 1552.54 L1388.69 1552.07 Q1383.25 1550.92 1380.83 1548.56 Q1378.41 1546.18 1378.41 1542.04 Q1378.41 1537.01 1381.98 1534.27 Q1385.54 1531.54 1392.1 1531.54 Q1395.34 1531.54 1398.21 1532.01 Q1401.07 1532.49 1403.49 1533.45 Z" fill="#000000" fill-rule="nonzero" fill-opacity="1" /><path clip-path="url(#clip510)" d="M1434.91 1518.52 L1448.4 1518.52 L1448.4 1523.07 L1440.76 1523.07 L1440.76 1572.09 L1448.4 1572.09 L1448.4 1576.64 L1434.91 1576.64 L1434.91 1518.52 Z" fill="#000000" fill-rule="nonzero" fill-opacity="1" /><path clip-path="url(#clip510)" d="M1493.54 1561.26 L1493.54 1548.5 L1483.03 1548.5 L1483.03 1543.22 L1499.9 1543.22 L1499.9 1563.62 Q1496.18 1566.26 1491.69 1567.63 Q1487.2 1568.97 1482.11 1568.97 Q1470.97 1568.97 1464.67 1562.47 Q1458.4 1555.95 1458.4 1544.33 Q1458.4 1532.68 1464.67 1526.19 Q1470.97 1519.66 1482.11 1519.66 Q1486.76 1519.66 1490.93 1520.81 Q1495.13 1521.96 1498.66 1524.18 L1498.66 1531.03 Q1495.09 1528 1491.08 1526.48 Q1487.07 1524.95 1482.65 1524.95 Q1473.93 1524.95 1469.54 1529.82 Q1465.18 1534.69 1465.18 1544.33 Q1465.18 1553.94 1469.54 1558.81 Q1473.93 1563.68 1482.65 1563.68 Q1486.06 1563.68 1488.73 1563.11 Q1491.4 1562.51 1493.54 1561.26 Z" fill="#000000" fill-rule="nonzero" fill-opacity="1" /><path clip-path="url(#clip510)" d="M1511.65 1520.52 L1518.07 1520.52 L1518.07 1540 L1541.44 1540 L1541.44 1520.52 L1547.87 1520.52 L1547.87 1568.04 L1541.44 1568.04 L1541.44 1545.41 L1518.07 1545.41 L1518.07 1568.04 L1511.65 1568.04 L1511.65 1520.52 Z" fill="#000000" fill-rule="nonzero" fill-opacity="1" /><path clip-path="url(#clip510)" d="M1557.86 1532.4 L1585.68 1532.4 L1585.68 1537.74 L1563.65 1563.37 L1585.68 1563.37 L1585.68 1568.04 L1557.06 1568.04 L1557.06 1562.7 L1579.09 1537.07 L1557.86 1537.07 L1557.86 1532.4 Z" fill="#000000" fill-rule="nonzero" fill-opacity="1" /><path clip-path="url(#clip510)" d="M1608.31 1518.52 L1608.31 1576.64 L1594.81 1576.64 L1594.81 1572.09 L1602.42 1572.09 L1602.42 1523.07 L1594.81 1523.07 L1594.81 1518.52 L1608.31 1518.52 Z" fill="#000000" fill-rule="nonzero" fill-opacity="1" /><polyline clip-path="url(#clip510)" style="stroke:#000000; stroke-linecap:round; stroke-linejoin:round; stroke-width:4; stroke-opacity:1; fill:none" points="280.19,1423.18 280.19,47.2441 "/>
<polyline clip-path="url(#clip510)" style="stroke:#000000; stroke-linecap:round; stroke-linejoin:round; stroke-width:4; stroke-opacity:1; fill:none" points="280.19,1358.65 299.088,1358.65 "/>
<polyline clip-path="url(#clip510)" style="stroke:#000000; stroke-linecap:round; stroke-linejoin:round; stroke-width:4; stroke-opacity:1; fill:none" points="280.19,1143.73 299.088,1143.73 "/>
<polyline clip-path="url(#clip510)" style="stroke:#000000; stroke-linecap:round; stroke-linejoin:round; stroke-width:4; stroke-opacity:1; fill:none" points="280.19,928.8 299.088,928.8 "/>
<polyline clip-path="url(#clip510)" style="stroke:#000000; stroke-linecap:round; stroke-linejoin:round; stroke-width:4; stroke-opacity:1; fill:none" points="280.19,713.874 299.088,713.874 "/>
<polyline clip-path="url(#clip510)" style="stroke:#000000; stroke-linecap:round; stroke-linejoin:round; stroke-width:4; stroke-opacity:1; fill:none" points="280.19,498.948 299.088,498.948 "/>
<polyline clip-path="url(#clip510)" style="stroke:#000000; stroke-linecap:round; stroke-linejoin:round; stroke-width:4; stroke-opacity:1; fill:none" points="280.19,284.023 299.088,284.023 "/>
<polyline clip-path="url(#clip510)" style="stroke:#000000; stroke-linecap:round; stroke-linejoin:round; stroke-width:4; stroke-opacity:1; fill:none" points="280.19,69.0971 299.088,69.0971 "/>
<path clip-path="url(#clip510)" d="M126.205 1344.45 Q122.593 1344.45 120.765 1348.01 Q118.959 1351.56 118.959 1358.69 Q118.959 1365.79 120.765 1369.36 Q122.593 1372.9 126.205 1372.9 Q129.839 1372.9 131.644 1369.36 Q133.473 1365.79 133.473 1358.69 Q133.473 1351.56 131.644 1348.01 Q129.839 1344.45 126.205 1344.45 M126.205 1340.75 Q132.015 1340.75 135.07 1345.35 Q138.149 1349.94 138.149 1358.69 Q138.149 1367.41 135.07 1372.02 Q132.015 1376.6 126.205 1376.6 Q120.394 1376.6 117.316 1372.02 Q114.26 1367.41 114.26 1358.69 Q114.26 1349.94 117.316 1345.35 Q120.394 1340.75 126.205 1340.75 Z" fill="#000000" fill-rule="nonzero" fill-opacity="1" /><path clip-path="url(#clip510)" d="M146.366 1370.05 L151.251 1370.05 L151.251 1375.93 L146.366 1375.93 L146.366 1370.05 Z" fill="#000000" fill-rule="nonzero" fill-opacity="1" /><path clip-path="url(#clip510)" d="M161.575 1375.21 L161.575 1370.95 Q163.334 1371.79 165.14 1372.23 Q166.945 1372.67 168.681 1372.67 Q173.311 1372.67 175.741 1369.57 Q178.195 1366.44 178.542 1360.1 Q177.2 1362.09 175.139 1363.15 Q173.079 1364.22 170.579 1364.22 Q165.394 1364.22 162.362 1361.09 Q159.353 1357.94 159.353 1352.51 Q159.353 1347.18 162.501 1343.96 Q165.649 1340.75 170.88 1340.75 Q176.876 1340.75 180.024 1345.35 Q183.195 1349.94 183.195 1358.69 Q183.195 1366.86 179.306 1371.74 Q175.44 1376.6 168.889 1376.6 Q167.13 1376.6 165.325 1376.25 Q163.519 1375.91 161.575 1375.21 M170.88 1360.56 Q174.028 1360.56 175.857 1358.41 Q177.709 1356.25 177.709 1352.51 Q177.709 1348.78 175.857 1346.63 Q174.028 1344.45 170.88 1344.45 Q167.732 1344.45 165.88 1346.63 Q164.052 1348.78 164.052 1352.51 Q164.052 1356.25 165.88 1358.41 Q167.732 1360.56 170.88 1360.56 Z" fill="#000000" fill-rule="nonzero" fill-opacity="1" /><path clip-path="url(#clip510)" d="M191.737 1375.21 L191.737 1370.95 Q193.496 1371.79 195.301 1372.23 Q197.107 1372.67 198.843 1372.67 Q203.473 1372.67 205.903 1369.57 Q208.357 1366.44 208.704 1360.1 Q207.362 1362.09 205.301 1363.15 Q203.241 1364.22 200.741 1364.22 Q195.556 1364.22 192.524 1361.09 Q189.514 1357.94 189.514 1352.51 Q189.514 1347.18 192.663 1343.96 Q195.811 1340.75 201.042 1340.75 Q207.037 1340.75 210.186 1345.35 Q213.357 1349.94 213.357 1358.69 Q213.357 1366.86 209.468 1371.74 Q205.602 1376.6 199.051 1376.6 Q197.292 1376.6 195.487 1376.25 Q193.681 1375.91 191.737 1375.21 M201.042 1360.56 Q204.19 1360.56 206.019 1358.41 Q207.871 1356.25 207.871 1352.51 Q207.871 1348.78 206.019 1346.63 Q204.19 1344.45 201.042 1344.45 Q197.894 1344.45 196.042 1346.63 Q194.213 1348.78 194.213 1352.51 Q194.213 1356.25 196.042 1358.41 Q197.894 1360.56 201.042 1360.56 Z" fill="#000000" fill-rule="nonzero" fill-opacity="1" /><path clip-path="url(#clip510)" d="M234.607 1345.44 L222.801 1363.89 L234.607 1363.89 L234.607 1345.44 M233.38 1341.37 L239.259 1341.37 L239.259 1363.89 L244.19 1363.89 L244.19 1367.78 L239.259 1367.78 L239.259 1375.93 L234.607 1375.93 L234.607 1367.78 L219.005 1367.78 L219.005 1363.27 L233.38 1341.37 Z" fill="#000000" fill-rule="nonzero" fill-opacity="1" /><path clip-path="url(#clip510)" d="M127.686 1129.52 Q124.075 1129.52 122.246 1133.09 Q120.441 1136.63 120.441 1143.76 Q120.441 1150.87 122.246 1154.43 Q124.075 1157.97 127.686 1157.97 Q131.32 1157.97 133.126 1154.43 Q134.954 1150.87 134.954 1143.76 Q134.954 1136.63 133.126 1133.09 Q131.32 1129.52 127.686 1129.52 M127.686 1125.82 Q133.496 1125.82 136.552 1130.43 Q139.63 1135.01 139.63 1143.76 Q139.63 1152.49 136.552 1157.09 Q133.496 1161.68 127.686 1161.68 Q121.876 1161.68 118.797 1157.09 Q115.742 1152.49 115.742 1143.76 Q115.742 1135.01 118.797 1130.43 Q121.876 1125.82 127.686 1125.82 Z" fill="#000000" fill-rule="nonzero" fill-opacity="1" /><path clip-path="url(#clip510)" d="M147.848 1155.13 L152.732 1155.13 L152.732 1161.01 L147.848 1161.01 L147.848 1155.13 Z" fill="#000000" fill-rule="nonzero" fill-opacity="1" /><path clip-path="url(#clip510)" d="M163.056 1160.29 L163.056 1156.03 Q164.815 1156.86 166.621 1157.3 Q168.427 1157.74 170.163 1157.74 Q174.792 1157.74 177.223 1154.64 Q179.676 1151.51 180.024 1145.17 Q178.681 1147.16 176.621 1148.23 Q174.561 1149.29 172.061 1149.29 Q166.876 1149.29 163.843 1146.17 Q160.834 1143.02 160.834 1137.58 Q160.834 1132.26 163.982 1129.04 Q167.13 1125.82 172.362 1125.82 Q178.357 1125.82 181.505 1130.43 Q184.676 1135.01 184.676 1143.76 Q184.676 1151.93 180.788 1156.82 Q176.922 1161.68 170.371 1161.68 Q168.612 1161.68 166.806 1161.33 Q165.001 1160.98 163.056 1160.29 M172.362 1145.63 Q175.51 1145.63 177.339 1143.48 Q179.19 1141.33 179.19 1137.58 Q179.19 1133.85 177.339 1131.7 Q175.51 1129.52 172.362 1129.52 Q169.214 1129.52 167.362 1131.7 Q165.533 1133.85 165.533 1137.58 Q165.533 1141.33 167.362 1143.48 Q169.214 1145.63 172.362 1145.63 Z" fill="#000000" fill-rule="nonzero" fill-opacity="1" /><path clip-path="url(#clip510)" d="M193.218 1160.29 L193.218 1156.03 Q194.977 1156.86 196.783 1157.3 Q198.588 1157.74 200.325 1157.74 Q204.954 1157.74 207.385 1154.64 Q209.838 1151.51 210.186 1145.17 Q208.843 1147.16 206.783 1148.23 Q204.723 1149.29 202.223 1149.29 Q197.037 1149.29 194.005 1146.17 Q190.996 1143.02 190.996 1137.58 Q190.996 1132.26 194.144 1129.04 Q197.292 1125.82 202.524 1125.82 Q208.519 1125.82 211.667 1130.43 Q214.838 1135.01 214.838 1143.76 Q214.838 1151.93 210.949 1156.82 Q207.084 1161.68 200.533 1161.68 Q198.774 1161.68 196.968 1161.33 Q195.163 1160.98 193.218 1160.29 M202.524 1145.63 Q205.672 1145.63 207.5 1143.48 Q209.352 1141.33 209.352 1137.58 Q209.352 1133.85 207.5 1131.7 Q205.672 1129.52 202.524 1129.52 Q199.375 1129.52 197.524 1131.7 Q195.695 1133.85 195.695 1137.58 Q195.695 1141.33 197.524 1143.48 Q199.375 1145.63 202.524 1145.63 Z" fill="#000000" fill-rule="nonzero" fill-opacity="1" /><path clip-path="url(#clip510)" d="M223.287 1126.45 L241.644 1126.45 L241.644 1130.38 L227.57 1130.38 L227.57 1138.85 Q228.588 1138.51 229.607 1138.34 Q230.625 1138.16 231.644 1138.16 Q237.431 1138.16 240.81 1141.33 Q244.19 1144.5 244.19 1149.92 Q244.19 1155.5 240.718 1158.6 Q237.246 1161.68 230.926 1161.68 Q228.75 1161.68 226.482 1161.31 Q224.236 1160.94 221.829 1160.2 L221.829 1155.5 Q223.912 1156.63 226.135 1157.19 Q228.357 1157.74 230.834 1157.74 Q234.838 1157.74 237.176 1155.63 Q239.514 1153.53 239.514 1149.92 Q239.514 1146.31 237.176 1144.2 Q234.838 1142.09 230.834 1142.09 Q228.959 1142.09 227.084 1142.51 Q225.232 1142.93 223.287 1143.81 L223.287 1126.45 Z" fill="#000000" fill-rule="nonzero" fill-opacity="1" /><path clip-path="url(#clip510)" d="M126.529 914.598 Q122.918 914.598 121.089 918.163 Q119.283 921.705 119.283 928.834 Q119.283 935.941 121.089 939.506 Q122.918 943.047 126.529 943.047 Q130.163 943.047 131.968 939.506 Q133.797 935.941 133.797 928.834 Q133.797 921.705 131.968 918.163 Q130.163 914.598 126.529 914.598 M126.529 910.895 Q132.339 910.895 135.394 915.501 Q138.473 920.084 138.473 928.834 Q138.473 937.561 135.394 942.168 Q132.339 946.751 126.529 946.751 Q120.718 946.751 117.64 942.168 Q114.584 937.561 114.584 928.834 Q114.584 920.084 117.64 915.501 Q120.718 910.895 126.529 910.895 Z" fill="#000000" fill-rule="nonzero" fill-opacity="1" /><path clip-path="url(#clip510)" d="M146.691 940.2 L151.575 940.2 L151.575 946.08 L146.691 946.08 L146.691 940.2 Z" fill="#000000" fill-rule="nonzero" fill-opacity="1" /><path clip-path="url(#clip510)" d="M161.899 945.362 L161.899 941.103 Q163.658 941.936 165.464 942.376 Q167.269 942.816 169.005 942.816 Q173.635 942.816 176.065 939.714 Q178.519 936.589 178.866 930.246 Q177.524 932.237 175.464 933.302 Q173.403 934.367 170.903 934.367 Q165.718 934.367 162.686 931.242 Q159.677 928.094 159.677 922.654 Q159.677 917.33 162.825 914.112 Q165.973 910.895 171.204 910.895 Q177.2 910.895 180.348 915.501 Q183.519 920.084 183.519 928.834 Q183.519 937.006 179.63 941.89 Q175.764 946.751 169.214 946.751 Q167.454 946.751 165.649 946.404 Q163.843 946.056 161.899 945.362 M171.204 930.709 Q174.352 930.709 176.181 928.557 Q178.033 926.404 178.033 922.654 Q178.033 918.927 176.181 916.774 Q174.352 914.598 171.204 914.598 Q168.056 914.598 166.204 916.774 Q164.376 918.927 164.376 922.654 Q164.376 926.404 166.204 928.557 Q168.056 930.709 171.204 930.709 Z" fill="#000000" fill-rule="nonzero" fill-opacity="1" /><path clip-path="url(#clip510)" d="M192.061 945.362 L192.061 941.103 Q193.82 941.936 195.625 942.376 Q197.431 942.816 199.167 942.816 Q203.797 942.816 206.227 939.714 Q208.681 936.589 209.028 930.246 Q207.686 932.237 205.625 933.302 Q203.565 934.367 201.065 934.367 Q195.88 934.367 192.848 931.242 Q189.838 928.094 189.838 922.654 Q189.838 917.33 192.987 914.112 Q196.135 910.895 201.366 910.895 Q207.362 910.895 210.51 915.501 Q213.681 920.084 213.681 928.834 Q213.681 937.006 209.792 941.89 Q205.926 946.751 199.375 946.751 Q197.616 946.751 195.811 946.404 Q194.005 946.056 192.061 945.362 M201.366 930.709 Q204.514 930.709 206.343 928.557 Q208.195 926.404 208.195 922.654 Q208.195 918.927 206.343 916.774 Q204.514 914.598 201.366 914.598 Q198.218 914.598 196.366 916.774 Q194.538 918.927 194.538 922.654 Q194.538 926.404 196.366 928.557 Q198.218 930.709 201.366 930.709 Z" fill="#000000" fill-rule="nonzero" fill-opacity="1" /><path clip-path="url(#clip510)" d="M232.662 926.936 Q229.514 926.936 227.662 929.089 Q225.834 931.242 225.834 934.992 Q225.834 938.718 227.662 940.894 Q229.514 943.047 232.662 943.047 Q235.81 943.047 237.639 940.894 Q239.491 938.718 239.491 934.992 Q239.491 931.242 237.639 929.089 Q235.81 926.936 232.662 926.936 M241.945 912.283 L241.945 916.543 Q240.185 915.709 238.38 915.27 Q236.597 914.83 234.838 914.83 Q230.209 914.83 227.755 917.955 Q225.324 921.08 224.977 927.399 Q226.343 925.385 228.403 924.32 Q230.463 923.232 232.94 923.232 Q238.148 923.232 241.158 926.404 Q244.19 929.552 244.19 934.992 Q244.19 940.316 241.042 943.533 Q237.894 946.751 232.662 946.751 Q226.667 946.751 223.496 942.168 Q220.324 937.561 220.324 928.834 Q220.324 920.64 224.213 915.779 Q228.102 910.895 234.653 910.895 Q236.412 910.895 238.195 911.242 Q240 911.589 241.945 912.283 Z" fill="#000000" fill-rule="nonzero" fill-opacity="1" /><path clip-path="url(#clip510)" d="M127.593 699.673 Q123.982 699.673 122.154 703.237 Q120.348 706.779 120.348 713.909 Q120.348 721.015 122.154 724.58 Q123.982 728.122 127.593 728.122 Q131.228 728.122 133.033 724.58 Q134.862 721.015 134.862 713.909 Q134.862 706.779 133.033 703.237 Q131.228 699.673 127.593 699.673 M127.593 695.969 Q133.404 695.969 136.459 700.575 Q139.538 705.159 139.538 713.909 Q139.538 722.635 136.459 727.242 Q133.404 731.825 127.593 731.825 Q121.783 731.825 118.705 727.242 Q115.649 722.635 115.649 713.909 Q115.649 705.159 118.705 700.575 Q121.783 695.969 127.593 695.969 Z" fill="#000000" fill-rule="nonzero" fill-opacity="1" /><path clip-path="url(#clip510)" d="M147.755 725.274 L152.64 725.274 L152.64 731.154 L147.755 731.154 L147.755 725.274 Z" fill="#000000" fill-rule="nonzero" fill-opacity="1" /><path clip-path="url(#clip510)" d="M162.964 730.436 L162.964 726.177 Q164.723 727.01 166.528 727.45 Q168.334 727.89 170.07 727.89 Q174.7 727.89 177.13 724.788 Q179.584 721.663 179.931 715.321 Q178.589 717.311 176.528 718.376 Q174.468 719.441 171.968 719.441 Q166.783 719.441 163.751 716.316 Q160.741 713.168 160.741 707.728 Q160.741 702.404 163.89 699.187 Q167.038 695.969 172.269 695.969 Q178.264 695.969 181.413 700.575 Q184.584 705.159 184.584 713.909 Q184.584 722.08 180.695 726.964 Q176.829 731.825 170.278 731.825 Q168.519 731.825 166.714 731.478 Q164.908 731.131 162.964 730.436 M172.269 715.784 Q175.417 715.784 177.246 713.631 Q179.098 711.478 179.098 707.728 Q179.098 704.001 177.246 701.849 Q175.417 699.673 172.269 699.673 Q169.121 699.673 167.269 701.849 Q165.44 704.001 165.44 707.728 Q165.44 711.478 167.269 713.631 Q169.121 715.784 172.269 715.784 Z" fill="#000000" fill-rule="nonzero" fill-opacity="1" /><path clip-path="url(#clip510)" d="M193.125 730.436 L193.125 726.177 Q194.885 727.01 196.69 727.45 Q198.496 727.89 200.232 727.89 Q204.862 727.89 207.292 724.788 Q209.746 721.663 210.093 715.321 Q208.75 717.311 206.69 718.376 Q204.63 719.441 202.13 719.441 Q196.945 719.441 193.913 716.316 Q190.903 713.168 190.903 707.728 Q190.903 702.404 194.051 699.187 Q197.2 695.969 202.431 695.969 Q208.426 695.969 211.574 700.575 Q214.746 705.159 214.746 713.909 Q214.746 722.08 210.857 726.964 Q206.991 731.825 200.44 731.825 Q198.681 731.825 196.875 731.478 Q195.07 731.131 193.125 730.436 M202.431 715.784 Q205.579 715.784 207.408 713.631 Q209.26 711.478 209.26 707.728 Q209.26 704.001 207.408 701.849 Q205.579 699.673 202.431 699.673 Q199.283 699.673 197.431 701.849 Q195.602 704.001 195.602 707.728 Q195.602 711.478 197.431 713.631 Q199.283 715.784 202.431 715.784 Z" fill="#000000" fill-rule="nonzero" fill-opacity="1" /><path clip-path="url(#clip510)" d="M221.968 696.594 L244.19 696.594 L244.19 698.585 L231.644 731.154 L226.76 731.154 L238.565 700.529 L221.968 700.529 L221.968 696.594 Z" fill="#000000" fill-rule="nonzero" fill-opacity="1" /><path clip-path="url(#clip510)" d="M126.783 484.747 Q123.172 484.747 121.343 488.312 Q119.538 491.853 119.538 498.983 Q119.538 506.089 121.343 509.654 Q123.172 513.196 126.783 513.196 Q130.417 513.196 132.223 509.654 Q134.052 506.089 134.052 498.983 Q134.052 491.853 132.223 488.312 Q130.417 484.747 126.783 484.747 M126.783 481.043 Q132.593 481.043 135.649 485.65 Q138.728 490.233 138.728 498.983 Q138.728 507.71 135.649 512.316 Q132.593 516.9 126.783 516.9 Q120.973 516.9 117.894 512.316 Q114.839 507.71 114.839 498.983 Q114.839 490.233 117.894 485.65 Q120.973 481.043 126.783 481.043 Z" fill="#000000" fill-rule="nonzero" fill-opacity="1" /><path clip-path="url(#clip510)" d="M146.945 510.349 L151.829 510.349 L151.829 516.228 L146.945 516.228 L146.945 510.349 Z" fill="#000000" fill-rule="nonzero" fill-opacity="1" /><path clip-path="url(#clip510)" d="M162.153 515.511 L162.153 511.252 Q163.913 512.085 165.718 512.525 Q167.524 512.964 169.26 512.964 Q173.889 512.964 176.32 509.863 Q178.774 506.738 179.121 500.395 Q177.778 502.386 175.718 503.451 Q173.658 504.515 171.158 504.515 Q165.973 504.515 162.94 501.39 Q159.931 498.242 159.931 492.803 Q159.931 487.478 163.079 484.261 Q166.227 481.043 171.459 481.043 Q177.454 481.043 180.602 485.65 Q183.774 490.233 183.774 498.983 Q183.774 507.154 179.885 512.039 Q176.019 516.9 169.468 516.9 Q167.709 516.9 165.903 516.552 Q164.098 516.205 162.153 515.511 M171.459 500.858 Q174.607 500.858 176.436 498.705 Q178.288 496.553 178.288 492.803 Q178.288 489.076 176.436 486.923 Q174.607 484.747 171.459 484.747 Q168.311 484.747 166.459 486.923 Q164.63 489.076 164.63 492.803 Q164.63 496.553 166.459 498.705 Q168.311 500.858 171.459 500.858 Z" fill="#000000" fill-rule="nonzero" fill-opacity="1" /><path clip-path="url(#clip510)" d="M192.315 515.511 L192.315 511.252 Q194.075 512.085 195.88 512.525 Q197.686 512.964 199.422 512.964 Q204.051 512.964 206.482 509.863 Q208.936 506.738 209.283 500.395 Q207.94 502.386 205.88 503.451 Q203.82 504.515 201.32 504.515 Q196.135 504.515 193.102 501.39 Q190.093 498.242 190.093 492.803 Q190.093 487.478 193.241 484.261 Q196.389 481.043 201.621 481.043 Q207.616 481.043 210.764 485.65 Q213.936 490.233 213.936 498.983 Q213.936 507.154 210.047 512.039 Q206.181 516.9 199.63 516.9 Q197.871 516.9 196.065 516.552 Q194.26 516.205 192.315 515.511 M201.621 500.858 Q204.769 500.858 206.598 498.705 Q208.449 496.553 208.449 492.803 Q208.449 489.076 206.598 486.923 Q204.769 484.747 201.621 484.747 Q198.473 484.747 196.621 486.923 Q194.792 489.076 194.792 492.803 Q194.792 496.553 196.621 498.705 Q198.473 500.858 201.621 500.858 Z" fill="#000000" fill-rule="nonzero" fill-opacity="1" /><path clip-path="url(#clip510)" d="M232.338 499.816 Q229.005 499.816 227.084 501.599 Q225.185 503.381 225.185 506.506 Q225.185 509.631 227.084 511.414 Q229.005 513.196 232.338 513.196 Q235.672 513.196 237.593 511.414 Q239.514 509.608 239.514 506.506 Q239.514 503.381 237.593 501.599 Q235.695 499.816 232.338 499.816 M227.662 497.826 Q224.653 497.085 222.963 495.025 Q221.297 492.965 221.297 490.002 Q221.297 485.858 224.236 483.451 Q227.199 481.043 232.338 481.043 Q237.5 481.043 240.44 483.451 Q243.38 485.858 243.38 490.002 Q243.38 492.965 241.69 495.025 Q240.023 497.085 237.037 497.826 Q240.417 498.613 242.292 500.904 Q244.19 503.196 244.19 506.506 Q244.19 511.529 241.111 514.214 Q238.056 516.9 232.338 516.9 Q226.621 516.9 223.542 514.214 Q220.486 511.529 220.486 506.506 Q220.486 503.196 222.385 500.904 Q224.283 498.613 227.662 497.826 M225.949 490.441 Q225.949 493.127 227.616 494.631 Q229.306 496.136 232.338 496.136 Q235.347 496.136 237.037 494.631 Q238.75 493.127 238.75 490.441 Q238.75 487.756 237.037 486.252 Q235.347 484.747 232.338 484.747 Q229.306 484.747 227.616 486.252 Q225.949 487.756 225.949 490.441 Z" fill="#000000" fill-rule="nonzero" fill-opacity="1" /><path clip-path="url(#clip510)" d="M126.876 269.821 Q123.265 269.821 121.436 273.386 Q119.63 276.928 119.63 284.057 Q119.63 291.164 121.436 294.729 Q123.265 298.27 126.876 298.27 Q130.51 298.27 132.316 294.729 Q134.144 291.164 134.144 284.057 Q134.144 276.928 132.316 273.386 Q130.51 269.821 126.876 269.821 M126.876 266.118 Q132.686 266.118 135.742 270.724 Q138.82 275.307 138.82 284.057 Q138.82 292.784 135.742 297.391 Q132.686 301.974 126.876 301.974 Q121.066 301.974 117.987 297.391 Q114.931 292.784 114.931 284.057 Q114.931 275.307 117.987 270.724 Q121.066 266.118 126.876 266.118 Z" fill="#000000" fill-rule="nonzero" fill-opacity="1" /><path clip-path="url(#clip510)" d="M147.038 295.423 L151.922 295.423 L151.922 301.303 L147.038 301.303 L147.038 295.423 Z" fill="#000000" fill-rule="nonzero" fill-opacity="1" /><path clip-path="url(#clip510)" d="M162.246 300.585 L162.246 296.326 Q164.005 297.159 165.811 297.599 Q167.616 298.039 169.352 298.039 Q173.982 298.039 176.413 294.937 Q178.866 291.812 179.214 285.469 Q177.871 287.46 175.811 288.525 Q173.751 289.59 171.251 289.59 Q166.065 289.59 163.033 286.465 Q160.024 283.317 160.024 277.877 Q160.024 272.553 163.172 269.335 Q166.32 266.118 171.552 266.118 Q177.547 266.118 180.695 270.724 Q183.866 275.307 183.866 284.057 Q183.866 292.229 179.977 297.113 Q176.112 301.974 169.561 301.974 Q167.802 301.974 165.996 301.627 Q164.19 301.28 162.246 300.585 M171.552 285.932 Q174.7 285.932 176.528 283.78 Q178.38 281.627 178.38 277.877 Q178.38 274.15 176.528 271.997 Q174.7 269.821 171.552 269.821 Q168.403 269.821 166.552 271.997 Q164.723 274.15 164.723 277.877 Q164.723 281.627 166.552 283.78 Q168.403 285.932 171.552 285.932 Z" fill="#000000" fill-rule="nonzero" fill-opacity="1" /><path clip-path="url(#clip510)" d="M192.408 300.585 L192.408 296.326 Q194.167 297.159 195.973 297.599 Q197.778 298.039 199.514 298.039 Q204.144 298.039 206.574 294.937 Q209.028 291.812 209.375 285.469 Q208.033 287.46 205.973 288.525 Q203.912 289.59 201.412 289.59 Q196.227 289.59 193.195 286.465 Q190.186 283.317 190.186 277.877 Q190.186 272.553 193.334 269.335 Q196.482 266.118 201.713 266.118 Q207.709 266.118 210.857 270.724 Q214.028 275.307 214.028 284.057 Q214.028 292.229 210.139 297.113 Q206.274 301.974 199.723 301.974 Q197.963 301.974 196.158 301.627 Q194.352 301.28 192.408 300.585 M201.713 285.932 Q204.862 285.932 206.69 283.78 Q208.542 281.627 208.542 277.877 Q208.542 274.15 206.69 271.997 Q204.862 269.821 201.713 269.821 Q198.565 269.821 196.713 271.997 Q194.885 274.15 194.885 277.877 Q194.885 281.627 196.713 283.78 Q198.565 285.932 201.713 285.932 Z" fill="#000000" fill-rule="nonzero" fill-opacity="1" /><path clip-path="url(#clip510)" d="M222.57 300.585 L222.57 296.326 Q224.329 297.159 226.135 297.599 Q227.94 298.039 229.676 298.039 Q234.306 298.039 236.736 294.937 Q239.19 291.812 239.537 285.469 Q238.195 287.46 236.135 288.525 Q234.074 289.59 231.574 289.59 Q226.389 289.59 223.357 286.465 Q220.348 283.317 220.348 277.877 Q220.348 272.553 223.496 269.335 Q226.644 266.118 231.875 266.118 Q237.871 266.118 241.019 270.724 Q244.19 275.307 244.19 284.057 Q244.19 292.229 240.301 297.113 Q236.435 301.974 229.885 301.974 Q228.125 301.974 226.32 301.627 Q224.514 301.28 222.57 300.585 M231.875 285.932 Q235.023 285.932 236.852 283.78 Q238.704 281.627 238.704 277.877 Q238.704 274.15 236.852 271.997 Q235.023 269.821 231.875 269.821 Q228.727 269.821 226.875 271.997 Q225.047 274.15 225.047 277.877 Q225.047 281.627 226.875 283.78 Q228.727 285.932 231.875 285.932 Z" fill="#000000" fill-rule="nonzero" fill-opacity="1" /><path clip-path="url(#clip510)" d="M117.501 82.4419 L125.14 82.4419 L125.14 56.0763 L116.83 57.743 L116.83 53.4837 L125.093 51.8171 L129.769 51.8171 L129.769 82.4419 L137.408 82.4419 L137.408 86.3771 L117.501 86.3771 L117.501 82.4419 Z" fill="#000000" fill-rule="nonzero" fill-opacity="1" /><path clip-path="url(#clip510)" d="M146.853 80.4975 L151.737 80.4975 L151.737 86.3771 L146.853 86.3771 L146.853 80.4975 Z" fill="#000000" fill-rule="nonzero" fill-opacity="1" /><path clip-path="url(#clip510)" d="M171.922 54.8958 Q168.311 54.8958 166.482 58.4606 Q164.677 62.0022 164.677 69.1318 Q164.677 76.2383 166.482 79.803 Q168.311 83.3447 171.922 83.3447 Q175.556 83.3447 177.362 79.803 Q179.19 76.2383 179.19 69.1318 Q179.19 62.0022 177.362 58.4606 Q175.556 54.8958 171.922 54.8958 M171.922 51.1921 Q177.732 51.1921 180.788 55.7985 Q183.866 60.3819 183.866 69.1318 Q183.866 77.8586 180.788 82.4651 Q177.732 87.0484 171.922 87.0484 Q166.112 87.0484 163.033 82.4651 Q159.978 77.8586 159.978 69.1318 Q159.978 60.3819 163.033 55.7985 Q166.112 51.1921 171.922 51.1921 Z" fill="#000000" fill-rule="nonzero" fill-opacity="1" /><path clip-path="url(#clip510)" d="M202.084 54.8958 Q198.473 54.8958 196.644 58.4606 Q194.838 62.0022 194.838 69.1318 Q194.838 76.2383 196.644 79.803 Q198.473 83.3447 202.084 83.3447 Q205.718 83.3447 207.524 79.803 Q209.352 76.2383 209.352 69.1318 Q209.352 62.0022 207.524 58.4606 Q205.718 54.8958 202.084 54.8958 M202.084 51.1921 Q207.894 51.1921 210.949 55.7985 Q214.028 60.3819 214.028 69.1318 Q214.028 77.8586 210.949 82.4651 Q207.894 87.0484 202.084 87.0484 Q196.274 87.0484 193.195 82.4651 Q190.139 77.8586 190.139 69.1318 Q190.139 60.3819 193.195 55.7985 Q196.274 51.1921 202.084 51.1921 Z" fill="#000000" fill-rule="nonzero" fill-opacity="1" /><path clip-path="url(#clip510)" d="M232.246 54.8958 Q228.635 54.8958 226.806 58.4606 Q225 62.0022 225 69.1318 Q225 76.2383 226.806 79.803 Q228.635 83.3447 232.246 83.3447 Q235.88 83.3447 237.685 79.803 Q239.514 76.2383 239.514 69.1318 Q239.514 62.0022 237.685 58.4606 Q235.88 54.8958 232.246 54.8958 M232.246 51.1921 Q238.056 51.1921 241.111 55.7985 Q244.19 60.3819 244.19 69.1318 Q244.19 77.8586 241.111 82.4651 Q238.056 87.0484 232.246 87.0484 Q226.435 87.0484 223.357 82.4651 Q220.301 77.8586 220.301 69.1318 Q220.301 60.3819 223.357 55.7985 Q226.435 51.1921 232.246 51.1921 Z" fill="#000000" fill-rule="nonzero" fill-opacity="1" /><path clip-path="url(#clip510)" d="M41.7242 981.804 Q42.4244 979.735 44.7161 977.793 Q47.0077 975.82 51.0181 973.846 L64.0042 967.322 L64.0042 974.228 L51.8138 980.308 Q47.0395 982.663 45.48 984.891 Q43.9204 987.087 43.9204 990.906 L43.9204 997.909 L64.0042 997.909 L64.0042 1004.34 L16.4842 1004.34 L16.4842 989.824 Q16.4842 981.676 19.8898 977.666 Q23.2955 973.655 30.1704 973.655 Q34.6582 973.655 37.6183 975.756 Q40.5784 977.825 41.7242 981.804 M21.7677 997.909 L38.6368 997.909 L38.6368 989.824 Q38.6368 985.177 36.5043 982.822 Q34.34 980.435 30.1704 980.435 Q26.0009 980.435 23.9002 982.822 Q21.7677 985.177 21.7677 989.824 L21.7677 997.909 Z" fill="#000000" fill-rule="nonzero" fill-opacity="1" /><path clip-path="url(#clip510)" d="M44.7161 931.737 L47.5806 931.737 L47.5806 958.664 Q53.6281 958.282 56.8109 955.036 Q59.9619 951.757 59.9619 945.933 Q59.9619 942.559 59.1344 939.408 Q58.3069 936.225 56.6518 933.106 L62.1899 933.106 Q63.5267 936.257 64.227 939.567 Q64.9272 942.877 64.9272 946.283 Q64.9272 954.813 59.9619 959.81 Q54.9967 964.775 46.5303 964.775 Q37.7774 964.775 32.6531 960.065 Q27.4968 955.322 27.4968 947.301 Q27.4968 940.108 32.1438 935.939 Q36.7589 931.737 44.7161 931.737 M42.9973 937.594 Q38.1912 937.657 35.3266 940.299 Q32.4621 942.909 32.4621 947.238 Q32.4621 952.139 35.2312 955.099 Q38.0002 958.028 43.0292 958.473 L42.9973 937.594 Z" fill="#000000" fill-rule="nonzero" fill-opacity="1" /><path clip-path="url(#clip510)" d="M14.479 904.078 L19.3487 904.078 L19.3487 909.68 Q19.3487 912.831 20.6219 914.072 Q21.895 915.282 25.2052 915.282 L28.3562 915.282 L28.3562 905.638 L32.9077 905.638 L32.9077 915.282 L64.0042 915.282 L64.0042 921.17 L32.9077 921.17 L32.9077 926.772 L28.3562 926.772 L28.3562 921.17 L25.8736 921.17 Q19.9216 921.17 17.2162 918.401 Q14.479 915.632 14.479 909.616 L14.479 904.078 Z" fill="#000000" fill-rule="nonzero" fill-opacity="1" /><path clip-path="url(#clip510)" d="M14.479 899.177 L14.479 893.32 L64.0042 893.32 L64.0042 899.177 L14.479 899.177 Z" fill="#000000" fill-rule="nonzero" fill-opacity="1" /><path clip-path="url(#clip510)" d="M44.7161 850.574 L47.5806 850.574 L47.5806 877.501 Q53.6281 877.119 56.8109 873.873 Q59.9619 870.595 59.9619 864.77 Q59.9619 861.396 59.1344 858.245 Q58.3069 855.062 56.6518 851.943 L62.1899 851.943 Q63.5267 855.094 64.227 858.404 Q64.9272 861.714 64.9272 865.12 Q64.9272 873.65 59.9619 878.647 Q54.9967 883.613 46.5303 883.613 Q37.7774 883.613 32.6531 878.902 Q27.4968 874.159 27.4968 866.139 Q27.4968 858.945 32.1438 854.776 Q36.7589 850.574 44.7161 850.574 M42.9973 856.431 Q38.1912 856.495 35.3266 859.136 Q32.4621 861.746 32.4621 866.075 Q32.4621 870.977 35.2312 873.937 Q38.0002 876.865 43.0292 877.31 L42.9973 856.431 Z" fill="#000000" fill-rule="nonzero" fill-opacity="1" /><path clip-path="url(#clip510)" d="M29.7248 815.308 L35.1993 815.308 Q33.8307 817.791 33.1623 820.306 Q32.4621 822.788 32.4621 825.334 Q32.4621 831.032 36.0905 834.183 Q39.6872 837.334 46.212 837.334 Q52.7369 837.334 56.3653 834.183 Q59.9619 831.032 59.9619 825.334 Q59.9619 822.788 59.2935 820.306 Q58.5933 817.791 57.2247 815.308 L62.6355 815.308 Q63.7814 817.759 64.3543 820.401 Q64.9272 823.011 64.9272 825.971 Q64.9272 834.024 59.8664 838.766 Q54.8057 843.509 46.212 843.509 Q37.491 843.509 32.4939 838.734 Q27.4968 833.928 27.4968 825.589 Q27.4968 822.884 28.0697 820.306 Q28.6108 817.727 29.7248 815.308 Z" fill="#000000" fill-rule="nonzero" fill-opacity="1" /><path clip-path="url(#clip510)" d="M18.2347 799.331 L28.3562 799.331 L28.3562 787.268 L32.9077 787.268 L32.9077 799.331 L52.2594 799.331 Q56.6199 799.331 57.8613 798.153 Q59.1026 796.943 59.1026 793.283 L59.1026 787.268 L64.0042 787.268 L64.0042 793.283 Q64.0042 800.063 61.4897 802.641 Q58.9434 805.219 52.2594 805.219 L32.9077 805.219 L32.9077 809.516 L28.3562 809.516 L28.3562 805.219 L18.2347 805.219 L18.2347 799.331 Z" fill="#000000" fill-rule="nonzero" fill-opacity="1" /><path clip-path="url(#clip510)" d="M28.3562 779.565 L28.3562 773.709 L64.0042 773.709 L64.0042 779.565 L28.3562 779.565 M14.479 779.565 L14.479 773.709 L21.895 773.709 L21.895 779.565 L14.479 779.565 Z" fill="#000000" fill-rule="nonzero" fill-opacity="1" /><path clip-path="url(#clip510)" d="M28.3562 765.656 L28.3562 759.449 L58.275 748.309 L28.3562 737.169 L28.3562 730.963 L64.0042 744.331 L64.0042 752.288 L28.3562 765.656 Z" fill="#000000" fill-rule="nonzero" fill-opacity="1" /><path clip-path="url(#clip510)" d="M28.3562 722.878 L28.3562 717.022 L64.0042 717.022 L64.0042 722.878 L28.3562 722.878 M14.479 722.878 L14.479 717.022 L21.895 717.022 L21.895 722.878 L14.479 722.878 Z" fill="#000000" fill-rule="nonzero" fill-opacity="1" /><path clip-path="url(#clip510)" d="M18.2347 698.975 L28.3562 698.975 L28.3562 686.912 L32.9077 686.912 L32.9077 698.975 L52.2594 698.975 Q56.6199 698.975 57.8613 697.798 Q59.1026 696.588 59.1026 692.928 L59.1026 686.912 L64.0042 686.912 L64.0042 692.928 Q64.0042 699.707 61.4897 702.285 Q58.9434 704.863 52.2594 704.863 L32.9077 704.863 L32.9077 709.16 L28.3562 709.16 L28.3562 704.863 L18.2347 704.863 L18.2347 698.975 Z" fill="#000000" fill-rule="nonzero" fill-opacity="1" /><path clip-path="url(#clip510)" d="M67.3143 664.378 Q73.68 666.86 75.6216 669.216 Q77.5631 671.571 77.5631 675.518 L77.5631 680.196 L72.6615 680.196 L72.6615 676.759 Q72.6615 674.34 71.5157 673.003 Q70.3699 671.666 66.1048 670.043 L63.4312 668.993 L28.3562 683.411 L28.3562 677.204 L56.238 666.064 L28.3562 654.924 L28.3562 648.718 L67.3143 664.378 Z" fill="#000000" fill-rule="nonzero" fill-opacity="1" /><path clip-path="url(#clip510)" d="M14.1925 612.37 L79.3773 612.37 L79.3773 617.781 L14.1925 617.781 L14.1925 612.37 Z" fill="#000000" fill-rule="nonzero" fill-opacity="1" /><path clip-path="url(#clip510)" d="M18.0438 569.21 L24.314 569.21 Q22.5634 572.871 21.704 576.117 Q20.8447 579.364 20.8447 582.387 Q20.8447 587.639 22.8817 590.504 Q24.9187 593.336 28.6745 593.336 Q31.8255 593.336 33.4488 591.458 Q35.0402 589.549 36.0269 584.265 L36.8226 580.382 Q38.1912 573.189 41.6605 569.783 Q45.098 566.346 50.8908 566.346 Q57.7976 566.346 61.3624 570.993 Q64.9272 575.608 64.9272 584.552 Q64.9272 587.925 64.1633 591.745 Q63.3994 595.532 61.9035 599.607 L55.2831 599.607 Q57.4793 595.692 58.5933 591.936 Q59.7073 588.18 59.7073 584.552 Q59.7073 579.045 57.543 576.053 Q55.3786 573.062 51.3682 573.062 Q47.8671 573.062 45.8937 575.226 Q43.9204 577.358 42.9337 582.26 L42.1698 586.175 Q40.7375 593.368 37.682 596.583 Q34.6264 599.797 29.1837 599.797 Q22.8817 599.797 19.2532 595.373 Q15.6248 590.917 15.6248 583.119 Q15.6248 579.777 16.2295 576.308 Q16.8343 572.839 18.0438 569.21 Z" fill="#000000" fill-rule="nonzero" fill-opacity="1" /><path clip-path="url(#clip510)" d="M58.5933 554.633 L58.5933 544.129 L22.3406 544.129 L24.6323 555.556 L18.7758 555.556 L16.4842 544.193 L16.4842 537.764 L58.5933 537.764 L58.5933 527.26 L64.0042 527.26 L64.0042 554.633 L58.5933 554.633 Z" fill="#000000" fill-rule="nonzero" fill-opacity="1" /><path clip-path="url(#clip510)" d="M58.5933 513.16 L58.5933 502.657 L22.3406 502.657 L24.6323 514.083 L18.7758 514.083 L16.4842 502.72 L16.4842 496.291 L58.5933 496.291 L58.5933 485.788 L64.0042 485.788 L64.0042 513.16 L58.5933 513.16 Z" fill="#000000" fill-rule="nonzero" fill-opacity="1" /><path clip-path="url(#clip510)" d="M14.1925 466.086 L79.3773 466.086 L79.3773 471.497 L14.1925 471.497 L14.1925 466.086 Z" fill="#000000" fill-rule="nonzero" fill-opacity="1" /><polyline clip-path="url(#clip512)" style="stroke:#009af9; stroke-linecap:round; stroke-linejoin:round; stroke-width:4; stroke-opacity:1; fill:none" points="338.848,121.505 340.805,121.259 342.762,121.015 344.719,120.774 346.676,120.536 348.634,120.3 350.591,120.067 352.548,119.836 354.505,119.608 356.462,119.383 358.42,119.16 360.377,118.939 362.334,118.721 364.291,118.505 366.248,118.292 368.206,118.08 370.163,117.872 372.12,117.665 374.077,117.461 376.034,117.259 377.992,117.059 379.949,116.861 381.906,116.666 383.863,116.472 385.821,116.281 387.778,116.092 389.735,115.905 391.692,115.72 393.649,115.537 395.607,115.356 397.564,115.177 399.521,115 401.478,114.825 403.435,114.651 405.393,114.48 407.35,114.31 409.307,114.143 411.264,113.977 413.221,113.813 415.179,113.651 417.136,113.491 419.093,113.332 421.05,113.175 423.007,113.02 424.965,112.867 426.922,112.715 428.879,112.565 430.836,112.416 432.794,112.27 434.751,112.125 436.708,111.981 438.665,111.839 440.622,111.699 442.58,111.56 444.537,111.423 446.494,111.287 448.451,111.153 450.408,111.021 452.366,110.89 454.323,110.76 456.28,110.632 458.237,110.505 460.194,110.38 462.152,110.256 464.109,110.134 466.066,110.013 468.023,109.894 469.98,109.775 471.938,109.659 473.895,109.543 475.852,109.429 477.809,109.317 479.767,109.205 481.724,109.095 483.681,108.986 485.638,108.879 487.595,108.773 489.553,108.668 491.51,108.564 493.467,108.462 495.424,108.361 497.381,108.261 499.339,108.162 501.296,108.065 503.253,107.969 505.21,107.874 507.167,107.78 509.125,107.688 511.082,107.596 513.039,107.506 514.996,107.417 516.953,107.329 518.911,107.242 520.868,107.157 522.825,107.072 524.782,106.989 526.74,106.907 528.697,106.826 530.654,106.746 532.611,106.667 534.568,106.589 536.526,106.512 538.483,106.437 540.44,106.362 542.397,106.289 544.354,106.216 546.312,106.145 548.269,106.074 550.226,106.005 552.183,105.937 554.14,105.87 556.098,105.804 558.055,105.739 560.012,105.675 561.969,105.611 563.926,105.549 565.884,105.488 567.841,105.428 569.798,105.369 571.755,105.311 573.713,105.254 575.67,105.198 577.627,105.143 579.584,105.089 581.541,105.036 583.499,104.984 585.456,104.933 587.413,104.882 589.37,104.833 591.327,104.785 593.285,104.738 595.242,104.691 597.199,104.646 599.156,104.602 601.113,104.558 603.071,104.516 605.028,104.474 606.985,104.433 608.942,104.394 610.899,104.355 612.857,104.317 614.814,104.28 616.771,104.244 618.728,104.209 620.686,104.175 622.643,104.142 624.6,104.11 626.557,104.079 628.514,104.048 630.472,104.019 632.429,103.99 634.386,103.963 636.343,103.936 638.3,103.911 640.258,103.886 642.215,103.862 644.172,103.839 646.129,103.817 648.086,103.796 650.044,103.776 652.001,103.757 653.958,103.739 655.915,103.721 657.872,103.705 659.83,103.69 661.787,103.675 663.744,103.662 665.701,103.649 667.658,103.637 669.616,103.627 671.573,103.617 673.53,103.608 675.487,103.6 677.445,103.593 679.402,103.587 681.359,103.582 683.316,103.578 685.273,103.575 687.231,103.573 689.188,103.572 691.145,103.571 693.102,103.572 695.059,103.574 697.017,103.577 698.974,103.581 700.931,103.585 702.888,103.591 704.845,103.598 706.803,103.605 708.76,103.614 710.717,103.624 712.674,103.635 714.631,103.647 716.589,103.659 718.546,103.673 720.503,103.688 722.46,103.704 724.418,103.721 726.375,103.739 728.332,103.758 730.289,103.779 732.246,103.8 734.204,103.822 736.161,103.846 738.118,103.87 740.075,103.896 742.032,103.923 743.99,103.951 745.947,103.98 747.904,104.01 749.861,104.041 751.818,104.074 753.776,104.107 755.733,104.142 757.69,104.178 759.647,104.215 761.604,104.254 763.562,104.293 765.519,104.334 767.476,104.376 769.433,104.419 771.391,104.464 773.348,104.51 775.305,104.557 777.262,104.605 779.219,104.655 781.177,104.706 783.134,104.758 785.091,104.812 787.048,104.867 789.005,104.923 790.963,104.981 792.92,105.04 794.877,105.101 796.834,105.163 798.791,105.226 800.749,105.291 802.706,105.358 804.663,105.425 806.62,105.495 808.577,105.566 810.535,105.638 812.492,105.712 814.449,105.788 816.406,105.865 818.364,105.943 820.321,106.024 822.278,106.106 824.235,106.19 826.192,106.275 828.15,106.362 830.107,106.451 832.064,106.541 834.021,106.634 835.978,106.728 837.936,106.824 839.893,106.922 841.85,107.021 843.807,107.123 845.764,107.227 847.722,107.332 849.679,107.439 851.636,107.549 853.593,107.66 855.55,107.774 857.508,107.89 859.465,108.007 861.422,108.127 863.379,108.249 865.337,108.374 867.294,108.5 869.251,108.629 871.208,108.76 873.165,108.894 875.123,109.03 877.08,109.168 879.037,109.309 880.994,109.452 882.951,109.598 884.909,109.746 886.866,109.897 888.823,110.051 890.78,110.207 892.737,110.366 894.695,110.528 896.652,110.693 898.609,110.86 900.566,111.031 902.523,111.204 904.481,111.381 906.438,111.561 908.395,111.744 910.352,111.93 912.309,112.119 914.267,112.311 916.224,112.507 918.181,112.707 920.138,112.91 922.096,113.116 924.053,113.326 926.01,113.54 927.967,113.757 929.924,113.978 931.882,114.204 933.839,114.433 935.796,114.666 937.753,114.903 939.71,115.145 941.668,115.391 943.625,115.641 945.582,115.895 947.539,116.154 949.496,116.418 951.454,116.687 953.411,116.96 955.368,117.238 957.325,117.521 959.282,117.81 961.24,118.103 963.197,118.402 965.154,118.706 967.111,119.016 969.069,119.331 971.026,119.653 972.983,119.98 974.94,120.313 976.897,120.653 978.855,120.998 980.812,121.35 982.769,121.709 984.726,122.075 986.683,122.447 988.641,122.826 990.598,123.213 992.555,123.607 994.512,124.008 996.469,124.417 998.427,124.834 1000.38,125.259 1002.34,125.693 1004.3,126.135 1006.26,126.585 1008.21,127.044 1010.17,127.513 1012.13,127.99 1014.08,128.478 1016.04,128.975 1018,129.481 1019.96,129.999 1021.91,130.526 1023.87,131.065 1025.83,131.614 1027.78,132.175 1029.74,132.748 1031.7,133.332 1033.66,133.929 1035.61,134.538 1037.57,135.16 1039.53,135.795 1041.49,136.444 1043.44,137.107 1045.4,137.784 1047.36,138.476 1049.31,139.182 1051.27,139.905 1053.23,140.644 1055.19,141.398 1057.14,142.17 1059.1,142.959 1061.06,143.767 1063.01,144.592 1064.97,145.437 1066.93,146.3 1068.89,147.184 1070.84,148.089 1072.8,149.015 1074.76,149.963 1076.71,150.933 1078.67,151.927 1080.63,152.945 1082.59,153.988 1084.54,155.056 1086.5,156.15 1088.46,157.272 1090.42,158.421 1092.37,159.6 1094.33,160.808 1096.29,162.048 1098.24,163.319 1100.2,164.623 1102.16,165.962 1104.12,167.335 1106.07,168.745 1108.03,170.193 1109.99,171.679 1111.94,173.206 1113.9,174.775 1115.86,176.386 1117.82,178.043 1119.77,179.746 1121.73,181.497 1123.69,183.298 1125.65,185.15 1127.6,187.056 1129.56,189.018 1131.52,191.037 1133.47,193.116 1135.43,195.258 1137.39,197.463 1139.35,199.736 1141.3,202.079 1143.26,204.494 1145.22,206.984 1147.17,209.553 1149.13,212.203 1151.09,214.938 1153.05,217.761 1155,220.677 1156.96,223.688 1158.92,226.8 1160.87,230.015 1162.83,233.34 1164.79,236.777 1166.75,240.333 1168.7,244.013 1170.66,247.821 1172.62,251.764 1174.58,255.848 1176.53,260.079 1178.49,264.464 1180.45,269.01 1182.4,273.725 1184.36,278.615 1186.32,283.69 1188.28,288.958 1190.23,294.429 1192.19,300.112 1194.15,306.017 1196.1,312.155 1198.06,318.538 1200.02,325.177 1201.98,332.084 1203.93,339.274 1205.89,346.761 1207.85,354.558 1209.81,362.681 1211.76,371.147 1213.72,379.973 1215.68,389.177 1217.63,398.777 1219.59,408.794 1221.55,419.247 1223.51,430.159 1225.46,441.552 1227.42,453.45 1229.38,465.876 1231.33,478.857 1233.29,492.417 1235.25,506.585 1237.21,521.386 1239.16,536.848 1241.12,553 1243.08,569.87 1245.03,587.485 1246.99,605.873 1248.95,625.059 1250.91,645.067 1252.86,665.921 1254.82,687.638 1256.78,710.235 1258.74,733.723 1260.69,758.105 1262.65,783.381 1264.61,809.537 1266.56,836.554 1268.52,864.398 1270.48,893.022 1272.44,922.362 1274.39,952.339 1276.35,982.852 1278.31,1013.78 1280.26,1044.97 1282.22,1076.27 1284.18,1107.47 1286.14,1138.35 1288.09,1168.68 1290.05,1198.17 1292.01,1226.56 1293.97,1253.53 1295.92,1278.77 1297.88,1301.97 1299.84,1322.82 1301.79,1341.02 1303.75,1356.32 1305.71,1368.46 1307.67,1377.24 1309.62,1382.54 1311.58,1384.24 1313.54,1382.32 1315.49,1376.8 1317.45,1367.77 1319.41,1355.37 1321.37,1339.8 1323.32,1321.29 1325.28,1300.1 1327.24,1276.53 1329.19,1250.9 1331.15,1223.51 1333.11,1194.69 1335.07,1164.74 1337.02,1133.94 1338.98,1102.58 1340.94,1070.9 1342.9,1039.13 1344.85,1007.46 1346.81,976.067 1348.77,945.103 1350.72,914.69 1352.68,884.933 1354.64,855.912 1356.6,827.693 1358.55,800.323 1360.51,773.836 1362.47,748.254 1364.42,723.588 1366.38,699.84 1368.34,677.004 1370.3,655.069 1372.25,634.02 1374.21,613.835 1376.17,594.491 1378.13,575.963 1380.08,558.225 1382.04,541.248 1384,525.002 1385.95,509.46 1387.91,494.593 1389.87,480.371 1391.83,466.766 1393.78,453.752 1395.74,441.3 1397.7,429.386 1399.65,417.985 1401.61,407.071 1403.57,396.623 1405.53,386.617 1407.48,377.033 1409.44,367.85 1411.4,359.049 1413.35,350.612 1415.31,342.521 1417.27,334.76 1419.23,327.312 1421.18,320.163 1423.14,313.298 1425.1,306.704 1427.06,300.368 1429.01,294.278 1430.97,288.423 1432.93,282.79 1434.88,277.371 1436.84,272.154 1438.8,267.132 1440.76,262.294 1442.71,257.633 1444.67,253.14 1446.63,248.809 1448.58,244.631 1450.54,240.601 1452.5,236.711 1454.46,232.955 1456.41,229.329 1458.37,225.825 1460.33,222.44 1462.28,219.167 1464.24,216.002 1466.2,212.942 1468.16,209.98 1470.11,207.114 1472.07,204.339 1474.03,201.653 1475.99,199.05 1477.94,196.528 1479.9,194.084 1481.86,191.715 1483.81,189.417 1485.77,187.188 1487.73,185.026 1489.69,182.927 1491.64,180.89 1493.6,178.912 1495.56,176.991 1497.51,175.125 1499.47,173.311 1501.43,171.548 1503.39,169.835 1505.34,168.169 1507.3,166.548 1509.26,164.972 1511.22,163.438 1513.17,161.945 1515.13,160.491 1517.09,159.076 1519.04,157.698 1521,156.355 1522.96,155.047 1524.92,153.773 1526.87,152.53 1528.83,151.319 1530.79,150.138 1532.74,148.986 1534.7,147.863 1536.66,146.767 1538.62,145.697 1540.57,144.654 1542.53,143.635 1544.49,142.64 1546.44,141.668 1548.4,140.72 1550.36,139.793 1552.32,138.888 1554.27,138.003 1556.23,137.138 1558.19,136.293 1560.15,135.467 1562.1,134.659 1564.06,133.869 1566.02,133.096 1567.97,132.34 1569.93,131.601 1571.89,130.877 1573.85,130.169 1575.8,129.476 1577.76,128.797 1579.72,128.133 1581.67,127.482 1583.63,126.845 1585.59,126.221 1587.55,125.609 1589.5,125.01 1591.46,124.424 1593.42,123.848 1595.38,123.285 1597.33,122.732 1599.29,122.19 1601.25,121.659 1603.2,121.138 1605.16,120.628 1607.12,120.127 1609.08,119.635 1611.03,119.153 1612.99,118.68 1614.95,118.216 1616.9,117.76 1618.86,117.313 1620.82,116.874 1622.78,116.444 1624.73,116.021 1626.69,115.605 1628.65,115.197 1630.6,114.797 1632.56,114.403 1634.52,114.017 1636.48,113.637 1638.43,113.264 1640.39,112.897 1642.35,112.537 1644.31,112.183 1646.26,111.835 1648.22,111.493 1650.18,111.157 1652.13,110.826 1654.09,110.501 1656.05,110.182 1658.01,109.867 1659.96,109.558 1661.92,109.254 1663.88,108.955 1665.83,108.661 1667.79,108.371 1669.75,108.087 1671.71,107.806 1673.66,107.531 1675.62,107.259 1677.58,106.992 1679.54,106.729 1681.49,106.47 1683.45,106.215 1685.41,105.964 1687.36,105.717 1689.32,105.474 1691.28,105.235 1693.24,104.999 1695.19,104.767 1697.15,104.538 1699.11,104.312 1701.06,104.09 1703.02,103.871 1704.98,103.656 1706.94,103.444 1708.89,103.234 1710.85,103.028 1712.81,102.825 1714.76,102.625 1716.72,102.427 1718.68,102.233 1720.64,102.041 1722.59,101.852 1724.55,101.665 1726.51,101.482 1728.47,101.3 1730.42,101.122 1732.38,100.945 1734.34,100.772 1736.29,100.6 1738.25,100.431 1740.21,100.264 1742.17,100.1 1744.12,99.9377 1746.08,99.7776 1748.04,99.6197 1749.99,99.464 1751.95,99.3102 1753.91,99.1586 1755.87,99.0089 1757.82,98.8612 1759.78,98.7154 1761.74,98.5716 1763.69,98.4296 1765.65,98.2894 1767.61,98.1511 1769.57,98.0145 1771.52,97.8797 1773.48,97.7466 1775.44,97.6152 1777.4,97.4855 1779.35,97.3574 1781.31,97.2309 1783.27,97.106 1785.22,96.9827 1787.18,96.8609 1789.14,96.7406 1791.1,96.6217 1793.05,96.5044 1795.01,96.3885 1796.97,96.274 1798.92,96.1609 1800.88,96.0492 1802.84,95.9388 1804.8,95.8297 1806.75,95.722 1808.71,95.6156 1810.67,95.5104 1812.63,95.4064 1814.58,95.3037 1816.54,95.2023 1818.5,95.102 1820.45,95.0029 1822.41,94.9049 1824.37,94.8081 1826.33,94.7124 1828.28,94.6178 1830.24,94.5243 1832.2,94.4319 1834.15,94.3406 1836.11,94.2503 1838.07,94.161 1840.03,94.0727 1841.98,93.9854 1843.94,93.8992 1845.9,93.8138 1847.85,93.7295 1849.81,93.6461 1851.77,93.5636 1853.73,93.482 1855.68,93.4014 1857.64,93.3216 1859.6,93.2427 1861.56,93.1647 1863.51,93.0876 1865.47,93.0112 1867.43,92.9358 1869.38,92.8611 1871.34,92.7872 1873.3,92.7142 1875.26,92.6419 1877.21,92.5704 1879.17,92.4997 1881.13,92.4297 1883.08,92.3605 1885.04,92.292 1887,92.2242 1888.96,92.1572 1890.91,92.0909 1892.87,92.0252 1894.83,91.9603 1896.79,91.896 1898.74,91.8324 1900.7,91.7695 1902.66,91.7072 1904.61,91.6455 1906.57,91.5845 1908.53,91.5242 1910.49,91.4644 1912.44,91.4053 1914.4,91.3468 1916.36,91.2888 1918.31,91.2315 1920.27,91.1747 1922.23,91.1185 1924.19,91.0629 1926.14,91.0079 1928.1,90.9534 1930.06,90.8994 1932.01,90.846 1933.97,90.7932 1935.93,90.7408 1937.89,90.689 1939.84,90.6377 1941.8,90.5869 1943.76,90.5366 1945.72,90.4868 1947.67,90.4375 1949.63,90.3887 1951.59,90.3403 1953.54,90.2924 1955.5,90.245 1957.46,90.1981 1959.42,90.1516 1961.37,90.1056 1963.33,90.06 1965.29,90.0149 1967.24,89.9702 1969.2,89.9259 1971.16,89.8821 1973.12,89.8387 1975.07,89.7956 1977.03,89.7531 1978.99,89.7109 1980.95,89.6691 1982.9,89.6277 1984.86,89.5867 1986.82,89.5461 1988.77,89.5059 1990.73,89.4661 1992.69,89.4266 1994.65,89.3875 1996.6,89.3488 1998.56,89.3105 2000.52,89.2725 2002.47,89.2348 2004.43,89.1976 2006.39,89.1606 2008.35,89.124 2010.3,89.0878 2012.26,89.0519 2014.22,89.0163 2016.17,88.9811 2018.13,88.9461 2020.09,88.9115 2022.05,88.8773 2024,88.8433 2025.96,88.8097 2027.92,88.7763 2029.88,88.7433 2031.83,88.7106 2033.79,88.6782 2035.75,88.6461 2037.7,88.6142 2039.66,88.5827 2041.62,88.5514 2043.58,88.5205 2045.53,88.4898 2047.49,88.4594 2049.45,88.4293 2051.4,88.3994 2053.36,88.3698 2055.32,88.3405 2057.28,88.3115 2059.23,88.2827 2061.19,88.2542 2063.15,88.2259 2065.11,88.1979 2067.06,88.1702 2069.02,88.1427 2070.98,88.1154 2072.93,88.0884 2074.89,88.0616 2076.85,88.0351 2078.81,88.0088 2080.76,87.9828 2082.72,87.9569 2084.68,87.9314 2086.63,87.906 2088.59,87.8809 2090.55,87.856 2092.51,87.8313 2094.46,87.8068 2096.42,87.7826 2098.38,87.7586 2100.33,87.7348 2102.29,87.7112 2104.25,87.6878 2106.21,87.6646 2108.16,87.6417 2110.12,87.6189 2112.08,87.5963 2114.04,87.574 2115.99,87.5518 2117.95,87.5299 2119.91,87.5081 2121.86,87.4865 2123.82,87.4651 2125.78,87.444 2127.74,87.423 2129.69,87.4021 2131.65,87.3815 2133.61,87.3611 2135.56,87.3408 2137.52,87.3207 2139.48,87.3008 2141.44,87.2811 2143.39,87.2616 2145.35,87.2422 2147.31,87.223 2149.26,87.204 2151.22,87.1851 2153.18,87.1664 2155.14,87.1479 2157.09,87.1296 2159.05,87.1114 2161.01,87.0933 2162.97,87.0755 2164.92,87.0578 2166.88,87.0402 2168.84,87.0228 2170.79,87.0056 2172.75,86.9885 2174.71,86.9716 2176.67,86.9548 2178.62,86.9382 2180.58,86.9217 2182.54,86.9054 2184.49,86.8892 2186.45,86.8731 2188.41,86.8573 2190.37,86.8415 2192.32,86.8259 2194.28,86.8104 2196.24,86.7951 2198.2,86.7799 2200.15,86.7649 2202.11,86.75 2204.07,86.7352 2206.02,86.7206 2207.98,86.7061 2209.94,86.6917 2211.9,86.6775 2213.85,86.6633 2215.81,86.6494 2217.77,86.6355 2219.72,86.6218 2221.68,86.6082 2223.64,86.5947 2225.6,86.5814 2227.55,86.5681 2229.51,86.555 2231.47,86.5421 2233.42,86.5292 2235.38,86.5165 2237.34,86.5038 2239.3,86.4913 2241.25,86.4789 2243.21,86.4667 2245.17,86.4545 2247.13,86.4425 2249.08,86.4305 2251.04,86.4187 2253,86.407 2254.95,86.3954 2256.91,86.3839 2258.87,86.3726 2260.83,86.3613 2262.78,86.3501 2264.74,86.3391 2266.7,86.3282 2268.65,86.3173 2270.61,86.3066 2272.57,86.296 2274.53,86.2854 2276.48,86.275 2278.44,86.2647 2280.4,86.2545 2282.36,86.2443 2284.31,86.2343 2286.27,86.2244 2288.23,86.2146 2290.18,86.2048 2292.14,86.1952 2294.1,86.1857 "/>
<polyline clip-path="url(#clip512)" style="stroke:#ff0000; stroke-linecap:round; stroke-linejoin:round; stroke-width:4; stroke-opacity:1; fill:none" points="1267.59,2799.12 1267.59,-1328.69 "/>
<polyline clip-path="url(#clip512)" style="stroke:#ff0000; stroke-linecap:round; stroke-linejoin:round; stroke-width:4; stroke-opacity:1; fill:none" points="1365.35,2799.12 1365.35,-1328.69 "/>
</svg>
