<?xml version="1.0" encoding="utf-8"?>
<svg xmlns="http://www.w3.org/2000/svg" xmlns:xlink="http://www.w3.org/1999/xlink" width="600" height="400" viewBox="0 0 2400 1600">
<defs>
  <clipPath id="clip750">
    <rect x="0" y="0" width="2400" height="1600"/>
  </clipPath>
</defs>
<path clip-path="url(#clip750)" d="M0 1600 L2400 1600 L2400 0 L0 0  Z" fill="#ffffff" fill-rule="evenodd" fill-opacity="1"/>
<defs>
  <clipPath id="clip751">
    <rect x="480" y="0" width="1681" height="1600"/>
  </clipPath>
</defs>
<path clip-path="url(#clip750)" d="M367.967 1423.18 L2352.76 1423.18 L2352.76 47.2441 L367.967 47.2441  Z" fill="#ffffff" fill-rule="evenodd" fill-opacity="1"/>
<defs>
  <clipPath id="clip752">
    <rect x="367" y="47" width="1986" height="1377"/>
  </clipPath>
</defs>
<polyline clip-path="url(#clip752)" style="stroke:#000000; stroke-linecap:round; stroke-linejoin:round; stroke-width:2; stroke-opacity:0.1; fill:none" points="611.385,1423.18 611.385,47.2441 "/>
<polyline clip-path="url(#clip752)" style="stroke:#000000; stroke-linecap:round; stroke-linejoin:round; stroke-width:2; stroke-opacity:0.1; fill:none" points="985.873,1423.18 985.873,47.2441 "/>
<polyline clip-path="url(#clip752)" style="stroke:#000000; stroke-linecap:round; stroke-linejoin:round; stroke-width:2; stroke-opacity:0.1; fill:none" points="1360.36,1423.18 1360.36,47.2441 "/>
<polyline clip-path="url(#clip752)" style="stroke:#000000; stroke-linecap:round; stroke-linejoin:round; stroke-width:2; stroke-opacity:0.1; fill:none" points="1734.85,1423.18 1734.85,47.2441 "/>
<polyline clip-path="url(#clip752)" style="stroke:#000000; stroke-linecap:round; stroke-linejoin:round; stroke-width:2; stroke-opacity:0.1; fill:none" points="2109.34,1423.18 2109.34,47.2441 "/>
<polyline clip-path="url(#clip752)" style="stroke:#000000; stroke-linecap:round; stroke-linejoin:round; stroke-width:2; stroke-opacity:0.1; fill:none" points="367.967,1384.24 2352.76,1384.24 "/>
<polyline clip-path="url(#clip752)" style="stroke:#000000; stroke-linecap:round; stroke-linejoin:round; stroke-width:2; stroke-opacity:0.1; fill:none" points="367.967,980.473 2352.76,980.473 "/>
<polyline clip-path="url(#clip752)" style="stroke:#000000; stroke-linecap:round; stroke-linejoin:round; stroke-width:2; stroke-opacity:0.1; fill:none" points="367.967,576.708 2352.76,576.708 "/>
<polyline clip-path="url(#clip752)" style="stroke:#000000; stroke-linecap:round; stroke-linejoin:round; stroke-width:2; stroke-opacity:0.1; fill:none" points="367.967,172.942 2352.76,172.942 "/>
<polyline clip-path="url(#clip750)" style="stroke:#000000; stroke-linecap:round; stroke-linejoin:round; stroke-width:4; stroke-opacity:1; fill:none" points="367.967,1423.18 2352.76,1423.18 "/>
<polyline clip-path="url(#clip750)" style="stroke:#000000; stroke-linecap:round; stroke-linejoin:round; stroke-width:4; stroke-opacity:1; fill:none" points="611.385,1423.18 611.385,1404.28 "/>
<polyline clip-path="url(#clip750)" style="stroke:#000000; stroke-linecap:round; stroke-linejoin:round; stroke-width:4; stroke-opacity:1; fill:none" points="985.873,1423.18 985.873,1404.28 "/>
<polyline clip-path="url(#clip750)" style="stroke:#000000; stroke-linecap:round; stroke-linejoin:round; stroke-width:4; stroke-opacity:1; fill:none" points="1360.36,1423.18 1360.36,1404.28 "/>
<polyline clip-path="url(#clip750)" style="stroke:#000000; stroke-linecap:round; stroke-linejoin:round; stroke-width:4; stroke-opacity:1; fill:none" points="1734.85,1423.18 1734.85,1404.28 "/>
<polyline clip-path="url(#clip750)" style="stroke:#000000; stroke-linecap:round; stroke-linejoin:round; stroke-width:4; stroke-opacity:1; fill:none" points="2109.34,1423.18 2109.34,1404.28 "/>
<path clip-path="url(#clip750)" d="M567.461 1481.64 L583.781 1481.64 L583.781 1485.58 L561.836 1485.58 L561.836 1481.64 Q564.498 1478.89 569.082 1474.26 Q573.688 1469.61 574.869 1468.27 Q577.114 1465.74 577.994 1464.01 Q578.897 1462.25 578.897 1460.56 Q578.897 1457.8 576.952 1456.07 Q575.031 1454.33 571.929 1454.33 Q569.73 1454.33 567.276 1455.09 Q564.846 1455.86 562.068 1457.41 L562.068 1452.69 Q564.892 1451.55 567.346 1450.97 Q569.799 1450.39 571.836 1450.39 Q577.207 1450.39 580.401 1453.08 Q583.596 1455.77 583.596 1460.26 Q583.596 1462.39 582.785 1464.31 Q581.998 1466.2 579.892 1468.8 Q579.313 1469.47 576.211 1472.69 Q573.11 1475.88 567.461 1481.64 Z" fill="#000000" fill-rule="nonzero" fill-opacity="1" /><path clip-path="url(#clip750)" d="M603.595 1454.1 Q599.984 1454.1 598.156 1457.66 Q596.35 1461.2 596.35 1468.33 Q596.35 1475.44 598.156 1479.01 Q599.984 1482.55 603.595 1482.55 Q607.23 1482.55 609.035 1479.01 Q610.864 1475.44 610.864 1468.33 Q610.864 1461.2 609.035 1457.66 Q607.23 1454.1 603.595 1454.1 M603.595 1450.39 Q609.406 1450.39 612.461 1455 Q615.54 1459.58 615.54 1468.33 Q615.54 1477.06 612.461 1481.67 Q609.406 1486.25 603.595 1486.25 Q597.785 1486.25 594.707 1481.67 Q591.651 1477.06 591.651 1468.33 Q591.651 1459.58 594.707 1455 Q597.785 1450.39 603.595 1450.39 Z" fill="#000000" fill-rule="nonzero" fill-opacity="1" /><path clip-path="url(#clip750)" d="M623.757 1479.7 L628.642 1479.7 L628.642 1485.58 L623.757 1485.58 L623.757 1479.7 Z" fill="#000000" fill-rule="nonzero" fill-opacity="1" /><path clip-path="url(#clip750)" d="M649.405 1466.44 Q646.257 1466.44 644.405 1468.59 Q642.577 1470.74 642.577 1474.49 Q642.577 1478.22 644.405 1480.39 Q646.257 1482.55 649.405 1482.55 Q652.554 1482.55 654.382 1480.39 Q656.234 1478.22 656.234 1474.49 Q656.234 1470.74 654.382 1468.59 Q652.554 1466.44 649.405 1466.44 M658.688 1451.78 L658.688 1456.04 Q656.929 1455.21 655.123 1454.77 Q653.341 1454.33 651.581 1454.33 Q646.952 1454.33 644.498 1457.45 Q642.067 1460.58 641.72 1466.9 Q643.086 1464.89 645.146 1463.82 Q647.206 1462.73 649.683 1462.73 Q654.892 1462.73 657.901 1465.9 Q660.933 1469.05 660.933 1474.49 Q660.933 1479.82 657.785 1483.03 Q654.637 1486.25 649.405 1486.25 Q643.41 1486.25 640.239 1481.67 Q637.068 1477.06 637.068 1468.33 Q637.068 1460.14 640.956 1455.28 Q644.845 1450.39 651.396 1450.39 Q653.155 1450.39 654.938 1450.74 Q656.743 1451.09 658.688 1451.78 Z" fill="#000000" fill-rule="nonzero" fill-opacity="1" /><path clip-path="url(#clip750)" d="M942.077 1481.64 L958.396 1481.64 L958.396 1485.58 L936.452 1485.58 L936.452 1481.64 Q939.114 1478.89 943.698 1474.26 Q948.304 1469.61 949.485 1468.27 Q951.73 1465.74 952.609 1464.01 Q953.512 1462.25 953.512 1460.56 Q953.512 1457.8 951.568 1456.07 Q949.647 1454.33 946.545 1454.33 Q944.346 1454.33 941.892 1455.09 Q939.461 1455.86 936.684 1457.41 L936.684 1452.69 Q939.508 1451.55 941.961 1450.97 Q944.415 1450.39 946.452 1450.39 Q951.822 1450.39 955.017 1453.08 Q958.211 1455.77 958.211 1460.26 Q958.211 1462.39 957.401 1464.31 Q956.614 1466.2 954.508 1468.8 Q953.929 1469.47 950.827 1472.69 Q947.725 1475.88 942.077 1481.64 Z" fill="#000000" fill-rule="nonzero" fill-opacity="1" /><path clip-path="url(#clip750)" d="M978.211 1454.1 Q974.6 1454.1 972.771 1457.66 Q970.966 1461.2 970.966 1468.33 Q970.966 1475.44 972.771 1479.01 Q974.6 1482.55 978.211 1482.55 Q981.845 1482.55 983.651 1479.01 Q985.48 1475.44 985.48 1468.33 Q985.48 1461.2 983.651 1457.66 Q981.845 1454.1 978.211 1454.1 M978.211 1450.39 Q984.021 1450.39 987.077 1455 Q990.156 1459.58 990.156 1468.33 Q990.156 1477.06 987.077 1481.67 Q984.021 1486.25 978.211 1486.25 Q972.401 1486.25 969.322 1481.67 Q966.267 1477.06 966.267 1468.33 Q966.267 1459.58 969.322 1455 Q972.401 1450.39 978.211 1450.39 Z" fill="#000000" fill-rule="nonzero" fill-opacity="1" /><path clip-path="url(#clip750)" d="M998.373 1479.7 L1003.26 1479.7 L1003.26 1485.58 L998.373 1485.58 L998.373 1479.7 Z" fill="#000000" fill-rule="nonzero" fill-opacity="1" /><path clip-path="url(#clip750)" d="M1023.44 1469.17 Q1020.11 1469.17 1018.19 1470.95 Q1016.29 1472.73 1016.29 1475.86 Q1016.29 1478.98 1018.19 1480.77 Q1020.11 1482.55 1023.44 1482.55 Q1026.78 1482.55 1028.7 1480.77 Q1030.62 1478.96 1030.62 1475.86 Q1030.62 1472.73 1028.7 1470.95 Q1026.8 1469.17 1023.44 1469.17 M1018.77 1467.18 Q1015.76 1466.44 1014.07 1464.38 Q1012.4 1462.32 1012.4 1459.35 Q1012.4 1455.21 1015.34 1452.8 Q1018.3 1450.39 1023.44 1450.39 Q1028.6 1450.39 1031.54 1452.8 Q1034.48 1455.21 1034.48 1459.35 Q1034.48 1462.32 1032.79 1464.38 Q1031.13 1466.44 1028.14 1467.18 Q1031.52 1467.96 1033.4 1470.26 Q1035.29 1472.55 1035.29 1475.86 Q1035.29 1480.88 1032.22 1483.57 Q1029.16 1486.25 1023.44 1486.25 Q1017.72 1486.25 1014.65 1483.57 Q1011.59 1480.88 1011.59 1475.86 Q1011.59 1472.55 1013.49 1470.26 Q1015.39 1467.96 1018.77 1467.18 M1017.05 1459.79 Q1017.05 1462.48 1018.72 1463.98 Q1020.41 1465.49 1023.44 1465.49 Q1026.45 1465.49 1028.14 1463.98 Q1029.85 1462.48 1029.85 1459.79 Q1029.85 1457.11 1028.14 1455.6 Q1026.45 1454.1 1023.44 1454.1 Q1020.41 1454.1 1018.72 1455.6 Q1017.05 1457.11 1017.05 1459.79 Z" fill="#000000" fill-rule="nonzero" fill-opacity="1" /><path clip-path="url(#clip750)" d="M1316.52 1481.64 L1332.84 1481.64 L1332.84 1485.58 L1310.89 1485.58 L1310.89 1481.64 Q1313.56 1478.89 1318.14 1474.26 Q1322.75 1469.61 1323.93 1468.27 Q1326.17 1465.74 1327.05 1464.01 Q1327.95 1462.25 1327.95 1460.56 Q1327.95 1457.8 1326.01 1456.07 Q1324.09 1454.33 1320.99 1454.33 Q1318.79 1454.33 1316.33 1455.09 Q1313.9 1455.86 1311.13 1457.41 L1311.13 1452.69 Q1313.95 1451.55 1316.4 1450.97 Q1318.86 1450.39 1320.89 1450.39 Q1326.26 1450.39 1329.46 1453.08 Q1332.65 1455.77 1332.65 1460.26 Q1332.65 1462.39 1331.84 1464.31 Q1331.06 1466.2 1328.95 1468.8 Q1328.37 1469.47 1325.27 1472.69 Q1322.17 1475.88 1316.52 1481.64 Z" fill="#000000" fill-rule="nonzero" fill-opacity="1" /><path clip-path="url(#clip750)" d="M1343.46 1481.64 L1351.1 1481.64 L1351.1 1455.28 L1342.79 1456.95 L1342.79 1452.69 L1351.06 1451.02 L1355.73 1451.02 L1355.73 1481.64 L1363.37 1481.64 L1363.37 1485.58 L1343.46 1485.58 L1343.46 1481.64 Z" fill="#000000" fill-rule="nonzero" fill-opacity="1" /><path clip-path="url(#clip750)" d="M1372.82 1479.7 L1377.7 1479.7 L1377.7 1485.58 L1372.82 1485.58 L1372.82 1479.7 Z" fill="#000000" fill-rule="nonzero" fill-opacity="1" /><path clip-path="url(#clip750)" d="M1397.88 1454.1 Q1394.27 1454.1 1392.44 1457.66 Q1390.64 1461.2 1390.64 1468.33 Q1390.64 1475.44 1392.44 1479.01 Q1394.27 1482.55 1397.88 1482.55 Q1401.52 1482.55 1403.32 1479.01 Q1405.15 1475.44 1405.15 1468.33 Q1405.15 1461.2 1403.32 1457.66 Q1401.52 1454.1 1397.88 1454.1 M1397.88 1450.39 Q1403.69 1450.39 1406.75 1455 Q1409.83 1459.58 1409.83 1468.33 Q1409.83 1477.06 1406.75 1481.67 Q1403.69 1486.25 1397.88 1486.25 Q1392.07 1486.25 1389 1481.67 Q1385.94 1477.06 1385.94 1468.33 Q1385.94 1459.58 1389 1455 Q1392.07 1450.39 1397.88 1450.39 Z" fill="#000000" fill-rule="nonzero" fill-opacity="1" /><path clip-path="url(#clip750)" d="M1691.81 1481.64 L1708.13 1481.64 L1708.13 1485.58 L1686.18 1485.58 L1686.18 1481.64 Q1688.84 1478.89 1693.43 1474.26 Q1698.03 1469.61 1699.21 1468.27 Q1701.46 1465.74 1702.34 1464.01 Q1703.24 1462.25 1703.24 1460.56 Q1703.24 1457.8 1701.3 1456.07 Q1699.38 1454.33 1696.27 1454.33 Q1694.07 1454.33 1691.62 1455.09 Q1689.19 1455.86 1686.41 1457.41 L1686.41 1452.69 Q1689.24 1451.55 1691.69 1450.97 Q1694.14 1450.39 1696.18 1450.39 Q1701.55 1450.39 1704.75 1453.08 Q1707.94 1455.77 1707.94 1460.26 Q1707.94 1462.39 1707.13 1464.31 Q1706.34 1466.2 1704.24 1468.8 Q1703.66 1469.47 1700.56 1472.69 Q1697.45 1475.88 1691.81 1481.64 Z" fill="#000000" fill-rule="nonzero" fill-opacity="1" /><path clip-path="url(#clip750)" d="M1718.75 1481.64 L1726.39 1481.64 L1726.39 1455.28 L1718.08 1456.95 L1718.08 1452.69 L1726.34 1451.02 L1731.02 1451.02 L1731.02 1481.64 L1738.66 1481.64 L1738.66 1485.58 L1718.75 1485.58 L1718.75 1481.64 Z" fill="#000000" fill-rule="nonzero" fill-opacity="1" /><path clip-path="url(#clip750)" d="M1748.1 1479.7 L1752.99 1479.7 L1752.99 1485.58 L1748.1 1485.58 L1748.1 1479.7 Z" fill="#000000" fill-rule="nonzero" fill-opacity="1" /><path clip-path="url(#clip750)" d="M1767.2 1481.64 L1783.52 1481.64 L1783.52 1485.58 L1761.57 1485.58 L1761.57 1481.64 Q1764.24 1478.89 1768.82 1474.26 Q1773.43 1469.61 1774.61 1468.27 Q1776.85 1465.74 1777.73 1464.01 Q1778.63 1462.25 1778.63 1460.56 Q1778.63 1457.8 1776.69 1456.07 Q1774.77 1454.33 1771.67 1454.33 Q1769.47 1454.33 1767.01 1455.09 Q1764.58 1455.86 1761.81 1457.41 L1761.81 1452.69 Q1764.63 1451.55 1767.08 1450.97 Q1769.54 1450.39 1771.57 1450.39 Q1776.94 1450.39 1780.14 1453.08 Q1783.33 1455.77 1783.33 1460.26 Q1783.33 1462.39 1782.52 1464.31 Q1781.74 1466.2 1779.63 1468.8 Q1779.05 1469.47 1775.95 1472.69 Q1772.85 1475.88 1767.2 1481.64 Z" fill="#000000" fill-rule="nonzero" fill-opacity="1" /><path clip-path="url(#clip750)" d="M2065.25 1481.64 L2081.57 1481.64 L2081.57 1485.58 L2059.63 1485.58 L2059.63 1481.64 Q2062.29 1478.89 2066.87 1474.26 Q2071.48 1469.61 2072.66 1468.27 Q2074.91 1465.74 2075.79 1464.01 Q2076.69 1462.25 2076.69 1460.56 Q2076.69 1457.8 2074.74 1456.07 Q2072.82 1454.33 2069.72 1454.33 Q2067.52 1454.33 2065.07 1455.09 Q2062.64 1455.86 2059.86 1457.41 L2059.86 1452.69 Q2062.68 1451.55 2065.14 1450.97 Q2067.59 1450.39 2069.63 1450.39 Q2075 1450.39 2078.19 1453.08 Q2081.39 1455.77 2081.39 1460.26 Q2081.39 1462.39 2080.58 1464.31 Q2079.79 1466.2 2077.68 1468.8 Q2077.1 1469.47 2074 1472.69 Q2070.9 1475.88 2065.25 1481.64 Z" fill="#000000" fill-rule="nonzero" fill-opacity="1" /><path clip-path="url(#clip750)" d="M2092.2 1481.64 L2099.84 1481.64 L2099.84 1455.28 L2091.53 1456.95 L2091.53 1452.69 L2099.79 1451.02 L2104.47 1451.02 L2104.47 1481.64 L2112.1 1481.64 L2112.1 1485.58 L2092.2 1485.58 L2092.2 1481.64 Z" fill="#000000" fill-rule="nonzero" fill-opacity="1" /><path clip-path="url(#clip750)" d="M2121.55 1479.7 L2126.43 1479.7 L2126.43 1485.58 L2121.55 1485.58 L2121.55 1479.7 Z" fill="#000000" fill-rule="nonzero" fill-opacity="1" /><path clip-path="url(#clip750)" d="M2149.47 1455.09 L2137.66 1473.54 L2149.47 1473.54 L2149.47 1455.09 M2148.24 1451.02 L2154.12 1451.02 L2154.12 1473.54 L2159.05 1473.54 L2159.05 1477.43 L2154.12 1477.43 L2154.12 1485.58 L2149.47 1485.58 L2149.47 1477.43 L2133.86 1477.43 L2133.86 1472.92 L2148.24 1451.02 Z" fill="#000000" fill-rule="nonzero" fill-opacity="1" /><path clip-path="url(#clip750)" d="M1068.53 1520.52 L1095.83 1520.52 L1095.83 1525.93 L1074.96 1525.93 L1074.96 1539.94 L1093.8 1539.94 L1093.8 1545.35 L1074.96 1545.35 L1074.96 1568.04 L1068.53 1568.04 L1068.53 1520.52 Z" fill="#000000" fill-rule="nonzero" fill-opacity="1" /><path clip-path="url(#clip750)" d="M1121.68 1537.87 Q1120.69 1537.3 1119.52 1537.04 Q1118.37 1536.76 1116.97 1536.76 Q1112 1536.76 1109.33 1540 Q1106.69 1543.22 1106.69 1549.27 L1106.69 1568.04 L1100.8 1568.04 L1100.8 1532.4 L1106.69 1532.4 L1106.69 1537.93 Q1108.53 1534.69 1111.49 1533.13 Q1114.45 1531.54 1118.69 1531.54 Q1119.29 1531.54 1120.02 1531.63 Q1120.76 1531.7 1121.65 1531.85 L1121.68 1537.87 Z" fill="#000000" fill-rule="nonzero" fill-opacity="1" /><path clip-path="url(#clip750)" d="M1156.88 1548.76 L1156.88 1551.62 L1129.95 1551.62 Q1130.34 1557.67 1133.58 1560.85 Q1136.86 1564 1142.69 1564 Q1146.06 1564 1149.21 1563.17 Q1152.39 1562.35 1155.51 1560.69 L1155.51 1566.23 Q1152.36 1567.57 1149.05 1568.27 Q1145.74 1568.97 1142.34 1568.97 Q1133.81 1568.97 1128.81 1564 Q1123.84 1559.04 1123.84 1550.57 Q1123.84 1541.82 1128.55 1536.69 Q1133.3 1531.54 1141.32 1531.54 Q1148.51 1531.54 1152.68 1536.18 Q1156.88 1540.8 1156.88 1548.76 M1151.03 1547.04 Q1150.96 1542.23 1148.32 1539.37 Q1145.71 1536.5 1141.38 1536.5 Q1136.48 1536.5 1133.52 1539.27 Q1130.59 1542.04 1130.15 1547.07 L1151.03 1547.04 Z" fill="#000000" fill-rule="nonzero" fill-opacity="1" /><path clip-path="url(#clip750)" d="M1170 1550.25 Q1170 1556.71 1172.64 1560.4 Q1175.31 1564.07 1179.96 1564.07 Q1184.6 1564.07 1187.28 1560.4 Q1189.95 1556.71 1189.95 1550.25 Q1189.95 1543.79 1187.28 1540.13 Q1184.6 1536.44 1179.96 1536.44 Q1175.31 1536.44 1172.64 1540.13 Q1170 1543.79 1170 1550.25 M1189.95 1562.7 Q1188.11 1565.88 1185.27 1567.44 Q1182.47 1568.97 1178.53 1568.97 Q1172.06 1568.97 1167.99 1563.81 Q1163.95 1558.65 1163.95 1550.25 Q1163.95 1541.85 1167.99 1536.69 Q1172.06 1531.54 1178.53 1531.54 Q1182.47 1531.54 1185.27 1533.1 Q1188.11 1534.62 1189.95 1537.81 L1189.95 1532.4 L1195.81 1532.4 L1195.81 1581.6 L1189.95 1581.6 L1189.95 1562.7 Z" fill="#000000" fill-rule="nonzero" fill-opacity="1" /><path clip-path="url(#clip750)" d="M1207.27 1553.98 L1207.27 1532.4 L1213.12 1532.4 L1213.12 1553.75 Q1213.12 1558.81 1215.1 1561.36 Q1217.07 1563.87 1221.02 1563.87 Q1225.76 1563.87 1228.5 1560.85 Q1231.27 1557.83 1231.27 1552.61 L1231.27 1532.4 L1237.12 1532.4 L1237.12 1568.04 L1231.27 1568.04 L1231.27 1562.57 Q1229.13 1565.82 1226.3 1567.41 Q1223.5 1568.97 1219.77 1568.97 Q1213.63 1568.97 1210.45 1565.15 Q1207.27 1561.33 1207.27 1553.98 M1222 1531.54 L1222 1531.54 Z" fill="#000000" fill-rule="nonzero" fill-opacity="1" /><path clip-path="url(#clip750)" d="M1279.68 1548.76 L1279.68 1551.62 L1252.75 1551.62 Q1253.13 1557.67 1256.38 1560.85 Q1259.66 1564 1265.48 1564 Q1268.85 1564 1272.01 1563.17 Q1275.19 1562.35 1278.31 1560.69 L1278.31 1566.23 Q1275.16 1567.57 1271.85 1568.27 Q1268.54 1568.97 1265.13 1568.97 Q1256.6 1568.97 1251.6 1564 Q1246.64 1559.04 1246.64 1550.57 Q1246.64 1541.82 1251.35 1536.69 Q1256.09 1531.54 1264.11 1531.54 Q1271.31 1531.54 1275.47 1536.18 Q1279.68 1540.8 1279.68 1548.76 M1273.82 1547.04 Q1273.76 1542.23 1271.11 1539.37 Q1268.5 1536.5 1264.18 1536.5 Q1259.27 1536.5 1256.31 1539.27 Q1253.39 1542.04 1252.94 1547.07 L1273.82 1547.04 Z" fill="#000000" fill-rule="nonzero" fill-opacity="1" /><path clip-path="url(#clip750)" d="M1318.92 1546.53 L1318.92 1568.04 L1313.06 1568.04 L1313.06 1546.72 Q1313.06 1541.66 1311.09 1539.14 Q1309.12 1536.63 1305.17 1536.63 Q1300.43 1536.63 1297.69 1539.65 Q1294.95 1542.68 1294.95 1547.9 L1294.95 1568.04 L1289.07 1568.04 L1289.07 1532.4 L1294.95 1532.4 L1294.95 1537.93 Q1297.05 1534.72 1299.89 1533.13 Q1302.75 1531.54 1306.48 1531.54 Q1312.62 1531.54 1315.77 1535.36 Q1318.92 1539.14 1318.92 1546.53 Z" fill="#000000" fill-rule="nonzero" fill-opacity="1" /><path clip-path="url(#clip750)" d="M1356.26 1533.76 L1356.26 1539.24 Q1353.77 1537.87 1351.26 1537.2 Q1348.78 1536.5 1346.23 1536.5 Q1340.53 1536.5 1337.38 1540.13 Q1334.23 1543.73 1334.23 1550.25 Q1334.23 1556.78 1337.38 1560.4 Q1340.53 1564 1346.23 1564 Q1348.78 1564 1351.26 1563.33 Q1353.77 1562.63 1356.26 1561.26 L1356.26 1566.68 Q1353.8 1567.82 1351.16 1568.39 Q1348.55 1568.97 1345.59 1568.97 Q1337.54 1568.97 1332.8 1563.91 Q1328.06 1558.85 1328.06 1550.25 Q1328.06 1541.53 1332.83 1536.53 Q1337.64 1531.54 1345.98 1531.54 Q1348.68 1531.54 1351.26 1532.11 Q1353.84 1532.65 1356.26 1533.76 Z" fill="#000000" fill-rule="nonzero" fill-opacity="1" /><path clip-path="url(#clip750)" d="M1366.44 1532.4 L1372.3 1532.4 L1372.3 1568.04 L1366.44 1568.04 L1366.44 1532.4 M1366.44 1518.52 L1372.3 1518.52 L1372.3 1525.93 L1366.44 1525.93 L1366.44 1518.52 Z" fill="#000000" fill-rule="nonzero" fill-opacity="1" /><path clip-path="url(#clip750)" d="M1415.04 1548.76 L1415.04 1551.62 L1388.12 1551.62 Q1388.5 1557.67 1391.74 1560.85 Q1395.02 1564 1400.85 1564 Q1404.22 1564 1407.37 1563.17 Q1410.56 1562.35 1413.67 1560.69 L1413.67 1566.23 Q1410.52 1567.57 1407.21 1568.27 Q1403.9 1568.97 1400.5 1568.97 Q1391.97 1568.97 1386.97 1564 Q1382.01 1559.04 1382.01 1550.57 Q1382.01 1541.82 1386.72 1536.69 Q1391.46 1531.54 1399.48 1531.54 Q1406.67 1531.54 1410.84 1536.18 Q1415.04 1540.8 1415.04 1548.76 M1409.19 1547.04 Q1409.12 1542.23 1406.48 1539.37 Q1403.87 1536.5 1399.54 1536.5 Q1394.64 1536.5 1391.68 1539.27 Q1388.75 1542.04 1388.31 1547.07 L1409.19 1547.04 Z" fill="#000000" fill-rule="nonzero" fill-opacity="1" /><path clip-path="url(#clip750)" d="M1447.38 1533.45 L1447.38 1538.98 Q1444.9 1537.71 1442.22 1537.07 Q1439.55 1536.44 1436.69 1536.44 Q1432.33 1536.44 1430.13 1537.77 Q1427.97 1539.11 1427.97 1541.79 Q1427.97 1543.82 1429.53 1545 Q1431.08 1546.15 1435.8 1547.2 L1437.8 1547.64 Q1444.04 1548.98 1446.65 1551.43 Q1449.29 1553.85 1449.29 1558.21 Q1449.29 1563.17 1445.34 1566.07 Q1441.43 1568.97 1434.55 1568.97 Q1431.69 1568.97 1428.57 1568.39 Q1425.48 1567.85 1422.05 1566.74 L1422.05 1560.69 Q1425.29 1562.38 1428.44 1563.24 Q1431.59 1564.07 1434.68 1564.07 Q1438.82 1564.07 1441.05 1562.66 Q1443.27 1561.23 1443.27 1558.65 Q1443.27 1556.27 1441.65 1554.99 Q1440.06 1553.72 1434.62 1552.54 L1432.58 1552.07 Q1427.14 1550.92 1424.72 1548.56 Q1422.3 1546.18 1422.3 1542.04 Q1422.3 1537.01 1425.86 1534.27 Q1429.43 1531.54 1435.99 1531.54 Q1439.23 1531.54 1442.1 1532.01 Q1444.96 1532.49 1447.38 1533.45 Z" fill="#000000" fill-rule="nonzero" fill-opacity="1" /><path clip-path="url(#clip750)" d="M1478.8 1518.52 L1492.29 1518.52 L1492.29 1523.07 L1484.65 1523.07 L1484.65 1572.09 L1492.29 1572.09 L1492.29 1576.64 L1478.8 1576.64 L1478.8 1518.52 Z" fill="#000000" fill-rule="nonzero" fill-opacity="1" /><path clip-path="url(#clip750)" d="M1537.42 1561.26 L1537.42 1548.5 L1526.92 1548.5 L1526.92 1543.22 L1543.79 1543.22 L1543.79 1563.62 Q1540.07 1566.26 1535.58 1567.63 Q1531.09 1568.97 1526 1568.97 Q1514.86 1568.97 1508.56 1562.47 Q1502.29 1555.95 1502.29 1544.33 Q1502.29 1532.68 1508.56 1526.19 Q1514.86 1519.66 1526 1519.66 Q1530.64 1519.66 1534.81 1520.81 Q1539.02 1521.96 1542.55 1524.18 L1542.55 1531.03 Q1538.98 1528 1534.97 1526.48 Q1530.96 1524.95 1526.54 1524.95 Q1517.82 1524.95 1513.43 1529.82 Q1509.06 1534.69 1509.06 1544.33 Q1509.06 1553.94 1513.43 1558.81 Q1517.82 1563.68 1526.54 1563.68 Q1529.94 1563.68 1532.62 1563.11 Q1535.29 1562.51 1537.42 1561.26 Z" fill="#000000" fill-rule="nonzero" fill-opacity="1" /><path clip-path="url(#clip750)" d="M1555.53 1520.52 L1561.96 1520.52 L1561.96 1540 L1585.33 1540 L1585.33 1520.52 L1591.76 1520.52 L1591.76 1568.04 L1585.33 1568.04 L1585.33 1545.41 L1561.96 1545.41 L1561.96 1568.04 L1555.53 1568.04 L1555.53 1520.52 Z" fill="#000000" fill-rule="nonzero" fill-opacity="1" /><path clip-path="url(#clip750)" d="M1601.75 1532.4 L1629.57 1532.4 L1629.57 1537.74 L1607.54 1563.37 L1629.57 1563.37 L1629.57 1568.04 L1600.95 1568.04 L1600.95 1562.7 L1622.98 1537.07 L1601.75 1537.07 L1601.75 1532.4 Z" fill="#000000" fill-rule="nonzero" fill-opacity="1" /><path clip-path="url(#clip750)" d="M1652.2 1518.52 L1652.2 1576.64 L1638.7 1576.64 L1638.7 1572.09 L1646.31 1572.09 L1646.31 1523.07 L1638.7 1523.07 L1638.7 1518.52 L1652.2 1518.52 Z" fill="#000000" fill-rule="nonzero" fill-opacity="1" /><polyline clip-path="url(#clip750)" style="stroke:#000000; stroke-linecap:round; stroke-linejoin:round; stroke-width:4; stroke-opacity:1; fill:none" points="367.967,1423.18 367.967,47.2441 "/>
<polyline clip-path="url(#clip750)" style="stroke:#000000; stroke-linecap:round; stroke-linejoin:round; stroke-width:4; stroke-opacity:1; fill:none" points="367.967,1384.24 386.865,1384.24 "/>
<polyline clip-path="url(#clip750)" style="stroke:#000000; stroke-linecap:round; stroke-linejoin:round; stroke-width:4; stroke-opacity:1; fill:none" points="367.967,980.473 386.865,980.473 "/>
<polyline clip-path="url(#clip750)" style="stroke:#000000; stroke-linecap:round; stroke-linejoin:round; stroke-width:4; stroke-opacity:1; fill:none" points="367.967,576.708 386.865,576.708 "/>
<polyline clip-path="url(#clip750)" style="stroke:#000000; stroke-linecap:round; stroke-linejoin:round; stroke-width:4; stroke-opacity:1; fill:none" points="367.967,172.942 386.865,172.942 "/>
<path clip-path="url(#clip750)" d="M320.023 1370.04 Q316.412 1370.04 314.583 1373.6 Q312.778 1377.14 312.778 1384.27 Q312.778 1391.38 314.583 1394.94 Q316.412 1398.49 320.023 1398.49 Q323.657 1398.49 325.463 1394.94 Q327.291 1391.38 327.291 1384.27 Q327.291 1377.14 325.463 1373.6 Q323.657 1370.04 320.023 1370.04 M320.023 1366.33 Q325.833 1366.33 328.889 1370.94 Q331.967 1375.52 331.967 1384.27 Q331.967 1393 328.889 1397.61 Q325.833 1402.19 320.023 1402.19 Q314.213 1402.19 311.134 1397.61 Q308.079 1393 308.079 1384.27 Q308.079 1375.52 311.134 1370.94 Q314.213 1366.33 320.023 1366.33 Z" fill="#000000" fill-rule="nonzero" fill-opacity="1" /><path clip-path="url(#clip750)" d="M116.142 969.641 L134.499 969.641 L134.499 973.576 L120.425 973.576 L120.425 982.048 Q121.443 981.701 122.462 981.539 Q123.48 981.353 124.499 981.353 Q130.286 981.353 133.665 984.525 Q137.045 987.696 137.045 993.113 Q137.045 998.691 133.573 1001.79 Q130.101 1004.87 123.781 1004.87 Q121.605 1004.87 119.337 1004.5 Q117.091 1004.13 114.684 1003.39 L114.684 998.691 Q116.767 999.826 118.99 1000.38 Q121.212 1000.94 123.689 1000.94 Q127.693 1000.94 130.031 998.83 Q132.369 996.724 132.369 993.113 Q132.369 989.502 130.031 987.395 Q127.693 985.289 123.689 985.289 Q121.814 985.289 119.939 985.705 Q118.087 986.122 116.142 987.002 L116.142 969.641 Z" fill="#000000" fill-rule="nonzero" fill-opacity="1" /><path clip-path="url(#clip750)" d="M146.258 998.321 L151.142 998.321 L151.142 1004.2 L146.258 1004.2 L146.258 998.321 Z" fill="#000000" fill-rule="nonzero" fill-opacity="1" /><path clip-path="url(#clip750)" d="M171.327 972.719 Q167.716 972.719 165.887 976.284 Q164.082 979.826 164.082 986.955 Q164.082 994.062 165.887 997.627 Q167.716 1001.17 171.327 1001.17 Q174.962 1001.17 176.767 997.627 Q178.596 994.062 178.596 986.955 Q178.596 979.826 176.767 976.284 Q174.962 972.719 171.327 972.719 M171.327 969.016 Q177.137 969.016 180.193 973.622 Q183.272 978.205 183.272 986.955 Q183.272 995.682 180.193 1000.29 Q177.137 1004.87 171.327 1004.87 Q165.517 1004.87 162.438 1000.29 Q159.383 995.682 159.383 986.955 Q159.383 978.205 162.438 973.622 Q165.517 969.016 171.327 969.016 Z" fill="#000000" fill-rule="nonzero" fill-opacity="1" /><path clip-path="url(#clip750)" d="M201.489 972.719 Q197.878 972.719 196.049 976.284 Q194.244 979.826 194.244 986.955 Q194.244 994.062 196.049 997.627 Q197.878 1001.17 201.489 1001.17 Q205.123 1001.17 206.929 997.627 Q208.758 994.062 208.758 986.955 Q208.758 979.826 206.929 976.284 Q205.123 972.719 201.489 972.719 M201.489 969.016 Q207.299 969.016 210.355 973.622 Q213.434 978.205 213.434 986.955 Q213.434 995.682 210.355 1000.29 Q207.299 1004.87 201.489 1004.87 Q195.679 1004.87 192.6 1000.29 Q189.545 995.682 189.545 986.955 Q189.545 978.205 192.6 973.622 Q195.679 969.016 201.489 969.016 Z" fill="#000000" fill-rule="nonzero" fill-opacity="1" /><path clip-path="url(#clip750)" d="M249.822 978.738 L239.244 989.363 L249.822 999.941 L247.068 1002.74 L236.443 992.117 L225.818 1002.74 L223.086 999.941 L233.642 989.363 L223.086 978.738 L225.818 975.937 L236.443 986.562 L247.068 975.937 L249.822 978.738 Z" fill="#000000" fill-rule="nonzero" fill-opacity="1" /><path clip-path="url(#clip750)" d="M262.183 1000.27 L269.822 1000.27 L269.822 973.9 L261.512 975.566 L261.512 971.307 L269.776 969.641 L274.452 969.641 L274.452 1000.27 L282.091 1000.27 L282.091 1004.2 L262.183 1004.2 L262.183 1000.27 Z" fill="#000000" fill-rule="nonzero" fill-opacity="1" /><path clip-path="url(#clip750)" d="M301.535 972.719 Q297.924 972.719 296.095 976.284 Q294.29 979.826 294.29 986.955 Q294.29 994.062 296.095 997.627 Q297.924 1001.17 301.535 1001.17 Q305.169 1001.17 306.975 997.627 Q308.803 994.062 308.803 986.955 Q308.803 979.826 306.975 976.284 Q305.169 972.719 301.535 972.719 M301.535 969.016 Q307.345 969.016 310.401 973.622 Q313.479 978.205 313.479 986.955 Q313.479 995.682 310.401 1000.29 Q307.345 1004.87 301.535 1004.87 Q295.725 1004.87 292.646 1000.29 Q289.591 995.682 289.591 986.955 Q289.591 978.205 292.646 973.622 Q295.725 969.016 301.535 969.016 Z" fill="#000000" fill-rule="nonzero" fill-opacity="1" /><path clip-path="url(#clip750)" d="M326.175 961.65 Q328.902 962.233 330.425 964.076 Q331.967 965.919 331.967 968.628 Q331.967 972.784 329.109 975.06 Q326.25 977.336 320.984 977.336 Q319.216 977.336 317.335 976.978 Q315.473 976.64 313.479 975.944 L313.479 972.276 Q315.059 973.198 316.94 973.668 Q318.821 974.138 320.871 974.138 Q324.444 974.138 326.306 972.728 Q328.187 971.317 328.187 968.628 Q328.187 966.145 326.438 964.753 Q324.708 963.343 321.604 963.343 L318.332 963.343 L318.332 960.221 L321.755 960.221 Q324.557 960.221 326.043 959.111 Q327.529 957.982 327.529 955.876 Q327.529 953.713 325.986 952.566 Q324.463 951.4 321.604 951.4 Q320.043 951.4 318.256 951.738 Q316.47 952.077 314.326 952.791 L314.326 949.406 Q316.489 948.804 318.369 948.503 Q320.269 948.202 321.943 948.202 Q326.269 948.202 328.789 950.177 Q331.309 952.133 331.309 955.481 Q331.309 957.813 329.974 959.431 Q328.638 961.029 326.175 961.65 Z" fill="#000000" fill-rule="nonzero" fill-opacity="1" /><path clip-path="url(#clip750)" d="M114.931 596.5 L122.57 596.5 L122.57 570.135 L114.26 571.801 L114.26 567.542 L122.524 565.875 L127.2 565.875 L127.2 596.5 L134.839 596.5 L134.839 600.435 L114.931 600.435 L114.931 596.5 Z" fill="#000000" fill-rule="nonzero" fill-opacity="1" /><path clip-path="url(#clip750)" d="M144.283 594.556 L149.167 594.556 L149.167 600.435 L144.283 600.435 L144.283 594.556 Z" fill="#000000" fill-rule="nonzero" fill-opacity="1" /><path clip-path="url(#clip750)" d="M169.352 568.954 Q165.741 568.954 163.913 572.519 Q162.107 576.06 162.107 583.19 Q162.107 590.296 163.913 593.861 Q165.741 597.403 169.352 597.403 Q172.987 597.403 174.792 593.861 Q176.621 590.296 176.621 583.19 Q176.621 576.06 174.792 572.519 Q172.987 568.954 169.352 568.954 M169.352 565.25 Q175.163 565.25 178.218 569.857 Q181.297 574.44 181.297 583.19 Q181.297 591.917 178.218 596.523 Q175.163 601.107 169.352 601.107 Q163.542 601.107 160.464 596.523 Q157.408 591.917 157.408 583.19 Q157.408 574.44 160.464 569.857 Q163.542 565.25 169.352 565.25 Z" fill="#000000" fill-rule="nonzero" fill-opacity="1" /><path clip-path="url(#clip750)" d="M199.514 568.954 Q195.903 568.954 194.075 572.519 Q192.269 576.06 192.269 583.19 Q192.269 590.296 194.075 593.861 Q195.903 597.403 199.514 597.403 Q203.149 597.403 204.954 593.861 Q206.783 590.296 206.783 583.19 Q206.783 576.06 204.954 572.519 Q203.149 568.954 199.514 568.954 M199.514 565.25 Q205.324 565.25 208.38 569.857 Q211.459 574.44 211.459 583.19 Q211.459 591.917 208.38 596.523 Q205.324 601.107 199.514 601.107 Q193.704 601.107 190.625 596.523 Q187.57 591.917 187.57 583.19 Q187.57 574.44 190.625 569.857 Q193.704 565.25 199.514 565.25 Z" fill="#000000" fill-rule="nonzero" fill-opacity="1" /><path clip-path="url(#clip750)" d="M247.847 574.972 L237.269 585.597 L247.847 596.176 L245.093 598.977 L234.468 588.352 L223.843 598.977 L221.111 596.176 L231.667 585.597 L221.111 574.972 L223.843 572.172 L234.468 582.796 L245.093 572.172 L247.847 574.972 Z" fill="#000000" fill-rule="nonzero" fill-opacity="1" /><path clip-path="url(#clip750)" d="M260.208 596.5 L267.847 596.5 L267.847 570.135 L259.537 571.801 L259.537 567.542 L267.801 565.875 L272.477 565.875 L272.477 596.5 L280.116 596.5 L280.116 600.435 L260.208 600.435 L260.208 596.5 Z" fill="#000000" fill-rule="nonzero" fill-opacity="1" /><path clip-path="url(#clip750)" d="M299.56 568.954 Q295.949 568.954 294.12 572.519 Q292.315 576.06 292.315 583.19 Q292.315 590.296 294.12 593.861 Q295.949 597.403 299.56 597.403 Q303.194 597.403 305 593.861 Q306.829 590.296 306.829 583.19 Q306.829 576.06 305 572.519 Q303.194 568.954 299.56 568.954 M299.56 565.25 Q305.37 565.25 308.426 569.857 Q311.504 574.44 311.504 583.19 Q311.504 591.917 308.426 596.523 Q305.37 601.107 299.56 601.107 Q293.75 601.107 290.671 596.523 Q287.616 591.917 287.616 583.19 Q287.616 574.44 290.671 569.857 Q293.75 565.25 299.56 565.25 Z" fill="#000000" fill-rule="nonzero" fill-opacity="1" /><path clip-path="url(#clip750)" d="M324.181 548.255 L314.589 563.245 L324.181 563.245 L324.181 548.255 M323.184 544.945 L327.961 544.945 L327.961 563.245 L331.967 563.245 L331.967 566.405 L327.961 566.405 L327.961 573.025 L324.181 573.025 L324.181 566.405 L311.504 566.405 L311.504 562.737 L323.184 544.945 Z" fill="#000000" fill-rule="nonzero" fill-opacity="1" /><path clip-path="url(#clip750)" d="M114.931 192.735 L122.57 192.735 L122.57 166.369 L114.26 168.036 L114.26 163.777 L122.524 162.11 L127.2 162.11 L127.2 192.735 L134.839 192.735 L134.839 196.67 L114.931 196.67 L114.931 192.735 Z" fill="#000000" fill-rule="nonzero" fill-opacity="1" /><path clip-path="url(#clip750)" d="M144.283 190.79 L149.167 190.79 L149.167 196.67 L144.283 196.67 L144.283 190.79 Z" fill="#000000" fill-rule="nonzero" fill-opacity="1" /><path clip-path="url(#clip750)" d="M159.399 162.11 L177.755 162.11 L177.755 166.045 L163.681 166.045 L163.681 174.517 Q164.7 174.17 165.718 174.008 Q166.737 173.823 167.755 173.823 Q173.542 173.823 176.922 176.994 Q180.301 180.165 180.301 185.582 Q180.301 191.161 176.829 194.263 Q173.357 197.341 167.038 197.341 Q164.862 197.341 162.593 196.971 Q160.348 196.601 157.94 195.86 L157.94 191.161 Q160.024 192.295 162.246 192.851 Q164.468 193.406 166.945 193.406 Q170.95 193.406 173.288 191.3 Q175.626 189.193 175.626 185.582 Q175.626 181.971 173.288 179.865 Q170.95 177.758 166.945 177.758 Q165.07 177.758 163.195 178.175 Q161.343 178.591 159.399 179.471 L159.399 162.11 Z" fill="#000000" fill-rule="nonzero" fill-opacity="1" /><path clip-path="url(#clip750)" d="M199.514 165.189 Q195.903 165.189 194.075 168.753 Q192.269 172.295 192.269 179.425 Q192.269 186.531 194.075 190.096 Q195.903 193.638 199.514 193.638 Q203.149 193.638 204.954 190.096 Q206.783 186.531 206.783 179.425 Q206.783 172.295 204.954 168.753 Q203.149 165.189 199.514 165.189 M199.514 161.485 Q205.324 161.485 208.38 166.091 Q211.459 170.675 211.459 179.425 Q211.459 188.152 208.38 192.758 Q205.324 197.341 199.514 197.341 Q193.704 197.341 190.625 192.758 Q187.57 188.152 187.57 179.425 Q187.57 170.675 190.625 166.091 Q193.704 161.485 199.514 161.485 Z" fill="#000000" fill-rule="nonzero" fill-opacity="1" /><path clip-path="url(#clip750)" d="M247.847 171.207 L237.269 181.832 L247.847 192.411 L245.093 195.212 L234.468 184.587 L223.843 195.212 L221.111 192.411 L231.667 181.832 L221.111 171.207 L223.843 168.406 L234.468 179.031 L245.093 168.406 L247.847 171.207 Z" fill="#000000" fill-rule="nonzero" fill-opacity="1" /><path clip-path="url(#clip750)" d="M260.208 192.735 L267.847 192.735 L267.847 166.369 L259.537 168.036 L259.537 163.777 L267.801 162.11 L272.477 162.11 L272.477 192.735 L280.116 192.735 L280.116 196.67 L260.208 196.67 L260.208 192.735 Z" fill="#000000" fill-rule="nonzero" fill-opacity="1" /><path clip-path="url(#clip750)" d="M299.56 165.189 Q295.949 165.189 294.12 168.753 Q292.315 172.295 292.315 179.425 Q292.315 186.531 294.12 190.096 Q295.949 193.638 299.56 193.638 Q303.194 193.638 305 190.096 Q306.829 186.531 306.829 179.425 Q306.829 172.295 305 168.753 Q303.194 165.189 299.56 165.189 M299.56 161.485 Q305.37 161.485 308.426 166.091 Q311.504 170.675 311.504 179.425 Q311.504 188.152 308.426 192.758 Q305.37 197.341 299.56 197.341 Q293.75 197.341 290.671 192.758 Q287.616 188.152 287.616 179.425 Q287.616 170.675 290.671 166.091 Q293.75 161.485 299.56 161.485 Z" fill="#000000" fill-rule="nonzero" fill-opacity="1" /><path clip-path="url(#clip750)" d="M324.181 144.49 L314.589 159.48 L324.181 159.48 L324.181 144.49 M323.184 141.18 L327.961 141.18 L327.961 159.48 L331.967 159.48 L331.967 162.639 L327.961 162.639 L327.961 169.26 L324.181 169.26 L324.181 162.639 L311.504 162.639 L311.504 158.972 L323.184 141.18 Z" fill="#000000" fill-rule="nonzero" fill-opacity="1" /><path clip-path="url(#clip750)" d="M41.3104 969.884 L58.7206 969.884 L58.7206 959.571 Q58.7206 954.383 56.5881 951.901 Q54.4238 949.386 49.9996 949.386 Q45.5436 949.386 43.4429 951.901 Q41.3104 954.383 41.3104 959.571 L41.3104 969.884 M21.7677 969.884 L36.0905 969.884 L36.0905 960.367 Q36.0905 955.656 34.34 953.365 Q32.5576 951.041 28.9291 951.041 Q25.3325 951.041 23.5501 953.365 Q21.7677 955.656 21.7677 960.367 L21.7677 969.884 M16.4842 976.313 L16.4842 959.89 Q16.4842 952.537 19.5397 948.559 Q22.5952 944.58 28.2289 944.58 Q32.5894 944.58 35.1675 946.617 Q37.7456 948.654 38.3822 952.601 Q39.4007 947.858 42.6472 945.248 Q45.8619 942.607 50.6998 942.607 Q57.0655 942.607 60.5348 946.935 Q64.0042 951.264 64.0042 959.253 L64.0042 976.313 L16.4842 976.313 Z" fill="#000000" fill-rule="nonzero" fill-opacity="1" /><path clip-path="url(#clip750)" d="M32.4621 918.035 Q32.4621 922.746 36.1542 925.483 Q39.8145 928.22 46.212 928.22 Q52.6095 928.22 56.3017 925.515 Q59.9619 922.778 59.9619 918.035 Q59.9619 913.356 56.2698 910.619 Q52.5777 907.882 46.212 907.882 Q39.8781 907.882 36.186 910.619 Q32.4621 913.356 32.4621 918.035 M27.4968 918.035 Q27.4968 910.396 32.4621 906.036 Q37.4273 901.675 46.212 901.675 Q54.9649 901.675 59.9619 906.036 Q64.9272 910.396 64.9272 918.035 Q64.9272 925.706 59.9619 930.066 Q54.9649 934.395 46.212 934.395 Q37.4273 934.395 32.4621 930.066 Q27.4968 925.706 27.4968 918.035 Z" fill="#000000" fill-rule="nonzero" fill-opacity="1" /><path clip-path="url(#clip750)" d="M32.4621 878.154 Q32.4621 882.865 36.1542 885.602 Q39.8145 888.339 46.212 888.339 Q52.6095 888.339 56.3017 885.634 Q59.9619 882.896 59.9619 878.154 Q59.9619 873.475 56.2698 870.738 Q52.5777 868.001 46.212 868.001 Q39.8781 868.001 36.186 870.738 Q32.4621 873.475 32.4621 878.154 M27.4968 878.154 Q27.4968 870.515 32.4621 866.155 Q37.4273 861.794 46.212 861.794 Q54.9649 861.794 59.9619 866.155 Q64.9272 870.515 64.9272 878.154 Q64.9272 885.825 59.9619 890.185 Q54.9649 894.514 46.212 894.514 Q37.4273 894.514 32.4621 890.185 Q27.4968 885.825 27.4968 878.154 Z" fill="#000000" fill-rule="nonzero" fill-opacity="1" /><path clip-path="url(#clip750)" d="M29.4065 829.361 L34.9447 829.361 Q33.6716 831.843 33.035 834.517 Q32.3984 837.191 32.3984 840.055 Q32.3984 844.416 33.7352 846.612 Q35.072 848.776 37.7456 848.776 Q39.7826 848.776 40.9603 847.217 Q42.1061 845.657 43.1565 840.946 L43.6021 838.941 Q44.9389 832.703 47.3897 830.093 Q49.8086 827.451 54.1691 827.451 Q59.1344 827.451 62.0308 831.398 Q64.9272 835.313 64.9272 842.188 Q64.9272 845.052 64.3543 848.171 Q63.8132 851.259 62.6992 854.696 L56.6518 854.696 Q58.3387 851.45 59.198 848.299 Q60.0256 845.148 60.0256 842.06 Q60.0256 837.923 58.6251 835.695 Q57.1929 833.467 54.6147 833.467 Q52.2276 833.467 50.9545 835.09 Q49.6813 836.681 48.5037 842.124 L48.0262 844.161 Q46.8804 849.604 44.5251 852.023 Q42.138 854.442 38.0002 854.442 Q32.9713 854.442 30.2341 850.877 Q27.4968 847.312 27.4968 840.755 Q27.4968 837.509 27.9743 834.644 Q28.4517 831.78 29.4065 829.361 Z" fill="#000000" fill-rule="nonzero" fill-opacity="1" /><path clip-path="url(#clip750)" d="M18.2347 812.333 L28.3562 812.333 L28.3562 800.269 L32.9077 800.269 L32.9077 812.333 L52.2594 812.333 Q56.6199 812.333 57.8613 811.155 Q59.1026 809.945 59.1026 806.285 L59.1026 800.269 L64.0042 800.269 L64.0042 806.285 Q64.0042 813.065 61.4897 815.643 Q58.9434 818.221 52.2594 818.221 L32.9077 818.221 L32.9077 822.518 L28.3562 822.518 L28.3562 818.221 L18.2347 818.221 L18.2347 812.333 Z" fill="#000000" fill-rule="nonzero" fill-opacity="1" /><path clip-path="url(#clip750)" d="M16.4842 771.592 L16.4842 744.283 L21.895 744.283 L21.895 765.163 L35.8996 765.163 L35.8996 746.32 L41.3104 746.32 L41.3104 765.163 L64.0042 765.163 L64.0042 771.592 L16.4842 771.592 Z" fill="#000000" fill-rule="nonzero" fill-opacity="1" /><path clip-path="url(#clip750)" d="M46.0847 724.136 Q46.0847 731.233 47.7079 733.971 Q49.3312 736.708 53.2461 736.708 Q56.3653 736.708 58.2114 734.671 Q60.0256 732.602 60.0256 729.069 Q60.0256 724.199 56.5881 721.271 Q53.1188 718.311 47.3897 718.311 L46.0847 718.311 L46.0847 724.136 M43.6657 712.455 L64.0042 712.455 L64.0042 718.311 L58.5933 718.311 Q61.8398 720.316 63.3994 723.308 Q64.9272 726.3 64.9272 730.629 Q64.9272 736.103 61.8716 739.35 Q58.7843 742.564 53.6281 742.564 Q47.6125 742.564 44.5569 738.554 Q41.5014 734.512 41.5014 726.523 L41.5014 718.311 L40.9285 718.311 Q36.8862 718.311 34.6901 720.985 Q32.4621 723.626 32.4621 728.432 Q32.4621 731.488 33.1941 734.384 Q33.9262 737.281 35.3903 739.954 L29.9795 739.954 Q28.7381 736.74 28.1334 733.716 Q27.4968 730.692 27.4968 727.828 Q27.4968 720.093 31.5072 716.274 Q35.5176 712.455 43.6657 712.455 Z" fill="#000000" fill-rule="nonzero" fill-opacity="1" /><path clip-path="url(#clip750)" d="M29.7248 674.738 L35.1993 674.738 Q33.8307 677.22 33.1623 679.735 Q32.4621 682.217 32.4621 684.764 Q32.4621 690.461 36.0905 693.612 Q39.6872 696.763 46.212 696.763 Q52.7369 696.763 56.3653 693.612 Q59.9619 690.461 59.9619 684.764 Q59.9619 682.217 59.2935 679.735 Q58.5933 677.22 57.2247 674.738 L62.6355 674.738 Q63.7814 677.189 64.3543 679.83 Q64.9272 682.44 64.9272 685.4 Q64.9272 693.453 59.8664 698.195 Q54.8057 702.938 46.212 702.938 Q37.491 702.938 32.4939 698.164 Q27.4968 693.357 27.4968 685.018 Q27.4968 682.313 28.0697 679.735 Q28.6108 677.157 29.7248 674.738 Z" fill="#000000" fill-rule="nonzero" fill-opacity="1" /><path clip-path="url(#clip750)" d="M18.2347 658.76 L28.3562 658.76 L28.3562 646.697 L32.9077 646.697 L32.9077 658.76 L52.2594 658.76 Q56.6199 658.76 57.8613 657.582 Q59.1026 656.373 59.1026 652.712 L59.1026 646.697 L64.0042 646.697 L64.0042 652.712 Q64.0042 659.492 61.4897 662.07 Q58.9434 664.648 52.2594 664.648 L32.9077 664.648 L32.9077 668.945 L28.3562 668.945 L28.3562 664.648 L18.2347 664.648 L18.2347 658.76 Z" fill="#000000" fill-rule="nonzero" fill-opacity="1" /><path clip-path="url(#clip750)" d="M32.4621 625.181 Q32.4621 629.891 36.1542 632.629 Q39.8145 635.366 46.212 635.366 Q52.6095 635.366 56.3017 632.66 Q59.9619 629.923 59.9619 625.181 Q59.9619 620.502 56.2698 617.765 Q52.5777 615.027 46.212 615.027 Q39.8781 615.027 36.186 617.765 Q32.4621 620.502 32.4621 625.181 M27.4968 625.181 Q27.4968 617.542 32.4621 613.181 Q37.4273 608.821 46.212 608.821 Q54.9649 608.821 59.9619 613.181 Q64.9272 617.542 64.9272 625.181 Q64.9272 632.851 59.9619 637.212 Q54.9649 641.541 46.212 641.541 Q37.4273 641.541 32.4621 637.212 Q27.4968 632.851 27.4968 625.181 Z" fill="#000000" fill-rule="nonzero" fill-opacity="1" /><path clip-path="url(#clip750)" d="M33.8307 578.456 Q33.2578 579.443 33.0032 580.621 Q32.7167 581.767 32.7167 583.167 Q32.7167 588.132 35.9632 590.806 Q39.1779 593.448 45.2253 593.448 L64.0042 593.448 L64.0042 599.336 L28.3562 599.336 L28.3562 593.448 L33.8944 593.448 Q30.6479 591.602 29.0883 588.642 Q27.4968 585.682 27.4968 581.448 Q27.4968 580.844 27.5923 580.112 Q27.656 579.379 27.8151 578.488 L33.8307 578.456 Z" fill="#000000" fill-rule="nonzero" fill-opacity="1" /><path clip-path="url(#clip750)" d="M61.808 545.737 L77.5631 545.737 L77.5631 551.625 L28.579 551.625 Q14.0652 551.625 14.0652 538.066 Q14.0652 524.252 26.3192 524.252 Q35.0402 524.252 38.223 529.727 Q41.0876 520.815 49.5858 520.815 Q64.6726 520.815 64.6726 536.156 Q64.6726 542.904 61.808 545.737 M54.1691 545.737 Q59.6755 542.204 59.6755 535.934 Q59.6755 526.767 49.6813 526.767 Q40.7057 526.767 41.4059 541.535 L35.995 541.535 Q35.995 529.982 25.8099 529.982 Q18.8395 529.982 18.8395 537.429 Q18.8395 545.737 28.77 545.737 L54.1691 545.737 Z" fill="#000000" fill-rule="nonzero" fill-opacity="1" /><path clip-path="url(#clip750)" d="M39.1142 507.606 L39.1142 494.111 L42.7427 494.111 L42.7427 513.144 L39.2416 513.144 Q38.2549 512.062 36.4725 510.057 Q26.7648 499.108 23.7729 499.108 Q21.6722 499.108 20.3991 500.763 Q19.0941 502.418 19.0941 505.124 Q19.0941 506.779 19.667 508.72 Q20.2081 510.662 21.3221 512.953 L17.4072 512.953 Q16.516 510.503 16.0704 508.402 Q15.6248 506.269 15.6248 504.455 Q15.6248 499.84 17.7255 497.071 Q19.8262 494.302 23.2636 494.302 Q27.6878 494.302 36.7271 504.837 Q38.2549 506.619 39.1142 507.606 Z" fill="#000000" fill-rule="nonzero" fill-opacity="1" /><polyline clip-path="url(#clip752)" style="stroke:#009af9; stroke-linecap:round; stroke-linejoin:round; stroke-width:4; stroke-opacity:1; fill:none" points="424.141,1384.01 426.015,1384.02 427.889,1384.02 429.764,1384.02 431.638,1384.02 433.512,1384.02 435.386,1384.02 437.261,1384.02 439.135,1384.02 441.009,1384.03 442.884,1384.03 444.758,1384.03 446.632,1384.03 448.507,1384.03 450.381,1384.03 452.255,1384.03 454.13,1384.03 456.004,1384.04 457.878,1384.04 459.753,1384.04 461.627,1384.04 463.501,1384.04 465.376,1384.04 467.25,1384.04 469.124,1384.04 470.998,1384.04 472.873,1384.05 474.747,1384.05 476.621,1384.05 478.496,1384.05 480.37,1384.05 482.244,1384.05 484.119,1384.05 485.993,1384.05 487.867,1384.06 489.742,1384.06 491.616,1384.06 493.49,1384.06 495.365,1384.06 497.239,1384.06 499.113,1384.06 500.988,1384.06 502.862,1384.06 504.736,1384.07 506.611,1384.07 508.485,1384.07 510.359,1384.07 512.233,1384.07 514.108,1384.07 515.982,1384.07 517.856,1384.07 519.731,1384.08 521.605,1384.08 523.479,1384.08 525.354,1384.08 527.228,1384.08 529.102,1384.08 530.977,1384.08 532.851,1384.08 534.725,1384.08 536.6,1384.09 538.474,1384.09 540.348,1384.09 542.223,1384.09 544.097,1384.09 545.971,1384.09 547.845,1384.09 549.72,1384.09 551.594,1384.1 553.468,1384.1 555.343,1384.1 557.217,1384.1 559.091,1384.1 560.966,1384.1 562.84,1384.1 564.714,1384.1 566.589,1384.1 568.463,1384.11 570.337,1384.11 572.212,1384.11 574.086,1384.11 575.96,1384.11 577.835,1384.11 579.709,1384.11 581.583,1384.11 583.457,1384.11 585.332,1384.12 587.206,1384.12 589.08,1384.12 590.955,1384.12 592.829,1384.12 594.703,1384.12 596.578,1384.12 598.452,1384.12 600.326,1384.12 602.201,1384.13 604.075,1384.13 605.949,1384.13 607.824,1384.13 609.698,1384.13 611.572,1384.13 613.447,1384.13 615.321,1384.13 617.195,1384.13 619.069,1384.13 620.944,1384.14 622.818,1384.14 624.692,1384.14 626.567,1384.14 628.441,1384.14 630.315,1384.14 632.19,1384.14 634.064,1384.14 635.938,1384.14 637.813,1384.15 639.687,1384.15 641.561,1384.15 643.436,1384.15 645.31,1384.15 647.184,1384.15 649.059,1384.15 650.933,1384.15 652.807,1384.15 654.682,1384.16 656.556,1384.16 658.43,1384.16 660.304,1384.16 662.179,1384.16 664.053,1384.16 665.927,1384.16 667.802,1384.16 669.676,1384.16 671.55,1384.16 673.425,1384.17 675.299,1384.17 677.173,1384.17 679.048,1384.17 680.922,1384.17 682.796,1384.17 684.671,1384.17 686.545,1384.17 688.419,1384.17 690.294,1384.17 692.168,1384.18 694.042,1384.18 695.916,1384.18 697.791,1384.18 699.665,1384.18 701.539,1384.18 703.414,1384.18 705.288,1384.18 707.162,1384.18 709.037,1384.18 710.911,1384.18 712.785,1384.19 714.66,1384.19 716.534,1384.19 718.408,1384.19 720.283,1384.19 722.157,1384.19 724.031,1384.19 725.906,1384.19 727.78,1384.19 729.654,1384.19 731.528,1384.2 733.403,1384.2 735.277,1384.2 737.151,1384.2 739.026,1384.2 740.9,1384.2 742.774,1384.2 744.649,1384.2 746.523,1384.2 748.397,1384.2 750.272,1384.2 752.146,1384.2 754.02,1384.21 755.895,1384.21 757.769,1384.21 759.643,1384.21 761.518,1384.21 763.392,1384.21 765.266,1384.21 767.14,1384.21 769.015,1384.21 770.889,1384.21 772.763,1384.21 774.638,1384.21 776.512,1384.21 778.386,1384.22 780.261,1384.22 782.135,1384.22 784.009,1384.22 785.884,1384.22 787.758,1384.22 789.632,1384.22 791.507,1384.22 793.381,1384.22 795.255,1384.22 797.13,1384.22 799.004,1384.22 800.878,1384.22 802.752,1384.22 804.627,1384.23 806.501,1384.23 808.375,1384.23 810.25,1384.23 812.124,1384.23 813.998,1384.23 815.873,1384.23 817.747,1384.23 819.621,1384.23 821.496,1384.23 823.37,1384.23 825.244,1384.23 827.119,1384.23 828.993,1384.23 830.867,1384.23 832.742,1384.23 834.616,1384.23 836.49,1384.23 838.365,1384.23 840.239,1384.23 842.113,1384.23 843.987,1384.24 845.862,1384.24 847.736,1384.24 849.61,1384.24 851.485,1384.24 853.359,1384.24 855.233,1384.24 857.108,1384.24 858.982,1384.24 860.856,1384.24 862.731,1384.24 864.605,1384.24 866.479,1384.24 868.354,1384.24 870.228,1384.24 872.102,1384.24 873.977,1384.24 875.851,1384.24 877.725,1384.24 879.599,1384.24 881.474,1384.24 883.348,1384.24 885.222,1384.24 887.097,1384.24 888.971,1384.24 890.845,1384.24 892.72,1384.24 894.594,1384.24 896.468,1384.24 898.343,1384.24 900.217,1384.24 902.091,1384.24 903.966,1384.24 905.84,1384.24 907.714,1384.23 909.589,1384.23 911.463,1384.23 913.337,1384.23 915.211,1384.23 917.086,1384.23 918.96,1384.23 920.834,1384.23 922.709,1384.23 924.583,1384.23 926.457,1384.23 928.332,1384.23 930.206,1384.23 932.08,1384.23 933.955,1384.22 935.829,1384.22 937.703,1384.22 939.578,1384.22 941.452,1384.22 943.326,1384.22 945.201,1384.22 947.075,1384.22 948.949,1384.22 950.823,1384.21 952.698,1384.21 954.572,1384.21 956.446,1384.21 958.321,1384.21 960.195,1384.21 962.069,1384.2 963.944,1384.2 965.818,1384.2 967.692,1384.2 969.567,1384.2 971.441,1384.19 973.315,1384.19 975.19,1384.19 977.064,1384.19 978.938,1384.18 980.813,1384.18 982.687,1384.18 984.561,1384.18 986.435,1384.17 988.31,1384.17 990.184,1384.17 992.058,1384.17 993.933,1384.16 995.807,1384.16 997.681,1384.16 999.556,1384.15 1001.43,1384.15 1003.3,1384.15 1005.18,1384.14 1007.05,1384.14 1008.93,1384.13 1010.8,1384.13 1012.68,1384.13 1014.55,1384.12 1016.42,1384.12 1018.3,1384.11 1020.17,1384.11 1022.05,1384.1 1023.92,1384.1 1025.8,1384.09 1027.67,1384.09 1029.54,1384.08 1031.42,1384.08 1033.29,1384.07 1035.17,1384.07 1037.04,1384.06 1038.92,1384.05 1040.79,1384.05 1042.66,1384.04 1044.54,1384.03 1046.41,1384.03 1048.29,1384.02 1050.16,1384.01 1052.04,1384 1053.91,1384 1055.79,1383.99 1057.66,1383.98 1059.53,1383.97 1061.41,1383.96 1063.28,1383.95 1065.16,1383.94 1067.03,1383.93 1068.91,1383.92 1070.78,1383.91 1072.65,1383.9 1074.53,1383.89 1076.4,1383.88 1078.28,1383.87 1080.15,1383.86 1082.03,1383.85 1083.9,1383.83 1085.77,1383.82 1087.65,1383.81 1089.52,1383.8 1091.4,1383.78 1093.27,1383.77 1095.15,1383.75 1097.02,1383.74 1098.89,1383.72 1100.77,1383.71 1102.64,1383.69 1104.52,1383.67 1106.39,1383.65 1108.27,1383.64 1110.14,1383.62 1112.01,1383.6 1113.89,1383.58 1115.76,1383.56 1117.64,1383.54 1119.51,1383.52 1121.39,1383.49 1123.26,1383.47 1125.13,1383.45 1127.01,1383.42 1128.88,1383.4 1130.76,1383.37 1132.63,1383.34 1134.51,1383.32 1136.38,1383.29 1138.26,1383.26 1140.13,1383.23 1142,1383.2 1143.88,1383.16 1145.75,1383.13 1147.63,1383.09 1149.5,1383.06 1151.38,1383.02 1153.25,1382.98 1155.12,1382.94 1157,1382.9 1158.87,1382.86 1160.75,1382.82 1162.62,1382.77 1164.5,1382.72 1166.37,1382.67 1168.24,1382.62 1170.12,1382.57 1171.99,1382.52 1173.87,1382.46 1175.74,1382.4 1177.62,1382.34 1179.49,1382.28 1181.36,1382.21 1183.24,1382.15 1185.11,1382.08 1186.99,1382 1188.86,1381.93 1190.74,1381.85 1192.61,1381.77 1194.48,1381.68 1196.36,1381.59 1198.23,1381.5 1200.11,1381.41 1201.98,1381.31 1203.86,1381.2 1205.73,1381.1 1207.6,1380.98 1209.48,1380.87 1211.35,1380.74 1213.23,1380.61 1215.1,1380.48 1216.98,1380.34 1218.85,1380.2 1220.73,1380.04 1222.6,1379.88 1224.47,1379.72 1226.35,1379.54 1228.22,1379.36 1230.1,1379.17 1231.97,1378.96 1233.85,1378.75 1235.72,1378.53 1237.59,1378.3 1239.47,1378.05 1241.34,1377.79 1243.22,1377.52 1245.09,1377.23 1246.97,1376.93 1248.84,1376.61 1250.71,1376.27 1252.59,1375.92 1254.46,1375.54 1256.34,1375.14 1258.21,1374.72 1260.09,1374.27 1261.96,1373.79 1263.83,1373.28 1265.71,1372.74 1267.58,1372.17 1269.46,1371.55 1271.33,1370.9 1273.21,1370.2 1275.08,1369.45 1276.95,1368.65 1278.83,1367.79 1280.7,1366.86 1282.58,1365.86 1284.45,1364.79 1286.33,1363.63 1288.2,1362.37 1290.07,1361.01 1291.95,1359.54 1293.82,1357.93 1295.7,1356.18 1297.57,1354.26 1299.45,1352.17 1301.32,1349.87 1303.19,1347.33 1305.07,1344.54 1306.94,1341.44 1308.82,1338.01 1310.69,1334.18 1312.57,1329.91 1314.44,1325.11 1316.32,1319.7 1318.19,1313.59 1320.06,1306.65 1321.94,1298.73 1323.81,1289.65 1325.69,1279.17 1327.56,1267.02 1329.44,1252.84 1331.31,1236.18 1333.18,1216.5 1335.06,1193.05 1336.93,1164.94 1338.81,1130.98 1340.68,1089.68 1342.56,1039.14 1344.43,977.048 1346.3,900.685 1348.18,807.226 1350.05,694.495 1351.93,562.637 1353.8,417.049 1355.68,272.011 1357.55,152.096 1359.42,86.1857 1361.3,93.0088 1363.17,168.904 1365.05,290.756 1366.92,430.569 1368.8,567.319 1370.67,689.889 1372.54,794.6 1374.42,881.857 1376.29,953.77 1378.17,1012.87 1380.04,1061.52 1381.92,1101.77 1383.79,1135.27 1385.66,1163.34 1387.54,1187.02 1389.41,1207.14 1391.29,1224.35 1393.16,1239.18 1395.04,1252.02 1396.91,1263.21 1398.79,1273.02 1400.66,1281.66 1402.53,1289.3 1404.41,1296.1 1406.28,1302.17 1408.16,1307.61 1410.03,1312.5 1411.91,1316.92 1413.78,1320.93 1415.65,1324.57 1417.53,1327.89 1419.4,1330.92 1421.28,1333.71 1423.15,1336.26 1425.03,1338.62 1426.9,1340.79 1428.77,1342.8 1430.65,1344.66 1432.52,1346.4 1434.4,1348.01 1436.27,1349.51 1438.15,1350.91 1440.02,1352.23 1441.89,1353.46 1443.77,1354.61 1445.64,1355.69 1447.52,1356.71 1449.39,1357.67 1451.27,1358.58 1453.14,1359.44 1455.01,1360.24 1456.89,1361.01 1458.76,1361.74 1460.64,1362.42 1462.51,1363.08 1464.39,1363.7 1466.26,1364.29 1468.13,1364.85 1470.01,1365.39 1471.88,1365.9 1473.76,1366.39 1475.63,1366.85 1477.51,1367.3 1479.38,1367.72 1481.26,1368.13 1483.13,1368.52 1485,1368.9 1486.88,1369.26 1488.75,1369.6 1490.63,1369.94 1492.5,1370.25 1494.38,1370.56 1496.25,1370.86 1498.12,1371.14 1500,1371.41 1501.87,1371.68 1503.75,1371.93 1505.62,1372.18 1507.5,1372.41 1509.37,1372.64 1511.24,1372.86 1513.12,1373.08 1514.99,1373.28 1516.87,1373.48 1518.74,1373.67 1520.62,1373.86 1522.49,1374.04 1524.36,1374.22 1526.24,1374.39 1528.11,1374.55 1529.99,1374.71 1531.86,1374.87 1533.74,1375.02 1535.61,1375.17 1537.48,1375.31 1539.36,1375.45 1541.23,1375.58 1543.11,1375.71 1544.98,1375.84 1546.86,1375.96 1548.73,1376.08 1550.6,1376.2 1552.48,1376.31 1554.35,1376.42 1556.23,1376.53 1558.1,1376.64 1559.98,1376.74 1561.85,1376.84 1563.72,1376.94 1565.6,1377.03 1567.47,1377.12 1569.35,1377.22 1571.22,1377.3 1573.1,1377.39 1574.97,1377.47 1576.85,1377.56 1578.72,1377.64 1580.59,1377.72 1582.47,1377.79 1584.34,1377.87 1586.22,1377.94 1588.09,1378.01 1589.97,1378.08 1591.84,1378.15 1593.71,1378.22 1595.59,1378.29 1597.46,1378.35 1599.34,1378.41 1601.21,1378.48 1603.09,1378.54 1604.96,1378.6 1606.83,1378.65 1608.71,1378.71 1610.58,1378.77 1612.46,1378.82 1614.33,1378.88 1616.21,1378.93 1618.08,1378.98 1619.95,1379.03 1621.83,1379.08 1623.7,1379.13 1625.58,1379.18 1627.45,1379.22 1629.33,1379.27 1631.2,1379.32 1633.07,1379.36 1634.95,1379.4 1636.82,1379.45 1638.7,1379.49 1640.57,1379.53 1642.45,1379.57 1644.32,1379.61 1646.19,1379.65 1648.07,1379.69 1649.94,1379.73 1651.82,1379.76 1653.69,1379.8 1655.57,1379.84 1657.44,1379.87 1659.32,1379.91 1661.19,1379.94 1663.06,1379.98 1664.94,1380.01 1666.81,1380.04 1668.69,1380.07 1670.56,1380.11 1672.44,1380.14 1674.31,1380.17 1676.18,1380.2 1678.06,1380.23 1679.93,1380.26 1681.81,1380.29 1683.68,1380.31 1685.56,1380.34 1687.43,1380.37 1689.3,1380.4 1691.18,1380.42 1693.05,1380.45 1694.93,1380.48 1696.8,1380.5 1698.68,1380.53 1700.55,1380.55 1702.42,1380.58 1704.3,1380.6 1706.17,1380.63 1708.05,1380.65 1709.92,1380.67 1711.8,1380.69 1713.67,1380.72 1715.54,1380.74 1717.42,1380.76 1719.29,1380.78 1721.17,1380.8 1723.04,1380.83 1724.92,1380.85 1726.79,1380.87 1728.66,1380.89 1730.54,1380.91 1732.41,1380.93 1734.29,1380.95 1736.16,1380.97 1738.04,1380.99 1739.91,1381 1741.78,1381.02 1743.66,1381.04 1745.53,1381.06 1747.41,1381.08 1749.28,1381.09 1751.16,1381.11 1753.03,1381.13 1754.91,1381.15 1756.78,1381.16 1758.65,1381.18 1760.53,1381.2 1762.4,1381.21 1764.28,1381.23 1766.15,1381.24 1768.03,1381.26 1769.9,1381.28 1771.77,1381.29 1773.65,1381.31 1775.52,1381.32 1777.4,1381.34 1779.27,1381.35 1781.15,1381.36 1783.02,1381.38 1784.89,1381.39 1786.77,1381.41 1788.64,1381.42 1790.52,1381.43 1792.39,1381.45 1794.27,1381.46 1796.14,1381.47 1798.01,1381.49 1799.89,1381.5 1801.76,1381.51 1803.64,1381.53 1805.51,1381.54 1807.39,1381.55 1809.26,1381.56 1811.13,1381.57 1813.01,1381.59 1814.88,1381.6 1816.76,1381.61 1818.63,1381.62 1820.51,1381.63 1822.38,1381.65 1824.25,1381.66 1826.13,1381.67 1828,1381.68 1829.88,1381.69 1831.75,1381.7 1833.63,1381.71 1835.5,1381.72 1837.38,1381.73 1839.25,1381.74 1841.12,1381.75 1843,1381.76 1844.87,1381.77 1846.75,1381.78 1848.62,1381.79 1850.5,1381.8 1852.37,1381.81 1854.24,1381.82 1856.12,1381.83 1857.99,1381.84 1859.87,1381.85 1861.74,1381.86 1863.62,1381.87 1865.49,1381.88 1867.36,1381.89 1869.24,1381.9 1871.11,1381.9 1872.99,1381.91 1874.86,1381.92 1876.74,1381.93 1878.61,1381.94 1880.48,1381.95 1882.36,1381.96 1884.23,1381.96 1886.11,1381.97 1887.98,1381.98 1889.86,1381.99 1891.73,1382 1893.6,1382.01 1895.48,1382.01 1897.35,1382.02 1899.23,1382.03 1901.1,1382.04 1902.98,1382.04 1904.85,1382.05 1906.72,1382.06 1908.6,1382.07 1910.47,1382.07 1912.35,1382.08 1914.22,1382.09 1916.1,1382.1 1917.97,1382.1 1919.85,1382.11 1921.72,1382.12 1923.59,1382.12 1925.47,1382.13 1927.34,1382.14 1929.22,1382.14 1931.09,1382.15 1932.97,1382.16 1934.84,1382.16 1936.71,1382.17 1938.59,1382.18 1940.46,1382.18 1942.34,1382.19 1944.21,1382.2 1946.09,1382.2 1947.96,1382.21 1949.83,1382.22 1951.71,1382.22 1953.58,1382.23 1955.46,1382.23 1957.33,1382.24 1959.21,1382.25 1961.08,1382.25 1962.95,1382.26 1964.83,1382.26 1966.7,1382.27 1968.58,1382.27 1970.45,1382.28 1972.33,1382.29 1974.2,1382.29 1976.07,1382.3 1977.95,1382.3 1979.82,1382.31 1981.7,1382.31 1983.57,1382.32 1985.45,1382.32 1987.32,1382.33 1989.19,1382.34 1991.07,1382.34 1992.94,1382.35 1994.82,1382.35 1996.69,1382.36 1998.57,1382.36 2000.44,1382.37 2002.31,1382.37 2004.19,1382.38 2006.06,1382.38 2007.94,1382.39 2009.81,1382.39 2011.69,1382.4 2013.56,1382.4 2015.44,1382.41 2017.31,1382.41 2019.18,1382.41 2021.06,1382.42 2022.93,1382.42 2024.81,1382.43 2026.68,1382.43 2028.56,1382.44 2030.43,1382.44 2032.3,1382.45 2034.18,1382.45 2036.05,1382.46 2037.93,1382.46 2039.8,1382.46 2041.68,1382.47 2043.55,1382.47 2045.42,1382.48 2047.3,1382.48 2049.17,1382.49 2051.05,1382.49 2052.92,1382.49 2054.8,1382.5 2056.67,1382.5 2058.54,1382.51 2060.42,1382.51 2062.29,1382.52 2064.17,1382.52 2066.04,1382.52 2067.92,1382.53 2069.79,1382.53 2071.66,1382.53 2073.54,1382.54 2075.41,1382.54 2077.29,1382.55 2079.16,1382.55 2081.04,1382.55 2082.91,1382.56 2084.78,1382.56 2086.66,1382.57 2088.53,1382.57 2090.41,1382.57 2092.28,1382.58 2094.16,1382.58 2096.03,1382.58 2097.91,1382.59 2099.78,1382.59 2101.65,1382.59 2103.53,1382.6 2105.4,1382.6 2107.28,1382.6 2109.15,1382.61 2111.03,1382.61 2112.9,1382.62 2114.77,1382.62 2116.65,1382.62 2118.52,1382.63 2120.4,1382.63 2122.27,1382.63 2124.15,1382.64 2126.02,1382.64 2127.89,1382.64 2129.77,1382.65 2131.64,1382.65 2133.52,1382.65 2135.39,1382.65 2137.27,1382.66 2139.14,1382.66 2141.01,1382.66 2142.89,1382.67 2144.76,1382.67 2146.64,1382.67 2148.51,1382.68 2150.39,1382.68 2152.26,1382.68 2154.13,1382.69 2156.01,1382.69 2157.88,1382.69 2159.76,1382.69 2161.63,1382.7 2163.51,1382.7 2165.38,1382.7 2167.25,1382.71 2169.13,1382.71 2171,1382.71 2172.88,1382.71 2174.75,1382.72 2176.63,1382.72 2178.5,1382.72 2180.38,1382.73 2182.25,1382.73 2184.12,1382.73 2186,1382.73 2187.87,1382.74 2189.75,1382.74 2191.62,1382.74 2193.5,1382.74 2195.37,1382.75 2197.24,1382.75 2199.12,1382.75 2200.99,1382.76 2202.87,1382.76 2204.74,1382.76 2206.62,1382.76 2208.49,1382.77 2210.36,1382.77 2212.24,1382.77 2214.11,1382.77 2215.99,1382.78 2217.86,1382.78 2219.74,1382.78 2221.61,1382.78 2223.48,1382.79 2225.36,1382.79 2227.23,1382.79 2229.11,1382.79 2230.98,1382.8 2232.86,1382.8 2234.73,1382.8 2236.6,1382.8 2238.48,1382.8 2240.35,1382.81 2242.23,1382.81 2244.1,1382.81 2245.98,1382.81 2247.85,1382.82 2249.72,1382.82 2251.6,1382.82 2253.47,1382.82 2255.35,1382.83 2257.22,1382.83 2259.1,1382.83 2260.97,1382.83 2262.84,1382.83 2264.72,1382.84 2266.59,1382.84 2268.47,1382.84 2270.34,1382.84 2272.22,1382.85 2274.09,1382.85 2275.97,1382.85 2277.84,1382.85 2279.71,1382.85 2281.59,1382.86 2283.46,1382.86 2285.34,1382.86 2287.21,1382.86 2289.09,1382.86 2290.96,1382.87 2292.83,1382.87 2294.71,1382.87 2296.58,1382.87 "/>
<polyline clip-path="url(#clip752)" style="stroke:#ff0000; stroke-linecap:round; stroke-linejoin:round; stroke-width:4; stroke-opacity:1; fill:none" points="1351,2799.12 1351,-1328.69 "/>
<polyline clip-path="url(#clip752)" style="stroke:#ff0000; stroke-linecap:round; stroke-linejoin:round; stroke-width:4; stroke-opacity:1; fill:none" points="1369.72,2799.12 1369.72,-1328.69 "/>
</svg>
