<?xml version="1.0" encoding="utf-8"?>
<svg xmlns="http://www.w3.org/2000/svg" xmlns:xlink="http://www.w3.org/1999/xlink" width="600" height="400" viewBox="0 0 2400 1600">
<defs>
  <clipPath id="clip630">
    <rect x="0" y="0" width="2400" height="1600"/>
  </clipPath>
</defs>
<path clip-path="url(#clip630)" d="M0 1600 L2400 1600 L2400 0 L0 0  Z" fill="#ffffff" fill-rule="evenodd" fill-opacity="1"/>
<defs>
  <clipPath id="clip631">
    <rect x="480" y="0" width="1681" height="1600"/>
  </clipPath>
</defs>
<path clip-path="url(#clip630)" d="M277.621 1423.18 L2352.76 1423.18 L2352.76 123.472 L277.621 123.472  Z" fill="#ffffff" fill-rule="evenodd" fill-opacity="1"/>
<defs>
  <clipPath id="clip632">
    <rect x="277" y="123" width="2076" height="1301"/>
  </clipPath>
</defs>
<polyline clip-path="url(#clip632)" style="stroke:#000000; stroke-linecap:round; stroke-linejoin:round; stroke-width:2; stroke-opacity:0.1; fill:none" points="336.351,1423.18 336.351,123.472 "/>
<polyline clip-path="url(#clip632)" style="stroke:#000000; stroke-linecap:round; stroke-linejoin:round; stroke-width:2; stroke-opacity:0.1; fill:none" points="825.77,1423.18 825.77,123.472 "/>
<polyline clip-path="url(#clip632)" style="stroke:#000000; stroke-linecap:round; stroke-linejoin:round; stroke-width:2; stroke-opacity:0.1; fill:none" points="1315.19,1423.18 1315.19,123.472 "/>
<polyline clip-path="url(#clip632)" style="stroke:#000000; stroke-linecap:round; stroke-linejoin:round; stroke-width:2; stroke-opacity:0.1; fill:none" points="1804.61,1423.18 1804.61,123.472 "/>
<polyline clip-path="url(#clip632)" style="stroke:#000000; stroke-linecap:round; stroke-linejoin:round; stroke-width:2; stroke-opacity:0.1; fill:none" points="2294.03,1423.18 2294.03,123.472 "/>
<polyline clip-path="url(#clip632)" style="stroke:#000000; stroke-linecap:round; stroke-linejoin:round; stroke-width:2; stroke-opacity:0.1; fill:none" points="277.621,1165.14 2352.76,1165.14 "/>
<polyline clip-path="url(#clip632)" style="stroke:#000000; stroke-linecap:round; stroke-linejoin:round; stroke-width:2; stroke-opacity:0.1; fill:none" points="277.621,887.996 2352.76,887.996 "/>
<polyline clip-path="url(#clip632)" style="stroke:#000000; stroke-linecap:round; stroke-linejoin:round; stroke-width:2; stroke-opacity:0.1; fill:none" points="277.621,610.848 2352.76,610.848 "/>
<polyline clip-path="url(#clip632)" style="stroke:#000000; stroke-linecap:round; stroke-linejoin:round; stroke-width:2; stroke-opacity:0.1; fill:none" points="277.621,333.701 2352.76,333.701 "/>
<polyline clip-path="url(#clip630)" style="stroke:#000000; stroke-linecap:round; stroke-linejoin:round; stroke-width:4; stroke-opacity:1; fill:none" points="277.621,1423.18 2352.76,1423.18 "/>
<polyline clip-path="url(#clip630)" style="stroke:#000000; stroke-linecap:round; stroke-linejoin:round; stroke-width:4; stroke-opacity:1; fill:none" points="336.351,1423.18 336.351,1404.28 "/>
<polyline clip-path="url(#clip630)" style="stroke:#000000; stroke-linecap:round; stroke-linejoin:round; stroke-width:4; stroke-opacity:1; fill:none" points="825.77,1423.18 825.77,1404.28 "/>
<polyline clip-path="url(#clip630)" style="stroke:#000000; stroke-linecap:round; stroke-linejoin:round; stroke-width:4; stroke-opacity:1; fill:none" points="1315.19,1423.18 1315.19,1404.28 "/>
<polyline clip-path="url(#clip630)" style="stroke:#000000; stroke-linecap:round; stroke-linejoin:round; stroke-width:4; stroke-opacity:1; fill:none" points="1804.61,1423.18 1804.61,1404.28 "/>
<polyline clip-path="url(#clip630)" style="stroke:#000000; stroke-linecap:round; stroke-linejoin:round; stroke-width:4; stroke-opacity:1; fill:none" points="2294.03,1423.18 2294.03,1404.28 "/>
<path clip-path="url(#clip630)" d="M303.504 1481.64 L311.143 1481.64 L311.143 1455.28 L302.832 1456.95 L302.832 1452.69 L311.096 1451.02 L315.772 1451.02 L315.772 1481.64 L323.411 1481.64 L323.411 1485.58 L303.504 1485.58 L303.504 1481.64 Z" fill="#000000" fill-rule="nonzero" fill-opacity="1" /><path clip-path="url(#clip630)" d="M332.855 1479.7 L337.74 1479.7 L337.74 1485.58 L332.855 1485.58 L332.855 1479.7 Z" fill="#000000" fill-rule="nonzero" fill-opacity="1" /><path clip-path="url(#clip630)" d="M357.925 1454.1 Q354.314 1454.1 352.485 1457.66 Q350.679 1461.2 350.679 1468.33 Q350.679 1475.44 352.485 1479.01 Q354.314 1482.55 357.925 1482.55 Q361.559 1482.55 363.365 1479.01 Q365.193 1475.44 365.193 1468.33 Q365.193 1461.2 363.365 1457.66 Q361.559 1454.1 357.925 1454.1 M357.925 1450.39 Q363.735 1450.39 366.79 1455 Q369.869 1459.58 369.869 1468.33 Q369.869 1477.06 366.79 1481.67 Q363.735 1486.25 357.925 1486.25 Q352.115 1486.25 349.036 1481.67 Q345.98 1477.06 345.98 1468.33 Q345.98 1459.58 349.036 1455 Q352.115 1450.39 357.925 1450.39 Z" fill="#000000" fill-rule="nonzero" fill-opacity="1" /><path clip-path="url(#clip630)" d="M793.42 1481.64 L801.059 1481.64 L801.059 1455.28 L792.749 1456.95 L792.749 1452.69 L801.013 1451.02 L805.689 1451.02 L805.689 1481.64 L813.327 1481.64 L813.327 1485.58 L793.42 1485.58 L793.42 1481.64 Z" fill="#000000" fill-rule="nonzero" fill-opacity="1" /><path clip-path="url(#clip630)" d="M822.772 1479.7 L827.656 1479.7 L827.656 1485.58 L822.772 1485.58 L822.772 1479.7 Z" fill="#000000" fill-rule="nonzero" fill-opacity="1" /><path clip-path="url(#clip630)" d="M837.888 1451.02 L856.244 1451.02 L856.244 1454.96 L842.17 1454.96 L842.17 1463.43 Q843.188 1463.08 844.207 1462.92 Q845.225 1462.73 846.244 1462.73 Q852.031 1462.73 855.411 1465.9 Q858.79 1469.08 858.79 1474.49 Q858.79 1480.07 855.318 1483.17 Q851.846 1486.25 845.526 1486.25 Q843.35 1486.25 841.082 1485.88 Q838.837 1485.51 836.429 1484.77 L836.429 1480.07 Q838.513 1481.2 840.735 1481.76 Q842.957 1482.32 845.434 1482.32 Q849.438 1482.32 851.776 1480.21 Q854.114 1478.1 854.114 1474.49 Q854.114 1470.88 851.776 1468.77 Q849.438 1466.67 845.434 1466.67 Q843.559 1466.67 841.684 1467.08 Q839.832 1467.5 837.888 1468.38 L837.888 1451.02 Z" fill="#000000" fill-rule="nonzero" fill-opacity="1" /><path clip-path="url(#clip630)" d="M1286.43 1481.64 L1302.75 1481.64 L1302.75 1485.58 L1280.8 1485.58 L1280.8 1481.64 Q1283.46 1478.89 1288.05 1474.26 Q1292.65 1469.61 1293.83 1468.27 Q1296.08 1465.74 1296.96 1464.01 Q1297.86 1462.25 1297.86 1460.56 Q1297.86 1457.8 1295.92 1456.07 Q1294 1454.33 1290.89 1454.33 Q1288.7 1454.33 1286.24 1455.09 Q1283.81 1455.86 1281.03 1457.41 L1281.03 1452.69 Q1283.86 1451.55 1286.31 1450.97 Q1288.76 1450.39 1290.8 1450.39 Q1296.17 1450.39 1299.37 1453.08 Q1302.56 1455.77 1302.56 1460.26 Q1302.56 1462.39 1301.75 1464.31 Q1300.96 1466.2 1298.86 1468.8 Q1298.28 1469.47 1295.18 1472.69 Q1292.07 1475.88 1286.43 1481.64 Z" fill="#000000" fill-rule="nonzero" fill-opacity="1" /><path clip-path="url(#clip630)" d="M1312.56 1479.7 L1317.45 1479.7 L1317.45 1485.58 L1312.56 1485.58 L1312.56 1479.7 Z" fill="#000000" fill-rule="nonzero" fill-opacity="1" /><path clip-path="url(#clip630)" d="M1337.63 1454.1 Q1334.02 1454.1 1332.19 1457.66 Q1330.38 1461.2 1330.38 1468.33 Q1330.38 1475.44 1332.19 1479.01 Q1334.02 1482.55 1337.63 1482.55 Q1341.26 1482.55 1343.07 1479.01 Q1344.9 1475.44 1344.9 1468.33 Q1344.9 1461.2 1343.07 1457.66 Q1341.26 1454.1 1337.63 1454.1 M1337.63 1450.39 Q1343.44 1450.39 1346.5 1455 Q1349.57 1459.58 1349.57 1468.33 Q1349.57 1477.06 1346.5 1481.67 Q1343.44 1486.25 1337.63 1486.25 Q1331.82 1486.25 1328.74 1481.67 Q1325.69 1477.06 1325.69 1468.33 Q1325.69 1459.58 1328.74 1455 Q1331.82 1450.39 1337.63 1450.39 Z" fill="#000000" fill-rule="nonzero" fill-opacity="1" /><path clip-path="url(#clip630)" d="M1776.34 1481.64 L1792.66 1481.64 L1792.66 1485.58 L1770.72 1485.58 L1770.72 1481.64 Q1773.38 1478.89 1777.96 1474.26 Q1782.57 1469.61 1783.75 1468.27 Q1786 1465.74 1786.88 1464.01 Q1787.78 1462.25 1787.78 1460.56 Q1787.78 1457.8 1785.83 1456.07 Q1783.91 1454.33 1780.81 1454.33 Q1778.61 1454.33 1776.16 1455.09 Q1773.73 1455.86 1770.95 1457.41 L1770.95 1452.69 Q1773.77 1451.55 1776.23 1450.97 Q1778.68 1450.39 1780.72 1450.39 Q1786.09 1450.39 1789.28 1453.08 Q1792.48 1455.77 1792.48 1460.26 Q1792.48 1462.39 1791.67 1464.31 Q1790.88 1466.2 1788.77 1468.8 Q1788.2 1469.47 1785.09 1472.69 Q1781.99 1475.88 1776.34 1481.64 Z" fill="#000000" fill-rule="nonzero" fill-opacity="1" /><path clip-path="url(#clip630)" d="M1802.48 1479.7 L1807.36 1479.7 L1807.36 1485.58 L1802.48 1485.58 L1802.48 1479.7 Z" fill="#000000" fill-rule="nonzero" fill-opacity="1" /><path clip-path="url(#clip630)" d="M1817.59 1451.02 L1835.95 1451.02 L1835.95 1454.96 L1821.88 1454.96 L1821.88 1463.43 Q1822.89 1463.08 1823.91 1462.92 Q1824.93 1462.73 1825.95 1462.73 Q1831.74 1462.73 1835.12 1465.9 Q1838.5 1469.08 1838.5 1474.49 Q1838.5 1480.07 1835.02 1483.17 Q1831.55 1486.25 1825.23 1486.25 Q1823.06 1486.25 1820.79 1485.88 Q1818.54 1485.51 1816.13 1484.77 L1816.13 1480.07 Q1818.22 1481.2 1820.44 1481.76 Q1822.66 1482.32 1825.14 1482.32 Q1829.14 1482.32 1831.48 1480.21 Q1833.82 1478.1 1833.82 1474.49 Q1833.82 1470.88 1831.48 1468.77 Q1829.14 1466.67 1825.14 1466.67 Q1823.26 1466.67 1821.39 1467.08 Q1819.54 1467.5 1817.59 1468.38 L1817.59 1451.02 Z" fill="#000000" fill-rule="nonzero" fill-opacity="1" /><path clip-path="url(#clip630)" d="M2275.33 1466.95 Q2278.69 1467.66 2280.57 1469.93 Q2282.46 1472.2 2282.46 1475.53 Q2282.46 1480.65 2278.94 1483.45 Q2275.43 1486.25 2268.94 1486.25 Q2266.77 1486.25 2264.45 1485.81 Q2262.16 1485.39 2259.71 1484.54 L2259.71 1480.02 Q2261.65 1481.16 2263.97 1481.74 Q2266.28 1482.32 2268.81 1482.32 Q2273.2 1482.32 2275.5 1480.58 Q2277.81 1478.84 2277.81 1475.53 Q2277.81 1472.48 2275.66 1470.77 Q2273.53 1469.03 2269.71 1469.03 L2265.68 1469.03 L2265.68 1465.19 L2269.89 1465.19 Q2273.34 1465.19 2275.17 1463.82 Q2277 1462.43 2277 1459.84 Q2277 1457.18 2275.1 1455.77 Q2273.23 1454.33 2269.71 1454.33 Q2267.79 1454.33 2265.59 1454.75 Q2263.39 1455.16 2260.75 1456.04 L2260.75 1451.88 Q2263.41 1451.14 2265.73 1450.77 Q2268.07 1450.39 2270.13 1450.39 Q2275.45 1450.39 2278.55 1452.83 Q2281.65 1455.23 2281.65 1459.35 Q2281.65 1462.22 2280.01 1464.21 Q2278.37 1466.18 2275.33 1466.95 Z" fill="#000000" fill-rule="nonzero" fill-opacity="1" /><path clip-path="url(#clip630)" d="M2291.33 1479.7 L2296.21 1479.7 L2296.21 1485.58 L2291.33 1485.58 L2291.33 1479.7 Z" fill="#000000" fill-rule="nonzero" fill-opacity="1" /><path clip-path="url(#clip630)" d="M2316.4 1454.1 Q2312.79 1454.1 2310.96 1457.66 Q2309.15 1461.2 2309.15 1468.33 Q2309.15 1475.44 2310.96 1479.01 Q2312.79 1482.55 2316.4 1482.55 Q2320.03 1482.55 2321.84 1479.01 Q2323.67 1475.44 2323.67 1468.33 Q2323.67 1461.2 2321.84 1457.66 Q2320.03 1454.1 2316.4 1454.1 M2316.4 1450.39 Q2322.21 1450.39 2325.26 1455 Q2328.34 1459.58 2328.34 1468.33 Q2328.34 1477.06 2325.26 1481.67 Q2322.21 1486.25 2316.4 1486.25 Q2310.59 1486.25 2307.51 1481.67 Q2304.45 1477.06 2304.45 1468.33 Q2304.45 1459.58 2307.51 1455 Q2310.59 1450.39 2316.4 1450.39 Z" fill="#000000" fill-rule="nonzero" fill-opacity="1" /><path clip-path="url(#clip630)" d="M1156.35 1525.81 L1156.35 1562.76 L1164.11 1562.76 Q1173.95 1562.76 1178.5 1558.3 Q1183.08 1553.85 1183.08 1544.24 Q1183.08 1534.69 1178.5 1530.26 Q1173.95 1525.81 1164.11 1525.81 L1156.35 1525.81 M1149.92 1520.52 L1163.13 1520.52 Q1176.94 1520.52 1183.4 1526.28 Q1189.86 1532.01 1189.86 1544.24 Q1189.86 1556.52 1183.37 1562.28 Q1176.88 1568.04 1163.13 1568.04 L1149.92 1568.04 L1149.92 1520.52 Z" fill="#000000" fill-rule="nonzero" fill-opacity="1" /><path clip-path="url(#clip630)" d="M1199.86 1532.4 L1205.71 1532.4 L1205.71 1568.04 L1199.86 1568.04 L1199.86 1532.4 M1199.86 1518.52 L1205.71 1518.52 L1205.71 1525.93 L1199.86 1525.93 L1199.86 1518.52 Z" fill="#000000" fill-rule="nonzero" fill-opacity="1" /><path clip-path="url(#clip630)" d="M1240.69 1533.45 L1240.69 1538.98 Q1238.21 1537.71 1235.54 1537.07 Q1232.86 1536.44 1230 1536.44 Q1225.64 1536.44 1223.44 1537.77 Q1221.28 1539.11 1221.28 1541.79 Q1221.28 1543.82 1222.84 1545 Q1224.4 1546.15 1229.11 1547.2 L1231.11 1547.64 Q1237.35 1548.98 1239.96 1551.43 Q1242.6 1553.85 1242.6 1558.21 Q1242.6 1563.17 1238.66 1566.07 Q1234.74 1568.97 1227.87 1568.97 Q1225 1568.97 1221.88 1568.39 Q1218.8 1567.85 1215.36 1566.74 L1215.36 1560.69 Q1218.6 1562.38 1221.76 1563.24 Q1224.91 1564.07 1227.99 1564.07 Q1232.13 1564.07 1234.36 1562.66 Q1236.59 1561.23 1236.59 1558.65 Q1236.59 1556.27 1234.96 1554.99 Q1233.37 1553.72 1227.93 1552.54 L1225.89 1552.07 Q1220.45 1550.92 1218.03 1548.56 Q1215.61 1546.18 1215.61 1542.04 Q1215.61 1537.01 1219.18 1534.27 Q1222.74 1531.54 1229.3 1531.54 Q1232.55 1531.54 1235.41 1532.01 Q1238.27 1532.49 1240.69 1533.45 Z" fill="#000000" fill-rule="nonzero" fill-opacity="1" /><path clip-path="url(#clip630)" d="M1251.71 1518.52 L1257.59 1518.52 L1257.59 1547.77 L1275.07 1532.4 L1282.55 1532.4 L1263.64 1549.07 L1283.34 1568.04 L1275.7 1568.04 L1257.59 1550.63 L1257.59 1568.04 L1251.71 1568.04 L1251.71 1518.52 Z" fill="#000000" fill-rule="nonzero" fill-opacity="1" /><path clip-path="url(#clip630)" d="M1310.4 1532.4 L1316.25 1532.4 L1316.25 1568.04 L1310.4 1568.04 L1310.4 1532.4 M1310.4 1518.52 L1316.25 1518.52 L1316.25 1525.93 L1310.4 1525.93 L1310.4 1518.52 Z" fill="#000000" fill-rule="nonzero" fill-opacity="1" /><path clip-path="url(#clip630)" d="M1358.14 1546.53 L1358.14 1568.04 L1352.28 1568.04 L1352.28 1546.72 Q1352.28 1541.66 1350.31 1539.14 Q1348.34 1536.63 1344.39 1536.63 Q1339.65 1536.63 1336.91 1539.65 Q1334.17 1542.68 1334.17 1547.9 L1334.17 1568.04 L1328.29 1568.04 L1328.29 1532.4 L1334.17 1532.4 L1334.17 1537.93 Q1336.27 1534.72 1339.11 1533.13 Q1341.97 1531.54 1345.7 1531.54 Q1351.84 1531.54 1354.99 1535.36 Q1358.14 1539.14 1358.14 1546.53 Z" fill="#000000" fill-rule="nonzero" fill-opacity="1" /><path clip-path="url(#clip630)" d="M1393.28 1537.81 L1393.28 1518.52 L1399.14 1518.52 L1399.14 1568.04 L1393.28 1568.04 L1393.28 1562.7 Q1391.43 1565.88 1388.6 1567.44 Q1385.8 1568.97 1381.85 1568.97 Q1375.39 1568.97 1371.32 1563.81 Q1367.28 1558.65 1367.28 1550.25 Q1367.28 1541.85 1371.32 1536.69 Q1375.39 1531.54 1381.85 1531.54 Q1385.8 1531.54 1388.6 1533.1 Q1391.43 1534.62 1393.28 1537.81 M1373.32 1550.25 Q1373.32 1556.71 1375.96 1560.4 Q1378.64 1564.07 1383.29 1564.07 Q1387.93 1564.07 1390.61 1560.4 Q1393.28 1556.71 1393.28 1550.25 Q1393.28 1543.79 1390.61 1540.13 Q1387.93 1536.44 1383.29 1536.44 Q1378.64 1536.44 1375.96 1540.13 Q1373.32 1543.79 1373.32 1550.25 Z" fill="#000000" fill-rule="nonzero" fill-opacity="1" /><path clip-path="url(#clip630)" d="M1441.69 1548.76 L1441.69 1551.62 L1414.76 1551.62 Q1415.15 1557.67 1418.39 1560.85 Q1421.67 1564 1427.5 1564 Q1430.87 1564 1434.02 1563.17 Q1437.2 1562.35 1440.32 1560.69 L1440.32 1566.23 Q1437.17 1567.57 1433.86 1568.27 Q1430.55 1568.97 1427.15 1568.97 Q1418.62 1568.97 1413.62 1564 Q1408.65 1559.04 1408.65 1550.57 Q1408.65 1541.82 1413.36 1536.69 Q1418.11 1531.54 1426.13 1531.54 Q1433.32 1531.54 1437.49 1536.18 Q1441.69 1540.8 1441.69 1548.76 M1435.83 1547.04 Q1435.77 1542.23 1433.13 1539.37 Q1430.52 1536.5 1426.19 1536.5 Q1421.29 1536.5 1418.33 1539.27 Q1415.4 1542.04 1414.95 1547.07 L1435.83 1547.04 Z" fill="#000000" fill-rule="nonzero" fill-opacity="1" /><path clip-path="url(#clip630)" d="M1479.79 1532.4 L1466.9 1549.74 L1480.46 1568.04 L1473.55 1568.04 L1463.18 1554.04 L1452.8 1568.04 L1445.89 1568.04 L1459.74 1549.39 L1447.07 1532.4 L1453.98 1532.4 L1463.43 1545.1 L1472.88 1532.4 L1479.79 1532.4 Z" fill="#000000" fill-rule="nonzero" fill-opacity="1" /><polyline clip-path="url(#clip630)" style="stroke:#000000; stroke-linecap:round; stroke-linejoin:round; stroke-width:4; stroke-opacity:1; fill:none" points="277.621,1423.18 277.621,123.472 "/>
<polyline clip-path="url(#clip630)" style="stroke:#000000; stroke-linecap:round; stroke-linejoin:round; stroke-width:4; stroke-opacity:1; fill:none" points="277.621,1165.14 296.518,1165.14 "/>
<polyline clip-path="url(#clip630)" style="stroke:#000000; stroke-linecap:round; stroke-linejoin:round; stroke-width:4; stroke-opacity:1; fill:none" points="277.621,887.996 296.518,887.996 "/>
<polyline clip-path="url(#clip630)" style="stroke:#000000; stroke-linecap:round; stroke-linejoin:round; stroke-width:4; stroke-opacity:1; fill:none" points="277.621,610.848 296.518,610.848 "/>
<polyline clip-path="url(#clip630)" style="stroke:#000000; stroke-linecap:round; stroke-linejoin:round; stroke-width:4; stroke-opacity:1; fill:none" points="277.621,333.701 296.518,333.701 "/>
<path clip-path="url(#clip630)" d="M114.931 1178.49 L122.57 1178.49 L122.57 1152.12 L114.26 1153.79 L114.26 1149.53 L122.524 1147.86 L127.2 1147.86 L127.2 1178.49 L134.839 1178.49 L134.839 1182.42 L114.931 1182.42 L114.931 1178.49 Z" fill="#000000" fill-rule="nonzero" fill-opacity="1" /><path clip-path="url(#clip630)" d="M145.093 1178.49 L152.732 1178.49 L152.732 1152.12 L144.422 1153.79 L144.422 1149.53 L152.686 1147.86 L157.362 1147.86 L157.362 1178.49 L165.001 1178.49 L165.001 1182.42 L145.093 1182.42 L145.093 1178.49 Z" fill="#000000" fill-rule="nonzero" fill-opacity="1" /><path clip-path="url(#clip630)" d="M174.445 1176.54 L179.329 1176.54 L179.329 1182.42 L174.445 1182.42 L174.445 1176.54 Z" fill="#000000" fill-rule="nonzero" fill-opacity="1" /><path clip-path="url(#clip630)" d="M189.561 1147.86 L207.917 1147.86 L207.917 1151.8 L193.843 1151.8 L193.843 1160.27 Q194.862 1159.92 195.88 1159.76 Q196.899 1159.58 197.917 1159.58 Q203.704 1159.58 207.084 1162.75 Q210.463 1165.92 210.463 1171.34 Q210.463 1176.91 206.991 1180.02 Q203.519 1183.09 197.2 1183.09 Q195.024 1183.09 192.755 1182.72 Q190.51 1182.35 188.102 1181.61 L188.102 1176.91 Q190.186 1178.05 192.408 1178.6 Q194.63 1179.16 197.107 1179.16 Q201.112 1179.16 203.449 1177.05 Q205.787 1174.95 205.787 1171.34 Q205.787 1167.72 203.449 1165.62 Q201.112 1163.51 197.107 1163.51 Q195.232 1163.51 193.357 1163.93 Q191.505 1164.34 189.561 1165.22 L189.561 1147.86 Z" fill="#000000" fill-rule="nonzero" fill-opacity="1" /><path clip-path="url(#clip630)" d="M229.676 1150.94 Q226.065 1150.94 224.236 1154.51 Q222.431 1158.05 222.431 1165.18 Q222.431 1172.28 224.236 1175.85 Q226.065 1179.39 229.676 1179.39 Q233.31 1179.39 235.116 1175.85 Q236.945 1172.28 236.945 1165.18 Q236.945 1158.05 235.116 1154.51 Q233.31 1150.94 229.676 1150.94 M229.676 1147.24 Q235.486 1147.24 238.542 1151.85 Q241.621 1156.43 241.621 1165.18 Q241.621 1173.91 238.542 1178.51 Q235.486 1183.09 229.676 1183.09 Q223.866 1183.09 220.787 1178.51 Q217.732 1173.91 217.732 1165.18 Q217.732 1156.43 220.787 1151.85 Q223.866 1147.24 229.676 1147.24 Z" fill="#000000" fill-rule="nonzero" fill-opacity="1" /><path clip-path="url(#clip630)" d="M115.927 901.341 L123.566 901.341 L123.566 874.975 L115.256 876.642 L115.256 872.383 L123.519 870.716 L128.195 870.716 L128.195 901.341 L135.834 901.341 L135.834 905.276 L115.927 905.276 L115.927 901.341 Z" fill="#000000" fill-rule="nonzero" fill-opacity="1" /><path clip-path="url(#clip630)" d="M146.089 901.341 L153.728 901.341 L153.728 874.975 L145.417 876.642 L145.417 872.383 L153.681 870.716 L158.357 870.716 L158.357 901.341 L165.996 901.341 L165.996 905.276 L146.089 905.276 L146.089 901.341 Z" fill="#000000" fill-rule="nonzero" fill-opacity="1" /><path clip-path="url(#clip630)" d="M175.44 899.396 L180.325 899.396 L180.325 905.276 L175.44 905.276 L175.44 899.396 Z" fill="#000000" fill-rule="nonzero" fill-opacity="1" /><path clip-path="url(#clip630)" d="M189.329 870.716 L211.551 870.716 L211.551 872.707 L199.005 905.276 L194.121 905.276 L205.926 874.651 L189.329 874.651 L189.329 870.716 Z" fill="#000000" fill-rule="nonzero" fill-opacity="1" /><path clip-path="url(#clip630)" d="M220.718 870.716 L239.074 870.716 L239.074 874.651 L225 874.651 L225 883.123 Q226.019 882.776 227.037 882.614 Q228.056 882.429 229.074 882.429 Q234.861 882.429 238.241 885.6 Q241.621 888.771 241.621 894.188 Q241.621 899.767 238.148 902.868 Q234.676 905.947 228.357 905.947 Q226.181 905.947 223.912 905.577 Q221.667 905.206 219.26 904.466 L219.26 899.767 Q221.343 900.901 223.565 901.456 Q225.787 902.012 228.264 902.012 Q232.269 902.012 234.607 899.906 Q236.945 897.799 236.945 894.188 Q236.945 890.577 234.607 888.47 Q232.269 886.364 228.264 886.364 Q226.389 886.364 224.514 886.781 Q222.662 887.197 220.718 888.077 L220.718 870.716 Z" fill="#000000" fill-rule="nonzero" fill-opacity="1" /><path clip-path="url(#clip630)" d="M114.931 624.193 L122.57 624.193 L122.57 597.827 L114.26 599.494 L114.26 595.235 L122.524 593.568 L127.2 593.568 L127.2 624.193 L134.839 624.193 L134.839 628.128 L114.931 628.128 L114.931 624.193 Z" fill="#000000" fill-rule="nonzero" fill-opacity="1" /><path clip-path="url(#clip630)" d="M148.311 624.193 L164.63 624.193 L164.63 628.128 L142.686 628.128 L142.686 624.193 Q145.348 621.438 149.931 616.809 Q154.538 612.156 155.718 610.813 Q157.964 608.29 158.843 606.554 Q159.746 604.795 159.746 603.105 Q159.746 600.351 157.802 598.614 Q155.88 596.878 152.778 596.878 Q150.579 596.878 148.126 597.642 Q145.695 598.406 142.917 599.957 L142.917 595.235 Q145.741 594.101 148.195 593.522 Q150.649 592.943 152.686 592.943 Q158.056 592.943 161.251 595.628 Q164.445 598.314 164.445 602.804 Q164.445 604.934 163.635 606.855 Q162.848 608.753 160.741 611.346 Q160.163 612.017 157.061 615.235 Q153.959 618.429 148.311 624.193 Z" fill="#000000" fill-rule="nonzero" fill-opacity="1" /><path clip-path="url(#clip630)" d="M174.445 622.249 L179.329 622.249 L179.329 628.128 L174.445 628.128 L174.445 622.249 Z" fill="#000000" fill-rule="nonzero" fill-opacity="1" /><path clip-path="url(#clip630)" d="M199.514 596.647 Q195.903 596.647 194.075 600.212 Q192.269 603.753 192.269 610.883 Q192.269 617.989 194.075 621.554 Q195.903 625.096 199.514 625.096 Q203.149 625.096 204.954 621.554 Q206.783 617.989 206.783 610.883 Q206.783 603.753 204.954 600.212 Q203.149 596.647 199.514 596.647 M199.514 592.943 Q205.324 592.943 208.38 597.55 Q211.459 602.133 211.459 610.883 Q211.459 619.61 208.38 624.216 Q205.324 628.8 199.514 628.8 Q193.704 628.8 190.625 624.216 Q187.57 619.61 187.57 610.883 Q187.57 602.133 190.625 597.55 Q193.704 592.943 199.514 592.943 Z" fill="#000000" fill-rule="nonzero" fill-opacity="1" /><path clip-path="url(#clip630)" d="M229.676 596.647 Q226.065 596.647 224.236 600.212 Q222.431 603.753 222.431 610.883 Q222.431 617.989 224.236 621.554 Q226.065 625.096 229.676 625.096 Q233.31 625.096 235.116 621.554 Q236.945 617.989 236.945 610.883 Q236.945 603.753 235.116 600.212 Q233.31 596.647 229.676 596.647 M229.676 592.943 Q235.486 592.943 238.542 597.55 Q241.621 602.133 241.621 610.883 Q241.621 619.61 238.542 624.216 Q235.486 628.8 229.676 628.8 Q223.866 628.8 220.787 624.216 Q217.732 619.61 217.732 610.883 Q217.732 602.133 220.787 597.55 Q223.866 592.943 229.676 592.943 Z" fill="#000000" fill-rule="nonzero" fill-opacity="1" /><path clip-path="url(#clip630)" d="M115.927 347.045 L123.566 347.045 L123.566 320.68 L115.256 322.346 L115.256 318.087 L123.519 316.421 L128.195 316.421 L128.195 347.045 L135.834 347.045 L135.834 350.981 L115.927 350.981 L115.927 347.045 Z" fill="#000000" fill-rule="nonzero" fill-opacity="1" /><path clip-path="url(#clip630)" d="M149.306 347.045 L165.626 347.045 L165.626 350.981 L143.681 350.981 L143.681 347.045 Q146.343 344.291 150.927 339.661 Q155.533 335.008 156.714 333.666 Q158.959 331.143 159.839 329.407 Q160.741 327.647 160.741 325.958 Q160.741 323.203 158.797 321.467 Q156.876 319.731 153.774 319.731 Q151.575 319.731 149.121 320.495 Q146.691 321.258 143.913 322.809 L143.913 318.087 Q146.737 316.953 149.191 316.374 Q151.644 315.796 153.681 315.796 Q159.052 315.796 162.246 318.481 Q165.44 321.166 165.44 325.657 Q165.44 327.786 164.63 329.708 Q163.843 331.606 161.737 334.198 Q161.158 334.87 158.056 338.087 Q154.954 341.282 149.306 347.045 Z" fill="#000000" fill-rule="nonzero" fill-opacity="1" /><path clip-path="url(#clip630)" d="M175.44 345.101 L180.325 345.101 L180.325 350.981 L175.44 350.981 L175.44 345.101 Z" fill="#000000" fill-rule="nonzero" fill-opacity="1" /><path clip-path="url(#clip630)" d="M194.538 347.045 L210.857 347.045 L210.857 350.981 L188.913 350.981 L188.913 347.045 Q191.575 344.291 196.158 339.661 Q200.764 335.008 201.945 333.666 Q204.19 331.143 205.07 329.407 Q205.973 327.647 205.973 325.958 Q205.973 323.203 204.028 321.467 Q202.107 319.731 199.005 319.731 Q196.806 319.731 194.352 320.495 Q191.922 321.258 189.144 322.809 L189.144 318.087 Q191.968 316.953 194.422 316.374 Q196.875 315.796 198.912 315.796 Q204.283 315.796 207.477 318.481 Q210.672 321.166 210.672 325.657 Q210.672 327.786 209.861 329.708 Q209.074 331.606 206.968 334.198 Q206.389 334.87 203.287 338.087 Q200.186 341.282 194.538 347.045 Z" fill="#000000" fill-rule="nonzero" fill-opacity="1" /><path clip-path="url(#clip630)" d="M220.718 316.421 L239.074 316.421 L239.074 320.356 L225 320.356 L225 328.828 Q226.019 328.481 227.037 328.319 Q228.056 328.133 229.074 328.133 Q234.861 328.133 238.241 331.305 Q241.621 334.476 241.621 339.893 Q241.621 345.471 238.148 348.573 Q234.676 351.652 228.357 351.652 Q226.181 351.652 223.912 351.281 Q221.667 350.911 219.26 350.17 L219.26 345.471 Q221.343 346.606 223.565 347.161 Q225.787 347.717 228.264 347.717 Q232.269 347.717 234.607 345.61 Q236.945 343.504 236.945 339.893 Q236.945 336.282 234.607 334.175 Q232.269 332.069 228.264 332.069 Q226.389 332.069 224.514 332.485 Q222.662 332.902 220.718 333.782 L220.718 316.421 Z" fill="#000000" fill-rule="nonzero" fill-opacity="1" /><path clip-path="url(#clip630)" d="M20.4822 1058.66 L57.4351 1058.66 L57.4351 1050.9 Q57.4351 1041.06 52.9791 1036.51 Q48.5231 1031.93 38.9109 1031.93 Q29.3623 1031.93 24.9382 1036.51 Q20.4822 1041.06 20.4822 1050.9 L20.4822 1058.66 M15.1986 1065.09 L15.1986 1051.88 Q15.1986 1038.07 20.9596 1031.61 Q26.6887 1025.15 38.9109 1025.15 Q51.1967 1025.15 56.9577 1031.64 Q62.7186 1038.13 62.7186 1051.88 L62.7186 1065.09 L15.1986 1065.09 Z" fill="#000000" fill-rule="nonzero" fill-opacity="1" /><path clip-path="url(#clip630)" d="M27.0707 1015.15 L27.0707 1009.3 L62.7186 1009.3 L62.7186 1015.15 L27.0707 1015.15 M13.1934 1015.15 L13.1934 1009.3 L20.6095 1009.3 L20.6095 1015.15 L13.1934 1015.15 Z" fill="#000000" fill-rule="nonzero" fill-opacity="1" /><path clip-path="url(#clip630)" d="M28.121 974.318 L33.6592 974.318 Q32.386 976.8 31.7495 979.474 Q31.1129 982.148 31.1129 985.012 Q31.1129 989.373 32.4497 991.569 Q33.7865 993.733 36.4601 993.733 Q38.4971 993.733 39.6748 992.174 Q40.8206 990.614 41.8709 985.903 L42.3165 983.898 Q43.6533 977.66 46.1041 975.05 Q48.5231 972.408 52.8836 972.408 Q57.8489 972.408 60.7453 976.355 Q63.6417 980.27 63.6417 987.145 Q63.6417 990.009 63.0687 993.128 Q62.5277 996.216 61.4137 999.653 L55.3662 999.653 Q57.0531 996.407 57.9125 993.256 Q58.7401 990.105 58.7401 987.017 Q58.7401 982.88 57.3396 980.652 Q55.9073 978.424 53.3292 978.424 Q50.9421 978.424 49.6689 980.047 Q48.3958 981.638 47.2181 987.081 L46.7407 989.118 Q45.5949 994.561 43.2396 996.98 Q40.8524 999.399 36.7147 999.399 Q31.6858 999.399 28.9486 995.834 Q26.2113 992.269 26.2113 985.712 Q26.2113 982.466 26.6887 979.601 Q27.1662 976.737 28.121 974.318 Z" fill="#000000" fill-rule="nonzero" fill-opacity="1" /><path clip-path="url(#clip630)" d="M16.9492 957.29 L27.0707 957.29 L27.0707 945.227 L31.6221 945.227 L31.6221 957.29 L50.9739 957.29 Q55.3344 957.29 56.5757 956.112 Q57.817 954.902 57.817 951.242 L57.817 945.227 L62.7186 945.227 L62.7186 951.242 Q62.7186 958.022 60.2042 960.6 Q57.6579 963.178 50.9739 963.178 L31.6221 963.178 L31.6221 967.475 L27.0707 967.475 L27.0707 963.178 L16.9492 963.178 L16.9492 957.29 Z" fill="#000000" fill-rule="nonzero" fill-opacity="1" /><path clip-path="url(#clip630)" d="M44.7992 921.323 Q44.7992 928.421 46.4224 931.158 Q48.0457 933.896 51.9606 933.896 Q55.0798 933.896 56.9258 931.859 Q58.7401 929.79 58.7401 926.257 Q58.7401 921.387 55.3026 918.459 Q51.8333 915.499 46.1041 915.499 L44.7992 915.499 L44.7992 921.323 M42.3802 909.642 L62.7186 909.642 L62.7186 915.499 L57.3078 915.499 Q60.5543 917.504 62.1139 920.496 Q63.6417 923.488 63.6417 927.816 Q63.6417 933.291 60.5861 936.537 Q57.4987 939.752 52.3425 939.752 Q46.3269 939.752 43.2714 935.742 Q40.2159 931.699 40.2159 923.71 L40.2159 915.499 L39.6429 915.499 Q35.6007 915.499 33.4045 918.172 Q31.1765 920.814 31.1765 925.62 Q31.1765 928.676 31.9086 931.572 Q32.6407 934.468 34.1048 937.142 L28.6939 937.142 Q27.4526 933.927 26.8479 930.904 Q26.2113 927.88 26.2113 925.015 Q26.2113 917.281 30.2217 913.462 Q34.2321 909.642 42.3802 909.642 Z" fill="#000000" fill-rule="nonzero" fill-opacity="1" /><path clip-path="url(#clip630)" d="M41.2025 867.947 L62.7186 867.947 L62.7186 873.803 L41.3935 873.803 Q36.3328 873.803 33.8183 875.777 Q31.3039 877.75 31.3039 881.697 Q31.3039 886.439 34.3276 889.176 Q37.3513 891.914 42.5712 891.914 L62.7186 891.914 L62.7186 897.802 L27.0707 897.802 L27.0707 891.914 L32.6088 891.914 Q29.3942 889.813 27.8027 886.98 Q26.2113 884.116 26.2113 880.392 Q26.2113 874.249 30.0307 871.098 Q33.8183 867.947 41.2025 867.947 Z" fill="#000000" fill-rule="nonzero" fill-opacity="1" /><path clip-path="url(#clip630)" d="M28.4393 830.612 L33.9138 830.612 Q32.5452 833.095 31.8768 835.609 Q31.1765 838.092 31.1765 840.638 Q31.1765 846.335 34.805 849.486 Q38.4016 852.637 44.9265 852.637 Q51.4513 852.637 55.0798 849.486 Q58.6764 846.335 58.6764 840.638 Q58.6764 838.092 58.008 835.609 Q57.3078 833.095 55.9391 830.612 L61.35 830.612 Q62.4958 833.063 63.0687 835.705 Q63.6417 838.314 63.6417 841.275 Q63.6417 849.327 58.5809 854.07 Q53.5202 858.812 44.9265 858.812 Q36.2055 858.812 31.2084 854.038 Q26.2113 849.232 26.2113 840.893 Q26.2113 838.187 26.7842 835.609 Q27.3253 833.031 28.4393 830.612 Z" fill="#000000" fill-rule="nonzero" fill-opacity="1" /><path clip-path="url(#clip630)" d="M43.4305 789.935 L46.2951 789.935 L46.2951 816.862 Q52.3425 816.48 55.5254 813.234 Q58.6764 809.955 58.6764 804.131 Q58.6764 800.757 57.8489 797.606 Q57.0213 794.423 55.3662 791.304 L60.9044 791.304 Q62.2412 794.455 62.9414 797.765 Q63.6417 801.075 63.6417 804.481 Q63.6417 813.011 58.6764 818.008 Q53.7112 822.973 45.2448 822.973 Q36.4919 822.973 31.3675 818.262 Q26.2113 813.52 26.2113 805.499 Q26.2113 798.306 30.8583 794.136 Q35.4734 789.935 43.4305 789.935 M41.7118 795.792 Q36.9057 795.855 34.0411 798.497 Q31.1765 801.107 31.1765 805.436 Q31.1765 810.337 33.9456 813.297 Q36.7147 816.225 41.7436 816.671 L41.7118 795.792 Z" fill="#000000" fill-rule="nonzero" fill-opacity="1" /><path clip-path="url(#clip630)" d="M28.121 757.597 L33.6592 757.597 Q32.386 760.08 31.7495 762.754 Q31.1129 765.427 31.1129 768.292 Q31.1129 772.652 32.4497 774.848 Q33.7865 777.013 36.4601 777.013 Q38.4971 777.013 39.6748 775.453 Q40.8206 773.894 41.8709 769.183 L42.3165 767.178 Q43.6533 760.939 46.1041 758.329 Q48.5231 755.688 52.8836 755.688 Q57.8489 755.688 60.7453 759.634 Q63.6417 763.549 63.6417 770.424 Q63.6417 773.289 63.0687 776.408 Q62.5277 779.495 61.4137 782.933 L55.3662 782.933 Q57.0531 779.686 57.9125 776.535 Q58.7401 773.384 58.7401 770.297 Q58.7401 766.159 57.3396 763.931 Q55.9073 761.703 53.3292 761.703 Q50.9421 761.703 49.6689 763.326 Q48.3958 764.918 47.2181 770.361 L46.7407 772.398 Q45.5949 777.84 43.2396 780.259 Q40.8524 782.678 36.7147 782.678 Q31.6858 782.678 28.9486 779.113 Q26.2113 775.549 26.2113 768.992 Q26.2113 765.745 26.6887 762.881 Q27.1662 760.016 28.121 757.597 Z" fill="#000000" fill-rule="nonzero" fill-opacity="1" /><path clip-path="url(#clip630)" d="M17.6626 700.384 L55.7944 709.884 Q57.5013 710.271 58.9505 710.271 Q61.9779 710.271 61.9779 708.306 Q61.9779 707.34 61.366 706.567 Q60.7541 705.794 59.4658 705.182 Q58.1776 704.57 56.986 704.184 Q55.7622 703.797 53.8298 703.282 Q53.0569 703.121 52.8636 702.992 Q52.6382 702.831 52.6382 702.38 Q52.6382 701.575 53.2823 701.575 Q57.4369 702.445 59.8201 703.572 Q63.4594 705.376 63.4594 708.435 Q63.4594 710.754 62.0423 712.396 Q60.6252 714.039 58.4997 714.425 Q63.4594 718.644 63.4594 723.024 Q63.4594 726.889 60.5286 729.337 Q57.5657 731.784 52.8958 731.784 Q48.1938 731.784 43.685 729.466 Q39.1761 727.115 36.3742 723.411 Q33.5723 719.707 33.5723 715.907 Q33.5723 711.881 37.7913 709.82 L22.1392 705.859 L20.851 705.665 Q20.4645 705.665 20.2713 705.826 Q20.0459 705.955 19.8848 706.728 Q19.7238 707.469 19.7238 708.95 Q19.7238 709.562 19.6916 709.852 Q19.6594 710.11 19.4984 710.335 Q19.3051 710.561 18.9187 710.561 Q17.7914 710.561 17.6626 709.627 Q16.9541 703.443 16.9541 701.253 Q16.9541 700.867 17.1473 700.641 Q17.3084 700.416 17.5016 700.416 L17.6626 700.384 M40.8186 710.625 Q40.5288 710.625 39.7236 710.851 Q38.9185 711.076 37.7913 711.591 Q36.6641 712.107 35.8589 713.234 Q35.0216 714.329 35.0216 715.81 Q35.0216 717.807 36.7285 719.9 Q38.4354 721.962 41.3339 723.475 Q43.6528 724.635 48.5158 725.891 Q53.3789 727.115 55.7944 727.115 Q57.2758 727.115 58.5963 726.792 Q59.8845 726.438 60.9473 725.44 Q61.9779 724.441 61.9779 722.896 Q61.9779 719.127 57.308 715.424 Q56.5029 714.715 56.1808 714.554 Q55.8266 714.361 54.8604 714.103 L41.9458 710.818 Q40.9797 710.625 40.8186 710.625 Z" fill="#000000" fill-rule="nonzero" fill-opacity="1" /><path clip-path="url(#clip630)" d="M52.7353 681.86 Q53.7272 681.86 54.4712 682.672 Q55.1926 683.461 55.1926 684.317 Q55.1926 685.106 54.7192 685.602 Q54.2232 686.076 53.5243 686.076 Q52.6 686.076 51.8335 685.287 Q51.067 684.498 51.067 683.573 Q51.067 682.807 51.5405 682.333 Q52.0139 681.86 52.7353 681.86 M74.9863 681.454 Q75.1667 681.454 75.8881 681.657 Q76.587 681.86 77.6691 682.356 Q78.7287 682.829 79.7206 683.483 Q80.7125 684.137 81.4114 685.219 Q82.1103 686.279 82.1103 687.496 Q82.1103 689.142 81.0281 690.224 Q79.946 691.283 78.3229 691.283 Q77.4436 691.283 74.6256 690.224 Q66.4196 687.158 66.0814 687.045 Q64.7964 686.527 63.6692 686.527 Q63.1507 686.527 62.8351 686.639 Q62.4969 686.752 62.3842 686.978 Q62.2489 687.203 62.2264 687.338 Q62.2038 687.451 62.2038 687.676 Q62.2038 689.007 63.5565 690.246 Q64.9091 691.486 67.93 692.343 Q68.4936 692.523 68.6289 692.636 Q68.7642 692.749 68.7642 693.087 Q68.7416 693.651 68.2907 693.651 Q68.1555 693.651 67.637 693.493 Q67.0959 693.335 66.2843 693.042 Q65.4502 692.749 64.5935 692.23 Q63.7143 691.712 62.9478 691.081 Q62.1813 690.427 61.6853 689.502 Q61.1893 688.578 61.1893 687.541 Q61.1893 685.85 62.294 684.813 Q63.3761 683.754 64.9767 683.754 Q65.856 683.754 67.4115 684.362 Q69.4405 685.106 70.0943 685.377 L74.9412 687.18 Q76.6997 687.834 77.2407 688.037 Q77.7593 688.217 78.3905 688.375 Q78.9992 688.511 79.5628 688.511 Q80.3518 688.511 80.7125 688.263 Q81.0732 687.992 81.0732 687.406 Q81.0732 685.783 79.4726 684.588 Q77.8494 683.393 75.3696 682.694 Q75.3019 682.672 75.1892 682.649 Q74.6256 682.469 74.558 682.288 Q74.5354 682.198 74.5354 682.018 Q74.5354 681.454 74.9863 681.454 Z" fill="#000000" fill-rule="nonzero" fill-opacity="1" /><path clip-path="url(#clip630)" d="M13.1934 648.213 L13.1934 634.718 L17.7449 634.718 L17.7449 642.357 L66.7608 642.357 L66.7608 634.718 L71.3123 634.718 L71.3123 648.213 L13.1934 648.213 Z" fill="#000000" fill-rule="nonzero" fill-opacity="1" /><path clip-path="url(#clip630)" d="M33.9138 594.487 Q29.9671 592.291 28.0892 589.235 Q26.2113 586.18 26.2113 582.042 Q26.2113 576.472 30.1262 573.448 Q34.0093 570.424 41.2025 570.424 L62.7186 570.424 L62.7186 576.313 L41.3935 576.313 Q36.2691 576.313 33.7865 578.127 Q31.3039 579.941 31.3039 583.665 Q31.3039 588.217 34.3276 590.858 Q37.3513 593.5 42.5712 593.5 L62.7186 593.5 L62.7186 599.388 L41.3935 599.388 Q36.2373 599.388 33.7865 601.203 Q31.3039 603.017 31.3039 606.804 Q31.3039 611.292 34.3594 613.934 Q37.3831 616.576 42.5712 616.576 L62.7186 616.576 L62.7186 622.464 L27.0707 622.464 L27.0707 616.576 L32.6088 616.576 Q29.3305 614.571 27.7709 611.77 Q26.2113 608.969 26.2113 605.118 Q26.2113 601.234 28.1847 598.529 Q30.158 595.792 33.9138 594.487 Z" fill="#000000" fill-rule="nonzero" fill-opacity="1" /><path clip-path="url(#clip630)" d="M33.9138 530.989 Q29.9671 528.793 28.0892 525.737 Q26.2113 522.682 26.2113 518.544 Q26.2113 512.974 30.1262 509.95 Q34.0093 506.927 41.2025 506.927 L62.7186 506.927 L62.7186 512.815 L41.3935 512.815 Q36.2691 512.815 33.7865 514.629 Q31.3039 516.443 31.3039 520.167 Q31.3039 524.719 34.3276 527.36 Q37.3513 530.002 42.5712 530.002 L62.7186 530.002 L62.7186 535.891 L41.3935 535.891 Q36.2373 535.891 33.7865 537.705 Q31.3039 539.519 31.3039 543.307 Q31.3039 547.794 34.3594 550.436 Q37.3831 553.078 42.5712 553.078 L62.7186 553.078 L62.7186 558.966 L27.0707 558.966 L27.0707 553.078 L32.6088 553.078 Q29.3305 551.073 27.7709 548.272 Q26.2113 545.471 26.2113 541.62 Q26.2113 537.737 28.1847 535.031 Q30.158 532.294 33.9138 530.989 Z" fill="#000000" fill-rule="nonzero" fill-opacity="1" /><path clip-path="url(#clip630)" d="M13.1934 481.559 L71.3123 481.559 L71.3123 495.055 L66.7608 495.055 L66.7608 487.447 L17.7449 487.447 L17.7449 495.055 L13.1934 495.055 L13.1934 481.559 Z" fill="#000000" fill-rule="nonzero" fill-opacity="1" /><path clip-path="url(#clip630)" d="M1015.12 12.096 L1049.87 12.096 L1049.87 18.9825 L1023.3 18.9825 L1023.3 36.8065 L1047.28 36.8065 L1047.28 43.6931 L1023.3 43.6931 L1023.3 72.576 L1015.12 72.576 L1015.12 12.096 Z" fill="#000000" fill-rule="nonzero" fill-opacity="1" /><path clip-path="url(#clip630)" d="M1056.48 27.2059 L1063.93 27.2059 L1063.93 72.576 L1056.48 72.576 L1056.48 27.2059 M1056.48 9.54393 L1063.93 9.54393 L1063.93 18.9825 L1056.48 18.9825 L1056.48 9.54393 Z" fill="#000000" fill-rule="nonzero" fill-opacity="1" /><path clip-path="url(#clip630)" d="M1117.24 45.1919 L1117.24 72.576 L1109.79 72.576 L1109.79 45.4349 Q1109.79 38.994 1107.28 35.7938 Q1104.76 32.5936 1099.74 32.5936 Q1093.71 32.5936 1090.22 36.4419 Q1086.74 40.2903 1086.74 46.9338 L1086.74 72.576 L1079.24 72.576 L1079.24 27.2059 L1086.74 27.2059 L1086.74 34.2544 Q1089.41 30.163 1093.02 28.1376 Q1096.66 26.1121 1101.4 26.1121 Q1109.22 26.1121 1113.23 30.9732 Q1117.24 35.7938 1117.24 45.1919 Z" fill="#000000" fill-rule="nonzero" fill-opacity="1" /><path clip-path="url(#clip630)" d="M1152.73 49.7694 Q1143.69 49.7694 1140.21 51.8354 Q1136.73 53.9013 1136.73 58.8839 Q1136.73 62.8538 1139.32 65.2034 Q1141.95 67.5124 1146.45 67.5124 Q1152.65 67.5124 1156.37 63.1374 Q1160.14 58.7219 1160.14 51.4303 L1160.14 49.7694 L1152.73 49.7694 M1167.59 46.6907 L1167.59 72.576 L1160.14 72.576 L1160.14 65.6895 Q1157.59 69.8214 1153.78 71.8063 Q1149.97 73.7508 1144.46 73.7508 Q1137.5 73.7508 1133.36 69.8619 Q1129.27 65.9325 1129.27 59.3701 Q1129.27 51.7138 1134.38 47.825 Q1139.52 43.9361 1149.69 43.9361 L1160.14 43.9361 L1160.14 43.2069 Q1160.14 38.0623 1156.74 35.2672 Q1153.37 32.4315 1147.26 32.4315 Q1143.37 32.4315 1139.68 33.3632 Q1136 34.295 1132.59 36.1584 L1132.59 29.2718 Q1136.69 27.692 1140.53 26.9223 Q1144.38 26.1121 1148.03 26.1121 Q1157.87 26.1121 1162.73 31.2163 Q1167.59 36.3204 1167.59 46.6907 Z" fill="#000000" fill-rule="nonzero" fill-opacity="1" /><path clip-path="url(#clip630)" d="M1182.95 9.54393 L1190.4 9.54393 L1190.4 72.576 L1182.95 72.576 L1182.95 9.54393 Z" fill="#000000" fill-rule="nonzero" fill-opacity="1" /><path clip-path="url(#clip630)" d="M1262.22 34.0924 L1262.22 9.54393 L1269.68 9.54393 L1269.68 72.576 L1262.22 72.576 L1262.22 65.7705 Q1259.87 69.8214 1256.27 71.8063 Q1252.7 73.7508 1247.68 73.7508 Q1239.46 73.7508 1234.27 67.1883 Q1229.13 60.6258 1229.13 49.9314 Q1229.13 39.2371 1234.27 32.6746 Q1239.46 26.1121 1247.68 26.1121 Q1252.7 26.1121 1256.27 28.0971 Q1259.87 30.0415 1262.22 34.0924 M1236.82 49.9314 Q1236.82 58.1548 1240.19 62.8538 Q1243.59 67.5124 1249.5 67.5124 Q1255.42 67.5124 1258.82 62.8538 Q1262.22 58.1548 1262.22 49.9314 Q1262.22 41.7081 1258.82 37.0496 Q1255.42 32.3505 1249.5 32.3505 Q1243.59 32.3505 1240.19 37.0496 Q1236.82 41.7081 1236.82 49.9314 Z" fill="#000000" fill-rule="nonzero" fill-opacity="1" /><path clip-path="url(#clip630)" d="M1285.03 27.2059 L1292.48 27.2059 L1292.48 72.576 L1285.03 72.576 L1285.03 27.2059 M1285.03 9.54393 L1292.48 9.54393 L1292.48 18.9825 L1285.03 18.9825 L1285.03 9.54393 Z" fill="#000000" fill-rule="nonzero" fill-opacity="1" /><path clip-path="url(#clip630)" d="M1337 28.5427 L1337 35.5912 Q1333.84 33.9709 1330.44 33.1607 Q1327.04 32.3505 1323.39 32.3505 Q1317.84 32.3505 1315.05 34.0519 Q1312.29 35.7533 1312.29 39.156 Q1312.29 41.7486 1314.28 43.2475 Q1316.26 44.7058 1322.26 46.0426 L1324.81 46.6097 Q1332.75 48.3111 1336.07 51.4303 Q1339.43 54.509 1339.43 60.0587 Q1339.43 66.3781 1334.41 70.0644 Q1329.43 73.7508 1320.68 73.7508 Q1317.03 73.7508 1313.06 73.0216 Q1309.13 72.3329 1304.76 70.9151 L1304.76 63.2184 Q1308.89 65.3654 1312.9 66.4591 Q1316.91 67.5124 1320.84 67.5124 Q1326.11 67.5124 1328.94 65.73 Q1331.78 63.9071 1331.78 60.6258 Q1331.78 57.5877 1329.71 55.9673 Q1327.69 54.3469 1320.76 52.8481 L1318.17 52.2405 Q1311.24 50.7821 1308.16 47.7845 Q1305.08 44.7463 1305.08 39.4801 Q1305.08 33.0797 1309.62 29.5959 Q1314.16 26.1121 1322.5 26.1121 Q1326.63 26.1121 1330.28 26.7198 Q1333.92 27.3274 1337 28.5427 Z" fill="#000000" fill-rule="nonzero" fill-opacity="1" /><path clip-path="url(#clip630)" d="M1358.67 14.324 L1358.67 27.2059 L1374.03 27.2059 L1374.03 32.9987 L1358.67 32.9987 L1358.67 57.6282 Q1358.67 63.1779 1360.17 64.7578 Q1361.71 66.3376 1366.37 66.3376 L1374.03 66.3376 L1374.03 72.576 L1366.37 72.576 Q1357.74 72.576 1354.46 69.3758 Q1351.18 66.1351 1351.18 57.6282 L1351.18 32.9987 L1345.71 32.9987 L1345.71 27.2059 L1351.18 27.2059 L1351.18 14.324 L1358.67 14.324 Z" fill="#000000" fill-rule="nonzero" fill-opacity="1" /><path clip-path="url(#clip630)" d="M1404.45 49.7694 Q1395.42 49.7694 1391.93 51.8354 Q1388.45 53.9013 1388.45 58.8839 Q1388.45 62.8538 1391.04 65.2034 Q1393.67 67.5124 1398.17 67.5124 Q1404.37 67.5124 1408.1 63.1374 Q1411.86 58.7219 1411.86 51.4303 L1411.86 49.7694 L1404.45 49.7694 M1419.32 46.6907 L1419.32 72.576 L1411.86 72.576 L1411.86 65.6895 Q1409.31 69.8214 1405.5 71.8063 Q1401.7 73.7508 1396.19 73.7508 Q1389.22 73.7508 1385.09 69.8619 Q1381 65.9325 1381 59.3701 Q1381 51.7138 1386.1 47.825 Q1391.24 43.9361 1401.41 43.9361 L1411.86 43.9361 L1411.86 43.2069 Q1411.86 38.0623 1408.46 35.2672 Q1405.1 32.4315 1398.98 32.4315 Q1395.09 32.4315 1391.41 33.3632 Q1387.72 34.295 1384.32 36.1584 L1384.32 29.2718 Q1388.41 27.692 1392.26 26.9223 Q1396.11 26.1121 1399.75 26.1121 Q1409.59 26.1121 1414.46 31.2163 Q1419.32 36.3204 1419.32 46.6907 Z" fill="#000000" fill-rule="nonzero" fill-opacity="1" /><path clip-path="url(#clip630)" d="M1472.38 45.1919 L1472.38 72.576 L1464.93 72.576 L1464.93 45.4349 Q1464.93 38.994 1462.42 35.7938 Q1459.91 32.5936 1454.88 32.5936 Q1448.85 32.5936 1445.36 36.4419 Q1441.88 40.2903 1441.88 46.9338 L1441.88 72.576 L1434.39 72.576 L1434.39 27.2059 L1441.88 27.2059 L1441.88 34.2544 Q1444.55 30.163 1448.16 28.1376 Q1451.8 26.1121 1456.54 26.1121 Q1464.36 26.1121 1468.37 30.9732 Q1472.38 35.7938 1472.38 45.1919 Z" fill="#000000" fill-rule="nonzero" fill-opacity="1" /><path clip-path="url(#clip630)" d="M1519.9 28.9478 L1519.9 35.9153 Q1516.74 34.1734 1513.54 33.3227 Q1510.38 32.4315 1507.14 32.4315 Q1499.89 32.4315 1495.88 37.0496 Q1491.87 41.6271 1491.87 49.9314 Q1491.87 58.2358 1495.88 62.8538 Q1499.89 67.4314 1507.14 67.4314 Q1510.38 67.4314 1513.54 66.5807 Q1516.74 65.6895 1519.9 63.9476 L1519.9 70.8341 Q1516.78 72.2924 1513.42 73.0216 Q1510.1 73.7508 1506.33 73.7508 Q1496.08 73.7508 1490.05 67.3098 Q1484.01 60.8689 1484.01 49.9314 Q1484.01 38.832 1490.09 32.472 Q1496.2 26.1121 1506.82 26.1121 Q1510.26 26.1121 1513.54 26.8413 Q1516.82 27.5299 1519.9 28.9478 Z" fill="#000000" fill-rule="nonzero" fill-opacity="1" /><path clip-path="url(#clip630)" d="M1571.67 48.0275 L1571.67 51.6733 L1537.4 51.6733 Q1537.89 59.3701 1542.02 63.421 Q1546.19 67.4314 1553.6 67.4314 Q1557.9 67.4314 1561.91 66.3781 Q1565.96 65.3249 1569.93 63.2184 L1569.93 70.267 Q1565.92 71.9684 1561.71 72.8596 Q1557.49 73.7508 1553.16 73.7508 Q1542.3 73.7508 1535.94 67.4314 Q1529.62 61.1119 1529.62 50.3365 Q1529.62 39.1965 1535.62 32.6746 Q1541.65 26.1121 1551.86 26.1121 Q1561.02 26.1121 1566.32 32.0264 Q1571.67 37.9003 1571.67 48.0275 M1564.22 45.84 Q1564.14 39.7232 1560.77 36.0774 Q1557.45 32.4315 1551.94 32.4315 Q1545.7 32.4315 1541.94 35.9558 Q1538.21 39.4801 1537.64 45.8805 L1564.22 45.84 Z" fill="#000000" fill-rule="nonzero" fill-opacity="1" /><path clip-path="url(#clip630)" d="M1612.83 28.5427 L1612.83 35.5912 Q1609.67 33.9709 1606.27 33.1607 Q1602.86 32.3505 1599.22 32.3505 Q1593.67 32.3505 1590.87 34.0519 Q1588.12 35.7533 1588.12 39.156 Q1588.12 41.7486 1590.1 43.2475 Q1592.09 44.7058 1598.08 46.0426 L1600.64 46.6097 Q1608.57 48.3111 1611.9 51.4303 Q1615.26 54.509 1615.26 60.0587 Q1615.26 66.3781 1610.24 70.0644 Q1605.25 73.7508 1596.5 73.7508 Q1592.86 73.7508 1588.89 73.0216 Q1584.96 72.3329 1580.58 70.9151 L1580.58 63.2184 Q1584.72 65.3654 1588.73 66.4591 Q1592.74 67.5124 1596.67 67.5124 Q1601.93 67.5124 1604.77 65.73 Q1607.6 63.9071 1607.6 60.6258 Q1607.6 57.5877 1605.54 55.9673 Q1603.51 54.3469 1596.58 52.8481 L1593.99 52.2405 Q1587.06 50.7821 1583.99 47.7845 Q1580.91 44.7463 1580.91 39.4801 Q1580.91 33.0797 1585.44 29.5959 Q1589.98 26.1121 1598.33 26.1121 Q1602.46 26.1121 1606.1 26.7198 Q1609.75 27.3274 1612.83 28.5427 Z" fill="#000000" fill-rule="nonzero" fill-opacity="1" /><circle clip-path="url(#clip632)" cx="336.351" cy="1386.4" r="14.4" fill="#009af9" fill-rule="evenodd" fill-opacity="1" stroke="#000000" stroke-opacity="1" stroke-width="3.2"/>
<circle clip-path="url(#clip632)" cx="1315.19" cy="583.171" r="14.4" fill="#009af9" fill-rule="evenodd" fill-opacity="1" stroke="#000000" stroke-opacity="1" stroke-width="3.2"/>
<circle clip-path="url(#clip632)" cx="2294.03" cy="160.256" r="14.4" fill="#009af9" fill-rule="evenodd" fill-opacity="1" stroke="#000000" stroke-opacity="1" stroke-width="3.2"/>
</svg>
