<?xml version="1.0" encoding="utf-8"?>
<svg xmlns="http://www.w3.org/2000/svg" xmlns:xlink="http://www.w3.org/1999/xlink" width="600" height="400" viewBox="0 0 2400 1600">
<defs>
  <clipPath id="clip030">
    <rect x="0" y="0" width="2400" height="1600"/>
  </clipPath>
</defs>
<path clip-path="url(#clip030)" d="M0 1600 L2400 1600 L2400 0 L0 0  Z" fill="#ffffff" fill-rule="evenodd" fill-opacity="1"/>
<defs>
  <clipPath id="clip031">
    <rect x="480" y="0" width="1681" height="1600"/>
  </clipPath>
</defs>
<path clip-path="url(#clip030)" d="M489.113 1423.18 L2352.76 1423.18 L2352.76 47.2441 L489.113 47.2441  Z" fill="#ffffff" fill-rule="evenodd" fill-opacity="1"/>
<defs>
  <clipPath id="clip032">
    <rect x="489" y="47" width="1865" height="1377"/>
  </clipPath>
</defs>
<polyline clip-path="url(#clip032)" style="stroke:#000000; stroke-linecap:round; stroke-linejoin:round; stroke-width:2; stroke-opacity:0.1; fill:none" points="793.022,1423.18 793.022,47.2441 "/>
<polyline clip-path="url(#clip032)" style="stroke:#000000; stroke-linecap:round; stroke-linejoin:round; stroke-width:2; stroke-opacity:0.1; fill:none" points="1295.35,1423.18 1295.35,47.2441 "/>
<polyline clip-path="url(#clip032)" style="stroke:#000000; stroke-linecap:round; stroke-linejoin:round; stroke-width:2; stroke-opacity:0.1; fill:none" points="1797.68,1423.18 1797.68,47.2441 "/>
<polyline clip-path="url(#clip032)" style="stroke:#000000; stroke-linecap:round; stroke-linejoin:round; stroke-width:2; stroke-opacity:0.1; fill:none" points="2300.01,1423.18 2300.01,47.2441 "/>
<polyline clip-path="url(#clip032)" style="stroke:#000000; stroke-linecap:round; stroke-linejoin:round; stroke-width:2; stroke-opacity:0.1; fill:none" points="489.113,1326.03 2352.76,1326.03 "/>
<polyline clip-path="url(#clip032)" style="stroke:#000000; stroke-linecap:round; stroke-linejoin:round; stroke-width:2; stroke-opacity:0.1; fill:none" points="489.113,925.736 2352.76,925.736 "/>
<polyline clip-path="url(#clip032)" style="stroke:#000000; stroke-linecap:round; stroke-linejoin:round; stroke-width:2; stroke-opacity:0.1; fill:none" points="489.113,525.44 2352.76,525.44 "/>
<polyline clip-path="url(#clip032)" style="stroke:#000000; stroke-linecap:round; stroke-linejoin:round; stroke-width:2; stroke-opacity:0.1; fill:none" points="489.113,125.144 2352.76,125.144 "/>
<polyline clip-path="url(#clip030)" style="stroke:#000000; stroke-linecap:round; stroke-linejoin:round; stroke-width:4; stroke-opacity:1; fill:none" points="489.113,1423.18 2352.76,1423.18 "/>
<polyline clip-path="url(#clip030)" style="stroke:#000000; stroke-linecap:round; stroke-linejoin:round; stroke-width:4; stroke-opacity:1; fill:none" points="793.022,1423.18 793.022,1404.28 "/>
<polyline clip-path="url(#clip030)" style="stroke:#000000; stroke-linecap:round; stroke-linejoin:round; stroke-width:4; stroke-opacity:1; fill:none" points="1295.35,1423.18 1295.35,1404.28 "/>
<polyline clip-path="url(#clip030)" style="stroke:#000000; stroke-linecap:round; stroke-linejoin:round; stroke-width:4; stroke-opacity:1; fill:none" points="1797.68,1423.18 1797.68,1404.28 "/>
<polyline clip-path="url(#clip030)" style="stroke:#000000; stroke-linecap:round; stroke-linejoin:round; stroke-width:4; stroke-opacity:1; fill:none" points="2300.01,1423.18 2300.01,1404.28 "/>
<path clip-path="url(#clip030)" d="M787.675 1481.64 L803.994 1481.64 L803.994 1485.58 L782.05 1485.58 L782.05 1481.64 Q784.712 1478.89 789.295 1474.26 Q793.902 1469.61 795.082 1468.27 Q797.328 1465.74 798.207 1464.01 Q799.11 1462.25 799.11 1460.56 Q799.11 1457.8 797.166 1456.07 Q795.244 1454.33 792.142 1454.33 Q789.943 1454.33 787.49 1455.09 Q785.059 1455.86 782.281 1457.41 L782.281 1452.69 Q785.105 1451.55 787.559 1450.97 Q790.013 1450.39 792.05 1450.39 Q797.42 1450.39 800.615 1453.08 Q803.809 1455.77 803.809 1460.26 Q803.809 1462.39 802.999 1464.31 Q802.212 1466.2 800.105 1468.8 Q799.527 1469.47 796.425 1472.69 Q793.323 1475.88 787.675 1481.64 Z" fill="#000000" fill-rule="nonzero" fill-opacity="1" /><path clip-path="url(#clip030)" d="M1298.36 1455.09 L1286.56 1473.54 L1298.36 1473.54 L1298.36 1455.09 M1297.13 1451.02 L1303.01 1451.02 L1303.01 1473.54 L1307.94 1473.54 L1307.94 1477.43 L1303.01 1477.43 L1303.01 1485.58 L1298.36 1485.58 L1298.36 1477.43 L1282.76 1477.43 L1282.76 1472.92 L1297.13 1451.02 Z" fill="#000000" fill-rule="nonzero" fill-opacity="1" /><path clip-path="url(#clip030)" d="M1798.09 1466.44 Q1794.94 1466.44 1793.09 1468.59 Q1791.26 1470.74 1791.26 1474.49 Q1791.26 1478.22 1793.09 1480.39 Q1794.94 1482.55 1798.09 1482.55 Q1801.23 1482.55 1803.06 1480.39 Q1804.92 1478.22 1804.92 1474.49 Q1804.92 1470.74 1803.06 1468.59 Q1801.23 1466.44 1798.09 1466.44 M1807.37 1451.78 L1807.37 1456.04 Q1805.61 1455.21 1803.8 1454.77 Q1802.02 1454.33 1800.26 1454.33 Q1795.63 1454.33 1793.18 1457.45 Q1790.75 1460.58 1790.4 1466.9 Q1791.77 1464.89 1793.83 1463.82 Q1795.89 1462.73 1798.36 1462.73 Q1803.57 1462.73 1806.58 1465.9 Q1809.61 1469.05 1809.61 1474.49 Q1809.61 1479.82 1806.47 1483.03 Q1803.32 1486.25 1798.09 1486.25 Q1792.09 1486.25 1788.92 1481.67 Q1785.75 1477.06 1785.75 1468.33 Q1785.75 1460.14 1789.64 1455.28 Q1793.53 1450.39 1800.08 1450.39 Q1801.84 1450.39 1803.62 1450.74 Q1805.42 1451.09 1807.37 1451.78 Z" fill="#000000" fill-rule="nonzero" fill-opacity="1" /><path clip-path="url(#clip030)" d="M2300.01 1469.17 Q2296.68 1469.17 2294.76 1470.95 Q2292.86 1472.73 2292.86 1475.86 Q2292.86 1478.98 2294.76 1480.77 Q2296.68 1482.55 2300.01 1482.55 Q2303.34 1482.55 2305.27 1480.77 Q2307.19 1478.96 2307.19 1475.86 Q2307.19 1472.73 2305.27 1470.95 Q2303.37 1469.17 2300.01 1469.17 M2295.34 1467.18 Q2292.33 1466.44 2290.64 1464.38 Q2288.97 1462.32 2288.97 1459.35 Q2288.97 1455.21 2291.91 1452.8 Q2294.87 1450.39 2300.01 1450.39 Q2305.17 1450.39 2308.11 1452.8 Q2311.05 1455.21 2311.05 1459.35 Q2311.05 1462.32 2309.36 1464.38 Q2307.7 1466.44 2304.71 1467.18 Q2308.09 1467.96 2309.96 1470.26 Q2311.86 1472.55 2311.86 1475.86 Q2311.86 1480.88 2308.78 1483.57 Q2305.73 1486.25 2300.01 1486.25 Q2294.29 1486.25 2291.22 1483.57 Q2288.16 1480.88 2288.16 1475.86 Q2288.16 1472.55 2290.06 1470.26 Q2291.96 1467.96 2295.34 1467.18 M2293.62 1459.79 Q2293.62 1462.48 2295.29 1463.98 Q2296.98 1465.49 2300.01 1465.49 Q2303.02 1465.49 2304.71 1463.98 Q2306.42 1462.48 2306.42 1459.79 Q2306.42 1457.11 2304.71 1455.6 Q2303.02 1454.1 2300.01 1454.1 Q2296.98 1454.1 2295.29 1455.6 Q2293.62 1457.11 2293.62 1459.79 Z" fill="#000000" fill-rule="nonzero" fill-opacity="1" /><path clip-path="url(#clip030)" d="M1219.38 1525.81 L1219.38 1562.76 L1227.15 1562.76 Q1236.98 1562.76 1241.53 1558.3 Q1246.12 1553.85 1246.12 1544.24 Q1246.12 1534.69 1241.53 1530.26 Q1236.98 1525.81 1227.15 1525.81 L1219.38 1525.81 M1212.95 1520.52 L1226.16 1520.52 Q1239.97 1520.52 1246.43 1526.28 Q1252.9 1532.01 1252.9 1544.24 Q1252.9 1556.52 1246.4 1562.28 Q1239.91 1568.04 1226.16 1568.04 L1212.95 1568.04 L1212.95 1520.52 Z" fill="#000000" fill-rule="nonzero" fill-opacity="1" /><path clip-path="url(#clip030)" d="M1262.89 1532.4 L1268.75 1532.4 L1268.75 1568.04 L1262.89 1568.04 L1262.89 1532.4 M1262.89 1518.52 L1268.75 1518.52 L1268.75 1525.93 L1262.89 1525.93 L1262.89 1518.52 Z" fill="#000000" fill-rule="nonzero" fill-opacity="1" /><path clip-path="url(#clip030)" d="M1303.73 1533.45 L1303.73 1538.98 Q1301.24 1537.71 1298.57 1537.07 Q1295.9 1536.44 1293.03 1536.44 Q1288.67 1536.44 1286.47 1537.77 Q1284.31 1539.11 1284.31 1541.79 Q1284.31 1543.82 1285.87 1545 Q1287.43 1546.15 1292.14 1547.2 L1294.15 1547.64 Q1300.38 1548.98 1302.99 1551.43 Q1305.64 1553.85 1305.64 1558.21 Q1305.64 1563.17 1301.69 1566.07 Q1297.77 1568.97 1290.9 1568.97 Q1288.03 1568.97 1284.91 1568.39 Q1281.83 1567.85 1278.39 1566.74 L1278.39 1560.69 Q1281.64 1562.38 1284.79 1563.24 Q1287.94 1564.07 1291.03 1564.07 Q1295.16 1564.07 1297.39 1562.66 Q1299.62 1561.23 1299.62 1558.65 Q1299.62 1556.27 1298 1554.99 Q1296.41 1553.72 1290.96 1552.54 L1288.93 1552.07 Q1283.48 1550.92 1281.06 1548.56 Q1278.64 1546.18 1278.64 1542.04 Q1278.64 1537.01 1282.21 1534.27 Q1285.77 1531.54 1292.33 1531.54 Q1295.58 1531.54 1298.44 1532.01 Q1301.31 1532.49 1303.73 1533.45 Z" fill="#000000" fill-rule="nonzero" fill-opacity="1" /><path clip-path="url(#clip030)" d="M1340.61 1533.76 L1340.61 1539.24 Q1338.13 1537.87 1335.62 1537.2 Q1333.14 1536.5 1330.59 1536.5 Q1324.89 1536.5 1321.74 1540.13 Q1318.59 1543.73 1318.59 1550.25 Q1318.59 1556.78 1321.74 1560.4 Q1324.89 1564 1330.59 1564 Q1333.14 1564 1335.62 1563.33 Q1338.13 1562.63 1340.61 1561.26 L1340.61 1566.68 Q1338.16 1567.82 1335.52 1568.39 Q1332.91 1568.97 1329.95 1568.97 Q1321.9 1568.97 1317.16 1563.91 Q1312.41 1558.85 1312.41 1550.25 Q1312.41 1541.53 1317.19 1536.53 Q1322 1531.54 1330.33 1531.54 Q1333.04 1531.54 1335.62 1532.11 Q1338.2 1532.65 1340.61 1533.76 Z" fill="#000000" fill-rule="nonzero" fill-opacity="1" /><path clip-path="url(#clip030)" d="M1371.78 1520.52 L1378.2 1520.52 L1378.2 1568.04 L1371.78 1568.04 L1371.78 1520.52 Z" fill="#000000" fill-rule="nonzero" fill-opacity="1" /><path clip-path="url(#clip030)" d="M1420.38 1546.53 L1420.38 1568.04 L1414.52 1568.04 L1414.52 1546.72 Q1414.52 1541.66 1412.55 1539.14 Q1410.57 1536.63 1406.63 1536.63 Q1401.88 1536.63 1399.15 1539.65 Q1396.41 1542.68 1396.41 1547.9 L1396.41 1568.04 L1390.52 1568.04 L1390.52 1532.4 L1396.41 1532.4 L1396.41 1537.93 Q1398.51 1534.72 1401.34 1533.13 Q1404.21 1531.54 1407.93 1531.54 Q1414.08 1531.54 1417.23 1535.36 Q1420.38 1539.14 1420.38 1546.53 Z" fill="#000000" fill-rule="nonzero" fill-opacity="1" /><path clip-path="url(#clip030)" d="M1455.52 1537.81 L1455.52 1518.52 L1461.37 1518.52 L1461.37 1568.04 L1455.52 1568.04 L1455.52 1562.7 Q1453.67 1565.88 1450.84 1567.44 Q1448.04 1568.97 1444.09 1568.97 Q1437.63 1568.97 1433.55 1563.81 Q1429.51 1558.65 1429.51 1550.25 Q1429.51 1541.85 1433.55 1536.69 Q1437.63 1531.54 1444.09 1531.54 Q1448.04 1531.54 1450.84 1533.1 Q1453.67 1534.62 1455.52 1537.81 M1435.56 1550.25 Q1435.56 1556.71 1438.2 1560.4 Q1440.87 1564.07 1445.52 1564.07 Q1450.17 1564.07 1452.84 1560.4 Q1455.52 1556.71 1455.52 1550.25 Q1455.52 1543.79 1452.84 1540.13 Q1450.17 1536.44 1445.52 1536.44 Q1440.87 1536.44 1438.2 1540.13 Q1435.56 1543.79 1435.56 1550.25 Z" fill="#000000" fill-rule="nonzero" fill-opacity="1" /><path clip-path="url(#clip030)" d="M1503.93 1548.76 L1503.93 1551.62 L1477 1551.62 Q1477.38 1557.67 1480.63 1560.85 Q1483.91 1564 1489.73 1564 Q1493.11 1564 1496.26 1563.17 Q1499.44 1562.35 1502.56 1560.69 L1502.56 1566.23 Q1499.41 1567.57 1496.1 1568.27 Q1492.79 1568.97 1489.38 1568.97 Q1480.85 1568.97 1475.85 1564 Q1470.89 1559.04 1470.89 1550.57 Q1470.89 1541.82 1475.6 1536.69 Q1480.34 1531.54 1488.36 1531.54 Q1495.56 1531.54 1499.73 1536.18 Q1503.93 1540.8 1503.93 1548.76 M1498.07 1547.04 Q1498.01 1542.23 1495.37 1539.37 Q1492.76 1536.5 1488.43 1536.5 Q1483.53 1536.5 1480.56 1539.27 Q1477.64 1542.04 1477.19 1547.07 L1498.07 1547.04 Z" fill="#000000" fill-rule="nonzero" fill-opacity="1" /><path clip-path="url(#clip030)" d="M1542.03 1532.4 L1529.14 1549.74 L1542.69 1568.04 L1535.79 1568.04 L1525.41 1554.04 L1515.04 1568.04 L1508.13 1568.04 L1521.97 1549.39 L1509.31 1532.4 L1516.21 1532.4 L1525.67 1545.1 L1535.12 1532.4 L1542.03 1532.4 Z" fill="#000000" fill-rule="nonzero" fill-opacity="1" /><path clip-path="url(#clip030)" d="M1571.15 1518.52 L1584.64 1518.52 L1584.64 1523.07 L1577.01 1523.07 L1577.01 1572.09 L1584.64 1572.09 L1584.64 1576.64 L1571.15 1576.64 L1571.15 1518.52 Z" fill="#000000" fill-rule="nonzero" fill-opacity="1" /><path clip-path="url(#clip030)" d="M1597.12 1532.4 L1602.98 1532.4 L1602.98 1568.04 L1597.12 1568.04 L1597.12 1532.4 M1597.12 1518.52 L1602.98 1518.52 L1602.98 1525.93 L1597.12 1525.93 L1597.12 1518.52 Z" fill="#000000" fill-rule="nonzero" fill-opacity="1" /><path clip-path="url(#clip030)" d="M1628.92 1518.52 L1628.92 1576.64 L1615.42 1576.64 L1615.42 1572.09 L1623.03 1572.09 L1623.03 1523.07 L1615.42 1523.07 L1615.42 1518.52 L1628.92 1518.52 Z" fill="#000000" fill-rule="nonzero" fill-opacity="1" /><polyline clip-path="url(#clip030)" style="stroke:#000000; stroke-linecap:round; stroke-linejoin:round; stroke-width:4; stroke-opacity:1; fill:none" points="489.113,1423.18 489.113,47.2441 "/>
<polyline clip-path="url(#clip030)" style="stroke:#000000; stroke-linecap:round; stroke-linejoin:round; stroke-width:4; stroke-opacity:1; fill:none" points="489.113,1326.03 508.01,1326.03 "/>
<polyline clip-path="url(#clip030)" style="stroke:#000000; stroke-linecap:round; stroke-linejoin:round; stroke-width:4; stroke-opacity:1; fill:none" points="489.113,925.736 508.01,925.736 "/>
<polyline clip-path="url(#clip030)" style="stroke:#000000; stroke-linecap:round; stroke-linejoin:round; stroke-width:4; stroke-opacity:1; fill:none" points="489.113,525.44 508.01,525.44 "/>
<polyline clip-path="url(#clip030)" style="stroke:#000000; stroke-linecap:round; stroke-linejoin:round; stroke-width:4; stroke-opacity:1; fill:none" points="489.113,125.144 508.01,125.144 "/>
<path clip-path="url(#clip030)" d="M115.718 1315.2 L134.075 1315.2 L134.075 1319.14 L120.001 1319.14 L120.001 1327.61 Q121.019 1327.26 122.038 1327.1 Q123.056 1326.91 124.075 1326.91 Q129.862 1326.91 133.242 1330.08 Q136.621 1333.26 136.621 1338.67 Q136.621 1344.25 133.149 1347.35 Q129.677 1350.43 123.357 1350.43 Q121.181 1350.43 118.913 1350.06 Q116.668 1349.69 114.26 1348.95 L114.26 1344.25 Q116.343 1345.39 118.566 1345.94 Q120.788 1346.5 123.265 1346.5 Q127.269 1346.5 129.607 1344.39 Q131.945 1342.28 131.945 1338.67 Q131.945 1335.06 129.607 1332.95 Q127.269 1330.85 123.265 1330.85 Q121.39 1330.85 119.515 1331.26 Q117.663 1331.68 115.718 1332.56 L115.718 1315.2 Z" fill="#000000" fill-rule="nonzero" fill-opacity="1" /><path clip-path="url(#clip030)" d="M145.834 1343.88 L150.718 1343.88 L150.718 1349.76 L145.834 1349.76 L145.834 1343.88 Z" fill="#000000" fill-rule="nonzero" fill-opacity="1" /><path clip-path="url(#clip030)" d="M161.042 1349.04 L161.042 1344.78 Q162.802 1345.62 164.607 1346.06 Q166.413 1346.5 168.149 1346.5 Q172.778 1346.5 175.209 1343.39 Q177.663 1340.27 178.01 1333.93 Q176.667 1335.92 174.607 1336.98 Q172.547 1338.05 170.047 1338.05 Q164.862 1338.05 161.829 1334.92 Q158.82 1331.77 158.82 1326.33 Q158.82 1321.01 161.968 1317.79 Q165.116 1314.58 170.348 1314.58 Q176.343 1314.58 179.491 1319.18 Q182.663 1323.77 182.663 1332.51 Q182.663 1340.69 178.774 1345.57 Q174.908 1350.43 168.357 1350.43 Q166.598 1350.43 164.792 1350.08 Q162.987 1349.74 161.042 1349.04 M170.348 1334.39 Q173.496 1334.39 175.325 1332.24 Q177.176 1330.08 177.176 1326.33 Q177.176 1322.61 175.325 1320.45 Q173.496 1318.28 170.348 1318.28 Q167.2 1318.28 165.348 1320.45 Q163.519 1322.61 163.519 1326.33 Q163.519 1330.08 165.348 1332.24 Q167.2 1334.39 170.348 1334.39 Z" fill="#000000" fill-rule="nonzero" fill-opacity="1" /><path clip-path="url(#clip030)" d="M191.204 1349.04 L191.204 1344.78 Q192.963 1345.62 194.769 1346.06 Q196.575 1346.5 198.311 1346.5 Q202.94 1346.5 205.371 1343.39 Q207.824 1340.27 208.172 1333.93 Q206.829 1335.92 204.769 1336.98 Q202.709 1338.05 200.209 1338.05 Q195.024 1338.05 191.991 1334.92 Q188.982 1331.77 188.982 1326.33 Q188.982 1321.01 192.13 1317.79 Q195.278 1314.58 200.51 1314.58 Q206.505 1314.58 209.653 1319.18 Q212.824 1323.77 212.824 1332.51 Q212.824 1340.69 208.936 1345.57 Q205.07 1350.43 198.519 1350.43 Q196.76 1350.43 194.954 1350.08 Q193.149 1349.74 191.204 1349.04 M200.51 1334.39 Q203.658 1334.39 205.487 1332.24 Q207.338 1330.08 207.338 1326.33 Q207.338 1322.61 205.487 1320.45 Q203.658 1318.28 200.51 1318.28 Q197.362 1318.28 195.51 1320.45 Q193.681 1322.61 193.681 1326.33 Q193.681 1330.08 195.51 1332.24 Q197.362 1334.39 200.51 1334.39 Z" fill="#000000" fill-rule="nonzero" fill-opacity="1" /><path clip-path="url(#clip030)" d="M221.366 1349.04 L221.366 1344.78 Q223.125 1345.62 224.931 1346.06 Q226.736 1346.5 228.473 1346.5 Q233.102 1346.5 235.533 1343.39 Q237.986 1340.27 238.334 1333.93 Q236.991 1335.92 234.931 1336.98 Q232.871 1338.05 230.371 1338.05 Q225.185 1338.05 222.153 1334.92 Q219.144 1331.77 219.144 1326.33 Q219.144 1321.01 222.292 1317.79 Q225.44 1314.58 230.672 1314.58 Q236.667 1314.58 239.815 1319.18 Q242.986 1323.77 242.986 1332.51 Q242.986 1340.69 239.097 1345.57 Q235.232 1350.43 228.681 1350.43 Q226.922 1350.43 225.116 1350.08 Q223.31 1349.74 221.366 1349.04 M230.672 1334.39 Q233.82 1334.39 235.648 1332.24 Q237.5 1330.08 237.5 1326.33 Q237.5 1322.61 235.648 1320.45 Q233.82 1318.28 230.672 1318.28 Q227.523 1318.28 225.672 1320.45 Q223.843 1322.61 223.843 1326.33 Q223.843 1330.08 225.672 1332.24 Q227.523 1334.39 230.672 1334.39 Z" fill="#000000" fill-rule="nonzero" fill-opacity="1" /><path clip-path="url(#clip030)" d="M261.389 1333.35 Q258.056 1333.35 256.134 1335.13 Q254.236 1336.91 254.236 1340.04 Q254.236 1343.16 256.134 1344.95 Q258.056 1346.73 261.389 1346.73 Q264.722 1346.73 266.644 1344.95 Q268.565 1343.14 268.565 1340.04 Q268.565 1336.91 266.644 1335.13 Q264.745 1333.35 261.389 1333.35 M256.713 1331.36 Q253.704 1330.62 252.014 1328.56 Q250.347 1326.5 250.347 1323.53 Q250.347 1319.39 253.287 1316.98 Q256.25 1314.58 261.389 1314.58 Q266.551 1314.58 269.491 1316.98 Q272.431 1319.39 272.431 1323.53 Q272.431 1326.5 270.741 1328.56 Q269.074 1330.62 266.088 1331.36 Q269.468 1332.14 271.343 1334.44 Q273.241 1336.73 273.241 1340.04 Q273.241 1345.06 270.162 1347.75 Q267.107 1350.43 261.389 1350.43 Q255.671 1350.43 252.593 1347.75 Q249.537 1345.06 249.537 1340.04 Q249.537 1336.73 251.435 1334.44 Q253.333 1332.14 256.713 1331.36 M255 1323.97 Q255 1326.66 256.667 1328.16 Q258.357 1329.67 261.389 1329.67 Q264.398 1329.67 266.088 1328.16 Q267.801 1326.66 267.801 1323.97 Q267.801 1321.29 266.088 1319.78 Q264.398 1318.28 261.389 1318.28 Q258.357 1318.28 256.667 1319.78 Q255 1321.29 255 1323.97 Z" fill="#000000" fill-rule="nonzero" fill-opacity="1" /><path clip-path="url(#clip030)" d="M280.37 1315.2 L302.592 1315.2 L302.592 1317.19 L290.046 1349.76 L285.162 1349.76 L296.968 1319.14 L280.37 1319.14 L280.37 1315.2 Z" fill="#000000" fill-rule="nonzero" fill-opacity="1" /><path clip-path="url(#clip030)" d="M321.713 1318.28 Q318.102 1318.28 316.273 1321.84 Q314.467 1325.39 314.467 1332.51 Q314.467 1339.62 316.273 1343.19 Q318.102 1346.73 321.713 1346.73 Q325.347 1346.73 327.153 1343.19 Q328.981 1339.62 328.981 1332.51 Q328.981 1325.39 327.153 1321.84 Q325.347 1318.28 321.713 1318.28 M321.713 1314.58 Q327.523 1314.58 330.578 1319.18 Q333.657 1323.77 333.657 1332.51 Q333.657 1341.24 330.578 1345.85 Q327.523 1350.43 321.713 1350.43 Q315.903 1350.43 312.824 1345.85 Q309.768 1341.24 309.768 1332.51 Q309.768 1323.77 312.824 1319.18 Q315.903 1314.58 321.713 1314.58 Z" fill="#000000" fill-rule="nonzero" fill-opacity="1" /><path clip-path="url(#clip030)" d="M370.046 1324.3 L359.467 1334.92 L370.046 1345.5 L367.291 1348.3 L356.666 1337.68 L346.041 1348.3 L343.31 1345.5 L353.865 1334.92 L343.31 1324.3 L346.041 1321.5 L356.666 1332.12 L367.291 1321.5 L370.046 1324.3 Z" fill="#000000" fill-rule="nonzero" fill-opacity="1" /><path clip-path="url(#clip030)" d="M382.407 1345.83 L390.046 1345.83 L390.046 1319.46 L381.736 1321.13 L381.736 1316.87 L389.999 1315.2 L394.675 1315.2 L394.675 1345.83 L402.314 1345.83 L402.314 1349.76 L382.407 1349.76 L382.407 1345.83 Z" fill="#000000" fill-rule="nonzero" fill-opacity="1" /><path clip-path="url(#clip030)" d="M421.759 1318.28 Q418.147 1318.28 416.319 1321.84 Q414.513 1325.39 414.513 1332.51 Q414.513 1339.62 416.319 1343.19 Q418.147 1346.73 421.759 1346.73 Q425.393 1346.73 427.198 1343.19 Q429.027 1339.62 429.027 1332.51 Q429.027 1325.39 427.198 1321.84 Q425.393 1318.28 421.759 1318.28 M421.759 1314.58 Q427.569 1314.58 430.624 1319.18 Q433.703 1323.77 433.703 1332.51 Q433.703 1341.24 430.624 1345.85 Q427.569 1350.43 421.759 1350.43 Q415.948 1350.43 412.87 1345.85 Q409.814 1341.24 409.814 1332.51 Q409.814 1323.77 412.87 1319.18 Q415.948 1314.58 421.759 1314.58 Z" fill="#000000" fill-rule="nonzero" fill-opacity="1" /><path clip-path="url(#clip030)" d="M443.408 1296.77 Q440.474 1296.77 438.988 1299.67 Q437.521 1302.55 437.521 1308.34 Q437.521 1314.11 438.988 1317.01 Q440.474 1319.89 443.408 1319.89 Q446.361 1319.89 447.828 1317.01 Q449.313 1314.11 449.313 1308.34 Q449.313 1302.55 447.828 1299.67 Q446.361 1296.77 443.408 1296.77 M443.408 1293.76 Q448.128 1293.76 450.611 1297.5 Q453.113 1301.23 453.113 1308.34 Q453.113 1315.43 450.611 1319.17 Q448.128 1322.9 443.408 1322.9 Q438.687 1322.9 436.186 1319.17 Q433.703 1315.43 433.703 1308.34 Q433.703 1301.23 436.186 1297.5 Q438.687 1293.76 443.408 1293.76 Z" fill="#000000" fill-rule="nonzero" fill-opacity="1" /><path clip-path="url(#clip030)" d="M115.718 914.904 L134.075 914.904 L134.075 918.839 L120.001 918.839 L120.001 927.311 Q121.019 926.964 122.038 926.802 Q123.056 926.617 124.075 926.617 Q129.862 926.617 133.242 929.788 Q136.621 932.959 136.621 938.376 Q136.621 943.955 133.149 947.057 Q129.677 950.135 123.357 950.135 Q121.181 950.135 118.913 949.765 Q116.668 949.395 114.26 948.654 L114.26 943.955 Q116.343 945.089 118.566 945.645 Q120.788 946.2 123.265 946.2 Q127.269 946.2 129.607 944.094 Q131.945 941.987 131.945 938.376 Q131.945 934.765 129.607 932.658 Q127.269 930.552 123.265 930.552 Q121.39 930.552 119.515 930.969 Q117.663 931.385 115.718 932.265 L115.718 914.904 Z" fill="#000000" fill-rule="nonzero" fill-opacity="1" /><path clip-path="url(#clip030)" d="M145.834 943.584 L150.718 943.584 L150.718 949.464 L145.834 949.464 L145.834 943.584 Z" fill="#000000" fill-rule="nonzero" fill-opacity="1" /><path clip-path="url(#clip030)" d="M161.042 948.746 L161.042 944.487 Q162.802 945.32 164.607 945.76 Q166.413 946.2 168.149 946.2 Q172.778 946.2 175.209 943.098 Q177.663 939.973 178.01 933.631 Q176.667 935.621 174.607 936.686 Q172.547 937.751 170.047 937.751 Q164.862 937.751 161.829 934.626 Q158.82 931.478 158.82 926.038 Q158.82 920.714 161.968 917.497 Q165.116 914.279 170.348 914.279 Q176.343 914.279 179.491 918.885 Q182.663 923.469 182.663 932.219 Q182.663 940.39 178.774 945.274 Q174.908 950.135 168.357 950.135 Q166.598 950.135 164.792 949.788 Q162.987 949.441 161.042 948.746 M170.348 934.094 Q173.496 934.094 175.325 931.941 Q177.176 929.788 177.176 926.038 Q177.176 922.311 175.325 920.159 Q173.496 917.983 170.348 917.983 Q167.2 917.983 165.348 920.159 Q163.519 922.311 163.519 926.038 Q163.519 929.788 165.348 931.941 Q167.2 934.094 170.348 934.094 Z" fill="#000000" fill-rule="nonzero" fill-opacity="1" /><path clip-path="url(#clip030)" d="M191.204 948.746 L191.204 944.487 Q192.963 945.32 194.769 945.76 Q196.575 946.2 198.311 946.2 Q202.94 946.2 205.371 943.098 Q207.824 939.973 208.172 933.631 Q206.829 935.621 204.769 936.686 Q202.709 937.751 200.209 937.751 Q195.024 937.751 191.991 934.626 Q188.982 931.478 188.982 926.038 Q188.982 920.714 192.13 917.497 Q195.278 914.279 200.51 914.279 Q206.505 914.279 209.653 918.885 Q212.824 923.469 212.824 932.219 Q212.824 940.39 208.936 945.274 Q205.07 950.135 198.519 950.135 Q196.76 950.135 194.954 949.788 Q193.149 949.441 191.204 948.746 M200.51 934.094 Q203.658 934.094 205.487 931.941 Q207.338 929.788 207.338 926.038 Q207.338 922.311 205.487 920.159 Q203.658 917.983 200.51 917.983 Q197.362 917.983 195.51 920.159 Q193.681 922.311 193.681 926.038 Q193.681 929.788 195.51 931.941 Q197.362 934.094 200.51 934.094 Z" fill="#000000" fill-rule="nonzero" fill-opacity="1" /><path clip-path="url(#clip030)" d="M221.366 948.746 L221.366 944.487 Q223.125 945.32 224.931 945.76 Q226.736 946.2 228.473 946.2 Q233.102 946.2 235.533 943.098 Q237.986 939.973 238.334 933.631 Q236.991 935.621 234.931 936.686 Q232.871 937.751 230.371 937.751 Q225.185 937.751 222.153 934.626 Q219.144 931.478 219.144 926.038 Q219.144 920.714 222.292 917.497 Q225.44 914.279 230.672 914.279 Q236.667 914.279 239.815 918.885 Q242.986 923.469 242.986 932.219 Q242.986 940.39 239.097 945.274 Q235.232 950.135 228.681 950.135 Q226.922 950.135 225.116 949.788 Q223.31 949.441 221.366 948.746 M230.672 934.094 Q233.82 934.094 235.648 931.941 Q237.5 929.788 237.5 926.038 Q237.5 922.311 235.648 920.159 Q233.82 917.983 230.672 917.983 Q227.523 917.983 225.672 920.159 Q223.843 922.311 223.843 926.038 Q223.843 929.788 225.672 931.941 Q227.523 934.094 230.672 934.094 Z" fill="#000000" fill-rule="nonzero" fill-opacity="1" /><path clip-path="url(#clip030)" d="M261.389 933.052 Q258.056 933.052 256.134 934.834 Q254.236 936.617 254.236 939.742 Q254.236 942.867 256.134 944.649 Q258.056 946.432 261.389 946.432 Q264.722 946.432 266.644 944.649 Q268.565 942.844 268.565 939.742 Q268.565 936.617 266.644 934.834 Q264.745 933.052 261.389 933.052 M256.713 931.061 Q253.704 930.321 252.014 928.26 Q250.347 926.2 250.347 923.237 Q250.347 919.094 253.287 916.686 Q256.25 914.279 261.389 914.279 Q266.551 914.279 269.491 916.686 Q272.431 919.094 272.431 923.237 Q272.431 926.2 270.741 928.26 Q269.074 930.321 266.088 931.061 Q269.468 931.848 271.343 934.14 Q273.241 936.432 273.241 939.742 Q273.241 944.765 270.162 947.45 Q267.107 950.135 261.389 950.135 Q255.671 950.135 252.593 947.45 Q249.537 944.765 249.537 939.742 Q249.537 936.432 251.435 934.14 Q253.333 931.848 256.713 931.061 M255 923.677 Q255 926.362 256.667 927.867 Q258.357 929.371 261.389 929.371 Q264.398 929.371 266.088 927.867 Q267.801 926.362 267.801 923.677 Q267.801 920.992 266.088 919.487 Q264.398 917.983 261.389 917.983 Q258.357 917.983 256.667 919.487 Q255 920.992 255 923.677 Z" fill="#000000" fill-rule="nonzero" fill-opacity="1" /><path clip-path="url(#clip030)" d="M291.551 933.052 Q288.218 933.052 286.296 934.834 Q284.398 936.617 284.398 939.742 Q284.398 942.867 286.296 944.649 Q288.218 946.432 291.551 946.432 Q294.884 946.432 296.805 944.649 Q298.727 942.844 298.727 939.742 Q298.727 936.617 296.805 934.834 Q294.907 933.052 291.551 933.052 M286.875 931.061 Q283.866 930.321 282.176 928.26 Q280.509 926.2 280.509 923.237 Q280.509 919.094 283.449 916.686 Q286.412 914.279 291.551 914.279 Q296.713 914.279 299.653 916.686 Q302.592 919.094 302.592 923.237 Q302.592 926.2 300.903 928.26 Q299.236 930.321 296.25 931.061 Q299.63 931.848 301.505 934.14 Q303.403 936.432 303.403 939.742 Q303.403 944.765 300.324 947.45 Q297.268 950.135 291.551 950.135 Q285.833 950.135 282.755 947.45 Q279.699 944.765 279.699 939.742 Q279.699 936.432 281.597 934.14 Q283.495 931.848 286.875 931.061 M285.162 923.677 Q285.162 926.362 286.829 927.867 Q288.518 929.371 291.551 929.371 Q294.56 929.371 296.25 927.867 Q297.963 926.362 297.963 923.677 Q297.963 920.992 296.25 919.487 Q294.56 917.983 291.551 917.983 Q288.518 917.983 286.829 919.487 Q285.162 920.992 285.162 923.677 Z" fill="#000000" fill-rule="nonzero" fill-opacity="1" /><path clip-path="url(#clip030)" d="M321.713 917.983 Q318.102 917.983 316.273 921.547 Q314.467 925.089 314.467 932.219 Q314.467 939.325 316.273 942.89 Q318.102 946.432 321.713 946.432 Q325.347 946.432 327.153 942.89 Q328.981 939.325 328.981 932.219 Q328.981 925.089 327.153 921.547 Q325.347 917.983 321.713 917.983 M321.713 914.279 Q327.523 914.279 330.578 918.885 Q333.657 923.469 333.657 932.219 Q333.657 940.945 330.578 945.552 Q327.523 950.135 321.713 950.135 Q315.903 950.135 312.824 945.552 Q309.768 940.945 309.768 932.219 Q309.768 923.469 312.824 918.885 Q315.903 914.279 321.713 914.279 Z" fill="#000000" fill-rule="nonzero" fill-opacity="1" /><path clip-path="url(#clip030)" d="M370.046 924.001 L359.467 934.626 L370.046 945.205 L367.291 948.006 L356.666 937.381 L346.041 948.006 L343.31 945.205 L353.865 934.626 L343.31 924.001 L346.041 921.2 L356.666 931.825 L367.291 921.2 L370.046 924.001 Z" fill="#000000" fill-rule="nonzero" fill-opacity="1" /><path clip-path="url(#clip030)" d="M382.407 945.529 L390.046 945.529 L390.046 919.163 L381.736 920.83 L381.736 916.571 L389.999 914.904 L394.675 914.904 L394.675 945.529 L402.314 945.529 L402.314 949.464 L382.407 949.464 L382.407 945.529 Z" fill="#000000" fill-rule="nonzero" fill-opacity="1" /><path clip-path="url(#clip030)" d="M421.759 917.983 Q418.147 917.983 416.319 921.547 Q414.513 925.089 414.513 932.219 Q414.513 939.325 416.319 942.89 Q418.147 946.432 421.759 946.432 Q425.393 946.432 427.198 942.89 Q429.027 939.325 429.027 932.219 Q429.027 925.089 427.198 921.547 Q425.393 917.983 421.759 917.983 M421.759 914.279 Q427.569 914.279 430.624 918.885 Q433.703 923.469 433.703 932.219 Q433.703 940.945 430.624 945.552 Q427.569 950.135 421.759 950.135 Q415.948 950.135 412.87 945.552 Q409.814 940.945 409.814 932.219 Q409.814 923.469 412.87 918.885 Q415.948 914.279 421.759 914.279 Z" fill="#000000" fill-rule="nonzero" fill-opacity="1" /><path clip-path="url(#clip030)" d="M443.408 896.475 Q440.474 896.475 438.988 899.371 Q437.521 902.249 437.521 908.042 Q437.521 913.816 438.988 916.712 Q440.474 919.59 443.408 919.59 Q446.361 919.59 447.828 916.712 Q449.313 913.816 449.313 908.042 Q449.313 902.249 447.828 899.371 Q446.361 896.475 443.408 896.475 M443.408 893.466 Q448.128 893.466 450.611 897.208 Q453.113 900.932 453.113 908.042 Q453.113 915.132 450.611 918.875 Q448.128 922.599 443.408 922.599 Q438.687 922.599 436.186 918.875 Q433.703 915.132 433.703 908.042 Q433.703 900.932 436.186 897.208 Q438.687 893.466 443.408 893.466 Z" fill="#000000" fill-rule="nonzero" fill-opacity="1" /><path clip-path="url(#clip030)" d="M115.718 514.608 L134.075 514.608 L134.075 518.543 L120.001 518.543 L120.001 527.015 Q121.019 526.668 122.038 526.506 Q123.056 526.321 124.075 526.321 Q129.862 526.321 133.242 529.492 Q136.621 532.663 136.621 538.08 Q136.621 543.658 133.149 546.76 Q129.677 549.839 123.357 549.839 Q121.181 549.839 118.913 549.469 Q116.668 549.098 114.26 548.358 L114.26 543.658 Q116.343 544.793 118.566 545.348 Q120.788 545.904 123.265 545.904 Q127.269 545.904 129.607 543.797 Q131.945 541.691 131.945 538.08 Q131.945 534.469 129.607 532.362 Q127.269 530.256 123.265 530.256 Q121.39 530.256 119.515 530.672 Q117.663 531.089 115.718 531.969 L115.718 514.608 Z" fill="#000000" fill-rule="nonzero" fill-opacity="1" /><path clip-path="url(#clip030)" d="M145.834 543.288 L150.718 543.288 L150.718 549.168 L145.834 549.168 L145.834 543.288 Z" fill="#000000" fill-rule="nonzero" fill-opacity="1" /><path clip-path="url(#clip030)" d="M161.042 548.45 L161.042 544.191 Q162.802 545.024 164.607 545.464 Q166.413 545.904 168.149 545.904 Q172.778 545.904 175.209 542.802 Q177.663 539.677 178.01 533.334 Q176.667 535.325 174.607 536.39 Q172.547 537.455 170.047 537.455 Q164.862 537.455 161.829 534.33 Q158.82 531.182 158.82 525.742 Q158.82 520.418 161.968 517.2 Q165.116 513.983 170.348 513.983 Q176.343 513.983 179.491 518.589 Q182.663 523.172 182.663 531.922 Q182.663 540.094 178.774 544.978 Q174.908 549.839 168.357 549.839 Q166.598 549.839 164.792 549.492 Q162.987 549.145 161.042 548.45 M170.348 533.797 Q173.496 533.797 175.325 531.645 Q177.176 529.492 177.176 525.742 Q177.176 522.015 175.325 519.862 Q173.496 517.686 170.348 517.686 Q167.2 517.686 165.348 519.862 Q163.519 522.015 163.519 525.742 Q163.519 529.492 165.348 531.645 Q167.2 533.797 170.348 533.797 Z" fill="#000000" fill-rule="nonzero" fill-opacity="1" /><path clip-path="url(#clip030)" d="M191.204 548.45 L191.204 544.191 Q192.963 545.024 194.769 545.464 Q196.575 545.904 198.311 545.904 Q202.94 545.904 205.371 542.802 Q207.824 539.677 208.172 533.334 Q206.829 535.325 204.769 536.39 Q202.709 537.455 200.209 537.455 Q195.024 537.455 191.991 534.33 Q188.982 531.182 188.982 525.742 Q188.982 520.418 192.13 517.2 Q195.278 513.983 200.51 513.983 Q206.505 513.983 209.653 518.589 Q212.824 523.172 212.824 531.922 Q212.824 540.094 208.936 544.978 Q205.07 549.839 198.519 549.839 Q196.76 549.839 194.954 549.492 Q193.149 549.145 191.204 548.45 M200.51 533.797 Q203.658 533.797 205.487 531.645 Q207.338 529.492 207.338 525.742 Q207.338 522.015 205.487 519.862 Q203.658 517.686 200.51 517.686 Q197.362 517.686 195.51 519.862 Q193.681 522.015 193.681 525.742 Q193.681 529.492 195.51 531.645 Q197.362 533.797 200.51 533.797 Z" fill="#000000" fill-rule="nonzero" fill-opacity="1" /><path clip-path="url(#clip030)" d="M221.366 548.45 L221.366 544.191 Q223.125 545.024 224.931 545.464 Q226.736 545.904 228.473 545.904 Q233.102 545.904 235.533 542.802 Q237.986 539.677 238.334 533.334 Q236.991 535.325 234.931 536.39 Q232.871 537.455 230.371 537.455 Q225.185 537.455 222.153 534.33 Q219.144 531.182 219.144 525.742 Q219.144 520.418 222.292 517.2 Q225.44 513.983 230.672 513.983 Q236.667 513.983 239.815 518.589 Q242.986 523.172 242.986 531.922 Q242.986 540.094 239.097 544.978 Q235.232 549.839 228.681 549.839 Q226.922 549.839 225.116 549.492 Q223.31 549.145 221.366 548.45 M230.672 533.797 Q233.82 533.797 235.648 531.645 Q237.5 529.492 237.5 525.742 Q237.5 522.015 235.648 519.862 Q233.82 517.686 230.672 517.686 Q227.523 517.686 225.672 519.862 Q223.843 522.015 223.843 525.742 Q223.843 529.492 225.672 531.645 Q227.523 533.797 230.672 533.797 Z" fill="#000000" fill-rule="nonzero" fill-opacity="1" /><path clip-path="url(#clip030)" d="M261.389 532.756 Q258.056 532.756 256.134 534.538 Q254.236 536.321 254.236 539.446 Q254.236 542.57 256.134 544.353 Q258.056 546.135 261.389 546.135 Q264.722 546.135 266.644 544.353 Q268.565 542.547 268.565 539.446 Q268.565 536.321 266.644 534.538 Q264.745 532.756 261.389 532.756 M256.713 530.765 Q253.704 530.024 252.014 527.964 Q250.347 525.904 250.347 522.941 Q250.347 518.797 253.287 516.39 Q256.25 513.983 261.389 513.983 Q266.551 513.983 269.491 516.39 Q272.431 518.797 272.431 522.941 Q272.431 525.904 270.741 527.964 Q269.074 530.024 266.088 530.765 Q269.468 531.552 271.343 533.844 Q273.241 536.135 273.241 539.446 Q273.241 544.469 270.162 547.154 Q267.107 549.839 261.389 549.839 Q255.671 549.839 252.593 547.154 Q249.537 544.469 249.537 539.446 Q249.537 536.135 251.435 533.844 Q253.333 531.552 256.713 530.765 M255 523.381 Q255 526.066 256.667 527.571 Q258.357 529.075 261.389 529.075 Q264.398 529.075 266.088 527.571 Q267.801 526.066 267.801 523.381 Q267.801 520.696 266.088 519.191 Q264.398 517.686 261.389 517.686 Q258.357 517.686 256.667 519.191 Q255 520.696 255 523.381 Z" fill="#000000" fill-rule="nonzero" fill-opacity="1" /><path clip-path="url(#clip030)" d="M281.69 548.45 L281.69 544.191 Q283.449 545.024 285.255 545.464 Q287.06 545.904 288.796 545.904 Q293.426 545.904 295.856 542.802 Q298.31 539.677 298.657 533.334 Q297.315 535.325 295.255 536.39 Q293.194 537.455 290.694 537.455 Q285.509 537.455 282.477 534.33 Q279.468 531.182 279.468 525.742 Q279.468 520.418 282.616 517.2 Q285.764 513.983 290.995 513.983 Q296.991 513.983 300.139 518.589 Q303.31 523.172 303.31 531.922 Q303.31 540.094 299.421 544.978 Q295.555 549.839 289.005 549.839 Q287.245 549.839 285.44 549.492 Q283.634 549.145 281.69 548.45 M290.995 533.797 Q294.143 533.797 295.972 531.645 Q297.824 529.492 297.824 525.742 Q297.824 522.015 295.972 519.862 Q294.143 517.686 290.995 517.686 Q287.847 517.686 285.995 519.862 Q284.167 522.015 284.167 525.742 Q284.167 529.492 285.995 531.645 Q287.847 533.797 290.995 533.797 Z" fill="#000000" fill-rule="nonzero" fill-opacity="1" /><path clip-path="url(#clip030)" d="M321.713 517.686 Q318.102 517.686 316.273 521.251 Q314.467 524.793 314.467 531.922 Q314.467 539.029 316.273 542.594 Q318.102 546.135 321.713 546.135 Q325.347 546.135 327.153 542.594 Q328.981 539.029 328.981 531.922 Q328.981 524.793 327.153 521.251 Q325.347 517.686 321.713 517.686 M321.713 513.983 Q327.523 513.983 330.578 518.589 Q333.657 523.172 333.657 531.922 Q333.657 540.649 330.578 545.256 Q327.523 549.839 321.713 549.839 Q315.903 549.839 312.824 545.256 Q309.768 540.649 309.768 531.922 Q309.768 523.172 312.824 518.589 Q315.903 513.983 321.713 513.983 Z" fill="#000000" fill-rule="nonzero" fill-opacity="1" /><path clip-path="url(#clip030)" d="M370.046 523.705 L359.467 534.33 L370.046 544.908 L367.291 547.709 L356.666 537.084 L346.041 547.709 L343.31 544.908 L353.865 534.33 L343.31 523.705 L346.041 520.904 L356.666 531.529 L367.291 520.904 L370.046 523.705 Z" fill="#000000" fill-rule="nonzero" fill-opacity="1" /><path clip-path="url(#clip030)" d="M382.407 545.233 L390.046 545.233 L390.046 518.867 L381.736 520.534 L381.736 516.274 L389.999 514.608 L394.675 514.608 L394.675 545.233 L402.314 545.233 L402.314 549.168 L382.407 549.168 L382.407 545.233 Z" fill="#000000" fill-rule="nonzero" fill-opacity="1" /><path clip-path="url(#clip030)" d="M421.759 517.686 Q418.147 517.686 416.319 521.251 Q414.513 524.793 414.513 531.922 Q414.513 539.029 416.319 542.594 Q418.147 546.135 421.759 546.135 Q425.393 546.135 427.198 542.594 Q429.027 539.029 429.027 531.922 Q429.027 524.793 427.198 521.251 Q425.393 517.686 421.759 517.686 M421.759 513.983 Q427.569 513.983 430.624 518.589 Q433.703 523.172 433.703 531.922 Q433.703 540.649 430.624 545.256 Q427.569 549.839 421.759 549.839 Q415.948 549.839 412.87 545.256 Q409.814 540.649 409.814 531.922 Q409.814 523.172 412.87 518.589 Q415.948 513.983 421.759 513.983 Z" fill="#000000" fill-rule="nonzero" fill-opacity="1" /><path clip-path="url(#clip030)" d="M443.408 496.179 Q440.474 496.179 438.988 499.075 Q437.521 501.953 437.521 507.745 Q437.521 513.519 438.988 516.416 Q440.474 519.293 443.408 519.293 Q446.361 519.293 447.828 516.416 Q449.313 513.519 449.313 507.745 Q449.313 501.953 447.828 499.075 Q446.361 496.179 443.408 496.179 M443.408 493.169 Q448.128 493.169 450.611 496.912 Q453.113 500.636 453.113 507.745 Q453.113 514.836 450.611 518.579 Q448.128 522.303 443.408 522.303 Q438.687 522.303 436.186 518.579 Q433.703 514.836 433.703 507.745 Q433.703 500.636 436.186 496.912 Q438.687 493.169 443.408 493.169 Z" fill="#000000" fill-rule="nonzero" fill-opacity="1" /><path clip-path="url(#clip030)" d="M115.718 114.311 L134.075 114.311 L134.075 118.247 L120.001 118.247 L120.001 126.719 Q121.019 126.372 122.038 126.209 Q123.056 126.024 124.075 126.024 Q129.862 126.024 133.242 129.196 Q136.621 132.367 136.621 137.783 Q136.621 143.362 133.149 146.464 Q129.677 149.543 123.357 149.543 Q121.181 149.543 118.913 149.172 Q116.668 148.802 114.26 148.061 L114.26 143.362 Q116.343 144.496 118.566 145.052 Q120.788 145.608 123.265 145.608 Q127.269 145.608 129.607 143.501 Q131.945 141.395 131.945 137.783 Q131.945 134.172 129.607 132.066 Q127.269 129.959 123.265 129.959 Q121.39 129.959 119.515 130.376 Q117.663 130.793 115.718 131.672 L115.718 114.311 Z" fill="#000000" fill-rule="nonzero" fill-opacity="1" /><path clip-path="url(#clip030)" d="M145.834 142.992 L150.718 142.992 L150.718 148.871 L145.834 148.871 L145.834 142.992 Z" fill="#000000" fill-rule="nonzero" fill-opacity="1" /><path clip-path="url(#clip030)" d="M161.042 148.154 L161.042 143.895 Q162.802 144.728 164.607 145.168 Q166.413 145.608 168.149 145.608 Q172.778 145.608 175.209 142.506 Q177.663 139.381 178.01 133.038 Q176.667 135.029 174.607 136.094 Q172.547 137.159 170.047 137.159 Q164.862 137.159 161.829 134.034 Q158.82 130.885 158.82 125.446 Q158.82 120.122 161.968 116.904 Q165.116 113.686 170.348 113.686 Q176.343 113.686 179.491 118.293 Q182.663 122.876 182.663 131.626 Q182.663 139.797 178.774 144.682 Q174.908 149.543 168.357 149.543 Q166.598 149.543 164.792 149.195 Q162.987 148.848 161.042 148.154 M170.348 133.501 Q173.496 133.501 175.325 131.348 Q177.176 129.196 177.176 125.446 Q177.176 121.719 175.325 119.566 Q173.496 117.39 170.348 117.39 Q167.2 117.39 165.348 119.566 Q163.519 121.719 163.519 125.446 Q163.519 129.196 165.348 131.348 Q167.2 133.501 170.348 133.501 Z" fill="#000000" fill-rule="nonzero" fill-opacity="1" /><path clip-path="url(#clip030)" d="M191.204 148.154 L191.204 143.895 Q192.963 144.728 194.769 145.168 Q196.575 145.608 198.311 145.608 Q202.94 145.608 205.371 142.506 Q207.824 139.381 208.172 133.038 Q206.829 135.029 204.769 136.094 Q202.709 137.159 200.209 137.159 Q195.024 137.159 191.991 134.034 Q188.982 130.885 188.982 125.446 Q188.982 120.122 192.13 116.904 Q195.278 113.686 200.51 113.686 Q206.505 113.686 209.653 118.293 Q212.824 122.876 212.824 131.626 Q212.824 139.797 208.936 144.682 Q205.07 149.543 198.519 149.543 Q196.76 149.543 194.954 149.195 Q193.149 148.848 191.204 148.154 M200.51 133.501 Q203.658 133.501 205.487 131.348 Q207.338 129.196 207.338 125.446 Q207.338 121.719 205.487 119.566 Q203.658 117.39 200.51 117.39 Q197.362 117.39 195.51 119.566 Q193.681 121.719 193.681 125.446 Q193.681 129.196 195.51 131.348 Q197.362 133.501 200.51 133.501 Z" fill="#000000" fill-rule="nonzero" fill-opacity="1" /><path clip-path="url(#clip030)" d="M221.366 148.154 L221.366 143.895 Q223.125 144.728 224.931 145.168 Q226.736 145.608 228.473 145.608 Q233.102 145.608 235.533 142.506 Q237.986 139.381 238.334 133.038 Q236.991 135.029 234.931 136.094 Q232.871 137.159 230.371 137.159 Q225.185 137.159 222.153 134.034 Q219.144 130.885 219.144 125.446 Q219.144 120.122 222.292 116.904 Q225.44 113.686 230.672 113.686 Q236.667 113.686 239.815 118.293 Q242.986 122.876 242.986 131.626 Q242.986 139.797 239.097 144.682 Q235.232 149.543 228.681 149.543 Q226.922 149.543 225.116 149.195 Q223.31 148.848 221.366 148.154 M230.672 133.501 Q233.82 133.501 235.648 131.348 Q237.5 129.196 237.5 125.446 Q237.5 121.719 235.648 119.566 Q233.82 117.39 230.672 117.39 Q227.523 117.39 225.672 119.566 Q223.843 121.719 223.843 125.446 Q223.843 129.196 225.672 131.348 Q227.523 133.501 230.672 133.501 Z" fill="#000000" fill-rule="nonzero" fill-opacity="1" /><path clip-path="url(#clip030)" d="M251.528 148.154 L251.528 143.895 Q253.287 144.728 255.093 145.168 Q256.898 145.608 258.634 145.608 Q263.264 145.608 265.695 142.506 Q268.148 139.381 268.495 133.038 Q267.153 135.029 265.093 136.094 Q263.033 137.159 260.533 137.159 Q255.347 137.159 252.315 134.034 Q249.306 130.885 249.306 125.446 Q249.306 120.122 252.454 116.904 Q255.602 113.686 260.833 113.686 Q266.829 113.686 269.977 118.293 Q273.148 122.876 273.148 131.626 Q273.148 139.797 269.259 144.682 Q265.394 149.543 258.843 149.543 Q257.083 149.543 255.278 149.195 Q253.472 148.848 251.528 148.154 M260.833 133.501 Q263.982 133.501 265.81 131.348 Q267.662 129.196 267.662 125.446 Q267.662 121.719 265.81 119.566 Q263.982 117.39 260.833 117.39 Q257.685 117.39 255.833 119.566 Q254.005 121.719 254.005 125.446 Q254.005 129.196 255.833 131.348 Q257.685 133.501 260.833 133.501 Z" fill="#000000" fill-rule="nonzero" fill-opacity="1" /><path clip-path="url(#clip030)" d="M291.551 117.39 Q287.94 117.39 286.111 120.955 Q284.306 124.497 284.306 131.626 Q284.306 138.733 286.111 142.297 Q287.94 145.839 291.551 145.839 Q295.185 145.839 296.991 142.297 Q298.819 138.733 298.819 131.626 Q298.819 124.497 296.991 120.955 Q295.185 117.39 291.551 117.39 M291.551 113.686 Q297.361 113.686 300.417 118.293 Q303.495 122.876 303.495 131.626 Q303.495 140.353 300.417 144.959 Q297.361 149.543 291.551 149.543 Q285.741 149.543 282.662 144.959 Q279.606 140.353 279.606 131.626 Q279.606 122.876 282.662 118.293 Q285.741 113.686 291.551 113.686 Z" fill="#000000" fill-rule="nonzero" fill-opacity="1" /><path clip-path="url(#clip030)" d="M321.713 117.39 Q318.102 117.39 316.273 120.955 Q314.467 124.497 314.467 131.626 Q314.467 138.733 316.273 142.297 Q318.102 145.839 321.713 145.839 Q325.347 145.839 327.153 142.297 Q328.981 138.733 328.981 131.626 Q328.981 124.497 327.153 120.955 Q325.347 117.39 321.713 117.39 M321.713 113.686 Q327.523 113.686 330.578 118.293 Q333.657 122.876 333.657 131.626 Q333.657 140.353 330.578 144.959 Q327.523 149.543 321.713 149.543 Q315.903 149.543 312.824 144.959 Q309.768 140.353 309.768 131.626 Q309.768 122.876 312.824 118.293 Q315.903 113.686 321.713 113.686 Z" fill="#000000" fill-rule="nonzero" fill-opacity="1" /><path clip-path="url(#clip030)" d="M370.046 123.409 L359.467 134.034 L370.046 144.612 L367.291 147.413 L356.666 136.788 L346.041 147.413 L343.31 144.612 L353.865 134.034 L343.31 123.409 L346.041 120.608 L356.666 131.233 L367.291 120.608 L370.046 123.409 Z" fill="#000000" fill-rule="nonzero" fill-opacity="1" /><path clip-path="url(#clip030)" d="M382.407 144.936 L390.046 144.936 L390.046 118.571 L381.736 120.237 L381.736 115.978 L389.999 114.311 L394.675 114.311 L394.675 144.936 L402.314 144.936 L402.314 148.871 L382.407 148.871 L382.407 144.936 Z" fill="#000000" fill-rule="nonzero" fill-opacity="1" /><path clip-path="url(#clip030)" d="M421.759 117.39 Q418.147 117.39 416.319 120.955 Q414.513 124.497 414.513 131.626 Q414.513 138.733 416.319 142.297 Q418.147 145.839 421.759 145.839 Q425.393 145.839 427.198 142.297 Q429.027 138.733 429.027 131.626 Q429.027 124.497 427.198 120.955 Q425.393 117.39 421.759 117.39 M421.759 113.686 Q427.569 113.686 430.624 118.293 Q433.703 122.876 433.703 131.626 Q433.703 140.353 430.624 144.959 Q427.569 149.543 421.759 149.543 Q415.948 149.543 412.87 144.959 Q409.814 140.353 409.814 131.626 Q409.814 122.876 412.87 118.293 Q415.948 113.686 421.759 113.686 Z" fill="#000000" fill-rule="nonzero" fill-opacity="1" /><path clip-path="url(#clip030)" d="M443.408 95.8824 Q440.474 95.8824 438.988 98.7788 Q437.521 101.656 437.521 107.449 Q437.521 113.223 438.988 116.12 Q440.474 118.997 443.408 118.997 Q446.361 118.997 447.828 116.12 Q449.313 113.223 449.313 107.449 Q449.313 101.656 447.828 98.7788 Q446.361 95.8824 443.408 95.8824 M443.408 92.8732 Q448.128 92.8732 450.611 96.6159 Q453.113 100.34 453.113 107.449 Q453.113 114.54 450.611 118.282 Q448.128 122.006 443.408 122.006 Q438.687 122.006 436.186 118.282 Q433.703 114.54 433.703 107.449 Q433.703 100.34 436.186 96.6159 Q438.687 92.8732 443.408 92.8732 Z" fill="#000000" fill-rule="nonzero" fill-opacity="1" /><path clip-path="url(#clip030)" d="M21.7677 981.565 L58.7206 981.565 L58.7206 973.799 Q58.7206 963.964 54.2646 959.412 Q49.8086 954.829 40.1964 954.829 Q30.6479 954.829 26.2237 959.412 Q21.7677 963.964 21.7677 973.799 L21.7677 981.565 M16.4842 987.994 L16.4842 974.785 Q16.4842 960.972 22.2451 954.511 Q27.9743 948.049 40.1964 948.049 Q52.4822 948.049 58.2432 954.542 Q64.0042 961.035 64.0042 974.785 L64.0042 987.994 L16.4842 987.994 Z" fill="#000000" fill-rule="nonzero" fill-opacity="1" /><path clip-path="url(#clip030)" d="M28.3562 938.055 L28.3562 932.199 L64.0042 932.199 L64.0042 938.055 L28.3562 938.055 M14.479 938.055 L14.479 932.199 L21.895 932.199 L21.895 938.055 L14.479 938.055 Z" fill="#000000" fill-rule="nonzero" fill-opacity="1" /><path clip-path="url(#clip030)" d="M29.4065 897.219 L34.9447 897.219 Q33.6716 899.702 33.035 902.375 Q32.3984 905.049 32.3984 907.914 Q32.3984 912.274 33.7352 914.47 Q35.072 916.635 37.7456 916.635 Q39.7826 916.635 40.9603 915.075 Q42.1061 913.515 43.1565 908.805 L43.6021 906.8 Q44.9389 900.561 47.3897 897.951 Q49.8086 895.309 54.1691 895.309 Q59.1344 895.309 62.0308 899.256 Q64.9272 903.171 64.9272 910.046 Q64.9272 912.911 64.3543 916.03 Q63.8132 919.117 62.6992 922.555 L56.6518 922.555 Q58.3387 919.308 59.198 916.157 Q60.0256 913.006 60.0256 909.919 Q60.0256 905.781 58.6251 903.553 Q57.1929 901.325 54.6147 901.325 Q52.2276 901.325 50.9545 902.948 Q49.6813 904.54 48.5037 909.982 L48.0262 912.019 Q46.8804 917.462 44.5251 919.881 Q42.138 922.3 38.0002 922.3 Q32.9713 922.3 30.2341 918.735 Q27.4968 915.17 27.4968 908.614 Q27.4968 905.367 27.9743 902.503 Q28.4517 899.638 29.4065 897.219 Z" fill="#000000" fill-rule="nonzero" fill-opacity="1" /><path clip-path="url(#clip030)" d="M18.2347 880.191 L28.3562 880.191 L28.3562 868.128 L32.9077 868.128 L32.9077 880.191 L52.2594 880.191 Q56.6199 880.191 57.8613 879.013 Q59.1026 877.804 59.1026 874.144 L59.1026 868.128 L64.0042 868.128 L64.0042 874.144 Q64.0042 880.923 61.4897 883.501 Q58.9434 886.079 52.2594 886.079 L32.9077 886.079 L32.9077 890.376 L28.3562 890.376 L28.3562 886.079 L18.2347 886.079 L18.2347 880.191 Z" fill="#000000" fill-rule="nonzero" fill-opacity="1" /><path clip-path="url(#clip030)" d="M46.0847 844.225 Q46.0847 851.322 47.7079 854.06 Q49.3312 856.797 53.2461 856.797 Q56.3653 856.797 58.2114 854.76 Q60.0256 852.691 60.0256 849.158 Q60.0256 844.288 56.5881 841.36 Q53.1188 838.4 47.3897 838.4 L46.0847 838.4 L46.0847 844.225 M43.6657 832.544 L64.0042 832.544 L64.0042 838.4 L58.5933 838.4 Q61.8398 840.405 63.3994 843.397 Q64.9272 846.389 64.9272 850.718 Q64.9272 856.192 61.8716 859.439 Q58.7843 862.653 53.6281 862.653 Q47.6125 862.653 44.5569 858.643 Q41.5014 854.601 41.5014 846.612 L41.5014 838.4 L40.9285 838.4 Q36.8862 838.4 34.6901 841.074 Q32.4621 843.715 32.4621 848.522 Q32.4621 851.577 33.1941 854.473 Q33.9262 857.37 35.3903 860.043 L29.9795 860.043 Q28.7381 856.829 28.1334 853.805 Q27.4968 850.781 27.4968 847.917 Q27.4968 840.182 31.5072 836.363 Q35.5176 832.544 43.6657 832.544 Z" fill="#000000" fill-rule="nonzero" fill-opacity="1" /><path clip-path="url(#clip030)" d="M42.4881 790.848 L64.0042 790.848 L64.0042 796.705 L42.679 796.705 Q37.6183 796.705 35.1038 798.678 Q32.5894 800.651 32.5894 804.598 Q32.5894 809.341 35.6131 812.078 Q38.6368 814.815 43.8567 814.815 L64.0042 814.815 L64.0042 820.703 L28.3562 820.703 L28.3562 814.815 L33.8944 814.815 Q30.6797 812.714 29.0883 809.882 Q27.4968 807.017 27.4968 803.293 Q27.4968 797.15 31.3163 793.999 Q35.1038 790.848 42.4881 790.848 Z" fill="#000000" fill-rule="nonzero" fill-opacity="1" /><path clip-path="url(#clip030)" d="M29.7248 753.513 L35.1993 753.513 Q33.8307 755.996 33.1623 758.51 Q32.4621 760.993 32.4621 763.539 Q32.4621 769.237 36.0905 772.388 Q39.6872 775.539 46.212 775.539 Q52.7369 775.539 56.3653 772.388 Q59.9619 769.237 59.9619 763.539 Q59.9619 760.993 59.2935 758.51 Q58.5933 755.996 57.2247 753.513 L62.6355 753.513 Q63.7814 755.964 64.3543 758.606 Q64.9272 761.216 64.9272 764.176 Q64.9272 772.229 59.8664 776.971 Q54.8057 781.713 46.212 781.713 Q37.491 781.713 32.4939 776.939 Q27.4968 772.133 27.4968 763.794 Q27.4968 761.089 28.0697 758.51 Q28.6108 755.932 29.7248 753.513 Z" fill="#000000" fill-rule="nonzero" fill-opacity="1" /><path clip-path="url(#clip030)" d="M44.7161 712.837 L47.5806 712.837 L47.5806 739.763 Q53.6281 739.382 56.8109 736.135 Q59.9619 732.857 59.9619 727.032 Q59.9619 723.658 59.1344 720.507 Q58.3069 717.324 56.6518 714.205 L62.1899 714.205 Q63.5267 717.356 64.227 720.666 Q64.9272 723.976 64.9272 727.382 Q64.9272 735.912 59.9619 740.909 Q54.9967 745.875 46.5303 745.875 Q37.7774 745.875 32.6531 741.164 Q27.4968 736.421 27.4968 728.401 Q27.4968 721.207 32.1438 717.038 Q36.7589 712.837 44.7161 712.837 M42.9973 718.693 Q38.1912 718.757 35.3266 721.398 Q32.4621 724.008 32.4621 728.337 Q32.4621 733.239 35.2312 736.199 Q38.0002 739.127 43.0292 739.572 L42.9973 718.693 Z" fill="#000000" fill-rule="nonzero" fill-opacity="1" /><path clip-path="url(#clip030)" d="M29.4065 680.499 L34.9447 680.499 Q33.6716 682.981 33.035 685.655 Q32.3984 688.329 32.3984 691.193 Q32.3984 695.554 33.7352 697.75 Q35.072 699.914 37.7456 699.914 Q39.7826 699.914 40.9603 698.355 Q42.1061 696.795 43.1565 692.084 L43.6021 690.079 Q44.9389 683.841 47.3897 681.231 Q49.8086 678.589 54.1691 678.589 Q59.1344 678.589 62.0308 682.536 Q64.9272 686.451 64.9272 693.326 Q64.9272 696.19 64.3543 699.309 Q63.8132 702.397 62.6992 705.834 L56.6518 705.834 Q58.3387 702.588 59.198 699.437 Q60.0256 696.286 60.0256 693.198 Q60.0256 689.061 58.6251 686.833 Q57.1929 684.605 54.6147 684.605 Q52.2276 684.605 50.9545 686.228 Q49.6813 687.819 48.5037 693.262 L48.0262 695.299 Q46.8804 700.742 44.5251 703.161 Q42.138 705.58 38.0002 705.58 Q32.9713 705.58 30.2341 702.015 Q27.4968 698.45 27.4968 691.893 Q27.4968 688.647 27.9743 685.782 Q28.4517 682.918 29.4065 680.499 Z" fill="#000000" fill-rule="nonzero" fill-opacity="1" /><path clip-path="url(#clip030)" d="M14.479 649.084 L14.479 635.589 L19.0304 635.589 L19.0304 643.228 L68.0464 643.228 L68.0464 635.589 L72.5979 635.589 L72.5979 649.084 L14.479 649.084 Z" fill="#000000" fill-rule="nonzero" fill-opacity="1" /><path clip-path="url(#clip030)" d="M35.1993 595.357 Q31.2526 593.161 29.3747 590.106 Q27.4968 587.05 27.4968 582.912 Q27.4968 577.342 31.4117 574.319 Q35.2948 571.295 42.4881 571.295 L64.0042 571.295 L64.0042 577.183 L42.679 577.183 Q37.5546 577.183 35.072 578.998 Q32.5894 580.812 32.5894 584.536 Q32.5894 589.087 35.6131 591.729 Q38.6368 594.371 43.8567 594.371 L64.0042 594.371 L64.0042 600.259 L42.679 600.259 Q37.5228 600.259 35.072 602.073 Q32.5894 603.887 32.5894 607.675 Q32.5894 612.163 35.6449 614.805 Q38.6686 617.446 43.8567 617.446 L64.0042 617.446 L64.0042 623.335 L28.3562 623.335 L28.3562 617.446 L33.8944 617.446 Q30.616 615.441 29.0564 612.64 Q27.4968 609.839 27.4968 605.988 Q27.4968 602.105 29.4702 599.4 Q31.4436 596.662 35.1993 595.357 Z" fill="#000000" fill-rule="nonzero" fill-opacity="1" /><path clip-path="url(#clip030)" d="M35.1993 531.859 Q31.2526 529.663 29.3747 526.608 Q27.4968 523.552 27.4968 519.415 Q27.4968 513.845 31.4117 510.821 Q35.2948 507.797 42.4881 507.797 L64.0042 507.797 L64.0042 513.685 L42.679 513.685 Q37.5546 513.685 35.072 515.5 Q32.5894 517.314 32.5894 521.038 Q32.5894 525.589 35.6131 528.231 Q38.6368 530.873 43.8567 530.873 L64.0042 530.873 L64.0042 536.761 L42.679 536.761 Q37.5228 536.761 35.072 538.575 Q32.5894 540.39 32.5894 544.177 Q32.5894 548.665 35.6449 551.307 Q38.6686 553.948 43.8567 553.948 L64.0042 553.948 L64.0042 559.837 L28.3562 559.837 L28.3562 553.948 L33.8944 553.948 Q30.616 551.943 29.0564 549.142 Q27.4968 546.341 27.4968 542.49 Q27.4968 538.607 29.4702 535.902 Q31.4436 533.164 35.1993 531.859 Z" fill="#000000" fill-rule="nonzero" fill-opacity="1" /><path clip-path="url(#clip030)" d="M14.479 482.43 L72.5979 482.43 L72.5979 495.925 L68.0464 495.925 L68.0464 488.318 L19.0304 488.318 L19.0304 495.925 L14.479 495.925 L14.479 482.43 Z" fill="#000000" fill-rule="nonzero" fill-opacity="1" /><circle clip-path="url(#clip032)" cx="541.857" cy="1384.24" r="14.4" fill="#009af9" fill-rule="evenodd" fill-opacity="1" stroke="#000000" stroke-opacity="1" stroke-width="3.2"/>
<circle clip-path="url(#clip032)" cx="793.022" cy="622.295" r="14.4" fill="#009af9" fill-rule="evenodd" fill-opacity="1" stroke="#000000" stroke-opacity="1" stroke-width="3.2"/>
<circle clip-path="url(#clip032)" cx="1044.19" cy="500.897" r="14.4" fill="#009af9" fill-rule="evenodd" fill-opacity="1" stroke="#000000" stroke-opacity="1" stroke-width="3.2"/>
<circle clip-path="url(#clip032)" cx="1295.35" cy="765.745" r="14.4" fill="#009af9" fill-rule="evenodd" fill-opacity="1" stroke="#000000" stroke-opacity="1" stroke-width="3.2"/>
<circle clip-path="url(#clip032)" cx="1546.52" cy="86.1857" r="14.4" fill="#009af9" fill-rule="evenodd" fill-opacity="1" stroke="#000000" stroke-opacity="1" stroke-width="3.2"/>
<circle clip-path="url(#clip032)" cx="1797.68" cy="570.831" r="14.4" fill="#009af9" fill-rule="evenodd" fill-opacity="1" stroke="#000000" stroke-opacity="1" stroke-width="3.2"/>
<circle clip-path="url(#clip032)" cx="2048.85" cy="485.549" r="14.4" fill="#009af9" fill-rule="evenodd" fill-opacity="1" stroke="#000000" stroke-opacity="1" stroke-width="3.2"/>
<circle clip-path="url(#clip032)" cx="2300.01" cy="497.231" r="14.4" fill="#009af9" fill-rule="evenodd" fill-opacity="1" stroke="#000000" stroke-opacity="1" stroke-width="3.2"/>
<path clip-path="url(#clip030)" d="M2051.84 196.789 L2290.63 196.789 L2290.63 93.1086 L2051.84 93.1086  Z" fill="#ffffff" fill-rule="evenodd" fill-opacity="1"/>
<polyline clip-path="url(#clip030)" style="stroke:#000000; stroke-linecap:round; stroke-linejoin:round; stroke-width:4; stroke-opacity:1; fill:none" points="2051.84,196.789 2290.63,196.789 2290.63,93.1086 2051.84,93.1086 2051.84,196.789 "/>
<circle clip-path="url(#clip030)" cx="2134.67" cy="144.949" r="20.48" fill="#009af9" fill-rule="evenodd" fill-opacity="1" stroke="#000000" stroke-opacity="1" stroke-width="4.55111"/>
<path clip-path="url(#clip030)" d="M2231.34 164.636 Q2229.53 169.266 2227.82 170.678 Q2226.11 172.09 2223.24 172.09 L2219.83 172.09 L2219.83 168.525 L2222.33 168.525 Q2224.09 168.525 2225.07 167.692 Q2226.04 166.858 2227.22 163.756 L2227.98 161.812 L2217.5 136.303 L2222.01 136.303 L2230.11 156.581 L2238.21 136.303 L2242.73 136.303 L2231.34 164.636 Z" fill="#000000" fill-rule="nonzero" fill-opacity="1" /><path clip-path="url(#clip030)" d="M2250.02 158.293 L2257.66 158.293 L2257.66 131.928 L2249.35 133.595 L2249.35 129.335 L2257.61 127.669 L2262.29 127.669 L2262.29 158.293 L2269.93 158.293 L2269.93 162.229 L2250.02 162.229 L2250.02 158.293 Z" fill="#000000" fill-rule="nonzero" fill-opacity="1" /></svg>
