<?xml version="1.0" encoding="utf-8"?>
<svg xmlns="http://www.w3.org/2000/svg" xmlns:xlink="http://www.w3.org/1999/xlink" width="600" height="400" viewBox="0 0 2400 1600">
<defs>
  <clipPath id="clip390">
    <rect x="0" y="0" width="2400" height="1600"/>
  </clipPath>
</defs>
<path clip-path="url(#clip390)" d="M0 1600 L2400 1600 L2400 0 L0 0  Z" fill="#ffffff" fill-rule="evenodd" fill-opacity="1"/>
<defs>
  <clipPath id="clip391">
    <rect x="480" y="0" width="1681" height="1600"/>
  </clipPath>
</defs>
<path clip-path="url(#clip390)" d="M310.352 1423.18 L2352.76 1423.18 L2352.76 47.2441 L310.352 47.2441  Z" fill="#ffffff" fill-rule="evenodd" fill-opacity="1"/>
<defs>
  <clipPath id="clip392">
    <rect x="310" y="47" width="2043" height="1377"/>
  </clipPath>
</defs>
<polyline clip-path="url(#clip392)" style="stroke:#000000; stroke-linecap:round; stroke-linejoin:round; stroke-width:2; stroke-opacity:0.1; fill:none" points="560.835,1423.18 560.835,47.2441 "/>
<polyline clip-path="url(#clip392)" style="stroke:#000000; stroke-linecap:round; stroke-linejoin:round; stroke-width:2; stroke-opacity:0.1; fill:none" points="946.195,1423.18 946.195,47.2441 "/>
<polyline clip-path="url(#clip392)" style="stroke:#000000; stroke-linecap:round; stroke-linejoin:round; stroke-width:2; stroke-opacity:0.1; fill:none" points="1331.55,1423.18 1331.55,47.2441 "/>
<polyline clip-path="url(#clip392)" style="stroke:#000000; stroke-linecap:round; stroke-linejoin:round; stroke-width:2; stroke-opacity:0.1; fill:none" points="1716.91,1423.18 1716.91,47.2441 "/>
<polyline clip-path="url(#clip392)" style="stroke:#000000; stroke-linecap:round; stroke-linejoin:round; stroke-width:2; stroke-opacity:0.1; fill:none" points="2102.27,1423.18 2102.27,47.2441 "/>
<polyline clip-path="url(#clip392)" style="stroke:#000000; stroke-linecap:round; stroke-linejoin:round; stroke-width:2; stroke-opacity:0.1; fill:none" points="310.352,1419.73 2352.76,1419.73 "/>
<polyline clip-path="url(#clip392)" style="stroke:#000000; stroke-linecap:round; stroke-linejoin:round; stroke-width:2; stroke-opacity:0.1; fill:none" points="310.352,1138.6 2352.76,1138.6 "/>
<polyline clip-path="url(#clip392)" style="stroke:#000000; stroke-linecap:round; stroke-linejoin:round; stroke-width:2; stroke-opacity:0.1; fill:none" points="310.352,857.47 2352.76,857.47 "/>
<polyline clip-path="url(#clip392)" style="stroke:#000000; stroke-linecap:round; stroke-linejoin:round; stroke-width:2; stroke-opacity:0.1; fill:none" points="310.352,576.341 2352.76,576.341 "/>
<polyline clip-path="url(#clip392)" style="stroke:#000000; stroke-linecap:round; stroke-linejoin:round; stroke-width:2; stroke-opacity:0.1; fill:none" points="310.352,295.211 2352.76,295.211 "/>
<polyline clip-path="url(#clip390)" style="stroke:#000000; stroke-linecap:round; stroke-linejoin:round; stroke-width:4; stroke-opacity:1; fill:none" points="310.352,1423.18 2352.76,1423.18 "/>
<polyline clip-path="url(#clip390)" style="stroke:#000000; stroke-linecap:round; stroke-linejoin:round; stroke-width:4; stroke-opacity:1; fill:none" points="560.835,1423.18 560.835,1404.28 "/>
<polyline clip-path="url(#clip390)" style="stroke:#000000; stroke-linecap:round; stroke-linejoin:round; stroke-width:4; stroke-opacity:1; fill:none" points="946.195,1423.18 946.195,1404.28 "/>
<polyline clip-path="url(#clip390)" style="stroke:#000000; stroke-linecap:round; stroke-linejoin:round; stroke-width:4; stroke-opacity:1; fill:none" points="1331.55,1423.18 1331.55,1404.28 "/>
<polyline clip-path="url(#clip390)" style="stroke:#000000; stroke-linecap:round; stroke-linejoin:round; stroke-width:4; stroke-opacity:1; fill:none" points="1716.91,1423.18 1716.91,1404.28 "/>
<polyline clip-path="url(#clip390)" style="stroke:#000000; stroke-linecap:round; stroke-linejoin:round; stroke-width:4; stroke-opacity:1; fill:none" points="2102.27,1423.18 2102.27,1404.28 "/>
<path clip-path="url(#clip390)" d="M516.912 1481.64 L533.231 1481.64 L533.231 1485.58 L511.287 1485.58 L511.287 1481.64 Q513.949 1478.89 518.532 1474.26 Q523.139 1469.61 524.319 1468.27 Q526.565 1465.74 527.444 1464.01 Q528.347 1462.25 528.347 1460.56 Q528.347 1457.8 526.403 1456.07 Q524.481 1454.33 521.38 1454.33 Q519.181 1454.33 516.727 1455.09 Q514.296 1455.86 511.519 1457.41 L511.519 1452.69 Q514.343 1451.55 516.796 1450.97 Q519.25 1450.39 521.287 1450.39 Q526.657 1450.39 529.852 1453.08 Q533.046 1455.77 533.046 1460.26 Q533.046 1462.39 532.236 1464.31 Q531.449 1466.2 529.343 1468.8 Q528.764 1469.47 525.662 1472.69 Q522.56 1475.88 516.912 1481.64 Z" fill="#000000" fill-rule="nonzero" fill-opacity="1" /><path clip-path="url(#clip390)" d="M555.893 1455.09 L544.088 1473.54 L555.893 1473.54 L555.893 1455.09 M554.666 1451.02 L560.546 1451.02 L560.546 1473.54 L565.477 1473.54 L565.477 1477.43 L560.546 1477.43 L560.546 1485.58 L555.893 1485.58 L555.893 1477.43 L540.292 1477.43 L540.292 1472.92 L554.666 1451.02 Z" fill="#000000" fill-rule="nonzero" fill-opacity="1" /><path clip-path="url(#clip390)" d="M573.208 1479.7 L578.092 1479.7 L578.092 1485.58 L573.208 1485.58 L573.208 1479.7 Z" fill="#000000" fill-rule="nonzero" fill-opacity="1" /><path clip-path="url(#clip390)" d="M598.856 1466.44 Q595.708 1466.44 593.856 1468.59 Q592.027 1470.74 592.027 1474.49 Q592.027 1478.22 593.856 1480.39 Q595.708 1482.55 598.856 1482.55 Q602.004 1482.55 603.833 1480.39 Q605.685 1478.22 605.685 1474.49 Q605.685 1470.74 603.833 1468.59 Q602.004 1466.44 598.856 1466.44 M608.138 1451.78 L608.138 1456.04 Q606.379 1455.21 604.574 1454.77 Q602.791 1454.33 601.032 1454.33 Q596.402 1454.33 593.949 1457.45 Q591.518 1460.58 591.171 1466.9 Q592.537 1464.89 594.597 1463.82 Q596.657 1462.73 599.134 1462.73 Q604.342 1462.73 607.351 1465.9 Q610.384 1469.05 610.384 1474.49 Q610.384 1479.82 607.236 1483.03 Q604.087 1486.25 598.856 1486.25 Q592.861 1486.25 589.689 1481.67 Q586.518 1477.06 586.518 1468.33 Q586.518 1460.14 590.407 1455.28 Q594.296 1450.39 600.847 1450.39 Q602.606 1450.39 604.388 1450.74 Q606.194 1451.09 608.138 1451.78 Z" fill="#000000" fill-rule="nonzero" fill-opacity="1" /><path clip-path="url(#clip390)" d="M902.399 1481.64 L918.718 1481.64 L918.718 1485.58 L896.774 1485.58 L896.774 1481.64 Q899.436 1478.89 904.019 1474.26 Q908.625 1469.61 909.806 1468.27 Q912.051 1465.74 912.931 1464.01 Q913.834 1462.25 913.834 1460.56 Q913.834 1457.8 911.889 1456.07 Q909.968 1454.33 906.866 1454.33 Q904.667 1454.33 902.213 1455.09 Q899.783 1455.86 897.005 1457.41 L897.005 1452.69 Q899.829 1451.55 902.283 1450.97 Q904.737 1450.39 906.774 1450.39 Q912.144 1450.39 915.338 1453.08 Q918.533 1455.77 918.533 1460.26 Q918.533 1462.39 917.723 1464.31 Q916.936 1466.2 914.829 1468.8 Q914.25 1469.47 911.149 1472.69 Q908.047 1475.88 902.399 1481.64 Z" fill="#000000" fill-rule="nonzero" fill-opacity="1" /><path clip-path="url(#clip390)" d="M941.38 1455.09 L929.574 1473.54 L941.38 1473.54 L941.38 1455.09 M940.153 1451.02 L946.033 1451.02 L946.033 1473.54 L950.963 1473.54 L950.963 1477.43 L946.033 1477.43 L946.033 1485.58 L941.38 1485.58 L941.38 1477.43 L925.778 1477.43 L925.778 1472.92 L940.153 1451.02 Z" fill="#000000" fill-rule="nonzero" fill-opacity="1" /><path clip-path="url(#clip390)" d="M958.695 1479.7 L963.579 1479.7 L963.579 1485.58 L958.695 1485.58 L958.695 1479.7 Z" fill="#000000" fill-rule="nonzero" fill-opacity="1" /><path clip-path="url(#clip390)" d="M983.764 1469.17 Q980.431 1469.17 978.509 1470.95 Q976.611 1472.73 976.611 1475.86 Q976.611 1478.98 978.509 1480.77 Q980.431 1482.55 983.764 1482.55 Q987.097 1482.55 989.018 1480.77 Q990.94 1478.96 990.94 1475.86 Q990.94 1472.73 989.018 1470.95 Q987.12 1469.17 983.764 1469.17 M979.088 1467.18 Q976.079 1466.44 974.389 1464.38 Q972.722 1462.32 972.722 1459.35 Q972.722 1455.21 975.662 1452.8 Q978.625 1450.39 983.764 1450.39 Q988.926 1450.39 991.866 1452.8 Q994.806 1455.21 994.806 1459.35 Q994.806 1462.32 993.116 1464.38 Q991.449 1466.44 988.463 1467.18 Q991.843 1467.96 993.718 1470.26 Q995.616 1472.55 995.616 1475.86 Q995.616 1480.88 992.537 1483.57 Q989.481 1486.25 983.764 1486.25 Q978.046 1486.25 974.968 1483.57 Q971.912 1480.88 971.912 1475.86 Q971.912 1472.55 973.81 1470.26 Q975.708 1467.96 979.088 1467.18 M977.375 1459.79 Q977.375 1462.48 979.042 1463.98 Q980.732 1465.49 983.764 1465.49 Q986.773 1465.49 988.463 1463.98 Q990.176 1462.48 990.176 1459.79 Q990.176 1457.11 988.463 1455.6 Q986.773 1454.1 983.764 1454.1 Q980.732 1454.1 979.042 1455.6 Q977.375 1457.11 977.375 1459.79 Z" fill="#000000" fill-rule="nonzero" fill-opacity="1" /><path clip-path="url(#clip390)" d="M1287.71 1481.64 L1304.03 1481.64 L1304.03 1485.58 L1282.09 1485.58 L1282.09 1481.64 Q1284.75 1478.89 1289.33 1474.26 Q1293.94 1469.61 1295.12 1468.27 Q1297.36 1465.74 1298.24 1464.01 Q1299.15 1462.25 1299.15 1460.56 Q1299.15 1457.8 1297.2 1456.07 Q1295.28 1454.33 1292.18 1454.33 Q1289.98 1454.33 1287.53 1455.09 Q1285.1 1455.86 1282.32 1457.41 L1282.32 1452.69 Q1285.14 1451.55 1287.6 1450.97 Q1290.05 1450.39 1292.09 1450.39 Q1297.46 1450.39 1300.65 1453.08 Q1303.85 1455.77 1303.85 1460.26 Q1303.85 1462.39 1303.04 1464.31 Q1302.25 1466.2 1300.14 1468.8 Q1299.56 1469.47 1296.46 1472.69 Q1293.36 1475.88 1287.71 1481.64 Z" fill="#000000" fill-rule="nonzero" fill-opacity="1" /><path clip-path="url(#clip390)" d="M1313.89 1451.02 L1332.25 1451.02 L1332.25 1454.96 L1318.17 1454.96 L1318.17 1463.43 Q1319.19 1463.08 1320.21 1462.92 Q1321.23 1462.73 1322.25 1462.73 Q1328.04 1462.73 1331.42 1465.9 Q1334.79 1469.08 1334.79 1474.49 Q1334.79 1480.07 1331.32 1483.17 Q1327.85 1486.25 1321.53 1486.25 Q1319.35 1486.25 1317.09 1485.88 Q1314.84 1485.51 1312.43 1484.77 L1312.43 1480.07 Q1314.52 1481.2 1316.74 1481.76 Q1318.96 1482.32 1321.44 1482.32 Q1325.44 1482.32 1327.78 1480.21 Q1330.12 1478.1 1330.12 1474.49 Q1330.12 1470.88 1327.78 1468.77 Q1325.44 1466.67 1321.44 1466.67 Q1319.56 1466.67 1317.69 1467.08 Q1315.84 1467.5 1313.89 1468.38 L1313.89 1451.02 Z" fill="#000000" fill-rule="nonzero" fill-opacity="1" /><path clip-path="url(#clip390)" d="M1344.01 1479.7 L1348.89 1479.7 L1348.89 1485.58 L1344.01 1485.58 L1344.01 1479.7 Z" fill="#000000" fill-rule="nonzero" fill-opacity="1" /><path clip-path="url(#clip390)" d="M1369.08 1454.1 Q1365.47 1454.1 1363.64 1457.66 Q1361.83 1461.2 1361.83 1468.33 Q1361.83 1475.44 1363.64 1479.01 Q1365.47 1482.55 1369.08 1482.55 Q1372.71 1482.55 1374.52 1479.01 Q1376.35 1475.44 1376.35 1468.33 Q1376.35 1461.2 1374.52 1457.66 Q1372.71 1454.1 1369.08 1454.1 M1369.08 1450.39 Q1374.89 1450.39 1377.94 1455 Q1381.02 1459.58 1381.02 1468.33 Q1381.02 1477.06 1377.94 1481.67 Q1374.89 1486.25 1369.08 1486.25 Q1363.27 1486.25 1360.19 1481.67 Q1357.13 1477.06 1357.13 1468.33 Q1357.13 1459.58 1360.19 1455 Q1363.27 1450.39 1369.08 1450.39 Z" fill="#000000" fill-rule="nonzero" fill-opacity="1" /><path clip-path="url(#clip390)" d="M1673.87 1481.64 L1690.19 1481.64 L1690.19 1485.58 L1668.24 1485.58 L1668.24 1481.64 Q1670.91 1478.89 1675.49 1474.26 Q1680.1 1469.61 1681.28 1468.27 Q1683.52 1465.74 1684.4 1464.01 Q1685.3 1462.25 1685.3 1460.56 Q1685.3 1457.8 1683.36 1456.07 Q1681.44 1454.33 1678.34 1454.33 Q1676.14 1454.33 1673.68 1455.09 Q1671.25 1455.86 1668.48 1457.41 L1668.48 1452.69 Q1671.3 1451.55 1673.75 1450.97 Q1676.21 1450.39 1678.24 1450.39 Q1683.61 1450.39 1686.81 1453.08 Q1690 1455.77 1690 1460.26 Q1690 1462.39 1689.19 1464.31 Q1688.41 1466.2 1686.3 1468.8 Q1685.72 1469.47 1682.62 1472.69 Q1679.52 1475.88 1673.87 1481.64 Z" fill="#000000" fill-rule="nonzero" fill-opacity="1" /><path clip-path="url(#clip390)" d="M1700.05 1451.02 L1718.41 1451.02 L1718.41 1454.96 L1704.33 1454.96 L1704.33 1463.43 Q1705.35 1463.08 1706.37 1462.92 Q1707.39 1462.73 1708.41 1462.73 Q1714.19 1462.73 1717.57 1465.9 Q1720.95 1469.08 1720.95 1474.49 Q1720.95 1480.07 1717.48 1483.17 Q1714.01 1486.25 1707.69 1486.25 Q1705.51 1486.25 1703.24 1485.88 Q1701 1485.51 1698.59 1484.77 L1698.59 1480.07 Q1700.67 1481.2 1702.9 1481.76 Q1705.12 1482.32 1707.6 1482.32 Q1711.6 1482.32 1713.94 1480.21 Q1716.28 1478.1 1716.28 1474.49 Q1716.28 1470.88 1713.94 1468.77 Q1711.6 1466.67 1707.6 1466.67 Q1705.72 1466.67 1703.85 1467.08 Q1701.99 1467.5 1700.05 1468.38 L1700.05 1451.02 Z" fill="#000000" fill-rule="nonzero" fill-opacity="1" /><path clip-path="url(#clip390)" d="M1730.17 1479.7 L1735.05 1479.7 L1735.05 1485.58 L1730.17 1485.58 L1730.17 1479.7 Z" fill="#000000" fill-rule="nonzero" fill-opacity="1" /><path clip-path="url(#clip390)" d="M1749.26 1481.64 L1765.58 1481.64 L1765.58 1485.58 L1743.64 1485.58 L1743.64 1481.64 Q1746.3 1478.89 1750.88 1474.26 Q1755.49 1469.61 1756.67 1468.27 Q1758.92 1465.74 1759.79 1464.01 Q1760.7 1462.25 1760.7 1460.56 Q1760.7 1457.8 1758.75 1456.07 Q1756.83 1454.33 1753.73 1454.33 Q1751.53 1454.33 1749.08 1455.09 Q1746.65 1455.86 1743.87 1457.41 L1743.87 1452.69 Q1746.69 1451.55 1749.15 1450.97 Q1751.6 1450.39 1753.64 1450.39 Q1759.01 1450.39 1762.2 1453.08 Q1765.4 1455.77 1765.4 1460.26 Q1765.4 1462.39 1764.59 1464.31 Q1763.8 1466.2 1761.69 1468.8 Q1761.11 1469.47 1758.01 1472.69 Q1754.91 1475.88 1749.26 1481.64 Z" fill="#000000" fill-rule="nonzero" fill-opacity="1" /><path clip-path="url(#clip390)" d="M2058.19 1481.64 L2074.51 1481.64 L2074.51 1485.58 L2052.56 1485.58 L2052.56 1481.64 Q2055.22 1478.89 2059.81 1474.26 Q2064.41 1469.61 2065.59 1468.27 Q2067.84 1465.74 2068.72 1464.01 Q2069.62 1462.25 2069.62 1460.56 Q2069.62 1457.8 2067.68 1456.07 Q2065.76 1454.33 2062.65 1454.33 Q2060.46 1454.33 2058 1455.09 Q2055.57 1455.86 2052.79 1457.41 L2052.79 1452.69 Q2055.62 1451.55 2058.07 1450.97 Q2060.52 1450.39 2062.56 1450.39 Q2067.93 1450.39 2071.13 1453.08 Q2074.32 1455.77 2074.32 1460.26 Q2074.32 1462.39 2073.51 1464.31 Q2072.72 1466.2 2070.62 1468.8 Q2070.04 1469.47 2066.94 1472.69 Q2063.84 1475.88 2058.19 1481.64 Z" fill="#000000" fill-rule="nonzero" fill-opacity="1" /><path clip-path="url(#clip390)" d="M2084.37 1451.02 L2102.72 1451.02 L2102.72 1454.96 L2088.65 1454.96 L2088.65 1463.43 Q2089.67 1463.08 2090.69 1462.92 Q2091.71 1462.73 2092.72 1462.73 Q2098.51 1462.73 2101.89 1465.9 Q2105.27 1469.08 2105.27 1474.49 Q2105.27 1480.07 2101.8 1483.17 Q2098.33 1486.25 2092.01 1486.25 Q2089.83 1486.25 2087.56 1485.88 Q2085.32 1485.51 2082.91 1484.77 L2082.91 1480.07 Q2084.99 1481.2 2087.21 1481.76 Q2089.44 1482.32 2091.91 1482.32 Q2095.92 1482.32 2098.26 1480.21 Q2100.59 1478.1 2100.59 1474.49 Q2100.59 1470.88 2098.26 1468.77 Q2095.92 1466.67 2091.91 1466.67 Q2090.04 1466.67 2088.16 1467.08 Q2086.31 1467.5 2084.37 1468.38 L2084.37 1451.02 Z" fill="#000000" fill-rule="nonzero" fill-opacity="1" /><path clip-path="url(#clip390)" d="M2114.48 1479.7 L2119.37 1479.7 L2119.37 1485.58 L2114.48 1485.58 L2114.48 1479.7 Z" fill="#000000" fill-rule="nonzero" fill-opacity="1" /><path clip-path="url(#clip390)" d="M2142.4 1455.09 L2130.59 1473.54 L2142.4 1473.54 L2142.4 1455.09 M2141.17 1451.02 L2147.05 1451.02 L2147.05 1473.54 L2151.98 1473.54 L2151.98 1477.43 L2147.05 1477.43 L2147.05 1485.58 L2142.4 1485.58 L2142.4 1477.43 L2126.8 1477.43 L2126.8 1472.92 L2141.17 1451.02 Z" fill="#000000" fill-rule="nonzero" fill-opacity="1" /><path clip-path="url(#clip390)" d="M1039.72 1520.52 L1067.03 1520.52 L1067.03 1525.93 L1046.15 1525.93 L1046.15 1539.94 L1064.99 1539.94 L1064.99 1545.35 L1046.15 1545.35 L1046.15 1568.04 L1039.72 1568.04 L1039.72 1520.52 Z" fill="#000000" fill-rule="nonzero" fill-opacity="1" /><path clip-path="url(#clip390)" d="M1092.87 1537.87 Q1091.89 1537.3 1090.71 1537.04 Q1089.56 1536.76 1088.16 1536.76 Q1083.2 1536.76 1080.52 1540 Q1077.88 1543.22 1077.88 1549.27 L1077.88 1568.04 L1071.99 1568.04 L1071.99 1532.4 L1077.88 1532.4 L1077.88 1537.93 Q1079.73 1534.69 1082.69 1533.13 Q1085.65 1531.54 1089.88 1531.54 Q1090.48 1531.54 1091.22 1531.63 Q1091.95 1531.7 1092.84 1531.85 L1092.87 1537.87 Z" fill="#000000" fill-rule="nonzero" fill-opacity="1" /><path clip-path="url(#clip390)" d="M1128.07 1548.76 L1128.07 1551.62 L1101.15 1551.62 Q1101.53 1557.67 1104.78 1560.85 Q1108.05 1564 1113.88 1564 Q1117.25 1564 1120.4 1563.17 Q1123.59 1562.35 1126.71 1560.69 L1126.71 1566.23 Q1123.55 1567.57 1120.24 1568.27 Q1116.93 1568.97 1113.53 1568.97 Q1105 1568.97 1100 1564 Q1095.04 1559.04 1095.04 1550.57 Q1095.04 1541.82 1099.75 1536.69 Q1104.49 1531.54 1112.51 1531.54 Q1119.7 1531.54 1123.87 1536.18 Q1128.07 1540.8 1128.07 1548.76 M1122.22 1547.04 Q1122.15 1542.23 1119.51 1539.37 Q1116.9 1536.5 1112.57 1536.5 Q1107.67 1536.5 1104.71 1539.27 Q1101.78 1542.04 1101.34 1547.07 L1122.22 1547.04 Z" fill="#000000" fill-rule="nonzero" fill-opacity="1" /><path clip-path="url(#clip390)" d="M1141.19 1550.25 Q1141.19 1556.71 1143.83 1560.4 Q1146.5 1564.07 1151.15 1564.07 Q1155.8 1564.07 1158.47 1560.4 Q1161.14 1556.71 1161.14 1550.25 Q1161.14 1543.79 1158.47 1540.13 Q1155.8 1536.44 1151.15 1536.44 Q1146.5 1536.44 1143.83 1540.13 Q1141.19 1543.79 1141.19 1550.25 M1161.14 1562.7 Q1159.3 1565.88 1156.47 1567.44 Q1153.66 1568.97 1149.72 1568.97 Q1143.26 1568.97 1139.18 1563.81 Q1135.14 1558.65 1135.14 1550.25 Q1135.14 1541.85 1139.18 1536.69 Q1143.26 1531.54 1149.72 1531.54 Q1153.66 1531.54 1156.47 1533.1 Q1159.3 1534.62 1161.14 1537.81 L1161.14 1532.4 L1167 1532.4 L1167 1581.6 L1161.14 1581.6 L1161.14 1562.7 Z" fill="#000000" fill-rule="nonzero" fill-opacity="1" /><path clip-path="url(#clip390)" d="M1178.46 1553.98 L1178.46 1532.4 L1184.32 1532.4 L1184.32 1553.75 Q1184.32 1558.81 1186.29 1561.36 Q1188.26 1563.87 1192.21 1563.87 Q1196.95 1563.87 1199.69 1560.85 Q1202.46 1557.83 1202.46 1552.61 L1202.46 1532.4 L1208.31 1532.4 L1208.31 1568.04 L1202.46 1568.04 L1202.46 1562.57 Q1200.32 1565.82 1197.49 1567.41 Q1194.69 1568.97 1190.97 1568.97 Q1184.82 1568.97 1181.64 1565.15 Q1178.46 1561.33 1178.46 1553.98 M1193.2 1531.54 L1193.2 1531.54 Z" fill="#000000" fill-rule="nonzero" fill-opacity="1" /><path clip-path="url(#clip390)" d="M1250.87 1548.76 L1250.87 1551.62 L1223.94 1551.62 Q1224.32 1557.67 1227.57 1560.85 Q1230.85 1564 1236.67 1564 Q1240.05 1564 1243.2 1563.17 Q1246.38 1562.35 1249.5 1560.69 L1249.5 1566.23 Q1246.35 1567.57 1243.04 1568.27 Q1239.73 1568.97 1236.32 1568.97 Q1227.79 1568.97 1222.8 1564 Q1217.83 1559.04 1217.83 1550.57 Q1217.83 1541.82 1222.54 1536.69 Q1227.28 1531.54 1235.3 1531.54 Q1242.5 1531.54 1246.67 1536.18 Q1250.87 1540.8 1250.87 1548.76 M1245.01 1547.04 Q1244.95 1542.23 1242.31 1539.37 Q1239.7 1536.5 1235.37 1536.5 Q1230.47 1536.5 1227.51 1539.27 Q1224.58 1542.04 1224.13 1547.07 L1245.01 1547.04 Z" fill="#000000" fill-rule="nonzero" fill-opacity="1" /><path clip-path="url(#clip390)" d="M1290.11 1546.53 L1290.11 1568.04 L1284.26 1568.04 L1284.26 1546.72 Q1284.26 1541.66 1282.28 1539.14 Q1280.31 1536.63 1276.36 1536.63 Q1271.62 1536.63 1268.88 1539.65 Q1266.15 1542.68 1266.15 1547.9 L1266.15 1568.04 L1260.26 1568.04 L1260.26 1532.4 L1266.15 1532.4 L1266.15 1537.93 Q1268.25 1534.72 1271.08 1533.13 Q1273.94 1531.54 1277.67 1531.54 Q1283.81 1531.54 1286.96 1535.36 Q1290.11 1539.14 1290.11 1546.53 Z" fill="#000000" fill-rule="nonzero" fill-opacity="1" /><path clip-path="url(#clip390)" d="M1327.45 1533.76 L1327.45 1539.24 Q1324.97 1537.87 1322.45 1537.2 Q1319.97 1536.5 1317.42 1536.5 Q1311.72 1536.5 1308.57 1540.13 Q1305.42 1543.73 1305.42 1550.25 Q1305.42 1556.78 1308.57 1560.4 Q1311.72 1564 1317.42 1564 Q1319.97 1564 1322.45 1563.33 Q1324.97 1562.63 1327.45 1561.26 L1327.45 1566.68 Q1325 1567.82 1322.36 1568.39 Q1319.75 1568.97 1316.79 1568.97 Q1308.73 1568.97 1303.99 1563.91 Q1299.25 1558.85 1299.25 1550.25 Q1299.25 1541.53 1304.02 1536.53 Q1308.83 1531.54 1317.17 1531.54 Q1319.87 1531.54 1322.45 1532.11 Q1325.03 1532.65 1327.45 1533.76 Z" fill="#000000" fill-rule="nonzero" fill-opacity="1" /><path clip-path="url(#clip390)" d="M1337.63 1532.4 L1343.49 1532.4 L1343.49 1568.04 L1337.63 1568.04 L1337.63 1532.4 M1337.63 1518.52 L1343.49 1518.52 L1343.49 1525.93 L1337.63 1525.93 L1337.63 1518.52 Z" fill="#000000" fill-rule="nonzero" fill-opacity="1" /><path clip-path="url(#clip390)" d="M1386.24 1548.76 L1386.24 1551.62 L1359.31 1551.62 Q1359.69 1557.67 1362.94 1560.85 Q1366.22 1564 1372.04 1564 Q1375.41 1564 1378.56 1563.17 Q1381.75 1562.35 1384.87 1560.69 L1384.87 1566.23 Q1381.72 1567.57 1378.41 1568.27 Q1375.1 1568.97 1371.69 1568.97 Q1363.16 1568.97 1358.16 1564 Q1353.2 1559.04 1353.2 1550.57 Q1353.2 1541.82 1357.91 1536.69 Q1362.65 1531.54 1370.67 1531.54 Q1377.86 1531.54 1382.03 1536.18 Q1386.24 1540.8 1386.24 1548.76 M1380.38 1547.04 Q1380.32 1542.23 1377.67 1539.37 Q1375.06 1536.5 1370.73 1536.5 Q1365.83 1536.5 1362.87 1539.27 Q1359.94 1542.04 1359.5 1547.07 L1380.38 1547.04 Z" fill="#000000" fill-rule="nonzero" fill-opacity="1" /><path clip-path="url(#clip390)" d="M1418.57 1533.45 L1418.57 1538.98 Q1416.09 1537.71 1413.42 1537.07 Q1410.74 1536.44 1407.88 1536.44 Q1403.52 1536.44 1401.32 1537.77 Q1399.16 1539.11 1399.16 1541.79 Q1399.16 1543.82 1400.72 1545 Q1402.28 1546.15 1406.99 1547.2 L1408.99 1547.64 Q1415.23 1548.98 1417.84 1551.43 Q1420.48 1553.85 1420.48 1558.21 Q1420.48 1563.17 1416.54 1566.07 Q1412.62 1568.97 1405.75 1568.97 Q1402.88 1568.97 1399.76 1568.39 Q1396.68 1567.85 1393.24 1566.74 L1393.24 1560.69 Q1396.48 1562.38 1399.64 1563.24 Q1402.79 1564.07 1405.87 1564.07 Q1410.01 1564.07 1412.24 1562.66 Q1414.47 1561.23 1414.47 1558.65 Q1414.47 1556.27 1412.84 1554.99 Q1411.25 1553.72 1405.81 1552.54 L1403.77 1552.07 Q1398.33 1550.92 1395.91 1548.56 Q1393.49 1546.18 1393.49 1542.04 Q1393.49 1537.01 1397.06 1534.27 Q1400.62 1531.54 1407.18 1531.54 Q1410.43 1531.54 1413.29 1532.01 Q1416.15 1532.49 1418.57 1533.45 Z" fill="#000000" fill-rule="nonzero" fill-opacity="1" /><path clip-path="url(#clip390)" d="M1449.99 1518.52 L1463.48 1518.52 L1463.48 1523.07 L1455.84 1523.07 L1455.84 1572.09 L1463.48 1572.09 L1463.48 1576.64 L1449.99 1576.64 L1449.99 1518.52 Z" fill="#000000" fill-rule="nonzero" fill-opacity="1" /><path clip-path="url(#clip390)" d="M1508.62 1561.26 L1508.62 1548.5 L1498.11 1548.5 L1498.11 1543.22 L1514.98 1543.22 L1514.98 1563.62 Q1511.26 1566.26 1506.77 1567.63 Q1502.28 1568.97 1497.19 1568.97 Q1486.05 1568.97 1479.75 1562.47 Q1473.48 1555.95 1473.48 1544.33 Q1473.48 1532.68 1479.75 1526.19 Q1486.05 1519.66 1497.19 1519.66 Q1501.84 1519.66 1506.01 1520.81 Q1510.21 1521.96 1513.74 1524.18 L1513.74 1531.03 Q1510.18 1528 1506.17 1526.48 Q1502.15 1524.95 1497.73 1524.95 Q1489.01 1524.95 1484.62 1529.82 Q1480.26 1534.69 1480.26 1544.33 Q1480.26 1553.94 1484.62 1558.81 Q1489.01 1563.68 1497.73 1563.68 Q1501.14 1563.68 1503.81 1563.11 Q1506.48 1562.51 1508.62 1561.26 Z" fill="#000000" fill-rule="nonzero" fill-opacity="1" /><path clip-path="url(#clip390)" d="M1526.73 1520.52 L1533.16 1520.52 L1533.16 1540 L1556.52 1540 L1556.52 1520.52 L1562.95 1520.52 L1562.95 1568.04 L1556.52 1568.04 L1556.52 1545.41 L1533.16 1545.41 L1533.16 1568.04 L1526.73 1568.04 L1526.73 1520.52 Z" fill="#000000" fill-rule="nonzero" fill-opacity="1" /><path clip-path="url(#clip390)" d="M1572.94 1532.4 L1600.76 1532.4 L1600.76 1537.74 L1578.73 1563.37 L1600.76 1563.37 L1600.76 1568.04 L1572.15 1568.04 L1572.15 1562.7 L1594.17 1537.07 L1572.94 1537.07 L1572.94 1532.4 Z" fill="#000000" fill-rule="nonzero" fill-opacity="1" /><path clip-path="url(#clip390)" d="M1623.39 1518.52 L1623.39 1576.64 L1609.89 1576.64 L1609.89 1572.09 L1617.5 1572.09 L1617.5 1523.07 L1609.89 1523.07 L1609.89 1518.52 L1623.39 1518.52 Z" fill="#000000" fill-rule="nonzero" fill-opacity="1" /><polyline clip-path="url(#clip390)" style="stroke:#000000; stroke-linecap:round; stroke-linejoin:round; stroke-width:4; stroke-opacity:1; fill:none" points="310.352,1423.18 310.352,47.2441 "/>
<polyline clip-path="url(#clip390)" style="stroke:#000000; stroke-linecap:round; stroke-linejoin:round; stroke-width:4; stroke-opacity:1; fill:none" points="310.352,1419.73 329.25,1419.73 "/>
<polyline clip-path="url(#clip390)" style="stroke:#000000; stroke-linecap:round; stroke-linejoin:round; stroke-width:4; stroke-opacity:1; fill:none" points="310.352,1138.6 329.25,1138.6 "/>
<polyline clip-path="url(#clip390)" style="stroke:#000000; stroke-linecap:round; stroke-linejoin:round; stroke-width:4; stroke-opacity:1; fill:none" points="310.352,857.47 329.25,857.47 "/>
<polyline clip-path="url(#clip390)" style="stroke:#000000; stroke-linecap:round; stroke-linejoin:round; stroke-width:4; stroke-opacity:1; fill:none" points="310.352,576.341 329.25,576.341 "/>
<polyline clip-path="url(#clip390)" style="stroke:#000000; stroke-linecap:round; stroke-linejoin:round; stroke-width:4; stroke-opacity:1; fill:none" points="310.352,295.211 329.25,295.211 "/>
<path clip-path="url(#clip390)" d="M126.783 1405.53 Q123.172 1405.53 121.343 1409.09 Q119.538 1412.63 119.538 1419.76 Q119.538 1426.87 121.343 1430.44 Q123.172 1433.98 126.783 1433.98 Q130.417 1433.98 132.223 1430.44 Q134.052 1426.87 134.052 1419.76 Q134.052 1412.63 132.223 1409.09 Q130.417 1405.53 126.783 1405.53 M126.783 1401.82 Q132.593 1401.82 135.649 1406.43 Q138.728 1411.01 138.728 1419.76 Q138.728 1428.49 135.649 1433.1 Q132.593 1437.68 126.783 1437.68 Q120.973 1437.68 117.894 1433.1 Q114.839 1428.49 114.839 1419.76 Q114.839 1411.01 117.894 1406.43 Q120.973 1401.82 126.783 1401.82 Z" fill="#000000" fill-rule="nonzero" fill-opacity="1" /><path clip-path="url(#clip390)" d="M146.945 1431.13 L151.829 1431.13 L151.829 1437.01 L146.945 1437.01 L146.945 1431.13 Z" fill="#000000" fill-rule="nonzero" fill-opacity="1" /><path clip-path="url(#clip390)" d="M162.153 1436.29 L162.153 1432.03 Q163.913 1432.87 165.718 1433.31 Q167.524 1433.75 169.26 1433.75 Q173.889 1433.75 176.32 1430.64 Q178.774 1427.52 179.121 1421.18 Q177.778 1423.17 175.718 1424.23 Q173.658 1425.3 171.158 1425.3 Q165.973 1425.3 162.94 1422.17 Q159.931 1419.02 159.931 1413.58 Q159.931 1408.26 163.079 1405.04 Q166.227 1401.82 171.459 1401.82 Q177.454 1401.82 180.602 1406.43 Q183.774 1411.01 183.774 1419.76 Q183.774 1427.94 179.885 1432.82 Q176.019 1437.68 169.468 1437.68 Q167.709 1437.68 165.903 1437.33 Q164.098 1436.99 162.153 1436.29 M171.459 1421.64 Q174.607 1421.64 176.436 1419.49 Q178.288 1417.33 178.288 1413.58 Q178.288 1409.86 176.436 1407.7 Q174.607 1405.53 171.459 1405.53 Q168.311 1405.53 166.459 1407.7 Q164.63 1409.86 164.63 1413.58 Q164.63 1417.33 166.459 1419.49 Q168.311 1421.64 171.459 1421.64 Z" fill="#000000" fill-rule="nonzero" fill-opacity="1" /><path clip-path="url(#clip390)" d="M192.315 1436.29 L192.315 1432.03 Q194.075 1432.87 195.88 1433.31 Q197.686 1433.75 199.422 1433.75 Q204.051 1433.75 206.482 1430.64 Q208.936 1427.52 209.283 1421.18 Q207.94 1423.17 205.88 1424.23 Q203.82 1425.3 201.32 1425.3 Q196.135 1425.3 193.102 1422.17 Q190.093 1419.02 190.093 1413.58 Q190.093 1408.26 193.241 1405.04 Q196.389 1401.82 201.621 1401.82 Q207.616 1401.82 210.764 1406.43 Q213.936 1411.01 213.936 1419.76 Q213.936 1427.94 210.047 1432.82 Q206.181 1437.68 199.63 1437.68 Q197.871 1437.68 196.065 1437.33 Q194.26 1436.99 192.315 1436.29 M201.621 1421.64 Q204.769 1421.64 206.598 1419.49 Q208.449 1417.33 208.449 1413.58 Q208.449 1409.86 206.598 1407.7 Q204.769 1405.53 201.621 1405.53 Q198.473 1405.53 196.621 1407.7 Q194.792 1409.86 194.792 1413.58 Q194.792 1417.33 196.621 1419.49 Q198.473 1421.64 201.621 1421.64 Z" fill="#000000" fill-rule="nonzero" fill-opacity="1" /><path clip-path="url(#clip390)" d="M232.338 1420.6 Q229.005 1420.6 227.084 1422.38 Q225.185 1424.16 225.185 1427.29 Q225.185 1430.41 227.084 1432.19 Q229.005 1433.98 232.338 1433.98 Q235.672 1433.98 237.593 1432.19 Q239.514 1430.39 239.514 1427.29 Q239.514 1424.16 237.593 1422.38 Q235.695 1420.6 232.338 1420.6 M227.662 1418.61 Q224.653 1417.87 222.963 1415.81 Q221.297 1413.75 221.297 1410.78 Q221.297 1406.64 224.236 1404.23 Q227.199 1401.82 232.338 1401.82 Q237.5 1401.82 240.44 1404.23 Q243.38 1406.64 243.38 1410.78 Q243.38 1413.75 241.69 1415.81 Q240.023 1417.87 237.037 1418.61 Q240.417 1419.39 242.292 1421.69 Q244.19 1423.98 244.19 1427.29 Q244.19 1432.31 241.111 1435 Q238.056 1437.68 232.338 1437.68 Q226.621 1437.68 223.542 1435 Q220.486 1432.31 220.486 1427.29 Q220.486 1423.98 222.385 1421.69 Q224.283 1419.39 227.662 1418.61 M225.949 1411.22 Q225.949 1413.91 227.616 1415.41 Q229.306 1416.92 232.338 1416.92 Q235.347 1416.92 237.037 1415.41 Q238.75 1413.91 238.75 1411.22 Q238.75 1408.54 237.037 1407.03 Q235.347 1405.53 232.338 1405.53 Q229.306 1405.53 227.616 1407.03 Q225.949 1408.54 225.949 1411.22 Z" fill="#000000" fill-rule="nonzero" fill-opacity="1" /><path clip-path="url(#clip390)" d="M262.5 1420.6 Q259.167 1420.6 257.246 1422.38 Q255.347 1424.16 255.347 1427.29 Q255.347 1430.41 257.246 1432.19 Q259.167 1433.98 262.5 1433.98 Q265.833 1433.98 267.755 1432.19 Q269.676 1430.39 269.676 1427.29 Q269.676 1424.16 267.755 1422.38 Q265.857 1420.6 262.5 1420.6 M257.824 1418.61 Q254.815 1417.87 253.125 1415.81 Q251.458 1413.75 251.458 1410.78 Q251.458 1406.64 254.398 1404.23 Q257.361 1401.82 262.5 1401.82 Q267.662 1401.82 270.602 1404.23 Q273.542 1406.64 273.542 1410.78 Q273.542 1413.75 271.852 1415.81 Q270.185 1417.87 267.199 1418.61 Q270.579 1419.39 272.454 1421.69 Q274.352 1423.98 274.352 1427.29 Q274.352 1432.31 271.273 1435 Q268.218 1437.68 262.5 1437.68 Q256.783 1437.68 253.704 1435 Q250.648 1432.31 250.648 1427.29 Q250.648 1423.98 252.546 1421.69 Q254.445 1419.39 257.824 1418.61 M256.111 1411.22 Q256.111 1413.91 257.778 1415.41 Q259.468 1416.92 262.5 1416.92 Q265.509 1416.92 267.199 1415.41 Q268.912 1413.91 268.912 1411.22 Q268.912 1408.54 267.199 1407.03 Q265.509 1405.53 262.5 1405.53 Q259.468 1405.53 257.778 1407.03 Q256.111 1408.54 256.111 1411.22 Z" fill="#000000" fill-rule="nonzero" fill-opacity="1" /><path clip-path="url(#clip390)" d="M126.691 1124.4 Q123.08 1124.4 121.251 1127.96 Q119.445 1131.5 119.445 1138.63 Q119.445 1145.74 121.251 1149.31 Q123.08 1152.85 126.691 1152.85 Q130.325 1152.85 132.13 1149.31 Q133.959 1145.74 133.959 1138.63 Q133.959 1131.5 132.13 1127.96 Q130.325 1124.4 126.691 1124.4 M126.691 1120.69 Q132.501 1120.69 135.556 1125.3 Q138.635 1129.88 138.635 1138.63 Q138.635 1147.36 135.556 1151.97 Q132.501 1156.55 126.691 1156.55 Q120.88 1156.55 117.802 1151.97 Q114.746 1147.36 114.746 1138.63 Q114.746 1129.88 117.802 1125.3 Q120.88 1120.69 126.691 1120.69 Z" fill="#000000" fill-rule="nonzero" fill-opacity="1" /><path clip-path="url(#clip390)" d="M146.853 1150 L151.737 1150 L151.737 1155.88 L146.853 1155.88 L146.853 1150 Z" fill="#000000" fill-rule="nonzero" fill-opacity="1" /><path clip-path="url(#clip390)" d="M162.061 1155.16 L162.061 1150.9 Q163.82 1151.74 165.626 1152.18 Q167.431 1152.62 169.167 1152.62 Q173.797 1152.62 176.227 1149.51 Q178.681 1146.39 179.028 1140.05 Q177.686 1142.04 175.626 1143.1 Q173.565 1144.17 171.065 1144.17 Q165.88 1144.17 162.848 1141.04 Q159.839 1137.89 159.839 1132.45 Q159.839 1127.13 162.987 1123.91 Q166.135 1120.69 171.366 1120.69 Q177.362 1120.69 180.51 1125.3 Q183.681 1129.88 183.681 1138.63 Q183.681 1146.81 179.792 1151.69 Q175.926 1156.55 169.376 1156.55 Q167.616 1156.55 165.811 1156.2 Q164.005 1155.86 162.061 1155.16 M171.366 1140.51 Q174.514 1140.51 176.343 1138.36 Q178.195 1136.2 178.195 1132.45 Q178.195 1128.73 176.343 1126.57 Q174.514 1124.4 171.366 1124.4 Q168.218 1124.4 166.366 1126.57 Q164.538 1128.73 164.538 1132.45 Q164.538 1136.2 166.366 1138.36 Q168.218 1140.51 171.366 1140.51 Z" fill="#000000" fill-rule="nonzero" fill-opacity="1" /><path clip-path="url(#clip390)" d="M192.223 1155.16 L192.223 1150.9 Q193.982 1151.74 195.787 1152.18 Q197.593 1152.62 199.329 1152.62 Q203.959 1152.62 206.389 1149.51 Q208.843 1146.39 209.19 1140.05 Q207.848 1142.04 205.787 1143.1 Q203.727 1144.17 201.227 1144.17 Q196.042 1144.17 193.01 1141.04 Q190 1137.89 190 1132.45 Q190 1127.13 193.149 1123.91 Q196.297 1120.69 201.528 1120.69 Q207.524 1120.69 210.672 1125.3 Q213.843 1129.88 213.843 1138.63 Q213.843 1146.81 209.954 1151.69 Q206.088 1156.55 199.537 1156.55 Q197.778 1156.55 195.973 1156.2 Q194.167 1155.86 192.223 1155.16 M201.528 1140.51 Q204.676 1140.51 206.505 1138.36 Q208.357 1136.2 208.357 1132.45 Q208.357 1128.73 206.505 1126.57 Q204.676 1124.4 201.528 1124.4 Q198.38 1124.4 196.528 1126.57 Q194.7 1128.73 194.7 1132.45 Q194.7 1136.2 196.528 1138.36 Q198.38 1140.51 201.528 1140.51 Z" fill="#000000" fill-rule="nonzero" fill-opacity="1" /><path clip-path="url(#clip390)" d="M222.385 1155.16 L222.385 1150.9 Q224.144 1151.74 225.949 1152.18 Q227.755 1152.62 229.491 1152.62 Q234.121 1152.62 236.551 1149.51 Q239.005 1146.39 239.352 1140.05 Q238.009 1142.04 235.949 1143.1 Q233.889 1144.17 231.389 1144.17 Q226.204 1144.17 223.172 1141.04 Q220.162 1137.89 220.162 1132.45 Q220.162 1127.13 223.31 1123.91 Q226.459 1120.69 231.69 1120.69 Q237.685 1120.69 240.834 1125.3 Q244.005 1129.88 244.005 1138.63 Q244.005 1146.81 240.116 1151.69 Q236.25 1156.55 229.699 1156.55 Q227.94 1156.55 226.135 1156.2 Q224.329 1155.86 222.385 1155.16 M231.69 1140.51 Q234.838 1140.51 236.667 1138.36 Q238.519 1136.2 238.519 1132.45 Q238.519 1128.73 236.667 1126.57 Q234.838 1124.4 231.69 1124.4 Q228.542 1124.4 226.69 1126.57 Q224.861 1128.73 224.861 1132.45 Q224.861 1136.2 226.69 1138.36 Q228.542 1140.51 231.69 1140.51 Z" fill="#000000" fill-rule="nonzero" fill-opacity="1" /><path clip-path="url(#clip390)" d="M262.408 1124.4 Q258.796 1124.4 256.968 1127.96 Q255.162 1131.5 255.162 1138.63 Q255.162 1145.74 256.968 1149.31 Q258.796 1152.85 262.408 1152.85 Q266.042 1152.85 267.847 1149.31 Q269.676 1145.74 269.676 1138.63 Q269.676 1131.5 267.847 1127.96 Q266.042 1124.4 262.408 1124.4 M262.408 1120.69 Q268.218 1120.69 271.273 1125.3 Q274.352 1129.88 274.352 1138.63 Q274.352 1147.36 271.273 1151.97 Q268.218 1156.55 262.408 1156.55 Q256.597 1156.55 253.519 1151.97 Q250.463 1147.36 250.463 1138.63 Q250.463 1129.88 253.519 1125.3 Q256.597 1120.69 262.408 1120.69 Z" fill="#000000" fill-rule="nonzero" fill-opacity="1" /><path clip-path="url(#clip390)" d="M128.288 843.269 Q124.677 843.269 122.848 846.834 Q121.043 850.375 121.043 857.505 Q121.043 864.611 122.848 868.176 Q124.677 871.718 128.288 871.718 Q131.922 871.718 133.728 868.176 Q135.556 864.611 135.556 857.505 Q135.556 850.375 133.728 846.834 Q131.922 843.269 128.288 843.269 M128.288 839.565 Q134.098 839.565 137.154 844.172 Q140.232 848.755 140.232 857.505 Q140.232 866.232 137.154 870.838 Q134.098 875.421 128.288 875.421 Q122.478 875.421 119.399 870.838 Q116.343 866.232 116.343 857.505 Q116.343 848.755 119.399 844.172 Q122.478 839.565 128.288 839.565 Z" fill="#000000" fill-rule="nonzero" fill-opacity="1" /><path clip-path="url(#clip390)" d="M148.45 868.871 L153.334 868.871 L153.334 874.75 L148.45 874.75 L148.45 868.871 Z" fill="#000000" fill-rule="nonzero" fill-opacity="1" /><path clip-path="url(#clip390)" d="M163.658 874.033 L163.658 869.773 Q165.417 870.607 167.223 871.046 Q169.028 871.486 170.764 871.486 Q175.394 871.486 177.825 868.384 Q180.278 865.259 180.626 858.917 Q179.283 860.908 177.223 861.972 Q175.163 863.037 172.663 863.037 Q167.477 863.037 164.445 859.912 Q161.436 856.764 161.436 851.324 Q161.436 846 164.584 842.783 Q167.732 839.565 172.964 839.565 Q178.959 839.565 182.107 844.172 Q185.278 848.755 185.278 857.505 Q185.278 865.676 181.389 870.56 Q177.524 875.421 170.973 875.421 Q169.214 875.421 167.408 875.074 Q165.602 874.727 163.658 874.033 M172.964 859.38 Q176.112 859.38 177.94 857.227 Q179.792 855.074 179.792 851.324 Q179.792 847.598 177.94 845.445 Q176.112 843.269 172.964 843.269 Q169.815 843.269 167.964 845.445 Q166.135 847.598 166.135 851.324 Q166.135 855.074 167.964 857.227 Q169.815 859.38 172.964 859.38 Z" fill="#000000" fill-rule="nonzero" fill-opacity="1" /><path clip-path="url(#clip390)" d="M193.82 874.033 L193.82 869.773 Q195.579 870.607 197.385 871.046 Q199.19 871.486 200.926 871.486 Q205.556 871.486 207.987 868.384 Q210.44 865.259 210.787 858.917 Q209.445 860.908 207.385 861.972 Q205.324 863.037 202.824 863.037 Q197.639 863.037 194.607 859.912 Q191.598 856.764 191.598 851.324 Q191.598 846 194.746 842.783 Q197.894 839.565 203.125 839.565 Q209.121 839.565 212.269 844.172 Q215.44 848.755 215.44 857.505 Q215.44 865.676 211.551 870.56 Q207.686 875.421 201.135 875.421 Q199.375 875.421 197.57 875.074 Q195.764 874.727 193.82 874.033 M203.125 859.38 Q206.274 859.38 208.102 857.227 Q209.954 855.074 209.954 851.324 Q209.954 847.598 208.102 845.445 Q206.274 843.269 203.125 843.269 Q199.977 843.269 198.125 845.445 Q196.297 847.598 196.297 851.324 Q196.297 855.074 198.125 857.227 Q199.977 859.38 203.125 859.38 Z" fill="#000000" fill-rule="nonzero" fill-opacity="1" /><path clip-path="url(#clip390)" d="M223.982 874.033 L223.982 869.773 Q225.741 870.607 227.547 871.046 Q229.352 871.486 231.088 871.486 Q235.718 871.486 238.148 868.384 Q240.602 865.259 240.949 858.917 Q239.607 860.908 237.547 861.972 Q235.486 863.037 232.986 863.037 Q227.801 863.037 224.769 859.912 Q221.76 856.764 221.76 851.324 Q221.76 846 224.908 842.783 Q228.056 839.565 233.287 839.565 Q239.283 839.565 242.431 844.172 Q245.602 848.755 245.602 857.505 Q245.602 865.676 241.713 870.56 Q237.847 875.421 231.297 875.421 Q229.537 875.421 227.732 875.074 Q225.926 874.727 223.982 874.033 M233.287 859.38 Q236.435 859.38 238.264 857.227 Q240.116 855.074 240.116 851.324 Q240.116 847.598 238.264 845.445 Q236.435 843.269 233.287 843.269 Q230.139 843.269 228.287 845.445 Q226.459 847.598 226.459 851.324 Q226.459 855.074 228.287 857.227 Q230.139 859.38 233.287 859.38 Z" fill="#000000" fill-rule="nonzero" fill-opacity="1" /><path clip-path="url(#clip390)" d="M258.033 870.815 L274.352 870.815 L274.352 874.75 L252.408 874.75 L252.408 870.815 Q255.07 868.06 259.653 863.431 Q264.259 858.778 265.44 857.435 Q267.685 854.912 268.565 853.176 Q269.468 851.417 269.468 849.727 Q269.468 846.973 267.523 845.236 Q265.602 843.5 262.5 843.5 Q260.301 843.5 257.847 844.264 Q255.417 845.028 252.639 846.579 L252.639 841.857 Q255.463 840.723 257.917 840.144 Q260.37 839.565 262.408 839.565 Q267.778 839.565 270.972 842.25 Q274.167 844.936 274.167 849.426 Q274.167 851.556 273.357 853.477 Q272.569 855.375 270.463 857.968 Q269.884 858.639 266.782 861.857 Q263.681 865.051 258.033 870.815 Z" fill="#000000" fill-rule="nonzero" fill-opacity="1" /><path clip-path="url(#clip390)" d="M126.205 562.139 Q122.593 562.139 120.765 565.704 Q118.959 569.246 118.959 576.375 Q118.959 583.482 120.765 587.046 Q122.593 590.588 126.205 590.588 Q129.839 590.588 131.644 587.046 Q133.473 583.482 133.473 576.375 Q133.473 569.246 131.644 565.704 Q129.839 562.139 126.205 562.139 M126.205 558.436 Q132.015 558.436 135.07 563.042 Q138.149 567.625 138.149 576.375 Q138.149 585.102 135.07 589.708 Q132.015 594.292 126.205 594.292 Q120.394 594.292 117.316 589.708 Q114.26 585.102 114.26 576.375 Q114.26 567.625 117.316 563.042 Q120.394 558.436 126.205 558.436 Z" fill="#000000" fill-rule="nonzero" fill-opacity="1" /><path clip-path="url(#clip390)" d="M146.366 587.741 L151.251 587.741 L151.251 593.621 L146.366 593.621 L146.366 587.741 Z" fill="#000000" fill-rule="nonzero" fill-opacity="1" /><path clip-path="url(#clip390)" d="M161.575 592.903 L161.575 588.644 Q163.334 589.477 165.14 589.917 Q166.945 590.357 168.681 590.357 Q173.311 590.357 175.741 587.255 Q178.195 584.13 178.542 577.787 Q177.2 579.778 175.139 580.843 Q173.079 581.908 170.579 581.908 Q165.394 581.908 162.362 578.783 Q159.353 575.634 159.353 570.195 Q159.353 564.871 162.501 561.653 Q165.649 558.436 170.88 558.436 Q176.876 558.436 180.024 563.042 Q183.195 567.625 183.195 576.375 Q183.195 584.546 179.306 589.431 Q175.44 594.292 168.889 594.292 Q167.13 594.292 165.325 593.945 Q163.519 593.597 161.575 592.903 M170.88 578.25 Q174.028 578.25 175.857 576.097 Q177.709 573.945 177.709 570.195 Q177.709 566.468 175.857 564.315 Q174.028 562.139 170.88 562.139 Q167.732 562.139 165.88 564.315 Q164.052 566.468 164.052 570.195 Q164.052 573.945 165.88 576.097 Q167.732 578.25 170.88 578.25 Z" fill="#000000" fill-rule="nonzero" fill-opacity="1" /><path clip-path="url(#clip390)" d="M191.737 592.903 L191.737 588.644 Q193.496 589.477 195.301 589.917 Q197.107 590.357 198.843 590.357 Q203.473 590.357 205.903 587.255 Q208.357 584.13 208.704 577.787 Q207.362 579.778 205.301 580.843 Q203.241 581.908 200.741 581.908 Q195.556 581.908 192.524 578.783 Q189.514 575.634 189.514 570.195 Q189.514 564.871 192.663 561.653 Q195.811 558.436 201.042 558.436 Q207.037 558.436 210.186 563.042 Q213.357 567.625 213.357 576.375 Q213.357 584.546 209.468 589.431 Q205.602 594.292 199.051 594.292 Q197.292 594.292 195.487 593.945 Q193.681 593.597 191.737 592.903 M201.042 578.25 Q204.19 578.25 206.019 576.097 Q207.871 573.945 207.871 570.195 Q207.871 566.468 206.019 564.315 Q204.19 562.139 201.042 562.139 Q197.894 562.139 196.042 564.315 Q194.213 566.468 194.213 570.195 Q194.213 573.945 196.042 576.097 Q197.894 578.25 201.042 578.25 Z" fill="#000000" fill-rule="nonzero" fill-opacity="1" /><path clip-path="url(#clip390)" d="M221.898 592.903 L221.898 588.644 Q223.658 589.477 225.463 589.917 Q227.269 590.357 229.005 590.357 Q233.635 590.357 236.065 587.255 Q238.519 584.13 238.866 577.787 Q237.523 579.778 235.463 580.843 Q233.403 581.908 230.903 581.908 Q225.718 581.908 222.686 578.783 Q219.676 575.634 219.676 570.195 Q219.676 564.871 222.824 561.653 Q225.973 558.436 231.204 558.436 Q237.199 558.436 240.347 563.042 Q243.519 567.625 243.519 576.375 Q243.519 584.546 239.63 589.431 Q235.764 594.292 229.213 594.292 Q227.454 594.292 225.648 593.945 Q223.843 593.597 221.898 592.903 M231.204 578.25 Q234.352 578.25 236.181 576.097 Q238.033 573.945 238.033 570.195 Q238.033 566.468 236.181 564.315 Q234.352 562.139 231.204 562.139 Q228.056 562.139 226.204 564.315 Q224.375 566.468 224.375 570.195 Q224.375 573.945 226.204 576.097 Q228.056 578.25 231.204 578.25 Z" fill="#000000" fill-rule="nonzero" fill-opacity="1" /><path clip-path="url(#clip390)" d="M264.769 563.135 L252.963 581.584 L264.769 581.584 L264.769 563.135 M263.542 559.061 L269.421 559.061 L269.421 581.584 L274.352 581.584 L274.352 585.472 L269.421 585.472 L269.421 593.621 L264.769 593.621 L264.769 585.472 L249.167 585.472 L249.167 580.959 L263.542 559.061 Z" fill="#000000" fill-rule="nonzero" fill-opacity="1" /><path clip-path="url(#clip390)" d="M126.529 281.01 Q122.918 281.01 121.089 284.574 Q119.283 288.116 119.283 295.246 Q119.283 302.352 121.089 305.917 Q122.918 309.458 126.529 309.458 Q130.163 309.458 131.968 305.917 Q133.797 302.352 133.797 295.246 Q133.797 288.116 131.968 284.574 Q130.163 281.01 126.529 281.01 M126.529 277.306 Q132.339 277.306 135.394 281.912 Q138.473 286.496 138.473 295.246 Q138.473 303.972 135.394 308.579 Q132.339 313.162 126.529 313.162 Q120.718 313.162 117.64 308.579 Q114.584 303.972 114.584 295.246 Q114.584 286.496 117.64 281.912 Q120.718 277.306 126.529 277.306 Z" fill="#000000" fill-rule="nonzero" fill-opacity="1" /><path clip-path="url(#clip390)" d="M146.691 306.611 L151.575 306.611 L151.575 312.491 L146.691 312.491 L146.691 306.611 Z" fill="#000000" fill-rule="nonzero" fill-opacity="1" /><path clip-path="url(#clip390)" d="M161.899 311.773 L161.899 307.514 Q163.658 308.347 165.464 308.787 Q167.269 309.227 169.005 309.227 Q173.635 309.227 176.065 306.125 Q178.519 303 178.866 296.658 Q177.524 298.648 175.464 299.713 Q173.403 300.778 170.903 300.778 Q165.718 300.778 162.686 297.653 Q159.677 294.505 159.677 289.065 Q159.677 283.741 162.825 280.523 Q165.973 277.306 171.204 277.306 Q177.2 277.306 180.348 281.912 Q183.519 286.496 183.519 295.246 Q183.519 303.417 179.63 308.301 Q175.764 313.162 169.214 313.162 Q167.454 313.162 165.649 312.815 Q163.843 312.468 161.899 311.773 M171.204 297.121 Q174.352 297.121 176.181 294.968 Q178.033 292.815 178.033 289.065 Q178.033 285.338 176.181 283.185 Q174.352 281.01 171.204 281.01 Q168.056 281.01 166.204 283.185 Q164.376 285.338 164.376 289.065 Q164.376 292.815 166.204 294.968 Q168.056 297.121 171.204 297.121 Z" fill="#000000" fill-rule="nonzero" fill-opacity="1" /><path clip-path="url(#clip390)" d="M192.061 311.773 L192.061 307.514 Q193.82 308.347 195.625 308.787 Q197.431 309.227 199.167 309.227 Q203.797 309.227 206.227 306.125 Q208.681 303 209.028 296.658 Q207.686 298.648 205.625 299.713 Q203.565 300.778 201.065 300.778 Q195.88 300.778 192.848 297.653 Q189.838 294.505 189.838 289.065 Q189.838 283.741 192.987 280.523 Q196.135 277.306 201.366 277.306 Q207.362 277.306 210.51 281.912 Q213.681 286.496 213.681 295.246 Q213.681 303.417 209.792 308.301 Q205.926 313.162 199.375 313.162 Q197.616 313.162 195.811 312.815 Q194.005 312.468 192.061 311.773 M201.366 297.121 Q204.514 297.121 206.343 294.968 Q208.195 292.815 208.195 289.065 Q208.195 285.338 206.343 283.185 Q204.514 281.01 201.366 281.01 Q198.218 281.01 196.366 283.185 Q194.538 285.338 194.538 289.065 Q194.538 292.815 196.366 294.968 Q198.218 297.121 201.366 297.121 Z" fill="#000000" fill-rule="nonzero" fill-opacity="1" /><path clip-path="url(#clip390)" d="M222.223 311.773 L222.223 307.514 Q223.982 308.347 225.787 308.787 Q227.593 309.227 229.329 309.227 Q233.959 309.227 236.389 306.125 Q238.843 303 239.19 296.658 Q237.847 298.648 235.787 299.713 Q233.727 300.778 231.227 300.778 Q226.042 300.778 223.01 297.653 Q220 294.505 220 289.065 Q220 283.741 223.148 280.523 Q226.297 277.306 231.528 277.306 Q237.523 277.306 240.672 281.912 Q243.843 286.496 243.843 295.246 Q243.843 303.417 239.954 308.301 Q236.088 313.162 229.537 313.162 Q227.778 313.162 225.973 312.815 Q224.167 312.468 222.223 311.773 M231.528 297.121 Q234.676 297.121 236.505 294.968 Q238.357 292.815 238.357 289.065 Q238.357 285.338 236.505 283.185 Q234.676 281.01 231.528 281.01 Q228.38 281.01 226.528 283.185 Q224.699 285.338 224.699 289.065 Q224.699 292.815 226.528 294.968 Q228.38 297.121 231.528 297.121 Z" fill="#000000" fill-rule="nonzero" fill-opacity="1" /><path clip-path="url(#clip390)" d="M262.824 293.347 Q259.676 293.347 257.824 295.5 Q255.996 297.653 255.996 301.403 Q255.996 305.13 257.824 307.306 Q259.676 309.458 262.824 309.458 Q265.972 309.458 267.801 307.306 Q269.653 305.13 269.653 301.403 Q269.653 297.653 267.801 295.5 Q265.972 293.347 262.824 293.347 M272.107 278.695 L272.107 282.954 Q270.347 282.121 268.542 281.681 Q266.759 281.241 265 281.241 Q260.37 281.241 257.917 284.366 Q255.486 287.491 255.139 293.81 Q256.505 291.796 258.565 290.732 Q260.625 289.644 263.102 289.644 Q268.31 289.644 271.32 292.815 Q274.352 295.963 274.352 301.403 Q274.352 306.727 271.204 309.945 Q268.056 313.162 262.824 313.162 Q256.829 313.162 253.658 308.579 Q250.486 303.972 250.486 295.246 Q250.486 287.051 254.375 282.19 Q258.264 277.306 264.815 277.306 Q266.574 277.306 268.357 277.653 Q270.162 278 272.107 278.695 Z" fill="#000000" fill-rule="nonzero" fill-opacity="1" /><path clip-path="url(#clip390)" d="M41.7242 981.804 Q42.4244 979.735 44.7161 977.793 Q47.0077 975.82 51.0181 973.846 L64.0042 967.322 L64.0042 974.228 L51.8138 980.308 Q47.0395 982.663 45.48 984.891 Q43.9204 987.087 43.9204 990.906 L43.9204 997.909 L64.0042 997.909 L64.0042 1004.34 L16.4842 1004.34 L16.4842 989.824 Q16.4842 981.676 19.8898 977.666 Q23.2955 973.655 30.1704 973.655 Q34.6582 973.655 37.6183 975.756 Q40.5784 977.825 41.7242 981.804 M21.7677 997.909 L38.6368 997.909 L38.6368 989.824 Q38.6368 985.177 36.5043 982.822 Q34.34 980.435 30.1704 980.435 Q26.0009 980.435 23.9002 982.822 Q21.7677 985.177 21.7677 989.824 L21.7677 997.909 Z" fill="#000000" fill-rule="nonzero" fill-opacity="1" /><path clip-path="url(#clip390)" d="M44.7161 931.737 L47.5806 931.737 L47.5806 958.664 Q53.6281 958.282 56.8109 955.036 Q59.9619 951.757 59.9619 945.933 Q59.9619 942.559 59.1344 939.408 Q58.3069 936.225 56.6518 933.106 L62.1899 933.106 Q63.5267 936.257 64.227 939.567 Q64.9272 942.877 64.9272 946.283 Q64.9272 954.813 59.9619 959.81 Q54.9967 964.775 46.5303 964.775 Q37.7774 964.775 32.6531 960.065 Q27.4968 955.322 27.4968 947.301 Q27.4968 940.108 32.1438 935.939 Q36.7589 931.737 44.7161 931.737 M42.9973 937.594 Q38.1912 937.657 35.3266 940.299 Q32.4621 942.909 32.4621 947.238 Q32.4621 952.139 35.2312 955.099 Q38.0002 958.028 43.0292 958.473 L42.9973 937.594 Z" fill="#000000" fill-rule="nonzero" fill-opacity="1" /><path clip-path="url(#clip390)" d="M14.479 904.078 L19.3487 904.078 L19.3487 909.68 Q19.3487 912.831 20.6219 914.072 Q21.895 915.282 25.2052 915.282 L28.3562 915.282 L28.3562 905.638 L32.9077 905.638 L32.9077 915.282 L64.0042 915.282 L64.0042 921.17 L32.9077 921.17 L32.9077 926.772 L28.3562 926.772 L28.3562 921.17 L25.8736 921.17 Q19.9216 921.17 17.2162 918.401 Q14.479 915.632 14.479 909.616 L14.479 904.078 Z" fill="#000000" fill-rule="nonzero" fill-opacity="1" /><path clip-path="url(#clip390)" d="M14.479 899.177 L14.479 893.32 L64.0042 893.32 L64.0042 899.177 L14.479 899.177 Z" fill="#000000" fill-rule="nonzero" fill-opacity="1" /><path clip-path="url(#clip390)" d="M44.7161 850.574 L47.5806 850.574 L47.5806 877.501 Q53.6281 877.119 56.8109 873.873 Q59.9619 870.595 59.9619 864.77 Q59.9619 861.396 59.1344 858.245 Q58.3069 855.062 56.6518 851.943 L62.1899 851.943 Q63.5267 855.094 64.227 858.404 Q64.9272 861.714 64.9272 865.12 Q64.9272 873.65 59.9619 878.647 Q54.9967 883.613 46.5303 883.613 Q37.7774 883.613 32.6531 878.902 Q27.4968 874.159 27.4968 866.139 Q27.4968 858.945 32.1438 854.776 Q36.7589 850.574 44.7161 850.574 M42.9973 856.431 Q38.1912 856.495 35.3266 859.136 Q32.4621 861.746 32.4621 866.075 Q32.4621 870.977 35.2312 873.937 Q38.0002 876.865 43.0292 877.31 L42.9973 856.431 Z" fill="#000000" fill-rule="nonzero" fill-opacity="1" /><path clip-path="url(#clip390)" d="M29.7248 815.308 L35.1993 815.308 Q33.8307 817.791 33.1623 820.306 Q32.4621 822.788 32.4621 825.334 Q32.4621 831.032 36.0905 834.183 Q39.6872 837.334 46.212 837.334 Q52.7369 837.334 56.3653 834.183 Q59.9619 831.032 59.9619 825.334 Q59.9619 822.788 59.2935 820.306 Q58.5933 817.791 57.2247 815.308 L62.6355 815.308 Q63.7814 817.759 64.3543 820.401 Q64.9272 823.011 64.9272 825.971 Q64.9272 834.024 59.8664 838.766 Q54.8057 843.509 46.212 843.509 Q37.491 843.509 32.4939 838.734 Q27.4968 833.928 27.4968 825.589 Q27.4968 822.884 28.0697 820.306 Q28.6108 817.727 29.7248 815.308 Z" fill="#000000" fill-rule="nonzero" fill-opacity="1" /><path clip-path="url(#clip390)" d="M18.2347 799.331 L28.3562 799.331 L28.3562 787.268 L32.9077 787.268 L32.9077 799.331 L52.2594 799.331 Q56.6199 799.331 57.8613 798.153 Q59.1026 796.943 59.1026 793.283 L59.1026 787.268 L64.0042 787.268 L64.0042 793.283 Q64.0042 800.063 61.4897 802.641 Q58.9434 805.219 52.2594 805.219 L32.9077 805.219 L32.9077 809.516 L28.3562 809.516 L28.3562 805.219 L18.2347 805.219 L18.2347 799.331 Z" fill="#000000" fill-rule="nonzero" fill-opacity="1" /><path clip-path="url(#clip390)" d="M28.3562 779.565 L28.3562 773.709 L64.0042 773.709 L64.0042 779.565 L28.3562 779.565 M14.479 779.565 L14.479 773.709 L21.895 773.709 L21.895 779.565 L14.479 779.565 Z" fill="#000000" fill-rule="nonzero" fill-opacity="1" /><path clip-path="url(#clip390)" d="M28.3562 765.656 L28.3562 759.449 L58.275 748.309 L28.3562 737.169 L28.3562 730.963 L64.0042 744.331 L64.0042 752.288 L28.3562 765.656 Z" fill="#000000" fill-rule="nonzero" fill-opacity="1" /><path clip-path="url(#clip390)" d="M28.3562 722.878 L28.3562 717.022 L64.0042 717.022 L64.0042 722.878 L28.3562 722.878 M14.479 722.878 L14.479 717.022 L21.895 717.022 L21.895 722.878 L14.479 722.878 Z" fill="#000000" fill-rule="nonzero" fill-opacity="1" /><path clip-path="url(#clip390)" d="M18.2347 698.975 L28.3562 698.975 L28.3562 686.912 L32.9077 686.912 L32.9077 698.975 L52.2594 698.975 Q56.6199 698.975 57.8613 697.798 Q59.1026 696.588 59.1026 692.928 L59.1026 686.912 L64.0042 686.912 L64.0042 692.928 Q64.0042 699.707 61.4897 702.285 Q58.9434 704.863 52.2594 704.863 L32.9077 704.863 L32.9077 709.16 L28.3562 709.16 L28.3562 704.863 L18.2347 704.863 L18.2347 698.975 Z" fill="#000000" fill-rule="nonzero" fill-opacity="1" /><path clip-path="url(#clip390)" d="M67.3143 664.378 Q73.68 666.86 75.6216 669.216 Q77.5631 671.571 77.5631 675.518 L77.5631 680.196 L72.6615 680.196 L72.6615 676.759 Q72.6615 674.34 71.5157 673.003 Q70.3699 671.666 66.1048 670.043 L63.4312 668.993 L28.3562 683.411 L28.3562 677.204 L56.238 666.064 L28.3562 654.924 L28.3562 648.718 L67.3143 664.378 Z" fill="#000000" fill-rule="nonzero" fill-opacity="1" /><path clip-path="url(#clip390)" d="M14.1925 612.37 L79.3773 612.37 L79.3773 617.781 L14.1925 617.781 L14.1925 612.37 Z" fill="#000000" fill-rule="nonzero" fill-opacity="1" /><path clip-path="url(#clip390)" d="M18.0438 569.21 L24.314 569.21 Q22.5634 572.871 21.704 576.117 Q20.8447 579.364 20.8447 582.387 Q20.8447 587.639 22.8817 590.504 Q24.9187 593.336 28.6745 593.336 Q31.8255 593.336 33.4488 591.458 Q35.0402 589.549 36.0269 584.265 L36.8226 580.382 Q38.1912 573.189 41.6605 569.783 Q45.098 566.346 50.8908 566.346 Q57.7976 566.346 61.3624 570.993 Q64.9272 575.608 64.9272 584.552 Q64.9272 587.925 64.1633 591.745 Q63.3994 595.532 61.9035 599.607 L55.2831 599.607 Q57.4793 595.692 58.5933 591.936 Q59.7073 588.18 59.7073 584.552 Q59.7073 579.045 57.543 576.053 Q55.3786 573.062 51.3682 573.062 Q47.8671 573.062 45.8937 575.226 Q43.9204 577.358 42.9337 582.26 L42.1698 586.175 Q40.7375 593.368 37.682 596.583 Q34.6264 599.797 29.1837 599.797 Q22.8817 599.797 19.2532 595.373 Q15.6248 590.917 15.6248 583.119 Q15.6248 579.777 16.2295 576.308 Q16.8343 572.839 18.0438 569.21 Z" fill="#000000" fill-rule="nonzero" fill-opacity="1" /><path clip-path="url(#clip390)" d="M58.5933 554.633 L58.5933 544.129 L22.3406 544.129 L24.6323 555.556 L18.7758 555.556 L16.4842 544.193 L16.4842 537.764 L58.5933 537.764 L58.5933 527.26 L64.0042 527.26 L64.0042 554.633 L58.5933 554.633 Z" fill="#000000" fill-rule="nonzero" fill-opacity="1" /><path clip-path="url(#clip390)" d="M58.5933 513.16 L58.5933 502.657 L22.3406 502.657 L24.6323 514.083 L18.7758 514.083 L16.4842 502.72 L16.4842 496.291 L58.5933 496.291 L58.5933 485.788 L64.0042 485.788 L64.0042 513.16 L58.5933 513.16 Z" fill="#000000" fill-rule="nonzero" fill-opacity="1" /><path clip-path="url(#clip390)" d="M14.1925 466.086 L79.3773 466.086 L79.3773 471.497 L14.1925 471.497 L14.1925 466.086 Z" fill="#000000" fill-rule="nonzero" fill-opacity="1" /><polyline clip-path="url(#clip392)" style="stroke:#009af9; stroke-linecap:round; stroke-linejoin:round; stroke-width:4; stroke-opacity:1; fill:none" points="368.156,1110.9 370.085,1105.6 372.013,1100.3 373.942,1095.02 375.871,1089.75 377.799,1084.48 379.728,1079.23 381.657,1073.99 383.586,1068.76 385.514,1063.53 387.443,1058.32 389.372,1053.13 391.3,1047.94 393.229,1042.77 395.158,1037.6 397.087,1032.45 399.015,1027.31 400.944,1022.19 402.873,1017.08 404.802,1011.98 406.73,1006.89 408.659,1001.82 410.588,996.755 412.516,991.708 414.445,986.675 416.374,981.656 418.303,976.651 420.231,971.659 422.16,966.682 424.089,961.72 426.018,956.772 427.946,951.838 429.875,946.92 431.804,942.016 433.732,937.127 435.661,932.253 437.59,927.395 439.519,922.551 441.447,917.724 443.376,912.911 445.305,908.115 447.234,903.334 449.162,898.569 451.091,893.82 453.02,889.087 454.948,884.37 456.877,879.669 458.806,874.984 460.735,870.316 462.663,865.664 464.592,861.028 466.521,856.409 468.449,851.807 470.378,847.221 472.307,842.652 474.236,838.1 476.164,833.565 478.093,829.046 480.022,824.545 481.951,820.06 483.879,815.593 485.808,811.142 487.737,806.709 489.665,802.293 491.594,797.894 493.523,793.512 495.452,789.147 497.38,784.8 499.309,780.47 501.238,776.158 503.167,771.863 505.095,767.585 507.024,763.325 508.953,759.082 510.881,754.856 512.81,750.649 514.739,746.458 516.668,742.285 518.596,738.13 520.525,733.992 522.454,729.872 524.383,725.769 526.311,721.684 528.24,717.616 530.169,713.566 532.097,709.533 534.026,705.518 535.955,701.521 537.884,697.541 539.812,693.578 541.741,689.633 543.67,685.706 545.598,681.796 547.527,677.903 549.456,674.029 551.385,670.171 553.313,666.331 555.242,662.509 557.171,658.703 559.1,654.916 561.028,651.145 562.957,647.392 564.886,643.657 566.814,639.938 568.743,636.237 570.672,632.554 572.601,628.887 574.529,625.238 576.458,621.606 578.387,617.991 580.316,614.393 582.244,610.812 584.173,607.249 586.102,603.702 588.03,600.172 589.959,596.66 591.888,593.164 593.817,589.685 595.745,586.224 597.674,582.779 599.603,579.35 601.532,575.939 603.46,572.544 605.389,569.166 607.318,565.804 609.246,562.46 611.175,559.131 613.104,555.82 615.033,552.524 616.961,549.245 618.89,545.983 620.819,542.737 622.747,539.507 624.676,536.294 626.605,533.096 628.534,529.915 630.462,526.75 632.391,523.601 634.32,520.468 636.249,517.351 638.177,514.25 640.106,511.165 642.035,508.096 643.963,505.042 645.892,502.004 647.821,498.982 649.75,495.976 651.678,492.985 653.607,490.01 655.536,487.05 657.465,484.106 659.393,481.177 661.322,478.263 663.251,475.365 665.179,472.482 667.108,469.614 669.037,466.761 670.966,463.924 672.894,461.101 674.823,458.293 676.752,455.501 678.68,452.723 680.609,449.96 682.538,447.212 684.467,444.478 686.395,441.759 688.324,439.055 690.253,436.365 692.182,433.69 694.11,431.029 696.039,428.383 697.968,425.751 699.896,423.133 701.825,420.53 703.754,417.94 705.683,415.365 707.611,412.804 709.54,410.257 711.469,407.724 713.398,405.204 715.326,402.699 717.255,400.207 719.184,397.73 721.112,395.265 723.041,392.815 724.97,390.378 726.899,387.955 728.827,385.545 730.756,383.148 732.685,380.765 734.614,378.396 736.542,376.039 738.471,373.696 740.4,371.366 742.328,369.049 744.257,366.745 746.186,364.454 748.115,362.176 750.043,359.91 751.972,357.658 753.901,355.419 755.829,353.192 757.758,350.978 759.687,348.776 761.616,346.588 763.544,344.411 765.473,342.247 767.402,340.096 769.331,337.957 771.259,335.83 773.188,333.716 775.117,331.613 777.045,329.523 778.974,327.445 780.903,325.379 782.832,323.325 784.76,321.283 786.689,319.253 788.618,317.235 790.547,315.229 792.475,313.234 794.404,311.251 796.333,309.28 798.261,307.321 800.19,305.372 802.119,303.436 804.048,301.511 805.976,299.597 807.905,297.695 809.834,295.804 811.763,293.924 813.691,292.056 815.62,290.199 817.549,288.352 819.477,286.517 821.406,284.693 823.335,282.88 825.264,281.078 827.192,279.287 829.121,277.507 831.05,275.737 832.978,273.978 834.907,272.23 836.836,270.493 838.765,268.766 840.693,267.05 842.622,265.344 844.551,263.649 846.48,261.964 848.408,260.29 850.337,258.625 852.266,256.972 854.194,255.328 856.123,253.695 858.052,252.072 859.981,250.459 861.909,248.856 863.838,247.263 865.767,245.681 867.696,244.108 869.624,242.545 871.553,240.992 873.482,239.449 875.41,237.915 877.339,236.392 879.268,234.878 881.197,233.374 883.125,231.879 885.054,230.394 886.983,228.919 888.912,227.453 890.84,225.996 892.769,224.549 894.698,223.112 896.626,221.684 898.555,220.265 900.484,218.855 902.413,217.455 904.341,216.063 906.27,214.681 908.199,213.309 910.127,211.945 912.056,210.59 913.985,209.244 915.914,207.908 917.842,206.58 919.771,205.261 921.7,203.951 923.629,202.65 925.557,201.357 927.486,200.074 929.415,198.799 931.343,197.533 933.272,196.275 935.201,195.027 937.13,193.786 939.058,192.555 940.987,191.332 942.916,190.117 944.845,188.911 946.773,187.713 948.702,186.524 950.631,185.343 952.559,184.17 954.488,183.006 956.417,181.85 958.346,180.702 960.274,179.562 962.203,178.431 964.132,177.307 966.061,176.192 967.989,175.085 969.918,173.986 971.847,172.895 973.775,171.812 975.704,170.737 977.633,169.67 979.562,168.61 981.49,167.559 983.419,166.515 985.348,165.48 987.276,164.452 989.205,163.432 991.134,162.419 993.063,161.414 994.991,160.417 996.92,159.428 998.849,158.446 1000.78,157.472 1002.71,156.505 1004.64,155.546 1006.56,154.595 1008.49,153.651 1010.42,152.714 1012.35,151.785 1014.28,150.863 1016.21,149.949 1018.14,149.042 1020.06,148.142 1021.99,147.25 1023.92,146.365 1025.85,145.487 1027.78,144.616 1029.71,143.753 1031.64,142.897 1033.57,142.048 1035.49,141.206 1037.42,140.372 1039.35,139.544 1041.28,138.723 1043.21,137.91 1045.14,137.104 1047.07,136.304 1049,135.512 1050.92,134.726 1052.85,133.948 1054.78,133.176 1056.71,132.412 1058.64,131.654 1060.57,130.903 1062.5,130.159 1064.43,129.422 1066.35,128.691 1068.28,127.967 1070.21,127.251 1072.14,126.54 1074.07,125.837 1076,125.14 1077.93,124.45 1079.86,123.767 1081.78,123.09 1083.71,122.42 1085.64,121.757 1087.57,121.1 1089.5,120.449 1091.43,119.806 1093.36,119.169 1095.29,118.538 1097.21,117.914 1099.14,117.296 1101.07,116.685 1103,116.08 1104.93,115.482 1106.86,114.89 1108.79,114.305 1110.71,113.726 1112.64,113.153 1114.57,112.587 1116.5,112.027 1118.43,111.473 1120.36,110.926 1122.29,110.385 1124.22,109.85 1126.14,109.322 1128.07,108.799 1130,108.284 1131.93,107.774 1133.86,107.27 1135.79,106.773 1137.72,106.282 1139.65,105.797 1141.57,105.319 1143.5,104.846 1145.43,104.38 1147.36,103.919 1149.29,103.465 1151.22,103.017 1153.15,102.575 1155.08,102.139 1157,101.71 1158.93,101.286 1160.86,100.868 1162.79,100.456 1164.72,100.051 1166.65,99.6513 1168.58,99.2577 1170.51,98.8701 1172.43,98.4885 1174.36,98.1129 1176.29,97.7433 1178.22,97.3796 1180.15,97.0218 1182.08,96.67 1184.01,96.3242 1185.94,95.9842 1187.86,95.6502 1189.79,95.3221 1191.72,94.9998 1193.65,94.6835 1195.58,94.373 1197.51,94.0684 1199.44,93.7697 1201.36,93.4769 1203.29,93.1898 1205.22,92.9087 1207.15,92.6333 1209.08,92.3638 1211.01,92.1002 1212.94,91.8423 1214.87,91.5902 1216.79,91.344 1218.72,91.1035 1220.65,90.8689 1222.58,90.64 1224.51,90.4169 1226.44,90.1996 1228.37,89.9881 1230.3,89.7823 1232.22,89.5823 1234.15,89.388 1236.08,89.1995 1238.01,89.0167 1239.94,88.8397 1241.87,88.6684 1243.8,88.5029 1245.73,88.3431 1247.65,88.189 1249.58,88.0406 1251.51,87.898 1253.44,87.7611 1255.37,87.6299 1257.3,87.5044 1259.23,87.3846 1261.16,87.2705 1263.08,87.1622 1265.01,87.0595 1266.94,86.9626 1268.87,86.8713 1270.8,86.7857 1272.73,86.7059 1274.66,86.6317 1276.59,86.5633 1278.51,86.5005 1280.44,86.4434 1282.37,86.392 1284.3,86.3463 1286.23,86.3063 1288.16,86.272 1290.09,86.2434 1292.02,86.2204 1293.94,86.2032 1295.87,86.1917 1297.8,86.1858 1299.73,86.1857 1301.66,86.1912 1303.59,86.2025 1305.52,86.2194 1307.44,86.242 1309.37,86.2704 1311.3,86.3044 1313.23,86.3442 1315.16,86.3896 1317.09,86.4408 1319.02,86.4977 1320.95,86.5603 1322.87,86.6286 1324.8,86.7027 1326.73,86.7824 1328.66,86.8679 1330.59,86.9592 1332.52,87.0561 1334.45,87.1588 1336.38,87.2673 1338.3,87.3814 1340.23,87.5014 1342.16,87.6271 1344.09,87.7586 1346.02,87.8958 1347.95,88.0388 1349.88,88.1875 1351.81,88.3421 1353.73,88.5024 1355.66,88.6686 1357.59,88.8405 1359.52,89.0182 1361.45,89.2018 1363.38,89.3912 1365.31,89.5863 1367.24,89.7874 1369.16,89.9942 1371.09,90.2069 1373.02,90.4255 1374.95,90.6499 1376.88,90.8801 1378.81,91.1163 1380.74,91.3583 1382.67,91.6062 1384.59,91.86 1386.52,92.1198 1388.45,92.3854 1390.38,92.657 1392.31,92.9344 1394.24,93.2179 1396.17,93.5073 1398.09,93.8026 1400.02,94.1039 1401.95,94.4112 1403.88,94.7245 1405.81,95.0438 1407.74,95.3691 1409.67,95.7004 1411.6,96.0377 1413.52,96.3811 1415.45,96.7305 1417.38,97.086 1419.31,97.4476 1421.24,97.8153 1423.17,98.189 1425.1,98.5689 1427.03,98.9549 1428.95,99.347 1430.88,99.7453 1432.81,100.15 1434.74,100.56 1436.67,100.977 1438.6,101.4 1440.53,101.829 1442.46,102.265 1444.38,102.706 1446.31,103.154 1448.24,103.608 1450.17,104.069 1452.1,104.536 1454.03,105.009 1455.96,105.488 1457.89,105.974 1459.81,106.466 1461.74,106.964 1463.67,107.469 1465.6,107.981 1467.53,108.498 1469.46,109.022 1471.39,109.553 1473.32,110.09 1475.24,110.633 1477.17,111.183 1479.1,111.74 1481.03,112.303 1482.96,112.872 1484.89,113.449 1486.82,114.031 1488.74,114.621 1490.67,115.217 1492.6,115.819 1494.53,116.429 1496.46,117.045 1498.39,117.667 1500.32,118.297 1502.25,118.933 1504.17,119.576 1506.1,120.225 1508.03,120.882 1509.96,121.545 1511.89,122.215 1513.82,122.892 1515.75,123.576 1517.68,124.267 1519.6,124.964 1521.53,125.669 1523.46,126.38 1525.39,127.099 1527.32,127.824 1529.25,128.557 1531.18,129.297 1533.11,130.043 1535.03,130.797 1536.96,131.558 1538.89,132.326 1540.82,133.101 1542.75,133.884 1544.68,134.673 1546.61,135.47 1548.54,136.274 1550.46,137.086 1552.39,137.905 1554.32,138.731 1556.25,139.564 1558.18,140.405 1560.11,141.253 1562.04,142.109 1563.97,142.972 1565.89,143.843 1567.82,144.721 1569.75,145.606 1571.68,146.5 1573.61,147.401 1575.54,148.309 1577.47,149.225 1579.4,150.149 1581.32,151.081 1583.25,152.02 1585.18,152.967 1587.11,153.922 1589.04,154.884 1590.97,155.855 1592.9,156.833 1594.82,157.82 1596.75,158.814 1598.68,159.816 1600.61,160.826 1602.54,161.845 1604.47,162.871 1606.4,163.906 1608.33,164.948 1610.25,165.999 1612.18,167.058 1614.11,168.125 1616.04,169.2 1617.97,170.284 1619.9,171.376 1621.83,172.476 1623.76,173.585 1625.68,174.702 1627.61,175.828 1629.54,176.962 1631.47,178.105 1633.4,179.256 1635.33,180.416 1637.26,181.584 1639.19,182.761 1641.11,183.947 1643.04,185.141 1644.97,186.345 1646.9,187.557 1648.83,188.778 1650.76,190.008 1652.69,191.246 1654.62,192.494 1656.54,193.751 1658.47,195.016 1660.4,196.291 1662.33,197.575 1664.26,198.868 1666.19,200.17 1668.12,201.481 1670.05,202.802 1671.97,204.132 1673.9,205.471 1675.83,206.82 1677.76,208.178 1679.69,209.545 1681.62,210.922 1683.55,212.309 1685.47,213.705 1687.4,215.111 1689.33,216.526 1691.26,217.951 1693.19,219.386 1695.12,220.831 1697.05,222.285 1698.98,223.75 1700.9,225.224 1702.83,226.708 1704.76,228.203 1706.69,229.707 1708.62,231.221 1710.55,232.746 1712.48,234.281 1714.41,235.826 1716.33,237.381 1718.26,238.946 1720.19,240.522 1722.12,242.109 1724.05,243.705 1725.98,245.313 1727.91,246.931 1729.84,248.559 1731.76,250.198 1733.69,251.848 1735.62,253.508 1737.55,255.18 1739.48,256.862 1741.41,258.555 1743.34,260.259 1745.27,261.974 1747.19,263.7 1749.12,265.437 1751.05,267.185 1752.98,268.944 1754.91,270.715 1756.84,272.497 1758.77,274.29 1760.7,276.095 1762.62,277.911 1764.55,279.738 1766.48,281.577 1768.41,283.428 1770.34,285.291 1772.27,287.165 1774.2,289.05 1776.13,290.948 1778.05,292.857 1779.98,294.779 1781.91,296.712 1783.84,298.657 1785.77,300.615 1787.7,302.584 1789.63,304.566 1791.55,306.56 1793.48,308.566 1795.41,310.585 1797.34,312.616 1799.27,314.659 1801.2,316.715 1803.13,318.784 1805.06,320.865 1806.98,322.959 1808.91,325.066 1810.84,327.185 1812.77,329.317 1814.7,331.463 1816.63,333.621 1818.56,335.792 1820.49,337.976 1822.41,340.174 1824.34,342.384 1826.27,344.608 1828.2,346.846 1830.13,349.096 1832.06,351.36 1833.99,353.638 1835.92,355.929 1837.84,358.234 1839.77,360.552 1841.7,362.885 1843.63,365.231 1845.56,367.591 1847.49,369.964 1849.42,372.352 1851.35,374.754 1853.27,377.17 1855.2,379.6 1857.13,382.044 1859.06,384.503 1860.99,386.976 1862.92,389.464 1864.85,391.965 1866.78,394.482 1868.7,397.013 1870.63,399.559 1872.56,402.119 1874.49,404.694 1876.42,407.285 1878.35,409.89 1880.28,412.51 1882.2,415.145 1884.13,417.795 1886.06,420.46 1887.99,423.141 1889.92,425.837 1891.85,428.548 1893.78,431.274 1895.71,434.017 1897.63,436.774 1899.56,439.548 1901.49,442.337 1903.42,445.141 1905.35,447.962 1907.28,450.798 1909.21,453.65 1911.14,456.519 1913.06,459.403 1914.99,462.304 1916.92,465.22 1918.85,468.153 1920.78,471.102 1922.71,474.068 1924.64,477.05 1926.57,480.048 1928.49,483.064 1930.42,486.095 1932.35,489.144 1934.28,492.209 1936.21,495.291 1938.14,498.389 1940.07,501.505 1942,504.638 1943.92,507.788 1945.85,510.954 1947.78,514.139 1949.71,517.34 1951.64,520.558 1953.57,523.794 1955.5,527.048 1957.43,530.319 1959.35,533.607 1961.28,536.913 1963.21,540.237 1965.14,543.578 1967.07,546.937 1969,550.314 1970.93,553.709 1972.85,557.121 1974.78,560.552 1976.71,564.001 1978.64,567.468 1980.57,570.953 1982.5,574.456 1984.43,577.978 1986.36,581.518 1988.28,585.076 1990.21,588.653 1992.14,592.248 1994.07,595.862 1996,599.494 1997.93,603.145 1999.86,606.814 2001.79,610.503 2003.71,614.21 2005.64,617.936 2007.57,621.681 2009.5,625.445 2011.43,629.227 2013.36,633.029 2015.29,636.85 2017.22,640.69 2019.14,644.549 2021.07,648.427 2023,652.325 2024.93,656.242 2026.86,660.178 2028.79,664.133 2030.72,668.108 2032.65,672.102 2034.57,676.116 2036.5,680.149 2038.43,684.202 2040.36,688.274 2042.29,692.366 2044.22,696.477 2046.15,700.608 2048.08,704.759 2050,708.929 2051.93,713.119 2053.86,717.329 2055.79,721.559 2057.72,725.808 2059.65,730.078 2061.58,734.367 2063.51,738.675 2065.43,743.004 2067.36,747.353 2069.29,751.721 2071.22,756.11 2073.15,760.518 2075.08,764.946 2077.01,769.394 2078.93,773.862 2080.86,778.35 2082.79,782.858 2084.72,787.386 2086.65,791.934 2088.58,796.501 2090.51,801.089 2092.44,805.696 2094.36,810.323 2096.29,814.971 2098.22,819.638 2100.15,824.325 2102.08,829.031 2104.01,833.758 2105.94,838.504 2107.87,843.27 2109.79,848.056 2111.72,852.862 2113.65,857.687 2115.58,862.532 2117.51,867.397 2119.44,872.281 2121.37,877.184 2123.3,882.107 2125.22,887.05 2127.15,892.012 2129.08,896.993 2131.01,901.994 2132.94,907.014 2134.87,912.053 2136.8,917.111 2138.73,922.188 2140.65,927.284 2142.58,932.399 2144.51,937.533 2146.44,942.686 2148.37,947.857 2150.3,953.047 2152.23,958.256 2154.16,963.483 2156.08,968.728 2158.01,973.992 2159.94,979.273 2161.87,984.573 2163.8,989.891 2165.73,995.227 2167.66,1000.58 2169.58,1005.95 2171.51,1011.34 2173.44,1016.75 2175.37,1022.17 2177.3,1027.61 2179.23,1033.07 2181.16,1038.54 2183.09,1044.03 2185.01,1049.54 2186.94,1055.06 2188.87,1060.6 2190.8,1066.16 2192.73,1071.73 2194.66,1077.32 2196.59,1082.92 2198.52,1088.54 2200.44,1094.18 2202.37,1099.83 2204.3,1105.49 2206.23,1111.17 2208.16,1116.87 2210.09,1122.57 2212.02,1128.3 2213.95,1134.03 2215.87,1139.78 2217.8,1145.55 2219.73,1151.32 2221.66,1157.12 2223.59,1162.92 2225.52,1168.73 2227.45,1174.56 2229.38,1180.4 2231.3,1186.26 2233.23,1192.12 2235.16,1198 2237.09,1203.88 2239.02,1209.78 2240.95,1215.69 2242.88,1221.61 2244.81,1227.54 2246.73,1233.48 2248.66,1239.43 2250.59,1245.38 2252.52,1251.35 2254.45,1257.33 2256.38,1263.31 2258.31,1269.3 2260.23,1275.3 2262.16,1281.31 2264.09,1287.32 2266.02,1293.34 2267.95,1299.37 2269.88,1305.41 2271.81,1311.45 2273.74,1317.49 2275.66,1323.54 2277.59,1329.59 2279.52,1335.65 2281.45,1341.72 2283.38,1347.78 2285.31,1353.85 2287.24,1359.93 2289.17,1366 2291.09,1372.08 2293.02,1378.16 2294.95,1384.24 "/>
<polyline clip-path="url(#clip392)" style="stroke:#ff0000; stroke-linecap:round; stroke-linejoin:round; stroke-width:4; stroke-opacity:1; fill:none" points="1235.21,2799.12 1235.21,-1328.69 "/>
<polyline clip-path="url(#clip392)" style="stroke:#ff0000; stroke-linecap:round; stroke-linejoin:round; stroke-width:4; stroke-opacity:1; fill:none" points="1427.89,2799.12 1427.89,-1328.69 "/>
</svg>
