<?xml version="1.0" encoding="utf-8"?>
<svg xmlns="http://www.w3.org/2000/svg" xmlns:xlink="http://www.w3.org/1999/xlink" width="600" height="400" viewBox="0 0 2400 1600">
<defs>
  <clipPath id="clip110">
    <rect x="0" y="0" width="2400" height="1600"/>
  </clipPath>
</defs>
<path clip-path="url(#clip110)" d="M0 1600 L2400 1600 L2400 0 L0 0  Z" fill="#ffffff" fill-rule="evenodd" fill-opacity="1"/>
<defs>
  <clipPath id="clip111">
    <rect x="480" y="0" width="1681" height="1600"/>
  </clipPath>
</defs>
<path clip-path="url(#clip110)" d="M264.287 1423.18 L2352.76 1423.18 L2352.76 47.2441 L264.287 47.2441  Z" fill="#ffffff" fill-rule="evenodd" fill-opacity="1"/>
<defs>
  <clipPath id="clip112">
    <rect x="264" y="47" width="2089" height="1377"/>
  </clipPath>
</defs>
<polyline clip-path="url(#clip112)" style="stroke:#000000; stroke-linecap:round; stroke-linejoin:round; stroke-width:2; stroke-opacity:0.1; fill:none" points="520.42,1423.18 520.42,47.2441 "/>
<polyline clip-path="url(#clip112)" style="stroke:#000000; stroke-linecap:round; stroke-linejoin:round; stroke-width:2; stroke-opacity:0.1; fill:none" points="914.471,1423.18 914.471,47.2441 "/>
<polyline clip-path="url(#clip112)" style="stroke:#000000; stroke-linecap:round; stroke-linejoin:round; stroke-width:2; stroke-opacity:0.1; fill:none" points="1308.52,1423.18 1308.52,47.2441 "/>
<polyline clip-path="url(#clip112)" style="stroke:#000000; stroke-linecap:round; stroke-linejoin:round; stroke-width:2; stroke-opacity:0.1; fill:none" points="1702.57,1423.18 1702.57,47.2441 "/>
<polyline clip-path="url(#clip112)" style="stroke:#000000; stroke-linecap:round; stroke-linejoin:round; stroke-width:2; stroke-opacity:0.1; fill:none" points="2096.62,1423.18 2096.62,47.2441 "/>
<polyline clip-path="url(#clip112)" style="stroke:#000000; stroke-linecap:round; stroke-linejoin:round; stroke-width:2; stroke-opacity:0.1; fill:none" points="264.287,1384.24 2352.76,1384.24 "/>
<polyline clip-path="url(#clip112)" style="stroke:#000000; stroke-linecap:round; stroke-linejoin:round; stroke-width:2; stroke-opacity:0.1; fill:none" points="264.287,1047.71 2352.76,1047.71 "/>
<polyline clip-path="url(#clip112)" style="stroke:#000000; stroke-linecap:round; stroke-linejoin:round; stroke-width:2; stroke-opacity:0.1; fill:none" points="264.287,711.189 2352.76,711.189 "/>
<polyline clip-path="url(#clip112)" style="stroke:#000000; stroke-linecap:round; stroke-linejoin:round; stroke-width:2; stroke-opacity:0.1; fill:none" points="264.287,374.665 2352.76,374.665 "/>
<polyline clip-path="url(#clip110)" style="stroke:#000000; stroke-linecap:round; stroke-linejoin:round; stroke-width:4; stroke-opacity:1; fill:none" points="264.287,1423.18 2352.76,1423.18 "/>
<polyline clip-path="url(#clip110)" style="stroke:#000000; stroke-linecap:round; stroke-linejoin:round; stroke-width:4; stroke-opacity:1; fill:none" points="520.42,1423.18 520.42,1404.28 "/>
<polyline clip-path="url(#clip110)" style="stroke:#000000; stroke-linecap:round; stroke-linejoin:round; stroke-width:4; stroke-opacity:1; fill:none" points="914.471,1423.18 914.471,1404.28 "/>
<polyline clip-path="url(#clip110)" style="stroke:#000000; stroke-linecap:round; stroke-linejoin:round; stroke-width:4; stroke-opacity:1; fill:none" points="1308.52,1423.18 1308.52,1404.28 "/>
<polyline clip-path="url(#clip110)" style="stroke:#000000; stroke-linecap:round; stroke-linejoin:round; stroke-width:4; stroke-opacity:1; fill:none" points="1702.57,1423.18 1702.57,1404.28 "/>
<polyline clip-path="url(#clip110)" style="stroke:#000000; stroke-linecap:round; stroke-linejoin:round; stroke-width:4; stroke-opacity:1; fill:none" points="2096.62,1423.18 2096.62,1404.28 "/>
<path clip-path="url(#clip110)" d="M472.411 1481.64 L480.05 1481.64 L480.05 1455.28 L471.74 1456.95 L471.74 1452.69 L480.004 1451.02 L484.68 1451.02 L484.68 1481.64 L492.319 1481.64 L492.319 1485.58 L472.411 1485.58 L472.411 1481.64 Z" fill="#000000" fill-rule="nonzero" fill-opacity="1" /><path clip-path="url(#clip110)" d="M500.582 1451.02 L522.805 1451.02 L522.805 1453.01 L510.258 1485.58 L505.374 1485.58 L517.18 1454.96 L500.582 1454.96 L500.582 1451.02 Z" fill="#000000" fill-rule="nonzero" fill-opacity="1" /><path clip-path="url(#clip110)" d="M531.925 1479.7 L536.809 1479.7 L536.809 1485.58 L531.925 1485.58 L531.925 1479.7 Z" fill="#000000" fill-rule="nonzero" fill-opacity="1" /><path clip-path="url(#clip110)" d="M557.573 1466.44 Q554.425 1466.44 552.573 1468.59 Q550.744 1470.74 550.744 1474.49 Q550.744 1478.22 552.573 1480.39 Q554.425 1482.55 557.573 1482.55 Q560.721 1482.55 562.55 1480.39 Q564.402 1478.22 564.402 1474.49 Q564.402 1470.74 562.55 1468.59 Q560.721 1466.44 557.573 1466.44 M566.855 1451.78 L566.855 1456.04 Q565.096 1455.21 563.29 1454.77 Q561.508 1454.33 559.749 1454.33 Q555.119 1454.33 552.665 1457.45 Q550.235 1460.58 549.888 1466.9 Q551.253 1464.89 553.314 1463.82 Q555.374 1462.73 557.851 1462.73 Q563.059 1462.73 566.068 1465.9 Q569.101 1469.05 569.101 1474.49 Q569.101 1479.82 565.952 1483.03 Q562.804 1486.25 557.573 1486.25 Q551.578 1486.25 548.406 1481.67 Q545.235 1477.06 545.235 1468.33 Q545.235 1460.14 549.124 1455.28 Q553.013 1450.39 559.564 1450.39 Q561.323 1450.39 563.105 1450.74 Q564.911 1451.09 566.855 1451.78 Z" fill="#000000" fill-rule="nonzero" fill-opacity="1" /><path clip-path="url(#clip110)" d="M866.589 1481.64 L874.228 1481.64 L874.228 1455.28 L865.918 1456.95 L865.918 1452.69 L874.182 1451.02 L878.858 1451.02 L878.858 1481.64 L886.497 1481.64 L886.497 1485.58 L866.589 1485.58 L866.589 1481.64 Z" fill="#000000" fill-rule="nonzero" fill-opacity="1" /><path clip-path="url(#clip110)" d="M894.76 1451.02 L916.982 1451.02 L916.982 1453.01 L904.436 1485.58 L899.552 1485.58 L911.358 1454.96 L894.76 1454.96 L894.76 1451.02 Z" fill="#000000" fill-rule="nonzero" fill-opacity="1" /><path clip-path="url(#clip110)" d="M926.103 1479.7 L930.987 1479.7 L930.987 1485.58 L926.103 1485.58 L926.103 1479.7 Z" fill="#000000" fill-rule="nonzero" fill-opacity="1" /><path clip-path="url(#clip110)" d="M951.172 1469.17 Q947.839 1469.17 945.918 1470.95 Q944.019 1472.73 944.019 1475.86 Q944.019 1478.98 945.918 1480.77 Q947.839 1482.55 951.172 1482.55 Q954.505 1482.55 956.427 1480.77 Q958.348 1478.96 958.348 1475.86 Q958.348 1472.73 956.427 1470.95 Q954.529 1469.17 951.172 1469.17 M946.496 1467.18 Q943.487 1466.44 941.797 1464.38 Q940.131 1462.32 940.131 1459.35 Q940.131 1455.21 943.07 1452.8 Q946.033 1450.39 951.172 1450.39 Q956.334 1450.39 959.274 1452.8 Q962.214 1455.21 962.214 1459.35 Q962.214 1462.32 960.524 1464.38 Q958.857 1466.44 955.871 1467.18 Q959.251 1467.96 961.126 1470.26 Q963.024 1472.55 963.024 1475.86 Q963.024 1480.88 959.945 1483.57 Q956.89 1486.25 951.172 1486.25 Q945.455 1486.25 942.376 1483.57 Q939.32 1480.88 939.32 1475.86 Q939.32 1472.55 941.218 1470.26 Q943.117 1467.96 946.496 1467.18 M944.783 1459.79 Q944.783 1462.48 946.45 1463.98 Q948.14 1465.49 951.172 1465.49 Q954.181 1465.49 955.871 1463.98 Q957.584 1462.48 957.584 1459.79 Q957.584 1457.11 955.871 1455.6 Q954.181 1454.1 951.172 1454.1 Q948.14 1454.1 946.45 1455.6 Q944.783 1457.11 944.783 1459.79 Z" fill="#000000" fill-rule="nonzero" fill-opacity="1" /><path clip-path="url(#clip110)" d="M1260.59 1481.64 L1268.23 1481.64 L1268.23 1455.28 L1259.92 1456.95 L1259.92 1452.69 L1268.19 1451.02 L1272.86 1451.02 L1272.86 1481.64 L1280.5 1481.64 L1280.5 1485.58 L1260.59 1485.58 L1260.59 1481.64 Z" fill="#000000" fill-rule="nonzero" fill-opacity="1" /><path clip-path="url(#clip110)" d="M1299.95 1469.17 Q1296.61 1469.17 1294.69 1470.95 Q1292.79 1472.73 1292.79 1475.86 Q1292.79 1478.98 1294.69 1480.77 Q1296.61 1482.55 1299.95 1482.55 Q1303.28 1482.55 1305.2 1480.77 Q1307.12 1478.96 1307.12 1475.86 Q1307.12 1472.73 1305.2 1470.95 Q1303.3 1469.17 1299.95 1469.17 M1295.27 1467.18 Q1292.26 1466.44 1290.57 1464.38 Q1288.9 1462.32 1288.9 1459.35 Q1288.9 1455.21 1291.84 1452.8 Q1294.81 1450.39 1299.95 1450.39 Q1305.11 1450.39 1308.05 1452.8 Q1310.99 1455.21 1310.99 1459.35 Q1310.99 1462.32 1309.3 1464.38 Q1307.63 1466.44 1304.64 1467.18 Q1308.02 1467.96 1309.9 1470.26 Q1311.8 1472.55 1311.8 1475.86 Q1311.8 1480.88 1308.72 1483.57 Q1305.66 1486.25 1299.95 1486.25 Q1294.23 1486.25 1291.15 1483.57 Q1288.09 1480.88 1288.09 1475.86 Q1288.09 1472.55 1289.99 1470.26 Q1291.89 1467.96 1295.27 1467.18 M1293.56 1459.79 Q1293.56 1462.48 1295.22 1463.98 Q1296.91 1465.49 1299.95 1465.49 Q1302.95 1465.49 1304.64 1463.98 Q1306.36 1462.48 1306.36 1459.79 Q1306.36 1457.11 1304.64 1455.6 Q1302.95 1454.1 1299.95 1454.1 Q1296.91 1454.1 1295.22 1455.6 Q1293.56 1457.11 1293.56 1459.79 Z" fill="#000000" fill-rule="nonzero" fill-opacity="1" /><path clip-path="url(#clip110)" d="M1320.11 1479.7 L1324.99 1479.7 L1324.99 1485.58 L1320.11 1485.58 L1320.11 1479.7 Z" fill="#000000" fill-rule="nonzero" fill-opacity="1" /><path clip-path="url(#clip110)" d="M1345.18 1454.1 Q1341.57 1454.1 1339.74 1457.66 Q1337.93 1461.2 1337.93 1468.33 Q1337.93 1475.44 1339.74 1479.01 Q1341.57 1482.55 1345.18 1482.55 Q1348.81 1482.55 1350.62 1479.01 Q1352.44 1475.44 1352.44 1468.33 Q1352.44 1461.2 1350.62 1457.66 Q1348.81 1454.1 1345.18 1454.1 M1345.18 1450.39 Q1350.99 1450.39 1354.04 1455 Q1357.12 1459.58 1357.12 1468.33 Q1357.12 1477.06 1354.04 1481.67 Q1350.99 1486.25 1345.18 1486.25 Q1339.37 1486.25 1336.29 1481.67 Q1333.23 1477.06 1333.23 1468.33 Q1333.23 1459.58 1336.29 1455 Q1339.37 1450.39 1345.18 1450.39 Z" fill="#000000" fill-rule="nonzero" fill-opacity="1" /><path clip-path="url(#clip110)" d="M1655.44 1481.64 L1663.08 1481.64 L1663.08 1455.28 L1654.77 1456.95 L1654.77 1452.69 L1663.04 1451.02 L1667.71 1451.02 L1667.71 1481.64 L1675.35 1481.64 L1675.35 1485.58 L1655.44 1485.58 L1655.44 1481.64 Z" fill="#000000" fill-rule="nonzero" fill-opacity="1" /><path clip-path="url(#clip110)" d="M1694.79 1469.17 Q1691.46 1469.17 1689.54 1470.95 Q1687.64 1472.73 1687.64 1475.86 Q1687.64 1478.98 1689.54 1480.77 Q1691.46 1482.55 1694.79 1482.55 Q1698.13 1482.55 1700.05 1480.77 Q1701.97 1478.96 1701.97 1475.86 Q1701.97 1472.73 1700.05 1470.95 Q1698.15 1469.17 1694.79 1469.17 M1690.12 1467.18 Q1687.11 1466.44 1685.42 1464.38 Q1683.75 1462.32 1683.75 1459.35 Q1683.75 1455.21 1686.69 1452.8 Q1689.66 1450.39 1694.79 1450.39 Q1699.96 1450.39 1702.9 1452.8 Q1705.84 1455.21 1705.84 1459.35 Q1705.84 1462.32 1704.15 1464.38 Q1702.48 1466.44 1699.49 1467.18 Q1702.87 1467.96 1704.75 1470.26 Q1706.65 1472.55 1706.65 1475.86 Q1706.65 1480.88 1703.57 1483.57 Q1700.51 1486.25 1694.79 1486.25 Q1689.08 1486.25 1686 1483.57 Q1682.94 1480.88 1682.94 1475.86 Q1682.94 1472.55 1684.84 1470.26 Q1686.74 1467.96 1690.12 1467.18 M1688.41 1459.79 Q1688.41 1462.48 1690.07 1463.98 Q1691.76 1465.49 1694.79 1465.49 Q1697.8 1465.49 1699.49 1463.98 Q1701.21 1462.48 1701.21 1459.79 Q1701.21 1457.11 1699.49 1455.6 Q1697.8 1454.1 1694.79 1454.1 Q1691.76 1454.1 1690.07 1455.6 Q1688.41 1457.11 1688.41 1459.79 Z" fill="#000000" fill-rule="nonzero" fill-opacity="1" /><path clip-path="url(#clip110)" d="M1714.96 1479.7 L1719.84 1479.7 L1719.84 1485.58 L1714.96 1485.58 L1714.96 1479.7 Z" fill="#000000" fill-rule="nonzero" fill-opacity="1" /><path clip-path="url(#clip110)" d="M1734.05 1481.64 L1750.37 1481.64 L1750.37 1485.58 L1728.43 1485.58 L1728.43 1481.64 Q1731.09 1478.89 1735.67 1474.26 Q1740.28 1469.61 1741.46 1468.27 Q1743.71 1465.74 1744.59 1464.01 Q1745.49 1462.25 1745.49 1460.56 Q1745.49 1457.8 1743.54 1456.07 Q1741.62 1454.33 1738.52 1454.33 Q1736.32 1454.33 1733.87 1455.09 Q1731.44 1455.86 1728.66 1457.41 L1728.66 1452.69 Q1731.48 1451.55 1733.94 1450.97 Q1736.39 1450.39 1738.43 1450.39 Q1743.8 1450.39 1746.99 1453.08 Q1750.19 1455.77 1750.19 1460.26 Q1750.19 1462.39 1749.38 1464.31 Q1748.59 1466.2 1746.48 1468.8 Q1745.91 1469.47 1742.8 1472.69 Q1739.7 1475.88 1734.05 1481.64 Z" fill="#000000" fill-rule="nonzero" fill-opacity="1" /><path clip-path="url(#clip110)" d="M2048.45 1481.64 L2056.09 1481.64 L2056.09 1455.28 L2047.78 1456.95 L2047.78 1452.69 L2056.04 1451.02 L2060.72 1451.02 L2060.72 1481.64 L2068.36 1481.64 L2068.36 1485.58 L2048.45 1485.58 L2048.45 1481.64 Z" fill="#000000" fill-rule="nonzero" fill-opacity="1" /><path clip-path="url(#clip110)" d="M2087.8 1469.17 Q2084.47 1469.17 2082.55 1470.95 Q2080.65 1472.73 2080.65 1475.86 Q2080.65 1478.98 2082.55 1480.77 Q2084.47 1482.55 2087.8 1482.55 Q2091.14 1482.55 2093.06 1480.77 Q2094.98 1478.96 2094.98 1475.86 Q2094.98 1472.73 2093.06 1470.95 Q2091.16 1469.17 2087.8 1469.17 M2083.13 1467.18 Q2080.12 1466.44 2078.43 1464.38 Q2076.76 1462.32 2076.76 1459.35 Q2076.76 1455.21 2079.7 1452.8 Q2082.66 1450.39 2087.8 1450.39 Q2092.97 1450.39 2095.91 1452.8 Q2098.85 1455.21 2098.85 1459.35 Q2098.85 1462.32 2097.16 1464.38 Q2095.49 1466.44 2092.5 1467.18 Q2095.88 1467.96 2097.76 1470.26 Q2099.66 1472.55 2099.66 1475.86 Q2099.66 1480.88 2096.58 1483.57 Q2093.52 1486.25 2087.8 1486.25 Q2082.09 1486.25 2079.01 1483.57 Q2075.95 1480.88 2075.95 1475.86 Q2075.95 1472.55 2077.85 1470.26 Q2079.75 1467.96 2083.13 1467.18 M2081.41 1459.79 Q2081.41 1462.48 2083.08 1463.98 Q2084.77 1465.49 2087.8 1465.49 Q2090.81 1465.49 2092.5 1463.98 Q2094.22 1462.48 2094.22 1459.79 Q2094.22 1457.11 2092.5 1455.6 Q2090.81 1454.1 2087.8 1454.1 Q2084.77 1454.1 2083.08 1455.6 Q2081.41 1457.11 2081.41 1459.79 Z" fill="#000000" fill-rule="nonzero" fill-opacity="1" /><path clip-path="url(#clip110)" d="M2107.97 1479.7 L2112.85 1479.7 L2112.85 1485.58 L2107.97 1485.58 L2107.97 1479.7 Z" fill="#000000" fill-rule="nonzero" fill-opacity="1" /><path clip-path="url(#clip110)" d="M2135.88 1455.09 L2124.08 1473.54 L2135.88 1473.54 L2135.88 1455.09 M2134.66 1451.02 L2140.53 1451.02 L2140.53 1473.54 L2145.47 1473.54 L2145.47 1477.43 L2140.53 1477.43 L2140.53 1485.58 L2135.88 1485.58 L2135.88 1477.43 L2120.28 1477.43 L2120.28 1472.92 L2134.66 1451.02 Z" fill="#000000" fill-rule="nonzero" fill-opacity="1" /><path clip-path="url(#clip110)" d="M1016.69 1520.52 L1043.99 1520.52 L1043.99 1525.93 L1023.12 1525.93 L1023.12 1539.94 L1041.96 1539.94 L1041.96 1545.35 L1023.12 1545.35 L1023.12 1568.04 L1016.69 1568.04 L1016.69 1520.52 Z" fill="#000000" fill-rule="nonzero" fill-opacity="1" /><path clip-path="url(#clip110)" d="M1069.84 1537.87 Q1068.85 1537.3 1067.68 1537.04 Q1066.53 1536.76 1065.13 1536.76 Q1060.16 1536.76 1057.49 1540 Q1054.85 1543.22 1054.85 1549.27 L1054.85 1568.04 L1048.96 1568.04 L1048.96 1532.4 L1054.85 1532.4 L1054.85 1537.93 Q1056.69 1534.69 1059.65 1533.13 Q1062.61 1531.54 1066.85 1531.54 Q1067.45 1531.54 1068.18 1531.63 Q1068.92 1531.7 1069.81 1531.85 L1069.84 1537.87 Z" fill="#000000" fill-rule="nonzero" fill-opacity="1" /><path clip-path="url(#clip110)" d="M1105.04 1548.76 L1105.04 1551.62 L1078.11 1551.62 Q1078.5 1557.67 1081.74 1560.85 Q1085.02 1564 1090.85 1564 Q1094.22 1564 1097.37 1563.17 Q1100.55 1562.35 1103.67 1560.69 L1103.67 1566.23 Q1100.52 1567.57 1097.21 1568.27 Q1093.9 1568.97 1090.5 1568.97 Q1081.97 1568.97 1076.97 1564 Q1072 1559.04 1072 1550.57 Q1072 1541.82 1076.71 1536.69 Q1081.46 1531.54 1089.48 1531.54 Q1096.67 1531.54 1100.84 1536.18 Q1105.04 1540.8 1105.04 1548.76 M1099.19 1547.04 Q1099.12 1542.23 1096.48 1539.37 Q1093.87 1536.5 1089.54 1536.5 Q1084.64 1536.5 1081.68 1539.27 Q1078.75 1542.04 1078.31 1547.07 L1099.19 1547.04 Z" fill="#000000" fill-rule="nonzero" fill-opacity="1" /><path clip-path="url(#clip110)" d="M1118.16 1550.25 Q1118.16 1556.71 1120.8 1560.4 Q1123.47 1564.07 1128.12 1564.07 Q1132.76 1564.07 1135.44 1560.4 Q1138.11 1556.71 1138.11 1550.25 Q1138.11 1543.79 1135.44 1540.13 Q1132.76 1536.44 1128.12 1536.44 Q1123.47 1536.44 1120.8 1540.13 Q1118.16 1543.79 1118.16 1550.25 M1138.11 1562.7 Q1136.27 1565.88 1133.43 1567.44 Q1130.63 1568.97 1126.69 1568.97 Q1120.22 1568.97 1116.15 1563.81 Q1112.11 1558.65 1112.11 1550.25 Q1112.11 1541.85 1116.15 1536.69 Q1120.22 1531.54 1126.69 1531.54 Q1130.63 1531.54 1133.43 1533.1 Q1136.27 1534.62 1138.11 1537.81 L1138.11 1532.4 L1143.97 1532.4 L1143.97 1581.6 L1138.11 1581.6 L1138.11 1562.7 Z" fill="#000000" fill-rule="nonzero" fill-opacity="1" /><path clip-path="url(#clip110)" d="M1155.43 1553.98 L1155.43 1532.4 L1161.28 1532.4 L1161.28 1553.75 Q1161.28 1558.81 1163.26 1561.36 Q1165.23 1563.87 1169.18 1563.87 Q1173.92 1563.87 1176.66 1560.85 Q1179.43 1557.83 1179.43 1552.61 L1179.43 1532.4 L1185.28 1532.4 L1185.28 1568.04 L1179.43 1568.04 L1179.43 1562.57 Q1177.29 1565.82 1174.46 1567.41 Q1171.66 1568.97 1167.93 1568.97 Q1161.79 1568.97 1158.61 1565.15 Q1155.43 1561.33 1155.43 1553.98 M1170.16 1531.54 L1170.16 1531.54 Z" fill="#000000" fill-rule="nonzero" fill-opacity="1" /><path clip-path="url(#clip110)" d="M1227.84 1548.76 L1227.84 1551.62 L1200.91 1551.62 Q1201.29 1557.67 1204.54 1560.85 Q1207.82 1564 1213.64 1564 Q1217.01 1564 1220.17 1563.17 Q1223.35 1562.35 1226.47 1560.69 L1226.47 1566.23 Q1223.32 1567.57 1220.01 1568.27 Q1216.7 1568.97 1213.29 1568.97 Q1204.76 1568.97 1199.76 1564 Q1194.8 1559.04 1194.8 1550.57 Q1194.8 1541.82 1199.51 1536.69 Q1204.25 1531.54 1212.27 1531.54 Q1219.47 1531.54 1223.63 1536.18 Q1227.84 1540.8 1227.84 1548.76 M1221.98 1547.04 Q1221.92 1542.23 1219.27 1539.37 Q1216.66 1536.5 1212.34 1536.5 Q1207.43 1536.5 1204.47 1539.27 Q1201.55 1542.04 1201.1 1547.07 L1221.98 1547.04 Z" fill="#000000" fill-rule="nonzero" fill-opacity="1" /><path clip-path="url(#clip110)" d="M1267.08 1546.53 L1267.08 1568.04 L1261.22 1568.04 L1261.22 1546.72 Q1261.22 1541.66 1259.25 1539.14 Q1257.28 1536.63 1253.33 1536.63 Q1248.59 1536.63 1245.85 1539.65 Q1243.11 1542.68 1243.11 1547.9 L1243.11 1568.04 L1237.23 1568.04 L1237.23 1532.4 L1243.11 1532.4 L1243.11 1537.93 Q1245.21 1534.72 1248.05 1533.13 Q1250.91 1531.54 1254.64 1531.54 Q1260.78 1531.54 1263.93 1535.36 Q1267.08 1539.14 1267.08 1546.53 Z" fill="#000000" fill-rule="nonzero" fill-opacity="1" /><path clip-path="url(#clip110)" d="M1304.42 1533.76 L1304.42 1539.24 Q1301.93 1537.87 1299.42 1537.2 Q1296.94 1536.5 1294.39 1536.5 Q1288.69 1536.5 1285.54 1540.13 Q1282.39 1543.73 1282.39 1550.25 Q1282.39 1556.78 1285.54 1560.4 Q1288.69 1564 1294.39 1564 Q1296.94 1564 1299.42 1563.33 Q1301.93 1562.63 1304.42 1561.26 L1304.42 1566.68 Q1301.96 1567.82 1299.32 1568.39 Q1296.71 1568.97 1293.75 1568.97 Q1285.7 1568.97 1280.96 1563.91 Q1276.22 1558.85 1276.22 1550.25 Q1276.22 1541.53 1280.99 1536.53 Q1285.8 1531.54 1294.14 1531.54 Q1296.84 1531.54 1299.42 1532.11 Q1302 1532.65 1304.42 1533.76 Z" fill="#000000" fill-rule="nonzero" fill-opacity="1" /><path clip-path="url(#clip110)" d="M1314.6 1532.4 L1320.46 1532.4 L1320.46 1568.04 L1314.6 1568.04 L1314.6 1532.4 M1314.6 1518.52 L1320.46 1518.52 L1320.46 1525.93 L1314.6 1525.93 L1314.6 1518.52 Z" fill="#000000" fill-rule="nonzero" fill-opacity="1" /><path clip-path="url(#clip110)" d="M1363.2 1548.76 L1363.2 1551.62 L1336.28 1551.62 Q1336.66 1557.67 1339.9 1560.85 Q1343.18 1564 1349.01 1564 Q1352.38 1564 1355.53 1563.17 Q1358.72 1562.35 1361.83 1560.69 L1361.83 1566.23 Q1358.68 1567.57 1355.37 1568.27 Q1352.06 1568.97 1348.66 1568.97 Q1340.13 1568.97 1335.13 1564 Q1330.17 1559.04 1330.17 1550.57 Q1330.17 1541.82 1334.88 1536.69 Q1339.62 1531.54 1347.64 1531.54 Q1354.83 1531.54 1359 1536.18 Q1363.2 1540.8 1363.2 1548.76 M1357.35 1547.04 Q1357.28 1542.23 1354.64 1539.37 Q1352.03 1536.5 1347.7 1536.5 Q1342.8 1536.5 1339.84 1539.27 Q1336.91 1542.04 1336.47 1547.07 L1357.35 1547.04 Z" fill="#000000" fill-rule="nonzero" fill-opacity="1" /><path clip-path="url(#clip110)" d="M1395.54 1533.45 L1395.54 1538.98 Q1393.06 1537.71 1390.38 1537.07 Q1387.71 1536.44 1384.85 1536.44 Q1380.49 1536.44 1378.29 1537.77 Q1376.13 1539.11 1376.13 1541.79 Q1376.13 1543.82 1377.69 1545 Q1379.24 1546.15 1383.96 1547.2 L1385.96 1547.64 Q1392.2 1548.98 1394.81 1551.43 Q1397.45 1553.85 1397.45 1558.21 Q1397.45 1563.17 1393.5 1566.07 Q1389.59 1568.97 1382.71 1568.97 Q1379.85 1568.97 1376.73 1568.39 Q1373.64 1567.85 1370.21 1566.74 L1370.21 1560.69 Q1373.45 1562.38 1376.6 1563.24 Q1379.75 1564.07 1382.84 1564.07 Q1386.98 1564.07 1389.21 1562.66 Q1391.43 1561.23 1391.43 1558.65 Q1391.43 1556.27 1389.81 1554.99 Q1388.22 1553.72 1382.78 1552.54 L1380.74 1552.07 Q1375.3 1550.92 1372.88 1548.56 Q1370.46 1546.18 1370.46 1542.04 Q1370.46 1537.01 1374.02 1534.27 Q1377.59 1531.54 1384.15 1531.54 Q1387.39 1531.54 1390.26 1532.01 Q1393.12 1532.49 1395.54 1533.45 Z" fill="#000000" fill-rule="nonzero" fill-opacity="1" /><path clip-path="url(#clip110)" d="M1426.96 1518.52 L1440.45 1518.52 L1440.45 1523.07 L1432.81 1523.07 L1432.81 1572.09 L1440.45 1572.09 L1440.45 1576.64 L1426.96 1576.64 L1426.96 1518.52 Z" fill="#000000" fill-rule="nonzero" fill-opacity="1" /><path clip-path="url(#clip110)" d="M1485.58 1561.26 L1485.58 1548.5 L1475.08 1548.5 L1475.08 1543.22 L1491.95 1543.22 L1491.95 1563.62 Q1488.23 1566.26 1483.74 1567.63 Q1479.25 1568.97 1474.16 1568.97 Q1463.02 1568.97 1456.72 1562.47 Q1450.45 1555.95 1450.45 1544.33 Q1450.45 1532.68 1456.72 1526.19 Q1463.02 1519.66 1474.16 1519.66 Q1478.8 1519.66 1482.97 1520.81 Q1487.18 1521.96 1490.71 1524.18 L1490.71 1531.03 Q1487.14 1528 1483.13 1526.48 Q1479.12 1524.95 1474.7 1524.95 Q1465.98 1524.95 1461.59 1529.82 Q1457.22 1534.69 1457.22 1544.33 Q1457.22 1553.94 1461.59 1558.81 Q1465.98 1563.68 1474.7 1563.68 Q1478.1 1563.68 1480.78 1563.11 Q1483.45 1562.51 1485.58 1561.26 Z" fill="#000000" fill-rule="nonzero" fill-opacity="1" /><path clip-path="url(#clip110)" d="M1503.69 1520.52 L1510.12 1520.52 L1510.12 1540 L1533.49 1540 L1533.49 1520.52 L1539.92 1520.52 L1539.92 1568.04 L1533.49 1568.04 L1533.49 1545.41 L1510.12 1545.41 L1510.12 1568.04 L1503.69 1568.04 L1503.69 1520.52 Z" fill="#000000" fill-rule="nonzero" fill-opacity="1" /><path clip-path="url(#clip110)" d="M1549.91 1532.4 L1577.73 1532.4 L1577.73 1537.74 L1555.7 1563.37 L1577.73 1563.37 L1577.73 1568.04 L1549.11 1568.04 L1549.11 1562.7 L1571.14 1537.07 L1549.91 1537.07 L1549.91 1532.4 Z" fill="#000000" fill-rule="nonzero" fill-opacity="1" /><path clip-path="url(#clip110)" d="M1600.36 1518.52 L1600.36 1576.64 L1586.86 1576.64 L1586.86 1572.09 L1594.47 1572.09 L1594.47 1523.07 L1586.86 1523.07 L1586.86 1518.52 L1600.36 1518.52 Z" fill="#000000" fill-rule="nonzero" fill-opacity="1" /><polyline clip-path="url(#clip110)" style="stroke:#000000; stroke-linecap:round; stroke-linejoin:round; stroke-width:4; stroke-opacity:1; fill:none" points="264.287,1423.18 264.287,47.2441 "/>
<polyline clip-path="url(#clip110)" style="stroke:#000000; stroke-linecap:round; stroke-linejoin:round; stroke-width:4; stroke-opacity:1; fill:none" points="264.287,1384.24 283.185,1384.24 "/>
<polyline clip-path="url(#clip110)" style="stroke:#000000; stroke-linecap:round; stroke-linejoin:round; stroke-width:4; stroke-opacity:1; fill:none" points="264.287,1047.71 283.185,1047.71 "/>
<polyline clip-path="url(#clip110)" style="stroke:#000000; stroke-linecap:round; stroke-linejoin:round; stroke-width:4; stroke-opacity:1; fill:none" points="264.287,711.189 283.185,711.189 "/>
<polyline clip-path="url(#clip110)" style="stroke:#000000; stroke-linecap:round; stroke-linejoin:round; stroke-width:4; stroke-opacity:1; fill:none" points="264.287,374.665 283.185,374.665 "/>
<path clip-path="url(#clip110)" d="M216.343 1370.04 Q212.732 1370.04 210.903 1373.6 Q209.098 1377.14 209.098 1384.27 Q209.098 1391.38 210.903 1394.94 Q212.732 1398.49 216.343 1398.49 Q219.977 1398.49 221.783 1394.94 Q223.611 1391.38 223.611 1384.27 Q223.611 1377.14 221.783 1373.6 Q219.977 1370.04 216.343 1370.04 M216.343 1366.33 Q222.153 1366.33 225.209 1370.94 Q228.287 1375.52 228.287 1384.27 Q228.287 1393 225.209 1397.61 Q222.153 1402.19 216.343 1402.19 Q210.533 1402.19 207.454 1397.61 Q204.399 1393 204.399 1384.27 Q204.399 1375.52 207.454 1370.94 Q210.533 1366.33 216.343 1366.33 Z" fill="#000000" fill-rule="nonzero" fill-opacity="1" /><path clip-path="url(#clip110)" d="M116.668 1061.06 L124.306 1061.06 L124.306 1034.69 L115.996 1036.36 L115.996 1032.1 L124.26 1030.43 L128.936 1030.43 L128.936 1061.06 L136.575 1061.06 L136.575 1064.99 L116.668 1064.99 L116.668 1061.06 Z" fill="#000000" fill-rule="nonzero" fill-opacity="1" /><path clip-path="url(#clip110)" d="M156.019 1033.51 Q152.408 1033.51 150.579 1037.08 Q148.774 1040.62 148.774 1047.75 Q148.774 1054.85 150.579 1058.42 Q152.408 1061.96 156.019 1061.96 Q159.653 1061.96 161.459 1058.42 Q163.288 1054.85 163.288 1047.75 Q163.288 1040.62 161.459 1037.08 Q159.653 1033.51 156.019 1033.51 M156.019 1029.81 Q161.829 1029.81 164.885 1034.42 Q167.964 1039 167.964 1047.75 Q167.964 1056.48 164.885 1061.08 Q161.829 1065.67 156.019 1065.67 Q150.209 1065.67 147.13 1061.08 Q144.075 1056.48 144.075 1047.75 Q144.075 1039 147.13 1034.42 Q150.209 1029.81 156.019 1029.81 Z" fill="#000000" fill-rule="nonzero" fill-opacity="1" /><path clip-path="url(#clip110)" d="M186.181 1033.51 Q182.57 1033.51 180.741 1037.08 Q178.936 1040.62 178.936 1047.75 Q178.936 1054.85 180.741 1058.42 Q182.57 1061.96 186.181 1061.96 Q189.815 1061.96 191.621 1058.42 Q193.45 1054.85 193.45 1047.75 Q193.45 1040.62 191.621 1037.08 Q189.815 1033.51 186.181 1033.51 M186.181 1029.81 Q191.991 1029.81 195.047 1034.42 Q198.125 1039 198.125 1047.75 Q198.125 1056.48 195.047 1061.08 Q191.991 1065.67 186.181 1065.67 Q180.371 1065.67 177.292 1061.08 Q174.237 1056.48 174.237 1047.75 Q174.237 1039 177.292 1034.42 Q180.371 1029.81 186.181 1029.81 Z" fill="#000000" fill-rule="nonzero" fill-opacity="1" /><path clip-path="url(#clip110)" d="M216.343 1033.51 Q212.732 1033.51 210.903 1037.08 Q209.098 1040.62 209.098 1047.75 Q209.098 1054.85 210.903 1058.42 Q212.732 1061.96 216.343 1061.96 Q219.977 1061.96 221.783 1058.42 Q223.611 1054.85 223.611 1047.75 Q223.611 1040.62 221.783 1037.08 Q219.977 1033.51 216.343 1033.51 M216.343 1029.81 Q222.153 1029.81 225.209 1034.42 Q228.287 1039 228.287 1047.75 Q228.287 1056.48 225.209 1061.08 Q222.153 1065.67 216.343 1065.67 Q210.533 1065.67 207.454 1061.08 Q204.399 1056.48 204.399 1047.75 Q204.399 1039 207.454 1034.42 Q210.533 1029.81 216.343 1029.81 Z" fill="#000000" fill-rule="nonzero" fill-opacity="1" /><path clip-path="url(#clip110)" d="M119.885 724.534 L136.204 724.534 L136.204 728.469 L114.26 728.469 L114.26 724.534 Q116.922 721.779 121.505 717.15 Q126.112 712.497 127.292 711.154 Q129.538 708.631 130.417 706.895 Q131.32 705.136 131.32 703.446 Q131.32 700.691 129.376 698.955 Q127.455 697.219 124.353 697.219 Q122.154 697.219 119.7 697.983 Q117.269 698.747 114.492 700.298 L114.492 695.576 Q117.316 694.442 119.769 693.863 Q122.223 693.284 124.26 693.284 Q129.63 693.284 132.825 695.969 Q136.019 698.654 136.019 703.145 Q136.019 705.275 135.209 707.196 Q134.422 709.094 132.316 711.687 Q131.737 712.358 128.635 715.576 Q125.533 718.77 119.885 724.534 Z" fill="#000000" fill-rule="nonzero" fill-opacity="1" /><path clip-path="url(#clip110)" d="M156.019 696.988 Q152.408 696.988 150.579 700.553 Q148.774 704.094 148.774 711.224 Q148.774 718.33 150.579 721.895 Q152.408 725.437 156.019 725.437 Q159.653 725.437 161.459 721.895 Q163.288 718.33 163.288 711.224 Q163.288 704.094 161.459 700.553 Q159.653 696.988 156.019 696.988 M156.019 693.284 Q161.829 693.284 164.885 697.891 Q167.964 702.474 167.964 711.224 Q167.964 719.951 164.885 724.557 Q161.829 729.14 156.019 729.14 Q150.209 729.14 147.13 724.557 Q144.075 719.951 144.075 711.224 Q144.075 702.474 147.13 697.891 Q150.209 693.284 156.019 693.284 Z" fill="#000000" fill-rule="nonzero" fill-opacity="1" /><path clip-path="url(#clip110)" d="M186.181 696.988 Q182.57 696.988 180.741 700.553 Q178.936 704.094 178.936 711.224 Q178.936 718.33 180.741 721.895 Q182.57 725.437 186.181 725.437 Q189.815 725.437 191.621 721.895 Q193.45 718.33 193.45 711.224 Q193.45 704.094 191.621 700.553 Q189.815 696.988 186.181 696.988 M186.181 693.284 Q191.991 693.284 195.047 697.891 Q198.125 702.474 198.125 711.224 Q198.125 719.951 195.047 724.557 Q191.991 729.14 186.181 729.14 Q180.371 729.14 177.292 724.557 Q174.237 719.951 174.237 711.224 Q174.237 702.474 177.292 697.891 Q180.371 693.284 186.181 693.284 Z" fill="#000000" fill-rule="nonzero" fill-opacity="1" /><path clip-path="url(#clip110)" d="M216.343 696.988 Q212.732 696.988 210.903 700.553 Q209.098 704.094 209.098 711.224 Q209.098 718.33 210.903 721.895 Q212.732 725.437 216.343 725.437 Q219.977 725.437 221.783 721.895 Q223.611 718.33 223.611 711.224 Q223.611 704.094 221.783 700.553 Q219.977 696.988 216.343 696.988 M216.343 693.284 Q222.153 693.284 225.209 697.891 Q228.287 702.474 228.287 711.224 Q228.287 719.951 225.209 724.557 Q222.153 729.14 216.343 729.14 Q210.533 729.14 207.454 724.557 Q204.399 719.951 204.399 711.224 Q204.399 702.474 207.454 697.891 Q210.533 693.284 216.343 693.284 Z" fill="#000000" fill-rule="nonzero" fill-opacity="1" /><path clip-path="url(#clip110)" d="M130.024 373.31 Q133.38 374.028 135.255 376.296 Q137.154 378.565 137.154 381.898 Q137.154 387.014 133.635 389.815 Q130.117 392.616 123.635 392.616 Q121.459 392.616 119.144 392.176 Q116.853 391.759 114.399 390.903 L114.399 386.389 Q116.343 387.523 118.658 388.102 Q120.973 388.681 123.496 388.681 Q127.894 388.681 130.186 386.945 Q132.501 385.208 132.501 381.898 Q132.501 378.843 130.348 377.13 Q128.218 375.394 124.399 375.394 L120.371 375.394 L120.371 371.551 L124.584 371.551 Q128.033 371.551 129.862 370.185 Q131.691 368.796 131.691 366.204 Q131.691 363.542 129.792 362.13 Q127.917 360.695 124.399 360.695 Q122.478 360.695 120.279 361.111 Q118.08 361.528 115.441 362.408 L115.441 358.241 Q118.103 357.5 120.418 357.13 Q122.755 356.76 124.816 356.76 Q130.14 356.76 133.242 359.19 Q136.343 361.597 136.343 365.718 Q136.343 368.588 134.7 370.579 Q133.056 372.546 130.024 373.31 Z" fill="#000000" fill-rule="nonzero" fill-opacity="1" /><path clip-path="url(#clip110)" d="M156.019 360.463 Q152.408 360.463 150.579 364.028 Q148.774 367.57 148.774 374.699 Q148.774 381.806 150.579 385.37 Q152.408 388.912 156.019 388.912 Q159.653 388.912 161.459 385.37 Q163.288 381.806 163.288 374.699 Q163.288 367.57 161.459 364.028 Q159.653 360.463 156.019 360.463 M156.019 356.76 Q161.829 356.76 164.885 361.366 Q167.964 365.949 167.964 374.699 Q167.964 383.426 164.885 388.032 Q161.829 392.616 156.019 392.616 Q150.209 392.616 147.13 388.032 Q144.075 383.426 144.075 374.699 Q144.075 365.949 147.13 361.366 Q150.209 356.76 156.019 356.76 Z" fill="#000000" fill-rule="nonzero" fill-opacity="1" /><path clip-path="url(#clip110)" d="M186.181 360.463 Q182.57 360.463 180.741 364.028 Q178.936 367.57 178.936 374.699 Q178.936 381.806 180.741 385.37 Q182.57 388.912 186.181 388.912 Q189.815 388.912 191.621 385.37 Q193.45 381.806 193.45 374.699 Q193.45 367.57 191.621 364.028 Q189.815 360.463 186.181 360.463 M186.181 356.76 Q191.991 356.76 195.047 361.366 Q198.125 365.949 198.125 374.699 Q198.125 383.426 195.047 388.032 Q191.991 392.616 186.181 392.616 Q180.371 392.616 177.292 388.032 Q174.237 383.426 174.237 374.699 Q174.237 365.949 177.292 361.366 Q180.371 356.76 186.181 356.76 Z" fill="#000000" fill-rule="nonzero" fill-opacity="1" /><path clip-path="url(#clip110)" d="M216.343 360.463 Q212.732 360.463 210.903 364.028 Q209.098 367.57 209.098 374.699 Q209.098 381.806 210.903 385.37 Q212.732 388.912 216.343 388.912 Q219.977 388.912 221.783 385.37 Q223.611 381.806 223.611 374.699 Q223.611 367.57 221.783 364.028 Q219.977 360.463 216.343 360.463 M216.343 356.76 Q222.153 356.76 225.209 361.366 Q228.287 365.949 228.287 374.699 Q228.287 383.426 225.209 388.032 Q222.153 392.616 216.343 392.616 Q210.533 392.616 207.454 388.032 Q204.399 383.426 204.399 374.699 Q204.399 365.949 207.454 361.366 Q210.533 356.76 216.343 356.76 Z" fill="#000000" fill-rule="nonzero" fill-opacity="1" /><path clip-path="url(#clip110)" d="M41.3104 969.884 L58.7206 969.884 L58.7206 959.571 Q58.7206 954.383 56.5881 951.901 Q54.4238 949.386 49.9996 949.386 Q45.5436 949.386 43.4429 951.901 Q41.3104 954.383 41.3104 959.571 L41.3104 969.884 M21.7677 969.884 L36.0905 969.884 L36.0905 960.367 Q36.0905 955.656 34.34 953.365 Q32.5576 951.041 28.9291 951.041 Q25.3325 951.041 23.5501 953.365 Q21.7677 955.656 21.7677 960.367 L21.7677 969.884 M16.4842 976.313 L16.4842 959.89 Q16.4842 952.537 19.5397 948.559 Q22.5952 944.58 28.2289 944.58 Q32.5894 944.58 35.1675 946.617 Q37.7456 948.654 38.3822 952.601 Q39.4007 947.858 42.6472 945.248 Q45.8619 942.607 50.6998 942.607 Q57.0655 942.607 60.5348 946.935 Q64.0042 951.264 64.0042 959.253 L64.0042 976.313 L16.4842 976.313 Z" fill="#000000" fill-rule="nonzero" fill-opacity="1" /><path clip-path="url(#clip110)" d="M32.4621 918.035 Q32.4621 922.746 36.1542 925.483 Q39.8145 928.22 46.212 928.22 Q52.6095 928.22 56.3017 925.515 Q59.9619 922.778 59.9619 918.035 Q59.9619 913.356 56.2698 910.619 Q52.5777 907.882 46.212 907.882 Q39.8781 907.882 36.186 910.619 Q32.4621 913.356 32.4621 918.035 M27.4968 918.035 Q27.4968 910.396 32.4621 906.036 Q37.4273 901.675 46.212 901.675 Q54.9649 901.675 59.9619 906.036 Q64.9272 910.396 64.9272 918.035 Q64.9272 925.706 59.9619 930.066 Q54.9649 934.395 46.212 934.395 Q37.4273 934.395 32.4621 930.066 Q27.4968 925.706 27.4968 918.035 Z" fill="#000000" fill-rule="nonzero" fill-opacity="1" /><path clip-path="url(#clip110)" d="M32.4621 878.154 Q32.4621 882.865 36.1542 885.602 Q39.8145 888.339 46.212 888.339 Q52.6095 888.339 56.3017 885.634 Q59.9619 882.896 59.9619 878.154 Q59.9619 873.475 56.2698 870.738 Q52.5777 868.001 46.212 868.001 Q39.8781 868.001 36.186 870.738 Q32.4621 873.475 32.4621 878.154 M27.4968 878.154 Q27.4968 870.515 32.4621 866.155 Q37.4273 861.794 46.212 861.794 Q54.9649 861.794 59.9619 866.155 Q64.9272 870.515 64.9272 878.154 Q64.9272 885.825 59.9619 890.185 Q54.9649 894.514 46.212 894.514 Q37.4273 894.514 32.4621 890.185 Q27.4968 885.825 27.4968 878.154 Z" fill="#000000" fill-rule="nonzero" fill-opacity="1" /><path clip-path="url(#clip110)" d="M29.4065 829.361 L34.9447 829.361 Q33.6716 831.843 33.035 834.517 Q32.3984 837.191 32.3984 840.055 Q32.3984 844.416 33.7352 846.612 Q35.072 848.776 37.7456 848.776 Q39.7826 848.776 40.9603 847.217 Q42.1061 845.657 43.1565 840.946 L43.6021 838.941 Q44.9389 832.703 47.3897 830.093 Q49.8086 827.451 54.1691 827.451 Q59.1344 827.451 62.0308 831.398 Q64.9272 835.313 64.9272 842.188 Q64.9272 845.052 64.3543 848.171 Q63.8132 851.259 62.6992 854.696 L56.6518 854.696 Q58.3387 851.45 59.198 848.299 Q60.0256 845.148 60.0256 842.06 Q60.0256 837.923 58.6251 835.695 Q57.1929 833.467 54.6147 833.467 Q52.2276 833.467 50.9545 835.09 Q49.6813 836.681 48.5037 842.124 L48.0262 844.161 Q46.8804 849.604 44.5251 852.023 Q42.138 854.442 38.0002 854.442 Q32.9713 854.442 30.2341 850.877 Q27.4968 847.312 27.4968 840.755 Q27.4968 837.509 27.9743 834.644 Q28.4517 831.78 29.4065 829.361 Z" fill="#000000" fill-rule="nonzero" fill-opacity="1" /><path clip-path="url(#clip110)" d="M18.2347 812.333 L28.3562 812.333 L28.3562 800.269 L32.9077 800.269 L32.9077 812.333 L52.2594 812.333 Q56.6199 812.333 57.8613 811.155 Q59.1026 809.945 59.1026 806.285 L59.1026 800.269 L64.0042 800.269 L64.0042 806.285 Q64.0042 813.065 61.4897 815.643 Q58.9434 818.221 52.2594 818.221 L32.9077 818.221 L32.9077 822.518 L28.3562 822.518 L28.3562 818.221 L18.2347 818.221 L18.2347 812.333 Z" fill="#000000" fill-rule="nonzero" fill-opacity="1" /><path clip-path="url(#clip110)" d="M16.4842 771.592 L16.4842 744.283 L21.895 744.283 L21.895 765.163 L35.8996 765.163 L35.8996 746.32 L41.3104 746.32 L41.3104 765.163 L64.0042 765.163 L64.0042 771.592 L16.4842 771.592 Z" fill="#000000" fill-rule="nonzero" fill-opacity="1" /><path clip-path="url(#clip110)" d="M46.0847 724.136 Q46.0847 731.233 47.7079 733.971 Q49.3312 736.708 53.2461 736.708 Q56.3653 736.708 58.2114 734.671 Q60.0256 732.602 60.0256 729.069 Q60.0256 724.199 56.5881 721.271 Q53.1188 718.311 47.3897 718.311 L46.0847 718.311 L46.0847 724.136 M43.6657 712.455 L64.0042 712.455 L64.0042 718.311 L58.5933 718.311 Q61.8398 720.316 63.3994 723.308 Q64.9272 726.3 64.9272 730.629 Q64.9272 736.103 61.8716 739.35 Q58.7843 742.564 53.6281 742.564 Q47.6125 742.564 44.5569 738.554 Q41.5014 734.512 41.5014 726.523 L41.5014 718.311 L40.9285 718.311 Q36.8862 718.311 34.6901 720.985 Q32.4621 723.626 32.4621 728.432 Q32.4621 731.488 33.1941 734.384 Q33.9262 737.281 35.3903 739.954 L29.9795 739.954 Q28.7381 736.74 28.1334 733.716 Q27.4968 730.692 27.4968 727.828 Q27.4968 720.093 31.5072 716.274 Q35.5176 712.455 43.6657 712.455 Z" fill="#000000" fill-rule="nonzero" fill-opacity="1" /><path clip-path="url(#clip110)" d="M29.7248 674.738 L35.1993 674.738 Q33.8307 677.22 33.1623 679.735 Q32.4621 682.217 32.4621 684.764 Q32.4621 690.461 36.0905 693.612 Q39.6872 696.763 46.212 696.763 Q52.7369 696.763 56.3653 693.612 Q59.9619 690.461 59.9619 684.764 Q59.9619 682.217 59.2935 679.735 Q58.5933 677.22 57.2247 674.738 L62.6355 674.738 Q63.7814 677.189 64.3543 679.83 Q64.9272 682.44 64.9272 685.4 Q64.9272 693.453 59.8664 698.195 Q54.8057 702.938 46.212 702.938 Q37.491 702.938 32.4939 698.164 Q27.4968 693.357 27.4968 685.018 Q27.4968 682.313 28.0697 679.735 Q28.6108 677.157 29.7248 674.738 Z" fill="#000000" fill-rule="nonzero" fill-opacity="1" /><path clip-path="url(#clip110)" d="M18.2347 658.76 L28.3562 658.76 L28.3562 646.697 L32.9077 646.697 L32.9077 658.76 L52.2594 658.76 Q56.6199 658.76 57.8613 657.582 Q59.1026 656.373 59.1026 652.712 L59.1026 646.697 L64.0042 646.697 L64.0042 652.712 Q64.0042 659.492 61.4897 662.07 Q58.9434 664.648 52.2594 664.648 L32.9077 664.648 L32.9077 668.945 L28.3562 668.945 L28.3562 664.648 L18.2347 664.648 L18.2347 658.76 Z" fill="#000000" fill-rule="nonzero" fill-opacity="1" /><path clip-path="url(#clip110)" d="M32.4621 625.181 Q32.4621 629.891 36.1542 632.629 Q39.8145 635.366 46.212 635.366 Q52.6095 635.366 56.3017 632.66 Q59.9619 629.923 59.9619 625.181 Q59.9619 620.502 56.2698 617.765 Q52.5777 615.027 46.212 615.027 Q39.8781 615.027 36.186 617.765 Q32.4621 620.502 32.4621 625.181 M27.4968 625.181 Q27.4968 617.542 32.4621 613.181 Q37.4273 608.821 46.212 608.821 Q54.9649 608.821 59.9619 613.181 Q64.9272 617.542 64.9272 625.181 Q64.9272 632.851 59.9619 637.212 Q54.9649 641.541 46.212 641.541 Q37.4273 641.541 32.4621 637.212 Q27.4968 632.851 27.4968 625.181 Z" fill="#000000" fill-rule="nonzero" fill-opacity="1" /><path clip-path="url(#clip110)" d="M33.8307 578.456 Q33.2578 579.443 33.0032 580.621 Q32.7167 581.767 32.7167 583.167 Q32.7167 588.132 35.9632 590.806 Q39.1779 593.448 45.2253 593.448 L64.0042 593.448 L64.0042 599.336 L28.3562 599.336 L28.3562 593.448 L33.8944 593.448 Q30.6479 591.602 29.0883 588.642 Q27.4968 585.682 27.4968 581.448 Q27.4968 580.844 27.5923 580.112 Q27.656 579.379 27.8151 578.488 L33.8307 578.456 Z" fill="#000000" fill-rule="nonzero" fill-opacity="1" /><path clip-path="url(#clip110)" d="M61.808 545.737 L77.5631 545.737 L77.5631 551.625 L28.579 551.625 Q14.0652 551.625 14.0652 538.066 Q14.0652 524.252 26.3192 524.252 Q35.0402 524.252 38.223 529.727 Q41.0876 520.815 49.5858 520.815 Q64.6726 520.815 64.6726 536.156 Q64.6726 542.904 61.808 545.737 M54.1691 545.737 Q59.6755 542.204 59.6755 535.934 Q59.6755 526.767 49.6813 526.767 Q40.7057 526.767 41.4059 541.535 L35.995 541.535 Q35.995 529.982 25.8099 529.982 Q18.8395 529.982 18.8395 537.429 Q18.8395 545.737 28.77 545.737 L54.1691 545.737 Z" fill="#000000" fill-rule="nonzero" fill-opacity="1" /><path clip-path="url(#clip110)" d="M39.1142 507.606 L39.1142 494.111 L42.7427 494.111 L42.7427 513.144 L39.2416 513.144 Q38.2549 512.062 36.4725 510.057 Q26.7648 499.108 23.7729 499.108 Q21.6722 499.108 20.3991 500.763 Q19.0941 502.418 19.0941 505.124 Q19.0941 506.779 19.667 508.72 Q20.2081 510.662 21.3221 512.953 L17.4072 512.953 Q16.516 510.503 16.0704 508.402 Q15.6248 506.269 15.6248 504.455 Q15.6248 499.84 17.7255 497.071 Q19.8262 494.302 23.2636 494.302 Q27.6878 494.302 36.7271 504.837 Q38.2549 506.619 39.1142 507.606 Z" fill="#000000" fill-rule="nonzero" fill-opacity="1" /><polyline clip-path="url(#clip112)" style="stroke:#009af9; stroke-linecap:round; stroke-linejoin:round; stroke-width:4; stroke-opacity:1; fill:none" points="323.395,1382.62 325.367,1382.6 327.339,1382.59 329.312,1382.57 331.284,1382.56 333.256,1382.54 335.228,1382.53 337.201,1382.51 339.173,1382.5 341.145,1382.48 343.117,1382.46 345.089,1382.45 347.062,1382.43 349.034,1382.42 351.006,1382.4 352.978,1382.38 354.951,1382.37 356.923,1382.35 358.895,1382.33 360.867,1382.32 362.839,1382.3 364.812,1382.28 366.784,1382.26 368.756,1382.25 370.728,1382.23 372.701,1382.21 374.673,1382.19 376.645,1382.18 378.617,1382.16 380.589,1382.14 382.562,1382.12 384.534,1382.1 386.506,1382.08 388.478,1382.06 390.451,1382.04 392.423,1382.03 394.395,1382.01 396.367,1381.99 398.339,1381.97 400.312,1381.95 402.284,1381.93 404.256,1381.91 406.228,1381.89 408.201,1381.86 410.173,1381.84 412.145,1381.82 414.117,1381.8 416.09,1381.78 418.062,1381.76 420.034,1381.74 422.006,1381.72 423.978,1381.69 425.951,1381.67 427.923,1381.65 429.895,1381.63 431.867,1381.61 433.84,1381.58 435.812,1381.56 437.784,1381.54 439.756,1381.51 441.728,1381.49 443.701,1381.47 445.673,1381.44 447.645,1381.42 449.617,1381.4 451.59,1381.37 453.562,1381.35 455.534,1381.32 457.506,1381.3 459.478,1381.27 461.451,1381.25 463.423,1381.23 465.395,1381.2 467.367,1381.18 469.34,1381.15 471.312,1381.13 473.284,1381.1 475.256,1381.08 477.229,1381.05 479.201,1381.02 481.173,1381 483.145,1380.97 485.117,1380.95 487.09,1380.92 489.062,1380.9 491.034,1380.87 493.006,1380.85 494.979,1380.82 496.951,1380.8 498.923,1380.77 500.895,1380.74 502.867,1380.72 504.84,1380.69 506.812,1380.67 508.784,1380.64 510.756,1380.62 512.729,1380.6 514.701,1380.57 516.673,1380.55 518.645,1380.52 520.617,1380.5 522.59,1380.48 524.562,1380.45 526.534,1380.43 528.506,1380.41 530.479,1380.39 532.451,1380.36 534.423,1380.34 536.395,1380.32 538.368,1380.3 540.34,1380.28 542.312,1380.27 544.284,1380.25 546.256,1380.23 548.229,1380.22 550.201,1380.2 552.173,1380.19 554.145,1380.17 556.118,1380.16 558.09,1380.15 560.062,1380.14 562.034,1380.13 564.006,1380.12 565.979,1380.11 567.951,1380.11 569.923,1380.1 571.895,1380.1 573.868,1380.1 575.84,1380.1 577.812,1380.1 579.784,1380.11 581.756,1380.12 583.729,1380.12 585.701,1380.13 587.673,1380.15 589.645,1380.16 591.618,1380.18 593.59,1380.2 595.562,1380.22 597.534,1380.24 599.507,1380.27 601.479,1380.3 603.451,1380.33 605.423,1380.36 607.395,1380.4 609.368,1380.44 611.34,1380.48 613.312,1380.53 615.284,1380.58 617.257,1380.63 619.229,1380.68 621.201,1380.74 623.173,1380.8 625.145,1380.86 627.118,1380.92 629.09,1380.99 631.062,1381.06 633.034,1381.13 635.007,1381.21 636.979,1381.29 638.951,1381.36 640.923,1381.45 642.895,1381.53 644.868,1381.61 646.84,1381.7 648.812,1381.79 650.784,1381.88 652.757,1381.97 654.729,1382.06 656.701,1382.15 658.673,1382.24 660.646,1382.34 662.618,1382.43 664.59,1382.52 666.562,1382.61 668.534,1382.7 670.507,1382.79 672.479,1382.88 674.451,1382.97 676.423,1383.05 678.396,1383.13 680.368,1383.22 682.34,1383.29 684.312,1383.37 686.284,1383.45 688.257,1383.52 690.229,1383.59 692.201,1383.65 694.173,1383.71 696.146,1383.77 698.118,1383.83 700.09,1383.88 702.062,1383.93 704.034,1383.97 706.007,1384.02 707.979,1384.05 709.951,1384.09 711.923,1384.12 713.896,1384.15 715.868,1384.17 717.84,1384.19 719.812,1384.21 721.784,1384.22 723.757,1384.23 725.729,1384.24 727.701,1384.24 729.673,1384.24 731.646,1384.23 733.618,1384.23 735.59,1384.22 737.562,1384.2 739.535,1384.18 741.507,1384.16 743.479,1384.14 745.451,1384.12 747.423,1384.09 749.396,1384.06 751.368,1384.02 753.34,1383.99 755.312,1383.95 757.285,1383.91 759.257,1383.86 761.229,1383.82 763.201,1383.77 765.173,1383.72 767.146,1383.67 769.118,1383.61 771.09,1383.56 773.062,1383.5 775.035,1383.44 777.007,1383.37 778.979,1383.31 780.951,1383.24 782.923,1383.18 784.896,1383.11 786.868,1383.04 788.84,1382.96 790.812,1382.89 792.785,1382.81 794.757,1382.74 796.729,1382.66 798.701,1382.58 800.674,1382.49 802.646,1382.41 804.618,1382.33 806.59,1382.24 808.562,1382.15 810.535,1382.06 812.507,1381.97 814.479,1381.88 816.451,1381.79 818.424,1381.69 820.396,1381.6 822.368,1381.5 824.34,1381.4 826.312,1381.3 828.285,1381.2 830.257,1381.09 832.229,1380.99 834.201,1380.88 836.174,1380.78 838.146,1380.67 840.118,1380.56 842.09,1380.45 844.062,1380.33 846.035,1380.22 848.007,1380.1 849.979,1379.99 851.951,1379.87 853.924,1379.75 855.896,1379.63 857.868,1379.5 859.84,1379.38 861.813,1379.25 863.785,1379.12 865.757,1378.99 867.729,1378.86 869.701,1378.73 871.674,1378.59 873.646,1378.45 875.618,1378.32 877.59,1378.17 879.563,1378.03 881.535,1377.89 883.507,1377.74 885.479,1377.59 887.451,1377.44 889.424,1377.29 891.396,1377.14 893.368,1376.98 895.34,1376.82 897.313,1376.66 899.285,1376.5 901.257,1376.33 903.229,1376.16 905.201,1375.99 907.174,1375.82 909.146,1375.64 911.118,1375.47 913.09,1375.28 915.063,1375.1 917.035,1374.92 919.007,1374.73 920.979,1374.54 922.952,1374.34 924.924,1374.14 926.896,1373.94 928.868,1373.74 930.84,1373.53 932.813,1373.32 934.785,1373.11 936.757,1372.89 938.729,1372.67 940.702,1372.45 942.674,1372.22 944.646,1371.99 946.618,1371.75 948.59,1371.51 950.563,1371.27 952.535,1371.02 954.507,1370.77 956.479,1370.52 958.452,1370.26 960.424,1369.99 962.396,1369.73 964.368,1369.45 966.34,1369.17 968.313,1368.89 970.285,1368.6 972.257,1368.31 974.229,1368.01 976.202,1367.71 978.174,1367.4 980.146,1367.08 982.118,1366.76 984.091,1366.43 986.063,1366.1 988.035,1365.76 990.007,1365.41 991.979,1365.06 993.952,1364.7 995.924,1364.33 997.896,1363.96 999.868,1363.58 1001.84,1363.19 1003.81,1362.79 1005.78,1362.39 1007.76,1361.98 1009.73,1361.56 1011.7,1361.13 1013.67,1360.69 1015.65,1360.24 1017.62,1359.78 1019.59,1359.32 1021.56,1358.84 1023.54,1358.36 1025.51,1357.86 1027.48,1357.35 1029.45,1356.83 1031.42,1356.3 1033.4,1355.76 1035.37,1355.21 1037.34,1354.65 1039.31,1354.07 1041.29,1353.48 1043.26,1352.87 1045.23,1352.25 1047.2,1351.62 1049.17,1350.97 1051.15,1350.31 1053.12,1349.63 1055.09,1348.94 1057.06,1348.23 1059.04,1347.5 1061.01,1346.75 1062.98,1345.99 1064.95,1345.21 1066.92,1344.41 1068.9,1343.58 1070.87,1342.74 1072.84,1341.88 1074.81,1340.99 1076.79,1340.08 1078.76,1339.15 1080.73,1338.2 1082.7,1337.21 1084.67,1336.21 1086.65,1335.17 1088.62,1334.11 1090.59,1333.02 1092.56,1331.9 1094.54,1330.75 1096.51,1329.57 1098.48,1328.35 1100.45,1327.1 1102.42,1325.82 1104.4,1324.49 1106.37,1323.13 1108.34,1321.73 1110.31,1320.29 1112.29,1318.81 1114.26,1317.28 1116.23,1315.71 1118.2,1314.09 1120.17,1312.42 1122.15,1310.7 1124.12,1308.92 1126.09,1307.09 1128.06,1305.21 1130.04,1303.26 1132.01,1301.25 1133.98,1299.17 1135.95,1297.03 1137.92,1294.82 1139.9,1292.53 1141.87,1290.17 1143.84,1287.72 1145.81,1285.2 1147.79,1282.58 1149.76,1279.88 1151.73,1277.08 1153.7,1274.18 1155.67,1271.18 1157.65,1268.07 1159.62,1264.85 1161.59,1261.51 1163.56,1258.04 1165.54,1254.45 1167.51,1250.72 1169.48,1246.85 1171.45,1242.84 1173.42,1238.66 1175.4,1234.33 1177.37,1229.82 1179.34,1225.13 1181.31,1220.26 1183.29,1215.18 1185.26,1209.9 1187.23,1204.4 1189.2,1198.68 1191.17,1192.71 1193.15,1186.49 1195.12,1180 1197.09,1173.24 1199.06,1166.18 1201.04,1158.81 1203.01,1151.12 1204.98,1143.08 1206.95,1134.68 1208.92,1125.91 1210.9,1116.73 1212.87,1107.14 1214.84,1097.1 1216.81,1086.6 1218.79,1075.6 1220.76,1064.09 1222.73,1052.05 1224.7,1039.43 1226.67,1026.21 1228.65,1012.37 1230.62,997.874 1232.59,982.687 1234.56,966.782 1236.54,950.124 1238.51,932.684 1240.48,914.428 1242.45,895.326 1244.42,875.347 1246.4,854.465 1248.37,832.653 1250.34,809.889 1252.31,786.157 1254.29,761.445 1256.26,735.746 1258.23,709.066 1260.2,681.419 1262.17,652.83 1264.15,623.339 1266.12,593.004 1268.09,561.898 1270.06,530.118 1272.04,497.782 1274.01,465.033 1275.98,432.039 1277.95,398.997 1279.92,366.131 1281.9,333.689 1283.87,301.949 1285.84,271.205 1287.81,241.773 1289.79,213.978 1291.76,188.15 1293.73,164.616 1295.7,143.686 1297.67,125.65 1299.65,110.764 1301.62,99.2407 1303.59,91.2426 1305.56,86.8759 1307.54,86.1857 1309.51,89.1551 1311.48,95.7062 1313.45,105.703 1315.42,118.96 1317.4,135.244 1319.37,154.289 1321.34,175.804 1323.31,199.481 1325.29,225.003 1327.26,252.059 1329.23,280.341 1331.2,309.561 1333.17,339.444 1335.15,369.743 1337.12,400.232 1339.09,430.71 1341.06,461.002 1343.04,490.958 1345.01,520.449 1346.98,549.372 1348.95,577.639 1350.92,605.184 1352.9,631.955 1354.87,657.914 1356.84,683.036 1358.81,707.306 1360.79,730.718 1362.76,753.273 1364.73,774.98 1366.7,795.851 1368.67,815.901 1370.65,835.152 1372.62,853.625 1374.59,871.345 1376.56,888.335 1378.54,904.623 1380.51,920.234 1382.48,935.195 1384.45,949.533 1386.42,963.274 1388.4,976.442 1390.37,989.063 1392.34,1001.16 1394.31,1012.76 1396.29,1023.88 1398.26,1034.55 1400.23,1044.78 1402.2,1054.6 1404.17,1064.03 1406.15,1073.08 1408.12,1081.77 1410.09,1090.12 1412.06,1098.14 1414.04,1105.85 1416.01,1113.26 1417.98,1120.4 1419.95,1127.26 1421.92,1133.86 1423.9,1140.22 1425.87,1146.35 1427.84,1152.25 1429.81,1157.94 1431.79,1163.42 1433.76,1168.71 1435.73,1173.81 1437.7,1178.74 1439.67,1183.49 1441.65,1188.08 1443.62,1192.52 1445.59,1196.81 1447.56,1200.95 1449.54,1204.95 1451.51,1208.83 1453.48,1212.58 1455.45,1216.21 1457.42,1219.72 1459.4,1223.13 1461.37,1226.42 1463.34,1229.62 1465.31,1232.71 1467.29,1235.71 1469.26,1238.63 1471.23,1241.45 1473.2,1244.19 1475.17,1246.85 1477.15,1249.44 1479.12,1251.95 1481.09,1254.38 1483.06,1256.75 1485.04,1259.05 1487.01,1261.29 1488.98,1263.47 1490.95,1265.59 1492.92,1267.64 1494.9,1269.65 1496.87,1271.6 1498.84,1273.5 1500.81,1275.35 1502.79,1277.15 1504.76,1278.9 1506.73,1280.62 1508.7,1282.28 1510.67,1283.91 1512.65,1285.49 1514.62,1287.04 1516.59,1288.54 1518.56,1290.02 1520.54,1291.45 1522.51,1292.85 1524.48,1294.22 1526.45,1295.55 1528.42,1296.86 1530.4,1298.13 1532.37,1299.38 1534.34,1300.59 1536.31,1301.78 1538.29,1302.94 1540.26,1304.08 1542.23,1305.19 1544.2,1306.28 1546.17,1307.34 1548.15,1308.38 1550.12,1309.4 1552.09,1310.39 1554.06,1311.37 1556.04,1312.32 1558.01,1313.25 1559.98,1314.17 1561.95,1315.06 1563.92,1315.94 1565.9,1316.8 1567.87,1317.64 1569.84,1318.47 1571.81,1319.28 1573.79,1320.07 1575.76,1320.85 1577.73,1321.61 1579.7,1322.36 1581.67,1323.09 1583.65,1323.81 1585.62,1324.51 1587.59,1325.21 1589.56,1325.89 1591.54,1326.55 1593.51,1327.21 1595.48,1327.85 1597.45,1328.48 1599.42,1329.1 1601.4,1329.7 1603.37,1330.3 1605.34,1330.89 1607.31,1331.46 1609.29,1332.03 1611.26,1332.59 1613.23,1333.13 1615.2,1333.67 1617.17,1334.2 1619.15,1334.72 1621.12,1335.23 1623.09,1335.73 1625.06,1336.22 1627.04,1336.7 1629.01,1337.18 1630.98,1337.65 1632.95,1338.11 1634.92,1338.56 1636.9,1339.01 1638.87,1339.45 1640.84,1339.88 1642.81,1340.31 1644.79,1340.73 1646.76,1341.14 1648.73,1341.54 1650.7,1341.94 1652.67,1342.34 1654.65,1342.72 1656.62,1343.1 1658.59,1343.48 1660.56,1343.85 1662.54,1344.21 1664.51,1344.57 1666.48,1344.92 1668.45,1345.27 1670.43,1345.62 1672.4,1345.95 1674.37,1346.29 1676.34,1346.62 1678.31,1346.94 1680.29,1347.26 1682.26,1347.57 1684.23,1347.88 1686.2,1348.19 1688.18,1348.49 1690.15,1348.79 1692.12,1349.08 1694.09,1349.37 1696.06,1349.65 1698.04,1349.93 1700.01,1350.21 1701.98,1350.48 1703.95,1350.75 1705.93,1351.02 1707.9,1351.28 1709.87,1351.54 1711.84,1351.8 1713.81,1352.05 1715.79,1352.3 1717.76,1352.54 1719.73,1352.79 1721.7,1353.03 1723.68,1353.26 1725.65,1353.5 1727.62,1353.73 1729.59,1353.95 1731.56,1354.18 1733.54,1354.4 1735.51,1354.62 1737.48,1354.84 1739.45,1355.05 1741.43,1355.26 1743.4,1355.47 1745.37,1355.68 1747.34,1355.88 1749.31,1356.08 1751.29,1356.28 1753.26,1356.47 1755.23,1356.67 1757.2,1356.86 1759.18,1357.05 1761.15,1357.24 1763.12,1357.42 1765.09,1357.6 1767.06,1357.78 1769.04,1357.96 1771.01,1358.14 1772.98,1358.31 1774.95,1358.49 1776.93,1358.66 1778.9,1358.82 1780.87,1358.99 1782.84,1359.16 1784.81,1359.32 1786.79,1359.48 1788.76,1359.64 1790.73,1359.8 1792.7,1359.95 1794.68,1360.11 1796.65,1360.26 1798.62,1360.41 1800.59,1360.56 1802.56,1360.71 1804.54,1360.85 1806.51,1361 1808.48,1361.14 1810.45,1361.28 1812.43,1361.42 1814.4,1361.56 1816.37,1361.7 1818.34,1361.83 1820.31,1361.96 1822.29,1362.1 1824.26,1362.23 1826.23,1362.36 1828.2,1362.49 1830.18,1362.61 1832.15,1362.74 1834.12,1362.87 1836.09,1362.99 1838.06,1363.11 1840.04,1363.23 1842.01,1363.35 1843.98,1363.47 1845.95,1363.59 1847.93,1363.7 1849.9,1363.82 1851.87,1363.93 1853.84,1364.05 1855.81,1364.16 1857.79,1364.27 1859.76,1364.38 1861.73,1364.49 1863.7,1364.6 1865.68,1364.7 1867.65,1364.81 1869.62,1364.91 1871.59,1365.02 1873.56,1365.12 1875.54,1365.22 1877.51,1365.32 1879.48,1365.42 1881.45,1365.52 1883.43,1365.62 1885.4,1365.71 1887.37,1365.81 1889.34,1365.91 1891.31,1366 1893.29,1366.09 1895.26,1366.19 1897.23,1366.28 1899.2,1366.37 1901.18,1366.46 1903.15,1366.55 1905.12,1366.64 1907.09,1366.73 1909.06,1366.81 1911.04,1366.9 1913.01,1366.98 1914.98,1367.07 1916.95,1367.15 1918.93,1367.24 1920.9,1367.32 1922.87,1367.4 1924.84,1367.48 1926.81,1367.56 1928.79,1367.64 1930.76,1367.72 1932.73,1367.8 1934.7,1367.88 1936.68,1367.96 1938.65,1368.03 1940.62,1368.11 1942.59,1368.18 1944.56,1368.26 1946.54,1368.33 1948.51,1368.41 1950.48,1368.48 1952.45,1368.55 1954.43,1368.62 1956.4,1368.69 1958.37,1368.76 1960.34,1368.83 1962.31,1368.9 1964.29,1368.97 1966.26,1369.04 1968.23,1369.11 1970.2,1369.17 1972.18,1369.24 1974.15,1369.31 1976.12,1369.37 1978.09,1369.44 1980.06,1369.5 1982.04,1369.57 1984.01,1369.63 1985.98,1369.69 1987.95,1369.76 1989.93,1369.82 1991.9,1369.88 1993.87,1369.94 1995.84,1370 1997.81,1370.06 1999.79,1370.12 2001.76,1370.18 2003.73,1370.24 2005.7,1370.3 2007.68,1370.36 2009.65,1370.41 2011.62,1370.47 2013.59,1370.53 2015.56,1370.58 2017.54,1370.64 2019.51,1370.69 2021.48,1370.75 2023.45,1370.8 2025.43,1370.86 2027.4,1370.91 2029.37,1370.96 2031.34,1371.02 2033.31,1371.07 2035.29,1371.12 2037.26,1371.17 2039.23,1371.23 2041.2,1371.28 2043.18,1371.33 2045.15,1371.38 2047.12,1371.43 2049.09,1371.48 2051.06,1371.53 2053.04,1371.58 2055.01,1371.62 2056.98,1371.67 2058.95,1371.72 2060.93,1371.77 2062.9,1371.82 2064.87,1371.86 2066.84,1371.91 2068.81,1371.96 2070.79,1372 2072.76,1372.05 2074.73,1372.09 2076.7,1372.14 2078.68,1372.18 2080.65,1372.23 2082.62,1372.27 2084.59,1372.31 2086.56,1372.36 2088.54,1372.4 2090.51,1372.44 2092.48,1372.49 2094.45,1372.53 2096.43,1372.57 2098.4,1372.61 2100.37,1372.66 2102.34,1372.7 2104.31,1372.74 2106.29,1372.78 2108.26,1372.82 2110.23,1372.86 2112.2,1372.9 2114.18,1372.94 2116.15,1372.98 2118.12,1373.02 2120.09,1373.06 2122.06,1373.09 2124.04,1373.13 2126.01,1373.17 2127.98,1373.21 2129.95,1373.25 2131.93,1373.28 2133.9,1373.32 2135.87,1373.36 2137.84,1373.4 2139.81,1373.43 2141.79,1373.47 2143.76,1373.5 2145.73,1373.54 2147.7,1373.58 2149.68,1373.61 2151.65,1373.65 2153.62,1373.68 2155.59,1373.72 2157.56,1373.75 2159.54,1373.79 2161.51,1373.82 2163.48,1373.85 2165.45,1373.89 2167.43,1373.92 2169.4,1373.95 2171.37,1373.99 2173.34,1374.02 2175.31,1374.05 2177.29,1374.09 2179.26,1374.12 2181.23,1374.15 2183.2,1374.18 2185.18,1374.21 2187.15,1374.24 2189.12,1374.28 2191.09,1374.31 2193.06,1374.34 2195.04,1374.37 2197.01,1374.4 2198.98,1374.43 2200.95,1374.46 2202.93,1374.49 2204.9,1374.52 2206.87,1374.55 2208.84,1374.58 2210.81,1374.61 2212.79,1374.64 2214.76,1374.67 2216.73,1374.7 2218.7,1374.73 2220.68,1374.75 2222.65,1374.78 2224.62,1374.81 2226.59,1374.84 2228.56,1374.87 2230.54,1374.89 2232.51,1374.92 2234.48,1374.95 2236.45,1374.98 2238.43,1375 2240.4,1375.03 2242.37,1375.06 2244.34,1375.08 2246.31,1375.11 2248.29,1375.14 2250.26,1375.16 2252.23,1375.19 2254.2,1375.22 2256.18,1375.24 2258.15,1375.27 2260.12,1375.29 2262.09,1375.32 2264.06,1375.34 2266.04,1375.37 2268.01,1375.39 2269.98,1375.42 2271.95,1375.44 2273.93,1375.47 2275.9,1375.49 2277.87,1375.52 2279.84,1375.54 2281.81,1375.57 2283.79,1375.59 2285.76,1375.61 2287.73,1375.64 2289.7,1375.66 2291.68,1375.68 2293.65,1375.71 "/>
<polyline clip-path="url(#clip112)" style="stroke:#ff0000; stroke-linecap:round; stroke-linejoin:round; stroke-width:4; stroke-opacity:1; fill:none" points="1259.27,2799.12 1259.27,-1328.69 "/>
<polyline clip-path="url(#clip112)" style="stroke:#ff0000; stroke-linecap:round; stroke-linejoin:round; stroke-width:4; stroke-opacity:1; fill:none" points="1357.78,2799.12 1357.78,-1328.69 "/>
</svg>
