<?xml version="1.0" encoding="utf-8"?>
<svg xmlns="http://www.w3.org/2000/svg" xmlns:xlink="http://www.w3.org/1999/xlink" width="600" height="400" viewBox="0 0 2400 1600">
<defs>
  <clipPath id="clip190">
    <rect x="0" y="0" width="2400" height="1600"/>
  </clipPath>
</defs>
<path clip-path="url(#clip190)" d="M0 1600 L2400 1600 L2400 0 L0 0  Z" fill="#ffffff" fill-rule="evenodd" fill-opacity="1"/>
<defs>
  <clipPath id="clip191">
    <rect x="480" y="0" width="1681" height="1600"/>
  </clipPath>
</defs>
<path clip-path="url(#clip190)" d="M219.519 1423.18 L2352.76 1423.18 L2352.76 47.2441 L219.519 47.2441  Z" fill="#ffffff" fill-rule="evenodd" fill-opacity="1"/>
<defs>
  <clipPath id="clip192">
    <rect x="219" y="47" width="2134" height="1377"/>
  </clipPath>
</defs>
<polyline clip-path="url(#clip192)" style="stroke:#000000; stroke-linecap:round; stroke-linejoin:round; stroke-width:2; stroke-opacity:0.1; fill:none" points="567.392,1423.18 567.392,47.2441 "/>
<polyline clip-path="url(#clip192)" style="stroke:#000000; stroke-linecap:round; stroke-linejoin:round; stroke-width:2; stroke-opacity:0.1; fill:none" points="1142.39,1423.18 1142.39,47.2441 "/>
<polyline clip-path="url(#clip192)" style="stroke:#000000; stroke-linecap:round; stroke-linejoin:round; stroke-width:2; stroke-opacity:0.1; fill:none" points="1717.38,1423.18 1717.38,47.2441 "/>
<polyline clip-path="url(#clip192)" style="stroke:#000000; stroke-linecap:round; stroke-linejoin:round; stroke-width:2; stroke-opacity:0.1; fill:none" points="2292.38,1423.18 2292.38,47.2441 "/>
<polyline clip-path="url(#clip192)" style="stroke:#000000; stroke-linecap:round; stroke-linejoin:round; stroke-width:2; stroke-opacity:0.1; fill:none" points="219.519,1327.08 2352.76,1327.08 "/>
<polyline clip-path="url(#clip192)" style="stroke:#000000; stroke-linecap:round; stroke-linejoin:round; stroke-width:2; stroke-opacity:0.1; fill:none" points="219.519,970.339 2352.76,970.339 "/>
<polyline clip-path="url(#clip192)" style="stroke:#000000; stroke-linecap:round; stroke-linejoin:round; stroke-width:2; stroke-opacity:0.1; fill:none" points="219.519,613.597 2352.76,613.597 "/>
<polyline clip-path="url(#clip192)" style="stroke:#000000; stroke-linecap:round; stroke-linejoin:round; stroke-width:2; stroke-opacity:0.1; fill:none" points="219.519,256.855 2352.76,256.855 "/>
<polyline clip-path="url(#clip190)" style="stroke:#000000; stroke-linecap:round; stroke-linejoin:round; stroke-width:4; stroke-opacity:1; fill:none" points="219.519,1423.18 2352.76,1423.18 "/>
<polyline clip-path="url(#clip190)" style="stroke:#000000; stroke-linecap:round; stroke-linejoin:round; stroke-width:4; stroke-opacity:1; fill:none" points="567.392,1423.18 567.392,1404.28 "/>
<polyline clip-path="url(#clip190)" style="stroke:#000000; stroke-linecap:round; stroke-linejoin:round; stroke-width:4; stroke-opacity:1; fill:none" points="1142.39,1423.18 1142.39,1404.28 "/>
<polyline clip-path="url(#clip190)" style="stroke:#000000; stroke-linecap:round; stroke-linejoin:round; stroke-width:4; stroke-opacity:1; fill:none" points="1717.38,1423.18 1717.38,1404.28 "/>
<polyline clip-path="url(#clip190)" style="stroke:#000000; stroke-linecap:round; stroke-linejoin:round; stroke-width:4; stroke-opacity:1; fill:none" points="2292.38,1423.18 2292.38,1404.28 "/>
<path clip-path="url(#clip190)" d="M562.045 1481.64 L578.364 1481.64 L578.364 1485.58 L556.42 1485.58 L556.42 1481.64 Q559.082 1478.89 563.665 1474.26 Q568.272 1469.61 569.452 1468.27 Q571.697 1465.74 572.577 1464.01 Q573.48 1462.25 573.48 1460.56 Q573.48 1457.8 571.535 1456.07 Q569.614 1454.33 566.512 1454.33 Q564.313 1454.33 561.86 1455.09 Q559.429 1455.86 556.651 1457.41 L556.651 1452.69 Q559.475 1451.55 561.929 1450.97 Q564.383 1450.39 566.42 1450.39 Q571.79 1450.39 574.984 1453.08 Q578.179 1455.77 578.179 1460.26 Q578.179 1462.39 577.369 1464.31 Q576.582 1466.2 574.475 1468.8 Q573.896 1469.47 570.795 1472.69 Q567.693 1475.88 562.045 1481.64 Z" fill="#000000" fill-rule="nonzero" fill-opacity="1" /><path clip-path="url(#clip190)" d="M1145.4 1455.09 L1133.59 1473.54 L1145.4 1473.54 L1145.4 1455.09 M1144.17 1451.02 L1150.05 1451.02 L1150.05 1473.54 L1154.98 1473.54 L1154.98 1477.43 L1150.05 1477.43 L1150.05 1485.58 L1145.4 1485.58 L1145.4 1477.43 L1129.8 1477.43 L1129.8 1472.92 L1144.17 1451.02 Z" fill="#000000" fill-rule="nonzero" fill-opacity="1" /><path clip-path="url(#clip190)" d="M1717.79 1466.44 Q1714.64 1466.44 1712.79 1468.59 Q1710.96 1470.74 1710.96 1474.49 Q1710.96 1478.22 1712.79 1480.39 Q1714.64 1482.55 1717.79 1482.55 Q1720.94 1482.55 1722.77 1480.39 Q1724.62 1478.22 1724.62 1474.49 Q1724.62 1470.74 1722.77 1468.59 Q1720.94 1466.44 1717.79 1466.44 M1727.07 1451.78 L1727.07 1456.04 Q1725.31 1455.21 1723.51 1454.77 Q1721.73 1454.33 1719.97 1454.33 Q1715.34 1454.33 1712.88 1457.45 Q1710.45 1460.58 1710.1 1466.9 Q1711.47 1464.89 1713.53 1463.82 Q1715.59 1462.73 1718.07 1462.73 Q1723.28 1462.73 1726.29 1465.9 Q1729.32 1469.05 1729.32 1474.49 Q1729.32 1479.82 1726.17 1483.03 Q1723.02 1486.25 1717.79 1486.25 Q1711.79 1486.25 1708.62 1481.67 Q1705.45 1477.06 1705.45 1468.33 Q1705.45 1460.14 1709.34 1455.28 Q1713.23 1450.39 1719.78 1450.39 Q1721.54 1450.39 1723.32 1450.74 Q1725.13 1451.09 1727.07 1451.78 Z" fill="#000000" fill-rule="nonzero" fill-opacity="1" /><path clip-path="url(#clip190)" d="M2292.38 1469.17 Q2289.05 1469.17 2287.13 1470.95 Q2285.23 1472.73 2285.23 1475.86 Q2285.23 1478.98 2287.13 1480.77 Q2289.05 1482.55 2292.38 1482.55 Q2295.71 1482.55 2297.64 1480.77 Q2299.56 1478.96 2299.56 1475.86 Q2299.56 1472.73 2297.64 1470.95 Q2295.74 1469.17 2292.38 1469.17 M2287.71 1467.18 Q2284.7 1466.44 2283.01 1464.38 Q2281.34 1462.32 2281.34 1459.35 Q2281.34 1455.21 2284.28 1452.8 Q2287.24 1450.39 2292.38 1450.39 Q2297.54 1450.39 2300.48 1452.8 Q2303.42 1455.21 2303.42 1459.35 Q2303.42 1462.32 2301.73 1464.38 Q2300.07 1466.44 2297.08 1467.18 Q2300.46 1467.96 2302.33 1470.26 Q2304.23 1472.55 2304.23 1475.86 Q2304.23 1480.88 2301.15 1483.57 Q2298.1 1486.25 2292.38 1486.25 Q2286.66 1486.25 2283.59 1483.57 Q2280.53 1480.88 2280.53 1475.86 Q2280.53 1472.55 2282.43 1470.26 Q2284.33 1467.96 2287.71 1467.18 M2285.99 1459.79 Q2285.99 1462.48 2287.66 1463.98 Q2289.35 1465.49 2292.38 1465.49 Q2295.39 1465.49 2297.08 1463.98 Q2298.79 1462.48 2298.79 1459.79 Q2298.79 1457.11 2297.08 1455.6 Q2295.39 1454.1 2292.38 1454.1 Q2289.35 1454.1 2287.66 1455.6 Q2285.99 1457.11 2285.99 1459.79 Z" fill="#000000" fill-rule="nonzero" fill-opacity="1" /><path clip-path="url(#clip190)" d="M1084.58 1525.81 L1084.58 1562.76 L1092.35 1562.76 Q1102.18 1562.76 1106.74 1558.3 Q1111.32 1553.85 1111.32 1544.24 Q1111.32 1534.69 1106.74 1530.26 Q1102.18 1525.81 1092.35 1525.81 L1084.58 1525.81 M1078.15 1520.52 L1091.36 1520.52 Q1105.18 1520.52 1111.64 1526.28 Q1118.1 1532.01 1118.1 1544.24 Q1118.1 1556.52 1111.61 1562.28 Q1105.11 1568.04 1091.36 1568.04 L1078.15 1568.04 L1078.15 1520.52 Z" fill="#000000" fill-rule="nonzero" fill-opacity="1" /><path clip-path="url(#clip190)" d="M1128.09 1532.4 L1133.95 1532.4 L1133.95 1568.04 L1128.09 1568.04 L1128.09 1532.4 M1128.09 1518.52 L1133.95 1518.52 L1133.95 1525.93 L1128.09 1525.93 L1128.09 1518.52 Z" fill="#000000" fill-rule="nonzero" fill-opacity="1" /><path clip-path="url(#clip190)" d="M1168.93 1533.45 L1168.93 1538.98 Q1166.45 1537.71 1163.77 1537.07 Q1161.1 1536.44 1158.23 1536.44 Q1153.87 1536.44 1151.68 1537.77 Q1149.51 1539.11 1149.51 1541.79 Q1149.51 1543.82 1151.07 1545 Q1152.63 1546.15 1157.34 1547.2 L1159.35 1547.64 Q1165.59 1548.98 1168.2 1551.43 Q1170.84 1553.85 1170.84 1558.21 Q1170.84 1563.17 1166.89 1566.07 Q1162.98 1568.97 1156.1 1568.97 Q1153.24 1568.97 1150.12 1568.39 Q1147.03 1567.85 1143.59 1566.74 L1143.59 1560.69 Q1146.84 1562.38 1149.99 1563.24 Q1153.14 1564.07 1156.23 1564.07 Q1160.37 1564.07 1162.6 1562.66 Q1164.82 1561.23 1164.82 1558.65 Q1164.82 1556.27 1163.2 1554.99 Q1161.61 1553.72 1156.17 1552.54 L1154.13 1552.07 Q1148.69 1550.92 1146.27 1548.56 Q1143.85 1546.18 1143.85 1542.04 Q1143.85 1537.01 1147.41 1534.27 Q1150.98 1531.54 1157.53 1531.54 Q1160.78 1531.54 1163.65 1532.01 Q1166.51 1532.49 1168.93 1533.45 Z" fill="#000000" fill-rule="nonzero" fill-opacity="1" /><path clip-path="url(#clip190)" d="M1205.82 1533.76 L1205.82 1539.24 Q1203.34 1537.87 1200.82 1537.2 Q1198.34 1536.5 1195.79 1536.5 Q1190.09 1536.5 1186.94 1540.13 Q1183.79 1543.73 1183.79 1550.25 Q1183.79 1556.78 1186.94 1560.4 Q1190.09 1564 1195.79 1564 Q1198.34 1564 1200.82 1563.33 Q1203.34 1562.63 1205.82 1561.26 L1205.82 1566.68 Q1203.37 1567.82 1200.73 1568.39 Q1198.12 1568.97 1195.16 1568.97 Q1187.1 1568.97 1182.36 1563.91 Q1177.62 1558.85 1177.62 1550.25 Q1177.62 1541.53 1182.39 1536.53 Q1187.2 1531.54 1195.54 1531.54 Q1198.24 1531.54 1200.82 1532.11 Q1203.4 1532.65 1205.82 1533.76 Z" fill="#000000" fill-rule="nonzero" fill-opacity="1" /><path clip-path="url(#clip190)" d="M1236.98 1520.52 L1243.41 1520.52 L1243.41 1568.04 L1236.98 1568.04 L1236.98 1520.52 Z" fill="#000000" fill-rule="nonzero" fill-opacity="1" /><path clip-path="url(#clip190)" d="M1285.58 1546.53 L1285.58 1568.04 L1279.72 1568.04 L1279.72 1546.72 Q1279.72 1541.66 1277.75 1539.14 Q1275.78 1536.63 1271.83 1536.63 Q1267.09 1536.63 1264.35 1539.65 Q1261.61 1542.68 1261.61 1547.9 L1261.61 1568.04 L1255.73 1568.04 L1255.73 1532.4 L1261.61 1532.4 L1261.61 1537.93 Q1263.71 1534.72 1266.55 1533.13 Q1269.41 1531.54 1273.14 1531.54 Q1279.28 1531.54 1282.43 1535.36 Q1285.58 1539.14 1285.58 1546.53 Z" fill="#000000" fill-rule="nonzero" fill-opacity="1" /><path clip-path="url(#clip190)" d="M1320.72 1537.81 L1320.72 1518.52 L1326.58 1518.52 L1326.58 1568.04 L1320.72 1568.04 L1320.72 1562.7 Q1318.87 1565.88 1316.04 1567.44 Q1313.24 1568.97 1309.29 1568.97 Q1302.83 1568.97 1298.76 1563.81 Q1294.72 1558.65 1294.72 1550.25 Q1294.72 1541.85 1298.76 1536.69 Q1302.83 1531.54 1309.29 1531.54 Q1313.24 1531.54 1316.04 1533.1 Q1318.87 1534.62 1320.72 1537.81 M1300.76 1550.25 Q1300.76 1556.71 1303.4 1560.4 Q1306.08 1564.07 1310.73 1564.07 Q1315.37 1564.07 1318.05 1560.4 Q1320.72 1556.71 1320.72 1550.25 Q1320.72 1543.79 1318.05 1540.13 Q1315.37 1536.44 1310.73 1536.44 Q1306.08 1536.44 1303.4 1540.13 Q1300.76 1543.79 1300.76 1550.25 Z" fill="#000000" fill-rule="nonzero" fill-opacity="1" /><path clip-path="url(#clip190)" d="M1369.13 1548.76 L1369.13 1551.62 L1342.2 1551.62 Q1342.59 1557.67 1345.83 1560.85 Q1349.11 1564 1354.93 1564 Q1358.31 1564 1361.46 1563.17 Q1364.64 1562.35 1367.76 1560.69 L1367.76 1566.23 Q1364.61 1567.57 1361.3 1568.27 Q1357.99 1568.97 1354.58 1568.97 Q1346.05 1568.97 1341.06 1564 Q1336.09 1559.04 1336.09 1550.57 Q1336.09 1541.82 1340.8 1536.69 Q1345.55 1531.54 1353.57 1531.54 Q1360.76 1531.54 1364.93 1536.18 Q1369.13 1540.8 1369.13 1548.76 M1363.27 1547.04 Q1363.21 1542.23 1360.57 1539.37 Q1357.96 1536.5 1353.63 1536.5 Q1348.73 1536.5 1345.77 1539.27 Q1342.84 1542.04 1342.39 1547.07 L1363.27 1547.04 Z" fill="#000000" fill-rule="nonzero" fill-opacity="1" /><path clip-path="url(#clip190)" d="M1407.23 1532.4 L1394.34 1549.74 L1407.9 1568.04 L1400.99 1568.04 L1390.61 1554.04 L1380.24 1568.04 L1373.33 1568.04 L1387.18 1549.39 L1374.51 1532.4 L1381.42 1532.4 L1390.87 1545.1 L1400.32 1532.4 L1407.23 1532.4 Z" fill="#000000" fill-rule="nonzero" fill-opacity="1" /><path clip-path="url(#clip190)" d="M1436.35 1518.52 L1449.85 1518.52 L1449.85 1523.07 L1442.21 1523.07 L1442.21 1572.09 L1449.85 1572.09 L1449.85 1576.64 L1436.35 1576.64 L1436.35 1518.52 Z" fill="#000000" fill-rule="nonzero" fill-opacity="1" /><path clip-path="url(#clip190)" d="M1462.32 1532.4 L1468.18 1532.4 L1468.18 1568.04 L1462.32 1568.04 L1462.32 1532.4 M1462.32 1518.52 L1468.18 1518.52 L1468.18 1525.93 L1462.32 1525.93 L1462.32 1518.52 Z" fill="#000000" fill-rule="nonzero" fill-opacity="1" /><path clip-path="url(#clip190)" d="M1494.12 1518.52 L1494.12 1576.64 L1480.63 1576.64 L1480.63 1572.09 L1488.23 1572.09 L1488.23 1523.07 L1480.63 1523.07 L1480.63 1518.52 L1494.12 1518.52 Z" fill="#000000" fill-rule="nonzero" fill-opacity="1" /><polyline clip-path="url(#clip190)" style="stroke:#000000; stroke-linecap:round; stroke-linejoin:round; stroke-width:4; stroke-opacity:1; fill:none" points="219.519,1423.18 219.519,47.2441 "/>
<polyline clip-path="url(#clip190)" style="stroke:#000000; stroke-linecap:round; stroke-linejoin:round; stroke-width:4; stroke-opacity:1; fill:none" points="219.519,1327.08 238.417,1327.08 "/>
<polyline clip-path="url(#clip190)" style="stroke:#000000; stroke-linecap:round; stroke-linejoin:round; stroke-width:4; stroke-opacity:1; fill:none" points="219.519,970.339 238.417,970.339 "/>
<polyline clip-path="url(#clip190)" style="stroke:#000000; stroke-linecap:round; stroke-linejoin:round; stroke-width:4; stroke-opacity:1; fill:none" points="219.519,613.597 238.417,613.597 "/>
<polyline clip-path="url(#clip190)" style="stroke:#000000; stroke-linecap:round; stroke-linejoin:round; stroke-width:4; stroke-opacity:1; fill:none" points="219.519,256.855 238.417,256.855 "/>
<path clip-path="url(#clip190)" d="M126.181 1327.95 Q122.848 1327.95 120.927 1329.73 Q119.029 1331.51 119.029 1334.64 Q119.029 1337.76 120.927 1339.55 Q122.848 1341.33 126.181 1341.33 Q129.515 1341.33 131.436 1339.55 Q133.357 1337.74 133.357 1334.64 Q133.357 1331.51 131.436 1329.73 Q129.538 1327.95 126.181 1327.95 M121.505 1325.96 Q118.496 1325.22 116.806 1323.16 Q115.14 1321.1 115.14 1318.14 Q115.14 1313.99 118.08 1311.58 Q121.043 1309.18 126.181 1309.18 Q131.343 1309.18 134.283 1311.58 Q137.223 1313.99 137.223 1318.14 Q137.223 1321.1 135.533 1323.16 Q133.867 1325.22 130.88 1325.96 Q134.26 1326.75 136.135 1329.04 Q138.033 1331.33 138.033 1334.64 Q138.033 1339.66 134.954 1342.35 Q131.899 1345.03 126.181 1345.03 Q120.464 1345.03 117.385 1342.35 Q114.33 1339.66 114.33 1334.64 Q114.33 1331.33 116.228 1329.04 Q118.126 1326.75 121.505 1325.96 M119.793 1318.57 Q119.793 1321.26 121.459 1322.76 Q123.149 1324.27 126.181 1324.27 Q129.191 1324.27 130.88 1322.76 Q132.593 1321.26 132.593 1318.57 Q132.593 1315.89 130.88 1314.39 Q129.191 1312.88 126.181 1312.88 Q123.149 1312.88 121.459 1314.39 Q119.793 1315.89 119.793 1318.57 Z" fill="#000000" fill-rule="nonzero" fill-opacity="1" /><path clip-path="url(#clip190)" d="M146.343 1338.48 L151.228 1338.48 L151.228 1344.36 L146.343 1344.36 L146.343 1338.48 Z" fill="#000000" fill-rule="nonzero" fill-opacity="1" /><path clip-path="url(#clip190)" d="M171.991 1325.22 Q168.843 1325.22 166.991 1327.37 Q165.163 1329.52 165.163 1333.27 Q165.163 1337 166.991 1339.18 Q168.843 1341.33 171.991 1341.33 Q175.139 1341.33 176.968 1339.18 Q178.82 1337 178.82 1333.27 Q178.82 1329.52 176.968 1327.37 Q175.139 1325.22 171.991 1325.22 M181.274 1310.57 L181.274 1314.82 Q179.514 1313.99 177.709 1313.55 Q175.926 1313.11 174.167 1313.11 Q169.538 1313.11 167.084 1316.24 Q164.653 1319.36 164.306 1325.68 Q165.672 1323.67 167.732 1322.6 Q169.792 1321.51 172.269 1321.51 Q177.477 1321.51 180.487 1324.69 Q183.519 1327.83 183.519 1333.27 Q183.519 1338.6 180.371 1341.82 Q177.223 1345.03 171.991 1345.03 Q165.996 1345.03 162.825 1340.45 Q159.653 1335.84 159.653 1327.12 Q159.653 1318.92 163.542 1314.06 Q167.431 1309.18 173.982 1309.18 Q175.741 1309.18 177.524 1309.52 Q179.329 1309.87 181.274 1310.57 Z" fill="#000000" fill-rule="nonzero" fill-opacity="1" /><path clip-path="url(#clip190)" d="M126.436 971.207 Q123.103 971.207 121.181 972.99 Q119.283 974.772 119.283 977.897 Q119.283 981.022 121.181 982.805 Q123.103 984.587 126.436 984.587 Q129.769 984.587 131.691 982.805 Q133.612 980.999 133.612 977.897 Q133.612 974.772 131.691 972.99 Q129.792 971.207 126.436 971.207 M121.76 969.217 Q118.751 968.476 117.061 966.416 Q115.394 964.356 115.394 961.393 Q115.394 957.249 118.334 954.842 Q121.297 952.434 126.436 952.434 Q131.598 952.434 134.538 954.842 Q137.478 957.249 137.478 961.393 Q137.478 964.356 135.788 966.416 Q134.121 968.476 131.135 969.217 Q134.515 970.004 136.39 972.295 Q138.288 974.587 138.288 977.897 Q138.288 982.92 135.209 985.606 Q132.154 988.291 126.436 988.291 Q120.718 988.291 117.64 985.606 Q114.584 982.92 114.584 977.897 Q114.584 974.587 116.482 972.295 Q118.381 970.004 121.76 969.217 M120.047 961.833 Q120.047 964.518 121.714 966.022 Q123.404 967.527 126.436 967.527 Q129.445 967.527 131.135 966.022 Q132.848 964.518 132.848 961.833 Q132.848 959.147 131.135 957.643 Q129.445 956.138 126.436 956.138 Q123.404 956.138 121.714 957.643 Q120.047 959.147 120.047 961.833 Z" fill="#000000" fill-rule="nonzero" fill-opacity="1" /><path clip-path="url(#clip190)" d="M146.598 981.74 L151.482 981.74 L151.482 987.619 L146.598 987.619 L146.598 981.74 Z" fill="#000000" fill-rule="nonzero" fill-opacity="1" /><path clip-path="url(#clip190)" d="M171.667 971.207 Q168.334 971.207 166.413 972.99 Q164.515 974.772 164.515 977.897 Q164.515 981.022 166.413 982.805 Q168.334 984.587 171.667 984.587 Q175.001 984.587 176.922 982.805 Q178.843 980.999 178.843 977.897 Q178.843 974.772 176.922 972.99 Q175.024 971.207 171.667 971.207 M166.991 969.217 Q163.982 968.476 162.292 966.416 Q160.626 964.356 160.626 961.393 Q160.626 957.249 163.565 954.842 Q166.528 952.434 171.667 952.434 Q176.829 952.434 179.769 954.842 Q182.709 957.249 182.709 961.393 Q182.709 964.356 181.019 966.416 Q179.352 968.476 176.366 969.217 Q179.746 970.004 181.621 972.295 Q183.519 974.587 183.519 977.897 Q183.519 982.92 180.44 985.606 Q177.385 988.291 171.667 988.291 Q165.95 988.291 162.871 985.606 Q159.815 982.92 159.815 977.897 Q159.815 974.587 161.714 972.295 Q163.612 970.004 166.991 969.217 M165.278 961.833 Q165.278 964.518 166.945 966.022 Q168.635 967.527 171.667 967.527 Q174.677 967.527 176.366 966.022 Q178.079 964.518 178.079 961.833 Q178.079 959.147 176.366 957.643 Q174.677 956.138 171.667 956.138 Q168.635 956.138 166.945 957.643 Q165.278 959.147 165.278 961.833 Z" fill="#000000" fill-rule="nonzero" fill-opacity="1" /><path clip-path="url(#clip190)" d="M116.482 630.159 L116.482 625.9 Q118.242 626.734 120.047 627.173 Q121.853 627.613 123.589 627.613 Q128.218 627.613 130.649 624.511 Q133.103 621.386 133.45 615.044 Q132.107 617.035 130.047 618.099 Q127.987 619.164 125.487 619.164 Q120.302 619.164 117.269 616.039 Q114.26 612.891 114.26 607.451 Q114.26 602.127 117.408 598.91 Q120.556 595.692 125.788 595.692 Q131.783 595.692 134.931 600.298 Q138.103 604.882 138.103 613.632 Q138.103 621.803 134.214 626.687 Q130.348 631.548 123.797 631.548 Q122.038 631.548 120.232 631.201 Q118.427 630.854 116.482 630.159 M125.788 615.507 Q128.936 615.507 130.765 613.354 Q132.617 611.201 132.617 607.451 Q132.617 603.724 130.765 601.572 Q128.936 599.396 125.788 599.396 Q122.64 599.396 120.788 601.572 Q118.959 603.724 118.959 607.451 Q118.959 611.201 120.788 613.354 Q122.64 615.507 125.788 615.507 Z" fill="#000000" fill-rule="nonzero" fill-opacity="1" /><path clip-path="url(#clip190)" d="M146.505 624.997 L151.39 624.997 L151.39 630.877 L146.505 630.877 L146.505 624.997 Z" fill="#000000" fill-rule="nonzero" fill-opacity="1" /><path clip-path="url(#clip190)" d="M171.575 599.396 Q167.964 599.396 166.135 602.961 Q164.329 606.502 164.329 613.632 Q164.329 620.738 166.135 624.303 Q167.964 627.845 171.575 627.845 Q175.209 627.845 177.014 624.303 Q178.843 620.738 178.843 613.632 Q178.843 606.502 177.014 602.961 Q175.209 599.396 171.575 599.396 M171.575 595.692 Q177.385 595.692 180.44 600.298 Q183.519 604.882 183.519 613.632 Q183.519 622.359 180.44 626.965 Q177.385 631.548 171.575 631.548 Q165.765 631.548 162.686 626.965 Q159.63 622.359 159.63 613.632 Q159.63 604.882 162.686 600.298 Q165.765 595.692 171.575 595.692 Z" fill="#000000" fill-rule="nonzero" fill-opacity="1" /><path clip-path="url(#clip190)" d="M118.08 273.417 L118.08 269.158 Q119.839 269.991 121.644 270.431 Q123.45 270.871 125.186 270.871 Q129.816 270.871 132.246 267.769 Q134.7 264.644 135.047 258.301 Q133.704 260.292 131.644 261.357 Q129.584 262.422 127.084 262.422 Q121.899 262.422 118.867 259.297 Q115.857 256.149 115.857 250.709 Q115.857 245.385 119.006 242.167 Q122.154 238.95 127.385 238.95 Q133.38 238.95 136.529 243.556 Q139.7 248.139 139.7 256.889 Q139.7 265.061 135.811 269.945 Q131.945 274.806 125.394 274.806 Q123.635 274.806 121.83 274.459 Q120.024 274.111 118.08 273.417 M127.385 258.764 Q130.533 258.764 132.362 256.612 Q134.214 254.459 134.214 250.709 Q134.214 246.982 132.362 244.829 Q130.533 242.653 127.385 242.653 Q124.237 242.653 122.385 244.829 Q120.556 246.982 120.556 250.709 Q120.556 254.459 122.385 256.612 Q124.237 258.764 127.385 258.764 Z" fill="#000000" fill-rule="nonzero" fill-opacity="1" /><path clip-path="url(#clip190)" d="M148.103 268.255 L152.987 268.255 L152.987 274.135 L148.103 274.135 L148.103 268.255 Z" fill="#000000" fill-rule="nonzero" fill-opacity="1" /><path clip-path="url(#clip190)" d="M167.2 270.199 L183.519 270.199 L183.519 274.135 L161.575 274.135 L161.575 270.199 Q164.237 267.445 168.82 262.815 Q173.427 258.163 174.607 256.82 Q176.852 254.297 177.732 252.561 Q178.635 250.801 178.635 249.112 Q178.635 246.357 176.69 244.621 Q174.769 242.885 171.667 242.885 Q169.468 242.885 167.015 243.649 Q164.584 244.413 161.806 245.963 L161.806 241.241 Q164.63 240.107 167.084 239.528 Q169.538 238.95 171.575 238.95 Q176.945 238.95 180.139 241.635 Q183.334 244.32 183.334 248.811 Q183.334 250.94 182.524 252.862 Q181.737 254.76 179.63 257.352 Q179.051 258.024 175.95 261.241 Q172.848 264.436 167.2 270.199 Z" fill="#000000" fill-rule="nonzero" fill-opacity="1" /><path clip-path="url(#clip190)" d="M21.7677 981.565 L58.7206 981.565 L58.7206 973.799 Q58.7206 963.964 54.2646 959.412 Q49.8086 954.829 40.1964 954.829 Q30.6479 954.829 26.2237 959.412 Q21.7677 963.964 21.7677 973.799 L21.7677 981.565 M16.4842 987.994 L16.4842 974.785 Q16.4842 960.972 22.2451 954.511 Q27.9743 948.049 40.1964 948.049 Q52.4822 948.049 58.2432 954.542 Q64.0042 961.035 64.0042 974.785 L64.0042 987.994 L16.4842 987.994 Z" fill="#000000" fill-rule="nonzero" fill-opacity="1" /><path clip-path="url(#clip190)" d="M28.3562 938.055 L28.3562 932.199 L64.0042 932.199 L64.0042 938.055 L28.3562 938.055 M14.479 938.055 L14.479 932.199 L21.895 932.199 L21.895 938.055 L14.479 938.055 Z" fill="#000000" fill-rule="nonzero" fill-opacity="1" /><path clip-path="url(#clip190)" d="M29.4065 897.219 L34.9447 897.219 Q33.6716 899.702 33.035 902.375 Q32.3984 905.049 32.3984 907.914 Q32.3984 912.274 33.7352 914.47 Q35.072 916.635 37.7456 916.635 Q39.7826 916.635 40.9603 915.075 Q42.1061 913.515 43.1565 908.805 L43.6021 906.8 Q44.9389 900.561 47.3897 897.951 Q49.8086 895.309 54.1691 895.309 Q59.1344 895.309 62.0308 899.256 Q64.9272 903.171 64.9272 910.046 Q64.9272 912.911 64.3543 916.03 Q63.8132 919.117 62.6992 922.555 L56.6518 922.555 Q58.3387 919.308 59.198 916.157 Q60.0256 913.006 60.0256 909.919 Q60.0256 905.781 58.6251 903.553 Q57.1929 901.325 54.6147 901.325 Q52.2276 901.325 50.9545 902.948 Q49.6813 904.54 48.5037 909.982 L48.0262 912.019 Q46.8804 917.462 44.5251 919.881 Q42.138 922.3 38.0002 922.3 Q32.9713 922.3 30.2341 918.735 Q27.4968 915.17 27.4968 908.614 Q27.4968 905.367 27.9743 902.503 Q28.4517 899.638 29.4065 897.219 Z" fill="#000000" fill-rule="nonzero" fill-opacity="1" /><path clip-path="url(#clip190)" d="M18.2347 880.191 L28.3562 880.191 L28.3562 868.128 L32.9077 868.128 L32.9077 880.191 L52.2594 880.191 Q56.6199 880.191 57.8613 879.013 Q59.1026 877.804 59.1026 874.144 L59.1026 868.128 L64.0042 868.128 L64.0042 874.144 Q64.0042 880.923 61.4897 883.501 Q58.9434 886.079 52.2594 886.079 L32.9077 886.079 L32.9077 890.376 L28.3562 890.376 L28.3562 886.079 L18.2347 886.079 L18.2347 880.191 Z" fill="#000000" fill-rule="nonzero" fill-opacity="1" /><path clip-path="url(#clip190)" d="M46.0847 844.225 Q46.0847 851.322 47.7079 854.06 Q49.3312 856.797 53.2461 856.797 Q56.3653 856.797 58.2114 854.76 Q60.0256 852.691 60.0256 849.158 Q60.0256 844.288 56.5881 841.36 Q53.1188 838.4 47.3897 838.4 L46.0847 838.4 L46.0847 844.225 M43.6657 832.544 L64.0042 832.544 L64.0042 838.4 L58.5933 838.4 Q61.8398 840.405 63.3994 843.397 Q64.9272 846.389 64.9272 850.718 Q64.9272 856.192 61.8716 859.439 Q58.7843 862.653 53.6281 862.653 Q47.6125 862.653 44.5569 858.643 Q41.5014 854.601 41.5014 846.612 L41.5014 838.4 L40.9285 838.4 Q36.8862 838.4 34.6901 841.074 Q32.4621 843.715 32.4621 848.522 Q32.4621 851.577 33.1941 854.473 Q33.9262 857.37 35.3903 860.043 L29.9795 860.043 Q28.7381 856.829 28.1334 853.805 Q27.4968 850.781 27.4968 847.917 Q27.4968 840.182 31.5072 836.363 Q35.5176 832.544 43.6657 832.544 Z" fill="#000000" fill-rule="nonzero" fill-opacity="1" /><path clip-path="url(#clip190)" d="M42.4881 790.848 L64.0042 790.848 L64.0042 796.705 L42.679 796.705 Q37.6183 796.705 35.1038 798.678 Q32.5894 800.651 32.5894 804.598 Q32.5894 809.341 35.6131 812.078 Q38.6368 814.815 43.8567 814.815 L64.0042 814.815 L64.0042 820.703 L28.3562 820.703 L28.3562 814.815 L33.8944 814.815 Q30.6797 812.714 29.0883 809.882 Q27.4968 807.017 27.4968 803.293 Q27.4968 797.15 31.3163 793.999 Q35.1038 790.848 42.4881 790.848 Z" fill="#000000" fill-rule="nonzero" fill-opacity="1" /><path clip-path="url(#clip190)" d="M29.7248 753.513 L35.1993 753.513 Q33.8307 755.996 33.1623 758.51 Q32.4621 760.993 32.4621 763.539 Q32.4621 769.237 36.0905 772.388 Q39.6872 775.539 46.212 775.539 Q52.7369 775.539 56.3653 772.388 Q59.9619 769.237 59.9619 763.539 Q59.9619 760.993 59.2935 758.51 Q58.5933 755.996 57.2247 753.513 L62.6355 753.513 Q63.7814 755.964 64.3543 758.606 Q64.9272 761.216 64.9272 764.176 Q64.9272 772.229 59.8664 776.971 Q54.8057 781.713 46.212 781.713 Q37.491 781.713 32.4939 776.939 Q27.4968 772.133 27.4968 763.794 Q27.4968 761.089 28.0697 758.51 Q28.6108 755.932 29.7248 753.513 Z" fill="#000000" fill-rule="nonzero" fill-opacity="1" /><path clip-path="url(#clip190)" d="M44.7161 712.837 L47.5806 712.837 L47.5806 739.763 Q53.6281 739.382 56.8109 736.135 Q59.9619 732.857 59.9619 727.032 Q59.9619 723.658 59.1344 720.507 Q58.3069 717.324 56.6518 714.205 L62.1899 714.205 Q63.5267 717.356 64.227 720.666 Q64.9272 723.976 64.9272 727.382 Q64.9272 735.912 59.9619 740.909 Q54.9967 745.875 46.5303 745.875 Q37.7774 745.875 32.6531 741.164 Q27.4968 736.421 27.4968 728.401 Q27.4968 721.207 32.1438 717.038 Q36.7589 712.837 44.7161 712.837 M42.9973 718.693 Q38.1912 718.757 35.3266 721.398 Q32.4621 724.008 32.4621 728.337 Q32.4621 733.239 35.2312 736.199 Q38.0002 739.127 43.0292 739.572 L42.9973 718.693 Z" fill="#000000" fill-rule="nonzero" fill-opacity="1" /><path clip-path="url(#clip190)" d="M29.4065 680.499 L34.9447 680.499 Q33.6716 682.981 33.035 685.655 Q32.3984 688.329 32.3984 691.193 Q32.3984 695.554 33.7352 697.75 Q35.072 699.914 37.7456 699.914 Q39.7826 699.914 40.9603 698.355 Q42.1061 696.795 43.1565 692.084 L43.6021 690.079 Q44.9389 683.841 47.3897 681.231 Q49.8086 678.589 54.1691 678.589 Q59.1344 678.589 62.0308 682.536 Q64.9272 686.451 64.9272 693.326 Q64.9272 696.19 64.3543 699.309 Q63.8132 702.397 62.6992 705.834 L56.6518 705.834 Q58.3387 702.588 59.198 699.437 Q60.0256 696.286 60.0256 693.198 Q60.0256 689.061 58.6251 686.833 Q57.1929 684.605 54.6147 684.605 Q52.2276 684.605 50.9545 686.228 Q49.6813 687.819 48.5037 693.262 L48.0262 695.299 Q46.8804 700.742 44.5251 703.161 Q42.138 705.58 38.0002 705.58 Q32.9713 705.58 30.2341 702.015 Q27.4968 698.45 27.4968 691.893 Q27.4968 688.647 27.9743 685.782 Q28.4517 682.918 29.4065 680.499 Z" fill="#000000" fill-rule="nonzero" fill-opacity="1" /><path clip-path="url(#clip190)" d="M14.479 649.084 L14.479 635.589 L19.0304 635.589 L19.0304 643.228 L68.0464 643.228 L68.0464 635.589 L72.5979 635.589 L72.5979 649.084 L14.479 649.084 Z" fill="#000000" fill-rule="nonzero" fill-opacity="1" /><path clip-path="url(#clip190)" d="M35.1993 595.357 Q31.2526 593.161 29.3747 590.106 Q27.4968 587.05 27.4968 582.912 Q27.4968 577.342 31.4117 574.319 Q35.2948 571.295 42.4881 571.295 L64.0042 571.295 L64.0042 577.183 L42.679 577.183 Q37.5546 577.183 35.072 578.998 Q32.5894 580.812 32.5894 584.536 Q32.5894 589.087 35.6131 591.729 Q38.6368 594.371 43.8567 594.371 L64.0042 594.371 L64.0042 600.259 L42.679 600.259 Q37.5228 600.259 35.072 602.073 Q32.5894 603.887 32.5894 607.675 Q32.5894 612.163 35.6449 614.805 Q38.6686 617.446 43.8567 617.446 L64.0042 617.446 L64.0042 623.335 L28.3562 623.335 L28.3562 617.446 L33.8944 617.446 Q30.616 615.441 29.0564 612.64 Q27.4968 609.839 27.4968 605.988 Q27.4968 602.105 29.4702 599.4 Q31.4436 596.662 35.1993 595.357 Z" fill="#000000" fill-rule="nonzero" fill-opacity="1" /><path clip-path="url(#clip190)" d="M35.1993 531.859 Q31.2526 529.663 29.3747 526.608 Q27.4968 523.552 27.4968 519.415 Q27.4968 513.845 31.4117 510.821 Q35.2948 507.797 42.4881 507.797 L64.0042 507.797 L64.0042 513.685 L42.679 513.685 Q37.5546 513.685 35.072 515.5 Q32.5894 517.314 32.5894 521.038 Q32.5894 525.589 35.6131 528.231 Q38.6368 530.873 43.8567 530.873 L64.0042 530.873 L64.0042 536.761 L42.679 536.761 Q37.5228 536.761 35.072 538.575 Q32.5894 540.39 32.5894 544.177 Q32.5894 548.665 35.6449 551.307 Q38.6686 553.948 43.8567 553.948 L64.0042 553.948 L64.0042 559.837 L28.3562 559.837 L28.3562 553.948 L33.8944 553.948 Q30.616 551.943 29.0564 549.142 Q27.4968 546.341 27.4968 542.49 Q27.4968 538.607 29.4702 535.902 Q31.4436 533.164 35.1993 531.859 Z" fill="#000000" fill-rule="nonzero" fill-opacity="1" /><path clip-path="url(#clip190)" d="M14.479 482.43 L72.5979 482.43 L72.5979 495.925 L68.0464 495.925 L68.0464 488.318 L19.0304 488.318 L19.0304 495.925 L14.479 495.925 L14.479 482.43 Z" fill="#000000" fill-rule="nonzero" fill-opacity="1" /><circle clip-path="url(#clip192)" cx="279.894" cy="1384.24" r="14.4" fill="#009af9" fill-rule="evenodd" fill-opacity="1" stroke="#000000" stroke-opacity="1" stroke-width="3.2"/>
<circle clip-path="url(#clip192)" cx="567.392" cy="86.1857" r="14.4" fill="#009af9" fill-rule="evenodd" fill-opacity="1" stroke="#000000" stroke-opacity="1" stroke-width="3.2"/>
<circle clip-path="url(#clip192)" cx="854.89" cy="285.146" r="14.4" fill="#009af9" fill-rule="evenodd" fill-opacity="1" stroke="#000000" stroke-opacity="1" stroke-width="3.2"/>
<circle clip-path="url(#clip192)" cx="1142.39" cy="318.593" r="14.4" fill="#009af9" fill-rule="evenodd" fill-opacity="1" stroke="#000000" stroke-opacity="1" stroke-width="3.2"/>
<circle clip-path="url(#clip192)" cx="1429.89" cy="345.781" r="14.4" fill="#009af9" fill-rule="evenodd" fill-opacity="1" stroke="#000000" stroke-opacity="1" stroke-width="3.2"/>
<circle clip-path="url(#clip192)" cx="1717.38" cy="513.714" r="14.4" fill="#009af9" fill-rule="evenodd" fill-opacity="1" stroke="#000000" stroke-opacity="1" stroke-width="3.2"/>
<circle clip-path="url(#clip192)" cx="2004.88" cy="1204.15" r="14.4" fill="#009af9" fill-rule="evenodd" fill-opacity="1" stroke="#000000" stroke-opacity="1" stroke-width="3.2"/>
<circle clip-path="url(#clip192)" cx="2292.38" cy="500.484" r="14.4" fill="#009af9" fill-rule="evenodd" fill-opacity="1" stroke="#000000" stroke-opacity="1" stroke-width="3.2"/>
<path clip-path="url(#clip190)" d="M2015.89 196.789 L2281.65 196.789 L2281.65 93.1086 L2015.89 93.1086  Z" fill="#ffffff" fill-rule="evenodd" fill-opacity="1"/>
<polyline clip-path="url(#clip190)" style="stroke:#000000; stroke-linecap:round; stroke-linejoin:round; stroke-width:4; stroke-opacity:1; fill:none" points="2015.89,196.789 2281.65,196.789 2281.65,93.1086 2015.89,93.1086 2015.89,196.789 "/>
<circle clip-path="url(#clip190)" cx="2110.7" cy="144.949" r="20.48" fill="#009af9" fill-rule="evenodd" fill-opacity="1" stroke="#000000" stroke-opacity="1" stroke-width="4.55111"/>
<path clip-path="url(#clip190)" d="M2219.36 164.636 Q2217.55 169.266 2215.84 170.678 Q2214.13 172.09 2211.26 172.09 L2207.85 172.09 L2207.85 168.525 L2210.35 168.525 Q2212.11 168.525 2213.08 167.692 Q2214.06 166.858 2215.24 163.756 L2216 161.812 L2205.52 136.303 L2210.03 136.303 L2218.13 156.581 L2226.23 136.303 L2230.75 136.303 L2219.36 164.636 Z" fill="#000000" fill-rule="nonzero" fill-opacity="1" /><path clip-path="url(#clip190)" d="M2238.04 158.293 L2245.68 158.293 L2245.68 131.928 L2237.37 133.595 L2237.37 129.335 L2245.63 127.669 L2250.31 127.669 L2250.31 158.293 L2257.95 158.293 L2257.95 162.229 L2238.04 162.229 L2238.04 158.293 Z" fill="#000000" fill-rule="nonzero" fill-opacity="1" /></svg>
