<?xml version="1.0" encoding="utf-8"?>
<svg xmlns="http://www.w3.org/2000/svg" xmlns:xlink="http://www.w3.org/1999/xlink" width="600" height="400" viewBox="0 0 2400 1600">
<defs>
  <clipPath id="clip150">
    <rect x="0" y="0" width="2400" height="1600"/>
  </clipPath>
</defs>
<path clip-path="url(#clip150)" d="M0 1600 L2400 1600 L2400 0 L0 0  Z" fill="#ffffff" fill-rule="evenodd" fill-opacity="1"/>
<defs>
  <clipPath id="clip151">
    <rect x="480" y="0" width="1681" height="1600"/>
  </clipPath>
</defs>
<path clip-path="url(#clip150)" d="M279.866 1423.18 L2352.76 1423.18 L2352.76 47.2441 L279.866 47.2441  Z" fill="#ffffff" fill-rule="evenodd" fill-opacity="1"/>
<defs>
  <clipPath id="clip152">
    <rect x="279" y="47" width="2074" height="1377"/>
  </clipPath>
</defs>
<polyline clip-path="url(#clip152)" style="stroke:#000000; stroke-linecap:round; stroke-linejoin:round; stroke-width:2; stroke-opacity:0.1; fill:none" points="534.088,1423.18 534.088,47.2441 "/>
<polyline clip-path="url(#clip152)" style="stroke:#000000; stroke-linecap:round; stroke-linejoin:round; stroke-width:2; stroke-opacity:0.1; fill:none" points="925.2,1423.18 925.2,47.2441 "/>
<polyline clip-path="url(#clip152)" style="stroke:#000000; stroke-linecap:round; stroke-linejoin:round; stroke-width:2; stroke-opacity:0.1; fill:none" points="1316.31,1423.18 1316.31,47.2441 "/>
<polyline clip-path="url(#clip152)" style="stroke:#000000; stroke-linecap:round; stroke-linejoin:round; stroke-width:2; stroke-opacity:0.1; fill:none" points="1707.42,1423.18 1707.42,47.2441 "/>
<polyline clip-path="url(#clip152)" style="stroke:#000000; stroke-linecap:round; stroke-linejoin:round; stroke-width:2; stroke-opacity:0.1; fill:none" points="2098.53,1423.18 2098.53,47.2441 "/>
<polyline clip-path="url(#clip152)" style="stroke:#000000; stroke-linecap:round; stroke-linejoin:round; stroke-width:2; stroke-opacity:0.1; fill:none" points="279.866,1293.11 2352.76,1293.11 "/>
<polyline clip-path="url(#clip152)" style="stroke:#000000; stroke-linecap:round; stroke-linejoin:round; stroke-width:2; stroke-opacity:0.1; fill:none" points="279.866,1048.68 2352.76,1048.68 "/>
<polyline clip-path="url(#clip152)" style="stroke:#000000; stroke-linecap:round; stroke-linejoin:round; stroke-width:2; stroke-opacity:0.1; fill:none" points="279.866,804.252 2352.76,804.252 "/>
<polyline clip-path="url(#clip152)" style="stroke:#000000; stroke-linecap:round; stroke-linejoin:round; stroke-width:2; stroke-opacity:0.1; fill:none" points="279.866,559.825 2352.76,559.825 "/>
<polyline clip-path="url(#clip152)" style="stroke:#000000; stroke-linecap:round; stroke-linejoin:round; stroke-width:2; stroke-opacity:0.1; fill:none" points="279.866,315.398 2352.76,315.398 "/>
<polyline clip-path="url(#clip152)" style="stroke:#000000; stroke-linecap:round; stroke-linejoin:round; stroke-width:2; stroke-opacity:0.1; fill:none" points="279.866,70.9705 2352.76,70.9705 "/>
<polyline clip-path="url(#clip150)" style="stroke:#000000; stroke-linecap:round; stroke-linejoin:round; stroke-width:4; stroke-opacity:1; fill:none" points="279.866,1423.18 2352.76,1423.18 "/>
<polyline clip-path="url(#clip150)" style="stroke:#000000; stroke-linecap:round; stroke-linejoin:round; stroke-width:4; stroke-opacity:1; fill:none" points="534.088,1423.18 534.088,1404.28 "/>
<polyline clip-path="url(#clip150)" style="stroke:#000000; stroke-linecap:round; stroke-linejoin:round; stroke-width:4; stroke-opacity:1; fill:none" points="925.2,1423.18 925.2,1404.28 "/>
<polyline clip-path="url(#clip150)" style="stroke:#000000; stroke-linecap:round; stroke-linejoin:round; stroke-width:4; stroke-opacity:1; fill:none" points="1316.31,1423.18 1316.31,1404.28 "/>
<polyline clip-path="url(#clip150)" style="stroke:#000000; stroke-linecap:round; stroke-linejoin:round; stroke-width:4; stroke-opacity:1; fill:none" points="1707.42,1423.18 1707.42,1404.28 "/>
<polyline clip-path="url(#clip150)" style="stroke:#000000; stroke-linecap:round; stroke-linejoin:round; stroke-width:4; stroke-opacity:1; fill:none" points="2098.53,1423.18 2098.53,1404.28 "/>
<path clip-path="url(#clip150)" d="M486.079 1481.64 L493.718 1481.64 L493.718 1455.28 L485.408 1456.95 L485.408 1452.69 L493.672 1451.02 L498.348 1451.02 L498.348 1481.64 L505.987 1481.64 L505.987 1485.58 L486.079 1485.58 L486.079 1481.64 Z" fill="#000000" fill-rule="nonzero" fill-opacity="1" /><path clip-path="url(#clip150)" d="M514.25 1451.02 L536.473 1451.02 L536.473 1453.01 L523.926 1485.58 L519.042 1485.58 L530.848 1454.96 L514.25 1454.96 L514.25 1451.02 Z" fill="#000000" fill-rule="nonzero" fill-opacity="1" /><path clip-path="url(#clip150)" d="M545.593 1479.7 L550.477 1479.7 L550.477 1485.58 L545.593 1485.58 L545.593 1479.7 Z" fill="#000000" fill-rule="nonzero" fill-opacity="1" /><path clip-path="url(#clip150)" d="M571.241 1466.44 Q568.093 1466.44 566.241 1468.59 Q564.412 1470.74 564.412 1474.49 Q564.412 1478.22 566.241 1480.39 Q568.093 1482.55 571.241 1482.55 Q574.389 1482.55 576.218 1480.39 Q578.07 1478.22 578.07 1474.49 Q578.07 1470.74 576.218 1468.59 Q574.389 1466.44 571.241 1466.44 M580.523 1451.78 L580.523 1456.04 Q578.764 1455.21 576.958 1454.77 Q575.176 1454.33 573.417 1454.33 Q568.787 1454.33 566.333 1457.45 Q563.903 1460.58 563.556 1466.9 Q564.921 1464.89 566.982 1463.82 Q569.042 1462.73 571.519 1462.73 Q576.727 1462.73 579.736 1465.9 Q582.769 1469.05 582.769 1474.49 Q582.769 1479.82 579.62 1483.03 Q576.472 1486.25 571.241 1486.25 Q565.246 1486.25 562.074 1481.67 Q558.903 1477.06 558.903 1468.33 Q558.903 1460.14 562.792 1455.28 Q566.681 1450.39 573.232 1450.39 Q574.991 1450.39 576.773 1450.74 Q578.579 1451.09 580.523 1451.78 Z" fill="#000000" fill-rule="nonzero" fill-opacity="1" /><path clip-path="url(#clip150)" d="M877.318 1481.64 L884.957 1481.64 L884.957 1455.28 L876.647 1456.95 L876.647 1452.69 L884.91 1451.02 L889.586 1451.02 L889.586 1481.64 L897.225 1481.64 L897.225 1485.58 L877.318 1485.58 L877.318 1481.64 Z" fill="#000000" fill-rule="nonzero" fill-opacity="1" /><path clip-path="url(#clip150)" d="M905.489 1451.02 L927.711 1451.02 L927.711 1453.01 L915.165 1485.58 L910.281 1485.58 L922.086 1454.96 L905.489 1454.96 L905.489 1451.02 Z" fill="#000000" fill-rule="nonzero" fill-opacity="1" /><path clip-path="url(#clip150)" d="M936.831 1479.7 L941.716 1479.7 L941.716 1485.58 L936.831 1485.58 L936.831 1479.7 Z" fill="#000000" fill-rule="nonzero" fill-opacity="1" /><path clip-path="url(#clip150)" d="M961.901 1469.17 Q958.567 1469.17 956.646 1470.95 Q954.748 1472.73 954.748 1475.86 Q954.748 1478.98 956.646 1480.77 Q958.567 1482.55 961.901 1482.55 Q965.234 1482.55 967.155 1480.77 Q969.077 1478.96 969.077 1475.86 Q969.077 1472.73 967.155 1470.95 Q965.257 1469.17 961.901 1469.17 M957.225 1467.18 Q954.216 1466.44 952.526 1464.38 Q950.859 1462.32 950.859 1459.35 Q950.859 1455.21 953.799 1452.8 Q956.762 1450.39 961.901 1450.39 Q967.063 1450.39 970.003 1452.8 Q972.942 1455.21 972.942 1459.35 Q972.942 1462.32 971.253 1464.38 Q969.586 1466.44 966.6 1467.18 Q969.979 1467.96 971.854 1470.26 Q973.753 1472.55 973.753 1475.86 Q973.753 1480.88 970.674 1483.57 Q967.618 1486.25 961.901 1486.25 Q956.183 1486.25 953.105 1483.57 Q950.049 1480.88 950.049 1475.86 Q950.049 1472.55 951.947 1470.26 Q953.845 1467.96 957.225 1467.18 M955.512 1459.79 Q955.512 1462.48 957.179 1463.98 Q958.868 1465.49 961.901 1465.49 Q964.91 1465.49 966.6 1463.98 Q968.313 1462.48 968.313 1459.79 Q968.313 1457.11 966.6 1455.6 Q964.91 1454.1 961.901 1454.1 Q958.868 1454.1 957.179 1455.6 Q955.512 1457.11 955.512 1459.79 Z" fill="#000000" fill-rule="nonzero" fill-opacity="1" /><path clip-path="url(#clip150)" d="M1268.38 1481.64 L1276.02 1481.64 L1276.02 1455.28 L1267.71 1456.95 L1267.71 1452.69 L1275.98 1451.02 L1280.65 1451.02 L1280.65 1481.64 L1288.29 1481.64 L1288.29 1485.58 L1268.38 1485.58 L1268.38 1481.64 Z" fill="#000000" fill-rule="nonzero" fill-opacity="1" /><path clip-path="url(#clip150)" d="M1307.73 1469.17 Q1304.4 1469.17 1302.48 1470.95 Q1300.58 1472.73 1300.58 1475.86 Q1300.58 1478.98 1302.48 1480.77 Q1304.4 1482.55 1307.73 1482.55 Q1311.07 1482.55 1312.99 1480.77 Q1314.91 1478.96 1314.91 1475.86 Q1314.91 1472.73 1312.99 1470.95 Q1311.09 1469.17 1307.73 1469.17 M1303.06 1467.18 Q1300.05 1466.44 1298.36 1464.38 Q1296.69 1462.32 1296.69 1459.35 Q1296.69 1455.21 1299.63 1452.8 Q1302.6 1450.39 1307.73 1450.39 Q1312.9 1450.39 1315.84 1452.8 Q1318.78 1455.21 1318.78 1459.35 Q1318.78 1462.32 1317.09 1464.38 Q1315.42 1466.44 1312.43 1467.18 Q1315.81 1467.96 1317.69 1470.26 Q1319.59 1472.55 1319.59 1475.86 Q1319.59 1480.88 1316.51 1483.57 Q1313.45 1486.25 1307.73 1486.25 Q1302.02 1486.25 1298.94 1483.57 Q1295.88 1480.88 1295.88 1475.86 Q1295.88 1472.55 1297.78 1470.26 Q1299.68 1467.96 1303.06 1467.18 M1301.35 1459.79 Q1301.35 1462.48 1303.01 1463.98 Q1304.7 1465.49 1307.73 1465.49 Q1310.74 1465.49 1312.43 1463.98 Q1314.15 1462.48 1314.15 1459.79 Q1314.15 1457.11 1312.43 1455.6 Q1310.74 1454.1 1307.73 1454.1 Q1304.7 1454.1 1303.01 1455.6 Q1301.35 1457.11 1301.35 1459.79 Z" fill="#000000" fill-rule="nonzero" fill-opacity="1" /><path clip-path="url(#clip150)" d="M1327.9 1479.7 L1332.78 1479.7 L1332.78 1485.58 L1327.9 1485.58 L1327.9 1479.7 Z" fill="#000000" fill-rule="nonzero" fill-opacity="1" /><path clip-path="url(#clip150)" d="M1352.97 1454.1 Q1349.35 1454.1 1347.53 1457.66 Q1345.72 1461.2 1345.72 1468.33 Q1345.72 1475.44 1347.53 1479.01 Q1349.35 1482.55 1352.97 1482.55 Q1356.6 1482.55 1358.41 1479.01 Q1360.23 1475.44 1360.23 1468.33 Q1360.23 1461.2 1358.41 1457.66 Q1356.6 1454.1 1352.97 1454.1 M1352.97 1450.39 Q1358.78 1450.39 1361.83 1455 Q1364.91 1459.58 1364.91 1468.33 Q1364.91 1477.06 1361.83 1481.67 Q1358.78 1486.25 1352.97 1486.25 Q1347.16 1486.25 1344.08 1481.67 Q1341.02 1477.06 1341.02 1468.33 Q1341.02 1459.58 1344.08 1455 Q1347.16 1450.39 1352.97 1450.39 Z" fill="#000000" fill-rule="nonzero" fill-opacity="1" /><path clip-path="url(#clip150)" d="M1660.29 1481.64 L1667.93 1481.64 L1667.93 1455.28 L1659.62 1456.95 L1659.62 1452.69 L1667.89 1451.02 L1672.56 1451.02 L1672.56 1481.64 L1680.2 1481.64 L1680.2 1485.58 L1660.29 1485.58 L1660.29 1481.64 Z" fill="#000000" fill-rule="nonzero" fill-opacity="1" /><path clip-path="url(#clip150)" d="M1699.64 1469.17 Q1696.31 1469.17 1694.39 1470.95 Q1692.49 1472.73 1692.49 1475.86 Q1692.49 1478.98 1694.39 1480.77 Q1696.31 1482.55 1699.64 1482.55 Q1702.98 1482.55 1704.9 1480.77 Q1706.82 1478.96 1706.82 1475.86 Q1706.82 1472.73 1704.9 1470.95 Q1703 1469.17 1699.64 1469.17 M1694.97 1467.18 Q1691.96 1466.44 1690.27 1464.38 Q1688.6 1462.32 1688.6 1459.35 Q1688.6 1455.21 1691.54 1452.8 Q1694.51 1450.39 1699.64 1450.39 Q1704.81 1450.39 1707.75 1452.8 Q1710.69 1455.21 1710.69 1459.35 Q1710.69 1462.32 1709 1464.38 Q1707.33 1466.44 1704.34 1467.18 Q1707.72 1467.96 1709.6 1470.26 Q1711.5 1472.55 1711.5 1475.86 Q1711.5 1480.88 1708.42 1483.57 Q1705.36 1486.25 1699.64 1486.25 Q1693.93 1486.25 1690.85 1483.57 Q1687.79 1480.88 1687.79 1475.86 Q1687.79 1472.55 1689.69 1470.26 Q1691.59 1467.96 1694.97 1467.18 M1693.26 1459.79 Q1693.26 1462.48 1694.92 1463.98 Q1696.61 1465.49 1699.64 1465.49 Q1702.65 1465.49 1704.34 1463.98 Q1706.06 1462.48 1706.06 1459.79 Q1706.06 1457.11 1704.34 1455.6 Q1702.65 1454.1 1699.64 1454.1 Q1696.61 1454.1 1694.92 1455.6 Q1693.26 1457.11 1693.26 1459.79 Z" fill="#000000" fill-rule="nonzero" fill-opacity="1" /><path clip-path="url(#clip150)" d="M1719.81 1479.7 L1724.69 1479.7 L1724.69 1485.58 L1719.81 1485.58 L1719.81 1479.7 Z" fill="#000000" fill-rule="nonzero" fill-opacity="1" /><path clip-path="url(#clip150)" d="M1738.9 1481.64 L1755.22 1481.64 L1755.22 1485.58 L1733.28 1485.58 L1733.28 1481.64 Q1735.94 1478.89 1740.52 1474.26 Q1745.13 1469.61 1746.31 1468.27 Q1748.56 1465.74 1749.44 1464.01 Q1750.34 1462.25 1750.34 1460.56 Q1750.34 1457.8 1748.39 1456.07 Q1746.47 1454.33 1743.37 1454.33 Q1741.17 1454.33 1738.72 1455.09 Q1736.29 1455.86 1733.51 1457.41 L1733.51 1452.69 Q1736.33 1451.55 1738.79 1450.97 Q1741.24 1450.39 1743.28 1450.39 Q1748.65 1450.39 1751.84 1453.08 Q1755.04 1455.77 1755.04 1460.26 Q1755.04 1462.39 1754.23 1464.31 Q1753.44 1466.2 1751.33 1468.8 Q1750.76 1469.47 1747.65 1472.69 Q1744.55 1475.88 1738.9 1481.64 Z" fill="#000000" fill-rule="nonzero" fill-opacity="1" /><path clip-path="url(#clip150)" d="M2050.36 1481.64 L2058 1481.64 L2058 1455.28 L2049.69 1456.95 L2049.69 1452.69 L2057.96 1451.02 L2062.63 1451.02 L2062.63 1481.64 L2070.27 1481.64 L2070.27 1485.58 L2050.36 1485.58 L2050.36 1481.64 Z" fill="#000000" fill-rule="nonzero" fill-opacity="1" /><path clip-path="url(#clip150)" d="M2089.71 1469.17 Q2086.38 1469.17 2084.46 1470.95 Q2082.56 1472.73 2082.56 1475.86 Q2082.56 1478.98 2084.46 1480.77 Q2086.38 1482.55 2089.71 1482.55 Q2093.05 1482.55 2094.97 1480.77 Q2096.89 1478.96 2096.89 1475.86 Q2096.89 1472.73 2094.97 1470.95 Q2093.07 1469.17 2089.71 1469.17 M2085.04 1467.18 Q2082.03 1466.44 2080.34 1464.38 Q2078.67 1462.32 2078.67 1459.35 Q2078.67 1455.21 2081.61 1452.8 Q2084.58 1450.39 2089.71 1450.39 Q2094.88 1450.39 2097.82 1452.8 Q2100.76 1455.21 2100.76 1459.35 Q2100.76 1462.32 2099.07 1464.38 Q2097.4 1466.44 2094.41 1467.18 Q2097.79 1467.96 2099.67 1470.26 Q2101.57 1472.55 2101.57 1475.86 Q2101.57 1480.88 2098.49 1483.57 Q2095.43 1486.25 2089.71 1486.25 Q2084 1486.25 2080.92 1483.57 Q2077.86 1480.88 2077.86 1475.86 Q2077.86 1472.55 2079.76 1470.26 Q2081.66 1467.96 2085.04 1467.18 M2083.33 1459.79 Q2083.33 1462.48 2084.99 1463.98 Q2086.68 1465.49 2089.71 1465.49 Q2092.72 1465.49 2094.41 1463.98 Q2096.13 1462.48 2096.13 1459.79 Q2096.13 1457.11 2094.41 1455.6 Q2092.72 1454.1 2089.71 1454.1 Q2086.68 1454.1 2084.99 1455.6 Q2083.33 1457.11 2083.33 1459.79 Z" fill="#000000" fill-rule="nonzero" fill-opacity="1" /><path clip-path="url(#clip150)" d="M2109.88 1479.7 L2114.76 1479.7 L2114.76 1485.58 L2109.88 1485.58 L2109.88 1479.7 Z" fill="#000000" fill-rule="nonzero" fill-opacity="1" /><path clip-path="url(#clip150)" d="M2137.79 1455.09 L2125.99 1473.54 L2137.79 1473.54 L2137.79 1455.09 M2136.57 1451.02 L2142.45 1451.02 L2142.45 1473.54 L2147.38 1473.54 L2147.38 1477.43 L2142.45 1477.43 L2142.45 1485.58 L2137.79 1485.58 L2137.79 1477.43 L2122.19 1477.43 L2122.19 1472.92 L2136.57 1451.02 Z" fill="#000000" fill-rule="nonzero" fill-opacity="1" /><path clip-path="url(#clip150)" d="M1024.48 1520.52 L1051.78 1520.52 L1051.78 1525.93 L1030.9 1525.93 L1030.9 1539.94 L1049.75 1539.94 L1049.75 1545.35 L1030.9 1545.35 L1030.9 1568.04 L1024.48 1568.04 L1024.48 1520.52 Z" fill="#000000" fill-rule="nonzero" fill-opacity="1" /><path clip-path="url(#clip150)" d="M1077.63 1537.87 Q1076.64 1537.3 1075.46 1537.04 Q1074.32 1536.76 1072.92 1536.76 Q1067.95 1536.76 1065.28 1540 Q1062.64 1543.22 1062.64 1549.27 L1062.64 1568.04 L1056.75 1568.04 L1056.75 1532.4 L1062.64 1532.4 L1062.64 1537.93 Q1064.48 1534.69 1067.44 1533.13 Q1070.4 1531.54 1074.64 1531.54 Q1075.24 1531.54 1075.97 1531.63 Q1076.71 1531.7 1077.6 1531.85 L1077.63 1537.87 Z" fill="#000000" fill-rule="nonzero" fill-opacity="1" /><path clip-path="url(#clip150)" d="M1112.83 1548.76 L1112.83 1551.62 L1085.9 1551.62 Q1086.29 1557.67 1089.53 1560.85 Q1092.81 1564 1098.64 1564 Q1102.01 1564 1105.16 1563.17 Q1108.34 1562.35 1111.46 1560.69 L1111.46 1566.23 Q1108.31 1567.57 1105 1568.27 Q1101.69 1568.97 1098.29 1568.97 Q1089.76 1568.97 1084.76 1564 Q1079.79 1559.04 1079.79 1550.57 Q1079.79 1541.82 1084.5 1536.69 Q1089.25 1531.54 1097.27 1531.54 Q1104.46 1531.54 1108.63 1536.18 Q1112.83 1540.8 1112.83 1548.76 M1106.97 1547.04 Q1106.91 1542.23 1104.27 1539.37 Q1101.66 1536.5 1097.33 1536.5 Q1092.43 1536.5 1089.47 1539.27 Q1086.54 1542.04 1086.1 1547.07 L1106.97 1547.04 Z" fill="#000000" fill-rule="nonzero" fill-opacity="1" /><path clip-path="url(#clip150)" d="M1125.94 1550.25 Q1125.94 1556.71 1128.59 1560.4 Q1131.26 1564.07 1135.91 1564.07 Q1140.55 1564.07 1143.23 1560.4 Q1145.9 1556.71 1145.9 1550.25 Q1145.9 1543.79 1143.23 1540.13 Q1140.55 1536.44 1135.91 1536.44 Q1131.26 1536.44 1128.59 1540.13 Q1125.94 1543.79 1125.94 1550.25 M1145.9 1562.7 Q1144.05 1565.88 1141.22 1567.44 Q1138.42 1568.97 1134.47 1568.97 Q1128.01 1568.97 1123.94 1563.81 Q1119.9 1558.65 1119.9 1550.25 Q1119.9 1541.85 1123.94 1536.69 Q1128.01 1531.54 1134.47 1531.54 Q1138.42 1531.54 1141.22 1533.1 Q1144.05 1534.62 1145.9 1537.81 L1145.9 1532.4 L1151.76 1532.4 L1151.76 1581.6 L1145.9 1581.6 L1145.9 1562.7 Z" fill="#000000" fill-rule="nonzero" fill-opacity="1" /><path clip-path="url(#clip150)" d="M1163.22 1553.98 L1163.22 1532.4 L1169.07 1532.4 L1169.07 1553.75 Q1169.07 1558.81 1171.05 1561.36 Q1173.02 1563.87 1176.97 1563.87 Q1181.71 1563.87 1184.45 1560.85 Q1187.21 1557.83 1187.21 1552.61 L1187.21 1532.4 L1193.07 1532.4 L1193.07 1568.04 L1187.21 1568.04 L1187.21 1562.57 Q1185.08 1565.82 1182.25 1567.41 Q1179.45 1568.97 1175.72 1568.97 Q1169.58 1568.97 1166.4 1565.15 Q1163.22 1561.33 1163.22 1553.98 M1177.95 1531.54 L1177.95 1531.54 Z" fill="#000000" fill-rule="nonzero" fill-opacity="1" /><path clip-path="url(#clip150)" d="M1235.63 1548.76 L1235.63 1551.62 L1208.7 1551.62 Q1209.08 1557.67 1212.33 1560.85 Q1215.61 1564 1221.43 1564 Q1224.8 1564 1227.95 1563.17 Q1231.14 1562.35 1234.26 1560.69 L1234.26 1566.23 Q1231.11 1567.57 1227.8 1568.27 Q1224.49 1568.97 1221.08 1568.97 Q1212.55 1568.97 1207.55 1564 Q1202.59 1559.04 1202.59 1550.57 Q1202.59 1541.82 1207.3 1536.69 Q1212.04 1531.54 1220.06 1531.54 Q1227.25 1531.54 1231.42 1536.18 Q1235.63 1540.8 1235.63 1548.76 M1229.77 1547.04 Q1229.71 1542.23 1227.06 1539.37 Q1224.45 1536.5 1220.13 1536.5 Q1215.22 1536.5 1212.26 1539.27 Q1209.34 1542.04 1208.89 1547.07 L1229.77 1547.04 Z" fill="#000000" fill-rule="nonzero" fill-opacity="1" /><path clip-path="url(#clip150)" d="M1274.87 1546.53 L1274.87 1568.04 L1269.01 1568.04 L1269.01 1546.72 Q1269.01 1541.66 1267.04 1539.14 Q1265.07 1536.63 1261.12 1536.63 Q1256.38 1536.63 1253.64 1539.65 Q1250.9 1542.68 1250.9 1547.9 L1250.9 1568.04 L1245.02 1568.04 L1245.02 1532.4 L1250.9 1532.4 L1250.9 1537.93 Q1253 1534.72 1255.84 1533.13 Q1258.7 1531.54 1262.43 1531.54 Q1268.57 1531.54 1271.72 1535.36 Q1274.87 1539.14 1274.87 1546.53 Z" fill="#000000" fill-rule="nonzero" fill-opacity="1" /><path clip-path="url(#clip150)" d="M1312.21 1533.76 L1312.21 1539.24 Q1309.72 1537.87 1307.21 1537.2 Q1304.73 1536.5 1302.18 1536.5 Q1296.48 1536.5 1293.33 1540.13 Q1290.18 1543.73 1290.18 1550.25 Q1290.18 1556.78 1293.33 1560.4 Q1296.48 1564 1302.18 1564 Q1304.73 1564 1307.21 1563.33 Q1309.72 1562.63 1312.21 1561.26 L1312.21 1566.68 Q1309.75 1567.82 1307.11 1568.39 Q1304.5 1568.97 1301.54 1568.97 Q1293.49 1568.97 1288.75 1563.91 Q1284 1558.85 1284 1550.25 Q1284 1541.53 1288.78 1536.53 Q1293.59 1531.54 1301.92 1531.54 Q1304.63 1531.54 1307.21 1532.11 Q1309.79 1532.65 1312.21 1533.76 Z" fill="#000000" fill-rule="nonzero" fill-opacity="1" /><path clip-path="url(#clip150)" d="M1322.39 1532.4 L1328.25 1532.4 L1328.25 1568.04 L1322.39 1568.04 L1322.39 1532.4 M1322.39 1518.52 L1328.25 1518.52 L1328.25 1525.93 L1322.39 1525.93 L1322.39 1518.52 Z" fill="#000000" fill-rule="nonzero" fill-opacity="1" /><path clip-path="url(#clip150)" d="M1370.99 1548.76 L1370.99 1551.62 L1344.07 1551.62 Q1344.45 1557.67 1347.69 1560.85 Q1350.97 1564 1356.8 1564 Q1360.17 1564 1363.32 1563.17 Q1366.5 1562.35 1369.62 1560.69 L1369.62 1566.23 Q1366.47 1567.57 1363.16 1568.27 Q1359.85 1568.97 1356.45 1568.97 Q1347.92 1568.97 1342.92 1564 Q1337.95 1559.04 1337.95 1550.57 Q1337.95 1541.82 1342.66 1536.69 Q1347.41 1531.54 1355.43 1531.54 Q1362.62 1531.54 1366.79 1536.18 Q1370.99 1540.8 1370.99 1548.76 M1365.14 1547.04 Q1365.07 1542.23 1362.43 1539.37 Q1359.82 1536.5 1355.49 1536.5 Q1350.59 1536.5 1347.63 1539.27 Q1344.7 1542.04 1344.26 1547.07 L1365.14 1547.04 Z" fill="#000000" fill-rule="nonzero" fill-opacity="1" /><path clip-path="url(#clip150)" d="M1403.33 1533.45 L1403.33 1538.98 Q1400.85 1537.71 1398.17 1537.07 Q1395.5 1536.44 1392.64 1536.44 Q1388.28 1536.44 1386.08 1537.77 Q1383.91 1539.11 1383.91 1541.79 Q1383.91 1543.82 1385.47 1545 Q1387.03 1546.15 1391.74 1547.2 L1393.75 1547.64 Q1399.99 1548.98 1402.6 1551.43 Q1405.24 1553.85 1405.24 1558.21 Q1405.24 1563.17 1401.29 1566.07 Q1397.38 1568.97 1390.5 1568.97 Q1387.64 1568.97 1384.52 1568.39 Q1381.43 1567.85 1377.99 1566.74 L1377.99 1560.69 Q1381.24 1562.38 1384.39 1563.24 Q1387.54 1564.07 1390.63 1564.07 Q1394.77 1564.07 1397 1562.66 Q1399.22 1561.23 1399.22 1558.65 Q1399.22 1556.27 1397.6 1554.99 Q1396.01 1553.72 1390.57 1552.54 L1388.53 1552.07 Q1383.09 1550.92 1380.67 1548.56 Q1378.25 1546.18 1378.25 1542.04 Q1378.25 1537.01 1381.81 1534.27 Q1385.38 1531.54 1391.94 1531.54 Q1395.18 1531.54 1398.05 1532.01 Q1400.91 1532.49 1403.33 1533.45 Z" fill="#000000" fill-rule="nonzero" fill-opacity="1" /><path clip-path="url(#clip150)" d="M1434.74 1518.52 L1448.24 1518.52 L1448.24 1523.07 L1440.6 1523.07 L1440.6 1572.09 L1448.24 1572.09 L1448.24 1576.64 L1434.74 1576.64 L1434.74 1518.52 Z" fill="#000000" fill-rule="nonzero" fill-opacity="1" /><path clip-path="url(#clip150)" d="M1493.37 1561.26 L1493.37 1548.5 L1482.87 1548.5 L1482.87 1543.22 L1499.74 1543.22 L1499.74 1563.62 Q1496.01 1566.26 1491.53 1567.63 Q1487.04 1568.97 1481.95 1568.97 Q1470.81 1568.97 1464.5 1562.47 Q1458.23 1555.95 1458.23 1544.33 Q1458.23 1532.68 1464.5 1526.19 Q1470.81 1519.66 1481.95 1519.66 Q1486.59 1519.66 1490.76 1520.81 Q1494.96 1521.96 1498.5 1524.18 L1498.5 1531.03 Q1494.93 1528 1490.92 1526.48 Q1486.91 1524.95 1482.49 1524.95 Q1473.77 1524.95 1469.37 1529.82 Q1465.01 1534.69 1465.01 1544.33 Q1465.01 1553.94 1469.37 1558.81 Q1473.77 1563.68 1482.49 1563.68 Q1485.89 1563.68 1488.57 1563.11 Q1491.24 1562.51 1493.37 1561.26 Z" fill="#000000" fill-rule="nonzero" fill-opacity="1" /><path clip-path="url(#clip150)" d="M1511.48 1520.52 L1517.91 1520.52 L1517.91 1540 L1541.27 1540 L1541.27 1520.52 L1547.7 1520.52 L1547.7 1568.04 L1541.27 1568.04 L1541.27 1545.41 L1517.91 1545.41 L1517.91 1568.04 L1511.48 1568.04 L1511.48 1520.52 Z" fill="#000000" fill-rule="nonzero" fill-opacity="1" /><path clip-path="url(#clip150)" d="M1557.7 1532.4 L1585.52 1532.4 L1585.52 1537.74 L1563.49 1563.37 L1585.52 1563.37 L1585.52 1568.04 L1556.9 1568.04 L1556.9 1562.7 L1578.93 1537.07 L1557.7 1537.07 L1557.7 1532.4 Z" fill="#000000" fill-rule="nonzero" fill-opacity="1" /><path clip-path="url(#clip150)" d="M1608.15 1518.52 L1608.15 1576.64 L1594.65 1576.64 L1594.65 1572.09 L1602.26 1572.09 L1602.26 1523.07 L1594.65 1523.07 L1594.65 1518.52 L1608.15 1518.52 Z" fill="#000000" fill-rule="nonzero" fill-opacity="1" /><polyline clip-path="url(#clip150)" style="stroke:#000000; stroke-linecap:round; stroke-linejoin:round; stroke-width:4; stroke-opacity:1; fill:none" points="279.866,1423.18 279.866,47.2441 "/>
<polyline clip-path="url(#clip150)" style="stroke:#000000; stroke-linecap:round; stroke-linejoin:round; stroke-width:4; stroke-opacity:1; fill:none" points="279.866,1293.11 298.764,1293.11 "/>
<polyline clip-path="url(#clip150)" style="stroke:#000000; stroke-linecap:round; stroke-linejoin:round; stroke-width:4; stroke-opacity:1; fill:none" points="279.866,1048.68 298.764,1048.68 "/>
<polyline clip-path="url(#clip150)" style="stroke:#000000; stroke-linecap:round; stroke-linejoin:round; stroke-width:4; stroke-opacity:1; fill:none" points="279.866,804.252 298.764,804.252 "/>
<polyline clip-path="url(#clip150)" style="stroke:#000000; stroke-linecap:round; stroke-linejoin:round; stroke-width:4; stroke-opacity:1; fill:none" points="279.866,559.825 298.764,559.825 "/>
<polyline clip-path="url(#clip150)" style="stroke:#000000; stroke-linecap:round; stroke-linejoin:round; stroke-width:4; stroke-opacity:1; fill:none" points="279.866,315.398 298.764,315.398 "/>
<polyline clip-path="url(#clip150)" style="stroke:#000000; stroke-linecap:round; stroke-linejoin:round; stroke-width:4; stroke-opacity:1; fill:none" points="279.866,70.9705 298.764,70.9705 "/>
<path clip-path="url(#clip150)" d="M127.362 1278.91 Q123.751 1278.91 121.922 1282.47 Q120.117 1286.01 120.117 1293.14 Q120.117 1300.25 121.922 1303.81 Q123.751 1307.35 127.362 1307.35 Q130.996 1307.35 132.802 1303.81 Q134.63 1300.25 134.63 1293.14 Q134.63 1286.01 132.802 1282.47 Q130.996 1278.91 127.362 1278.91 M127.362 1275.2 Q133.172 1275.2 136.228 1279.81 Q139.306 1284.39 139.306 1293.14 Q139.306 1301.87 136.228 1306.47 Q133.172 1311.06 127.362 1311.06 Q121.552 1311.06 118.473 1306.47 Q115.418 1301.87 115.418 1293.14 Q115.418 1284.39 118.473 1279.81 Q121.552 1275.2 127.362 1275.2 Z" fill="#000000" fill-rule="nonzero" fill-opacity="1" /><path clip-path="url(#clip150)" d="M147.524 1304.51 L152.408 1304.51 L152.408 1310.39 L147.524 1310.39 L147.524 1304.51 Z" fill="#000000" fill-rule="nonzero" fill-opacity="1" /><path clip-path="url(#clip150)" d="M162.732 1309.67 L162.732 1305.41 Q164.491 1306.24 166.297 1306.68 Q168.102 1307.12 169.839 1307.12 Q174.468 1307.12 176.899 1304.02 Q179.352 1300.9 179.7 1294.55 Q178.357 1296.54 176.297 1297.61 Q174.237 1298.67 171.737 1298.67 Q166.552 1298.67 163.519 1295.55 Q160.51 1292.4 160.51 1286.96 Q160.51 1281.64 163.658 1278.42 Q166.806 1275.2 172.038 1275.2 Q178.033 1275.2 181.181 1279.81 Q184.352 1284.39 184.352 1293.14 Q184.352 1301.31 180.464 1306.2 Q176.598 1311.06 170.047 1311.06 Q168.288 1311.06 166.482 1310.71 Q164.677 1310.36 162.732 1309.67 M172.038 1295.02 Q175.186 1295.02 177.014 1292.86 Q178.866 1290.71 178.866 1286.96 Q178.866 1283.23 177.014 1281.08 Q175.186 1278.91 172.038 1278.91 Q168.889 1278.91 167.038 1281.08 Q165.209 1283.23 165.209 1286.96 Q165.209 1290.71 167.038 1292.86 Q168.889 1295.02 172.038 1295.02 Z" fill="#000000" fill-rule="nonzero" fill-opacity="1" /><path clip-path="url(#clip150)" d="M192.894 1309.67 L192.894 1305.41 Q194.653 1306.24 196.459 1306.68 Q198.264 1307.12 200 1307.12 Q204.63 1307.12 207.061 1304.02 Q209.514 1300.9 209.861 1294.55 Q208.519 1296.54 206.459 1297.61 Q204.399 1298.67 201.899 1298.67 Q196.713 1298.67 193.681 1295.55 Q190.672 1292.4 190.672 1286.96 Q190.672 1281.64 193.82 1278.42 Q196.968 1275.2 202.2 1275.2 Q208.195 1275.2 211.343 1279.81 Q214.514 1284.39 214.514 1293.14 Q214.514 1301.31 210.625 1306.2 Q206.76 1311.06 200.209 1311.06 Q198.45 1311.06 196.644 1310.71 Q194.838 1310.36 192.894 1309.67 M202.2 1295.02 Q205.348 1295.02 207.176 1292.86 Q209.028 1290.71 209.028 1286.96 Q209.028 1283.23 207.176 1281.08 Q205.348 1278.91 202.2 1278.91 Q199.051 1278.91 197.2 1281.08 Q195.371 1283.23 195.371 1286.96 Q195.371 1290.71 197.2 1292.86 Q199.051 1295.02 202.2 1295.02 Z" fill="#000000" fill-rule="nonzero" fill-opacity="1" /><path clip-path="url(#clip150)" d="M222.963 1275.83 L241.32 1275.83 L241.32 1279.76 L227.246 1279.76 L227.246 1288.23 Q228.264 1287.89 229.283 1287.73 Q230.301 1287.54 231.32 1287.54 Q237.107 1287.54 240.486 1290.71 Q243.866 1293.88 243.866 1299.3 Q243.866 1304.88 240.394 1307.98 Q236.922 1311.06 230.602 1311.06 Q228.426 1311.06 226.158 1310.69 Q223.912 1310.32 221.505 1309.58 L221.505 1304.88 Q223.588 1306.01 225.81 1306.57 Q228.033 1307.12 230.51 1307.12 Q234.514 1307.12 236.852 1305.02 Q239.19 1302.91 239.19 1299.3 Q239.19 1295.69 236.852 1293.58 Q234.514 1291.48 230.51 1291.48 Q228.635 1291.48 226.76 1291.89 Q224.908 1292.31 222.963 1293.19 L222.963 1275.83 Z" fill="#000000" fill-rule="nonzero" fill-opacity="1" /><path clip-path="url(#clip150)" d="M126.205 1034.48 Q122.593 1034.48 120.765 1038.04 Q118.959 1041.58 118.959 1048.71 Q118.959 1055.82 120.765 1059.39 Q122.593 1062.93 126.205 1062.93 Q129.839 1062.93 131.644 1059.39 Q133.473 1055.82 133.473 1048.71 Q133.473 1041.58 131.644 1038.04 Q129.839 1034.48 126.205 1034.48 M126.205 1030.77 Q132.015 1030.77 135.07 1035.38 Q138.149 1039.96 138.149 1048.71 Q138.149 1057.44 135.07 1062.05 Q132.015 1066.63 126.205 1066.63 Q120.394 1066.63 117.316 1062.05 Q114.26 1057.44 114.26 1048.71 Q114.26 1039.96 117.316 1035.38 Q120.394 1030.77 126.205 1030.77 Z" fill="#000000" fill-rule="nonzero" fill-opacity="1" /><path clip-path="url(#clip150)" d="M146.366 1060.08 L151.251 1060.08 L151.251 1065.96 L146.366 1065.96 L146.366 1060.08 Z" fill="#000000" fill-rule="nonzero" fill-opacity="1" /><path clip-path="url(#clip150)" d="M161.575 1065.24 L161.575 1060.98 Q163.334 1061.82 165.14 1062.26 Q166.945 1062.7 168.681 1062.7 Q173.311 1062.7 175.741 1059.59 Q178.195 1056.47 178.542 1050.13 Q177.2 1052.12 175.139 1053.18 Q173.079 1054.25 170.579 1054.25 Q165.394 1054.25 162.362 1051.12 Q159.353 1047.97 159.353 1042.53 Q159.353 1037.21 162.501 1033.99 Q165.649 1030.77 170.88 1030.77 Q176.876 1030.77 180.024 1035.38 Q183.195 1039.96 183.195 1048.71 Q183.195 1056.89 179.306 1061.77 Q175.44 1066.63 168.889 1066.63 Q167.13 1066.63 165.325 1066.28 Q163.519 1065.94 161.575 1065.24 M170.88 1050.59 Q174.028 1050.59 175.857 1048.44 Q177.709 1046.28 177.709 1042.53 Q177.709 1038.81 175.857 1036.65 Q174.028 1034.48 170.88 1034.48 Q167.732 1034.48 165.88 1036.65 Q164.052 1038.81 164.052 1042.53 Q164.052 1046.28 165.88 1048.44 Q167.732 1050.59 170.88 1050.59 Z" fill="#000000" fill-rule="nonzero" fill-opacity="1" /><path clip-path="url(#clip150)" d="M191.737 1065.24 L191.737 1060.98 Q193.496 1061.82 195.301 1062.26 Q197.107 1062.7 198.843 1062.7 Q203.473 1062.7 205.903 1059.59 Q208.357 1056.47 208.704 1050.13 Q207.362 1052.12 205.301 1053.18 Q203.241 1054.25 200.741 1054.25 Q195.556 1054.25 192.524 1051.12 Q189.514 1047.97 189.514 1042.53 Q189.514 1037.21 192.663 1033.99 Q195.811 1030.77 201.042 1030.77 Q207.037 1030.77 210.186 1035.38 Q213.357 1039.96 213.357 1048.71 Q213.357 1056.89 209.468 1061.77 Q205.602 1066.63 199.051 1066.63 Q197.292 1066.63 195.487 1066.28 Q193.681 1065.94 191.737 1065.24 M201.042 1050.59 Q204.19 1050.59 206.019 1048.44 Q207.871 1046.28 207.871 1042.53 Q207.871 1038.81 206.019 1036.65 Q204.19 1034.48 201.042 1034.48 Q197.894 1034.48 196.042 1036.65 Q194.213 1038.81 194.213 1042.53 Q194.213 1046.28 196.042 1048.44 Q197.894 1050.59 201.042 1050.59 Z" fill="#000000" fill-rule="nonzero" fill-opacity="1" /><path clip-path="url(#clip150)" d="M232.338 1046.82 Q229.19 1046.82 227.338 1048.97 Q225.51 1051.12 225.51 1054.87 Q225.51 1058.6 227.338 1060.77 Q229.19 1062.93 232.338 1062.93 Q235.486 1062.93 237.315 1060.77 Q239.167 1058.6 239.167 1054.87 Q239.167 1051.12 237.315 1048.97 Q235.486 1046.82 232.338 1046.82 M241.621 1032.16 L241.621 1036.42 Q239.861 1035.59 238.056 1035.15 Q236.273 1034.71 234.514 1034.71 Q229.885 1034.71 227.431 1037.83 Q225 1040.96 224.653 1047.28 Q226.019 1045.27 228.079 1044.2 Q230.139 1043.11 232.616 1043.11 Q237.824 1043.11 240.834 1046.28 Q243.866 1049.43 243.866 1054.87 Q243.866 1060.2 240.718 1063.41 Q237.57 1066.63 232.338 1066.63 Q226.343 1066.63 223.172 1062.05 Q220 1057.44 220 1048.71 Q220 1040.52 223.889 1035.66 Q227.778 1030.77 234.329 1030.77 Q236.088 1030.77 237.871 1031.12 Q239.676 1031.47 241.621 1032.16 Z" fill="#000000" fill-rule="nonzero" fill-opacity="1" /><path clip-path="url(#clip150)" d="M127.269 790.051 Q123.658 790.051 121.83 793.616 Q120.024 797.158 120.024 804.287 Q120.024 811.394 121.83 814.958 Q123.658 818.5 127.269 818.5 Q130.904 818.5 132.709 814.958 Q134.538 811.394 134.538 804.287 Q134.538 797.158 132.709 793.616 Q130.904 790.051 127.269 790.051 M127.269 786.347 Q133.08 786.347 136.135 790.954 Q139.214 795.537 139.214 804.287 Q139.214 813.014 136.135 817.62 Q133.08 822.204 127.269 822.204 Q121.459 822.204 118.381 817.62 Q115.325 813.014 115.325 804.287 Q115.325 795.537 118.381 790.954 Q121.459 786.347 127.269 786.347 Z" fill="#000000" fill-rule="nonzero" fill-opacity="1" /><path clip-path="url(#clip150)" d="M147.431 815.653 L152.316 815.653 L152.316 821.532 L147.431 821.532 L147.431 815.653 Z" fill="#000000" fill-rule="nonzero" fill-opacity="1" /><path clip-path="url(#clip150)" d="M162.64 820.815 L162.64 816.556 Q164.399 817.389 166.204 817.829 Q168.01 818.269 169.746 818.269 Q174.376 818.269 176.806 815.167 Q179.26 812.042 179.607 805.699 Q178.264 807.69 176.204 808.755 Q174.144 809.819 171.644 809.819 Q166.459 809.819 163.427 806.695 Q160.417 803.546 160.417 798.107 Q160.417 792.783 163.565 789.565 Q166.714 786.347 171.945 786.347 Q177.94 786.347 181.089 790.954 Q184.26 795.537 184.26 804.287 Q184.26 812.458 180.371 817.343 Q176.505 822.204 169.954 822.204 Q168.195 822.204 166.39 821.856 Q164.584 821.509 162.64 820.815 M171.945 806.162 Q175.093 806.162 176.922 804.009 Q178.774 801.857 178.774 798.107 Q178.774 794.38 176.922 792.227 Q175.093 790.051 171.945 790.051 Q168.797 790.051 166.945 792.227 Q165.116 794.38 165.116 798.107 Q165.116 801.857 166.945 804.009 Q168.797 806.162 171.945 806.162 Z" fill="#000000" fill-rule="nonzero" fill-opacity="1" /><path clip-path="url(#clip150)" d="M192.801 820.815 L192.801 816.556 Q194.561 817.389 196.366 817.829 Q198.172 818.269 199.908 818.269 Q204.537 818.269 206.968 815.167 Q209.422 812.042 209.769 805.699 Q208.426 807.69 206.366 808.755 Q204.306 809.819 201.806 809.819 Q196.621 809.819 193.588 806.695 Q190.579 803.546 190.579 798.107 Q190.579 792.783 193.727 789.565 Q196.875 786.347 202.107 786.347 Q208.102 786.347 211.25 790.954 Q214.422 795.537 214.422 804.287 Q214.422 812.458 210.533 817.343 Q206.667 822.204 200.116 822.204 Q198.357 822.204 196.551 821.856 Q194.746 821.509 192.801 820.815 M202.107 806.162 Q205.255 806.162 207.084 804.009 Q208.936 801.857 208.936 798.107 Q208.936 794.38 207.084 792.227 Q205.255 790.051 202.107 790.051 Q198.959 790.051 197.107 792.227 Q195.278 794.38 195.278 798.107 Q195.278 801.857 197.107 804.009 Q198.959 806.162 202.107 806.162 Z" fill="#000000" fill-rule="nonzero" fill-opacity="1" /><path clip-path="url(#clip150)" d="M221.644 786.972 L243.866 786.972 L243.866 788.963 L231.32 821.532 L226.435 821.532 L238.241 790.908 L221.644 790.908 L221.644 786.972 Z" fill="#000000" fill-rule="nonzero" fill-opacity="1" /><path clip-path="url(#clip150)" d="M126.459 545.624 Q122.848 545.624 121.019 549.189 Q119.214 552.73 119.214 559.86 Q119.214 566.966 121.019 570.531 Q122.848 574.073 126.459 574.073 Q130.093 574.073 131.899 570.531 Q133.728 566.966 133.728 559.86 Q133.728 552.73 131.899 549.189 Q130.093 545.624 126.459 545.624 M126.459 541.92 Q132.269 541.92 135.325 546.527 Q138.404 551.11 138.404 559.86 Q138.404 568.587 135.325 573.193 Q132.269 577.776 126.459 577.776 Q120.649 577.776 117.57 573.193 Q114.515 568.587 114.515 559.86 Q114.515 551.11 117.57 546.527 Q120.649 541.92 126.459 541.92 Z" fill="#000000" fill-rule="nonzero" fill-opacity="1" /><path clip-path="url(#clip150)" d="M146.621 571.226 L151.505 571.226 L151.505 577.105 L146.621 577.105 L146.621 571.226 Z" fill="#000000" fill-rule="nonzero" fill-opacity="1" /><path clip-path="url(#clip150)" d="M161.829 576.388 L161.829 572.128 Q163.589 572.962 165.394 573.401 Q167.2 573.841 168.936 573.841 Q173.565 573.841 175.996 570.739 Q178.45 567.614 178.797 561.272 Q177.454 563.263 175.394 564.327 Q173.334 565.392 170.834 565.392 Q165.649 565.392 162.616 562.267 Q159.607 559.119 159.607 553.679 Q159.607 548.355 162.755 545.138 Q165.903 541.92 171.135 541.92 Q177.13 541.92 180.278 546.527 Q183.45 551.11 183.45 559.86 Q183.45 568.031 179.561 572.915 Q175.695 577.776 169.144 577.776 Q167.385 577.776 165.579 577.429 Q163.774 577.082 161.829 576.388 M171.135 561.735 Q174.283 561.735 176.112 559.582 Q177.964 557.429 177.964 553.679 Q177.964 549.952 176.112 547.8 Q174.283 545.624 171.135 545.624 Q167.987 545.624 166.135 547.8 Q164.306 549.952 164.306 553.679 Q164.306 557.429 166.135 559.582 Q167.987 561.735 171.135 561.735 Z" fill="#000000" fill-rule="nonzero" fill-opacity="1" /><path clip-path="url(#clip150)" d="M191.991 576.388 L191.991 572.128 Q193.75 572.962 195.556 573.401 Q197.362 573.841 199.098 573.841 Q203.727 573.841 206.158 570.739 Q208.612 567.614 208.959 561.272 Q207.616 563.263 205.556 564.327 Q203.496 565.392 200.996 565.392 Q195.811 565.392 192.778 562.267 Q189.769 559.119 189.769 553.679 Q189.769 548.355 192.917 545.138 Q196.065 541.92 201.297 541.92 Q207.292 541.92 210.44 546.527 Q213.611 551.11 213.611 559.86 Q213.611 568.031 209.723 572.915 Q205.857 577.776 199.306 577.776 Q197.547 577.776 195.741 577.429 Q193.936 577.082 191.991 576.388 M201.297 561.735 Q204.445 561.735 206.274 559.582 Q208.125 557.429 208.125 553.679 Q208.125 549.952 206.274 547.8 Q204.445 545.624 201.297 545.624 Q198.149 545.624 196.297 547.8 Q194.468 549.952 194.468 553.679 Q194.468 557.429 196.297 559.582 Q198.149 561.735 201.297 561.735 Z" fill="#000000" fill-rule="nonzero" fill-opacity="1" /><path clip-path="url(#clip150)" d="M232.014 560.693 Q228.681 560.693 226.76 562.476 Q224.861 564.258 224.861 567.383 Q224.861 570.508 226.76 572.29 Q228.681 574.073 232.014 574.073 Q235.347 574.073 237.269 572.29 Q239.19 570.485 239.19 567.383 Q239.19 564.258 237.269 562.476 Q235.371 560.693 232.014 560.693 M227.338 558.702 Q224.329 557.962 222.639 555.902 Q220.973 553.841 220.973 550.878 Q220.973 546.735 223.912 544.328 Q226.875 541.92 232.014 541.92 Q237.176 541.92 240.116 544.328 Q243.056 546.735 243.056 550.878 Q243.056 553.841 241.366 555.902 Q239.699 557.962 236.713 558.702 Q240.093 559.489 241.968 561.781 Q243.866 564.073 243.866 567.383 Q243.866 572.406 240.787 575.091 Q237.732 577.776 232.014 577.776 Q226.297 577.776 223.218 575.091 Q220.162 572.406 220.162 567.383 Q220.162 564.073 222.061 561.781 Q223.959 559.489 227.338 558.702 M225.625 551.318 Q225.625 554.003 227.292 555.508 Q228.982 557.013 232.014 557.013 Q235.023 557.013 236.713 555.508 Q238.426 554.003 238.426 551.318 Q238.426 548.633 236.713 547.128 Q235.023 545.624 232.014 545.624 Q228.982 545.624 227.292 547.128 Q225.625 548.633 225.625 551.318 Z" fill="#000000" fill-rule="nonzero" fill-opacity="1" /><path clip-path="url(#clip150)" d="M126.552 301.197 Q122.941 301.197 121.112 304.761 Q119.306 308.303 119.306 315.433 Q119.306 322.539 121.112 326.104 Q122.941 329.645 126.552 329.645 Q130.186 329.645 131.992 326.104 Q133.82 322.539 133.82 315.433 Q133.82 308.303 131.992 304.761 Q130.186 301.197 126.552 301.197 M126.552 297.493 Q132.362 297.493 135.417 302.099 Q138.496 306.683 138.496 315.433 Q138.496 324.159 135.417 328.766 Q132.362 333.349 126.552 333.349 Q120.742 333.349 117.663 328.766 Q114.607 324.159 114.607 315.433 Q114.607 306.683 117.663 302.099 Q120.742 297.493 126.552 297.493 Z" fill="#000000" fill-rule="nonzero" fill-opacity="1" /><path clip-path="url(#clip150)" d="M146.714 326.798 L151.598 326.798 L151.598 332.678 L146.714 332.678 L146.714 326.798 Z" fill="#000000" fill-rule="nonzero" fill-opacity="1" /><path clip-path="url(#clip150)" d="M161.922 331.96 L161.922 327.701 Q163.681 328.534 165.487 328.974 Q167.292 329.414 169.028 329.414 Q173.658 329.414 176.089 326.312 Q178.542 323.187 178.889 316.845 Q177.547 318.835 175.487 319.9 Q173.427 320.965 170.927 320.965 Q165.741 320.965 162.709 317.84 Q159.7 314.692 159.7 309.252 Q159.7 303.928 162.848 300.71 Q165.996 297.493 171.227 297.493 Q177.223 297.493 180.371 302.099 Q183.542 306.683 183.542 315.433 Q183.542 323.604 179.653 328.488 Q175.788 333.349 169.237 333.349 Q167.477 333.349 165.672 333.002 Q163.866 332.655 161.922 331.96 M171.227 317.308 Q174.376 317.308 176.204 315.155 Q178.056 313.002 178.056 309.252 Q178.056 305.525 176.204 303.372 Q174.376 301.197 171.227 301.197 Q168.079 301.197 166.227 303.372 Q164.399 305.525 164.399 309.252 Q164.399 313.002 166.227 315.155 Q168.079 317.308 171.227 317.308 Z" fill="#000000" fill-rule="nonzero" fill-opacity="1" /><path clip-path="url(#clip150)" d="M192.084 331.96 L192.084 327.701 Q193.843 328.534 195.649 328.974 Q197.454 329.414 199.19 329.414 Q203.82 329.414 206.25 326.312 Q208.704 323.187 209.051 316.845 Q207.709 318.835 205.649 319.9 Q203.588 320.965 201.088 320.965 Q195.903 320.965 192.871 317.84 Q189.862 314.692 189.862 309.252 Q189.862 303.928 193.01 300.71 Q196.158 297.493 201.389 297.493 Q207.385 297.493 210.533 302.099 Q213.704 306.683 213.704 315.433 Q213.704 323.604 209.815 328.488 Q205.949 333.349 199.399 333.349 Q197.639 333.349 195.834 333.002 Q194.028 332.655 192.084 331.96 M201.389 317.308 Q204.537 317.308 206.366 315.155 Q208.218 313.002 208.218 309.252 Q208.218 305.525 206.366 303.372 Q204.537 301.197 201.389 301.197 Q198.241 301.197 196.389 303.372 Q194.561 305.525 194.561 309.252 Q194.561 313.002 196.389 315.155 Q198.241 317.308 201.389 317.308 Z" fill="#000000" fill-rule="nonzero" fill-opacity="1" /><path clip-path="url(#clip150)" d="M222.246 331.96 L222.246 327.701 Q224.005 328.534 225.81 328.974 Q227.616 329.414 229.352 329.414 Q233.982 329.414 236.412 326.312 Q238.866 323.187 239.213 316.845 Q237.871 318.835 235.81 319.9 Q233.75 320.965 231.25 320.965 Q226.065 320.965 223.033 317.84 Q220.023 314.692 220.023 309.252 Q220.023 303.928 223.172 300.71 Q226.32 297.493 231.551 297.493 Q237.547 297.493 240.695 302.099 Q243.866 306.683 243.866 315.433 Q243.866 323.604 239.977 328.488 Q236.111 333.349 229.56 333.349 Q227.801 333.349 225.996 333.002 Q224.19 332.655 222.246 331.96 M231.551 317.308 Q234.699 317.308 236.528 315.155 Q238.38 313.002 238.38 309.252 Q238.38 305.525 236.528 303.372 Q234.699 301.197 231.551 301.197 Q228.403 301.197 226.551 303.372 Q224.723 305.525 224.723 309.252 Q224.723 313.002 226.551 315.155 Q228.403 317.308 231.551 317.308 Z" fill="#000000" fill-rule="nonzero" fill-opacity="1" /><path clip-path="url(#clip150)" d="M117.177 84.3154 L124.816 84.3154 L124.816 57.9498 L116.506 59.6164 L116.506 55.3572 L124.769 53.6905 L129.445 53.6905 L129.445 84.3154 L137.084 84.3154 L137.084 88.2505 L117.177 88.2505 L117.177 84.3154 Z" fill="#000000" fill-rule="nonzero" fill-opacity="1" /><path clip-path="url(#clip150)" d="M146.529 82.3709 L151.413 82.3709 L151.413 88.2505 L146.529 88.2505 L146.529 82.3709 Z" fill="#000000" fill-rule="nonzero" fill-opacity="1" /><path clip-path="url(#clip150)" d="M171.598 56.7692 Q167.987 56.7692 166.158 60.334 Q164.352 63.8757 164.352 71.0053 Q164.352 78.1117 166.158 81.6765 Q167.987 85.2182 171.598 85.2182 Q175.232 85.2182 177.038 81.6765 Q178.866 78.1117 178.866 71.0053 Q178.866 63.8757 177.038 60.334 Q175.232 56.7692 171.598 56.7692 M171.598 53.0655 Q177.408 53.0655 180.464 57.672 Q183.542 62.2553 183.542 71.0053 Q183.542 79.7321 180.464 84.3385 Q177.408 88.9218 171.598 88.9218 Q165.788 88.9218 162.709 84.3385 Q159.653 79.7321 159.653 71.0053 Q159.653 62.2553 162.709 57.672 Q165.788 53.0655 171.598 53.0655 Z" fill="#000000" fill-rule="nonzero" fill-opacity="1" /><path clip-path="url(#clip150)" d="M201.76 56.7692 Q198.149 56.7692 196.32 60.334 Q194.514 63.8757 194.514 71.0053 Q194.514 78.1117 196.32 81.6765 Q198.149 85.2182 201.76 85.2182 Q205.394 85.2182 207.199 81.6765 Q209.028 78.1117 209.028 71.0053 Q209.028 63.8757 207.199 60.334 Q205.394 56.7692 201.76 56.7692 M201.76 53.0655 Q207.57 53.0655 210.625 57.672 Q213.704 62.2553 213.704 71.0053 Q213.704 79.7321 210.625 84.3385 Q207.57 88.9218 201.76 88.9218 Q195.95 88.9218 192.871 84.3385 Q189.815 79.7321 189.815 71.0053 Q189.815 62.2553 192.871 57.672 Q195.95 53.0655 201.76 53.0655 Z" fill="#000000" fill-rule="nonzero" fill-opacity="1" /><path clip-path="url(#clip150)" d="M231.922 56.7692 Q228.31 56.7692 226.482 60.334 Q224.676 63.8757 224.676 71.0053 Q224.676 78.1117 226.482 81.6765 Q228.31 85.2182 231.922 85.2182 Q235.556 85.2182 237.361 81.6765 Q239.19 78.1117 239.19 71.0053 Q239.19 63.8757 237.361 60.334 Q235.556 56.7692 231.922 56.7692 M231.922 53.0655 Q237.732 53.0655 240.787 57.672 Q243.866 62.2553 243.866 71.0053 Q243.866 79.7321 240.787 84.3385 Q237.732 88.9218 231.922 88.9218 Q226.111 88.9218 223.033 84.3385 Q219.977 79.7321 219.977 71.0053 Q219.977 62.2553 223.033 57.672 Q226.111 53.0655 231.922 53.0655 Z" fill="#000000" fill-rule="nonzero" fill-opacity="1" /><path clip-path="url(#clip150)" d="M41.7242 981.804 Q42.4244 979.735 44.7161 977.793 Q47.0077 975.82 51.0181 973.846 L64.0042 967.322 L64.0042 974.228 L51.8138 980.308 Q47.0395 982.663 45.48 984.891 Q43.9204 987.087 43.9204 990.906 L43.9204 997.909 L64.0042 997.909 L64.0042 1004.34 L16.4842 1004.34 L16.4842 989.824 Q16.4842 981.676 19.8898 977.666 Q23.2955 973.655 30.1704 973.655 Q34.6582 973.655 37.6183 975.756 Q40.5784 977.825 41.7242 981.804 M21.7677 997.909 L38.6368 997.909 L38.6368 989.824 Q38.6368 985.177 36.5043 982.822 Q34.34 980.435 30.1704 980.435 Q26.0009 980.435 23.9002 982.822 Q21.7677 985.177 21.7677 989.824 L21.7677 997.909 Z" fill="#000000" fill-rule="nonzero" fill-opacity="1" /><path clip-path="url(#clip150)" d="M44.7161 931.737 L47.5806 931.737 L47.5806 958.664 Q53.6281 958.282 56.8109 955.036 Q59.9619 951.757 59.9619 945.933 Q59.9619 942.559 59.1344 939.408 Q58.3069 936.225 56.6518 933.106 L62.1899 933.106 Q63.5267 936.257 64.227 939.567 Q64.9272 942.877 64.9272 946.283 Q64.9272 954.813 59.9619 959.81 Q54.9967 964.775 46.5303 964.775 Q37.7774 964.775 32.6531 960.065 Q27.4968 955.322 27.4968 947.301 Q27.4968 940.108 32.1438 935.939 Q36.7589 931.737 44.7161 931.737 M42.9973 937.594 Q38.1912 937.657 35.3266 940.299 Q32.4621 942.909 32.4621 947.238 Q32.4621 952.139 35.2312 955.099 Q38.0002 958.028 43.0292 958.473 L42.9973 937.594 Z" fill="#000000" fill-rule="nonzero" fill-opacity="1" /><path clip-path="url(#clip150)" d="M14.479 904.078 L19.3487 904.078 L19.3487 909.68 Q19.3487 912.831 20.6219 914.072 Q21.895 915.282 25.2052 915.282 L28.3562 915.282 L28.3562 905.638 L32.9077 905.638 L32.9077 915.282 L64.0042 915.282 L64.0042 921.17 L32.9077 921.17 L32.9077 926.772 L28.3562 926.772 L28.3562 921.17 L25.8736 921.17 Q19.9216 921.17 17.2162 918.401 Q14.479 915.632 14.479 909.616 L14.479 904.078 Z" fill="#000000" fill-rule="nonzero" fill-opacity="1" /><path clip-path="url(#clip150)" d="M14.479 899.177 L14.479 893.32 L64.0042 893.32 L64.0042 899.177 L14.479 899.177 Z" fill="#000000" fill-rule="nonzero" fill-opacity="1" /><path clip-path="url(#clip150)" d="M44.7161 850.574 L47.5806 850.574 L47.5806 877.501 Q53.6281 877.119 56.8109 873.873 Q59.9619 870.595 59.9619 864.77 Q59.9619 861.396 59.1344 858.245 Q58.3069 855.062 56.6518 851.943 L62.1899 851.943 Q63.5267 855.094 64.227 858.404 Q64.9272 861.714 64.9272 865.12 Q64.9272 873.65 59.9619 878.647 Q54.9967 883.613 46.5303 883.613 Q37.7774 883.613 32.6531 878.902 Q27.4968 874.159 27.4968 866.139 Q27.4968 858.945 32.1438 854.776 Q36.7589 850.574 44.7161 850.574 M42.9973 856.431 Q38.1912 856.495 35.3266 859.136 Q32.4621 861.746 32.4621 866.075 Q32.4621 870.977 35.2312 873.937 Q38.0002 876.865 43.0292 877.31 L42.9973 856.431 Z" fill="#000000" fill-rule="nonzero" fill-opacity="1" /><path clip-path="url(#clip150)" d="M29.7248 815.308 L35.1993 815.308 Q33.8307 817.791 33.1623 820.306 Q32.4621 822.788 32.4621 825.334 Q32.4621 831.032 36.0905 834.183 Q39.6872 837.334 46.212 837.334 Q52.7369 837.334 56.3653 834.183 Q59.9619 831.032 59.9619 825.334 Q59.9619 822.788 59.2935 820.306 Q58.5933 817.791 57.2247 815.308 L62.6355 815.308 Q63.7814 817.759 64.3543 820.401 Q64.9272 823.011 64.9272 825.971 Q64.9272 834.024 59.8664 838.766 Q54.8057 843.509 46.212 843.509 Q37.491 843.509 32.4939 838.734 Q27.4968 833.928 27.4968 825.589 Q27.4968 822.884 28.0697 820.306 Q28.6108 817.727 29.7248 815.308 Z" fill="#000000" fill-rule="nonzero" fill-opacity="1" /><path clip-path="url(#clip150)" d="M18.2347 799.331 L28.3562 799.331 L28.3562 787.268 L32.9077 787.268 L32.9077 799.331 L52.2594 799.331 Q56.6199 799.331 57.8613 798.153 Q59.1026 796.943 59.1026 793.283 L59.1026 787.268 L64.0042 787.268 L64.0042 793.283 Q64.0042 800.063 61.4897 802.641 Q58.9434 805.219 52.2594 805.219 L32.9077 805.219 L32.9077 809.516 L28.3562 809.516 L28.3562 805.219 L18.2347 805.219 L18.2347 799.331 Z" fill="#000000" fill-rule="nonzero" fill-opacity="1" /><path clip-path="url(#clip150)" d="M28.3562 779.565 L28.3562 773.709 L64.0042 773.709 L64.0042 779.565 L28.3562 779.565 M14.479 779.565 L14.479 773.709 L21.895 773.709 L21.895 779.565 L14.479 779.565 Z" fill="#000000" fill-rule="nonzero" fill-opacity="1" /><path clip-path="url(#clip150)" d="M28.3562 765.656 L28.3562 759.449 L58.275 748.309 L28.3562 737.169 L28.3562 730.963 L64.0042 744.331 L64.0042 752.288 L28.3562 765.656 Z" fill="#000000" fill-rule="nonzero" fill-opacity="1" /><path clip-path="url(#clip150)" d="M28.3562 722.878 L28.3562 717.022 L64.0042 717.022 L64.0042 722.878 L28.3562 722.878 M14.479 722.878 L14.479 717.022 L21.895 717.022 L21.895 722.878 L14.479 722.878 Z" fill="#000000" fill-rule="nonzero" fill-opacity="1" /><path clip-path="url(#clip150)" d="M18.2347 698.975 L28.3562 698.975 L28.3562 686.912 L32.9077 686.912 L32.9077 698.975 L52.2594 698.975 Q56.6199 698.975 57.8613 697.798 Q59.1026 696.588 59.1026 692.928 L59.1026 686.912 L64.0042 686.912 L64.0042 692.928 Q64.0042 699.707 61.4897 702.285 Q58.9434 704.863 52.2594 704.863 L32.9077 704.863 L32.9077 709.16 L28.3562 709.16 L28.3562 704.863 L18.2347 704.863 L18.2347 698.975 Z" fill="#000000" fill-rule="nonzero" fill-opacity="1" /><path clip-path="url(#clip150)" d="M67.3143 664.378 Q73.68 666.86 75.6216 669.216 Q77.5631 671.571 77.5631 675.518 L77.5631 680.196 L72.6615 680.196 L72.6615 676.759 Q72.6615 674.34 71.5157 673.003 Q70.3699 671.666 66.1048 670.043 L63.4312 668.993 L28.3562 683.411 L28.3562 677.204 L56.238 666.064 L28.3562 654.924 L28.3562 648.718 L67.3143 664.378 Z" fill="#000000" fill-rule="nonzero" fill-opacity="1" /><path clip-path="url(#clip150)" d="M14.1925 612.37 L79.3773 612.37 L79.3773 617.781 L14.1925 617.781 L14.1925 612.37 Z" fill="#000000" fill-rule="nonzero" fill-opacity="1" /><path clip-path="url(#clip150)" d="M18.0438 569.21 L24.314 569.21 Q22.5634 572.871 21.704 576.117 Q20.8447 579.364 20.8447 582.387 Q20.8447 587.639 22.8817 590.504 Q24.9187 593.336 28.6745 593.336 Q31.8255 593.336 33.4488 591.458 Q35.0402 589.549 36.0269 584.265 L36.8226 580.382 Q38.1912 573.189 41.6605 569.783 Q45.098 566.346 50.8908 566.346 Q57.7976 566.346 61.3624 570.993 Q64.9272 575.608 64.9272 584.552 Q64.9272 587.925 64.1633 591.745 Q63.3994 595.532 61.9035 599.607 L55.2831 599.607 Q57.4793 595.692 58.5933 591.936 Q59.7073 588.18 59.7073 584.552 Q59.7073 579.045 57.543 576.053 Q55.3786 573.062 51.3682 573.062 Q47.8671 573.062 45.8937 575.226 Q43.9204 577.358 42.9337 582.26 L42.1698 586.175 Q40.7375 593.368 37.682 596.583 Q34.6264 599.797 29.1837 599.797 Q22.8817 599.797 19.2532 595.373 Q15.6248 590.917 15.6248 583.119 Q15.6248 579.777 16.2295 576.308 Q16.8343 572.839 18.0438 569.21 Z" fill="#000000" fill-rule="nonzero" fill-opacity="1" /><path clip-path="url(#clip150)" d="M58.5933 554.633 L58.5933 544.129 L22.3406 544.129 L24.6323 555.556 L18.7758 555.556 L16.4842 544.193 L16.4842 537.764 L58.5933 537.764 L58.5933 527.26 L64.0042 527.26 L64.0042 554.633 L58.5933 554.633 Z" fill="#000000" fill-rule="nonzero" fill-opacity="1" /><path clip-path="url(#clip150)" d="M58.5933 513.16 L58.5933 502.657 L22.3406 502.657 L24.6323 514.083 L18.7758 514.083 L16.4842 502.72 L16.4842 496.291 L58.5933 496.291 L58.5933 485.788 L64.0042 485.788 L64.0042 513.16 L58.5933 513.16 Z" fill="#000000" fill-rule="nonzero" fill-opacity="1" /><path clip-path="url(#clip150)" d="M14.1925 466.086 L79.3773 466.086 L79.3773 471.497 L14.1925 471.497 L14.1925 466.086 Z" fill="#000000" fill-rule="nonzero" fill-opacity="1" /><polyline clip-path="url(#clip152)" style="stroke:#009af9; stroke-linecap:round; stroke-linejoin:round; stroke-width:4; stroke-opacity:1; fill:none" points="338.533,145.671 340.49,146.277 342.448,146.893 344.405,147.518 346.363,148.152 348.32,148.797 350.278,149.452 352.235,150.118 354.193,150.794 356.15,151.48 358.108,152.178 360.065,152.887 362.023,153.608 363.98,154.34 365.938,155.084 367.895,155.841 369.853,156.61 371.81,157.391 373.768,158.186 375.725,158.993 377.683,159.814 379.64,160.649 381.598,161.498 383.555,162.361 385.513,163.239 387.47,164.131 389.428,165.039 391.386,165.963 393.343,166.902 395.301,167.858 397.258,168.83 399.216,169.819 401.173,170.825 403.131,171.849 405.088,172.891 407.046,173.952 409.003,175.031 410.961,176.13 412.918,177.248 414.876,178.386 416.833,179.545 418.791,180.725 420.748,181.926 422.706,183.149 424.663,184.394 426.621,185.663 428.578,186.955 430.536,188.27 432.493,189.611 434.451,190.976 436.408,192.367 438.366,193.784 440.323,195.228 442.281,196.699 444.238,198.198 446.196,199.726 448.153,201.283 450.111,202.87 452.068,204.488 454.026,206.137 455.983,207.818 457.941,209.532 459.899,211.279 461.856,213.061 463.814,214.878 465.771,216.731 467.729,218.621 469.686,220.548 471.644,222.514 473.601,224.519 475.559,226.564 477.516,228.651 479.474,230.779 481.431,232.951 483.389,235.167 485.346,237.428 487.304,239.735 489.261,242.09 491.219,244.492 493.176,246.944 495.134,249.447 497.091,252 499.049,254.607 501.006,257.267 502.964,259.983 504.921,262.755 506.879,265.584 508.836,268.472 510.794,271.42 512.751,274.429 514.709,277.5 516.666,280.636 518.624,283.836 520.581,287.103 522.539,290.437 524.496,293.841 526.454,297.314 528.412,300.859 530.369,304.478 532.327,308.17 534.284,311.937 536.242,315.782 538.199,319.704 540.157,323.705 542.114,327.787 544.072,331.95 546.029,336.195 547.987,340.524 549.944,344.937 551.902,349.436 553.859,354.021 555.817,358.693 557.774,363.453 559.732,368.301 561.689,373.237 563.647,378.262 565.604,383.377 567.562,388.58 569.519,393.872 571.477,399.252 573.434,404.721 575.392,410.276 577.349,415.917 579.307,421.644 581.264,427.453 583.222,433.344 585.179,439.314 587.137,445.361 589.094,451.481 591.052,457.673 593.009,463.931 594.967,470.253 596.925,476.633 598.882,483.067 600.84,489.55 602.797,496.075 604.755,502.636 606.712,509.226 608.67,515.838 610.627,522.465 612.585,529.097 614.542,535.725 616.5,542.34 618.457,548.931 620.415,555.489 622.372,562.001 624.33,568.456 626.287,574.842 628.245,581.146 630.202,587.355 632.16,593.456 634.117,599.434 636.075,605.275 638.032,610.966 639.99,616.491 641.947,621.835 643.905,626.986 645.862,631.927 647.82,636.644 649.777,641.124 651.735,645.353 653.692,649.316 655.65,653.002 657.607,656.398 659.565,659.493 661.522,662.276 663.48,664.738 665.437,666.869 667.395,668.662 669.353,670.111 671.31,671.211 673.268,671.956 675.225,672.345 677.183,672.375 679.14,672.048 681.098,671.363 683.055,670.323 685.013,668.933 686.97,667.196 688.928,665.12 690.885,662.711 692.843,659.979 694.8,656.931 696.758,653.58 698.715,649.936 700.673,646.011 702.63,641.818 704.588,637.37 706.545,632.681 708.503,627.766 710.46,622.638 712.418,617.312 714.375,611.802 716.333,606.125 718.29,600.293 720.248,594.323 722.205,588.227 724.163,582.021 726.12,575.718 728.078,569.33 730.035,562.872 731.993,556.356 733.95,549.793 735.908,543.196 737.866,536.574 739.823,529.939 741.781,523.3 743.738,516.667 745.696,510.048 747.653,503.452 749.611,496.886 751.568,490.357 753.526,483.871 755.483,477.435 757.441,471.055 759.398,464.735 761.356,458.479 763.313,452.293 765.271,446.179 767.228,440.142 769.186,434.183 771.143,428.306 773.101,422.512 775.058,416.805 777.016,411.184 778.973,405.652 780.931,400.21 782.888,394.859 784.846,389.598 786.803,384.429 788.761,379.351 790.718,374.366 792.676,369.471 794.633,364.668 796.591,359.956 798.548,355.335 800.506,350.802 802.463,346.359 804.421,342.004 806.379,337.736 808.336,333.554 810.294,329.458 812.251,325.445 814.209,321.515 816.166,317.667 818.124,313.9 820.081,310.211 822.039,306.601 823.996,303.067 825.954,299.608 827.911,296.224 829.869,292.912 831.826,289.671 833.784,286.501 835.741,283.399 837.699,280.365 839.656,277.397 841.614,274.494 843.571,271.654 845.529,268.876 847.486,266.16 849.444,263.503 851.401,260.905 853.359,258.364 855.316,255.88 857.274,253.45 859.231,251.074 861.189,248.751 863.146,246.48 865.104,244.259 867.061,242.087 869.019,239.964 870.976,237.888 872.934,235.859 874.891,233.875 876.849,231.936 878.807,230.04 880.764,228.187 882.722,226.375 884.679,224.605 886.637,222.874 888.594,221.183 890.552,219.53 892.509,217.914 894.467,216.336 896.424,214.793 898.382,213.286 900.339,211.814 902.297,210.376 904.254,208.97 906.212,207.598 908.169,206.257 910.127,204.948 912.084,203.67 914.042,202.422 915.999,201.203 917.957,200.014 919.914,198.853 921.872,197.721 923.829,196.616 925.787,195.538 927.744,194.486 929.702,193.461 931.659,192.461 933.617,191.487 935.574,190.537 937.532,189.612 939.489,188.712 941.447,187.834 943.404,186.98 945.362,186.15 947.32,185.341 949.277,184.555 951.235,183.792 953.192,183.049 955.15,182.329 957.107,181.629 959.065,180.951 961.022,180.293 962.98,179.655 964.937,179.038 966.895,178.44 968.852,177.863 970.81,177.305 972.767,176.766 974.725,176.246 976.682,175.746 978.64,175.264 980.597,174.801 982.555,174.357 984.512,173.931 986.47,173.524 988.427,173.134 990.385,172.763 992.342,172.41 994.3,172.075 996.257,171.758 998.215,171.458 1000.17,171.177 1002.13,170.913 1004.09,170.667 1006.04,170.439 1008,170.229 1009.96,170.036 1011.92,169.861 1013.87,169.704 1015.83,169.564 1017.79,169.443 1019.75,169.339 1021.71,169.254 1023.66,169.186 1025.62,169.137 1027.58,169.106 1029.54,169.093 1031.49,169.099 1033.45,169.124 1035.41,169.167 1037.37,169.23 1039.32,169.312 1041.28,169.413 1043.24,169.533 1045.2,169.674 1047.15,169.834 1049.11,170.015 1051.07,170.216 1053.03,170.439 1054.98,170.682 1056.94,170.947 1058.9,171.234 1060.86,171.543 1062.81,171.874 1064.77,172.229 1066.73,172.607 1068.69,173.008 1070.64,173.434 1072.6,173.885 1074.56,174.361 1076.52,174.862 1078.47,175.39 1080.43,175.945 1082.39,176.528 1084.35,177.139 1086.3,177.778 1088.26,178.447 1090.22,179.147 1092.18,179.877 1094.13,180.639 1096.09,181.434 1098.05,182.263 1100.01,183.126 1101.96,184.024 1103.92,184.959 1105.88,185.931 1107.84,186.942 1109.79,187.993 1111.75,189.085 1113.71,190.219 1115.67,191.397 1117.62,192.619 1119.58,193.888 1121.54,195.205 1123.5,196.571 1125.45,197.988 1127.41,199.459 1129.37,200.984 1131.33,202.565 1133.28,204.206 1135.24,205.907 1137.2,207.671 1139.16,209.5 1141.11,211.397 1143.07,213.364 1145.03,215.404 1146.99,217.52 1148.94,219.715 1150.9,221.991 1152.86,224.352 1154.82,226.802 1156.77,229.343 1158.73,231.981 1160.69,234.718 1162.65,237.559 1164.6,240.509 1166.56,243.572 1168.52,246.752 1170.48,250.056 1172.43,253.488 1174.39,257.054 1176.35,260.76 1178.31,264.613 1180.26,268.619 1182.22,272.785 1184.18,277.119 1186.14,281.629 1188.09,286.323 1190.05,291.209 1192.01,296.296 1193.97,301.596 1195.92,307.117 1197.88,312.871 1199.84,318.869 1201.8,325.124 1203.75,331.647 1205.71,338.453 1207.67,345.556 1209.63,352.97 1211.58,360.712 1213.54,368.798 1215.5,377.246 1217.46,386.073 1219.41,395.3 1221.37,404.947 1223.33,415.035 1225.29,425.586 1227.24,436.624 1229.2,448.173 1231.16,460.258 1233.12,472.906 1235.07,486.144 1237.03,499.999 1238.99,514.501 1240.95,529.678 1242.9,545.561 1244.86,562.178 1246.82,579.561 1248.78,597.737 1250.73,616.735 1252.69,636.582 1254.65,657.303 1256.61,678.918 1258.56,701.445 1260.52,724.899 1262.48,749.285 1264.44,774.605 1266.39,800.848 1268.35,827.995 1270.31,856.014 1272.27,884.859 1274.22,914.467 1276.18,944.757 1278.14,975.627 1280.1,1006.95 1282.05,1038.59 1284.01,1070.35 1285.97,1102.05 1287.93,1133.45 1289.88,1164.31 1291.84,1194.34 1293.8,1223.25 1295.76,1250.73 1297.71,1276.46 1299.67,1300.12 1301.63,1321.38 1303.59,1339.95 1305.54,1355.56 1307.5,1367.96 1309.46,1376.96 1311.42,1382.41 1313.37,1384.24 1315.33,1382.41 1317.29,1376.96 1319.25,1368 1321.2,1355.66 1323.16,1340.17 1325.12,1321.76 1327.08,1300.71 1329.03,1277.32 1330.99,1251.9 1332.95,1224.78 1334.91,1196.28 1336.86,1166.69 1338.82,1136.3 1340.78,1105.38 1342.74,1074.18 1344.69,1042.92 1346.65,1011.78 1348.61,980.936 1350.57,950.532 1352.52,920.685 1354.48,891.492 1356.44,863.033 1358.4,835.366 1360.35,808.536 1362.31,782.575 1364.27,757.501 1366.23,733.323 1368.19,710.042 1370.14,687.651 1372.1,666.139 1374.06,645.489 1376.02,625.68 1377.97,606.689 1379.93,588.491 1381.89,571.061 1383.85,554.369 1385.8,538.388 1387.76,523.09 1389.72,508.447 1391.68,494.431 1393.63,481.014 1395.59,468.17 1397.55,455.872 1399.51,444.097 1401.46,432.819 1403.42,422.016 1405.38,411.665 1407.34,401.744 1409.29,392.233 1411.25,383.113 1413.21,374.364 1415.17,365.97 1417.12,357.913 1419.08,350.177 1421.04,342.746 1423,335.608 1424.95,328.746 1426.91,322.149 1428.87,315.804 1430.83,309.7 1432.78,303.824 1434.74,298.167 1436.7,292.719 1438.66,287.469 1440.61,282.41 1442.57,277.531 1444.53,272.826 1446.49,268.287 1448.44,263.905 1450.4,259.675 1452.36,255.59 1454.32,251.643 1456.27,247.828 1458.23,244.14 1460.19,240.574 1462.15,237.124 1464.1,233.785 1466.06,230.553 1468.02,227.424 1469.98,224.393 1471.93,221.456 1473.89,218.61 1475.85,215.851 1477.81,213.176 1479.76,210.58 1481.72,208.062 1483.68,205.618 1485.64,203.245 1487.59,200.941 1489.55,198.703 1491.51,196.528 1493.47,194.415 1495.42,192.36 1497.38,190.363 1499.34,188.42 1501.3,186.53 1503.25,184.69 1505.21,182.9 1507.17,181.158 1509.13,179.461 1511.08,177.808 1513.04,176.197 1515,174.628 1516.96,173.099 1518.91,171.608 1520.87,170.155 1522.83,168.737 1524.79,167.354 1526.74,166.005 1528.7,164.688 1530.66,163.403 1532.62,162.148 1534.57,160.923 1536.53,159.726 1538.49,158.558 1540.45,157.416 1542.4,156.3 1544.36,155.209 1546.32,154.143 1548.28,153.101 1550.23,152.081 1552.19,151.084 1554.15,150.109 1556.11,149.155 1558.06,148.221 1560.02,147.307 1561.98,146.413 1563.94,145.537 1565.89,144.679 1567.85,143.84 1569.81,143.017 1571.77,142.211 1573.72,141.422 1575.68,140.648 1577.64,139.89 1579.6,139.146 1581.55,138.418 1583.51,137.703 1585.47,137.003 1587.43,136.316 1589.38,135.642 1591.34,134.98 1593.3,134.332 1595.26,133.695 1597.21,133.07 1599.17,132.457 1601.13,131.855 1603.09,131.264 1605.04,130.684 1607,130.114 1608.96,129.554 1610.92,129.004 1612.87,128.464 1614.83,127.933 1616.79,127.412 1618.75,126.9 1620.7,126.396 1622.66,125.901 1624.62,125.414 1626.58,124.936 1628.53,124.466 1630.49,124.003 1632.45,123.548 1634.41,123.101 1636.36,122.66 1638.32,122.227 1640.28,121.801 1642.24,121.382 1644.19,120.97 1646.15,120.564 1648.11,120.164 1650.07,119.771 1652.02,119.384 1653.98,119.003 1655.94,118.627 1657.9,118.258 1659.85,117.894 1661.81,117.535 1663.77,117.182 1665.73,116.834 1667.68,116.492 1669.64,116.154 1671.6,115.822 1673.56,115.494 1675.51,115.171 1677.47,114.853 1679.43,114.539 1681.39,114.23 1683.34,113.925 1685.3,113.624 1687.26,113.328 1689.22,113.036 1691.17,112.748 1693.13,112.463 1695.09,112.183 1697.05,111.907 1699,111.634 1700.96,111.365 1702.92,111.1 1704.88,110.838 1706.83,110.58 1708.79,110.325 1710.75,110.073 1712.71,109.825 1714.67,109.58 1716.62,109.338 1718.58,109.1 1720.54,108.864 1722.5,108.632 1724.45,108.402 1726.41,108.175 1728.37,107.951 1730.33,107.73 1732.28,107.512 1734.24,107.297 1736.2,107.084 1738.16,106.873 1740.11,106.666 1742.07,106.46 1744.03,106.258 1745.99,106.057 1747.94,105.86 1749.9,105.664 1751.86,105.471 1753.82,105.28 1755.77,105.091 1757.73,104.905 1759.69,104.721 1761.65,104.539 1763.6,104.359 1765.56,104.181 1767.52,104.005 1769.48,103.831 1771.43,103.659 1773.39,103.489 1775.35,103.321 1777.31,103.155 1779.26,102.99 1781.22,102.828 1783.18,102.667 1785.14,102.508 1787.09,102.351 1789.05,102.196 1791.01,102.042 1792.97,101.89 1794.92,101.739 1796.88,101.59 1798.84,101.443 1800.8,101.297 1802.75,101.153 1804.71,101.01 1806.67,100.869 1808.63,100.729 1810.58,100.591 1812.54,100.454 1814.5,100.319 1816.46,100.185 1818.41,100.052 1820.37,99.921 1822.33,99.791 1824.29,99.6624 1826.24,99.535 1828.2,99.409 1830.16,99.2842 1832.12,99.1606 1834.07,99.0382 1836.03,98.9171 1837.99,98.7971 1839.95,98.6784 1841.9,98.5607 1843.86,98.4443 1845.82,98.3289 1847.78,98.2147 1849.73,98.1015 1851.69,97.9894 1853.65,97.8785 1855.61,97.7685 1857.56,97.6596 1859.52,97.5517 1861.48,97.4449 1863.44,97.339 1865.39,97.2341 1867.35,97.1302 1869.31,97.0272 1871.27,96.9252 1873.22,96.8242 1875.18,96.724 1877.14,96.6248 1879.1,96.5264 1881.05,96.429 1883.01,96.3324 1884.97,96.2367 1886.93,96.1419 1888.88,96.0479 1890.84,95.9547 1892.8,95.8623 1894.76,95.7708 1896.71,95.6801 1898.67,95.5902 1900.63,95.501 1902.59,95.4126 1904.54,95.325 1906.5,95.2382 1908.46,95.152 1910.42,95.0667 1912.37,94.982 1914.33,94.8981 1916.29,94.8149 1918.25,94.7324 1920.2,94.6506 1922.16,94.5694 1924.12,94.489 1926.08,94.4092 1928.03,94.3301 1929.99,94.2516 1931.95,94.1738 1933.91,94.0966 1935.86,94.0201 1937.82,93.9442 1939.78,93.8689 1941.74,93.7942 1943.69,93.7201 1945.65,93.6466 1947.61,93.5737 1949.57,93.5014 1951.52,93.4297 1953.48,93.3585 1955.44,93.2879 1957.4,93.2178 1959.35,93.1484 1961.31,93.0794 1963.27,93.011 1965.23,92.9431 1967.18,92.8758 1969.14,92.809 1971.1,92.7427 1973.06,92.6769 1975.01,92.6116 1976.97,92.5468 1978.93,92.4825 1980.89,92.4187 1982.84,92.3554 1984.8,92.2926 1986.76,92.2302 1988.72,92.1683 1990.67,92.1069 1992.63,92.0459 1994.59,91.9854 1996.55,91.9253 1998.5,91.8657 2000.46,91.8065 2002.42,91.7478 2004.38,91.6895 2006.33,91.6316 2008.29,91.5742 2010.25,91.5171 2012.21,91.4605 2014.16,91.4043 2016.12,91.3485 2018.08,91.293 2020.04,91.238 2021.99,91.1834 2023.95,91.1292 2025.91,91.0754 2027.87,91.0219 2029.82,90.9688 2031.78,90.9161 2033.74,90.8638 2035.7,90.8118 2037.65,90.7602 2039.61,90.709 2041.57,90.6581 2043.53,90.6075 2045.48,90.5574 2047.44,90.5075 2049.4,90.458 2051.36,90.4089 2053.31,90.3601 2055.27,90.3116 2057.23,90.2634 2059.19,90.2156 2061.15,90.1681 2063.1,90.1209 2065.06,90.074 2067.02,90.0275 2068.98,89.9813 2070.93,89.9353 2072.89,89.8897 2074.85,89.8444 2076.81,89.7994 2078.76,89.7547 2080.72,89.7102 2082.68,89.6661 2084.64,89.6223 2086.59,89.5787 2088.55,89.5355 2090.51,89.4925 2092.47,89.4498 2094.42,89.4073 2096.38,89.3652 2098.34,89.3233 2100.3,89.2817 2102.25,89.2403 2104.21,89.1993 2106.17,89.1584 2108.13,89.1179 2110.08,89.0776 2112.04,89.0375 2114,88.9977 2115.96,88.9582 2117.91,88.9189 2119.87,88.8799 2121.83,88.8411 2123.79,88.8025 2125.74,88.7642 2127.7,88.7261 2129.66,88.6883 2131.62,88.6507 2133.57,88.6133 2135.53,88.5761 2137.49,88.5392 2139.45,88.5025 2141.4,88.4661 2143.36,88.4298 2145.32,88.3938 2147.28,88.358 2149.23,88.3224 2151.19,88.2871 2153.15,88.2519 2155.11,88.217 2157.06,88.1822 2159.02,88.1477 2160.98,88.1134 2162.94,88.0793 2164.89,88.0453 2166.85,88.0116 2168.81,87.9781 2170.77,87.9448 2172.72,87.9117 2174.68,87.8788 2176.64,87.846 2178.6,87.8135 2180.55,87.7812 2182.51,87.749 2184.47,87.717 2186.43,87.6853 2188.38,87.6537 2190.34,87.6222 2192.3,87.591 2194.26,87.56 2196.21,87.5291 2198.17,87.4984 2200.13,87.4679 2202.09,87.4375 2204.04,87.4073 2206,87.3773 2207.96,87.3475 2209.92,87.3178 2211.87,87.2884 2213.83,87.259 2215.79,87.2299 2217.75,87.2009 2219.7,87.172 2221.66,87.1434 2223.62,87.1148 2225.58,87.0865 2227.53,87.0583 2229.49,87.0302 2231.45,87.0024 2233.41,86.9746 2235.36,86.9471 2237.32,86.9196 2239.28,86.8924 2241.24,86.8652 2243.19,86.8383 2245.15,86.8114 2247.11,86.7847 2249.07,86.7582 2251.02,86.7318 2252.98,86.7056 2254.94,86.6795 2256.9,86.6535 2258.85,86.6277 2260.81,86.602 2262.77,86.5764 2264.73,86.551 2266.68,86.5258 2268.64,86.5006 2270.6,86.4756 2272.56,86.4507 2274.51,86.426 2276.47,86.4014 2278.43,86.3769 2280.39,86.3526 2282.34,86.3283 2284.3,86.3043 2286.26,86.2803 2288.22,86.2564 2290.17,86.2327 2292.13,86.2091 2294.09,86.1857 "/>
<polyline clip-path="url(#clip152)" style="stroke:#ff0000; stroke-linecap:round; stroke-linejoin:round; stroke-width:4; stroke-opacity:1; fill:none" points="1267.42,2799.12 1267.42,-1328.69 "/>
<polyline clip-path="url(#clip152)" style="stroke:#ff0000; stroke-linecap:round; stroke-linejoin:round; stroke-width:4; stroke-opacity:1; fill:none" points="1365.2,2799.12 1365.2,-1328.69 "/>
</svg>
