<?xml version="1.0" encoding="utf-8"?>
<svg xmlns="http://www.w3.org/2000/svg" xmlns:xlink="http://www.w3.org/1999/xlink" width="600" height="400" viewBox="0 0 2400 1600">
<defs>
  <clipPath id="clip070">
    <rect x="0" y="0" width="2400" height="1600"/>
  </clipPath>
</defs>
<path clip-path="url(#clip070)" d="M0 1600 L2400 1600 L2400 0 L0 0  Z" fill="#ffffff" fill-rule="evenodd" fill-opacity="1"/>
<defs>
  <clipPath id="clip071">
    <rect x="480" y="0" width="1681" height="1600"/>
  </clipPath>
</defs>
<path clip-path="url(#clip070)" d="M265.445 1423.18 L2352.76 1423.18 L2352.76 47.2441 L265.445 47.2441  Z" fill="#ffffff" fill-rule="evenodd" fill-opacity="1"/>
<defs>
  <clipPath id="clip072">
    <rect x="265" y="47" width="2088" height="1377"/>
  </clipPath>
</defs>
<polyline clip-path="url(#clip072)" style="stroke:#000000; stroke-linecap:round; stroke-linejoin:round; stroke-width:2; stroke-opacity:0.1; fill:none" points="521.436,1423.18 521.436,47.2441 "/>
<polyline clip-path="url(#clip072)" style="stroke:#000000; stroke-linecap:round; stroke-linejoin:round; stroke-width:2; stroke-opacity:0.1; fill:none" points="915.268,1423.18 915.268,47.2441 "/>
<polyline clip-path="url(#clip072)" style="stroke:#000000; stroke-linecap:round; stroke-linejoin:round; stroke-width:2; stroke-opacity:0.1; fill:none" points="1309.1,1423.18 1309.1,47.2441 "/>
<polyline clip-path="url(#clip072)" style="stroke:#000000; stroke-linecap:round; stroke-linejoin:round; stroke-width:2; stroke-opacity:0.1; fill:none" points="1702.93,1423.18 1702.93,47.2441 "/>
<polyline clip-path="url(#clip072)" style="stroke:#000000; stroke-linecap:round; stroke-linejoin:round; stroke-width:2; stroke-opacity:0.1; fill:none" points="2096.76,1423.18 2096.76,47.2441 "/>
<polyline clip-path="url(#clip072)" style="stroke:#000000; stroke-linecap:round; stroke-linejoin:round; stroke-width:2; stroke-opacity:0.1; fill:none" points="265.445,1384.24 2352.76,1384.24 "/>
<polyline clip-path="url(#clip072)" style="stroke:#000000; stroke-linecap:round; stroke-linejoin:round; stroke-width:2; stroke-opacity:0.1; fill:none" points="265.445,1091.03 2352.76,1091.03 "/>
<polyline clip-path="url(#clip072)" style="stroke:#000000; stroke-linecap:round; stroke-linejoin:round; stroke-width:2; stroke-opacity:0.1; fill:none" points="265.445,797.814 2352.76,797.814 "/>
<polyline clip-path="url(#clip072)" style="stroke:#000000; stroke-linecap:round; stroke-linejoin:round; stroke-width:2; stroke-opacity:0.1; fill:none" points="265.445,504.602 2352.76,504.602 "/>
<polyline clip-path="url(#clip072)" style="stroke:#000000; stroke-linecap:round; stroke-linejoin:round; stroke-width:2; stroke-opacity:0.1; fill:none" points="265.445,211.39 2352.76,211.39 "/>
<polyline clip-path="url(#clip070)" style="stroke:#000000; stroke-linecap:round; stroke-linejoin:round; stroke-width:4; stroke-opacity:1; fill:none" points="265.445,1423.18 2352.76,1423.18 "/>
<polyline clip-path="url(#clip070)" style="stroke:#000000; stroke-linecap:round; stroke-linejoin:round; stroke-width:4; stroke-opacity:1; fill:none" points="521.436,1423.18 521.436,1404.28 "/>
<polyline clip-path="url(#clip070)" style="stroke:#000000; stroke-linecap:round; stroke-linejoin:round; stroke-width:4; stroke-opacity:1; fill:none" points="915.268,1423.18 915.268,1404.28 "/>
<polyline clip-path="url(#clip070)" style="stroke:#000000; stroke-linecap:round; stroke-linejoin:round; stroke-width:4; stroke-opacity:1; fill:none" points="1309.1,1423.18 1309.1,1404.28 "/>
<polyline clip-path="url(#clip070)" style="stroke:#000000; stroke-linecap:round; stroke-linejoin:round; stroke-width:4; stroke-opacity:1; fill:none" points="1702.93,1423.18 1702.93,1404.28 "/>
<polyline clip-path="url(#clip070)" style="stroke:#000000; stroke-linecap:round; stroke-linejoin:round; stroke-width:4; stroke-opacity:1; fill:none" points="2096.76,1423.18 2096.76,1404.28 "/>
<path clip-path="url(#clip070)" d="M477.512 1481.64 L493.832 1481.64 L493.832 1485.58 L471.887 1485.58 L471.887 1481.64 Q474.549 1478.89 479.133 1474.26 Q483.739 1469.61 484.92 1468.27 Q487.165 1465.74 488.045 1464.01 Q488.947 1462.25 488.947 1460.56 Q488.947 1457.8 487.003 1456.07 Q485.082 1454.33 481.98 1454.33 Q479.781 1454.33 477.327 1455.09 Q474.897 1455.86 472.119 1457.41 L472.119 1452.69 Q474.943 1451.55 477.397 1450.97 Q479.85 1450.39 481.887 1450.39 Q487.258 1450.39 490.452 1453.08 Q493.647 1455.77 493.647 1460.26 Q493.647 1462.39 492.836 1464.31 Q492.049 1466.2 489.943 1468.8 Q489.364 1469.47 486.262 1472.69 Q483.16 1475.88 477.512 1481.64 Z" fill="#000000" fill-rule="nonzero" fill-opacity="1" /><path clip-path="url(#clip070)" d="M514.225 1466.44 Q511.077 1466.44 509.225 1468.59 Q507.396 1470.74 507.396 1474.49 Q507.396 1478.22 509.225 1480.39 Q511.077 1482.55 514.225 1482.55 Q517.373 1482.55 519.202 1480.39 Q521.054 1478.22 521.054 1474.49 Q521.054 1470.74 519.202 1468.59 Q517.373 1466.44 514.225 1466.44 M523.507 1451.78 L523.507 1456.04 Q521.748 1455.21 519.943 1454.77 Q518.16 1454.33 516.401 1454.33 Q511.771 1454.33 509.318 1457.45 Q506.887 1460.58 506.54 1466.9 Q507.906 1464.89 509.966 1463.82 Q512.026 1462.73 514.503 1462.73 Q519.711 1462.73 522.72 1465.9 Q525.753 1469.05 525.753 1474.49 Q525.753 1479.82 522.605 1483.03 Q519.457 1486.25 514.225 1486.25 Q508.23 1486.25 505.058 1481.67 Q501.887 1477.06 501.887 1468.33 Q501.887 1460.14 505.776 1455.28 Q509.665 1450.39 516.216 1450.39 Q517.975 1450.39 519.757 1450.74 Q521.563 1451.09 523.507 1451.78 Z" fill="#000000" fill-rule="nonzero" fill-opacity="1" /><path clip-path="url(#clip070)" d="M533.808 1479.7 L538.693 1479.7 L538.693 1485.58 L533.808 1485.58 L533.808 1479.7 Z" fill="#000000" fill-rule="nonzero" fill-opacity="1" /><path clip-path="url(#clip070)" d="M559.456 1466.44 Q556.308 1466.44 554.456 1468.59 Q552.628 1470.74 552.628 1474.49 Q552.628 1478.22 554.456 1480.39 Q556.308 1482.55 559.456 1482.55 Q562.604 1482.55 564.433 1480.39 Q566.285 1478.22 566.285 1474.49 Q566.285 1470.74 564.433 1468.59 Q562.604 1466.44 559.456 1466.44 M568.739 1451.78 L568.739 1456.04 Q566.979 1455.21 565.174 1454.77 Q563.392 1454.33 561.632 1454.33 Q557.003 1454.33 554.549 1457.45 Q552.118 1460.58 551.771 1466.9 Q553.137 1464.89 555.197 1463.82 Q557.257 1462.73 559.734 1462.73 Q564.942 1462.73 567.952 1465.9 Q570.984 1469.05 570.984 1474.49 Q570.984 1479.82 567.836 1483.03 Q564.688 1486.25 559.456 1486.25 Q553.461 1486.25 550.29 1481.67 Q547.118 1477.06 547.118 1468.33 Q547.118 1460.14 551.007 1455.28 Q554.896 1450.39 561.447 1450.39 Q563.206 1450.39 564.989 1450.74 Q566.794 1451.09 568.739 1451.78 Z" fill="#000000" fill-rule="nonzero" fill-opacity="1" /><path clip-path="url(#clip070)" d="M871.472 1481.64 L887.791 1481.64 L887.791 1485.58 L865.847 1485.58 L865.847 1481.64 Q868.509 1478.89 873.092 1474.26 Q877.699 1469.61 878.879 1468.27 Q881.125 1465.74 882.004 1464.01 Q882.907 1462.25 882.907 1460.56 Q882.907 1457.8 880.963 1456.07 Q879.041 1454.33 875.94 1454.33 Q873.74 1454.33 871.287 1455.09 Q868.856 1455.86 866.078 1457.41 L866.078 1452.69 Q868.903 1451.55 871.356 1450.97 Q873.81 1450.39 875.847 1450.39 Q881.217 1450.39 884.412 1453.08 Q887.606 1455.77 887.606 1460.26 Q887.606 1462.39 886.796 1464.31 Q886.009 1466.2 883.902 1468.8 Q883.324 1469.47 880.222 1472.69 Q877.12 1475.88 871.472 1481.64 Z" fill="#000000" fill-rule="nonzero" fill-opacity="1" /><path clip-path="url(#clip070)" d="M908.185 1466.44 Q905.037 1466.44 903.185 1468.59 Q901.356 1470.74 901.356 1474.49 Q901.356 1478.22 903.185 1480.39 Q905.037 1482.55 908.185 1482.55 Q911.333 1482.55 913.162 1480.39 Q915.013 1478.22 915.013 1474.49 Q915.013 1470.74 913.162 1468.59 Q911.333 1466.44 908.185 1466.44 M917.467 1451.78 L917.467 1456.04 Q915.708 1455.21 913.902 1454.77 Q912.12 1454.33 910.361 1454.33 Q905.731 1454.33 903.277 1457.45 Q900.847 1460.58 900.5 1466.9 Q901.865 1464.89 903.925 1463.82 Q905.986 1462.73 908.462 1462.73 Q913.671 1462.73 916.68 1465.9 Q919.712 1469.05 919.712 1474.49 Q919.712 1479.82 916.564 1483.03 Q913.416 1486.25 908.185 1486.25 Q902.189 1486.25 899.018 1481.67 Q895.847 1477.06 895.847 1468.33 Q895.847 1460.14 899.736 1455.28 Q903.625 1450.39 910.175 1450.39 Q911.935 1450.39 913.717 1450.74 Q915.523 1451.09 917.467 1451.78 Z" fill="#000000" fill-rule="nonzero" fill-opacity="1" /><path clip-path="url(#clip070)" d="M927.768 1479.7 L932.652 1479.7 L932.652 1485.58 L927.768 1485.58 L927.768 1479.7 Z" fill="#000000" fill-rule="nonzero" fill-opacity="1" /><path clip-path="url(#clip070)" d="M952.837 1469.17 Q949.504 1469.17 947.583 1470.95 Q945.685 1472.73 945.685 1475.86 Q945.685 1478.98 947.583 1480.77 Q949.504 1482.55 952.837 1482.55 Q956.171 1482.55 958.092 1480.77 Q960.013 1478.96 960.013 1475.86 Q960.013 1472.73 958.092 1470.95 Q956.194 1469.17 952.837 1469.17 M948.161 1467.18 Q945.152 1466.44 943.462 1464.38 Q941.796 1462.32 941.796 1459.35 Q941.796 1455.21 944.735 1452.8 Q947.698 1450.39 952.837 1450.39 Q957.999 1450.39 960.939 1452.8 Q963.879 1455.21 963.879 1459.35 Q963.879 1462.32 962.189 1464.38 Q960.522 1466.44 957.536 1467.18 Q960.916 1467.96 962.791 1470.26 Q964.689 1472.55 964.689 1475.86 Q964.689 1480.88 961.61 1483.57 Q958.555 1486.25 952.837 1486.25 Q947.12 1486.25 944.041 1483.57 Q940.985 1480.88 940.985 1475.86 Q940.985 1472.55 942.884 1470.26 Q944.782 1467.96 948.161 1467.18 M946.448 1459.79 Q946.448 1462.48 948.115 1463.98 Q949.805 1465.49 952.837 1465.49 Q955.847 1465.49 957.536 1463.98 Q959.249 1462.48 959.249 1459.79 Q959.249 1457.11 957.536 1455.6 Q955.847 1454.1 952.837 1454.1 Q949.805 1454.1 948.115 1455.6 Q946.448 1457.11 946.448 1459.79 Z" fill="#000000" fill-rule="nonzero" fill-opacity="1" /><path clip-path="url(#clip070)" d="M1265.26 1481.64 L1281.58 1481.64 L1281.58 1485.58 L1259.63 1485.58 L1259.63 1481.64 Q1262.3 1478.89 1266.88 1474.26 Q1271.48 1469.61 1272.67 1468.27 Q1274.91 1465.74 1275.79 1464.01 Q1276.69 1462.25 1276.69 1460.56 Q1276.69 1457.8 1274.75 1456.07 Q1272.83 1454.33 1269.73 1454.33 Q1267.53 1454.33 1265.07 1455.09 Q1262.64 1455.86 1259.86 1457.41 L1259.86 1452.69 Q1262.69 1451.55 1265.14 1450.97 Q1267.6 1450.39 1269.63 1450.39 Q1275 1450.39 1278.2 1453.08 Q1281.39 1455.77 1281.39 1460.26 Q1281.39 1462.39 1280.58 1464.31 Q1279.79 1466.2 1277.69 1468.8 Q1277.11 1469.47 1274.01 1472.69 Q1270.91 1475.88 1265.26 1481.64 Z" fill="#000000" fill-rule="nonzero" fill-opacity="1" /><path clip-path="url(#clip070)" d="M1290.21 1451.02 L1312.43 1451.02 L1312.43 1453.01 L1299.89 1485.58 L1295 1485.58 L1306.81 1454.96 L1290.21 1454.96 L1290.21 1451.02 Z" fill="#000000" fill-rule="nonzero" fill-opacity="1" /><path clip-path="url(#clip070)" d="M1321.55 1479.7 L1326.44 1479.7 L1326.44 1485.58 L1321.55 1485.58 L1321.55 1479.7 Z" fill="#000000" fill-rule="nonzero" fill-opacity="1" /><path clip-path="url(#clip070)" d="M1346.62 1454.1 Q1343.01 1454.1 1341.18 1457.66 Q1339.38 1461.2 1339.38 1468.33 Q1339.38 1475.44 1341.18 1479.01 Q1343.01 1482.55 1346.62 1482.55 Q1350.26 1482.55 1352.06 1479.01 Q1353.89 1475.44 1353.89 1468.33 Q1353.89 1461.2 1352.06 1457.66 Q1350.26 1454.1 1346.62 1454.1 M1346.62 1450.39 Q1352.43 1450.39 1355.49 1455 Q1358.57 1459.58 1358.57 1468.33 Q1358.57 1477.06 1355.49 1481.67 Q1352.43 1486.25 1346.62 1486.25 Q1340.81 1486.25 1337.73 1481.67 Q1334.68 1477.06 1334.68 1468.33 Q1334.68 1459.58 1337.73 1455 Q1340.81 1450.39 1346.62 1450.39 Z" fill="#000000" fill-rule="nonzero" fill-opacity="1" /><path clip-path="url(#clip070)" d="M1659.89 1481.64 L1676.21 1481.64 L1676.21 1485.58 L1654.26 1485.58 L1654.26 1481.64 Q1656.93 1478.89 1661.51 1474.26 Q1666.12 1469.61 1667.3 1468.27 Q1669.54 1465.74 1670.42 1464.01 Q1671.32 1462.25 1671.32 1460.56 Q1671.32 1457.8 1669.38 1456.07 Q1667.46 1454.33 1664.36 1454.33 Q1662.16 1454.33 1659.7 1455.09 Q1657.27 1455.86 1654.5 1457.41 L1654.5 1452.69 Q1657.32 1451.55 1659.77 1450.97 Q1662.23 1450.39 1664.26 1450.39 Q1669.63 1450.39 1672.83 1453.08 Q1676.02 1455.77 1676.02 1460.26 Q1676.02 1462.39 1675.21 1464.31 Q1674.43 1466.2 1672.32 1468.8 Q1671.74 1469.47 1668.64 1472.69 Q1665.54 1475.88 1659.89 1481.64 Z" fill="#000000" fill-rule="nonzero" fill-opacity="1" /><path clip-path="url(#clip070)" d="M1684.84 1451.02 L1707.06 1451.02 L1707.06 1453.01 L1694.52 1485.58 L1689.63 1485.58 L1701.44 1454.96 L1684.84 1454.96 L1684.84 1451.02 Z" fill="#000000" fill-rule="nonzero" fill-opacity="1" /><path clip-path="url(#clip070)" d="M1716.18 1479.7 L1721.07 1479.7 L1721.07 1485.58 L1716.18 1485.58 L1716.18 1479.7 Z" fill="#000000" fill-rule="nonzero" fill-opacity="1" /><path clip-path="url(#clip070)" d="M1735.28 1481.64 L1751.6 1481.64 L1751.6 1485.58 L1729.66 1485.58 L1729.66 1481.64 Q1732.32 1478.89 1736.9 1474.26 Q1741.51 1469.61 1742.69 1468.27 Q1744.93 1465.74 1745.81 1464.01 Q1746.72 1462.25 1746.72 1460.56 Q1746.72 1457.8 1744.77 1456.07 Q1742.85 1454.33 1739.75 1454.33 Q1737.55 1454.33 1735.1 1455.09 Q1732.67 1455.86 1729.89 1457.41 L1729.89 1452.69 Q1732.71 1451.55 1735.17 1450.97 Q1737.62 1450.39 1739.66 1450.39 Q1745.03 1450.39 1748.22 1453.08 Q1751.42 1455.77 1751.42 1460.26 Q1751.42 1462.39 1750.61 1464.31 Q1749.82 1466.2 1747.71 1468.8 Q1747.13 1469.47 1744.03 1472.69 Q1740.93 1475.88 1735.28 1481.64 Z" fill="#000000" fill-rule="nonzero" fill-opacity="1" /><path clip-path="url(#clip070)" d="M2052.68 1481.64 L2069 1481.64 L2069 1485.58 L2047.05 1485.58 L2047.05 1481.64 Q2049.72 1478.89 2054.3 1474.26 Q2058.91 1469.61 2060.09 1468.27 Q2062.33 1465.74 2063.21 1464.01 Q2064.11 1462.25 2064.11 1460.56 Q2064.11 1457.8 2062.17 1456.07 Q2060.25 1454.33 2057.15 1454.33 Q2054.95 1454.33 2052.49 1455.09 Q2050.06 1455.86 2047.29 1457.41 L2047.29 1452.69 Q2050.11 1451.55 2052.56 1450.97 Q2055.02 1450.39 2057.05 1450.39 Q2062.42 1450.39 2065.62 1453.08 Q2068.81 1455.77 2068.81 1460.26 Q2068.81 1462.39 2068 1464.31 Q2067.22 1466.2 2065.11 1468.8 Q2064.53 1469.47 2061.43 1472.69 Q2058.33 1475.88 2052.68 1481.64 Z" fill="#000000" fill-rule="nonzero" fill-opacity="1" /><path clip-path="url(#clip070)" d="M2077.63 1451.02 L2099.86 1451.02 L2099.86 1453.01 L2087.31 1485.58 L2082.42 1485.58 L2094.23 1454.96 L2077.63 1454.96 L2077.63 1451.02 Z" fill="#000000" fill-rule="nonzero" fill-opacity="1" /><path clip-path="url(#clip070)" d="M2108.98 1479.7 L2113.86 1479.7 L2113.86 1485.58 L2108.98 1485.58 L2108.98 1479.7 Z" fill="#000000" fill-rule="nonzero" fill-opacity="1" /><path clip-path="url(#clip070)" d="M2136.89 1455.09 L2125.09 1473.54 L2136.89 1473.54 L2136.89 1455.09 M2135.67 1451.02 L2141.54 1451.02 L2141.54 1473.54 L2146.48 1473.54 L2146.48 1477.43 L2141.54 1477.43 L2141.54 1485.58 L2136.89 1485.58 L2136.89 1477.43 L2121.29 1477.43 L2121.29 1472.92 L2135.67 1451.02 Z" fill="#000000" fill-rule="nonzero" fill-opacity="1" /><path clip-path="url(#clip070)" d="M1017.26 1520.52 L1044.57 1520.52 L1044.57 1525.93 L1023.69 1525.93 L1023.69 1539.94 L1042.54 1539.94 L1042.54 1545.35 L1023.69 1545.35 L1023.69 1568.04 L1017.26 1568.04 L1017.26 1520.52 Z" fill="#000000" fill-rule="nonzero" fill-opacity="1" /><path clip-path="url(#clip070)" d="M1070.42 1537.87 Q1069.43 1537.3 1068.25 1537.04 Q1067.11 1536.76 1065.71 1536.76 Q1060.74 1536.76 1058.07 1540 Q1055.43 1543.22 1055.43 1549.27 L1055.43 1568.04 L1049.54 1568.04 L1049.54 1532.4 L1055.43 1532.4 L1055.43 1537.93 Q1057.27 1534.69 1060.23 1533.13 Q1063.19 1531.54 1067.43 1531.54 Q1068.03 1531.54 1068.76 1531.63 Q1069.5 1531.7 1070.39 1531.85 L1070.42 1537.87 Z" fill="#000000" fill-rule="nonzero" fill-opacity="1" /><path clip-path="url(#clip070)" d="M1105.62 1548.76 L1105.62 1551.62 L1078.69 1551.62 Q1079.08 1557.67 1082.32 1560.85 Q1085.6 1564 1091.42 1564 Q1094.8 1564 1097.95 1563.17 Q1101.13 1562.35 1104.25 1560.69 L1104.25 1566.23 Q1101.1 1567.57 1097.79 1568.27 Q1094.48 1568.97 1091.07 1568.97 Q1082.54 1568.97 1077.55 1564 Q1072.58 1559.04 1072.58 1550.57 Q1072.58 1541.82 1077.29 1536.69 Q1082.04 1531.54 1090.06 1531.54 Q1097.25 1531.54 1101.42 1536.18 Q1105.62 1540.8 1105.62 1548.76 M1099.76 1547.04 Q1099.7 1542.23 1097.06 1539.37 Q1094.45 1536.5 1090.12 1536.5 Q1085.22 1536.5 1082.26 1539.27 Q1079.33 1542.04 1078.88 1547.07 L1099.76 1547.04 Z" fill="#000000" fill-rule="nonzero" fill-opacity="1" /><path clip-path="url(#clip070)" d="M1118.73 1550.25 Q1118.73 1556.71 1121.38 1560.4 Q1124.05 1564.07 1128.7 1564.07 Q1133.34 1564.07 1136.02 1560.4 Q1138.69 1556.71 1138.69 1550.25 Q1138.69 1543.79 1136.02 1540.13 Q1133.34 1536.44 1128.7 1536.44 Q1124.05 1536.44 1121.38 1540.13 Q1118.73 1543.79 1118.73 1550.25 M1138.69 1562.7 Q1136.84 1565.88 1134.01 1567.44 Q1131.21 1568.97 1127.26 1568.97 Q1120.8 1568.97 1116.73 1563.81 Q1112.69 1558.65 1112.69 1550.25 Q1112.69 1541.85 1116.73 1536.69 Q1120.8 1531.54 1127.26 1531.54 Q1131.21 1531.54 1134.01 1533.1 Q1136.84 1534.62 1138.69 1537.81 L1138.69 1532.4 L1144.55 1532.4 L1144.55 1581.6 L1138.69 1581.6 L1138.69 1562.7 Z" fill="#000000" fill-rule="nonzero" fill-opacity="1" /><path clip-path="url(#clip070)" d="M1156.01 1553.98 L1156.01 1532.4 L1161.86 1532.4 L1161.86 1553.75 Q1161.86 1558.81 1163.83 1561.36 Q1165.81 1563.87 1169.75 1563.87 Q1174.5 1563.87 1177.23 1560.85 Q1180 1557.83 1180 1552.61 L1180 1532.4 L1185.86 1532.4 L1185.86 1568.04 L1180 1568.04 L1180 1562.57 Q1177.87 1565.82 1175.04 1567.41 Q1172.24 1568.97 1168.51 1568.97 Q1162.37 1568.97 1159.19 1565.15 Q1156.01 1561.33 1156.01 1553.98 M1170.74 1531.54 L1170.74 1531.54 Z" fill="#000000" fill-rule="nonzero" fill-opacity="1" /><path clip-path="url(#clip070)" d="M1228.41 1548.76 L1228.41 1551.62 L1201.49 1551.62 Q1201.87 1557.67 1205.12 1560.85 Q1208.39 1564 1214.22 1564 Q1217.59 1564 1220.74 1563.17 Q1223.93 1562.35 1227.05 1560.69 L1227.05 1566.23 Q1223.9 1567.57 1220.59 1568.27 Q1217.27 1568.97 1213.87 1568.97 Q1205.34 1568.97 1200.34 1564 Q1195.38 1559.04 1195.38 1550.57 Q1195.38 1541.82 1200.09 1536.69 Q1204.83 1531.54 1212.85 1531.54 Q1220.04 1531.54 1224.21 1536.18 Q1228.41 1540.8 1228.41 1548.76 M1222.56 1547.04 Q1222.49 1542.23 1219.85 1539.37 Q1217.24 1536.5 1212.91 1536.5 Q1208.01 1536.5 1205.05 1539.27 Q1202.12 1542.04 1201.68 1547.07 L1222.56 1547.04 Z" fill="#000000" fill-rule="nonzero" fill-opacity="1" /><path clip-path="url(#clip070)" d="M1267.66 1546.53 L1267.66 1568.04 L1261.8 1568.04 L1261.8 1546.72 Q1261.8 1541.66 1259.83 1539.14 Q1257.86 1536.63 1253.91 1536.63 Q1249.17 1536.63 1246.43 1539.65 Q1243.69 1542.68 1243.69 1547.9 L1243.69 1568.04 L1237.8 1568.04 L1237.8 1532.4 L1243.69 1532.4 L1243.69 1537.93 Q1245.79 1534.72 1248.63 1533.13 Q1251.49 1531.54 1255.21 1531.54 Q1261.36 1531.54 1264.51 1535.36 Q1267.66 1539.14 1267.66 1546.53 Z" fill="#000000" fill-rule="nonzero" fill-opacity="1" /><path clip-path="url(#clip070)" d="M1304.99 1533.76 L1304.99 1539.24 Q1302.51 1537.87 1300 1537.2 Q1297.51 1536.5 1294.97 1536.5 Q1289.27 1536.5 1286.12 1540.13 Q1282.97 1543.73 1282.97 1550.25 Q1282.97 1556.78 1286.12 1560.4 Q1289.27 1564 1294.97 1564 Q1297.51 1564 1300 1563.33 Q1302.51 1562.63 1304.99 1561.26 L1304.99 1566.68 Q1302.54 1567.82 1299.9 1568.39 Q1297.29 1568.97 1294.33 1568.97 Q1286.28 1568.97 1281.54 1563.91 Q1276.79 1558.85 1276.79 1550.25 Q1276.79 1541.53 1281.57 1536.53 Q1286.37 1531.54 1294.71 1531.54 Q1297.42 1531.54 1300 1532.11 Q1302.58 1532.65 1304.99 1533.76 Z" fill="#000000" fill-rule="nonzero" fill-opacity="1" /><path clip-path="url(#clip070)" d="M1315.18 1532.4 L1321.04 1532.4 L1321.04 1568.04 L1315.18 1568.04 L1315.18 1532.4 M1315.18 1518.52 L1321.04 1518.52 L1321.04 1525.93 L1315.18 1525.93 L1315.18 1518.52 Z" fill="#000000" fill-rule="nonzero" fill-opacity="1" /><path clip-path="url(#clip070)" d="M1363.78 1548.76 L1363.78 1551.62 L1336.85 1551.62 Q1337.24 1557.67 1340.48 1560.85 Q1343.76 1564 1349.59 1564 Q1352.96 1564 1356.11 1563.17 Q1359.29 1562.35 1362.41 1560.69 L1362.41 1566.23 Q1359.26 1567.57 1355.95 1568.27 Q1352.64 1568.97 1349.24 1568.97 Q1340.71 1568.97 1335.71 1564 Q1330.74 1559.04 1330.74 1550.57 Q1330.74 1541.82 1335.45 1536.69 Q1340.2 1531.54 1348.22 1531.54 Q1355.41 1531.54 1359.58 1536.18 Q1363.78 1540.8 1363.78 1548.76 M1357.93 1547.04 Q1357.86 1542.23 1355.22 1539.37 Q1352.61 1536.5 1348.28 1536.5 Q1343.38 1536.5 1340.42 1539.27 Q1337.49 1542.04 1337.05 1547.07 L1357.93 1547.04 Z" fill="#000000" fill-rule="nonzero" fill-opacity="1" /><path clip-path="url(#clip070)" d="M1396.12 1533.45 L1396.12 1538.98 Q1393.64 1537.71 1390.96 1537.07 Q1388.29 1536.44 1385.43 1536.44 Q1381.06 1536.44 1378.87 1537.77 Q1376.7 1539.11 1376.7 1541.79 Q1376.7 1543.82 1378.26 1545 Q1379.82 1546.15 1384.53 1547.2 L1386.54 1547.64 Q1392.78 1548.98 1395.39 1551.43 Q1398.03 1553.85 1398.03 1558.21 Q1398.03 1563.17 1394.08 1566.07 Q1390.17 1568.97 1383.29 1568.97 Q1380.43 1568.97 1377.31 1568.39 Q1374.22 1567.85 1370.78 1566.74 L1370.78 1560.69 Q1374.03 1562.38 1377.18 1563.24 Q1380.33 1564.07 1383.42 1564.07 Q1387.56 1564.07 1389.79 1562.66 Q1392.01 1561.23 1392.01 1558.65 Q1392.01 1556.27 1390.39 1554.99 Q1388.8 1553.72 1383.36 1552.54 L1381.32 1552.07 Q1375.88 1550.92 1373.46 1548.56 Q1371.04 1546.18 1371.04 1542.04 Q1371.04 1537.01 1374.6 1534.27 Q1378.17 1531.54 1384.72 1531.54 Q1387.97 1531.54 1390.84 1532.01 Q1393.7 1532.49 1396.12 1533.45 Z" fill="#000000" fill-rule="nonzero" fill-opacity="1" /><path clip-path="url(#clip070)" d="M1427.53 1518.52 L1441.03 1518.52 L1441.03 1523.07 L1433.39 1523.07 L1433.39 1572.09 L1441.03 1572.09 L1441.03 1576.64 L1427.53 1576.64 L1427.53 1518.52 Z" fill="#000000" fill-rule="nonzero" fill-opacity="1" /><path clip-path="url(#clip070)" d="M1486.16 1561.26 L1486.16 1548.5 L1475.66 1548.5 L1475.66 1543.22 L1492.53 1543.22 L1492.53 1563.62 Q1488.8 1566.26 1484.32 1567.63 Q1479.83 1568.97 1474.74 1568.97 Q1463.6 1568.97 1457.29 1562.47 Q1451.02 1555.95 1451.02 1544.33 Q1451.02 1532.68 1457.29 1526.19 Q1463.6 1519.66 1474.74 1519.66 Q1479.38 1519.66 1483.55 1520.81 Q1487.75 1521.96 1491.29 1524.18 L1491.29 1531.03 Q1487.72 1528 1483.71 1526.48 Q1479.7 1524.95 1475.28 1524.95 Q1466.56 1524.95 1462.16 1529.82 Q1457.8 1534.69 1457.8 1544.33 Q1457.8 1553.94 1462.16 1558.81 Q1466.56 1563.68 1475.28 1563.68 Q1478.68 1563.68 1481.36 1563.11 Q1484.03 1562.51 1486.16 1561.26 Z" fill="#000000" fill-rule="nonzero" fill-opacity="1" /><path clip-path="url(#clip070)" d="M1504.27 1520.52 L1510.7 1520.52 L1510.7 1540 L1534.06 1540 L1534.06 1520.52 L1540.49 1520.52 L1540.49 1568.04 L1534.06 1568.04 L1534.06 1545.41 L1510.7 1545.41 L1510.7 1568.04 L1504.27 1568.04 L1504.27 1520.52 Z" fill="#000000" fill-rule="nonzero" fill-opacity="1" /><path clip-path="url(#clip070)" d="M1550.49 1532.4 L1578.31 1532.4 L1578.31 1537.74 L1556.28 1563.37 L1578.31 1563.37 L1578.31 1568.04 L1549.69 1568.04 L1549.69 1562.7 L1571.72 1537.07 L1550.49 1537.07 L1550.49 1532.4 Z" fill="#000000" fill-rule="nonzero" fill-opacity="1" /><path clip-path="url(#clip070)" d="M1600.94 1518.52 L1600.94 1576.64 L1587.44 1576.64 L1587.44 1572.09 L1595.05 1572.09 L1595.05 1523.07 L1587.44 1523.07 L1587.44 1518.52 L1600.94 1518.52 Z" fill="#000000" fill-rule="nonzero" fill-opacity="1" /><polyline clip-path="url(#clip070)" style="stroke:#000000; stroke-linecap:round; stroke-linejoin:round; stroke-width:4; stroke-opacity:1; fill:none" points="265.445,1423.18 265.445,47.2441 "/>
<polyline clip-path="url(#clip070)" style="stroke:#000000; stroke-linecap:round; stroke-linejoin:round; stroke-width:4; stroke-opacity:1; fill:none" points="265.445,1384.24 284.342,1384.24 "/>
<polyline clip-path="url(#clip070)" style="stroke:#000000; stroke-linecap:round; stroke-linejoin:round; stroke-width:4; stroke-opacity:1; fill:none" points="265.445,1091.03 284.342,1091.03 "/>
<polyline clip-path="url(#clip070)" style="stroke:#000000; stroke-linecap:round; stroke-linejoin:round; stroke-width:4; stroke-opacity:1; fill:none" points="265.445,797.814 284.342,797.814 "/>
<polyline clip-path="url(#clip070)" style="stroke:#000000; stroke-linecap:round; stroke-linejoin:round; stroke-width:4; stroke-opacity:1; fill:none" points="265.445,504.602 284.342,504.602 "/>
<polyline clip-path="url(#clip070)" style="stroke:#000000; stroke-linecap:round; stroke-linejoin:round; stroke-width:4; stroke-opacity:1; fill:none" points="265.445,211.39 284.342,211.39 "/>
<path clip-path="url(#clip070)" d="M217.5 1370.04 Q213.889 1370.04 212.061 1373.6 Q210.255 1377.14 210.255 1384.27 Q210.255 1391.38 212.061 1394.94 Q213.889 1398.49 217.5 1398.49 Q221.135 1398.49 222.94 1394.94 Q224.769 1391.38 224.769 1384.27 Q224.769 1377.14 222.94 1373.6 Q221.135 1370.04 217.5 1370.04 M217.5 1366.33 Q223.31 1366.33 226.366 1370.94 Q229.445 1375.52 229.445 1384.27 Q229.445 1393 226.366 1397.61 Q223.31 1402.19 217.5 1402.19 Q211.69 1402.19 208.612 1397.61 Q205.556 1393 205.556 1384.27 Q205.556 1375.52 208.612 1370.94 Q211.69 1366.33 217.5 1366.33 Z" fill="#000000" fill-rule="nonzero" fill-opacity="1" /><path clip-path="url(#clip070)" d="M117.825 1104.37 L125.464 1104.37 L125.464 1078.01 L117.154 1079.67 L117.154 1075.41 L125.418 1073.75 L130.093 1073.75 L130.093 1104.37 L137.732 1104.37 L137.732 1108.31 L117.825 1108.31 L117.825 1104.37 Z" fill="#000000" fill-rule="nonzero" fill-opacity="1" /><path clip-path="url(#clip070)" d="M157.177 1076.82 Q153.566 1076.82 151.737 1080.39 Q149.931 1083.93 149.931 1091.06 Q149.931 1098.17 151.737 1101.73 Q153.566 1105.27 157.177 1105.27 Q160.811 1105.27 162.616 1101.73 Q164.445 1098.17 164.445 1091.06 Q164.445 1083.93 162.616 1080.39 Q160.811 1076.82 157.177 1076.82 M157.177 1073.12 Q162.987 1073.12 166.042 1077.73 Q169.121 1082.31 169.121 1091.06 Q169.121 1099.79 166.042 1104.39 Q162.987 1108.98 157.177 1108.98 Q151.366 1108.98 148.288 1104.39 Q145.232 1099.79 145.232 1091.06 Q145.232 1082.31 148.288 1077.73 Q151.366 1073.12 157.177 1073.12 Z" fill="#000000" fill-rule="nonzero" fill-opacity="1" /><path clip-path="url(#clip070)" d="M187.338 1076.82 Q183.727 1076.82 181.899 1080.39 Q180.093 1083.93 180.093 1091.06 Q180.093 1098.17 181.899 1101.73 Q183.727 1105.27 187.338 1105.27 Q190.973 1105.27 192.778 1101.73 Q194.607 1098.17 194.607 1091.06 Q194.607 1083.93 192.778 1080.39 Q190.973 1076.82 187.338 1076.82 M187.338 1073.12 Q193.149 1073.12 196.204 1077.73 Q199.283 1082.31 199.283 1091.06 Q199.283 1099.79 196.204 1104.39 Q193.149 1108.98 187.338 1108.98 Q181.528 1108.98 178.45 1104.39 Q175.394 1099.79 175.394 1091.06 Q175.394 1082.31 178.45 1077.73 Q181.528 1073.12 187.338 1073.12 Z" fill="#000000" fill-rule="nonzero" fill-opacity="1" /><path clip-path="url(#clip070)" d="M217.5 1076.82 Q213.889 1076.82 212.061 1080.39 Q210.255 1083.93 210.255 1091.06 Q210.255 1098.17 212.061 1101.73 Q213.889 1105.27 217.5 1105.27 Q221.135 1105.27 222.94 1101.73 Q224.769 1098.17 224.769 1091.06 Q224.769 1083.93 222.94 1080.39 Q221.135 1076.82 217.5 1076.82 M217.5 1073.12 Q223.31 1073.12 226.366 1077.73 Q229.445 1082.31 229.445 1091.06 Q229.445 1099.79 226.366 1104.39 Q223.31 1108.98 217.5 1108.98 Q211.69 1108.98 208.612 1104.39 Q205.556 1099.79 205.556 1091.06 Q205.556 1082.31 208.612 1077.73 Q211.69 1073.12 217.5 1073.12 Z" fill="#000000" fill-rule="nonzero" fill-opacity="1" /><path clip-path="url(#clip070)" d="M121.043 811.159 L137.362 811.159 L137.362 815.094 L115.418 815.094 L115.418 811.159 Q118.08 808.405 122.663 803.775 Q127.269 799.122 128.45 797.78 Q130.695 795.256 131.575 793.52 Q132.478 791.761 132.478 790.071 Q132.478 787.317 130.533 785.581 Q128.612 783.844 125.51 783.844 Q123.311 783.844 120.857 784.608 Q118.427 785.372 115.649 786.923 L115.649 782.201 Q118.473 781.067 120.927 780.488 Q123.38 779.909 125.418 779.909 Q130.788 779.909 133.982 782.594 Q137.177 785.28 137.177 789.77 Q137.177 791.9 136.367 793.821 Q135.579 795.719 133.473 798.312 Q132.894 798.983 129.792 802.201 Q126.691 805.395 121.043 811.159 Z" fill="#000000" fill-rule="nonzero" fill-opacity="1" /><path clip-path="url(#clip070)" d="M157.177 783.613 Q153.566 783.613 151.737 787.178 Q149.931 790.719 149.931 797.849 Q149.931 804.955 151.737 808.52 Q153.566 812.062 157.177 812.062 Q160.811 812.062 162.616 808.52 Q164.445 804.955 164.445 797.849 Q164.445 790.719 162.616 787.178 Q160.811 783.613 157.177 783.613 M157.177 779.909 Q162.987 779.909 166.042 784.516 Q169.121 789.099 169.121 797.849 Q169.121 806.576 166.042 811.182 Q162.987 815.766 157.177 815.766 Q151.366 815.766 148.288 811.182 Q145.232 806.576 145.232 797.849 Q145.232 789.099 148.288 784.516 Q151.366 779.909 157.177 779.909 Z" fill="#000000" fill-rule="nonzero" fill-opacity="1" /><path clip-path="url(#clip070)" d="M187.338 783.613 Q183.727 783.613 181.899 787.178 Q180.093 790.719 180.093 797.849 Q180.093 804.955 181.899 808.52 Q183.727 812.062 187.338 812.062 Q190.973 812.062 192.778 808.52 Q194.607 804.955 194.607 797.849 Q194.607 790.719 192.778 787.178 Q190.973 783.613 187.338 783.613 M187.338 779.909 Q193.149 779.909 196.204 784.516 Q199.283 789.099 199.283 797.849 Q199.283 806.576 196.204 811.182 Q193.149 815.766 187.338 815.766 Q181.528 815.766 178.45 811.182 Q175.394 806.576 175.394 797.849 Q175.394 789.099 178.45 784.516 Q181.528 779.909 187.338 779.909 Z" fill="#000000" fill-rule="nonzero" fill-opacity="1" /><path clip-path="url(#clip070)" d="M217.5 783.613 Q213.889 783.613 212.061 787.178 Q210.255 790.719 210.255 797.849 Q210.255 804.955 212.061 808.52 Q213.889 812.062 217.5 812.062 Q221.135 812.062 222.94 808.52 Q224.769 804.955 224.769 797.849 Q224.769 790.719 222.94 787.178 Q221.135 783.613 217.5 783.613 M217.5 779.909 Q223.31 779.909 226.366 784.516 Q229.445 789.099 229.445 797.849 Q229.445 806.576 226.366 811.182 Q223.31 815.766 217.5 815.766 Q211.69 815.766 208.612 811.182 Q205.556 806.576 205.556 797.849 Q205.556 789.099 208.612 784.516 Q211.69 779.909 217.5 779.909 Z" fill="#000000" fill-rule="nonzero" fill-opacity="1" /><path clip-path="url(#clip070)" d="M131.181 503.248 Q134.538 503.966 136.413 506.234 Q138.311 508.503 138.311 511.836 Q138.311 516.952 134.792 519.753 Q131.274 522.554 124.793 522.554 Q122.617 522.554 120.302 522.114 Q118.01 521.697 115.556 520.841 L115.556 516.327 Q117.501 517.461 119.816 518.04 Q122.13 518.618 124.654 518.618 Q129.052 518.618 131.343 516.882 Q133.658 515.146 133.658 511.836 Q133.658 508.781 131.505 507.068 Q129.376 505.331 125.556 505.331 L121.529 505.331 L121.529 501.489 L125.742 501.489 Q129.191 501.489 131.019 500.123 Q132.848 498.734 132.848 496.142 Q132.848 493.48 130.95 492.068 Q129.075 490.632 125.556 490.632 Q123.635 490.632 121.436 491.049 Q119.237 491.466 116.598 492.345 L116.598 488.179 Q119.26 487.438 121.575 487.068 Q123.913 486.697 125.973 486.697 Q131.297 486.697 134.399 489.128 Q137.501 491.535 137.501 495.656 Q137.501 498.526 135.857 500.517 Q134.214 502.484 131.181 503.248 Z" fill="#000000" fill-rule="nonzero" fill-opacity="1" /><path clip-path="url(#clip070)" d="M157.177 490.401 Q153.566 490.401 151.737 493.966 Q149.931 497.507 149.931 504.637 Q149.931 511.743 151.737 515.308 Q153.566 518.85 157.177 518.85 Q160.811 518.85 162.616 515.308 Q164.445 511.743 164.445 504.637 Q164.445 497.507 162.616 493.966 Q160.811 490.401 157.177 490.401 M157.177 486.697 Q162.987 486.697 166.042 491.304 Q169.121 495.887 169.121 504.637 Q169.121 513.364 166.042 517.97 Q162.987 522.554 157.177 522.554 Q151.366 522.554 148.288 517.97 Q145.232 513.364 145.232 504.637 Q145.232 495.887 148.288 491.304 Q151.366 486.697 157.177 486.697 Z" fill="#000000" fill-rule="nonzero" fill-opacity="1" /><path clip-path="url(#clip070)" d="M187.338 490.401 Q183.727 490.401 181.899 493.966 Q180.093 497.507 180.093 504.637 Q180.093 511.743 181.899 515.308 Q183.727 518.85 187.338 518.85 Q190.973 518.85 192.778 515.308 Q194.607 511.743 194.607 504.637 Q194.607 497.507 192.778 493.966 Q190.973 490.401 187.338 490.401 M187.338 486.697 Q193.149 486.697 196.204 491.304 Q199.283 495.887 199.283 504.637 Q199.283 513.364 196.204 517.97 Q193.149 522.554 187.338 522.554 Q181.528 522.554 178.45 517.97 Q175.394 513.364 175.394 504.637 Q175.394 495.887 178.45 491.304 Q181.528 486.697 187.338 486.697 Z" fill="#000000" fill-rule="nonzero" fill-opacity="1" /><path clip-path="url(#clip070)" d="M217.5 490.401 Q213.889 490.401 212.061 493.966 Q210.255 497.507 210.255 504.637 Q210.255 511.743 212.061 515.308 Q213.889 518.85 217.5 518.85 Q221.135 518.85 222.94 515.308 Q224.769 511.743 224.769 504.637 Q224.769 497.507 222.94 493.966 Q221.135 490.401 217.5 490.401 M217.5 486.697 Q223.31 486.697 226.366 491.304 Q229.445 495.887 229.445 504.637 Q229.445 513.364 226.366 517.97 Q223.31 522.554 217.5 522.554 Q211.69 522.554 208.612 517.97 Q205.556 513.364 205.556 504.637 Q205.556 495.887 208.612 491.304 Q211.69 486.697 217.5 486.697 Z" fill="#000000" fill-rule="nonzero" fill-opacity="1" /><path clip-path="url(#clip070)" d="M129.862 198.184 L118.056 216.633 L129.862 216.633 L129.862 198.184 M128.635 194.11 L134.515 194.11 L134.515 216.633 L139.445 216.633 L139.445 220.522 L134.515 220.522 L134.515 228.67 L129.862 228.67 L129.862 220.522 L114.26 220.522 L114.26 216.008 L128.635 194.11 Z" fill="#000000" fill-rule="nonzero" fill-opacity="1" /><path clip-path="url(#clip070)" d="M157.177 197.189 Q153.566 197.189 151.737 200.754 Q149.931 204.295 149.931 211.425 Q149.931 218.531 151.737 222.096 Q153.566 225.638 157.177 225.638 Q160.811 225.638 162.616 222.096 Q164.445 218.531 164.445 211.425 Q164.445 204.295 162.616 200.754 Q160.811 197.189 157.177 197.189 M157.177 193.485 Q162.987 193.485 166.042 198.092 Q169.121 202.675 169.121 211.425 Q169.121 220.152 166.042 224.758 Q162.987 229.342 157.177 229.342 Q151.366 229.342 148.288 224.758 Q145.232 220.152 145.232 211.425 Q145.232 202.675 148.288 198.092 Q151.366 193.485 157.177 193.485 Z" fill="#000000" fill-rule="nonzero" fill-opacity="1" /><path clip-path="url(#clip070)" d="M187.338 197.189 Q183.727 197.189 181.899 200.754 Q180.093 204.295 180.093 211.425 Q180.093 218.531 181.899 222.096 Q183.727 225.638 187.338 225.638 Q190.973 225.638 192.778 222.096 Q194.607 218.531 194.607 211.425 Q194.607 204.295 192.778 200.754 Q190.973 197.189 187.338 197.189 M187.338 193.485 Q193.149 193.485 196.204 198.092 Q199.283 202.675 199.283 211.425 Q199.283 220.152 196.204 224.758 Q193.149 229.342 187.338 229.342 Q181.528 229.342 178.45 224.758 Q175.394 220.152 175.394 211.425 Q175.394 202.675 178.45 198.092 Q181.528 193.485 187.338 193.485 Z" fill="#000000" fill-rule="nonzero" fill-opacity="1" /><path clip-path="url(#clip070)" d="M217.5 197.189 Q213.889 197.189 212.061 200.754 Q210.255 204.295 210.255 211.425 Q210.255 218.531 212.061 222.096 Q213.889 225.638 217.5 225.638 Q221.135 225.638 222.94 222.096 Q224.769 218.531 224.769 211.425 Q224.769 204.295 222.94 200.754 Q221.135 197.189 217.5 197.189 M217.5 193.485 Q223.31 193.485 226.366 198.092 Q229.445 202.675 229.445 211.425 Q229.445 220.152 226.366 224.758 Q223.31 229.342 217.5 229.342 Q211.69 229.342 208.612 224.758 Q205.556 220.152 205.556 211.425 Q205.556 202.675 208.612 198.092 Q211.69 193.485 217.5 193.485 Z" fill="#000000" fill-rule="nonzero" fill-opacity="1" /><path clip-path="url(#clip070)" d="M41.3104 969.884 L58.7206 969.884 L58.7206 959.571 Q58.7206 954.383 56.5881 951.901 Q54.4238 949.386 49.9996 949.386 Q45.5436 949.386 43.4429 951.901 Q41.3104 954.383 41.3104 959.571 L41.3104 969.884 M21.7677 969.884 L36.0905 969.884 L36.0905 960.367 Q36.0905 955.656 34.34 953.365 Q32.5576 951.041 28.9291 951.041 Q25.3325 951.041 23.5501 953.365 Q21.7677 955.656 21.7677 960.367 L21.7677 969.884 M16.4842 976.313 L16.4842 959.89 Q16.4842 952.537 19.5397 948.559 Q22.5952 944.58 28.2289 944.58 Q32.5894 944.58 35.1675 946.617 Q37.7456 948.654 38.3822 952.601 Q39.4007 947.858 42.6472 945.248 Q45.8619 942.607 50.6998 942.607 Q57.0655 942.607 60.5348 946.935 Q64.0042 951.264 64.0042 959.253 L64.0042 976.313 L16.4842 976.313 Z" fill="#000000" fill-rule="nonzero" fill-opacity="1" /><path clip-path="url(#clip070)" d="M32.4621 918.035 Q32.4621 922.746 36.1542 925.483 Q39.8145 928.22 46.212 928.22 Q52.6095 928.22 56.3017 925.515 Q59.9619 922.778 59.9619 918.035 Q59.9619 913.356 56.2698 910.619 Q52.5777 907.882 46.212 907.882 Q39.8781 907.882 36.186 910.619 Q32.4621 913.356 32.4621 918.035 M27.4968 918.035 Q27.4968 910.396 32.4621 906.036 Q37.4273 901.675 46.212 901.675 Q54.9649 901.675 59.9619 906.036 Q64.9272 910.396 64.9272 918.035 Q64.9272 925.706 59.9619 930.066 Q54.9649 934.395 46.212 934.395 Q37.4273 934.395 32.4621 930.066 Q27.4968 925.706 27.4968 918.035 Z" fill="#000000" fill-rule="nonzero" fill-opacity="1" /><path clip-path="url(#clip070)" d="M32.4621 878.154 Q32.4621 882.865 36.1542 885.602 Q39.8145 888.339 46.212 888.339 Q52.6095 888.339 56.3017 885.634 Q59.9619 882.896 59.9619 878.154 Q59.9619 873.475 56.2698 870.738 Q52.5777 868.001 46.212 868.001 Q39.8781 868.001 36.186 870.738 Q32.4621 873.475 32.4621 878.154 M27.4968 878.154 Q27.4968 870.515 32.4621 866.155 Q37.4273 861.794 46.212 861.794 Q54.9649 861.794 59.9619 866.155 Q64.9272 870.515 64.9272 878.154 Q64.9272 885.825 59.9619 890.185 Q54.9649 894.514 46.212 894.514 Q37.4273 894.514 32.4621 890.185 Q27.4968 885.825 27.4968 878.154 Z" fill="#000000" fill-rule="nonzero" fill-opacity="1" /><path clip-path="url(#clip070)" d="M29.4065 829.361 L34.9447 829.361 Q33.6716 831.843 33.035 834.517 Q32.3984 837.191 32.3984 840.055 Q32.3984 844.416 33.7352 846.612 Q35.072 848.776 37.7456 848.776 Q39.7826 848.776 40.9603 847.217 Q42.1061 845.657 43.1565 840.946 L43.6021 838.941 Q44.9389 832.703 47.3897 830.093 Q49.8086 827.451 54.1691 827.451 Q59.1344 827.451 62.0308 831.398 Q64.9272 835.313 64.9272 842.188 Q64.9272 845.052 64.3543 848.171 Q63.8132 851.259 62.6992 854.696 L56.6518 854.696 Q58.3387 851.45 59.198 848.299 Q60.0256 845.148 60.0256 842.06 Q60.0256 837.923 58.6251 835.695 Q57.1929 833.467 54.6147 833.467 Q52.2276 833.467 50.9545 835.09 Q49.6813 836.681 48.5037 842.124 L48.0262 844.161 Q46.8804 849.604 44.5251 852.023 Q42.138 854.442 38.0002 854.442 Q32.9713 854.442 30.2341 850.877 Q27.4968 847.312 27.4968 840.755 Q27.4968 837.509 27.9743 834.644 Q28.4517 831.78 29.4065 829.361 Z" fill="#000000" fill-rule="nonzero" fill-opacity="1" /><path clip-path="url(#clip070)" d="M18.2347 812.333 L28.3562 812.333 L28.3562 800.269 L32.9077 800.269 L32.9077 812.333 L52.2594 812.333 Q56.6199 812.333 57.8613 811.155 Q59.1026 809.945 59.1026 806.285 L59.1026 800.269 L64.0042 800.269 L64.0042 806.285 Q64.0042 813.065 61.4897 815.643 Q58.9434 818.221 52.2594 818.221 L32.9077 818.221 L32.9077 822.518 L28.3562 822.518 L28.3562 818.221 L18.2347 818.221 L18.2347 812.333 Z" fill="#000000" fill-rule="nonzero" fill-opacity="1" /><path clip-path="url(#clip070)" d="M16.4842 771.592 L16.4842 744.283 L21.895 744.283 L21.895 765.163 L35.8996 765.163 L35.8996 746.32 L41.3104 746.32 L41.3104 765.163 L64.0042 765.163 L64.0042 771.592 L16.4842 771.592 Z" fill="#000000" fill-rule="nonzero" fill-opacity="1" /><path clip-path="url(#clip070)" d="M46.0847 724.136 Q46.0847 731.233 47.7079 733.971 Q49.3312 736.708 53.2461 736.708 Q56.3653 736.708 58.2114 734.671 Q60.0256 732.602 60.0256 729.069 Q60.0256 724.199 56.5881 721.271 Q53.1188 718.311 47.3897 718.311 L46.0847 718.311 L46.0847 724.136 M43.6657 712.455 L64.0042 712.455 L64.0042 718.311 L58.5933 718.311 Q61.8398 720.316 63.3994 723.308 Q64.9272 726.3 64.9272 730.629 Q64.9272 736.103 61.8716 739.35 Q58.7843 742.564 53.6281 742.564 Q47.6125 742.564 44.5569 738.554 Q41.5014 734.512 41.5014 726.523 L41.5014 718.311 L40.9285 718.311 Q36.8862 718.311 34.6901 720.985 Q32.4621 723.626 32.4621 728.432 Q32.4621 731.488 33.1941 734.384 Q33.9262 737.281 35.3903 739.954 L29.9795 739.954 Q28.7381 736.74 28.1334 733.716 Q27.4968 730.692 27.4968 727.828 Q27.4968 720.093 31.5072 716.274 Q35.5176 712.455 43.6657 712.455 Z" fill="#000000" fill-rule="nonzero" fill-opacity="1" /><path clip-path="url(#clip070)" d="M29.7248 674.738 L35.1993 674.738 Q33.8307 677.22 33.1623 679.735 Q32.4621 682.217 32.4621 684.764 Q32.4621 690.461 36.0905 693.612 Q39.6872 696.763 46.212 696.763 Q52.7369 696.763 56.3653 693.612 Q59.9619 690.461 59.9619 684.764 Q59.9619 682.217 59.2935 679.735 Q58.5933 677.22 57.2247 674.738 L62.6355 674.738 Q63.7814 677.189 64.3543 679.83 Q64.9272 682.44 64.9272 685.4 Q64.9272 693.453 59.8664 698.195 Q54.8057 702.938 46.212 702.938 Q37.491 702.938 32.4939 698.164 Q27.4968 693.357 27.4968 685.018 Q27.4968 682.313 28.0697 679.735 Q28.6108 677.157 29.7248 674.738 Z" fill="#000000" fill-rule="nonzero" fill-opacity="1" /><path clip-path="url(#clip070)" d="M18.2347 658.76 L28.3562 658.76 L28.3562 646.697 L32.9077 646.697 L32.9077 658.76 L52.2594 658.76 Q56.6199 658.76 57.8613 657.582 Q59.1026 656.373 59.1026 652.712 L59.1026 646.697 L64.0042 646.697 L64.0042 652.712 Q64.0042 659.492 61.4897 662.07 Q58.9434 664.648 52.2594 664.648 L32.9077 664.648 L32.9077 668.945 L28.3562 668.945 L28.3562 664.648 L18.2347 664.648 L18.2347 658.76 Z" fill="#000000" fill-rule="nonzero" fill-opacity="1" /><path clip-path="url(#clip070)" d="M32.4621 625.181 Q32.4621 629.891 36.1542 632.629 Q39.8145 635.366 46.212 635.366 Q52.6095 635.366 56.3017 632.66 Q59.9619 629.923 59.9619 625.181 Q59.9619 620.502 56.2698 617.765 Q52.5777 615.027 46.212 615.027 Q39.8781 615.027 36.186 617.765 Q32.4621 620.502 32.4621 625.181 M27.4968 625.181 Q27.4968 617.542 32.4621 613.181 Q37.4273 608.821 46.212 608.821 Q54.9649 608.821 59.9619 613.181 Q64.9272 617.542 64.9272 625.181 Q64.9272 632.851 59.9619 637.212 Q54.9649 641.541 46.212 641.541 Q37.4273 641.541 32.4621 637.212 Q27.4968 632.851 27.4968 625.181 Z" fill="#000000" fill-rule="nonzero" fill-opacity="1" /><path clip-path="url(#clip070)" d="M33.8307 578.456 Q33.2578 579.443 33.0032 580.621 Q32.7167 581.767 32.7167 583.167 Q32.7167 588.132 35.9632 590.806 Q39.1779 593.448 45.2253 593.448 L64.0042 593.448 L64.0042 599.336 L28.3562 599.336 L28.3562 593.448 L33.8944 593.448 Q30.6479 591.602 29.0883 588.642 Q27.4968 585.682 27.4968 581.448 Q27.4968 580.844 27.5923 580.112 Q27.656 579.379 27.8151 578.488 L33.8307 578.456 Z" fill="#000000" fill-rule="nonzero" fill-opacity="1" /><path clip-path="url(#clip070)" d="M61.808 545.737 L77.5631 545.737 L77.5631 551.625 L28.579 551.625 Q14.0652 551.625 14.0652 538.066 Q14.0652 524.252 26.3192 524.252 Q35.0402 524.252 38.223 529.727 Q41.0876 520.815 49.5858 520.815 Q64.6726 520.815 64.6726 536.156 Q64.6726 542.904 61.808 545.737 M54.1691 545.737 Q59.6755 542.204 59.6755 535.934 Q59.6755 526.767 49.6813 526.767 Q40.7057 526.767 41.4059 541.535 L35.995 541.535 Q35.995 529.982 25.8099 529.982 Q18.8395 529.982 18.8395 537.429 Q18.8395 545.737 28.77 545.737 L54.1691 545.737 Z" fill="#000000" fill-rule="nonzero" fill-opacity="1" /><path clip-path="url(#clip070)" d="M39.1142 507.606 L39.1142 494.111 L42.7427 494.111 L42.7427 513.144 L39.2416 513.144 Q38.2549 512.062 36.4725 510.057 Q26.7648 499.108 23.7729 499.108 Q21.6722 499.108 20.3991 500.763 Q19.0941 502.418 19.0941 505.124 Q19.0941 506.779 19.667 508.72 Q20.2081 510.662 21.3221 512.953 L17.4072 512.953 Q16.516 510.503 16.0704 508.402 Q15.6248 506.269 15.6248 504.455 Q15.6248 499.84 17.7255 497.071 Q19.8262 494.302 23.2636 494.302 Q27.6878 494.302 36.7271 504.837 Q38.2549 506.619 39.1142 507.606 Z" fill="#000000" fill-rule="nonzero" fill-opacity="1" /><polyline clip-path="url(#clip072)" style="stroke:#009af9; stroke-linecap:round; stroke-linejoin:round; stroke-width:4; stroke-opacity:1; fill:none" points="324.52,1370.37 326.491,1370.35 328.462,1370.34 330.433,1370.33 332.404,1370.32 334.375,1370.31 336.346,1370.3 338.317,1370.28 340.289,1370.27 342.26,1370.26 344.231,1370.25 346.202,1370.23 348.173,1370.22 350.144,1370.21 352.115,1370.2 354.087,1370.18 356.058,1370.17 358.029,1370.16 360,1370.15 361.971,1370.13 363.942,1370.12 365.913,1370.11 367.884,1370.09 369.856,1370.08 371.827,1370.07 373.798,1370.05 375.769,1370.04 377.74,1370.02 379.711,1370.01 381.682,1370 383.654,1369.98 385.625,1369.97 387.596,1369.95 389.567,1369.94 391.538,1369.93 393.509,1369.91 395.48,1369.9 397.451,1369.88 399.423,1369.87 401.394,1369.85 403.365,1369.84 405.336,1369.82 407.307,1369.81 409.278,1369.79 411.249,1369.78 413.221,1369.76 415.192,1369.74 417.163,1369.73 419.134,1369.71 421.105,1369.7 423.076,1369.68 425.047,1369.66 427.018,1369.65 428.99,1369.63 430.961,1369.62 432.932,1369.6 434.903,1369.58 436.874,1369.57 438.845,1369.55 440.816,1369.53 442.788,1369.51 444.759,1369.5 446.73,1369.48 448.701,1369.46 450.672,1369.44 452.643,1369.43 454.614,1369.41 456.585,1369.39 458.557,1369.37 460.528,1369.35 462.499,1369.34 464.47,1369.32 466.441,1369.3 468.412,1369.28 470.383,1369.26 472.355,1369.24 474.326,1369.22 476.297,1369.2 478.268,1369.18 480.239,1369.16 482.21,1369.14 484.181,1369.12 486.152,1369.11 488.124,1369.08 490.095,1369.06 492.066,1369.04 494.037,1369.02 496.008,1369 497.979,1368.98 499.95,1368.96 501.922,1368.94 503.893,1368.92 505.864,1368.9 507.835,1368.88 509.806,1368.85 511.777,1368.83 513.748,1368.81 515.719,1368.79 517.691,1368.77 519.662,1368.74 521.633,1368.72 523.604,1368.7 525.575,1368.68 527.546,1368.65 529.517,1368.63 531.488,1368.61 533.46,1368.58 535.431,1368.56 537.402,1368.53 539.373,1368.51 541.344,1368.49 543.315,1368.46 545.286,1368.44 547.258,1368.41 549.229,1368.39 551.2,1368.36 553.171,1368.34 555.142,1368.31 557.113,1368.29 559.084,1368.26 561.055,1368.23 563.027,1368.21 564.998,1368.18 566.969,1368.16 568.94,1368.13 570.911,1368.1 572.882,1368.07 574.853,1368.05 576.825,1368.02 578.796,1367.99 580.767,1367.96 582.738,1367.94 584.709,1367.91 586.68,1367.88 588.651,1367.85 590.622,1367.82 592.594,1367.79 594.565,1367.76 596.536,1367.73 598.507,1367.7 600.478,1367.67 602.449,1367.64 604.42,1367.61 606.392,1367.58 608.363,1367.55 610.334,1367.52 612.305,1367.49 614.276,1367.45 616.247,1367.42 618.218,1367.39 620.189,1367.36 622.161,1367.33 624.132,1367.29 626.103,1367.26 628.074,1367.23 630.045,1367.19 632.016,1367.16 633.987,1367.12 635.959,1367.09 637.93,1367.05 639.901,1367.02 641.872,1366.98 643.843,1366.95 645.814,1366.91 647.785,1366.88 649.756,1366.84 651.728,1366.8 653.699,1366.77 655.67,1366.73 657.641,1366.69 659.612,1366.65 661.583,1366.62 663.554,1366.58 665.526,1366.54 667.497,1366.5 669.468,1366.46 671.439,1366.42 673.41,1366.38 675.381,1366.34 677.352,1366.3 679.323,1366.26 681.295,1366.22 683.266,1366.17 685.237,1366.13 687.208,1366.09 689.179,1366.05 691.15,1366 693.121,1365.96 695.093,1365.92 697.064,1365.87 699.035,1365.83 701.006,1365.78 702.977,1365.74 704.948,1365.69 706.919,1365.64 708.89,1365.6 710.862,1365.55 712.833,1365.5 714.804,1365.46 716.775,1365.41 718.746,1365.36 720.717,1365.31 722.688,1365.26 724.659,1365.21 726.631,1365.16 728.602,1365.11 730.573,1365.06 732.544,1365.01 734.515,1364.96 736.486,1364.9 738.457,1364.85 740.429,1364.8 742.4,1364.74 744.371,1364.69 746.342,1364.63 748.313,1364.58 750.284,1364.52 752.255,1364.47 754.226,1364.41 756.198,1364.35 758.169,1364.29 760.14,1364.23 762.111,1364.18 764.082,1364.12 766.053,1364.06 768.024,1363.99 769.996,1363.93 771.967,1363.87 773.938,1363.81 775.909,1363.75 777.88,1363.68 779.851,1363.62 781.822,1363.55 783.793,1363.49 785.765,1363.42 787.736,1363.36 789.707,1363.29 791.678,1363.22 793.649,1363.15 795.62,1363.08 797.591,1363.01 799.563,1362.94 801.534,1362.87 803.505,1362.8 805.476,1362.72 807.447,1362.65 809.418,1362.58 811.389,1362.5 813.36,1362.43 815.332,1362.35 817.303,1362.27 819.274,1362.19 821.245,1362.11 823.216,1362.03 825.187,1361.95 827.158,1361.87 829.13,1361.79 831.101,1361.71 833.072,1361.62 835.043,1361.54 837.014,1361.45 838.985,1361.36 840.956,1361.28 842.927,1361.19 844.899,1361.1 846.87,1361.01 848.841,1360.92 850.812,1360.82 852.783,1360.73 854.754,1360.64 856.725,1360.54 858.697,1360.44 860.668,1360.35 862.639,1360.25 864.61,1360.15 866.581,1360.05 868.552,1359.94 870.523,1359.84 872.494,1359.74 874.466,1359.63 876.437,1359.52 878.408,1359.41 880.379,1359.3 882.35,1359.19 884.321,1359.08 886.292,1358.97 888.264,1358.85 890.235,1358.74 892.206,1358.62 894.177,1358.5 896.148,1358.38 898.119,1358.26 900.09,1358.13 902.061,1358.01 904.033,1357.88 906.004,1357.75 907.975,1357.62 909.946,1357.49 911.917,1357.36 913.888,1357.23 915.859,1357.09 917.83,1356.95 919.802,1356.81 921.773,1356.67 923.744,1356.53 925.715,1356.38 927.686,1356.23 929.657,1356.08 931.628,1355.93 933.6,1355.78 935.571,1355.62 937.542,1355.47 939.513,1355.31 941.484,1355.14 943.455,1354.98 945.426,1354.81 947.397,1354.65 949.369,1354.48 951.34,1354.3 953.311,1354.13 955.282,1353.95 957.253,1353.77 959.224,1353.58 961.195,1353.4 963.167,1353.21 965.138,1353.02 967.109,1352.82 969.08,1352.63 971.051,1352.43 973.022,1352.22 974.993,1352.02 976.964,1351.81 978.936,1351.59 980.907,1351.38 982.878,1351.16 984.849,1350.94 986.82,1350.71 988.791,1350.48 990.762,1350.25 992.734,1350.01 994.705,1349.77 996.676,1349.53 998.647,1349.28 1000.62,1349.02 1002.59,1348.77 1004.56,1348.51 1006.53,1348.24 1008.5,1347.97 1010.47,1347.7 1012.44,1347.42 1014.42,1347.13 1016.39,1346.85 1018.36,1346.55 1020.33,1346.25 1022.3,1345.95 1024.27,1345.64 1026.24,1345.32 1028.21,1345 1030.19,1344.68 1032.16,1344.34 1034.13,1344.01 1036.1,1343.66 1038.07,1343.31 1040.04,1342.95 1042.01,1342.59 1043.98,1342.22 1045.95,1341.84 1047.93,1341.45 1049.9,1341.06 1051.87,1340.65 1053.84,1340.25 1055.81,1339.83 1057.78,1339.4 1059.75,1338.97 1061.72,1338.52 1063.69,1338.07 1065.67,1337.61 1067.64,1337.14 1069.61,1336.65 1071.58,1336.16 1073.55,1335.66 1075.52,1335.14 1077.49,1334.62 1079.46,1334.08 1081.43,1333.53 1083.41,1332.97 1085.38,1332.4 1087.35,1331.81 1089.32,1331.21 1091.29,1330.6 1093.26,1329.97 1095.23,1329.32 1097.2,1328.66 1099.17,1327.99 1101.15,1327.3 1103.12,1326.59 1105.09,1325.86 1107.06,1325.12 1109.03,1324.35 1111,1323.57 1112.97,1322.77 1114.94,1321.94 1116.91,1321.09 1118.89,1320.22 1120.86,1319.33 1122.83,1318.42 1124.8,1317.47 1126.77,1316.5 1128.74,1315.51 1130.71,1314.48 1132.68,1313.43 1134.66,1312.35 1136.63,1311.23 1138.6,1310.08 1140.57,1308.9 1142.54,1307.68 1144.51,1306.42 1146.48,1305.12 1148.45,1303.79 1150.42,1302.41 1152.4,1300.98 1154.37,1299.51 1156.34,1297.99 1158.31,1296.42 1160.28,1294.8 1162.25,1293.12 1164.22,1291.38 1166.19,1289.58 1168.16,1287.72 1170.14,1285.79 1172.11,1283.79 1174.08,1281.71 1176.05,1279.56 1178.02,1277.32 1179.99,1275 1181.96,1272.59 1183.93,1270.08 1185.9,1267.47 1187.88,1264.76 1189.85,1261.93 1191.82,1258.98 1193.79,1255.91 1195.76,1252.7 1197.73,1249.36 1199.7,1245.86 1201.67,1242.2 1203.64,1238.38 1205.62,1234.38 1207.59,1230.19 1209.56,1225.8 1211.53,1221.19 1213.5,1216.35 1215.47,1211.26 1217.44,1205.92 1219.41,1200.29 1221.38,1194.37 1223.36,1188.12 1225.33,1181.54 1227.3,1174.58 1229.27,1167.23 1231.24,1159.45 1233.21,1151.21 1235.18,1142.49 1237.15,1133.23 1239.13,1123.39 1241.1,1112.94 1243.07,1101.83 1245.04,1089.99 1247.01,1077.37 1248.98,1063.9 1250.95,1049.52 1252.92,1034.14 1254.89,1017.7 1256.87,1000.09 1258.84,981.219 1260.81,960.99 1262.78,939.291 1264.75,916.006 1266.72,891.017 1268.69,864.2 1270.66,835.431 1272.63,804.59 1274.61,771.565 1276.58,736.26 1278.55,698.604 1280.52,658.566 1282.49,616.165 1284.46,571.496 1286.43,524.749 1288.4,476.24 1290.37,426.431 1292.35,375.967 1294.32,325.692 1296.29,276.664 1298.26,230.147 1300.23,187.581 1302.2,150.518 1304.17,120.526 1306.14,99.0657 1308.11,87.3444 1310.09,86.1857 1312.06,95.9236 1314.03,116.351 1316,146.734 1317.97,185.889 1319.94,232.309 1321.91,284.311 1323.88,340.181 1325.85,398.3 1327.83,457.229 1329.8,515.76 1331.77,572.934 1333.74,628.032 1335.71,680.555 1337.68,730.183 1339.65,776.749 1341.62,820.202 1343.6,860.573 1345.57,897.959 1347.54,932.495 1349.51,964.341 1351.48,993.671 1353.45,1020.66 1355.42,1045.5 1357.39,1068.34 1359.36,1089.36 1361.34,1108.71 1363.31,1126.54 1365.28,1142.96 1367.25,1158.11 1369.22,1172.1 1371.19,1185.02 1373.16,1196.98 1375.13,1208.05 1377.1,1218.31 1379.08,1227.83 1381.05,1236.67 1383.02,1244.9 1384.99,1252.55 1386.96,1259.68 1388.93,1266.33 1390.9,1272.54 1392.87,1278.35 1394.84,1283.78 1396.82,1288.86 1398.79,1293.63 1400.76,1298.1 1402.73,1302.3 1404.7,1306.24 1406.67,1309.95 1408.64,1313.45 1410.61,1316.74 1412.58,1319.84 1414.56,1322.77 1416.53,1325.54 1418.5,1328.15 1420.47,1330.63 1422.44,1332.97 1424.41,1335.19 1426.38,1337.29 1428.35,1339.28 1430.32,1341.17 1432.3,1342.96 1434.27,1344.67 1436.24,1346.29 1438.21,1347.83 1440.18,1349.3 1442.15,1350.7 1444.12,1352.03 1446.09,1353.3 1448.07,1354.51 1450.04,1355.66 1452.01,1356.77 1453.98,1357.82 1455.95,1358.83 1457.92,1359.79 1459.89,1360.71 1461.86,1361.59 1463.83,1362.43 1465.81,1363.23 1467.78,1364.01 1469.75,1364.75 1471.72,1365.46 1473.69,1366.14 1475.66,1366.79 1477.63,1367.41 1479.6,1368.01 1481.57,1368.59 1483.55,1369.15 1485.52,1369.68 1487.49,1370.19 1489.46,1370.68 1491.43,1371.15 1493.4,1371.61 1495.37,1372.05 1497.34,1372.47 1499.31,1372.87 1501.29,1373.26 1503.26,1373.64 1505.23,1374 1507.2,1374.35 1509.17,1374.69 1511.14,1375.01 1513.11,1375.32 1515.08,1375.62 1517.05,1375.92 1519.03,1376.2 1521,1376.47 1522.97,1376.73 1524.94,1376.98 1526.91,1377.22 1528.88,1377.46 1530.85,1377.69 1532.82,1377.91 1534.8,1378.12 1536.77,1378.32 1538.74,1378.52 1540.71,1378.71 1542.68,1378.9 1544.65,1379.08 1546.62,1379.25 1548.59,1379.42 1550.56,1379.58 1552.54,1379.73 1554.51,1379.89 1556.48,1380.03 1558.45,1380.17 1560.42,1380.31 1562.39,1380.44 1564.36,1380.57 1566.33,1380.7 1568.3,1380.82 1570.28,1380.93 1572.25,1381.04 1574.22,1381.15 1576.19,1381.26 1578.16,1381.36 1580.13,1381.46 1582.1,1381.56 1584.07,1381.65 1586.04,1381.74 1588.02,1381.83 1589.99,1381.91 1591.96,1381.99 1593.93,1382.07 1595.9,1382.15 1597.87,1382.22 1599.84,1382.3 1601.81,1382.37 1603.78,1382.43 1605.76,1382.5 1607.73,1382.56 1609.7,1382.62 1611.67,1382.68 1613.64,1382.74 1615.61,1382.8 1617.58,1382.85 1619.55,1382.9 1621.52,1382.95 1623.5,1383 1625.47,1383.05 1627.44,1383.1 1629.41,1383.14 1631.38,1383.19 1633.35,1383.23 1635.32,1383.27 1637.29,1383.31 1639.27,1383.34 1641.24,1383.38 1643.21,1383.42 1645.18,1383.45 1647.15,1383.48 1649.12,1383.52 1651.09,1383.55 1653.06,1383.58 1655.03,1383.61 1657.01,1383.63 1658.98,1383.66 1660.95,1383.69 1662.92,1383.71 1664.89,1383.74 1666.86,1383.76 1668.83,1383.78 1670.8,1383.81 1672.77,1383.83 1674.75,1383.85 1676.72,1383.87 1678.69,1383.89 1680.66,1383.91 1682.63,1383.92 1684.6,1383.94 1686.57,1383.96 1688.54,1383.97 1690.51,1383.99 1692.49,1384 1694.46,1384.02 1696.43,1384.03 1698.4,1384.04 1700.37,1384.05 1702.34,1384.07 1704.31,1384.08 1706.28,1384.09 1708.25,1384.1 1710.23,1384.11 1712.2,1384.12 1714.17,1384.13 1716.14,1384.13 1718.11,1384.14 1720.08,1384.15 1722.05,1384.16 1724.02,1384.17 1725.99,1384.17 1727.97,1384.18 1729.94,1384.18 1731.91,1384.19 1733.88,1384.19 1735.85,1384.2 1737.82,1384.2 1739.79,1384.21 1741.76,1384.21 1743.74,1384.22 1745.71,1384.22 1747.68,1384.22 1749.65,1384.22 1751.62,1384.23 1753.59,1384.23 1755.56,1384.23 1757.53,1384.23 1759.5,1384.23 1761.48,1384.24 1763.45,1384.24 1765.42,1384.24 1767.39,1384.24 1769.36,1384.24 1771.33,1384.24 1773.3,1384.24 1775.27,1384.24 1777.24,1384.24 1779.22,1384.24 1781.19,1384.24 1783.16,1384.24 1785.13,1384.23 1787.1,1384.23 1789.07,1384.23 1791.04,1384.23 1793.01,1384.23 1794.98,1384.23 1796.96,1384.22 1798.93,1384.22 1800.9,1384.22 1802.87,1384.22 1804.84,1384.21 1806.81,1384.21 1808.78,1384.21 1810.75,1384.2 1812.72,1384.2 1814.7,1384.2 1816.67,1384.19 1818.64,1384.19 1820.61,1384.19 1822.58,1384.18 1824.55,1384.18 1826.52,1384.18 1828.49,1384.17 1830.46,1384.17 1832.44,1384.16 1834.41,1384.16 1836.38,1384.15 1838.35,1384.15 1840.32,1384.15 1842.29,1384.14 1844.26,1384.14 1846.23,1384.13 1848.21,1384.13 1850.18,1384.12 1852.15,1384.12 1854.12,1384.11 1856.09,1384.11 1858.06,1384.1 1860.03,1384.1 1862,1384.09 1863.97,1384.08 1865.95,1384.08 1867.92,1384.07 1869.89,1384.07 1871.86,1384.06 1873.83,1384.06 1875.8,1384.05 1877.77,1384.05 1879.74,1384.04 1881.71,1384.03 1883.69,1384.03 1885.66,1384.02 1887.63,1384.02 1889.6,1384.01 1891.57,1384 1893.54,1384 1895.51,1383.99 1897.48,1383.98 1899.45,1383.98 1901.43,1383.97 1903.4,1383.97 1905.37,1383.96 1907.34,1383.95 1909.31,1383.95 1911.28,1383.94 1913.25,1383.93 1915.22,1383.93 1917.19,1383.92 1919.17,1383.91 1921.14,1383.91 1923.11,1383.9 1925.08,1383.89 1927.05,1383.89 1929.02,1383.88 1930.99,1383.87 1932.96,1383.87 1934.93,1383.86 1936.91,1383.85 1938.88,1383.85 1940.85,1383.84 1942.82,1383.83 1944.79,1383.83 1946.76,1383.82 1948.73,1383.81 1950.7,1383.81 1952.68,1383.8 1954.65,1383.79 1956.62,1383.79 1958.59,1383.78 1960.56,1383.77 1962.53,1383.76 1964.5,1383.76 1966.47,1383.75 1968.44,1383.74 1970.42,1383.74 1972.39,1383.73 1974.36,1383.72 1976.33,1383.72 1978.3,1383.71 1980.27,1383.7 1982.24,1383.69 1984.21,1383.69 1986.18,1383.68 1988.16,1383.67 1990.13,1383.67 1992.1,1383.66 1994.07,1383.65 1996.04,1383.65 1998.01,1383.64 1999.98,1383.63 2001.95,1383.62 2003.92,1383.62 2005.9,1383.61 2007.87,1383.6 2009.84,1383.6 2011.81,1383.59 2013.78,1383.58 2015.75,1383.58 2017.72,1383.57 2019.69,1383.56 2021.66,1383.55 2023.64,1383.55 2025.61,1383.54 2027.58,1383.53 2029.55,1383.53 2031.52,1383.52 2033.49,1383.51 2035.46,1383.5 2037.43,1383.5 2039.4,1383.49 2041.38,1383.48 2043.35,1383.48 2045.32,1383.47 2047.29,1383.46 2049.26,1383.46 2051.23,1383.45 2053.2,1383.44 2055.17,1383.43 2057.15,1383.43 2059.12,1383.42 2061.09,1383.41 2063.06,1383.41 2065.03,1383.4 2067,1383.39 2068.97,1383.39 2070.94,1383.38 2072.91,1383.37 2074.89,1383.37 2076.86,1383.36 2078.83,1383.35 2080.8,1383.34 2082.77,1383.34 2084.74,1383.33 2086.71,1383.32 2088.68,1383.32 2090.65,1383.31 2092.63,1383.3 2094.6,1383.3 2096.57,1383.29 2098.54,1383.28 2100.51,1383.28 2102.48,1383.27 2104.45,1383.26 2106.42,1383.26 2108.39,1383.25 2110.37,1383.24 2112.34,1383.24 2114.31,1383.23 2116.28,1383.22 2118.25,1383.22 2120.22,1383.21 2122.19,1383.2 2124.16,1383.19 2126.13,1383.19 2128.11,1383.18 2130.08,1383.17 2132.05,1383.17 2134.02,1383.16 2135.99,1383.15 2137.96,1383.15 2139.93,1383.14 2141.9,1383.13 2143.87,1383.13 2145.85,1383.12 2147.82,1383.12 2149.79,1383.11 2151.76,1383.1 2153.73,1383.1 2155.7,1383.09 2157.67,1383.08 2159.64,1383.08 2161.62,1383.07 2163.59,1383.06 2165.56,1383.06 2167.53,1383.05 2169.5,1383.04 2171.47,1383.04 2173.44,1383.03 2175.41,1383.02 2177.38,1383.02 2179.36,1383.01 2181.33,1383 2183.3,1383 2185.27,1382.99 2187.24,1382.99 2189.21,1382.98 2191.18,1382.97 2193.15,1382.97 2195.12,1382.96 2197.1,1382.95 2199.07,1382.95 2201.04,1382.94 2203.01,1382.93 2204.98,1382.93 2206.95,1382.92 2208.92,1382.92 2210.89,1382.91 2212.86,1382.9 2214.84,1382.9 2216.81,1382.89 2218.78,1382.88 2220.75,1382.88 2222.72,1382.87 2224.69,1382.87 2226.66,1382.86 2228.63,1382.85 2230.6,1382.85 2232.58,1382.84 2234.55,1382.84 2236.52,1382.83 2238.49,1382.82 2240.46,1382.82 2242.43,1382.81 2244.4,1382.8 2246.37,1382.8 2248.35,1382.79 2250.32,1382.79 2252.29,1382.78 2254.26,1382.77 2256.23,1382.77 2258.2,1382.76 2260.17,1382.76 2262.14,1382.75 2264.11,1382.74 2266.09,1382.74 2268.06,1382.73 2270.03,1382.73 2272,1382.72 2273.97,1382.71 2275.94,1382.71 2277.91,1382.7 2279.88,1382.7 2281.85,1382.69 2283.83,1382.69 2285.8,1382.68 2287.77,1382.67 2289.74,1382.67 2291.71,1382.66 2293.68,1382.66 "/>
<polyline clip-path="url(#clip072)" style="stroke:#ff0000; stroke-linecap:round; stroke-linejoin:round; stroke-width:4; stroke-opacity:1; fill:none" points="1299.25,2799.12 1299.25,-1328.69 "/>
<polyline clip-path="url(#clip072)" style="stroke:#ff0000; stroke-linecap:round; stroke-linejoin:round; stroke-width:4; stroke-opacity:1; fill:none" points="1318.95,2799.12 1318.95,-1328.69 "/>
</svg>
