<?xml version="1.0" encoding="utf-8"?>
<svg xmlns="http://www.w3.org/2000/svg" xmlns:xlink="http://www.w3.org/1999/xlink" width="600" height="400" viewBox="0 0 2400 1600">
<defs>
  <clipPath id="clip110">
    <rect x="0" y="0" width="2400" height="1600"/>
  </clipPath>
</defs>
<path clip-path="url(#clip110)" d="M0 1600 L2400 1600 L2400 0 L0 0  Z" fill="#ffffff" fill-rule="evenodd" fill-opacity="1"/>
<defs>
  <clipPath id="clip111">
    <rect x="480" y="0" width="1681" height="1600"/>
  </clipPath>
</defs>
<path clip-path="url(#clip110)" d="M279.704 1423.18 L2352.76 1423.18 L2352.76 47.2441 L279.704 47.2441  Z" fill="#ffffff" fill-rule="evenodd" fill-opacity="1"/>
<defs>
  <clipPath id="clip112">
    <rect x="279" y="47" width="2074" height="1377"/>
  </clipPath>
</defs>
<polyline clip-path="url(#clip112)" style="stroke:#000000; stroke-linecap:round; stroke-linejoin:round; stroke-width:2; stroke-opacity:0.1; fill:none" points="533.946,1423.18 533.946,47.2441 "/>
<polyline clip-path="url(#clip112)" style="stroke:#000000; stroke-linecap:round; stroke-linejoin:round; stroke-width:2; stroke-opacity:0.1; fill:none" points="925.088,1423.18 925.088,47.2441 "/>
<polyline clip-path="url(#clip112)" style="stroke:#000000; stroke-linecap:round; stroke-linejoin:round; stroke-width:2; stroke-opacity:0.1; fill:none" points="1316.23,1423.18 1316.23,47.2441 "/>
<polyline clip-path="url(#clip112)" style="stroke:#000000; stroke-linecap:round; stroke-linejoin:round; stroke-width:2; stroke-opacity:0.1; fill:none" points="1707.37,1423.18 1707.37,47.2441 "/>
<polyline clip-path="url(#clip112)" style="stroke:#000000; stroke-linecap:round; stroke-linejoin:round; stroke-width:2; stroke-opacity:0.1; fill:none" points="2098.51,1423.18 2098.51,47.2441 "/>
<polyline clip-path="url(#clip112)" style="stroke:#000000; stroke-linecap:round; stroke-linejoin:round; stroke-width:2; stroke-opacity:0.1; fill:none" points="279.704,1184.79 2352.76,1184.79 "/>
<polyline clip-path="url(#clip112)" style="stroke:#000000; stroke-linecap:round; stroke-linejoin:round; stroke-width:2; stroke-opacity:0.1; fill:none" points="279.704,907.688 2352.76,907.688 "/>
<polyline clip-path="url(#clip112)" style="stroke:#000000; stroke-linecap:round; stroke-linejoin:round; stroke-width:2; stroke-opacity:0.1; fill:none" points="279.704,630.585 2352.76,630.585 "/>
<polyline clip-path="url(#clip112)" style="stroke:#000000; stroke-linecap:round; stroke-linejoin:round; stroke-width:2; stroke-opacity:0.1; fill:none" points="279.704,353.483 2352.76,353.483 "/>
<polyline clip-path="url(#clip112)" style="stroke:#000000; stroke-linecap:round; stroke-linejoin:round; stroke-width:2; stroke-opacity:0.1; fill:none" points="279.704,76.3797 2352.76,76.3797 "/>
<polyline clip-path="url(#clip110)" style="stroke:#000000; stroke-linecap:round; stroke-linejoin:round; stroke-width:4; stroke-opacity:1; fill:none" points="279.704,1423.18 2352.76,1423.18 "/>
<polyline clip-path="url(#clip110)" style="stroke:#000000; stroke-linecap:round; stroke-linejoin:round; stroke-width:4; stroke-opacity:1; fill:none" points="533.946,1423.18 533.946,1404.28 "/>
<polyline clip-path="url(#clip110)" style="stroke:#000000; stroke-linecap:round; stroke-linejoin:round; stroke-width:4; stroke-opacity:1; fill:none" points="925.088,1423.18 925.088,1404.28 "/>
<polyline clip-path="url(#clip110)" style="stroke:#000000; stroke-linecap:round; stroke-linejoin:round; stroke-width:4; stroke-opacity:1; fill:none" points="1316.23,1423.18 1316.23,1404.28 "/>
<polyline clip-path="url(#clip110)" style="stroke:#000000; stroke-linecap:round; stroke-linejoin:round; stroke-width:4; stroke-opacity:1; fill:none" points="1707.37,1423.18 1707.37,1404.28 "/>
<polyline clip-path="url(#clip110)" style="stroke:#000000; stroke-linecap:round; stroke-linejoin:round; stroke-width:4; stroke-opacity:1; fill:none" points="2098.51,1423.18 2098.51,1404.28 "/>
<path clip-path="url(#clip110)" d="M490.023 1481.64 L506.342 1481.64 L506.342 1485.58 L484.398 1485.58 L484.398 1481.64 Q487.06 1478.89 491.643 1474.26 Q496.25 1469.61 497.43 1468.27 Q499.675 1465.74 500.555 1464.01 Q501.458 1462.25 501.458 1460.56 Q501.458 1457.8 499.513 1456.07 Q497.592 1454.33 494.49 1454.33 Q492.291 1454.33 489.838 1455.09 Q487.407 1455.86 484.629 1457.41 L484.629 1452.69 Q487.453 1451.55 489.907 1450.97 Q492.361 1450.39 494.398 1450.39 Q499.768 1450.39 502.963 1453.08 Q506.157 1455.77 506.157 1460.26 Q506.157 1462.39 505.347 1464.31 Q504.56 1466.2 502.453 1468.8 Q501.875 1469.47 498.773 1472.69 Q495.671 1475.88 490.023 1481.64 Z" fill="#000000" fill-rule="nonzero" fill-opacity="1" /><path clip-path="url(#clip110)" d="M526.736 1466.44 Q523.587 1466.44 521.736 1468.59 Q519.907 1470.74 519.907 1474.49 Q519.907 1478.22 521.736 1480.39 Q523.587 1482.55 526.736 1482.55 Q529.884 1482.55 531.712 1480.39 Q533.564 1478.22 533.564 1474.49 Q533.564 1470.74 531.712 1468.59 Q529.884 1466.44 526.736 1466.44 M536.018 1451.78 L536.018 1456.04 Q534.259 1455.21 532.453 1454.77 Q530.671 1454.33 528.911 1454.33 Q524.282 1454.33 521.828 1457.45 Q519.398 1460.58 519.05 1466.9 Q520.416 1464.89 522.476 1463.82 Q524.536 1462.73 527.013 1462.73 Q532.222 1462.73 535.231 1465.9 Q538.263 1469.05 538.263 1474.49 Q538.263 1479.82 535.115 1483.03 Q531.967 1486.25 526.736 1486.25 Q520.74 1486.25 517.569 1481.67 Q514.398 1477.06 514.398 1468.33 Q514.398 1460.14 518.286 1455.28 Q522.175 1450.39 528.726 1450.39 Q530.486 1450.39 532.268 1450.74 Q534.073 1451.09 536.018 1451.78 Z" fill="#000000" fill-rule="nonzero" fill-opacity="1" /><path clip-path="url(#clip110)" d="M546.319 1479.7 L551.203 1479.7 L551.203 1485.58 L546.319 1485.58 L546.319 1479.7 Z" fill="#000000" fill-rule="nonzero" fill-opacity="1" /><path clip-path="url(#clip110)" d="M571.967 1466.44 Q568.819 1466.44 566.967 1468.59 Q565.138 1470.74 565.138 1474.49 Q565.138 1478.22 566.967 1480.39 Q568.819 1482.55 571.967 1482.55 Q575.115 1482.55 576.944 1480.39 Q578.795 1478.22 578.795 1474.49 Q578.795 1470.74 576.944 1468.59 Q575.115 1466.44 571.967 1466.44 M581.249 1451.78 L581.249 1456.04 Q579.49 1455.21 577.684 1454.77 Q575.902 1454.33 574.143 1454.33 Q569.513 1454.33 567.059 1457.45 Q564.629 1460.58 564.282 1466.9 Q565.647 1464.89 567.708 1463.82 Q569.768 1462.73 572.245 1462.73 Q577.453 1462.73 580.462 1465.9 Q583.494 1469.05 583.494 1474.49 Q583.494 1479.82 580.346 1483.03 Q577.198 1486.25 571.967 1486.25 Q565.971 1486.25 562.8 1481.67 Q559.629 1477.06 559.629 1468.33 Q559.629 1460.14 563.518 1455.28 Q567.407 1450.39 573.957 1450.39 Q575.717 1450.39 577.499 1450.74 Q579.305 1451.09 581.249 1451.78 Z" fill="#000000" fill-rule="nonzero" fill-opacity="1" /><path clip-path="url(#clip110)" d="M881.292 1481.64 L897.611 1481.64 L897.611 1485.58 L875.667 1485.58 L875.667 1481.64 Q878.329 1478.89 882.912 1474.26 Q887.519 1469.61 888.699 1468.27 Q890.945 1465.74 891.824 1464.01 Q892.727 1462.25 892.727 1460.56 Q892.727 1457.8 890.783 1456.07 Q888.861 1454.33 885.76 1454.33 Q883.56 1454.33 881.107 1455.09 Q878.676 1455.86 875.898 1457.41 L875.898 1452.69 Q878.723 1451.55 881.176 1450.97 Q883.63 1450.39 885.667 1450.39 Q891.037 1450.39 894.232 1453.08 Q897.426 1455.77 897.426 1460.26 Q897.426 1462.39 896.616 1464.31 Q895.829 1466.2 893.722 1468.8 Q893.144 1469.47 890.042 1472.69 Q886.94 1475.88 881.292 1481.64 Z" fill="#000000" fill-rule="nonzero" fill-opacity="1" /><path clip-path="url(#clip110)" d="M918.005 1466.44 Q914.857 1466.44 913.005 1468.59 Q911.176 1470.74 911.176 1474.49 Q911.176 1478.22 913.005 1480.39 Q914.857 1482.55 918.005 1482.55 Q921.153 1482.55 922.982 1480.39 Q924.833 1478.22 924.833 1474.49 Q924.833 1470.74 922.982 1468.59 Q921.153 1466.44 918.005 1466.44 M927.287 1451.78 L927.287 1456.04 Q925.528 1455.21 923.722 1454.77 Q921.94 1454.33 920.181 1454.33 Q915.551 1454.33 913.097 1457.45 Q910.667 1460.58 910.32 1466.9 Q911.685 1464.89 913.745 1463.82 Q915.806 1462.73 918.283 1462.73 Q923.491 1462.73 926.5 1465.9 Q929.532 1469.05 929.532 1474.49 Q929.532 1479.82 926.384 1483.03 Q923.236 1486.25 918.005 1486.25 Q912.009 1486.25 908.838 1481.67 Q905.667 1477.06 905.667 1468.33 Q905.667 1460.14 909.556 1455.28 Q913.445 1450.39 919.995 1450.39 Q921.755 1450.39 923.537 1450.74 Q925.343 1451.09 927.287 1451.78 Z" fill="#000000" fill-rule="nonzero" fill-opacity="1" /><path clip-path="url(#clip110)" d="M937.588 1479.7 L942.472 1479.7 L942.472 1485.58 L937.588 1485.58 L937.588 1479.7 Z" fill="#000000" fill-rule="nonzero" fill-opacity="1" /><path clip-path="url(#clip110)" d="M962.657 1469.17 Q959.324 1469.17 957.403 1470.95 Q955.505 1472.73 955.505 1475.86 Q955.505 1478.98 957.403 1480.77 Q959.324 1482.55 962.657 1482.55 Q965.991 1482.55 967.912 1480.77 Q969.833 1478.96 969.833 1475.86 Q969.833 1472.73 967.912 1470.95 Q966.014 1469.17 962.657 1469.17 M957.981 1467.18 Q954.972 1466.44 953.282 1464.38 Q951.616 1462.32 951.616 1459.35 Q951.616 1455.21 954.555 1452.8 Q957.518 1450.39 962.657 1450.39 Q967.819 1450.39 970.759 1452.8 Q973.699 1455.21 973.699 1459.35 Q973.699 1462.32 972.009 1464.38 Q970.342 1466.44 967.356 1467.18 Q970.736 1467.96 972.611 1470.26 Q974.509 1472.55 974.509 1475.86 Q974.509 1480.88 971.43 1483.57 Q968.375 1486.25 962.657 1486.25 Q956.94 1486.25 953.861 1483.57 Q950.805 1480.88 950.805 1475.86 Q950.805 1472.55 952.704 1470.26 Q954.602 1467.96 957.981 1467.18 M956.268 1459.79 Q956.268 1462.48 957.935 1463.98 Q959.625 1465.49 962.657 1465.49 Q965.667 1465.49 967.356 1463.98 Q969.069 1462.48 969.069 1459.79 Q969.069 1457.11 967.356 1455.6 Q965.667 1454.1 962.657 1454.1 Q959.625 1454.1 957.935 1455.6 Q956.268 1457.11 956.268 1459.79 Z" fill="#000000" fill-rule="nonzero" fill-opacity="1" /><path clip-path="url(#clip110)" d="M1272.39 1481.64 L1288.71 1481.64 L1288.71 1485.58 L1266.76 1485.58 L1266.76 1481.64 Q1269.42 1478.89 1274.01 1474.26 Q1278.61 1469.61 1279.79 1468.27 Q1282.04 1465.74 1282.92 1464.01 Q1283.82 1462.25 1283.82 1460.56 Q1283.82 1457.8 1281.88 1456.07 Q1279.96 1454.33 1276.86 1454.33 Q1274.66 1454.33 1272.2 1455.09 Q1269.77 1455.86 1266.99 1457.41 L1266.99 1452.69 Q1269.82 1451.55 1272.27 1450.97 Q1274.73 1450.39 1276.76 1450.39 Q1282.13 1450.39 1285.33 1453.08 Q1288.52 1455.77 1288.52 1460.26 Q1288.52 1462.39 1287.71 1464.31 Q1286.92 1466.2 1284.82 1468.8 Q1284.24 1469.47 1281.14 1472.69 Q1278.04 1475.88 1272.39 1481.64 Z" fill="#000000" fill-rule="nonzero" fill-opacity="1" /><path clip-path="url(#clip110)" d="M1297.34 1451.02 L1319.56 1451.02 L1319.56 1453.01 L1307.02 1485.58 L1302.13 1485.58 L1313.94 1454.96 L1297.34 1454.96 L1297.34 1451.02 Z" fill="#000000" fill-rule="nonzero" fill-opacity="1" /><path clip-path="url(#clip110)" d="M1328.68 1479.7 L1333.57 1479.7 L1333.57 1485.58 L1328.68 1485.58 L1328.68 1479.7 Z" fill="#000000" fill-rule="nonzero" fill-opacity="1" /><path clip-path="url(#clip110)" d="M1353.75 1454.1 Q1350.14 1454.1 1348.31 1457.66 Q1346.51 1461.2 1346.51 1468.33 Q1346.51 1475.44 1348.31 1479.01 Q1350.14 1482.55 1353.75 1482.55 Q1357.39 1482.55 1359.19 1479.01 Q1361.02 1475.44 1361.02 1468.33 Q1361.02 1461.2 1359.19 1457.66 Q1357.39 1454.1 1353.75 1454.1 M1353.75 1450.39 Q1359.56 1450.39 1362.62 1455 Q1365.7 1459.58 1365.7 1468.33 Q1365.7 1477.06 1362.62 1481.67 Q1359.56 1486.25 1353.75 1486.25 Q1347.94 1486.25 1344.86 1481.67 Q1341.81 1477.06 1341.81 1468.33 Q1341.81 1459.58 1344.86 1455 Q1347.94 1450.39 1353.75 1450.39 Z" fill="#000000" fill-rule="nonzero" fill-opacity="1" /><path clip-path="url(#clip110)" d="M1664.33 1481.64 L1680.65 1481.64 L1680.65 1485.58 L1658.7 1485.58 L1658.7 1481.64 Q1661.37 1478.89 1665.95 1474.26 Q1670.55 1469.61 1671.74 1468.27 Q1673.98 1465.74 1674.86 1464.01 Q1675.76 1462.25 1675.76 1460.56 Q1675.76 1457.8 1673.82 1456.07 Q1671.9 1454.33 1668.8 1454.33 Q1666.6 1454.33 1664.14 1455.09 Q1661.71 1455.86 1658.93 1457.41 L1658.93 1452.69 Q1661.76 1451.55 1664.21 1450.97 Q1666.67 1450.39 1668.7 1450.39 Q1674.07 1450.39 1677.27 1453.08 Q1680.46 1455.77 1680.46 1460.26 Q1680.46 1462.39 1679.65 1464.31 Q1678.87 1466.2 1676.76 1468.8 Q1676.18 1469.47 1673.08 1472.69 Q1669.98 1475.88 1664.33 1481.64 Z" fill="#000000" fill-rule="nonzero" fill-opacity="1" /><path clip-path="url(#clip110)" d="M1689.28 1451.02 L1711.5 1451.02 L1711.5 1453.01 L1698.96 1485.58 L1694.07 1485.58 L1705.88 1454.96 L1689.28 1454.96 L1689.28 1451.02 Z" fill="#000000" fill-rule="nonzero" fill-opacity="1" /><path clip-path="url(#clip110)" d="M1720.62 1479.7 L1725.51 1479.7 L1725.51 1485.58 L1720.62 1485.58 L1720.62 1479.7 Z" fill="#000000" fill-rule="nonzero" fill-opacity="1" /><path clip-path="url(#clip110)" d="M1739.72 1481.64 L1756.04 1481.64 L1756.04 1485.58 L1734.1 1485.58 L1734.1 1481.64 Q1736.76 1478.89 1741.34 1474.26 Q1745.95 1469.61 1747.13 1468.27 Q1749.37 1465.74 1750.25 1464.01 Q1751.16 1462.25 1751.16 1460.56 Q1751.16 1457.8 1749.21 1456.07 Q1747.29 1454.33 1744.19 1454.33 Q1741.99 1454.33 1739.54 1455.09 Q1737.11 1455.86 1734.33 1457.41 L1734.33 1452.69 Q1737.15 1451.55 1739.61 1450.97 Q1742.06 1450.39 1744.1 1450.39 Q1749.47 1450.39 1752.66 1453.08 Q1755.86 1455.77 1755.86 1460.26 Q1755.86 1462.39 1755.05 1464.31 Q1754.26 1466.2 1752.15 1468.8 Q1751.57 1469.47 1748.47 1472.69 Q1745.37 1475.88 1739.72 1481.64 Z" fill="#000000" fill-rule="nonzero" fill-opacity="1" /><path clip-path="url(#clip110)" d="M2054.43 1481.64 L2070.75 1481.64 L2070.75 1485.58 L2048.8 1485.58 L2048.8 1481.64 Q2051.47 1478.89 2056.05 1474.26 Q2060.66 1469.61 2061.84 1468.27 Q2064.08 1465.74 2064.96 1464.01 Q2065.86 1462.25 2065.86 1460.56 Q2065.86 1457.8 2063.92 1456.07 Q2062 1454.33 2058.9 1454.33 Q2056.7 1454.33 2054.24 1455.09 Q2051.81 1455.86 2049.03 1457.41 L2049.03 1452.69 Q2051.86 1451.55 2054.31 1450.97 Q2056.77 1450.39 2058.8 1450.39 Q2064.17 1450.39 2067.37 1453.08 Q2070.56 1455.77 2070.56 1460.26 Q2070.56 1462.39 2069.75 1464.31 Q2068.97 1466.2 2066.86 1468.8 Q2066.28 1469.47 2063.18 1472.69 Q2060.08 1475.88 2054.43 1481.64 Z" fill="#000000" fill-rule="nonzero" fill-opacity="1" /><path clip-path="url(#clip110)" d="M2079.38 1451.02 L2101.6 1451.02 L2101.6 1453.01 L2089.06 1485.58 L2084.17 1485.58 L2095.98 1454.96 L2079.38 1454.96 L2079.38 1451.02 Z" fill="#000000" fill-rule="nonzero" fill-opacity="1" /><path clip-path="url(#clip110)" d="M2110.72 1479.7 L2115.61 1479.7 L2115.61 1485.58 L2110.72 1485.58 L2110.72 1479.7 Z" fill="#000000" fill-rule="nonzero" fill-opacity="1" /><path clip-path="url(#clip110)" d="M2138.64 1455.09 L2126.84 1473.54 L2138.64 1473.54 L2138.64 1455.09 M2137.41 1451.02 L2143.29 1451.02 L2143.29 1473.54 L2148.22 1473.54 L2148.22 1477.43 L2143.29 1477.43 L2143.29 1485.58 L2138.64 1485.58 L2138.64 1477.43 L2123.04 1477.43 L2123.04 1472.92 L2137.41 1451.02 Z" fill="#000000" fill-rule="nonzero" fill-opacity="1" /><path clip-path="url(#clip110)" d="M1024.39 1520.52 L1051.7 1520.52 L1051.7 1525.93 L1030.82 1525.93 L1030.82 1539.94 L1049.67 1539.94 L1049.67 1545.35 L1030.82 1545.35 L1030.82 1568.04 L1024.39 1568.04 L1024.39 1520.52 Z" fill="#000000" fill-rule="nonzero" fill-opacity="1" /><path clip-path="url(#clip110)" d="M1077.55 1537.87 Q1076.56 1537.3 1075.38 1537.04 Q1074.24 1536.76 1072.84 1536.76 Q1067.87 1536.76 1065.2 1540 Q1062.56 1543.22 1062.56 1549.27 L1062.56 1568.04 L1056.67 1568.04 L1056.67 1532.4 L1062.56 1532.4 L1062.56 1537.93 Q1064.4 1534.69 1067.36 1533.13 Q1070.32 1531.54 1074.56 1531.54 Q1075.16 1531.54 1075.89 1531.63 Q1076.62 1531.7 1077.52 1531.85 L1077.55 1537.87 Z" fill="#000000" fill-rule="nonzero" fill-opacity="1" /><path clip-path="url(#clip110)" d="M1112.75 1548.76 L1112.75 1551.62 L1085.82 1551.62 Q1086.21 1557.67 1089.45 1560.85 Q1092.73 1564 1098.55 1564 Q1101.93 1564 1105.08 1563.17 Q1108.26 1562.35 1111.38 1560.69 L1111.38 1566.23 Q1108.23 1567.57 1104.92 1568.27 Q1101.61 1568.97 1098.2 1568.97 Q1089.67 1568.97 1084.68 1564 Q1079.71 1559.04 1079.71 1550.57 Q1079.71 1541.82 1084.42 1536.69 Q1089.17 1531.54 1097.19 1531.54 Q1104.38 1531.54 1108.55 1536.18 Q1112.75 1540.8 1112.75 1548.76 M1106.89 1547.04 Q1106.83 1542.23 1104.19 1539.37 Q1101.58 1536.5 1097.25 1536.5 Q1092.35 1536.5 1089.39 1539.27 Q1086.46 1542.04 1086.01 1547.07 L1106.89 1547.04 Z" fill="#000000" fill-rule="nonzero" fill-opacity="1" /><path clip-path="url(#clip110)" d="M1125.86 1550.25 Q1125.86 1556.71 1128.51 1560.4 Q1131.18 1564.07 1135.83 1564.07 Q1140.47 1564.07 1143.15 1560.4 Q1145.82 1556.71 1145.82 1550.25 Q1145.82 1543.79 1143.15 1540.13 Q1140.47 1536.44 1135.83 1536.44 Q1131.18 1536.44 1128.51 1540.13 Q1125.86 1543.79 1125.86 1550.25 M1145.82 1562.7 Q1143.97 1565.88 1141.14 1567.44 Q1138.34 1568.97 1134.39 1568.97 Q1127.93 1568.97 1123.86 1563.81 Q1119.82 1558.65 1119.82 1550.25 Q1119.82 1541.85 1123.86 1536.69 Q1127.93 1531.54 1134.39 1531.54 Q1138.34 1531.54 1141.14 1533.1 Q1143.97 1534.62 1145.82 1537.81 L1145.82 1532.4 L1151.68 1532.4 L1151.68 1581.6 L1145.82 1581.6 L1145.82 1562.7 Z" fill="#000000" fill-rule="nonzero" fill-opacity="1" /><path clip-path="url(#clip110)" d="M1163.13 1553.98 L1163.13 1532.4 L1168.99 1532.4 L1168.99 1553.75 Q1168.99 1558.81 1170.96 1561.36 Q1172.94 1563.87 1176.88 1563.87 Q1181.63 1563.87 1184.36 1560.85 Q1187.13 1557.83 1187.13 1552.61 L1187.13 1532.4 L1192.99 1532.4 L1192.99 1568.04 L1187.13 1568.04 L1187.13 1562.57 Q1185 1565.82 1182.17 1567.41 Q1179.37 1568.97 1175.64 1568.97 Q1169.5 1568.97 1166.32 1565.15 Q1163.13 1561.33 1163.13 1553.98 M1177.87 1531.54 L1177.87 1531.54 Z" fill="#000000" fill-rule="nonzero" fill-opacity="1" /><path clip-path="url(#clip110)" d="M1235.54 1548.76 L1235.54 1551.62 L1208.62 1551.62 Q1209 1557.67 1212.25 1560.85 Q1215.52 1564 1221.35 1564 Q1224.72 1564 1227.87 1563.17 Q1231.06 1562.35 1234.18 1560.69 L1234.18 1566.23 Q1231.02 1567.57 1227.71 1568.27 Q1224.4 1568.97 1221 1568.97 Q1212.47 1568.97 1207.47 1564 Q1202.51 1559.04 1202.51 1550.57 Q1202.51 1541.82 1207.22 1536.69 Q1211.96 1531.54 1219.98 1531.54 Q1227.17 1531.54 1231.34 1536.18 Q1235.54 1540.8 1235.54 1548.76 M1229.69 1547.04 Q1229.62 1542.23 1226.98 1539.37 Q1224.37 1536.5 1220.04 1536.5 Q1215.14 1536.5 1212.18 1539.27 Q1209.25 1542.04 1208.81 1547.07 L1229.69 1547.04 Z" fill="#000000" fill-rule="nonzero" fill-opacity="1" /><path clip-path="url(#clip110)" d="M1274.79 1546.53 L1274.79 1568.04 L1268.93 1568.04 L1268.93 1546.72 Q1268.93 1541.66 1266.96 1539.14 Q1264.99 1536.63 1261.04 1536.63 Q1256.3 1536.63 1253.56 1539.65 Q1250.82 1542.68 1250.82 1547.9 L1250.82 1568.04 L1244.93 1568.04 L1244.93 1532.4 L1250.82 1532.4 L1250.82 1537.93 Q1252.92 1534.72 1255.76 1533.13 Q1258.62 1531.54 1262.34 1531.54 Q1268.49 1531.54 1271.64 1535.36 Q1274.79 1539.14 1274.79 1546.53 Z" fill="#000000" fill-rule="nonzero" fill-opacity="1" /><path clip-path="url(#clip110)" d="M1312.12 1533.76 L1312.12 1539.24 Q1309.64 1537.87 1307.13 1537.2 Q1304.64 1536.5 1302.1 1536.5 Q1296.4 1536.5 1293.25 1540.13 Q1290.1 1543.73 1290.1 1550.25 Q1290.1 1556.78 1293.25 1560.4 Q1296.4 1564 1302.1 1564 Q1304.64 1564 1307.13 1563.33 Q1309.64 1562.63 1312.12 1561.26 L1312.12 1566.68 Q1309.67 1567.82 1307.03 1568.39 Q1304.42 1568.97 1301.46 1568.97 Q1293.41 1568.97 1288.67 1563.91 Q1283.92 1558.85 1283.92 1550.25 Q1283.92 1541.53 1288.7 1536.53 Q1293.5 1531.54 1301.84 1531.54 Q1304.55 1531.54 1307.13 1532.11 Q1309.71 1532.65 1312.12 1533.76 Z" fill="#000000" fill-rule="nonzero" fill-opacity="1" /><path clip-path="url(#clip110)" d="M1322.31 1532.4 L1328.17 1532.4 L1328.17 1568.04 L1322.31 1568.04 L1322.31 1532.4 M1322.31 1518.52 L1328.17 1518.52 L1328.17 1525.93 L1322.31 1525.93 L1322.31 1518.52 Z" fill="#000000" fill-rule="nonzero" fill-opacity="1" /><path clip-path="url(#clip110)" d="M1370.91 1548.76 L1370.91 1551.62 L1343.98 1551.62 Q1344.37 1557.67 1347.61 1560.85 Q1350.89 1564 1356.72 1564 Q1360.09 1564 1363.24 1563.17 Q1366.42 1562.35 1369.54 1560.69 L1369.54 1566.23 Q1366.39 1567.57 1363.08 1568.27 Q1359.77 1568.97 1356.37 1568.97 Q1347.84 1568.97 1342.84 1564 Q1337.87 1559.04 1337.87 1550.57 Q1337.87 1541.82 1342.58 1536.69 Q1347.33 1531.54 1355.35 1531.54 Q1362.54 1531.54 1366.71 1536.18 Q1370.91 1540.8 1370.91 1548.76 M1365.05 1547.04 Q1364.99 1542.23 1362.35 1539.37 Q1359.74 1536.5 1355.41 1536.5 Q1350.51 1536.5 1347.55 1539.27 Q1344.62 1542.04 1344.18 1547.07 L1365.05 1547.04 Z" fill="#000000" fill-rule="nonzero" fill-opacity="1" /><path clip-path="url(#clip110)" d="M1403.25 1533.45 L1403.25 1538.98 Q1400.77 1537.71 1398.09 1537.07 Q1395.42 1536.44 1392.55 1536.44 Q1388.19 1536.44 1386 1537.77 Q1383.83 1539.11 1383.83 1541.79 Q1383.83 1543.82 1385.39 1545 Q1386.95 1546.15 1391.66 1547.2 L1393.67 1547.64 Q1399.91 1548.98 1402.52 1551.43 Q1405.16 1553.85 1405.16 1558.21 Q1405.16 1563.17 1401.21 1566.07 Q1397.3 1568.97 1390.42 1568.97 Q1387.56 1568.97 1384.44 1568.39 Q1381.35 1567.85 1377.91 1566.74 L1377.91 1560.69 Q1381.16 1562.38 1384.31 1563.24 Q1387.46 1564.07 1390.55 1564.07 Q1394.69 1564.07 1396.92 1562.66 Q1399.14 1561.23 1399.14 1558.65 Q1399.14 1556.27 1397.52 1554.99 Q1395.93 1553.72 1390.49 1552.54 L1388.45 1552.07 Q1383.01 1550.92 1380.59 1548.56 Q1378.17 1546.18 1378.17 1542.04 Q1378.17 1537.01 1381.73 1534.27 Q1385.3 1531.54 1391.85 1531.54 Q1395.1 1531.54 1397.97 1532.01 Q1400.83 1532.49 1403.25 1533.45 Z" fill="#000000" fill-rule="nonzero" fill-opacity="1" /><path clip-path="url(#clip110)" d="M1434.66 1518.52 L1448.16 1518.52 L1448.16 1523.07 L1440.52 1523.07 L1440.52 1572.09 L1448.16 1572.09 L1448.16 1576.64 L1434.66 1576.64 L1434.66 1518.52 Z" fill="#000000" fill-rule="nonzero" fill-opacity="1" /><path clip-path="url(#clip110)" d="M1493.29 1561.26 L1493.29 1548.5 L1482.79 1548.5 L1482.79 1543.22 L1499.66 1543.22 L1499.66 1563.62 Q1495.93 1566.26 1491.45 1567.63 Q1486.96 1568.97 1481.87 1568.97 Q1470.73 1568.97 1464.42 1562.47 Q1458.15 1555.95 1458.15 1544.33 Q1458.15 1532.68 1464.42 1526.19 Q1470.73 1519.66 1481.87 1519.66 Q1486.51 1519.66 1490.68 1520.81 Q1494.88 1521.96 1498.42 1524.18 L1498.42 1531.03 Q1494.85 1528 1490.84 1526.48 Q1486.83 1524.95 1482.41 1524.95 Q1473.69 1524.95 1469.29 1529.82 Q1464.93 1534.69 1464.93 1544.33 Q1464.93 1553.94 1469.29 1558.81 Q1473.69 1563.68 1482.41 1563.68 Q1485.81 1563.68 1488.49 1563.11 Q1491.16 1562.51 1493.29 1561.26 Z" fill="#000000" fill-rule="nonzero" fill-opacity="1" /><path clip-path="url(#clip110)" d="M1511.4 1520.52 L1517.83 1520.52 L1517.83 1540 L1541.19 1540 L1541.19 1520.52 L1547.62 1520.52 L1547.62 1568.04 L1541.19 1568.04 L1541.19 1545.41 L1517.83 1545.41 L1517.83 1568.04 L1511.4 1568.04 L1511.4 1520.52 Z" fill="#000000" fill-rule="nonzero" fill-opacity="1" /><path clip-path="url(#clip110)" d="M1557.62 1532.4 L1585.44 1532.4 L1585.44 1537.74 L1563.41 1563.37 L1585.44 1563.37 L1585.44 1568.04 L1556.82 1568.04 L1556.82 1562.7 L1578.85 1537.07 L1557.62 1537.07 L1557.62 1532.4 Z" fill="#000000" fill-rule="nonzero" fill-opacity="1" /><path clip-path="url(#clip110)" d="M1608.07 1518.52 L1608.07 1576.64 L1594.57 1576.64 L1594.57 1572.09 L1602.18 1572.09 L1602.18 1523.07 L1594.57 1523.07 L1594.57 1518.52 L1608.07 1518.52 Z" fill="#000000" fill-rule="nonzero" fill-opacity="1" /><polyline clip-path="url(#clip110)" style="stroke:#000000; stroke-linecap:round; stroke-linejoin:round; stroke-width:4; stroke-opacity:1; fill:none" points="279.704,1423.18 279.704,47.2441 "/>
<polyline clip-path="url(#clip110)" style="stroke:#000000; stroke-linecap:round; stroke-linejoin:round; stroke-width:4; stroke-opacity:1; fill:none" points="279.704,1184.79 298.602,1184.79 "/>
<polyline clip-path="url(#clip110)" style="stroke:#000000; stroke-linecap:round; stroke-linejoin:round; stroke-width:4; stroke-opacity:1; fill:none" points="279.704,907.688 298.602,907.688 "/>
<polyline clip-path="url(#clip110)" style="stroke:#000000; stroke-linecap:round; stroke-linejoin:round; stroke-width:4; stroke-opacity:1; fill:none" points="279.704,630.585 298.602,630.585 "/>
<polyline clip-path="url(#clip110)" style="stroke:#000000; stroke-linecap:round; stroke-linejoin:round; stroke-width:4; stroke-opacity:1; fill:none" points="279.704,353.483 298.602,353.483 "/>
<polyline clip-path="url(#clip110)" style="stroke:#000000; stroke-linecap:round; stroke-linejoin:round; stroke-width:4; stroke-opacity:1; fill:none" points="279.704,76.3797 298.602,76.3797 "/>
<path clip-path="url(#clip110)" d="M126.205 1170.59 Q122.593 1170.59 120.765 1174.15 Q118.959 1177.7 118.959 1184.83 Q118.959 1191.93 120.765 1195.5 Q122.593 1199.04 126.205 1199.04 Q129.839 1199.04 131.644 1195.5 Q133.473 1191.93 133.473 1184.83 Q133.473 1177.7 131.644 1174.15 Q129.839 1170.59 126.205 1170.59 M126.205 1166.89 Q132.015 1166.89 135.07 1171.49 Q138.149 1176.08 138.149 1184.83 Q138.149 1193.55 135.07 1198.16 Q132.015 1202.74 126.205 1202.74 Q120.394 1202.74 117.316 1198.16 Q114.26 1193.55 114.26 1184.83 Q114.26 1176.08 117.316 1171.49 Q120.394 1166.89 126.205 1166.89 Z" fill="#000000" fill-rule="nonzero" fill-opacity="1" /><path clip-path="url(#clip110)" d="M146.366 1196.19 L151.251 1196.19 L151.251 1202.07 L146.366 1202.07 L146.366 1196.19 Z" fill="#000000" fill-rule="nonzero" fill-opacity="1" /><path clip-path="url(#clip110)" d="M161.575 1201.35 L161.575 1197.09 Q163.334 1197.93 165.14 1198.37 Q166.945 1198.81 168.681 1198.81 Q173.311 1198.81 175.741 1195.71 Q178.195 1192.58 178.542 1186.24 Q177.2 1188.23 175.139 1189.29 Q173.079 1190.36 170.579 1190.36 Q165.394 1190.36 162.362 1187.23 Q159.353 1184.09 159.353 1178.65 Q159.353 1173.32 162.501 1170.1 Q165.649 1166.89 170.88 1166.89 Q176.876 1166.89 180.024 1171.49 Q183.195 1176.08 183.195 1184.83 Q183.195 1193 179.306 1197.88 Q175.44 1202.74 168.889 1202.74 Q167.13 1202.74 165.325 1202.4 Q163.519 1202.05 161.575 1201.35 M170.88 1186.7 Q174.028 1186.7 175.857 1184.55 Q177.709 1182.4 177.709 1178.65 Q177.709 1174.92 175.857 1172.77 Q174.028 1170.59 170.88 1170.59 Q167.732 1170.59 165.88 1172.77 Q164.052 1174.92 164.052 1178.65 Q164.052 1182.4 165.88 1184.55 Q167.732 1186.7 170.88 1186.7 Z" fill="#000000" fill-rule="nonzero" fill-opacity="1" /><path clip-path="url(#clip110)" d="M201.598 1185.66 Q198.264 1185.66 196.343 1187.44 Q194.445 1189.22 194.445 1192.35 Q194.445 1195.47 196.343 1197.26 Q198.264 1199.04 201.598 1199.04 Q204.931 1199.04 206.852 1197.26 Q208.774 1195.45 208.774 1192.35 Q208.774 1189.22 206.852 1187.44 Q204.954 1185.66 201.598 1185.66 M196.922 1183.67 Q193.913 1182.93 192.223 1180.87 Q190.556 1178.81 190.556 1175.84 Q190.556 1171.7 193.496 1169.29 Q196.459 1166.89 201.598 1166.89 Q206.76 1166.89 209.699 1169.29 Q212.639 1171.7 212.639 1175.84 Q212.639 1178.81 210.949 1180.87 Q209.283 1182.93 206.297 1183.67 Q209.676 1184.46 211.551 1186.75 Q213.449 1189.04 213.449 1192.35 Q213.449 1197.37 210.371 1200.06 Q207.315 1202.74 201.598 1202.74 Q195.88 1202.74 192.801 1200.06 Q189.746 1197.37 189.746 1192.35 Q189.746 1189.04 191.644 1186.75 Q193.542 1184.46 196.922 1183.67 M195.209 1176.28 Q195.209 1178.97 196.875 1180.47 Q198.565 1181.98 201.598 1181.98 Q204.607 1181.98 206.297 1180.47 Q208.01 1178.97 208.01 1176.28 Q208.01 1173.6 206.297 1172.09 Q204.607 1170.59 201.598 1170.59 Q198.565 1170.59 196.875 1172.09 Q195.209 1173.6 195.209 1176.28 Z" fill="#000000" fill-rule="nonzero" fill-opacity="1" /><path clip-path="url(#clip110)" d="M231.76 1170.59 Q228.148 1170.59 226.32 1174.15 Q224.514 1177.7 224.514 1184.83 Q224.514 1191.93 226.32 1195.5 Q228.148 1199.04 231.76 1199.04 Q235.394 1199.04 237.199 1195.5 Q239.028 1191.93 239.028 1184.83 Q239.028 1177.7 237.199 1174.15 Q235.394 1170.59 231.76 1170.59 M231.76 1166.89 Q237.57 1166.89 240.625 1171.49 Q243.704 1176.08 243.704 1184.83 Q243.704 1193.55 240.625 1198.16 Q237.57 1202.74 231.76 1202.74 Q225.949 1202.74 222.871 1198.16 Q219.815 1193.55 219.815 1184.83 Q219.815 1176.08 222.871 1171.49 Q225.949 1166.89 231.76 1166.89 Z" fill="#000000" fill-rule="nonzero" fill-opacity="1" /><path clip-path="url(#clip110)" d="M127.2 893.487 Q123.589 893.487 121.76 897.052 Q119.955 900.593 119.955 907.723 Q119.955 914.829 121.76 918.394 Q123.589 921.936 127.2 921.936 Q130.834 921.936 132.64 918.394 Q134.468 914.829 134.468 907.723 Q134.468 900.593 132.64 897.052 Q130.834 893.487 127.2 893.487 M127.2 889.783 Q133.01 889.783 136.066 894.39 Q139.144 898.973 139.144 907.723 Q139.144 916.45 136.066 921.056 Q133.01 925.64 127.2 925.64 Q121.39 925.64 118.311 921.056 Q115.256 916.45 115.256 907.723 Q115.256 898.973 118.311 894.39 Q121.39 889.783 127.2 889.783 Z" fill="#000000" fill-rule="nonzero" fill-opacity="1" /><path clip-path="url(#clip110)" d="M147.362 919.089 L152.246 919.089 L152.246 924.968 L147.362 924.968 L147.362 919.089 Z" fill="#000000" fill-rule="nonzero" fill-opacity="1" /><path clip-path="url(#clip110)" d="M162.57 924.251 L162.57 919.991 Q164.329 920.825 166.135 921.265 Q167.94 921.704 169.677 921.704 Q174.306 921.704 176.737 918.603 Q179.19 915.478 179.538 909.135 Q178.195 911.126 176.135 912.191 Q174.075 913.255 171.575 913.255 Q166.39 913.255 163.357 910.13 Q160.348 906.982 160.348 901.542 Q160.348 896.218 163.496 893.001 Q166.644 889.783 171.876 889.783 Q177.871 889.783 181.019 894.39 Q184.19 898.973 184.19 907.723 Q184.19 915.894 180.301 920.778 Q176.436 925.64 169.885 925.64 Q168.126 925.64 166.32 925.292 Q164.515 924.945 162.57 924.251 M171.876 909.598 Q175.024 909.598 176.852 907.445 Q178.704 905.292 178.704 901.542 Q178.704 897.816 176.852 895.663 Q175.024 893.487 171.876 893.487 Q168.727 893.487 166.876 895.663 Q165.047 897.816 165.047 901.542 Q165.047 905.292 166.876 907.445 Q168.727 909.598 171.876 909.598 Z" fill="#000000" fill-rule="nonzero" fill-opacity="1" /><path clip-path="url(#clip110)" d="M202.593 908.556 Q199.26 908.556 197.338 910.339 Q195.44 912.121 195.44 915.246 Q195.44 918.371 197.338 920.153 Q199.26 921.936 202.593 921.936 Q205.926 921.936 207.848 920.153 Q209.769 918.348 209.769 915.246 Q209.769 912.121 207.848 910.339 Q205.949 908.556 202.593 908.556 M197.917 906.566 Q194.908 905.825 193.218 903.765 Q191.551 901.704 191.551 898.742 Q191.551 894.598 194.491 892.191 Q197.454 889.783 202.593 889.783 Q207.755 889.783 210.695 892.191 Q213.635 894.598 213.635 898.742 Q213.635 901.704 211.945 903.765 Q210.278 905.825 207.292 906.566 Q210.672 907.353 212.547 909.644 Q214.445 911.936 214.445 915.246 Q214.445 920.269 211.366 922.954 Q208.311 925.64 202.593 925.64 Q196.875 925.64 193.797 922.954 Q190.741 920.269 190.741 915.246 Q190.741 911.936 192.639 909.644 Q194.538 907.353 197.917 906.566 M196.204 899.181 Q196.204 901.866 197.871 903.371 Q199.561 904.876 202.593 904.876 Q205.602 904.876 207.292 903.371 Q209.005 901.866 209.005 899.181 Q209.005 896.496 207.292 894.992 Q205.602 893.487 202.593 893.487 Q199.561 893.487 197.871 894.992 Q196.204 896.496 196.204 899.181 Z" fill="#000000" fill-rule="nonzero" fill-opacity="1" /><path clip-path="url(#clip110)" d="M222.801 890.408 L241.158 890.408 L241.158 894.343 L227.084 894.343 L227.084 902.816 Q228.102 902.468 229.121 902.306 Q230.139 902.121 231.158 902.121 Q236.945 902.121 240.324 905.292 Q243.704 908.464 243.704 913.88 Q243.704 919.459 240.232 922.561 Q236.76 925.64 230.44 925.64 Q228.264 925.64 225.996 925.269 Q223.75 924.899 221.343 924.158 L221.343 919.459 Q223.426 920.593 225.648 921.149 Q227.871 921.704 230.347 921.704 Q234.352 921.704 236.69 919.598 Q239.028 917.491 239.028 913.88 Q239.028 910.269 236.69 908.163 Q234.352 906.056 230.347 906.056 Q228.473 906.056 226.598 906.473 Q224.746 906.89 222.801 907.769 L222.801 890.408 Z" fill="#000000" fill-rule="nonzero" fill-opacity="1" /><path clip-path="url(#clip110)" d="M126.205 616.384 Q122.593 616.384 120.765 619.949 Q118.959 623.491 118.959 630.62 Q118.959 637.727 120.765 641.291 Q122.593 644.833 126.205 644.833 Q129.839 644.833 131.644 641.291 Q133.473 637.727 133.473 630.62 Q133.473 623.491 131.644 619.949 Q129.839 616.384 126.205 616.384 M126.205 612.68 Q132.015 612.68 135.07 617.287 Q138.149 621.87 138.149 630.62 Q138.149 639.347 135.07 643.953 Q132.015 648.537 126.205 648.537 Q120.394 648.537 117.316 643.953 Q114.26 639.347 114.26 630.62 Q114.26 621.87 117.316 617.287 Q120.394 612.68 126.205 612.68 Z" fill="#000000" fill-rule="nonzero" fill-opacity="1" /><path clip-path="url(#clip110)" d="M146.366 641.986 L151.251 641.986 L151.251 647.865 L146.366 647.865 L146.366 641.986 Z" fill="#000000" fill-rule="nonzero" fill-opacity="1" /><path clip-path="url(#clip110)" d="M161.575 647.148 L161.575 642.889 Q163.334 643.722 165.14 644.162 Q166.945 644.602 168.681 644.602 Q173.311 644.602 175.741 641.5 Q178.195 638.375 178.542 632.032 Q177.2 634.023 175.139 635.088 Q173.079 636.152 170.579 636.152 Q165.394 636.152 162.362 633.027 Q159.353 629.879 159.353 624.44 Q159.353 619.116 162.501 615.898 Q165.649 612.68 170.88 612.68 Q176.876 612.68 180.024 617.287 Q183.195 621.87 183.195 630.62 Q183.195 638.791 179.306 643.676 Q175.44 648.537 168.889 648.537 Q167.13 648.537 165.325 648.189 Q163.519 647.842 161.575 647.148 M170.88 632.495 Q174.028 632.495 175.857 630.342 Q177.709 628.19 177.709 624.44 Q177.709 620.713 175.857 618.56 Q174.028 616.384 170.88 616.384 Q167.732 616.384 165.88 618.56 Q164.052 620.713 164.052 624.44 Q164.052 628.19 165.88 630.342 Q167.732 632.495 170.88 632.495 Z" fill="#000000" fill-rule="nonzero" fill-opacity="1" /><path clip-path="url(#clip110)" d="M191.737 647.148 L191.737 642.889 Q193.496 643.722 195.301 644.162 Q197.107 644.602 198.843 644.602 Q203.473 644.602 205.903 641.5 Q208.357 638.375 208.704 632.032 Q207.362 634.023 205.301 635.088 Q203.241 636.152 200.741 636.152 Q195.556 636.152 192.524 633.027 Q189.514 629.879 189.514 624.44 Q189.514 619.116 192.663 615.898 Q195.811 612.68 201.042 612.68 Q207.037 612.68 210.186 617.287 Q213.357 621.87 213.357 630.62 Q213.357 638.791 209.468 643.676 Q205.602 648.537 199.051 648.537 Q197.292 648.537 195.487 648.189 Q193.681 647.842 191.737 647.148 M201.042 632.495 Q204.19 632.495 206.019 630.342 Q207.871 628.19 207.871 624.44 Q207.871 620.713 206.019 618.56 Q204.19 616.384 201.042 616.384 Q197.894 616.384 196.042 618.56 Q194.213 620.713 194.213 624.44 Q194.213 628.19 196.042 630.342 Q197.894 632.495 201.042 632.495 Z" fill="#000000" fill-rule="nonzero" fill-opacity="1" /><path clip-path="url(#clip110)" d="M231.76 616.384 Q228.148 616.384 226.32 619.949 Q224.514 623.491 224.514 630.62 Q224.514 637.727 226.32 641.291 Q228.148 644.833 231.76 644.833 Q235.394 644.833 237.199 641.291 Q239.028 637.727 239.028 630.62 Q239.028 623.491 237.199 619.949 Q235.394 616.384 231.76 616.384 M231.76 612.68 Q237.57 612.68 240.625 617.287 Q243.704 621.87 243.704 630.62 Q243.704 639.347 240.625 643.953 Q237.57 648.537 231.76 648.537 Q225.949 648.537 222.871 643.953 Q219.815 639.347 219.815 630.62 Q219.815 621.87 222.871 617.287 Q225.949 612.68 231.76 612.68 Z" fill="#000000" fill-rule="nonzero" fill-opacity="1" /><path clip-path="url(#clip110)" d="M127.2 339.281 Q123.589 339.281 121.76 342.846 Q119.955 346.388 119.955 353.517 Q119.955 360.624 121.76 364.189 Q123.589 367.73 127.2 367.73 Q130.834 367.73 132.64 364.189 Q134.468 360.624 134.468 353.517 Q134.468 346.388 132.64 342.846 Q130.834 339.281 127.2 339.281 M127.2 335.578 Q133.01 335.578 136.066 340.184 Q139.144 344.767 139.144 353.517 Q139.144 362.244 136.066 366.851 Q133.01 371.434 127.2 371.434 Q121.39 371.434 118.311 366.851 Q115.256 362.244 115.256 353.517 Q115.256 344.767 118.311 340.184 Q121.39 335.578 127.2 335.578 Z" fill="#000000" fill-rule="nonzero" fill-opacity="1" /><path clip-path="url(#clip110)" d="M147.362 364.883 L152.246 364.883 L152.246 370.763 L147.362 370.763 L147.362 364.883 Z" fill="#000000" fill-rule="nonzero" fill-opacity="1" /><path clip-path="url(#clip110)" d="M162.57 370.045 L162.57 365.786 Q164.329 366.619 166.135 367.059 Q167.94 367.499 169.677 367.499 Q174.306 367.499 176.737 364.397 Q179.19 361.272 179.538 354.929 Q178.195 356.92 176.135 357.985 Q174.075 359.05 171.575 359.05 Q166.39 359.05 163.357 355.925 Q160.348 352.777 160.348 347.337 Q160.348 342.013 163.496 338.795 Q166.644 335.578 171.876 335.578 Q177.871 335.578 181.019 340.184 Q184.19 344.767 184.19 353.517 Q184.19 361.689 180.301 366.573 Q176.436 371.434 169.885 371.434 Q168.126 371.434 166.32 371.087 Q164.515 370.739 162.57 370.045 M171.876 355.392 Q175.024 355.392 176.852 353.239 Q178.704 351.087 178.704 347.337 Q178.704 343.61 176.852 341.457 Q175.024 339.281 171.876 339.281 Q168.727 339.281 166.876 341.457 Q165.047 343.61 165.047 347.337 Q165.047 351.087 166.876 353.239 Q168.727 355.392 171.876 355.392 Z" fill="#000000" fill-rule="nonzero" fill-opacity="1" /><path clip-path="url(#clip110)" d="M192.732 370.045 L192.732 365.786 Q194.491 366.619 196.297 367.059 Q198.102 367.499 199.838 367.499 Q204.468 367.499 206.899 364.397 Q209.352 361.272 209.699 354.929 Q208.357 356.92 206.297 357.985 Q204.237 359.05 201.737 359.05 Q196.551 359.05 193.519 355.925 Q190.51 352.777 190.51 347.337 Q190.51 342.013 193.658 338.795 Q196.806 335.578 202.037 335.578 Q208.033 335.578 211.181 340.184 Q214.352 344.767 214.352 353.517 Q214.352 361.689 210.463 366.573 Q206.598 371.434 200.047 371.434 Q198.287 371.434 196.482 371.087 Q194.676 370.739 192.732 370.045 M202.037 355.392 Q205.186 355.392 207.014 353.239 Q208.866 351.087 208.866 347.337 Q208.866 343.61 207.014 341.457 Q205.186 339.281 202.037 339.281 Q198.889 339.281 197.037 341.457 Q195.209 343.61 195.209 347.337 Q195.209 351.087 197.037 353.239 Q198.889 355.392 202.037 355.392 Z" fill="#000000" fill-rule="nonzero" fill-opacity="1" /><path clip-path="url(#clip110)" d="M222.801 336.203 L241.158 336.203 L241.158 340.138 L227.084 340.138 L227.084 348.61 Q228.102 348.263 229.121 348.101 Q230.139 347.915 231.158 347.915 Q236.945 347.915 240.324 351.087 Q243.704 354.258 243.704 359.675 Q243.704 365.253 240.232 368.355 Q236.76 371.434 230.44 371.434 Q228.264 371.434 225.996 371.063 Q223.75 370.693 221.343 369.952 L221.343 365.253 Q223.426 366.388 225.648 366.943 Q227.871 367.499 230.347 367.499 Q234.352 367.499 236.69 365.392 Q239.028 363.286 239.028 359.675 Q239.028 356.064 236.69 353.957 Q234.352 351.851 230.347 351.851 Q228.473 351.851 226.598 352.267 Q224.746 352.684 222.801 353.564 L222.801 336.203 Z" fill="#000000" fill-rule="nonzero" fill-opacity="1" /><path clip-path="url(#clip110)" d="M117.015 89.7245 L124.654 89.7245 L124.654 63.3589 L116.343 65.0256 L116.343 60.7664 L124.607 59.0997 L129.283 59.0997 L129.283 89.7245 L136.922 89.7245 L136.922 93.6597 L117.015 93.6597 L117.015 89.7245 Z" fill="#000000" fill-rule="nonzero" fill-opacity="1" /><path clip-path="url(#clip110)" d="M146.366 87.7801 L151.251 87.7801 L151.251 93.6597 L146.366 93.6597 L146.366 87.7801 Z" fill="#000000" fill-rule="nonzero" fill-opacity="1" /><path clip-path="url(#clip110)" d="M171.436 62.1784 Q167.825 62.1784 165.996 65.7432 Q164.19 69.2848 164.19 76.4144 Q164.19 83.5209 165.996 87.0857 Q167.825 90.6273 171.436 90.6273 Q175.07 90.6273 176.876 87.0857 Q178.704 83.5209 178.704 76.4144 Q178.704 69.2848 176.876 65.7432 Q175.07 62.1784 171.436 62.1784 M171.436 58.4747 Q177.246 58.4747 180.301 63.0812 Q183.38 67.6645 183.38 76.4144 Q183.38 85.1412 180.301 89.7477 Q177.246 94.331 171.436 94.331 Q165.626 94.331 162.547 89.7477 Q159.491 85.1412 159.491 76.4144 Q159.491 67.6645 162.547 63.0812 Q165.626 58.4747 171.436 58.4747 Z" fill="#000000" fill-rule="nonzero" fill-opacity="1" /><path clip-path="url(#clip110)" d="M201.598 62.1784 Q197.987 62.1784 196.158 65.7432 Q194.352 69.2848 194.352 76.4144 Q194.352 83.5209 196.158 87.0857 Q197.987 90.6273 201.598 90.6273 Q205.232 90.6273 207.037 87.0857 Q208.866 83.5209 208.866 76.4144 Q208.866 69.2848 207.037 65.7432 Q205.232 62.1784 201.598 62.1784 M201.598 58.4747 Q207.408 58.4747 210.463 63.0812 Q213.542 67.6645 213.542 76.4144 Q213.542 85.1412 210.463 89.7477 Q207.408 94.331 201.598 94.331 Q195.787 94.331 192.709 89.7477 Q189.653 85.1412 189.653 76.4144 Q189.653 67.6645 192.709 63.0812 Q195.787 58.4747 201.598 58.4747 Z" fill="#000000" fill-rule="nonzero" fill-opacity="1" /><path clip-path="url(#clip110)" d="M231.76 62.1784 Q228.148 62.1784 226.32 65.7432 Q224.514 69.2848 224.514 76.4144 Q224.514 83.5209 226.32 87.0857 Q228.148 90.6273 231.76 90.6273 Q235.394 90.6273 237.199 87.0857 Q239.028 83.5209 239.028 76.4144 Q239.028 69.2848 237.199 65.7432 Q235.394 62.1784 231.76 62.1784 M231.76 58.4747 Q237.57 58.4747 240.625 63.0812 Q243.704 67.6645 243.704 76.4144 Q243.704 85.1412 240.625 89.7477 Q237.57 94.331 231.76 94.331 Q225.949 94.331 222.871 89.7477 Q219.815 85.1412 219.815 76.4144 Q219.815 67.6645 222.871 63.0812 Q225.949 58.4747 231.76 58.4747 Z" fill="#000000" fill-rule="nonzero" fill-opacity="1" /><path clip-path="url(#clip110)" d="M41.7242 981.804 Q42.4244 979.735 44.7161 977.793 Q47.0077 975.82 51.0181 973.846 L64.0042 967.322 L64.0042 974.228 L51.8138 980.308 Q47.0395 982.663 45.48 984.891 Q43.9204 987.087 43.9204 990.906 L43.9204 997.909 L64.0042 997.909 L64.0042 1004.34 L16.4842 1004.34 L16.4842 989.824 Q16.4842 981.676 19.8898 977.666 Q23.2955 973.655 30.1704 973.655 Q34.6582 973.655 37.6183 975.756 Q40.5784 977.825 41.7242 981.804 M21.7677 997.909 L38.6368 997.909 L38.6368 989.824 Q38.6368 985.177 36.5043 982.822 Q34.34 980.435 30.1704 980.435 Q26.0009 980.435 23.9002 982.822 Q21.7677 985.177 21.7677 989.824 L21.7677 997.909 Z" fill="#000000" fill-rule="nonzero" fill-opacity="1" /><path clip-path="url(#clip110)" d="M44.7161 931.737 L47.5806 931.737 L47.5806 958.664 Q53.6281 958.282 56.8109 955.036 Q59.9619 951.757 59.9619 945.933 Q59.9619 942.559 59.1344 939.408 Q58.3069 936.225 56.6518 933.106 L62.1899 933.106 Q63.5267 936.257 64.227 939.567 Q64.9272 942.877 64.9272 946.283 Q64.9272 954.813 59.9619 959.81 Q54.9967 964.775 46.5303 964.775 Q37.7774 964.775 32.6531 960.065 Q27.4968 955.322 27.4968 947.301 Q27.4968 940.108 32.1438 935.939 Q36.7589 931.737 44.7161 931.737 M42.9973 937.594 Q38.1912 937.657 35.3266 940.299 Q32.4621 942.909 32.4621 947.238 Q32.4621 952.139 35.2312 955.099 Q38.0002 958.028 43.0292 958.473 L42.9973 937.594 Z" fill="#000000" fill-rule="nonzero" fill-opacity="1" /><path clip-path="url(#clip110)" d="M14.479 904.078 L19.3487 904.078 L19.3487 909.68 Q19.3487 912.831 20.6219 914.072 Q21.895 915.282 25.2052 915.282 L28.3562 915.282 L28.3562 905.638 L32.9077 905.638 L32.9077 915.282 L64.0042 915.282 L64.0042 921.17 L32.9077 921.17 L32.9077 926.772 L28.3562 926.772 L28.3562 921.17 L25.8736 921.17 Q19.9216 921.17 17.2162 918.401 Q14.479 915.632 14.479 909.616 L14.479 904.078 Z" fill="#000000" fill-rule="nonzero" fill-opacity="1" /><path clip-path="url(#clip110)" d="M14.479 899.177 L14.479 893.32 L64.0042 893.32 L64.0042 899.177 L14.479 899.177 Z" fill="#000000" fill-rule="nonzero" fill-opacity="1" /><path clip-path="url(#clip110)" d="M44.7161 850.574 L47.5806 850.574 L47.5806 877.501 Q53.6281 877.119 56.8109 873.873 Q59.9619 870.595 59.9619 864.77 Q59.9619 861.396 59.1344 858.245 Q58.3069 855.062 56.6518 851.943 L62.1899 851.943 Q63.5267 855.094 64.227 858.404 Q64.9272 861.714 64.9272 865.12 Q64.9272 873.65 59.9619 878.647 Q54.9967 883.613 46.5303 883.613 Q37.7774 883.613 32.6531 878.902 Q27.4968 874.159 27.4968 866.139 Q27.4968 858.945 32.1438 854.776 Q36.7589 850.574 44.7161 850.574 M42.9973 856.431 Q38.1912 856.495 35.3266 859.136 Q32.4621 861.746 32.4621 866.075 Q32.4621 870.977 35.2312 873.937 Q38.0002 876.865 43.0292 877.31 L42.9973 856.431 Z" fill="#000000" fill-rule="nonzero" fill-opacity="1" /><path clip-path="url(#clip110)" d="M29.7248 815.308 L35.1993 815.308 Q33.8307 817.791 33.1623 820.306 Q32.4621 822.788 32.4621 825.334 Q32.4621 831.032 36.0905 834.183 Q39.6872 837.334 46.212 837.334 Q52.7369 837.334 56.3653 834.183 Q59.9619 831.032 59.9619 825.334 Q59.9619 822.788 59.2935 820.306 Q58.5933 817.791 57.2247 815.308 L62.6355 815.308 Q63.7814 817.759 64.3543 820.401 Q64.9272 823.011 64.9272 825.971 Q64.9272 834.024 59.8664 838.766 Q54.8057 843.509 46.212 843.509 Q37.491 843.509 32.4939 838.734 Q27.4968 833.928 27.4968 825.589 Q27.4968 822.884 28.0697 820.306 Q28.6108 817.727 29.7248 815.308 Z" fill="#000000" fill-rule="nonzero" fill-opacity="1" /><path clip-path="url(#clip110)" d="M18.2347 799.331 L28.3562 799.331 L28.3562 787.268 L32.9077 787.268 L32.9077 799.331 L52.2594 799.331 Q56.6199 799.331 57.8613 798.153 Q59.1026 796.943 59.1026 793.283 L59.1026 787.268 L64.0042 787.268 L64.0042 793.283 Q64.0042 800.063 61.4897 802.641 Q58.9434 805.219 52.2594 805.219 L32.9077 805.219 L32.9077 809.516 L28.3562 809.516 L28.3562 805.219 L18.2347 805.219 L18.2347 799.331 Z" fill="#000000" fill-rule="nonzero" fill-opacity="1" /><path clip-path="url(#clip110)" d="M28.3562 779.565 L28.3562 773.709 L64.0042 773.709 L64.0042 779.565 L28.3562 779.565 M14.479 779.565 L14.479 773.709 L21.895 773.709 L21.895 779.565 L14.479 779.565 Z" fill="#000000" fill-rule="nonzero" fill-opacity="1" /><path clip-path="url(#clip110)" d="M28.3562 765.656 L28.3562 759.449 L58.275 748.309 L28.3562 737.169 L28.3562 730.963 L64.0042 744.331 L64.0042 752.288 L28.3562 765.656 Z" fill="#000000" fill-rule="nonzero" fill-opacity="1" /><path clip-path="url(#clip110)" d="M28.3562 722.878 L28.3562 717.022 L64.0042 717.022 L64.0042 722.878 L28.3562 722.878 M14.479 722.878 L14.479 717.022 L21.895 717.022 L21.895 722.878 L14.479 722.878 Z" fill="#000000" fill-rule="nonzero" fill-opacity="1" /><path clip-path="url(#clip110)" d="M18.2347 698.975 L28.3562 698.975 L28.3562 686.912 L32.9077 686.912 L32.9077 698.975 L52.2594 698.975 Q56.6199 698.975 57.8613 697.798 Q59.1026 696.588 59.1026 692.928 L59.1026 686.912 L64.0042 686.912 L64.0042 692.928 Q64.0042 699.707 61.4897 702.285 Q58.9434 704.863 52.2594 704.863 L32.9077 704.863 L32.9077 709.16 L28.3562 709.16 L28.3562 704.863 L18.2347 704.863 L18.2347 698.975 Z" fill="#000000" fill-rule="nonzero" fill-opacity="1" /><path clip-path="url(#clip110)" d="M67.3143 664.378 Q73.68 666.86 75.6216 669.216 Q77.5631 671.571 77.5631 675.518 L77.5631 680.196 L72.6615 680.196 L72.6615 676.759 Q72.6615 674.34 71.5157 673.003 Q70.3699 671.666 66.1048 670.043 L63.4312 668.993 L28.3562 683.411 L28.3562 677.204 L56.238 666.064 L28.3562 654.924 L28.3562 648.718 L67.3143 664.378 Z" fill="#000000" fill-rule="nonzero" fill-opacity="1" /><path clip-path="url(#clip110)" d="M14.1925 612.37 L79.3773 612.37 L79.3773 617.781 L14.1925 617.781 L14.1925 612.37 Z" fill="#000000" fill-rule="nonzero" fill-opacity="1" /><path clip-path="url(#clip110)" d="M18.0438 569.21 L24.314 569.21 Q22.5634 572.871 21.704 576.117 Q20.8447 579.364 20.8447 582.387 Q20.8447 587.639 22.8817 590.504 Q24.9187 593.336 28.6745 593.336 Q31.8255 593.336 33.4488 591.458 Q35.0402 589.549 36.0269 584.265 L36.8226 580.382 Q38.1912 573.189 41.6605 569.783 Q45.098 566.346 50.8908 566.346 Q57.7976 566.346 61.3624 570.993 Q64.9272 575.608 64.9272 584.552 Q64.9272 587.925 64.1633 591.745 Q63.3994 595.532 61.9035 599.607 L55.2831 599.607 Q57.4793 595.692 58.5933 591.936 Q59.7073 588.18 59.7073 584.552 Q59.7073 579.045 57.543 576.053 Q55.3786 573.062 51.3682 573.062 Q47.8671 573.062 45.8937 575.226 Q43.9204 577.358 42.9337 582.26 L42.1698 586.175 Q40.7375 593.368 37.682 596.583 Q34.6264 599.797 29.1837 599.797 Q22.8817 599.797 19.2532 595.373 Q15.6248 590.917 15.6248 583.119 Q15.6248 579.777 16.2295 576.308 Q16.8343 572.839 18.0438 569.21 Z" fill="#000000" fill-rule="nonzero" fill-opacity="1" /><path clip-path="url(#clip110)" d="M58.5933 554.633 L58.5933 544.129 L22.3406 544.129 L24.6323 555.556 L18.7758 555.556 L16.4842 544.193 L16.4842 537.764 L58.5933 537.764 L58.5933 527.26 L64.0042 527.26 L64.0042 554.633 L58.5933 554.633 Z" fill="#000000" fill-rule="nonzero" fill-opacity="1" /><path clip-path="url(#clip110)" d="M58.5933 513.16 L58.5933 502.657 L22.3406 502.657 L24.6323 514.083 L18.7758 514.083 L16.4842 502.72 L16.4842 496.291 L58.5933 496.291 L58.5933 485.788 L64.0042 485.788 L64.0042 513.16 L58.5933 513.16 Z" fill="#000000" fill-rule="nonzero" fill-opacity="1" /><path clip-path="url(#clip110)" d="M14.1925 466.086 L79.3773 466.086 L79.3773 471.497 L14.1925 471.497 L14.1925 466.086 Z" fill="#000000" fill-rule="nonzero" fill-opacity="1" /><polyline clip-path="url(#clip112)" style="stroke:#009af9; stroke-linecap:round; stroke-linejoin:round; stroke-width:4; stroke-opacity:1; fill:none" points="338.375,93.4997 340.333,93.48 342.291,93.4603 344.248,93.4407 346.206,93.4211 348.164,93.4016 350.121,93.3822 352.079,93.3628 354.037,93.3435 355.994,93.3243 357.952,93.3051 359.91,93.286 361.867,93.2669 363.825,93.2479 365.783,93.2289 367.74,93.2101 369.698,93.1912 371.656,93.1725 373.613,93.1538 375.571,93.1351 377.529,93.1165 379.486,93.098 381.444,93.0795 383.402,93.0611 385.359,93.0428 387.317,93.0245 389.275,93.0063 391.232,92.9881 393.19,92.9701 395.148,92.952 397.105,92.9341 399.063,92.9161 401.021,92.8983 402.978,92.8805 404.936,92.8628 406.894,92.8451 408.851,92.8275 410.809,92.81 412.767,92.7925 414.724,92.7751 416.682,92.7578 418.64,92.7405 420.597,92.7233 422.555,92.7061 424.513,92.689 426.47,92.672 428.428,92.6551 430.386,92.6382 432.343,92.6213 434.301,92.6046 436.259,92.5879 438.216,92.5712 440.174,92.5547 442.132,92.5382 444.089,92.5217 446.047,92.5053 448.005,92.489 449.962,92.4728 451.92,92.4566 453.878,92.4405 455.835,92.4245 457.793,92.4085 459.751,92.3926 461.708,92.3768 463.666,92.361 465.624,92.3453 467.581,92.3296 469.539,92.3141 471.497,92.2986 473.454,92.2832 475.412,92.2678 477.37,92.2525 479.327,92.2373 481.285,92.2221 483.243,92.2071 485.2,92.1921 487.158,92.1771 489.116,92.1623 491.073,92.1475 493.031,92.1328 494.989,92.1181 496.946,92.1035 498.904,92.089 500.862,92.0746 502.819,92.0602 504.777,92.046 506.735,92.0318 508.692,92.0176 510.65,92.0036 512.608,91.9896 514.565,91.9757 516.523,91.9619 518.481,91.9481 520.438,91.9344 522.396,91.9208 524.354,91.9073 526.311,91.8939 528.269,91.8805 530.227,91.8672 532.184,91.854 534.142,91.8409 536.1,91.8278 538.057,91.8149 540.015,91.802 541.973,91.7892 543.93,91.7765 545.888,91.7638 547.846,91.7513 549.803,91.7388 551.761,91.7264 553.719,91.7141 555.676,91.7019 557.634,91.6898 559.592,91.6777 561.549,91.6658 563.507,91.6539 565.465,91.6421 567.422,91.6304 569.38,91.6188 571.338,91.6073 573.295,91.5959 575.253,91.5845 577.211,91.5733 579.168,91.5621 581.126,91.5511 583.084,91.5401 585.041,91.5293 586.999,91.5185 588.957,91.5078 590.914,91.4972 592.872,91.4867 594.83,91.4763 596.787,91.466 598.745,91.4559 600.703,91.4458 602.66,91.4358 604.618,91.4259 606.576,91.4161 608.533,91.4064 610.491,91.3968 612.449,91.3873 614.406,91.378 616.364,91.3687 618.322,91.3595 620.279,91.3505 622.237,91.3415 624.195,91.3327 626.152,91.324 628.11,91.3154 630.068,91.3069 632.025,91.2985 633.983,91.2902 635.941,91.2821 637.898,91.274 639.856,91.2661 641.814,91.2583 643.771,91.2506 645.729,91.2431 647.687,91.2356 649.644,91.2283 651.602,91.2211 653.56,91.2141 655.517,91.2071 657.475,91.2003 659.433,91.1936 661.39,91.1871 663.348,91.1806 665.306,91.1744 667.263,91.1682 669.221,91.1622 671.179,91.1563 673.136,91.1506 675.094,91.145 677.052,91.1395 679.009,91.1342 680.967,91.129 682.925,91.124 684.882,91.1191 686.84,91.1143 688.798,91.1098 690.755,91.1053 692.713,91.101 694.671,91.0969 696.628,91.0929 698.586,91.0891 700.544,91.0855 702.501,91.082 704.459,91.0787 706.417,91.0755 708.374,91.0725 710.332,91.0697 712.29,91.067 714.247,91.0646 716.205,91.0623 718.163,91.0601 720.12,91.0582 722.078,91.0564 724.036,91.0548 725.993,91.0534 727.951,91.0522 729.909,91.0512 731.866,91.0504 733.824,91.0498 735.782,91.0493 737.739,91.0491 739.697,91.0491 741.655,91.0492 743.612,91.0496 745.57,91.0502 747.528,91.051 749.485,91.052 751.443,91.0533 753.401,91.0547 755.358,91.0564 757.316,91.0583 759.274,91.0604 761.231,91.0628 763.189,91.0654 765.147,91.0683 767.104,91.0713 769.062,91.0747 771.02,91.0782 772.977,91.0821 774.935,91.0862 776.893,91.0905 778.85,91.0951 780.808,91.1 782.766,91.1051 784.723,91.1106 786.681,91.1163 788.639,91.1222 790.596,91.1285 792.554,91.1351 794.512,91.1419 796.469,91.149 798.427,91.1565 800.385,91.1642 802.342,91.1723 804.3,91.1807 806.258,91.1894 808.215,91.1984 810.173,91.2078 812.131,91.2175 814.088,91.2275 816.046,91.2379 818.004,91.2486 819.961,91.2597 821.919,91.2712 823.877,91.283 825.834,91.2952 827.792,91.3078 829.75,91.3207 831.707,91.3341 833.665,91.3478 835.623,91.362 837.58,91.3765 839.538,91.3915 841.496,91.4069 843.453,91.4227 845.411,91.439 847.369,91.4557 849.326,91.4729 851.284,91.4905 853.242,91.5086 855.199,91.5272 857.157,91.5463 859.115,91.5658 861.072,91.5859 863.03,91.6064 864.988,91.6275 866.945,91.6491 868.903,91.6713 870.861,91.694 872.818,91.7172 874.776,91.741 876.734,91.7654 878.691,91.7904 880.649,91.816 882.607,91.8422 884.564,91.869 886.522,91.8964 888.48,91.9245 890.437,91.9532 892.395,91.9826 894.353,92.0126 896.31,92.0434 898.268,92.0749 900.226,92.107 902.183,92.14 904.141,92.1736 906.099,92.208 908.056,92.2432 910.014,92.2792 911.972,92.316 913.929,92.3536 915.887,92.392 917.845,92.4313 919.802,92.4715 921.76,92.5125 923.718,92.5545 925.675,92.5973 927.633,92.6412 929.591,92.6859 931.548,92.7317 933.506,92.7785 935.464,92.8263 937.421,92.8751 939.379,92.925 941.337,92.976 943.294,93.0281 945.252,93.0813 947.21,93.1357 949.167,93.1913 951.125,93.2481 953.083,93.3061 955.04,93.3654 956.998,93.426 958.956,93.4879 960.913,93.5512 962.871,93.6158 964.829,93.6819 966.786,93.7494 968.744,93.8184 970.702,93.8889 972.659,93.9609 974.617,94.0345 976.575,94.1098 978.532,94.1867 980.49,94.2653 982.448,94.3456 984.405,94.4277 986.363,94.5116 988.321,94.5974 990.278,94.6851 992.236,94.7748 994.194,94.8665 996.151,94.9602 998.109,95.056 1000.07,95.154 1002.02,95.2542 1003.98,95.3567 1005.94,95.4615 1007.9,95.5687 1009.86,95.6784 1011.81,95.7905 1013.77,95.9053 1015.73,96.0226 1017.69,96.1427 1019.64,96.2656 1021.6,96.3914 1023.56,96.5201 1025.52,96.6518 1027.47,96.7866 1029.43,96.9246 1031.39,97.0659 1033.35,97.2105 1035.3,97.3587 1037.26,97.5103 1039.22,97.6657 1041.18,97.8248 1043.14,97.9878 1045.09,98.1547 1047.05,98.3258 1049.01,98.5011 1050.97,98.6808 1052.92,98.8649 1054.88,99.0537 1056.84,99.2472 1058.8,99.4456 1060.75,99.6491 1062.71,99.8577 1064.67,100.072 1066.63,100.291 1068.59,100.517 1070.54,100.748 1072.5,100.985 1074.46,101.229 1076.42,101.479 1078.37,101.735 1080.33,101.999 1082.29,102.27 1084.25,102.548 1086.2,102.834 1088.16,103.128 1090.12,103.429 1092.08,103.74 1094.03,104.059 1095.99,104.387 1097.95,104.725 1099.91,105.072 1101.87,105.429 1103.82,105.797 1105.78,106.175 1107.74,106.565 1109.7,106.967 1111.65,107.38 1113.61,107.806 1115.57,108.245 1117.53,108.698 1119.48,109.164 1121.44,109.646 1123.4,110.142 1125.36,110.654 1127.32,111.183 1129.27,111.729 1131.23,112.292 1133.19,112.874 1135.15,113.475 1137.1,114.097 1139.06,114.74 1141.02,115.404 1142.98,116.091 1144.93,116.803 1146.89,117.539 1148.85,118.301 1150.81,119.09 1152.76,119.909 1154.72,120.756 1156.68,121.636 1158.64,122.547 1160.6,123.494 1162.55,124.476 1164.51,125.496 1166.47,126.555 1168.43,127.656 1170.38,128.801 1172.34,129.992 1174.3,131.231 1176.26,132.521 1178.21,133.865 1180.17,135.265 1182.13,136.725 1184.09,138.247 1186.05,139.836 1188,141.495 1189.96,143.229 1191.92,145.04 1193.88,146.935 1195.83,148.917 1197.79,150.993 1199.75,153.167 1201.71,155.447 1203.66,157.838 1205.62,160.348 1207.58,162.985 1209.54,165.755 1211.49,168.67 1213.45,171.737 1215.41,174.968 1217.37,178.373 1219.33,181.966 1221.28,185.759 1223.24,189.766 1225.2,194.004 1227.16,198.488 1229.11,203.239 1231.07,208.276 1233.03,213.62 1234.99,219.297 1236.94,225.332 1238.9,231.755 1240.86,238.596 1242.82,245.892 1244.78,253.678 1246.73,261.998 1248.69,270.897 1250.65,280.425 1252.61,290.637 1254.56,301.595 1256.52,313.365 1258.48,326.019 1260.44,339.639 1262.39,354.313 1264.35,370.136 1266.31,387.214 1268.27,405.661 1270.22,425.601 1272.18,447.166 1274.14,470.499 1276.1,495.75 1278.06,523.075 1280.01,552.634 1281.97,584.586 1283.93,619.083 1285.89,656.264 1287.84,696.237 1289.8,739.072 1291.76,784.775 1293.72,833.268 1295.67,884.358 1297.63,937.708 1299.59,992.8 1301.55,1048.91 1303.51,1105.07 1305.46,1160.08 1307.42,1212.51 1309.38,1260.76 1311.34,1303.14 1313.29,1337.99 1315.25,1363.81 1317.21,1379.46 1319.17,1384.24 1321.12,1377.98 1323.08,1361.08 1325.04,1334.43 1327,1299.33 1328.95,1257.33 1330.91,1210.07 1332.87,1159.19 1334.83,1106.18 1336.79,1052.33 1338.74,998.737 1340.7,946.232 1342.66,895.448 1344.62,846.829 1346.57,800.657 1348.53,757.088 1350.49,716.181 1352.45,677.922 1354.4,642.242 1356.36,609.04 1358.32,578.19 1360.28,549.554 1362.24,522.99 1364.19,498.352 1366.15,475.499 1368.11,454.298 1370.07,434.619 1372.02,416.342 1373.98,399.356 1375.94,383.555 1377.9,368.846 1379.85,355.138 1381.81,342.353 1383.77,330.415 1385.73,319.258 1387.68,308.819 1389.64,299.043 1391.6,289.877 1393.56,281.275 1395.52,273.193 1397.47,265.594 1399.43,258.44 1401.39,251.7 1403.35,245.342 1405.3,239.34 1407.26,233.669 1409.22,228.305 1411.18,223.228 1413.13,218.417 1415.09,213.855 1417.05,209.526 1419.01,205.414 1420.97,201.505 1422.92,197.786 1424.88,194.246 1426.84,190.873 1428.8,187.657 1430.75,184.589 1432.71,181.66 1434.67,178.861 1436.63,176.186 1438.58,173.626 1440.54,171.176 1442.5,168.829 1444.46,166.58 1446.41,164.423 1448.37,162.354 1450.33,160.367 1452.29,158.459 1454.25,156.625 1456.2,154.862 1458.16,153.165 1460.12,151.532 1462.08,149.96 1464.03,148.445 1465.99,146.984 1467.95,145.576 1469.91,144.218 1471.86,142.906 1473.82,141.64 1475.78,140.417 1477.74,139.235 1479.7,138.092 1481.65,136.987 1483.61,135.918 1485.57,134.883 1487.53,133.881 1489.48,132.911 1491.44,131.97 1493.4,131.059 1495.36,130.175 1497.31,129.318 1499.27,128.486 1501.23,127.679 1503.19,126.896 1505.14,126.135 1507.1,125.395 1509.06,124.677 1511.02,123.979 1512.98,123.3 1514.93,122.639 1516.89,121.997 1518.85,121.372 1520.81,120.764 1522.76,120.171 1524.72,119.594 1526.68,119.032 1528.64,118.485 1530.59,117.951 1532.55,117.431 1534.51,116.924 1536.47,116.429 1538.43,115.946 1540.38,115.475 1542.34,115.016 1544.3,114.567 1546.26,114.129 1548.21,113.701 1550.17,113.283 1552.13,112.875 1554.09,112.476 1556.04,112.086 1558,111.705 1559.96,111.333 1561.92,110.968 1563.87,110.612 1565.83,110.263 1567.79,109.922 1569.75,109.588 1571.71,109.261 1573.66,108.941 1575.62,108.627 1577.58,108.32 1579.54,108.02 1581.49,107.725 1583.45,107.436 1585.41,107.154 1587.37,106.876 1589.32,106.605 1591.28,106.338 1593.24,106.077 1595.2,105.821 1597.16,105.569 1599.11,105.323 1601.07,105.081 1603.03,104.843 1604.99,104.61 1606.94,104.382 1608.9,104.157 1610.86,103.937 1612.82,103.72 1614.77,103.508 1616.73,103.299 1618.69,103.094 1620.65,102.892 1622.6,102.694 1624.56,102.499 1626.52,102.308 1628.48,102.12 1630.44,101.935 1632.39,101.753 1634.35,101.574 1636.31,101.398 1638.27,101.225 1640.22,101.055 1642.18,100.888 1644.14,100.723 1646.1,100.561 1648.05,100.402 1650.01,100.245 1651.97,100.09 1653.93,99.9384 1655.89,99.7886 1657.84,99.6412 1659.8,99.496 1661.76,99.3531 1663.72,99.2123 1665.67,99.0736 1667.63,98.9369 1669.59,98.8023 1671.55,98.6697 1673.5,98.539 1675.46,98.4101 1677.42,98.2832 1679.38,98.1581 1681.33,98.0347 1683.29,97.9131 1685.25,97.7932 1687.21,97.675 1689.17,97.5584 1691.12,97.4434 1693.08,97.33 1695.04,97.2182 1697,97.1079 1698.95,96.999 1700.91,96.8916 1702.87,96.7857 1704.83,96.6811 1706.78,96.5779 1708.74,96.4761 1710.7,96.3756 1712.66,96.2764 1714.62,96.1785 1716.57,96.0818 1718.53,95.9863 1720.49,95.8921 1722.45,95.799 1724.4,95.7071 1726.36,95.6163 1728.32,95.5267 1730.28,95.4381 1732.23,95.3507 1734.19,95.2643 1736.15,95.1789 1738.11,95.0946 1740.06,95.0112 1742.02,94.9289 1743.98,94.8475 1745.94,94.7671 1747.9,94.6876 1749.85,94.6091 1751.81,94.5314 1753.77,94.4546 1755.73,94.3788 1757.68,94.3037 1759.64,94.2296 1761.6,94.1562 1763.56,94.0837 1765.51,94.012 1767.47,93.941 1769.43,93.8709 1771.39,93.8015 1773.35,93.7329 1775.3,93.665 1777.26,93.5978 1779.22,93.5314 1781.18,93.4657 1783.13,93.4006 1785.09,93.3363 1787.05,93.2726 1789.01,93.2096 1790.96,93.1472 1792.92,93.0855 1794.88,93.0244 1796.84,92.9639 1798.79,92.9041 1800.75,92.8448 1802.71,92.7862 1804.67,92.7281 1806.63,92.6707 1808.58,92.6137 1810.54,92.5574 1812.5,92.5016 1814.46,92.4463 1816.41,92.3916 1818.37,92.3374 1820.33,92.2837 1822.29,92.2306 1824.24,92.1779 1826.2,92.1258 1828.16,92.0741 1830.12,92.0229 1832.08,91.9722 1834.03,91.922 1835.99,91.8722 1837.95,91.8229 1839.91,91.774 1841.86,91.7256 1843.82,91.6776 1845.78,91.6301 1847.74,91.583 1849.69,91.5363 1851.65,91.49 1853.61,91.4441 1855.57,91.3986 1857.52,91.3536 1859.48,91.3089 1861.44,91.2646 1863.4,91.2207 1865.36,91.1772 1867.31,91.134 1869.27,91.0912 1871.23,91.0488 1873.19,91.0067 1875.14,90.965 1877.1,90.9236 1879.06,90.8826 1881.02,90.8419 1882.97,90.8015 1884.93,90.7615 1886.89,90.7218 1888.85,90.6824 1890.81,90.6434 1892.76,90.6046 1894.72,90.5662 1896.68,90.5281 1898.64,90.4903 1900.59,90.4528 1902.55,90.4155 1904.51,90.3786 1906.47,90.342 1908.42,90.3056 1910.38,90.2695 1912.34,90.2337 1914.3,90.1982 1916.25,90.1629 1918.21,90.128 1920.17,90.0932 1922.13,90.0588 1924.09,90.0246 1926.04,89.9906 1928,89.9569 1929.96,89.9235 1931.92,89.8903 1933.87,89.8573 1935.83,89.8246 1937.79,89.7921 1939.75,89.7599 1941.7,89.7279 1943.66,89.6961 1945.62,89.6646 1947.58,89.6332 1949.54,89.6021 1951.49,89.5712 1953.45,89.5406 1955.41,89.5101 1957.37,89.4799 1959.32,89.4498 1961.28,89.42 1963.24,89.3904 1965.2,89.361 1967.15,89.3318 1969.11,89.3027 1971.07,89.2739 1973.03,89.2453 1974.98,89.2169 1976.94,89.1886 1978.9,89.1606 1980.86,89.1327 1982.82,89.105 1984.77,89.0775 1986.73,89.0502 1988.69,89.023 1990.65,88.9961 1992.6,88.9693 1994.56,88.9427 1996.52,88.9162 1998.48,88.8899 2000.43,88.8638 2002.39,88.8379 2004.35,88.8121 2006.31,88.7865 2008.27,88.761 2010.22,88.7357 2012.18,88.7106 2014.14,88.6856 2016.1,88.6607 2018.05,88.636 2020.01,88.6115 2021.97,88.5871 2023.93,88.5629 2025.88,88.5388 2027.84,88.5149 2029.8,88.4911 2031.76,88.4674 2033.71,88.4439 2035.67,88.4205 2037.63,88.3973 2039.59,88.3742 2041.55,88.3512 2043.5,88.3284 2045.46,88.3057 2047.42,88.2831 2049.38,88.2607 2051.33,88.2384 2053.29,88.2162 2055.25,88.1941 2057.21,88.1722 2059.16,88.1504 2061.12,88.1287 2063.08,88.1072 2065.04,88.0857 2067,88.0644 2068.95,88.0432 2070.91,88.0221 2072.87,88.0012 2074.83,87.9803 2076.78,87.9596 2078.74,87.939 2080.7,87.9185 2082.66,87.8981 2084.61,87.8778 2086.57,87.8576 2088.53,87.8375 2090.49,87.8175 2092.44,87.7977 2094.4,87.7779 2096.36,87.7583 2098.32,87.7387 2100.28,87.7193 2102.23,87.7 2104.19,87.6807 2106.15,87.6616 2108.11,87.6425 2110.06,87.6236 2112.02,87.6048 2113.98,87.586 2115.94,87.5673 2117.89,87.5488 2119.85,87.5303 2121.81,87.512 2123.77,87.4937 2125.73,87.4755 2127.68,87.4574 2129.64,87.4394 2131.6,87.4215 2133.56,87.4036 2135.51,87.3859 2137.47,87.3682 2139.43,87.3507 2141.39,87.3332 2143.34,87.3158 2145.3,87.2985 2147.26,87.2813 2149.22,87.2641 2151.17,87.247 2153.13,87.2301 2155.09,87.2132 2157.05,87.1963 2159.01,87.1796 2160.96,87.1629 2162.92,87.1463 2164.88,87.1298 2166.84,87.1134 2168.79,87.0971 2170.75,87.0808 2172.71,87.0646 2174.67,87.0484 2176.62,87.0324 2178.58,87.0164 2180.54,87.0005 2182.5,86.9847 2184.46,86.9689 2186.41,86.9532 2188.37,86.9376 2190.33,86.922 2192.29,86.9066 2194.24,86.8911 2196.2,86.8758 2198.16,86.8605 2200.12,86.8453 2202.07,86.8302 2204.03,86.8151 2205.99,86.8001 2207.95,86.7851 2209.9,86.7703 2211.86,86.7554 2213.82,86.7407 2215.78,86.726 2217.74,86.7114 2219.69,86.6968 2221.65,86.6823 2223.61,86.6679 2225.57,86.6535 2227.52,86.6392 2229.48,86.6249 2231.44,86.6107 2233.4,86.5966 2235.35,86.5825 2237.31,86.5685 2239.27,86.5545 2241.23,86.5406 2243.19,86.5268 2245.14,86.513 2247.1,86.4993 2249.06,86.4856 2251.02,86.472 2252.97,86.4584 2254.93,86.4449 2256.89,86.4314 2258.85,86.418 2260.8,86.4047 2262.76,86.3914 2264.72,86.3782 2266.68,86.365 2268.63,86.3518 2270.59,86.3388 2272.55,86.3257 2274.51,86.3127 2276.47,86.2998 2278.42,86.2869 2280.38,86.2741 2282.34,86.2613 2284.3,86.2486 2286.25,86.2359 2288.21,86.2233 2290.17,86.2107 2292.13,86.1982 2294.08,86.1857 "/>
<polyline clip-path="url(#clip112)" style="stroke:#ff0000; stroke-linecap:round; stroke-linejoin:round; stroke-width:4; stroke-opacity:1; fill:none" points="1306.45,2799.12 1306.45,-1328.69 "/>
<polyline clip-path="url(#clip112)" style="stroke:#ff0000; stroke-linecap:round; stroke-linejoin:round; stroke-width:4; stroke-opacity:1; fill:none" points="1326.01,2799.12 1326.01,-1328.69 "/>
</svg>
