<?xml version="1.0" encoding="utf-8"?>
<svg xmlns="http://www.w3.org/2000/svg" xmlns:xlink="http://www.w3.org/1999/xlink" width="600" height="400" viewBox="0 0 2400 1600">
<defs>
  <clipPath id="clip620">
    <rect x="0" y="0" width="2400" height="1600"/>
  </clipPath>
</defs>
<path clip-path="url(#clip620)" d="M0 1600 L2400 1600 L2400 0 L0 0  Z" fill="#ffffff" fill-rule="evenodd" fill-opacity="1"/>
<defs>
  <clipPath id="clip621">
    <rect x="480" y="0" width="1681" height="1600"/>
  </clipPath>
</defs>
<path clip-path="url(#clip620)" d="M340.028 1423.18 L2352.76 1423.18 L2352.76 123.472 L340.028 123.472  Z" fill="#ffffff" fill-rule="evenodd" fill-opacity="1"/>
<defs>
  <clipPath id="clip622">
    <rect x="340" y="123" width="2014" height="1301"/>
  </clipPath>
</defs>
<polyline clip-path="url(#clip622)" style="stroke:#000000; stroke-linecap:round; stroke-linejoin:round; stroke-width:2; stroke-opacity:0.1; fill:none" points="607.969,1423.18 607.969,123.472 "/>
<polyline clip-path="url(#clip622)" style="stroke:#000000; stroke-linecap:round; stroke-linejoin:round; stroke-width:2; stroke-opacity:0.1; fill:none" points="1029.93,1423.18 1029.93,123.472 "/>
<polyline clip-path="url(#clip622)" style="stroke:#000000; stroke-linecap:round; stroke-linejoin:round; stroke-width:2; stroke-opacity:0.1; fill:none" points="1451.88,1423.18 1451.88,123.472 "/>
<polyline clip-path="url(#clip622)" style="stroke:#000000; stroke-linecap:round; stroke-linejoin:round; stroke-width:2; stroke-opacity:0.1; fill:none" points="1873.84,1423.18 1873.84,123.472 "/>
<polyline clip-path="url(#clip622)" style="stroke:#000000; stroke-linecap:round; stroke-linejoin:round; stroke-width:2; stroke-opacity:0.1; fill:none" points="2295.79,1423.18 2295.79,123.472 "/>
<polyline clip-path="url(#clip620)" style="stroke:#000000; stroke-linecap:round; stroke-linejoin:round; stroke-width:4; stroke-opacity:1; fill:none" points="340.028,1423.18 2352.76,1423.18 "/>
<polyline clip-path="url(#clip620)" style="stroke:#000000; stroke-linecap:round; stroke-linejoin:round; stroke-width:4; stroke-opacity:1; fill:none" points="607.969,1423.18 607.969,1404.28 "/>
<polyline clip-path="url(#clip620)" style="stroke:#000000; stroke-linecap:round; stroke-linejoin:round; stroke-width:4; stroke-opacity:1; fill:none" points="1029.93,1423.18 1029.93,1404.28 "/>
<polyline clip-path="url(#clip620)" style="stroke:#000000; stroke-linecap:round; stroke-linejoin:round; stroke-width:4; stroke-opacity:1; fill:none" points="1451.88,1423.18 1451.88,1404.28 "/>
<polyline clip-path="url(#clip620)" style="stroke:#000000; stroke-linecap:round; stroke-linejoin:round; stroke-width:4; stroke-opacity:1; fill:none" points="1873.84,1423.18 1873.84,1404.28 "/>
<polyline clip-path="url(#clip620)" style="stroke:#000000; stroke-linecap:round; stroke-linejoin:round; stroke-width:4; stroke-opacity:1; fill:none" points="2295.79,1423.18 2295.79,1404.28 "/>
<path clip-path="url(#clip620)" d="M602.622 1481.64 L618.942 1481.64 L618.942 1485.58 L596.997 1485.58 L596.997 1481.64 Q599.659 1478.89 604.243 1474.26 Q608.849 1469.61 610.03 1468.27 Q612.275 1465.74 613.155 1464.01 Q614.057 1462.25 614.057 1460.56 Q614.057 1457.8 612.113 1456.07 Q610.192 1454.33 607.09 1454.33 Q604.891 1454.33 602.437 1455.09 Q600.007 1455.86 597.229 1457.41 L597.229 1452.69 Q600.053 1451.55 602.507 1450.97 Q604.96 1450.39 606.997 1450.39 Q612.368 1450.39 615.562 1453.08 Q618.756 1455.77 618.756 1460.26 Q618.756 1462.39 617.946 1464.31 Q617.159 1466.2 615.053 1468.8 Q614.474 1469.47 611.372 1472.69 Q608.27 1475.88 602.622 1481.64 Z" fill="#000000" fill-rule="nonzero" fill-opacity="1" /><path clip-path="url(#clip620)" d="M1032.93 1455.09 L1021.13 1473.54 L1032.93 1473.54 L1032.93 1455.09 M1031.71 1451.02 L1037.59 1451.02 L1037.59 1473.54 L1042.52 1473.54 L1042.52 1477.43 L1037.59 1477.43 L1037.59 1485.58 L1032.93 1485.58 L1032.93 1477.43 L1017.33 1477.43 L1017.33 1472.92 L1031.71 1451.02 Z" fill="#000000" fill-rule="nonzero" fill-opacity="1" /><path clip-path="url(#clip620)" d="M1452.29 1466.44 Q1449.14 1466.44 1447.29 1468.59 Q1445.46 1470.74 1445.46 1474.49 Q1445.46 1478.22 1447.29 1480.39 Q1449.14 1482.55 1452.29 1482.55 Q1455.43 1482.55 1457.26 1480.39 Q1459.11 1478.22 1459.11 1474.49 Q1459.11 1470.74 1457.26 1468.59 Q1455.43 1466.44 1452.29 1466.44 M1461.57 1451.78 L1461.57 1456.04 Q1459.81 1455.21 1458 1454.77 Q1456.22 1454.33 1454.46 1454.33 Q1449.83 1454.33 1447.38 1457.45 Q1444.95 1460.58 1444.6 1466.9 Q1445.97 1464.89 1448.03 1463.82 Q1450.09 1462.73 1452.56 1462.73 Q1457.77 1462.73 1460.78 1465.9 Q1463.81 1469.05 1463.81 1474.49 Q1463.81 1479.82 1460.67 1483.03 Q1457.52 1486.25 1452.29 1486.25 Q1446.29 1486.25 1443.12 1481.67 Q1439.95 1477.06 1439.95 1468.33 Q1439.95 1460.14 1443.84 1455.28 Q1447.73 1450.39 1454.28 1450.39 Q1456.04 1450.39 1457.82 1450.74 Q1459.62 1451.09 1461.57 1451.78 Z" fill="#000000" fill-rule="nonzero" fill-opacity="1" /><path clip-path="url(#clip620)" d="M1873.84 1469.17 Q1870.5 1469.17 1868.58 1470.95 Q1866.68 1472.73 1866.68 1475.86 Q1866.68 1478.98 1868.58 1480.77 Q1870.5 1482.55 1873.84 1482.55 Q1877.17 1482.55 1879.09 1480.77 Q1881.01 1478.96 1881.01 1475.86 Q1881.01 1472.73 1879.09 1470.95 Q1877.19 1469.17 1873.84 1469.17 M1869.16 1467.18 Q1866.15 1466.44 1864.46 1464.38 Q1862.79 1462.32 1862.79 1459.35 Q1862.79 1455.21 1865.73 1452.8 Q1868.7 1450.39 1873.84 1450.39 Q1879 1450.39 1881.94 1452.8 Q1884.88 1455.21 1884.88 1459.35 Q1884.88 1462.32 1883.19 1464.38 Q1881.52 1466.44 1878.54 1467.18 Q1881.91 1467.96 1883.79 1470.26 Q1885.69 1472.55 1885.69 1475.86 Q1885.69 1480.88 1882.61 1483.57 Q1879.55 1486.25 1873.84 1486.25 Q1868.12 1486.25 1865.04 1483.57 Q1861.98 1480.88 1861.98 1475.86 Q1861.98 1472.55 1863.88 1470.26 Q1865.78 1467.96 1869.16 1467.18 M1867.45 1459.79 Q1867.45 1462.48 1869.11 1463.98 Q1870.8 1465.49 1873.84 1465.49 Q1876.85 1465.49 1878.54 1463.98 Q1880.25 1462.48 1880.25 1459.79 Q1880.25 1457.11 1878.54 1455.6 Q1876.85 1454.1 1873.84 1454.1 Q1870.8 1454.1 1869.11 1455.6 Q1867.45 1457.11 1867.45 1459.79 Z" fill="#000000" fill-rule="nonzero" fill-opacity="1" /><path clip-path="url(#clip620)" d="M2270.48 1481.64 L2278.12 1481.64 L2278.12 1455.28 L2269.81 1456.95 L2269.81 1452.69 L2278.07 1451.02 L2282.75 1451.02 L2282.75 1481.64 L2290.39 1481.64 L2290.39 1485.58 L2270.48 1485.58 L2270.48 1481.64 Z" fill="#000000" fill-rule="nonzero" fill-opacity="1" /><path clip-path="url(#clip620)" d="M2309.83 1454.1 Q2306.22 1454.1 2304.39 1457.66 Q2302.59 1461.2 2302.59 1468.33 Q2302.59 1475.44 2304.39 1479.01 Q2306.22 1482.55 2309.83 1482.55 Q2313.47 1482.55 2315.27 1479.01 Q2317.1 1475.44 2317.1 1468.33 Q2317.1 1461.2 2315.27 1457.66 Q2313.47 1454.1 2309.83 1454.1 M2309.83 1450.39 Q2315.64 1450.39 2318.7 1455 Q2321.78 1459.58 2321.78 1468.33 Q2321.78 1477.06 2318.7 1481.67 Q2315.64 1486.25 2309.83 1486.25 Q2304.02 1486.25 2300.94 1481.67 Q2297.89 1477.06 2297.89 1468.33 Q2297.89 1459.58 2300.94 1455 Q2304.02 1450.39 2309.83 1450.39 Z" fill="#000000" fill-rule="nonzero" fill-opacity="1" /><path clip-path="url(#clip620)" d="M1286.11 1525.81 L1286.11 1562.76 L1293.87 1562.76 Q1303.71 1562.76 1308.26 1558.3 Q1312.84 1553.85 1312.84 1544.24 Q1312.84 1534.69 1308.26 1530.26 Q1303.71 1525.81 1293.87 1525.81 L1286.11 1525.81 M1279.68 1520.52 L1292.89 1520.52 Q1306.7 1520.52 1313.16 1526.28 Q1319.62 1532.01 1319.62 1544.24 Q1319.62 1556.52 1313.13 1562.28 Q1306.64 1568.04 1292.89 1568.04 L1279.68 1568.04 L1279.68 1520.52 Z" fill="#000000" fill-rule="nonzero" fill-opacity="1" /><path clip-path="url(#clip620)" d="M1329.62 1532.4 L1335.47 1532.4 L1335.47 1568.04 L1329.62 1568.04 L1329.62 1532.4 M1329.62 1518.52 L1335.47 1518.52 L1335.47 1525.93 L1329.62 1525.93 L1329.62 1518.52 Z" fill="#000000" fill-rule="nonzero" fill-opacity="1" /><path clip-path="url(#clip620)" d="M1370.45 1533.45 L1370.45 1538.98 Q1367.97 1537.71 1365.3 1537.07 Q1362.62 1536.44 1359.76 1536.44 Q1355.4 1536.44 1353.2 1537.77 Q1351.04 1539.11 1351.04 1541.79 Q1351.04 1543.82 1352.6 1545 Q1354.16 1546.15 1358.87 1547.2 L1360.87 1547.64 Q1367.11 1548.98 1369.72 1551.43 Q1372.36 1553.85 1372.36 1558.21 Q1372.36 1563.17 1368.42 1566.07 Q1364.5 1568.97 1357.63 1568.97 Q1354.76 1568.97 1351.64 1568.39 Q1348.56 1567.85 1345.12 1566.74 L1345.12 1560.69 Q1348.37 1562.38 1351.52 1563.24 Q1354.67 1564.07 1357.75 1564.07 Q1361.89 1564.07 1364.12 1562.66 Q1366.35 1561.23 1366.35 1558.65 Q1366.35 1556.27 1364.73 1554.99 Q1363.13 1553.72 1357.69 1552.54 L1355.65 1552.07 Q1350.21 1550.92 1347.79 1548.56 Q1345.37 1546.18 1345.37 1542.04 Q1345.37 1537.01 1348.94 1534.27 Q1352.5 1531.54 1359.06 1531.54 Q1362.31 1531.54 1365.17 1532.01 Q1368.04 1532.49 1370.45 1533.45 Z" fill="#000000" fill-rule="nonzero" fill-opacity="1" /><path clip-path="url(#clip620)" d="M1381.47 1518.52 L1387.36 1518.52 L1387.36 1547.77 L1404.83 1532.4 L1412.31 1532.4 L1393.4 1549.07 L1413.1 1568.04 L1405.47 1568.04 L1387.36 1550.63 L1387.36 1568.04 L1381.47 1568.04 L1381.47 1518.52 Z" fill="#000000" fill-rule="nonzero" fill-opacity="1" /><polyline clip-path="url(#clip622)" style="stroke:#000000; stroke-linecap:round; stroke-linejoin:round; stroke-width:2; stroke-opacity:0.1; fill:none" points="340.028,1252.13 2352.76,1252.13 "/>
<polyline clip-path="url(#clip622)" style="stroke:#000000; stroke-linecap:round; stroke-linejoin:round; stroke-width:2; stroke-opacity:0.1; fill:none" points="340.028,1021.98 2352.76,1021.98 "/>
<polyline clip-path="url(#clip622)" style="stroke:#000000; stroke-linecap:round; stroke-linejoin:round; stroke-width:2; stroke-opacity:0.1; fill:none" points="340.028,791.842 2352.76,791.842 "/>
<polyline clip-path="url(#clip622)" style="stroke:#000000; stroke-linecap:round; stroke-linejoin:round; stroke-width:2; stroke-opacity:0.1; fill:none" points="340.028,561.699 2352.76,561.699 "/>
<polyline clip-path="url(#clip622)" style="stroke:#000000; stroke-linecap:round; stroke-linejoin:round; stroke-width:2; stroke-opacity:0.1; fill:none" points="340.028,331.557 2352.76,331.557 "/>
<polyline clip-path="url(#clip620)" style="stroke:#000000; stroke-linecap:round; stroke-linejoin:round; stroke-width:4; stroke-opacity:1; fill:none" points="340.028,1423.18 340.028,123.472 "/>
<polyline clip-path="url(#clip620)" style="stroke:#000000; stroke-linecap:round; stroke-linejoin:round; stroke-width:4; stroke-opacity:1; fill:none" points="340.028,1252.13 358.925,1252.13 "/>
<polyline clip-path="url(#clip620)" style="stroke:#000000; stroke-linecap:round; stroke-linejoin:round; stroke-width:4; stroke-opacity:1; fill:none" points="340.028,1021.98 358.925,1021.98 "/>
<polyline clip-path="url(#clip620)" style="stroke:#000000; stroke-linecap:round; stroke-linejoin:round; stroke-width:4; stroke-opacity:1; fill:none" points="340.028,791.842 358.925,791.842 "/>
<polyline clip-path="url(#clip620)" style="stroke:#000000; stroke-linecap:round; stroke-linejoin:round; stroke-width:4; stroke-opacity:1; fill:none" points="340.028,561.699 358.925,561.699 "/>
<polyline clip-path="url(#clip620)" style="stroke:#000000; stroke-linecap:round; stroke-linejoin:round; stroke-width:4; stroke-opacity:1; fill:none" points="340.028,331.557 358.925,331.557 "/>
<path clip-path="url(#clip620)" d="M126.205 1237.93 Q122.593 1237.93 120.765 1241.49 Q118.959 1245.03 118.959 1252.16 Q118.959 1259.27 120.765 1262.83 Q122.593 1266.38 126.205 1266.38 Q129.839 1266.38 131.644 1262.83 Q133.473 1259.27 133.473 1252.16 Q133.473 1245.03 131.644 1241.49 Q129.839 1237.93 126.205 1237.93 M126.205 1234.22 Q132.015 1234.22 135.07 1238.83 Q138.149 1243.41 138.149 1252.16 Q138.149 1260.89 135.07 1265.5 Q132.015 1270.08 126.205 1270.08 Q120.394 1270.08 117.316 1265.5 Q114.26 1260.89 114.26 1252.16 Q114.26 1243.41 117.316 1238.83 Q120.394 1234.22 126.205 1234.22 Z" fill="#000000" fill-rule="nonzero" fill-opacity="1" /><path clip-path="url(#clip620)" d="M146.366 1263.53 L151.251 1263.53 L151.251 1269.41 L146.366 1269.41 L146.366 1263.53 Z" fill="#000000" fill-rule="nonzero" fill-opacity="1" /><path clip-path="url(#clip620)" d="M171.436 1237.93 Q167.825 1237.93 165.996 1241.49 Q164.19 1245.03 164.19 1252.16 Q164.19 1259.27 165.996 1262.83 Q167.825 1266.38 171.436 1266.38 Q175.07 1266.38 176.876 1262.83 Q178.704 1259.27 178.704 1252.16 Q178.704 1245.03 176.876 1241.49 Q175.07 1237.93 171.436 1237.93 M171.436 1234.22 Q177.246 1234.22 180.301 1238.83 Q183.38 1243.41 183.38 1252.16 Q183.38 1260.89 180.301 1265.5 Q177.246 1270.08 171.436 1270.08 Q165.626 1270.08 162.547 1265.5 Q159.491 1260.89 159.491 1252.16 Q159.491 1243.41 162.547 1238.83 Q165.626 1234.22 171.436 1234.22 Z" fill="#000000" fill-rule="nonzero" fill-opacity="1" /><path clip-path="url(#clip620)" d="M201.598 1237.93 Q197.987 1237.93 196.158 1241.49 Q194.352 1245.03 194.352 1252.16 Q194.352 1259.27 196.158 1262.83 Q197.987 1266.38 201.598 1266.38 Q205.232 1266.38 207.037 1262.83 Q208.866 1259.27 208.866 1252.16 Q208.866 1245.03 207.037 1241.49 Q205.232 1237.93 201.598 1237.93 M201.598 1234.22 Q207.408 1234.22 210.463 1238.83 Q213.542 1243.41 213.542 1252.16 Q213.542 1260.89 210.463 1265.5 Q207.408 1270.08 201.598 1270.08 Q195.787 1270.08 192.709 1265.5 Q189.653 1260.89 189.653 1252.16 Q189.653 1243.41 192.709 1238.83 Q195.787 1234.22 201.598 1234.22 Z" fill="#000000" fill-rule="nonzero" fill-opacity="1" /><path clip-path="url(#clip620)" d="M221.898 1268.69 L221.898 1264.43 Q223.658 1265.26 225.463 1265.7 Q227.269 1266.14 229.005 1266.14 Q233.635 1266.14 236.065 1263.04 Q238.519 1259.92 238.866 1253.57 Q237.523 1255.57 235.463 1256.63 Q233.403 1257.69 230.903 1257.69 Q225.718 1257.69 222.686 1254.57 Q219.676 1251.42 219.676 1245.98 Q219.676 1240.66 222.824 1237.44 Q225.973 1234.22 231.204 1234.22 Q237.199 1234.22 240.347 1238.83 Q243.519 1243.41 243.519 1252.16 Q243.519 1260.33 239.63 1265.22 Q235.764 1270.08 229.213 1270.08 Q227.454 1270.08 225.648 1269.73 Q223.843 1269.38 221.898 1268.69 M231.204 1254.04 Q234.352 1254.04 236.181 1251.88 Q238.033 1249.73 238.033 1245.98 Q238.033 1242.25 236.181 1240.1 Q234.352 1237.93 231.204 1237.93 Q228.056 1237.93 226.204 1240.1 Q224.375 1242.25 224.375 1245.98 Q224.375 1249.73 226.204 1251.88 Q228.056 1254.04 231.204 1254.04 Z" fill="#000000" fill-rule="nonzero" fill-opacity="1" /><path clip-path="url(#clip620)" d="M251.968 1234.85 L270.324 1234.85 L270.324 1238.78 L256.25 1238.78 L256.25 1247.25 Q257.269 1246.91 258.287 1246.75 Q259.306 1246.56 260.324 1246.56 Q266.111 1246.56 269.491 1249.73 Q272.87 1252.9 272.87 1258.32 Q272.87 1263.9 269.398 1267 Q265.926 1270.08 259.607 1270.08 Q257.431 1270.08 255.162 1269.71 Q252.917 1269.34 250.509 1268.6 L250.509 1263.9 Q252.593 1265.03 254.815 1265.59 Q257.037 1266.14 259.514 1266.14 Q263.519 1266.14 265.857 1264.04 Q268.195 1261.93 268.195 1258.32 Q268.195 1254.71 265.857 1252.6 Q263.519 1250.5 259.514 1250.5 Q257.639 1250.5 255.764 1250.91 Q253.912 1251.33 251.968 1252.21 L251.968 1234.85 Z" fill="#000000" fill-rule="nonzero" fill-opacity="1" /><path clip-path="url(#clip620)" d="M292.083 1237.93 Q288.472 1237.93 286.643 1241.49 Q284.838 1245.03 284.838 1252.16 Q284.838 1259.27 286.643 1262.83 Q288.472 1266.38 292.083 1266.38 Q295.718 1266.38 297.523 1262.83 Q299.352 1259.27 299.352 1252.16 Q299.352 1245.03 297.523 1241.49 Q295.718 1237.93 292.083 1237.93 M292.083 1234.22 Q297.893 1234.22 300.949 1238.83 Q304.028 1243.41 304.028 1252.16 Q304.028 1260.89 300.949 1265.5 Q297.893 1270.08 292.083 1270.08 Q286.273 1270.08 283.194 1265.5 Q280.139 1260.89 280.139 1252.16 Q280.139 1243.41 283.194 1238.83 Q286.273 1234.22 292.083 1234.22 Z" fill="#000000" fill-rule="nonzero" fill-opacity="1" /><path clip-path="url(#clip620)" d="M127.2 1007.78 Q123.589 1007.78 121.76 1011.35 Q119.955 1014.89 119.955 1022.02 Q119.955 1029.13 121.76 1032.69 Q123.589 1036.23 127.2 1036.23 Q130.834 1036.23 132.64 1032.69 Q134.468 1029.13 134.468 1022.02 Q134.468 1014.89 132.64 1011.35 Q130.834 1007.78 127.2 1007.78 M127.2 1004.08 Q133.01 1004.08 136.066 1008.69 Q139.144 1013.27 139.144 1022.02 Q139.144 1030.75 136.066 1035.35 Q133.01 1039.94 127.2 1039.94 Q121.39 1039.94 118.311 1035.35 Q115.256 1030.75 115.256 1022.02 Q115.256 1013.27 118.311 1008.69 Q121.39 1004.08 127.2 1004.08 Z" fill="#000000" fill-rule="nonzero" fill-opacity="1" /><path clip-path="url(#clip620)" d="M147.362 1033.39 L152.246 1033.39 L152.246 1039.26 L147.362 1039.26 L147.362 1033.39 Z" fill="#000000" fill-rule="nonzero" fill-opacity="1" /><path clip-path="url(#clip620)" d="M172.431 1007.78 Q168.82 1007.78 166.991 1011.35 Q165.186 1014.89 165.186 1022.02 Q165.186 1029.13 166.991 1032.69 Q168.82 1036.23 172.431 1036.23 Q176.065 1036.23 177.871 1032.69 Q179.7 1029.13 179.7 1022.02 Q179.7 1014.89 177.871 1011.35 Q176.065 1007.78 172.431 1007.78 M172.431 1004.08 Q178.241 1004.08 181.297 1008.69 Q184.376 1013.27 184.376 1022.02 Q184.376 1030.75 181.297 1035.35 Q178.241 1039.94 172.431 1039.94 Q166.621 1039.94 163.542 1035.35 Q160.487 1030.75 160.487 1022.02 Q160.487 1013.27 163.542 1008.69 Q166.621 1004.08 172.431 1004.08 Z" fill="#000000" fill-rule="nonzero" fill-opacity="1" /><path clip-path="url(#clip620)" d="M202.593 1007.78 Q198.982 1007.78 197.153 1011.35 Q195.348 1014.89 195.348 1022.02 Q195.348 1029.13 197.153 1032.69 Q198.982 1036.23 202.593 1036.23 Q206.227 1036.23 208.033 1032.69 Q209.861 1029.13 209.861 1022.02 Q209.861 1014.89 208.033 1011.35 Q206.227 1007.78 202.593 1007.78 M202.593 1004.08 Q208.403 1004.08 211.459 1008.69 Q214.537 1013.27 214.537 1022.02 Q214.537 1030.75 211.459 1035.35 Q208.403 1039.94 202.593 1039.94 Q196.783 1039.94 193.704 1035.35 Q190.649 1030.75 190.649 1022.02 Q190.649 1013.27 193.704 1008.69 Q196.783 1004.08 202.593 1004.08 Z" fill="#000000" fill-rule="nonzero" fill-opacity="1" /><path clip-path="url(#clip620)" d="M222.894 1038.55 L222.894 1034.29 Q224.653 1035.12 226.459 1035.56 Q228.264 1036 230 1036 Q234.63 1036 237.06 1032.9 Q239.514 1029.77 239.861 1023.43 Q238.519 1025.42 236.459 1026.49 Q234.398 1027.55 231.898 1027.55 Q226.713 1027.55 223.681 1024.43 Q220.672 1021.28 220.672 1015.84 Q220.672 1010.51 223.82 1007.3 Q226.968 1004.08 232.199 1004.08 Q238.195 1004.08 241.343 1008.69 Q244.514 1013.27 244.514 1022.02 Q244.514 1030.19 240.625 1035.08 Q236.76 1039.94 230.209 1039.94 Q228.449 1039.94 226.644 1039.59 Q224.838 1039.24 222.894 1038.55 M232.199 1023.89 Q235.347 1023.89 237.176 1021.74 Q239.028 1019.59 239.028 1015.84 Q239.028 1012.11 237.176 1009.96 Q235.347 1007.78 232.199 1007.78 Q229.051 1007.78 227.199 1009.96 Q225.371 1012.11 225.371 1015.84 Q225.371 1019.59 227.199 1021.74 Q229.051 1023.89 232.199 1023.89 Z" fill="#000000" fill-rule="nonzero" fill-opacity="1" /><path clip-path="url(#clip620)" d="M251.736 1004.7 L273.958 1004.7 L273.958 1006.7 L261.412 1039.26 L256.528 1039.26 L268.333 1008.64 L251.736 1008.64 L251.736 1004.7 Z" fill="#000000" fill-rule="nonzero" fill-opacity="1" /><path clip-path="url(#clip620)" d="M283.125 1004.7 L301.481 1004.7 L301.481 1008.64 L287.407 1008.64 L287.407 1017.11 Q288.426 1016.76 289.444 1016.6 Q290.463 1016.42 291.481 1016.42 Q297.268 1016.42 300.648 1019.59 Q304.028 1022.76 304.028 1028.18 Q304.028 1033.76 300.555 1036.86 Q297.083 1039.94 290.764 1039.94 Q288.588 1039.94 286.319 1039.57 Q284.074 1039.2 281.667 1038.45 L281.667 1033.76 Q283.75 1034.89 285.972 1035.45 Q288.194 1036 290.671 1036 Q294.676 1036 297.014 1033.89 Q299.352 1031.79 299.352 1028.18 Q299.352 1024.57 297.014 1022.46 Q294.676 1020.35 290.671 1020.35 Q288.796 1020.35 286.921 1020.77 Q285.069 1021.19 283.125 1022.07 L283.125 1004.7 Z" fill="#000000" fill-rule="nonzero" fill-opacity="1" /><path clip-path="url(#clip620)" d="M126.205 777.641 Q122.593 777.641 120.765 781.206 Q118.959 784.747 118.959 791.877 Q118.959 798.983 120.765 802.548 Q122.593 806.09 126.205 806.09 Q129.839 806.09 131.644 802.548 Q133.473 798.983 133.473 791.877 Q133.473 784.747 131.644 781.206 Q129.839 777.641 126.205 777.641 M126.205 773.937 Q132.015 773.937 135.07 778.544 Q138.149 783.127 138.149 791.877 Q138.149 800.604 135.07 805.21 Q132.015 809.793 126.205 809.793 Q120.394 809.793 117.316 805.21 Q114.26 800.604 114.26 791.877 Q114.26 783.127 117.316 778.544 Q120.394 773.937 126.205 773.937 Z" fill="#000000" fill-rule="nonzero" fill-opacity="1" /><path clip-path="url(#clip620)" d="M146.366 803.243 L151.251 803.243 L151.251 809.122 L146.366 809.122 L146.366 803.243 Z" fill="#000000" fill-rule="nonzero" fill-opacity="1" /><path clip-path="url(#clip620)" d="M171.436 777.641 Q167.825 777.641 165.996 781.206 Q164.19 784.747 164.19 791.877 Q164.19 798.983 165.996 802.548 Q167.825 806.09 171.436 806.09 Q175.07 806.09 176.876 802.548 Q178.704 798.983 178.704 791.877 Q178.704 784.747 176.876 781.206 Q175.07 777.641 171.436 777.641 M171.436 773.937 Q177.246 773.937 180.301 778.544 Q183.38 783.127 183.38 791.877 Q183.38 800.604 180.301 805.21 Q177.246 809.793 171.436 809.793 Q165.626 809.793 162.547 805.21 Q159.491 800.604 159.491 791.877 Q159.491 783.127 162.547 778.544 Q165.626 773.937 171.436 773.937 Z" fill="#000000" fill-rule="nonzero" fill-opacity="1" /><path clip-path="url(#clip620)" d="M192.408 805.187 L200.047 805.187 L200.047 778.821 L191.737 780.488 L191.737 776.229 L200 774.562 L204.676 774.562 L204.676 805.187 L212.315 805.187 L212.315 809.122 L192.408 809.122 L192.408 805.187 Z" fill="#000000" fill-rule="nonzero" fill-opacity="1" /><path clip-path="url(#clip620)" d="M231.76 777.641 Q228.148 777.641 226.32 781.206 Q224.514 784.747 224.514 791.877 Q224.514 798.983 226.32 802.548 Q228.148 806.09 231.76 806.09 Q235.394 806.09 237.199 802.548 Q239.028 798.983 239.028 791.877 Q239.028 784.747 237.199 781.206 Q235.394 777.641 231.76 777.641 M231.76 773.937 Q237.57 773.937 240.625 778.544 Q243.704 783.127 243.704 791.877 Q243.704 800.604 240.625 805.21 Q237.57 809.793 231.76 809.793 Q225.949 809.793 222.871 805.21 Q219.815 800.604 219.815 791.877 Q219.815 783.127 222.871 778.544 Q225.949 773.937 231.76 773.937 Z" fill="#000000" fill-rule="nonzero" fill-opacity="1" /><path clip-path="url(#clip620)" d="M261.921 777.641 Q258.31 777.641 256.482 781.206 Q254.676 784.747 254.676 791.877 Q254.676 798.983 256.482 802.548 Q258.31 806.09 261.921 806.09 Q265.556 806.09 267.361 802.548 Q269.19 798.983 269.19 791.877 Q269.19 784.747 267.361 781.206 Q265.556 777.641 261.921 777.641 M261.921 773.937 Q267.732 773.937 270.787 778.544 Q273.866 783.127 273.866 791.877 Q273.866 800.604 270.787 805.21 Q267.732 809.793 261.921 809.793 Q256.111 809.793 253.033 805.21 Q249.977 800.604 249.977 791.877 Q249.977 783.127 253.033 778.544 Q256.111 773.937 261.921 773.937 Z" fill="#000000" fill-rule="nonzero" fill-opacity="1" /><path clip-path="url(#clip620)" d="M292.083 777.641 Q288.472 777.641 286.643 781.206 Q284.838 784.747 284.838 791.877 Q284.838 798.983 286.643 802.548 Q288.472 806.09 292.083 806.09 Q295.718 806.09 297.523 802.548 Q299.352 798.983 299.352 791.877 Q299.352 784.747 297.523 781.206 Q295.718 777.641 292.083 777.641 M292.083 773.937 Q297.893 773.937 300.949 778.544 Q304.028 783.127 304.028 791.877 Q304.028 800.604 300.949 805.21 Q297.893 809.793 292.083 809.793 Q286.273 809.793 283.194 805.21 Q280.139 800.604 280.139 791.877 Q280.139 783.127 283.194 778.544 Q286.273 773.937 292.083 773.937 Z" fill="#000000" fill-rule="nonzero" fill-opacity="1" /><path clip-path="url(#clip620)" d="M127.2 547.498 Q123.589 547.498 121.76 551.063 Q119.955 554.605 119.955 561.734 Q119.955 568.841 121.76 572.405 Q123.589 575.947 127.2 575.947 Q130.834 575.947 132.64 572.405 Q134.468 568.841 134.468 561.734 Q134.468 554.605 132.64 551.063 Q130.834 547.498 127.2 547.498 M127.2 543.794 Q133.01 543.794 136.066 548.401 Q139.144 552.984 139.144 561.734 Q139.144 570.461 136.066 575.067 Q133.01 579.651 127.2 579.651 Q121.39 579.651 118.311 575.067 Q115.256 570.461 115.256 561.734 Q115.256 552.984 118.311 548.401 Q121.39 543.794 127.2 543.794 Z" fill="#000000" fill-rule="nonzero" fill-opacity="1" /><path clip-path="url(#clip620)" d="M147.362 573.1 L152.246 573.1 L152.246 578.979 L147.362 578.979 L147.362 573.1 Z" fill="#000000" fill-rule="nonzero" fill-opacity="1" /><path clip-path="url(#clip620)" d="M172.431 547.498 Q168.82 547.498 166.991 551.063 Q165.186 554.605 165.186 561.734 Q165.186 568.841 166.991 572.405 Q168.82 575.947 172.431 575.947 Q176.065 575.947 177.871 572.405 Q179.7 568.841 179.7 561.734 Q179.7 554.605 177.871 551.063 Q176.065 547.498 172.431 547.498 M172.431 543.794 Q178.241 543.794 181.297 548.401 Q184.376 552.984 184.376 561.734 Q184.376 570.461 181.297 575.067 Q178.241 579.651 172.431 579.651 Q166.621 579.651 163.542 575.067 Q160.487 570.461 160.487 561.734 Q160.487 552.984 163.542 548.401 Q166.621 543.794 172.431 543.794 Z" fill="#000000" fill-rule="nonzero" fill-opacity="1" /><path clip-path="url(#clip620)" d="M193.403 575.044 L201.042 575.044 L201.042 548.679 L192.732 550.345 L192.732 546.086 L200.996 544.419 L205.672 544.419 L205.672 575.044 L213.311 575.044 L213.311 578.979 L193.403 578.979 L193.403 575.044 Z" fill="#000000" fill-rule="nonzero" fill-opacity="1" /><path clip-path="url(#clip620)" d="M232.755 547.498 Q229.144 547.498 227.315 551.063 Q225.51 554.605 225.51 561.734 Q225.51 568.841 227.315 572.405 Q229.144 575.947 232.755 575.947 Q236.389 575.947 238.195 572.405 Q240.023 568.841 240.023 561.734 Q240.023 554.605 238.195 551.063 Q236.389 547.498 232.755 547.498 M232.755 543.794 Q238.565 543.794 241.621 548.401 Q244.699 552.984 244.699 561.734 Q244.699 570.461 241.621 575.067 Q238.565 579.651 232.755 579.651 Q226.945 579.651 223.866 575.067 Q220.811 570.461 220.811 561.734 Q220.811 552.984 223.866 548.401 Q226.945 543.794 232.755 543.794 Z" fill="#000000" fill-rule="nonzero" fill-opacity="1" /><path clip-path="url(#clip620)" d="M256.945 575.044 L273.264 575.044 L273.264 578.979 L251.32 578.979 L251.32 575.044 Q253.982 572.29 258.565 567.66 Q263.171 563.007 264.352 561.665 Q266.597 559.142 267.477 557.405 Q268.38 555.646 268.38 553.956 Q268.38 551.202 266.435 549.466 Q264.514 547.73 261.412 547.73 Q259.213 547.73 256.759 548.493 Q254.329 549.257 251.551 550.808 L251.551 546.086 Q254.375 544.952 256.829 544.373 Q259.283 543.794 261.32 543.794 Q266.69 543.794 269.884 546.48 Q273.079 549.165 273.079 553.655 Q273.079 555.785 272.269 557.706 Q271.482 559.605 269.375 562.197 Q268.796 562.868 265.695 566.086 Q262.593 569.28 256.945 575.044 Z" fill="#000000" fill-rule="nonzero" fill-opacity="1" /><path clip-path="url(#clip620)" d="M283.125 544.419 L301.481 544.419 L301.481 548.355 L287.407 548.355 L287.407 556.827 Q288.426 556.48 289.444 556.318 Q290.463 556.132 291.481 556.132 Q297.268 556.132 300.648 559.304 Q304.028 562.475 304.028 567.892 Q304.028 573.47 300.555 576.572 Q297.083 579.651 290.764 579.651 Q288.588 579.651 286.319 579.28 Q284.074 578.91 281.667 578.169 L281.667 573.47 Q283.75 574.604 285.972 575.16 Q288.194 575.716 290.671 575.716 Q294.676 575.716 297.014 573.609 Q299.352 571.503 299.352 567.892 Q299.352 564.28 297.014 562.174 Q294.676 560.067 290.671 560.067 Q288.796 560.067 286.921 560.484 Q285.069 560.901 283.125 561.78 L283.125 544.419 Z" fill="#000000" fill-rule="nonzero" fill-opacity="1" /><path clip-path="url(#clip620)" d="M126.205 317.355 Q122.593 317.355 120.765 320.92 Q118.959 324.462 118.959 331.591 Q118.959 338.698 120.765 342.263 Q122.593 345.804 126.205 345.804 Q129.839 345.804 131.644 342.263 Q133.473 338.698 133.473 331.591 Q133.473 324.462 131.644 320.92 Q129.839 317.355 126.205 317.355 M126.205 313.652 Q132.015 313.652 135.07 318.258 Q138.149 322.842 138.149 331.591 Q138.149 340.318 135.07 344.925 Q132.015 349.508 126.205 349.508 Q120.394 349.508 117.316 344.925 Q114.26 340.318 114.26 331.591 Q114.26 322.842 117.316 318.258 Q120.394 313.652 126.205 313.652 Z" fill="#000000" fill-rule="nonzero" fill-opacity="1" /><path clip-path="url(#clip620)" d="M146.366 342.957 L151.251 342.957 L151.251 348.837 L146.366 348.837 L146.366 342.957 Z" fill="#000000" fill-rule="nonzero" fill-opacity="1" /><path clip-path="url(#clip620)" d="M171.436 317.355 Q167.825 317.355 165.996 320.92 Q164.19 324.462 164.19 331.591 Q164.19 338.698 165.996 342.263 Q167.825 345.804 171.436 345.804 Q175.07 345.804 176.876 342.263 Q178.704 338.698 178.704 331.591 Q178.704 324.462 176.876 320.92 Q175.07 317.355 171.436 317.355 M171.436 313.652 Q177.246 313.652 180.301 318.258 Q183.38 322.842 183.38 331.591 Q183.38 340.318 180.301 344.925 Q177.246 349.508 171.436 349.508 Q165.626 349.508 162.547 344.925 Q159.491 340.318 159.491 331.591 Q159.491 322.842 162.547 318.258 Q165.626 313.652 171.436 313.652 Z" fill="#000000" fill-rule="nonzero" fill-opacity="1" /><path clip-path="url(#clip620)" d="M192.408 344.902 L200.047 344.902 L200.047 318.536 L191.737 320.203 L191.737 315.943 L200 314.277 L204.676 314.277 L204.676 344.902 L212.315 344.902 L212.315 348.837 L192.408 348.837 L192.408 344.902 Z" fill="#000000" fill-rule="nonzero" fill-opacity="1" /><path clip-path="url(#clip620)" d="M231.76 317.355 Q228.148 317.355 226.32 320.92 Q224.514 324.462 224.514 331.591 Q224.514 338.698 226.32 342.263 Q228.148 345.804 231.76 345.804 Q235.394 345.804 237.199 342.263 Q239.028 338.698 239.028 331.591 Q239.028 324.462 237.199 320.92 Q235.394 317.355 231.76 317.355 M231.76 313.652 Q237.57 313.652 240.625 318.258 Q243.704 322.842 243.704 331.591 Q243.704 340.318 240.625 344.925 Q237.57 349.508 231.76 349.508 Q225.949 349.508 222.871 344.925 Q219.815 340.318 219.815 331.591 Q219.815 322.842 222.871 318.258 Q225.949 313.652 231.76 313.652 Z" fill="#000000" fill-rule="nonzero" fill-opacity="1" /><path clip-path="url(#clip620)" d="M251.968 314.277 L270.324 314.277 L270.324 318.212 L256.25 318.212 L256.25 326.684 Q257.269 326.337 258.287 326.175 Q259.306 325.99 260.324 325.99 Q266.111 325.99 269.491 329.161 Q272.87 332.332 272.87 337.749 Q272.87 343.328 269.398 346.429 Q265.926 349.508 259.607 349.508 Q257.431 349.508 255.162 349.138 Q252.917 348.767 250.509 348.027 L250.509 343.328 Q252.593 344.462 254.815 345.017 Q257.037 345.573 259.514 345.573 Q263.519 345.573 265.857 343.466 Q268.195 341.36 268.195 337.749 Q268.195 334.138 265.857 332.031 Q263.519 329.925 259.514 329.925 Q257.639 329.925 255.764 330.341 Q253.912 330.758 251.968 331.638 L251.968 314.277 Z" fill="#000000" fill-rule="nonzero" fill-opacity="1" /><path clip-path="url(#clip620)" d="M292.083 317.355 Q288.472 317.355 286.643 320.92 Q284.838 324.462 284.838 331.591 Q284.838 338.698 286.643 342.263 Q288.472 345.804 292.083 345.804 Q295.718 345.804 297.523 342.263 Q299.352 338.698 299.352 331.591 Q299.352 324.462 297.523 320.92 Q295.718 317.355 292.083 317.355 M292.083 313.652 Q297.893 313.652 300.949 318.258 Q304.028 322.842 304.028 331.591 Q304.028 340.318 300.949 344.925 Q297.893 349.508 292.083 349.508 Q286.273 349.508 283.194 344.925 Q280.139 340.318 280.139 331.591 Q280.139 322.842 283.194 318.258 Q286.273 313.652 292.083 313.652 Z" fill="#000000" fill-rule="nonzero" fill-opacity="1" /><path clip-path="url(#clip620)" d="M33.7671 788.508 L14.479 788.508 L14.479 782.652 L64.0042 782.652 L64.0042 788.508 L58.657 788.508 Q61.8398 790.354 63.3994 793.187 Q64.9272 795.988 64.9272 799.935 Q64.9272 806.396 59.771 810.47 Q54.6147 814.512 46.212 814.512 Q37.8093 814.512 32.6531 810.47 Q27.4968 806.396 27.4968 799.935 Q27.4968 795.988 29.0564 793.187 Q30.5842 790.354 33.7671 788.508 M46.212 808.465 Q52.6732 808.465 56.3653 805.823 Q60.0256 803.149 60.0256 798.502 Q60.0256 793.855 56.3653 791.182 Q52.6732 788.508 46.212 788.508 Q39.7508 788.508 36.0905 791.182 Q32.3984 793.855 32.3984 798.502 Q32.3984 803.149 36.0905 805.823 Q39.7508 808.465 46.212 808.465 Z" fill="#000000" fill-rule="nonzero" fill-opacity="1" /><path clip-path="url(#clip620)" d="M74.8259 743.503 L79.3773 743.503 L79.3773 777.368 L74.8259 777.368 L74.8259 743.503 Z" fill="#000000" fill-rule="nonzero" fill-opacity="1" /><path clip-path="url(#clip620)" d="M28.3562 737.996 L28.3562 732.14 L64.0042 732.14 L64.0042 737.996 L28.3562 737.996 M14.479 737.996 L14.479 732.14 L21.895 732.14 L21.895 737.996 L14.479 737.996 Z" fill="#000000" fill-rule="nonzero" fill-opacity="1" /><path clip-path="url(#clip620)" d="M1046.32 12.096 L1081.08 12.096 L1081.08 18.9825 L1054.5 18.9825 L1054.5 36.8065 L1078.49 36.8065 L1078.49 43.6931 L1054.5 43.6931 L1054.5 72.576 L1046.32 72.576 L1046.32 12.096 Z" fill="#000000" fill-rule="nonzero" fill-opacity="1" /><path clip-path="url(#clip620)" d="M1087.68 27.2059 L1095.13 27.2059 L1095.13 72.576 L1087.68 72.576 L1087.68 27.2059 M1087.68 9.54393 L1095.13 9.54393 L1095.13 18.9825 L1087.68 18.9825 L1087.68 9.54393 Z" fill="#000000" fill-rule="nonzero" fill-opacity="1" /><path clip-path="url(#clip620)" d="M1148.44 45.1919 L1148.44 72.576 L1140.99 72.576 L1140.99 45.4349 Q1140.99 38.994 1138.48 35.7938 Q1135.97 32.5936 1130.94 32.5936 Q1124.91 32.5936 1121.42 36.4419 Q1117.94 40.2903 1117.94 46.9338 L1117.94 72.576 L1110.45 72.576 L1110.45 27.2059 L1117.94 27.2059 L1117.94 34.2544 Q1120.61 30.163 1124.22 28.1376 Q1127.87 26.1121 1132.61 26.1121 Q1140.42 26.1121 1144.43 30.9732 Q1148.44 35.7938 1148.44 45.1919 Z" fill="#000000" fill-rule="nonzero" fill-opacity="1" /><path clip-path="url(#clip620)" d="M1183.93 49.7694 Q1174.9 49.7694 1171.41 51.8354 Q1167.93 53.9013 1167.93 58.8839 Q1167.93 62.8538 1170.52 65.2034 Q1173.15 67.5124 1177.65 67.5124 Q1183.85 67.5124 1187.58 63.1374 Q1191.34 58.7219 1191.34 51.4303 L1191.34 49.7694 L1183.93 49.7694 M1198.8 46.6907 L1198.8 72.576 L1191.34 72.576 L1191.34 65.6895 Q1188.79 69.8214 1184.98 71.8063 Q1181.18 73.7508 1175.67 73.7508 Q1168.7 73.7508 1164.57 69.8619 Q1160.48 65.9325 1160.48 59.3701 Q1160.48 51.7138 1165.58 47.825 Q1170.72 43.9361 1180.89 43.9361 L1191.34 43.9361 L1191.34 43.2069 Q1191.34 38.0623 1187.94 35.2672 Q1184.58 32.4315 1178.46 32.4315 Q1174.57 32.4315 1170.89 33.3632 Q1167.2 34.295 1163.8 36.1584 L1163.8 29.2718 Q1167.89 27.692 1171.74 26.9223 Q1175.59 26.1121 1179.23 26.1121 Q1189.07 26.1121 1193.94 31.2163 Q1198.8 36.3204 1198.8 46.6907 Z" fill="#000000" fill-rule="nonzero" fill-opacity="1" /><path clip-path="url(#clip620)" d="M1214.15 9.54393 L1221.6 9.54393 L1221.6 72.576 L1214.15 72.576 L1214.15 9.54393 Z" fill="#000000" fill-rule="nonzero" fill-opacity="1" /><path clip-path="url(#clip620)" d="M1293.43 34.0924 L1293.43 9.54393 L1300.88 9.54393 L1300.88 72.576 L1293.43 72.576 L1293.43 65.7705 Q1291.08 69.8214 1287.47 71.8063 Q1283.91 73.7508 1278.88 73.7508 Q1270.66 73.7508 1265.47 67.1883 Q1260.33 60.6258 1260.33 49.9314 Q1260.33 39.2371 1265.47 32.6746 Q1270.66 26.1121 1278.88 26.1121 Q1283.91 26.1121 1287.47 28.0971 Q1291.08 30.0415 1293.43 34.0924 M1268.03 49.9314 Q1268.03 58.1548 1271.39 62.8538 Q1274.79 67.5124 1280.71 67.5124 Q1286.62 67.5124 1290.02 62.8538 Q1293.43 58.1548 1293.43 49.9314 Q1293.43 41.7081 1290.02 37.0496 Q1286.62 32.3505 1280.71 32.3505 Q1274.79 32.3505 1271.39 37.0496 Q1268.03 41.7081 1268.03 49.9314 Z" fill="#000000" fill-rule="nonzero" fill-opacity="1" /><path clip-path="url(#clip620)" d="M1316.23 27.2059 L1323.69 27.2059 L1323.69 72.576 L1316.23 72.576 L1316.23 27.2059 M1316.23 9.54393 L1323.69 9.54393 L1323.69 18.9825 L1316.23 18.9825 L1316.23 9.54393 Z" fill="#000000" fill-rule="nonzero" fill-opacity="1" /><path clip-path="url(#clip620)" d="M1368.21 28.5427 L1368.21 35.5912 Q1365.05 33.9709 1361.64 33.1607 Q1358.24 32.3505 1354.59 32.3505 Q1349.05 32.3505 1346.25 34.0519 Q1343.5 35.7533 1343.5 39.156 Q1343.5 41.7486 1345.48 43.2475 Q1347.47 44.7058 1353.46 46.0426 L1356.01 46.6097 Q1363.95 48.3111 1367.27 51.4303 Q1370.64 54.509 1370.64 60.0587 Q1370.64 66.3781 1365.61 70.0644 Q1360.63 73.7508 1351.88 73.7508 Q1348.23 73.7508 1344.27 73.0216 Q1340.34 72.3329 1335.96 70.9151 L1335.96 63.2184 Q1340.09 65.3654 1344.1 66.4591 Q1348.11 67.5124 1352.04 67.5124 Q1357.31 67.5124 1360.14 65.73 Q1362.98 63.9071 1362.98 60.6258 Q1362.98 57.5877 1360.91 55.9673 Q1358.89 54.3469 1351.96 52.8481 L1349.37 52.2405 Q1342.44 50.7821 1339.36 47.7845 Q1336.28 44.7463 1336.28 39.4801 Q1336.28 33.0797 1340.82 29.5959 Q1345.36 26.1121 1353.7 26.1121 Q1357.84 26.1121 1361.48 26.7198 Q1365.13 27.3274 1368.21 28.5427 Z" fill="#000000" fill-rule="nonzero" fill-opacity="1" /><path clip-path="url(#clip620)" d="M1389.88 14.324 L1389.88 27.2059 L1405.23 27.2059 L1405.23 32.9987 L1389.88 32.9987 L1389.88 57.6282 Q1389.88 63.1779 1391.38 64.7578 Q1392.92 66.3376 1397.57 66.3376 L1405.23 66.3376 L1405.23 72.576 L1397.57 72.576 Q1388.95 72.576 1385.67 69.3758 Q1382.38 66.1351 1382.38 57.6282 L1382.38 32.9987 L1376.92 32.9987 L1376.92 27.2059 L1382.38 27.2059 L1382.38 14.324 L1389.88 14.324 Z" fill="#000000" fill-rule="nonzero" fill-opacity="1" /><path clip-path="url(#clip620)" d="M1435.65 49.7694 Q1426.62 49.7694 1423.14 51.8354 Q1419.65 53.9013 1419.65 58.8839 Q1419.65 62.8538 1422.24 65.2034 Q1424.88 67.5124 1429.37 67.5124 Q1435.57 67.5124 1439.3 63.1374 Q1443.07 58.7219 1443.07 51.4303 L1443.07 49.7694 L1435.65 49.7694 M1450.52 46.6907 L1450.52 72.576 L1443.07 72.576 L1443.07 65.6895 Q1440.51 69.8214 1436.71 71.8063 Q1432.9 73.7508 1427.39 73.7508 Q1420.42 73.7508 1416.29 69.8619 Q1412.2 65.9325 1412.2 59.3701 Q1412.2 51.7138 1417.3 47.825 Q1422.45 43.9361 1432.62 43.9361 L1443.07 43.9361 L1443.07 43.2069 Q1443.07 38.0623 1439.66 35.2672 Q1436.3 32.4315 1430.18 32.4315 Q1426.3 32.4315 1422.61 33.3632 Q1418.92 34.295 1415.52 36.1584 L1415.52 29.2718 Q1419.61 27.692 1423.46 26.9223 Q1427.31 26.1121 1430.95 26.1121 Q1440.8 26.1121 1445.66 31.2163 Q1450.52 36.3204 1450.52 46.6907 Z" fill="#000000" fill-rule="nonzero" fill-opacity="1" /><path clip-path="url(#clip620)" d="M1503.59 45.1919 L1503.59 72.576 L1496.13 72.576 L1496.13 45.4349 Q1496.13 38.994 1493.62 35.7938 Q1491.11 32.5936 1486.09 32.5936 Q1480.05 32.5936 1476.57 36.4419 Q1473.08 40.2903 1473.08 46.9338 L1473.08 72.576 L1465.59 72.576 L1465.59 27.2059 L1473.08 27.2059 L1473.08 34.2544 Q1475.76 30.163 1479.36 28.1376 Q1483.01 26.1121 1487.75 26.1121 Q1495.57 26.1121 1499.58 30.9732 Q1503.59 35.7938 1503.59 45.1919 Z" fill="#000000" fill-rule="nonzero" fill-opacity="1" /><path clip-path="url(#clip620)" d="M1551.1 28.9478 L1551.1 35.9153 Q1547.94 34.1734 1544.74 33.3227 Q1541.58 32.4315 1538.34 32.4315 Q1531.09 32.4315 1527.08 37.0496 Q1523.07 41.6271 1523.07 49.9314 Q1523.07 58.2358 1527.08 62.8538 Q1531.09 67.4314 1538.34 67.4314 Q1541.58 67.4314 1544.74 66.5807 Q1547.94 65.6895 1551.1 63.9476 L1551.1 70.8341 Q1547.99 72.2924 1544.62 73.0216 Q1541.3 73.7508 1537.53 73.7508 Q1527.28 73.7508 1521.25 67.3098 Q1515.21 60.8689 1515.21 49.9314 Q1515.21 38.832 1521.29 32.472 Q1527.41 26.1121 1538.02 26.1121 Q1541.46 26.1121 1544.74 26.8413 Q1548.03 27.5299 1551.1 28.9478 Z" fill="#000000" fill-rule="nonzero" fill-opacity="1" /><path clip-path="url(#clip620)" d="M1602.87 48.0275 L1602.87 51.6733 L1568.6 51.6733 Q1569.09 59.3701 1573.22 63.421 Q1577.39 67.4314 1584.81 67.4314 Q1589.1 67.4314 1593.11 66.3781 Q1597.16 65.3249 1601.13 63.2184 L1601.13 70.267 Q1597.12 71.9684 1592.91 72.8596 Q1588.7 73.7508 1584.36 73.7508 Q1573.51 73.7508 1567.15 67.4314 Q1560.83 61.1119 1560.83 50.3365 Q1560.83 39.1965 1566.82 32.6746 Q1572.86 26.1121 1583.07 26.1121 Q1592.22 26.1121 1597.53 32.0264 Q1602.87 37.9003 1602.87 48.0275 M1595.42 45.84 Q1595.34 39.7232 1591.98 36.0774 Q1588.66 32.4315 1583.15 32.4315 Q1576.91 32.4315 1573.14 35.9558 Q1569.41 39.4801 1568.85 45.8805 L1595.42 45.84 Z" fill="#000000" fill-rule="nonzero" fill-opacity="1" /><path clip-path="url(#clip620)" d="M1644.03 28.5427 L1644.03 35.5912 Q1640.87 33.9709 1637.47 33.1607 Q1634.07 32.3505 1630.42 32.3505 Q1624.87 32.3505 1622.08 34.0519 Q1619.32 35.7533 1619.32 39.156 Q1619.32 41.7486 1621.31 43.2475 Q1623.29 44.7058 1629.29 46.0426 L1631.84 46.6097 Q1639.78 48.3111 1643.1 51.4303 Q1646.46 54.509 1646.46 60.0587 Q1646.46 66.3781 1641.44 70.0644 Q1636.46 73.7508 1627.71 73.7508 Q1624.06 73.7508 1620.09 73.0216 Q1616.16 72.3329 1611.79 70.9151 L1611.79 63.2184 Q1615.92 65.3654 1619.93 66.4591 Q1623.94 67.5124 1627.87 67.5124 Q1633.14 67.5124 1635.97 65.73 Q1638.81 63.9071 1638.81 60.6258 Q1638.81 57.5877 1636.74 55.9673 Q1634.71 54.3469 1627.79 52.8481 L1625.2 52.2405 Q1618.27 50.7821 1615.19 47.7845 Q1612.11 44.7463 1612.11 39.4801 Q1612.11 33.0797 1616.65 29.5959 Q1621.18 26.1121 1629.53 26.1121 Q1633.66 26.1121 1637.31 26.7198 Q1640.95 27.3274 1644.03 28.5427 Z" fill="#000000" fill-rule="nonzero" fill-opacity="1" /><circle clip-path="url(#clip622)" cx="396.992" cy="1386.4" r="14.4" fill="#009af9" fill-rule="evenodd" fill-opacity="1" stroke="#000000" stroke-opacity="1" stroke-width="3.2"/>
<circle clip-path="url(#clip622)" cx="607.969" cy="671.033" r="14.4" fill="#009af9" fill-rule="evenodd" fill-opacity="1" stroke="#000000" stroke-opacity="1" stroke-width="3.2"/>
<circle clip-path="url(#clip622)" cx="818.947" cy="605.381" r="14.4" fill="#009af9" fill-rule="evenodd" fill-opacity="1" stroke="#000000" stroke-opacity="1" stroke-width="3.2"/>
<circle clip-path="url(#clip622)" cx="1029.93" cy="517.223" r="14.4" fill="#009af9" fill-rule="evenodd" fill-opacity="1" stroke="#000000" stroke-opacity="1" stroke-width="3.2"/>
<circle clip-path="url(#clip622)" cx="1240.9" cy="395.641" r="14.4" fill="#009af9" fill-rule="evenodd" fill-opacity="1" stroke="#000000" stroke-opacity="1" stroke-width="3.2"/>
<circle clip-path="url(#clip622)" cx="1451.88" cy="160.256" r="14.4" fill="#009af9" fill-rule="evenodd" fill-opacity="1" stroke="#000000" stroke-opacity="1" stroke-width="3.2"/>
<circle clip-path="url(#clip622)" cx="1662.86" cy="300.11" r="14.4" fill="#009af9" fill-rule="evenodd" fill-opacity="1" stroke="#000000" stroke-opacity="1" stroke-width="3.2"/>
<circle clip-path="url(#clip622)" cx="1873.84" cy="561.367" r="14.4" fill="#009af9" fill-rule="evenodd" fill-opacity="1" stroke="#000000" stroke-opacity="1" stroke-width="3.2"/>
<circle clip-path="url(#clip622)" cx="2084.81" cy="1098.21" r="14.4" fill="#009af9" fill-rule="evenodd" fill-opacity="1" stroke="#000000" stroke-opacity="1" stroke-width="3.2"/>
<circle clip-path="url(#clip622)" cx="2295.79" cy="724.957" r="14.4" fill="#009af9" fill-rule="evenodd" fill-opacity="1" stroke="#000000" stroke-opacity="1" stroke-width="3.2"/>
</svg>
