<?xml version="1.0" encoding="utf-8"?>
<svg xmlns="http://www.w3.org/2000/svg" xmlns:xlink="http://www.w3.org/1999/xlink" width="600" height="400" viewBox="0 0 2400 1600">
<defs>
  <clipPath id="clip120">
    <rect x="0" y="0" width="2400" height="1600"/>
  </clipPath>
</defs>
<path clip-path="url(#clip120)" d="M0 1600 L2400 1600 L2400 0 L0 0  Z" fill="#ffffff" fill-rule="evenodd" fill-opacity="1"/>
<defs>
  <clipPath id="clip121">
    <rect x="480" y="0" width="1681" height="1600"/>
  </clipPath>
</defs>
<path clip-path="url(#clip120)" d="M262.551 1423.18 L2352.76 1423.18 L2352.76 47.2441 L262.551 47.2441  Z" fill="#ffffff" fill-rule="evenodd" fill-opacity="1"/>
<defs>
  <clipPath id="clip122">
    <rect x="262" y="47" width="2091" height="1377"/>
  </clipPath>
</defs>
<polyline clip-path="url(#clip122)" style="stroke:#000000; stroke-linecap:round; stroke-linejoin:round; stroke-width:2; stroke-opacity:0.1; fill:none" points="321.708,1423.18 321.708,47.2441 "/>
<polyline clip-path="url(#clip122)" style="stroke:#000000; stroke-linecap:round; stroke-linejoin:round; stroke-width:2; stroke-opacity:0.1; fill:none" points="814.681,1423.18 814.681,47.2441 "/>
<polyline clip-path="url(#clip122)" style="stroke:#000000; stroke-linecap:round; stroke-linejoin:round; stroke-width:2; stroke-opacity:0.1; fill:none" points="1307.65,1423.18 1307.65,47.2441 "/>
<polyline clip-path="url(#clip122)" style="stroke:#000000; stroke-linecap:round; stroke-linejoin:round; stroke-width:2; stroke-opacity:0.1; fill:none" points="1800.63,1423.18 1800.63,47.2441 "/>
<polyline clip-path="url(#clip122)" style="stroke:#000000; stroke-linecap:round; stroke-linejoin:round; stroke-width:2; stroke-opacity:0.1; fill:none" points="2293.6,1423.18 2293.6,47.2441 "/>
<polyline clip-path="url(#clip122)" style="stroke:#000000; stroke-linecap:round; stroke-linejoin:round; stroke-width:2; stroke-opacity:0.1; fill:none" points="262.551,1206.91 2352.76,1206.91 "/>
<polyline clip-path="url(#clip122)" style="stroke:#000000; stroke-linecap:round; stroke-linejoin:round; stroke-width:2; stroke-opacity:0.1; fill:none" points="262.551,936.96 2352.76,936.96 "/>
<polyline clip-path="url(#clip122)" style="stroke:#000000; stroke-linecap:round; stroke-linejoin:round; stroke-width:2; stroke-opacity:0.1; fill:none" points="262.551,667.011 2352.76,667.011 "/>
<polyline clip-path="url(#clip122)" style="stroke:#000000; stroke-linecap:round; stroke-linejoin:round; stroke-width:2; stroke-opacity:0.1; fill:none" points="262.551,397.063 2352.76,397.063 "/>
<polyline clip-path="url(#clip122)" style="stroke:#000000; stroke-linecap:round; stroke-linejoin:round; stroke-width:2; stroke-opacity:0.1; fill:none" points="262.551,127.115 2352.76,127.115 "/>
<polyline clip-path="url(#clip120)" style="stroke:#000000; stroke-linecap:round; stroke-linejoin:round; stroke-width:4; stroke-opacity:1; fill:none" points="262.551,1423.18 2352.76,1423.18 "/>
<polyline clip-path="url(#clip120)" style="stroke:#000000; stroke-linecap:round; stroke-linejoin:round; stroke-width:4; stroke-opacity:1; fill:none" points="321.708,1423.18 321.708,1404.28 "/>
<polyline clip-path="url(#clip120)" style="stroke:#000000; stroke-linecap:round; stroke-linejoin:round; stroke-width:4; stroke-opacity:1; fill:none" points="814.681,1423.18 814.681,1404.28 "/>
<polyline clip-path="url(#clip120)" style="stroke:#000000; stroke-linecap:round; stroke-linejoin:round; stroke-width:4; stroke-opacity:1; fill:none" points="1307.65,1423.18 1307.65,1404.28 "/>
<polyline clip-path="url(#clip120)" style="stroke:#000000; stroke-linecap:round; stroke-linejoin:round; stroke-width:4; stroke-opacity:1; fill:none" points="1800.63,1423.18 1800.63,1404.28 "/>
<polyline clip-path="url(#clip120)" style="stroke:#000000; stroke-linecap:round; stroke-linejoin:round; stroke-width:4; stroke-opacity:1; fill:none" points="2293.6,1423.18 2293.6,1404.28 "/>
<path clip-path="url(#clip120)" d="M258.699 1481.64 L266.338 1481.64 L266.338 1455.28 L258.028 1456.95 L258.028 1452.69 L266.292 1451.02 L270.967 1451.02 L270.967 1481.64 L278.606 1481.64 L278.606 1485.58 L258.699 1485.58 L258.699 1481.64 Z" fill="#000000" fill-rule="nonzero" fill-opacity="1" /><path clip-path="url(#clip120)" d="M286.87 1451.02 L309.092 1451.02 L309.092 1453.01 L296.546 1485.58 L291.662 1485.58 L303.467 1454.96 L286.87 1454.96 L286.87 1451.02 Z" fill="#000000" fill-rule="nonzero" fill-opacity="1" /><path clip-path="url(#clip120)" d="M318.213 1479.7 L323.097 1479.7 L323.097 1485.58 L318.213 1485.58 L318.213 1479.7 Z" fill="#000000" fill-rule="nonzero" fill-opacity="1" /><path clip-path="url(#clip120)" d="M333.421 1484.86 L333.421 1480.6 Q335.18 1481.44 336.986 1481.88 Q338.791 1482.32 340.527 1482.32 Q345.157 1482.32 347.587 1479.21 Q350.041 1476.09 350.388 1469.75 Q349.046 1471.74 346.986 1472.8 Q344.925 1473.87 342.425 1473.87 Q337.24 1473.87 334.208 1470.74 Q331.199 1467.59 331.199 1462.15 Q331.199 1456.83 334.347 1453.61 Q337.495 1450.39 342.726 1450.39 Q348.722 1450.39 351.87 1455 Q355.041 1459.58 355.041 1468.33 Q355.041 1476.51 351.152 1481.39 Q347.287 1486.25 340.736 1486.25 Q338.976 1486.25 337.171 1485.9 Q335.365 1485.56 333.421 1484.86 M342.726 1470.21 Q345.874 1470.21 347.703 1468.06 Q349.555 1465.9 349.555 1462.15 Q349.555 1458.43 347.703 1456.27 Q345.874 1454.1 342.726 1454.1 Q339.578 1454.1 337.726 1456.27 Q335.898 1458.43 335.898 1462.15 Q335.898 1465.9 337.726 1468.06 Q339.578 1470.21 342.726 1470.21 Z" fill="#000000" fill-rule="nonzero" fill-opacity="1" /><path clip-path="url(#clip120)" d="M373.444 1454.1 Q369.833 1454.1 368.004 1457.66 Q366.198 1461.2 366.198 1468.33 Q366.198 1475.44 368.004 1479.01 Q369.833 1482.55 373.444 1482.55 Q377.078 1482.55 378.884 1479.01 Q380.712 1475.44 380.712 1468.33 Q380.712 1461.2 378.884 1457.66 Q377.078 1454.1 373.444 1454.1 M373.444 1450.39 Q379.254 1450.39 382.309 1455 Q385.388 1459.58 385.388 1468.33 Q385.388 1477.06 382.309 1481.67 Q379.254 1486.25 373.444 1486.25 Q367.634 1486.25 364.555 1481.67 Q361.499 1477.06 361.499 1468.33 Q361.499 1459.58 364.555 1455 Q367.634 1450.39 373.444 1450.39 Z" fill="#000000" fill-rule="nonzero" fill-opacity="1" /><path clip-path="url(#clip120)" d="M752.17 1481.64 L759.808 1481.64 L759.808 1455.28 L751.498 1456.95 L751.498 1452.69 L759.762 1451.02 L764.438 1451.02 L764.438 1481.64 L772.077 1481.64 L772.077 1485.58 L752.17 1485.58 L752.17 1481.64 Z" fill="#000000" fill-rule="nonzero" fill-opacity="1" /><path clip-path="url(#clip120)" d="M780.341 1451.02 L802.563 1451.02 L802.563 1453.01 L790.017 1485.58 L785.132 1485.58 L796.938 1454.96 L780.341 1454.96 L780.341 1451.02 Z" fill="#000000" fill-rule="nonzero" fill-opacity="1" /><path clip-path="url(#clip120)" d="M811.683 1479.7 L816.567 1479.7 L816.567 1485.58 L811.683 1485.58 L811.683 1479.7 Z" fill="#000000" fill-rule="nonzero" fill-opacity="1" /><path clip-path="url(#clip120)" d="M826.891 1484.86 L826.891 1480.6 Q828.651 1481.44 830.456 1481.88 Q832.262 1482.32 833.998 1482.32 Q838.627 1482.32 841.058 1479.21 Q843.512 1476.09 843.859 1469.75 Q842.516 1471.74 840.456 1472.8 Q838.396 1473.87 835.896 1473.87 Q830.711 1473.87 827.678 1470.74 Q824.669 1467.59 824.669 1462.15 Q824.669 1456.83 827.817 1453.61 Q830.965 1450.39 836.197 1450.39 Q842.192 1450.39 845.34 1455 Q848.512 1459.58 848.512 1468.33 Q848.512 1476.51 844.623 1481.39 Q840.757 1486.25 834.206 1486.25 Q832.447 1486.25 830.641 1485.9 Q828.836 1485.56 826.891 1484.86 M836.197 1470.21 Q839.345 1470.21 841.174 1468.06 Q843.026 1465.9 843.026 1462.15 Q843.026 1458.43 841.174 1456.27 Q839.345 1454.1 836.197 1454.1 Q833.049 1454.1 831.197 1456.27 Q829.368 1458.43 829.368 1462.15 Q829.368 1465.9 831.197 1468.06 Q833.049 1470.21 836.197 1470.21 Z" fill="#000000" fill-rule="nonzero" fill-opacity="1" /><path clip-path="url(#clip120)" d="M856.961 1451.02 L875.317 1451.02 L875.317 1454.96 L861.243 1454.96 L861.243 1463.43 Q862.262 1463.08 863.28 1462.92 Q864.299 1462.73 865.317 1462.73 Q871.104 1462.73 874.484 1465.9 Q877.863 1469.08 877.863 1474.49 Q877.863 1480.07 874.391 1483.17 Q870.919 1486.25 864.599 1486.25 Q862.424 1486.25 860.155 1485.88 Q857.91 1485.51 855.502 1484.77 L855.502 1480.07 Q857.586 1481.2 859.808 1481.76 Q862.03 1482.32 864.507 1482.32 Q868.511 1482.32 870.849 1480.21 Q873.187 1478.1 873.187 1474.49 Q873.187 1470.88 870.849 1468.77 Q868.511 1466.67 864.507 1466.67 Q862.632 1466.67 860.757 1467.08 Q858.905 1467.5 856.961 1468.38 L856.961 1451.02 Z" fill="#000000" fill-rule="nonzero" fill-opacity="1" /><path clip-path="url(#clip120)" d="M1244.64 1481.64 L1252.28 1481.64 L1252.28 1455.28 L1243.97 1456.95 L1243.97 1452.69 L1252.24 1451.02 L1256.91 1451.02 L1256.91 1481.64 L1264.55 1481.64 L1264.55 1485.58 L1244.64 1485.58 L1244.64 1481.64 Z" fill="#000000" fill-rule="nonzero" fill-opacity="1" /><path clip-path="url(#clip120)" d="M1284 1469.17 Q1280.66 1469.17 1278.74 1470.95 Q1276.84 1472.73 1276.84 1475.86 Q1276.84 1478.98 1278.74 1480.77 Q1280.66 1482.55 1284 1482.55 Q1287.33 1482.55 1289.25 1480.77 Q1291.17 1478.96 1291.17 1475.86 Q1291.17 1472.73 1289.25 1470.95 Q1287.35 1469.17 1284 1469.17 M1279.32 1467.18 Q1276.31 1466.44 1274.62 1464.38 Q1272.95 1462.32 1272.95 1459.35 Q1272.95 1455.21 1275.89 1452.8 Q1278.86 1450.39 1284 1450.39 Q1289.16 1450.39 1292.1 1452.8 Q1295.04 1455.21 1295.04 1459.35 Q1295.04 1462.32 1293.35 1464.38 Q1291.68 1466.44 1288.7 1467.18 Q1292.07 1467.96 1293.95 1470.26 Q1295.85 1472.55 1295.85 1475.86 Q1295.85 1480.88 1292.77 1483.57 Q1289.71 1486.25 1284 1486.25 Q1278.28 1486.25 1275.2 1483.57 Q1272.14 1480.88 1272.14 1475.86 Q1272.14 1472.55 1274.04 1470.26 Q1275.94 1467.96 1279.32 1467.18 M1277.61 1459.79 Q1277.61 1462.48 1279.27 1463.98 Q1280.96 1465.49 1284 1465.49 Q1287.01 1465.49 1288.7 1463.98 Q1290.41 1462.48 1290.41 1459.79 Q1290.41 1457.11 1288.7 1455.6 Q1287.01 1454.1 1284 1454.1 Q1280.96 1454.1 1279.27 1455.6 Q1277.61 1457.11 1277.61 1459.79 Z" fill="#000000" fill-rule="nonzero" fill-opacity="1" /><path clip-path="url(#clip120)" d="M1304.16 1479.7 L1309.04 1479.7 L1309.04 1485.58 L1304.16 1485.58 L1304.16 1479.7 Z" fill="#000000" fill-rule="nonzero" fill-opacity="1" /><path clip-path="url(#clip120)" d="M1329.23 1454.1 Q1325.62 1454.1 1323.79 1457.66 Q1321.98 1461.2 1321.98 1468.33 Q1321.98 1475.44 1323.79 1479.01 Q1325.62 1482.55 1329.23 1482.55 Q1332.86 1482.55 1334.67 1479.01 Q1336.5 1475.44 1336.5 1468.33 Q1336.5 1461.2 1334.67 1457.66 Q1332.86 1454.1 1329.23 1454.1 M1329.23 1450.39 Q1335.04 1450.39 1338.09 1455 Q1341.17 1459.58 1341.17 1468.33 Q1341.17 1477.06 1338.09 1481.67 Q1335.04 1486.25 1329.23 1486.25 Q1323.42 1486.25 1320.34 1481.67 Q1317.28 1477.06 1317.28 1468.33 Q1317.28 1459.58 1320.34 1455 Q1323.42 1450.39 1329.23 1450.39 Z" fill="#000000" fill-rule="nonzero" fill-opacity="1" /><path clip-path="url(#clip120)" d="M1359.39 1454.1 Q1355.78 1454.1 1353.95 1457.66 Q1352.14 1461.2 1352.14 1468.33 Q1352.14 1475.44 1353.95 1479.01 Q1355.78 1482.55 1359.39 1482.55 Q1363.02 1482.55 1364.83 1479.01 Q1366.66 1475.44 1366.66 1468.33 Q1366.66 1461.2 1364.83 1457.66 Q1363.02 1454.1 1359.39 1454.1 M1359.39 1450.39 Q1365.2 1450.39 1368.26 1455 Q1371.33 1459.58 1371.33 1468.33 Q1371.33 1477.06 1368.26 1481.67 Q1365.2 1486.25 1359.39 1486.25 Q1353.58 1486.25 1350.5 1481.67 Q1347.45 1477.06 1347.45 1468.33 Q1347.45 1459.58 1350.5 1455 Q1353.58 1450.39 1359.39 1450.39 Z" fill="#000000" fill-rule="nonzero" fill-opacity="1" /><path clip-path="url(#clip120)" d="M1738.12 1481.64 L1745.75 1481.64 L1745.75 1455.28 L1737.44 1456.95 L1737.44 1452.69 L1745.71 1451.02 L1750.38 1451.02 L1750.38 1481.64 L1758.02 1481.64 L1758.02 1485.58 L1738.12 1485.58 L1738.12 1481.64 Z" fill="#000000" fill-rule="nonzero" fill-opacity="1" /><path clip-path="url(#clip120)" d="M1777.47 1469.17 Q1774.13 1469.17 1772.21 1470.95 Q1770.31 1472.73 1770.31 1475.86 Q1770.31 1478.98 1772.21 1480.77 Q1774.13 1482.55 1777.47 1482.55 Q1780.8 1482.55 1782.72 1480.77 Q1784.64 1478.96 1784.64 1475.86 Q1784.64 1472.73 1782.72 1470.95 Q1780.82 1469.17 1777.47 1469.17 M1772.79 1467.18 Q1769.78 1466.44 1768.09 1464.38 Q1766.43 1462.32 1766.43 1459.35 Q1766.43 1455.21 1769.36 1452.8 Q1772.33 1450.39 1777.47 1450.39 Q1782.63 1450.39 1785.57 1452.8 Q1788.51 1455.21 1788.51 1459.35 Q1788.51 1462.32 1786.82 1464.38 Q1785.15 1466.44 1782.17 1467.18 Q1785.55 1467.96 1787.42 1470.26 Q1789.32 1472.55 1789.32 1475.86 Q1789.32 1480.88 1786.24 1483.57 Q1783.18 1486.25 1777.47 1486.25 Q1771.75 1486.25 1768.67 1483.57 Q1765.61 1480.88 1765.61 1475.86 Q1765.61 1472.55 1767.51 1470.26 Q1769.41 1467.96 1772.79 1467.18 M1771.08 1459.79 Q1771.08 1462.48 1772.74 1463.98 Q1774.43 1465.49 1777.47 1465.49 Q1780.48 1465.49 1782.17 1463.98 Q1783.88 1462.48 1783.88 1459.79 Q1783.88 1457.11 1782.17 1455.6 Q1780.48 1454.1 1777.47 1454.1 Q1774.43 1454.1 1772.74 1455.6 Q1771.08 1457.11 1771.08 1459.79 Z" fill="#000000" fill-rule="nonzero" fill-opacity="1" /><path clip-path="url(#clip120)" d="M1797.63 1479.7 L1802.51 1479.7 L1802.51 1485.58 L1797.63 1485.58 L1797.63 1479.7 Z" fill="#000000" fill-rule="nonzero" fill-opacity="1" /><path clip-path="url(#clip120)" d="M1822.7 1454.1 Q1819.09 1454.1 1817.26 1457.66 Q1815.45 1461.2 1815.45 1468.33 Q1815.45 1475.44 1817.26 1479.01 Q1819.09 1482.55 1822.7 1482.55 Q1826.33 1482.55 1828.14 1479.01 Q1829.97 1475.44 1829.97 1468.33 Q1829.97 1461.2 1828.14 1457.66 Q1826.33 1454.1 1822.7 1454.1 M1822.7 1450.39 Q1828.51 1450.39 1831.56 1455 Q1834.64 1459.58 1834.64 1468.33 Q1834.64 1477.06 1831.56 1481.67 Q1828.51 1486.25 1822.7 1486.25 Q1816.89 1486.25 1813.81 1481.67 Q1810.75 1477.06 1810.75 1468.33 Q1810.75 1459.58 1813.81 1455 Q1816.89 1450.39 1822.7 1450.39 Z" fill="#000000" fill-rule="nonzero" fill-opacity="1" /><path clip-path="url(#clip120)" d="M1842.91 1451.02 L1861.26 1451.02 L1861.26 1454.96 L1847.19 1454.96 L1847.19 1463.43 Q1848.21 1463.08 1849.23 1462.92 Q1850.24 1462.73 1851.26 1462.73 Q1857.05 1462.73 1860.43 1465.9 Q1863.81 1469.08 1863.81 1474.49 Q1863.81 1480.07 1860.34 1483.17 Q1856.86 1486.25 1850.55 1486.25 Q1848.37 1486.25 1846.1 1485.88 Q1843.86 1485.51 1841.45 1484.77 L1841.45 1480.07 Q1843.53 1481.2 1845.75 1481.76 Q1847.98 1482.32 1850.45 1482.32 Q1854.46 1482.32 1856.8 1480.21 Q1859.13 1478.1 1859.13 1474.49 Q1859.13 1470.88 1856.8 1468.77 Q1854.46 1466.67 1850.45 1466.67 Q1848.58 1466.67 1846.7 1467.08 Q1844.85 1467.5 1842.91 1468.38 L1842.91 1451.02 Z" fill="#000000" fill-rule="nonzero" fill-opacity="1" /><path clip-path="url(#clip120)" d="M2230.59 1481.64 L2238.23 1481.64 L2238.23 1455.28 L2229.92 1456.95 L2229.92 1452.69 L2238.18 1451.02 L2242.86 1451.02 L2242.86 1481.64 L2250.5 1481.64 L2250.5 1485.58 L2230.59 1485.58 L2230.59 1481.64 Z" fill="#000000" fill-rule="nonzero" fill-opacity="1" /><path clip-path="url(#clip120)" d="M2269.94 1469.17 Q2266.61 1469.17 2264.69 1470.95 Q2262.79 1472.73 2262.79 1475.86 Q2262.79 1478.98 2264.69 1480.77 Q2266.61 1482.55 2269.94 1482.55 Q2273.28 1482.55 2275.2 1480.77 Q2277.12 1478.96 2277.12 1475.86 Q2277.12 1472.73 2275.2 1470.95 Q2273.3 1469.17 2269.94 1469.17 M2265.27 1467.18 Q2262.26 1466.44 2260.57 1464.38 Q2258.9 1462.32 2258.9 1459.35 Q2258.9 1455.21 2261.84 1452.8 Q2264.8 1450.39 2269.94 1450.39 Q2275.1 1450.39 2278.04 1452.8 Q2280.98 1455.21 2280.98 1459.35 Q2280.98 1462.32 2279.29 1464.38 Q2277.63 1466.44 2274.64 1467.18 Q2278.02 1467.96 2279.9 1470.26 Q2281.79 1472.55 2281.79 1475.86 Q2281.79 1480.88 2278.71 1483.57 Q2275.66 1486.25 2269.94 1486.25 Q2264.22 1486.25 2261.15 1483.57 Q2258.09 1480.88 2258.09 1475.86 Q2258.09 1472.55 2259.99 1470.26 Q2261.89 1467.96 2265.27 1467.18 M2263.55 1459.79 Q2263.55 1462.48 2265.22 1463.98 Q2266.91 1465.49 2269.94 1465.49 Q2272.95 1465.49 2274.64 1463.98 Q2276.35 1462.48 2276.35 1459.79 Q2276.35 1457.11 2274.64 1455.6 Q2272.95 1454.1 2269.94 1454.1 Q2266.91 1454.1 2265.22 1455.6 Q2263.55 1457.11 2263.55 1459.79 Z" fill="#000000" fill-rule="nonzero" fill-opacity="1" /><path clip-path="url(#clip120)" d="M2290.1 1479.7 L2294.99 1479.7 L2294.99 1485.58 L2290.1 1485.58 L2290.1 1479.7 Z" fill="#000000" fill-rule="nonzero" fill-opacity="1" /><path clip-path="url(#clip120)" d="M2305.98 1481.64 L2313.62 1481.64 L2313.62 1455.28 L2305.31 1456.95 L2305.31 1452.69 L2313.58 1451.02 L2318.25 1451.02 L2318.25 1481.64 L2325.89 1481.64 L2325.89 1485.58 L2305.98 1485.58 L2305.98 1481.64 Z" fill="#000000" fill-rule="nonzero" fill-opacity="1" /><path clip-path="url(#clip120)" d="M2345.34 1454.1 Q2341.72 1454.1 2339.9 1457.66 Q2338.09 1461.2 2338.09 1468.33 Q2338.09 1475.44 2339.9 1479.01 Q2341.72 1482.55 2345.34 1482.55 Q2348.97 1482.55 2350.77 1479.01 Q2352.6 1475.44 2352.6 1468.33 Q2352.6 1461.2 2350.77 1457.66 Q2348.97 1454.1 2345.34 1454.1 M2345.34 1450.39 Q2351.15 1450.39 2354.2 1455 Q2357.28 1459.58 2357.28 1468.33 Q2357.28 1477.06 2354.2 1481.67 Q2351.15 1486.25 2345.34 1486.25 Q2339.52 1486.25 2336.45 1481.67 Q2333.39 1477.06 2333.39 1468.33 Q2333.39 1459.58 2336.45 1455 Q2339.52 1450.39 2345.34 1450.39 Z" fill="#000000" fill-rule="nonzero" fill-opacity="1" /><path clip-path="url(#clip120)" d="M1015.82 1520.52 L1043.13 1520.52 L1043.13 1525.93 L1022.25 1525.93 L1022.25 1539.94 L1041.09 1539.94 L1041.09 1545.35 L1022.25 1545.35 L1022.25 1568.04 L1015.82 1568.04 L1015.82 1520.52 Z" fill="#000000" fill-rule="nonzero" fill-opacity="1" /><path clip-path="url(#clip120)" d="M1068.97 1537.87 Q1067.98 1537.3 1066.81 1537.04 Q1065.66 1536.76 1064.26 1536.76 Q1059.3 1536.76 1056.62 1540 Q1053.98 1543.22 1053.98 1549.27 L1053.98 1568.04 L1048.09 1568.04 L1048.09 1532.4 L1053.98 1532.4 L1053.98 1537.93 Q1055.83 1534.69 1058.79 1533.13 Q1061.75 1531.54 1065.98 1531.54 Q1066.58 1531.54 1067.32 1531.63 Q1068.05 1531.7 1068.94 1531.85 L1068.97 1537.87 Z" fill="#000000" fill-rule="nonzero" fill-opacity="1" /><path clip-path="url(#clip120)" d="M1104.17 1548.76 L1104.17 1551.62 L1077.25 1551.62 Q1077.63 1557.67 1080.88 1560.85 Q1084.15 1564 1089.98 1564 Q1093.35 1564 1096.5 1563.17 Q1099.69 1562.35 1102.81 1560.69 L1102.81 1566.23 Q1099.65 1567.57 1096.34 1568.27 Q1093.03 1568.97 1089.63 1568.97 Q1081.1 1568.97 1076.1 1564 Q1071.14 1559.04 1071.14 1550.57 Q1071.14 1541.82 1075.85 1536.69 Q1080.59 1531.54 1088.61 1531.54 Q1095.8 1531.54 1099.97 1536.18 Q1104.17 1540.8 1104.17 1548.76 M1098.32 1547.04 Q1098.25 1542.23 1095.61 1539.37 Q1093 1536.5 1088.67 1536.5 Q1083.77 1536.5 1080.81 1539.27 Q1077.88 1542.04 1077.44 1547.07 L1098.32 1547.04 Z" fill="#000000" fill-rule="nonzero" fill-opacity="1" /><path clip-path="url(#clip120)" d="M1117.29 1550.25 Q1117.29 1556.71 1119.93 1560.4 Q1122.6 1564.07 1127.25 1564.07 Q1131.9 1564.07 1134.57 1560.4 Q1137.24 1556.71 1137.24 1550.25 Q1137.24 1543.79 1134.57 1540.13 Q1131.9 1536.44 1127.25 1536.44 Q1122.6 1536.44 1119.93 1540.13 Q1117.29 1543.79 1117.29 1550.25 M1137.24 1562.7 Q1135.4 1565.88 1132.56 1567.44 Q1129.76 1568.97 1125.82 1568.97 Q1119.36 1568.97 1115.28 1563.81 Q1111.24 1558.65 1111.24 1550.25 Q1111.24 1541.85 1115.28 1536.69 Q1119.36 1531.54 1125.82 1531.54 Q1129.76 1531.54 1132.56 1533.1 Q1135.4 1534.62 1137.24 1537.81 L1137.24 1532.4 L1143.1 1532.4 L1143.1 1581.6 L1137.24 1581.6 L1137.24 1562.7 Z" fill="#000000" fill-rule="nonzero" fill-opacity="1" /><path clip-path="url(#clip120)" d="M1154.56 1553.98 L1154.56 1532.4 L1160.41 1532.4 L1160.41 1553.75 Q1160.41 1558.81 1162.39 1561.36 Q1164.36 1563.87 1168.31 1563.87 Q1173.05 1563.87 1175.79 1560.85 Q1178.56 1557.83 1178.56 1552.61 L1178.56 1532.4 L1184.41 1532.4 L1184.41 1568.04 L1178.56 1568.04 L1178.56 1562.57 Q1176.42 1565.82 1173.59 1567.41 Q1170.79 1568.97 1167.07 1568.97 Q1160.92 1568.97 1157.74 1565.15 Q1154.56 1561.33 1154.56 1553.98 M1169.29 1531.54 L1169.29 1531.54 Z" fill="#000000" fill-rule="nonzero" fill-opacity="1" /><path clip-path="url(#clip120)" d="M1226.97 1548.76 L1226.97 1551.62 L1200.04 1551.62 Q1200.42 1557.67 1203.67 1560.85 Q1206.95 1564 1212.77 1564 Q1216.15 1564 1219.3 1563.17 Q1222.48 1562.35 1225.6 1560.69 L1225.6 1566.23 Q1222.45 1567.57 1219.14 1568.27 Q1215.83 1568.97 1212.42 1568.97 Q1203.89 1568.97 1198.9 1564 Q1193.93 1559.04 1193.93 1550.57 Q1193.93 1541.82 1198.64 1536.69 Q1203.38 1531.54 1211.4 1531.54 Q1218.6 1531.54 1222.77 1536.18 Q1226.97 1540.8 1226.97 1548.76 M1221.11 1547.04 Q1221.05 1542.23 1218.41 1539.37 Q1215.8 1536.5 1211.47 1536.5 Q1206.57 1536.5 1203.61 1539.27 Q1200.68 1542.04 1200.23 1547.07 L1221.11 1547.04 Z" fill="#000000" fill-rule="nonzero" fill-opacity="1" /><path clip-path="url(#clip120)" d="M1266.21 1546.53 L1266.21 1568.04 L1260.36 1568.04 L1260.36 1546.72 Q1260.36 1541.66 1258.38 1539.14 Q1256.41 1536.63 1252.46 1536.63 Q1247.72 1536.63 1244.98 1539.65 Q1242.25 1542.68 1242.25 1547.9 L1242.25 1568.04 L1236.36 1568.04 L1236.36 1532.4 L1242.25 1532.4 L1242.25 1537.93 Q1244.35 1534.72 1247.18 1533.13 Q1250.04 1531.54 1253.77 1531.54 Q1259.91 1531.54 1263.06 1535.36 Q1266.21 1539.14 1266.21 1546.53 Z" fill="#000000" fill-rule="nonzero" fill-opacity="1" /><path clip-path="url(#clip120)" d="M1303.55 1533.76 L1303.55 1539.24 Q1301.07 1537.87 1298.55 1537.2 Q1296.07 1536.5 1293.52 1536.5 Q1287.82 1536.5 1284.67 1540.13 Q1281.52 1543.73 1281.52 1550.25 Q1281.52 1556.78 1284.67 1560.4 Q1287.82 1564 1293.52 1564 Q1296.07 1564 1298.55 1563.33 Q1301.07 1562.63 1303.55 1561.26 L1303.55 1566.68 Q1301.1 1567.82 1298.46 1568.39 Q1295.85 1568.97 1292.89 1568.97 Q1284.83 1568.97 1280.09 1563.91 Q1275.35 1558.85 1275.35 1550.25 Q1275.35 1541.53 1280.12 1536.53 Q1284.93 1531.54 1293.27 1531.54 Q1295.97 1531.54 1298.55 1532.11 Q1301.13 1532.65 1303.55 1533.76 Z" fill="#000000" fill-rule="nonzero" fill-opacity="1" /><path clip-path="url(#clip120)" d="M1313.73 1532.4 L1319.59 1532.4 L1319.59 1568.04 L1313.73 1568.04 L1313.73 1532.4 M1313.73 1518.52 L1319.59 1518.52 L1319.59 1525.93 L1313.73 1525.93 L1313.73 1518.52 Z" fill="#000000" fill-rule="nonzero" fill-opacity="1" /><path clip-path="url(#clip120)" d="M1362.33 1548.76 L1362.33 1551.62 L1335.41 1551.62 Q1335.79 1557.67 1339.04 1560.85 Q1342.31 1564 1348.14 1564 Q1351.51 1564 1354.66 1563.17 Q1357.85 1562.35 1360.97 1560.69 L1360.97 1566.23 Q1357.82 1567.57 1354.51 1568.27 Q1351.19 1568.97 1347.79 1568.97 Q1339.26 1568.97 1334.26 1564 Q1329.3 1559.04 1329.3 1550.57 Q1329.3 1541.82 1334.01 1536.69 Q1338.75 1531.54 1346.77 1531.54 Q1353.96 1531.54 1358.13 1536.18 Q1362.33 1540.8 1362.33 1548.76 M1356.48 1547.04 Q1356.41 1542.23 1353.77 1539.37 Q1351.16 1536.5 1346.83 1536.5 Q1341.93 1536.5 1338.97 1539.27 Q1336.04 1542.04 1335.6 1547.07 L1356.48 1547.04 Z" fill="#000000" fill-rule="nonzero" fill-opacity="1" /><path clip-path="url(#clip120)" d="M1394.67 1533.45 L1394.67 1538.98 Q1392.19 1537.71 1389.52 1537.07 Q1386.84 1536.44 1383.98 1536.44 Q1379.62 1536.44 1377.42 1537.77 Q1375.26 1539.11 1375.26 1541.79 Q1375.26 1543.82 1376.82 1545 Q1378.38 1546.15 1383.09 1547.2 L1385.09 1547.64 Q1391.33 1548.98 1393.94 1551.43 Q1396.58 1553.85 1396.58 1558.21 Q1396.58 1563.17 1392.64 1566.07 Q1388.72 1568.97 1381.85 1568.97 Q1378.98 1568.97 1375.86 1568.39 Q1372.77 1567.85 1369.34 1566.74 L1369.34 1560.69 Q1372.58 1562.38 1375.73 1563.24 Q1378.89 1564.07 1381.97 1564.07 Q1386.11 1564.07 1388.34 1562.66 Q1390.57 1561.23 1390.57 1558.65 Q1390.57 1556.27 1388.94 1554.99 Q1387.35 1553.72 1381.91 1552.54 L1379.87 1552.07 Q1374.43 1550.92 1372.01 1548.56 Q1369.59 1546.18 1369.59 1542.04 Q1369.59 1537.01 1373.16 1534.27 Q1376.72 1531.54 1383.28 1531.54 Q1386.52 1531.54 1389.39 1532.01 Q1392.25 1532.49 1394.67 1533.45 Z" fill="#000000" fill-rule="nonzero" fill-opacity="1" /><path clip-path="url(#clip120)" d="M1426.09 1518.52 L1439.58 1518.52 L1439.58 1523.07 L1431.94 1523.07 L1431.94 1572.09 L1439.58 1572.09 L1439.58 1576.64 L1426.09 1576.64 L1426.09 1518.52 Z" fill="#000000" fill-rule="nonzero" fill-opacity="1" /><path clip-path="url(#clip120)" d="M1484.72 1561.26 L1484.72 1548.5 L1474.21 1548.5 L1474.21 1543.22 L1491.08 1543.22 L1491.08 1563.62 Q1487.36 1566.26 1482.87 1567.63 Q1478.38 1568.97 1473.29 1568.97 Q1462.15 1568.97 1455.85 1562.47 Q1449.58 1555.95 1449.58 1544.33 Q1449.58 1532.68 1455.85 1526.19 Q1462.15 1519.66 1473.29 1519.66 Q1477.94 1519.66 1482.11 1520.81 Q1486.31 1521.96 1489.84 1524.18 L1489.84 1531.03 Q1486.28 1528 1482.26 1526.48 Q1478.25 1524.95 1473.83 1524.95 Q1465.11 1524.95 1460.72 1529.82 Q1456.36 1534.69 1456.36 1544.33 Q1456.36 1553.94 1460.72 1558.81 Q1465.11 1563.68 1473.83 1563.68 Q1477.24 1563.68 1479.91 1563.11 Q1482.58 1562.51 1484.72 1561.26 Z" fill="#000000" fill-rule="nonzero" fill-opacity="1" /><path clip-path="url(#clip120)" d="M1502.83 1520.52 L1509.26 1520.52 L1509.26 1540 L1532.62 1540 L1532.62 1520.52 L1539.05 1520.52 L1539.05 1568.04 L1532.62 1568.04 L1532.62 1545.41 L1509.26 1545.41 L1509.26 1568.04 L1502.83 1568.04 L1502.83 1520.52 Z" fill="#000000" fill-rule="nonzero" fill-opacity="1" /><path clip-path="url(#clip120)" d="M1549.04 1532.4 L1576.86 1532.4 L1576.86 1537.74 L1554.83 1563.37 L1576.86 1563.37 L1576.86 1568.04 L1548.25 1568.04 L1548.25 1562.7 L1570.27 1537.07 L1549.04 1537.07 L1549.04 1532.4 Z" fill="#000000" fill-rule="nonzero" fill-opacity="1" /><path clip-path="url(#clip120)" d="M1599.49 1518.52 L1599.49 1576.64 L1585.99 1576.64 L1585.99 1572.09 L1593.6 1572.09 L1593.6 1523.07 L1585.99 1523.07 L1585.99 1518.52 L1599.49 1518.52 Z" fill="#000000" fill-rule="nonzero" fill-opacity="1" /><polyline clip-path="url(#clip120)" style="stroke:#000000; stroke-linecap:round; stroke-linejoin:round; stroke-width:4; stroke-opacity:1; fill:none" points="262.551,1423.18 262.551,47.2441 "/>
<polyline clip-path="url(#clip120)" style="stroke:#000000; stroke-linecap:round; stroke-linejoin:round; stroke-width:4; stroke-opacity:1; fill:none" points="262.551,1206.91 281.449,1206.91 "/>
<polyline clip-path="url(#clip120)" style="stroke:#000000; stroke-linecap:round; stroke-linejoin:round; stroke-width:4; stroke-opacity:1; fill:none" points="262.551,936.96 281.449,936.96 "/>
<polyline clip-path="url(#clip120)" style="stroke:#000000; stroke-linecap:round; stroke-linejoin:round; stroke-width:4; stroke-opacity:1; fill:none" points="262.551,667.011 281.449,667.011 "/>
<polyline clip-path="url(#clip120)" style="stroke:#000000; stroke-linecap:round; stroke-linejoin:round; stroke-width:4; stroke-opacity:1; fill:none" points="262.551,397.063 281.449,397.063 "/>
<polyline clip-path="url(#clip120)" style="stroke:#000000; stroke-linecap:round; stroke-linejoin:round; stroke-width:4; stroke-opacity:1; fill:none" points="262.551,127.115 281.449,127.115 "/>
<path clip-path="url(#clip120)" d="M154.862 1205.04 Q151.714 1205.04 149.862 1207.2 Q148.033 1209.35 148.033 1213.1 Q148.033 1216.83 149.862 1219 Q151.714 1221.16 154.862 1221.16 Q158.01 1221.16 159.839 1219 Q161.69 1216.83 161.69 1213.1 Q161.69 1209.35 159.839 1207.2 Q158.01 1205.04 154.862 1205.04 M164.144 1190.39 L164.144 1194.65 Q162.385 1193.82 160.579 1193.38 Q158.797 1192.94 157.038 1192.94 Q152.408 1192.94 149.954 1196.06 Q147.524 1199.19 147.177 1205.51 Q148.542 1203.49 150.603 1202.43 Q152.663 1201.34 155.14 1201.34 Q160.348 1201.34 163.357 1204.51 Q166.39 1207.66 166.39 1213.1 Q166.39 1218.42 163.241 1221.64 Q160.093 1224.86 154.862 1224.86 Q148.866 1224.86 145.695 1220.28 Q142.524 1215.67 142.524 1206.94 Q142.524 1198.75 146.413 1193.89 Q150.302 1189 156.853 1189 Q158.612 1189 160.394 1189.35 Q162.2 1189.7 164.144 1190.39 Z" fill="#000000" fill-rule="nonzero" fill-opacity="1" /><path clip-path="url(#clip120)" d="M184.445 1192.71 Q180.834 1192.71 179.005 1196.27 Q177.2 1199.81 177.2 1206.94 Q177.2 1214.05 179.005 1217.61 Q180.834 1221.16 184.445 1221.16 Q188.079 1221.16 189.885 1217.61 Q191.713 1214.05 191.713 1206.94 Q191.713 1199.81 189.885 1196.27 Q188.079 1192.71 184.445 1192.71 M184.445 1189 Q190.255 1189 193.311 1193.61 Q196.389 1198.19 196.389 1206.94 Q196.389 1215.67 193.311 1220.28 Q190.255 1224.86 184.445 1224.86 Q178.635 1224.86 175.556 1220.28 Q172.501 1215.67 172.501 1206.94 Q172.501 1198.19 175.556 1193.61 Q178.635 1189 184.445 1189 Z" fill="#000000" fill-rule="nonzero" fill-opacity="1" /><path clip-path="url(#clip120)" d="M214.607 1192.71 Q210.996 1192.71 209.167 1196.27 Q207.362 1199.81 207.362 1206.94 Q207.362 1214.05 209.167 1217.61 Q210.996 1221.16 214.607 1221.16 Q218.241 1221.16 220.047 1217.61 Q221.875 1214.05 221.875 1206.94 Q221.875 1199.81 220.047 1196.27 Q218.241 1192.71 214.607 1192.71 M214.607 1189 Q220.417 1189 223.473 1193.61 Q226.551 1198.19 226.551 1206.94 Q226.551 1215.67 223.473 1220.28 Q220.417 1224.86 214.607 1224.86 Q208.797 1224.86 205.718 1220.28 Q202.662 1215.67 202.662 1206.94 Q202.662 1198.19 205.718 1193.61 Q208.797 1189 214.607 1189 Z" fill="#000000" fill-rule="nonzero" fill-opacity="1" /><path clip-path="url(#clip120)" d="M144.422 953.522 L144.422 949.263 Q146.181 950.096 147.987 950.536 Q149.792 950.976 151.528 950.976 Q156.158 950.976 158.589 947.874 Q161.042 944.749 161.39 938.406 Q160.047 940.397 157.987 941.462 Q155.927 942.527 153.427 942.527 Q148.241 942.527 145.209 939.402 Q142.2 936.254 142.2 930.814 Q142.2 925.49 145.348 922.272 Q148.496 919.055 153.728 919.055 Q159.723 919.055 162.871 923.661 Q166.042 928.244 166.042 936.994 Q166.042 945.166 162.153 950.05 Q158.288 954.911 151.737 954.911 Q149.978 954.911 148.172 954.564 Q146.366 954.216 144.422 953.522 M153.728 938.869 Q156.876 938.869 158.704 936.716 Q160.556 934.564 160.556 930.814 Q160.556 927.087 158.704 924.934 Q156.876 922.758 153.728 922.758 Q150.579 922.758 148.728 924.934 Q146.899 927.087 146.899 930.814 Q146.899 934.564 148.728 936.716 Q150.579 938.869 153.728 938.869 Z" fill="#000000" fill-rule="nonzero" fill-opacity="1" /><path clip-path="url(#clip120)" d="M184.445 922.758 Q180.834 922.758 179.005 926.323 Q177.2 929.865 177.2 936.994 Q177.2 944.101 179.005 947.666 Q180.834 951.207 184.445 951.207 Q188.079 951.207 189.885 947.666 Q191.713 944.101 191.713 936.994 Q191.713 929.865 189.885 926.323 Q188.079 922.758 184.445 922.758 M184.445 919.055 Q190.255 919.055 193.311 923.661 Q196.389 928.244 196.389 936.994 Q196.389 945.721 193.311 950.328 Q190.255 954.911 184.445 954.911 Q178.635 954.911 175.556 950.328 Q172.501 945.721 172.501 936.994 Q172.501 928.244 175.556 923.661 Q178.635 919.055 184.445 919.055 Z" fill="#000000" fill-rule="nonzero" fill-opacity="1" /><path clip-path="url(#clip120)" d="M214.607 922.758 Q210.996 922.758 209.167 926.323 Q207.362 929.865 207.362 936.994 Q207.362 944.101 209.167 947.666 Q210.996 951.207 214.607 951.207 Q218.241 951.207 220.047 947.666 Q221.875 944.101 221.875 936.994 Q221.875 929.865 220.047 926.323 Q218.241 922.758 214.607 922.758 M214.607 919.055 Q220.417 919.055 223.473 923.661 Q226.551 928.244 226.551 936.994 Q226.551 945.721 223.473 950.328 Q220.417 954.911 214.607 954.911 Q208.797 954.911 205.718 950.328 Q202.662 945.721 202.662 936.994 Q202.662 928.244 205.718 923.661 Q208.797 919.055 214.607 919.055 Z" fill="#000000" fill-rule="nonzero" fill-opacity="1" /><path clip-path="url(#clip120)" d="M114.931 680.356 L122.57 680.356 L122.57 653.991 L114.26 655.657 L114.26 651.398 L122.524 649.731 L127.2 649.731 L127.2 680.356 L134.839 680.356 L134.839 684.291 L114.931 684.291 L114.931 680.356 Z" fill="#000000" fill-rule="nonzero" fill-opacity="1" /><path clip-path="url(#clip120)" d="M148.311 680.356 L164.63 680.356 L164.63 684.291 L142.686 684.291 L142.686 680.356 Q145.348 677.602 149.931 672.972 Q154.538 668.319 155.718 666.977 Q157.964 664.454 158.843 662.717 Q159.746 660.958 159.746 659.268 Q159.746 656.514 157.802 654.778 Q155.88 653.042 152.778 653.042 Q150.579 653.042 148.126 653.805 Q145.695 654.569 142.917 656.12 L142.917 651.398 Q145.741 650.264 148.195 649.685 Q150.649 649.106 152.686 649.106 Q158.056 649.106 161.251 651.792 Q164.445 654.477 164.445 658.967 Q164.445 661.097 163.635 663.018 Q162.848 664.917 160.741 667.509 Q160.163 668.18 157.061 671.398 Q153.959 674.592 148.311 680.356 Z" fill="#000000" fill-rule="nonzero" fill-opacity="1" /><path clip-path="url(#clip120)" d="M184.445 652.81 Q180.834 652.81 179.005 656.375 Q177.2 659.917 177.2 667.046 Q177.2 674.153 179.005 677.717 Q180.834 681.259 184.445 681.259 Q188.079 681.259 189.885 677.717 Q191.713 674.153 191.713 667.046 Q191.713 659.917 189.885 656.375 Q188.079 652.81 184.445 652.81 M184.445 649.106 Q190.255 649.106 193.311 653.713 Q196.389 658.296 196.389 667.046 Q196.389 675.773 193.311 680.379 Q190.255 684.963 184.445 684.963 Q178.635 684.963 175.556 680.379 Q172.501 675.773 172.501 667.046 Q172.501 658.296 175.556 653.713 Q178.635 649.106 184.445 649.106 Z" fill="#000000" fill-rule="nonzero" fill-opacity="1" /><path clip-path="url(#clip120)" d="M214.607 652.81 Q210.996 652.81 209.167 656.375 Q207.362 659.917 207.362 667.046 Q207.362 674.153 209.167 677.717 Q210.996 681.259 214.607 681.259 Q218.241 681.259 220.047 677.717 Q221.875 674.153 221.875 667.046 Q221.875 659.917 220.047 656.375 Q218.241 652.81 214.607 652.81 M214.607 649.106 Q220.417 649.106 223.473 653.713 Q226.551 658.296 226.551 667.046 Q226.551 675.773 223.473 680.379 Q220.417 684.963 214.607 684.963 Q208.797 684.963 205.718 680.379 Q202.662 675.773 202.662 667.046 Q202.662 658.296 205.718 653.713 Q208.797 649.106 214.607 649.106 Z" fill="#000000" fill-rule="nonzero" fill-opacity="1" /><path clip-path="url(#clip120)" d="M114.931 410.408 L122.57 410.408 L122.57 384.043 L114.26 385.709 L114.26 381.45 L122.524 379.783 L127.2 379.783 L127.2 410.408 L134.839 410.408 L134.839 414.343 L114.931 414.343 L114.931 410.408 Z" fill="#000000" fill-rule="nonzero" fill-opacity="1" /><path clip-path="url(#clip120)" d="M144.329 379.783 L162.686 379.783 L162.686 383.718 L148.612 383.718 L148.612 392.191 Q149.63 391.843 150.649 391.681 Q151.667 391.496 152.686 391.496 Q158.473 391.496 161.852 394.667 Q165.232 397.839 165.232 403.255 Q165.232 408.834 161.76 411.936 Q158.288 415.015 151.968 415.015 Q149.792 415.015 147.524 414.644 Q145.279 414.274 142.871 413.533 L142.871 408.834 Q144.954 409.968 147.177 410.524 Q149.399 411.079 151.876 411.079 Q155.88 411.079 158.218 408.973 Q160.556 406.866 160.556 403.255 Q160.556 399.644 158.218 397.538 Q155.88 395.431 151.876 395.431 Q150.001 395.431 148.126 395.848 Q146.274 396.265 144.329 397.144 L144.329 379.783 Z" fill="#000000" fill-rule="nonzero" fill-opacity="1" /><path clip-path="url(#clip120)" d="M184.445 382.862 Q180.834 382.862 179.005 386.427 Q177.2 389.968 177.2 397.098 Q177.2 404.204 179.005 407.769 Q180.834 411.311 184.445 411.311 Q188.079 411.311 189.885 407.769 Q191.713 404.204 191.713 397.098 Q191.713 389.968 189.885 386.427 Q188.079 382.862 184.445 382.862 M184.445 379.158 Q190.255 379.158 193.311 383.765 Q196.389 388.348 196.389 397.098 Q196.389 405.825 193.311 410.431 Q190.255 415.015 184.445 415.015 Q178.635 415.015 175.556 410.431 Q172.501 405.825 172.501 397.098 Q172.501 388.348 175.556 383.765 Q178.635 379.158 184.445 379.158 Z" fill="#000000" fill-rule="nonzero" fill-opacity="1" /><path clip-path="url(#clip120)" d="M214.607 382.862 Q210.996 382.862 209.167 386.427 Q207.362 389.968 207.362 397.098 Q207.362 404.204 209.167 407.769 Q210.996 411.311 214.607 411.311 Q218.241 411.311 220.047 407.769 Q221.875 404.204 221.875 397.098 Q221.875 389.968 220.047 386.427 Q218.241 382.862 214.607 382.862 M214.607 379.158 Q220.417 379.158 223.473 383.765 Q226.551 388.348 226.551 397.098 Q226.551 405.825 223.473 410.431 Q220.417 415.015 214.607 415.015 Q208.797 415.015 205.718 410.431 Q202.662 405.825 202.662 397.098 Q202.662 388.348 205.718 383.765 Q208.797 379.158 214.607 379.158 Z" fill="#000000" fill-rule="nonzero" fill-opacity="1" /><path clip-path="url(#clip120)" d="M114.931 140.46 L122.57 140.46 L122.57 114.094 L114.26 115.761 L114.26 111.502 L122.524 109.835 L127.2 109.835 L127.2 140.46 L134.839 140.46 L134.839 144.395 L114.931 144.395 L114.931 140.46 Z" fill="#000000" fill-rule="nonzero" fill-opacity="1" /><path clip-path="url(#clip120)" d="M154.283 127.983 Q150.95 127.983 149.028 129.766 Q147.13 131.548 147.13 134.673 Q147.13 137.798 149.028 139.58 Q150.95 141.363 154.283 141.363 Q157.616 141.363 159.538 139.58 Q161.459 137.775 161.459 134.673 Q161.459 131.548 159.538 129.766 Q157.64 127.983 154.283 127.983 M149.607 125.992 Q146.598 125.252 144.908 123.192 Q143.241 121.131 143.241 118.168 Q143.241 114.025 146.181 111.618 Q149.144 109.21 154.283 109.21 Q159.445 109.21 162.385 111.618 Q165.325 114.025 165.325 118.168 Q165.325 121.131 163.635 123.192 Q161.968 125.252 158.982 125.992 Q162.362 126.779 164.237 129.071 Q166.135 131.363 166.135 134.673 Q166.135 139.696 163.056 142.381 Q160.001 145.066 154.283 145.066 Q148.566 145.066 145.487 142.381 Q142.431 139.696 142.431 134.673 Q142.431 131.363 144.329 129.071 Q146.228 126.779 149.607 125.992 M147.894 118.608 Q147.894 121.293 149.561 122.798 Q151.251 124.303 154.283 124.303 Q157.292 124.303 158.982 122.798 Q160.695 121.293 160.695 118.608 Q160.695 115.923 158.982 114.418 Q157.292 112.914 154.283 112.914 Q151.251 112.914 149.561 114.418 Q147.894 115.923 147.894 118.608 Z" fill="#000000" fill-rule="nonzero" fill-opacity="1" /><path clip-path="url(#clip120)" d="M184.445 112.914 Q180.834 112.914 179.005 116.479 Q177.2 120.02 177.2 127.15 Q177.2 134.256 179.005 137.821 Q180.834 141.363 184.445 141.363 Q188.079 141.363 189.885 137.821 Q191.713 134.256 191.713 127.15 Q191.713 120.02 189.885 116.479 Q188.079 112.914 184.445 112.914 M184.445 109.21 Q190.255 109.21 193.311 113.817 Q196.389 118.4 196.389 127.15 Q196.389 135.877 193.311 140.483 Q190.255 145.066 184.445 145.066 Q178.635 145.066 175.556 140.483 Q172.501 135.877 172.501 127.15 Q172.501 118.4 175.556 113.817 Q178.635 109.21 184.445 109.21 Z" fill="#000000" fill-rule="nonzero" fill-opacity="1" /><path clip-path="url(#clip120)" d="M214.607 112.914 Q210.996 112.914 209.167 116.479 Q207.362 120.02 207.362 127.15 Q207.362 134.256 209.167 137.821 Q210.996 141.363 214.607 141.363 Q218.241 141.363 220.047 137.821 Q221.875 134.256 221.875 127.15 Q221.875 120.02 220.047 116.479 Q218.241 112.914 214.607 112.914 M214.607 109.21 Q220.417 109.21 223.473 113.817 Q226.551 118.4 226.551 127.15 Q226.551 135.877 223.473 140.483 Q220.417 145.066 214.607 145.066 Q208.797 145.066 205.718 140.483 Q202.662 135.877 202.662 127.15 Q202.662 118.4 205.718 113.817 Q208.797 109.21 214.607 109.21 Z" fill="#000000" fill-rule="nonzero" fill-opacity="1" /><path clip-path="url(#clip120)" d="M41.3104 969.884 L58.7206 969.884 L58.7206 959.571 Q58.7206 954.383 56.5881 951.901 Q54.4238 949.386 49.9996 949.386 Q45.5436 949.386 43.4429 951.901 Q41.3104 954.383 41.3104 959.571 L41.3104 969.884 M21.7677 969.884 L36.0905 969.884 L36.0905 960.367 Q36.0905 955.656 34.34 953.365 Q32.5576 951.041 28.9291 951.041 Q25.3325 951.041 23.5501 953.365 Q21.7677 955.656 21.7677 960.367 L21.7677 969.884 M16.4842 976.313 L16.4842 959.89 Q16.4842 952.537 19.5397 948.559 Q22.5952 944.58 28.2289 944.58 Q32.5894 944.58 35.1675 946.617 Q37.7456 948.654 38.3822 952.601 Q39.4007 947.858 42.6472 945.248 Q45.8619 942.607 50.6998 942.607 Q57.0655 942.607 60.5348 946.935 Q64.0042 951.264 64.0042 959.253 L64.0042 976.313 L16.4842 976.313 Z" fill="#000000" fill-rule="nonzero" fill-opacity="1" /><path clip-path="url(#clip120)" d="M32.4621 918.035 Q32.4621 922.746 36.1542 925.483 Q39.8145 928.22 46.212 928.22 Q52.6095 928.22 56.3017 925.515 Q59.9619 922.778 59.9619 918.035 Q59.9619 913.356 56.2698 910.619 Q52.5777 907.882 46.212 907.882 Q39.8781 907.882 36.186 910.619 Q32.4621 913.356 32.4621 918.035 M27.4968 918.035 Q27.4968 910.396 32.4621 906.036 Q37.4273 901.675 46.212 901.675 Q54.9649 901.675 59.9619 906.036 Q64.9272 910.396 64.9272 918.035 Q64.9272 925.706 59.9619 930.066 Q54.9649 934.395 46.212 934.395 Q37.4273 934.395 32.4621 930.066 Q27.4968 925.706 27.4968 918.035 Z" fill="#000000" fill-rule="nonzero" fill-opacity="1" /><path clip-path="url(#clip120)" d="M32.4621 878.154 Q32.4621 882.865 36.1542 885.602 Q39.8145 888.339 46.212 888.339 Q52.6095 888.339 56.3017 885.634 Q59.9619 882.896 59.9619 878.154 Q59.9619 873.475 56.2698 870.738 Q52.5777 868.001 46.212 868.001 Q39.8781 868.001 36.186 870.738 Q32.4621 873.475 32.4621 878.154 M27.4968 878.154 Q27.4968 870.515 32.4621 866.155 Q37.4273 861.794 46.212 861.794 Q54.9649 861.794 59.9619 866.155 Q64.9272 870.515 64.9272 878.154 Q64.9272 885.825 59.9619 890.185 Q54.9649 894.514 46.212 894.514 Q37.4273 894.514 32.4621 890.185 Q27.4968 885.825 27.4968 878.154 Z" fill="#000000" fill-rule="nonzero" fill-opacity="1" /><path clip-path="url(#clip120)" d="M29.4065 829.361 L34.9447 829.361 Q33.6716 831.843 33.035 834.517 Q32.3984 837.191 32.3984 840.055 Q32.3984 844.416 33.7352 846.612 Q35.072 848.776 37.7456 848.776 Q39.7826 848.776 40.9603 847.217 Q42.1061 845.657 43.1565 840.946 L43.6021 838.941 Q44.9389 832.703 47.3897 830.093 Q49.8086 827.451 54.1691 827.451 Q59.1344 827.451 62.0308 831.398 Q64.9272 835.313 64.9272 842.188 Q64.9272 845.052 64.3543 848.171 Q63.8132 851.259 62.6992 854.696 L56.6518 854.696 Q58.3387 851.45 59.198 848.299 Q60.0256 845.148 60.0256 842.06 Q60.0256 837.923 58.6251 835.695 Q57.1929 833.467 54.6147 833.467 Q52.2276 833.467 50.9545 835.09 Q49.6813 836.681 48.5037 842.124 L48.0262 844.161 Q46.8804 849.604 44.5251 852.023 Q42.138 854.442 38.0002 854.442 Q32.9713 854.442 30.2341 850.877 Q27.4968 847.312 27.4968 840.755 Q27.4968 837.509 27.9743 834.644 Q28.4517 831.78 29.4065 829.361 Z" fill="#000000" fill-rule="nonzero" fill-opacity="1" /><path clip-path="url(#clip120)" d="M18.2347 812.333 L28.3562 812.333 L28.3562 800.269 L32.9077 800.269 L32.9077 812.333 L52.2594 812.333 Q56.6199 812.333 57.8613 811.155 Q59.1026 809.945 59.1026 806.285 L59.1026 800.269 L64.0042 800.269 L64.0042 806.285 Q64.0042 813.065 61.4897 815.643 Q58.9434 818.221 52.2594 818.221 L32.9077 818.221 L32.9077 822.518 L28.3562 822.518 L28.3562 818.221 L18.2347 818.221 L18.2347 812.333 Z" fill="#000000" fill-rule="nonzero" fill-opacity="1" /><path clip-path="url(#clip120)" d="M16.4842 771.592 L16.4842 744.283 L21.895 744.283 L21.895 765.163 L35.8996 765.163 L35.8996 746.32 L41.3104 746.32 L41.3104 765.163 L64.0042 765.163 L64.0042 771.592 L16.4842 771.592 Z" fill="#000000" fill-rule="nonzero" fill-opacity="1" /><path clip-path="url(#clip120)" d="M46.0847 724.136 Q46.0847 731.233 47.7079 733.971 Q49.3312 736.708 53.2461 736.708 Q56.3653 736.708 58.2114 734.671 Q60.0256 732.602 60.0256 729.069 Q60.0256 724.199 56.5881 721.271 Q53.1188 718.311 47.3897 718.311 L46.0847 718.311 L46.0847 724.136 M43.6657 712.455 L64.0042 712.455 L64.0042 718.311 L58.5933 718.311 Q61.8398 720.316 63.3994 723.308 Q64.9272 726.3 64.9272 730.629 Q64.9272 736.103 61.8716 739.35 Q58.7843 742.564 53.6281 742.564 Q47.6125 742.564 44.5569 738.554 Q41.5014 734.512 41.5014 726.523 L41.5014 718.311 L40.9285 718.311 Q36.8862 718.311 34.6901 720.985 Q32.4621 723.626 32.4621 728.432 Q32.4621 731.488 33.1941 734.384 Q33.9262 737.281 35.3903 739.954 L29.9795 739.954 Q28.7381 736.74 28.1334 733.716 Q27.4968 730.692 27.4968 727.828 Q27.4968 720.093 31.5072 716.274 Q35.5176 712.455 43.6657 712.455 Z" fill="#000000" fill-rule="nonzero" fill-opacity="1" /><path clip-path="url(#clip120)" d="M29.7248 674.738 L35.1993 674.738 Q33.8307 677.22 33.1623 679.735 Q32.4621 682.217 32.4621 684.764 Q32.4621 690.461 36.0905 693.612 Q39.6872 696.763 46.212 696.763 Q52.7369 696.763 56.3653 693.612 Q59.9619 690.461 59.9619 684.764 Q59.9619 682.217 59.2935 679.735 Q58.5933 677.22 57.2247 674.738 L62.6355 674.738 Q63.7814 677.189 64.3543 679.83 Q64.9272 682.44 64.9272 685.4 Q64.9272 693.453 59.8664 698.195 Q54.8057 702.938 46.212 702.938 Q37.491 702.938 32.4939 698.164 Q27.4968 693.357 27.4968 685.018 Q27.4968 682.313 28.0697 679.735 Q28.6108 677.157 29.7248 674.738 Z" fill="#000000" fill-rule="nonzero" fill-opacity="1" /><path clip-path="url(#clip120)" d="M18.2347 658.76 L28.3562 658.76 L28.3562 646.697 L32.9077 646.697 L32.9077 658.76 L52.2594 658.76 Q56.6199 658.76 57.8613 657.582 Q59.1026 656.373 59.1026 652.712 L59.1026 646.697 L64.0042 646.697 L64.0042 652.712 Q64.0042 659.492 61.4897 662.07 Q58.9434 664.648 52.2594 664.648 L32.9077 664.648 L32.9077 668.945 L28.3562 668.945 L28.3562 664.648 L18.2347 664.648 L18.2347 658.76 Z" fill="#000000" fill-rule="nonzero" fill-opacity="1" /><path clip-path="url(#clip120)" d="M32.4621 625.181 Q32.4621 629.891 36.1542 632.629 Q39.8145 635.366 46.212 635.366 Q52.6095 635.366 56.3017 632.66 Q59.9619 629.923 59.9619 625.181 Q59.9619 620.502 56.2698 617.765 Q52.5777 615.027 46.212 615.027 Q39.8781 615.027 36.186 617.765 Q32.4621 620.502 32.4621 625.181 M27.4968 625.181 Q27.4968 617.542 32.4621 613.181 Q37.4273 608.821 46.212 608.821 Q54.9649 608.821 59.9619 613.181 Q64.9272 617.542 64.9272 625.181 Q64.9272 632.851 59.9619 637.212 Q54.9649 641.541 46.212 641.541 Q37.4273 641.541 32.4621 637.212 Q27.4968 632.851 27.4968 625.181 Z" fill="#000000" fill-rule="nonzero" fill-opacity="1" /><path clip-path="url(#clip120)" d="M33.8307 578.456 Q33.2578 579.443 33.0032 580.621 Q32.7167 581.767 32.7167 583.167 Q32.7167 588.132 35.9632 590.806 Q39.1779 593.448 45.2253 593.448 L64.0042 593.448 L64.0042 599.336 L28.3562 599.336 L28.3562 593.448 L33.8944 593.448 Q30.6479 591.602 29.0883 588.642 Q27.4968 585.682 27.4968 581.448 Q27.4968 580.844 27.5923 580.112 Q27.656 579.379 27.8151 578.488 L33.8307 578.456 Z" fill="#000000" fill-rule="nonzero" fill-opacity="1" /><path clip-path="url(#clip120)" d="M61.808 545.737 L77.5631 545.737 L77.5631 551.625 L28.579 551.625 Q14.0652 551.625 14.0652 538.066 Q14.0652 524.252 26.3192 524.252 Q35.0402 524.252 38.223 529.727 Q41.0876 520.815 49.5858 520.815 Q64.6726 520.815 64.6726 536.156 Q64.6726 542.904 61.808 545.737 M54.1691 545.737 Q59.6755 542.204 59.6755 535.934 Q59.6755 526.767 49.6813 526.767 Q40.7057 526.767 41.4059 541.535 L35.995 541.535 Q35.995 529.982 25.8099 529.982 Q18.8395 529.982 18.8395 537.429 Q18.8395 545.737 28.77 545.737 L54.1691 545.737 Z" fill="#000000" fill-rule="nonzero" fill-opacity="1" /><path clip-path="url(#clip120)" d="M39.1142 507.606 L39.1142 494.111 L42.7427 494.111 L42.7427 513.144 L39.2416 513.144 Q38.2549 512.062 36.4725 510.057 Q26.7648 499.108 23.7729 499.108 Q21.6722 499.108 20.3991 500.763 Q19.0941 502.418 19.0941 505.124 Q19.0941 506.779 19.667 508.72 Q20.2081 510.662 21.3221 512.953 L17.4072 512.953 Q16.516 510.503 16.0704 508.402 Q15.6248 506.269 15.6248 504.455 Q15.6248 499.84 17.7255 497.071 Q19.8262 494.302 23.2636 494.302 Q27.6878 494.302 36.7271 504.837 Q38.2549 506.619 39.1142 507.606 Z" fill="#000000" fill-rule="nonzero" fill-opacity="1" /><polyline clip-path="url(#clip122)" style="stroke:#009af9; stroke-linecap:round; stroke-linejoin:round; stroke-width:4; stroke-opacity:1; fill:none" points="321.708,1384.24 323.682,1382.72 325.656,1381.2 327.63,1379.67 329.603,1378.13 331.577,1376.59 333.551,1375.04 335.525,1373.49 337.499,1371.93 339.473,1370.37 341.447,1368.79 343.42,1367.22 345.394,1365.63 347.368,1364.05 349.342,1362.45 351.316,1360.85 353.29,1359.24 355.264,1357.63 357.238,1356.01 359.211,1354.38 361.185,1352.75 363.159,1351.11 365.133,1349.47 367.107,1347.81 369.081,1346.16 371.055,1344.49 373.028,1342.82 375.002,1341.14 376.976,1339.46 378.95,1337.77 380.924,1336.08 382.898,1334.37 384.872,1332.66 386.846,1330.95 388.819,1329.22 390.793,1327.49 392.767,1325.76 394.741,1324.01 396.715,1322.27 398.689,1320.51 400.663,1318.75 402.636,1316.98 404.61,1315.2 406.584,1313.42 408.558,1311.62 410.532,1309.83 412.506,1308.02 414.48,1306.21 416.453,1304.39 418.427,1302.57 420.401,1300.73 422.375,1298.89 424.349,1297.05 426.323,1295.19 428.297,1293.33 430.271,1291.46 432.244,1289.59 434.218,1287.71 436.192,1285.81 438.166,1283.92 440.14,1282.01 442.114,1280.1 444.088,1278.18 446.061,1276.25 448.035,1274.32 450.009,1272.38 451.983,1270.43 453.957,1268.47 455.931,1266.5 457.905,1264.53 459.879,1262.55 461.852,1260.56 463.826,1258.57 465.8,1256.57 467.774,1254.56 469.748,1252.54 471.722,1250.51 473.696,1248.48 475.669,1246.43 477.643,1244.38 479.617,1242.33 481.591,1240.26 483.565,1238.19 485.539,1236.1 487.513,1234.01 489.486,1231.92 491.46,1229.81 493.434,1227.7 495.408,1225.57 497.382,1223.44 499.356,1221.3 501.33,1219.16 503.304,1217 505.277,1214.84 507.251,1212.67 509.225,1210.49 511.199,1208.3 513.173,1206.1 515.147,1203.9 517.121,1201.68 519.094,1199.46 521.068,1197.23 523.042,1194.99 525.016,1192.74 526.99,1190.49 528.964,1188.22 530.938,1185.95 532.912,1183.66 534.885,1181.37 536.859,1179.07 538.833,1176.77 540.807,1174.45 542.781,1172.12 544.755,1169.79 546.729,1167.44 548.702,1165.09 550.676,1162.73 552.65,1160.36 554.624,1157.98 556.598,1155.59 558.572,1153.2 560.546,1150.79 562.519,1148.37 564.493,1145.95 566.467,1143.52 568.441,1141.07 570.415,1138.62 572.389,1136.16 574.363,1133.69 576.337,1131.21 578.31,1128.72 580.284,1126.23 582.258,1123.72 584.232,1121.2 586.206,1118.68 588.18,1116.14 590.154,1113.6 592.127,1111.04 594.101,1108.48 596.075,1105.91 598.049,1103.33 600.023,1100.74 601.997,1098.14 603.971,1095.53 605.945,1092.91 607.918,1090.28 609.892,1087.64 611.866,1084.99 613.84,1082.33 615.814,1079.66 617.788,1076.99 619.762,1074.3 621.735,1071.6 623.709,1068.9 625.683,1066.18 627.657,1063.46 629.631,1060.72 631.605,1057.98 633.579,1055.22 635.553,1052.46 637.526,1049.69 639.5,1046.9 641.474,1044.11 643.448,1041.31 645.422,1038.49 647.396,1035.67 649.37,1032.84 651.343,1029.99 653.317,1027.14 655.291,1024.28 657.265,1021.41 659.239,1018.53 661.213,1015.64 663.187,1012.73 665.16,1009.82 667.134,1006.9 669.108,1003.97 671.082,1001.03 673.056,998.079 675.03,995.119 677.004,992.148 678.978,989.168 680.951,986.178 682.925,983.178 684.899,980.168 686.873,977.148 688.847,974.118 690.821,971.079 692.795,968.029 694.768,964.97 696.742,961.901 698.716,958.822 700.69,955.733 702.664,952.635 704.638,949.526 706.612,946.408 708.586,943.28 710.559,940.143 712.533,936.995 714.507,933.838 716.481,930.671 718.455,927.494 720.429,924.308 722.403,921.112 724.376,917.906 726.35,914.691 728.324,911.466 730.298,908.231 732.272,904.987 734.246,901.733 736.22,898.47 738.193,895.197 740.167,891.915 742.141,888.623 744.115,885.322 746.089,882.012 748.063,878.692 750.037,875.363 752.011,872.024 753.984,868.676 755.958,865.319 757.932,861.953 759.906,858.578 761.88,855.193 763.854,851.8 765.828,848.397 767.801,844.985 769.775,841.565 771.749,838.135 773.723,834.697 775.697,831.25 777.671,827.794 779.645,824.329 781.619,820.856 783.592,817.374 785.566,813.883 787.54,810.384 789.514,806.877 791.488,803.361 793.462,799.837 795.436,796.305 797.409,792.764 799.383,789.215 801.357,785.659 803.331,782.094 805.305,778.521 807.279,774.94 809.253,771.352 811.226,767.756 813.2,764.152 815.174,760.541 817.148,756.922 819.122,753.296 821.096,749.662 823.07,746.021 825.044,742.373 827.017,738.718 828.991,735.056 830.965,731.387 832.939,727.711 834.913,724.029 836.887,720.34 838.861,716.644 840.834,712.942 842.808,709.234 844.782,705.519 846.756,701.799 848.73,698.072 850.704,694.339 852.678,690.601 854.652,686.857 856.625,683.107 858.599,679.352 860.573,675.592 862.547,671.826 864.521,668.055 866.495,664.28 868.469,660.499 870.442,656.714 872.416,652.924 874.39,649.129 876.364,645.331 878.338,641.528 880.312,637.721 882.286,633.91 884.26,630.095 886.233,626.277 888.207,622.455 890.181,618.63 892.155,614.801 894.129,610.97 896.103,607.135 898.077,603.298 900.05,599.459 902.024,595.617 903.998,591.772 905.972,587.926 907.946,584.077 909.92,580.227 911.894,576.375 913.867,572.522 915.841,568.667 917.815,564.811 919.789,560.955 921.763,557.098 923.737,553.24 925.711,549.381 927.685,545.523 929.658,541.664 931.632,537.806 933.606,533.948 935.58,530.091 937.554,526.234 939.528,522.379 941.502,518.524 943.475,514.671 945.449,510.82 947.423,506.97 949.397,503.122 951.371,499.277 953.345,495.434 955.319,491.593 957.293,487.756 959.266,483.921 961.24,480.09 963.214,476.262 965.188,472.437 967.162,468.617 969.136,464.801 971.11,460.989 973.083,457.182 975.057,453.38 977.031,449.583 979.005,445.791 980.979,442.005 982.953,438.225 984.927,434.45 986.9,430.682 988.874,426.921 990.848,423.166 992.822,419.418 994.796,415.678 996.77,411.945 998.744,408.22 1000.72,404.503 1002.69,400.794 1004.67,397.093 1006.64,393.402 1008.61,389.72 1010.59,386.047 1012.56,382.383 1014.53,378.729 1016.51,375.086 1018.48,371.453 1020.46,367.83 1022.43,364.219 1024.4,360.618 1026.38,357.03 1028.35,353.452 1030.33,349.887 1032.3,346.334 1034.27,342.794 1036.25,339.267 1038.22,335.752 1040.19,332.251 1042.17,328.764 1044.14,325.291 1046.12,321.832 1048.09,318.387 1050.06,314.957 1052.04,311.543 1054.01,308.143 1055.99,304.76 1057.96,301.392 1059.93,298.04 1061.91,294.705 1063.88,291.387 1065.86,288.085 1067.83,284.802 1069.8,281.535 1071.78,278.287 1073.75,275.057 1075.72,271.845 1077.7,268.652 1079.67,265.478 1081.65,262.323 1083.62,259.188 1085.59,256.073 1087.57,252.978 1089.54,249.904 1091.52,246.85 1093.49,243.818 1095.46,240.806 1097.44,237.816 1099.41,234.848 1101.38,231.903 1103.36,228.979 1105.33,226.079 1107.31,223.201 1109.28,220.346 1111.25,217.515 1113.23,214.708 1115.2,211.925 1117.18,209.166 1119.15,206.432 1121.12,203.722 1123.1,201.038 1125.07,198.379 1127.04,195.746 1129.02,193.138 1130.99,190.557 1132.97,188.002 1134.94,185.474 1136.91,182.973 1138.89,180.498 1140.86,178.052 1142.84,175.633 1144.81,173.241 1146.78,170.878 1148.76,168.544 1150.73,166.237 1152.71,163.96 1154.68,161.712 1156.65,159.493 1158.63,157.303 1160.6,155.144 1162.57,153.014 1164.55,150.914 1166.52,148.845 1168.5,146.807 1170.47,144.799 1172.44,142.822 1174.42,140.876 1176.39,138.962 1178.37,137.079 1180.34,135.229 1182.31,133.41 1184.29,131.623 1186.26,129.869 1188.23,128.147 1190.21,126.457 1192.18,124.801 1194.16,123.178 1196.13,121.588 1198.1,120.031 1200.08,118.507 1202.05,117.018 1204.03,115.562 1206,114.14 1207.97,112.752 1209.95,111.398 1211.92,110.079 1213.89,108.794 1215.87,107.543 1217.84,106.328 1219.82,105.147 1221.79,104.001 1223.76,102.89 1225.74,101.814 1227.71,100.774 1229.69,99.7683 1231.66,98.7985 1233.63,97.8641 1235.61,96.9653 1237.58,96.1021 1239.56,95.2746 1241.53,94.4829 1243.5,93.727 1245.48,93.007 1247.45,92.3229 1249.42,91.6748 1251.4,91.0627 1253.37,90.4867 1255.35,89.9468 1257.32,89.443 1259.29,88.9754 1261.27,88.5439 1263.24,88.1487 1265.22,87.7896 1267.19,87.4667 1269.16,87.18 1271.14,86.9295 1273.11,86.7151 1275.08,86.537 1277.06,86.395 1279.03,86.2891 1281.01,86.2194 1282.98,86.1857 1284.95,86.188 1286.93,86.2264 1288.9,86.3007 1290.88,86.4109 1292.85,86.5569 1294.82,86.7388 1296.8,86.9563 1298.77,87.2096 1300.75,87.4984 1302.72,87.8227 1304.69,88.1825 1306.67,88.5776 1308.64,89.0079 1310.61,89.4735 1312.59,89.9741 1314.56,90.5096 1316.54,91.08 1318.51,91.6852 1320.48,92.325 1322.46,92.9993 1324.43,93.7081 1326.41,94.4511 1328.38,95.2282 1330.35,96.0393 1332.33,96.8843 1334.3,97.7631 1336.27,98.6754 1338.25,99.6211 1340.22,100.6 1342.2,101.612 1344.17,102.657 1346.14,103.735 1348.12,104.846 1350.09,105.989 1352.07,107.164 1354.04,108.372 1356.01,109.611 1357.99,110.882 1359.96,112.185 1361.93,113.519 1363.91,114.884 1365.88,116.281 1367.86,117.708 1369.83,119.165 1371.8,120.653 1373.78,122.172 1375.75,123.72 1377.73,125.298 1379.7,126.905 1381.67,128.542 1383.65,130.208 1385.62,131.903 1387.6,133.626 1389.57,135.378 1391.54,137.159 1393.52,138.967 1395.49,140.803 1397.46,142.666 1399.44,144.557 1401.41,146.475 1403.39,148.419 1405.36,150.39 1407.33,152.388 1409.31,154.411 1411.28,156.461 1413.26,158.536 1415.23,160.636 1417.2,162.761 1419.18,164.911 1421.15,167.086 1423.12,169.285 1425.1,171.508 1427.07,173.755 1429.05,176.026 1431.02,178.319 1432.99,180.636 1434.97,182.976 1436.94,185.338 1438.92,187.722 1440.89,190.128 1442.86,192.556 1444.84,195.006 1446.81,197.477 1448.78,199.968 1450.76,202.48 1452.73,205.013 1454.71,207.566 1456.68,210.138 1458.65,212.731 1460.63,215.342 1462.6,217.973 1464.58,220.622 1466.55,223.29 1468.52,225.976 1470.5,228.681 1472.47,231.403 1474.45,234.142 1476.42,236.899 1478.39,239.672 1480.37,242.462 1482.34,245.269 1484.31,248.092 1486.29,250.93 1488.26,253.785 1490.24,256.654 1492.21,259.539 1494.18,262.438 1496.16,265.352 1498.13,268.281 1500.11,271.223 1502.08,274.18 1504.05,277.149 1506.03,280.132 1508,283.128 1509.97,286.137 1511.95,289.159 1513.92,292.192 1515.9,295.238 1517.87,298.295 1519.84,301.364 1521.82,304.444 1523.79,307.536 1525.77,310.637 1527.74,313.75 1529.71,316.873 1531.69,320.006 1533.66,323.148 1535.63,326.3 1537.61,329.462 1539.58,332.632 1541.56,335.812 1543.53,339 1545.5,342.196 1547.48,345.401 1549.45,348.614 1551.43,351.834 1553.4,355.062 1555.37,358.297 1557.35,361.539 1559.32,364.788 1561.3,368.043 1563.27,371.305 1565.24,374.573 1567.22,377.847 1569.19,381.126 1571.16,384.411 1573.14,387.702 1575.11,390.997 1577.09,394.298 1579.06,397.603 1581.03,400.913 1583.01,404.227 1584.98,407.545 1586.96,410.867 1588.93,414.192 1590.9,417.522 1592.88,420.854 1594.85,424.19 1596.82,427.528 1598.8,430.869 1600.77,434.213 1602.75,437.559 1604.72,440.908 1606.69,444.258 1608.67,447.611 1610.64,450.965 1612.62,454.32 1614.59,457.677 1616.56,461.035 1618.54,464.394 1620.51,467.754 1622.49,471.114 1624.46,474.475 1626.43,477.836 1628.41,481.198 1630.38,484.559 1632.35,487.921 1634.33,491.282 1636.3,494.642 1638.28,498.002 1640.25,501.362 1642.22,504.72 1644.2,508.078 1646.17,511.434 1648.15,514.789 1650.12,518.142 1652.09,521.494 1654.07,524.844 1656.04,528.193 1658.01,531.539 1659.99,534.883 1661.96,538.225 1663.94,541.565 1665.91,544.902 1667.88,548.237 1669.86,551.568 1671.83,554.897 1673.81,558.223 1675.78,561.546 1677.75,564.866 1679.73,568.182 1681.7,571.495 1683.67,574.805 1685.65,578.11 1687.62,581.412 1689.6,584.711 1691.57,588.005 1693.54,591.295 1695.52,594.581 1697.49,597.863 1699.47,601.14 1701.44,604.413 1703.41,607.681 1705.39,610.945 1707.36,614.204 1709.34,617.458 1711.31,620.707 1713.28,623.952 1715.26,627.191 1717.23,630.425 1719.2,633.654 1721.18,636.877 1723.15,640.096 1725.13,643.308 1727.1,646.515 1729.07,649.717 1731.05,652.913 1733.02,656.103 1735,659.287 1736.97,662.465 1738.94,665.638 1740.92,668.804 1742.89,671.964 1744.86,675.118 1746.84,678.266 1748.81,681.407 1750.79,684.542 1752.76,687.671 1754.73,690.793 1756.71,693.909 1758.68,697.018 1760.66,700.121 1762.63,703.217 1764.6,706.306 1766.58,709.388 1768.55,712.463 1770.52,715.532 1772.5,718.594 1774.47,721.648 1776.45,724.696 1778.42,727.737 1780.39,730.77 1782.37,733.796 1784.34,736.816 1786.32,739.827 1788.29,742.832 1790.26,745.829 1792.24,748.819 1794.21,751.802 1796.19,754.777 1798.16,757.745 1800.13,760.705 1802.11,763.658 1804.08,766.603 1806.05,769.541 1808.03,772.471 1810,775.394 1811.98,778.308 1813.95,781.215 1815.92,784.115 1817.9,787.007 1819.87,789.89 1821.85,792.767 1823.82,795.635 1825.79,798.496 1827.77,801.348 1829.74,804.193 1831.71,807.03 1833.69,809.859 1835.66,812.68 1837.64,815.494 1839.61,818.299 1841.58,821.096 1843.56,823.886 1845.53,826.667 1847.51,829.44 1849.48,832.206 1851.45,834.963 1853.43,837.712 1855.4,840.454 1857.37,843.187 1859.35,845.912 1861.32,848.629 1863.3,851.338 1865.27,854.039 1867.24,856.732 1869.22,859.417 1871.19,862.093 1873.17,864.762 1875.14,867.422 1877.11,870.074 1879.09,872.719 1881.06,875.355 1883.04,877.983 1885.01,880.602 1886.98,883.214 1888.96,885.818 1890.93,888.413 1892.9,891.001 1894.88,893.58 1896.85,896.151 1898.83,898.714 1900.8,901.269 1902.77,903.815 1904.75,906.354 1906.72,908.884 1908.7,911.407 1910.67,913.921 1912.64,916.427 1914.62,918.925 1916.59,921.415 1918.56,923.897 1920.54,926.371 1922.51,928.837 1924.49,931.295 1926.46,933.745 1928.43,936.186 1930.41,938.62 1932.38,941.046 1934.36,943.463 1936.33,945.873 1938.3,948.275 1940.28,950.668 1942.25,953.054 1944.23,955.432 1946.2,957.801 1948.17,960.163 1950.15,962.517 1952.12,964.863 1954.09,967.201 1956.07,969.531 1958.04,971.854 1960.02,974.168 1961.99,976.475 1963.96,978.773 1965.94,981.064 1967.91,983.347 1969.89,985.623 1971.86,987.89 1973.83,990.15 1975.81,992.402 1977.78,994.646 1979.75,996.883 1981.73,999.112 1983.7,1001.33 1985.68,1003.55 1987.65,1005.75 1989.62,1007.95 1991.6,1010.14 1993.57,1012.32 1995.55,1014.5 1997.52,1016.67 1999.49,1018.83 2001.47,1020.98 2003.44,1023.12 2005.41,1025.26 2007.39,1027.39 2009.36,1029.52 2011.34,1031.63 2013.31,1033.74 2015.28,1035.84 2017.26,1037.93 2019.23,1040.02 2021.21,1042.1 2023.18,1044.17 2025.15,1046.23 2027.13,1048.29 2029.1,1050.33 2031.08,1052.38 2033.05,1054.41 2035.02,1056.44 2037,1058.46 2038.97,1060.47 2040.94,1062.48 2042.92,1064.48 2044.89,1066.47 2046.87,1068.45 2048.84,1070.43 2050.81,1072.4 2052.79,1074.36 2054.76,1076.32 2056.74,1078.27 2058.71,1080.21 2060.68,1082.14 2062.66,1084.07 2064.63,1085.99 2066.6,1087.91 2068.58,1089.81 2070.55,1091.72 2072.53,1093.61 2074.5,1095.5 2076.47,1097.38 2078.45,1099.25 2080.42,1101.12 2082.4,1102.98 2084.37,1104.83 2086.34,1106.68 2088.32,1108.52 2090.29,1110.35 2092.26,1112.18 2094.24,1114 2096.21,1115.81 2098.19,1117.62 2100.16,1119.42 2102.13,1121.21 2104.11,1123 2106.08,1124.78 2108.06,1126.55 2110.03,1128.32 2112,1130.08 2113.98,1131.84 2115.95,1133.59 2117.93,1135.33 2119.9,1137.06 2121.87,1138.79 2123.85,1140.52 2125.82,1142.23 2127.79,1143.94 2129.77,1145.65 2131.74,1147.35 2133.72,1149.04 2135.69,1150.73 2137.66,1152.41 2139.64,1154.08 2141.61,1155.75 2143.59,1157.41 2145.56,1159.07 2147.53,1160.72 2149.51,1162.36 2151.48,1164 2153.45,1165.63 2155.43,1167.25 2157.4,1168.87 2159.38,1170.49 2161.35,1172.1 2163.32,1173.7 2165.3,1175.3 2167.27,1176.89 2169.25,1178.47 2171.22,1180.05 2173.19,1181.62 2175.17,1183.19 2177.14,1184.75 2179.11,1186.31 2181.09,1187.86 2183.06,1189.4 2185.04,1190.94 2187.01,1192.48 2188.98,1194.01 2190.96,1195.53 2192.93,1197.04 2194.91,1198.56 2196.88,1200.06 2198.85,1201.56 2200.83,1203.06 2202.8,1204.55 2204.78,1206.03 2206.75,1207.51 2208.72,1208.98 2210.7,1210.45 2212.67,1211.91 2214.64,1213.37 2216.62,1214.82 2218.59,1216.27 2220.57,1217.71 2222.54,1219.15 2224.51,1220.58 2226.49,1222.01 2228.46,1223.43 2230.44,1224.84 2232.41,1226.25 2234.38,1227.66 2236.36,1229.06 2238.33,1230.45 2240.3,1231.84 2242.28,1233.23 2244.25,1234.61 2246.23,1235.98 2248.2,1237.35 2250.17,1238.72 2252.15,1240.08 2254.12,1241.43 2256.1,1242.78 2258.07,1244.13 2260.04,1245.47 2262.02,1246.81 2263.99,1248.14 2265.97,1249.46 2267.94,1250.79 2269.91,1252.1 2271.89,1253.41 2273.86,1254.72 2275.83,1256.02 2277.81,1257.32 2279.78,1258.61 2281.76,1259.9 2283.73,1261.19 2285.7,1262.47 2287.68,1263.74 2289.65,1265.01 2291.63,1266.28 2293.6,1267.54 "/>
<path clip-path="url(#clip120)" d="M2021.63 196.789 L2283.08 196.789 L2283.08 93.1086 L2021.63 93.1086  Z" fill="#ffffff" fill-rule="evenodd" fill-opacity="1"/>
<polyline clip-path="url(#clip120)" style="stroke:#000000; stroke-linecap:round; stroke-linejoin:round; stroke-width:4; stroke-opacity:1; fill:none" points="2021.63,196.789 2283.08,196.789 2283.08,93.1086 2021.63,93.1086 2021.63,196.789 "/>
<polyline clip-path="url(#clip120)" style="stroke:#009af9; stroke-linecap:round; stroke-linejoin:round; stroke-width:4; stroke-opacity:1; fill:none" points="2044.86,144.949 2184.2,144.949 "/>
<path clip-path="url(#clip120)" d="M2221.27 164.636 Q2219.46 169.266 2217.75 170.678 Q2216.04 172.09 2213.17 172.09 L2209.77 172.09 L2209.77 168.525 L2212.27 168.525 Q2214.02 168.525 2215 167.692 Q2215.97 166.858 2217.15 163.756 L2217.91 161.812 L2207.43 136.303 L2211.94 136.303 L2220.04 156.581 L2228.15 136.303 L2232.66 136.303 L2221.27 164.636 Z" fill="#000000" fill-rule="nonzero" fill-opacity="1" /><path clip-path="url(#clip120)" d="M2239.95 158.293 L2247.59 158.293 L2247.59 131.928 L2239.28 133.595 L2239.28 129.335 L2247.54 127.669 L2252.22 127.669 L2252.22 158.293 L2259.86 158.293 L2259.86 162.229 L2239.95 162.229 L2239.95 158.293 Z" fill="#000000" fill-rule="nonzero" fill-opacity="1" /></svg>
