<?xml version="1.0" encoding="utf-8"?>
<svg xmlns="http://www.w3.org/2000/svg" xmlns:xlink="http://www.w3.org/1999/xlink" width="600" height="400" viewBox="0 0 2400 1600">
<defs>
  <clipPath id="clip630">
    <rect x="0" y="0" width="2400" height="1600"/>
  </clipPath>
</defs>
<path clip-path="url(#clip630)" d="M0 1600 L2400 1600 L2400 0 L0 0  Z" fill="#ffffff" fill-rule="evenodd" fill-opacity="1"/>
<defs>
  <clipPath id="clip631">
    <rect x="480" y="0" width="1681" height="1600"/>
  </clipPath>
</defs>
<path clip-path="url(#clip630)" d="M262.551 1423.18 L2352.76 1423.18 L2352.76 47.2441 L262.551 47.2441  Z" fill="#ffffff" fill-rule="evenodd" fill-opacity="1"/>
<defs>
  <clipPath id="clip632">
    <rect x="262" y="47" width="2091" height="1377"/>
  </clipPath>
</defs>
<polyline clip-path="url(#clip632)" style="stroke:#000000; stroke-linecap:round; stroke-linejoin:round; stroke-width:2; stroke-opacity:0.1; fill:none" points="518.897,1423.18 518.897,47.2441 "/>
<polyline clip-path="url(#clip632)" style="stroke:#000000; stroke-linecap:round; stroke-linejoin:round; stroke-width:2; stroke-opacity:0.1; fill:none" points="913.275,1423.18 913.275,47.2441 "/>
<polyline clip-path="url(#clip632)" style="stroke:#000000; stroke-linecap:round; stroke-linejoin:round; stroke-width:2; stroke-opacity:0.1; fill:none" points="1307.65,1423.18 1307.65,47.2441 "/>
<polyline clip-path="url(#clip632)" style="stroke:#000000; stroke-linecap:round; stroke-linejoin:round; stroke-width:2; stroke-opacity:0.1; fill:none" points="1702.03,1423.18 1702.03,47.2441 "/>
<polyline clip-path="url(#clip632)" style="stroke:#000000; stroke-linecap:round; stroke-linejoin:round; stroke-width:2; stroke-opacity:0.1; fill:none" points="2096.41,1423.18 2096.41,47.2441 "/>
<polyline clip-path="url(#clip632)" style="stroke:#000000; stroke-linecap:round; stroke-linejoin:round; stroke-width:2; stroke-opacity:0.1; fill:none" points="262.551,1384.24 2352.76,1384.24 "/>
<polyline clip-path="url(#clip632)" style="stroke:#000000; stroke-linecap:round; stroke-linejoin:round; stroke-width:2; stroke-opacity:0.1; fill:none" points="262.551,1042.66 2352.76,1042.66 "/>
<polyline clip-path="url(#clip632)" style="stroke:#000000; stroke-linecap:round; stroke-linejoin:round; stroke-width:2; stroke-opacity:0.1; fill:none" points="262.551,701.075 2352.76,701.075 "/>
<polyline clip-path="url(#clip632)" style="stroke:#000000; stroke-linecap:round; stroke-linejoin:round; stroke-width:2; stroke-opacity:0.1; fill:none" points="262.551,359.493 2352.76,359.493 "/>
<polyline clip-path="url(#clip630)" style="stroke:#000000; stroke-linecap:round; stroke-linejoin:round; stroke-width:4; stroke-opacity:1; fill:none" points="262.551,1423.18 2352.76,1423.18 "/>
<polyline clip-path="url(#clip630)" style="stroke:#000000; stroke-linecap:round; stroke-linejoin:round; stroke-width:4; stroke-opacity:1; fill:none" points="518.897,1423.18 518.897,1404.28 "/>
<polyline clip-path="url(#clip630)" style="stroke:#000000; stroke-linecap:round; stroke-linejoin:round; stroke-width:4; stroke-opacity:1; fill:none" points="913.275,1423.18 913.275,1404.28 "/>
<polyline clip-path="url(#clip630)" style="stroke:#000000; stroke-linecap:round; stroke-linejoin:round; stroke-width:4; stroke-opacity:1; fill:none" points="1307.65,1423.18 1307.65,1404.28 "/>
<polyline clip-path="url(#clip630)" style="stroke:#000000; stroke-linecap:round; stroke-linejoin:round; stroke-width:4; stroke-opacity:1; fill:none" points="1702.03,1423.18 1702.03,1404.28 "/>
<polyline clip-path="url(#clip630)" style="stroke:#000000; stroke-linecap:round; stroke-linejoin:round; stroke-width:4; stroke-opacity:1; fill:none" points="2096.41,1423.18 2096.41,1404.28 "/>
<path clip-path="url(#clip630)" d="M470.888 1481.64 L478.527 1481.64 L478.527 1455.28 L470.217 1456.95 L470.217 1452.69 L478.481 1451.02 L483.157 1451.02 L483.157 1481.64 L490.795 1481.64 L490.795 1485.58 L470.888 1485.58 L470.888 1481.64 Z" fill="#000000" fill-rule="nonzero" fill-opacity="1" /><path clip-path="url(#clip630)" d="M499.059 1451.02 L521.281 1451.02 L521.281 1453.01 L508.735 1485.58 L503.851 1485.58 L515.656 1454.96 L499.059 1454.96 L499.059 1451.02 Z" fill="#000000" fill-rule="nonzero" fill-opacity="1" /><path clip-path="url(#clip630)" d="M530.402 1479.7 L535.286 1479.7 L535.286 1485.58 L530.402 1485.58 L530.402 1479.7 Z" fill="#000000" fill-rule="nonzero" fill-opacity="1" /><path clip-path="url(#clip630)" d="M556.05 1466.44 Q552.902 1466.44 551.05 1468.59 Q549.221 1470.74 549.221 1474.49 Q549.221 1478.22 551.05 1480.39 Q552.902 1482.55 556.05 1482.55 Q559.198 1482.55 561.026 1480.39 Q562.878 1478.22 562.878 1474.49 Q562.878 1470.74 561.026 1468.59 Q559.198 1466.44 556.05 1466.44 M565.332 1451.78 L565.332 1456.04 Q563.573 1455.21 561.767 1454.77 Q559.985 1454.33 558.226 1454.33 Q553.596 1454.33 551.142 1457.45 Q548.712 1460.58 548.365 1466.9 Q549.73 1464.89 551.79 1463.82 Q553.851 1462.73 556.327 1462.73 Q561.536 1462.73 564.545 1465.9 Q567.577 1469.05 567.577 1474.49 Q567.577 1479.82 564.429 1483.03 Q561.281 1486.25 556.05 1486.25 Q550.054 1486.25 546.883 1481.67 Q543.712 1477.06 543.712 1468.33 Q543.712 1460.14 547.601 1455.28 Q551.489 1450.39 558.04 1450.39 Q559.8 1450.39 561.582 1450.74 Q563.388 1451.09 565.332 1451.78 Z" fill="#000000" fill-rule="nonzero" fill-opacity="1" /><path clip-path="url(#clip630)" d="M865.394 1481.64 L873.032 1481.64 L873.032 1455.28 L864.722 1456.95 L864.722 1452.69 L872.986 1451.02 L877.662 1451.02 L877.662 1481.64 L885.301 1481.64 L885.301 1485.58 L865.394 1485.58 L865.394 1481.64 Z" fill="#000000" fill-rule="nonzero" fill-opacity="1" /><path clip-path="url(#clip630)" d="M893.565 1451.02 L915.787 1451.02 L915.787 1453.01 L903.241 1485.58 L898.356 1485.58 L910.162 1454.96 L893.565 1454.96 L893.565 1451.02 Z" fill="#000000" fill-rule="nonzero" fill-opacity="1" /><path clip-path="url(#clip630)" d="M924.907 1479.7 L929.791 1479.7 L929.791 1485.58 L924.907 1485.58 L924.907 1479.7 Z" fill="#000000" fill-rule="nonzero" fill-opacity="1" /><path clip-path="url(#clip630)" d="M949.977 1469.17 Q946.643 1469.17 944.722 1470.95 Q942.824 1472.73 942.824 1475.86 Q942.824 1478.98 944.722 1480.77 Q946.643 1482.55 949.977 1482.55 Q953.31 1482.55 955.231 1480.77 Q957.152 1478.96 957.152 1475.86 Q957.152 1472.73 955.231 1470.95 Q953.333 1469.17 949.977 1469.17 M945.301 1467.18 Q942.291 1466.44 940.602 1464.38 Q938.935 1462.32 938.935 1459.35 Q938.935 1455.21 941.875 1452.8 Q944.838 1450.39 949.977 1450.39 Q955.139 1450.39 958.078 1452.8 Q961.018 1455.21 961.018 1459.35 Q961.018 1462.32 959.328 1464.38 Q957.662 1466.44 954.676 1467.18 Q958.055 1467.96 959.93 1470.26 Q961.828 1472.55 961.828 1475.86 Q961.828 1480.88 958.75 1483.57 Q955.694 1486.25 949.977 1486.25 Q944.259 1486.25 941.18 1483.57 Q938.125 1480.88 938.125 1475.86 Q938.125 1472.55 940.023 1470.26 Q941.921 1467.96 945.301 1467.18 M943.588 1459.79 Q943.588 1462.48 945.254 1463.98 Q946.944 1465.49 949.977 1465.49 Q952.986 1465.49 954.676 1463.98 Q956.389 1462.48 956.389 1459.79 Q956.389 1457.11 954.676 1455.6 Q952.986 1454.1 949.977 1454.1 Q946.944 1454.1 945.254 1455.6 Q943.588 1457.11 943.588 1459.79 Z" fill="#000000" fill-rule="nonzero" fill-opacity="1" /><path clip-path="url(#clip630)" d="M1259.73 1481.64 L1267.36 1481.64 L1267.36 1455.28 L1259.05 1456.95 L1259.05 1452.69 L1267.32 1451.02 L1271.99 1451.02 L1271.99 1481.64 L1279.63 1481.64 L1279.63 1485.58 L1259.73 1485.58 L1259.73 1481.64 Z" fill="#000000" fill-rule="nonzero" fill-opacity="1" /><path clip-path="url(#clip630)" d="M1299.08 1469.17 Q1295.74 1469.17 1293.82 1470.95 Q1291.92 1472.73 1291.92 1475.86 Q1291.92 1478.98 1293.82 1480.77 Q1295.74 1482.55 1299.08 1482.55 Q1302.41 1482.55 1304.33 1480.77 Q1306.25 1478.96 1306.25 1475.86 Q1306.25 1472.73 1304.33 1470.95 Q1302.43 1469.17 1299.08 1469.17 M1294.4 1467.18 Q1291.39 1466.44 1289.7 1464.38 Q1288.04 1462.32 1288.04 1459.35 Q1288.04 1455.21 1290.98 1452.8 Q1293.94 1450.39 1299.08 1450.39 Q1304.24 1450.39 1307.18 1452.8 Q1310.12 1455.21 1310.12 1459.35 Q1310.12 1462.32 1308.43 1464.38 Q1306.76 1466.44 1303.78 1467.18 Q1307.16 1467.96 1309.03 1470.26 Q1310.93 1472.55 1310.93 1475.86 Q1310.93 1480.88 1307.85 1483.57 Q1304.79 1486.25 1299.08 1486.25 Q1293.36 1486.25 1290.28 1483.57 Q1287.23 1480.88 1287.23 1475.86 Q1287.23 1472.55 1289.12 1470.26 Q1291.02 1467.96 1294.4 1467.18 M1292.69 1459.79 Q1292.69 1462.48 1294.36 1463.98 Q1296.04 1465.49 1299.08 1465.49 Q1302.09 1465.49 1303.78 1463.98 Q1305.49 1462.48 1305.49 1459.79 Q1305.49 1457.11 1303.78 1455.6 Q1302.09 1454.1 1299.08 1454.1 Q1296.04 1454.1 1294.36 1455.6 Q1292.69 1457.11 1292.69 1459.79 Z" fill="#000000" fill-rule="nonzero" fill-opacity="1" /><path clip-path="url(#clip630)" d="M1319.24 1479.7 L1324.12 1479.7 L1324.12 1485.58 L1319.24 1485.58 L1319.24 1479.7 Z" fill="#000000" fill-rule="nonzero" fill-opacity="1" /><path clip-path="url(#clip630)" d="M1344.31 1454.1 Q1340.7 1454.1 1338.87 1457.66 Q1337.06 1461.2 1337.06 1468.33 Q1337.06 1475.44 1338.87 1479.01 Q1340.7 1482.55 1344.31 1482.55 Q1347.94 1482.55 1349.75 1479.01 Q1351.58 1475.44 1351.58 1468.33 Q1351.58 1461.2 1349.75 1457.66 Q1347.94 1454.1 1344.31 1454.1 M1344.31 1450.39 Q1350.12 1450.39 1353.17 1455 Q1356.25 1459.58 1356.25 1468.33 Q1356.25 1477.06 1353.17 1481.67 Q1350.12 1486.25 1344.31 1486.25 Q1338.5 1486.25 1335.42 1481.67 Q1332.36 1477.06 1332.36 1468.33 Q1332.36 1459.58 1335.42 1455 Q1338.5 1450.39 1344.31 1450.39 Z" fill="#000000" fill-rule="nonzero" fill-opacity="1" /><path clip-path="url(#clip630)" d="M1654.9 1481.64 L1662.54 1481.64 L1662.54 1455.28 L1654.23 1456.95 L1654.23 1452.69 L1662.49 1451.02 L1667.17 1451.02 L1667.17 1481.64 L1674.81 1481.64 L1674.81 1485.58 L1654.9 1485.58 L1654.9 1481.64 Z" fill="#000000" fill-rule="nonzero" fill-opacity="1" /><path clip-path="url(#clip630)" d="M1694.25 1469.17 Q1690.92 1469.17 1689 1470.95 Q1687.1 1472.73 1687.1 1475.86 Q1687.1 1478.98 1689 1480.77 Q1690.92 1482.55 1694.25 1482.55 Q1697.59 1482.55 1699.51 1480.77 Q1701.43 1478.96 1701.43 1475.86 Q1701.43 1472.73 1699.51 1470.95 Q1697.61 1469.17 1694.25 1469.17 M1689.58 1467.18 Q1686.57 1466.44 1684.88 1464.38 Q1683.21 1462.32 1683.21 1459.35 Q1683.21 1455.21 1686.15 1452.8 Q1689.12 1450.39 1694.25 1450.39 Q1699.42 1450.39 1702.36 1452.8 Q1705.3 1455.21 1705.3 1459.35 Q1705.3 1462.32 1703.61 1464.38 Q1701.94 1466.44 1698.95 1467.18 Q1702.33 1467.96 1704.21 1470.26 Q1706.11 1472.55 1706.11 1475.86 Q1706.11 1480.88 1703.03 1483.57 Q1699.97 1486.25 1694.25 1486.25 Q1688.54 1486.25 1685.46 1483.57 Q1682.4 1480.88 1682.4 1475.86 Q1682.4 1472.55 1684.3 1470.26 Q1686.2 1467.96 1689.58 1467.18 M1687.87 1459.79 Q1687.87 1462.48 1689.53 1463.98 Q1691.22 1465.49 1694.25 1465.49 Q1697.26 1465.49 1698.95 1463.98 Q1700.67 1462.48 1700.67 1459.79 Q1700.67 1457.11 1698.95 1455.6 Q1697.26 1454.1 1694.25 1454.1 Q1691.22 1454.1 1689.53 1455.6 Q1687.87 1457.11 1687.87 1459.79 Z" fill="#000000" fill-rule="nonzero" fill-opacity="1" /><path clip-path="url(#clip630)" d="M1714.42 1479.7 L1719.3 1479.7 L1719.3 1485.58 L1714.42 1485.58 L1714.42 1479.7 Z" fill="#000000" fill-rule="nonzero" fill-opacity="1" /><path clip-path="url(#clip630)" d="M1733.51 1481.64 L1749.83 1481.64 L1749.83 1485.58 L1727.89 1485.58 L1727.89 1481.64 Q1730.55 1478.89 1735.13 1474.26 Q1739.74 1469.61 1740.92 1468.27 Q1743.17 1465.74 1744.05 1464.01 Q1744.95 1462.25 1744.95 1460.56 Q1744.95 1457.8 1743 1456.07 Q1741.08 1454.33 1737.98 1454.33 Q1735.78 1454.33 1733.33 1455.09 Q1730.9 1455.86 1728.12 1457.41 L1728.12 1452.69 Q1730.94 1451.55 1733.4 1450.97 Q1735.85 1450.39 1737.89 1450.39 Q1743.26 1450.39 1746.45 1453.08 Q1749.65 1455.77 1749.65 1460.26 Q1749.65 1462.39 1748.84 1464.31 Q1748.05 1466.2 1745.94 1468.8 Q1745.36 1469.47 1742.26 1472.69 Q1739.16 1475.88 1733.51 1481.64 Z" fill="#000000" fill-rule="nonzero" fill-opacity="1" /><path clip-path="url(#clip630)" d="M2048.24 1481.64 L2055.88 1481.64 L2055.88 1455.28 L2047.57 1456.95 L2047.57 1452.69 L2055.83 1451.02 L2060.51 1451.02 L2060.51 1481.64 L2068.15 1481.64 L2068.15 1485.58 L2048.24 1485.58 L2048.24 1481.64 Z" fill="#000000" fill-rule="nonzero" fill-opacity="1" /><path clip-path="url(#clip630)" d="M2087.59 1469.17 Q2084.26 1469.17 2082.34 1470.95 Q2080.44 1472.73 2080.44 1475.86 Q2080.44 1478.98 2082.34 1480.77 Q2084.26 1482.55 2087.59 1482.55 Q2090.92 1482.55 2092.85 1480.77 Q2094.77 1478.96 2094.77 1475.86 Q2094.77 1472.73 2092.85 1470.95 Q2090.95 1469.17 2087.59 1469.17 M2082.91 1467.18 Q2079.91 1466.44 2078.22 1464.38 Q2076.55 1462.32 2076.55 1459.35 Q2076.55 1455.21 2079.49 1452.8 Q2082.45 1450.39 2087.59 1450.39 Q2092.75 1450.39 2095.69 1452.8 Q2098.63 1455.21 2098.63 1459.35 Q2098.63 1462.32 2096.94 1464.38 Q2095.28 1466.44 2092.29 1467.18 Q2095.67 1467.96 2097.54 1470.26 Q2099.44 1472.55 2099.44 1475.86 Q2099.44 1480.88 2096.36 1483.57 Q2093.31 1486.25 2087.59 1486.25 Q2081.87 1486.25 2078.79 1483.57 Q2075.74 1480.88 2075.74 1475.86 Q2075.74 1472.55 2077.64 1470.26 Q2079.54 1467.96 2082.91 1467.18 M2081.2 1459.79 Q2081.2 1462.48 2082.87 1463.98 Q2084.56 1465.49 2087.59 1465.49 Q2090.6 1465.49 2092.29 1463.98 Q2094 1462.48 2094 1459.79 Q2094 1457.11 2092.29 1455.6 Q2090.6 1454.1 2087.59 1454.1 Q2084.56 1454.1 2082.87 1455.6 Q2081.2 1457.11 2081.2 1459.79 Z" fill="#000000" fill-rule="nonzero" fill-opacity="1" /><path clip-path="url(#clip630)" d="M2107.75 1479.7 L2112.64 1479.7 L2112.64 1485.58 L2107.75 1485.58 L2107.75 1479.7 Z" fill="#000000" fill-rule="nonzero" fill-opacity="1" /><path clip-path="url(#clip630)" d="M2135.67 1455.09 L2123.86 1473.54 L2135.67 1473.54 L2135.67 1455.09 M2134.44 1451.02 L2140.32 1451.02 L2140.32 1473.54 L2145.25 1473.54 L2145.25 1477.43 L2140.32 1477.43 L2140.32 1485.58 L2135.67 1485.58 L2135.67 1477.43 L2120.07 1477.43 L2120.07 1472.92 L2134.44 1451.02 Z" fill="#000000" fill-rule="nonzero" fill-opacity="1" /><path clip-path="url(#clip630)" d="M1015.82 1520.52 L1043.13 1520.52 L1043.13 1525.93 L1022.25 1525.93 L1022.25 1539.94 L1041.09 1539.94 L1041.09 1545.35 L1022.25 1545.35 L1022.25 1568.04 L1015.82 1568.04 L1015.82 1520.52 Z" fill="#000000" fill-rule="nonzero" fill-opacity="1" /><path clip-path="url(#clip630)" d="M1068.97 1537.87 Q1067.98 1537.3 1066.81 1537.04 Q1065.66 1536.76 1064.26 1536.76 Q1059.3 1536.76 1056.62 1540 Q1053.98 1543.22 1053.98 1549.27 L1053.98 1568.04 L1048.09 1568.04 L1048.09 1532.4 L1053.98 1532.4 L1053.98 1537.93 Q1055.83 1534.69 1058.79 1533.13 Q1061.75 1531.54 1065.98 1531.54 Q1066.58 1531.54 1067.32 1531.63 Q1068.05 1531.7 1068.94 1531.85 L1068.97 1537.87 Z" fill="#000000" fill-rule="nonzero" fill-opacity="1" /><path clip-path="url(#clip630)" d="M1104.17 1548.76 L1104.17 1551.62 L1077.25 1551.62 Q1077.63 1557.67 1080.88 1560.85 Q1084.15 1564 1089.98 1564 Q1093.35 1564 1096.5 1563.17 Q1099.69 1562.35 1102.81 1560.69 L1102.81 1566.23 Q1099.65 1567.57 1096.34 1568.27 Q1093.03 1568.97 1089.63 1568.97 Q1081.1 1568.97 1076.1 1564 Q1071.14 1559.04 1071.14 1550.57 Q1071.14 1541.82 1075.85 1536.69 Q1080.59 1531.54 1088.61 1531.54 Q1095.8 1531.54 1099.97 1536.18 Q1104.17 1540.8 1104.17 1548.76 M1098.32 1547.04 Q1098.25 1542.23 1095.61 1539.37 Q1093 1536.5 1088.67 1536.5 Q1083.77 1536.5 1080.81 1539.27 Q1077.88 1542.04 1077.44 1547.07 L1098.32 1547.04 Z" fill="#000000" fill-rule="nonzero" fill-opacity="1" /><path clip-path="url(#clip630)" d="M1117.29 1550.25 Q1117.29 1556.71 1119.93 1560.4 Q1122.6 1564.07 1127.25 1564.07 Q1131.9 1564.07 1134.57 1560.4 Q1137.24 1556.71 1137.24 1550.25 Q1137.24 1543.79 1134.57 1540.13 Q1131.9 1536.44 1127.25 1536.44 Q1122.6 1536.44 1119.93 1540.13 Q1117.29 1543.79 1117.29 1550.25 M1137.24 1562.7 Q1135.4 1565.88 1132.56 1567.44 Q1129.76 1568.97 1125.82 1568.97 Q1119.36 1568.97 1115.28 1563.81 Q1111.24 1558.65 1111.24 1550.25 Q1111.24 1541.85 1115.28 1536.69 Q1119.36 1531.54 1125.82 1531.54 Q1129.76 1531.54 1132.56 1533.1 Q1135.4 1534.62 1137.24 1537.81 L1137.24 1532.4 L1143.1 1532.4 L1143.1 1581.6 L1137.24 1581.6 L1137.24 1562.7 Z" fill="#000000" fill-rule="nonzero" fill-opacity="1" /><path clip-path="url(#clip630)" d="M1154.56 1553.98 L1154.56 1532.4 L1160.41 1532.4 L1160.41 1553.75 Q1160.41 1558.81 1162.39 1561.36 Q1164.36 1563.87 1168.31 1563.87 Q1173.05 1563.87 1175.79 1560.85 Q1178.56 1557.83 1178.56 1552.61 L1178.56 1532.4 L1184.41 1532.4 L1184.41 1568.04 L1178.56 1568.04 L1178.56 1562.57 Q1176.42 1565.82 1173.59 1567.41 Q1170.79 1568.97 1167.07 1568.97 Q1160.92 1568.97 1157.74 1565.15 Q1154.56 1561.33 1154.56 1553.98 M1169.29 1531.54 L1169.29 1531.54 Z" fill="#000000" fill-rule="nonzero" fill-opacity="1" /><path clip-path="url(#clip630)" d="M1226.97 1548.76 L1226.97 1551.62 L1200.04 1551.62 Q1200.42 1557.67 1203.67 1560.85 Q1206.95 1564 1212.77 1564 Q1216.15 1564 1219.3 1563.17 Q1222.48 1562.35 1225.6 1560.69 L1225.6 1566.23 Q1222.45 1567.57 1219.14 1568.27 Q1215.83 1568.97 1212.42 1568.97 Q1203.89 1568.97 1198.9 1564 Q1193.93 1559.04 1193.93 1550.57 Q1193.93 1541.82 1198.64 1536.69 Q1203.38 1531.54 1211.4 1531.54 Q1218.6 1531.54 1222.77 1536.18 Q1226.97 1540.8 1226.97 1548.76 M1221.11 1547.04 Q1221.05 1542.23 1218.41 1539.37 Q1215.8 1536.5 1211.47 1536.5 Q1206.57 1536.5 1203.61 1539.27 Q1200.68 1542.04 1200.23 1547.07 L1221.11 1547.04 Z" fill="#000000" fill-rule="nonzero" fill-opacity="1" /><path clip-path="url(#clip630)" d="M1266.21 1546.53 L1266.21 1568.04 L1260.36 1568.04 L1260.36 1546.72 Q1260.36 1541.66 1258.38 1539.14 Q1256.41 1536.63 1252.46 1536.63 Q1247.72 1536.63 1244.98 1539.65 Q1242.25 1542.68 1242.25 1547.9 L1242.25 1568.04 L1236.36 1568.04 L1236.36 1532.4 L1242.25 1532.4 L1242.25 1537.93 Q1244.35 1534.72 1247.18 1533.13 Q1250.04 1531.54 1253.77 1531.54 Q1259.91 1531.54 1263.06 1535.36 Q1266.21 1539.14 1266.21 1546.53 Z" fill="#000000" fill-rule="nonzero" fill-opacity="1" /><path clip-path="url(#clip630)" d="M1303.55 1533.76 L1303.55 1539.24 Q1301.07 1537.87 1298.55 1537.2 Q1296.07 1536.5 1293.52 1536.5 Q1287.82 1536.5 1284.67 1540.13 Q1281.52 1543.73 1281.52 1550.25 Q1281.52 1556.78 1284.67 1560.4 Q1287.82 1564 1293.52 1564 Q1296.07 1564 1298.55 1563.33 Q1301.07 1562.63 1303.55 1561.26 L1303.55 1566.68 Q1301.1 1567.82 1298.46 1568.39 Q1295.85 1568.97 1292.89 1568.97 Q1284.83 1568.97 1280.09 1563.91 Q1275.35 1558.85 1275.35 1550.25 Q1275.35 1541.53 1280.12 1536.53 Q1284.93 1531.54 1293.27 1531.54 Q1295.97 1531.54 1298.55 1532.11 Q1301.13 1532.65 1303.55 1533.76 Z" fill="#000000" fill-rule="nonzero" fill-opacity="1" /><path clip-path="url(#clip630)" d="M1313.73 1532.4 L1319.59 1532.4 L1319.59 1568.04 L1313.73 1568.04 L1313.73 1532.4 M1313.73 1518.52 L1319.59 1518.52 L1319.59 1525.93 L1313.73 1525.93 L1313.73 1518.52 Z" fill="#000000" fill-rule="nonzero" fill-opacity="1" /><path clip-path="url(#clip630)" d="M1362.33 1548.76 L1362.33 1551.62 L1335.41 1551.62 Q1335.79 1557.67 1339.04 1560.85 Q1342.31 1564 1348.14 1564 Q1351.51 1564 1354.66 1563.17 Q1357.85 1562.35 1360.97 1560.69 L1360.97 1566.23 Q1357.82 1567.57 1354.51 1568.27 Q1351.19 1568.97 1347.79 1568.97 Q1339.26 1568.97 1334.26 1564 Q1329.3 1559.04 1329.3 1550.57 Q1329.3 1541.82 1334.01 1536.69 Q1338.75 1531.54 1346.77 1531.54 Q1353.96 1531.54 1358.13 1536.18 Q1362.33 1540.8 1362.33 1548.76 M1356.48 1547.04 Q1356.41 1542.23 1353.77 1539.37 Q1351.16 1536.5 1346.83 1536.5 Q1341.93 1536.5 1338.97 1539.27 Q1336.04 1542.04 1335.6 1547.07 L1356.48 1547.04 Z" fill="#000000" fill-rule="nonzero" fill-opacity="1" /><path clip-path="url(#clip630)" d="M1394.67 1533.45 L1394.67 1538.98 Q1392.19 1537.71 1389.52 1537.07 Q1386.84 1536.44 1383.98 1536.44 Q1379.62 1536.44 1377.42 1537.77 Q1375.26 1539.11 1375.26 1541.79 Q1375.26 1543.82 1376.82 1545 Q1378.38 1546.15 1383.09 1547.2 L1385.09 1547.64 Q1391.33 1548.98 1393.94 1551.43 Q1396.58 1553.85 1396.58 1558.21 Q1396.58 1563.17 1392.64 1566.07 Q1388.72 1568.97 1381.85 1568.97 Q1378.98 1568.97 1375.86 1568.39 Q1372.77 1567.85 1369.34 1566.74 L1369.34 1560.69 Q1372.58 1562.38 1375.73 1563.24 Q1378.89 1564.07 1381.97 1564.07 Q1386.11 1564.07 1388.34 1562.66 Q1390.57 1561.23 1390.57 1558.65 Q1390.57 1556.27 1388.94 1554.99 Q1387.35 1553.72 1381.91 1552.54 L1379.87 1552.07 Q1374.43 1550.92 1372.01 1548.56 Q1369.59 1546.18 1369.59 1542.04 Q1369.59 1537.01 1373.16 1534.27 Q1376.72 1531.54 1383.28 1531.54 Q1386.52 1531.54 1389.39 1532.01 Q1392.25 1532.49 1394.67 1533.45 Z" fill="#000000" fill-rule="nonzero" fill-opacity="1" /><path clip-path="url(#clip630)" d="M1426.09 1518.52 L1439.58 1518.52 L1439.58 1523.07 L1431.94 1523.07 L1431.94 1572.09 L1439.58 1572.09 L1439.58 1576.64 L1426.09 1576.64 L1426.09 1518.52 Z" fill="#000000" fill-rule="nonzero" fill-opacity="1" /><path clip-path="url(#clip630)" d="M1484.72 1561.26 L1484.72 1548.5 L1474.21 1548.5 L1474.21 1543.22 L1491.08 1543.22 L1491.08 1563.62 Q1487.36 1566.26 1482.87 1567.63 Q1478.38 1568.97 1473.29 1568.97 Q1462.15 1568.97 1455.85 1562.47 Q1449.58 1555.95 1449.58 1544.33 Q1449.58 1532.68 1455.85 1526.19 Q1462.15 1519.66 1473.29 1519.66 Q1477.94 1519.66 1482.11 1520.81 Q1486.31 1521.96 1489.84 1524.18 L1489.84 1531.03 Q1486.28 1528 1482.26 1526.48 Q1478.25 1524.95 1473.83 1524.95 Q1465.11 1524.95 1460.72 1529.82 Q1456.36 1534.69 1456.36 1544.33 Q1456.36 1553.94 1460.72 1558.81 Q1465.11 1563.68 1473.83 1563.68 Q1477.24 1563.68 1479.91 1563.11 Q1482.58 1562.51 1484.72 1561.26 Z" fill="#000000" fill-rule="nonzero" fill-opacity="1" /><path clip-path="url(#clip630)" d="M1502.83 1520.52 L1509.26 1520.52 L1509.26 1540 L1532.62 1540 L1532.62 1520.52 L1539.05 1520.52 L1539.05 1568.04 L1532.62 1568.04 L1532.62 1545.41 L1509.26 1545.41 L1509.26 1568.04 L1502.83 1568.04 L1502.83 1520.52 Z" fill="#000000" fill-rule="nonzero" fill-opacity="1" /><path clip-path="url(#clip630)" d="M1549.04 1532.4 L1576.86 1532.4 L1576.86 1537.74 L1554.83 1563.37 L1576.86 1563.37 L1576.86 1568.04 L1548.25 1568.04 L1548.25 1562.7 L1570.27 1537.07 L1549.04 1537.07 L1549.04 1532.4 Z" fill="#000000" fill-rule="nonzero" fill-opacity="1" /><path clip-path="url(#clip630)" d="M1599.49 1518.52 L1599.49 1576.64 L1585.99 1576.64 L1585.99 1572.09 L1593.6 1572.09 L1593.6 1523.07 L1585.99 1523.07 L1585.99 1518.52 L1599.49 1518.52 Z" fill="#000000" fill-rule="nonzero" fill-opacity="1" /><polyline clip-path="url(#clip630)" style="stroke:#000000; stroke-linecap:round; stroke-linejoin:round; stroke-width:4; stroke-opacity:1; fill:none" points="262.551,1423.18 262.551,47.2441 "/>
<polyline clip-path="url(#clip630)" style="stroke:#000000; stroke-linecap:round; stroke-linejoin:round; stroke-width:4; stroke-opacity:1; fill:none" points="262.551,1384.24 281.449,1384.24 "/>
<polyline clip-path="url(#clip630)" style="stroke:#000000; stroke-linecap:round; stroke-linejoin:round; stroke-width:4; stroke-opacity:1; fill:none" points="262.551,1042.66 281.449,1042.66 "/>
<polyline clip-path="url(#clip630)" style="stroke:#000000; stroke-linecap:round; stroke-linejoin:round; stroke-width:4; stroke-opacity:1; fill:none" points="262.551,701.075 281.449,701.075 "/>
<polyline clip-path="url(#clip630)" style="stroke:#000000; stroke-linecap:round; stroke-linejoin:round; stroke-width:4; stroke-opacity:1; fill:none" points="262.551,359.493 281.449,359.493 "/>
<path clip-path="url(#clip630)" d="M214.607 1370.04 Q210.996 1370.04 209.167 1373.6 Q207.362 1377.14 207.362 1384.27 Q207.362 1391.38 209.167 1394.95 Q210.996 1398.49 214.607 1398.49 Q218.241 1398.49 220.047 1394.95 Q221.875 1391.38 221.875 1384.27 Q221.875 1377.14 220.047 1373.6 Q218.241 1370.04 214.607 1370.04 M214.607 1366.33 Q220.417 1366.33 223.473 1370.94 Q226.551 1375.52 226.551 1384.27 Q226.551 1393 223.473 1397.61 Q220.417 1402.19 214.607 1402.19 Q208.797 1402.19 205.718 1397.61 Q202.662 1393 202.662 1384.27 Q202.662 1375.52 205.718 1370.94 Q208.797 1366.33 214.607 1366.33 Z" fill="#000000" fill-rule="nonzero" fill-opacity="1" /><path clip-path="url(#clip630)" d="M144.329 1025.38 L162.686 1025.38 L162.686 1029.31 L148.612 1029.31 L148.612 1037.78 Q149.63 1037.44 150.649 1037.28 Q151.667 1037.09 152.686 1037.09 Q158.473 1037.09 161.852 1040.26 Q165.232 1043.43 165.232 1048.85 Q165.232 1054.43 161.76 1057.53 Q158.288 1060.61 151.968 1060.61 Q149.792 1060.61 147.524 1060.24 Q145.279 1059.87 142.871 1059.13 L142.871 1054.43 Q144.954 1055.56 147.177 1056.12 Q149.399 1056.67 151.876 1056.67 Q155.88 1056.67 158.218 1054.57 Q160.556 1052.46 160.556 1048.85 Q160.556 1045.24 158.218 1043.13 Q155.88 1041.02 151.876 1041.02 Q150.001 1041.02 148.126 1041.44 Q146.274 1041.86 144.329 1042.74 L144.329 1025.38 Z" fill="#000000" fill-rule="nonzero" fill-opacity="1" /><path clip-path="url(#clip630)" d="M184.445 1028.46 Q180.834 1028.46 179.005 1032.02 Q177.2 1035.56 177.2 1042.69 Q177.2 1049.8 179.005 1053.36 Q180.834 1056.9 184.445 1056.9 Q188.079 1056.9 189.885 1053.36 Q191.713 1049.8 191.713 1042.69 Q191.713 1035.56 189.885 1032.02 Q188.079 1028.46 184.445 1028.46 M184.445 1024.75 Q190.255 1024.75 193.311 1029.36 Q196.389 1033.94 196.389 1042.69 Q196.389 1051.42 193.311 1056.02 Q190.255 1060.61 184.445 1060.61 Q178.635 1060.61 175.556 1056.02 Q172.501 1051.42 172.501 1042.69 Q172.501 1033.94 175.556 1029.36 Q178.635 1024.75 184.445 1024.75 Z" fill="#000000" fill-rule="nonzero" fill-opacity="1" /><path clip-path="url(#clip630)" d="M214.607 1028.46 Q210.996 1028.46 209.167 1032.02 Q207.362 1035.56 207.362 1042.69 Q207.362 1049.8 209.167 1053.36 Q210.996 1056.9 214.607 1056.9 Q218.241 1056.9 220.047 1053.36 Q221.875 1049.8 221.875 1042.69 Q221.875 1035.56 220.047 1032.02 Q218.241 1028.46 214.607 1028.46 M214.607 1024.75 Q220.417 1024.75 223.473 1029.36 Q226.551 1033.94 226.551 1042.69 Q226.551 1051.42 223.473 1056.02 Q220.417 1060.61 214.607 1060.61 Q208.797 1060.61 205.718 1056.02 Q202.662 1051.42 202.662 1042.69 Q202.662 1033.94 205.718 1029.36 Q208.797 1024.75 214.607 1024.75 Z" fill="#000000" fill-rule="nonzero" fill-opacity="1" /><path clip-path="url(#clip630)" d="M114.931 714.42 L122.57 714.42 L122.57 688.054 L114.26 689.721 L114.26 685.461 L122.524 683.795 L127.2 683.795 L127.2 714.42 L134.839 714.42 L134.839 718.355 L114.931 718.355 L114.931 714.42 Z" fill="#000000" fill-rule="nonzero" fill-opacity="1" /><path clip-path="url(#clip630)" d="M154.283 686.873 Q150.672 686.873 148.843 690.438 Q147.038 693.98 147.038 701.11 Q147.038 708.216 148.843 711.781 Q150.672 715.322 154.283 715.322 Q157.917 715.322 159.723 711.781 Q161.552 708.216 161.552 701.11 Q161.552 693.98 159.723 690.438 Q157.917 686.873 154.283 686.873 M154.283 683.17 Q160.093 683.17 163.149 687.776 Q166.227 692.36 166.227 701.11 Q166.227 709.836 163.149 714.443 Q160.093 719.026 154.283 719.026 Q148.473 719.026 145.394 714.443 Q142.339 709.836 142.339 701.11 Q142.339 692.36 145.394 687.776 Q148.473 683.17 154.283 683.17 Z" fill="#000000" fill-rule="nonzero" fill-opacity="1" /><path clip-path="url(#clip630)" d="M184.445 686.873 Q180.834 686.873 179.005 690.438 Q177.2 693.98 177.2 701.11 Q177.2 708.216 179.005 711.781 Q180.834 715.322 184.445 715.322 Q188.079 715.322 189.885 711.781 Q191.713 708.216 191.713 701.11 Q191.713 693.98 189.885 690.438 Q188.079 686.873 184.445 686.873 M184.445 683.17 Q190.255 683.17 193.311 687.776 Q196.389 692.36 196.389 701.11 Q196.389 709.836 193.311 714.443 Q190.255 719.026 184.445 719.026 Q178.635 719.026 175.556 714.443 Q172.501 709.836 172.501 701.11 Q172.501 692.36 175.556 687.776 Q178.635 683.17 184.445 683.17 Z" fill="#000000" fill-rule="nonzero" fill-opacity="1" /><path clip-path="url(#clip630)" d="M214.607 686.873 Q210.996 686.873 209.167 690.438 Q207.362 693.98 207.362 701.11 Q207.362 708.216 209.167 711.781 Q210.996 715.322 214.607 715.322 Q218.241 715.322 220.047 711.781 Q221.875 708.216 221.875 701.11 Q221.875 693.98 220.047 690.438 Q218.241 686.873 214.607 686.873 M214.607 683.17 Q220.417 683.17 223.473 687.776 Q226.551 692.36 226.551 701.11 Q226.551 709.836 223.473 714.443 Q220.417 719.026 214.607 719.026 Q208.797 719.026 205.718 714.443 Q202.662 709.836 202.662 701.11 Q202.662 692.36 205.718 687.776 Q208.797 683.17 214.607 683.17 Z" fill="#000000" fill-rule="nonzero" fill-opacity="1" /><path clip-path="url(#clip630)" d="M114.931 372.837 L122.57 372.837 L122.57 346.472 L114.26 348.139 L114.26 343.879 L122.524 342.213 L127.2 342.213 L127.2 372.837 L134.839 372.837 L134.839 376.773 L114.931 376.773 L114.931 372.837 Z" fill="#000000" fill-rule="nonzero" fill-opacity="1" /><path clip-path="url(#clip630)" d="M144.329 342.213 L162.686 342.213 L162.686 346.148 L148.612 346.148 L148.612 354.62 Q149.63 354.273 150.649 354.111 Q151.667 353.926 152.686 353.926 Q158.473 353.926 161.852 357.097 Q165.232 360.268 165.232 365.685 Q165.232 371.263 161.76 374.365 Q158.288 377.444 151.968 377.444 Q149.792 377.444 147.524 377.074 Q145.279 376.703 142.871 375.962 L142.871 371.263 Q144.954 372.398 147.177 372.953 Q149.399 373.509 151.876 373.509 Q155.88 373.509 158.218 371.402 Q160.556 369.296 160.556 365.685 Q160.556 362.074 158.218 359.967 Q155.88 357.861 151.876 357.861 Q150.001 357.861 148.126 358.277 Q146.274 358.694 144.329 359.574 L144.329 342.213 Z" fill="#000000" fill-rule="nonzero" fill-opacity="1" /><path clip-path="url(#clip630)" d="M184.445 345.291 Q180.834 345.291 179.005 348.856 Q177.2 352.398 177.2 359.527 Q177.2 366.634 179.005 370.199 Q180.834 373.74 184.445 373.74 Q188.079 373.74 189.885 370.199 Q191.713 366.634 191.713 359.527 Q191.713 352.398 189.885 348.856 Q188.079 345.291 184.445 345.291 M184.445 341.588 Q190.255 341.588 193.311 346.194 Q196.389 350.777 196.389 359.527 Q196.389 368.254 193.311 372.861 Q190.255 377.444 184.445 377.444 Q178.635 377.444 175.556 372.861 Q172.501 368.254 172.501 359.527 Q172.501 350.777 175.556 346.194 Q178.635 341.588 184.445 341.588 Z" fill="#000000" fill-rule="nonzero" fill-opacity="1" /><path clip-path="url(#clip630)" d="M214.607 345.291 Q210.996 345.291 209.167 348.856 Q207.362 352.398 207.362 359.527 Q207.362 366.634 209.167 370.199 Q210.996 373.74 214.607 373.74 Q218.241 373.74 220.047 370.199 Q221.875 366.634 221.875 359.527 Q221.875 352.398 220.047 348.856 Q218.241 345.291 214.607 345.291 M214.607 341.588 Q220.417 341.588 223.473 346.194 Q226.551 350.777 226.551 359.527 Q226.551 368.254 223.473 372.861 Q220.417 377.444 214.607 377.444 Q208.797 377.444 205.718 372.861 Q202.662 368.254 202.662 359.527 Q202.662 350.777 205.718 346.194 Q208.797 341.588 214.607 341.588 Z" fill="#000000" fill-rule="nonzero" fill-opacity="1" /><path clip-path="url(#clip630)" d="M41.3104 969.884 L58.7206 969.884 L58.7206 959.571 Q58.7206 954.383 56.5881 951.901 Q54.4238 949.386 49.9996 949.386 Q45.5436 949.386 43.4429 951.901 Q41.3104 954.383 41.3104 959.571 L41.3104 969.884 M21.7677 969.884 L36.0905 969.884 L36.0905 960.367 Q36.0905 955.656 34.34 953.365 Q32.5576 951.041 28.9291 951.041 Q25.3325 951.041 23.5501 953.365 Q21.7677 955.656 21.7677 960.367 L21.7677 969.884 M16.4842 976.313 L16.4842 959.89 Q16.4842 952.537 19.5397 948.559 Q22.5952 944.58 28.2289 944.58 Q32.5894 944.58 35.1675 946.617 Q37.7456 948.654 38.3822 952.601 Q39.4007 947.858 42.6472 945.248 Q45.8619 942.607 50.6998 942.607 Q57.0655 942.607 60.5348 946.935 Q64.0042 951.264 64.0042 959.253 L64.0042 976.313 L16.4842 976.313 Z" fill="#000000" fill-rule="nonzero" fill-opacity="1" /><path clip-path="url(#clip630)" d="M32.4621 918.035 Q32.4621 922.746 36.1542 925.483 Q39.8145 928.22 46.212 928.22 Q52.6095 928.22 56.3017 925.515 Q59.9619 922.778 59.9619 918.035 Q59.9619 913.356 56.2698 910.619 Q52.5777 907.882 46.212 907.882 Q39.8781 907.882 36.186 910.619 Q32.4621 913.356 32.4621 918.035 M27.4968 918.035 Q27.4968 910.396 32.4621 906.036 Q37.4273 901.675 46.212 901.675 Q54.9649 901.675 59.9619 906.036 Q64.9272 910.396 64.9272 918.035 Q64.9272 925.706 59.9619 930.066 Q54.9649 934.395 46.212 934.395 Q37.4273 934.395 32.4621 930.066 Q27.4968 925.706 27.4968 918.035 Z" fill="#000000" fill-rule="nonzero" fill-opacity="1" /><path clip-path="url(#clip630)" d="M32.4621 878.154 Q32.4621 882.865 36.1542 885.602 Q39.8145 888.339 46.212 888.339 Q52.6095 888.339 56.3017 885.634 Q59.9619 882.896 59.9619 878.154 Q59.9619 873.475 56.2698 870.738 Q52.5777 868.001 46.212 868.001 Q39.8781 868.001 36.186 870.738 Q32.4621 873.475 32.4621 878.154 M27.4968 878.154 Q27.4968 870.515 32.4621 866.155 Q37.4273 861.794 46.212 861.794 Q54.9649 861.794 59.9619 866.155 Q64.9272 870.515 64.9272 878.154 Q64.9272 885.825 59.9619 890.185 Q54.9649 894.514 46.212 894.514 Q37.4273 894.514 32.4621 890.185 Q27.4968 885.825 27.4968 878.154 Z" fill="#000000" fill-rule="nonzero" fill-opacity="1" /><path clip-path="url(#clip630)" d="M29.4065 829.361 L34.9447 829.361 Q33.6716 831.843 33.035 834.517 Q32.3984 837.191 32.3984 840.055 Q32.3984 844.416 33.7352 846.612 Q35.072 848.776 37.7456 848.776 Q39.7826 848.776 40.9603 847.217 Q42.1061 845.657 43.1565 840.946 L43.6021 838.941 Q44.9389 832.703 47.3897 830.093 Q49.8086 827.451 54.1691 827.451 Q59.1344 827.451 62.0308 831.398 Q64.9272 835.313 64.9272 842.188 Q64.9272 845.052 64.3543 848.171 Q63.8132 851.259 62.6992 854.696 L56.6518 854.696 Q58.3387 851.45 59.198 848.299 Q60.0256 845.148 60.0256 842.06 Q60.0256 837.923 58.6251 835.695 Q57.1929 833.467 54.6147 833.467 Q52.2276 833.467 50.9545 835.09 Q49.6813 836.681 48.5037 842.124 L48.0262 844.161 Q46.8804 849.604 44.5251 852.023 Q42.138 854.442 38.0002 854.442 Q32.9713 854.442 30.2341 850.877 Q27.4968 847.312 27.4968 840.755 Q27.4968 837.509 27.9743 834.644 Q28.4517 831.78 29.4065 829.361 Z" fill="#000000" fill-rule="nonzero" fill-opacity="1" /><path clip-path="url(#clip630)" d="M18.2347 812.333 L28.3562 812.333 L28.3562 800.269 L32.9077 800.269 L32.9077 812.333 L52.2594 812.333 Q56.6199 812.333 57.8613 811.155 Q59.1026 809.945 59.1026 806.285 L59.1026 800.269 L64.0042 800.269 L64.0042 806.285 Q64.0042 813.065 61.4897 815.643 Q58.9434 818.221 52.2594 818.221 L32.9077 818.221 L32.9077 822.518 L28.3562 822.518 L28.3562 818.221 L18.2347 818.221 L18.2347 812.333 Z" fill="#000000" fill-rule="nonzero" fill-opacity="1" /><path clip-path="url(#clip630)" d="M16.4842 771.592 L16.4842 744.283 L21.895 744.283 L21.895 765.163 L35.8996 765.163 L35.8996 746.32 L41.3104 746.32 L41.3104 765.163 L64.0042 765.163 L64.0042 771.592 L16.4842 771.592 Z" fill="#000000" fill-rule="nonzero" fill-opacity="1" /><path clip-path="url(#clip630)" d="M46.0847 724.136 Q46.0847 731.233 47.7079 733.971 Q49.3312 736.708 53.2461 736.708 Q56.3653 736.708 58.2114 734.671 Q60.0256 732.602 60.0256 729.069 Q60.0256 724.199 56.5881 721.271 Q53.1188 718.311 47.3897 718.311 L46.0847 718.311 L46.0847 724.136 M43.6657 712.455 L64.0042 712.455 L64.0042 718.311 L58.5933 718.311 Q61.8398 720.316 63.3994 723.308 Q64.9272 726.3 64.9272 730.629 Q64.9272 736.103 61.8716 739.35 Q58.7843 742.564 53.6281 742.564 Q47.6125 742.564 44.5569 738.554 Q41.5014 734.512 41.5014 726.523 L41.5014 718.311 L40.9285 718.311 Q36.8862 718.311 34.6901 720.985 Q32.4621 723.626 32.4621 728.432 Q32.4621 731.488 33.1941 734.384 Q33.9262 737.281 35.3903 739.954 L29.9795 739.954 Q28.7381 736.74 28.1334 733.716 Q27.4968 730.692 27.4968 727.828 Q27.4968 720.093 31.5072 716.274 Q35.5176 712.455 43.6657 712.455 Z" fill="#000000" fill-rule="nonzero" fill-opacity="1" /><path clip-path="url(#clip630)" d="M29.7248 674.738 L35.1993 674.738 Q33.8307 677.22 33.1623 679.735 Q32.4621 682.217 32.4621 684.764 Q32.4621 690.461 36.0905 693.612 Q39.6872 696.763 46.212 696.763 Q52.7369 696.763 56.3653 693.612 Q59.9619 690.461 59.9619 684.764 Q59.9619 682.217 59.2935 679.735 Q58.5933 677.22 57.2247 674.738 L62.6355 674.738 Q63.7814 677.189 64.3543 679.83 Q64.9272 682.44 64.9272 685.4 Q64.9272 693.453 59.8664 698.195 Q54.8057 702.938 46.212 702.938 Q37.491 702.938 32.4939 698.164 Q27.4968 693.357 27.4968 685.018 Q27.4968 682.313 28.0697 679.735 Q28.6108 677.157 29.7248 674.738 Z" fill="#000000" fill-rule="nonzero" fill-opacity="1" /><path clip-path="url(#clip630)" d="M18.2347 658.76 L28.3562 658.76 L28.3562 646.697 L32.9077 646.697 L32.9077 658.76 L52.2594 658.76 Q56.6199 658.76 57.8613 657.582 Q59.1026 656.373 59.1026 652.712 L59.1026 646.697 L64.0042 646.697 L64.0042 652.712 Q64.0042 659.492 61.4897 662.07 Q58.9434 664.648 52.2594 664.648 L32.9077 664.648 L32.9077 668.945 L28.3562 668.945 L28.3562 664.648 L18.2347 664.648 L18.2347 658.76 Z" fill="#000000" fill-rule="nonzero" fill-opacity="1" /><path clip-path="url(#clip630)" d="M32.4621 625.181 Q32.4621 629.891 36.1542 632.629 Q39.8145 635.366 46.212 635.366 Q52.6095 635.366 56.3017 632.66 Q59.9619 629.923 59.9619 625.181 Q59.9619 620.502 56.2698 617.765 Q52.5777 615.027 46.212 615.027 Q39.8781 615.027 36.186 617.765 Q32.4621 620.502 32.4621 625.181 M27.4968 625.181 Q27.4968 617.542 32.4621 613.181 Q37.4273 608.821 46.212 608.821 Q54.9649 608.821 59.9619 613.181 Q64.9272 617.542 64.9272 625.181 Q64.9272 632.851 59.9619 637.212 Q54.9649 641.541 46.212 641.541 Q37.4273 641.541 32.4621 637.212 Q27.4968 632.851 27.4968 625.181 Z" fill="#000000" fill-rule="nonzero" fill-opacity="1" /><path clip-path="url(#clip630)" d="M33.8307 578.456 Q33.2578 579.443 33.0032 580.621 Q32.7167 581.767 32.7167 583.167 Q32.7167 588.132 35.9632 590.806 Q39.1779 593.448 45.2253 593.448 L64.0042 593.448 L64.0042 599.336 L28.3562 599.336 L28.3562 593.448 L33.8944 593.448 Q30.6479 591.602 29.0883 588.642 Q27.4968 585.682 27.4968 581.448 Q27.4968 580.844 27.5923 580.112 Q27.656 579.379 27.8151 578.488 L33.8307 578.456 Z" fill="#000000" fill-rule="nonzero" fill-opacity="1" /><path clip-path="url(#clip630)" d="M61.808 545.737 L77.5631 545.737 L77.5631 551.625 L28.579 551.625 Q14.0652 551.625 14.0652 538.066 Q14.0652 524.252 26.3192 524.252 Q35.0402 524.252 38.223 529.727 Q41.0876 520.815 49.5858 520.815 Q64.6726 520.815 64.6726 536.156 Q64.6726 542.904 61.808 545.737 M54.1691 545.737 Q59.6755 542.204 59.6755 535.934 Q59.6755 526.767 49.6813 526.767 Q40.7057 526.767 41.4059 541.535 L35.995 541.535 Q35.995 529.982 25.8099 529.982 Q18.8395 529.982 18.8395 537.429 Q18.8395 545.737 28.77 545.737 L54.1691 545.737 Z" fill="#000000" fill-rule="nonzero" fill-opacity="1" /><path clip-path="url(#clip630)" d="M39.1142 507.606 L39.1142 494.111 L42.7427 494.111 L42.7427 513.144 L39.2416 513.144 Q38.2549 512.062 36.4725 510.057 Q26.7648 499.108 23.7729 499.108 Q21.6722 499.108 20.3991 500.763 Q19.0941 502.418 19.0941 505.124 Q19.0941 506.779 19.667 508.72 Q20.2081 510.662 21.3221 512.953 L17.4072 512.953 Q16.516 510.503 16.0704 508.402 Q15.6248 506.269 15.6248 504.455 Q15.6248 499.84 17.7255 497.071 Q19.8262 494.302 23.2636 494.302 Q27.6878 494.302 36.7271 504.837 Q38.2549 506.619 39.1142 507.606 Z" fill="#000000" fill-rule="nonzero" fill-opacity="1" /><polyline clip-path="url(#clip632)" style="stroke:#009af9; stroke-linecap:round; stroke-linejoin:round; stroke-width:4; stroke-opacity:1; fill:none" points="321.708,1377.84 323.682,1377.82 325.656,1377.8 327.63,1377.77 329.603,1377.75 331.577,1377.73 333.551,1377.71 335.525,1377.69 337.499,1377.66 339.473,1377.64 341.447,1377.62 343.42,1377.6 345.394,1377.58 347.368,1377.55 349.342,1377.53 351.316,1377.51 353.29,1377.49 355.264,1377.47 357.238,1377.45 359.211,1377.43 361.185,1377.4 363.159,1377.38 365.133,1377.36 367.107,1377.34 369.081,1377.32 371.055,1377.3 373.028,1377.28 375.002,1377.26 376.976,1377.24 378.95,1377.22 380.924,1377.2 382.898,1377.18 384.872,1377.16 386.846,1377.14 388.819,1377.12 390.793,1377.1 392.767,1377.08 394.741,1377.06 396.715,1377.04 398.689,1377.03 400.663,1377.01 402.636,1376.99 404.61,1376.97 406.584,1376.95 408.558,1376.93 410.532,1376.92 412.506,1376.9 414.48,1376.88 416.453,1376.87 418.427,1376.85 420.401,1376.83 422.375,1376.82 424.349,1376.8 426.323,1376.78 428.297,1376.77 430.271,1376.75 432.244,1376.74 434.218,1376.72 436.192,1376.71 438.166,1376.7 440.14,1376.68 442.114,1376.67 444.088,1376.66 446.061,1376.64 448.035,1376.63 450.009,1376.62 451.983,1376.61 453.957,1376.6 455.931,1376.58 457.905,1376.57 459.879,1376.56 461.852,1376.55 463.826,1376.54 465.8,1376.54 467.774,1376.53 469.748,1376.52 471.722,1376.51 473.696,1376.5 475.669,1376.5 477.643,1376.49 479.617,1376.49 481.591,1376.48 483.565,1376.48 485.539,1376.47 487.513,1376.47 489.486,1376.46 491.46,1376.46 493.434,1376.46 495.408,1376.46 497.382,1376.46 499.356,1376.46 501.33,1376.46 503.304,1376.46 505.277,1376.46 507.251,1376.46 509.225,1376.47 511.199,1376.47 513.173,1376.47 515.147,1376.48 517.121,1376.49 519.094,1376.49 521.068,1376.5 523.042,1376.51 525.016,1376.52 526.99,1376.53 528.964,1376.54 530.938,1376.55 532.912,1376.56 534.885,1376.57 536.859,1376.59 538.833,1376.6 540.807,1376.62 542.781,1376.63 544.755,1376.65 546.729,1376.67 548.702,1376.69 550.676,1376.71 552.65,1376.73 554.624,1376.76 556.598,1376.78 558.572,1376.8 560.546,1376.83 562.519,1376.86 564.493,1376.88 566.467,1376.91 568.441,1376.94 570.415,1376.97 572.389,1377.01 574.363,1377.04 576.337,1377.07 578.31,1377.11 580.284,1377.15 582.258,1377.19 584.232,1377.22 586.206,1377.27 588.18,1377.31 590.154,1377.35 592.127,1377.4 594.101,1377.44 596.075,1377.49 598.049,1377.54 600.023,1377.59 601.997,1377.64 603.971,1377.69 605.945,1377.74 607.918,1377.8 609.892,1377.86 611.866,1377.91 613.84,1377.97 615.814,1378.03 617.788,1378.1 619.762,1378.16 621.735,1378.22 623.709,1378.29 625.683,1378.36 627.657,1378.43 629.631,1378.5 631.605,1378.57 633.579,1378.64 635.553,1378.72 637.526,1378.79 639.5,1378.87 641.474,1378.95 643.448,1379.03 645.422,1379.11 647.396,1379.19 649.37,1379.28 651.343,1379.36 653.317,1379.45 655.291,1379.54 657.265,1379.62 659.239,1379.71 661.213,1379.8 663.187,1379.9 665.16,1379.99 667.134,1380.08 669.108,1380.18 671.082,1380.28 673.056,1380.37 675.03,1380.47 677.004,1380.57 678.978,1380.67 680.951,1380.77 682.925,1380.87 684.899,1380.97 686.873,1381.07 688.847,1381.17 690.821,1381.27 692.795,1381.38 694.768,1381.48 696.742,1381.58 698.716,1381.68 700.69,1381.79 702.664,1381.89 704.638,1381.99 706.612,1382.09 708.586,1382.19 710.559,1382.29 712.533,1382.39 714.507,1382.49 716.481,1382.59 718.455,1382.68 720.429,1382.78 722.403,1382.87 724.376,1382.96 726.35,1383.05 728.324,1383.14 730.298,1383.23 732.272,1383.31 734.246,1383.39 736.22,1383.47 738.193,1383.55 740.167,1383.62 742.141,1383.69 744.115,1383.76 746.089,1383.82 748.063,1383.88 750.037,1383.94 752.011,1383.99 753.984,1384.04 755.958,1384.08 757.932,1384.12 759.906,1384.15 761.88,1384.18 763.854,1384.2 765.828,1384.22 767.801,1384.23 769.775,1384.24 771.749,1384.24 773.723,1384.23 775.697,1384.22 777.671,1384.2 779.645,1384.17 781.619,1384.14 783.592,1384.1 785.566,1384.05 787.54,1383.99 789.514,1383.92 791.488,1383.85 793.462,1383.77 795.436,1383.68 797.409,1383.58 799.383,1383.47 801.357,1383.35 803.331,1383.22 805.305,1383.08 807.279,1382.93 809.253,1382.77 811.226,1382.6 813.2,1382.42 815.174,1382.23 817.148,1382.02 819.122,1381.81 821.096,1381.58 823.07,1381.35 825.044,1381.1 827.017,1380.83 828.991,1380.56 830.965,1380.27 832.939,1379.98 834.913,1379.66 836.887,1379.34 838.861,1379 840.834,1378.65 842.808,1378.29 844.782,1377.91 846.756,1377.52 848.73,1377.11 850.704,1376.69 852.678,1376.26 854.652,1375.81 856.625,1375.35 858.599,1374.87 860.573,1374.38 862.547,1373.88 864.521,1373.36 866.495,1372.82 868.469,1372.27 870.442,1371.71 872.416,1371.13 874.39,1370.53 876.364,1369.92 878.338,1369.29 880.312,1368.65 882.286,1367.99 884.26,1367.32 886.233,1366.63 888.207,1365.93 890.181,1365.21 892.155,1364.47 894.129,1363.71 896.103,1362.94 898.077,1362.16 900.05,1361.35 902.024,1360.53 903.998,1359.7 905.972,1358.85 907.946,1357.97 909.92,1357.09 911.894,1356.18 913.867,1355.26 915.841,1354.32 917.815,1353.36 919.789,1352.39 921.763,1351.4 923.737,1350.39 925.711,1349.36 927.685,1348.31 929.658,1347.25 931.632,1346.16 933.606,1345.06 935.58,1343.94 937.554,1342.79 939.528,1341.63 941.502,1340.45 943.475,1339.25 945.449,1338.03 947.423,1336.79 949.397,1335.53 951.371,1334.25 953.345,1332.94 955.319,1331.62 957.293,1330.27 959.266,1328.9 961.24,1327.51 963.214,1326.1 965.188,1324.66 967.162,1323.21 969.136,1321.72 971.11,1320.22 973.083,1318.68 975.057,1317.13 977.031,1315.55 979.005,1313.94 980.979,1312.31 982.953,1310.65 984.927,1308.96 986.9,1307.25 988.874,1305.51 990.848,1303.74 992.822,1301.94 994.796,1300.12 996.77,1298.26 998.744,1296.37 1000.72,1294.45 1002.69,1292.5 1004.67,1290.52 1006.64,1288.5 1008.61,1286.45 1010.59,1284.37 1012.56,1282.25 1014.53,1280.09 1016.51,1277.9 1018.48,1275.67 1020.46,1273.41 1022.43,1271.1 1024.4,1268.76 1026.38,1266.37 1028.35,1263.94 1030.33,1261.47 1032.3,1258.96 1034.27,1256.4 1036.25,1253.8 1038.22,1251.15 1040.19,1248.45 1042.17,1245.71 1044.14,1242.91 1046.12,1240.07 1048.09,1237.17 1050.06,1234.22 1052.04,1231.22 1054.01,1228.16 1055.99,1225.04 1057.96,1221.87 1059.93,1218.63 1061.91,1215.34 1063.88,1211.98 1065.86,1208.56 1067.83,1205.07 1069.8,1201.52 1071.78,1197.9 1073.75,1194.2 1075.72,1190.44 1077.7,1186.6 1079.67,1182.69 1081.65,1178.7 1083.62,1174.63 1085.59,1170.48 1087.57,1166.24 1089.54,1161.92 1091.52,1157.52 1093.49,1153.02 1095.46,1148.44 1097.44,1143.76 1099.41,1138.98 1101.38,1134.11 1103.36,1129.14 1105.33,1124.06 1107.31,1118.88 1109.28,1113.59 1111.25,1108.19 1113.23,1102.68 1115.2,1097.05 1117.18,1091.31 1119.15,1085.44 1121.12,1079.45 1123.1,1073.34 1125.07,1067.09 1127.04,1060.71 1129.02,1054.2 1130.99,1047.54 1132.97,1040.75 1134.94,1033.81 1136.91,1026.72 1138.89,1019.48 1140.86,1012.09 1142.84,1004.54 1144.81,996.832 1146.78,988.958 1148.76,980.917 1150.73,972.706 1152.71,964.321 1154.68,955.76 1156.65,947.019 1158.63,938.095 1160.6,928.985 1162.57,919.687 1164.55,910.196 1166.52,900.511 1168.5,890.628 1170.47,880.546 1172.44,870.261 1174.42,859.771 1176.39,849.075 1178.37,838.17 1180.34,827.055 1182.31,815.729 1184.29,804.189 1186.26,792.437 1188.23,780.47 1190.21,768.29 1192.18,755.896 1194.16,743.289 1196.13,730.471 1198.1,717.443 1200.08,704.208 1202.05,690.768 1204.03,677.128 1206,663.292 1207.97,649.264 1209.95,635.051 1211.92,620.66 1213.89,606.097 1215.87,591.371 1217.84,576.493 1219.82,561.471 1221.79,546.318 1223.76,531.047 1225.74,515.67 1227.71,500.203 1229.69,484.662 1231.66,469.063 1233.63,453.426 1235.61,437.771 1237.58,422.117 1239.56,406.487 1241.53,390.904 1243.5,375.393 1245.48,359.98 1247.45,344.691 1249.42,329.553 1251.4,314.596 1253.37,299.849 1255.35,285.342 1257.32,271.106 1259.29,257.173 1261.27,243.574 1263.24,230.342 1265.22,217.508 1267.19,205.105 1269.16,193.163 1271.14,181.715 1273.11,170.791 1275.08,160.421 1277.06,150.632 1279.03,141.452 1281.01,132.908 1282.98,125.022 1284.95,117.818 1286.93,111.315 1288.9,105.531 1290.88,100.482 1292.85,96.182 1294.82,92.6406 1296.8,89.8663 1298.77,87.8644 1300.75,86.6376 1302.72,86.1857 1304.69,86.5059 1306.67,87.5928 1308.64,89.4382 1310.61,92.0314 1312.59,95.3593 1314.56,99.4066 1316.54,104.155 1318.51,109.586 1320.48,115.678 1322.46,122.407 1324.43,129.748 1326.41,137.676 1328.38,146.164 1330.35,155.183 1332.33,164.705 1334.3,174.699 1336.27,185.138 1338.25,195.99 1340.22,207.225 1342.2,218.814 1344.17,230.727 1346.14,242.935 1348.12,255.409 1350.09,268.122 1352.07,281.044 1354.04,294.151 1356.01,307.416 1357.99,320.815 1359.96,334.324 1361.93,347.92 1363.91,361.581 1365.88,375.287 1367.86,389.018 1369.83,402.756 1371.8,416.483 1373.78,430.184 1375.75,443.842 1377.73,457.444 1379.7,470.976 1381.67,484.426 1383.65,497.784 1385.62,511.037 1387.6,524.179 1389.57,537.198 1391.54,550.089 1393.52,562.843 1395.49,575.455 1397.46,587.918 1399.44,600.229 1401.41,612.382 1403.39,624.374 1405.36,636.202 1407.33,647.862 1409.31,659.354 1411.28,670.675 1413.26,681.824 1415.23,692.799 1417.2,703.601 1419.18,714.229 1421.15,724.683 1423.12,734.964 1425.1,745.071 1427.07,755.006 1429.05,764.77 1431.02,774.363 1432.99,783.789 1434.97,793.046 1436.94,802.139 1438.92,811.067 1440.89,819.834 1442.86,828.441 1444.84,836.89 1446.81,845.184 1448.78,853.324 1450.76,861.313 1452.73,869.153 1454.71,876.847 1456.68,884.397 1458.65,891.804 1460.63,899.073 1462.6,906.204 1464.58,913.201 1466.55,920.066 1468.52,926.802 1470.5,933.41 1472.47,939.893 1474.45,946.253 1476.42,952.494 1478.39,958.616 1480.37,964.623 1482.34,970.517 1484.31,976.3 1486.29,981.974 1488.26,987.541 1490.24,993.005 1492.21,998.365 1494.18,1003.63 1496.16,1008.79 1498.13,1013.86 1500.11,1018.83 1502.08,1023.71 1504.05,1028.5 1506.03,1033.2 1508,1037.82 1509.97,1042.35 1511.95,1046.8 1513.92,1051.16 1515.9,1055.45 1517.87,1059.66 1519.84,1063.79 1521.82,1067.85 1523.79,1071.84 1525.77,1075.76 1527.74,1079.6 1529.71,1083.38 1531.69,1087.09 1533.66,1090.74 1535.63,1094.32 1537.61,1097.84 1539.58,1101.29 1541.56,1104.69 1543.53,1108.03 1545.5,1111.31 1547.48,1114.53 1549.45,1117.7 1551.43,1120.82 1553.4,1123.88 1555.37,1126.89 1557.35,1129.85 1559.32,1132.76 1561.3,1135.62 1563.27,1138.43 1565.24,1141.2 1567.22,1143.92 1569.19,1146.6 1571.16,1149.23 1573.14,1151.82 1575.11,1154.37 1577.09,1156.87 1579.06,1159.34 1581.03,1161.76 1583.01,1164.15 1584.98,1166.5 1586.96,1168.81 1588.93,1171.09 1590.9,1173.33 1592.88,1175.53 1594.85,1177.7 1596.82,1179.84 1598.8,1181.94 1600.77,1184.02 1602.75,1186.06 1604.72,1188.06 1606.69,1190.04 1608.67,1191.99 1610.64,1193.91 1612.62,1195.8 1614.59,1197.66 1616.56,1199.49 1618.54,1201.3 1620.51,1203.08 1622.49,1204.83 1624.46,1206.56 1626.43,1208.26 1628.41,1209.94 1630.38,1211.6 1632.35,1213.23 1634.33,1214.83 1636.3,1216.42 1638.28,1217.98 1640.25,1219.52 1642.22,1221.03 1644.2,1222.53 1646.17,1224 1648.15,1225.46 1650.12,1226.89 1652.09,1228.31 1654.07,1229.7 1656.04,1231.08 1658.01,1232.44 1659.99,1233.78 1661.96,1235.1 1663.94,1236.4 1665.91,1237.68 1667.88,1238.95 1669.86,1240.2 1671.83,1241.44 1673.81,1242.66 1675.78,1243.86 1677.75,1245.05 1679.73,1246.22 1681.7,1247.37 1683.67,1248.51 1685.65,1249.64 1687.62,1250.75 1689.6,1251.85 1691.57,1252.93 1693.54,1254 1695.52,1255.06 1697.49,1256.1 1699.47,1257.13 1701.44,1258.15 1703.41,1259.15 1705.39,1260.15 1707.36,1261.13 1709.34,1262.09 1711.31,1263.05 1713.28,1263.99 1715.26,1264.93 1717.23,1265.85 1719.2,1266.76 1721.18,1267.66 1723.15,1268.55 1725.13,1269.42 1727.1,1270.29 1729.07,1271.15 1731.05,1272 1733.02,1272.83 1735,1273.66 1736.97,1274.48 1738.94,1275.29 1740.92,1276.09 1742.89,1276.88 1744.86,1277.66 1746.84,1278.43 1748.81,1279.19 1750.79,1279.95 1752.76,1280.69 1754.73,1281.43 1756.71,1282.16 1758.68,1282.88 1760.66,1283.59 1762.63,1284.3 1764.6,1284.99 1766.58,1285.68 1768.55,1286.37 1770.52,1287.04 1772.5,1287.71 1774.47,1288.37 1776.45,1289.02 1778.42,1289.67 1780.39,1290.31 1782.37,1290.94 1784.34,1291.56 1786.32,1292.18 1788.29,1292.79 1790.26,1293.4 1792.24,1294 1794.21,1294.59 1796.19,1295.18 1798.16,1295.76 1800.13,1296.33 1802.11,1296.9 1804.08,1297.46 1806.05,1298.02 1808.03,1298.57 1810,1299.12 1811.98,1299.66 1813.95,1300.19 1815.92,1300.72 1817.9,1301.24 1819.87,1301.76 1821.85,1302.28 1823.82,1302.78 1825.79,1303.29 1827.77,1303.79 1829.74,1304.28 1831.71,1304.77 1833.69,1305.25 1835.66,1305.73 1837.64,1306.2 1839.61,1306.67 1841.58,1307.14 1843.56,1307.6 1845.53,1308.06 1847.51,1308.51 1849.48,1308.95 1851.45,1309.4 1853.43,1309.84 1855.4,1310.27 1857.37,1310.7 1859.35,1311.13 1861.32,1311.55 1863.3,1311.97 1865.27,1312.39 1867.24,1312.8 1869.22,1313.2 1871.19,1313.61 1873.17,1314.01 1875.14,1314.4 1877.11,1314.8 1879.09,1315.19 1881.06,1315.57 1883.04,1315.95 1885.01,1316.33 1886.98,1316.71 1888.96,1317.08 1890.93,1317.45 1892.9,1317.81 1894.88,1318.17 1896.85,1318.53 1898.83,1318.89 1900.8,1319.24 1902.77,1319.59 1904.75,1319.94 1906.72,1320.28 1908.7,1320.62 1910.67,1320.96 1912.64,1321.29 1914.62,1321.62 1916.59,1321.95 1918.56,1322.28 1920.54,1322.6 1922.51,1322.92 1924.49,1323.24 1926.46,1323.55 1928.43,1323.86 1930.41,1324.17 1932.38,1324.48 1934.36,1324.79 1936.33,1325.09 1938.3,1325.39 1940.28,1325.68 1942.25,1325.98 1944.23,1326.27 1946.2,1326.56 1948.17,1326.85 1950.15,1327.13 1952.12,1327.42 1954.09,1327.7 1956.07,1327.97 1958.04,1328.25 1960.02,1328.52 1961.99,1328.79 1963.96,1329.06 1965.94,1329.33 1967.91,1329.6 1969.89,1329.86 1971.86,1330.12 1973.83,1330.38 1975.81,1330.63 1977.78,1330.89 1979.75,1331.14 1981.73,1331.39 1983.7,1331.64 1985.68,1331.89 1987.65,1332.13 1989.62,1332.37 1991.6,1332.62 1993.57,1332.86 1995.55,1333.09 1997.52,1333.33 1999.49,1333.56 2001.47,1333.79 2003.44,1334.02 2005.41,1334.25 2007.39,1334.48 2009.36,1334.7 2011.34,1334.93 2013.31,1335.15 2015.28,1335.37 2017.26,1335.59 2019.23,1335.8 2021.21,1336.02 2023.18,1336.23 2025.15,1336.45 2027.13,1336.66 2029.1,1336.86 2031.08,1337.07 2033.05,1337.28 2035.02,1337.48 2037,1337.69 2038.97,1337.89 2040.94,1338.09 2042.92,1338.29 2044.89,1338.48 2046.87,1338.68 2048.84,1338.87 2050.81,1339.07 2052.79,1339.26 2054.76,1339.45 2056.74,1339.64 2058.71,1339.82 2060.68,1340.01 2062.66,1340.19 2064.63,1340.38 2066.6,1340.56 2068.58,1340.74 2070.55,1340.92 2072.53,1341.1 2074.5,1341.28 2076.47,1341.45 2078.45,1341.63 2080.42,1341.8 2082.4,1341.97 2084.37,1342.14 2086.34,1342.32 2088.32,1342.48 2090.29,1342.65 2092.26,1342.82 2094.24,1342.98 2096.21,1343.15 2098.19,1343.31 2100.16,1343.47 2102.13,1343.64 2104.11,1343.8 2106.08,1343.95 2108.06,1344.11 2110.03,1344.27 2112,1344.43 2113.98,1344.58 2115.95,1344.73 2117.93,1344.89 2119.9,1345.04 2121.87,1345.19 2123.85,1345.34 2125.82,1345.49 2127.79,1345.64 2129.77,1345.78 2131.74,1345.93 2133.72,1346.07 2135.69,1346.22 2137.66,1346.36 2139.64,1346.5 2141.61,1346.65 2143.59,1346.79 2145.56,1346.93 2147.53,1347.06 2149.51,1347.2 2151.48,1347.34 2153.45,1347.48 2155.43,1347.61 2157.4,1347.74 2159.38,1347.88 2161.35,1348.01 2163.32,1348.14 2165.3,1348.27 2167.27,1348.4 2169.25,1348.53 2171.22,1348.66 2173.19,1348.79 2175.17,1348.92 2177.14,1349.04 2179.11,1349.17 2181.09,1349.29 2183.06,1349.42 2185.04,1349.54 2187.01,1349.66 2188.98,1349.79 2190.96,1349.91 2192.93,1350.03 2194.91,1350.15 2196.88,1350.27 2198.85,1350.38 2200.83,1350.5 2202.8,1350.62 2204.78,1350.73 2206.75,1350.85 2208.72,1350.97 2210.7,1351.08 2212.67,1351.19 2214.64,1351.31 2216.62,1351.42 2218.59,1351.53 2220.57,1351.64 2222.54,1351.75 2224.51,1351.86 2226.49,1351.97 2228.46,1352.08 2230.44,1352.18 2232.41,1352.29 2234.38,1352.4 2236.36,1352.5 2238.33,1352.61 2240.3,1352.71 2242.28,1352.82 2244.25,1352.92 2246.23,1353.02 2248.2,1353.12 2250.17,1353.23 2252.15,1353.33 2254.12,1353.43 2256.1,1353.53 2258.07,1353.63 2260.04,1353.73 2262.02,1353.82 2263.99,1353.92 2265.97,1354.02 2267.94,1354.12 2269.91,1354.21 2271.89,1354.31 2273.86,1354.4 2275.83,1354.5 2277.81,1354.59 2279.78,1354.68 2281.76,1354.78 2283.73,1354.87 2285.7,1354.96 2287.68,1355.05 2289.65,1355.14 2291.63,1355.23 2293.6,1355.32 "/>
<polyline clip-path="url(#clip632)" style="stroke:#ff0000; stroke-linecap:round; stroke-linejoin:round; stroke-width:4; stroke-opacity:1; fill:none" points="1209.06,2799.12 1209.06,-1328.69 "/>
<polyline clip-path="url(#clip632)" style="stroke:#ff0000; stroke-linecap:round; stroke-linejoin:round; stroke-width:4; stroke-opacity:1; fill:none" points="1406.25,2799.12 1406.25,-1328.69 "/>
</svg>
