<?xml version="1.0" encoding="utf-8"?>
<svg xmlns="http://www.w3.org/2000/svg" xmlns:xlink="http://www.w3.org/1999/xlink" width="600" height="400" viewBox="0 0 2400 1600">
<defs>
  <clipPath id="clip760">
    <rect x="0" y="0" width="2400" height="1600"/>
  </clipPath>
</defs>
<path clip-path="url(#clip760)" d="M0 1600 L2400 1600 L2400 0 L0 0  Z" fill="#ffffff" fill-rule="evenodd" fill-opacity="1"/>
<defs>
  <clipPath id="clip761">
    <rect x="480" y="0" width="1681" height="1600"/>
  </clipPath>
</defs>
<path clip-path="url(#clip760)" d="M265.445 1423.18 L2352.76 1423.18 L2352.76 47.2441 L265.445 47.2441  Z" fill="#ffffff" fill-rule="evenodd" fill-opacity="1"/>
<defs>
  <clipPath id="clip762">
    <rect x="265" y="47" width="2088" height="1377"/>
  </clipPath>
</defs>
<polyline clip-path="url(#clip762)" style="stroke:#000000; stroke-linecap:round; stroke-linejoin:round; stroke-width:2; stroke-opacity:0.1; fill:none" points="324.52,1423.18 324.52,47.2441 "/>
<polyline clip-path="url(#clip762)" style="stroke:#000000; stroke-linecap:round; stroke-linejoin:round; stroke-width:2; stroke-opacity:0.1; fill:none" points="816.81,1423.18 816.81,47.2441 "/>
<polyline clip-path="url(#clip762)" style="stroke:#000000; stroke-linecap:round; stroke-linejoin:round; stroke-width:2; stroke-opacity:0.1; fill:none" points="1309.1,1423.18 1309.1,47.2441 "/>
<polyline clip-path="url(#clip762)" style="stroke:#000000; stroke-linecap:round; stroke-linejoin:round; stroke-width:2; stroke-opacity:0.1; fill:none" points="1801.39,1423.18 1801.39,47.2441 "/>
<polyline clip-path="url(#clip762)" style="stroke:#000000; stroke-linecap:round; stroke-linejoin:round; stroke-width:2; stroke-opacity:0.1; fill:none" points="2293.68,1423.18 2293.68,47.2441 "/>
<polyline clip-path="url(#clip762)" style="stroke:#000000; stroke-linecap:round; stroke-linejoin:round; stroke-width:2; stroke-opacity:0.1; fill:none" points="265.445,1386.6 2352.76,1386.6 "/>
<polyline clip-path="url(#clip762)" style="stroke:#000000; stroke-linecap:round; stroke-linejoin:round; stroke-width:2; stroke-opacity:0.1; fill:none" points="265.445,1151.62 2352.76,1151.62 "/>
<polyline clip-path="url(#clip762)" style="stroke:#000000; stroke-linecap:round; stroke-linejoin:round; stroke-width:2; stroke-opacity:0.1; fill:none" points="265.445,916.639 2352.76,916.639 "/>
<polyline clip-path="url(#clip762)" style="stroke:#000000; stroke-linecap:round; stroke-linejoin:round; stroke-width:2; stroke-opacity:0.1; fill:none" points="265.445,681.661 2352.76,681.661 "/>
<polyline clip-path="url(#clip762)" style="stroke:#000000; stroke-linecap:round; stroke-linejoin:round; stroke-width:2; stroke-opacity:0.1; fill:none" points="265.445,446.683 2352.76,446.683 "/>
<polyline clip-path="url(#clip762)" style="stroke:#000000; stroke-linecap:round; stroke-linejoin:round; stroke-width:2; stroke-opacity:0.1; fill:none" points="265.445,211.704 2352.76,211.704 "/>
<polyline clip-path="url(#clip760)" style="stroke:#000000; stroke-linecap:round; stroke-linejoin:round; stroke-width:4; stroke-opacity:1; fill:none" points="265.445,1423.18 2352.76,1423.18 "/>
<polyline clip-path="url(#clip760)" style="stroke:#000000; stroke-linecap:round; stroke-linejoin:round; stroke-width:4; stroke-opacity:1; fill:none" points="324.52,1423.18 324.52,1404.28 "/>
<polyline clip-path="url(#clip760)" style="stroke:#000000; stroke-linecap:round; stroke-linejoin:round; stroke-width:4; stroke-opacity:1; fill:none" points="816.81,1423.18 816.81,1404.28 "/>
<polyline clip-path="url(#clip760)" style="stroke:#000000; stroke-linecap:round; stroke-linejoin:round; stroke-width:4; stroke-opacity:1; fill:none" points="1309.1,1423.18 1309.1,1404.28 "/>
<polyline clip-path="url(#clip760)" style="stroke:#000000; stroke-linecap:round; stroke-linejoin:round; stroke-width:4; stroke-opacity:1; fill:none" points="1801.39,1423.18 1801.39,1404.28 "/>
<polyline clip-path="url(#clip760)" style="stroke:#000000; stroke-linecap:round; stroke-linejoin:round; stroke-width:4; stroke-opacity:1; fill:none" points="2293.68,1423.18 2293.68,1404.28 "/>
<path clip-path="url(#clip760)" d="M261.511 1481.64 L269.149 1481.64 L269.149 1455.28 L260.839 1456.95 L260.839 1452.69 L269.103 1451.02 L273.779 1451.02 L273.779 1481.64 L281.418 1481.64 L281.418 1485.58 L261.511 1485.58 L261.511 1481.64 Z" fill="#000000" fill-rule="nonzero" fill-opacity="1" /><path clip-path="url(#clip760)" d="M289.682 1451.02 L311.904 1451.02 L311.904 1453.01 L299.358 1485.58 L294.473 1485.58 L306.279 1454.96 L289.682 1454.96 L289.682 1451.02 Z" fill="#000000" fill-rule="nonzero" fill-opacity="1" /><path clip-path="url(#clip760)" d="M321.024 1479.7 L325.908 1479.7 L325.908 1485.58 L321.024 1485.58 L321.024 1479.7 Z" fill="#000000" fill-rule="nonzero" fill-opacity="1" /><path clip-path="url(#clip760)" d="M336.232 1484.86 L336.232 1480.6 Q337.992 1481.44 339.797 1481.88 Q341.603 1482.32 343.339 1482.32 Q347.969 1482.32 350.399 1479.21 Q352.853 1476.09 353.2 1469.75 Q351.857 1471.74 349.797 1472.8 Q347.737 1473.87 345.237 1473.87 Q340.052 1473.87 337.02 1470.74 Q334.01 1467.59 334.01 1462.15 Q334.01 1456.83 337.158 1453.61 Q340.307 1450.39 345.538 1450.39 Q351.533 1450.39 354.681 1455 Q357.853 1459.58 357.853 1468.33 Q357.853 1476.51 353.964 1481.39 Q350.098 1486.25 343.547 1486.25 Q341.788 1486.25 339.982 1485.9 Q338.177 1485.56 336.232 1484.86 M345.538 1470.21 Q348.686 1470.21 350.515 1468.06 Q352.367 1465.9 352.367 1462.15 Q352.367 1458.43 350.515 1456.27 Q348.686 1454.1 345.538 1454.1 Q342.39 1454.1 340.538 1456.27 Q338.709 1458.43 338.709 1462.15 Q338.709 1465.9 340.538 1468.06 Q342.39 1470.21 345.538 1470.21 Z" fill="#000000" fill-rule="nonzero" fill-opacity="1" /><path clip-path="url(#clip760)" d="M376.255 1454.1 Q372.644 1454.1 370.816 1457.66 Q369.01 1461.2 369.01 1468.33 Q369.01 1475.44 370.816 1479.01 Q372.644 1482.55 376.255 1482.55 Q379.89 1482.55 381.695 1479.01 Q383.524 1475.44 383.524 1468.33 Q383.524 1461.2 381.695 1457.66 Q379.89 1454.1 376.255 1454.1 M376.255 1450.39 Q382.066 1450.39 385.121 1455 Q388.2 1459.58 388.2 1468.33 Q388.2 1477.06 385.121 1481.67 Q382.066 1486.25 376.255 1486.25 Q370.445 1486.25 367.367 1481.67 Q364.311 1477.06 364.311 1468.33 Q364.311 1459.58 367.367 1455 Q370.445 1450.39 376.255 1450.39 Z" fill="#000000" fill-rule="nonzero" fill-opacity="1" /><path clip-path="url(#clip760)" d="M754.299 1481.64 L761.938 1481.64 L761.938 1455.28 L753.627 1456.95 L753.627 1452.69 L761.891 1451.02 L766.567 1451.02 L766.567 1481.64 L774.206 1481.64 L774.206 1485.58 L754.299 1485.58 L754.299 1481.64 Z" fill="#000000" fill-rule="nonzero" fill-opacity="1" /><path clip-path="url(#clip760)" d="M782.47 1451.02 L804.692 1451.02 L804.692 1453.01 L792.146 1485.58 L787.261 1485.58 L799.067 1454.96 L782.47 1454.96 L782.47 1451.02 Z" fill="#000000" fill-rule="nonzero" fill-opacity="1" /><path clip-path="url(#clip760)" d="M813.812 1479.7 L818.697 1479.7 L818.697 1485.58 L813.812 1485.58 L813.812 1479.7 Z" fill="#000000" fill-rule="nonzero" fill-opacity="1" /><path clip-path="url(#clip760)" d="M829.021 1484.86 L829.021 1480.6 Q830.78 1481.44 832.585 1481.88 Q834.391 1482.32 836.127 1482.32 Q840.757 1482.32 843.187 1479.21 Q845.641 1476.09 845.988 1469.75 Q844.645 1471.74 842.585 1472.8 Q840.525 1473.87 838.025 1473.87 Q832.84 1473.87 829.808 1470.74 Q826.798 1467.59 826.798 1462.15 Q826.798 1456.83 829.946 1453.61 Q833.095 1450.39 838.326 1450.39 Q844.321 1450.39 847.47 1455 Q850.641 1459.58 850.641 1468.33 Q850.641 1476.51 846.752 1481.39 Q842.886 1486.25 836.335 1486.25 Q834.576 1486.25 832.771 1485.9 Q830.965 1485.56 829.021 1484.86 M838.326 1470.21 Q841.474 1470.21 843.303 1468.06 Q845.155 1465.9 845.155 1462.15 Q845.155 1458.43 843.303 1456.27 Q841.474 1454.1 838.326 1454.1 Q835.178 1454.1 833.326 1456.27 Q831.497 1458.43 831.497 1462.15 Q831.497 1465.9 833.326 1468.06 Q835.178 1470.21 838.326 1470.21 Z" fill="#000000" fill-rule="nonzero" fill-opacity="1" /><path clip-path="url(#clip760)" d="M859.09 1451.02 L877.446 1451.02 L877.446 1454.96 L863.372 1454.96 L863.372 1463.43 Q864.391 1463.08 865.409 1462.92 Q866.428 1462.73 867.446 1462.73 Q873.233 1462.73 876.613 1465.9 Q879.992 1469.08 879.992 1474.49 Q879.992 1480.07 876.52 1483.17 Q873.048 1486.25 866.729 1486.25 Q864.553 1486.25 862.284 1485.88 Q860.039 1485.51 857.631 1484.77 L857.631 1480.07 Q859.715 1481.2 861.937 1481.76 Q864.159 1482.32 866.636 1482.32 Q870.641 1482.32 872.979 1480.21 Q875.317 1478.1 875.317 1474.49 Q875.317 1470.88 872.979 1468.77 Q870.641 1466.67 866.636 1466.67 Q864.761 1466.67 862.886 1467.08 Q861.034 1467.5 859.09 1468.38 L859.09 1451.02 Z" fill="#000000" fill-rule="nonzero" fill-opacity="1" /><path clip-path="url(#clip760)" d="M1246.09 1481.64 L1253.73 1481.64 L1253.73 1455.28 L1245.42 1456.95 L1245.42 1452.69 L1253.68 1451.02 L1258.36 1451.02 L1258.36 1481.64 L1266 1481.64 L1266 1485.58 L1246.09 1485.58 L1246.09 1481.64 Z" fill="#000000" fill-rule="nonzero" fill-opacity="1" /><path clip-path="url(#clip760)" d="M1285.44 1469.17 Q1282.11 1469.17 1280.19 1470.95 Q1278.29 1472.73 1278.29 1475.86 Q1278.29 1478.98 1280.19 1480.77 Q1282.11 1482.55 1285.44 1482.55 Q1288.78 1482.55 1290.7 1480.77 Q1292.62 1478.96 1292.62 1475.86 Q1292.62 1472.73 1290.7 1470.95 Q1288.8 1469.17 1285.44 1469.17 M1280.77 1467.18 Q1277.76 1466.44 1276.07 1464.38 Q1274.4 1462.32 1274.4 1459.35 Q1274.4 1455.21 1277.34 1452.8 Q1280.3 1450.39 1285.44 1450.39 Q1290.61 1450.39 1293.54 1452.8 Q1296.48 1455.21 1296.48 1459.35 Q1296.48 1462.32 1294.79 1464.38 Q1293.13 1466.44 1290.14 1467.18 Q1293.52 1467.96 1295.4 1470.26 Q1297.29 1472.55 1297.29 1475.86 Q1297.29 1480.88 1294.22 1483.57 Q1291.16 1486.25 1285.44 1486.25 Q1279.73 1486.25 1276.65 1483.57 Q1273.59 1480.88 1273.59 1475.86 Q1273.59 1472.55 1275.49 1470.26 Q1277.39 1467.96 1280.77 1467.18 M1279.05 1459.79 Q1279.05 1462.48 1280.72 1463.98 Q1282.41 1465.49 1285.44 1465.49 Q1288.45 1465.49 1290.14 1463.98 Q1291.86 1462.48 1291.86 1459.79 Q1291.86 1457.11 1290.14 1455.6 Q1288.45 1454.1 1285.44 1454.1 Q1282.41 1454.1 1280.72 1455.6 Q1279.05 1457.11 1279.05 1459.79 Z" fill="#000000" fill-rule="nonzero" fill-opacity="1" /><path clip-path="url(#clip760)" d="M1305.6 1479.7 L1310.49 1479.7 L1310.49 1485.58 L1305.6 1485.58 L1305.6 1479.7 Z" fill="#000000" fill-rule="nonzero" fill-opacity="1" /><path clip-path="url(#clip760)" d="M1330.67 1454.1 Q1327.06 1454.1 1325.23 1457.66 Q1323.43 1461.2 1323.43 1468.33 Q1323.43 1475.44 1325.23 1479.01 Q1327.06 1482.55 1330.67 1482.55 Q1334.31 1482.55 1336.11 1479.01 Q1337.94 1475.44 1337.94 1468.33 Q1337.94 1461.2 1336.11 1457.66 Q1334.31 1454.1 1330.67 1454.1 M1330.67 1450.39 Q1336.48 1450.39 1339.54 1455 Q1342.62 1459.58 1342.62 1468.33 Q1342.62 1477.06 1339.54 1481.67 Q1336.48 1486.25 1330.67 1486.25 Q1324.86 1486.25 1321.79 1481.67 Q1318.73 1477.06 1318.73 1468.33 Q1318.73 1459.58 1321.79 1455 Q1324.86 1450.39 1330.67 1450.39 Z" fill="#000000" fill-rule="nonzero" fill-opacity="1" /><path clip-path="url(#clip760)" d="M1360.84 1454.1 Q1357.23 1454.1 1355.4 1457.66 Q1353.59 1461.2 1353.59 1468.33 Q1353.59 1475.44 1355.4 1479.01 Q1357.23 1482.55 1360.84 1482.55 Q1364.47 1482.55 1366.28 1479.01 Q1368.1 1475.44 1368.1 1468.33 Q1368.1 1461.2 1366.28 1457.66 Q1364.47 1454.1 1360.84 1454.1 M1360.84 1450.39 Q1366.65 1450.39 1369.7 1455 Q1372.78 1459.58 1372.78 1468.33 Q1372.78 1477.06 1369.7 1481.67 Q1366.65 1486.25 1360.84 1486.25 Q1355.03 1486.25 1351.95 1481.67 Q1348.89 1477.06 1348.89 1468.33 Q1348.89 1459.58 1351.95 1455 Q1355.03 1450.39 1360.84 1450.39 Z" fill="#000000" fill-rule="nonzero" fill-opacity="1" /><path clip-path="url(#clip760)" d="M1738.88 1481.64 L1746.52 1481.64 L1746.52 1455.28 L1738.21 1456.95 L1738.21 1452.69 L1746.47 1451.02 L1751.15 1451.02 L1751.15 1481.64 L1758.79 1481.64 L1758.79 1485.58 L1738.88 1485.58 L1738.88 1481.64 Z" fill="#000000" fill-rule="nonzero" fill-opacity="1" /><path clip-path="url(#clip760)" d="M1778.23 1469.17 Q1774.9 1469.17 1772.98 1470.95 Q1771.08 1472.73 1771.08 1475.86 Q1771.08 1478.98 1772.98 1480.77 Q1774.9 1482.55 1778.23 1482.55 Q1781.56 1482.55 1783.49 1480.77 Q1785.41 1478.96 1785.41 1475.86 Q1785.41 1472.73 1783.49 1470.95 Q1781.59 1469.17 1778.23 1469.17 M1773.56 1467.18 Q1770.55 1466.44 1768.86 1464.38 Q1767.19 1462.32 1767.19 1459.35 Q1767.19 1455.21 1770.13 1452.8 Q1773.09 1450.39 1778.23 1450.39 Q1783.39 1450.39 1786.33 1452.8 Q1789.27 1455.21 1789.27 1459.35 Q1789.27 1462.32 1787.58 1464.38 Q1785.92 1466.44 1782.93 1467.18 Q1786.31 1467.96 1788.18 1470.26 Q1790.08 1472.55 1790.08 1475.86 Q1790.08 1480.88 1787 1483.57 Q1783.95 1486.25 1778.23 1486.25 Q1772.51 1486.25 1769.43 1483.57 Q1766.38 1480.88 1766.38 1475.86 Q1766.38 1472.55 1768.28 1470.26 Q1770.18 1467.96 1773.56 1467.18 M1771.84 1459.79 Q1771.84 1462.48 1773.51 1463.98 Q1775.2 1465.49 1778.23 1465.49 Q1781.24 1465.49 1782.93 1463.98 Q1784.64 1462.48 1784.64 1459.79 Q1784.64 1457.11 1782.93 1455.6 Q1781.24 1454.1 1778.23 1454.1 Q1775.2 1454.1 1773.51 1455.6 Q1771.84 1457.11 1771.84 1459.79 Z" fill="#000000" fill-rule="nonzero" fill-opacity="1" /><path clip-path="url(#clip760)" d="M1798.39 1479.7 L1803.28 1479.7 L1803.28 1485.58 L1798.39 1485.58 L1798.39 1479.7 Z" fill="#000000" fill-rule="nonzero" fill-opacity="1" /><path clip-path="url(#clip760)" d="M1823.46 1454.1 Q1819.85 1454.1 1818.02 1457.66 Q1816.22 1461.2 1816.22 1468.33 Q1816.22 1475.44 1818.02 1479.01 Q1819.85 1482.55 1823.46 1482.55 Q1827.1 1482.55 1828.9 1479.01 Q1830.73 1475.44 1830.73 1468.33 Q1830.73 1461.2 1828.9 1457.66 Q1827.1 1454.1 1823.46 1454.1 M1823.46 1450.39 Q1829.27 1450.39 1832.33 1455 Q1835.41 1459.58 1835.41 1468.33 Q1835.41 1477.06 1832.33 1481.67 Q1829.27 1486.25 1823.46 1486.25 Q1817.65 1486.25 1814.57 1481.67 Q1811.52 1477.06 1811.52 1468.33 Q1811.52 1459.58 1814.57 1455 Q1817.65 1450.39 1823.46 1450.39 Z" fill="#000000" fill-rule="nonzero" fill-opacity="1" /><path clip-path="url(#clip760)" d="M1843.67 1451.02 L1862.03 1451.02 L1862.03 1454.96 L1847.95 1454.96 L1847.95 1463.43 Q1848.97 1463.08 1849.99 1462.92 Q1851.01 1462.73 1852.03 1462.73 Q1857.81 1462.73 1861.19 1465.9 Q1864.57 1469.08 1864.57 1474.49 Q1864.57 1480.07 1861.1 1483.17 Q1857.63 1486.25 1851.31 1486.25 Q1849.13 1486.25 1846.86 1485.88 Q1844.62 1485.51 1842.21 1484.77 L1842.21 1480.07 Q1844.3 1481.2 1846.52 1481.76 Q1848.74 1482.32 1851.22 1482.32 Q1855.22 1482.32 1857.56 1480.21 Q1859.9 1478.1 1859.9 1474.49 Q1859.9 1470.88 1857.56 1468.77 Q1855.22 1466.67 1851.22 1466.67 Q1849.34 1466.67 1847.47 1467.08 Q1845.61 1467.5 1843.67 1468.38 L1843.67 1451.02 Z" fill="#000000" fill-rule="nonzero" fill-opacity="1" /><path clip-path="url(#clip760)" d="M2230.67 1481.64 L2238.31 1481.64 L2238.31 1455.28 L2230 1456.95 L2230 1452.69 L2238.26 1451.02 L2242.94 1451.02 L2242.94 1481.64 L2250.58 1481.64 L2250.58 1485.58 L2230.67 1485.58 L2230.67 1481.64 Z" fill="#000000" fill-rule="nonzero" fill-opacity="1" /><path clip-path="url(#clip760)" d="M2270.02 1469.17 Q2266.69 1469.17 2264.77 1470.95 Q2262.87 1472.73 2262.87 1475.86 Q2262.87 1478.98 2264.77 1480.77 Q2266.69 1482.55 2270.02 1482.55 Q2273.36 1482.55 2275.28 1480.77 Q2277.2 1478.96 2277.2 1475.86 Q2277.2 1472.73 2275.28 1470.95 Q2273.38 1469.17 2270.02 1469.17 M2265.35 1467.18 Q2262.34 1466.44 2260.65 1464.38 Q2258.98 1462.32 2258.98 1459.35 Q2258.98 1455.21 2261.92 1452.8 Q2264.88 1450.39 2270.02 1450.39 Q2275.19 1450.39 2278.13 1452.8 Q2281.07 1455.21 2281.07 1459.35 Q2281.07 1462.32 2279.38 1464.38 Q2277.71 1466.44 2274.72 1467.18 Q2278.1 1467.96 2279.98 1470.26 Q2281.88 1472.55 2281.88 1475.86 Q2281.88 1480.88 2278.8 1483.57 Q2275.74 1486.25 2270.02 1486.25 Q2264.31 1486.25 2261.23 1483.57 Q2258.17 1480.88 2258.17 1475.86 Q2258.17 1472.55 2260.07 1470.26 Q2261.97 1467.96 2265.35 1467.18 M2263.63 1459.79 Q2263.63 1462.48 2265.3 1463.98 Q2266.99 1465.49 2270.02 1465.49 Q2273.03 1465.49 2274.72 1463.98 Q2276.44 1462.48 2276.44 1459.79 Q2276.44 1457.11 2274.72 1455.6 Q2273.03 1454.1 2270.02 1454.1 Q2266.99 1454.1 2265.3 1455.6 Q2263.63 1457.11 2263.63 1459.79 Z" fill="#000000" fill-rule="nonzero" fill-opacity="1" /><path clip-path="url(#clip760)" d="M2290.19 1479.7 L2295.07 1479.7 L2295.07 1485.58 L2290.19 1485.58 L2290.19 1479.7 Z" fill="#000000" fill-rule="nonzero" fill-opacity="1" /><path clip-path="url(#clip760)" d="M2306.07 1481.64 L2313.7 1481.64 L2313.7 1455.28 L2305.39 1456.95 L2305.39 1452.69 L2313.66 1451.02 L2318.33 1451.02 L2318.33 1481.64 L2325.97 1481.64 L2325.97 1485.58 L2306.07 1485.58 L2306.07 1481.64 Z" fill="#000000" fill-rule="nonzero" fill-opacity="1" /><path clip-path="url(#clip760)" d="M2345.42 1454.1 Q2341.81 1454.1 2339.98 1457.66 Q2338.17 1461.2 2338.17 1468.33 Q2338.17 1475.44 2339.98 1479.01 Q2341.81 1482.55 2345.42 1482.55 Q2349.05 1482.55 2350.86 1479.01 Q2352.69 1475.44 2352.69 1468.33 Q2352.69 1461.2 2350.86 1457.66 Q2349.05 1454.1 2345.42 1454.1 M2345.42 1450.39 Q2351.23 1450.39 2354.28 1455 Q2357.36 1459.58 2357.36 1468.33 Q2357.36 1477.06 2354.28 1481.67 Q2351.23 1486.25 2345.42 1486.25 Q2339.61 1486.25 2336.53 1481.67 Q2333.47 1477.06 2333.47 1468.33 Q2333.47 1459.58 2336.53 1455 Q2339.61 1450.39 2345.42 1450.39 Z" fill="#000000" fill-rule="nonzero" fill-opacity="1" /><path clip-path="url(#clip760)" d="M1017.26 1520.52 L1044.57 1520.52 L1044.57 1525.93 L1023.69 1525.93 L1023.69 1539.94 L1042.54 1539.94 L1042.54 1545.35 L1023.69 1545.35 L1023.69 1568.04 L1017.26 1568.04 L1017.26 1520.52 Z" fill="#000000" fill-rule="nonzero" fill-opacity="1" /><path clip-path="url(#clip760)" d="M1070.42 1537.87 Q1069.43 1537.3 1068.25 1537.04 Q1067.11 1536.76 1065.71 1536.76 Q1060.74 1536.76 1058.07 1540 Q1055.43 1543.22 1055.43 1549.27 L1055.43 1568.04 L1049.54 1568.04 L1049.54 1532.4 L1055.43 1532.4 L1055.43 1537.93 Q1057.27 1534.69 1060.23 1533.13 Q1063.19 1531.54 1067.43 1531.54 Q1068.03 1531.54 1068.76 1531.63 Q1069.5 1531.7 1070.39 1531.85 L1070.42 1537.87 Z" fill="#000000" fill-rule="nonzero" fill-opacity="1" /><path clip-path="url(#clip760)" d="M1105.62 1548.76 L1105.62 1551.62 L1078.69 1551.62 Q1079.08 1557.67 1082.32 1560.85 Q1085.6 1564 1091.42 1564 Q1094.8 1564 1097.95 1563.17 Q1101.13 1562.35 1104.25 1560.69 L1104.25 1566.23 Q1101.1 1567.57 1097.79 1568.27 Q1094.48 1568.97 1091.07 1568.97 Q1082.54 1568.97 1077.55 1564 Q1072.58 1559.04 1072.58 1550.57 Q1072.58 1541.82 1077.29 1536.69 Q1082.04 1531.54 1090.06 1531.54 Q1097.25 1531.54 1101.42 1536.18 Q1105.62 1540.8 1105.62 1548.76 M1099.76 1547.04 Q1099.7 1542.23 1097.06 1539.37 Q1094.45 1536.5 1090.12 1536.5 Q1085.22 1536.5 1082.26 1539.27 Q1079.33 1542.04 1078.88 1547.07 L1099.76 1547.04 Z" fill="#000000" fill-rule="nonzero" fill-opacity="1" /><path clip-path="url(#clip760)" d="M1118.73 1550.25 Q1118.73 1556.71 1121.38 1560.4 Q1124.05 1564.07 1128.7 1564.07 Q1133.34 1564.07 1136.02 1560.4 Q1138.69 1556.71 1138.69 1550.25 Q1138.69 1543.79 1136.02 1540.13 Q1133.34 1536.44 1128.7 1536.44 Q1124.05 1536.44 1121.38 1540.13 Q1118.73 1543.79 1118.73 1550.25 M1138.69 1562.7 Q1136.84 1565.88 1134.01 1567.44 Q1131.21 1568.97 1127.26 1568.97 Q1120.8 1568.97 1116.73 1563.81 Q1112.69 1558.65 1112.69 1550.25 Q1112.69 1541.85 1116.73 1536.69 Q1120.8 1531.54 1127.26 1531.54 Q1131.21 1531.54 1134.01 1533.1 Q1136.84 1534.62 1138.69 1537.81 L1138.69 1532.4 L1144.55 1532.4 L1144.55 1581.6 L1138.69 1581.6 L1138.69 1562.7 Z" fill="#000000" fill-rule="nonzero" fill-opacity="1" /><path clip-path="url(#clip760)" d="M1156.01 1553.98 L1156.01 1532.4 L1161.86 1532.4 L1161.86 1553.75 Q1161.86 1558.81 1163.83 1561.36 Q1165.81 1563.87 1169.75 1563.87 Q1174.5 1563.87 1177.23 1560.85 Q1180 1557.83 1180 1552.61 L1180 1532.4 L1185.86 1532.4 L1185.86 1568.04 L1180 1568.04 L1180 1562.57 Q1177.87 1565.82 1175.04 1567.41 Q1172.24 1568.97 1168.51 1568.97 Q1162.37 1568.97 1159.19 1565.15 Q1156.01 1561.33 1156.01 1553.98 M1170.74 1531.54 L1170.74 1531.54 Z" fill="#000000" fill-rule="nonzero" fill-opacity="1" /><path clip-path="url(#clip760)" d="M1228.41 1548.76 L1228.41 1551.62 L1201.49 1551.62 Q1201.87 1557.67 1205.12 1560.85 Q1208.39 1564 1214.22 1564 Q1217.59 1564 1220.74 1563.17 Q1223.93 1562.35 1227.05 1560.69 L1227.05 1566.23 Q1223.9 1567.57 1220.59 1568.27 Q1217.27 1568.97 1213.87 1568.97 Q1205.34 1568.97 1200.34 1564 Q1195.38 1559.04 1195.38 1550.57 Q1195.38 1541.82 1200.09 1536.69 Q1204.83 1531.54 1212.85 1531.54 Q1220.04 1531.54 1224.21 1536.18 Q1228.41 1540.8 1228.41 1548.76 M1222.56 1547.04 Q1222.49 1542.23 1219.85 1539.37 Q1217.24 1536.5 1212.91 1536.5 Q1208.01 1536.5 1205.05 1539.27 Q1202.12 1542.04 1201.68 1547.07 L1222.56 1547.04 Z" fill="#000000" fill-rule="nonzero" fill-opacity="1" /><path clip-path="url(#clip760)" d="M1267.66 1546.53 L1267.66 1568.04 L1261.8 1568.04 L1261.8 1546.72 Q1261.8 1541.66 1259.83 1539.14 Q1257.86 1536.63 1253.91 1536.63 Q1249.17 1536.63 1246.43 1539.65 Q1243.69 1542.68 1243.69 1547.9 L1243.69 1568.04 L1237.8 1568.04 L1237.8 1532.4 L1243.69 1532.4 L1243.69 1537.93 Q1245.79 1534.72 1248.63 1533.13 Q1251.49 1531.54 1255.21 1531.54 Q1261.36 1531.54 1264.51 1535.36 Q1267.66 1539.14 1267.66 1546.53 Z" fill="#000000" fill-rule="nonzero" fill-opacity="1" /><path clip-path="url(#clip760)" d="M1304.99 1533.76 L1304.99 1539.24 Q1302.51 1537.87 1300 1537.2 Q1297.51 1536.5 1294.97 1536.5 Q1289.27 1536.5 1286.12 1540.13 Q1282.97 1543.73 1282.97 1550.25 Q1282.97 1556.78 1286.12 1560.4 Q1289.27 1564 1294.97 1564 Q1297.51 1564 1300 1563.33 Q1302.51 1562.63 1304.99 1561.26 L1304.99 1566.68 Q1302.54 1567.82 1299.9 1568.39 Q1297.29 1568.97 1294.33 1568.97 Q1286.28 1568.97 1281.54 1563.91 Q1276.79 1558.85 1276.79 1550.25 Q1276.79 1541.53 1281.57 1536.53 Q1286.37 1531.54 1294.71 1531.54 Q1297.42 1531.54 1300 1532.11 Q1302.58 1532.65 1304.99 1533.76 Z" fill="#000000" fill-rule="nonzero" fill-opacity="1" /><path clip-path="url(#clip760)" d="M1315.18 1532.4 L1321.04 1532.4 L1321.04 1568.04 L1315.18 1568.04 L1315.18 1532.4 M1315.18 1518.52 L1321.04 1518.52 L1321.04 1525.93 L1315.18 1525.93 L1315.18 1518.52 Z" fill="#000000" fill-rule="nonzero" fill-opacity="1" /><path clip-path="url(#clip760)" d="M1363.78 1548.76 L1363.78 1551.62 L1336.85 1551.62 Q1337.24 1557.67 1340.48 1560.85 Q1343.76 1564 1349.59 1564 Q1352.96 1564 1356.11 1563.17 Q1359.29 1562.35 1362.41 1560.69 L1362.41 1566.23 Q1359.26 1567.57 1355.95 1568.27 Q1352.64 1568.97 1349.24 1568.97 Q1340.71 1568.97 1335.71 1564 Q1330.74 1559.04 1330.74 1550.57 Q1330.74 1541.82 1335.45 1536.69 Q1340.2 1531.54 1348.22 1531.54 Q1355.41 1531.54 1359.58 1536.18 Q1363.78 1540.8 1363.78 1548.76 M1357.93 1547.04 Q1357.86 1542.23 1355.22 1539.37 Q1352.61 1536.5 1348.28 1536.5 Q1343.38 1536.5 1340.42 1539.27 Q1337.49 1542.04 1337.05 1547.07 L1357.93 1547.04 Z" fill="#000000" fill-rule="nonzero" fill-opacity="1" /><path clip-path="url(#clip760)" d="M1396.12 1533.45 L1396.12 1538.98 Q1393.64 1537.71 1390.96 1537.07 Q1388.29 1536.44 1385.43 1536.44 Q1381.06 1536.44 1378.87 1537.77 Q1376.7 1539.11 1376.7 1541.79 Q1376.7 1543.82 1378.26 1545 Q1379.82 1546.15 1384.53 1547.2 L1386.54 1547.64 Q1392.78 1548.98 1395.39 1551.43 Q1398.03 1553.85 1398.03 1558.21 Q1398.03 1563.17 1394.08 1566.07 Q1390.17 1568.97 1383.29 1568.97 Q1380.43 1568.97 1377.31 1568.39 Q1374.22 1567.85 1370.78 1566.74 L1370.78 1560.69 Q1374.03 1562.38 1377.18 1563.24 Q1380.33 1564.07 1383.42 1564.07 Q1387.56 1564.07 1389.79 1562.66 Q1392.01 1561.23 1392.01 1558.65 Q1392.01 1556.27 1390.39 1554.99 Q1388.8 1553.72 1383.36 1552.54 L1381.32 1552.07 Q1375.88 1550.92 1373.46 1548.56 Q1371.04 1546.18 1371.04 1542.04 Q1371.04 1537.01 1374.6 1534.27 Q1378.17 1531.54 1384.72 1531.54 Q1387.97 1531.54 1390.84 1532.01 Q1393.7 1532.49 1396.12 1533.45 Z" fill="#000000" fill-rule="nonzero" fill-opacity="1" /><path clip-path="url(#clip760)" d="M1427.53 1518.52 L1441.03 1518.52 L1441.03 1523.07 L1433.39 1523.07 L1433.39 1572.09 L1441.03 1572.09 L1441.03 1576.64 L1427.53 1576.64 L1427.53 1518.52 Z" fill="#000000" fill-rule="nonzero" fill-opacity="1" /><path clip-path="url(#clip760)" d="M1486.16 1561.26 L1486.16 1548.5 L1475.66 1548.5 L1475.66 1543.22 L1492.53 1543.22 L1492.53 1563.62 Q1488.8 1566.26 1484.32 1567.63 Q1479.83 1568.97 1474.74 1568.97 Q1463.6 1568.97 1457.29 1562.47 Q1451.02 1555.95 1451.02 1544.33 Q1451.02 1532.68 1457.29 1526.19 Q1463.6 1519.66 1474.74 1519.66 Q1479.38 1519.66 1483.55 1520.81 Q1487.75 1521.96 1491.29 1524.18 L1491.29 1531.03 Q1487.72 1528 1483.71 1526.48 Q1479.7 1524.95 1475.28 1524.95 Q1466.56 1524.95 1462.16 1529.82 Q1457.8 1534.69 1457.8 1544.33 Q1457.8 1553.94 1462.16 1558.81 Q1466.56 1563.68 1475.28 1563.68 Q1478.68 1563.68 1481.36 1563.11 Q1484.03 1562.51 1486.16 1561.26 Z" fill="#000000" fill-rule="nonzero" fill-opacity="1" /><path clip-path="url(#clip760)" d="M1504.27 1520.52 L1510.7 1520.52 L1510.7 1540 L1534.06 1540 L1534.06 1520.52 L1540.49 1520.52 L1540.49 1568.04 L1534.06 1568.04 L1534.06 1545.41 L1510.7 1545.41 L1510.7 1568.04 L1504.27 1568.04 L1504.27 1520.52 Z" fill="#000000" fill-rule="nonzero" fill-opacity="1" /><path clip-path="url(#clip760)" d="M1550.49 1532.4 L1578.31 1532.4 L1578.31 1537.74 L1556.28 1563.37 L1578.31 1563.37 L1578.31 1568.04 L1549.69 1568.04 L1549.69 1562.7 L1571.72 1537.07 L1550.49 1537.07 L1550.49 1532.4 Z" fill="#000000" fill-rule="nonzero" fill-opacity="1" /><path clip-path="url(#clip760)" d="M1600.94 1518.52 L1600.94 1576.64 L1587.44 1576.64 L1587.44 1572.09 L1595.05 1572.09 L1595.05 1523.07 L1587.44 1523.07 L1587.44 1518.52 L1600.94 1518.52 Z" fill="#000000" fill-rule="nonzero" fill-opacity="1" /><polyline clip-path="url(#clip760)" style="stroke:#000000; stroke-linecap:round; stroke-linejoin:round; stroke-width:4; stroke-opacity:1; fill:none" points="265.445,1423.18 265.445,47.2441 "/>
<polyline clip-path="url(#clip760)" style="stroke:#000000; stroke-linecap:round; stroke-linejoin:round; stroke-width:4; stroke-opacity:1; fill:none" points="265.445,1386.6 284.342,1386.6 "/>
<polyline clip-path="url(#clip760)" style="stroke:#000000; stroke-linecap:round; stroke-linejoin:round; stroke-width:4; stroke-opacity:1; fill:none" points="265.445,1151.62 284.342,1151.62 "/>
<polyline clip-path="url(#clip760)" style="stroke:#000000; stroke-linecap:round; stroke-linejoin:round; stroke-width:4; stroke-opacity:1; fill:none" points="265.445,916.639 284.342,916.639 "/>
<polyline clip-path="url(#clip760)" style="stroke:#000000; stroke-linecap:round; stroke-linejoin:round; stroke-width:4; stroke-opacity:1; fill:none" points="265.445,681.661 284.342,681.661 "/>
<polyline clip-path="url(#clip760)" style="stroke:#000000; stroke-linecap:round; stroke-linejoin:round; stroke-width:4; stroke-opacity:1; fill:none" points="265.445,446.683 284.342,446.683 "/>
<polyline clip-path="url(#clip760)" style="stroke:#000000; stroke-linecap:round; stroke-linejoin:round; stroke-width:4; stroke-opacity:1; fill:none" points="265.445,211.704 284.342,211.704 "/>
<path clip-path="url(#clip760)" d="M217.5 1372.39 Q213.889 1372.39 212.061 1375.96 Q210.255 1379.5 210.255 1386.63 Q210.255 1393.74 212.061 1397.3 Q213.889 1400.84 217.5 1400.84 Q221.135 1400.84 222.94 1397.3 Q224.769 1393.74 224.769 1386.63 Q224.769 1379.5 222.94 1375.96 Q221.135 1372.39 217.5 1372.39 M217.5 1368.69 Q223.31 1368.69 226.366 1373.3 Q229.445 1377.88 229.445 1386.63 Q229.445 1395.36 226.366 1399.96 Q223.31 1404.55 217.5 1404.55 Q211.69 1404.55 208.612 1399.96 Q205.556 1395.36 205.556 1386.63 Q205.556 1377.88 208.612 1373.3 Q211.69 1368.69 217.5 1368.69 Z" fill="#000000" fill-rule="nonzero" fill-opacity="1" /><path clip-path="url(#clip760)" d="M117.825 1164.96 L125.464 1164.96 L125.464 1138.6 L117.154 1140.26 L117.154 1136 L125.418 1134.34 L130.093 1134.34 L130.093 1164.96 L137.732 1164.96 L137.732 1168.9 L117.825 1168.9 L117.825 1164.96 Z" fill="#000000" fill-rule="nonzero" fill-opacity="1" /><path clip-path="url(#clip760)" d="M157.177 1137.42 Q153.566 1137.42 151.737 1140.98 Q149.931 1144.52 149.931 1151.65 Q149.931 1158.76 151.737 1162.32 Q153.566 1165.86 157.177 1165.86 Q160.811 1165.86 162.616 1162.32 Q164.445 1158.76 164.445 1151.65 Q164.445 1144.52 162.616 1140.98 Q160.811 1137.42 157.177 1137.42 M157.177 1133.71 Q162.987 1133.71 166.042 1138.32 Q169.121 1142.9 169.121 1151.65 Q169.121 1160.38 166.042 1164.99 Q162.987 1169.57 157.177 1169.57 Q151.366 1169.57 148.288 1164.99 Q145.232 1160.38 145.232 1151.65 Q145.232 1142.9 148.288 1138.32 Q151.366 1133.71 157.177 1133.71 Z" fill="#000000" fill-rule="nonzero" fill-opacity="1" /><path clip-path="url(#clip760)" d="M187.338 1137.42 Q183.727 1137.42 181.899 1140.98 Q180.093 1144.52 180.093 1151.65 Q180.093 1158.76 181.899 1162.32 Q183.727 1165.86 187.338 1165.86 Q190.973 1165.86 192.778 1162.32 Q194.607 1158.76 194.607 1151.65 Q194.607 1144.52 192.778 1140.98 Q190.973 1137.42 187.338 1137.42 M187.338 1133.71 Q193.149 1133.71 196.204 1138.32 Q199.283 1142.9 199.283 1151.65 Q199.283 1160.38 196.204 1164.99 Q193.149 1169.57 187.338 1169.57 Q181.528 1169.57 178.45 1164.99 Q175.394 1160.38 175.394 1151.65 Q175.394 1142.9 178.45 1138.32 Q181.528 1133.71 187.338 1133.71 Z" fill="#000000" fill-rule="nonzero" fill-opacity="1" /><path clip-path="url(#clip760)" d="M217.5 1137.42 Q213.889 1137.42 212.061 1140.98 Q210.255 1144.52 210.255 1151.65 Q210.255 1158.76 212.061 1162.32 Q213.889 1165.86 217.5 1165.86 Q221.135 1165.86 222.94 1162.32 Q224.769 1158.76 224.769 1151.65 Q224.769 1144.52 222.94 1140.98 Q221.135 1137.42 217.5 1137.42 M217.5 1133.71 Q223.31 1133.71 226.366 1138.32 Q229.445 1142.9 229.445 1151.65 Q229.445 1160.38 226.366 1164.99 Q223.31 1169.57 217.5 1169.57 Q211.69 1169.57 208.612 1164.99 Q205.556 1160.38 205.556 1151.65 Q205.556 1142.9 208.612 1138.32 Q211.69 1133.71 217.5 1133.71 Z" fill="#000000" fill-rule="nonzero" fill-opacity="1" /><path clip-path="url(#clip760)" d="M121.043 929.984 L137.362 929.984 L137.362 933.919 L115.418 933.919 L115.418 929.984 Q118.08 927.229 122.663 922.6 Q127.269 917.947 128.45 916.604 Q130.695 914.081 131.575 912.345 Q132.478 910.586 132.478 908.896 Q132.478 906.141 130.533 904.405 Q128.612 902.669 125.51 902.669 Q123.311 902.669 120.857 903.433 Q118.427 904.197 115.649 905.748 L115.649 901.026 Q118.473 899.891 120.927 899.313 Q123.38 898.734 125.418 898.734 Q130.788 898.734 133.982 901.419 Q137.177 904.104 137.177 908.595 Q137.177 910.725 136.367 912.646 Q135.579 914.544 133.473 917.137 Q132.894 917.808 129.792 921.025 Q126.691 924.22 121.043 929.984 Z" fill="#000000" fill-rule="nonzero" fill-opacity="1" /><path clip-path="url(#clip760)" d="M157.177 902.438 Q153.566 902.438 151.737 906.002 Q149.931 909.544 149.931 916.674 Q149.931 923.78 151.737 927.345 Q153.566 930.886 157.177 930.886 Q160.811 930.886 162.616 927.345 Q164.445 923.78 164.445 916.674 Q164.445 909.544 162.616 906.002 Q160.811 902.438 157.177 902.438 M157.177 898.734 Q162.987 898.734 166.042 903.34 Q169.121 907.924 169.121 916.674 Q169.121 925.4 166.042 930.007 Q162.987 934.59 157.177 934.59 Q151.366 934.59 148.288 930.007 Q145.232 925.4 145.232 916.674 Q145.232 907.924 148.288 903.34 Q151.366 898.734 157.177 898.734 Z" fill="#000000" fill-rule="nonzero" fill-opacity="1" /><path clip-path="url(#clip760)" d="M187.338 902.438 Q183.727 902.438 181.899 906.002 Q180.093 909.544 180.093 916.674 Q180.093 923.78 181.899 927.345 Q183.727 930.886 187.338 930.886 Q190.973 930.886 192.778 927.345 Q194.607 923.78 194.607 916.674 Q194.607 909.544 192.778 906.002 Q190.973 902.438 187.338 902.438 M187.338 898.734 Q193.149 898.734 196.204 903.34 Q199.283 907.924 199.283 916.674 Q199.283 925.4 196.204 930.007 Q193.149 934.59 187.338 934.59 Q181.528 934.59 178.45 930.007 Q175.394 925.4 175.394 916.674 Q175.394 907.924 178.45 903.34 Q181.528 898.734 187.338 898.734 Z" fill="#000000" fill-rule="nonzero" fill-opacity="1" /><path clip-path="url(#clip760)" d="M217.5 902.438 Q213.889 902.438 212.061 906.002 Q210.255 909.544 210.255 916.674 Q210.255 923.78 212.061 927.345 Q213.889 930.886 217.5 930.886 Q221.135 930.886 222.94 927.345 Q224.769 923.78 224.769 916.674 Q224.769 909.544 222.94 906.002 Q221.135 902.438 217.5 902.438 M217.5 898.734 Q223.31 898.734 226.366 903.34 Q229.445 907.924 229.445 916.674 Q229.445 925.4 226.366 930.007 Q223.31 934.59 217.5 934.59 Q211.69 934.59 208.612 930.007 Q205.556 925.4 205.556 916.674 Q205.556 907.924 208.612 903.34 Q211.69 898.734 217.5 898.734 Z" fill="#000000" fill-rule="nonzero" fill-opacity="1" /><path clip-path="url(#clip760)" d="M131.181 680.307 Q134.538 681.024 136.413 683.293 Q138.311 685.561 138.311 688.894 Q138.311 694.01 134.792 696.811 Q131.274 699.612 124.793 699.612 Q122.617 699.612 120.302 699.172 Q118.01 698.756 115.556 697.899 L115.556 693.385 Q117.501 694.519 119.816 695.098 Q122.13 695.677 124.654 695.677 Q129.052 695.677 131.343 693.941 Q133.658 692.205 133.658 688.894 Q133.658 685.839 131.505 684.126 Q129.376 682.39 125.556 682.39 L121.529 682.39 L121.529 678.547 L125.742 678.547 Q129.191 678.547 131.019 677.182 Q132.848 675.793 132.848 673.2 Q132.848 670.538 130.95 669.126 Q129.075 667.691 125.556 667.691 Q123.635 667.691 121.436 668.108 Q119.237 668.524 116.598 669.404 L116.598 665.237 Q119.26 664.496 121.575 664.126 Q123.913 663.756 125.973 663.756 Q131.297 663.756 134.399 666.186 Q137.501 668.594 137.501 672.714 Q137.501 675.584 135.857 677.575 Q134.214 679.543 131.181 680.307 Z" fill="#000000" fill-rule="nonzero" fill-opacity="1" /><path clip-path="url(#clip760)" d="M157.177 667.459 Q153.566 667.459 151.737 671.024 Q149.931 674.566 149.931 681.695 Q149.931 688.802 151.737 692.367 Q153.566 695.908 157.177 695.908 Q160.811 695.908 162.616 692.367 Q164.445 688.802 164.445 681.695 Q164.445 674.566 162.616 671.024 Q160.811 667.459 157.177 667.459 M157.177 663.756 Q162.987 663.756 166.042 668.362 Q169.121 672.945 169.121 681.695 Q169.121 690.422 166.042 695.029 Q162.987 699.612 157.177 699.612 Q151.366 699.612 148.288 695.029 Q145.232 690.422 145.232 681.695 Q145.232 672.945 148.288 668.362 Q151.366 663.756 157.177 663.756 Z" fill="#000000" fill-rule="nonzero" fill-opacity="1" /><path clip-path="url(#clip760)" d="M187.338 667.459 Q183.727 667.459 181.899 671.024 Q180.093 674.566 180.093 681.695 Q180.093 688.802 181.899 692.367 Q183.727 695.908 187.338 695.908 Q190.973 695.908 192.778 692.367 Q194.607 688.802 194.607 681.695 Q194.607 674.566 192.778 671.024 Q190.973 667.459 187.338 667.459 M187.338 663.756 Q193.149 663.756 196.204 668.362 Q199.283 672.945 199.283 681.695 Q199.283 690.422 196.204 695.029 Q193.149 699.612 187.338 699.612 Q181.528 699.612 178.45 695.029 Q175.394 690.422 175.394 681.695 Q175.394 672.945 178.45 668.362 Q181.528 663.756 187.338 663.756 Z" fill="#000000" fill-rule="nonzero" fill-opacity="1" /><path clip-path="url(#clip760)" d="M217.5 667.459 Q213.889 667.459 212.061 671.024 Q210.255 674.566 210.255 681.695 Q210.255 688.802 212.061 692.367 Q213.889 695.908 217.5 695.908 Q221.135 695.908 222.94 692.367 Q224.769 688.802 224.769 681.695 Q224.769 674.566 222.94 671.024 Q221.135 667.459 217.5 667.459 M217.5 663.756 Q223.31 663.756 226.366 668.362 Q229.445 672.945 229.445 681.695 Q229.445 690.422 226.366 695.029 Q223.31 699.612 217.5 699.612 Q211.69 699.612 208.612 695.029 Q205.556 690.422 205.556 681.695 Q205.556 672.945 208.612 668.362 Q211.69 663.756 217.5 663.756 Z" fill="#000000" fill-rule="nonzero" fill-opacity="1" /><path clip-path="url(#clip760)" d="M129.862 433.477 L118.056 451.926 L129.862 451.926 L129.862 433.477 M128.635 429.403 L134.515 429.403 L134.515 451.926 L139.445 451.926 L139.445 455.814 L134.515 455.814 L134.515 463.963 L129.862 463.963 L129.862 455.814 L114.26 455.814 L114.26 451.301 L128.635 429.403 Z" fill="#000000" fill-rule="nonzero" fill-opacity="1" /><path clip-path="url(#clip760)" d="M157.177 432.481 Q153.566 432.481 151.737 436.046 Q149.931 439.588 149.931 446.717 Q149.931 453.824 151.737 457.388 Q153.566 460.93 157.177 460.93 Q160.811 460.93 162.616 457.388 Q164.445 453.824 164.445 446.717 Q164.445 439.588 162.616 436.046 Q160.811 432.481 157.177 432.481 M157.177 428.778 Q162.987 428.778 166.042 433.384 Q169.121 437.967 169.121 446.717 Q169.121 455.444 166.042 460.051 Q162.987 464.634 157.177 464.634 Q151.366 464.634 148.288 460.051 Q145.232 455.444 145.232 446.717 Q145.232 437.967 148.288 433.384 Q151.366 428.778 157.177 428.778 Z" fill="#000000" fill-rule="nonzero" fill-opacity="1" /><path clip-path="url(#clip760)" d="M187.338 432.481 Q183.727 432.481 181.899 436.046 Q180.093 439.588 180.093 446.717 Q180.093 453.824 181.899 457.388 Q183.727 460.93 187.338 460.93 Q190.973 460.93 192.778 457.388 Q194.607 453.824 194.607 446.717 Q194.607 439.588 192.778 436.046 Q190.973 432.481 187.338 432.481 M187.338 428.778 Q193.149 428.778 196.204 433.384 Q199.283 437.967 199.283 446.717 Q199.283 455.444 196.204 460.051 Q193.149 464.634 187.338 464.634 Q181.528 464.634 178.45 460.051 Q175.394 455.444 175.394 446.717 Q175.394 437.967 178.45 433.384 Q181.528 428.778 187.338 428.778 Z" fill="#000000" fill-rule="nonzero" fill-opacity="1" /><path clip-path="url(#clip760)" d="M217.5 432.481 Q213.889 432.481 212.061 436.046 Q210.255 439.588 210.255 446.717 Q210.255 453.824 212.061 457.388 Q213.889 460.93 217.5 460.93 Q221.135 460.93 222.94 457.388 Q224.769 453.824 224.769 446.717 Q224.769 439.588 222.94 436.046 Q221.135 432.481 217.5 432.481 M217.5 428.778 Q223.31 428.778 226.366 433.384 Q229.445 437.967 229.445 446.717 Q229.445 455.444 226.366 460.051 Q223.31 464.634 217.5 464.634 Q211.69 464.634 208.612 460.051 Q205.556 455.444 205.556 446.717 Q205.556 437.967 208.612 433.384 Q211.69 428.778 217.5 428.778 Z" fill="#000000" fill-rule="nonzero" fill-opacity="1" /><path clip-path="url(#clip760)" d="M117.061 194.424 L135.417 194.424 L135.417 198.36 L121.343 198.36 L121.343 206.832 Q122.362 206.484 123.38 206.322 Q124.399 206.137 125.418 206.137 Q131.205 206.137 134.584 209.309 Q137.964 212.48 137.964 217.896 Q137.964 223.475 134.492 226.577 Q131.019 229.656 124.7 229.656 Q122.524 229.656 120.255 229.285 Q118.01 228.915 115.603 228.174 L115.603 223.475 Q117.686 224.609 119.908 225.165 Q122.13 225.72 124.607 225.72 Q128.612 225.72 130.95 223.614 Q133.288 221.508 133.288 217.896 Q133.288 214.285 130.95 212.179 Q128.612 210.072 124.607 210.072 Q122.732 210.072 120.857 210.489 Q119.006 210.906 117.061 211.785 L117.061 194.424 Z" fill="#000000" fill-rule="nonzero" fill-opacity="1" /><path clip-path="url(#clip760)" d="M157.177 197.503 Q153.566 197.503 151.737 201.068 Q149.931 204.609 149.931 211.739 Q149.931 218.846 151.737 222.41 Q153.566 225.952 157.177 225.952 Q160.811 225.952 162.616 222.41 Q164.445 218.846 164.445 211.739 Q164.445 204.609 162.616 201.068 Q160.811 197.503 157.177 197.503 M157.177 193.799 Q162.987 193.799 166.042 198.406 Q169.121 202.989 169.121 211.739 Q169.121 220.466 166.042 225.072 Q162.987 229.656 157.177 229.656 Q151.366 229.656 148.288 225.072 Q145.232 220.466 145.232 211.739 Q145.232 202.989 148.288 198.406 Q151.366 193.799 157.177 193.799 Z" fill="#000000" fill-rule="nonzero" fill-opacity="1" /><path clip-path="url(#clip760)" d="M187.338 197.503 Q183.727 197.503 181.899 201.068 Q180.093 204.609 180.093 211.739 Q180.093 218.846 181.899 222.41 Q183.727 225.952 187.338 225.952 Q190.973 225.952 192.778 222.41 Q194.607 218.846 194.607 211.739 Q194.607 204.609 192.778 201.068 Q190.973 197.503 187.338 197.503 M187.338 193.799 Q193.149 193.799 196.204 198.406 Q199.283 202.989 199.283 211.739 Q199.283 220.466 196.204 225.072 Q193.149 229.656 187.338 229.656 Q181.528 229.656 178.45 225.072 Q175.394 220.466 175.394 211.739 Q175.394 202.989 178.45 198.406 Q181.528 193.799 187.338 193.799 Z" fill="#000000" fill-rule="nonzero" fill-opacity="1" /><path clip-path="url(#clip760)" d="M217.5 197.503 Q213.889 197.503 212.061 201.068 Q210.255 204.609 210.255 211.739 Q210.255 218.846 212.061 222.41 Q213.889 225.952 217.5 225.952 Q221.135 225.952 222.94 222.41 Q224.769 218.846 224.769 211.739 Q224.769 204.609 222.94 201.068 Q221.135 197.503 217.5 197.503 M217.5 193.799 Q223.31 193.799 226.366 198.406 Q229.445 202.989 229.445 211.739 Q229.445 220.466 226.366 225.072 Q223.31 229.656 217.5 229.656 Q211.69 229.656 208.612 225.072 Q205.556 220.466 205.556 211.739 Q205.556 202.989 208.612 198.406 Q211.69 193.799 217.5 193.799 Z" fill="#000000" fill-rule="nonzero" fill-opacity="1" /><path clip-path="url(#clip760)" d="M41.3104 969.884 L58.7206 969.884 L58.7206 959.571 Q58.7206 954.383 56.5881 951.901 Q54.4238 949.386 49.9996 949.386 Q45.5436 949.386 43.4429 951.901 Q41.3104 954.383 41.3104 959.571 L41.3104 969.884 M21.7677 969.884 L36.0905 969.884 L36.0905 960.367 Q36.0905 955.656 34.34 953.365 Q32.5576 951.041 28.9291 951.041 Q25.3325 951.041 23.5501 953.365 Q21.7677 955.656 21.7677 960.367 L21.7677 969.884 M16.4842 976.313 L16.4842 959.89 Q16.4842 952.537 19.5397 948.559 Q22.5952 944.58 28.2289 944.58 Q32.5894 944.58 35.1675 946.617 Q37.7456 948.654 38.3822 952.601 Q39.4007 947.858 42.6472 945.248 Q45.8619 942.607 50.6998 942.607 Q57.0655 942.607 60.5348 946.935 Q64.0042 951.264 64.0042 959.253 L64.0042 976.313 L16.4842 976.313 Z" fill="#000000" fill-rule="nonzero" fill-opacity="1" /><path clip-path="url(#clip760)" d="M32.4621 918.035 Q32.4621 922.746 36.1542 925.483 Q39.8145 928.22 46.212 928.22 Q52.6095 928.22 56.3017 925.515 Q59.9619 922.778 59.9619 918.035 Q59.9619 913.356 56.2698 910.619 Q52.5777 907.882 46.212 907.882 Q39.8781 907.882 36.186 910.619 Q32.4621 913.356 32.4621 918.035 M27.4968 918.035 Q27.4968 910.396 32.4621 906.036 Q37.4273 901.675 46.212 901.675 Q54.9649 901.675 59.9619 906.036 Q64.9272 910.396 64.9272 918.035 Q64.9272 925.706 59.9619 930.066 Q54.9649 934.395 46.212 934.395 Q37.4273 934.395 32.4621 930.066 Q27.4968 925.706 27.4968 918.035 Z" fill="#000000" fill-rule="nonzero" fill-opacity="1" /><path clip-path="url(#clip760)" d="M32.4621 878.154 Q32.4621 882.865 36.1542 885.602 Q39.8145 888.339 46.212 888.339 Q52.6095 888.339 56.3017 885.634 Q59.9619 882.896 59.9619 878.154 Q59.9619 873.475 56.2698 870.738 Q52.5777 868.001 46.212 868.001 Q39.8781 868.001 36.186 870.738 Q32.4621 873.475 32.4621 878.154 M27.4968 878.154 Q27.4968 870.515 32.4621 866.155 Q37.4273 861.794 46.212 861.794 Q54.9649 861.794 59.9619 866.155 Q64.9272 870.515 64.9272 878.154 Q64.9272 885.825 59.9619 890.185 Q54.9649 894.514 46.212 894.514 Q37.4273 894.514 32.4621 890.185 Q27.4968 885.825 27.4968 878.154 Z" fill="#000000" fill-rule="nonzero" fill-opacity="1" /><path clip-path="url(#clip760)" d="M29.4065 829.361 L34.9447 829.361 Q33.6716 831.843 33.035 834.517 Q32.3984 837.191 32.3984 840.055 Q32.3984 844.416 33.7352 846.612 Q35.072 848.776 37.7456 848.776 Q39.7826 848.776 40.9603 847.217 Q42.1061 845.657 43.1565 840.946 L43.6021 838.941 Q44.9389 832.703 47.3897 830.093 Q49.8086 827.451 54.1691 827.451 Q59.1344 827.451 62.0308 831.398 Q64.9272 835.313 64.9272 842.188 Q64.9272 845.052 64.3543 848.171 Q63.8132 851.259 62.6992 854.696 L56.6518 854.696 Q58.3387 851.45 59.198 848.299 Q60.0256 845.148 60.0256 842.06 Q60.0256 837.923 58.6251 835.695 Q57.1929 833.467 54.6147 833.467 Q52.2276 833.467 50.9545 835.09 Q49.6813 836.681 48.5037 842.124 L48.0262 844.161 Q46.8804 849.604 44.5251 852.023 Q42.138 854.442 38.0002 854.442 Q32.9713 854.442 30.2341 850.877 Q27.4968 847.312 27.4968 840.755 Q27.4968 837.509 27.9743 834.644 Q28.4517 831.78 29.4065 829.361 Z" fill="#000000" fill-rule="nonzero" fill-opacity="1" /><path clip-path="url(#clip760)" d="M18.2347 812.333 L28.3562 812.333 L28.3562 800.269 L32.9077 800.269 L32.9077 812.333 L52.2594 812.333 Q56.6199 812.333 57.8613 811.155 Q59.1026 809.945 59.1026 806.285 L59.1026 800.269 L64.0042 800.269 L64.0042 806.285 Q64.0042 813.065 61.4897 815.643 Q58.9434 818.221 52.2594 818.221 L32.9077 818.221 L32.9077 822.518 L28.3562 822.518 L28.3562 818.221 L18.2347 818.221 L18.2347 812.333 Z" fill="#000000" fill-rule="nonzero" fill-opacity="1" /><path clip-path="url(#clip760)" d="M16.4842 771.592 L16.4842 744.283 L21.895 744.283 L21.895 765.163 L35.8996 765.163 L35.8996 746.32 L41.3104 746.32 L41.3104 765.163 L64.0042 765.163 L64.0042 771.592 L16.4842 771.592 Z" fill="#000000" fill-rule="nonzero" fill-opacity="1" /><path clip-path="url(#clip760)" d="M46.0847 724.136 Q46.0847 731.233 47.7079 733.971 Q49.3312 736.708 53.2461 736.708 Q56.3653 736.708 58.2114 734.671 Q60.0256 732.602 60.0256 729.069 Q60.0256 724.199 56.5881 721.271 Q53.1188 718.311 47.3897 718.311 L46.0847 718.311 L46.0847 724.136 M43.6657 712.455 L64.0042 712.455 L64.0042 718.311 L58.5933 718.311 Q61.8398 720.316 63.3994 723.308 Q64.9272 726.3 64.9272 730.629 Q64.9272 736.103 61.8716 739.35 Q58.7843 742.564 53.6281 742.564 Q47.6125 742.564 44.5569 738.554 Q41.5014 734.512 41.5014 726.523 L41.5014 718.311 L40.9285 718.311 Q36.8862 718.311 34.6901 720.985 Q32.4621 723.626 32.4621 728.432 Q32.4621 731.488 33.1941 734.384 Q33.9262 737.281 35.3903 739.954 L29.9795 739.954 Q28.7381 736.74 28.1334 733.716 Q27.4968 730.692 27.4968 727.828 Q27.4968 720.093 31.5072 716.274 Q35.5176 712.455 43.6657 712.455 Z" fill="#000000" fill-rule="nonzero" fill-opacity="1" /><path clip-path="url(#clip760)" d="M29.7248 674.738 L35.1993 674.738 Q33.8307 677.22 33.1623 679.735 Q32.4621 682.217 32.4621 684.764 Q32.4621 690.461 36.0905 693.612 Q39.6872 696.763 46.212 696.763 Q52.7369 696.763 56.3653 693.612 Q59.9619 690.461 59.9619 684.764 Q59.9619 682.217 59.2935 679.735 Q58.5933 677.22 57.2247 674.738 L62.6355 674.738 Q63.7814 677.189 64.3543 679.83 Q64.9272 682.44 64.9272 685.4 Q64.9272 693.453 59.8664 698.195 Q54.8057 702.938 46.212 702.938 Q37.491 702.938 32.4939 698.164 Q27.4968 693.357 27.4968 685.018 Q27.4968 682.313 28.0697 679.735 Q28.6108 677.157 29.7248 674.738 Z" fill="#000000" fill-rule="nonzero" fill-opacity="1" /><path clip-path="url(#clip760)" d="M18.2347 658.76 L28.3562 658.76 L28.3562 646.697 L32.9077 646.697 L32.9077 658.76 L52.2594 658.76 Q56.6199 658.76 57.8613 657.582 Q59.1026 656.373 59.1026 652.712 L59.1026 646.697 L64.0042 646.697 L64.0042 652.712 Q64.0042 659.492 61.4897 662.07 Q58.9434 664.648 52.2594 664.648 L32.9077 664.648 L32.9077 668.945 L28.3562 668.945 L28.3562 664.648 L18.2347 664.648 L18.2347 658.76 Z" fill="#000000" fill-rule="nonzero" fill-opacity="1" /><path clip-path="url(#clip760)" d="M32.4621 625.181 Q32.4621 629.891 36.1542 632.629 Q39.8145 635.366 46.212 635.366 Q52.6095 635.366 56.3017 632.66 Q59.9619 629.923 59.9619 625.181 Q59.9619 620.502 56.2698 617.765 Q52.5777 615.027 46.212 615.027 Q39.8781 615.027 36.186 617.765 Q32.4621 620.502 32.4621 625.181 M27.4968 625.181 Q27.4968 617.542 32.4621 613.181 Q37.4273 608.821 46.212 608.821 Q54.9649 608.821 59.9619 613.181 Q64.9272 617.542 64.9272 625.181 Q64.9272 632.851 59.9619 637.212 Q54.9649 641.541 46.212 641.541 Q37.4273 641.541 32.4621 637.212 Q27.4968 632.851 27.4968 625.181 Z" fill="#000000" fill-rule="nonzero" fill-opacity="1" /><path clip-path="url(#clip760)" d="M33.8307 578.456 Q33.2578 579.443 33.0032 580.621 Q32.7167 581.767 32.7167 583.167 Q32.7167 588.132 35.9632 590.806 Q39.1779 593.448 45.2253 593.448 L64.0042 593.448 L64.0042 599.336 L28.3562 599.336 L28.3562 593.448 L33.8944 593.448 Q30.6479 591.602 29.0883 588.642 Q27.4968 585.682 27.4968 581.448 Q27.4968 580.844 27.5923 580.112 Q27.656 579.379 27.8151 578.488 L33.8307 578.456 Z" fill="#000000" fill-rule="nonzero" fill-opacity="1" /><path clip-path="url(#clip760)" d="M61.808 545.737 L77.5631 545.737 L77.5631 551.625 L28.579 551.625 Q14.0652 551.625 14.0652 538.066 Q14.0652 524.252 26.3192 524.252 Q35.0402 524.252 38.223 529.727 Q41.0876 520.815 49.5858 520.815 Q64.6726 520.815 64.6726 536.156 Q64.6726 542.904 61.808 545.737 M54.1691 545.737 Q59.6755 542.204 59.6755 535.934 Q59.6755 526.767 49.6813 526.767 Q40.7057 526.767 41.4059 541.535 L35.995 541.535 Q35.995 529.982 25.8099 529.982 Q18.8395 529.982 18.8395 537.429 Q18.8395 545.737 28.77 545.737 L54.1691 545.737 Z" fill="#000000" fill-rule="nonzero" fill-opacity="1" /><path clip-path="url(#clip760)" d="M39.1142 507.606 L39.1142 494.111 L42.7427 494.111 L42.7427 513.144 L39.2416 513.144 Q38.2549 512.062 36.4725 510.057 Q26.7648 499.108 23.7729 499.108 Q21.6722 499.108 20.3991 500.763 Q19.0941 502.418 19.0941 505.124 Q19.0941 506.779 19.667 508.72 Q20.2081 510.662 21.3221 512.953 L17.4072 512.953 Q16.516 510.503 16.0704 508.402 Q15.6248 506.269 15.6248 504.455 Q15.6248 499.84 17.7255 497.071 Q19.8262 494.302 23.2636 494.302 Q27.6878 494.302 36.7271 504.837 Q38.2549 506.619 39.1142 507.606 Z" fill="#000000" fill-rule="nonzero" fill-opacity="1" /><polyline clip-path="url(#clip762)" style="stroke:#009af9; stroke-linecap:round; stroke-linejoin:round; stroke-width:4; stroke-opacity:1; fill:none" points="324.52,1384.24 326.491,1384.22 328.462,1384.21 330.433,1384.19 332.404,1384.18 334.375,1384.16 336.346,1384.15 338.317,1384.13 340.289,1384.12 342.26,1384.1 344.231,1384.09 346.202,1384.07 348.173,1384.06 350.144,1384.04 352.115,1384.02 354.087,1384.01 356.058,1383.99 358.029,1383.98 360,1383.96 361.971,1383.94 363.942,1383.93 365.913,1383.91 367.884,1383.89 369.856,1383.87 371.827,1383.86 373.798,1383.84 375.769,1383.82 377.74,1383.8 379.711,1383.79 381.682,1383.77 383.654,1383.75 385.625,1383.73 387.596,1383.71 389.567,1383.7 391.538,1383.68 393.509,1383.66 395.48,1383.64 397.451,1383.62 399.423,1383.6 401.394,1383.58 403.365,1383.56 405.336,1383.54 407.307,1383.52 409.278,1383.5 411.249,1383.48 413.221,1383.46 415.192,1383.44 417.163,1383.42 419.134,1383.4 421.105,1383.38 423.076,1383.36 425.047,1383.34 427.018,1383.32 428.99,1383.3 430.961,1383.28 432.932,1383.25 434.903,1383.23 436.874,1383.21 438.845,1383.19 440.816,1383.17 442.788,1383.14 444.759,1383.12 446.73,1383.1 448.701,1383.07 450.672,1383.05 452.643,1383.03 454.614,1383 456.585,1382.98 458.557,1382.96 460.528,1382.93 462.499,1382.91 464.47,1382.88 466.441,1382.86 468.412,1382.83 470.383,1382.81 472.355,1382.78 474.326,1382.76 476.297,1382.73 478.268,1382.7 480.239,1382.68 482.21,1382.65 484.181,1382.62 486.152,1382.6 488.124,1382.57 490.095,1382.54 492.066,1382.52 494.037,1382.49 496.008,1382.46 497.979,1382.43 499.95,1382.4 501.922,1382.37 503.893,1382.34 505.864,1382.32 507.835,1382.29 509.806,1382.26 511.777,1382.23 513.748,1382.2 515.719,1382.17 517.691,1382.13 519.662,1382.1 521.633,1382.07 523.604,1382.04 525.575,1382.01 527.546,1381.98 529.517,1381.94 531.488,1381.91 533.46,1381.88 535.431,1381.85 537.402,1381.81 539.373,1381.78 541.344,1381.74 543.315,1381.71 545.286,1381.68 547.258,1381.64 549.229,1381.61 551.2,1381.57 553.171,1381.53 555.142,1381.5 557.113,1381.46 559.084,1381.42 561.055,1381.39 563.027,1381.35 564.998,1381.31 566.969,1381.27 568.94,1381.24 570.911,1381.2 572.882,1381.16 574.853,1381.12 576.825,1381.08 578.796,1381.04 580.767,1381 582.738,1380.96 584.709,1380.92 586.68,1380.87 588.651,1380.83 590.622,1380.79 592.594,1380.75 594.565,1380.7 596.536,1380.66 598.507,1380.62 600.478,1380.57 602.449,1380.53 604.42,1380.48 606.392,1380.43 608.363,1380.39 610.334,1380.34 612.305,1380.3 614.276,1380.25 616.247,1380.2 618.218,1380.15 620.189,1380.1 622.161,1380.05 624.132,1380 626.103,1379.95 628.074,1379.9 630.045,1379.85 632.016,1379.8 633.987,1379.75 635.959,1379.7 637.93,1379.64 639.901,1379.59 641.872,1379.53 643.843,1379.48 645.814,1379.42 647.785,1379.37 649.756,1379.31 651.728,1379.25 653.699,1379.2 655.67,1379.14 657.641,1379.08 659.612,1379.02 661.583,1378.96 663.554,1378.9 665.526,1378.84 667.497,1378.78 669.468,1378.72 671.439,1378.65 673.41,1378.59 675.381,1378.53 677.352,1378.46 679.323,1378.4 681.295,1378.33 683.266,1378.26 685.237,1378.19 687.208,1378.13 689.179,1378.06 691.15,1377.99 693.121,1377.92 695.093,1377.85 697.064,1377.77 699.035,1377.7 701.006,1377.63 702.977,1377.55 704.948,1377.48 706.919,1377.4 708.89,1377.33 710.862,1377.25 712.833,1377.17 714.804,1377.09 716.775,1377.01 718.746,1376.93 720.717,1376.85 722.688,1376.77 724.659,1376.69 726.631,1376.6 728.602,1376.52 730.573,1376.43 732.544,1376.34 734.515,1376.25 736.486,1376.17 738.457,1376.08 740.429,1375.98 742.4,1375.89 744.371,1375.8 746.342,1375.7 748.313,1375.61 750.284,1375.51 752.255,1375.42 754.226,1375.32 756.198,1375.22 758.169,1375.12 760.14,1375.01 762.111,1374.91 764.082,1374.81 766.053,1374.7 768.024,1374.6 769.996,1374.49 771.967,1374.38 773.938,1374.27 775.909,1374.16 777.88,1374.04 779.851,1373.93 781.822,1373.81 783.793,1373.69 785.765,1373.58 787.736,1373.46 789.707,1373.33 791.678,1373.21 793.649,1373.09 795.62,1372.96 797.591,1372.83 799.563,1372.7 801.534,1372.57 803.505,1372.44 805.476,1372.31 807.447,1372.17 809.418,1372.03 811.389,1371.89 813.36,1371.75 815.332,1371.61 817.303,1371.47 819.274,1371.32 821.245,1371.17 823.216,1371.02 825.187,1370.87 827.158,1370.71 829.13,1370.56 831.101,1370.4 833.072,1370.24 835.043,1370.08 837.014,1369.91 838.985,1369.75 840.956,1369.58 842.927,1369.41 844.899,1369.23 846.87,1369.06 848.841,1368.88 850.812,1368.7 852.783,1368.52 854.754,1368.33 856.725,1368.14 858.697,1367.95 860.668,1367.76 862.639,1367.56 864.61,1367.37 866.581,1367.16 868.552,1366.96 870.523,1366.75 872.494,1366.54 874.466,1366.33 876.437,1366.12 878.408,1365.9 880.379,1365.67 882.35,1365.45 884.321,1365.22 886.292,1364.99 888.264,1364.75 890.235,1364.51 892.206,1364.27 894.177,1364.03 896.148,1363.78 898.119,1363.52 900.09,1363.27 902.061,1363.01 904.033,1362.74 906.004,1362.47 907.975,1362.2 909.946,1361.92 911.917,1361.64 913.888,1361.36 915.859,1361.07 917.83,1360.77 919.802,1360.47 921.773,1360.17 923.744,1359.86 925.715,1359.55 927.686,1359.23 929.657,1358.91 931.628,1358.58 933.6,1358.25 935.571,1357.91 937.542,1357.56 939.513,1357.21 941.484,1356.85 943.455,1356.49 945.426,1356.12 947.397,1355.75 949.369,1355.37 951.34,1354.98 953.311,1354.59 955.282,1354.19 957.253,1353.78 959.224,1353.37 961.195,1352.95 963.167,1352.52 965.138,1352.08 967.109,1351.64 969.08,1351.19 971.051,1350.73 973.022,1350.26 974.993,1349.79 976.964,1349.3 978.936,1348.81 980.907,1348.31 982.878,1347.8 984.849,1347.28 986.82,1346.75 988.791,1346.21 990.762,1345.66 992.734,1345.1 994.705,1344.53 996.676,1343.95 998.647,1343.36 1000.62,1342.75 1002.59,1342.14 1004.56,1341.51 1006.53,1340.87 1008.5,1340.22 1010.47,1339.55 1012.44,1338.88 1014.42,1338.19 1016.39,1337.48 1018.36,1336.76 1020.33,1336.03 1022.3,1335.28 1024.27,1334.51 1026.24,1333.74 1028.21,1332.94 1030.19,1332.13 1032.16,1331.3 1034.13,1330.45 1036.1,1329.59 1038.07,1328.7 1040.04,1327.8 1042.01,1326.88 1043.98,1325.94 1045.95,1324.98 1047.93,1323.99 1049.9,1322.99 1051.87,1321.96 1053.84,1320.91 1055.81,1319.84 1057.78,1318.74 1059.75,1317.61 1061.72,1316.46 1063.69,1315.29 1065.67,1314.09 1067.64,1312.85 1069.61,1311.59 1071.58,1310.3 1073.55,1308.98 1075.52,1307.63 1077.49,1306.24 1079.46,1304.82 1081.43,1303.37 1083.41,1301.88 1085.38,1300.35 1087.35,1298.79 1089.32,1297.18 1091.29,1295.54 1093.26,1293.85 1095.23,1292.12 1097.2,1290.34 1099.17,1288.52 1101.15,1286.65 1103.12,1284.73 1105.09,1282.75 1107.06,1280.73 1109.03,1278.65 1111,1276.51 1112.97,1274.32 1114.94,1272.06 1116.91,1269.75 1118.89,1267.36 1120.86,1264.91 1122.83,1262.39 1124.8,1259.8 1126.77,1257.13 1128.74,1254.39 1130.71,1251.56 1132.68,1248.65 1134.66,1245.65 1136.63,1242.57 1138.6,1239.39 1140.57,1236.11 1142.54,1232.74 1144.51,1229.25 1146.48,1225.67 1148.45,1221.96 1150.42,1218.14 1152.4,1214.2 1154.37,1210.14 1156.34,1205.94 1158.31,1201.6 1160.28,1197.12 1162.25,1192.5 1164.22,1187.72 1166.19,1182.78 1168.16,1177.67 1170.14,1172.39 1172.11,1166.93 1174.08,1161.28 1176.05,1155.44 1178.02,1149.39 1179.99,1143.13 1181.96,1136.64 1183.93,1129.93 1185.9,1122.97 1187.88,1115.77 1189.85,1108.3 1191.82,1100.56 1193.79,1092.54 1195.76,1084.22 1197.73,1075.6 1199.7,1066.65 1201.67,1057.37 1203.64,1047.74 1205.62,1037.75 1207.59,1027.39 1209.56,1016.63 1211.53,1005.47 1213.5,993.888 1215.47,981.866 1217.44,969.389 1219.41,956.441 1221.38,943.005 1223.36,929.065 1225.33,914.605 1227.3,899.607 1229.27,884.056 1231.24,867.936 1233.21,851.234 1235.18,833.936 1237.15,816.029 1239.13,797.503 1241.1,778.35 1243.07,758.565 1245.04,738.143 1247.01,717.087 1248.98,695.399 1250.95,673.091 1252.92,650.175 1254.89,626.673 1256.87,602.613 1258.84,578.027 1260.81,552.961 1262.78,527.466 1264.75,501.603 1266.72,475.445 1268.69,449.075 1270.66,422.589 1272.63,396.092 1274.61,369.702 1276.58,343.55 1278.55,317.775 1280.52,292.531 1282.49,267.975 1284.46,244.277 1286.43,221.607 1288.4,200.143 1290.37,180.059 1292.35,161.528 1294.32,144.716 1296.29,129.779 1298.26,116.86 1300.23,106.085 1302.2,97.5584 1304.17,91.3652 1306.14,87.5635 1308.11,86.1857 1310.09,87.2371 1312.06,90.6959 1314.03,96.514 1316,104.618 1317.97,114.912 1319.94,127.279 1321.91,141.585 1323.88,157.682 1325.85,175.413 1327.83,194.609 1329.8,215.103 1331.77,236.722 1333.74,259.299 1335.71,282.669 1337.68,306.673 1339.65,331.163 1341.62,355.997 1343.6,381.046 1345.57,406.189 1347.54,431.32 1349.51,456.341 1351.48,481.165 1353.45,505.719 1355.42,529.935 1357.39,553.759 1359.36,577.144 1361.34,600.05 1363.31,622.447 1365.28,644.309 1367.25,665.618 1369.22,686.36 1371.19,706.527 1373.16,726.114 1375.13,745.121 1377.1,763.549 1379.08,781.403 1381.05,798.691 1383.02,815.421 1384.99,831.603 1386.96,847.249 1388.93,862.372 1390.9,876.985 1392.87,891.102 1394.84,904.737 1396.82,917.905 1398.79,930.621 1400.76,942.898 1402.73,954.752 1404.7,966.198 1406.67,977.249 1408.64,987.919 1410.61,998.223 1412.58,1008.17 1414.56,1017.78 1416.53,1027.07 1418.5,1036.03 1420.47,1044.7 1422.44,1053.07 1424.41,1061.16 1426.38,1068.98 1428.35,1076.55 1430.32,1083.86 1432.3,1090.93 1434.27,1097.77 1436.24,1104.39 1438.21,1110.8 1440.18,1117 1442.15,1123.01 1444.12,1128.82 1446.09,1134.46 1448.07,1139.91 1450.04,1145.2 1452.01,1150.33 1453.98,1155.3 1455.95,1160.12 1457.92,1164.79 1459.89,1169.32 1461.86,1173.72 1463.83,1177.99 1465.81,1182.14 1467.78,1186.17 1469.75,1190.08 1471.72,1193.87 1473.69,1197.56 1475.66,1201.15 1477.63,1204.64 1479.6,1208.03 1481.57,1211.32 1483.55,1214.53 1485.52,1217.65 1487.49,1220.69 1489.46,1223.64 1491.43,1226.52 1493.4,1229.32 1495.37,1232.04 1497.34,1234.7 1499.31,1237.29 1501.29,1239.81 1503.26,1242.27 1505.23,1244.67 1507.2,1247.01 1509.17,1249.28 1511.14,1251.51 1513.11,1253.68 1515.08,1255.79 1517.05,1257.86 1519.03,1259.87 1521,1261.84 1522.97,1263.76 1524.94,1265.64 1526.91,1267.47 1528.88,1269.26 1530.85,1271.01 1532.82,1272.72 1534.8,1274.39 1536.77,1276.03 1538.74,1277.63 1540.71,1279.19 1542.68,1280.72 1544.65,1282.21 1546.62,1283.67 1548.59,1285.1 1550.56,1286.5 1552.54,1287.87 1554.51,1289.22 1556.48,1290.53 1558.45,1291.82 1560.42,1293.07 1562.39,1294.31 1564.36,1295.52 1566.33,1296.7 1568.3,1297.86 1570.28,1299 1572.25,1300.11 1574.22,1301.2 1576.19,1302.28 1578.16,1303.33 1580.13,1304.36 1582.1,1305.37 1584.07,1306.36 1586.04,1307.33 1588.02,1308.28 1589.99,1309.22 1591.96,1310.13 1593.93,1311.04 1595.9,1311.92 1597.87,1312.79 1599.84,1313.64 1601.81,1314.48 1603.78,1315.3 1605.76,1316.11 1607.73,1316.9 1609.7,1317.68 1611.67,1318.44 1613.64,1319.19 1615.61,1319.93 1617.58,1320.66 1619.55,1321.37 1621.52,1322.07 1623.5,1322.76 1625.47,1323.44 1627.44,1324.11 1629.41,1324.76 1631.38,1325.41 1633.35,1326.04 1635.32,1326.66 1637.29,1327.28 1639.27,1327.88 1641.24,1328.47 1643.21,1329.06 1645.18,1329.63 1647.15,1330.2 1649.12,1330.75 1651.09,1331.3 1653.06,1331.84 1655.03,1332.37 1657.01,1332.89 1658.98,1333.41 1660.95,1333.92 1662.92,1334.41 1664.89,1334.91 1666.86,1335.39 1668.83,1335.87 1670.8,1336.34 1672.77,1336.8 1674.75,1337.25 1676.72,1337.7 1678.69,1338.15 1680.66,1338.58 1682.63,1339.01 1684.6,1339.44 1686.57,1339.85 1688.54,1340.27 1690.51,1340.67 1692.49,1341.07 1694.46,1341.47 1696.43,1341.85 1698.4,1342.24 1700.37,1342.62 1702.34,1342.99 1704.31,1343.36 1706.28,1343.72 1708.25,1344.08 1710.23,1344.43 1712.2,1344.78 1714.17,1345.12 1716.14,1345.46 1718.11,1345.8 1720.08,1346.13 1722.05,1346.45 1724.02,1346.77 1725.99,1347.09 1727.97,1347.41 1729.94,1347.71 1731.91,1348.02 1733.88,1348.32 1735.85,1348.62 1737.82,1348.91 1739.79,1349.2 1741.76,1349.49 1743.74,1349.77 1745.71,1350.05 1747.68,1350.33 1749.65,1350.6 1751.62,1350.87 1753.59,1351.13 1755.56,1351.4 1757.53,1351.66 1759.5,1351.91 1761.48,1352.17 1763.45,1352.42 1765.42,1352.66 1767.39,1352.91 1769.36,1353.15 1771.33,1353.39 1773.3,1353.62 1775.27,1353.86 1777.24,1354.09 1779.22,1354.31 1781.19,1354.54 1783.16,1354.76 1785.13,1354.98 1787.1,1355.2 1789.07,1355.41 1791.04,1355.62 1793.01,1355.83 1794.98,1356.04 1796.96,1356.25 1798.93,1356.45 1800.9,1356.65 1802.87,1356.85 1804.84,1357.05 1806.81,1357.24 1808.78,1357.43 1810.75,1357.62 1812.72,1357.81 1814.7,1358 1816.67,1358.18 1818.64,1358.36 1820.61,1358.54 1822.58,1358.72 1824.55,1358.9 1826.52,1359.07 1828.49,1359.24 1830.46,1359.42 1832.44,1359.58 1834.41,1359.75 1836.38,1359.92 1838.35,1360.08 1840.32,1360.24 1842.29,1360.4 1844.26,1360.56 1846.23,1360.72 1848.21,1360.88 1850.18,1361.03 1852.15,1361.18 1854.12,1361.33 1856.09,1361.48 1858.06,1361.63 1860.03,1361.78 1862,1361.92 1863.97,1362.07 1865.95,1362.21 1867.92,1362.35 1869.89,1362.49 1871.86,1362.63 1873.83,1362.76 1875.8,1362.9 1877.77,1363.03 1879.74,1363.17 1881.71,1363.3 1883.69,1363.43 1885.66,1363.56 1887.63,1363.69 1889.6,1363.81 1891.57,1363.94 1893.54,1364.06 1895.51,1364.19 1897.48,1364.31 1899.45,1364.43 1901.43,1364.55 1903.4,1364.67 1905.37,1364.78 1907.34,1364.9 1909.31,1365.02 1911.28,1365.13 1913.25,1365.25 1915.22,1365.36 1917.19,1365.47 1919.17,1365.58 1921.14,1365.69 1923.11,1365.8 1925.08,1365.91 1927.05,1366.01 1929.02,1366.12 1930.99,1366.22 1932.96,1366.33 1934.93,1366.43 1936.91,1366.53 1938.88,1366.63 1940.85,1366.73 1942.82,1366.83 1944.79,1366.93 1946.76,1367.03 1948.73,1367.12 1950.7,1367.22 1952.68,1367.32 1954.65,1367.41 1956.62,1367.5 1958.59,1367.6 1960.56,1367.69 1962.53,1367.78 1964.5,1367.87 1966.47,1367.96 1968.44,1368.05 1970.42,1368.14 1972.39,1368.23 1974.36,1368.31 1976.33,1368.4 1978.3,1368.49 1980.27,1368.57 1982.24,1368.65 1984.21,1368.74 1986.18,1368.82 1988.16,1368.9 1990.13,1368.98 1992.1,1369.06 1994.07,1369.14 1996.04,1369.22 1998.01,1369.3 1999.98,1369.38 2001.95,1369.46 2003.92,1369.54 2005.9,1369.61 2007.87,1369.69 2009.84,1369.76 2011.81,1369.84 2013.78,1369.91 2015.75,1369.99 2017.72,1370.06 2019.69,1370.13 2021.66,1370.2 2023.64,1370.28 2025.61,1370.35 2027.58,1370.42 2029.55,1370.49 2031.52,1370.56 2033.49,1370.62 2035.46,1370.69 2037.43,1370.76 2039.4,1370.83 2041.38,1370.89 2043.35,1370.96 2045.32,1371.03 2047.29,1371.09 2049.26,1371.16 2051.23,1371.22 2053.2,1371.28 2055.17,1371.35 2057.15,1371.41 2059.12,1371.47 2061.09,1371.53 2063.06,1371.6 2065.03,1371.66 2067,1371.72 2068.97,1371.78 2070.94,1371.84 2072.91,1371.9 2074.89,1371.96 2076.86,1372.01 2078.83,1372.07 2080.8,1372.13 2082.77,1372.19 2084.74,1372.25 2086.71,1372.3 2088.68,1372.36 2090.65,1372.41 2092.63,1372.47 2094.6,1372.52 2096.57,1372.58 2098.54,1372.63 2100.51,1372.69 2102.48,1372.74 2104.45,1372.79 2106.42,1372.85 2108.39,1372.9 2110.37,1372.95 2112.34,1373 2114.31,1373.05 2116.28,1373.1 2118.25,1373.16 2120.22,1373.21 2122.19,1373.26 2124.16,1373.31 2126.13,1373.35 2128.11,1373.4 2130.08,1373.45 2132.05,1373.5 2134.02,1373.55 2135.99,1373.6 2137.96,1373.64 2139.93,1373.69 2141.9,1373.74 2143.87,1373.78 2145.85,1373.83 2147.82,1373.88 2149.79,1373.92 2151.76,1373.97 2153.73,1374.01 2155.7,1374.06 2157.67,1374.1 2159.64,1374.15 2161.62,1374.19 2163.59,1374.23 2165.56,1374.28 2167.53,1374.32 2169.5,1374.36 2171.47,1374.41 2173.44,1374.45 2175.41,1374.49 2177.38,1374.53 2179.36,1374.57 2181.33,1374.61 2183.3,1374.66 2185.27,1374.7 2187.24,1374.74 2189.21,1374.78 2191.18,1374.82 2193.15,1374.86 2195.12,1374.9 2197.1,1374.94 2199.07,1374.97 2201.04,1375.01 2203.01,1375.05 2204.98,1375.09 2206.95,1375.13 2208.92,1375.17 2210.89,1375.2 2212.86,1375.24 2214.84,1375.28 2216.81,1375.32 2218.78,1375.35 2220.75,1375.39 2222.72,1375.43 2224.69,1375.46 2226.66,1375.5 2228.63,1375.53 2230.6,1375.57 2232.58,1375.6 2234.55,1375.64 2236.52,1375.67 2238.49,1375.71 2240.46,1375.74 2242.43,1375.78 2244.4,1375.81 2246.37,1375.85 2248.35,1375.88 2250.32,1375.91 2252.29,1375.95 2254.26,1375.98 2256.23,1376.01 2258.2,1376.04 2260.17,1376.08 2262.14,1376.11 2264.11,1376.14 2266.09,1376.17 2268.06,1376.21 2270.03,1376.24 2272,1376.27 2273.97,1376.3 2275.94,1376.33 2277.91,1376.36 2279.88,1376.39 2281.85,1376.42 2283.83,1376.45 2285.8,1376.48 2287.77,1376.51 2289.74,1376.54 2291.71,1376.57 2293.68,1376.6 "/>
<path clip-path="url(#clip760)" d="M2022.02 196.789 L2283.18 196.789 L2283.18 93.1086 L2022.02 93.1086  Z" fill="#ffffff" fill-rule="evenodd" fill-opacity="1"/>
<polyline clip-path="url(#clip760)" style="stroke:#000000; stroke-linecap:round; stroke-linejoin:round; stroke-width:4; stroke-opacity:1; fill:none" points="2022.02,196.789 2283.18,196.789 2283.18,93.1086 2022.02,93.1086 2022.02,196.789 "/>
<polyline clip-path="url(#clip760)" style="stroke:#009af9; stroke-linecap:round; stroke-linejoin:round; stroke-width:4; stroke-opacity:1; fill:none" points="2045.21,144.949 2184.36,144.949 "/>
<path clip-path="url(#clip760)" d="M2221.4 164.636 Q2219.59 169.266 2217.88 170.678 Q2216.17 172.09 2213.3 172.09 L2209.89 172.09 L2209.89 168.525 L2212.39 168.525 Q2214.15 168.525 2215.13 167.692 Q2216.1 166.858 2217.28 163.756 L2218.04 161.812 L2207.56 136.303 L2212.07 136.303 L2220.17 156.581 L2228.27 136.303 L2232.79 136.303 L2221.4 164.636 Z" fill="#000000" fill-rule="nonzero" fill-opacity="1" /><path clip-path="url(#clip760)" d="M2240.08 158.293 L2247.72 158.293 L2247.72 131.928 L2239.41 133.595 L2239.41 129.335 L2247.67 127.669 L2252.35 127.669 L2252.35 158.293 L2259.99 158.293 L2259.99 162.229 L2240.08 162.229 L2240.08 158.293 Z" fill="#000000" fill-rule="nonzero" fill-opacity="1" /></svg>
