<?xml version="1.0" encoding="utf-8"?>
<svg xmlns="http://www.w3.org/2000/svg" xmlns:xlink="http://www.w3.org/1999/xlink" width="600" height="400" viewBox="0 0 2400 1600">
<defs>
  <clipPath id="clip230">
    <rect x="0" y="0" width="2400" height="1600"/>
  </clipPath>
</defs>
<path clip-path="url(#clip230)" d="M0 1600 L2400 1600 L2400 0 L0 0  Z" fill="#ffffff" fill-rule="evenodd" fill-opacity="1"/>
<defs>
  <clipPath id="clip231">
    <rect x="480" y="0" width="1681" height="1600"/>
  </clipPath>
</defs>
<path clip-path="url(#clip230)" d="M247.945 1423.18 L2352.76 1423.18 L2352.76 123.472 L247.945 123.472  Z" fill="#ffffff" fill-rule="evenodd" fill-opacity="1"/>
<defs>
  <clipPath id="clip232">
    <rect x="247" y="123" width="2106" height="1301"/>
  </clipPath>
</defs>
<polyline clip-path="url(#clip232)" style="stroke:#000000; stroke-linecap:round; stroke-linejoin:round; stroke-width:2; stroke-opacity:0.1; fill:none" points="287.658,1423.18 287.658,123.472 "/>
<polyline clip-path="url(#clip232)" style="stroke:#000000; stroke-linecap:round; stroke-linejoin:round; stroke-width:2; stroke-opacity:0.1; fill:none" points="784.076,1423.18 784.076,123.472 "/>
<polyline clip-path="url(#clip232)" style="stroke:#000000; stroke-linecap:round; stroke-linejoin:round; stroke-width:2; stroke-opacity:0.1; fill:none" points="1280.49,1423.18 1280.49,123.472 "/>
<polyline clip-path="url(#clip232)" style="stroke:#000000; stroke-linecap:round; stroke-linejoin:round; stroke-width:2; stroke-opacity:0.1; fill:none" points="1776.91,1423.18 1776.91,123.472 "/>
<polyline clip-path="url(#clip232)" style="stroke:#000000; stroke-linecap:round; stroke-linejoin:round; stroke-width:2; stroke-opacity:0.1; fill:none" points="2273.33,1423.18 2273.33,123.472 "/>
<polyline clip-path="url(#clip232)" style="stroke:#000000; stroke-linecap:round; stroke-linejoin:round; stroke-width:2; stroke-opacity:0.1; fill:none" points="247.945,1308.83 2352.76,1308.83 "/>
<polyline clip-path="url(#clip232)" style="stroke:#000000; stroke-linecap:round; stroke-linejoin:round; stroke-width:2; stroke-opacity:0.1; fill:none" points="247.945,1157.16 2352.76,1157.16 "/>
<polyline clip-path="url(#clip232)" style="stroke:#000000; stroke-linecap:round; stroke-linejoin:round; stroke-width:2; stroke-opacity:0.1; fill:none" points="247.945,1005.5 2352.76,1005.5 "/>
<polyline clip-path="url(#clip232)" style="stroke:#000000; stroke-linecap:round; stroke-linejoin:round; stroke-width:2; stroke-opacity:0.1; fill:none" points="247.945,853.84 2352.76,853.84 "/>
<polyline clip-path="url(#clip232)" style="stroke:#000000; stroke-linecap:round; stroke-linejoin:round; stroke-width:2; stroke-opacity:0.1; fill:none" points="247.945,702.178 2352.76,702.178 "/>
<polyline clip-path="url(#clip232)" style="stroke:#000000; stroke-linecap:round; stroke-linejoin:round; stroke-width:2; stroke-opacity:0.1; fill:none" points="247.945,550.516 2352.76,550.516 "/>
<polyline clip-path="url(#clip232)" style="stroke:#000000; stroke-linecap:round; stroke-linejoin:round; stroke-width:2; stroke-opacity:0.1; fill:none" points="247.945,398.854 2352.76,398.854 "/>
<polyline clip-path="url(#clip232)" style="stroke:#000000; stroke-linecap:round; stroke-linejoin:round; stroke-width:2; stroke-opacity:0.1; fill:none" points="247.945,247.192 2352.76,247.192 "/>
<polyline clip-path="url(#clip230)" style="stroke:#000000; stroke-linecap:round; stroke-linejoin:round; stroke-width:4; stroke-opacity:1; fill:none" points="247.945,1423.18 2352.76,1423.18 "/>
<polyline clip-path="url(#clip230)" style="stroke:#000000; stroke-linecap:round; stroke-linejoin:round; stroke-width:4; stroke-opacity:1; fill:none" points="287.658,1423.18 287.658,1404.28 "/>
<polyline clip-path="url(#clip230)" style="stroke:#000000; stroke-linecap:round; stroke-linejoin:round; stroke-width:4; stroke-opacity:1; fill:none" points="784.076,1423.18 784.076,1404.28 "/>
<polyline clip-path="url(#clip230)" style="stroke:#000000; stroke-linecap:round; stroke-linejoin:round; stroke-width:4; stroke-opacity:1; fill:none" points="1280.49,1423.18 1280.49,1404.28 "/>
<polyline clip-path="url(#clip230)" style="stroke:#000000; stroke-linecap:round; stroke-linejoin:round; stroke-width:4; stroke-opacity:1; fill:none" points="1776.91,1423.18 1776.91,1404.28 "/>
<polyline clip-path="url(#clip230)" style="stroke:#000000; stroke-linecap:round; stroke-linejoin:round; stroke-width:4; stroke-opacity:1; fill:none" points="2273.33,1423.18 2273.33,1404.28 "/>
<path clip-path="url(#clip230)" d="M287.658 1454.1 Q284.047 1454.1 282.218 1457.66 Q280.413 1461.2 280.413 1468.33 Q280.413 1475.44 282.218 1479.01 Q284.047 1482.55 287.658 1482.55 Q291.292 1482.55 293.098 1479.01 Q294.927 1475.44 294.927 1468.33 Q294.927 1461.2 293.098 1457.66 Q291.292 1454.1 287.658 1454.1 M287.658 1450.39 Q293.468 1450.39 296.524 1455 Q299.603 1459.58 299.603 1468.33 Q299.603 1477.06 296.524 1481.67 Q293.468 1486.25 287.658 1486.25 Q281.848 1486.25 278.769 1481.67 Q275.714 1477.06 275.714 1468.33 Q275.714 1459.58 278.769 1455 Q281.848 1450.39 287.658 1450.39 Z" fill="#000000" fill-rule="nonzero" fill-opacity="1" /><path clip-path="url(#clip230)" d="M763.347 1481.64 L779.666 1481.64 L779.666 1485.58 L757.722 1485.58 L757.722 1481.64 Q760.384 1478.89 764.967 1474.26 Q769.574 1469.61 770.754 1468.27 Q773 1465.74 773.879 1464.01 Q774.782 1462.25 774.782 1460.56 Q774.782 1457.8 772.838 1456.07 Q770.916 1454.33 767.814 1454.33 Q765.615 1454.33 763.162 1455.09 Q760.731 1455.86 757.953 1457.41 L757.953 1452.69 Q760.777 1451.55 763.231 1450.97 Q765.685 1450.39 767.722 1450.39 Q773.092 1450.39 776.287 1453.08 Q779.481 1455.77 779.481 1460.26 Q779.481 1462.39 778.671 1464.31 Q777.884 1466.2 775.777 1468.8 Q775.199 1469.47 772.097 1472.69 Q768.995 1475.88 763.347 1481.64 Z" fill="#000000" fill-rule="nonzero" fill-opacity="1" /><path clip-path="url(#clip230)" d="M789.527 1451.02 L807.884 1451.02 L807.884 1454.96 L793.81 1454.96 L793.81 1463.43 Q794.828 1463.08 795.847 1462.92 Q796.865 1462.73 797.884 1462.73 Q803.671 1462.73 807.05 1465.9 Q810.43 1469.08 810.43 1474.49 Q810.43 1480.07 806.958 1483.17 Q803.486 1486.25 797.166 1486.25 Q794.99 1486.25 792.722 1485.88 Q790.476 1485.51 788.069 1484.77 L788.069 1480.07 Q790.152 1481.2 792.375 1481.76 Q794.597 1482.32 797.074 1482.32 Q801.078 1482.32 803.416 1480.21 Q805.754 1478.1 805.754 1474.49 Q805.754 1470.88 803.416 1468.77 Q801.078 1466.67 797.074 1466.67 Q795.199 1466.67 793.324 1467.08 Q791.472 1467.5 789.527 1468.38 L789.527 1451.02 Z" fill="#000000" fill-rule="nonzero" fill-opacity="1" /><path clip-path="url(#clip230)" d="M1255.19 1451.02 L1273.55 1451.02 L1273.55 1454.96 L1259.48 1454.96 L1259.48 1463.43 Q1260.49 1463.08 1261.51 1462.92 Q1262.53 1462.73 1263.55 1462.73 Q1269.34 1462.73 1272.72 1465.9 Q1276.1 1469.08 1276.1 1474.49 Q1276.1 1480.07 1272.62 1483.17 Q1269.15 1486.25 1262.83 1486.25 Q1260.66 1486.25 1258.39 1485.88 Q1256.14 1485.51 1253.73 1484.77 L1253.73 1480.07 Q1255.82 1481.2 1258.04 1481.76 Q1260.26 1482.32 1262.74 1482.32 Q1266.74 1482.32 1269.08 1480.21 Q1271.42 1478.1 1271.42 1474.49 Q1271.42 1470.88 1269.08 1468.77 Q1266.74 1466.67 1262.74 1466.67 Q1260.86 1466.67 1258.99 1467.08 Q1257.14 1467.5 1255.19 1468.38 L1255.19 1451.02 Z" fill="#000000" fill-rule="nonzero" fill-opacity="1" /><path clip-path="url(#clip230)" d="M1295.31 1454.1 Q1291.7 1454.1 1289.87 1457.66 Q1288.06 1461.2 1288.06 1468.33 Q1288.06 1475.44 1289.87 1479.01 Q1291.7 1482.55 1295.31 1482.55 Q1298.94 1482.55 1300.75 1479.01 Q1302.58 1475.44 1302.58 1468.33 Q1302.58 1461.2 1300.75 1457.66 Q1298.94 1454.1 1295.31 1454.1 M1295.31 1450.39 Q1301.12 1450.39 1304.17 1455 Q1307.25 1459.58 1307.25 1468.33 Q1307.25 1477.06 1304.17 1481.67 Q1301.12 1486.25 1295.31 1486.25 Q1289.5 1486.25 1286.42 1481.67 Q1283.36 1477.06 1283.36 1468.33 Q1283.36 1459.58 1286.42 1455 Q1289.5 1450.39 1295.31 1450.39 Z" fill="#000000" fill-rule="nonzero" fill-opacity="1" /><path clip-path="url(#clip230)" d="M1750.77 1451.02 L1772.99 1451.02 L1772.99 1453.01 L1760.44 1485.58 L1755.56 1485.58 L1767.36 1454.96 L1750.77 1454.96 L1750.77 1451.02 Z" fill="#000000" fill-rule="nonzero" fill-opacity="1" /><path clip-path="url(#clip230)" d="M1782.15 1451.02 L1800.51 1451.02 L1800.51 1454.96 L1786.44 1454.96 L1786.44 1463.43 Q1787.46 1463.08 1788.47 1462.92 Q1789.49 1462.73 1790.51 1462.73 Q1796.3 1462.73 1799.68 1465.9 Q1803.06 1469.08 1803.06 1474.49 Q1803.06 1480.07 1799.58 1483.17 Q1796.11 1486.25 1789.79 1486.25 Q1787.62 1486.25 1785.35 1485.88 Q1783.1 1485.51 1780.7 1484.77 L1780.7 1480.07 Q1782.78 1481.2 1785 1481.76 Q1787.22 1482.32 1789.7 1482.32 Q1793.71 1482.32 1796.04 1480.21 Q1798.38 1478.1 1798.38 1474.49 Q1798.38 1470.88 1796.04 1468.77 Q1793.71 1466.67 1789.7 1466.67 Q1787.83 1466.67 1785.95 1467.08 Q1784.1 1467.5 1782.15 1468.38 L1782.15 1451.02 Z" fill="#000000" fill-rule="nonzero" fill-opacity="1" /><path clip-path="url(#clip230)" d="M2232.94 1481.64 L2240.57 1481.64 L2240.57 1455.28 L2232.26 1456.95 L2232.26 1452.69 L2240.53 1451.02 L2245.2 1451.02 L2245.2 1481.64 L2252.84 1481.64 L2252.84 1485.58 L2232.94 1485.58 L2232.94 1481.64 Z" fill="#000000" fill-rule="nonzero" fill-opacity="1" /><path clip-path="url(#clip230)" d="M2272.29 1454.1 Q2268.68 1454.1 2266.85 1457.66 Q2265.04 1461.2 2265.04 1468.33 Q2265.04 1475.44 2266.85 1479.01 Q2268.68 1482.55 2272.29 1482.55 Q2275.92 1482.55 2277.73 1479.01 Q2279.56 1475.44 2279.56 1468.33 Q2279.56 1461.2 2277.73 1457.66 Q2275.92 1454.1 2272.29 1454.1 M2272.29 1450.39 Q2278.1 1450.39 2281.15 1455 Q2284.23 1459.58 2284.23 1468.33 Q2284.23 1477.06 2281.15 1481.67 Q2278.1 1486.25 2272.29 1486.25 Q2266.48 1486.25 2263.4 1481.67 Q2260.34 1477.06 2260.34 1468.33 Q2260.34 1459.58 2263.4 1455 Q2266.48 1450.39 2272.29 1450.39 Z" fill="#000000" fill-rule="nonzero" fill-opacity="1" /><path clip-path="url(#clip230)" d="M2302.45 1454.1 Q2298.84 1454.1 2297.01 1457.66 Q2295.2 1461.2 2295.2 1468.33 Q2295.2 1475.44 2297.01 1479.01 Q2298.84 1482.55 2302.45 1482.55 Q2306.08 1482.55 2307.89 1479.01 Q2309.72 1475.44 2309.72 1468.33 Q2309.72 1461.2 2307.89 1457.66 Q2306.08 1454.1 2302.45 1454.1 M2302.45 1450.39 Q2308.26 1450.39 2311.31 1455 Q2314.39 1459.58 2314.39 1468.33 Q2314.39 1477.06 2311.31 1481.67 Q2308.26 1486.25 2302.45 1486.25 Q2296.64 1486.25 2293.56 1481.67 Q2290.5 1477.06 2290.5 1468.33 Q2290.5 1459.58 2293.56 1455 Q2296.64 1450.39 2302.45 1450.39 Z" fill="#000000" fill-rule="nonzero" fill-opacity="1" /><path clip-path="url(#clip230)" d="M1168.07 1520.52 L1174.5 1520.52 L1174.5 1568.04 L1168.07 1568.04 L1168.07 1520.52 Z" fill="#000000" fill-rule="nonzero" fill-opacity="1" /><path clip-path="url(#clip230)" d="M1192.83 1522.27 L1192.83 1532.4 L1204.9 1532.4 L1204.9 1536.95 L1192.83 1536.95 L1192.83 1556.3 Q1192.83 1560.66 1194.01 1561.9 Q1195.22 1563.14 1198.88 1563.14 L1204.9 1563.14 L1204.9 1568.04 L1198.88 1568.04 Q1192.1 1568.04 1189.52 1565.53 Q1186.95 1562.98 1186.95 1556.3 L1186.95 1536.95 L1182.65 1536.95 L1182.65 1532.4 L1186.95 1532.4 L1186.95 1522.27 L1192.83 1522.27 Z" fill="#000000" fill-rule="nonzero" fill-opacity="1" /><path clip-path="url(#clip230)" d="M1243.09 1548.76 L1243.09 1551.62 L1216.16 1551.62 Q1216.55 1557.67 1219.79 1560.85 Q1223.07 1564 1228.9 1564 Q1232.27 1564 1235.42 1563.17 Q1238.6 1562.35 1241.72 1560.69 L1241.72 1566.23 Q1238.57 1567.57 1235.26 1568.27 Q1231.95 1568.97 1228.55 1568.97 Q1220.02 1568.97 1215.02 1564 Q1210.05 1559.04 1210.05 1550.57 Q1210.05 1541.82 1214.76 1536.69 Q1219.51 1531.54 1227.53 1531.54 Q1234.72 1531.54 1238.89 1536.18 Q1243.09 1540.8 1243.09 1548.76 M1237.23 1547.04 Q1237.17 1542.23 1234.53 1539.37 Q1231.92 1536.5 1227.59 1536.5 Q1222.69 1536.5 1219.73 1539.27 Q1216.8 1542.04 1216.35 1547.07 L1237.23 1547.04 Z" fill="#000000" fill-rule="nonzero" fill-opacity="1" /><path clip-path="url(#clip230)" d="M1273.36 1537.87 Q1272.37 1537.3 1271.2 1537.04 Q1270.05 1536.76 1268.65 1536.76 Q1263.68 1536.76 1261.01 1540 Q1258.37 1543.22 1258.37 1549.27 L1258.37 1568.04 L1252.48 1568.04 L1252.48 1532.4 L1258.37 1532.4 L1258.37 1537.93 Q1260.21 1534.69 1263.17 1533.13 Q1266.13 1531.54 1270.37 1531.54 Q1270.97 1531.54 1271.7 1531.63 Q1272.44 1531.7 1273.33 1531.85 L1273.36 1537.87 Z" fill="#000000" fill-rule="nonzero" fill-opacity="1" /><path clip-path="url(#clip230)" d="M1295.7 1550.12 Q1288.61 1550.12 1285.87 1551.75 Q1283.13 1553.37 1283.13 1557.29 Q1283.13 1560.4 1285.17 1562.25 Q1287.24 1564.07 1290.77 1564.07 Q1295.64 1564.07 1298.57 1560.63 Q1301.53 1557.16 1301.53 1551.43 L1301.53 1550.12 L1295.7 1550.12 M1307.38 1547.71 L1307.38 1568.04 L1301.53 1568.04 L1301.53 1562.63 Q1299.52 1565.88 1296.53 1567.44 Q1293.54 1568.97 1289.21 1568.97 Q1283.74 1568.97 1280.49 1565.91 Q1277.27 1562.82 1277.27 1557.67 Q1277.27 1551.65 1281.29 1548.6 Q1285.33 1545.54 1293.32 1545.54 L1301.53 1545.54 L1301.53 1544.97 Q1301.53 1540.93 1298.85 1538.73 Q1296.21 1536.5 1291.41 1536.5 Q1288.35 1536.5 1285.45 1537.23 Q1282.56 1537.97 1279.88 1539.43 L1279.88 1534.02 Q1283.1 1532.78 1286.12 1532.17 Q1289.15 1531.54 1292.01 1531.54 Q1299.75 1531.54 1303.57 1535.55 Q1307.38 1539.56 1307.38 1547.71 Z" fill="#000000" fill-rule="nonzero" fill-opacity="1" /><path clip-path="url(#clip230)" d="M1325.24 1522.27 L1325.24 1532.4 L1337.3 1532.4 L1337.3 1536.95 L1325.24 1536.95 L1325.24 1556.3 Q1325.24 1560.66 1326.42 1561.9 Q1327.63 1563.14 1331.29 1563.14 L1337.3 1563.14 L1337.3 1568.04 L1331.29 1568.04 Q1324.51 1568.04 1321.93 1565.53 Q1319.35 1562.98 1319.35 1556.3 L1319.35 1536.95 L1315.06 1536.95 L1315.06 1532.4 L1319.35 1532.4 L1319.35 1522.27 L1325.24 1522.27 Z" fill="#000000" fill-rule="nonzero" fill-opacity="1" /><path clip-path="url(#clip230)" d="M1345.01 1532.4 L1350.86 1532.4 L1350.86 1568.04 L1345.01 1568.04 L1345.01 1532.4 M1345.01 1518.52 L1350.86 1518.52 L1350.86 1525.93 L1345.01 1525.93 L1345.01 1518.52 Z" fill="#000000" fill-rule="nonzero" fill-opacity="1" /><path clip-path="url(#clip230)" d="M1376.93 1536.5 Q1372.22 1536.5 1369.48 1540.19 Q1366.74 1543.85 1366.74 1550.25 Q1366.74 1556.65 1369.45 1560.34 Q1372.19 1564 1376.93 1564 Q1381.61 1564 1384.35 1560.31 Q1387.08 1556.62 1387.08 1550.25 Q1387.08 1543.92 1384.35 1540.23 Q1381.61 1536.5 1376.93 1536.5 M1376.93 1531.54 Q1384.57 1531.54 1388.93 1536.5 Q1393.29 1541.47 1393.29 1550.25 Q1393.29 1559 1388.93 1564 Q1384.57 1568.97 1376.93 1568.97 Q1369.26 1568.97 1364.9 1564 Q1360.57 1559 1360.57 1550.25 Q1360.57 1541.47 1364.9 1536.5 Q1369.26 1531.54 1376.93 1531.54 Z" fill="#000000" fill-rule="nonzero" fill-opacity="1" /><path clip-path="url(#clip230)" d="M1432.63 1546.53 L1432.63 1568.04 L1426.77 1568.04 L1426.77 1546.72 Q1426.77 1541.66 1424.8 1539.14 Q1422.83 1536.63 1418.88 1536.63 Q1414.14 1536.63 1411.4 1539.65 Q1408.66 1542.68 1408.66 1547.9 L1408.66 1568.04 L1402.77 1568.04 L1402.77 1532.4 L1408.66 1532.4 L1408.66 1537.93 Q1410.76 1534.72 1413.6 1533.13 Q1416.46 1531.54 1420.18 1531.54 Q1426.33 1531.54 1429.48 1535.36 Q1432.63 1539.14 1432.63 1546.53 Z" fill="#000000" fill-rule="nonzero" fill-opacity="1" /><polyline clip-path="url(#clip230)" style="stroke:#000000; stroke-linecap:round; stroke-linejoin:round; stroke-width:4; stroke-opacity:1; fill:none" points="247.945,1423.18 247.945,123.472 "/>
<polyline clip-path="url(#clip230)" style="stroke:#000000; stroke-linecap:round; stroke-linejoin:round; stroke-width:4; stroke-opacity:1; fill:none" points="247.945,1308.83 266.842,1308.83 "/>
<polyline clip-path="url(#clip230)" style="stroke:#000000; stroke-linecap:round; stroke-linejoin:round; stroke-width:4; stroke-opacity:1; fill:none" points="247.945,1157.16 266.842,1157.16 "/>
<polyline clip-path="url(#clip230)" style="stroke:#000000; stroke-linecap:round; stroke-linejoin:round; stroke-width:4; stroke-opacity:1; fill:none" points="247.945,1005.5 266.842,1005.5 "/>
<polyline clip-path="url(#clip230)" style="stroke:#000000; stroke-linecap:round; stroke-linejoin:round; stroke-width:4; stroke-opacity:1; fill:none" points="247.945,853.84 266.842,853.84 "/>
<polyline clip-path="url(#clip230)" style="stroke:#000000; stroke-linecap:round; stroke-linejoin:round; stroke-width:4; stroke-opacity:1; fill:none" points="247.945,702.178 266.842,702.178 "/>
<polyline clip-path="url(#clip230)" style="stroke:#000000; stroke-linecap:round; stroke-linejoin:round; stroke-width:4; stroke-opacity:1; fill:none" points="247.945,550.516 266.842,550.516 "/>
<polyline clip-path="url(#clip230)" style="stroke:#000000; stroke-linecap:round; stroke-linejoin:round; stroke-width:4; stroke-opacity:1; fill:none" points="247.945,398.854 266.842,398.854 "/>
<polyline clip-path="url(#clip230)" style="stroke:#000000; stroke-linecap:round; stroke-linejoin:round; stroke-width:4; stroke-opacity:1; fill:none" points="247.945,247.192 266.842,247.192 "/>
<path clip-path="url(#clip230)" d="M115.51 1322.17 L123.149 1322.17 L123.149 1295.81 L114.839 1297.47 L114.839 1293.21 L123.103 1291.55 L127.779 1291.55 L127.779 1322.17 L135.417 1322.17 L135.417 1326.11 L115.51 1326.11 L115.51 1322.17 Z" fill="#000000" fill-rule="nonzero" fill-opacity="1" /><path clip-path="url(#clip230)" d="M155.44 1306.96 Q152.292 1306.96 150.441 1309.12 Q148.612 1311.27 148.612 1315.02 Q148.612 1318.75 150.441 1320.92 Q152.292 1323.07 155.44 1323.07 Q158.589 1323.07 160.417 1320.92 Q162.269 1318.75 162.269 1315.02 Q162.269 1311.27 160.417 1309.12 Q158.589 1306.96 155.44 1306.96 M164.723 1292.31 L164.723 1296.57 Q162.964 1295.74 161.158 1295.3 Q159.376 1294.86 157.616 1294.86 Q152.987 1294.86 150.533 1297.98 Q148.103 1301.11 147.755 1307.43 Q149.121 1305.41 151.181 1304.35 Q153.241 1303.26 155.718 1303.26 Q160.927 1303.26 163.936 1306.43 Q166.968 1309.58 166.968 1315.02 Q166.968 1320.34 163.82 1323.56 Q160.672 1326.78 155.44 1326.78 Q149.445 1326.78 146.274 1322.19 Q143.103 1317.59 143.103 1308.86 Q143.103 1300.67 146.991 1295.81 Q150.88 1290.92 157.431 1290.92 Q159.19 1290.92 160.973 1291.27 Q162.778 1291.62 164.723 1292.31 Z" fill="#000000" fill-rule="nonzero" fill-opacity="1" /><path clip-path="url(#clip230)" d="M175.024 1320.23 L179.908 1320.23 L179.908 1326.11 L175.024 1326.11 L175.024 1320.23 Z" fill="#000000" fill-rule="nonzero" fill-opacity="1" /><path clip-path="url(#clip230)" d="M200.093 1309.69 Q196.76 1309.69 194.838 1311.48 Q192.94 1313.26 192.94 1316.38 Q192.94 1319.51 194.838 1321.29 Q196.76 1323.07 200.093 1323.07 Q203.426 1323.07 205.348 1321.29 Q207.269 1319.49 207.269 1316.38 Q207.269 1313.26 205.348 1311.48 Q203.449 1309.69 200.093 1309.69 M195.417 1307.7 Q192.408 1306.96 190.718 1304.9 Q189.051 1302.84 189.051 1299.88 Q189.051 1295.74 191.991 1293.33 Q194.954 1290.92 200.093 1290.92 Q205.255 1290.92 208.195 1293.33 Q211.135 1295.74 211.135 1299.88 Q211.135 1302.84 209.445 1304.9 Q207.778 1306.96 204.792 1307.7 Q208.172 1308.49 210.047 1310.78 Q211.945 1313.07 211.945 1316.38 Q211.945 1321.41 208.866 1324.09 Q205.811 1326.78 200.093 1326.78 Q194.375 1326.78 191.297 1324.09 Q188.241 1321.41 188.241 1316.38 Q188.241 1313.07 190.139 1310.78 Q192.038 1308.49 195.417 1307.7 M193.704 1300.32 Q193.704 1303 195.371 1304.51 Q197.061 1306.01 200.093 1306.01 Q203.102 1306.01 204.792 1304.51 Q206.505 1303 206.505 1300.32 Q206.505 1297.63 204.792 1296.13 Q203.102 1294.62 200.093 1294.62 Q197.061 1294.62 195.371 1296.13 Q193.704 1297.63 193.704 1300.32 Z" fill="#000000" fill-rule="nonzero" fill-opacity="1" /><path clip-path="url(#clip230)" d="M115.418 1170.51 L123.056 1170.51 L123.056 1144.14 L114.746 1145.81 L114.746 1141.55 L123.01 1139.88 L127.686 1139.88 L127.686 1170.51 L135.325 1170.51 L135.325 1174.44 L115.418 1174.44 L115.418 1170.51 Z" fill="#000000" fill-rule="nonzero" fill-opacity="1" /><path clip-path="url(#clip230)" d="M143.589 1139.88 L165.811 1139.88 L165.811 1141.87 L153.265 1174.44 L148.38 1174.44 L160.186 1143.82 L143.589 1143.82 L143.589 1139.88 Z" fill="#000000" fill-rule="nonzero" fill-opacity="1" /><path clip-path="url(#clip230)" d="M174.931 1168.56 L179.815 1168.56 L179.815 1174.44 L174.931 1174.44 L174.931 1168.56 Z" fill="#000000" fill-rule="nonzero" fill-opacity="1" /><path clip-path="url(#clip230)" d="M200 1142.96 Q196.389 1142.96 194.561 1146.53 Q192.755 1150.07 192.755 1157.2 Q192.755 1164.31 194.561 1167.87 Q196.389 1171.41 200 1171.41 Q203.635 1171.41 205.44 1167.87 Q207.269 1164.31 207.269 1157.2 Q207.269 1150.07 205.44 1146.53 Q203.635 1142.96 200 1142.96 M200 1139.26 Q205.811 1139.26 208.866 1143.87 Q211.945 1148.45 211.945 1157.2 Q211.945 1165.93 208.866 1170.53 Q205.811 1175.12 200 1175.12 Q194.19 1175.12 191.112 1170.53 Q188.056 1165.93 188.056 1157.2 Q188.056 1148.45 191.112 1143.87 Q194.19 1139.26 200 1139.26 Z" fill="#000000" fill-rule="nonzero" fill-opacity="1" /><path clip-path="url(#clip230)" d="M117.015 1018.85 L124.654 1018.85 L124.654 992.481 L116.343 994.148 L116.343 989.889 L124.607 988.222 L129.283 988.222 L129.283 1018.85 L136.922 1018.85 L136.922 1022.78 L117.015 1022.78 L117.015 1018.85 Z" fill="#000000" fill-rule="nonzero" fill-opacity="1" /><path clip-path="url(#clip230)" d="M145.186 988.222 L167.408 988.222 L167.408 990.213 L154.862 1022.78 L149.978 1022.78 L161.783 992.157 L145.186 992.157 L145.186 988.222 Z" fill="#000000" fill-rule="nonzero" fill-opacity="1" /><path clip-path="url(#clip230)" d="M176.528 1016.9 L181.413 1016.9 L181.413 1022.78 L176.528 1022.78 L176.528 1016.9 Z" fill="#000000" fill-rule="nonzero" fill-opacity="1" /><path clip-path="url(#clip230)" d="M195.625 1018.85 L211.945 1018.85 L211.945 1022.78 L190 1022.78 L190 1018.85 Q192.663 1016.09 197.246 1011.46 Q201.852 1006.81 203.033 1005.47 Q205.278 1002.94 206.158 1001.21 Q207.061 999.449 207.061 997.759 Q207.061 995.004 205.116 993.268 Q203.195 991.532 200.093 991.532 Q197.894 991.532 195.44 992.296 Q193.01 993.06 190.232 994.611 L190.232 989.889 Q193.056 988.754 195.51 988.176 Q197.963 987.597 200 987.597 Q205.371 987.597 208.565 990.282 Q211.76 992.967 211.76 997.458 Q211.76 999.588 210.949 1001.51 Q210.162 1003.41 208.056 1006 Q207.477 1006.67 204.375 1009.89 Q201.274 1013.08 195.625 1018.85 Z" fill="#000000" fill-rule="nonzero" fill-opacity="1" /><path clip-path="url(#clip230)" d="M114.931 867.185 L122.57 867.185 L122.57 840.819 L114.26 842.486 L114.26 838.227 L122.524 836.56 L127.2 836.56 L127.2 867.185 L134.839 867.185 L134.839 871.12 L114.931 871.12 L114.931 867.185 Z" fill="#000000" fill-rule="nonzero" fill-opacity="1" /><path clip-path="url(#clip230)" d="M143.103 836.56 L165.325 836.56 L165.325 838.551 L152.778 871.12 L147.894 871.12 L159.7 840.495 L143.103 840.495 L143.103 836.56 Z" fill="#000000" fill-rule="nonzero" fill-opacity="1" /><path clip-path="url(#clip230)" d="M174.445 865.24 L179.329 865.24 L179.329 871.12 L174.445 871.12 L174.445 865.24 Z" fill="#000000" fill-rule="nonzero" fill-opacity="1" /><path clip-path="url(#clip230)" d="M202.362 840.634 L190.556 859.083 L202.362 859.083 L202.362 840.634 M201.135 836.56 L207.014 836.56 L207.014 859.083 L211.945 859.083 L211.945 862.972 L207.014 862.972 L207.014 871.12 L202.362 871.12 L202.362 862.972 L186.76 862.972 L186.76 858.458 L201.135 836.56 Z" fill="#000000" fill-rule="nonzero" fill-opacity="1" /><path clip-path="url(#clip230)" d="M115.256 715.523 L122.894 715.523 L122.894 689.157 L114.584 690.824 L114.584 686.564 L122.848 684.898 L127.524 684.898 L127.524 715.523 L135.163 715.523 L135.163 719.458 L115.256 719.458 L115.256 715.523 Z" fill="#000000" fill-rule="nonzero" fill-opacity="1" /><path clip-path="url(#clip230)" d="M143.427 684.898 L165.649 684.898 L165.649 686.889 L153.103 719.458 L148.218 719.458 L160.024 688.833 L143.427 688.833 L143.427 684.898 Z" fill="#000000" fill-rule="nonzero" fill-opacity="1" /><path clip-path="url(#clip230)" d="M174.769 713.578 L179.653 713.578 L179.653 719.458 L174.769 719.458 L174.769 713.578 Z" fill="#000000" fill-rule="nonzero" fill-opacity="1" /><path clip-path="url(#clip230)" d="M200.417 700.314 Q197.269 700.314 195.417 702.467 Q193.588 704.62 193.588 708.37 Q193.588 712.097 195.417 714.273 Q197.269 716.425 200.417 716.425 Q203.565 716.425 205.394 714.273 Q207.246 712.097 207.246 708.37 Q207.246 704.62 205.394 702.467 Q203.565 700.314 200.417 700.314 M209.699 685.662 L209.699 689.921 Q207.94 689.088 206.135 688.648 Q204.352 688.208 202.593 688.208 Q197.963 688.208 195.51 691.333 Q193.079 694.458 192.732 700.777 Q194.098 698.763 196.158 697.699 Q198.218 696.611 200.695 696.611 Q205.903 696.611 208.912 699.782 Q211.945 702.93 211.945 708.37 Q211.945 713.694 208.797 716.912 Q205.649 720.129 200.417 720.129 Q194.422 720.129 191.25 715.546 Q188.079 710.939 188.079 702.213 Q188.079 694.018 191.968 689.157 Q195.857 684.273 202.408 684.273 Q204.167 684.273 205.949 684.62 Q207.755 684.967 209.699 685.662 Z" fill="#000000" fill-rule="nonzero" fill-opacity="1" /><path clip-path="url(#clip230)" d="M115.51 563.861 L123.149 563.861 L123.149 537.495 L114.839 539.162 L114.839 534.902 L123.103 533.236 L127.779 533.236 L127.779 563.861 L135.417 563.861 L135.417 567.796 L115.51 567.796 L115.51 563.861 Z" fill="#000000" fill-rule="nonzero" fill-opacity="1" /><path clip-path="url(#clip230)" d="M143.681 533.236 L165.903 533.236 L165.903 535.226 L153.357 567.796 L148.473 567.796 L160.278 537.171 L143.681 537.171 L143.681 533.236 Z" fill="#000000" fill-rule="nonzero" fill-opacity="1" /><path clip-path="url(#clip230)" d="M175.024 561.916 L179.908 561.916 L179.908 567.796 L175.024 567.796 L175.024 561.916 Z" fill="#000000" fill-rule="nonzero" fill-opacity="1" /><path clip-path="url(#clip230)" d="M200.093 551.384 Q196.76 551.384 194.838 553.166 Q192.94 554.949 192.94 558.074 Q192.94 561.199 194.838 562.981 Q196.76 564.763 200.093 564.763 Q203.426 564.763 205.348 562.981 Q207.269 561.175 207.269 558.074 Q207.269 554.949 205.348 553.166 Q203.449 551.384 200.093 551.384 M195.417 549.393 Q192.408 548.652 190.718 546.592 Q189.051 544.532 189.051 541.569 Q189.051 537.426 191.991 535.018 Q194.954 532.611 200.093 532.611 Q205.255 532.611 208.195 535.018 Q211.135 537.426 211.135 541.569 Q211.135 544.532 209.445 546.592 Q207.778 548.652 204.792 549.393 Q208.172 550.18 210.047 552.472 Q211.945 554.763 211.945 558.074 Q211.945 563.097 208.866 565.782 Q205.811 568.467 200.093 568.467 Q194.375 568.467 191.297 565.782 Q188.241 563.097 188.241 558.074 Q188.241 554.763 190.139 552.472 Q192.038 550.18 195.417 549.393 M193.704 542.009 Q193.704 544.694 195.371 546.199 Q197.061 547.703 200.093 547.703 Q203.102 547.703 204.792 546.199 Q206.505 544.694 206.505 542.009 Q206.505 539.324 204.792 537.819 Q203.102 536.314 200.093 536.314 Q197.061 536.314 195.371 537.819 Q193.704 539.324 193.704 542.009 Z" fill="#000000" fill-rule="nonzero" fill-opacity="1" /><path clip-path="url(#clip230)" d="M115.418 412.199 L123.056 412.199 L123.056 385.833 L114.746 387.5 L114.746 383.24 L123.01 381.574 L127.686 381.574 L127.686 412.199 L135.325 412.199 L135.325 416.134 L115.418 416.134 L115.418 412.199 Z" fill="#000000" fill-rule="nonzero" fill-opacity="1" /><path clip-path="url(#clip230)" d="M154.769 399.722 Q151.436 399.722 149.515 401.504 Q147.616 403.287 147.616 406.412 Q147.616 409.537 149.515 411.319 Q151.436 413.101 154.769 413.101 Q158.103 413.101 160.024 411.319 Q161.945 409.513 161.945 406.412 Q161.945 403.287 160.024 401.504 Q158.126 399.722 154.769 399.722 M150.093 397.731 Q147.084 396.99 145.394 394.93 Q143.728 392.87 143.728 389.907 Q143.728 385.763 146.667 383.356 Q149.63 380.949 154.769 380.949 Q159.931 380.949 162.871 383.356 Q165.811 385.763 165.811 389.907 Q165.811 392.87 164.121 394.93 Q162.454 396.99 159.468 397.731 Q162.848 398.518 164.723 400.81 Q166.621 403.101 166.621 406.412 Q166.621 411.435 163.542 414.12 Q160.487 416.805 154.769 416.805 Q149.052 416.805 145.973 414.12 Q142.917 411.435 142.917 406.412 Q142.917 403.101 144.816 400.81 Q146.714 398.518 150.093 397.731 M148.38 390.347 Q148.38 393.032 150.047 394.537 Q151.737 396.041 154.769 396.041 Q157.778 396.041 159.468 394.537 Q161.181 393.032 161.181 390.347 Q161.181 387.662 159.468 386.157 Q157.778 384.652 154.769 384.652 Q151.737 384.652 150.047 386.157 Q148.38 387.662 148.38 390.347 Z" fill="#000000" fill-rule="nonzero" fill-opacity="1" /><path clip-path="url(#clip230)" d="M174.931 410.254 L179.815 410.254 L179.815 416.134 L174.931 416.134 L174.931 410.254 Z" fill="#000000" fill-rule="nonzero" fill-opacity="1" /><path clip-path="url(#clip230)" d="M200 384.652 Q196.389 384.652 194.561 388.217 Q192.755 391.759 192.755 398.888 Q192.755 405.995 194.561 409.56 Q196.389 413.101 200 413.101 Q203.635 413.101 205.44 409.56 Q207.269 405.995 207.269 398.888 Q207.269 391.759 205.44 388.217 Q203.635 384.652 200 384.652 M200 380.949 Q205.811 380.949 208.866 385.555 Q211.945 390.138 211.945 398.888 Q211.945 407.615 208.866 412.222 Q205.811 416.805 200 416.805 Q194.19 416.805 191.112 412.222 Q188.056 407.615 188.056 398.888 Q188.056 390.138 191.112 385.555 Q194.19 380.949 200 380.949 Z" fill="#000000" fill-rule="nonzero" fill-opacity="1" /><path clip-path="url(#clip230)" d="M117.015 260.536 L124.654 260.536 L124.654 234.171 L116.343 235.838 L116.343 231.578 L124.607 229.912 L129.283 229.912 L129.283 260.536 L136.922 260.536 L136.922 264.472 L117.015 264.472 L117.015 260.536 Z" fill="#000000" fill-rule="nonzero" fill-opacity="1" /><path clip-path="url(#clip230)" d="M156.366 248.06 Q153.033 248.06 151.112 249.842 Q149.214 251.624 149.214 254.749 Q149.214 257.874 151.112 259.657 Q153.033 261.439 156.366 261.439 Q159.7 261.439 161.621 259.657 Q163.542 257.851 163.542 254.749 Q163.542 251.624 161.621 249.842 Q159.723 248.06 156.366 248.06 M151.691 246.069 Q148.681 245.328 146.991 243.268 Q145.325 241.208 145.325 238.245 Q145.325 234.101 148.265 231.694 Q151.228 229.287 156.366 229.287 Q161.528 229.287 164.468 231.694 Q167.408 234.101 167.408 238.245 Q167.408 241.208 165.718 243.268 Q164.052 245.328 161.065 246.069 Q164.445 246.856 166.32 249.148 Q168.218 251.439 168.218 254.749 Q168.218 259.773 165.14 262.458 Q162.084 265.143 156.366 265.143 Q150.649 265.143 147.57 262.458 Q144.515 259.773 144.515 254.749 Q144.515 251.439 146.413 249.148 Q148.311 246.856 151.691 246.069 M149.978 238.685 Q149.978 241.37 151.644 242.875 Q153.334 244.379 156.366 244.379 Q159.376 244.379 161.065 242.875 Q162.778 241.37 162.778 238.685 Q162.778 236 161.065 234.495 Q159.376 232.99 156.366 232.99 Q153.334 232.99 151.644 234.495 Q149.978 236 149.978 238.685 Z" fill="#000000" fill-rule="nonzero" fill-opacity="1" /><path clip-path="url(#clip230)" d="M176.528 258.592 L181.413 258.592 L181.413 264.472 L176.528 264.472 L176.528 258.592 Z" fill="#000000" fill-rule="nonzero" fill-opacity="1" /><path clip-path="url(#clip230)" d="M195.625 260.536 L211.945 260.536 L211.945 264.472 L190 264.472 L190 260.536 Q192.663 257.782 197.246 253.152 Q201.852 248.499 203.033 247.157 Q205.278 244.634 206.158 242.898 Q207.061 241.138 207.061 239.449 Q207.061 236.694 205.116 234.958 Q203.195 233.222 200.093 233.222 Q197.894 233.222 195.44 233.986 Q193.01 234.75 190.232 236.3 L190.232 231.578 Q193.056 230.444 195.51 229.865 Q197.963 229.287 200 229.287 Q205.371 229.287 208.565 231.972 Q211.76 234.657 211.76 239.148 Q211.76 241.277 210.949 243.199 Q210.162 245.097 208.056 247.689 Q207.477 248.361 204.375 251.578 Q201.274 254.773 195.625 260.536 Z" fill="#000000" fill-rule="nonzero" fill-opacity="1" /><path clip-path="url(#clip230)" d="M20.4822 1058.66 L57.4351 1058.66 L57.4351 1050.9 Q57.4351 1041.06 52.9791 1036.51 Q48.5231 1031.93 38.9109 1031.93 Q29.3623 1031.93 24.9382 1036.51 Q20.4822 1041.06 20.4822 1050.9 L20.4822 1058.66 M15.1986 1065.09 L15.1986 1051.88 Q15.1986 1038.07 20.9596 1031.61 Q26.6887 1025.15 38.9109 1025.15 Q51.1967 1025.15 56.9577 1031.64 Q62.7186 1038.13 62.7186 1051.88 L62.7186 1065.09 L15.1986 1065.09 Z" fill="#000000" fill-rule="nonzero" fill-opacity="1" /><path clip-path="url(#clip230)" d="M27.0707 1015.15 L27.0707 1009.3 L62.7186 1009.3 L62.7186 1015.15 L27.0707 1015.15 M13.1934 1015.15 L13.1934 1009.3 L20.6095 1009.3 L20.6095 1015.15 L13.1934 1015.15 Z" fill="#000000" fill-rule="nonzero" fill-opacity="1" /><path clip-path="url(#clip230)" d="M28.121 974.318 L33.6592 974.318 Q32.386 976.8 31.7495 979.474 Q31.1129 982.148 31.1129 985.012 Q31.1129 989.373 32.4497 991.569 Q33.7865 993.733 36.4601 993.733 Q38.4971 993.733 39.6748 992.174 Q40.8206 990.614 41.8709 985.903 L42.3165 983.898 Q43.6533 977.66 46.1041 975.05 Q48.5231 972.408 52.8836 972.408 Q57.8489 972.408 60.7453 976.355 Q63.6417 980.27 63.6417 987.145 Q63.6417 990.009 63.0687 993.128 Q62.5277 996.216 61.4137 999.653 L55.3662 999.653 Q57.0531 996.407 57.9125 993.256 Q58.7401 990.105 58.7401 987.017 Q58.7401 982.88 57.3396 980.652 Q55.9073 978.424 53.3292 978.424 Q50.9421 978.424 49.6689 980.047 Q48.3958 981.638 47.2181 987.081 L46.7407 989.118 Q45.5949 994.561 43.2396 996.98 Q40.8524 999.399 36.7147 999.399 Q31.6858 999.399 28.9486 995.834 Q26.2113 992.269 26.2113 985.712 Q26.2113 982.466 26.6887 979.601 Q27.1662 976.737 28.121 974.318 Z" fill="#000000" fill-rule="nonzero" fill-opacity="1" /><path clip-path="url(#clip230)" d="M16.9492 957.29 L27.0707 957.29 L27.0707 945.227 L31.6221 945.227 L31.6221 957.29 L50.9739 957.29 Q55.3344 957.29 56.5757 956.112 Q57.817 954.902 57.817 951.242 L57.817 945.227 L62.7186 945.227 L62.7186 951.242 Q62.7186 958.022 60.2042 960.6 Q57.6579 963.178 50.9739 963.178 L31.6221 963.178 L31.6221 967.475 L27.0707 967.475 L27.0707 963.178 L16.9492 963.178 L16.9492 957.29 Z" fill="#000000" fill-rule="nonzero" fill-opacity="1" /><path clip-path="url(#clip230)" d="M44.7992 921.323 Q44.7992 928.421 46.4224 931.158 Q48.0457 933.896 51.9606 933.896 Q55.0798 933.896 56.9258 931.859 Q58.7401 929.79 58.7401 926.257 Q58.7401 921.387 55.3026 918.459 Q51.8333 915.499 46.1041 915.499 L44.7992 915.499 L44.7992 921.323 M42.3802 909.642 L62.7186 909.642 L62.7186 915.499 L57.3078 915.499 Q60.5543 917.504 62.1139 920.496 Q63.6417 923.488 63.6417 927.816 Q63.6417 933.291 60.5861 936.537 Q57.4987 939.752 52.3425 939.752 Q46.3269 939.752 43.2714 935.742 Q40.2159 931.699 40.2159 923.71 L40.2159 915.499 L39.6429 915.499 Q35.6007 915.499 33.4045 918.172 Q31.1765 920.814 31.1765 925.62 Q31.1765 928.676 31.9086 931.572 Q32.6407 934.468 34.1048 937.142 L28.6939 937.142 Q27.4526 933.927 26.8479 930.904 Q26.2113 927.88 26.2113 925.015 Q26.2113 917.281 30.2217 913.462 Q34.2321 909.642 42.3802 909.642 Z" fill="#000000" fill-rule="nonzero" fill-opacity="1" /><path clip-path="url(#clip230)" d="M41.2025 867.947 L62.7186 867.947 L62.7186 873.803 L41.3935 873.803 Q36.3328 873.803 33.8183 875.777 Q31.3039 877.75 31.3039 881.697 Q31.3039 886.439 34.3276 889.176 Q37.3513 891.914 42.5712 891.914 L62.7186 891.914 L62.7186 897.802 L27.0707 897.802 L27.0707 891.914 L32.6088 891.914 Q29.3942 889.813 27.8027 886.98 Q26.2113 884.116 26.2113 880.392 Q26.2113 874.249 30.0307 871.098 Q33.8183 867.947 41.2025 867.947 Z" fill="#000000" fill-rule="nonzero" fill-opacity="1" /><path clip-path="url(#clip230)" d="M28.4393 830.612 L33.9138 830.612 Q32.5452 833.095 31.8768 835.609 Q31.1765 838.092 31.1765 840.638 Q31.1765 846.335 34.805 849.486 Q38.4016 852.637 44.9265 852.637 Q51.4513 852.637 55.0798 849.486 Q58.6764 846.335 58.6764 840.638 Q58.6764 838.092 58.008 835.609 Q57.3078 833.095 55.9391 830.612 L61.35 830.612 Q62.4958 833.063 63.0687 835.705 Q63.6417 838.314 63.6417 841.275 Q63.6417 849.327 58.5809 854.07 Q53.5202 858.812 44.9265 858.812 Q36.2055 858.812 31.2084 854.038 Q26.2113 849.232 26.2113 840.893 Q26.2113 838.187 26.7842 835.609 Q27.3253 833.031 28.4393 830.612 Z" fill="#000000" fill-rule="nonzero" fill-opacity="1" /><path clip-path="url(#clip230)" d="M43.4305 789.935 L46.2951 789.935 L46.2951 816.862 Q52.3425 816.48 55.5254 813.234 Q58.6764 809.955 58.6764 804.131 Q58.6764 800.757 57.8489 797.606 Q57.0213 794.423 55.3662 791.304 L60.9044 791.304 Q62.2412 794.455 62.9414 797.765 Q63.6417 801.075 63.6417 804.481 Q63.6417 813.011 58.6764 818.008 Q53.7112 822.973 45.2448 822.973 Q36.4919 822.973 31.3675 818.262 Q26.2113 813.52 26.2113 805.499 Q26.2113 798.306 30.8583 794.136 Q35.4734 789.935 43.4305 789.935 M41.7118 795.792 Q36.9057 795.855 34.0411 798.497 Q31.1765 801.107 31.1765 805.436 Q31.1765 810.337 33.9456 813.297 Q36.7147 816.225 41.7436 816.671 L41.7118 795.792 Z" fill="#000000" fill-rule="nonzero" fill-opacity="1" /><path clip-path="url(#clip230)" d="M28.121 757.597 L33.6592 757.597 Q32.386 760.08 31.7495 762.754 Q31.1129 765.427 31.1129 768.292 Q31.1129 772.652 32.4497 774.848 Q33.7865 777.013 36.4601 777.013 Q38.4971 777.013 39.6748 775.453 Q40.8206 773.894 41.8709 769.183 L42.3165 767.178 Q43.6533 760.939 46.1041 758.329 Q48.5231 755.688 52.8836 755.688 Q57.8489 755.688 60.7453 759.634 Q63.6417 763.549 63.6417 770.424 Q63.6417 773.289 63.0687 776.408 Q62.5277 779.495 61.4137 782.933 L55.3662 782.933 Q57.0531 779.686 57.9125 776.535 Q58.7401 773.384 58.7401 770.297 Q58.7401 766.159 57.3396 763.931 Q55.9073 761.703 53.3292 761.703 Q50.9421 761.703 49.6689 763.326 Q48.3958 764.918 47.2181 770.361 L46.7407 772.398 Q45.5949 777.84 43.2396 780.259 Q40.8524 782.678 36.7147 782.678 Q31.6858 782.678 28.9486 779.113 Q26.2113 775.549 26.2113 768.992 Q26.2113 765.745 26.6887 762.881 Q27.1662 760.016 28.121 757.597 Z" fill="#000000" fill-rule="nonzero" fill-opacity="1" /><path clip-path="url(#clip230)" d="M17.6626 700.384 L55.7944 709.884 Q57.5013 710.271 58.9505 710.271 Q61.9779 710.271 61.9779 708.306 Q61.9779 707.34 61.366 706.567 Q60.7541 705.794 59.4658 705.182 Q58.1776 704.57 56.986 704.184 Q55.7622 703.797 53.8298 703.282 Q53.0569 703.121 52.8636 702.992 Q52.6382 702.831 52.6382 702.38 Q52.6382 701.575 53.2823 701.575 Q57.4369 702.445 59.8201 703.572 Q63.4594 705.376 63.4594 708.435 Q63.4594 710.754 62.0423 712.396 Q60.6252 714.039 58.4997 714.425 Q63.4594 718.644 63.4594 723.024 Q63.4594 726.889 60.5286 729.337 Q57.5657 731.784 52.8958 731.784 Q48.1938 731.784 43.685 729.466 Q39.1761 727.115 36.3742 723.411 Q33.5723 719.707 33.5723 715.907 Q33.5723 711.881 37.7913 709.82 L22.1392 705.859 L20.851 705.665 Q20.4645 705.665 20.2713 705.826 Q20.0459 705.955 19.8848 706.728 Q19.7238 707.469 19.7238 708.95 Q19.7238 709.562 19.6916 709.852 Q19.6594 710.11 19.4984 710.335 Q19.3051 710.561 18.9187 710.561 Q17.7914 710.561 17.6626 709.627 Q16.9541 703.443 16.9541 701.253 Q16.9541 700.867 17.1473 700.641 Q17.3084 700.416 17.5016 700.416 L17.6626 700.384 M40.8186 710.625 Q40.5288 710.625 39.7236 710.851 Q38.9185 711.076 37.7913 711.591 Q36.6641 712.107 35.8589 713.234 Q35.0216 714.329 35.0216 715.81 Q35.0216 717.807 36.7285 719.9 Q38.4354 721.962 41.3339 723.475 Q43.6528 724.635 48.5158 725.891 Q53.3789 727.115 55.7944 727.115 Q57.2758 727.115 58.5963 726.792 Q59.8845 726.438 60.9473 725.44 Q61.9779 724.441 61.9779 722.896 Q61.9779 719.127 57.308 715.424 Q56.5029 714.715 56.1808 714.554 Q55.8266 714.361 54.8604 714.103 L41.9458 710.818 Q40.9797 710.625 40.8186 710.625 Z" fill="#000000" fill-rule="nonzero" fill-opacity="1" /><path clip-path="url(#clip230)" d="M52.7353 681.86 Q53.7272 681.86 54.4712 682.672 Q55.1926 683.461 55.1926 684.317 Q55.1926 685.106 54.7192 685.602 Q54.2232 686.076 53.5243 686.076 Q52.6 686.076 51.8335 685.287 Q51.067 684.498 51.067 683.573 Q51.067 682.807 51.5405 682.333 Q52.0139 681.86 52.7353 681.86 M74.9863 681.454 Q75.1667 681.454 75.8881 681.657 Q76.587 681.86 77.6691 682.356 Q78.7287 682.829 79.7206 683.483 Q80.7125 684.137 81.4114 685.219 Q82.1103 686.279 82.1103 687.496 Q82.1103 689.142 81.0281 690.224 Q79.946 691.283 78.3229 691.283 Q77.4436 691.283 74.6256 690.224 Q66.4196 687.158 66.0814 687.045 Q64.7964 686.527 63.6692 686.527 Q63.1507 686.527 62.8351 686.639 Q62.4969 686.752 62.3842 686.978 Q62.2489 687.203 62.2264 687.338 Q62.2038 687.451 62.2038 687.676 Q62.2038 689.007 63.5565 690.246 Q64.9091 691.486 67.93 692.343 Q68.4936 692.523 68.6289 692.636 Q68.7642 692.749 68.7642 693.087 Q68.7416 693.651 68.2907 693.651 Q68.1555 693.651 67.637 693.493 Q67.0959 693.335 66.2843 693.042 Q65.4502 692.749 64.5935 692.23 Q63.7143 691.712 62.9478 691.081 Q62.1813 690.427 61.6853 689.502 Q61.1893 688.578 61.1893 687.541 Q61.1893 685.85 62.294 684.813 Q63.3761 683.754 64.9767 683.754 Q65.856 683.754 67.4115 684.362 Q69.4405 685.106 70.0943 685.377 L74.9412 687.18 Q76.6997 687.834 77.2407 688.037 Q77.7593 688.217 78.3905 688.375 Q78.9992 688.511 79.5628 688.511 Q80.3518 688.511 80.7125 688.263 Q81.0732 687.992 81.0732 687.406 Q81.0732 685.783 79.4726 684.588 Q77.8494 683.393 75.3696 682.694 Q75.3019 682.672 75.1892 682.649 Q74.6256 682.469 74.558 682.288 Q74.5354 682.198 74.5354 682.018 Q74.5354 681.454 74.9863 681.454 Z" fill="#000000" fill-rule="nonzero" fill-opacity="1" /><path clip-path="url(#clip230)" d="M13.1934 648.213 L13.1934 634.718 L17.7449 634.718 L17.7449 642.357 L66.7608 642.357 L66.7608 634.718 L71.3123 634.718 L71.3123 648.213 L13.1934 648.213 Z" fill="#000000" fill-rule="nonzero" fill-opacity="1" /><path clip-path="url(#clip230)" d="M33.9138 594.487 Q29.9671 592.291 28.0892 589.235 Q26.2113 586.18 26.2113 582.042 Q26.2113 576.472 30.1262 573.448 Q34.0093 570.424 41.2025 570.424 L62.7186 570.424 L62.7186 576.313 L41.3935 576.313 Q36.2691 576.313 33.7865 578.127 Q31.3039 579.941 31.3039 583.665 Q31.3039 588.217 34.3276 590.858 Q37.3513 593.5 42.5712 593.5 L62.7186 593.5 L62.7186 599.388 L41.3935 599.388 Q36.2373 599.388 33.7865 601.203 Q31.3039 603.017 31.3039 606.804 Q31.3039 611.292 34.3594 613.934 Q37.3831 616.576 42.5712 616.576 L62.7186 616.576 L62.7186 622.464 L27.0707 622.464 L27.0707 616.576 L32.6088 616.576 Q29.3305 614.571 27.7709 611.77 Q26.2113 608.969 26.2113 605.118 Q26.2113 601.234 28.1847 598.529 Q30.158 595.792 33.9138 594.487 Z" fill="#000000" fill-rule="nonzero" fill-opacity="1" /><path clip-path="url(#clip230)" d="M33.9138 530.989 Q29.9671 528.793 28.0892 525.737 Q26.2113 522.682 26.2113 518.544 Q26.2113 512.974 30.1262 509.95 Q34.0093 506.927 41.2025 506.927 L62.7186 506.927 L62.7186 512.815 L41.3935 512.815 Q36.2691 512.815 33.7865 514.629 Q31.3039 516.443 31.3039 520.167 Q31.3039 524.719 34.3276 527.36 Q37.3513 530.002 42.5712 530.002 L62.7186 530.002 L62.7186 535.891 L41.3935 535.891 Q36.2373 535.891 33.7865 537.705 Q31.3039 539.519 31.3039 543.307 Q31.3039 547.794 34.3594 550.436 Q37.3831 553.078 42.5712 553.078 L62.7186 553.078 L62.7186 558.966 L27.0707 558.966 L27.0707 553.078 L32.6088 553.078 Q29.3305 551.073 27.7709 548.272 Q26.2113 545.471 26.2113 541.62 Q26.2113 537.737 28.1847 535.031 Q30.158 532.294 33.9138 530.989 Z" fill="#000000" fill-rule="nonzero" fill-opacity="1" /><path clip-path="url(#clip230)" d="M13.1934 481.559 L71.3123 481.559 L71.3123 495.055 L66.7608 495.055 L66.7608 487.447 L17.7449 487.447 L17.7449 495.055 L13.1934 495.055 L13.1934 481.559 Z" fill="#000000" fill-rule="nonzero" fill-opacity="1" /><path clip-path="url(#clip230)" d="M763.504 18.8205 L763.504 65.8515 L773.388 65.8515 Q785.906 65.8515 791.699 60.1802 Q797.532 54.509 797.532 42.2752 Q797.532 30.1225 791.699 24.4918 Q785.906 18.8205 773.388 18.8205 L763.504 18.8205 M755.321 12.096 L772.133 12.096 Q789.714 12.096 797.937 19.4281 Q806.16 26.7198 806.16 42.2752 Q806.16 57.9117 797.896 65.2439 Q789.633 72.576 772.133 72.576 L755.321 72.576 L755.321 12.096 Z" fill="#000000" fill-rule="nonzero" fill-opacity="1" /><path clip-path="url(#clip230)" d="M818.88 27.2059 L826.334 27.2059 L826.334 72.576 L818.88 72.576 L818.88 27.2059 M818.88 9.54393 L826.334 9.54393 L826.334 18.9825 L818.88 18.9825 L818.88 9.54393 Z" fill="#000000" fill-rule="nonzero" fill-opacity="1" /><path clip-path="url(#clip230)" d="M870.853 28.5427 L870.853 35.5912 Q867.694 33.9709 864.291 33.1607 Q860.888 32.3505 857.242 32.3505 Q851.692 32.3505 848.897 34.0519 Q846.143 35.7533 846.143 39.156 Q846.143 41.7486 848.128 43.2475 Q850.113 44.7058 856.108 46.0426 L858.66 46.6097 Q866.6 48.3111 869.922 51.4303 Q873.284 54.509 873.284 60.0587 Q873.284 66.3781 868.261 70.0644 Q863.278 73.7508 854.528 73.7508 Q850.882 73.7508 846.912 73.0216 Q842.983 72.3329 838.608 70.9151 L838.608 63.2184 Q842.74 65.3654 846.75 66.4591 Q850.761 67.5124 854.69 67.5124 Q859.956 67.5124 862.792 65.73 Q865.628 63.9071 865.628 60.6258 Q865.628 57.5877 863.562 55.9673 Q861.536 54.3469 854.609 52.8481 L852.017 52.2405 Q845.089 50.7821 842.011 47.7845 Q838.932 44.7463 838.932 39.4801 Q838.932 33.0797 843.469 29.5959 Q848.006 26.1121 856.351 26.1121 Q860.483 26.1121 864.129 26.7198 Q867.775 27.3274 870.853 28.5427 Z" fill="#000000" fill-rule="nonzero" fill-opacity="1" /><path clip-path="url(#clip230)" d="M892.526 14.324 L892.526 27.2059 L907.879 27.2059 L907.879 32.9987 L892.526 32.9987 L892.526 57.6282 Q892.526 63.1779 894.024 64.7578 Q895.564 66.3376 900.222 66.3376 L907.879 66.3376 L907.879 72.576 L900.222 72.576 Q891.594 72.576 888.313 69.3758 Q885.031 66.1351 885.031 57.6282 L885.031 32.9987 L879.563 32.9987 L879.563 27.2059 L885.031 27.2059 L885.031 14.324 L892.526 14.324 Z" fill="#000000" fill-rule="nonzero" fill-opacity="1" /><path clip-path="url(#clip230)" d="M938.301 49.7694 Q929.267 49.7694 925.784 51.8354 Q922.3 53.9013 922.3 58.8839 Q922.3 62.8538 924.892 65.2034 Q927.525 67.5124 932.022 67.5124 Q938.22 67.5124 941.947 63.1374 Q945.714 58.7219 945.714 51.4303 L945.714 49.7694 L938.301 49.7694 M953.168 46.6907 L953.168 72.576 L945.714 72.576 L945.714 65.6895 Q943.162 69.8214 939.354 71.8063 Q935.546 73.7508 930.037 73.7508 Q923.069 73.7508 918.937 69.8619 Q914.846 65.9325 914.846 59.3701 Q914.846 51.7138 919.95 47.825 Q925.095 43.9361 935.263 43.9361 L945.714 43.9361 L945.714 43.2069 Q945.714 38.0623 942.311 35.2672 Q938.949 32.4315 932.832 32.4315 Q928.943 32.4315 925.257 33.3632 Q921.571 34.295 918.168 36.1584 L918.168 29.2718 Q922.259 27.692 926.108 26.9223 Q929.956 26.1121 933.602 26.1121 Q943.445 26.1121 948.307 31.2163 Q953.168 36.3204 953.168 46.6907 Z" fill="#000000" fill-rule="nonzero" fill-opacity="1" /><path clip-path="url(#clip230)" d="M1006.23 45.1919 L1006.23 72.576 L998.781 72.576 L998.781 45.4349 Q998.781 38.994 996.269 35.7938 Q993.758 32.5936 988.735 32.5936 Q982.699 32.5936 979.215 36.4419 Q975.731 40.2903 975.731 46.9338 L975.731 72.576 L968.237 72.576 L968.237 27.2059 L975.731 27.2059 L975.731 34.2544 Q978.405 30.163 982.01 28.1376 Q985.656 26.1121 990.395 26.1121 Q998.214 26.1121 1002.22 30.9732 Q1006.23 35.7938 1006.23 45.1919 Z" fill="#000000" fill-rule="nonzero" fill-opacity="1" /><path clip-path="url(#clip230)" d="M1053.75 28.9478 L1053.75 35.9153 Q1050.59 34.1734 1047.39 33.3227 Q1044.23 32.4315 1040.99 32.4315 Q1033.74 32.4315 1029.73 37.0496 Q1025.72 41.6271 1025.72 49.9314 Q1025.72 58.2358 1029.73 62.8538 Q1033.74 67.4314 1040.99 67.4314 Q1044.23 67.4314 1047.39 66.5807 Q1050.59 65.6895 1053.75 63.9476 L1053.75 70.8341 Q1050.63 72.2924 1047.27 73.0216 Q1043.95 73.7508 1040.18 73.7508 Q1029.93 73.7508 1023.9 67.3098 Q1017.86 60.8689 1017.86 49.9314 Q1017.86 38.832 1023.94 32.472 Q1030.05 26.1121 1040.67 26.1121 Q1044.11 26.1121 1047.39 26.8413 Q1050.67 27.5299 1053.75 28.9478 Z" fill="#000000" fill-rule="nonzero" fill-opacity="1" /><path clip-path="url(#clip230)" d="M1105.52 48.0275 L1105.52 51.6733 L1071.25 51.6733 Q1071.74 59.3701 1075.87 63.421 Q1080.04 67.4314 1087.46 67.4314 Q1091.75 67.4314 1095.76 66.3781 Q1099.81 65.3249 1103.78 63.2184 L1103.78 70.267 Q1099.77 71.9684 1095.56 72.8596 Q1091.34 73.7508 1087.01 73.7508 Q1076.15 73.7508 1069.79 67.4314 Q1063.47 61.1119 1063.47 50.3365 Q1063.47 39.1965 1069.47 32.6746 Q1075.5 26.1121 1085.71 26.1121 Q1094.87 26.1121 1100.17 32.0264 Q1105.52 37.9003 1105.52 48.0275 M1098.07 45.84 Q1097.99 39.7232 1094.63 36.0774 Q1091.3 32.4315 1085.79 32.4315 Q1079.56 32.4315 1075.79 35.9558 Q1072.06 39.4801 1071.49 45.8805 L1098.07 45.84 Z" fill="#000000" fill-rule="nonzero" fill-opacity="1" /><path clip-path="url(#clip230)" d="M1151.5 14.324 L1151.5 27.2059 L1166.85 27.2059 L1166.85 32.9987 L1151.5 32.9987 L1151.5 57.6282 Q1151.5 63.1779 1153 64.7578 Q1154.54 66.3376 1159.2 66.3376 L1166.85 66.3376 L1166.85 72.576 L1159.2 72.576 Q1150.57 72.576 1147.29 69.3758 Q1144.01 66.1351 1144.01 57.6282 L1144.01 32.9987 L1138.54 32.9987 L1138.54 27.2059 L1144.01 27.2059 L1144.01 14.324 L1151.5 14.324 Z" fill="#000000" fill-rule="nonzero" fill-opacity="1" /><path clip-path="url(#clip230)" d="M1202.95 34.1734 Q1201.69 33.4443 1200.19 33.1202 Q1198.73 32.7556 1196.95 32.7556 Q1190.63 32.7556 1187.23 36.8875 Q1183.87 40.9789 1183.87 48.6757 L1183.87 72.576 L1176.37 72.576 L1176.37 27.2059 L1183.87 27.2059 L1183.87 34.2544 Q1186.22 30.1225 1189.98 28.1376 Q1193.75 26.1121 1199.14 26.1121 Q1199.91 26.1121 1200.84 26.2337 Q1201.77 26.3147 1202.91 26.5172 L1202.95 34.1734 Z" fill="#000000" fill-rule="nonzero" fill-opacity="1" /><path clip-path="url(#clip230)" d="M1231.38 49.7694 Q1222.35 49.7694 1218.87 51.8354 Q1215.38 53.9013 1215.38 58.8839 Q1215.38 62.8538 1217.98 65.2034 Q1220.61 67.5124 1225.1 67.5124 Q1231.3 67.5124 1235.03 63.1374 Q1238.8 58.7219 1238.8 51.4303 L1238.8 49.7694 L1231.38 49.7694 M1246.25 46.6907 L1246.25 72.576 L1238.8 72.576 L1238.8 65.6895 Q1236.24 69.8214 1232.44 71.8063 Q1228.63 73.7508 1223.12 73.7508 Q1216.15 73.7508 1212.02 69.8619 Q1207.93 65.9325 1207.93 59.3701 Q1207.93 51.7138 1213.03 47.825 Q1218.18 43.9361 1228.35 43.9361 L1238.8 43.9361 L1238.8 43.2069 Q1238.8 38.0623 1235.39 35.2672 Q1232.03 32.4315 1225.91 32.4315 Q1222.03 32.4315 1218.34 33.3632 Q1214.65 34.295 1211.25 36.1584 L1211.25 29.2718 Q1215.34 27.692 1219.19 26.9223 Q1223.04 26.1121 1226.68 26.1121 Q1236.53 26.1121 1241.39 31.2163 Q1246.25 36.3204 1246.25 46.6907 Z" fill="#000000" fill-rule="nonzero" fill-opacity="1" /><path clip-path="url(#clip230)" d="M1294.25 28.9478 L1294.25 35.9153 Q1291.09 34.1734 1287.89 33.3227 Q1284.73 32.4315 1281.49 32.4315 Q1274.24 32.4315 1270.23 37.0496 Q1266.22 41.6271 1266.22 49.9314 Q1266.22 58.2358 1270.23 62.8538 Q1274.24 67.4314 1281.49 67.4314 Q1284.73 67.4314 1287.89 66.5807 Q1291.09 65.6895 1294.25 63.9476 L1294.25 70.8341 Q1291.13 72.2924 1287.77 73.0216 Q1284.45 73.7508 1280.68 73.7508 Q1270.43 73.7508 1264.4 67.3098 Q1258.36 60.8689 1258.36 49.9314 Q1258.36 38.832 1264.44 32.472 Q1270.56 26.1121 1281.17 26.1121 Q1284.61 26.1121 1287.89 26.8413 Q1291.18 27.5299 1294.25 28.9478 Z" fill="#000000" fill-rule="nonzero" fill-opacity="1" /><path clip-path="url(#clip230)" d="M1346.02 48.0275 L1346.02 51.6733 L1311.75 51.6733 Q1312.24 59.3701 1316.37 63.421 Q1320.54 67.4314 1327.96 67.4314 Q1332.25 67.4314 1336.26 66.3781 Q1340.31 65.3249 1344.28 63.2184 L1344.28 70.267 Q1340.27 71.9684 1336.06 72.8596 Q1331.85 73.7508 1327.51 73.7508 Q1316.66 73.7508 1310.3 67.4314 Q1303.98 61.1119 1303.98 50.3365 Q1303.98 39.1965 1309.97 32.6746 Q1316.01 26.1121 1326.22 26.1121 Q1335.37 26.1121 1340.68 32.0264 Q1346.02 37.9003 1346.02 48.0275 M1338.57 45.84 Q1338.49 39.7232 1335.13 36.0774 Q1331.81 32.4315 1326.3 32.4315 Q1320.06 32.4315 1316.29 35.9558 Q1312.56 39.4801 1312 45.8805 L1338.57 45.84 Z" fill="#000000" fill-rule="nonzero" fill-opacity="1" /><path clip-path="url(#clip230)" d="M1417.2 49.9314 Q1417.2 41.7081 1413.8 37.0496 Q1410.43 32.3505 1404.52 32.3505 Q1398.61 32.3505 1395.2 37.0496 Q1391.84 41.7081 1391.84 49.9314 Q1391.84 58.1548 1395.2 62.8538 Q1398.61 67.5124 1404.52 67.5124 Q1410.43 67.5124 1413.8 62.8538 Q1417.2 58.1548 1417.2 49.9314 M1391.84 34.0924 Q1394.19 30.0415 1397.75 28.0971 Q1401.36 26.1121 1406.34 26.1121 Q1414.61 26.1121 1419.75 32.6746 Q1424.94 39.2371 1424.94 49.9314 Q1424.94 60.6258 1419.75 67.1883 Q1414.61 73.7508 1406.34 73.7508 Q1401.36 73.7508 1397.75 71.8063 Q1394.19 69.8214 1391.84 65.7705 L1391.84 72.576 L1384.35 72.576 L1384.35 9.54393 L1391.84 9.54393 L1391.84 34.0924 Z" fill="#000000" fill-rule="nonzero" fill-opacity="1" /><path clip-path="url(#clip230)" d="M1476.1 48.0275 L1476.1 51.6733 L1441.83 51.6733 Q1442.31 59.3701 1446.45 63.421 Q1450.62 67.4314 1458.03 67.4314 Q1462.33 67.4314 1466.34 66.3781 Q1470.39 65.3249 1474.36 63.2184 L1474.36 70.267 Q1470.35 71.9684 1466.13 72.8596 Q1461.92 73.7508 1457.59 73.7508 Q1446.73 73.7508 1440.37 67.4314 Q1434.05 61.1119 1434.05 50.3365 Q1434.05 39.1965 1440.05 32.6746 Q1446.08 26.1121 1456.29 26.1121 Q1465.44 26.1121 1470.75 32.0264 Q1476.1 37.9003 1476.1 48.0275 M1468.65 45.84 Q1468.56 39.7232 1465.2 36.0774 Q1461.88 32.4315 1456.37 32.4315 Q1450.13 32.4315 1446.37 35.9558 Q1442.64 39.4801 1442.07 45.8805 L1468.65 45.84 Z" fill="#000000" fill-rule="nonzero" fill-opacity="1" /><path clip-path="url(#clip230)" d="M1517.26 28.5427 L1517.26 35.5912 Q1514.1 33.9709 1510.69 33.1607 Q1507.29 32.3505 1503.64 32.3505 Q1498.1 32.3505 1495.3 34.0519 Q1492.55 35.7533 1492.55 39.156 Q1492.55 41.7486 1494.53 43.2475 Q1496.52 44.7058 1502.51 46.0426 L1505.06 46.6097 Q1513 48.3111 1516.32 51.4303 Q1519.69 54.509 1519.69 60.0587 Q1519.69 66.3781 1514.66 70.0644 Q1509.68 73.7508 1500.93 73.7508 Q1497.29 73.7508 1493.32 73.0216 Q1489.39 72.3329 1485.01 70.9151 L1485.01 63.2184 Q1489.14 65.3654 1493.15 66.4591 Q1497.16 67.5124 1501.09 67.5124 Q1506.36 67.5124 1509.19 65.73 Q1512.03 63.9071 1512.03 60.6258 Q1512.03 57.5877 1509.96 55.9673 Q1507.94 54.3469 1501.01 52.8481 L1498.42 52.2405 Q1491.49 50.7821 1488.41 47.7845 Q1485.33 44.7463 1485.33 39.4801 Q1485.33 33.0797 1489.87 29.5959 Q1494.41 26.1121 1502.75 26.1121 Q1506.89 26.1121 1510.53 26.7198 Q1514.18 27.3274 1517.26 28.5427 Z" fill="#000000" fill-rule="nonzero" fill-opacity="1" /><path clip-path="url(#clip230)" d="M1538.93 14.324 L1538.93 27.2059 L1554.28 27.2059 L1554.28 32.9987 L1538.93 32.9987 L1538.93 57.6282 Q1538.93 63.1779 1540.43 64.7578 Q1541.97 66.3376 1546.63 66.3376 L1554.28 66.3376 L1554.28 72.576 L1546.63 72.576 Q1538 72.576 1534.72 69.3758 Q1531.43 66.1351 1531.43 57.6282 L1531.43 32.9987 L1525.97 32.9987 L1525.97 27.2059 L1531.43 27.2059 L1531.43 14.324 L1538.93 14.324 Z" fill="#000000" fill-rule="nonzero" fill-opacity="1" /><path clip-path="url(#clip230)" d="M1585.11 27.2059 L1593.01 27.2059 L1607.19 65.2844 L1621.36 27.2059 L1629.26 27.2059 L1612.25 72.576 L1602.12 72.576 L1585.11 27.2059 Z" fill="#000000" fill-rule="nonzero" fill-opacity="1" /><path clip-path="url(#clip230)" d="M1678.36 48.0275 L1678.36 51.6733 L1644.09 51.6733 Q1644.58 59.3701 1648.71 63.421 Q1652.88 67.4314 1660.29 67.4314 Q1664.59 67.4314 1668.6 66.3781 Q1672.65 65.3249 1676.62 63.2184 L1676.62 70.267 Q1672.61 71.9684 1668.4 72.8596 Q1664.18 73.7508 1659.85 73.7508 Q1648.99 73.7508 1642.63 67.4314 Q1636.31 61.1119 1636.31 50.3365 Q1636.31 39.1965 1642.31 32.6746 Q1648.34 26.1121 1658.55 26.1121 Q1667.71 26.1121 1673.01 32.0264 Q1678.36 37.9003 1678.36 48.0275 M1670.91 45.84 Q1670.83 39.7232 1667.46 36.0774 Q1664.14 32.4315 1658.63 32.4315 Q1652.39 32.4315 1648.63 35.9558 Q1644.9 39.4801 1644.33 45.8805 L1670.91 45.84 Z" fill="#000000" fill-rule="nonzero" fill-opacity="1" /><path clip-path="url(#clip230)" d="M1716.88 34.1734 Q1715.63 33.4443 1714.13 33.1202 Q1712.67 32.7556 1710.89 32.7556 Q1704.57 32.7556 1701.17 36.8875 Q1697.8 40.9789 1697.8 48.6757 L1697.8 72.576 L1690.31 72.576 L1690.31 27.2059 L1697.8 27.2059 L1697.8 34.2544 Q1700.15 30.1225 1703.92 28.1376 Q1707.69 26.1121 1713.08 26.1121 Q1713.85 26.1121 1714.78 26.2337 Q1715.71 26.3147 1716.84 26.5172 L1716.88 34.1734 Z" fill="#000000" fill-rule="nonzero" fill-opacity="1" /><path clip-path="url(#clip230)" d="M1732.08 14.324 L1732.08 27.2059 L1747.43 27.2059 L1747.43 32.9987 L1732.08 32.9987 L1732.08 57.6282 Q1732.08 63.1779 1733.57 64.7578 Q1735.11 66.3376 1739.77 66.3376 L1747.43 66.3376 L1747.43 72.576 L1739.77 72.576 Q1731.14 72.576 1727.86 69.3758 Q1724.58 66.1351 1724.58 57.6282 L1724.58 32.9987 L1719.11 32.9987 L1719.11 27.2059 L1724.58 27.2059 L1724.58 14.324 L1732.08 14.324 Z" fill="#000000" fill-rule="nonzero" fill-opacity="1" /><path clip-path="url(#clip230)" d="M1796.04 48.0275 L1796.04 51.6733 L1761.77 51.6733 Q1762.25 59.3701 1766.39 63.421 Q1770.56 67.4314 1777.97 67.4314 Q1782.27 67.4314 1786.28 66.3781 Q1790.33 65.3249 1794.3 63.2184 L1794.3 70.267 Q1790.29 71.9684 1786.07 72.8596 Q1781.86 73.7508 1777.53 73.7508 Q1766.67 73.7508 1760.31 67.4314 Q1753.99 61.1119 1753.99 50.3365 Q1753.99 39.1965 1759.99 32.6746 Q1766.02 26.1121 1776.23 26.1121 Q1785.39 26.1121 1790.69 32.0264 Q1796.04 37.9003 1796.04 48.0275 M1788.59 45.84 Q1788.5 39.7232 1785.14 36.0774 Q1781.82 32.4315 1776.31 32.4315 Q1770.07 32.4315 1766.31 35.9558 Q1762.58 39.4801 1762.01 45.8805 L1788.59 45.84 Z" fill="#000000" fill-rule="nonzero" fill-opacity="1" /><path clip-path="url(#clip230)" d="M1844.53 27.2059 L1828.12 49.2833 L1845.38 72.576 L1836.59 72.576 L1823.38 54.752 L1810.18 72.576 L1801.39 72.576 L1819.01 48.8377 L1802.89 27.2059 L1811.68 27.2059 L1823.71 43.369 L1835.74 27.2059 L1844.53 27.2059 Z" fill="#000000" fill-rule="nonzero" fill-opacity="1" /><polyline clip-path="url(#clip232)" style="stroke:#009af9; stroke-linecap:round; stroke-linejoin:round; stroke-width:4; stroke-opacity:1; fill:none" points="307.515,1386.4 327.372,1386.4 347.228,1386.4 367.085,1386.4 386.942,1386.4 406.798,1386.4 426.655,1386.4 446.512,1386.4 466.369,1386.4 486.225,1386.4 506.082,1386.4 525.939,1386.4 545.795,1386.4 565.652,1386.4 585.509,1386.4 605.366,1386.4 625.222,1386.4 645.079,1386.4 664.936,1386.4 684.792,1386.4 704.649,1386.4 724.506,1386.4 744.363,1386.4 764.219,1386.4 784.076,1386.4 803.933,1386.4 823.789,1386.4 843.646,1386.4 863.503,1386.4 883.359,1386.4 903.216,1386.4 923.073,1386.4 942.93,1386.4 962.786,1386.4 982.643,1386.4 1002.5,1386.4 1022.36,1386.4 1042.21,1386.4 1062.07,1386.4 1081.93,1386.4 1101.78,1386.4 1121.64,1386.4 1141.5,1386.4 1161.35,1386.4 1181.21,1386.4 1201.07,1386.4 1220.92,1386.4 1240.78,1386.4 1260.64,1386.4 1280.49,1386.4 1300.35,1386.4 1320.21,1386.4 1340.06,1386.4 1359.92,1386.4 1379.78,1386.4 1399.63,1386.4 1419.49,1386.4 1439.35,1386.4 1459.2,1386.4 1479.06,1386.4 1498.92,1386.4 1518.77,1386.4 1538.63,1386.4 1558.49,1386.4 1578.34,1386.4 1598.2,1386.4 1618.06,1386.4 1637.91,1386.4 1657.77,1386.4 1677.63,1386.4 1697.48,1386.4 1717.34,1386.4 1737.2,1386.4 1757.05,1386.4 1776.91,1386.4 1796.77,1386.4 1816.62,1386.4 1836.48,1386.4 1856.34,1386.4 1876.19,1386.4 1896.05,1386.4 1915.91,1386.4 1935.77,1386.4 1955.62,1386.4 1975.48,1386.4 1995.34,1386.4 2015.19,1386.4 2035.05,1386.4 2054.91,1386.4 2074.76,1386.4 2094.62,1386.4 2114.48,1386.4 2134.33,1386.4 2154.19,1386.4 2174.05,1386.4 2193.9,1386.4 2213.76,1386.4 2233.62,1386.4 2253.47,1386.4 2273.33,1386.4 2293.19,1386.4 "/>
<polyline clip-path="url(#clip232)" style="stroke:#e26f46; stroke-linecap:round; stroke-linejoin:round; stroke-width:4; stroke-opacity:1; fill:none" points="307.515,160.256 327.372,160.256 347.228,160.256 367.085,160.256 386.942,160.256 406.798,160.256 426.655,160.256 446.512,160.256 466.369,160.256 486.225,160.256 506.082,160.256 525.939,160.256 545.795,160.256 565.652,160.256 585.509,160.256 605.366,160.256 625.222,160.256 645.079,160.256 664.936,160.256 684.792,160.256 704.649,160.256 724.506,160.256 744.363,160.256 764.219,160.256 784.076,160.256 803.933,160.256 823.789,160.256 843.646,160.256 863.503,160.256 883.359,160.256 903.216,160.256 923.073,160.256 942.93,160.256 962.786,160.256 982.643,160.256 1002.5,160.256 1022.36,160.256 1042.21,160.256 1062.07,160.256 1081.93,160.256 1101.78,160.256 1121.64,160.256 1141.5,160.256 1161.35,160.256 1181.21,160.256 1201.07,160.256 1220.92,160.256 1240.78,160.256 1260.64,160.256 1280.49,160.256 1300.35,160.256 1320.21,160.256 1340.06,160.256 1359.92,160.256 1379.78,160.256 1399.63,160.256 1419.49,160.256 1439.35,160.256 1459.2,160.256 1479.06,160.256 1498.92,160.256 1518.77,160.256 1538.63,160.256 1558.49,160.256 1578.34,160.256 1598.2,160.256 1618.06,160.256 1637.91,160.256 1657.77,160.256 1677.63,160.256 1697.48,160.256 1717.34,160.256 1737.2,160.256 1757.05,160.256 1776.91,160.256 1796.77,160.256 1816.62,160.256 1836.48,160.256 1856.34,160.256 1876.19,160.256 1896.05,160.256 1915.91,160.256 1935.77,160.256 1955.62,160.256 1975.48,160.256 1995.34,160.256 2015.19,160.256 2035.05,160.256 2054.91,160.256 2074.76,160.256 2094.62,160.256 2114.48,160.256 2134.33,160.256 2154.19,160.256 2174.05,160.256 2193.9,160.256 2213.76,160.256 2233.62,160.256 2253.47,160.256 2273.33,160.256 2293.19,160.256 "/>
</svg>
