<?xml version="1.0" encoding="utf-8"?>
<svg xmlns="http://www.w3.org/2000/svg" xmlns:xlink="http://www.w3.org/1999/xlink" width="600" height="400" viewBox="0 0 2400 1600">
<defs>
  <clipPath id="clip410">
    <rect x="0" y="0" width="2400" height="1600"/>
  </clipPath>
</defs>
<path clip-path="url(#clip410)" d="M0 1600 L2400 1600 L2400 0 L0 0  Z" fill="#ffffff" fill-rule="evenodd" fill-opacity="1"/>
<defs>
  <clipPath id="clip411">
    <rect x="480" y="0" width="1681" height="1600"/>
  </clipPath>
</defs>
<path clip-path="url(#clip410)" d="M340.028 1423.18 L2352.76 1423.18 L2352.76 123.472 L340.028 123.472  Z" fill="#ffffff" fill-rule="evenodd" fill-opacity="1"/>
<defs>
  <clipPath id="clip412">
    <rect x="340" y="123" width="2014" height="1301"/>
  </clipPath>
</defs>
<polyline clip-path="url(#clip412)" style="stroke:#000000; stroke-linecap:round; stroke-linejoin:round; stroke-width:2; stroke-opacity:0.1; fill:none" points="359.016,1423.18 359.016,123.472 "/>
<polyline clip-path="url(#clip412)" style="stroke:#000000; stroke-linecap:round; stroke-linejoin:round; stroke-width:2; stroke-opacity:0.1; fill:none" points="738.776,1423.18 738.776,123.472 "/>
<polyline clip-path="url(#clip412)" style="stroke:#000000; stroke-linecap:round; stroke-linejoin:round; stroke-width:2; stroke-opacity:0.1; fill:none" points="1118.54,1423.18 1118.54,123.472 "/>
<polyline clip-path="url(#clip412)" style="stroke:#000000; stroke-linecap:round; stroke-linejoin:round; stroke-width:2; stroke-opacity:0.1; fill:none" points="1498.3,1423.18 1498.3,123.472 "/>
<polyline clip-path="url(#clip412)" style="stroke:#000000; stroke-linecap:round; stroke-linejoin:round; stroke-width:2; stroke-opacity:0.1; fill:none" points="1878.06,1423.18 1878.06,123.472 "/>
<polyline clip-path="url(#clip412)" style="stroke:#000000; stroke-linecap:round; stroke-linejoin:round; stroke-width:2; stroke-opacity:0.1; fill:none" points="2257.82,1423.18 2257.82,123.472 "/>
<polyline clip-path="url(#clip412)" style="stroke:#000000; stroke-linecap:round; stroke-linejoin:round; stroke-width:2; stroke-opacity:0.1; fill:none" points="340.028,1227.76 2352.76,1227.76 "/>
<polyline clip-path="url(#clip412)" style="stroke:#000000; stroke-linecap:round; stroke-linejoin:round; stroke-width:2; stroke-opacity:0.1; fill:none" points="340.028,1001.78 2352.76,1001.78 "/>
<polyline clip-path="url(#clip412)" style="stroke:#000000; stroke-linecap:round; stroke-linejoin:round; stroke-width:2; stroke-opacity:0.1; fill:none" points="340.028,775.792 2352.76,775.792 "/>
<polyline clip-path="url(#clip412)" style="stroke:#000000; stroke-linecap:round; stroke-linejoin:round; stroke-width:2; stroke-opacity:0.1; fill:none" points="340.028,549.805 2352.76,549.805 "/>
<polyline clip-path="url(#clip412)" style="stroke:#000000; stroke-linecap:round; stroke-linejoin:round; stroke-width:2; stroke-opacity:0.1; fill:none" points="340.028,323.819 2352.76,323.819 "/>
<polyline clip-path="url(#clip410)" style="stroke:#000000; stroke-linecap:round; stroke-linejoin:round; stroke-width:4; stroke-opacity:1; fill:none" points="340.028,1423.18 2352.76,1423.18 "/>
<polyline clip-path="url(#clip410)" style="stroke:#000000; stroke-linecap:round; stroke-linejoin:round; stroke-width:4; stroke-opacity:1; fill:none" points="359.016,1423.18 359.016,1404.28 "/>
<polyline clip-path="url(#clip410)" style="stroke:#000000; stroke-linecap:round; stroke-linejoin:round; stroke-width:4; stroke-opacity:1; fill:none" points="738.776,1423.18 738.776,1404.28 "/>
<polyline clip-path="url(#clip410)" style="stroke:#000000; stroke-linecap:round; stroke-linejoin:round; stroke-width:4; stroke-opacity:1; fill:none" points="1118.54,1423.18 1118.54,1404.28 "/>
<polyline clip-path="url(#clip410)" style="stroke:#000000; stroke-linecap:round; stroke-linejoin:round; stroke-width:4; stroke-opacity:1; fill:none" points="1498.3,1423.18 1498.3,1404.28 "/>
<polyline clip-path="url(#clip410)" style="stroke:#000000; stroke-linecap:round; stroke-linejoin:round; stroke-width:4; stroke-opacity:1; fill:none" points="1878.06,1423.18 1878.06,1404.28 "/>
<polyline clip-path="url(#clip410)" style="stroke:#000000; stroke-linecap:round; stroke-linejoin:round; stroke-width:4; stroke-opacity:1; fill:none" points="2257.82,1423.18 2257.82,1404.28 "/>
<path clip-path="url(#clip410)" d="M359.016 1454.1 Q355.405 1454.1 353.576 1457.66 Q351.77 1461.2 351.77 1468.33 Q351.77 1475.44 353.576 1479.01 Q355.405 1482.55 359.016 1482.55 Q362.65 1482.55 364.455 1479.01 Q366.284 1475.44 366.284 1468.33 Q366.284 1461.2 364.455 1457.66 Q362.65 1454.1 359.016 1454.1 M359.016 1450.39 Q364.826 1450.39 367.881 1455 Q370.96 1459.58 370.96 1468.33 Q370.96 1477.06 367.881 1481.67 Q364.826 1486.25 359.016 1486.25 Q353.206 1486.25 350.127 1481.67 Q347.071 1477.06 347.071 1468.33 Q347.071 1459.58 350.127 1455 Q353.206 1450.39 359.016 1450.39 Z" fill="#000000" fill-rule="nonzero" fill-opacity="1" /><path clip-path="url(#clip410)" d="M713.463 1481.64 L721.102 1481.64 L721.102 1455.28 L712.792 1456.95 L712.792 1452.69 L721.056 1451.02 L725.732 1451.02 L725.732 1481.64 L733.371 1481.64 L733.371 1485.58 L713.463 1485.58 L713.463 1481.64 Z" fill="#000000" fill-rule="nonzero" fill-opacity="1" /><path clip-path="url(#clip410)" d="M752.815 1454.1 Q749.204 1454.1 747.375 1457.66 Q745.57 1461.2 745.57 1468.33 Q745.57 1475.44 747.375 1479.01 Q749.204 1482.55 752.815 1482.55 Q756.449 1482.55 758.255 1479.01 Q760.083 1475.44 760.083 1468.33 Q760.083 1461.2 758.255 1457.66 Q756.449 1454.1 752.815 1454.1 M752.815 1450.39 Q758.625 1450.39 761.681 1455 Q764.759 1459.58 764.759 1468.33 Q764.759 1477.06 761.681 1481.67 Q758.625 1486.25 752.815 1486.25 Q747.005 1486.25 743.926 1481.67 Q740.871 1477.06 740.871 1468.33 Q740.871 1459.58 743.926 1455 Q747.005 1450.39 752.815 1450.39 Z" fill="#000000" fill-rule="nonzero" fill-opacity="1" /><path clip-path="url(#clip410)" d="M1097.31 1481.64 L1113.63 1481.64 L1113.63 1485.58 L1091.68 1485.58 L1091.68 1481.64 Q1094.35 1478.89 1098.93 1474.26 Q1103.54 1469.61 1104.72 1468.27 Q1106.96 1465.74 1107.84 1464.01 Q1108.74 1462.25 1108.74 1460.56 Q1108.74 1457.8 1106.8 1456.07 Q1104.88 1454.33 1101.78 1454.33 Q1099.58 1454.33 1097.12 1455.09 Q1094.69 1455.86 1091.92 1457.41 L1091.92 1452.69 Q1094.74 1451.55 1097.19 1450.97 Q1099.65 1450.39 1101.68 1450.39 Q1107.05 1450.39 1110.25 1453.08 Q1113.44 1455.77 1113.44 1460.26 Q1113.44 1462.39 1112.63 1464.31 Q1111.85 1466.2 1109.74 1468.8 Q1109.16 1469.47 1106.06 1472.69 Q1102.96 1475.88 1097.31 1481.64 Z" fill="#000000" fill-rule="nonzero" fill-opacity="1" /><path clip-path="url(#clip410)" d="M1133.44 1454.1 Q1129.83 1454.1 1128 1457.66 Q1126.2 1461.2 1126.2 1468.33 Q1126.2 1475.44 1128 1479.01 Q1129.83 1482.55 1133.44 1482.55 Q1137.08 1482.55 1138.88 1479.01 Q1140.71 1475.44 1140.71 1468.33 Q1140.71 1461.2 1138.88 1457.66 Q1137.08 1454.1 1133.44 1454.1 M1133.44 1450.39 Q1139.25 1450.39 1142.31 1455 Q1145.39 1459.58 1145.39 1468.33 Q1145.39 1477.06 1142.31 1481.67 Q1139.25 1486.25 1133.44 1486.25 Q1127.63 1486.25 1124.55 1481.67 Q1121.5 1477.06 1121.5 1468.33 Q1121.5 1459.58 1124.55 1455 Q1127.63 1450.39 1133.44 1450.39 Z" fill="#000000" fill-rule="nonzero" fill-opacity="1" /><path clip-path="url(#clip410)" d="M1487.14 1466.95 Q1490.49 1467.66 1492.37 1469.93 Q1494.27 1472.2 1494.27 1475.53 Q1494.27 1480.65 1490.75 1483.45 Q1487.23 1486.25 1480.75 1486.25 Q1478.57 1486.25 1476.26 1485.81 Q1473.97 1485.39 1471.51 1484.54 L1471.51 1480.02 Q1473.46 1481.16 1475.77 1481.74 Q1478.09 1482.32 1480.61 1482.32 Q1485.01 1482.32 1487.3 1480.58 Q1489.62 1478.84 1489.62 1475.53 Q1489.62 1472.48 1487.46 1470.77 Q1485.33 1469.03 1481.51 1469.03 L1477.49 1469.03 L1477.49 1465.19 L1481.7 1465.19 Q1485.15 1465.19 1486.98 1463.82 Q1488.81 1462.43 1488.81 1459.84 Q1488.81 1457.18 1486.91 1455.77 Q1485.03 1454.33 1481.51 1454.33 Q1479.59 1454.33 1477.39 1454.75 Q1475.19 1455.16 1472.56 1456.04 L1472.56 1451.88 Q1475.22 1451.14 1477.53 1450.77 Q1479.87 1450.39 1481.93 1450.39 Q1487.25 1450.39 1490.36 1452.83 Q1493.46 1455.23 1493.46 1459.35 Q1493.46 1462.22 1491.81 1464.21 Q1490.17 1466.18 1487.14 1466.95 Z" fill="#000000" fill-rule="nonzero" fill-opacity="1" /><path clip-path="url(#clip410)" d="M1513.13 1454.1 Q1509.52 1454.1 1507.69 1457.66 Q1505.89 1461.2 1505.89 1468.33 Q1505.89 1475.44 1507.69 1479.01 Q1509.52 1482.55 1513.13 1482.55 Q1516.77 1482.55 1518.57 1479.01 Q1520.4 1475.44 1520.4 1468.33 Q1520.4 1461.2 1518.57 1457.66 Q1516.77 1454.1 1513.13 1454.1 M1513.13 1450.39 Q1518.94 1450.39 1522 1455 Q1525.08 1459.58 1525.08 1468.33 Q1525.08 1477.06 1522 1481.67 Q1518.94 1486.25 1513.13 1486.25 Q1507.32 1486.25 1504.24 1481.67 Q1501.19 1477.06 1501.19 1468.33 Q1501.19 1459.58 1504.24 1455 Q1507.32 1450.39 1513.13 1450.39 Z" fill="#000000" fill-rule="nonzero" fill-opacity="1" /><path clip-path="url(#clip410)" d="M1866.23 1455.09 L1854.42 1473.54 L1866.23 1473.54 L1866.23 1455.09 M1865 1451.02 L1870.88 1451.02 L1870.88 1473.54 L1875.81 1473.54 L1875.81 1477.43 L1870.88 1477.43 L1870.88 1485.58 L1866.23 1485.58 L1866.23 1477.43 L1850.63 1477.43 L1850.63 1472.92 L1865 1451.02 Z" fill="#000000" fill-rule="nonzero" fill-opacity="1" /><path clip-path="url(#clip410)" d="M1893.54 1454.1 Q1889.93 1454.1 1888.1 1457.66 Q1886.3 1461.2 1886.3 1468.33 Q1886.3 1475.44 1888.1 1479.01 Q1889.93 1482.55 1893.54 1482.55 Q1897.18 1482.55 1898.98 1479.01 Q1900.81 1475.44 1900.81 1468.33 Q1900.81 1461.2 1898.98 1457.66 Q1897.18 1454.1 1893.54 1454.1 M1893.54 1450.39 Q1899.35 1450.39 1902.41 1455 Q1905.49 1459.58 1905.49 1468.33 Q1905.49 1477.06 1902.41 1481.67 Q1899.35 1486.25 1893.54 1486.25 Q1887.73 1486.25 1884.65 1481.67 Q1881.6 1477.06 1881.6 1468.33 Q1881.6 1459.58 1884.65 1455 Q1887.73 1450.39 1893.54 1450.39 Z" fill="#000000" fill-rule="nonzero" fill-opacity="1" /><path clip-path="url(#clip410)" d="M2232.52 1451.02 L2250.87 1451.02 L2250.87 1454.96 L2236.8 1454.96 L2236.8 1463.43 Q2237.82 1463.08 2238.83 1462.92 Q2239.85 1462.73 2240.87 1462.73 Q2246.66 1462.73 2250.04 1465.9 Q2253.42 1469.08 2253.42 1474.49 Q2253.42 1480.07 2249.95 1483.17 Q2246.47 1486.25 2240.15 1486.25 Q2237.98 1486.25 2235.71 1485.88 Q2233.46 1485.51 2231.06 1484.77 L2231.06 1480.07 Q2233.14 1481.2 2235.36 1481.76 Q2237.58 1482.32 2240.06 1482.32 Q2244.07 1482.32 2246.4 1480.21 Q2248.74 1478.1 2248.74 1474.49 Q2248.74 1470.88 2246.4 1468.77 Q2244.07 1466.67 2240.06 1466.67 Q2238.19 1466.67 2236.31 1467.08 Q2234.46 1467.5 2232.52 1468.38 L2232.52 1451.02 Z" fill="#000000" fill-rule="nonzero" fill-opacity="1" /><path clip-path="url(#clip410)" d="M2272.63 1454.1 Q2269.02 1454.1 2267.19 1457.66 Q2265.39 1461.2 2265.39 1468.33 Q2265.39 1475.44 2267.19 1479.01 Q2269.02 1482.55 2272.63 1482.55 Q2276.26 1482.55 2278.07 1479.01 Q2279.9 1475.44 2279.9 1468.33 Q2279.9 1461.2 2278.07 1457.66 Q2276.26 1454.1 2272.63 1454.1 M2272.63 1450.39 Q2278.44 1450.39 2281.5 1455 Q2284.58 1459.58 2284.58 1468.33 Q2284.58 1477.06 2281.5 1481.67 Q2278.44 1486.25 2272.63 1486.25 Q2266.82 1486.25 2263.74 1481.67 Q2260.69 1477.06 2260.69 1468.33 Q2260.69 1459.58 2263.74 1455 Q2266.82 1450.39 2272.63 1450.39 Z" fill="#000000" fill-rule="nonzero" fill-opacity="1" /><path clip-path="url(#clip410)" d="M1214.11 1520.52 L1220.54 1520.52 L1220.54 1568.04 L1214.11 1568.04 L1214.11 1520.52 Z" fill="#000000" fill-rule="nonzero" fill-opacity="1" /><path clip-path="url(#clip410)" d="M1238.87 1522.27 L1238.87 1532.4 L1250.94 1532.4 L1250.94 1536.95 L1238.87 1536.95 L1238.87 1556.3 Q1238.87 1560.66 1240.05 1561.9 Q1241.26 1563.14 1244.92 1563.14 L1250.94 1563.14 L1250.94 1568.04 L1244.92 1568.04 Q1238.14 1568.04 1235.56 1565.53 Q1232.99 1562.98 1232.99 1556.3 L1232.99 1536.95 L1228.69 1536.95 L1228.69 1532.4 L1232.99 1532.4 L1232.99 1522.27 L1238.87 1522.27 Z" fill="#000000" fill-rule="nonzero" fill-opacity="1" /><path clip-path="url(#clip410)" d="M1289.13 1548.76 L1289.13 1551.62 L1262.21 1551.62 Q1262.59 1557.67 1265.83 1560.85 Q1269.11 1564 1274.94 1564 Q1278.31 1564 1281.46 1563.17 Q1284.64 1562.35 1287.76 1560.69 L1287.76 1566.23 Q1284.61 1567.57 1281.3 1568.27 Q1277.99 1568.97 1274.59 1568.97 Q1266.06 1568.97 1261.06 1564 Q1256.09 1559.04 1256.09 1550.57 Q1256.09 1541.82 1260.8 1536.69 Q1265.55 1531.54 1273.57 1531.54 Q1280.76 1531.54 1284.93 1536.18 Q1289.13 1540.8 1289.13 1548.76 M1283.28 1547.04 Q1283.21 1542.23 1280.57 1539.37 Q1277.96 1536.5 1273.63 1536.5 Q1268.73 1536.5 1265.77 1539.27 Q1262.84 1542.04 1262.4 1547.07 L1283.28 1547.04 Z" fill="#000000" fill-rule="nonzero" fill-opacity="1" /><path clip-path="url(#clip410)" d="M1319.4 1537.87 Q1318.41 1537.3 1317.24 1537.04 Q1316.09 1536.76 1314.69 1536.76 Q1309.73 1536.76 1307.05 1540 Q1304.41 1543.22 1304.41 1549.27 L1304.41 1568.04 L1298.52 1568.04 L1298.52 1532.4 L1304.41 1532.4 L1304.41 1537.93 Q1306.26 1534.69 1309.22 1533.13 Q1312.18 1531.54 1316.41 1531.54 Q1317.01 1531.54 1317.75 1531.63 Q1318.48 1531.7 1319.37 1531.85 L1319.4 1537.87 Z" fill="#000000" fill-rule="nonzero" fill-opacity="1" /><path clip-path="url(#clip410)" d="M1341.74 1550.12 Q1334.65 1550.12 1331.91 1551.75 Q1329.17 1553.37 1329.17 1557.29 Q1329.17 1560.4 1331.21 1562.25 Q1333.28 1564.07 1336.81 1564.07 Q1341.68 1564.07 1344.61 1560.63 Q1347.57 1557.16 1347.57 1551.43 L1347.57 1550.12 L1341.74 1550.12 M1353.43 1547.71 L1353.43 1568.04 L1347.57 1568.04 L1347.57 1562.63 Q1345.56 1565.88 1342.57 1567.44 Q1339.58 1568.97 1335.25 1568.97 Q1329.78 1568.97 1326.53 1565.91 Q1323.32 1562.82 1323.32 1557.67 Q1323.32 1551.65 1327.33 1548.6 Q1331.37 1545.54 1339.36 1545.54 L1347.57 1545.54 L1347.57 1544.97 Q1347.57 1540.93 1344.9 1538.73 Q1342.25 1536.5 1337.45 1536.5 Q1334.39 1536.5 1331.5 1537.23 Q1328.6 1537.97 1325.93 1539.43 L1325.93 1534.02 Q1329.14 1532.78 1332.16 1532.17 Q1335.19 1531.54 1338.05 1531.54 Q1345.79 1531.54 1349.61 1535.55 Q1353.43 1539.56 1353.43 1547.71 Z" fill="#000000" fill-rule="nonzero" fill-opacity="1" /><path clip-path="url(#clip410)" d="M1371.28 1522.27 L1371.28 1532.4 L1383.34 1532.4 L1383.34 1536.95 L1371.28 1536.95 L1371.28 1556.3 Q1371.28 1560.66 1372.46 1561.9 Q1373.67 1563.14 1377.33 1563.14 L1383.34 1563.14 L1383.34 1568.04 L1377.33 1568.04 Q1370.55 1568.04 1367.97 1565.53 Q1365.39 1562.98 1365.39 1556.3 L1365.39 1536.95 L1361.1 1536.95 L1361.1 1532.4 L1365.39 1532.4 L1365.39 1522.27 L1371.28 1522.27 Z" fill="#000000" fill-rule="nonzero" fill-opacity="1" /><path clip-path="url(#clip410)" d="M1391.05 1532.4 L1396.9 1532.4 L1396.9 1568.04 L1391.05 1568.04 L1391.05 1532.4 M1391.05 1518.52 L1396.9 1518.52 L1396.9 1525.93 L1391.05 1525.93 L1391.05 1518.52 Z" fill="#000000" fill-rule="nonzero" fill-opacity="1" /><path clip-path="url(#clip410)" d="M1422.97 1536.5 Q1418.26 1536.5 1415.52 1540.19 Q1412.79 1543.85 1412.79 1550.25 Q1412.79 1556.65 1415.49 1560.34 Q1418.23 1564 1422.97 1564 Q1427.65 1564 1430.39 1560.31 Q1433.12 1556.62 1433.12 1550.25 Q1433.12 1543.92 1430.39 1540.23 Q1427.65 1536.5 1422.97 1536.5 M1422.97 1531.54 Q1430.61 1531.54 1434.97 1536.5 Q1439.33 1541.47 1439.33 1550.25 Q1439.33 1559 1434.97 1564 Q1430.61 1568.97 1422.97 1568.97 Q1415.3 1568.97 1410.94 1564 Q1406.61 1559 1406.61 1550.25 Q1406.61 1541.47 1410.94 1536.5 Q1415.3 1531.54 1422.97 1531.54 Z" fill="#000000" fill-rule="nonzero" fill-opacity="1" /><path clip-path="url(#clip410)" d="M1478.67 1546.53 L1478.67 1568.04 L1472.81 1568.04 L1472.81 1546.72 Q1472.81 1541.66 1470.84 1539.14 Q1468.87 1536.63 1464.92 1536.63 Q1460.18 1536.63 1457.44 1539.65 Q1454.7 1542.68 1454.7 1547.9 L1454.7 1568.04 L1448.82 1568.04 L1448.82 1532.4 L1454.7 1532.4 L1454.7 1537.93 Q1456.8 1534.72 1459.64 1533.13 Q1462.5 1531.54 1466.23 1531.54 Q1472.37 1531.54 1475.52 1535.36 Q1478.67 1539.14 1478.67 1546.53 Z" fill="#000000" fill-rule="nonzero" fill-opacity="1" /><polyline clip-path="url(#clip410)" style="stroke:#000000; stroke-linecap:round; stroke-linejoin:round; stroke-width:4; stroke-opacity:1; fill:none" points="340.028,1423.18 340.028,123.472 "/>
<polyline clip-path="url(#clip410)" style="stroke:#000000; stroke-linecap:round; stroke-linejoin:round; stroke-width:4; stroke-opacity:1; fill:none" points="340.028,1227.76 358.925,1227.76 "/>
<polyline clip-path="url(#clip410)" style="stroke:#000000; stroke-linecap:round; stroke-linejoin:round; stroke-width:4; stroke-opacity:1; fill:none" points="340.028,1001.78 358.925,1001.78 "/>
<polyline clip-path="url(#clip410)" style="stroke:#000000; stroke-linecap:round; stroke-linejoin:round; stroke-width:4; stroke-opacity:1; fill:none" points="340.028,775.792 358.925,775.792 "/>
<polyline clip-path="url(#clip410)" style="stroke:#000000; stroke-linecap:round; stroke-linejoin:round; stroke-width:4; stroke-opacity:1; fill:none" points="340.028,549.805 358.925,549.805 "/>
<polyline clip-path="url(#clip410)" style="stroke:#000000; stroke-linecap:round; stroke-linejoin:round; stroke-width:4; stroke-opacity:1; fill:none" points="340.028,323.819 358.925,323.819 "/>
<path clip-path="url(#clip410)" d="M126.205 1213.56 Q122.593 1213.56 120.765 1217.13 Q118.959 1220.67 118.959 1227.8 Q118.959 1234.91 120.765 1238.47 Q122.593 1242.01 126.205 1242.01 Q129.839 1242.01 131.644 1238.47 Q133.473 1234.91 133.473 1227.8 Q133.473 1220.67 131.644 1217.13 Q129.839 1213.56 126.205 1213.56 M126.205 1209.86 Q132.015 1209.86 135.07 1214.47 Q138.149 1219.05 138.149 1227.8 Q138.149 1236.53 135.07 1241.13 Q132.015 1245.72 126.205 1245.72 Q120.394 1245.72 117.316 1241.13 Q114.26 1236.53 114.26 1227.8 Q114.26 1219.05 117.316 1214.47 Q120.394 1209.86 126.205 1209.86 Z" fill="#000000" fill-rule="nonzero" fill-opacity="1" /><path clip-path="url(#clip410)" d="M146.366 1239.16 L151.251 1239.16 L151.251 1245.04 L146.366 1245.04 L146.366 1239.16 Z" fill="#000000" fill-rule="nonzero" fill-opacity="1" /><path clip-path="url(#clip410)" d="M171.436 1213.56 Q167.825 1213.56 165.996 1217.13 Q164.19 1220.67 164.19 1227.8 Q164.19 1234.91 165.996 1238.47 Q167.825 1242.01 171.436 1242.01 Q175.07 1242.01 176.876 1238.47 Q178.704 1234.91 178.704 1227.8 Q178.704 1220.67 176.876 1217.13 Q175.07 1213.56 171.436 1213.56 M171.436 1209.86 Q177.246 1209.86 180.301 1214.47 Q183.38 1219.05 183.38 1227.8 Q183.38 1236.53 180.301 1241.13 Q177.246 1245.72 171.436 1245.72 Q165.626 1245.72 162.547 1241.13 Q159.491 1236.53 159.491 1227.8 Q159.491 1219.05 162.547 1214.47 Q165.626 1209.86 171.436 1209.86 Z" fill="#000000" fill-rule="nonzero" fill-opacity="1" /><path clip-path="url(#clip410)" d="M201.598 1213.56 Q197.987 1213.56 196.158 1217.13 Q194.352 1220.67 194.352 1227.8 Q194.352 1234.91 196.158 1238.47 Q197.987 1242.01 201.598 1242.01 Q205.232 1242.01 207.037 1238.47 Q208.866 1234.91 208.866 1227.8 Q208.866 1220.67 207.037 1217.13 Q205.232 1213.56 201.598 1213.56 M201.598 1209.86 Q207.408 1209.86 210.463 1214.47 Q213.542 1219.05 213.542 1227.8 Q213.542 1236.53 210.463 1241.13 Q207.408 1245.72 201.598 1245.72 Q195.787 1245.72 192.709 1241.13 Q189.653 1236.53 189.653 1227.8 Q189.653 1219.05 192.709 1214.47 Q195.787 1209.86 201.598 1209.86 Z" fill="#000000" fill-rule="nonzero" fill-opacity="1" /><path clip-path="url(#clip410)" d="M231.76 1228.63 Q228.426 1228.63 226.505 1230.41 Q224.607 1232.2 224.607 1235.32 Q224.607 1238.45 226.505 1240.23 Q228.426 1242.01 231.76 1242.01 Q235.093 1242.01 237.014 1240.23 Q238.935 1238.42 238.935 1235.32 Q238.935 1232.2 237.014 1230.41 Q235.116 1228.63 231.76 1228.63 M227.084 1226.64 Q224.074 1225.9 222.385 1223.84 Q220.718 1221.78 220.718 1218.82 Q220.718 1214.67 223.658 1212.27 Q226.621 1209.86 231.76 1209.86 Q236.922 1209.86 239.861 1212.27 Q242.801 1214.67 242.801 1218.82 Q242.801 1221.78 241.111 1223.84 Q239.445 1225.9 236.459 1226.64 Q239.838 1227.43 241.713 1229.72 Q243.611 1232.01 243.611 1235.32 Q243.611 1240.35 240.533 1243.03 Q237.477 1245.72 231.76 1245.72 Q226.042 1245.72 222.963 1243.03 Q219.908 1240.35 219.908 1235.32 Q219.908 1232.01 221.806 1229.72 Q223.704 1227.43 227.084 1226.64 M225.371 1219.26 Q225.371 1221.94 227.037 1223.45 Q228.727 1224.95 231.76 1224.95 Q234.769 1224.95 236.459 1223.45 Q238.172 1221.94 238.172 1219.26 Q238.172 1216.57 236.459 1215.07 Q234.769 1213.56 231.76 1213.56 Q228.727 1213.56 227.037 1215.07 Q225.371 1216.57 225.371 1219.26 Z" fill="#000000" fill-rule="nonzero" fill-opacity="1" /><path clip-path="url(#clip410)" d="M251.968 1210.48 L270.324 1210.48 L270.324 1214.42 L256.25 1214.42 L256.25 1222.89 Q257.269 1222.54 258.287 1222.38 Q259.306 1222.2 260.324 1222.2 Q266.111 1222.2 269.491 1225.37 Q272.87 1228.54 272.87 1233.96 Q272.87 1239.53 269.398 1242.64 Q265.926 1245.72 259.607 1245.72 Q257.431 1245.72 255.162 1245.35 Q252.917 1244.97 250.509 1244.23 L250.509 1239.53 Q252.593 1240.67 254.815 1241.22 Q257.037 1241.78 259.514 1241.78 Q263.519 1241.78 265.857 1239.67 Q268.195 1237.57 268.195 1233.96 Q268.195 1230.35 265.857 1228.24 Q263.519 1226.13 259.514 1226.13 Q257.639 1226.13 255.764 1226.55 Q253.912 1226.97 251.968 1227.85 L251.968 1210.48 Z" fill="#000000" fill-rule="nonzero" fill-opacity="1" /><path clip-path="url(#clip410)" d="M292.083 1213.56 Q288.472 1213.56 286.643 1217.13 Q284.838 1220.67 284.838 1227.8 Q284.838 1234.91 286.643 1238.47 Q288.472 1242.01 292.083 1242.01 Q295.718 1242.01 297.523 1238.47 Q299.352 1234.91 299.352 1227.8 Q299.352 1220.67 297.523 1217.13 Q295.718 1213.56 292.083 1213.56 M292.083 1209.86 Q297.893 1209.86 300.949 1214.47 Q304.028 1219.05 304.028 1227.8 Q304.028 1236.53 300.949 1241.13 Q297.893 1245.72 292.083 1245.72 Q286.273 1245.72 283.194 1241.13 Q280.139 1236.53 280.139 1227.8 Q280.139 1219.05 283.194 1214.47 Q286.273 1209.86 292.083 1209.86 Z" fill="#000000" fill-rule="nonzero" fill-opacity="1" /><path clip-path="url(#clip410)" d="M127.2 987.577 Q123.589 987.577 121.76 991.141 Q119.955 994.683 119.955 1001.81 Q119.955 1008.92 121.76 1012.48 Q123.589 1016.03 127.2 1016.03 Q130.834 1016.03 132.64 1012.48 Q134.468 1008.92 134.468 1001.81 Q134.468 994.683 132.64 991.141 Q130.834 987.577 127.2 987.577 M127.2 983.873 Q133.01 983.873 136.066 988.479 Q139.144 993.063 139.144 1001.81 Q139.144 1010.54 136.066 1015.15 Q133.01 1019.73 127.2 1019.73 Q121.39 1019.73 118.311 1015.15 Q115.256 1010.54 115.256 1001.81 Q115.256 993.063 118.311 988.479 Q121.39 983.873 127.2 983.873 Z" fill="#000000" fill-rule="nonzero" fill-opacity="1" /><path clip-path="url(#clip410)" d="M147.362 1013.18 L152.246 1013.18 L152.246 1019.06 L147.362 1019.06 L147.362 1013.18 Z" fill="#000000" fill-rule="nonzero" fill-opacity="1" /><path clip-path="url(#clip410)" d="M172.431 987.577 Q168.82 987.577 166.991 991.141 Q165.186 994.683 165.186 1001.81 Q165.186 1008.92 166.991 1012.48 Q168.82 1016.03 172.431 1016.03 Q176.065 1016.03 177.871 1012.48 Q179.7 1008.92 179.7 1001.81 Q179.7 994.683 177.871 991.141 Q176.065 987.577 172.431 987.577 M172.431 983.873 Q178.241 983.873 181.297 988.479 Q184.376 993.063 184.376 1001.81 Q184.376 1010.54 181.297 1015.15 Q178.241 1019.73 172.431 1019.73 Q166.621 1019.73 163.542 1015.15 Q160.487 1010.54 160.487 1001.81 Q160.487 993.063 163.542 988.479 Q166.621 983.873 172.431 983.873 Z" fill="#000000" fill-rule="nonzero" fill-opacity="1" /><path clip-path="url(#clip410)" d="M202.593 987.577 Q198.982 987.577 197.153 991.141 Q195.348 994.683 195.348 1001.81 Q195.348 1008.92 197.153 1012.48 Q198.982 1016.03 202.593 1016.03 Q206.227 1016.03 208.033 1012.48 Q209.861 1008.92 209.861 1001.81 Q209.861 994.683 208.033 991.141 Q206.227 987.577 202.593 987.577 M202.593 983.873 Q208.403 983.873 211.459 988.479 Q214.537 993.063 214.537 1001.81 Q214.537 1010.54 211.459 1015.15 Q208.403 1019.73 202.593 1019.73 Q196.783 1019.73 193.704 1015.15 Q190.649 1010.54 190.649 1001.81 Q190.649 993.063 193.704 988.479 Q196.783 983.873 202.593 983.873 Z" fill="#000000" fill-rule="nonzero" fill-opacity="1" /><path clip-path="url(#clip410)" d="M232.755 1002.65 Q229.422 1002.65 227.5 1004.43 Q225.602 1006.21 225.602 1009.34 Q225.602 1012.46 227.5 1014.24 Q229.422 1016.03 232.755 1016.03 Q236.088 1016.03 238.009 1014.24 Q239.931 1012.44 239.931 1009.34 Q239.931 1006.21 238.009 1004.43 Q236.111 1002.65 232.755 1002.65 M228.079 1000.66 Q225.07 999.915 223.38 997.854 Q221.713 995.794 221.713 992.831 Q221.713 988.688 224.653 986.28 Q227.616 983.873 232.755 983.873 Q237.917 983.873 240.857 986.28 Q243.797 988.688 243.797 992.831 Q243.797 995.794 242.107 997.854 Q240.44 999.915 237.454 1000.66 Q240.834 1001.44 242.709 1003.73 Q244.607 1006.03 244.607 1009.34 Q244.607 1014.36 241.528 1017.04 Q238.472 1019.73 232.755 1019.73 Q227.037 1019.73 223.959 1017.04 Q220.903 1014.36 220.903 1009.34 Q220.903 1006.03 222.801 1003.73 Q224.699 1001.44 228.079 1000.66 M226.366 993.271 Q226.366 995.956 228.033 997.461 Q229.723 998.965 232.755 998.965 Q235.764 998.965 237.454 997.461 Q239.167 995.956 239.167 993.271 Q239.167 990.586 237.454 989.081 Q235.764 987.577 232.755 987.577 Q229.723 987.577 228.033 989.081 Q226.366 990.586 226.366 993.271 Z" fill="#000000" fill-rule="nonzero" fill-opacity="1" /><path clip-path="url(#clip410)" d="M251.736 984.498 L273.958 984.498 L273.958 986.489 L261.412 1019.06 L256.528 1019.06 L268.333 988.433 L251.736 988.433 L251.736 984.498 Z" fill="#000000" fill-rule="nonzero" fill-opacity="1" /><path clip-path="url(#clip410)" d="M283.125 984.498 L301.481 984.498 L301.481 988.433 L287.407 988.433 L287.407 996.905 Q288.426 996.558 289.444 996.396 Q290.463 996.211 291.481 996.211 Q297.268 996.211 300.648 999.382 Q304.028 1002.55 304.028 1007.97 Q304.028 1013.55 300.555 1016.65 Q297.083 1019.73 290.764 1019.73 Q288.588 1019.73 286.319 1019.36 Q284.074 1018.99 281.667 1018.25 L281.667 1013.55 Q283.75 1014.68 285.972 1015.24 Q288.194 1015.79 290.671 1015.79 Q294.676 1015.79 297.014 1013.69 Q299.352 1011.58 299.352 1007.97 Q299.352 1004.36 297.014 1002.25 Q294.676 1000.15 290.671 1000.15 Q288.796 1000.15 286.921 1000.56 Q285.069 1000.98 283.125 1001.86 L283.125 984.498 Z" fill="#000000" fill-rule="nonzero" fill-opacity="1" /><path clip-path="url(#clip410)" d="M126.205 761.59 Q122.593 761.59 120.765 765.155 Q118.959 768.697 118.959 775.826 Q118.959 782.933 120.765 786.498 Q122.593 790.039 126.205 790.039 Q129.839 790.039 131.644 786.498 Q133.473 782.933 133.473 775.826 Q133.473 768.697 131.644 765.155 Q129.839 761.59 126.205 761.59 M126.205 757.887 Q132.015 757.887 135.07 762.493 Q138.149 767.076 138.149 775.826 Q138.149 784.553 135.07 789.16 Q132.015 793.743 126.205 793.743 Q120.394 793.743 117.316 789.16 Q114.26 784.553 114.26 775.826 Q114.26 767.076 117.316 762.493 Q120.394 757.887 126.205 757.887 Z" fill="#000000" fill-rule="nonzero" fill-opacity="1" /><path clip-path="url(#clip410)" d="M146.366 787.192 L151.251 787.192 L151.251 793.072 L146.366 793.072 L146.366 787.192 Z" fill="#000000" fill-rule="nonzero" fill-opacity="1" /><path clip-path="url(#clip410)" d="M171.436 761.59 Q167.825 761.59 165.996 765.155 Q164.19 768.697 164.19 775.826 Q164.19 782.933 165.996 786.498 Q167.825 790.039 171.436 790.039 Q175.07 790.039 176.876 786.498 Q178.704 782.933 178.704 775.826 Q178.704 768.697 176.876 765.155 Q175.07 761.59 171.436 761.59 M171.436 757.887 Q177.246 757.887 180.301 762.493 Q183.38 767.076 183.38 775.826 Q183.38 784.553 180.301 789.16 Q177.246 793.743 171.436 793.743 Q165.626 793.743 162.547 789.16 Q159.491 784.553 159.491 775.826 Q159.491 767.076 162.547 762.493 Q165.626 757.887 171.436 757.887 Z" fill="#000000" fill-rule="nonzero" fill-opacity="1" /><path clip-path="url(#clip410)" d="M201.598 761.59 Q197.987 761.59 196.158 765.155 Q194.352 768.697 194.352 775.826 Q194.352 782.933 196.158 786.498 Q197.987 790.039 201.598 790.039 Q205.232 790.039 207.037 786.498 Q208.866 782.933 208.866 775.826 Q208.866 768.697 207.037 765.155 Q205.232 761.59 201.598 761.59 M201.598 757.887 Q207.408 757.887 210.463 762.493 Q213.542 767.076 213.542 775.826 Q213.542 784.553 210.463 789.16 Q207.408 793.743 201.598 793.743 Q195.787 793.743 192.709 789.16 Q189.653 784.553 189.653 775.826 Q189.653 767.076 192.709 762.493 Q195.787 757.887 201.598 757.887 Z" fill="#000000" fill-rule="nonzero" fill-opacity="1" /><path clip-path="url(#clip410)" d="M221.898 792.354 L221.898 788.095 Q223.658 788.928 225.463 789.368 Q227.269 789.808 229.005 789.808 Q233.635 789.808 236.065 786.706 Q238.519 783.581 238.866 777.238 Q237.523 779.229 235.463 780.294 Q233.403 781.359 230.903 781.359 Q225.718 781.359 222.686 778.234 Q219.676 775.086 219.676 769.646 Q219.676 764.322 222.824 761.104 Q225.973 757.887 231.204 757.887 Q237.199 757.887 240.347 762.493 Q243.519 767.076 243.519 775.826 Q243.519 783.998 239.63 788.882 Q235.764 793.743 229.213 793.743 Q227.454 793.743 225.648 793.396 Q223.843 793.049 221.898 792.354 M231.204 777.701 Q234.352 777.701 236.181 775.549 Q238.033 773.396 238.033 769.646 Q238.033 765.919 236.181 763.766 Q234.352 761.59 231.204 761.59 Q228.056 761.59 226.204 763.766 Q224.375 765.919 224.375 769.646 Q224.375 773.396 226.204 775.549 Q228.056 777.701 231.204 777.701 Z" fill="#000000" fill-rule="nonzero" fill-opacity="1" /><path clip-path="url(#clip410)" d="M261.921 761.59 Q258.31 761.59 256.482 765.155 Q254.676 768.697 254.676 775.826 Q254.676 782.933 256.482 786.498 Q258.31 790.039 261.921 790.039 Q265.556 790.039 267.361 786.498 Q269.19 782.933 269.19 775.826 Q269.19 768.697 267.361 765.155 Q265.556 761.59 261.921 761.59 M261.921 757.887 Q267.732 757.887 270.787 762.493 Q273.866 767.076 273.866 775.826 Q273.866 784.553 270.787 789.16 Q267.732 793.743 261.921 793.743 Q256.111 793.743 253.033 789.16 Q249.977 784.553 249.977 775.826 Q249.977 767.076 253.033 762.493 Q256.111 757.887 261.921 757.887 Z" fill="#000000" fill-rule="nonzero" fill-opacity="1" /><path clip-path="url(#clip410)" d="M292.083 761.59 Q288.472 761.59 286.643 765.155 Q284.838 768.697 284.838 775.826 Q284.838 782.933 286.643 786.498 Q288.472 790.039 292.083 790.039 Q295.718 790.039 297.523 786.498 Q299.352 782.933 299.352 775.826 Q299.352 768.697 297.523 765.155 Q295.718 761.59 292.083 761.59 M292.083 757.887 Q297.893 757.887 300.949 762.493 Q304.028 767.076 304.028 775.826 Q304.028 784.553 300.949 789.16 Q297.893 793.743 292.083 793.743 Q286.273 793.743 283.194 789.16 Q280.139 784.553 280.139 775.826 Q280.139 767.076 283.194 762.493 Q286.273 757.887 292.083 757.887 Z" fill="#000000" fill-rule="nonzero" fill-opacity="1" /><path clip-path="url(#clip410)" d="M127.2 535.604 Q123.589 535.604 121.76 539.169 Q119.955 542.711 119.955 549.84 Q119.955 556.947 121.76 560.511 Q123.589 564.053 127.2 564.053 Q130.834 564.053 132.64 560.511 Q134.468 556.947 134.468 549.84 Q134.468 542.711 132.64 539.169 Q130.834 535.604 127.2 535.604 M127.2 531.9 Q133.01 531.9 136.066 536.507 Q139.144 541.09 139.144 549.84 Q139.144 558.567 136.066 563.173 Q133.01 567.757 127.2 567.757 Q121.39 567.757 118.311 563.173 Q115.256 558.567 115.256 549.84 Q115.256 541.09 118.311 536.507 Q121.39 531.9 127.2 531.9 Z" fill="#000000" fill-rule="nonzero" fill-opacity="1" /><path clip-path="url(#clip410)" d="M147.362 561.206 L152.246 561.206 L152.246 567.085 L147.362 567.085 L147.362 561.206 Z" fill="#000000" fill-rule="nonzero" fill-opacity="1" /><path clip-path="url(#clip410)" d="M172.431 535.604 Q168.82 535.604 166.991 539.169 Q165.186 542.711 165.186 549.84 Q165.186 556.947 166.991 560.511 Q168.82 564.053 172.431 564.053 Q176.065 564.053 177.871 560.511 Q179.7 556.947 179.7 549.84 Q179.7 542.711 177.871 539.169 Q176.065 535.604 172.431 535.604 M172.431 531.9 Q178.241 531.9 181.297 536.507 Q184.376 541.09 184.376 549.84 Q184.376 558.567 181.297 563.173 Q178.241 567.757 172.431 567.757 Q166.621 567.757 163.542 563.173 Q160.487 558.567 160.487 549.84 Q160.487 541.09 163.542 536.507 Q166.621 531.9 172.431 531.9 Z" fill="#000000" fill-rule="nonzero" fill-opacity="1" /><path clip-path="url(#clip410)" d="M202.593 535.604 Q198.982 535.604 197.153 539.169 Q195.348 542.711 195.348 549.84 Q195.348 556.947 197.153 560.511 Q198.982 564.053 202.593 564.053 Q206.227 564.053 208.033 560.511 Q209.861 556.947 209.861 549.84 Q209.861 542.711 208.033 539.169 Q206.227 535.604 202.593 535.604 M202.593 531.9 Q208.403 531.9 211.459 536.507 Q214.537 541.09 214.537 549.84 Q214.537 558.567 211.459 563.173 Q208.403 567.757 202.593 567.757 Q196.783 567.757 193.704 563.173 Q190.649 558.567 190.649 549.84 Q190.649 541.09 193.704 536.507 Q196.783 531.9 202.593 531.9 Z" fill="#000000" fill-rule="nonzero" fill-opacity="1" /><path clip-path="url(#clip410)" d="M222.894 566.368 L222.894 562.109 Q224.653 562.942 226.459 563.382 Q228.264 563.822 230 563.822 Q234.63 563.822 237.06 560.72 Q239.514 557.595 239.861 551.252 Q238.519 553.243 236.459 554.308 Q234.398 555.373 231.898 555.373 Q226.713 555.373 223.681 552.248 Q220.672 549.099 220.672 543.66 Q220.672 538.336 223.82 535.118 Q226.968 531.9 232.199 531.9 Q238.195 531.9 241.343 536.507 Q244.514 541.09 244.514 549.84 Q244.514 558.011 240.625 562.896 Q236.76 567.757 230.209 567.757 Q228.449 567.757 226.644 567.41 Q224.838 567.062 222.894 566.368 M232.199 551.715 Q235.347 551.715 237.176 549.562 Q239.028 547.41 239.028 543.66 Q239.028 539.933 237.176 537.78 Q235.347 535.604 232.199 535.604 Q229.051 535.604 227.199 537.78 Q225.371 539.933 225.371 543.66 Q225.371 547.41 227.199 549.562 Q229.051 551.715 232.199 551.715 Z" fill="#000000" fill-rule="nonzero" fill-opacity="1" /><path clip-path="url(#clip410)" d="M256.945 563.15 L273.264 563.15 L273.264 567.085 L251.32 567.085 L251.32 563.15 Q253.982 560.396 258.565 555.766 Q263.171 551.113 264.352 549.771 Q266.597 547.248 267.477 545.512 Q268.38 543.752 268.38 542.062 Q268.38 539.308 266.435 537.572 Q264.514 535.836 261.412 535.836 Q259.213 535.836 256.759 536.6 Q254.329 537.363 251.551 538.914 L251.551 534.192 Q254.375 533.058 256.829 532.479 Q259.283 531.9 261.32 531.9 Q266.69 531.9 269.884 534.586 Q273.079 537.271 273.079 541.762 Q273.079 543.891 272.269 545.812 Q271.482 547.711 269.375 550.303 Q268.796 550.974 265.695 554.192 Q262.593 557.386 256.945 563.15 Z" fill="#000000" fill-rule="nonzero" fill-opacity="1" /><path clip-path="url(#clip410)" d="M283.125 532.525 L301.481 532.525 L301.481 536.461 L287.407 536.461 L287.407 544.933 Q288.426 544.586 289.444 544.424 Q290.463 544.238 291.481 544.238 Q297.268 544.238 300.648 547.41 Q304.028 550.581 304.028 555.998 Q304.028 561.576 300.555 564.678 Q297.083 567.757 290.764 567.757 Q288.588 567.757 286.319 567.386 Q284.074 567.016 281.667 566.275 L281.667 561.576 Q283.75 562.711 285.972 563.266 Q288.194 563.822 290.671 563.822 Q294.676 563.822 297.014 561.715 Q299.352 559.609 299.352 555.998 Q299.352 552.386 297.014 550.28 Q294.676 548.174 290.671 548.174 Q288.796 548.174 286.921 548.59 Q285.069 549.007 283.125 549.887 L283.125 532.525 Z" fill="#000000" fill-rule="nonzero" fill-opacity="1" /><path clip-path="url(#clip410)" d="M126.205 309.618 Q122.593 309.618 120.765 313.183 Q118.959 316.724 118.959 323.854 Q118.959 330.96 120.765 334.525 Q122.593 338.067 126.205 338.067 Q129.839 338.067 131.644 334.525 Q133.473 330.96 133.473 323.854 Q133.473 316.724 131.644 313.183 Q129.839 309.618 126.205 309.618 M126.205 305.914 Q132.015 305.914 135.07 310.521 Q138.149 315.104 138.149 323.854 Q138.149 332.581 135.07 337.187 Q132.015 341.771 126.205 341.771 Q120.394 341.771 117.316 337.187 Q114.26 332.581 114.26 323.854 Q114.26 315.104 117.316 310.521 Q120.394 305.914 126.205 305.914 Z" fill="#000000" fill-rule="nonzero" fill-opacity="1" /><path clip-path="url(#clip410)" d="M146.366 335.22 L151.251 335.22 L151.251 341.099 L146.366 341.099 L146.366 335.22 Z" fill="#000000" fill-rule="nonzero" fill-opacity="1" /><path clip-path="url(#clip410)" d="M171.436 309.618 Q167.825 309.618 165.996 313.183 Q164.19 316.724 164.19 323.854 Q164.19 330.96 165.996 334.525 Q167.825 338.067 171.436 338.067 Q175.07 338.067 176.876 334.525 Q178.704 330.96 178.704 323.854 Q178.704 316.724 176.876 313.183 Q175.07 309.618 171.436 309.618 M171.436 305.914 Q177.246 305.914 180.301 310.521 Q183.38 315.104 183.38 323.854 Q183.38 332.581 180.301 337.187 Q177.246 341.771 171.436 341.771 Q165.626 341.771 162.547 337.187 Q159.491 332.581 159.491 323.854 Q159.491 315.104 162.547 310.521 Q165.626 305.914 171.436 305.914 Z" fill="#000000" fill-rule="nonzero" fill-opacity="1" /><path clip-path="url(#clip410)" d="M201.598 309.618 Q197.987 309.618 196.158 313.183 Q194.352 316.724 194.352 323.854 Q194.352 330.96 196.158 334.525 Q197.987 338.067 201.598 338.067 Q205.232 338.067 207.037 334.525 Q208.866 330.96 208.866 323.854 Q208.866 316.724 207.037 313.183 Q205.232 309.618 201.598 309.618 M201.598 305.914 Q207.408 305.914 210.463 310.521 Q213.542 315.104 213.542 323.854 Q213.542 332.581 210.463 337.187 Q207.408 341.771 201.598 341.771 Q195.787 341.771 192.709 337.187 Q189.653 332.581 189.653 323.854 Q189.653 315.104 192.709 310.521 Q195.787 305.914 201.598 305.914 Z" fill="#000000" fill-rule="nonzero" fill-opacity="1" /><path clip-path="url(#clip410)" d="M221.898 340.382 L221.898 336.122 Q223.658 336.956 225.463 337.396 Q227.269 337.835 229.005 337.835 Q233.635 337.835 236.065 334.734 Q238.519 331.609 238.866 325.266 Q237.523 327.257 235.463 328.322 Q233.403 329.386 230.903 329.386 Q225.718 329.386 222.686 326.261 Q219.676 323.113 219.676 317.673 Q219.676 312.349 222.824 309.132 Q225.973 305.914 231.204 305.914 Q237.199 305.914 240.347 310.521 Q243.519 315.104 243.519 323.854 Q243.519 332.025 239.63 336.909 Q235.764 341.771 229.213 341.771 Q227.454 341.771 225.648 341.423 Q223.843 341.076 221.898 340.382 M231.204 325.729 Q234.352 325.729 236.181 323.576 Q238.033 321.423 238.033 317.673 Q238.033 313.947 236.181 311.794 Q234.352 309.618 231.204 309.618 Q228.056 309.618 226.204 311.794 Q224.375 313.947 224.375 317.673 Q224.375 321.423 226.204 323.576 Q228.056 325.729 231.204 325.729 Z" fill="#000000" fill-rule="nonzero" fill-opacity="1" /><path clip-path="url(#clip410)" d="M251.968 306.539 L270.324 306.539 L270.324 310.474 L256.25 310.474 L256.25 318.947 Q257.269 318.599 258.287 318.437 Q259.306 318.252 260.324 318.252 Q266.111 318.252 269.491 321.423 Q272.87 324.595 272.87 330.011 Q272.87 335.59 269.398 338.692 Q265.926 341.771 259.607 341.771 Q257.431 341.771 255.162 341.4 Q252.917 341.03 250.509 340.289 L250.509 335.59 Q252.593 336.724 254.815 337.28 Q257.037 337.835 259.514 337.835 Q263.519 337.835 265.857 335.729 Q268.195 333.622 268.195 330.011 Q268.195 326.4 265.857 324.294 Q263.519 322.187 259.514 322.187 Q257.639 322.187 255.764 322.604 Q253.912 323.021 251.968 323.9 L251.968 306.539 Z" fill="#000000" fill-rule="nonzero" fill-opacity="1" /><path clip-path="url(#clip410)" d="M292.083 309.618 Q288.472 309.618 286.643 313.183 Q284.838 316.724 284.838 323.854 Q284.838 330.96 286.643 334.525 Q288.472 338.067 292.083 338.067 Q295.718 338.067 297.523 334.525 Q299.352 330.96 299.352 323.854 Q299.352 316.724 297.523 313.183 Q295.718 309.618 292.083 309.618 M292.083 305.914 Q297.893 305.914 300.949 310.521 Q304.028 315.104 304.028 323.854 Q304.028 332.581 300.949 337.187 Q297.893 341.771 292.083 341.771 Q286.273 341.771 283.194 337.187 Q280.139 332.581 280.139 323.854 Q280.139 315.104 283.194 310.521 Q286.273 305.914 292.083 305.914 Z" fill="#000000" fill-rule="nonzero" fill-opacity="1" /><path clip-path="url(#clip410)" d="M33.7671 788.508 L14.479 788.508 L14.479 782.652 L64.0042 782.652 L64.0042 788.508 L58.657 788.508 Q61.8398 790.354 63.3994 793.187 Q64.9272 795.988 64.9272 799.935 Q64.9272 806.396 59.771 810.47 Q54.6147 814.512 46.212 814.512 Q37.8093 814.512 32.6531 810.47 Q27.4968 806.396 27.4968 799.935 Q27.4968 795.988 29.0564 793.187 Q30.5842 790.354 33.7671 788.508 M46.212 808.465 Q52.6732 808.465 56.3653 805.823 Q60.0256 803.149 60.0256 798.502 Q60.0256 793.855 56.3653 791.182 Q52.6732 788.508 46.212 788.508 Q39.7508 788.508 36.0905 791.182 Q32.3984 793.855 32.3984 798.502 Q32.3984 803.149 36.0905 805.823 Q39.7508 808.465 46.212 808.465 Z" fill="#000000" fill-rule="nonzero" fill-opacity="1" /><path clip-path="url(#clip410)" d="M74.8259 743.503 L79.3773 743.503 L79.3773 777.368 L74.8259 777.368 L74.8259 743.503 Z" fill="#000000" fill-rule="nonzero" fill-opacity="1" /><path clip-path="url(#clip410)" d="M28.3562 737.996 L28.3562 732.14 L64.0042 732.14 L64.0042 737.996 L28.3562 737.996 M14.479 737.996 L14.479 732.14 L21.895 732.14 L21.895 737.996 L14.479 737.996 Z" fill="#000000" fill-rule="nonzero" fill-opacity="1" /><path clip-path="url(#clip410)" d="M809.546 18.8205 L809.546 65.8515 L819.43 65.8515 Q831.947 65.8515 837.74 60.1802 Q843.573 54.509 843.573 42.2752 Q843.573 30.1225 837.74 24.4918 Q831.947 18.8205 819.43 18.8205 L809.546 18.8205 M801.363 12.096 L818.174 12.096 Q835.755 12.096 843.978 19.4281 Q852.202 26.7198 852.202 42.2752 Q852.202 57.9117 843.938 65.2439 Q835.674 72.576 818.174 72.576 L801.363 72.576 L801.363 12.096 Z" fill="#000000" fill-rule="nonzero" fill-opacity="1" /><path clip-path="url(#clip410)" d="M864.922 27.2059 L872.375 27.2059 L872.375 72.576 L864.922 72.576 L864.922 27.2059 M864.922 9.54393 L872.375 9.54393 L872.375 18.9825 L864.922 18.9825 L864.922 9.54393 Z" fill="#000000" fill-rule="nonzero" fill-opacity="1" /><path clip-path="url(#clip410)" d="M916.895 28.5427 L916.895 35.5912 Q913.735 33.9709 910.332 33.1607 Q906.929 32.3505 903.284 32.3505 Q897.734 32.3505 894.939 34.0519 Q892.184 35.7533 892.184 39.156 Q892.184 41.7486 894.169 43.2475 Q896.154 44.7058 902.149 46.0426 L904.701 46.6097 Q912.641 48.3111 915.963 51.4303 Q919.325 54.509 919.325 60.0587 Q919.325 66.3781 914.302 70.0644 Q909.319 73.7508 900.57 73.7508 Q896.924 73.7508 892.954 73.0216 Q889.024 72.3329 884.649 70.9151 L884.649 63.2184 Q888.781 65.3654 892.792 66.4591 Q896.802 67.5124 900.732 67.5124 Q905.998 67.5124 908.833 65.73 Q911.669 63.9071 911.669 60.6258 Q911.669 57.5877 909.603 55.9673 Q907.578 54.3469 900.651 52.8481 L898.058 52.2405 Q891.131 50.7821 888.052 47.7845 Q884.974 44.7463 884.974 39.4801 Q884.974 33.0797 889.511 29.5959 Q894.048 26.1121 902.392 26.1121 Q906.524 26.1121 910.17 26.7198 Q913.816 27.3274 916.895 28.5427 Z" fill="#000000" fill-rule="nonzero" fill-opacity="1" /><path clip-path="url(#clip410)" d="M938.567 14.324 L938.567 27.2059 L953.92 27.2059 L953.92 32.9987 L938.567 32.9987 L938.567 57.6282 Q938.567 63.1779 940.066 64.7578 Q941.605 66.3376 946.264 66.3376 L953.92 66.3376 L953.92 72.576 L946.264 72.576 Q937.635 72.576 934.354 69.3758 Q931.073 66.1351 931.073 57.6282 L931.073 32.9987 L925.604 32.9987 L925.604 27.2059 L931.073 27.2059 L931.073 14.324 L938.567 14.324 Z" fill="#000000" fill-rule="nonzero" fill-opacity="1" /><path clip-path="url(#clip410)" d="M984.342 49.7694 Q975.309 49.7694 971.825 51.8354 Q968.341 53.9013 968.341 58.8839 Q968.341 62.8538 970.934 65.2034 Q973.567 67.5124 978.063 67.5124 Q984.261 67.5124 987.988 63.1374 Q991.755 58.7219 991.755 51.4303 L991.755 49.7694 L984.342 49.7694 M999.209 46.6907 L999.209 72.576 L991.755 72.576 L991.755 65.6895 Q989.203 69.8214 985.395 71.8063 Q981.588 73.7508 976.078 73.7508 Q969.111 73.7508 964.979 69.8619 Q960.887 65.9325 960.887 59.3701 Q960.887 51.7138 965.992 47.825 Q971.136 43.9361 981.304 43.9361 L991.755 43.9361 L991.755 43.2069 Q991.755 38.0623 988.353 35.2672 Q984.99 32.4315 978.873 32.4315 Q974.985 32.4315 971.298 33.3632 Q967.612 34.295 964.209 36.1584 L964.209 29.2718 Q968.301 27.692 972.149 26.9223 Q975.997 26.1121 979.643 26.1121 Q989.487 26.1121 994.348 31.2163 Q999.209 36.3204 999.209 46.6907 Z" fill="#000000" fill-rule="nonzero" fill-opacity="1" /><path clip-path="url(#clip410)" d="M1052.28 45.1919 L1052.28 72.576 L1044.82 72.576 L1044.82 45.4349 Q1044.82 38.994 1042.31 35.7938 Q1039.8 32.5936 1034.78 32.5936 Q1028.74 32.5936 1025.26 36.4419 Q1021.77 40.2903 1021.77 46.9338 L1021.77 72.576 L1014.28 72.576 L1014.28 27.2059 L1021.77 27.2059 L1021.77 34.2544 Q1024.45 30.163 1028.05 28.1376 Q1031.7 26.1121 1036.44 26.1121 Q1044.26 26.1121 1048.27 30.9732 Q1052.28 35.7938 1052.28 45.1919 Z" fill="#000000" fill-rule="nonzero" fill-opacity="1" /><path clip-path="url(#clip410)" d="M1099.79 28.9478 L1099.79 35.9153 Q1096.63 34.1734 1093.43 33.3227 Q1090.27 32.4315 1087.03 32.4315 Q1079.78 32.4315 1075.77 37.0496 Q1071.76 41.6271 1071.76 49.9314 Q1071.76 58.2358 1075.77 62.8538 Q1079.78 67.4314 1087.03 67.4314 Q1090.27 67.4314 1093.43 66.5807 Q1096.63 65.6895 1099.79 63.9476 L1099.79 70.8341 Q1096.67 72.2924 1093.31 73.0216 Q1089.99 73.7508 1086.22 73.7508 Q1075.97 73.7508 1069.94 67.3098 Q1063.9 60.8689 1063.9 49.9314 Q1063.9 38.832 1069.98 32.472 Q1076.1 26.1121 1086.71 26.1121 Q1090.15 26.1121 1093.43 26.8413 Q1096.71 27.5299 1099.79 28.9478 Z" fill="#000000" fill-rule="nonzero" fill-opacity="1" /><path clip-path="url(#clip410)" d="M1151.56 48.0275 L1151.56 51.6733 L1117.29 51.6733 Q1117.78 59.3701 1121.91 63.421 Q1126.08 67.4314 1133.5 67.4314 Q1137.79 67.4314 1141.8 66.3781 Q1145.85 65.3249 1149.82 63.2184 L1149.82 70.267 Q1145.81 71.9684 1141.6 72.8596 Q1137.39 73.7508 1133.05 73.7508 Q1122.19 73.7508 1115.83 67.4314 Q1109.52 61.1119 1109.52 50.3365 Q1109.52 39.1965 1115.51 32.6746 Q1121.55 26.1121 1131.75 26.1121 Q1140.91 26.1121 1146.22 32.0264 Q1151.56 37.9003 1151.56 48.0275 M1144.11 45.84 Q1144.03 39.7232 1140.67 36.0774 Q1137.34 32.4315 1131.84 32.4315 Q1125.6 32.4315 1121.83 35.9558 Q1118.1 39.4801 1117.54 45.8805 L1144.11 45.84 Z" fill="#000000" fill-rule="nonzero" fill-opacity="1" /><path clip-path="url(#clip410)" d="M1197.54 14.324 L1197.54 27.2059 L1212.89 27.2059 L1212.89 32.9987 L1197.54 32.9987 L1197.54 57.6282 Q1197.54 63.1779 1199.04 64.7578 Q1200.58 66.3376 1205.24 66.3376 L1212.89 66.3376 L1212.89 72.576 L1205.24 72.576 Q1196.61 72.576 1193.33 69.3758 Q1190.05 66.1351 1190.05 57.6282 L1190.05 32.9987 L1184.58 32.9987 L1184.58 27.2059 L1190.05 27.2059 L1190.05 14.324 L1197.54 14.324 Z" fill="#000000" fill-rule="nonzero" fill-opacity="1" /><path clip-path="url(#clip410)" d="M1248.99 34.1734 Q1247.73 33.4443 1246.23 33.1202 Q1244.77 32.7556 1242.99 32.7556 Q1236.67 32.7556 1233.27 36.8875 Q1229.91 40.9789 1229.91 48.6757 L1229.91 72.576 L1222.41 72.576 L1222.41 27.2059 L1229.91 27.2059 L1229.91 34.2544 Q1232.26 30.1225 1236.02 28.1376 Q1239.79 26.1121 1245.18 26.1121 Q1245.95 26.1121 1246.88 26.2337 Q1247.81 26.3147 1248.95 26.5172 L1248.99 34.1734 Z" fill="#000000" fill-rule="nonzero" fill-opacity="1" /><path clip-path="url(#clip410)" d="M1277.43 49.7694 Q1268.39 49.7694 1264.91 51.8354 Q1261.42 53.9013 1261.42 58.8839 Q1261.42 62.8538 1264.02 65.2034 Q1266.65 67.5124 1271.15 67.5124 Q1277.34 67.5124 1281.07 63.1374 Q1284.84 58.7219 1284.84 51.4303 L1284.84 49.7694 L1277.43 49.7694 M1292.29 46.6907 L1292.29 72.576 L1284.84 72.576 L1284.84 65.6895 Q1282.29 69.8214 1278.48 71.8063 Q1274.67 73.7508 1269.16 73.7508 Q1262.19 73.7508 1258.06 69.8619 Q1253.97 65.9325 1253.97 59.3701 Q1253.97 51.7138 1259.07 47.825 Q1264.22 43.9361 1274.39 43.9361 L1284.84 43.9361 L1284.84 43.2069 Q1284.84 38.0623 1281.44 35.2672 Q1278.07 32.4315 1271.96 32.4315 Q1268.07 32.4315 1264.38 33.3632 Q1260.69 34.295 1257.29 36.1584 L1257.29 29.2718 Q1261.38 27.692 1265.23 26.9223 Q1269.08 26.1121 1272.73 26.1121 Q1282.57 26.1121 1287.43 31.2163 Q1292.29 36.3204 1292.29 46.6907 Z" fill="#000000" fill-rule="nonzero" fill-opacity="1" /><path clip-path="url(#clip410)" d="M1340.3 28.9478 L1340.3 35.9153 Q1337.14 34.1734 1333.94 33.3227 Q1330.78 32.4315 1327.53 32.4315 Q1320.28 32.4315 1316.27 37.0496 Q1312.26 41.6271 1312.26 49.9314 Q1312.26 58.2358 1316.27 62.8538 Q1320.28 67.4314 1327.53 67.4314 Q1330.78 67.4314 1333.94 66.5807 Q1337.14 65.6895 1340.3 63.9476 L1340.3 70.8341 Q1337.18 72.2924 1333.81 73.0216 Q1330.49 73.7508 1326.72 73.7508 Q1316.48 73.7508 1310.44 67.3098 Q1304.4 60.8689 1304.4 49.9314 Q1304.4 38.832 1310.48 32.472 Q1316.6 26.1121 1327.21 26.1121 Q1330.65 26.1121 1333.94 26.8413 Q1337.22 27.5299 1340.3 28.9478 Z" fill="#000000" fill-rule="nonzero" fill-opacity="1" /><path clip-path="url(#clip410)" d="M1392.07 48.0275 L1392.07 51.6733 L1357.8 51.6733 Q1358.28 59.3701 1362.41 63.421 Q1366.59 67.4314 1374 67.4314 Q1378.29 67.4314 1382.3 66.3781 Q1386.35 65.3249 1390.32 63.2184 L1390.32 70.267 Q1386.31 71.9684 1382.1 72.8596 Q1377.89 73.7508 1373.55 73.7508 Q1362.7 73.7508 1356.34 67.4314 Q1350.02 61.1119 1350.02 50.3365 Q1350.02 39.1965 1356.01 32.6746 Q1362.05 26.1121 1372.26 26.1121 Q1381.41 26.1121 1386.72 32.0264 Q1392.07 37.9003 1392.07 48.0275 M1384.61 45.84 Q1384.53 39.7232 1381.17 36.0774 Q1377.85 32.4315 1372.34 32.4315 Q1366.1 32.4315 1362.33 35.9558 Q1358.61 39.4801 1358.04 45.8805 L1384.61 45.84 Z" fill="#000000" fill-rule="nonzero" fill-opacity="1" /><path clip-path="url(#clip410)" d="M1463.24 49.9314 Q1463.24 41.7081 1459.84 37.0496 Q1456.48 32.3505 1450.56 32.3505 Q1444.65 32.3505 1441.24 37.0496 Q1437.88 41.7081 1437.88 49.9314 Q1437.88 58.1548 1441.24 62.8538 Q1444.65 67.5124 1450.56 67.5124 Q1456.48 67.5124 1459.84 62.8538 Q1463.24 58.1548 1463.24 49.9314 M1437.88 34.0924 Q1440.23 30.0415 1443.8 28.0971 Q1447.4 26.1121 1452.38 26.1121 Q1460.65 26.1121 1465.79 32.6746 Q1470.98 39.2371 1470.98 49.9314 Q1470.98 60.6258 1465.79 67.1883 Q1460.65 73.7508 1452.38 73.7508 Q1447.4 73.7508 1443.8 71.8063 Q1440.23 69.8214 1437.88 65.7705 L1437.88 72.576 L1430.39 72.576 L1430.39 9.54393 L1437.88 9.54393 L1437.88 34.0924 Z" fill="#000000" fill-rule="nonzero" fill-opacity="1" /><path clip-path="url(#clip410)" d="M1522.14 48.0275 L1522.14 51.6733 L1487.87 51.6733 Q1488.36 59.3701 1492.49 63.421 Q1496.66 67.4314 1504.07 67.4314 Q1508.37 67.4314 1512.38 66.3781 Q1516.43 65.3249 1520.4 63.2184 L1520.4 70.267 Q1516.39 71.9684 1512.18 72.8596 Q1507.96 73.7508 1503.63 73.7508 Q1492.77 73.7508 1486.41 67.4314 Q1480.09 61.1119 1480.09 50.3365 Q1480.09 39.1965 1486.09 32.6746 Q1492.12 26.1121 1502.33 26.1121 Q1511.49 26.1121 1516.79 32.0264 Q1522.14 37.9003 1522.14 48.0275 M1514.69 45.84 Q1514.61 39.7232 1511.24 36.0774 Q1507.92 32.4315 1502.41 32.4315 Q1496.17 32.4315 1492.41 35.9558 Q1488.68 39.4801 1488.11 45.8805 L1514.69 45.84 Z" fill="#000000" fill-rule="nonzero" fill-opacity="1" /><path clip-path="url(#clip410)" d="M1563.3 28.5427 L1563.3 35.5912 Q1560.14 33.9709 1556.73 33.1607 Q1553.33 32.3505 1549.69 32.3505 Q1544.14 32.3505 1541.34 34.0519 Q1538.59 35.7533 1538.59 39.156 Q1538.59 41.7486 1540.57 43.2475 Q1542.56 44.7058 1548.55 46.0426 L1551.1 46.6097 Q1559.04 48.3111 1562.37 51.4303 Q1565.73 54.509 1565.73 60.0587 Q1565.73 66.3781 1560.7 70.0644 Q1555.72 73.7508 1546.97 73.7508 Q1543.33 73.7508 1539.36 73.0216 Q1535.43 72.3329 1531.05 70.9151 L1531.05 63.2184 Q1535.18 65.3654 1539.19 66.4591 Q1543.2 67.5124 1547.13 67.5124 Q1552.4 67.5124 1555.24 65.73 Q1558.07 63.9071 1558.07 60.6258 Q1558.07 57.5877 1556.01 55.9673 Q1553.98 54.3469 1547.05 52.8481 L1544.46 52.2405 Q1537.53 50.7821 1534.46 47.7845 Q1531.38 44.7463 1531.38 39.4801 Q1531.38 33.0797 1535.91 29.5959 Q1540.45 26.1121 1548.8 26.1121 Q1552.93 26.1121 1556.57 26.7198 Q1560.22 27.3274 1563.3 28.5427 Z" fill="#000000" fill-rule="nonzero" fill-opacity="1" /><path clip-path="url(#clip410)" d="M1584.97 14.324 L1584.97 27.2059 L1600.32 27.2059 L1600.32 32.9987 L1584.97 32.9987 L1584.97 57.6282 Q1584.97 63.1779 1586.47 64.7578 Q1588.01 66.3376 1592.67 66.3376 L1600.32 66.3376 L1600.32 72.576 L1592.67 72.576 Q1584.04 72.576 1580.76 69.3758 Q1577.48 66.1351 1577.48 57.6282 L1577.48 32.9987 L1572.01 32.9987 L1572.01 27.2059 L1577.48 27.2059 L1577.48 14.324 L1584.97 14.324 Z" fill="#000000" fill-rule="nonzero" fill-opacity="1" /><path clip-path="url(#clip410)" d="M1631.15 27.2059 L1639.05 27.2059 L1653.23 65.2844 L1667.41 27.2059 L1675.3 27.2059 L1658.29 72.576 L1648.16 72.576 L1631.15 27.2059 Z" fill="#000000" fill-rule="nonzero" fill-opacity="1" /><path clip-path="url(#clip410)" d="M1724.4 48.0275 L1724.4 51.6733 L1690.13 51.6733 Q1690.62 59.3701 1694.75 63.421 Q1698.92 67.4314 1706.33 67.4314 Q1710.63 67.4314 1714.64 66.3781 Q1718.69 65.3249 1722.66 63.2184 L1722.66 70.267 Q1718.65 71.9684 1714.44 72.8596 Q1710.22 73.7508 1705.89 73.7508 Q1695.03 73.7508 1688.67 67.4314 Q1682.35 61.1119 1682.35 50.3365 Q1682.35 39.1965 1688.35 32.6746 Q1694.38 26.1121 1704.59 26.1121 Q1713.75 26.1121 1719.05 32.0264 Q1724.4 37.9003 1724.4 48.0275 M1716.95 45.84 Q1716.87 39.7232 1713.5 36.0774 Q1710.18 32.4315 1704.67 32.4315 Q1698.44 32.4315 1694.67 35.9558 Q1690.94 39.4801 1690.37 45.8805 L1716.95 45.84 Z" fill="#000000" fill-rule="nonzero" fill-opacity="1" /><path clip-path="url(#clip410)" d="M1762.93 34.1734 Q1761.67 33.4443 1760.17 33.1202 Q1758.71 32.7556 1756.93 32.7556 Q1750.61 32.7556 1747.21 36.8875 Q1743.85 40.9789 1743.85 48.6757 L1743.85 72.576 L1736.35 72.576 L1736.35 27.2059 L1743.85 27.2059 L1743.85 34.2544 Q1746.2 30.1225 1749.96 28.1376 Q1753.73 26.1121 1759.12 26.1121 Q1759.89 26.1121 1760.82 26.2337 Q1761.75 26.3147 1762.89 26.5172 L1762.93 34.1734 Z" fill="#000000" fill-rule="nonzero" fill-opacity="1" /><path clip-path="url(#clip410)" d="M1778.12 14.324 L1778.12 27.2059 L1793.47 27.2059 L1793.47 32.9987 L1778.12 32.9987 L1778.12 57.6282 Q1778.12 63.1779 1779.62 64.7578 Q1781.16 66.3376 1785.81 66.3376 L1793.47 66.3376 L1793.47 72.576 L1785.81 72.576 Q1777.19 72.576 1773.9 69.3758 Q1770.62 66.1351 1770.62 57.6282 L1770.62 32.9987 L1765.15 32.9987 L1765.15 27.2059 L1770.62 27.2059 L1770.62 14.324 L1778.12 14.324 Z" fill="#000000" fill-rule="nonzero" fill-opacity="1" /><path clip-path="url(#clip410)" d="M1842.08 48.0275 L1842.08 51.6733 L1807.81 51.6733 Q1808.3 59.3701 1812.43 63.421 Q1816.6 67.4314 1824.01 67.4314 Q1828.31 67.4314 1832.32 66.3781 Q1836.37 65.3249 1840.34 63.2184 L1840.34 70.267 Q1836.33 71.9684 1832.12 72.8596 Q1827.9 73.7508 1823.57 73.7508 Q1812.71 73.7508 1806.35 67.4314 Q1800.03 61.1119 1800.03 50.3365 Q1800.03 39.1965 1806.03 32.6746 Q1812.06 26.1121 1822.27 26.1121 Q1831.43 26.1121 1836.73 32.0264 Q1842.08 37.9003 1842.08 48.0275 M1834.63 45.84 Q1834.55 39.7232 1831.18 36.0774 Q1827.86 32.4315 1822.35 32.4315 Q1816.11 32.4315 1812.35 35.9558 Q1808.62 39.4801 1808.05 45.8805 L1834.63 45.84 Z" fill="#000000" fill-rule="nonzero" fill-opacity="1" /><path clip-path="url(#clip410)" d="M1890.57 27.2059 L1874.16 49.2833 L1891.42 72.576 L1882.63 72.576 L1869.42 54.752 L1856.22 72.576 L1847.43 72.576 L1865.05 48.8377 L1848.93 27.2059 L1857.72 27.2059 L1869.75 43.369 L1881.78 27.2059 L1890.57 27.2059 Z" fill="#000000" fill-rule="nonzero" fill-opacity="1" /><polyline clip-path="url(#clip412)" style="stroke:#009af9; stroke-linecap:round; stroke-linejoin:round; stroke-width:4; stroke-opacity:1; fill:none" points="396.992,400.971 434.968,460.179 472.944,560.359 510.92,867.298 548.896,958.586 586.872,978.9 624.848,983.519 662.824,984.144 700.8,1016.1 738.776,1016.05 776.752,1028.39 814.728,1126.04 852.704,1177.57 890.68,1187.65 928.656,1214.35 966.632,1289.53 1004.61,1329.7 1042.58,1360.03 1080.56,1367.64 1118.54,1379.63 1156.51,1383.63 1194.49,1384.25 1232.46,1386.12 1270.44,1386.4 1308.42,1386.28 1346.39,1386.24 1384.37,1386.22 1422.34,1386.19 1460.32,1386.05 1498.3,1386.01 1536.27,1386.03 1574.25,1386.04 1612.22,1386.04 1650.2,1386.04 1688.18,1386.04 1726.15,1386.04 1764.13,1386.04 1802.1,1386.04 1840.08,1386.04 1878.06,1386.04 1916.03,1386.04 1954.01,1386.04 1991.98,1386.04 2029.96,1386.04 2067.94,1386.04 2105.91,1386.04 2143.89,1386.04 2181.86,1386.04 2219.84,1386.04 2257.82,1386.04 2295.79,1386.04 "/>
<polyline clip-path="url(#clip412)" style="stroke:#e26f46; stroke-linecap:round; stroke-linejoin:round; stroke-width:4; stroke-opacity:1; fill:none" points="396.992,768.892 434.968,819.913 472.944,846.208 510.92,774.874 548.896,720.138 586.872,702.136 624.848,697.344 662.824,696.657 700.8,694.951 738.776,694.976 776.752,693.223 814.728,668.709 852.704,648.078 890.68,648.243 928.656,642.414 966.632,602.824 1004.61,598.752 1042.58,568.892 1080.56,567.543 1118.54,568.461 1156.51,567.938 1194.49,568.186 1232.46,567.667 1270.44,567.401 1308.42,567.549 1346.39,567.598 1384.37,567.623 1422.34,567.669 1460.32,567.779 1498.3,567.714 1536.27,567.663 1574.25,567.644 1612.22,567.638 1650.2,567.637 1688.18,567.637 1726.15,567.637 1764.13,567.637 1802.1,567.637 1840.08,567.637 1878.06,567.637 1916.03,567.637 1954.01,567.637 1991.98,567.637 2029.96,567.637 2067.94,567.637 2105.91,567.637 2143.89,567.637 2181.86,567.637 2219.84,567.637 2257.82,567.637 2295.79,567.637 "/>
<polyline clip-path="url(#clip412)" style="stroke:#3da44d; stroke-linecap:round; stroke-linejoin:round; stroke-width:4; stroke-opacity:1; fill:none" points="396.992,600.377 434.968,602.008 472.944,571.917 510.92,551.548 548.896,562.545 586.872,569.158 624.848,570.749 662.824,571.02 700.8,566.911 738.776,566.984 776.752,564.677 814.728,553.05 852.704,544.246 890.68,543.088 928.656,534.893 966.632,526.158 1004.61,496.793 1042.58,496.021 1080.56,497.183 1118.54,477.266 1156.51,469 1194.49,466.594 1232.46,460.517 1270.44,460.364 1308.42,460.517 1346.39,460.57 1384.37,460.582 1422.34,460.594 1460.32,460.748 1498.3,460.909 1536.27,460.952 1574.25,460.965 1612.22,460.969 1650.2,460.969 1688.18,460.969 1726.15,460.969 1764.13,460.969 1802.1,460.969 1840.08,460.969 1878.06,460.969 1916.03,460.969 1954.01,460.969 1991.98,460.969 2029.96,460.969 2067.94,460.969 2105.91,460.969 2143.89,460.969 2181.86,460.969 2219.84,460.969 2257.82,460.969 2295.79,460.969 "/>
<polyline clip-path="url(#clip412)" style="stroke:#c271d2; stroke-linecap:round; stroke-linejoin:round; stroke-width:4; stroke-opacity:1; fill:none" points="396.992,422.074 434.968,331.294 472.944,380.346 510.92,361.771 548.896,361.235 586.872,361.812 624.848,363.222 662.824,363.377 700.8,360.067 738.776,359.967 776.752,358.926 814.728,333.824 852.704,328.803 890.68,321.466 928.656,307.523 966.632,280.995 1004.61,270.418 1042.58,275.169 1080.56,276.389 1118.54,265.986 1156.51,263.413 1194.49,263.913 1232.46,266.605 1270.44,267.321 1308.42,267.223 1346.39,267.142 1384.37,267.16 1422.34,267.146 1460.32,266.979 1498.3,266.986 1536.27,267.004 1574.25,267.008 1612.22,267.011 1650.2,267.012 1688.18,267.012 1726.15,267.012 1764.13,267.012 1802.1,267.012 1840.08,267.012 1878.06,267.012 1916.03,267.012 1954.01,267.012 1991.98,267.012 2029.96,267.012 2067.94,267.012 2105.91,267.012 2143.89,267.012 2181.86,267.012 2219.84,267.012 2257.82,267.012 2295.79,267.012 "/>
<polyline clip-path="url(#clip412)" style="stroke:#ac8d18; stroke-linecap:round; stroke-linejoin:round; stroke-width:4; stroke-opacity:1; fill:none" points="396.992,390.024 434.968,472.619 472.944,419.754 510.92,415.022 548.896,396.664 586.872,390.415 624.848,388.78 662.824,388.562 700.8,382.383 738.776,382.403 776.752,380.962 814.728,396.512 852.704,370.015 890.68,360.778 928.656,388.257 966.632,365.63 1004.61,305.465 1042.58,226.135 1080.56,160.256 1118.54,160.626 1156.51,175.342 1194.49,178.766 1232.46,183.029 1270.44,178.9 1308.42,177.744 1346.39,177.547 1384.37,177.413 1422.34,177.31 1460.32,177.321 1498.3,177.461 1536.27,177.495 1574.25,177.5 1612.22,177.502 1650.2,177.502 1688.18,177.502 1726.15,177.502 1764.13,177.502 1802.1,177.502 1840.08,177.502 1878.06,177.502 1916.03,177.502 1954.01,177.502 1991.98,177.502 2029.96,177.502 2067.94,177.502 2105.91,177.502 2143.89,177.502 2181.86,177.502 2219.84,177.502 2257.82,177.502 2295.79,177.502 "/>
<polyline clip-path="url(#clip412)" style="stroke:#00a9ad; stroke-linecap:round; stroke-linejoin:round; stroke-width:4; stroke-opacity:1; fill:none" points="396.992,552.728 434.968,446.036 472.944,435.439 510.92,438.821 548.896,479.332 586.872,495.541 624.848,498.873 662.824,499.44 700.8,490.885 738.776,490.856 776.752,489.434 814.728,449.775 852.704,465.876 890.68,441.701 928.656,371.723 966.632,328.242 1004.61,331.518 1042.58,423.76 1080.56,462.478 1118.54,481.785 1156.51,478.098 1194.49,476.502 1232.46,482.262 1270.44,487.178 1308.42,488.201 1346.39,488.357 1384.37,488.44 1422.34,488.498 1460.32,488.48 1498.3,488.248 1536.27,488.202 1574.25,488.197 1612.22,488.194 1650.2,488.194 1688.18,488.194 1726.15,488.194 1764.13,488.194 1802.1,488.194 1840.08,488.194 1878.06,488.194 1916.03,488.194 1954.01,488.194 1991.98,488.194 2029.96,488.194 2067.94,488.194 2105.91,488.194 2143.89,488.194 2181.86,488.194 2219.84,488.194 2257.82,488.194 2295.79,488.194 "/>
<polyline clip-path="url(#clip412)" style="stroke:#ed5d92; stroke-linecap:round; stroke-linejoin:round; stroke-width:4; stroke-opacity:1; fill:none" points="396.992,706.396 434.968,761.825 472.944,710.284 510.92,716.28 548.896,701.674 586.872,692.939 624.848,690.538 662.824,690.053 700.8,682.315 738.776,682.324 776.752,683.951 814.728,690.731 852.704,699.273 890.68,740.744 928.656,783.939 966.632,850.872 1004.61,888.976 1042.58,865.728 1080.56,860.748 1118.54,851.946 1156.51,851.037 1194.49,851.142 1232.46,844.989 1270.44,842.579 1308.42,842.238 1346.39,842.211 1384.37,842.192 1422.34,842.192 1460.32,842.228 1498.3,842.334 1536.27,842.346 1574.25,842.344 1612.22,842.344 1650.2,842.344 1688.18,842.344 1726.15,842.344 1764.13,842.344 1802.1,842.344 1840.08,842.344 1878.06,842.344 1916.03,842.344 1954.01,842.344 1991.98,842.344 2029.96,842.344 2067.94,842.344 2105.91,842.344 2143.89,842.344 2181.86,842.344 2219.84,842.344 2257.82,842.344 2295.79,842.344 "/>
<polyline clip-path="url(#clip412)" style="stroke:#c68125; stroke-linecap:round; stroke-linejoin:round; stroke-width:4; stroke-opacity:1; fill:none" points="396.992,840.096 434.968,852.206 472.944,969.447 510.92,972.911 548.896,966.322 586.872,964.41 624.848,964.829 662.824,964.986 700.8,998.188 738.776,998.211 776.752,996.192 814.728,1035.54 852.704,1027.94 890.68,993.518 928.656,996.225 966.632,960.111 1004.61,954.617 1042.58,939.391 1080.56,950.414 1118.54,959.24 1156.51,961.09 1194.49,961.348 1232.46,963.013 1270.44,963.746 1308.42,963.821 1346.39,963.822 1384.37,963.822 1422.34,963.807 1460.32,963.713 1498.3,963.636 1536.27,963.63 1574.25,963.634 1612.22,963.635 1650.2,963.635 1688.18,963.635 1726.15,963.635 1764.13,963.635 1802.1,963.635 1840.08,963.635 1878.06,963.635 1916.03,963.635 1954.01,963.635 1991.98,963.635 2029.96,963.635 2067.94,963.635 2105.91,963.635 2143.89,963.635 2181.86,963.635 2219.84,963.635 2257.82,963.635 2295.79,963.635 "/>
</svg>
