<?xml version="1.0" encoding="utf-8"?>
<svg xmlns="http://www.w3.org/2000/svg" xmlns:xlink="http://www.w3.org/1999/xlink" width="600" height="400" viewBox="0 0 2400 1600">
<defs>
  <clipPath id="clip400">
    <rect x="0" y="0" width="2400" height="1600"/>
  </clipPath>
</defs>
<path clip-path="url(#clip400)" d="M0 1600 L2400 1600 L2400 0 L0 0  Z" fill="#ffffff" fill-rule="evenodd" fill-opacity="1"/>
<defs>
  <clipPath id="clip401">
    <rect x="480" y="0" width="1681" height="1600"/>
  </clipPath>
</defs>
<path clip-path="url(#clip400)" d="M249.357 1423.18 L2352.76 1423.18 L2352.76 47.2441 L249.357 47.2441  Z" fill="#ffffff" fill-rule="evenodd" fill-opacity="1"/>
<defs>
  <clipPath id="clip402">
    <rect x="249" y="47" width="2104" height="1377"/>
  </clipPath>
</defs>
<polyline clip-path="url(#clip402)" style="stroke:#000000; stroke-linecap:round; stroke-linejoin:round; stroke-width:2; stroke-opacity:0.1; fill:none" points="308.887,1423.18 308.887,47.2441 "/>
<polyline clip-path="url(#clip402)" style="stroke:#000000; stroke-linecap:round; stroke-linejoin:round; stroke-width:2; stroke-opacity:0.1; fill:none" points="804.972,1423.18 804.972,47.2441 "/>
<polyline clip-path="url(#clip402)" style="stroke:#000000; stroke-linecap:round; stroke-linejoin:round; stroke-width:2; stroke-opacity:0.1; fill:none" points="1301.06,1423.18 1301.06,47.2441 "/>
<polyline clip-path="url(#clip402)" style="stroke:#000000; stroke-linecap:round; stroke-linejoin:round; stroke-width:2; stroke-opacity:0.1; fill:none" points="1797.14,1423.18 1797.14,47.2441 "/>
<polyline clip-path="url(#clip402)" style="stroke:#000000; stroke-linecap:round; stroke-linejoin:round; stroke-width:2; stroke-opacity:0.1; fill:none" points="2293.23,1423.18 2293.23,47.2441 "/>
<polyline clip-path="url(#clip402)" style="stroke:#000000; stroke-linecap:round; stroke-linejoin:round; stroke-width:2; stroke-opacity:0.1; fill:none" points="249.357,1358.65 2352.76,1358.65 "/>
<polyline clip-path="url(#clip402)" style="stroke:#000000; stroke-linecap:round; stroke-linejoin:round; stroke-width:2; stroke-opacity:0.1; fill:none" points="249.357,1099.64 2352.76,1099.64 "/>
<polyline clip-path="url(#clip402)" style="stroke:#000000; stroke-linecap:round; stroke-linejoin:round; stroke-width:2; stroke-opacity:0.1; fill:none" points="249.357,840.636 2352.76,840.636 "/>
<polyline clip-path="url(#clip402)" style="stroke:#000000; stroke-linecap:round; stroke-linejoin:round; stroke-width:2; stroke-opacity:0.1; fill:none" points="249.357,581.628 2352.76,581.628 "/>
<polyline clip-path="url(#clip402)" style="stroke:#000000; stroke-linecap:round; stroke-linejoin:round; stroke-width:2; stroke-opacity:0.1; fill:none" points="249.357,322.62 2352.76,322.62 "/>
<polyline clip-path="url(#clip402)" style="stroke:#000000; stroke-linecap:round; stroke-linejoin:round; stroke-width:2; stroke-opacity:0.1; fill:none" points="249.357,63.6122 2352.76,63.6122 "/>
<polyline clip-path="url(#clip400)" style="stroke:#000000; stroke-linecap:round; stroke-linejoin:round; stroke-width:4; stroke-opacity:1; fill:none" points="249.357,1423.18 2352.76,1423.18 "/>
<polyline clip-path="url(#clip400)" style="stroke:#000000; stroke-linecap:round; stroke-linejoin:round; stroke-width:4; stroke-opacity:1; fill:none" points="308.887,1423.18 308.887,1404.28 "/>
<polyline clip-path="url(#clip400)" style="stroke:#000000; stroke-linecap:round; stroke-linejoin:round; stroke-width:4; stroke-opacity:1; fill:none" points="804.972,1423.18 804.972,1404.28 "/>
<polyline clip-path="url(#clip400)" style="stroke:#000000; stroke-linecap:round; stroke-linejoin:round; stroke-width:4; stroke-opacity:1; fill:none" points="1301.06,1423.18 1301.06,1404.28 "/>
<polyline clip-path="url(#clip400)" style="stroke:#000000; stroke-linecap:round; stroke-linejoin:round; stroke-width:4; stroke-opacity:1; fill:none" points="1797.14,1423.18 1797.14,1404.28 "/>
<polyline clip-path="url(#clip400)" style="stroke:#000000; stroke-linecap:round; stroke-linejoin:round; stroke-width:4; stroke-opacity:1; fill:none" points="2293.23,1423.18 2293.23,1404.28 "/>
<path clip-path="url(#clip400)" d="M249.964 1481.64 L266.283 1481.64 L266.283 1485.58 L244.339 1485.58 L244.339 1481.64 Q247.001 1478.89 251.584 1474.26 Q256.191 1469.61 257.371 1468.27 Q259.616 1465.74 260.496 1464.01 Q261.399 1462.25 261.399 1460.56 Q261.399 1457.8 259.454 1456.07 Q257.533 1454.33 254.431 1454.33 Q252.232 1454.33 249.779 1455.09 Q247.348 1455.86 244.57 1457.41 L244.57 1452.69 Q247.394 1451.55 249.848 1450.97 Q252.302 1450.39 254.339 1450.39 Q259.709 1450.39 262.903 1453.08 Q266.098 1455.77 266.098 1460.26 Q266.098 1462.39 265.288 1464.31 Q264.501 1466.2 262.394 1468.8 Q261.816 1469.47 258.714 1472.69 Q255.612 1475.88 249.964 1481.64 Z" fill="#000000" fill-rule="nonzero" fill-opacity="1" /><path clip-path="url(#clip400)" d="M288.945 1455.09 L277.139 1473.54 L288.945 1473.54 L288.945 1455.09 M287.718 1451.02 L293.598 1451.02 L293.598 1473.54 L298.528 1473.54 L298.528 1477.43 L293.598 1477.43 L293.598 1485.58 L288.945 1485.58 L288.945 1477.43 L273.343 1477.43 L273.343 1472.92 L287.718 1451.02 Z" fill="#000000" fill-rule="nonzero" fill-opacity="1" /><path clip-path="url(#clip400)" d="M306.26 1479.7 L311.144 1479.7 L311.144 1485.58 L306.26 1485.58 L306.26 1479.7 Z" fill="#000000" fill-rule="nonzero" fill-opacity="1" /><path clip-path="url(#clip400)" d="M321.468 1484.86 L321.468 1480.6 Q323.227 1481.44 325.033 1481.88 Q326.838 1482.32 328.574 1482.32 Q333.204 1482.32 335.635 1479.21 Q338.088 1476.09 338.435 1469.75 Q337.093 1471.74 335.033 1472.8 Q332.973 1473.87 330.473 1473.87 Q325.287 1473.87 322.255 1470.74 Q319.246 1467.59 319.246 1462.15 Q319.246 1456.83 322.394 1453.61 Q325.542 1450.39 330.773 1450.39 Q336.769 1450.39 339.917 1455 Q343.088 1459.58 343.088 1468.33 Q343.088 1476.51 339.199 1481.39 Q335.334 1486.25 328.783 1486.25 Q327.023 1486.25 325.218 1485.9 Q323.412 1485.56 321.468 1484.86 M330.773 1470.21 Q333.922 1470.21 335.75 1468.06 Q337.602 1465.9 337.602 1462.15 Q337.602 1458.43 335.75 1456.27 Q333.922 1454.1 330.773 1454.1 Q327.625 1454.1 325.773 1456.27 Q323.945 1458.43 323.945 1462.15 Q323.945 1465.9 325.773 1468.06 Q327.625 1470.21 330.773 1470.21 Z" fill="#000000" fill-rule="nonzero" fill-opacity="1" /><path clip-path="url(#clip400)" d="M361.491 1454.1 Q357.88 1454.1 356.051 1457.66 Q354.246 1461.2 354.246 1468.33 Q354.246 1475.44 356.051 1479.01 Q357.88 1482.55 361.491 1482.55 Q365.125 1482.55 366.931 1479.01 Q368.759 1475.44 368.759 1468.33 Q368.759 1461.2 366.931 1457.66 Q365.125 1454.1 361.491 1454.1 M361.491 1450.39 Q367.301 1450.39 370.357 1455 Q373.435 1459.58 373.435 1468.33 Q373.435 1477.06 370.357 1481.67 Q367.301 1486.25 361.491 1486.25 Q355.681 1486.25 352.602 1481.67 Q349.547 1477.06 349.547 1468.33 Q349.547 1459.58 352.602 1455 Q355.681 1450.39 361.491 1450.39 Z" fill="#000000" fill-rule="nonzero" fill-opacity="1" /><path clip-path="url(#clip400)" d="M746.546 1481.64 L762.865 1481.64 L762.865 1485.58 L740.921 1485.58 L740.921 1481.64 Q743.583 1478.89 748.166 1474.26 Q752.773 1469.61 753.953 1468.27 Q756.199 1465.74 757.078 1464.01 Q757.981 1462.25 757.981 1460.56 Q757.981 1457.8 756.037 1456.07 Q754.115 1454.33 751.014 1454.33 Q748.815 1454.33 746.361 1455.09 Q743.93 1455.86 741.153 1457.41 L741.153 1452.69 Q743.977 1451.55 746.43 1450.97 Q748.884 1450.39 750.921 1450.39 Q756.291 1450.39 759.486 1453.08 Q762.68 1455.77 762.68 1460.26 Q762.68 1462.39 761.87 1464.31 Q761.083 1466.2 758.977 1468.8 Q758.398 1469.47 755.296 1472.69 Q752.194 1475.88 746.546 1481.64 Z" fill="#000000" fill-rule="nonzero" fill-opacity="1" /><path clip-path="url(#clip400)" d="M785.527 1455.09 L773.722 1473.54 L785.527 1473.54 L785.527 1455.09 M784.301 1451.02 L790.18 1451.02 L790.18 1473.54 L795.111 1473.54 L795.111 1477.43 L790.18 1477.43 L790.18 1485.58 L785.527 1485.58 L785.527 1477.43 L769.926 1477.43 L769.926 1472.92 L784.301 1451.02 Z" fill="#000000" fill-rule="nonzero" fill-opacity="1" /><path clip-path="url(#clip400)" d="M802.842 1479.7 L807.726 1479.7 L807.726 1485.58 L802.842 1485.58 L802.842 1479.7 Z" fill="#000000" fill-rule="nonzero" fill-opacity="1" /><path clip-path="url(#clip400)" d="M818.05 1484.86 L818.05 1480.6 Q819.81 1481.44 821.615 1481.88 Q823.421 1482.32 825.157 1482.32 Q829.786 1482.32 832.217 1479.21 Q834.671 1476.09 835.018 1469.75 Q833.675 1471.74 831.615 1472.8 Q829.555 1473.87 827.055 1473.87 Q821.87 1473.87 818.837 1470.74 Q815.828 1467.59 815.828 1462.15 Q815.828 1456.83 818.976 1453.61 Q822.124 1450.39 827.356 1450.39 Q833.351 1450.39 836.499 1455 Q839.671 1459.58 839.671 1468.33 Q839.671 1476.51 835.782 1481.39 Q831.916 1486.25 825.365 1486.25 Q823.606 1486.25 821.8 1485.9 Q819.995 1485.56 818.05 1484.86 M827.356 1470.21 Q830.504 1470.21 832.333 1468.06 Q834.185 1465.9 834.185 1462.15 Q834.185 1458.43 832.333 1456.27 Q830.504 1454.1 827.356 1454.1 Q824.208 1454.1 822.356 1456.27 Q820.527 1458.43 820.527 1462.15 Q820.527 1465.9 822.356 1468.06 Q824.208 1470.21 827.356 1470.21 Z" fill="#000000" fill-rule="nonzero" fill-opacity="1" /><path clip-path="url(#clip400)" d="M848.12 1451.02 L866.476 1451.02 L866.476 1454.96 L852.402 1454.96 L852.402 1463.43 Q853.421 1463.08 854.439 1462.92 Q855.458 1462.73 856.476 1462.73 Q862.263 1462.73 865.643 1465.9 Q869.022 1469.08 869.022 1474.49 Q869.022 1480.07 865.55 1483.17 Q862.078 1486.25 855.758 1486.25 Q853.583 1486.25 851.314 1485.88 Q849.069 1485.51 846.661 1484.77 L846.661 1480.07 Q848.745 1481.2 850.967 1481.76 Q853.189 1482.32 855.666 1482.32 Q859.67 1482.32 862.008 1480.21 Q864.346 1478.1 864.346 1474.49 Q864.346 1470.88 862.008 1468.77 Q859.67 1466.67 855.666 1466.67 Q853.791 1466.67 851.916 1467.08 Q850.064 1467.5 848.12 1468.38 L848.12 1451.02 Z" fill="#000000" fill-rule="nonzero" fill-opacity="1" /><path clip-path="url(#clip400)" d="M1242.13 1481.64 L1258.45 1481.64 L1258.45 1485.58 L1236.51 1485.58 L1236.51 1481.64 Q1239.17 1478.89 1243.75 1474.26 Q1248.36 1469.61 1249.54 1468.27 Q1251.79 1465.74 1252.67 1464.01 Q1253.57 1462.25 1253.57 1460.56 Q1253.57 1457.8 1251.62 1456.07 Q1249.7 1454.33 1246.6 1454.33 Q1244.4 1454.33 1241.95 1455.09 Q1239.52 1455.86 1236.74 1457.41 L1236.74 1452.69 Q1239.56 1451.55 1242.02 1450.97 Q1244.47 1450.39 1246.51 1450.39 Q1251.88 1450.39 1255.07 1453.08 Q1258.27 1455.77 1258.27 1460.26 Q1258.27 1462.39 1257.46 1464.31 Q1256.67 1466.2 1254.56 1468.8 Q1253.98 1469.47 1250.88 1472.69 Q1247.78 1475.88 1242.13 1481.64 Z" fill="#000000" fill-rule="nonzero" fill-opacity="1" /><path clip-path="url(#clip400)" d="M1268.31 1451.02 L1286.67 1451.02 L1286.67 1454.96 L1272.6 1454.96 L1272.6 1463.43 Q1273.61 1463.08 1274.63 1462.92 Q1275.65 1462.73 1276.67 1462.73 Q1282.46 1462.73 1285.84 1465.9 Q1289.22 1469.08 1289.22 1474.49 Q1289.22 1480.07 1285.74 1483.17 Q1282.27 1486.25 1275.95 1486.25 Q1273.78 1486.25 1271.51 1485.88 Q1269.26 1485.51 1266.86 1484.77 L1266.86 1480.07 Q1268.94 1481.2 1271.16 1481.76 Q1273.38 1482.32 1275.86 1482.32 Q1279.86 1482.32 1282.2 1480.21 Q1284.54 1478.1 1284.54 1474.49 Q1284.54 1470.88 1282.2 1468.77 Q1279.86 1466.67 1275.86 1466.67 Q1273.98 1466.67 1272.11 1467.08 Q1270.26 1467.5 1268.31 1468.38 L1268.31 1451.02 Z" fill="#000000" fill-rule="nonzero" fill-opacity="1" /><path clip-path="url(#clip400)" d="M1298.43 1479.7 L1303.31 1479.7 L1303.31 1485.58 L1298.43 1485.58 L1298.43 1479.7 Z" fill="#000000" fill-rule="nonzero" fill-opacity="1" /><path clip-path="url(#clip400)" d="M1323.5 1454.1 Q1319.89 1454.1 1318.06 1457.66 Q1316.25 1461.2 1316.25 1468.33 Q1316.25 1475.44 1318.06 1479.01 Q1319.89 1482.55 1323.5 1482.55 Q1327.13 1482.55 1328.94 1479.01 Q1330.77 1475.44 1330.77 1468.33 Q1330.77 1461.2 1328.94 1457.66 Q1327.13 1454.1 1323.5 1454.1 M1323.5 1450.39 Q1329.31 1450.39 1332.36 1455 Q1335.44 1459.58 1335.44 1468.33 Q1335.44 1477.06 1332.36 1481.67 Q1329.31 1486.25 1323.5 1486.25 Q1317.69 1486.25 1314.61 1481.67 Q1311.55 1477.06 1311.55 1468.33 Q1311.55 1459.58 1314.61 1455 Q1317.69 1450.39 1323.5 1450.39 Z" fill="#000000" fill-rule="nonzero" fill-opacity="1" /><path clip-path="url(#clip400)" d="M1353.66 1454.1 Q1350.05 1454.1 1348.22 1457.66 Q1346.41 1461.2 1346.41 1468.33 Q1346.41 1475.44 1348.22 1479.01 Q1350.05 1482.55 1353.66 1482.55 Q1357.29 1482.55 1359.1 1479.01 Q1360.93 1475.44 1360.93 1468.33 Q1360.93 1461.2 1359.1 1457.66 Q1357.29 1454.1 1353.66 1454.1 M1353.66 1450.39 Q1359.47 1450.39 1362.53 1455 Q1365.6 1459.58 1365.6 1468.33 Q1365.6 1477.06 1362.53 1481.67 Q1359.47 1486.25 1353.66 1486.25 Q1347.85 1486.25 1344.77 1481.67 Q1341.72 1477.06 1341.72 1468.33 Q1341.72 1459.58 1344.77 1455 Q1347.85 1450.39 1353.66 1450.39 Z" fill="#000000" fill-rule="nonzero" fill-opacity="1" /><path clip-path="url(#clip400)" d="M1738.72 1481.64 L1755.03 1481.64 L1755.03 1485.58 L1733.09 1485.58 L1733.09 1481.64 Q1735.75 1478.89 1740.34 1474.26 Q1744.94 1469.61 1746.12 1468.27 Q1748.37 1465.74 1749.25 1464.01 Q1750.15 1462.25 1750.15 1460.56 Q1750.15 1457.8 1748.21 1456.07 Q1746.28 1454.33 1743.18 1454.33 Q1740.98 1454.33 1738.53 1455.09 Q1736.1 1455.86 1733.32 1457.41 L1733.32 1452.69 Q1736.15 1451.55 1738.6 1450.97 Q1741.05 1450.39 1743.09 1450.39 Q1748.46 1450.39 1751.66 1453.08 Q1754.85 1455.77 1754.85 1460.26 Q1754.85 1462.39 1754.04 1464.31 Q1753.25 1466.2 1751.15 1468.8 Q1750.57 1469.47 1747.47 1472.69 Q1744.36 1475.88 1738.72 1481.64 Z" fill="#000000" fill-rule="nonzero" fill-opacity="1" /><path clip-path="url(#clip400)" d="M1764.9 1451.02 L1783.25 1451.02 L1783.25 1454.96 L1769.18 1454.96 L1769.18 1463.43 Q1770.2 1463.08 1771.22 1462.92 Q1772.23 1462.73 1773.25 1462.73 Q1779.04 1462.73 1782.42 1465.9 Q1785.8 1469.08 1785.8 1474.49 Q1785.8 1480.07 1782.33 1483.17 Q1778.85 1486.25 1772.53 1486.25 Q1770.36 1486.25 1768.09 1485.88 Q1765.84 1485.51 1763.44 1484.77 L1763.44 1480.07 Q1765.52 1481.2 1767.74 1481.76 Q1769.97 1482.32 1772.44 1482.32 Q1776.45 1482.32 1778.78 1480.21 Q1781.12 1478.1 1781.12 1474.49 Q1781.12 1470.88 1778.78 1468.77 Q1776.45 1466.67 1772.44 1466.67 Q1770.57 1466.67 1768.69 1467.08 Q1766.84 1467.5 1764.9 1468.38 L1764.9 1451.02 Z" fill="#000000" fill-rule="nonzero" fill-opacity="1" /><path clip-path="url(#clip400)" d="M1795.01 1479.7 L1799.9 1479.7 L1799.9 1485.58 L1795.01 1485.58 L1795.01 1479.7 Z" fill="#000000" fill-rule="nonzero" fill-opacity="1" /><path clip-path="url(#clip400)" d="M1820.08 1454.1 Q1816.47 1454.1 1814.64 1457.66 Q1812.84 1461.2 1812.84 1468.33 Q1812.84 1475.44 1814.64 1479.01 Q1816.47 1482.55 1820.08 1482.55 Q1823.71 1482.55 1825.52 1479.01 Q1827.35 1475.44 1827.35 1468.33 Q1827.35 1461.2 1825.52 1457.66 Q1823.71 1454.1 1820.08 1454.1 M1820.08 1450.39 Q1825.89 1450.39 1828.95 1455 Q1832.03 1459.58 1832.03 1468.33 Q1832.03 1477.06 1828.95 1481.67 Q1825.89 1486.25 1820.08 1486.25 Q1814.27 1486.25 1811.19 1481.67 Q1808.14 1477.06 1808.14 1468.33 Q1808.14 1459.58 1811.19 1455 Q1814.27 1450.39 1820.08 1450.39 Z" fill="#000000" fill-rule="nonzero" fill-opacity="1" /><path clip-path="url(#clip400)" d="M1840.29 1451.02 L1858.65 1451.02 L1858.65 1454.96 L1844.57 1454.96 L1844.57 1463.43 Q1845.59 1463.08 1846.61 1462.92 Q1847.63 1462.73 1848.65 1462.73 Q1854.43 1462.73 1857.81 1465.9 Q1861.19 1469.08 1861.19 1474.49 Q1861.19 1480.07 1857.72 1483.17 Q1854.25 1486.25 1847.93 1486.25 Q1845.75 1486.25 1843.48 1485.88 Q1841.24 1485.51 1838.83 1484.77 L1838.83 1480.07 Q1840.91 1481.2 1843.14 1481.76 Q1845.36 1482.32 1847.84 1482.32 Q1851.84 1482.32 1854.18 1480.21 Q1856.52 1478.1 1856.52 1474.49 Q1856.52 1470.88 1854.18 1468.77 Q1851.84 1466.67 1847.84 1466.67 Q1845.96 1466.67 1844.09 1467.08 Q1842.23 1467.5 1840.29 1468.38 L1840.29 1451.02 Z" fill="#000000" fill-rule="nonzero" fill-opacity="1" /><path clip-path="url(#clip400)" d="M2234.3 1481.64 L2250.62 1481.64 L2250.62 1485.58 L2228.68 1485.58 L2228.68 1481.64 Q2231.34 1478.89 2235.92 1474.26 Q2240.53 1469.61 2241.71 1468.27 Q2243.96 1465.74 2244.83 1464.01 Q2245.74 1462.25 2245.74 1460.56 Q2245.74 1457.8 2243.79 1456.07 Q2241.87 1454.33 2238.77 1454.33 Q2236.57 1454.33 2234.12 1455.09 Q2231.69 1455.86 2228.91 1457.41 L2228.91 1452.69 Q2231.73 1451.55 2234.19 1450.97 Q2236.64 1450.39 2238.68 1450.39 Q2244.05 1450.39 2247.24 1453.08 Q2250.44 1455.77 2250.44 1460.26 Q2250.44 1462.39 2249.63 1464.31 Q2248.84 1466.2 2246.73 1468.8 Q2246.15 1469.47 2243.05 1472.69 Q2239.95 1475.88 2234.3 1481.64 Z" fill="#000000" fill-rule="nonzero" fill-opacity="1" /><path clip-path="url(#clip400)" d="M2260.48 1451.02 L2278.84 1451.02 L2278.84 1454.96 L2264.77 1454.96 L2264.77 1463.43 Q2265.78 1463.08 2266.8 1462.92 Q2267.82 1462.73 2268.84 1462.73 Q2274.63 1462.73 2278.01 1465.9 Q2281.39 1469.08 2281.39 1474.49 Q2281.39 1480.07 2277.91 1483.17 Q2274.44 1486.25 2268.12 1486.25 Q2265.95 1486.25 2263.68 1485.88 Q2261.43 1485.51 2259.02 1484.77 L2259.02 1480.07 Q2261.11 1481.2 2263.33 1481.76 Q2265.55 1482.32 2268.03 1482.32 Q2272.03 1482.32 2274.37 1480.21 Q2276.71 1478.1 2276.71 1474.49 Q2276.71 1470.88 2274.37 1468.77 Q2272.03 1466.67 2268.03 1466.67 Q2266.15 1466.67 2264.28 1467.08 Q2262.43 1467.5 2260.48 1468.38 L2260.48 1451.02 Z" fill="#000000" fill-rule="nonzero" fill-opacity="1" /><path clip-path="url(#clip400)" d="M2290.6 1479.7 L2295.48 1479.7 L2295.48 1485.58 L2290.6 1485.58 L2290.6 1479.7 Z" fill="#000000" fill-rule="nonzero" fill-opacity="1" /><path clip-path="url(#clip400)" d="M2306.48 1481.64 L2314.12 1481.64 L2314.12 1455.28 L2305.81 1456.95 L2305.81 1452.69 L2314.07 1451.02 L2318.75 1451.02 L2318.75 1481.64 L2326.39 1481.64 L2326.39 1485.58 L2306.48 1485.58 L2306.48 1481.64 Z" fill="#000000" fill-rule="nonzero" fill-opacity="1" /><path clip-path="url(#clip400)" d="M2345.83 1454.1 Q2342.22 1454.1 2340.39 1457.66 Q2338.58 1461.2 2338.58 1468.33 Q2338.58 1475.44 2340.39 1479.01 Q2342.22 1482.55 2345.83 1482.55 Q2349.46 1482.55 2351.27 1479.01 Q2353.1 1475.44 2353.1 1468.33 Q2353.1 1461.2 2351.27 1457.66 Q2349.46 1454.1 2345.83 1454.1 M2345.83 1450.39 Q2351.64 1450.39 2354.7 1455 Q2357.77 1459.58 2357.77 1468.33 Q2357.77 1477.06 2354.7 1481.67 Q2351.64 1486.25 2345.83 1486.25 Q2340.02 1486.25 2336.94 1481.67 Q2333.89 1477.06 2333.89 1468.33 Q2333.89 1459.58 2336.94 1455 Q2340.02 1450.39 2345.83 1450.39 Z" fill="#000000" fill-rule="nonzero" fill-opacity="1" /><path clip-path="url(#clip400)" d="M1009.22 1520.52 L1036.53 1520.52 L1036.53 1525.93 L1015.65 1525.93 L1015.65 1539.94 L1034.49 1539.94 L1034.49 1545.35 L1015.65 1545.35 L1015.65 1568.04 L1009.22 1568.04 L1009.22 1520.52 Z" fill="#000000" fill-rule="nonzero" fill-opacity="1" /><path clip-path="url(#clip400)" d="M1062.37 1537.87 Q1061.39 1537.3 1060.21 1537.04 Q1059.06 1536.76 1057.66 1536.76 Q1052.7 1536.76 1050.02 1540 Q1047.38 1543.22 1047.38 1549.27 L1047.38 1568.04 L1041.49 1568.04 L1041.49 1532.4 L1047.38 1532.4 L1047.38 1537.93 Q1049.23 1534.69 1052.19 1533.13 Q1055.15 1531.54 1059.38 1531.54 Q1059.99 1531.54 1060.72 1531.63 Q1061.45 1531.7 1062.34 1531.85 L1062.37 1537.87 Z" fill="#000000" fill-rule="nonzero" fill-opacity="1" /><path clip-path="url(#clip400)" d="M1097.58 1548.76 L1097.58 1551.62 L1070.65 1551.62 Q1071.03 1557.67 1074.28 1560.85 Q1077.56 1564 1083.38 1564 Q1086.75 1564 1089.91 1563.17 Q1093.09 1562.35 1096.21 1560.69 L1096.21 1566.23 Q1093.06 1567.57 1089.75 1568.27 Q1086.44 1568.97 1083.03 1568.97 Q1074.5 1568.97 1069.5 1564 Q1064.54 1559.04 1064.54 1550.57 Q1064.54 1541.82 1069.25 1536.69 Q1073.99 1531.54 1082.01 1531.54 Q1089.21 1531.54 1093.38 1536.18 Q1097.58 1540.8 1097.58 1548.76 M1091.72 1547.04 Q1091.66 1542.23 1089.01 1539.37 Q1086.4 1536.5 1082.08 1536.5 Q1077.17 1536.5 1074.21 1539.27 Q1071.29 1542.04 1070.84 1547.07 L1091.72 1547.04 Z" fill="#000000" fill-rule="nonzero" fill-opacity="1" /><path clip-path="url(#clip400)" d="M1110.69 1550.25 Q1110.69 1556.71 1113.33 1560.4 Q1116.01 1564.07 1120.65 1564.07 Q1125.3 1564.07 1127.97 1560.4 Q1130.65 1556.71 1130.65 1550.25 Q1130.65 1543.79 1127.97 1540.13 Q1125.3 1536.44 1120.65 1536.44 Q1116.01 1536.44 1113.33 1540.13 Q1110.69 1543.79 1110.69 1550.25 M1130.65 1562.7 Q1128.8 1565.88 1125.97 1567.44 Q1123.17 1568.97 1119.22 1568.97 Q1112.76 1568.97 1108.68 1563.81 Q1104.64 1558.65 1104.64 1550.25 Q1104.64 1541.85 1108.68 1536.69 Q1112.76 1531.54 1119.22 1531.54 Q1123.17 1531.54 1125.97 1533.1 Q1128.8 1534.62 1130.65 1537.81 L1130.65 1532.4 L1136.5 1532.4 L1136.5 1581.6 L1130.65 1581.6 L1130.65 1562.7 Z" fill="#000000" fill-rule="nonzero" fill-opacity="1" /><path clip-path="url(#clip400)" d="M1147.96 1553.98 L1147.96 1532.4 L1153.82 1532.4 L1153.82 1553.75 Q1153.82 1558.81 1155.79 1561.36 Q1157.76 1563.87 1161.71 1563.87 Q1166.45 1563.87 1169.19 1560.85 Q1171.96 1557.83 1171.96 1552.61 L1171.96 1532.4 L1177.82 1532.4 L1177.82 1568.04 L1171.96 1568.04 L1171.96 1562.57 Q1169.83 1565.82 1166.99 1567.41 Q1164.19 1568.97 1160.47 1568.97 Q1154.33 1568.97 1151.14 1565.15 Q1147.96 1561.33 1147.96 1553.98 M1162.7 1531.54 L1162.7 1531.54 Z" fill="#000000" fill-rule="nonzero" fill-opacity="1" /><path clip-path="url(#clip400)" d="M1220.37 1548.76 L1220.37 1551.62 L1193.44 1551.62 Q1193.83 1557.67 1197.07 1560.85 Q1200.35 1564 1206.18 1564 Q1209.55 1564 1212.7 1563.17 Q1215.88 1562.35 1219 1560.69 L1219 1566.23 Q1215.85 1567.57 1212.54 1568.27 Q1209.23 1568.97 1205.83 1568.97 Q1197.3 1568.97 1192.3 1564 Q1187.33 1559.04 1187.33 1550.57 Q1187.33 1541.82 1192.04 1536.69 Q1196.79 1531.54 1204.81 1531.54 Q1212 1531.54 1216.17 1536.18 Q1220.37 1540.8 1220.37 1548.76 M1214.51 1547.04 Q1214.45 1542.23 1211.81 1539.37 Q1209.2 1536.5 1204.87 1536.5 Q1199.97 1536.5 1197.01 1539.27 Q1194.08 1542.04 1193.64 1547.07 L1214.51 1547.04 Z" fill="#000000" fill-rule="nonzero" fill-opacity="1" /><path clip-path="url(#clip400)" d="M1259.62 1546.53 L1259.62 1568.04 L1253.76 1568.04 L1253.76 1546.72 Q1253.76 1541.66 1251.79 1539.14 Q1249.81 1536.63 1245.87 1536.63 Q1241.12 1536.63 1238.39 1539.65 Q1235.65 1542.68 1235.65 1547.9 L1235.65 1568.04 L1229.76 1568.04 L1229.76 1532.4 L1235.65 1532.4 L1235.65 1537.93 Q1237.75 1534.72 1240.58 1533.13 Q1243.45 1531.54 1247.17 1531.54 Q1253.31 1531.54 1256.46 1535.36 Q1259.62 1539.14 1259.62 1546.53 Z" fill="#000000" fill-rule="nonzero" fill-opacity="1" /><path clip-path="url(#clip400)" d="M1296.95 1533.76 L1296.95 1539.24 Q1294.47 1537.87 1291.95 1537.2 Q1289.47 1536.5 1286.92 1536.5 Q1281.23 1536.5 1278.08 1540.13 Q1274.93 1543.73 1274.93 1550.25 Q1274.93 1556.78 1278.08 1560.4 Q1281.23 1564 1286.92 1564 Q1289.47 1564 1291.95 1563.33 Q1294.47 1562.63 1296.95 1561.26 L1296.95 1566.68 Q1294.5 1567.82 1291.86 1568.39 Q1289.25 1568.97 1286.29 1568.97 Q1278.24 1568.97 1273.49 1563.91 Q1268.75 1558.85 1268.75 1550.25 Q1268.75 1541.53 1273.52 1536.53 Q1278.33 1531.54 1286.67 1531.54 Q1289.38 1531.54 1291.95 1532.11 Q1294.53 1532.65 1296.95 1533.76 Z" fill="#000000" fill-rule="nonzero" fill-opacity="1" /><path clip-path="url(#clip400)" d="M1307.14 1532.4 L1312.99 1532.4 L1312.99 1568.04 L1307.14 1568.04 L1307.14 1532.4 M1307.14 1518.52 L1312.99 1518.52 L1312.99 1525.93 L1307.14 1525.93 L1307.14 1518.52 Z" fill="#000000" fill-rule="nonzero" fill-opacity="1" /><path clip-path="url(#clip400)" d="M1355.74 1548.76 L1355.74 1551.62 L1328.81 1551.62 Q1329.19 1557.67 1332.44 1560.85 Q1335.72 1564 1341.54 1564 Q1344.92 1564 1348.07 1563.17 Q1351.25 1562.35 1354.37 1560.69 L1354.37 1566.23 Q1351.22 1567.57 1347.91 1568.27 Q1344.6 1568.97 1341.19 1568.97 Q1332.66 1568.97 1327.67 1564 Q1322.7 1559.04 1322.7 1550.57 Q1322.7 1541.82 1327.41 1536.69 Q1332.15 1531.54 1340.17 1531.54 Q1347.37 1531.54 1351.54 1536.18 Q1355.74 1540.8 1355.74 1548.76 M1349.88 1547.04 Q1349.82 1542.23 1347.18 1539.37 Q1344.57 1536.5 1340.24 1536.5 Q1335.34 1536.5 1332.38 1539.27 Q1329.45 1542.04 1329 1547.07 L1349.88 1547.04 Z" fill="#000000" fill-rule="nonzero" fill-opacity="1" /><path clip-path="url(#clip400)" d="M1388.08 1533.45 L1388.08 1538.98 Q1385.59 1537.71 1382.92 1537.07 Q1380.25 1536.44 1377.38 1536.44 Q1373.02 1536.44 1370.82 1537.77 Q1368.66 1539.11 1368.66 1541.79 Q1368.66 1543.82 1370.22 1545 Q1371.78 1546.15 1376.49 1547.2 L1378.5 1547.64 Q1384.73 1548.98 1387.34 1551.43 Q1389.99 1553.85 1389.99 1558.21 Q1389.99 1563.17 1386.04 1566.07 Q1382.12 1568.97 1375.25 1568.97 Q1372.38 1568.97 1369.26 1568.39 Q1366.18 1567.85 1362.74 1566.74 L1362.74 1560.69 Q1365.99 1562.38 1369.14 1563.24 Q1372.29 1564.07 1375.38 1564.07 Q1379.51 1564.07 1381.74 1562.66 Q1383.97 1561.23 1383.97 1558.65 Q1383.97 1556.27 1382.35 1554.99 Q1380.76 1553.72 1375.31 1552.54 L1373.28 1552.07 Q1367.83 1550.92 1365.41 1548.56 Q1362.99 1546.18 1362.99 1542.04 Q1362.99 1537.01 1366.56 1534.27 Q1370.12 1531.54 1376.68 1531.54 Q1379.93 1531.54 1382.79 1532.01 Q1385.66 1532.49 1388.08 1533.45 Z" fill="#000000" fill-rule="nonzero" fill-opacity="1" /><path clip-path="url(#clip400)" d="M1419.49 1518.52 L1432.99 1518.52 L1432.99 1523.07 L1425.35 1523.07 L1425.35 1572.09 L1432.99 1572.09 L1432.99 1576.64 L1419.49 1576.64 L1419.49 1518.52 Z" fill="#000000" fill-rule="nonzero" fill-opacity="1" /><path clip-path="url(#clip400)" d="M1478.12 1561.26 L1478.12 1548.5 L1467.62 1548.5 L1467.62 1543.22 L1484.48 1543.22 L1484.48 1563.62 Q1480.76 1566.26 1476.27 1567.63 Q1471.78 1568.97 1466.69 1568.97 Q1455.55 1568.97 1449.25 1562.47 Q1442.98 1555.95 1442.98 1544.33 Q1442.98 1532.68 1449.25 1526.19 Q1455.55 1519.66 1466.69 1519.66 Q1471.34 1519.66 1475.51 1520.81 Q1479.71 1521.96 1483.24 1524.18 L1483.24 1531.03 Q1479.68 1528 1475.67 1526.48 Q1471.66 1524.95 1467.23 1524.95 Q1458.51 1524.95 1454.12 1529.82 Q1449.76 1534.69 1449.76 1544.33 Q1449.76 1553.94 1454.12 1558.81 Q1458.51 1563.68 1467.23 1563.68 Q1470.64 1563.68 1473.31 1563.11 Q1475.99 1562.51 1478.12 1561.26 Z" fill="#000000" fill-rule="nonzero" fill-opacity="1" /><path clip-path="url(#clip400)" d="M1496.23 1520.52 L1502.66 1520.52 L1502.66 1540 L1526.02 1540 L1526.02 1520.52 L1532.45 1520.52 L1532.45 1568.04 L1526.02 1568.04 L1526.02 1545.41 L1502.66 1545.41 L1502.66 1568.04 L1496.23 1568.04 L1496.23 1520.52 Z" fill="#000000" fill-rule="nonzero" fill-opacity="1" /><path clip-path="url(#clip400)" d="M1542.44 1532.4 L1570.26 1532.4 L1570.26 1537.74 L1548.24 1563.37 L1570.26 1563.37 L1570.26 1568.04 L1541.65 1568.04 L1541.65 1562.7 L1563.67 1537.07 L1542.44 1537.07 L1542.44 1532.4 Z" fill="#000000" fill-rule="nonzero" fill-opacity="1" /><path clip-path="url(#clip400)" d="M1592.89 1518.52 L1592.89 1576.64 L1579.4 1576.64 L1579.4 1572.09 L1587 1572.09 L1587 1523.07 L1579.4 1523.07 L1579.4 1518.52 L1592.89 1518.52 Z" fill="#000000" fill-rule="nonzero" fill-opacity="1" /><polyline clip-path="url(#clip400)" style="stroke:#000000; stroke-linecap:round; stroke-linejoin:round; stroke-width:4; stroke-opacity:1; fill:none" points="249.357,1423.18 249.357,47.2441 "/>
<polyline clip-path="url(#clip400)" style="stroke:#000000; stroke-linecap:round; stroke-linejoin:round; stroke-width:4; stroke-opacity:1; fill:none" points="249.357,1358.65 268.254,1358.65 "/>
<polyline clip-path="url(#clip400)" style="stroke:#000000; stroke-linecap:round; stroke-linejoin:round; stroke-width:4; stroke-opacity:1; fill:none" points="249.357,1099.64 268.254,1099.64 "/>
<polyline clip-path="url(#clip400)" style="stroke:#000000; stroke-linecap:round; stroke-linejoin:round; stroke-width:4; stroke-opacity:1; fill:none" points="249.357,840.636 268.254,840.636 "/>
<polyline clip-path="url(#clip400)" style="stroke:#000000; stroke-linecap:round; stroke-linejoin:round; stroke-width:4; stroke-opacity:1; fill:none" points="249.357,581.628 268.254,581.628 "/>
<polyline clip-path="url(#clip400)" style="stroke:#000000; stroke-linecap:round; stroke-linejoin:round; stroke-width:4; stroke-opacity:1; fill:none" points="249.357,322.62 268.254,322.62 "/>
<polyline clip-path="url(#clip400)" style="stroke:#000000; stroke-linecap:round; stroke-linejoin:round; stroke-width:4; stroke-opacity:1; fill:none" points="249.357,63.6122 268.254,63.6122 "/>
<path clip-path="url(#clip400)" d="M126.691 1356.79 Q123.543 1356.79 121.691 1358.94 Q119.862 1361.09 119.862 1364.84 Q119.862 1368.57 121.691 1370.75 Q123.543 1372.9 126.691 1372.9 Q129.839 1372.9 131.667 1370.75 Q133.519 1368.57 133.519 1364.84 Q133.519 1361.09 131.667 1358.94 Q129.839 1356.79 126.691 1356.79 M135.973 1342.14 L135.973 1346.4 Q134.214 1345.56 132.408 1345.12 Q130.626 1344.68 128.867 1344.68 Q124.237 1344.68 121.783 1347.81 Q119.353 1350.93 119.006 1357.25 Q120.371 1355.24 122.431 1354.17 Q124.492 1353.09 126.968 1353.09 Q132.177 1353.09 135.186 1356.26 Q138.218 1359.4 138.218 1364.84 Q138.218 1370.17 135.07 1373.39 Q131.922 1376.6 126.691 1376.6 Q120.695 1376.6 117.524 1372.02 Q114.353 1367.41 114.353 1358.69 Q114.353 1350.49 118.242 1345.63 Q122.13 1340.75 128.681 1340.75 Q130.441 1340.75 132.223 1341.09 Q134.029 1341.44 135.973 1342.14 Z" fill="#000000" fill-rule="nonzero" fill-opacity="1" /><path clip-path="url(#clip400)" d="M146.32 1341.37 L164.677 1341.37 L164.677 1345.31 L150.603 1345.31 L150.603 1353.78 Q151.621 1353.43 152.64 1353.27 Q153.658 1353.09 154.677 1353.09 Q160.464 1353.09 163.843 1356.26 Q167.223 1359.43 167.223 1364.84 Q167.223 1370.42 163.751 1373.53 Q160.278 1376.6 153.959 1376.6 Q151.783 1376.6 149.515 1376.23 Q147.269 1375.86 144.862 1375.12 L144.862 1370.42 Q146.945 1371.56 149.167 1372.11 Q151.39 1372.67 153.866 1372.67 Q157.871 1372.67 160.209 1370.56 Q162.547 1368.46 162.547 1364.84 Q162.547 1361.23 160.209 1359.13 Q157.871 1357.02 153.866 1357.02 Q151.991 1357.02 150.116 1357.44 Q148.265 1357.85 146.32 1358.73 L146.32 1341.37 Z" fill="#000000" fill-rule="nonzero" fill-opacity="1" /><path clip-path="url(#clip400)" d="M176.436 1370.05 L181.32 1370.05 L181.32 1375.93 L176.436 1375.93 L176.436 1370.05 Z" fill="#000000" fill-rule="nonzero" fill-opacity="1" /><path clip-path="url(#clip400)" d="M201.505 1359.52 Q198.172 1359.52 196.25 1361.3 Q194.352 1363.09 194.352 1366.21 Q194.352 1369.34 196.25 1371.12 Q198.172 1372.9 201.505 1372.9 Q204.838 1372.9 206.76 1371.12 Q208.681 1369.31 208.681 1366.21 Q208.681 1363.09 206.76 1361.3 Q204.862 1359.52 201.505 1359.52 M196.829 1357.53 Q193.82 1356.79 192.13 1354.73 Q190.463 1352.67 190.463 1349.71 Q190.463 1345.56 193.403 1343.15 Q196.366 1340.75 201.505 1340.75 Q206.667 1340.75 209.607 1343.15 Q212.547 1345.56 212.547 1349.71 Q212.547 1352.67 210.857 1354.73 Q209.19 1356.79 206.204 1357.53 Q209.584 1358.32 211.459 1360.61 Q213.357 1362.9 213.357 1366.21 Q213.357 1371.23 210.278 1373.92 Q207.223 1376.6 201.505 1376.6 Q195.787 1376.6 192.709 1373.92 Q189.653 1371.23 189.653 1366.21 Q189.653 1362.9 191.551 1360.61 Q193.45 1358.32 196.829 1357.53 M195.116 1350.15 Q195.116 1352.83 196.783 1354.34 Q198.473 1355.84 201.505 1355.84 Q204.514 1355.84 206.204 1354.34 Q207.917 1352.83 207.917 1350.15 Q207.917 1347.46 206.204 1345.96 Q204.514 1344.45 201.505 1344.45 Q198.473 1344.45 196.783 1345.96 Q195.116 1347.46 195.116 1350.15 Z" fill="#000000" fill-rule="nonzero" fill-opacity="1" /><path clip-path="url(#clip400)" d="M126.783 1097.78 Q123.635 1097.78 121.783 1099.93 Q119.955 1102.09 119.955 1105.84 Q119.955 1109.56 121.783 1111.74 Q123.635 1113.89 126.783 1113.89 Q129.931 1113.89 131.76 1111.74 Q133.612 1109.56 133.612 1105.84 Q133.612 1102.09 131.76 1099.93 Q129.931 1097.78 126.783 1097.78 M136.066 1083.13 L136.066 1087.39 Q134.306 1086.55 132.501 1086.11 Q130.718 1085.67 128.959 1085.67 Q124.33 1085.67 121.876 1088.8 Q119.445 1091.92 119.098 1098.24 Q120.464 1096.23 122.524 1095.17 Q124.584 1094.08 127.061 1094.08 Q132.269 1094.08 135.279 1097.25 Q138.311 1100.4 138.311 1105.84 Q138.311 1111.16 135.163 1114.38 Q132.015 1117.6 126.783 1117.6 Q120.788 1117.6 117.617 1113.01 Q114.445 1108.41 114.445 1099.68 Q114.445 1091.48 118.334 1086.62 Q122.223 1081.74 128.774 1081.74 Q130.533 1081.74 132.316 1082.09 Q134.121 1082.43 136.066 1083.13 Z" fill="#000000" fill-rule="nonzero" fill-opacity="1" /><path clip-path="url(#clip400)" d="M146.413 1082.36 L164.769 1082.36 L164.769 1086.3 L150.695 1086.3 L150.695 1094.77 Q151.714 1094.42 152.732 1094.26 Q153.751 1094.08 154.769 1094.08 Q160.556 1094.08 163.936 1097.25 Q167.315 1100.42 167.315 1105.84 Q167.315 1111.42 163.843 1114.52 Q160.371 1117.6 154.052 1117.6 Q151.876 1117.6 149.607 1117.23 Q147.362 1116.85 144.954 1116.11 L144.954 1111.42 Q147.038 1112.55 149.26 1113.1 Q151.482 1113.66 153.959 1113.66 Q157.964 1113.66 160.302 1111.55 Q162.64 1109.45 162.64 1105.84 Q162.64 1102.23 160.302 1100.12 Q157.964 1098.01 153.959 1098.01 Q152.084 1098.01 150.209 1098.43 Q148.357 1098.85 146.413 1099.73 L146.413 1082.36 Z" fill="#000000" fill-rule="nonzero" fill-opacity="1" /><path clip-path="url(#clip400)" d="M176.528 1111.04 L181.413 1111.04 L181.413 1116.92 L176.528 1116.92 L176.528 1111.04 Z" fill="#000000" fill-rule="nonzero" fill-opacity="1" /><path clip-path="url(#clip400)" d="M191.737 1116.21 L191.737 1111.95 Q193.496 1112.78 195.301 1113.22 Q197.107 1113.66 198.843 1113.66 Q203.473 1113.66 205.903 1110.56 Q208.357 1107.43 208.704 1101.09 Q207.362 1103.08 205.301 1104.15 Q203.241 1105.21 200.741 1105.21 Q195.556 1105.21 192.524 1102.09 Q189.514 1098.94 189.514 1093.5 Q189.514 1088.17 192.663 1084.96 Q195.811 1081.74 201.042 1081.74 Q207.037 1081.74 210.186 1086.35 Q213.357 1090.93 213.357 1099.68 Q213.357 1107.85 209.468 1112.73 Q205.602 1117.6 199.051 1117.6 Q197.292 1117.6 195.487 1117.25 Q193.681 1116.9 191.737 1116.21 M201.042 1101.55 Q204.19 1101.55 206.019 1099.4 Q207.871 1097.25 207.871 1093.5 Q207.871 1089.77 206.019 1087.62 Q204.19 1085.44 201.042 1085.44 Q197.894 1085.44 196.042 1087.62 Q194.213 1089.77 194.213 1093.5 Q194.213 1097.25 196.042 1099.4 Q197.894 1101.55 201.042 1101.55 Z" fill="#000000" fill-rule="nonzero" fill-opacity="1" /><path clip-path="url(#clip400)" d="M126.598 838.773 Q123.45 838.773 121.598 840.926 Q119.769 843.078 119.769 846.828 Q119.769 850.555 121.598 852.731 Q123.45 854.884 126.598 854.884 Q129.746 854.884 131.575 852.731 Q133.427 850.555 133.427 846.828 Q133.427 843.078 131.575 840.926 Q129.746 838.773 126.598 838.773 M135.88 824.12 L135.88 828.379 Q134.121 827.546 132.316 827.106 Q130.533 826.667 128.774 826.667 Q124.144 826.667 121.691 829.791 Q119.26 832.916 118.913 839.236 Q120.279 837.222 122.339 836.157 Q124.399 835.069 126.876 835.069 Q132.084 835.069 135.093 838.241 Q138.126 841.389 138.126 846.828 Q138.126 852.152 134.978 855.37 Q131.83 858.588 126.598 858.588 Q120.603 858.588 117.431 854.004 Q114.26 849.398 114.26 840.671 Q114.26 832.477 118.149 827.616 Q122.038 822.731 128.589 822.731 Q130.348 822.731 132.13 823.079 Q133.936 823.426 135.88 824.12 Z" fill="#000000" fill-rule="nonzero" fill-opacity="1" /><path clip-path="url(#clip400)" d="M156.76 838.773 Q153.612 838.773 151.76 840.926 Q149.931 843.078 149.931 846.828 Q149.931 850.555 151.76 852.731 Q153.612 854.884 156.76 854.884 Q159.908 854.884 161.737 852.731 Q163.589 850.555 163.589 846.828 Q163.589 843.078 161.737 840.926 Q159.908 838.773 156.76 838.773 M166.042 824.12 L166.042 828.379 Q164.283 827.546 162.477 827.106 Q160.695 826.667 158.936 826.667 Q154.306 826.667 151.853 829.791 Q149.422 832.916 149.075 839.236 Q150.441 837.222 152.501 836.157 Q154.561 835.069 157.038 835.069 Q162.246 835.069 165.255 838.241 Q168.288 841.389 168.288 846.828 Q168.288 852.152 165.14 855.37 Q161.991 858.588 156.76 858.588 Q150.765 858.588 147.593 854.004 Q144.422 849.398 144.422 840.671 Q144.422 832.477 148.311 827.616 Q152.2 822.731 158.751 822.731 Q160.51 822.731 162.292 823.079 Q164.098 823.426 166.042 824.12 Z" fill="#000000" fill-rule="nonzero" fill-opacity="1" /><path clip-path="url(#clip400)" d="M176.343 852.037 L181.227 852.037 L181.227 857.916 L176.343 857.916 L176.343 852.037 Z" fill="#000000" fill-rule="nonzero" fill-opacity="1" /><path clip-path="url(#clip400)" d="M201.412 826.435 Q197.801 826.435 195.973 830 Q194.167 833.541 194.167 840.671 Q194.167 847.778 195.973 851.342 Q197.801 854.884 201.412 854.884 Q205.047 854.884 206.852 851.342 Q208.681 847.778 208.681 840.671 Q208.681 833.541 206.852 830 Q205.047 826.435 201.412 826.435 M201.412 822.731 Q207.223 822.731 210.278 827.338 Q213.357 831.921 213.357 840.671 Q213.357 849.398 210.278 854.004 Q207.223 858.588 201.412 858.588 Q195.602 858.588 192.524 854.004 Q189.468 849.398 189.468 840.671 Q189.468 831.921 192.524 827.338 Q195.602 822.731 201.412 822.731 Z" fill="#000000" fill-rule="nonzero" fill-opacity="1" /><path clip-path="url(#clip400)" d="M127.825 579.765 Q124.677 579.765 122.825 581.918 Q120.996 584.07 120.996 587.82 Q120.996 591.547 122.825 593.723 Q124.677 595.876 127.825 595.876 Q130.973 595.876 132.802 593.723 Q134.654 591.547 134.654 587.82 Q134.654 584.07 132.802 581.918 Q130.973 579.765 127.825 579.765 M137.107 565.112 L137.107 569.371 Q135.348 568.538 133.542 568.098 Q131.76 567.658 130.001 567.658 Q125.371 567.658 122.918 570.783 Q120.487 573.908 120.14 580.228 Q121.505 578.214 123.566 577.149 Q125.626 576.061 128.103 576.061 Q133.311 576.061 136.32 579.232 Q139.353 582.381 139.353 587.82 Q139.353 593.144 136.204 596.362 Q133.056 599.58 127.825 599.58 Q121.83 599.58 118.658 594.996 Q115.487 590.39 115.487 581.663 Q115.487 573.469 119.376 568.608 Q123.265 563.723 129.816 563.723 Q131.575 563.723 133.357 564.071 Q135.163 564.418 137.107 565.112 Z" fill="#000000" fill-rule="nonzero" fill-opacity="1" /><path clip-path="url(#clip400)" d="M157.987 579.765 Q154.839 579.765 152.987 581.918 Q151.158 584.07 151.158 587.82 Q151.158 591.547 152.987 593.723 Q154.839 595.876 157.987 595.876 Q161.135 595.876 162.964 593.723 Q164.815 591.547 164.815 587.82 Q164.815 584.07 162.964 581.918 Q161.135 579.765 157.987 579.765 M167.269 565.112 L167.269 569.371 Q165.51 568.538 163.704 568.098 Q161.922 567.658 160.163 567.658 Q155.533 567.658 153.079 570.783 Q150.649 573.908 150.302 580.228 Q151.667 578.214 153.728 577.149 Q155.788 576.061 158.265 576.061 Q163.473 576.061 166.482 579.232 Q169.514 582.381 169.514 587.82 Q169.514 593.144 166.366 596.362 Q163.218 599.58 157.987 599.58 Q151.991 599.58 148.82 594.996 Q145.649 590.39 145.649 581.663 Q145.649 573.469 149.538 568.608 Q153.427 563.723 159.978 563.723 Q161.737 563.723 163.519 564.071 Q165.325 564.418 167.269 565.112 Z" fill="#000000" fill-rule="nonzero" fill-opacity="1" /><path clip-path="url(#clip400)" d="M177.57 593.029 L182.454 593.029 L182.454 598.908 L177.57 598.908 L177.57 593.029 Z" fill="#000000" fill-rule="nonzero" fill-opacity="1" /><path clip-path="url(#clip400)" d="M193.45 594.973 L201.088 594.973 L201.088 568.608 L192.778 570.274 L192.778 566.015 L201.042 564.348 L205.718 564.348 L205.718 594.973 L213.357 594.973 L213.357 598.908 L193.45 598.908 L193.45 594.973 Z" fill="#000000" fill-rule="nonzero" fill-opacity="1" /><path clip-path="url(#clip400)" d="M128.195 320.757 Q125.047 320.757 123.195 322.91 Q121.367 325.062 121.367 328.812 Q121.367 332.539 123.195 334.715 Q125.047 336.868 128.195 336.868 Q131.343 336.868 133.172 334.715 Q135.024 332.539 135.024 328.812 Q135.024 325.062 133.172 322.91 Q131.343 320.757 128.195 320.757 M137.478 306.104 L137.478 310.363 Q135.718 309.53 133.913 309.09 Q132.13 308.65 130.371 308.65 Q125.742 308.65 123.288 311.775 Q120.857 314.9 120.51 321.22 Q121.876 319.206 123.936 318.141 Q125.996 317.053 128.473 317.053 Q133.681 317.053 136.691 320.224 Q139.723 323.373 139.723 328.812 Q139.723 334.136 136.575 337.354 Q133.427 340.572 128.195 340.572 Q122.2 340.572 119.029 335.988 Q115.857 331.382 115.857 322.655 Q115.857 314.461 119.746 309.6 Q123.635 304.715 130.186 304.715 Q131.945 304.715 133.728 305.062 Q135.533 305.41 137.478 306.104 Z" fill="#000000" fill-rule="nonzero" fill-opacity="1" /><path clip-path="url(#clip400)" d="M158.357 320.757 Q155.209 320.757 153.357 322.91 Q151.528 325.062 151.528 328.812 Q151.528 332.539 153.357 334.715 Q155.209 336.868 158.357 336.868 Q161.505 336.868 163.334 334.715 Q165.186 332.539 165.186 328.812 Q165.186 325.062 163.334 322.91 Q161.505 320.757 158.357 320.757 M167.64 306.104 L167.64 310.363 Q165.88 309.53 164.075 309.09 Q162.292 308.65 160.533 308.65 Q155.903 308.65 153.45 311.775 Q151.019 314.9 150.672 321.22 Q152.038 319.206 154.098 318.141 Q156.158 317.053 158.635 317.053 Q163.843 317.053 166.852 320.224 Q169.885 323.373 169.885 328.812 Q169.885 334.136 166.737 337.354 Q163.589 340.572 158.357 340.572 Q152.362 340.572 149.191 335.988 Q146.019 331.382 146.019 322.655 Q146.019 314.461 149.908 309.6 Q153.797 304.715 160.348 304.715 Q162.107 304.715 163.89 305.062 Q165.695 305.41 167.64 306.104 Z" fill="#000000" fill-rule="nonzero" fill-opacity="1" /><path clip-path="url(#clip400)" d="M177.94 334.021 L182.825 334.021 L182.825 339.9 L177.94 339.9 L177.94 334.021 Z" fill="#000000" fill-rule="nonzero" fill-opacity="1" /><path clip-path="url(#clip400)" d="M197.037 335.965 L213.357 335.965 L213.357 339.9 L191.413 339.9 L191.413 335.965 Q194.075 333.21 198.658 328.581 Q203.264 323.928 204.445 322.586 Q206.69 320.062 207.57 318.326 Q208.473 316.567 208.473 314.877 Q208.473 312.123 206.528 310.387 Q204.607 308.65 201.505 308.65 Q199.306 308.65 196.852 309.414 Q194.422 310.178 191.644 311.729 L191.644 307.007 Q194.468 305.873 196.922 305.294 Q199.375 304.715 201.412 304.715 Q206.783 304.715 209.977 307.4 Q213.172 310.086 213.172 314.576 Q213.172 316.706 212.361 318.627 Q211.574 320.525 209.468 323.118 Q208.889 323.789 205.787 327.007 Q202.686 330.201 197.037 335.965 Z" fill="#000000" fill-rule="nonzero" fill-opacity="1" /><path clip-path="url(#clip400)" d="M127.246 61.7488 Q124.098 61.7488 122.246 63.9016 Q120.418 66.0544 120.418 69.8043 Q120.418 73.5312 122.246 75.7071 Q124.098 77.8598 127.246 77.8598 Q130.394 77.8598 132.223 75.7071 Q134.075 73.5312 134.075 69.8043 Q134.075 66.0544 132.223 63.9016 Q130.394 61.7488 127.246 61.7488 M136.529 47.0961 L136.529 51.3554 Q134.769 50.522 132.964 50.0822 Q131.181 49.6424 129.422 49.6424 Q124.793 49.6424 122.339 52.7674 Q119.908 55.8924 119.561 62.2118 Q120.927 60.1979 122.987 59.1331 Q125.047 58.0451 127.524 58.0451 Q132.732 58.0451 135.742 61.2164 Q138.774 64.3645 138.774 69.8043 Q138.774 75.1284 135.626 78.346 Q132.478 81.5635 127.246 81.5635 Q121.251 81.5635 118.08 76.9802 Q114.908 72.3738 114.908 63.647 Q114.908 55.4526 118.797 50.5915 Q122.686 45.7072 129.237 45.7072 Q130.996 45.7072 132.779 46.0545 Q134.584 46.4017 136.529 47.0961 Z" fill="#000000" fill-rule="nonzero" fill-opacity="1" /><path clip-path="url(#clip400)" d="M157.408 61.7488 Q154.26 61.7488 152.408 63.9016 Q150.579 66.0544 150.579 69.8043 Q150.579 73.5312 152.408 75.7071 Q154.26 77.8598 157.408 77.8598 Q160.556 77.8598 162.385 75.7071 Q164.237 73.5312 164.237 69.8043 Q164.237 66.0544 162.385 63.9016 Q160.556 61.7488 157.408 61.7488 M166.69 47.0961 L166.69 51.3554 Q164.931 50.522 163.126 50.0822 Q161.343 49.6424 159.584 49.6424 Q154.954 49.6424 152.501 52.7674 Q150.07 55.8924 149.723 62.2118 Q151.089 60.1979 153.149 59.1331 Q155.209 58.0451 157.686 58.0451 Q162.894 58.0451 165.903 61.2164 Q168.936 64.3645 168.936 69.8043 Q168.936 75.1284 165.788 78.346 Q162.64 81.5635 157.408 81.5635 Q151.413 81.5635 148.241 76.9802 Q145.07 72.3738 145.07 63.647 Q145.07 55.4526 148.959 50.5915 Q152.848 45.7072 159.399 45.7072 Q161.158 45.7072 162.94 46.0545 Q164.746 46.4017 166.69 47.0961 Z" fill="#000000" fill-rule="nonzero" fill-opacity="1" /><path clip-path="url(#clip400)" d="M176.991 75.0126 L181.876 75.0126 L181.876 80.8922 L176.991 80.8922 L176.991 75.0126 Z" fill="#000000" fill-rule="nonzero" fill-opacity="1" /><path clip-path="url(#clip400)" d="M206.227 62.2581 Q209.584 62.9757 211.459 65.2442 Q213.357 67.5127 213.357 70.846 Q213.357 75.9617 209.838 78.7626 Q206.32 81.5635 199.838 81.5635 Q197.662 81.5635 195.348 81.1237 Q193.056 80.7071 190.602 79.8506 L190.602 75.3367 Q192.547 76.471 194.862 77.0497 Q197.176 77.6284 199.7 77.6284 Q204.098 77.6284 206.389 75.8923 Q208.704 74.1562 208.704 70.846 Q208.704 67.7905 206.551 66.0775 Q204.422 64.3414 200.602 64.3414 L196.575 64.3414 L196.575 60.4988 L200.787 60.4988 Q204.237 60.4988 206.065 59.1331 Q207.894 57.7442 207.894 55.1516 Q207.894 52.4896 205.996 51.0776 Q204.121 49.6424 200.602 49.6424 Q198.681 49.6424 196.482 50.0591 Q194.283 50.4757 191.644 51.3554 L191.644 47.1887 Q194.306 46.448 196.621 46.0776 Q198.959 45.7072 201.019 45.7072 Q206.343 45.7072 209.445 48.1378 Q212.547 50.5452 212.547 54.6655 Q212.547 57.5359 210.903 59.5266 Q209.26 61.4942 206.227 62.2581 Z" fill="#000000" fill-rule="nonzero" fill-opacity="1" /><path clip-path="url(#clip400)" d="M41.3104 969.884 L58.7206 969.884 L58.7206 959.571 Q58.7206 954.383 56.5881 951.901 Q54.4238 949.386 49.9996 949.386 Q45.5436 949.386 43.4429 951.901 Q41.3104 954.383 41.3104 959.571 L41.3104 969.884 M21.7677 969.884 L36.0905 969.884 L36.0905 960.367 Q36.0905 955.656 34.34 953.365 Q32.5576 951.041 28.9291 951.041 Q25.3325 951.041 23.5501 953.365 Q21.7677 955.656 21.7677 960.367 L21.7677 969.884 M16.4842 976.313 L16.4842 959.89 Q16.4842 952.537 19.5397 948.559 Q22.5952 944.58 28.2289 944.58 Q32.5894 944.58 35.1675 946.617 Q37.7456 948.654 38.3822 952.601 Q39.4007 947.858 42.6472 945.248 Q45.8619 942.607 50.6998 942.607 Q57.0655 942.607 60.5348 946.935 Q64.0042 951.264 64.0042 959.253 L64.0042 976.313 L16.4842 976.313 Z" fill="#000000" fill-rule="nonzero" fill-opacity="1" /><path clip-path="url(#clip400)" d="M32.4621 918.035 Q32.4621 922.746 36.1542 925.483 Q39.8145 928.22 46.212 928.22 Q52.6095 928.22 56.3017 925.515 Q59.9619 922.778 59.9619 918.035 Q59.9619 913.356 56.2698 910.619 Q52.5777 907.882 46.212 907.882 Q39.8781 907.882 36.186 910.619 Q32.4621 913.356 32.4621 918.035 M27.4968 918.035 Q27.4968 910.396 32.4621 906.036 Q37.4273 901.675 46.212 901.675 Q54.9649 901.675 59.9619 906.036 Q64.9272 910.396 64.9272 918.035 Q64.9272 925.706 59.9619 930.066 Q54.9649 934.395 46.212 934.395 Q37.4273 934.395 32.4621 930.066 Q27.4968 925.706 27.4968 918.035 Z" fill="#000000" fill-rule="nonzero" fill-opacity="1" /><path clip-path="url(#clip400)" d="M32.4621 878.154 Q32.4621 882.865 36.1542 885.602 Q39.8145 888.339 46.212 888.339 Q52.6095 888.339 56.3017 885.634 Q59.9619 882.896 59.9619 878.154 Q59.9619 873.475 56.2698 870.738 Q52.5777 868.001 46.212 868.001 Q39.8781 868.001 36.186 870.738 Q32.4621 873.475 32.4621 878.154 M27.4968 878.154 Q27.4968 870.515 32.4621 866.155 Q37.4273 861.794 46.212 861.794 Q54.9649 861.794 59.9619 866.155 Q64.9272 870.515 64.9272 878.154 Q64.9272 885.825 59.9619 890.185 Q54.9649 894.514 46.212 894.514 Q37.4273 894.514 32.4621 890.185 Q27.4968 885.825 27.4968 878.154 Z" fill="#000000" fill-rule="nonzero" fill-opacity="1" /><path clip-path="url(#clip400)" d="M29.4065 829.361 L34.9447 829.361 Q33.6716 831.843 33.035 834.517 Q32.3984 837.191 32.3984 840.055 Q32.3984 844.416 33.7352 846.612 Q35.072 848.776 37.7456 848.776 Q39.7826 848.776 40.9603 847.217 Q42.1061 845.657 43.1565 840.946 L43.6021 838.941 Q44.9389 832.703 47.3897 830.093 Q49.8086 827.451 54.1691 827.451 Q59.1344 827.451 62.0308 831.398 Q64.9272 835.313 64.9272 842.188 Q64.9272 845.052 64.3543 848.171 Q63.8132 851.259 62.6992 854.696 L56.6518 854.696 Q58.3387 851.45 59.198 848.299 Q60.0256 845.148 60.0256 842.06 Q60.0256 837.923 58.6251 835.695 Q57.1929 833.467 54.6147 833.467 Q52.2276 833.467 50.9545 835.09 Q49.6813 836.681 48.5037 842.124 L48.0262 844.161 Q46.8804 849.604 44.5251 852.023 Q42.138 854.442 38.0002 854.442 Q32.9713 854.442 30.2341 850.877 Q27.4968 847.312 27.4968 840.755 Q27.4968 837.509 27.9743 834.644 Q28.4517 831.78 29.4065 829.361 Z" fill="#000000" fill-rule="nonzero" fill-opacity="1" /><path clip-path="url(#clip400)" d="M18.2347 812.333 L28.3562 812.333 L28.3562 800.269 L32.9077 800.269 L32.9077 812.333 L52.2594 812.333 Q56.6199 812.333 57.8613 811.155 Q59.1026 809.945 59.1026 806.285 L59.1026 800.269 L64.0042 800.269 L64.0042 806.285 Q64.0042 813.065 61.4897 815.643 Q58.9434 818.221 52.2594 818.221 L32.9077 818.221 L32.9077 822.518 L28.3562 822.518 L28.3562 818.221 L18.2347 818.221 L18.2347 812.333 Z" fill="#000000" fill-rule="nonzero" fill-opacity="1" /><path clip-path="url(#clip400)" d="M16.4842 771.592 L16.4842 744.283 L21.895 744.283 L21.895 765.163 L35.8996 765.163 L35.8996 746.32 L41.3104 746.32 L41.3104 765.163 L64.0042 765.163 L64.0042 771.592 L16.4842 771.592 Z" fill="#000000" fill-rule="nonzero" fill-opacity="1" /><path clip-path="url(#clip400)" d="M46.0847 724.136 Q46.0847 731.233 47.7079 733.971 Q49.3312 736.708 53.2461 736.708 Q56.3653 736.708 58.2114 734.671 Q60.0256 732.602 60.0256 729.069 Q60.0256 724.199 56.5881 721.271 Q53.1188 718.311 47.3897 718.311 L46.0847 718.311 L46.0847 724.136 M43.6657 712.455 L64.0042 712.455 L64.0042 718.311 L58.5933 718.311 Q61.8398 720.316 63.3994 723.308 Q64.9272 726.3 64.9272 730.629 Q64.9272 736.103 61.8716 739.35 Q58.7843 742.564 53.6281 742.564 Q47.6125 742.564 44.5569 738.554 Q41.5014 734.512 41.5014 726.523 L41.5014 718.311 L40.9285 718.311 Q36.8862 718.311 34.6901 720.985 Q32.4621 723.626 32.4621 728.432 Q32.4621 731.488 33.1941 734.384 Q33.9262 737.281 35.3903 739.954 L29.9795 739.954 Q28.7381 736.74 28.1334 733.716 Q27.4968 730.692 27.4968 727.828 Q27.4968 720.093 31.5072 716.274 Q35.5176 712.455 43.6657 712.455 Z" fill="#000000" fill-rule="nonzero" fill-opacity="1" /><path clip-path="url(#clip400)" d="M29.7248 674.738 L35.1993 674.738 Q33.8307 677.22 33.1623 679.735 Q32.4621 682.217 32.4621 684.764 Q32.4621 690.461 36.0905 693.612 Q39.6872 696.763 46.212 696.763 Q52.7369 696.763 56.3653 693.612 Q59.9619 690.461 59.9619 684.764 Q59.9619 682.217 59.2935 679.735 Q58.5933 677.22 57.2247 674.738 L62.6355 674.738 Q63.7814 677.189 64.3543 679.83 Q64.9272 682.44 64.9272 685.4 Q64.9272 693.453 59.8664 698.195 Q54.8057 702.938 46.212 702.938 Q37.491 702.938 32.4939 698.164 Q27.4968 693.357 27.4968 685.018 Q27.4968 682.313 28.0697 679.735 Q28.6108 677.157 29.7248 674.738 Z" fill="#000000" fill-rule="nonzero" fill-opacity="1" /><path clip-path="url(#clip400)" d="M18.2347 658.76 L28.3562 658.76 L28.3562 646.697 L32.9077 646.697 L32.9077 658.76 L52.2594 658.76 Q56.6199 658.76 57.8613 657.582 Q59.1026 656.373 59.1026 652.712 L59.1026 646.697 L64.0042 646.697 L64.0042 652.712 Q64.0042 659.492 61.4897 662.07 Q58.9434 664.648 52.2594 664.648 L32.9077 664.648 L32.9077 668.945 L28.3562 668.945 L28.3562 664.648 L18.2347 664.648 L18.2347 658.76 Z" fill="#000000" fill-rule="nonzero" fill-opacity="1" /><path clip-path="url(#clip400)" d="M32.4621 625.181 Q32.4621 629.891 36.1542 632.629 Q39.8145 635.366 46.212 635.366 Q52.6095 635.366 56.3017 632.66 Q59.9619 629.923 59.9619 625.181 Q59.9619 620.502 56.2698 617.765 Q52.5777 615.027 46.212 615.027 Q39.8781 615.027 36.186 617.765 Q32.4621 620.502 32.4621 625.181 M27.4968 625.181 Q27.4968 617.542 32.4621 613.181 Q37.4273 608.821 46.212 608.821 Q54.9649 608.821 59.9619 613.181 Q64.9272 617.542 64.9272 625.181 Q64.9272 632.851 59.9619 637.212 Q54.9649 641.541 46.212 641.541 Q37.4273 641.541 32.4621 637.212 Q27.4968 632.851 27.4968 625.181 Z" fill="#000000" fill-rule="nonzero" fill-opacity="1" /><path clip-path="url(#clip400)" d="M33.8307 578.456 Q33.2578 579.443 33.0032 580.621 Q32.7167 581.767 32.7167 583.167 Q32.7167 588.132 35.9632 590.806 Q39.1779 593.448 45.2253 593.448 L64.0042 593.448 L64.0042 599.336 L28.3562 599.336 L28.3562 593.448 L33.8944 593.448 Q30.6479 591.602 29.0883 588.642 Q27.4968 585.682 27.4968 581.448 Q27.4968 580.844 27.5923 580.112 Q27.656 579.379 27.8151 578.488 L33.8307 578.456 Z" fill="#000000" fill-rule="nonzero" fill-opacity="1" /><path clip-path="url(#clip400)" d="M61.808 545.737 L77.5631 545.737 L77.5631 551.625 L28.579 551.625 Q14.0652 551.625 14.0652 538.066 Q14.0652 524.252 26.3192 524.252 Q35.0402 524.252 38.223 529.727 Q41.0876 520.815 49.5858 520.815 Q64.6726 520.815 64.6726 536.156 Q64.6726 542.904 61.808 545.737 M54.1691 545.737 Q59.6755 542.204 59.6755 535.934 Q59.6755 526.767 49.6813 526.767 Q40.7057 526.767 41.4059 541.535 L35.995 541.535 Q35.995 529.982 25.8099 529.982 Q18.8395 529.982 18.8395 537.429 Q18.8395 545.737 28.77 545.737 L54.1691 545.737 Z" fill="#000000" fill-rule="nonzero" fill-opacity="1" /><path clip-path="url(#clip400)" d="M39.1142 507.606 L39.1142 494.111 L42.7427 494.111 L42.7427 513.144 L39.2416 513.144 Q38.2549 512.062 36.4725 510.057 Q26.7648 499.108 23.7729 499.108 Q21.6722 499.108 20.3991 500.763 Q19.0941 502.418 19.0941 505.124 Q19.0941 506.779 19.667 508.72 Q20.2081 510.662 21.3221 512.953 L17.4072 512.953 Q16.516 510.503 16.0704 508.402 Q15.6248 506.269 15.6248 504.455 Q15.6248 499.84 17.7255 497.071 Q19.8262 494.302 23.2636 494.302 Q27.6878 494.302 36.7271 504.837 Q38.2549 506.619 39.1142 507.606 Z" fill="#000000" fill-rule="nonzero" fill-opacity="1" /><polyline clip-path="url(#clip402)" style="stroke:#009af9; stroke-linecap:round; stroke-linejoin:round; stroke-width:4; stroke-opacity:1; fill:none" points="308.887,736.686 310.873,739.818 312.86,742.942 314.846,746.058 316.832,749.167 318.819,752.268 320.805,755.362 322.791,758.448 324.778,761.526 326.764,764.597 328.75,767.66 330.737,770.715 332.723,773.763 334.709,776.803 336.696,779.836 338.682,782.861 340.668,785.878 342.655,788.888 344.641,791.89 346.627,794.884 348.614,797.871 350.6,800.85 352.586,803.822 354.572,806.786 356.559,809.742 358.545,812.691 360.531,815.632 362.518,818.565 364.504,821.491 366.49,824.409 368.477,827.32 370.463,830.223 372.449,833.118 374.436,836.006 376.422,838.886 378.408,841.759 380.395,844.624 382.381,847.481 384.367,850.331 386.354,853.173 388.34,856.007 390.326,858.834 392.313,861.653 394.299,864.465 396.285,867.269 398.272,870.065 400.258,872.854 402.244,875.635 404.231,878.409 406.217,881.175 408.203,883.933 410.19,886.684 412.176,889.427 414.162,892.162 416.149,894.89 418.135,897.61 420.121,900.323 422.108,903.028 424.094,905.725 426.08,908.415 428.067,911.097 430.053,913.772 432.039,916.439 434.025,919.098 436.012,921.75 437.998,924.394 439.984,927.031 441.971,929.66 443.957,932.281 445.943,934.895 447.93,937.501 449.916,940.1 451.902,942.691 453.889,945.274 455.875,947.85 457.861,950.418 459.848,952.978 461.834,955.531 463.82,958.077 465.807,960.614 467.793,963.144 469.779,965.667 471.766,968.182 473.752,970.689 475.738,973.189 477.725,975.681 479.711,978.165 481.697,980.642 483.684,983.112 485.67,985.573 487.656,988.027 489.643,990.474 491.629,992.913 493.615,995.344 495.602,997.768 497.588,1000.18 499.574,1002.59 501.561,1004.99 503.547,1007.39 505.533,1009.77 507.52,1012.15 509.506,1014.52 511.492,1016.88 513.478,1019.24 515.465,1021.59 517.451,1023.93 519.437,1026.26 521.424,1028.58 523.41,1030.9 525.396,1033.21 527.383,1035.51 529.369,1037.81 531.355,1040.1 533.342,1042.37 535.328,1044.65 537.314,1046.91 539.301,1049.17 541.287,1051.42 543.273,1053.66 545.26,1055.89 547.246,1058.12 549.232,1060.34 551.219,1062.55 553.205,1064.75 555.191,1066.95 557.178,1069.13 559.164,1071.32 561.15,1073.49 563.137,1075.65 565.123,1077.81 567.109,1079.96 569.096,1082.1 571.082,1084.24 573.068,1086.37 575.055,1088.49 577.041,1090.6 579.027,1092.7 581.014,1094.8 583,1096.89 584.986,1098.97 586.973,1101.05 588.959,1103.11 590.945,1105.17 592.931,1107.23 594.918,1109.27 596.904,1111.31 598.89,1113.34 600.877,1115.36 602.863,1117.37 604.849,1119.38 606.836,1121.38 608.822,1123.37 610.808,1125.35 612.795,1127.33 614.781,1129.29 616.767,1131.25 618.754,1133.21 620.74,1135.15 622.726,1137.09 624.713,1139.02 626.699,1140.94 628.685,1142.86 630.672,1144.77 632.658,1146.67 634.644,1148.56 636.631,1150.44 638.617,1152.32 640.603,1154.19 642.59,1156.05 644.576,1157.91 646.562,1159.75 648.549,1161.59 650.535,1163.43 652.521,1165.25 654.508,1167.07 656.494,1168.88 658.48,1170.68 660.467,1172.47 662.453,1174.26 664.439,1176.04 666.426,1177.81 668.412,1179.57 670.398,1181.33 672.384,1183.08 674.371,1184.82 676.357,1186.55 678.343,1188.27 680.33,1189.99 682.316,1191.7 684.302,1193.41 686.289,1195.1 688.275,1196.79 690.261,1198.47 692.248,1200.14 694.234,1201.81 696.22,1203.47 698.207,1205.12 700.193,1206.76 702.179,1208.39 704.166,1210.02 706.152,1211.64 708.138,1213.25 710.125,1214.86 712.111,1216.45 714.097,1218.04 716.084,1219.62 718.07,1221.2 720.056,1222.76 722.043,1224.32 724.029,1225.88 726.015,1227.42 728.002,1228.96 729.988,1230.48 731.974,1232.01 733.961,1233.52 735.947,1235.02 737.933,1236.52 739.92,1238.01 741.906,1239.5 743.892,1240.97 745.879,1242.44 747.865,1243.9 749.851,1245.36 751.837,1246.8 753.824,1248.24 755.81,1249.67 757.796,1251.09 759.783,1252.51 761.769,1253.91 763.755,1255.31 765.742,1256.71 767.728,1258.09 769.714,1259.47 771.701,1260.84 773.687,1262.2 775.673,1263.56 777.66,1264.9 779.646,1266.24 781.632,1267.57 783.619,1268.9 785.605,1270.22 787.591,1271.53 789.578,1272.83 791.564,1274.12 793.55,1275.41 795.537,1276.69 797.523,1277.96 799.509,1279.22 801.496,1280.48 803.482,1281.73 805.468,1282.97 807.455,1284.2 809.441,1285.43 811.427,1286.65 813.414,1287.86 815.4,1289.06 817.386,1290.26 819.373,1291.44 821.359,1292.63 823.345,1293.8 825.332,1294.96 827.318,1296.12 829.304,1297.27 831.291,1298.41 833.277,1299.55 835.263,1300.68 837.249,1301.8 839.236,1302.91 841.222,1304.02 843.208,1305.11 845.195,1306.2 847.181,1307.29 849.167,1308.36 851.154,1309.43 853.14,1310.49 855.126,1311.54 857.113,1312.58 859.099,1313.62 861.085,1314.65 863.072,1315.67 865.058,1316.69 867.044,1317.69 869.031,1318.69 871.017,1319.68 873.003,1320.67 874.99,1321.64 876.976,1322.61 878.962,1323.57 880.949,1324.53 882.935,1325.47 884.921,1326.41 886.908,1327.34 888.894,1328.27 890.88,1329.18 892.867,1330.09 894.853,1330.99 896.839,1331.89 898.826,1332.77 900.812,1333.65 902.798,1334.52 904.785,1335.38 906.771,1336.24 908.757,1337.09 910.744,1337.93 912.73,1338.76 914.716,1339.59 916.702,1340.4 918.689,1341.21 920.675,1342.02 922.661,1342.81 924.648,1343.6 926.634,1344.38 928.62,1345.15 930.607,1345.92 932.593,1346.67 934.579,1347.42 936.566,1348.16 938.552,1348.9 940.538,1349.63 942.525,1350.35 944.511,1351.06 946.497,1351.76 948.484,1352.46 950.47,1353.15 952.456,1353.83 954.443,1354.5 956.429,1355.17 958.415,1355.83 960.402,1356.48 962.388,1357.12 964.374,1357.76 966.361,1358.39 968.347,1359.01 970.333,1359.62 972.32,1360.23 974.306,1360.83 976.292,1361.42 978.279,1362 980.265,1362.58 982.251,1363.15 984.238,1363.71 986.224,1364.26 988.21,1364.81 990.197,1365.34 992.183,1365.88 994.169,1366.4 996.155,1366.91 998.142,1367.42 1000.13,1367.92 1002.11,1368.41 1004.1,1368.9 1006.09,1369.38 1008.07,1369.85 1010.06,1370.31 1012.05,1370.76 1014.03,1371.21 1016.02,1371.65 1018.01,1372.08 1019.99,1372.51 1021.98,1372.93 1023.96,1373.34 1025.95,1373.74 1027.94,1374.13 1029.92,1374.52 1031.91,1374.9 1033.9,1375.27 1035.88,1375.64 1037.87,1375.99 1039.85,1376.34 1041.84,1376.68 1043.83,1377.02 1045.81,1377.34 1047.8,1377.66 1049.79,1377.97 1051.77,1378.28 1053.76,1378.57 1055.75,1378.86 1057.73,1379.14 1059.72,1379.42 1061.7,1379.68 1063.69,1379.94 1065.68,1380.19 1067.66,1380.44 1069.65,1380.67 1071.64,1380.9 1073.62,1381.12 1075.61,1381.33 1077.59,1381.54 1079.58,1381.74 1081.57,1381.93 1083.55,1382.11 1085.54,1382.29 1087.53,1382.46 1089.51,1382.62 1091.5,1382.77 1093.49,1382.91 1095.47,1383.05 1097.46,1383.18 1099.44,1383.3 1101.43,1383.42 1103.42,1383.53 1105.4,1383.63 1107.39,1383.72 1109.38,1383.8 1111.36,1383.88 1113.35,1383.95 1115.33,1384.01 1117.32,1384.07 1119.31,1384.11 1121.29,1384.15 1123.28,1384.19 1125.27,1384.21 1127.25,1384.23 1129.24,1384.24 1131.23,1384.24 1133.21,1384.23 1135.2,1384.22 1137.18,1384.2 1139.17,1384.17 1141.16,1384.13 1143.14,1384.09 1145.13,1384.04 1147.12,1383.98 1149.1,1383.91 1151.09,1383.84 1153.08,1383.76 1155.06,1383.67 1157.05,1383.57 1159.03,1383.47 1161.02,1383.36 1163.01,1383.24 1164.99,1383.11 1166.98,1382.98 1168.97,1382.84 1170.95,1382.69 1172.94,1382.53 1174.92,1382.36 1176.91,1382.19 1178.9,1382.01 1180.88,1381.83 1182.87,1381.63 1184.86,1381.43 1186.84,1381.22 1188.83,1381 1190.82,1380.78 1192.8,1380.54 1194.79,1380.3 1196.77,1380.06 1198.76,1379.8 1200.75,1379.54 1202.73,1379.27 1204.72,1378.99 1206.71,1378.71 1208.69,1378.41 1210.68,1378.11 1212.66,1377.8 1214.65,1377.49 1216.64,1377.17 1218.62,1376.84 1220.61,1376.5 1222.6,1376.15 1224.58,1375.8 1226.57,1375.44 1228.56,1375.07 1230.54,1374.69 1232.53,1374.31 1234.51,1373.92 1236.5,1373.52 1238.49,1373.11 1240.47,1372.7 1242.46,1372.28 1244.45,1371.85 1246.43,1371.41 1248.42,1370.97 1250.41,1370.52 1252.39,1370.06 1254.38,1369.59 1256.36,1369.12 1258.35,1368.64 1260.34,1368.15 1262.32,1367.65 1264.31,1367.15 1266.3,1366.63 1268.28,1366.11 1270.27,1365.59 1272.25,1365.05 1274.24,1364.51 1276.23,1363.96 1278.21,1363.4 1280.2,1362.84 1282.19,1362.27 1284.17,1361.69 1286.16,1361.1 1288.15,1360.5 1290.13,1359.9 1292.12,1359.29 1294.1,1358.67 1296.09,1358.05 1298.08,1357.41 1300.06,1356.77 1302.05,1356.13 1304.04,1355.47 1306.02,1354.81 1308.01,1354.14 1309.99,1353.46 1311.98,1352.77 1313.97,1352.08 1315.95,1351.38 1317.94,1350.67 1319.93,1349.95 1321.91,1349.23 1323.9,1348.5 1325.89,1347.76 1327.87,1347.01 1329.86,1346.26 1331.84,1345.5 1333.83,1344.73 1335.82,1343.95 1337.8,1343.17 1339.79,1342.38 1341.78,1341.58 1343.76,1340.77 1345.75,1339.96 1347.74,1339.14 1349.72,1338.31 1351.71,1337.47 1353.69,1336.62 1355.68,1335.77 1357.67,1334.91 1359.65,1334.05 1361.64,1333.17 1363.63,1332.29 1365.61,1331.4 1367.6,1330.5 1369.58,1329.6 1371.57,1328.68 1373.56,1327.76 1375.54,1326.84 1377.53,1325.9 1379.52,1324.96 1381.5,1324.01 1383.49,1323.05 1385.48,1322.08 1387.46,1321.11 1389.45,1320.13 1391.43,1319.14 1393.42,1318.15 1395.41,1317.14 1397.39,1316.13 1399.38,1315.11 1401.37,1314.09 1403.35,1313.06 1405.34,1312.01 1407.32,1310.97 1409.31,1309.91 1411.3,1308.85 1413.28,1307.77 1415.27,1306.7 1417.26,1305.61 1419.24,1304.51 1421.23,1303.41 1423.22,1302.3 1425.2,1301.19 1427.19,1300.06 1429.17,1298.93 1431.16,1297.79 1433.15,1296.64 1435.13,1295.49 1437.12,1294.33 1439.11,1293.16 1441.09,1291.98 1443.08,1290.8 1445.06,1289.6 1447.05,1288.4 1449.04,1287.2 1451.02,1285.98 1453.01,1284.76 1455,1283.53 1456.98,1282.29 1458.97,1281.05 1460.96,1279.79 1462.94,1278.53 1464.93,1277.26 1466.91,1275.99 1468.9,1274.71 1470.89,1273.42 1472.87,1272.12 1474.86,1270.81 1476.85,1269.5 1478.83,1268.18 1480.82,1266.85 1482.81,1265.51 1484.79,1264.17 1486.78,1262.82 1488.76,1261.46 1490.75,1260.09 1492.74,1258.72 1494.72,1257.34 1496.71,1255.95 1498.7,1254.55 1500.68,1253.15 1502.67,1251.73 1504.65,1250.32 1506.64,1248.89 1508.63,1247.45 1510.61,1246.01 1512.6,1244.56 1514.59,1243.11 1516.57,1241.64 1518.56,1240.17 1520.55,1238.69 1522.53,1237.2 1524.52,1235.71 1526.5,1234.2 1528.49,1232.69 1530.48,1231.17 1532.46,1229.65 1534.45,1228.12 1536.44,1226.58 1538.42,1225.03 1540.41,1223.47 1542.39,1221.91 1544.38,1220.34 1546.37,1218.76 1548.35,1217.17 1550.34,1215.58 1552.33,1213.98 1554.31,1212.37 1556.3,1210.75 1558.29,1209.13 1560.27,1207.5 1562.26,1205.86 1564.24,1204.21 1566.23,1202.56 1568.22,1200.9 1570.2,1199.23 1572.19,1197.55 1574.18,1195.87 1576.16,1194.18 1578.15,1192.48 1580.14,1190.77 1582.12,1189.05 1584.11,1187.33 1586.09,1185.6 1588.08,1183.86 1590.07,1182.12 1592.05,1180.37 1594.04,1178.61 1596.03,1176.84 1598.01,1175.06 1600,1173.28 1601.98,1171.49 1603.97,1169.69 1605.96,1167.89 1607.94,1166.07 1609.93,1164.25 1611.92,1162.42 1613.9,1160.59 1615.89,1158.75 1617.88,1156.89 1619.86,1155.04 1621.85,1153.17 1623.83,1151.3 1625.82,1149.41 1627.81,1147.52 1629.79,1145.63 1631.78,1143.72 1633.77,1141.81 1635.75,1139.89 1637.74,1137.97 1639.72,1136.03 1641.71,1134.09 1643.7,1132.14 1645.68,1130.18 1647.67,1128.22 1649.66,1126.25 1651.64,1124.27 1653.63,1122.28 1655.62,1120.28 1657.6,1118.28 1659.59,1116.27 1661.57,1114.25 1663.56,1112.23 1665.55,1110.19 1667.53,1108.15 1669.52,1106.1 1671.51,1104.05 1673.49,1101.98 1675.48,1099.91 1677.46,1097.83 1679.45,1095.75 1681.44,1093.65 1683.42,1091.55 1685.41,1089.44 1687.4,1087.33 1689.38,1085.2 1691.37,1083.07 1693.36,1080.93 1695.34,1078.79 1697.33,1076.63 1699.31,1074.47 1701.3,1072.3 1703.29,1070.12 1705.27,1067.94 1707.26,1065.74 1709.25,1063.54 1711.23,1061.34 1713.22,1059.12 1715.21,1056.9 1717.19,1054.67 1719.18,1052.43 1721.16,1050.19 1723.15,1047.93 1725.14,1045.67 1727.12,1043.4 1729.11,1041.13 1731.1,1038.84 1733.08,1036.55 1735.07,1034.25 1737.05,1031.95 1739.04,1029.63 1741.03,1027.31 1743.01,1024.98 1745,1022.65 1746.99,1020.3 1748.97,1017.95 1750.96,1015.59 1752.95,1013.22 1754.93,1010.85 1756.92,1008.47 1758.9,1006.08 1760.89,1003.68 1762.88,1001.27 1764.86,998.86 1766.85,996.44 1768.84,994.012 1770.82,991.577 1772.81,989.134 1774.79,986.683 1776.78,984.225 1778.77,981.759 1780.75,979.285 1782.74,976.804 1784.73,974.315 1786.71,971.819 1788.7,969.315 1790.69,966.804 1792.67,964.285 1794.66,961.758 1796.64,959.224 1798.63,956.682 1800.62,954.132 1802.6,951.575 1804.59,949.01 1806.58,946.438 1808.56,943.858 1810.55,941.271 1812.54,938.675 1814.52,936.073 1816.51,933.462 1818.49,930.844 1820.48,928.219 1822.47,925.586 1824.45,922.945 1826.44,920.296 1828.43,917.64 1830.41,914.977 1832.4,912.305 1834.38,909.627 1836.37,906.94 1838.36,904.246 1840.34,901.545 1842.33,898.835 1844.32,896.118 1846.3,893.394 1848.29,890.662 1850.28,887.922 1852.26,885.175 1854.25,882.42 1856.23,879.657 1858.22,876.887 1860.21,874.109 1862.19,871.324 1864.18,868.531 1866.17,865.73 1868.15,862.922 1870.14,860.106 1872.12,857.283 1874.11,854.452 1876.1,851.613 1878.08,848.767 1880.07,845.913 1882.06,843.051 1884.04,840.182 1886.03,837.305 1888.02,834.421 1890,831.529 1891.99,828.629 1893.97,825.722 1895.96,822.807 1897.95,819.885 1899.93,816.955 1901.92,814.017 1903.91,811.072 1905.89,808.119 1907.88,805.158 1909.87,802.19 1911.85,799.214 1913.84,796.231 1915.82,793.239 1917.81,790.241 1919.8,787.234 1921.78,784.221 1923.77,781.199 1925.76,778.17 1927.74,775.133 1929.73,772.089 1931.71,769.037 1933.7,765.977 1935.69,762.91 1937.67,759.835 1939.66,756.752 1941.65,753.662 1943.63,750.564 1945.62,747.459 1947.61,744.345 1949.59,741.225 1951.58,738.096 1953.56,734.961 1955.55,731.817 1957.54,728.666 1959.52,725.507 1961.51,722.34 1963.5,719.166 1965.48,715.985 1967.47,712.795 1969.45,709.598 1971.44,706.394 1973.43,703.181 1975.41,699.961 1977.4,696.734 1979.39,693.499 1981.37,690.256 1983.36,687.005 1985.35,683.747 1987.33,680.482 1989.32,677.208 1991.3,673.927 1993.29,670.639 1995.28,667.343 1997.26,664.039 1999.25,660.727 2001.24,657.408 2003.22,654.081 2005.21,650.747 2007.19,647.405 2009.18,644.055 2011.17,640.698 2013.15,637.333 2015.14,633.96 2017.13,630.58 2019.11,627.192 2021.1,623.796 2023.09,620.393 2025.07,616.982 2027.06,613.564 2029.04,610.138 2031.03,606.704 2033.02,603.262 2035,599.813 2036.99,596.357 2038.98,592.892 2040.96,589.42 2042.95,585.941 2044.94,582.453 2046.92,578.958 2048.91,575.456 2050.89,571.946 2052.88,568.428 2054.87,564.902 2056.85,561.369 2058.84,557.828 2060.83,554.28 2062.81,550.724 2064.8,547.16 2066.78,543.588 2068.77,540.009 2070.76,536.423 2072.74,532.828 2074.73,529.226 2076.72,525.616 2078.7,521.999 2080.69,518.374 2082.68,514.741 2084.66,511.101 2086.65,507.453 2088.63,503.798 2090.62,500.134 2092.61,496.463 2094.59,492.785 2096.58,489.099 2098.57,485.405 2100.55,481.703 2102.54,477.994 2104.52,474.277 2106.51,470.553 2108.5,466.82 2110.48,463.081 2112.47,459.333 2114.46,455.578 2116.44,451.815 2118.43,448.045 2120.42,444.266 2122.4,440.481 2124.39,436.687 2126.37,432.886 2128.36,429.077 2130.35,425.261 2132.33,421.437 2134.32,417.605 2136.31,413.765 2138.29,409.918 2140.28,406.063 2142.27,402.201 2144.25,398.331 2146.24,394.453 2148.22,390.567 2150.21,386.674 2152.2,382.774 2154.18,378.865 2156.17,374.949 2158.16,371.025 2160.14,367.094 2162.13,363.154 2164.11,359.208 2166.1,355.253 2168.09,351.291 2170.07,347.321 2172.06,343.344 2174.05,339.358 2176.03,335.366 2178.02,331.365 2180.01,327.357 2181.99,323.341 2183.98,319.317 2185.96,315.286 2187.95,311.247 2189.94,307.2 2191.92,303.146 2193.91,299.084 2195.9,295.015 2197.88,290.937 2199.87,286.852 2201.85,282.76 2203.84,278.659 2205.83,274.551 2207.81,270.435 2209.8,266.312 2211.79,262.181 2213.77,258.042 2215.76,253.896 2217.75,249.742 2219.73,245.58 2221.72,241.41 2223.7,237.233 2225.69,233.048 2227.68,228.856 2229.66,224.655 2231.65,220.447 2233.64,216.232 2235.62,212.009 2237.61,207.778 2239.59,203.539 2241.58,199.292 2243.57,195.038 2245.55,190.777 2247.54,186.507 2249.53,182.23 2251.51,177.945 2253.5,173.653 2255.49,169.352 2257.47,165.044 2259.46,160.729 2261.44,156.406 2263.43,152.075 2265.42,147.736 2267.4,143.389 2269.39,139.035 2271.38,134.674 2273.36,130.304 2275.35,125.927 2277.34,121.542 2279.32,117.149 2281.31,112.749 2283.29,108.341 2285.28,103.925 2287.27,99.502 2289.25,95.071 2291.24,90.6322 2293.23,86.1857 "/>
<path clip-path="url(#clip400)" d="M319.47 196.789 L582.24 196.789 L582.24 93.1086 L319.47 93.1086  Z" fill="#ffffff" fill-rule="evenodd" fill-opacity="1"/>
<polyline clip-path="url(#clip400)" style="stroke:#000000; stroke-linecap:round; stroke-linejoin:round; stroke-width:4; stroke-opacity:1; fill:none" points="319.47,196.789 582.24,196.789 582.24,93.1086 319.47,93.1086 319.47,196.789 "/>
<polyline clip-path="url(#clip400)" style="stroke:#009af9; stroke-linecap:round; stroke-linejoin:round; stroke-width:4; stroke-opacity:1; fill:none" points="342.841,144.949 483.068,144.949 "/>
<path clip-path="url(#clip400)" d="M520.281 164.636 Q518.476 169.266 516.763 170.678 Q515.05 172.09 512.18 172.09 L508.777 172.09 L508.777 168.525 L511.277 168.525 Q513.036 168.525 514.008 167.692 Q514.981 166.858 516.161 163.756 L516.925 161.812 L506.439 136.303 L510.953 136.303 L519.055 156.581 L527.156 136.303 L531.67 136.303 L520.281 164.636 Z" fill="#000000" fill-rule="nonzero" fill-opacity="1" /><path clip-path="url(#clip400)" d="M538.962 158.293 L546.601 158.293 L546.601 131.928 L538.291 133.595 L538.291 129.335 L546.554 127.669 L551.23 127.669 L551.23 158.293 L558.869 158.293 L558.869 162.229 L538.962 162.229 L538.962 158.293 Z" fill="#000000" fill-rule="nonzero" fill-opacity="1" /></svg>
