<?xml version="1.0" encoding="utf-8"?>
<svg xmlns="http://www.w3.org/2000/svg" xmlns:xlink="http://www.w3.org/1999/xlink" width="600" height="400" viewBox="0 0 2400 1600">
<defs>
  <clipPath id="clip750">
    <rect x="0" y="0" width="2400" height="1600"/>
  </clipPath>
</defs>
<path clip-path="url(#clip750)" d="M0 1600 L2400 1600 L2400 0 L0 0  Z" fill="#ffffff" fill-rule="evenodd" fill-opacity="1"/>
<defs>
  <clipPath id="clip751">
    <rect x="480" y="0" width="1681" height="1600"/>
  </clipPath>
</defs>
<path clip-path="url(#clip750)" d="M249.357 1423.18 L2352.76 1423.18 L2352.76 47.2441 L249.357 47.2441  Z" fill="#ffffff" fill-rule="evenodd" fill-opacity="1"/>
<defs>
  <clipPath id="clip752">
    <rect x="249" y="47" width="2104" height="1377"/>
  </clipPath>
</defs>
<polyline clip-path="url(#clip752)" style="stroke:#000000; stroke-linecap:round; stroke-linejoin:round; stroke-width:2; stroke-opacity:0.1; fill:none" points="308.887,1423.18 308.887,47.2441 "/>
<polyline clip-path="url(#clip752)" style="stroke:#000000; stroke-linecap:round; stroke-linejoin:round; stroke-width:2; stroke-opacity:0.1; fill:none" points="970.333,1423.18 970.333,47.2441 "/>
<polyline clip-path="url(#clip752)" style="stroke:#000000; stroke-linecap:round; stroke-linejoin:round; stroke-width:2; stroke-opacity:0.1; fill:none" points="1631.78,1423.18 1631.78,47.2441 "/>
<polyline clip-path="url(#clip752)" style="stroke:#000000; stroke-linecap:round; stroke-linejoin:round; stroke-width:2; stroke-opacity:0.1; fill:none" points="2293.23,1423.18 2293.23,47.2441 "/>
<polyline clip-path="url(#clip752)" style="stroke:#000000; stroke-linecap:round; stroke-linejoin:round; stroke-width:2; stroke-opacity:0.1; fill:none" points="249.357,1384.58 2352.76,1384.58 "/>
<polyline clip-path="url(#clip752)" style="stroke:#000000; stroke-linecap:round; stroke-linejoin:round; stroke-width:2; stroke-opacity:0.1; fill:none" points="249.357,1110.77 2352.76,1110.77 "/>
<polyline clip-path="url(#clip752)" style="stroke:#000000; stroke-linecap:round; stroke-linejoin:round; stroke-width:2; stroke-opacity:0.1; fill:none" points="249.357,836.956 2352.76,836.956 "/>
<polyline clip-path="url(#clip752)" style="stroke:#000000; stroke-linecap:round; stroke-linejoin:round; stroke-width:2; stroke-opacity:0.1; fill:none" points="249.357,563.143 2352.76,563.143 "/>
<polyline clip-path="url(#clip752)" style="stroke:#000000; stroke-linecap:round; stroke-linejoin:round; stroke-width:2; stroke-opacity:0.1; fill:none" points="249.357,289.331 2352.76,289.331 "/>
<polyline clip-path="url(#clip750)" style="stroke:#000000; stroke-linecap:round; stroke-linejoin:round; stroke-width:4; stroke-opacity:1; fill:none" points="249.357,1423.18 2352.76,1423.18 "/>
<polyline clip-path="url(#clip750)" style="stroke:#000000; stroke-linecap:round; stroke-linejoin:round; stroke-width:4; stroke-opacity:1; fill:none" points="308.887,1423.18 308.887,1404.28 "/>
<polyline clip-path="url(#clip750)" style="stroke:#000000; stroke-linecap:round; stroke-linejoin:round; stroke-width:4; stroke-opacity:1; fill:none" points="970.333,1423.18 970.333,1404.28 "/>
<polyline clip-path="url(#clip750)" style="stroke:#000000; stroke-linecap:round; stroke-linejoin:round; stroke-width:4; stroke-opacity:1; fill:none" points="1631.78,1423.18 1631.78,1404.28 "/>
<polyline clip-path="url(#clip750)" style="stroke:#000000; stroke-linecap:round; stroke-linejoin:round; stroke-width:4; stroke-opacity:1; fill:none" points="2293.23,1423.18 2293.23,1404.28 "/>
<path clip-path="url(#clip750)" d="M299.269 1481.64 L306.908 1481.64 L306.908 1455.28 L298.598 1456.95 L298.598 1452.69 L306.862 1451.02 L311.537 1451.02 L311.537 1481.64 L319.176 1481.64 L319.176 1485.58 L299.269 1485.58 L299.269 1481.64 Z" fill="#000000" fill-rule="nonzero" fill-opacity="1" /><path clip-path="url(#clip750)" d="M964.986 1481.64 L981.305 1481.64 L981.305 1485.58 L959.361 1485.58 L959.361 1481.64 Q962.023 1478.89 966.606 1474.26 Q971.213 1469.61 972.393 1468.27 Q974.639 1465.74 975.518 1464.01 Q976.421 1462.25 976.421 1460.56 Q976.421 1457.8 974.477 1456.07 Q972.555 1454.33 969.454 1454.33 Q967.255 1454.33 964.801 1455.09 Q962.37 1455.86 959.593 1457.41 L959.593 1452.69 Q962.417 1451.55 964.87 1450.97 Q967.324 1450.39 969.361 1450.39 Q974.731 1450.39 977.926 1453.08 Q981.12 1455.77 981.12 1460.26 Q981.12 1462.39 980.31 1464.31 Q979.523 1466.2 977.417 1468.8 Q976.838 1469.47 973.736 1472.69 Q970.634 1475.88 964.986 1481.64 Z" fill="#000000" fill-rule="nonzero" fill-opacity="1" /><path clip-path="url(#clip750)" d="M1636.03 1466.95 Q1639.38 1467.66 1641.26 1469.93 Q1643.16 1472.2 1643.16 1475.53 Q1643.16 1480.65 1639.64 1483.45 Q1636.12 1486.25 1629.64 1486.25 Q1627.46 1486.25 1625.15 1485.81 Q1622.86 1485.39 1620.4 1484.54 L1620.4 1480.02 Q1622.35 1481.16 1624.66 1481.74 Q1626.98 1482.32 1629.5 1482.32 Q1633.9 1482.32 1636.19 1480.58 Q1638.5 1478.84 1638.5 1475.53 Q1638.5 1472.48 1636.35 1470.77 Q1634.22 1469.03 1630.4 1469.03 L1626.37 1469.03 L1626.37 1465.19 L1630.59 1465.19 Q1634.04 1465.19 1635.87 1463.82 Q1637.69 1462.43 1637.69 1459.84 Q1637.69 1457.18 1635.8 1455.77 Q1633.92 1454.33 1630.4 1454.33 Q1628.48 1454.33 1626.28 1454.75 Q1624.08 1455.16 1621.44 1456.04 L1621.44 1451.88 Q1624.11 1451.14 1626.42 1450.77 Q1628.76 1450.39 1630.82 1450.39 Q1636.14 1450.39 1639.24 1452.83 Q1642.35 1455.23 1642.35 1459.35 Q1642.35 1462.22 1640.7 1464.21 Q1639.06 1466.18 1636.03 1466.95 Z" fill="#000000" fill-rule="nonzero" fill-opacity="1" /><path clip-path="url(#clip750)" d="M2296.23 1455.09 L2284.43 1473.54 L2296.23 1473.54 L2296.23 1455.09 M2295.01 1451.02 L2300.89 1451.02 L2300.89 1473.54 L2305.82 1473.54 L2305.82 1477.43 L2300.89 1477.43 L2300.89 1485.58 L2296.23 1485.58 L2296.23 1477.43 L2280.63 1477.43 L2280.63 1472.92 L2295.01 1451.02 Z" fill="#000000" fill-rule="nonzero" fill-opacity="1" /><path clip-path="url(#clip750)" d="M1099.5 1525.81 L1099.5 1562.76 L1107.27 1562.76 Q1117.1 1562.76 1121.65 1558.3 Q1126.24 1553.85 1126.24 1544.24 Q1126.24 1534.69 1121.65 1530.26 Q1117.1 1525.81 1107.27 1525.81 L1099.5 1525.81 M1093.07 1520.52 L1106.28 1520.52 Q1120.1 1520.52 1126.56 1526.28 Q1133.02 1532.01 1133.02 1544.24 Q1133.02 1556.52 1126.52 1562.28 Q1120.03 1568.04 1106.28 1568.04 L1093.07 1568.04 L1093.07 1520.52 Z" fill="#000000" fill-rule="nonzero" fill-opacity="1" /><path clip-path="url(#clip750)" d="M1143.01 1532.4 L1148.87 1532.4 L1148.87 1568.04 L1143.01 1568.04 L1143.01 1532.4 M1143.01 1518.52 L1148.87 1518.52 L1148.87 1525.93 L1143.01 1525.93 L1143.01 1518.52 Z" fill="#000000" fill-rule="nonzero" fill-opacity="1" /><path clip-path="url(#clip750)" d="M1183.85 1533.45 L1183.85 1538.98 Q1181.37 1537.71 1178.69 1537.07 Q1176.02 1536.44 1173.15 1536.44 Q1168.79 1536.44 1166.6 1537.77 Q1164.43 1539.11 1164.43 1541.79 Q1164.43 1543.82 1165.99 1545 Q1167.55 1546.15 1172.26 1547.2 L1174.27 1547.64 Q1180.51 1548.98 1183.12 1551.43 Q1185.76 1553.85 1185.76 1558.21 Q1185.76 1563.17 1181.81 1566.07 Q1177.9 1568.97 1171.02 1568.97 Q1168.16 1568.97 1165.04 1568.39 Q1161.95 1567.85 1158.51 1566.74 L1158.51 1560.69 Q1161.76 1562.38 1164.91 1563.24 Q1168.06 1564.07 1171.15 1564.07 Q1175.29 1564.07 1177.51 1562.66 Q1179.74 1561.23 1179.74 1558.65 Q1179.74 1556.27 1178.12 1554.99 Q1176.53 1553.72 1171.08 1552.54 L1169.05 1552.07 Q1163.6 1550.92 1161.19 1548.56 Q1158.77 1546.18 1158.77 1542.04 Q1158.77 1537.01 1162.33 1534.27 Q1165.9 1531.54 1172.45 1531.54 Q1175.7 1531.54 1178.56 1532.01 Q1181.43 1532.49 1183.85 1533.45 Z" fill="#000000" fill-rule="nonzero" fill-opacity="1" /><path clip-path="url(#clip750)" d="M1220.74 1533.76 L1220.74 1539.24 Q1218.25 1537.87 1215.74 1537.2 Q1213.26 1536.5 1210.71 1536.5 Q1205.01 1536.5 1201.86 1540.13 Q1198.71 1543.73 1198.71 1550.25 Q1198.71 1556.78 1201.86 1560.4 Q1205.01 1564 1210.71 1564 Q1213.26 1564 1215.74 1563.33 Q1218.25 1562.63 1220.74 1561.26 L1220.74 1566.68 Q1218.29 1567.82 1215.64 1568.39 Q1213.03 1568.97 1210.07 1568.97 Q1202.02 1568.97 1197.28 1563.91 Q1192.54 1558.85 1192.54 1550.25 Q1192.54 1541.53 1197.31 1536.53 Q1202.12 1531.54 1210.46 1531.54 Q1213.16 1531.54 1215.74 1532.11 Q1218.32 1532.65 1220.74 1533.76 Z" fill="#000000" fill-rule="nonzero" fill-opacity="1" /><path clip-path="url(#clip750)" d="M1251.9 1520.52 L1258.33 1520.52 L1258.33 1568.04 L1251.9 1568.04 L1251.9 1520.52 Z" fill="#000000" fill-rule="nonzero" fill-opacity="1" /><path clip-path="url(#clip750)" d="M1300.5 1546.53 L1300.5 1568.04 L1294.64 1568.04 L1294.64 1546.72 Q1294.64 1541.66 1292.67 1539.14 Q1290.7 1536.63 1286.75 1536.63 Q1282.01 1536.63 1279.27 1539.65 Q1276.53 1542.68 1276.53 1547.9 L1276.53 1568.04 L1270.64 1568.04 L1270.64 1532.4 L1276.53 1532.4 L1276.53 1537.93 Q1278.63 1534.72 1281.47 1533.13 Q1284.33 1531.54 1288.05 1531.54 Q1294.2 1531.54 1297.35 1535.36 Q1300.5 1539.14 1300.5 1546.53 Z" fill="#000000" fill-rule="nonzero" fill-opacity="1" /><path clip-path="url(#clip750)" d="M1335.64 1537.81 L1335.64 1518.52 L1341.49 1518.52 L1341.49 1568.04 L1335.64 1568.04 L1335.64 1562.7 Q1333.79 1565.88 1330.96 1567.44 Q1328.16 1568.97 1324.21 1568.97 Q1317.75 1568.97 1313.68 1563.81 Q1309.63 1558.65 1309.63 1550.25 Q1309.63 1541.85 1313.68 1536.69 Q1317.75 1531.54 1324.21 1531.54 Q1328.16 1531.54 1330.96 1533.1 Q1333.79 1534.62 1335.64 1537.81 M1315.68 1550.25 Q1315.68 1556.71 1318.32 1560.4 Q1321 1564.07 1325.64 1564.07 Q1330.29 1564.07 1332.96 1560.4 Q1335.64 1556.71 1335.64 1550.25 Q1335.64 1543.79 1332.96 1540.13 Q1330.29 1536.44 1325.64 1536.44 Q1321 1536.44 1318.32 1540.13 Q1315.68 1543.79 1315.68 1550.25 Z" fill="#000000" fill-rule="nonzero" fill-opacity="1" /><path clip-path="url(#clip750)" d="M1384.05 1548.76 L1384.05 1551.62 L1357.12 1551.62 Q1357.5 1557.67 1360.75 1560.85 Q1364.03 1564 1369.85 1564 Q1373.23 1564 1376.38 1563.17 Q1379.56 1562.35 1382.68 1560.69 L1382.68 1566.23 Q1379.53 1567.57 1376.22 1568.27 Q1372.91 1568.97 1369.5 1568.97 Q1360.97 1568.97 1355.98 1564 Q1351.01 1559.04 1351.01 1550.57 Q1351.01 1541.82 1355.72 1536.69 Q1360.46 1531.54 1368.49 1531.54 Q1375.68 1531.54 1379.85 1536.18 Q1384.05 1540.8 1384.05 1548.76 M1378.19 1547.04 Q1378.13 1542.23 1375.49 1539.37 Q1372.88 1536.5 1368.55 1536.5 Q1363.65 1536.5 1360.69 1539.27 Q1357.76 1542.04 1357.31 1547.07 L1378.19 1547.04 Z" fill="#000000" fill-rule="nonzero" fill-opacity="1" /><path clip-path="url(#clip750)" d="M1422.15 1532.4 L1409.26 1549.74 L1422.82 1568.04 L1415.91 1568.04 L1405.53 1554.04 L1395.16 1568.04 L1388.25 1568.04 L1402.1 1549.39 L1389.43 1532.4 L1396.34 1532.4 L1405.79 1545.1 L1415.24 1532.4 L1422.15 1532.4 Z" fill="#000000" fill-rule="nonzero" fill-opacity="1" /><path clip-path="url(#clip750)" d="M1451.27 1518.52 L1464.77 1518.52 L1464.77 1523.07 L1457.13 1523.07 L1457.13 1572.09 L1464.77 1572.09 L1464.77 1576.64 L1451.27 1576.64 L1451.27 1518.52 Z" fill="#000000" fill-rule="nonzero" fill-opacity="1" /><path clip-path="url(#clip750)" d="M1477.24 1532.4 L1483.1 1532.4 L1483.1 1568.04 L1477.24 1568.04 L1477.24 1532.4 M1477.24 1518.52 L1483.1 1518.52 L1483.1 1525.93 L1477.24 1525.93 L1477.24 1518.52 Z" fill="#000000" fill-rule="nonzero" fill-opacity="1" /><path clip-path="url(#clip750)" d="M1509.04 1518.52 L1509.04 1576.64 L1495.54 1576.64 L1495.54 1572.09 L1503.15 1572.09 L1503.15 1523.07 L1495.54 1523.07 L1495.54 1518.52 L1509.04 1518.52 Z" fill="#000000" fill-rule="nonzero" fill-opacity="1" /><polyline clip-path="url(#clip750)" style="stroke:#000000; stroke-linecap:round; stroke-linejoin:round; stroke-width:4; stroke-opacity:1; fill:none" points="249.357,1423.18 249.357,47.2441 "/>
<polyline clip-path="url(#clip750)" style="stroke:#000000; stroke-linecap:round; stroke-linejoin:round; stroke-width:4; stroke-opacity:1; fill:none" points="249.357,1384.58 268.254,1384.58 "/>
<polyline clip-path="url(#clip750)" style="stroke:#000000; stroke-linecap:round; stroke-linejoin:round; stroke-width:4; stroke-opacity:1; fill:none" points="249.357,1110.77 268.254,1110.77 "/>
<polyline clip-path="url(#clip750)" style="stroke:#000000; stroke-linecap:round; stroke-linejoin:round; stroke-width:4; stroke-opacity:1; fill:none" points="249.357,836.956 268.254,836.956 "/>
<polyline clip-path="url(#clip750)" style="stroke:#000000; stroke-linecap:round; stroke-linejoin:round; stroke-width:4; stroke-opacity:1; fill:none" points="249.357,563.143 268.254,563.143 "/>
<polyline clip-path="url(#clip750)" style="stroke:#000000; stroke-linecap:round; stroke-linejoin:round; stroke-width:4; stroke-opacity:1; fill:none" points="249.357,289.331 268.254,289.331 "/>
<path clip-path="url(#clip750)" d="M116.066 1367.3 L134.422 1367.3 L134.422 1371.24 L120.348 1371.24 L120.348 1379.71 Q121.367 1379.36 122.385 1379.2 Q123.404 1379.01 124.422 1379.01 Q130.209 1379.01 133.589 1382.19 Q136.968 1385.36 136.968 1390.77 Q136.968 1396.35 133.496 1399.45 Q130.024 1402.53 123.705 1402.53 Q121.529 1402.53 119.26 1402.16 Q117.015 1401.79 114.607 1401.05 L114.607 1396.35 Q116.691 1397.49 118.913 1398.04 Q121.135 1398.6 123.612 1398.6 Q127.617 1398.6 129.955 1396.49 Q132.292 1394.38 132.292 1390.77 Q132.292 1387.16 129.955 1385.06 Q127.617 1382.95 123.612 1382.95 Q121.737 1382.95 119.862 1383.37 Q118.01 1383.78 116.066 1384.66 L116.066 1367.3 Z" fill="#000000" fill-rule="nonzero" fill-opacity="1" /><path clip-path="url(#clip750)" d="M146.181 1395.98 L151.066 1395.98 L151.066 1401.86 L146.181 1401.86 L146.181 1395.98 Z" fill="#000000" fill-rule="nonzero" fill-opacity="1" /><path clip-path="url(#clip750)" d="M171.251 1370.38 Q167.64 1370.38 165.811 1373.94 Q164.005 1377.49 164.005 1384.62 Q164.005 1391.72 165.811 1395.29 Q167.64 1398.83 171.251 1398.83 Q174.885 1398.83 176.69 1395.29 Q178.519 1391.72 178.519 1384.62 Q178.519 1377.49 176.69 1373.94 Q174.885 1370.38 171.251 1370.38 M171.251 1366.68 Q177.061 1366.68 180.116 1371.28 Q183.195 1375.87 183.195 1384.62 Q183.195 1393.34 180.116 1397.95 Q177.061 1402.53 171.251 1402.53 Q165.44 1402.53 162.362 1397.95 Q159.306 1393.34 159.306 1384.62 Q159.306 1375.87 162.362 1371.28 Q165.44 1366.68 171.251 1366.68 Z" fill="#000000" fill-rule="nonzero" fill-opacity="1" /><path clip-path="url(#clip750)" d="M201.412 1370.38 Q197.801 1370.38 195.973 1373.94 Q194.167 1377.49 194.167 1384.62 Q194.167 1391.72 195.973 1395.29 Q197.801 1398.83 201.412 1398.83 Q205.047 1398.83 206.852 1395.29 Q208.681 1391.72 208.681 1384.62 Q208.681 1377.49 206.852 1373.94 Q205.047 1370.38 201.412 1370.38 M201.412 1366.68 Q207.223 1366.68 210.278 1371.28 Q213.357 1375.87 213.357 1384.62 Q213.357 1393.34 210.278 1397.95 Q207.223 1402.53 201.412 1402.53 Q195.602 1402.53 192.524 1397.95 Q189.468 1393.34 189.468 1384.62 Q189.468 1375.87 192.524 1371.28 Q195.602 1366.68 201.412 1366.68 Z" fill="#000000" fill-rule="nonzero" fill-opacity="1" /><path clip-path="url(#clip750)" d="M117.061 1093.49 L135.417 1093.49 L135.417 1097.42 L121.343 1097.42 L121.343 1105.9 Q122.362 1105.55 123.38 1105.39 Q124.399 1105.2 125.418 1105.2 Q131.205 1105.2 134.584 1108.37 Q137.964 1111.54 137.964 1116.96 Q137.964 1122.54 134.492 1125.64 Q131.019 1128.72 124.7 1128.72 Q122.524 1128.72 120.255 1128.35 Q118.01 1127.98 115.603 1127.24 L115.603 1122.54 Q117.686 1123.67 119.908 1124.23 Q122.13 1124.78 124.607 1124.78 Q128.612 1124.78 130.95 1122.68 Q133.288 1120.57 133.288 1116.96 Q133.288 1113.35 130.95 1111.24 Q128.612 1109.14 124.607 1109.14 Q122.732 1109.14 120.857 1109.55 Q119.006 1109.97 117.061 1110.85 L117.061 1093.49 Z" fill="#000000" fill-rule="nonzero" fill-opacity="1" /><path clip-path="url(#clip750)" d="M147.177 1122.17 L152.061 1122.17 L152.061 1128.05 L147.177 1128.05 L147.177 1122.17 Z" fill="#000000" fill-rule="nonzero" fill-opacity="1" /><path clip-path="url(#clip750)" d="M166.274 1124.11 L182.593 1124.11 L182.593 1128.05 L160.649 1128.05 L160.649 1124.11 Q163.311 1121.36 167.894 1116.73 Q172.501 1112.08 173.681 1110.73 Q175.926 1108.21 176.806 1106.47 Q177.709 1104.72 177.709 1103.03 Q177.709 1100.27 175.764 1098.53 Q173.843 1096.8 170.741 1096.8 Q168.542 1096.8 166.089 1097.56 Q163.658 1098.33 160.88 1099.88 L160.88 1095.16 Q163.704 1094.02 166.158 1093.44 Q168.612 1092.86 170.649 1092.86 Q176.019 1092.86 179.214 1095.55 Q182.408 1098.23 182.408 1102.72 Q182.408 1104.85 181.598 1106.78 Q180.811 1108.67 178.704 1111.27 Q178.126 1111.94 175.024 1115.16 Q171.922 1118.35 166.274 1124.11 Z" fill="#000000" fill-rule="nonzero" fill-opacity="1" /><path clip-path="url(#clip750)" d="M192.454 1093.49 L210.811 1093.49 L210.811 1097.42 L196.737 1097.42 L196.737 1105.9 Q197.755 1105.55 198.774 1105.39 Q199.792 1105.2 200.811 1105.2 Q206.598 1105.2 209.977 1108.37 Q213.357 1111.54 213.357 1116.96 Q213.357 1122.54 209.885 1125.64 Q206.412 1128.72 200.093 1128.72 Q197.917 1128.72 195.649 1128.35 Q193.403 1127.98 190.996 1127.24 L190.996 1122.54 Q193.079 1123.67 195.301 1124.23 Q197.524 1124.78 200 1124.78 Q204.005 1124.78 206.343 1122.68 Q208.681 1120.57 208.681 1116.96 Q208.681 1113.35 206.343 1111.24 Q204.005 1109.14 200 1109.14 Q198.125 1109.14 196.25 1109.55 Q194.399 1109.97 192.454 1110.85 L192.454 1093.49 Z" fill="#000000" fill-rule="nonzero" fill-opacity="1" /><path clip-path="url(#clip750)" d="M116.066 819.676 L134.422 819.676 L134.422 823.611 L120.348 823.611 L120.348 832.083 Q121.367 831.736 122.385 831.574 Q123.404 831.389 124.422 831.389 Q130.209 831.389 133.589 834.56 Q136.968 837.731 136.968 843.148 Q136.968 848.727 133.496 851.829 Q130.024 854.907 123.705 854.907 Q121.529 854.907 119.26 854.537 Q117.015 854.167 114.607 853.426 L114.607 848.727 Q116.691 849.861 118.913 850.417 Q121.135 850.972 123.612 850.972 Q127.617 850.972 129.955 848.866 Q132.292 846.759 132.292 843.148 Q132.292 839.537 129.955 837.431 Q127.617 835.324 123.612 835.324 Q121.737 835.324 119.862 835.741 Q118.01 836.157 116.066 837.037 L116.066 819.676 Z" fill="#000000" fill-rule="nonzero" fill-opacity="1" /><path clip-path="url(#clip750)" d="M146.181 848.356 L151.066 848.356 L151.066 854.236 L146.181 854.236 L146.181 848.356 Z" fill="#000000" fill-rule="nonzero" fill-opacity="1" /><path clip-path="url(#clip750)" d="M161.297 819.676 L179.653 819.676 L179.653 823.611 L165.579 823.611 L165.579 832.083 Q166.598 831.736 167.616 831.574 Q168.635 831.389 169.653 831.389 Q175.44 831.389 178.82 834.56 Q182.2 837.731 182.2 843.148 Q182.2 848.727 178.727 851.829 Q175.255 854.907 168.936 854.907 Q166.76 854.907 164.491 854.537 Q162.246 854.167 159.839 853.426 L159.839 848.727 Q161.922 849.861 164.144 850.417 Q166.366 850.972 168.843 850.972 Q172.848 850.972 175.186 848.866 Q177.524 846.759 177.524 843.148 Q177.524 839.537 175.186 837.431 Q172.848 835.324 168.843 835.324 Q166.968 835.324 165.093 835.741 Q163.241 836.157 161.297 837.037 L161.297 819.676 Z" fill="#000000" fill-rule="nonzero" fill-opacity="1" /><path clip-path="url(#clip750)" d="M201.412 822.755 Q197.801 822.755 195.973 826.319 Q194.167 829.861 194.167 836.991 Q194.167 844.097 195.973 847.662 Q197.801 851.204 201.412 851.204 Q205.047 851.204 206.852 847.662 Q208.681 844.097 208.681 836.991 Q208.681 829.861 206.852 826.319 Q205.047 822.755 201.412 822.755 M201.412 819.051 Q207.223 819.051 210.278 823.657 Q213.357 828.241 213.357 836.991 Q213.357 845.718 210.278 850.324 Q207.223 854.907 201.412 854.907 Q195.602 854.907 192.524 850.324 Q189.468 845.718 189.468 836.991 Q189.468 828.241 192.524 823.657 Q195.602 819.051 201.412 819.051 Z" fill="#000000" fill-rule="nonzero" fill-opacity="1" /><path clip-path="url(#clip750)" d="M117.061 545.863 L135.417 545.863 L135.417 549.799 L121.343 549.799 L121.343 558.271 Q122.362 557.924 123.38 557.761 Q124.399 557.576 125.418 557.576 Q131.205 557.576 134.584 560.748 Q137.964 563.919 137.964 569.336 Q137.964 574.914 134.492 578.016 Q131.019 581.095 124.7 581.095 Q122.524 581.095 120.255 580.724 Q118.01 580.354 115.603 579.613 L115.603 574.914 Q117.686 576.048 119.908 576.604 Q122.13 577.16 124.607 577.16 Q128.612 577.16 130.95 575.053 Q133.288 572.947 133.288 569.336 Q133.288 565.724 130.95 563.618 Q128.612 561.511 124.607 561.511 Q122.732 561.511 120.857 561.928 Q119.006 562.345 117.061 563.224 L117.061 545.863 Z" fill="#000000" fill-rule="nonzero" fill-opacity="1" /><path clip-path="url(#clip750)" d="M147.177 574.544 L152.061 574.544 L152.061 580.423 L147.177 580.423 L147.177 574.544 Z" fill="#000000" fill-rule="nonzero" fill-opacity="1" /><path clip-path="url(#clip750)" d="M161.065 545.863 L183.288 545.863 L183.288 547.854 L170.741 580.423 L165.857 580.423 L177.663 549.799 L161.065 549.799 L161.065 545.863 Z" fill="#000000" fill-rule="nonzero" fill-opacity="1" /><path clip-path="url(#clip750)" d="M192.454 545.863 L210.811 545.863 L210.811 549.799 L196.737 549.799 L196.737 558.271 Q197.755 557.924 198.774 557.761 Q199.792 557.576 200.811 557.576 Q206.598 557.576 209.977 560.748 Q213.357 563.919 213.357 569.336 Q213.357 574.914 209.885 578.016 Q206.412 581.095 200.093 581.095 Q197.917 581.095 195.649 580.724 Q193.403 580.354 190.996 579.613 L190.996 574.914 Q193.079 576.048 195.301 576.604 Q197.524 577.16 200 577.16 Q204.005 577.16 206.343 575.053 Q208.681 572.947 208.681 569.336 Q208.681 565.724 206.343 563.618 Q204.005 561.511 200 561.511 Q198.125 561.511 196.25 561.928 Q194.399 562.345 192.454 563.224 L192.454 545.863 Z" fill="#000000" fill-rule="nonzero" fill-opacity="1" /><path clip-path="url(#clip750)" d="M126.598 287.467 Q123.45 287.467 121.598 289.62 Q119.769 291.773 119.769 295.523 Q119.769 299.25 121.598 301.426 Q123.45 303.578 126.598 303.578 Q129.746 303.578 131.575 301.426 Q133.427 299.25 133.427 295.523 Q133.427 291.773 131.575 289.62 Q129.746 287.467 126.598 287.467 M135.88 272.815 L135.88 277.074 Q134.121 276.241 132.316 275.801 Q130.533 275.361 128.774 275.361 Q124.144 275.361 121.691 278.486 Q119.26 281.611 118.913 287.93 Q120.279 285.916 122.339 284.852 Q124.399 283.764 126.876 283.764 Q132.084 283.764 135.093 286.935 Q138.126 290.083 138.126 295.523 Q138.126 300.847 134.978 304.065 Q131.83 307.282 126.598 307.282 Q120.603 307.282 117.431 302.699 Q114.26 298.092 114.26 289.366 Q114.26 281.171 118.149 276.31 Q122.038 271.426 128.589 271.426 Q130.348 271.426 132.13 271.773 Q133.936 272.12 135.88 272.815 Z" fill="#000000" fill-rule="nonzero" fill-opacity="1" /><path clip-path="url(#clip750)" d="M146.181 300.731 L151.066 300.731 L151.066 306.611 L146.181 306.611 L146.181 300.731 Z" fill="#000000" fill-rule="nonzero" fill-opacity="1" /><path clip-path="url(#clip750)" d="M171.251 275.13 Q167.64 275.13 165.811 278.694 Q164.005 282.236 164.005 289.366 Q164.005 296.472 165.811 300.037 Q167.64 303.578 171.251 303.578 Q174.885 303.578 176.69 300.037 Q178.519 296.472 178.519 289.366 Q178.519 282.236 176.69 278.694 Q174.885 275.13 171.251 275.13 M171.251 271.426 Q177.061 271.426 180.116 276.032 Q183.195 280.616 183.195 289.366 Q183.195 298.092 180.116 302.699 Q177.061 307.282 171.251 307.282 Q165.44 307.282 162.362 302.699 Q159.306 298.092 159.306 289.366 Q159.306 280.616 162.362 276.032 Q165.44 271.426 171.251 271.426 Z" fill="#000000" fill-rule="nonzero" fill-opacity="1" /><path clip-path="url(#clip750)" d="M201.412 275.13 Q197.801 275.13 195.973 278.694 Q194.167 282.236 194.167 289.366 Q194.167 296.472 195.973 300.037 Q197.801 303.578 201.412 303.578 Q205.047 303.578 206.852 300.037 Q208.681 296.472 208.681 289.366 Q208.681 282.236 206.852 278.694 Q205.047 275.13 201.412 275.13 M201.412 271.426 Q207.223 271.426 210.278 276.032 Q213.357 280.616 213.357 289.366 Q213.357 298.092 210.278 302.699 Q207.223 307.282 201.412 307.282 Q195.602 307.282 192.524 302.699 Q189.468 298.092 189.468 289.366 Q189.468 280.616 192.524 276.032 Q195.602 271.426 201.412 271.426 Z" fill="#000000" fill-rule="nonzero" fill-opacity="1" /><path clip-path="url(#clip750)" d="M21.7677 981.565 L58.7206 981.565 L58.7206 973.799 Q58.7206 963.964 54.2646 959.412 Q49.8086 954.829 40.1964 954.829 Q30.6479 954.829 26.2237 959.412 Q21.7677 963.964 21.7677 973.799 L21.7677 981.565 M16.4842 987.994 L16.4842 974.785 Q16.4842 960.972 22.2451 954.511 Q27.9743 948.049 40.1964 948.049 Q52.4822 948.049 58.2432 954.542 Q64.0042 961.035 64.0042 974.785 L64.0042 987.994 L16.4842 987.994 Z" fill="#000000" fill-rule="nonzero" fill-opacity="1" /><path clip-path="url(#clip750)" d="M28.3562 938.055 L28.3562 932.199 L64.0042 932.199 L64.0042 938.055 L28.3562 938.055 M14.479 938.055 L14.479 932.199 L21.895 932.199 L21.895 938.055 L14.479 938.055 Z" fill="#000000" fill-rule="nonzero" fill-opacity="1" /><path clip-path="url(#clip750)" d="M29.4065 897.219 L34.9447 897.219 Q33.6716 899.702 33.035 902.375 Q32.3984 905.049 32.3984 907.914 Q32.3984 912.274 33.7352 914.47 Q35.072 916.635 37.7456 916.635 Q39.7826 916.635 40.9603 915.075 Q42.1061 913.515 43.1565 908.805 L43.6021 906.8 Q44.9389 900.561 47.3897 897.951 Q49.8086 895.309 54.1691 895.309 Q59.1344 895.309 62.0308 899.256 Q64.9272 903.171 64.9272 910.046 Q64.9272 912.911 64.3543 916.03 Q63.8132 919.117 62.6992 922.555 L56.6518 922.555 Q58.3387 919.308 59.198 916.157 Q60.0256 913.006 60.0256 909.919 Q60.0256 905.781 58.6251 903.553 Q57.1929 901.325 54.6147 901.325 Q52.2276 901.325 50.9545 902.948 Q49.6813 904.54 48.5037 909.982 L48.0262 912.019 Q46.8804 917.462 44.5251 919.881 Q42.138 922.3 38.0002 922.3 Q32.9713 922.3 30.2341 918.735 Q27.4968 915.17 27.4968 908.614 Q27.4968 905.367 27.9743 902.503 Q28.4517 899.638 29.4065 897.219 Z" fill="#000000" fill-rule="nonzero" fill-opacity="1" /><path clip-path="url(#clip750)" d="M18.2347 880.191 L28.3562 880.191 L28.3562 868.128 L32.9077 868.128 L32.9077 880.191 L52.2594 880.191 Q56.6199 880.191 57.8613 879.013 Q59.1026 877.804 59.1026 874.144 L59.1026 868.128 L64.0042 868.128 L64.0042 874.144 Q64.0042 880.923 61.4897 883.501 Q58.9434 886.079 52.2594 886.079 L32.9077 886.079 L32.9077 890.376 L28.3562 890.376 L28.3562 886.079 L18.2347 886.079 L18.2347 880.191 Z" fill="#000000" fill-rule="nonzero" fill-opacity="1" /><path clip-path="url(#clip750)" d="M46.0847 844.225 Q46.0847 851.322 47.7079 854.06 Q49.3312 856.797 53.2461 856.797 Q56.3653 856.797 58.2114 854.76 Q60.0256 852.691 60.0256 849.158 Q60.0256 844.288 56.5881 841.36 Q53.1188 838.4 47.3897 838.4 L46.0847 838.4 L46.0847 844.225 M43.6657 832.544 L64.0042 832.544 L64.0042 838.4 L58.5933 838.4 Q61.8398 840.405 63.3994 843.397 Q64.9272 846.389 64.9272 850.718 Q64.9272 856.192 61.8716 859.439 Q58.7843 862.653 53.6281 862.653 Q47.6125 862.653 44.5569 858.643 Q41.5014 854.601 41.5014 846.612 L41.5014 838.4 L40.9285 838.4 Q36.8862 838.4 34.6901 841.074 Q32.4621 843.715 32.4621 848.522 Q32.4621 851.577 33.1941 854.473 Q33.9262 857.37 35.3903 860.043 L29.9795 860.043 Q28.7381 856.829 28.1334 853.805 Q27.4968 850.781 27.4968 847.917 Q27.4968 840.182 31.5072 836.363 Q35.5176 832.544 43.6657 832.544 Z" fill="#000000" fill-rule="nonzero" fill-opacity="1" /><path clip-path="url(#clip750)" d="M42.4881 790.848 L64.0042 790.848 L64.0042 796.705 L42.679 796.705 Q37.6183 796.705 35.1038 798.678 Q32.5894 800.651 32.5894 804.598 Q32.5894 809.341 35.6131 812.078 Q38.6368 814.815 43.8567 814.815 L64.0042 814.815 L64.0042 820.703 L28.3562 820.703 L28.3562 814.815 L33.8944 814.815 Q30.6797 812.714 29.0883 809.882 Q27.4968 807.017 27.4968 803.293 Q27.4968 797.15 31.3163 793.999 Q35.1038 790.848 42.4881 790.848 Z" fill="#000000" fill-rule="nonzero" fill-opacity="1" /><path clip-path="url(#clip750)" d="M29.7248 753.513 L35.1993 753.513 Q33.8307 755.996 33.1623 758.51 Q32.4621 760.993 32.4621 763.539 Q32.4621 769.237 36.0905 772.388 Q39.6872 775.539 46.212 775.539 Q52.7369 775.539 56.3653 772.388 Q59.9619 769.237 59.9619 763.539 Q59.9619 760.993 59.2935 758.51 Q58.5933 755.996 57.2247 753.513 L62.6355 753.513 Q63.7814 755.964 64.3543 758.606 Q64.9272 761.216 64.9272 764.176 Q64.9272 772.229 59.8664 776.971 Q54.8057 781.713 46.212 781.713 Q37.491 781.713 32.4939 776.939 Q27.4968 772.133 27.4968 763.794 Q27.4968 761.089 28.0697 758.51 Q28.6108 755.932 29.7248 753.513 Z" fill="#000000" fill-rule="nonzero" fill-opacity="1" /><path clip-path="url(#clip750)" d="M44.7161 712.837 L47.5806 712.837 L47.5806 739.763 Q53.6281 739.382 56.8109 736.135 Q59.9619 732.857 59.9619 727.032 Q59.9619 723.658 59.1344 720.507 Q58.3069 717.324 56.6518 714.205 L62.1899 714.205 Q63.5267 717.356 64.227 720.666 Q64.9272 723.976 64.9272 727.382 Q64.9272 735.912 59.9619 740.909 Q54.9967 745.875 46.5303 745.875 Q37.7774 745.875 32.6531 741.164 Q27.4968 736.421 27.4968 728.401 Q27.4968 721.207 32.1438 717.038 Q36.7589 712.837 44.7161 712.837 M42.9973 718.693 Q38.1912 718.757 35.3266 721.398 Q32.4621 724.008 32.4621 728.337 Q32.4621 733.239 35.2312 736.199 Q38.0002 739.127 43.0292 739.572 L42.9973 718.693 Z" fill="#000000" fill-rule="nonzero" fill-opacity="1" /><path clip-path="url(#clip750)" d="M29.4065 680.499 L34.9447 680.499 Q33.6716 682.981 33.035 685.655 Q32.3984 688.329 32.3984 691.193 Q32.3984 695.554 33.7352 697.75 Q35.072 699.914 37.7456 699.914 Q39.7826 699.914 40.9603 698.355 Q42.1061 696.795 43.1565 692.084 L43.6021 690.079 Q44.9389 683.841 47.3897 681.231 Q49.8086 678.589 54.1691 678.589 Q59.1344 678.589 62.0308 682.536 Q64.9272 686.451 64.9272 693.326 Q64.9272 696.19 64.3543 699.309 Q63.8132 702.397 62.6992 705.834 L56.6518 705.834 Q58.3387 702.588 59.198 699.437 Q60.0256 696.286 60.0256 693.198 Q60.0256 689.061 58.6251 686.833 Q57.1929 684.605 54.6147 684.605 Q52.2276 684.605 50.9545 686.228 Q49.6813 687.819 48.5037 693.262 L48.0262 695.299 Q46.8804 700.742 44.5251 703.161 Q42.138 705.58 38.0002 705.58 Q32.9713 705.58 30.2341 702.015 Q27.4968 698.45 27.4968 691.893 Q27.4968 688.647 27.9743 685.782 Q28.4517 682.918 29.4065 680.499 Z" fill="#000000" fill-rule="nonzero" fill-opacity="1" /><path clip-path="url(#clip750)" d="M14.479 649.084 L14.479 635.589 L19.0304 635.589 L19.0304 643.228 L68.0464 643.228 L68.0464 635.589 L72.5979 635.589 L72.5979 649.084 L14.479 649.084 Z" fill="#000000" fill-rule="nonzero" fill-opacity="1" /><path clip-path="url(#clip750)" d="M35.1993 595.357 Q31.2526 593.161 29.3747 590.106 Q27.4968 587.05 27.4968 582.912 Q27.4968 577.342 31.4117 574.319 Q35.2948 571.295 42.4881 571.295 L64.0042 571.295 L64.0042 577.183 L42.679 577.183 Q37.5546 577.183 35.072 578.998 Q32.5894 580.812 32.5894 584.536 Q32.5894 589.087 35.6131 591.729 Q38.6368 594.371 43.8567 594.371 L64.0042 594.371 L64.0042 600.259 L42.679 600.259 Q37.5228 600.259 35.072 602.073 Q32.5894 603.887 32.5894 607.675 Q32.5894 612.163 35.6449 614.805 Q38.6686 617.446 43.8567 617.446 L64.0042 617.446 L64.0042 623.335 L28.3562 623.335 L28.3562 617.446 L33.8944 617.446 Q30.616 615.441 29.0564 612.64 Q27.4968 609.839 27.4968 605.988 Q27.4968 602.105 29.4702 599.4 Q31.4436 596.662 35.1993 595.357 Z" fill="#000000" fill-rule="nonzero" fill-opacity="1" /><path clip-path="url(#clip750)" d="M35.1993 531.859 Q31.2526 529.663 29.3747 526.608 Q27.4968 523.552 27.4968 519.415 Q27.4968 513.845 31.4117 510.821 Q35.2948 507.797 42.4881 507.797 L64.0042 507.797 L64.0042 513.685 L42.679 513.685 Q37.5546 513.685 35.072 515.5 Q32.5894 517.314 32.5894 521.038 Q32.5894 525.589 35.6131 528.231 Q38.6368 530.873 43.8567 530.873 L64.0042 530.873 L64.0042 536.761 L42.679 536.761 Q37.5228 536.761 35.072 538.575 Q32.5894 540.39 32.5894 544.177 Q32.5894 548.665 35.6449 551.307 Q38.6686 553.948 43.8567 553.948 L64.0042 553.948 L64.0042 559.837 L28.3562 559.837 L28.3562 553.948 L33.8944 553.948 Q30.616 551.943 29.0564 549.142 Q27.4968 546.341 27.4968 542.49 Q27.4968 538.607 29.4702 535.902 Q31.4436 533.164 35.1993 531.859 Z" fill="#000000" fill-rule="nonzero" fill-opacity="1" /><path clip-path="url(#clip750)" d="M14.479 482.43 L72.5979 482.43 L72.5979 495.925 L68.0464 495.925 L68.0464 488.318 L19.0304 488.318 L19.0304 495.925 L14.479 495.925 L14.479 482.43 Z" fill="#000000" fill-rule="nonzero" fill-opacity="1" /><circle clip-path="url(#clip752)" cx="308.887" cy="86.1857" r="14.4" fill="#009af9" fill-rule="evenodd" fill-opacity="1" stroke="#000000" stroke-opacity="1" stroke-width="3.2"/>
<circle clip-path="url(#clip752)" cx="970.333" cy="1001.04" r="14.4" fill="#009af9" fill-rule="evenodd" fill-opacity="1" stroke="#000000" stroke-opacity="1" stroke-width="3.2"/>
<circle clip-path="url(#clip752)" cx="1631.78" cy="1265.84" r="14.4" fill="#009af9" fill-rule="evenodd" fill-opacity="1" stroke="#000000" stroke-opacity="1" stroke-width="3.2"/>
<circle clip-path="url(#clip752)" cx="2293.23" cy="1384.24" r="14.4" fill="#009af9" fill-rule="evenodd" fill-opacity="1" stroke="#000000" stroke-opacity="1" stroke-width="3.2"/>
<path clip-path="url(#clip750)" d="M2019.87 196.789 L2282.64 196.789 L2282.64 93.1086 L2019.87 93.1086  Z" fill="#ffffff" fill-rule="evenodd" fill-opacity="1"/>
<polyline clip-path="url(#clip750)" style="stroke:#000000; stroke-linecap:round; stroke-linejoin:round; stroke-width:4; stroke-opacity:1; fill:none" points="2019.87,196.789 2282.64,196.789 2282.64,93.1086 2019.87,93.1086 2019.87,196.789 "/>
<circle clip-path="url(#clip750)" cx="2113.36" cy="144.949" r="20.48" fill="#009af9" fill-rule="evenodd" fill-opacity="1" stroke="#000000" stroke-opacity="1" stroke-width="4.55111"/>
<path clip-path="url(#clip750)" d="M2220.68 164.636 Q2218.88 169.266 2217.17 170.678 Q2215.45 172.09 2212.58 172.09 L2209.18 172.09 L2209.18 168.525 L2211.68 168.525 Q2213.44 168.525 2214.41 167.692 Q2215.38 166.858 2216.56 163.756 L2217.33 161.812 L2206.84 136.303 L2211.36 136.303 L2219.46 156.581 L2227.56 136.303 L2232.07 136.303 L2220.68 164.636 Z" fill="#000000" fill-rule="nonzero" fill-opacity="1" /><path clip-path="url(#clip750)" d="M2239.36 158.293 L2247 158.293 L2247 131.928 L2238.69 133.595 L2238.69 129.335 L2246.96 127.669 L2251.63 127.669 L2251.63 158.293 L2259.27 158.293 L2259.27 162.229 L2239.36 162.229 L2239.36 158.293 Z" fill="#000000" fill-rule="nonzero" fill-opacity="1" /></svg>
