<?xml version="1.0" encoding="utf-8"?>
<svg xmlns="http://www.w3.org/2000/svg" xmlns:xlink="http://www.w3.org/1999/xlink" width="600" height="400" viewBox="0 0 2400 1600">
<defs>
  <clipPath id="clip520">
    <rect x="0" y="0" width="2400" height="1600"/>
  </clipPath>
</defs>
<path clip-path="url(#clip520)" d="M0 1600 L2400 1600 L2400 0 L0 0  Z" fill="#ffffff" fill-rule="evenodd" fill-opacity="1"/>
<defs>
  <clipPath id="clip521">
    <rect x="480" y="0" width="1681" height="1600"/>
  </clipPath>
</defs>
<path clip-path="url(#clip520)" d="M234.125 1423.18 L2352.76 1423.18 L2352.76 47.2441 L234.125 47.2441  Z" fill="#ffffff" fill-rule="evenodd" fill-opacity="1"/>
<defs>
  <clipPath id="clip522">
    <rect x="234" y="47" width="2120" height="1377"/>
  </clipPath>
</defs>
<polyline clip-path="url(#clip522)" style="stroke:#000000; stroke-linecap:round; stroke-linejoin:round; stroke-width:2; stroke-opacity:0.1; fill:none" points="294.087,1423.18 294.087,47.2441 "/>
<polyline clip-path="url(#clip522)" style="stroke:#000000; stroke-linecap:round; stroke-linejoin:round; stroke-width:2; stroke-opacity:0.1; fill:none" points="793.764,1423.18 793.764,47.2441 "/>
<polyline clip-path="url(#clip522)" style="stroke:#000000; stroke-linecap:round; stroke-linejoin:round; stroke-width:2; stroke-opacity:0.1; fill:none" points="1293.44,1423.18 1293.44,47.2441 "/>
<polyline clip-path="url(#clip522)" style="stroke:#000000; stroke-linecap:round; stroke-linejoin:round; stroke-width:2; stroke-opacity:0.1; fill:none" points="1793.12,1423.18 1793.12,47.2441 "/>
<polyline clip-path="url(#clip522)" style="stroke:#000000; stroke-linecap:round; stroke-linejoin:round; stroke-width:2; stroke-opacity:0.1; fill:none" points="2292.79,1423.18 2292.79,47.2441 "/>
<polyline clip-path="url(#clip522)" style="stroke:#000000; stroke-linecap:round; stroke-linejoin:round; stroke-width:2; stroke-opacity:0.1; fill:none" points="234.125,1302.28 2352.76,1302.28 "/>
<polyline clip-path="url(#clip522)" style="stroke:#000000; stroke-linecap:round; stroke-linejoin:round; stroke-width:2; stroke-opacity:0.1; fill:none" points="234.125,1043.9 2352.76,1043.9 "/>
<polyline clip-path="url(#clip522)" style="stroke:#000000; stroke-linecap:round; stroke-linejoin:round; stroke-width:2; stroke-opacity:0.1; fill:none" points="234.125,785.517 2352.76,785.517 "/>
<polyline clip-path="url(#clip522)" style="stroke:#000000; stroke-linecap:round; stroke-linejoin:round; stroke-width:2; stroke-opacity:0.1; fill:none" points="234.125,527.135 2352.76,527.135 "/>
<polyline clip-path="url(#clip522)" style="stroke:#000000; stroke-linecap:round; stroke-linejoin:round; stroke-width:2; stroke-opacity:0.1; fill:none" points="234.125,268.753 2352.76,268.753 "/>
<polyline clip-path="url(#clip520)" style="stroke:#000000; stroke-linecap:round; stroke-linejoin:round; stroke-width:4; stroke-opacity:1; fill:none" points="234.125,1423.18 2352.76,1423.18 "/>
<polyline clip-path="url(#clip520)" style="stroke:#000000; stroke-linecap:round; stroke-linejoin:round; stroke-width:4; stroke-opacity:1; fill:none" points="294.087,1423.18 294.087,1404.28 "/>
<polyline clip-path="url(#clip520)" style="stroke:#000000; stroke-linecap:round; stroke-linejoin:round; stroke-width:4; stroke-opacity:1; fill:none" points="793.764,1423.18 793.764,1404.28 "/>
<polyline clip-path="url(#clip520)" style="stroke:#000000; stroke-linecap:round; stroke-linejoin:round; stroke-width:4; stroke-opacity:1; fill:none" points="1293.44,1423.18 1293.44,1404.28 "/>
<polyline clip-path="url(#clip520)" style="stroke:#000000; stroke-linecap:round; stroke-linejoin:round; stroke-width:4; stroke-opacity:1; fill:none" points="1793.12,1423.18 1793.12,1404.28 "/>
<polyline clip-path="url(#clip520)" style="stroke:#000000; stroke-linecap:round; stroke-linejoin:round; stroke-width:4; stroke-opacity:1; fill:none" points="2292.79,1423.18 2292.79,1404.28 "/>
<path clip-path="url(#clip520)" d="M235.163 1481.64 L251.483 1481.64 L251.483 1485.58 L229.538 1485.58 L229.538 1481.64 Q232.2 1478.89 236.784 1474.26 Q241.39 1469.61 242.571 1468.27 Q244.816 1465.74 245.696 1464.01 Q246.599 1462.25 246.599 1460.56 Q246.599 1457.8 244.654 1456.07 Q242.733 1454.33 239.631 1454.33 Q237.432 1454.33 234.978 1455.09 Q232.548 1455.86 229.77 1457.41 L229.77 1452.69 Q232.594 1451.55 235.048 1450.97 Q237.501 1450.39 239.538 1450.39 Q244.909 1450.39 248.103 1453.08 Q251.298 1455.77 251.298 1460.26 Q251.298 1462.39 250.487 1464.31 Q249.7 1466.2 247.594 1468.8 Q247.015 1469.47 243.913 1472.69 Q240.812 1475.88 235.163 1481.64 Z" fill="#000000" fill-rule="nonzero" fill-opacity="1" /><path clip-path="url(#clip520)" d="M271.876 1466.44 Q268.728 1466.44 266.876 1468.59 Q265.047 1470.74 265.047 1474.49 Q265.047 1478.22 266.876 1480.39 Q268.728 1482.55 271.876 1482.55 Q275.024 1482.55 276.853 1480.39 Q278.705 1478.22 278.705 1474.49 Q278.705 1470.74 276.853 1468.59 Q275.024 1466.44 271.876 1466.44 M281.159 1451.78 L281.159 1456.04 Q279.399 1455.21 277.594 1454.77 Q275.811 1454.33 274.052 1454.33 Q269.422 1454.33 266.969 1457.45 Q264.538 1460.58 264.191 1466.9 Q265.557 1464.89 267.617 1463.82 Q269.677 1462.73 272.154 1462.73 Q277.362 1462.73 280.371 1465.9 Q283.404 1469.05 283.404 1474.49 Q283.404 1479.82 280.256 1483.03 Q277.108 1486.25 271.876 1486.25 Q265.881 1486.25 262.71 1481.67 Q259.538 1477.06 259.538 1468.33 Q259.538 1460.14 263.427 1455.28 Q267.316 1450.39 273.867 1450.39 Q275.626 1450.39 277.409 1450.74 Q279.214 1451.09 281.159 1451.78 Z" fill="#000000" fill-rule="nonzero" fill-opacity="1" /><path clip-path="url(#clip520)" d="M291.459 1479.7 L296.344 1479.7 L296.344 1485.58 L291.459 1485.58 L291.459 1479.7 Z" fill="#000000" fill-rule="nonzero" fill-opacity="1" /><path clip-path="url(#clip520)" d="M306.668 1484.86 L306.668 1480.6 Q308.427 1481.44 310.232 1481.88 Q312.038 1482.32 313.774 1482.32 Q318.404 1482.32 320.834 1479.21 Q323.288 1476.09 323.635 1469.75 Q322.293 1471.74 320.232 1472.8 Q318.172 1473.87 315.672 1473.87 Q310.487 1473.87 307.455 1470.74 Q304.445 1467.59 304.445 1462.15 Q304.445 1456.83 307.594 1453.61 Q310.742 1450.39 315.973 1450.39 Q321.968 1450.39 325.117 1455 Q328.288 1459.58 328.288 1468.33 Q328.288 1476.51 324.399 1481.39 Q320.533 1486.25 313.982 1486.25 Q312.223 1486.25 310.418 1485.9 Q308.612 1485.56 306.668 1484.86 M315.973 1470.21 Q319.121 1470.21 320.95 1468.06 Q322.802 1465.9 322.802 1462.15 Q322.802 1458.43 320.95 1456.27 Q319.121 1454.1 315.973 1454.1 Q312.825 1454.1 310.973 1456.27 Q309.144 1458.43 309.144 1462.15 Q309.144 1465.9 310.973 1468.06 Q312.825 1470.21 315.973 1470.21 Z" fill="#000000" fill-rule="nonzero" fill-opacity="1" /><path clip-path="url(#clip520)" d="M346.691 1454.1 Q343.079 1454.1 341.251 1457.66 Q339.445 1461.2 339.445 1468.33 Q339.445 1475.44 341.251 1479.01 Q343.079 1482.55 346.691 1482.55 Q350.325 1482.55 352.13 1479.01 Q353.959 1475.44 353.959 1468.33 Q353.959 1461.2 352.13 1457.66 Q350.325 1454.1 346.691 1454.1 M346.691 1450.39 Q352.501 1450.39 355.556 1455 Q358.635 1459.58 358.635 1468.33 Q358.635 1477.06 355.556 1481.67 Q352.501 1486.25 346.691 1486.25 Q340.88 1486.25 337.802 1481.67 Q334.746 1477.06 334.746 1468.33 Q334.746 1459.58 337.802 1455 Q340.88 1450.39 346.691 1450.39 Z" fill="#000000" fill-rule="nonzero" fill-opacity="1" /><path clip-path="url(#clip520)" d="M735.338 1481.64 L751.657 1481.64 L751.657 1485.58 L729.713 1485.58 L729.713 1481.64 Q732.375 1478.89 736.958 1474.26 Q741.565 1469.61 742.745 1468.27 Q744.991 1465.74 745.87 1464.01 Q746.773 1462.25 746.773 1460.56 Q746.773 1457.8 744.829 1456.07 Q742.907 1454.33 739.806 1454.33 Q737.607 1454.33 735.153 1455.09 Q732.722 1455.86 729.945 1457.41 L729.945 1452.69 Q732.769 1451.55 735.222 1450.97 Q737.676 1450.39 739.713 1450.39 Q745.083 1450.39 748.278 1453.08 Q751.472 1455.77 751.472 1460.26 Q751.472 1462.39 750.662 1464.31 Q749.875 1466.2 747.769 1468.8 Q747.19 1469.47 744.088 1472.69 Q740.986 1475.88 735.338 1481.64 Z" fill="#000000" fill-rule="nonzero" fill-opacity="1" /><path clip-path="url(#clip520)" d="M772.051 1466.44 Q768.903 1466.44 767.051 1468.59 Q765.222 1470.74 765.222 1474.49 Q765.222 1478.22 767.051 1480.39 Q768.903 1482.55 772.051 1482.55 Q775.199 1482.55 777.028 1480.39 Q778.88 1478.22 778.88 1474.49 Q778.88 1470.74 777.028 1468.59 Q775.199 1466.44 772.051 1466.44 M781.333 1451.78 L781.333 1456.04 Q779.574 1455.21 777.768 1454.77 Q775.986 1454.33 774.227 1454.33 Q769.597 1454.33 767.143 1457.45 Q764.713 1460.58 764.366 1466.9 Q765.731 1464.89 767.792 1463.82 Q769.852 1462.73 772.329 1462.73 Q777.537 1462.73 780.546 1465.9 Q783.579 1469.05 783.579 1474.49 Q783.579 1479.82 780.43 1483.03 Q777.282 1486.25 772.051 1486.25 Q766.055 1486.25 762.884 1481.67 Q759.713 1477.06 759.713 1468.33 Q759.713 1460.14 763.602 1455.28 Q767.491 1450.39 774.042 1450.39 Q775.801 1450.39 777.583 1450.74 Q779.389 1451.09 781.333 1451.78 Z" fill="#000000" fill-rule="nonzero" fill-opacity="1" /><path clip-path="url(#clip520)" d="M791.634 1479.7 L796.518 1479.7 L796.518 1485.58 L791.634 1485.58 L791.634 1479.7 Z" fill="#000000" fill-rule="nonzero" fill-opacity="1" /><path clip-path="url(#clip520)" d="M806.842 1484.86 L806.842 1480.6 Q808.602 1481.44 810.407 1481.88 Q812.213 1482.32 813.949 1482.32 Q818.578 1482.32 821.009 1479.21 Q823.463 1476.09 823.81 1469.75 Q822.467 1471.74 820.407 1472.8 Q818.347 1473.87 815.847 1473.87 Q810.662 1473.87 807.629 1470.74 Q804.62 1467.59 804.62 1462.15 Q804.62 1456.83 807.768 1453.61 Q810.916 1450.39 816.148 1450.39 Q822.143 1450.39 825.291 1455 Q828.463 1459.58 828.463 1468.33 Q828.463 1476.51 824.574 1481.39 Q820.708 1486.25 814.157 1486.25 Q812.398 1486.25 810.592 1485.9 Q808.787 1485.56 806.842 1484.86 M816.148 1470.21 Q819.296 1470.21 821.125 1468.06 Q822.976 1465.9 822.976 1462.15 Q822.976 1458.43 821.125 1456.27 Q819.296 1454.1 816.148 1454.1 Q813 1454.1 811.148 1456.27 Q809.319 1458.43 809.319 1462.15 Q809.319 1465.9 811.148 1468.06 Q813 1470.21 816.148 1470.21 Z" fill="#000000" fill-rule="nonzero" fill-opacity="1" /><path clip-path="url(#clip520)" d="M836.912 1451.02 L855.268 1451.02 L855.268 1454.96 L841.194 1454.96 L841.194 1463.43 Q842.212 1463.08 843.231 1462.92 Q844.25 1462.73 845.268 1462.73 Q851.055 1462.73 854.435 1465.9 Q857.814 1469.08 857.814 1474.49 Q857.814 1480.07 854.342 1483.17 Q850.87 1486.25 844.55 1486.25 Q842.375 1486.25 840.106 1485.88 Q837.861 1485.51 835.453 1484.77 L835.453 1480.07 Q837.537 1481.2 839.759 1481.76 Q841.981 1482.32 844.458 1482.32 Q848.462 1482.32 850.8 1480.21 Q853.138 1478.1 853.138 1474.49 Q853.138 1470.88 850.8 1468.77 Q848.462 1466.67 844.458 1466.67 Q842.583 1466.67 840.708 1467.08 Q838.856 1467.5 836.912 1468.38 L836.912 1451.02 Z" fill="#000000" fill-rule="nonzero" fill-opacity="1" /><path clip-path="url(#clip520)" d="M1234.52 1481.64 L1250.84 1481.64 L1250.84 1485.58 L1228.89 1485.58 L1228.89 1481.64 Q1231.55 1478.89 1236.14 1474.26 Q1240.74 1469.61 1241.92 1468.27 Q1244.17 1465.74 1245.05 1464.01 Q1245.95 1462.25 1245.95 1460.56 Q1245.95 1457.8 1244.01 1456.07 Q1242.09 1454.33 1238.98 1454.33 Q1236.79 1454.33 1234.33 1455.09 Q1231.9 1455.86 1229.12 1457.41 L1229.12 1452.69 Q1231.95 1451.55 1234.4 1450.97 Q1236.86 1450.39 1238.89 1450.39 Q1244.26 1450.39 1247.46 1453.08 Q1250.65 1455.77 1250.65 1460.26 Q1250.65 1462.39 1249.84 1464.31 Q1249.05 1466.2 1246.95 1468.8 Q1246.37 1469.47 1243.27 1472.69 Q1240.17 1475.88 1234.52 1481.64 Z" fill="#000000" fill-rule="nonzero" fill-opacity="1" /><path clip-path="url(#clip520)" d="M1259.47 1451.02 L1281.69 1451.02 L1281.69 1453.01 L1269.15 1485.58 L1264.26 1485.58 L1276.07 1454.96 L1259.47 1454.96 L1259.47 1451.02 Z" fill="#000000" fill-rule="nonzero" fill-opacity="1" /><path clip-path="url(#clip520)" d="M1290.81 1479.7 L1295.7 1479.7 L1295.7 1485.58 L1290.81 1485.58 L1290.81 1479.7 Z" fill="#000000" fill-rule="nonzero" fill-opacity="1" /><path clip-path="url(#clip520)" d="M1315.88 1454.1 Q1312.27 1454.1 1310.44 1457.66 Q1308.64 1461.2 1308.64 1468.33 Q1308.64 1475.44 1310.44 1479.01 Q1312.27 1482.55 1315.88 1482.55 Q1319.52 1482.55 1321.32 1479.01 Q1323.15 1475.44 1323.15 1468.33 Q1323.15 1461.2 1321.32 1457.66 Q1319.52 1454.1 1315.88 1454.1 M1315.88 1450.39 Q1321.69 1450.39 1324.75 1455 Q1327.83 1459.58 1327.83 1468.33 Q1327.83 1477.06 1324.75 1481.67 Q1321.69 1486.25 1315.88 1486.25 Q1310.07 1486.25 1306.99 1481.67 Q1303.94 1477.06 1303.94 1468.33 Q1303.94 1459.58 1306.99 1455 Q1310.07 1450.39 1315.88 1450.39 Z" fill="#000000" fill-rule="nonzero" fill-opacity="1" /><path clip-path="url(#clip520)" d="M1346.04 1454.1 Q1342.43 1454.1 1340.6 1457.66 Q1338.8 1461.2 1338.8 1468.33 Q1338.8 1475.44 1340.6 1479.01 Q1342.43 1482.55 1346.04 1482.55 Q1349.68 1482.55 1351.48 1479.01 Q1353.31 1475.44 1353.31 1468.33 Q1353.31 1461.2 1351.48 1457.66 Q1349.68 1454.1 1346.04 1454.1 M1346.04 1450.39 Q1351.85 1450.39 1354.91 1455 Q1357.99 1459.58 1357.99 1468.33 Q1357.99 1477.06 1354.91 1481.67 Q1351.85 1486.25 1346.04 1486.25 Q1340.23 1486.25 1337.16 1481.67 Q1334.1 1477.06 1334.1 1468.33 Q1334.1 1459.58 1337.16 1455 Q1340.23 1450.39 1346.04 1450.39 Z" fill="#000000" fill-rule="nonzero" fill-opacity="1" /><path clip-path="url(#clip520)" d="M1734.69 1481.64 L1751.01 1481.64 L1751.01 1485.58 L1729.07 1485.58 L1729.07 1481.64 Q1731.73 1478.89 1736.31 1474.26 Q1740.92 1469.61 1742.1 1468.27 Q1744.34 1465.74 1745.22 1464.01 Q1746.13 1462.25 1746.13 1460.56 Q1746.13 1457.8 1744.18 1456.07 Q1742.26 1454.33 1739.16 1454.33 Q1736.96 1454.33 1734.51 1455.09 Q1732.08 1455.86 1729.3 1457.41 L1729.3 1452.69 Q1732.12 1451.55 1734.58 1450.97 Q1737.03 1450.39 1739.07 1450.39 Q1744.44 1450.39 1747.63 1453.08 Q1750.83 1455.77 1750.83 1460.26 Q1750.83 1462.39 1750.02 1464.31 Q1749.23 1466.2 1747.12 1468.8 Q1746.54 1469.47 1743.44 1472.69 Q1740.34 1475.88 1734.69 1481.64 Z" fill="#000000" fill-rule="nonzero" fill-opacity="1" /><path clip-path="url(#clip520)" d="M1759.65 1451.02 L1781.87 1451.02 L1781.87 1453.01 L1769.32 1485.58 L1764.44 1485.58 L1776.24 1454.96 L1759.65 1454.96 L1759.65 1451.02 Z" fill="#000000" fill-rule="nonzero" fill-opacity="1" /><path clip-path="url(#clip520)" d="M1790.99 1479.7 L1795.87 1479.7 L1795.87 1485.58 L1790.99 1485.58 L1790.99 1479.7 Z" fill="#000000" fill-rule="nonzero" fill-opacity="1" /><path clip-path="url(#clip520)" d="M1816.06 1454.1 Q1812.45 1454.1 1810.62 1457.66 Q1808.81 1461.2 1808.81 1468.33 Q1808.81 1475.44 1810.62 1479.01 Q1812.45 1482.55 1816.06 1482.55 Q1819.69 1482.55 1821.5 1479.01 Q1823.33 1475.44 1823.33 1468.33 Q1823.33 1461.2 1821.5 1457.66 Q1819.69 1454.1 1816.06 1454.1 M1816.06 1450.39 Q1821.87 1450.39 1824.92 1455 Q1828 1459.58 1828 1468.33 Q1828 1477.06 1824.92 1481.67 Q1821.87 1486.25 1816.06 1486.25 Q1810.25 1486.25 1807.17 1481.67 Q1804.11 1477.06 1804.11 1468.33 Q1804.11 1459.58 1807.17 1455 Q1810.25 1450.39 1816.06 1450.39 Z" fill="#000000" fill-rule="nonzero" fill-opacity="1" /><path clip-path="url(#clip520)" d="M1836.27 1451.02 L1854.62 1451.02 L1854.62 1454.96 L1840.55 1454.96 L1840.55 1463.43 Q1841.57 1463.08 1842.58 1462.92 Q1843.6 1462.73 1844.62 1462.73 Q1850.41 1462.73 1853.79 1465.9 Q1857.17 1469.08 1857.17 1474.49 Q1857.17 1480.07 1853.7 1483.17 Q1850.22 1486.25 1843.9 1486.25 Q1841.73 1486.25 1839.46 1485.88 Q1837.21 1485.51 1834.81 1484.77 L1834.81 1480.07 Q1836.89 1481.2 1839.11 1481.76 Q1841.34 1482.32 1843.81 1482.32 Q1847.82 1482.32 1850.15 1480.21 Q1852.49 1478.1 1852.49 1474.49 Q1852.49 1470.88 1850.15 1468.77 Q1847.82 1466.67 1843.81 1466.67 Q1841.94 1466.67 1840.06 1467.08 Q1838.21 1467.5 1836.27 1468.38 L1836.27 1451.02 Z" fill="#000000" fill-rule="nonzero" fill-opacity="1" /><path clip-path="url(#clip520)" d="M2233.87 1481.64 L2250.19 1481.64 L2250.19 1485.58 L2228.25 1485.58 L2228.25 1481.64 Q2230.91 1478.89 2235.49 1474.26 Q2240.1 1469.61 2241.28 1468.27 Q2243.52 1465.74 2244.4 1464.01 Q2245.31 1462.25 2245.31 1460.56 Q2245.31 1457.8 2243.36 1456.07 Q2241.44 1454.33 2238.34 1454.33 Q2236.14 1454.33 2233.69 1455.09 Q2231.26 1455.86 2228.48 1457.41 L2228.48 1452.69 Q2231.3 1451.55 2233.76 1450.97 Q2236.21 1450.39 2238.25 1450.39 Q2243.62 1450.39 2246.81 1453.08 Q2250.01 1455.77 2250.01 1460.26 Q2250.01 1462.39 2249.2 1464.31 Q2248.41 1466.2 2246.3 1468.8 Q2245.72 1469.47 2242.62 1472.69 Q2239.52 1475.88 2233.87 1481.64 Z" fill="#000000" fill-rule="nonzero" fill-opacity="1" /><path clip-path="url(#clip520)" d="M2258.82 1451.02 L2281.05 1451.02 L2281.05 1453.01 L2268.5 1485.58 L2263.62 1485.58 L2275.42 1454.96 L2258.82 1454.96 L2258.82 1451.02 Z" fill="#000000" fill-rule="nonzero" fill-opacity="1" /><path clip-path="url(#clip520)" d="M2290.17 1479.7 L2295.05 1479.7 L2295.05 1485.58 L2290.17 1485.58 L2290.17 1479.7 Z" fill="#000000" fill-rule="nonzero" fill-opacity="1" /><path clip-path="url(#clip520)" d="M2306.05 1481.64 L2313.69 1481.64 L2313.69 1455.28 L2305.38 1456.95 L2305.38 1452.69 L2313.64 1451.02 L2318.32 1451.02 L2318.32 1481.64 L2325.95 1481.64 L2325.95 1485.58 L2306.05 1485.58 L2306.05 1481.64 Z" fill="#000000" fill-rule="nonzero" fill-opacity="1" /><path clip-path="url(#clip520)" d="M2345.4 1454.1 Q2341.79 1454.1 2339.96 1457.66 Q2338.15 1461.2 2338.15 1468.33 Q2338.15 1475.44 2339.96 1479.01 Q2341.79 1482.55 2345.4 1482.55 Q2349.03 1482.55 2350.84 1479.01 Q2352.67 1475.44 2352.67 1468.33 Q2352.67 1461.2 2350.84 1457.66 Q2349.03 1454.1 2345.4 1454.1 M2345.4 1450.39 Q2351.21 1450.39 2354.26 1455 Q2357.34 1459.58 2357.34 1468.33 Q2357.34 1477.06 2354.26 1481.67 Q2351.21 1486.25 2345.4 1486.25 Q2339.59 1486.25 2336.51 1481.67 Q2333.45 1477.06 2333.45 1468.33 Q2333.45 1459.58 2336.51 1455 Q2339.59 1450.39 2345.4 1450.39 Z" fill="#000000" fill-rule="nonzero" fill-opacity="1" /><path clip-path="url(#clip520)" d="M1001.6 1520.52 L1028.91 1520.52 L1028.91 1525.93 L1008.03 1525.93 L1008.03 1539.94 L1026.88 1539.94 L1026.88 1545.35 L1008.03 1545.35 L1008.03 1568.04 L1001.6 1568.04 L1001.6 1520.52 Z" fill="#000000" fill-rule="nonzero" fill-opacity="1" /><path clip-path="url(#clip520)" d="M1054.76 1537.87 Q1053.77 1537.3 1052.59 1537.04 Q1051.45 1536.76 1050.05 1536.76 Q1045.08 1536.76 1042.41 1540 Q1039.77 1543.22 1039.77 1549.27 L1039.77 1568.04 L1033.88 1568.04 L1033.88 1532.4 L1039.77 1532.4 L1039.77 1537.93 Q1041.61 1534.69 1044.57 1533.13 Q1047.53 1531.54 1051.77 1531.54 Q1052.37 1531.54 1053.1 1531.63 Q1053.84 1531.7 1054.73 1531.85 L1054.76 1537.87 Z" fill="#000000" fill-rule="nonzero" fill-opacity="1" /><path clip-path="url(#clip520)" d="M1089.96 1548.76 L1089.96 1551.62 L1063.03 1551.62 Q1063.42 1557.67 1066.66 1560.85 Q1069.94 1564 1075.77 1564 Q1079.14 1564 1082.29 1563.17 Q1085.47 1562.35 1088.59 1560.69 L1088.59 1566.23 Q1085.44 1567.57 1082.13 1568.27 Q1078.82 1568.97 1075.42 1568.97 Q1066.89 1568.97 1061.89 1564 Q1056.92 1559.04 1056.92 1550.57 Q1056.92 1541.82 1061.63 1536.69 Q1066.38 1531.54 1074.4 1531.54 Q1081.59 1531.54 1085.76 1536.18 Q1089.96 1540.8 1089.96 1548.76 M1084.1 1547.04 Q1084.04 1542.23 1081.4 1539.37 Q1078.79 1536.5 1074.46 1536.5 Q1069.56 1536.5 1066.6 1539.27 Q1063.67 1542.04 1063.22 1547.07 L1084.1 1547.04 Z" fill="#000000" fill-rule="nonzero" fill-opacity="1" /><path clip-path="url(#clip520)" d="M1103.07 1550.25 Q1103.07 1556.71 1105.72 1560.4 Q1108.39 1564.07 1113.04 1564.07 Q1117.68 1564.07 1120.36 1560.4 Q1123.03 1556.71 1123.03 1550.25 Q1123.03 1543.79 1120.36 1540.13 Q1117.68 1536.44 1113.04 1536.44 Q1108.39 1536.44 1105.72 1540.13 Q1103.07 1543.79 1103.07 1550.25 M1123.03 1562.7 Q1121.18 1565.88 1118.35 1567.44 Q1115.55 1568.97 1111.6 1568.97 Q1105.14 1568.97 1101.07 1563.81 Q1097.03 1558.65 1097.03 1550.25 Q1097.03 1541.85 1101.07 1536.69 Q1105.14 1531.54 1111.6 1531.54 Q1115.55 1531.54 1118.35 1533.1 Q1121.18 1534.62 1123.03 1537.81 L1123.03 1532.4 L1128.89 1532.4 L1128.89 1581.6 L1123.03 1581.6 L1123.03 1562.7 Z" fill="#000000" fill-rule="nonzero" fill-opacity="1" /><path clip-path="url(#clip520)" d="M1140.35 1553.98 L1140.35 1532.4 L1146.2 1532.4 L1146.2 1553.75 Q1146.2 1558.81 1148.18 1561.36 Q1150.15 1563.87 1154.1 1563.87 Q1158.84 1563.87 1161.58 1560.85 Q1164.34 1557.83 1164.34 1552.61 L1164.34 1532.4 L1170.2 1532.4 L1170.2 1568.04 L1164.34 1568.04 L1164.34 1562.57 Q1162.21 1565.82 1159.38 1567.41 Q1156.58 1568.97 1152.85 1568.97 Q1146.71 1568.97 1143.53 1565.15 Q1140.35 1561.33 1140.35 1553.98 M1155.08 1531.54 L1155.08 1531.54 Z" fill="#000000" fill-rule="nonzero" fill-opacity="1" /><path clip-path="url(#clip520)" d="M1212.76 1548.76 L1212.76 1551.62 L1185.83 1551.62 Q1186.21 1557.67 1189.46 1560.85 Q1192.74 1564 1198.56 1564 Q1201.93 1564 1205.08 1563.17 Q1208.27 1562.35 1211.39 1560.69 L1211.39 1566.23 Q1208.24 1567.57 1204.93 1568.27 Q1201.62 1568.97 1198.21 1568.97 Q1189.68 1568.97 1184.68 1564 Q1179.72 1559.04 1179.72 1550.57 Q1179.72 1541.82 1184.43 1536.69 Q1189.17 1531.54 1197.19 1531.54 Q1204.38 1531.54 1208.55 1536.18 Q1212.76 1540.8 1212.76 1548.76 M1206.9 1547.04 Q1206.84 1542.23 1204.19 1539.37 Q1201.58 1536.5 1197.25 1536.5 Q1192.35 1536.5 1189.39 1539.27 Q1186.46 1542.04 1186.02 1547.07 L1206.9 1547.04 Z" fill="#000000" fill-rule="nonzero" fill-opacity="1" /><path clip-path="url(#clip520)" d="M1252 1546.53 L1252 1568.04 L1246.14 1568.04 L1246.14 1546.72 Q1246.14 1541.66 1244.17 1539.14 Q1242.2 1536.63 1238.25 1536.63 Q1233.51 1536.63 1230.77 1539.65 Q1228.03 1542.68 1228.03 1547.9 L1228.03 1568.04 L1222.14 1568.04 L1222.14 1532.4 L1228.03 1532.4 L1228.03 1537.93 Q1230.13 1534.72 1232.97 1533.13 Q1235.83 1531.54 1239.55 1531.54 Q1245.7 1531.54 1248.85 1535.36 Q1252 1539.14 1252 1546.53 Z" fill="#000000" fill-rule="nonzero" fill-opacity="1" /><path clip-path="url(#clip520)" d="M1289.33 1533.76 L1289.33 1539.24 Q1286.85 1537.87 1284.34 1537.2 Q1281.86 1536.5 1279.31 1536.5 Q1273.61 1536.5 1270.46 1540.13 Q1267.31 1543.73 1267.31 1550.25 Q1267.31 1556.78 1270.46 1560.4 Q1273.61 1564 1279.31 1564 Q1281.86 1564 1284.34 1563.33 Q1286.85 1562.63 1289.33 1561.26 L1289.33 1566.68 Q1286.88 1567.82 1284.24 1568.39 Q1281.63 1568.97 1278.67 1568.97 Q1270.62 1568.97 1265.88 1563.91 Q1261.13 1558.85 1261.13 1550.25 Q1261.13 1541.53 1265.91 1536.53 Q1270.72 1531.54 1279.05 1531.54 Q1281.76 1531.54 1284.34 1532.11 Q1286.92 1532.65 1289.33 1533.76 Z" fill="#000000" fill-rule="nonzero" fill-opacity="1" /><path clip-path="url(#clip520)" d="M1299.52 1532.4 L1305.38 1532.4 L1305.38 1568.04 L1299.52 1568.04 L1299.52 1532.4 M1299.52 1518.52 L1305.38 1518.52 L1305.38 1525.93 L1299.52 1525.93 L1299.52 1518.52 Z" fill="#000000" fill-rule="nonzero" fill-opacity="1" /><path clip-path="url(#clip520)" d="M1348.12 1548.76 L1348.12 1551.62 L1321.2 1551.62 Q1321.58 1557.67 1324.82 1560.85 Q1328.1 1564 1333.93 1564 Q1337.3 1564 1340.45 1563.17 Q1343.63 1562.35 1346.75 1560.69 L1346.75 1566.23 Q1343.6 1567.57 1340.29 1568.27 Q1336.98 1568.97 1333.58 1568.97 Q1325.05 1568.97 1320.05 1564 Q1315.08 1559.04 1315.08 1550.57 Q1315.08 1541.82 1319.79 1536.69 Q1324.54 1531.54 1332.56 1531.54 Q1339.75 1531.54 1343.92 1536.18 Q1348.12 1540.8 1348.12 1548.76 M1342.27 1547.04 Q1342.2 1542.23 1339.56 1539.37 Q1336.95 1536.5 1332.62 1536.5 Q1327.72 1536.5 1324.76 1539.27 Q1321.83 1542.04 1321.39 1547.07 L1342.27 1547.04 Z" fill="#000000" fill-rule="nonzero" fill-opacity="1" /><path clip-path="url(#clip520)" d="M1380.46 1533.45 L1380.46 1538.98 Q1377.98 1537.71 1375.3 1537.07 Q1372.63 1536.44 1369.77 1536.44 Q1365.4 1536.44 1363.21 1537.77 Q1361.04 1539.11 1361.04 1541.79 Q1361.04 1543.82 1362.6 1545 Q1364.16 1546.15 1368.87 1547.2 L1370.88 1547.64 Q1377.12 1548.98 1379.73 1551.43 Q1382.37 1553.85 1382.37 1558.21 Q1382.37 1563.17 1378.42 1566.07 Q1374.51 1568.97 1367.63 1568.97 Q1364.77 1568.97 1361.65 1568.39 Q1358.56 1567.85 1355.12 1566.74 L1355.12 1560.69 Q1358.37 1562.38 1361.52 1563.24 Q1364.67 1564.07 1367.76 1564.07 Q1371.9 1564.07 1374.13 1562.66 Q1376.35 1561.23 1376.35 1558.65 Q1376.35 1556.27 1374.73 1554.99 Q1373.14 1553.72 1367.7 1552.54 L1365.66 1552.07 Q1360.22 1550.92 1357.8 1548.56 Q1355.38 1546.18 1355.38 1542.04 Q1355.38 1537.01 1358.94 1534.27 Q1362.51 1531.54 1369.07 1531.54 Q1372.31 1531.54 1375.18 1532.01 Q1378.04 1532.49 1380.46 1533.45 Z" fill="#000000" fill-rule="nonzero" fill-opacity="1" /><path clip-path="url(#clip520)" d="M1411.87 1518.52 L1425.37 1518.52 L1425.37 1523.07 L1417.73 1523.07 L1417.73 1572.09 L1425.37 1572.09 L1425.37 1576.64 L1411.87 1576.64 L1411.87 1518.52 Z" fill="#000000" fill-rule="nonzero" fill-opacity="1" /><path clip-path="url(#clip520)" d="M1470.5 1561.26 L1470.5 1548.5 L1460 1548.5 L1460 1543.22 L1476.87 1543.22 L1476.87 1563.62 Q1473.14 1566.26 1468.66 1567.63 Q1464.17 1568.97 1459.08 1568.97 Q1447.94 1568.97 1441.63 1562.47 Q1435.36 1555.95 1435.36 1544.33 Q1435.36 1532.68 1441.63 1526.19 Q1447.94 1519.66 1459.08 1519.66 Q1463.72 1519.66 1467.89 1520.81 Q1472.09 1521.96 1475.63 1524.18 L1475.63 1531.03 Q1472.06 1528 1468.05 1526.48 Q1464.04 1524.95 1459.62 1524.95 Q1450.9 1524.95 1446.5 1529.82 Q1442.14 1534.69 1442.14 1544.33 Q1442.14 1553.94 1446.5 1558.81 Q1450.9 1563.68 1459.62 1563.68 Q1463.02 1563.68 1465.7 1563.11 Q1468.37 1562.51 1470.5 1561.26 Z" fill="#000000" fill-rule="nonzero" fill-opacity="1" /><path clip-path="url(#clip520)" d="M1488.61 1520.52 L1495.04 1520.52 L1495.04 1540 L1518.4 1540 L1518.4 1520.52 L1524.83 1520.52 L1524.83 1568.04 L1518.4 1568.04 L1518.4 1545.41 L1495.04 1545.41 L1495.04 1568.04 L1488.61 1568.04 L1488.61 1520.52 Z" fill="#000000" fill-rule="nonzero" fill-opacity="1" /><path clip-path="url(#clip520)" d="M1534.83 1532.4 L1562.65 1532.4 L1562.65 1537.74 L1540.62 1563.37 L1562.65 1563.37 L1562.65 1568.04 L1534.03 1568.04 L1534.03 1562.7 L1556.06 1537.07 L1534.83 1537.07 L1534.83 1532.4 Z" fill="#000000" fill-rule="nonzero" fill-opacity="1" /><path clip-path="url(#clip520)" d="M1585.28 1518.52 L1585.28 1576.64 L1571.78 1576.64 L1571.78 1572.09 L1579.39 1572.09 L1579.39 1523.07 L1571.78 1523.07 L1571.78 1518.52 L1585.28 1518.52 Z" fill="#000000" fill-rule="nonzero" fill-opacity="1" /><polyline clip-path="url(#clip520)" style="stroke:#000000; stroke-linecap:round; stroke-linejoin:round; stroke-width:4; stroke-opacity:1; fill:none" points="234.125,1423.18 234.125,47.2441 "/>
<polyline clip-path="url(#clip520)" style="stroke:#000000; stroke-linecap:round; stroke-linejoin:round; stroke-width:4; stroke-opacity:1; fill:none" points="234.125,1302.28 253.023,1302.28 "/>
<polyline clip-path="url(#clip520)" style="stroke:#000000; stroke-linecap:round; stroke-linejoin:round; stroke-width:4; stroke-opacity:1; fill:none" points="234.125,1043.9 253.023,1043.9 "/>
<polyline clip-path="url(#clip520)" style="stroke:#000000; stroke-linecap:round; stroke-linejoin:round; stroke-width:4; stroke-opacity:1; fill:none" points="234.125,785.517 253.023,785.517 "/>
<polyline clip-path="url(#clip520)" style="stroke:#000000; stroke-linecap:round; stroke-linejoin:round; stroke-width:4; stroke-opacity:1; fill:none" points="234.125,527.135 253.023,527.135 "/>
<polyline clip-path="url(#clip520)" style="stroke:#000000; stroke-linecap:round; stroke-linejoin:round; stroke-width:4; stroke-opacity:1; fill:none" points="234.125,268.753 253.023,268.753 "/>
<path clip-path="url(#clip520)" d="M116.668 1315.63 L124.306 1315.63 L124.306 1289.26 L115.996 1290.93 L115.996 1286.67 L124.26 1285 L128.936 1285 L128.936 1315.63 L136.575 1315.63 L136.575 1319.56 L116.668 1319.56 L116.668 1315.63 Z" fill="#000000" fill-rule="nonzero" fill-opacity="1" /><path clip-path="url(#clip520)" d="M146.158 1318.84 L146.158 1314.58 Q147.917 1315.42 149.723 1315.86 Q151.528 1316.3 153.265 1316.3 Q157.894 1316.3 160.325 1313.2 Q162.778 1310.07 163.126 1303.73 Q161.783 1305.72 159.723 1306.78 Q157.663 1307.85 155.163 1307.85 Q149.978 1307.85 146.945 1304.72 Q143.936 1301.57 143.936 1296.13 Q143.936 1290.81 147.084 1287.59 Q150.232 1284.38 155.464 1284.38 Q161.459 1284.38 164.607 1288.98 Q167.778 1293.57 167.778 1302.32 Q167.778 1310.49 163.89 1315.37 Q160.024 1320.23 153.473 1320.23 Q151.714 1320.23 149.908 1319.88 Q148.103 1319.54 146.158 1318.84 M155.464 1304.19 Q158.612 1304.19 160.44 1302.04 Q162.292 1299.88 162.292 1296.13 Q162.292 1292.41 160.44 1290.26 Q158.612 1288.08 155.464 1288.08 Q152.316 1288.08 150.464 1290.26 Q148.635 1292.41 148.635 1296.13 Q148.635 1299.88 150.464 1302.04 Q152.316 1304.19 155.464 1304.19 Z" fill="#000000" fill-rule="nonzero" fill-opacity="1" /><path clip-path="url(#clip520)" d="M186.181 1288.08 Q182.57 1288.08 180.741 1291.64 Q178.936 1295.19 178.936 1302.32 Q178.936 1309.42 180.741 1312.99 Q182.57 1316.53 186.181 1316.53 Q189.815 1316.53 191.621 1312.99 Q193.45 1309.42 193.45 1302.32 Q193.45 1295.19 191.621 1291.64 Q189.815 1288.08 186.181 1288.08 M186.181 1284.38 Q191.991 1284.38 195.047 1288.98 Q198.125 1293.57 198.125 1302.32 Q198.125 1311.04 195.047 1315.65 Q191.991 1320.23 186.181 1320.23 Q180.371 1320.23 177.292 1315.65 Q174.237 1311.04 174.237 1302.32 Q174.237 1293.57 177.292 1288.98 Q180.371 1284.38 186.181 1284.38 Z" fill="#000000" fill-rule="nonzero" fill-opacity="1" /><path clip-path="url(#clip520)" d="M119.885 1057.24 L136.204 1057.24 L136.204 1061.18 L114.26 1061.18 L114.26 1057.24 Q116.922 1054.49 121.505 1049.86 Q126.112 1045.21 127.292 1043.86 Q129.538 1041.34 130.417 1039.6 Q131.32 1037.85 131.32 1036.16 Q131.32 1033.4 129.376 1031.67 Q127.455 1029.93 124.353 1029.93 Q122.154 1029.93 119.7 1030.69 Q117.269 1031.46 114.492 1033.01 L114.492 1028.29 Q117.316 1027.15 119.769 1026.57 Q122.223 1025.99 124.26 1025.99 Q129.63 1025.99 132.825 1028.68 Q136.019 1031.36 136.019 1035.85 Q136.019 1037.98 135.209 1039.91 Q134.422 1041.8 132.316 1044.4 Q131.737 1045.07 128.635 1048.29 Q125.533 1051.48 119.885 1057.24 Z" fill="#000000" fill-rule="nonzero" fill-opacity="1" /><path clip-path="url(#clip520)" d="M156.019 1029.7 Q152.408 1029.7 150.579 1033.26 Q148.774 1036.8 148.774 1043.93 Q148.774 1051.04 150.579 1054.6 Q152.408 1058.15 156.019 1058.15 Q159.653 1058.15 161.459 1054.6 Q163.288 1051.04 163.288 1043.93 Q163.288 1036.8 161.459 1033.26 Q159.653 1029.7 156.019 1029.7 M156.019 1025.99 Q161.829 1025.99 164.885 1030.6 Q167.964 1035.18 167.964 1043.93 Q167.964 1052.66 164.885 1057.27 Q161.829 1061.85 156.019 1061.85 Q150.209 1061.85 147.13 1057.27 Q144.075 1052.66 144.075 1043.93 Q144.075 1035.18 147.13 1030.6 Q150.209 1025.99 156.019 1025.99 Z" fill="#000000" fill-rule="nonzero" fill-opacity="1" /><path clip-path="url(#clip520)" d="M186.181 1029.7 Q182.57 1029.7 180.741 1033.26 Q178.936 1036.8 178.936 1043.93 Q178.936 1051.04 180.741 1054.6 Q182.57 1058.15 186.181 1058.15 Q189.815 1058.15 191.621 1054.6 Q193.45 1051.04 193.45 1043.93 Q193.45 1036.8 191.621 1033.26 Q189.815 1029.7 186.181 1029.7 M186.181 1025.99 Q191.991 1025.99 195.047 1030.6 Q198.125 1035.18 198.125 1043.93 Q198.125 1052.66 195.047 1057.27 Q191.991 1061.85 186.181 1061.85 Q180.371 1061.85 177.292 1057.27 Q174.237 1052.66 174.237 1043.93 Q174.237 1035.18 177.292 1030.6 Q180.371 1025.99 186.181 1025.99 Z" fill="#000000" fill-rule="nonzero" fill-opacity="1" /><path clip-path="url(#clip520)" d="M119.885 798.862 L136.204 798.862 L136.204 802.797 L114.26 802.797 L114.26 798.862 Q116.922 796.107 121.505 791.477 Q126.112 786.825 127.292 785.482 Q129.538 782.959 130.417 781.223 Q131.32 779.464 131.32 777.774 Q131.32 775.019 129.376 773.283 Q127.455 771.547 124.353 771.547 Q122.154 771.547 119.7 772.311 Q117.269 773.075 114.492 774.626 L114.492 769.903 Q117.316 768.769 119.769 768.191 Q122.223 767.612 124.26 767.612 Q129.63 767.612 132.825 770.297 Q136.019 772.982 136.019 777.473 Q136.019 779.603 135.209 781.524 Q134.422 783.422 132.316 786.015 Q131.737 786.686 128.635 789.903 Q125.533 793.098 119.885 798.862 Z" fill="#000000" fill-rule="nonzero" fill-opacity="1" /><path clip-path="url(#clip520)" d="M146.829 798.862 L154.468 798.862 L154.468 772.496 L146.158 774.163 L146.158 769.903 L154.422 768.237 L159.098 768.237 L159.098 798.862 L166.737 798.862 L166.737 802.797 L146.829 802.797 L146.829 798.862 Z" fill="#000000" fill-rule="nonzero" fill-opacity="1" /><path clip-path="url(#clip520)" d="M186.181 771.316 Q182.57 771.316 180.741 774.88 Q178.936 778.422 178.936 785.552 Q178.936 792.658 180.741 796.223 Q182.57 799.764 186.181 799.764 Q189.815 799.764 191.621 796.223 Q193.45 792.658 193.45 785.552 Q193.45 778.422 191.621 774.88 Q189.815 771.316 186.181 771.316 M186.181 767.612 Q191.991 767.612 195.047 772.218 Q198.125 776.802 198.125 785.552 Q198.125 794.278 195.047 798.885 Q191.991 803.468 186.181 803.468 Q180.371 803.468 177.292 798.885 Q174.237 794.278 174.237 785.552 Q174.237 776.802 177.292 772.218 Q180.371 767.612 186.181 767.612 Z" fill="#000000" fill-rule="nonzero" fill-opacity="1" /><path clip-path="url(#clip520)" d="M119.885 540.48 L136.204 540.48 L136.204 544.415 L114.26 544.415 L114.26 540.48 Q116.922 537.725 121.505 533.095 Q126.112 528.443 127.292 527.1 Q129.538 524.577 130.417 522.841 Q131.32 521.082 131.32 519.392 Q131.32 516.637 129.376 514.901 Q127.455 513.165 124.353 513.165 Q122.154 513.165 119.7 513.929 Q117.269 514.693 114.492 516.244 L114.492 511.522 Q117.316 510.387 119.769 509.809 Q122.223 509.23 124.26 509.23 Q129.63 509.23 132.825 511.915 Q136.019 514.6 136.019 519.091 Q136.019 521.221 135.209 523.142 Q134.422 525.04 132.316 527.633 Q131.737 528.304 128.635 531.521 Q125.533 534.716 119.885 540.48 Z" fill="#000000" fill-rule="nonzero" fill-opacity="1" /><path clip-path="url(#clip520)" d="M150.047 540.48 L166.366 540.48 L166.366 544.415 L144.422 544.415 L144.422 540.48 Q147.084 537.725 151.667 533.095 Q156.274 528.443 157.454 527.1 Q159.7 524.577 160.579 522.841 Q161.482 521.082 161.482 519.392 Q161.482 516.637 159.538 514.901 Q157.616 513.165 154.515 513.165 Q152.316 513.165 149.862 513.929 Q147.431 514.693 144.654 516.244 L144.654 511.522 Q147.478 510.387 149.931 509.809 Q152.385 509.23 154.422 509.23 Q159.792 509.23 162.987 511.915 Q166.181 514.6 166.181 519.091 Q166.181 521.221 165.371 523.142 Q164.584 525.04 162.477 527.633 Q161.899 528.304 158.797 531.521 Q155.695 534.716 150.047 540.48 Z" fill="#000000" fill-rule="nonzero" fill-opacity="1" /><path clip-path="url(#clip520)" d="M186.181 512.934 Q182.57 512.934 180.741 516.498 Q178.936 520.04 178.936 527.17 Q178.936 534.276 180.741 537.841 Q182.57 541.382 186.181 541.382 Q189.815 541.382 191.621 537.841 Q193.45 534.276 193.45 527.17 Q193.45 520.04 191.621 516.498 Q189.815 512.934 186.181 512.934 M186.181 509.23 Q191.991 509.23 195.047 513.836 Q198.125 518.42 198.125 527.17 Q198.125 535.896 195.047 540.503 Q191.991 545.086 186.181 545.086 Q180.371 545.086 177.292 540.503 Q174.237 535.896 174.237 527.17 Q174.237 518.42 177.292 513.836 Q180.371 509.23 186.181 509.23 Z" fill="#000000" fill-rule="nonzero" fill-opacity="1" /><path clip-path="url(#clip520)" d="M119.885 282.098 L136.204 282.098 L136.204 286.033 L114.26 286.033 L114.26 282.098 Q116.922 279.343 121.505 274.714 Q126.112 270.061 127.292 268.718 Q129.538 266.195 130.417 264.459 Q131.32 262.7 131.32 261.01 Q131.32 258.255 129.376 256.519 Q127.455 254.783 124.353 254.783 Q122.154 254.783 119.7 255.547 Q117.269 256.311 114.492 257.862 L114.492 253.14 Q117.316 252.005 119.769 251.427 Q122.223 250.848 124.26 250.848 Q129.63 250.848 132.825 253.533 Q136.019 256.218 136.019 260.709 Q136.019 262.839 135.209 264.76 Q134.422 266.658 132.316 269.251 Q131.737 269.922 128.635 273.139 Q125.533 276.334 119.885 282.098 Z" fill="#000000" fill-rule="nonzero" fill-opacity="1" /><path clip-path="url(#clip520)" d="M160.186 267.399 Q163.542 268.116 165.417 270.385 Q167.315 272.653 167.315 275.987 Q167.315 281.102 163.797 283.903 Q160.278 286.704 153.797 286.704 Q151.621 286.704 149.306 286.264 Q147.015 285.848 144.561 284.991 L144.561 280.477 Q146.505 281.612 148.82 282.19 Q151.135 282.769 153.658 282.769 Q158.056 282.769 160.348 281.033 Q162.663 279.297 162.663 275.987 Q162.663 272.931 160.51 271.218 Q158.38 269.482 154.561 269.482 L150.533 269.482 L150.533 265.639 L154.746 265.639 Q158.195 265.639 160.024 264.274 Q161.852 262.885 161.852 260.292 Q161.852 257.63 159.954 256.218 Q158.079 254.783 154.561 254.783 Q152.64 254.783 150.441 255.2 Q148.241 255.616 145.603 256.496 L145.603 252.329 Q148.265 251.589 150.579 251.218 Q152.917 250.848 154.978 250.848 Q160.302 250.848 163.403 253.278 Q166.505 255.686 166.505 259.806 Q166.505 262.677 164.862 264.667 Q163.218 266.635 160.186 267.399 Z" fill="#000000" fill-rule="nonzero" fill-opacity="1" /><path clip-path="url(#clip520)" d="M186.181 254.552 Q182.57 254.552 180.741 258.116 Q178.936 261.658 178.936 268.788 Q178.936 275.894 180.741 279.459 Q182.57 283.001 186.181 283.001 Q189.815 283.001 191.621 279.459 Q193.45 275.894 193.45 268.788 Q193.45 261.658 191.621 258.116 Q189.815 254.552 186.181 254.552 M186.181 250.848 Q191.991 250.848 195.047 255.454 Q198.125 260.038 198.125 268.788 Q198.125 277.514 195.047 282.121 Q191.991 286.704 186.181 286.704 Q180.371 286.704 177.292 282.121 Q174.237 277.514 174.237 268.788 Q174.237 260.038 177.292 255.454 Q180.371 250.848 186.181 250.848 Z" fill="#000000" fill-rule="nonzero" fill-opacity="1" /><path clip-path="url(#clip520)" d="M41.7242 960.972 Q42.4244 958.903 44.7161 956.961 Q47.0077 954.988 51.0181 953.015 L64.0042 946.49 L64.0042 953.397 L51.8138 959.476 Q47.0395 961.831 45.48 964.059 Q43.9204 966.255 43.9204 970.075 L43.9204 977.077 L64.0042 977.077 L64.0042 983.506 L16.4842 983.506 L16.4842 968.993 Q16.4842 960.844 19.8898 956.834 Q23.2955 952.824 30.1704 952.824 Q34.6582 952.824 37.6183 954.924 Q40.5784 956.993 41.7242 960.972 M21.7677 977.077 L38.6368 977.077 L38.6368 968.993 Q38.6368 964.346 36.5043 961.99 Q34.34 959.603 30.1704 959.603 Q26.0009 959.603 23.9002 961.99 Q21.7677 964.346 21.7677 968.993 L21.7677 977.077 Z" fill="#000000" fill-rule="nonzero" fill-opacity="1" /><path clip-path="url(#clip520)" d="M44.7161 910.905 L47.5806 910.905 L47.5806 937.832 Q53.6281 937.45 56.8109 934.204 Q59.9619 930.926 59.9619 925.101 Q59.9619 921.727 59.1344 918.576 Q58.3069 915.393 56.6518 912.274 L62.1899 912.274 Q63.5267 915.425 64.227 918.735 Q64.9272 922.045 64.9272 925.451 Q64.9272 933.981 59.9619 938.978 Q54.9967 943.943 46.5303 943.943 Q37.7774 943.943 32.6531 939.233 Q27.4968 934.49 27.4968 926.47 Q27.4968 919.276 32.1438 915.107 Q36.7589 910.905 44.7161 910.905 M42.9973 916.762 Q38.1912 916.826 35.3266 919.467 Q32.4621 922.077 32.4621 926.406 Q32.4621 931.308 35.2312 934.268 Q38.0002 937.196 43.0292 937.641 L42.9973 916.762 Z" fill="#000000" fill-rule="nonzero" fill-opacity="1" /><path clip-path="url(#clip520)" d="M14.479 883.246 L19.3487 883.246 L19.3487 888.848 Q19.3487 891.999 20.6219 893.241 Q21.895 894.45 25.2052 894.45 L28.3562 894.45 L28.3562 884.806 L32.9077 884.806 L32.9077 894.45 L64.0042 894.45 L64.0042 900.338 L32.9077 900.338 L32.9077 905.94 L28.3562 905.94 L28.3562 900.338 L25.8736 900.338 Q19.9216 900.338 17.2162 897.569 Q14.479 894.8 14.479 888.785 L14.479 883.246 Z" fill="#000000" fill-rule="nonzero" fill-opacity="1" /><path clip-path="url(#clip520)" d="M14.479 878.345 L14.479 872.488 L64.0042 872.488 L64.0042 878.345 L14.479 878.345 Z" fill="#000000" fill-rule="nonzero" fill-opacity="1" /><path clip-path="url(#clip520)" d="M44.7161 829.743 L47.5806 829.743 L47.5806 856.67 Q53.6281 856.288 56.8109 853.041 Q59.9619 849.763 59.9619 843.938 Q59.9619 840.564 59.1344 837.413 Q58.3069 834.231 56.6518 831.111 L62.1899 831.111 Q63.5267 834.262 64.227 837.573 Q64.9272 840.883 64.9272 844.288 Q64.9272 852.818 59.9619 857.815 Q54.9967 862.781 46.5303 862.781 Q37.7774 862.781 32.6531 858.07 Q27.4968 853.328 27.4968 845.307 Q27.4968 838.114 32.1438 833.944 Q36.7589 829.743 44.7161 829.743 M42.9973 835.599 Q38.1912 835.663 35.3266 838.305 Q32.4621 840.915 32.4621 845.243 Q32.4621 850.145 35.2312 853.105 Q38.0002 856.033 43.0292 856.479 L42.9973 835.599 Z" fill="#000000" fill-rule="nonzero" fill-opacity="1" /><path clip-path="url(#clip520)" d="M29.7248 794.477 L35.1993 794.477 Q33.8307 796.959 33.1623 799.474 Q32.4621 801.956 32.4621 804.503 Q32.4621 810.2 36.0905 813.351 Q39.6872 816.502 46.212 816.502 Q52.7369 816.502 56.3653 813.351 Q59.9619 810.2 59.9619 804.503 Q59.9619 801.956 59.2935 799.474 Q58.5933 796.959 57.2247 794.477 L62.6355 794.477 Q63.7814 796.927 64.3543 799.569 Q64.9272 802.179 64.9272 805.139 Q64.9272 813.192 59.8664 817.934 Q54.8057 822.677 46.212 822.677 Q37.491 822.677 32.4939 817.902 Q27.4968 813.096 27.4968 804.757 Q27.4968 802.052 28.0697 799.474 Q28.6108 796.896 29.7248 794.477 Z" fill="#000000" fill-rule="nonzero" fill-opacity="1" /><path clip-path="url(#clip520)" d="M18.2347 778.499 L28.3562 778.499 L28.3562 766.436 L32.9077 766.436 L32.9077 778.499 L52.2594 778.499 Q56.6199 778.499 57.8613 777.321 Q59.1026 776.112 59.1026 772.451 L59.1026 766.436 L64.0042 766.436 L64.0042 772.451 Q64.0042 779.231 61.4897 781.809 Q58.9434 784.387 52.2594 784.387 L32.9077 784.387 L32.9077 788.684 L28.3562 788.684 L28.3562 784.387 L18.2347 784.387 L18.2347 778.499 Z" fill="#000000" fill-rule="nonzero" fill-opacity="1" /><path clip-path="url(#clip520)" d="M28.3562 758.733 L28.3562 752.877 L64.0042 752.877 L64.0042 758.733 L28.3562 758.733 M14.479 758.733 L14.479 752.877 L21.895 752.877 L21.895 758.733 L14.479 758.733 Z" fill="#000000" fill-rule="nonzero" fill-opacity="1" /><path clip-path="url(#clip520)" d="M28.3562 744.824 L28.3562 738.618 L58.275 727.478 L28.3562 716.338 L28.3562 710.131 L64.0042 723.499 L64.0042 731.456 L28.3562 744.824 Z" fill="#000000" fill-rule="nonzero" fill-opacity="1" /><path clip-path="url(#clip520)" d="M28.3562 702.047 L28.3562 696.19 L64.0042 696.19 L64.0042 702.047 L28.3562 702.047 M14.479 702.047 L14.479 696.19 L21.895 696.19 L21.895 702.047 L14.479 702.047 Z" fill="#000000" fill-rule="nonzero" fill-opacity="1" /><path clip-path="url(#clip520)" d="M18.2347 678.143 L28.3562 678.143 L28.3562 666.08 L32.9077 666.08 L32.9077 678.143 L52.2594 678.143 Q56.6199 678.143 57.8613 676.966 Q59.1026 675.756 59.1026 672.096 L59.1026 666.08 L64.0042 666.08 L64.0042 672.096 Q64.0042 678.875 61.4897 681.454 Q58.9434 684.032 52.2594 684.032 L32.9077 684.032 L32.9077 688.329 L28.3562 688.329 L28.3562 684.032 L18.2347 684.032 L18.2347 678.143 Z" fill="#000000" fill-rule="nonzero" fill-opacity="1" /><path clip-path="url(#clip520)" d="M67.3143 643.546 Q73.68 646.028 75.6216 648.384 Q77.5631 650.739 77.5631 654.686 L77.5631 659.365 L72.6615 659.365 L72.6615 655.927 Q72.6615 653.508 71.5157 652.171 Q70.3699 650.835 66.1048 649.211 L63.4312 648.161 L28.3562 662.579 L28.3562 656.373 L56.238 645.233 L28.3562 634.093 L28.3562 627.886 L67.3143 643.546 Z" fill="#000000" fill-rule="nonzero" fill-opacity="1" /><path clip-path="url(#clip520)" d="M18.0438 570.34 L24.314 570.34 Q22.5634 574 21.704 577.247 Q20.8447 580.493 20.8447 583.517 Q20.8447 588.769 22.8817 591.633 Q24.9187 594.466 28.6745 594.466 Q31.8255 594.466 33.4488 592.588 Q35.0402 590.679 36.0269 585.395 L36.8226 581.512 Q38.1912 574.319 41.6605 570.913 Q45.098 567.476 50.8908 567.476 Q57.7976 567.476 61.3624 572.123 Q64.9272 576.738 64.9272 585.682 Q64.9272 589.055 64.1633 592.875 Q63.3994 596.662 61.9035 600.736 L55.2831 600.736 Q57.4793 596.822 58.5933 593.066 Q59.7073 589.31 59.7073 585.682 Q59.7073 580.175 57.543 577.183 Q55.3786 574.191 51.3682 574.191 Q47.8671 574.191 45.8937 576.356 Q43.9204 578.488 42.9337 583.39 L42.1698 587.305 Q40.7375 594.498 37.682 597.713 Q34.6264 600.927 29.1837 600.927 Q22.8817 600.927 19.2532 596.503 Q15.6248 592.047 15.6248 584.249 Q15.6248 580.907 16.2295 577.438 Q16.8343 573.969 18.0438 570.34 Z" fill="#000000" fill-rule="nonzero" fill-opacity="1" /><path clip-path="url(#clip520)" d="M58.5933 555.763 L58.5933 545.259 L22.3406 545.259 L24.6323 556.686 L18.7758 556.686 L16.4842 545.323 L16.4842 538.894 L58.5933 538.894 L58.5933 528.39 L64.0042 528.39 L64.0042 555.763 L58.5933 555.763 Z" fill="#000000" fill-rule="nonzero" fill-opacity="1" /><path clip-path="url(#clip520)" d="M58.5933 514.29 L58.5933 503.787 L22.3406 503.787 L24.6323 515.213 L18.7758 515.213 L16.4842 503.85 L16.4842 497.421 L58.5933 497.421 L58.5933 486.918 L64.0042 486.918 L64.0042 514.29 L58.5933 514.29 Z" fill="#000000" fill-rule="nonzero" fill-opacity="1" /><polyline clip-path="url(#clip522)" style="stroke:#009af9; stroke-linecap:round; stroke-linejoin:round; stroke-width:4; stroke-opacity:1; fill:none" points="294.087,1342.35 296.087,1339.23 298.088,1336.1 300.089,1332.98 302.09,1329.85 304.09,1326.72 306.091,1323.59 308.092,1320.46 310.092,1317.33 312.093,1314.2 314.094,1311.07 316.094,1307.94 318.095,1304.81 320.096,1301.68 322.097,1298.55 324.097,1295.42 326.098,1292.28 328.099,1289.15 330.099,1286.02 332.1,1282.88 334.101,1279.75 336.102,1276.61 338.102,1273.48 340.103,1270.34 342.104,1267.21 344.104,1264.07 346.105,1260.94 348.106,1257.8 350.107,1254.66 352.107,1251.53 354.108,1248.39 356.109,1245.25 358.109,1242.11 360.11,1238.98 362.111,1235.84 364.111,1232.7 366.112,1229.56 368.113,1226.42 370.114,1223.29 372.114,1220.15 374.115,1217.01 376.116,1213.87 378.116,1210.73 380.117,1207.59 382.118,1204.45 384.119,1201.32 386.119,1198.18 388.12,1195.04 390.121,1191.9 392.121,1188.76 394.122,1185.62 396.123,1182.48 398.124,1179.34 400.124,1176.21 402.125,1173.07 404.126,1169.93 406.126,1166.79 408.127,1163.65 410.128,1160.52 412.129,1157.38 414.129,1154.24 416.13,1151.1 418.131,1147.97 420.131,1144.83 422.132,1141.69 424.133,1138.56 426.133,1135.42 428.134,1132.29 430.135,1129.15 432.136,1126.01 434.136,1122.88 436.137,1119.75 438.138,1116.61 440.138,1113.48 442.139,1110.35 444.14,1107.21 446.141,1104.08 448.141,1100.95 450.142,1097.82 452.143,1094.69 454.143,1091.56 456.144,1088.43 458.145,1085.3 460.146,1082.17 462.146,1079.04 464.147,1075.91 466.148,1072.79 468.148,1069.66 470.149,1066.54 472.15,1063.41 474.15,1060.29 476.151,1057.16 478.152,1054.04 480.153,1050.92 482.153,1047.8 484.154,1044.68 486.155,1041.56 488.155,1038.44 490.156,1035.32 492.157,1032.2 494.158,1029.08 496.158,1025.97 498.159,1022.85 500.16,1019.74 502.16,1016.63 504.161,1013.52 506.162,1010.4 508.163,1007.29 510.163,1004.19 512.164,1001.08 514.165,997.97 516.165,994.864 518.166,991.759 520.167,988.655 522.167,985.552 524.168,982.451 526.169,979.35 528.17,976.251 530.17,973.152 532.171,970.055 534.172,966.959 536.172,963.865 538.173,960.772 540.174,957.679 542.175,954.589 544.175,951.499 546.176,948.411 548.177,945.324 550.177,942.239 552.178,939.155 554.179,936.072 556.18,932.991 558.18,929.911 560.181,926.833 562.182,923.756 564.182,920.68 566.183,917.606 568.184,914.534 570.184,911.463 572.185,908.394 574.186,905.327 576.187,902.261 578.187,899.196 580.188,896.134 582.189,893.073 584.189,890.014 586.19,886.956 588.191,883.9 590.192,880.846 592.192,877.794 594.193,874.744 596.194,871.695 598.194,868.648 600.195,865.604 602.196,862.561 604.197,859.52 606.197,856.48 608.198,853.443 610.199,850.408 612.199,847.375 614.2,844.344 616.201,841.315 618.201,838.288 620.202,835.263 622.203,832.24 624.204,829.219 626.204,826.2 628.205,823.184 630.206,820.17 632.206,817.158 634.207,814.148 636.208,811.141 638.209,808.135 640.209,805.132 642.21,802.132 644.211,799.134 646.211,796.138 648.212,793.144 650.213,790.153 652.214,787.165 654.214,784.179 656.215,781.195 658.216,778.214 660.216,775.235 662.217,772.259 664.218,769.286 666.219,766.315 668.219,763.347 670.22,760.381 672.221,757.419 674.221,754.458 676.222,751.501 678.223,748.546 680.223,745.594 682.224,742.645 684.225,739.699 686.226,736.756 688.226,733.815 690.227,730.877 692.228,727.942 694.228,725.011 696.229,722.082 698.23,719.156 700.231,716.233 702.231,713.313 704.232,710.396 706.233,707.483 708.233,704.572 710.234,701.665 712.235,698.761 714.236,695.859 716.236,692.962 718.237,690.067 720.238,687.176 722.238,684.288 724.239,681.403 726.24,678.521 728.24,675.643 730.241,672.769 732.242,669.897 734.243,667.03 736.243,664.165 738.244,661.304 740.245,658.447 742.245,655.593 744.246,652.743 746.247,649.897 748.248,647.054 750.248,644.214 752.249,641.379 754.25,638.547 756.25,635.718 758.251,632.894 760.252,630.073 762.253,627.256 764.253,624.443 766.254,621.634 768.255,618.829 770.255,616.027 772.256,613.23 774.257,610.437 776.257,607.647 778.258,604.862 780.259,602.08 782.26,599.303 784.26,596.53 786.261,593.761 788.262,590.996 790.262,588.235 792.263,585.478 794.264,582.726 796.265,579.978 798.265,577.234 800.266,574.495 802.267,571.76 804.267,569.029 806.268,566.303 808.269,563.581 810.27,560.864 812.27,558.151 814.271,555.442 816.272,552.739 818.272,550.039 820.273,547.345 822.274,544.655 824.274,541.969 826.275,539.289 828.276,536.613 830.277,533.942 832.277,531.275 834.278,528.614 836.279,525.957 838.279,523.305 840.28,520.658 842.281,518.016 844.282,515.379 846.282,512.747 848.283,510.119 850.284,507.497 852.284,504.88 854.285,502.268 856.286,499.661 858.287,497.06 860.287,494.463 862.288,491.872 864.289,489.286 866.289,486.705 868.29,484.13 870.291,481.559 872.291,478.995 874.292,476.435 876.293,473.881 878.294,471.333 880.294,468.79 882.295,466.252 884.296,463.72 886.296,461.194 888.297,458.673 890.298,456.158 892.299,453.648 894.299,451.144 896.3,448.646 898.301,446.154 900.301,443.667 902.302,441.186 904.303,438.711 906.304,436.242 908.304,433.779 910.305,431.322 912.306,428.87 914.306,426.425 916.307,423.986 918.308,421.553 920.309,419.126 922.309,416.705 924.31,414.29 926.311,411.881 928.311,409.478 930.312,407.082 932.313,404.692 934.313,402.309 936.314,399.931 938.315,397.56 940.316,395.196 942.316,392.838 944.317,390.486 946.318,388.141 948.318,385.802 950.319,383.47 952.32,381.144 954.321,378.825 956.321,376.513 958.322,374.208 960.323,371.909 962.323,369.617 964.324,367.331 966.325,365.053 968.326,362.781 970.326,360.516 972.327,358.258 974.328,356.007 976.328,353.763 978.329,351.526 980.33,349.296 982.33,347.073 984.331,344.857 986.332,342.648 988.333,340.446 990.333,338.252 992.334,336.065 994.335,333.885 996.335,331.712 998.336,329.547 1000.34,327.389 1002.34,325.238 1004.34,323.095 1006.34,320.959 1008.34,318.83 1010.34,316.71 1012.34,314.596 1014.34,312.491 1016.34,310.392 1018.34,308.302 1020.34,306.219 1022.34,304.144 1024.35,302.077 1026.35,300.017 1028.35,297.965 1030.35,295.921 1032.35,293.885 1034.35,291.857 1036.35,289.836 1038.35,287.824 1040.35,285.819 1042.35,283.823 1044.35,281.835 1046.35,279.854 1048.35,277.882 1050.35,275.918 1052.36,273.963 1054.36,272.015 1056.36,270.076 1058.36,268.145 1060.36,266.222 1062.36,264.307 1064.36,262.401 1066.36,260.504 1068.36,258.615 1070.36,256.734 1072.36,254.862 1074.36,252.998 1076.36,251.143 1078.36,249.297 1080.37,247.459 1082.37,245.629 1084.37,243.809 1086.37,241.997 1088.37,240.194 1090.37,238.4 1092.37,236.615 1094.37,234.838 1096.37,233.071 1098.37,231.312 1100.37,229.562 1102.37,227.822 1104.37,226.09 1106.37,224.367 1108.38,222.654 1110.38,220.949 1112.38,219.254 1114.38,217.568 1116.38,215.891 1118.38,214.223 1120.38,212.565 1122.38,210.916 1124.38,209.276 1126.38,207.646 1128.38,206.025 1130.38,204.413 1132.38,202.811 1134.38,201.219 1136.39,199.636 1138.39,198.063 1140.39,196.499 1142.39,194.945 1144.39,193.4 1146.39,191.865 1148.39,190.34 1150.39,188.825 1152.39,187.319 1154.39,185.824 1156.39,184.338 1158.39,182.862 1160.39,181.396 1162.39,179.94 1164.39,178.494 1166.4,177.058 1168.4,175.632 1170.4,174.216 1172.4,172.81 1174.4,171.414 1176.4,170.028 1178.4,168.653 1180.4,167.288 1182.4,165.933 1184.4,164.589 1186.4,163.254 1188.4,161.93 1190.4,160.617 1192.4,159.314 1194.41,158.021 1196.41,156.739 1198.41,155.467 1200.41,154.206 1202.41,152.956 1204.41,151.716 1206.41,150.487 1208.41,149.268 1210.41,148.06 1212.41,146.863 1214.41,145.676 1216.41,144.501 1218.41,143.336 1220.41,142.182 1222.42,141.039 1224.42,139.907 1226.42,138.785 1228.42,137.675 1230.42,136.576 1232.42,135.487 1234.42,134.41 1236.42,133.344 1238.42,132.289 1240.42,131.245 1242.42,130.212 1244.42,129.191 1246.42,128.181 1248.42,127.182 1250.43,126.194 1252.43,125.217 1254.43,124.252 1256.43,123.299 1258.43,122.356 1260.43,121.426 1262.43,120.506 1264.43,119.598 1266.43,118.702 1268.43,117.817 1270.43,116.944 1272.43,116.082 1274.43,115.232 1276.43,114.394 1278.44,113.568 1280.44,112.753 1282.44,111.949 1284.44,111.158 1286.44,110.379 1288.44,109.611 1290.44,108.855 1292.44,108.111 1294.44,107.379 1296.44,106.659 1298.44,105.951 1300.44,105.254 1302.44,104.57 1304.44,103.898 1306.45,103.238 1308.45,102.59 1310.45,101.954 1312.45,101.331 1314.45,100.719 1316.45,100.12 1318.45,99.5332 1320.45,98.9584 1322.45,98.396 1324.45,97.8458 1326.45,97.308 1328.45,96.7826 1330.45,96.2696 1332.45,95.7689 1334.46,95.2808 1336.46,94.805 1338.46,94.3418 1340.46,93.8911 1342.46,93.4529 1344.46,93.0274 1346.46,92.6143 1348.46,92.214 1350.46,91.8262 1352.46,91.4511 1354.46,91.0887 1356.46,90.739 1358.46,90.4021 1360.46,90.0779 1362.47,89.7665 1364.47,89.4679 1366.47,89.1822 1368.47,88.9093 1370.47,88.6492 1372.47,88.4021 1374.47,88.1679 1376.47,87.9467 1378.47,87.7384 1380.47,87.5431 1382.47,87.3608 1384.47,87.1916 1386.47,87.0354 1388.47,86.8923 1390.48,86.7623 1392.48,86.6455 1394.48,86.5418 1396.48,86.4512 1398.48,86.3739 1400.48,86.3097 1402.48,86.2588 1404.48,86.2211 1406.48,86.1968 1408.48,86.1857 1410.48,86.1879 1412.48,86.2035 1414.48,86.2324 1416.48,86.2747 1418.48,86.3304 1420.49,86.3995 1422.49,86.482 1424.49,86.578 1426.49,86.6875 1428.49,86.8105 1430.49,86.9469 1432.49,87.097 1434.49,87.2605 1436.49,87.4377 1438.49,87.6284 1440.49,87.8327 1442.49,88.0507 1444.49,88.2822 1446.49,88.5275 1448.5,88.7864 1450.5,89.0591 1452.5,89.3454 1454.5,89.6455 1456.5,89.9593 1458.5,90.2869 1460.5,90.6282 1462.5,90.9834 1464.5,91.3523 1466.5,91.7351 1468.5,92.1318 1470.5,92.5423 1472.5,92.9667 1474.5,93.4049 1476.51,93.8571 1478.51,94.3232 1480.51,94.8033 1482.51,95.2973 1484.51,95.8052 1486.51,96.3272 1488.51,96.8631 1490.51,97.4131 1492.51,97.977 1494.51,98.5551 1496.51,99.1471 1498.51,99.7533 1500.51,100.373 1502.51,101.008 1504.52,101.656 1506.52,102.319 1508.52,102.995 1510.52,103.686 1512.52,104.391 1514.52,105.11 1516.52,105.844 1518.52,106.591 1520.52,107.353 1522.52,108.129 1524.52,108.919 1526.52,109.723 1528.52,110.542 1530.52,111.375 1532.53,112.222 1534.53,113.083 1536.53,113.959 1538.53,114.849 1540.53,115.753 1542.53,116.672 1544.53,117.605 1546.53,118.552 1548.53,119.513 1550.53,120.489 1552.53,121.48 1554.53,122.484 1556.53,123.503 1558.53,124.537 1560.54,125.585 1562.54,126.647 1564.54,127.724 1566.54,128.815 1568.54,129.92 1570.54,131.04 1572.54,132.174 1574.54,133.323 1576.54,134.486 1578.54,135.664 1580.54,136.856 1582.54,138.063 1584.54,139.284 1586.54,140.519 1588.55,141.769 1590.55,143.034 1592.55,144.313 1594.55,145.606 1596.55,146.914 1598.55,148.236 1600.55,149.573 1602.55,150.925 1604.55,152.291 1606.55,153.671 1608.55,155.066 1610.55,156.476 1612.55,157.9 1614.55,159.338 1616.56,160.791 1618.56,162.259 1620.56,163.741 1622.56,165.238 1624.56,166.749 1626.56,168.275 1628.56,169.815 1630.56,171.37 1632.56,172.939 1634.56,174.523 1636.56,176.121 1638.56,177.734 1640.56,179.361 1642.56,181.003 1644.57,182.66 1646.57,184.331 1648.57,186.016 1650.57,187.716 1652.57,189.431 1654.57,191.16 1656.57,192.904 1658.57,194.662 1660.57,196.434 1662.57,198.221 1664.57,200.023 1666.57,201.839 1668.57,203.67 1670.57,205.515 1672.57,207.375 1674.58,209.249 1676.58,211.137 1678.58,213.04 1680.58,214.958 1682.58,216.89 1684.58,218.836 1686.58,220.797 1688.58,222.773 1690.58,224.763 1692.58,226.767 1694.58,228.786 1696.58,230.819 1698.58,232.866 1700.58,234.928 1702.59,237.005 1704.59,239.095 1706.59,241.201 1708.59,243.32 1710.59,245.454 1712.59,247.602 1714.59,249.765 1716.59,251.942 1718.59,254.133 1720.59,256.339 1722.59,258.559 1724.59,260.793 1726.59,263.042 1728.59,265.305 1730.6,267.582 1732.6,269.873 1734.6,272.179 1736.6,274.499 1738.6,276.833 1740.6,279.182 1742.6,281.544 1744.6,283.921 1746.6,286.312 1748.6,288.717 1750.6,291.137 1752.6,293.57 1754.6,296.018 1756.6,298.48 1758.61,300.956 1760.61,303.446 1762.61,305.95 1764.61,308.468 1766.61,311 1768.61,313.547 1770.61,316.107 1772.61,318.681 1774.61,321.27 1776.61,323.872 1778.61,326.488 1780.61,329.118 1782.61,331.763 1784.61,334.421 1786.62,337.093 1788.62,339.779 1790.62,342.478 1792.62,345.192 1794.62,347.919 1796.62,350.661 1798.62,353.416 1800.62,356.185 1802.62,358.967 1804.62,361.764 1806.62,364.574 1808.62,367.398 1810.62,370.235 1812.62,373.086 1814.63,375.951 1816.63,378.83 1818.63,381.722 1820.63,384.628 1822.63,387.547 1824.63,390.48 1826.63,393.426 1828.63,396.386 1830.63,399.36 1832.63,402.347 1834.63,405.347 1836.63,408.361 1838.63,411.388 1840.63,414.428 1842.64,417.482 1844.64,420.55 1846.64,423.63 1848.64,426.724 1850.64,429.831 1852.64,432.952 1854.64,436.086 1856.64,439.232 1858.64,442.393 1860.64,445.566 1862.64,448.752 1864.64,451.952 1866.64,455.164 1868.64,458.39 1870.65,461.629 1872.65,464.88 1874.65,468.145 1876.65,471.423 1878.65,474.713 1880.65,478.017 1882.65,481.333 1884.65,484.662 1886.65,488.004 1888.65,491.359 1890.65,494.727 1892.65,498.107 1894.65,501.5 1896.65,504.906 1898.66,508.325 1900.66,511.756 1902.66,515.2 1904.66,518.656 1906.66,522.125 1908.66,525.607 1910.66,529.101 1912.66,532.607 1914.66,536.126 1916.66,539.657 1918.66,543.201 1920.66,546.757 1922.66,550.325 1924.66,553.906 1926.66,557.499 1928.67,561.104 1930.67,564.722 1932.67,568.351 1934.67,571.993 1936.67,575.647 1938.67,579.313 1940.67,582.991 1942.67,586.681 1944.67,590.383 1946.67,594.097 1948.67,597.823 1950.67,601.561 1952.67,605.311 1954.67,609.073 1956.68,612.846 1958.68,616.631 1960.68,620.428 1962.68,624.237 1964.68,628.057 1966.68,631.889 1968.68,635.732 1970.68,639.588 1972.68,643.454 1974.68,647.332 1976.68,651.222 1978.68,655.123 1980.68,659.036 1982.68,662.96 1984.69,666.895 1986.69,670.841 1988.69,674.799 1990.69,678.768 1992.69,682.748 1994.69,686.74 1996.69,690.742 1998.69,694.756 2000.69,698.781 2002.69,702.816 2004.69,706.863 2006.69,710.921 2008.69,714.989 2010.69,719.069 2012.7,723.159 2014.7,727.26 2016.7,731.372 2018.7,735.494 2020.7,739.628 2022.7,743.772 2024.7,747.926 2026.7,752.092 2028.7,756.267 2030.7,760.453 2032.7,764.65 2034.7,768.857 2036.7,773.075 2038.7,777.303 2040.71,781.541 2042.71,785.79 2044.71,790.048 2046.71,794.317 2048.71,798.596 2050.71,802.886 2052.71,807.185 2054.71,811.495 2056.71,815.814 2058.71,820.143 2060.71,824.483 2062.71,828.832 2064.71,833.191 2066.71,837.56 2068.72,841.939 2070.72,846.327 2072.72,850.726 2074.72,855.133 2076.72,859.551 2078.72,863.978 2080.72,868.414 2082.72,872.861 2084.72,877.316 2086.72,881.781 2088.72,886.255 2090.72,890.739 2092.72,895.232 2094.72,899.734 2096.73,904.246 2098.73,908.766 2100.73,913.296 2102.73,917.835 2104.73,922.383 2106.73,926.94 2108.73,931.506 2110.73,936.081 2112.73,940.664 2114.73,945.257 2116.73,949.858 2118.73,954.469 2120.73,959.087 2122.73,963.715 2124.74,968.351 2126.74,972.996 2128.74,977.649 2130.74,982.311 2132.74,986.982 2134.74,991.66 2136.74,996.347 2138.74,1001.04 2140.74,1005.75 2142.74,1010.46 2144.74,1015.18 2146.74,1019.91 2148.74,1024.64 2150.74,1029.39 2152.75,1034.14 2154.75,1038.9 2156.75,1043.67 2158.75,1048.45 2160.75,1053.23 2162.75,1058.02 2164.75,1062.82 2166.75,1067.63 2168.75,1072.45 2170.75,1077.27 2172.75,1082.1 2174.75,1086.94 2176.75,1091.79 2178.75,1096.64 2180.75,1101.5 2182.76,1106.37 2184.76,1111.24 2186.76,1116.13 2188.76,1121.02 2190.76,1125.91 2192.76,1130.82 2194.76,1135.73 2196.76,1140.65 2198.76,1145.58 2200.76,1150.51 2202.76,1155.45 2204.76,1160.4 2206.76,1165.35 2208.76,1170.31 2210.77,1175.28 2212.77,1180.25 2214.77,1185.23 2216.77,1190.22 2218.77,1195.21 2220.77,1200.21 2222.77,1205.22 2224.77,1210.23 2226.77,1215.25 2228.77,1220.28 2230.77,1225.31 2232.77,1230.35 2234.77,1235.4 2236.77,1240.45 2238.78,1245.51 2240.78,1250.57 2242.78,1255.64 2244.78,1260.72 2246.78,1265.8 2248.78,1270.89 2250.78,1275.98 2252.78,1281.08 2254.78,1286.19 2256.78,1291.3 2258.78,1296.41 2260.78,1301.54 2262.78,1306.67 2264.78,1311.8 2266.79,1316.94 2268.79,1322.08 2270.79,1327.23 2272.79,1332.39 2274.79,1337.55 2276.79,1342.72 2278.79,1347.89 2280.79,1353.07 2282.79,1358.25 2284.79,1363.44 2286.79,1368.63 2288.79,1373.83 2290.79,1379.03 2292.79,1384.24 "/>
<path clip-path="url(#clip520)" d="M304.746 196.789 L569.04 196.789 L569.04 93.1086 L304.746 93.1086  Z" fill="#ffffff" fill-rule="evenodd" fill-opacity="1"/>
<polyline clip-path="url(#clip520)" style="stroke:#000000; stroke-linecap:round; stroke-linejoin:round; stroke-width:4; stroke-opacity:1; fill:none" points="304.746,196.789 569.04,196.789 569.04,93.1086 304.746,93.1086 304.746,196.789 "/>
<polyline clip-path="url(#clip520)" style="stroke:#009af9; stroke-linecap:round; stroke-linejoin:round; stroke-width:4; stroke-opacity:1; fill:none" points="328.287,144.949 469.529,144.949 "/>
<path clip-path="url(#clip520)" d="M506.912 164.636 Q505.106 169.266 503.393 170.678 Q501.68 172.09 498.81 172.09 L495.407 172.09 L495.407 168.525 L497.907 168.525 Q499.666 168.525 500.639 167.692 Q501.611 166.858 502.791 163.756 L503.555 161.812 L493.069 136.303 L497.583 136.303 L505.685 156.581 L513.787 136.303 L518.301 136.303 L506.912 164.636 Z" fill="#000000" fill-rule="nonzero" fill-opacity="1" /><path clip-path="url(#clip520)" d="M525.592 158.293 L533.231 158.293 L533.231 131.928 L524.921 133.595 L524.921 129.335 L533.185 127.669 L537.861 127.669 L537.861 158.293 L545.499 158.293 L545.499 162.229 L525.592 162.229 L525.592 158.293 Z" fill="#000000" fill-rule="nonzero" fill-opacity="1" /></svg>
