<?xml version="1.0" encoding="utf-8"?>
<svg xmlns="http://www.w3.org/2000/svg" xmlns:xlink="http://www.w3.org/1999/xlink" width="600" height="400" viewBox="0 0 2400 1600">
<defs>
  <clipPath id="clip030">
    <rect x="0" y="0" width="2400" height="1600"/>
  </clipPath>
</defs>
<path clip-path="url(#clip030)" d="M0 1600 L2400 1600 L2400 0 L0 0  Z" fill="#ffffff" fill-rule="evenodd" fill-opacity="1"/>
<defs>
  <clipPath id="clip031">
    <rect x="480" y="0" width="1681" height="1600"/>
  </clipPath>
</defs>
<path clip-path="url(#clip030)" d="M248.778 1423.18 L2352.76 1423.18 L2352.76 47.2441 L248.778 47.2441  Z" fill="#ffffff" fill-rule="evenodd" fill-opacity="1"/>
<defs>
  <clipPath id="clip032">
    <rect x="248" y="47" width="2105" height="1377"/>
  </clipPath>
</defs>
<polyline clip-path="url(#clip032)" style="stroke:#000000; stroke-linecap:round; stroke-linejoin:round; stroke-width:2; stroke-opacity:0.1; fill:none" points="506.813,1423.18 506.813,47.2441 "/>
<polyline clip-path="url(#clip032)" style="stroke:#000000; stroke-linecap:round; stroke-linejoin:round; stroke-width:2; stroke-opacity:0.1; fill:none" points="903.79,1423.18 903.79,47.2441 "/>
<polyline clip-path="url(#clip032)" style="stroke:#000000; stroke-linecap:round; stroke-linejoin:round; stroke-width:2; stroke-opacity:0.1; fill:none" points="1300.77,1423.18 1300.77,47.2441 "/>
<polyline clip-path="url(#clip032)" style="stroke:#000000; stroke-linecap:round; stroke-linejoin:round; stroke-width:2; stroke-opacity:0.1; fill:none" points="1697.74,1423.18 1697.74,47.2441 "/>
<polyline clip-path="url(#clip032)" style="stroke:#000000; stroke-linecap:round; stroke-linejoin:round; stroke-width:2; stroke-opacity:0.1; fill:none" points="2094.72,1423.18 2094.72,47.2441 "/>
<polyline clip-path="url(#clip032)" style="stroke:#000000; stroke-linecap:round; stroke-linejoin:round; stroke-width:2; stroke-opacity:0.1; fill:none" points="248.778,1166.51 2352.76,1166.51 "/>
<polyline clip-path="url(#clip032)" style="stroke:#000000; stroke-linecap:round; stroke-linejoin:round; stroke-width:2; stroke-opacity:0.1; fill:none" points="248.778,849.703 2352.76,849.703 "/>
<polyline clip-path="url(#clip032)" style="stroke:#000000; stroke-linecap:round; stroke-linejoin:round; stroke-width:2; stroke-opacity:0.1; fill:none" points="248.778,532.896 2352.76,532.896 "/>
<polyline clip-path="url(#clip032)" style="stroke:#000000; stroke-linecap:round; stroke-linejoin:round; stroke-width:2; stroke-opacity:0.1; fill:none" points="248.778,216.089 2352.76,216.089 "/>
<polyline clip-path="url(#clip030)" style="stroke:#000000; stroke-linecap:round; stroke-linejoin:round; stroke-width:4; stroke-opacity:1; fill:none" points="248.778,1423.18 2352.76,1423.18 "/>
<polyline clip-path="url(#clip030)" style="stroke:#000000; stroke-linecap:round; stroke-linejoin:round; stroke-width:4; stroke-opacity:1; fill:none" points="506.813,1423.18 506.813,1404.28 "/>
<polyline clip-path="url(#clip030)" style="stroke:#000000; stroke-linecap:round; stroke-linejoin:round; stroke-width:4; stroke-opacity:1; fill:none" points="903.79,1423.18 903.79,1404.28 "/>
<polyline clip-path="url(#clip030)" style="stroke:#000000; stroke-linecap:round; stroke-linejoin:round; stroke-width:4; stroke-opacity:1; fill:none" points="1300.77,1423.18 1300.77,1404.28 "/>
<polyline clip-path="url(#clip030)" style="stroke:#000000; stroke-linecap:round; stroke-linejoin:round; stroke-width:4; stroke-opacity:1; fill:none" points="1697.74,1423.18 1697.74,1404.28 "/>
<polyline clip-path="url(#clip030)" style="stroke:#000000; stroke-linecap:round; stroke-linejoin:round; stroke-width:4; stroke-opacity:1; fill:none" points="2094.72,1423.18 2094.72,1404.28 "/>
<path clip-path="url(#clip030)" d="M462.89 1481.64 L479.209 1481.64 L479.209 1485.58 L457.265 1485.58 L457.265 1481.64 Q459.927 1478.89 464.51 1474.26 Q469.117 1469.61 470.297 1468.27 Q472.543 1465.74 473.422 1464.01 Q474.325 1462.25 474.325 1460.56 Q474.325 1457.8 472.38 1456.07 Q470.459 1454.33 467.357 1454.33 Q465.158 1454.33 462.705 1455.09 Q460.274 1455.86 457.496 1457.41 L457.496 1452.69 Q460.32 1451.55 462.774 1450.97 Q465.228 1450.39 467.265 1450.39 Q472.635 1450.39 475.83 1453.08 Q479.024 1455.77 479.024 1460.26 Q479.024 1462.39 478.214 1464.31 Q477.427 1466.2 475.32 1468.8 Q474.742 1469.47 471.64 1472.69 Q468.538 1475.88 462.89 1481.64 Z" fill="#000000" fill-rule="nonzero" fill-opacity="1" /><path clip-path="url(#clip030)" d="M501.871 1455.09 L490.066 1473.54 L501.871 1473.54 L501.871 1455.09 M500.644 1451.02 L506.524 1451.02 L506.524 1473.54 L511.454 1473.54 L511.454 1477.43 L506.524 1477.43 L506.524 1485.58 L501.871 1485.58 L501.871 1477.43 L486.269 1477.43 L486.269 1472.92 L500.644 1451.02 Z" fill="#000000" fill-rule="nonzero" fill-opacity="1" /><path clip-path="url(#clip030)" d="M519.186 1479.7 L524.07 1479.7 L524.07 1485.58 L519.186 1485.58 L519.186 1479.7 Z" fill="#000000" fill-rule="nonzero" fill-opacity="1" /><path clip-path="url(#clip030)" d="M544.834 1466.44 Q541.686 1466.44 539.834 1468.59 Q538.005 1470.74 538.005 1474.49 Q538.005 1478.22 539.834 1480.39 Q541.686 1482.55 544.834 1482.55 Q547.982 1482.55 549.811 1480.39 Q551.662 1478.22 551.662 1474.49 Q551.662 1470.74 549.811 1468.59 Q547.982 1466.44 544.834 1466.44 M554.116 1451.78 L554.116 1456.04 Q552.357 1455.21 550.551 1454.77 Q548.769 1454.33 547.01 1454.33 Q542.38 1454.33 539.926 1457.45 Q537.496 1460.58 537.149 1466.9 Q538.514 1464.89 540.575 1463.82 Q542.635 1462.73 545.112 1462.73 Q550.32 1462.73 553.329 1465.9 Q556.362 1469.05 556.362 1474.49 Q556.362 1479.82 553.213 1483.03 Q550.065 1486.25 544.834 1486.25 Q538.838 1486.25 535.667 1481.67 Q532.496 1477.06 532.496 1468.33 Q532.496 1460.14 536.385 1455.28 Q540.274 1450.39 546.825 1450.39 Q548.584 1450.39 550.366 1450.74 Q552.172 1451.09 554.116 1451.78 Z" fill="#000000" fill-rule="nonzero" fill-opacity="1" /><path clip-path="url(#clip030)" d="M859.994 1481.64 L876.313 1481.64 L876.313 1485.58 L854.369 1485.58 L854.369 1481.64 Q857.031 1478.89 861.614 1474.26 Q866.221 1469.61 867.401 1468.27 Q869.647 1465.74 870.526 1464.01 Q871.429 1462.25 871.429 1460.56 Q871.429 1457.8 869.485 1456.07 Q867.563 1454.33 864.462 1454.33 Q862.263 1454.33 859.809 1455.09 Q857.378 1455.86 854.601 1457.41 L854.601 1452.69 Q857.425 1451.55 859.878 1450.97 Q862.332 1450.39 864.369 1450.39 Q869.739 1450.39 872.934 1453.08 Q876.128 1455.77 876.128 1460.26 Q876.128 1462.39 875.318 1464.31 Q874.531 1466.2 872.425 1468.8 Q871.846 1469.47 868.744 1472.69 Q865.642 1475.88 859.994 1481.64 Z" fill="#000000" fill-rule="nonzero" fill-opacity="1" /><path clip-path="url(#clip030)" d="M898.975 1455.09 L887.17 1473.54 L898.975 1473.54 L898.975 1455.09 M897.748 1451.02 L903.628 1451.02 L903.628 1473.54 L908.559 1473.54 L908.559 1477.43 L903.628 1477.43 L903.628 1485.58 L898.975 1485.58 L898.975 1477.43 L883.374 1477.43 L883.374 1472.92 L897.748 1451.02 Z" fill="#000000" fill-rule="nonzero" fill-opacity="1" /><path clip-path="url(#clip030)" d="M916.29 1479.7 L921.174 1479.7 L921.174 1485.58 L916.29 1485.58 L916.29 1479.7 Z" fill="#000000" fill-rule="nonzero" fill-opacity="1" /><path clip-path="url(#clip030)" d="M941.359 1469.17 Q938.026 1469.17 936.105 1470.95 Q934.207 1472.73 934.207 1475.86 Q934.207 1478.98 936.105 1480.77 Q938.026 1482.55 941.359 1482.55 Q944.693 1482.55 946.614 1480.77 Q948.535 1478.96 948.535 1475.86 Q948.535 1472.73 946.614 1470.95 Q944.716 1469.17 941.359 1469.17 M936.683 1467.18 Q933.674 1466.44 931.984 1464.38 Q930.318 1462.32 930.318 1459.35 Q930.318 1455.21 933.258 1452.8 Q936.22 1450.39 941.359 1450.39 Q946.521 1450.39 949.461 1452.8 Q952.401 1455.21 952.401 1459.35 Q952.401 1462.32 950.711 1464.38 Q949.044 1466.44 946.058 1467.18 Q949.438 1467.96 951.313 1470.26 Q953.211 1472.55 953.211 1475.86 Q953.211 1480.88 950.132 1483.57 Q947.077 1486.25 941.359 1486.25 Q935.642 1486.25 932.563 1483.57 Q929.508 1480.88 929.508 1475.86 Q929.508 1472.55 931.406 1470.26 Q933.304 1467.96 936.683 1467.18 M934.97 1459.79 Q934.97 1462.48 936.637 1463.98 Q938.327 1465.49 941.359 1465.49 Q944.369 1465.49 946.058 1463.98 Q947.771 1462.48 947.771 1459.79 Q947.771 1457.11 946.058 1455.6 Q944.369 1454.1 941.359 1454.1 Q938.327 1454.1 936.637 1455.6 Q934.97 1457.11 934.97 1459.79 Z" fill="#000000" fill-rule="nonzero" fill-opacity="1" /><path clip-path="url(#clip030)" d="M1256.92 1481.64 L1273.24 1481.64 L1273.24 1485.58 L1251.3 1485.58 L1251.3 1481.64 Q1253.96 1478.89 1258.55 1474.26 Q1263.15 1469.61 1264.33 1468.27 Q1266.58 1465.74 1267.46 1464.01 Q1268.36 1462.25 1268.36 1460.56 Q1268.36 1457.8 1266.42 1456.07 Q1264.49 1454.33 1261.39 1454.33 Q1259.19 1454.33 1256.74 1455.09 Q1254.31 1455.86 1251.53 1457.41 L1251.53 1452.69 Q1254.36 1451.55 1256.81 1450.97 Q1259.26 1450.39 1261.3 1450.39 Q1266.67 1450.39 1269.86 1453.08 Q1273.06 1455.77 1273.06 1460.26 Q1273.06 1462.39 1272.25 1464.31 Q1271.46 1466.2 1269.36 1468.8 Q1268.78 1469.47 1265.67 1472.69 Q1262.57 1475.88 1256.92 1481.64 Z" fill="#000000" fill-rule="nonzero" fill-opacity="1" /><path clip-path="url(#clip030)" d="M1283.11 1451.02 L1301.46 1451.02 L1301.46 1454.96 L1287.39 1454.96 L1287.39 1463.43 Q1288.41 1463.08 1289.42 1462.92 Q1290.44 1462.73 1291.46 1462.73 Q1297.25 1462.73 1300.63 1465.9 Q1304.01 1469.08 1304.01 1474.49 Q1304.01 1480.07 1300.54 1483.17 Q1297.06 1486.25 1290.74 1486.25 Q1288.57 1486.25 1286.3 1485.88 Q1284.05 1485.51 1281.65 1484.77 L1281.65 1480.07 Q1283.73 1481.2 1285.95 1481.76 Q1288.17 1482.32 1290.65 1482.32 Q1294.66 1482.32 1296.99 1480.21 Q1299.33 1478.1 1299.33 1474.49 Q1299.33 1470.88 1296.99 1468.77 Q1294.66 1466.67 1290.65 1466.67 Q1288.78 1466.67 1286.9 1467.08 Q1285.05 1467.5 1283.11 1468.38 L1283.11 1451.02 Z" fill="#000000" fill-rule="nonzero" fill-opacity="1" /><path clip-path="url(#clip030)" d="M1313.22 1479.7 L1318.1 1479.7 L1318.1 1485.58 L1313.22 1485.58 L1313.22 1479.7 Z" fill="#000000" fill-rule="nonzero" fill-opacity="1" /><path clip-path="url(#clip030)" d="M1338.29 1454.1 Q1334.68 1454.1 1332.85 1457.66 Q1331.04 1461.2 1331.04 1468.33 Q1331.04 1475.44 1332.85 1479.01 Q1334.68 1482.55 1338.29 1482.55 Q1341.92 1482.55 1343.73 1479.01 Q1345.56 1475.44 1345.56 1468.33 Q1345.56 1461.2 1343.73 1457.66 Q1341.92 1454.1 1338.29 1454.1 M1338.29 1450.39 Q1344.1 1450.39 1347.16 1455 Q1350.23 1459.58 1350.23 1468.33 Q1350.23 1477.06 1347.16 1481.67 Q1344.1 1486.25 1338.29 1486.25 Q1332.48 1486.25 1329.4 1481.67 Q1326.35 1477.06 1326.35 1468.33 Q1326.35 1459.58 1329.4 1455 Q1332.48 1450.39 1338.29 1450.39 Z" fill="#000000" fill-rule="nonzero" fill-opacity="1" /><path clip-path="url(#clip030)" d="M1654.7 1481.64 L1671.02 1481.64 L1671.02 1485.58 L1649.08 1485.58 L1649.08 1481.64 Q1651.74 1478.89 1656.32 1474.26 Q1660.93 1469.61 1662.11 1468.27 Q1664.35 1465.74 1665.23 1464.01 Q1666.14 1462.25 1666.14 1460.56 Q1666.14 1457.8 1664.19 1456.07 Q1662.27 1454.33 1659.17 1454.33 Q1656.97 1454.33 1654.52 1455.09 Q1652.08 1455.86 1649.31 1457.41 L1649.31 1452.69 Q1652.13 1451.55 1654.58 1450.97 Q1657.04 1450.39 1659.08 1450.39 Q1664.45 1450.39 1667.64 1453.08 Q1670.83 1455.77 1670.83 1460.26 Q1670.83 1462.39 1670.02 1464.31 Q1669.24 1466.2 1667.13 1468.8 Q1666.55 1469.47 1663.45 1472.69 Q1660.35 1475.88 1654.7 1481.64 Z" fill="#000000" fill-rule="nonzero" fill-opacity="1" /><path clip-path="url(#clip030)" d="M1680.88 1451.02 L1699.24 1451.02 L1699.24 1454.96 L1685.16 1454.96 L1685.16 1463.43 Q1686.18 1463.08 1687.2 1462.92 Q1688.22 1462.73 1689.24 1462.73 Q1695.02 1462.73 1698.4 1465.9 Q1701.78 1469.08 1701.78 1474.49 Q1701.78 1480.07 1698.31 1483.17 Q1694.84 1486.25 1688.52 1486.25 Q1686.34 1486.25 1684.08 1485.88 Q1681.83 1485.51 1679.42 1484.77 L1679.42 1480.07 Q1681.51 1481.2 1683.73 1481.76 Q1685.95 1482.32 1688.43 1482.32 Q1692.43 1482.32 1694.77 1480.21 Q1697.11 1478.1 1697.11 1474.49 Q1697.11 1470.88 1694.77 1468.77 Q1692.43 1466.67 1688.43 1466.67 Q1686.55 1466.67 1684.68 1467.08 Q1682.83 1467.5 1680.88 1468.38 L1680.88 1451.02 Z" fill="#000000" fill-rule="nonzero" fill-opacity="1" /><path clip-path="url(#clip030)" d="M1711 1479.7 L1715.88 1479.7 L1715.88 1485.58 L1711 1485.58 L1711 1479.7 Z" fill="#000000" fill-rule="nonzero" fill-opacity="1" /><path clip-path="url(#clip030)" d="M1730.09 1481.64 L1746.41 1481.64 L1746.41 1485.58 L1724.47 1485.58 L1724.47 1481.64 Q1727.13 1478.89 1731.71 1474.26 Q1736.32 1469.61 1737.5 1468.27 Q1739.75 1465.74 1740.63 1464.01 Q1741.53 1462.25 1741.53 1460.56 Q1741.53 1457.8 1739.58 1456.07 Q1737.66 1454.33 1734.56 1454.33 Q1732.36 1454.33 1729.91 1455.09 Q1727.48 1455.86 1724.7 1457.41 L1724.7 1452.69 Q1727.52 1451.55 1729.98 1450.97 Q1732.43 1450.39 1734.47 1450.39 Q1739.84 1450.39 1743.03 1453.08 Q1746.23 1455.77 1746.23 1460.26 Q1746.23 1462.39 1745.42 1464.31 Q1744.63 1466.2 1742.52 1468.8 Q1741.95 1469.47 1738.84 1472.69 Q1735.74 1475.88 1730.09 1481.64 Z" fill="#000000" fill-rule="nonzero" fill-opacity="1" /><path clip-path="url(#clip030)" d="M2050.64 1481.64 L2066.95 1481.64 L2066.95 1485.58 L2045.01 1485.58 L2045.01 1481.64 Q2047.67 1478.89 2052.26 1474.26 Q2056.86 1469.61 2058.04 1468.27 Q2060.29 1465.74 2061.17 1464.01 Q2062.07 1462.25 2062.07 1460.56 Q2062.07 1457.8 2060.13 1456.07 Q2058.2 1454.33 2055.1 1454.33 Q2052.9 1454.33 2050.45 1455.09 Q2048.02 1455.86 2045.24 1457.41 L2045.24 1452.69 Q2048.07 1451.55 2050.52 1450.97 Q2052.97 1450.39 2055.01 1450.39 Q2060.38 1450.39 2063.58 1453.08 Q2066.77 1455.77 2066.77 1460.26 Q2066.77 1462.39 2065.96 1464.31 Q2065.17 1466.2 2063.07 1468.8 Q2062.49 1469.47 2059.39 1472.69 Q2056.28 1475.88 2050.64 1481.64 Z" fill="#000000" fill-rule="nonzero" fill-opacity="1" /><path clip-path="url(#clip030)" d="M2076.82 1451.02 L2095.17 1451.02 L2095.17 1454.96 L2081.1 1454.96 L2081.1 1463.43 Q2082.12 1463.08 2083.14 1462.92 Q2084.15 1462.73 2085.17 1462.73 Q2090.96 1462.73 2094.34 1465.9 Q2097.72 1469.08 2097.72 1474.49 Q2097.72 1480.07 2094.25 1483.17 Q2090.77 1486.25 2084.45 1486.25 Q2082.28 1486.25 2080.01 1485.88 Q2077.76 1485.51 2075.36 1484.77 L2075.36 1480.07 Q2077.44 1481.2 2079.66 1481.76 Q2081.89 1482.32 2084.36 1482.32 Q2088.37 1482.32 2090.7 1480.21 Q2093.04 1478.1 2093.04 1474.49 Q2093.04 1470.88 2090.7 1468.77 Q2088.37 1466.67 2084.36 1466.67 Q2082.49 1466.67 2080.61 1467.08 Q2078.76 1467.5 2076.82 1468.38 L2076.82 1451.02 Z" fill="#000000" fill-rule="nonzero" fill-opacity="1" /><path clip-path="url(#clip030)" d="M2106.93 1479.7 L2111.82 1479.7 L2111.82 1485.58 L2106.93 1485.58 L2106.93 1479.7 Z" fill="#000000" fill-rule="nonzero" fill-opacity="1" /><path clip-path="url(#clip030)" d="M2134.85 1455.09 L2123.04 1473.54 L2134.85 1473.54 L2134.85 1455.09 M2133.62 1451.02 L2139.5 1451.02 L2139.5 1473.54 L2144.43 1473.54 L2144.43 1477.43 L2139.5 1477.43 L2139.5 1485.58 L2134.85 1485.58 L2134.85 1477.43 L2119.25 1477.43 L2119.25 1472.92 L2133.62 1451.02 Z" fill="#000000" fill-rule="nonzero" fill-opacity="1" /><path clip-path="url(#clip030)" d="M1008.93 1520.52 L1036.24 1520.52 L1036.24 1525.93 L1015.36 1525.93 L1015.36 1539.94 L1034.2 1539.94 L1034.2 1545.35 L1015.36 1545.35 L1015.36 1568.04 L1008.93 1568.04 L1008.93 1520.52 Z" fill="#000000" fill-rule="nonzero" fill-opacity="1" /><path clip-path="url(#clip030)" d="M1062.08 1537.87 Q1061.1 1537.3 1059.92 1537.04 Q1058.77 1536.76 1057.37 1536.76 Q1052.41 1536.76 1049.74 1540 Q1047.09 1543.22 1047.09 1549.27 L1047.09 1568.04 L1041.21 1568.04 L1041.21 1532.4 L1047.09 1532.4 L1047.09 1537.93 Q1048.94 1534.69 1051.9 1533.13 Q1054.86 1531.54 1059.09 1531.54 Q1059.7 1531.54 1060.43 1531.63 Q1061.16 1531.7 1062.05 1531.85 L1062.08 1537.87 Z" fill="#000000" fill-rule="nonzero" fill-opacity="1" /><path clip-path="url(#clip030)" d="M1097.29 1548.76 L1097.29 1551.62 L1070.36 1551.62 Q1070.74 1557.67 1073.99 1560.85 Q1077.27 1564 1083.09 1564 Q1086.47 1564 1089.62 1563.17 Q1092.8 1562.35 1095.92 1560.69 L1095.92 1566.23 Q1092.77 1567.57 1089.46 1568.27 Q1086.15 1568.97 1082.74 1568.97 Q1074.21 1568.97 1069.21 1564 Q1064.25 1559.04 1064.25 1550.57 Q1064.25 1541.82 1068.96 1536.69 Q1073.7 1531.54 1081.72 1531.54 Q1088.92 1531.54 1093.09 1536.18 Q1097.29 1540.8 1097.29 1548.76 M1091.43 1547.04 Q1091.37 1542.23 1088.73 1539.37 Q1086.12 1536.5 1081.79 1536.5 Q1076.89 1536.5 1073.93 1539.27 Q1071 1542.04 1070.55 1547.07 L1091.43 1547.04 Z" fill="#000000" fill-rule="nonzero" fill-opacity="1" /><path clip-path="url(#clip030)" d="M1110.4 1550.25 Q1110.4 1556.71 1113.04 1560.4 Q1115.72 1564.07 1120.36 1564.07 Q1125.01 1564.07 1127.68 1560.4 Q1130.36 1556.71 1130.36 1550.25 Q1130.36 1543.79 1127.68 1540.13 Q1125.01 1536.44 1120.36 1536.44 Q1115.72 1536.44 1113.04 1540.13 Q1110.4 1543.79 1110.4 1550.25 M1130.36 1562.7 Q1128.51 1565.88 1125.68 1567.44 Q1122.88 1568.97 1118.93 1568.97 Q1112.47 1568.97 1108.4 1563.81 Q1104.35 1558.65 1104.35 1550.25 Q1104.35 1541.85 1108.4 1536.69 Q1112.47 1531.54 1118.93 1531.54 Q1122.88 1531.54 1125.68 1533.1 Q1128.51 1534.62 1130.36 1537.81 L1130.36 1532.4 L1136.21 1532.4 L1136.21 1581.6 L1130.36 1581.6 L1130.36 1562.7 Z" fill="#000000" fill-rule="nonzero" fill-opacity="1" /><path clip-path="url(#clip030)" d="M1147.67 1553.98 L1147.67 1532.4 L1153.53 1532.4 L1153.53 1553.75 Q1153.53 1558.81 1155.5 1561.36 Q1157.47 1563.87 1161.42 1563.87 Q1166.16 1563.87 1168.9 1560.85 Q1171.67 1557.83 1171.67 1552.61 L1171.67 1532.4 L1177.53 1532.4 L1177.53 1568.04 L1171.67 1568.04 L1171.67 1562.57 Q1169.54 1565.82 1166.71 1567.41 Q1163.9 1568.97 1160.18 1568.97 Q1154.04 1568.97 1150.85 1565.15 Q1147.67 1561.33 1147.67 1553.98 M1162.41 1531.54 L1162.41 1531.54 Z" fill="#000000" fill-rule="nonzero" fill-opacity="1" /><path clip-path="url(#clip030)" d="M1220.08 1548.76 L1220.08 1551.62 L1193.15 1551.62 Q1193.54 1557.67 1196.78 1560.85 Q1200.06 1564 1205.89 1564 Q1209.26 1564 1212.41 1563.17 Q1215.59 1562.35 1218.71 1560.69 L1218.71 1566.23 Q1215.56 1567.57 1212.25 1568.27 Q1208.94 1568.97 1205.54 1568.97 Q1197.01 1568.97 1192.01 1564 Q1187.04 1559.04 1187.04 1550.57 Q1187.04 1541.82 1191.75 1536.69 Q1196.5 1531.54 1204.52 1531.54 Q1211.71 1531.54 1215.88 1536.18 Q1220.08 1540.8 1220.08 1548.76 M1214.23 1547.04 Q1214.16 1542.23 1211.52 1539.37 Q1208.91 1536.5 1204.58 1536.5 Q1199.68 1536.5 1196.72 1539.27 Q1193.79 1542.04 1193.35 1547.07 L1214.23 1547.04 Z" fill="#000000" fill-rule="nonzero" fill-opacity="1" /><path clip-path="url(#clip030)" d="M1259.33 1546.53 L1259.33 1568.04 L1253.47 1568.04 L1253.47 1546.72 Q1253.47 1541.66 1251.5 1539.14 Q1249.52 1536.63 1245.58 1536.63 Q1240.83 1536.63 1238.1 1539.65 Q1235.36 1542.68 1235.36 1547.9 L1235.36 1568.04 L1229.47 1568.04 L1229.47 1532.4 L1235.36 1532.4 L1235.36 1537.93 Q1237.46 1534.72 1240.29 1533.13 Q1243.16 1531.54 1246.88 1531.54 Q1253.02 1531.54 1256.18 1535.36 Q1259.33 1539.14 1259.33 1546.53 Z" fill="#000000" fill-rule="nonzero" fill-opacity="1" /><path clip-path="url(#clip030)" d="M1296.66 1533.76 L1296.66 1539.24 Q1294.18 1537.87 1291.66 1537.2 Q1289.18 1536.5 1286.64 1536.5 Q1280.94 1536.5 1277.79 1540.13 Q1274.64 1543.73 1274.64 1550.25 Q1274.64 1556.78 1277.79 1560.4 Q1280.94 1564 1286.64 1564 Q1289.18 1564 1291.66 1563.33 Q1294.18 1562.63 1296.66 1561.26 L1296.66 1566.68 Q1294.21 1567.82 1291.57 1568.39 Q1288.96 1568.97 1286 1568.97 Q1277.95 1568.97 1273.2 1563.91 Q1268.46 1558.85 1268.46 1550.25 Q1268.46 1541.53 1273.24 1536.53 Q1278.04 1531.54 1286.38 1531.54 Q1289.09 1531.54 1291.66 1532.11 Q1294.24 1532.65 1296.66 1533.76 Z" fill="#000000" fill-rule="nonzero" fill-opacity="1" /><path clip-path="url(#clip030)" d="M1306.85 1532.4 L1312.7 1532.4 L1312.7 1568.04 L1306.85 1568.04 L1306.85 1532.4 M1306.85 1518.52 L1312.7 1518.52 L1312.7 1525.93 L1306.85 1525.93 L1306.85 1518.52 Z" fill="#000000" fill-rule="nonzero" fill-opacity="1" /><path clip-path="url(#clip030)" d="M1355.45 1548.76 L1355.45 1551.62 L1328.52 1551.62 Q1328.9 1557.67 1332.15 1560.85 Q1335.43 1564 1341.25 1564 Q1344.63 1564 1347.78 1563.17 Q1350.96 1562.35 1354.08 1560.69 L1354.08 1566.23 Q1350.93 1567.57 1347.62 1568.27 Q1344.31 1568.97 1340.9 1568.97 Q1332.37 1568.97 1327.38 1564 Q1322.41 1559.04 1322.41 1550.57 Q1322.41 1541.82 1327.12 1536.69 Q1331.86 1531.54 1339.88 1531.54 Q1347.08 1531.54 1351.25 1536.18 Q1355.45 1540.8 1355.45 1548.76 M1349.59 1547.04 Q1349.53 1542.23 1346.89 1539.37 Q1344.28 1536.5 1339.95 1536.5 Q1335.05 1536.5 1332.09 1539.27 Q1329.16 1542.04 1328.71 1547.07 L1349.59 1547.04 Z" fill="#000000" fill-rule="nonzero" fill-opacity="1" /><path clip-path="url(#clip030)" d="M1387.79 1533.45 L1387.79 1538.98 Q1385.3 1537.71 1382.63 1537.07 Q1379.96 1536.44 1377.09 1536.44 Q1372.73 1536.44 1370.54 1537.77 Q1368.37 1539.11 1368.37 1541.79 Q1368.37 1543.82 1369.93 1545 Q1371.49 1546.15 1376.2 1547.2 L1378.21 1547.64 Q1384.44 1548.98 1387.05 1551.43 Q1389.7 1553.85 1389.7 1558.21 Q1389.7 1563.17 1385.75 1566.07 Q1381.83 1568.97 1374.96 1568.97 Q1372.09 1568.97 1368.98 1568.39 Q1365.89 1567.85 1362.45 1566.74 L1362.45 1560.69 Q1365.7 1562.38 1368.85 1563.24 Q1372 1564.07 1375.09 1564.07 Q1379.22 1564.07 1381.45 1562.66 Q1383.68 1561.23 1383.68 1558.65 Q1383.68 1556.27 1382.06 1554.99 Q1380.47 1553.72 1375.02 1552.54 L1372.99 1552.07 Q1367.54 1550.92 1365.12 1548.56 Q1362.71 1546.18 1362.71 1542.04 Q1362.71 1537.01 1366.27 1534.27 Q1369.83 1531.54 1376.39 1531.54 Q1379.64 1531.54 1382.5 1532.01 Q1385.37 1532.49 1387.79 1533.45 Z" fill="#000000" fill-rule="nonzero" fill-opacity="1" /><path clip-path="url(#clip030)" d="M1419.2 1518.52 L1432.7 1518.52 L1432.7 1523.07 L1425.06 1523.07 L1425.06 1572.09 L1432.7 1572.09 L1432.7 1576.64 L1419.2 1576.64 L1419.2 1518.52 Z" fill="#000000" fill-rule="nonzero" fill-opacity="1" /><path clip-path="url(#clip030)" d="M1477.83 1561.26 L1477.83 1548.5 L1467.33 1548.5 L1467.33 1543.22 L1484.19 1543.22 L1484.19 1563.62 Q1480.47 1566.26 1475.98 1567.63 Q1471.5 1568.97 1466.4 1568.97 Q1455.26 1568.97 1448.96 1562.47 Q1442.69 1555.95 1442.69 1544.33 Q1442.69 1532.68 1448.96 1526.19 Q1455.26 1519.66 1466.4 1519.66 Q1471.05 1519.66 1475.22 1520.81 Q1479.42 1521.96 1482.95 1524.18 L1482.95 1531.03 Q1479.39 1528 1475.38 1526.48 Q1471.37 1524.95 1466.94 1524.95 Q1458.22 1524.95 1453.83 1529.82 Q1449.47 1534.69 1449.47 1544.33 Q1449.47 1553.94 1453.83 1558.81 Q1458.22 1563.68 1466.94 1563.68 Q1470.35 1563.68 1473.02 1563.11 Q1475.7 1562.51 1477.83 1561.26 Z" fill="#000000" fill-rule="nonzero" fill-opacity="1" /><path clip-path="url(#clip030)" d="M1495.94 1520.52 L1502.37 1520.52 L1502.37 1540 L1525.73 1540 L1525.73 1520.52 L1532.16 1520.52 L1532.16 1568.04 L1525.73 1568.04 L1525.73 1545.41 L1502.37 1545.41 L1502.37 1568.04 L1495.94 1568.04 L1495.94 1520.52 Z" fill="#000000" fill-rule="nonzero" fill-opacity="1" /><path clip-path="url(#clip030)" d="M1542.15 1532.4 L1569.97 1532.4 L1569.97 1537.74 L1547.95 1563.37 L1569.97 1563.37 L1569.97 1568.04 L1541.36 1568.04 L1541.36 1562.7 L1563.38 1537.07 L1542.15 1537.07 L1542.15 1532.4 Z" fill="#000000" fill-rule="nonzero" fill-opacity="1" /><path clip-path="url(#clip030)" d="M1592.6 1518.52 L1592.6 1576.64 L1579.11 1576.64 L1579.11 1572.09 L1586.71 1572.09 L1586.71 1523.07 L1579.11 1523.07 L1579.11 1518.52 L1592.6 1518.52 Z" fill="#000000" fill-rule="nonzero" fill-opacity="1" /><polyline clip-path="url(#clip030)" style="stroke:#000000; stroke-linecap:round; stroke-linejoin:round; stroke-width:4; stroke-opacity:1; fill:none" points="248.778,1423.18 248.778,47.2441 "/>
<polyline clip-path="url(#clip030)" style="stroke:#000000; stroke-linecap:round; stroke-linejoin:round; stroke-width:4; stroke-opacity:1; fill:none" points="248.778,1166.51 267.676,1166.51 "/>
<polyline clip-path="url(#clip030)" style="stroke:#000000; stroke-linecap:round; stroke-linejoin:round; stroke-width:4; stroke-opacity:1; fill:none" points="248.778,849.703 267.676,849.703 "/>
<polyline clip-path="url(#clip030)" style="stroke:#000000; stroke-linecap:round; stroke-linejoin:round; stroke-width:4; stroke-opacity:1; fill:none" points="248.778,532.896 267.676,532.896 "/>
<polyline clip-path="url(#clip030)" style="stroke:#000000; stroke-linecap:round; stroke-linejoin:round; stroke-width:4; stroke-opacity:1; fill:none" points="248.778,216.089 267.676,216.089 "/>
<path clip-path="url(#clip030)" d="M127.015 1164.65 Q123.867 1164.65 122.015 1166.8 Q120.186 1168.95 120.186 1172.7 Q120.186 1176.43 122.015 1178.61 Q123.867 1180.76 127.015 1180.76 Q130.163 1180.76 131.992 1178.61 Q133.843 1176.43 133.843 1172.7 Q133.843 1168.95 131.992 1166.8 Q130.163 1164.65 127.015 1164.65 M136.297 1149.99 L136.297 1154.25 Q134.538 1153.42 132.732 1152.98 Q130.95 1152.54 129.191 1152.54 Q124.561 1152.54 122.107 1155.67 Q119.677 1158.79 119.33 1165.11 Q120.695 1163.1 122.755 1162.03 Q124.816 1160.94 127.292 1160.94 Q132.501 1160.94 135.51 1164.11 Q138.542 1167.26 138.542 1172.7 Q138.542 1178.03 135.394 1181.24 Q132.246 1184.46 127.015 1184.46 Q121.019 1184.46 117.848 1179.88 Q114.677 1175.27 114.677 1166.55 Q114.677 1158.35 118.566 1153.49 Q122.455 1148.61 129.005 1148.61 Q130.765 1148.61 132.547 1148.95 Q134.353 1149.3 136.297 1149.99 Z" fill="#000000" fill-rule="nonzero" fill-opacity="1" /><path clip-path="url(#clip030)" d="M145.417 1149.23 L167.64 1149.23 L167.64 1151.22 L155.093 1183.79 L150.209 1183.79 L162.015 1153.17 L145.417 1153.17 L145.417 1149.23 Z" fill="#000000" fill-rule="nonzero" fill-opacity="1" /><path clip-path="url(#clip030)" d="M176.76 1177.91 L181.644 1177.91 L181.644 1183.79 L176.76 1183.79 L176.76 1177.91 Z" fill="#000000" fill-rule="nonzero" fill-opacity="1" /><path clip-path="url(#clip030)" d="M191.875 1149.23 L210.232 1149.23 L210.232 1153.17 L196.158 1153.17 L196.158 1161.64 Q197.176 1161.29 198.195 1161.13 Q199.213 1160.94 200.232 1160.94 Q206.019 1160.94 209.399 1164.11 Q212.778 1167.29 212.778 1172.7 Q212.778 1178.28 209.306 1181.38 Q205.834 1184.46 199.514 1184.46 Q197.338 1184.46 195.07 1184.09 Q192.825 1183.72 190.417 1182.98 L190.417 1178.28 Q192.5 1179.42 194.723 1179.97 Q196.945 1180.53 199.422 1180.53 Q203.426 1180.53 205.764 1178.42 Q208.102 1176.31 208.102 1172.7 Q208.102 1169.09 205.764 1166.98 Q203.426 1164.88 199.422 1164.88 Q197.547 1164.88 195.672 1165.3 Q193.82 1165.71 191.875 1166.59 L191.875 1149.23 Z" fill="#000000" fill-rule="nonzero" fill-opacity="1" /><path clip-path="url(#clip030)" d="M114.26 832.423 L136.482 832.423 L136.482 834.414 L123.936 866.983 L119.052 866.983 L130.857 836.358 L114.26 836.358 L114.26 832.423 Z" fill="#000000" fill-rule="nonzero" fill-opacity="1" /><path clip-path="url(#clip030)" d="M155.603 835.502 Q151.991 835.502 150.163 839.067 Q148.357 842.608 148.357 849.738 Q148.357 856.844 150.163 860.409 Q151.991 863.951 155.603 863.951 Q159.237 863.951 161.042 860.409 Q162.871 856.844 162.871 849.738 Q162.871 842.608 161.042 839.067 Q159.237 835.502 155.603 835.502 M155.603 831.798 Q161.413 831.798 164.468 836.405 Q167.547 840.988 167.547 849.738 Q167.547 858.465 164.468 863.071 Q161.413 867.655 155.603 867.655 Q149.792 867.655 146.714 863.071 Q143.658 858.465 143.658 849.738 Q143.658 840.988 146.714 836.405 Q149.792 831.798 155.603 831.798 Z" fill="#000000" fill-rule="nonzero" fill-opacity="1" /><path clip-path="url(#clip030)" d="M175.764 861.104 L180.649 861.104 L180.649 866.983 L175.764 866.983 L175.764 861.104 Z" fill="#000000" fill-rule="nonzero" fill-opacity="1" /><path clip-path="url(#clip030)" d="M200.834 835.502 Q197.223 835.502 195.394 839.067 Q193.588 842.608 193.588 849.738 Q193.588 856.844 195.394 860.409 Q197.223 863.951 200.834 863.951 Q204.468 863.951 206.274 860.409 Q208.102 856.844 208.102 849.738 Q208.102 842.608 206.274 839.067 Q204.468 835.502 200.834 835.502 M200.834 831.798 Q206.644 831.798 209.699 836.405 Q212.778 840.988 212.778 849.738 Q212.778 858.465 209.699 863.071 Q206.644 867.655 200.834 867.655 Q195.024 867.655 191.945 863.071 Q188.889 858.465 188.889 849.738 Q188.889 840.988 191.945 836.405 Q195.024 831.798 200.834 831.798 Z" fill="#000000" fill-rule="nonzero" fill-opacity="1" /><path clip-path="url(#clip030)" d="M115.256 515.616 L137.478 515.616 L137.478 517.607 L124.931 550.176 L120.047 550.176 L131.853 519.551 L115.256 519.551 L115.256 515.616 Z" fill="#000000" fill-rule="nonzero" fill-opacity="1" /><path clip-path="url(#clip030)" d="M150.626 546.241 L166.945 546.241 L166.945 550.176 L145.001 550.176 L145.001 546.241 Q147.663 543.486 152.246 538.857 Q156.853 534.204 158.033 532.861 Q160.278 530.338 161.158 528.602 Q162.061 526.843 162.061 525.153 Q162.061 522.399 160.116 520.662 Q158.195 518.926 155.093 518.926 Q152.894 518.926 150.441 519.69 Q148.01 520.454 145.232 522.005 L145.232 517.283 Q148.056 516.149 150.51 515.57 Q152.964 514.991 155.001 514.991 Q160.371 514.991 163.565 517.676 Q166.76 520.362 166.76 524.852 Q166.76 526.982 165.95 528.903 Q165.163 530.801 163.056 533.394 Q162.477 534.065 159.376 537.283 Q156.274 540.477 150.626 546.241 Z" fill="#000000" fill-rule="nonzero" fill-opacity="1" /><path clip-path="url(#clip030)" d="M176.76 544.297 L181.644 544.297 L181.644 550.176 L176.76 550.176 L176.76 544.297 Z" fill="#000000" fill-rule="nonzero" fill-opacity="1" /><path clip-path="url(#clip030)" d="M191.875 515.616 L210.232 515.616 L210.232 519.551 L196.158 519.551 L196.158 528.024 Q197.176 527.676 198.195 527.514 Q199.213 527.329 200.232 527.329 Q206.019 527.329 209.399 530.5 Q212.778 533.672 212.778 539.088 Q212.778 544.667 209.306 547.769 Q205.834 550.847 199.514 550.847 Q197.338 550.847 195.07 550.477 Q192.825 550.107 190.417 549.366 L190.417 544.667 Q192.5 545.801 194.723 546.357 Q196.945 546.912 199.422 546.912 Q203.426 546.912 205.764 544.806 Q208.102 542.699 208.102 539.088 Q208.102 535.477 205.764 533.371 Q203.426 531.264 199.422 531.264 Q197.547 531.264 195.672 531.681 Q193.82 532.098 191.875 532.977 L191.875 515.616 Z" fill="#000000" fill-rule="nonzero" fill-opacity="1" /><path clip-path="url(#clip030)" d="M114.26 198.809 L136.482 198.809 L136.482 200.8 L123.936 233.369 L119.052 233.369 L130.857 202.744 L114.26 202.744 L114.26 198.809 Z" fill="#000000" fill-rule="nonzero" fill-opacity="1" /><path clip-path="url(#clip030)" d="M145.649 198.809 L164.005 198.809 L164.005 202.744 L149.931 202.744 L149.931 211.216 Q150.95 210.869 151.968 210.707 Q152.987 210.522 154.005 210.522 Q159.792 210.522 163.172 213.693 Q166.552 216.865 166.552 222.281 Q166.552 227.86 163.079 230.962 Q159.607 234.04 153.288 234.04 Q151.112 234.04 148.843 233.67 Q146.598 233.3 144.191 232.559 L144.191 227.86 Q146.274 228.994 148.496 229.55 Q150.718 230.105 153.195 230.105 Q157.2 230.105 159.538 227.999 Q161.876 225.892 161.876 222.281 Q161.876 218.67 159.538 216.564 Q157.2 214.457 153.195 214.457 Q151.32 214.457 149.445 214.874 Q147.593 215.291 145.649 216.17 L145.649 198.809 Z" fill="#000000" fill-rule="nonzero" fill-opacity="1" /><path clip-path="url(#clip030)" d="M175.764 227.49 L180.649 227.49 L180.649 233.369 L175.764 233.369 L175.764 227.49 Z" fill="#000000" fill-rule="nonzero" fill-opacity="1" /><path clip-path="url(#clip030)" d="M200.834 201.888 Q197.223 201.888 195.394 205.453 Q193.588 208.994 193.588 216.124 Q193.588 223.23 195.394 226.795 Q197.223 230.337 200.834 230.337 Q204.468 230.337 206.274 226.795 Q208.102 223.23 208.102 216.124 Q208.102 208.994 206.274 205.453 Q204.468 201.888 200.834 201.888 M200.834 198.184 Q206.644 198.184 209.699 202.791 Q212.778 207.374 212.778 216.124 Q212.778 224.851 209.699 229.457 Q206.644 234.04 200.834 234.04 Q195.024 234.04 191.945 229.457 Q188.889 224.851 188.889 216.124 Q188.889 207.374 191.945 202.791 Q195.024 198.184 200.834 198.184 Z" fill="#000000" fill-rule="nonzero" fill-opacity="1" /><path clip-path="url(#clip030)" d="M41.3104 969.884 L58.7206 969.884 L58.7206 959.571 Q58.7206 954.383 56.5881 951.901 Q54.4238 949.386 49.9996 949.386 Q45.5436 949.386 43.4429 951.901 Q41.3104 954.383 41.3104 959.571 L41.3104 969.884 M21.7677 969.884 L36.0905 969.884 L36.0905 960.367 Q36.0905 955.656 34.34 953.365 Q32.5576 951.041 28.9291 951.041 Q25.3325 951.041 23.5501 953.365 Q21.7677 955.656 21.7677 960.367 L21.7677 969.884 M16.4842 976.313 L16.4842 959.89 Q16.4842 952.537 19.5397 948.559 Q22.5952 944.58 28.2289 944.58 Q32.5894 944.58 35.1675 946.617 Q37.7456 948.654 38.3822 952.601 Q39.4007 947.858 42.6472 945.248 Q45.8619 942.607 50.6998 942.607 Q57.0655 942.607 60.5348 946.935 Q64.0042 951.264 64.0042 959.253 L64.0042 976.313 L16.4842 976.313 Z" fill="#000000" fill-rule="nonzero" fill-opacity="1" /><path clip-path="url(#clip030)" d="M32.4621 918.035 Q32.4621 922.746 36.1542 925.483 Q39.8145 928.22 46.212 928.22 Q52.6095 928.22 56.3017 925.515 Q59.9619 922.778 59.9619 918.035 Q59.9619 913.356 56.2698 910.619 Q52.5777 907.882 46.212 907.882 Q39.8781 907.882 36.186 910.619 Q32.4621 913.356 32.4621 918.035 M27.4968 918.035 Q27.4968 910.396 32.4621 906.036 Q37.4273 901.675 46.212 901.675 Q54.9649 901.675 59.9619 906.036 Q64.9272 910.396 64.9272 918.035 Q64.9272 925.706 59.9619 930.066 Q54.9649 934.395 46.212 934.395 Q37.4273 934.395 32.4621 930.066 Q27.4968 925.706 27.4968 918.035 Z" fill="#000000" fill-rule="nonzero" fill-opacity="1" /><path clip-path="url(#clip030)" d="M32.4621 878.154 Q32.4621 882.865 36.1542 885.602 Q39.8145 888.339 46.212 888.339 Q52.6095 888.339 56.3017 885.634 Q59.9619 882.896 59.9619 878.154 Q59.9619 873.475 56.2698 870.738 Q52.5777 868.001 46.212 868.001 Q39.8781 868.001 36.186 870.738 Q32.4621 873.475 32.4621 878.154 M27.4968 878.154 Q27.4968 870.515 32.4621 866.155 Q37.4273 861.794 46.212 861.794 Q54.9649 861.794 59.9619 866.155 Q64.9272 870.515 64.9272 878.154 Q64.9272 885.825 59.9619 890.185 Q54.9649 894.514 46.212 894.514 Q37.4273 894.514 32.4621 890.185 Q27.4968 885.825 27.4968 878.154 Z" fill="#000000" fill-rule="nonzero" fill-opacity="1" /><path clip-path="url(#clip030)" d="M29.4065 829.361 L34.9447 829.361 Q33.6716 831.843 33.035 834.517 Q32.3984 837.191 32.3984 840.055 Q32.3984 844.416 33.7352 846.612 Q35.072 848.776 37.7456 848.776 Q39.7826 848.776 40.9603 847.217 Q42.1061 845.657 43.1565 840.946 L43.6021 838.941 Q44.9389 832.703 47.3897 830.093 Q49.8086 827.451 54.1691 827.451 Q59.1344 827.451 62.0308 831.398 Q64.9272 835.313 64.9272 842.188 Q64.9272 845.052 64.3543 848.171 Q63.8132 851.259 62.6992 854.696 L56.6518 854.696 Q58.3387 851.45 59.198 848.299 Q60.0256 845.148 60.0256 842.06 Q60.0256 837.923 58.6251 835.695 Q57.1929 833.467 54.6147 833.467 Q52.2276 833.467 50.9545 835.09 Q49.6813 836.681 48.5037 842.124 L48.0262 844.161 Q46.8804 849.604 44.5251 852.023 Q42.138 854.442 38.0002 854.442 Q32.9713 854.442 30.2341 850.877 Q27.4968 847.312 27.4968 840.755 Q27.4968 837.509 27.9743 834.644 Q28.4517 831.78 29.4065 829.361 Z" fill="#000000" fill-rule="nonzero" fill-opacity="1" /><path clip-path="url(#clip030)" d="M18.2347 812.333 L28.3562 812.333 L28.3562 800.269 L32.9077 800.269 L32.9077 812.333 L52.2594 812.333 Q56.6199 812.333 57.8613 811.155 Q59.1026 809.945 59.1026 806.285 L59.1026 800.269 L64.0042 800.269 L64.0042 806.285 Q64.0042 813.065 61.4897 815.643 Q58.9434 818.221 52.2594 818.221 L32.9077 818.221 L32.9077 822.518 L28.3562 822.518 L28.3562 818.221 L18.2347 818.221 L18.2347 812.333 Z" fill="#000000" fill-rule="nonzero" fill-opacity="1" /><path clip-path="url(#clip030)" d="M16.4842 771.592 L16.4842 744.283 L21.895 744.283 L21.895 765.163 L35.8996 765.163 L35.8996 746.32 L41.3104 746.32 L41.3104 765.163 L64.0042 765.163 L64.0042 771.592 L16.4842 771.592 Z" fill="#000000" fill-rule="nonzero" fill-opacity="1" /><path clip-path="url(#clip030)" d="M46.0847 724.136 Q46.0847 731.233 47.7079 733.971 Q49.3312 736.708 53.2461 736.708 Q56.3653 736.708 58.2114 734.671 Q60.0256 732.602 60.0256 729.069 Q60.0256 724.199 56.5881 721.271 Q53.1188 718.311 47.3897 718.311 L46.0847 718.311 L46.0847 724.136 M43.6657 712.455 L64.0042 712.455 L64.0042 718.311 L58.5933 718.311 Q61.8398 720.316 63.3994 723.308 Q64.9272 726.3 64.9272 730.629 Q64.9272 736.103 61.8716 739.35 Q58.7843 742.564 53.6281 742.564 Q47.6125 742.564 44.5569 738.554 Q41.5014 734.512 41.5014 726.523 L41.5014 718.311 L40.9285 718.311 Q36.8862 718.311 34.6901 720.985 Q32.4621 723.626 32.4621 728.432 Q32.4621 731.488 33.1941 734.384 Q33.9262 737.281 35.3903 739.954 L29.9795 739.954 Q28.7381 736.74 28.1334 733.716 Q27.4968 730.692 27.4968 727.828 Q27.4968 720.093 31.5072 716.274 Q35.5176 712.455 43.6657 712.455 Z" fill="#000000" fill-rule="nonzero" fill-opacity="1" /><path clip-path="url(#clip030)" d="M29.7248 674.738 L35.1993 674.738 Q33.8307 677.22 33.1623 679.735 Q32.4621 682.217 32.4621 684.764 Q32.4621 690.461 36.0905 693.612 Q39.6872 696.763 46.212 696.763 Q52.7369 696.763 56.3653 693.612 Q59.9619 690.461 59.9619 684.764 Q59.9619 682.217 59.2935 679.735 Q58.5933 677.22 57.2247 674.738 L62.6355 674.738 Q63.7814 677.189 64.3543 679.83 Q64.9272 682.44 64.9272 685.4 Q64.9272 693.453 59.8664 698.195 Q54.8057 702.938 46.212 702.938 Q37.491 702.938 32.4939 698.164 Q27.4968 693.357 27.4968 685.018 Q27.4968 682.313 28.0697 679.735 Q28.6108 677.157 29.7248 674.738 Z" fill="#000000" fill-rule="nonzero" fill-opacity="1" /><path clip-path="url(#clip030)" d="M18.2347 658.76 L28.3562 658.76 L28.3562 646.697 L32.9077 646.697 L32.9077 658.76 L52.2594 658.76 Q56.6199 658.76 57.8613 657.582 Q59.1026 656.373 59.1026 652.712 L59.1026 646.697 L64.0042 646.697 L64.0042 652.712 Q64.0042 659.492 61.4897 662.07 Q58.9434 664.648 52.2594 664.648 L32.9077 664.648 L32.9077 668.945 L28.3562 668.945 L28.3562 664.648 L18.2347 664.648 L18.2347 658.76 Z" fill="#000000" fill-rule="nonzero" fill-opacity="1" /><path clip-path="url(#clip030)" d="M32.4621 625.181 Q32.4621 629.891 36.1542 632.629 Q39.8145 635.366 46.212 635.366 Q52.6095 635.366 56.3017 632.66 Q59.9619 629.923 59.9619 625.181 Q59.9619 620.502 56.2698 617.765 Q52.5777 615.027 46.212 615.027 Q39.8781 615.027 36.186 617.765 Q32.4621 620.502 32.4621 625.181 M27.4968 625.181 Q27.4968 617.542 32.4621 613.181 Q37.4273 608.821 46.212 608.821 Q54.9649 608.821 59.9619 613.181 Q64.9272 617.542 64.9272 625.181 Q64.9272 632.851 59.9619 637.212 Q54.9649 641.541 46.212 641.541 Q37.4273 641.541 32.4621 637.212 Q27.4968 632.851 27.4968 625.181 Z" fill="#000000" fill-rule="nonzero" fill-opacity="1" /><path clip-path="url(#clip030)" d="M33.8307 578.456 Q33.2578 579.443 33.0032 580.621 Q32.7167 581.767 32.7167 583.167 Q32.7167 588.132 35.9632 590.806 Q39.1779 593.448 45.2253 593.448 L64.0042 593.448 L64.0042 599.336 L28.3562 599.336 L28.3562 593.448 L33.8944 593.448 Q30.6479 591.602 29.0883 588.642 Q27.4968 585.682 27.4968 581.448 Q27.4968 580.844 27.5923 580.112 Q27.656 579.379 27.8151 578.488 L33.8307 578.456 Z" fill="#000000" fill-rule="nonzero" fill-opacity="1" /><path clip-path="url(#clip030)" d="M61.808 545.737 L77.5631 545.737 L77.5631 551.625 L28.579 551.625 Q14.0652 551.625 14.0652 538.066 Q14.0652 524.252 26.3192 524.252 Q35.0402 524.252 38.223 529.727 Q41.0876 520.815 49.5858 520.815 Q64.6726 520.815 64.6726 536.156 Q64.6726 542.904 61.808 545.737 M54.1691 545.737 Q59.6755 542.204 59.6755 535.934 Q59.6755 526.767 49.6813 526.767 Q40.7057 526.767 41.4059 541.535 L35.995 541.535 Q35.995 529.982 25.8099 529.982 Q18.8395 529.982 18.8395 537.429 Q18.8395 545.737 28.77 545.737 L54.1691 545.737 Z" fill="#000000" fill-rule="nonzero" fill-opacity="1" /><path clip-path="url(#clip030)" d="M39.1142 507.606 L39.1142 494.111 L42.7427 494.111 L42.7427 513.144 L39.2416 513.144 Q38.2549 512.062 36.4725 510.057 Q26.7648 499.108 23.7729 499.108 Q21.6722 499.108 20.3991 500.763 Q19.0941 502.418 19.0941 505.124 Q19.0941 506.779 19.667 508.72 Q20.2081 510.662 21.3221 512.953 L17.4072 512.953 Q16.516 510.503 16.0704 508.402 Q15.6248 506.269 15.6248 504.455 Q15.6248 499.84 17.7255 497.071 Q19.8262 494.302 23.2636 494.302 Q27.6878 494.302 36.7271 504.837 Q38.2549 506.619 39.1142 507.606 Z" fill="#000000" fill-rule="nonzero" fill-opacity="1" /><polyline clip-path="url(#clip032)" style="stroke:#009af9; stroke-linecap:round; stroke-linejoin:round; stroke-width:4; stroke-opacity:1; fill:none" points="308.325,258.997 310.312,263.82 312.298,268.633 314.285,273.434 316.272,278.225 318.259,283.005 320.246,287.774 322.233,292.533 324.22,297.28 326.207,302.017 328.193,306.742 330.18,311.457 332.167,316.161 334.154,320.855 336.141,325.537 338.128,330.208 340.115,334.869 342.102,339.519 344.088,344.158 346.075,348.786 348.062,353.403 350.049,358.009 352.036,362.605 354.023,367.19 356.01,371.763 357.996,376.326 359.983,380.878 361.97,385.419 363.957,389.95 365.944,394.469 367.931,398.977 369.918,403.475 371.905,407.962 373.891,412.438 375.878,416.903 377.865,421.357 379.852,425.8 381.839,430.233 383.826,434.654 385.813,439.065 387.8,443.465 389.786,447.854 391.773,452.232 393.76,456.599 395.747,460.956 397.734,465.301 399.721,469.636 401.708,473.96 403.695,478.273 405.681,482.575 407.668,486.866 409.655,491.146 411.642,495.416 413.629,499.675 415.616,503.923 417.603,508.159 419.589,512.386 421.576,516.601 423.563,520.805 425.55,524.999 427.537,529.182 429.524,533.354 431.511,537.515 433.498,541.665 435.484,545.805 437.471,549.933 439.458,554.051 441.445,558.158 443.432,562.254 445.419,566.34 447.406,570.414 449.393,574.478 451.379,578.531 453.366,582.573 455.353,586.604 457.34,590.625 459.327,594.634 461.314,598.633 463.301,602.621 465.288,606.599 467.274,610.565 469.261,614.521 471.248,618.466 473.235,622.4 475.222,626.324 477.209,630.237 479.196,634.139 481.183,638.03 483.169,641.91 485.156,645.78 487.143,649.639 489.13,653.487 491.117,657.324 493.104,661.151 495.091,664.967 497.077,668.772 499.064,672.567 501.051,676.351 503.038,680.124 505.025,683.886 507.012,687.638 508.999,691.379 510.986,695.109 512.972,698.829 514.959,702.538 516.946,706.236 518.933,709.923 520.92,713.6 522.907,717.266 524.894,720.922 526.881,724.566 528.867,728.201 530.854,731.824 532.841,735.437 534.828,739.039 536.815,742.631 538.802,746.212 540.789,749.782 542.776,753.342 544.762,756.891 546.749,760.429 548.736,763.957 550.723,767.474 552.71,770.981 554.697,774.477 556.684,777.962 558.671,781.437 560.657,784.901 562.644,788.355 564.631,791.798 566.618,795.23 568.605,798.652 570.592,802.063 572.579,805.464 574.565,808.854 576.552,812.234 578.539,815.603 580.526,818.962 582.513,822.31 584.5,825.648 586.487,828.975 588.474,832.291 590.46,835.597 592.447,838.893 594.434,842.178 596.421,845.452 598.408,848.716 600.395,851.97 602.382,855.213 604.369,858.446 606.355,861.668 608.342,864.879 610.329,868.081 612.316,871.272 614.303,874.452 616.29,877.622 618.277,880.781 620.264,883.93 622.25,887.069 624.237,890.197 626.224,893.315 628.211,896.422 630.198,899.519 632.185,902.606 634.172,905.682 636.158,908.748 638.145,911.803 640.132,914.848 642.119,917.883 644.106,920.907 646.093,923.921 648.08,926.925 650.067,929.918 652.053,932.901 654.04,935.874 656.027,938.836 658.014,941.788 660.001,944.73 661.988,947.661 663.975,950.582 665.962,953.493 667.948,956.393 669.935,959.283 671.922,962.163 673.909,965.032 675.896,967.892 677.883,970.741 679.87,973.58 681.857,976.408 683.843,979.226 685.83,982.034 687.817,984.832 689.804,987.62 691.791,990.397 693.778,993.164 695.765,995.921 697.752,998.668 699.738,1001.4 701.725,1004.13 703.712,1006.85 705.699,1009.55 707.686,1012.25 709.673,1014.93 711.66,1017.61 713.646,1020.27 715.633,1022.93 717.62,1025.57 719.607,1028.21 721.594,1030.83 723.581,1033.45 725.568,1036.05 727.555,1038.65 729.541,1041.23 731.528,1043.8 733.515,1046.37 735.502,1048.92 737.489,1051.47 739.476,1054 741.463,1056.52 743.45,1059.04 745.436,1061.54 747.423,1064.03 749.41,1066.52 751.397,1068.99 753.384,1071.45 755.371,1073.9 757.358,1076.35 759.345,1078.78 761.331,1081.2 763.318,1083.62 765.305,1086.02 767.292,1088.41 769.279,1090.79 771.266,1093.17 773.253,1095.53 775.24,1097.88 777.226,1100.23 779.213,1102.56 781.2,1104.88 783.187,1107.19 785.174,1109.5 787.161,1111.79 789.148,1114.07 791.134,1116.35 793.121,1118.61 795.108,1120.86 797.095,1123.11 799.082,1125.34 801.069,1127.56 803.056,1129.78 805.043,1131.98 807.029,1134.17 809.016,1136.36 811.003,1138.53 812.99,1140.7 814.977,1142.85 816.964,1144.99 818.951,1147.13 820.938,1149.25 822.924,1151.37 824.911,1153.47 826.898,1155.57 828.885,1157.65 830.872,1159.73 832.859,1161.79 834.846,1163.85 836.833,1165.89 838.819,1167.93 840.806,1169.96 842.793,1171.97 844.78,1173.98 846.767,1175.98 848.754,1177.96 850.741,1179.94 852.727,1181.91 854.714,1183.86 856.701,1185.81 858.688,1187.75 860.675,1189.68 862.662,1191.6 864.649,1193.5 866.636,1195.4 868.622,1197.29 870.609,1199.17 872.596,1201.04 874.583,1202.9 876.57,1204.75 878.557,1206.59 880.544,1208.42 882.531,1210.24 884.517,1212.05 886.504,1213.86 888.491,1215.65 890.478,1217.43 892.465,1219.2 894.452,1220.97 896.439,1222.72 898.426,1224.46 900.412,1226.2 902.399,1227.92 904.386,1229.63 906.373,1231.34 908.36,1233.03 910.347,1234.72 912.334,1236.4 914.321,1238.06 916.307,1239.72 918.294,1241.36 920.281,1243 922.268,1244.63 924.255,1246.25 926.242,1247.86 928.229,1249.45 930.215,1251.04 932.202,1252.62 934.189,1254.19 936.176,1255.75 938.163,1257.3 940.15,1258.85 942.137,1260.38 944.124,1261.9 946.11,1263.41 948.097,1264.91 950.084,1266.41 952.071,1267.89 954.058,1269.37 956.045,1270.83 958.032,1272.28 960.019,1273.73 962.005,1275.17 963.992,1276.59 965.979,1278.01 967.966,1279.42 969.953,1280.81 971.94,1282.2 973.927,1283.58 975.914,1284.95 977.9,1286.31 979.887,1287.66 981.874,1289 983.861,1290.33 985.848,1291.65 987.835,1292.97 989.822,1294.27 991.809,1295.56 993.795,1296.85 995.782,1298.12 997.769,1299.38 999.756,1300.64 1001.74,1301.89 1003.73,1303.12 1005.72,1304.35 1007.7,1305.57 1009.69,1306.77 1011.68,1307.97 1013.66,1309.16 1015.65,1310.34 1017.64,1311.51 1019.62,1312.67 1021.61,1313.82 1023.6,1314.97 1025.59,1316.1 1027.57,1317.22 1029.56,1318.33 1031.55,1319.44 1033.53,1320.53 1035.52,1321.62 1037.51,1322.69 1039.49,1323.76 1041.48,1324.82 1043.47,1325.87 1045.45,1326.9 1047.44,1327.93 1049.43,1328.95 1051.41,1329.96 1053.4,1330.96 1055.39,1331.95 1057.38,1332.94 1059.36,1333.91 1061.35,1334.87 1063.34,1335.83 1065.32,1336.77 1067.31,1337.71 1069.3,1338.63 1071.28,1339.55 1073.27,1340.45 1075.26,1341.35 1077.24,1342.24 1079.23,1343.12 1081.22,1343.99 1083.2,1344.85 1085.19,1345.7 1087.18,1346.54 1089.17,1347.37 1091.15,1348.2 1093.14,1349.01 1095.13,1349.81 1097.11,1350.61 1099.1,1351.39 1101.09,1352.17 1103.07,1352.94 1105.06,1353.69 1107.05,1354.44 1109.03,1355.18 1111.02,1355.91 1113.01,1356.63 1114.99,1357.34 1116.98,1358.04 1118.97,1358.74 1120.96,1359.42 1122.94,1360.09 1124.93,1360.76 1126.92,1361.41 1128.9,1362.06 1130.89,1362.69 1132.88,1363.32 1134.86,1363.94 1136.85,1364.55 1138.84,1365.15 1140.82,1365.74 1142.81,1366.32 1144.8,1366.89 1146.78,1367.45 1148.77,1368 1150.76,1368.55 1152.75,1369.08 1154.73,1369.61 1156.72,1370.12 1158.71,1370.63 1160.69,1371.13 1162.68,1371.62 1164.67,1372.09 1166.65,1372.56 1168.64,1373.02 1170.63,1373.47 1172.61,1373.92 1174.6,1374.35 1176.59,1374.77 1178.57,1375.19 1180.56,1375.59 1182.55,1375.98 1184.54,1376.37 1186.52,1376.75 1188.51,1377.12 1190.5,1377.47 1192.48,1377.82 1194.47,1378.16 1196.46,1378.49 1198.44,1378.81 1200.43,1379.13 1202.42,1379.43 1204.4,1379.72 1206.39,1380.01 1208.38,1380.28 1210.36,1380.55 1212.35,1380.8 1214.34,1381.05 1216.32,1381.29 1218.31,1381.52 1220.3,1381.74 1222.29,1381.95 1224.27,1382.15 1226.26,1382.34 1228.25,1382.52 1230.23,1382.7 1232.22,1382.86 1234.21,1383.02 1236.19,1383.16 1238.18,1383.3 1240.17,1383.43 1242.15,1383.54 1244.14,1383.65 1246.13,1383.75 1248.11,1383.84 1250.1,1383.92 1252.09,1383.99 1254.08,1384.06 1256.06,1384.11 1258.05,1384.15 1260.04,1384.19 1262.02,1384.21 1264.01,1384.23 1266,1384.24 1267.98,1384.24 1269.97,1384.22 1271.96,1384.2 1273.94,1384.17 1275.93,1384.14 1277.92,1384.09 1279.9,1384.03 1281.89,1383.96 1283.88,1383.89 1285.87,1383.8 1287.85,1383.71 1289.84,1383.6 1291.83,1383.49 1293.81,1383.37 1295.8,1383.24 1297.79,1383.1 1299.77,1382.95 1301.76,1382.79 1303.75,1382.62 1305.73,1382.44 1307.72,1382.25 1309.71,1382.06 1311.69,1381.85 1313.68,1381.64 1315.67,1381.42 1317.66,1381.18 1319.64,1380.94 1321.63,1380.69 1323.62,1380.43 1325.6,1380.16 1327.59,1379.88 1329.58,1379.59 1331.56,1379.29 1333.55,1378.99 1335.54,1378.67 1337.52,1378.34 1339.51,1378.01 1341.5,1377.67 1343.48,1377.31 1345.47,1376.95 1347.46,1376.58 1349.45,1376.2 1351.43,1375.81 1353.42,1375.41 1355.41,1375 1357.39,1374.58 1359.38,1374.15 1361.37,1373.72 1363.35,1373.27 1365.34,1372.82 1367.33,1372.35 1369.31,1371.88 1371.3,1371.39 1373.29,1370.9 1375.27,1370.4 1377.26,1369.89 1379.25,1369.37 1381.24,1368.84 1383.22,1368.3 1385.21,1367.75 1387.2,1367.2 1389.18,1366.63 1391.17,1366.06 1393.16,1365.47 1395.14,1364.88 1397.13,1364.27 1399.12,1363.66 1401.1,1363.04 1403.09,1362.41 1405.08,1361.77 1407.06,1361.12 1409.05,1360.46 1411.04,1359.79 1413.03,1359.11 1415.01,1358.42 1417,1357.73 1418.99,1357.02 1420.97,1356.31 1422.96,1355.58 1424.95,1354.85 1426.93,1354.1 1428.92,1353.35 1430.91,1352.59 1432.89,1351.82 1434.88,1351.04 1436.87,1350.25 1438.85,1349.45 1440.84,1348.64 1442.83,1347.82 1444.82,1347 1446.8,1346.16 1448.79,1345.31 1450.78,1344.46 1452.76,1343.59 1454.75,1342.72 1456.74,1341.84 1458.72,1340.95 1460.71,1340.04 1462.7,1339.13 1464.68,1338.21 1466.67,1337.28 1468.66,1336.34 1470.64,1335.39 1472.63,1334.44 1474.62,1333.47 1476.61,1332.49 1478.59,1331.5 1480.58,1330.51 1482.57,1329.5 1484.55,1328.49 1486.54,1327.47 1488.53,1326.43 1490.51,1325.39 1492.5,1324.34 1494.49,1323.28 1496.47,1322.21 1498.46,1321.13 1500.45,1320.04 1502.43,1318.94 1504.42,1317.83 1506.41,1316.71 1508.4,1315.58 1510.38,1314.45 1512.37,1313.3 1514.36,1312.15 1516.34,1310.98 1518.33,1309.81 1520.32,1308.62 1522.3,1307.43 1524.29,1306.23 1526.28,1305.01 1528.26,1303.79 1530.25,1302.56 1532.24,1301.32 1534.22,1300.07 1536.21,1298.81 1538.2,1297.54 1540.19,1296.26 1542.17,1294.97 1544.16,1293.68 1546.15,1292.37 1548.13,1291.05 1550.12,1289.73 1552.11,1288.39 1554.09,1287.05 1556.08,1285.69 1558.07,1284.33 1560.05,1282.95 1562.04,1281.57 1564.03,1280.18 1566.01,1278.78 1568,1277.37 1569.99,1275.94 1571.97,1274.51 1573.96,1273.07 1575.95,1271.62 1577.94,1270.16 1579.92,1268.7 1581.91,1267.22 1583.9,1265.73 1585.88,1264.23 1587.87,1262.72 1589.86,1261.21 1591.84,1259.68 1593.83,1258.14 1595.82,1256.6 1597.8,1255.04 1599.79,1253.48 1601.78,1251.9 1603.76,1250.32 1605.75,1248.73 1607.74,1247.12 1609.73,1245.51 1611.71,1243.89 1613.7,1242.26 1615.69,1240.62 1617.67,1238.96 1619.66,1237.3 1621.65,1235.63 1623.63,1233.95 1625.62,1232.26 1627.61,1230.56 1629.59,1228.85 1631.58,1227.14 1633.57,1225.41 1635.55,1223.67 1637.54,1221.92 1639.53,1220.16 1641.52,1218.4 1643.5,1216.62 1645.49,1214.83 1647.48,1213.04 1649.46,1211.23 1651.45,1209.41 1653.44,1207.59 1655.42,1205.75 1657.41,1203.91 1659.4,1202.05 1661.38,1200.19 1663.37,1198.32 1665.36,1196.43 1667.34,1194.54 1669.33,1192.64 1671.32,1190.72 1673.31,1188.8 1675.29,1186.87 1677.28,1184.92 1679.27,1182.97 1681.25,1181.01 1683.24,1179.04 1685.23,1177.06 1687.21,1175.07 1689.2,1173.07 1691.19,1171.05 1693.17,1169.03 1695.16,1167 1697.15,1164.96 1699.13,1162.91 1701.12,1160.85 1703.11,1158.78 1705.1,1156.7 1707.08,1154.61 1709.07,1152.51 1711.06,1150.4 1713.04,1148.29 1715.03,1146.16 1717.02,1144.02 1719,1141.87 1720.99,1139.71 1722.98,1137.54 1724.96,1135.36 1726.95,1133.17 1728.94,1130.98 1730.92,1128.77 1732.91,1126.55 1734.9,1124.32 1736.89,1122.08 1738.87,1119.84 1740.86,1117.58 1742.85,1115.31 1744.83,1113.03 1746.82,1110.75 1748.81,1108.45 1750.79,1106.14 1752.78,1103.82 1754.77,1101.5 1756.75,1099.16 1758.74,1096.81 1760.73,1094.45 1762.71,1092.09 1764.7,1089.71 1766.69,1087.32 1768.68,1084.92 1770.66,1082.52 1772.65,1080.1 1774.64,1077.67 1776.62,1075.23 1778.61,1072.79 1780.6,1070.33 1782.58,1067.86 1784.57,1065.38 1786.56,1062.9 1788.54,1060.4 1790.53,1057.89 1792.52,1055.37 1794.5,1052.84 1796.49,1050.31 1798.48,1047.76 1800.47,1045.2 1802.45,1042.63 1804.44,1040.05 1806.43,1037.46 1808.41,1034.86 1810.4,1032.26 1812.39,1029.64 1814.37,1027.01 1816.36,1024.37 1818.35,1021.72 1820.33,1019.06 1822.32,1016.39 1824.31,1013.71 1826.29,1011.02 1828.28,1008.32 1830.27,1005.61 1832.26,1002.89 1834.24,1000.16 1836.23,997.414 1838.22,994.663 1840.2,991.901 1842.19,989.13 1844.18,986.348 1846.16,983.555 1848.15,980.753 1850.14,977.94 1852.12,975.117 1854.11,972.284 1856.1,969.44 1858.08,966.587 1860.07,963.723 1862.06,960.848 1864.05,957.964 1866.03,955.069 1868.02,952.164 1870.01,949.248 1871.99,946.323 1873.98,943.386 1875.97,940.44 1877.95,937.483 1879.94,934.516 1881.93,931.539 1883.91,928.551 1885.9,925.553 1887.89,922.545 1889.87,919.526 1891.86,916.497 1893.85,913.457 1895.84,910.408 1897.82,907.347 1899.81,904.277 1901.8,901.196 1903.78,898.104 1905.77,895.003 1907.76,891.89 1909.74,888.768 1911.73,885.635 1913.72,882.491 1915.7,879.337 1917.69,876.173 1919.68,872.998 1921.66,869.813 1923.65,866.618 1925.64,863.412 1927.63,860.195 1929.61,856.968 1931.6,853.73 1933.59,850.483 1935.57,847.224 1937.56,843.955 1939.55,840.676 1941.53,837.386 1943.52,834.086 1945.51,830.775 1947.49,827.453 1949.48,824.121 1951.47,820.779 1953.45,817.426 1955.44,814.062 1957.43,810.688 1959.41,807.304 1961.4,803.908 1963.39,800.503 1965.38,797.086 1967.36,793.66 1969.35,790.222 1971.34,786.774 1973.32,783.316 1975.31,779.847 1977.3,776.367 1979.28,772.877 1981.27,769.376 1983.26,765.864 1985.24,762.342 1987.23,758.809 1989.22,755.266 1991.2,751.712 1993.19,748.147 1995.18,744.572 1997.17,740.986 1999.15,737.39 2001.14,733.783 2003.13,730.165 2005.11,726.536 2007.1,722.897 2009.09,719.247 2011.07,715.587 2013.06,711.916 2015.05,708.234 2017.03,704.542 2019.02,700.838 2021.01,697.125 2022.99,693.4 2024.98,689.665 2026.97,685.919 2028.96,682.162 2030.94,678.395 2032.93,674.617 2034.92,670.828 2036.9,667.028 2038.89,663.218 2040.88,659.397 2042.86,655.565 2044.85,651.723 2046.84,647.87 2048.82,644.006 2050.81,640.131 2052.8,636.245 2054.78,632.349 2056.77,628.442 2058.76,624.524 2060.75,620.596 2062.73,616.657 2064.72,612.707 2066.71,608.746 2068.69,604.774 2070.68,600.792 2072.67,596.798 2074.65,592.794 2076.64,588.78 2078.63,584.754 2080.61,580.718 2082.6,576.671 2084.59,572.613 2086.57,568.544 2088.56,564.464 2090.55,560.374 2092.54,556.272 2094.52,552.16 2096.51,548.037 2098.5,543.904 2100.48,539.759 2102.47,535.604 2104.46,531.438 2106.44,527.261 2108.43,523.073 2110.42,518.874 2112.4,514.664 2114.39,510.444 2116.38,506.213 2118.36,501.971 2120.35,497.718 2122.34,493.454 2124.33,489.179 2126.31,484.894 2128.3,480.597 2130.29,476.29 2132.27,471.972 2134.26,467.643 2136.25,463.303 2138.23,458.952 2140.22,454.591 2142.21,450.219 2144.19,445.835 2146.18,441.441 2148.17,437.036 2150.15,432.62 2152.14,428.194 2154.13,423.756 2156.12,419.308 2158.1,414.848 2160.09,410.378 2162.08,405.897 2164.06,401.405 2166.05,396.902 2168.04,392.388 2170.02,387.864 2172.01,383.328 2174,378.782 2175.98,374.225 2177.97,369.657 2179.96,365.078 2181.94,360.488 2183.93,355.888 2185.92,351.276 2187.91,346.654 2189.89,342.02 2191.88,337.376 2193.87,332.721 2195.85,328.056 2197.84,323.379 2199.83,318.691 2201.81,313.993 2203.8,309.284 2205.79,304.564 2207.77,299.833 2209.76,295.091 2211.75,290.338 2213.73,285.575 2215.72,280.8 2217.71,276.015 2219.7,271.219 2221.68,266.412 2223.67,261.595 2225.66,256.766 2227.64,251.927 2229.63,247.077 2231.62,242.216 2233.6,237.344 2235.59,232.462 2237.58,227.568 2239.56,222.664 2241.55,217.749 2243.54,212.823 2245.52,207.887 2247.51,202.939 2249.5,197.981 2251.49,193.012 2253.47,188.033 2255.46,183.042 2257.45,178.041 2259.43,173.029 2261.42,168.006 2263.41,162.973 2265.39,157.929 2267.38,152.874 2269.37,147.808 2271.35,142.732 2273.34,137.645 2275.33,132.547 2277.31,127.438 2279.3,122.319 2281.29,117.189 2283.28,112.049 2285.26,106.897 2287.25,101.735 2289.24,96.5628 2291.22,91.3796 2293.21,86.1857 "/>
<polyline clip-path="url(#clip032)" style="stroke:#ff0000; stroke-linecap:round; stroke-linejoin:round; stroke-width:4; stroke-opacity:1; fill:none" points="1251.14,2799.12 1251.14,-1328.69 "/>
<polyline clip-path="url(#clip032)" style="stroke:#ff0000; stroke-linecap:round; stroke-linejoin:round; stroke-width:4; stroke-opacity:1; fill:none" points="1350.39,2799.12 1350.39,-1328.69 "/>
</svg>
