<?xml version="1.0" encoding="utf-8"?>
<svg xmlns="http://www.w3.org/2000/svg" xmlns:xlink="http://www.w3.org/1999/xlink" width="600" height="400" viewBox="0 0 2400 1600">
<defs>
  <clipPath id="clip990">
    <rect x="0" y="0" width="2400" height="1600"/>
  </clipPath>
</defs>
<path clip-path="url(#clip990)" d="M0 1600 L2400 1600 L2400 0 L0 0  Z" fill="#ffffff" fill-rule="evenodd" fill-opacity="1"/>
<defs>
  <clipPath id="clip991">
    <rect x="480" y="0" width="1681" height="1600"/>
  </clipPath>
</defs>
<path clip-path="url(#clip990)" d="M264.287 1423.18 L2352.76 1423.18 L2352.76 47.2441 L264.287 47.2441  Z" fill="#ffffff" fill-rule="evenodd" fill-opacity="1"/>
<defs>
  <clipPath id="clip992">
    <rect x="264" y="47" width="2089" height="1377"/>
  </clipPath>
</defs>
<polyline clip-path="url(#clip992)" style="stroke:#000000; stroke-linecap:round; stroke-linejoin:round; stroke-width:2; stroke-opacity:0.1; fill:none" points="520.42,1423.18 520.42,47.2441 "/>
<polyline clip-path="url(#clip992)" style="stroke:#000000; stroke-linecap:round; stroke-linejoin:round; stroke-width:2; stroke-opacity:0.1; fill:none" points="914.471,1423.18 914.471,47.2441 "/>
<polyline clip-path="url(#clip992)" style="stroke:#000000; stroke-linecap:round; stroke-linejoin:round; stroke-width:2; stroke-opacity:0.1; fill:none" points="1308.52,1423.18 1308.52,47.2441 "/>
<polyline clip-path="url(#clip992)" style="stroke:#000000; stroke-linecap:round; stroke-linejoin:round; stroke-width:2; stroke-opacity:0.1; fill:none" points="1702.57,1423.18 1702.57,47.2441 "/>
<polyline clip-path="url(#clip992)" style="stroke:#000000; stroke-linecap:round; stroke-linejoin:round; stroke-width:2; stroke-opacity:0.1; fill:none" points="2096.62,1423.18 2096.62,47.2441 "/>
<polyline clip-path="url(#clip992)" style="stroke:#000000; stroke-linecap:round; stroke-linejoin:round; stroke-width:2; stroke-opacity:0.1; fill:none" points="264.287,1384.49 2352.76,1384.49 "/>
<polyline clip-path="url(#clip992)" style="stroke:#000000; stroke-linecap:round; stroke-linejoin:round; stroke-width:2; stroke-opacity:0.1; fill:none" points="264.287,1095.15 2352.76,1095.15 "/>
<polyline clip-path="url(#clip992)" style="stroke:#000000; stroke-linecap:round; stroke-linejoin:round; stroke-width:2; stroke-opacity:0.1; fill:none" points="264.287,805.811 2352.76,805.811 "/>
<polyline clip-path="url(#clip992)" style="stroke:#000000; stroke-linecap:round; stroke-linejoin:round; stroke-width:2; stroke-opacity:0.1; fill:none" points="264.287,516.47 2352.76,516.47 "/>
<polyline clip-path="url(#clip992)" style="stroke:#000000; stroke-linecap:round; stroke-linejoin:round; stroke-width:2; stroke-opacity:0.1; fill:none" points="264.287,227.13 2352.76,227.13 "/>
<polyline clip-path="url(#clip990)" style="stroke:#000000; stroke-linecap:round; stroke-linejoin:round; stroke-width:4; stroke-opacity:1; fill:none" points="264.287,1423.18 2352.76,1423.18 "/>
<polyline clip-path="url(#clip990)" style="stroke:#000000; stroke-linecap:round; stroke-linejoin:round; stroke-width:4; stroke-opacity:1; fill:none" points="520.42,1423.18 520.42,1404.28 "/>
<polyline clip-path="url(#clip990)" style="stroke:#000000; stroke-linecap:round; stroke-linejoin:round; stroke-width:4; stroke-opacity:1; fill:none" points="914.471,1423.18 914.471,1404.28 "/>
<polyline clip-path="url(#clip990)" style="stroke:#000000; stroke-linecap:round; stroke-linejoin:round; stroke-width:4; stroke-opacity:1; fill:none" points="1308.52,1423.18 1308.52,1404.28 "/>
<polyline clip-path="url(#clip990)" style="stroke:#000000; stroke-linecap:round; stroke-linejoin:round; stroke-width:4; stroke-opacity:1; fill:none" points="1702.57,1423.18 1702.57,1404.28 "/>
<polyline clip-path="url(#clip990)" style="stroke:#000000; stroke-linecap:round; stroke-linejoin:round; stroke-width:4; stroke-opacity:1; fill:none" points="2096.62,1423.18 2096.62,1404.28 "/>
<path clip-path="url(#clip990)" d="M476.497 1481.64 L492.816 1481.64 L492.816 1485.58 L470.872 1485.58 L470.872 1481.64 Q473.534 1478.89 478.117 1474.26 Q482.724 1469.61 483.904 1468.27 Q486.15 1465.74 487.029 1464.01 Q487.932 1462.25 487.932 1460.56 Q487.932 1457.8 485.988 1456.07 Q484.066 1454.33 480.964 1454.33 Q478.765 1454.33 476.312 1455.09 Q473.881 1455.86 471.103 1457.41 L471.103 1452.69 Q473.927 1451.55 476.381 1450.97 Q478.835 1450.39 480.872 1450.39 Q486.242 1450.39 489.437 1453.08 Q492.631 1455.77 492.631 1460.26 Q492.631 1462.39 491.821 1464.31 Q491.034 1466.2 488.927 1468.8 Q488.349 1469.47 485.247 1472.69 Q482.145 1475.88 476.497 1481.64 Z" fill="#000000" fill-rule="nonzero" fill-opacity="1" /><path clip-path="url(#clip990)" d="M512.631 1454.1 Q509.02 1454.1 507.191 1457.66 Q505.386 1461.2 505.386 1468.33 Q505.386 1475.44 507.191 1479.01 Q509.02 1482.55 512.631 1482.55 Q516.265 1482.55 518.071 1479.01 Q519.899 1475.44 519.899 1468.33 Q519.899 1461.2 518.071 1457.66 Q516.265 1454.1 512.631 1454.1 M512.631 1450.39 Q518.441 1450.39 521.497 1455 Q524.575 1459.58 524.575 1468.33 Q524.575 1477.06 521.497 1481.67 Q518.441 1486.25 512.631 1486.25 Q506.821 1486.25 503.742 1481.67 Q500.687 1477.06 500.687 1468.33 Q500.687 1459.58 503.742 1455 Q506.821 1450.39 512.631 1450.39 Z" fill="#000000" fill-rule="nonzero" fill-opacity="1" /><path clip-path="url(#clip990)" d="M532.793 1479.7 L537.677 1479.7 L537.677 1485.58 L532.793 1485.58 L532.793 1479.7 Z" fill="#000000" fill-rule="nonzero" fill-opacity="1" /><path clip-path="url(#clip990)" d="M558.441 1466.44 Q555.293 1466.44 553.441 1468.59 Q551.612 1470.74 551.612 1474.49 Q551.612 1478.22 553.441 1480.39 Q555.293 1482.55 558.441 1482.55 Q561.589 1482.55 563.418 1480.39 Q565.27 1478.22 565.27 1474.49 Q565.27 1470.74 563.418 1468.59 Q561.589 1466.44 558.441 1466.44 M567.723 1451.78 L567.723 1456.04 Q565.964 1455.21 564.158 1454.77 Q562.376 1454.33 560.617 1454.33 Q555.987 1454.33 553.534 1457.45 Q551.103 1460.58 550.756 1466.9 Q552.121 1464.89 554.182 1463.82 Q556.242 1462.73 558.719 1462.73 Q563.927 1462.73 566.936 1465.9 Q569.969 1469.05 569.969 1474.49 Q569.969 1479.82 566.82 1483.03 Q563.672 1486.25 558.441 1486.25 Q552.446 1486.25 549.274 1481.67 Q546.103 1477.06 546.103 1468.33 Q546.103 1460.14 549.992 1455.28 Q553.881 1450.39 560.432 1450.39 Q562.191 1450.39 563.973 1450.74 Q565.779 1451.09 567.723 1451.78 Z" fill="#000000" fill-rule="nonzero" fill-opacity="1" /><path clip-path="url(#clip990)" d="M870.675 1481.64 L886.994 1481.64 L886.994 1485.58 L865.05 1485.58 L865.05 1481.64 Q867.712 1478.89 872.295 1474.26 Q876.902 1469.61 878.082 1468.27 Q880.328 1465.74 881.207 1464.01 Q882.11 1462.25 882.11 1460.56 Q882.11 1457.8 880.166 1456.07 Q878.244 1454.33 875.142 1454.33 Q872.943 1454.33 870.49 1455.09 Q868.059 1455.86 865.281 1457.41 L865.281 1452.69 Q868.105 1451.55 870.559 1450.97 Q873.013 1450.39 875.05 1450.39 Q880.42 1450.39 883.615 1453.08 Q886.809 1455.77 886.809 1460.26 Q886.809 1462.39 885.999 1464.31 Q885.212 1466.2 883.105 1468.8 Q882.527 1469.47 879.425 1472.69 Q876.323 1475.88 870.675 1481.64 Z" fill="#000000" fill-rule="nonzero" fill-opacity="1" /><path clip-path="url(#clip990)" d="M906.809 1454.1 Q903.198 1454.1 901.369 1457.66 Q899.564 1461.2 899.564 1468.33 Q899.564 1475.44 901.369 1479.01 Q903.198 1482.55 906.809 1482.55 Q910.443 1482.55 912.249 1479.01 Q914.077 1475.44 914.077 1468.33 Q914.077 1461.2 912.249 1457.66 Q910.443 1454.1 906.809 1454.1 M906.809 1450.39 Q912.619 1450.39 915.675 1455 Q918.753 1459.58 918.753 1468.33 Q918.753 1477.06 915.675 1481.67 Q912.619 1486.25 906.809 1486.25 Q900.999 1486.25 897.92 1481.67 Q894.865 1477.06 894.865 1468.33 Q894.865 1459.58 897.92 1455 Q900.999 1450.39 906.809 1450.39 Z" fill="#000000" fill-rule="nonzero" fill-opacity="1" /><path clip-path="url(#clip990)" d="M926.971 1479.7 L931.855 1479.7 L931.855 1485.58 L926.971 1485.58 L926.971 1479.7 Z" fill="#000000" fill-rule="nonzero" fill-opacity="1" /><path clip-path="url(#clip990)" d="M952.04 1469.17 Q948.707 1469.17 946.786 1470.95 Q944.887 1472.73 944.887 1475.86 Q944.887 1478.98 946.786 1480.77 Q948.707 1482.55 952.04 1482.55 Q955.373 1482.55 957.295 1480.77 Q959.216 1478.96 959.216 1475.86 Q959.216 1472.73 957.295 1470.95 Q955.397 1469.17 952.04 1469.17 M947.364 1467.18 Q944.355 1466.44 942.665 1464.38 Q940.999 1462.32 940.999 1459.35 Q940.999 1455.21 943.938 1452.8 Q946.901 1450.39 952.04 1450.39 Q957.202 1450.39 960.142 1452.8 Q963.082 1455.21 963.082 1459.35 Q963.082 1462.32 961.392 1464.38 Q959.725 1466.44 956.739 1467.18 Q960.119 1467.96 961.994 1470.26 Q963.892 1472.55 963.892 1475.86 Q963.892 1480.88 960.813 1483.57 Q957.758 1486.25 952.04 1486.25 Q946.323 1486.25 943.244 1483.57 Q940.188 1480.88 940.188 1475.86 Q940.188 1472.55 942.087 1470.26 Q943.985 1467.96 947.364 1467.18 M945.651 1459.79 Q945.651 1462.48 947.318 1463.98 Q949.008 1465.49 952.04 1465.49 Q955.049 1465.49 956.739 1463.98 Q958.452 1462.48 958.452 1459.79 Q958.452 1457.11 956.739 1455.6 Q955.049 1454.1 952.04 1454.1 Q949.008 1454.1 947.318 1455.6 Q945.651 1457.11 945.651 1459.79 Z" fill="#000000" fill-rule="nonzero" fill-opacity="1" /><path clip-path="url(#clip990)" d="M1264.68 1481.64 L1281 1481.64 L1281 1485.58 L1259.05 1485.58 L1259.05 1481.64 Q1261.72 1478.89 1266.3 1474.26 Q1270.91 1469.61 1272.09 1468.27 Q1274.33 1465.74 1275.21 1464.01 Q1276.11 1462.25 1276.11 1460.56 Q1276.11 1457.8 1274.17 1456.07 Q1272.25 1454.33 1269.15 1454.33 Q1266.95 1454.33 1264.49 1455.09 Q1262.06 1455.86 1259.29 1457.41 L1259.29 1452.69 Q1262.11 1451.55 1264.56 1450.97 Q1267.02 1450.39 1269.05 1450.39 Q1274.42 1450.39 1277.62 1453.08 Q1280.81 1455.77 1280.81 1460.26 Q1280.81 1462.39 1280 1464.31 Q1279.22 1466.2 1277.11 1468.8 Q1276.53 1469.47 1273.43 1472.69 Q1270.33 1475.88 1264.68 1481.64 Z" fill="#000000" fill-rule="nonzero" fill-opacity="1" /><path clip-path="url(#clip990)" d="M1291.62 1481.64 L1299.26 1481.64 L1299.26 1455.28 L1290.95 1456.95 L1290.95 1452.69 L1299.22 1451.02 L1303.89 1451.02 L1303.89 1481.64 L1311.53 1481.64 L1311.53 1485.58 L1291.62 1485.58 L1291.62 1481.64 Z" fill="#000000" fill-rule="nonzero" fill-opacity="1" /><path clip-path="url(#clip990)" d="M1320.98 1479.7 L1325.86 1479.7 L1325.86 1485.58 L1320.98 1485.58 L1320.98 1479.7 Z" fill="#000000" fill-rule="nonzero" fill-opacity="1" /><path clip-path="url(#clip990)" d="M1346.04 1454.1 Q1342.43 1454.1 1340.6 1457.66 Q1338.8 1461.2 1338.8 1468.33 Q1338.8 1475.44 1340.6 1479.01 Q1342.43 1482.55 1346.04 1482.55 Q1349.68 1482.55 1351.48 1479.01 Q1353.31 1475.44 1353.31 1468.33 Q1353.31 1461.2 1351.48 1457.66 Q1349.68 1454.1 1346.04 1454.1 M1346.04 1450.39 Q1351.85 1450.39 1354.91 1455 Q1357.99 1459.58 1357.99 1468.33 Q1357.99 1477.06 1354.91 1481.67 Q1351.85 1486.25 1346.04 1486.25 Q1340.23 1486.25 1337.16 1481.67 Q1334.1 1477.06 1334.1 1468.33 Q1334.1 1459.58 1337.16 1455 Q1340.23 1450.39 1346.04 1450.39 Z" fill="#000000" fill-rule="nonzero" fill-opacity="1" /><path clip-path="url(#clip990)" d="M1659.53 1481.64 L1675.85 1481.64 L1675.85 1485.58 L1653.9 1485.58 L1653.9 1481.64 Q1656.57 1478.89 1661.15 1474.26 Q1665.76 1469.61 1666.94 1468.27 Q1669.18 1465.74 1670.06 1464.01 Q1670.96 1462.25 1670.96 1460.56 Q1670.96 1457.8 1669.02 1456.07 Q1667.1 1454.33 1664 1454.33 Q1661.8 1454.33 1659.34 1455.09 Q1656.91 1455.86 1654.14 1457.41 L1654.14 1452.69 Q1656.96 1451.55 1659.41 1450.97 Q1661.87 1450.39 1663.9 1450.39 Q1669.27 1450.39 1672.47 1453.08 Q1675.66 1455.77 1675.66 1460.26 Q1675.66 1462.39 1674.85 1464.31 Q1674.07 1466.2 1671.96 1468.8 Q1671.38 1469.47 1668.28 1472.69 Q1665.18 1475.88 1659.53 1481.64 Z" fill="#000000" fill-rule="nonzero" fill-opacity="1" /><path clip-path="url(#clip990)" d="M1686.47 1481.64 L1694.11 1481.64 L1694.11 1455.28 L1685.8 1456.95 L1685.8 1452.69 L1694.07 1451.02 L1698.74 1451.02 L1698.74 1481.64 L1706.38 1481.64 L1706.38 1485.58 L1686.47 1485.58 L1686.47 1481.64 Z" fill="#000000" fill-rule="nonzero" fill-opacity="1" /><path clip-path="url(#clip990)" d="M1715.82 1479.7 L1720.71 1479.7 L1720.71 1485.58 L1715.82 1485.58 L1715.82 1479.7 Z" fill="#000000" fill-rule="nonzero" fill-opacity="1" /><path clip-path="url(#clip990)" d="M1734.92 1481.64 L1751.24 1481.64 L1751.24 1485.58 L1729.3 1485.58 L1729.3 1481.64 Q1731.96 1478.89 1736.54 1474.26 Q1741.15 1469.61 1742.33 1468.27 Q1744.57 1465.74 1745.45 1464.01 Q1746.36 1462.25 1746.36 1460.56 Q1746.36 1457.8 1744.41 1456.07 Q1742.49 1454.33 1739.39 1454.33 Q1737.19 1454.33 1734.74 1455.09 Q1732.31 1455.86 1729.53 1457.41 L1729.53 1452.69 Q1732.35 1451.55 1734.81 1450.97 Q1737.26 1450.39 1739.3 1450.39 Q1744.67 1450.39 1747.86 1453.08 Q1751.06 1455.77 1751.06 1460.26 Q1751.06 1462.39 1750.25 1464.31 Q1749.46 1466.2 1747.35 1468.8 Q1746.77 1469.47 1743.67 1472.69 Q1740.57 1475.88 1734.92 1481.64 Z" fill="#000000" fill-rule="nonzero" fill-opacity="1" /><path clip-path="url(#clip990)" d="M2052.54 1481.64 L2068.86 1481.64 L2068.86 1485.58 L2046.91 1485.58 L2046.91 1481.64 Q2049.57 1478.89 2054.16 1474.26 Q2058.76 1469.61 2059.94 1468.27 Q2062.19 1465.74 2063.07 1464.01 Q2063.97 1462.25 2063.97 1460.56 Q2063.97 1457.8 2062.03 1456.07 Q2060.11 1454.33 2057.01 1454.33 Q2054.81 1454.33 2052.35 1455.09 Q2049.92 1455.86 2047.14 1457.41 L2047.14 1452.69 Q2049.97 1451.55 2052.42 1450.97 Q2054.88 1450.39 2056.91 1450.39 Q2062.28 1450.39 2065.48 1453.08 Q2068.67 1455.77 2068.67 1460.26 Q2068.67 1462.39 2067.86 1464.31 Q2067.07 1466.2 2064.97 1468.8 Q2064.39 1469.47 2061.29 1472.69 Q2058.19 1475.88 2052.54 1481.64 Z" fill="#000000" fill-rule="nonzero" fill-opacity="1" /><path clip-path="url(#clip990)" d="M2079.48 1481.64 L2087.12 1481.64 L2087.12 1455.28 L2078.81 1456.95 L2078.81 1452.69 L2087.07 1451.02 L2091.75 1451.02 L2091.75 1481.64 L2099.39 1481.64 L2099.39 1485.58 L2079.48 1485.58 L2079.48 1481.64 Z" fill="#000000" fill-rule="nonzero" fill-opacity="1" /><path clip-path="url(#clip990)" d="M2108.83 1479.7 L2113.72 1479.7 L2113.72 1485.58 L2108.83 1485.58 L2108.83 1479.7 Z" fill="#000000" fill-rule="nonzero" fill-opacity="1" /><path clip-path="url(#clip990)" d="M2136.75 1455.09 L2124.94 1473.54 L2136.75 1473.54 L2136.75 1455.09 M2135.52 1451.02 L2141.4 1451.02 L2141.4 1473.54 L2146.33 1473.54 L2146.33 1477.43 L2141.4 1477.43 L2141.4 1485.58 L2136.75 1485.58 L2136.75 1477.43 L2121.15 1477.43 L2121.15 1472.92 L2135.52 1451.02 Z" fill="#000000" fill-rule="nonzero" fill-opacity="1" /><path clip-path="url(#clip990)" d="M1016.69 1520.52 L1043.99 1520.52 L1043.99 1525.93 L1023.12 1525.93 L1023.12 1539.94 L1041.96 1539.94 L1041.96 1545.35 L1023.12 1545.35 L1023.12 1568.04 L1016.69 1568.04 L1016.69 1520.52 Z" fill="#000000" fill-rule="nonzero" fill-opacity="1" /><path clip-path="url(#clip990)" d="M1069.84 1537.87 Q1068.85 1537.3 1067.68 1537.04 Q1066.53 1536.76 1065.13 1536.76 Q1060.16 1536.76 1057.49 1540 Q1054.85 1543.22 1054.85 1549.27 L1054.85 1568.04 L1048.96 1568.04 L1048.96 1532.4 L1054.85 1532.4 L1054.85 1537.93 Q1056.69 1534.69 1059.65 1533.13 Q1062.61 1531.54 1066.85 1531.54 Q1067.45 1531.54 1068.18 1531.63 Q1068.92 1531.7 1069.81 1531.85 L1069.84 1537.87 Z" fill="#000000" fill-rule="nonzero" fill-opacity="1" /><path clip-path="url(#clip990)" d="M1105.04 1548.76 L1105.04 1551.62 L1078.11 1551.62 Q1078.5 1557.67 1081.74 1560.85 Q1085.02 1564 1090.85 1564 Q1094.22 1564 1097.37 1563.17 Q1100.55 1562.35 1103.67 1560.69 L1103.67 1566.23 Q1100.52 1567.57 1097.21 1568.27 Q1093.9 1568.97 1090.5 1568.97 Q1081.97 1568.97 1076.97 1564 Q1072 1559.04 1072 1550.57 Q1072 1541.82 1076.71 1536.69 Q1081.46 1531.54 1089.48 1531.54 Q1096.67 1531.54 1100.84 1536.18 Q1105.04 1540.8 1105.04 1548.76 M1099.19 1547.04 Q1099.12 1542.23 1096.48 1539.37 Q1093.87 1536.5 1089.54 1536.5 Q1084.64 1536.5 1081.68 1539.27 Q1078.75 1542.04 1078.31 1547.07 L1099.19 1547.04 Z" fill="#000000" fill-rule="nonzero" fill-opacity="1" /><path clip-path="url(#clip990)" d="M1118.16 1550.25 Q1118.16 1556.71 1120.8 1560.4 Q1123.47 1564.07 1128.12 1564.07 Q1132.76 1564.07 1135.44 1560.4 Q1138.11 1556.71 1138.11 1550.25 Q1138.11 1543.79 1135.44 1540.13 Q1132.76 1536.44 1128.12 1536.44 Q1123.47 1536.44 1120.8 1540.13 Q1118.16 1543.79 1118.16 1550.25 M1138.11 1562.7 Q1136.27 1565.88 1133.43 1567.44 Q1130.63 1568.97 1126.69 1568.97 Q1120.22 1568.97 1116.15 1563.81 Q1112.11 1558.65 1112.11 1550.25 Q1112.11 1541.85 1116.15 1536.69 Q1120.22 1531.54 1126.69 1531.54 Q1130.63 1531.54 1133.43 1533.1 Q1136.27 1534.62 1138.11 1537.81 L1138.11 1532.4 L1143.97 1532.4 L1143.97 1581.6 L1138.11 1581.6 L1138.11 1562.7 Z" fill="#000000" fill-rule="nonzero" fill-opacity="1" /><path clip-path="url(#clip990)" d="M1155.43 1553.98 L1155.43 1532.4 L1161.28 1532.4 L1161.28 1553.75 Q1161.28 1558.81 1163.26 1561.36 Q1165.23 1563.87 1169.18 1563.87 Q1173.92 1563.87 1176.66 1560.85 Q1179.43 1557.83 1179.43 1552.61 L1179.43 1532.4 L1185.28 1532.4 L1185.28 1568.04 L1179.43 1568.04 L1179.43 1562.57 Q1177.29 1565.82 1174.46 1567.41 Q1171.66 1568.97 1167.93 1568.97 Q1161.79 1568.97 1158.61 1565.15 Q1155.43 1561.33 1155.43 1553.98 M1170.16 1531.54 L1170.16 1531.54 Z" fill="#000000" fill-rule="nonzero" fill-opacity="1" /><path clip-path="url(#clip990)" d="M1227.84 1548.76 L1227.84 1551.62 L1200.91 1551.62 Q1201.29 1557.67 1204.54 1560.85 Q1207.82 1564 1213.64 1564 Q1217.01 1564 1220.17 1563.17 Q1223.35 1562.35 1226.47 1560.69 L1226.47 1566.23 Q1223.32 1567.57 1220.01 1568.27 Q1216.7 1568.97 1213.29 1568.97 Q1204.76 1568.97 1199.76 1564 Q1194.8 1559.04 1194.8 1550.57 Q1194.8 1541.82 1199.51 1536.69 Q1204.25 1531.54 1212.27 1531.54 Q1219.47 1531.54 1223.63 1536.18 Q1227.84 1540.8 1227.84 1548.76 M1221.98 1547.04 Q1221.92 1542.23 1219.27 1539.37 Q1216.66 1536.5 1212.34 1536.5 Q1207.43 1536.5 1204.47 1539.27 Q1201.55 1542.04 1201.1 1547.07 L1221.98 1547.04 Z" fill="#000000" fill-rule="nonzero" fill-opacity="1" /><path clip-path="url(#clip990)" d="M1267.08 1546.53 L1267.08 1568.04 L1261.22 1568.04 L1261.22 1546.72 Q1261.22 1541.66 1259.25 1539.14 Q1257.28 1536.63 1253.33 1536.63 Q1248.59 1536.63 1245.85 1539.65 Q1243.11 1542.68 1243.11 1547.9 L1243.11 1568.04 L1237.23 1568.04 L1237.23 1532.4 L1243.11 1532.4 L1243.11 1537.93 Q1245.21 1534.72 1248.05 1533.13 Q1250.91 1531.54 1254.64 1531.54 Q1260.78 1531.54 1263.93 1535.36 Q1267.08 1539.14 1267.08 1546.53 Z" fill="#000000" fill-rule="nonzero" fill-opacity="1" /><path clip-path="url(#clip990)" d="M1304.42 1533.76 L1304.42 1539.24 Q1301.93 1537.87 1299.42 1537.2 Q1296.94 1536.5 1294.39 1536.5 Q1288.69 1536.5 1285.54 1540.13 Q1282.39 1543.73 1282.39 1550.25 Q1282.39 1556.78 1285.54 1560.4 Q1288.69 1564 1294.39 1564 Q1296.94 1564 1299.42 1563.33 Q1301.93 1562.63 1304.42 1561.26 L1304.42 1566.68 Q1301.96 1567.82 1299.32 1568.39 Q1296.71 1568.97 1293.75 1568.97 Q1285.7 1568.97 1280.96 1563.91 Q1276.22 1558.85 1276.22 1550.25 Q1276.22 1541.53 1280.99 1536.53 Q1285.8 1531.54 1294.14 1531.54 Q1296.84 1531.54 1299.42 1532.11 Q1302 1532.65 1304.42 1533.76 Z" fill="#000000" fill-rule="nonzero" fill-opacity="1" /><path clip-path="url(#clip990)" d="M1314.6 1532.4 L1320.46 1532.4 L1320.46 1568.04 L1314.6 1568.04 L1314.6 1532.4 M1314.6 1518.52 L1320.46 1518.52 L1320.46 1525.93 L1314.6 1525.93 L1314.6 1518.52 Z" fill="#000000" fill-rule="nonzero" fill-opacity="1" /><path clip-path="url(#clip990)" d="M1363.2 1548.76 L1363.2 1551.62 L1336.28 1551.62 Q1336.66 1557.67 1339.9 1560.85 Q1343.18 1564 1349.01 1564 Q1352.38 1564 1355.53 1563.17 Q1358.72 1562.35 1361.83 1560.69 L1361.83 1566.23 Q1358.68 1567.57 1355.37 1568.27 Q1352.06 1568.97 1348.66 1568.97 Q1340.13 1568.97 1335.13 1564 Q1330.17 1559.04 1330.17 1550.57 Q1330.17 1541.82 1334.88 1536.69 Q1339.62 1531.54 1347.64 1531.54 Q1354.83 1531.54 1359 1536.18 Q1363.2 1540.8 1363.2 1548.76 M1357.35 1547.04 Q1357.28 1542.23 1354.64 1539.37 Q1352.03 1536.5 1347.7 1536.5 Q1342.8 1536.5 1339.84 1539.27 Q1336.91 1542.04 1336.47 1547.07 L1357.35 1547.04 Z" fill="#000000" fill-rule="nonzero" fill-opacity="1" /><path clip-path="url(#clip990)" d="M1395.54 1533.45 L1395.54 1538.98 Q1393.06 1537.71 1390.38 1537.07 Q1387.71 1536.44 1384.85 1536.44 Q1380.49 1536.44 1378.29 1537.77 Q1376.13 1539.11 1376.13 1541.79 Q1376.13 1543.82 1377.69 1545 Q1379.24 1546.15 1383.96 1547.2 L1385.96 1547.64 Q1392.2 1548.98 1394.81 1551.43 Q1397.45 1553.85 1397.45 1558.21 Q1397.45 1563.17 1393.5 1566.07 Q1389.59 1568.97 1382.71 1568.97 Q1379.85 1568.97 1376.73 1568.39 Q1373.64 1567.85 1370.21 1566.74 L1370.21 1560.69 Q1373.45 1562.38 1376.6 1563.24 Q1379.75 1564.07 1382.84 1564.07 Q1386.98 1564.07 1389.21 1562.66 Q1391.43 1561.23 1391.43 1558.65 Q1391.43 1556.27 1389.81 1554.99 Q1388.22 1553.72 1382.78 1552.54 L1380.74 1552.07 Q1375.3 1550.92 1372.88 1548.56 Q1370.46 1546.18 1370.46 1542.04 Q1370.46 1537.01 1374.02 1534.27 Q1377.59 1531.54 1384.15 1531.54 Q1387.39 1531.54 1390.26 1532.01 Q1393.12 1532.49 1395.54 1533.45 Z" fill="#000000" fill-rule="nonzero" fill-opacity="1" /><path clip-path="url(#clip990)" d="M1426.96 1518.52 L1440.45 1518.52 L1440.45 1523.07 L1432.81 1523.07 L1432.81 1572.09 L1440.45 1572.09 L1440.45 1576.64 L1426.96 1576.64 L1426.96 1518.52 Z" fill="#000000" fill-rule="nonzero" fill-opacity="1" /><path clip-path="url(#clip990)" d="M1485.58 1561.26 L1485.58 1548.5 L1475.08 1548.5 L1475.08 1543.22 L1491.95 1543.22 L1491.95 1563.62 Q1488.23 1566.26 1483.74 1567.63 Q1479.25 1568.97 1474.16 1568.97 Q1463.02 1568.97 1456.72 1562.47 Q1450.45 1555.95 1450.45 1544.33 Q1450.45 1532.68 1456.72 1526.19 Q1463.02 1519.66 1474.16 1519.66 Q1478.8 1519.66 1482.97 1520.81 Q1487.18 1521.96 1490.71 1524.18 L1490.71 1531.03 Q1487.14 1528 1483.13 1526.48 Q1479.12 1524.95 1474.7 1524.95 Q1465.98 1524.95 1461.59 1529.82 Q1457.22 1534.69 1457.22 1544.33 Q1457.22 1553.94 1461.59 1558.81 Q1465.98 1563.68 1474.7 1563.68 Q1478.1 1563.68 1480.78 1563.11 Q1483.45 1562.51 1485.58 1561.26 Z" fill="#000000" fill-rule="nonzero" fill-opacity="1" /><path clip-path="url(#clip990)" d="M1503.69 1520.52 L1510.12 1520.52 L1510.12 1540 L1533.49 1540 L1533.49 1520.52 L1539.92 1520.52 L1539.92 1568.04 L1533.49 1568.04 L1533.49 1545.41 L1510.12 1545.41 L1510.12 1568.04 L1503.69 1568.04 L1503.69 1520.52 Z" fill="#000000" fill-rule="nonzero" fill-opacity="1" /><path clip-path="url(#clip990)" d="M1549.91 1532.4 L1577.73 1532.4 L1577.73 1537.74 L1555.7 1563.37 L1577.73 1563.37 L1577.73 1568.04 L1549.11 1568.04 L1549.11 1562.7 L1571.14 1537.07 L1549.91 1537.07 L1549.91 1532.4 Z" fill="#000000" fill-rule="nonzero" fill-opacity="1" /><path clip-path="url(#clip990)" d="M1600.36 1518.52 L1600.36 1576.64 L1586.86 1576.64 L1586.86 1572.09 L1594.47 1572.09 L1594.47 1523.07 L1586.86 1523.07 L1586.86 1518.52 L1600.36 1518.52 Z" fill="#000000" fill-rule="nonzero" fill-opacity="1" /><polyline clip-path="url(#clip990)" style="stroke:#000000; stroke-linecap:round; stroke-linejoin:round; stroke-width:4; stroke-opacity:1; fill:none" points="264.287,1423.18 264.287,47.2441 "/>
<polyline clip-path="url(#clip990)" style="stroke:#000000; stroke-linecap:round; stroke-linejoin:round; stroke-width:4; stroke-opacity:1; fill:none" points="264.287,1384.49 283.185,1384.49 "/>
<polyline clip-path="url(#clip990)" style="stroke:#000000; stroke-linecap:round; stroke-linejoin:round; stroke-width:4; stroke-opacity:1; fill:none" points="264.287,1095.15 283.185,1095.15 "/>
<polyline clip-path="url(#clip990)" style="stroke:#000000; stroke-linecap:round; stroke-linejoin:round; stroke-width:4; stroke-opacity:1; fill:none" points="264.287,805.811 283.185,805.811 "/>
<polyline clip-path="url(#clip990)" style="stroke:#000000; stroke-linecap:round; stroke-linejoin:round; stroke-width:4; stroke-opacity:1; fill:none" points="264.287,516.47 283.185,516.47 "/>
<polyline clip-path="url(#clip990)" style="stroke:#000000; stroke-linecap:round; stroke-linejoin:round; stroke-width:4; stroke-opacity:1; fill:none" points="264.287,227.13 283.185,227.13 "/>
<path clip-path="url(#clip990)" d="M216.343 1370.29 Q212.732 1370.29 210.903 1373.85 Q209.098 1377.4 209.098 1384.53 Q209.098 1391.63 210.903 1395.2 Q212.732 1398.74 216.343 1398.74 Q219.977 1398.74 221.783 1395.2 Q223.611 1391.63 223.611 1384.53 Q223.611 1377.4 221.783 1373.85 Q219.977 1370.29 216.343 1370.29 M216.343 1366.59 Q222.153 1366.59 225.209 1371.19 Q228.287 1375.78 228.287 1384.53 Q228.287 1393.25 225.209 1397.86 Q222.153 1402.44 216.343 1402.44 Q210.533 1402.44 207.454 1397.86 Q204.399 1393.25 204.399 1384.53 Q204.399 1375.78 207.454 1371.19 Q210.533 1366.59 216.343 1366.59 Z" fill="#000000" fill-rule="nonzero" fill-opacity="1" /><path clip-path="url(#clip990)" d="M146.066 1077.87 L164.422 1077.87 L164.422 1081.81 L150.348 1081.81 L150.348 1090.28 Q151.366 1089.93 152.385 1089.77 Q153.403 1089.58 154.422 1089.58 Q160.209 1089.58 163.589 1092.76 Q166.968 1095.93 166.968 1101.34 Q166.968 1106.92 163.496 1110.02 Q160.024 1113.1 153.704 1113.1 Q151.528 1113.1 149.26 1112.73 Q147.015 1112.36 144.607 1111.62 L144.607 1106.92 Q146.691 1108.06 148.913 1108.61 Q151.135 1109.17 153.612 1109.17 Q157.616 1109.17 159.954 1107.06 Q162.292 1104.95 162.292 1101.34 Q162.292 1097.73 159.954 1095.63 Q157.616 1093.52 153.612 1093.52 Q151.737 1093.52 149.862 1093.94 Q148.01 1094.35 146.066 1095.23 L146.066 1077.87 Z" fill="#000000" fill-rule="nonzero" fill-opacity="1" /><path clip-path="url(#clip990)" d="M186.181 1080.95 Q182.57 1080.95 180.741 1084.51 Q178.936 1088.06 178.936 1095.19 Q178.936 1102.29 180.741 1105.86 Q182.57 1109.4 186.181 1109.4 Q189.815 1109.4 191.621 1105.86 Q193.45 1102.29 193.45 1095.19 Q193.45 1088.06 191.621 1084.51 Q189.815 1080.95 186.181 1080.95 M186.181 1077.25 Q191.991 1077.25 195.047 1081.85 Q198.125 1086.44 198.125 1095.19 Q198.125 1103.91 195.047 1108.52 Q191.991 1113.1 186.181 1113.1 Q180.371 1113.1 177.292 1108.52 Q174.237 1103.91 174.237 1095.19 Q174.237 1086.44 177.292 1081.85 Q180.371 1077.25 186.181 1077.25 Z" fill="#000000" fill-rule="nonzero" fill-opacity="1" /><path clip-path="url(#clip990)" d="M216.343 1080.95 Q212.732 1080.95 210.903 1084.51 Q209.098 1088.06 209.098 1095.19 Q209.098 1102.29 210.903 1105.86 Q212.732 1109.4 216.343 1109.4 Q219.977 1109.4 221.783 1105.86 Q223.611 1102.29 223.611 1095.19 Q223.611 1088.06 221.783 1084.51 Q219.977 1080.95 216.343 1080.95 M216.343 1077.25 Q222.153 1077.25 225.209 1081.85 Q228.287 1086.44 228.287 1095.19 Q228.287 1103.91 225.209 1108.52 Q222.153 1113.1 216.343 1113.1 Q210.533 1113.1 207.454 1108.52 Q204.399 1103.91 204.399 1095.19 Q204.399 1086.44 207.454 1081.85 Q210.533 1077.25 216.343 1077.25 Z" fill="#000000" fill-rule="nonzero" fill-opacity="1" /><path clip-path="url(#clip990)" d="M116.668 819.155 L124.306 819.155 L124.306 792.79 L115.996 794.456 L115.996 790.197 L124.26 788.531 L128.936 788.531 L128.936 819.155 L136.575 819.155 L136.575 823.091 L116.668 823.091 L116.668 819.155 Z" fill="#000000" fill-rule="nonzero" fill-opacity="1" /><path clip-path="url(#clip990)" d="M156.019 791.609 Q152.408 791.609 150.579 795.174 Q148.774 798.716 148.774 805.845 Q148.774 812.952 150.579 816.517 Q152.408 820.058 156.019 820.058 Q159.653 820.058 161.459 816.517 Q163.288 812.952 163.288 805.845 Q163.288 798.716 161.459 795.174 Q159.653 791.609 156.019 791.609 M156.019 787.906 Q161.829 787.906 164.885 792.512 Q167.964 797.095 167.964 805.845 Q167.964 814.572 164.885 819.179 Q161.829 823.762 156.019 823.762 Q150.209 823.762 147.13 819.179 Q144.075 814.572 144.075 805.845 Q144.075 797.095 147.13 792.512 Q150.209 787.906 156.019 787.906 Z" fill="#000000" fill-rule="nonzero" fill-opacity="1" /><path clip-path="url(#clip990)" d="M186.181 791.609 Q182.57 791.609 180.741 795.174 Q178.936 798.716 178.936 805.845 Q178.936 812.952 180.741 816.517 Q182.57 820.058 186.181 820.058 Q189.815 820.058 191.621 816.517 Q193.45 812.952 193.45 805.845 Q193.45 798.716 191.621 795.174 Q189.815 791.609 186.181 791.609 M186.181 787.906 Q191.991 787.906 195.047 792.512 Q198.125 797.095 198.125 805.845 Q198.125 814.572 195.047 819.179 Q191.991 823.762 186.181 823.762 Q180.371 823.762 177.292 819.179 Q174.237 814.572 174.237 805.845 Q174.237 797.095 177.292 792.512 Q180.371 787.906 186.181 787.906 Z" fill="#000000" fill-rule="nonzero" fill-opacity="1" /><path clip-path="url(#clip990)" d="M216.343 791.609 Q212.732 791.609 210.903 795.174 Q209.098 798.716 209.098 805.845 Q209.098 812.952 210.903 816.517 Q212.732 820.058 216.343 820.058 Q219.977 820.058 221.783 816.517 Q223.611 812.952 223.611 805.845 Q223.611 798.716 221.783 795.174 Q219.977 791.609 216.343 791.609 M216.343 787.906 Q222.153 787.906 225.209 792.512 Q228.287 797.095 228.287 805.845 Q228.287 814.572 225.209 819.179 Q222.153 823.762 216.343 823.762 Q210.533 823.762 207.454 819.179 Q204.399 814.572 204.399 805.845 Q204.399 797.095 207.454 792.512 Q210.533 787.906 216.343 787.906 Z" fill="#000000" fill-rule="nonzero" fill-opacity="1" /><path clip-path="url(#clip990)" d="M116.668 529.815 L124.306 529.815 L124.306 503.449 L115.996 505.116 L115.996 500.857 L124.26 499.19 L128.936 499.19 L128.936 529.815 L136.575 529.815 L136.575 533.75 L116.668 533.75 L116.668 529.815 Z" fill="#000000" fill-rule="nonzero" fill-opacity="1" /><path clip-path="url(#clip990)" d="M146.066 499.19 L164.422 499.19 L164.422 503.125 L150.348 503.125 L150.348 511.598 Q151.366 511.25 152.385 511.088 Q153.403 510.903 154.422 510.903 Q160.209 510.903 163.589 514.074 Q166.968 517.246 166.968 522.662 Q166.968 528.241 163.496 531.343 Q160.024 534.421 153.704 534.421 Q151.528 534.421 149.26 534.051 Q147.015 533.681 144.607 532.94 L144.607 528.241 Q146.691 529.375 148.913 529.931 Q151.135 530.486 153.612 530.486 Q157.616 530.486 159.954 528.38 Q162.292 526.273 162.292 522.662 Q162.292 519.051 159.954 516.945 Q157.616 514.838 153.612 514.838 Q151.737 514.838 149.862 515.255 Q148.01 515.672 146.066 516.551 L146.066 499.19 Z" fill="#000000" fill-rule="nonzero" fill-opacity="1" /><path clip-path="url(#clip990)" d="M186.181 502.269 Q182.57 502.269 180.741 505.834 Q178.936 509.375 178.936 516.505 Q178.936 523.611 180.741 527.176 Q182.57 530.718 186.181 530.718 Q189.815 530.718 191.621 527.176 Q193.45 523.611 193.45 516.505 Q193.45 509.375 191.621 505.834 Q189.815 502.269 186.181 502.269 M186.181 498.565 Q191.991 498.565 195.047 503.172 Q198.125 507.755 198.125 516.505 Q198.125 525.232 195.047 529.838 Q191.991 534.421 186.181 534.421 Q180.371 534.421 177.292 529.838 Q174.237 525.232 174.237 516.505 Q174.237 507.755 177.292 503.172 Q180.371 498.565 186.181 498.565 Z" fill="#000000" fill-rule="nonzero" fill-opacity="1" /><path clip-path="url(#clip990)" d="M216.343 502.269 Q212.732 502.269 210.903 505.834 Q209.098 509.375 209.098 516.505 Q209.098 523.611 210.903 527.176 Q212.732 530.718 216.343 530.718 Q219.977 530.718 221.783 527.176 Q223.611 523.611 223.611 516.505 Q223.611 509.375 221.783 505.834 Q219.977 502.269 216.343 502.269 M216.343 498.565 Q222.153 498.565 225.209 503.172 Q228.287 507.755 228.287 516.505 Q228.287 525.232 225.209 529.838 Q222.153 534.421 216.343 534.421 Q210.533 534.421 207.454 529.838 Q204.399 525.232 204.399 516.505 Q204.399 507.755 207.454 503.172 Q210.533 498.565 216.343 498.565 Z" fill="#000000" fill-rule="nonzero" fill-opacity="1" /><path clip-path="url(#clip990)" d="M119.885 240.475 L136.204 240.475 L136.204 244.41 L114.26 244.41 L114.26 240.475 Q116.922 237.72 121.505 233.09 Q126.112 228.438 127.292 227.095 Q129.538 224.572 130.417 222.836 Q131.32 221.077 131.32 219.387 Q131.32 216.632 129.376 214.896 Q127.455 213.16 124.353 213.16 Q122.154 213.16 119.7 213.924 Q117.269 214.688 114.492 216.239 L114.492 211.516 Q117.316 210.382 119.769 209.803 Q122.223 209.225 124.26 209.225 Q129.63 209.225 132.825 211.91 Q136.019 214.595 136.019 219.086 Q136.019 221.215 135.209 223.137 Q134.422 225.035 132.316 227.627 Q131.737 228.299 128.635 231.516 Q125.533 234.711 119.885 240.475 Z" fill="#000000" fill-rule="nonzero" fill-opacity="1" /><path clip-path="url(#clip990)" d="M156.019 212.928 Q152.408 212.928 150.579 216.493 Q148.774 220.035 148.774 227.164 Q148.774 234.271 150.579 237.836 Q152.408 241.377 156.019 241.377 Q159.653 241.377 161.459 237.836 Q163.288 234.271 163.288 227.164 Q163.288 220.035 161.459 216.493 Q159.653 212.928 156.019 212.928 M156.019 209.225 Q161.829 209.225 164.885 213.831 Q167.964 218.415 167.964 227.164 Q167.964 235.891 164.885 240.498 Q161.829 245.081 156.019 245.081 Q150.209 245.081 147.13 240.498 Q144.075 235.891 144.075 227.164 Q144.075 218.415 147.13 213.831 Q150.209 209.225 156.019 209.225 Z" fill="#000000" fill-rule="nonzero" fill-opacity="1" /><path clip-path="url(#clip990)" d="M186.181 212.928 Q182.57 212.928 180.741 216.493 Q178.936 220.035 178.936 227.164 Q178.936 234.271 180.741 237.836 Q182.57 241.377 186.181 241.377 Q189.815 241.377 191.621 237.836 Q193.45 234.271 193.45 227.164 Q193.45 220.035 191.621 216.493 Q189.815 212.928 186.181 212.928 M186.181 209.225 Q191.991 209.225 195.047 213.831 Q198.125 218.415 198.125 227.164 Q198.125 235.891 195.047 240.498 Q191.991 245.081 186.181 245.081 Q180.371 245.081 177.292 240.498 Q174.237 235.891 174.237 227.164 Q174.237 218.415 177.292 213.831 Q180.371 209.225 186.181 209.225 Z" fill="#000000" fill-rule="nonzero" fill-opacity="1" /><path clip-path="url(#clip990)" d="M216.343 212.928 Q212.732 212.928 210.903 216.493 Q209.098 220.035 209.098 227.164 Q209.098 234.271 210.903 237.836 Q212.732 241.377 216.343 241.377 Q219.977 241.377 221.783 237.836 Q223.611 234.271 223.611 227.164 Q223.611 220.035 221.783 216.493 Q219.977 212.928 216.343 212.928 M216.343 209.225 Q222.153 209.225 225.209 213.831 Q228.287 218.415 228.287 227.164 Q228.287 235.891 225.209 240.498 Q222.153 245.081 216.343 245.081 Q210.533 245.081 207.454 240.498 Q204.399 235.891 204.399 227.164 Q204.399 218.415 207.454 213.831 Q210.533 209.225 216.343 209.225 Z" fill="#000000" fill-rule="nonzero" fill-opacity="1" /><path clip-path="url(#clip990)" d="M41.3104 969.884 L58.7206 969.884 L58.7206 959.571 Q58.7206 954.383 56.5881 951.901 Q54.4238 949.386 49.9996 949.386 Q45.5436 949.386 43.4429 951.901 Q41.3104 954.383 41.3104 959.571 L41.3104 969.884 M21.7677 969.884 L36.0905 969.884 L36.0905 960.367 Q36.0905 955.656 34.34 953.365 Q32.5576 951.041 28.9291 951.041 Q25.3325 951.041 23.5501 953.365 Q21.7677 955.656 21.7677 960.367 L21.7677 969.884 M16.4842 976.313 L16.4842 959.89 Q16.4842 952.537 19.5397 948.559 Q22.5952 944.58 28.2289 944.58 Q32.5894 944.58 35.1675 946.617 Q37.7456 948.654 38.3822 952.601 Q39.4007 947.858 42.6472 945.248 Q45.8619 942.607 50.6998 942.607 Q57.0655 942.607 60.5348 946.935 Q64.0042 951.264 64.0042 959.253 L64.0042 976.313 L16.4842 976.313 Z" fill="#000000" fill-rule="nonzero" fill-opacity="1" /><path clip-path="url(#clip990)" d="M32.4621 918.035 Q32.4621 922.746 36.1542 925.483 Q39.8145 928.22 46.212 928.22 Q52.6095 928.22 56.3017 925.515 Q59.9619 922.778 59.9619 918.035 Q59.9619 913.356 56.2698 910.619 Q52.5777 907.882 46.212 907.882 Q39.8781 907.882 36.186 910.619 Q32.4621 913.356 32.4621 918.035 M27.4968 918.035 Q27.4968 910.396 32.4621 906.036 Q37.4273 901.675 46.212 901.675 Q54.9649 901.675 59.9619 906.036 Q64.9272 910.396 64.9272 918.035 Q64.9272 925.706 59.9619 930.066 Q54.9649 934.395 46.212 934.395 Q37.4273 934.395 32.4621 930.066 Q27.4968 925.706 27.4968 918.035 Z" fill="#000000" fill-rule="nonzero" fill-opacity="1" /><path clip-path="url(#clip990)" d="M32.4621 878.154 Q32.4621 882.865 36.1542 885.602 Q39.8145 888.339 46.212 888.339 Q52.6095 888.339 56.3017 885.634 Q59.9619 882.896 59.9619 878.154 Q59.9619 873.475 56.2698 870.738 Q52.5777 868.001 46.212 868.001 Q39.8781 868.001 36.186 870.738 Q32.4621 873.475 32.4621 878.154 M27.4968 878.154 Q27.4968 870.515 32.4621 866.155 Q37.4273 861.794 46.212 861.794 Q54.9649 861.794 59.9619 866.155 Q64.9272 870.515 64.9272 878.154 Q64.9272 885.825 59.9619 890.185 Q54.9649 894.514 46.212 894.514 Q37.4273 894.514 32.4621 890.185 Q27.4968 885.825 27.4968 878.154 Z" fill="#000000" fill-rule="nonzero" fill-opacity="1" /><path clip-path="url(#clip990)" d="M29.4065 829.361 L34.9447 829.361 Q33.6716 831.843 33.035 834.517 Q32.3984 837.191 32.3984 840.055 Q32.3984 844.416 33.7352 846.612 Q35.072 848.776 37.7456 848.776 Q39.7826 848.776 40.9603 847.217 Q42.1061 845.657 43.1565 840.946 L43.6021 838.941 Q44.9389 832.703 47.3897 830.093 Q49.8086 827.451 54.1691 827.451 Q59.1344 827.451 62.0308 831.398 Q64.9272 835.313 64.9272 842.188 Q64.9272 845.052 64.3543 848.171 Q63.8132 851.259 62.6992 854.696 L56.6518 854.696 Q58.3387 851.45 59.198 848.299 Q60.0256 845.148 60.0256 842.06 Q60.0256 837.923 58.6251 835.695 Q57.1929 833.467 54.6147 833.467 Q52.2276 833.467 50.9545 835.09 Q49.6813 836.681 48.5037 842.124 L48.0262 844.161 Q46.8804 849.604 44.5251 852.023 Q42.138 854.442 38.0002 854.442 Q32.9713 854.442 30.2341 850.877 Q27.4968 847.312 27.4968 840.755 Q27.4968 837.509 27.9743 834.644 Q28.4517 831.78 29.4065 829.361 Z" fill="#000000" fill-rule="nonzero" fill-opacity="1" /><path clip-path="url(#clip990)" d="M18.2347 812.333 L28.3562 812.333 L28.3562 800.269 L32.9077 800.269 L32.9077 812.333 L52.2594 812.333 Q56.6199 812.333 57.8613 811.155 Q59.1026 809.945 59.1026 806.285 L59.1026 800.269 L64.0042 800.269 L64.0042 806.285 Q64.0042 813.065 61.4897 815.643 Q58.9434 818.221 52.2594 818.221 L32.9077 818.221 L32.9077 822.518 L28.3562 822.518 L28.3562 818.221 L18.2347 818.221 L18.2347 812.333 Z" fill="#000000" fill-rule="nonzero" fill-opacity="1" /><path clip-path="url(#clip990)" d="M16.4842 771.592 L16.4842 744.283 L21.895 744.283 L21.895 765.163 L35.8996 765.163 L35.8996 746.32 L41.3104 746.32 L41.3104 765.163 L64.0042 765.163 L64.0042 771.592 L16.4842 771.592 Z" fill="#000000" fill-rule="nonzero" fill-opacity="1" /><path clip-path="url(#clip990)" d="M46.0847 724.136 Q46.0847 731.233 47.7079 733.971 Q49.3312 736.708 53.2461 736.708 Q56.3653 736.708 58.2114 734.671 Q60.0256 732.602 60.0256 729.069 Q60.0256 724.199 56.5881 721.271 Q53.1188 718.311 47.3897 718.311 L46.0847 718.311 L46.0847 724.136 M43.6657 712.455 L64.0042 712.455 L64.0042 718.311 L58.5933 718.311 Q61.8398 720.316 63.3994 723.308 Q64.9272 726.3 64.9272 730.629 Q64.9272 736.103 61.8716 739.35 Q58.7843 742.564 53.6281 742.564 Q47.6125 742.564 44.5569 738.554 Q41.5014 734.512 41.5014 726.523 L41.5014 718.311 L40.9285 718.311 Q36.8862 718.311 34.6901 720.985 Q32.4621 723.626 32.4621 728.432 Q32.4621 731.488 33.1941 734.384 Q33.9262 737.281 35.3903 739.954 L29.9795 739.954 Q28.7381 736.74 28.1334 733.716 Q27.4968 730.692 27.4968 727.828 Q27.4968 720.093 31.5072 716.274 Q35.5176 712.455 43.6657 712.455 Z" fill="#000000" fill-rule="nonzero" fill-opacity="1" /><path clip-path="url(#clip990)" d="M29.7248 674.738 L35.1993 674.738 Q33.8307 677.22 33.1623 679.735 Q32.4621 682.217 32.4621 684.764 Q32.4621 690.461 36.0905 693.612 Q39.6872 696.763 46.212 696.763 Q52.7369 696.763 56.3653 693.612 Q59.9619 690.461 59.9619 684.764 Q59.9619 682.217 59.2935 679.735 Q58.5933 677.22 57.2247 674.738 L62.6355 674.738 Q63.7814 677.189 64.3543 679.83 Q64.9272 682.44 64.9272 685.4 Q64.9272 693.453 59.8664 698.195 Q54.8057 702.938 46.212 702.938 Q37.491 702.938 32.4939 698.164 Q27.4968 693.357 27.4968 685.018 Q27.4968 682.313 28.0697 679.735 Q28.6108 677.157 29.7248 674.738 Z" fill="#000000" fill-rule="nonzero" fill-opacity="1" /><path clip-path="url(#clip990)" d="M18.2347 658.76 L28.3562 658.76 L28.3562 646.697 L32.9077 646.697 L32.9077 658.76 L52.2594 658.76 Q56.6199 658.76 57.8613 657.582 Q59.1026 656.373 59.1026 652.712 L59.1026 646.697 L64.0042 646.697 L64.0042 652.712 Q64.0042 659.492 61.4897 662.07 Q58.9434 664.648 52.2594 664.648 L32.9077 664.648 L32.9077 668.945 L28.3562 668.945 L28.3562 664.648 L18.2347 664.648 L18.2347 658.76 Z" fill="#000000" fill-rule="nonzero" fill-opacity="1" /><path clip-path="url(#clip990)" d="M32.4621 625.181 Q32.4621 629.891 36.1542 632.629 Q39.8145 635.366 46.212 635.366 Q52.6095 635.366 56.3017 632.66 Q59.9619 629.923 59.9619 625.181 Q59.9619 620.502 56.2698 617.765 Q52.5777 615.027 46.212 615.027 Q39.8781 615.027 36.186 617.765 Q32.4621 620.502 32.4621 625.181 M27.4968 625.181 Q27.4968 617.542 32.4621 613.181 Q37.4273 608.821 46.212 608.821 Q54.9649 608.821 59.9619 613.181 Q64.9272 617.542 64.9272 625.181 Q64.9272 632.851 59.9619 637.212 Q54.9649 641.541 46.212 641.541 Q37.4273 641.541 32.4621 637.212 Q27.4968 632.851 27.4968 625.181 Z" fill="#000000" fill-rule="nonzero" fill-opacity="1" /><path clip-path="url(#clip990)" d="M33.8307 578.456 Q33.2578 579.443 33.0032 580.621 Q32.7167 581.767 32.7167 583.167 Q32.7167 588.132 35.9632 590.806 Q39.1779 593.448 45.2253 593.448 L64.0042 593.448 L64.0042 599.336 L28.3562 599.336 L28.3562 593.448 L33.8944 593.448 Q30.6479 591.602 29.0883 588.642 Q27.4968 585.682 27.4968 581.448 Q27.4968 580.844 27.5923 580.112 Q27.656 579.379 27.8151 578.488 L33.8307 578.456 Z" fill="#000000" fill-rule="nonzero" fill-opacity="1" /><path clip-path="url(#clip990)" d="M61.808 545.737 L77.5631 545.737 L77.5631 551.625 L28.579 551.625 Q14.0652 551.625 14.0652 538.066 Q14.0652 524.252 26.3192 524.252 Q35.0402 524.252 38.223 529.727 Q41.0876 520.815 49.5858 520.815 Q64.6726 520.815 64.6726 536.156 Q64.6726 542.904 61.808 545.737 M54.1691 545.737 Q59.6755 542.204 59.6755 535.934 Q59.6755 526.767 49.6813 526.767 Q40.7057 526.767 41.4059 541.535 L35.995 541.535 Q35.995 529.982 25.8099 529.982 Q18.8395 529.982 18.8395 537.429 Q18.8395 545.737 28.77 545.737 L54.1691 545.737 Z" fill="#000000" fill-rule="nonzero" fill-opacity="1" /><path clip-path="url(#clip990)" d="M39.1142 507.606 L39.1142 494.111 L42.7427 494.111 L42.7427 513.144 L39.2416 513.144 Q38.2549 512.062 36.4725 510.057 Q26.7648 499.108 23.7729 499.108 Q21.6722 499.108 20.3991 500.763 Q19.0941 502.418 19.0941 505.124 Q19.0941 506.779 19.667 508.72 Q20.2081 510.662 21.3221 512.953 L17.4072 512.953 Q16.516 510.503 16.0704 508.402 Q15.6248 506.269 15.6248 504.455 Q15.6248 499.84 17.7255 497.071 Q19.8262 494.302 23.2636 494.302 Q27.6878 494.302 36.7271 504.837 Q38.2549 506.619 39.1142 507.606 Z" fill="#000000" fill-rule="nonzero" fill-opacity="1" /><polyline clip-path="url(#clip992)" style="stroke:#009af9; stroke-linecap:round; stroke-linejoin:round; stroke-width:4; stroke-opacity:1; fill:none" points="323.395,1384.24 325.367,1384.22 327.339,1384.21 329.312,1384.2 331.284,1384.18 333.256,1384.17 335.228,1384.15 337.201,1384.14 339.173,1384.12 341.145,1384.1 343.117,1384.09 345.089,1384.07 347.062,1384.05 349.034,1384.03 351.006,1384.02 352.978,1384 354.951,1383.98 356.923,1383.96 358.895,1383.94 360.867,1383.92 362.839,1383.9 364.812,1383.88 366.784,1383.86 368.756,1383.84 370.728,1383.81 372.701,1383.79 374.673,1383.77 376.645,1383.74 378.617,1383.72 380.589,1383.7 382.562,1383.67 384.534,1383.65 386.506,1383.62 388.478,1383.6 390.451,1383.57 392.423,1383.55 394.395,1383.52 396.367,1383.49 398.339,1383.47 400.312,1383.44 402.284,1383.41 404.256,1383.38 406.228,1383.35 408.201,1383.32 410.173,1383.29 412.145,1383.26 414.117,1383.23 416.09,1383.2 418.062,1383.17 420.034,1383.14 422.006,1383.11 423.978,1383.07 425.951,1383.04 427.923,1383.01 429.895,1382.97 431.867,1382.94 433.84,1382.9 435.812,1382.87 437.784,1382.83 439.756,1382.79 441.728,1382.76 443.701,1382.72 445.673,1382.68 447.645,1382.64 449.617,1382.61 451.59,1382.57 453.562,1382.53 455.534,1382.49 457.506,1382.45 459.478,1382.41 461.451,1382.36 463.423,1382.32 465.395,1382.28 467.367,1382.24 469.34,1382.19 471.312,1382.15 473.284,1382.1 475.256,1382.06 477.229,1382.01 479.201,1381.97 481.173,1381.92 483.145,1381.87 485.117,1381.83 487.09,1381.78 489.062,1381.73 491.034,1381.68 493.006,1381.63 494.979,1381.58 496.951,1381.53 498.923,1381.48 500.895,1381.43 502.867,1381.37 504.84,1381.32 506.812,1381.27 508.784,1381.21 510.756,1381.16 512.729,1381.1 514.701,1381.04 516.673,1380.99 518.645,1380.93 520.617,1380.87 522.59,1380.81 524.562,1380.75 526.534,1380.69 528.506,1380.63 530.479,1380.57 532.451,1380.51 534.423,1380.44 536.395,1380.38 538.368,1380.32 540.34,1380.25 542.312,1380.19 544.284,1380.12 546.256,1380.05 548.229,1379.98 550.201,1379.92 552.173,1379.85 554.145,1379.78 556.118,1379.71 558.09,1379.63 560.062,1379.56 562.034,1379.49 564.006,1379.42 565.979,1379.34 567.951,1379.26 569.923,1379.19 571.895,1379.11 573.868,1379.03 575.84,1378.95 577.812,1378.87 579.784,1378.79 581.756,1378.71 583.729,1378.63 585.701,1378.55 587.673,1378.46 589.645,1378.38 591.618,1378.29 593.59,1378.21 595.562,1378.12 597.534,1378.03 599.507,1377.94 601.479,1377.85 603.451,1377.76 605.423,1377.66 607.395,1377.57 609.368,1377.48 611.34,1377.38 613.312,1377.28 615.284,1377.18 617.257,1377.09 619.229,1376.99 621.201,1376.88 623.173,1376.78 625.145,1376.68 627.118,1376.57 629.09,1376.47 631.062,1376.36 633.034,1376.25 635.007,1376.15 636.979,1376.03 638.951,1375.92 640.923,1375.81 642.895,1375.7 644.868,1375.58 646.84,1375.46 648.812,1375.35 650.784,1375.23 652.757,1375.11 654.729,1374.98 656.701,1374.86 658.673,1374.74 660.646,1374.61 662.618,1374.48 664.59,1374.35 666.562,1374.22 668.534,1374.09 670.507,1373.96 672.479,1373.82 674.451,1373.69 676.423,1373.55 678.396,1373.41 680.368,1373.27 682.34,1373.13 684.312,1372.98 686.284,1372.84 688.257,1372.69 690.229,1372.54 692.201,1372.39 694.173,1372.24 696.146,1372.08 698.118,1371.92 700.09,1371.77 702.062,1371.61 704.034,1371.44 706.007,1371.28 707.979,1371.11 709.951,1370.95 711.923,1370.78 713.896,1370.61 715.868,1370.43 717.84,1370.26 719.812,1370.08 721.784,1369.9 723.757,1369.72 725.729,1369.53 727.701,1369.35 729.673,1369.16 731.646,1368.97 733.618,1368.77 735.59,1368.58 737.562,1368.38 739.535,1368.18 741.507,1367.98 743.479,1367.77 745.451,1367.57 747.423,1367.36 749.396,1367.14 751.368,1366.93 753.34,1366.71 755.312,1366.49 757.285,1366.27 759.257,1366.04 761.229,1365.81 763.201,1365.58 765.173,1365.34 767.146,1365.11 769.118,1364.87 771.09,1364.62 773.062,1364.38 775.035,1364.13 777.007,1363.87 778.979,1363.62 780.951,1363.36 782.923,1363.09 784.896,1362.83 786.868,1362.56 788.84,1362.29 790.812,1362.01 792.785,1361.73 794.757,1361.45 796.729,1361.16 798.701,1360.87 800.674,1360.57 802.646,1360.27 804.618,1359.97 806.59,1359.66 808.562,1359.35 810.535,1359.04 812.507,1358.72 814.479,1358.4 816.451,1358.07 818.424,1357.74 820.396,1357.4 822.368,1357.06 824.34,1356.71 826.312,1356.36 828.285,1356.01 830.257,1355.65 832.229,1355.28 834.201,1354.91 836.174,1354.54 838.146,1354.16 840.118,1353.77 842.09,1353.38 844.062,1352.98 846.035,1352.58 848.007,1352.17 849.979,1351.76 851.951,1351.34 853.924,1350.92 855.896,1350.48 857.868,1350.05 859.84,1349.6 861.813,1349.15 863.785,1348.7 865.757,1348.23 867.729,1347.76 869.701,1347.29 871.674,1346.8 873.646,1346.31 875.618,1345.82 877.59,1345.31 879.563,1344.8 881.535,1344.28 883.507,1343.75 885.479,1343.21 887.451,1342.67 889.424,1342.12 891.396,1341.56 893.368,1340.99 895.34,1340.41 897.313,1339.82 899.285,1339.23 901.257,1338.62 903.229,1338.01 905.201,1337.39 907.174,1336.75 909.146,1336.11 911.118,1335.46 913.09,1334.79 915.063,1334.12 917.035,1333.44 919.007,1332.74 920.979,1332.03 922.952,1331.32 924.924,1330.59 926.896,1329.85 928.868,1329.09 930.84,1328.33 932.813,1327.55 934.785,1326.76 936.757,1325.96 938.729,1325.14 940.702,1324.31 942.674,1323.47 944.646,1322.61 946.618,1321.74 948.59,1320.85 950.563,1319.95 952.535,1319.03 954.507,1318.1 956.479,1317.15 958.452,1316.18 960.424,1315.2 962.396,1314.2 964.368,1313.19 966.34,1312.15 968.313,1311.1 970.285,1310.03 972.257,1308.94 974.229,1307.83 976.202,1306.7 978.174,1305.56 980.146,1304.39 982.118,1303.2 984.091,1301.99 986.063,1300.75 988.035,1299.5 990.007,1298.22 991.979,1296.91 993.952,1295.59 995.924,1294.24 997.896,1292.86 999.868,1291.46 1001.84,1290.03 1003.81,1288.57 1005.78,1287.09 1007.76,1285.58 1009.73,1284.04 1011.7,1282.47 1013.67,1280.87 1015.65,1279.24 1017.62,1277.58 1019.59,1275.88 1021.56,1274.15 1023.54,1272.39 1025.51,1270.59 1027.48,1268.76 1029.45,1266.89 1031.42,1264.98 1033.4,1263.04 1035.37,1261.05 1037.34,1259.03 1039.31,1256.96 1041.29,1254.85 1043.26,1252.7 1045.23,1250.5 1047.2,1248.26 1049.17,1245.97 1051.15,1243.63 1053.12,1241.25 1055.09,1238.81 1057.06,1236.32 1059.04,1233.78 1061.01,1231.19 1062.98,1228.54 1064.95,1225.83 1066.92,1223.06 1068.9,1220.23 1070.87,1217.35 1072.84,1214.39 1074.81,1211.38 1076.79,1208.29 1078.76,1205.14 1080.73,1201.91 1082.7,1198.62 1084.67,1195.25 1086.65,1191.8 1088.62,1188.28 1090.59,1184.68 1092.56,1180.99 1094.54,1177.22 1096.51,1173.36 1098.48,1169.42 1100.45,1165.38 1102.42,1161.25 1104.4,1157.02 1106.37,1152.69 1108.34,1148.26 1110.31,1143.73 1112.29,1139.09 1114.26,1134.33 1116.23,1129.47 1118.2,1124.49 1120.17,1119.39 1122.15,1114.17 1124.12,1108.82 1126.09,1103.34 1128.06,1097.73 1130.04,1091.99 1132.01,1086.1 1133.98,1080.07 1135.95,1073.9 1137.92,1067.57 1139.9,1061.09 1141.87,1054.45 1143.84,1047.65 1145.81,1040.68 1147.79,1033.55 1149.76,1026.23 1151.73,1018.74 1153.7,1011.06 1155.67,1003.2 1157.65,995.142 1159.62,986.889 1161.59,978.435 1163.56,969.776 1165.54,960.907 1167.51,951.824 1169.48,942.522 1171.45,932.997 1173.42,923.245 1175.4,913.262 1177.37,903.044 1179.34,892.586 1181.31,881.886 1183.29,870.939 1185.26,859.742 1187.23,848.293 1189.2,836.588 1191.17,824.625 1193.15,812.401 1195.12,799.916 1197.09,787.168 1199.06,774.155 1201.04,760.879 1203.01,747.339 1204.98,733.537 1206.95,719.474 1208.92,705.154 1210.9,690.579 1212.87,675.754 1214.84,660.686 1216.81,645.379 1218.79,629.843 1220.76,614.086 1222.73,598.119 1224.7,581.952 1226.67,565.6 1228.65,549.078 1230.62,532.4 1232.59,515.587 1234.56,498.656 1236.54,481.63 1238.51,464.531 1240.48,447.386 1242.45,430.22 1244.42,413.062 1246.4,395.943 1248.37,378.896 1250.34,361.953 1252.31,345.151 1254.29,328.527 1256.26,312.12 1258.23,295.968 1260.2,280.114 1262.17,264.598 1264.15,249.464 1266.12,234.754 1268.09,220.512 1270.06,206.78 1272.04,193.6 1274.01,181.016 1275.98,169.066 1277.95,157.792 1279.92,147.231 1281.9,137.417 1283.87,128.385 1285.84,120.166 1287.81,112.787 1289.79,106.272 1291.76,100.643 1293.73,95.9182 1295.7,92.11 1297.67,89.2288 1299.65,87.2805 1301.62,86.2669 1303.59,86.1857 1305.56,87.0308 1307.54,88.7921 1309.51,91.4559 1311.48,95.0046 1313.45,99.4174 1315.42,104.67 1317.4,110.737 1319.37,117.587 1321.34,125.189 1323.31,133.509 1325.29,142.511 1327.26,152.158 1329.23,162.413 1331.2,173.236 1333.17,184.587 1335.15,196.427 1337.12,208.717 1339.09,221.416 1341.06,234.486 1343.04,247.889 1345.01,261.587 1346.98,275.544 1348.95,289.724 1350.92,304.094 1352.9,318.621 1354.87,333.275 1356.84,348.024 1358.81,362.843 1360.79,377.703 1362.76,392.581 1364.73,407.452 1366.7,422.296 1368.67,437.092 1370.65,451.821 1372.62,466.466 1374.59,481.011 1376.56,495.443 1378.54,509.747 1380.51,523.913 1382.48,537.929 1384.45,551.786 1386.42,565.475 1388.4,578.989 1390.37,592.322 1392.34,605.469 1394.31,618.423 1396.29,631.182 1398.26,643.742 1400.23,656.101 1402.2,668.256 1404.17,680.206 1406.15,691.951 1408.12,703.49 1410.09,714.822 1412.06,725.949 1414.04,736.871 1416.01,747.59 1417.98,758.106 1419.95,768.422 1421.92,778.539 1423.9,788.459 1425.87,798.185 1427.84,807.719 1429.81,817.064 1431.79,826.222 1433.76,835.196 1435.73,843.989 1437.7,852.604 1439.67,861.045 1441.65,869.313 1443.62,877.413 1445.59,885.347 1447.56,893.118 1449.54,900.73 1451.51,908.186 1453.48,915.489 1455.45,922.641 1457.42,929.647 1459.4,936.509 1461.37,943.23 1463.34,949.813 1465.31,956.261 1467.29,962.578 1469.26,968.765 1471.23,974.826 1473.2,980.764 1475.17,986.581 1477.15,992.281 1479.12,997.865 1481.09,1003.34 1483.06,1008.7 1485.04,1013.95 1487.01,1019.1 1488.98,1024.15 1490.95,1029.09 1492.92,1033.94 1494.9,1038.69 1496.87,1043.35 1498.84,1047.92 1500.81,1052.4 1502.79,1056.79 1504.76,1061.1 1506.73,1065.32 1508.7,1069.46 1510.67,1073.52 1512.65,1077.51 1514.62,1081.42 1516.59,1085.25 1518.56,1089.02 1520.54,1092.71 1522.51,1096.33 1524.48,1099.89 1526.45,1103.38 1528.42,1106.8 1530.4,1110.17 1532.37,1113.47 1534.34,1116.71 1536.31,1119.89 1538.29,1123.01 1540.26,1126.08 1542.23,1129.1 1544.2,1132.06 1546.17,1134.96 1548.15,1137.82 1550.12,1140.63 1552.09,1143.38 1554.06,1146.09 1556.04,1148.76 1558.01,1151.37 1559.98,1153.94 1561.95,1156.47 1563.92,1158.96 1565.9,1161.4 1567.87,1163.8 1569.84,1166.16 1571.81,1168.48 1573.79,1170.77 1575.76,1173.01 1577.73,1175.22 1579.7,1177.39 1581.67,1179.53 1583.65,1181.63 1585.62,1183.7 1587.59,1185.74 1589.56,1187.74 1591.54,1189.71 1593.51,1191.65 1595.48,1193.56 1597.45,1195.44 1599.42,1197.29 1601.4,1199.11 1603.37,1200.91 1605.34,1202.67 1607.31,1204.41 1609.29,1206.12 1611.26,1207.81 1613.23,1209.47 1615.2,1211.11 1617.17,1212.72 1619.15,1214.31 1621.12,1215.87 1623.09,1217.41 1625.06,1218.93 1627.04,1220.43 1629.01,1221.9 1630.98,1223.35 1632.95,1224.78 1634.92,1226.2 1636.9,1227.59 1638.87,1228.96 1640.84,1230.31 1642.81,1231.64 1644.79,1232.96 1646.76,1234.25 1648.73,1235.53 1650.7,1236.79 1652.67,1238.04 1654.65,1239.26 1656.62,1240.47 1658.59,1241.66 1660.56,1242.84 1662.54,1244 1664.51,1245.15 1666.48,1246.28 1668.45,1247.39 1670.43,1248.49 1672.4,1249.58 1674.37,1250.65 1676.34,1251.71 1678.31,1252.75 1680.29,1253.78 1682.26,1254.8 1684.23,1255.8 1686.2,1256.79 1688.18,1257.77 1690.15,1258.74 1692.12,1259.69 1694.09,1260.63 1696.06,1261.56 1698.04,1262.48 1700.01,1263.39 1701.98,1264.28 1703.95,1265.17 1705.93,1266.04 1707.9,1266.91 1709.87,1267.76 1711.84,1268.6 1713.81,1269.43 1715.79,1270.26 1717.76,1271.07 1719.73,1271.87 1721.7,1272.67 1723.68,1273.45 1725.65,1274.22 1727.62,1274.99 1729.59,1275.75 1731.56,1276.5 1733.54,1277.23 1735.51,1277.97 1737.48,1278.69 1739.45,1279.4 1741.43,1280.11 1743.4,1280.81 1745.37,1281.5 1747.34,1282.18 1749.31,1282.86 1751.29,1283.52 1753.26,1284.18 1755.23,1284.84 1757.2,1285.48 1759.18,1286.12 1761.15,1286.75 1763.12,1287.38 1765.09,1287.99 1767.06,1288.6 1769.04,1289.21 1771.01,1289.81 1772.98,1290.4 1774.95,1290.98 1776.93,1291.56 1778.9,1292.14 1780.87,1292.7 1782.84,1293.26 1784.81,1293.82 1786.79,1294.37 1788.76,1294.91 1790.73,1295.45 1792.7,1295.98 1794.68,1296.51 1796.65,1297.03 1798.62,1297.55 1800.59,1298.06 1802.56,1298.57 1804.54,1299.07 1806.51,1299.56 1808.48,1300.05 1810.45,1300.54 1812.43,1301.02 1814.4,1301.5 1816.37,1301.97 1818.34,1302.44 1820.31,1302.9 1822.29,1303.36 1824.26,1303.81 1826.23,1304.26 1828.2,1304.7 1830.18,1305.15 1832.15,1305.58 1834.12,1306.01 1836.09,1306.44 1838.06,1306.87 1840.04,1307.29 1842.01,1307.7 1843.98,1308.11 1845.95,1308.52 1847.93,1308.93 1849.9,1309.33 1851.87,1309.73 1853.84,1310.12 1855.81,1310.51 1857.79,1310.89 1859.76,1311.28 1861.73,1311.66 1863.7,1312.03 1865.68,1312.41 1867.65,1312.77 1869.62,1313.14 1871.59,1313.5 1873.56,1313.86 1875.54,1314.22 1877.51,1314.57 1879.48,1314.92 1881.45,1315.27 1883.43,1315.61 1885.4,1315.95 1887.37,1316.29 1889.34,1316.62 1891.31,1316.96 1893.29,1317.28 1895.26,1317.61 1897.23,1317.93 1899.2,1318.25 1901.18,1318.57 1903.15,1318.89 1905.12,1319.2 1907.09,1319.51 1909.06,1319.82 1911.04,1320.12 1913.01,1320.42 1914.98,1320.72 1916.95,1321.02 1918.93,1321.32 1920.9,1321.61 1922.87,1321.9 1924.84,1322.19 1926.81,1322.47 1928.79,1322.75 1930.76,1323.03 1932.73,1323.31 1934.7,1323.59 1936.68,1323.86 1938.65,1324.13 1940.62,1324.4 1942.59,1324.67 1944.56,1324.94 1946.54,1325.2 1948.51,1325.46 1950.48,1325.72 1952.45,1325.97 1954.43,1326.23 1956.4,1326.48 1958.37,1326.73 1960.34,1326.98 1962.31,1327.23 1964.29,1327.47 1966.26,1327.72 1968.23,1327.96 1970.2,1328.2 1972.18,1328.44 1974.15,1328.67 1976.12,1328.91 1978.09,1329.14 1980.06,1329.37 1982.04,1329.6 1984.01,1329.82 1985.98,1330.05 1987.95,1330.27 1989.93,1330.5 1991.9,1330.72 1993.87,1330.93 1995.84,1331.15 1997.81,1331.37 1999.79,1331.58 2001.76,1331.79 2003.73,1332 2005.7,1332.21 2007.68,1332.42 2009.65,1332.63 2011.62,1332.83 2013.59,1333.04 2015.56,1333.24 2017.54,1333.44 2019.51,1333.64 2021.48,1333.83 2023.45,1334.03 2025.43,1334.23 2027.4,1334.42 2029.37,1334.61 2031.34,1334.8 2033.31,1334.99 2035.29,1335.18 2037.26,1335.37 2039.23,1335.55 2041.2,1335.74 2043.18,1335.92 2045.15,1336.1 2047.12,1336.28 2049.09,1336.46 2051.06,1336.64 2053.04,1336.81 2055.01,1336.99 2056.98,1337.16 2058.95,1337.34 2060.93,1337.51 2062.9,1337.68 2064.87,1337.85 2066.84,1338.02 2068.81,1338.19 2070.79,1338.35 2072.76,1338.52 2074.73,1338.68 2076.7,1338.84 2078.68,1339.01 2080.65,1339.17 2082.62,1339.33 2084.59,1339.49 2086.56,1339.64 2088.54,1339.8 2090.51,1339.96 2092.48,1340.11 2094.45,1340.26 2096.43,1340.42 2098.4,1340.57 2100.37,1340.72 2102.34,1340.87 2104.31,1341.02 2106.29,1341.17 2108.26,1341.31 2110.23,1341.46 2112.2,1341.6 2114.18,1341.75 2116.15,1341.89 2118.12,1342.03 2120.09,1342.17 2122.06,1342.32 2124.04,1342.46 2126.01,1342.59 2127.98,1342.73 2129.95,1342.87 2131.93,1343.01 2133.9,1343.14 2135.87,1343.28 2137.84,1343.41 2139.81,1343.54 2141.79,1343.67 2143.76,1343.81 2145.73,1343.94 2147.7,1344.07 2149.68,1344.2 2151.65,1344.32 2153.62,1344.45 2155.59,1344.58 2157.56,1344.7 2159.54,1344.83 2161.51,1344.95 2163.48,1345.08 2165.45,1345.2 2167.43,1345.32 2169.4,1345.44 2171.37,1345.56 2173.34,1345.68 2175.31,1345.8 2177.29,1345.92 2179.26,1346.04 2181.23,1346.16 2183.2,1346.27 2185.18,1346.39 2187.15,1346.51 2189.12,1346.62 2191.09,1346.73 2193.06,1346.85 2195.04,1346.96 2197.01,1347.07 2198.98,1347.18 2200.95,1347.29 2202.93,1347.4 2204.9,1347.51 2206.87,1347.62 2208.84,1347.73 2210.81,1347.84 2212.79,1347.95 2214.76,1348.05 2216.73,1348.16 2218.7,1348.26 2220.68,1348.37 2222.65,1348.47 2224.62,1348.58 2226.59,1348.68 2228.56,1348.78 2230.54,1348.88 2232.51,1348.98 2234.48,1349.09 2236.45,1349.19 2238.43,1349.29 2240.4,1349.38 2242.37,1349.48 2244.34,1349.58 2246.31,1349.68 2248.29,1349.78 2250.26,1349.87 2252.23,1349.97 2254.2,1350.06 2256.18,1350.16 2258.15,1350.25 2260.12,1350.35 2262.09,1350.44 2264.06,1350.53 2266.04,1350.62 2268.01,1350.72 2269.98,1350.81 2271.95,1350.9 2273.93,1350.99 2275.9,1351.08 2277.87,1351.17 2279.84,1351.26 2281.81,1351.35 2283.79,1351.44 2285.76,1351.52 2287.73,1351.61 2289.7,1351.7 2291.68,1351.78 2293.65,1351.87 "/>
<polyline clip-path="url(#clip992)" style="stroke:#ff0000; stroke-linecap:round; stroke-linejoin:round; stroke-width:4; stroke-opacity:1; fill:none" points="1210.01,2799.12 1210.01,-1328.69 "/>
<polyline clip-path="url(#clip992)" style="stroke:#ff0000; stroke-linecap:round; stroke-linejoin:round; stroke-width:4; stroke-opacity:1; fill:none" points="1407.03,2799.12 1407.03,-1328.69 "/>
</svg>
