<?xml version="1.0" encoding="utf-8"?>
<svg xmlns="http://www.w3.org/2000/svg" xmlns:xlink="http://www.w3.org/1999/xlink" width="600" height="400" viewBox="0 0 2400 1600">
<defs>
  <clipPath id="clip630">
    <rect x="0" y="0" width="2400" height="1600"/>
  </clipPath>
</defs>
<path clip-path="url(#clip630)" d="M0 1600 L2400 1600 L2400 0 L0 0  Z" fill="#ffffff" fill-rule="evenodd" fill-opacity="1"/>
<defs>
  <clipPath id="clip631">
    <rect x="480" y="0" width="1681" height="1600"/>
  </clipPath>
</defs>
<path clip-path="url(#clip630)" d="M309.866 1423.18 L2352.76 1423.18 L2352.76 47.2441 L309.866 47.2441  Z" fill="#ffffff" fill-rule="evenodd" fill-opacity="1"/>
<defs>
  <clipPath id="clip632">
    <rect x="309" y="47" width="2044" height="1377"/>
  </clipPath>
</defs>
<polyline clip-path="url(#clip632)" style="stroke:#000000; stroke-linecap:round; stroke-linejoin:round; stroke-width:2; stroke-opacity:0.1; fill:none" points="560.409,1423.18 560.409,47.2441 "/>
<polyline clip-path="url(#clip632)" style="stroke:#000000; stroke-linecap:round; stroke-linejoin:round; stroke-width:2; stroke-opacity:0.1; fill:none" points="945.86,1423.18 945.86,47.2441 "/>
<polyline clip-path="url(#clip632)" style="stroke:#000000; stroke-linecap:round; stroke-linejoin:round; stroke-width:2; stroke-opacity:0.1; fill:none" points="1331.31,1423.18 1331.31,47.2441 "/>
<polyline clip-path="url(#clip632)" style="stroke:#000000; stroke-linecap:round; stroke-linejoin:round; stroke-width:2; stroke-opacity:0.1; fill:none" points="1716.76,1423.18 1716.76,47.2441 "/>
<polyline clip-path="url(#clip632)" style="stroke:#000000; stroke-linecap:round; stroke-linejoin:round; stroke-width:2; stroke-opacity:0.1; fill:none" points="2102.21,1423.18 2102.21,47.2441 "/>
<polyline clip-path="url(#clip632)" style="stroke:#000000; stroke-linecap:round; stroke-linejoin:round; stroke-width:2; stroke-opacity:0.1; fill:none" points="309.866,1289.53 2352.76,1289.53 "/>
<polyline clip-path="url(#clip632)" style="stroke:#000000; stroke-linecap:round; stroke-linejoin:round; stroke-width:2; stroke-opacity:0.1; fill:none" points="309.866,1082.01 2352.76,1082.01 "/>
<polyline clip-path="url(#clip632)" style="stroke:#000000; stroke-linecap:round; stroke-linejoin:round; stroke-width:2; stroke-opacity:0.1; fill:none" points="309.866,874.479 2352.76,874.479 "/>
<polyline clip-path="url(#clip632)" style="stroke:#000000; stroke-linecap:round; stroke-linejoin:round; stroke-width:2; stroke-opacity:0.1; fill:none" points="309.866,666.951 2352.76,666.951 "/>
<polyline clip-path="url(#clip632)" style="stroke:#000000; stroke-linecap:round; stroke-linejoin:round; stroke-width:2; stroke-opacity:0.1; fill:none" points="309.866,459.424 2352.76,459.424 "/>
<polyline clip-path="url(#clip632)" style="stroke:#000000; stroke-linecap:round; stroke-linejoin:round; stroke-width:2; stroke-opacity:0.1; fill:none" points="309.866,251.896 2352.76,251.896 "/>
<polyline clip-path="url(#clip630)" style="stroke:#000000; stroke-linecap:round; stroke-linejoin:round; stroke-width:4; stroke-opacity:1; fill:none" points="309.866,1423.18 2352.76,1423.18 "/>
<polyline clip-path="url(#clip630)" style="stroke:#000000; stroke-linecap:round; stroke-linejoin:round; stroke-width:4; stroke-opacity:1; fill:none" points="560.409,1423.18 560.409,1404.28 "/>
<polyline clip-path="url(#clip630)" style="stroke:#000000; stroke-linecap:round; stroke-linejoin:round; stroke-width:4; stroke-opacity:1; fill:none" points="945.86,1423.18 945.86,1404.28 "/>
<polyline clip-path="url(#clip630)" style="stroke:#000000; stroke-linecap:round; stroke-linejoin:round; stroke-width:4; stroke-opacity:1; fill:none" points="1331.31,1423.18 1331.31,1404.28 "/>
<polyline clip-path="url(#clip630)" style="stroke:#000000; stroke-linecap:round; stroke-linejoin:round; stroke-width:4; stroke-opacity:1; fill:none" points="1716.76,1423.18 1716.76,1404.28 "/>
<polyline clip-path="url(#clip630)" style="stroke:#000000; stroke-linecap:round; stroke-linejoin:round; stroke-width:4; stroke-opacity:1; fill:none" points="2102.21,1423.18 2102.21,1404.28 "/>
<path clip-path="url(#clip630)" d="M516.486 1481.64 L532.805 1481.64 L532.805 1485.58 L510.861 1485.58 L510.861 1481.64 Q513.523 1478.89 518.106 1474.26 Q522.712 1469.61 523.893 1468.27 Q526.138 1465.74 527.018 1464.01 Q527.921 1462.25 527.921 1460.56 Q527.921 1457.8 525.976 1456.07 Q524.055 1454.33 520.953 1454.33 Q518.754 1454.33 516.3 1455.09 Q513.87 1455.86 511.092 1457.41 L511.092 1452.69 Q513.916 1451.55 516.37 1450.97 Q518.823 1450.39 520.861 1450.39 Q526.231 1450.39 529.425 1453.08 Q532.62 1455.77 532.62 1460.26 Q532.62 1462.39 531.81 1464.31 Q531.022 1466.2 528.916 1468.8 Q528.337 1469.47 525.235 1472.69 Q522.134 1475.88 516.486 1481.64 Z" fill="#000000" fill-rule="nonzero" fill-opacity="1" /><path clip-path="url(#clip630)" d="M552.62 1454.1 Q549.009 1454.1 547.18 1457.66 Q545.374 1461.2 545.374 1468.33 Q545.374 1475.44 547.18 1479.01 Q549.009 1482.55 552.62 1482.55 Q556.254 1482.55 558.059 1479.01 Q559.888 1475.44 559.888 1468.33 Q559.888 1461.2 558.059 1457.66 Q556.254 1454.1 552.62 1454.1 M552.62 1450.39 Q558.43 1450.39 561.485 1455 Q564.564 1459.58 564.564 1468.33 Q564.564 1477.06 561.485 1481.67 Q558.43 1486.25 552.62 1486.25 Q546.809 1486.25 543.731 1481.67 Q540.675 1477.06 540.675 1468.33 Q540.675 1459.58 543.731 1455 Q546.809 1450.39 552.62 1450.39 Z" fill="#000000" fill-rule="nonzero" fill-opacity="1" /><path clip-path="url(#clip630)" d="M572.782 1479.7 L577.666 1479.7 L577.666 1485.58 L572.782 1485.58 L572.782 1479.7 Z" fill="#000000" fill-rule="nonzero" fill-opacity="1" /><path clip-path="url(#clip630)" d="M598.43 1466.44 Q595.281 1466.44 593.43 1468.59 Q591.601 1470.74 591.601 1474.49 Q591.601 1478.22 593.43 1480.39 Q595.281 1482.55 598.43 1482.55 Q601.578 1482.55 603.406 1480.39 Q605.258 1478.22 605.258 1474.49 Q605.258 1470.74 603.406 1468.59 Q601.578 1466.44 598.43 1466.44 M607.712 1451.78 L607.712 1456.04 Q605.953 1455.21 604.147 1454.77 Q602.365 1454.33 600.605 1454.33 Q595.976 1454.33 593.522 1457.45 Q591.092 1460.58 590.744 1466.9 Q592.11 1464.89 594.17 1463.82 Q596.23 1462.73 598.707 1462.73 Q603.916 1462.73 606.925 1465.9 Q609.957 1469.05 609.957 1474.49 Q609.957 1479.82 606.809 1483.03 Q603.661 1486.25 598.43 1486.25 Q592.434 1486.25 589.263 1481.67 Q586.092 1477.06 586.092 1468.33 Q586.092 1460.14 589.981 1455.28 Q593.869 1450.39 600.42 1450.39 Q602.18 1450.39 603.962 1450.74 Q605.767 1451.09 607.712 1451.78 Z" fill="#000000" fill-rule="nonzero" fill-opacity="1" /><path clip-path="url(#clip630)" d="M902.064 1481.64 L918.383 1481.64 L918.383 1485.58 L896.439 1485.58 L896.439 1481.64 Q899.101 1478.89 903.684 1474.26 Q908.291 1469.61 909.471 1468.27 Q911.717 1465.74 912.596 1464.01 Q913.499 1462.25 913.499 1460.56 Q913.499 1457.8 911.555 1456.07 Q909.633 1454.33 906.531 1454.33 Q904.332 1454.33 901.879 1455.09 Q899.448 1455.86 896.67 1457.41 L896.67 1452.69 Q899.494 1451.55 901.948 1450.97 Q904.402 1450.39 906.439 1450.39 Q911.809 1450.39 915.004 1453.08 Q918.198 1455.77 918.198 1460.26 Q918.198 1462.39 917.388 1464.31 Q916.601 1466.2 914.494 1468.8 Q913.916 1469.47 910.814 1472.69 Q907.712 1475.88 902.064 1481.64 Z" fill="#000000" fill-rule="nonzero" fill-opacity="1" /><path clip-path="url(#clip630)" d="M938.198 1454.1 Q934.587 1454.1 932.758 1457.66 Q930.953 1461.2 930.953 1468.33 Q930.953 1475.44 932.758 1479.01 Q934.587 1482.55 938.198 1482.55 Q941.832 1482.55 943.638 1479.01 Q945.466 1475.44 945.466 1468.33 Q945.466 1461.2 943.638 1457.66 Q941.832 1454.1 938.198 1454.1 M938.198 1450.39 Q944.008 1450.39 947.064 1455 Q950.142 1459.58 950.142 1468.33 Q950.142 1477.06 947.064 1481.67 Q944.008 1486.25 938.198 1486.25 Q932.388 1486.25 929.309 1481.67 Q926.254 1477.06 926.254 1468.33 Q926.254 1459.58 929.309 1455 Q932.388 1450.39 938.198 1450.39 Z" fill="#000000" fill-rule="nonzero" fill-opacity="1" /><path clip-path="url(#clip630)" d="M958.36 1479.7 L963.244 1479.7 L963.244 1485.58 L958.36 1485.58 L958.36 1479.7 Z" fill="#000000" fill-rule="nonzero" fill-opacity="1" /><path clip-path="url(#clip630)" d="M983.429 1469.17 Q980.096 1469.17 978.175 1470.95 Q976.276 1472.73 976.276 1475.86 Q976.276 1478.98 978.175 1480.77 Q980.096 1482.55 983.429 1482.55 Q986.762 1482.55 988.684 1480.77 Q990.605 1478.96 990.605 1475.86 Q990.605 1472.73 988.684 1470.95 Q986.786 1469.17 983.429 1469.17 M978.753 1467.18 Q975.744 1466.44 974.054 1464.38 Q972.388 1462.32 972.388 1459.35 Q972.388 1455.21 975.327 1452.8 Q978.29 1450.39 983.429 1450.39 Q988.591 1450.39 991.531 1452.8 Q994.471 1455.21 994.471 1459.35 Q994.471 1462.32 992.781 1464.38 Q991.114 1466.44 988.128 1467.18 Q991.508 1467.96 993.383 1470.26 Q995.281 1472.55 995.281 1475.86 Q995.281 1480.88 992.202 1483.57 Q989.147 1486.25 983.429 1486.25 Q977.712 1486.25 974.633 1483.57 Q971.577 1480.88 971.577 1475.86 Q971.577 1472.55 973.475 1470.26 Q975.374 1467.96 978.753 1467.18 M977.04 1459.79 Q977.04 1462.48 978.707 1463.98 Q980.397 1465.49 983.429 1465.49 Q986.438 1465.49 988.128 1463.98 Q989.841 1462.48 989.841 1459.79 Q989.841 1457.11 988.128 1455.6 Q986.438 1454.1 983.429 1454.1 Q980.397 1454.1 978.707 1455.6 Q977.04 1457.11 977.04 1459.79 Z" fill="#000000" fill-rule="nonzero" fill-opacity="1" /><path clip-path="url(#clip630)" d="M1287.47 1481.64 L1303.79 1481.64 L1303.79 1485.58 L1281.84 1485.58 L1281.84 1481.64 Q1284.51 1478.89 1289.09 1474.26 Q1293.7 1469.61 1294.88 1468.27 Q1297.12 1465.74 1298 1464.01 Q1298.9 1462.25 1298.9 1460.56 Q1298.9 1457.8 1296.96 1456.07 Q1295.04 1454.33 1291.94 1454.33 Q1289.74 1454.33 1287.28 1455.09 Q1284.85 1455.86 1282.07 1457.41 L1282.07 1452.69 Q1284.9 1451.55 1287.35 1450.97 Q1289.81 1450.39 1291.84 1450.39 Q1297.21 1450.39 1300.41 1453.08 Q1303.6 1455.77 1303.6 1460.26 Q1303.6 1462.39 1302.79 1464.31 Q1302.01 1466.2 1299.9 1468.8 Q1299.32 1469.47 1296.22 1472.69 Q1293.12 1475.88 1287.47 1481.64 Z" fill="#000000" fill-rule="nonzero" fill-opacity="1" /><path clip-path="url(#clip630)" d="M1314.41 1481.64 L1322.05 1481.64 L1322.05 1455.28 L1313.74 1456.95 L1313.74 1452.69 L1322.01 1451.02 L1326.68 1451.02 L1326.68 1481.64 L1334.32 1481.64 L1334.32 1485.58 L1314.41 1485.58 L1314.41 1481.64 Z" fill="#000000" fill-rule="nonzero" fill-opacity="1" /><path clip-path="url(#clip630)" d="M1343.76 1479.7 L1348.65 1479.7 L1348.65 1485.58 L1343.76 1485.58 L1343.76 1479.7 Z" fill="#000000" fill-rule="nonzero" fill-opacity="1" /><path clip-path="url(#clip630)" d="M1368.83 1454.1 Q1365.22 1454.1 1363.39 1457.66 Q1361.59 1461.2 1361.59 1468.33 Q1361.59 1475.44 1363.39 1479.01 Q1365.22 1482.55 1368.83 1482.55 Q1372.47 1482.55 1374.27 1479.01 Q1376.1 1475.44 1376.1 1468.33 Q1376.1 1461.2 1374.27 1457.66 Q1372.47 1454.1 1368.83 1454.1 M1368.83 1450.39 Q1374.64 1450.39 1377.7 1455 Q1380.78 1459.58 1380.78 1468.33 Q1380.78 1477.06 1377.7 1481.67 Q1374.64 1486.25 1368.83 1486.25 Q1363.02 1486.25 1359.94 1481.67 Q1356.89 1477.06 1356.89 1468.33 Q1356.89 1459.58 1359.94 1455 Q1363.02 1450.39 1368.83 1450.39 Z" fill="#000000" fill-rule="nonzero" fill-opacity="1" /><path clip-path="url(#clip630)" d="M1673.72 1481.64 L1690.04 1481.64 L1690.04 1485.58 L1668.09 1485.58 L1668.09 1481.64 Q1670.76 1478.89 1675.34 1474.26 Q1679.94 1469.61 1681.13 1468.27 Q1683.37 1465.74 1684.25 1464.01 Q1685.15 1462.25 1685.15 1460.56 Q1685.15 1457.8 1683.21 1456.07 Q1681.29 1454.33 1678.19 1454.33 Q1675.99 1454.33 1673.53 1455.09 Q1671.1 1455.86 1668.32 1457.41 L1668.32 1452.69 Q1671.15 1451.55 1673.6 1450.97 Q1676.06 1450.39 1678.09 1450.39 Q1683.46 1450.39 1686.66 1453.08 Q1689.85 1455.77 1689.85 1460.26 Q1689.85 1462.39 1689.04 1464.31 Q1688.26 1466.2 1686.15 1468.8 Q1685.57 1469.47 1682.47 1472.69 Q1679.37 1475.88 1673.72 1481.64 Z" fill="#000000" fill-rule="nonzero" fill-opacity="1" /><path clip-path="url(#clip630)" d="M1700.66 1481.64 L1708.3 1481.64 L1708.3 1455.28 L1699.99 1456.95 L1699.99 1452.69 L1708.25 1451.02 L1712.93 1451.02 L1712.93 1481.64 L1720.57 1481.64 L1720.57 1485.58 L1700.66 1485.58 L1700.66 1481.64 Z" fill="#000000" fill-rule="nonzero" fill-opacity="1" /><path clip-path="url(#clip630)" d="M1730.01 1479.7 L1734.9 1479.7 L1734.9 1485.58 L1730.01 1485.58 L1730.01 1479.7 Z" fill="#000000" fill-rule="nonzero" fill-opacity="1" /><path clip-path="url(#clip630)" d="M1749.11 1481.64 L1765.43 1481.64 L1765.43 1485.58 L1743.49 1485.58 L1743.49 1481.64 Q1746.15 1478.89 1750.73 1474.26 Q1755.34 1469.61 1756.52 1468.27 Q1758.76 1465.74 1759.64 1464.01 Q1760.55 1462.25 1760.55 1460.56 Q1760.55 1457.8 1758.6 1456.07 Q1756.68 1454.33 1753.58 1454.33 Q1751.38 1454.33 1748.93 1455.09 Q1746.5 1455.86 1743.72 1457.41 L1743.72 1452.69 Q1746.54 1451.55 1749 1450.97 Q1751.45 1450.39 1753.49 1450.39 Q1758.86 1450.39 1762.05 1453.08 Q1765.25 1455.77 1765.25 1460.26 Q1765.25 1462.39 1764.44 1464.31 Q1763.65 1466.2 1761.54 1468.8 Q1760.96 1469.47 1757.86 1472.69 Q1754.76 1475.88 1749.11 1481.64 Z" fill="#000000" fill-rule="nonzero" fill-opacity="1" /><path clip-path="url(#clip630)" d="M2058.13 1481.64 L2074.45 1481.64 L2074.45 1485.58 L2052.5 1485.58 L2052.5 1481.64 Q2055.16 1478.89 2059.75 1474.26 Q2064.35 1469.61 2065.53 1468.27 Q2067.78 1465.74 2068.66 1464.01 Q2069.56 1462.25 2069.56 1460.56 Q2069.56 1457.8 2067.62 1456.07 Q2065.7 1454.33 2062.59 1454.33 Q2060.4 1454.33 2057.94 1455.09 Q2055.51 1455.86 2052.73 1457.41 L2052.73 1452.69 Q2055.56 1451.55 2058.01 1450.97 Q2060.47 1450.39 2062.5 1450.39 Q2067.87 1450.39 2071.07 1453.08 Q2074.26 1455.77 2074.26 1460.26 Q2074.26 1462.39 2073.45 1464.31 Q2072.66 1466.2 2070.56 1468.8 Q2069.98 1469.47 2066.88 1472.69 Q2063.78 1475.88 2058.13 1481.64 Z" fill="#000000" fill-rule="nonzero" fill-opacity="1" /><path clip-path="url(#clip630)" d="M2085.07 1481.64 L2092.71 1481.64 L2092.71 1455.28 L2084.4 1456.95 L2084.4 1452.69 L2092.66 1451.02 L2097.34 1451.02 L2097.34 1481.64 L2104.98 1481.64 L2104.98 1485.58 L2085.07 1485.58 L2085.07 1481.64 Z" fill="#000000" fill-rule="nonzero" fill-opacity="1" /><path clip-path="url(#clip630)" d="M2114.42 1479.7 L2119.31 1479.7 L2119.31 1485.58 L2114.42 1485.58 L2114.42 1479.7 Z" fill="#000000" fill-rule="nonzero" fill-opacity="1" /><path clip-path="url(#clip630)" d="M2142.34 1455.09 L2130.53 1473.54 L2142.34 1473.54 L2142.34 1455.09 M2141.11 1451.02 L2146.99 1451.02 L2146.99 1473.54 L2151.92 1473.54 L2151.92 1477.43 L2146.99 1477.43 L2146.99 1485.58 L2142.34 1485.58 L2142.34 1477.43 L2126.74 1477.43 L2126.74 1472.92 L2141.11 1451.02 Z" fill="#000000" fill-rule="nonzero" fill-opacity="1" /><path clip-path="url(#clip630)" d="M1039.48 1520.52 L1066.78 1520.52 L1066.78 1525.93 L1045.9 1525.93 L1045.9 1539.94 L1064.75 1539.94 L1064.75 1545.35 L1045.9 1545.35 L1045.9 1568.04 L1039.48 1568.04 L1039.48 1520.52 Z" fill="#000000" fill-rule="nonzero" fill-opacity="1" /><path clip-path="url(#clip630)" d="M1092.63 1537.87 Q1091.64 1537.3 1090.46 1537.04 Q1089.32 1536.76 1087.92 1536.76 Q1082.95 1536.76 1080.28 1540 Q1077.64 1543.22 1077.64 1549.27 L1077.64 1568.04 L1071.75 1568.04 L1071.75 1532.4 L1077.64 1532.4 L1077.64 1537.93 Q1079.48 1534.69 1082.44 1533.13 Q1085.4 1531.54 1089.64 1531.54 Q1090.24 1531.54 1090.97 1531.63 Q1091.71 1531.7 1092.6 1531.85 L1092.63 1537.87 Z" fill="#000000" fill-rule="nonzero" fill-opacity="1" /><path clip-path="url(#clip630)" d="M1127.83 1548.76 L1127.83 1551.62 L1100.9 1551.62 Q1101.29 1557.67 1104.53 1560.85 Q1107.81 1564 1113.64 1564 Q1117.01 1564 1120.16 1563.17 Q1123.34 1562.35 1126.46 1560.69 L1126.46 1566.23 Q1123.31 1567.57 1120 1568.27 Q1116.69 1568.97 1113.29 1568.97 Q1104.76 1568.97 1099.76 1564 Q1094.79 1559.04 1094.79 1550.57 Q1094.79 1541.82 1099.5 1536.69 Q1104.25 1531.54 1112.27 1531.54 Q1119.46 1531.54 1123.63 1536.18 Q1127.83 1540.8 1127.83 1548.76 M1121.97 1547.04 Q1121.91 1542.23 1119.27 1539.37 Q1116.66 1536.5 1112.33 1536.5 Q1107.43 1536.5 1104.47 1539.27 Q1101.54 1542.04 1101.1 1547.07 L1121.97 1547.04 Z" fill="#000000" fill-rule="nonzero" fill-opacity="1" /><path clip-path="url(#clip630)" d="M1140.94 1550.25 Q1140.94 1556.71 1143.59 1560.4 Q1146.26 1564.07 1150.91 1564.07 Q1155.55 1564.07 1158.23 1560.4 Q1160.9 1556.71 1160.9 1550.25 Q1160.9 1543.79 1158.23 1540.13 Q1155.55 1536.44 1150.91 1536.44 Q1146.26 1536.44 1143.59 1540.13 Q1140.94 1543.79 1140.94 1550.25 M1160.9 1562.7 Q1159.05 1565.88 1156.22 1567.44 Q1153.42 1568.97 1149.47 1568.97 Q1143.01 1568.97 1138.94 1563.81 Q1134.9 1558.65 1134.9 1550.25 Q1134.9 1541.85 1138.94 1536.69 Q1143.01 1531.54 1149.47 1531.54 Q1153.42 1531.54 1156.22 1533.1 Q1159.05 1534.62 1160.9 1537.81 L1160.9 1532.4 L1166.76 1532.4 L1166.76 1581.6 L1160.9 1581.6 L1160.9 1562.7 Z" fill="#000000" fill-rule="nonzero" fill-opacity="1" /><path clip-path="url(#clip630)" d="M1178.22 1553.98 L1178.22 1532.4 L1184.07 1532.4 L1184.07 1553.75 Q1184.07 1558.81 1186.05 1561.36 Q1188.02 1563.87 1191.97 1563.87 Q1196.71 1563.87 1199.45 1560.85 Q1202.21 1557.83 1202.21 1552.61 L1202.21 1532.4 L1208.07 1532.4 L1208.07 1568.04 L1202.21 1568.04 L1202.21 1562.57 Q1200.08 1565.82 1197.25 1567.41 Q1194.45 1568.97 1190.72 1568.97 Q1184.58 1568.97 1181.4 1565.15 Q1178.22 1561.33 1178.22 1553.98 M1192.95 1531.54 L1192.95 1531.54 Z" fill="#000000" fill-rule="nonzero" fill-opacity="1" /><path clip-path="url(#clip630)" d="M1250.63 1548.76 L1250.63 1551.62 L1223.7 1551.62 Q1224.08 1557.67 1227.33 1560.85 Q1230.61 1564 1236.43 1564 Q1239.8 1564 1242.95 1563.17 Q1246.14 1562.35 1249.26 1560.69 L1249.26 1566.23 Q1246.11 1567.57 1242.8 1568.27 Q1239.49 1568.97 1236.08 1568.97 Q1227.55 1568.97 1222.55 1564 Q1217.59 1559.04 1217.59 1550.57 Q1217.59 1541.82 1222.3 1536.69 Q1227.04 1531.54 1235.06 1531.54 Q1242.25 1531.54 1246.42 1536.18 Q1250.63 1540.8 1250.63 1548.76 M1244.77 1547.04 Q1244.71 1542.23 1242.06 1539.37 Q1239.45 1536.5 1235.13 1536.5 Q1230.22 1536.5 1227.26 1539.27 Q1224.34 1542.04 1223.89 1547.07 L1244.77 1547.04 Z" fill="#000000" fill-rule="nonzero" fill-opacity="1" /><path clip-path="url(#clip630)" d="M1289.87 1546.53 L1289.87 1568.04 L1284.01 1568.04 L1284.01 1546.72 Q1284.01 1541.66 1282.04 1539.14 Q1280.07 1536.63 1276.12 1536.63 Q1271.38 1536.63 1268.64 1539.65 Q1265.9 1542.68 1265.9 1547.9 L1265.9 1568.04 L1260.01 1568.04 L1260.01 1532.4 L1265.9 1532.4 L1265.9 1537.93 Q1268 1534.72 1270.84 1533.13 Q1273.7 1531.54 1277.43 1531.54 Q1283.57 1531.54 1286.72 1535.36 Q1289.87 1539.14 1289.87 1546.53 Z" fill="#000000" fill-rule="nonzero" fill-opacity="1" /><path clip-path="url(#clip630)" d="M1327.2 1533.76 L1327.2 1539.24 Q1324.72 1537.87 1322.21 1537.2 Q1319.73 1536.5 1317.18 1536.5 Q1311.48 1536.5 1308.33 1540.13 Q1305.18 1543.73 1305.18 1550.25 Q1305.18 1556.78 1308.33 1560.4 Q1311.48 1564 1317.18 1564 Q1319.73 1564 1322.21 1563.33 Q1324.72 1562.63 1327.2 1561.26 L1327.2 1566.68 Q1324.75 1567.82 1322.11 1568.39 Q1319.5 1568.97 1316.54 1568.97 Q1308.49 1568.97 1303.75 1563.91 Q1299 1558.85 1299 1550.25 Q1299 1541.53 1303.78 1536.53 Q1308.59 1531.54 1316.92 1531.54 Q1319.63 1531.54 1322.21 1532.11 Q1324.79 1532.65 1327.2 1533.76 Z" fill="#000000" fill-rule="nonzero" fill-opacity="1" /><path clip-path="url(#clip630)" d="M1337.39 1532.4 L1343.25 1532.4 L1343.25 1568.04 L1337.39 1568.04 L1337.39 1532.4 M1337.39 1518.52 L1343.25 1518.52 L1343.25 1525.93 L1337.39 1525.93 L1337.39 1518.52 Z" fill="#000000" fill-rule="nonzero" fill-opacity="1" /><path clip-path="url(#clip630)" d="M1385.99 1548.76 L1385.99 1551.62 L1359.07 1551.62 Q1359.45 1557.67 1362.69 1560.85 Q1365.97 1564 1371.8 1564 Q1375.17 1564 1378.32 1563.17 Q1381.5 1562.35 1384.62 1560.69 L1384.62 1566.23 Q1381.47 1567.57 1378.16 1568.27 Q1374.85 1568.97 1371.45 1568.97 Q1362.92 1568.97 1357.92 1564 Q1352.95 1559.04 1352.95 1550.57 Q1352.95 1541.82 1357.66 1536.69 Q1362.41 1531.54 1370.43 1531.54 Q1377.62 1531.54 1381.79 1536.18 Q1385.99 1540.8 1385.99 1548.76 M1380.14 1547.04 Q1380.07 1542.23 1377.43 1539.37 Q1374.82 1536.5 1370.49 1536.5 Q1365.59 1536.5 1362.63 1539.27 Q1359.7 1542.04 1359.26 1547.07 L1380.14 1547.04 Z" fill="#000000" fill-rule="nonzero" fill-opacity="1" /><path clip-path="url(#clip630)" d="M1418.33 1533.45 L1418.33 1538.98 Q1415.85 1537.71 1413.17 1537.07 Q1410.5 1536.44 1407.64 1536.44 Q1403.28 1536.44 1401.08 1537.77 Q1398.91 1539.11 1398.91 1541.79 Q1398.91 1543.82 1400.47 1545 Q1402.03 1546.15 1406.74 1547.2 L1408.75 1547.64 Q1414.99 1548.98 1417.6 1551.43 Q1420.24 1553.85 1420.24 1558.21 Q1420.24 1563.17 1416.29 1566.07 Q1412.38 1568.97 1405.5 1568.97 Q1402.64 1568.97 1399.52 1568.39 Q1396.43 1567.85 1392.99 1566.74 L1392.99 1560.69 Q1396.24 1562.38 1399.39 1563.24 Q1402.54 1564.07 1405.63 1564.07 Q1409.77 1564.07 1412 1562.66 Q1414.22 1561.23 1414.22 1558.65 Q1414.22 1556.27 1412.6 1554.99 Q1411.01 1553.72 1405.57 1552.54 L1403.53 1552.07 Q1398.09 1550.92 1395.67 1548.56 Q1393.25 1546.18 1393.25 1542.04 Q1393.25 1537.01 1396.81 1534.27 Q1400.38 1531.54 1406.94 1531.54 Q1410.18 1531.54 1413.05 1532.01 Q1415.91 1532.49 1418.33 1533.45 Z" fill="#000000" fill-rule="nonzero" fill-opacity="1" /><path clip-path="url(#clip630)" d="M1449.74 1518.52 L1463.24 1518.52 L1463.24 1523.07 L1455.6 1523.07 L1455.6 1572.09 L1463.24 1572.09 L1463.24 1576.64 L1449.74 1576.64 L1449.74 1518.52 Z" fill="#000000" fill-rule="nonzero" fill-opacity="1" /><path clip-path="url(#clip630)" d="M1508.37 1561.26 L1508.37 1548.5 L1497.87 1548.5 L1497.87 1543.22 L1514.74 1543.22 L1514.74 1563.62 Q1511.01 1566.26 1506.53 1567.63 Q1502.04 1568.97 1496.95 1568.97 Q1485.81 1568.97 1479.5 1562.47 Q1473.23 1555.95 1473.23 1544.33 Q1473.23 1532.68 1479.5 1526.19 Q1485.81 1519.66 1496.95 1519.66 Q1501.59 1519.66 1505.76 1520.81 Q1509.96 1521.96 1513.5 1524.18 L1513.5 1531.03 Q1509.93 1528 1505.92 1526.48 Q1501.91 1524.95 1497.49 1524.95 Q1488.77 1524.95 1484.37 1529.82 Q1480.01 1534.69 1480.01 1544.33 Q1480.01 1553.94 1484.37 1558.81 Q1488.77 1563.68 1497.49 1563.68 Q1500.89 1563.68 1503.57 1563.11 Q1506.24 1562.51 1508.37 1561.26 Z" fill="#000000" fill-rule="nonzero" fill-opacity="1" /><path clip-path="url(#clip630)" d="M1526.48 1520.52 L1532.91 1520.52 L1532.91 1540 L1556.27 1540 L1556.27 1520.52 L1562.7 1520.52 L1562.7 1568.04 L1556.27 1568.04 L1556.27 1545.41 L1532.91 1545.41 L1532.91 1568.04 L1526.48 1568.04 L1526.48 1520.52 Z" fill="#000000" fill-rule="nonzero" fill-opacity="1" /><path clip-path="url(#clip630)" d="M1572.7 1532.4 L1600.52 1532.4 L1600.52 1537.74 L1578.49 1563.37 L1600.52 1563.37 L1600.52 1568.04 L1571.9 1568.04 L1571.9 1562.7 L1593.93 1537.07 L1572.7 1537.07 L1572.7 1532.4 Z" fill="#000000" fill-rule="nonzero" fill-opacity="1" /><path clip-path="url(#clip630)" d="M1623.15 1518.52 L1623.15 1576.64 L1609.65 1576.64 L1609.65 1572.09 L1617.26 1572.09 L1617.26 1523.07 L1609.65 1523.07 L1609.65 1518.52 L1623.15 1518.52 Z" fill="#000000" fill-rule="nonzero" fill-opacity="1" /><polyline clip-path="url(#clip630)" style="stroke:#000000; stroke-linecap:round; stroke-linejoin:round; stroke-width:4; stroke-opacity:1; fill:none" points="309.866,1423.18 309.866,47.2441 "/>
<polyline clip-path="url(#clip630)" style="stroke:#000000; stroke-linecap:round; stroke-linejoin:round; stroke-width:4; stroke-opacity:1; fill:none" points="309.866,1289.53 328.763,1289.53 "/>
<polyline clip-path="url(#clip630)" style="stroke:#000000; stroke-linecap:round; stroke-linejoin:round; stroke-width:4; stroke-opacity:1; fill:none" points="309.866,1082.01 328.763,1082.01 "/>
<polyline clip-path="url(#clip630)" style="stroke:#000000; stroke-linecap:round; stroke-linejoin:round; stroke-width:4; stroke-opacity:1; fill:none" points="309.866,874.479 328.763,874.479 "/>
<polyline clip-path="url(#clip630)" style="stroke:#000000; stroke-linecap:round; stroke-linejoin:round; stroke-width:4; stroke-opacity:1; fill:none" points="309.866,666.951 328.763,666.951 "/>
<polyline clip-path="url(#clip630)" style="stroke:#000000; stroke-linecap:round; stroke-linejoin:round; stroke-width:4; stroke-opacity:1; fill:none" points="309.866,459.424 328.763,459.424 "/>
<polyline clip-path="url(#clip630)" style="stroke:#000000; stroke-linecap:round; stroke-linejoin:round; stroke-width:4; stroke-opacity:1; fill:none" points="309.866,251.896 328.763,251.896 "/>
<path clip-path="url(#clip630)" d="M126.205 1275.33 Q122.593 1275.33 120.765 1278.9 Q118.959 1282.44 118.959 1289.57 Q118.959 1296.68 120.765 1300.24 Q122.593 1303.78 126.205 1303.78 Q129.839 1303.78 131.644 1300.24 Q133.473 1296.68 133.473 1289.57 Q133.473 1282.44 131.644 1278.9 Q129.839 1275.33 126.205 1275.33 M126.205 1271.63 Q132.015 1271.63 135.07 1276.24 Q138.149 1280.82 138.149 1289.57 Q138.149 1298.3 135.07 1302.9 Q132.015 1307.49 126.205 1307.49 Q120.394 1307.49 117.316 1302.9 Q114.26 1298.3 114.26 1289.57 Q114.26 1280.82 117.316 1276.24 Q120.394 1271.63 126.205 1271.63 Z" fill="#000000" fill-rule="nonzero" fill-opacity="1" /><path clip-path="url(#clip630)" d="M146.366 1300.93 L151.251 1300.93 L151.251 1306.81 L146.366 1306.81 L146.366 1300.93 Z" fill="#000000" fill-rule="nonzero" fill-opacity="1" /><path clip-path="url(#clip630)" d="M161.575 1306.1 L161.575 1301.84 Q163.334 1302.67 165.14 1303.11 Q166.945 1303.55 168.681 1303.55 Q173.311 1303.55 175.741 1300.45 Q178.195 1297.32 178.542 1290.98 Q177.2 1292.97 175.139 1294.04 Q173.079 1295.1 170.579 1295.1 Q165.394 1295.1 162.362 1291.98 Q159.353 1288.83 159.353 1283.39 Q159.353 1278.06 162.501 1274.85 Q165.649 1271.63 170.88 1271.63 Q176.876 1271.63 180.024 1276.24 Q183.195 1280.82 183.195 1289.57 Q183.195 1297.74 179.306 1302.62 Q175.44 1307.49 168.889 1307.49 Q167.13 1307.49 165.325 1307.14 Q163.519 1306.79 161.575 1306.1 M170.88 1291.44 Q174.028 1291.44 175.857 1289.29 Q177.709 1287.14 177.709 1283.39 Q177.709 1279.66 175.857 1277.51 Q174.028 1275.33 170.88 1275.33 Q167.732 1275.33 165.88 1277.51 Q164.052 1279.66 164.052 1283.39 Q164.052 1287.14 165.88 1289.29 Q167.732 1291.44 170.88 1291.44 Z" fill="#000000" fill-rule="nonzero" fill-opacity="1" /><path clip-path="url(#clip630)" d="M191.737 1306.1 L191.737 1301.84 Q193.496 1302.67 195.301 1303.11 Q197.107 1303.55 198.843 1303.55 Q203.473 1303.55 205.903 1300.45 Q208.357 1297.32 208.704 1290.98 Q207.362 1292.97 205.301 1294.04 Q203.241 1295.1 200.741 1295.1 Q195.556 1295.1 192.524 1291.98 Q189.514 1288.83 189.514 1283.39 Q189.514 1278.06 192.663 1274.85 Q195.811 1271.63 201.042 1271.63 Q207.037 1271.63 210.186 1276.24 Q213.357 1280.82 213.357 1289.57 Q213.357 1297.74 209.468 1302.62 Q205.602 1307.49 199.051 1307.49 Q197.292 1307.49 195.487 1307.14 Q193.681 1306.79 191.737 1306.1 M201.042 1291.44 Q204.19 1291.44 206.019 1289.29 Q207.871 1287.14 207.871 1283.39 Q207.871 1279.66 206.019 1277.51 Q204.19 1275.33 201.042 1275.33 Q197.894 1275.33 196.042 1277.51 Q194.213 1279.66 194.213 1283.39 Q194.213 1287.14 196.042 1289.29 Q197.894 1291.44 201.042 1291.44 Z" fill="#000000" fill-rule="nonzero" fill-opacity="1" /><path clip-path="url(#clip630)" d="M220.579 1272.25 L242.801 1272.25 L242.801 1274.25 L230.255 1306.81 L225.371 1306.81 L237.176 1276.19 L220.579 1276.19 L220.579 1272.25 Z" fill="#000000" fill-rule="nonzero" fill-opacity="1" /><path clip-path="url(#clip630)" d="M261.921 1275.33 Q258.31 1275.33 256.482 1278.9 Q254.676 1282.44 254.676 1289.57 Q254.676 1296.68 256.482 1300.24 Q258.31 1303.78 261.921 1303.78 Q265.556 1303.78 267.361 1300.24 Q269.19 1296.68 269.19 1289.57 Q269.19 1282.44 267.361 1278.9 Q265.556 1275.33 261.921 1275.33 M261.921 1271.63 Q267.732 1271.63 270.787 1276.24 Q273.866 1280.82 273.866 1289.57 Q273.866 1298.3 270.787 1302.9 Q267.732 1307.49 261.921 1307.49 Q256.111 1307.49 253.033 1302.9 Q249.977 1298.3 249.977 1289.57 Q249.977 1280.82 253.033 1276.24 Q256.111 1271.63 261.921 1271.63 Z" fill="#000000" fill-rule="nonzero" fill-opacity="1" /><path clip-path="url(#clip630)" d="M127.2 1067.81 Q123.589 1067.81 121.76 1071.37 Q119.955 1074.91 119.955 1082.04 Q119.955 1089.15 121.76 1092.71 Q123.589 1096.25 127.2 1096.25 Q130.834 1096.25 132.64 1092.71 Q134.468 1089.15 134.468 1082.04 Q134.468 1074.91 132.64 1071.37 Q130.834 1067.81 127.2 1067.81 M127.2 1064.1 Q133.01 1064.1 136.066 1068.71 Q139.144 1073.29 139.144 1082.04 Q139.144 1090.77 136.066 1095.37 Q133.01 1099.96 127.2 1099.96 Q121.39 1099.96 118.311 1095.37 Q115.256 1090.77 115.256 1082.04 Q115.256 1073.29 118.311 1068.71 Q121.39 1064.1 127.2 1064.1 Z" fill="#000000" fill-rule="nonzero" fill-opacity="1" /><path clip-path="url(#clip630)" d="M147.362 1093.41 L152.246 1093.41 L152.246 1099.29 L147.362 1099.29 L147.362 1093.41 Z" fill="#000000" fill-rule="nonzero" fill-opacity="1" /><path clip-path="url(#clip630)" d="M162.57 1098.57 L162.57 1094.31 Q164.329 1095.14 166.135 1095.58 Q167.94 1096.02 169.677 1096.02 Q174.306 1096.02 176.737 1092.92 Q179.19 1089.8 179.538 1083.45 Q178.195 1085.44 176.135 1086.51 Q174.075 1087.57 171.575 1087.57 Q166.39 1087.57 163.357 1084.45 Q160.348 1081.3 160.348 1075.86 Q160.348 1070.54 163.496 1067.32 Q166.644 1064.1 171.876 1064.1 Q177.871 1064.1 181.019 1068.71 Q184.19 1073.29 184.19 1082.04 Q184.19 1090.21 180.301 1095.1 Q176.436 1099.96 169.885 1099.96 Q168.126 1099.96 166.32 1099.61 Q164.515 1099.26 162.57 1098.57 M171.876 1083.92 Q175.024 1083.92 176.852 1081.76 Q178.704 1079.61 178.704 1075.86 Q178.704 1072.13 176.852 1069.98 Q175.024 1067.81 171.876 1067.81 Q168.727 1067.81 166.876 1069.98 Q165.047 1072.13 165.047 1075.86 Q165.047 1079.61 166.876 1081.76 Q168.727 1083.92 171.876 1083.92 Z" fill="#000000" fill-rule="nonzero" fill-opacity="1" /><path clip-path="url(#clip630)" d="M192.732 1098.57 L192.732 1094.31 Q194.491 1095.14 196.297 1095.58 Q198.102 1096.02 199.838 1096.02 Q204.468 1096.02 206.899 1092.92 Q209.352 1089.8 209.699 1083.45 Q208.357 1085.44 206.297 1086.51 Q204.237 1087.57 201.737 1087.57 Q196.551 1087.57 193.519 1084.45 Q190.51 1081.3 190.51 1075.86 Q190.51 1070.54 193.658 1067.32 Q196.806 1064.1 202.037 1064.1 Q208.033 1064.1 211.181 1068.71 Q214.352 1073.29 214.352 1082.04 Q214.352 1090.21 210.463 1095.1 Q206.598 1099.96 200.047 1099.96 Q198.287 1099.96 196.482 1099.61 Q194.676 1099.26 192.732 1098.57 M202.037 1083.92 Q205.186 1083.92 207.014 1081.76 Q208.866 1079.61 208.866 1075.86 Q208.866 1072.13 207.014 1069.98 Q205.186 1067.81 202.037 1067.81 Q198.889 1067.81 197.037 1069.98 Q195.209 1072.13 195.209 1075.86 Q195.209 1079.61 197.037 1081.76 Q198.889 1083.92 202.037 1083.92 Z" fill="#000000" fill-rule="nonzero" fill-opacity="1" /><path clip-path="url(#clip630)" d="M221.574 1064.73 L243.797 1064.73 L243.797 1066.72 L231.25 1099.29 L226.366 1099.29 L238.172 1068.66 L221.574 1068.66 L221.574 1064.73 Z" fill="#000000" fill-rule="nonzero" fill-opacity="1" /><path clip-path="url(#clip630)" d="M252.963 1064.73 L271.32 1064.73 L271.32 1068.66 L257.246 1068.66 L257.246 1077.13 Q258.264 1076.79 259.283 1076.62 Q260.301 1076.44 261.32 1076.44 Q267.107 1076.44 270.486 1079.61 Q273.866 1082.78 273.866 1088.2 Q273.866 1093.78 270.394 1096.88 Q266.921 1099.96 260.602 1099.96 Q258.426 1099.96 256.158 1099.59 Q253.912 1099.22 251.505 1098.48 L251.505 1093.78 Q253.588 1094.91 255.81 1095.47 Q258.033 1096.02 260.509 1096.02 Q264.514 1096.02 266.852 1093.92 Q269.19 1091.81 269.19 1088.2 Q269.19 1084.59 266.852 1082.48 Q264.514 1080.37 260.509 1080.37 Q258.634 1080.37 256.759 1080.79 Q254.908 1081.21 252.963 1082.09 L252.963 1064.73 Z" fill="#000000" fill-rule="nonzero" fill-opacity="1" /><path clip-path="url(#clip630)" d="M126.205 860.278 Q122.593 860.278 120.765 863.843 Q118.959 867.384 118.959 874.514 Q118.959 881.62 120.765 885.185 Q122.593 888.727 126.205 888.727 Q129.839 888.727 131.644 885.185 Q133.473 881.62 133.473 874.514 Q133.473 867.384 131.644 863.843 Q129.839 860.278 126.205 860.278 M126.205 856.574 Q132.015 856.574 135.07 861.181 Q138.149 865.764 138.149 874.514 Q138.149 883.241 135.07 887.847 Q132.015 892.43 126.205 892.43 Q120.394 892.43 117.316 887.847 Q114.26 883.241 114.26 874.514 Q114.26 865.764 117.316 861.181 Q120.394 856.574 126.205 856.574 Z" fill="#000000" fill-rule="nonzero" fill-opacity="1" /><path clip-path="url(#clip630)" d="M146.366 885.879 L151.251 885.879 L151.251 891.759 L146.366 891.759 L146.366 885.879 Z" fill="#000000" fill-rule="nonzero" fill-opacity="1" /><path clip-path="url(#clip630)" d="M161.575 891.042 L161.575 886.782 Q163.334 887.616 165.14 888.055 Q166.945 888.495 168.681 888.495 Q173.311 888.495 175.741 885.393 Q178.195 882.268 178.542 875.926 Q177.2 877.917 175.139 878.981 Q173.079 880.046 170.579 880.046 Q165.394 880.046 162.362 876.921 Q159.353 873.773 159.353 868.333 Q159.353 863.009 162.501 859.792 Q165.649 856.574 170.88 856.574 Q176.876 856.574 180.024 861.181 Q183.195 865.764 183.195 874.514 Q183.195 882.685 179.306 887.569 Q175.44 892.43 168.889 892.43 Q167.13 892.43 165.325 892.083 Q163.519 891.736 161.575 891.042 M170.88 876.389 Q174.028 876.389 175.857 874.236 Q177.709 872.083 177.709 868.333 Q177.709 864.606 175.857 862.454 Q174.028 860.278 170.88 860.278 Q167.732 860.278 165.88 862.454 Q164.052 864.606 164.052 868.333 Q164.052 872.083 165.88 874.236 Q167.732 876.389 170.88 876.389 Z" fill="#000000" fill-rule="nonzero" fill-opacity="1" /><path clip-path="url(#clip630)" d="M191.737 891.042 L191.737 886.782 Q193.496 887.616 195.301 888.055 Q197.107 888.495 198.843 888.495 Q203.473 888.495 205.903 885.393 Q208.357 882.268 208.704 875.926 Q207.362 877.917 205.301 878.981 Q203.241 880.046 200.741 880.046 Q195.556 880.046 192.524 876.921 Q189.514 873.773 189.514 868.333 Q189.514 863.009 192.663 859.792 Q195.811 856.574 201.042 856.574 Q207.037 856.574 210.186 861.181 Q213.357 865.764 213.357 874.514 Q213.357 882.685 209.468 887.569 Q205.602 892.43 199.051 892.43 Q197.292 892.43 195.487 892.083 Q193.681 891.736 191.737 891.042 M201.042 876.389 Q204.19 876.389 206.019 874.236 Q207.871 872.083 207.871 868.333 Q207.871 864.606 206.019 862.454 Q204.19 860.278 201.042 860.278 Q197.894 860.278 196.042 862.454 Q194.213 864.606 194.213 868.333 Q194.213 872.083 196.042 874.236 Q197.894 876.389 201.042 876.389 Z" fill="#000000" fill-rule="nonzero" fill-opacity="1" /><path clip-path="url(#clip630)" d="M231.76 875.347 Q228.426 875.347 226.505 877.13 Q224.607 878.912 224.607 882.037 Q224.607 885.162 226.505 886.944 Q228.426 888.727 231.76 888.727 Q235.093 888.727 237.014 886.944 Q238.935 885.139 238.935 882.037 Q238.935 878.912 237.014 877.13 Q235.116 875.347 231.76 875.347 M227.084 873.356 Q224.074 872.616 222.385 870.556 Q220.718 868.495 220.718 865.532 Q220.718 861.389 223.658 858.981 Q226.621 856.574 231.76 856.574 Q236.922 856.574 239.861 858.981 Q242.801 861.389 242.801 865.532 Q242.801 868.495 241.111 870.556 Q239.445 872.616 236.459 873.356 Q239.838 874.143 241.713 876.435 Q243.611 878.727 243.611 882.037 Q243.611 887.06 240.533 889.745 Q237.477 892.43 231.76 892.43 Q226.042 892.43 222.963 889.745 Q219.908 887.06 219.908 882.037 Q219.908 878.727 221.806 876.435 Q223.704 874.143 227.084 873.356 M225.371 865.972 Q225.371 868.657 227.037 870.162 Q228.727 871.667 231.76 871.667 Q234.769 871.667 236.459 870.162 Q238.172 868.657 238.172 865.972 Q238.172 863.287 236.459 861.782 Q234.769 860.278 231.76 860.278 Q228.727 860.278 227.037 861.782 Q225.371 863.287 225.371 865.972 Z" fill="#000000" fill-rule="nonzero" fill-opacity="1" /><path clip-path="url(#clip630)" d="M261.921 860.278 Q258.31 860.278 256.482 863.843 Q254.676 867.384 254.676 874.514 Q254.676 881.62 256.482 885.185 Q258.31 888.727 261.921 888.727 Q265.556 888.727 267.361 885.185 Q269.19 881.62 269.19 874.514 Q269.19 867.384 267.361 863.843 Q265.556 860.278 261.921 860.278 M261.921 856.574 Q267.732 856.574 270.787 861.181 Q273.866 865.764 273.866 874.514 Q273.866 883.241 270.787 887.847 Q267.732 892.43 261.921 892.43 Q256.111 892.43 253.033 887.847 Q249.977 883.241 249.977 874.514 Q249.977 865.764 253.033 861.181 Q256.111 856.574 261.921 856.574 Z" fill="#000000" fill-rule="nonzero" fill-opacity="1" /><path clip-path="url(#clip630)" d="M127.2 652.75 Q123.589 652.75 121.76 656.315 Q119.955 659.857 119.955 666.986 Q119.955 674.093 121.76 677.657 Q123.589 681.199 127.2 681.199 Q130.834 681.199 132.64 677.657 Q134.468 674.093 134.468 666.986 Q134.468 659.857 132.64 656.315 Q130.834 652.75 127.2 652.75 M127.2 649.046 Q133.01 649.046 136.066 653.653 Q139.144 658.236 139.144 666.986 Q139.144 675.713 136.066 680.319 Q133.01 684.903 127.2 684.903 Q121.39 684.903 118.311 680.319 Q115.256 675.713 115.256 666.986 Q115.256 658.236 118.311 653.653 Q121.39 649.046 127.2 649.046 Z" fill="#000000" fill-rule="nonzero" fill-opacity="1" /><path clip-path="url(#clip630)" d="M147.362 678.352 L152.246 678.352 L152.246 684.231 L147.362 684.231 L147.362 678.352 Z" fill="#000000" fill-rule="nonzero" fill-opacity="1" /><path clip-path="url(#clip630)" d="M162.57 683.514 L162.57 679.255 Q164.329 680.088 166.135 680.528 Q167.94 680.968 169.677 680.968 Q174.306 680.968 176.737 677.866 Q179.19 674.741 179.538 668.398 Q178.195 670.389 176.135 671.454 Q174.075 672.518 171.575 672.518 Q166.39 672.518 163.357 669.393 Q160.348 666.245 160.348 660.806 Q160.348 655.482 163.496 652.264 Q166.644 649.046 171.876 649.046 Q177.871 649.046 181.019 653.653 Q184.19 658.236 184.19 666.986 Q184.19 675.157 180.301 680.042 Q176.436 684.903 169.885 684.903 Q168.126 684.903 166.32 684.555 Q164.515 684.208 162.57 683.514 M171.876 668.861 Q175.024 668.861 176.852 666.708 Q178.704 664.556 178.704 660.806 Q178.704 657.079 176.852 654.926 Q175.024 652.75 171.876 652.75 Q168.727 652.75 166.876 654.926 Q165.047 657.079 165.047 660.806 Q165.047 664.556 166.876 666.708 Q168.727 668.861 171.876 668.861 Z" fill="#000000" fill-rule="nonzero" fill-opacity="1" /><path clip-path="url(#clip630)" d="M192.732 683.514 L192.732 679.255 Q194.491 680.088 196.297 680.528 Q198.102 680.968 199.838 680.968 Q204.468 680.968 206.899 677.866 Q209.352 674.741 209.699 668.398 Q208.357 670.389 206.297 671.454 Q204.237 672.518 201.737 672.518 Q196.551 672.518 193.519 669.393 Q190.51 666.245 190.51 660.806 Q190.51 655.482 193.658 652.264 Q196.806 649.046 202.037 649.046 Q208.033 649.046 211.181 653.653 Q214.352 658.236 214.352 666.986 Q214.352 675.157 210.463 680.042 Q206.598 684.903 200.047 684.903 Q198.287 684.903 196.482 684.555 Q194.676 684.208 192.732 683.514 M202.037 668.861 Q205.186 668.861 207.014 666.708 Q208.866 664.556 208.866 660.806 Q208.866 657.079 207.014 654.926 Q205.186 652.75 202.037 652.75 Q198.889 652.75 197.037 654.926 Q195.209 657.079 195.209 660.806 Q195.209 664.556 197.037 666.708 Q198.889 668.861 202.037 668.861 Z" fill="#000000" fill-rule="nonzero" fill-opacity="1" /><path clip-path="url(#clip630)" d="M232.755 667.819 Q229.422 667.819 227.5 669.602 Q225.602 671.384 225.602 674.509 Q225.602 677.634 227.5 679.417 Q229.422 681.199 232.755 681.199 Q236.088 681.199 238.009 679.417 Q239.931 677.611 239.931 674.509 Q239.931 671.384 238.009 669.602 Q236.111 667.819 232.755 667.819 M228.079 665.829 Q225.07 665.088 223.38 663.028 Q221.713 660.968 221.713 658.005 Q221.713 653.861 224.653 651.454 Q227.616 649.046 232.755 649.046 Q237.917 649.046 240.857 651.454 Q243.797 653.861 243.797 658.005 Q243.797 660.968 242.107 663.028 Q240.44 665.088 237.454 665.829 Q240.834 666.616 242.709 668.907 Q244.607 671.199 244.607 674.509 Q244.607 679.532 241.528 682.217 Q238.472 684.903 232.755 684.903 Q227.037 684.903 223.959 682.217 Q220.903 679.532 220.903 674.509 Q220.903 671.199 222.801 668.907 Q224.699 666.616 228.079 665.829 M226.366 658.444 Q226.366 661.13 228.033 662.634 Q229.723 664.139 232.755 664.139 Q235.764 664.139 237.454 662.634 Q239.167 661.13 239.167 658.444 Q239.167 655.759 237.454 654.255 Q235.764 652.75 232.755 652.75 Q229.723 652.75 228.033 654.255 Q226.366 655.759 226.366 658.444 Z" fill="#000000" fill-rule="nonzero" fill-opacity="1" /><path clip-path="url(#clip630)" d="M252.963 649.671 L271.32 649.671 L271.32 653.607 L257.246 653.607 L257.246 662.079 Q258.264 661.731 259.283 661.569 Q260.301 661.384 261.32 661.384 Q267.107 661.384 270.486 664.556 Q273.866 667.727 273.866 673.143 Q273.866 678.722 270.394 681.824 Q266.921 684.903 260.602 684.903 Q258.426 684.903 256.158 684.532 Q253.912 684.162 251.505 683.421 L251.505 678.722 Q253.588 679.856 255.81 680.412 Q258.033 680.968 260.509 680.968 Q264.514 680.968 266.852 678.861 Q269.19 676.755 269.19 673.143 Q269.19 669.532 266.852 667.426 Q264.514 665.319 260.509 665.319 Q258.634 665.319 256.759 665.736 Q254.908 666.153 252.963 667.032 L252.963 649.671 Z" fill="#000000" fill-rule="nonzero" fill-opacity="1" /><path clip-path="url(#clip630)" d="M126.205 445.222 Q122.593 445.222 120.765 448.787 Q118.959 452.329 118.959 459.458 Q118.959 466.565 120.765 470.13 Q122.593 473.671 126.205 473.671 Q129.839 473.671 131.644 470.13 Q133.473 466.565 133.473 459.458 Q133.473 452.329 131.644 448.787 Q129.839 445.222 126.205 445.222 M126.205 441.519 Q132.015 441.519 135.07 446.125 Q138.149 450.708 138.149 459.458 Q138.149 468.185 135.07 472.792 Q132.015 477.375 126.205 477.375 Q120.394 477.375 117.316 472.792 Q114.26 468.185 114.26 459.458 Q114.26 450.708 117.316 446.125 Q120.394 441.519 126.205 441.519 Z" fill="#000000" fill-rule="nonzero" fill-opacity="1" /><path clip-path="url(#clip630)" d="M146.366 470.824 L151.251 470.824 L151.251 476.704 L146.366 476.704 L146.366 470.824 Z" fill="#000000" fill-rule="nonzero" fill-opacity="1" /><path clip-path="url(#clip630)" d="M161.575 475.986 L161.575 471.727 Q163.334 472.56 165.14 473 Q166.945 473.44 168.681 473.44 Q173.311 473.44 175.741 470.338 Q178.195 467.213 178.542 460.87 Q177.2 462.861 175.139 463.926 Q173.079 464.991 170.579 464.991 Q165.394 464.991 162.362 461.866 Q159.353 458.718 159.353 453.278 Q159.353 447.954 162.501 444.736 Q165.649 441.519 170.88 441.519 Q176.876 441.519 180.024 446.125 Q183.195 450.708 183.195 459.458 Q183.195 467.63 179.306 472.514 Q175.44 477.375 168.889 477.375 Q167.13 477.375 165.325 477.028 Q163.519 476.681 161.575 475.986 M170.88 461.333 Q174.028 461.333 175.857 459.181 Q177.709 457.028 177.709 453.278 Q177.709 449.551 175.857 447.398 Q174.028 445.222 170.88 445.222 Q167.732 445.222 165.88 447.398 Q164.052 449.551 164.052 453.278 Q164.052 457.028 165.88 459.181 Q167.732 461.333 170.88 461.333 Z" fill="#000000" fill-rule="nonzero" fill-opacity="1" /><path clip-path="url(#clip630)" d="M191.737 475.986 L191.737 471.727 Q193.496 472.56 195.301 473 Q197.107 473.44 198.843 473.44 Q203.473 473.44 205.903 470.338 Q208.357 467.213 208.704 460.87 Q207.362 462.861 205.301 463.926 Q203.241 464.991 200.741 464.991 Q195.556 464.991 192.524 461.866 Q189.514 458.718 189.514 453.278 Q189.514 447.954 192.663 444.736 Q195.811 441.519 201.042 441.519 Q207.037 441.519 210.186 446.125 Q213.357 450.708 213.357 459.458 Q213.357 467.63 209.468 472.514 Q205.602 477.375 199.051 477.375 Q197.292 477.375 195.487 477.028 Q193.681 476.681 191.737 475.986 M201.042 461.333 Q204.19 461.333 206.019 459.181 Q207.871 457.028 207.871 453.278 Q207.871 449.551 206.019 447.398 Q204.19 445.222 201.042 445.222 Q197.894 445.222 196.042 447.398 Q194.213 449.551 194.213 453.278 Q194.213 457.028 196.042 459.181 Q197.894 461.333 201.042 461.333 Z" fill="#000000" fill-rule="nonzero" fill-opacity="1" /><path clip-path="url(#clip630)" d="M221.898 475.986 L221.898 471.727 Q223.658 472.56 225.463 473 Q227.269 473.44 229.005 473.44 Q233.635 473.44 236.065 470.338 Q238.519 467.213 238.866 460.87 Q237.523 462.861 235.463 463.926 Q233.403 464.991 230.903 464.991 Q225.718 464.991 222.686 461.866 Q219.676 458.718 219.676 453.278 Q219.676 447.954 222.824 444.736 Q225.973 441.519 231.204 441.519 Q237.199 441.519 240.347 446.125 Q243.519 450.708 243.519 459.458 Q243.519 467.63 239.63 472.514 Q235.764 477.375 229.213 477.375 Q227.454 477.375 225.648 477.028 Q223.843 476.681 221.898 475.986 M231.204 461.333 Q234.352 461.333 236.181 459.181 Q238.033 457.028 238.033 453.278 Q238.033 449.551 236.181 447.398 Q234.352 445.222 231.204 445.222 Q228.056 445.222 226.204 447.398 Q224.375 449.551 224.375 453.278 Q224.375 457.028 226.204 459.181 Q228.056 461.333 231.204 461.333 Z" fill="#000000" fill-rule="nonzero" fill-opacity="1" /><path clip-path="url(#clip630)" d="M261.921 445.222 Q258.31 445.222 256.482 448.787 Q254.676 452.329 254.676 459.458 Q254.676 466.565 256.482 470.13 Q258.31 473.671 261.921 473.671 Q265.556 473.671 267.361 470.13 Q269.19 466.565 269.19 459.458 Q269.19 452.329 267.361 448.787 Q265.556 445.222 261.921 445.222 M261.921 441.519 Q267.732 441.519 270.787 446.125 Q273.866 450.708 273.866 459.458 Q273.866 468.185 270.787 472.792 Q267.732 477.375 261.921 477.375 Q256.111 477.375 253.033 472.792 Q249.977 468.185 249.977 459.458 Q249.977 450.708 253.033 446.125 Q256.111 441.519 261.921 441.519 Z" fill="#000000" fill-rule="nonzero" fill-opacity="1" /><path clip-path="url(#clip630)" d="M127.2 237.695 Q123.589 237.695 121.76 241.259 Q119.955 244.801 119.955 251.931 Q119.955 259.037 121.76 262.602 Q123.589 266.144 127.2 266.144 Q130.834 266.144 132.64 262.602 Q134.468 259.037 134.468 251.931 Q134.468 244.801 132.64 241.259 Q130.834 237.695 127.2 237.695 M127.2 233.991 Q133.01 233.991 136.066 238.597 Q139.144 243.181 139.144 251.931 Q139.144 260.657 136.066 265.264 Q133.01 269.847 127.2 269.847 Q121.39 269.847 118.311 265.264 Q115.256 260.657 115.256 251.931 Q115.256 243.181 118.311 238.597 Q121.39 233.991 127.2 233.991 Z" fill="#000000" fill-rule="nonzero" fill-opacity="1" /><path clip-path="url(#clip630)" d="M147.362 263.296 L152.246 263.296 L152.246 269.176 L147.362 269.176 L147.362 263.296 Z" fill="#000000" fill-rule="nonzero" fill-opacity="1" /><path clip-path="url(#clip630)" d="M162.57 268.458 L162.57 264.199 Q164.329 265.032 166.135 265.472 Q167.94 265.912 169.677 265.912 Q174.306 265.912 176.737 262.81 Q179.19 259.685 179.538 253.343 Q178.195 255.333 176.135 256.398 Q174.075 257.463 171.575 257.463 Q166.39 257.463 163.357 254.338 Q160.348 251.19 160.348 245.75 Q160.348 240.426 163.496 237.209 Q166.644 233.991 171.876 233.991 Q177.871 233.991 181.019 238.597 Q184.19 243.181 184.19 251.931 Q184.19 260.102 180.301 264.986 Q176.436 269.847 169.885 269.847 Q168.126 269.847 166.32 269.5 Q164.515 269.153 162.57 268.458 M171.876 253.806 Q175.024 253.806 176.852 251.653 Q178.704 249.5 178.704 245.75 Q178.704 242.023 176.852 239.871 Q175.024 237.695 171.876 237.695 Q168.727 237.695 166.876 239.871 Q165.047 242.023 165.047 245.75 Q165.047 249.5 166.876 251.653 Q168.727 253.806 171.876 253.806 Z" fill="#000000" fill-rule="nonzero" fill-opacity="1" /><path clip-path="url(#clip630)" d="M192.732 268.458 L192.732 264.199 Q194.491 265.032 196.297 265.472 Q198.102 265.912 199.838 265.912 Q204.468 265.912 206.899 262.81 Q209.352 259.685 209.699 253.343 Q208.357 255.333 206.297 256.398 Q204.237 257.463 201.737 257.463 Q196.551 257.463 193.519 254.338 Q190.51 251.19 190.51 245.75 Q190.51 240.426 193.658 237.209 Q196.806 233.991 202.037 233.991 Q208.033 233.991 211.181 238.597 Q214.352 243.181 214.352 251.931 Q214.352 260.102 210.463 264.986 Q206.598 269.847 200.047 269.847 Q198.287 269.847 196.482 269.5 Q194.676 269.153 192.732 268.458 M202.037 253.806 Q205.186 253.806 207.014 251.653 Q208.866 249.5 208.866 245.75 Q208.866 242.023 207.014 239.871 Q205.186 237.695 202.037 237.695 Q198.889 237.695 197.037 239.871 Q195.209 242.023 195.209 245.75 Q195.209 249.5 197.037 251.653 Q198.889 253.806 202.037 253.806 Z" fill="#000000" fill-rule="nonzero" fill-opacity="1" /><path clip-path="url(#clip630)" d="M222.894 268.458 L222.894 264.199 Q224.653 265.032 226.459 265.472 Q228.264 265.912 230 265.912 Q234.63 265.912 237.06 262.81 Q239.514 259.685 239.861 253.343 Q238.519 255.333 236.459 256.398 Q234.398 257.463 231.898 257.463 Q226.713 257.463 223.681 254.338 Q220.672 251.19 220.672 245.75 Q220.672 240.426 223.82 237.209 Q226.968 233.991 232.199 233.991 Q238.195 233.991 241.343 238.597 Q244.514 243.181 244.514 251.931 Q244.514 260.102 240.625 264.986 Q236.76 269.847 230.209 269.847 Q228.449 269.847 226.644 269.5 Q224.838 269.153 222.894 268.458 M232.199 253.806 Q235.347 253.806 237.176 251.653 Q239.028 249.5 239.028 245.75 Q239.028 242.023 237.176 239.871 Q235.347 237.695 232.199 237.695 Q229.051 237.695 227.199 239.871 Q225.371 242.023 225.371 245.75 Q225.371 249.5 227.199 251.653 Q229.051 253.806 232.199 253.806 Z" fill="#000000" fill-rule="nonzero" fill-opacity="1" /><path clip-path="url(#clip630)" d="M252.963 234.616 L271.32 234.616 L271.32 238.551 L257.246 238.551 L257.246 247.023 Q258.264 246.676 259.283 246.514 Q260.301 246.329 261.32 246.329 Q267.107 246.329 270.486 249.5 Q273.866 252.671 273.866 258.088 Q273.866 263.667 270.394 266.769 Q266.921 269.847 260.602 269.847 Q258.426 269.847 256.158 269.477 Q253.912 269.106 251.505 268.366 L251.505 263.667 Q253.588 264.801 255.81 265.357 Q258.033 265.912 260.509 265.912 Q264.514 265.912 266.852 263.806 Q269.19 261.699 269.19 258.088 Q269.19 254.477 266.852 252.37 Q264.514 250.264 260.509 250.264 Q258.634 250.264 256.759 250.681 Q254.908 251.097 252.963 251.977 L252.963 234.616 Z" fill="#000000" fill-rule="nonzero" fill-opacity="1" /><path clip-path="url(#clip630)" d="M41.7242 981.804 Q42.4244 979.735 44.7161 977.793 Q47.0077 975.82 51.0181 973.846 L64.0042 967.322 L64.0042 974.228 L51.8138 980.308 Q47.0395 982.663 45.48 984.891 Q43.9204 987.087 43.9204 990.906 L43.9204 997.909 L64.0042 997.909 L64.0042 1004.34 L16.4842 1004.34 L16.4842 989.824 Q16.4842 981.676 19.8898 977.666 Q23.2955 973.655 30.1704 973.655 Q34.6582 973.655 37.6183 975.756 Q40.5784 977.825 41.7242 981.804 M21.7677 997.909 L38.6368 997.909 L38.6368 989.824 Q38.6368 985.177 36.5043 982.822 Q34.34 980.435 30.1704 980.435 Q26.0009 980.435 23.9002 982.822 Q21.7677 985.177 21.7677 989.824 L21.7677 997.909 Z" fill="#000000" fill-rule="nonzero" fill-opacity="1" /><path clip-path="url(#clip630)" d="M44.7161 931.737 L47.5806 931.737 L47.5806 958.664 Q53.6281 958.282 56.8109 955.036 Q59.9619 951.757 59.9619 945.933 Q59.9619 942.559 59.1344 939.408 Q58.3069 936.225 56.6518 933.106 L62.1899 933.106 Q63.5267 936.257 64.227 939.567 Q64.9272 942.877 64.9272 946.283 Q64.9272 954.813 59.9619 959.81 Q54.9967 964.775 46.5303 964.775 Q37.7774 964.775 32.6531 960.065 Q27.4968 955.322 27.4968 947.301 Q27.4968 940.108 32.1438 935.939 Q36.7589 931.737 44.7161 931.737 M42.9973 937.594 Q38.1912 937.657 35.3266 940.299 Q32.4621 942.909 32.4621 947.238 Q32.4621 952.139 35.2312 955.099 Q38.0002 958.028 43.0292 958.473 L42.9973 937.594 Z" fill="#000000" fill-rule="nonzero" fill-opacity="1" /><path clip-path="url(#clip630)" d="M14.479 904.078 L19.3487 904.078 L19.3487 909.68 Q19.3487 912.831 20.6219 914.072 Q21.895 915.282 25.2052 915.282 L28.3562 915.282 L28.3562 905.638 L32.9077 905.638 L32.9077 915.282 L64.0042 915.282 L64.0042 921.17 L32.9077 921.17 L32.9077 926.772 L28.3562 926.772 L28.3562 921.17 L25.8736 921.17 Q19.9216 921.17 17.2162 918.401 Q14.479 915.632 14.479 909.616 L14.479 904.078 Z" fill="#000000" fill-rule="nonzero" fill-opacity="1" /><path clip-path="url(#clip630)" d="M14.479 899.177 L14.479 893.32 L64.0042 893.32 L64.0042 899.177 L14.479 899.177 Z" fill="#000000" fill-rule="nonzero" fill-opacity="1" /><path clip-path="url(#clip630)" d="M44.7161 850.574 L47.5806 850.574 L47.5806 877.501 Q53.6281 877.119 56.8109 873.873 Q59.9619 870.595 59.9619 864.77 Q59.9619 861.396 59.1344 858.245 Q58.3069 855.062 56.6518 851.943 L62.1899 851.943 Q63.5267 855.094 64.227 858.404 Q64.9272 861.714 64.9272 865.12 Q64.9272 873.65 59.9619 878.647 Q54.9967 883.613 46.5303 883.613 Q37.7774 883.613 32.6531 878.902 Q27.4968 874.159 27.4968 866.139 Q27.4968 858.945 32.1438 854.776 Q36.7589 850.574 44.7161 850.574 M42.9973 856.431 Q38.1912 856.495 35.3266 859.136 Q32.4621 861.746 32.4621 866.075 Q32.4621 870.977 35.2312 873.937 Q38.0002 876.865 43.0292 877.31 L42.9973 856.431 Z" fill="#000000" fill-rule="nonzero" fill-opacity="1" /><path clip-path="url(#clip630)" d="M29.7248 815.308 L35.1993 815.308 Q33.8307 817.791 33.1623 820.306 Q32.4621 822.788 32.4621 825.334 Q32.4621 831.032 36.0905 834.183 Q39.6872 837.334 46.212 837.334 Q52.7369 837.334 56.3653 834.183 Q59.9619 831.032 59.9619 825.334 Q59.9619 822.788 59.2935 820.306 Q58.5933 817.791 57.2247 815.308 L62.6355 815.308 Q63.7814 817.759 64.3543 820.401 Q64.9272 823.011 64.9272 825.971 Q64.9272 834.024 59.8664 838.766 Q54.8057 843.509 46.212 843.509 Q37.491 843.509 32.4939 838.734 Q27.4968 833.928 27.4968 825.589 Q27.4968 822.884 28.0697 820.306 Q28.6108 817.727 29.7248 815.308 Z" fill="#000000" fill-rule="nonzero" fill-opacity="1" /><path clip-path="url(#clip630)" d="M18.2347 799.331 L28.3562 799.331 L28.3562 787.268 L32.9077 787.268 L32.9077 799.331 L52.2594 799.331 Q56.6199 799.331 57.8613 798.153 Q59.1026 796.943 59.1026 793.283 L59.1026 787.268 L64.0042 787.268 L64.0042 793.283 Q64.0042 800.063 61.4897 802.641 Q58.9434 805.219 52.2594 805.219 L32.9077 805.219 L32.9077 809.516 L28.3562 809.516 L28.3562 805.219 L18.2347 805.219 L18.2347 799.331 Z" fill="#000000" fill-rule="nonzero" fill-opacity="1" /><path clip-path="url(#clip630)" d="M28.3562 779.565 L28.3562 773.709 L64.0042 773.709 L64.0042 779.565 L28.3562 779.565 M14.479 779.565 L14.479 773.709 L21.895 773.709 L21.895 779.565 L14.479 779.565 Z" fill="#000000" fill-rule="nonzero" fill-opacity="1" /><path clip-path="url(#clip630)" d="M28.3562 765.656 L28.3562 759.449 L58.275 748.309 L28.3562 737.169 L28.3562 730.963 L64.0042 744.331 L64.0042 752.288 L28.3562 765.656 Z" fill="#000000" fill-rule="nonzero" fill-opacity="1" /><path clip-path="url(#clip630)" d="M28.3562 722.878 L28.3562 717.022 L64.0042 717.022 L64.0042 722.878 L28.3562 722.878 M14.479 722.878 L14.479 717.022 L21.895 717.022 L21.895 722.878 L14.479 722.878 Z" fill="#000000" fill-rule="nonzero" fill-opacity="1" /><path clip-path="url(#clip630)" d="M18.2347 698.975 L28.3562 698.975 L28.3562 686.912 L32.9077 686.912 L32.9077 698.975 L52.2594 698.975 Q56.6199 698.975 57.8613 697.798 Q59.1026 696.588 59.1026 692.928 L59.1026 686.912 L64.0042 686.912 L64.0042 692.928 Q64.0042 699.707 61.4897 702.285 Q58.9434 704.863 52.2594 704.863 L32.9077 704.863 L32.9077 709.16 L28.3562 709.16 L28.3562 704.863 L18.2347 704.863 L18.2347 698.975 Z" fill="#000000" fill-rule="nonzero" fill-opacity="1" /><path clip-path="url(#clip630)" d="M67.3143 664.378 Q73.68 666.86 75.6216 669.216 Q77.5631 671.571 77.5631 675.518 L77.5631 680.196 L72.6615 680.196 L72.6615 676.759 Q72.6615 674.34 71.5157 673.003 Q70.3699 671.666 66.1048 670.043 L63.4312 668.993 L28.3562 683.411 L28.3562 677.204 L56.238 666.064 L28.3562 654.924 L28.3562 648.718 L67.3143 664.378 Z" fill="#000000" fill-rule="nonzero" fill-opacity="1" /><path clip-path="url(#clip630)" d="M14.1925 612.37 L79.3773 612.37 L79.3773 617.781 L14.1925 617.781 L14.1925 612.37 Z" fill="#000000" fill-rule="nonzero" fill-opacity="1" /><path clip-path="url(#clip630)" d="M18.0438 569.21 L24.314 569.21 Q22.5634 572.871 21.704 576.117 Q20.8447 579.364 20.8447 582.387 Q20.8447 587.639 22.8817 590.504 Q24.9187 593.336 28.6745 593.336 Q31.8255 593.336 33.4488 591.458 Q35.0402 589.549 36.0269 584.265 L36.8226 580.382 Q38.1912 573.189 41.6605 569.783 Q45.098 566.346 50.8908 566.346 Q57.7976 566.346 61.3624 570.993 Q64.9272 575.608 64.9272 584.552 Q64.9272 587.925 64.1633 591.745 Q63.3994 595.532 61.9035 599.607 L55.2831 599.607 Q57.4793 595.692 58.5933 591.936 Q59.7073 588.18 59.7073 584.552 Q59.7073 579.045 57.543 576.053 Q55.3786 573.062 51.3682 573.062 Q47.8671 573.062 45.8937 575.226 Q43.9204 577.358 42.9337 582.26 L42.1698 586.175 Q40.7375 593.368 37.682 596.583 Q34.6264 599.797 29.1837 599.797 Q22.8817 599.797 19.2532 595.373 Q15.6248 590.917 15.6248 583.119 Q15.6248 579.777 16.2295 576.308 Q16.8343 572.839 18.0438 569.21 Z" fill="#000000" fill-rule="nonzero" fill-opacity="1" /><path clip-path="url(#clip630)" d="M58.5933 554.633 L58.5933 544.129 L22.3406 544.129 L24.6323 555.556 L18.7758 555.556 L16.4842 544.193 L16.4842 537.764 L58.5933 537.764 L58.5933 527.26 L64.0042 527.26 L64.0042 554.633 L58.5933 554.633 Z" fill="#000000" fill-rule="nonzero" fill-opacity="1" /><path clip-path="url(#clip630)" d="M58.5933 513.16 L58.5933 502.657 L22.3406 502.657 L24.6323 514.083 L18.7758 514.083 L16.4842 502.72 L16.4842 496.291 L58.5933 496.291 L58.5933 485.788 L64.0042 485.788 L64.0042 513.16 L58.5933 513.16 Z" fill="#000000" fill-rule="nonzero" fill-opacity="1" /><path clip-path="url(#clip630)" d="M14.1925 466.086 L79.3773 466.086 L79.3773 471.497 L14.1925 471.497 L14.1925 466.086 Z" fill="#000000" fill-rule="nonzero" fill-opacity="1" /><polyline clip-path="url(#clip632)" style="stroke:#009af9; stroke-linecap:round; stroke-linejoin:round; stroke-width:4; stroke-opacity:1; fill:none" points="367.683,251.282 369.613,250.21 371.542,249.148 373.471,248.095 375.4,247.053 377.329,246.019 379.259,244.995 381.188,243.981 383.117,242.975 385.046,241.979 386.975,240.992 388.904,240.015 390.834,239.046 392.763,238.086 394.692,237.134 396.621,236.192 398.55,235.258 400.48,234.333 402.409,233.417 404.338,232.509 406.267,231.609 408.196,230.718 410.125,229.835 412.055,228.961 413.984,228.094 415.913,227.236 417.842,226.386 419.771,225.543 421.701,224.709 423.63,223.882 425.559,223.064 427.488,222.253 429.417,221.449 431.347,220.653 433.276,219.865 435.205,219.084 437.134,218.311 439.063,217.545 440.992,216.787 442.922,216.035 444.851,215.291 446.78,214.554 448.709,213.824 450.638,213.101 452.568,212.385 454.497,211.676 456.426,210.974 458.355,210.279 460.284,209.59 462.213,208.908 464.143,208.233 466.072,207.564 468.001,206.902 469.93,206.247 471.859,205.597 473.789,204.955 475.718,204.318 477.647,203.688 479.576,203.064 481.505,202.447 483.434,201.835 485.364,201.23 487.293,200.631 489.222,200.038 491.151,199.451 493.08,198.869 495.01,198.294 496.939,197.725 498.868,197.161 500.797,196.603 502.726,196.051 504.655,195.504 506.585,194.964 508.514,194.428 510.443,193.899 512.372,193.375 514.301,192.856 516.231,192.343 518.16,191.835 520.089,191.333 522.018,190.836 523.947,190.344 525.877,189.858 527.806,189.377 529.735,188.901 531.664,188.43 533.593,187.965 535.522,187.504 537.452,187.049 539.381,186.598 541.31,186.153 543.239,185.713 545.168,185.277 547.098,184.847 549.027,184.421 550.956,184 552.885,183.585 554.814,183.173 556.743,182.767 558.673,182.366 560.602,181.969 562.531,181.577 564.46,181.189 566.389,180.806 568.319,180.428 570.248,180.055 572.177,179.686 574.106,179.321 576.035,178.961 577.964,178.606 579.894,178.255 581.823,177.909 583.752,177.567 585.681,177.229 587.61,176.896 589.54,176.567 591.469,176.242 593.398,175.922 595.327,175.607 597.256,175.295 599.186,174.988 601.115,174.685 603.044,174.386 604.973,174.092 606.902,173.801 608.831,173.515 610.761,173.233 612.69,172.956 614.619,172.682 616.548,172.413 618.477,172.148 620.407,171.886 622.336,171.629 624.265,171.376 626.194,171.127 628.123,170.883 630.052,170.642 631.982,170.405 633.911,170.172 635.84,169.944 637.769,169.719 639.698,169.498 641.628,169.281 643.557,169.069 645.486,168.86 647.415,168.655 649.344,168.454 651.273,168.258 653.203,168.065 655.132,167.876 657.061,167.691 658.99,167.51 660.919,167.332 662.849,167.159 664.778,166.99 666.707,166.824 668.636,166.663 670.565,166.505 672.495,166.352 674.424,166.202 676.353,166.056 678.282,165.914 680.211,165.776 682.14,165.642 684.07,165.512 685.999,165.385 687.928,165.263 689.857,165.145 691.786,165.03 693.716,164.919 695.645,164.813 697.574,164.71 699.503,164.611 701.432,164.516 703.361,164.425 705.291,164.338 707.22,164.255 709.149,164.176 711.078,164.101 713.007,164.029 714.937,163.962 716.866,163.899 718.795,163.84 720.724,163.785 722.653,163.734 724.582,163.686 726.512,163.643 728.441,163.604 730.37,163.57 732.299,163.539 734.228,163.512 736.158,163.489 738.087,163.471 740.016,163.457 741.945,163.446 743.874,163.441 745.803,163.439 747.733,163.441 749.662,163.448 751.591,163.459 753.52,163.474 755.449,163.494 757.379,163.517 759.308,163.546 761.237,163.578 763.166,163.615 765.095,163.657 767.025,163.702 768.954,163.753 770.883,163.807 772.812,163.867 774.741,163.931 776.67,163.999 778.6,164.072 780.529,164.15 782.458,164.232 784.387,164.319 786.316,164.411 788.246,164.507 790.175,164.609 792.104,164.715 794.033,164.826 795.962,164.942 797.891,165.063 799.821,165.188 801.75,165.319 803.679,165.455 805.608,165.596 807.537,165.743 809.467,165.894 811.396,166.051 813.325,166.213 815.254,166.38 817.183,166.553 819.112,166.731 821.042,166.915 822.971,167.104 824.9,167.299 826.829,167.499 828.758,167.705 830.688,167.917 832.617,168.135 834.546,168.358 836.475,168.588 838.404,168.823 840.334,169.065 842.263,169.313 844.192,169.566 846.121,169.827 848.05,170.093 849.979,170.366 851.909,170.645 853.838,170.931 855.767,171.224 857.696,171.523 859.625,171.829 861.555,172.142 863.484,172.461 865.413,172.788 867.342,173.122 869.271,173.463 871.2,173.811 873.13,174.167 875.059,174.53 876.988,174.901 878.917,175.28 880.846,175.666 882.776,176.06 884.705,176.462 886.634,176.872 888.563,177.29 890.492,177.717 892.421,178.152 894.351,178.596 896.28,179.048 898.209,179.509 900.138,179.979 902.067,180.458 903.997,180.946 905.926,181.443 907.855,181.95 909.784,182.466 911.713,182.992 913.643,183.528 915.572,184.073 917.501,184.629 919.43,185.195 921.359,185.772 923.288,186.359 925.218,186.957 927.147,187.566 929.076,188.186 931.005,188.818 932.934,189.461 934.864,190.115 936.793,190.782 938.722,191.46 940.651,192.151 942.58,192.854 944.509,193.569 946.439,194.298 948.368,195.04 950.297,195.795 952.226,196.563 954.155,197.345 956.085,198.142 958.014,198.952 959.943,199.777 961.872,200.617 963.801,201.471 965.73,202.341 967.66,203.226 969.589,204.128 971.518,205.045 973.447,205.979 975.376,206.929 977.306,207.897 979.235,208.881 981.164,209.884 983.093,210.904 985.022,211.943 986.951,213 988.881,214.076 990.81,215.172 992.739,216.287 994.668,217.422 996.597,218.578 998.527,219.755 1000.46,220.953 1002.38,222.173 1004.31,223.415 1006.24,224.68 1008.17,225.967 1010.1,227.279 1012.03,228.614 1013.96,229.973 1015.89,231.358 1017.82,232.768 1019.75,234.204 1021.68,235.667 1023.61,237.157 1025.54,238.674 1027.46,240.22 1029.39,241.794 1031.32,243.398 1033.25,245.032 1035.18,246.697 1037.11,248.394 1039.04,250.122 1040.97,251.883 1042.9,253.678 1044.83,255.506 1046.76,257.37 1048.69,259.27 1050.61,261.206 1052.54,263.179 1054.47,265.191 1056.4,267.241 1058.33,269.332 1060.26,271.464 1062.19,273.637 1064.12,275.853 1066.05,278.112 1067.98,280.417 1069.91,282.767 1071.84,285.164 1073.76,287.609 1075.69,290.102 1077.62,292.647 1079.55,295.242 1081.48,297.89 1083.41,300.592 1085.34,303.349 1087.27,306.162 1089.2,309.033 1091.13,311.964 1093.06,314.954 1094.99,318.007 1096.91,321.124 1098.84,324.306 1100.77,327.554 1102.7,330.871 1104.63,334.258 1106.56,337.716 1108.49,341.249 1110.42,344.856 1112.35,348.541 1114.28,352.304 1116.21,356.149 1118.14,360.077 1120.07,364.09 1121.99,368.191 1123.92,372.381 1125.85,376.662 1127.78,381.038 1129.71,385.51 1131.64,390.081 1133.57,394.753 1135.5,399.528 1137.43,404.41 1139.36,409.401 1141.29,414.504 1143.22,419.721 1145.14,425.056 1147.07,430.511 1149,436.088 1150.93,441.793 1152.86,447.626 1154.79,453.592 1156.72,459.693 1158.65,465.934 1160.58,472.316 1162.51,478.844 1164.44,485.521 1166.37,492.351 1168.29,499.337 1170.22,506.482 1172.15,513.79 1174.08,521.265 1176.01,528.911 1177.94,536.731 1179.87,544.728 1181.8,552.907 1183.73,561.272 1185.66,569.825 1187.59,578.571 1189.52,587.513 1191.45,596.654 1193.37,605.999 1195.3,615.551 1197.23,625.312 1199.16,635.287 1201.09,645.478 1203.02,655.888 1204.95,666.52 1206.88,677.376 1208.81,688.458 1210.74,699.769 1212.67,711.31 1214.6,723.082 1216.52,735.086 1218.45,747.323 1220.38,759.792 1222.31,772.493 1224.24,785.425 1226.17,798.587 1228.1,811.974 1230.03,825.585 1231.96,839.415 1233.89,853.46 1235.82,867.713 1237.75,882.168 1239.67,896.816 1241.6,911.65 1243.53,926.658 1245.46,941.829 1247.39,957.15 1249.32,972.608 1251.25,988.185 1253.18,1003.87 1255.11,1019.63 1257.04,1035.46 1258.97,1051.33 1260.9,1067.22 1262.82,1083.1 1264.75,1098.95 1266.68,1114.73 1268.61,1130.42 1270.54,1145.98 1272.47,1161.39 1274.4,1176.59 1276.33,1191.57 1278.26,1206.28 1280.19,1220.68 1282.12,1234.73 1284.05,1248.4 1285.98,1261.63 1287.9,1274.4 1289.83,1286.65 1291.76,1298.35 1293.69,1309.45 1295.62,1319.93 1297.55,1329.73 1299.48,1338.82 1301.41,1347.16 1303.34,1354.73 1305.27,1361.49 1307.2,1367.42 1309.13,1372.48 1311.05,1376.66 1312.98,1379.94 1314.91,1382.3 1316.84,1383.74 1318.77,1384.24 1320.7,1383.8 1322.63,1382.43 1324.56,1380.13 1326.49,1376.91 1328.42,1372.78 1330.35,1367.76 1332.28,1361.87 1334.2,1355.13 1336.13,1347.57 1338.06,1339.22 1339.99,1330.12 1341.92,1320.29 1343.85,1309.77 1345.78,1298.6 1347.71,1286.83 1349.64,1274.48 1351.57,1261.61 1353.5,1248.26 1355.43,1234.45 1357.35,1220.25 1359.28,1205.68 1361.21,1190.79 1363.14,1175.62 1365.07,1160.2 1367,1144.58 1368.93,1128.79 1370.86,1112.86 1372.79,1096.83 1374.72,1080.73 1376.65,1064.58 1378.58,1048.42 1380.51,1032.28 1382.43,1016.17 1384.36,1000.12 1386.29,984.145 1388.22,968.276 1390.15,952.525 1392.08,936.908 1394.01,921.441 1395.94,906.136 1397.87,891.007 1399.8,876.063 1401.73,861.314 1403.66,846.768 1405.58,832.433 1407.51,818.315 1409.44,804.419 1411.37,790.749 1413.3,777.309 1415.23,764.101 1417.16,751.127 1419.09,738.39 1421.02,725.888 1422.95,713.623 1424.88,701.594 1426.81,689.8 1428.73,678.241 1430.66,666.913 1432.59,655.817 1434.52,644.949 1436.45,634.306 1438.38,623.887 1440.31,613.688 1442.24,603.706 1444.17,593.937 1446.1,584.38 1448.03,575.029 1449.96,565.882 1451.88,556.934 1453.81,548.183 1455.74,539.624 1457.67,531.253 1459.6,523.067 1461.53,515.063 1463.46,507.235 1465.39,499.581 1467.32,492.097 1469.25,484.778 1471.18,477.622 1473.11,470.625 1475.04,463.782 1476.96,457.091 1478.89,450.548 1480.82,444.149 1482.75,437.891 1484.68,431.772 1486.61,425.786 1488.54,419.932 1490.47,414.205 1492.4,408.604 1494.33,403.125 1496.26,397.764 1498.19,392.52 1500.11,387.389 1502.04,382.368 1503.97,377.454 1505.9,372.646 1507.83,367.941 1509.76,363.335 1511.69,358.826 1513.62,354.413 1515.55,350.092 1517.48,345.862 1519.41,341.72 1521.34,337.664 1523.26,333.692 1525.19,329.802 1527.12,325.991 1529.05,322.258 1530.98,318.601 1532.91,315.019 1534.84,311.508 1536.77,308.068 1538.7,304.697 1540.63,301.393 1542.56,298.155 1544.49,294.98 1546.41,291.868 1548.34,288.817 1550.27,285.825 1552.2,282.891 1554.13,280.014 1556.06,277.192 1557.99,274.423 1559.92,271.708 1561.85,269.044 1563.78,266.43 1565.71,263.866 1567.64,261.349 1569.57,258.879 1571.49,256.454 1573.42,254.075 1575.35,251.739 1577.28,249.445 1579.21,247.193 1581.14,244.982 1583.07,242.811 1585,240.679 1586.93,238.584 1588.86,236.527 1590.79,234.506 1592.72,232.52 1594.64,230.57 1596.57,228.653 1598.5,226.769 1600.43,224.918 1602.36,223.099 1604.29,221.31 1606.22,219.552 1608.15,217.824 1610.08,216.125 1612.01,214.454 1613.94,212.812 1615.87,211.196 1617.79,209.607 1619.72,208.045 1621.65,206.508 1623.58,204.995 1625.51,203.508 1627.44,202.044 1629.37,200.604 1631.3,199.187 1633.23,197.793 1635.16,196.421 1637.09,195.07 1639.02,193.74 1640.94,192.432 1642.87,191.143 1644.8,189.875 1646.73,188.626 1648.66,187.396 1650.59,186.185 1652.52,184.993 1654.45,183.818 1656.38,182.662 1658.31,181.522 1660.24,180.4 1662.17,179.294 1664.1,178.205 1666.02,177.131 1667.95,176.074 1669.88,175.032 1671.81,174.005 1673.74,172.993 1675.67,171.995 1677.6,171.012 1679.53,170.043 1681.46,169.088 1683.39,168.146 1685.32,167.217 1687.25,166.302 1689.17,165.399 1691.1,164.509 1693.03,163.631 1694.96,162.765 1696.89,161.912 1698.82,161.069 1700.75,160.239 1702.68,159.419 1704.61,158.611 1706.54,157.814 1708.47,157.027 1710.4,156.251 1712.32,155.485 1714.25,154.729 1716.18,153.983 1718.11,153.247 1720.04,152.521 1721.97,151.804 1723.9,151.096 1725.83,150.398 1727.76,149.708 1729.69,149.027 1731.62,148.355 1733.55,147.692 1735.47,147.037 1737.4,146.39 1739.33,145.751 1741.26,145.121 1743.19,144.498 1745.12,143.883 1747.05,143.275 1748.98,142.675 1750.91,142.082 1752.84,141.497 1754.77,140.918 1756.7,140.347 1758.63,139.783 1760.55,139.225 1762.48,138.674 1764.41,138.129 1766.34,137.592 1768.27,137.06 1770.2,136.535 1772.13,136.016 1774.06,135.503 1775.99,134.995 1777.92,134.494 1779.85,133.999 1781.78,133.509 1783.7,133.025 1785.63,132.547 1787.56,132.074 1789.49,131.606 1791.42,131.144 1793.35,130.687 1795.28,130.235 1797.21,129.788 1799.14,129.346 1801.07,128.909 1803,128.477 1804.93,128.049 1806.85,127.626 1808.78,127.208 1810.71,126.795 1812.64,126.386 1814.57,125.981 1816.5,125.581 1818.43,125.185 1820.36,124.794 1822.29,124.406 1824.22,124.023 1826.15,123.644 1828.08,123.269 1830,122.897 1831.93,122.53 1833.86,122.167 1835.79,121.807 1837.72,121.451 1839.65,121.099 1841.58,120.75 1843.51,120.405 1845.44,120.064 1847.37,119.726 1849.3,119.391 1851.23,119.06 1853.16,118.732 1855.08,118.408 1857.01,118.087 1858.94,117.769 1860.87,117.454 1862.8,117.142 1864.73,116.834 1866.66,116.528 1868.59,116.226 1870.52,115.927 1872.45,115.63 1874.38,115.336 1876.31,115.046 1878.23,114.758 1880.16,114.473 1882.09,114.19 1884.02,113.911 1885.95,113.634 1887.88,113.359 1889.81,113.088 1891.74,112.819 1893.67,112.552 1895.6,112.288 1897.53,112.027 1899.46,111.768 1901.38,111.511 1903.31,111.257 1905.24,111.005 1907.17,110.755 1909.1,110.508 1911.03,110.263 1912.96,110.021 1914.89,109.78 1916.82,109.542 1918.75,109.306 1920.68,109.072 1922.61,108.84 1924.53,108.611 1926.46,108.383 1928.39,108.158 1930.32,107.934 1932.25,107.713 1934.18,107.493 1936.11,107.276 1938.04,107.06 1939.97,106.846 1941.9,106.635 1943.83,106.425 1945.76,106.216 1947.69,106.01 1949.61,105.806 1951.54,105.603 1953.47,105.402 1955.4,105.203 1957.33,105.005 1959.26,104.81 1961.19,104.616 1963.12,104.423 1965.05,104.232 1966.98,104.043 1968.91,103.856 1970.84,103.67 1972.76,103.485 1974.69,103.303 1976.62,103.121 1978.55,102.942 1980.48,102.763 1982.41,102.587 1984.34,102.411 1986.27,102.238 1988.2,102.065 1990.13,101.894 1992.06,101.725 1993.99,101.557 1995.91,101.39 1997.84,101.225 1999.77,101.061 2001.7,100.898 2003.63,100.737 2005.56,100.577 2007.49,100.418 2009.42,100.26 2011.35,100.104 2013.28,99.9492 2015.21,99.7956 2017.14,99.6431 2019.06,99.4919 2020.99,99.3418 2022.92,99.193 2024.85,99.0454 2026.78,98.8989 2028.71,98.7536 2030.64,98.6094 2032.57,98.4663 2034.5,98.3244 2036.43,98.1836 2038.36,98.0439 2040.29,97.9053 2042.22,97.7677 2044.14,97.6313 2046.07,97.4959 2048,97.3615 2049.93,97.2282 2051.86,97.0959 2053.79,96.9646 2055.72,96.8343 2057.65,96.705 2059.58,96.5767 2061.51,96.4494 2063.44,96.3231 2065.37,96.1977 2067.29,96.0732 2069.22,95.9497 2071.15,95.8272 2073.08,95.7055 2075.01,95.5848 2076.94,95.465 2078.87,95.346 2080.8,95.228 2082.73,95.1108 2084.66,94.9945 2086.59,94.8791 2088.52,94.7646 2090.44,94.6508 2092.37,94.5379 2094.3,94.4259 2096.23,94.3147 2098.16,94.2043 2100.09,94.0947 2102.02,93.9859 2103.95,93.8779 2105.88,93.7707 2107.81,93.6642 2109.74,93.5586 2111.67,93.4537 2113.59,93.3495 2115.52,93.2461 2117.45,93.1435 2119.38,93.0416 2121.31,92.9404 2123.24,92.84 2125.17,92.7403 2127.1,92.6413 2129.03,92.543 2130.96,92.4454 2132.89,92.3485 2134.82,92.2522 2136.75,92.1567 2138.67,92.0619 2140.6,91.9677 2142.53,91.8741 2144.46,91.7813 2146.39,91.6891 2148.32,91.5975 2150.25,91.5066 2152.18,91.4163 2154.11,91.3267 2156.04,91.2376 2157.97,91.1492 2159.9,91.0614 2161.82,90.9743 2163.75,90.8877 2165.68,90.8017 2167.61,90.7163 2169.54,90.6315 2171.47,90.5473 2173.4,90.4637 2175.33,90.3807 2177.26,90.2982 2179.19,90.2163 2181.12,90.1349 2183.05,90.0541 2184.97,89.9739 2186.9,89.8942 2188.83,89.815 2190.76,89.7364 2192.69,89.6583 2194.62,89.5808 2196.55,89.5038 2198.48,89.4273 2200.41,89.3513 2202.34,89.2758 2204.27,89.2009 2206.2,89.1264 2208.12,89.0525 2210.05,88.979 2211.98,88.906 2213.91,88.8336 2215.84,88.7616 2217.77,88.6901 2219.7,88.6191 2221.63,88.5485 2223.56,88.4784 2225.49,88.4088 2227.42,88.3396 2229.35,88.271 2231.28,88.2027 2233.2,88.1349 2235.13,88.0676 2237.06,88.0007 2238.99,87.9343 2240.92,87.8683 2242.85,87.8027 2244.78,87.7375 2246.71,87.6728 2248.64,87.6086 2250.57,87.5447 2252.5,87.4813 2254.43,87.4182 2256.35,87.3556 2258.28,87.2934 2260.21,87.2316 2262.14,87.1702 2264.07,87.1092 2266,87.0487 2267.93,86.9885 2269.86,86.9287 2271.79,86.8692 2273.72,86.8102 2275.65,86.7516 2277.58,86.6933 2279.5,86.6354 2281.43,86.5779 2283.36,86.5208 2285.29,86.464 2287.22,86.4076 2289.15,86.3516 2291.08,86.2959 2293.01,86.2406 2294.94,86.1857 "/>
<polyline clip-path="url(#clip632)" style="stroke:#ff0000; stroke-linecap:round; stroke-linejoin:round; stroke-width:4; stroke-opacity:1; fill:none" points="1234.95,2799.12 1234.95,-1328.69 "/>
<polyline clip-path="url(#clip632)" style="stroke:#ff0000; stroke-linecap:round; stroke-linejoin:round; stroke-width:4; stroke-opacity:1; fill:none" points="1427.67,2799.12 1427.67,-1328.69 "/>
</svg>
