<?xml version="1.0" encoding="utf-8"?>
<svg xmlns="http://www.w3.org/2000/svg" xmlns:xlink="http://www.w3.org/1999/xlink" width="600" height="400" viewBox="0 0 2400 1600">
<defs>
  <clipPath id="clip280">
    <rect x="0" y="0" width="2400" height="1600"/>
  </clipPath>
</defs>
<path clip-path="url(#clip280)" d="M0 1600 L2400 1600 L2400 0 L0 0  Z" fill="#ffffff" fill-rule="evenodd" fill-opacity="1"/>
<defs>
  <clipPath id="clip281">
    <rect x="480" y="0" width="1681" height="1600"/>
  </clipPath>
</defs>
<path clip-path="url(#clip280)" d="M309.866 1423.18 L2352.76 1423.18 L2352.76 123.472 L309.866 123.472  Z" fill="#ffffff" fill-rule="evenodd" fill-opacity="1"/>
<defs>
  <clipPath id="clip282">
    <rect x="309" y="123" width="2044" height="1301"/>
  </clipPath>
</defs>
<polyline clip-path="url(#clip282)" style="stroke:#000000; stroke-linecap:round; stroke-linejoin:round; stroke-width:2; stroke-opacity:0.1; fill:none" points="329.138,1423.18 329.138,123.472 "/>
<polyline clip-path="url(#clip282)" style="stroke:#000000; stroke-linecap:round; stroke-linejoin:round; stroke-width:2; stroke-opacity:0.1; fill:none" points="714.589,1423.18 714.589,123.472 "/>
<polyline clip-path="url(#clip282)" style="stroke:#000000; stroke-linecap:round; stroke-linejoin:round; stroke-width:2; stroke-opacity:0.1; fill:none" points="1100.04,1423.18 1100.04,123.472 "/>
<polyline clip-path="url(#clip282)" style="stroke:#000000; stroke-linecap:round; stroke-linejoin:round; stroke-width:2; stroke-opacity:0.1; fill:none" points="1485.49,1423.18 1485.49,123.472 "/>
<polyline clip-path="url(#clip282)" style="stroke:#000000; stroke-linecap:round; stroke-linejoin:round; stroke-width:2; stroke-opacity:0.1; fill:none" points="1870.94,1423.18 1870.94,123.472 "/>
<polyline clip-path="url(#clip282)" style="stroke:#000000; stroke-linecap:round; stroke-linejoin:round; stroke-width:2; stroke-opacity:0.1; fill:none" points="2256.39,1423.18 2256.39,123.472 "/>
<polyline clip-path="url(#clip280)" style="stroke:#000000; stroke-linecap:round; stroke-linejoin:round; stroke-width:4; stroke-opacity:1; fill:none" points="309.866,1423.18 2352.76,1423.18 "/>
<polyline clip-path="url(#clip280)" style="stroke:#000000; stroke-linecap:round; stroke-linejoin:round; stroke-width:4; stroke-opacity:1; fill:none" points="329.138,1423.18 329.138,1404.28 "/>
<polyline clip-path="url(#clip280)" style="stroke:#000000; stroke-linecap:round; stroke-linejoin:round; stroke-width:4; stroke-opacity:1; fill:none" points="714.589,1423.18 714.589,1404.28 "/>
<polyline clip-path="url(#clip280)" style="stroke:#000000; stroke-linecap:round; stroke-linejoin:round; stroke-width:4; stroke-opacity:1; fill:none" points="1100.04,1423.18 1100.04,1404.28 "/>
<polyline clip-path="url(#clip280)" style="stroke:#000000; stroke-linecap:round; stroke-linejoin:round; stroke-width:4; stroke-opacity:1; fill:none" points="1485.49,1423.18 1485.49,1404.28 "/>
<polyline clip-path="url(#clip280)" style="stroke:#000000; stroke-linecap:round; stroke-linejoin:round; stroke-width:4; stroke-opacity:1; fill:none" points="1870.94,1423.18 1870.94,1404.28 "/>
<polyline clip-path="url(#clip280)" style="stroke:#000000; stroke-linecap:round; stroke-linejoin:round; stroke-width:4; stroke-opacity:1; fill:none" points="2256.39,1423.18 2256.39,1404.28 "/>
<path clip-path="url(#clip280)" d="M329.138 1454.1 Q325.527 1454.1 323.699 1457.66 Q321.893 1461.2 321.893 1468.33 Q321.893 1475.44 323.699 1479.01 Q325.527 1482.55 329.138 1482.55 Q332.773 1482.55 334.578 1479.01 Q336.407 1475.44 336.407 1468.33 Q336.407 1461.2 334.578 1457.66 Q332.773 1454.1 329.138 1454.1 M329.138 1450.39 Q334.948 1450.39 338.004 1455 Q341.083 1459.58 341.083 1468.33 Q341.083 1477.06 338.004 1481.67 Q334.948 1486.25 329.138 1486.25 Q323.328 1486.25 320.249 1481.67 Q317.194 1477.06 317.194 1468.33 Q317.194 1459.58 320.249 1455 Q323.328 1450.39 329.138 1450.39 Z" fill="#000000" fill-rule="nonzero" fill-opacity="1" /><path clip-path="url(#clip280)" d="M689.277 1481.64 L696.916 1481.64 L696.916 1455.28 L688.606 1456.95 L688.606 1452.69 L696.869 1451.02 L701.545 1451.02 L701.545 1481.64 L709.184 1481.64 L709.184 1485.58 L689.277 1485.58 L689.277 1481.64 Z" fill="#000000" fill-rule="nonzero" fill-opacity="1" /><path clip-path="url(#clip280)" d="M728.629 1454.1 Q725.017 1454.1 723.189 1457.66 Q721.383 1461.2 721.383 1468.33 Q721.383 1475.44 723.189 1479.01 Q725.017 1482.55 728.629 1482.55 Q732.263 1482.55 734.068 1479.01 Q735.897 1475.44 735.897 1468.33 Q735.897 1461.2 734.068 1457.66 Q732.263 1454.1 728.629 1454.1 M728.629 1450.39 Q734.439 1450.39 737.494 1455 Q740.573 1459.58 740.573 1468.33 Q740.573 1477.06 737.494 1481.67 Q734.439 1486.25 728.629 1486.25 Q722.818 1486.25 719.74 1481.67 Q716.684 1477.06 716.684 1468.33 Q716.684 1459.58 719.74 1455 Q722.818 1450.39 728.629 1450.39 Z" fill="#000000" fill-rule="nonzero" fill-opacity="1" /><path clip-path="url(#clip280)" d="M1078.81 1481.64 L1095.13 1481.64 L1095.13 1485.58 L1073.19 1485.58 L1073.19 1481.64 Q1075.85 1478.89 1080.43 1474.26 Q1085.04 1469.61 1086.22 1468.27 Q1088.47 1465.74 1089.35 1464.01 Q1090.25 1462.25 1090.25 1460.56 Q1090.25 1457.8 1088.3 1456.07 Q1086.38 1454.33 1083.28 1454.33 Q1081.08 1454.33 1078.63 1455.09 Q1076.2 1455.86 1073.42 1457.41 L1073.42 1452.69 Q1076.24 1451.55 1078.7 1450.97 Q1081.15 1450.39 1083.19 1450.39 Q1088.56 1450.39 1091.75 1453.08 Q1094.95 1455.77 1094.95 1460.26 Q1094.95 1462.39 1094.14 1464.31 Q1093.35 1466.2 1091.24 1468.8 Q1090.67 1469.47 1087.56 1472.69 Q1084.46 1475.88 1078.81 1481.64 Z" fill="#000000" fill-rule="nonzero" fill-opacity="1" /><path clip-path="url(#clip280)" d="M1114.95 1454.1 Q1111.34 1454.1 1109.51 1457.66 Q1107.7 1461.2 1107.7 1468.33 Q1107.7 1475.44 1109.51 1479.01 Q1111.34 1482.55 1114.95 1482.55 Q1118.58 1482.55 1120.39 1479.01 Q1122.22 1475.44 1122.22 1468.33 Q1122.22 1461.2 1120.39 1457.66 Q1118.58 1454.1 1114.95 1454.1 M1114.95 1450.39 Q1120.76 1450.39 1123.81 1455 Q1126.89 1459.58 1126.89 1468.33 Q1126.89 1477.06 1123.81 1481.67 Q1120.76 1486.25 1114.95 1486.25 Q1109.14 1486.25 1106.06 1481.67 Q1103 1477.06 1103 1468.33 Q1103 1459.58 1106.06 1455 Q1109.14 1450.39 1114.95 1450.39 Z" fill="#000000" fill-rule="nonzero" fill-opacity="1" /><path clip-path="url(#clip280)" d="M1474.33 1466.95 Q1477.69 1467.66 1479.57 1469.93 Q1481.46 1472.2 1481.46 1475.53 Q1481.46 1480.65 1477.94 1483.45 Q1474.43 1486.25 1467.95 1486.25 Q1465.77 1486.25 1463.45 1485.81 Q1461.16 1485.39 1458.71 1484.54 L1458.71 1480.02 Q1460.65 1481.16 1462.97 1481.74 Q1465.28 1482.32 1467.81 1482.32 Q1472.2 1482.32 1474.5 1480.58 Q1476.81 1478.84 1476.81 1475.53 Q1476.81 1472.48 1474.66 1470.77 Q1472.53 1469.03 1468.71 1469.03 L1464.68 1469.03 L1464.68 1465.19 L1468.89 1465.19 Q1472.34 1465.19 1474.17 1463.82 Q1476 1462.43 1476 1459.84 Q1476 1457.18 1474.1 1455.77 Q1472.23 1454.33 1468.71 1454.33 Q1466.79 1454.33 1464.59 1454.75 Q1462.39 1455.16 1459.75 1456.04 L1459.75 1451.88 Q1462.41 1451.14 1464.73 1450.77 Q1467.07 1450.39 1469.13 1450.39 Q1474.45 1450.39 1477.55 1452.83 Q1480.65 1455.23 1480.65 1459.35 Q1480.65 1462.22 1479.01 1464.21 Q1477.37 1466.18 1474.33 1466.95 Z" fill="#000000" fill-rule="nonzero" fill-opacity="1" /><path clip-path="url(#clip280)" d="M1500.33 1454.1 Q1496.72 1454.1 1494.89 1457.66 Q1493.08 1461.2 1493.08 1468.33 Q1493.08 1475.44 1494.89 1479.01 Q1496.72 1482.55 1500.33 1482.55 Q1503.96 1482.55 1505.77 1479.01 Q1507.6 1475.44 1507.6 1468.33 Q1507.6 1461.2 1505.77 1457.66 Q1503.96 1454.1 1500.33 1454.1 M1500.33 1450.39 Q1506.14 1450.39 1509.19 1455 Q1512.27 1459.58 1512.27 1468.33 Q1512.27 1477.06 1509.19 1481.67 Q1506.14 1486.25 1500.33 1486.25 Q1494.52 1486.25 1491.44 1481.67 Q1488.38 1477.06 1488.38 1468.33 Q1488.38 1459.58 1491.44 1455 Q1494.52 1450.39 1500.33 1450.39 Z" fill="#000000" fill-rule="nonzero" fill-opacity="1" /><path clip-path="url(#clip280)" d="M1859.11 1455.09 L1847.31 1473.54 L1859.11 1473.54 L1859.11 1455.09 M1857.89 1451.02 L1863.77 1451.02 L1863.77 1473.54 L1868.7 1473.54 L1868.7 1477.43 L1863.77 1477.43 L1863.77 1485.58 L1859.11 1485.58 L1859.11 1477.43 L1843.51 1477.43 L1843.51 1472.92 L1857.89 1451.02 Z" fill="#000000" fill-rule="nonzero" fill-opacity="1" /><path clip-path="url(#clip280)" d="M1886.43 1454.1 Q1882.82 1454.1 1880.99 1457.66 Q1879.18 1461.2 1879.18 1468.33 Q1879.18 1475.44 1880.99 1479.01 Q1882.82 1482.55 1886.43 1482.55 Q1890.06 1482.55 1891.87 1479.01 Q1893.7 1475.44 1893.7 1468.33 Q1893.7 1461.2 1891.87 1457.66 Q1890.06 1454.1 1886.43 1454.1 M1886.43 1450.39 Q1892.24 1450.39 1895.29 1455 Q1898.37 1459.58 1898.37 1468.33 Q1898.37 1477.06 1895.29 1481.67 Q1892.24 1486.25 1886.43 1486.25 Q1880.62 1486.25 1877.54 1481.67 Q1874.48 1477.06 1874.48 1468.33 Q1874.48 1459.58 1877.54 1455 Q1880.62 1450.39 1886.43 1450.39 Z" fill="#000000" fill-rule="nonzero" fill-opacity="1" /><path clip-path="url(#clip280)" d="M2231.09 1451.02 L2249.45 1451.02 L2249.45 1454.96 L2235.37 1454.96 L2235.37 1463.43 Q2236.39 1463.08 2237.41 1462.92 Q2238.43 1462.73 2239.45 1462.73 Q2245.24 1462.73 2248.62 1465.9 Q2252 1469.08 2252 1474.49 Q2252 1480.07 2248.52 1483.17 Q2245.05 1486.25 2238.73 1486.25 Q2236.56 1486.25 2234.29 1485.88 Q2232.04 1485.51 2229.63 1484.77 L2229.63 1480.07 Q2231.72 1481.2 2233.94 1481.76 Q2236.16 1482.32 2238.64 1482.32 Q2242.64 1482.32 2244.98 1480.21 Q2247.32 1478.1 2247.32 1474.49 Q2247.32 1470.88 2244.98 1468.77 Q2242.64 1466.67 2238.64 1466.67 Q2236.76 1466.67 2234.89 1467.08 Q2233.04 1467.5 2231.09 1468.38 L2231.09 1451.02 Z" fill="#000000" fill-rule="nonzero" fill-opacity="1" /><path clip-path="url(#clip280)" d="M2271.21 1454.1 Q2267.6 1454.1 2265.77 1457.66 Q2263.96 1461.2 2263.96 1468.33 Q2263.96 1475.44 2265.77 1479.01 Q2267.6 1482.55 2271.21 1482.55 Q2274.84 1482.55 2276.65 1479.01 Q2278.48 1475.44 2278.48 1468.33 Q2278.48 1461.2 2276.65 1457.66 Q2274.84 1454.1 2271.21 1454.1 M2271.21 1450.39 Q2277.02 1450.39 2280.07 1455 Q2283.15 1459.58 2283.15 1468.33 Q2283.15 1477.06 2280.07 1481.67 Q2277.02 1486.25 2271.21 1486.25 Q2265.4 1486.25 2262.32 1481.67 Q2259.26 1477.06 2259.26 1468.33 Q2259.26 1459.58 2262.32 1455 Q2265.4 1450.39 2271.21 1450.39 Z" fill="#000000" fill-rule="nonzero" fill-opacity="1" /><path clip-path="url(#clip280)" d="M1199.03 1520.52 L1205.46 1520.52 L1205.46 1568.04 L1199.03 1568.04 L1199.03 1520.52 Z" fill="#000000" fill-rule="nonzero" fill-opacity="1" /><path clip-path="url(#clip280)" d="M1223.79 1522.27 L1223.79 1532.4 L1235.86 1532.4 L1235.86 1536.95 L1223.79 1536.95 L1223.79 1556.3 Q1223.79 1560.66 1224.97 1561.9 Q1226.18 1563.14 1229.84 1563.14 L1235.86 1563.14 L1235.86 1568.04 L1229.84 1568.04 Q1223.06 1568.04 1220.48 1565.53 Q1217.91 1562.98 1217.91 1556.3 L1217.91 1536.95 L1213.61 1536.95 L1213.61 1532.4 L1217.91 1532.4 L1217.91 1522.27 L1223.79 1522.27 Z" fill="#000000" fill-rule="nonzero" fill-opacity="1" /><path clip-path="url(#clip280)" d="M1274.05 1548.76 L1274.05 1551.62 L1247.12 1551.62 Q1247.51 1557.67 1250.75 1560.85 Q1254.03 1564 1259.86 1564 Q1263.23 1564 1266.38 1563.17 Q1269.56 1562.35 1272.68 1560.69 L1272.68 1566.23 Q1269.53 1567.57 1266.22 1568.27 Q1262.91 1568.97 1259.51 1568.97 Q1250.98 1568.97 1245.98 1564 Q1241.01 1559.04 1241.01 1550.57 Q1241.01 1541.82 1245.72 1536.69 Q1250.47 1531.54 1258.49 1531.54 Q1265.68 1531.54 1269.85 1536.18 Q1274.05 1540.8 1274.05 1548.76 M1268.19 1547.04 Q1268.13 1542.23 1265.49 1539.37 Q1262.88 1536.5 1258.55 1536.5 Q1253.65 1536.5 1250.69 1539.27 Q1247.76 1542.04 1247.32 1547.07 L1268.19 1547.04 Z" fill="#000000" fill-rule="nonzero" fill-opacity="1" /><path clip-path="url(#clip280)" d="M1304.32 1537.87 Q1303.33 1537.3 1302.16 1537.04 Q1301.01 1536.76 1299.61 1536.76 Q1294.64 1536.76 1291.97 1540 Q1289.33 1543.22 1289.33 1549.27 L1289.33 1568.04 L1283.44 1568.04 L1283.44 1532.4 L1289.33 1532.4 L1289.33 1537.93 Q1291.18 1534.69 1294.14 1533.13 Q1297.1 1531.54 1301.33 1531.54 Q1301.93 1531.54 1302.67 1531.63 Q1303.4 1531.7 1304.29 1531.85 L1304.32 1537.87 Z" fill="#000000" fill-rule="nonzero" fill-opacity="1" /><path clip-path="url(#clip280)" d="M1326.66 1550.12 Q1319.57 1550.12 1316.83 1551.75 Q1314.09 1553.37 1314.09 1557.29 Q1314.09 1560.4 1316.13 1562.25 Q1318.2 1564.07 1321.73 1564.07 Q1326.6 1564.07 1329.53 1560.63 Q1332.49 1557.16 1332.49 1551.43 L1332.49 1550.12 L1326.66 1550.12 M1338.34 1547.71 L1338.34 1568.04 L1332.49 1568.04 L1332.49 1562.63 Q1330.48 1565.88 1327.49 1567.44 Q1324.5 1568.97 1320.17 1568.97 Q1314.7 1568.97 1311.45 1565.91 Q1308.24 1562.82 1308.24 1557.67 Q1308.24 1551.65 1312.25 1548.6 Q1316.29 1545.54 1324.28 1545.54 L1332.49 1545.54 L1332.49 1544.97 Q1332.49 1540.93 1329.81 1538.73 Q1327.17 1536.5 1322.37 1536.5 Q1319.31 1536.5 1316.42 1537.23 Q1313.52 1537.97 1310.85 1539.43 L1310.85 1534.02 Q1314.06 1532.78 1317.08 1532.17 Q1320.11 1531.54 1322.97 1531.54 Q1330.71 1531.54 1334.53 1535.55 Q1338.34 1539.56 1338.34 1547.71 Z" fill="#000000" fill-rule="nonzero" fill-opacity="1" /><path clip-path="url(#clip280)" d="M1356.2 1522.27 L1356.2 1532.4 L1368.26 1532.4 L1368.26 1536.95 L1356.2 1536.95 L1356.2 1556.3 Q1356.2 1560.66 1357.38 1561.9 Q1358.59 1563.14 1362.25 1563.14 L1368.26 1563.14 L1368.26 1568.04 L1362.25 1568.04 Q1355.47 1568.04 1352.89 1565.53 Q1350.31 1562.98 1350.31 1556.3 L1350.31 1536.95 L1346.02 1536.95 L1346.02 1532.4 L1350.31 1532.4 L1350.31 1522.27 L1356.2 1522.27 Z" fill="#000000" fill-rule="nonzero" fill-opacity="1" /><path clip-path="url(#clip280)" d="M1375.97 1532.4 L1381.82 1532.4 L1381.82 1568.04 L1375.97 1568.04 L1375.97 1532.4 M1375.97 1518.52 L1381.82 1518.52 L1381.82 1525.93 L1375.97 1525.93 L1375.97 1518.52 Z" fill="#000000" fill-rule="nonzero" fill-opacity="1" /><path clip-path="url(#clip280)" d="M1407.89 1536.5 Q1403.18 1536.5 1400.44 1540.19 Q1397.71 1543.85 1397.71 1550.25 Q1397.71 1556.65 1400.41 1560.34 Q1403.15 1564 1407.89 1564 Q1412.57 1564 1415.31 1560.31 Q1418.04 1556.62 1418.04 1550.25 Q1418.04 1543.92 1415.31 1540.23 Q1412.57 1536.5 1407.89 1536.5 M1407.89 1531.54 Q1415.53 1531.54 1419.89 1536.5 Q1424.25 1541.47 1424.25 1550.25 Q1424.25 1559 1419.89 1564 Q1415.53 1568.97 1407.89 1568.97 Q1400.22 1568.97 1395.86 1564 Q1391.53 1559 1391.53 1550.25 Q1391.53 1541.47 1395.86 1536.5 Q1400.22 1531.54 1407.89 1531.54 Z" fill="#000000" fill-rule="nonzero" fill-opacity="1" /><path clip-path="url(#clip280)" d="M1463.59 1546.53 L1463.59 1568.04 L1457.73 1568.04 L1457.73 1546.72 Q1457.73 1541.66 1455.76 1539.14 Q1453.79 1536.63 1449.84 1536.63 Q1445.1 1536.63 1442.36 1539.65 Q1439.62 1542.68 1439.62 1547.9 L1439.62 1568.04 L1433.74 1568.04 L1433.74 1532.4 L1439.62 1532.4 L1439.62 1537.93 Q1441.72 1534.72 1444.56 1533.13 Q1447.42 1531.54 1451.15 1531.54 Q1457.29 1531.54 1460.44 1535.36 Q1463.59 1539.14 1463.59 1546.53 Z" fill="#000000" fill-rule="nonzero" fill-opacity="1" /><polyline clip-path="url(#clip282)" style="stroke:#000000; stroke-linecap:round; stroke-linejoin:round; stroke-width:2; stroke-opacity:0.1; fill:none" points="309.866,1326.9 2352.76,1326.9 "/>
<polyline clip-path="url(#clip282)" style="stroke:#000000; stroke-linecap:round; stroke-linejoin:round; stroke-width:2; stroke-opacity:0.1; fill:none" points="309.866,971.179 2352.76,971.179 "/>
<polyline clip-path="url(#clip282)" style="stroke:#000000; stroke-linecap:round; stroke-linejoin:round; stroke-width:2; stroke-opacity:0.1; fill:none" points="309.866,615.453 2352.76,615.453 "/>
<polyline clip-path="url(#clip282)" style="stroke:#000000; stroke-linecap:round; stroke-linejoin:round; stroke-width:2; stroke-opacity:0.1; fill:none" points="309.866,259.727 2352.76,259.727 "/>
<polyline clip-path="url(#clip280)" style="stroke:#000000; stroke-linecap:round; stroke-linejoin:round; stroke-width:4; stroke-opacity:1; fill:none" points="309.866,1423.18 309.866,123.472 "/>
<polyline clip-path="url(#clip280)" style="stroke:#000000; stroke-linecap:round; stroke-linejoin:round; stroke-width:4; stroke-opacity:1; fill:none" points="309.866,1326.9 328.763,1326.9 "/>
<polyline clip-path="url(#clip280)" style="stroke:#000000; stroke-linecap:round; stroke-linejoin:round; stroke-width:4; stroke-opacity:1; fill:none" points="309.866,971.179 328.763,971.179 "/>
<polyline clip-path="url(#clip280)" style="stroke:#000000; stroke-linecap:round; stroke-linejoin:round; stroke-width:4; stroke-opacity:1; fill:none" points="309.866,615.453 328.763,615.453 "/>
<polyline clip-path="url(#clip280)" style="stroke:#000000; stroke-linecap:round; stroke-linejoin:round; stroke-width:4; stroke-opacity:1; fill:none" points="309.866,259.727 328.763,259.727 "/>
<path clip-path="url(#clip280)" d="M126.205 1312.7 Q122.593 1312.7 120.765 1316.27 Q118.959 1319.81 118.959 1326.94 Q118.959 1334.05 120.765 1337.61 Q122.593 1341.15 126.205 1341.15 Q129.839 1341.15 131.644 1337.61 Q133.473 1334.05 133.473 1326.94 Q133.473 1319.81 131.644 1316.27 Q129.839 1312.7 126.205 1312.7 M126.205 1309 Q132.015 1309 135.07 1313.61 Q138.149 1318.19 138.149 1326.94 Q138.149 1335.67 135.07 1340.27 Q132.015 1344.86 126.205 1344.86 Q120.394 1344.86 117.316 1340.27 Q114.26 1335.67 114.26 1326.94 Q114.26 1318.19 117.316 1313.61 Q120.394 1309 126.205 1309 Z" fill="#000000" fill-rule="nonzero" fill-opacity="1" /><path clip-path="url(#clip280)" d="M146.366 1338.31 L151.251 1338.31 L151.251 1344.18 L146.366 1344.18 L146.366 1338.31 Z" fill="#000000" fill-rule="nonzero" fill-opacity="1" /><path clip-path="url(#clip280)" d="M171.436 1312.7 Q167.825 1312.7 165.996 1316.27 Q164.19 1319.81 164.19 1326.94 Q164.19 1334.05 165.996 1337.61 Q167.825 1341.15 171.436 1341.15 Q175.07 1341.15 176.876 1337.61 Q178.704 1334.05 178.704 1326.94 Q178.704 1319.81 176.876 1316.27 Q175.07 1312.7 171.436 1312.7 M171.436 1309 Q177.246 1309 180.301 1313.61 Q183.38 1318.19 183.38 1326.94 Q183.38 1335.67 180.301 1340.27 Q177.246 1344.86 171.436 1344.86 Q165.626 1344.86 162.547 1340.27 Q159.491 1335.67 159.491 1326.94 Q159.491 1318.19 162.547 1313.61 Q165.626 1309 171.436 1309 Z" fill="#000000" fill-rule="nonzero" fill-opacity="1" /><path clip-path="url(#clip280)" d="M201.598 1312.7 Q197.987 1312.7 196.158 1316.27 Q194.352 1319.81 194.352 1326.94 Q194.352 1334.05 196.158 1337.61 Q197.987 1341.15 201.598 1341.15 Q205.232 1341.15 207.037 1337.61 Q208.866 1334.05 208.866 1326.94 Q208.866 1319.81 207.037 1316.27 Q205.232 1312.7 201.598 1312.7 M201.598 1309 Q207.408 1309 210.463 1313.61 Q213.542 1318.19 213.542 1326.94 Q213.542 1335.67 210.463 1340.27 Q207.408 1344.86 201.598 1344.86 Q195.787 1344.86 192.709 1340.27 Q189.653 1335.67 189.653 1326.94 Q189.653 1318.19 192.709 1313.61 Q195.787 1309 201.598 1309 Z" fill="#000000" fill-rule="nonzero" fill-opacity="1" /><path clip-path="url(#clip280)" d="M221.898 1343.47 L221.898 1339.21 Q223.658 1340.04 225.463 1340.48 Q227.269 1340.92 229.005 1340.92 Q233.635 1340.92 236.065 1337.82 Q238.519 1334.69 238.866 1328.35 Q237.523 1330.34 235.463 1331.41 Q233.403 1332.47 230.903 1332.47 Q225.718 1332.47 222.686 1329.35 Q219.676 1326.2 219.676 1320.76 Q219.676 1315.43 222.824 1312.22 Q225.973 1309 231.204 1309 Q237.199 1309 240.347 1313.61 Q243.519 1318.19 243.519 1326.94 Q243.519 1335.11 239.63 1339.99 Q235.764 1344.86 229.213 1344.86 Q227.454 1344.86 225.648 1344.51 Q223.843 1344.16 221.898 1343.47 M231.204 1328.81 Q234.352 1328.81 236.181 1326.66 Q238.033 1324.51 238.033 1320.76 Q238.033 1317.03 236.181 1314.88 Q234.352 1312.7 231.204 1312.7 Q228.056 1312.7 226.204 1314.88 Q224.375 1317.03 224.375 1320.76 Q224.375 1324.51 226.204 1326.66 Q228.056 1328.81 231.204 1328.81 Z" fill="#000000" fill-rule="nonzero" fill-opacity="1" /><path clip-path="url(#clip280)" d="M261.921 1312.7 Q258.31 1312.7 256.482 1316.27 Q254.676 1319.81 254.676 1326.94 Q254.676 1334.05 256.482 1337.61 Q258.31 1341.15 261.921 1341.15 Q265.556 1341.15 267.361 1337.61 Q269.19 1334.05 269.19 1326.94 Q269.19 1319.81 267.361 1316.27 Q265.556 1312.7 261.921 1312.7 M261.921 1309 Q267.732 1309 270.787 1313.61 Q273.866 1318.19 273.866 1326.94 Q273.866 1335.67 270.787 1340.27 Q267.732 1344.86 261.921 1344.86 Q256.111 1344.86 253.033 1340.27 Q249.977 1335.67 249.977 1326.94 Q249.977 1318.19 253.033 1313.61 Q256.111 1309 261.921 1309 Z" fill="#000000" fill-rule="nonzero" fill-opacity="1" /><path clip-path="url(#clip280)" d="M127.2 956.977 Q123.589 956.977 121.76 960.542 Q119.955 964.084 119.955 971.213 Q119.955 978.32 121.76 981.885 Q123.589 985.426 127.2 985.426 Q130.834 985.426 132.64 981.885 Q134.468 978.32 134.468 971.213 Q134.468 964.084 132.64 960.542 Q130.834 956.977 127.2 956.977 M127.2 953.274 Q133.01 953.274 136.066 957.88 Q139.144 962.463 139.144 971.213 Q139.144 979.94 136.066 984.547 Q133.01 989.13 127.2 989.13 Q121.39 989.13 118.311 984.547 Q115.256 979.94 115.256 971.213 Q115.256 962.463 118.311 957.88 Q121.39 953.274 127.2 953.274 Z" fill="#000000" fill-rule="nonzero" fill-opacity="1" /><path clip-path="url(#clip280)" d="M147.362 982.579 L152.246 982.579 L152.246 988.459 L147.362 988.459 L147.362 982.579 Z" fill="#000000" fill-rule="nonzero" fill-opacity="1" /><path clip-path="url(#clip280)" d="M172.431 956.977 Q168.82 956.977 166.991 960.542 Q165.186 964.084 165.186 971.213 Q165.186 978.32 166.991 981.885 Q168.82 985.426 172.431 985.426 Q176.065 985.426 177.871 981.885 Q179.7 978.32 179.7 971.213 Q179.7 964.084 177.871 960.542 Q176.065 956.977 172.431 956.977 M172.431 953.274 Q178.241 953.274 181.297 957.88 Q184.376 962.463 184.376 971.213 Q184.376 979.94 181.297 984.547 Q178.241 989.13 172.431 989.13 Q166.621 989.13 163.542 984.547 Q160.487 979.94 160.487 971.213 Q160.487 962.463 163.542 957.88 Q166.621 953.274 172.431 953.274 Z" fill="#000000" fill-rule="nonzero" fill-opacity="1" /><path clip-path="url(#clip280)" d="M202.593 956.977 Q198.982 956.977 197.153 960.542 Q195.348 964.084 195.348 971.213 Q195.348 978.32 197.153 981.885 Q198.982 985.426 202.593 985.426 Q206.227 985.426 208.033 981.885 Q209.861 978.32 209.861 971.213 Q209.861 964.084 208.033 960.542 Q206.227 956.977 202.593 956.977 M202.593 953.274 Q208.403 953.274 211.459 957.88 Q214.537 962.463 214.537 971.213 Q214.537 979.94 211.459 984.547 Q208.403 989.13 202.593 989.13 Q196.783 989.13 193.704 984.547 Q190.649 979.94 190.649 971.213 Q190.649 962.463 193.704 957.88 Q196.783 953.274 202.593 953.274 Z" fill="#000000" fill-rule="nonzero" fill-opacity="1" /><path clip-path="url(#clip280)" d="M222.894 987.741 L222.894 983.482 Q224.653 984.315 226.459 984.755 Q228.264 985.195 230 985.195 Q234.63 985.195 237.06 982.093 Q239.514 978.968 239.861 972.625 Q238.519 974.616 236.459 975.681 Q234.398 976.746 231.898 976.746 Q226.713 976.746 223.681 973.621 Q220.672 970.473 220.672 965.033 Q220.672 959.709 223.82 956.491 Q226.968 953.274 232.199 953.274 Q238.195 953.274 241.343 957.88 Q244.514 962.463 244.514 971.213 Q244.514 979.385 240.625 984.269 Q236.76 989.13 230.209 989.13 Q228.449 989.13 226.644 988.783 Q224.838 988.435 222.894 987.741 M232.199 973.088 Q235.347 973.088 237.176 970.936 Q239.028 968.783 239.028 965.033 Q239.028 961.306 237.176 959.153 Q235.347 956.977 232.199 956.977 Q229.051 956.977 227.199 959.153 Q225.371 961.306 225.371 965.033 Q225.371 968.783 227.199 970.936 Q229.051 973.088 232.199 973.088 Z" fill="#000000" fill-rule="nonzero" fill-opacity="1" /><path clip-path="url(#clip280)" d="M252.963 953.899 L271.32 953.899 L271.32 957.834 L257.246 957.834 L257.246 966.306 Q258.264 965.959 259.283 965.797 Q260.301 965.612 261.32 965.612 Q267.107 965.612 270.486 968.783 Q273.866 971.954 273.866 977.371 Q273.866 982.949 270.394 986.051 Q266.921 989.13 260.602 989.13 Q258.426 989.13 256.158 988.76 Q253.912 988.389 251.505 987.648 L251.505 982.949 Q253.588 984.084 255.81 984.639 Q258.033 985.195 260.509 985.195 Q264.514 985.195 266.852 983.088 Q269.19 980.982 269.19 977.371 Q269.19 973.76 266.852 971.653 Q264.514 969.547 260.509 969.547 Q258.634 969.547 256.759 969.963 Q254.908 970.38 252.963 971.26 L252.963 953.899 Z" fill="#000000" fill-rule="nonzero" fill-opacity="1" /><path clip-path="url(#clip280)" d="M126.205 601.251 Q122.593 601.251 120.765 604.816 Q118.959 608.358 118.959 615.487 Q118.959 622.594 120.765 626.159 Q122.593 629.7 126.205 629.7 Q129.839 629.7 131.644 626.159 Q133.473 622.594 133.473 615.487 Q133.473 608.358 131.644 604.816 Q129.839 601.251 126.205 601.251 M126.205 597.548 Q132.015 597.548 135.07 602.154 Q138.149 606.737 138.149 615.487 Q138.149 624.214 135.07 628.821 Q132.015 633.404 126.205 633.404 Q120.394 633.404 117.316 628.821 Q114.26 624.214 114.26 615.487 Q114.26 606.737 117.316 602.154 Q120.394 597.548 126.205 597.548 Z" fill="#000000" fill-rule="nonzero" fill-opacity="1" /><path clip-path="url(#clip280)" d="M146.366 626.853 L151.251 626.853 L151.251 632.733 L146.366 632.733 L146.366 626.853 Z" fill="#000000" fill-rule="nonzero" fill-opacity="1" /><path clip-path="url(#clip280)" d="M171.436 601.251 Q167.825 601.251 165.996 604.816 Q164.19 608.358 164.19 615.487 Q164.19 622.594 165.996 626.159 Q167.825 629.7 171.436 629.7 Q175.07 629.7 176.876 626.159 Q178.704 622.594 178.704 615.487 Q178.704 608.358 176.876 604.816 Q175.07 601.251 171.436 601.251 M171.436 597.548 Q177.246 597.548 180.301 602.154 Q183.38 606.737 183.38 615.487 Q183.38 624.214 180.301 628.821 Q177.246 633.404 171.436 633.404 Q165.626 633.404 162.547 628.821 Q159.491 624.214 159.491 615.487 Q159.491 606.737 162.547 602.154 Q165.626 597.548 171.436 597.548 Z" fill="#000000" fill-rule="nonzero" fill-opacity="1" /><path clip-path="url(#clip280)" d="M192.408 628.797 L200.047 628.797 L200.047 602.432 L191.737 604.098 L191.737 599.839 L200 598.173 L204.676 598.173 L204.676 628.797 L212.315 628.797 L212.315 632.733 L192.408 632.733 L192.408 628.797 Z" fill="#000000" fill-rule="nonzero" fill-opacity="1" /><path clip-path="url(#clip280)" d="M231.76 601.251 Q228.148 601.251 226.32 604.816 Q224.514 608.358 224.514 615.487 Q224.514 622.594 226.32 626.159 Q228.148 629.7 231.76 629.7 Q235.394 629.7 237.199 626.159 Q239.028 622.594 239.028 615.487 Q239.028 608.358 237.199 604.816 Q235.394 601.251 231.76 601.251 M231.76 597.548 Q237.57 597.548 240.625 602.154 Q243.704 606.737 243.704 615.487 Q243.704 624.214 240.625 628.821 Q237.57 633.404 231.76 633.404 Q225.949 633.404 222.871 628.821 Q219.815 624.214 219.815 615.487 Q219.815 606.737 222.871 602.154 Q225.949 597.548 231.76 597.548 Z" fill="#000000" fill-rule="nonzero" fill-opacity="1" /><path clip-path="url(#clip280)" d="M261.921 601.251 Q258.31 601.251 256.482 604.816 Q254.676 608.358 254.676 615.487 Q254.676 622.594 256.482 626.159 Q258.31 629.7 261.921 629.7 Q265.556 629.7 267.361 626.159 Q269.19 622.594 269.19 615.487 Q269.19 608.358 267.361 604.816 Q265.556 601.251 261.921 601.251 M261.921 597.548 Q267.732 597.548 270.787 602.154 Q273.866 606.737 273.866 615.487 Q273.866 624.214 270.787 628.821 Q267.732 633.404 261.921 633.404 Q256.111 633.404 253.033 628.821 Q249.977 624.214 249.977 615.487 Q249.977 606.737 253.033 602.154 Q256.111 597.548 261.921 597.548 Z" fill="#000000" fill-rule="nonzero" fill-opacity="1" /><path clip-path="url(#clip280)" d="M127.2 245.525 Q123.589 245.525 121.76 249.09 Q119.955 252.632 119.955 259.761 Q119.955 266.868 121.76 270.433 Q123.589 273.974 127.2 273.974 Q130.834 273.974 132.64 270.433 Q134.468 266.868 134.468 259.761 Q134.468 252.632 132.64 249.09 Q130.834 245.525 127.2 245.525 M127.2 241.822 Q133.01 241.822 136.066 246.428 Q139.144 251.011 139.144 259.761 Q139.144 268.488 136.066 273.095 Q133.01 277.678 127.2 277.678 Q121.39 277.678 118.311 273.095 Q115.256 268.488 115.256 259.761 Q115.256 251.011 118.311 246.428 Q121.39 241.822 127.2 241.822 Z" fill="#000000" fill-rule="nonzero" fill-opacity="1" /><path clip-path="url(#clip280)" d="M147.362 271.127 L152.246 271.127 L152.246 277.007 L147.362 277.007 L147.362 271.127 Z" fill="#000000" fill-rule="nonzero" fill-opacity="1" /><path clip-path="url(#clip280)" d="M172.431 245.525 Q168.82 245.525 166.991 249.09 Q165.186 252.632 165.186 259.761 Q165.186 266.868 166.991 270.433 Q168.82 273.974 172.431 273.974 Q176.065 273.974 177.871 270.433 Q179.7 266.868 179.7 259.761 Q179.7 252.632 177.871 249.09 Q176.065 245.525 172.431 245.525 M172.431 241.822 Q178.241 241.822 181.297 246.428 Q184.376 251.011 184.376 259.761 Q184.376 268.488 181.297 273.095 Q178.241 277.678 172.431 277.678 Q166.621 277.678 163.542 273.095 Q160.487 268.488 160.487 259.761 Q160.487 251.011 163.542 246.428 Q166.621 241.822 172.431 241.822 Z" fill="#000000" fill-rule="nonzero" fill-opacity="1" /><path clip-path="url(#clip280)" d="M193.403 273.071 L201.042 273.071 L201.042 246.706 L192.732 248.372 L192.732 244.113 L200.996 242.447 L205.672 242.447 L205.672 273.071 L213.311 273.071 L213.311 277.007 L193.403 277.007 L193.403 273.071 Z" fill="#000000" fill-rule="nonzero" fill-opacity="1" /><path clip-path="url(#clip280)" d="M232.755 245.525 Q229.144 245.525 227.315 249.09 Q225.51 252.632 225.51 259.761 Q225.51 266.868 227.315 270.433 Q229.144 273.974 232.755 273.974 Q236.389 273.974 238.195 270.433 Q240.023 266.868 240.023 259.761 Q240.023 252.632 238.195 249.09 Q236.389 245.525 232.755 245.525 M232.755 241.822 Q238.565 241.822 241.621 246.428 Q244.699 251.011 244.699 259.761 Q244.699 268.488 241.621 273.095 Q238.565 277.678 232.755 277.678 Q226.945 277.678 223.866 273.095 Q220.811 268.488 220.811 259.761 Q220.811 251.011 223.866 246.428 Q226.945 241.822 232.755 241.822 Z" fill="#000000" fill-rule="nonzero" fill-opacity="1" /><path clip-path="url(#clip280)" d="M252.963 242.447 L271.32 242.447 L271.32 246.382 L257.246 246.382 L257.246 254.854 Q258.264 254.507 259.283 254.345 Q260.301 254.159 261.32 254.159 Q267.107 254.159 270.486 257.331 Q273.866 260.502 273.866 265.919 Q273.866 271.497 270.394 274.599 Q266.921 277.678 260.602 277.678 Q258.426 277.678 256.158 277.307 Q253.912 276.937 251.505 276.196 L251.505 271.497 Q253.588 272.632 255.81 273.187 Q258.033 273.743 260.509 273.743 Q264.514 273.743 266.852 271.636 Q269.19 269.53 269.19 265.919 Q269.19 262.308 266.852 260.201 Q264.514 258.095 260.509 258.095 Q258.634 258.095 256.759 258.511 Q254.908 258.928 252.963 259.808 L252.963 242.447 Z" fill="#000000" fill-rule="nonzero" fill-opacity="1" /><path clip-path="url(#clip280)" d="M33.7671 788.508 L14.479 788.508 L14.479 782.652 L64.0042 782.652 L64.0042 788.508 L58.657 788.508 Q61.8398 790.354 63.3994 793.187 Q64.9272 795.988 64.9272 799.935 Q64.9272 806.396 59.771 810.47 Q54.6147 814.512 46.212 814.512 Q37.8093 814.512 32.6531 810.47 Q27.4968 806.396 27.4968 799.935 Q27.4968 795.988 29.0564 793.187 Q30.5842 790.354 33.7671 788.508 M46.212 808.465 Q52.6732 808.465 56.3653 805.823 Q60.0256 803.149 60.0256 798.502 Q60.0256 793.855 56.3653 791.182 Q52.6732 788.508 46.212 788.508 Q39.7508 788.508 36.0905 791.182 Q32.3984 793.855 32.3984 798.502 Q32.3984 803.149 36.0905 805.823 Q39.7508 808.465 46.212 808.465 Z" fill="#000000" fill-rule="nonzero" fill-opacity="1" /><path clip-path="url(#clip280)" d="M74.8259 743.503 L79.3773 743.503 L79.3773 777.368 L74.8259 777.368 L74.8259 743.503 Z" fill="#000000" fill-rule="nonzero" fill-opacity="1" /><path clip-path="url(#clip280)" d="M28.3562 737.996 L28.3562 732.14 L64.0042 732.14 L64.0042 737.996 L28.3562 737.996 M14.479 737.996 L14.479 732.14 L21.895 732.14 L21.895 737.996 L14.479 737.996 Z" fill="#000000" fill-rule="nonzero" fill-opacity="1" /><path clip-path="url(#clip280)" d="M794.465 18.8205 L794.465 65.8515 L804.349 65.8515 Q816.866 65.8515 822.659 60.1802 Q828.492 54.509 828.492 42.2752 Q828.492 30.1225 822.659 24.4918 Q816.866 18.8205 804.349 18.8205 L794.465 18.8205 M786.282 12.096 L803.093 12.096 Q820.674 12.096 828.897 19.4281 Q837.121 26.7198 837.121 42.2752 Q837.121 57.9117 828.857 65.2439 Q820.593 72.576 803.093 72.576 L786.282 72.576 L786.282 12.096 Z" fill="#000000" fill-rule="nonzero" fill-opacity="1" /><path clip-path="url(#clip280)" d="M849.841 27.2059 L857.294 27.2059 L857.294 72.576 L849.841 72.576 L849.841 27.2059 M849.841 9.54393 L857.294 9.54393 L857.294 18.9825 L849.841 18.9825 L849.841 9.54393 Z" fill="#000000" fill-rule="nonzero" fill-opacity="1" /><path clip-path="url(#clip280)" d="M901.814 28.5427 L901.814 35.5912 Q898.654 33.9709 895.251 33.1607 Q891.849 32.3505 888.203 32.3505 Q882.653 32.3505 879.858 34.0519 Q877.103 35.7533 877.103 39.156 Q877.103 41.7486 879.088 43.2475 Q881.073 44.7058 887.068 46.0426 L889.621 46.6097 Q897.56 48.3111 900.882 51.4303 Q904.244 54.509 904.244 60.0587 Q904.244 66.3781 899.221 70.0644 Q894.239 73.7508 885.489 73.7508 Q881.843 73.7508 877.873 73.0216 Q873.944 72.3329 869.569 70.9151 L869.569 63.2184 Q873.7 65.3654 877.711 66.4591 Q881.721 67.5124 885.651 67.5124 Q890.917 67.5124 893.752 65.73 Q896.588 63.9071 896.588 60.6258 Q896.588 57.5877 894.522 55.9673 Q892.497 54.3469 885.57 52.8481 L882.977 52.2405 Q876.05 50.7821 872.971 47.7845 Q869.893 44.7463 869.893 39.4801 Q869.893 33.0797 874.43 29.5959 Q878.967 26.1121 887.311 26.1121 Q891.443 26.1121 895.089 26.7198 Q898.735 27.3274 901.814 28.5427 Z" fill="#000000" fill-rule="nonzero" fill-opacity="1" /><path clip-path="url(#clip280)" d="M923.486 14.324 L923.486 27.2059 L938.839 27.2059 L938.839 32.9987 L923.486 32.9987 L923.486 57.6282 Q923.486 63.1779 924.985 64.7578 Q926.524 66.3376 931.183 66.3376 L938.839 66.3376 L938.839 72.576 L931.183 72.576 Q922.554 72.576 919.273 69.3758 Q915.992 66.1351 915.992 57.6282 L915.992 32.9987 L910.523 32.9987 L910.523 27.2059 L915.992 27.2059 L915.992 14.324 L923.486 14.324 Z" fill="#000000" fill-rule="nonzero" fill-opacity="1" /><path clip-path="url(#clip280)" d="M969.261 49.7694 Q960.228 49.7694 956.744 51.8354 Q953.26 53.9013 953.26 58.8839 Q953.26 62.8538 955.853 65.2034 Q958.486 67.5124 962.982 67.5124 Q969.18 67.5124 972.907 63.1374 Q976.674 58.7219 976.674 51.4303 L976.674 49.7694 L969.261 49.7694 M984.128 46.6907 L984.128 72.576 L976.674 72.576 L976.674 65.6895 Q974.122 69.8214 970.315 71.8063 Q966.507 73.7508 960.997 73.7508 Q954.03 73.7508 949.898 69.8619 Q945.807 65.9325 945.807 59.3701 Q945.807 51.7138 950.911 47.825 Q956.055 43.9361 966.223 43.9361 L976.674 43.9361 L976.674 43.2069 Q976.674 38.0623 973.272 35.2672 Q969.909 32.4315 963.793 32.4315 Q959.904 32.4315 956.217 33.3632 Q952.531 34.295 949.128 36.1584 L949.128 29.2718 Q953.22 27.692 957.068 26.9223 Q960.916 26.1121 964.562 26.1121 Q974.406 26.1121 979.267 31.2163 Q984.128 36.3204 984.128 46.6907 Z" fill="#000000" fill-rule="nonzero" fill-opacity="1" /><path clip-path="url(#clip280)" d="M1037.19 45.1919 L1037.19 72.576 L1029.74 72.576 L1029.74 45.4349 Q1029.74 38.994 1027.23 35.7938 Q1024.72 32.5936 1019.7 32.5936 Q1013.66 32.5936 1010.18 36.4419 Q1006.69 40.2903 1006.69 46.9338 L1006.69 72.576 L999.197 72.576 L999.197 27.2059 L1006.69 27.2059 L1006.69 34.2544 Q1009.37 30.163 1012.97 28.1376 Q1016.62 26.1121 1021.36 26.1121 Q1029.17 26.1121 1033.18 30.9732 Q1037.19 35.7938 1037.19 45.1919 Z" fill="#000000" fill-rule="nonzero" fill-opacity="1" /><path clip-path="url(#clip280)" d="M1084.71 28.9478 L1084.71 35.9153 Q1081.55 34.1734 1078.35 33.3227 Q1075.19 32.4315 1071.95 32.4315 Q1064.7 32.4315 1060.69 37.0496 Q1056.68 41.6271 1056.68 49.9314 Q1056.68 58.2358 1060.69 62.8538 Q1064.7 67.4314 1071.95 67.4314 Q1075.19 67.4314 1078.35 66.5807 Q1081.55 65.6895 1084.71 63.9476 L1084.71 70.8341 Q1081.59 72.2924 1078.23 73.0216 Q1074.91 73.7508 1071.14 73.7508 Q1060.89 73.7508 1054.86 67.3098 Q1048.82 60.8689 1048.82 49.9314 Q1048.82 38.832 1054.9 32.472 Q1061.01 26.1121 1071.63 26.1121 Q1075.07 26.1121 1078.35 26.8413 Q1081.63 27.5299 1084.71 28.9478 Z" fill="#000000" fill-rule="nonzero" fill-opacity="1" /><path clip-path="url(#clip280)" d="M1136.48 48.0275 L1136.48 51.6733 L1102.21 51.6733 Q1102.7 59.3701 1106.83 63.421 Q1111 67.4314 1118.42 67.4314 Q1122.71 67.4314 1126.72 66.3781 Q1130.77 65.3249 1134.74 63.2184 L1134.74 70.267 Q1130.73 71.9684 1126.52 72.8596 Q1122.3 73.7508 1117.97 73.7508 Q1107.11 73.7508 1100.75 67.4314 Q1094.43 61.1119 1094.43 50.3365 Q1094.43 39.1965 1100.43 32.6746 Q1106.47 26.1121 1116.67 26.1121 Q1125.83 26.1121 1131.14 32.0264 Q1136.48 37.9003 1136.48 48.0275 M1129.03 45.84 Q1128.95 39.7232 1125.59 36.0774 Q1122.26 32.4315 1116.75 32.4315 Q1110.52 32.4315 1106.75 35.9558 Q1103.02 39.4801 1102.46 45.8805 L1129.03 45.84 Z" fill="#000000" fill-rule="nonzero" fill-opacity="1" /><path clip-path="url(#clip280)" d="M1182.46 14.324 L1182.46 27.2059 L1197.81 27.2059 L1197.81 32.9987 L1182.46 32.9987 L1182.46 57.6282 Q1182.46 63.1779 1183.96 64.7578 Q1185.5 66.3376 1190.16 66.3376 L1197.81 66.3376 L1197.81 72.576 L1190.16 72.576 Q1181.53 72.576 1178.25 69.3758 Q1174.97 66.1351 1174.97 57.6282 L1174.97 32.9987 L1169.5 32.9987 L1169.5 27.2059 L1174.97 27.2059 L1174.97 14.324 L1182.46 14.324 Z" fill="#000000" fill-rule="nonzero" fill-opacity="1" /><path clip-path="url(#clip280)" d="M1233.91 34.1734 Q1232.65 33.4443 1231.15 33.1202 Q1229.69 32.7556 1227.91 32.7556 Q1221.59 32.7556 1218.19 36.8875 Q1214.83 40.9789 1214.83 48.6757 L1214.83 72.576 L1207.33 72.576 L1207.33 27.2059 L1214.83 27.2059 L1214.83 34.2544 Q1217.18 30.1225 1220.94 28.1376 Q1224.71 26.1121 1230.1 26.1121 Q1230.87 26.1121 1231.8 26.2337 Q1232.73 26.3147 1233.87 26.5172 L1233.91 34.1734 Z" fill="#000000" fill-rule="nonzero" fill-opacity="1" /><path clip-path="url(#clip280)" d="M1262.34 49.7694 Q1253.31 49.7694 1249.83 51.8354 Q1246.34 53.9013 1246.34 58.8839 Q1246.34 62.8538 1248.94 65.2034 Q1251.57 67.5124 1256.07 67.5124 Q1262.26 67.5124 1265.99 63.1374 Q1269.76 58.7219 1269.76 51.4303 L1269.76 49.7694 L1262.34 49.7694 M1277.21 46.6907 L1277.21 72.576 L1269.76 72.576 L1269.76 65.6895 Q1267.21 69.8214 1263.4 71.8063 Q1259.59 73.7508 1254.08 73.7508 Q1247.11 73.7508 1242.98 69.8619 Q1238.89 65.9325 1238.89 59.3701 Q1238.89 51.7138 1243.99 47.825 Q1249.14 43.9361 1259.31 43.9361 L1269.76 43.9361 L1269.76 43.2069 Q1269.76 38.0623 1266.35 35.2672 Q1262.99 32.4315 1256.88 32.4315 Q1252.99 32.4315 1249.3 33.3632 Q1245.61 34.295 1242.21 36.1584 L1242.21 29.2718 Q1246.3 27.692 1250.15 26.9223 Q1254 26.1121 1257.65 26.1121 Q1267.49 26.1121 1272.35 31.2163 Q1277.21 36.3204 1277.21 46.6907 Z" fill="#000000" fill-rule="nonzero" fill-opacity="1" /><path clip-path="url(#clip280)" d="M1325.21 28.9478 L1325.21 35.9153 Q1322.05 34.1734 1318.85 33.3227 Q1315.69 32.4315 1312.45 32.4315 Q1305.2 32.4315 1301.19 37.0496 Q1297.18 41.6271 1297.18 49.9314 Q1297.18 58.2358 1301.19 62.8538 Q1305.2 67.4314 1312.45 67.4314 Q1315.69 67.4314 1318.85 66.5807 Q1322.05 65.6895 1325.21 63.9476 L1325.21 70.8341 Q1322.1 72.2924 1318.73 73.0216 Q1315.41 73.7508 1311.64 73.7508 Q1301.39 73.7508 1295.36 67.3098 Q1289.32 60.8689 1289.32 49.9314 Q1289.32 38.832 1295.4 32.472 Q1301.52 26.1121 1312.13 26.1121 Q1315.57 26.1121 1318.85 26.8413 Q1322.14 27.5299 1325.21 28.9478 Z" fill="#000000" fill-rule="nonzero" fill-opacity="1" /><path clip-path="url(#clip280)" d="M1376.98 48.0275 L1376.98 51.6733 L1342.71 51.6733 Q1343.2 59.3701 1347.33 63.421 Q1351.5 67.4314 1358.92 67.4314 Q1363.21 67.4314 1367.22 66.3781 Q1371.27 65.3249 1375.24 63.2184 L1375.24 70.267 Q1371.23 71.9684 1367.02 72.8596 Q1362.81 73.7508 1358.47 73.7508 Q1347.62 73.7508 1341.26 67.4314 Q1334.94 61.1119 1334.94 50.3365 Q1334.94 39.1965 1340.93 32.6746 Q1346.97 26.1121 1357.18 26.1121 Q1366.33 26.1121 1371.64 32.0264 Q1376.98 37.9003 1376.98 48.0275 M1369.53 45.84 Q1369.45 39.7232 1366.09 36.0774 Q1362.77 32.4315 1357.26 32.4315 Q1351.02 32.4315 1347.25 35.9558 Q1343.52 39.4801 1342.96 45.8805 L1369.53 45.84 Z" fill="#000000" fill-rule="nonzero" fill-opacity="1" /><path clip-path="url(#clip280)" d="M1448.16 49.9314 Q1448.16 41.7081 1444.76 37.0496 Q1441.39 32.3505 1435.48 32.3505 Q1429.57 32.3505 1426.16 37.0496 Q1422.8 41.7081 1422.8 49.9314 Q1422.8 58.1548 1426.16 62.8538 Q1429.57 67.5124 1435.48 67.5124 Q1441.39 67.5124 1444.76 62.8538 Q1448.16 58.1548 1448.16 49.9314 M1422.8 34.0924 Q1425.15 30.0415 1428.71 28.0971 Q1432.32 26.1121 1437.3 26.1121 Q1445.57 26.1121 1450.71 32.6746 Q1455.9 39.2371 1455.9 49.9314 Q1455.9 60.6258 1450.71 67.1883 Q1445.57 73.7508 1437.3 73.7508 Q1432.32 73.7508 1428.71 71.8063 Q1425.15 69.8214 1422.8 65.7705 L1422.8 72.576 L1415.31 72.576 L1415.31 9.54393 L1422.8 9.54393 L1422.8 34.0924 Z" fill="#000000" fill-rule="nonzero" fill-opacity="1" /><path clip-path="url(#clip280)" d="M1507.06 48.0275 L1507.06 51.6733 L1472.79 51.6733 Q1473.27 59.3701 1477.41 63.421 Q1481.58 67.4314 1488.99 67.4314 Q1493.29 67.4314 1497.3 66.3781 Q1501.35 65.3249 1505.32 63.2184 L1505.32 70.267 Q1501.31 71.9684 1497.09 72.8596 Q1492.88 73.7508 1488.55 73.7508 Q1477.69 73.7508 1471.33 67.4314 Q1465.01 61.1119 1465.01 50.3365 Q1465.01 39.1965 1471.01 32.6746 Q1477.04 26.1121 1487.25 26.1121 Q1496.41 26.1121 1501.71 32.0264 Q1507.06 37.9003 1507.06 48.0275 M1499.61 45.84 Q1499.52 39.7232 1496.16 36.0774 Q1492.84 32.4315 1487.33 32.4315 Q1481.09 32.4315 1477.33 35.9558 Q1473.6 39.4801 1473.03 45.8805 L1499.61 45.84 Z" fill="#000000" fill-rule="nonzero" fill-opacity="1" /><path clip-path="url(#clip280)" d="M1548.22 28.5427 L1548.22 35.5912 Q1545.06 33.9709 1541.65 33.1607 Q1538.25 32.3505 1534.61 32.3505 Q1529.06 32.3505 1526.26 34.0519 Q1523.51 35.7533 1523.51 39.156 Q1523.51 41.7486 1525.49 43.2475 Q1527.48 44.7058 1533.47 46.0426 L1536.02 46.6097 Q1543.96 48.3111 1547.28 51.4303 Q1550.65 54.509 1550.65 60.0587 Q1550.65 66.3781 1545.62 70.0644 Q1540.64 73.7508 1531.89 73.7508 Q1528.25 73.7508 1524.28 73.0216 Q1520.35 72.3329 1515.97 70.9151 L1515.97 63.2184 Q1520.1 65.3654 1524.11 66.4591 Q1528.12 67.5124 1532.05 67.5124 Q1537.32 67.5124 1540.16 65.73 Q1542.99 63.9071 1542.99 60.6258 Q1542.99 57.5877 1540.92 55.9673 Q1538.9 54.3469 1531.97 52.8481 L1529.38 52.2405 Q1522.45 50.7821 1519.37 47.7845 Q1516.3 44.7463 1516.3 39.4801 Q1516.3 33.0797 1520.83 29.5959 Q1525.37 26.1121 1533.71 26.1121 Q1537.85 26.1121 1541.49 26.7198 Q1545.14 27.3274 1548.22 28.5427 Z" fill="#000000" fill-rule="nonzero" fill-opacity="1" /><path clip-path="url(#clip280)" d="M1569.89 14.324 L1569.89 27.2059 L1585.24 27.2059 L1585.24 32.9987 L1569.89 32.9987 L1569.89 57.6282 Q1569.89 63.1779 1571.39 64.7578 Q1572.93 66.3376 1577.59 66.3376 L1585.24 66.3376 L1585.24 72.576 L1577.59 72.576 Q1568.96 72.576 1565.68 69.3758 Q1562.39 66.1351 1562.39 57.6282 L1562.39 32.9987 L1556.93 32.9987 L1556.93 27.2059 L1562.39 27.2059 L1562.39 14.324 L1569.89 14.324 Z" fill="#000000" fill-rule="nonzero" fill-opacity="1" /><path clip-path="url(#clip280)" d="M1616.07 27.2059 L1623.97 27.2059 L1638.15 65.2844 L1652.32 27.2059 L1660.22 27.2059 L1643.21 72.576 L1633.08 72.576 L1616.07 27.2059 Z" fill="#000000" fill-rule="nonzero" fill-opacity="1" /><path clip-path="url(#clip280)" d="M1709.32 48.0275 L1709.32 51.6733 L1675.05 51.6733 Q1675.54 59.3701 1679.67 63.421 Q1683.84 67.4314 1691.25 67.4314 Q1695.55 67.4314 1699.56 66.3781 Q1703.61 65.3249 1707.58 63.2184 L1707.58 70.267 Q1703.57 71.9684 1699.36 72.8596 Q1695.14 73.7508 1690.81 73.7508 Q1679.95 73.7508 1673.59 67.4314 Q1667.27 61.1119 1667.27 50.3365 Q1667.27 39.1965 1673.27 32.6746 Q1679.3 26.1121 1689.51 26.1121 Q1698.67 26.1121 1703.97 32.0264 Q1709.32 37.9003 1709.32 48.0275 M1701.87 45.84 Q1701.79 39.7232 1698.42 36.0774 Q1695.1 32.4315 1689.59 32.4315 Q1683.35 32.4315 1679.59 35.9558 Q1675.86 39.4801 1675.29 45.8805 L1701.87 45.84 Z" fill="#000000" fill-rule="nonzero" fill-opacity="1" /><path clip-path="url(#clip280)" d="M1747.85 34.1734 Q1746.59 33.4443 1745.09 33.1202 Q1743.63 32.7556 1741.85 32.7556 Q1735.53 32.7556 1732.13 36.8875 Q1728.77 40.9789 1728.77 48.6757 L1728.77 72.576 L1721.27 72.576 L1721.27 27.2059 L1728.77 27.2059 L1728.77 34.2544 Q1731.11 30.1225 1734.88 28.1376 Q1738.65 26.1121 1744.04 26.1121 Q1744.81 26.1121 1745.74 26.2337 Q1746.67 26.3147 1747.8 26.5172 L1747.85 34.1734 Z" fill="#000000" fill-rule="nonzero" fill-opacity="1" /><path clip-path="url(#clip280)" d="M1763.04 14.324 L1763.04 27.2059 L1778.39 27.2059 L1778.39 32.9987 L1763.04 32.9987 L1763.04 57.6282 Q1763.04 63.1779 1764.53 64.7578 Q1766.07 66.3376 1770.73 66.3376 L1778.39 66.3376 L1778.39 72.576 L1770.73 72.576 Q1762.1 72.576 1758.82 69.3758 Q1755.54 66.1351 1755.54 57.6282 L1755.54 32.9987 L1750.07 32.9987 L1750.07 27.2059 L1755.54 27.2059 L1755.54 14.324 L1763.04 14.324 Z" fill="#000000" fill-rule="nonzero" fill-opacity="1" /><path clip-path="url(#clip280)" d="M1827 48.0275 L1827 51.6733 L1792.73 51.6733 Q1793.22 59.3701 1797.35 63.421 Q1801.52 67.4314 1808.93 67.4314 Q1813.23 67.4314 1817.24 66.3781 Q1821.29 65.3249 1825.26 63.2184 L1825.26 70.267 Q1821.25 71.9684 1817.03 72.8596 Q1812.82 73.7508 1808.49 73.7508 Q1797.63 73.7508 1791.27 67.4314 Q1784.95 61.1119 1784.95 50.3365 Q1784.95 39.1965 1790.95 32.6746 Q1796.98 26.1121 1807.19 26.1121 Q1816.35 26.1121 1821.65 32.0264 Q1827 37.9003 1827 48.0275 M1819.55 45.84 Q1819.47 39.7232 1816.1 36.0774 Q1812.78 32.4315 1807.27 32.4315 Q1801.03 32.4315 1797.27 35.9558 Q1793.54 39.4801 1792.97 45.8805 L1819.55 45.84 Z" fill="#000000" fill-rule="nonzero" fill-opacity="1" /><path clip-path="url(#clip280)" d="M1875.49 27.2059 L1859.08 49.2833 L1876.34 72.576 L1867.55 72.576 L1854.34 54.752 L1841.14 72.576 L1832.35 72.576 L1849.97 48.8377 L1833.85 27.2059 L1842.64 27.2059 L1854.67 43.369 L1866.7 27.2059 L1875.49 27.2059 Z" fill="#000000" fill-rule="nonzero" fill-opacity="1" /><polyline clip-path="url(#clip282)" style="stroke:#009af9; stroke-linecap:round; stroke-linejoin:round; stroke-width:4; stroke-opacity:1; fill:none" points="367.683,327.112 406.229,373.63 444.774,434.225 483.319,450.473 521.864,528.198 560.409,618.042 598.954,753.748 637.499,809.812 676.044,843.418 714.589,886.778 753.134,885.84 791.679,941.189 830.225,962.733 868.77,1007.24 907.315,1036.51 945.86,1093.11 984.405,1121.62 1022.95,1140.96 1061.5,1169.87 1100.04,1195.04 1138.59,1216.2 1177.13,1242.6 1215.68,1249.25 1254.22,1269.6 1292.77,1274.93 1331.31,1285.22 1369.86,1302.69 1408.4,1315.69 1446.95,1327.52 1485.49,1331.14 1524.04,1340.81 1562.58,1347.94 1601.13,1356.41 1639.67,1361.34 1678.22,1367.76 1716.76,1368.5 1755.31,1368.83 1793.85,1373.19 1832.4,1374.12 1870.94,1376.3 1909.49,1378.59 1948.03,1379.19 1986.58,1379.2 2025.12,1379.77 2063.67,1383.34 2102.21,1384.01 2140.76,1384.12 2179.3,1386.32 2217.85,1386.4 2256.39,1386.37 2294.94,1386.37 "/>
<polyline clip-path="url(#clip282)" style="stroke:#e26f46; stroke-linecap:round; stroke-linejoin:round; stroke-width:4; stroke-opacity:1; fill:none" points="367.683,715.084 406.229,773.321 444.774,798.217 483.319,823.564 521.864,821.187 560.409,797.122 598.954,760.862 637.499,754.834 676.044,737.917 714.589,723.122 753.134,724.287 791.679,704.696 830.225,695.192 868.77,671.663 907.315,654.655 945.86,615.55 984.405,590.178 1022.95,578.243 1061.5,551.279 1100.04,523.884 1138.59,503.866 1177.13,462.398 1215.68,454.153 1254.22,430.383 1292.77,421.511 1331.31,401.494 1369.86,371.019 1408.4,350.904 1446.95,333.433 1485.49,324.866 1524.04,302.194 1562.58,291.964 1601.13,275.838 1639.67,264.753 1678.22,250.378 1716.76,249.381 1755.31,249.433 1793.85,242.117 1832.4,239.728 1870.94,234.006 1909.49,229.574 1948.03,227.651 1986.58,227.451 2025.12,226.14 2063.67,218.484 2102.21,217.296 2140.76,217.153 2179.3,211.825 2217.85,211.305 2256.39,211.276 2294.94,211.276 "/>
<polyline clip-path="url(#clip282)" style="stroke:#3da44d; stroke-linecap:round; stroke-linejoin:round; stroke-width:4; stroke-opacity:1; fill:none" points="367.683,350.36 406.229,364.227 444.774,353.159 483.319,339.97 521.864,335.073 560.409,326.98 598.954,320.142 637.499,303.165 676.044,309.875 714.589,299.227 753.134,300.434 791.679,302.998 830.225,296.151 868.77,286.905 907.315,282.058 945.86,283.5 984.405,280.138 1022.95,270.259 1061.5,265.753 1100.04,264.252 1138.59,263.669 1177.13,292.803 1215.68,285.213 1254.22,281.735 1292.77,291.856 1331.31,310.98 1369.86,320.903 1408.4,312.547 1446.95,311.284 1485.49,319.363 1524.04,328.923 1562.58,320.498 1601.13,321.62 1639.67,326.955 1678.22,327.976 1716.76,325.871 1755.31,323.241 1793.85,321.626 1832.4,323.662 1870.94,327.739 1909.49,325.159 1948.03,325.072 1986.58,324.635 2025.12,323.784 2063.67,325.344 2102.21,326.321 2140.76,326.69 2179.3,327.212 2217.85,327.455 2256.39,327.501 2294.94,327.501 "/>
<polyline clip-path="url(#clip282)" style="stroke:#c271d2; stroke-linecap:round; stroke-linejoin:round; stroke-width:4; stroke-opacity:1; fill:none" points="367.683,524.303 406.229,475.958 444.774,480.065 483.319,462.87 521.864,447.24 560.409,449.965 598.954,429.512 637.499,421.019 676.044,427.783 714.589,418.833 753.134,412.288 791.679,399.268 830.225,408.165 868.77,406.027 907.315,404.839 945.86,407.575 984.405,410.196 1022.95,407.998 1061.5,415.549 1100.04,429.88 1138.59,433.433 1177.13,404.724 1215.68,419.237 1254.22,432.849 1292.77,422.238 1331.31,404.369 1369.86,401.307 1408.4,418.508 1446.95,424.384 1485.49,419.335 1524.04,416.485 1562.58,428.524 1601.13,432.316 1639.67,430.681 1678.22,434.53 1716.76,435.822 1755.31,437.756 1793.85,441.148 1832.4,440.547 1870.94,436.249 1909.49,439.518 1948.03,441.736 1986.58,443.179 2025.12,446.357 2063.67,447.782 2102.21,445.84 2140.76,444.828 2179.3,444.382 2217.85,445.169 2256.39,445.356 2294.94,445.356 "/>
<polyline clip-path="url(#clip282)" style="stroke:#ac8d18; stroke-linecap:round; stroke-linejoin:round; stroke-width:4; stroke-opacity:1; fill:none" points="367.683,263.069 406.229,256.05 444.774,223.907 483.319,204.963 521.864,189.252 560.409,204.254 598.954,222.084 637.499,236.523 676.044,213.844 714.589,225.24 753.134,231.645 791.679,244.087 830.225,237.501 868.77,235.453 907.315,248.675 945.86,255.635 984.405,269.092 1022.95,299.719 1061.5,318.358 1100.04,324.128 1138.59,319.316 1177.13,325.547 1215.68,320.979 1254.22,321.323 1292.77,320.255 1331.31,322.941 1369.86,324.53 1408.4,320.496 1446.95,321.128 1485.49,320.405 1524.04,320.917 1562.58,321.784 1601.13,321.856 1639.67,321.103 1678.22,317.815 1716.76,321.533 1755.31,323.986 1793.85,326.836 1832.4,324.389 1870.94,323.076 1909.49,324.042 1948.03,324.03 1986.58,323.674 2025.12,323.015 2063.67,322.117 2102.21,322.372 2140.76,322.641 2179.3,322.874 2217.85,322.655 2256.39,322.519 2294.94,322.519 "/>
<polyline clip-path="url(#clip282)" style="stroke:#00a9ad; stroke-linecap:round; stroke-linejoin:round; stroke-width:4; stroke-opacity:1; fill:none" points="367.683,375.622 406.229,362.99 444.774,351.241 483.319,354.236 521.864,354.953 560.409,341.614 598.954,325.063 637.499,300.816 676.044,304.862 714.589,292.188 753.134,297.155 791.679,298.409 830.225,276.981 868.77,267.31 907.315,264.402 945.86,236.58 984.405,225.975 1022.95,218.115 1061.5,206.956 1100.04,198.976 1138.59,175.731 1177.13,195.709 1215.68,189.579 1254.22,176.003 1292.77,179.265 1331.31,184.253 1369.86,182.287 1408.4,178.987 1446.95,175.021 1485.49,177.175 1524.04,178.711 1562.58,170.963 1601.13,169.624 1639.67,170.118 1678.22,172.622 1716.76,169.41 1755.31,166.345 1793.85,160.388 1832.4,163.318 1870.94,169.459 1909.49,169.191 1948.03,165.8 1986.58,164.398 2025.12,160.261 2063.67,160.256 2102.21,162.86 2140.76,163.941 2179.3,166.439 2217.85,165.109 2256.39,164.893 2294.94,164.893 "/>
<polyline clip-path="url(#clip282)" style="stroke:#ed5d92; stroke-linecap:round; stroke-linejoin:round; stroke-width:4; stroke-opacity:1; fill:none" points="367.683,531.683 406.229,539.164 444.774,511.371 483.319,503.643 521.864,496.11 560.409,495.724 598.954,485.889 637.499,481.793 676.044,468.979 714.589,471.885 753.134,458.212 791.679,402.601 830.225,436.235 868.77,475.806 907.315,425.662 945.86,422.365 984.405,398.902 1022.95,345.028 1061.5,302.227 1100.04,266.461 1138.59,305.012 1177.13,302.614 1215.68,300.841 1254.22,291.55 1292.77,302.346 1331.31,313.387 1369.86,318.955 1408.4,310.889 1446.95,305.967 1485.49,308.324 1524.04,311.22 1562.58,307.551 1601.13,304.744 1639.67,306.675 1678.22,308.352 1716.76,305.413 1755.31,303.635 1793.85,302.189 1832.4,302.475 1870.94,304.326 1909.49,300.859 1948.03,302.322 1986.58,302.61 2025.12,304.665 2063.67,303.718 2102.21,302.684 2140.76,302.322 2179.3,302.058 2217.85,302.762 2256.39,302.91 2294.94,302.91 "/>
<polyline clip-path="url(#clip282)" style="stroke:#c68125; stroke-linecap:round; stroke-linejoin:round; stroke-width:4; stroke-opacity:1; fill:none" points="367.683,485.539 406.229,444.943 444.774,472.147 483.319,497.951 521.864,515.807 560.409,519.886 598.954,561.434 637.499,581.397 676.044,601.267 714.589,631.478 753.134,643.141 791.679,675.89 830.225,657.995 868.77,638.4 907.315,698.198 945.86,710.169 984.405,748.087 1022.95,787.125 1061.5,817.945 1100.04,839.958 1138.59,821.57 1177.13,827.057 1215.68,832.883 1254.22,835.626 1292.77,828.577 1331.31,821.741 1369.86,821.893 1408.4,831.147 1446.95,832.481 1485.49,830.38 1524.04,832.227 1562.58,835.513 1601.13,837.257 1639.67,835.947 1678.22,836.427 1716.76,838.817 1755.31,840.44 1793.85,840.674 1832.4,839.878 1870.94,838.402 1909.49,841.063 1948.03,841.163 1986.58,841.379 2025.12,840.815 2063.67,840.614 2102.21,840.472 2140.76,840.403 2179.3,841.063 2217.85,840.965 2256.39,840.936 2294.94,840.936 "/>
<polyline clip-path="url(#clip282)" style="stroke:#00a98d; stroke-linecap:round; stroke-linejoin:round; stroke-width:4; stroke-opacity:1; fill:none" points="367.683,757.21 406.229,833.007 444.774,867.072 483.319,852.996 521.864,859.919 560.409,860.506 598.954,821.737 637.499,815.127 676.044,813.708 714.589,750.945 753.134,744.246 791.679,780.228 830.225,789.435 868.77,769.251 907.315,726.395 945.86,736.501 984.405,682.364 1022.95,668.889 1061.5,654.866 1100.04,654.388 1138.59,674.962 1177.13,646.362 1215.68,635.87 1254.22,660.62 1292.77,666.327 1331.31,665.373 1369.86,656.216 1408.4,644.013 1446.95,655.461 1485.49,657.963 1524.04,643.421 1562.58,644.357 1601.13,646.095 1639.67,648.234 1678.22,640.402 1716.76,638.349 1755.31,637.383 1793.85,644.326 1832.4,645.764 1870.94,642.582 1909.49,639.015 1948.03,637.993 1986.58,637.781 2025.12,639.174 2063.67,643.044 2102.21,643.761 2140.76,643.864 2179.3,639.067 2217.85,639.013 2256.39,639.041 2294.94,639.041 "/>
</svg>
