<?xml version="1.0" encoding="utf-8"?>
<svg xmlns="http://www.w3.org/2000/svg" xmlns:xlink="http://www.w3.org/1999/xlink" width="600" height="400" viewBox="0 0 2400 1600">
<defs>
  <clipPath id="clip780">
    <rect x="0" y="0" width="2400" height="1600"/>
  </clipPath>
</defs>
<path clip-path="url(#clip780)" d="M0 1600 L2400 1600 L2400 0 L0 0  Z" fill="#ffffff" fill-rule="evenodd" fill-opacity="1"/>
<defs>
  <clipPath id="clip781">
    <rect x="480" y="0" width="1681" height="1600"/>
  </clipPath>
</defs>
<path clip-path="url(#clip780)" d="M310.352 1423.18 L2352.76 1423.18 L2352.76 123.472 L310.352 123.472  Z" fill="#ffffff" fill-rule="evenodd" fill-opacity="1"/>
<defs>
  <clipPath id="clip782">
    <rect x="310" y="123" width="2043" height="1301"/>
  </clipPath>
</defs>
<polyline clip-path="url(#clip782)" style="stroke:#000000; stroke-linecap:round; stroke-linejoin:round; stroke-width:2; stroke-opacity:0.1; fill:none" points="329.62,1423.18 329.62,123.472 "/>
<polyline clip-path="url(#clip782)" style="stroke:#000000; stroke-linecap:round; stroke-linejoin:round; stroke-width:2; stroke-opacity:0.1; fill:none" points="714.979,1423.18 714.979,123.472 "/>
<polyline clip-path="url(#clip782)" style="stroke:#000000; stroke-linecap:round; stroke-linejoin:round; stroke-width:2; stroke-opacity:0.1; fill:none" points="1100.34,1423.18 1100.34,123.472 "/>
<polyline clip-path="url(#clip782)" style="stroke:#000000; stroke-linecap:round; stroke-linejoin:round; stroke-width:2; stroke-opacity:0.1; fill:none" points="1485.7,1423.18 1485.7,123.472 "/>
<polyline clip-path="url(#clip782)" style="stroke:#000000; stroke-linecap:round; stroke-linejoin:round; stroke-width:2; stroke-opacity:0.1; fill:none" points="1871.06,1423.18 1871.06,123.472 "/>
<polyline clip-path="url(#clip782)" style="stroke:#000000; stroke-linecap:round; stroke-linejoin:round; stroke-width:2; stroke-opacity:0.1; fill:none" points="2256.42,1423.18 2256.42,123.472 "/>
<polyline clip-path="url(#clip782)" style="stroke:#000000; stroke-linecap:round; stroke-linejoin:round; stroke-width:2; stroke-opacity:0.1; fill:none" points="310.352,1233.98 2352.76,1233.98 "/>
<polyline clip-path="url(#clip782)" style="stroke:#000000; stroke-linecap:round; stroke-linejoin:round; stroke-width:2; stroke-opacity:0.1; fill:none" points="310.352,989.447 2352.76,989.447 "/>
<polyline clip-path="url(#clip782)" style="stroke:#000000; stroke-linecap:round; stroke-linejoin:round; stroke-width:2; stroke-opacity:0.1; fill:none" points="310.352,744.915 2352.76,744.915 "/>
<polyline clip-path="url(#clip782)" style="stroke:#000000; stroke-linecap:round; stroke-linejoin:round; stroke-width:2; stroke-opacity:0.1; fill:none" points="310.352,500.383 2352.76,500.383 "/>
<polyline clip-path="url(#clip782)" style="stroke:#000000; stroke-linecap:round; stroke-linejoin:round; stroke-width:2; stroke-opacity:0.1; fill:none" points="310.352,255.851 2352.76,255.851 "/>
<polyline clip-path="url(#clip780)" style="stroke:#000000; stroke-linecap:round; stroke-linejoin:round; stroke-width:4; stroke-opacity:1; fill:none" points="310.352,1423.18 2352.76,1423.18 "/>
<polyline clip-path="url(#clip780)" style="stroke:#000000; stroke-linecap:round; stroke-linejoin:round; stroke-width:4; stroke-opacity:1; fill:none" points="329.62,1423.18 329.62,1404.28 "/>
<polyline clip-path="url(#clip780)" style="stroke:#000000; stroke-linecap:round; stroke-linejoin:round; stroke-width:4; stroke-opacity:1; fill:none" points="714.979,1423.18 714.979,1404.28 "/>
<polyline clip-path="url(#clip780)" style="stroke:#000000; stroke-linecap:round; stroke-linejoin:round; stroke-width:4; stroke-opacity:1; fill:none" points="1100.34,1423.18 1100.34,1404.28 "/>
<polyline clip-path="url(#clip780)" style="stroke:#000000; stroke-linecap:round; stroke-linejoin:round; stroke-width:4; stroke-opacity:1; fill:none" points="1485.7,1423.18 1485.7,1404.28 "/>
<polyline clip-path="url(#clip780)" style="stroke:#000000; stroke-linecap:round; stroke-linejoin:round; stroke-width:4; stroke-opacity:1; fill:none" points="1871.06,1423.18 1871.06,1404.28 "/>
<polyline clip-path="url(#clip780)" style="stroke:#000000; stroke-linecap:round; stroke-linejoin:round; stroke-width:4; stroke-opacity:1; fill:none" points="2256.42,1423.18 2256.42,1404.28 "/>
<path clip-path="url(#clip780)" d="M329.62 1454.1 Q326.009 1454.1 324.18 1457.66 Q322.375 1461.2 322.375 1468.33 Q322.375 1475.44 324.18 1479.01 Q326.009 1482.55 329.62 1482.55 Q333.254 1482.55 335.06 1479.01 Q336.888 1475.44 336.888 1468.33 Q336.888 1461.2 335.06 1457.66 Q333.254 1454.1 329.62 1454.1 M329.62 1450.39 Q335.43 1450.39 338.486 1455 Q341.564 1459.58 341.564 1468.33 Q341.564 1477.06 338.486 1481.67 Q335.43 1486.25 329.62 1486.25 Q323.81 1486.25 320.731 1481.67 Q317.675 1477.06 317.675 1468.33 Q317.675 1459.58 320.731 1455 Q323.81 1450.39 329.62 1450.39 Z" fill="#000000" fill-rule="nonzero" fill-opacity="1" /><path clip-path="url(#clip780)" d="M689.667 1481.64 L697.306 1481.64 L697.306 1455.28 L688.995 1456.95 L688.995 1452.69 L697.259 1451.02 L701.935 1451.02 L701.935 1481.64 L709.574 1481.64 L709.574 1485.58 L689.667 1485.58 L689.667 1481.64 Z" fill="#000000" fill-rule="nonzero" fill-opacity="1" /><path clip-path="url(#clip780)" d="M729.018 1454.1 Q725.407 1454.1 723.579 1457.66 Q721.773 1461.2 721.773 1468.33 Q721.773 1475.44 723.579 1479.01 Q725.407 1482.55 729.018 1482.55 Q732.653 1482.55 734.458 1479.01 Q736.287 1475.44 736.287 1468.33 Q736.287 1461.2 734.458 1457.66 Q732.653 1454.1 729.018 1454.1 M729.018 1450.39 Q734.829 1450.39 737.884 1455 Q740.963 1459.58 740.963 1468.33 Q740.963 1477.06 737.884 1481.67 Q734.829 1486.25 729.018 1486.25 Q723.208 1486.25 720.13 1481.67 Q717.074 1477.06 717.074 1468.33 Q717.074 1459.58 720.13 1455 Q723.208 1450.39 729.018 1450.39 Z" fill="#000000" fill-rule="nonzero" fill-opacity="1" /><path clip-path="url(#clip780)" d="M1079.11 1481.64 L1095.43 1481.64 L1095.43 1485.58 L1073.49 1485.58 L1073.49 1481.64 Q1076.15 1478.89 1080.73 1474.26 Q1085.34 1469.61 1086.52 1468.27 Q1088.76 1465.74 1089.64 1464.01 Q1090.55 1462.25 1090.55 1460.56 Q1090.55 1457.8 1088.6 1456.07 Q1086.68 1454.33 1083.58 1454.33 Q1081.38 1454.33 1078.93 1455.09 Q1076.5 1455.86 1073.72 1457.41 L1073.72 1452.69 Q1076.54 1451.55 1079 1450.97 Q1081.45 1450.39 1083.49 1450.39 Q1088.86 1450.39 1092.05 1453.08 Q1095.25 1455.77 1095.25 1460.26 Q1095.25 1462.39 1094.44 1464.31 Q1093.65 1466.2 1091.54 1468.8 Q1090.96 1469.47 1087.86 1472.69 Q1084.76 1475.88 1079.11 1481.64 Z" fill="#000000" fill-rule="nonzero" fill-opacity="1" /><path clip-path="url(#clip780)" d="M1115.25 1454.1 Q1111.63 1454.1 1109.81 1457.66 Q1108 1461.2 1108 1468.33 Q1108 1475.44 1109.81 1479.01 Q1111.63 1482.55 1115.25 1482.55 Q1118.88 1482.55 1120.69 1479.01 Q1122.51 1475.44 1122.51 1468.33 Q1122.51 1461.2 1120.69 1457.66 Q1118.88 1454.1 1115.25 1454.1 M1115.25 1450.39 Q1121.06 1450.39 1124.11 1455 Q1127.19 1459.58 1127.19 1468.33 Q1127.19 1477.06 1124.11 1481.67 Q1121.06 1486.25 1115.25 1486.25 Q1109.44 1486.25 1106.36 1481.67 Q1103.3 1477.06 1103.3 1468.33 Q1103.3 1459.58 1106.36 1455 Q1109.44 1450.39 1115.25 1450.39 Z" fill="#000000" fill-rule="nonzero" fill-opacity="1" /><path clip-path="url(#clip780)" d="M1474.54 1466.95 Q1477.9 1467.66 1479.77 1469.93 Q1481.67 1472.2 1481.67 1475.53 Q1481.67 1480.65 1478.15 1483.45 Q1474.63 1486.25 1468.15 1486.25 Q1465.98 1486.25 1463.66 1485.81 Q1461.37 1485.39 1458.92 1484.54 L1458.92 1480.02 Q1460.86 1481.16 1463.17 1481.74 Q1465.49 1482.32 1468.01 1482.32 Q1472.41 1482.32 1474.7 1480.58 Q1477.02 1478.84 1477.02 1475.53 Q1477.02 1472.48 1474.86 1470.77 Q1472.73 1469.03 1468.92 1469.03 L1464.89 1469.03 L1464.89 1465.19 L1469.1 1465.19 Q1472.55 1465.19 1474.38 1463.82 Q1476.21 1462.43 1476.21 1459.84 Q1476.21 1457.18 1474.31 1455.77 Q1472.43 1454.33 1468.92 1454.33 Q1466.99 1454.33 1464.79 1454.75 Q1462.6 1455.16 1459.96 1456.04 L1459.96 1451.88 Q1462.62 1451.14 1464.93 1450.77 Q1467.27 1450.39 1469.33 1450.39 Q1474.66 1450.39 1477.76 1452.83 Q1480.86 1455.23 1480.86 1459.35 Q1480.86 1462.22 1479.22 1464.21 Q1477.57 1466.18 1474.54 1466.95 Z" fill="#000000" fill-rule="nonzero" fill-opacity="1" /><path clip-path="url(#clip780)" d="M1500.54 1454.1 Q1496.92 1454.1 1495.1 1457.66 Q1493.29 1461.2 1493.29 1468.33 Q1493.29 1475.44 1495.1 1479.01 Q1496.92 1482.55 1500.54 1482.55 Q1504.17 1482.55 1505.98 1479.01 Q1507.8 1475.44 1507.8 1468.33 Q1507.8 1461.2 1505.98 1457.66 Q1504.17 1454.1 1500.54 1454.1 M1500.54 1450.39 Q1506.35 1450.39 1509.4 1455 Q1512.48 1459.58 1512.48 1468.33 Q1512.48 1477.06 1509.4 1481.67 Q1506.35 1486.25 1500.54 1486.25 Q1494.73 1486.25 1491.65 1481.67 Q1488.59 1477.06 1488.59 1468.33 Q1488.59 1459.58 1491.65 1455 Q1494.73 1450.39 1500.54 1450.39 Z" fill="#000000" fill-rule="nonzero" fill-opacity="1" /><path clip-path="url(#clip780)" d="M1859.23 1455.09 L1847.42 1473.54 L1859.23 1473.54 L1859.23 1455.09 M1858 1451.02 L1863.88 1451.02 L1863.88 1473.54 L1868.81 1473.54 L1868.81 1477.43 L1863.88 1477.43 L1863.88 1485.58 L1859.23 1485.58 L1859.23 1477.43 L1843.63 1477.43 L1843.63 1472.92 L1858 1451.02 Z" fill="#000000" fill-rule="nonzero" fill-opacity="1" /><path clip-path="url(#clip780)" d="M1886.54 1454.1 Q1882.93 1454.1 1881.1 1457.66 Q1879.3 1461.2 1879.3 1468.33 Q1879.3 1475.44 1881.1 1479.01 Q1882.93 1482.55 1886.54 1482.55 Q1890.18 1482.55 1891.98 1479.01 Q1893.81 1475.44 1893.81 1468.33 Q1893.81 1461.2 1891.98 1457.66 Q1890.18 1454.1 1886.54 1454.1 M1886.54 1450.39 Q1892.35 1450.39 1895.41 1455 Q1898.49 1459.58 1898.49 1468.33 Q1898.49 1477.06 1895.41 1481.67 Q1892.35 1486.25 1886.54 1486.25 Q1880.73 1486.25 1877.65 1481.67 Q1874.6 1477.06 1874.6 1468.33 Q1874.6 1459.58 1877.65 1455 Q1880.73 1450.39 1886.54 1450.39 Z" fill="#000000" fill-rule="nonzero" fill-opacity="1" /><path clip-path="url(#clip780)" d="M2231.12 1451.02 L2249.47 1451.02 L2249.47 1454.96 L2235.4 1454.96 L2235.4 1463.43 Q2236.42 1463.08 2237.43 1462.92 Q2238.45 1462.73 2239.47 1462.73 Q2245.26 1462.73 2248.64 1465.9 Q2252.02 1469.08 2252.02 1474.49 Q2252.02 1480.07 2248.55 1483.17 Q2245.07 1486.25 2238.75 1486.25 Q2236.58 1486.25 2234.31 1485.88 Q2232.06 1485.51 2229.66 1484.77 L2229.66 1480.07 Q2231.74 1481.2 2233.96 1481.76 Q2236.18 1482.32 2238.66 1482.32 Q2242.67 1482.32 2245 1480.21 Q2247.34 1478.1 2247.34 1474.49 Q2247.34 1470.88 2245 1468.77 Q2242.67 1466.67 2238.66 1466.67 Q2236.79 1466.67 2234.91 1467.08 Q2233.06 1467.5 2231.12 1468.38 L2231.12 1451.02 Z" fill="#000000" fill-rule="nonzero" fill-opacity="1" /><path clip-path="url(#clip780)" d="M2271.23 1454.1 Q2267.62 1454.1 2265.79 1457.66 Q2263.99 1461.2 2263.99 1468.33 Q2263.99 1475.44 2265.79 1479.01 Q2267.62 1482.55 2271.23 1482.55 Q2274.87 1482.55 2276.67 1479.01 Q2278.5 1475.44 2278.5 1468.33 Q2278.5 1461.2 2276.67 1457.66 Q2274.87 1454.1 2271.23 1454.1 M2271.23 1450.39 Q2277.04 1450.39 2280.1 1455 Q2283.18 1459.58 2283.18 1468.33 Q2283.18 1477.06 2280.1 1481.67 Q2277.04 1486.25 2271.23 1486.25 Q2265.42 1486.25 2262.34 1481.67 Q2259.29 1477.06 2259.29 1468.33 Q2259.29 1459.58 2262.34 1455 Q2265.42 1450.39 2271.23 1450.39 Z" fill="#000000" fill-rule="nonzero" fill-opacity="1" /><path clip-path="url(#clip780)" d="M1199.27 1520.52 L1205.7 1520.52 L1205.7 1568.04 L1199.27 1568.04 L1199.27 1520.52 Z" fill="#000000" fill-rule="nonzero" fill-opacity="1" /><path clip-path="url(#clip780)" d="M1224.04 1522.27 L1224.04 1532.4 L1236.1 1532.4 L1236.1 1536.95 L1224.04 1536.95 L1224.04 1556.3 Q1224.04 1560.66 1225.21 1561.9 Q1226.42 1563.14 1230.08 1563.14 L1236.1 1563.14 L1236.1 1568.04 L1230.08 1568.04 Q1223.31 1568.04 1220.73 1565.53 Q1218.15 1562.98 1218.15 1556.3 L1218.15 1536.95 L1213.85 1536.95 L1213.85 1532.4 L1218.15 1532.4 L1218.15 1522.27 L1224.04 1522.27 Z" fill="#000000" fill-rule="nonzero" fill-opacity="1" /><path clip-path="url(#clip780)" d="M1274.29 1548.76 L1274.29 1551.62 L1247.37 1551.62 Q1247.75 1557.67 1251 1560.85 Q1254.27 1564 1260.1 1564 Q1263.47 1564 1266.62 1563.17 Q1269.81 1562.35 1272.93 1560.69 L1272.93 1566.23 Q1269.77 1567.57 1266.46 1568.27 Q1263.15 1568.97 1259.75 1568.97 Q1251.22 1568.97 1246.22 1564 Q1241.26 1559.04 1241.26 1550.57 Q1241.26 1541.82 1245.97 1536.69 Q1250.71 1531.54 1258.73 1531.54 Q1265.92 1531.54 1270.09 1536.18 Q1274.29 1540.8 1274.29 1548.76 M1268.44 1547.04 Q1268.37 1542.23 1265.73 1539.37 Q1263.12 1536.5 1258.79 1536.5 Q1253.89 1536.5 1250.93 1539.27 Q1248 1542.04 1247.56 1547.07 L1268.44 1547.04 Z" fill="#000000" fill-rule="nonzero" fill-opacity="1" /><path clip-path="url(#clip780)" d="M1304.56 1537.87 Q1303.58 1537.3 1302.4 1537.04 Q1301.25 1536.76 1299.85 1536.76 Q1294.89 1536.76 1292.21 1540 Q1289.57 1543.22 1289.57 1549.27 L1289.57 1568.04 L1283.68 1568.04 L1283.68 1532.4 L1289.57 1532.4 L1289.57 1537.93 Q1291.42 1534.69 1294.38 1533.13 Q1297.34 1531.54 1301.57 1531.54 Q1302.18 1531.54 1302.91 1531.63 Q1303.64 1531.7 1304.53 1531.85 L1304.56 1537.87 Z" fill="#000000" fill-rule="nonzero" fill-opacity="1" /><path clip-path="url(#clip780)" d="M1326.91 1550.12 Q1319.81 1550.12 1317.07 1551.75 Q1314.33 1553.37 1314.33 1557.29 Q1314.33 1560.4 1316.37 1562.25 Q1318.44 1564.07 1321.97 1564.07 Q1326.84 1564.07 1329.77 1560.63 Q1332.73 1557.16 1332.73 1551.43 L1332.73 1550.12 L1326.91 1550.12 M1338.59 1547.71 L1338.59 1568.04 L1332.73 1568.04 L1332.73 1562.63 Q1330.73 1565.88 1327.73 1567.44 Q1324.74 1568.97 1320.41 1568.97 Q1314.94 1568.97 1311.69 1565.91 Q1308.48 1562.82 1308.48 1557.67 Q1308.48 1551.65 1312.49 1548.6 Q1316.53 1545.54 1324.52 1545.54 L1332.73 1545.54 L1332.73 1544.97 Q1332.73 1540.93 1330.06 1538.73 Q1327.42 1536.5 1322.61 1536.5 Q1319.55 1536.5 1316.66 1537.23 Q1313.76 1537.97 1311.09 1539.43 L1311.09 1534.02 Q1314.3 1532.78 1317.33 1532.17 Q1320.35 1531.54 1323.21 1531.54 Q1330.95 1531.54 1334.77 1535.55 Q1338.59 1539.56 1338.59 1547.71 Z" fill="#000000" fill-rule="nonzero" fill-opacity="1" /><path clip-path="url(#clip780)" d="M1356.44 1522.27 L1356.44 1532.4 L1368.51 1532.4 L1368.51 1536.95 L1356.44 1536.95 L1356.44 1556.3 Q1356.44 1560.66 1357.62 1561.9 Q1358.83 1563.14 1362.49 1563.14 L1368.51 1563.14 L1368.51 1568.04 L1362.49 1568.04 Q1355.71 1568.04 1353.13 1565.53 Q1350.56 1562.98 1350.56 1556.3 L1350.56 1536.95 L1346.26 1536.95 L1346.26 1532.4 L1350.56 1532.4 L1350.56 1522.27 L1356.44 1522.27 Z" fill="#000000" fill-rule="nonzero" fill-opacity="1" /><path clip-path="url(#clip780)" d="M1376.21 1532.4 L1382.07 1532.4 L1382.07 1568.04 L1376.21 1568.04 L1376.21 1532.4 M1376.21 1518.52 L1382.07 1518.52 L1382.07 1525.93 L1376.21 1525.93 L1376.21 1518.52 Z" fill="#000000" fill-rule="nonzero" fill-opacity="1" /><path clip-path="url(#clip780)" d="M1408.13 1536.5 Q1403.42 1536.5 1400.69 1540.19 Q1397.95 1543.85 1397.95 1550.25 Q1397.95 1556.65 1400.65 1560.34 Q1403.39 1564 1408.13 1564 Q1412.81 1564 1415.55 1560.31 Q1418.29 1556.62 1418.29 1550.25 Q1418.29 1543.92 1415.55 1540.23 Q1412.81 1536.5 1408.13 1536.5 M1408.13 1531.54 Q1415.77 1531.54 1420.13 1536.5 Q1424.49 1541.47 1424.49 1550.25 Q1424.49 1559 1420.13 1564 Q1415.77 1568.97 1408.13 1568.97 Q1400.46 1568.97 1396.1 1564 Q1391.77 1559 1391.77 1550.25 Q1391.77 1541.47 1396.1 1536.5 Q1400.46 1531.54 1408.13 1531.54 Z" fill="#000000" fill-rule="nonzero" fill-opacity="1" /><path clip-path="url(#clip780)" d="M1463.83 1546.53 L1463.83 1568.04 L1457.98 1568.04 L1457.98 1546.72 Q1457.98 1541.66 1456 1539.14 Q1454.03 1536.63 1450.08 1536.63 Q1445.34 1536.63 1442.6 1539.65 Q1439.87 1542.68 1439.87 1547.9 L1439.87 1568.04 L1433.98 1568.04 L1433.98 1532.4 L1439.87 1532.4 L1439.87 1537.93 Q1441.97 1534.72 1444.8 1533.13 Q1447.66 1531.54 1451.39 1531.54 Q1457.53 1531.54 1460.68 1535.36 Q1463.83 1539.14 1463.83 1546.53 Z" fill="#000000" fill-rule="nonzero" fill-opacity="1" /><polyline clip-path="url(#clip780)" style="stroke:#000000; stroke-linecap:round; stroke-linejoin:round; stroke-width:4; stroke-opacity:1; fill:none" points="310.352,1423.18 310.352,123.472 "/>
<polyline clip-path="url(#clip780)" style="stroke:#000000; stroke-linecap:round; stroke-linejoin:round; stroke-width:4; stroke-opacity:1; fill:none" points="310.352,1233.98 329.25,1233.98 "/>
<polyline clip-path="url(#clip780)" style="stroke:#000000; stroke-linecap:round; stroke-linejoin:round; stroke-width:4; stroke-opacity:1; fill:none" points="310.352,989.447 329.25,989.447 "/>
<polyline clip-path="url(#clip780)" style="stroke:#000000; stroke-linecap:round; stroke-linejoin:round; stroke-width:4; stroke-opacity:1; fill:none" points="310.352,744.915 329.25,744.915 "/>
<polyline clip-path="url(#clip780)" style="stroke:#000000; stroke-linecap:round; stroke-linejoin:round; stroke-width:4; stroke-opacity:1; fill:none" points="310.352,500.383 329.25,500.383 "/>
<polyline clip-path="url(#clip780)" style="stroke:#000000; stroke-linecap:round; stroke-linejoin:round; stroke-width:4; stroke-opacity:1; fill:none" points="310.352,255.851 329.25,255.851 "/>
<path clip-path="url(#clip780)" d="M126.783 1219.78 Q123.172 1219.78 121.343 1223.34 Q119.538 1226.88 119.538 1234.01 Q119.538 1241.12 121.343 1244.69 Q123.172 1248.23 126.783 1248.23 Q130.417 1248.23 132.223 1244.69 Q134.052 1241.12 134.052 1234.01 Q134.052 1226.88 132.223 1223.34 Q130.417 1219.78 126.783 1219.78 M126.783 1216.07 Q132.593 1216.07 135.649 1220.68 Q138.728 1225.26 138.728 1234.01 Q138.728 1242.74 135.649 1247.35 Q132.593 1251.93 126.783 1251.93 Q120.973 1251.93 117.894 1247.35 Q114.839 1242.74 114.839 1234.01 Q114.839 1225.26 117.894 1220.68 Q120.973 1216.07 126.783 1216.07 Z" fill="#000000" fill-rule="nonzero" fill-opacity="1" /><path clip-path="url(#clip780)" d="M146.945 1245.38 L151.829 1245.38 L151.829 1251.26 L146.945 1251.26 L146.945 1245.38 Z" fill="#000000" fill-rule="nonzero" fill-opacity="1" /><path clip-path="url(#clip780)" d="M172.014 1219.78 Q168.403 1219.78 166.575 1223.34 Q164.769 1226.88 164.769 1234.01 Q164.769 1241.12 166.575 1244.69 Q168.403 1248.23 172.014 1248.23 Q175.649 1248.23 177.454 1244.69 Q179.283 1241.12 179.283 1234.01 Q179.283 1226.88 177.454 1223.34 Q175.649 1219.78 172.014 1219.78 M172.014 1216.07 Q177.825 1216.07 180.88 1220.68 Q183.959 1225.26 183.959 1234.01 Q183.959 1242.74 180.88 1247.35 Q177.825 1251.93 172.014 1251.93 Q166.204 1251.93 163.126 1247.35 Q160.07 1242.74 160.07 1234.01 Q160.07 1225.26 163.126 1220.68 Q166.204 1216.07 172.014 1216.07 Z" fill="#000000" fill-rule="nonzero" fill-opacity="1" /><path clip-path="url(#clip780)" d="M202.176 1219.78 Q198.565 1219.78 196.737 1223.34 Q194.931 1226.88 194.931 1234.01 Q194.931 1241.12 196.737 1244.69 Q198.565 1248.23 202.176 1248.23 Q205.811 1248.23 207.616 1244.69 Q209.445 1241.12 209.445 1234.01 Q209.445 1226.88 207.616 1223.34 Q205.811 1219.78 202.176 1219.78 M202.176 1216.07 Q207.987 1216.07 211.042 1220.68 Q214.121 1225.26 214.121 1234.01 Q214.121 1242.74 211.042 1247.35 Q207.987 1251.93 202.176 1251.93 Q196.366 1251.93 193.288 1247.35 Q190.232 1242.74 190.232 1234.01 Q190.232 1225.26 193.288 1220.68 Q196.366 1216.07 202.176 1216.07 Z" fill="#000000" fill-rule="nonzero" fill-opacity="1" /><path clip-path="url(#clip780)" d="M232.338 1234.85 Q229.005 1234.85 227.084 1236.63 Q225.185 1238.41 225.185 1241.54 Q225.185 1244.66 227.084 1246.44 Q229.005 1248.23 232.338 1248.23 Q235.672 1248.23 237.593 1246.44 Q239.514 1244.64 239.514 1241.54 Q239.514 1238.41 237.593 1236.63 Q235.695 1234.85 232.338 1234.85 M227.662 1232.86 Q224.653 1232.12 222.963 1230.06 Q221.297 1228 221.297 1225.03 Q221.297 1220.89 224.236 1218.48 Q227.199 1216.07 232.338 1216.07 Q237.5 1216.07 240.44 1218.48 Q243.38 1220.89 243.38 1225.03 Q243.38 1228 241.69 1230.06 Q240.023 1232.12 237.037 1232.86 Q240.417 1233.64 242.292 1235.94 Q244.19 1238.23 244.19 1241.54 Q244.19 1246.56 241.111 1249.25 Q238.056 1251.93 232.338 1251.93 Q226.621 1251.93 223.542 1249.25 Q220.486 1246.56 220.486 1241.54 Q220.486 1238.23 222.385 1235.94 Q224.283 1233.64 227.662 1232.86 M225.949 1225.47 Q225.949 1228.16 227.616 1229.66 Q229.306 1231.17 232.338 1231.17 Q235.347 1231.17 237.037 1229.66 Q238.75 1228.16 238.75 1225.47 Q238.75 1222.79 237.037 1221.28 Q235.347 1219.78 232.338 1219.78 Q229.306 1219.78 227.616 1221.28 Q225.949 1222.79 225.949 1225.47 Z" fill="#000000" fill-rule="nonzero" fill-opacity="1" /><path clip-path="url(#clip780)" d="M262.5 1234.85 Q259.167 1234.85 257.246 1236.63 Q255.347 1238.41 255.347 1241.54 Q255.347 1244.66 257.246 1246.44 Q259.167 1248.23 262.5 1248.23 Q265.833 1248.23 267.755 1246.44 Q269.676 1244.64 269.676 1241.54 Q269.676 1238.41 267.755 1236.63 Q265.857 1234.85 262.5 1234.85 M257.824 1232.86 Q254.815 1232.12 253.125 1230.06 Q251.458 1228 251.458 1225.03 Q251.458 1220.89 254.398 1218.48 Q257.361 1216.07 262.5 1216.07 Q267.662 1216.07 270.602 1218.48 Q273.542 1220.89 273.542 1225.03 Q273.542 1228 271.852 1230.06 Q270.185 1232.12 267.199 1232.86 Q270.579 1233.64 272.454 1235.94 Q274.352 1238.23 274.352 1241.54 Q274.352 1246.56 271.273 1249.25 Q268.218 1251.93 262.5 1251.93 Q256.783 1251.93 253.704 1249.25 Q250.648 1246.56 250.648 1241.54 Q250.648 1238.23 252.546 1235.94 Q254.445 1233.64 257.824 1232.86 M256.111 1225.47 Q256.111 1228.16 257.778 1229.66 Q259.468 1231.17 262.5 1231.17 Q265.509 1231.17 267.199 1229.66 Q268.912 1228.16 268.912 1225.47 Q268.912 1222.79 267.199 1221.28 Q265.509 1219.78 262.5 1219.78 Q259.468 1219.78 257.778 1221.28 Q256.111 1222.79 256.111 1225.47 Z" fill="#000000" fill-rule="nonzero" fill-opacity="1" /><path clip-path="url(#clip780)" d="M126.691 975.246 Q123.08 975.246 121.251 978.811 Q119.445 982.352 119.445 989.482 Q119.445 996.588 121.251 1000.15 Q123.08 1003.69 126.691 1003.69 Q130.325 1003.69 132.13 1000.15 Q133.959 996.588 133.959 989.482 Q133.959 982.352 132.13 978.811 Q130.325 975.246 126.691 975.246 M126.691 971.542 Q132.501 971.542 135.556 976.149 Q138.635 980.732 138.635 989.482 Q138.635 998.209 135.556 1002.82 Q132.501 1007.4 126.691 1007.4 Q120.88 1007.4 117.802 1002.82 Q114.746 998.209 114.746 989.482 Q114.746 980.732 117.802 976.149 Q120.88 971.542 126.691 971.542 Z" fill="#000000" fill-rule="nonzero" fill-opacity="1" /><path clip-path="url(#clip780)" d="M146.853 1000.85 L151.737 1000.85 L151.737 1006.73 L146.853 1006.73 L146.853 1000.85 Z" fill="#000000" fill-rule="nonzero" fill-opacity="1" /><path clip-path="url(#clip780)" d="M171.922 975.246 Q168.311 975.246 166.482 978.811 Q164.677 982.352 164.677 989.482 Q164.677 996.588 166.482 1000.15 Q168.311 1003.69 171.922 1003.69 Q175.556 1003.69 177.362 1000.15 Q179.19 996.588 179.19 989.482 Q179.19 982.352 177.362 978.811 Q175.556 975.246 171.922 975.246 M171.922 971.542 Q177.732 971.542 180.788 976.149 Q183.866 980.732 183.866 989.482 Q183.866 998.209 180.788 1002.82 Q177.732 1007.4 171.922 1007.4 Q166.112 1007.4 163.033 1002.82 Q159.978 998.209 159.978 989.482 Q159.978 980.732 163.033 976.149 Q166.112 971.542 171.922 971.542 Z" fill="#000000" fill-rule="nonzero" fill-opacity="1" /><path clip-path="url(#clip780)" d="M202.084 975.246 Q198.473 975.246 196.644 978.811 Q194.838 982.352 194.838 989.482 Q194.838 996.588 196.644 1000.15 Q198.473 1003.69 202.084 1003.69 Q205.718 1003.69 207.524 1000.15 Q209.352 996.588 209.352 989.482 Q209.352 982.352 207.524 978.811 Q205.718 975.246 202.084 975.246 M202.084 971.542 Q207.894 971.542 210.949 976.149 Q214.028 980.732 214.028 989.482 Q214.028 998.209 210.949 1002.82 Q207.894 1007.4 202.084 1007.4 Q196.274 1007.4 193.195 1002.82 Q190.139 998.209 190.139 989.482 Q190.139 980.732 193.195 976.149 Q196.274 971.542 202.084 971.542 Z" fill="#000000" fill-rule="nonzero" fill-opacity="1" /><path clip-path="url(#clip780)" d="M222.385 1006.01 L222.385 1001.75 Q224.144 1002.58 225.949 1003.02 Q227.755 1003.46 229.491 1003.46 Q234.121 1003.46 236.551 1000.36 Q239.005 997.236 239.352 990.894 Q238.009 992.885 235.949 993.949 Q233.889 995.014 231.389 995.014 Q226.204 995.014 223.172 991.889 Q220.162 988.741 220.162 983.301 Q220.162 977.977 223.31 974.76 Q226.459 971.542 231.69 971.542 Q237.685 971.542 240.834 976.149 Q244.005 980.732 244.005 989.482 Q244.005 997.653 240.116 1002.54 Q236.25 1007.4 229.699 1007.4 Q227.94 1007.4 226.135 1007.05 Q224.329 1006.7 222.385 1006.01 M231.69 991.357 Q234.838 991.357 236.667 989.204 Q238.519 987.051 238.519 983.301 Q238.519 979.574 236.667 977.422 Q234.838 975.246 231.69 975.246 Q228.542 975.246 226.69 977.422 Q224.861 979.574 224.861 983.301 Q224.861 987.051 226.69 989.204 Q228.542 991.357 231.69 991.357 Z" fill="#000000" fill-rule="nonzero" fill-opacity="1" /><path clip-path="url(#clip780)" d="M262.408 975.246 Q258.796 975.246 256.968 978.811 Q255.162 982.352 255.162 989.482 Q255.162 996.588 256.968 1000.15 Q258.796 1003.69 262.408 1003.69 Q266.042 1003.69 267.847 1000.15 Q269.676 996.588 269.676 989.482 Q269.676 982.352 267.847 978.811 Q266.042 975.246 262.408 975.246 M262.408 971.542 Q268.218 971.542 271.273 976.149 Q274.352 980.732 274.352 989.482 Q274.352 998.209 271.273 1002.82 Q268.218 1007.4 262.408 1007.4 Q256.597 1007.4 253.519 1002.82 Q250.463 998.209 250.463 989.482 Q250.463 980.732 253.519 976.149 Q256.597 971.542 262.408 971.542 Z" fill="#000000" fill-rule="nonzero" fill-opacity="1" /><path clip-path="url(#clip780)" d="M128.288 730.714 Q124.677 730.714 122.848 734.278 Q121.043 737.82 121.043 744.95 Q121.043 752.056 122.848 755.621 Q124.677 759.163 128.288 759.163 Q131.922 759.163 133.728 755.621 Q135.556 752.056 135.556 744.95 Q135.556 737.82 133.728 734.278 Q131.922 730.714 128.288 730.714 M128.288 727.01 Q134.098 727.01 137.154 731.616 Q140.232 736.2 140.232 744.95 Q140.232 753.676 137.154 758.283 Q134.098 762.866 128.288 762.866 Q122.478 762.866 119.399 758.283 Q116.343 753.676 116.343 744.95 Q116.343 736.2 119.399 731.616 Q122.478 727.01 128.288 727.01 Z" fill="#000000" fill-rule="nonzero" fill-opacity="1" /><path clip-path="url(#clip780)" d="M148.45 756.315 L153.334 756.315 L153.334 762.195 L148.45 762.195 L148.45 756.315 Z" fill="#000000" fill-rule="nonzero" fill-opacity="1" /><path clip-path="url(#clip780)" d="M173.519 730.714 Q169.908 730.714 168.079 734.278 Q166.274 737.82 166.274 744.95 Q166.274 752.056 168.079 755.621 Q169.908 759.163 173.519 759.163 Q177.153 759.163 178.959 755.621 Q180.788 752.056 180.788 744.95 Q180.788 737.82 178.959 734.278 Q177.153 730.714 173.519 730.714 M173.519 727.01 Q179.329 727.01 182.385 731.616 Q185.463 736.2 185.463 744.95 Q185.463 753.676 182.385 758.283 Q179.329 762.866 173.519 762.866 Q167.709 762.866 164.63 758.283 Q161.575 753.676 161.575 744.95 Q161.575 736.2 164.63 731.616 Q167.709 727.01 173.519 727.01 Z" fill="#000000" fill-rule="nonzero" fill-opacity="1" /><path clip-path="url(#clip780)" d="M203.681 730.714 Q200.07 730.714 198.241 734.278 Q196.436 737.82 196.436 744.95 Q196.436 752.056 198.241 755.621 Q200.07 759.163 203.681 759.163 Q207.315 759.163 209.121 755.621 Q210.949 752.056 210.949 744.95 Q210.949 737.82 209.121 734.278 Q207.315 730.714 203.681 730.714 M203.681 727.01 Q209.491 727.01 212.547 731.616 Q215.625 736.2 215.625 744.95 Q215.625 753.676 212.547 758.283 Q209.491 762.866 203.681 762.866 Q197.871 762.866 194.792 758.283 Q191.737 753.676 191.737 744.95 Q191.737 736.2 194.792 731.616 Q197.871 727.01 203.681 727.01 Z" fill="#000000" fill-rule="nonzero" fill-opacity="1" /><path clip-path="url(#clip780)" d="M223.982 761.477 L223.982 757.218 Q225.741 758.051 227.547 758.491 Q229.352 758.931 231.088 758.931 Q235.718 758.931 238.148 755.829 Q240.602 752.704 240.949 746.362 Q239.607 748.352 237.547 749.417 Q235.486 750.482 232.986 750.482 Q227.801 750.482 224.769 747.357 Q221.76 744.209 221.76 738.769 Q221.76 733.445 224.908 730.228 Q228.056 727.01 233.287 727.01 Q239.283 727.01 242.431 731.616 Q245.602 736.2 245.602 744.95 Q245.602 753.121 241.713 758.005 Q237.847 762.866 231.297 762.866 Q229.537 762.866 227.732 762.519 Q225.926 762.172 223.982 761.477 M233.287 746.825 Q236.435 746.825 238.264 744.672 Q240.116 742.519 240.116 738.769 Q240.116 735.042 238.264 732.89 Q236.435 730.714 233.287 730.714 Q230.139 730.714 228.287 732.89 Q226.459 735.042 226.459 738.769 Q226.459 742.519 228.287 744.672 Q230.139 746.825 233.287 746.825 Z" fill="#000000" fill-rule="nonzero" fill-opacity="1" /><path clip-path="url(#clip780)" d="M258.033 758.26 L274.352 758.26 L274.352 762.195 L252.408 762.195 L252.408 758.26 Q255.07 755.505 259.653 750.876 Q264.259 746.223 265.44 744.88 Q267.685 742.357 268.565 740.621 Q269.468 738.862 269.468 737.172 Q269.468 734.417 267.523 732.681 Q265.602 730.945 262.5 730.945 Q260.301 730.945 257.847 731.709 Q255.417 732.473 252.639 734.024 L252.639 729.302 Q255.463 728.167 257.917 727.589 Q260.37 727.01 262.408 727.01 Q267.778 727.01 270.972 729.695 Q274.167 732.38 274.167 736.871 Q274.167 739.001 273.357 740.922 Q272.569 742.82 270.463 745.413 Q269.884 746.084 266.782 749.302 Q263.681 752.496 258.033 758.26 Z" fill="#000000" fill-rule="nonzero" fill-opacity="1" /><path clip-path="url(#clip780)" d="M126.205 486.182 Q122.593 486.182 120.765 489.746 Q118.959 493.288 118.959 500.418 Q118.959 507.524 120.765 511.089 Q122.593 514.63 126.205 514.63 Q129.839 514.63 131.644 511.089 Q133.473 507.524 133.473 500.418 Q133.473 493.288 131.644 489.746 Q129.839 486.182 126.205 486.182 M126.205 482.478 Q132.015 482.478 135.07 487.084 Q138.149 491.668 138.149 500.418 Q138.149 509.144 135.07 513.751 Q132.015 518.334 126.205 518.334 Q120.394 518.334 117.316 513.751 Q114.26 509.144 114.26 500.418 Q114.26 491.668 117.316 487.084 Q120.394 482.478 126.205 482.478 Z" fill="#000000" fill-rule="nonzero" fill-opacity="1" /><path clip-path="url(#clip780)" d="M146.366 511.783 L151.251 511.783 L151.251 517.663 L146.366 517.663 L146.366 511.783 Z" fill="#000000" fill-rule="nonzero" fill-opacity="1" /><path clip-path="url(#clip780)" d="M171.436 486.182 Q167.825 486.182 165.996 489.746 Q164.19 493.288 164.19 500.418 Q164.19 507.524 165.996 511.089 Q167.825 514.63 171.436 514.63 Q175.07 514.63 176.876 511.089 Q178.704 507.524 178.704 500.418 Q178.704 493.288 176.876 489.746 Q175.07 486.182 171.436 486.182 M171.436 482.478 Q177.246 482.478 180.301 487.084 Q183.38 491.668 183.38 500.418 Q183.38 509.144 180.301 513.751 Q177.246 518.334 171.436 518.334 Q165.626 518.334 162.547 513.751 Q159.491 509.144 159.491 500.418 Q159.491 491.668 162.547 487.084 Q165.626 482.478 171.436 482.478 Z" fill="#000000" fill-rule="nonzero" fill-opacity="1" /><path clip-path="url(#clip780)" d="M201.598 486.182 Q197.987 486.182 196.158 489.746 Q194.352 493.288 194.352 500.418 Q194.352 507.524 196.158 511.089 Q197.987 514.63 201.598 514.63 Q205.232 514.63 207.037 511.089 Q208.866 507.524 208.866 500.418 Q208.866 493.288 207.037 489.746 Q205.232 486.182 201.598 486.182 M201.598 482.478 Q207.408 482.478 210.463 487.084 Q213.542 491.668 213.542 500.418 Q213.542 509.144 210.463 513.751 Q207.408 518.334 201.598 518.334 Q195.787 518.334 192.709 513.751 Q189.653 509.144 189.653 500.418 Q189.653 491.668 192.709 487.084 Q195.787 482.478 201.598 482.478 Z" fill="#000000" fill-rule="nonzero" fill-opacity="1" /><path clip-path="url(#clip780)" d="M221.898 516.945 L221.898 512.686 Q223.658 513.519 225.463 513.959 Q227.269 514.399 229.005 514.399 Q233.635 514.399 236.065 511.297 Q238.519 508.172 238.866 501.83 Q237.523 503.82 235.463 504.885 Q233.403 505.95 230.903 505.95 Q225.718 505.95 222.686 502.825 Q219.676 499.677 219.676 494.237 Q219.676 488.913 222.824 485.695 Q225.973 482.478 231.204 482.478 Q237.199 482.478 240.347 487.084 Q243.519 491.668 243.519 500.418 Q243.519 508.589 239.63 513.473 Q235.764 518.334 229.213 518.334 Q227.454 518.334 225.648 517.987 Q223.843 517.64 221.898 516.945 M231.204 502.293 Q234.352 502.293 236.181 500.14 Q238.033 497.987 238.033 494.237 Q238.033 490.51 236.181 488.357 Q234.352 486.182 231.204 486.182 Q228.056 486.182 226.204 488.357 Q224.375 490.51 224.375 494.237 Q224.375 497.987 226.204 500.14 Q228.056 502.293 231.204 502.293 Z" fill="#000000" fill-rule="nonzero" fill-opacity="1" /><path clip-path="url(#clip780)" d="M264.769 487.177 L252.963 505.626 L264.769 505.626 L264.769 487.177 M263.542 483.103 L269.421 483.103 L269.421 505.626 L274.352 505.626 L274.352 509.515 L269.421 509.515 L269.421 517.663 L264.769 517.663 L264.769 509.515 L249.167 509.515 L249.167 505.001 L263.542 483.103 Z" fill="#000000" fill-rule="nonzero" fill-opacity="1" /><path clip-path="url(#clip780)" d="M126.529 241.649 Q122.918 241.649 121.089 245.214 Q119.283 248.756 119.283 255.885 Q119.283 262.992 121.089 266.557 Q122.918 270.098 126.529 270.098 Q130.163 270.098 131.968 266.557 Q133.797 262.992 133.797 255.885 Q133.797 248.756 131.968 245.214 Q130.163 241.649 126.529 241.649 M126.529 237.946 Q132.339 237.946 135.394 242.552 Q138.473 247.135 138.473 255.885 Q138.473 264.612 135.394 269.219 Q132.339 273.802 126.529 273.802 Q120.718 273.802 117.64 269.219 Q114.584 264.612 114.584 255.885 Q114.584 247.135 117.64 242.552 Q120.718 237.946 126.529 237.946 Z" fill="#000000" fill-rule="nonzero" fill-opacity="1" /><path clip-path="url(#clip780)" d="M146.691 267.251 L151.575 267.251 L151.575 273.131 L146.691 273.131 L146.691 267.251 Z" fill="#000000" fill-rule="nonzero" fill-opacity="1" /><path clip-path="url(#clip780)" d="M171.76 241.649 Q168.149 241.649 166.32 245.214 Q164.515 248.756 164.515 255.885 Q164.515 262.992 166.32 266.557 Q168.149 270.098 171.76 270.098 Q175.394 270.098 177.2 266.557 Q179.028 262.992 179.028 255.885 Q179.028 248.756 177.2 245.214 Q175.394 241.649 171.76 241.649 M171.76 237.946 Q177.57 237.946 180.626 242.552 Q183.704 247.135 183.704 255.885 Q183.704 264.612 180.626 269.219 Q177.57 273.802 171.76 273.802 Q165.95 273.802 162.871 269.219 Q159.815 264.612 159.815 255.885 Q159.815 247.135 162.871 242.552 Q165.95 237.946 171.76 237.946 Z" fill="#000000" fill-rule="nonzero" fill-opacity="1" /><path clip-path="url(#clip780)" d="M201.922 241.649 Q198.311 241.649 196.482 245.214 Q194.676 248.756 194.676 255.885 Q194.676 262.992 196.482 266.557 Q198.311 270.098 201.922 270.098 Q205.556 270.098 207.362 266.557 Q209.19 262.992 209.19 255.885 Q209.19 248.756 207.362 245.214 Q205.556 241.649 201.922 241.649 M201.922 237.946 Q207.732 237.946 210.787 242.552 Q213.866 247.135 213.866 255.885 Q213.866 264.612 210.787 269.219 Q207.732 273.802 201.922 273.802 Q196.112 273.802 193.033 269.219 Q189.977 264.612 189.977 255.885 Q189.977 247.135 193.033 242.552 Q196.112 237.946 201.922 237.946 Z" fill="#000000" fill-rule="nonzero" fill-opacity="1" /><path clip-path="url(#clip780)" d="M222.223 272.413 L222.223 268.154 Q223.982 268.987 225.787 269.427 Q227.593 269.867 229.329 269.867 Q233.959 269.867 236.389 266.765 Q238.843 263.64 239.19 257.297 Q237.847 259.288 235.787 260.353 Q233.727 261.418 231.227 261.418 Q226.042 261.418 223.01 258.293 Q220 255.145 220 249.705 Q220 244.381 223.148 241.163 Q226.297 237.946 231.528 237.946 Q237.523 237.946 240.672 242.552 Q243.843 247.135 243.843 255.885 Q243.843 264.057 239.954 268.941 Q236.088 273.802 229.537 273.802 Q227.778 273.802 225.973 273.455 Q224.167 273.108 222.223 272.413 M231.528 257.76 Q234.676 257.76 236.505 255.608 Q238.357 253.455 238.357 249.705 Q238.357 245.978 236.505 243.825 Q234.676 241.649 231.528 241.649 Q228.38 241.649 226.528 243.825 Q224.699 245.978 224.699 249.705 Q224.699 253.455 226.528 255.608 Q228.38 257.76 231.528 257.76 Z" fill="#000000" fill-rule="nonzero" fill-opacity="1" /><path clip-path="url(#clip780)" d="M262.824 253.987 Q259.676 253.987 257.824 256.14 Q255.996 258.293 255.996 262.043 Q255.996 265.77 257.824 267.946 Q259.676 270.098 262.824 270.098 Q265.972 270.098 267.801 267.946 Q269.653 265.77 269.653 262.043 Q269.653 258.293 267.801 256.14 Q265.972 253.987 262.824 253.987 M272.107 239.335 L272.107 243.594 Q270.347 242.76 268.542 242.321 Q266.759 241.881 265 241.881 Q260.37 241.881 257.917 245.006 Q255.486 248.131 255.139 254.45 Q256.505 252.436 258.565 251.372 Q260.625 250.284 263.102 250.284 Q268.31 250.284 271.32 253.455 Q274.352 256.603 274.352 262.043 Q274.352 267.367 271.204 270.584 Q268.056 273.802 262.824 273.802 Q256.829 273.802 253.658 269.219 Q250.486 264.612 250.486 255.885 Q250.486 247.691 254.375 242.83 Q258.264 237.946 264.815 237.946 Q266.574 237.946 268.357 238.293 Q270.162 238.64 272.107 239.335 Z" fill="#000000" fill-rule="nonzero" fill-opacity="1" /><path clip-path="url(#clip780)" d="M33.7671 788.508 L14.479 788.508 L14.479 782.652 L64.0042 782.652 L64.0042 788.508 L58.657 788.508 Q61.8398 790.354 63.3994 793.187 Q64.9272 795.988 64.9272 799.935 Q64.9272 806.396 59.771 810.47 Q54.6147 814.512 46.212 814.512 Q37.8093 814.512 32.6531 810.47 Q27.4968 806.396 27.4968 799.935 Q27.4968 795.988 29.0564 793.187 Q30.5842 790.354 33.7671 788.508 M46.212 808.465 Q52.6732 808.465 56.3653 805.823 Q60.0256 803.149 60.0256 798.502 Q60.0256 793.855 56.3653 791.182 Q52.6732 788.508 46.212 788.508 Q39.7508 788.508 36.0905 791.182 Q32.3984 793.855 32.3984 798.502 Q32.3984 803.149 36.0905 805.823 Q39.7508 808.465 46.212 808.465 Z" fill="#000000" fill-rule="nonzero" fill-opacity="1" /><path clip-path="url(#clip780)" d="M74.8259 743.503 L79.3773 743.503 L79.3773 777.368 L74.8259 777.368 L74.8259 743.503 Z" fill="#000000" fill-rule="nonzero" fill-opacity="1" /><path clip-path="url(#clip780)" d="M28.3562 737.996 L28.3562 732.14 L64.0042 732.14 L64.0042 737.996 L28.3562 737.996 M14.479 737.996 L14.479 732.14 L21.895 732.14 L21.895 737.996 L14.479 737.996 Z" fill="#000000" fill-rule="nonzero" fill-opacity="1" /><path clip-path="url(#clip780)" d="M794.708 18.8205 L794.708 65.8515 L804.592 65.8515 Q817.109 65.8515 822.902 60.1802 Q828.735 54.509 828.735 42.2752 Q828.735 30.1225 822.902 24.4918 Q817.109 18.8205 804.592 18.8205 L794.708 18.8205 M786.525 12.096 L803.336 12.096 Q820.917 12.096 829.141 19.4281 Q837.364 26.7198 837.364 42.2752 Q837.364 57.9117 829.1 65.2439 Q820.836 72.576 803.336 72.576 L786.525 72.576 L786.525 12.096 Z" fill="#000000" fill-rule="nonzero" fill-opacity="1" /><path clip-path="url(#clip780)" d="M850.084 27.2059 L857.537 27.2059 L857.537 72.576 L850.084 72.576 L850.084 27.2059 M850.084 9.54393 L857.537 9.54393 L857.537 18.9825 L850.084 18.9825 L850.084 9.54393 Z" fill="#000000" fill-rule="nonzero" fill-opacity="1" /><path clip-path="url(#clip780)" d="M902.057 28.5427 L902.057 35.5912 Q898.897 33.9709 895.494 33.1607 Q892.092 32.3505 888.446 32.3505 Q882.896 32.3505 880.101 34.0519 Q877.346 35.7533 877.346 39.156 Q877.346 41.7486 879.331 43.2475 Q881.316 44.7058 887.311 46.0426 L889.864 46.6097 Q897.803 48.3111 901.125 51.4303 Q904.487 54.509 904.487 60.0587 Q904.487 66.3781 899.464 70.0644 Q894.482 73.7508 885.732 73.7508 Q882.086 73.7508 878.116 73.0216 Q874.187 72.3329 869.812 70.9151 L869.812 63.2184 Q873.944 65.3654 877.954 66.4591 Q881.964 67.5124 885.894 67.5124 Q891.16 67.5124 893.995 65.73 Q896.831 63.9071 896.831 60.6258 Q896.831 57.5877 894.765 55.9673 Q892.74 54.3469 885.813 52.8481 L883.22 52.2405 Q876.293 50.7821 873.214 47.7845 Q870.136 44.7463 870.136 39.4801 Q870.136 33.0797 874.673 29.5959 Q879.21 26.1121 887.555 26.1121 Q891.686 26.1121 895.332 26.7198 Q898.978 27.3274 902.057 28.5427 Z" fill="#000000" fill-rule="nonzero" fill-opacity="1" /><path clip-path="url(#clip780)" d="M923.729 14.324 L923.729 27.2059 L939.082 27.2059 L939.082 32.9987 L923.729 32.9987 L923.729 57.6282 Q923.729 63.1779 925.228 64.7578 Q926.767 66.3376 931.426 66.3376 L939.082 66.3376 L939.082 72.576 L931.426 72.576 Q922.797 72.576 919.516 69.3758 Q916.235 66.1351 916.235 57.6282 L916.235 32.9987 L910.766 32.9987 L910.766 27.2059 L916.235 27.2059 L916.235 14.324 L923.729 14.324 Z" fill="#000000" fill-rule="nonzero" fill-opacity="1" /><path clip-path="url(#clip780)" d="M969.504 49.7694 Q960.471 49.7694 956.987 51.8354 Q953.503 53.9013 953.503 58.8839 Q953.503 62.8538 956.096 65.2034 Q958.729 67.5124 963.225 67.5124 Q969.423 67.5124 973.15 63.1374 Q976.917 58.7219 976.917 51.4303 L976.917 49.7694 L969.504 49.7694 M984.371 46.6907 L984.371 72.576 L976.917 72.576 L976.917 65.6895 Q974.365 69.8214 970.558 71.8063 Q966.75 73.7508 961.24 73.7508 Q954.273 73.7508 950.141 69.8619 Q946.05 65.9325 946.05 59.3701 Q946.05 51.7138 951.154 47.825 Q956.298 43.9361 966.466 43.9361 L976.917 43.9361 L976.917 43.2069 Q976.917 38.0623 973.515 35.2672 Q970.152 32.4315 964.036 32.4315 Q960.147 32.4315 956.46 33.3632 Q952.774 34.295 949.371 36.1584 L949.371 29.2718 Q953.463 27.692 957.311 26.9223 Q961.159 26.1121 964.805 26.1121 Q974.649 26.1121 979.51 31.2163 Q984.371 36.3204 984.371 46.6907 Z" fill="#000000" fill-rule="nonzero" fill-opacity="1" /><path clip-path="url(#clip780)" d="M1037.44 45.1919 L1037.44 72.576 L1029.98 72.576 L1029.98 45.4349 Q1029.98 38.994 1027.47 35.7938 Q1024.96 32.5936 1019.94 32.5936 Q1013.9 32.5936 1010.42 36.4419 Q1006.93 40.2903 1006.93 46.9338 L1006.93 72.576 L999.441 72.576 L999.441 27.2059 L1006.93 27.2059 L1006.93 34.2544 Q1009.61 30.163 1013.21 28.1376 Q1016.86 26.1121 1021.6 26.1121 Q1029.42 26.1121 1033.43 30.9732 Q1037.44 35.7938 1037.44 45.1919 Z" fill="#000000" fill-rule="nonzero" fill-opacity="1" /><path clip-path="url(#clip780)" d="M1084.96 28.9478 L1084.96 35.9153 Q1081.8 34.1734 1078.6 33.3227 Q1075.44 32.4315 1072.19 32.4315 Q1064.94 32.4315 1060.93 37.0496 Q1056.92 41.6271 1056.92 49.9314 Q1056.92 58.2358 1060.93 62.8538 Q1064.94 67.4314 1072.19 67.4314 Q1075.44 67.4314 1078.6 66.5807 Q1081.8 65.6895 1084.96 63.9476 L1084.96 70.8341 Q1081.84 72.2924 1078.47 73.0216 Q1075.15 73.7508 1071.38 73.7508 Q1061.14 73.7508 1055.1 67.3098 Q1049.06 60.8689 1049.06 49.9314 Q1049.06 38.832 1055.14 32.472 Q1061.26 26.1121 1071.87 26.1121 Q1075.31 26.1121 1078.6 26.8413 Q1081.88 27.5299 1084.96 28.9478 Z" fill="#000000" fill-rule="nonzero" fill-opacity="1" /><path clip-path="url(#clip780)" d="M1136.73 48.0275 L1136.73 51.6733 L1102.46 51.6733 Q1102.94 59.3701 1107.07 63.421 Q1111.25 67.4314 1118.66 67.4314 Q1122.95 67.4314 1126.96 66.3781 Q1131.01 65.3249 1134.98 63.2184 L1134.98 70.267 Q1130.97 71.9684 1126.76 72.8596 Q1122.55 73.7508 1118.21 73.7508 Q1107.36 73.7508 1101 67.4314 Q1094.68 61.1119 1094.68 50.3365 Q1094.68 39.1965 1100.67 32.6746 Q1106.71 26.1121 1116.92 26.1121 Q1126.07 26.1121 1131.38 32.0264 Q1136.73 37.9003 1136.73 48.0275 M1129.27 45.84 Q1129.19 39.7232 1125.83 36.0774 Q1122.51 32.4315 1117 32.4315 Q1110.76 32.4315 1106.99 35.9558 Q1103.27 39.4801 1102.7 45.8805 L1129.27 45.84 Z" fill="#000000" fill-rule="nonzero" fill-opacity="1" /><path clip-path="url(#clip780)" d="M1182.7 14.324 L1182.7 27.2059 L1198.06 27.2059 L1198.06 32.9987 L1182.7 32.9987 L1182.7 57.6282 Q1182.7 63.1779 1184.2 64.7578 Q1185.74 66.3376 1190.4 66.3376 L1198.06 66.3376 L1198.06 72.576 L1190.4 72.576 Q1181.77 72.576 1178.49 69.3758 Q1175.21 66.1351 1175.21 57.6282 L1175.21 32.9987 L1169.74 32.9987 L1169.74 27.2059 L1175.21 27.2059 L1175.21 14.324 L1182.7 14.324 Z" fill="#000000" fill-rule="nonzero" fill-opacity="1" /><path clip-path="url(#clip780)" d="M1234.15 34.1734 Q1232.89 33.4443 1231.4 33.1202 Q1229.94 32.7556 1228.15 32.7556 Q1221.84 32.7556 1218.43 36.8875 Q1215.07 40.9789 1215.07 48.6757 L1215.07 72.576 L1207.58 72.576 L1207.58 27.2059 L1215.07 27.2059 L1215.07 34.2544 Q1217.42 30.1225 1221.19 28.1376 Q1224.95 26.1121 1230.34 26.1121 Q1231.11 26.1121 1232.04 26.2337 Q1232.98 26.3147 1234.11 26.5172 L1234.15 34.1734 Z" fill="#000000" fill-rule="nonzero" fill-opacity="1" /><path clip-path="url(#clip780)" d="M1262.59 49.7694 Q1253.55 49.7694 1250.07 51.8354 Q1246.59 53.9013 1246.59 58.8839 Q1246.59 62.8538 1249.18 65.2034 Q1251.81 67.5124 1256.31 67.5124 Q1262.51 67.5124 1266.23 63.1374 Q1270 58.7219 1270 51.4303 L1270 49.7694 L1262.59 49.7694 M1277.45 46.6907 L1277.45 72.576 L1270 72.576 L1270 65.6895 Q1267.45 69.8214 1263.64 71.8063 Q1259.83 73.7508 1254.32 73.7508 Q1247.36 73.7508 1243.22 69.8619 Q1239.13 65.9325 1239.13 59.3701 Q1239.13 51.7138 1244.24 47.825 Q1249.38 43.9361 1259.55 43.9361 L1270 43.9361 L1270 43.2069 Q1270 38.0623 1266.6 35.2672 Q1263.24 32.4315 1257.12 32.4315 Q1253.23 32.4315 1249.54 33.3632 Q1245.86 34.295 1242.45 36.1584 L1242.45 29.2718 Q1246.55 27.692 1250.39 26.9223 Q1254.24 26.1121 1257.89 26.1121 Q1267.73 26.1121 1272.59 31.2163 Q1277.45 36.3204 1277.45 46.6907 Z" fill="#000000" fill-rule="nonzero" fill-opacity="1" /><path clip-path="url(#clip780)" d="M1325.46 28.9478 L1325.46 35.9153 Q1322.3 34.1734 1319.1 33.3227 Q1315.94 32.4315 1312.7 32.4315 Q1305.45 32.4315 1301.44 37.0496 Q1297.43 41.6271 1297.43 49.9314 Q1297.43 58.2358 1301.44 62.8538 Q1305.45 67.4314 1312.7 67.4314 Q1315.94 67.4314 1319.1 66.5807 Q1322.3 65.6895 1325.46 63.9476 L1325.46 70.8341 Q1322.34 72.2924 1318.98 73.0216 Q1315.65 73.7508 1311.89 73.7508 Q1301.64 73.7508 1295.6 67.3098 Q1289.57 60.8689 1289.57 49.9314 Q1289.57 38.832 1295.64 32.472 Q1301.76 26.1121 1312.37 26.1121 Q1315.82 26.1121 1319.1 26.8413 Q1322.38 27.5299 1325.46 28.9478 Z" fill="#000000" fill-rule="nonzero" fill-opacity="1" /><path clip-path="url(#clip780)" d="M1377.23 48.0275 L1377.23 51.6733 L1342.96 51.6733 Q1343.44 59.3701 1347.58 63.421 Q1351.75 67.4314 1359.16 67.4314 Q1363.45 67.4314 1367.47 66.3781 Q1371.52 65.3249 1375.49 63.2184 L1375.49 70.267 Q1371.48 71.9684 1367.26 72.8596 Q1363.05 73.7508 1358.72 73.7508 Q1347.86 73.7508 1341.5 67.4314 Q1335.18 61.1119 1335.18 50.3365 Q1335.18 39.1965 1341.17 32.6746 Q1347.21 26.1121 1357.42 26.1121 Q1366.57 26.1121 1371.88 32.0264 Q1377.23 37.9003 1377.23 48.0275 M1369.77 45.84 Q1369.69 39.7232 1366.33 36.0774 Q1363.01 32.4315 1357.5 32.4315 Q1351.26 32.4315 1347.49 35.9558 Q1343.77 39.4801 1343.2 45.8805 L1369.77 45.84 Z" fill="#000000" fill-rule="nonzero" fill-opacity="1" /><path clip-path="url(#clip780)" d="M1448.4 49.9314 Q1448.4 41.7081 1445 37.0496 Q1441.64 32.3505 1435.72 32.3505 Q1429.81 32.3505 1426.41 37.0496 Q1423.04 41.7081 1423.04 49.9314 Q1423.04 58.1548 1426.41 62.8538 Q1429.81 67.5124 1435.72 67.5124 Q1441.64 67.5124 1445 62.8538 Q1448.4 58.1548 1448.4 49.9314 M1423.04 34.0924 Q1425.39 30.0415 1428.96 28.0971 Q1432.56 26.1121 1437.55 26.1121 Q1445.81 26.1121 1450.95 32.6746 Q1456.14 39.2371 1456.14 49.9314 Q1456.14 60.6258 1450.95 67.1883 Q1445.81 73.7508 1437.55 73.7508 Q1432.56 73.7508 1428.96 71.8063 Q1425.39 69.8214 1423.04 65.7705 L1423.04 72.576 L1415.55 72.576 L1415.55 9.54393 L1423.04 9.54393 L1423.04 34.0924 Z" fill="#000000" fill-rule="nonzero" fill-opacity="1" /><path clip-path="url(#clip780)" d="M1507.3 48.0275 L1507.3 51.6733 L1473.03 51.6733 Q1473.52 59.3701 1477.65 63.421 Q1481.82 67.4314 1489.24 67.4314 Q1493.53 67.4314 1497.54 66.3781 Q1501.59 65.3249 1505.56 63.2184 L1505.56 70.267 Q1501.55 71.9684 1497.34 72.8596 Q1493.12 73.7508 1488.79 73.7508 Q1477.93 73.7508 1471.57 67.4314 Q1465.25 61.1119 1465.25 50.3365 Q1465.25 39.1965 1471.25 32.6746 Q1477.29 26.1121 1487.49 26.1121 Q1496.65 26.1121 1501.96 32.0264 Q1507.3 37.9003 1507.3 48.0275 M1499.85 45.84 Q1499.77 39.7232 1496.41 36.0774 Q1493.08 32.4315 1487.57 32.4315 Q1481.34 32.4315 1477.57 35.9558 Q1473.84 39.4801 1473.27 45.8805 L1499.85 45.84 Z" fill="#000000" fill-rule="nonzero" fill-opacity="1" /><path clip-path="url(#clip780)" d="M1548.46 28.5427 L1548.46 35.5912 Q1545.3 33.9709 1541.9 33.1607 Q1538.49 32.3505 1534.85 32.3505 Q1529.3 32.3505 1526.5 34.0519 Q1523.75 35.7533 1523.75 39.156 Q1523.75 41.7486 1525.73 43.2475 Q1527.72 44.7058 1533.71 46.0426 L1536.27 46.6097 Q1544.21 48.3111 1547.53 51.4303 Q1550.89 54.509 1550.89 60.0587 Q1550.89 66.3781 1545.87 70.0644 Q1540.88 73.7508 1532.13 73.7508 Q1528.49 73.7508 1524.52 73.0216 Q1520.59 72.3329 1516.21 70.9151 L1516.21 63.2184 Q1520.35 65.3654 1524.36 66.4591 Q1528.37 67.5124 1532.3 67.5124 Q1537.56 67.5124 1540.4 65.73 Q1543.23 63.9071 1543.23 60.6258 Q1543.23 57.5877 1541.17 55.9673 Q1539.14 54.3469 1532.22 52.8481 L1529.62 52.2405 Q1522.7 50.7821 1519.62 47.7845 Q1516.54 44.7463 1516.54 39.4801 Q1516.54 33.0797 1521.08 29.5959 Q1525.61 26.1121 1533.96 26.1121 Q1538.09 26.1121 1541.74 26.7198 Q1545.38 27.3274 1548.46 28.5427 Z" fill="#000000" fill-rule="nonzero" fill-opacity="1" /><path clip-path="url(#clip780)" d="M1570.13 14.324 L1570.13 27.2059 L1585.48 27.2059 L1585.48 32.9987 L1570.13 32.9987 L1570.13 57.6282 Q1570.13 63.1779 1571.63 64.7578 Q1573.17 66.3376 1577.83 66.3376 L1585.48 66.3376 L1585.48 72.576 L1577.83 72.576 Q1569.2 72.576 1565.92 69.3758 Q1562.64 66.1351 1562.64 57.6282 L1562.64 32.9987 L1557.17 32.9987 L1557.17 27.2059 L1562.64 27.2059 L1562.64 14.324 L1570.13 14.324 Z" fill="#000000" fill-rule="nonzero" fill-opacity="1" /><path clip-path="url(#clip780)" d="M1616.31 27.2059 L1624.21 27.2059 L1638.39 65.2844 L1652.57 27.2059 L1660.47 27.2059 L1643.45 72.576 L1633.33 72.576 L1616.31 27.2059 Z" fill="#000000" fill-rule="nonzero" fill-opacity="1" /><path clip-path="url(#clip780)" d="M1709.56 48.0275 L1709.56 51.6733 L1675.29 51.6733 Q1675.78 59.3701 1679.91 63.421 Q1684.08 67.4314 1691.5 67.4314 Q1695.79 67.4314 1699.8 66.3781 Q1703.85 65.3249 1707.82 63.2184 L1707.82 70.267 Q1703.81 71.9684 1699.6 72.8596 Q1695.39 73.7508 1691.05 73.7508 Q1680.19 73.7508 1673.84 67.4314 Q1667.52 61.1119 1667.52 50.3365 Q1667.52 39.1965 1673.51 32.6746 Q1679.55 26.1121 1689.76 26.1121 Q1698.91 26.1121 1704.22 32.0264 Q1709.56 37.9003 1709.56 48.0275 M1702.11 45.84 Q1702.03 39.7232 1698.67 36.0774 Q1695.35 32.4315 1689.84 32.4315 Q1683.6 32.4315 1679.83 35.9558 Q1676.1 39.4801 1675.54 45.8805 L1702.11 45.84 Z" fill="#000000" fill-rule="nonzero" fill-opacity="1" /><path clip-path="url(#clip780)" d="M1748.09 34.1734 Q1746.83 33.4443 1745.33 33.1202 Q1743.88 32.7556 1742.09 32.7556 Q1735.77 32.7556 1732.37 36.8875 Q1729.01 40.9789 1729.01 48.6757 L1729.01 72.576 L1721.51 72.576 L1721.51 27.2059 L1729.01 27.2059 L1729.01 34.2544 Q1731.36 30.1225 1735.13 28.1376 Q1738.89 26.1121 1744.28 26.1121 Q1745.05 26.1121 1745.98 26.2337 Q1746.91 26.3147 1748.05 26.5172 L1748.09 34.1734 Z" fill="#000000" fill-rule="nonzero" fill-opacity="1" /><path clip-path="url(#clip780)" d="M1763.28 14.324 L1763.28 27.2059 L1778.63 27.2059 L1778.63 32.9987 L1763.28 32.9987 L1763.28 57.6282 Q1763.28 63.1779 1764.78 64.7578 Q1766.32 66.3376 1770.98 66.3376 L1778.63 66.3376 L1778.63 72.576 L1770.98 72.576 Q1762.35 72.576 1759.07 69.3758 Q1755.78 66.1351 1755.78 57.6282 L1755.78 32.9987 L1750.32 32.9987 L1750.32 27.2059 L1755.78 27.2059 L1755.78 14.324 L1763.28 14.324 Z" fill="#000000" fill-rule="nonzero" fill-opacity="1" /><path clip-path="url(#clip780)" d="M1827.24 48.0275 L1827.24 51.6733 L1792.97 51.6733 Q1793.46 59.3701 1797.59 63.421 Q1801.76 67.4314 1809.18 67.4314 Q1813.47 67.4314 1817.48 66.3781 Q1821.53 65.3249 1825.5 63.2184 L1825.5 70.267 Q1821.49 71.9684 1817.28 72.8596 Q1813.06 73.7508 1808.73 73.7508 Q1797.87 73.7508 1791.51 67.4314 Q1785.19 61.1119 1785.19 50.3365 Q1785.19 39.1965 1791.19 32.6746 Q1797.23 26.1121 1807.43 26.1121 Q1816.59 26.1121 1821.9 32.0264 Q1827.24 37.9003 1827.24 48.0275 M1819.79 45.84 Q1819.71 39.7232 1816.35 36.0774 Q1813.02 32.4315 1807.51 32.4315 Q1801.28 32.4315 1797.51 35.9558 Q1793.78 39.4801 1793.22 45.8805 L1819.79 45.84 Z" fill="#000000" fill-rule="nonzero" fill-opacity="1" /><path clip-path="url(#clip780)" d="M1875.73 27.2059 L1859.33 49.2833 L1876.58 72.576 L1867.79 72.576 L1854.59 54.752 L1841.38 72.576 L1832.59 72.576 L1850.21 48.8377 L1834.09 27.2059 L1842.88 27.2059 L1854.91 43.369 L1866.94 27.2059 L1875.73 27.2059 Z" fill="#000000" fill-rule="nonzero" fill-opacity="1" /><polyline clip-path="url(#clip782)" style="stroke:#009af9; stroke-linecap:round; stroke-linejoin:round; stroke-width:4; stroke-opacity:1; fill:none" points="368.156,525.778 406.692,477.033 445.228,439.538 483.764,422.079 522.299,378.861 560.835,322.214 599.371,284.854 637.907,269.788 676.443,265.143 714.979,256.561 753.515,252.418 792.051,252.136 830.587,243.233 869.123,241.36 907.659,236.696 946.195,224.053 984.731,215.258 1023.27,205.685 1061.8,198.573 1100.34,190.678 1138.87,184.099 1177.41,180.262 1215.95,175.038 1254.48,170.486 1293.02,168.699 1331.55,165.099 1370.09,162.344 1408.63,160.256 1447.16,299.475 1485.7,376.429 1524.23,469.563 1562.77,632.066 1601.31,805.389 1639.84,941.619 1678.38,1018.4 1716.91,1022.41 1755.45,1022.07 1793.98,1022.37 1832.52,1027.83 1871.06,1027.85 1909.59,1027.77 1948.13,1077.27 1986.66,1080.79 2025.2,1080.78 2063.74,1080.78 2102.27,1080.78 2140.81,1080.78 2179.34,1080.78 2217.88,1080.77 2256.42,1080.75 2294.95,1080.75 "/>
<polyline clip-path="url(#clip782)" style="stroke:#e26f46; stroke-linecap:round; stroke-linejoin:round; stroke-width:4; stroke-opacity:1; fill:none" points="368.156,852.697 406.692,899.203 445.228,942.193 483.764,963.142 522.299,1009.14 560.835,1066.28 599.371,1112.77 637.907,1133.37 676.443,1139.52 714.979,1156.75 753.515,1171.58 792.051,1172.27 830.587,1187.69 869.123,1194.2 907.659,1203.65 946.195,1229.74 984.731,1250.86 1023.27,1272.19 1061.8,1289.75 1100.34,1306.13 1138.87,1319.59 1177.41,1329.77 1215.95,1342.36 1254.48,1355.23 1293.02,1364.17 1331.55,1373.14 1370.09,1380.67 1408.63,1386.4 1447.16,1372.1 1485.7,1353.16 1524.23,1338.84 1562.77,1304.85 1601.31,1267.67 1639.84,1236.63 1678.38,1223.54 1716.91,1219.28 1755.45,1220.7 1793.98,1219.45 1832.52,1216.93 1871.06,1216.95 1909.59,1217.19 1948.13,1204.56 1986.66,1204.9 2025.2,1204.95 2063.74,1204.95 2102.27,1204.95 2140.81,1204.95 2179.34,1204.94 2217.88,1204.95 2256.42,1204.97 2294.95,1204.97 "/>
<polyline clip-path="url(#clip782)" style="stroke:#3da44d; stroke-linecap:round; stroke-linejoin:round; stroke-width:4; stroke-opacity:1; fill:none" points="368.156,714.791 406.692,792.583 445.228,836.679 483.764,866.512 522.299,885.673 560.835,878.139 599.371,845.508 637.907,820.724 676.443,809.87 714.979,789.465 753.515,786.703 792.051,790.915 830.587,781.703 869.123,772.624 907.659,766.287 946.195,742.773 984.731,722.423 1023.27,702.398 1061.8,683.16 1100.34,665.633 1138.87,649.766 1177.41,636.266 1215.95,621.009 1254.48,603.816 1293.02,590.237 1331.55,578.731 1370.09,566.709 1408.63,557.425 1447.16,541.173 1485.7,547.782 1524.23,540.223 1562.77,540.263 1601.31,528.769 1639.84,528.152 1678.38,521.775 1716.91,520.245 1755.45,522.737 1793.98,524.845 1832.52,523.49 1871.06,523.414 1909.59,523.104 1948.13,526.088 1986.66,521.355 2025.2,521.231 2063.74,521.227 2102.27,521.217 2140.81,521.22 2179.34,521.224 2217.88,521.212 2256.42,521.171 2294.95,521.171 "/>
<polyline clip-path="url(#clip782)" style="stroke:#c271d2; stroke-linecap:round; stroke-linejoin:round; stroke-width:4; stroke-opacity:1; fill:none" points="368.156,670.504 406.692,597.105 445.228,512.268 483.764,457.116 522.299,399.853 560.835,372.399 599.371,390.448 637.907,414.339 676.443,429.335 714.979,443.891 753.515,424.999 792.051,414.228 830.587,409.43 869.123,415.949 907.659,412.199 946.195,414.144 984.731,413.739 1023.27,413.106 1061.8,413.56 1100.34,415.399 1138.87,417.903 1177.41,420.207 1215.95,422.897 1254.48,426.926 1293.02,430.243 1331.55,432.276 1370.09,436.565 1408.63,439.742 1447.16,446.062 1485.7,441.105 1524.23,445.167 1562.77,430.74 1601.31,437.835 1639.84,425.283 1678.38,413.522 1716.91,429.113 1755.45,420.631 1793.98,418.486 1832.52,425.355 1871.06,425.485 1909.59,425.591 1948.13,414.392 1986.66,423.842 2025.2,423.997 2063.74,424.013 2102.27,424.031 2140.81,424.035 2179.34,424.044 2217.88,424.1 2256.42,424.136 2294.95,424.136 "/>
<polyline clip-path="url(#clip782)" style="stroke:#ac8d18; stroke-linecap:round; stroke-linejoin:round; stroke-width:4; stroke-opacity:1; fill:none" points="368.156,473.629 406.692,446.416 445.228,463.796 483.764,452.972 522.299,443.285 560.835,452.269 599.371,449.069 637.907,449.088 676.443,445.52 714.979,443.965 753.515,442.676 792.051,444.302 830.587,441.972 869.123,442.968 907.659,441.955 946.195,439.169 984.731,438.609 1023.27,437.49 1061.8,437.236 1100.34,434.88 1138.87,436.262 1177.41,439.087 1215.95,441.445 1254.48,442.863 1293.02,443.005 1331.55,441.428 1370.09,440.952 1408.63,441.874 1447.16,438.868 1485.7,438.992 1524.23,436.205 1562.77,438.366 1601.31,417.507 1639.84,401.658 1678.38,367.273 1716.91,348.934 1755.45,346.755 1793.98,344.485 1832.52,329.943 1871.06,329.725 1909.59,329.502 1948.13,328.136 1986.66,320.668 2025.2,320.581 2063.74,320.566 2102.27,320.557 2140.81,320.554 2179.34,320.548 2217.88,320.521 2256.42,320.513 2294.95,320.513 "/>
<polyline clip-path="url(#clip782)" style="stroke:#00a9ad; stroke-linecap:round; stroke-linejoin:round; stroke-width:4; stroke-opacity:1; fill:none" points="368.156,613.973 406.692,599.946 445.228,592.876 483.764,603.933 522.299,610.717 560.835,592.512 599.371,573.666 637.907,558.946 676.443,554.514 714.979,541.054 753.515,545.045 792.051,550.308 830.587,548.988 869.123,539.084 907.659,542.683 946.195,540.381 984.731,536.661 1023.27,527.832 1061.8,525.788 1100.34,523.289 1138.87,518.076 1177.41,513.63 1215.95,503.814 1254.48,497.309 1293.02,494.989 1331.55,492.362 1370.09,490.455 1408.63,487.59 1447.16,478.814 1485.7,479.013 1524.23,474.124 1562.77,468.053 1601.31,466.975 1639.84,441.745 1678.38,433.605 1716.91,455.682 1755.45,460.794 1793.98,448.041 1832.52,463.608 1871.06,464.211 1909.59,464.177 1948.13,446.333 1986.66,444.116 2025.2,444.093 2063.74,444.102 2102.27,444.103 2140.81,444.107 2179.34,444.115 2217.88,444.061 2256.42,444.059 2294.95,444.059 "/>
<polyline clip-path="url(#clip782)" style="stroke:#ed5d92; stroke-linecap:round; stroke-linejoin:round; stroke-width:4; stroke-opacity:1; fill:none" points="368.156,632.659 406.692,613.506 445.228,596.761 483.764,583.751 522.299,559.679 560.835,530.63 599.371,525.858 637.907,528.847 676.443,530.669 714.979,540.115 753.515,528.92 792.051,524.221 830.587,519.08 869.123,523.966 907.659,518.5 946.195,510.545 984.731,505.383 1023.27,507.294 1061.8,503.8 1100.34,500.266 1138.87,498.982 1177.41,495.433 1215.95,494.53 1254.48,490.099 1293.02,489.129 1331.55,487.406 1370.09,486.278 1408.63,484.685 1447.16,481.817 1485.7,483.117 1524.23,476.123 1562.77,464.467 1601.31,450.031 1639.84,465.949 1678.38,487.84 1716.91,478.353 1755.45,475.604 1793.98,501.713 1832.52,496.572 1871.06,495.865 1909.59,495.818 1948.13,490.761 1986.66,487.248 2025.2,487.226 2063.74,487.211 2102.27,487.207 2140.81,487.203 2179.34,487.195 2217.88,487.214 2256.42,487.228 2294.95,487.228 "/>
<polyline clip-path="url(#clip782)" style="stroke:#c68125; stroke-linecap:round; stroke-linejoin:round; stroke-width:4; stroke-opacity:1; fill:none" points="368.156,865.307 406.692,917.649 445.228,939.265 483.764,961.195 522.299,983.222 560.835,999.071 599.371,1001.57 637.907,999.141 676.443,996.721 714.979,997.278 753.515,1018.94 792.051,1021.57 830.587,1029.34 869.123,1033.04 907.659,1037.38 946.195,1049.86 984.731,1062.33 1023.27,1071.91 1061.8,1080.73 1100.34,1088.75 1138.87,1094.05 1177.41,1101.21 1215.95,1108.68 1254.48,1117.25 1293.02,1121.68 1331.55,1126.3 1370.09,1129.7 1408.63,1133.3 1447.16,1127 1485.7,1130.08 1524.23,1127.59 1562.77,1149.14 1601.31,1163.49 1639.84,1158.33 1678.38,1160.96 1716.91,1160.66 1755.45,1162.76 1793.98,1155.89 1832.52,1156.54 1871.06,1156.78 1909.59,1156.88 1948.13,1159.2 1986.66,1163.13 2025.2,1163.17 2063.74,1163.18 2102.27,1163.18 2140.81,1163.18 2179.34,1163.19 2217.88,1163.2 2256.42,1163.19 2294.95,1163.19 "/>
<polyline clip-path="url(#clip782)" style="stroke:#00a98d; stroke-linecap:round; stroke-linejoin:round; stroke-width:4; stroke-opacity:1; fill:none" points="368.156,1045.41 406.692,1021.84 445.228,1021.12 483.764,1007.52 522.299,1012.74 560.835,1049.12 599.371,1068.3 637.907,1078.69 676.443,1083.95 714.979,1080.33 753.515,1054.79 792.051,1053.37 830.587,1053.38 869.123,1047.08 907.659,1045.28 946.195,1037.14 984.731,1026.86 1023.27,1015.7 1061.8,1007.73 1100.34,1001.25 1138.87,997.091 1177.41,990.623 1215.95,984.597 1254.48,978.939 1293.02,973.346 1331.55,970.208 1370.09,966.72 1408.63,963.429 1447.16,996.17 1485.7,982.781 1524.23,1012.84 1562.77,987.893 1601.31,990.339 1639.84,1027.23 1678.38,1026.5 1716.91,1020.78 1755.45,1018.14 1793.98,1005.91 1832.52,1002.15 1871.06,1002.22 1909.59,1002.16 1948.13,1042.18 1986.66,1043.41 2025.2,1043.39 2063.74,1043.39 2102.27,1043.39 2140.81,1043.39 2179.34,1043.38 2217.88,1043.37 2256.42,1043.36 2294.95,1043.36 "/>
</svg>
