<?xml version="1.0" encoding="utf-8"?>
<svg xmlns="http://www.w3.org/2000/svg" xmlns:xlink="http://www.w3.org/1999/xlink" width="600" height="400" viewBox="0 0 2400 1600">
<defs>
  <clipPath id="clip320">
    <rect x="0" y="0" width="2400" height="1600"/>
  </clipPath>
</defs>
<path clip-path="url(#clip320)" d="M0 1600 L2400 1600 L2400 0 L0 0  Z" fill="#ffffff" fill-rule="evenodd" fill-opacity="1"/>
<defs>
  <clipPath id="clip321">
    <rect x="480" y="0" width="1681" height="1600"/>
  </clipPath>
</defs>
<path clip-path="url(#clip320)" d="M309.866 1423.18 L2352.76 1423.18 L2352.76 123.472 L309.866 123.472  Z" fill="#ffffff" fill-rule="evenodd" fill-opacity="1"/>
<defs>
  <clipPath id="clip322">
    <rect x="309" y="123" width="2044" height="1301"/>
  </clipPath>
</defs>
<polyline clip-path="url(#clip322)" style="stroke:#000000; stroke-linecap:round; stroke-linejoin:round; stroke-width:2; stroke-opacity:0.1; fill:none" points="608.59,1423.18 608.59,123.472 "/>
<polyline clip-path="url(#clip322)" style="stroke:#000000; stroke-linecap:round; stroke-linejoin:round; stroke-width:2; stroke-opacity:0.1; fill:none" points="1090.4,1423.18 1090.4,123.472 "/>
<polyline clip-path="url(#clip322)" style="stroke:#000000; stroke-linecap:round; stroke-linejoin:round; stroke-width:2; stroke-opacity:0.1; fill:none" points="1572.22,1423.18 1572.22,123.472 "/>
<polyline clip-path="url(#clip322)" style="stroke:#000000; stroke-linecap:round; stroke-linejoin:round; stroke-width:2; stroke-opacity:0.1; fill:none" points="2054.03,1423.18 2054.03,123.472 "/>
<polyline clip-path="url(#clip320)" style="stroke:#000000; stroke-linecap:round; stroke-linejoin:round; stroke-width:4; stroke-opacity:1; fill:none" points="309.866,1423.18 2352.76,1423.18 "/>
<polyline clip-path="url(#clip320)" style="stroke:#000000; stroke-linecap:round; stroke-linejoin:round; stroke-width:4; stroke-opacity:1; fill:none" points="608.59,1423.18 608.59,1404.28 "/>
<polyline clip-path="url(#clip320)" style="stroke:#000000; stroke-linecap:round; stroke-linejoin:round; stroke-width:4; stroke-opacity:1; fill:none" points="1090.4,1423.18 1090.4,1404.28 "/>
<polyline clip-path="url(#clip320)" style="stroke:#000000; stroke-linecap:round; stroke-linejoin:round; stroke-width:4; stroke-opacity:1; fill:none" points="1572.22,1423.18 1572.22,1404.28 "/>
<polyline clip-path="url(#clip320)" style="stroke:#000000; stroke-linecap:round; stroke-linejoin:round; stroke-width:4; stroke-opacity:1; fill:none" points="2054.03,1423.18 2054.03,1404.28 "/>
<path clip-path="url(#clip320)" d="M603.243 1481.64 L619.562 1481.64 L619.562 1485.58 L597.618 1485.58 L597.618 1481.64 Q600.28 1478.89 604.863 1474.26 Q609.47 1469.61 610.65 1468.27 Q612.896 1465.74 613.775 1464.01 Q614.678 1462.25 614.678 1460.56 Q614.678 1457.8 612.734 1456.07 Q610.812 1454.33 607.711 1454.33 Q605.512 1454.33 603.058 1455.09 Q600.627 1455.86 597.85 1457.41 L597.85 1452.69 Q600.674 1451.55 603.127 1450.97 Q605.581 1450.39 607.618 1450.39 Q612.988 1450.39 616.183 1453.08 Q619.377 1455.77 619.377 1460.26 Q619.377 1462.39 618.567 1464.31 Q617.78 1466.2 615.674 1468.8 Q615.095 1469.47 611.993 1472.69 Q608.891 1475.88 603.243 1481.64 Z" fill="#000000" fill-rule="nonzero" fill-opacity="1" /><path clip-path="url(#clip320)" d="M1093.41 1455.09 L1081.61 1473.54 L1093.41 1473.54 L1093.41 1455.09 M1092.19 1451.02 L1098.07 1451.02 L1098.07 1473.54 L1103 1473.54 L1103 1477.43 L1098.07 1477.43 L1098.07 1485.58 L1093.41 1485.58 L1093.41 1477.43 L1077.81 1477.43 L1077.81 1472.92 L1092.19 1451.02 Z" fill="#000000" fill-rule="nonzero" fill-opacity="1" /><path clip-path="url(#clip320)" d="M1572.62 1466.44 Q1569.47 1466.44 1567.62 1468.59 Q1565.79 1470.74 1565.79 1474.49 Q1565.79 1478.22 1567.62 1480.39 Q1569.47 1482.55 1572.62 1482.55 Q1575.77 1482.55 1577.6 1480.39 Q1579.45 1478.22 1579.45 1474.49 Q1579.45 1470.74 1577.6 1468.59 Q1575.77 1466.44 1572.62 1466.44 M1581.91 1451.78 L1581.91 1456.04 Q1580.15 1455.21 1578.34 1454.77 Q1576.56 1454.33 1574.8 1454.33 Q1570.17 1454.33 1567.72 1457.45 Q1565.28 1460.58 1564.94 1466.9 Q1566.3 1464.89 1568.36 1463.82 Q1570.42 1462.73 1572.9 1462.73 Q1578.11 1462.73 1581.12 1465.9 Q1584.15 1469.05 1584.15 1474.49 Q1584.15 1479.82 1581 1483.03 Q1577.85 1486.25 1572.62 1486.25 Q1566.63 1486.25 1563.46 1481.67 Q1560.28 1477.06 1560.28 1468.33 Q1560.28 1460.14 1564.17 1455.28 Q1568.06 1450.39 1574.61 1450.39 Q1576.37 1450.39 1578.16 1450.74 Q1579.96 1451.09 1581.91 1451.78 Z" fill="#000000" fill-rule="nonzero" fill-opacity="1" /><path clip-path="url(#clip320)" d="M2054.03 1469.17 Q2050.7 1469.17 2048.78 1470.95 Q2046.88 1472.73 2046.88 1475.86 Q2046.88 1478.98 2048.78 1480.77 Q2050.7 1482.55 2054.03 1482.55 Q2057.36 1482.55 2059.29 1480.77 Q2061.21 1478.96 2061.21 1475.86 Q2061.21 1472.73 2059.29 1470.95 Q2057.39 1469.17 2054.03 1469.17 M2049.36 1467.18 Q2046.35 1466.44 2044.66 1464.38 Q2042.99 1462.32 2042.99 1459.35 Q2042.99 1455.21 2045.93 1452.8 Q2048.89 1450.39 2054.03 1450.39 Q2059.19 1450.39 2062.13 1452.8 Q2065.07 1455.21 2065.07 1459.35 Q2065.07 1462.32 2063.38 1464.38 Q2061.72 1466.44 2058.73 1467.18 Q2062.11 1467.96 2063.99 1470.26 Q2065.88 1472.55 2065.88 1475.86 Q2065.88 1480.88 2062.8 1483.57 Q2059.75 1486.25 2054.03 1486.25 Q2048.31 1486.25 2045.24 1483.57 Q2042.18 1480.88 2042.18 1475.86 Q2042.18 1472.55 2044.08 1470.26 Q2045.98 1467.96 2049.36 1467.18 M2047.64 1459.79 Q2047.64 1462.48 2049.31 1463.98 Q2051 1465.49 2054.03 1465.49 Q2057.04 1465.49 2058.73 1463.98 Q2060.44 1462.48 2060.44 1459.79 Q2060.44 1457.11 2058.73 1455.6 Q2057.04 1454.1 2054.03 1454.1 Q2051 1454.1 2049.31 1455.6 Q2047.64 1457.11 2047.64 1459.79 Z" fill="#000000" fill-rule="nonzero" fill-opacity="1" /><path clip-path="url(#clip320)" d="M1271.03 1525.81 L1271.03 1562.76 L1278.79 1562.76 Q1288.63 1562.76 1293.18 1558.3 Q1297.76 1553.85 1297.76 1544.24 Q1297.76 1534.69 1293.18 1530.26 Q1288.63 1525.81 1278.79 1525.81 L1271.03 1525.81 M1264.6 1520.52 L1277.81 1520.52 Q1291.62 1520.52 1298.08 1526.28 Q1304.54 1532.01 1304.54 1544.24 Q1304.54 1556.52 1298.05 1562.28 Q1291.56 1568.04 1277.81 1568.04 L1264.6 1568.04 L1264.6 1520.52 Z" fill="#000000" fill-rule="nonzero" fill-opacity="1" /><path clip-path="url(#clip320)" d="M1314.54 1532.4 L1320.39 1532.4 L1320.39 1568.04 L1314.54 1568.04 L1314.54 1532.4 M1314.54 1518.52 L1320.39 1518.52 L1320.39 1525.93 L1314.54 1525.93 L1314.54 1518.52 Z" fill="#000000" fill-rule="nonzero" fill-opacity="1" /><path clip-path="url(#clip320)" d="M1355.37 1533.45 L1355.37 1538.98 Q1352.89 1537.71 1350.22 1537.07 Q1347.54 1536.44 1344.68 1536.44 Q1340.32 1536.44 1338.12 1537.77 Q1335.96 1539.11 1335.96 1541.79 Q1335.96 1543.82 1337.52 1545 Q1339.08 1546.15 1343.79 1547.2 L1345.79 1547.64 Q1352.03 1548.98 1354.64 1551.43 Q1357.28 1553.85 1357.28 1558.21 Q1357.28 1563.17 1353.34 1566.07 Q1349.42 1568.97 1342.55 1568.97 Q1339.68 1568.97 1336.56 1568.39 Q1333.48 1567.85 1330.04 1566.74 L1330.04 1560.69 Q1333.28 1562.38 1336.44 1563.24 Q1339.59 1564.07 1342.67 1564.07 Q1346.81 1564.07 1349.04 1562.66 Q1351.27 1561.23 1351.27 1558.65 Q1351.27 1556.27 1349.64 1554.99 Q1348.05 1553.72 1342.61 1552.54 L1340.57 1552.07 Q1335.13 1550.92 1332.71 1548.56 Q1330.29 1546.18 1330.29 1542.04 Q1330.29 1537.01 1333.86 1534.27 Q1337.42 1531.54 1343.98 1531.54 Q1347.23 1531.54 1350.09 1532.01 Q1352.95 1532.49 1355.37 1533.45 Z" fill="#000000" fill-rule="nonzero" fill-opacity="1" /><path clip-path="url(#clip320)" d="M1366.39 1518.52 L1372.27 1518.52 L1372.27 1547.77 L1389.75 1532.4 L1397.23 1532.4 L1378.32 1549.07 L1398.02 1568.04 L1390.38 1568.04 L1372.27 1550.63 L1372.27 1568.04 L1366.39 1568.04 L1366.39 1518.52 Z" fill="#000000" fill-rule="nonzero" fill-opacity="1" /><polyline clip-path="url(#clip322)" style="stroke:#000000; stroke-linecap:round; stroke-linejoin:round; stroke-width:2; stroke-opacity:0.1; fill:none" points="309.866,1326.7 2352.76,1326.7 "/>
<polyline clip-path="url(#clip322)" style="stroke:#000000; stroke-linecap:round; stroke-linejoin:round; stroke-width:2; stroke-opacity:0.1; fill:none" points="309.866,969.617 2352.76,969.617 "/>
<polyline clip-path="url(#clip322)" style="stroke:#000000; stroke-linecap:round; stroke-linejoin:round; stroke-width:2; stroke-opacity:0.1; fill:none" points="309.866,612.534 2352.76,612.534 "/>
<polyline clip-path="url(#clip322)" style="stroke:#000000; stroke-linecap:round; stroke-linejoin:round; stroke-width:2; stroke-opacity:0.1; fill:none" points="309.866,255.451 2352.76,255.451 "/>
<polyline clip-path="url(#clip320)" style="stroke:#000000; stroke-linecap:round; stroke-linejoin:round; stroke-width:4; stroke-opacity:1; fill:none" points="309.866,1423.18 309.866,123.472 "/>
<polyline clip-path="url(#clip320)" style="stroke:#000000; stroke-linecap:round; stroke-linejoin:round; stroke-width:4; stroke-opacity:1; fill:none" points="309.866,1326.7 328.763,1326.7 "/>
<polyline clip-path="url(#clip320)" style="stroke:#000000; stroke-linecap:round; stroke-linejoin:round; stroke-width:4; stroke-opacity:1; fill:none" points="309.866,969.617 328.763,969.617 "/>
<polyline clip-path="url(#clip320)" style="stroke:#000000; stroke-linecap:round; stroke-linejoin:round; stroke-width:4; stroke-opacity:1; fill:none" points="309.866,612.534 328.763,612.534 "/>
<polyline clip-path="url(#clip320)" style="stroke:#000000; stroke-linecap:round; stroke-linejoin:round; stroke-width:4; stroke-opacity:1; fill:none" points="309.866,255.451 328.763,255.451 "/>
<path clip-path="url(#clip320)" d="M126.205 1312.5 Q122.593 1312.5 120.765 1316.06 Q118.959 1319.6 118.959 1326.73 Q118.959 1333.84 120.765 1337.41 Q122.593 1340.95 126.205 1340.95 Q129.839 1340.95 131.644 1337.41 Q133.473 1333.84 133.473 1326.73 Q133.473 1319.6 131.644 1316.06 Q129.839 1312.5 126.205 1312.5 M126.205 1308.79 Q132.015 1308.79 135.07 1313.4 Q138.149 1317.98 138.149 1326.73 Q138.149 1335.46 135.07 1340.07 Q132.015 1344.65 126.205 1344.65 Q120.394 1344.65 117.316 1340.07 Q114.26 1335.46 114.26 1326.73 Q114.26 1317.98 117.316 1313.4 Q120.394 1308.79 126.205 1308.79 Z" fill="#000000" fill-rule="nonzero" fill-opacity="1" /><path clip-path="url(#clip320)" d="M146.366 1338.1 L151.251 1338.1 L151.251 1343.98 L146.366 1343.98 L146.366 1338.1 Z" fill="#000000" fill-rule="nonzero" fill-opacity="1" /><path clip-path="url(#clip320)" d="M171.436 1312.5 Q167.825 1312.5 165.996 1316.06 Q164.19 1319.6 164.19 1326.73 Q164.19 1333.84 165.996 1337.41 Q167.825 1340.95 171.436 1340.95 Q175.07 1340.95 176.876 1337.41 Q178.704 1333.84 178.704 1326.73 Q178.704 1319.6 176.876 1316.06 Q175.07 1312.5 171.436 1312.5 M171.436 1308.79 Q177.246 1308.79 180.301 1313.4 Q183.38 1317.98 183.38 1326.73 Q183.38 1335.46 180.301 1340.07 Q177.246 1344.65 171.436 1344.65 Q165.626 1344.65 162.547 1340.07 Q159.491 1335.46 159.491 1326.73 Q159.491 1317.98 162.547 1313.4 Q165.626 1308.79 171.436 1308.79 Z" fill="#000000" fill-rule="nonzero" fill-opacity="1" /><path clip-path="url(#clip320)" d="M201.598 1312.5 Q197.987 1312.5 196.158 1316.06 Q194.352 1319.6 194.352 1326.73 Q194.352 1333.84 196.158 1337.41 Q197.987 1340.95 201.598 1340.95 Q205.232 1340.95 207.037 1337.41 Q208.866 1333.84 208.866 1326.73 Q208.866 1319.6 207.037 1316.06 Q205.232 1312.5 201.598 1312.5 M201.598 1308.79 Q207.408 1308.79 210.463 1313.4 Q213.542 1317.98 213.542 1326.73 Q213.542 1335.46 210.463 1340.07 Q207.408 1344.65 201.598 1344.65 Q195.787 1344.65 192.709 1340.07 Q189.653 1335.46 189.653 1326.73 Q189.653 1317.98 192.709 1313.4 Q195.787 1308.79 201.598 1308.79 Z" fill="#000000" fill-rule="nonzero" fill-opacity="1" /><path clip-path="url(#clip320)" d="M221.898 1343.26 L221.898 1339 Q223.658 1339.84 225.463 1340.28 Q227.269 1340.72 229.005 1340.72 Q233.635 1340.72 236.065 1337.61 Q238.519 1334.49 238.866 1328.15 Q237.523 1330.14 235.463 1331.2 Q233.403 1332.27 230.903 1332.27 Q225.718 1332.27 222.686 1329.14 Q219.676 1325.99 219.676 1320.55 Q219.676 1315.23 222.824 1312.01 Q225.973 1308.79 231.204 1308.79 Q237.199 1308.79 240.347 1313.4 Q243.519 1317.98 243.519 1326.73 Q243.519 1334.91 239.63 1339.79 Q235.764 1344.65 229.213 1344.65 Q227.454 1344.65 225.648 1344.3 Q223.843 1343.96 221.898 1343.26 M231.204 1328.61 Q234.352 1328.61 236.181 1326.46 Q238.033 1324.3 238.033 1320.55 Q238.033 1316.83 236.181 1314.67 Q234.352 1312.5 231.204 1312.5 Q228.056 1312.5 226.204 1314.67 Q224.375 1316.83 224.375 1320.55 Q224.375 1324.3 226.204 1326.46 Q228.056 1328.61 231.204 1328.61 Z" fill="#000000" fill-rule="nonzero" fill-opacity="1" /><path clip-path="url(#clip320)" d="M261.921 1312.5 Q258.31 1312.5 256.482 1316.06 Q254.676 1319.6 254.676 1326.73 Q254.676 1333.84 256.482 1337.41 Q258.31 1340.95 261.921 1340.95 Q265.556 1340.95 267.361 1337.41 Q269.19 1333.84 269.19 1326.73 Q269.19 1319.6 267.361 1316.06 Q265.556 1312.5 261.921 1312.5 M261.921 1308.79 Q267.732 1308.79 270.787 1313.4 Q273.866 1317.98 273.866 1326.73 Q273.866 1335.46 270.787 1340.07 Q267.732 1344.65 261.921 1344.65 Q256.111 1344.65 253.033 1340.07 Q249.977 1335.46 249.977 1326.73 Q249.977 1317.98 253.033 1313.4 Q256.111 1308.79 261.921 1308.79 Z" fill="#000000" fill-rule="nonzero" fill-opacity="1" /><path clip-path="url(#clip320)" d="M127.2 955.415 Q123.589 955.415 121.76 958.98 Q119.955 962.522 119.955 969.651 Q119.955 976.758 121.76 980.323 Q123.589 983.864 127.2 983.864 Q130.834 983.864 132.64 980.323 Q134.468 976.758 134.468 969.651 Q134.468 962.522 132.64 958.98 Q130.834 955.415 127.2 955.415 M127.2 951.712 Q133.01 951.712 136.066 956.318 Q139.144 960.901 139.144 969.651 Q139.144 978.378 136.066 982.985 Q133.01 987.568 127.2 987.568 Q121.39 987.568 118.311 982.985 Q115.256 978.378 115.256 969.651 Q115.256 960.901 118.311 956.318 Q121.39 951.712 127.2 951.712 Z" fill="#000000" fill-rule="nonzero" fill-opacity="1" /><path clip-path="url(#clip320)" d="M147.362 981.017 L152.246 981.017 L152.246 986.897 L147.362 986.897 L147.362 981.017 Z" fill="#000000" fill-rule="nonzero" fill-opacity="1" /><path clip-path="url(#clip320)" d="M172.431 955.415 Q168.82 955.415 166.991 958.98 Q165.186 962.522 165.186 969.651 Q165.186 976.758 166.991 980.323 Q168.82 983.864 172.431 983.864 Q176.065 983.864 177.871 980.323 Q179.7 976.758 179.7 969.651 Q179.7 962.522 177.871 958.98 Q176.065 955.415 172.431 955.415 M172.431 951.712 Q178.241 951.712 181.297 956.318 Q184.376 960.901 184.376 969.651 Q184.376 978.378 181.297 982.985 Q178.241 987.568 172.431 987.568 Q166.621 987.568 163.542 982.985 Q160.487 978.378 160.487 969.651 Q160.487 960.901 163.542 956.318 Q166.621 951.712 172.431 951.712 Z" fill="#000000" fill-rule="nonzero" fill-opacity="1" /><path clip-path="url(#clip320)" d="M202.593 955.415 Q198.982 955.415 197.153 958.98 Q195.348 962.522 195.348 969.651 Q195.348 976.758 197.153 980.323 Q198.982 983.864 202.593 983.864 Q206.227 983.864 208.033 980.323 Q209.861 976.758 209.861 969.651 Q209.861 962.522 208.033 958.98 Q206.227 955.415 202.593 955.415 M202.593 951.712 Q208.403 951.712 211.459 956.318 Q214.537 960.901 214.537 969.651 Q214.537 978.378 211.459 982.985 Q208.403 987.568 202.593 987.568 Q196.783 987.568 193.704 982.985 Q190.649 978.378 190.649 969.651 Q190.649 960.901 193.704 956.318 Q196.783 951.712 202.593 951.712 Z" fill="#000000" fill-rule="nonzero" fill-opacity="1" /><path clip-path="url(#clip320)" d="M222.894 986.179 L222.894 981.92 Q224.653 982.753 226.459 983.193 Q228.264 983.633 230 983.633 Q234.63 983.633 237.06 980.531 Q239.514 977.406 239.861 971.063 Q238.519 973.054 236.459 974.119 Q234.398 975.184 231.898 975.184 Q226.713 975.184 223.681 972.059 Q220.672 968.911 220.672 963.471 Q220.672 958.147 223.82 954.929 Q226.968 951.712 232.199 951.712 Q238.195 951.712 241.343 956.318 Q244.514 960.901 244.514 969.651 Q244.514 977.823 240.625 982.707 Q236.76 987.568 230.209 987.568 Q228.449 987.568 226.644 987.221 Q224.838 986.874 222.894 986.179 M232.199 971.526 Q235.347 971.526 237.176 969.374 Q239.028 967.221 239.028 963.471 Q239.028 959.744 237.176 957.591 Q235.347 955.415 232.199 955.415 Q229.051 955.415 227.199 957.591 Q225.371 959.744 225.371 963.471 Q225.371 967.221 227.199 969.374 Q229.051 971.526 232.199 971.526 Z" fill="#000000" fill-rule="nonzero" fill-opacity="1" /><path clip-path="url(#clip320)" d="M252.963 952.337 L271.32 952.337 L271.32 956.272 L257.246 956.272 L257.246 964.744 Q258.264 964.397 259.283 964.235 Q260.301 964.05 261.32 964.05 Q267.107 964.05 270.486 967.221 Q273.866 970.392 273.866 975.809 Q273.866 981.387 270.394 984.489 Q266.921 987.568 260.602 987.568 Q258.426 987.568 256.158 987.198 Q253.912 986.827 251.505 986.087 L251.505 981.387 Q253.588 982.522 255.81 983.077 Q258.033 983.633 260.509 983.633 Q264.514 983.633 266.852 981.526 Q269.19 979.42 269.19 975.809 Q269.19 972.198 266.852 970.091 Q264.514 967.985 260.509 967.985 Q258.634 967.985 256.759 968.401 Q254.908 968.818 252.963 969.698 L252.963 952.337 Z" fill="#000000" fill-rule="nonzero" fill-opacity="1" /><path clip-path="url(#clip320)" d="M126.205 598.333 Q122.593 598.333 120.765 601.897 Q118.959 605.439 118.959 612.569 Q118.959 619.675 120.765 623.24 Q122.593 626.782 126.205 626.782 Q129.839 626.782 131.644 623.24 Q133.473 619.675 133.473 612.569 Q133.473 605.439 131.644 601.897 Q129.839 598.333 126.205 598.333 M126.205 594.629 Q132.015 594.629 135.07 599.235 Q138.149 603.819 138.149 612.569 Q138.149 621.296 135.07 625.902 Q132.015 630.485 126.205 630.485 Q120.394 630.485 117.316 625.902 Q114.26 621.296 114.26 612.569 Q114.26 603.819 117.316 599.235 Q120.394 594.629 126.205 594.629 Z" fill="#000000" fill-rule="nonzero" fill-opacity="1" /><path clip-path="url(#clip320)" d="M146.366 623.934 L151.251 623.934 L151.251 629.814 L146.366 629.814 L146.366 623.934 Z" fill="#000000" fill-rule="nonzero" fill-opacity="1" /><path clip-path="url(#clip320)" d="M171.436 598.333 Q167.825 598.333 165.996 601.897 Q164.19 605.439 164.19 612.569 Q164.19 619.675 165.996 623.24 Q167.825 626.782 171.436 626.782 Q175.07 626.782 176.876 623.24 Q178.704 619.675 178.704 612.569 Q178.704 605.439 176.876 601.897 Q175.07 598.333 171.436 598.333 M171.436 594.629 Q177.246 594.629 180.301 599.235 Q183.38 603.819 183.38 612.569 Q183.38 621.296 180.301 625.902 Q177.246 630.485 171.436 630.485 Q165.626 630.485 162.547 625.902 Q159.491 621.296 159.491 612.569 Q159.491 603.819 162.547 599.235 Q165.626 594.629 171.436 594.629 Z" fill="#000000" fill-rule="nonzero" fill-opacity="1" /><path clip-path="url(#clip320)" d="M192.408 625.879 L200.047 625.879 L200.047 599.513 L191.737 601.18 L191.737 596.921 L200 595.254 L204.676 595.254 L204.676 625.879 L212.315 625.879 L212.315 629.814 L192.408 629.814 L192.408 625.879 Z" fill="#000000" fill-rule="nonzero" fill-opacity="1" /><path clip-path="url(#clip320)" d="M231.76 598.333 Q228.148 598.333 226.32 601.897 Q224.514 605.439 224.514 612.569 Q224.514 619.675 226.32 623.24 Q228.148 626.782 231.76 626.782 Q235.394 626.782 237.199 623.24 Q239.028 619.675 239.028 612.569 Q239.028 605.439 237.199 601.897 Q235.394 598.333 231.76 598.333 M231.76 594.629 Q237.57 594.629 240.625 599.235 Q243.704 603.819 243.704 612.569 Q243.704 621.296 240.625 625.902 Q237.57 630.485 231.76 630.485 Q225.949 630.485 222.871 625.902 Q219.815 621.296 219.815 612.569 Q219.815 603.819 222.871 599.235 Q225.949 594.629 231.76 594.629 Z" fill="#000000" fill-rule="nonzero" fill-opacity="1" /><path clip-path="url(#clip320)" d="M261.921 598.333 Q258.31 598.333 256.482 601.897 Q254.676 605.439 254.676 612.569 Q254.676 619.675 256.482 623.24 Q258.31 626.782 261.921 626.782 Q265.556 626.782 267.361 623.24 Q269.19 619.675 269.19 612.569 Q269.19 605.439 267.361 601.897 Q265.556 598.333 261.921 598.333 M261.921 594.629 Q267.732 594.629 270.787 599.235 Q273.866 603.819 273.866 612.569 Q273.866 621.296 270.787 625.902 Q267.732 630.485 261.921 630.485 Q256.111 630.485 253.033 625.902 Q249.977 621.296 249.977 612.569 Q249.977 603.819 253.033 599.235 Q256.111 594.629 261.921 594.629 Z" fill="#000000" fill-rule="nonzero" fill-opacity="1" /><path clip-path="url(#clip320)" d="M127.2 241.25 Q123.589 241.25 121.76 244.815 Q119.955 248.356 119.955 255.486 Q119.955 262.592 121.76 266.157 Q123.589 269.699 127.2 269.699 Q130.834 269.699 132.64 266.157 Q134.468 262.592 134.468 255.486 Q134.468 248.356 132.64 244.815 Q130.834 241.25 127.2 241.25 M127.2 237.546 Q133.01 237.546 136.066 242.153 Q139.144 246.736 139.144 255.486 Q139.144 264.213 136.066 268.819 Q133.01 273.403 127.2 273.403 Q121.39 273.403 118.311 268.819 Q115.256 264.213 115.256 255.486 Q115.256 246.736 118.311 242.153 Q121.39 237.546 127.2 237.546 Z" fill="#000000" fill-rule="nonzero" fill-opacity="1" /><path clip-path="url(#clip320)" d="M147.362 266.852 L152.246 266.852 L152.246 272.731 L147.362 272.731 L147.362 266.852 Z" fill="#000000" fill-rule="nonzero" fill-opacity="1" /><path clip-path="url(#clip320)" d="M172.431 241.25 Q168.82 241.25 166.991 244.815 Q165.186 248.356 165.186 255.486 Q165.186 262.592 166.991 266.157 Q168.82 269.699 172.431 269.699 Q176.065 269.699 177.871 266.157 Q179.7 262.592 179.7 255.486 Q179.7 248.356 177.871 244.815 Q176.065 241.25 172.431 241.25 M172.431 237.546 Q178.241 237.546 181.297 242.153 Q184.376 246.736 184.376 255.486 Q184.376 264.213 181.297 268.819 Q178.241 273.403 172.431 273.403 Q166.621 273.403 163.542 268.819 Q160.487 264.213 160.487 255.486 Q160.487 246.736 163.542 242.153 Q166.621 237.546 172.431 237.546 Z" fill="#000000" fill-rule="nonzero" fill-opacity="1" /><path clip-path="url(#clip320)" d="M193.403 268.796 L201.042 268.796 L201.042 242.431 L192.732 244.097 L192.732 239.838 L200.996 238.171 L205.672 238.171 L205.672 268.796 L213.311 268.796 L213.311 272.731 L193.403 272.731 L193.403 268.796 Z" fill="#000000" fill-rule="nonzero" fill-opacity="1" /><path clip-path="url(#clip320)" d="M232.755 241.25 Q229.144 241.25 227.315 244.815 Q225.51 248.356 225.51 255.486 Q225.51 262.592 227.315 266.157 Q229.144 269.699 232.755 269.699 Q236.389 269.699 238.195 266.157 Q240.023 262.592 240.023 255.486 Q240.023 248.356 238.195 244.815 Q236.389 241.25 232.755 241.25 M232.755 237.546 Q238.565 237.546 241.621 242.153 Q244.699 246.736 244.699 255.486 Q244.699 264.213 241.621 268.819 Q238.565 273.403 232.755 273.403 Q226.945 273.403 223.866 268.819 Q220.811 264.213 220.811 255.486 Q220.811 246.736 223.866 242.153 Q226.945 237.546 232.755 237.546 Z" fill="#000000" fill-rule="nonzero" fill-opacity="1" /><path clip-path="url(#clip320)" d="M252.963 238.171 L271.32 238.171 L271.32 242.106 L257.246 242.106 L257.246 250.579 Q258.264 250.231 259.283 250.069 Q260.301 249.884 261.32 249.884 Q267.107 249.884 270.486 253.056 Q273.866 256.227 273.866 261.643 Q273.866 267.222 270.394 270.324 Q266.921 273.403 260.602 273.403 Q258.426 273.403 256.158 273.032 Q253.912 272.662 251.505 271.921 L251.505 267.222 Q253.588 268.356 255.81 268.912 Q258.033 269.467 260.509 269.467 Q264.514 269.467 266.852 267.361 Q269.19 265.255 269.19 261.643 Q269.19 258.032 266.852 255.926 Q264.514 253.819 260.509 253.819 Q258.634 253.819 256.759 254.236 Q254.908 254.653 252.963 255.532 L252.963 238.171 Z" fill="#000000" fill-rule="nonzero" fill-opacity="1" /><path clip-path="url(#clip320)" d="M33.7671 788.508 L14.479 788.508 L14.479 782.652 L64.0042 782.652 L64.0042 788.508 L58.657 788.508 Q61.8398 790.354 63.3994 793.187 Q64.9272 795.988 64.9272 799.935 Q64.9272 806.396 59.771 810.47 Q54.6147 814.512 46.212 814.512 Q37.8093 814.512 32.6531 810.47 Q27.4968 806.396 27.4968 799.935 Q27.4968 795.988 29.0564 793.187 Q30.5842 790.354 33.7671 788.508 M46.212 808.465 Q52.6732 808.465 56.3653 805.823 Q60.0256 803.149 60.0256 798.502 Q60.0256 793.855 56.3653 791.182 Q52.6732 788.508 46.212 788.508 Q39.7508 788.508 36.0905 791.182 Q32.3984 793.855 32.3984 798.502 Q32.3984 803.149 36.0905 805.823 Q39.7508 808.465 46.212 808.465 Z" fill="#000000" fill-rule="nonzero" fill-opacity="1" /><path clip-path="url(#clip320)" d="M74.8259 743.503 L79.3773 743.503 L79.3773 777.368 L74.8259 777.368 L74.8259 743.503 Z" fill="#000000" fill-rule="nonzero" fill-opacity="1" /><path clip-path="url(#clip320)" d="M28.3562 737.996 L28.3562 732.14 L64.0042 732.14 L64.0042 737.996 L28.3562 737.996 M14.479 737.996 L14.479 732.14 L21.895 732.14 L21.895 737.996 L14.479 737.996 Z" fill="#000000" fill-rule="nonzero" fill-opacity="1" /><path clip-path="url(#clip320)" d="M1031.24 12.096 L1066 12.096 L1066 18.9825 L1039.42 18.9825 L1039.42 36.8065 L1063.4 36.8065 L1063.4 43.6931 L1039.42 43.6931 L1039.42 72.576 L1031.24 72.576 L1031.24 12.096 Z" fill="#000000" fill-rule="nonzero" fill-opacity="1" /><path clip-path="url(#clip320)" d="M1072.6 27.2059 L1080.05 27.2059 L1080.05 72.576 L1072.6 72.576 L1072.6 27.2059 M1072.6 9.54393 L1080.05 9.54393 L1080.05 18.9825 L1072.6 18.9825 L1072.6 9.54393 Z" fill="#000000" fill-rule="nonzero" fill-opacity="1" /><path clip-path="url(#clip320)" d="M1133.36 45.1919 L1133.36 72.576 L1125.91 72.576 L1125.91 45.4349 Q1125.91 38.994 1123.4 35.7938 Q1120.89 32.5936 1115.86 32.5936 Q1109.83 32.5936 1106.34 36.4419 Q1102.86 40.2903 1102.86 46.9338 L1102.86 72.576 L1095.37 72.576 L1095.37 27.2059 L1102.86 27.2059 L1102.86 34.2544 Q1105.53 30.163 1109.14 28.1376 Q1112.78 26.1121 1117.52 26.1121 Q1125.34 26.1121 1129.35 30.9732 Q1133.36 35.7938 1133.36 45.1919 Z" fill="#000000" fill-rule="nonzero" fill-opacity="1" /><path clip-path="url(#clip320)" d="M1168.85 49.7694 Q1159.82 49.7694 1156.33 51.8354 Q1152.85 53.9013 1152.85 58.8839 Q1152.85 62.8538 1155.44 65.2034 Q1158.07 67.5124 1162.57 67.5124 Q1168.77 67.5124 1172.5 63.1374 Q1176.26 58.7219 1176.26 51.4303 L1176.26 49.7694 L1168.85 49.7694 M1183.72 46.6907 L1183.72 72.576 L1176.26 72.576 L1176.26 65.6895 Q1173.71 69.8214 1169.9 71.8063 Q1166.09 73.7508 1160.59 73.7508 Q1153.62 73.7508 1149.49 69.8619 Q1145.39 65.9325 1145.39 59.3701 Q1145.39 51.7138 1150.5 47.825 Q1155.64 43.9361 1165.81 43.9361 L1176.26 43.9361 L1176.26 43.2069 Q1176.26 38.0623 1172.86 35.2672 Q1169.5 32.4315 1163.38 32.4315 Q1159.49 32.4315 1155.81 33.3632 Q1152.12 34.295 1148.72 36.1584 L1148.72 29.2718 Q1152.81 27.692 1156.66 26.9223 Q1160.5 26.1121 1164.15 26.1121 Q1173.99 26.1121 1178.86 31.2163 Q1183.72 36.3204 1183.72 46.6907 Z" fill="#000000" fill-rule="nonzero" fill-opacity="1" /><path clip-path="url(#clip320)" d="M1199.07 9.54393 L1206.52 9.54393 L1206.52 72.576 L1199.07 72.576 L1199.07 9.54393 Z" fill="#000000" fill-rule="nonzero" fill-opacity="1" /><path clip-path="url(#clip320)" d="M1278.35 34.0924 L1278.35 9.54393 L1285.8 9.54393 L1285.8 72.576 L1278.35 72.576 L1278.35 65.7705 Q1276 69.8214 1272.39 71.8063 Q1268.83 73.7508 1263.8 73.7508 Q1255.58 73.7508 1250.39 67.1883 Q1245.25 60.6258 1245.25 49.9314 Q1245.25 39.2371 1250.39 32.6746 Q1255.58 26.1121 1263.8 26.1121 Q1268.83 26.1121 1272.39 28.0971 Q1276 30.0415 1278.35 34.0924 M1252.95 49.9314 Q1252.95 58.1548 1256.31 62.8538 Q1259.71 67.5124 1265.63 67.5124 Q1271.54 67.5124 1274.94 62.8538 Q1278.35 58.1548 1278.35 49.9314 Q1278.35 41.7081 1274.94 37.0496 Q1271.54 32.3505 1265.63 32.3505 Q1259.71 32.3505 1256.31 37.0496 Q1252.95 41.7081 1252.95 49.9314 Z" fill="#000000" fill-rule="nonzero" fill-opacity="1" /><path clip-path="url(#clip320)" d="M1301.15 27.2059 L1308.61 27.2059 L1308.61 72.576 L1301.15 72.576 L1301.15 27.2059 M1301.15 9.54393 L1308.61 9.54393 L1308.61 18.9825 L1301.15 18.9825 L1301.15 9.54393 Z" fill="#000000" fill-rule="nonzero" fill-opacity="1" /><path clip-path="url(#clip320)" d="M1353.12 28.5427 L1353.12 35.5912 Q1349.97 33.9709 1346.56 33.1607 Q1343.16 32.3505 1339.51 32.3505 Q1333.96 32.3505 1331.17 34.0519 Q1328.41 35.7533 1328.41 39.156 Q1328.41 41.7486 1330.4 43.2475 Q1332.38 44.7058 1338.38 46.0426 L1340.93 46.6097 Q1348.87 48.3111 1352.19 51.4303 Q1355.56 54.509 1355.56 60.0587 Q1355.56 66.3781 1350.53 70.0644 Q1345.55 73.7508 1336.8 73.7508 Q1333.15 73.7508 1329.18 73.0216 Q1325.25 72.3329 1320.88 70.9151 L1320.88 63.2184 Q1325.01 65.3654 1329.02 66.4591 Q1333.03 67.5124 1336.96 67.5124 Q1342.23 67.5124 1345.06 65.73 Q1347.9 63.9071 1347.9 60.6258 Q1347.9 57.5877 1345.83 55.9673 Q1343.81 54.3469 1336.88 52.8481 L1334.29 52.2405 Q1327.36 50.7821 1324.28 47.7845 Q1321.2 44.7463 1321.2 39.4801 Q1321.2 33.0797 1325.74 29.5959 Q1330.28 26.1121 1338.62 26.1121 Q1342.75 26.1121 1346.4 26.7198 Q1350.05 27.3274 1353.12 28.5427 Z" fill="#000000" fill-rule="nonzero" fill-opacity="1" /><path clip-path="url(#clip320)" d="M1374.8 14.324 L1374.8 27.2059 L1390.15 27.2059 L1390.15 32.9987 L1374.8 32.9987 L1374.8 57.6282 Q1374.8 63.1779 1376.3 64.7578 Q1377.84 66.3376 1382.49 66.3376 L1390.15 66.3376 L1390.15 72.576 L1382.49 72.576 Q1373.87 72.576 1370.58 69.3758 Q1367.3 66.1351 1367.3 57.6282 L1367.3 32.9987 L1361.83 32.9987 L1361.83 27.2059 L1367.3 27.2059 L1367.3 14.324 L1374.8 14.324 Z" fill="#000000" fill-rule="nonzero" fill-opacity="1" /><path clip-path="url(#clip320)" d="M1420.57 49.7694 Q1411.54 49.7694 1408.06 51.8354 Q1404.57 53.9013 1404.57 58.8839 Q1404.57 62.8538 1407.16 65.2034 Q1409.8 67.5124 1414.29 67.5124 Q1420.49 67.5124 1424.22 63.1374 Q1427.99 58.7219 1427.99 51.4303 L1427.99 49.7694 L1420.57 49.7694 M1435.44 46.6907 L1435.44 72.576 L1427.99 72.576 L1427.99 65.6895 Q1425.43 69.8214 1421.63 71.8063 Q1417.82 73.7508 1412.31 73.7508 Q1405.34 73.7508 1401.21 69.8619 Q1397.12 65.9325 1397.12 59.3701 Q1397.12 51.7138 1402.22 47.825 Q1407.37 43.9361 1417.53 43.9361 L1427.99 43.9361 L1427.99 43.2069 Q1427.99 38.0623 1424.58 35.2672 Q1421.22 32.4315 1415.1 32.4315 Q1411.21 32.4315 1407.53 33.3632 Q1403.84 34.295 1400.44 36.1584 L1400.44 29.2718 Q1404.53 27.692 1408.38 26.9223 Q1412.23 26.1121 1415.87 26.1121 Q1425.72 26.1121 1430.58 31.2163 Q1435.44 36.3204 1435.44 46.6907 Z" fill="#000000" fill-rule="nonzero" fill-opacity="1" /><path clip-path="url(#clip320)" d="M1488.51 45.1919 L1488.51 72.576 L1481.05 72.576 L1481.05 45.4349 Q1481.05 38.994 1478.54 35.7938 Q1476.03 32.5936 1471.01 32.5936 Q1464.97 32.5936 1461.49 36.4419 Q1458 40.2903 1458 46.9338 L1458 72.576 L1450.51 72.576 L1450.51 27.2059 L1458 27.2059 L1458 34.2544 Q1460.68 30.163 1464.28 28.1376 Q1467.93 26.1121 1472.67 26.1121 Q1480.49 26.1121 1484.5 30.9732 Q1488.51 35.7938 1488.51 45.1919 Z" fill="#000000" fill-rule="nonzero" fill-opacity="1" /><path clip-path="url(#clip320)" d="M1536.02 28.9478 L1536.02 35.9153 Q1532.86 34.1734 1529.66 33.3227 Q1526.5 32.4315 1523.26 32.4315 Q1516.01 32.4315 1512 37.0496 Q1507.99 41.6271 1507.99 49.9314 Q1507.99 58.2358 1512 62.8538 Q1516.01 67.4314 1523.26 67.4314 Q1526.5 67.4314 1529.66 66.5807 Q1532.86 65.6895 1536.02 63.9476 L1536.02 70.8341 Q1532.9 72.2924 1529.54 73.0216 Q1526.22 73.7508 1522.45 73.7508 Q1512.2 73.7508 1506.17 67.3098 Q1500.13 60.8689 1500.13 49.9314 Q1500.13 38.832 1506.21 32.472 Q1512.33 26.1121 1522.94 26.1121 Q1526.38 26.1121 1529.66 26.8413 Q1532.94 27.5299 1536.02 28.9478 Z" fill="#000000" fill-rule="nonzero" fill-opacity="1" /><path clip-path="url(#clip320)" d="M1587.79 48.0275 L1587.79 51.6733 L1553.52 51.6733 Q1554.01 59.3701 1558.14 63.421 Q1562.31 67.4314 1569.73 67.4314 Q1574.02 67.4314 1578.03 66.3781 Q1582.08 65.3249 1586.05 63.2184 L1586.05 70.267 Q1582.04 71.9684 1577.83 72.8596 Q1573.62 73.7508 1569.28 73.7508 Q1558.42 73.7508 1552.06 67.4314 Q1545.75 61.1119 1545.75 50.3365 Q1545.75 39.1965 1551.74 32.6746 Q1557.78 26.1121 1567.98 26.1121 Q1577.14 26.1121 1582.45 32.0264 Q1587.79 37.9003 1587.79 48.0275 M1580.34 45.84 Q1580.26 39.7232 1576.9 36.0774 Q1573.58 32.4315 1568.07 32.4315 Q1561.83 32.4315 1558.06 35.9558 Q1554.33 39.4801 1553.77 45.8805 L1580.34 45.84 Z" fill="#000000" fill-rule="nonzero" fill-opacity="1" /><path clip-path="url(#clip320)" d="M1628.95 28.5427 L1628.95 35.5912 Q1625.79 33.9709 1622.39 33.1607 Q1618.99 32.3505 1615.34 32.3505 Q1609.79 32.3505 1607 34.0519 Q1604.24 35.7533 1604.24 39.156 Q1604.24 41.7486 1606.23 43.2475 Q1608.21 44.7058 1614.21 46.0426 L1616.76 46.6097 Q1624.7 48.3111 1628.02 51.4303 Q1631.38 54.509 1631.38 60.0587 Q1631.38 66.3781 1626.36 70.0644 Q1621.38 73.7508 1612.63 73.7508 Q1608.98 73.7508 1605.01 73.0216 Q1601.08 72.3329 1596.71 70.9151 L1596.71 63.2184 Q1600.84 65.3654 1604.85 66.4591 Q1608.86 67.5124 1612.79 67.5124 Q1618.05 67.5124 1620.89 65.73 Q1623.73 63.9071 1623.73 60.6258 Q1623.73 57.5877 1621.66 55.9673 Q1619.63 54.3469 1612.71 52.8481 L1610.11 52.2405 Q1603.19 50.7821 1600.11 47.7845 Q1597.03 44.7463 1597.03 39.4801 Q1597.03 33.0797 1601.57 29.5959 Q1606.1 26.1121 1614.45 26.1121 Q1618.58 26.1121 1622.23 26.7198 Q1625.87 27.3274 1628.95 28.5427 Z" fill="#000000" fill-rule="nonzero" fill-opacity="1" /><circle clip-path="url(#clip322)" cx="367.683" cy="1386.4" r="14.4" fill="#009af9" fill-rule="evenodd" fill-opacity="1" stroke="#000000" stroke-opacity="1" stroke-width="3.2"/>
<circle clip-path="url(#clip322)" cx="608.59" cy="206.816" r="14.4" fill="#009af9" fill-rule="evenodd" fill-opacity="1" stroke="#000000" stroke-opacity="1" stroke-width="3.2"/>
<circle clip-path="url(#clip322)" cx="849.497" cy="323.484" r="14.4" fill="#009af9" fill-rule="evenodd" fill-opacity="1" stroke="#000000" stroke-opacity="1" stroke-width="3.2"/>
<circle clip-path="url(#clip322)" cx="1090.4" cy="441.789" r="14.4" fill="#009af9" fill-rule="evenodd" fill-opacity="1" stroke="#000000" stroke-opacity="1" stroke-width="3.2"/>
<circle clip-path="url(#clip322)" cx="1331.31" cy="318.483" r="14.4" fill="#009af9" fill-rule="evenodd" fill-opacity="1" stroke="#000000" stroke-opacity="1" stroke-width="3.2"/>
<circle clip-path="url(#clip322)" cx="1572.22" cy="160.256" r="14.4" fill="#009af9" fill-rule="evenodd" fill-opacity="1" stroke="#000000" stroke-opacity="1" stroke-width="3.2"/>
<circle clip-path="url(#clip322)" cx="1813.12" cy="298.799" r="14.4" fill="#009af9" fill-rule="evenodd" fill-opacity="1" stroke="#000000" stroke-opacity="1" stroke-width="3.2"/>
<circle clip-path="url(#clip322)" cx="2054.03" cy="838.877" r="14.4" fill="#009af9" fill-rule="evenodd" fill-opacity="1" stroke="#000000" stroke-opacity="1" stroke-width="3.2"/>
<circle clip-path="url(#clip322)" cx="2294.94" cy="636.213" r="14.4" fill="#009af9" fill-rule="evenodd" fill-opacity="1" stroke="#000000" stroke-opacity="1" stroke-width="3.2"/>
</svg>
