<?xml version="1.0" encoding="utf-8"?>
<svg xmlns="http://www.w3.org/2000/svg" xmlns:xlink="http://www.w3.org/1999/xlink" width="600" height="400" viewBox="0 0 2400 1600">
<defs>
  <clipPath id="clip230">
    <rect x="0" y="0" width="2400" height="1600"/>
  </clipPath>
</defs>
<path clip-path="url(#clip230)" d="M0 1600 L2400 1600 L2400 0 L0 0  Z" fill="#ffffff" fill-rule="evenodd" fill-opacity="1"/>
<defs>
  <clipPath id="clip231">
    <rect x="480" y="0" width="1681" height="1600"/>
  </clipPath>
</defs>
<path clip-path="url(#clip230)" d="M234.125 1423.18 L2352.76 1423.18 L2352.76 47.2441 L234.125 47.2441  Z" fill="#ffffff" fill-rule="evenodd" fill-opacity="1"/>
<defs>
  <clipPath id="clip232">
    <rect x="234" y="47" width="2120" height="1377"/>
  </clipPath>
</defs>
<polyline clip-path="url(#clip232)" style="stroke:#000000; stroke-linecap:round; stroke-linejoin:round; stroke-width:2; stroke-opacity:0.1; fill:none" points="493.957,1423.18 493.957,47.2441 "/>
<polyline clip-path="url(#clip232)" style="stroke:#000000; stroke-linecap:round; stroke-linejoin:round; stroke-width:2; stroke-opacity:0.1; fill:none" points="893.699,1423.18 893.699,47.2441 "/>
<polyline clip-path="url(#clip232)" style="stroke:#000000; stroke-linecap:round; stroke-linejoin:round; stroke-width:2; stroke-opacity:0.1; fill:none" points="1293.44,1423.18 1293.44,47.2441 "/>
<polyline clip-path="url(#clip232)" style="stroke:#000000; stroke-linecap:round; stroke-linejoin:round; stroke-width:2; stroke-opacity:0.1; fill:none" points="1693.18,1423.18 1693.18,47.2441 "/>
<polyline clip-path="url(#clip232)" style="stroke:#000000; stroke-linecap:round; stroke-linejoin:round; stroke-width:2; stroke-opacity:0.1; fill:none" points="2092.92,1423.18 2092.92,47.2441 "/>
<polyline clip-path="url(#clip232)" style="stroke:#000000; stroke-linecap:round; stroke-linejoin:round; stroke-width:2; stroke-opacity:0.1; fill:none" points="234.125,1162 2352.76,1162 "/>
<polyline clip-path="url(#clip232)" style="stroke:#000000; stroke-linecap:round; stroke-linejoin:round; stroke-width:2; stroke-opacity:0.1; fill:none" points="234.125,859.097 2352.76,859.097 "/>
<polyline clip-path="url(#clip232)" style="stroke:#000000; stroke-linecap:round; stroke-linejoin:round; stroke-width:2; stroke-opacity:0.1; fill:none" points="234.125,556.193 2352.76,556.193 "/>
<polyline clip-path="url(#clip232)" style="stroke:#000000; stroke-linecap:round; stroke-linejoin:round; stroke-width:2; stroke-opacity:0.1; fill:none" points="234.125,253.288 2352.76,253.288 "/>
<polyline clip-path="url(#clip230)" style="stroke:#000000; stroke-linecap:round; stroke-linejoin:round; stroke-width:4; stroke-opacity:1; fill:none" points="234.125,1423.18 2352.76,1423.18 "/>
<polyline clip-path="url(#clip230)" style="stroke:#000000; stroke-linecap:round; stroke-linejoin:round; stroke-width:4; stroke-opacity:1; fill:none" points="493.957,1423.18 493.957,1404.28 "/>
<polyline clip-path="url(#clip230)" style="stroke:#000000; stroke-linecap:round; stroke-linejoin:round; stroke-width:4; stroke-opacity:1; fill:none" points="893.699,1423.18 893.699,1404.28 "/>
<polyline clip-path="url(#clip230)" style="stroke:#000000; stroke-linecap:round; stroke-linejoin:round; stroke-width:4; stroke-opacity:1; fill:none" points="1293.44,1423.18 1293.44,1404.28 "/>
<polyline clip-path="url(#clip230)" style="stroke:#000000; stroke-linecap:round; stroke-linejoin:round; stroke-width:4; stroke-opacity:1; fill:none" points="1693.18,1423.18 1693.18,1404.28 "/>
<polyline clip-path="url(#clip230)" style="stroke:#000000; stroke-linecap:round; stroke-linejoin:round; stroke-width:4; stroke-opacity:1; fill:none" points="2092.92,1423.18 2092.92,1404.28 "/>
<path clip-path="url(#clip230)" d="M450.034 1481.64 L466.353 1481.64 L466.353 1485.58 L444.409 1485.58 L444.409 1481.64 Q447.071 1478.89 451.654 1474.26 Q456.261 1469.61 457.441 1468.27 Q459.687 1465.74 460.566 1464.01 Q461.469 1462.25 461.469 1460.56 Q461.469 1457.8 459.525 1456.07 Q457.604 1454.33 454.502 1454.33 Q452.303 1454.33 449.849 1455.09 Q447.418 1455.86 444.641 1457.41 L444.641 1452.69 Q447.465 1451.55 449.918 1450.97 Q452.372 1450.39 454.409 1450.39 Q459.779 1450.39 462.974 1453.08 Q466.168 1455.77 466.168 1460.26 Q466.168 1462.39 465.358 1464.31 Q464.571 1466.2 462.465 1468.8 Q461.886 1469.47 458.784 1472.69 Q455.682 1475.88 450.034 1481.64 Z" fill="#000000" fill-rule="nonzero" fill-opacity="1" /><path clip-path="url(#clip230)" d="M489.015 1455.09 L477.21 1473.54 L489.015 1473.54 L489.015 1455.09 M487.789 1451.02 L493.668 1451.02 L493.668 1473.54 L498.599 1473.54 L498.599 1477.43 L493.668 1477.43 L493.668 1485.58 L489.015 1485.58 L489.015 1477.43 L473.414 1477.43 L473.414 1472.92 L487.789 1451.02 Z" fill="#000000" fill-rule="nonzero" fill-opacity="1" /><path clip-path="url(#clip230)" d="M506.33 1479.7 L511.214 1479.7 L511.214 1485.58 L506.33 1485.58 L506.33 1479.7 Z" fill="#000000" fill-rule="nonzero" fill-opacity="1" /><path clip-path="url(#clip230)" d="M531.978 1466.44 Q528.83 1466.44 526.978 1468.59 Q525.149 1470.74 525.149 1474.49 Q525.149 1478.22 526.978 1480.39 Q528.83 1482.55 531.978 1482.55 Q535.126 1482.55 536.955 1480.39 Q538.807 1478.22 538.807 1474.49 Q538.807 1470.74 536.955 1468.59 Q535.126 1466.44 531.978 1466.44 M541.26 1451.78 L541.26 1456.04 Q539.501 1455.21 537.696 1454.77 Q535.913 1454.33 534.154 1454.33 Q529.524 1454.33 527.071 1457.45 Q524.64 1460.58 524.293 1466.9 Q525.659 1464.89 527.719 1463.82 Q529.779 1462.73 532.256 1462.73 Q537.464 1462.73 540.473 1465.9 Q543.506 1469.05 543.506 1474.49 Q543.506 1479.82 540.358 1483.03 Q537.21 1486.25 531.978 1486.25 Q525.983 1486.25 522.811 1481.67 Q519.64 1477.06 519.64 1468.33 Q519.64 1460.14 523.529 1455.28 Q527.418 1450.39 533.969 1450.39 Q535.728 1450.39 537.51 1450.74 Q539.316 1451.09 541.26 1451.78 Z" fill="#000000" fill-rule="nonzero" fill-opacity="1" /><path clip-path="url(#clip230)" d="M849.903 1481.64 L866.222 1481.64 L866.222 1485.58 L844.278 1485.58 L844.278 1481.64 Q846.94 1478.89 851.523 1474.26 Q856.13 1469.61 857.31 1468.27 Q859.556 1465.74 860.435 1464.01 Q861.338 1462.25 861.338 1460.56 Q861.338 1457.8 859.394 1456.07 Q857.472 1454.33 854.371 1454.33 Q852.172 1454.33 849.718 1455.09 Q847.287 1455.86 844.51 1457.41 L844.51 1452.69 Q847.334 1451.55 849.787 1450.97 Q852.241 1450.39 854.278 1450.39 Q859.648 1450.39 862.843 1453.08 Q866.037 1455.77 866.037 1460.26 Q866.037 1462.39 865.227 1464.31 Q864.44 1466.2 862.334 1468.8 Q861.755 1469.47 858.653 1472.69 Q855.551 1475.88 849.903 1481.64 Z" fill="#000000" fill-rule="nonzero" fill-opacity="1" /><path clip-path="url(#clip230)" d="M888.884 1455.09 L877.079 1473.54 L888.884 1473.54 L888.884 1455.09 M887.657 1451.02 L893.537 1451.02 L893.537 1473.54 L898.468 1473.54 L898.468 1477.43 L893.537 1477.43 L893.537 1485.58 L888.884 1485.58 L888.884 1477.43 L873.283 1477.43 L873.283 1472.92 L887.657 1451.02 Z" fill="#000000" fill-rule="nonzero" fill-opacity="1" /><path clip-path="url(#clip230)" d="M906.199 1479.7 L911.083 1479.7 L911.083 1485.58 L906.199 1485.58 L906.199 1479.7 Z" fill="#000000" fill-rule="nonzero" fill-opacity="1" /><path clip-path="url(#clip230)" d="M931.268 1469.17 Q927.935 1469.17 926.014 1470.95 Q924.116 1472.73 924.116 1475.86 Q924.116 1478.98 926.014 1480.77 Q927.935 1482.55 931.268 1482.55 Q934.602 1482.55 936.523 1480.77 Q938.444 1478.96 938.444 1475.86 Q938.444 1472.73 936.523 1470.95 Q934.625 1469.17 931.268 1469.17 M926.592 1467.18 Q923.583 1466.44 921.893 1464.38 Q920.227 1462.32 920.227 1459.35 Q920.227 1455.21 923.167 1452.8 Q926.129 1450.39 931.268 1450.39 Q936.43 1450.39 939.37 1452.8 Q942.31 1455.21 942.31 1459.35 Q942.31 1462.32 940.62 1464.38 Q938.953 1466.44 935.967 1467.18 Q939.347 1467.96 941.222 1470.26 Q943.12 1472.55 943.12 1475.86 Q943.12 1480.88 940.041 1483.57 Q936.986 1486.25 931.268 1486.25 Q925.551 1486.25 922.472 1483.57 Q919.417 1480.88 919.417 1475.86 Q919.417 1472.55 921.315 1470.26 Q923.213 1467.96 926.592 1467.18 M924.879 1459.79 Q924.879 1462.48 926.546 1463.98 Q928.236 1465.49 931.268 1465.49 Q934.278 1465.49 935.967 1463.98 Q937.68 1462.48 937.68 1459.79 Q937.68 1457.11 935.967 1455.6 Q934.278 1454.1 931.268 1454.1 Q928.236 1454.1 926.546 1455.6 Q924.879 1457.11 924.879 1459.79 Z" fill="#000000" fill-rule="nonzero" fill-opacity="1" /><path clip-path="url(#clip230)" d="M1249.6 1481.64 L1265.92 1481.64 L1265.92 1485.58 L1243.97 1485.58 L1243.97 1481.64 Q1246.64 1478.89 1251.22 1474.26 Q1255.83 1469.61 1257.01 1468.27 Q1259.25 1465.74 1260.13 1464.01 Q1261.03 1462.25 1261.03 1460.56 Q1261.03 1457.8 1259.09 1456.07 Q1257.17 1454.33 1254.07 1454.33 Q1251.87 1454.33 1249.41 1455.09 Q1246.98 1455.86 1244.2 1457.41 L1244.2 1452.69 Q1247.03 1451.55 1249.48 1450.97 Q1251.94 1450.39 1253.97 1450.39 Q1259.34 1450.39 1262.54 1453.08 Q1265.73 1455.77 1265.73 1460.26 Q1265.73 1462.39 1264.92 1464.31 Q1264.14 1466.2 1262.03 1468.8 Q1261.45 1469.47 1258.35 1472.69 Q1255.25 1475.88 1249.6 1481.64 Z" fill="#000000" fill-rule="nonzero" fill-opacity="1" /><path clip-path="url(#clip230)" d="M1275.78 1451.02 L1294.14 1451.02 L1294.14 1454.96 L1280.06 1454.96 L1280.06 1463.43 Q1281.08 1463.08 1282.1 1462.92 Q1283.12 1462.73 1284.14 1462.73 Q1289.92 1462.73 1293.3 1465.9 Q1296.68 1469.08 1296.68 1474.49 Q1296.68 1480.07 1293.21 1483.17 Q1289.74 1486.25 1283.42 1486.25 Q1281.24 1486.25 1278.97 1485.88 Q1276.73 1485.51 1274.32 1484.77 L1274.32 1480.07 Q1276.4 1481.2 1278.63 1481.76 Q1280.85 1482.32 1283.32 1482.32 Q1287.33 1482.32 1289.67 1480.21 Q1292.01 1478.1 1292.01 1474.49 Q1292.01 1470.88 1289.67 1468.77 Q1287.33 1466.67 1283.32 1466.67 Q1281.45 1466.67 1279.58 1467.08 Q1277.72 1467.5 1275.78 1468.38 L1275.78 1451.02 Z" fill="#000000" fill-rule="nonzero" fill-opacity="1" /><path clip-path="url(#clip230)" d="M1305.89 1479.7 L1310.78 1479.7 L1310.78 1485.58 L1305.89 1485.58 L1305.89 1479.7 Z" fill="#000000" fill-rule="nonzero" fill-opacity="1" /><path clip-path="url(#clip230)" d="M1330.96 1454.1 Q1327.35 1454.1 1325.52 1457.66 Q1323.72 1461.2 1323.72 1468.33 Q1323.72 1475.44 1325.52 1479.01 Q1327.35 1482.55 1330.96 1482.55 Q1334.6 1482.55 1336.4 1479.01 Q1338.23 1475.44 1338.23 1468.33 Q1338.23 1461.2 1336.4 1457.66 Q1334.6 1454.1 1330.96 1454.1 M1330.96 1450.39 Q1336.77 1450.39 1339.83 1455 Q1342.91 1459.58 1342.91 1468.33 Q1342.91 1477.06 1339.83 1481.67 Q1336.77 1486.25 1330.96 1486.25 Q1325.15 1486.25 1322.07 1481.67 Q1319.02 1477.06 1319.02 1468.33 Q1319.02 1459.58 1322.07 1455 Q1325.15 1450.39 1330.96 1450.39 Z" fill="#000000" fill-rule="nonzero" fill-opacity="1" /><path clip-path="url(#clip230)" d="M1650.14 1481.64 L1666.46 1481.64 L1666.46 1485.58 L1644.51 1485.58 L1644.51 1481.64 Q1647.18 1478.89 1651.76 1474.26 Q1656.37 1469.61 1657.55 1468.27 Q1659.79 1465.74 1660.67 1464.01 Q1661.57 1462.25 1661.57 1460.56 Q1661.57 1457.8 1659.63 1456.07 Q1657.71 1454.33 1654.61 1454.33 Q1652.41 1454.33 1649.95 1455.09 Q1647.52 1455.86 1644.75 1457.41 L1644.75 1452.69 Q1647.57 1451.55 1650.02 1450.97 Q1652.48 1450.39 1654.51 1450.39 Q1659.88 1450.39 1663.08 1453.08 Q1666.27 1455.77 1666.27 1460.26 Q1666.27 1462.39 1665.46 1464.31 Q1664.68 1466.2 1662.57 1468.8 Q1661.99 1469.47 1658.89 1472.69 Q1655.79 1475.88 1650.14 1481.64 Z" fill="#000000" fill-rule="nonzero" fill-opacity="1" /><path clip-path="url(#clip230)" d="M1676.32 1451.02 L1694.68 1451.02 L1694.68 1454.96 L1680.6 1454.96 L1680.6 1463.43 Q1681.62 1463.08 1682.64 1462.92 Q1683.66 1462.73 1684.68 1462.73 Q1690.46 1462.73 1693.84 1465.9 Q1697.22 1469.08 1697.22 1474.49 Q1697.22 1480.07 1693.75 1483.17 Q1690.28 1486.25 1683.96 1486.25 Q1681.78 1486.25 1679.51 1485.88 Q1677.27 1485.51 1674.86 1484.77 L1674.86 1480.07 Q1676.94 1481.2 1679.17 1481.76 Q1681.39 1482.32 1683.87 1482.32 Q1687.87 1482.32 1690.21 1480.21 Q1692.55 1478.1 1692.55 1474.49 Q1692.55 1470.88 1690.21 1468.77 Q1687.87 1466.67 1683.87 1466.67 Q1681.99 1466.67 1680.12 1467.08 Q1678.26 1467.5 1676.32 1468.38 L1676.32 1451.02 Z" fill="#000000" fill-rule="nonzero" fill-opacity="1" /><path clip-path="url(#clip230)" d="M1706.43 1479.7 L1711.32 1479.7 L1711.32 1485.58 L1706.43 1485.58 L1706.43 1479.7 Z" fill="#000000" fill-rule="nonzero" fill-opacity="1" /><path clip-path="url(#clip230)" d="M1725.53 1481.64 L1741.85 1481.64 L1741.85 1485.58 L1719.91 1485.58 L1719.91 1481.64 Q1722.57 1478.89 1727.15 1474.26 Q1731.76 1469.61 1732.94 1468.27 Q1735.18 1465.74 1736.06 1464.01 Q1736.97 1462.25 1736.97 1460.56 Q1736.97 1457.8 1735.02 1456.07 Q1733.1 1454.33 1730 1454.33 Q1727.8 1454.33 1725.35 1455.09 Q1722.92 1455.86 1720.14 1457.41 L1720.14 1452.69 Q1722.96 1451.55 1725.42 1450.97 Q1727.87 1450.39 1729.91 1450.39 Q1735.28 1450.39 1738.47 1453.08 Q1741.67 1455.77 1741.67 1460.26 Q1741.67 1462.39 1740.86 1464.31 Q1740.07 1466.2 1737.96 1468.8 Q1737.38 1469.47 1734.28 1472.69 Q1731.18 1475.88 1725.53 1481.64 Z" fill="#000000" fill-rule="nonzero" fill-opacity="1" /><path clip-path="url(#clip230)" d="M2048.84 1481.64 L2065.16 1481.64 L2065.16 1485.58 L2043.21 1485.58 L2043.21 1481.64 Q2045.88 1478.89 2050.46 1474.26 Q2055.07 1469.61 2056.25 1468.27 Q2058.49 1465.74 2059.37 1464.01 Q2060.27 1462.25 2060.27 1460.56 Q2060.27 1457.8 2058.33 1456.07 Q2056.41 1454.33 2053.31 1454.33 Q2051.11 1454.33 2048.65 1455.09 Q2046.22 1455.86 2043.44 1457.41 L2043.44 1452.69 Q2046.27 1451.55 2048.72 1450.97 Q2051.18 1450.39 2053.21 1450.39 Q2058.58 1450.39 2061.78 1453.08 Q2064.97 1455.77 2064.97 1460.26 Q2064.97 1462.39 2064.16 1464.31 Q2063.38 1466.2 2061.27 1468.8 Q2060.69 1469.47 2057.59 1472.69 Q2054.49 1475.88 2048.84 1481.64 Z" fill="#000000" fill-rule="nonzero" fill-opacity="1" /><path clip-path="url(#clip230)" d="M2075.02 1451.02 L2093.38 1451.02 L2093.38 1454.96 L2079.3 1454.96 L2079.3 1463.43 Q2080.32 1463.08 2081.34 1462.92 Q2082.36 1462.73 2083.38 1462.73 Q2089.16 1462.73 2092.54 1465.9 Q2095.92 1469.08 2095.92 1474.49 Q2095.92 1480.07 2092.45 1483.17 Q2088.98 1486.25 2082.66 1486.25 Q2080.48 1486.25 2078.21 1485.88 Q2075.97 1485.51 2073.56 1484.77 L2073.56 1480.07 Q2075.64 1481.2 2077.87 1481.76 Q2080.09 1482.32 2082.57 1482.32 Q2086.57 1482.32 2088.91 1480.21 Q2091.25 1478.1 2091.25 1474.49 Q2091.25 1470.88 2088.91 1468.77 Q2086.57 1466.67 2082.57 1466.67 Q2080.69 1466.67 2078.82 1467.08 Q2076.96 1467.5 2075.02 1468.38 L2075.02 1451.02 Z" fill="#000000" fill-rule="nonzero" fill-opacity="1" /><path clip-path="url(#clip230)" d="M2105.13 1479.7 L2110.02 1479.7 L2110.02 1485.58 L2105.13 1485.58 L2105.13 1479.7 Z" fill="#000000" fill-rule="nonzero" fill-opacity="1" /><path clip-path="url(#clip230)" d="M2133.05 1455.09 L2121.25 1473.54 L2133.05 1473.54 L2133.05 1455.09 M2131.82 1451.02 L2137.7 1451.02 L2137.7 1473.54 L2142.63 1473.54 L2142.63 1477.43 L2137.7 1477.43 L2137.7 1485.58 L2133.05 1485.58 L2133.05 1477.43 L2117.45 1477.43 L2117.45 1472.92 L2131.82 1451.02 Z" fill="#000000" fill-rule="nonzero" fill-opacity="1" /><path clip-path="url(#clip230)" d="M1001.6 1520.52 L1028.91 1520.52 L1028.91 1525.93 L1008.03 1525.93 L1008.03 1539.94 L1026.88 1539.94 L1026.88 1545.35 L1008.03 1545.35 L1008.03 1568.04 L1001.6 1568.04 L1001.6 1520.52 Z" fill="#000000" fill-rule="nonzero" fill-opacity="1" /><path clip-path="url(#clip230)" d="M1054.76 1537.87 Q1053.77 1537.3 1052.59 1537.04 Q1051.45 1536.76 1050.05 1536.76 Q1045.08 1536.76 1042.41 1540 Q1039.77 1543.22 1039.77 1549.27 L1039.77 1568.04 L1033.88 1568.04 L1033.88 1532.4 L1039.77 1532.4 L1039.77 1537.93 Q1041.61 1534.69 1044.57 1533.13 Q1047.53 1531.54 1051.77 1531.54 Q1052.37 1531.54 1053.1 1531.63 Q1053.84 1531.7 1054.73 1531.85 L1054.76 1537.87 Z" fill="#000000" fill-rule="nonzero" fill-opacity="1" /><path clip-path="url(#clip230)" d="M1089.96 1548.76 L1089.96 1551.62 L1063.03 1551.62 Q1063.42 1557.67 1066.66 1560.85 Q1069.94 1564 1075.77 1564 Q1079.14 1564 1082.29 1563.17 Q1085.47 1562.35 1088.59 1560.69 L1088.59 1566.23 Q1085.44 1567.57 1082.13 1568.27 Q1078.82 1568.97 1075.42 1568.97 Q1066.89 1568.97 1061.89 1564 Q1056.92 1559.04 1056.92 1550.57 Q1056.92 1541.82 1061.63 1536.69 Q1066.38 1531.54 1074.4 1531.54 Q1081.59 1531.54 1085.76 1536.18 Q1089.96 1540.8 1089.96 1548.76 M1084.1 1547.04 Q1084.04 1542.23 1081.4 1539.37 Q1078.79 1536.5 1074.46 1536.5 Q1069.56 1536.5 1066.6 1539.27 Q1063.67 1542.04 1063.22 1547.07 L1084.1 1547.04 Z" fill="#000000" fill-rule="nonzero" fill-opacity="1" /><path clip-path="url(#clip230)" d="M1103.07 1550.25 Q1103.07 1556.71 1105.72 1560.4 Q1108.39 1564.07 1113.04 1564.07 Q1117.68 1564.07 1120.36 1560.4 Q1123.03 1556.71 1123.03 1550.25 Q1123.03 1543.79 1120.36 1540.13 Q1117.68 1536.44 1113.04 1536.44 Q1108.39 1536.44 1105.72 1540.13 Q1103.07 1543.79 1103.07 1550.25 M1123.03 1562.7 Q1121.18 1565.88 1118.35 1567.44 Q1115.55 1568.97 1111.6 1568.97 Q1105.14 1568.97 1101.07 1563.81 Q1097.03 1558.65 1097.03 1550.25 Q1097.03 1541.85 1101.07 1536.69 Q1105.14 1531.54 1111.6 1531.54 Q1115.55 1531.54 1118.35 1533.1 Q1121.18 1534.62 1123.03 1537.81 L1123.03 1532.4 L1128.89 1532.4 L1128.89 1581.6 L1123.03 1581.6 L1123.03 1562.7 Z" fill="#000000" fill-rule="nonzero" fill-opacity="1" /><path clip-path="url(#clip230)" d="M1140.35 1553.98 L1140.35 1532.4 L1146.2 1532.4 L1146.2 1553.75 Q1146.2 1558.81 1148.18 1561.36 Q1150.15 1563.87 1154.1 1563.87 Q1158.84 1563.87 1161.58 1560.85 Q1164.34 1557.83 1164.34 1552.61 L1164.34 1532.4 L1170.2 1532.4 L1170.2 1568.04 L1164.34 1568.04 L1164.34 1562.57 Q1162.21 1565.82 1159.38 1567.41 Q1156.58 1568.97 1152.85 1568.97 Q1146.71 1568.97 1143.53 1565.15 Q1140.35 1561.33 1140.35 1553.98 M1155.08 1531.54 L1155.08 1531.54 Z" fill="#000000" fill-rule="nonzero" fill-opacity="1" /><path clip-path="url(#clip230)" d="M1212.76 1548.76 L1212.76 1551.62 L1185.83 1551.62 Q1186.21 1557.67 1189.46 1560.85 Q1192.74 1564 1198.56 1564 Q1201.93 1564 1205.08 1563.17 Q1208.27 1562.35 1211.39 1560.69 L1211.39 1566.23 Q1208.24 1567.57 1204.93 1568.27 Q1201.62 1568.97 1198.21 1568.97 Q1189.68 1568.97 1184.68 1564 Q1179.72 1559.04 1179.72 1550.57 Q1179.72 1541.82 1184.43 1536.69 Q1189.17 1531.54 1197.19 1531.54 Q1204.38 1531.54 1208.55 1536.18 Q1212.76 1540.8 1212.76 1548.76 M1206.9 1547.04 Q1206.84 1542.23 1204.19 1539.37 Q1201.58 1536.5 1197.25 1536.5 Q1192.35 1536.5 1189.39 1539.27 Q1186.46 1542.04 1186.02 1547.07 L1206.9 1547.04 Z" fill="#000000" fill-rule="nonzero" fill-opacity="1" /><path clip-path="url(#clip230)" d="M1252 1546.53 L1252 1568.04 L1246.14 1568.04 L1246.14 1546.72 Q1246.14 1541.66 1244.17 1539.14 Q1242.2 1536.63 1238.25 1536.63 Q1233.51 1536.63 1230.77 1539.65 Q1228.03 1542.68 1228.03 1547.9 L1228.03 1568.04 L1222.14 1568.04 L1222.14 1532.4 L1228.03 1532.4 L1228.03 1537.93 Q1230.13 1534.72 1232.97 1533.13 Q1235.83 1531.54 1239.55 1531.54 Q1245.7 1531.54 1248.85 1535.36 Q1252 1539.14 1252 1546.53 Z" fill="#000000" fill-rule="nonzero" fill-opacity="1" /><path clip-path="url(#clip230)" d="M1289.33 1533.76 L1289.33 1539.24 Q1286.85 1537.87 1284.34 1537.2 Q1281.86 1536.5 1279.31 1536.5 Q1273.61 1536.5 1270.46 1540.13 Q1267.31 1543.73 1267.31 1550.25 Q1267.31 1556.78 1270.46 1560.4 Q1273.61 1564 1279.31 1564 Q1281.86 1564 1284.34 1563.33 Q1286.85 1562.63 1289.33 1561.26 L1289.33 1566.68 Q1286.88 1567.82 1284.24 1568.39 Q1281.63 1568.97 1278.67 1568.97 Q1270.62 1568.97 1265.88 1563.91 Q1261.13 1558.85 1261.13 1550.25 Q1261.13 1541.53 1265.91 1536.53 Q1270.72 1531.54 1279.05 1531.54 Q1281.76 1531.54 1284.34 1532.11 Q1286.92 1532.65 1289.33 1533.76 Z" fill="#000000" fill-rule="nonzero" fill-opacity="1" /><path clip-path="url(#clip230)" d="M1299.52 1532.4 L1305.38 1532.4 L1305.38 1568.04 L1299.52 1568.04 L1299.52 1532.4 M1299.52 1518.52 L1305.38 1518.52 L1305.38 1525.93 L1299.52 1525.93 L1299.52 1518.52 Z" fill="#000000" fill-rule="nonzero" fill-opacity="1" /><path clip-path="url(#clip230)" d="M1348.12 1548.76 L1348.12 1551.62 L1321.2 1551.62 Q1321.58 1557.67 1324.82 1560.85 Q1328.1 1564 1333.93 1564 Q1337.3 1564 1340.45 1563.17 Q1343.63 1562.35 1346.75 1560.69 L1346.75 1566.23 Q1343.6 1567.57 1340.29 1568.27 Q1336.98 1568.97 1333.58 1568.97 Q1325.05 1568.97 1320.05 1564 Q1315.08 1559.04 1315.08 1550.57 Q1315.08 1541.82 1319.79 1536.69 Q1324.54 1531.54 1332.56 1531.54 Q1339.75 1531.54 1343.92 1536.18 Q1348.12 1540.8 1348.12 1548.76 M1342.27 1547.04 Q1342.2 1542.23 1339.56 1539.37 Q1336.95 1536.5 1332.62 1536.5 Q1327.72 1536.5 1324.76 1539.27 Q1321.83 1542.04 1321.39 1547.07 L1342.27 1547.04 Z" fill="#000000" fill-rule="nonzero" fill-opacity="1" /><path clip-path="url(#clip230)" d="M1380.46 1533.45 L1380.46 1538.98 Q1377.98 1537.71 1375.3 1537.07 Q1372.63 1536.44 1369.77 1536.44 Q1365.4 1536.44 1363.21 1537.77 Q1361.04 1539.11 1361.04 1541.79 Q1361.04 1543.82 1362.6 1545 Q1364.16 1546.15 1368.87 1547.2 L1370.88 1547.64 Q1377.12 1548.98 1379.73 1551.43 Q1382.37 1553.85 1382.37 1558.21 Q1382.37 1563.17 1378.42 1566.07 Q1374.51 1568.97 1367.63 1568.97 Q1364.77 1568.97 1361.65 1568.39 Q1358.56 1567.85 1355.12 1566.74 L1355.12 1560.69 Q1358.37 1562.38 1361.52 1563.24 Q1364.67 1564.07 1367.76 1564.07 Q1371.9 1564.07 1374.13 1562.66 Q1376.35 1561.23 1376.35 1558.65 Q1376.35 1556.27 1374.73 1554.99 Q1373.14 1553.72 1367.7 1552.54 L1365.66 1552.07 Q1360.22 1550.92 1357.8 1548.56 Q1355.38 1546.18 1355.38 1542.04 Q1355.38 1537.01 1358.94 1534.27 Q1362.51 1531.54 1369.07 1531.54 Q1372.31 1531.54 1375.18 1532.01 Q1378.04 1532.49 1380.46 1533.45 Z" fill="#000000" fill-rule="nonzero" fill-opacity="1" /><path clip-path="url(#clip230)" d="M1411.87 1518.52 L1425.37 1518.52 L1425.37 1523.07 L1417.73 1523.07 L1417.73 1572.09 L1425.37 1572.09 L1425.37 1576.64 L1411.87 1576.64 L1411.87 1518.52 Z" fill="#000000" fill-rule="nonzero" fill-opacity="1" /><path clip-path="url(#clip230)" d="M1470.5 1561.26 L1470.5 1548.5 L1460 1548.5 L1460 1543.22 L1476.87 1543.22 L1476.87 1563.62 Q1473.14 1566.26 1468.66 1567.63 Q1464.17 1568.97 1459.08 1568.97 Q1447.94 1568.97 1441.63 1562.47 Q1435.36 1555.95 1435.36 1544.33 Q1435.36 1532.68 1441.63 1526.19 Q1447.94 1519.66 1459.08 1519.66 Q1463.72 1519.66 1467.89 1520.81 Q1472.09 1521.96 1475.63 1524.18 L1475.63 1531.03 Q1472.06 1528 1468.05 1526.48 Q1464.04 1524.95 1459.62 1524.95 Q1450.9 1524.95 1446.5 1529.82 Q1442.14 1534.69 1442.14 1544.33 Q1442.14 1553.94 1446.5 1558.81 Q1450.9 1563.68 1459.62 1563.68 Q1463.02 1563.68 1465.7 1563.11 Q1468.37 1562.51 1470.5 1561.26 Z" fill="#000000" fill-rule="nonzero" fill-opacity="1" /><path clip-path="url(#clip230)" d="M1488.61 1520.52 L1495.04 1520.52 L1495.04 1540 L1518.4 1540 L1518.4 1520.52 L1524.83 1520.52 L1524.83 1568.04 L1518.4 1568.04 L1518.4 1545.41 L1495.04 1545.41 L1495.04 1568.04 L1488.61 1568.04 L1488.61 1520.52 Z" fill="#000000" fill-rule="nonzero" fill-opacity="1" /><path clip-path="url(#clip230)" d="M1534.83 1532.4 L1562.65 1532.4 L1562.65 1537.74 L1540.62 1563.37 L1562.65 1563.37 L1562.65 1568.04 L1534.03 1568.04 L1534.03 1562.7 L1556.06 1537.07 L1534.83 1537.07 L1534.83 1532.4 Z" fill="#000000" fill-rule="nonzero" fill-opacity="1" /><path clip-path="url(#clip230)" d="M1585.28 1518.52 L1585.28 1576.64 L1571.78 1576.64 L1571.78 1572.09 L1579.39 1572.09 L1579.39 1523.07 L1571.78 1523.07 L1571.78 1518.52 L1585.28 1518.52 Z" fill="#000000" fill-rule="nonzero" fill-opacity="1" /><polyline clip-path="url(#clip230)" style="stroke:#000000; stroke-linecap:round; stroke-linejoin:round; stroke-width:4; stroke-opacity:1; fill:none" points="234.125,1423.18 234.125,47.2441 "/>
<polyline clip-path="url(#clip230)" style="stroke:#000000; stroke-linecap:round; stroke-linejoin:round; stroke-width:4; stroke-opacity:1; fill:none" points="234.125,1162 253.023,1162 "/>
<polyline clip-path="url(#clip230)" style="stroke:#000000; stroke-linecap:round; stroke-linejoin:round; stroke-width:4; stroke-opacity:1; fill:none" points="234.125,859.097 253.023,859.097 "/>
<polyline clip-path="url(#clip230)" style="stroke:#000000; stroke-linecap:round; stroke-linejoin:round; stroke-width:4; stroke-opacity:1; fill:none" points="234.125,556.193 253.023,556.193 "/>
<polyline clip-path="url(#clip230)" style="stroke:#000000; stroke-linecap:round; stroke-linejoin:round; stroke-width:4; stroke-opacity:1; fill:none" points="234.125,253.288 253.023,253.288 "/>
<path clip-path="url(#clip230)" d="M119.885 1175.35 L136.204 1175.35 L136.204 1179.28 L114.26 1179.28 L114.26 1175.35 Q116.922 1172.59 121.505 1167.96 Q126.112 1163.31 127.292 1161.97 Q129.538 1159.44 130.417 1157.71 Q131.32 1155.95 131.32 1154.26 Q131.32 1151.5 129.376 1149.77 Q127.455 1148.03 124.353 1148.03 Q122.154 1148.03 119.7 1148.8 Q117.269 1149.56 114.492 1151.11 L114.492 1146.39 Q117.316 1145.25 119.769 1144.68 Q122.223 1144.1 124.26 1144.1 Q129.63 1144.1 132.825 1146.78 Q136.019 1149.47 136.019 1153.96 Q136.019 1156.09 135.209 1158.01 Q134.422 1159.91 132.316 1162.5 Q131.737 1163.17 128.635 1166.39 Q125.533 1169.58 119.885 1175.35 Z" fill="#000000" fill-rule="nonzero" fill-opacity="1" /><path clip-path="url(#clip230)" d="M146.066 1144.72 L164.422 1144.72 L164.422 1148.66 L150.348 1148.66 L150.348 1157.13 Q151.366 1156.78 152.385 1156.62 Q153.403 1156.43 154.422 1156.43 Q160.209 1156.43 163.589 1159.61 Q166.968 1162.78 166.968 1168.19 Q166.968 1173.77 163.496 1176.87 Q160.024 1179.95 153.704 1179.95 Q151.528 1179.95 149.26 1179.58 Q147.015 1179.21 144.607 1178.47 L144.607 1173.77 Q146.691 1174.91 148.913 1175.46 Q151.135 1176.02 153.612 1176.02 Q157.616 1176.02 159.954 1173.91 Q162.292 1171.8 162.292 1168.19 Q162.292 1164.58 159.954 1162.48 Q157.616 1160.37 153.612 1160.37 Q151.737 1160.37 149.862 1160.79 Q148.01 1161.2 146.066 1162.08 L146.066 1144.72 Z" fill="#000000" fill-rule="nonzero" fill-opacity="1" /><path clip-path="url(#clip230)" d="M186.181 1147.8 Q182.57 1147.8 180.741 1151.36 Q178.936 1154.91 178.936 1162.04 Q178.936 1169.14 180.741 1172.71 Q182.57 1176.25 186.181 1176.25 Q189.815 1176.25 191.621 1172.71 Q193.45 1169.14 193.45 1162.04 Q193.45 1154.91 191.621 1151.36 Q189.815 1147.8 186.181 1147.8 M186.181 1144.1 Q191.991 1144.1 195.047 1148.7 Q198.125 1153.29 198.125 1162.04 Q198.125 1170.76 195.047 1175.37 Q191.991 1179.95 186.181 1179.95 Q180.371 1179.95 177.292 1175.37 Q174.237 1170.76 174.237 1162.04 Q174.237 1153.29 177.292 1148.7 Q180.371 1144.1 186.181 1144.1 Z" fill="#000000" fill-rule="nonzero" fill-opacity="1" /><path clip-path="url(#clip230)" d="M120.88 872.442 L137.2 872.442 L137.2 876.377 L115.256 876.377 L115.256 872.442 Q117.918 869.687 122.501 865.058 Q127.107 860.405 128.288 859.062 Q130.533 856.539 131.413 854.803 Q132.316 853.044 132.316 851.354 Q132.316 848.599 130.371 846.863 Q128.45 845.127 125.348 845.127 Q123.149 845.127 120.695 845.891 Q118.265 846.655 115.487 848.206 L115.487 843.484 Q118.311 842.349 120.765 841.771 Q123.218 841.192 125.255 841.192 Q130.626 841.192 133.82 843.877 Q137.015 846.562 137.015 851.053 Q137.015 853.183 136.204 855.104 Q135.417 857.002 133.311 859.595 Q132.732 860.266 129.63 863.484 Q126.529 866.678 120.88 872.442 Z" fill="#000000" fill-rule="nonzero" fill-opacity="1" /><path clip-path="url(#clip230)" d="M145.834 841.817 L168.056 841.817 L168.056 843.808 L155.51 876.377 L150.626 876.377 L162.431 845.752 L145.834 845.752 L145.834 841.817 Z" fill="#000000" fill-rule="nonzero" fill-opacity="1" /><path clip-path="url(#clip230)" d="M177.223 841.817 L195.579 841.817 L195.579 845.752 L181.505 845.752 L181.505 854.224 Q182.524 853.877 183.542 853.715 Q184.561 853.53 185.579 853.53 Q191.366 853.53 194.746 856.701 Q198.125 859.872 198.125 865.289 Q198.125 870.868 194.653 873.97 Q191.181 877.048 184.862 877.048 Q182.686 877.048 180.417 876.678 Q178.172 876.308 175.764 875.567 L175.764 870.868 Q177.848 872.002 180.07 872.558 Q182.292 873.113 184.769 873.113 Q188.774 873.113 191.112 871.007 Q193.45 868.9 193.45 865.289 Q193.45 861.678 191.112 859.572 Q188.774 857.465 184.769 857.465 Q182.894 857.465 181.019 857.882 Q179.167 858.298 177.223 859.178 L177.223 841.817 Z" fill="#000000" fill-rule="nonzero" fill-opacity="1" /><path clip-path="url(#clip230)" d="M130.024 554.839 Q133.38 555.556 135.255 557.825 Q137.154 560.093 137.154 563.426 Q137.154 568.542 133.635 571.343 Q130.117 574.144 123.635 574.144 Q121.459 574.144 119.144 573.704 Q116.853 573.288 114.399 572.431 L114.399 567.917 Q116.343 569.051 118.658 569.63 Q120.973 570.209 123.496 570.209 Q127.894 570.209 130.186 568.473 Q132.501 566.737 132.501 563.426 Q132.501 560.371 130.348 558.658 Q128.218 556.922 124.399 556.922 L120.371 556.922 L120.371 553.079 L124.584 553.079 Q128.033 553.079 129.862 551.714 Q131.691 550.325 131.691 547.732 Q131.691 545.07 129.792 543.658 Q127.917 542.223 124.399 542.223 Q122.478 542.223 120.279 542.64 Q118.08 543.056 115.441 543.936 L115.441 539.769 Q118.103 539.028 120.418 538.658 Q122.755 538.288 124.816 538.288 Q130.14 538.288 133.242 540.718 Q136.343 543.126 136.343 547.246 Q136.343 550.116 134.7 552.107 Q133.056 554.075 130.024 554.839 Z" fill="#000000" fill-rule="nonzero" fill-opacity="1" /><path clip-path="url(#clip230)" d="M156.019 541.991 Q152.408 541.991 150.579 545.556 Q148.774 549.098 148.774 556.227 Q148.774 563.334 150.579 566.899 Q152.408 570.44 156.019 570.44 Q159.653 570.44 161.459 566.899 Q163.288 563.334 163.288 556.227 Q163.288 549.098 161.459 545.556 Q159.653 541.991 156.019 541.991 M156.019 538.288 Q161.829 538.288 164.885 542.894 Q167.964 547.477 167.964 556.227 Q167.964 564.954 164.885 569.561 Q161.829 574.144 156.019 574.144 Q150.209 574.144 147.13 569.561 Q144.075 564.954 144.075 556.227 Q144.075 547.477 147.13 542.894 Q150.209 538.288 156.019 538.288 Z" fill="#000000" fill-rule="nonzero" fill-opacity="1" /><path clip-path="url(#clip230)" d="M186.181 541.991 Q182.57 541.991 180.741 545.556 Q178.936 549.098 178.936 556.227 Q178.936 563.334 180.741 566.899 Q182.57 570.44 186.181 570.44 Q189.815 570.44 191.621 566.899 Q193.45 563.334 193.45 556.227 Q193.45 549.098 191.621 545.556 Q189.815 541.991 186.181 541.991 M186.181 538.288 Q191.991 538.288 195.047 542.894 Q198.125 547.477 198.125 556.227 Q198.125 564.954 195.047 569.561 Q191.991 574.144 186.181 574.144 Q180.371 574.144 177.292 569.561 Q174.237 564.954 174.237 556.227 Q174.237 547.477 177.292 542.894 Q180.371 538.288 186.181 538.288 Z" fill="#000000" fill-rule="nonzero" fill-opacity="1" /><path clip-path="url(#clip230)" d="M131.019 251.934 Q134.376 252.652 136.251 254.92 Q138.149 257.189 138.149 260.522 Q138.149 265.638 134.63 268.439 Q131.112 271.24 124.63 271.24 Q122.455 271.24 120.14 270.8 Q117.848 270.383 115.394 269.527 L115.394 265.013 Q117.339 266.147 119.654 266.726 Q121.968 267.304 124.492 267.304 Q128.89 267.304 131.181 265.568 Q133.496 263.832 133.496 260.522 Q133.496 257.467 131.343 255.754 Q129.214 254.018 125.394 254.018 L121.367 254.018 L121.367 250.175 L125.58 250.175 Q129.029 250.175 130.857 248.809 Q132.686 247.42 132.686 244.828 Q132.686 242.166 130.788 240.754 Q128.913 239.319 125.394 239.319 Q123.473 239.319 121.274 239.735 Q119.075 240.152 116.436 241.031 L116.436 236.865 Q119.098 236.124 121.413 235.754 Q123.751 235.383 125.811 235.383 Q131.135 235.383 134.237 237.814 Q137.339 240.221 137.339 244.342 Q137.339 247.212 135.695 249.203 Q134.052 251.17 131.019 251.934 Z" fill="#000000" fill-rule="nonzero" fill-opacity="1" /><path clip-path="url(#clip230)" d="M151.042 266.633 L167.362 266.633 L167.362 270.568 L145.417 270.568 L145.417 266.633 Q148.079 263.879 152.663 259.249 Q157.269 254.596 158.45 253.254 Q160.695 250.73 161.575 248.994 Q162.477 247.235 162.477 245.545 Q162.477 242.791 160.533 241.055 Q158.612 239.319 155.51 239.319 Q153.311 239.319 150.857 240.082 Q148.427 240.846 145.649 242.397 L145.649 237.675 Q148.473 236.541 150.927 235.962 Q153.38 235.383 155.417 235.383 Q160.788 235.383 163.982 238.069 Q167.177 240.754 167.177 245.244 Q167.177 247.374 166.366 249.295 Q165.579 251.193 163.473 253.786 Q162.894 254.457 159.792 257.675 Q156.69 260.869 151.042 266.633 Z" fill="#000000" fill-rule="nonzero" fill-opacity="1" /><path clip-path="url(#clip230)" d="M177.223 236.008 L195.579 236.008 L195.579 239.944 L181.505 239.944 L181.505 248.416 Q182.524 248.068 183.542 247.906 Q184.561 247.721 185.579 247.721 Q191.366 247.721 194.746 250.893 Q198.125 254.064 198.125 259.48 Q198.125 265.059 194.653 268.161 Q191.181 271.24 184.862 271.24 Q182.686 271.24 180.417 270.869 Q178.172 270.499 175.764 269.758 L175.764 265.059 Q177.848 266.193 180.07 266.749 Q182.292 267.304 184.769 267.304 Q188.774 267.304 191.112 265.198 Q193.45 263.092 193.45 259.48 Q193.45 255.869 191.112 253.763 Q188.774 251.656 184.769 251.656 Q182.894 251.656 181.019 252.073 Q179.167 252.49 177.223 253.369 L177.223 236.008 Z" fill="#000000" fill-rule="nonzero" fill-opacity="1" /><path clip-path="url(#clip230)" d="M41.3104 969.884 L58.7206 969.884 L58.7206 959.571 Q58.7206 954.383 56.5881 951.901 Q54.4238 949.386 49.9996 949.386 Q45.5436 949.386 43.4429 951.901 Q41.3104 954.383 41.3104 959.571 L41.3104 969.884 M21.7677 969.884 L36.0905 969.884 L36.0905 960.367 Q36.0905 955.656 34.34 953.365 Q32.5576 951.041 28.9291 951.041 Q25.3325 951.041 23.5501 953.365 Q21.7677 955.656 21.7677 960.367 L21.7677 969.884 M16.4842 976.313 L16.4842 959.89 Q16.4842 952.537 19.5397 948.559 Q22.5952 944.58 28.2289 944.58 Q32.5894 944.58 35.1675 946.617 Q37.7456 948.654 38.3822 952.601 Q39.4007 947.858 42.6472 945.248 Q45.8619 942.607 50.6998 942.607 Q57.0655 942.607 60.5348 946.935 Q64.0042 951.264 64.0042 959.253 L64.0042 976.313 L16.4842 976.313 Z" fill="#000000" fill-rule="nonzero" fill-opacity="1" /><path clip-path="url(#clip230)" d="M32.4621 918.035 Q32.4621 922.746 36.1542 925.483 Q39.8145 928.22 46.212 928.22 Q52.6095 928.22 56.3017 925.515 Q59.9619 922.778 59.9619 918.035 Q59.9619 913.356 56.2698 910.619 Q52.5777 907.882 46.212 907.882 Q39.8781 907.882 36.186 910.619 Q32.4621 913.356 32.4621 918.035 M27.4968 918.035 Q27.4968 910.396 32.4621 906.036 Q37.4273 901.675 46.212 901.675 Q54.9649 901.675 59.9619 906.036 Q64.9272 910.396 64.9272 918.035 Q64.9272 925.706 59.9619 930.066 Q54.9649 934.395 46.212 934.395 Q37.4273 934.395 32.4621 930.066 Q27.4968 925.706 27.4968 918.035 Z" fill="#000000" fill-rule="nonzero" fill-opacity="1" /><path clip-path="url(#clip230)" d="M32.4621 878.154 Q32.4621 882.865 36.1542 885.602 Q39.8145 888.339 46.212 888.339 Q52.6095 888.339 56.3017 885.634 Q59.9619 882.896 59.9619 878.154 Q59.9619 873.475 56.2698 870.738 Q52.5777 868.001 46.212 868.001 Q39.8781 868.001 36.186 870.738 Q32.4621 873.475 32.4621 878.154 M27.4968 878.154 Q27.4968 870.515 32.4621 866.155 Q37.4273 861.794 46.212 861.794 Q54.9649 861.794 59.9619 866.155 Q64.9272 870.515 64.9272 878.154 Q64.9272 885.825 59.9619 890.185 Q54.9649 894.514 46.212 894.514 Q37.4273 894.514 32.4621 890.185 Q27.4968 885.825 27.4968 878.154 Z" fill="#000000" fill-rule="nonzero" fill-opacity="1" /><path clip-path="url(#clip230)" d="M29.4065 829.361 L34.9447 829.361 Q33.6716 831.843 33.035 834.517 Q32.3984 837.191 32.3984 840.055 Q32.3984 844.416 33.7352 846.612 Q35.072 848.776 37.7456 848.776 Q39.7826 848.776 40.9603 847.217 Q42.1061 845.657 43.1565 840.946 L43.6021 838.941 Q44.9389 832.703 47.3897 830.093 Q49.8086 827.451 54.1691 827.451 Q59.1344 827.451 62.0308 831.398 Q64.9272 835.313 64.9272 842.188 Q64.9272 845.052 64.3543 848.171 Q63.8132 851.259 62.6992 854.696 L56.6518 854.696 Q58.3387 851.45 59.198 848.299 Q60.0256 845.148 60.0256 842.06 Q60.0256 837.923 58.6251 835.695 Q57.1929 833.467 54.6147 833.467 Q52.2276 833.467 50.9545 835.09 Q49.6813 836.681 48.5037 842.124 L48.0262 844.161 Q46.8804 849.604 44.5251 852.023 Q42.138 854.442 38.0002 854.442 Q32.9713 854.442 30.2341 850.877 Q27.4968 847.312 27.4968 840.755 Q27.4968 837.509 27.9743 834.644 Q28.4517 831.78 29.4065 829.361 Z" fill="#000000" fill-rule="nonzero" fill-opacity="1" /><path clip-path="url(#clip230)" d="M18.2347 812.333 L28.3562 812.333 L28.3562 800.269 L32.9077 800.269 L32.9077 812.333 L52.2594 812.333 Q56.6199 812.333 57.8613 811.155 Q59.1026 809.945 59.1026 806.285 L59.1026 800.269 L64.0042 800.269 L64.0042 806.285 Q64.0042 813.065 61.4897 815.643 Q58.9434 818.221 52.2594 818.221 L32.9077 818.221 L32.9077 822.518 L28.3562 822.518 L28.3562 818.221 L18.2347 818.221 L18.2347 812.333 Z" fill="#000000" fill-rule="nonzero" fill-opacity="1" /><path clip-path="url(#clip230)" d="M16.4842 771.592 L16.4842 744.283 L21.895 744.283 L21.895 765.163 L35.8996 765.163 L35.8996 746.32 L41.3104 746.32 L41.3104 765.163 L64.0042 765.163 L64.0042 771.592 L16.4842 771.592 Z" fill="#000000" fill-rule="nonzero" fill-opacity="1" /><path clip-path="url(#clip230)" d="M46.0847 724.136 Q46.0847 731.233 47.7079 733.971 Q49.3312 736.708 53.2461 736.708 Q56.3653 736.708 58.2114 734.671 Q60.0256 732.602 60.0256 729.069 Q60.0256 724.199 56.5881 721.271 Q53.1188 718.311 47.3897 718.311 L46.0847 718.311 L46.0847 724.136 M43.6657 712.455 L64.0042 712.455 L64.0042 718.311 L58.5933 718.311 Q61.8398 720.316 63.3994 723.308 Q64.9272 726.3 64.9272 730.629 Q64.9272 736.103 61.8716 739.35 Q58.7843 742.564 53.6281 742.564 Q47.6125 742.564 44.5569 738.554 Q41.5014 734.512 41.5014 726.523 L41.5014 718.311 L40.9285 718.311 Q36.8862 718.311 34.6901 720.985 Q32.4621 723.626 32.4621 728.432 Q32.4621 731.488 33.1941 734.384 Q33.9262 737.281 35.3903 739.954 L29.9795 739.954 Q28.7381 736.74 28.1334 733.716 Q27.4968 730.692 27.4968 727.828 Q27.4968 720.093 31.5072 716.274 Q35.5176 712.455 43.6657 712.455 Z" fill="#000000" fill-rule="nonzero" fill-opacity="1" /><path clip-path="url(#clip230)" d="M29.7248 674.738 L35.1993 674.738 Q33.8307 677.22 33.1623 679.735 Q32.4621 682.217 32.4621 684.764 Q32.4621 690.461 36.0905 693.612 Q39.6872 696.763 46.212 696.763 Q52.7369 696.763 56.3653 693.612 Q59.9619 690.461 59.9619 684.764 Q59.9619 682.217 59.2935 679.735 Q58.5933 677.22 57.2247 674.738 L62.6355 674.738 Q63.7814 677.189 64.3543 679.83 Q64.9272 682.44 64.9272 685.4 Q64.9272 693.453 59.8664 698.195 Q54.8057 702.938 46.212 702.938 Q37.491 702.938 32.4939 698.164 Q27.4968 693.357 27.4968 685.018 Q27.4968 682.313 28.0697 679.735 Q28.6108 677.157 29.7248 674.738 Z" fill="#000000" fill-rule="nonzero" fill-opacity="1" /><path clip-path="url(#clip230)" d="M18.2347 658.76 L28.3562 658.76 L28.3562 646.697 L32.9077 646.697 L32.9077 658.76 L52.2594 658.76 Q56.6199 658.76 57.8613 657.582 Q59.1026 656.373 59.1026 652.712 L59.1026 646.697 L64.0042 646.697 L64.0042 652.712 Q64.0042 659.492 61.4897 662.07 Q58.9434 664.648 52.2594 664.648 L32.9077 664.648 L32.9077 668.945 L28.3562 668.945 L28.3562 664.648 L18.2347 664.648 L18.2347 658.76 Z" fill="#000000" fill-rule="nonzero" fill-opacity="1" /><path clip-path="url(#clip230)" d="M32.4621 625.181 Q32.4621 629.891 36.1542 632.629 Q39.8145 635.366 46.212 635.366 Q52.6095 635.366 56.3017 632.66 Q59.9619 629.923 59.9619 625.181 Q59.9619 620.502 56.2698 617.765 Q52.5777 615.027 46.212 615.027 Q39.8781 615.027 36.186 617.765 Q32.4621 620.502 32.4621 625.181 M27.4968 625.181 Q27.4968 617.542 32.4621 613.181 Q37.4273 608.821 46.212 608.821 Q54.9649 608.821 59.9619 613.181 Q64.9272 617.542 64.9272 625.181 Q64.9272 632.851 59.9619 637.212 Q54.9649 641.541 46.212 641.541 Q37.4273 641.541 32.4621 637.212 Q27.4968 632.851 27.4968 625.181 Z" fill="#000000" fill-rule="nonzero" fill-opacity="1" /><path clip-path="url(#clip230)" d="M33.8307 578.456 Q33.2578 579.443 33.0032 580.621 Q32.7167 581.767 32.7167 583.167 Q32.7167 588.132 35.9632 590.806 Q39.1779 593.448 45.2253 593.448 L64.0042 593.448 L64.0042 599.336 L28.3562 599.336 L28.3562 593.448 L33.8944 593.448 Q30.6479 591.602 29.0883 588.642 Q27.4968 585.682 27.4968 581.448 Q27.4968 580.844 27.5923 580.112 Q27.656 579.379 27.8151 578.488 L33.8307 578.456 Z" fill="#000000" fill-rule="nonzero" fill-opacity="1" /><path clip-path="url(#clip230)" d="M61.808 545.737 L77.5631 545.737 L77.5631 551.625 L28.579 551.625 Q14.0652 551.625 14.0652 538.066 Q14.0652 524.252 26.3192 524.252 Q35.0402 524.252 38.223 529.727 Q41.0876 520.815 49.5858 520.815 Q64.6726 520.815 64.6726 536.156 Q64.6726 542.904 61.808 545.737 M54.1691 545.737 Q59.6755 542.204 59.6755 535.934 Q59.6755 526.767 49.6813 526.767 Q40.7057 526.767 41.4059 541.535 L35.995 541.535 Q35.995 529.982 25.8099 529.982 Q18.8395 529.982 18.8395 537.429 Q18.8395 545.737 28.77 545.737 L54.1691 545.737 Z" fill="#000000" fill-rule="nonzero" fill-opacity="1" /><path clip-path="url(#clip230)" d="M39.1142 507.606 L39.1142 494.111 L42.7427 494.111 L42.7427 513.144 L39.2416 513.144 Q38.2549 512.062 36.4725 510.057 Q26.7648 499.108 23.7729 499.108 Q21.6722 499.108 20.3991 500.763 Q19.0941 502.418 19.0941 505.124 Q19.0941 506.779 19.667 508.72 Q20.2081 510.662 21.3221 512.953 L17.4072 512.953 Q16.516 510.503 16.0704 508.402 Q15.6248 506.269 15.6248 504.455 Q15.6248 499.84 17.7255 497.071 Q19.8262 494.302 23.2636 494.302 Q27.6878 494.302 36.7271 504.837 Q38.2549 506.619 39.1142 507.606 Z" fill="#000000" fill-rule="nonzero" fill-opacity="1" /><polyline clip-path="url(#clip232)" style="stroke:#009af9; stroke-linecap:round; stroke-linejoin:round; stroke-width:4; stroke-opacity:1; fill:none" points="294.087,144.796 296.087,147.347 298.088,149.939 300.089,152.571 302.09,155.244 304.09,157.956 306.091,160.708 308.092,163.497 310.092,166.324 312.093,169.189 314.094,172.089 316.094,175.026 318.095,177.998 320.096,181.004 322.097,184.045 324.097,187.119 326.098,190.226 328.099,193.366 330.099,196.537 332.1,199.74 334.101,202.973 336.102,206.237 338.102,209.53 340.103,212.852 342.104,216.202 344.104,219.581 346.105,222.986 348.106,226.419 350.107,229.878 352.107,233.363 354.108,236.873 356.109,240.408 358.109,243.968 360.11,247.551 362.111,251.157 364.111,254.786 366.112,258.437 368.113,262.11 370.114,265.805 372.114,269.52 374.115,273.255 376.116,277.011 378.116,280.785 380.117,284.579 382.118,288.391 384.119,292.222 386.119,296.069 388.12,299.934 390.121,303.816 392.121,307.714 394.122,311.627 396.123,315.556 398.124,319.5 400.124,323.459 402.125,327.432 404.126,331.418 406.126,335.418 408.127,339.43 410.128,343.455 412.129,347.492 414.129,351.541 416.13,355.602 418.131,359.673 420.131,363.755 422.132,367.847 424.133,371.949 426.133,376.06 428.134,380.18 430.135,384.31 432.136,388.447 434.136,392.593 436.137,396.746 438.138,400.907 440.138,405.075 442.139,409.249 444.14,413.43 446.141,417.617 448.141,421.81 450.142,426.008 452.143,430.211 454.143,434.419 456.144,438.632 458.145,442.848 460.146,447.069 462.146,451.293 464.147,455.521 466.148,459.752 468.148,463.985 470.149,468.221 472.15,472.459 474.15,476.699 476.151,480.94 478.152,485.183 480.153,489.427 482.153,493.673 484.154,497.918 486.155,502.164 488.155,506.41 490.156,510.657 492.157,514.902 494.158,519.147 496.158,523.392 498.159,527.635 500.16,531.877 502.16,536.118 504.161,540.356 506.162,544.593 508.163,548.828 510.163,553.06 512.164,557.29 514.165,561.517 516.165,565.741 518.166,569.962 520.167,574.179 522.167,578.393 524.168,582.604 526.169,586.81 528.17,591.012 530.17,595.21 532.171,599.403 534.172,603.592 536.172,607.776 538.173,611.954 540.174,616.128 542.175,620.296 544.175,624.459 546.176,628.616 548.177,632.768 550.177,636.913 552.178,641.053 554.179,645.186 556.18,649.312 558.18,653.432 560.181,657.545 562.182,661.652 564.182,665.751 566.183,669.844 568.184,673.929 570.184,678.006 572.185,682.077 574.186,686.139 576.187,690.194 578.187,694.241 580.188,698.28 582.189,702.31 584.189,706.333 586.19,710.347 588.191,714.353 590.192,718.35 592.192,722.338 594.193,726.318 596.194,730.288 598.194,734.25 600.195,738.203 602.196,742.146 604.197,746.08 606.197,750.005 608.198,753.92 610.199,757.825 612.199,761.721 614.2,765.607 616.201,769.484 618.201,773.35 620.202,777.206 622.203,781.053 624.204,784.889 626.204,788.715 628.205,792.53 630.206,796.335 632.206,800.13 634.207,803.914 636.208,807.687 638.209,811.45 640.209,815.202 642.21,818.943 644.211,822.673 646.211,826.392 648.212,830.101 650.213,833.798 652.214,837.484 654.214,841.159 656.215,844.822 658.216,848.475 660.216,852.116 662.217,855.745 664.218,859.363 666.219,862.97 668.219,866.564 670.22,870.148 672.221,873.719 674.221,877.279 676.222,880.827 678.223,884.364 680.223,887.888 682.224,891.401 684.225,894.902 686.226,898.39 688.226,901.867 690.227,905.332 692.228,908.784 694.228,912.225 696.229,915.653 698.23,919.069 700.231,922.473 702.231,925.865 704.232,929.244 706.233,932.611 708.233,935.966 710.234,939.308 712.235,942.638 714.236,945.955 716.236,949.26 718.237,952.553 720.238,955.833 722.238,959.101 724.239,962.356 726.24,965.598 728.24,968.828 730.241,972.045 732.242,975.25 734.243,978.441 736.243,981.621 738.244,984.787 740.245,987.941 742.245,991.082 744.246,994.211 746.247,997.326 748.248,1000.43 750.248,1003.52 752.249,1006.6 754.25,1009.66 756.25,1012.71 758.251,1015.75 760.252,1018.78 762.253,1021.79 764.253,1024.79 766.254,1027.78 768.255,1030.75 770.255,1033.71 772.256,1036.66 774.257,1039.6 776.257,1042.52 778.258,1045.43 780.259,1048.33 782.26,1051.21 784.26,1054.08 786.261,1056.94 788.262,1059.79 790.262,1062.62 792.263,1065.44 794.264,1068.24 796.265,1071.04 798.265,1073.82 800.266,1076.59 802.267,1079.34 804.267,1082.08 806.268,1084.81 808.269,1087.53 810.27,1090.23 812.27,1092.92 814.271,1095.6 816.272,1098.26 818.272,1100.91 820.273,1103.55 822.274,1106.17 824.274,1108.78 826.275,1111.38 828.276,1113.97 830.277,1116.54 832.277,1119.1 834.278,1121.65 836.279,1124.18 838.279,1126.71 840.28,1129.21 842.281,1131.71 844.282,1134.19 846.282,1136.66 848.283,1139.12 850.284,1141.56 852.284,1143.99 854.285,1146.41 856.286,1148.82 858.287,1151.21 860.287,1153.59 862.288,1155.95 864.289,1158.31 866.289,1160.65 868.29,1162.98 870.291,1165.29 872.291,1167.59 874.292,1169.88 876.293,1172.16 878.294,1174.42 880.294,1176.68 882.295,1178.91 884.296,1181.14 886.296,1183.35 888.297,1185.55 890.298,1187.74 892.299,1189.91 894.299,1192.08 896.3,1194.23 898.301,1196.36 900.301,1198.49 902.302,1200.6 904.303,1202.69 906.304,1204.78 908.304,1206.85 910.305,1208.91 912.306,1210.96 914.306,1213 916.307,1215.02 918.308,1217.03 920.309,1219.03 922.309,1221.01 924.31,1222.98 926.311,1224.94 928.311,1226.89 930.312,1228.82 932.313,1230.75 934.313,1232.66 936.314,1234.55 938.315,1236.44 940.316,1238.31 942.316,1240.17 944.317,1242.01 946.318,1243.85 948.318,1245.67 950.319,1247.48 952.32,1249.28 954.321,1251.06 956.321,1252.84 958.322,1254.6 960.323,1256.34 962.323,1258.08 964.324,1259.8 966.325,1261.51 968.326,1263.21 970.326,1264.9 972.327,1266.57 974.328,1268.23 976.328,1269.88 978.329,1271.52 980.33,1273.14 982.33,1274.75 984.331,1276.35 986.332,1277.94 988.333,1279.52 990.333,1281.08 992.334,1282.63 994.335,1284.17 996.335,1285.7 998.336,1287.21 1000.34,1288.72 1002.34,1290.21 1004.34,1291.69 1006.34,1293.15 1008.34,1294.61 1010.34,1296.05 1012.34,1297.48 1014.34,1298.9 1016.34,1300.3 1018.34,1301.7 1020.34,1303.08 1022.34,1304.45 1024.35,1305.81 1026.35,1307.15 1028.35,1308.49 1030.35,1309.81 1032.35,1311.12 1034.35,1312.42 1036.35,1313.7 1038.35,1314.98 1040.35,1316.24 1042.35,1317.49 1044.35,1318.73 1046.35,1319.95 1048.35,1321.17 1050.35,1322.37 1052.36,1323.56 1054.36,1324.74 1056.36,1325.91 1058.36,1327.06 1060.36,1328.21 1062.36,1329.34 1064.36,1330.46 1066.36,1331.57 1068.36,1332.66 1070.36,1333.75 1072.36,1334.82 1074.36,1335.88 1076.36,1336.93 1078.36,1337.97 1080.37,1338.99 1082.37,1340.01 1084.37,1341.01 1086.37,1342 1088.37,1342.98 1090.37,1343.95 1092.37,1344.9 1094.37,1345.85 1096.37,1346.78 1098.37,1347.7 1100.37,1348.61 1102.37,1349.51 1104.37,1350.4 1106.37,1351.27 1108.38,1352.13 1110.38,1352.98 1112.38,1353.82 1114.38,1354.65 1116.38,1355.47 1118.38,1356.27 1120.38,1357.07 1122.38,1357.85 1124.38,1358.62 1126.38,1359.38 1128.38,1360.12 1130.38,1360.86 1132.38,1361.58 1134.38,1362.3 1136.39,1363 1138.39,1363.69 1140.39,1364.37 1142.39,1365.03 1144.39,1365.69 1146.39,1366.33 1148.39,1366.96 1150.39,1367.59 1152.39,1368.2 1154.39,1368.79 1156.39,1369.38 1158.39,1369.95 1160.39,1370.52 1162.39,1371.07 1164.39,1371.61 1166.4,1372.14 1168.4,1372.66 1170.4,1373.17 1172.4,1373.66 1174.4,1374.15 1176.4,1374.62 1178.4,1375.08 1180.4,1375.53 1182.4,1375.97 1184.4,1376.39 1186.4,1376.81 1188.4,1377.21 1190.4,1377.61 1192.4,1377.99 1194.41,1378.36 1196.41,1378.72 1198.41,1379.07 1200.41,1379.4 1202.41,1379.73 1204.41,1380.04 1206.41,1380.34 1208.41,1380.64 1210.41,1380.91 1212.41,1381.18 1214.41,1381.44 1216.41,1381.69 1218.41,1381.92 1220.41,1382.14 1222.42,1382.36 1224.42,1382.56 1226.42,1382.75 1228.42,1382.92 1230.42,1383.09 1232.42,1383.25 1234.42,1383.39 1236.42,1383.52 1238.42,1383.64 1240.42,1383.75 1242.42,1383.85 1244.42,1383.94 1246.42,1384.02 1248.42,1384.08 1250.43,1384.14 1252.43,1384.18 1254.43,1384.21 1256.43,1384.23 1258.43,1384.24 1260.43,1384.24 1262.43,1384.22 1264.43,1384.2 1266.43,1384.16 1268.43,1384.11 1270.43,1384.05 1272.43,1383.98 1274.43,1383.9 1276.43,1383.81 1278.44,1383.7 1280.44,1383.59 1282.44,1383.46 1284.44,1383.32 1286.44,1383.17 1288.44,1383.01 1290.44,1382.84 1292.44,1382.66 1294.44,1382.46 1296.44,1382.26 1298.44,1382.04 1300.44,1381.81 1302.44,1381.57 1304.44,1381.32 1306.45,1381.06 1308.45,1380.79 1310.45,1380.5 1312.45,1380.21 1314.45,1379.9 1316.45,1379.58 1318.45,1379.25 1320.45,1378.91 1322.45,1378.55 1324.45,1378.19 1326.45,1377.81 1328.45,1377.43 1330.45,1377.03 1332.45,1376.62 1334.46,1376.2 1336.46,1375.77 1338.46,1375.32 1340.46,1374.87 1342.46,1374.4 1344.46,1373.92 1346.46,1373.43 1348.46,1372.93 1350.46,1372.42 1352.46,1371.9 1354.46,1371.36 1356.46,1370.82 1358.46,1370.26 1360.46,1369.69 1362.47,1369.11 1364.47,1368.52 1366.47,1367.91 1368.47,1367.3 1370.47,1366.67 1372.47,1366.04 1374.47,1365.39 1376.47,1364.73 1378.47,1364.05 1380.47,1363.37 1382.47,1362.68 1384.47,1361.97 1386.47,1361.25 1388.47,1360.52 1390.48,1359.78 1392.48,1359.03 1394.48,1358.26 1396.48,1357.49 1398.48,1356.7 1400.48,1355.9 1402.48,1355.09 1404.48,1354.27 1406.48,1353.44 1408.48,1352.59 1410.48,1351.73 1412.48,1350.87 1414.48,1349.99 1416.48,1349.09 1418.48,1348.19 1420.49,1347.28 1422.49,1346.35 1424.49,1345.41 1426.49,1344.46 1428.49,1343.5 1430.49,1342.53 1432.49,1341.54 1434.49,1340.55 1436.49,1339.54 1438.49,1338.52 1440.49,1337.49 1442.49,1336.45 1444.49,1335.39 1446.49,1334.32 1448.5,1333.25 1450.5,1332.16 1452.5,1331.05 1454.5,1329.94 1456.5,1328.81 1458.5,1327.68 1460.5,1326.53 1462.5,1325.37 1464.5,1324.19 1466.5,1323.01 1468.5,1321.81 1470.5,1320.61 1472.5,1319.39 1474.5,1318.15 1476.51,1316.91 1478.51,1315.65 1480.51,1314.39 1482.51,1313.11 1484.51,1311.81 1486.51,1310.51 1488.51,1309.19 1490.51,1307.87 1492.51,1306.53 1494.51,1305.18 1496.51,1303.81 1498.51,1302.44 1500.51,1301.05 1502.51,1299.65 1504.52,1298.24 1506.52,1296.81 1508.52,1295.38 1510.52,1293.93 1512.52,1292.47 1514.52,1291 1516.52,1289.52 1518.52,1288.02 1520.52,1286.51 1522.52,1284.99 1524.52,1283.46 1526.52,1281.91 1528.52,1280.36 1530.52,1278.79 1532.53,1277.2 1534.53,1275.61 1536.53,1274.01 1538.53,1272.39 1540.53,1270.76 1542.53,1269.11 1544.53,1267.46 1546.53,1265.79 1548.53,1264.11 1550.53,1262.42 1552.53,1260.72 1554.53,1259 1556.53,1257.27 1558.53,1255.53 1560.54,1253.78 1562.54,1252.01 1564.54,1250.23 1566.54,1248.44 1568.54,1246.64 1570.54,1244.82 1572.54,1243 1574.54,1241.16 1576.54,1239.3 1578.54,1237.44 1580.54,1235.56 1582.54,1233.67 1584.54,1231.77 1586.54,1229.85 1588.55,1227.92 1590.55,1225.98 1592.55,1224.03 1594.55,1222.06 1596.55,1220.09 1598.55,1218.09 1600.55,1216.09 1602.55,1214.08 1604.55,1212.05 1606.55,1210.01 1608.55,1207.95 1610.55,1205.89 1612.55,1203.81 1614.55,1201.72 1616.56,1199.61 1618.56,1197.49 1620.56,1195.36 1622.56,1193.22 1624.56,1191.07 1626.56,1188.9 1628.56,1186.72 1630.56,1184.52 1632.56,1182.32 1634.56,1180.1 1636.56,1177.87 1638.56,1175.62 1640.56,1173.37 1642.56,1171.1 1644.57,1168.81 1646.57,1166.52 1648.57,1164.21 1650.57,1161.89 1652.57,1159.55 1654.57,1157.21 1656.57,1154.85 1658.57,1152.47 1660.57,1150.09 1662.57,1147.69 1664.57,1145.28 1666.57,1142.85 1668.57,1140.42 1670.57,1137.97 1672.57,1135.5 1674.58,1133.03 1676.58,1130.54 1678.58,1128.04 1680.58,1125.52 1682.58,1122.99 1684.58,1120.45 1686.58,1117.9 1688.58,1115.33 1690.58,1112.75 1692.58,1110.16 1694.58,1107.56 1696.58,1104.94 1698.58,1102.31 1700.58,1099.66 1702.59,1097.01 1704.59,1094.34 1706.59,1091.65 1708.59,1088.96 1710.59,1086.25 1712.59,1083.53 1714.59,1080.79 1716.59,1078.04 1718.59,1075.28 1720.59,1072.51 1722.59,1069.72 1724.59,1066.92 1726.59,1064.11 1728.59,1061.28 1730.6,1058.44 1732.6,1055.59 1734.6,1052.73 1736.6,1049.85 1738.6,1046.96 1740.6,1044.06 1742.6,1041.14 1744.6,1038.21 1746.6,1035.27 1748.6,1032.31 1750.6,1029.35 1752.6,1026.36 1754.6,1023.37 1756.6,1020.36 1758.61,1017.34 1760.61,1014.31 1762.61,1011.27 1764.61,1008.21 1766.61,1005.14 1768.61,1002.05 1770.61,998.958 1772.61,995.848 1774.61,992.726 1776.61,989.592 1778.61,986.444 1780.61,983.284 1782.61,980.111 1784.61,976.925 1786.62,973.727 1788.62,970.516 1790.62,967.292 1792.62,964.056 1794.62,960.807 1796.62,957.545 1798.62,954.271 1800.62,950.985 1802.62,947.686 1804.62,944.374 1806.62,941.05 1808.62,937.714 1810.62,934.365 1812.62,931.004 1814.63,927.631 1816.63,924.245 1818.63,920.847 1820.63,917.437 1822.63,914.014 1824.63,910.58 1826.63,907.133 1828.63,903.674 1830.63,900.203 1832.63,896.72 1834.63,893.225 1836.63,889.718 1838.63,886.199 1840.63,882.668 1842.64,879.125 1844.64,875.571 1846.64,872.005 1848.64,868.427 1850.64,864.837 1852.64,861.236 1854.64,857.623 1856.64,853.999 1858.64,850.363 1860.64,846.716 1862.64,843.058 1864.64,839.388 1866.64,835.707 1868.64,832.015 1870.65,828.311 1872.65,824.597 1874.65,820.872 1876.65,817.135 1878.65,813.388 1880.65,809.63 1882.65,805.862 1884.65,802.082 1886.65,798.292 1888.65,794.492 1890.65,790.681 1892.65,786.859 1894.65,783.027 1896.65,779.186 1898.66,775.333 1900.66,771.471 1902.66,767.599 1904.66,763.717 1906.66,759.825 1908.66,755.924 1910.66,752.012 1912.66,748.091 1914.66,744.161 1916.66,740.222 1918.66,736.273 1920.66,732.315 1922.66,728.347 1924.66,724.371 1926.66,720.386 1928.67,716.392 1930.67,712.39 1932.67,708.379 1934.67,704.36 1936.67,700.332 1938.67,696.296 1940.67,692.252 1942.67,688.2 1944.67,684.14 1946.67,680.072 1948.67,675.997 1950.67,671.915 1952.67,667.824 1954.67,663.727 1956.68,659.623 1958.68,655.512 1960.68,651.394 1962.68,647.269 1964.68,643.138 1966.68,639 1968.68,634.856 1970.68,630.706 1972.68,626.551 1974.68,622.389 1976.68,618.222 1978.68,614.049 1980.68,609.871 1982.68,605.688 1984.69,601.5 1986.69,597.308 1988.69,593.11 1990.69,588.909 1992.69,584.703 1994.69,580.493 1996.69,576.279 1998.69,572.061 2000.69,567.84 2002.69,563.616 2004.69,559.388 2006.69,555.158 2008.69,550.925 2010.69,546.689 2012.7,542.451 2014.7,538.211 2016.7,533.969 2018.7,529.726 2020.7,525.481 2022.7,521.235 2024.7,516.988 2026.7,512.74 2028.7,508.492 2030.7,504.244 2032.7,499.995 2034.7,495.747 2036.7,491.499 2038.7,487.252 2040.71,483.006 2042.71,478.761 2044.71,474.517 2046.71,470.276 2048.71,466.036 2050.71,461.799 2052.71,457.564 2054.71,453.332 2056.71,449.104 2058.71,444.878 2060.71,440.657 2062.71,436.439 2064.71,432.226 2066.71,428.017 2068.72,423.814 2070.72,419.615 2072.72,415.422 2074.72,411.235 2076.72,407.054 2078.72,402.88 2080.72,398.712 2082.72,394.552 2084.72,390.399 2086.72,386.254 2088.72,382.117 2090.72,377.989 2092.72,373.869 2094.72,369.759 2096.73,365.658 2098.73,361.568 2100.73,357.488 2102.73,353.418 2104.73,349.36 2106.73,345.313 2108.73,341.278 2110.73,337.255 2112.73,333.245 2114.73,329.248 2116.73,325.264 2118.73,321.294 2120.73,317.339 2122.73,313.398 2124.74,309.473 2126.74,305.563 2128.74,301.669 2130.74,297.791 2132.74,293.93 2134.74,290.087 2136.74,286.261 2138.74,282.453 2140.74,278.664 2142.74,274.895 2144.74,271.144 2146.74,267.414 2148.74,263.704 2150.74,260.016 2152.75,256.349 2154.75,252.703 2156.75,249.081 2158.75,245.481 2160.75,241.905 2162.75,238.352 2164.75,234.824 2166.75,231.322 2168.75,227.844 2170.75,224.393 2172.75,220.968 2174.75,217.57 2176.75,214.2 2178.75,210.858 2180.75,207.545 2182.76,204.261 2184.76,201.007 2186.76,197.783 2188.76,194.59 2190.76,191.429 2192.76,188.299 2194.76,185.202 2196.76,182.139 2198.76,179.109 2200.76,176.113 2202.76,173.153 2204.76,170.228 2206.76,167.339 2208.76,164.487 2210.77,161.672 2212.77,158.895 2214.77,156.156 2216.77,153.457 2218.77,150.797 2220.77,148.178 2222.77,145.6 2224.77,143.063 2226.77,140.569 2228.77,138.117 2230.77,135.709 2232.77,133.345 2234.77,131.026 2236.77,128.753 2238.78,126.525 2240.78,124.344 2242.78,122.21 2244.78,120.125 2246.78,118.088 2248.78,116.1 2250.78,114.162 2252.78,112.275 2254.78,110.439 2256.78,108.656 2258.78,106.924 2260.78,105.246 2262.78,103.622 2264.78,102.053 2266.79,100.538 2268.79,99.08 2270.79,97.6782 2272.79,96.3337 2274.79,95.0472 2276.79,93.8192 2278.79,92.6506 2280.79,91.5418 2282.79,90.4937 2284.79,89.5069 2286.79,88.582 2288.79,87.7197 2290.79,86.9207 2292.79,86.1857 "/>
<polyline clip-path="url(#clip232)" style="stroke:#ff0000; stroke-linecap:round; stroke-linejoin:round; stroke-width:4; stroke-opacity:1; fill:none" points="1243.47,2799.12 1243.47,-1328.69 "/>
<polyline clip-path="url(#clip232)" style="stroke:#ff0000; stroke-linecap:round; stroke-linejoin:round; stroke-width:4; stroke-opacity:1; fill:none" points="1343.41,2799.12 1343.41,-1328.69 "/>
</svg>
