<?xml version="1.0" encoding="utf-8"?>
<svg xmlns="http://www.w3.org/2000/svg" xmlns:xlink="http://www.w3.org/1999/xlink" width="600" height="400" viewBox="0 0 2400 1600">
<defs>
  <clipPath id="clip520">
    <rect x="0" y="0" width="2400" height="1600"/>
  </clipPath>
</defs>
<path clip-path="url(#clip520)" d="M0 1600 L2400 1600 L2400 0 L0 0  Z" fill="#ffffff" fill-rule="evenodd" fill-opacity="1"/>
<defs>
  <clipPath id="clip521">
    <rect x="480" y="0" width="1681" height="1600"/>
  </clipPath>
</defs>
<path clip-path="url(#clip520)" d="M234.612 1423.18 L2352.76 1423.18 L2352.76 47.2441 L234.612 47.2441  Z" fill="#ffffff" fill-rule="evenodd" fill-opacity="1"/>
<defs>
  <clipPath id="clip522">
    <rect x="234" y="47" width="2119" height="1377"/>
  </clipPath>
</defs>
<polyline clip-path="url(#clip522)" style="stroke:#000000; stroke-linecap:round; stroke-linejoin:round; stroke-width:2; stroke-opacity:0.1; fill:none" points="294.559,1423.18 294.559,47.2441 "/>
<polyline clip-path="url(#clip522)" style="stroke:#000000; stroke-linecap:round; stroke-linejoin:round; stroke-width:2; stroke-opacity:0.1; fill:none" points="794.121,1423.18 794.121,47.2441 "/>
<polyline clip-path="url(#clip522)" style="stroke:#000000; stroke-linecap:round; stroke-linejoin:round; stroke-width:2; stroke-opacity:0.1; fill:none" points="1293.68,1423.18 1293.68,47.2441 "/>
<polyline clip-path="url(#clip522)" style="stroke:#000000; stroke-linecap:round; stroke-linejoin:round; stroke-width:2; stroke-opacity:0.1; fill:none" points="1793.25,1423.18 1793.25,47.2441 "/>
<polyline clip-path="url(#clip522)" style="stroke:#000000; stroke-linecap:round; stroke-linejoin:round; stroke-width:2; stroke-opacity:0.1; fill:none" points="2292.81,1423.18 2292.81,47.2441 "/>
<polyline clip-path="url(#clip522)" style="stroke:#000000; stroke-linecap:round; stroke-linejoin:round; stroke-width:2; stroke-opacity:0.1; fill:none" points="234.612,1327.24 2352.76,1327.24 "/>
<polyline clip-path="url(#clip522)" style="stroke:#000000; stroke-linecap:round; stroke-linejoin:round; stroke-width:2; stroke-opacity:0.1; fill:none" points="234.612,1126.52 2352.76,1126.52 "/>
<polyline clip-path="url(#clip522)" style="stroke:#000000; stroke-linecap:round; stroke-linejoin:round; stroke-width:2; stroke-opacity:0.1; fill:none" points="234.612,925.79 2352.76,925.79 "/>
<polyline clip-path="url(#clip522)" style="stroke:#000000; stroke-linecap:round; stroke-linejoin:round; stroke-width:2; stroke-opacity:0.1; fill:none" points="234.612,725.065 2352.76,725.065 "/>
<polyline clip-path="url(#clip522)" style="stroke:#000000; stroke-linecap:round; stroke-linejoin:round; stroke-width:2; stroke-opacity:0.1; fill:none" points="234.612,524.339 2352.76,524.339 "/>
<polyline clip-path="url(#clip522)" style="stroke:#000000; stroke-linecap:round; stroke-linejoin:round; stroke-width:2; stroke-opacity:0.1; fill:none" points="234.612,323.613 2352.76,323.613 "/>
<polyline clip-path="url(#clip522)" style="stroke:#000000; stroke-linecap:round; stroke-linejoin:round; stroke-width:2; stroke-opacity:0.1; fill:none" points="234.612,122.887 2352.76,122.887 "/>
<polyline clip-path="url(#clip520)" style="stroke:#000000; stroke-linecap:round; stroke-linejoin:round; stroke-width:4; stroke-opacity:1; fill:none" points="234.612,1423.18 2352.76,1423.18 "/>
<polyline clip-path="url(#clip520)" style="stroke:#000000; stroke-linecap:round; stroke-linejoin:round; stroke-width:4; stroke-opacity:1; fill:none" points="294.559,1423.18 294.559,1404.28 "/>
<polyline clip-path="url(#clip520)" style="stroke:#000000; stroke-linecap:round; stroke-linejoin:round; stroke-width:4; stroke-opacity:1; fill:none" points="794.121,1423.18 794.121,1404.28 "/>
<polyline clip-path="url(#clip520)" style="stroke:#000000; stroke-linecap:round; stroke-linejoin:round; stroke-width:4; stroke-opacity:1; fill:none" points="1293.68,1423.18 1293.68,1404.28 "/>
<polyline clip-path="url(#clip520)" style="stroke:#000000; stroke-linecap:round; stroke-linejoin:round; stroke-width:4; stroke-opacity:1; fill:none" points="1793.25,1423.18 1793.25,1404.28 "/>
<polyline clip-path="url(#clip520)" style="stroke:#000000; stroke-linecap:round; stroke-linejoin:round; stroke-width:4; stroke-opacity:1; fill:none" points="2292.81,1423.18 2292.81,1404.28 "/>
<path clip-path="url(#clip520)" d="M235.636 1481.64 L251.955 1481.64 L251.955 1485.58 L230.011 1485.58 L230.011 1481.64 Q232.673 1478.89 237.256 1474.26 Q241.863 1469.61 243.043 1468.27 Q245.288 1465.74 246.168 1464.01 Q247.071 1462.25 247.071 1460.56 Q247.071 1457.8 245.126 1456.07 Q243.205 1454.33 240.103 1454.33 Q237.904 1454.33 235.451 1455.09 Q233.02 1455.86 230.242 1457.41 L230.242 1452.69 Q233.066 1451.55 235.52 1450.97 Q237.974 1450.39 240.011 1450.39 Q245.381 1450.39 248.575 1453.08 Q251.77 1455.77 251.77 1460.26 Q251.77 1462.39 250.96 1464.31 Q250.173 1466.2 248.066 1468.8 Q247.488 1469.47 244.386 1472.69 Q241.284 1475.88 235.636 1481.64 Z" fill="#000000" fill-rule="nonzero" fill-opacity="1" /><path clip-path="url(#clip520)" d="M274.617 1455.09 L262.812 1473.54 L274.617 1473.54 L274.617 1455.09 M273.39 1451.02 L279.27 1451.02 L279.27 1473.54 L284.2 1473.54 L284.2 1477.43 L279.27 1477.43 L279.27 1485.58 L274.617 1485.58 L274.617 1477.43 L259.015 1477.43 L259.015 1472.92 L273.39 1451.02 Z" fill="#000000" fill-rule="nonzero" fill-opacity="1" /><path clip-path="url(#clip520)" d="M291.932 1479.7 L296.816 1479.7 L296.816 1485.58 L291.932 1485.58 L291.932 1479.7 Z" fill="#000000" fill-rule="nonzero" fill-opacity="1" /><path clip-path="url(#clip520)" d="M307.14 1484.86 L307.14 1480.6 Q308.899 1481.44 310.705 1481.88 Q312.51 1482.32 314.246 1482.32 Q318.876 1482.32 321.307 1479.21 Q323.76 1476.09 324.107 1469.75 Q322.765 1471.74 320.705 1472.8 Q318.645 1473.87 316.145 1473.87 Q310.959 1473.87 307.927 1470.74 Q304.918 1467.59 304.918 1462.15 Q304.918 1456.83 308.066 1453.61 Q311.214 1450.39 316.445 1450.39 Q322.441 1450.39 325.589 1455 Q328.76 1459.58 328.76 1468.33 Q328.76 1476.51 324.871 1481.39 Q321.006 1486.25 314.455 1486.25 Q312.696 1486.25 310.89 1485.9 Q309.084 1485.56 307.14 1484.86 M316.445 1470.21 Q319.594 1470.21 321.422 1468.06 Q323.274 1465.9 323.274 1462.15 Q323.274 1458.43 321.422 1456.27 Q319.594 1454.1 316.445 1454.1 Q313.297 1454.1 311.446 1456.27 Q309.617 1458.43 309.617 1462.15 Q309.617 1465.9 311.446 1468.06 Q313.297 1470.21 316.445 1470.21 Z" fill="#000000" fill-rule="nonzero" fill-opacity="1" /><path clip-path="url(#clip520)" d="M347.163 1454.1 Q343.552 1454.1 341.723 1457.66 Q339.918 1461.2 339.918 1468.33 Q339.918 1475.44 341.723 1479.01 Q343.552 1482.55 347.163 1482.55 Q350.797 1482.55 352.603 1479.01 Q354.431 1475.44 354.431 1468.33 Q354.431 1461.2 352.603 1457.66 Q350.797 1454.1 347.163 1454.1 M347.163 1450.39 Q352.973 1450.39 356.029 1455 Q359.107 1459.58 359.107 1468.33 Q359.107 1477.06 356.029 1481.67 Q352.973 1486.25 347.163 1486.25 Q341.353 1486.25 338.274 1481.67 Q335.219 1477.06 335.219 1468.33 Q335.219 1459.58 338.274 1455 Q341.353 1450.39 347.163 1450.39 Z" fill="#000000" fill-rule="nonzero" fill-opacity="1" /><path clip-path="url(#clip520)" d="M735.696 1481.64 L752.015 1481.64 L752.015 1485.58 L730.071 1485.58 L730.071 1481.64 Q732.733 1478.89 737.316 1474.26 Q741.923 1469.61 743.103 1468.27 Q745.348 1465.74 746.228 1464.01 Q747.131 1462.25 747.131 1460.56 Q747.131 1457.8 745.186 1456.07 Q743.265 1454.33 740.163 1454.33 Q737.964 1454.33 735.511 1455.09 Q733.08 1455.86 730.302 1457.41 L730.302 1452.69 Q733.126 1451.55 735.58 1450.97 Q738.034 1450.39 740.071 1450.39 Q745.441 1450.39 748.636 1453.08 Q751.83 1455.77 751.83 1460.26 Q751.83 1462.39 751.02 1464.31 Q750.233 1466.2 748.126 1468.8 Q747.548 1469.47 744.446 1472.69 Q741.344 1475.88 735.696 1481.64 Z" fill="#000000" fill-rule="nonzero" fill-opacity="1" /><path clip-path="url(#clip520)" d="M774.677 1455.09 L762.872 1473.54 L774.677 1473.54 L774.677 1455.09 M773.45 1451.02 L779.33 1451.02 L779.33 1473.54 L784.26 1473.54 L784.26 1477.43 L779.33 1477.43 L779.33 1485.58 L774.677 1485.58 L774.677 1477.43 L759.075 1477.43 L759.075 1472.92 L773.45 1451.02 Z" fill="#000000" fill-rule="nonzero" fill-opacity="1" /><path clip-path="url(#clip520)" d="M791.992 1479.7 L796.876 1479.7 L796.876 1485.58 L791.992 1485.58 L791.992 1479.7 Z" fill="#000000" fill-rule="nonzero" fill-opacity="1" /><path clip-path="url(#clip520)" d="M807.2 1484.86 L807.2 1480.6 Q808.959 1481.44 810.765 1481.88 Q812.57 1482.32 814.306 1482.32 Q818.936 1482.32 821.367 1479.21 Q823.82 1476.09 824.168 1469.75 Q822.825 1471.74 820.765 1472.8 Q818.705 1473.87 816.205 1473.87 Q811.019 1473.87 807.987 1470.74 Q804.978 1467.59 804.978 1462.15 Q804.978 1456.83 808.126 1453.61 Q811.274 1450.39 816.506 1450.39 Q822.501 1450.39 825.649 1455 Q828.82 1459.58 828.82 1468.33 Q828.82 1476.51 824.931 1481.39 Q821.066 1486.25 814.515 1486.25 Q812.756 1486.25 810.95 1485.9 Q809.144 1485.56 807.2 1484.86 M816.506 1470.21 Q819.654 1470.21 821.482 1468.06 Q823.334 1465.9 823.334 1462.15 Q823.334 1458.43 821.482 1456.27 Q819.654 1454.1 816.506 1454.1 Q813.357 1454.1 811.506 1456.27 Q809.677 1458.43 809.677 1462.15 Q809.677 1465.9 811.506 1468.06 Q813.357 1470.21 816.506 1470.21 Z" fill="#000000" fill-rule="nonzero" fill-opacity="1" /><path clip-path="url(#clip520)" d="M837.269 1451.02 L855.626 1451.02 L855.626 1454.96 L841.552 1454.96 L841.552 1463.43 Q842.57 1463.08 843.589 1462.92 Q844.607 1462.73 845.626 1462.73 Q851.413 1462.73 854.792 1465.9 Q858.172 1469.08 858.172 1474.49 Q858.172 1480.07 854.7 1483.17 Q851.228 1486.25 844.908 1486.25 Q842.732 1486.25 840.464 1485.88 Q838.218 1485.51 835.811 1484.77 L835.811 1480.07 Q837.894 1481.2 840.117 1481.76 Q842.339 1482.32 844.816 1482.32 Q848.82 1482.32 851.158 1480.21 Q853.496 1478.1 853.496 1474.49 Q853.496 1470.88 851.158 1468.77 Q848.82 1466.67 844.816 1466.67 Q842.941 1466.67 841.066 1467.08 Q839.214 1467.5 837.269 1468.38 L837.269 1451.02 Z" fill="#000000" fill-rule="nonzero" fill-opacity="1" /><path clip-path="url(#clip520)" d="M1234.76 1481.64 L1251.08 1481.64 L1251.08 1485.58 L1229.14 1485.58 L1229.14 1481.64 Q1231.8 1478.89 1236.38 1474.26 Q1240.99 1469.61 1242.17 1468.27 Q1244.41 1465.74 1245.29 1464.01 Q1246.2 1462.25 1246.2 1460.56 Q1246.2 1457.8 1244.25 1456.07 Q1242.33 1454.33 1239.23 1454.33 Q1237.03 1454.33 1234.58 1455.09 Q1232.14 1455.86 1229.37 1457.41 L1229.37 1452.69 Q1232.19 1451.55 1234.64 1450.97 Q1237.1 1450.39 1239.14 1450.39 Q1244.51 1450.39 1247.7 1453.08 Q1250.89 1455.77 1250.89 1460.26 Q1250.89 1462.39 1250.08 1464.31 Q1249.3 1466.2 1247.19 1468.8 Q1246.61 1469.47 1243.51 1472.69 Q1240.41 1475.88 1234.76 1481.64 Z" fill="#000000" fill-rule="nonzero" fill-opacity="1" /><path clip-path="url(#clip520)" d="M1260.94 1451.02 L1279.3 1451.02 L1279.3 1454.96 L1265.22 1454.96 L1265.22 1463.43 Q1266.24 1463.08 1267.26 1462.92 Q1268.28 1462.73 1269.3 1462.73 Q1275.08 1462.73 1278.46 1465.9 Q1281.84 1469.08 1281.84 1474.49 Q1281.84 1480.07 1278.37 1483.17 Q1274.9 1486.25 1268.58 1486.25 Q1266.4 1486.25 1264.14 1485.88 Q1261.89 1485.51 1259.48 1484.77 L1259.48 1480.07 Q1261.57 1481.2 1263.79 1481.76 Q1266.01 1482.32 1268.49 1482.32 Q1272.49 1482.32 1274.83 1480.21 Q1277.17 1478.1 1277.17 1474.49 Q1277.17 1470.88 1274.83 1468.77 Q1272.49 1466.67 1268.49 1466.67 Q1266.61 1466.67 1264.74 1467.08 Q1262.89 1467.5 1260.94 1468.38 L1260.94 1451.02 Z" fill="#000000" fill-rule="nonzero" fill-opacity="1" /><path clip-path="url(#clip520)" d="M1291.06 1479.7 L1295.94 1479.7 L1295.94 1485.58 L1291.06 1485.58 L1291.06 1479.7 Z" fill="#000000" fill-rule="nonzero" fill-opacity="1" /><path clip-path="url(#clip520)" d="M1316.13 1454.1 Q1312.51 1454.1 1310.69 1457.66 Q1308.88 1461.2 1308.88 1468.33 Q1308.88 1475.44 1310.69 1479.01 Q1312.51 1482.55 1316.13 1482.55 Q1319.76 1482.55 1321.57 1479.01 Q1323.39 1475.44 1323.39 1468.33 Q1323.39 1461.2 1321.57 1457.66 Q1319.76 1454.1 1316.13 1454.1 M1316.13 1450.39 Q1321.94 1450.39 1324.99 1455 Q1328.07 1459.58 1328.07 1468.33 Q1328.07 1477.06 1324.99 1481.67 Q1321.94 1486.25 1316.13 1486.25 Q1310.32 1486.25 1307.24 1481.67 Q1304.18 1477.06 1304.18 1468.33 Q1304.18 1459.58 1307.24 1455 Q1310.32 1450.39 1316.13 1450.39 Z" fill="#000000" fill-rule="nonzero" fill-opacity="1" /><path clip-path="url(#clip520)" d="M1346.29 1454.1 Q1342.68 1454.1 1340.85 1457.66 Q1339.04 1461.2 1339.04 1468.33 Q1339.04 1475.44 1340.85 1479.01 Q1342.68 1482.55 1346.29 1482.55 Q1349.92 1482.55 1351.73 1479.01 Q1353.56 1475.44 1353.56 1468.33 Q1353.56 1461.2 1351.73 1457.66 Q1349.92 1454.1 1346.29 1454.1 M1346.29 1450.39 Q1352.1 1450.39 1355.15 1455 Q1358.23 1459.58 1358.23 1468.33 Q1358.23 1477.06 1355.15 1481.67 Q1352.1 1486.25 1346.29 1486.25 Q1340.48 1486.25 1337.4 1481.67 Q1334.34 1477.06 1334.34 1468.33 Q1334.34 1459.58 1337.4 1455 Q1340.48 1450.39 1346.29 1450.39 Z" fill="#000000" fill-rule="nonzero" fill-opacity="1" /><path clip-path="url(#clip520)" d="M1734.82 1481.64 L1751.14 1481.64 L1751.14 1485.58 L1729.2 1485.58 L1729.2 1481.64 Q1731.86 1478.89 1736.44 1474.26 Q1741.05 1469.61 1742.23 1468.27 Q1744.47 1465.74 1745.35 1464.01 Q1746.26 1462.25 1746.26 1460.56 Q1746.26 1457.8 1744.31 1456.07 Q1742.39 1454.33 1739.29 1454.33 Q1737.09 1454.33 1734.64 1455.09 Q1732.2 1455.86 1729.43 1457.41 L1729.43 1452.69 Q1732.25 1451.55 1734.7 1450.97 Q1737.16 1450.39 1739.2 1450.39 Q1744.57 1450.39 1747.76 1453.08 Q1750.95 1455.77 1750.95 1460.26 Q1750.95 1462.39 1750.14 1464.31 Q1749.36 1466.2 1747.25 1468.8 Q1746.67 1469.47 1743.57 1472.69 Q1740.47 1475.88 1734.82 1481.64 Z" fill="#000000" fill-rule="nonzero" fill-opacity="1" /><path clip-path="url(#clip520)" d="M1761 1451.02 L1779.36 1451.02 L1779.36 1454.96 L1765.28 1454.96 L1765.28 1463.43 Q1766.3 1463.08 1767.32 1462.92 Q1768.34 1462.73 1769.36 1462.73 Q1775.14 1462.73 1778.52 1465.9 Q1781.9 1469.08 1781.9 1474.49 Q1781.9 1480.07 1778.43 1483.17 Q1774.96 1486.25 1768.64 1486.25 Q1766.46 1486.25 1764.2 1485.88 Q1761.95 1485.51 1759.54 1484.77 L1759.54 1480.07 Q1761.63 1481.2 1763.85 1481.76 Q1766.07 1482.32 1768.55 1482.32 Q1772.55 1482.32 1774.89 1480.21 Q1777.23 1478.1 1777.23 1474.49 Q1777.23 1470.88 1774.89 1468.77 Q1772.55 1466.67 1768.55 1466.67 Q1766.67 1466.67 1764.8 1467.08 Q1762.95 1467.5 1761 1468.38 L1761 1451.02 Z" fill="#000000" fill-rule="nonzero" fill-opacity="1" /><path clip-path="url(#clip520)" d="M1791.12 1479.7 L1796 1479.7 L1796 1485.58 L1791.12 1485.58 L1791.12 1479.7 Z" fill="#000000" fill-rule="nonzero" fill-opacity="1" /><path clip-path="url(#clip520)" d="M1816.19 1454.1 Q1812.57 1454.1 1810.75 1457.66 Q1808.94 1461.2 1808.94 1468.33 Q1808.94 1475.44 1810.75 1479.01 Q1812.57 1482.55 1816.19 1482.55 Q1819.82 1482.55 1821.63 1479.01 Q1823.45 1475.44 1823.45 1468.33 Q1823.45 1461.2 1821.63 1457.66 Q1819.82 1454.1 1816.19 1454.1 M1816.19 1450.39 Q1822 1450.39 1825.05 1455 Q1828.13 1459.58 1828.13 1468.33 Q1828.13 1477.06 1825.05 1481.67 Q1822 1486.25 1816.19 1486.25 Q1810.38 1486.25 1807.3 1481.67 Q1804.24 1477.06 1804.24 1468.33 Q1804.24 1459.58 1807.3 1455 Q1810.38 1450.39 1816.19 1450.39 Z" fill="#000000" fill-rule="nonzero" fill-opacity="1" /><path clip-path="url(#clip520)" d="M1836.39 1451.02 L1854.75 1451.02 L1854.75 1454.96 L1840.68 1454.96 L1840.68 1463.43 Q1841.69 1463.08 1842.71 1462.92 Q1843.73 1462.73 1844.75 1462.73 Q1850.54 1462.73 1853.92 1465.9 Q1857.3 1469.08 1857.3 1474.49 Q1857.3 1480.07 1853.82 1483.17 Q1850.35 1486.25 1844.03 1486.25 Q1841.86 1486.25 1839.59 1485.88 Q1837.34 1485.51 1834.94 1484.77 L1834.94 1480.07 Q1837.02 1481.2 1839.24 1481.76 Q1841.46 1482.32 1843.94 1482.32 Q1847.94 1482.32 1850.28 1480.21 Q1852.62 1478.1 1852.62 1474.49 Q1852.62 1470.88 1850.28 1468.77 Q1847.94 1466.67 1843.94 1466.67 Q1842.07 1466.67 1840.19 1467.08 Q1838.34 1467.5 1836.39 1468.38 L1836.39 1451.02 Z" fill="#000000" fill-rule="nonzero" fill-opacity="1" /><path clip-path="url(#clip520)" d="M2233.89 1481.64 L2250.2 1481.64 L2250.2 1485.58 L2228.26 1485.58 L2228.26 1481.64 Q2230.92 1478.89 2235.51 1474.26 Q2240.11 1469.61 2241.29 1468.27 Q2243.54 1465.74 2244.42 1464.01 Q2245.32 1462.25 2245.32 1460.56 Q2245.32 1457.8 2243.38 1456.07 Q2241.45 1454.33 2238.35 1454.33 Q2236.15 1454.33 2233.7 1455.09 Q2231.27 1455.86 2228.49 1457.41 L2228.49 1452.69 Q2231.32 1451.55 2233.77 1450.97 Q2236.22 1450.39 2238.26 1450.39 Q2243.63 1450.39 2246.82 1453.08 Q2250.02 1455.77 2250.02 1460.26 Q2250.02 1462.39 2249.21 1464.31 Q2248.42 1466.2 2246.32 1468.8 Q2245.74 1469.47 2242.64 1472.69 Q2239.53 1475.88 2233.89 1481.64 Z" fill="#000000" fill-rule="nonzero" fill-opacity="1" /><path clip-path="url(#clip520)" d="M2260.07 1451.02 L2278.42 1451.02 L2278.42 1454.96 L2264.35 1454.96 L2264.35 1463.43 Q2265.37 1463.08 2266.38 1462.92 Q2267.4 1462.73 2268.42 1462.73 Q2274.21 1462.73 2277.59 1465.9 Q2280.97 1469.08 2280.97 1474.49 Q2280.97 1480.07 2277.5 1483.17 Q2274.02 1486.25 2267.7 1486.25 Q2265.53 1486.25 2263.26 1485.88 Q2261.01 1485.51 2258.61 1484.77 L2258.61 1480.07 Q2260.69 1481.2 2262.91 1481.76 Q2265.13 1482.32 2267.61 1482.32 Q2271.62 1482.32 2273.95 1480.21 Q2276.29 1478.1 2276.29 1474.49 Q2276.29 1470.88 2273.95 1468.77 Q2271.62 1466.67 2267.61 1466.67 Q2265.74 1466.67 2263.86 1467.08 Q2262.01 1467.5 2260.07 1468.38 L2260.07 1451.02 Z" fill="#000000" fill-rule="nonzero" fill-opacity="1" /><path clip-path="url(#clip520)" d="M2290.18 1479.7 L2295.07 1479.7 L2295.07 1485.58 L2290.18 1485.58 L2290.18 1479.7 Z" fill="#000000" fill-rule="nonzero" fill-opacity="1" /><path clip-path="url(#clip520)" d="M2306.06 1481.64 L2313.7 1481.64 L2313.7 1455.28 L2305.39 1456.95 L2305.39 1452.69 L2313.65 1451.02 L2318.33 1451.02 L2318.33 1481.64 L2325.97 1481.64 L2325.97 1485.58 L2306.06 1485.58 L2306.06 1481.64 Z" fill="#000000" fill-rule="nonzero" fill-opacity="1" /><path clip-path="url(#clip520)" d="M2345.41 1454.1 Q2341.8 1454.1 2339.97 1457.66 Q2338.17 1461.2 2338.17 1468.33 Q2338.17 1475.44 2339.97 1479.01 Q2341.8 1482.55 2345.41 1482.55 Q2349.05 1482.55 2350.85 1479.01 Q2352.68 1475.44 2352.68 1468.33 Q2352.68 1461.2 2350.85 1457.66 Q2349.05 1454.1 2345.41 1454.1 M2345.41 1450.39 Q2351.22 1450.39 2354.28 1455 Q2357.36 1459.58 2357.36 1468.33 Q2357.36 1477.06 2354.28 1481.67 Q2351.22 1486.25 2345.41 1486.25 Q2339.6 1486.25 2336.52 1481.67 Q2333.47 1477.06 2333.47 1468.33 Q2333.47 1459.58 2336.52 1455 Q2339.6 1450.39 2345.41 1450.39 Z" fill="#000000" fill-rule="nonzero" fill-opacity="1" /><path clip-path="url(#clip520)" d="M1001.85 1520.52 L1029.16 1520.52 L1029.16 1525.93 L1008.28 1525.93 L1008.28 1539.94 L1027.12 1539.94 L1027.12 1545.35 L1008.28 1545.35 L1008.28 1568.04 L1001.85 1568.04 L1001.85 1520.52 Z" fill="#000000" fill-rule="nonzero" fill-opacity="1" /><path clip-path="url(#clip520)" d="M1055 1537.87 Q1054.01 1537.3 1052.84 1537.04 Q1051.69 1536.76 1050.29 1536.76 Q1045.33 1536.76 1042.65 1540 Q1040.01 1543.22 1040.01 1549.27 L1040.01 1568.04 L1034.12 1568.04 L1034.12 1532.4 L1040.01 1532.4 L1040.01 1537.93 Q1041.86 1534.69 1044.82 1533.13 Q1047.78 1531.54 1052.01 1531.54 Q1052.61 1531.54 1053.35 1531.63 Q1054.08 1531.7 1054.97 1531.85 L1055 1537.87 Z" fill="#000000" fill-rule="nonzero" fill-opacity="1" /><path clip-path="url(#clip520)" d="M1090.2 1548.76 L1090.2 1551.62 L1063.28 1551.62 Q1063.66 1557.67 1066.91 1560.85 Q1070.18 1564 1076.01 1564 Q1079.38 1564 1082.53 1563.17 Q1085.72 1562.35 1088.84 1560.69 L1088.84 1566.23 Q1085.68 1567.57 1082.37 1568.27 Q1079.06 1568.97 1075.66 1568.97 Q1067.13 1568.97 1062.13 1564 Q1057.17 1559.04 1057.17 1550.57 Q1057.17 1541.82 1061.88 1536.69 Q1066.62 1531.54 1074.64 1531.54 Q1081.83 1531.54 1086 1536.18 Q1090.2 1540.8 1090.2 1548.76 M1084.35 1547.04 Q1084.28 1542.23 1081.64 1539.37 Q1079.03 1536.5 1074.7 1536.5 Q1069.8 1536.5 1066.84 1539.27 Q1063.91 1542.04 1063.47 1547.07 L1084.35 1547.04 Z" fill="#000000" fill-rule="nonzero" fill-opacity="1" /><path clip-path="url(#clip520)" d="M1103.32 1550.25 Q1103.32 1556.71 1105.96 1560.4 Q1108.63 1564.07 1113.28 1564.07 Q1117.93 1564.07 1120.6 1560.4 Q1123.27 1556.71 1123.27 1550.25 Q1123.27 1543.79 1120.6 1540.13 Q1117.93 1536.44 1113.28 1536.44 Q1108.63 1536.44 1105.96 1540.13 Q1103.32 1543.79 1103.32 1550.25 M1123.27 1562.7 Q1121.43 1565.88 1118.59 1567.44 Q1115.79 1568.97 1111.85 1568.97 Q1105.39 1568.97 1101.31 1563.81 Q1097.27 1558.65 1097.27 1550.25 Q1097.27 1541.85 1101.31 1536.69 Q1105.39 1531.54 1111.85 1531.54 Q1115.79 1531.54 1118.59 1533.1 Q1121.43 1534.62 1123.27 1537.81 L1123.27 1532.4 L1129.13 1532.4 L1129.13 1581.6 L1123.27 1581.6 L1123.27 1562.7 Z" fill="#000000" fill-rule="nonzero" fill-opacity="1" /><path clip-path="url(#clip520)" d="M1140.59 1553.98 L1140.59 1532.4 L1146.44 1532.4 L1146.44 1553.75 Q1146.44 1558.81 1148.42 1561.36 Q1150.39 1563.87 1154.34 1563.87 Q1159.08 1563.87 1161.82 1560.85 Q1164.59 1557.83 1164.59 1552.61 L1164.59 1532.4 L1170.44 1532.4 L1170.44 1568.04 L1164.59 1568.04 L1164.59 1562.57 Q1162.45 1565.82 1159.62 1567.41 Q1156.82 1568.97 1153.1 1568.97 Q1146.95 1568.97 1143.77 1565.15 Q1140.59 1561.33 1140.59 1553.98 M1155.33 1531.54 L1155.33 1531.54 Z" fill="#000000" fill-rule="nonzero" fill-opacity="1" /><path clip-path="url(#clip520)" d="M1213 1548.76 L1213 1551.62 L1186.07 1551.62 Q1186.45 1557.67 1189.7 1560.85 Q1192.98 1564 1198.8 1564 Q1202.18 1564 1205.33 1563.17 Q1208.51 1562.35 1211.63 1560.69 L1211.63 1566.23 Q1208.48 1567.57 1205.17 1568.27 Q1201.86 1568.97 1198.45 1568.97 Q1189.92 1568.97 1184.93 1564 Q1179.96 1559.04 1179.96 1550.57 Q1179.96 1541.82 1184.67 1536.69 Q1189.41 1531.54 1197.43 1531.54 Q1204.63 1531.54 1208.8 1536.18 Q1213 1540.8 1213 1548.76 M1207.14 1547.04 Q1207.08 1542.23 1204.44 1539.37 Q1201.83 1536.5 1197.5 1536.5 Q1192.6 1536.5 1189.64 1539.27 Q1186.71 1542.04 1186.26 1547.07 L1207.14 1547.04 Z" fill="#000000" fill-rule="nonzero" fill-opacity="1" /><path clip-path="url(#clip520)" d="M1252.24 1546.53 L1252.24 1568.04 L1246.39 1568.04 L1246.39 1546.72 Q1246.39 1541.66 1244.41 1539.14 Q1242.44 1536.63 1238.49 1536.63 Q1233.75 1536.63 1231.01 1539.65 Q1228.28 1542.68 1228.28 1547.9 L1228.28 1568.04 L1222.39 1568.04 L1222.39 1532.4 L1228.28 1532.4 L1228.28 1537.93 Q1230.38 1534.72 1233.21 1533.13 Q1236.07 1531.54 1239.8 1531.54 Q1245.94 1531.54 1249.09 1535.36 Q1252.24 1539.14 1252.24 1546.53 Z" fill="#000000" fill-rule="nonzero" fill-opacity="1" /><path clip-path="url(#clip520)" d="M1289.58 1533.76 L1289.58 1539.24 Q1287.1 1537.87 1284.58 1537.2 Q1282.1 1536.5 1279.55 1536.5 Q1273.85 1536.5 1270.7 1540.13 Q1267.55 1543.73 1267.55 1550.25 Q1267.55 1556.78 1270.7 1560.4 Q1273.85 1564 1279.55 1564 Q1282.1 1564 1284.58 1563.33 Q1287.1 1562.63 1289.58 1561.26 L1289.58 1566.68 Q1287.13 1567.82 1284.49 1568.39 Q1281.88 1568.97 1278.92 1568.97 Q1270.86 1568.97 1266.12 1563.91 Q1261.38 1558.85 1261.38 1550.25 Q1261.38 1541.53 1266.15 1536.53 Q1270.96 1531.54 1279.3 1531.54 Q1282 1531.54 1284.58 1532.11 Q1287.16 1532.65 1289.58 1533.76 Z" fill="#000000" fill-rule="nonzero" fill-opacity="1" /><path clip-path="url(#clip520)" d="M1299.76 1532.4 L1305.62 1532.4 L1305.62 1568.04 L1299.76 1568.04 L1299.76 1532.4 M1299.76 1518.52 L1305.62 1518.52 L1305.62 1525.93 L1299.76 1525.93 L1299.76 1518.52 Z" fill="#000000" fill-rule="nonzero" fill-opacity="1" /><path clip-path="url(#clip520)" d="M1348.37 1548.76 L1348.37 1551.62 L1321.44 1551.62 Q1321.82 1557.67 1325.07 1560.85 Q1328.35 1564 1334.17 1564 Q1337.54 1564 1340.69 1563.17 Q1343.88 1562.35 1347 1560.69 L1347 1566.23 Q1343.85 1567.57 1340.54 1568.27 Q1337.23 1568.97 1333.82 1568.97 Q1325.29 1568.97 1320.29 1564 Q1315.33 1559.04 1315.33 1550.57 Q1315.33 1541.82 1320.04 1536.69 Q1324.78 1531.54 1332.8 1531.54 Q1339.99 1531.54 1344.16 1536.18 Q1348.37 1540.8 1348.37 1548.76 M1342.51 1547.04 Q1342.45 1542.23 1339.8 1539.37 Q1337.19 1536.5 1332.86 1536.5 Q1327.96 1536.5 1325 1539.27 Q1322.07 1542.04 1321.63 1547.07 L1342.51 1547.04 Z" fill="#000000" fill-rule="nonzero" fill-opacity="1" /><path clip-path="url(#clip520)" d="M1380.7 1533.45 L1380.7 1538.98 Q1378.22 1537.71 1375.55 1537.07 Q1372.87 1536.44 1370.01 1536.44 Q1365.65 1536.44 1363.45 1537.77 Q1361.29 1539.11 1361.29 1541.79 Q1361.29 1543.82 1362.85 1545 Q1364.41 1546.15 1369.12 1547.2 L1371.12 1547.64 Q1377.36 1548.98 1379.97 1551.43 Q1382.61 1553.85 1382.61 1558.21 Q1382.61 1563.17 1378.67 1566.07 Q1374.75 1568.97 1367.88 1568.97 Q1365.01 1568.97 1361.89 1568.39 Q1358.8 1567.85 1355.37 1566.74 L1355.37 1560.69 Q1358.61 1562.38 1361.76 1563.24 Q1364.92 1564.07 1368 1564.07 Q1372.14 1564.07 1374.37 1562.66 Q1376.6 1561.23 1376.6 1558.65 Q1376.6 1556.27 1374.97 1554.99 Q1373.38 1553.72 1367.94 1552.54 L1365.9 1552.07 Q1360.46 1550.92 1358.04 1548.56 Q1355.62 1546.18 1355.62 1542.04 Q1355.62 1537.01 1359.19 1534.27 Q1362.75 1531.54 1369.31 1531.54 Q1372.55 1531.54 1375.42 1532.01 Q1378.28 1532.49 1380.7 1533.45 Z" fill="#000000" fill-rule="nonzero" fill-opacity="1" /><path clip-path="url(#clip520)" d="M1412.12 1518.52 L1425.61 1518.52 L1425.61 1523.07 L1417.97 1523.07 L1417.97 1572.09 L1425.61 1572.09 L1425.61 1576.64 L1412.12 1576.64 L1412.12 1518.52 Z" fill="#000000" fill-rule="nonzero" fill-opacity="1" /><path clip-path="url(#clip520)" d="M1470.75 1561.26 L1470.75 1548.5 L1460.24 1548.5 L1460.24 1543.22 L1477.11 1543.22 L1477.11 1563.62 Q1473.39 1566.26 1468.9 1567.63 Q1464.41 1568.97 1459.32 1568.97 Q1448.18 1568.97 1441.88 1562.47 Q1435.61 1555.95 1435.61 1544.33 Q1435.61 1532.68 1441.88 1526.19 Q1448.18 1519.66 1459.32 1519.66 Q1463.97 1519.66 1468.14 1520.81 Q1472.34 1521.96 1475.87 1524.18 L1475.87 1531.03 Q1472.31 1528 1468.3 1526.48 Q1464.28 1524.95 1459.86 1524.95 Q1451.14 1524.95 1446.75 1529.82 Q1442.39 1534.69 1442.39 1544.33 Q1442.39 1553.94 1446.75 1558.81 Q1451.14 1563.68 1459.86 1563.68 Q1463.27 1563.68 1465.94 1563.11 Q1468.61 1562.51 1470.75 1561.26 Z" fill="#000000" fill-rule="nonzero" fill-opacity="1" /><path clip-path="url(#clip520)" d="M1488.86 1520.52 L1495.29 1520.52 L1495.29 1540 L1518.65 1540 L1518.65 1520.52 L1525.08 1520.52 L1525.08 1568.04 L1518.65 1568.04 L1518.65 1545.41 L1495.29 1545.41 L1495.29 1568.04 L1488.86 1568.04 L1488.86 1520.52 Z" fill="#000000" fill-rule="nonzero" fill-opacity="1" /><path clip-path="url(#clip520)" d="M1535.07 1532.4 L1562.89 1532.4 L1562.89 1537.74 L1540.86 1563.37 L1562.89 1563.37 L1562.89 1568.04 L1534.28 1568.04 L1534.28 1562.7 L1556.3 1537.07 L1535.07 1537.07 L1535.07 1532.4 Z" fill="#000000" fill-rule="nonzero" fill-opacity="1" /><path clip-path="url(#clip520)" d="M1585.52 1518.52 L1585.52 1576.64 L1572.02 1576.64 L1572.02 1572.09 L1579.63 1572.09 L1579.63 1523.07 L1572.02 1523.07 L1572.02 1518.52 L1585.52 1518.52 Z" fill="#000000" fill-rule="nonzero" fill-opacity="1" /><polyline clip-path="url(#clip520)" style="stroke:#000000; stroke-linecap:round; stroke-linejoin:round; stroke-width:4; stroke-opacity:1; fill:none" points="234.612,1423.18 234.612,47.2441 "/>
<polyline clip-path="url(#clip520)" style="stroke:#000000; stroke-linecap:round; stroke-linejoin:round; stroke-width:4; stroke-opacity:1; fill:none" points="234.612,1327.24 253.509,1327.24 "/>
<polyline clip-path="url(#clip520)" style="stroke:#000000; stroke-linecap:round; stroke-linejoin:round; stroke-width:4; stroke-opacity:1; fill:none" points="234.612,1126.52 253.509,1126.52 "/>
<polyline clip-path="url(#clip520)" style="stroke:#000000; stroke-linecap:round; stroke-linejoin:round; stroke-width:4; stroke-opacity:1; fill:none" points="234.612,925.79 253.509,925.79 "/>
<polyline clip-path="url(#clip520)" style="stroke:#000000; stroke-linecap:round; stroke-linejoin:round; stroke-width:4; stroke-opacity:1; fill:none" points="234.612,725.065 253.509,725.065 "/>
<polyline clip-path="url(#clip520)" style="stroke:#000000; stroke-linecap:round; stroke-linejoin:round; stroke-width:4; stroke-opacity:1; fill:none" points="234.612,524.339 253.509,524.339 "/>
<polyline clip-path="url(#clip520)" style="stroke:#000000; stroke-linecap:round; stroke-linejoin:round; stroke-width:4; stroke-opacity:1; fill:none" points="234.612,323.613 253.509,323.613 "/>
<polyline clip-path="url(#clip520)" style="stroke:#000000; stroke-linecap:round; stroke-linejoin:round; stroke-width:4; stroke-opacity:1; fill:none" points="234.612,122.887 253.509,122.887 "/>
<path clip-path="url(#clip520)" d="M121.968 1340.59 L138.288 1340.59 L138.288 1344.52 L116.343 1344.52 L116.343 1340.59 Q119.006 1337.83 123.589 1333.2 Q128.195 1328.55 129.376 1327.21 Q131.621 1324.68 132.501 1322.95 Q133.404 1321.19 133.404 1319.5 Q133.404 1316.74 131.459 1315.01 Q129.538 1313.27 126.436 1313.27 Q124.237 1313.27 121.783 1314.04 Q119.353 1314.8 116.575 1316.35 L116.575 1311.63 Q119.399 1310.49 121.853 1309.92 Q124.306 1309.34 126.343 1309.34 Q131.714 1309.34 134.908 1312.02 Q138.103 1314.71 138.103 1319.2 Q138.103 1321.33 137.292 1323.25 Q136.505 1325.15 134.399 1327.74 Q133.82 1328.41 130.718 1331.63 Q127.617 1334.82 121.968 1340.59 Z" fill="#000000" fill-rule="nonzero" fill-opacity="1" /><path clip-path="url(#clip520)" d="M162.269 1325.89 Q165.626 1326.61 167.501 1328.87 Q169.399 1331.14 169.399 1334.48 Q169.399 1339.59 165.88 1342.39 Q162.362 1345.19 155.88 1345.19 Q153.704 1345.19 151.39 1344.75 Q149.098 1344.34 146.644 1343.48 L146.644 1338.97 Q148.589 1340.1 150.903 1340.68 Q153.218 1341.26 155.741 1341.26 Q160.14 1341.26 162.431 1339.52 Q164.746 1337.79 164.746 1334.48 Q164.746 1331.42 162.593 1329.71 Q160.464 1327.97 156.644 1327.97 L152.616 1327.97 L152.616 1324.13 L156.829 1324.13 Q160.278 1324.13 162.107 1322.76 Q163.936 1321.37 163.936 1318.78 Q163.936 1316.12 162.038 1314.71 Q160.163 1313.27 156.644 1313.27 Q154.723 1313.27 152.524 1313.69 Q150.325 1314.11 147.686 1314.98 L147.686 1310.82 Q150.348 1310.08 152.663 1309.71 Q155.001 1309.34 157.061 1309.34 Q162.385 1309.34 165.487 1311.77 Q168.589 1314.17 168.589 1318.3 Q168.589 1321.17 166.945 1323.16 Q165.302 1325.12 162.269 1325.89 Z" fill="#000000" fill-rule="nonzero" fill-opacity="1" /><path clip-path="url(#clip520)" d="M182.292 1340.59 L198.612 1340.59 L198.612 1344.52 L176.667 1344.52 L176.667 1340.59 Q179.329 1337.83 183.913 1333.2 Q188.519 1328.55 189.7 1327.21 Q191.945 1324.68 192.825 1322.95 Q193.727 1321.19 193.727 1319.5 Q193.727 1316.74 191.783 1315.01 Q189.862 1313.27 186.76 1313.27 Q184.561 1313.27 182.107 1314.04 Q179.676 1314.8 176.899 1316.35 L176.899 1311.63 Q179.723 1310.49 182.176 1309.92 Q184.63 1309.34 186.667 1309.34 Q192.038 1309.34 195.232 1312.02 Q198.426 1314.71 198.426 1319.2 Q198.426 1321.33 197.616 1323.25 Q196.829 1325.15 194.723 1327.74 Q194.144 1328.41 191.042 1331.63 Q187.94 1334.82 182.292 1340.59 Z" fill="#000000" fill-rule="nonzero" fill-opacity="1" /><path clip-path="url(#clip520)" d="M121.019 1139.86 L137.339 1139.86 L137.339 1143.8 L115.394 1143.8 L115.394 1139.86 Q118.056 1137.11 122.64 1132.48 Q127.246 1127.82 128.427 1126.48 Q130.672 1123.96 131.552 1122.22 Q132.455 1120.46 132.455 1118.77 Q132.455 1116.02 130.51 1114.28 Q128.589 1112.55 125.487 1112.55 Q123.288 1112.55 120.834 1113.31 Q118.404 1114.07 115.626 1115.62 L115.626 1110.9 Q118.45 1109.77 120.904 1109.19 Q123.357 1108.61 125.394 1108.61 Q130.765 1108.61 133.959 1111.3 Q137.154 1113.98 137.154 1118.47 Q137.154 1120.6 136.343 1122.52 Q135.556 1124.42 133.45 1127.01 Q132.871 1127.68 129.769 1130.9 Q126.667 1134.1 121.019 1139.86 Z" fill="#000000" fill-rule="nonzero" fill-opacity="1" /><path clip-path="url(#clip520)" d="M161.32 1125.16 Q164.677 1125.88 166.552 1128.15 Q168.45 1130.42 168.45 1133.75 Q168.45 1138.87 164.931 1141.67 Q161.413 1144.47 154.931 1144.47 Q152.755 1144.47 150.441 1144.03 Q148.149 1143.61 145.695 1142.75 L145.695 1138.24 Q147.64 1139.37 149.954 1139.95 Q152.269 1140.53 154.792 1140.53 Q159.19 1140.53 161.482 1138.8 Q163.797 1137.06 163.797 1133.75 Q163.797 1130.69 161.644 1128.98 Q159.515 1127.25 155.695 1127.25 L151.667 1127.25 L151.667 1123.4 L155.88 1123.4 Q159.329 1123.4 161.158 1122.04 Q162.987 1120.65 162.987 1118.06 Q162.987 1115.39 161.089 1113.98 Q159.214 1112.55 155.695 1112.55 Q153.774 1112.55 151.575 1112.96 Q149.376 1113.38 146.737 1114.26 L146.737 1110.09 Q149.399 1109.35 151.714 1108.98 Q154.052 1108.61 156.112 1108.61 Q161.436 1108.61 164.538 1111.04 Q167.64 1113.45 167.64 1117.57 Q167.64 1120.44 165.996 1122.43 Q164.352 1124.4 161.32 1125.16 Z" fill="#000000" fill-rule="nonzero" fill-opacity="1" /><path clip-path="url(#clip520)" d="M191.482 1125.16 Q194.838 1125.88 196.713 1128.15 Q198.612 1130.42 198.612 1133.75 Q198.612 1138.87 195.093 1141.67 Q191.575 1144.47 185.093 1144.47 Q182.917 1144.47 180.602 1144.03 Q178.311 1143.61 175.857 1142.75 L175.857 1138.24 Q177.801 1139.37 180.116 1139.95 Q182.431 1140.53 184.954 1140.53 Q189.352 1140.53 191.644 1138.8 Q193.959 1137.06 193.959 1133.75 Q193.959 1130.69 191.806 1128.98 Q189.676 1127.25 185.857 1127.25 L181.829 1127.25 L181.829 1123.4 L186.042 1123.4 Q189.491 1123.4 191.32 1122.04 Q193.149 1120.65 193.149 1118.06 Q193.149 1115.39 191.25 1113.98 Q189.375 1112.55 185.857 1112.55 Q183.936 1112.55 181.737 1112.96 Q179.538 1113.38 176.899 1114.26 L176.899 1110.09 Q179.561 1109.35 181.876 1108.98 Q184.213 1108.61 186.274 1108.61 Q191.598 1108.61 194.7 1111.04 Q197.801 1113.45 197.801 1117.57 Q197.801 1120.44 196.158 1122.43 Q194.514 1124.4 191.482 1125.16 Z" fill="#000000" fill-rule="nonzero" fill-opacity="1" /><path clip-path="url(#clip520)" d="M119.885 939.135 L136.204 939.135 L136.204 943.07 L114.26 943.07 L114.26 939.135 Q116.922 936.381 121.505 931.751 Q126.112 927.098 127.292 925.756 Q129.538 923.232 130.417 921.496 Q131.32 919.737 131.32 918.047 Q131.32 915.293 129.376 913.557 Q127.455 911.82 124.353 911.82 Q122.154 911.82 119.7 912.584 Q117.269 913.348 114.492 914.899 L114.492 910.177 Q117.316 909.043 119.769 908.464 Q122.223 907.885 124.26 907.885 Q129.63 907.885 132.825 910.57 Q136.019 913.256 136.019 917.746 Q136.019 919.876 135.209 921.797 Q134.422 923.695 132.316 926.288 Q131.737 926.959 128.635 930.177 Q125.533 933.371 119.885 939.135 Z" fill="#000000" fill-rule="nonzero" fill-opacity="1" /><path clip-path="url(#clip520)" d="M160.186 924.436 Q163.542 925.154 165.417 927.422 Q167.315 929.691 167.315 933.024 Q167.315 938.14 163.797 940.941 Q160.278 943.742 153.797 943.742 Q151.621 943.742 149.306 943.302 Q147.015 942.885 144.561 942.029 L144.561 937.515 Q146.505 938.649 148.82 939.228 Q151.135 939.806 153.658 939.806 Q158.056 939.806 160.348 938.07 Q162.663 936.334 162.663 933.024 Q162.663 929.969 160.51 928.256 Q158.38 926.519 154.561 926.519 L150.533 926.519 L150.533 922.677 L154.746 922.677 Q158.195 922.677 160.024 921.311 Q161.852 919.922 161.852 917.33 Q161.852 914.668 159.954 913.256 Q158.079 911.82 154.561 911.82 Q152.64 911.82 150.441 912.237 Q148.241 912.654 145.603 913.533 L145.603 909.367 Q148.265 908.626 150.579 908.256 Q152.917 907.885 154.978 907.885 Q160.302 907.885 163.403 910.316 Q166.505 912.723 166.505 916.844 Q166.505 919.714 164.862 921.705 Q163.218 923.672 160.186 924.436 Z" fill="#000000" fill-rule="nonzero" fill-opacity="1" /><path clip-path="url(#clip520)" d="M189.028 912.584 L177.223 931.033 L189.028 931.033 L189.028 912.584 M187.801 908.51 L193.681 908.51 L193.681 931.033 L198.612 931.033 L198.612 934.922 L193.681 934.922 L193.681 943.07 L189.028 943.07 L189.028 934.922 L173.427 934.922 L173.427 930.408 L187.801 908.51 Z" fill="#000000" fill-rule="nonzero" fill-opacity="1" /><path clip-path="url(#clip520)" d="M121.367 738.409 L137.686 738.409 L137.686 742.345 L115.742 742.345 L115.742 738.409 Q118.404 735.655 122.987 731.025 Q127.593 726.372 128.774 725.03 Q131.019 722.507 131.899 720.771 Q132.802 719.011 132.802 717.322 Q132.802 714.567 130.857 712.831 Q128.936 711.095 125.834 711.095 Q123.635 711.095 121.181 711.859 Q118.751 712.623 115.973 714.173 L115.973 709.451 Q118.797 708.317 121.251 707.738 Q123.705 707.16 125.742 707.16 Q131.112 707.16 134.306 709.845 Q137.501 712.53 137.501 717.021 Q137.501 719.15 136.691 721.072 Q135.904 722.97 133.797 725.562 Q133.218 726.234 130.117 729.451 Q127.015 732.646 121.367 738.409 Z" fill="#000000" fill-rule="nonzero" fill-opacity="1" /><path clip-path="url(#clip520)" d="M161.667 723.71 Q165.024 724.428 166.899 726.697 Q168.797 728.965 168.797 732.298 Q168.797 737.414 165.278 740.215 Q161.76 743.016 155.278 743.016 Q153.103 743.016 150.788 742.576 Q148.496 742.159 146.042 741.303 L146.042 736.789 Q147.987 737.923 150.302 738.502 Q152.616 739.081 155.14 739.081 Q159.538 739.081 161.829 737.345 Q164.144 735.608 164.144 732.298 Q164.144 729.243 161.991 727.53 Q159.862 725.794 156.042 725.794 L152.015 725.794 L152.015 721.951 L156.228 721.951 Q159.677 721.951 161.505 720.585 Q163.334 719.197 163.334 716.604 Q163.334 713.942 161.436 712.53 Q159.561 711.095 156.042 711.095 Q154.121 711.095 151.922 711.511 Q149.723 711.928 147.084 712.808 L147.084 708.641 Q149.746 707.9 152.061 707.53 Q154.399 707.16 156.459 707.16 Q161.783 707.16 164.885 709.59 Q167.987 711.998 167.987 716.118 Q167.987 718.988 166.343 720.979 Q164.7 722.947 161.667 723.71 Z" fill="#000000" fill-rule="nonzero" fill-opacity="1" /><path clip-path="url(#clip520)" d="M177.709 707.785 L196.065 707.785 L196.065 711.72 L181.991 711.72 L181.991 720.192 Q183.01 719.845 184.028 719.683 Q185.047 719.497 186.065 719.497 Q191.852 719.497 195.232 722.669 Q198.612 725.84 198.612 731.257 Q198.612 736.835 195.139 739.937 Q191.667 743.016 185.348 743.016 Q183.172 743.016 180.903 742.645 Q178.658 742.275 176.251 741.534 L176.251 736.835 Q178.334 737.97 180.556 738.525 Q182.778 739.081 185.255 739.081 Q189.26 739.081 191.598 736.974 Q193.936 734.868 193.936 731.257 Q193.936 727.646 191.598 725.539 Q189.26 723.433 185.255 723.433 Q183.38 723.433 181.505 723.849 Q179.653 724.266 177.709 725.146 L177.709 707.785 Z" fill="#000000" fill-rule="nonzero" fill-opacity="1" /><path clip-path="url(#clip520)" d="M120.209 537.684 L136.529 537.684 L136.529 541.619 L114.584 541.619 L114.584 537.684 Q117.246 534.929 121.83 530.299 Q126.436 525.647 127.617 524.304 Q129.862 521.781 130.742 520.045 Q131.644 518.286 131.644 516.596 Q131.644 513.841 129.7 512.105 Q127.779 510.369 124.677 510.369 Q122.478 510.369 120.024 511.133 Q117.593 511.897 114.816 513.448 L114.816 508.726 Q117.64 507.591 120.093 507.013 Q122.547 506.434 124.584 506.434 Q129.955 506.434 133.149 509.119 Q136.343 511.804 136.343 516.295 Q136.343 518.425 135.533 520.346 Q134.746 522.244 132.64 524.837 Q132.061 525.508 128.959 528.725 Q125.857 531.92 120.209 537.684 Z" fill="#000000" fill-rule="nonzero" fill-opacity="1" /><path clip-path="url(#clip520)" d="M160.51 522.985 Q163.866 523.702 165.741 525.971 Q167.64 528.239 167.64 531.573 Q167.64 536.688 164.121 539.489 Q160.603 542.29 154.121 542.29 Q151.945 542.29 149.63 541.85 Q147.339 541.434 144.885 540.577 L144.885 536.063 Q146.829 537.198 149.144 537.776 Q151.459 538.355 153.982 538.355 Q158.38 538.355 160.672 536.619 Q162.987 534.883 162.987 531.573 Q162.987 528.517 160.834 526.804 Q158.704 525.068 154.885 525.068 L150.857 525.068 L150.857 521.225 L155.07 521.225 Q158.519 521.225 160.348 519.86 Q162.177 518.471 162.177 515.878 Q162.177 513.216 160.278 511.804 Q158.403 510.369 154.885 510.369 Q152.964 510.369 150.765 510.786 Q148.566 511.202 145.927 512.082 L145.927 507.915 Q148.589 507.175 150.903 506.804 Q153.241 506.434 155.302 506.434 Q160.626 506.434 163.727 508.864 Q166.829 511.272 166.829 515.392 Q166.829 518.262 165.186 520.253 Q163.542 522.221 160.51 522.985 Z" fill="#000000" fill-rule="nonzero" fill-opacity="1" /><path clip-path="url(#clip520)" d="M187.084 522.475 Q183.936 522.475 182.084 524.628 Q180.255 526.781 180.255 530.531 Q180.255 534.258 182.084 536.434 Q183.936 538.586 187.084 538.586 Q190.232 538.586 192.061 536.434 Q193.913 534.258 193.913 530.531 Q193.913 526.781 192.061 524.628 Q190.232 522.475 187.084 522.475 M196.366 507.823 L196.366 512.082 Q194.607 511.249 192.801 510.809 Q191.019 510.369 189.26 510.369 Q184.63 510.369 182.176 513.494 Q179.746 516.619 179.399 522.938 Q180.764 520.925 182.825 519.86 Q184.885 518.772 187.362 518.772 Q192.57 518.772 195.579 521.943 Q198.612 525.091 198.612 530.531 Q198.612 535.855 195.463 539.073 Q192.315 542.29 187.084 542.29 Q181.089 542.29 177.917 537.707 Q174.746 533.1 174.746 524.374 Q174.746 516.179 178.635 511.318 Q182.524 506.434 189.075 506.434 Q190.834 506.434 192.616 506.781 Q194.422 507.128 196.366 507.823 Z" fill="#000000" fill-rule="nonzero" fill-opacity="1" /><path clip-path="url(#clip520)" d="M121.274 336.958 L137.593 336.958 L137.593 340.893 L115.649 340.893 L115.649 336.958 Q118.311 334.203 122.894 329.574 Q127.501 324.921 128.681 323.578 Q130.927 321.055 131.806 319.319 Q132.709 317.56 132.709 315.87 Q132.709 313.115 130.765 311.379 Q128.843 309.643 125.742 309.643 Q123.543 309.643 121.089 310.407 Q118.658 311.171 115.881 312.722 L115.881 308 Q118.705 306.866 121.158 306.287 Q123.612 305.708 125.649 305.708 Q131.019 305.708 134.214 308.393 Q137.408 311.078 137.408 315.569 Q137.408 317.699 136.598 319.62 Q135.811 321.518 133.704 324.111 Q133.126 324.782 130.024 328 Q126.922 331.194 121.274 336.958 Z" fill="#000000" fill-rule="nonzero" fill-opacity="1" /><path clip-path="url(#clip520)" d="M161.575 322.259 Q164.931 322.977 166.806 325.245 Q168.704 327.514 168.704 330.847 Q168.704 335.963 165.186 338.764 Q161.667 341.564 155.186 341.564 Q153.01 341.564 150.695 341.125 Q148.403 340.708 145.95 339.851 L145.95 335.338 Q147.894 336.472 150.209 337.051 Q152.524 337.629 155.047 337.629 Q159.445 337.629 161.737 335.893 Q164.052 334.157 164.052 330.847 Q164.052 327.791 161.899 326.078 Q159.769 324.342 155.95 324.342 L151.922 324.342 L151.922 320.5 L156.135 320.5 Q159.584 320.5 161.413 319.134 Q163.241 317.745 163.241 315.153 Q163.241 312.491 161.343 311.078 Q159.468 309.643 155.95 309.643 Q154.028 309.643 151.829 310.06 Q149.63 310.477 146.991 311.356 L146.991 307.19 Q149.653 306.449 151.968 306.078 Q154.306 305.708 156.366 305.708 Q161.69 305.708 164.792 308.139 Q167.894 310.546 167.894 314.666 Q167.894 317.537 166.251 319.527 Q164.607 321.495 161.575 322.259 Z" fill="#000000" fill-rule="nonzero" fill-opacity="1" /><path clip-path="url(#clip520)" d="M176.389 306.333 L198.612 306.333 L198.612 308.324 L186.065 340.893 L181.181 340.893 L192.987 310.268 L176.389 310.268 L176.389 306.333 Z" fill="#000000" fill-rule="nonzero" fill-opacity="1" /><path clip-path="url(#clip520)" d="M120.464 136.232 L136.783 136.232 L136.783 140.167 L114.839 140.167 L114.839 136.232 Q117.501 133.478 122.084 128.848 Q126.691 124.195 127.871 122.853 Q130.117 120.33 130.996 118.593 Q131.899 116.834 131.899 115.144 Q131.899 112.39 129.955 110.654 Q128.033 108.918 124.931 108.918 Q122.732 108.918 120.279 109.681 Q117.848 110.445 115.07 111.996 L115.07 107.274 Q117.894 106.14 120.348 105.561 Q122.802 104.982 124.839 104.982 Q130.209 104.982 133.404 107.668 Q136.598 110.353 136.598 114.843 Q136.598 116.973 135.788 118.894 Q135.001 120.793 132.894 123.385 Q132.316 124.056 129.214 127.274 Q126.112 130.468 120.464 136.232 Z" fill="#000000" fill-rule="nonzero" fill-opacity="1" /><path clip-path="url(#clip520)" d="M160.765 121.533 Q164.121 122.251 165.996 124.519 Q167.894 126.788 167.894 130.121 Q167.894 135.237 164.376 138.038 Q160.857 140.839 154.376 140.839 Q152.2 140.839 149.885 140.399 Q147.593 139.982 145.14 139.126 L145.14 134.612 Q147.084 135.746 149.399 136.325 Q151.714 136.904 154.237 136.904 Q158.635 136.904 160.927 135.167 Q163.241 133.431 163.241 130.121 Q163.241 127.066 161.089 125.353 Q158.959 123.617 155.14 123.617 L151.112 123.617 L151.112 119.774 L155.325 119.774 Q158.774 119.774 160.603 118.408 Q162.431 117.019 162.431 114.427 Q162.431 111.765 160.533 110.353 Q158.658 108.918 155.14 108.918 Q153.218 108.918 151.019 109.334 Q148.82 109.751 146.181 110.631 L146.181 106.464 Q148.843 105.723 151.158 105.353 Q153.496 104.982 155.556 104.982 Q160.88 104.982 163.982 107.413 Q167.084 109.82 167.084 113.941 Q167.084 116.811 165.44 118.802 Q163.797 120.769 160.765 121.533 Z" fill="#000000" fill-rule="nonzero" fill-opacity="1" /><path clip-path="url(#clip520)" d="M186.76 123.755 Q183.426 123.755 181.505 125.538 Q179.607 127.32 179.607 130.445 Q179.607 133.57 181.505 135.353 Q183.426 137.135 186.76 137.135 Q190.093 137.135 192.014 135.353 Q193.936 133.547 193.936 130.445 Q193.936 127.32 192.014 125.538 Q190.116 123.755 186.76 123.755 M182.084 121.765 Q179.075 121.024 177.385 118.964 Q175.718 116.904 175.718 113.941 Q175.718 109.797 178.658 107.39 Q181.621 104.982 186.76 104.982 Q191.922 104.982 194.862 107.39 Q197.801 109.797 197.801 113.941 Q197.801 116.904 196.112 118.964 Q194.445 121.024 191.459 121.765 Q194.838 122.552 196.713 124.843 Q198.612 127.135 198.612 130.445 Q198.612 135.468 195.533 138.154 Q192.477 140.839 186.76 140.839 Q181.042 140.839 177.964 138.154 Q174.908 135.468 174.908 130.445 Q174.908 127.135 176.806 124.843 Q178.704 122.552 182.084 121.765 M180.371 114.381 Q180.371 117.066 182.038 118.57 Q183.727 120.075 186.76 120.075 Q189.769 120.075 191.459 118.57 Q193.172 117.066 193.172 114.381 Q193.172 111.695 191.459 110.191 Q189.769 108.686 186.76 108.686 Q183.727 108.686 182.038 110.191 Q180.371 111.695 180.371 114.381 Z" fill="#000000" fill-rule="nonzero" fill-opacity="1" /><path clip-path="url(#clip520)" d="M41.3104 969.884 L58.7206 969.884 L58.7206 959.571 Q58.7206 954.383 56.5881 951.901 Q54.4238 949.386 49.9996 949.386 Q45.5436 949.386 43.4429 951.901 Q41.3104 954.383 41.3104 959.571 L41.3104 969.884 M21.7677 969.884 L36.0905 969.884 L36.0905 960.367 Q36.0905 955.656 34.34 953.365 Q32.5576 951.041 28.9291 951.041 Q25.3325 951.041 23.5501 953.365 Q21.7677 955.656 21.7677 960.367 L21.7677 969.884 M16.4842 976.313 L16.4842 959.89 Q16.4842 952.537 19.5397 948.559 Q22.5952 944.58 28.2289 944.58 Q32.5894 944.58 35.1675 946.617 Q37.7456 948.654 38.3822 952.601 Q39.4007 947.858 42.6472 945.248 Q45.8619 942.607 50.6998 942.607 Q57.0655 942.607 60.5348 946.935 Q64.0042 951.264 64.0042 959.253 L64.0042 976.313 L16.4842 976.313 Z" fill="#000000" fill-rule="nonzero" fill-opacity="1" /><path clip-path="url(#clip520)" d="M32.4621 918.035 Q32.4621 922.746 36.1542 925.483 Q39.8145 928.22 46.212 928.22 Q52.6095 928.22 56.3017 925.515 Q59.9619 922.778 59.9619 918.035 Q59.9619 913.356 56.2698 910.619 Q52.5777 907.882 46.212 907.882 Q39.8781 907.882 36.186 910.619 Q32.4621 913.356 32.4621 918.035 M27.4968 918.035 Q27.4968 910.396 32.4621 906.036 Q37.4273 901.675 46.212 901.675 Q54.9649 901.675 59.9619 906.036 Q64.9272 910.396 64.9272 918.035 Q64.9272 925.706 59.9619 930.066 Q54.9649 934.395 46.212 934.395 Q37.4273 934.395 32.4621 930.066 Q27.4968 925.706 27.4968 918.035 Z" fill="#000000" fill-rule="nonzero" fill-opacity="1" /><path clip-path="url(#clip520)" d="M32.4621 878.154 Q32.4621 882.865 36.1542 885.602 Q39.8145 888.339 46.212 888.339 Q52.6095 888.339 56.3017 885.634 Q59.9619 882.896 59.9619 878.154 Q59.9619 873.475 56.2698 870.738 Q52.5777 868.001 46.212 868.001 Q39.8781 868.001 36.186 870.738 Q32.4621 873.475 32.4621 878.154 M27.4968 878.154 Q27.4968 870.515 32.4621 866.155 Q37.4273 861.794 46.212 861.794 Q54.9649 861.794 59.9619 866.155 Q64.9272 870.515 64.9272 878.154 Q64.9272 885.825 59.9619 890.185 Q54.9649 894.514 46.212 894.514 Q37.4273 894.514 32.4621 890.185 Q27.4968 885.825 27.4968 878.154 Z" fill="#000000" fill-rule="nonzero" fill-opacity="1" /><path clip-path="url(#clip520)" d="M29.4065 829.361 L34.9447 829.361 Q33.6716 831.843 33.035 834.517 Q32.3984 837.191 32.3984 840.055 Q32.3984 844.416 33.7352 846.612 Q35.072 848.776 37.7456 848.776 Q39.7826 848.776 40.9603 847.217 Q42.1061 845.657 43.1565 840.946 L43.6021 838.941 Q44.9389 832.703 47.3897 830.093 Q49.8086 827.451 54.1691 827.451 Q59.1344 827.451 62.0308 831.398 Q64.9272 835.313 64.9272 842.188 Q64.9272 845.052 64.3543 848.171 Q63.8132 851.259 62.6992 854.696 L56.6518 854.696 Q58.3387 851.45 59.198 848.299 Q60.0256 845.148 60.0256 842.06 Q60.0256 837.923 58.6251 835.695 Q57.1929 833.467 54.6147 833.467 Q52.2276 833.467 50.9545 835.09 Q49.6813 836.681 48.5037 842.124 L48.0262 844.161 Q46.8804 849.604 44.5251 852.023 Q42.138 854.442 38.0002 854.442 Q32.9713 854.442 30.2341 850.877 Q27.4968 847.312 27.4968 840.755 Q27.4968 837.509 27.9743 834.644 Q28.4517 831.78 29.4065 829.361 Z" fill="#000000" fill-rule="nonzero" fill-opacity="1" /><path clip-path="url(#clip520)" d="M18.2347 812.333 L28.3562 812.333 L28.3562 800.269 L32.9077 800.269 L32.9077 812.333 L52.2594 812.333 Q56.6199 812.333 57.8613 811.155 Q59.1026 809.945 59.1026 806.285 L59.1026 800.269 L64.0042 800.269 L64.0042 806.285 Q64.0042 813.065 61.4897 815.643 Q58.9434 818.221 52.2594 818.221 L32.9077 818.221 L32.9077 822.518 L28.3562 822.518 L28.3562 818.221 L18.2347 818.221 L18.2347 812.333 Z" fill="#000000" fill-rule="nonzero" fill-opacity="1" /><path clip-path="url(#clip520)" d="M16.4842 771.592 L16.4842 744.283 L21.895 744.283 L21.895 765.163 L35.8996 765.163 L35.8996 746.32 L41.3104 746.32 L41.3104 765.163 L64.0042 765.163 L64.0042 771.592 L16.4842 771.592 Z" fill="#000000" fill-rule="nonzero" fill-opacity="1" /><path clip-path="url(#clip520)" d="M46.0847 724.136 Q46.0847 731.233 47.7079 733.971 Q49.3312 736.708 53.2461 736.708 Q56.3653 736.708 58.2114 734.671 Q60.0256 732.602 60.0256 729.069 Q60.0256 724.199 56.5881 721.271 Q53.1188 718.311 47.3897 718.311 L46.0847 718.311 L46.0847 724.136 M43.6657 712.455 L64.0042 712.455 L64.0042 718.311 L58.5933 718.311 Q61.8398 720.316 63.3994 723.308 Q64.9272 726.3 64.9272 730.629 Q64.9272 736.103 61.8716 739.35 Q58.7843 742.564 53.6281 742.564 Q47.6125 742.564 44.5569 738.554 Q41.5014 734.512 41.5014 726.523 L41.5014 718.311 L40.9285 718.311 Q36.8862 718.311 34.6901 720.985 Q32.4621 723.626 32.4621 728.432 Q32.4621 731.488 33.1941 734.384 Q33.9262 737.281 35.3903 739.954 L29.9795 739.954 Q28.7381 736.74 28.1334 733.716 Q27.4968 730.692 27.4968 727.828 Q27.4968 720.093 31.5072 716.274 Q35.5176 712.455 43.6657 712.455 Z" fill="#000000" fill-rule="nonzero" fill-opacity="1" /><path clip-path="url(#clip520)" d="M29.7248 674.738 L35.1993 674.738 Q33.8307 677.22 33.1623 679.735 Q32.4621 682.217 32.4621 684.764 Q32.4621 690.461 36.0905 693.612 Q39.6872 696.763 46.212 696.763 Q52.7369 696.763 56.3653 693.612 Q59.9619 690.461 59.9619 684.764 Q59.9619 682.217 59.2935 679.735 Q58.5933 677.22 57.2247 674.738 L62.6355 674.738 Q63.7814 677.189 64.3543 679.83 Q64.9272 682.44 64.9272 685.4 Q64.9272 693.453 59.8664 698.195 Q54.8057 702.938 46.212 702.938 Q37.491 702.938 32.4939 698.164 Q27.4968 693.357 27.4968 685.018 Q27.4968 682.313 28.0697 679.735 Q28.6108 677.157 29.7248 674.738 Z" fill="#000000" fill-rule="nonzero" fill-opacity="1" /><path clip-path="url(#clip520)" d="M18.2347 658.76 L28.3562 658.76 L28.3562 646.697 L32.9077 646.697 L32.9077 658.76 L52.2594 658.76 Q56.6199 658.76 57.8613 657.582 Q59.1026 656.373 59.1026 652.712 L59.1026 646.697 L64.0042 646.697 L64.0042 652.712 Q64.0042 659.492 61.4897 662.07 Q58.9434 664.648 52.2594 664.648 L32.9077 664.648 L32.9077 668.945 L28.3562 668.945 L28.3562 664.648 L18.2347 664.648 L18.2347 658.76 Z" fill="#000000" fill-rule="nonzero" fill-opacity="1" /><path clip-path="url(#clip520)" d="M32.4621 625.181 Q32.4621 629.891 36.1542 632.629 Q39.8145 635.366 46.212 635.366 Q52.6095 635.366 56.3017 632.66 Q59.9619 629.923 59.9619 625.181 Q59.9619 620.502 56.2698 617.765 Q52.5777 615.027 46.212 615.027 Q39.8781 615.027 36.186 617.765 Q32.4621 620.502 32.4621 625.181 M27.4968 625.181 Q27.4968 617.542 32.4621 613.181 Q37.4273 608.821 46.212 608.821 Q54.9649 608.821 59.9619 613.181 Q64.9272 617.542 64.9272 625.181 Q64.9272 632.851 59.9619 637.212 Q54.9649 641.541 46.212 641.541 Q37.4273 641.541 32.4621 637.212 Q27.4968 632.851 27.4968 625.181 Z" fill="#000000" fill-rule="nonzero" fill-opacity="1" /><path clip-path="url(#clip520)" d="M33.8307 578.456 Q33.2578 579.443 33.0032 580.621 Q32.7167 581.767 32.7167 583.167 Q32.7167 588.132 35.9632 590.806 Q39.1779 593.448 45.2253 593.448 L64.0042 593.448 L64.0042 599.336 L28.3562 599.336 L28.3562 593.448 L33.8944 593.448 Q30.6479 591.602 29.0883 588.642 Q27.4968 585.682 27.4968 581.448 Q27.4968 580.844 27.5923 580.112 Q27.656 579.379 27.8151 578.488 L33.8307 578.456 Z" fill="#000000" fill-rule="nonzero" fill-opacity="1" /><path clip-path="url(#clip520)" d="M61.808 545.737 L77.5631 545.737 L77.5631 551.625 L28.579 551.625 Q14.0652 551.625 14.0652 538.066 Q14.0652 524.252 26.3192 524.252 Q35.0402 524.252 38.223 529.727 Q41.0876 520.815 49.5858 520.815 Q64.6726 520.815 64.6726 536.156 Q64.6726 542.904 61.808 545.737 M54.1691 545.737 Q59.6755 542.204 59.6755 535.934 Q59.6755 526.767 49.6813 526.767 Q40.7057 526.767 41.4059 541.535 L35.995 541.535 Q35.995 529.982 25.8099 529.982 Q18.8395 529.982 18.8395 537.429 Q18.8395 545.737 28.77 545.737 L54.1691 545.737 Z" fill="#000000" fill-rule="nonzero" fill-opacity="1" /><path clip-path="url(#clip520)" d="M39.1142 507.606 L39.1142 494.111 L42.7427 494.111 L42.7427 513.144 L39.2416 513.144 Q38.2549 512.062 36.4725 510.057 Q26.7648 499.108 23.7729 499.108 Q21.6722 499.108 20.3991 500.763 Q19.0941 502.418 19.0941 505.124 Q19.0941 506.779 19.667 508.72 Q20.2081 510.662 21.3221 512.953 L17.4072 512.953 Q16.516 510.503 16.0704 508.402 Q15.6248 506.269 15.6248 504.455 Q15.6248 499.84 17.7255 497.071 Q19.8262 494.302 23.2636 494.302 Q27.6878 494.302 36.7271 504.837 Q38.2549 506.619 39.1142 507.606 Z" fill="#000000" fill-rule="nonzero" fill-opacity="1" /><polyline clip-path="url(#clip522)" style="stroke:#009af9; stroke-linecap:round; stroke-linejoin:round; stroke-width:4; stroke-opacity:1; fill:none" points="294.559,741.189 296.559,744.313 298.56,747.43 300.56,750.54 302.56,753.641 304.56,756.735 306.561,759.821 308.561,762.9 310.561,765.97 312.561,769.033 314.562,772.088 316.562,775.136 318.562,778.176 320.562,781.208 322.563,784.232 324.563,787.249 326.563,790.257 328.563,793.259 330.564,796.252 332.564,799.238 334.564,802.216 336.564,805.186 338.565,808.149 340.565,811.104 342.565,814.051 344.565,816.991 346.566,819.922 348.566,822.846 350.566,825.763 352.566,828.672 354.567,831.573 356.567,834.466 358.567,837.351 360.567,840.229 362.568,843.1 364.568,845.962 366.568,848.817 368.568,851.664 370.569,854.503 372.569,857.335 374.569,860.159 376.569,862.976 378.57,865.784 380.57,868.585 382.57,871.379 384.57,874.164 386.571,876.942 388.571,879.712 390.571,882.475 392.571,885.23 394.572,887.977 396.572,890.717 398.572,893.448 400.572,896.173 402.573,898.889 404.573,901.598 406.573,904.299 408.573,906.993 410.574,909.678 412.574,912.357 414.574,915.027 416.574,917.69 418.575,920.345 420.575,922.992 422.575,925.632 424.575,928.264 426.576,930.889 428.576,933.506 430.576,936.115 432.576,938.716 434.577,941.31 436.577,943.896 438.577,946.475 440.577,949.046 442.578,951.609 444.578,954.165 446.578,956.713 448.578,959.253 450.579,961.785 452.579,964.31 454.579,966.828 456.579,969.337 458.58,971.839 460.58,974.334 462.58,976.82 464.58,979.299 466.581,981.771 468.581,984.235 470.581,986.691 472.581,989.139 474.582,991.58 476.582,994.013 478.582,996.439 480.582,998.857 482.583,1001.27 484.583,1003.67 486.583,1006.07 488.583,1008.45 490.584,1010.83 492.584,1013.2 494.584,1015.57 496.584,1017.93 498.585,1020.28 500.585,1022.62 502.585,1024.95 504.585,1027.28 506.586,1029.6 508.586,1031.91 510.586,1034.21 512.586,1036.51 514.586,1038.79 516.587,1041.08 518.587,1043.35 520.587,1045.61 522.587,1047.87 524.588,1050.12 526.588,1052.36 528.588,1054.6 530.588,1056.83 532.589,1059.05 534.589,1061.26 536.589,1063.46 538.589,1065.66 540.59,1067.85 542.59,1070.03 544.59,1072.2 546.59,1074.37 548.591,1076.53 550.591,1078.68 552.591,1080.82 554.591,1082.96 556.592,1085.09 558.592,1087.21 560.592,1089.32 562.592,1091.43 564.593,1093.53 566.593,1095.62 568.593,1097.7 570.593,1099.77 572.594,1101.84 574.594,1103.9 576.594,1105.95 578.594,1108 580.595,1110.04 582.595,1112.07 584.595,1114.09 586.595,1116.1 588.596,1118.11 590.596,1120.11 592.596,1122.1 594.596,1124.08 596.597,1126.06 598.597,1128.03 600.597,1129.99 602.597,1131.95 604.598,1133.89 606.598,1135.83 608.598,1137.76 610.598,1139.68 612.599,1141.6 614.599,1143.51 616.599,1145.41 618.599,1147.3 620.6,1149.19 622.6,1151.07 624.6,1152.94 626.6,1154.8 628.601,1156.65 630.601,1158.5 632.601,1160.34 634.601,1162.17 636.602,1164 638.602,1165.82 640.602,1167.63 642.602,1169.43 644.603,1171.22 646.603,1173.01 648.603,1174.79 650.603,1176.56 652.604,1178.33 654.604,1180.08 656.604,1181.83 658.604,1183.57 660.605,1185.31 662.605,1187.03 664.605,1188.75 666.605,1190.46 668.606,1192.17 670.606,1193.86 672.606,1195.55 674.606,1197.23 676.607,1198.91 678.607,1200.57 680.607,1202.23 682.607,1203.88 684.608,1205.53 686.608,1207.16 688.608,1208.79 690.608,1210.41 692.609,1212.02 694.609,1213.63 696.609,1215.23 698.609,1216.82 700.61,1218.4 702.61,1219.98 704.61,1221.54 706.61,1223.1 708.611,1224.66 710.611,1226.2 712.611,1227.74 714.611,1229.27 716.612,1230.79 718.612,1232.31 720.612,1233.81 722.612,1235.31 724.613,1236.81 726.613,1238.29 728.613,1239.77 730.613,1241.24 732.614,1242.7 734.614,1244.16 736.614,1245.6 738.614,1247.04 740.615,1248.47 742.615,1249.9 744.615,1251.32 746.615,1252.72 748.616,1254.13 750.616,1255.52 752.616,1256.91 754.616,1258.29 756.617,1259.66 758.617,1261.02 760.617,1262.38 762.617,1263.73 764.618,1265.07 766.618,1266.4 768.618,1267.73 770.618,1269.05 772.619,1270.36 774.619,1271.66 776.619,1272.96 778.619,1274.25 780.62,1275.53 782.62,1276.81 784.62,1278.07 786.62,1279.33 788.621,1280.58 790.621,1281.82 792.621,1283.06 794.621,1284.29 796.622,1285.51 798.622,1286.72 800.622,1287.93 802.622,1289.13 804.623,1290.32 806.623,1291.5 808.623,1292.68 810.623,1293.85 812.624,1295.01 814.624,1296.16 816.624,1297.31 818.624,1298.45 820.625,1299.58 822.625,1300.7 824.625,1301.82 826.625,1302.92 828.626,1304.03 830.626,1305.12 832.626,1306.2 834.626,1307.28 836.627,1308.35 838.627,1309.42 840.627,1310.47 842.627,1311.52 844.628,1312.56 846.628,1313.59 848.628,1314.62 850.628,1315.64 852.629,1316.65 854.629,1317.65 856.629,1318.65 858.629,1319.63 860.63,1320.62 862.63,1321.59 864.63,1322.55 866.63,1323.51 868.631,1324.46 870.631,1325.41 872.631,1326.34 874.631,1327.27 876.632,1328.19 878.632,1329.1 880.632,1330.01 882.632,1330.91 884.633,1331.8 886.633,1332.68 888.633,1333.55 890.633,1334.42 892.634,1335.28 894.634,1336.14 896.634,1336.98 898.634,1337.82 900.635,1338.65 902.635,1339.47 904.635,1340.29 906.635,1341.1 908.636,1341.9 910.636,1342.69 912.636,1343.47 914.636,1344.25 916.637,1345.02 918.637,1345.79 920.637,1346.54 922.637,1347.29 924.638,1348.03 926.638,1348.76 928.638,1349.49 930.638,1350.2 932.639,1350.92 934.639,1351.62 936.639,1352.31 938.639,1353 940.64,1353.68 942.64,1354.35 944.64,1355.02 946.64,1355.68 948.641,1356.33 950.641,1356.97 952.641,1357.61 954.641,1358.23 956.642,1358.86 958.642,1359.47 960.642,1360.07 962.642,1360.67 964.643,1361.26 966.643,1361.84 968.643,1362.42 970.643,1362.99 972.644,1363.55 974.644,1364.1 976.644,1364.65 978.644,1365.18 980.645,1365.72 982.645,1366.24 984.645,1366.75 986.645,1367.26 988.646,1367.76 990.646,1368.26 992.646,1368.74 994.646,1369.22 996.647,1369.69 998.647,1370.15 1000.65,1370.61 1002.65,1371.06 1004.65,1371.5 1006.65,1371.93 1008.65,1372.36 1010.65,1372.77 1012.65,1373.18 1014.65,1373.59 1016.65,1373.98 1018.65,1374.37 1020.65,1374.75 1022.65,1375.12 1024.65,1375.49 1026.65,1375.85 1028.65,1376.2 1030.65,1376.54 1032.65,1376.88 1034.65,1377.21 1036.65,1377.53 1038.65,1377.84 1040.65,1378.15 1042.65,1378.44 1044.65,1378.74 1046.65,1379.02 1048.65,1379.29 1050.65,1379.56 1052.65,1379.82 1054.65,1380.08 1056.65,1380.32 1058.65,1380.56 1060.65,1380.79 1062.65,1381.02 1064.66,1381.23 1066.66,1381.44 1068.66,1381.64 1070.66,1381.83 1072.66,1382.02 1074.66,1382.2 1076.66,1382.37 1078.66,1382.53 1080.66,1382.69 1082.66,1382.84 1084.66,1382.98 1086.66,1383.11 1088.66,1383.24 1090.66,1383.36 1092.66,1383.47 1094.66,1383.57 1096.66,1383.67 1098.66,1383.76 1100.66,1383.84 1102.66,1383.91 1104.66,1383.98 1106.66,1384.04 1108.66,1384.09 1110.66,1384.13 1112.66,1384.17 1114.66,1384.2 1116.66,1384.22 1118.66,1384.23 1120.66,1384.24 1122.66,1384.24 1124.66,1384.23 1126.66,1384.21 1128.66,1384.19 1130.66,1384.16 1132.66,1384.12 1134.66,1384.07 1136.66,1384.02 1138.66,1383.96 1140.66,1383.89 1142.66,1383.81 1144.67,1383.73 1146.67,1383.64 1148.67,1383.54 1150.67,1383.43 1152.67,1383.32 1154.67,1383.2 1156.67,1383.07 1158.67,1382.94 1160.67,1382.79 1162.67,1382.64 1164.67,1382.48 1166.67,1382.32 1168.67,1382.14 1170.67,1381.96 1172.67,1381.78 1174.67,1381.58 1176.67,1381.38 1178.67,1381.17 1180.67,1380.95 1182.67,1380.72 1184.67,1380.49 1186.67,1380.25 1188.67,1380 1190.67,1379.74 1192.67,1379.48 1194.67,1379.21 1196.67,1378.93 1198.67,1378.65 1200.67,1378.35 1202.67,1378.05 1204.67,1377.74 1206.67,1377.43 1208.67,1377.11 1210.67,1376.78 1212.67,1376.44 1214.67,1376.09 1216.67,1375.74 1218.67,1375.38 1220.67,1375.01 1222.67,1374.63 1224.68,1374.25 1226.68,1373.86 1228.68,1373.46 1230.68,1373.06 1232.68,1372.64 1234.68,1372.22 1236.68,1371.8 1238.68,1371.36 1240.68,1370.92 1242.68,1370.47 1244.68,1370.01 1246.68,1369.54 1248.68,1369.07 1250.68,1368.59 1252.68,1368.1 1254.68,1367.61 1256.68,1367.11 1258.68,1366.59 1260.68,1366.08 1262.68,1365.55 1264.68,1365.02 1266.68,1364.48 1268.68,1363.93 1270.68,1363.38 1272.68,1362.81 1274.68,1362.24 1276.68,1361.66 1278.68,1361.08 1280.68,1360.49 1282.68,1359.89 1284.68,1359.28 1286.68,1358.66 1288.68,1358.04 1290.68,1357.41 1292.68,1356.77 1294.68,1356.13 1296.68,1355.47 1298.68,1354.81 1300.68,1354.15 1302.68,1353.47 1304.69,1352.79 1306.69,1352.1 1308.69,1351.4 1310.69,1350.7 1312.69,1349.98 1314.69,1349.26 1316.69,1348.54 1318.69,1347.8 1320.69,1347.06 1322.69,1346.31 1324.69,1345.55 1326.69,1344.78 1328.69,1344.01 1330.69,1343.23 1332.69,1342.44 1334.69,1341.65 1336.69,1340.85 1338.69,1340.04 1340.69,1339.22 1342.69,1338.39 1344.69,1337.56 1346.69,1336.72 1348.69,1335.87 1350.69,1335.02 1352.69,1334.15 1354.69,1333.28 1356.69,1332.41 1358.69,1331.52 1360.69,1330.63 1362.69,1329.73 1364.69,1328.82 1366.69,1327.9 1368.69,1326.98 1370.69,1326.05 1372.69,1325.11 1374.69,1324.17 1376.69,1323.22 1378.69,1322.26 1380.69,1321.29 1382.69,1320.31 1384.7,1319.33 1386.7,1318.34 1388.7,1317.34 1390.7,1316.34 1392.7,1315.32 1394.7,1314.3 1396.7,1313.27 1398.7,1312.24 1400.7,1311.2 1402.7,1310.15 1404.7,1309.09 1406.7,1308.02 1408.7,1306.95 1410.7,1305.87 1412.7,1304.78 1414.7,1303.68 1416.7,1302.58 1418.7,1301.47 1420.7,1300.35 1422.7,1299.23 1424.7,1298.09 1426.7,1296.95 1428.7,1295.8 1430.7,1294.65 1432.7,1293.49 1434.7,1292.32 1436.7,1291.14 1438.7,1289.95 1440.7,1288.76 1442.7,1287.56 1444.7,1286.35 1446.7,1285.13 1448.7,1283.91 1450.7,1282.68 1452.7,1281.44 1454.7,1280.19 1456.7,1278.94 1458.7,1277.68 1460.7,1276.41 1462.7,1275.13 1464.71,1273.85 1466.71,1272.56 1468.71,1271.26 1470.71,1269.95 1472.71,1268.64 1474.71,1267.32 1476.71,1265.99 1478.71,1264.65 1480.71,1263.31 1482.71,1261.96 1484.71,1260.6 1486.71,1259.23 1488.71,1257.86 1490.71,1256.48 1492.71,1255.09 1494.71,1253.69 1496.71,1252.29 1498.71,1250.88 1500.71,1249.46 1502.71,1248.03 1504.71,1246.59 1506.71,1245.15 1508.71,1243.7 1510.71,1242.25 1512.71,1240.78 1514.71,1239.31 1516.71,1237.83 1518.71,1236.34 1520.71,1234.85 1522.71,1233.35 1524.71,1231.84 1526.71,1230.32 1528.71,1228.79 1530.71,1227.26 1532.71,1225.72 1534.71,1224.17 1536.71,1222.62 1538.71,1221.06 1540.71,1219.49 1542.71,1217.91 1544.72,1216.32 1546.72,1214.73 1548.72,1213.13 1550.72,1211.52 1552.72,1209.91 1554.72,1208.28 1556.72,1206.65 1558.72,1205.01 1560.72,1203.37 1562.72,1201.72 1564.72,1200.06 1566.72,1198.39 1568.72,1196.71 1570.72,1195.03 1572.72,1193.34 1574.72,1191.64 1576.72,1189.93 1578.72,1188.22 1580.72,1186.5 1582.72,1184.77 1584.72,1183.03 1586.72,1181.29 1588.72,1179.54 1590.72,1177.78 1592.72,1176.01 1594.72,1174.24 1596.72,1172.45 1598.72,1170.66 1600.72,1168.87 1602.72,1167.06 1604.72,1165.25 1606.72,1163.43 1608.72,1161.6 1610.72,1159.77 1612.72,1157.93 1614.72,1156.08 1616.72,1154.22 1618.72,1152.35 1620.72,1150.48 1622.72,1148.6 1624.73,1146.71 1626.73,1144.82 1628.73,1142.91 1630.73,1141 1632.73,1139.08 1634.73,1137.16 1636.73,1135.23 1638.73,1133.28 1640.73,1131.34 1642.73,1129.38 1644.73,1127.42 1646.73,1125.44 1648.73,1123.47 1650.73,1121.48 1652.73,1119.49 1654.73,1117.48 1656.73,1115.47 1658.73,1113.46 1660.73,1111.43 1662.73,1109.4 1664.73,1107.36 1666.73,1105.31 1668.73,1103.26 1670.73,1101.2 1672.73,1099.13 1674.73,1097.05 1676.73,1094.96 1678.73,1092.87 1680.73,1090.77 1682.73,1088.66 1684.73,1086.55 1686.73,1084.42 1688.73,1082.29 1690.73,1080.15 1692.73,1078.01 1694.73,1075.86 1696.73,1073.69 1698.73,1071.52 1700.73,1069.35 1702.73,1067.16 1704.74,1064.97 1706.74,1062.77 1708.74,1060.57 1710.74,1058.35 1712.74,1056.13 1714.74,1053.9 1716.74,1051.66 1718.74,1049.42 1720.74,1047.17 1722.74,1044.9 1724.74,1042.64 1726.74,1040.36 1728.74,1038.08 1730.74,1035.79 1732.74,1033.49 1734.74,1031.18 1736.74,1028.87 1738.74,1026.55 1740.74,1024.22 1742.74,1021.88 1744.74,1019.54 1746.74,1017.19 1748.74,1014.83 1750.74,1012.46 1752.74,1010.09 1754.74,1007.7 1756.74,1005.31 1758.74,1002.92 1760.74,1000.51 1762.74,998.099 1764.74,995.679 1766.74,993.251 1768.74,990.815 1770.74,988.372 1772.74,985.921 1774.74,983.462 1776.74,980.996 1778.74,978.522 1780.74,976.041 1782.74,973.551 1784.75,971.054 1786.75,968.55 1788.75,966.038 1790.75,963.518 1792.75,960.991 1794.75,958.456 1796.75,955.913 1798.75,953.362 1800.75,950.804 1802.75,948.239 1804.75,945.665 1806.75,943.084 1808.75,940.496 1810.75,937.899 1812.75,935.295 1814.75,932.684 1816.75,930.064 1818.75,927.437 1820.75,924.803 1822.75,922.161 1824.75,919.511 1826.75,916.853 1828.75,914.188 1830.75,911.515 1832.75,908.834 1834.75,906.146 1836.75,903.45 1838.75,900.746 1840.75,898.035 1842.75,895.316 1844.75,892.589 1846.75,889.855 1848.75,887.113 1850.75,884.363 1852.75,881.606 1854.75,878.84 1856.75,876.068 1858.75,873.287 1860.75,870.499 1862.75,867.703 1864.76,864.9 1866.76,862.089 1868.76,859.27 1870.76,856.443 1872.76,853.609 1874.76,850.767 1876.76,847.917 1878.76,845.06 1880.76,842.195 1882.76,839.322 1884.76,836.442 1886.76,833.554 1888.76,830.658 1890.76,827.754 1892.76,824.843 1894.76,821.924 1896.76,818.998 1898.76,816.063 1900.76,813.121 1902.76,810.172 1904.76,807.214 1906.76,804.249 1908.76,801.276 1910.76,798.295 1912.76,795.307 1914.76,792.311 1916.76,789.307 1918.76,786.296 1920.76,783.277 1922.76,780.25 1924.76,777.215 1926.76,774.173 1928.76,771.123 1930.76,768.065 1932.76,765 1934.76,761.927 1936.76,758.846 1938.76,755.757 1940.76,752.661 1942.76,749.557 1944.76,746.445 1946.77,743.325 1948.77,740.198 1950.77,737.063 1952.77,733.92 1954.77,730.769 1956.77,727.611 1958.77,724.445 1960.77,721.271 1962.77,718.09 1964.77,714.901 1966.77,711.704 1968.77,708.499 1970.77,705.287 1972.77,702.067 1974.77,698.839 1976.77,695.603 1978.77,692.359 1980.77,689.108 1982.77,685.849 1984.77,682.583 1986.77,679.308 1988.77,676.026 1990.77,672.736 1992.77,669.438 1994.77,666.133 1996.77,662.82 1998.77,659.499 2000.77,656.17 2002.77,652.833 2004.77,649.489 2006.77,646.137 2008.77,642.777 2010.77,639.409 2012.77,636.034 2014.77,632.651 2016.77,629.26 2018.77,625.861 2020.77,622.455 2022.77,619.041 2024.77,615.619 2026.78,612.189 2028.78,608.751 2030.78,605.306 2032.78,601.853 2034.78,598.392 2036.78,594.923 2038.78,591.447 2040.78,587.962 2042.78,584.47 2044.78,580.97 2046.78,577.463 2048.78,573.947 2050.78,570.424 2052.78,566.893 2054.78,563.354 2056.78,559.808 2058.78,556.253 2060.78,552.691 2062.78,549.121 2064.78,545.543 2066.78,541.957 2068.78,538.364 2070.78,534.763 2072.78,531.154 2074.78,527.537 2076.78,523.912 2078.78,520.28 2080.78,516.639 2082.78,512.991 2084.78,509.335 2086.78,505.671 2088.78,502 2090.78,498.32 2092.78,494.633 2094.78,490.938 2096.78,487.235 2098.78,483.525 2100.78,479.806 2102.78,476.08 2104.78,472.346 2106.79,468.604 2108.79,464.854 2110.79,461.096 2112.79,457.331 2114.79,453.557 2116.79,449.776 2118.79,445.987 2120.79,442.19 2122.79,438.386 2124.79,434.573 2126.79,430.753 2128.79,426.925 2130.79,423.089 2132.79,419.245 2134.79,415.393 2136.79,411.533 2138.79,407.666 2140.79,403.791 2142.79,399.907 2144.79,396.016 2146.79,392.117 2148.79,388.211 2150.79,384.296 2152.79,380.374 2154.79,376.443 2156.79,372.505 2158.79,368.559 2160.79,364.605 2162.79,360.643 2164.79,356.674 2166.79,352.696 2168.79,348.711 2170.79,344.718 2172.79,340.717 2174.79,336.708 2176.79,332.691 2178.79,328.666 2180.79,324.633 2182.79,320.593 2184.79,316.544 2186.8,312.488 2188.8,308.424 2190.8,304.352 2192.8,300.272 2194.8,296.184 2196.8,292.088 2198.8,287.985 2200.8,283.873 2202.8,279.754 2204.8,275.626 2206.8,271.491 2208.8,267.348 2210.8,263.197 2212.8,259.038 2214.8,254.871 2216.8,250.697 2218.8,246.514 2220.8,242.323 2222.8,238.125 2224.8,233.919 2226.8,229.704 2228.8,225.482 2230.8,221.252 2232.8,217.014 2234.8,212.768 2236.8,208.514 2238.8,204.253 2240.8,199.983 2242.8,195.705 2244.8,191.42 2246.8,187.126 2248.8,182.825 2250.8,178.516 2252.8,174.198 2254.8,169.873 2256.8,165.54 2258.8,161.199 2260.8,156.85 2262.8,152.493 2264.8,148.128 2266.81,143.755 2268.81,139.375 2270.81,134.986 2272.81,130.589 2274.81,126.185 2276.81,121.772 2278.81,117.352 2280.81,112.923 2282.81,108.487 2284.81,104.043 2286.81,99.5903 2288.81,95.13 2290.81,90.6618 2292.81,86.1857 "/>
<path clip-path="url(#clip520)" d="M305.216 196.789 L569.461 196.789 L569.461 93.1086 L305.216 93.1086  Z" fill="#ffffff" fill-rule="evenodd" fill-opacity="1"/>
<polyline clip-path="url(#clip520)" style="stroke:#000000; stroke-linecap:round; stroke-linejoin:round; stroke-width:4; stroke-opacity:1; fill:none" points="305.216,196.789 569.461,196.789 569.461,93.1086 305.216,93.1086 305.216,196.789 "/>
<polyline clip-path="url(#clip520)" style="stroke:#009af9; stroke-linecap:round; stroke-linejoin:round; stroke-width:4; stroke-opacity:1; fill:none" points="328.751,144.949 469.961,144.949 "/>
<path clip-path="url(#clip520)" d="M507.338 164.636 Q505.533 169.266 503.82 170.678 Q502.107 172.09 499.237 172.09 L495.834 172.09 L495.834 168.525 L498.334 168.525 Q500.093 168.525 501.065 167.692 Q502.037 166.858 503.218 163.756 L503.982 161.812 L493.496 136.303 L498.01 136.303 L506.112 156.581 L514.213 136.303 L518.727 136.303 L507.338 164.636 Z" fill="#000000" fill-rule="nonzero" fill-opacity="1" /><path clip-path="url(#clip520)" d="M526.019 158.293 L533.658 158.293 L533.658 131.928 L525.348 133.595 L525.348 129.335 L533.611 127.669 L538.287 127.669 L538.287 158.293 L545.926 158.293 L545.926 162.229 L526.019 162.229 L526.019 158.293 Z" fill="#000000" fill-rule="nonzero" fill-opacity="1" /></svg>
