<?xml version="1.0" encoding="utf-8"?>
<svg xmlns="http://www.w3.org/2000/svg" xmlns:xlink="http://www.w3.org/1999/xlink" width="600" height="400" viewBox="0 0 2400 1600">
<defs>
  <clipPath id="clip910">
    <rect x="0" y="0" width="2400" height="1600"/>
  </clipPath>
</defs>
<path clip-path="url(#clip910)" d="M0 1600 L2400 1600 L2400 0 L0 0  Z" fill="#ffffff" fill-rule="evenodd" fill-opacity="1"/>
<defs>
  <clipPath id="clip911">
    <rect x="480" y="0" width="1681" height="1600"/>
  </clipPath>
</defs>
<path clip-path="url(#clip910)" d="M519.274 1423.18 L2352.76 1423.18 L2352.76 47.2441 L519.274 47.2441  Z" fill="#ffffff" fill-rule="evenodd" fill-opacity="1"/>
<defs>
  <clipPath id="clip912">
    <rect x="519" y="47" width="1834" height="1377"/>
  </clipPath>
</defs>
<polyline clip-path="url(#clip912)" style="stroke:#000000; stroke-linecap:round; stroke-linejoin:round; stroke-width:2; stroke-opacity:0.1; fill:none" points="818.265,1423.18 818.265,47.2441 "/>
<polyline clip-path="url(#clip912)" style="stroke:#000000; stroke-linecap:round; stroke-linejoin:round; stroke-width:2; stroke-opacity:0.1; fill:none" points="1312.47,1423.18 1312.47,47.2441 "/>
<polyline clip-path="url(#clip912)" style="stroke:#000000; stroke-linecap:round; stroke-linejoin:round; stroke-width:2; stroke-opacity:0.1; fill:none" points="1806.67,1423.18 1806.67,47.2441 "/>
<polyline clip-path="url(#clip912)" style="stroke:#000000; stroke-linecap:round; stroke-linejoin:round; stroke-width:2; stroke-opacity:0.1; fill:none" points="2300.86,1423.18 2300.86,47.2441 "/>
<polyline clip-path="url(#clip912)" style="stroke:#000000; stroke-linecap:round; stroke-linejoin:round; stroke-width:2; stroke-opacity:0.1; fill:none" points="519.274,1196.8 2352.76,1196.8 "/>
<polyline clip-path="url(#clip912)" style="stroke:#000000; stroke-linecap:round; stroke-linejoin:round; stroke-width:2; stroke-opacity:0.1; fill:none" points="519.274,948.202 2352.76,948.202 "/>
<polyline clip-path="url(#clip912)" style="stroke:#000000; stroke-linecap:round; stroke-linejoin:round; stroke-width:2; stroke-opacity:0.1; fill:none" points="519.274,699.607 2352.76,699.607 "/>
<polyline clip-path="url(#clip912)" style="stroke:#000000; stroke-linecap:round; stroke-linejoin:round; stroke-width:2; stroke-opacity:0.1; fill:none" points="519.274,451.011 2352.76,451.011 "/>
<polyline clip-path="url(#clip912)" style="stroke:#000000; stroke-linecap:round; stroke-linejoin:round; stroke-width:2; stroke-opacity:0.1; fill:none" points="519.274,202.415 2352.76,202.415 "/>
<polyline clip-path="url(#clip910)" style="stroke:#000000; stroke-linecap:round; stroke-linejoin:round; stroke-width:4; stroke-opacity:1; fill:none" points="519.274,1423.18 2352.76,1423.18 "/>
<polyline clip-path="url(#clip910)" style="stroke:#000000; stroke-linecap:round; stroke-linejoin:round; stroke-width:4; stroke-opacity:1; fill:none" points="818.265,1423.18 818.265,1404.28 "/>
<polyline clip-path="url(#clip910)" style="stroke:#000000; stroke-linecap:round; stroke-linejoin:round; stroke-width:4; stroke-opacity:1; fill:none" points="1312.47,1423.18 1312.47,1404.28 "/>
<polyline clip-path="url(#clip910)" style="stroke:#000000; stroke-linecap:round; stroke-linejoin:round; stroke-width:4; stroke-opacity:1; fill:none" points="1806.67,1423.18 1806.67,1404.28 "/>
<polyline clip-path="url(#clip910)" style="stroke:#000000; stroke-linecap:round; stroke-linejoin:round; stroke-width:4; stroke-opacity:1; fill:none" points="2300.86,1423.18 2300.86,1404.28 "/>
<path clip-path="url(#clip910)" d="M812.918 1481.64 L829.237 1481.64 L829.237 1485.58 L807.293 1485.58 L807.293 1481.64 Q809.955 1478.89 814.538 1474.26 Q819.145 1469.61 820.325 1468.27 Q822.571 1465.74 823.45 1464.01 Q824.353 1462.25 824.353 1460.56 Q824.353 1457.8 822.409 1456.07 Q820.488 1454.33 817.386 1454.33 Q815.187 1454.33 812.733 1455.09 Q810.302 1455.86 807.525 1457.41 L807.525 1452.69 Q810.349 1451.55 812.802 1450.97 Q815.256 1450.39 817.293 1450.39 Q822.663 1450.39 825.858 1453.08 Q829.052 1455.77 829.052 1460.26 Q829.052 1462.39 828.242 1464.31 Q827.455 1466.2 825.349 1468.8 Q824.77 1469.47 821.668 1472.69 Q818.566 1475.88 812.918 1481.64 Z" fill="#000000" fill-rule="nonzero" fill-opacity="1" /><path clip-path="url(#clip910)" d="M1315.47 1455.09 L1303.67 1473.54 L1315.47 1473.54 L1315.47 1455.09 M1314.25 1451.02 L1320.13 1451.02 L1320.13 1473.54 L1325.06 1473.54 L1325.06 1477.43 L1320.13 1477.43 L1320.13 1485.58 L1315.47 1485.58 L1315.47 1477.43 L1299.87 1477.43 L1299.87 1472.92 L1314.25 1451.02 Z" fill="#000000" fill-rule="nonzero" fill-opacity="1" /><path clip-path="url(#clip910)" d="M1807.07 1466.44 Q1803.92 1466.44 1802.07 1468.59 Q1800.24 1470.74 1800.24 1474.49 Q1800.24 1478.22 1802.07 1480.39 Q1803.92 1482.55 1807.07 1482.55 Q1810.22 1482.55 1812.05 1480.39 Q1813.9 1478.22 1813.9 1474.49 Q1813.9 1470.74 1812.05 1468.59 Q1810.22 1466.44 1807.07 1466.44 M1816.35 1451.78 L1816.35 1456.04 Q1814.59 1455.21 1812.79 1454.77 Q1811.01 1454.33 1809.25 1454.33 Q1804.62 1454.33 1802.16 1457.45 Q1799.73 1460.58 1799.38 1466.9 Q1800.75 1464.89 1802.81 1463.82 Q1804.87 1462.73 1807.35 1462.73 Q1812.56 1462.73 1815.57 1465.9 Q1818.6 1469.05 1818.6 1474.49 Q1818.6 1479.82 1815.45 1483.03 Q1812.3 1486.25 1807.07 1486.25 Q1801.07 1486.25 1797.9 1481.67 Q1794.73 1477.06 1794.73 1468.33 Q1794.73 1460.14 1798.62 1455.28 Q1802.51 1450.39 1809.06 1450.39 Q1810.82 1450.39 1812.6 1450.74 Q1814.41 1451.09 1816.35 1451.78 Z" fill="#000000" fill-rule="nonzero" fill-opacity="1" /><path clip-path="url(#clip910)" d="M2300.86 1469.17 Q2297.53 1469.17 2295.61 1470.95 Q2293.71 1472.73 2293.71 1475.86 Q2293.71 1478.98 2295.61 1480.77 Q2297.53 1482.55 2300.86 1482.55 Q2304.2 1482.55 2306.12 1480.77 Q2308.04 1478.96 2308.04 1475.86 Q2308.04 1472.73 2306.12 1470.95 Q2304.22 1469.17 2300.86 1469.17 M2296.19 1467.18 Q2293.18 1466.44 2291.49 1464.38 Q2289.82 1462.32 2289.82 1459.35 Q2289.82 1455.21 2292.76 1452.8 Q2295.73 1450.39 2300.86 1450.39 Q2306.03 1450.39 2308.97 1452.8 Q2311.91 1455.21 2311.91 1459.35 Q2311.91 1462.32 2310.22 1464.38 Q2308.55 1466.44 2305.56 1467.18 Q2308.94 1467.96 2310.82 1470.26 Q2312.72 1472.55 2312.72 1475.86 Q2312.72 1480.88 2309.64 1483.57 Q2306.58 1486.25 2300.86 1486.25 Q2295.15 1486.25 2292.07 1483.57 Q2289.01 1480.88 2289.01 1475.86 Q2289.01 1472.55 2290.91 1470.26 Q2292.81 1467.96 2296.19 1467.18 M2294.48 1459.79 Q2294.48 1462.48 2296.14 1463.98 Q2297.83 1465.49 2300.86 1465.49 Q2303.87 1465.49 2305.56 1463.98 Q2307.28 1462.48 2307.28 1459.79 Q2307.28 1457.11 2305.56 1455.6 Q2303.87 1454.1 2300.86 1454.1 Q2297.83 1454.1 2296.14 1455.6 Q2294.48 1457.11 2294.48 1459.79 Z" fill="#000000" fill-rule="nonzero" fill-opacity="1" /><path clip-path="url(#clip910)" d="M1234.46 1525.81 L1234.46 1562.76 L1242.23 1562.76 Q1252.06 1562.76 1256.61 1558.3 Q1261.2 1553.85 1261.2 1544.24 Q1261.2 1534.69 1256.61 1530.26 Q1252.06 1525.81 1242.23 1525.81 L1234.46 1525.81 M1228.03 1520.52 L1241.24 1520.52 Q1255.05 1520.52 1261.52 1526.28 Q1267.98 1532.01 1267.98 1544.24 Q1267.98 1556.52 1261.48 1562.28 Q1254.99 1568.04 1241.24 1568.04 L1228.03 1568.04 L1228.03 1520.52 Z" fill="#000000" fill-rule="nonzero" fill-opacity="1" /><path clip-path="url(#clip910)" d="M1277.97 1532.4 L1283.83 1532.4 L1283.83 1568.04 L1277.97 1568.04 L1277.97 1532.4 M1277.97 1518.52 L1283.83 1518.52 L1283.83 1525.93 L1277.97 1525.93 L1277.97 1518.52 Z" fill="#000000" fill-rule="nonzero" fill-opacity="1" /><path clip-path="url(#clip910)" d="M1318.81 1533.45 L1318.81 1538.98 Q1316.32 1537.71 1313.65 1537.07 Q1310.98 1536.44 1308.11 1536.44 Q1303.75 1536.44 1301.56 1537.77 Q1299.39 1539.11 1299.39 1541.79 Q1299.39 1543.82 1300.95 1545 Q1302.51 1546.15 1307.22 1547.2 L1309.23 1547.64 Q1315.46 1548.98 1318.07 1551.43 Q1320.72 1553.85 1320.72 1558.21 Q1320.72 1563.17 1316.77 1566.07 Q1312.85 1568.97 1305.98 1568.97 Q1303.12 1568.97 1300 1568.39 Q1296.91 1567.85 1293.47 1566.74 L1293.47 1560.69 Q1296.72 1562.38 1299.87 1563.24 Q1303.02 1564.07 1306.11 1564.07 Q1310.24 1564.07 1312.47 1562.66 Q1314.7 1561.23 1314.7 1558.65 Q1314.7 1556.27 1313.08 1554.99 Q1311.49 1553.72 1306.04 1552.54 L1304.01 1552.07 Q1298.56 1550.92 1296.14 1548.56 Q1293.73 1546.18 1293.73 1542.04 Q1293.73 1537.01 1297.29 1534.27 Q1300.86 1531.54 1307.41 1531.54 Q1310.66 1531.54 1313.52 1532.01 Q1316.39 1532.49 1318.81 1533.45 Z" fill="#000000" fill-rule="nonzero" fill-opacity="1" /><path clip-path="url(#clip910)" d="M1355.7 1533.76 L1355.7 1539.24 Q1353.21 1537.87 1350.7 1537.2 Q1348.22 1536.5 1345.67 1536.5 Q1339.97 1536.5 1336.82 1540.13 Q1333.67 1543.73 1333.67 1550.25 Q1333.67 1556.78 1336.82 1560.4 Q1339.97 1564 1345.67 1564 Q1348.22 1564 1350.7 1563.33 Q1353.21 1562.63 1355.7 1561.26 L1355.7 1566.68 Q1353.25 1567.82 1350.6 1568.39 Q1347.99 1568.97 1345.03 1568.97 Q1336.98 1568.97 1332.24 1563.91 Q1327.5 1558.85 1327.5 1550.25 Q1327.5 1541.53 1332.27 1536.53 Q1337.08 1531.54 1345.42 1531.54 Q1348.12 1531.54 1350.7 1532.11 Q1353.28 1532.65 1355.7 1533.76 Z" fill="#000000" fill-rule="nonzero" fill-opacity="1" /><path clip-path="url(#clip910)" d="M1386.86 1520.52 L1393.29 1520.52 L1393.29 1568.04 L1386.86 1568.04 L1386.86 1520.52 Z" fill="#000000" fill-rule="nonzero" fill-opacity="1" /><path clip-path="url(#clip910)" d="M1435.46 1546.53 L1435.46 1568.04 L1429.6 1568.04 L1429.6 1546.72 Q1429.6 1541.66 1427.63 1539.14 Q1425.65 1536.63 1421.71 1536.63 Q1416.97 1536.63 1414.23 1539.65 Q1411.49 1542.68 1411.49 1547.9 L1411.49 1568.04 L1405.6 1568.04 L1405.6 1532.4 L1411.49 1532.4 L1411.49 1537.93 Q1413.59 1534.72 1416.42 1533.13 Q1419.29 1531.54 1423.01 1531.54 Q1429.16 1531.54 1432.31 1535.36 Q1435.46 1539.14 1435.46 1546.53 Z" fill="#000000" fill-rule="nonzero" fill-opacity="1" /><path clip-path="url(#clip910)" d="M1470.6 1537.81 L1470.6 1518.52 L1476.45 1518.52 L1476.45 1568.04 L1470.6 1568.04 L1470.6 1562.7 Q1468.75 1565.88 1465.92 1567.44 Q1463.12 1568.97 1459.17 1568.97 Q1452.71 1568.97 1448.64 1563.81 Q1444.59 1558.65 1444.59 1550.25 Q1444.59 1541.85 1448.64 1536.69 Q1452.71 1531.54 1459.17 1531.54 Q1463.12 1531.54 1465.92 1533.1 Q1468.75 1534.62 1470.6 1537.81 M1450.64 1550.25 Q1450.64 1556.71 1453.28 1560.4 Q1455.96 1564.07 1460.6 1564.07 Q1465.25 1564.07 1467.92 1560.4 Q1470.6 1556.71 1470.6 1550.25 Q1470.6 1543.79 1467.92 1540.13 Q1465.25 1536.44 1460.6 1536.44 Q1455.96 1536.44 1453.28 1540.13 Q1450.64 1543.79 1450.64 1550.25 Z" fill="#000000" fill-rule="nonzero" fill-opacity="1" /><path clip-path="url(#clip910)" d="M1519.01 1548.76 L1519.01 1551.62 L1492.08 1551.62 Q1492.46 1557.67 1495.71 1560.85 Q1498.99 1564 1504.81 1564 Q1508.19 1564 1511.34 1563.17 Q1514.52 1562.35 1517.64 1560.69 L1517.64 1566.23 Q1514.49 1567.57 1511.18 1568.27 Q1507.87 1568.97 1504.46 1568.97 Q1495.93 1568.97 1490.94 1564 Q1485.97 1559.04 1485.97 1550.57 Q1485.97 1541.82 1490.68 1536.69 Q1495.42 1531.54 1503.44 1531.54 Q1510.64 1531.54 1514.81 1536.18 Q1519.01 1540.8 1519.01 1548.76 M1513.15 1547.04 Q1513.09 1542.23 1510.45 1539.37 Q1507.84 1536.5 1503.51 1536.5 Q1498.61 1536.5 1495.65 1539.27 Q1492.72 1542.04 1492.27 1547.07 L1513.15 1547.04 Z" fill="#000000" fill-rule="nonzero" fill-opacity="1" /><path clip-path="url(#clip910)" d="M1557.11 1532.4 L1544.22 1549.74 L1557.78 1568.04 L1550.87 1568.04 L1540.49 1554.04 L1530.12 1568.04 L1523.21 1568.04 L1537.05 1549.39 L1524.39 1532.4 L1531.29 1532.4 L1540.75 1545.1 L1550.2 1532.4 L1557.11 1532.4 Z" fill="#000000" fill-rule="nonzero" fill-opacity="1" /><path clip-path="url(#clip910)" d="M1586.23 1518.52 L1599.73 1518.52 L1599.73 1523.07 L1592.09 1523.07 L1592.09 1572.09 L1599.73 1572.09 L1599.73 1576.64 L1586.23 1576.64 L1586.23 1518.52 Z" fill="#000000" fill-rule="nonzero" fill-opacity="1" /><path clip-path="url(#clip910)" d="M1612.2 1532.4 L1618.06 1532.4 L1618.06 1568.04 L1612.2 1568.04 L1612.2 1532.4 M1612.2 1518.52 L1618.06 1518.52 L1618.06 1525.93 L1612.2 1525.93 L1612.2 1518.52 Z" fill="#000000" fill-rule="nonzero" fill-opacity="1" /><path clip-path="url(#clip910)" d="M1644 1518.52 L1644 1576.64 L1630.5 1576.64 L1630.5 1572.09 L1638.11 1572.09 L1638.11 1523.07 L1630.5 1523.07 L1630.5 1518.52 L1644 1518.52 Z" fill="#000000" fill-rule="nonzero" fill-opacity="1" /><polyline clip-path="url(#clip910)" style="stroke:#000000; stroke-linecap:round; stroke-linejoin:round; stroke-width:4; stroke-opacity:1; fill:none" points="519.274,1423.18 519.274,47.2441 "/>
<polyline clip-path="url(#clip910)" style="stroke:#000000; stroke-linecap:round; stroke-linejoin:round; stroke-width:4; stroke-opacity:1; fill:none" points="519.274,1196.8 538.172,1196.8 "/>
<polyline clip-path="url(#clip910)" style="stroke:#000000; stroke-linecap:round; stroke-linejoin:round; stroke-width:4; stroke-opacity:1; fill:none" points="519.274,948.202 538.172,948.202 "/>
<polyline clip-path="url(#clip910)" style="stroke:#000000; stroke-linecap:round; stroke-linejoin:round; stroke-width:4; stroke-opacity:1; fill:none" points="519.274,699.607 538.172,699.607 "/>
<polyline clip-path="url(#clip910)" style="stroke:#000000; stroke-linecap:round; stroke-linejoin:round; stroke-width:4; stroke-opacity:1; fill:none" points="519.274,451.011 538.172,451.011 "/>
<polyline clip-path="url(#clip910)" style="stroke:#000000; stroke-linecap:round; stroke-linejoin:round; stroke-width:4; stroke-opacity:1; fill:none" points="519.274,202.415 538.172,202.415 "/>
<path clip-path="url(#clip910)" d="M115.718 1185.97 L134.075 1185.97 L134.075 1189.9 L120.001 1189.9 L120.001 1198.37 Q121.019 1198.03 122.038 1197.86 Q123.056 1197.68 124.075 1197.68 Q129.862 1197.68 133.242 1200.85 Q136.621 1204.02 136.621 1209.44 Q136.621 1215.02 133.149 1218.12 Q129.677 1221.2 123.357 1221.2 Q121.181 1221.2 118.913 1220.83 Q116.668 1220.46 114.26 1219.72 L114.26 1215.02 Q116.343 1216.15 118.566 1216.71 Q120.788 1217.26 123.265 1217.26 Q127.269 1217.26 129.607 1215.16 Q131.945 1213.05 131.945 1209.44 Q131.945 1205.83 129.607 1203.72 Q127.269 1201.61 123.265 1201.61 Q121.39 1201.61 119.515 1202.03 Q117.663 1202.45 115.718 1203.33 L115.718 1185.97 Z" fill="#000000" fill-rule="nonzero" fill-opacity="1" /><path clip-path="url(#clip910)" d="M145.834 1214.65 L150.718 1214.65 L150.718 1220.53 L145.834 1220.53 L145.834 1214.65 Z" fill="#000000" fill-rule="nonzero" fill-opacity="1" /><path clip-path="url(#clip910)" d="M161.042 1219.81 L161.042 1215.55 Q162.802 1216.38 164.607 1216.82 Q166.413 1217.26 168.149 1217.26 Q172.778 1217.26 175.209 1214.16 Q177.663 1211.04 178.01 1204.69 Q176.667 1206.68 174.607 1207.75 Q172.547 1208.81 170.047 1208.81 Q164.862 1208.81 161.829 1205.69 Q158.82 1202.54 158.82 1197.1 Q158.82 1191.78 161.968 1188.56 Q165.116 1185.34 170.348 1185.34 Q176.343 1185.34 179.491 1189.95 Q182.663 1194.53 182.663 1203.28 Q182.663 1211.45 178.774 1216.34 Q174.908 1221.2 168.357 1221.2 Q166.598 1221.2 164.792 1220.85 Q162.987 1220.5 161.042 1219.81 M170.348 1205.16 Q173.496 1205.16 175.325 1203 Q177.176 1200.85 177.176 1197.1 Q177.176 1193.37 175.325 1191.22 Q173.496 1189.04 170.348 1189.04 Q167.2 1189.04 165.348 1191.22 Q163.519 1193.37 163.519 1197.1 Q163.519 1200.85 165.348 1203 Q167.2 1205.16 170.348 1205.16 Z" fill="#000000" fill-rule="nonzero" fill-opacity="1" /><path clip-path="url(#clip910)" d="M191.204 1219.81 L191.204 1215.55 Q192.963 1216.38 194.769 1216.82 Q196.575 1217.26 198.311 1217.26 Q202.94 1217.26 205.371 1214.16 Q207.824 1211.04 208.172 1204.69 Q206.829 1206.68 204.769 1207.75 Q202.709 1208.81 200.209 1208.81 Q195.024 1208.81 191.991 1205.69 Q188.982 1202.54 188.982 1197.1 Q188.982 1191.78 192.13 1188.56 Q195.278 1185.34 200.51 1185.34 Q206.505 1185.34 209.653 1189.95 Q212.824 1194.53 212.824 1203.28 Q212.824 1211.45 208.936 1216.34 Q205.07 1221.2 198.519 1221.2 Q196.76 1221.2 194.954 1220.85 Q193.149 1220.5 191.204 1219.81 M200.51 1205.16 Q203.658 1205.16 205.487 1203 Q207.338 1200.85 207.338 1197.1 Q207.338 1193.37 205.487 1191.22 Q203.658 1189.04 200.51 1189.04 Q197.362 1189.04 195.51 1191.22 Q193.681 1193.37 193.681 1197.1 Q193.681 1200.85 195.51 1203 Q197.362 1205.16 200.51 1205.16 Z" fill="#000000" fill-rule="nonzero" fill-opacity="1" /><path clip-path="url(#clip910)" d="M221.366 1219.81 L221.366 1215.55 Q223.125 1216.38 224.931 1216.82 Q226.736 1217.26 228.473 1217.26 Q233.102 1217.26 235.533 1214.16 Q237.986 1211.04 238.334 1204.69 Q236.991 1206.68 234.931 1207.75 Q232.871 1208.81 230.371 1208.81 Q225.185 1208.81 222.153 1205.69 Q219.144 1202.54 219.144 1197.1 Q219.144 1191.78 222.292 1188.56 Q225.44 1185.34 230.672 1185.34 Q236.667 1185.34 239.815 1189.95 Q242.986 1194.53 242.986 1203.28 Q242.986 1211.45 239.097 1216.34 Q235.232 1221.2 228.681 1221.2 Q226.922 1221.2 225.116 1220.85 Q223.31 1220.5 221.366 1219.81 M230.672 1205.16 Q233.82 1205.16 235.648 1203 Q237.5 1200.85 237.5 1197.1 Q237.5 1193.37 235.648 1191.22 Q233.82 1189.04 230.672 1189.04 Q227.523 1189.04 225.672 1191.22 Q223.843 1193.37 223.843 1197.1 Q223.843 1200.85 225.672 1203 Q227.523 1205.16 230.672 1205.16 Z" fill="#000000" fill-rule="nonzero" fill-opacity="1" /><path clip-path="url(#clip910)" d="M251.528 1219.81 L251.528 1215.55 Q253.287 1216.38 255.093 1216.82 Q256.898 1217.26 258.634 1217.26 Q263.264 1217.26 265.695 1214.16 Q268.148 1211.04 268.495 1204.69 Q267.153 1206.68 265.093 1207.75 Q263.033 1208.81 260.533 1208.81 Q255.347 1208.81 252.315 1205.69 Q249.306 1202.54 249.306 1197.1 Q249.306 1191.78 252.454 1188.56 Q255.602 1185.34 260.833 1185.34 Q266.829 1185.34 269.977 1189.95 Q273.148 1194.53 273.148 1203.28 Q273.148 1211.45 269.259 1216.34 Q265.394 1221.2 258.843 1221.2 Q257.083 1221.2 255.278 1220.85 Q253.472 1220.5 251.528 1219.81 M260.833 1205.16 Q263.982 1205.16 265.81 1203 Q267.662 1200.85 267.662 1197.1 Q267.662 1193.37 265.81 1191.22 Q263.982 1189.04 260.833 1189.04 Q257.685 1189.04 255.833 1191.22 Q254.005 1193.37 254.005 1197.1 Q254.005 1200.85 255.833 1203 Q257.685 1205.16 260.833 1205.16 Z" fill="#000000" fill-rule="nonzero" fill-opacity="1" /><path clip-path="url(#clip910)" d="M281.597 1185.97 L299.954 1185.97 L299.954 1189.9 L285.88 1189.9 L285.88 1198.37 Q286.898 1198.03 287.917 1197.86 Q288.935 1197.68 289.954 1197.68 Q295.741 1197.68 299.12 1200.85 Q302.5 1204.02 302.5 1209.44 Q302.5 1215.02 299.028 1218.12 Q295.555 1221.2 289.236 1221.2 Q287.06 1221.2 284.792 1220.83 Q282.546 1220.46 280.139 1219.72 L280.139 1215.02 Q282.222 1216.15 284.444 1216.71 Q286.667 1217.26 289.143 1217.26 Q293.148 1217.26 295.486 1215.16 Q297.824 1213.05 297.824 1209.44 Q297.824 1205.83 295.486 1203.72 Q293.148 1201.61 289.143 1201.61 Q287.268 1201.61 285.393 1202.03 Q283.542 1202.45 281.597 1203.33 L281.597 1185.97 Z" fill="#000000" fill-rule="nonzero" fill-opacity="1" /><path clip-path="url(#clip910)" d="M321.713 1189.04 Q318.102 1189.04 316.273 1192.61 Q314.467 1196.15 314.467 1203.28 Q314.467 1210.39 316.273 1213.95 Q318.102 1217.49 321.713 1217.49 Q325.347 1217.49 327.153 1213.95 Q328.981 1210.39 328.981 1203.28 Q328.981 1196.15 327.153 1192.61 Q325.347 1189.04 321.713 1189.04 M321.713 1185.34 Q327.523 1185.34 330.578 1189.95 Q333.657 1194.53 333.657 1203.28 Q333.657 1212.01 330.578 1216.61 Q327.523 1221.2 321.713 1221.2 Q315.903 1221.2 312.824 1216.61 Q309.768 1212.01 309.768 1203.28 Q309.768 1194.53 312.824 1189.95 Q315.903 1185.34 321.713 1185.34 Z" fill="#000000" fill-rule="nonzero" fill-opacity="1" /><path clip-path="url(#clip910)" d="M351.875 1189.04 Q348.264 1189.04 346.435 1192.61 Q344.629 1196.15 344.629 1203.28 Q344.629 1210.39 346.435 1213.95 Q348.264 1217.49 351.875 1217.49 Q355.509 1217.49 357.314 1213.95 Q359.143 1210.39 359.143 1203.28 Q359.143 1196.15 357.314 1192.61 Q355.509 1189.04 351.875 1189.04 M351.875 1185.34 Q357.685 1185.34 360.74 1189.95 Q363.819 1194.53 363.819 1203.28 Q363.819 1212.01 360.74 1216.61 Q357.685 1221.2 351.875 1221.2 Q346.064 1221.2 342.986 1216.61 Q339.93 1212.01 339.93 1203.28 Q339.93 1194.53 342.986 1189.95 Q346.064 1185.34 351.875 1185.34 Z" fill="#000000" fill-rule="nonzero" fill-opacity="1" /><path clip-path="url(#clip910)" d="M400.208 1195.06 L389.629 1205.69 L400.208 1216.27 L397.453 1219.07 L386.828 1208.44 L376.203 1219.07 L373.472 1216.27 L384.027 1205.69 L373.472 1195.06 L376.203 1192.26 L386.828 1202.89 L397.453 1192.26 L400.208 1195.06 Z" fill="#000000" fill-rule="nonzero" fill-opacity="1" /><path clip-path="url(#clip910)" d="M412.569 1216.59 L420.208 1216.59 L420.208 1190.23 L411.897 1191.89 L411.897 1187.63 L420.161 1185.97 L424.837 1185.97 L424.837 1216.59 L432.476 1216.59 L432.476 1220.53 L412.569 1220.53 L412.569 1216.59 Z" fill="#000000" fill-rule="nonzero" fill-opacity="1" /><path clip-path="url(#clip910)" d="M451.92 1189.04 Q448.309 1189.04 446.481 1192.61 Q444.675 1196.15 444.675 1203.28 Q444.675 1210.39 446.481 1213.95 Q448.309 1217.49 451.92 1217.49 Q455.555 1217.49 457.36 1213.95 Q459.189 1210.39 459.189 1203.28 Q459.189 1196.15 457.36 1192.61 Q455.555 1189.04 451.92 1189.04 M451.92 1185.34 Q457.731 1185.34 460.786 1189.95 Q463.865 1194.53 463.865 1203.28 Q463.865 1212.01 460.786 1216.61 Q457.731 1221.2 451.92 1221.2 Q446.11 1221.2 443.032 1216.61 Q439.976 1212.01 439.976 1203.28 Q439.976 1194.53 443.032 1189.95 Q446.11 1185.34 451.92 1185.34 Z" fill="#000000" fill-rule="nonzero" fill-opacity="1" /><path clip-path="url(#clip910)" d="M473.57 1167.54 Q470.636 1167.54 469.15 1170.43 Q467.683 1173.31 467.683 1179.1 Q467.683 1184.88 469.15 1187.77 Q470.636 1190.65 473.57 1190.65 Q476.522 1190.65 477.989 1187.77 Q479.475 1184.88 479.475 1179.1 Q479.475 1173.31 477.989 1170.43 Q476.522 1167.54 473.57 1167.54 M473.57 1164.53 Q478.29 1164.53 480.773 1168.27 Q483.274 1171.99 483.274 1179.1 Q483.274 1186.19 480.773 1189.94 Q478.29 1193.66 473.57 1193.66 Q468.849 1193.66 466.347 1189.94 Q463.865 1186.19 463.865 1179.1 Q463.865 1171.99 466.347 1168.27 Q468.849 1164.53 473.57 1164.53 Z" fill="#000000" fill-rule="nonzero" fill-opacity="1" /><path clip-path="url(#clip910)" d="M115.718 937.37 L134.075 937.37 L134.075 941.305 L120.001 941.305 L120.001 949.777 Q121.019 949.43 122.038 949.268 Q123.056 949.083 124.075 949.083 Q129.862 949.083 133.242 952.254 Q136.621 955.426 136.621 960.842 Q136.621 966.421 133.149 969.523 Q129.677 972.601 123.357 972.601 Q121.181 972.601 118.913 972.231 Q116.668 971.861 114.26 971.12 L114.26 966.421 Q116.343 967.555 118.566 968.111 Q120.788 968.666 123.265 968.666 Q127.269 968.666 129.607 966.56 Q131.945 964.453 131.945 960.842 Q131.945 957.231 129.607 955.125 Q127.269 953.018 123.265 953.018 Q121.39 953.018 119.515 953.435 Q117.663 953.851 115.718 954.731 L115.718 937.37 Z" fill="#000000" fill-rule="nonzero" fill-opacity="1" /><path clip-path="url(#clip910)" d="M145.834 966.051 L150.718 966.051 L150.718 971.93 L145.834 971.93 L145.834 966.051 Z" fill="#000000" fill-rule="nonzero" fill-opacity="1" /><path clip-path="url(#clip910)" d="M161.042 971.213 L161.042 966.953 Q162.802 967.787 164.607 968.226 Q166.413 968.666 168.149 968.666 Q172.778 968.666 175.209 965.564 Q177.663 962.439 178.01 956.097 Q176.667 958.088 174.607 959.152 Q172.547 960.217 170.047 960.217 Q164.862 960.217 161.829 957.092 Q158.82 953.944 158.82 948.504 Q158.82 943.18 161.968 939.963 Q165.116 936.745 170.348 936.745 Q176.343 936.745 179.491 941.352 Q182.663 945.935 182.663 954.685 Q182.663 962.856 178.774 967.74 Q174.908 972.601 168.357 972.601 Q166.598 972.601 164.792 972.254 Q162.987 971.907 161.042 971.213 M170.348 956.56 Q173.496 956.56 175.325 954.407 Q177.176 952.254 177.176 948.504 Q177.176 944.777 175.325 942.625 Q173.496 940.449 170.348 940.449 Q167.2 940.449 165.348 942.625 Q163.519 944.777 163.519 948.504 Q163.519 952.254 165.348 954.407 Q167.2 956.56 170.348 956.56 Z" fill="#000000" fill-rule="nonzero" fill-opacity="1" /><path clip-path="url(#clip910)" d="M191.204 971.213 L191.204 966.953 Q192.963 967.787 194.769 968.226 Q196.575 968.666 198.311 968.666 Q202.94 968.666 205.371 965.564 Q207.824 962.439 208.172 956.097 Q206.829 958.088 204.769 959.152 Q202.709 960.217 200.209 960.217 Q195.024 960.217 191.991 957.092 Q188.982 953.944 188.982 948.504 Q188.982 943.18 192.13 939.963 Q195.278 936.745 200.51 936.745 Q206.505 936.745 209.653 941.352 Q212.824 945.935 212.824 954.685 Q212.824 962.856 208.936 967.74 Q205.07 972.601 198.519 972.601 Q196.76 972.601 194.954 972.254 Q193.149 971.907 191.204 971.213 M200.51 956.56 Q203.658 956.56 205.487 954.407 Q207.338 952.254 207.338 948.504 Q207.338 944.777 205.487 942.625 Q203.658 940.449 200.51 940.449 Q197.362 940.449 195.51 942.625 Q193.681 944.777 193.681 948.504 Q193.681 952.254 195.51 954.407 Q197.362 956.56 200.51 956.56 Z" fill="#000000" fill-rule="nonzero" fill-opacity="1" /><path clip-path="url(#clip910)" d="M221.366 971.213 L221.366 966.953 Q223.125 967.787 224.931 968.226 Q226.736 968.666 228.473 968.666 Q233.102 968.666 235.533 965.564 Q237.986 962.439 238.334 956.097 Q236.991 958.088 234.931 959.152 Q232.871 960.217 230.371 960.217 Q225.185 960.217 222.153 957.092 Q219.144 953.944 219.144 948.504 Q219.144 943.18 222.292 939.963 Q225.44 936.745 230.672 936.745 Q236.667 936.745 239.815 941.352 Q242.986 945.935 242.986 954.685 Q242.986 962.856 239.097 967.74 Q235.232 972.601 228.681 972.601 Q226.922 972.601 225.116 972.254 Q223.31 971.907 221.366 971.213 M230.672 956.56 Q233.82 956.56 235.648 954.407 Q237.5 952.254 237.5 948.504 Q237.5 944.777 235.648 942.625 Q233.82 940.449 230.672 940.449 Q227.523 940.449 225.672 942.625 Q223.843 944.777 223.843 948.504 Q223.843 952.254 225.672 954.407 Q227.523 956.56 230.672 956.56 Z" fill="#000000" fill-rule="nonzero" fill-opacity="1" /><path clip-path="url(#clip910)" d="M251.528 971.213 L251.528 966.953 Q253.287 967.787 255.093 968.226 Q256.898 968.666 258.634 968.666 Q263.264 968.666 265.695 965.564 Q268.148 962.439 268.495 956.097 Q267.153 958.088 265.093 959.152 Q263.033 960.217 260.533 960.217 Q255.347 960.217 252.315 957.092 Q249.306 953.944 249.306 948.504 Q249.306 943.18 252.454 939.963 Q255.602 936.745 260.833 936.745 Q266.829 936.745 269.977 941.352 Q273.148 945.935 273.148 954.685 Q273.148 962.856 269.259 967.74 Q265.394 972.601 258.843 972.601 Q257.083 972.601 255.278 972.254 Q253.472 971.907 251.528 971.213 M260.833 956.56 Q263.982 956.56 265.81 954.407 Q267.662 952.254 267.662 948.504 Q267.662 944.777 265.81 942.625 Q263.982 940.449 260.833 940.449 Q257.685 940.449 255.833 942.625 Q254.005 944.777 254.005 948.504 Q254.005 952.254 255.833 954.407 Q257.685 956.56 260.833 956.56 Z" fill="#000000" fill-rule="nonzero" fill-opacity="1" /><path clip-path="url(#clip910)" d="M281.597 937.37 L299.954 937.37 L299.954 941.305 L285.88 941.305 L285.88 949.777 Q286.898 949.43 287.917 949.268 Q288.935 949.083 289.954 949.083 Q295.741 949.083 299.12 952.254 Q302.5 955.426 302.5 960.842 Q302.5 966.421 299.028 969.523 Q295.555 972.601 289.236 972.601 Q287.06 972.601 284.792 972.231 Q282.546 971.861 280.139 971.12 L280.139 966.421 Q282.222 967.555 284.444 968.111 Q286.667 968.666 289.143 968.666 Q293.148 968.666 295.486 966.56 Q297.824 964.453 297.824 960.842 Q297.824 957.231 295.486 955.125 Q293.148 953.018 289.143 953.018 Q287.268 953.018 285.393 953.435 Q283.542 953.851 281.597 954.731 L281.597 937.37 Z" fill="#000000" fill-rule="nonzero" fill-opacity="1" /><path clip-path="url(#clip910)" d="M315.741 967.995 L332.06 967.995 L332.06 971.93 L310.116 971.93 L310.116 967.995 Q312.778 965.24 317.361 960.611 Q321.967 955.958 323.148 954.615 Q325.393 952.092 326.273 950.356 Q327.176 948.597 327.176 946.907 Q327.176 944.152 325.231 942.416 Q323.31 940.68 320.208 940.68 Q318.009 940.68 315.555 941.444 Q313.125 942.208 310.347 943.759 L310.347 939.037 Q313.171 937.903 315.625 937.324 Q318.079 936.745 320.116 936.745 Q325.486 936.745 328.68 939.43 Q331.875 942.115 331.875 946.606 Q331.875 948.736 331.065 950.657 Q330.278 952.555 328.171 955.148 Q327.592 955.819 324.491 959.037 Q321.389 962.231 315.741 967.995 Z" fill="#000000" fill-rule="nonzero" fill-opacity="1" /><path clip-path="url(#clip910)" d="M351.875 940.449 Q348.264 940.449 346.435 944.014 Q344.629 947.555 344.629 954.685 Q344.629 961.791 346.435 965.356 Q348.264 968.898 351.875 968.898 Q355.509 968.898 357.314 965.356 Q359.143 961.791 359.143 954.685 Q359.143 947.555 357.314 944.014 Q355.509 940.449 351.875 940.449 M351.875 936.745 Q357.685 936.745 360.74 941.352 Q363.819 945.935 363.819 954.685 Q363.819 963.412 360.74 968.018 Q357.685 972.601 351.875 972.601 Q346.064 972.601 342.986 968.018 Q339.93 963.412 339.93 954.685 Q339.93 945.935 342.986 941.352 Q346.064 936.745 351.875 936.745 Z" fill="#000000" fill-rule="nonzero" fill-opacity="1" /><path clip-path="url(#clip910)" d="M400.208 946.467 L389.629 957.092 L400.208 967.671 L397.453 970.472 L386.828 959.847 L376.203 970.472 L373.472 967.671 L384.027 957.092 L373.472 946.467 L376.203 943.666 L386.828 954.291 L397.453 943.666 L400.208 946.467 Z" fill="#000000" fill-rule="nonzero" fill-opacity="1" /><path clip-path="url(#clip910)" d="M412.569 967.995 L420.208 967.995 L420.208 941.629 L411.897 943.296 L411.897 939.037 L420.161 937.37 L424.837 937.37 L424.837 967.995 L432.476 967.995 L432.476 971.93 L412.569 971.93 L412.569 967.995 Z" fill="#000000" fill-rule="nonzero" fill-opacity="1" /><path clip-path="url(#clip910)" d="M451.92 940.449 Q448.309 940.449 446.481 944.014 Q444.675 947.555 444.675 954.685 Q444.675 961.791 446.481 965.356 Q448.309 968.898 451.92 968.898 Q455.555 968.898 457.36 965.356 Q459.189 961.791 459.189 954.685 Q459.189 947.555 457.36 944.014 Q455.555 940.449 451.92 940.449 M451.92 936.745 Q457.731 936.745 460.786 941.352 Q463.865 945.935 463.865 954.685 Q463.865 963.412 460.786 968.018 Q457.731 972.601 451.92 972.601 Q446.11 972.601 443.032 968.018 Q439.976 963.412 439.976 954.685 Q439.976 945.935 443.032 941.352 Q446.11 936.745 451.92 936.745 Z" fill="#000000" fill-rule="nonzero" fill-opacity="1" /><path clip-path="url(#clip910)" d="M473.57 918.941 Q470.636 918.941 469.15 921.838 Q467.683 924.715 467.683 930.508 Q467.683 936.282 469.15 939.178 Q470.636 942.056 473.57 942.056 Q476.522 942.056 477.989 939.178 Q479.475 936.282 479.475 930.508 Q479.475 924.715 477.989 921.838 Q476.522 918.941 473.57 918.941 M473.57 915.932 Q478.29 915.932 480.773 919.675 Q483.274 923.399 483.274 930.508 Q483.274 937.598 480.773 941.341 Q478.29 945.065 473.57 945.065 Q468.849 945.065 466.347 941.341 Q463.865 937.598 463.865 930.508 Q463.865 923.399 466.347 919.675 Q468.849 915.932 473.57 915.932 Z" fill="#000000" fill-rule="nonzero" fill-opacity="1" /><path clip-path="url(#clip910)" d="M115.718 688.774 L134.075 688.774 L134.075 692.709 L120.001 692.709 L120.001 701.182 Q121.019 700.834 122.038 700.672 Q123.056 700.487 124.075 700.487 Q129.862 700.487 133.242 703.658 Q136.621 706.83 136.621 712.246 Q136.621 717.825 133.149 720.927 Q129.677 724.006 123.357 724.006 Q121.181 724.006 118.913 723.635 Q116.668 723.265 114.26 722.524 L114.26 717.825 Q116.343 718.959 118.566 719.515 Q120.788 720.07 123.265 720.07 Q127.269 720.07 129.607 717.964 Q131.945 715.857 131.945 712.246 Q131.945 708.635 129.607 706.529 Q127.269 704.422 123.265 704.422 Q121.39 704.422 119.515 704.839 Q117.663 705.256 115.718 706.135 L115.718 688.774 Z" fill="#000000" fill-rule="nonzero" fill-opacity="1" /><path clip-path="url(#clip910)" d="M145.834 717.455 L150.718 717.455 L150.718 723.334 L145.834 723.334 L145.834 717.455 Z" fill="#000000" fill-rule="nonzero" fill-opacity="1" /><path clip-path="url(#clip910)" d="M161.042 722.617 L161.042 718.357 Q162.802 719.191 164.607 719.631 Q166.413 720.07 168.149 720.07 Q172.778 720.07 175.209 716.969 Q177.663 713.844 178.01 707.501 Q176.667 709.492 174.607 710.557 Q172.547 711.621 170.047 711.621 Q164.862 711.621 161.829 708.496 Q158.82 705.348 158.82 699.909 Q158.82 694.584 161.968 691.367 Q165.116 688.149 170.348 688.149 Q176.343 688.149 179.491 692.756 Q182.663 697.339 182.663 706.089 Q182.663 714.26 178.774 719.145 Q174.908 724.006 168.357 724.006 Q166.598 724.006 164.792 723.658 Q162.987 723.311 161.042 722.617 M170.348 707.964 Q173.496 707.964 175.325 705.811 Q177.176 703.658 177.176 699.909 Q177.176 696.182 175.325 694.029 Q173.496 691.853 170.348 691.853 Q167.2 691.853 165.348 694.029 Q163.519 696.182 163.519 699.909 Q163.519 703.658 165.348 705.811 Q167.2 707.964 170.348 707.964 Z" fill="#000000" fill-rule="nonzero" fill-opacity="1" /><path clip-path="url(#clip910)" d="M191.204 722.617 L191.204 718.357 Q192.963 719.191 194.769 719.631 Q196.575 720.07 198.311 720.07 Q202.94 720.07 205.371 716.969 Q207.824 713.844 208.172 707.501 Q206.829 709.492 204.769 710.557 Q202.709 711.621 200.209 711.621 Q195.024 711.621 191.991 708.496 Q188.982 705.348 188.982 699.909 Q188.982 694.584 192.13 691.367 Q195.278 688.149 200.51 688.149 Q206.505 688.149 209.653 692.756 Q212.824 697.339 212.824 706.089 Q212.824 714.26 208.936 719.145 Q205.07 724.006 198.519 724.006 Q196.76 724.006 194.954 723.658 Q193.149 723.311 191.204 722.617 M200.51 707.964 Q203.658 707.964 205.487 705.811 Q207.338 703.658 207.338 699.909 Q207.338 696.182 205.487 694.029 Q203.658 691.853 200.51 691.853 Q197.362 691.853 195.51 694.029 Q193.681 696.182 193.681 699.909 Q193.681 703.658 195.51 705.811 Q197.362 707.964 200.51 707.964 Z" fill="#000000" fill-rule="nonzero" fill-opacity="1" /><path clip-path="url(#clip910)" d="M221.366 722.617 L221.366 718.357 Q223.125 719.191 224.931 719.631 Q226.736 720.07 228.473 720.07 Q233.102 720.07 235.533 716.969 Q237.986 713.844 238.334 707.501 Q236.991 709.492 234.931 710.557 Q232.871 711.621 230.371 711.621 Q225.185 711.621 222.153 708.496 Q219.144 705.348 219.144 699.909 Q219.144 694.584 222.292 691.367 Q225.44 688.149 230.672 688.149 Q236.667 688.149 239.815 692.756 Q242.986 697.339 242.986 706.089 Q242.986 714.26 239.097 719.145 Q235.232 724.006 228.681 724.006 Q226.922 724.006 225.116 723.658 Q223.31 723.311 221.366 722.617 M230.672 707.964 Q233.82 707.964 235.648 705.811 Q237.5 703.658 237.5 699.909 Q237.5 696.182 235.648 694.029 Q233.82 691.853 230.672 691.853 Q227.523 691.853 225.672 694.029 Q223.843 696.182 223.843 699.909 Q223.843 703.658 225.672 705.811 Q227.523 707.964 230.672 707.964 Z" fill="#000000" fill-rule="nonzero" fill-opacity="1" /><path clip-path="url(#clip910)" d="M251.528 722.617 L251.528 718.357 Q253.287 719.191 255.093 719.631 Q256.898 720.07 258.634 720.07 Q263.264 720.07 265.695 716.969 Q268.148 713.844 268.495 707.501 Q267.153 709.492 265.093 710.557 Q263.033 711.621 260.533 711.621 Q255.347 711.621 252.315 708.496 Q249.306 705.348 249.306 699.909 Q249.306 694.584 252.454 691.367 Q255.602 688.149 260.833 688.149 Q266.829 688.149 269.977 692.756 Q273.148 697.339 273.148 706.089 Q273.148 714.26 269.259 719.145 Q265.394 724.006 258.843 724.006 Q257.083 724.006 255.278 723.658 Q253.472 723.311 251.528 722.617 M260.833 707.964 Q263.982 707.964 265.81 705.811 Q267.662 703.658 267.662 699.909 Q267.662 696.182 265.81 694.029 Q263.982 691.853 260.833 691.853 Q257.685 691.853 255.833 694.029 Q254.005 696.182 254.005 699.909 Q254.005 703.658 255.833 705.811 Q257.685 707.964 260.833 707.964 Z" fill="#000000" fill-rule="nonzero" fill-opacity="1" /><path clip-path="url(#clip910)" d="M281.597 688.774 L299.954 688.774 L299.954 692.709 L285.88 692.709 L285.88 701.182 Q286.898 700.834 287.917 700.672 Q288.935 700.487 289.954 700.487 Q295.741 700.487 299.12 703.658 Q302.5 706.83 302.5 712.246 Q302.5 717.825 299.028 720.927 Q295.555 724.006 289.236 724.006 Q287.06 724.006 284.792 723.635 Q282.546 723.265 280.139 722.524 L280.139 717.825 Q282.222 718.959 284.444 719.515 Q286.667 720.07 289.143 720.07 Q293.148 720.07 295.486 717.964 Q297.824 715.857 297.824 712.246 Q297.824 708.635 295.486 706.529 Q293.148 704.422 289.143 704.422 Q287.268 704.422 285.393 704.839 Q283.542 705.256 281.597 706.135 L281.597 688.774 Z" fill="#000000" fill-rule="nonzero" fill-opacity="1" /><path clip-path="url(#clip910)" d="M324.56 692.848 L312.754 711.297 L324.56 711.297 L324.56 692.848 M323.333 688.774 L329.213 688.774 L329.213 711.297 L334.143 711.297 L334.143 715.186 L329.213 715.186 L329.213 723.334 L324.56 723.334 L324.56 715.186 L308.958 715.186 L308.958 710.672 L323.333 688.774 Z" fill="#000000" fill-rule="nonzero" fill-opacity="1" /><path clip-path="url(#clip910)" d="M351.875 691.853 Q348.264 691.853 346.435 695.418 Q344.629 698.959 344.629 706.089 Q344.629 713.195 346.435 716.76 Q348.264 720.302 351.875 720.302 Q355.509 720.302 357.314 716.76 Q359.143 713.195 359.143 706.089 Q359.143 698.959 357.314 695.418 Q355.509 691.853 351.875 691.853 M351.875 688.149 Q357.685 688.149 360.74 692.756 Q363.819 697.339 363.819 706.089 Q363.819 714.816 360.74 719.422 Q357.685 724.006 351.875 724.006 Q346.064 724.006 342.986 719.422 Q339.93 714.816 339.93 706.089 Q339.93 697.339 342.986 692.756 Q346.064 688.149 351.875 688.149 Z" fill="#000000" fill-rule="nonzero" fill-opacity="1" /><path clip-path="url(#clip910)" d="M400.208 697.871 L389.629 708.496 L400.208 719.075 L397.453 721.876 L386.828 711.251 L376.203 721.876 L373.472 719.075 L384.027 708.496 L373.472 697.871 L376.203 695.071 L386.828 705.696 L397.453 695.071 L400.208 697.871 Z" fill="#000000" fill-rule="nonzero" fill-opacity="1" /><path clip-path="url(#clip910)" d="M412.569 719.399 L420.208 719.399 L420.208 693.034 L411.897 694.7 L411.897 690.441 L420.161 688.774 L424.837 688.774 L424.837 719.399 L432.476 719.399 L432.476 723.334 L412.569 723.334 L412.569 719.399 Z" fill="#000000" fill-rule="nonzero" fill-opacity="1" /><path clip-path="url(#clip910)" d="M451.92 691.853 Q448.309 691.853 446.481 695.418 Q444.675 698.959 444.675 706.089 Q444.675 713.195 446.481 716.76 Q448.309 720.302 451.92 720.302 Q455.555 720.302 457.36 716.76 Q459.189 713.195 459.189 706.089 Q459.189 698.959 457.36 695.418 Q455.555 691.853 451.92 691.853 M451.92 688.149 Q457.731 688.149 460.786 692.756 Q463.865 697.339 463.865 706.089 Q463.865 714.816 460.786 719.422 Q457.731 724.006 451.92 724.006 Q446.11 724.006 443.032 719.422 Q439.976 714.816 439.976 706.089 Q439.976 697.339 443.032 692.756 Q446.11 688.149 451.92 688.149 Z" fill="#000000" fill-rule="nonzero" fill-opacity="1" /><path clip-path="url(#clip910)" d="M473.57 670.345 Q470.636 670.345 469.15 673.242 Q467.683 676.119 467.683 681.912 Q467.683 687.686 469.15 690.582 Q470.636 693.46 473.57 693.46 Q476.522 693.46 477.989 690.582 Q479.475 687.686 479.475 681.912 Q479.475 676.119 477.989 673.242 Q476.522 670.345 473.57 670.345 M473.57 667.336 Q478.29 667.336 480.773 671.079 Q483.274 674.803 483.274 681.912 Q483.274 689.003 480.773 692.745 Q478.29 696.469 473.57 696.469 Q468.849 696.469 466.347 692.745 Q463.865 689.003 463.865 681.912 Q463.865 674.803 466.347 671.079 Q468.849 667.336 473.57 667.336 Z" fill="#000000" fill-rule="nonzero" fill-opacity="1" /><path clip-path="url(#clip910)" d="M115.718 440.179 L134.075 440.179 L134.075 444.114 L120.001 444.114 L120.001 452.586 Q121.019 452.239 122.038 452.077 Q123.056 451.891 124.075 451.891 Q129.862 451.891 133.242 455.063 Q136.621 458.234 136.621 463.651 Q136.621 469.229 133.149 472.331 Q129.677 475.41 123.357 475.41 Q121.181 475.41 118.913 475.039 Q116.668 474.669 114.26 473.928 L114.26 469.229 Q116.343 470.364 118.566 470.919 Q120.788 471.475 123.265 471.475 Q127.269 471.475 129.607 469.368 Q131.945 467.262 131.945 463.651 Q131.945 460.04 129.607 457.933 Q127.269 455.827 123.265 455.827 Q121.39 455.827 119.515 456.243 Q117.663 456.66 115.718 457.54 L115.718 440.179 Z" fill="#000000" fill-rule="nonzero" fill-opacity="1" /><path clip-path="url(#clip910)" d="M145.834 468.859 L150.718 468.859 L150.718 474.739 L145.834 474.739 L145.834 468.859 Z" fill="#000000" fill-rule="nonzero" fill-opacity="1" /><path clip-path="url(#clip910)" d="M161.042 474.021 L161.042 469.762 Q162.802 470.595 164.607 471.035 Q166.413 471.475 168.149 471.475 Q172.778 471.475 175.209 468.373 Q177.663 465.248 178.01 458.905 Q176.667 460.896 174.607 461.961 Q172.547 463.026 170.047 463.026 Q164.862 463.026 161.829 459.901 Q158.82 456.752 158.82 451.313 Q158.82 445.989 161.968 442.771 Q165.116 439.554 170.348 439.554 Q176.343 439.554 179.491 444.16 Q182.663 448.743 182.663 457.493 Q182.663 465.664 178.774 470.549 Q174.908 475.41 168.357 475.41 Q166.598 475.41 164.792 475.063 Q162.987 474.715 161.042 474.021 M170.348 459.368 Q173.496 459.368 175.325 457.215 Q177.176 455.063 177.176 451.313 Q177.176 447.586 175.325 445.433 Q173.496 443.257 170.348 443.257 Q167.2 443.257 165.348 445.433 Q163.519 447.586 163.519 451.313 Q163.519 455.063 165.348 457.215 Q167.2 459.368 170.348 459.368 Z" fill="#000000" fill-rule="nonzero" fill-opacity="1" /><path clip-path="url(#clip910)" d="M191.204 474.021 L191.204 469.762 Q192.963 470.595 194.769 471.035 Q196.575 471.475 198.311 471.475 Q202.94 471.475 205.371 468.373 Q207.824 465.248 208.172 458.905 Q206.829 460.896 204.769 461.961 Q202.709 463.026 200.209 463.026 Q195.024 463.026 191.991 459.901 Q188.982 456.752 188.982 451.313 Q188.982 445.989 192.13 442.771 Q195.278 439.554 200.51 439.554 Q206.505 439.554 209.653 444.16 Q212.824 448.743 212.824 457.493 Q212.824 465.664 208.936 470.549 Q205.07 475.41 198.519 475.41 Q196.76 475.41 194.954 475.063 Q193.149 474.715 191.204 474.021 M200.51 459.368 Q203.658 459.368 205.487 457.215 Q207.338 455.063 207.338 451.313 Q207.338 447.586 205.487 445.433 Q203.658 443.257 200.51 443.257 Q197.362 443.257 195.51 445.433 Q193.681 447.586 193.681 451.313 Q193.681 455.063 195.51 457.215 Q197.362 459.368 200.51 459.368 Z" fill="#000000" fill-rule="nonzero" fill-opacity="1" /><path clip-path="url(#clip910)" d="M221.366 474.021 L221.366 469.762 Q223.125 470.595 224.931 471.035 Q226.736 471.475 228.473 471.475 Q233.102 471.475 235.533 468.373 Q237.986 465.248 238.334 458.905 Q236.991 460.896 234.931 461.961 Q232.871 463.026 230.371 463.026 Q225.185 463.026 222.153 459.901 Q219.144 456.752 219.144 451.313 Q219.144 445.989 222.292 442.771 Q225.44 439.554 230.672 439.554 Q236.667 439.554 239.815 444.16 Q242.986 448.743 242.986 457.493 Q242.986 465.664 239.097 470.549 Q235.232 475.41 228.681 475.41 Q226.922 475.41 225.116 475.063 Q223.31 474.715 221.366 474.021 M230.672 459.368 Q233.82 459.368 235.648 457.215 Q237.5 455.063 237.5 451.313 Q237.5 447.586 235.648 445.433 Q233.82 443.257 230.672 443.257 Q227.523 443.257 225.672 445.433 Q223.843 447.586 223.843 451.313 Q223.843 455.063 225.672 457.215 Q227.523 459.368 230.672 459.368 Z" fill="#000000" fill-rule="nonzero" fill-opacity="1" /><path clip-path="url(#clip910)" d="M251.528 474.021 L251.528 469.762 Q253.287 470.595 255.093 471.035 Q256.898 471.475 258.634 471.475 Q263.264 471.475 265.695 468.373 Q268.148 465.248 268.495 458.905 Q267.153 460.896 265.093 461.961 Q263.033 463.026 260.533 463.026 Q255.347 463.026 252.315 459.901 Q249.306 456.752 249.306 451.313 Q249.306 445.989 252.454 442.771 Q255.602 439.554 260.833 439.554 Q266.829 439.554 269.977 444.16 Q273.148 448.743 273.148 457.493 Q273.148 465.664 269.259 470.549 Q265.394 475.41 258.843 475.41 Q257.083 475.41 255.278 475.063 Q253.472 474.715 251.528 474.021 M260.833 459.368 Q263.982 459.368 265.81 457.215 Q267.662 455.063 267.662 451.313 Q267.662 447.586 265.81 445.433 Q263.982 443.257 260.833 443.257 Q257.685 443.257 255.833 445.433 Q254.005 447.586 254.005 451.313 Q254.005 455.063 255.833 457.215 Q257.685 459.368 260.833 459.368 Z" fill="#000000" fill-rule="nonzero" fill-opacity="1" /><path clip-path="url(#clip910)" d="M281.597 440.179 L299.954 440.179 L299.954 444.114 L285.88 444.114 L285.88 452.586 Q286.898 452.239 287.917 452.077 Q288.935 451.891 289.954 451.891 Q295.741 451.891 299.12 455.063 Q302.5 458.234 302.5 463.651 Q302.5 469.229 299.028 472.331 Q295.555 475.41 289.236 475.41 Q287.06 475.41 284.792 475.039 Q282.546 474.669 280.139 473.928 L280.139 469.229 Q282.222 470.364 284.444 470.919 Q286.667 471.475 289.143 471.475 Q293.148 471.475 295.486 469.368 Q297.824 467.262 297.824 463.651 Q297.824 460.04 295.486 457.933 Q293.148 455.827 289.143 455.827 Q287.268 455.827 285.393 456.243 Q283.542 456.66 281.597 457.54 L281.597 440.179 Z" fill="#000000" fill-rule="nonzero" fill-opacity="1" /><path clip-path="url(#clip910)" d="M322.291 455.595 Q319.143 455.595 317.291 457.748 Q315.463 459.901 315.463 463.651 Q315.463 467.377 317.291 469.553 Q319.143 471.706 322.291 471.706 Q325.44 471.706 327.268 469.553 Q329.12 467.377 329.12 463.651 Q329.12 459.901 327.268 457.748 Q325.44 455.595 322.291 455.595 M331.574 440.942 L331.574 445.202 Q329.815 444.368 328.009 443.928 Q326.227 443.489 324.467 443.489 Q319.838 443.489 317.384 446.614 Q314.954 449.739 314.606 456.058 Q315.972 454.044 318.032 452.979 Q320.092 451.891 322.569 451.891 Q327.778 451.891 330.787 455.063 Q333.819 458.211 333.819 463.651 Q333.819 468.975 330.671 472.192 Q327.523 475.41 322.291 475.41 Q316.296 475.41 313.125 470.826 Q309.954 466.22 309.954 457.493 Q309.954 449.299 313.842 444.438 Q317.731 439.554 324.282 439.554 Q326.041 439.554 327.824 439.901 Q329.629 440.248 331.574 440.942 Z" fill="#000000" fill-rule="nonzero" fill-opacity="1" /><path clip-path="url(#clip910)" d="M351.875 443.257 Q348.264 443.257 346.435 446.822 Q344.629 450.364 344.629 457.493 Q344.629 464.6 346.435 468.164 Q348.264 471.706 351.875 471.706 Q355.509 471.706 357.314 468.164 Q359.143 464.6 359.143 457.493 Q359.143 450.364 357.314 446.822 Q355.509 443.257 351.875 443.257 M351.875 439.554 Q357.685 439.554 360.74 444.16 Q363.819 448.743 363.819 457.493 Q363.819 466.22 360.74 470.826 Q357.685 475.41 351.875 475.41 Q346.064 475.41 342.986 470.826 Q339.93 466.22 339.93 457.493 Q339.93 448.743 342.986 444.16 Q346.064 439.554 351.875 439.554 Z" fill="#000000" fill-rule="nonzero" fill-opacity="1" /><path clip-path="url(#clip910)" d="M400.208 449.276 L389.629 459.901 L400.208 470.479 L397.453 473.28 L386.828 462.655 L376.203 473.28 L373.472 470.479 L384.027 459.901 L373.472 449.276 L376.203 446.475 L386.828 457.1 L397.453 446.475 L400.208 449.276 Z" fill="#000000" fill-rule="nonzero" fill-opacity="1" /><path clip-path="url(#clip910)" d="M412.569 470.803 L420.208 470.803 L420.208 444.438 L411.897 446.104 L411.897 441.845 L420.161 440.179 L424.837 440.179 L424.837 470.803 L432.476 470.803 L432.476 474.739 L412.569 474.739 L412.569 470.803 Z" fill="#000000" fill-rule="nonzero" fill-opacity="1" /><path clip-path="url(#clip910)" d="M451.92 443.257 Q448.309 443.257 446.481 446.822 Q444.675 450.364 444.675 457.493 Q444.675 464.6 446.481 468.164 Q448.309 471.706 451.92 471.706 Q455.555 471.706 457.36 468.164 Q459.189 464.6 459.189 457.493 Q459.189 450.364 457.36 446.822 Q455.555 443.257 451.92 443.257 M451.92 439.554 Q457.731 439.554 460.786 444.16 Q463.865 448.743 463.865 457.493 Q463.865 466.22 460.786 470.826 Q457.731 475.41 451.92 475.41 Q446.11 475.41 443.032 470.826 Q439.976 466.22 439.976 457.493 Q439.976 448.743 443.032 444.16 Q446.11 439.554 451.92 439.554 Z" fill="#000000" fill-rule="nonzero" fill-opacity="1" /><path clip-path="url(#clip910)" d="M473.57 421.75 Q470.636 421.75 469.15 424.646 Q467.683 427.524 467.683 433.316 Q467.683 439.09 469.15 441.987 Q470.636 444.864 473.57 444.864 Q476.522 444.864 477.989 441.987 Q479.475 439.09 479.475 433.316 Q479.475 427.524 477.989 424.646 Q476.522 421.75 473.57 421.75 M473.57 418.74 Q478.29 418.74 480.773 422.483 Q483.274 426.207 483.274 433.316 Q483.274 440.407 480.773 444.15 Q478.29 447.874 473.57 447.874 Q468.849 447.874 466.347 444.15 Q463.865 440.407 463.865 433.316 Q463.865 426.207 466.347 422.483 Q468.849 418.74 473.57 418.74 Z" fill="#000000" fill-rule="nonzero" fill-opacity="1" /><path clip-path="url(#clip910)" d="M115.718 191.583 L134.075 191.583 L134.075 195.518 L120.001 195.518 L120.001 203.99 Q121.019 203.643 122.038 203.481 Q123.056 203.296 124.075 203.296 Q129.862 203.296 133.242 206.467 Q136.621 209.638 136.621 215.055 Q136.621 220.633 133.149 223.735 Q129.677 226.814 123.357 226.814 Q121.181 226.814 118.913 226.444 Q116.668 226.073 114.26 225.333 L114.26 220.633 Q116.343 221.768 118.566 222.323 Q120.788 222.879 123.265 222.879 Q127.269 222.879 129.607 220.772 Q131.945 218.666 131.945 215.055 Q131.945 211.444 129.607 209.337 Q127.269 207.231 123.265 207.231 Q121.39 207.231 119.515 207.647 Q117.663 208.064 115.718 208.944 L115.718 191.583 Z" fill="#000000" fill-rule="nonzero" fill-opacity="1" /><path clip-path="url(#clip910)" d="M145.834 220.263 L150.718 220.263 L150.718 226.143 L145.834 226.143 L145.834 220.263 Z" fill="#000000" fill-rule="nonzero" fill-opacity="1" /><path clip-path="url(#clip910)" d="M161.042 225.425 L161.042 221.166 Q162.802 221.999 164.607 222.439 Q166.413 222.879 168.149 222.879 Q172.778 222.879 175.209 219.777 Q177.663 216.652 178.01 210.309 Q176.667 212.3 174.607 213.365 Q172.547 214.43 170.047 214.43 Q164.862 214.43 161.829 211.305 Q158.82 208.157 158.82 202.717 Q158.82 197.393 161.968 194.175 Q165.116 190.958 170.348 190.958 Q176.343 190.958 179.491 195.564 Q182.663 200.147 182.663 208.897 Q182.663 217.069 178.774 221.953 Q174.908 226.814 168.357 226.814 Q166.598 226.814 164.792 226.467 Q162.987 226.12 161.042 225.425 M170.348 210.772 Q173.496 210.772 175.325 208.62 Q177.176 206.467 177.176 202.717 Q177.176 198.99 175.325 196.837 Q173.496 194.661 170.348 194.661 Q167.2 194.661 165.348 196.837 Q163.519 198.99 163.519 202.717 Q163.519 206.467 165.348 208.62 Q167.2 210.772 170.348 210.772 Z" fill="#000000" fill-rule="nonzero" fill-opacity="1" /><path clip-path="url(#clip910)" d="M191.204 225.425 L191.204 221.166 Q192.963 221.999 194.769 222.439 Q196.575 222.879 198.311 222.879 Q202.94 222.879 205.371 219.777 Q207.824 216.652 208.172 210.309 Q206.829 212.3 204.769 213.365 Q202.709 214.43 200.209 214.43 Q195.024 214.43 191.991 211.305 Q188.982 208.157 188.982 202.717 Q188.982 197.393 192.13 194.175 Q195.278 190.958 200.51 190.958 Q206.505 190.958 209.653 195.564 Q212.824 200.147 212.824 208.897 Q212.824 217.069 208.936 221.953 Q205.07 226.814 198.519 226.814 Q196.76 226.814 194.954 226.467 Q193.149 226.12 191.204 225.425 M200.51 210.772 Q203.658 210.772 205.487 208.62 Q207.338 206.467 207.338 202.717 Q207.338 198.99 205.487 196.837 Q203.658 194.661 200.51 194.661 Q197.362 194.661 195.51 196.837 Q193.681 198.99 193.681 202.717 Q193.681 206.467 195.51 208.62 Q197.362 210.772 200.51 210.772 Z" fill="#000000" fill-rule="nonzero" fill-opacity="1" /><path clip-path="url(#clip910)" d="M221.366 225.425 L221.366 221.166 Q223.125 221.999 224.931 222.439 Q226.736 222.879 228.473 222.879 Q233.102 222.879 235.533 219.777 Q237.986 216.652 238.334 210.309 Q236.991 212.3 234.931 213.365 Q232.871 214.43 230.371 214.43 Q225.185 214.43 222.153 211.305 Q219.144 208.157 219.144 202.717 Q219.144 197.393 222.292 194.175 Q225.44 190.958 230.672 190.958 Q236.667 190.958 239.815 195.564 Q242.986 200.147 242.986 208.897 Q242.986 217.069 239.097 221.953 Q235.232 226.814 228.681 226.814 Q226.922 226.814 225.116 226.467 Q223.31 226.12 221.366 225.425 M230.672 210.772 Q233.82 210.772 235.648 208.62 Q237.5 206.467 237.5 202.717 Q237.5 198.99 235.648 196.837 Q233.82 194.661 230.672 194.661 Q227.523 194.661 225.672 196.837 Q223.843 198.99 223.843 202.717 Q223.843 206.467 225.672 208.62 Q227.523 210.772 230.672 210.772 Z" fill="#000000" fill-rule="nonzero" fill-opacity="1" /><path clip-path="url(#clip910)" d="M251.528 225.425 L251.528 221.166 Q253.287 221.999 255.093 222.439 Q256.898 222.879 258.634 222.879 Q263.264 222.879 265.695 219.777 Q268.148 216.652 268.495 210.309 Q267.153 212.3 265.093 213.365 Q263.033 214.43 260.533 214.43 Q255.347 214.43 252.315 211.305 Q249.306 208.157 249.306 202.717 Q249.306 197.393 252.454 194.175 Q255.602 190.958 260.833 190.958 Q266.829 190.958 269.977 195.564 Q273.148 200.147 273.148 208.897 Q273.148 217.069 269.259 221.953 Q265.394 226.814 258.843 226.814 Q257.083 226.814 255.278 226.467 Q253.472 226.12 251.528 225.425 M260.833 210.772 Q263.982 210.772 265.81 208.62 Q267.662 206.467 267.662 202.717 Q267.662 198.99 265.81 196.837 Q263.982 194.661 260.833 194.661 Q257.685 194.661 255.833 196.837 Q254.005 198.99 254.005 202.717 Q254.005 206.467 255.833 208.62 Q257.685 210.772 260.833 210.772 Z" fill="#000000" fill-rule="nonzero" fill-opacity="1" /><path clip-path="url(#clip910)" d="M281.597 191.583 L299.954 191.583 L299.954 195.518 L285.88 195.518 L285.88 203.99 Q286.898 203.643 287.917 203.481 Q288.935 203.296 289.954 203.296 Q295.741 203.296 299.12 206.467 Q302.5 209.638 302.5 215.055 Q302.5 220.633 299.028 223.735 Q295.555 226.814 289.236 226.814 Q287.06 226.814 284.792 226.444 Q282.546 226.073 280.139 225.333 L280.139 220.633 Q282.222 221.768 284.444 222.323 Q286.667 222.879 289.143 222.879 Q293.148 222.879 295.486 220.772 Q297.824 218.666 297.824 215.055 Q297.824 211.444 295.486 209.337 Q293.148 207.231 289.143 207.231 Q287.268 207.231 285.393 207.647 Q283.542 208.064 281.597 208.944 L281.597 191.583 Z" fill="#000000" fill-rule="nonzero" fill-opacity="1" /><path clip-path="url(#clip910)" d="M321.713 209.731 Q318.379 209.731 316.458 211.513 Q314.56 213.296 314.56 216.421 Q314.56 219.546 316.458 221.328 Q318.379 223.11 321.713 223.11 Q325.046 223.11 326.967 221.328 Q328.889 219.522 328.889 216.421 Q328.889 213.296 326.967 211.513 Q325.069 209.731 321.713 209.731 M317.037 207.74 Q314.028 206.999 312.338 204.939 Q310.671 202.879 310.671 199.916 Q310.671 195.773 313.611 193.365 Q316.574 190.958 321.713 190.958 Q326.875 190.958 329.815 193.365 Q332.754 195.773 332.754 199.916 Q332.754 202.879 331.065 204.939 Q329.398 206.999 326.412 207.74 Q329.791 208.527 331.666 210.819 Q333.565 213.11 333.565 216.421 Q333.565 221.444 330.486 224.129 Q327.43 226.814 321.713 226.814 Q315.995 226.814 312.917 224.129 Q309.861 221.444 309.861 216.421 Q309.861 213.11 311.759 210.819 Q313.657 208.527 317.037 207.74 M315.324 200.356 Q315.324 203.041 316.991 204.546 Q318.68 206.05 321.713 206.05 Q324.722 206.05 326.412 204.546 Q328.125 203.041 328.125 200.356 Q328.125 197.671 326.412 196.166 Q324.722 194.661 321.713 194.661 Q318.68 194.661 316.991 196.166 Q315.324 197.671 315.324 200.356 Z" fill="#000000" fill-rule="nonzero" fill-opacity="1" /><path clip-path="url(#clip910)" d="M351.875 194.661 Q348.264 194.661 346.435 198.226 Q344.629 201.768 344.629 208.897 Q344.629 216.004 346.435 219.569 Q348.264 223.11 351.875 223.11 Q355.509 223.11 357.314 219.569 Q359.143 216.004 359.143 208.897 Q359.143 201.768 357.314 198.226 Q355.509 194.661 351.875 194.661 M351.875 190.958 Q357.685 190.958 360.74 195.564 Q363.819 200.147 363.819 208.897 Q363.819 217.624 360.74 222.231 Q357.685 226.814 351.875 226.814 Q346.064 226.814 342.986 222.231 Q339.93 217.624 339.93 208.897 Q339.93 200.147 342.986 195.564 Q346.064 190.958 351.875 190.958 Z" fill="#000000" fill-rule="nonzero" fill-opacity="1" /><path clip-path="url(#clip910)" d="M400.208 200.68 L389.629 211.305 L400.208 221.883 L397.453 224.684 L386.828 214.059 L376.203 224.684 L373.472 221.883 L384.027 211.305 L373.472 200.68 L376.203 197.879 L386.828 208.504 L397.453 197.879 L400.208 200.68 Z" fill="#000000" fill-rule="nonzero" fill-opacity="1" /><path clip-path="url(#clip910)" d="M412.569 222.208 L420.208 222.208 L420.208 195.842 L411.897 197.509 L411.897 193.249 L420.161 191.583 L424.837 191.583 L424.837 222.208 L432.476 222.208 L432.476 226.143 L412.569 226.143 L412.569 222.208 Z" fill="#000000" fill-rule="nonzero" fill-opacity="1" /><path clip-path="url(#clip910)" d="M451.92 194.661 Q448.309 194.661 446.481 198.226 Q444.675 201.768 444.675 208.897 Q444.675 216.004 446.481 219.569 Q448.309 223.11 451.92 223.11 Q455.555 223.11 457.36 219.569 Q459.189 216.004 459.189 208.897 Q459.189 201.768 457.36 198.226 Q455.555 194.661 451.92 194.661 M451.92 190.958 Q457.731 190.958 460.786 195.564 Q463.865 200.147 463.865 208.897 Q463.865 217.624 460.786 222.231 Q457.731 226.814 451.92 226.814 Q446.11 226.814 443.032 222.231 Q439.976 217.624 439.976 208.897 Q439.976 200.147 443.032 195.564 Q446.11 190.958 451.92 190.958 Z" fill="#000000" fill-rule="nonzero" fill-opacity="1" /><path clip-path="url(#clip910)" d="M473.57 173.154 Q470.636 173.154 469.15 176.05 Q467.683 178.928 467.683 184.721 Q467.683 190.495 469.15 193.391 Q470.636 196.268 473.57 196.268 Q476.522 196.268 477.989 193.391 Q479.475 190.495 479.475 184.721 Q479.475 178.928 477.989 176.05 Q476.522 173.154 473.57 173.154 M473.57 170.145 Q478.29 170.145 480.773 173.887 Q483.274 177.611 483.274 184.721 Q483.274 191.811 480.773 195.554 Q478.29 199.278 473.57 199.278 Q468.849 199.278 466.347 195.554 Q463.865 191.811 463.865 184.721 Q463.865 177.611 466.347 173.887 Q468.849 170.145 473.57 170.145 Z" fill="#000000" fill-rule="nonzero" fill-opacity="1" /><path clip-path="url(#clip910)" d="M21.7677 981.565 L58.7206 981.565 L58.7206 973.799 Q58.7206 963.964 54.2646 959.412 Q49.8086 954.829 40.1964 954.829 Q30.6479 954.829 26.2237 959.412 Q21.7677 963.964 21.7677 973.799 L21.7677 981.565 M16.4842 987.994 L16.4842 974.785 Q16.4842 960.972 22.2451 954.511 Q27.9743 948.049 40.1964 948.049 Q52.4822 948.049 58.2432 954.542 Q64.0042 961.035 64.0042 974.785 L64.0042 987.994 L16.4842 987.994 Z" fill="#000000" fill-rule="nonzero" fill-opacity="1" /><path clip-path="url(#clip910)" d="M28.3562 938.055 L28.3562 932.199 L64.0042 932.199 L64.0042 938.055 L28.3562 938.055 M14.479 938.055 L14.479 932.199 L21.895 932.199 L21.895 938.055 L14.479 938.055 Z" fill="#000000" fill-rule="nonzero" fill-opacity="1" /><path clip-path="url(#clip910)" d="M29.4065 897.219 L34.9447 897.219 Q33.6716 899.702 33.035 902.375 Q32.3984 905.049 32.3984 907.914 Q32.3984 912.274 33.7352 914.47 Q35.072 916.635 37.7456 916.635 Q39.7826 916.635 40.9603 915.075 Q42.1061 913.515 43.1565 908.805 L43.6021 906.8 Q44.9389 900.561 47.3897 897.951 Q49.8086 895.309 54.1691 895.309 Q59.1344 895.309 62.0308 899.256 Q64.9272 903.171 64.9272 910.046 Q64.9272 912.911 64.3543 916.03 Q63.8132 919.117 62.6992 922.555 L56.6518 922.555 Q58.3387 919.308 59.198 916.157 Q60.0256 913.006 60.0256 909.919 Q60.0256 905.781 58.6251 903.553 Q57.1929 901.325 54.6147 901.325 Q52.2276 901.325 50.9545 902.948 Q49.6813 904.54 48.5037 909.982 L48.0262 912.019 Q46.8804 917.462 44.5251 919.881 Q42.138 922.3 38.0002 922.3 Q32.9713 922.3 30.2341 918.735 Q27.4968 915.17 27.4968 908.614 Q27.4968 905.367 27.9743 902.503 Q28.4517 899.638 29.4065 897.219 Z" fill="#000000" fill-rule="nonzero" fill-opacity="1" /><path clip-path="url(#clip910)" d="M18.2347 880.191 L28.3562 880.191 L28.3562 868.128 L32.9077 868.128 L32.9077 880.191 L52.2594 880.191 Q56.6199 880.191 57.8613 879.013 Q59.1026 877.804 59.1026 874.144 L59.1026 868.128 L64.0042 868.128 L64.0042 874.144 Q64.0042 880.923 61.4897 883.501 Q58.9434 886.079 52.2594 886.079 L32.9077 886.079 L32.9077 890.376 L28.3562 890.376 L28.3562 886.079 L18.2347 886.079 L18.2347 880.191 Z" fill="#000000" fill-rule="nonzero" fill-opacity="1" /><path clip-path="url(#clip910)" d="M46.0847 844.225 Q46.0847 851.322 47.7079 854.06 Q49.3312 856.797 53.2461 856.797 Q56.3653 856.797 58.2114 854.76 Q60.0256 852.691 60.0256 849.158 Q60.0256 844.288 56.5881 841.36 Q53.1188 838.4 47.3897 838.4 L46.0847 838.4 L46.0847 844.225 M43.6657 832.544 L64.0042 832.544 L64.0042 838.4 L58.5933 838.4 Q61.8398 840.405 63.3994 843.397 Q64.9272 846.389 64.9272 850.718 Q64.9272 856.192 61.8716 859.439 Q58.7843 862.653 53.6281 862.653 Q47.6125 862.653 44.5569 858.643 Q41.5014 854.601 41.5014 846.612 L41.5014 838.4 L40.9285 838.4 Q36.8862 838.4 34.6901 841.074 Q32.4621 843.715 32.4621 848.522 Q32.4621 851.577 33.1941 854.473 Q33.9262 857.37 35.3903 860.043 L29.9795 860.043 Q28.7381 856.829 28.1334 853.805 Q27.4968 850.781 27.4968 847.917 Q27.4968 840.182 31.5072 836.363 Q35.5176 832.544 43.6657 832.544 Z" fill="#000000" fill-rule="nonzero" fill-opacity="1" /><path clip-path="url(#clip910)" d="M42.4881 790.848 L64.0042 790.848 L64.0042 796.705 L42.679 796.705 Q37.6183 796.705 35.1038 798.678 Q32.5894 800.651 32.5894 804.598 Q32.5894 809.341 35.6131 812.078 Q38.6368 814.815 43.8567 814.815 L64.0042 814.815 L64.0042 820.703 L28.3562 820.703 L28.3562 814.815 L33.8944 814.815 Q30.6797 812.714 29.0883 809.882 Q27.4968 807.017 27.4968 803.293 Q27.4968 797.15 31.3163 793.999 Q35.1038 790.848 42.4881 790.848 Z" fill="#000000" fill-rule="nonzero" fill-opacity="1" /><path clip-path="url(#clip910)" d="M29.7248 753.513 L35.1993 753.513 Q33.8307 755.996 33.1623 758.51 Q32.4621 760.993 32.4621 763.539 Q32.4621 769.237 36.0905 772.388 Q39.6872 775.539 46.212 775.539 Q52.7369 775.539 56.3653 772.388 Q59.9619 769.237 59.9619 763.539 Q59.9619 760.993 59.2935 758.51 Q58.5933 755.996 57.2247 753.513 L62.6355 753.513 Q63.7814 755.964 64.3543 758.606 Q64.9272 761.216 64.9272 764.176 Q64.9272 772.229 59.8664 776.971 Q54.8057 781.713 46.212 781.713 Q37.491 781.713 32.4939 776.939 Q27.4968 772.133 27.4968 763.794 Q27.4968 761.089 28.0697 758.51 Q28.6108 755.932 29.7248 753.513 Z" fill="#000000" fill-rule="nonzero" fill-opacity="1" /><path clip-path="url(#clip910)" d="M44.7161 712.837 L47.5806 712.837 L47.5806 739.763 Q53.6281 739.382 56.8109 736.135 Q59.9619 732.857 59.9619 727.032 Q59.9619 723.658 59.1344 720.507 Q58.3069 717.324 56.6518 714.205 L62.1899 714.205 Q63.5267 717.356 64.227 720.666 Q64.9272 723.976 64.9272 727.382 Q64.9272 735.912 59.9619 740.909 Q54.9967 745.875 46.5303 745.875 Q37.7774 745.875 32.6531 741.164 Q27.4968 736.421 27.4968 728.401 Q27.4968 721.207 32.1438 717.038 Q36.7589 712.837 44.7161 712.837 M42.9973 718.693 Q38.1912 718.757 35.3266 721.398 Q32.4621 724.008 32.4621 728.337 Q32.4621 733.239 35.2312 736.199 Q38.0002 739.127 43.0292 739.572 L42.9973 718.693 Z" fill="#000000" fill-rule="nonzero" fill-opacity="1" /><path clip-path="url(#clip910)" d="M29.4065 680.499 L34.9447 680.499 Q33.6716 682.981 33.035 685.655 Q32.3984 688.329 32.3984 691.193 Q32.3984 695.554 33.7352 697.75 Q35.072 699.914 37.7456 699.914 Q39.7826 699.914 40.9603 698.355 Q42.1061 696.795 43.1565 692.084 L43.6021 690.079 Q44.9389 683.841 47.3897 681.231 Q49.8086 678.589 54.1691 678.589 Q59.1344 678.589 62.0308 682.536 Q64.9272 686.451 64.9272 693.326 Q64.9272 696.19 64.3543 699.309 Q63.8132 702.397 62.6992 705.834 L56.6518 705.834 Q58.3387 702.588 59.198 699.437 Q60.0256 696.286 60.0256 693.198 Q60.0256 689.061 58.6251 686.833 Q57.1929 684.605 54.6147 684.605 Q52.2276 684.605 50.9545 686.228 Q49.6813 687.819 48.5037 693.262 L48.0262 695.299 Q46.8804 700.742 44.5251 703.161 Q42.138 705.58 38.0002 705.58 Q32.9713 705.58 30.2341 702.015 Q27.4968 698.45 27.4968 691.893 Q27.4968 688.647 27.9743 685.782 Q28.4517 682.918 29.4065 680.499 Z" fill="#000000" fill-rule="nonzero" fill-opacity="1" /><path clip-path="url(#clip910)" d="M14.479 649.084 L14.479 635.589 L19.0304 635.589 L19.0304 643.228 L68.0464 643.228 L68.0464 635.589 L72.5979 635.589 L72.5979 649.084 L14.479 649.084 Z" fill="#000000" fill-rule="nonzero" fill-opacity="1" /><path clip-path="url(#clip910)" d="M35.1993 595.357 Q31.2526 593.161 29.3747 590.106 Q27.4968 587.05 27.4968 582.912 Q27.4968 577.342 31.4117 574.319 Q35.2948 571.295 42.4881 571.295 L64.0042 571.295 L64.0042 577.183 L42.679 577.183 Q37.5546 577.183 35.072 578.998 Q32.5894 580.812 32.5894 584.536 Q32.5894 589.087 35.6131 591.729 Q38.6368 594.371 43.8567 594.371 L64.0042 594.371 L64.0042 600.259 L42.679 600.259 Q37.5228 600.259 35.072 602.073 Q32.5894 603.887 32.5894 607.675 Q32.5894 612.163 35.6449 614.805 Q38.6686 617.446 43.8567 617.446 L64.0042 617.446 L64.0042 623.335 L28.3562 623.335 L28.3562 617.446 L33.8944 617.446 Q30.616 615.441 29.0564 612.64 Q27.4968 609.839 27.4968 605.988 Q27.4968 602.105 29.4702 599.4 Q31.4436 596.662 35.1993 595.357 Z" fill="#000000" fill-rule="nonzero" fill-opacity="1" /><path clip-path="url(#clip910)" d="M35.1993 531.859 Q31.2526 529.663 29.3747 526.608 Q27.4968 523.552 27.4968 519.415 Q27.4968 513.845 31.4117 510.821 Q35.2948 507.797 42.4881 507.797 L64.0042 507.797 L64.0042 513.685 L42.679 513.685 Q37.5546 513.685 35.072 515.5 Q32.5894 517.314 32.5894 521.038 Q32.5894 525.589 35.6131 528.231 Q38.6368 530.873 43.8567 530.873 L64.0042 530.873 L64.0042 536.761 L42.679 536.761 Q37.5228 536.761 35.072 538.575 Q32.5894 540.39 32.5894 544.177 Q32.5894 548.665 35.6449 551.307 Q38.6686 553.948 43.8567 553.948 L64.0042 553.948 L64.0042 559.837 L28.3562 559.837 L28.3562 553.948 L33.8944 553.948 Q30.616 551.943 29.0564 549.142 Q27.4968 546.341 27.4968 542.49 Q27.4968 538.607 29.4702 535.902 Q31.4436 533.164 35.1993 531.859 Z" fill="#000000" fill-rule="nonzero" fill-opacity="1" /><path clip-path="url(#clip910)" d="M14.479 482.43 L72.5979 482.43 L72.5979 495.925 L68.0464 495.925 L68.0464 488.318 L19.0304 488.318 L19.0304 495.925 L14.479 495.925 L14.479 482.43 Z" fill="#000000" fill-rule="nonzero" fill-opacity="1" /><circle clip-path="url(#clip912)" cx="571.165" cy="1384.24" r="14.4" fill="#009af9" fill-rule="evenodd" fill-opacity="1" stroke="#000000" stroke-opacity="1" stroke-width="3.2"/>
<circle clip-path="url(#clip912)" cx="818.265" cy="90.6844" r="14.4" fill="#009af9" fill-rule="evenodd" fill-opacity="1" stroke="#000000" stroke-opacity="1" stroke-width="3.2"/>
<circle clip-path="url(#clip912)" cx="1065.37" cy="92.9536" r="14.4" fill="#009af9" fill-rule="evenodd" fill-opacity="1" stroke="#000000" stroke-opacity="1" stroke-width="3.2"/>
<circle clip-path="url(#clip912)" cx="1312.47" cy="102.329" r="14.4" fill="#009af9" fill-rule="evenodd" fill-opacity="1" stroke="#000000" stroke-opacity="1" stroke-width="3.2"/>
<circle clip-path="url(#clip912)" cx="1559.57" cy="90.3093" r="14.4" fill="#009af9" fill-rule="evenodd" fill-opacity="1" stroke="#000000" stroke-opacity="1" stroke-width="3.2"/>
<circle clip-path="url(#clip912)" cx="1806.67" cy="91.8596" r="14.4" fill="#009af9" fill-rule="evenodd" fill-opacity="1" stroke="#000000" stroke-opacity="1" stroke-width="3.2"/>
<circle clip-path="url(#clip912)" cx="2053.76" cy="97.8366" r="14.4" fill="#009af9" fill-rule="evenodd" fill-opacity="1" stroke="#000000" stroke-opacity="1" stroke-width="3.2"/>
<circle clip-path="url(#clip912)" cx="2300.86" cy="86.1857" r="14.4" fill="#009af9" fill-rule="evenodd" fill-opacity="1" stroke="#000000" stroke-opacity="1" stroke-width="3.2"/>
<path clip-path="url(#clip910)" d="M2055.86 1377.32 L2291.64 1377.32 L2291.64 1273.64 L2055.86 1273.64  Z" fill="#ffffff" fill-rule="evenodd" fill-opacity="1"/>
<polyline clip-path="url(#clip910)" style="stroke:#000000; stroke-linecap:round; stroke-linejoin:round; stroke-width:4; stroke-opacity:1; fill:none" points="2055.86,1377.32 2291.64,1377.32 2291.64,1273.64 2055.86,1273.64 2055.86,1377.32 "/>
<circle clip-path="url(#clip910)" cx="2137.35" cy="1325.48" r="20.48" fill="#009af9" fill-rule="evenodd" fill-opacity="1" stroke="#000000" stroke-opacity="1" stroke-width="4.55111"/>
<path clip-path="url(#clip910)" d="M2232.68 1345.16 Q2230.87 1349.79 2229.16 1351.2 Q2227.45 1352.62 2224.58 1352.62 L2221.18 1352.62 L2221.18 1349.05 L2223.68 1349.05 Q2225.43 1349.05 2226.41 1348.22 Q2227.38 1347.38 2228.56 1344.28 L2229.32 1342.34 L2218.84 1316.83 L2223.35 1316.83 L2231.45 1337.11 L2239.56 1316.83 L2244.07 1316.83 L2232.68 1345.16 Z" fill="#000000" fill-rule="nonzero" fill-opacity="1" /><path clip-path="url(#clip910)" d="M2251.36 1338.82 L2259 1338.82 L2259 1312.45 L2250.69 1314.12 L2250.69 1309.86 L2258.95 1308.2 L2263.63 1308.2 L2263.63 1338.82 L2271.27 1338.82 L2271.27 1342.76 L2251.36 1342.76 L2251.36 1338.82 Z" fill="#000000" fill-rule="nonzero" fill-opacity="1" /></svg>
