<?xml version="1.0" encoding="utf-8"?>
<svg xmlns="http://www.w3.org/2000/svg" xmlns:xlink="http://www.w3.org/1999/xlink" width="600" height="400" viewBox="0 0 2400 1600">
<defs>
  <clipPath id="clip240">
    <rect x="0" y="0" width="2400" height="1600"/>
  </clipPath>
</defs>
<path clip-path="url(#clip240)" d="M0 1600 L2400 1600 L2400 0 L0 0  Z" fill="#ffffff" fill-rule="evenodd" fill-opacity="1"/>
<defs>
  <clipPath id="clip241">
    <rect x="480" y="0" width="1681" height="1600"/>
  </clipPath>
</defs>
<path clip-path="url(#clip240)" d="M249.357 1423.18 L2352.76 1423.18 L2352.76 47.2441 L249.357 47.2441  Z" fill="#ffffff" fill-rule="evenodd" fill-opacity="1"/>
<defs>
  <clipPath id="clip242">
    <rect x="249" y="47" width="2104" height="1377"/>
  </clipPath>
</defs>
<polyline clip-path="url(#clip242)" style="stroke:#000000; stroke-linecap:round; stroke-linejoin:round; stroke-width:2; stroke-opacity:0.1; fill:none" points="308.887,1423.18 308.887,47.2441 "/>
<polyline clip-path="url(#clip242)" style="stroke:#000000; stroke-linecap:round; stroke-linejoin:round; stroke-width:2; stroke-opacity:0.1; fill:none" points="804.972,1423.18 804.972,47.2441 "/>
<polyline clip-path="url(#clip242)" style="stroke:#000000; stroke-linecap:round; stroke-linejoin:round; stroke-width:2; stroke-opacity:0.1; fill:none" points="1301.06,1423.18 1301.06,47.2441 "/>
<polyline clip-path="url(#clip242)" style="stroke:#000000; stroke-linecap:round; stroke-linejoin:round; stroke-width:2; stroke-opacity:0.1; fill:none" points="1797.14,1423.18 1797.14,47.2441 "/>
<polyline clip-path="url(#clip242)" style="stroke:#000000; stroke-linecap:round; stroke-linejoin:round; stroke-width:2; stroke-opacity:0.1; fill:none" points="2293.23,1423.18 2293.23,47.2441 "/>
<polyline clip-path="url(#clip242)" style="stroke:#000000; stroke-linecap:round; stroke-linejoin:round; stroke-width:2; stroke-opacity:0.1; fill:none" points="249.357,1353.53 2352.76,1353.53 "/>
<polyline clip-path="url(#clip242)" style="stroke:#000000; stroke-linecap:round; stroke-linejoin:round; stroke-width:2; stroke-opacity:0.1; fill:none" points="249.357,1115.04 2352.76,1115.04 "/>
<polyline clip-path="url(#clip242)" style="stroke:#000000; stroke-linecap:round; stroke-linejoin:round; stroke-width:2; stroke-opacity:0.1; fill:none" points="249.357,876.559 2352.76,876.559 "/>
<polyline clip-path="url(#clip242)" style="stroke:#000000; stroke-linecap:round; stroke-linejoin:round; stroke-width:2; stroke-opacity:0.1; fill:none" points="249.357,638.073 2352.76,638.073 "/>
<polyline clip-path="url(#clip242)" style="stroke:#000000; stroke-linecap:round; stroke-linejoin:round; stroke-width:2; stroke-opacity:0.1; fill:none" points="249.357,399.587 2352.76,399.587 "/>
<polyline clip-path="url(#clip242)" style="stroke:#000000; stroke-linecap:round; stroke-linejoin:round; stroke-width:2; stroke-opacity:0.1; fill:none" points="249.357,161.101 2352.76,161.101 "/>
<polyline clip-path="url(#clip240)" style="stroke:#000000; stroke-linecap:round; stroke-linejoin:round; stroke-width:4; stroke-opacity:1; fill:none" points="249.357,1423.18 2352.76,1423.18 "/>
<polyline clip-path="url(#clip240)" style="stroke:#000000; stroke-linecap:round; stroke-linejoin:round; stroke-width:4; stroke-opacity:1; fill:none" points="308.887,1423.18 308.887,1404.28 "/>
<polyline clip-path="url(#clip240)" style="stroke:#000000; stroke-linecap:round; stroke-linejoin:round; stroke-width:4; stroke-opacity:1; fill:none" points="804.972,1423.18 804.972,1404.28 "/>
<polyline clip-path="url(#clip240)" style="stroke:#000000; stroke-linecap:round; stroke-linejoin:round; stroke-width:4; stroke-opacity:1; fill:none" points="1301.06,1423.18 1301.06,1404.28 "/>
<polyline clip-path="url(#clip240)" style="stroke:#000000; stroke-linecap:round; stroke-linejoin:round; stroke-width:4; stroke-opacity:1; fill:none" points="1797.14,1423.18 1797.14,1404.28 "/>
<polyline clip-path="url(#clip240)" style="stroke:#000000; stroke-linecap:round; stroke-linejoin:round; stroke-width:4; stroke-opacity:1; fill:none" points="2293.23,1423.18 2293.23,1404.28 "/>
<path clip-path="url(#clip240)" d="M249.964 1481.64 L266.283 1481.64 L266.283 1485.58 L244.339 1485.58 L244.339 1481.64 Q247.001 1478.89 251.584 1474.26 Q256.191 1469.61 257.371 1468.27 Q259.616 1465.74 260.496 1464.01 Q261.399 1462.25 261.399 1460.56 Q261.399 1457.8 259.454 1456.07 Q257.533 1454.33 254.431 1454.33 Q252.232 1454.33 249.779 1455.09 Q247.348 1455.86 244.57 1457.41 L244.57 1452.69 Q247.394 1451.55 249.848 1450.97 Q252.302 1450.39 254.339 1450.39 Q259.709 1450.39 262.903 1453.08 Q266.098 1455.77 266.098 1460.26 Q266.098 1462.39 265.288 1464.31 Q264.501 1466.2 262.394 1468.8 Q261.816 1469.47 258.714 1472.69 Q255.612 1475.88 249.964 1481.64 Z" fill="#000000" fill-rule="nonzero" fill-opacity="1" /><path clip-path="url(#clip240)" d="M288.945 1455.09 L277.139 1473.54 L288.945 1473.54 L288.945 1455.09 M287.718 1451.02 L293.598 1451.02 L293.598 1473.54 L298.528 1473.54 L298.528 1477.43 L293.598 1477.43 L293.598 1485.58 L288.945 1485.58 L288.945 1477.43 L273.343 1477.43 L273.343 1472.92 L287.718 1451.02 Z" fill="#000000" fill-rule="nonzero" fill-opacity="1" /><path clip-path="url(#clip240)" d="M306.26 1479.7 L311.144 1479.7 L311.144 1485.58 L306.26 1485.58 L306.26 1479.7 Z" fill="#000000" fill-rule="nonzero" fill-opacity="1" /><path clip-path="url(#clip240)" d="M321.468 1484.86 L321.468 1480.6 Q323.227 1481.44 325.033 1481.88 Q326.838 1482.32 328.574 1482.32 Q333.204 1482.32 335.635 1479.21 Q338.088 1476.09 338.435 1469.75 Q337.093 1471.74 335.033 1472.8 Q332.973 1473.87 330.473 1473.87 Q325.287 1473.87 322.255 1470.74 Q319.246 1467.59 319.246 1462.15 Q319.246 1456.83 322.394 1453.61 Q325.542 1450.39 330.773 1450.39 Q336.769 1450.39 339.917 1455 Q343.088 1459.58 343.088 1468.33 Q343.088 1476.51 339.199 1481.39 Q335.334 1486.25 328.783 1486.25 Q327.023 1486.25 325.218 1485.9 Q323.412 1485.56 321.468 1484.86 M330.773 1470.21 Q333.922 1470.21 335.75 1468.06 Q337.602 1465.9 337.602 1462.15 Q337.602 1458.43 335.75 1456.27 Q333.922 1454.1 330.773 1454.1 Q327.625 1454.1 325.773 1456.27 Q323.945 1458.43 323.945 1462.15 Q323.945 1465.9 325.773 1468.06 Q327.625 1470.21 330.773 1470.21 Z" fill="#000000" fill-rule="nonzero" fill-opacity="1" /><path clip-path="url(#clip240)" d="M361.491 1454.1 Q357.88 1454.1 356.051 1457.66 Q354.246 1461.2 354.246 1468.33 Q354.246 1475.44 356.051 1479.01 Q357.88 1482.55 361.491 1482.55 Q365.125 1482.55 366.931 1479.01 Q368.759 1475.44 368.759 1468.33 Q368.759 1461.2 366.931 1457.66 Q365.125 1454.1 361.491 1454.1 M361.491 1450.39 Q367.301 1450.39 370.357 1455 Q373.435 1459.58 373.435 1468.33 Q373.435 1477.06 370.357 1481.67 Q367.301 1486.25 361.491 1486.25 Q355.681 1486.25 352.602 1481.67 Q349.547 1477.06 349.547 1468.33 Q349.547 1459.58 352.602 1455 Q355.681 1450.39 361.491 1450.39 Z" fill="#000000" fill-rule="nonzero" fill-opacity="1" /><path clip-path="url(#clip240)" d="M746.546 1481.64 L762.865 1481.64 L762.865 1485.58 L740.921 1485.58 L740.921 1481.64 Q743.583 1478.89 748.166 1474.26 Q752.773 1469.61 753.953 1468.27 Q756.199 1465.74 757.078 1464.01 Q757.981 1462.25 757.981 1460.56 Q757.981 1457.8 756.037 1456.07 Q754.115 1454.33 751.014 1454.33 Q748.815 1454.33 746.361 1455.09 Q743.93 1455.86 741.153 1457.41 L741.153 1452.69 Q743.977 1451.55 746.43 1450.97 Q748.884 1450.39 750.921 1450.39 Q756.291 1450.39 759.486 1453.08 Q762.68 1455.77 762.68 1460.26 Q762.68 1462.39 761.87 1464.31 Q761.083 1466.2 758.977 1468.8 Q758.398 1469.47 755.296 1472.69 Q752.194 1475.88 746.546 1481.64 Z" fill="#000000" fill-rule="nonzero" fill-opacity="1" /><path clip-path="url(#clip240)" d="M785.527 1455.09 L773.722 1473.54 L785.527 1473.54 L785.527 1455.09 M784.301 1451.02 L790.18 1451.02 L790.18 1473.54 L795.111 1473.54 L795.111 1477.43 L790.18 1477.43 L790.18 1485.58 L785.527 1485.58 L785.527 1477.43 L769.926 1477.43 L769.926 1472.92 L784.301 1451.02 Z" fill="#000000" fill-rule="nonzero" fill-opacity="1" /><path clip-path="url(#clip240)" d="M802.842 1479.7 L807.726 1479.7 L807.726 1485.58 L802.842 1485.58 L802.842 1479.7 Z" fill="#000000" fill-rule="nonzero" fill-opacity="1" /><path clip-path="url(#clip240)" d="M818.05 1484.86 L818.05 1480.6 Q819.81 1481.44 821.615 1481.88 Q823.421 1482.32 825.157 1482.32 Q829.786 1482.32 832.217 1479.21 Q834.671 1476.09 835.018 1469.75 Q833.675 1471.74 831.615 1472.8 Q829.555 1473.87 827.055 1473.87 Q821.87 1473.87 818.837 1470.74 Q815.828 1467.59 815.828 1462.15 Q815.828 1456.83 818.976 1453.61 Q822.124 1450.39 827.356 1450.39 Q833.351 1450.39 836.499 1455 Q839.671 1459.58 839.671 1468.33 Q839.671 1476.51 835.782 1481.39 Q831.916 1486.25 825.365 1486.25 Q823.606 1486.25 821.8 1485.9 Q819.995 1485.56 818.05 1484.86 M827.356 1470.21 Q830.504 1470.21 832.333 1468.06 Q834.185 1465.9 834.185 1462.15 Q834.185 1458.43 832.333 1456.27 Q830.504 1454.1 827.356 1454.1 Q824.208 1454.1 822.356 1456.27 Q820.527 1458.43 820.527 1462.15 Q820.527 1465.9 822.356 1468.06 Q824.208 1470.21 827.356 1470.21 Z" fill="#000000" fill-rule="nonzero" fill-opacity="1" /><path clip-path="url(#clip240)" d="M848.12 1451.02 L866.476 1451.02 L866.476 1454.96 L852.402 1454.96 L852.402 1463.43 Q853.421 1463.08 854.439 1462.92 Q855.458 1462.73 856.476 1462.73 Q862.263 1462.73 865.643 1465.9 Q869.022 1469.08 869.022 1474.49 Q869.022 1480.07 865.55 1483.17 Q862.078 1486.25 855.758 1486.25 Q853.583 1486.25 851.314 1485.88 Q849.069 1485.51 846.661 1484.77 L846.661 1480.07 Q848.745 1481.2 850.967 1481.76 Q853.189 1482.32 855.666 1482.32 Q859.67 1482.32 862.008 1480.21 Q864.346 1478.1 864.346 1474.49 Q864.346 1470.88 862.008 1468.77 Q859.67 1466.67 855.666 1466.67 Q853.791 1466.67 851.916 1467.08 Q850.064 1467.5 848.12 1468.38 L848.12 1451.02 Z" fill="#000000" fill-rule="nonzero" fill-opacity="1" /><path clip-path="url(#clip240)" d="M1242.13 1481.64 L1258.45 1481.64 L1258.45 1485.58 L1236.51 1485.58 L1236.51 1481.64 Q1239.17 1478.89 1243.75 1474.26 Q1248.36 1469.61 1249.54 1468.27 Q1251.79 1465.74 1252.67 1464.01 Q1253.57 1462.25 1253.57 1460.56 Q1253.57 1457.8 1251.62 1456.07 Q1249.7 1454.33 1246.6 1454.33 Q1244.4 1454.33 1241.95 1455.09 Q1239.52 1455.86 1236.74 1457.41 L1236.74 1452.69 Q1239.56 1451.55 1242.02 1450.97 Q1244.47 1450.39 1246.51 1450.39 Q1251.88 1450.39 1255.07 1453.08 Q1258.27 1455.77 1258.27 1460.26 Q1258.27 1462.39 1257.46 1464.31 Q1256.67 1466.2 1254.56 1468.8 Q1253.98 1469.47 1250.88 1472.69 Q1247.78 1475.88 1242.13 1481.64 Z" fill="#000000" fill-rule="nonzero" fill-opacity="1" /><path clip-path="url(#clip240)" d="M1268.31 1451.02 L1286.67 1451.02 L1286.67 1454.96 L1272.6 1454.96 L1272.6 1463.43 Q1273.61 1463.08 1274.63 1462.92 Q1275.65 1462.73 1276.67 1462.73 Q1282.46 1462.73 1285.84 1465.9 Q1289.22 1469.08 1289.22 1474.49 Q1289.22 1480.07 1285.74 1483.17 Q1282.27 1486.25 1275.95 1486.25 Q1273.78 1486.25 1271.51 1485.88 Q1269.26 1485.51 1266.86 1484.77 L1266.86 1480.07 Q1268.94 1481.2 1271.16 1481.76 Q1273.38 1482.32 1275.86 1482.32 Q1279.86 1482.32 1282.2 1480.21 Q1284.54 1478.1 1284.54 1474.49 Q1284.54 1470.88 1282.2 1468.77 Q1279.86 1466.67 1275.86 1466.67 Q1273.98 1466.67 1272.11 1467.08 Q1270.26 1467.5 1268.31 1468.38 L1268.31 1451.02 Z" fill="#000000" fill-rule="nonzero" fill-opacity="1" /><path clip-path="url(#clip240)" d="M1298.43 1479.7 L1303.31 1479.7 L1303.31 1485.58 L1298.43 1485.58 L1298.43 1479.7 Z" fill="#000000" fill-rule="nonzero" fill-opacity="1" /><path clip-path="url(#clip240)" d="M1323.5 1454.1 Q1319.89 1454.1 1318.06 1457.66 Q1316.25 1461.2 1316.25 1468.33 Q1316.25 1475.44 1318.06 1479.01 Q1319.89 1482.55 1323.5 1482.55 Q1327.13 1482.55 1328.94 1479.01 Q1330.77 1475.44 1330.77 1468.33 Q1330.77 1461.2 1328.94 1457.66 Q1327.13 1454.1 1323.5 1454.1 M1323.5 1450.39 Q1329.31 1450.39 1332.36 1455 Q1335.44 1459.58 1335.44 1468.33 Q1335.44 1477.06 1332.36 1481.67 Q1329.31 1486.25 1323.5 1486.25 Q1317.69 1486.25 1314.61 1481.67 Q1311.55 1477.06 1311.55 1468.33 Q1311.55 1459.58 1314.61 1455 Q1317.69 1450.39 1323.5 1450.39 Z" fill="#000000" fill-rule="nonzero" fill-opacity="1" /><path clip-path="url(#clip240)" d="M1353.66 1454.1 Q1350.05 1454.1 1348.22 1457.66 Q1346.41 1461.2 1346.41 1468.33 Q1346.41 1475.44 1348.22 1479.01 Q1350.05 1482.55 1353.66 1482.55 Q1357.29 1482.55 1359.1 1479.01 Q1360.93 1475.44 1360.93 1468.33 Q1360.93 1461.2 1359.1 1457.66 Q1357.29 1454.1 1353.66 1454.1 M1353.66 1450.39 Q1359.47 1450.39 1362.53 1455 Q1365.6 1459.58 1365.6 1468.33 Q1365.6 1477.06 1362.53 1481.67 Q1359.47 1486.25 1353.66 1486.25 Q1347.85 1486.25 1344.77 1481.67 Q1341.72 1477.06 1341.72 1468.33 Q1341.72 1459.58 1344.77 1455 Q1347.85 1450.39 1353.66 1450.39 Z" fill="#000000" fill-rule="nonzero" fill-opacity="1" /><path clip-path="url(#clip240)" d="M1738.72 1481.64 L1755.03 1481.64 L1755.03 1485.58 L1733.09 1485.58 L1733.09 1481.64 Q1735.75 1478.89 1740.34 1474.26 Q1744.94 1469.61 1746.12 1468.27 Q1748.37 1465.74 1749.25 1464.01 Q1750.15 1462.25 1750.15 1460.56 Q1750.15 1457.8 1748.21 1456.07 Q1746.28 1454.33 1743.18 1454.33 Q1740.98 1454.33 1738.53 1455.09 Q1736.1 1455.86 1733.32 1457.41 L1733.32 1452.69 Q1736.15 1451.55 1738.6 1450.97 Q1741.05 1450.39 1743.09 1450.39 Q1748.46 1450.39 1751.66 1453.08 Q1754.85 1455.77 1754.85 1460.26 Q1754.85 1462.39 1754.04 1464.31 Q1753.25 1466.2 1751.15 1468.8 Q1750.57 1469.47 1747.47 1472.69 Q1744.36 1475.88 1738.72 1481.64 Z" fill="#000000" fill-rule="nonzero" fill-opacity="1" /><path clip-path="url(#clip240)" d="M1764.9 1451.02 L1783.25 1451.02 L1783.25 1454.96 L1769.18 1454.96 L1769.18 1463.43 Q1770.2 1463.08 1771.22 1462.92 Q1772.23 1462.73 1773.25 1462.73 Q1779.04 1462.73 1782.42 1465.9 Q1785.8 1469.08 1785.8 1474.49 Q1785.8 1480.07 1782.33 1483.17 Q1778.85 1486.25 1772.53 1486.25 Q1770.36 1486.25 1768.09 1485.88 Q1765.84 1485.51 1763.44 1484.77 L1763.44 1480.07 Q1765.52 1481.2 1767.74 1481.76 Q1769.97 1482.32 1772.44 1482.32 Q1776.45 1482.32 1778.78 1480.21 Q1781.12 1478.1 1781.12 1474.49 Q1781.12 1470.88 1778.78 1468.77 Q1776.45 1466.67 1772.44 1466.67 Q1770.57 1466.67 1768.69 1467.08 Q1766.84 1467.5 1764.9 1468.38 L1764.9 1451.02 Z" fill="#000000" fill-rule="nonzero" fill-opacity="1" /><path clip-path="url(#clip240)" d="M1795.01 1479.7 L1799.9 1479.7 L1799.9 1485.58 L1795.01 1485.58 L1795.01 1479.7 Z" fill="#000000" fill-rule="nonzero" fill-opacity="1" /><path clip-path="url(#clip240)" d="M1820.08 1454.1 Q1816.47 1454.1 1814.64 1457.66 Q1812.84 1461.2 1812.84 1468.33 Q1812.84 1475.44 1814.64 1479.01 Q1816.47 1482.55 1820.08 1482.55 Q1823.71 1482.55 1825.52 1479.01 Q1827.35 1475.44 1827.35 1468.33 Q1827.35 1461.2 1825.52 1457.66 Q1823.71 1454.1 1820.08 1454.1 M1820.08 1450.39 Q1825.89 1450.39 1828.95 1455 Q1832.03 1459.58 1832.03 1468.33 Q1832.03 1477.06 1828.95 1481.67 Q1825.89 1486.25 1820.08 1486.25 Q1814.27 1486.25 1811.19 1481.67 Q1808.14 1477.06 1808.14 1468.33 Q1808.14 1459.58 1811.19 1455 Q1814.27 1450.39 1820.08 1450.39 Z" fill="#000000" fill-rule="nonzero" fill-opacity="1" /><path clip-path="url(#clip240)" d="M1840.29 1451.02 L1858.65 1451.02 L1858.65 1454.96 L1844.57 1454.96 L1844.57 1463.43 Q1845.59 1463.08 1846.61 1462.92 Q1847.63 1462.73 1848.65 1462.73 Q1854.43 1462.73 1857.81 1465.9 Q1861.19 1469.08 1861.19 1474.49 Q1861.19 1480.07 1857.72 1483.17 Q1854.25 1486.25 1847.93 1486.25 Q1845.75 1486.25 1843.48 1485.88 Q1841.24 1485.51 1838.83 1484.77 L1838.83 1480.07 Q1840.91 1481.2 1843.14 1481.76 Q1845.36 1482.32 1847.84 1482.32 Q1851.84 1482.32 1854.18 1480.21 Q1856.52 1478.1 1856.52 1474.49 Q1856.52 1470.88 1854.18 1468.77 Q1851.84 1466.67 1847.84 1466.67 Q1845.96 1466.67 1844.09 1467.08 Q1842.23 1467.5 1840.29 1468.38 L1840.29 1451.02 Z" fill="#000000" fill-rule="nonzero" fill-opacity="1" /><path clip-path="url(#clip240)" d="M2234.3 1481.64 L2250.62 1481.64 L2250.62 1485.58 L2228.68 1485.58 L2228.68 1481.64 Q2231.34 1478.89 2235.92 1474.26 Q2240.53 1469.61 2241.71 1468.27 Q2243.96 1465.74 2244.83 1464.01 Q2245.74 1462.25 2245.74 1460.56 Q2245.74 1457.8 2243.79 1456.07 Q2241.87 1454.33 2238.77 1454.33 Q2236.57 1454.33 2234.12 1455.09 Q2231.69 1455.86 2228.91 1457.41 L2228.91 1452.69 Q2231.73 1451.55 2234.19 1450.97 Q2236.64 1450.39 2238.68 1450.39 Q2244.05 1450.39 2247.24 1453.08 Q2250.44 1455.77 2250.44 1460.26 Q2250.44 1462.39 2249.63 1464.31 Q2248.84 1466.2 2246.73 1468.8 Q2246.15 1469.47 2243.05 1472.69 Q2239.95 1475.88 2234.3 1481.64 Z" fill="#000000" fill-rule="nonzero" fill-opacity="1" /><path clip-path="url(#clip240)" d="M2260.48 1451.02 L2278.84 1451.02 L2278.84 1454.96 L2264.77 1454.96 L2264.77 1463.43 Q2265.78 1463.08 2266.8 1462.92 Q2267.82 1462.73 2268.84 1462.73 Q2274.63 1462.73 2278.01 1465.9 Q2281.39 1469.08 2281.39 1474.49 Q2281.39 1480.07 2277.91 1483.17 Q2274.44 1486.25 2268.12 1486.25 Q2265.95 1486.25 2263.68 1485.88 Q2261.43 1485.51 2259.02 1484.77 L2259.02 1480.07 Q2261.11 1481.2 2263.33 1481.76 Q2265.55 1482.32 2268.03 1482.32 Q2272.03 1482.32 2274.37 1480.21 Q2276.71 1478.1 2276.71 1474.49 Q2276.71 1470.88 2274.37 1468.77 Q2272.03 1466.67 2268.03 1466.67 Q2266.15 1466.67 2264.28 1467.08 Q2262.43 1467.5 2260.48 1468.38 L2260.48 1451.02 Z" fill="#000000" fill-rule="nonzero" fill-opacity="1" /><path clip-path="url(#clip240)" d="M2290.6 1479.7 L2295.48 1479.7 L2295.48 1485.58 L2290.6 1485.58 L2290.6 1479.7 Z" fill="#000000" fill-rule="nonzero" fill-opacity="1" /><path clip-path="url(#clip240)" d="M2306.48 1481.64 L2314.12 1481.64 L2314.12 1455.28 L2305.81 1456.95 L2305.81 1452.69 L2314.07 1451.02 L2318.75 1451.02 L2318.75 1481.64 L2326.39 1481.64 L2326.39 1485.58 L2306.48 1485.58 L2306.48 1481.64 Z" fill="#000000" fill-rule="nonzero" fill-opacity="1" /><path clip-path="url(#clip240)" d="M2345.83 1454.1 Q2342.22 1454.1 2340.39 1457.66 Q2338.58 1461.2 2338.58 1468.33 Q2338.58 1475.44 2340.39 1479.01 Q2342.22 1482.55 2345.83 1482.55 Q2349.46 1482.55 2351.27 1479.01 Q2353.1 1475.44 2353.1 1468.33 Q2353.1 1461.2 2351.27 1457.66 Q2349.46 1454.1 2345.83 1454.1 M2345.83 1450.39 Q2351.64 1450.39 2354.7 1455 Q2357.77 1459.58 2357.77 1468.33 Q2357.77 1477.06 2354.7 1481.67 Q2351.64 1486.25 2345.83 1486.25 Q2340.02 1486.25 2336.94 1481.67 Q2333.89 1477.06 2333.89 1468.33 Q2333.89 1459.58 2336.94 1455 Q2340.02 1450.39 2345.83 1450.39 Z" fill="#000000" fill-rule="nonzero" fill-opacity="1" /><path clip-path="url(#clip240)" d="M1009.22 1520.52 L1036.53 1520.52 L1036.53 1525.93 L1015.65 1525.93 L1015.65 1539.94 L1034.49 1539.94 L1034.49 1545.35 L1015.65 1545.35 L1015.65 1568.04 L1009.22 1568.04 L1009.22 1520.52 Z" fill="#000000" fill-rule="nonzero" fill-opacity="1" /><path clip-path="url(#clip240)" d="M1062.37 1537.87 Q1061.39 1537.3 1060.21 1537.04 Q1059.06 1536.76 1057.66 1536.76 Q1052.7 1536.76 1050.02 1540 Q1047.38 1543.22 1047.38 1549.27 L1047.38 1568.04 L1041.49 1568.04 L1041.49 1532.4 L1047.38 1532.4 L1047.38 1537.93 Q1049.23 1534.69 1052.19 1533.13 Q1055.15 1531.54 1059.38 1531.54 Q1059.99 1531.54 1060.72 1531.63 Q1061.45 1531.7 1062.34 1531.85 L1062.37 1537.87 Z" fill="#000000" fill-rule="nonzero" fill-opacity="1" /><path clip-path="url(#clip240)" d="M1097.58 1548.76 L1097.58 1551.62 L1070.65 1551.62 Q1071.03 1557.67 1074.28 1560.85 Q1077.56 1564 1083.38 1564 Q1086.75 1564 1089.91 1563.17 Q1093.09 1562.35 1096.21 1560.69 L1096.21 1566.23 Q1093.06 1567.57 1089.75 1568.27 Q1086.44 1568.97 1083.03 1568.97 Q1074.5 1568.97 1069.5 1564 Q1064.54 1559.04 1064.54 1550.57 Q1064.54 1541.82 1069.25 1536.69 Q1073.99 1531.54 1082.01 1531.54 Q1089.21 1531.54 1093.38 1536.18 Q1097.58 1540.8 1097.58 1548.76 M1091.72 1547.04 Q1091.66 1542.23 1089.01 1539.37 Q1086.4 1536.5 1082.08 1536.5 Q1077.17 1536.5 1074.21 1539.27 Q1071.29 1542.04 1070.84 1547.07 L1091.72 1547.04 Z" fill="#000000" fill-rule="nonzero" fill-opacity="1" /><path clip-path="url(#clip240)" d="M1110.69 1550.25 Q1110.69 1556.71 1113.33 1560.4 Q1116.01 1564.07 1120.65 1564.07 Q1125.3 1564.07 1127.97 1560.4 Q1130.65 1556.71 1130.65 1550.25 Q1130.65 1543.79 1127.97 1540.13 Q1125.3 1536.44 1120.65 1536.44 Q1116.01 1536.44 1113.33 1540.13 Q1110.69 1543.79 1110.69 1550.25 M1130.65 1562.7 Q1128.8 1565.88 1125.97 1567.44 Q1123.17 1568.97 1119.22 1568.97 Q1112.76 1568.97 1108.68 1563.81 Q1104.64 1558.65 1104.64 1550.25 Q1104.64 1541.85 1108.68 1536.69 Q1112.76 1531.54 1119.22 1531.54 Q1123.17 1531.54 1125.97 1533.1 Q1128.8 1534.62 1130.65 1537.81 L1130.65 1532.4 L1136.5 1532.4 L1136.5 1581.6 L1130.65 1581.6 L1130.65 1562.7 Z" fill="#000000" fill-rule="nonzero" fill-opacity="1" /><path clip-path="url(#clip240)" d="M1147.96 1553.98 L1147.96 1532.4 L1153.82 1532.4 L1153.82 1553.75 Q1153.82 1558.81 1155.79 1561.36 Q1157.76 1563.87 1161.71 1563.87 Q1166.45 1563.87 1169.19 1560.85 Q1171.96 1557.83 1171.96 1552.61 L1171.96 1532.4 L1177.82 1532.4 L1177.82 1568.04 L1171.96 1568.04 L1171.96 1562.57 Q1169.83 1565.82 1166.99 1567.41 Q1164.19 1568.97 1160.47 1568.97 Q1154.33 1568.97 1151.14 1565.15 Q1147.96 1561.33 1147.96 1553.98 M1162.7 1531.54 L1162.7 1531.54 Z" fill="#000000" fill-rule="nonzero" fill-opacity="1" /><path clip-path="url(#clip240)" d="M1220.37 1548.76 L1220.37 1551.62 L1193.44 1551.62 Q1193.83 1557.67 1197.07 1560.85 Q1200.35 1564 1206.18 1564 Q1209.55 1564 1212.7 1563.17 Q1215.88 1562.35 1219 1560.69 L1219 1566.23 Q1215.85 1567.57 1212.54 1568.27 Q1209.23 1568.97 1205.83 1568.97 Q1197.3 1568.97 1192.3 1564 Q1187.33 1559.04 1187.33 1550.57 Q1187.33 1541.82 1192.04 1536.69 Q1196.79 1531.54 1204.81 1531.54 Q1212 1531.54 1216.17 1536.18 Q1220.37 1540.8 1220.37 1548.76 M1214.51 1547.04 Q1214.45 1542.23 1211.81 1539.37 Q1209.2 1536.5 1204.87 1536.5 Q1199.97 1536.5 1197.01 1539.27 Q1194.08 1542.04 1193.64 1547.07 L1214.51 1547.04 Z" fill="#000000" fill-rule="nonzero" fill-opacity="1" /><path clip-path="url(#clip240)" d="M1259.62 1546.53 L1259.62 1568.04 L1253.76 1568.04 L1253.76 1546.72 Q1253.76 1541.66 1251.79 1539.14 Q1249.81 1536.63 1245.87 1536.63 Q1241.12 1536.63 1238.39 1539.65 Q1235.65 1542.68 1235.65 1547.9 L1235.65 1568.04 L1229.76 1568.04 L1229.76 1532.4 L1235.65 1532.4 L1235.65 1537.93 Q1237.75 1534.72 1240.58 1533.13 Q1243.45 1531.54 1247.17 1531.54 Q1253.31 1531.54 1256.46 1535.36 Q1259.62 1539.14 1259.62 1546.53 Z" fill="#000000" fill-rule="nonzero" fill-opacity="1" /><path clip-path="url(#clip240)" d="M1296.95 1533.76 L1296.95 1539.24 Q1294.47 1537.87 1291.95 1537.2 Q1289.47 1536.5 1286.92 1536.5 Q1281.23 1536.5 1278.08 1540.13 Q1274.93 1543.73 1274.93 1550.25 Q1274.93 1556.78 1278.08 1560.4 Q1281.23 1564 1286.92 1564 Q1289.47 1564 1291.95 1563.33 Q1294.47 1562.63 1296.95 1561.26 L1296.95 1566.68 Q1294.5 1567.82 1291.86 1568.39 Q1289.25 1568.97 1286.29 1568.97 Q1278.24 1568.97 1273.49 1563.91 Q1268.75 1558.85 1268.75 1550.25 Q1268.75 1541.53 1273.52 1536.53 Q1278.33 1531.54 1286.67 1531.54 Q1289.38 1531.54 1291.95 1532.11 Q1294.53 1532.65 1296.95 1533.76 Z" fill="#000000" fill-rule="nonzero" fill-opacity="1" /><path clip-path="url(#clip240)" d="M1307.14 1532.4 L1312.99 1532.4 L1312.99 1568.04 L1307.14 1568.04 L1307.14 1532.4 M1307.14 1518.52 L1312.99 1518.52 L1312.99 1525.93 L1307.14 1525.93 L1307.14 1518.52 Z" fill="#000000" fill-rule="nonzero" fill-opacity="1" /><path clip-path="url(#clip240)" d="M1355.74 1548.76 L1355.74 1551.62 L1328.81 1551.62 Q1329.19 1557.67 1332.44 1560.85 Q1335.72 1564 1341.54 1564 Q1344.92 1564 1348.07 1563.17 Q1351.25 1562.35 1354.37 1560.69 L1354.37 1566.23 Q1351.22 1567.57 1347.91 1568.27 Q1344.6 1568.97 1341.19 1568.97 Q1332.66 1568.97 1327.67 1564 Q1322.7 1559.04 1322.7 1550.57 Q1322.7 1541.82 1327.41 1536.69 Q1332.15 1531.54 1340.17 1531.54 Q1347.37 1531.54 1351.54 1536.18 Q1355.74 1540.8 1355.74 1548.76 M1349.88 1547.04 Q1349.82 1542.23 1347.18 1539.37 Q1344.57 1536.5 1340.24 1536.5 Q1335.34 1536.5 1332.38 1539.27 Q1329.45 1542.04 1329 1547.07 L1349.88 1547.04 Z" fill="#000000" fill-rule="nonzero" fill-opacity="1" /><path clip-path="url(#clip240)" d="M1388.08 1533.45 L1388.08 1538.98 Q1385.59 1537.71 1382.92 1537.07 Q1380.25 1536.44 1377.38 1536.44 Q1373.02 1536.44 1370.82 1537.77 Q1368.66 1539.11 1368.66 1541.79 Q1368.66 1543.82 1370.22 1545 Q1371.78 1546.15 1376.49 1547.2 L1378.5 1547.64 Q1384.73 1548.98 1387.34 1551.43 Q1389.99 1553.85 1389.99 1558.21 Q1389.99 1563.17 1386.04 1566.07 Q1382.12 1568.97 1375.25 1568.97 Q1372.38 1568.97 1369.26 1568.39 Q1366.18 1567.85 1362.74 1566.74 L1362.74 1560.69 Q1365.99 1562.38 1369.14 1563.24 Q1372.29 1564.07 1375.38 1564.07 Q1379.51 1564.07 1381.74 1562.66 Q1383.97 1561.23 1383.97 1558.65 Q1383.97 1556.27 1382.35 1554.99 Q1380.76 1553.72 1375.31 1552.54 L1373.28 1552.07 Q1367.83 1550.92 1365.41 1548.56 Q1362.99 1546.18 1362.99 1542.04 Q1362.99 1537.01 1366.56 1534.27 Q1370.12 1531.54 1376.68 1531.54 Q1379.93 1531.54 1382.79 1532.01 Q1385.66 1532.49 1388.08 1533.45 Z" fill="#000000" fill-rule="nonzero" fill-opacity="1" /><path clip-path="url(#clip240)" d="M1419.49 1518.52 L1432.99 1518.52 L1432.99 1523.07 L1425.35 1523.07 L1425.35 1572.09 L1432.99 1572.09 L1432.99 1576.64 L1419.49 1576.64 L1419.49 1518.52 Z" fill="#000000" fill-rule="nonzero" fill-opacity="1" /><path clip-path="url(#clip240)" d="M1478.12 1561.26 L1478.12 1548.5 L1467.62 1548.5 L1467.62 1543.22 L1484.48 1543.22 L1484.48 1563.62 Q1480.76 1566.26 1476.27 1567.63 Q1471.78 1568.97 1466.69 1568.97 Q1455.55 1568.97 1449.25 1562.47 Q1442.98 1555.95 1442.98 1544.33 Q1442.98 1532.68 1449.25 1526.19 Q1455.55 1519.66 1466.69 1519.66 Q1471.34 1519.66 1475.51 1520.81 Q1479.71 1521.96 1483.24 1524.18 L1483.24 1531.03 Q1479.68 1528 1475.67 1526.48 Q1471.66 1524.95 1467.23 1524.95 Q1458.51 1524.95 1454.12 1529.82 Q1449.76 1534.69 1449.76 1544.33 Q1449.76 1553.94 1454.12 1558.81 Q1458.51 1563.68 1467.23 1563.68 Q1470.64 1563.68 1473.31 1563.11 Q1475.99 1562.51 1478.12 1561.26 Z" fill="#000000" fill-rule="nonzero" fill-opacity="1" /><path clip-path="url(#clip240)" d="M1496.23 1520.52 L1502.66 1520.52 L1502.66 1540 L1526.02 1540 L1526.02 1520.52 L1532.45 1520.52 L1532.45 1568.04 L1526.02 1568.04 L1526.02 1545.41 L1502.66 1545.41 L1502.66 1568.04 L1496.23 1568.04 L1496.23 1520.52 Z" fill="#000000" fill-rule="nonzero" fill-opacity="1" /><path clip-path="url(#clip240)" d="M1542.44 1532.4 L1570.26 1532.4 L1570.26 1537.74 L1548.24 1563.37 L1570.26 1563.37 L1570.26 1568.04 L1541.65 1568.04 L1541.65 1562.7 L1563.67 1537.07 L1542.44 1537.07 L1542.44 1532.4 Z" fill="#000000" fill-rule="nonzero" fill-opacity="1" /><path clip-path="url(#clip240)" d="M1592.89 1518.52 L1592.89 1576.64 L1579.4 1576.64 L1579.4 1572.09 L1587 1572.09 L1587 1523.07 L1579.4 1523.07 L1579.4 1518.52 L1592.89 1518.52 Z" fill="#000000" fill-rule="nonzero" fill-opacity="1" /><polyline clip-path="url(#clip240)" style="stroke:#000000; stroke-linecap:round; stroke-linejoin:round; stroke-width:4; stroke-opacity:1; fill:none" points="249.357,1423.18 249.357,47.2441 "/>
<polyline clip-path="url(#clip240)" style="stroke:#000000; stroke-linecap:round; stroke-linejoin:round; stroke-width:4; stroke-opacity:1; fill:none" points="249.357,1353.53 268.254,1353.53 "/>
<polyline clip-path="url(#clip240)" style="stroke:#000000; stroke-linecap:round; stroke-linejoin:round; stroke-width:4; stroke-opacity:1; fill:none" points="249.357,1115.04 268.254,1115.04 "/>
<polyline clip-path="url(#clip240)" style="stroke:#000000; stroke-linecap:round; stroke-linejoin:round; stroke-width:4; stroke-opacity:1; fill:none" points="249.357,876.559 268.254,876.559 "/>
<polyline clip-path="url(#clip240)" style="stroke:#000000; stroke-linecap:round; stroke-linejoin:round; stroke-width:4; stroke-opacity:1; fill:none" points="249.357,638.073 268.254,638.073 "/>
<polyline clip-path="url(#clip240)" style="stroke:#000000; stroke-linecap:round; stroke-linejoin:round; stroke-width:4; stroke-opacity:1; fill:none" points="249.357,399.587 268.254,399.587 "/>
<polyline clip-path="url(#clip240)" style="stroke:#000000; stroke-linecap:round; stroke-linejoin:round; stroke-width:4; stroke-opacity:1; fill:none" points="249.357,161.101 268.254,161.101 "/>
<path clip-path="url(#clip240)" d="M126.691 1351.67 Q123.543 1351.67 121.691 1353.82 Q119.862 1355.97 119.862 1359.72 Q119.862 1363.45 121.691 1365.63 Q123.543 1367.78 126.691 1367.78 Q129.839 1367.78 131.667 1365.63 Q133.519 1363.45 133.519 1359.72 Q133.519 1355.97 131.667 1353.82 Q129.839 1351.67 126.691 1351.67 M135.973 1337.01 L135.973 1341.27 Q134.214 1340.44 132.408 1340 Q130.626 1339.56 128.867 1339.56 Q124.237 1339.56 121.783 1342.69 Q119.353 1345.81 119.006 1352.13 Q120.371 1350.12 122.431 1349.05 Q124.492 1347.96 126.968 1347.96 Q132.177 1347.96 135.186 1351.13 Q138.218 1354.28 138.218 1359.72 Q138.218 1365.05 135.07 1368.26 Q131.922 1371.48 126.691 1371.48 Q120.695 1371.48 117.524 1366.9 Q114.353 1362.29 114.353 1353.57 Q114.353 1345.37 118.242 1340.51 Q122.13 1335.63 128.681 1335.63 Q130.441 1335.63 132.223 1335.97 Q134.029 1336.32 135.973 1337.01 Z" fill="#000000" fill-rule="nonzero" fill-opacity="1" /><path clip-path="url(#clip240)" d="M146.32 1336.25 L164.677 1336.25 L164.677 1340.19 L150.603 1340.19 L150.603 1348.66 Q151.621 1348.31 152.64 1348.15 Q153.658 1347.96 154.677 1347.96 Q160.464 1347.96 163.843 1351.13 Q167.223 1354.31 167.223 1359.72 Q167.223 1365.3 163.751 1368.4 Q160.278 1371.48 153.959 1371.48 Q151.783 1371.48 149.515 1371.11 Q147.269 1370.74 144.862 1370 L144.862 1365.3 Q146.945 1366.44 149.167 1366.99 Q151.39 1367.55 153.866 1367.55 Q157.871 1367.55 160.209 1365.44 Q162.547 1363.33 162.547 1359.72 Q162.547 1356.11 160.209 1354 Q157.871 1351.9 153.866 1351.9 Q151.991 1351.9 150.116 1352.32 Q148.265 1352.73 146.32 1353.61 L146.32 1336.25 Z" fill="#000000" fill-rule="nonzero" fill-opacity="1" /><path clip-path="url(#clip240)" d="M176.436 1364.93 L181.32 1364.93 L181.32 1370.81 L176.436 1370.81 L176.436 1364.93 Z" fill="#000000" fill-rule="nonzero" fill-opacity="1" /><path clip-path="url(#clip240)" d="M201.505 1354.4 Q198.172 1354.4 196.25 1356.18 Q194.352 1357.96 194.352 1361.09 Q194.352 1364.21 196.25 1366 Q198.172 1367.78 201.505 1367.78 Q204.838 1367.78 206.76 1366 Q208.681 1364.19 208.681 1361.09 Q208.681 1357.96 206.76 1356.18 Q204.862 1354.4 201.505 1354.4 M196.829 1352.41 Q193.82 1351.67 192.13 1349.61 Q190.463 1347.55 190.463 1344.58 Q190.463 1340.44 193.403 1338.03 Q196.366 1335.63 201.505 1335.63 Q206.667 1335.63 209.607 1338.03 Q212.547 1340.44 212.547 1344.58 Q212.547 1347.55 210.857 1349.61 Q209.19 1351.67 206.204 1352.41 Q209.584 1353.19 211.459 1355.49 Q213.357 1357.78 213.357 1361.09 Q213.357 1366.11 210.278 1368.8 Q207.223 1371.48 201.505 1371.48 Q195.787 1371.48 192.709 1368.8 Q189.653 1366.11 189.653 1361.09 Q189.653 1357.78 191.551 1355.49 Q193.45 1353.19 196.829 1352.41 M195.116 1345.02 Q195.116 1347.71 196.783 1349.21 Q198.473 1350.72 201.505 1350.72 Q204.514 1350.72 206.204 1349.21 Q207.917 1347.71 207.917 1345.02 Q207.917 1342.34 206.204 1340.83 Q204.514 1339.33 201.505 1339.33 Q198.473 1339.33 196.783 1340.83 Q195.116 1342.34 195.116 1345.02 Z" fill="#000000" fill-rule="nonzero" fill-opacity="1" /><path clip-path="url(#clip240)" d="M126.783 1113.18 Q123.635 1113.18 121.783 1115.33 Q119.955 1117.49 119.955 1121.24 Q119.955 1124.96 121.783 1127.14 Q123.635 1129.29 126.783 1129.29 Q129.931 1129.29 131.76 1127.14 Q133.612 1124.96 133.612 1121.24 Q133.612 1117.49 131.76 1115.33 Q129.931 1113.18 126.783 1113.18 M136.066 1098.53 L136.066 1102.79 Q134.306 1101.95 132.501 1101.51 Q130.718 1101.07 128.959 1101.07 Q124.33 1101.07 121.876 1104.2 Q119.445 1107.32 119.098 1113.64 Q120.464 1111.63 122.524 1110.57 Q124.584 1109.48 127.061 1109.48 Q132.269 1109.48 135.279 1112.65 Q138.311 1115.8 138.311 1121.24 Q138.311 1126.56 135.163 1129.78 Q132.015 1133 126.783 1133 Q120.788 1133 117.617 1128.41 Q114.445 1123.81 114.445 1115.08 Q114.445 1106.88 118.334 1102.02 Q122.223 1097.14 128.774 1097.14 Q130.533 1097.14 132.316 1097.49 Q134.121 1097.83 136.066 1098.53 Z" fill="#000000" fill-rule="nonzero" fill-opacity="1" /><path clip-path="url(#clip240)" d="M146.413 1097.76 L164.769 1097.76 L164.769 1101.7 L150.695 1101.7 L150.695 1110.17 Q151.714 1109.82 152.732 1109.66 Q153.751 1109.48 154.769 1109.48 Q160.556 1109.48 163.936 1112.65 Q167.315 1115.82 167.315 1121.24 Q167.315 1126.82 163.843 1129.92 Q160.371 1133 154.052 1133 Q151.876 1133 149.607 1132.63 Q147.362 1132.26 144.954 1131.51 L144.954 1126.82 Q147.038 1127.95 149.26 1128.51 Q151.482 1129.06 153.959 1129.06 Q157.964 1129.06 160.302 1126.95 Q162.64 1124.85 162.64 1121.24 Q162.64 1117.63 160.302 1115.52 Q157.964 1113.41 153.959 1113.41 Q152.084 1113.41 150.209 1113.83 Q148.357 1114.25 146.413 1115.13 L146.413 1097.76 Z" fill="#000000" fill-rule="nonzero" fill-opacity="1" /><path clip-path="url(#clip240)" d="M176.528 1126.44 L181.413 1126.44 L181.413 1132.32 L176.528 1132.32 L176.528 1126.44 Z" fill="#000000" fill-rule="nonzero" fill-opacity="1" /><path clip-path="url(#clip240)" d="M191.737 1131.61 L191.737 1127.35 Q193.496 1128.18 195.301 1128.62 Q197.107 1129.06 198.843 1129.06 Q203.473 1129.06 205.903 1125.96 Q208.357 1122.83 208.704 1116.49 Q207.362 1118.48 205.301 1119.55 Q203.241 1120.61 200.741 1120.61 Q195.556 1120.61 192.524 1117.49 Q189.514 1114.34 189.514 1108.9 Q189.514 1103.57 192.663 1100.36 Q195.811 1097.14 201.042 1097.14 Q207.037 1097.14 210.186 1101.75 Q213.357 1106.33 213.357 1115.08 Q213.357 1123.25 209.468 1128.13 Q205.602 1133 199.051 1133 Q197.292 1133 195.487 1132.65 Q193.681 1132.3 191.737 1131.61 M201.042 1116.95 Q204.19 1116.95 206.019 1114.8 Q207.871 1112.65 207.871 1108.9 Q207.871 1105.17 206.019 1103.02 Q204.19 1100.84 201.042 1100.84 Q197.894 1100.84 196.042 1103.02 Q194.213 1105.17 194.213 1108.9 Q194.213 1112.65 196.042 1114.8 Q197.894 1116.95 201.042 1116.95 Z" fill="#000000" fill-rule="nonzero" fill-opacity="1" /><path clip-path="url(#clip240)" d="M126.598 874.695 Q123.45 874.695 121.598 876.848 Q119.769 879.001 119.769 882.751 Q119.769 886.478 121.598 888.653 Q123.45 890.806 126.598 890.806 Q129.746 890.806 131.575 888.653 Q133.427 886.478 133.427 882.751 Q133.427 879.001 131.575 876.848 Q129.746 874.695 126.598 874.695 M135.88 860.043 L135.88 864.302 Q134.121 863.468 132.316 863.029 Q130.533 862.589 128.774 862.589 Q124.144 862.589 121.691 865.714 Q119.26 868.839 118.913 875.158 Q120.279 873.144 122.339 872.079 Q124.399 870.992 126.876 870.992 Q132.084 870.992 135.093 874.163 Q138.126 877.311 138.126 882.751 Q138.126 888.075 134.978 891.292 Q131.83 894.51 126.598 894.51 Q120.603 894.51 117.431 889.927 Q114.26 885.32 114.26 876.593 Q114.26 868.399 118.149 863.538 Q122.038 858.654 128.589 858.654 Q130.348 858.654 132.13 859.001 Q133.936 859.348 135.88 860.043 Z" fill="#000000" fill-rule="nonzero" fill-opacity="1" /><path clip-path="url(#clip240)" d="M156.76 874.695 Q153.612 874.695 151.76 876.848 Q149.931 879.001 149.931 882.751 Q149.931 886.478 151.76 888.653 Q153.612 890.806 156.76 890.806 Q159.908 890.806 161.737 888.653 Q163.589 886.478 163.589 882.751 Q163.589 879.001 161.737 876.848 Q159.908 874.695 156.76 874.695 M166.042 860.043 L166.042 864.302 Q164.283 863.468 162.477 863.029 Q160.695 862.589 158.936 862.589 Q154.306 862.589 151.853 865.714 Q149.422 868.839 149.075 875.158 Q150.441 873.144 152.501 872.079 Q154.561 870.992 157.038 870.992 Q162.246 870.992 165.255 874.163 Q168.288 877.311 168.288 882.751 Q168.288 888.075 165.14 891.292 Q161.991 894.51 156.76 894.51 Q150.765 894.51 147.593 889.927 Q144.422 885.32 144.422 876.593 Q144.422 868.399 148.311 863.538 Q152.2 858.654 158.751 858.654 Q160.51 858.654 162.292 859.001 Q164.098 859.348 166.042 860.043 Z" fill="#000000" fill-rule="nonzero" fill-opacity="1" /><path clip-path="url(#clip240)" d="M176.343 887.959 L181.227 887.959 L181.227 893.839 L176.343 893.839 L176.343 887.959 Z" fill="#000000" fill-rule="nonzero" fill-opacity="1" /><path clip-path="url(#clip240)" d="M201.412 862.357 Q197.801 862.357 195.973 865.922 Q194.167 869.464 194.167 876.593 Q194.167 883.7 195.973 887.265 Q197.801 890.806 201.412 890.806 Q205.047 890.806 206.852 887.265 Q208.681 883.7 208.681 876.593 Q208.681 869.464 206.852 865.922 Q205.047 862.357 201.412 862.357 M201.412 858.654 Q207.223 858.654 210.278 863.26 Q213.357 867.843 213.357 876.593 Q213.357 885.32 210.278 889.927 Q207.223 894.51 201.412 894.51 Q195.602 894.51 192.524 889.927 Q189.468 885.32 189.468 876.593 Q189.468 867.843 192.524 863.26 Q195.602 858.654 201.412 858.654 Z" fill="#000000" fill-rule="nonzero" fill-opacity="1" /><path clip-path="url(#clip240)" d="M127.825 636.209 Q124.677 636.209 122.825 638.362 Q120.996 640.515 120.996 644.265 Q120.996 647.992 122.825 650.168 Q124.677 652.32 127.825 652.32 Q130.973 652.32 132.802 650.168 Q134.654 647.992 134.654 644.265 Q134.654 640.515 132.802 638.362 Q130.973 636.209 127.825 636.209 M137.107 621.557 L137.107 625.816 Q135.348 624.983 133.542 624.543 Q131.76 624.103 130.001 624.103 Q125.371 624.103 122.918 627.228 Q120.487 630.353 120.14 636.672 Q121.505 634.658 123.566 633.594 Q125.626 632.506 128.103 632.506 Q133.311 632.506 136.32 635.677 Q139.353 638.825 139.353 644.265 Q139.353 649.589 136.204 652.806 Q133.056 656.024 127.825 656.024 Q121.83 656.024 118.658 651.441 Q115.487 646.834 115.487 638.108 Q115.487 629.913 119.376 625.052 Q123.265 620.168 129.816 620.168 Q131.575 620.168 133.357 620.515 Q135.163 620.862 137.107 621.557 Z" fill="#000000" fill-rule="nonzero" fill-opacity="1" /><path clip-path="url(#clip240)" d="M157.987 636.209 Q154.839 636.209 152.987 638.362 Q151.158 640.515 151.158 644.265 Q151.158 647.992 152.987 650.168 Q154.839 652.32 157.987 652.32 Q161.135 652.32 162.964 650.168 Q164.815 647.992 164.815 644.265 Q164.815 640.515 162.964 638.362 Q161.135 636.209 157.987 636.209 M167.269 621.557 L167.269 625.816 Q165.51 624.983 163.704 624.543 Q161.922 624.103 160.163 624.103 Q155.533 624.103 153.079 627.228 Q150.649 630.353 150.302 636.672 Q151.667 634.658 153.728 633.594 Q155.788 632.506 158.265 632.506 Q163.473 632.506 166.482 635.677 Q169.514 638.825 169.514 644.265 Q169.514 649.589 166.366 652.806 Q163.218 656.024 157.987 656.024 Q151.991 656.024 148.82 651.441 Q145.649 646.834 145.649 638.108 Q145.649 629.913 149.538 625.052 Q153.427 620.168 159.978 620.168 Q161.737 620.168 163.519 620.515 Q165.325 620.862 167.269 621.557 Z" fill="#000000" fill-rule="nonzero" fill-opacity="1" /><path clip-path="url(#clip240)" d="M177.57 649.473 L182.454 649.473 L182.454 655.353 L177.57 655.353 L177.57 649.473 Z" fill="#000000" fill-rule="nonzero" fill-opacity="1" /><path clip-path="url(#clip240)" d="M193.45 651.418 L201.088 651.418 L201.088 625.052 L192.778 626.719 L192.778 622.459 L201.042 620.793 L205.718 620.793 L205.718 651.418 L213.357 651.418 L213.357 655.353 L193.45 655.353 L193.45 651.418 Z" fill="#000000" fill-rule="nonzero" fill-opacity="1" /><path clip-path="url(#clip240)" d="M128.195 397.724 Q125.047 397.724 123.195 399.876 Q121.367 402.029 121.367 405.779 Q121.367 409.506 123.195 411.682 Q125.047 413.835 128.195 413.835 Q131.343 413.835 133.172 411.682 Q135.024 409.506 135.024 405.779 Q135.024 402.029 133.172 399.876 Q131.343 397.724 128.195 397.724 M137.478 383.071 L137.478 387.33 Q135.718 386.497 133.913 386.057 Q132.13 385.617 130.371 385.617 Q125.742 385.617 123.288 388.742 Q120.857 391.867 120.51 398.186 Q121.876 396.173 123.936 395.108 Q125.996 394.02 128.473 394.02 Q133.681 394.02 136.691 397.191 Q139.723 400.339 139.723 405.779 Q139.723 411.103 136.575 414.321 Q133.427 417.538 128.195 417.538 Q122.2 417.538 119.029 412.955 Q115.857 408.348 115.857 399.622 Q115.857 391.427 119.746 386.566 Q123.635 381.682 130.186 381.682 Q131.945 381.682 133.728 382.029 Q135.533 382.376 137.478 383.071 Z" fill="#000000" fill-rule="nonzero" fill-opacity="1" /><path clip-path="url(#clip240)" d="M158.357 397.724 Q155.209 397.724 153.357 399.876 Q151.528 402.029 151.528 405.779 Q151.528 409.506 153.357 411.682 Q155.209 413.835 158.357 413.835 Q161.505 413.835 163.334 411.682 Q165.186 409.506 165.186 405.779 Q165.186 402.029 163.334 399.876 Q161.505 397.724 158.357 397.724 M167.64 383.071 L167.64 387.33 Q165.88 386.497 164.075 386.057 Q162.292 385.617 160.533 385.617 Q155.903 385.617 153.45 388.742 Q151.019 391.867 150.672 398.186 Q152.038 396.173 154.098 395.108 Q156.158 394.02 158.635 394.02 Q163.843 394.02 166.852 397.191 Q169.885 400.339 169.885 405.779 Q169.885 411.103 166.737 414.321 Q163.589 417.538 158.357 417.538 Q152.362 417.538 149.191 412.955 Q146.019 408.348 146.019 399.622 Q146.019 391.427 149.908 386.566 Q153.797 381.682 160.348 381.682 Q162.107 381.682 163.89 382.029 Q165.695 382.376 167.64 383.071 Z" fill="#000000" fill-rule="nonzero" fill-opacity="1" /><path clip-path="url(#clip240)" d="M177.94 410.987 L182.825 410.987 L182.825 416.867 L177.94 416.867 L177.94 410.987 Z" fill="#000000" fill-rule="nonzero" fill-opacity="1" /><path clip-path="url(#clip240)" d="M197.037 412.932 L213.357 412.932 L213.357 416.867 L191.413 416.867 L191.413 412.932 Q194.075 410.177 198.658 405.548 Q203.264 400.895 204.445 399.552 Q206.69 397.029 207.57 395.293 Q208.473 393.534 208.473 391.844 Q208.473 389.089 206.528 387.353 Q204.607 385.617 201.505 385.617 Q199.306 385.617 196.852 386.381 Q194.422 387.145 191.644 388.696 L191.644 383.974 Q194.468 382.839 196.922 382.261 Q199.375 381.682 201.412 381.682 Q206.783 381.682 209.977 384.367 Q213.172 387.052 213.172 391.543 Q213.172 393.673 212.361 395.594 Q211.574 397.492 209.468 400.085 Q208.889 400.756 205.787 403.973 Q202.686 407.168 197.037 412.932 Z" fill="#000000" fill-rule="nonzero" fill-opacity="1" /><path clip-path="url(#clip240)" d="M127.246 159.238 Q124.098 159.238 122.246 161.39 Q120.418 163.543 120.418 167.293 Q120.418 171.02 122.246 173.196 Q124.098 175.349 127.246 175.349 Q130.394 175.349 132.223 173.196 Q134.075 171.02 134.075 167.293 Q134.075 163.543 132.223 161.39 Q130.394 159.238 127.246 159.238 M136.529 144.585 L136.529 148.844 Q134.769 148.011 132.964 147.571 Q131.181 147.131 129.422 147.131 Q124.793 147.131 122.339 150.256 Q119.908 153.381 119.561 159.701 Q120.927 157.687 122.987 156.622 Q125.047 155.534 127.524 155.534 Q132.732 155.534 135.742 158.705 Q138.774 161.853 138.774 167.293 Q138.774 172.617 135.626 175.835 Q132.478 179.052 127.246 179.052 Q121.251 179.052 118.08 174.469 Q114.908 169.863 114.908 161.136 Q114.908 152.941 118.797 148.08 Q122.686 143.196 129.237 143.196 Q130.996 143.196 132.779 143.543 Q134.584 143.891 136.529 144.585 Z" fill="#000000" fill-rule="nonzero" fill-opacity="1" /><path clip-path="url(#clip240)" d="M157.408 159.238 Q154.26 159.238 152.408 161.39 Q150.579 163.543 150.579 167.293 Q150.579 171.02 152.408 173.196 Q154.26 175.349 157.408 175.349 Q160.556 175.349 162.385 173.196 Q164.237 171.02 164.237 167.293 Q164.237 163.543 162.385 161.39 Q160.556 159.238 157.408 159.238 M166.69 144.585 L166.69 148.844 Q164.931 148.011 163.126 147.571 Q161.343 147.131 159.584 147.131 Q154.954 147.131 152.501 150.256 Q150.07 153.381 149.723 159.701 Q151.089 157.687 153.149 156.622 Q155.209 155.534 157.686 155.534 Q162.894 155.534 165.903 158.705 Q168.936 161.853 168.936 167.293 Q168.936 172.617 165.788 175.835 Q162.64 179.052 157.408 179.052 Q151.413 179.052 148.241 174.469 Q145.07 169.863 145.07 161.136 Q145.07 152.941 148.959 148.08 Q152.848 143.196 159.399 143.196 Q161.158 143.196 162.94 143.543 Q164.746 143.891 166.69 144.585 Z" fill="#000000" fill-rule="nonzero" fill-opacity="1" /><path clip-path="url(#clip240)" d="M176.991 172.501 L181.876 172.501 L181.876 178.381 L176.991 178.381 L176.991 172.501 Z" fill="#000000" fill-rule="nonzero" fill-opacity="1" /><path clip-path="url(#clip240)" d="M206.227 159.747 Q209.584 160.464 211.459 162.733 Q213.357 165.002 213.357 168.335 Q213.357 173.451 209.838 176.251 Q206.32 179.052 199.838 179.052 Q197.662 179.052 195.348 178.613 Q193.056 178.196 190.602 177.339 L190.602 172.826 Q192.547 173.96 194.862 174.538 Q197.176 175.117 199.7 175.117 Q204.098 175.117 206.389 173.381 Q208.704 171.645 208.704 168.335 Q208.704 165.279 206.551 163.566 Q204.422 161.83 200.602 161.83 L196.575 161.83 L196.575 157.988 L200.787 157.988 Q204.237 157.988 206.065 156.622 Q207.894 155.233 207.894 152.64 Q207.894 149.978 205.996 148.566 Q204.121 147.131 200.602 147.131 Q198.681 147.131 196.482 147.548 Q194.283 147.965 191.644 148.844 L191.644 144.678 Q194.306 143.937 196.621 143.566 Q198.959 143.196 201.019 143.196 Q206.343 143.196 209.445 145.627 Q212.547 148.034 212.547 152.154 Q212.547 155.025 210.903 157.015 Q209.26 158.983 206.227 159.747 Z" fill="#000000" fill-rule="nonzero" fill-opacity="1" /><path clip-path="url(#clip240)" d="M41.3104 969.884 L58.7206 969.884 L58.7206 959.571 Q58.7206 954.383 56.5881 951.901 Q54.4238 949.386 49.9996 949.386 Q45.5436 949.386 43.4429 951.901 Q41.3104 954.383 41.3104 959.571 L41.3104 969.884 M21.7677 969.884 L36.0905 969.884 L36.0905 960.367 Q36.0905 955.656 34.34 953.365 Q32.5576 951.041 28.9291 951.041 Q25.3325 951.041 23.5501 953.365 Q21.7677 955.656 21.7677 960.367 L21.7677 969.884 M16.4842 976.313 L16.4842 959.89 Q16.4842 952.537 19.5397 948.559 Q22.5952 944.58 28.2289 944.58 Q32.5894 944.58 35.1675 946.617 Q37.7456 948.654 38.3822 952.601 Q39.4007 947.858 42.6472 945.248 Q45.8619 942.607 50.6998 942.607 Q57.0655 942.607 60.5348 946.935 Q64.0042 951.264 64.0042 959.253 L64.0042 976.313 L16.4842 976.313 Z" fill="#000000" fill-rule="nonzero" fill-opacity="1" /><path clip-path="url(#clip240)" d="M32.4621 918.035 Q32.4621 922.746 36.1542 925.483 Q39.8145 928.22 46.212 928.22 Q52.6095 928.22 56.3017 925.515 Q59.9619 922.778 59.9619 918.035 Q59.9619 913.356 56.2698 910.619 Q52.5777 907.882 46.212 907.882 Q39.8781 907.882 36.186 910.619 Q32.4621 913.356 32.4621 918.035 M27.4968 918.035 Q27.4968 910.396 32.4621 906.036 Q37.4273 901.675 46.212 901.675 Q54.9649 901.675 59.9619 906.036 Q64.9272 910.396 64.9272 918.035 Q64.9272 925.706 59.9619 930.066 Q54.9649 934.395 46.212 934.395 Q37.4273 934.395 32.4621 930.066 Q27.4968 925.706 27.4968 918.035 Z" fill="#000000" fill-rule="nonzero" fill-opacity="1" /><path clip-path="url(#clip240)" d="M32.4621 878.154 Q32.4621 882.865 36.1542 885.602 Q39.8145 888.339 46.212 888.339 Q52.6095 888.339 56.3017 885.634 Q59.9619 882.896 59.9619 878.154 Q59.9619 873.475 56.2698 870.738 Q52.5777 868.001 46.212 868.001 Q39.8781 868.001 36.186 870.738 Q32.4621 873.475 32.4621 878.154 M27.4968 878.154 Q27.4968 870.515 32.4621 866.155 Q37.4273 861.794 46.212 861.794 Q54.9649 861.794 59.9619 866.155 Q64.9272 870.515 64.9272 878.154 Q64.9272 885.825 59.9619 890.185 Q54.9649 894.514 46.212 894.514 Q37.4273 894.514 32.4621 890.185 Q27.4968 885.825 27.4968 878.154 Z" fill="#000000" fill-rule="nonzero" fill-opacity="1" /><path clip-path="url(#clip240)" d="M29.4065 829.361 L34.9447 829.361 Q33.6716 831.843 33.035 834.517 Q32.3984 837.191 32.3984 840.055 Q32.3984 844.416 33.7352 846.612 Q35.072 848.776 37.7456 848.776 Q39.7826 848.776 40.9603 847.217 Q42.1061 845.657 43.1565 840.946 L43.6021 838.941 Q44.9389 832.703 47.3897 830.093 Q49.8086 827.451 54.1691 827.451 Q59.1344 827.451 62.0308 831.398 Q64.9272 835.313 64.9272 842.188 Q64.9272 845.052 64.3543 848.171 Q63.8132 851.259 62.6992 854.696 L56.6518 854.696 Q58.3387 851.45 59.198 848.299 Q60.0256 845.148 60.0256 842.06 Q60.0256 837.923 58.6251 835.695 Q57.1929 833.467 54.6147 833.467 Q52.2276 833.467 50.9545 835.09 Q49.6813 836.681 48.5037 842.124 L48.0262 844.161 Q46.8804 849.604 44.5251 852.023 Q42.138 854.442 38.0002 854.442 Q32.9713 854.442 30.2341 850.877 Q27.4968 847.312 27.4968 840.755 Q27.4968 837.509 27.9743 834.644 Q28.4517 831.78 29.4065 829.361 Z" fill="#000000" fill-rule="nonzero" fill-opacity="1" /><path clip-path="url(#clip240)" d="M18.2347 812.333 L28.3562 812.333 L28.3562 800.269 L32.9077 800.269 L32.9077 812.333 L52.2594 812.333 Q56.6199 812.333 57.8613 811.155 Q59.1026 809.945 59.1026 806.285 L59.1026 800.269 L64.0042 800.269 L64.0042 806.285 Q64.0042 813.065 61.4897 815.643 Q58.9434 818.221 52.2594 818.221 L32.9077 818.221 L32.9077 822.518 L28.3562 822.518 L28.3562 818.221 L18.2347 818.221 L18.2347 812.333 Z" fill="#000000" fill-rule="nonzero" fill-opacity="1" /><path clip-path="url(#clip240)" d="M16.4842 771.592 L16.4842 744.283 L21.895 744.283 L21.895 765.163 L35.8996 765.163 L35.8996 746.32 L41.3104 746.32 L41.3104 765.163 L64.0042 765.163 L64.0042 771.592 L16.4842 771.592 Z" fill="#000000" fill-rule="nonzero" fill-opacity="1" /><path clip-path="url(#clip240)" d="M46.0847 724.136 Q46.0847 731.233 47.7079 733.971 Q49.3312 736.708 53.2461 736.708 Q56.3653 736.708 58.2114 734.671 Q60.0256 732.602 60.0256 729.069 Q60.0256 724.199 56.5881 721.271 Q53.1188 718.311 47.3897 718.311 L46.0847 718.311 L46.0847 724.136 M43.6657 712.455 L64.0042 712.455 L64.0042 718.311 L58.5933 718.311 Q61.8398 720.316 63.3994 723.308 Q64.9272 726.3 64.9272 730.629 Q64.9272 736.103 61.8716 739.35 Q58.7843 742.564 53.6281 742.564 Q47.6125 742.564 44.5569 738.554 Q41.5014 734.512 41.5014 726.523 L41.5014 718.311 L40.9285 718.311 Q36.8862 718.311 34.6901 720.985 Q32.4621 723.626 32.4621 728.432 Q32.4621 731.488 33.1941 734.384 Q33.9262 737.281 35.3903 739.954 L29.9795 739.954 Q28.7381 736.74 28.1334 733.716 Q27.4968 730.692 27.4968 727.828 Q27.4968 720.093 31.5072 716.274 Q35.5176 712.455 43.6657 712.455 Z" fill="#000000" fill-rule="nonzero" fill-opacity="1" /><path clip-path="url(#clip240)" d="M29.7248 674.738 L35.1993 674.738 Q33.8307 677.22 33.1623 679.735 Q32.4621 682.217 32.4621 684.764 Q32.4621 690.461 36.0905 693.612 Q39.6872 696.763 46.212 696.763 Q52.7369 696.763 56.3653 693.612 Q59.9619 690.461 59.9619 684.764 Q59.9619 682.217 59.2935 679.735 Q58.5933 677.22 57.2247 674.738 L62.6355 674.738 Q63.7814 677.189 64.3543 679.83 Q64.9272 682.44 64.9272 685.4 Q64.9272 693.453 59.8664 698.195 Q54.8057 702.938 46.212 702.938 Q37.491 702.938 32.4939 698.164 Q27.4968 693.357 27.4968 685.018 Q27.4968 682.313 28.0697 679.735 Q28.6108 677.157 29.7248 674.738 Z" fill="#000000" fill-rule="nonzero" fill-opacity="1" /><path clip-path="url(#clip240)" d="M18.2347 658.76 L28.3562 658.76 L28.3562 646.697 L32.9077 646.697 L32.9077 658.76 L52.2594 658.76 Q56.6199 658.76 57.8613 657.582 Q59.1026 656.373 59.1026 652.712 L59.1026 646.697 L64.0042 646.697 L64.0042 652.712 Q64.0042 659.492 61.4897 662.07 Q58.9434 664.648 52.2594 664.648 L32.9077 664.648 L32.9077 668.945 L28.3562 668.945 L28.3562 664.648 L18.2347 664.648 L18.2347 658.76 Z" fill="#000000" fill-rule="nonzero" fill-opacity="1" /><path clip-path="url(#clip240)" d="M32.4621 625.181 Q32.4621 629.891 36.1542 632.629 Q39.8145 635.366 46.212 635.366 Q52.6095 635.366 56.3017 632.66 Q59.9619 629.923 59.9619 625.181 Q59.9619 620.502 56.2698 617.765 Q52.5777 615.027 46.212 615.027 Q39.8781 615.027 36.186 617.765 Q32.4621 620.502 32.4621 625.181 M27.4968 625.181 Q27.4968 617.542 32.4621 613.181 Q37.4273 608.821 46.212 608.821 Q54.9649 608.821 59.9619 613.181 Q64.9272 617.542 64.9272 625.181 Q64.9272 632.851 59.9619 637.212 Q54.9649 641.541 46.212 641.541 Q37.4273 641.541 32.4621 637.212 Q27.4968 632.851 27.4968 625.181 Z" fill="#000000" fill-rule="nonzero" fill-opacity="1" /><path clip-path="url(#clip240)" d="M33.8307 578.456 Q33.2578 579.443 33.0032 580.621 Q32.7167 581.767 32.7167 583.167 Q32.7167 588.132 35.9632 590.806 Q39.1779 593.448 45.2253 593.448 L64.0042 593.448 L64.0042 599.336 L28.3562 599.336 L28.3562 593.448 L33.8944 593.448 Q30.6479 591.602 29.0883 588.642 Q27.4968 585.682 27.4968 581.448 Q27.4968 580.844 27.5923 580.112 Q27.656 579.379 27.8151 578.488 L33.8307 578.456 Z" fill="#000000" fill-rule="nonzero" fill-opacity="1" /><path clip-path="url(#clip240)" d="M61.808 545.737 L77.5631 545.737 L77.5631 551.625 L28.579 551.625 Q14.0652 551.625 14.0652 538.066 Q14.0652 524.252 26.3192 524.252 Q35.0402 524.252 38.223 529.727 Q41.0876 520.815 49.5858 520.815 Q64.6726 520.815 64.6726 536.156 Q64.6726 542.904 61.808 545.737 M54.1691 545.737 Q59.6755 542.204 59.6755 535.934 Q59.6755 526.767 49.6813 526.767 Q40.7057 526.767 41.4059 541.535 L35.995 541.535 Q35.995 529.982 25.8099 529.982 Q18.8395 529.982 18.8395 537.429 Q18.8395 545.737 28.77 545.737 L54.1691 545.737 Z" fill="#000000" fill-rule="nonzero" fill-opacity="1" /><path clip-path="url(#clip240)" d="M39.1142 507.606 L39.1142 494.111 L42.7427 494.111 L42.7427 513.144 L39.2416 513.144 Q38.2549 512.062 36.4725 510.057 Q26.7648 499.108 23.7729 499.108 Q21.6722 499.108 20.3991 500.763 Q19.0941 502.418 19.0941 505.124 Q19.0941 506.779 19.667 508.72 Q20.2081 510.662 21.3221 512.953 L17.4072 512.953 Q16.516 510.503 16.0704 508.402 Q15.6248 506.269 15.6248 504.455 Q15.6248 499.84 17.7255 497.071 Q19.8262 494.302 23.2636 494.302 Q27.6878 494.302 36.7271 504.837 Q38.2549 506.619 39.1142 507.606 Z" fill="#000000" fill-rule="nonzero" fill-opacity="1" /><polyline clip-path="url(#clip242)" style="stroke:#009af9; stroke-linecap:round; stroke-linejoin:round; stroke-width:4; stroke-opacity:1; fill:none" points="308.887,856.761 310.873,859.474 312.86,862.179 314.846,864.878 316.832,867.57 318.819,870.254 320.805,872.932 322.791,875.602 324.778,878.266 326.764,880.922 328.75,883.572 330.737,886.214 332.723,888.85 334.709,891.478 336.696,894.099 338.682,896.714 340.668,899.321 342.655,901.921 344.641,904.515 346.627,907.101 348.614,909.68 350.6,912.252 352.586,914.817 354.572,917.376 356.559,919.927 358.545,922.471 360.531,925.008 362.518,927.538 364.504,930.061 366.49,932.577 368.477,935.086 370.463,937.588 372.449,940.083 374.436,942.571 376.422,945.052 378.408,947.526 380.395,949.993 382.381,952.453 384.367,954.906 386.354,957.352 388.34,959.791 390.326,962.223 392.313,964.648 394.299,967.066 396.285,969.476 398.272,971.88 400.258,974.277 402.244,976.667 404.231,979.05 406.217,981.425 408.203,983.794 410.19,986.156 412.176,988.511 414.162,990.858 416.149,993.199 418.135,995.533 420.121,997.859 422.108,1000.18 424.094,1002.49 426.08,1004.8 428.067,1007.1 430.053,1009.39 432.039,1011.67 434.025,1013.95 436.012,1016.22 437.998,1018.48 439.984,1020.74 441.971,1022.99 443.957,1025.23 445.943,1027.47 447.93,1029.7 449.916,1031.92 451.902,1034.13 453.889,1036.34 455.875,1038.54 457.861,1040.74 459.848,1042.92 461.834,1045.1 463.82,1047.27 465.807,1049.44 467.793,1051.6 469.779,1053.75 471.766,1055.89 473.752,1058.03 475.738,1060.16 477.725,1062.29 479.711,1064.4 481.697,1066.51 483.684,1068.61 485.67,1070.71 487.656,1072.8 489.643,1074.88 491.629,1076.95 493.615,1079.02 495.602,1081.08 497.588,1083.14 499.574,1085.18 501.561,1087.22 503.547,1089.26 505.533,1091.28 507.52,1093.3 509.506,1095.31 511.492,1097.32 513.478,1099.31 515.465,1101.3 517.451,1103.29 519.437,1105.26 521.424,1107.23 523.41,1109.2 525.396,1111.15 527.383,1113.1 529.369,1115.04 531.355,1116.98 533.342,1118.9 535.328,1120.82 537.314,1122.74 539.301,1124.64 541.287,1126.54 543.273,1128.44 545.26,1130.32 547.246,1132.2 549.232,1134.07 551.219,1135.94 553.205,1137.8 555.191,1139.65 557.178,1141.49 559.164,1143.33 561.15,1145.16 563.137,1146.98 565.123,1148.79 567.109,1150.6 569.096,1152.41 571.082,1154.2 573.068,1155.99 575.055,1157.77 577.041,1159.54 579.027,1161.31 581.014,1163.07 583,1164.82 584.986,1166.57 586.973,1168.31 588.959,1170.04 590.945,1171.76 592.931,1173.48 594.918,1175.19 596.904,1176.9 598.89,1178.59 600.877,1180.28 602.863,1181.97 604.849,1183.64 606.836,1185.31 608.822,1186.97 610.808,1188.63 612.795,1190.28 614.781,1191.92 616.767,1193.55 618.754,1195.18 620.74,1196.8 622.726,1198.41 624.713,1200.02 626.699,1201.62 628.685,1203.21 630.672,1204.79 632.658,1206.37 634.644,1207.94 636.631,1209.51 638.617,1211.07 640.603,1212.62 642.59,1214.16 644.576,1215.69 646.562,1217.22 648.549,1218.75 650.535,1220.26 652.521,1221.77 654.508,1223.27 656.494,1224.77 658.48,1226.25 660.467,1227.73 662.453,1229.21 664.439,1230.67 666.426,1232.13 668.412,1233.59 670.398,1235.03 672.384,1236.47 674.371,1237.9 676.357,1239.33 678.343,1240.74 680.33,1242.15 682.316,1243.56 684.302,1244.96 686.289,1246.34 688.275,1247.73 690.261,1249.1 692.248,1250.47 694.234,1251.83 696.22,1253.19 698.207,1254.54 700.193,1255.88 702.179,1257.21 704.166,1258.54 706.152,1259.86 708.138,1261.17 710.125,1262.48 712.111,1263.78 714.097,1265.07 716.084,1266.35 718.07,1267.63 720.056,1268.9 722.043,1270.17 724.029,1271.42 726.015,1272.67 728.002,1273.92 729.988,1275.15 731.974,1276.38 733.961,1277.61 735.947,1278.82 737.933,1280.03 739.92,1281.23 741.906,1282.43 743.892,1283.61 745.879,1284.79 747.865,1285.97 749.851,1287.13 751.837,1288.29 753.824,1289.45 755.81,1290.59 757.796,1291.73 759.783,1292.86 761.769,1293.99 763.755,1295.1 765.742,1296.21 767.728,1297.32 769.714,1298.42 771.701,1299.51 773.687,1300.59 775.673,1301.66 777.66,1302.73 779.646,1303.8 781.632,1304.85 783.619,1305.9 785.605,1306.94 787.591,1307.97 789.578,1309 791.564,1310.02 793.55,1311.03 795.537,1312.04 797.523,1313.04 799.509,1314.03 801.496,1315.02 803.482,1316 805.468,1316.97 807.455,1317.93 809.441,1318.89 811.427,1319.84 813.414,1320.78 815.4,1321.72 817.386,1322.65 819.373,1323.57 821.359,1324.49 823.345,1325.4 825.332,1326.3 827.318,1327.19 829.304,1328.08 831.291,1328.96 833.277,1329.83 835.263,1330.7 837.249,1331.56 839.236,1332.41 841.222,1333.26 843.208,1334.1 845.195,1334.93 847.181,1335.76 849.167,1336.57 851.154,1337.39 853.14,1338.19 855.126,1338.99 857.113,1339.78 859.099,1340.56 861.085,1341.34 863.072,1342.11 865.058,1342.87 867.044,1343.62 869.031,1344.37 871.017,1345.11 873.003,1345.85 874.99,1346.58 876.976,1347.3 878.962,1348.01 880.949,1348.72 882.935,1349.42 884.921,1350.11 886.908,1350.8 888.894,1351.47 890.88,1352.15 892.867,1352.81 894.853,1353.47 896.839,1354.12 898.826,1354.76 900.812,1355.4 902.798,1356.03 904.785,1356.65 906.771,1357.27 908.757,1357.88 910.744,1358.48 912.73,1359.08 914.716,1359.67 916.702,1360.25 918.689,1360.82 920.675,1361.39 922.661,1361.95 924.648,1362.5 926.634,1363.05 928.62,1363.59 930.607,1364.12 932.593,1364.65 934.579,1365.17 936.566,1365.68 938.552,1366.18 940.538,1366.68 942.525,1367.17 944.511,1367.65 946.497,1368.13 948.484,1368.6 950.47,1369.06 952.456,1369.52 954.443,1369.97 956.429,1370.41 958.415,1370.85 960.402,1371.28 962.388,1371.7 964.374,1372.11 966.361,1372.52 968.347,1372.92 970.333,1373.31 972.32,1373.7 974.306,1374.08 976.292,1374.45 978.279,1374.82 980.265,1375.18 982.251,1375.53 984.238,1375.87 986.224,1376.21 988.21,1376.54 990.197,1376.86 992.183,1377.18 994.169,1377.49 996.155,1377.79 998.142,1378.09 1000.13,1378.38 1002.11,1378.66 1004.1,1378.94 1006.09,1379.2 1008.07,1379.47 1010.06,1379.72 1012.05,1379.97 1014.03,1380.21 1016.02,1380.44 1018.01,1380.67 1019.99,1380.89 1021.98,1381.1 1023.96,1381.3 1025.95,1381.5 1027.94,1381.69 1029.92,1381.88 1031.91,1382.06 1033.9,1382.23 1035.88,1382.39 1037.87,1382.55 1039.85,1382.7 1041.84,1382.84 1043.83,1382.98 1045.81,1383.11 1047.8,1383.23 1049.79,1383.34 1051.77,1383.45 1053.76,1383.55 1055.75,1383.65 1057.73,1383.73 1059.72,1383.81 1061.7,1383.89 1063.69,1383.95 1065.68,1384.01 1067.66,1384.07 1069.65,1384.11 1071.64,1384.15 1073.62,1384.18 1075.61,1384.21 1077.59,1384.22 1079.58,1384.23 1081.57,1384.24 1083.55,1384.24 1085.54,1384.22 1087.53,1384.21 1089.51,1384.18 1091.5,1384.15 1093.49,1384.11 1095.47,1384.07 1097.46,1384.02 1099.44,1383.96 1101.43,1383.89 1103.42,1383.82 1105.4,1383.74 1107.39,1383.65 1109.38,1383.56 1111.36,1383.46 1113.35,1383.35 1115.33,1383.24 1117.32,1383.12 1119.31,1382.99 1121.29,1382.85 1123.28,1382.71 1125.27,1382.56 1127.25,1382.4 1129.24,1382.24 1131.23,1382.07 1133.21,1381.89 1135.2,1381.71 1137.18,1381.52 1139.17,1381.32 1141.16,1381.12 1143.14,1380.9 1145.13,1380.69 1147.12,1380.46 1149.1,1380.23 1151.09,1379.99 1153.08,1379.74 1155.06,1379.49 1157.05,1379.23 1159.03,1378.96 1161.02,1378.68 1163.01,1378.4 1164.99,1378.11 1166.98,1377.82 1168.97,1377.52 1170.95,1377.21 1172.94,1376.89 1174.92,1376.57 1176.91,1376.24 1178.9,1375.9 1180.88,1375.56 1182.87,1375.21 1184.86,1374.85 1186.84,1374.48 1188.83,1374.11 1190.82,1373.73 1192.8,1373.35 1194.79,1372.95 1196.77,1372.55 1198.76,1372.15 1200.75,1371.73 1202.73,1371.31 1204.72,1370.88 1206.71,1370.45 1208.69,1370.01 1210.68,1369.56 1212.66,1369.1 1214.65,1368.64 1216.64,1368.17 1218.62,1367.7 1220.61,1367.21 1222.6,1366.72 1224.58,1366.23 1226.57,1365.72 1228.56,1365.21 1230.54,1364.69 1232.53,1364.17 1234.51,1363.64 1236.5,1363.1 1238.49,1362.55 1240.47,1362 1242.46,1361.44 1244.45,1360.87 1246.43,1360.3 1248.42,1359.72 1250.41,1359.13 1252.39,1358.54 1254.38,1357.93 1256.36,1357.33 1258.35,1356.71 1260.34,1356.09 1262.32,1355.46 1264.31,1354.82 1266.3,1354.18 1268.28,1353.53 1270.27,1352.87 1272.25,1352.21 1274.24,1351.54 1276.23,1350.86 1278.21,1350.17 1280.2,1349.48 1282.19,1348.78 1284.17,1348.08 1286.16,1347.36 1288.15,1346.64 1290.13,1345.92 1292.12,1345.18 1294.1,1344.44 1296.09,1343.7 1298.08,1342.94 1300.06,1342.18 1302.05,1341.41 1304.04,1340.63 1306.02,1339.85 1308.01,1339.06 1309.99,1338.27 1311.98,1337.46 1313.97,1336.65 1315.95,1335.84 1317.94,1335.01 1319.93,1334.18 1321.91,1333.34 1323.9,1332.5 1325.89,1331.65 1327.87,1330.79 1329.86,1329.92 1331.84,1329.05 1333.83,1328.17 1335.82,1327.28 1337.8,1326.39 1339.79,1325.49 1341.78,1324.58 1343.76,1323.66 1345.75,1322.74 1347.74,1321.81 1349.72,1320.88 1351.71,1319.93 1353.69,1318.99 1355.68,1318.03 1357.67,1317.07 1359.65,1316.1 1361.64,1315.12 1363.63,1314.13 1365.61,1313.14 1367.6,1312.14 1369.58,1311.14 1371.57,1310.13 1373.56,1309.11 1375.54,1308.08 1377.53,1307.05 1379.52,1306.01 1381.5,1304.96 1383.49,1303.91 1385.48,1302.85 1387.46,1301.78 1389.45,1300.7 1391.43,1299.62 1393.42,1298.53 1395.41,1297.44 1397.39,1296.33 1399.38,1295.22 1401.37,1294.11 1403.35,1292.98 1405.34,1291.85 1407.32,1290.72 1409.31,1289.57 1411.3,1288.42 1413.28,1287.26 1415.27,1286.1 1417.26,1284.92 1419.24,1283.75 1421.23,1282.56 1423.22,1281.37 1425.2,1280.17 1427.19,1278.96 1429.17,1277.74 1431.16,1276.52 1433.15,1275.3 1435.13,1274.06 1437.12,1272.82 1439.11,1271.57 1441.09,1270.31 1443.08,1269.05 1445.06,1267.78 1447.05,1266.5 1449.04,1265.22 1451.02,1263.93 1453.01,1262.63 1455,1261.33 1456.98,1260.01 1458.97,1258.7 1460.96,1257.37 1462.94,1256.04 1464.93,1254.7 1466.91,1253.35 1468.9,1252 1470.89,1250.64 1472.87,1249.27 1474.86,1247.9 1476.85,1246.51 1478.83,1245.13 1480.82,1243.73 1482.81,1242.33 1484.79,1240.92 1486.78,1239.5 1488.76,1238.08 1490.75,1236.65 1492.74,1235.21 1494.72,1233.77 1496.71,1232.32 1498.7,1230.86 1500.68,1229.4 1502.67,1227.92 1504.65,1226.44 1506.64,1224.96 1508.63,1223.47 1510.61,1221.97 1512.6,1220.46 1514.59,1218.95 1516.57,1217.42 1518.56,1215.9 1520.55,1214.36 1522.53,1212.82 1524.52,1211.27 1526.5,1209.72 1528.49,1208.15 1530.48,1206.58 1532.46,1205.01 1534.45,1203.42 1536.44,1201.83 1538.42,1200.24 1540.41,1198.63 1542.39,1197.02 1544.38,1195.4 1546.37,1193.78 1548.35,1192.14 1550.34,1190.5 1552.33,1188.86 1554.31,1187.2 1556.3,1185.54 1558.29,1183.88 1560.27,1182.2 1562.26,1180.52 1564.24,1178.83 1566.23,1177.14 1568.22,1175.44 1570.2,1173.73 1572.19,1172.01 1574.18,1170.29 1576.16,1168.56 1578.15,1166.82 1580.14,1165.08 1582.12,1163.33 1584.11,1161.57 1586.09,1159.8 1588.08,1158.03 1590.07,1156.25 1592.05,1154.47 1594.04,1152.67 1596.03,1150.88 1598.01,1149.07 1600,1147.25 1601.98,1145.43 1603.97,1143.61 1605.96,1141.77 1607.94,1139.93 1609.93,1138.08 1611.92,1136.23 1613.9,1134.36 1615.89,1132.49 1617.88,1130.62 1619.86,1128.73 1621.85,1126.84 1623.83,1124.95 1625.82,1123.04 1627.81,1121.13 1629.79,1119.21 1631.78,1117.29 1633.77,1115.35 1635.75,1113.41 1637.74,1111.47 1639.72,1109.51 1641.71,1107.55 1643.7,1105.59 1645.68,1103.61 1647.67,1101.63 1649.66,1099.64 1651.64,1097.65 1653.63,1095.65 1655.62,1093.64 1657.6,1091.62 1659.59,1089.6 1661.57,1087.57 1663.56,1085.53 1665.55,1083.49 1667.53,1081.43 1669.52,1079.38 1671.51,1077.31 1673.49,1075.24 1675.48,1073.16 1677.46,1071.07 1679.45,1068.98 1681.44,1066.88 1683.42,1064.77 1685.41,1062.66 1687.4,1060.54 1689.38,1058.41 1691.37,1056.28 1693.36,1054.13 1695.34,1051.98 1697.33,1049.83 1699.31,1047.67 1701.3,1045.5 1703.29,1043.32 1705.27,1041.13 1707.26,1038.94 1709.25,1036.75 1711.23,1034.54 1713.22,1032.33 1715.21,1030.11 1717.19,1027.88 1719.18,1025.65 1721.16,1023.41 1723.15,1021.17 1725.14,1018.91 1727.12,1016.65 1729.11,1014.38 1731.1,1012.11 1733.08,1009.83 1735.07,1007.54 1737.05,1005.24 1739.04,1002.94 1741.03,1000.63 1743.01,998.312 1745,995.989 1746.99,993.658 1748.97,991.32 1750.96,988.975 1752.95,986.624 1754.93,984.265 1756.92,981.899 1758.9,979.526 1760.89,977.147 1762.88,974.76 1764.86,972.366 1766.85,969.966 1768.84,967.558 1770.82,965.143 1772.81,962.721 1774.79,960.293 1776.78,957.857 1778.77,955.414 1780.75,952.965 1782.74,950.508 1784.73,948.044 1786.71,945.573 1788.7,943.096 1790.69,940.611 1792.67,938.119 1794.66,935.621 1796.64,933.115 1798.63,930.602 1800.62,928.082 1802.6,925.556 1804.59,923.022 1806.58,920.481 1808.56,917.934 1810.55,915.379 1812.54,912.817 1814.52,910.248 1816.51,907.673 1818.49,905.09 1820.48,902.5 1822.47,899.903 1824.45,897.3 1826.44,894.689 1828.43,892.071 1830.41,889.446 1832.4,886.814 1834.38,884.176 1836.37,881.53 1838.36,878.877 1840.34,876.217 1842.33,873.55 1844.32,870.877 1846.3,868.196 1848.29,865.508 1850.28,862.813 1852.26,860.111 1854.25,857.402 1856.23,854.686 1858.22,851.963 1860.21,849.234 1862.19,846.497 1864.18,843.753 1866.17,841.002 1868.15,838.244 1870.14,835.479 1872.12,832.707 1874.11,829.928 1876.1,827.142 1878.08,824.349 1880.07,821.549 1882.06,818.742 1884.04,815.928 1886.03,813.107 1888.02,810.279 1890,807.443 1891.99,804.601 1893.97,801.752 1895.96,798.896 1897.95,796.033 1899.93,793.163 1901.92,790.286 1903.91,787.401 1905.89,784.51 1907.88,781.612 1909.87,778.707 1911.85,775.794 1913.84,772.875 1915.82,769.949 1917.81,767.015 1919.8,764.075 1921.78,761.128 1923.77,758.173 1925.76,755.212 1927.74,752.243 1929.73,749.268 1931.71,746.285 1933.7,743.296 1935.69,740.299 1937.67,737.296 1939.66,734.285 1941.65,731.268 1943.63,728.243 1945.62,725.211 1947.61,722.173 1949.59,719.127 1951.58,716.074 1953.56,713.015 1955.55,709.948 1957.54,706.874 1959.52,703.793 1961.51,700.705 1963.5,697.61 1965.48,694.509 1967.47,691.4 1969.45,688.284 1971.44,685.161 1973.43,682.031 1975.41,678.894 1977.4,675.75 1979.39,672.599 1981.37,669.44 1983.36,666.275 1985.35,663.103 1987.33,659.924 1989.32,656.738 1991.3,653.544 1993.29,650.344 1995.28,647.137 1997.26,643.922 1999.25,640.701 2001.24,637.472 2003.22,634.237 2005.21,630.994 2007.19,627.745 2009.18,624.488 2011.17,621.225 2013.15,617.954 2015.14,614.676 2017.13,611.392 2019.11,608.1 2021.1,604.801 2023.09,601.495 2025.07,598.182 2027.06,594.863 2029.04,591.536 2031.03,588.202 2033.02,584.861 2035,581.513 2036.99,578.157 2038.98,574.795 2040.96,571.426 2042.95,568.05 2044.94,564.667 2046.92,561.276 2048.91,557.879 2050.89,554.475 2052.88,551.063 2054.87,547.645 2056.85,544.219 2058.84,540.787 2060.83,537.347 2062.81,533.901 2064.8,530.447 2066.78,526.986 2068.77,523.518 2070.76,520.044 2072.74,516.562 2074.73,513.073 2076.72,509.577 2078.7,506.074 2080.69,502.564 2082.68,499.047 2084.66,495.522 2086.65,491.991 2088.63,488.453 2090.62,484.908 2092.61,481.355 2094.59,477.796 2096.58,474.23 2098.57,470.656 2100.55,467.076 2102.54,463.488 2104.52,459.893 2106.51,456.292 2108.5,452.683 2110.48,449.067 2112.47,445.444 2114.46,441.814 2116.44,438.177 2118.43,434.533 2120.42,430.882 2122.4,427.224 2124.39,423.559 2126.37,419.887 2128.36,416.207 2130.35,412.521 2132.33,408.828 2134.32,405.127 2136.31,401.419 2138.29,397.705 2140.28,393.983 2142.27,390.255 2144.25,386.519 2146.24,382.776 2148.22,379.026 2150.21,375.269 2152.2,371.505 2154.18,367.734 2156.17,363.956 2158.16,360.171 2160.14,356.378 2162.13,352.579 2164.11,348.773 2166.1,344.959 2168.09,341.139 2170.07,337.311 2172.06,333.476 2174.05,329.635 2176.03,325.786 2178.02,321.93 2180.01,318.067 2181.99,314.197 2183.98,310.32 2185.96,306.436 2187.95,302.545 2189.94,298.647 2191.92,294.741 2193.91,290.829 2195.9,286.909 2197.88,282.983 2199.87,279.049 2201.85,275.109 2203.84,271.161 2205.83,267.206 2207.81,263.244 2209.8,259.275 2211.79,255.299 2213.77,251.316 2215.76,247.326 2217.75,243.329 2219.73,239.324 2221.72,235.313 2223.7,231.294 2225.69,227.269 2227.68,223.236 2229.66,219.196 2231.65,215.15 2233.64,211.096 2235.62,207.035 2237.61,202.967 2239.59,198.892 2241.58,194.809 2243.57,190.72 2245.55,186.624 2247.54,182.52 2249.53,178.41 2251.51,174.292 2253.5,170.167 2255.49,166.036 2257.47,161.897 2259.46,157.751 2261.44,153.598 2263.43,149.438 2265.42,145.271 2267.4,141.096 2269.39,136.915 2271.38,132.727 2273.36,128.531 2275.35,124.328 2277.34,120.119 2279.32,115.902 2281.31,111.678 2283.29,107.447 2285.28,103.209 2287.27,98.9637 2289.25,94.7115 2291.24,90.4521 2293.23,86.1857 "/>
<path clip-path="url(#clip240)" d="M319.47 196.789 L582.24 196.789 L582.24 93.1086 L319.47 93.1086  Z" fill="#ffffff" fill-rule="evenodd" fill-opacity="1"/>
<polyline clip-path="url(#clip240)" style="stroke:#000000; stroke-linecap:round; stroke-linejoin:round; stroke-width:4; stroke-opacity:1; fill:none" points="319.47,196.789 582.24,196.789 582.24,93.1086 319.47,93.1086 319.47,196.789 "/>
<polyline clip-path="url(#clip240)" style="stroke:#009af9; stroke-linecap:round; stroke-linejoin:round; stroke-width:4; stroke-opacity:1; fill:none" points="342.841,144.949 483.068,144.949 "/>
<path clip-path="url(#clip240)" d="M520.281 164.636 Q518.476 169.266 516.763 170.678 Q515.05 172.09 512.18 172.09 L508.777 172.09 L508.777 168.525 L511.277 168.525 Q513.036 168.525 514.008 167.692 Q514.981 166.858 516.161 163.756 L516.925 161.812 L506.439 136.303 L510.953 136.303 L519.055 156.581 L527.156 136.303 L531.67 136.303 L520.281 164.636 Z" fill="#000000" fill-rule="nonzero" fill-opacity="1" /><path clip-path="url(#clip240)" d="M538.962 158.293 L546.601 158.293 L546.601 131.928 L538.291 133.595 L538.291 129.335 L546.554 127.669 L551.23 127.669 L551.23 158.293 L558.869 158.293 L558.869 162.229 L538.962 162.229 L538.962 158.293 Z" fill="#000000" fill-rule="nonzero" fill-opacity="1" /></svg>
