<?xml version="1.0" encoding="utf-8"?>
<svg xmlns="http://www.w3.org/2000/svg" xmlns:xlink="http://www.w3.org/1999/xlink" width="600" height="400" viewBox="0 0 2400 1600">
<defs>
  <clipPath id="clip390">
    <rect x="0" y="0" width="2400" height="1600"/>
  </clipPath>
</defs>
<path clip-path="url(#clip390)" d="M0 1600 L2400 1600 L2400 0 L0 0  Z" fill="#ffffff" fill-rule="evenodd" fill-opacity="1"/>
<defs>
  <clipPath id="clip391">
    <rect x="480" y="0" width="1681" height="1600"/>
  </clipPath>
</defs>
<path clip-path="url(#clip390)" d="M310.167 1423.18 L2352.76 1423.18 L2352.76 47.2441 L310.167 47.2441  Z" fill="#ffffff" fill-rule="evenodd" fill-opacity="1"/>
<defs>
  <clipPath id="clip392">
    <rect x="310" y="47" width="2044" height="1377"/>
  </clipPath>
</defs>
<polyline clip-path="url(#clip392)" style="stroke:#000000; stroke-linecap:round; stroke-linejoin:round; stroke-width:2; stroke-opacity:0.1; fill:none" points="367.976,1423.18 367.976,47.2441 "/>
<polyline clip-path="url(#clip392)" style="stroke:#000000; stroke-linecap:round; stroke-linejoin:round; stroke-width:2; stroke-opacity:0.1; fill:none" points="1010.3,1423.18 1010.3,47.2441 "/>
<polyline clip-path="url(#clip392)" style="stroke:#000000; stroke-linecap:round; stroke-linejoin:round; stroke-width:2; stroke-opacity:0.1; fill:none" points="1652.62,1423.18 1652.62,47.2441 "/>
<polyline clip-path="url(#clip392)" style="stroke:#000000; stroke-linecap:round; stroke-linejoin:round; stroke-width:2; stroke-opacity:0.1; fill:none" points="2294.95,1423.18 2294.95,47.2441 "/>
<polyline clip-path="url(#clip392)" style="stroke:#000000; stroke-linecap:round; stroke-linejoin:round; stroke-width:2; stroke-opacity:0.1; fill:none" points="310.167,1273.01 2352.76,1273.01 "/>
<polyline clip-path="url(#clip392)" style="stroke:#000000; stroke-linecap:round; stroke-linejoin:round; stroke-width:2; stroke-opacity:0.1; fill:none" points="310.167,1011.75 2352.76,1011.75 "/>
<polyline clip-path="url(#clip392)" style="stroke:#000000; stroke-linecap:round; stroke-linejoin:round; stroke-width:2; stroke-opacity:0.1; fill:none" points="310.167,750.492 2352.76,750.492 "/>
<polyline clip-path="url(#clip392)" style="stroke:#000000; stroke-linecap:round; stroke-linejoin:round; stroke-width:2; stroke-opacity:0.1; fill:none" points="310.167,489.23 2352.76,489.23 "/>
<polyline clip-path="url(#clip392)" style="stroke:#000000; stroke-linecap:round; stroke-linejoin:round; stroke-width:2; stroke-opacity:0.1; fill:none" points="310.167,227.969 2352.76,227.969 "/>
<polyline clip-path="url(#clip390)" style="stroke:#000000; stroke-linecap:round; stroke-linejoin:round; stroke-width:4; stroke-opacity:1; fill:none" points="310.167,1423.18 2352.76,1423.18 "/>
<polyline clip-path="url(#clip390)" style="stroke:#000000; stroke-linecap:round; stroke-linejoin:round; stroke-width:4; stroke-opacity:1; fill:none" points="367.976,1423.18 367.976,1404.28 "/>
<polyline clip-path="url(#clip390)" style="stroke:#000000; stroke-linecap:round; stroke-linejoin:round; stroke-width:4; stroke-opacity:1; fill:none" points="1010.3,1423.18 1010.3,1404.28 "/>
<polyline clip-path="url(#clip390)" style="stroke:#000000; stroke-linecap:round; stroke-linejoin:round; stroke-width:4; stroke-opacity:1; fill:none" points="1652.62,1423.18 1652.62,1404.28 "/>
<polyline clip-path="url(#clip390)" style="stroke:#000000; stroke-linecap:round; stroke-linejoin:round; stroke-width:4; stroke-opacity:1; fill:none" points="2294.95,1423.18 2294.95,1404.28 "/>
<path clip-path="url(#clip390)" d="M358.358 1481.64 L365.997 1481.64 L365.997 1455.28 L357.687 1456.95 L357.687 1452.69 L365.95 1451.02 L370.626 1451.02 L370.626 1481.64 L378.265 1481.64 L378.265 1485.58 L358.358 1485.58 L358.358 1481.64 Z" fill="#000000" fill-rule="nonzero" fill-opacity="1" /><path clip-path="url(#clip390)" d="M1004.95 1481.64 L1021.27 1481.64 L1021.27 1485.58 L999.327 1485.58 L999.327 1481.64 Q1001.99 1478.89 1006.57 1474.26 Q1011.18 1469.61 1012.36 1468.27 Q1014.61 1465.74 1015.48 1464.01 Q1016.39 1462.25 1016.39 1460.56 Q1016.39 1457.8 1014.44 1456.07 Q1012.52 1454.33 1009.42 1454.33 Q1007.22 1454.33 1004.77 1455.09 Q1002.34 1455.86 999.559 1457.41 L999.559 1452.69 Q1002.38 1451.55 1004.84 1450.97 Q1007.29 1450.39 1009.33 1450.39 Q1014.7 1450.39 1017.89 1453.08 Q1021.09 1455.77 1021.09 1460.26 Q1021.09 1462.39 1020.28 1464.31 Q1019.49 1466.2 1017.38 1468.8 Q1016.8 1469.47 1013.7 1472.69 Q1010.6 1475.88 1004.95 1481.64 Z" fill="#000000" fill-rule="nonzero" fill-opacity="1" /><path clip-path="url(#clip390)" d="M1656.87 1466.95 Q1660.23 1467.66 1662.1 1469.93 Q1664 1472.2 1664 1475.53 Q1664 1480.65 1660.48 1483.45 Q1656.96 1486.25 1650.48 1486.25 Q1648.31 1486.25 1645.99 1485.81 Q1643.7 1485.39 1641.25 1484.54 L1641.25 1480.02 Q1643.19 1481.16 1645.51 1481.74 Q1647.82 1482.32 1650.34 1482.32 Q1654.74 1482.32 1657.03 1480.58 Q1659.35 1478.84 1659.35 1475.53 Q1659.35 1472.48 1657.19 1470.77 Q1655.07 1469.03 1651.25 1469.03 L1647.22 1469.03 L1647.22 1465.19 L1651.43 1465.19 Q1654.88 1465.19 1656.71 1463.82 Q1658.54 1462.43 1658.54 1459.84 Q1658.54 1457.18 1656.64 1455.77 Q1654.76 1454.33 1651.25 1454.33 Q1649.32 1454.33 1647.13 1454.75 Q1644.93 1455.16 1642.29 1456.04 L1642.29 1451.88 Q1644.95 1451.14 1647.26 1450.77 Q1649.6 1450.39 1651.66 1450.39 Q1656.99 1450.39 1660.09 1452.83 Q1663.19 1455.23 1663.19 1459.35 Q1663.19 1462.22 1661.55 1464.21 Q1659.9 1466.18 1656.87 1466.95 Z" fill="#000000" fill-rule="nonzero" fill-opacity="1" /><path clip-path="url(#clip390)" d="M2297.96 1455.09 L2286.15 1473.54 L2297.96 1473.54 L2297.96 1455.09 M2296.73 1451.02 L2302.61 1451.02 L2302.61 1473.54 L2307.54 1473.54 L2307.54 1477.43 L2302.61 1477.43 L2302.61 1485.58 L2297.96 1485.58 L2297.96 1477.43 L2282.35 1477.43 L2282.35 1472.92 L2296.73 1451.02 Z" fill="#000000" fill-rule="nonzero" fill-opacity="1" /><path clip-path="url(#clip390)" d="M1129.91 1525.81 L1129.91 1562.76 L1137.67 1562.76 Q1147.51 1562.76 1152.06 1558.3 Q1156.64 1553.85 1156.64 1544.24 Q1156.64 1534.69 1152.06 1530.26 Q1147.51 1525.81 1137.67 1525.81 L1129.91 1525.81 M1123.48 1520.52 L1136.69 1520.52 Q1150.5 1520.52 1156.96 1526.28 Q1163.42 1532.01 1163.42 1544.24 Q1163.42 1556.52 1156.93 1562.28 Q1150.44 1568.04 1136.69 1568.04 L1123.48 1568.04 L1123.48 1520.52 Z" fill="#000000" fill-rule="nonzero" fill-opacity="1" /><path clip-path="url(#clip390)" d="M1173.42 1532.4 L1179.27 1532.4 L1179.27 1568.04 L1173.42 1568.04 L1173.42 1532.4 M1173.42 1518.52 L1179.27 1518.52 L1179.27 1525.93 L1173.42 1525.93 L1173.42 1518.52 Z" fill="#000000" fill-rule="nonzero" fill-opacity="1" /><path clip-path="url(#clip390)" d="M1214.25 1533.45 L1214.25 1538.98 Q1211.77 1537.71 1209.1 1537.07 Q1206.42 1536.44 1203.56 1536.44 Q1199.2 1536.44 1197 1537.77 Q1194.84 1539.11 1194.84 1541.79 Q1194.84 1543.82 1196.4 1545 Q1197.96 1546.15 1202.67 1547.2 L1204.67 1547.64 Q1210.91 1548.98 1213.52 1551.43 Q1216.16 1553.85 1216.16 1558.21 Q1216.16 1563.17 1212.22 1566.07 Q1208.3 1568.97 1201.43 1568.97 Q1198.56 1568.97 1195.44 1568.39 Q1192.35 1567.85 1188.92 1566.74 L1188.92 1560.69 Q1192.16 1562.38 1195.31 1563.24 Q1198.47 1564.07 1201.55 1564.07 Q1205.69 1564.07 1207.92 1562.66 Q1210.15 1561.23 1210.15 1558.65 Q1210.15 1556.27 1208.52 1554.99 Q1206.93 1553.72 1201.49 1552.54 L1199.45 1552.07 Q1194.01 1550.92 1191.59 1548.56 Q1189.17 1546.18 1189.17 1542.04 Q1189.17 1537.01 1192.74 1534.27 Q1196.3 1531.54 1202.86 1531.54 Q1206.1 1531.54 1208.97 1532.01 Q1211.83 1532.49 1214.25 1533.45 Z" fill="#000000" fill-rule="nonzero" fill-opacity="1" /><path clip-path="url(#clip390)" d="M1251.14 1533.76 L1251.14 1539.24 Q1248.66 1537.87 1246.14 1537.2 Q1243.66 1536.5 1241.12 1536.5 Q1235.42 1536.5 1232.27 1540.13 Q1229.12 1543.73 1229.12 1550.25 Q1229.12 1556.78 1232.27 1560.4 Q1235.42 1564 1241.12 1564 Q1243.66 1564 1246.14 1563.33 Q1248.66 1562.63 1251.14 1561.26 L1251.14 1566.68 Q1248.69 1567.82 1246.05 1568.39 Q1243.44 1568.97 1240.48 1568.97 Q1232.43 1568.97 1227.68 1563.91 Q1222.94 1558.85 1222.94 1550.25 Q1222.94 1541.53 1227.72 1536.53 Q1232.52 1531.54 1240.86 1531.54 Q1243.57 1531.54 1246.14 1532.11 Q1248.72 1532.65 1251.14 1533.76 Z" fill="#000000" fill-rule="nonzero" fill-opacity="1" /><path clip-path="url(#clip390)" d="M1282.3 1520.52 L1288.73 1520.52 L1288.73 1568.04 L1282.3 1568.04 L1282.3 1520.52 Z" fill="#000000" fill-rule="nonzero" fill-opacity="1" /><path clip-path="url(#clip390)" d="M1330.9 1546.53 L1330.9 1568.04 L1325.05 1568.04 L1325.05 1546.72 Q1325.05 1541.66 1323.07 1539.14 Q1321.1 1536.63 1317.15 1536.63 Q1312.41 1536.63 1309.67 1539.65 Q1306.94 1542.68 1306.94 1547.9 L1306.94 1568.04 L1301.05 1568.04 L1301.05 1532.4 L1306.94 1532.4 L1306.94 1537.93 Q1309.04 1534.72 1311.87 1533.13 Q1314.74 1531.54 1318.46 1531.54 Q1324.6 1531.54 1327.75 1535.36 Q1330.9 1539.14 1330.9 1546.53 Z" fill="#000000" fill-rule="nonzero" fill-opacity="1" /><path clip-path="url(#clip390)" d="M1366.04 1537.81 L1366.04 1518.52 L1371.9 1518.52 L1371.9 1568.04 L1366.04 1568.04 L1366.04 1562.7 Q1364.2 1565.88 1361.36 1567.44 Q1358.56 1568.97 1354.62 1568.97 Q1348.16 1568.97 1344.08 1563.81 Q1340.04 1558.65 1340.04 1550.25 Q1340.04 1541.85 1344.08 1536.69 Q1348.16 1531.54 1354.62 1531.54 Q1358.56 1531.54 1361.36 1533.1 Q1364.2 1534.62 1366.04 1537.81 M1346.09 1550.25 Q1346.09 1556.71 1348.73 1560.4 Q1351.4 1564.07 1356.05 1564.07 Q1360.7 1564.07 1363.37 1560.4 Q1366.04 1556.71 1366.04 1550.25 Q1366.04 1543.79 1363.37 1540.13 Q1360.7 1536.44 1356.05 1536.44 Q1351.4 1536.44 1348.73 1540.13 Q1346.09 1543.79 1346.09 1550.25 Z" fill="#000000" fill-rule="nonzero" fill-opacity="1" /><path clip-path="url(#clip390)" d="M1414.45 1548.76 L1414.45 1551.62 L1387.53 1551.62 Q1387.91 1557.67 1391.16 1560.85 Q1394.43 1564 1400.26 1564 Q1403.63 1564 1406.78 1563.17 Q1409.97 1562.35 1413.09 1560.69 L1413.09 1566.23 Q1409.93 1567.57 1406.62 1568.27 Q1403.31 1568.97 1399.91 1568.97 Q1391.38 1568.97 1386.38 1564 Q1381.42 1559.04 1381.42 1550.57 Q1381.42 1541.82 1386.13 1536.69 Q1390.87 1531.54 1398.89 1531.54 Q1406.08 1531.54 1410.25 1536.18 Q1414.45 1540.8 1414.45 1548.76 M1408.6 1547.04 Q1408.53 1542.23 1405.89 1539.37 Q1403.28 1536.5 1398.95 1536.5 Q1394.05 1536.5 1391.09 1539.27 Q1388.16 1542.04 1387.72 1547.07 L1408.6 1547.04 Z" fill="#000000" fill-rule="nonzero" fill-opacity="1" /><path clip-path="url(#clip390)" d="M1452.55 1532.4 L1439.66 1549.74 L1453.22 1568.04 L1446.31 1568.04 L1435.94 1554.04 L1425.56 1568.04 L1418.66 1568.04 L1432.5 1549.39 L1419.83 1532.4 L1426.74 1532.4 L1436.19 1545.1 L1445.65 1532.4 L1452.55 1532.4 Z" fill="#000000" fill-rule="nonzero" fill-opacity="1" /><path clip-path="url(#clip390)" d="M1481.68 1518.52 L1495.17 1518.52 L1495.17 1523.07 L1487.53 1523.07 L1487.53 1572.09 L1495.17 1572.09 L1495.17 1576.64 L1481.68 1576.64 L1481.68 1518.52 Z" fill="#000000" fill-rule="nonzero" fill-opacity="1" /><path clip-path="url(#clip390)" d="M1507.65 1532.4 L1513.5 1532.4 L1513.5 1568.04 L1507.65 1568.04 L1507.65 1532.4 M1507.65 1518.52 L1513.5 1518.52 L1513.5 1525.93 L1507.65 1525.93 L1507.65 1518.52 Z" fill="#000000" fill-rule="nonzero" fill-opacity="1" /><path clip-path="url(#clip390)" d="M1539.44 1518.52 L1539.44 1576.64 L1525.95 1576.64 L1525.95 1572.09 L1533.56 1572.09 L1533.56 1523.07 L1525.95 1523.07 L1525.95 1518.52 L1539.44 1518.52 Z" fill="#000000" fill-rule="nonzero" fill-opacity="1" /><polyline clip-path="url(#clip390)" style="stroke:#000000; stroke-linecap:round; stroke-linejoin:round; stroke-width:4; stroke-opacity:1; fill:none" points="310.167,1423.18 310.167,47.2441 "/>
<polyline clip-path="url(#clip390)" style="stroke:#000000; stroke-linecap:round; stroke-linejoin:round; stroke-width:4; stroke-opacity:1; fill:none" points="310.167,1273.01 329.064,1273.01 "/>
<polyline clip-path="url(#clip390)" style="stroke:#000000; stroke-linecap:round; stroke-linejoin:round; stroke-width:4; stroke-opacity:1; fill:none" points="310.167,1011.75 329.064,1011.75 "/>
<polyline clip-path="url(#clip390)" style="stroke:#000000; stroke-linecap:round; stroke-linejoin:round; stroke-width:4; stroke-opacity:1; fill:none" points="310.167,750.492 329.064,750.492 "/>
<polyline clip-path="url(#clip390)" style="stroke:#000000; stroke-linecap:round; stroke-linejoin:round; stroke-width:4; stroke-opacity:1; fill:none" points="310.167,489.23 329.064,489.23 "/>
<polyline clip-path="url(#clip390)" style="stroke:#000000; stroke-linecap:round; stroke-linejoin:round; stroke-width:4; stroke-opacity:1; fill:none" points="310.167,227.969 329.064,227.969 "/>
<path clip-path="url(#clip390)" d="M127.084 1271.15 Q123.936 1271.15 122.084 1273.3 Q120.255 1275.46 120.255 1279.21 Q120.255 1282.93 122.084 1285.11 Q123.936 1287.26 127.084 1287.26 Q130.232 1287.26 132.061 1285.11 Q133.913 1282.93 133.913 1279.21 Q133.913 1275.46 132.061 1273.3 Q130.232 1271.15 127.084 1271.15 M136.367 1256.5 L136.367 1260.76 Q134.607 1259.92 132.802 1259.48 Q131.019 1259.04 129.26 1259.04 Q124.63 1259.04 122.177 1262.17 Q119.746 1265.29 119.399 1271.61 Q120.765 1269.6 122.825 1268.53 Q124.885 1267.45 127.362 1267.45 Q132.57 1267.45 135.579 1270.62 Q138.612 1273.77 138.612 1279.21 Q138.612 1284.53 135.464 1287.75 Q132.316 1290.97 127.084 1290.97 Q121.089 1290.97 117.918 1286.38 Q114.746 1281.78 114.746 1273.05 Q114.746 1264.85 118.635 1259.99 Q122.524 1255.11 129.075 1255.11 Q130.834 1255.11 132.617 1255.46 Q134.422 1255.8 136.367 1256.5 Z" fill="#000000" fill-rule="nonzero" fill-opacity="1" /><path clip-path="url(#clip390)" d="M146.667 1284.41 L151.552 1284.41 L151.552 1290.29 L146.667 1290.29 L146.667 1284.41 Z" fill="#000000" fill-rule="nonzero" fill-opacity="1" /><path clip-path="url(#clip390)" d="M171.737 1258.81 Q168.126 1258.81 166.297 1262.38 Q164.491 1265.92 164.491 1273.05 Q164.491 1280.16 166.297 1283.72 Q168.126 1287.26 171.737 1287.26 Q175.371 1287.26 177.176 1283.72 Q179.005 1280.16 179.005 1273.05 Q179.005 1265.92 177.176 1262.38 Q175.371 1258.81 171.737 1258.81 M171.737 1255.11 Q177.547 1255.11 180.602 1259.72 Q183.681 1264.3 183.681 1273.05 Q183.681 1281.78 180.602 1286.38 Q177.547 1290.97 171.737 1290.97 Q165.927 1290.97 162.848 1286.38 Q159.792 1281.78 159.792 1273.05 Q159.792 1264.3 162.848 1259.72 Q165.927 1255.11 171.737 1255.11 Z" fill="#000000" fill-rule="nonzero" fill-opacity="1" /><path clip-path="url(#clip390)" d="M201.899 1258.81 Q198.287 1258.81 196.459 1262.38 Q194.653 1265.92 194.653 1273.05 Q194.653 1280.16 196.459 1283.72 Q198.287 1287.26 201.899 1287.26 Q205.533 1287.26 207.338 1283.72 Q209.167 1280.16 209.167 1273.05 Q209.167 1265.92 207.338 1262.38 Q205.533 1258.81 201.899 1258.81 M201.899 1255.11 Q207.709 1255.11 210.764 1259.72 Q213.843 1264.3 213.843 1273.05 Q213.843 1281.78 210.764 1286.38 Q207.709 1290.97 201.899 1290.97 Q196.088 1290.97 193.01 1286.38 Q189.954 1281.78 189.954 1273.05 Q189.954 1264.3 193.01 1259.72 Q196.088 1255.11 201.899 1255.11 Z" fill="#000000" fill-rule="nonzero" fill-opacity="1" /><path clip-path="url(#clip390)" d="M234.908 1259.81 L223.102 1278.26 L234.908 1278.26 L234.908 1259.81 M233.681 1255.73 L239.56 1255.73 L239.56 1278.26 L244.491 1278.26 L244.491 1282.15 L239.56 1282.15 L239.56 1290.29 L234.908 1290.29 L234.908 1282.15 L219.306 1282.15 L219.306 1277.63 L233.681 1255.73 Z" fill="#000000" fill-rule="nonzero" fill-opacity="1" /><path clip-path="url(#clip390)" d="M262.222 1258.81 Q258.611 1258.81 256.783 1262.38 Q254.977 1265.92 254.977 1273.05 Q254.977 1280.16 256.783 1283.72 Q258.611 1287.26 262.222 1287.26 Q265.857 1287.26 267.662 1283.72 Q269.491 1280.16 269.491 1273.05 Q269.491 1265.92 267.662 1262.38 Q265.857 1258.81 262.222 1258.81 M262.222 1255.11 Q268.032 1255.11 271.088 1259.72 Q274.167 1264.3 274.167 1273.05 Q274.167 1281.78 271.088 1286.38 Q268.032 1290.97 262.222 1290.97 Q256.412 1290.97 253.333 1286.38 Q250.278 1281.78 250.278 1273.05 Q250.278 1264.3 253.333 1259.72 Q256.412 1255.11 262.222 1255.11 Z" fill="#000000" fill-rule="nonzero" fill-opacity="1" /><path clip-path="url(#clip390)" d="M128.681 1009.89 Q125.533 1009.89 123.681 1012.04 Q121.853 1014.19 121.853 1017.94 Q121.853 1021.67 123.681 1023.85 Q125.533 1026 128.681 1026 Q131.83 1026 133.658 1023.85 Q135.51 1021.67 135.51 1017.94 Q135.51 1014.19 133.658 1012.04 Q131.83 1009.89 128.681 1009.89 M137.964 995.237 L137.964 999.496 Q136.204 998.663 134.399 998.223 Q132.617 997.783 130.857 997.783 Q126.228 997.783 123.774 1000.91 Q121.343 1004.03 120.996 1010.35 Q122.362 1008.34 124.422 1007.27 Q126.482 1006.19 128.959 1006.19 Q134.167 1006.19 137.177 1009.36 Q140.209 1012.51 140.209 1017.94 Q140.209 1023.27 137.061 1026.49 Q133.913 1029.7 128.681 1029.7 Q122.686 1029.7 119.515 1025.12 Q116.343 1020.51 116.343 1011.79 Q116.343 1003.59 120.232 998.732 Q124.121 993.848 130.672 993.848 Q132.431 993.848 134.214 994.195 Q136.019 994.542 137.964 995.237 Z" fill="#000000" fill-rule="nonzero" fill-opacity="1" /><path clip-path="url(#clip390)" d="M148.265 1023.15 L153.149 1023.15 L153.149 1029.03 L148.265 1029.03 L148.265 1023.15 Z" fill="#000000" fill-rule="nonzero" fill-opacity="1" /><path clip-path="url(#clip390)" d="M173.334 997.551 Q169.723 997.551 167.894 1001.12 Q166.089 1004.66 166.089 1011.79 Q166.089 1018.89 167.894 1022.46 Q169.723 1026 173.334 1026 Q176.968 1026 178.774 1022.46 Q180.602 1018.89 180.602 1011.79 Q180.602 1004.66 178.774 1001.12 Q176.968 997.551 173.334 997.551 M173.334 993.848 Q179.144 993.848 182.2 998.454 Q185.278 1003.04 185.278 1011.79 Q185.278 1020.51 182.2 1025.12 Q179.144 1029.7 173.334 1029.7 Q167.524 1029.7 164.445 1025.12 Q161.39 1020.51 161.39 1011.79 Q161.39 1003.04 164.445 998.454 Q167.524 993.848 173.334 993.848 Z" fill="#000000" fill-rule="nonzero" fill-opacity="1" /><path clip-path="url(#clip390)" d="M203.496 997.551 Q199.885 997.551 198.056 1001.12 Q196.25 1004.66 196.25 1011.79 Q196.25 1018.89 198.056 1022.46 Q199.885 1026 203.496 1026 Q207.13 1026 208.936 1022.46 Q210.764 1018.89 210.764 1011.79 Q210.764 1004.66 208.936 1001.12 Q207.13 997.551 203.496 997.551 M203.496 993.848 Q209.306 993.848 212.361 998.454 Q215.44 1003.04 215.44 1011.79 Q215.44 1020.51 212.361 1025.12 Q209.306 1029.7 203.496 1029.7 Q197.686 1029.7 194.607 1025.12 Q191.551 1020.51 191.551 1011.79 Q191.551 1003.04 194.607 998.454 Q197.686 993.848 203.496 993.848 Z" fill="#000000" fill-rule="nonzero" fill-opacity="1" /><path clip-path="url(#clip390)" d="M236.505 998.547 L224.699 1017 L236.505 1017 L236.505 998.547 M235.278 994.473 L241.158 994.473 L241.158 1017 L246.088 1017 L246.088 1020.88 L241.158 1020.88 L241.158 1029.03 L236.505 1029.03 L236.505 1020.88 L220.903 1020.88 L220.903 1016.37 L235.278 994.473 Z" fill="#000000" fill-rule="nonzero" fill-opacity="1" /><path clip-path="url(#clip390)" d="M257.847 1025.1 L274.167 1025.1 L274.167 1029.03 L252.222 1029.03 L252.222 1025.1 Q254.884 1022.34 259.468 1017.71 Q264.074 1013.06 265.255 1011.72 Q267.5 1009.19 268.38 1007.46 Q269.282 1005.7 269.282 1004.01 Q269.282 1001.26 267.338 999.519 Q265.417 997.783 262.315 997.783 Q260.116 997.783 257.662 998.547 Q255.232 999.311 252.454 1000.86 L252.454 996.139 Q255.278 995.005 257.732 994.426 Q260.185 993.848 262.222 993.848 Q267.593 993.848 270.787 996.533 Q273.982 999.218 273.982 1003.71 Q273.982 1005.84 273.171 1007.76 Q272.384 1009.66 270.278 1012.25 Q269.699 1012.92 266.597 1016.14 Q263.495 1019.33 257.847 1025.1 Z" fill="#000000" fill-rule="nonzero" fill-opacity="1" /><path clip-path="url(#clip390)" d="M126.598 748.628 Q123.45 748.628 121.598 750.781 Q119.769 752.934 119.769 756.684 Q119.769 760.411 121.598 762.586 Q123.45 764.739 126.598 764.739 Q129.746 764.739 131.575 762.586 Q133.427 760.411 133.427 756.684 Q133.427 752.934 131.575 750.781 Q129.746 748.628 126.598 748.628 M135.88 733.975 L135.88 738.235 Q134.121 737.401 132.316 736.962 Q130.533 736.522 128.774 736.522 Q124.144 736.522 121.691 739.647 Q119.26 742.772 118.913 749.091 Q120.279 747.077 122.339 746.012 Q124.399 744.924 126.876 744.924 Q132.084 744.924 135.093 748.096 Q138.126 751.244 138.126 756.684 Q138.126 762.008 134.978 765.225 Q131.83 768.443 126.598 768.443 Q120.603 768.443 117.431 763.86 Q114.26 759.253 114.26 750.526 Q114.26 742.332 118.149 737.471 Q122.038 732.587 128.589 732.587 Q130.348 732.587 132.13 732.934 Q133.936 733.281 135.88 733.975 Z" fill="#000000" fill-rule="nonzero" fill-opacity="1" /><path clip-path="url(#clip390)" d="M146.181 761.892 L151.066 761.892 L151.066 767.772 L146.181 767.772 L146.181 761.892 Z" fill="#000000" fill-rule="nonzero" fill-opacity="1" /><path clip-path="url(#clip390)" d="M171.251 736.29 Q167.64 736.29 165.811 739.855 Q164.005 743.397 164.005 750.526 Q164.005 757.633 165.811 761.198 Q167.64 764.739 171.251 764.739 Q174.885 764.739 176.69 761.198 Q178.519 757.633 178.519 750.526 Q178.519 743.397 176.69 739.855 Q174.885 736.29 171.251 736.29 M171.251 732.587 Q177.061 732.587 180.116 737.193 Q183.195 741.776 183.195 750.526 Q183.195 759.253 180.116 763.86 Q177.061 768.443 171.251 768.443 Q165.44 768.443 162.362 763.86 Q159.306 759.253 159.306 750.526 Q159.306 741.776 162.362 737.193 Q165.44 732.587 171.251 732.587 Z" fill="#000000" fill-rule="nonzero" fill-opacity="1" /><path clip-path="url(#clip390)" d="M201.412 736.29 Q197.801 736.29 195.973 739.855 Q194.167 743.397 194.167 750.526 Q194.167 757.633 195.973 761.198 Q197.801 764.739 201.412 764.739 Q205.047 764.739 206.852 761.198 Q208.681 757.633 208.681 750.526 Q208.681 743.397 206.852 739.855 Q205.047 736.29 201.412 736.29 M201.412 732.587 Q207.223 732.587 210.278 737.193 Q213.357 741.776 213.357 750.526 Q213.357 759.253 210.278 763.86 Q207.223 768.443 201.412 768.443 Q195.602 768.443 192.524 763.86 Q189.468 759.253 189.468 750.526 Q189.468 741.776 192.524 737.193 Q195.602 732.587 201.412 732.587 Z" fill="#000000" fill-rule="nonzero" fill-opacity="1" /><path clip-path="url(#clip390)" d="M234.422 737.286 L222.616 755.735 L234.422 755.735 L234.422 737.286 M233.195 733.212 L239.074 733.212 L239.074 755.735 L244.005 755.735 L244.005 759.623 L239.074 759.623 L239.074 767.772 L234.422 767.772 L234.422 759.623 L218.82 759.623 L218.82 755.11 L233.195 733.212 Z" fill="#000000" fill-rule="nonzero" fill-opacity="1" /><path clip-path="url(#clip390)" d="M264.583 737.286 L252.778 755.735 L264.583 755.735 L264.583 737.286 M263.357 733.212 L269.236 733.212 L269.236 755.735 L274.167 755.735 L274.167 759.623 L269.236 759.623 L269.236 767.772 L264.583 767.772 L264.583 759.623 L248.982 759.623 L248.982 755.11 L263.357 733.212 Z" fill="#000000" fill-rule="nonzero" fill-opacity="1" /><path clip-path="url(#clip390)" d="M126.922 487.367 Q123.774 487.367 121.922 489.52 Q120.093 491.673 120.093 495.423 Q120.093 499.149 121.922 501.325 Q123.774 503.478 126.922 503.478 Q130.07 503.478 131.899 501.325 Q133.751 499.149 133.751 495.423 Q133.751 491.673 131.899 489.52 Q130.07 487.367 126.922 487.367 M136.204 472.714 L136.204 476.974 Q134.445 476.14 132.64 475.7 Q130.857 475.261 129.098 475.261 Q124.468 475.261 122.015 478.386 Q119.584 481.511 119.237 487.83 Q120.603 485.816 122.663 484.751 Q124.723 483.663 127.2 483.663 Q132.408 483.663 135.417 486.835 Q138.45 489.983 138.45 495.423 Q138.45 500.747 135.302 503.964 Q132.154 507.182 126.922 507.182 Q120.927 507.182 117.756 502.598 Q114.584 497.992 114.584 489.265 Q114.584 481.071 118.473 476.21 Q122.362 471.325 128.913 471.325 Q130.672 471.325 132.455 471.673 Q134.26 472.02 136.204 472.714 Z" fill="#000000" fill-rule="nonzero" fill-opacity="1" /><path clip-path="url(#clip390)" d="M146.505 500.631 L151.39 500.631 L151.39 506.51 L146.505 506.51 L146.505 500.631 Z" fill="#000000" fill-rule="nonzero" fill-opacity="1" /><path clip-path="url(#clip390)" d="M171.575 475.029 Q167.964 475.029 166.135 478.594 Q164.329 482.136 164.329 489.265 Q164.329 496.372 166.135 499.936 Q167.964 503.478 171.575 503.478 Q175.209 503.478 177.014 499.936 Q178.843 496.372 178.843 489.265 Q178.843 482.136 177.014 478.594 Q175.209 475.029 171.575 475.029 M171.575 471.325 Q177.385 471.325 180.44 475.932 Q183.519 480.515 183.519 489.265 Q183.519 497.992 180.44 502.598 Q177.385 507.182 171.575 507.182 Q165.765 507.182 162.686 502.598 Q159.63 497.992 159.63 489.265 Q159.63 480.515 162.686 475.932 Q165.765 471.325 171.575 471.325 Z" fill="#000000" fill-rule="nonzero" fill-opacity="1" /><path clip-path="url(#clip390)" d="M201.737 475.029 Q198.125 475.029 196.297 478.594 Q194.491 482.136 194.491 489.265 Q194.491 496.372 196.297 499.936 Q198.125 503.478 201.737 503.478 Q205.371 503.478 207.176 499.936 Q209.005 496.372 209.005 489.265 Q209.005 482.136 207.176 478.594 Q205.371 475.029 201.737 475.029 M201.737 471.325 Q207.547 471.325 210.602 475.932 Q213.681 480.515 213.681 489.265 Q213.681 497.992 210.602 502.598 Q207.547 507.182 201.737 507.182 Q195.926 507.182 192.848 502.598 Q189.792 497.992 189.792 489.265 Q189.792 480.515 192.848 475.932 Q195.926 471.325 201.737 471.325 Z" fill="#000000" fill-rule="nonzero" fill-opacity="1" /><path clip-path="url(#clip390)" d="M234.746 476.024 L222.94 494.473 L234.746 494.473 L234.746 476.024 M233.519 471.95 L239.398 471.95 L239.398 494.473 L244.329 494.473 L244.329 498.362 L239.398 498.362 L239.398 506.51 L234.746 506.51 L234.746 498.362 L219.144 498.362 L219.144 493.848 L233.519 471.95 Z" fill="#000000" fill-rule="nonzero" fill-opacity="1" /><path clip-path="url(#clip390)" d="M262.639 487.367 Q259.491 487.367 257.639 489.52 Q255.81 491.673 255.81 495.423 Q255.81 499.149 257.639 501.325 Q259.491 503.478 262.639 503.478 Q265.787 503.478 267.616 501.325 Q269.468 499.149 269.468 495.423 Q269.468 491.673 267.616 489.52 Q265.787 487.367 262.639 487.367 M271.921 472.714 L271.921 476.974 Q270.162 476.14 268.357 475.7 Q266.574 475.261 264.815 475.261 Q260.185 475.261 257.732 478.386 Q255.301 481.511 254.954 487.83 Q256.32 485.816 258.38 484.751 Q260.44 483.663 262.917 483.663 Q268.125 483.663 271.134 486.835 Q274.167 489.983 274.167 495.423 Q274.167 500.747 271.019 503.964 Q267.87 507.182 262.639 507.182 Q256.644 507.182 253.472 502.598 Q250.301 497.992 250.301 489.265 Q250.301 481.071 254.19 476.21 Q258.079 471.325 264.63 471.325 Q266.389 471.325 268.171 471.673 Q269.977 472.02 271.921 472.714 Z" fill="#000000" fill-rule="nonzero" fill-opacity="1" /><path clip-path="url(#clip390)" d="M127.177 226.106 Q124.029 226.106 122.177 228.259 Q120.348 230.411 120.348 234.161 Q120.348 237.888 122.177 240.064 Q124.029 242.217 127.177 242.217 Q130.325 242.217 132.154 240.064 Q134.005 237.888 134.005 234.161 Q134.005 230.411 132.154 228.259 Q130.325 226.106 127.177 226.106 M136.459 211.453 L136.459 215.712 Q134.7 214.879 132.894 214.439 Q131.112 213.999 129.353 213.999 Q124.723 213.999 122.269 217.124 Q119.839 220.249 119.492 226.569 Q120.857 224.555 122.918 223.49 Q124.978 222.402 127.455 222.402 Q132.663 222.402 135.672 225.573 Q138.704 228.722 138.704 234.161 Q138.704 239.485 135.556 242.703 Q132.408 245.921 127.177 245.921 Q121.181 245.921 118.01 241.337 Q114.839 236.731 114.839 228.004 Q114.839 219.81 118.728 214.949 Q122.617 210.064 129.167 210.064 Q130.927 210.064 132.709 210.412 Q134.515 210.759 136.459 211.453 Z" fill="#000000" fill-rule="nonzero" fill-opacity="1" /><path clip-path="url(#clip390)" d="M146.76 239.37 L151.644 239.37 L151.644 245.249 L146.76 245.249 L146.76 239.37 Z" fill="#000000" fill-rule="nonzero" fill-opacity="1" /><path clip-path="url(#clip390)" d="M171.829 213.768 Q168.218 213.768 166.39 217.333 Q164.584 220.874 164.584 228.004 Q164.584 235.11 166.39 238.675 Q168.218 242.217 171.829 242.217 Q175.464 242.217 177.269 238.675 Q179.098 235.11 179.098 228.004 Q179.098 220.874 177.269 217.333 Q175.464 213.768 171.829 213.768 M171.829 210.064 Q177.639 210.064 180.695 214.671 Q183.774 219.254 183.774 228.004 Q183.774 236.731 180.695 241.337 Q177.639 245.921 171.829 245.921 Q166.019 245.921 162.94 241.337 Q159.885 236.731 159.885 228.004 Q159.885 219.254 162.94 214.671 Q166.019 210.064 171.829 210.064 Z" fill="#000000" fill-rule="nonzero" fill-opacity="1" /><path clip-path="url(#clip390)" d="M201.991 213.768 Q198.38 213.768 196.551 217.333 Q194.746 220.874 194.746 228.004 Q194.746 235.11 196.551 238.675 Q198.38 242.217 201.991 242.217 Q205.625 242.217 207.431 238.675 Q209.26 235.11 209.26 228.004 Q209.26 220.874 207.431 217.333 Q205.625 213.768 201.991 213.768 M201.991 210.064 Q207.801 210.064 210.857 214.671 Q213.936 219.254 213.936 228.004 Q213.936 236.731 210.857 241.337 Q207.801 245.921 201.991 245.921 Q196.181 245.921 193.102 241.337 Q190.047 236.731 190.047 228.004 Q190.047 219.254 193.102 214.671 Q196.181 210.064 201.991 210.064 Z" fill="#000000" fill-rule="nonzero" fill-opacity="1" /><path clip-path="url(#clip390)" d="M235 214.763 L223.195 233.212 L235 233.212 L235 214.763 M233.773 210.689 L239.653 210.689 L239.653 233.212 L244.584 233.212 L244.584 237.101 L239.653 237.101 L239.653 245.249 L235 245.249 L235 237.101 L219.398 237.101 L219.398 232.587 L233.773 210.689 Z" fill="#000000" fill-rule="nonzero" fill-opacity="1" /><path clip-path="url(#clip390)" d="M262.315 228.837 Q258.982 228.837 257.06 230.62 Q255.162 232.402 255.162 235.527 Q255.162 238.652 257.06 240.435 Q258.982 242.217 262.315 242.217 Q265.648 242.217 267.57 240.435 Q269.491 238.629 269.491 235.527 Q269.491 232.402 267.57 230.62 Q265.671 228.837 262.315 228.837 M257.639 226.847 Q254.63 226.106 252.94 224.046 Q251.273 221.986 251.273 219.023 Q251.273 214.879 254.213 212.472 Q257.176 210.064 262.315 210.064 Q267.477 210.064 270.417 212.472 Q273.357 214.879 273.357 219.023 Q273.357 221.986 271.667 224.046 Q270 226.106 267.014 226.847 Q270.394 227.634 272.269 229.925 Q274.167 232.217 274.167 235.527 Q274.167 240.55 271.088 243.235 Q268.032 245.921 262.315 245.921 Q256.597 245.921 253.519 243.235 Q250.463 240.55 250.463 235.527 Q250.463 232.217 252.361 229.925 Q254.259 227.634 257.639 226.847 M255.926 219.462 Q255.926 222.148 257.593 223.652 Q259.283 225.157 262.315 225.157 Q265.324 225.157 267.014 223.652 Q268.727 222.148 268.727 219.462 Q268.727 216.777 267.014 215.273 Q265.324 213.768 262.315 213.768 Q259.283 213.768 257.593 215.273 Q255.926 216.777 255.926 219.462 Z" fill="#000000" fill-rule="nonzero" fill-opacity="1" /><path clip-path="url(#clip390)" d="M21.7677 981.565 L58.7206 981.565 L58.7206 973.799 Q58.7206 963.964 54.2646 959.412 Q49.8086 954.829 40.1964 954.829 Q30.6479 954.829 26.2237 959.412 Q21.7677 963.964 21.7677 973.799 L21.7677 981.565 M16.4842 987.994 L16.4842 974.785 Q16.4842 960.972 22.2451 954.511 Q27.9743 948.049 40.1964 948.049 Q52.4822 948.049 58.2432 954.542 Q64.0042 961.035 64.0042 974.785 L64.0042 987.994 L16.4842 987.994 Z" fill="#000000" fill-rule="nonzero" fill-opacity="1" /><path clip-path="url(#clip390)" d="M28.3562 938.055 L28.3562 932.199 L64.0042 932.199 L64.0042 938.055 L28.3562 938.055 M14.479 938.055 L14.479 932.199 L21.895 932.199 L21.895 938.055 L14.479 938.055 Z" fill="#000000" fill-rule="nonzero" fill-opacity="1" /><path clip-path="url(#clip390)" d="M29.4065 897.219 L34.9447 897.219 Q33.6716 899.702 33.035 902.375 Q32.3984 905.049 32.3984 907.914 Q32.3984 912.274 33.7352 914.47 Q35.072 916.635 37.7456 916.635 Q39.7826 916.635 40.9603 915.075 Q42.1061 913.515 43.1565 908.805 L43.6021 906.8 Q44.9389 900.561 47.3897 897.951 Q49.8086 895.309 54.1691 895.309 Q59.1344 895.309 62.0308 899.256 Q64.9272 903.171 64.9272 910.046 Q64.9272 912.911 64.3543 916.03 Q63.8132 919.117 62.6992 922.555 L56.6518 922.555 Q58.3387 919.308 59.198 916.157 Q60.0256 913.006 60.0256 909.919 Q60.0256 905.781 58.6251 903.553 Q57.1929 901.325 54.6147 901.325 Q52.2276 901.325 50.9545 902.948 Q49.6813 904.54 48.5037 909.982 L48.0262 912.019 Q46.8804 917.462 44.5251 919.881 Q42.138 922.3 38.0002 922.3 Q32.9713 922.3 30.2341 918.735 Q27.4968 915.17 27.4968 908.614 Q27.4968 905.367 27.9743 902.503 Q28.4517 899.638 29.4065 897.219 Z" fill="#000000" fill-rule="nonzero" fill-opacity="1" /><path clip-path="url(#clip390)" d="M18.2347 880.191 L28.3562 880.191 L28.3562 868.128 L32.9077 868.128 L32.9077 880.191 L52.2594 880.191 Q56.6199 880.191 57.8613 879.013 Q59.1026 877.804 59.1026 874.144 L59.1026 868.128 L64.0042 868.128 L64.0042 874.144 Q64.0042 880.923 61.4897 883.501 Q58.9434 886.079 52.2594 886.079 L32.9077 886.079 L32.9077 890.376 L28.3562 890.376 L28.3562 886.079 L18.2347 886.079 L18.2347 880.191 Z" fill="#000000" fill-rule="nonzero" fill-opacity="1" /><path clip-path="url(#clip390)" d="M46.0847 844.225 Q46.0847 851.322 47.7079 854.06 Q49.3312 856.797 53.2461 856.797 Q56.3653 856.797 58.2114 854.76 Q60.0256 852.691 60.0256 849.158 Q60.0256 844.288 56.5881 841.36 Q53.1188 838.4 47.3897 838.4 L46.0847 838.4 L46.0847 844.225 M43.6657 832.544 L64.0042 832.544 L64.0042 838.4 L58.5933 838.4 Q61.8398 840.405 63.3994 843.397 Q64.9272 846.389 64.9272 850.718 Q64.9272 856.192 61.8716 859.439 Q58.7843 862.653 53.6281 862.653 Q47.6125 862.653 44.5569 858.643 Q41.5014 854.601 41.5014 846.612 L41.5014 838.4 L40.9285 838.4 Q36.8862 838.4 34.6901 841.074 Q32.4621 843.715 32.4621 848.522 Q32.4621 851.577 33.1941 854.473 Q33.9262 857.37 35.3903 860.043 L29.9795 860.043 Q28.7381 856.829 28.1334 853.805 Q27.4968 850.781 27.4968 847.917 Q27.4968 840.182 31.5072 836.363 Q35.5176 832.544 43.6657 832.544 Z" fill="#000000" fill-rule="nonzero" fill-opacity="1" /><path clip-path="url(#clip390)" d="M42.4881 790.848 L64.0042 790.848 L64.0042 796.705 L42.679 796.705 Q37.6183 796.705 35.1038 798.678 Q32.5894 800.651 32.5894 804.598 Q32.5894 809.341 35.6131 812.078 Q38.6368 814.815 43.8567 814.815 L64.0042 814.815 L64.0042 820.703 L28.3562 820.703 L28.3562 814.815 L33.8944 814.815 Q30.6797 812.714 29.0883 809.882 Q27.4968 807.017 27.4968 803.293 Q27.4968 797.15 31.3163 793.999 Q35.1038 790.848 42.4881 790.848 Z" fill="#000000" fill-rule="nonzero" fill-opacity="1" /><path clip-path="url(#clip390)" d="M29.7248 753.513 L35.1993 753.513 Q33.8307 755.996 33.1623 758.51 Q32.4621 760.993 32.4621 763.539 Q32.4621 769.237 36.0905 772.388 Q39.6872 775.539 46.212 775.539 Q52.7369 775.539 56.3653 772.388 Q59.9619 769.237 59.9619 763.539 Q59.9619 760.993 59.2935 758.51 Q58.5933 755.996 57.2247 753.513 L62.6355 753.513 Q63.7814 755.964 64.3543 758.606 Q64.9272 761.216 64.9272 764.176 Q64.9272 772.229 59.8664 776.971 Q54.8057 781.713 46.212 781.713 Q37.491 781.713 32.4939 776.939 Q27.4968 772.133 27.4968 763.794 Q27.4968 761.089 28.0697 758.51 Q28.6108 755.932 29.7248 753.513 Z" fill="#000000" fill-rule="nonzero" fill-opacity="1" /><path clip-path="url(#clip390)" d="M44.7161 712.837 L47.5806 712.837 L47.5806 739.763 Q53.6281 739.382 56.8109 736.135 Q59.9619 732.857 59.9619 727.032 Q59.9619 723.658 59.1344 720.507 Q58.3069 717.324 56.6518 714.205 L62.1899 714.205 Q63.5267 717.356 64.227 720.666 Q64.9272 723.976 64.9272 727.382 Q64.9272 735.912 59.9619 740.909 Q54.9967 745.875 46.5303 745.875 Q37.7774 745.875 32.6531 741.164 Q27.4968 736.421 27.4968 728.401 Q27.4968 721.207 32.1438 717.038 Q36.7589 712.837 44.7161 712.837 M42.9973 718.693 Q38.1912 718.757 35.3266 721.398 Q32.4621 724.008 32.4621 728.337 Q32.4621 733.239 35.2312 736.199 Q38.0002 739.127 43.0292 739.572 L42.9973 718.693 Z" fill="#000000" fill-rule="nonzero" fill-opacity="1" /><path clip-path="url(#clip390)" d="M29.4065 680.499 L34.9447 680.499 Q33.6716 682.981 33.035 685.655 Q32.3984 688.329 32.3984 691.193 Q32.3984 695.554 33.7352 697.75 Q35.072 699.914 37.7456 699.914 Q39.7826 699.914 40.9603 698.355 Q42.1061 696.795 43.1565 692.084 L43.6021 690.079 Q44.9389 683.841 47.3897 681.231 Q49.8086 678.589 54.1691 678.589 Q59.1344 678.589 62.0308 682.536 Q64.9272 686.451 64.9272 693.326 Q64.9272 696.19 64.3543 699.309 Q63.8132 702.397 62.6992 705.834 L56.6518 705.834 Q58.3387 702.588 59.198 699.437 Q60.0256 696.286 60.0256 693.198 Q60.0256 689.061 58.6251 686.833 Q57.1929 684.605 54.6147 684.605 Q52.2276 684.605 50.9545 686.228 Q49.6813 687.819 48.5037 693.262 L48.0262 695.299 Q46.8804 700.742 44.5251 703.161 Q42.138 705.58 38.0002 705.58 Q32.9713 705.58 30.2341 702.015 Q27.4968 698.45 27.4968 691.893 Q27.4968 688.647 27.9743 685.782 Q28.4517 682.918 29.4065 680.499 Z" fill="#000000" fill-rule="nonzero" fill-opacity="1" /><path clip-path="url(#clip390)" d="M14.479 649.084 L14.479 635.589 L19.0304 635.589 L19.0304 643.228 L68.0464 643.228 L68.0464 635.589 L72.5979 635.589 L72.5979 649.084 L14.479 649.084 Z" fill="#000000" fill-rule="nonzero" fill-opacity="1" /><path clip-path="url(#clip390)" d="M35.1993 595.357 Q31.2526 593.161 29.3747 590.106 Q27.4968 587.05 27.4968 582.912 Q27.4968 577.342 31.4117 574.319 Q35.2948 571.295 42.4881 571.295 L64.0042 571.295 L64.0042 577.183 L42.679 577.183 Q37.5546 577.183 35.072 578.998 Q32.5894 580.812 32.5894 584.536 Q32.5894 589.087 35.6131 591.729 Q38.6368 594.371 43.8567 594.371 L64.0042 594.371 L64.0042 600.259 L42.679 600.259 Q37.5228 600.259 35.072 602.073 Q32.5894 603.887 32.5894 607.675 Q32.5894 612.163 35.6449 614.805 Q38.6686 617.446 43.8567 617.446 L64.0042 617.446 L64.0042 623.335 L28.3562 623.335 L28.3562 617.446 L33.8944 617.446 Q30.616 615.441 29.0564 612.64 Q27.4968 609.839 27.4968 605.988 Q27.4968 602.105 29.4702 599.4 Q31.4436 596.662 35.1993 595.357 Z" fill="#000000" fill-rule="nonzero" fill-opacity="1" /><path clip-path="url(#clip390)" d="M35.1993 531.859 Q31.2526 529.663 29.3747 526.608 Q27.4968 523.552 27.4968 519.415 Q27.4968 513.845 31.4117 510.821 Q35.2948 507.797 42.4881 507.797 L64.0042 507.797 L64.0042 513.685 L42.679 513.685 Q37.5546 513.685 35.072 515.5 Q32.5894 517.314 32.5894 521.038 Q32.5894 525.589 35.6131 528.231 Q38.6368 530.873 43.8567 530.873 L64.0042 530.873 L64.0042 536.761 L42.679 536.761 Q37.5228 536.761 35.072 538.575 Q32.5894 540.39 32.5894 544.177 Q32.5894 548.665 35.6449 551.307 Q38.6686 553.948 43.8567 553.948 L64.0042 553.948 L64.0042 559.837 L28.3562 559.837 L28.3562 553.948 L33.8944 553.948 Q30.616 551.943 29.0564 549.142 Q27.4968 546.341 27.4968 542.49 Q27.4968 538.607 29.4702 535.902 Q31.4436 533.164 35.1993 531.859 Z" fill="#000000" fill-rule="nonzero" fill-opacity="1" /><path clip-path="url(#clip390)" d="M14.479 482.43 L72.5979 482.43 L72.5979 495.925 L68.0464 495.925 L68.0464 488.318 L19.0304 488.318 L19.0304 495.925 L14.479 495.925 L14.479 482.43 Z" fill="#000000" fill-rule="nonzero" fill-opacity="1" /><circle clip-path="url(#clip392)" cx="367.976" cy="86.1857" r="14.4" fill="#009af9" fill-rule="evenodd" fill-opacity="1" stroke="#000000" stroke-opacity="1" stroke-width="3.2"/>
<circle clip-path="url(#clip392)" cx="1010.3" cy="1373.55" r="14.4" fill="#009af9" fill-rule="evenodd" fill-opacity="1" stroke="#000000" stroke-opacity="1" stroke-width="3.2"/>
<circle clip-path="url(#clip392)" cx="1652.62" cy="1377.72" r="14.4" fill="#009af9" fill-rule="evenodd" fill-opacity="1" stroke="#000000" stroke-opacity="1" stroke-width="3.2"/>
<circle clip-path="url(#clip392)" cx="2294.95" cy="1384.24" r="14.4" fill="#009af9" fill-rule="evenodd" fill-opacity="1" stroke="#000000" stroke-opacity="1" stroke-width="3.2"/>
<path clip-path="url(#clip390)" d="M2027.98 196.789 L2284.67 196.789 L2284.67 93.1086 L2027.98 93.1086  Z" fill="#ffffff" fill-rule="evenodd" fill-opacity="1"/>
<polyline clip-path="url(#clip390)" style="stroke:#000000; stroke-linecap:round; stroke-linejoin:round; stroke-width:4; stroke-opacity:1; fill:none" points="2027.98,196.789 2284.67,196.789 2284.67,93.1086 2027.98,93.1086 2027.98,196.789 "/>
<circle clip-path="url(#clip390)" cx="2118.76" cy="144.949" r="20.48" fill="#009af9" fill-rule="evenodd" fill-opacity="1" stroke="#000000" stroke-opacity="1" stroke-width="4.55111"/>
<path clip-path="url(#clip390)" d="M2223.39 164.636 Q2221.58 169.266 2219.87 170.678 Q2218.15 172.09 2215.28 172.09 L2211.88 172.09 L2211.88 168.525 L2214.38 168.525 Q2216.14 168.525 2217.11 167.692 Q2218.09 166.858 2219.27 163.756 L2220.03 161.812 L2209.54 136.303 L2214.06 136.303 L2222.16 156.581 L2230.26 136.303 L2234.78 136.303 L2223.39 164.636 Z" fill="#000000" fill-rule="nonzero" fill-opacity="1" /><path clip-path="url(#clip390)" d="M2242.07 158.293 L2249.71 158.293 L2249.71 131.928 L2241.4 133.595 L2241.4 129.335 L2249.66 127.669 L2254.34 127.669 L2254.34 158.293 L2261.97 158.293 L2261.97 162.229 L2242.07 162.229 L2242.07 158.293 Z" fill="#000000" fill-rule="nonzero" fill-opacity="1" /></svg>
