<?xml version="1.0" encoding="utf-8"?>
<svg xmlns="http://www.w3.org/2000/svg" xmlns:xlink="http://www.w3.org/1999/xlink" width="600" height="400" viewBox="0 0 2400 1600">
<defs>
  <clipPath id="clip350">
    <rect x="0" y="0" width="2400" height="1600"/>
  </clipPath>
</defs>
<path clip-path="url(#clip350)" d="M0 1600 L2400 1600 L2400 0 L0 0  Z" fill="#ffffff" fill-rule="evenodd" fill-opacity="1"/>
<defs>
  <clipPath id="clip351">
    <rect x="480" y="0" width="1681" height="1600"/>
  </clipPath>
</defs>
<path clip-path="url(#clip350)" d="M489.357 1423.18 L2352.76 1423.18 L2352.76 47.2441 L489.357 47.2441  Z" fill="#ffffff" fill-rule="evenodd" fill-opacity="1"/>
<defs>
  <clipPath id="clip352">
    <rect x="489" y="47" width="1864" height="1377"/>
  </clipPath>
</defs>
<polyline clip-path="url(#clip352)" style="stroke:#000000; stroke-linecap:round; stroke-linejoin:round; stroke-width:2; stroke-opacity:0.1; fill:none" points="717.887,1423.18 717.887,47.2441 "/>
<polyline clip-path="url(#clip352)" style="stroke:#000000; stroke-linecap:round; stroke-linejoin:round; stroke-width:2; stroke-opacity:0.1; fill:none" points="1069.47,1423.18 1069.47,47.2441 "/>
<polyline clip-path="url(#clip352)" style="stroke:#000000; stroke-linecap:round; stroke-linejoin:round; stroke-width:2; stroke-opacity:0.1; fill:none" points="1421.06,1423.18 1421.06,47.2441 "/>
<polyline clip-path="url(#clip352)" style="stroke:#000000; stroke-linecap:round; stroke-linejoin:round; stroke-width:2; stroke-opacity:0.1; fill:none" points="1772.64,1423.18 1772.64,47.2441 "/>
<polyline clip-path="url(#clip352)" style="stroke:#000000; stroke-linecap:round; stroke-linejoin:round; stroke-width:2; stroke-opacity:0.1; fill:none" points="2124.23,1423.18 2124.23,47.2441 "/>
<polyline clip-path="url(#clip352)" style="stroke:#000000; stroke-linecap:round; stroke-linejoin:round; stroke-width:2; stroke-opacity:0.1; fill:none" points="489.357,1349.9 2352.76,1349.9 "/>
<polyline clip-path="url(#clip352)" style="stroke:#000000; stroke-linecap:round; stroke-linejoin:round; stroke-width:2; stroke-opacity:0.1; fill:none" points="489.357,1082.01 2352.76,1082.01 "/>
<polyline clip-path="url(#clip352)" style="stroke:#000000; stroke-linecap:round; stroke-linejoin:round; stroke-width:2; stroke-opacity:0.1; fill:none" points="489.357,814.118 2352.76,814.118 "/>
<polyline clip-path="url(#clip352)" style="stroke:#000000; stroke-linecap:round; stroke-linejoin:round; stroke-width:2; stroke-opacity:0.1; fill:none" points="489.357,546.226 2352.76,546.226 "/>
<polyline clip-path="url(#clip352)" style="stroke:#000000; stroke-linecap:round; stroke-linejoin:round; stroke-width:2; stroke-opacity:0.1; fill:none" points="489.357,278.333 2352.76,278.333 "/>
<polyline clip-path="url(#clip350)" style="stroke:#000000; stroke-linecap:round; stroke-linejoin:round; stroke-width:4; stroke-opacity:1; fill:none" points="489.357,1423.18 2352.76,1423.18 "/>
<polyline clip-path="url(#clip350)" style="stroke:#000000; stroke-linecap:round; stroke-linejoin:round; stroke-width:4; stroke-opacity:1; fill:none" points="717.887,1423.18 717.887,1404.28 "/>
<polyline clip-path="url(#clip350)" style="stroke:#000000; stroke-linecap:round; stroke-linejoin:round; stroke-width:4; stroke-opacity:1; fill:none" points="1069.47,1423.18 1069.47,1404.28 "/>
<polyline clip-path="url(#clip350)" style="stroke:#000000; stroke-linecap:round; stroke-linejoin:round; stroke-width:4; stroke-opacity:1; fill:none" points="1421.06,1423.18 1421.06,1404.28 "/>
<polyline clip-path="url(#clip350)" style="stroke:#000000; stroke-linecap:round; stroke-linejoin:round; stroke-width:4; stroke-opacity:1; fill:none" points="1772.64,1423.18 1772.64,1404.28 "/>
<polyline clip-path="url(#clip350)" style="stroke:#000000; stroke-linecap:round; stroke-linejoin:round; stroke-width:4; stroke-opacity:1; fill:none" points="2124.23,1423.18 2124.23,1404.28 "/>
<path clip-path="url(#clip350)" d="M673.964 1481.64 L690.283 1481.64 L690.283 1485.58 L668.339 1485.58 L668.339 1481.64 Q671.001 1478.89 675.584 1474.26 Q680.191 1469.61 681.371 1468.27 Q683.616 1465.74 684.496 1464.01 Q685.399 1462.25 685.399 1460.56 Q685.399 1457.8 683.454 1456.07 Q681.533 1454.33 678.431 1454.33 Q676.232 1454.33 673.779 1455.09 Q671.348 1455.86 668.57 1457.41 L668.57 1452.69 Q671.394 1451.55 673.848 1450.97 Q676.302 1450.39 678.339 1450.39 Q683.709 1450.39 686.903 1453.08 Q690.098 1455.77 690.098 1460.26 Q690.098 1462.39 689.288 1464.31 Q688.501 1466.2 686.394 1468.8 Q685.815 1469.47 682.714 1472.69 Q679.612 1475.88 673.964 1481.64 Z" fill="#000000" fill-rule="nonzero" fill-opacity="1" /><path clip-path="url(#clip350)" d="M712.945 1455.09 L701.139 1473.54 L712.945 1473.54 L712.945 1455.09 M711.718 1451.02 L717.598 1451.02 L717.598 1473.54 L722.528 1473.54 L722.528 1477.43 L717.598 1477.43 L717.598 1485.58 L712.945 1485.58 L712.945 1477.43 L697.343 1477.43 L697.343 1472.92 L711.718 1451.02 Z" fill="#000000" fill-rule="nonzero" fill-opacity="1" /><path clip-path="url(#clip350)" d="M730.26 1479.7 L735.144 1479.7 L735.144 1485.58 L730.26 1485.58 L730.26 1479.7 Z" fill="#000000" fill-rule="nonzero" fill-opacity="1" /><path clip-path="url(#clip350)" d="M755.908 1466.44 Q752.76 1466.44 750.908 1468.59 Q749.079 1470.74 749.079 1474.49 Q749.079 1478.22 750.908 1480.39 Q752.76 1482.55 755.908 1482.55 Q759.056 1482.55 760.885 1480.39 Q762.736 1478.22 762.736 1474.49 Q762.736 1470.74 760.885 1468.59 Q759.056 1466.44 755.908 1466.44 M765.19 1451.78 L765.19 1456.04 Q763.431 1455.21 761.625 1454.77 Q759.843 1454.33 758.084 1454.33 Q753.454 1454.33 751 1457.45 Q748.57 1460.58 748.223 1466.9 Q749.588 1464.89 751.648 1463.82 Q753.709 1462.73 756.185 1462.73 Q761.394 1462.73 764.403 1465.9 Q767.435 1469.05 767.435 1474.49 Q767.435 1479.82 764.287 1483.03 Q761.139 1486.25 755.908 1486.25 Q749.912 1486.25 746.741 1481.67 Q743.57 1477.06 743.57 1468.33 Q743.57 1460.14 747.459 1455.28 Q751.348 1450.39 757.898 1450.39 Q759.658 1450.39 761.44 1450.74 Q763.246 1451.09 765.19 1451.78 Z" fill="#000000" fill-rule="nonzero" fill-opacity="1" /><path clip-path="url(#clip350)" d="M1025.68 1481.64 L1042 1481.64 L1042 1485.58 L1020.05 1485.58 L1020.05 1481.64 Q1022.71 1478.89 1027.3 1474.26 Q1031.9 1469.61 1033.08 1468.27 Q1035.33 1465.74 1036.21 1464.01 Q1037.11 1462.25 1037.11 1460.56 Q1037.11 1457.8 1035.17 1456.07 Q1033.25 1454.33 1030.14 1454.33 Q1027.94 1454.33 1025.49 1455.09 Q1023.06 1455.86 1020.28 1457.41 L1020.28 1452.69 Q1023.11 1451.55 1025.56 1450.97 Q1028.01 1450.39 1030.05 1450.39 Q1035.42 1450.39 1038.62 1453.08 Q1041.81 1455.77 1041.81 1460.26 Q1041.81 1462.39 1041 1464.31 Q1040.21 1466.2 1038.11 1468.8 Q1037.53 1469.47 1034.43 1472.69 Q1031.32 1475.88 1025.68 1481.64 Z" fill="#000000" fill-rule="nonzero" fill-opacity="1" /><path clip-path="url(#clip350)" d="M1064.66 1455.09 L1052.85 1473.54 L1064.66 1473.54 L1064.66 1455.09 M1063.43 1451.02 L1069.31 1451.02 L1069.31 1473.54 L1074.24 1473.54 L1074.24 1477.43 L1069.31 1477.43 L1069.31 1485.58 L1064.66 1485.58 L1064.66 1477.43 L1049.06 1477.43 L1049.06 1472.92 L1063.43 1451.02 Z" fill="#000000" fill-rule="nonzero" fill-opacity="1" /><path clip-path="url(#clip350)" d="M1081.97 1479.7 L1086.86 1479.7 L1086.86 1485.58 L1081.97 1485.58 L1081.97 1479.7 Z" fill="#000000" fill-rule="nonzero" fill-opacity="1" /><path clip-path="url(#clip350)" d="M1107.04 1469.17 Q1103.71 1469.17 1101.79 1470.95 Q1099.89 1472.73 1099.89 1475.86 Q1099.89 1478.98 1101.79 1480.77 Q1103.71 1482.55 1107.04 1482.55 Q1110.37 1482.55 1112.3 1480.77 Q1114.22 1478.96 1114.22 1475.86 Q1114.22 1472.73 1112.3 1470.95 Q1110.4 1469.17 1107.04 1469.17 M1102.37 1467.18 Q1099.36 1466.44 1097.67 1464.38 Q1096 1462.32 1096 1459.35 Q1096 1455.21 1098.94 1452.8 Q1101.9 1450.39 1107.04 1450.39 Q1112.2 1450.39 1115.14 1452.8 Q1118.08 1455.21 1118.08 1459.35 Q1118.08 1462.32 1116.39 1464.38 Q1114.73 1466.44 1111.74 1467.18 Q1115.12 1467.96 1116.99 1470.26 Q1118.89 1472.55 1118.89 1475.86 Q1118.89 1480.88 1115.81 1483.57 Q1112.76 1486.25 1107.04 1486.25 Q1101.32 1486.25 1098.24 1483.57 Q1095.19 1480.88 1095.19 1475.86 Q1095.19 1472.55 1097.09 1470.26 Q1098.99 1467.96 1102.37 1467.18 M1100.65 1459.79 Q1100.65 1462.48 1102.32 1463.98 Q1104.01 1465.49 1107.04 1465.49 Q1110.05 1465.49 1111.74 1463.98 Q1113.45 1462.48 1113.45 1459.79 Q1113.45 1457.11 1111.74 1455.6 Q1110.05 1454.1 1107.04 1454.1 Q1104.01 1454.1 1102.32 1455.6 Q1100.65 1457.11 1100.65 1459.79 Z" fill="#000000" fill-rule="nonzero" fill-opacity="1" /><path clip-path="url(#clip350)" d="M1377.21 1481.64 L1393.53 1481.64 L1393.53 1485.58 L1371.59 1485.58 L1371.59 1481.64 Q1374.25 1478.89 1378.83 1474.26 Q1383.44 1469.61 1384.62 1468.27 Q1386.87 1465.74 1387.75 1464.01 Q1388.65 1462.25 1388.65 1460.56 Q1388.65 1457.8 1386.7 1456.07 Q1384.78 1454.33 1381.68 1454.33 Q1379.48 1454.33 1377.03 1455.09 Q1374.6 1455.86 1371.82 1457.41 L1371.82 1452.69 Q1374.64 1451.55 1377.1 1450.97 Q1379.55 1450.39 1381.59 1450.39 Q1386.96 1450.39 1390.15 1453.08 Q1393.35 1455.77 1393.35 1460.26 Q1393.35 1462.39 1392.54 1464.31 Q1391.75 1466.2 1389.64 1468.8 Q1389.07 1469.47 1385.96 1472.69 Q1382.86 1475.88 1377.21 1481.64 Z" fill="#000000" fill-rule="nonzero" fill-opacity="1" /><path clip-path="url(#clip350)" d="M1403.39 1451.02 L1421.75 1451.02 L1421.75 1454.96 L1407.68 1454.96 L1407.68 1463.43 Q1408.7 1463.08 1409.71 1462.92 Q1410.73 1462.73 1411.75 1462.73 Q1417.54 1462.73 1420.92 1465.9 Q1424.3 1469.08 1424.3 1474.49 Q1424.3 1480.07 1420.82 1483.17 Q1417.35 1486.25 1411.03 1486.25 Q1408.86 1486.25 1406.59 1485.88 Q1404.34 1485.51 1401.94 1484.77 L1401.94 1480.07 Q1404.02 1481.2 1406.24 1481.76 Q1408.46 1482.32 1410.94 1482.32 Q1414.95 1482.32 1417.28 1480.21 Q1419.62 1478.1 1419.62 1474.49 Q1419.62 1470.88 1417.28 1468.77 Q1414.95 1466.67 1410.94 1466.67 Q1409.07 1466.67 1407.19 1467.08 Q1405.34 1467.5 1403.39 1468.38 L1403.39 1451.02 Z" fill="#000000" fill-rule="nonzero" fill-opacity="1" /><path clip-path="url(#clip350)" d="M1433.51 1479.7 L1438.39 1479.7 L1438.39 1485.58 L1433.51 1485.58 L1433.51 1479.7 Z" fill="#000000" fill-rule="nonzero" fill-opacity="1" /><path clip-path="url(#clip350)" d="M1458.58 1454.1 Q1454.97 1454.1 1453.14 1457.66 Q1451.33 1461.2 1451.33 1468.33 Q1451.33 1475.44 1453.14 1479.01 Q1454.97 1482.55 1458.58 1482.55 Q1462.21 1482.55 1464.02 1479.01 Q1465.85 1475.44 1465.85 1468.33 Q1465.85 1461.2 1464.02 1457.66 Q1462.21 1454.1 1458.58 1454.1 M1458.58 1450.39 Q1464.39 1450.39 1467.45 1455 Q1470.52 1459.58 1470.52 1468.33 Q1470.52 1477.06 1467.45 1481.67 Q1464.39 1486.25 1458.58 1486.25 Q1452.77 1486.25 1449.69 1481.67 Q1446.64 1477.06 1446.64 1468.33 Q1446.64 1459.58 1449.69 1455 Q1452.77 1450.39 1458.58 1450.39 Z" fill="#000000" fill-rule="nonzero" fill-opacity="1" /><path clip-path="url(#clip350)" d="M1729.6 1481.64 L1745.92 1481.64 L1745.92 1485.58 L1723.97 1485.58 L1723.97 1481.64 Q1726.63 1478.89 1731.22 1474.26 Q1735.82 1469.61 1737 1468.27 Q1739.25 1465.74 1740.13 1464.01 Q1741.03 1462.25 1741.03 1460.56 Q1741.03 1457.8 1739.09 1456.07 Q1737.17 1454.33 1734.06 1454.33 Q1731.87 1454.33 1729.41 1455.09 Q1726.98 1455.86 1724.2 1457.41 L1724.2 1452.69 Q1727.03 1451.55 1729.48 1450.97 Q1731.94 1450.39 1733.97 1450.39 Q1739.34 1450.39 1742.54 1453.08 Q1745.73 1455.77 1745.73 1460.26 Q1745.73 1462.39 1744.92 1464.31 Q1744.13 1466.2 1742.03 1468.8 Q1741.45 1469.47 1738.35 1472.69 Q1735.25 1475.88 1729.6 1481.64 Z" fill="#000000" fill-rule="nonzero" fill-opacity="1" /><path clip-path="url(#clip350)" d="M1755.78 1451.02 L1774.13 1451.02 L1774.13 1454.96 L1760.06 1454.96 L1760.06 1463.43 Q1761.08 1463.08 1762.1 1462.92 Q1763.12 1462.73 1764.13 1462.73 Q1769.92 1462.73 1773.3 1465.9 Q1776.68 1469.08 1776.68 1474.49 Q1776.68 1480.07 1773.21 1483.17 Q1769.74 1486.25 1763.42 1486.25 Q1761.24 1486.25 1758.97 1485.88 Q1756.73 1485.51 1754.32 1484.77 L1754.32 1480.07 Q1756.4 1481.2 1758.63 1481.76 Q1760.85 1482.32 1763.32 1482.32 Q1767.33 1482.32 1769.67 1480.21 Q1772 1478.1 1772 1474.49 Q1772 1470.88 1769.67 1468.77 Q1767.33 1466.67 1763.32 1466.67 Q1761.45 1466.67 1759.57 1467.08 Q1757.72 1467.5 1755.78 1468.38 L1755.78 1451.02 Z" fill="#000000" fill-rule="nonzero" fill-opacity="1" /><path clip-path="url(#clip350)" d="M1785.89 1479.7 L1790.78 1479.7 L1790.78 1485.58 L1785.89 1485.58 L1785.89 1479.7 Z" fill="#000000" fill-rule="nonzero" fill-opacity="1" /><path clip-path="url(#clip350)" d="M1804.99 1481.64 L1821.31 1481.64 L1821.31 1485.58 L1799.37 1485.58 L1799.37 1481.64 Q1802.03 1478.89 1806.61 1474.26 Q1811.22 1469.61 1812.4 1468.27 Q1814.64 1465.74 1815.52 1464.01 Q1816.43 1462.25 1816.43 1460.56 Q1816.43 1457.8 1814.48 1456.07 Q1812.56 1454.33 1809.46 1454.33 Q1807.26 1454.33 1804.81 1455.09 Q1802.37 1455.86 1799.6 1457.41 L1799.6 1452.69 Q1802.42 1451.55 1804.87 1450.97 Q1807.33 1450.39 1809.37 1450.39 Q1814.74 1450.39 1817.93 1453.08 Q1821.12 1455.77 1821.12 1460.26 Q1821.12 1462.39 1820.31 1464.31 Q1819.53 1466.2 1817.42 1468.8 Q1816.84 1469.47 1813.74 1472.69 Q1810.64 1475.88 1804.99 1481.64 Z" fill="#000000" fill-rule="nonzero" fill-opacity="1" /><path clip-path="url(#clip350)" d="M2080.14 1481.64 L2096.46 1481.64 L2096.46 1485.58 L2074.52 1485.58 L2074.52 1481.64 Q2077.18 1478.89 2081.76 1474.26 Q2086.37 1469.61 2087.55 1468.27 Q2089.79 1465.74 2090.67 1464.01 Q2091.58 1462.25 2091.58 1460.56 Q2091.58 1457.8 2089.63 1456.07 Q2087.71 1454.33 2084.61 1454.33 Q2082.41 1454.33 2079.96 1455.09 Q2077.52 1455.86 2074.75 1457.41 L2074.75 1452.69 Q2077.57 1451.55 2080.02 1450.97 Q2082.48 1450.39 2084.52 1450.39 Q2089.89 1450.39 2093.08 1453.08 Q2096.27 1455.77 2096.27 1460.26 Q2096.27 1462.39 2095.46 1464.31 Q2094.68 1466.2 2092.57 1468.8 Q2091.99 1469.47 2088.89 1472.69 Q2085.79 1475.88 2080.14 1481.64 Z" fill="#000000" fill-rule="nonzero" fill-opacity="1" /><path clip-path="url(#clip350)" d="M2106.32 1451.02 L2124.68 1451.02 L2124.68 1454.96 L2110.6 1454.96 L2110.6 1463.43 Q2111.62 1463.08 2112.64 1462.92 Q2113.66 1462.73 2114.68 1462.73 Q2120.46 1462.73 2123.84 1465.9 Q2127.22 1469.08 2127.22 1474.49 Q2127.22 1480.07 2123.75 1483.17 Q2120.28 1486.25 2113.96 1486.25 Q2111.78 1486.25 2109.52 1485.88 Q2107.27 1485.51 2104.86 1484.77 L2104.86 1480.07 Q2106.95 1481.2 2109.17 1481.76 Q2111.39 1482.32 2113.87 1482.32 Q2117.87 1482.32 2120.21 1480.21 Q2122.55 1478.1 2122.55 1474.49 Q2122.55 1470.88 2120.21 1468.77 Q2117.87 1466.67 2113.87 1466.67 Q2111.99 1466.67 2110.12 1467.08 Q2108.27 1467.5 2106.32 1468.38 L2106.32 1451.02 Z" fill="#000000" fill-rule="nonzero" fill-opacity="1" /><path clip-path="url(#clip350)" d="M2136.44 1479.7 L2141.32 1479.7 L2141.32 1485.58 L2136.44 1485.58 L2136.44 1479.7 Z" fill="#000000" fill-rule="nonzero" fill-opacity="1" /><path clip-path="url(#clip350)" d="M2164.35 1455.09 L2152.55 1473.54 L2164.35 1473.54 L2164.35 1455.09 M2163.13 1451.02 L2169.01 1451.02 L2169.01 1473.54 L2173.94 1473.54 L2173.94 1477.43 L2169.01 1477.43 L2169.01 1485.58 L2164.35 1485.58 L2164.35 1477.43 L2148.75 1477.43 L2148.75 1472.92 L2163.13 1451.02 Z" fill="#000000" fill-rule="nonzero" fill-opacity="1" /><path clip-path="url(#clip350)" d="M1129.22 1520.52 L1156.53 1520.52 L1156.53 1525.93 L1135.65 1525.93 L1135.65 1539.94 L1154.49 1539.94 L1154.49 1545.35 L1135.65 1545.35 L1135.65 1568.04 L1129.22 1568.04 L1129.22 1520.52 Z" fill="#000000" fill-rule="nonzero" fill-opacity="1" /><path clip-path="url(#clip350)" d="M1182.37 1537.87 Q1181.39 1537.3 1180.21 1537.04 Q1179.06 1536.76 1177.66 1536.76 Q1172.7 1536.76 1170.02 1540 Q1167.38 1543.22 1167.38 1549.27 L1167.38 1568.04 L1161.49 1568.04 L1161.49 1532.4 L1167.38 1532.4 L1167.38 1537.93 Q1169.23 1534.69 1172.19 1533.13 Q1175.15 1531.54 1179.38 1531.54 Q1179.99 1531.54 1180.72 1531.63 Q1181.45 1531.7 1182.34 1531.85 L1182.37 1537.87 Z" fill="#000000" fill-rule="nonzero" fill-opacity="1" /><path clip-path="url(#clip350)" d="M1217.58 1548.76 L1217.58 1551.62 L1190.65 1551.62 Q1191.03 1557.67 1194.28 1560.85 Q1197.56 1564 1203.38 1564 Q1206.75 1564 1209.91 1563.17 Q1213.09 1562.35 1216.21 1560.69 L1216.21 1566.23 Q1213.06 1567.57 1209.75 1568.27 Q1206.44 1568.97 1203.03 1568.97 Q1194.5 1568.97 1189.5 1564 Q1184.54 1559.04 1184.54 1550.57 Q1184.54 1541.82 1189.25 1536.69 Q1193.99 1531.54 1202.01 1531.54 Q1209.21 1531.54 1213.38 1536.18 Q1217.58 1540.8 1217.58 1548.76 M1211.72 1547.04 Q1211.66 1542.23 1209.01 1539.37 Q1206.4 1536.5 1202.08 1536.5 Q1197.17 1536.5 1194.21 1539.27 Q1191.29 1542.04 1190.84 1547.07 L1211.72 1547.04 Z" fill="#000000" fill-rule="nonzero" fill-opacity="1" /><path clip-path="url(#clip350)" d="M1230.69 1550.25 Q1230.69 1556.71 1233.33 1560.4 Q1236.01 1564.07 1240.65 1564.07 Q1245.3 1564.07 1247.97 1560.4 Q1250.65 1556.71 1250.65 1550.25 Q1250.65 1543.79 1247.97 1540.13 Q1245.3 1536.44 1240.65 1536.44 Q1236.01 1536.44 1233.33 1540.13 Q1230.69 1543.79 1230.69 1550.25 M1250.65 1562.7 Q1248.8 1565.88 1245.97 1567.44 Q1243.17 1568.97 1239.22 1568.97 Q1232.76 1568.97 1228.68 1563.81 Q1224.64 1558.65 1224.64 1550.25 Q1224.64 1541.85 1228.68 1536.69 Q1232.76 1531.54 1239.22 1531.54 Q1243.17 1531.54 1245.97 1533.1 Q1248.8 1534.62 1250.65 1537.81 L1250.65 1532.4 L1256.5 1532.4 L1256.5 1581.6 L1250.65 1581.6 L1250.65 1562.7 Z" fill="#000000" fill-rule="nonzero" fill-opacity="1" /><path clip-path="url(#clip350)" d="M1267.96 1553.98 L1267.96 1532.4 L1273.82 1532.4 L1273.82 1553.75 Q1273.82 1558.81 1275.79 1561.36 Q1277.76 1563.87 1281.71 1563.87 Q1286.45 1563.87 1289.19 1560.85 Q1291.96 1557.83 1291.96 1552.61 L1291.96 1532.4 L1297.82 1532.4 L1297.82 1568.04 L1291.96 1568.04 L1291.96 1562.57 Q1289.83 1565.82 1286.99 1567.41 Q1284.19 1568.97 1280.47 1568.97 Q1274.33 1568.97 1271.14 1565.15 Q1267.96 1561.33 1267.96 1553.98 M1282.7 1531.54 L1282.7 1531.54 Z" fill="#000000" fill-rule="nonzero" fill-opacity="1" /><path clip-path="url(#clip350)" d="M1340.37 1548.76 L1340.37 1551.62 L1313.44 1551.62 Q1313.83 1557.67 1317.07 1560.85 Q1320.35 1564 1326.18 1564 Q1329.55 1564 1332.7 1563.17 Q1335.88 1562.35 1339 1560.69 L1339 1566.23 Q1335.85 1567.57 1332.54 1568.27 Q1329.23 1568.97 1325.83 1568.97 Q1317.3 1568.97 1312.3 1564 Q1307.33 1559.04 1307.33 1550.57 Q1307.33 1541.82 1312.04 1536.69 Q1316.79 1531.54 1324.81 1531.54 Q1332 1531.54 1336.17 1536.18 Q1340.37 1540.8 1340.37 1548.76 M1334.51 1547.04 Q1334.45 1542.23 1331.81 1539.37 Q1329.2 1536.5 1324.87 1536.5 Q1319.97 1536.5 1317.01 1539.27 Q1314.08 1542.04 1313.64 1547.07 L1334.51 1547.04 Z" fill="#000000" fill-rule="nonzero" fill-opacity="1" /><path clip-path="url(#clip350)" d="M1379.62 1546.53 L1379.62 1568.04 L1373.76 1568.04 L1373.76 1546.72 Q1373.76 1541.66 1371.79 1539.14 Q1369.81 1536.63 1365.87 1536.63 Q1361.12 1536.63 1358.39 1539.65 Q1355.65 1542.68 1355.65 1547.9 L1355.65 1568.04 L1349.76 1568.04 L1349.76 1532.4 L1355.65 1532.4 L1355.65 1537.93 Q1357.75 1534.72 1360.58 1533.13 Q1363.45 1531.54 1367.17 1531.54 Q1373.31 1531.54 1376.46 1535.36 Q1379.62 1539.14 1379.62 1546.53 Z" fill="#000000" fill-rule="nonzero" fill-opacity="1" /><path clip-path="url(#clip350)" d="M1416.95 1533.76 L1416.95 1539.24 Q1414.47 1537.87 1411.95 1537.2 Q1409.47 1536.5 1406.92 1536.5 Q1401.23 1536.5 1398.08 1540.13 Q1394.93 1543.73 1394.93 1550.25 Q1394.93 1556.78 1398.08 1560.4 Q1401.23 1564 1406.92 1564 Q1409.47 1564 1411.95 1563.33 Q1414.47 1562.63 1416.95 1561.26 L1416.95 1566.68 Q1414.5 1567.82 1411.86 1568.39 Q1409.25 1568.97 1406.29 1568.97 Q1398.24 1568.97 1393.49 1563.91 Q1388.75 1558.85 1388.75 1550.25 Q1388.75 1541.53 1393.52 1536.53 Q1398.33 1531.54 1406.67 1531.54 Q1409.38 1531.54 1411.95 1532.11 Q1414.53 1532.65 1416.95 1533.76 Z" fill="#000000" fill-rule="nonzero" fill-opacity="1" /><path clip-path="url(#clip350)" d="M1427.14 1532.4 L1432.99 1532.4 L1432.99 1568.04 L1427.14 1568.04 L1427.14 1532.4 M1427.14 1518.52 L1432.99 1518.52 L1432.99 1525.93 L1427.14 1525.93 L1427.14 1518.52 Z" fill="#000000" fill-rule="nonzero" fill-opacity="1" /><path clip-path="url(#clip350)" d="M1475.74 1548.76 L1475.74 1551.62 L1448.81 1551.62 Q1449.19 1557.67 1452.44 1560.85 Q1455.72 1564 1461.54 1564 Q1464.92 1564 1468.07 1563.17 Q1471.25 1562.35 1474.37 1560.69 L1474.37 1566.23 Q1471.22 1567.57 1467.91 1568.27 Q1464.6 1568.97 1461.19 1568.97 Q1452.66 1568.97 1447.67 1564 Q1442.7 1559.04 1442.7 1550.57 Q1442.7 1541.82 1447.41 1536.69 Q1452.15 1531.54 1460.17 1531.54 Q1467.37 1531.54 1471.54 1536.18 Q1475.74 1540.8 1475.74 1548.76 M1469.88 1547.04 Q1469.82 1542.23 1467.18 1539.37 Q1464.57 1536.5 1460.24 1536.5 Q1455.34 1536.5 1452.38 1539.27 Q1449.45 1542.04 1449 1547.07 L1469.88 1547.04 Z" fill="#000000" fill-rule="nonzero" fill-opacity="1" /><path clip-path="url(#clip350)" d="M1508.08 1533.45 L1508.08 1538.98 Q1505.59 1537.71 1502.92 1537.07 Q1500.25 1536.44 1497.38 1536.44 Q1493.02 1536.44 1490.82 1537.77 Q1488.66 1539.11 1488.66 1541.79 Q1488.66 1543.82 1490.22 1545 Q1491.78 1546.15 1496.49 1547.2 L1498.5 1547.64 Q1504.73 1548.98 1507.34 1551.43 Q1509.99 1553.85 1509.99 1558.21 Q1509.99 1563.17 1506.04 1566.07 Q1502.12 1568.97 1495.25 1568.97 Q1492.38 1568.97 1489.27 1568.39 Q1486.18 1567.85 1482.74 1566.74 L1482.74 1560.69 Q1485.99 1562.38 1489.14 1563.24 Q1492.29 1564.07 1495.38 1564.07 Q1499.51 1564.07 1501.74 1562.66 Q1503.97 1561.23 1503.97 1558.65 Q1503.97 1556.27 1502.35 1554.99 Q1500.76 1553.72 1495.31 1552.54 L1493.28 1552.07 Q1487.83 1550.92 1485.41 1548.56 Q1482.99 1546.18 1482.99 1542.04 Q1482.99 1537.01 1486.56 1534.27 Q1490.12 1531.54 1496.68 1531.54 Q1499.93 1531.54 1502.79 1532.01 Q1505.66 1532.49 1508.08 1533.45 Z" fill="#000000" fill-rule="nonzero" fill-opacity="1" /><path clip-path="url(#clip350)" d="M1539.49 1518.52 L1552.99 1518.52 L1552.99 1523.07 L1545.35 1523.07 L1545.35 1572.09 L1552.99 1572.09 L1552.99 1576.64 L1539.49 1576.64 L1539.49 1518.52 Z" fill="#000000" fill-rule="nonzero" fill-opacity="1" /><path clip-path="url(#clip350)" d="M1598.12 1561.26 L1598.12 1548.5 L1587.62 1548.5 L1587.62 1543.22 L1604.48 1543.22 L1604.48 1563.62 Q1600.76 1566.26 1596.27 1567.63 Q1591.78 1568.97 1586.69 1568.97 Q1575.55 1568.97 1569.25 1562.47 Q1562.98 1555.95 1562.98 1544.33 Q1562.98 1532.68 1569.25 1526.19 Q1575.55 1519.66 1586.69 1519.66 Q1591.34 1519.66 1595.51 1520.81 Q1599.71 1521.96 1603.24 1524.18 L1603.24 1531.03 Q1599.68 1528 1595.67 1526.48 Q1591.66 1524.95 1587.23 1524.95 Q1578.51 1524.95 1574.12 1529.82 Q1569.76 1534.69 1569.76 1544.33 Q1569.76 1553.94 1574.12 1558.81 Q1578.51 1563.68 1587.23 1563.68 Q1590.64 1563.68 1593.31 1563.11 Q1595.99 1562.51 1598.12 1561.26 Z" fill="#000000" fill-rule="nonzero" fill-opacity="1" /><path clip-path="url(#clip350)" d="M1616.23 1520.52 L1622.66 1520.52 L1622.66 1540 L1646.02 1540 L1646.02 1520.52 L1652.45 1520.52 L1652.45 1568.04 L1646.02 1568.04 L1646.02 1545.41 L1622.66 1545.41 L1622.66 1568.04 L1616.23 1568.04 L1616.23 1520.52 Z" fill="#000000" fill-rule="nonzero" fill-opacity="1" /><path clip-path="url(#clip350)" d="M1662.44 1532.4 L1690.26 1532.4 L1690.26 1537.74 L1668.24 1563.37 L1690.26 1563.37 L1690.26 1568.04 L1661.65 1568.04 L1661.65 1562.7 L1683.67 1537.07 L1662.44 1537.07 L1662.44 1532.4 Z" fill="#000000" fill-rule="nonzero" fill-opacity="1" /><path clip-path="url(#clip350)" d="M1712.89 1518.52 L1712.89 1576.64 L1699.4 1576.64 L1699.4 1572.09 L1707 1572.09 L1707 1523.07 L1699.4 1523.07 L1699.4 1518.52 L1712.89 1518.52 Z" fill="#000000" fill-rule="nonzero" fill-opacity="1" /><polyline clip-path="url(#clip350)" style="stroke:#000000; stroke-linecap:round; stroke-linejoin:round; stroke-width:4; stroke-opacity:1; fill:none" points="489.357,1423.18 489.357,47.2441 "/>
<polyline clip-path="url(#clip350)" style="stroke:#000000; stroke-linecap:round; stroke-linejoin:round; stroke-width:4; stroke-opacity:1; fill:none" points="489.357,1349.9 508.255,1349.9 "/>
<polyline clip-path="url(#clip350)" style="stroke:#000000; stroke-linecap:round; stroke-linejoin:round; stroke-width:4; stroke-opacity:1; fill:none" points="489.357,1082.01 508.255,1082.01 "/>
<polyline clip-path="url(#clip350)" style="stroke:#000000; stroke-linecap:round; stroke-linejoin:round; stroke-width:4; stroke-opacity:1; fill:none" points="489.357,814.118 508.255,814.118 "/>
<polyline clip-path="url(#clip350)" style="stroke:#000000; stroke-linecap:round; stroke-linejoin:round; stroke-width:4; stroke-opacity:1; fill:none" points="489.357,546.226 508.255,546.226 "/>
<polyline clip-path="url(#clip350)" style="stroke:#000000; stroke-linecap:round; stroke-linejoin:round; stroke-width:4; stroke-opacity:1; fill:none" points="489.357,278.333 508.255,278.333 "/>
<path clip-path="url(#clip350)" d="M116.482 1372.91 L116.482 1368.65 Q118.242 1369.49 120.047 1369.93 Q121.853 1370.37 123.589 1370.37 Q128.218 1370.37 130.649 1367.27 Q133.103 1364.14 133.45 1357.8 Q132.107 1359.79 130.047 1360.85 Q127.987 1361.92 125.487 1361.92 Q120.302 1361.92 117.269 1358.79 Q114.26 1355.64 114.26 1350.21 Q114.26 1344.88 117.408 1341.66 Q120.556 1338.45 125.788 1338.45 Q131.783 1338.45 134.931 1343.05 Q138.103 1347.64 138.103 1356.39 Q138.103 1364.56 134.214 1369.44 Q130.348 1374.3 123.797 1374.3 Q122.038 1374.3 120.232 1373.95 Q118.427 1373.61 116.482 1372.91 M125.788 1358.26 Q128.936 1358.26 130.765 1356.11 Q132.617 1353.96 132.617 1350.21 Q132.617 1346.48 130.765 1344.33 Q128.936 1342.15 125.788 1342.15 Q122.64 1342.15 120.788 1344.33 Q118.959 1346.48 118.959 1350.21 Q118.959 1353.96 120.788 1356.11 Q122.64 1358.26 125.788 1358.26 Z" fill="#000000" fill-rule="nonzero" fill-opacity="1" /><path clip-path="url(#clip350)" d="M146.505 1367.75 L151.39 1367.75 L151.39 1373.63 L146.505 1373.63 L146.505 1367.75 Z" fill="#000000" fill-rule="nonzero" fill-opacity="1" /><path clip-path="url(#clip350)" d="M161.714 1372.91 L161.714 1368.65 Q163.473 1369.49 165.278 1369.93 Q167.084 1370.37 168.82 1370.37 Q173.45 1370.37 175.88 1367.27 Q178.334 1364.14 178.681 1357.8 Q177.339 1359.79 175.278 1360.85 Q173.218 1361.92 170.718 1361.92 Q165.533 1361.92 162.501 1358.79 Q159.491 1355.64 159.491 1350.21 Q159.491 1344.88 162.64 1341.66 Q165.788 1338.45 171.019 1338.45 Q177.014 1338.45 180.163 1343.05 Q183.334 1347.64 183.334 1356.39 Q183.334 1364.56 179.445 1369.44 Q175.579 1374.3 169.028 1374.3 Q167.269 1374.3 165.464 1373.95 Q163.658 1373.61 161.714 1372.91 M171.019 1358.26 Q174.167 1358.26 175.996 1356.11 Q177.848 1353.96 177.848 1350.21 Q177.848 1346.48 175.996 1344.33 Q174.167 1342.15 171.019 1342.15 Q167.871 1342.15 166.019 1344.33 Q164.19 1346.48 164.19 1350.21 Q164.19 1353.96 166.019 1356.11 Q167.871 1358.26 171.019 1358.26 Z" fill="#000000" fill-rule="nonzero" fill-opacity="1" /><path clip-path="url(#clip350)" d="M191.875 1372.91 L191.875 1368.65 Q193.635 1369.49 195.44 1369.93 Q197.246 1370.37 198.982 1370.37 Q203.612 1370.37 206.042 1367.27 Q208.496 1364.14 208.843 1357.8 Q207.5 1359.79 205.44 1360.85 Q203.38 1361.92 200.88 1361.92 Q195.695 1361.92 192.663 1358.79 Q189.653 1355.64 189.653 1350.21 Q189.653 1344.88 192.801 1341.66 Q195.95 1338.45 201.181 1338.45 Q207.176 1338.45 210.324 1343.05 Q213.496 1347.64 213.496 1356.39 Q213.496 1364.56 209.607 1369.44 Q205.741 1374.3 199.19 1374.3 Q197.431 1374.3 195.625 1373.95 Q193.82 1373.61 191.875 1372.91 M201.181 1358.26 Q204.329 1358.26 206.158 1356.11 Q208.01 1353.96 208.01 1350.21 Q208.01 1346.48 206.158 1344.33 Q204.329 1342.15 201.181 1342.15 Q198.033 1342.15 196.181 1344.33 Q194.352 1346.48 194.352 1350.21 Q194.352 1353.96 196.181 1356.11 Q198.033 1358.26 201.181 1358.26 Z" fill="#000000" fill-rule="nonzero" fill-opacity="1" /><path clip-path="url(#clip350)" d="M220.718 1339.07 L242.94 1339.07 L242.94 1341.06 L230.394 1373.63 L225.51 1373.63 L237.315 1343.01 L220.718 1343.01 L220.718 1339.07 Z" fill="#000000" fill-rule="nonzero" fill-opacity="1" /><path clip-path="url(#clip350)" d="M262.06 1357.22 Q258.727 1357.22 256.806 1359 Q254.908 1360.78 254.908 1363.91 Q254.908 1367.03 256.806 1368.82 Q258.727 1370.6 262.06 1370.6 Q265.394 1370.6 267.315 1368.82 Q269.236 1367.01 269.236 1363.91 Q269.236 1360.78 267.315 1359 Q265.417 1357.22 262.06 1357.22 M257.384 1355.23 Q254.375 1354.49 252.685 1352.43 Q251.019 1350.37 251.019 1347.4 Q251.019 1343.26 253.958 1340.85 Q256.921 1338.45 262.06 1338.45 Q267.222 1338.45 270.162 1340.85 Q273.102 1343.26 273.102 1347.4 Q273.102 1350.37 271.412 1352.43 Q269.745 1354.49 266.759 1355.23 Q270.139 1356.02 272.014 1358.31 Q273.912 1360.6 273.912 1363.91 Q273.912 1368.93 270.833 1371.62 Q267.778 1374.3 262.06 1374.3 Q256.343 1374.3 253.264 1371.62 Q250.209 1368.93 250.209 1363.91 Q250.209 1360.6 252.107 1358.31 Q254.005 1356.02 257.384 1355.23 M255.671 1347.84 Q255.671 1350.53 257.338 1352.03 Q259.028 1353.54 262.06 1353.54 Q265.07 1353.54 266.759 1352.03 Q268.472 1350.53 268.472 1347.84 Q268.472 1345.16 266.759 1343.65 Q265.07 1342.15 262.06 1342.15 Q259.028 1342.15 257.338 1343.65 Q255.671 1345.16 255.671 1347.84 Z" fill="#000000" fill-rule="nonzero" fill-opacity="1" /><path clip-path="url(#clip350)" d="M292.222 1342.15 Q288.611 1342.15 286.782 1345.71 Q284.977 1349.26 284.977 1356.39 Q284.977 1363.49 286.782 1367.06 Q288.611 1370.6 292.222 1370.6 Q295.856 1370.6 297.662 1367.06 Q299.491 1363.49 299.491 1356.39 Q299.491 1349.26 297.662 1345.71 Q295.856 1342.15 292.222 1342.15 M292.222 1338.45 Q298.032 1338.45 301.088 1343.05 Q304.167 1347.64 304.167 1356.39 Q304.167 1365.11 301.088 1369.72 Q298.032 1374.3 292.222 1374.3 Q286.412 1374.3 283.333 1369.72 Q280.278 1365.11 280.278 1356.39 Q280.278 1347.64 283.333 1343.05 Q286.412 1338.45 292.222 1338.45 Z" fill="#000000" fill-rule="nonzero" fill-opacity="1" /><path clip-path="url(#clip350)" d="M340.555 1348.17 L329.977 1358.79 L340.555 1369.37 L337.801 1372.17 L327.176 1361.55 L316.551 1372.17 L313.819 1369.37 L324.375 1358.79 L313.819 1348.17 L316.551 1345.37 L327.176 1355.99 L337.801 1345.37 L340.555 1348.17 Z" fill="#000000" fill-rule="nonzero" fill-opacity="1" /><path clip-path="url(#clip350)" d="M352.916 1369.7 L360.555 1369.7 L360.555 1343.33 L352.245 1345 L352.245 1340.74 L360.509 1339.07 L365.185 1339.07 L365.185 1369.7 L372.824 1369.7 L372.824 1373.63 L352.916 1373.63 L352.916 1369.7 Z" fill="#000000" fill-rule="nonzero" fill-opacity="1" /><path clip-path="url(#clip350)" d="M392.268 1342.15 Q388.657 1342.15 386.828 1345.71 Q385.023 1349.26 385.023 1356.39 Q385.023 1363.49 386.828 1367.06 Q388.657 1370.6 392.268 1370.6 Q395.902 1370.6 397.708 1367.06 Q399.536 1363.49 399.536 1356.39 Q399.536 1349.26 397.708 1345.71 Q395.902 1342.15 392.268 1342.15 M392.268 1338.45 Q398.078 1338.45 401.134 1343.05 Q404.212 1347.64 404.212 1356.39 Q404.212 1365.11 401.134 1369.72 Q398.078 1374.3 392.268 1374.3 Q386.458 1374.3 383.379 1369.72 Q380.324 1365.11 380.324 1356.39 Q380.324 1347.64 383.379 1343.05 Q386.458 1338.45 392.268 1338.45 Z" fill="#000000" fill-rule="nonzero" fill-opacity="1" /><path clip-path="url(#clip350)" d="M404.212 1332.55 L428.324 1332.55 L428.324 1335.74 L404.212 1335.74 L404.212 1332.55 Z" fill="#000000" fill-rule="nonzero" fill-opacity="1" /><path clip-path="url(#clip350)" d="M437.182 1343.02 L443.389 1343.02 L443.389 1321.6 L436.637 1322.96 L436.637 1319.49 L443.351 1318.14 L447.15 1318.14 L447.15 1343.02 L453.357 1343.02 L453.357 1346.22 L437.182 1346.22 L437.182 1343.02 Z" fill="#000000" fill-rule="nonzero" fill-opacity="1" /><path clip-path="url(#clip350)" d="M116.482 1105.02 L116.482 1100.76 Q118.242 1101.59 120.047 1102.03 Q121.853 1102.47 123.589 1102.47 Q128.218 1102.47 130.649 1099.37 Q133.103 1096.25 133.45 1089.91 Q132.107 1091.9 130.047 1092.96 Q127.987 1094.03 125.487 1094.03 Q120.302 1094.03 117.269 1090.9 Q114.26 1087.75 114.26 1082.31 Q114.26 1076.99 117.408 1073.77 Q120.556 1070.55 125.788 1070.55 Q131.783 1070.55 134.931 1075.16 Q138.103 1079.74 138.103 1088.49 Q138.103 1096.66 134.214 1101.55 Q130.348 1106.41 123.797 1106.41 Q122.038 1106.41 120.232 1106.06 Q118.427 1105.72 116.482 1105.02 M125.788 1090.37 Q128.936 1090.37 130.765 1088.22 Q132.617 1086.06 132.617 1082.31 Q132.617 1078.59 130.765 1076.43 Q128.936 1074.26 125.788 1074.26 Q122.64 1074.26 120.788 1076.43 Q118.959 1078.59 118.959 1082.31 Q118.959 1086.06 120.788 1088.22 Q122.64 1090.37 125.788 1090.37 Z" fill="#000000" fill-rule="nonzero" fill-opacity="1" /><path clip-path="url(#clip350)" d="M146.505 1099.86 L151.39 1099.86 L151.39 1105.74 L146.505 1105.74 L146.505 1099.86 Z" fill="#000000" fill-rule="nonzero" fill-opacity="1" /><path clip-path="url(#clip350)" d="M161.714 1105.02 L161.714 1100.76 Q163.473 1101.59 165.278 1102.03 Q167.084 1102.47 168.82 1102.47 Q173.45 1102.47 175.88 1099.37 Q178.334 1096.25 178.681 1089.91 Q177.339 1091.9 175.278 1092.96 Q173.218 1094.03 170.718 1094.03 Q165.533 1094.03 162.501 1090.9 Q159.491 1087.75 159.491 1082.31 Q159.491 1076.99 162.64 1073.77 Q165.788 1070.55 171.019 1070.55 Q177.014 1070.55 180.163 1075.16 Q183.334 1079.74 183.334 1088.49 Q183.334 1096.66 179.445 1101.55 Q175.579 1106.41 169.028 1106.41 Q167.269 1106.41 165.464 1106.06 Q163.658 1105.72 161.714 1105.02 M171.019 1090.37 Q174.167 1090.37 175.996 1088.22 Q177.848 1086.06 177.848 1082.31 Q177.848 1078.59 175.996 1076.43 Q174.167 1074.26 171.019 1074.26 Q167.871 1074.26 166.019 1076.43 Q164.19 1078.59 164.19 1082.31 Q164.19 1086.06 166.019 1088.22 Q167.871 1090.37 171.019 1090.37 Z" fill="#000000" fill-rule="nonzero" fill-opacity="1" /><path clip-path="url(#clip350)" d="M191.875 1105.02 L191.875 1100.76 Q193.635 1101.59 195.44 1102.03 Q197.246 1102.47 198.982 1102.47 Q203.612 1102.47 206.042 1099.37 Q208.496 1096.25 208.843 1089.91 Q207.5 1091.9 205.44 1092.96 Q203.38 1094.03 200.88 1094.03 Q195.695 1094.03 192.663 1090.9 Q189.653 1087.75 189.653 1082.31 Q189.653 1076.99 192.801 1073.77 Q195.95 1070.55 201.181 1070.55 Q207.176 1070.55 210.324 1075.16 Q213.496 1079.74 213.496 1088.49 Q213.496 1096.66 209.607 1101.55 Q205.741 1106.41 199.19 1106.41 Q197.431 1106.41 195.625 1106.06 Q193.82 1105.72 191.875 1105.02 M201.181 1090.37 Q204.329 1090.37 206.158 1088.22 Q208.01 1086.06 208.01 1082.31 Q208.01 1078.59 206.158 1076.43 Q204.329 1074.26 201.181 1074.26 Q198.033 1074.26 196.181 1076.43 Q194.352 1078.59 194.352 1082.31 Q194.352 1086.06 196.181 1088.22 Q198.033 1090.37 201.181 1090.37 Z" fill="#000000" fill-rule="nonzero" fill-opacity="1" /><path clip-path="url(#clip350)" d="M231.898 1089.33 Q228.565 1089.33 226.644 1091.11 Q224.746 1092.89 224.746 1096.02 Q224.746 1099.14 226.644 1100.92 Q228.565 1102.71 231.898 1102.71 Q235.232 1102.71 237.153 1100.92 Q239.074 1099.12 239.074 1096.02 Q239.074 1092.89 237.153 1091.11 Q235.255 1089.33 231.898 1089.33 M227.223 1087.34 Q224.213 1086.6 222.523 1084.53 Q220.857 1082.47 220.857 1079.51 Q220.857 1075.37 223.797 1072.96 Q226.76 1070.55 231.898 1070.55 Q237.06 1070.55 240 1072.96 Q242.94 1075.37 242.94 1079.51 Q242.94 1082.47 241.25 1084.53 Q239.584 1086.6 236.597 1087.34 Q239.977 1088.12 241.852 1090.41 Q243.75 1092.71 243.75 1096.02 Q243.75 1101.04 240.672 1103.72 Q237.616 1106.41 231.898 1106.41 Q226.181 1106.41 223.102 1103.72 Q220.047 1101.04 220.047 1096.02 Q220.047 1092.71 221.945 1090.41 Q223.843 1088.12 227.223 1087.34 M225.51 1079.95 Q225.51 1082.64 227.176 1084.14 Q228.866 1085.65 231.898 1085.65 Q234.908 1085.65 236.597 1084.14 Q238.31 1082.64 238.31 1079.95 Q238.31 1077.27 236.597 1075.76 Q234.908 1074.26 231.898 1074.26 Q228.866 1074.26 227.176 1075.76 Q225.51 1077.27 225.51 1079.95 Z" fill="#000000" fill-rule="nonzero" fill-opacity="1" /><path clip-path="url(#clip350)" d="M262.06 1074.26 Q258.449 1074.26 256.621 1077.82 Q254.815 1081.36 254.815 1088.49 Q254.815 1095.6 256.621 1099.16 Q258.449 1102.71 262.06 1102.71 Q265.695 1102.71 267.5 1099.16 Q269.329 1095.6 269.329 1088.49 Q269.329 1081.36 267.5 1077.82 Q265.695 1074.26 262.06 1074.26 M262.06 1070.55 Q267.87 1070.55 270.926 1075.16 Q274.005 1079.74 274.005 1088.49 Q274.005 1097.22 270.926 1101.83 Q267.87 1106.41 262.06 1106.41 Q256.25 1106.41 253.171 1101.83 Q250.116 1097.22 250.116 1088.49 Q250.116 1079.74 253.171 1075.16 Q256.25 1070.55 262.06 1070.55 Z" fill="#000000" fill-rule="nonzero" fill-opacity="1" /><path clip-path="url(#clip350)" d="M292.222 1074.26 Q288.611 1074.26 286.782 1077.82 Q284.977 1081.36 284.977 1088.49 Q284.977 1095.6 286.782 1099.16 Q288.611 1102.71 292.222 1102.71 Q295.856 1102.71 297.662 1099.16 Q299.491 1095.6 299.491 1088.49 Q299.491 1081.36 297.662 1077.82 Q295.856 1074.26 292.222 1074.26 M292.222 1070.55 Q298.032 1070.55 301.088 1075.16 Q304.167 1079.74 304.167 1088.49 Q304.167 1097.22 301.088 1101.83 Q298.032 1106.41 292.222 1106.41 Q286.412 1106.41 283.333 1101.83 Q280.278 1097.22 280.278 1088.49 Q280.278 1079.74 283.333 1075.16 Q286.412 1070.55 292.222 1070.55 Z" fill="#000000" fill-rule="nonzero" fill-opacity="1" /><path clip-path="url(#clip350)" d="M340.555 1080.28 L329.977 1090.9 L340.555 1101.48 L337.801 1104.28 L327.176 1093.66 L316.551 1104.28 L313.819 1101.48 L324.375 1090.9 L313.819 1080.28 L316.551 1077.47 L327.176 1088.1 L337.801 1077.47 L340.555 1080.28 Z" fill="#000000" fill-rule="nonzero" fill-opacity="1" /><path clip-path="url(#clip350)" d="M352.916 1101.8 L360.555 1101.8 L360.555 1075.44 L352.245 1077.1 L352.245 1072.85 L360.509 1071.18 L365.185 1071.18 L365.185 1101.8 L372.824 1101.8 L372.824 1105.74 L352.916 1105.74 L352.916 1101.8 Z" fill="#000000" fill-rule="nonzero" fill-opacity="1" /><path clip-path="url(#clip350)" d="M392.268 1074.26 Q388.657 1074.26 386.828 1077.82 Q385.023 1081.36 385.023 1088.49 Q385.023 1095.6 386.828 1099.16 Q388.657 1102.71 392.268 1102.71 Q395.902 1102.71 397.708 1099.16 Q399.536 1095.6 399.536 1088.49 Q399.536 1081.36 397.708 1077.82 Q395.902 1074.26 392.268 1074.26 M392.268 1070.55 Q398.078 1070.55 401.134 1075.16 Q404.212 1079.74 404.212 1088.49 Q404.212 1097.22 401.134 1101.83 Q398.078 1106.41 392.268 1106.41 Q386.458 1106.41 383.379 1101.83 Q380.324 1097.22 380.324 1088.49 Q380.324 1079.74 383.379 1075.16 Q386.458 1070.55 392.268 1070.55 Z" fill="#000000" fill-rule="nonzero" fill-opacity="1" /><path clip-path="url(#clip350)" d="M404.212 1064.65 L428.324 1064.65 L428.324 1067.85 L404.212 1067.85 L404.212 1064.65 Z" fill="#000000" fill-rule="nonzero" fill-opacity="1" /><path clip-path="url(#clip350)" d="M437.182 1075.13 L443.389 1075.13 L443.389 1053.71 L436.637 1055.06 L436.637 1051.6 L443.351 1050.25 L447.15 1050.25 L447.15 1075.13 L453.357 1075.13 L453.357 1078.33 L437.182 1078.33 L437.182 1075.13 Z" fill="#000000" fill-rule="nonzero" fill-opacity="1" /><path clip-path="url(#clip350)" d="M116.482 837.128 L116.482 832.869 Q118.242 833.702 120.047 834.142 Q121.853 834.582 123.589 834.582 Q128.218 834.582 130.649 831.48 Q133.103 828.355 133.45 822.013 Q132.107 824.003 130.047 825.068 Q127.987 826.133 125.487 826.133 Q120.302 826.133 117.269 823.008 Q114.26 819.86 114.26 814.42 Q114.26 809.096 117.408 805.879 Q120.556 802.661 125.788 802.661 Q131.783 802.661 134.931 807.267 Q138.103 811.851 138.103 820.601 Q138.103 828.772 134.214 833.656 Q130.348 838.517 123.797 838.517 Q122.038 838.517 120.232 838.17 Q118.427 837.823 116.482 837.128 M125.788 822.476 Q128.936 822.476 130.765 820.323 Q132.617 818.17 132.617 814.42 Q132.617 810.693 130.765 808.541 Q128.936 806.365 125.788 806.365 Q122.64 806.365 120.788 808.541 Q118.959 810.693 118.959 814.42 Q118.959 818.17 120.788 820.323 Q122.64 822.476 125.788 822.476 Z" fill="#000000" fill-rule="nonzero" fill-opacity="1" /><path clip-path="url(#clip350)" d="M146.505 831.966 L151.39 831.966 L151.39 837.846 L146.505 837.846 L146.505 831.966 Z" fill="#000000" fill-rule="nonzero" fill-opacity="1" /><path clip-path="url(#clip350)" d="M161.714 837.128 L161.714 832.869 Q163.473 833.702 165.278 834.142 Q167.084 834.582 168.82 834.582 Q173.45 834.582 175.88 831.48 Q178.334 828.355 178.681 822.013 Q177.339 824.003 175.278 825.068 Q173.218 826.133 170.718 826.133 Q165.533 826.133 162.501 823.008 Q159.491 819.86 159.491 814.42 Q159.491 809.096 162.64 805.879 Q165.788 802.661 171.019 802.661 Q177.014 802.661 180.163 807.267 Q183.334 811.851 183.334 820.601 Q183.334 828.772 179.445 833.656 Q175.579 838.517 169.028 838.517 Q167.269 838.517 165.464 838.17 Q163.658 837.823 161.714 837.128 M171.019 822.476 Q174.167 822.476 175.996 820.323 Q177.848 818.17 177.848 814.42 Q177.848 810.693 175.996 808.541 Q174.167 806.365 171.019 806.365 Q167.871 806.365 166.019 808.541 Q164.19 810.693 164.19 814.42 Q164.19 818.17 166.019 820.323 Q167.871 822.476 171.019 822.476 Z" fill="#000000" fill-rule="nonzero" fill-opacity="1" /><path clip-path="url(#clip350)" d="M191.875 837.128 L191.875 832.869 Q193.635 833.702 195.44 834.142 Q197.246 834.582 198.982 834.582 Q203.612 834.582 206.042 831.48 Q208.496 828.355 208.843 822.013 Q207.5 824.003 205.44 825.068 Q203.38 826.133 200.88 826.133 Q195.695 826.133 192.663 823.008 Q189.653 819.86 189.653 814.42 Q189.653 809.096 192.801 805.879 Q195.95 802.661 201.181 802.661 Q207.176 802.661 210.324 807.267 Q213.496 811.851 213.496 820.601 Q213.496 828.772 209.607 833.656 Q205.741 838.517 199.19 838.517 Q197.431 838.517 195.625 838.17 Q193.82 837.823 191.875 837.128 M201.181 822.476 Q204.329 822.476 206.158 820.323 Q208.01 818.17 208.01 814.42 Q208.01 810.693 206.158 808.541 Q204.329 806.365 201.181 806.365 Q198.033 806.365 196.181 808.541 Q194.352 810.693 194.352 814.42 Q194.352 818.17 196.181 820.323 Q198.033 822.476 201.181 822.476 Z" fill="#000000" fill-rule="nonzero" fill-opacity="1" /><path clip-path="url(#clip350)" d="M231.898 821.434 Q228.565 821.434 226.644 823.216 Q224.746 824.999 224.746 828.124 Q224.746 831.249 226.644 833.031 Q228.565 834.814 231.898 834.814 Q235.232 834.814 237.153 833.031 Q239.074 831.226 239.074 828.124 Q239.074 824.999 237.153 823.216 Q235.255 821.434 231.898 821.434 M227.223 819.443 Q224.213 818.703 222.523 816.642 Q220.857 814.582 220.857 811.619 Q220.857 807.476 223.797 805.068 Q226.76 802.661 231.898 802.661 Q237.06 802.661 240 805.068 Q242.94 807.476 242.94 811.619 Q242.94 814.582 241.25 816.642 Q239.584 818.703 236.597 819.443 Q239.977 820.23 241.852 822.522 Q243.75 824.814 243.75 828.124 Q243.75 833.147 240.672 835.832 Q237.616 838.517 231.898 838.517 Q226.181 838.517 223.102 835.832 Q220.047 833.147 220.047 828.124 Q220.047 824.814 221.945 822.522 Q223.843 820.23 227.223 819.443 M225.51 812.059 Q225.51 814.744 227.176 816.249 Q228.866 817.753 231.898 817.753 Q234.908 817.753 236.597 816.249 Q238.31 814.744 238.31 812.059 Q238.31 809.374 236.597 807.869 Q234.908 806.365 231.898 806.365 Q228.866 806.365 227.176 807.869 Q225.51 809.374 225.51 812.059 Z" fill="#000000" fill-rule="nonzero" fill-opacity="1" /><path clip-path="url(#clip350)" d="M256.088 833.911 L272.407 833.911 L272.407 837.846 L250.463 837.846 L250.463 833.911 Q253.125 831.156 257.708 826.527 Q262.315 821.874 263.495 820.531 Q265.741 818.008 266.62 816.272 Q267.523 814.513 267.523 812.823 Q267.523 810.068 265.579 808.332 Q263.658 806.596 260.556 806.596 Q258.357 806.596 255.903 807.36 Q253.472 808.124 250.695 809.675 L250.695 804.953 Q253.519 803.818 255.972 803.24 Q258.426 802.661 260.463 802.661 Q265.833 802.661 269.028 805.346 Q272.222 808.031 272.222 812.522 Q272.222 814.652 271.412 816.573 Q270.625 818.471 268.519 821.064 Q267.94 821.735 264.838 824.952 Q261.736 828.147 256.088 833.911 Z" fill="#000000" fill-rule="nonzero" fill-opacity="1" /><path clip-path="url(#clip350)" d="M292.222 806.365 Q288.611 806.365 286.782 809.929 Q284.977 813.471 284.977 820.601 Q284.977 827.707 286.782 831.272 Q288.611 834.814 292.222 834.814 Q295.856 834.814 297.662 831.272 Q299.491 827.707 299.491 820.601 Q299.491 813.471 297.662 809.929 Q295.856 806.365 292.222 806.365 M292.222 802.661 Q298.032 802.661 301.088 807.267 Q304.167 811.851 304.167 820.601 Q304.167 829.327 301.088 833.934 Q298.032 838.517 292.222 838.517 Q286.412 838.517 283.333 833.934 Q280.278 829.327 280.278 820.601 Q280.278 811.851 283.333 807.267 Q286.412 802.661 292.222 802.661 Z" fill="#000000" fill-rule="nonzero" fill-opacity="1" /><path clip-path="url(#clip350)" d="M340.555 812.383 L329.977 823.008 L340.555 833.587 L337.801 836.388 L327.176 825.763 L316.551 836.388 L313.819 833.587 L324.375 823.008 L313.819 812.383 L316.551 809.582 L327.176 820.207 L337.801 809.582 L340.555 812.383 Z" fill="#000000" fill-rule="nonzero" fill-opacity="1" /><path clip-path="url(#clip350)" d="M352.916 833.911 L360.555 833.911 L360.555 807.545 L352.245 809.212 L352.245 804.953 L360.509 803.286 L365.185 803.286 L365.185 833.911 L372.824 833.911 L372.824 837.846 L352.916 837.846 L352.916 833.911 Z" fill="#000000" fill-rule="nonzero" fill-opacity="1" /><path clip-path="url(#clip350)" d="M392.268 806.365 Q388.657 806.365 386.828 809.929 Q385.023 813.471 385.023 820.601 Q385.023 827.707 386.828 831.272 Q388.657 834.814 392.268 834.814 Q395.902 834.814 397.708 831.272 Q399.536 827.707 399.536 820.601 Q399.536 813.471 397.708 809.929 Q395.902 806.365 392.268 806.365 M392.268 802.661 Q398.078 802.661 401.134 807.267 Q404.212 811.851 404.212 820.601 Q404.212 829.327 401.134 833.934 Q398.078 838.517 392.268 838.517 Q386.458 838.517 383.379 833.934 Q380.324 829.327 380.324 820.601 Q380.324 811.851 383.379 807.267 Q386.458 802.661 392.268 802.661 Z" fill="#000000" fill-rule="nonzero" fill-opacity="1" /><path clip-path="url(#clip350)" d="M404.212 796.762 L428.324 796.762 L428.324 799.96 L404.212 799.96 L404.212 796.762 Z" fill="#000000" fill-rule="nonzero" fill-opacity="1" /><path clip-path="url(#clip350)" d="M437.182 807.238 L443.389 807.238 L443.389 785.816 L436.637 787.17 L436.637 783.71 L443.351 782.356 L447.15 782.356 L447.15 807.238 L453.357 807.238 L453.357 810.436 L437.182 810.436 L437.182 807.238 Z" fill="#000000" fill-rule="nonzero" fill-opacity="1" /><path clip-path="url(#clip350)" d="M116.482 569.236 L116.482 564.977 Q118.242 565.81 120.047 566.25 Q121.853 566.69 123.589 566.69 Q128.218 566.69 130.649 563.588 Q133.103 560.463 133.45 554.12 Q132.107 556.111 130.047 557.176 Q127.987 558.241 125.487 558.241 Q120.302 558.241 117.269 555.116 Q114.26 551.967 114.26 546.528 Q114.26 541.204 117.408 537.986 Q120.556 534.768 125.788 534.768 Q131.783 534.768 134.931 539.375 Q138.103 543.958 138.103 552.708 Q138.103 560.879 134.214 565.764 Q130.348 570.625 123.797 570.625 Q122.038 570.625 120.232 570.278 Q118.427 569.93 116.482 569.236 M125.788 554.583 Q128.936 554.583 130.765 552.43 Q132.617 550.278 132.617 546.528 Q132.617 542.801 130.765 540.648 Q128.936 538.472 125.788 538.472 Q122.64 538.472 120.788 540.648 Q118.959 542.801 118.959 546.528 Q118.959 550.278 120.788 552.43 Q122.64 554.583 125.788 554.583 Z" fill="#000000" fill-rule="nonzero" fill-opacity="1" /><path clip-path="url(#clip350)" d="M146.505 564.074 L151.39 564.074 L151.39 569.953 L146.505 569.953 L146.505 564.074 Z" fill="#000000" fill-rule="nonzero" fill-opacity="1" /><path clip-path="url(#clip350)" d="M161.714 569.236 L161.714 564.977 Q163.473 565.81 165.278 566.25 Q167.084 566.69 168.82 566.69 Q173.45 566.69 175.88 563.588 Q178.334 560.463 178.681 554.12 Q177.339 556.111 175.278 557.176 Q173.218 558.241 170.718 558.241 Q165.533 558.241 162.501 555.116 Q159.491 551.967 159.491 546.528 Q159.491 541.204 162.64 537.986 Q165.788 534.768 171.019 534.768 Q177.014 534.768 180.163 539.375 Q183.334 543.958 183.334 552.708 Q183.334 560.879 179.445 565.764 Q175.579 570.625 169.028 570.625 Q167.269 570.625 165.464 570.278 Q163.658 569.93 161.714 569.236 M171.019 554.583 Q174.167 554.583 175.996 552.43 Q177.848 550.278 177.848 546.528 Q177.848 542.801 175.996 540.648 Q174.167 538.472 171.019 538.472 Q167.871 538.472 166.019 540.648 Q164.19 542.801 164.19 546.528 Q164.19 550.278 166.019 552.43 Q167.871 554.583 171.019 554.583 Z" fill="#000000" fill-rule="nonzero" fill-opacity="1" /><path clip-path="url(#clip350)" d="M191.875 569.236 L191.875 564.977 Q193.635 565.81 195.44 566.25 Q197.246 566.69 198.982 566.69 Q203.612 566.69 206.042 563.588 Q208.496 560.463 208.843 554.12 Q207.5 556.111 205.44 557.176 Q203.38 558.241 200.88 558.241 Q195.695 558.241 192.663 555.116 Q189.653 551.967 189.653 546.528 Q189.653 541.204 192.801 537.986 Q195.95 534.768 201.181 534.768 Q207.176 534.768 210.324 539.375 Q213.496 543.958 213.496 552.708 Q213.496 560.879 209.607 565.764 Q205.741 570.625 199.19 570.625 Q197.431 570.625 195.625 570.278 Q193.82 569.93 191.875 569.236 M201.181 554.583 Q204.329 554.583 206.158 552.43 Q208.01 550.278 208.01 546.528 Q208.01 542.801 206.158 540.648 Q204.329 538.472 201.181 538.472 Q198.033 538.472 196.181 540.648 Q194.352 542.801 194.352 546.528 Q194.352 550.278 196.181 552.43 Q198.033 554.583 201.181 554.583 Z" fill="#000000" fill-rule="nonzero" fill-opacity="1" /><path clip-path="url(#clip350)" d="M231.898 553.542 Q228.565 553.542 226.644 555.324 Q224.746 557.106 224.746 560.231 Q224.746 563.356 226.644 565.139 Q228.565 566.921 231.898 566.921 Q235.232 566.921 237.153 565.139 Q239.074 563.333 239.074 560.231 Q239.074 557.106 237.153 555.324 Q235.255 553.542 231.898 553.542 M227.223 551.551 Q224.213 550.81 222.523 548.75 Q220.857 546.69 220.857 543.727 Q220.857 539.583 223.797 537.176 Q226.76 534.768 231.898 534.768 Q237.06 534.768 240 537.176 Q242.94 539.583 242.94 543.727 Q242.94 546.69 241.25 548.75 Q239.584 550.81 236.597 551.551 Q239.977 552.338 241.852 554.629 Q243.75 556.921 243.75 560.231 Q243.75 565.254 240.672 567.94 Q237.616 570.625 231.898 570.625 Q226.181 570.625 223.102 567.94 Q220.047 565.254 220.047 560.231 Q220.047 556.921 221.945 554.629 Q223.843 552.338 227.223 551.551 M225.51 544.167 Q225.51 546.852 227.176 548.356 Q228.866 549.861 231.898 549.861 Q234.908 549.861 236.597 548.356 Q238.31 546.852 238.31 544.167 Q238.31 541.481 236.597 539.977 Q234.908 538.472 231.898 538.472 Q228.866 538.472 227.176 539.977 Q225.51 541.481 225.51 544.167 Z" fill="#000000" fill-rule="nonzero" fill-opacity="1" /><path clip-path="url(#clip350)" d="M264.907 539.468 L253.102 557.916 L264.907 557.916 L264.907 539.468 M263.681 535.393 L269.56 535.393 L269.56 557.916 L274.491 557.916 L274.491 561.805 L269.56 561.805 L269.56 569.953 L264.907 569.953 L264.907 561.805 L249.306 561.805 L249.306 557.291 L263.681 535.393 Z" fill="#000000" fill-rule="nonzero" fill-opacity="1" /><path clip-path="url(#clip350)" d="M292.222 538.472 Q288.611 538.472 286.782 542.037 Q284.977 545.579 284.977 552.708 Q284.977 559.815 286.782 563.379 Q288.611 566.921 292.222 566.921 Q295.856 566.921 297.662 563.379 Q299.491 559.815 299.491 552.708 Q299.491 545.579 297.662 542.037 Q295.856 538.472 292.222 538.472 M292.222 534.768 Q298.032 534.768 301.088 539.375 Q304.167 543.958 304.167 552.708 Q304.167 561.435 301.088 566.041 Q298.032 570.625 292.222 570.625 Q286.412 570.625 283.333 566.041 Q280.278 561.435 280.278 552.708 Q280.278 543.958 283.333 539.375 Q286.412 534.768 292.222 534.768 Z" fill="#000000" fill-rule="nonzero" fill-opacity="1" /><path clip-path="url(#clip350)" d="M340.555 544.491 L329.977 555.116 L340.555 565.694 L337.801 568.495 L327.176 557.87 L316.551 568.495 L313.819 565.694 L324.375 555.116 L313.819 544.491 L316.551 541.69 L327.176 552.315 L337.801 541.69 L340.555 544.491 Z" fill="#000000" fill-rule="nonzero" fill-opacity="1" /><path clip-path="url(#clip350)" d="M352.916 566.018 L360.555 566.018 L360.555 539.653 L352.245 541.319 L352.245 537.06 L360.509 535.393 L365.185 535.393 L365.185 566.018 L372.824 566.018 L372.824 569.953 L352.916 569.953 L352.916 566.018 Z" fill="#000000" fill-rule="nonzero" fill-opacity="1" /><path clip-path="url(#clip350)" d="M392.268 538.472 Q388.657 538.472 386.828 542.037 Q385.023 545.579 385.023 552.708 Q385.023 559.815 386.828 563.379 Q388.657 566.921 392.268 566.921 Q395.902 566.921 397.708 563.379 Q399.536 559.815 399.536 552.708 Q399.536 545.579 397.708 542.037 Q395.902 538.472 392.268 538.472 M392.268 534.768 Q398.078 534.768 401.134 539.375 Q404.212 543.958 404.212 552.708 Q404.212 561.435 401.134 566.041 Q398.078 570.625 392.268 570.625 Q386.458 570.625 383.379 566.041 Q380.324 561.435 380.324 552.708 Q380.324 543.958 383.379 539.375 Q386.458 534.768 392.268 534.768 Z" fill="#000000" fill-rule="nonzero" fill-opacity="1" /><path clip-path="url(#clip350)" d="M404.212 528.87 L428.324 528.87 L428.324 532.067 L404.212 532.067 L404.212 528.87 Z" fill="#000000" fill-rule="nonzero" fill-opacity="1" /><path clip-path="url(#clip350)" d="M437.182 539.346 L443.389 539.346 L443.389 517.924 L436.637 519.278 L436.637 515.817 L443.351 514.463 L447.15 514.463 L447.15 539.346 L453.357 539.346 L453.357 542.543 L437.182 542.543 L437.182 539.346 Z" fill="#000000" fill-rule="nonzero" fill-opacity="1" /><path clip-path="url(#clip350)" d="M116.482 301.343 L116.482 297.084 Q118.242 297.917 120.047 298.357 Q121.853 298.797 123.589 298.797 Q128.218 298.797 130.649 295.695 Q133.103 292.57 133.45 286.228 Q132.107 288.218 130.047 289.283 Q127.987 290.348 125.487 290.348 Q120.302 290.348 117.269 287.223 Q114.26 284.075 114.26 278.635 Q114.26 273.311 117.408 270.094 Q120.556 266.876 125.788 266.876 Q131.783 266.876 134.931 271.482 Q138.103 276.066 138.103 284.816 Q138.103 292.987 134.214 297.871 Q130.348 302.732 123.797 302.732 Q122.038 302.732 120.232 302.385 Q118.427 302.038 116.482 301.343 M125.788 286.691 Q128.936 286.691 130.765 284.538 Q132.617 282.385 132.617 278.635 Q132.617 274.908 130.765 272.756 Q128.936 270.58 125.788 270.58 Q122.64 270.58 120.788 272.756 Q118.959 274.908 118.959 278.635 Q118.959 282.385 120.788 284.538 Q122.64 286.691 125.788 286.691 Z" fill="#000000" fill-rule="nonzero" fill-opacity="1" /><path clip-path="url(#clip350)" d="M146.505 296.181 L151.39 296.181 L151.39 302.061 L146.505 302.061 L146.505 296.181 Z" fill="#000000" fill-rule="nonzero" fill-opacity="1" /><path clip-path="url(#clip350)" d="M161.714 301.343 L161.714 297.084 Q163.473 297.917 165.278 298.357 Q167.084 298.797 168.82 298.797 Q173.45 298.797 175.88 295.695 Q178.334 292.57 178.681 286.228 Q177.339 288.218 175.278 289.283 Q173.218 290.348 170.718 290.348 Q165.533 290.348 162.501 287.223 Q159.491 284.075 159.491 278.635 Q159.491 273.311 162.64 270.094 Q165.788 266.876 171.019 266.876 Q177.014 266.876 180.163 271.482 Q183.334 276.066 183.334 284.816 Q183.334 292.987 179.445 297.871 Q175.579 302.732 169.028 302.732 Q167.269 302.732 165.464 302.385 Q163.658 302.038 161.714 301.343 M171.019 286.691 Q174.167 286.691 175.996 284.538 Q177.848 282.385 177.848 278.635 Q177.848 274.908 175.996 272.756 Q174.167 270.58 171.019 270.58 Q167.871 270.58 166.019 272.756 Q164.19 274.908 164.19 278.635 Q164.19 282.385 166.019 284.538 Q167.871 286.691 171.019 286.691 Z" fill="#000000" fill-rule="nonzero" fill-opacity="1" /><path clip-path="url(#clip350)" d="M191.875 301.343 L191.875 297.084 Q193.635 297.917 195.44 298.357 Q197.246 298.797 198.982 298.797 Q203.612 298.797 206.042 295.695 Q208.496 292.57 208.843 286.228 Q207.5 288.218 205.44 289.283 Q203.38 290.348 200.88 290.348 Q195.695 290.348 192.663 287.223 Q189.653 284.075 189.653 278.635 Q189.653 273.311 192.801 270.094 Q195.95 266.876 201.181 266.876 Q207.176 266.876 210.324 271.482 Q213.496 276.066 213.496 284.816 Q213.496 292.987 209.607 297.871 Q205.741 302.732 199.19 302.732 Q197.431 302.732 195.625 302.385 Q193.82 302.038 191.875 301.343 M201.181 286.691 Q204.329 286.691 206.158 284.538 Q208.01 282.385 208.01 278.635 Q208.01 274.908 206.158 272.756 Q204.329 270.58 201.181 270.58 Q198.033 270.58 196.181 272.756 Q194.352 274.908 194.352 278.635 Q194.352 282.385 196.181 284.538 Q198.033 286.691 201.181 286.691 Z" fill="#000000" fill-rule="nonzero" fill-opacity="1" /><path clip-path="url(#clip350)" d="M231.898 285.649 Q228.565 285.649 226.644 287.431 Q224.746 289.214 224.746 292.339 Q224.746 295.464 226.644 297.246 Q228.565 299.029 231.898 299.029 Q235.232 299.029 237.153 297.246 Q239.074 295.441 239.074 292.339 Q239.074 289.214 237.153 287.431 Q235.255 285.649 231.898 285.649 M227.223 283.658 Q224.213 282.918 222.523 280.857 Q220.857 278.797 220.857 275.834 Q220.857 271.691 223.797 269.283 Q226.76 266.876 231.898 266.876 Q237.06 266.876 240 269.283 Q242.94 271.691 242.94 275.834 Q242.94 278.797 241.25 280.857 Q239.584 282.918 236.597 283.658 Q239.977 284.445 241.852 286.737 Q243.75 289.029 243.75 292.339 Q243.75 297.362 240.672 300.047 Q237.616 302.732 231.898 302.732 Q226.181 302.732 223.102 300.047 Q220.047 297.362 220.047 292.339 Q220.047 289.029 221.945 286.737 Q223.843 284.445 227.223 283.658 M225.51 276.274 Q225.51 278.959 227.176 280.464 Q228.866 281.969 231.898 281.969 Q234.908 281.969 236.597 280.464 Q238.31 278.959 238.31 276.274 Q238.31 273.589 236.597 272.084 Q234.908 270.58 231.898 270.58 Q228.866 270.58 227.176 272.084 Q225.51 273.589 225.51 276.274 Z" fill="#000000" fill-rule="nonzero" fill-opacity="1" /><path clip-path="url(#clip350)" d="M262.639 282.918 Q259.491 282.918 257.639 285.07 Q255.81 287.223 255.81 290.973 Q255.81 294.7 257.639 296.876 Q259.491 299.029 262.639 299.029 Q265.787 299.029 267.616 296.876 Q269.468 294.7 269.468 290.973 Q269.468 287.223 267.616 285.07 Q265.787 282.918 262.639 282.918 M271.921 268.265 L271.921 272.524 Q270.162 271.691 268.357 271.251 Q266.574 270.811 264.815 270.811 Q260.185 270.811 257.732 273.936 Q255.301 277.061 254.954 283.381 Q256.32 281.367 258.38 280.302 Q260.44 279.214 262.917 279.214 Q268.125 279.214 271.134 282.385 Q274.167 285.533 274.167 290.973 Q274.167 296.297 271.019 299.515 Q267.87 302.732 262.639 302.732 Q256.644 302.732 253.472 298.149 Q250.301 293.543 250.301 284.816 Q250.301 276.621 254.19 271.76 Q258.079 266.876 264.63 266.876 Q266.389 266.876 268.171 267.223 Q269.977 267.57 271.921 268.265 Z" fill="#000000" fill-rule="nonzero" fill-opacity="1" /><path clip-path="url(#clip350)" d="M292.222 270.58 Q288.611 270.58 286.782 274.144 Q284.977 277.686 284.977 284.816 Q284.977 291.922 286.782 295.487 Q288.611 299.029 292.222 299.029 Q295.856 299.029 297.662 295.487 Q299.491 291.922 299.491 284.816 Q299.491 277.686 297.662 274.144 Q295.856 270.58 292.222 270.58 M292.222 266.876 Q298.032 266.876 301.088 271.482 Q304.167 276.066 304.167 284.816 Q304.167 293.543 301.088 298.149 Q298.032 302.732 292.222 302.732 Q286.412 302.732 283.333 298.149 Q280.278 293.543 280.278 284.816 Q280.278 276.066 283.333 271.482 Q286.412 266.876 292.222 266.876 Z" fill="#000000" fill-rule="nonzero" fill-opacity="1" /><path clip-path="url(#clip350)" d="M340.555 276.598 L329.977 287.223 L340.555 297.802 L337.801 300.603 L327.176 289.978 L316.551 300.603 L313.819 297.802 L324.375 287.223 L313.819 276.598 L316.551 273.797 L327.176 284.422 L337.801 273.797 L340.555 276.598 Z" fill="#000000" fill-rule="nonzero" fill-opacity="1" /><path clip-path="url(#clip350)" d="M352.916 298.126 L360.555 298.126 L360.555 271.76 L352.245 273.427 L352.245 269.168 L360.509 267.501 L365.185 267.501 L365.185 298.126 L372.824 298.126 L372.824 302.061 L352.916 302.061 L352.916 298.126 Z" fill="#000000" fill-rule="nonzero" fill-opacity="1" /><path clip-path="url(#clip350)" d="M392.268 270.58 Q388.657 270.58 386.828 274.144 Q385.023 277.686 385.023 284.816 Q385.023 291.922 386.828 295.487 Q388.657 299.029 392.268 299.029 Q395.902 299.029 397.708 295.487 Q399.536 291.922 399.536 284.816 Q399.536 277.686 397.708 274.144 Q395.902 270.58 392.268 270.58 M392.268 266.876 Q398.078 266.876 401.134 271.482 Q404.212 276.066 404.212 284.816 Q404.212 293.543 401.134 298.149 Q398.078 302.732 392.268 302.732 Q386.458 302.732 383.379 298.149 Q380.324 293.543 380.324 284.816 Q380.324 276.066 383.379 271.482 Q386.458 266.876 392.268 266.876 Z" fill="#000000" fill-rule="nonzero" fill-opacity="1" /><path clip-path="url(#clip350)" d="M404.212 260.977 L428.324 260.977 L428.324 264.175 L404.212 264.175 L404.212 260.977 Z" fill="#000000" fill-rule="nonzero" fill-opacity="1" /><path clip-path="url(#clip350)" d="M437.182 271.453 L443.389 271.453 L443.389 250.031 L436.637 251.385 L436.637 247.925 L443.351 246.571 L447.15 246.571 L447.15 271.453 L453.357 271.453 L453.357 274.651 L437.182 274.651 L437.182 271.453 Z" fill="#000000" fill-rule="nonzero" fill-opacity="1" /><path clip-path="url(#clip350)" d="M41.7242 981.804 Q42.4244 979.735 44.7161 977.793 Q47.0077 975.82 51.0181 973.846 L64.0042 967.322 L64.0042 974.228 L51.8138 980.308 Q47.0395 982.663 45.48 984.891 Q43.9204 987.087 43.9204 990.906 L43.9204 997.909 L64.0042 997.909 L64.0042 1004.34 L16.4842 1004.34 L16.4842 989.824 Q16.4842 981.676 19.8898 977.666 Q23.2955 973.655 30.1704 973.655 Q34.6582 973.655 37.6183 975.756 Q40.5784 977.825 41.7242 981.804 M21.7677 997.909 L38.6368 997.909 L38.6368 989.824 Q38.6368 985.177 36.5043 982.822 Q34.34 980.435 30.1704 980.435 Q26.0009 980.435 23.9002 982.822 Q21.7677 985.177 21.7677 989.824 L21.7677 997.909 Z" fill="#000000" fill-rule="nonzero" fill-opacity="1" /><path clip-path="url(#clip350)" d="M44.7161 931.737 L47.5806 931.737 L47.5806 958.664 Q53.6281 958.282 56.8109 955.036 Q59.9619 951.757 59.9619 945.933 Q59.9619 942.559 59.1344 939.408 Q58.3069 936.225 56.6518 933.106 L62.1899 933.106 Q63.5267 936.257 64.227 939.567 Q64.9272 942.877 64.9272 946.283 Q64.9272 954.813 59.9619 959.81 Q54.9967 964.775 46.5303 964.775 Q37.7774 964.775 32.6531 960.065 Q27.4968 955.322 27.4968 947.301 Q27.4968 940.108 32.1438 935.939 Q36.7589 931.737 44.7161 931.737 M42.9973 937.594 Q38.1912 937.657 35.3266 940.299 Q32.4621 942.909 32.4621 947.238 Q32.4621 952.139 35.2312 955.099 Q38.0002 958.028 43.0292 958.473 L42.9973 937.594 Z" fill="#000000" fill-rule="nonzero" fill-opacity="1" /><path clip-path="url(#clip350)" d="M14.479 904.078 L19.3487 904.078 L19.3487 909.68 Q19.3487 912.831 20.6219 914.072 Q21.895 915.282 25.2052 915.282 L28.3562 915.282 L28.3562 905.638 L32.9077 905.638 L32.9077 915.282 L64.0042 915.282 L64.0042 921.17 L32.9077 921.17 L32.9077 926.772 L28.3562 926.772 L28.3562 921.17 L25.8736 921.17 Q19.9216 921.17 17.2162 918.401 Q14.479 915.632 14.479 909.616 L14.479 904.078 Z" fill="#000000" fill-rule="nonzero" fill-opacity="1" /><path clip-path="url(#clip350)" d="M14.479 899.177 L14.479 893.32 L64.0042 893.32 L64.0042 899.177 L14.479 899.177 Z" fill="#000000" fill-rule="nonzero" fill-opacity="1" /><path clip-path="url(#clip350)" d="M44.7161 850.574 L47.5806 850.574 L47.5806 877.501 Q53.6281 877.119 56.8109 873.873 Q59.9619 870.595 59.9619 864.77 Q59.9619 861.396 59.1344 858.245 Q58.3069 855.062 56.6518 851.943 L62.1899 851.943 Q63.5267 855.094 64.227 858.404 Q64.9272 861.714 64.9272 865.12 Q64.9272 873.65 59.9619 878.647 Q54.9967 883.613 46.5303 883.613 Q37.7774 883.613 32.6531 878.902 Q27.4968 874.159 27.4968 866.139 Q27.4968 858.945 32.1438 854.776 Q36.7589 850.574 44.7161 850.574 M42.9973 856.431 Q38.1912 856.495 35.3266 859.136 Q32.4621 861.746 32.4621 866.075 Q32.4621 870.977 35.2312 873.937 Q38.0002 876.865 43.0292 877.31 L42.9973 856.431 Z" fill="#000000" fill-rule="nonzero" fill-opacity="1" /><path clip-path="url(#clip350)" d="M29.7248 815.308 L35.1993 815.308 Q33.8307 817.791 33.1623 820.306 Q32.4621 822.788 32.4621 825.334 Q32.4621 831.032 36.0905 834.183 Q39.6872 837.334 46.212 837.334 Q52.7369 837.334 56.3653 834.183 Q59.9619 831.032 59.9619 825.334 Q59.9619 822.788 59.2935 820.306 Q58.5933 817.791 57.2247 815.308 L62.6355 815.308 Q63.7814 817.759 64.3543 820.401 Q64.9272 823.011 64.9272 825.971 Q64.9272 834.024 59.8664 838.766 Q54.8057 843.509 46.212 843.509 Q37.491 843.509 32.4939 838.734 Q27.4968 833.928 27.4968 825.589 Q27.4968 822.884 28.0697 820.306 Q28.6108 817.727 29.7248 815.308 Z" fill="#000000" fill-rule="nonzero" fill-opacity="1" /><path clip-path="url(#clip350)" d="M18.2347 799.331 L28.3562 799.331 L28.3562 787.268 L32.9077 787.268 L32.9077 799.331 L52.2594 799.331 Q56.6199 799.331 57.8613 798.153 Q59.1026 796.943 59.1026 793.283 L59.1026 787.268 L64.0042 787.268 L64.0042 793.283 Q64.0042 800.063 61.4897 802.641 Q58.9434 805.219 52.2594 805.219 L32.9077 805.219 L32.9077 809.516 L28.3562 809.516 L28.3562 805.219 L18.2347 805.219 L18.2347 799.331 Z" fill="#000000" fill-rule="nonzero" fill-opacity="1" /><path clip-path="url(#clip350)" d="M28.3562 779.565 L28.3562 773.709 L64.0042 773.709 L64.0042 779.565 L28.3562 779.565 M14.479 779.565 L14.479 773.709 L21.895 773.709 L21.895 779.565 L14.479 779.565 Z" fill="#000000" fill-rule="nonzero" fill-opacity="1" /><path clip-path="url(#clip350)" d="M28.3562 765.656 L28.3562 759.449 L58.275 748.309 L28.3562 737.169 L28.3562 730.963 L64.0042 744.331 L64.0042 752.288 L28.3562 765.656 Z" fill="#000000" fill-rule="nonzero" fill-opacity="1" /><path clip-path="url(#clip350)" d="M28.3562 722.878 L28.3562 717.022 L64.0042 717.022 L64.0042 722.878 L28.3562 722.878 M14.479 722.878 L14.479 717.022 L21.895 717.022 L21.895 722.878 L14.479 722.878 Z" fill="#000000" fill-rule="nonzero" fill-opacity="1" /><path clip-path="url(#clip350)" d="M18.2347 698.975 L28.3562 698.975 L28.3562 686.912 L32.9077 686.912 L32.9077 698.975 L52.2594 698.975 Q56.6199 698.975 57.8613 697.798 Q59.1026 696.588 59.1026 692.928 L59.1026 686.912 L64.0042 686.912 L64.0042 692.928 Q64.0042 699.707 61.4897 702.285 Q58.9434 704.863 52.2594 704.863 L32.9077 704.863 L32.9077 709.16 L28.3562 709.16 L28.3562 704.863 L18.2347 704.863 L18.2347 698.975 Z" fill="#000000" fill-rule="nonzero" fill-opacity="1" /><path clip-path="url(#clip350)" d="M67.3143 664.378 Q73.68 666.86 75.6216 669.216 Q77.5631 671.571 77.5631 675.518 L77.5631 680.196 L72.6615 680.196 L72.6615 676.759 Q72.6615 674.34 71.5157 673.003 Q70.3699 671.666 66.1048 670.043 L63.4312 668.993 L28.3562 683.411 L28.3562 677.204 L56.238 666.064 L28.3562 654.924 L28.3562 648.718 L67.3143 664.378 Z" fill="#000000" fill-rule="nonzero" fill-opacity="1" /><path clip-path="url(#clip350)" d="M14.1925 612.37 L79.3773 612.37 L79.3773 617.781 L14.1925 617.781 L14.1925 612.37 Z" fill="#000000" fill-rule="nonzero" fill-opacity="1" /><path clip-path="url(#clip350)" d="M18.0438 569.21 L24.314 569.21 Q22.5634 572.871 21.704 576.117 Q20.8447 579.364 20.8447 582.387 Q20.8447 587.639 22.8817 590.504 Q24.9187 593.336 28.6745 593.336 Q31.8255 593.336 33.4488 591.458 Q35.0402 589.549 36.0269 584.265 L36.8226 580.382 Q38.1912 573.189 41.6605 569.783 Q45.098 566.346 50.8908 566.346 Q57.7976 566.346 61.3624 570.993 Q64.9272 575.608 64.9272 584.552 Q64.9272 587.925 64.1633 591.745 Q63.3994 595.532 61.9035 599.607 L55.2831 599.607 Q57.4793 595.692 58.5933 591.936 Q59.7073 588.18 59.7073 584.552 Q59.7073 579.045 57.543 576.053 Q55.3786 573.062 51.3682 573.062 Q47.8671 573.062 45.8937 575.226 Q43.9204 577.358 42.9337 582.26 L42.1698 586.175 Q40.7375 593.368 37.682 596.583 Q34.6264 599.797 29.1837 599.797 Q22.8817 599.797 19.2532 595.373 Q15.6248 590.917 15.6248 583.119 Q15.6248 579.777 16.2295 576.308 Q16.8343 572.839 18.0438 569.21 Z" fill="#000000" fill-rule="nonzero" fill-opacity="1" /><path clip-path="url(#clip350)" d="M58.5933 554.633 L58.5933 544.129 L22.3406 544.129 L24.6323 555.556 L18.7758 555.556 L16.4842 544.193 L16.4842 537.764 L58.5933 537.764 L58.5933 527.26 L64.0042 527.26 L64.0042 554.633 L58.5933 554.633 Z" fill="#000000" fill-rule="nonzero" fill-opacity="1" /><path clip-path="url(#clip350)" d="M58.5933 513.16 L58.5933 502.657 L22.3406 502.657 L24.6323 514.083 L18.7758 514.083 L16.4842 502.72 L16.4842 496.291 L58.5933 496.291 L58.5933 485.788 L64.0042 485.788 L64.0042 513.16 L58.5933 513.16 Z" fill="#000000" fill-rule="nonzero" fill-opacity="1" /><path clip-path="url(#clip350)" d="M14.1925 466.086 L79.3773 466.086 L79.3773 471.497 L14.1925 471.497 L14.1925 466.086 Z" fill="#000000" fill-rule="nonzero" fill-opacity="1" /><polyline clip-path="url(#clip352)" style="stroke:#009af9; stroke-linecap:round; stroke-linejoin:round; stroke-width:4; stroke-opacity:1; fill:none" points="542.095,1022.66 543.854,1018.17 545.614,1013.7 547.374,1009.24 549.133,1004.8 550.893,1000.37 552.653,995.954 554.412,991.552 556.172,987.165 557.932,982.792 559.692,978.432 561.451,974.087 563.211,969.755 564.971,965.437 566.73,961.132 568.49,956.842 570.25,952.565 572.009,948.302 573.769,944.052 575.529,939.817 577.288,935.594 579.048,931.385 580.808,927.19 582.567,923.008 584.327,918.84 586.087,914.685 587.846,910.544 589.606,906.415 591.366,902.301 593.126,898.199 594.885,894.111 596.645,890.036 598.405,885.974 600.164,881.926 601.924,877.89 603.684,873.868 605.443,869.859 607.203,865.863 608.963,861.88 610.722,857.91 612.482,853.953 614.242,850.009 616.001,846.078 617.761,842.159 619.521,838.254 621.28,834.362 623.04,830.482 624.8,826.615 626.56,822.761 628.319,818.92 630.079,815.091 631.839,811.275 633.598,807.472 635.358,803.681 637.118,799.903 638.877,796.137 640.637,792.384 642.397,788.644 644.156,784.916 645.916,781.2 647.676,777.497 649.435,773.806 651.195,770.128 652.955,766.462 654.714,762.808 656.474,759.167 658.234,755.538 659.993,751.921 661.753,748.317 663.513,744.724 665.273,741.144 667.032,737.576 668.792,734.02 670.552,730.476 672.311,726.944 674.071,723.424 675.831,719.917 677.59,716.421 679.35,712.937 681.11,709.465 682.869,706.005 684.629,702.557 686.389,699.121 688.148,695.696 689.908,692.284 691.668,688.883 693.427,685.494 695.187,682.117 696.947,678.751 698.707,675.397 700.466,672.055 702.226,668.724 703.986,665.405 705.745,662.098 707.505,658.802 709.265,655.518 711.024,652.245 712.784,648.984 714.544,645.734 716.303,642.496 718.063,639.269 719.823,636.053 721.582,632.849 723.342,629.656 725.102,626.474 726.861,623.304 728.621,620.145 730.381,616.997 732.14,613.861 733.9,610.736 735.66,607.622 737.42,604.519 739.179,601.427 740.939,598.346 742.699,595.277 744.458,592.218 746.218,589.171 747.978,586.134 749.737,583.109 751.497,580.095 753.257,577.091 755.016,574.099 756.776,571.117 758.536,568.146 760.295,565.187 762.055,562.238 763.815,559.299 765.574,556.372 767.334,553.455 769.094,550.55 770.854,547.655 772.613,544.77 774.373,541.897 776.133,539.034 777.892,536.181 779.652,533.34 781.412,530.509 783.171,527.688 784.931,524.878 786.691,522.079 788.45,519.29 790.21,516.512 791.97,513.744 793.729,510.987 795.489,508.24 797.249,505.503 799.008,502.777 800.768,500.062 802.528,497.356 804.288,494.662 806.047,491.977 807.807,489.303 809.567,486.639 811.326,483.985 813.086,481.342 814.846,478.708 816.605,476.085 818.365,473.472 820.125,470.87 821.884,468.277 823.644,465.695 825.404,463.123 827.163,460.561 828.923,458.009 830.683,455.467 832.442,452.935 834.202,450.413 835.962,447.901 837.721,445.399 839.481,442.907 841.241,440.425 843.001,437.953 844.76,435.491 846.52,433.038 848.28,430.596 850.039,428.163 851.799,425.741 853.559,423.328 855.318,420.925 857.078,418.532 858.838,416.148 860.597,413.774 862.357,411.41 864.117,409.056 865.876,406.711 867.636,404.377 869.396,402.051 871.155,399.736 872.915,397.43 874.675,395.133 876.435,392.847 878.194,390.57 879.954,388.302 881.714,386.044 883.473,383.795 885.233,381.556 886.993,379.327 888.752,377.107 890.512,374.896 892.272,372.695 894.031,370.504 895.791,368.321 897.551,366.149 899.31,363.985 901.07,361.831 902.83,359.686 904.589,357.551 906.349,355.425 908.109,353.308 909.868,351.201 911.628,349.103 913.388,347.014 915.148,344.934 916.907,342.864 918.667,340.803 920.427,338.751 922.186,336.708 923.946,334.674 925.706,332.65 927.465,330.635 929.225,328.628 930.985,326.631 932.744,324.643 934.504,322.664 936.264,320.695 938.023,318.734 939.783,316.782 941.543,314.839 943.302,312.906 945.062,310.981 946.822,309.066 948.582,307.159 950.341,305.261 952.101,303.372 953.861,301.492 955.62,299.621 957.38,297.759 959.14,295.906 960.899,294.062 962.659,292.227 964.419,290.4 966.178,288.582 967.938,286.773 969.698,284.973 971.457,283.182 973.217,281.4 974.977,279.626 976.736,277.861 978.496,276.105 980.256,274.357 982.016,272.619 983.775,270.889 985.535,269.167 987.295,267.455 989.054,265.751 990.814,264.055 992.574,262.369 994.333,260.691 996.093,259.021 997.853,257.361 999.612,255.708 1001.37,254.065 1003.13,252.43 1004.89,250.803 1006.65,249.185 1008.41,247.576 1010.17,245.975 1011.93,244.383 1013.69,242.799 1015.45,241.224 1017.21,239.657 1018.97,238.099 1020.73,236.549 1022.49,235.008 1024.25,233.475 1026.01,231.95 1027.77,230.434 1029.53,228.927 1031.29,227.427 1033.05,225.936 1034.81,224.454 1036.57,222.98 1038.33,221.514 1040.09,220.056 1041.84,218.607 1043.6,217.167 1045.36,215.734 1047.12,214.31 1048.88,212.894 1050.64,211.487 1052.4,210.087 1054.16,208.696 1055.92,207.314 1057.68,205.939 1059.44,204.573 1061.2,203.215 1062.96,201.865 1064.72,200.523 1066.48,199.19 1068.24,197.865 1070,196.548 1071.76,195.239 1073.52,193.938 1075.28,192.646 1077.04,191.361 1078.8,190.085 1080.56,188.817 1082.32,187.557 1084.08,186.305 1085.84,185.061 1087.6,183.826 1089.36,182.598 1091.12,181.379 1092.88,180.167 1094.64,178.964 1096.39,177.768 1098.15,176.581 1099.91,175.402 1101.67,174.231 1103.43,173.067 1105.19,171.912 1106.95,170.765 1108.71,169.626 1110.47,168.495 1112.23,167.371 1113.99,166.256 1115.75,165.149 1117.51,164.05 1119.27,162.958 1121.03,161.875 1122.79,160.799 1124.55,159.732 1126.31,158.672 1128.07,157.62 1129.83,156.577 1131.59,155.541 1133.35,154.513 1135.11,153.493 1136.87,152.48 1138.63,151.476 1140.39,150.479 1142.15,149.491 1143.91,148.51 1145.67,147.537 1147.43,146.572 1149.19,145.615 1150.95,144.665 1152.7,143.724 1154.46,142.79 1156.22,141.864 1157.98,140.946 1159.74,140.035 1161.5,139.133 1163.26,138.238 1165.02,137.351 1166.78,136.472 1168.54,135.6 1170.3,134.736 1172.06,133.881 1173.82,133.032 1175.58,132.192 1177.34,131.359 1179.1,130.534 1180.86,129.717 1182.62,128.907 1184.38,128.106 1186.14,127.311 1187.9,126.525 1189.66,125.746 1191.42,124.975 1193.18,124.212 1194.94,123.457 1196.7,122.709 1198.46,121.968 1200.22,121.236 1201.98,120.511 1203.74,119.794 1205.5,119.084 1207.25,118.382 1209.01,117.688 1210.77,117.002 1212.53,116.323 1214.29,115.651 1216.05,114.988 1217.81,114.332 1219.57,113.683 1221.33,113.043 1223.09,112.41 1224.85,111.784 1226.61,111.166 1228.37,110.556 1230.13,109.953 1231.89,109.358 1233.65,108.771 1235.41,108.191 1237.17,107.619 1238.93,107.054 1240.69,106.497 1242.45,105.947 1244.21,105.405 1245.97,104.871 1247.73,104.344 1249.49,103.825 1251.25,103.313 1253.01,102.809 1254.77,102.313 1256.53,101.824 1258.29,101.343 1260.05,100.869 1261.81,100.402 1263.56,99.9438 1265.32,99.4926 1267.08,99.049 1268.84,98.613 1270.6,98.1844 1272.36,97.7635 1274.12,97.35 1275.88,96.9441 1277.64,96.5458 1279.4,96.1549 1281.16,95.7716 1282.92,95.3959 1284.68,95.0276 1286.44,94.6669 1288.2,94.3137 1289.96,93.968 1291.72,93.6299 1293.48,93.2992 1295.24,92.9761 1297,92.6605 1298.76,92.3525 1300.52,92.0519 1302.28,91.7589 1304.04,91.4733 1305.8,91.1953 1307.56,90.9248 1309.32,90.6618 1311.08,90.4063 1312.84,90.1583 1314.6,89.9178 1316.36,89.6849 1318.11,89.4594 1319.87,89.2414 1321.63,89.031 1323.39,88.828 1325.15,88.6326 1326.91,88.4447 1328.67,88.2642 1330.43,88.0913 1332.19,87.9259 1333.95,87.768 1335.71,87.6176 1337.47,87.4746 1339.23,87.3392 1340.99,87.2113 1342.75,87.0909 1344.51,86.9781 1346.27,86.8727 1348.03,86.7748 1349.79,86.6844 1351.55,86.6015 1353.31,86.5262 1355.07,86.4583 1356.83,86.398 1358.59,86.3452 1360.35,86.2998 1362.11,86.262 1363.87,86.2317 1365.63,86.2089 1367.39,86.1937 1369.15,86.1859 1370.91,86.1857 1372.67,86.193 1374.42,86.2078 1376.18,86.2301 1377.94,86.2599 1379.7,86.2973 1381.46,86.3422 1383.22,86.3946 1384.98,86.4545 1386.74,86.522 1388.5,86.597 1390.26,86.6796 1392.02,86.7696 1393.78,86.8673 1395.54,86.9724 1397.3,87.0851 1399.06,87.2054 1400.82,87.3331 1402.58,87.4685 1404.34,87.6114 1406.1,87.7618 1407.86,87.9198 1409.62,88.0854 1411.38,88.2585 1413.14,88.4392 1414.9,88.6274 1416.66,88.8232 1418.42,89.0266 1420.18,89.2376 1421.94,89.4561 1423.7,89.6823 1425.46,89.916 1427.22,90.1573 1428.98,90.4061 1430.73,90.6626 1432.49,90.9267 1434.25,91.1984 1436.01,91.4776 1437.77,91.7645 1439.53,92.059 1441.29,92.3611 1443.05,92.6709 1444.81,92.9882 1446.57,93.3132 1448.33,93.6458 1450.09,93.986 1451.85,94.3339 1453.61,94.6894 1455.37,95.0526 1457.13,95.4234 1458.89,95.8018 1460.65,96.188 1462.41,96.5817 1464.17,96.9832 1465.93,97.3923 1467.69,97.8091 1469.45,98.2336 1471.21,98.6657 1472.97,99.1056 1474.73,99.5531 1476.49,100.008 1478.25,100.471 1480.01,100.942 1481.77,101.42 1483.53,101.906 1485.28,102.4 1487.04,102.902 1488.8,103.411 1490.56,103.928 1492.32,104.453 1494.08,104.985 1495.84,105.526 1497.6,106.074 1499.36,106.629 1501.12,107.193 1502.88,107.764 1504.64,108.344 1506.4,108.93 1508.16,109.525 1509.92,110.128 1511.68,110.738 1513.44,111.356 1515.2,111.982 1516.96,112.616 1518.72,113.258 1520.48,113.907 1522.24,114.564 1524,115.23 1525.76,115.903 1527.52,116.584 1529.28,117.272 1531.04,117.969 1532.8,118.674 1534.56,119.386 1536.32,120.106 1538.08,120.835 1539.84,121.571 1541.59,122.315 1543.35,123.067 1545.11,123.827 1546.87,124.595 1548.63,125.371 1550.39,126.154 1552.15,126.946 1553.91,127.746 1555.67,128.554 1557.43,129.369 1559.19,130.193 1560.95,131.025 1562.71,131.864 1564.47,132.712 1566.23,133.568 1567.99,134.432 1569.75,135.304 1571.51,136.184 1573.27,137.072 1575.03,137.968 1576.79,138.872 1578.55,139.784 1580.31,140.704 1582.07,141.633 1583.83,142.569 1585.59,143.514 1587.35,144.467 1589.11,145.428 1590.87,146.397 1592.63,147.374 1594.39,148.359 1596.14,149.353 1597.9,150.355 1599.66,151.365 1601.42,152.383 1603.18,153.409 1604.94,154.444 1606.7,155.486 1608.46,156.538 1610.22,157.597 1611.98,158.664 1613.74,159.74 1615.5,160.824 1617.26,161.917 1619.02,163.018 1620.78,164.127 1622.54,165.244 1624.3,166.37 1626.06,167.504 1627.82,168.646 1629.58,169.797 1631.34,170.956 1633.1,172.124 1634.86,173.3 1636.62,174.484 1638.38,175.677 1640.14,176.878 1641.9,178.087 1643.66,179.305 1645.42,180.532 1647.18,181.767 1648.94,183.01 1650.7,184.262 1652.45,185.523 1654.21,186.792 1655.97,188.069 1657.73,189.355 1659.49,190.65 1661.25,191.953 1663.01,193.265 1664.77,194.585 1666.53,195.914 1668.29,197.252 1670.05,198.598 1671.81,199.953 1673.57,201.316 1675.33,202.688 1677.09,204.069 1678.85,205.459 1680.61,206.857 1682.37,208.264 1684.13,209.679 1685.89,211.104 1687.65,212.537 1689.41,213.979 1691.17,215.429 1692.93,216.889 1694.69,218.357 1696.45,219.834 1698.21,221.32 1699.97,222.815 1701.73,224.318 1703.49,225.831 1705.25,227.352 1707,228.882 1708.76,230.421 1710.52,231.969 1712.28,233.526 1714.04,235.092 1715.8,236.667 1717.56,238.251 1719.32,239.844 1721.08,241.446 1722.84,243.057 1724.6,244.677 1726.36,246.306 1728.12,247.944 1729.88,249.591 1731.64,251.247 1733.4,252.912 1735.16,254.587 1736.92,256.27 1738.68,257.963 1740.44,259.665 1742.2,261.376 1743.96,263.096 1745.72,264.826 1747.48,266.564 1749.24,268.312 1751,270.069 1752.76,271.836 1754.52,273.612 1756.28,275.397 1758.04,277.191 1759.8,278.995 1761.56,280.808 1763.31,282.631 1765.07,284.462 1766.83,286.304 1768.59,288.154 1770.35,290.014 1772.11,291.884 1773.87,293.763 1775.63,295.652 1777.39,297.55 1779.15,299.457 1780.91,301.374 1782.67,303.301 1784.43,305.237 1786.19,307.183 1787.95,309.138 1789.71,311.103 1791.47,313.078 1793.23,315.062 1794.99,317.056 1796.75,319.06 1798.51,321.073 1800.27,323.096 1802.03,325.129 1803.79,327.171 1805.55,329.224 1807.31,331.286 1809.07,333.358 1810.83,335.44 1812.59,337.531 1814.35,339.633 1816.11,341.744 1817.87,343.866 1819.62,345.997 1821.38,348.138 1823.14,350.289 1824.9,352.45 1826.66,354.621 1828.42,356.802 1830.18,358.994 1831.94,361.195 1833.7,363.406 1835.46,365.628 1837.22,367.859 1838.98,370.101 1840.74,372.353 1842.5,374.615 1844.26,376.887 1846.02,379.169 1847.78,381.462 1849.54,383.765 1851.3,386.078 1853.06,388.401 1854.82,390.735 1856.58,393.079 1858.34,395.434 1860.1,397.799 1861.86,400.174 1863.62,402.559 1865.38,404.955 1867.14,407.362 1868.9,409.779 1870.66,412.207 1872.42,414.645 1874.17,417.093 1875.93,419.552 1877.69,422.022 1879.45,424.502 1881.21,426.993 1882.97,429.495 1884.73,432.007 1886.49,434.53 1888.25,437.064 1890.01,439.609 1891.77,442.164 1893.53,444.73 1895.29,447.307 1897.05,449.894 1898.81,452.493 1900.57,455.102 1902.33,457.722 1904.09,460.353 1905.85,462.996 1907.61,465.649 1909.37,468.313 1911.13,470.988 1912.89,473.674 1914.65,476.371 1916.41,479.079 1918.17,481.799 1919.93,484.529 1921.69,487.271 1923.45,490.024 1925.21,492.787 1926.97,495.563 1928.73,498.349 1930.48,501.147 1932.24,503.956 1934,506.776 1935.76,509.608 1937.52,512.451 1939.28,515.305 1941.04,518.171 1942.8,521.049 1944.56,523.937 1946.32,526.838 1948.08,529.749 1949.84,532.673 1951.6,535.608 1953.36,538.554 1955.12,541.512 1956.88,544.482 1958.64,547.463 1960.4,550.456 1962.16,553.461 1963.92,556.478 1965.68,559.506 1967.44,562.546 1969.2,565.598 1970.96,568.662 1972.72,571.738 1974.48,574.825 1976.24,577.925 1978,581.036 1979.76,584.16 1981.52,587.295 1983.28,590.443 1985.03,593.602 1986.79,596.774 1988.55,599.958 1990.31,603.154 1992.07,606.362 1993.83,609.582 1995.59,612.815 1997.35,616.06 1999.11,619.317 2000.87,622.586 2002.63,625.868 2004.39,629.162 2006.15,632.468 2007.91,635.787 2009.67,639.119 2011.43,642.462 2013.19,645.819 2014.95,649.188 2016.71,652.569 2018.47,655.963 2020.23,659.37 2021.99,662.789 2023.75,666.221 2025.51,669.666 2027.27,673.124 2029.03,676.594 2030.79,680.077 2032.55,683.573 2034.31,687.081 2036.07,690.603 2037.83,694.138 2039.59,697.685 2041.34,701.246 2043.1,704.819 2044.86,708.406 2046.62,712.005 2048.38,715.618 2050.14,719.244 2051.9,722.883 2053.66,726.535 2055.42,730.201 2057.18,733.879 2058.94,737.571 2060.7,741.277 2062.46,744.995 2064.22,748.727 2065.98,752.473 2067.74,756.232 2069.5,760.004 2071.26,763.79 2073.02,767.59 2074.78,771.403 2076.54,775.229 2078.3,779.069 2080.06,782.923 2081.82,786.791 2083.58,790.672 2085.34,794.568 2087.1,798.477 2088.86,802.399 2090.62,806.336 2092.38,810.287 2094.14,814.251 2095.89,818.23 2097.65,822.222 2099.41,826.228 2101.17,830.249 2102.93,834.284 2104.69,838.333 2106.45,842.395 2108.21,846.473 2109.97,850.564 2111.73,854.67 2113.49,858.79 2115.25,862.924 2117.01,867.073 2118.77,871.236 2120.53,875.414 2122.29,879.606 2124.05,883.812 2125.81,888.033 2127.57,892.269 2129.33,896.519 2131.09,900.784 2132.85,905.064 2134.61,909.358 2136.37,913.668 2138.13,917.992 2139.89,922.33 2141.65,926.684 2143.41,931.053 2145.17,935.436 2146.93,939.835 2148.69,944.248 2150.45,948.677 2152.2,953.12 2153.96,957.579 2155.72,962.053 2157.48,966.542 2159.24,971.047 2161,975.566 2162.76,980.101 2164.52,984.652 2166.28,989.218 2168.04,993.799 2169.8,998.395 2171.56,1003.01 2173.32,1007.64 2175.08,1012.28 2176.84,1016.94 2178.6,1021.61 2180.36,1026.3 2182.12,1031.01 2183.88,1035.73 2185.64,1040.47 2187.4,1045.22 2189.16,1049.99 2190.92,1054.77 2192.68,1059.58 2194.44,1064.39 2196.2,1069.23 2197.96,1074.08 2199.72,1078.94 2201.48,1083.82 2203.24,1088.72 2205,1093.63 2206.75,1098.56 2208.51,1103.51 2210.27,1108.47 2212.03,1113.45 2213.79,1118.45 2215.55,1123.46 2217.31,1128.49 2219.07,1133.53 2220.83,1138.6 2222.59,1143.67 2224.35,1148.77 2226.11,1153.88 2227.87,1159.01 2229.63,1164.16 2231.39,1169.32 2233.15,1174.5 2234.91,1179.69 2236.67,1184.91 2238.43,1190.14 2240.19,1195.38 2241.95,1200.65 2243.71,1205.93 2245.47,1211.23 2247.23,1216.54 2248.99,1221.88 2250.75,1227.23 2252.51,1232.6 2254.27,1237.98 2256.03,1243.38 2257.79,1248.8 2259.55,1254.24 2261.31,1259.7 2263.06,1265.17 2264.82,1270.66 2266.58,1276.17 2268.34,1281.69 2270.1,1287.24 2271.86,1292.8 2273.62,1298.38 2275.38,1303.97 2277.14,1309.59 2278.9,1315.22 2280.66,1320.87 2282.42,1326.54 2284.18,1332.23 2285.94,1337.94 2287.7,1343.66 2289.46,1349.4 2291.22,1355.16 2292.98,1360.94 2294.74,1366.74 2296.5,1372.55 2298.26,1378.39 2300.02,1384.24 "/>
<polyline clip-path="url(#clip352)" style="stroke:#ff0000; stroke-linecap:round; stroke-linejoin:round; stroke-width:4; stroke-opacity:1; fill:none" points="1412.27,2799.12 1412.27,-1328.69 "/>
<polyline clip-path="url(#clip352)" style="stroke:#ff0000; stroke-linecap:round; stroke-linejoin:round; stroke-width:4; stroke-opacity:1; fill:none" points="1429.85,2799.12 1429.85,-1328.69 "/>
</svg>
