<?xml version="1.0" encoding="utf-8"?>
<svg xmlns="http://www.w3.org/2000/svg" xmlns:xlink="http://www.w3.org/1999/xlink" width="600" height="400" viewBox="0 0 2400 1600">
<defs>
  <clipPath id="clip430">
    <rect x="0" y="0" width="2400" height="1600"/>
  </clipPath>
</defs>
<path clip-path="url(#clip430)" d="M0 1600 L2400 1600 L2400 0 L0 0  Z" fill="#ffffff" fill-rule="evenodd" fill-opacity="1"/>
<defs>
  <clipPath id="clip431">
    <rect x="480" y="0" width="1681" height="1600"/>
  </clipPath>
</defs>
<path clip-path="url(#clip430)" d="M369.703 1423.18 L2352.76 1423.18 L2352.76 47.2441 L369.703 47.2441  Z" fill="#ffffff" fill-rule="evenodd" fill-opacity="1"/>
<defs>
  <clipPath id="clip432">
    <rect x="369" y="47" width="1984" height="1377"/>
  </clipPath>
</defs>
<polyline clip-path="url(#clip432)" style="stroke:#000000; stroke-linecap:round; stroke-linejoin:round; stroke-width:2; stroke-opacity:0.1; fill:none" points="612.908,1423.18 612.908,47.2441 "/>
<polyline clip-path="url(#clip432)" style="stroke:#000000; stroke-linecap:round; stroke-linejoin:round; stroke-width:2; stroke-opacity:0.1; fill:none" points="987.069,1423.18 987.069,47.2441 "/>
<polyline clip-path="url(#clip432)" style="stroke:#000000; stroke-linecap:round; stroke-linejoin:round; stroke-width:2; stroke-opacity:0.1; fill:none" points="1361.23,1423.18 1361.23,47.2441 "/>
<polyline clip-path="url(#clip432)" style="stroke:#000000; stroke-linecap:round; stroke-linejoin:round; stroke-width:2; stroke-opacity:0.1; fill:none" points="1735.39,1423.18 1735.39,47.2441 "/>
<polyline clip-path="url(#clip432)" style="stroke:#000000; stroke-linecap:round; stroke-linejoin:round; stroke-width:2; stroke-opacity:0.1; fill:none" points="2109.55,1423.18 2109.55,47.2441 "/>
<polyline clip-path="url(#clip432)" style="stroke:#000000; stroke-linecap:round; stroke-linejoin:round; stroke-width:2; stroke-opacity:0.1; fill:none" points="369.703,1384.24 2352.76,1384.24 "/>
<polyline clip-path="url(#clip432)" style="stroke:#000000; stroke-linecap:round; stroke-linejoin:round; stroke-width:2; stroke-opacity:0.1; fill:none" points="369.703,1101.67 2352.76,1101.67 "/>
<polyline clip-path="url(#clip432)" style="stroke:#000000; stroke-linecap:round; stroke-linejoin:round; stroke-width:2; stroke-opacity:0.1; fill:none" points="369.703,819.1 2352.76,819.1 "/>
<polyline clip-path="url(#clip432)" style="stroke:#000000; stroke-linecap:round; stroke-linejoin:round; stroke-width:2; stroke-opacity:0.1; fill:none" points="369.703,536.531 2352.76,536.531 "/>
<polyline clip-path="url(#clip432)" style="stroke:#000000; stroke-linecap:round; stroke-linejoin:round; stroke-width:2; stroke-opacity:0.1; fill:none" points="369.703,253.961 2352.76,253.961 "/>
<polyline clip-path="url(#clip430)" style="stroke:#000000; stroke-linecap:round; stroke-linejoin:round; stroke-width:4; stroke-opacity:1; fill:none" points="369.703,1423.18 2352.76,1423.18 "/>
<polyline clip-path="url(#clip430)" style="stroke:#000000; stroke-linecap:round; stroke-linejoin:round; stroke-width:4; stroke-opacity:1; fill:none" points="612.908,1423.18 612.908,1404.28 "/>
<polyline clip-path="url(#clip430)" style="stroke:#000000; stroke-linecap:round; stroke-linejoin:round; stroke-width:4; stroke-opacity:1; fill:none" points="987.069,1423.18 987.069,1404.28 "/>
<polyline clip-path="url(#clip430)" style="stroke:#000000; stroke-linecap:round; stroke-linejoin:round; stroke-width:4; stroke-opacity:1; fill:none" points="1361.23,1423.18 1361.23,1404.28 "/>
<polyline clip-path="url(#clip430)" style="stroke:#000000; stroke-linecap:round; stroke-linejoin:round; stroke-width:4; stroke-opacity:1; fill:none" points="1735.39,1423.18 1735.39,1404.28 "/>
<polyline clip-path="url(#clip430)" style="stroke:#000000; stroke-linecap:round; stroke-linejoin:round; stroke-width:4; stroke-opacity:1; fill:none" points="2109.55,1423.18 2109.55,1404.28 "/>
<path clip-path="url(#clip430)" d="M568.985 1481.64 L585.304 1481.64 L585.304 1485.58 L563.36 1485.58 L563.36 1481.64 Q566.022 1478.89 570.605 1474.26 Q575.211 1469.61 576.392 1468.27 Q578.637 1465.74 579.517 1464.01 Q580.42 1462.25 580.42 1460.56 Q580.42 1457.8 578.475 1456.07 Q576.554 1454.33 573.452 1454.33 Q571.253 1454.33 568.799 1455.09 Q566.369 1455.86 563.591 1457.41 L563.591 1452.69 Q566.415 1451.55 568.869 1450.97 Q571.323 1450.39 573.36 1450.39 Q578.73 1450.39 581.924 1453.08 Q585.119 1455.77 585.119 1460.26 Q585.119 1462.39 584.309 1464.31 Q583.522 1466.2 581.415 1468.8 Q580.836 1469.47 577.735 1472.69 Q574.633 1475.88 568.985 1481.64 Z" fill="#000000" fill-rule="nonzero" fill-opacity="1" /><path clip-path="url(#clip430)" d="M595.258 1484.86 L595.258 1480.6 Q597.017 1481.44 598.822 1481.88 Q600.628 1482.32 602.364 1482.32 Q606.994 1482.32 609.424 1479.21 Q611.878 1476.09 612.225 1469.75 Q610.883 1471.74 608.822 1472.8 Q606.762 1473.87 604.262 1473.87 Q599.077 1473.87 596.045 1470.74 Q593.035 1467.59 593.035 1462.15 Q593.035 1456.83 596.184 1453.61 Q599.332 1450.39 604.563 1450.39 Q610.558 1450.39 613.707 1455 Q616.878 1459.58 616.878 1468.33 Q616.878 1476.51 612.989 1481.39 Q609.123 1486.25 602.572 1486.25 Q600.813 1486.25 599.008 1485.9 Q597.202 1485.56 595.258 1484.86 M604.563 1470.21 Q607.711 1470.21 609.54 1468.06 Q611.392 1465.9 611.392 1462.15 Q611.392 1458.43 609.54 1456.27 Q607.711 1454.1 604.563 1454.1 Q601.415 1454.1 599.563 1456.27 Q597.734 1458.43 597.734 1462.15 Q597.734 1465.9 599.563 1468.06 Q601.415 1470.21 604.563 1470.21 Z" fill="#000000" fill-rule="nonzero" fill-opacity="1" /><path clip-path="url(#clip430)" d="M625.281 1479.7 L630.165 1479.7 L630.165 1485.58 L625.281 1485.58 L625.281 1479.7 Z" fill="#000000" fill-rule="nonzero" fill-opacity="1" /><path clip-path="url(#clip430)" d="M650.929 1466.44 Q647.78 1466.44 645.929 1468.59 Q644.1 1470.74 644.1 1474.49 Q644.1 1478.22 645.929 1480.39 Q647.78 1482.55 650.929 1482.55 Q654.077 1482.55 655.905 1480.39 Q657.757 1478.22 657.757 1474.49 Q657.757 1470.74 655.905 1468.59 Q654.077 1466.44 650.929 1466.44 M660.211 1451.78 L660.211 1456.04 Q658.452 1455.21 656.646 1454.77 Q654.864 1454.33 653.105 1454.33 Q648.475 1454.33 646.021 1457.45 Q643.591 1460.58 643.243 1466.9 Q644.609 1464.89 646.669 1463.82 Q648.73 1462.73 651.206 1462.73 Q656.415 1462.73 659.424 1465.9 Q662.456 1469.05 662.456 1474.49 Q662.456 1479.82 659.308 1483.03 Q656.16 1486.25 650.929 1486.25 Q644.933 1486.25 641.762 1481.67 Q638.591 1477.06 638.591 1468.33 Q638.591 1460.14 642.48 1455.28 Q646.368 1450.39 652.919 1450.39 Q654.679 1450.39 656.461 1450.74 Q658.267 1451.09 660.211 1451.78 Z" fill="#000000" fill-rule="nonzero" fill-opacity="1" /><path clip-path="url(#clip430)" d="M943.273 1481.64 L959.592 1481.64 L959.592 1485.58 L937.648 1485.58 L937.648 1481.64 Q940.31 1478.89 944.893 1474.26 Q949.5 1469.61 950.68 1468.27 Q952.925 1465.74 953.805 1464.01 Q954.708 1462.25 954.708 1460.56 Q954.708 1457.8 952.763 1456.07 Q950.842 1454.33 947.74 1454.33 Q945.541 1454.33 943.088 1455.09 Q940.657 1455.86 937.879 1457.41 L937.879 1452.69 Q940.703 1451.55 943.157 1450.97 Q945.611 1450.39 947.648 1450.39 Q953.018 1450.39 956.213 1453.08 Q959.407 1455.77 959.407 1460.26 Q959.407 1462.39 958.597 1464.31 Q957.81 1466.2 955.703 1468.8 Q955.125 1469.47 952.023 1472.69 Q948.921 1475.88 943.273 1481.64 Z" fill="#000000" fill-rule="nonzero" fill-opacity="1" /><path clip-path="url(#clip430)" d="M969.546 1484.86 L969.546 1480.6 Q971.305 1481.44 973.111 1481.88 Q974.916 1482.32 976.652 1482.32 Q981.282 1482.32 983.712 1479.21 Q986.166 1476.09 986.513 1469.75 Q985.171 1471.74 983.111 1472.8 Q981.05 1473.87 978.55 1473.87 Q973.365 1473.87 970.333 1470.74 Q967.324 1467.59 967.324 1462.15 Q967.324 1456.83 970.472 1453.61 Q973.62 1450.39 978.851 1450.39 Q984.847 1450.39 987.995 1455 Q991.166 1459.58 991.166 1468.33 Q991.166 1476.51 987.277 1481.39 Q983.411 1486.25 976.861 1486.25 Q975.101 1486.25 973.296 1485.9 Q971.49 1485.56 969.546 1484.86 M978.851 1470.21 Q981.999 1470.21 983.828 1468.06 Q985.68 1465.9 985.68 1462.15 Q985.68 1458.43 983.828 1456.27 Q981.999 1454.1 978.851 1454.1 Q975.703 1454.1 973.851 1456.27 Q972.023 1458.43 972.023 1462.15 Q972.023 1465.9 973.851 1468.06 Q975.703 1470.21 978.851 1470.21 Z" fill="#000000" fill-rule="nonzero" fill-opacity="1" /><path clip-path="url(#clip430)" d="M999.569 1479.7 L1004.45 1479.7 L1004.45 1485.58 L999.569 1485.58 L999.569 1479.7 Z" fill="#000000" fill-rule="nonzero" fill-opacity="1" /><path clip-path="url(#clip430)" d="M1024.64 1469.17 Q1021.3 1469.17 1019.38 1470.95 Q1017.49 1472.73 1017.49 1475.86 Q1017.49 1478.98 1019.38 1480.77 Q1021.3 1482.55 1024.64 1482.55 Q1027.97 1482.55 1029.89 1480.77 Q1031.81 1478.96 1031.81 1475.86 Q1031.81 1472.73 1029.89 1470.95 Q1027.99 1469.17 1024.64 1469.17 M1019.96 1467.18 Q1016.95 1466.44 1015.26 1464.38 Q1013.6 1462.32 1013.6 1459.35 Q1013.6 1455.21 1016.54 1452.8 Q1019.5 1450.39 1024.64 1450.39 Q1029.8 1450.39 1032.74 1452.8 Q1035.68 1455.21 1035.68 1459.35 Q1035.68 1462.32 1033.99 1464.38 Q1032.32 1466.44 1029.34 1467.18 Q1032.72 1467.96 1034.59 1470.26 Q1036.49 1472.55 1036.49 1475.86 Q1036.49 1480.88 1033.41 1483.57 Q1030.36 1486.25 1024.64 1486.25 Q1018.92 1486.25 1015.84 1483.57 Q1012.79 1480.88 1012.79 1475.86 Q1012.79 1472.55 1014.68 1470.26 Q1016.58 1467.96 1019.96 1467.18 M1018.25 1459.79 Q1018.25 1462.48 1019.92 1463.98 Q1021.61 1465.49 1024.64 1465.49 Q1027.65 1465.49 1029.34 1463.98 Q1031.05 1462.48 1031.05 1459.79 Q1031.05 1457.11 1029.34 1455.6 Q1027.65 1454.1 1024.64 1454.1 Q1021.61 1454.1 1019.92 1455.6 Q1018.25 1457.11 1018.25 1459.79 Z" fill="#000000" fill-rule="nonzero" fill-opacity="1" /><path clip-path="url(#clip430)" d="M1327.46 1466.95 Q1330.81 1467.66 1332.69 1469.93 Q1334.59 1472.2 1334.59 1475.53 Q1334.59 1480.65 1331.07 1483.45 Q1327.55 1486.25 1321.07 1486.25 Q1318.89 1486.25 1316.58 1485.81 Q1314.29 1485.39 1311.83 1484.54 L1311.83 1480.02 Q1313.78 1481.16 1316.09 1481.74 Q1318.41 1482.32 1320.93 1482.32 Q1325.33 1482.32 1327.62 1480.58 Q1329.93 1478.84 1329.93 1475.53 Q1329.93 1472.48 1327.78 1470.77 Q1325.65 1469.03 1321.83 1469.03 L1317.8 1469.03 L1317.8 1465.19 L1322.02 1465.19 Q1325.47 1465.19 1327.29 1463.82 Q1329.12 1462.43 1329.12 1459.84 Q1329.12 1457.18 1327.23 1455.77 Q1325.35 1454.33 1321.83 1454.33 Q1319.91 1454.33 1317.71 1454.75 Q1315.51 1455.16 1312.87 1456.04 L1312.87 1451.88 Q1315.54 1451.14 1317.85 1450.77 Q1320.19 1450.39 1322.25 1450.39 Q1327.57 1450.39 1330.67 1452.83 Q1333.78 1455.23 1333.78 1459.35 Q1333.78 1462.22 1332.13 1464.21 Q1330.49 1466.18 1327.46 1466.95 Z" fill="#000000" fill-rule="nonzero" fill-opacity="1" /><path clip-path="url(#clip430)" d="M1353.45 1454.1 Q1349.84 1454.1 1348.01 1457.66 Q1346.21 1461.2 1346.21 1468.33 Q1346.21 1475.44 1348.01 1479.01 Q1349.84 1482.55 1353.45 1482.55 Q1357.09 1482.55 1358.89 1479.01 Q1360.72 1475.44 1360.72 1468.33 Q1360.72 1461.2 1358.89 1457.66 Q1357.09 1454.1 1353.45 1454.1 M1353.45 1450.39 Q1359.26 1450.39 1362.32 1455 Q1365.4 1459.58 1365.4 1468.33 Q1365.4 1477.06 1362.32 1481.67 Q1359.26 1486.25 1353.45 1486.25 Q1347.64 1486.25 1344.56 1481.67 Q1341.51 1477.06 1341.51 1468.33 Q1341.51 1459.58 1344.56 1455 Q1347.64 1450.39 1353.45 1450.39 Z" fill="#000000" fill-rule="nonzero" fill-opacity="1" /><path clip-path="url(#clip430)" d="M1373.61 1479.7 L1378.5 1479.7 L1378.5 1485.58 L1373.61 1485.58 L1373.61 1479.7 Z" fill="#000000" fill-rule="nonzero" fill-opacity="1" /><path clip-path="url(#clip430)" d="M1398.68 1454.1 Q1395.07 1454.1 1393.24 1457.66 Q1391.44 1461.2 1391.44 1468.33 Q1391.44 1475.44 1393.24 1479.01 Q1395.07 1482.55 1398.68 1482.55 Q1402.32 1482.55 1404.12 1479.01 Q1405.95 1475.44 1405.95 1468.33 Q1405.95 1461.2 1404.12 1457.66 Q1402.32 1454.1 1398.68 1454.1 M1398.68 1450.39 Q1404.49 1450.39 1407.55 1455 Q1410.63 1459.58 1410.63 1468.33 Q1410.63 1477.06 1407.55 1481.67 Q1404.49 1486.25 1398.68 1486.25 Q1392.87 1486.25 1389.79 1481.67 Q1386.74 1477.06 1386.74 1468.33 Q1386.74 1459.58 1389.79 1455 Q1392.87 1450.39 1398.68 1450.39 Z" fill="#000000" fill-rule="nonzero" fill-opacity="1" /><path clip-path="url(#clip430)" d="M1702.42 1466.95 Q1705.77 1467.66 1707.65 1469.93 Q1709.55 1472.2 1709.55 1475.53 Q1709.55 1480.65 1706.03 1483.45 Q1702.51 1486.25 1696.03 1486.25 Q1693.85 1486.25 1691.54 1485.81 Q1689.24 1485.39 1686.79 1484.54 L1686.79 1480.02 Q1688.74 1481.16 1691.05 1481.74 Q1693.37 1482.32 1695.89 1482.32 Q1700.29 1482.32 1702.58 1480.58 Q1704.89 1478.84 1704.89 1475.53 Q1704.89 1472.48 1702.74 1470.77 Q1700.61 1469.03 1696.79 1469.03 L1692.76 1469.03 L1692.76 1465.19 L1696.98 1465.19 Q1700.43 1465.19 1702.25 1463.82 Q1704.08 1462.43 1704.08 1459.84 Q1704.08 1457.18 1702.18 1455.77 Q1700.31 1454.33 1696.79 1454.33 Q1694.87 1454.33 1692.67 1454.75 Q1690.47 1455.16 1687.83 1456.04 L1687.83 1451.88 Q1690.49 1451.14 1692.81 1450.77 Q1695.15 1450.39 1697.21 1450.39 Q1702.53 1450.39 1705.63 1452.83 Q1708.74 1455.23 1708.74 1459.35 Q1708.74 1462.22 1707.09 1464.21 Q1705.45 1466.18 1702.42 1466.95 Z" fill="#000000" fill-rule="nonzero" fill-opacity="1" /><path clip-path="url(#clip430)" d="M1728.41 1454.1 Q1724.8 1454.1 1722.97 1457.66 Q1721.17 1461.2 1721.17 1468.33 Q1721.17 1475.44 1722.97 1479.01 Q1724.8 1482.55 1728.41 1482.55 Q1732.05 1482.55 1733.85 1479.01 Q1735.68 1475.44 1735.68 1468.33 Q1735.68 1461.2 1733.85 1457.66 Q1732.05 1454.1 1728.41 1454.1 M1728.41 1450.39 Q1734.22 1450.39 1737.28 1455 Q1740.36 1459.58 1740.36 1468.33 Q1740.36 1477.06 1737.28 1481.67 Q1734.22 1486.25 1728.41 1486.25 Q1722.6 1486.25 1719.52 1481.67 Q1716.47 1477.06 1716.47 1468.33 Q1716.47 1459.58 1719.52 1455 Q1722.6 1450.39 1728.41 1450.39 Z" fill="#000000" fill-rule="nonzero" fill-opacity="1" /><path clip-path="url(#clip430)" d="M1748.57 1479.7 L1753.46 1479.7 L1753.46 1485.58 L1748.57 1485.58 L1748.57 1479.7 Z" fill="#000000" fill-rule="nonzero" fill-opacity="1" /><path clip-path="url(#clip430)" d="M1767.67 1481.64 L1783.99 1481.64 L1783.99 1485.58 L1762.05 1485.58 L1762.05 1481.64 Q1764.71 1478.89 1769.29 1474.26 Q1773.9 1469.61 1775.08 1468.27 Q1777.32 1465.74 1778.2 1464.01 Q1779.11 1462.25 1779.11 1460.56 Q1779.11 1457.8 1777.16 1456.07 Q1775.24 1454.33 1772.14 1454.33 Q1769.94 1454.33 1767.49 1455.09 Q1765.05 1455.86 1762.28 1457.41 L1762.28 1452.69 Q1765.1 1451.55 1767.55 1450.97 Q1770.01 1450.39 1772.05 1450.39 Q1777.42 1450.39 1780.61 1453.08 Q1783.8 1455.77 1783.8 1460.26 Q1783.8 1462.39 1782.99 1464.31 Q1782.21 1466.2 1780.1 1468.8 Q1779.52 1469.47 1776.42 1472.69 Q1773.32 1475.88 1767.67 1481.64 Z" fill="#000000" fill-rule="nonzero" fill-opacity="1" /><path clip-path="url(#clip430)" d="M2075.54 1466.95 Q2078.89 1467.66 2080.77 1469.93 Q2082.66 1472.2 2082.66 1475.53 Q2082.66 1480.65 2079.15 1483.45 Q2075.63 1486.25 2069.15 1486.25 Q2066.97 1486.25 2064.66 1485.81 Q2062.36 1485.39 2059.91 1484.54 L2059.91 1480.02 Q2061.85 1481.16 2064.17 1481.74 Q2066.48 1482.32 2069.01 1482.32 Q2073.41 1482.32 2075.7 1480.58 Q2078.01 1478.84 2078.01 1475.53 Q2078.01 1472.48 2075.86 1470.77 Q2073.73 1469.03 2069.91 1469.03 L2065.88 1469.03 L2065.88 1465.19 L2070.1 1465.19 Q2073.54 1465.19 2075.37 1463.82 Q2077.2 1462.43 2077.2 1459.84 Q2077.2 1457.18 2075.3 1455.77 Q2073.43 1454.33 2069.91 1454.33 Q2067.99 1454.33 2065.79 1454.75 Q2063.59 1455.16 2060.95 1456.04 L2060.95 1451.88 Q2063.61 1451.14 2065.93 1450.77 Q2068.27 1450.39 2070.33 1450.39 Q2075.65 1450.39 2078.75 1452.83 Q2081.85 1455.23 2081.85 1459.35 Q2081.85 1462.22 2080.21 1464.21 Q2078.57 1466.18 2075.54 1466.95 Z" fill="#000000" fill-rule="nonzero" fill-opacity="1" /><path clip-path="url(#clip430)" d="M2101.53 1454.1 Q2097.92 1454.1 2096.09 1457.66 Q2094.29 1461.2 2094.29 1468.33 Q2094.29 1475.44 2096.09 1479.01 Q2097.92 1482.55 2101.53 1482.55 Q2105.16 1482.55 2106.97 1479.01 Q2108.8 1475.44 2108.8 1468.33 Q2108.8 1461.2 2106.97 1457.66 Q2105.16 1454.1 2101.53 1454.1 M2101.53 1450.39 Q2107.34 1450.39 2110.4 1455 Q2113.47 1459.58 2113.47 1468.33 Q2113.47 1477.06 2110.4 1481.67 Q2107.34 1486.25 2101.53 1486.25 Q2095.72 1486.25 2092.64 1481.67 Q2089.59 1477.06 2089.59 1468.33 Q2089.59 1459.58 2092.64 1455 Q2095.72 1450.39 2101.53 1450.39 Z" fill="#000000" fill-rule="nonzero" fill-opacity="1" /><path clip-path="url(#clip430)" d="M2121.69 1479.7 L2126.58 1479.7 L2126.58 1485.58 L2121.69 1485.58 L2121.69 1479.7 Z" fill="#000000" fill-rule="nonzero" fill-opacity="1" /><path clip-path="url(#clip430)" d="M2149.61 1455.09 L2137.8 1473.54 L2149.61 1473.54 L2149.61 1455.09 M2148.38 1451.02 L2154.26 1451.02 L2154.26 1473.54 L2159.19 1473.54 L2159.19 1477.43 L2154.26 1477.43 L2154.26 1485.58 L2149.61 1485.58 L2149.61 1477.43 L2134.01 1477.43 L2134.01 1472.92 L2148.38 1451.02 Z" fill="#000000" fill-rule="nonzero" fill-opacity="1" /><path clip-path="url(#clip430)" d="M1069.39 1520.52 L1096.7 1520.52 L1096.7 1525.93 L1075.82 1525.93 L1075.82 1539.94 L1094.67 1539.94 L1094.67 1545.35 L1075.82 1545.35 L1075.82 1568.04 L1069.39 1568.04 L1069.39 1520.52 Z" fill="#000000" fill-rule="nonzero" fill-opacity="1" /><path clip-path="url(#clip430)" d="M1122.55 1537.87 Q1121.56 1537.3 1120.38 1537.04 Q1119.24 1536.76 1117.84 1536.76 Q1112.87 1536.76 1110.2 1540 Q1107.56 1543.22 1107.56 1549.27 L1107.56 1568.04 L1101.67 1568.04 L1101.67 1532.4 L1107.56 1532.4 L1107.56 1537.93 Q1109.4 1534.69 1112.36 1533.13 Q1115.32 1531.54 1119.56 1531.54 Q1120.16 1531.54 1120.89 1531.63 Q1121.62 1531.7 1122.52 1531.85 L1122.55 1537.87 Z" fill="#000000" fill-rule="nonzero" fill-opacity="1" /><path clip-path="url(#clip430)" d="M1157.75 1548.76 L1157.75 1551.62 L1130.82 1551.62 Q1131.2 1557.67 1134.45 1560.85 Q1137.73 1564 1143.55 1564 Q1146.93 1564 1150.08 1563.17 Q1153.26 1562.35 1156.38 1560.69 L1156.38 1566.23 Q1153.23 1567.57 1149.92 1568.27 Q1146.61 1568.97 1143.2 1568.97 Q1134.67 1568.97 1129.68 1564 Q1124.71 1559.04 1124.71 1550.57 Q1124.71 1541.82 1129.42 1536.69 Q1134.16 1531.54 1142.19 1531.54 Q1149.38 1531.54 1153.55 1536.18 Q1157.75 1540.8 1157.75 1548.76 M1151.89 1547.04 Q1151.83 1542.23 1149.19 1539.37 Q1146.58 1536.5 1142.25 1536.5 Q1137.35 1536.5 1134.39 1539.27 Q1131.46 1542.04 1131.01 1547.07 L1151.89 1547.04 Z" fill="#000000" fill-rule="nonzero" fill-opacity="1" /><path clip-path="url(#clip430)" d="M1170.86 1550.25 Q1170.86 1556.71 1173.5 1560.4 Q1176.18 1564.07 1180.83 1564.07 Q1185.47 1564.07 1188.15 1560.4 Q1190.82 1556.71 1190.82 1550.25 Q1190.82 1543.79 1188.15 1540.13 Q1185.47 1536.44 1180.83 1536.44 Q1176.18 1536.44 1173.5 1540.13 Q1170.86 1543.79 1170.86 1550.25 M1190.82 1562.7 Q1188.97 1565.88 1186.14 1567.44 Q1183.34 1568.97 1179.39 1568.97 Q1172.93 1568.97 1168.86 1563.81 Q1164.82 1558.65 1164.82 1550.25 Q1164.82 1541.85 1168.86 1536.69 Q1172.93 1531.54 1179.39 1531.54 Q1183.34 1531.54 1186.14 1533.1 Q1188.97 1534.62 1190.82 1537.81 L1190.82 1532.4 L1196.68 1532.4 L1196.68 1581.6 L1190.82 1581.6 L1190.82 1562.7 Z" fill="#000000" fill-rule="nonzero" fill-opacity="1" /><path clip-path="url(#clip430)" d="M1208.13 1553.98 L1208.13 1532.4 L1213.99 1532.4 L1213.99 1553.75 Q1213.99 1558.81 1215.96 1561.36 Q1217.94 1563.87 1221.88 1563.87 Q1226.63 1563.87 1229.36 1560.85 Q1232.13 1557.83 1232.13 1552.61 L1232.13 1532.4 L1237.99 1532.4 L1237.99 1568.04 L1232.13 1568.04 L1232.13 1562.57 Q1230 1565.82 1227.17 1567.41 Q1224.37 1568.97 1220.64 1568.97 Q1214.5 1568.97 1211.32 1565.15 Q1208.13 1561.33 1208.13 1553.98 M1222.87 1531.54 L1222.87 1531.54 Z" fill="#000000" fill-rule="nonzero" fill-opacity="1" /><path clip-path="url(#clip430)" d="M1280.54 1548.76 L1280.54 1551.62 L1253.62 1551.62 Q1254 1557.67 1257.25 1560.85 Q1260.52 1564 1266.35 1564 Q1269.72 1564 1272.87 1563.17 Q1276.06 1562.35 1279.18 1560.69 L1279.18 1566.23 Q1276.02 1567.57 1272.71 1568.27 Q1269.4 1568.97 1266 1568.97 Q1257.47 1568.97 1252.47 1564 Q1247.51 1559.04 1247.51 1550.57 Q1247.51 1541.82 1252.22 1536.69 Q1256.96 1531.54 1264.98 1531.54 Q1272.17 1531.54 1276.34 1536.18 Q1280.54 1540.8 1280.54 1548.76 M1274.69 1547.04 Q1274.62 1542.23 1271.98 1539.37 Q1269.37 1536.5 1265.04 1536.5 Q1260.14 1536.5 1257.18 1539.27 Q1254.25 1542.04 1253.81 1547.07 L1274.69 1547.04 Z" fill="#000000" fill-rule="nonzero" fill-opacity="1" /><path clip-path="url(#clip430)" d="M1319.79 1546.53 L1319.79 1568.04 L1313.93 1568.04 L1313.93 1546.72 Q1313.93 1541.66 1311.96 1539.14 Q1309.99 1536.63 1306.04 1536.63 Q1301.3 1536.63 1298.56 1539.65 Q1295.82 1542.68 1295.82 1547.9 L1295.82 1568.04 L1289.93 1568.04 L1289.93 1532.4 L1295.82 1532.4 L1295.82 1537.93 Q1297.92 1534.72 1300.76 1533.13 Q1303.62 1531.54 1307.34 1531.54 Q1313.49 1531.54 1316.64 1535.36 Q1319.79 1539.14 1319.79 1546.53 Z" fill="#000000" fill-rule="nonzero" fill-opacity="1" /><path clip-path="url(#clip430)" d="M1357.12 1533.76 L1357.12 1539.24 Q1354.64 1537.87 1352.13 1537.2 Q1349.64 1536.5 1347.1 1536.5 Q1341.4 1536.5 1338.25 1540.13 Q1335.1 1543.73 1335.1 1550.25 Q1335.1 1556.78 1338.25 1560.4 Q1341.4 1564 1347.1 1564 Q1349.64 1564 1352.13 1563.33 Q1354.64 1562.63 1357.12 1561.26 L1357.12 1566.68 Q1354.67 1567.82 1352.03 1568.39 Q1349.42 1568.97 1346.46 1568.97 Q1338.41 1568.97 1333.67 1563.91 Q1328.92 1558.85 1328.92 1550.25 Q1328.92 1541.53 1333.7 1536.53 Q1338.5 1531.54 1346.84 1531.54 Q1349.55 1531.54 1352.13 1532.11 Q1354.7 1532.65 1357.12 1533.76 Z" fill="#000000" fill-rule="nonzero" fill-opacity="1" /><path clip-path="url(#clip430)" d="M1367.31 1532.4 L1373.17 1532.4 L1373.17 1568.04 L1367.31 1568.04 L1367.31 1532.4 M1367.31 1518.52 L1373.17 1518.52 L1373.17 1525.93 L1367.31 1525.93 L1367.31 1518.52 Z" fill="#000000" fill-rule="nonzero" fill-opacity="1" /><path clip-path="url(#clip430)" d="M1415.91 1548.76 L1415.91 1551.62 L1388.98 1551.62 Q1389.37 1557.67 1392.61 1560.85 Q1395.89 1564 1401.72 1564 Q1405.09 1564 1408.24 1563.17 Q1411.42 1562.35 1414.54 1560.69 L1414.54 1566.23 Q1411.39 1567.57 1408.08 1568.27 Q1404.77 1568.97 1401.37 1568.97 Q1392.84 1568.97 1387.84 1564 Q1382.87 1559.04 1382.87 1550.57 Q1382.87 1541.82 1387.58 1536.69 Q1392.33 1531.54 1400.35 1531.54 Q1407.54 1531.54 1411.71 1536.18 Q1415.91 1540.8 1415.91 1548.76 M1410.05 1547.04 Q1409.99 1542.23 1407.35 1539.37 Q1404.74 1536.5 1400.41 1536.5 Q1395.51 1536.5 1392.55 1539.27 Q1389.62 1542.04 1389.18 1547.07 L1410.05 1547.04 Z" fill="#000000" fill-rule="nonzero" fill-opacity="1" /><path clip-path="url(#clip430)" d="M1448.25 1533.45 L1448.25 1538.98 Q1445.77 1537.71 1443.09 1537.07 Q1440.42 1536.44 1437.55 1536.44 Q1433.19 1536.44 1431 1537.77 Q1428.83 1539.11 1428.83 1541.79 Q1428.83 1543.82 1430.39 1545 Q1431.95 1546.15 1436.66 1547.2 L1438.67 1547.64 Q1444.91 1548.98 1447.52 1551.43 Q1450.16 1553.85 1450.16 1558.21 Q1450.16 1563.17 1446.21 1566.07 Q1442.3 1568.97 1435.42 1568.97 Q1432.56 1568.97 1429.44 1568.39 Q1426.35 1567.85 1422.91 1566.74 L1422.91 1560.69 Q1426.16 1562.38 1429.31 1563.24 Q1432.46 1564.07 1435.55 1564.07 Q1439.69 1564.07 1441.91 1562.66 Q1444.14 1561.23 1444.14 1558.65 Q1444.14 1556.27 1442.52 1554.99 Q1440.93 1553.72 1435.49 1552.54 L1433.45 1552.07 Q1428.01 1550.92 1425.59 1548.56 Q1423.17 1546.18 1423.17 1542.04 Q1423.17 1537.01 1426.73 1534.27 Q1430.3 1531.54 1436.85 1531.54 Q1440.1 1531.54 1442.97 1532.01 Q1445.83 1532.49 1448.25 1533.45 Z" fill="#000000" fill-rule="nonzero" fill-opacity="1" /><path clip-path="url(#clip430)" d="M1479.66 1518.52 L1493.16 1518.52 L1493.16 1523.07 L1485.52 1523.07 L1485.52 1572.09 L1493.16 1572.09 L1493.16 1576.64 L1479.66 1576.64 L1479.66 1518.52 Z" fill="#000000" fill-rule="nonzero" fill-opacity="1" /><path clip-path="url(#clip430)" d="M1538.29 1561.26 L1538.29 1548.5 L1527.79 1548.5 L1527.79 1543.22 L1544.66 1543.22 L1544.66 1563.62 Q1540.93 1566.26 1536.45 1567.63 Q1531.96 1568.97 1526.87 1568.97 Q1515.73 1568.97 1509.42 1562.47 Q1503.15 1555.95 1503.15 1544.33 Q1503.15 1532.68 1509.42 1526.19 Q1515.73 1519.66 1526.87 1519.66 Q1531.51 1519.66 1535.68 1520.81 Q1539.88 1521.96 1543.42 1524.18 L1543.42 1531.03 Q1539.85 1528 1535.84 1526.48 Q1531.83 1524.95 1527.41 1524.95 Q1518.69 1524.95 1514.29 1529.82 Q1509.93 1534.69 1509.93 1544.33 Q1509.93 1553.94 1514.29 1558.81 Q1518.69 1563.68 1527.41 1563.68 Q1530.81 1563.68 1533.49 1563.11 Q1536.16 1562.51 1538.29 1561.26 Z" fill="#000000" fill-rule="nonzero" fill-opacity="1" /><path clip-path="url(#clip430)" d="M1556.4 1520.52 L1562.83 1520.52 L1562.83 1540 L1586.19 1540 L1586.19 1520.52 L1592.62 1520.52 L1592.62 1568.04 L1586.19 1568.04 L1586.19 1545.41 L1562.83 1545.41 L1562.83 1568.04 L1556.4 1568.04 L1556.4 1520.52 Z" fill="#000000" fill-rule="nonzero" fill-opacity="1" /><path clip-path="url(#clip430)" d="M1602.62 1532.4 L1630.44 1532.4 L1630.44 1537.74 L1608.41 1563.37 L1630.44 1563.37 L1630.44 1568.04 L1601.82 1568.04 L1601.82 1562.7 L1623.85 1537.07 L1602.62 1537.07 L1602.62 1532.4 Z" fill="#000000" fill-rule="nonzero" fill-opacity="1" /><path clip-path="url(#clip430)" d="M1653.07 1518.52 L1653.07 1576.64 L1639.57 1576.64 L1639.57 1572.09 L1647.18 1572.09 L1647.18 1523.07 L1639.57 1523.07 L1639.57 1518.52 L1653.07 1518.52 Z" fill="#000000" fill-rule="nonzero" fill-opacity="1" /><polyline clip-path="url(#clip430)" style="stroke:#000000; stroke-linecap:round; stroke-linejoin:round; stroke-width:4; stroke-opacity:1; fill:none" points="369.703,1423.18 369.703,47.2441 "/>
<polyline clip-path="url(#clip430)" style="stroke:#000000; stroke-linecap:round; stroke-linejoin:round; stroke-width:4; stroke-opacity:1; fill:none" points="369.703,1384.24 388.601,1384.24 "/>
<polyline clip-path="url(#clip430)" style="stroke:#000000; stroke-linecap:round; stroke-linejoin:round; stroke-width:4; stroke-opacity:1; fill:none" points="369.703,1101.67 388.601,1101.67 "/>
<polyline clip-path="url(#clip430)" style="stroke:#000000; stroke-linecap:round; stroke-linejoin:round; stroke-width:4; stroke-opacity:1; fill:none" points="369.703,819.1 388.601,819.1 "/>
<polyline clip-path="url(#clip430)" style="stroke:#000000; stroke-linecap:round; stroke-linejoin:round; stroke-width:4; stroke-opacity:1; fill:none" points="369.703,536.531 388.601,536.531 "/>
<polyline clip-path="url(#clip430)" style="stroke:#000000; stroke-linecap:round; stroke-linejoin:round; stroke-width:4; stroke-opacity:1; fill:none" points="369.703,253.961 388.601,253.961 "/>
<path clip-path="url(#clip430)" d="M321.759 1370.04 Q318.148 1370.04 316.319 1373.6 Q314.514 1377.14 314.514 1384.27 Q314.514 1391.38 316.319 1394.94 Q318.148 1398.49 321.759 1398.49 Q325.393 1398.49 327.199 1394.94 Q329.028 1391.38 329.028 1384.27 Q329.028 1377.14 327.199 1373.6 Q325.393 1370.04 321.759 1370.04 M321.759 1366.33 Q327.569 1366.33 330.625 1370.94 Q333.703 1375.52 333.703 1384.27 Q333.703 1393 330.625 1397.61 Q327.569 1402.19 321.759 1402.19 Q315.949 1402.19 312.87 1397.61 Q309.815 1393 309.815 1384.27 Q309.815 1375.52 312.87 1370.94 Q315.949 1366.33 321.759 1366.33 Z" fill="#000000" fill-rule="nonzero" fill-opacity="1" /><path clip-path="url(#clip430)" d="M117.878 1090.84 L136.235 1090.84 L136.235 1094.77 L122.161 1094.77 L122.161 1103.24 Q123.179 1102.9 124.198 1102.73 Q125.216 1102.55 126.235 1102.55 Q132.022 1102.55 135.402 1105.72 Q138.781 1108.89 138.781 1114.31 Q138.781 1119.89 135.309 1122.99 Q131.837 1126.07 125.517 1126.07 Q123.341 1126.07 121.073 1125.7 Q118.828 1125.33 116.42 1124.59 L116.42 1119.89 Q118.503 1121.02 120.726 1121.58 Q122.948 1122.13 125.425 1122.13 Q129.429 1122.13 131.767 1120.03 Q134.105 1117.92 134.105 1114.31 Q134.105 1110.7 131.767 1108.59 Q129.429 1106.48 125.425 1106.48 Q123.55 1106.48 121.675 1106.9 Q119.823 1107.32 117.878 1108.2 L117.878 1090.84 Z" fill="#000000" fill-rule="nonzero" fill-opacity="1" /><path clip-path="url(#clip430)" d="M147.994 1119.52 L152.878 1119.52 L152.878 1125.4 L147.994 1125.4 L147.994 1119.52 Z" fill="#000000" fill-rule="nonzero" fill-opacity="1" /><path clip-path="url(#clip430)" d="M173.063 1093.92 Q169.452 1093.92 167.624 1097.48 Q165.818 1101.02 165.818 1108.15 Q165.818 1115.26 167.624 1118.82 Q169.452 1122.36 173.063 1122.36 Q176.698 1122.36 178.503 1118.82 Q180.332 1115.26 180.332 1108.15 Q180.332 1101.02 178.503 1097.48 Q176.698 1093.92 173.063 1093.92 M173.063 1090.21 Q178.874 1090.21 181.929 1094.82 Q185.008 1099.4 185.008 1108.15 Q185.008 1116.88 181.929 1121.48 Q178.874 1126.07 173.063 1126.07 Q167.253 1126.07 164.175 1121.48 Q161.119 1116.88 161.119 1108.15 Q161.119 1099.4 164.175 1094.82 Q167.253 1090.21 173.063 1090.21 Z" fill="#000000" fill-rule="nonzero" fill-opacity="1" /><path clip-path="url(#clip430)" d="M203.225 1093.92 Q199.614 1093.92 197.785 1097.48 Q195.98 1101.02 195.98 1108.15 Q195.98 1115.26 197.785 1118.82 Q199.614 1122.36 203.225 1122.36 Q206.859 1122.36 208.665 1118.82 Q210.494 1115.26 210.494 1108.15 Q210.494 1101.02 208.665 1097.48 Q206.859 1093.92 203.225 1093.92 M203.225 1090.21 Q209.035 1090.21 212.091 1094.82 Q215.17 1099.4 215.17 1108.15 Q215.17 1116.88 212.091 1121.48 Q209.035 1126.07 203.225 1126.07 Q197.415 1126.07 194.336 1121.48 Q191.281 1116.88 191.281 1108.15 Q191.281 1099.4 194.336 1094.82 Q197.415 1090.21 203.225 1090.21 Z" fill="#000000" fill-rule="nonzero" fill-opacity="1" /><path clip-path="url(#clip430)" d="M251.558 1099.93 L240.98 1110.56 L251.558 1121.14 L248.804 1123.94 L238.179 1113.31 L227.554 1123.94 L224.822 1121.14 L235.378 1110.56 L224.822 1099.93 L227.554 1097.13 L238.179 1107.76 L248.804 1097.13 L251.558 1099.93 Z" fill="#000000" fill-rule="nonzero" fill-opacity="1" /><path clip-path="url(#clip430)" d="M263.919 1121.46 L271.558 1121.46 L271.558 1095.1 L263.248 1096.76 L263.248 1092.5 L271.512 1090.84 L276.188 1090.84 L276.188 1121.46 L283.827 1121.46 L283.827 1125.4 L263.919 1125.4 L263.919 1121.46 Z" fill="#000000" fill-rule="nonzero" fill-opacity="1" /><path clip-path="url(#clip430)" d="M303.271 1093.92 Q299.66 1093.92 297.831 1097.48 Q296.026 1101.02 296.026 1108.15 Q296.026 1115.26 297.831 1118.82 Q299.66 1122.36 303.271 1122.36 Q306.905 1122.36 308.711 1118.82 Q310.539 1115.26 310.539 1108.15 Q310.539 1101.02 308.711 1097.48 Q306.905 1093.92 303.271 1093.92 M303.271 1090.21 Q309.081 1090.21 312.137 1094.82 Q315.215 1099.4 315.215 1108.15 Q315.215 1116.88 312.137 1121.48 Q309.081 1126.07 303.271 1126.07 Q297.461 1126.07 294.382 1121.48 Q291.327 1116.88 291.327 1108.15 Q291.327 1099.4 294.382 1094.82 Q297.461 1090.21 303.271 1090.21 Z" fill="#000000" fill-rule="nonzero" fill-opacity="1" /><path clip-path="url(#clip430)" d="M327.911 1082.85 Q330.638 1083.43 332.161 1085.27 Q333.703 1087.12 333.703 1089.82 Q333.703 1093.98 330.845 1096.26 Q327.986 1098.53 322.72 1098.53 Q320.952 1098.53 319.071 1098.17 Q317.209 1097.84 315.215 1097.14 L315.215 1093.47 Q316.795 1094.39 318.676 1094.86 Q320.557 1095.33 322.607 1095.33 Q326.18 1095.33 328.042 1093.92 Q329.923 1092.51 329.923 1089.82 Q329.923 1087.34 328.174 1085.95 Q326.444 1084.54 323.34 1084.54 L320.068 1084.54 L320.068 1081.42 L323.491 1081.42 Q326.293 1081.42 327.779 1080.31 Q329.265 1079.18 329.265 1077.07 Q329.265 1074.91 327.723 1073.76 Q326.199 1072.6 323.34 1072.6 Q321.779 1072.6 319.993 1072.93 Q318.206 1073.27 316.062 1073.99 L316.062 1070.6 Q318.225 1070 320.105 1069.7 Q322.005 1069.4 323.679 1069.4 Q328.005 1069.4 330.525 1071.37 Q333.045 1073.33 333.045 1076.68 Q333.045 1079.01 331.71 1080.63 Q330.374 1082.23 327.911 1082.85 Z" fill="#000000" fill-rule="nonzero" fill-opacity="1" /><path clip-path="url(#clip430)" d="M116.668 838.892 L124.306 838.892 L124.306 812.527 L115.996 814.193 L115.996 809.934 L124.26 808.267 L128.936 808.267 L128.936 838.892 L136.575 838.892 L136.575 842.827 L116.668 842.827 L116.668 838.892 Z" fill="#000000" fill-rule="nonzero" fill-opacity="1" /><path clip-path="url(#clip430)" d="M146.019 836.948 L150.903 836.948 L150.903 842.827 L146.019 842.827 L146.019 836.948 Z" fill="#000000" fill-rule="nonzero" fill-opacity="1" /><path clip-path="url(#clip430)" d="M171.089 811.346 Q167.477 811.346 165.649 814.911 Q163.843 818.453 163.843 825.582 Q163.843 832.689 165.649 836.253 Q167.477 839.795 171.089 839.795 Q174.723 839.795 176.528 836.253 Q178.357 832.689 178.357 825.582 Q178.357 818.453 176.528 814.911 Q174.723 811.346 171.089 811.346 M171.089 807.642 Q176.899 807.642 179.954 812.249 Q183.033 816.832 183.033 825.582 Q183.033 834.309 179.954 838.915 Q176.899 843.499 171.089 843.499 Q165.278 843.499 162.2 838.915 Q159.144 834.309 159.144 825.582 Q159.144 816.832 162.2 812.249 Q165.278 807.642 171.089 807.642 Z" fill="#000000" fill-rule="nonzero" fill-opacity="1" /><path clip-path="url(#clip430)" d="M201.25 811.346 Q197.639 811.346 195.811 814.911 Q194.005 818.453 194.005 825.582 Q194.005 832.689 195.811 836.253 Q197.639 839.795 201.25 839.795 Q204.885 839.795 206.69 836.253 Q208.519 832.689 208.519 825.582 Q208.519 818.453 206.69 814.911 Q204.885 811.346 201.25 811.346 M201.25 807.642 Q207.061 807.642 210.116 812.249 Q213.195 816.832 213.195 825.582 Q213.195 834.309 210.116 838.915 Q207.061 843.499 201.25 843.499 Q195.44 843.499 192.362 838.915 Q189.306 834.309 189.306 825.582 Q189.306 816.832 192.362 812.249 Q195.44 807.642 201.25 807.642 Z" fill="#000000" fill-rule="nonzero" fill-opacity="1" /><path clip-path="url(#clip430)" d="M249.584 817.365 L239.005 827.99 L249.584 838.568 L246.829 841.369 L236.204 830.744 L225.579 841.369 L222.848 838.568 L233.403 827.99 L222.848 817.365 L225.579 814.564 L236.204 825.189 L246.829 814.564 L249.584 817.365 Z" fill="#000000" fill-rule="nonzero" fill-opacity="1" /><path clip-path="url(#clip430)" d="M261.945 838.892 L269.583 838.892 L269.583 812.527 L261.273 814.193 L261.273 809.934 L269.537 808.267 L274.213 808.267 L274.213 838.892 L281.852 838.892 L281.852 842.827 L261.945 842.827 L261.945 838.892 Z" fill="#000000" fill-rule="nonzero" fill-opacity="1" /><path clip-path="url(#clip430)" d="M301.296 811.346 Q297.685 811.346 295.856 814.911 Q294.051 818.453 294.051 825.582 Q294.051 832.689 295.856 836.253 Q297.685 839.795 301.296 839.795 Q304.93 839.795 306.736 836.253 Q308.565 832.689 308.565 825.582 Q308.565 818.453 306.736 814.911 Q304.93 811.346 301.296 811.346 M301.296 807.642 Q307.106 807.642 310.162 812.249 Q313.241 816.832 313.241 825.582 Q313.241 834.309 310.162 838.915 Q307.106 843.499 301.296 843.499 Q295.486 843.499 292.407 838.915 Q289.352 834.309 289.352 825.582 Q289.352 816.832 292.407 812.249 Q295.486 807.642 301.296 807.642 Z" fill="#000000" fill-rule="nonzero" fill-opacity="1" /><path clip-path="url(#clip430)" d="M325.917 790.647 L316.325 805.637 L325.917 805.637 L325.917 790.647 M324.92 787.337 L329.697 787.337 L329.697 805.637 L333.703 805.637 L333.703 808.797 L329.697 808.797 L329.697 815.417 L325.917 815.417 L325.917 808.797 L313.241 808.797 L313.241 805.129 L324.92 787.337 Z" fill="#000000" fill-rule="nonzero" fill-opacity="1" /><path clip-path="url(#clip430)" d="M116.668 556.323 L124.306 556.323 L124.306 529.957 L115.996 531.624 L115.996 527.365 L124.26 525.698 L128.936 525.698 L128.936 556.323 L136.575 556.323 L136.575 560.258 L116.668 560.258 L116.668 556.323 Z" fill="#000000" fill-rule="nonzero" fill-opacity="1" /><path clip-path="url(#clip430)" d="M146.019 554.379 L150.903 554.379 L150.903 560.258 L146.019 560.258 L146.019 554.379 Z" fill="#000000" fill-rule="nonzero" fill-opacity="1" /><path clip-path="url(#clip430)" d="M161.135 525.698 L179.491 525.698 L179.491 529.633 L165.417 529.633 L165.417 538.106 Q166.436 537.758 167.454 537.596 Q168.473 537.411 169.491 537.411 Q175.278 537.411 178.658 540.582 Q182.038 543.754 182.038 549.17 Q182.038 554.749 178.565 557.851 Q175.093 560.929 168.774 560.929 Q166.598 560.929 164.329 560.559 Q162.084 560.189 159.677 559.448 L159.677 554.749 Q161.76 555.883 163.982 556.439 Q166.204 556.994 168.681 556.994 Q172.686 556.994 175.024 554.888 Q177.362 552.781 177.362 549.17 Q177.362 545.559 175.024 543.453 Q172.686 541.346 168.681 541.346 Q166.806 541.346 164.931 541.763 Q163.079 542.18 161.135 543.059 L161.135 525.698 Z" fill="#000000" fill-rule="nonzero" fill-opacity="1" /><path clip-path="url(#clip430)" d="M201.25 528.777 Q197.639 528.777 195.811 532.342 Q194.005 535.883 194.005 543.013 Q194.005 550.119 195.811 553.684 Q197.639 557.226 201.25 557.226 Q204.885 557.226 206.69 553.684 Q208.519 550.119 208.519 543.013 Q208.519 535.883 206.69 532.342 Q204.885 528.777 201.25 528.777 M201.25 525.073 Q207.061 525.073 210.116 529.68 Q213.195 534.263 213.195 543.013 Q213.195 551.74 210.116 556.346 Q207.061 560.929 201.25 560.929 Q195.44 560.929 192.362 556.346 Q189.306 551.74 189.306 543.013 Q189.306 534.263 192.362 529.68 Q195.44 525.073 201.25 525.073 Z" fill="#000000" fill-rule="nonzero" fill-opacity="1" /><path clip-path="url(#clip430)" d="M249.584 534.795 L239.005 545.42 L249.584 555.999 L246.829 558.8 L236.204 548.175 L225.579 558.8 L222.848 555.999 L233.403 545.42 L222.848 534.795 L225.579 531.994 L236.204 542.619 L246.829 531.994 L249.584 534.795 Z" fill="#000000" fill-rule="nonzero" fill-opacity="1" /><path clip-path="url(#clip430)" d="M261.945 556.323 L269.583 556.323 L269.583 529.957 L261.273 531.624 L261.273 527.365 L269.537 525.698 L274.213 525.698 L274.213 556.323 L281.852 556.323 L281.852 560.258 L261.945 560.258 L261.945 556.323 Z" fill="#000000" fill-rule="nonzero" fill-opacity="1" /><path clip-path="url(#clip430)" d="M301.296 528.777 Q297.685 528.777 295.856 532.342 Q294.051 535.883 294.051 543.013 Q294.051 550.119 295.856 553.684 Q297.685 557.226 301.296 557.226 Q304.93 557.226 306.736 553.684 Q308.565 550.119 308.565 543.013 Q308.565 535.883 306.736 532.342 Q304.93 528.777 301.296 528.777 M301.296 525.073 Q307.106 525.073 310.162 529.68 Q313.241 534.263 313.241 543.013 Q313.241 551.74 310.162 556.346 Q307.106 560.929 301.296 560.929 Q295.486 560.929 292.407 556.346 Q289.352 551.74 289.352 543.013 Q289.352 534.263 292.407 529.68 Q295.486 525.073 301.296 525.073 Z" fill="#000000" fill-rule="nonzero" fill-opacity="1" /><path clip-path="url(#clip430)" d="M325.917 508.078 L316.325 523.068 L325.917 523.068 L325.917 508.078 M324.92 504.768 L329.697 504.768 L329.697 523.068 L333.703 523.068 L333.703 526.227 L329.697 526.227 L329.697 532.848 L325.917 532.848 L325.917 526.227 L313.241 526.227 L313.241 522.56 L324.92 504.768 Z" fill="#000000" fill-rule="nonzero" fill-opacity="1" /><path clip-path="url(#clip430)" d="M119.885 273.754 L136.204 273.754 L136.204 277.689 L114.26 277.689 L114.26 273.754 Q116.922 270.999 121.505 266.37 Q126.112 261.717 127.292 260.374 Q129.538 257.851 130.417 256.115 Q131.32 254.356 131.32 252.666 Q131.32 249.911 129.376 248.175 Q127.455 246.439 124.353 246.439 Q122.154 246.439 119.7 247.203 Q117.269 247.967 114.492 249.518 L114.492 244.796 Q117.316 243.661 119.769 243.083 Q122.223 242.504 124.26 242.504 Q129.63 242.504 132.825 245.189 Q136.019 247.874 136.019 252.365 Q136.019 254.495 135.209 256.416 Q134.422 258.314 132.316 260.907 Q131.737 261.578 128.635 264.796 Q125.533 267.99 119.885 273.754 Z" fill="#000000" fill-rule="nonzero" fill-opacity="1" /><path clip-path="url(#clip430)" d="M146.019 271.809 L150.903 271.809 L150.903 277.689 L146.019 277.689 L146.019 271.809 Z" fill="#000000" fill-rule="nonzero" fill-opacity="1" /><path clip-path="url(#clip430)" d="M171.089 246.208 Q167.477 246.208 165.649 249.772 Q163.843 253.314 163.843 260.444 Q163.843 267.55 165.649 271.115 Q167.477 274.657 171.089 274.657 Q174.723 274.657 176.528 271.115 Q178.357 267.55 178.357 260.444 Q178.357 253.314 176.528 249.772 Q174.723 246.208 171.089 246.208 M171.089 242.504 Q176.899 242.504 179.954 247.11 Q183.033 251.694 183.033 260.444 Q183.033 269.171 179.954 273.777 Q176.899 278.36 171.089 278.36 Q165.278 278.36 162.2 273.777 Q159.144 269.171 159.144 260.444 Q159.144 251.694 162.2 247.11 Q165.278 242.504 171.089 242.504 Z" fill="#000000" fill-rule="nonzero" fill-opacity="1" /><path clip-path="url(#clip430)" d="M201.25 246.208 Q197.639 246.208 195.811 249.772 Q194.005 253.314 194.005 260.444 Q194.005 267.55 195.811 271.115 Q197.639 274.657 201.25 274.657 Q204.885 274.657 206.69 271.115 Q208.519 267.55 208.519 260.444 Q208.519 253.314 206.69 249.772 Q204.885 246.208 201.25 246.208 M201.25 242.504 Q207.061 242.504 210.116 247.11 Q213.195 251.694 213.195 260.444 Q213.195 269.171 210.116 273.777 Q207.061 278.36 201.25 278.36 Q195.44 278.36 192.362 273.777 Q189.306 269.171 189.306 260.444 Q189.306 251.694 192.362 247.11 Q195.44 242.504 201.25 242.504 Z" fill="#000000" fill-rule="nonzero" fill-opacity="1" /><path clip-path="url(#clip430)" d="M249.584 252.226 L239.005 262.851 L249.584 273.43 L246.829 276.231 L236.204 265.606 L225.579 276.231 L222.848 273.43 L233.403 262.851 L222.848 252.226 L225.579 249.425 L236.204 260.05 L246.829 249.425 L249.584 252.226 Z" fill="#000000" fill-rule="nonzero" fill-opacity="1" /><path clip-path="url(#clip430)" d="M261.945 273.754 L269.583 273.754 L269.583 247.388 L261.273 249.055 L261.273 244.796 L269.537 243.129 L274.213 243.129 L274.213 273.754 L281.852 273.754 L281.852 277.689 L261.945 277.689 L261.945 273.754 Z" fill="#000000" fill-rule="nonzero" fill-opacity="1" /><path clip-path="url(#clip430)" d="M301.296 246.208 Q297.685 246.208 295.856 249.772 Q294.051 253.314 294.051 260.444 Q294.051 267.55 295.856 271.115 Q297.685 274.657 301.296 274.657 Q304.93 274.657 306.736 271.115 Q308.565 267.55 308.565 260.444 Q308.565 253.314 306.736 249.772 Q304.93 246.208 301.296 246.208 M301.296 242.504 Q307.106 242.504 310.162 247.11 Q313.241 251.694 313.241 260.444 Q313.241 269.171 310.162 273.777 Q307.106 278.36 301.296 278.36 Q295.486 278.36 292.407 273.777 Q289.352 269.171 289.352 260.444 Q289.352 251.694 292.407 247.11 Q295.486 242.504 301.296 242.504 Z" fill="#000000" fill-rule="nonzero" fill-opacity="1" /><path clip-path="url(#clip430)" d="M325.917 225.509 L316.325 240.499 L325.917 240.499 L325.917 225.509 M324.92 222.199 L329.697 222.199 L329.697 240.499 L333.703 240.499 L333.703 243.658 L329.697 243.658 L329.697 250.279 L325.917 250.279 L325.917 243.658 L313.241 243.658 L313.241 239.991 L324.92 222.199 Z" fill="#000000" fill-rule="nonzero" fill-opacity="1" /><path clip-path="url(#clip430)" d="M41.3104 969.884 L58.7206 969.884 L58.7206 959.571 Q58.7206 954.383 56.5881 951.901 Q54.4238 949.386 49.9996 949.386 Q45.5436 949.386 43.4429 951.901 Q41.3104 954.383 41.3104 959.571 L41.3104 969.884 M21.7677 969.884 L36.0905 969.884 L36.0905 960.367 Q36.0905 955.656 34.34 953.365 Q32.5576 951.041 28.9291 951.041 Q25.3325 951.041 23.5501 953.365 Q21.7677 955.656 21.7677 960.367 L21.7677 969.884 M16.4842 976.313 L16.4842 959.89 Q16.4842 952.537 19.5397 948.559 Q22.5952 944.58 28.2289 944.58 Q32.5894 944.58 35.1675 946.617 Q37.7456 948.654 38.3822 952.601 Q39.4007 947.858 42.6472 945.248 Q45.8619 942.607 50.6998 942.607 Q57.0655 942.607 60.5348 946.935 Q64.0042 951.264 64.0042 959.253 L64.0042 976.313 L16.4842 976.313 Z" fill="#000000" fill-rule="nonzero" fill-opacity="1" /><path clip-path="url(#clip430)" d="M32.4621 918.035 Q32.4621 922.746 36.1542 925.483 Q39.8145 928.22 46.212 928.22 Q52.6095 928.22 56.3017 925.515 Q59.9619 922.778 59.9619 918.035 Q59.9619 913.356 56.2698 910.619 Q52.5777 907.882 46.212 907.882 Q39.8781 907.882 36.186 910.619 Q32.4621 913.356 32.4621 918.035 M27.4968 918.035 Q27.4968 910.396 32.4621 906.036 Q37.4273 901.675 46.212 901.675 Q54.9649 901.675 59.9619 906.036 Q64.9272 910.396 64.9272 918.035 Q64.9272 925.706 59.9619 930.066 Q54.9649 934.395 46.212 934.395 Q37.4273 934.395 32.4621 930.066 Q27.4968 925.706 27.4968 918.035 Z" fill="#000000" fill-rule="nonzero" fill-opacity="1" /><path clip-path="url(#clip430)" d="M32.4621 878.154 Q32.4621 882.865 36.1542 885.602 Q39.8145 888.339 46.212 888.339 Q52.6095 888.339 56.3017 885.634 Q59.9619 882.896 59.9619 878.154 Q59.9619 873.475 56.2698 870.738 Q52.5777 868.001 46.212 868.001 Q39.8781 868.001 36.186 870.738 Q32.4621 873.475 32.4621 878.154 M27.4968 878.154 Q27.4968 870.515 32.4621 866.155 Q37.4273 861.794 46.212 861.794 Q54.9649 861.794 59.9619 866.155 Q64.9272 870.515 64.9272 878.154 Q64.9272 885.825 59.9619 890.185 Q54.9649 894.514 46.212 894.514 Q37.4273 894.514 32.4621 890.185 Q27.4968 885.825 27.4968 878.154 Z" fill="#000000" fill-rule="nonzero" fill-opacity="1" /><path clip-path="url(#clip430)" d="M29.4065 829.361 L34.9447 829.361 Q33.6716 831.843 33.035 834.517 Q32.3984 837.191 32.3984 840.055 Q32.3984 844.416 33.7352 846.612 Q35.072 848.776 37.7456 848.776 Q39.7826 848.776 40.9603 847.217 Q42.1061 845.657 43.1565 840.946 L43.6021 838.941 Q44.9389 832.703 47.3897 830.093 Q49.8086 827.451 54.1691 827.451 Q59.1344 827.451 62.0308 831.398 Q64.9272 835.313 64.9272 842.188 Q64.9272 845.052 64.3543 848.171 Q63.8132 851.259 62.6992 854.696 L56.6518 854.696 Q58.3387 851.45 59.198 848.299 Q60.0256 845.148 60.0256 842.06 Q60.0256 837.923 58.6251 835.695 Q57.1929 833.467 54.6147 833.467 Q52.2276 833.467 50.9545 835.09 Q49.6813 836.681 48.5037 842.124 L48.0262 844.161 Q46.8804 849.604 44.5251 852.023 Q42.138 854.442 38.0002 854.442 Q32.9713 854.442 30.2341 850.877 Q27.4968 847.312 27.4968 840.755 Q27.4968 837.509 27.9743 834.644 Q28.4517 831.78 29.4065 829.361 Z" fill="#000000" fill-rule="nonzero" fill-opacity="1" /><path clip-path="url(#clip430)" d="M18.2347 812.333 L28.3562 812.333 L28.3562 800.269 L32.9077 800.269 L32.9077 812.333 L52.2594 812.333 Q56.6199 812.333 57.8613 811.155 Q59.1026 809.945 59.1026 806.285 L59.1026 800.269 L64.0042 800.269 L64.0042 806.285 Q64.0042 813.065 61.4897 815.643 Q58.9434 818.221 52.2594 818.221 L32.9077 818.221 L32.9077 822.518 L28.3562 822.518 L28.3562 818.221 L18.2347 818.221 L18.2347 812.333 Z" fill="#000000" fill-rule="nonzero" fill-opacity="1" /><path clip-path="url(#clip430)" d="M16.4842 771.592 L16.4842 744.283 L21.895 744.283 L21.895 765.163 L35.8996 765.163 L35.8996 746.32 L41.3104 746.32 L41.3104 765.163 L64.0042 765.163 L64.0042 771.592 L16.4842 771.592 Z" fill="#000000" fill-rule="nonzero" fill-opacity="1" /><path clip-path="url(#clip430)" d="M46.0847 724.136 Q46.0847 731.233 47.7079 733.971 Q49.3312 736.708 53.2461 736.708 Q56.3653 736.708 58.2114 734.671 Q60.0256 732.602 60.0256 729.069 Q60.0256 724.199 56.5881 721.271 Q53.1188 718.311 47.3897 718.311 L46.0847 718.311 L46.0847 724.136 M43.6657 712.455 L64.0042 712.455 L64.0042 718.311 L58.5933 718.311 Q61.8398 720.316 63.3994 723.308 Q64.9272 726.3 64.9272 730.629 Q64.9272 736.103 61.8716 739.35 Q58.7843 742.564 53.6281 742.564 Q47.6125 742.564 44.5569 738.554 Q41.5014 734.512 41.5014 726.523 L41.5014 718.311 L40.9285 718.311 Q36.8862 718.311 34.6901 720.985 Q32.4621 723.626 32.4621 728.432 Q32.4621 731.488 33.1941 734.384 Q33.9262 737.281 35.3903 739.954 L29.9795 739.954 Q28.7381 736.74 28.1334 733.716 Q27.4968 730.692 27.4968 727.828 Q27.4968 720.093 31.5072 716.274 Q35.5176 712.455 43.6657 712.455 Z" fill="#000000" fill-rule="nonzero" fill-opacity="1" /><path clip-path="url(#clip430)" d="M29.7248 674.738 L35.1993 674.738 Q33.8307 677.22 33.1623 679.735 Q32.4621 682.217 32.4621 684.764 Q32.4621 690.461 36.0905 693.612 Q39.6872 696.763 46.212 696.763 Q52.7369 696.763 56.3653 693.612 Q59.9619 690.461 59.9619 684.764 Q59.9619 682.217 59.2935 679.735 Q58.5933 677.22 57.2247 674.738 L62.6355 674.738 Q63.7814 677.189 64.3543 679.83 Q64.9272 682.44 64.9272 685.4 Q64.9272 693.453 59.8664 698.195 Q54.8057 702.938 46.212 702.938 Q37.491 702.938 32.4939 698.164 Q27.4968 693.357 27.4968 685.018 Q27.4968 682.313 28.0697 679.735 Q28.6108 677.157 29.7248 674.738 Z" fill="#000000" fill-rule="nonzero" fill-opacity="1" /><path clip-path="url(#clip430)" d="M18.2347 658.76 L28.3562 658.76 L28.3562 646.697 L32.9077 646.697 L32.9077 658.76 L52.2594 658.76 Q56.6199 658.76 57.8613 657.582 Q59.1026 656.373 59.1026 652.712 L59.1026 646.697 L64.0042 646.697 L64.0042 652.712 Q64.0042 659.492 61.4897 662.07 Q58.9434 664.648 52.2594 664.648 L32.9077 664.648 L32.9077 668.945 L28.3562 668.945 L28.3562 664.648 L18.2347 664.648 L18.2347 658.76 Z" fill="#000000" fill-rule="nonzero" fill-opacity="1" /><path clip-path="url(#clip430)" d="M32.4621 625.181 Q32.4621 629.891 36.1542 632.629 Q39.8145 635.366 46.212 635.366 Q52.6095 635.366 56.3017 632.66 Q59.9619 629.923 59.9619 625.181 Q59.9619 620.502 56.2698 617.765 Q52.5777 615.027 46.212 615.027 Q39.8781 615.027 36.186 617.765 Q32.4621 620.502 32.4621 625.181 M27.4968 625.181 Q27.4968 617.542 32.4621 613.181 Q37.4273 608.821 46.212 608.821 Q54.9649 608.821 59.9619 613.181 Q64.9272 617.542 64.9272 625.181 Q64.9272 632.851 59.9619 637.212 Q54.9649 641.541 46.212 641.541 Q37.4273 641.541 32.4621 637.212 Q27.4968 632.851 27.4968 625.181 Z" fill="#000000" fill-rule="nonzero" fill-opacity="1" /><path clip-path="url(#clip430)" d="M33.8307 578.456 Q33.2578 579.443 33.0032 580.621 Q32.7167 581.767 32.7167 583.167 Q32.7167 588.132 35.9632 590.806 Q39.1779 593.448 45.2253 593.448 L64.0042 593.448 L64.0042 599.336 L28.3562 599.336 L28.3562 593.448 L33.8944 593.448 Q30.6479 591.602 29.0883 588.642 Q27.4968 585.682 27.4968 581.448 Q27.4968 580.844 27.5923 580.112 Q27.656 579.379 27.8151 578.488 L33.8307 578.456 Z" fill="#000000" fill-rule="nonzero" fill-opacity="1" /><path clip-path="url(#clip430)" d="M61.808 545.737 L77.5631 545.737 L77.5631 551.625 L28.579 551.625 Q14.0652 551.625 14.0652 538.066 Q14.0652 524.252 26.3192 524.252 Q35.0402 524.252 38.223 529.727 Q41.0876 520.815 49.5858 520.815 Q64.6726 520.815 64.6726 536.156 Q64.6726 542.904 61.808 545.737 M54.1691 545.737 Q59.6755 542.204 59.6755 535.934 Q59.6755 526.767 49.6813 526.767 Q40.7057 526.767 41.4059 541.535 L35.995 541.535 Q35.995 529.982 25.8099 529.982 Q18.8395 529.982 18.8395 537.429 Q18.8395 545.737 28.77 545.737 L54.1691 545.737 Z" fill="#000000" fill-rule="nonzero" fill-opacity="1" /><path clip-path="url(#clip430)" d="M39.1142 507.606 L39.1142 494.111 L42.7427 494.111 L42.7427 513.144 L39.2416 513.144 Q38.2549 512.062 36.4725 510.057 Q26.7648 499.108 23.7729 499.108 Q21.6722 499.108 20.3991 500.763 Q19.0941 502.418 19.0941 505.124 Q19.0941 506.779 19.667 508.72 Q20.2081 510.662 21.3221 512.953 L17.4072 512.953 Q16.516 510.503 16.0704 508.402 Q15.6248 506.269 15.6248 504.455 Q15.6248 499.84 17.7255 497.071 Q19.8262 494.302 23.2636 494.302 Q27.6878 494.302 36.7271 504.837 Q38.2549 506.619 39.1142 507.606 Z" fill="#000000" fill-rule="nonzero" fill-opacity="1" /><polyline clip-path="url(#clip432)" style="stroke:#009af9; stroke-linecap:round; stroke-linejoin:round; stroke-width:4; stroke-opacity:1; fill:none" points="425.828,1383.22 427.7,1383.22 429.573,1383.21 431.446,1383.21 433.318,1383.21 435.191,1383.21 437.064,1383.21 438.936,1383.21 440.809,1383.2 442.682,1383.2 444.554,1383.2 446.427,1383.2 448.3,1383.2 450.172,1383.19 452.045,1383.19 453.918,1383.19 455.79,1383.19 457.663,1383.19 459.536,1383.18 461.408,1383.18 463.281,1383.18 465.154,1383.18 467.026,1383.18 468.899,1383.17 470.772,1383.17 472.644,1383.17 474.517,1383.17 476.39,1383.17 478.263,1383.16 480.135,1383.16 482.008,1383.16 483.881,1383.16 485.753,1383.16 487.626,1383.15 489.499,1383.15 491.371,1383.15 493.244,1383.15 495.117,1383.15 496.989,1383.14 498.862,1383.14 500.735,1383.14 502.607,1383.14 504.48,1383.14 506.353,1383.13 508.225,1383.13 510.098,1383.13 511.971,1383.13 513.843,1383.12 515.716,1383.12 517.589,1383.12 519.461,1383.12 521.334,1383.12 523.207,1383.11 525.079,1383.11 526.952,1383.11 528.825,1383.11 530.697,1383.1 532.57,1383.1 534.443,1383.1 536.315,1383.1 538.188,1383.09 540.061,1383.09 541.934,1383.09 543.806,1383.09 545.679,1383.08 547.552,1383.08 549.424,1383.08 551.297,1383.08 553.17,1383.07 555.042,1383.07 556.915,1383.07 558.788,1383.07 560.66,1383.06 562.533,1383.06 564.406,1383.06 566.278,1383.06 568.151,1383.05 570.024,1383.05 571.896,1383.05 573.769,1383.05 575.642,1383.04 577.514,1383.04 579.387,1383.04 581.26,1383.04 583.132,1383.03 585.005,1383.03 586.878,1383.03 588.75,1383.02 590.623,1383.02 592.496,1383.02 594.368,1383.02 596.241,1383.01 598.114,1383.01 599.987,1383.01 601.859,1383 603.732,1383 605.605,1383 607.477,1383 609.35,1382.99 611.223,1382.99 613.095,1382.99 614.968,1382.98 616.841,1382.98 618.713,1382.98 620.586,1382.97 622.459,1382.97 624.331,1382.97 626.204,1382.96 628.077,1382.96 629.949,1382.96 631.822,1382.96 633.695,1382.95 635.567,1382.95 637.44,1382.95 639.313,1382.94 641.185,1382.94 643.058,1382.94 644.931,1382.93 646.803,1382.93 648.676,1382.93 650.549,1382.92 652.421,1382.92 654.294,1382.92 656.167,1382.91 658.039,1382.91 659.912,1382.9 661.785,1382.9 663.658,1382.9 665.53,1382.89 667.403,1382.89 669.276,1382.89 671.148,1382.88 673.021,1382.88 674.894,1382.88 676.766,1382.87 678.639,1382.87 680.512,1382.86 682.384,1382.86 684.257,1382.86 686.13,1382.85 688.002,1382.85 689.875,1382.84 691.748,1382.84 693.62,1382.84 695.493,1382.83 697.366,1382.83 699.238,1382.82 701.111,1382.82 702.984,1382.82 704.856,1382.81 706.729,1382.81 708.602,1382.8 710.474,1382.8 712.347,1382.8 714.22,1382.79 716.092,1382.79 717.965,1382.78 719.838,1382.78 721.711,1382.77 723.583,1382.77 725.456,1382.76 727.329,1382.76 729.201,1382.76 731.074,1382.75 732.947,1382.75 734.819,1382.74 736.692,1382.74 738.565,1382.73 740.437,1382.73 742.31,1382.72 744.183,1382.72 746.055,1382.71 747.928,1382.71 749.801,1382.7 751.673,1382.7 753.546,1382.69 755.419,1382.69 757.291,1382.68 759.164,1382.68 761.037,1382.67 762.909,1382.67 764.782,1382.66 766.655,1382.66 768.527,1382.65 770.4,1382.64 772.273,1382.64 774.145,1382.63 776.018,1382.63 777.891,1382.62 779.763,1382.62 781.636,1382.61 783.509,1382.61 785.382,1382.6 787.254,1382.59 789.127,1382.59 791,1382.58 792.872,1382.58 794.745,1382.57 796.618,1382.56 798.49,1382.56 800.363,1382.55 802.236,1382.55 804.108,1382.54 805.981,1382.53 807.854,1382.53 809.726,1382.52 811.599,1382.51 813.472,1382.51 815.344,1382.5 817.217,1382.49 819.09,1382.49 820.962,1382.48 822.835,1382.47 824.708,1382.47 826.58,1382.46 828.453,1382.45 830.326,1382.45 832.198,1382.44 834.071,1382.43 835.944,1382.42 837.816,1382.42 839.689,1382.41 841.562,1382.4 843.435,1382.39 845.307,1382.39 847.18,1382.38 849.053,1382.37 850.925,1382.36 852.798,1382.35 854.671,1382.35 856.543,1382.34 858.416,1382.33 860.289,1382.32 862.161,1382.31 864.034,1382.31 865.907,1382.3 867.779,1382.29 869.652,1382.28 871.525,1382.27 873.397,1382.26 875.27,1382.25 877.143,1382.24 879.015,1382.24 880.888,1382.23 882.761,1382.22 884.633,1382.21 886.506,1382.2 888.379,1382.19 890.251,1382.18 892.124,1382.17 893.997,1382.16 895.869,1382.15 897.742,1382.14 899.615,1382.13 901.487,1382.12 903.36,1382.11 905.233,1382.1 907.106,1382.09 908.978,1382.08 910.851,1382.07 912.724,1382.05 914.596,1382.04 916.469,1382.03 918.342,1382.02 920.214,1382.01 922.087,1382 923.96,1381.99 925.832,1381.98 927.705,1381.96 929.578,1381.95 931.45,1381.94 933.323,1381.93 935.196,1381.91 937.068,1381.9 938.941,1381.89 940.814,1381.88 942.686,1381.86 944.559,1381.85 946.432,1381.84 948.304,1381.82 950.177,1381.81 952.05,1381.79 953.922,1381.78 955.795,1381.77 957.668,1381.75 959.54,1381.74 961.413,1381.72 963.286,1381.71 965.159,1381.69 967.031,1381.68 968.904,1381.66 970.777,1381.65 972.649,1381.63 974.522,1381.61 976.395,1381.6 978.267,1381.58 980.14,1381.57 982.013,1381.55 983.885,1381.53 985.758,1381.51 987.631,1381.5 989.503,1381.48 991.376,1381.46 993.249,1381.44 995.121,1381.42 996.994,1381.4 998.867,1381.39 1000.74,1381.37 1002.61,1381.35 1004.48,1381.33 1006.36,1381.31 1008.23,1381.29 1010.1,1381.27 1011.98,1381.25 1013.85,1381.22 1015.72,1381.2 1017.59,1381.18 1019.47,1381.16 1021.34,1381.14 1023.21,1381.11 1025.08,1381.09 1026.96,1381.07 1028.83,1381.04 1030.7,1381.02 1032.57,1380.99 1034.45,1380.97 1036.32,1380.94 1038.19,1380.92 1040.07,1380.89 1041.94,1380.86 1043.81,1380.84 1045.68,1380.81 1047.56,1380.78 1049.43,1380.75 1051.3,1380.73 1053.17,1380.7 1055.05,1380.67 1056.92,1380.64 1058.79,1380.61 1060.67,1380.57 1062.54,1380.54 1064.41,1380.51 1066.28,1380.48 1068.16,1380.44 1070.03,1380.41 1071.9,1380.38 1073.77,1380.34 1075.65,1380.3 1077.52,1380.27 1079.39,1380.23 1081.26,1380.19 1083.14,1380.15 1085.01,1380.12 1086.88,1380.08 1088.76,1380.04 1090.63,1379.99 1092.5,1379.95 1094.37,1379.91 1096.25,1379.87 1098.12,1379.82 1099.99,1379.78 1101.86,1379.73 1103.74,1379.68 1105.61,1379.63 1107.48,1379.58 1109.35,1379.53 1111.23,1379.48 1113.1,1379.43 1114.97,1379.38 1116.85,1379.32 1118.72,1379.27 1120.59,1379.21 1122.46,1379.15 1124.34,1379.09 1126.21,1379.03 1128.08,1378.97 1129.95,1378.91 1131.83,1378.85 1133.7,1378.78 1135.57,1378.71 1137.44,1378.64 1139.32,1378.57 1141.19,1378.5 1143.06,1378.43 1144.94,1378.35 1146.81,1378.27 1148.68,1378.19 1150.55,1378.11 1152.43,1378.03 1154.3,1377.94 1156.17,1377.86 1158.04,1377.77 1159.92,1377.67 1161.79,1377.58 1163.66,1377.48 1165.53,1377.38 1167.41,1377.28 1169.28,1377.18 1171.15,1377.07 1173.03,1376.96 1174.9,1376.85 1176.77,1376.73 1178.64,1376.61 1180.52,1376.48 1182.39,1376.36 1184.26,1376.23 1186.13,1376.09 1188.01,1375.95 1189.88,1375.81 1191.75,1375.66 1193.63,1375.51 1195.5,1375.35 1197.37,1375.19 1199.24,1375.02 1201.12,1374.85 1202.99,1374.67 1204.86,1374.49 1206.73,1374.3 1208.61,1374.1 1210.48,1373.9 1212.35,1373.69 1214.22,1373.47 1216.1,1373.24 1217.97,1373.01 1219.84,1372.76 1221.72,1372.51 1223.59,1372.25 1225.46,1371.98 1227.33,1371.7 1229.21,1371.4 1231.08,1371.1 1232.95,1370.78 1234.82,1370.44 1236.7,1370.1 1238.57,1369.74 1240.44,1369.36 1242.31,1368.97 1244.19,1368.56 1246.06,1368.13 1247.93,1367.68 1249.81,1367.21 1251.68,1366.71 1253.55,1366.19 1255.42,1365.65 1257.3,1365.08 1259.17,1364.48 1261.04,1363.84 1262.91,1363.18 1264.79,1362.47 1266.66,1361.73 1268.53,1360.94 1270.4,1360.11 1272.28,1359.23 1274.15,1358.29 1276.02,1357.3 1277.9,1356.24 1279.77,1355.12 1281.64,1353.92 1283.51,1352.63 1285.39,1351.26 1287.26,1349.79 1289.13,1348.21 1291,1346.52 1292.88,1344.69 1294.75,1342.72 1296.62,1340.58 1298.49,1338.27 1300.37,1335.76 1302.24,1333.02 1304.11,1330.03 1305.99,1326.76 1307.86,1323.17 1309.73,1319.21 1311.6,1314.85 1313.48,1310 1315.35,1304.62 1317.22,1298.61 1319.09,1291.87 1320.97,1284.28 1322.84,1275.7 1324.71,1265.95 1326.59,1254.81 1328.46,1242.02 1330.33,1227.24 1332.2,1210.05 1334.08,1189.94 1335.95,1166.25 1337.82,1138.13 1339.69,1104.54 1341.57,1064.13 1343.44,1015.23 1345.31,955.764 1347.18,883.336 1349.06,795.386 1350.93,689.803 1352.8,566.239 1354.68,428.543 1356.55,288.15 1358.42,166.452 1360.29,91.5647 1362.17,86.1857 1364.04,153.202 1365.91,273.373 1367.78,417.885 1369.66,562.548 1371.53,693.435 1373.4,805.344 1375.27,898.186 1377.15,974.126 1379.02,1035.96 1380.89,1086.35 1382.77,1127.59 1384.64,1161.55 1386.51,1189.7 1388.38,1213.21 1390.26,1232.97 1392.13,1249.72 1394,1263.99 1395.87,1276.24 1397.75,1286.82 1399.62,1296 1401.49,1304.02 1403.36,1311.05 1405.24,1317.25 1407.11,1322.73 1408.98,1327.61 1410.86,1331.96 1412.73,1335.86 1414.6,1339.37 1416.47,1342.53 1418.35,1345.38 1420.22,1347.98 1422.09,1350.33 1423.96,1352.49 1425.84,1354.45 1427.71,1356.25 1429.58,1357.91 1431.46,1359.43 1433.33,1360.83 1435.2,1362.13 1437.07,1363.33 1438.95,1364.44 1440.82,1365.47 1442.69,1366.43 1444.56,1367.33 1446.44,1368.16 1448.31,1368.94 1450.18,1369.67 1452.05,1370.36 1453.93,1371 1455.8,1371.6 1457.67,1372.16 1459.55,1372.7 1461.42,1373.2 1463.29,1373.67 1465.16,1374.11 1467.04,1374.54 1468.91,1374.93 1470.78,1375.31 1472.65,1375.67 1474.53,1376.01 1476.4,1376.33 1478.27,1376.63 1480.14,1376.92 1482.02,1377.2 1483.89,1377.46 1485.76,1377.71 1487.64,1377.94 1489.51,1378.17 1491.38,1378.39 1493.25,1378.59 1495.13,1378.79 1497,1378.98 1498.87,1379.16 1500.74,1379.33 1502.62,1379.5 1504.49,1379.65 1506.36,1379.81 1508.23,1379.95 1510.11,1380.09 1511.98,1380.22 1513.85,1380.35 1515.73,1380.47 1517.6,1380.59 1519.47,1380.71 1521.34,1380.81 1523.22,1380.92 1525.09,1381.02 1526.96,1381.12 1528.83,1381.21 1530.71,1381.3 1532.58,1381.39 1534.45,1381.47 1536.32,1381.55 1538.2,1381.63 1540.07,1381.71 1541.94,1381.78 1543.82,1381.85 1545.69,1381.92 1547.56,1381.98 1549.43,1382.05 1551.31,1382.11 1553.18,1382.17 1555.05,1382.22 1556.92,1382.28 1558.8,1382.33 1560.67,1382.38 1562.54,1382.43 1564.42,1382.48 1566.29,1382.53 1568.16,1382.58 1570.03,1382.62 1571.91,1382.66 1573.78,1382.7 1575.65,1382.74 1577.52,1382.78 1579.4,1382.82 1581.27,1382.86 1583.14,1382.89 1585.01,1382.93 1586.89,1382.96 1588.76,1382.99 1590.63,1383.03 1592.51,1383.06 1594.38,1383.09 1596.25,1383.12 1598.12,1383.14 1600,1383.17 1601.87,1383.2 1603.74,1383.22 1605.61,1383.25 1607.49,1383.27 1609.36,1383.3 1611.23,1383.32 1613.1,1383.34 1614.98,1383.37 1616.85,1383.39 1618.72,1383.41 1620.6,1383.43 1622.47,1383.45 1624.34,1383.47 1626.21,1383.49 1628.09,1383.5 1629.96,1383.52 1631.83,1383.54 1633.7,1383.56 1635.58,1383.57 1637.45,1383.59 1639.32,1383.6 1641.19,1383.62 1643.07,1383.63 1644.94,1383.65 1646.81,1383.66 1648.69,1383.68 1650.56,1383.69 1652.43,1383.7 1654.3,1383.72 1656.18,1383.73 1658.05,1383.74 1659.92,1383.75 1661.79,1383.76 1663.67,1383.78 1665.54,1383.79 1667.41,1383.8 1669.29,1383.81 1671.16,1383.82 1673.03,1383.83 1674.9,1383.84 1676.78,1383.85 1678.65,1383.86 1680.52,1383.87 1682.39,1383.88 1684.27,1383.88 1686.14,1383.89 1688.01,1383.9 1689.88,1383.91 1691.76,1383.92 1693.63,1383.92 1695.5,1383.93 1697.38,1383.94 1699.25,1383.95 1701.12,1383.95 1702.99,1383.96 1704.87,1383.97 1706.74,1383.97 1708.61,1383.98 1710.48,1383.99 1712.36,1383.99 1714.23,1384 1716.1,1384 1717.97,1384.01 1719.85,1384.02 1721.72,1384.02 1723.59,1384.03 1725.47,1384.03 1727.34,1384.04 1729.21,1384.04 1731.08,1384.05 1732.96,1384.05 1734.83,1384.06 1736.7,1384.06 1738.57,1384.07 1740.45,1384.07 1742.32,1384.07 1744.19,1384.08 1746.06,1384.08 1747.94,1384.09 1749.81,1384.09 1751.68,1384.09 1753.56,1384.1 1755.43,1384.1 1757.3,1384.11 1759.17,1384.11 1761.05,1384.11 1762.92,1384.12 1764.79,1384.12 1766.66,1384.12 1768.54,1384.13 1770.41,1384.13 1772.28,1384.13 1774.15,1384.13 1776.03,1384.14 1777.9,1384.14 1779.77,1384.14 1781.65,1384.15 1783.52,1384.15 1785.39,1384.15 1787.26,1384.15 1789.14,1384.16 1791.01,1384.16 1792.88,1384.16 1794.75,1384.16 1796.63,1384.16 1798.5,1384.17 1800.37,1384.17 1802.25,1384.17 1804.12,1384.17 1805.99,1384.18 1807.86,1384.18 1809.74,1384.18 1811.61,1384.18 1813.48,1384.18 1815.35,1384.18 1817.23,1384.19 1819.1,1384.19 1820.97,1384.19 1822.84,1384.19 1824.72,1384.19 1826.59,1384.19 1828.46,1384.2 1830.34,1384.2 1832.21,1384.2 1834.08,1384.2 1835.95,1384.2 1837.83,1384.2 1839.7,1384.2 1841.57,1384.2 1843.44,1384.21 1845.32,1384.21 1847.19,1384.21 1849.06,1384.21 1850.93,1384.21 1852.81,1384.21 1854.68,1384.21 1856.55,1384.21 1858.43,1384.21 1860.3,1384.22 1862.17,1384.22 1864.04,1384.22 1865.92,1384.22 1867.79,1384.22 1869.66,1384.22 1871.53,1384.22 1873.41,1384.22 1875.28,1384.22 1877.15,1384.22 1879.02,1384.22 1880.9,1384.22 1882.77,1384.23 1884.64,1384.23 1886.52,1384.23 1888.39,1384.23 1890.26,1384.23 1892.13,1384.23 1894.01,1384.23 1895.88,1384.23 1897.75,1384.23 1899.62,1384.23 1901.5,1384.23 1903.37,1384.23 1905.24,1384.23 1907.11,1384.23 1908.99,1384.23 1910.86,1384.23 1912.73,1384.23 1914.61,1384.23 1916.48,1384.23 1918.35,1384.23 1920.22,1384.23 1922.1,1384.23 1923.97,1384.24 1925.84,1384.24 1927.71,1384.24 1929.59,1384.24 1931.46,1384.24 1933.33,1384.24 1935.21,1384.24 1937.08,1384.24 1938.95,1384.24 1940.82,1384.24 1942.7,1384.24 1944.57,1384.24 1946.44,1384.24 1948.31,1384.24 1950.19,1384.24 1952.06,1384.24 1953.93,1384.24 1955.8,1384.24 1957.68,1384.24 1959.55,1384.24 1961.42,1384.24 1963.3,1384.24 1965.17,1384.24 1967.04,1384.24 1968.91,1384.24 1970.79,1384.24 1972.66,1384.24 1974.53,1384.24 1976.4,1384.24 1978.28,1384.24 1980.15,1384.24 1982.02,1384.24 1983.89,1384.24 1985.77,1384.24 1987.64,1384.24 1989.51,1384.24 1991.39,1384.24 1993.26,1384.24 1995.13,1384.24 1997,1384.24 1998.88,1384.24 2000.75,1384.24 2002.62,1384.24 2004.49,1384.24 2006.37,1384.24 2008.24,1384.24 2010.11,1384.24 2011.98,1384.24 2013.86,1384.24 2015.73,1384.24 2017.6,1384.24 2019.48,1384.24 2021.35,1384.23 2023.22,1384.23 2025.09,1384.23 2026.97,1384.23 2028.84,1384.23 2030.71,1384.23 2032.58,1384.23 2034.46,1384.23 2036.33,1384.23 2038.2,1384.23 2040.08,1384.23 2041.95,1384.23 2043.82,1384.23 2045.69,1384.23 2047.57,1384.23 2049.44,1384.23 2051.31,1384.23 2053.18,1384.23 2055.06,1384.23 2056.93,1384.23 2058.8,1384.23 2060.67,1384.23 2062.55,1384.23 2064.42,1384.23 2066.29,1384.23 2068.17,1384.23 2070.04,1384.23 2071.91,1384.23 2073.78,1384.23 2075.66,1384.23 2077.53,1384.23 2079.4,1384.23 2081.27,1384.23 2083.15,1384.22 2085.02,1384.22 2086.89,1384.22 2088.76,1384.22 2090.64,1384.22 2092.51,1384.22 2094.38,1384.22 2096.26,1384.22 2098.13,1384.22 2100,1384.22 2101.87,1384.22 2103.75,1384.22 2105.62,1384.22 2107.49,1384.22 2109.36,1384.22 2111.24,1384.22 2113.11,1384.22 2114.98,1384.22 2116.85,1384.22 2118.73,1384.22 2120.6,1384.22 2122.47,1384.22 2124.35,1384.22 2126.22,1384.22 2128.09,1384.21 2129.96,1384.21 2131.84,1384.21 2133.71,1384.21 2135.58,1384.21 2137.45,1384.21 2139.33,1384.21 2141.2,1384.21 2143.07,1384.21 2144.94,1384.21 2146.82,1384.21 2148.69,1384.21 2150.56,1384.21 2152.44,1384.21 2154.31,1384.21 2156.18,1384.21 2158.05,1384.21 2159.93,1384.21 2161.8,1384.21 2163.67,1384.21 2165.54,1384.2 2167.42,1384.2 2169.29,1384.2 2171.16,1384.2 2173.04,1384.2 2174.91,1384.2 2176.78,1384.2 2178.65,1384.2 2180.53,1384.2 2182.4,1384.2 2184.27,1384.2 2186.14,1384.2 2188.02,1384.2 2189.89,1384.2 2191.76,1384.2 2193.63,1384.2 2195.51,1384.2 2197.38,1384.2 2199.25,1384.2 2201.13,1384.19 2203,1384.19 2204.87,1384.19 2206.74,1384.19 2208.62,1384.19 2210.49,1384.19 2212.36,1384.19 2214.23,1384.19 2216.11,1384.19 2217.98,1384.19 2219.85,1384.19 2221.72,1384.19 2223.6,1384.19 2225.47,1384.19 2227.34,1384.19 2229.22,1384.19 2231.09,1384.19 2232.96,1384.19 2234.83,1384.18 2236.71,1384.18 2238.58,1384.18 2240.45,1384.18 2242.32,1384.18 2244.2,1384.18 2246.07,1384.18 2247.94,1384.18 2249.81,1384.18 2251.69,1384.18 2253.56,1384.18 2255.43,1384.18 2257.31,1384.18 2259.18,1384.18 2261.05,1384.18 2262.92,1384.18 2264.8,1384.18 2266.67,1384.17 2268.54,1384.17 2270.41,1384.17 2272.29,1384.17 2274.16,1384.17 2276.03,1384.17 2277.91,1384.17 2279.78,1384.17 2281.65,1384.17 2283.52,1384.17 2285.4,1384.17 2287.27,1384.17 2289.14,1384.17 2291.01,1384.17 2292.89,1384.17 2294.76,1384.17 2296.63,1384.17 "/>
<polyline clip-path="url(#clip432)" style="stroke:#ff0000; stroke-linecap:round; stroke-linejoin:round; stroke-width:4; stroke-opacity:1; fill:none" points="1351.88,2799.12 1351.88,-1328.69 "/>
<polyline clip-path="url(#clip432)" style="stroke:#ff0000; stroke-linecap:round; stroke-linejoin:round; stroke-width:4; stroke-opacity:1; fill:none" points="1370.58,2799.12 1370.58,-1328.69 "/>
</svg>
