<?xml version="1.0" encoding="utf-8"?>
<svg xmlns="http://www.w3.org/2000/svg" xmlns:xlink="http://www.w3.org/1999/xlink" width="600" height="400" viewBox="0 0 2400 1600">
<defs>
  <clipPath id="clip390">
    <rect x="0" y="0" width="2400" height="1600"/>
  </clipPath>
</defs>
<path clip-path="url(#clip390)" d="M0 1600 L2400 1600 L2400 0 L0 0  Z" fill="#ffffff" fill-rule="evenodd" fill-opacity="1"/>
<defs>
  <clipPath id="clip391">
    <rect x="480" y="0" width="1681" height="1600"/>
  </clipPath>
</defs>
<path clip-path="url(#clip390)" d="M367.967 1423.18 L2352.76 1423.18 L2352.76 47.2441 L367.967 47.2441  Z" fill="#ffffff" fill-rule="evenodd" fill-opacity="1"/>
<defs>
  <clipPath id="clip392">
    <rect x="367" y="47" width="1986" height="1377"/>
  </clipPath>
</defs>
<polyline clip-path="url(#clip392)" style="stroke:#000000; stroke-linecap:round; stroke-linejoin:round; stroke-width:2; stroke-opacity:0.1; fill:none" points="611.385,1423.18 611.385,47.2441 "/>
<polyline clip-path="url(#clip392)" style="stroke:#000000; stroke-linecap:round; stroke-linejoin:round; stroke-width:2; stroke-opacity:0.1; fill:none" points="985.873,1423.18 985.873,47.2441 "/>
<polyline clip-path="url(#clip392)" style="stroke:#000000; stroke-linecap:round; stroke-linejoin:round; stroke-width:2; stroke-opacity:0.1; fill:none" points="1360.36,1423.18 1360.36,47.2441 "/>
<polyline clip-path="url(#clip392)" style="stroke:#000000; stroke-linecap:round; stroke-linejoin:round; stroke-width:2; stroke-opacity:0.1; fill:none" points="1734.85,1423.18 1734.85,47.2441 "/>
<polyline clip-path="url(#clip392)" style="stroke:#000000; stroke-linecap:round; stroke-linejoin:round; stroke-width:2; stroke-opacity:0.1; fill:none" points="2109.34,1423.18 2109.34,47.2441 "/>
<polyline clip-path="url(#clip392)" style="stroke:#000000; stroke-linecap:round; stroke-linejoin:round; stroke-width:2; stroke-opacity:0.1; fill:none" points="367.967,1384.24 2352.76,1384.24 "/>
<polyline clip-path="url(#clip392)" style="stroke:#000000; stroke-linecap:round; stroke-linejoin:round; stroke-width:2; stroke-opacity:0.1; fill:none" points="367.967,997.704 2352.76,997.704 "/>
<polyline clip-path="url(#clip392)" style="stroke:#000000; stroke-linecap:round; stroke-linejoin:round; stroke-width:2; stroke-opacity:0.1; fill:none" points="367.967,611.169 2352.76,611.169 "/>
<polyline clip-path="url(#clip392)" style="stroke:#000000; stroke-linecap:round; stroke-linejoin:round; stroke-width:2; stroke-opacity:0.1; fill:none" points="367.967,224.635 2352.76,224.635 "/>
<polyline clip-path="url(#clip390)" style="stroke:#000000; stroke-linecap:round; stroke-linejoin:round; stroke-width:4; stroke-opacity:1; fill:none" points="367.967,1423.18 2352.76,1423.18 "/>
<polyline clip-path="url(#clip390)" style="stroke:#000000; stroke-linecap:round; stroke-linejoin:round; stroke-width:4; stroke-opacity:1; fill:none" points="611.385,1423.18 611.385,1404.28 "/>
<polyline clip-path="url(#clip390)" style="stroke:#000000; stroke-linecap:round; stroke-linejoin:round; stroke-width:4; stroke-opacity:1; fill:none" points="985.873,1423.18 985.873,1404.28 "/>
<polyline clip-path="url(#clip390)" style="stroke:#000000; stroke-linecap:round; stroke-linejoin:round; stroke-width:4; stroke-opacity:1; fill:none" points="1360.36,1423.18 1360.36,1404.28 "/>
<polyline clip-path="url(#clip390)" style="stroke:#000000; stroke-linecap:round; stroke-linejoin:round; stroke-width:4; stroke-opacity:1; fill:none" points="1734.85,1423.18 1734.85,1404.28 "/>
<polyline clip-path="url(#clip390)" style="stroke:#000000; stroke-linecap:round; stroke-linejoin:round; stroke-width:4; stroke-opacity:1; fill:none" points="2109.34,1423.18 2109.34,1404.28 "/>
<path clip-path="url(#clip390)" d="M563.376 1481.64 L571.015 1481.64 L571.015 1455.28 L562.704 1456.95 L562.704 1452.69 L570.968 1451.02 L575.644 1451.02 L575.644 1481.64 L583.283 1481.64 L583.283 1485.58 L563.376 1485.58 L563.376 1481.64 Z" fill="#000000" fill-rule="nonzero" fill-opacity="1" /><path clip-path="url(#clip390)" d="M591.547 1451.02 L613.769 1451.02 L613.769 1453.01 L601.223 1485.58 L596.339 1485.58 L608.144 1454.96 L591.547 1454.96 L591.547 1451.02 Z" fill="#000000" fill-rule="nonzero" fill-opacity="1" /><path clip-path="url(#clip390)" d="M622.889 1479.7 L627.774 1479.7 L627.774 1485.58 L622.889 1485.58 L622.889 1479.7 Z" fill="#000000" fill-rule="nonzero" fill-opacity="1" /><path clip-path="url(#clip390)" d="M648.537 1466.44 Q645.389 1466.44 643.537 1468.59 Q641.709 1470.74 641.709 1474.49 Q641.709 1478.22 643.537 1480.39 Q645.389 1482.55 648.537 1482.55 Q651.686 1482.55 653.514 1480.39 Q655.366 1478.22 655.366 1474.49 Q655.366 1470.74 653.514 1468.59 Q651.686 1466.44 648.537 1466.44 M657.82 1451.78 L657.82 1456.04 Q656.06 1455.21 654.255 1454.77 Q652.473 1454.33 650.713 1454.33 Q646.084 1454.33 643.63 1457.45 Q641.199 1460.58 640.852 1466.9 Q642.218 1464.89 644.278 1463.82 Q646.338 1462.73 648.815 1462.73 Q654.023 1462.73 657.033 1465.9 Q660.065 1469.05 660.065 1474.49 Q660.065 1479.82 656.917 1483.03 Q653.769 1486.25 648.537 1486.25 Q642.542 1486.25 639.371 1481.67 Q636.199 1477.06 636.199 1468.33 Q636.199 1460.14 640.088 1455.28 Q643.977 1450.39 650.528 1450.39 Q652.287 1450.39 654.07 1450.74 Q655.875 1451.09 657.82 1451.78 Z" fill="#000000" fill-rule="nonzero" fill-opacity="1" /><path clip-path="url(#clip390)" d="M937.992 1481.64 L945.63 1481.64 L945.63 1455.28 L937.32 1456.95 L937.32 1452.69 L945.584 1451.02 L950.26 1451.02 L950.26 1481.64 L957.899 1481.64 L957.899 1485.58 L937.992 1485.58 L937.992 1481.64 Z" fill="#000000" fill-rule="nonzero" fill-opacity="1" /><path clip-path="url(#clip390)" d="M966.163 1451.02 L988.385 1451.02 L988.385 1453.01 L975.839 1485.58 L970.954 1485.58 L982.76 1454.96 L966.163 1454.96 L966.163 1451.02 Z" fill="#000000" fill-rule="nonzero" fill-opacity="1" /><path clip-path="url(#clip390)" d="M997.505 1479.7 L1002.39 1479.7 L1002.39 1485.58 L997.505 1485.58 L997.505 1479.7 Z" fill="#000000" fill-rule="nonzero" fill-opacity="1" /><path clip-path="url(#clip390)" d="M1022.57 1469.17 Q1019.24 1469.17 1017.32 1470.95 Q1015.42 1472.73 1015.42 1475.86 Q1015.42 1478.98 1017.32 1480.77 Q1019.24 1482.55 1022.57 1482.55 Q1025.91 1482.55 1027.83 1480.77 Q1029.75 1478.96 1029.75 1475.86 Q1029.75 1472.73 1027.83 1470.95 Q1025.93 1469.17 1022.57 1469.17 M1017.9 1467.18 Q1014.89 1466.44 1013.2 1464.38 Q1011.53 1462.32 1011.53 1459.35 Q1011.53 1455.21 1014.47 1452.8 Q1017.44 1450.39 1022.57 1450.39 Q1027.74 1450.39 1030.68 1452.8 Q1033.62 1455.21 1033.62 1459.35 Q1033.62 1462.32 1031.93 1464.38 Q1030.26 1466.44 1027.27 1467.18 Q1030.65 1467.96 1032.53 1470.26 Q1034.43 1472.55 1034.43 1475.86 Q1034.43 1480.88 1031.35 1483.57 Q1028.29 1486.25 1022.57 1486.25 Q1016.86 1486.25 1013.78 1483.57 Q1010.72 1480.88 1010.72 1475.86 Q1010.72 1472.55 1012.62 1470.26 Q1014.52 1467.96 1017.9 1467.18 M1016.19 1459.79 Q1016.19 1462.48 1017.85 1463.98 Q1019.54 1465.49 1022.57 1465.49 Q1025.58 1465.49 1027.27 1463.98 Q1028.99 1462.48 1028.99 1459.79 Q1028.99 1457.11 1027.27 1455.6 Q1025.58 1454.1 1022.57 1454.1 Q1019.54 1454.1 1017.85 1455.6 Q1016.19 1457.11 1016.19 1459.79 Z" fill="#000000" fill-rule="nonzero" fill-opacity="1" /><path clip-path="url(#clip390)" d="M1312.43 1481.64 L1320.07 1481.64 L1320.07 1455.28 L1311.76 1456.95 L1311.76 1452.69 L1320.03 1451.02 L1324.7 1451.02 L1324.7 1481.64 L1332.34 1481.64 L1332.34 1485.58 L1312.43 1485.58 L1312.43 1481.64 Z" fill="#000000" fill-rule="nonzero" fill-opacity="1" /><path clip-path="url(#clip390)" d="M1351.79 1469.17 Q1348.45 1469.17 1346.53 1470.95 Q1344.63 1472.73 1344.63 1475.86 Q1344.63 1478.98 1346.53 1480.77 Q1348.45 1482.55 1351.79 1482.55 Q1355.12 1482.55 1357.04 1480.77 Q1358.96 1478.96 1358.96 1475.86 Q1358.96 1472.73 1357.04 1470.95 Q1355.14 1469.17 1351.79 1469.17 M1347.11 1467.18 Q1344.1 1466.44 1342.41 1464.38 Q1340.74 1462.32 1340.74 1459.35 Q1340.74 1455.21 1343.68 1452.8 Q1346.65 1450.39 1351.79 1450.39 Q1356.95 1450.39 1359.89 1452.8 Q1362.83 1455.21 1362.83 1459.35 Q1362.83 1462.32 1361.14 1464.38 Q1359.47 1466.44 1356.48 1467.18 Q1359.86 1467.96 1361.74 1470.26 Q1363.64 1472.55 1363.64 1475.86 Q1363.64 1480.88 1360.56 1483.57 Q1357.5 1486.25 1351.79 1486.25 Q1346.07 1486.25 1342.99 1483.57 Q1339.93 1480.88 1339.93 1475.86 Q1339.93 1472.55 1341.83 1470.26 Q1343.73 1467.96 1347.11 1467.18 M1345.4 1459.79 Q1345.4 1462.48 1347.06 1463.98 Q1348.75 1465.49 1351.79 1465.49 Q1354.79 1465.49 1356.48 1463.98 Q1358.2 1462.48 1358.2 1459.79 Q1358.2 1457.11 1356.48 1455.6 Q1354.79 1454.1 1351.79 1454.1 Q1348.75 1454.1 1347.06 1455.6 Q1345.4 1457.11 1345.4 1459.79 Z" fill="#000000" fill-rule="nonzero" fill-opacity="1" /><path clip-path="url(#clip390)" d="M1371.95 1479.7 L1376.83 1479.7 L1376.83 1485.58 L1371.95 1485.58 L1371.95 1479.7 Z" fill="#000000" fill-rule="nonzero" fill-opacity="1" /><path clip-path="url(#clip390)" d="M1397.02 1454.1 Q1393.41 1454.1 1391.58 1457.66 Q1389.77 1461.2 1389.77 1468.33 Q1389.77 1475.44 1391.58 1479.01 Q1393.41 1482.55 1397.02 1482.55 Q1400.65 1482.55 1402.46 1479.01 Q1404.28 1475.44 1404.28 1468.33 Q1404.28 1461.2 1402.46 1457.66 Q1400.65 1454.1 1397.02 1454.1 M1397.02 1450.39 Q1402.83 1450.39 1405.88 1455 Q1408.96 1459.58 1408.96 1468.33 Q1408.96 1477.06 1405.88 1481.67 Q1402.83 1486.25 1397.02 1486.25 Q1391.21 1486.25 1388.13 1481.67 Q1385.07 1477.06 1385.07 1468.33 Q1385.07 1459.58 1388.13 1455 Q1391.21 1450.39 1397.02 1450.39 Z" fill="#000000" fill-rule="nonzero" fill-opacity="1" /><path clip-path="url(#clip390)" d="M1687.72 1481.64 L1695.36 1481.64 L1695.36 1455.28 L1687.05 1456.95 L1687.05 1452.69 L1695.31 1451.02 L1699.99 1451.02 L1699.99 1481.64 L1707.63 1481.64 L1707.63 1485.58 L1687.72 1485.58 L1687.72 1481.64 Z" fill="#000000" fill-rule="nonzero" fill-opacity="1" /><path clip-path="url(#clip390)" d="M1727.07 1469.17 Q1723.74 1469.17 1721.82 1470.95 Q1719.92 1472.73 1719.92 1475.86 Q1719.92 1478.98 1721.82 1480.77 Q1723.74 1482.55 1727.07 1482.55 Q1730.41 1482.55 1732.33 1480.77 Q1734.25 1478.96 1734.25 1475.86 Q1734.25 1472.73 1732.33 1470.95 Q1730.43 1469.17 1727.07 1469.17 M1722.4 1467.18 Q1719.39 1466.44 1717.7 1464.38 Q1716.03 1462.32 1716.03 1459.35 Q1716.03 1455.21 1718.97 1452.8 Q1721.93 1450.39 1727.07 1450.39 Q1732.23 1450.39 1735.17 1452.8 Q1738.11 1455.21 1738.11 1459.35 Q1738.11 1462.32 1736.42 1464.38 Q1734.76 1466.44 1731.77 1467.18 Q1735.15 1467.96 1737.03 1470.26 Q1738.92 1472.55 1738.92 1475.86 Q1738.92 1480.88 1735.85 1483.57 Q1732.79 1486.25 1727.07 1486.25 Q1721.35 1486.25 1718.28 1483.57 Q1715.22 1480.88 1715.22 1475.86 Q1715.22 1472.55 1717.12 1470.26 Q1719.02 1467.96 1722.4 1467.18 M1720.68 1459.79 Q1720.68 1462.48 1722.35 1463.98 Q1724.04 1465.49 1727.07 1465.49 Q1730.08 1465.49 1731.77 1463.98 Q1733.48 1462.48 1733.48 1459.79 Q1733.48 1457.11 1731.77 1455.6 Q1730.08 1454.1 1727.07 1454.1 Q1724.04 1454.1 1722.35 1455.6 Q1720.68 1457.11 1720.68 1459.79 Z" fill="#000000" fill-rule="nonzero" fill-opacity="1" /><path clip-path="url(#clip390)" d="M1747.23 1479.7 L1752.12 1479.7 L1752.12 1485.58 L1747.23 1485.58 L1747.23 1479.7 Z" fill="#000000" fill-rule="nonzero" fill-opacity="1" /><path clip-path="url(#clip390)" d="M1766.33 1481.64 L1782.65 1481.64 L1782.65 1485.58 L1760.71 1485.58 L1760.71 1481.64 Q1763.37 1478.89 1767.95 1474.26 Q1772.56 1469.61 1773.74 1468.27 Q1775.98 1465.74 1776.86 1464.01 Q1777.77 1462.25 1777.77 1460.56 Q1777.77 1457.8 1775.82 1456.07 Q1773.9 1454.33 1770.8 1454.33 Q1768.6 1454.33 1766.15 1455.09 Q1763.72 1455.86 1760.94 1457.41 L1760.94 1452.69 Q1763.76 1451.55 1766.22 1450.97 Q1768.67 1450.39 1770.71 1450.39 Q1776.08 1450.39 1779.27 1453.08 Q1782.47 1455.77 1782.47 1460.26 Q1782.47 1462.39 1781.66 1464.31 Q1780.87 1466.2 1778.76 1468.8 Q1778.18 1469.47 1775.08 1472.69 Q1771.98 1475.88 1766.33 1481.64 Z" fill="#000000" fill-rule="nonzero" fill-opacity="1" /><path clip-path="url(#clip390)" d="M2061.17 1481.64 L2068.81 1481.64 L2068.81 1455.28 L2060.5 1456.95 L2060.5 1452.69 L2068.76 1451.02 L2073.44 1451.02 L2073.44 1481.64 L2081.07 1481.64 L2081.07 1485.58 L2061.17 1485.58 L2061.17 1481.64 Z" fill="#000000" fill-rule="nonzero" fill-opacity="1" /><path clip-path="url(#clip390)" d="M2100.52 1469.17 Q2097.19 1469.17 2095.26 1470.95 Q2093.37 1472.73 2093.37 1475.86 Q2093.37 1478.98 2095.26 1480.77 Q2097.19 1482.55 2100.52 1482.55 Q2103.85 1482.55 2105.77 1480.77 Q2107.69 1478.96 2107.69 1475.86 Q2107.69 1472.73 2105.77 1470.95 Q2103.88 1469.17 2100.52 1469.17 M2095.84 1467.18 Q2092.83 1466.44 2091.14 1464.38 Q2089.48 1462.32 2089.48 1459.35 Q2089.48 1455.21 2092.42 1452.8 Q2095.38 1450.39 2100.52 1450.39 Q2105.68 1450.39 2108.62 1452.8 Q2111.56 1455.21 2111.56 1459.35 Q2111.56 1462.32 2109.87 1464.38 Q2108.2 1466.44 2105.22 1467.18 Q2108.6 1467.96 2110.47 1470.26 Q2112.37 1472.55 2112.37 1475.86 Q2112.37 1480.88 2109.29 1483.57 Q2106.24 1486.25 2100.52 1486.25 Q2094.8 1486.25 2091.72 1483.57 Q2088.67 1480.88 2088.67 1475.86 Q2088.67 1472.55 2090.57 1470.26 Q2092.46 1467.96 2095.84 1467.18 M2094.13 1459.79 Q2094.13 1462.48 2095.8 1463.98 Q2097.49 1465.49 2100.52 1465.49 Q2103.53 1465.49 2105.22 1463.98 Q2106.93 1462.48 2106.93 1459.79 Q2106.93 1457.11 2105.22 1455.6 Q2103.53 1454.1 2100.52 1454.1 Q2097.49 1454.1 2095.8 1455.6 Q2094.13 1457.11 2094.13 1459.79 Z" fill="#000000" fill-rule="nonzero" fill-opacity="1" /><path clip-path="url(#clip390)" d="M2120.68 1479.7 L2125.57 1479.7 L2125.57 1485.58 L2120.68 1485.58 L2120.68 1479.7 Z" fill="#000000" fill-rule="nonzero" fill-opacity="1" /><path clip-path="url(#clip390)" d="M2148.6 1455.09 L2136.79 1473.54 L2148.6 1473.54 L2148.6 1455.09 M2147.37 1451.02 L2153.25 1451.02 L2153.25 1473.54 L2158.18 1473.54 L2158.18 1477.43 L2153.25 1477.43 L2153.25 1485.58 L2148.6 1485.58 L2148.6 1477.43 L2133 1477.43 L2133 1472.92 L2147.37 1451.02 Z" fill="#000000" fill-rule="nonzero" fill-opacity="1" /><path clip-path="url(#clip390)" d="M1068.53 1520.52 L1095.83 1520.52 L1095.83 1525.93 L1074.96 1525.93 L1074.96 1539.94 L1093.8 1539.94 L1093.8 1545.35 L1074.96 1545.35 L1074.96 1568.04 L1068.53 1568.04 L1068.53 1520.52 Z" fill="#000000" fill-rule="nonzero" fill-opacity="1" /><path clip-path="url(#clip390)" d="M1121.68 1537.87 Q1120.69 1537.3 1119.52 1537.04 Q1118.37 1536.76 1116.97 1536.76 Q1112 1536.76 1109.33 1540 Q1106.69 1543.22 1106.69 1549.27 L1106.69 1568.04 L1100.8 1568.04 L1100.8 1532.4 L1106.69 1532.4 L1106.69 1537.93 Q1108.53 1534.69 1111.49 1533.13 Q1114.45 1531.54 1118.69 1531.54 Q1119.29 1531.54 1120.02 1531.63 Q1120.76 1531.7 1121.65 1531.85 L1121.68 1537.87 Z" fill="#000000" fill-rule="nonzero" fill-opacity="1" /><path clip-path="url(#clip390)" d="M1156.88 1548.76 L1156.88 1551.62 L1129.95 1551.62 Q1130.34 1557.67 1133.58 1560.85 Q1136.86 1564 1142.69 1564 Q1146.06 1564 1149.21 1563.17 Q1152.39 1562.35 1155.51 1560.69 L1155.51 1566.23 Q1152.36 1567.57 1149.05 1568.27 Q1145.74 1568.97 1142.34 1568.97 Q1133.81 1568.97 1128.81 1564 Q1123.84 1559.04 1123.84 1550.57 Q1123.84 1541.82 1128.55 1536.69 Q1133.3 1531.54 1141.32 1531.54 Q1148.51 1531.54 1152.68 1536.18 Q1156.88 1540.8 1156.88 1548.76 M1151.03 1547.04 Q1150.96 1542.23 1148.32 1539.37 Q1145.71 1536.5 1141.38 1536.5 Q1136.48 1536.5 1133.52 1539.27 Q1130.59 1542.04 1130.15 1547.07 L1151.03 1547.04 Z" fill="#000000" fill-rule="nonzero" fill-opacity="1" /><path clip-path="url(#clip390)" d="M1170 1550.25 Q1170 1556.71 1172.64 1560.4 Q1175.31 1564.07 1179.96 1564.07 Q1184.6 1564.07 1187.28 1560.4 Q1189.95 1556.71 1189.95 1550.25 Q1189.95 1543.79 1187.28 1540.13 Q1184.6 1536.44 1179.96 1536.44 Q1175.31 1536.44 1172.64 1540.13 Q1170 1543.79 1170 1550.25 M1189.95 1562.7 Q1188.11 1565.88 1185.27 1567.44 Q1182.47 1568.97 1178.53 1568.97 Q1172.06 1568.97 1167.99 1563.81 Q1163.95 1558.65 1163.95 1550.25 Q1163.95 1541.85 1167.99 1536.69 Q1172.06 1531.54 1178.53 1531.54 Q1182.47 1531.54 1185.27 1533.1 Q1188.11 1534.62 1189.95 1537.81 L1189.95 1532.4 L1195.81 1532.4 L1195.81 1581.6 L1189.95 1581.6 L1189.95 1562.7 Z" fill="#000000" fill-rule="nonzero" fill-opacity="1" /><path clip-path="url(#clip390)" d="M1207.27 1553.98 L1207.27 1532.4 L1213.12 1532.4 L1213.12 1553.75 Q1213.12 1558.81 1215.1 1561.36 Q1217.07 1563.87 1221.02 1563.87 Q1225.76 1563.87 1228.5 1560.85 Q1231.27 1557.83 1231.27 1552.61 L1231.27 1532.4 L1237.12 1532.4 L1237.12 1568.04 L1231.27 1568.04 L1231.27 1562.57 Q1229.13 1565.82 1226.3 1567.41 Q1223.5 1568.97 1219.77 1568.97 Q1213.63 1568.97 1210.45 1565.15 Q1207.27 1561.33 1207.27 1553.98 M1222 1531.54 L1222 1531.54 Z" fill="#000000" fill-rule="nonzero" fill-opacity="1" /><path clip-path="url(#clip390)" d="M1279.68 1548.76 L1279.68 1551.62 L1252.75 1551.62 Q1253.13 1557.67 1256.38 1560.85 Q1259.66 1564 1265.48 1564 Q1268.85 1564 1272.01 1563.17 Q1275.19 1562.35 1278.31 1560.69 L1278.31 1566.23 Q1275.16 1567.57 1271.85 1568.27 Q1268.54 1568.97 1265.13 1568.97 Q1256.6 1568.97 1251.6 1564 Q1246.64 1559.04 1246.64 1550.57 Q1246.64 1541.82 1251.35 1536.69 Q1256.09 1531.54 1264.11 1531.54 Q1271.31 1531.54 1275.47 1536.18 Q1279.68 1540.8 1279.68 1548.76 M1273.82 1547.04 Q1273.76 1542.23 1271.11 1539.37 Q1268.5 1536.5 1264.18 1536.5 Q1259.27 1536.5 1256.31 1539.27 Q1253.39 1542.04 1252.94 1547.07 L1273.82 1547.04 Z" fill="#000000" fill-rule="nonzero" fill-opacity="1" /><path clip-path="url(#clip390)" d="M1318.92 1546.53 L1318.92 1568.04 L1313.06 1568.04 L1313.06 1546.72 Q1313.06 1541.66 1311.09 1539.14 Q1309.12 1536.63 1305.17 1536.63 Q1300.43 1536.63 1297.69 1539.65 Q1294.95 1542.68 1294.95 1547.9 L1294.95 1568.04 L1289.07 1568.04 L1289.07 1532.4 L1294.95 1532.4 L1294.95 1537.93 Q1297.05 1534.72 1299.89 1533.13 Q1302.75 1531.54 1306.48 1531.54 Q1312.62 1531.54 1315.77 1535.36 Q1318.92 1539.14 1318.92 1546.53 Z" fill="#000000" fill-rule="nonzero" fill-opacity="1" /><path clip-path="url(#clip390)" d="M1356.26 1533.76 L1356.26 1539.24 Q1353.77 1537.87 1351.26 1537.2 Q1348.78 1536.5 1346.23 1536.5 Q1340.53 1536.5 1337.38 1540.13 Q1334.23 1543.73 1334.23 1550.25 Q1334.23 1556.78 1337.38 1560.4 Q1340.53 1564 1346.23 1564 Q1348.78 1564 1351.26 1563.33 Q1353.77 1562.63 1356.26 1561.26 L1356.26 1566.68 Q1353.8 1567.82 1351.16 1568.39 Q1348.55 1568.97 1345.59 1568.97 Q1337.54 1568.97 1332.8 1563.91 Q1328.06 1558.85 1328.06 1550.25 Q1328.06 1541.53 1332.83 1536.53 Q1337.64 1531.54 1345.98 1531.54 Q1348.68 1531.54 1351.26 1532.11 Q1353.84 1532.65 1356.26 1533.76 Z" fill="#000000" fill-rule="nonzero" fill-opacity="1" /><path clip-path="url(#clip390)" d="M1366.44 1532.4 L1372.3 1532.4 L1372.3 1568.04 L1366.44 1568.04 L1366.44 1532.4 M1366.44 1518.52 L1372.3 1518.52 L1372.3 1525.93 L1366.44 1525.93 L1366.44 1518.52 Z" fill="#000000" fill-rule="nonzero" fill-opacity="1" /><path clip-path="url(#clip390)" d="M1415.04 1548.76 L1415.04 1551.62 L1388.12 1551.62 Q1388.5 1557.67 1391.74 1560.85 Q1395.02 1564 1400.85 1564 Q1404.22 1564 1407.37 1563.17 Q1410.56 1562.35 1413.67 1560.69 L1413.67 1566.23 Q1410.52 1567.57 1407.21 1568.27 Q1403.9 1568.97 1400.5 1568.97 Q1391.97 1568.97 1386.97 1564 Q1382.01 1559.04 1382.01 1550.57 Q1382.01 1541.82 1386.72 1536.69 Q1391.46 1531.54 1399.48 1531.54 Q1406.67 1531.54 1410.84 1536.18 Q1415.04 1540.8 1415.04 1548.76 M1409.19 1547.04 Q1409.12 1542.23 1406.48 1539.37 Q1403.87 1536.5 1399.54 1536.5 Q1394.64 1536.5 1391.68 1539.27 Q1388.75 1542.04 1388.31 1547.07 L1409.19 1547.04 Z" fill="#000000" fill-rule="nonzero" fill-opacity="1" /><path clip-path="url(#clip390)" d="M1447.38 1533.45 L1447.38 1538.98 Q1444.9 1537.71 1442.22 1537.07 Q1439.55 1536.44 1436.69 1536.44 Q1432.33 1536.44 1430.13 1537.77 Q1427.97 1539.11 1427.97 1541.79 Q1427.97 1543.82 1429.53 1545 Q1431.08 1546.15 1435.8 1547.2 L1437.8 1547.64 Q1444.04 1548.98 1446.65 1551.43 Q1449.29 1553.85 1449.29 1558.21 Q1449.29 1563.17 1445.34 1566.07 Q1441.43 1568.97 1434.55 1568.97 Q1431.69 1568.97 1428.57 1568.39 Q1425.48 1567.85 1422.05 1566.74 L1422.05 1560.69 Q1425.29 1562.38 1428.44 1563.24 Q1431.59 1564.07 1434.68 1564.07 Q1438.82 1564.07 1441.05 1562.66 Q1443.27 1561.23 1443.27 1558.65 Q1443.27 1556.27 1441.65 1554.99 Q1440.06 1553.72 1434.62 1552.54 L1432.58 1552.07 Q1427.14 1550.92 1424.72 1548.56 Q1422.3 1546.18 1422.3 1542.04 Q1422.3 1537.01 1425.86 1534.27 Q1429.43 1531.54 1435.99 1531.54 Q1439.23 1531.54 1442.1 1532.01 Q1444.96 1532.49 1447.38 1533.45 Z" fill="#000000" fill-rule="nonzero" fill-opacity="1" /><path clip-path="url(#clip390)" d="M1478.8 1518.52 L1492.29 1518.52 L1492.29 1523.07 L1484.65 1523.07 L1484.65 1572.09 L1492.29 1572.09 L1492.29 1576.64 L1478.8 1576.64 L1478.8 1518.52 Z" fill="#000000" fill-rule="nonzero" fill-opacity="1" /><path clip-path="url(#clip390)" d="M1537.42 1561.26 L1537.42 1548.5 L1526.92 1548.5 L1526.92 1543.22 L1543.79 1543.22 L1543.79 1563.62 Q1540.07 1566.26 1535.58 1567.63 Q1531.09 1568.97 1526 1568.97 Q1514.86 1568.97 1508.56 1562.47 Q1502.29 1555.95 1502.29 1544.33 Q1502.29 1532.68 1508.56 1526.19 Q1514.86 1519.66 1526 1519.66 Q1530.64 1519.66 1534.81 1520.81 Q1539.02 1521.96 1542.55 1524.18 L1542.55 1531.03 Q1538.98 1528 1534.97 1526.48 Q1530.96 1524.95 1526.54 1524.95 Q1517.82 1524.95 1513.43 1529.82 Q1509.06 1534.69 1509.06 1544.33 Q1509.06 1553.94 1513.43 1558.81 Q1517.82 1563.68 1526.54 1563.68 Q1529.94 1563.68 1532.62 1563.11 Q1535.29 1562.51 1537.42 1561.26 Z" fill="#000000" fill-rule="nonzero" fill-opacity="1" /><path clip-path="url(#clip390)" d="M1555.53 1520.52 L1561.96 1520.52 L1561.96 1540 L1585.33 1540 L1585.33 1520.52 L1591.76 1520.52 L1591.76 1568.04 L1585.33 1568.04 L1585.33 1545.41 L1561.96 1545.41 L1561.96 1568.04 L1555.53 1568.04 L1555.53 1520.52 Z" fill="#000000" fill-rule="nonzero" fill-opacity="1" /><path clip-path="url(#clip390)" d="M1601.75 1532.4 L1629.57 1532.4 L1629.57 1537.74 L1607.54 1563.37 L1629.57 1563.37 L1629.57 1568.04 L1600.95 1568.04 L1600.95 1562.7 L1622.98 1537.07 L1601.75 1537.07 L1601.75 1532.4 Z" fill="#000000" fill-rule="nonzero" fill-opacity="1" /><path clip-path="url(#clip390)" d="M1652.2 1518.52 L1652.2 1576.64 L1638.7 1576.64 L1638.7 1572.09 L1646.31 1572.09 L1646.31 1523.07 L1638.7 1523.07 L1638.7 1518.52 L1652.2 1518.52 Z" fill="#000000" fill-rule="nonzero" fill-opacity="1" /><polyline clip-path="url(#clip390)" style="stroke:#000000; stroke-linecap:round; stroke-linejoin:round; stroke-width:4; stroke-opacity:1; fill:none" points="367.967,1423.18 367.967,47.2441 "/>
<polyline clip-path="url(#clip390)" style="stroke:#000000; stroke-linecap:round; stroke-linejoin:round; stroke-width:4; stroke-opacity:1; fill:none" points="367.967,1384.24 386.865,1384.24 "/>
<polyline clip-path="url(#clip390)" style="stroke:#000000; stroke-linecap:round; stroke-linejoin:round; stroke-width:4; stroke-opacity:1; fill:none" points="367.967,997.704 386.865,997.704 "/>
<polyline clip-path="url(#clip390)" style="stroke:#000000; stroke-linecap:round; stroke-linejoin:round; stroke-width:4; stroke-opacity:1; fill:none" points="367.967,611.169 386.865,611.169 "/>
<polyline clip-path="url(#clip390)" style="stroke:#000000; stroke-linecap:round; stroke-linejoin:round; stroke-width:4; stroke-opacity:1; fill:none" points="367.967,224.635 386.865,224.635 "/>
<path clip-path="url(#clip390)" d="M320.023 1370.04 Q316.412 1370.04 314.583 1373.6 Q312.778 1377.14 312.778 1384.27 Q312.778 1391.38 314.583 1394.94 Q316.412 1398.49 320.023 1398.49 Q323.657 1398.49 325.463 1394.94 Q327.291 1391.38 327.291 1384.27 Q327.291 1377.14 325.463 1373.6 Q323.657 1370.04 320.023 1370.04 M320.023 1366.33 Q325.833 1366.33 328.889 1370.94 Q331.967 1375.52 331.967 1384.27 Q331.967 1393 328.889 1397.61 Q325.833 1402.19 320.023 1402.19 Q314.213 1402.19 311.134 1397.61 Q308.079 1393 308.079 1384.27 Q308.079 1375.52 311.134 1370.94 Q314.213 1366.33 320.023 1366.33 Z" fill="#000000" fill-rule="nonzero" fill-opacity="1" /><path clip-path="url(#clip390)" d="M116.142 986.871 L134.499 986.871 L134.499 990.806 L120.425 990.806 L120.425 999.279 Q121.443 998.931 122.462 998.769 Q123.48 998.584 124.499 998.584 Q130.286 998.584 133.665 1001.76 Q137.045 1004.93 137.045 1010.34 Q137.045 1015.92 133.573 1019.02 Q130.101 1022.1 123.781 1022.1 Q121.605 1022.1 119.337 1021.73 Q117.091 1021.36 114.684 1020.62 L114.684 1015.92 Q116.767 1017.06 118.99 1017.61 Q121.212 1018.17 123.689 1018.17 Q127.693 1018.17 130.031 1016.06 Q132.369 1013.95 132.369 1010.34 Q132.369 1006.73 130.031 1004.63 Q127.693 1002.52 123.689 1002.52 Q121.814 1002.52 119.939 1002.94 Q118.087 1003.35 116.142 1004.23 L116.142 986.871 Z" fill="#000000" fill-rule="nonzero" fill-opacity="1" /><path clip-path="url(#clip390)" d="M146.258 1015.55 L151.142 1015.55 L151.142 1021.43 L146.258 1021.43 L146.258 1015.55 Z" fill="#000000" fill-rule="nonzero" fill-opacity="1" /><path clip-path="url(#clip390)" d="M171.327 989.95 Q167.716 989.95 165.887 993.515 Q164.082 997.056 164.082 1004.19 Q164.082 1011.29 165.887 1014.86 Q167.716 1018.4 171.327 1018.4 Q174.962 1018.4 176.767 1014.86 Q178.596 1011.29 178.596 1004.19 Q178.596 997.056 176.767 993.515 Q174.962 989.95 171.327 989.95 M171.327 986.246 Q177.137 986.246 180.193 990.853 Q183.272 995.436 183.272 1004.19 Q183.272 1012.91 180.193 1017.52 Q177.137 1022.1 171.327 1022.1 Q165.517 1022.1 162.438 1017.52 Q159.383 1012.91 159.383 1004.19 Q159.383 995.436 162.438 990.853 Q165.517 986.246 171.327 986.246 Z" fill="#000000" fill-rule="nonzero" fill-opacity="1" /><path clip-path="url(#clip390)" d="M201.489 989.95 Q197.878 989.95 196.049 993.515 Q194.244 997.056 194.244 1004.19 Q194.244 1011.29 196.049 1014.86 Q197.878 1018.4 201.489 1018.4 Q205.123 1018.4 206.929 1014.86 Q208.758 1011.29 208.758 1004.19 Q208.758 997.056 206.929 993.515 Q205.123 989.95 201.489 989.95 M201.489 986.246 Q207.299 986.246 210.355 990.853 Q213.434 995.436 213.434 1004.19 Q213.434 1012.91 210.355 1017.52 Q207.299 1022.1 201.489 1022.1 Q195.679 1022.1 192.6 1017.52 Q189.545 1012.91 189.545 1004.19 Q189.545 995.436 192.6 990.853 Q195.679 986.246 201.489 986.246 Z" fill="#000000" fill-rule="nonzero" fill-opacity="1" /><path clip-path="url(#clip390)" d="M249.822 995.968 L239.244 1006.59 L249.822 1017.17 L247.068 1019.97 L236.443 1009.35 L225.818 1019.97 L223.086 1017.17 L233.642 1006.59 L223.086 995.968 L225.818 993.168 L236.443 1003.79 L247.068 993.168 L249.822 995.968 Z" fill="#000000" fill-rule="nonzero" fill-opacity="1" /><path clip-path="url(#clip390)" d="M262.183 1017.5 L269.822 1017.5 L269.822 991.131 L261.512 992.797 L261.512 988.538 L269.776 986.871 L274.452 986.871 L274.452 1017.5 L282.091 1017.5 L282.091 1021.43 L262.183 1021.43 L262.183 1017.5 Z" fill="#000000" fill-rule="nonzero" fill-opacity="1" /><path clip-path="url(#clip390)" d="M301.535 989.95 Q297.924 989.95 296.095 993.515 Q294.29 997.056 294.29 1004.19 Q294.29 1011.29 296.095 1014.86 Q297.924 1018.4 301.535 1018.4 Q305.169 1018.4 306.975 1014.86 Q308.803 1011.29 308.803 1004.19 Q308.803 997.056 306.975 993.515 Q305.169 989.95 301.535 989.95 M301.535 986.246 Q307.345 986.246 310.401 990.853 Q313.479 995.436 313.479 1004.19 Q313.479 1012.91 310.401 1017.52 Q307.345 1022.1 301.535 1022.1 Q295.725 1022.1 292.646 1017.52 Q289.591 1012.91 289.591 1004.19 Q289.591 995.436 292.646 990.853 Q295.725 986.246 301.535 986.246 Z" fill="#000000" fill-rule="nonzero" fill-opacity="1" /><path clip-path="url(#clip390)" d="M326.175 978.881 Q328.902 979.464 330.425 981.307 Q331.967 983.15 331.967 985.858 Q331.967 990.015 329.109 992.291 Q326.25 994.566 320.984 994.566 Q319.216 994.566 317.335 994.209 Q315.473 993.87 313.479 993.175 L313.479 989.507 Q315.059 990.429 316.94 990.899 Q318.821 991.369 320.871 991.369 Q324.444 991.369 326.306 989.958 Q328.187 988.548 328.187 985.858 Q328.187 983.376 326.438 981.984 Q324.708 980.573 321.604 980.573 L318.332 980.573 L318.332 977.451 L321.755 977.451 Q324.557 977.451 326.043 976.342 Q327.529 975.213 327.529 973.107 Q327.529 970.944 325.986 969.796 Q324.463 968.63 321.604 968.63 Q320.043 968.63 318.256 968.969 Q316.47 969.307 314.326 970.022 L314.326 966.637 Q316.489 966.035 318.369 965.734 Q320.269 965.433 321.943 965.433 Q326.269 965.433 328.789 967.408 Q331.309 969.364 331.309 972.712 Q331.309 975.044 329.974 976.661 Q328.638 978.26 326.175 978.881 Z" fill="#000000" fill-rule="nonzero" fill-opacity="1" /><path clip-path="url(#clip390)" d="M114.931 630.962 L122.57 630.962 L122.57 604.596 L114.26 606.263 L114.26 602.003 L122.524 600.337 L127.2 600.337 L127.2 630.962 L134.839 630.962 L134.839 634.897 L114.931 634.897 L114.931 630.962 Z" fill="#000000" fill-rule="nonzero" fill-opacity="1" /><path clip-path="url(#clip390)" d="M144.283 629.017 L149.167 629.017 L149.167 634.897 L144.283 634.897 L144.283 629.017 Z" fill="#000000" fill-rule="nonzero" fill-opacity="1" /><path clip-path="url(#clip390)" d="M169.352 603.415 Q165.741 603.415 163.913 606.98 Q162.107 610.522 162.107 617.651 Q162.107 624.758 163.913 628.323 Q165.741 631.864 169.352 631.864 Q172.987 631.864 174.792 628.323 Q176.621 624.758 176.621 617.651 Q176.621 610.522 174.792 606.98 Q172.987 603.415 169.352 603.415 M169.352 599.712 Q175.163 599.712 178.218 604.318 Q181.297 608.901 181.297 617.651 Q181.297 626.378 178.218 630.985 Q175.163 635.568 169.352 635.568 Q163.542 635.568 160.464 630.985 Q157.408 626.378 157.408 617.651 Q157.408 608.901 160.464 604.318 Q163.542 599.712 169.352 599.712 Z" fill="#000000" fill-rule="nonzero" fill-opacity="1" /><path clip-path="url(#clip390)" d="M199.514 603.415 Q195.903 603.415 194.075 606.98 Q192.269 610.522 192.269 617.651 Q192.269 624.758 194.075 628.323 Q195.903 631.864 199.514 631.864 Q203.149 631.864 204.954 628.323 Q206.783 624.758 206.783 617.651 Q206.783 610.522 204.954 606.98 Q203.149 603.415 199.514 603.415 M199.514 599.712 Q205.324 599.712 208.38 604.318 Q211.459 608.901 211.459 617.651 Q211.459 626.378 208.38 630.985 Q205.324 635.568 199.514 635.568 Q193.704 635.568 190.625 630.985 Q187.57 626.378 187.57 617.651 Q187.57 608.901 190.625 604.318 Q193.704 599.712 199.514 599.712 Z" fill="#000000" fill-rule="nonzero" fill-opacity="1" /><path clip-path="url(#clip390)" d="M247.847 609.434 L237.269 620.059 L247.847 630.637 L245.093 633.438 L234.468 622.813 L223.843 633.438 L221.111 630.637 L231.667 620.059 L221.111 609.434 L223.843 606.633 L234.468 617.258 L245.093 606.633 L247.847 609.434 Z" fill="#000000" fill-rule="nonzero" fill-opacity="1" /><path clip-path="url(#clip390)" d="M260.208 630.962 L267.847 630.962 L267.847 604.596 L259.537 606.263 L259.537 602.003 L267.801 600.337 L272.477 600.337 L272.477 630.962 L280.116 630.962 L280.116 634.897 L260.208 634.897 L260.208 630.962 Z" fill="#000000" fill-rule="nonzero" fill-opacity="1" /><path clip-path="url(#clip390)" d="M299.56 603.415 Q295.949 603.415 294.12 606.98 Q292.315 610.522 292.315 617.651 Q292.315 624.758 294.12 628.323 Q295.949 631.864 299.56 631.864 Q303.194 631.864 305 628.323 Q306.829 624.758 306.829 617.651 Q306.829 610.522 305 606.98 Q303.194 603.415 299.56 603.415 M299.56 599.712 Q305.37 599.712 308.426 604.318 Q311.504 608.901 311.504 617.651 Q311.504 626.378 308.426 630.985 Q305.37 635.568 299.56 635.568 Q293.75 635.568 290.671 630.985 Q287.616 626.378 287.616 617.651 Q287.616 608.901 290.671 604.318 Q293.75 599.712 299.56 599.712 Z" fill="#000000" fill-rule="nonzero" fill-opacity="1" /><path clip-path="url(#clip390)" d="M324.181 582.716 L314.589 597.706 L324.181 597.706 L324.181 582.716 M323.184 579.406 L327.961 579.406 L327.961 597.706 L331.967 597.706 L331.967 600.866 L327.961 600.866 L327.961 607.486 L324.181 607.486 L324.181 600.866 L311.504 600.866 L311.504 597.198 L323.184 579.406 Z" fill="#000000" fill-rule="nonzero" fill-opacity="1" /><path clip-path="url(#clip390)" d="M114.931 244.427 L122.57 244.427 L122.57 218.061 L114.26 219.728 L114.26 215.469 L122.524 213.802 L127.2 213.802 L127.2 244.427 L134.839 244.427 L134.839 248.362 L114.931 248.362 L114.931 244.427 Z" fill="#000000" fill-rule="nonzero" fill-opacity="1" /><path clip-path="url(#clip390)" d="M144.283 242.483 L149.167 242.483 L149.167 248.362 L144.283 248.362 L144.283 242.483 Z" fill="#000000" fill-rule="nonzero" fill-opacity="1" /><path clip-path="url(#clip390)" d="M159.399 213.802 L177.755 213.802 L177.755 217.737 L163.681 217.737 L163.681 226.209 Q164.7 225.862 165.718 225.7 Q166.737 225.515 167.755 225.515 Q173.542 225.515 176.922 228.686 Q180.301 231.858 180.301 237.274 Q180.301 242.853 176.829 245.955 Q173.357 249.033 167.038 249.033 Q164.862 249.033 162.593 248.663 Q160.348 248.293 157.94 247.552 L157.94 242.853 Q160.024 243.987 162.246 244.543 Q164.468 245.098 166.945 245.098 Q170.95 245.098 173.288 242.992 Q175.626 240.885 175.626 237.274 Q175.626 233.663 173.288 231.557 Q170.95 229.45 166.945 229.45 Q165.07 229.45 163.195 229.867 Q161.343 230.284 159.399 231.163 L159.399 213.802 Z" fill="#000000" fill-rule="nonzero" fill-opacity="1" /><path clip-path="url(#clip390)" d="M199.514 216.881 Q195.903 216.881 194.075 220.446 Q192.269 223.987 192.269 231.117 Q192.269 238.223 194.075 241.788 Q195.903 245.33 199.514 245.33 Q203.149 245.33 204.954 241.788 Q206.783 238.223 206.783 231.117 Q206.783 223.987 204.954 220.446 Q203.149 216.881 199.514 216.881 M199.514 213.177 Q205.324 213.177 208.38 217.784 Q211.459 222.367 211.459 231.117 Q211.459 239.844 208.38 244.45 Q205.324 249.033 199.514 249.033 Q193.704 249.033 190.625 244.45 Q187.57 239.844 187.57 231.117 Q187.57 222.367 190.625 217.784 Q193.704 213.177 199.514 213.177 Z" fill="#000000" fill-rule="nonzero" fill-opacity="1" /><path clip-path="url(#clip390)" d="M247.847 222.899 L237.269 233.524 L247.847 244.103 L245.093 246.904 L234.468 236.279 L223.843 246.904 L221.111 244.103 L231.667 233.524 L221.111 222.899 L223.843 220.098 L234.468 230.723 L245.093 220.098 L247.847 222.899 Z" fill="#000000" fill-rule="nonzero" fill-opacity="1" /><path clip-path="url(#clip390)" d="M260.208 244.427 L267.847 244.427 L267.847 218.061 L259.537 219.728 L259.537 215.469 L267.801 213.802 L272.477 213.802 L272.477 244.427 L280.116 244.427 L280.116 248.362 L260.208 248.362 L260.208 244.427 Z" fill="#000000" fill-rule="nonzero" fill-opacity="1" /><path clip-path="url(#clip390)" d="M299.56 216.881 Q295.949 216.881 294.12 220.446 Q292.315 223.987 292.315 231.117 Q292.315 238.223 294.12 241.788 Q295.949 245.33 299.56 245.33 Q303.194 245.33 305 241.788 Q306.829 238.223 306.829 231.117 Q306.829 223.987 305 220.446 Q303.194 216.881 299.56 216.881 M299.56 213.177 Q305.37 213.177 308.426 217.784 Q311.504 222.367 311.504 231.117 Q311.504 239.844 308.426 244.45 Q305.37 249.033 299.56 249.033 Q293.75 249.033 290.671 244.45 Q287.616 239.844 287.616 231.117 Q287.616 222.367 290.671 217.784 Q293.75 213.177 299.56 213.177 Z" fill="#000000" fill-rule="nonzero" fill-opacity="1" /><path clip-path="url(#clip390)" d="M324.181 196.182 L314.589 211.172 L324.181 211.172 L324.181 196.182 M323.184 192.872 L327.961 192.872 L327.961 211.172 L331.967 211.172 L331.967 214.331 L327.961 214.331 L327.961 220.952 L324.181 220.952 L324.181 214.331 L311.504 214.331 L311.504 210.664 L323.184 192.872 Z" fill="#000000" fill-rule="nonzero" fill-opacity="1" /><path clip-path="url(#clip390)" d="M41.3104 969.884 L58.7206 969.884 L58.7206 959.571 Q58.7206 954.383 56.5881 951.901 Q54.4238 949.386 49.9996 949.386 Q45.5436 949.386 43.4429 951.901 Q41.3104 954.383 41.3104 959.571 L41.3104 969.884 M21.7677 969.884 L36.0905 969.884 L36.0905 960.367 Q36.0905 955.656 34.34 953.365 Q32.5576 951.041 28.9291 951.041 Q25.3325 951.041 23.5501 953.365 Q21.7677 955.656 21.7677 960.367 L21.7677 969.884 M16.4842 976.313 L16.4842 959.89 Q16.4842 952.537 19.5397 948.559 Q22.5952 944.58 28.2289 944.58 Q32.5894 944.58 35.1675 946.617 Q37.7456 948.654 38.3822 952.601 Q39.4007 947.858 42.6472 945.248 Q45.8619 942.607 50.6998 942.607 Q57.0655 942.607 60.5348 946.935 Q64.0042 951.264 64.0042 959.253 L64.0042 976.313 L16.4842 976.313 Z" fill="#000000" fill-rule="nonzero" fill-opacity="1" /><path clip-path="url(#clip390)" d="M32.4621 918.035 Q32.4621 922.746 36.1542 925.483 Q39.8145 928.22 46.212 928.22 Q52.6095 928.22 56.3017 925.515 Q59.9619 922.778 59.9619 918.035 Q59.9619 913.356 56.2698 910.619 Q52.5777 907.882 46.212 907.882 Q39.8781 907.882 36.186 910.619 Q32.4621 913.356 32.4621 918.035 M27.4968 918.035 Q27.4968 910.396 32.4621 906.036 Q37.4273 901.675 46.212 901.675 Q54.9649 901.675 59.9619 906.036 Q64.9272 910.396 64.9272 918.035 Q64.9272 925.706 59.9619 930.066 Q54.9649 934.395 46.212 934.395 Q37.4273 934.395 32.4621 930.066 Q27.4968 925.706 27.4968 918.035 Z" fill="#000000" fill-rule="nonzero" fill-opacity="1" /><path clip-path="url(#clip390)" d="M32.4621 878.154 Q32.4621 882.865 36.1542 885.602 Q39.8145 888.339 46.212 888.339 Q52.6095 888.339 56.3017 885.634 Q59.9619 882.896 59.9619 878.154 Q59.9619 873.475 56.2698 870.738 Q52.5777 868.001 46.212 868.001 Q39.8781 868.001 36.186 870.738 Q32.4621 873.475 32.4621 878.154 M27.4968 878.154 Q27.4968 870.515 32.4621 866.155 Q37.4273 861.794 46.212 861.794 Q54.9649 861.794 59.9619 866.155 Q64.9272 870.515 64.9272 878.154 Q64.9272 885.825 59.9619 890.185 Q54.9649 894.514 46.212 894.514 Q37.4273 894.514 32.4621 890.185 Q27.4968 885.825 27.4968 878.154 Z" fill="#000000" fill-rule="nonzero" fill-opacity="1" /><path clip-path="url(#clip390)" d="M29.4065 829.361 L34.9447 829.361 Q33.6716 831.843 33.035 834.517 Q32.3984 837.191 32.3984 840.055 Q32.3984 844.416 33.7352 846.612 Q35.072 848.776 37.7456 848.776 Q39.7826 848.776 40.9603 847.217 Q42.1061 845.657 43.1565 840.946 L43.6021 838.941 Q44.9389 832.703 47.3897 830.093 Q49.8086 827.451 54.1691 827.451 Q59.1344 827.451 62.0308 831.398 Q64.9272 835.313 64.9272 842.188 Q64.9272 845.052 64.3543 848.171 Q63.8132 851.259 62.6992 854.696 L56.6518 854.696 Q58.3387 851.45 59.198 848.299 Q60.0256 845.148 60.0256 842.06 Q60.0256 837.923 58.6251 835.695 Q57.1929 833.467 54.6147 833.467 Q52.2276 833.467 50.9545 835.09 Q49.6813 836.681 48.5037 842.124 L48.0262 844.161 Q46.8804 849.604 44.5251 852.023 Q42.138 854.442 38.0002 854.442 Q32.9713 854.442 30.2341 850.877 Q27.4968 847.312 27.4968 840.755 Q27.4968 837.509 27.9743 834.644 Q28.4517 831.78 29.4065 829.361 Z" fill="#000000" fill-rule="nonzero" fill-opacity="1" /><path clip-path="url(#clip390)" d="M18.2347 812.333 L28.3562 812.333 L28.3562 800.269 L32.9077 800.269 L32.9077 812.333 L52.2594 812.333 Q56.6199 812.333 57.8613 811.155 Q59.1026 809.945 59.1026 806.285 L59.1026 800.269 L64.0042 800.269 L64.0042 806.285 Q64.0042 813.065 61.4897 815.643 Q58.9434 818.221 52.2594 818.221 L32.9077 818.221 L32.9077 822.518 L28.3562 822.518 L28.3562 818.221 L18.2347 818.221 L18.2347 812.333 Z" fill="#000000" fill-rule="nonzero" fill-opacity="1" /><path clip-path="url(#clip390)" d="M16.4842 771.592 L16.4842 744.283 L21.895 744.283 L21.895 765.163 L35.8996 765.163 L35.8996 746.32 L41.3104 746.32 L41.3104 765.163 L64.0042 765.163 L64.0042 771.592 L16.4842 771.592 Z" fill="#000000" fill-rule="nonzero" fill-opacity="1" /><path clip-path="url(#clip390)" d="M46.0847 724.136 Q46.0847 731.233 47.7079 733.971 Q49.3312 736.708 53.2461 736.708 Q56.3653 736.708 58.2114 734.671 Q60.0256 732.602 60.0256 729.069 Q60.0256 724.199 56.5881 721.271 Q53.1188 718.311 47.3897 718.311 L46.0847 718.311 L46.0847 724.136 M43.6657 712.455 L64.0042 712.455 L64.0042 718.311 L58.5933 718.311 Q61.8398 720.316 63.3994 723.308 Q64.9272 726.3 64.9272 730.629 Q64.9272 736.103 61.8716 739.35 Q58.7843 742.564 53.6281 742.564 Q47.6125 742.564 44.5569 738.554 Q41.5014 734.512 41.5014 726.523 L41.5014 718.311 L40.9285 718.311 Q36.8862 718.311 34.6901 720.985 Q32.4621 723.626 32.4621 728.432 Q32.4621 731.488 33.1941 734.384 Q33.9262 737.281 35.3903 739.954 L29.9795 739.954 Q28.7381 736.74 28.1334 733.716 Q27.4968 730.692 27.4968 727.828 Q27.4968 720.093 31.5072 716.274 Q35.5176 712.455 43.6657 712.455 Z" fill="#000000" fill-rule="nonzero" fill-opacity="1" /><path clip-path="url(#clip390)" d="M29.7248 674.738 L35.1993 674.738 Q33.8307 677.22 33.1623 679.735 Q32.4621 682.217 32.4621 684.764 Q32.4621 690.461 36.0905 693.612 Q39.6872 696.763 46.212 696.763 Q52.7369 696.763 56.3653 693.612 Q59.9619 690.461 59.9619 684.764 Q59.9619 682.217 59.2935 679.735 Q58.5933 677.22 57.2247 674.738 L62.6355 674.738 Q63.7814 677.189 64.3543 679.83 Q64.9272 682.44 64.9272 685.4 Q64.9272 693.453 59.8664 698.195 Q54.8057 702.938 46.212 702.938 Q37.491 702.938 32.4939 698.164 Q27.4968 693.357 27.4968 685.018 Q27.4968 682.313 28.0697 679.735 Q28.6108 677.157 29.7248 674.738 Z" fill="#000000" fill-rule="nonzero" fill-opacity="1" /><path clip-path="url(#clip390)" d="M18.2347 658.76 L28.3562 658.76 L28.3562 646.697 L32.9077 646.697 L32.9077 658.76 L52.2594 658.76 Q56.6199 658.76 57.8613 657.582 Q59.1026 656.373 59.1026 652.712 L59.1026 646.697 L64.0042 646.697 L64.0042 652.712 Q64.0042 659.492 61.4897 662.07 Q58.9434 664.648 52.2594 664.648 L32.9077 664.648 L32.9077 668.945 L28.3562 668.945 L28.3562 664.648 L18.2347 664.648 L18.2347 658.76 Z" fill="#000000" fill-rule="nonzero" fill-opacity="1" /><path clip-path="url(#clip390)" d="M32.4621 625.181 Q32.4621 629.891 36.1542 632.629 Q39.8145 635.366 46.212 635.366 Q52.6095 635.366 56.3017 632.66 Q59.9619 629.923 59.9619 625.181 Q59.9619 620.502 56.2698 617.765 Q52.5777 615.027 46.212 615.027 Q39.8781 615.027 36.186 617.765 Q32.4621 620.502 32.4621 625.181 M27.4968 625.181 Q27.4968 617.542 32.4621 613.181 Q37.4273 608.821 46.212 608.821 Q54.9649 608.821 59.9619 613.181 Q64.9272 617.542 64.9272 625.181 Q64.9272 632.851 59.9619 637.212 Q54.9649 641.541 46.212 641.541 Q37.4273 641.541 32.4621 637.212 Q27.4968 632.851 27.4968 625.181 Z" fill="#000000" fill-rule="nonzero" fill-opacity="1" /><path clip-path="url(#clip390)" d="M33.8307 578.456 Q33.2578 579.443 33.0032 580.621 Q32.7167 581.767 32.7167 583.167 Q32.7167 588.132 35.9632 590.806 Q39.1779 593.448 45.2253 593.448 L64.0042 593.448 L64.0042 599.336 L28.3562 599.336 L28.3562 593.448 L33.8944 593.448 Q30.6479 591.602 29.0883 588.642 Q27.4968 585.682 27.4968 581.448 Q27.4968 580.844 27.5923 580.112 Q27.656 579.379 27.8151 578.488 L33.8307 578.456 Z" fill="#000000" fill-rule="nonzero" fill-opacity="1" /><path clip-path="url(#clip390)" d="M61.808 545.737 L77.5631 545.737 L77.5631 551.625 L28.579 551.625 Q14.0652 551.625 14.0652 538.066 Q14.0652 524.252 26.3192 524.252 Q35.0402 524.252 38.223 529.727 Q41.0876 520.815 49.5858 520.815 Q64.6726 520.815 64.6726 536.156 Q64.6726 542.904 61.808 545.737 M54.1691 545.737 Q59.6755 542.204 59.6755 535.934 Q59.6755 526.767 49.6813 526.767 Q40.7057 526.767 41.4059 541.535 L35.995 541.535 Q35.995 529.982 25.8099 529.982 Q18.8395 529.982 18.8395 537.429 Q18.8395 545.737 28.77 545.737 L54.1691 545.737 Z" fill="#000000" fill-rule="nonzero" fill-opacity="1" /><path clip-path="url(#clip390)" d="M39.1142 507.606 L39.1142 494.111 L42.7427 494.111 L42.7427 513.144 L39.2416 513.144 Q38.2549 512.062 36.4725 510.057 Q26.7648 499.108 23.7729 499.108 Q21.6722 499.108 20.3991 500.763 Q19.0941 502.418 19.0941 505.124 Q19.0941 506.779 19.667 508.72 Q20.2081 510.662 21.3221 512.953 L17.4072 512.953 Q16.516 510.503 16.0704 508.402 Q15.6248 506.269 15.6248 504.455 Q15.6248 499.84 17.7255 497.071 Q19.8262 494.302 23.2636 494.302 Q27.6878 494.302 36.7271 504.837 Q38.2549 506.619 39.1142 507.606 Z" fill="#000000" fill-rule="nonzero" fill-opacity="1" /><polyline clip-path="url(#clip392)" style="stroke:#009af9; stroke-linecap:round; stroke-linejoin:round; stroke-width:4; stroke-opacity:1; fill:none" points="424.141,1382.85 426.015,1382.77 427.889,1382.67 429.764,1382.57 431.638,1382.46 433.512,1382.35 435.386,1382.22 437.261,1382.08 439.135,1381.93 441.009,1381.77 442.884,1381.6 444.758,1381.41 446.632,1381.21 448.507,1380.99 450.381,1380.75 452.255,1380.5 454.13,1380.24 456.004,1379.96 457.878,1379.66 459.753,1379.36 461.627,1379.04 463.501,1378.72 465.376,1378.4 467.25,1378.09 469.124,1377.79 470.998,1377.51 472.873,1377.27 474.747,1377.07 476.621,1376.91 478.496,1376.81 480.37,1376.77 482.244,1376.79 484.119,1376.87 485.993,1377 487.867,1377.18 489.742,1377.39 491.616,1377.64 493.49,1377.91 495.365,1378.2 497.239,1378.49 499.113,1378.79 500.988,1379.08 502.862,1379.36 504.736,1379.64 506.611,1379.9 508.485,1380.15 510.359,1380.39 512.233,1380.61 514.108,1380.82 515.982,1381.02 517.856,1381.2 519.731,1381.37 521.605,1381.53 523.479,1381.68 525.354,1381.82 527.228,1381.95 529.102,1382.07 530.977,1382.18 532.851,1382.29 534.725,1382.38 536.6,1382.48 538.474,1382.56 540.348,1382.64 542.223,1382.72 544.097,1382.79 545.971,1382.85 547.845,1382.91 549.72,1382.97 551.594,1383.03 553.468,1383.08 555.343,1383.13 557.217,1383.17 559.091,1383.22 560.966,1383.26 562.84,1383.3 564.714,1383.33 566.589,1383.37 568.463,1383.4 570.337,1383.43 572.212,1383.46 574.086,1383.49 575.96,1383.52 577.835,1383.54 579.709,1383.57 581.583,1383.59 583.457,1383.61 585.332,1383.63 587.206,1383.65 589.08,1383.67 590.955,1383.69 592.829,1383.71 594.703,1383.73 596.578,1383.74 598.452,1383.76 600.326,1383.77 602.201,1383.79 604.075,1383.8 605.949,1383.81 607.824,1383.83 609.698,1383.84 611.572,1383.85 613.447,1383.86 615.321,1383.87 617.195,1383.88 619.069,1383.9 620.944,1383.91 622.818,1383.91 624.692,1383.92 626.567,1383.93 628.441,1383.94 630.315,1383.95 632.19,1383.96 634.064,1383.97 635.938,1383.97 637.813,1383.98 639.687,1383.99 641.561,1384 643.436,1384 645.31,1384.01 647.184,1384.01 649.059,1384.02 650.933,1384.03 652.807,1384.03 654.682,1384.04 656.556,1384.04 658.43,1384.05 660.304,1384.05 662.179,1384.06 664.053,1384.06 665.927,1384.07 667.802,1384.07 669.676,1384.08 671.55,1384.08 673.425,1384.09 675.299,1384.09 677.173,1384.1 679.048,1384.1 680.922,1384.1 682.796,1384.11 684.671,1384.11 686.545,1384.11 688.419,1384.12 690.294,1384.12 692.168,1384.12 694.042,1384.13 695.916,1384.13 697.791,1384.13 699.665,1384.14 701.539,1384.14 703.414,1384.14 705.288,1384.15 707.162,1384.15 709.037,1384.15 710.911,1384.15 712.785,1384.16 714.66,1384.16 716.534,1384.16 718.408,1384.16 720.283,1384.17 722.157,1384.17 724.031,1384.17 725.906,1384.17 727.78,1384.18 729.654,1384.18 731.528,1384.18 733.403,1384.18 735.277,1384.18 737.151,1384.19 739.026,1384.19 740.9,1384.19 742.774,1384.19 744.649,1384.19 746.523,1384.19 748.397,1384.2 750.272,1384.2 752.146,1384.2 754.02,1384.2 755.895,1384.2 757.769,1384.2 759.643,1384.21 761.518,1384.21 763.392,1384.21 765.266,1384.21 767.14,1384.21 769.015,1384.21 770.889,1384.21 772.763,1384.21 774.638,1384.22 776.512,1384.22 778.386,1384.22 780.261,1384.22 782.135,1384.22 784.009,1384.22 785.884,1384.22 787.758,1384.22 789.632,1384.22 791.507,1384.22 793.381,1384.23 795.255,1384.23 797.13,1384.23 799.004,1384.23 800.878,1384.23 802.752,1384.23 804.627,1384.23 806.501,1384.23 808.375,1384.23 810.25,1384.23 812.124,1384.23 813.998,1384.23 815.873,1384.23 817.747,1384.23 819.621,1384.23 821.496,1384.24 823.37,1384.24 825.244,1384.24 827.119,1384.24 828.993,1384.24 830.867,1384.24 832.742,1384.24 834.616,1384.24 836.49,1384.24 838.365,1384.24 840.239,1384.24 842.113,1384.24 843.987,1384.24 845.862,1384.24 847.736,1384.24 849.61,1384.24 851.485,1384.24 853.359,1384.24 855.233,1384.24 857.108,1384.24 858.982,1384.24 860.856,1384.24 862.731,1384.24 864.605,1384.24 866.479,1384.24 868.354,1384.24 870.228,1384.24 872.102,1384.24 873.977,1384.24 875.851,1384.24 877.725,1384.23 879.599,1384.23 881.474,1384.23 883.348,1384.23 885.222,1384.23 887.097,1384.23 888.971,1384.23 890.845,1384.23 892.72,1384.23 894.594,1384.23 896.468,1384.23 898.343,1384.23 900.217,1384.23 902.091,1384.23 903.966,1384.22 905.84,1384.22 907.714,1384.22 909.589,1384.22 911.463,1384.22 913.337,1384.22 915.211,1384.22 917.086,1384.22 918.96,1384.22 920.834,1384.21 922.709,1384.21 924.583,1384.21 926.457,1384.21 928.332,1384.21 930.206,1384.21 932.08,1384.2 933.955,1384.2 935.829,1384.2 937.703,1384.2 939.578,1384.2 941.452,1384.2 943.326,1384.19 945.201,1384.19 947.075,1384.19 948.949,1384.19 950.823,1384.19 952.698,1384.18 954.572,1384.18 956.446,1384.18 958.321,1384.18 960.195,1384.17 962.069,1384.17 963.944,1384.17 965.818,1384.16 967.692,1384.16 969.567,1384.16 971.441,1384.16 973.315,1384.15 975.19,1384.15 977.064,1384.15 978.938,1384.14 980.813,1384.14 982.687,1384.14 984.561,1384.13 986.435,1384.13 988.31,1384.13 990.184,1384.12 992.058,1384.12 993.933,1384.11 995.807,1384.11 997.681,1384.11 999.556,1384.1 1001.43,1384.1 1003.3,1384.09 1005.18,1384.09 1007.05,1384.08 1008.93,1384.08 1010.8,1384.07 1012.68,1384.07 1014.55,1384.06 1016.42,1384.06 1018.3,1384.05 1020.17,1384.05 1022.05,1384.04 1023.92,1384.03 1025.8,1384.03 1027.67,1384.02 1029.54,1384.01 1031.42,1384.01 1033.29,1384 1035.17,1383.99 1037.04,1383.99 1038.92,1383.98 1040.79,1383.97 1042.66,1383.97 1044.54,1383.96 1046.41,1383.95 1048.29,1383.94 1050.16,1383.93 1052.04,1383.92 1053.91,1383.92 1055.79,1383.91 1057.66,1383.9 1059.53,1383.89 1061.41,1383.88 1063.28,1383.87 1065.16,1383.86 1067.03,1383.85 1068.91,1383.84 1070.78,1383.82 1072.65,1383.81 1074.53,1383.8 1076.4,1383.79 1078.28,1383.78 1080.15,1383.76 1082.03,1383.75 1083.9,1383.74 1085.77,1383.72 1087.65,1383.71 1089.52,1383.7 1091.4,1383.68 1093.27,1383.67 1095.15,1383.65 1097.02,1383.63 1098.89,1383.62 1100.77,1383.6 1102.64,1383.58 1104.52,1383.57 1106.39,1383.55 1108.27,1383.53 1110.14,1383.51 1112.01,1383.49 1113.89,1383.47 1115.76,1383.45 1117.64,1383.43 1119.51,1383.4 1121.39,1383.38 1123.26,1383.36 1125.13,1383.33 1127.01,1383.31 1128.88,1383.28 1130.76,1383.26 1132.63,1383.23 1134.51,1383.2 1136.38,1383.17 1138.26,1383.14 1140.13,1383.11 1142,1383.08 1143.88,1383.05 1145.75,1383.02 1147.63,1382.98 1149.5,1382.94 1151.38,1382.91 1153.25,1382.87 1155.12,1382.83 1157,1382.79 1158.87,1382.75 1160.75,1382.71 1162.62,1382.66 1164.5,1382.61 1166.37,1382.57 1168.24,1382.52 1170.12,1382.47 1171.99,1382.41 1173.87,1382.36 1175.74,1382.3 1177.62,1382.25 1179.49,1382.18 1181.36,1382.12 1183.24,1382.06 1185.11,1381.99 1186.99,1381.92 1188.86,1381.85 1190.74,1381.77 1192.61,1381.7 1194.48,1381.61 1196.36,1381.53 1198.23,1381.44 1200.11,1381.35 1201.98,1381.26 1203.86,1381.16 1205.73,1381.06 1207.6,1380.95 1209.48,1380.84 1211.35,1380.73 1213.23,1380.61 1215.1,1380.48 1216.98,1380.35 1218.85,1380.21 1220.73,1380.07 1222.6,1379.92 1224.47,1379.77 1226.35,1379.6 1228.22,1379.43 1230.1,1379.26 1231.97,1379.07 1233.85,1378.87 1235.72,1378.67 1237.59,1378.45 1239.47,1378.23 1241.34,1377.99 1243.22,1377.74 1245.09,1377.47 1246.97,1377.2 1248.84,1376.9 1250.71,1376.6 1252.59,1376.27 1254.46,1375.92 1256.34,1375.56 1258.21,1375.17 1260.09,1374.77 1261.96,1374.33 1263.83,1373.87 1265.71,1373.38 1267.58,1372.86 1269.46,1372.31 1271.33,1371.71 1273.21,1371.08 1275.08,1370.4 1276.95,1369.68 1278.83,1368.9 1280.7,1368.07 1282.58,1367.17 1284.45,1366.21 1286.33,1365.17 1288.2,1364.04 1290.07,1362.82 1291.95,1361.5 1293.82,1360.06 1295.7,1358.49 1297.57,1356.78 1299.45,1354.91 1301.32,1352.86 1303.19,1350.6 1305.07,1348.11 1306.94,1345.35 1308.82,1342.29 1310.69,1338.88 1312.57,1335.08 1314.44,1330.81 1316.32,1326 1318.19,1320.56 1320.06,1314.38 1321.94,1307.32 1323.81,1299.22 1325.69,1289.88 1327.56,1279.03 1329.44,1266.34 1331.31,1251.42 1333.18,1233.73 1335.06,1212.6 1336.93,1187.15 1338.81,1156.25 1340.68,1118.42 1342.56,1071.74 1344.43,1013.76 1346.3,941.473 1348.18,851.446 1350.05,740.441 1351.93,607.031 1353.8,454.892 1355.68,297.761 1357.55,162.998 1359.42,86.1857 1361.3,92.4443 1363.17,178.156 1365.05,314.189 1366.92,466.355 1368.8,610.875 1370.67,736.767 1372.54,841.612 1374.42,927.096 1376.29,996.268 1378.17,1052.25 1380.04,1097.76 1381.92,1135 1383.79,1165.72 1385.66,1191.26 1387.54,1212.67 1389.41,1230.75 1391.29,1246.15 1393.16,1259.35 1395.04,1270.74 1396.91,1280.63 1398.79,1289.27 1400.66,1296.86 1402.53,1303.55 1404.41,1309.5 1406.28,1314.79 1408.16,1319.53 1410.03,1323.78 1411.91,1327.61 1413.78,1331.08 1415.65,1334.23 1417.53,1337.09 1419.4,1339.71 1421.28,1342.1 1423.15,1344.3 1425.03,1346.32 1426.9,1348.18 1428.77,1349.91 1430.65,1351.5 1432.52,1352.98 1434.4,1354.36 1436.27,1355.64 1438.15,1356.84 1440.02,1357.95 1441.89,1359 1443.77,1359.98 1445.64,1360.9 1447.52,1361.76 1449.39,1362.58 1451.27,1363.35 1453.14,1364.07 1455.01,1364.75 1456.89,1365.4 1458.76,1366.01 1460.64,1366.59 1462.51,1367.14 1464.39,1367.67 1466.26,1368.17 1468.13,1368.64 1470.01,1369.09 1471.88,1369.52 1473.76,1369.93 1475.63,1370.32 1477.51,1370.69 1479.38,1371.05 1481.26,1371.39 1483.13,1371.72 1485,1372.03 1486.88,1372.33 1488.75,1372.62 1490.63,1372.9 1492.5,1373.16 1494.38,1373.42 1496.25,1373.66 1498.12,1373.9 1500,1374.13 1501.87,1374.35 1503.75,1374.56 1505.62,1374.76 1507.5,1374.96 1509.37,1375.15 1511.24,1375.33 1513.12,1375.51 1514.99,1375.68 1516.87,1375.85 1518.74,1376.01 1520.62,1376.16 1522.49,1376.31 1524.36,1376.45 1526.24,1376.6 1528.11,1376.73 1529.99,1376.86 1531.86,1376.99 1533.74,1377.12 1535.61,1377.24 1537.48,1377.35 1539.36,1377.47 1541.23,1377.58 1543.11,1377.69 1544.98,1377.79 1546.86,1377.89 1548.73,1377.99 1550.6,1378.09 1552.48,1378.18 1554.35,1378.27 1556.23,1378.36 1558.1,1378.44 1559.98,1378.53 1561.85,1378.61 1563.72,1378.69 1565.6,1378.77 1567.47,1378.84 1569.35,1378.92 1571.22,1378.99 1573.1,1379.06 1574.97,1379.13 1576.85,1379.2 1578.72,1379.26 1580.59,1379.33 1582.47,1379.39 1584.34,1379.45 1586.22,1379.51 1588.09,1379.57 1589.97,1379.63 1591.84,1379.68 1593.71,1379.74 1595.59,1379.79 1597.46,1379.84 1599.34,1379.9 1601.21,1379.95 1603.09,1379.99 1604.96,1380.04 1606.83,1380.09 1608.71,1380.14 1610.58,1380.18 1612.46,1380.23 1614.33,1380.27 1616.21,1380.31 1618.08,1380.35 1619.95,1380.4 1621.83,1380.44 1623.7,1380.47 1625.58,1380.51 1627.45,1380.55 1629.33,1380.59 1631.2,1380.63 1633.07,1380.66 1634.95,1380.7 1636.82,1380.73 1638.7,1380.76 1640.57,1380.8 1642.45,1380.83 1644.32,1380.86 1646.19,1380.89 1648.07,1380.93 1649.94,1380.96 1651.82,1380.99 1653.69,1381.02 1655.57,1381.04 1657.44,1381.07 1659.32,1381.1 1661.19,1381.13 1663.06,1381.16 1664.94,1381.18 1666.81,1381.21 1668.69,1381.23 1670.56,1381.26 1672.44,1381.28 1674.31,1381.31 1676.18,1381.33 1678.06,1381.36 1679.93,1381.38 1681.81,1381.4 1683.68,1381.43 1685.56,1381.45 1687.43,1381.47 1689.3,1381.49 1691.18,1381.51 1693.05,1381.54 1694.93,1381.56 1696.8,1381.58 1698.68,1381.6 1700.55,1381.62 1702.42,1381.64 1704.3,1381.66 1706.17,1381.67 1708.05,1381.69 1709.92,1381.71 1711.8,1381.73 1713.67,1381.75 1715.54,1381.77 1717.42,1381.78 1719.29,1381.8 1721.17,1381.82 1723.04,1381.83 1724.92,1381.85 1726.79,1381.87 1728.66,1381.88 1730.54,1381.9 1732.41,1381.91 1734.29,1381.93 1736.16,1381.95 1738.04,1381.96 1739.91,1381.98 1741.78,1381.99 1743.66,1382 1745.53,1382.02 1747.41,1382.03 1749.28,1382.05 1751.16,1382.06 1753.03,1382.07 1754.91,1382.09 1756.78,1382.1 1758.65,1382.11 1760.53,1382.13 1762.4,1382.14 1764.28,1382.15 1766.15,1382.17 1768.03,1382.18 1769.9,1382.19 1771.77,1382.2 1773.65,1382.21 1775.52,1382.23 1777.4,1382.24 1779.27,1382.25 1781.15,1382.26 1783.02,1382.27 1784.89,1382.28 1786.77,1382.29 1788.64,1382.3 1790.52,1382.32 1792.39,1382.33 1794.27,1382.34 1796.14,1382.35 1798.01,1382.36 1799.89,1382.37 1801.76,1382.38 1803.64,1382.39 1805.51,1382.4 1807.39,1382.41 1809.26,1382.42 1811.13,1382.43 1813.01,1382.44 1814.88,1382.44 1816.76,1382.45 1818.63,1382.46 1820.51,1382.47 1822.38,1382.48 1824.25,1382.49 1826.13,1382.5 1828,1382.51 1829.88,1382.52 1831.75,1382.52 1833.63,1382.53 1835.5,1382.54 1837.38,1382.55 1839.25,1382.56 1841.12,1382.57 1843,1382.57 1844.87,1382.58 1846.75,1382.59 1848.62,1382.6 1850.5,1382.6 1852.37,1382.61 1854.24,1382.62 1856.12,1382.63 1857.99,1382.63 1859.87,1382.64 1861.74,1382.65 1863.62,1382.66 1865.49,1382.66 1867.36,1382.67 1869.24,1382.68 1871.11,1382.68 1872.99,1382.69 1874.86,1382.7 1876.74,1382.7 1878.61,1382.71 1880.48,1382.72 1882.36,1382.72 1884.23,1382.73 1886.11,1382.74 1887.98,1382.74 1889.86,1382.75 1891.73,1382.76 1893.6,1382.76 1895.48,1382.77 1897.35,1382.77 1899.23,1382.78 1901.1,1382.79 1902.98,1382.79 1904.85,1382.8 1906.72,1382.8 1908.6,1382.81 1910.47,1382.82 1912.35,1382.82 1914.22,1382.83 1916.1,1382.83 1917.97,1382.84 1919.85,1382.84 1921.72,1382.85 1923.59,1382.85 1925.47,1382.86 1927.34,1382.87 1929.22,1382.87 1931.09,1382.88 1932.97,1382.88 1934.84,1382.89 1936.71,1382.89 1938.59,1382.9 1940.46,1382.9 1942.34,1382.91 1944.21,1382.91 1946.09,1382.92 1947.96,1382.92 1949.83,1382.93 1951.71,1382.93 1953.58,1382.94 1955.46,1382.94 1957.33,1382.94 1959.21,1382.95 1961.08,1382.95 1962.95,1382.96 1964.83,1382.96 1966.7,1382.97 1968.58,1382.97 1970.45,1382.98 1972.33,1382.98 1974.2,1382.98 1976.07,1382.99 1977.95,1382.99 1979.82,1383 1981.7,1383 1983.57,1383.01 1985.45,1383.01 1987.32,1383.01 1989.19,1383.02 1991.07,1383.02 1992.94,1383.03 1994.82,1383.03 1996.69,1383.03 1998.57,1383.04 2000.44,1383.04 2002.31,1383.05 2004.19,1383.05 2006.06,1383.05 2007.94,1383.06 2009.81,1383.06 2011.69,1383.07 2013.56,1383.07 2015.44,1383.07 2017.31,1383.08 2019.18,1383.08 2021.06,1383.08 2022.93,1383.09 2024.81,1383.09 2026.68,1383.09 2028.56,1383.1 2030.43,1383.1 2032.3,1383.11 2034.18,1383.11 2036.05,1383.11 2037.93,1383.12 2039.8,1383.12 2041.68,1383.12 2043.55,1383.13 2045.42,1383.13 2047.3,1383.13 2049.17,1383.14 2051.05,1383.14 2052.92,1383.14 2054.8,1383.14 2056.67,1383.15 2058.54,1383.15 2060.42,1383.15 2062.29,1383.16 2064.17,1383.16 2066.04,1383.16 2067.92,1383.17 2069.79,1383.17 2071.66,1383.17 2073.54,1383.18 2075.41,1383.18 2077.29,1383.18 2079.16,1383.18 2081.04,1383.19 2082.91,1383.19 2084.78,1383.19 2086.66,1383.2 2088.53,1383.2 2090.41,1383.2 2092.28,1383.2 2094.16,1383.21 2096.03,1383.21 2097.91,1383.21 2099.78,1383.22 2101.65,1383.22 2103.53,1383.22 2105.4,1383.22 2107.28,1383.23 2109.15,1383.23 2111.03,1383.23 2112.9,1383.23 2114.77,1383.24 2116.65,1383.24 2118.52,1383.24 2120.4,1383.25 2122.27,1383.25 2124.15,1383.25 2126.02,1383.25 2127.89,1383.26 2129.77,1383.26 2131.64,1383.26 2133.52,1383.26 2135.39,1383.27 2137.27,1383.27 2139.14,1383.27 2141.01,1383.27 2142.89,1383.27 2144.76,1383.28 2146.64,1383.28 2148.51,1383.28 2150.39,1383.28 2152.26,1383.29 2154.13,1383.29 2156.01,1383.29 2157.88,1383.29 2159.76,1383.3 2161.63,1383.3 2163.51,1383.3 2165.38,1383.3 2167.25,1383.3 2169.13,1383.31 2171,1383.31 2172.88,1383.31 2174.75,1383.31 2176.63,1383.32 2178.5,1383.32 2180.38,1383.32 2182.25,1383.32 2184.12,1383.32 2186,1383.33 2187.87,1383.33 2189.75,1383.33 2191.62,1383.33 2193.5,1383.33 2195.37,1383.34 2197.24,1383.34 2199.12,1383.34 2200.99,1383.34 2202.87,1383.34 2204.74,1383.35 2206.62,1383.35 2208.49,1383.35 2210.36,1383.35 2212.24,1383.35 2214.11,1383.36 2215.99,1383.36 2217.86,1383.36 2219.74,1383.36 2221.61,1383.36 2223.48,1383.37 2225.36,1383.37 2227.23,1383.37 2229.11,1383.37 2230.98,1383.37 2232.86,1383.38 2234.73,1383.38 2236.6,1383.38 2238.48,1383.38 2240.35,1383.38 2242.23,1383.38 2244.1,1383.39 2245.98,1383.39 2247.85,1383.39 2249.72,1383.39 2251.6,1383.39 2253.47,1383.39 2255.35,1383.4 2257.22,1383.4 2259.1,1383.4 2260.97,1383.4 2262.84,1383.4 2264.72,1383.4 2266.59,1383.41 2268.47,1383.41 2270.34,1383.41 2272.22,1383.41 2274.09,1383.41 2275.97,1383.41 2277.84,1383.42 2279.71,1383.42 2281.59,1383.42 2283.46,1383.42 2285.34,1383.42 2287.21,1383.42 2289.09,1383.43 2290.96,1383.43 2292.83,1383.43 2294.71,1383.43 2296.58,1383.43 "/>
<polyline clip-path="url(#clip392)" style="stroke:#ff0000; stroke-linecap:round; stroke-linejoin:round; stroke-width:4; stroke-opacity:1; fill:none" points="1351,2799.12 1351,-1328.69 "/>
<polyline clip-path="url(#clip392)" style="stroke:#ff0000; stroke-linecap:round; stroke-linejoin:round; stroke-width:4; stroke-opacity:1; fill:none" points="1369.72,2799.12 1369.72,-1328.69 "/>
</svg>
