<?xml version="1.0" encoding="utf-8"?>
<svg xmlns="http://www.w3.org/2000/svg" xmlns:xlink="http://www.w3.org/1999/xlink" width="600" height="400" viewBox="0 0 2400 1600">
<defs>
  <clipPath id="clip070">
    <rect x="0" y="0" width="2400" height="1600"/>
  </clipPath>
</defs>
<path clip-path="url(#clip070)" d="M0 1600 L2400 1600 L2400 0 L0 0  Z" fill="#ffffff" fill-rule="evenodd" fill-opacity="1"/>
<defs>
  <clipPath id="clip071">
    <rect x="480" y="0" width="1681" height="1600"/>
  </clipPath>
</defs>
<path clip-path="url(#clip070)" d="M247.459 1423.18 L2352.76 1423.18 L2352.76 47.2441 L247.459 47.2441  Z" fill="#ffffff" fill-rule="evenodd" fill-opacity="1"/>
<defs>
  <clipPath id="clip072">
    <rect x="247" y="47" width="2106" height="1377"/>
  </clipPath>
</defs>
<polyline clip-path="url(#clip072)" style="stroke:#000000; stroke-linecap:round; stroke-linejoin:round; stroke-width:2; stroke-opacity:0.1; fill:none" points="590.775,1423.18 590.775,47.2441 "/>
<polyline clip-path="url(#clip072)" style="stroke:#000000; stroke-linecap:round; stroke-linejoin:round; stroke-width:2; stroke-opacity:0.1; fill:none" points="1158.24,1423.18 1158.24,47.2441 "/>
<polyline clip-path="url(#clip072)" style="stroke:#000000; stroke-linecap:round; stroke-linejoin:round; stroke-width:2; stroke-opacity:0.1; fill:none" points="1725.71,1423.18 1725.71,47.2441 "/>
<polyline clip-path="url(#clip072)" style="stroke:#000000; stroke-linecap:round; stroke-linejoin:round; stroke-width:2; stroke-opacity:0.1; fill:none" points="2293.17,1423.18 2293.17,47.2441 "/>
<polyline clip-path="url(#clip072)" style="stroke:#000000; stroke-linecap:round; stroke-linejoin:round; stroke-width:2; stroke-opacity:0.1; fill:none" points="247.459,1121.86 2352.76,1121.86 "/>
<polyline clip-path="url(#clip072)" style="stroke:#000000; stroke-linecap:round; stroke-linejoin:round; stroke-width:2; stroke-opacity:0.1; fill:none" points="247.459,768.654 2352.76,768.654 "/>
<polyline clip-path="url(#clip072)" style="stroke:#000000; stroke-linecap:round; stroke-linejoin:round; stroke-width:2; stroke-opacity:0.1; fill:none" points="247.459,415.445 2352.76,415.445 "/>
<polyline clip-path="url(#clip072)" style="stroke:#000000; stroke-linecap:round; stroke-linejoin:round; stroke-width:2; stroke-opacity:0.1; fill:none" points="247.459,62.2365 2352.76,62.2365 "/>
<polyline clip-path="url(#clip070)" style="stroke:#000000; stroke-linecap:round; stroke-linejoin:round; stroke-width:4; stroke-opacity:1; fill:none" points="247.459,1423.18 2352.76,1423.18 "/>
<polyline clip-path="url(#clip070)" style="stroke:#000000; stroke-linecap:round; stroke-linejoin:round; stroke-width:4; stroke-opacity:1; fill:none" points="590.775,1423.18 590.775,1404.28 "/>
<polyline clip-path="url(#clip070)" style="stroke:#000000; stroke-linecap:round; stroke-linejoin:round; stroke-width:4; stroke-opacity:1; fill:none" points="1158.24,1423.18 1158.24,1404.28 "/>
<polyline clip-path="url(#clip070)" style="stroke:#000000; stroke-linecap:round; stroke-linejoin:round; stroke-width:4; stroke-opacity:1; fill:none" points="1725.71,1423.18 1725.71,1404.28 "/>
<polyline clip-path="url(#clip070)" style="stroke:#000000; stroke-linecap:round; stroke-linejoin:round; stroke-width:4; stroke-opacity:1; fill:none" points="2293.17,1423.18 2293.17,1404.28 "/>
<path clip-path="url(#clip070)" d="M585.428 1481.64 L601.748 1481.64 L601.748 1485.58 L579.803 1485.58 L579.803 1481.64 Q582.465 1478.89 587.049 1474.26 Q591.655 1469.61 592.836 1468.27 Q595.081 1465.74 595.961 1464.01 Q596.863 1462.25 596.863 1460.56 Q596.863 1457.8 594.919 1456.07 Q592.998 1454.33 589.896 1454.33 Q587.697 1454.33 585.243 1455.09 Q582.812 1455.86 580.035 1457.41 L580.035 1452.69 Q582.859 1451.55 585.312 1450.97 Q587.766 1450.39 589.803 1450.39 Q595.173 1450.39 598.368 1453.08 Q601.562 1455.77 601.562 1460.26 Q601.562 1462.39 600.752 1464.31 Q599.965 1466.2 597.859 1468.8 Q597.28 1469.47 594.178 1472.69 Q591.076 1475.88 585.428 1481.64 Z" fill="#000000" fill-rule="nonzero" fill-opacity="1" /><path clip-path="url(#clip070)" d="M1161.25 1455.09 L1149.44 1473.54 L1161.25 1473.54 L1161.25 1455.09 M1160.02 1451.02 L1165.9 1451.02 L1165.9 1473.54 L1170.83 1473.54 L1170.83 1477.43 L1165.9 1477.43 L1165.9 1485.58 L1161.25 1485.58 L1161.25 1477.43 L1145.65 1477.43 L1145.65 1472.92 L1160.02 1451.02 Z" fill="#000000" fill-rule="nonzero" fill-opacity="1" /><path clip-path="url(#clip070)" d="M1726.11 1466.44 Q1722.96 1466.44 1721.11 1468.59 Q1719.28 1470.74 1719.28 1474.49 Q1719.28 1478.22 1721.11 1480.39 Q1722.96 1482.55 1726.11 1482.55 Q1729.26 1482.55 1731.09 1480.39 Q1732.94 1478.22 1732.94 1474.49 Q1732.94 1470.74 1731.09 1468.59 Q1729.26 1466.44 1726.11 1466.44 M1735.39 1451.78 L1735.39 1456.04 Q1733.63 1455.21 1731.83 1454.77 Q1730.05 1454.33 1728.29 1454.33 Q1723.66 1454.33 1721.2 1457.45 Q1718.77 1460.58 1718.43 1466.9 Q1719.79 1464.89 1721.85 1463.82 Q1723.91 1462.73 1726.39 1462.73 Q1731.6 1462.73 1734.61 1465.9 Q1737.64 1469.05 1737.64 1474.49 Q1737.64 1479.82 1734.49 1483.03 Q1731.34 1486.25 1726.11 1486.25 Q1720.12 1486.25 1716.94 1481.67 Q1713.77 1477.06 1713.77 1468.33 Q1713.77 1460.14 1717.66 1455.28 Q1721.55 1450.39 1728.1 1450.39 Q1729.86 1450.39 1731.64 1450.74 Q1733.45 1451.09 1735.39 1451.78 Z" fill="#000000" fill-rule="nonzero" fill-opacity="1" /><path clip-path="url(#clip070)" d="M2293.17 1469.17 Q2289.84 1469.17 2287.92 1470.95 Q2286.02 1472.73 2286.02 1475.86 Q2286.02 1478.98 2287.92 1480.77 Q2289.84 1482.55 2293.17 1482.55 Q2296.51 1482.55 2298.43 1480.77 Q2300.35 1478.96 2300.35 1475.86 Q2300.35 1472.73 2298.43 1470.95 Q2296.53 1469.17 2293.17 1469.17 M2288.5 1467.18 Q2285.49 1466.44 2283.8 1464.38 Q2282.13 1462.32 2282.13 1459.35 Q2282.13 1455.21 2285.07 1452.8 Q2288.03 1450.39 2293.17 1450.39 Q2298.33 1450.39 2301.27 1452.8 Q2304.21 1455.21 2304.21 1459.35 Q2304.21 1462.32 2302.52 1464.38 Q2300.86 1466.44 2297.87 1467.18 Q2301.25 1467.96 2303.13 1470.26 Q2305.02 1472.55 2305.02 1475.86 Q2305.02 1480.88 2301.95 1483.57 Q2298.89 1486.25 2293.17 1486.25 Q2287.45 1486.25 2284.38 1483.57 Q2281.32 1480.88 2281.32 1475.86 Q2281.32 1472.55 2283.22 1470.26 Q2285.12 1467.96 2288.5 1467.18 M2286.78 1459.79 Q2286.78 1462.48 2288.45 1463.98 Q2290.14 1465.49 2293.17 1465.49 Q2296.18 1465.49 2297.87 1463.98 Q2299.58 1462.48 2299.58 1459.79 Q2299.58 1457.11 2297.87 1455.6 Q2296.18 1454.1 2293.17 1454.1 Q2290.14 1454.1 2288.45 1455.6 Q2286.78 1457.11 2286.78 1459.79 Z" fill="#000000" fill-rule="nonzero" fill-opacity="1" /><path clip-path="url(#clip070)" d="M1098.55 1525.81 L1098.55 1562.76 L1106.32 1562.76 Q1116.15 1562.76 1120.71 1558.3 Q1125.29 1553.85 1125.29 1544.24 Q1125.29 1534.69 1120.71 1530.26 Q1116.15 1525.81 1106.32 1525.81 L1098.55 1525.81 M1092.12 1520.52 L1105.33 1520.52 Q1119.15 1520.52 1125.61 1526.28 Q1132.07 1532.01 1132.07 1544.24 Q1132.07 1556.52 1125.58 1562.28 Q1119.08 1568.04 1105.33 1568.04 L1092.12 1568.04 L1092.12 1520.52 Z" fill="#000000" fill-rule="nonzero" fill-opacity="1" /><path clip-path="url(#clip070)" d="M1142.06 1532.4 L1147.92 1532.4 L1147.92 1568.04 L1142.06 1568.04 L1142.06 1532.4 M1142.06 1518.52 L1147.92 1518.52 L1147.92 1525.93 L1142.06 1525.93 L1142.06 1518.52 Z" fill="#000000" fill-rule="nonzero" fill-opacity="1" /><path clip-path="url(#clip070)" d="M1182.9 1533.45 L1182.9 1538.98 Q1180.42 1537.71 1177.74 1537.07 Q1175.07 1536.44 1172.2 1536.44 Q1167.84 1536.44 1165.65 1537.77 Q1163.48 1539.11 1163.48 1541.79 Q1163.48 1543.82 1165.04 1545 Q1166.6 1546.15 1171.31 1547.2 L1173.32 1547.64 Q1179.56 1548.98 1182.17 1551.43 Q1184.81 1553.85 1184.81 1558.21 Q1184.81 1563.17 1180.86 1566.07 Q1176.95 1568.97 1170.07 1568.97 Q1167.21 1568.97 1164.09 1568.39 Q1161 1567.85 1157.56 1566.74 L1157.56 1560.69 Q1160.81 1562.38 1163.96 1563.24 Q1167.11 1564.07 1170.2 1564.07 Q1174.34 1564.07 1176.56 1562.66 Q1178.79 1561.23 1178.79 1558.65 Q1178.79 1556.27 1177.17 1554.99 Q1175.58 1553.72 1170.14 1552.54 L1168.1 1552.07 Q1162.66 1550.92 1160.24 1548.56 Q1157.82 1546.18 1157.82 1542.04 Q1157.82 1537.01 1161.38 1534.27 Q1164.95 1531.54 1171.5 1531.54 Q1174.75 1531.54 1177.62 1532.01 Q1180.48 1532.49 1182.9 1533.45 Z" fill="#000000" fill-rule="nonzero" fill-opacity="1" /><path clip-path="url(#clip070)" d="M1219.79 1533.76 L1219.79 1539.24 Q1217.31 1537.87 1214.79 1537.2 Q1212.31 1536.5 1209.76 1536.5 Q1204.06 1536.5 1200.91 1540.13 Q1197.76 1543.73 1197.76 1550.25 Q1197.76 1556.78 1200.91 1560.4 Q1204.06 1564 1209.76 1564 Q1212.31 1564 1214.79 1563.33 Q1217.31 1562.63 1219.79 1561.26 L1219.79 1566.68 Q1217.34 1567.82 1214.7 1568.39 Q1212.09 1568.97 1209.13 1568.97 Q1201.07 1568.97 1196.33 1563.91 Q1191.59 1558.85 1191.59 1550.25 Q1191.59 1541.53 1196.36 1536.53 Q1201.17 1531.54 1209.51 1531.54 Q1212.21 1531.54 1214.79 1532.11 Q1217.37 1532.65 1219.79 1533.76 Z" fill="#000000" fill-rule="nonzero" fill-opacity="1" /><path clip-path="url(#clip070)" d="M1250.95 1520.52 L1257.38 1520.52 L1257.38 1568.04 L1250.95 1568.04 L1250.95 1520.52 Z" fill="#000000" fill-rule="nonzero" fill-opacity="1" /><path clip-path="url(#clip070)" d="M1299.55 1546.53 L1299.55 1568.04 L1293.69 1568.04 L1293.69 1546.72 Q1293.69 1541.66 1291.72 1539.14 Q1289.75 1536.63 1285.8 1536.63 Q1281.06 1536.63 1278.32 1539.65 Q1275.58 1542.68 1275.58 1547.9 L1275.58 1568.04 L1269.7 1568.04 L1269.7 1532.4 L1275.58 1532.4 L1275.58 1537.93 Q1277.68 1534.72 1280.52 1533.13 Q1283.38 1531.54 1287.11 1531.54 Q1293.25 1531.54 1296.4 1535.36 Q1299.55 1539.14 1299.55 1546.53 Z" fill="#000000" fill-rule="nonzero" fill-opacity="1" /><path clip-path="url(#clip070)" d="M1334.69 1537.81 L1334.69 1518.52 L1340.55 1518.52 L1340.55 1568.04 L1334.69 1568.04 L1334.69 1562.7 Q1332.84 1565.88 1330.01 1567.44 Q1327.21 1568.97 1323.26 1568.97 Q1316.8 1568.97 1312.73 1563.81 Q1308.69 1558.65 1308.69 1550.25 Q1308.69 1541.85 1312.73 1536.69 Q1316.8 1531.54 1323.26 1531.54 Q1327.21 1531.54 1330.01 1533.1 Q1332.84 1534.62 1334.69 1537.81 M1314.73 1550.25 Q1314.73 1556.71 1317.37 1560.4 Q1320.05 1564.07 1324.69 1564.07 Q1329.34 1564.07 1332.02 1560.4 Q1334.69 1556.71 1334.69 1550.25 Q1334.69 1543.79 1332.02 1540.13 Q1329.34 1536.44 1324.69 1536.44 Q1320.05 1536.44 1317.37 1540.13 Q1314.73 1543.79 1314.73 1550.25 Z" fill="#000000" fill-rule="nonzero" fill-opacity="1" /><path clip-path="url(#clip070)" d="M1383.1 1548.76 L1383.1 1551.62 L1356.17 1551.62 Q1356.56 1557.67 1359.8 1560.85 Q1363.08 1564 1368.9 1564 Q1372.28 1564 1375.43 1563.17 Q1378.61 1562.35 1381.73 1560.69 L1381.73 1566.23 Q1378.58 1567.57 1375.27 1568.27 Q1371.96 1568.97 1368.55 1568.97 Q1360.02 1568.97 1355.03 1564 Q1350.06 1559.04 1350.06 1550.57 Q1350.06 1541.82 1354.77 1536.69 Q1359.52 1531.54 1367.54 1531.54 Q1374.73 1531.54 1378.9 1536.18 Q1383.1 1540.8 1383.1 1548.76 M1377.24 1547.04 Q1377.18 1542.23 1374.54 1539.37 Q1371.93 1536.5 1367.6 1536.5 Q1362.7 1536.5 1359.74 1539.27 Q1356.81 1542.04 1356.36 1547.07 L1377.24 1547.04 Z" fill="#000000" fill-rule="nonzero" fill-opacity="1" /><path clip-path="url(#clip070)" d="M1421.2 1532.4 L1408.31 1549.74 L1421.87 1568.04 L1414.96 1568.04 L1404.58 1554.04 L1394.21 1568.04 L1387.3 1568.04 L1401.15 1549.39 L1388.48 1532.4 L1395.39 1532.4 L1404.84 1545.1 L1414.29 1532.4 L1421.2 1532.4 Z" fill="#000000" fill-rule="nonzero" fill-opacity="1" /><path clip-path="url(#clip070)" d="M1450.32 1518.52 L1463.82 1518.52 L1463.82 1523.07 L1456.18 1523.07 L1456.18 1572.09 L1463.82 1572.09 L1463.82 1576.64 L1450.32 1576.64 L1450.32 1518.52 Z" fill="#000000" fill-rule="nonzero" fill-opacity="1" /><path clip-path="url(#clip070)" d="M1476.29 1532.4 L1482.15 1532.4 L1482.15 1568.04 L1476.29 1568.04 L1476.29 1532.4 M1476.29 1518.52 L1482.15 1518.52 L1482.15 1525.93 L1476.29 1525.93 L1476.29 1518.52 Z" fill="#000000" fill-rule="nonzero" fill-opacity="1" /><path clip-path="url(#clip070)" d="M1508.09 1518.52 L1508.09 1576.64 L1494.6 1576.64 L1494.6 1572.09 L1502.2 1572.09 L1502.2 1523.07 L1494.6 1523.07 L1494.6 1518.52 L1508.09 1518.52 Z" fill="#000000" fill-rule="nonzero" fill-opacity="1" /><polyline clip-path="url(#clip070)" style="stroke:#000000; stroke-linecap:round; stroke-linejoin:round; stroke-width:4; stroke-opacity:1; fill:none" points="247.459,1423.18 247.459,47.2441 "/>
<polyline clip-path="url(#clip070)" style="stroke:#000000; stroke-linecap:round; stroke-linejoin:round; stroke-width:4; stroke-opacity:1; fill:none" points="247.459,1121.86 266.356,1121.86 "/>
<polyline clip-path="url(#clip070)" style="stroke:#000000; stroke-linecap:round; stroke-linejoin:round; stroke-width:4; stroke-opacity:1; fill:none" points="247.459,768.654 266.356,768.654 "/>
<polyline clip-path="url(#clip070)" style="stroke:#000000; stroke-linecap:round; stroke-linejoin:round; stroke-width:4; stroke-opacity:1; fill:none" points="247.459,415.445 266.356,415.445 "/>
<polyline clip-path="url(#clip070)" style="stroke:#000000; stroke-linecap:round; stroke-linejoin:round; stroke-width:4; stroke-opacity:1; fill:none" points="247.459,62.2365 266.356,62.2365 "/>
<path clip-path="url(#clip070)" d="M144.422 1138.42 L144.422 1134.17 Q146.181 1135 147.987 1135.44 Q149.792 1135.88 151.528 1135.88 Q156.158 1135.88 158.589 1132.78 Q161.042 1129.65 161.39 1123.31 Q160.047 1125.3 157.987 1126.36 Q155.927 1127.43 153.427 1127.43 Q148.241 1127.43 145.209 1124.3 Q142.2 1121.16 142.2 1115.72 Q142.2 1110.39 145.348 1107.17 Q148.496 1103.96 153.728 1103.96 Q159.723 1103.96 162.871 1108.56 Q166.042 1113.15 166.042 1121.9 Q166.042 1130.07 162.153 1134.95 Q158.288 1139.81 151.737 1139.81 Q149.978 1139.81 148.172 1139.47 Q146.366 1139.12 144.422 1138.42 M153.728 1123.77 Q156.876 1123.77 158.704 1121.62 Q160.556 1119.47 160.556 1115.72 Q160.556 1111.99 158.704 1109.84 Q156.876 1107.66 153.728 1107.66 Q150.579 1107.66 148.728 1109.84 Q146.899 1111.99 146.899 1115.72 Q146.899 1119.47 148.728 1121.62 Q150.579 1123.77 153.728 1123.77 Z" fill="#000000" fill-rule="nonzero" fill-opacity="1" /><path clip-path="url(#clip070)" d="M174.445 1133.26 L179.329 1133.26 L179.329 1139.14 L174.445 1139.14 L174.445 1133.26 Z" fill="#000000" fill-rule="nonzero" fill-opacity="1" /><path clip-path="url(#clip070)" d="M199.514 1107.66 Q195.903 1107.66 194.075 1111.23 Q192.269 1114.77 192.269 1121.9 Q192.269 1129 194.075 1132.57 Q195.903 1136.11 199.514 1136.11 Q203.149 1136.11 204.954 1132.57 Q206.783 1129 206.783 1121.9 Q206.783 1114.77 204.954 1111.23 Q203.149 1107.66 199.514 1107.66 M199.514 1103.96 Q205.324 1103.96 208.38 1108.56 Q211.459 1113.15 211.459 1121.9 Q211.459 1130.62 208.38 1135.23 Q205.324 1139.81 199.514 1139.81 Q193.704 1139.81 190.625 1135.23 Q187.57 1130.62 187.57 1121.9 Q187.57 1113.15 190.625 1108.56 Q193.704 1103.96 199.514 1103.96 Z" fill="#000000" fill-rule="nonzero" fill-opacity="1" /><path clip-path="url(#clip070)" d="M145.417 785.216 L145.417 780.957 Q147.177 781.79 148.982 782.23 Q150.788 782.67 152.524 782.67 Q157.153 782.67 159.584 779.568 Q162.038 776.443 162.385 770.1 Q161.042 772.091 158.982 773.156 Q156.922 774.221 154.422 774.221 Q149.237 774.221 146.204 771.096 Q143.195 767.948 143.195 762.508 Q143.195 757.184 146.343 753.966 Q149.491 750.749 154.723 750.749 Q160.718 750.749 163.866 755.355 Q167.038 759.938 167.038 768.688 Q167.038 776.86 163.149 781.744 Q159.283 786.605 152.732 786.605 Q150.973 786.605 149.167 786.258 Q147.362 785.91 145.417 785.216 M154.723 770.563 Q157.871 770.563 159.7 768.41 Q161.552 766.258 161.552 762.508 Q161.552 758.781 159.7 756.628 Q157.871 754.452 154.723 754.452 Q151.575 754.452 149.723 756.628 Q147.894 758.781 147.894 762.508 Q147.894 766.258 149.723 768.41 Q151.575 770.563 154.723 770.563 Z" fill="#000000" fill-rule="nonzero" fill-opacity="1" /><path clip-path="url(#clip070)" d="M175.44 780.054 L180.325 780.054 L180.325 785.934 L175.44 785.934 L175.44 780.054 Z" fill="#000000" fill-rule="nonzero" fill-opacity="1" /><path clip-path="url(#clip070)" d="M190.556 751.374 L208.912 751.374 L208.912 755.309 L194.838 755.309 L194.838 763.781 Q195.857 763.434 196.875 763.272 Q197.894 763.086 198.912 763.086 Q204.699 763.086 208.079 766.258 Q211.459 769.429 211.459 774.846 Q211.459 780.424 207.987 783.526 Q204.514 786.605 198.195 786.605 Q196.019 786.605 193.75 786.234 Q191.505 785.864 189.098 785.123 L189.098 780.424 Q191.181 781.559 193.403 782.114 Q195.625 782.67 198.102 782.67 Q202.107 782.67 204.445 780.563 Q206.783 778.457 206.783 774.846 Q206.783 771.235 204.445 769.128 Q202.107 767.022 198.102 767.022 Q196.227 767.022 194.352 767.438 Q192.5 767.855 190.556 768.735 L190.556 751.374 Z" fill="#000000" fill-rule="nonzero" fill-opacity="1" /><path clip-path="url(#clip070)" d="M114.931 428.79 L122.57 428.79 L122.57 402.424 L114.26 404.091 L114.26 399.832 L122.524 398.165 L127.2 398.165 L127.2 428.79 L134.839 428.79 L134.839 432.725 L114.931 432.725 L114.931 428.79 Z" fill="#000000" fill-rule="nonzero" fill-opacity="1" /><path clip-path="url(#clip070)" d="M154.283 401.244 Q150.672 401.244 148.843 404.809 Q147.038 408.35 147.038 415.48 Q147.038 422.586 148.843 426.151 Q150.672 429.693 154.283 429.693 Q157.917 429.693 159.723 426.151 Q161.552 422.586 161.552 415.48 Q161.552 408.35 159.723 404.809 Q157.917 401.244 154.283 401.244 M154.283 397.54 Q160.093 397.54 163.149 402.146 Q166.227 406.73 166.227 415.48 Q166.227 424.207 163.149 428.813 Q160.093 433.396 154.283 433.396 Q148.473 433.396 145.394 428.813 Q142.339 424.207 142.339 415.48 Q142.339 406.73 145.394 402.146 Q148.473 397.54 154.283 397.54 Z" fill="#000000" fill-rule="nonzero" fill-opacity="1" /><path clip-path="url(#clip070)" d="M174.445 426.845 L179.329 426.845 L179.329 432.725 L174.445 432.725 L174.445 426.845 Z" fill="#000000" fill-rule="nonzero" fill-opacity="1" /><path clip-path="url(#clip070)" d="M199.514 401.244 Q195.903 401.244 194.075 404.809 Q192.269 408.35 192.269 415.48 Q192.269 422.586 194.075 426.151 Q195.903 429.693 199.514 429.693 Q203.149 429.693 204.954 426.151 Q206.783 422.586 206.783 415.48 Q206.783 408.35 204.954 404.809 Q203.149 401.244 199.514 401.244 M199.514 397.54 Q205.324 397.54 208.38 402.146 Q211.459 406.73 211.459 415.48 Q211.459 424.207 208.38 428.813 Q205.324 433.396 199.514 433.396 Q193.704 433.396 190.625 428.813 Q187.57 424.207 187.57 415.48 Q187.57 406.73 190.625 402.146 Q193.704 397.54 199.514 397.54 Z" fill="#000000" fill-rule="nonzero" fill-opacity="1" /><path clip-path="url(#clip070)" d="M115.927 75.5814 L123.566 75.5814 L123.566 49.2158 L115.256 50.8824 L115.256 46.6232 L123.519 44.9565 L128.195 44.9565 L128.195 75.5814 L135.834 75.5814 L135.834 79.5165 L115.927 79.5165 L115.927 75.5814 Z" fill="#000000" fill-rule="nonzero" fill-opacity="1" /><path clip-path="url(#clip070)" d="M155.278 48.0352 Q151.667 48.0352 149.839 51.6 Q148.033 55.1417 148.033 62.2712 Q148.033 69.3777 149.839 72.9425 Q151.667 76.4841 155.278 76.4841 Q158.913 76.4841 160.718 72.9425 Q162.547 69.3777 162.547 62.2712 Q162.547 55.1417 160.718 51.6 Q158.913 48.0352 155.278 48.0352 M155.278 44.3315 Q161.089 44.3315 164.144 48.938 Q167.223 53.5213 167.223 62.2712 Q167.223 70.9981 164.144 75.6045 Q161.089 80.1878 155.278 80.1878 Q149.468 80.1878 146.39 75.6045 Q143.334 70.9981 143.334 62.2712 Q143.334 53.5213 146.39 48.938 Q149.468 44.3315 155.278 44.3315 Z" fill="#000000" fill-rule="nonzero" fill-opacity="1" /><path clip-path="url(#clip070)" d="M175.44 73.6369 L180.325 73.6369 L180.325 79.5165 L175.44 79.5165 L175.44 73.6369 Z" fill="#000000" fill-rule="nonzero" fill-opacity="1" /><path clip-path="url(#clip070)" d="M190.556 44.9565 L208.912 44.9565 L208.912 48.8917 L194.838 48.8917 L194.838 57.3639 Q195.857 57.0166 196.875 56.8546 Q197.894 56.6694 198.912 56.6694 Q204.699 56.6694 208.079 59.8407 Q211.459 63.012 211.459 68.4286 Q211.459 74.0073 207.987 77.1091 Q204.514 80.1878 198.195 80.1878 Q196.019 80.1878 193.75 79.8175 Q191.505 79.4471 189.098 78.7063 L189.098 74.0073 Q191.181 75.1416 193.403 75.6971 Q195.625 76.2527 198.102 76.2527 Q202.107 76.2527 204.445 74.1462 Q206.783 72.0397 206.783 68.4286 Q206.783 64.8175 204.445 62.7111 Q202.107 60.6046 198.102 60.6046 Q196.227 60.6046 194.352 61.0213 Q192.5 61.4379 190.556 62.3175 L190.556 44.9565 Z" fill="#000000" fill-rule="nonzero" fill-opacity="1" /><path clip-path="url(#clip070)" d="M21.7677 981.565 L58.7206 981.565 L58.7206 973.799 Q58.7206 963.964 54.2646 959.412 Q49.8086 954.829 40.1964 954.829 Q30.6479 954.829 26.2237 959.412 Q21.7677 963.964 21.7677 973.799 L21.7677 981.565 M16.4842 987.994 L16.4842 974.785 Q16.4842 960.972 22.2451 954.511 Q27.9743 948.049 40.1964 948.049 Q52.4822 948.049 58.2432 954.542 Q64.0042 961.035 64.0042 974.785 L64.0042 987.994 L16.4842 987.994 Z" fill="#000000" fill-rule="nonzero" fill-opacity="1" /><path clip-path="url(#clip070)" d="M28.3562 938.055 L28.3562 932.199 L64.0042 932.199 L64.0042 938.055 L28.3562 938.055 M14.479 938.055 L14.479 932.199 L21.895 932.199 L21.895 938.055 L14.479 938.055 Z" fill="#000000" fill-rule="nonzero" fill-opacity="1" /><path clip-path="url(#clip070)" d="M29.4065 897.219 L34.9447 897.219 Q33.6716 899.702 33.035 902.375 Q32.3984 905.049 32.3984 907.914 Q32.3984 912.274 33.7352 914.47 Q35.072 916.635 37.7456 916.635 Q39.7826 916.635 40.9603 915.075 Q42.1061 913.515 43.1565 908.805 L43.6021 906.8 Q44.9389 900.561 47.3897 897.951 Q49.8086 895.309 54.1691 895.309 Q59.1344 895.309 62.0308 899.256 Q64.9272 903.171 64.9272 910.046 Q64.9272 912.911 64.3543 916.03 Q63.8132 919.117 62.6992 922.555 L56.6518 922.555 Q58.3387 919.308 59.198 916.157 Q60.0256 913.006 60.0256 909.919 Q60.0256 905.781 58.6251 903.553 Q57.1929 901.325 54.6147 901.325 Q52.2276 901.325 50.9545 902.948 Q49.6813 904.54 48.5037 909.982 L48.0262 912.019 Q46.8804 917.462 44.5251 919.881 Q42.138 922.3 38.0002 922.3 Q32.9713 922.3 30.2341 918.735 Q27.4968 915.17 27.4968 908.614 Q27.4968 905.367 27.9743 902.503 Q28.4517 899.638 29.4065 897.219 Z" fill="#000000" fill-rule="nonzero" fill-opacity="1" /><path clip-path="url(#clip070)" d="M18.2347 880.191 L28.3562 880.191 L28.3562 868.128 L32.9077 868.128 L32.9077 880.191 L52.2594 880.191 Q56.6199 880.191 57.8613 879.013 Q59.1026 877.804 59.1026 874.144 L59.1026 868.128 L64.0042 868.128 L64.0042 874.144 Q64.0042 880.923 61.4897 883.501 Q58.9434 886.079 52.2594 886.079 L32.9077 886.079 L32.9077 890.376 L28.3562 890.376 L28.3562 886.079 L18.2347 886.079 L18.2347 880.191 Z" fill="#000000" fill-rule="nonzero" fill-opacity="1" /><path clip-path="url(#clip070)" d="M46.0847 844.225 Q46.0847 851.322 47.7079 854.06 Q49.3312 856.797 53.2461 856.797 Q56.3653 856.797 58.2114 854.76 Q60.0256 852.691 60.0256 849.158 Q60.0256 844.288 56.5881 841.36 Q53.1188 838.4 47.3897 838.4 L46.0847 838.4 L46.0847 844.225 M43.6657 832.544 L64.0042 832.544 L64.0042 838.4 L58.5933 838.4 Q61.8398 840.405 63.3994 843.397 Q64.9272 846.389 64.9272 850.718 Q64.9272 856.192 61.8716 859.439 Q58.7843 862.653 53.6281 862.653 Q47.6125 862.653 44.5569 858.643 Q41.5014 854.601 41.5014 846.612 L41.5014 838.4 L40.9285 838.4 Q36.8862 838.4 34.6901 841.074 Q32.4621 843.715 32.4621 848.522 Q32.4621 851.577 33.1941 854.473 Q33.9262 857.37 35.3903 860.043 L29.9795 860.043 Q28.7381 856.829 28.1334 853.805 Q27.4968 850.781 27.4968 847.917 Q27.4968 840.182 31.5072 836.363 Q35.5176 832.544 43.6657 832.544 Z" fill="#000000" fill-rule="nonzero" fill-opacity="1" /><path clip-path="url(#clip070)" d="M42.4881 790.848 L64.0042 790.848 L64.0042 796.705 L42.679 796.705 Q37.6183 796.705 35.1038 798.678 Q32.5894 800.651 32.5894 804.598 Q32.5894 809.341 35.6131 812.078 Q38.6368 814.815 43.8567 814.815 L64.0042 814.815 L64.0042 820.703 L28.3562 820.703 L28.3562 814.815 L33.8944 814.815 Q30.6797 812.714 29.0883 809.882 Q27.4968 807.017 27.4968 803.293 Q27.4968 797.15 31.3163 793.999 Q35.1038 790.848 42.4881 790.848 Z" fill="#000000" fill-rule="nonzero" fill-opacity="1" /><path clip-path="url(#clip070)" d="M29.7248 753.513 L35.1993 753.513 Q33.8307 755.996 33.1623 758.51 Q32.4621 760.993 32.4621 763.539 Q32.4621 769.237 36.0905 772.388 Q39.6872 775.539 46.212 775.539 Q52.7369 775.539 56.3653 772.388 Q59.9619 769.237 59.9619 763.539 Q59.9619 760.993 59.2935 758.51 Q58.5933 755.996 57.2247 753.513 L62.6355 753.513 Q63.7814 755.964 64.3543 758.606 Q64.9272 761.216 64.9272 764.176 Q64.9272 772.229 59.8664 776.971 Q54.8057 781.713 46.212 781.713 Q37.491 781.713 32.4939 776.939 Q27.4968 772.133 27.4968 763.794 Q27.4968 761.089 28.0697 758.51 Q28.6108 755.932 29.7248 753.513 Z" fill="#000000" fill-rule="nonzero" fill-opacity="1" /><path clip-path="url(#clip070)" d="M44.7161 712.837 L47.5806 712.837 L47.5806 739.763 Q53.6281 739.382 56.8109 736.135 Q59.9619 732.857 59.9619 727.032 Q59.9619 723.658 59.1344 720.507 Q58.3069 717.324 56.6518 714.205 L62.1899 714.205 Q63.5267 717.356 64.227 720.666 Q64.9272 723.976 64.9272 727.382 Q64.9272 735.912 59.9619 740.909 Q54.9967 745.875 46.5303 745.875 Q37.7774 745.875 32.6531 741.164 Q27.4968 736.421 27.4968 728.401 Q27.4968 721.207 32.1438 717.038 Q36.7589 712.837 44.7161 712.837 M42.9973 718.693 Q38.1912 718.757 35.3266 721.398 Q32.4621 724.008 32.4621 728.337 Q32.4621 733.239 35.2312 736.199 Q38.0002 739.127 43.0292 739.572 L42.9973 718.693 Z" fill="#000000" fill-rule="nonzero" fill-opacity="1" /><path clip-path="url(#clip070)" d="M29.4065 680.499 L34.9447 680.499 Q33.6716 682.981 33.035 685.655 Q32.3984 688.329 32.3984 691.193 Q32.3984 695.554 33.7352 697.75 Q35.072 699.914 37.7456 699.914 Q39.7826 699.914 40.9603 698.355 Q42.1061 696.795 43.1565 692.084 L43.6021 690.079 Q44.9389 683.841 47.3897 681.231 Q49.8086 678.589 54.1691 678.589 Q59.1344 678.589 62.0308 682.536 Q64.9272 686.451 64.9272 693.326 Q64.9272 696.19 64.3543 699.309 Q63.8132 702.397 62.6992 705.834 L56.6518 705.834 Q58.3387 702.588 59.198 699.437 Q60.0256 696.286 60.0256 693.198 Q60.0256 689.061 58.6251 686.833 Q57.1929 684.605 54.6147 684.605 Q52.2276 684.605 50.9545 686.228 Q49.6813 687.819 48.5037 693.262 L48.0262 695.299 Q46.8804 700.742 44.5251 703.161 Q42.138 705.58 38.0002 705.58 Q32.9713 705.58 30.2341 702.015 Q27.4968 698.45 27.4968 691.893 Q27.4968 688.647 27.9743 685.782 Q28.4517 682.918 29.4065 680.499 Z" fill="#000000" fill-rule="nonzero" fill-opacity="1" /><path clip-path="url(#clip070)" d="M14.479 649.084 L14.479 635.589 L19.0304 635.589 L19.0304 643.228 L68.0464 643.228 L68.0464 635.589 L72.5979 635.589 L72.5979 649.084 L14.479 649.084 Z" fill="#000000" fill-rule="nonzero" fill-opacity="1" /><path clip-path="url(#clip070)" d="M35.1993 595.357 Q31.2526 593.161 29.3747 590.106 Q27.4968 587.05 27.4968 582.912 Q27.4968 577.342 31.4117 574.319 Q35.2948 571.295 42.4881 571.295 L64.0042 571.295 L64.0042 577.183 L42.679 577.183 Q37.5546 577.183 35.072 578.998 Q32.5894 580.812 32.5894 584.536 Q32.5894 589.087 35.6131 591.729 Q38.6368 594.371 43.8567 594.371 L64.0042 594.371 L64.0042 600.259 L42.679 600.259 Q37.5228 600.259 35.072 602.073 Q32.5894 603.887 32.5894 607.675 Q32.5894 612.163 35.6449 614.805 Q38.6686 617.446 43.8567 617.446 L64.0042 617.446 L64.0042 623.335 L28.3562 623.335 L28.3562 617.446 L33.8944 617.446 Q30.616 615.441 29.0564 612.64 Q27.4968 609.839 27.4968 605.988 Q27.4968 602.105 29.4702 599.4 Q31.4436 596.662 35.1993 595.357 Z" fill="#000000" fill-rule="nonzero" fill-opacity="1" /><path clip-path="url(#clip070)" d="M35.1993 531.859 Q31.2526 529.663 29.3747 526.608 Q27.4968 523.552 27.4968 519.415 Q27.4968 513.845 31.4117 510.821 Q35.2948 507.797 42.4881 507.797 L64.0042 507.797 L64.0042 513.685 L42.679 513.685 Q37.5546 513.685 35.072 515.5 Q32.5894 517.314 32.5894 521.038 Q32.5894 525.589 35.6131 528.231 Q38.6368 530.873 43.8567 530.873 L64.0042 530.873 L64.0042 536.761 L42.679 536.761 Q37.5228 536.761 35.072 538.575 Q32.5894 540.39 32.5894 544.177 Q32.5894 548.665 35.6449 551.307 Q38.6686 553.948 43.8567 553.948 L64.0042 553.948 L64.0042 559.837 L28.3562 559.837 L28.3562 553.948 L33.8944 553.948 Q30.616 551.943 29.0564 549.142 Q27.4968 546.341 27.4968 542.49 Q27.4968 538.607 29.4702 535.902 Q31.4436 533.164 35.1993 531.859 Z" fill="#000000" fill-rule="nonzero" fill-opacity="1" /><path clip-path="url(#clip070)" d="M14.479 482.43 L72.5979 482.43 L72.5979 495.925 L68.0464 495.925 L68.0464 488.318 L19.0304 488.318 L19.0304 495.925 L14.479 495.925 L14.479 482.43 Z" fill="#000000" fill-rule="nonzero" fill-opacity="1" /><circle clip-path="url(#clip072)" cx="307.043" cy="1384.24" r="14.4" fill="#009af9" fill-rule="evenodd" fill-opacity="1" stroke="#000000" stroke-opacity="1" stroke-width="3.2"/>
<circle clip-path="url(#clip072)" cx="590.775" cy="975.643" r="14.4" fill="#009af9" fill-rule="evenodd" fill-opacity="1" stroke="#000000" stroke-opacity="1" stroke-width="3.2"/>
<circle clip-path="url(#clip072)" cx="874.508" cy="974.454" r="14.4" fill="#009af9" fill-rule="evenodd" fill-opacity="1" stroke="#000000" stroke-opacity="1" stroke-width="3.2"/>
<circle clip-path="url(#clip072)" cx="1158.24" cy="1047.22" r="14.4" fill="#009af9" fill-rule="evenodd" fill-opacity="1" stroke="#000000" stroke-opacity="1" stroke-width="3.2"/>
<circle clip-path="url(#clip072)" cx="1441.97" cy="1068.54" r="14.4" fill="#009af9" fill-rule="evenodd" fill-opacity="1" stroke="#000000" stroke-opacity="1" stroke-width="3.2"/>
<circle clip-path="url(#clip072)" cx="1725.71" cy="1281.45" r="14.4" fill="#009af9" fill-rule="evenodd" fill-opacity="1" stroke="#000000" stroke-opacity="1" stroke-width="3.2"/>
<circle clip-path="url(#clip072)" cx="2009.44" cy="1030.81" r="14.4" fill="#009af9" fill-rule="evenodd" fill-opacity="1" stroke="#000000" stroke-opacity="1" stroke-width="3.2"/>
<circle clip-path="url(#clip072)" cx="2293.17" cy="86.1857" r="14.4" fill="#009af9" fill-rule="evenodd" fill-opacity="1" stroke="#000000" stroke-opacity="1" stroke-width="3.2"/>
<path clip-path="url(#clip070)" d="M317.635 196.789 L580.595 196.789 L580.595 93.1086 L317.635 93.1086  Z" fill="#ffffff" fill-rule="evenodd" fill-opacity="1"/>
<polyline clip-path="url(#clip070)" style="stroke:#000000; stroke-linecap:round; stroke-linejoin:round; stroke-width:4; stroke-opacity:1; fill:none" points="317.635,196.789 580.595,196.789 580.595,93.1086 317.635,93.1086 317.635,196.789 "/>
<circle clip-path="url(#clip070)" cx="411.204" cy="144.949" r="20.48" fill="#009af9" fill-rule="evenodd" fill-opacity="1" stroke="#000000" stroke-opacity="1" stroke-width="4.55111"/>
<path clip-path="url(#clip070)" d="M518.615 164.636 Q516.81 169.266 515.097 170.678 Q513.384 172.09 510.514 172.09 L507.111 172.09 L507.111 168.525 L509.611 168.525 Q511.37 168.525 512.342 167.692 Q513.314 166.858 514.495 163.756 L515.259 161.812 L504.773 136.303 L509.287 136.303 L517.388 156.581 L525.49 136.303 L530.004 136.303 L518.615 164.636 Z" fill="#000000" fill-rule="nonzero" fill-opacity="1" /><path clip-path="url(#clip070)" d="M537.296 158.293 L544.935 158.293 L544.935 131.928 L536.624 133.595 L536.624 129.335 L544.888 127.669 L549.564 127.669 L549.564 158.293 L557.203 158.293 L557.203 162.229 L537.296 162.229 L537.296 158.293 Z" fill="#000000" fill-rule="nonzero" fill-opacity="1" /></svg>
