<?xml version="1.0" encoding="utf-8"?>
<svg xmlns="http://www.w3.org/2000/svg" xmlns:xlink="http://www.w3.org/1999/xlink" width="600" height="400" viewBox="0 0 2400 1600">
<defs>
  <clipPath id="clip000">
    <rect x="0" y="0" width="2400" height="1600"/>
  </clipPath>
</defs>
<path clip-path="url(#clip000)" d="M0 1600 L2400 1600 L2400 0 L0 0  Z" fill="#ffffff" fill-rule="evenodd" fill-opacity="1"/>
<defs>
  <clipPath id="clip001">
    <rect x="480" y="0" width="1681" height="1600"/>
  </clipPath>
</defs>
<path clip-path="url(#clip000)" d="M367.967 1423.18 L2352.76 1423.18 L2352.76 47.2441 L367.967 47.2441  Z" fill="#ffffff" fill-rule="evenodd" fill-opacity="1"/>
<defs>
  <clipPath id="clip002">
    <rect x="367" y="47" width="1986" height="1377"/>
  </clipPath>
</defs>
<polyline clip-path="url(#clip002)" style="stroke:#000000; stroke-linecap:round; stroke-linejoin:round; stroke-width:2; stroke-opacity:0.1; fill:none" points="424.141,1423.18 424.141,47.2441 "/>
<polyline clip-path="url(#clip002)" style="stroke:#000000; stroke-linecap:round; stroke-linejoin:round; stroke-width:2; stroke-opacity:0.1; fill:none" points="892.251,1423.18 892.251,47.2441 "/>
<polyline clip-path="url(#clip002)" style="stroke:#000000; stroke-linecap:round; stroke-linejoin:round; stroke-width:2; stroke-opacity:0.1; fill:none" points="1360.36,1423.18 1360.36,47.2441 "/>
<polyline clip-path="url(#clip002)" style="stroke:#000000; stroke-linecap:round; stroke-linejoin:round; stroke-width:2; stroke-opacity:0.1; fill:none" points="1828.47,1423.18 1828.47,47.2441 "/>
<polyline clip-path="url(#clip002)" style="stroke:#000000; stroke-linecap:round; stroke-linejoin:round; stroke-width:2; stroke-opacity:0.1; fill:none" points="2296.58,1423.18 2296.58,47.2441 "/>
<polyline clip-path="url(#clip002)" style="stroke:#000000; stroke-linecap:round; stroke-linejoin:round; stroke-width:2; stroke-opacity:0.1; fill:none" points="367.967,1386.05 2352.76,1386.05 "/>
<polyline clip-path="url(#clip002)" style="stroke:#000000; stroke-linecap:round; stroke-linejoin:round; stroke-width:2; stroke-opacity:0.1; fill:none" points="367.967,1011.64 2352.76,1011.64 "/>
<polyline clip-path="url(#clip002)" style="stroke:#000000; stroke-linecap:round; stroke-linejoin:round; stroke-width:2; stroke-opacity:0.1; fill:none" points="367.967,637.228 2352.76,637.228 "/>
<polyline clip-path="url(#clip002)" style="stroke:#000000; stroke-linecap:round; stroke-linejoin:round; stroke-width:2; stroke-opacity:0.1; fill:none" points="367.967,262.82 2352.76,262.82 "/>
<polyline clip-path="url(#clip000)" style="stroke:#000000; stroke-linecap:round; stroke-linejoin:round; stroke-width:4; stroke-opacity:1; fill:none" points="367.967,1423.18 2352.76,1423.18 "/>
<polyline clip-path="url(#clip000)" style="stroke:#000000; stroke-linecap:round; stroke-linejoin:round; stroke-width:4; stroke-opacity:1; fill:none" points="424.141,1423.18 424.141,1404.28 "/>
<polyline clip-path="url(#clip000)" style="stroke:#000000; stroke-linecap:round; stroke-linejoin:round; stroke-width:4; stroke-opacity:1; fill:none" points="892.251,1423.18 892.251,1404.28 "/>
<polyline clip-path="url(#clip000)" style="stroke:#000000; stroke-linecap:round; stroke-linejoin:round; stroke-width:4; stroke-opacity:1; fill:none" points="1360.36,1423.18 1360.36,1404.28 "/>
<polyline clip-path="url(#clip000)" style="stroke:#000000; stroke-linecap:round; stroke-linejoin:round; stroke-width:4; stroke-opacity:1; fill:none" points="1828.47,1423.18 1828.47,1404.28 "/>
<polyline clip-path="url(#clip000)" style="stroke:#000000; stroke-linecap:round; stroke-linejoin:round; stroke-width:4; stroke-opacity:1; fill:none" points="2296.58,1423.18 2296.58,1404.28 "/>
<path clip-path="url(#clip000)" d="M361.132 1481.64 L368.771 1481.64 L368.771 1455.28 L360.46 1456.95 L360.46 1452.69 L368.724 1451.02 L373.4 1451.02 L373.4 1481.64 L381.039 1481.64 L381.039 1485.58 L361.132 1485.58 L361.132 1481.64 Z" fill="#000000" fill-rule="nonzero" fill-opacity="1" /><path clip-path="url(#clip000)" d="M389.303 1451.02 L411.525 1451.02 L411.525 1453.01 L398.979 1485.58 L394.094 1485.58 L405.9 1454.96 L389.303 1454.96 L389.303 1451.02 Z" fill="#000000" fill-rule="nonzero" fill-opacity="1" /><path clip-path="url(#clip000)" d="M420.645 1479.7 L425.529 1479.7 L425.529 1485.58 L420.645 1485.58 L420.645 1479.7 Z" fill="#000000" fill-rule="nonzero" fill-opacity="1" /><path clip-path="url(#clip000)" d="M435.853 1484.86 L435.853 1480.6 Q437.613 1481.44 439.418 1481.88 Q441.224 1482.32 442.96 1482.32 Q447.59 1482.32 450.02 1479.21 Q452.474 1476.09 452.821 1469.75 Q451.478 1471.74 449.418 1472.8 Q447.358 1473.87 444.858 1473.87 Q439.673 1473.87 436.641 1470.74 Q433.631 1467.59 433.631 1462.15 Q433.631 1456.83 436.779 1453.61 Q439.928 1450.39 445.159 1450.39 Q451.154 1450.39 454.302 1455 Q457.474 1459.58 457.474 1468.33 Q457.474 1476.51 453.585 1481.39 Q449.719 1486.25 443.168 1486.25 Q441.409 1486.25 439.603 1485.9 Q437.798 1485.56 435.853 1484.86 M445.159 1470.21 Q448.307 1470.21 450.136 1468.06 Q451.988 1465.9 451.988 1462.15 Q451.988 1458.43 450.136 1456.27 Q448.307 1454.1 445.159 1454.1 Q442.011 1454.1 440.159 1456.27 Q438.33 1458.43 438.33 1462.15 Q438.33 1465.9 440.159 1468.06 Q442.011 1470.21 445.159 1470.21 Z" fill="#000000" fill-rule="nonzero" fill-opacity="1" /><path clip-path="url(#clip000)" d="M475.876 1454.1 Q472.265 1454.1 470.437 1457.66 Q468.631 1461.2 468.631 1468.33 Q468.631 1475.44 470.437 1479.01 Q472.265 1482.55 475.876 1482.55 Q479.511 1482.55 481.316 1479.01 Q483.145 1475.44 483.145 1468.33 Q483.145 1461.2 481.316 1457.66 Q479.511 1454.1 475.876 1454.1 M475.876 1450.39 Q481.687 1450.39 484.742 1455 Q487.821 1459.58 487.821 1468.33 Q487.821 1477.06 484.742 1481.67 Q481.687 1486.25 475.876 1486.25 Q470.066 1486.25 466.988 1481.67 Q463.932 1477.06 463.932 1468.33 Q463.932 1459.58 466.988 1455 Q470.066 1450.39 475.876 1450.39 Z" fill="#000000" fill-rule="nonzero" fill-opacity="1" /><path clip-path="url(#clip000)" d="M829.74 1481.64 L837.379 1481.64 L837.379 1455.28 L829.069 1456.95 L829.069 1452.69 L837.332 1451.02 L842.008 1451.02 L842.008 1481.64 L849.647 1481.64 L849.647 1485.58 L829.74 1485.58 L829.74 1481.64 Z" fill="#000000" fill-rule="nonzero" fill-opacity="1" /><path clip-path="url(#clip000)" d="M857.911 1451.02 L880.133 1451.02 L880.133 1453.01 L867.587 1485.58 L862.703 1485.58 L874.508 1454.96 L857.911 1454.96 L857.911 1451.02 Z" fill="#000000" fill-rule="nonzero" fill-opacity="1" /><path clip-path="url(#clip000)" d="M889.253 1479.7 L894.138 1479.7 L894.138 1485.58 L889.253 1485.58 L889.253 1479.7 Z" fill="#000000" fill-rule="nonzero" fill-opacity="1" /><path clip-path="url(#clip000)" d="M904.462 1484.86 L904.462 1480.6 Q906.221 1481.44 908.026 1481.88 Q909.832 1482.32 911.568 1482.32 Q916.198 1482.32 918.628 1479.21 Q921.082 1476.09 921.429 1469.75 Q920.087 1471.74 918.026 1472.8 Q915.966 1473.87 913.466 1473.87 Q908.281 1473.87 905.249 1470.74 Q902.239 1467.59 902.239 1462.15 Q902.239 1456.83 905.388 1453.61 Q908.536 1450.39 913.767 1450.39 Q919.763 1450.39 922.911 1455 Q926.082 1459.58 926.082 1468.33 Q926.082 1476.51 922.193 1481.39 Q918.327 1486.25 911.776 1486.25 Q910.017 1486.25 908.212 1485.9 Q906.406 1485.56 904.462 1484.86 M913.767 1470.21 Q916.915 1470.21 918.744 1468.06 Q920.596 1465.9 920.596 1462.15 Q920.596 1458.43 918.744 1456.27 Q916.915 1454.1 913.767 1454.1 Q910.619 1454.1 908.767 1456.27 Q906.939 1458.43 906.939 1462.15 Q906.939 1465.9 908.767 1468.06 Q910.619 1470.21 913.767 1470.21 Z" fill="#000000" fill-rule="nonzero" fill-opacity="1" /><path clip-path="url(#clip000)" d="M934.531 1451.02 L952.887 1451.02 L952.887 1454.96 L938.813 1454.96 L938.813 1463.43 Q939.832 1463.08 940.85 1462.92 Q941.869 1462.73 942.887 1462.73 Q948.674 1462.73 952.054 1465.9 Q955.434 1469.08 955.434 1474.49 Q955.434 1480.07 951.961 1483.17 Q948.489 1486.25 942.17 1486.25 Q939.994 1486.25 937.725 1485.88 Q935.48 1485.51 933.073 1484.77 L933.073 1480.07 Q935.156 1481.2 937.378 1481.76 Q939.6 1482.32 942.077 1482.32 Q946.082 1482.32 948.42 1480.21 Q950.758 1478.1 950.758 1474.49 Q950.758 1470.88 948.42 1468.77 Q946.082 1466.67 942.077 1466.67 Q940.202 1466.67 938.327 1467.08 Q936.475 1467.5 934.531 1468.38 L934.531 1451.02 Z" fill="#000000" fill-rule="nonzero" fill-opacity="1" /><path clip-path="url(#clip000)" d="M1297.35 1481.64 L1304.99 1481.64 L1304.99 1455.28 L1296.68 1456.95 L1296.68 1452.69 L1304.95 1451.02 L1309.62 1451.02 L1309.62 1481.64 L1317.26 1481.64 L1317.26 1485.58 L1297.35 1485.58 L1297.35 1481.64 Z" fill="#000000" fill-rule="nonzero" fill-opacity="1" /><path clip-path="url(#clip000)" d="M1336.7 1469.17 Q1333.37 1469.17 1331.45 1470.95 Q1329.55 1472.73 1329.55 1475.86 Q1329.55 1478.98 1331.45 1480.77 Q1333.37 1482.55 1336.7 1482.55 Q1340.04 1482.55 1341.96 1480.77 Q1343.88 1478.96 1343.88 1475.86 Q1343.88 1472.73 1341.96 1470.95 Q1340.06 1469.17 1336.7 1469.17 M1332.03 1467.18 Q1329.02 1466.44 1327.33 1464.38 Q1325.66 1462.32 1325.66 1459.35 Q1325.66 1455.21 1328.6 1452.8 Q1331.57 1450.39 1336.7 1450.39 Q1341.87 1450.39 1344.81 1452.8 Q1347.75 1455.21 1347.75 1459.35 Q1347.75 1462.32 1346.06 1464.38 Q1344.39 1466.44 1341.4 1467.18 Q1344.78 1467.96 1346.66 1470.26 Q1348.56 1472.55 1348.56 1475.86 Q1348.56 1480.88 1345.48 1483.57 Q1342.42 1486.25 1336.7 1486.25 Q1330.99 1486.25 1327.91 1483.57 Q1324.85 1480.88 1324.85 1475.86 Q1324.85 1472.55 1326.75 1470.26 Q1328.65 1467.96 1332.03 1467.18 M1330.32 1459.79 Q1330.32 1462.48 1331.98 1463.98 Q1333.67 1465.49 1336.7 1465.49 Q1339.71 1465.49 1341.4 1463.98 Q1343.12 1462.48 1343.12 1459.79 Q1343.12 1457.11 1341.4 1455.6 Q1339.71 1454.1 1336.7 1454.1 Q1333.67 1454.1 1331.98 1455.6 Q1330.32 1457.11 1330.32 1459.79 Z" fill="#000000" fill-rule="nonzero" fill-opacity="1" /><path clip-path="url(#clip000)" d="M1356.87 1479.7 L1361.75 1479.7 L1361.75 1485.58 L1356.87 1485.58 L1356.87 1479.7 Z" fill="#000000" fill-rule="nonzero" fill-opacity="1" /><path clip-path="url(#clip000)" d="M1381.94 1454.1 Q1378.32 1454.1 1376.5 1457.66 Q1374.69 1461.2 1374.69 1468.33 Q1374.69 1475.44 1376.5 1479.01 Q1378.32 1482.55 1381.94 1482.55 Q1385.57 1482.55 1387.38 1479.01 Q1389.2 1475.44 1389.2 1468.33 Q1389.2 1461.2 1387.38 1457.66 Q1385.57 1454.1 1381.94 1454.1 M1381.94 1450.39 Q1387.75 1450.39 1390.8 1455 Q1393.88 1459.58 1393.88 1468.33 Q1393.88 1477.06 1390.8 1481.67 Q1387.75 1486.25 1381.94 1486.25 Q1376.13 1486.25 1373.05 1481.67 Q1369.99 1477.06 1369.99 1468.33 Q1369.99 1459.58 1373.05 1455 Q1376.13 1450.39 1381.94 1450.39 Z" fill="#000000" fill-rule="nonzero" fill-opacity="1" /><path clip-path="url(#clip000)" d="M1412.1 1454.1 Q1408.49 1454.1 1406.66 1457.66 Q1404.85 1461.2 1404.85 1468.33 Q1404.85 1475.44 1406.66 1479.01 Q1408.49 1482.55 1412.1 1482.55 Q1415.73 1482.55 1417.54 1479.01 Q1419.37 1475.44 1419.37 1468.33 Q1419.37 1461.2 1417.54 1457.66 Q1415.73 1454.1 1412.1 1454.1 M1412.1 1450.39 Q1417.91 1450.39 1420.96 1455 Q1424.04 1459.58 1424.04 1468.33 Q1424.04 1477.06 1420.96 1481.67 Q1417.91 1486.25 1412.1 1486.25 Q1406.29 1486.25 1403.21 1481.67 Q1400.15 1477.06 1400.15 1468.33 Q1400.15 1459.58 1403.21 1455 Q1406.29 1450.39 1412.1 1450.39 Z" fill="#000000" fill-rule="nonzero" fill-opacity="1" /><path clip-path="url(#clip000)" d="M1765.96 1481.64 L1773.6 1481.64 L1773.6 1455.28 L1765.29 1456.95 L1765.29 1452.69 L1773.55 1451.02 L1778.23 1451.02 L1778.23 1481.64 L1785.87 1481.64 L1785.87 1485.58 L1765.96 1485.58 L1765.96 1481.64 Z" fill="#000000" fill-rule="nonzero" fill-opacity="1" /><path clip-path="url(#clip000)" d="M1805.31 1469.17 Q1801.98 1469.17 1800.06 1470.95 Q1798.16 1472.73 1798.16 1475.86 Q1798.16 1478.98 1800.06 1480.77 Q1801.98 1482.55 1805.31 1482.55 Q1808.65 1482.55 1810.57 1480.77 Q1812.49 1478.96 1812.49 1475.86 Q1812.49 1472.73 1810.57 1470.95 Q1808.67 1469.17 1805.31 1469.17 M1800.64 1467.18 Q1797.63 1466.44 1795.94 1464.38 Q1794.27 1462.32 1794.27 1459.35 Q1794.27 1455.21 1797.21 1452.8 Q1800.17 1450.39 1805.31 1450.39 Q1810.47 1450.39 1813.41 1452.8 Q1816.35 1455.21 1816.35 1459.35 Q1816.35 1462.32 1814.66 1464.38 Q1813 1466.44 1810.01 1467.18 Q1813.39 1467.96 1815.27 1470.26 Q1817.16 1472.55 1817.16 1475.86 Q1817.16 1480.88 1814.09 1483.57 Q1811.03 1486.25 1805.31 1486.25 Q1799.59 1486.25 1796.52 1483.57 Q1793.46 1480.88 1793.46 1475.86 Q1793.46 1472.55 1795.36 1470.26 Q1797.26 1467.96 1800.64 1467.18 M1798.92 1459.79 Q1798.92 1462.48 1800.59 1463.98 Q1802.28 1465.49 1805.31 1465.49 Q1808.32 1465.49 1810.01 1463.98 Q1811.72 1462.48 1811.72 1459.79 Q1811.72 1457.11 1810.01 1455.6 Q1808.32 1454.1 1805.31 1454.1 Q1802.28 1454.1 1800.59 1455.6 Q1798.92 1457.11 1798.92 1459.79 Z" fill="#000000" fill-rule="nonzero" fill-opacity="1" /><path clip-path="url(#clip000)" d="M1825.47 1479.7 L1830.36 1479.7 L1830.36 1485.58 L1825.47 1485.58 L1825.47 1479.7 Z" fill="#000000" fill-rule="nonzero" fill-opacity="1" /><path clip-path="url(#clip000)" d="M1850.54 1454.1 Q1846.93 1454.1 1845.1 1457.66 Q1843.3 1461.2 1843.3 1468.33 Q1843.3 1475.44 1845.1 1479.01 Q1846.93 1482.55 1850.54 1482.55 Q1854.18 1482.55 1855.98 1479.01 Q1857.81 1475.44 1857.81 1468.33 Q1857.81 1461.2 1855.98 1457.66 Q1854.18 1454.1 1850.54 1454.1 M1850.54 1450.39 Q1856.35 1450.39 1859.41 1455 Q1862.49 1459.58 1862.49 1468.33 Q1862.49 1477.06 1859.41 1481.67 Q1856.35 1486.25 1850.54 1486.25 Q1844.73 1486.25 1841.65 1481.67 Q1838.6 1477.06 1838.6 1468.33 Q1838.6 1459.58 1841.65 1455 Q1844.73 1450.39 1850.54 1450.39 Z" fill="#000000" fill-rule="nonzero" fill-opacity="1" /><path clip-path="url(#clip000)" d="M1870.75 1451.02 L1889.11 1451.02 L1889.11 1454.96 L1875.03 1454.96 L1875.03 1463.43 Q1876.05 1463.08 1877.07 1462.92 Q1878.09 1462.73 1879.11 1462.73 Q1884.9 1462.73 1888.28 1465.9 Q1891.65 1469.08 1891.65 1474.49 Q1891.65 1480.07 1888.18 1483.17 Q1884.71 1486.25 1878.39 1486.25 Q1876.21 1486.25 1873.95 1485.88 Q1871.7 1485.51 1869.29 1484.77 L1869.29 1480.07 Q1871.38 1481.2 1873.6 1481.76 Q1875.82 1482.32 1878.3 1482.32 Q1882.3 1482.32 1884.64 1480.21 Q1886.98 1478.1 1886.98 1474.49 Q1886.98 1470.88 1884.64 1468.77 Q1882.3 1466.67 1878.3 1466.67 Q1876.42 1466.67 1874.55 1467.08 Q1872.7 1467.5 1870.75 1468.38 L1870.75 1451.02 Z" fill="#000000" fill-rule="nonzero" fill-opacity="1" /><path clip-path="url(#clip000)" d="M2233.57 1481.64 L2241.21 1481.64 L2241.21 1455.28 L2232.9 1456.95 L2232.9 1452.69 L2241.17 1451.02 L2245.84 1451.02 L2245.84 1481.64 L2253.48 1481.64 L2253.48 1485.58 L2233.57 1485.58 L2233.57 1481.64 Z" fill="#000000" fill-rule="nonzero" fill-opacity="1" /><path clip-path="url(#clip000)" d="M2272.93 1469.17 Q2269.59 1469.17 2267.67 1470.95 Q2265.77 1472.73 2265.77 1475.86 Q2265.77 1478.98 2267.67 1480.77 Q2269.59 1482.55 2272.93 1482.55 Q2276.26 1482.55 2278.18 1480.77 Q2280.1 1478.96 2280.1 1475.86 Q2280.1 1472.73 2278.18 1470.95 Q2276.28 1469.17 2272.93 1469.17 M2268.25 1467.18 Q2265.24 1466.44 2263.55 1464.38 Q2261.88 1462.32 2261.88 1459.35 Q2261.88 1455.21 2264.82 1452.8 Q2267.79 1450.39 2272.93 1450.39 Q2278.09 1450.39 2281.03 1452.8 Q2283.97 1455.21 2283.97 1459.35 Q2283.97 1462.32 2282.28 1464.38 Q2280.61 1466.44 2277.62 1467.18 Q2281 1467.96 2282.88 1470.26 Q2284.78 1472.55 2284.78 1475.86 Q2284.78 1480.88 2281.7 1483.57 Q2278.64 1486.25 2272.93 1486.25 Q2267.21 1486.25 2264.13 1483.57 Q2261.07 1480.88 2261.07 1475.86 Q2261.07 1472.55 2262.97 1470.26 Q2264.87 1467.96 2268.25 1467.18 M2266.54 1459.79 Q2266.54 1462.48 2268.2 1463.98 Q2269.89 1465.49 2272.93 1465.49 Q2275.93 1465.49 2277.62 1463.98 Q2279.34 1462.48 2279.34 1459.79 Q2279.34 1457.11 2277.62 1455.6 Q2275.93 1454.1 2272.93 1454.1 Q2269.89 1454.1 2268.2 1455.6 Q2266.54 1457.11 2266.54 1459.79 Z" fill="#000000" fill-rule="nonzero" fill-opacity="1" /><path clip-path="url(#clip000)" d="M2293.09 1479.7 L2297.97 1479.7 L2297.97 1485.58 L2293.09 1485.58 L2293.09 1479.7 Z" fill="#000000" fill-rule="nonzero" fill-opacity="1" /><path clip-path="url(#clip000)" d="M2308.97 1481.64 L2316.61 1481.64 L2316.61 1455.28 L2308.3 1456.95 L2308.3 1452.69 L2316.56 1451.02 L2321.24 1451.02 L2321.24 1481.64 L2328.87 1481.64 L2328.87 1485.58 L2308.97 1485.58 L2308.97 1481.64 Z" fill="#000000" fill-rule="nonzero" fill-opacity="1" /><path clip-path="url(#clip000)" d="M2348.32 1454.1 Q2344.71 1454.1 2342.88 1457.66 Q2341.07 1461.2 2341.07 1468.33 Q2341.07 1475.44 2342.88 1479.01 Q2344.71 1482.55 2348.32 1482.55 Q2351.95 1482.55 2353.76 1479.01 Q2355.59 1475.44 2355.59 1468.33 Q2355.59 1461.2 2353.76 1457.66 Q2351.95 1454.1 2348.32 1454.1 M2348.32 1450.39 Q2354.13 1450.39 2357.18 1455 Q2360.26 1459.58 2360.26 1468.33 Q2360.26 1477.06 2357.18 1481.67 Q2354.13 1486.25 2348.32 1486.25 Q2342.51 1486.25 2339.43 1481.67 Q2336.37 1477.06 2336.37 1468.33 Q2336.37 1459.58 2339.43 1455 Q2342.51 1450.39 2348.32 1450.39 Z" fill="#000000" fill-rule="nonzero" fill-opacity="1" /><path clip-path="url(#clip000)" d="M1068.53 1520.52 L1095.83 1520.52 L1095.83 1525.93 L1074.96 1525.93 L1074.96 1539.94 L1093.8 1539.94 L1093.8 1545.35 L1074.96 1545.35 L1074.96 1568.04 L1068.53 1568.04 L1068.53 1520.52 Z" fill="#000000" fill-rule="nonzero" fill-opacity="1" /><path clip-path="url(#clip000)" d="M1121.68 1537.87 Q1120.69 1537.3 1119.52 1537.04 Q1118.37 1536.76 1116.97 1536.76 Q1112 1536.76 1109.33 1540 Q1106.69 1543.22 1106.69 1549.27 L1106.69 1568.04 L1100.8 1568.04 L1100.8 1532.4 L1106.69 1532.4 L1106.69 1537.93 Q1108.53 1534.69 1111.49 1533.13 Q1114.45 1531.54 1118.69 1531.54 Q1119.29 1531.54 1120.02 1531.63 Q1120.76 1531.7 1121.65 1531.85 L1121.68 1537.87 Z" fill="#000000" fill-rule="nonzero" fill-opacity="1" /><path clip-path="url(#clip000)" d="M1156.88 1548.76 L1156.88 1551.62 L1129.95 1551.62 Q1130.34 1557.67 1133.58 1560.85 Q1136.86 1564 1142.69 1564 Q1146.06 1564 1149.21 1563.17 Q1152.39 1562.35 1155.51 1560.69 L1155.51 1566.23 Q1152.36 1567.57 1149.05 1568.27 Q1145.74 1568.97 1142.34 1568.97 Q1133.81 1568.97 1128.81 1564 Q1123.84 1559.04 1123.84 1550.57 Q1123.84 1541.82 1128.55 1536.69 Q1133.3 1531.54 1141.32 1531.54 Q1148.51 1531.54 1152.68 1536.18 Q1156.88 1540.8 1156.88 1548.76 M1151.03 1547.04 Q1150.96 1542.23 1148.32 1539.37 Q1145.71 1536.5 1141.38 1536.5 Q1136.48 1536.5 1133.52 1539.27 Q1130.59 1542.04 1130.15 1547.07 L1151.03 1547.04 Z" fill="#000000" fill-rule="nonzero" fill-opacity="1" /><path clip-path="url(#clip000)" d="M1170 1550.25 Q1170 1556.71 1172.64 1560.4 Q1175.31 1564.07 1179.96 1564.07 Q1184.6 1564.07 1187.28 1560.4 Q1189.95 1556.71 1189.95 1550.25 Q1189.95 1543.79 1187.28 1540.13 Q1184.6 1536.44 1179.96 1536.44 Q1175.31 1536.44 1172.64 1540.13 Q1170 1543.79 1170 1550.25 M1189.95 1562.7 Q1188.11 1565.88 1185.27 1567.44 Q1182.47 1568.97 1178.53 1568.97 Q1172.06 1568.97 1167.99 1563.81 Q1163.95 1558.65 1163.95 1550.25 Q1163.95 1541.85 1167.99 1536.69 Q1172.06 1531.54 1178.53 1531.54 Q1182.47 1531.54 1185.27 1533.1 Q1188.11 1534.62 1189.95 1537.81 L1189.95 1532.4 L1195.81 1532.4 L1195.81 1581.6 L1189.95 1581.6 L1189.95 1562.7 Z" fill="#000000" fill-rule="nonzero" fill-opacity="1" /><path clip-path="url(#clip000)" d="M1207.27 1553.98 L1207.27 1532.4 L1213.12 1532.4 L1213.12 1553.75 Q1213.12 1558.81 1215.1 1561.36 Q1217.07 1563.87 1221.02 1563.87 Q1225.76 1563.87 1228.5 1560.85 Q1231.27 1557.83 1231.27 1552.61 L1231.27 1532.4 L1237.12 1532.4 L1237.12 1568.04 L1231.27 1568.04 L1231.27 1562.57 Q1229.13 1565.82 1226.3 1567.41 Q1223.5 1568.97 1219.77 1568.97 Q1213.63 1568.97 1210.45 1565.15 Q1207.27 1561.33 1207.27 1553.98 M1222 1531.54 L1222 1531.54 Z" fill="#000000" fill-rule="nonzero" fill-opacity="1" /><path clip-path="url(#clip000)" d="M1279.68 1548.76 L1279.68 1551.62 L1252.75 1551.62 Q1253.13 1557.67 1256.38 1560.85 Q1259.66 1564 1265.48 1564 Q1268.85 1564 1272.01 1563.17 Q1275.19 1562.35 1278.31 1560.69 L1278.31 1566.23 Q1275.16 1567.57 1271.85 1568.27 Q1268.54 1568.97 1265.13 1568.97 Q1256.6 1568.97 1251.6 1564 Q1246.64 1559.04 1246.64 1550.57 Q1246.64 1541.82 1251.35 1536.69 Q1256.09 1531.54 1264.11 1531.54 Q1271.31 1531.54 1275.47 1536.18 Q1279.68 1540.8 1279.68 1548.76 M1273.82 1547.04 Q1273.76 1542.23 1271.11 1539.37 Q1268.5 1536.5 1264.18 1536.5 Q1259.27 1536.5 1256.31 1539.27 Q1253.39 1542.04 1252.94 1547.07 L1273.82 1547.04 Z" fill="#000000" fill-rule="nonzero" fill-opacity="1" /><path clip-path="url(#clip000)" d="M1318.92 1546.53 L1318.92 1568.04 L1313.06 1568.04 L1313.06 1546.72 Q1313.06 1541.66 1311.09 1539.14 Q1309.12 1536.63 1305.17 1536.63 Q1300.43 1536.63 1297.69 1539.65 Q1294.95 1542.68 1294.95 1547.9 L1294.95 1568.04 L1289.07 1568.04 L1289.07 1532.4 L1294.95 1532.4 L1294.95 1537.93 Q1297.05 1534.72 1299.89 1533.13 Q1302.75 1531.54 1306.48 1531.54 Q1312.62 1531.54 1315.77 1535.36 Q1318.92 1539.14 1318.92 1546.53 Z" fill="#000000" fill-rule="nonzero" fill-opacity="1" /><path clip-path="url(#clip000)" d="M1356.26 1533.76 L1356.26 1539.24 Q1353.77 1537.87 1351.26 1537.2 Q1348.78 1536.5 1346.23 1536.5 Q1340.53 1536.5 1337.38 1540.13 Q1334.23 1543.73 1334.23 1550.25 Q1334.23 1556.78 1337.38 1560.4 Q1340.53 1564 1346.23 1564 Q1348.78 1564 1351.26 1563.33 Q1353.77 1562.63 1356.26 1561.26 L1356.26 1566.68 Q1353.8 1567.82 1351.16 1568.39 Q1348.55 1568.97 1345.59 1568.97 Q1337.54 1568.97 1332.8 1563.91 Q1328.06 1558.85 1328.06 1550.25 Q1328.06 1541.53 1332.83 1536.53 Q1337.64 1531.54 1345.98 1531.54 Q1348.68 1531.54 1351.26 1532.11 Q1353.84 1532.65 1356.26 1533.76 Z" fill="#000000" fill-rule="nonzero" fill-opacity="1" /><path clip-path="url(#clip000)" d="M1366.44 1532.4 L1372.3 1532.4 L1372.3 1568.04 L1366.44 1568.04 L1366.44 1532.4 M1366.44 1518.52 L1372.3 1518.52 L1372.3 1525.93 L1366.44 1525.93 L1366.44 1518.52 Z" fill="#000000" fill-rule="nonzero" fill-opacity="1" /><path clip-path="url(#clip000)" d="M1415.04 1548.76 L1415.04 1551.62 L1388.12 1551.62 Q1388.5 1557.67 1391.74 1560.85 Q1395.02 1564 1400.85 1564 Q1404.22 1564 1407.37 1563.17 Q1410.56 1562.35 1413.67 1560.69 L1413.67 1566.23 Q1410.52 1567.57 1407.21 1568.27 Q1403.9 1568.97 1400.5 1568.97 Q1391.97 1568.97 1386.97 1564 Q1382.01 1559.04 1382.01 1550.57 Q1382.01 1541.82 1386.72 1536.69 Q1391.46 1531.54 1399.48 1531.54 Q1406.67 1531.54 1410.84 1536.18 Q1415.04 1540.8 1415.04 1548.76 M1409.19 1547.04 Q1409.12 1542.23 1406.48 1539.37 Q1403.87 1536.5 1399.54 1536.5 Q1394.64 1536.5 1391.68 1539.27 Q1388.75 1542.04 1388.31 1547.07 L1409.19 1547.04 Z" fill="#000000" fill-rule="nonzero" fill-opacity="1" /><path clip-path="url(#clip000)" d="M1447.38 1533.45 L1447.38 1538.98 Q1444.9 1537.71 1442.22 1537.07 Q1439.55 1536.44 1436.69 1536.44 Q1432.33 1536.44 1430.13 1537.77 Q1427.97 1539.11 1427.97 1541.79 Q1427.97 1543.82 1429.53 1545 Q1431.08 1546.15 1435.8 1547.2 L1437.8 1547.64 Q1444.04 1548.98 1446.65 1551.43 Q1449.29 1553.85 1449.29 1558.21 Q1449.29 1563.17 1445.34 1566.07 Q1441.43 1568.97 1434.55 1568.97 Q1431.69 1568.97 1428.57 1568.39 Q1425.48 1567.85 1422.05 1566.74 L1422.05 1560.69 Q1425.29 1562.38 1428.44 1563.24 Q1431.59 1564.07 1434.68 1564.07 Q1438.82 1564.07 1441.05 1562.66 Q1443.27 1561.23 1443.27 1558.65 Q1443.27 1556.27 1441.65 1554.99 Q1440.06 1553.72 1434.62 1552.54 L1432.58 1552.07 Q1427.14 1550.92 1424.72 1548.56 Q1422.3 1546.18 1422.3 1542.04 Q1422.3 1537.01 1425.86 1534.27 Q1429.43 1531.54 1435.99 1531.54 Q1439.23 1531.54 1442.1 1532.01 Q1444.96 1532.49 1447.38 1533.45 Z" fill="#000000" fill-rule="nonzero" fill-opacity="1" /><path clip-path="url(#clip000)" d="M1478.8 1518.52 L1492.29 1518.52 L1492.29 1523.07 L1484.65 1523.07 L1484.65 1572.09 L1492.29 1572.09 L1492.29 1576.64 L1478.8 1576.64 L1478.8 1518.52 Z" fill="#000000" fill-rule="nonzero" fill-opacity="1" /><path clip-path="url(#clip000)" d="M1537.42 1561.26 L1537.42 1548.5 L1526.92 1548.5 L1526.92 1543.22 L1543.79 1543.22 L1543.79 1563.62 Q1540.07 1566.26 1535.58 1567.63 Q1531.09 1568.97 1526 1568.97 Q1514.86 1568.97 1508.56 1562.47 Q1502.29 1555.95 1502.29 1544.33 Q1502.29 1532.68 1508.56 1526.19 Q1514.86 1519.66 1526 1519.66 Q1530.64 1519.66 1534.81 1520.81 Q1539.02 1521.96 1542.55 1524.18 L1542.55 1531.03 Q1538.98 1528 1534.97 1526.48 Q1530.96 1524.95 1526.54 1524.95 Q1517.82 1524.95 1513.43 1529.82 Q1509.06 1534.69 1509.06 1544.33 Q1509.06 1553.94 1513.43 1558.81 Q1517.82 1563.68 1526.54 1563.68 Q1529.94 1563.68 1532.62 1563.11 Q1535.29 1562.51 1537.42 1561.26 Z" fill="#000000" fill-rule="nonzero" fill-opacity="1" /><path clip-path="url(#clip000)" d="M1555.53 1520.52 L1561.96 1520.52 L1561.96 1540 L1585.33 1540 L1585.33 1520.52 L1591.76 1520.52 L1591.76 1568.04 L1585.33 1568.04 L1585.33 1545.41 L1561.96 1545.41 L1561.96 1568.04 L1555.53 1568.04 L1555.53 1520.52 Z" fill="#000000" fill-rule="nonzero" fill-opacity="1" /><path clip-path="url(#clip000)" d="M1601.75 1532.4 L1629.57 1532.4 L1629.57 1537.74 L1607.54 1563.37 L1629.57 1563.37 L1629.57 1568.04 L1600.95 1568.04 L1600.95 1562.7 L1622.98 1537.07 L1601.75 1537.07 L1601.75 1532.4 Z" fill="#000000" fill-rule="nonzero" fill-opacity="1" /><path clip-path="url(#clip000)" d="M1652.2 1518.52 L1652.2 1576.64 L1638.7 1576.64 L1638.7 1572.09 L1646.31 1572.09 L1646.31 1523.07 L1638.7 1523.07 L1638.7 1518.52 L1652.2 1518.52 Z" fill="#000000" fill-rule="nonzero" fill-opacity="1" /><polyline clip-path="url(#clip000)" style="stroke:#000000; stroke-linecap:round; stroke-linejoin:round; stroke-width:4; stroke-opacity:1; fill:none" points="367.967,1423.18 367.967,47.2441 "/>
<polyline clip-path="url(#clip000)" style="stroke:#000000; stroke-linecap:round; stroke-linejoin:round; stroke-width:4; stroke-opacity:1; fill:none" points="367.967,1386.05 386.865,1386.05 "/>
<polyline clip-path="url(#clip000)" style="stroke:#000000; stroke-linecap:round; stroke-linejoin:round; stroke-width:4; stroke-opacity:1; fill:none" points="367.967,1011.64 386.865,1011.64 "/>
<polyline clip-path="url(#clip000)" style="stroke:#000000; stroke-linecap:round; stroke-linejoin:round; stroke-width:4; stroke-opacity:1; fill:none" points="367.967,637.228 386.865,637.228 "/>
<polyline clip-path="url(#clip000)" style="stroke:#000000; stroke-linecap:round; stroke-linejoin:round; stroke-width:4; stroke-opacity:1; fill:none" points="367.967,262.82 386.865,262.82 "/>
<path clip-path="url(#clip000)" d="M320.023 1371.84 Q316.412 1371.84 314.583 1375.41 Q312.778 1378.95 312.778 1386.08 Q312.778 1393.19 314.583 1396.75 Q316.412 1400.29 320.023 1400.29 Q323.657 1400.29 325.463 1396.75 Q327.291 1393.19 327.291 1386.08 Q327.291 1378.95 325.463 1375.41 Q323.657 1371.84 320.023 1371.84 M320.023 1368.14 Q325.833 1368.14 328.889 1372.75 Q331.967 1377.33 331.967 1386.08 Q331.967 1394.81 328.889 1399.41 Q325.833 1404 320.023 1404 Q314.213 1404 311.134 1399.41 Q308.079 1394.81 308.079 1386.08 Q308.079 1377.33 311.134 1372.75 Q314.213 1368.14 320.023 1368.14 Z" fill="#000000" fill-rule="nonzero" fill-opacity="1" /><path clip-path="url(#clip000)" d="M116.142 1000.8 L134.499 1000.8 L134.499 1004.74 L120.425 1004.74 L120.425 1013.21 Q121.443 1012.86 122.462 1012.7 Q123.48 1012.52 124.499 1012.52 Q130.286 1012.52 133.665 1015.69 Q137.045 1018.86 137.045 1024.28 Q137.045 1029.86 133.573 1032.96 Q130.101 1036.04 123.781 1036.04 Q121.605 1036.04 119.337 1035.67 Q117.091 1035.29 114.684 1034.55 L114.684 1029.86 Q116.767 1030.99 118.99 1031.54 Q121.212 1032.1 123.689 1032.1 Q127.693 1032.1 130.031 1029.99 Q132.369 1027.89 132.369 1024.28 Q132.369 1020.67 130.031 1018.56 Q127.693 1016.45 123.689 1016.45 Q121.814 1016.45 119.939 1016.87 Q118.087 1017.29 116.142 1018.17 L116.142 1000.8 Z" fill="#000000" fill-rule="nonzero" fill-opacity="1" /><path clip-path="url(#clip000)" d="M146.258 1029.48 L151.142 1029.48 L151.142 1035.36 L146.258 1035.36 L146.258 1029.48 Z" fill="#000000" fill-rule="nonzero" fill-opacity="1" /><path clip-path="url(#clip000)" d="M171.327 1003.88 Q167.716 1003.88 165.887 1007.45 Q164.082 1010.99 164.082 1018.12 Q164.082 1025.23 165.887 1028.79 Q167.716 1032.33 171.327 1032.33 Q174.962 1032.33 176.767 1028.79 Q178.596 1025.23 178.596 1018.12 Q178.596 1010.99 176.767 1007.45 Q174.962 1003.88 171.327 1003.88 M171.327 1000.18 Q177.137 1000.18 180.193 1004.79 Q183.272 1009.37 183.272 1018.12 Q183.272 1026.85 180.193 1031.45 Q177.137 1036.04 171.327 1036.04 Q165.517 1036.04 162.438 1031.45 Q159.383 1026.85 159.383 1018.12 Q159.383 1009.37 162.438 1004.79 Q165.517 1000.18 171.327 1000.18 Z" fill="#000000" fill-rule="nonzero" fill-opacity="1" /><path clip-path="url(#clip000)" d="M201.489 1003.88 Q197.878 1003.88 196.049 1007.45 Q194.244 1010.99 194.244 1018.12 Q194.244 1025.23 196.049 1028.79 Q197.878 1032.33 201.489 1032.33 Q205.123 1032.33 206.929 1028.79 Q208.758 1025.23 208.758 1018.12 Q208.758 1010.99 206.929 1007.45 Q205.123 1003.88 201.489 1003.88 M201.489 1000.18 Q207.299 1000.18 210.355 1004.79 Q213.434 1009.37 213.434 1018.12 Q213.434 1026.85 210.355 1031.45 Q207.299 1036.04 201.489 1036.04 Q195.679 1036.04 192.6 1031.45 Q189.545 1026.85 189.545 1018.12 Q189.545 1009.37 192.6 1004.79 Q195.679 1000.18 201.489 1000.18 Z" fill="#000000" fill-rule="nonzero" fill-opacity="1" /><path clip-path="url(#clip000)" d="M249.822 1009.9 L239.244 1020.53 L249.822 1031.11 L247.068 1033.91 L236.443 1023.28 L225.818 1033.91 L223.086 1031.11 L233.642 1020.53 L223.086 1009.9 L225.818 1007.1 L236.443 1017.73 L247.068 1007.1 L249.822 1009.9 Z" fill="#000000" fill-rule="nonzero" fill-opacity="1" /><path clip-path="url(#clip000)" d="M262.183 1031.43 L269.822 1031.43 L269.822 1005.06 L261.512 1006.73 L261.512 1002.47 L269.776 1000.8 L274.452 1000.8 L274.452 1031.43 L282.091 1031.43 L282.091 1035.36 L262.183 1035.36 L262.183 1031.43 Z" fill="#000000" fill-rule="nonzero" fill-opacity="1" /><path clip-path="url(#clip000)" d="M301.535 1003.88 Q297.924 1003.88 296.095 1007.45 Q294.29 1010.99 294.29 1018.12 Q294.29 1025.23 296.095 1028.79 Q297.924 1032.33 301.535 1032.33 Q305.169 1032.33 306.975 1028.79 Q308.803 1025.23 308.803 1018.12 Q308.803 1010.99 306.975 1007.45 Q305.169 1003.88 301.535 1003.88 M301.535 1000.18 Q307.345 1000.18 310.401 1004.79 Q313.479 1009.37 313.479 1018.12 Q313.479 1026.85 310.401 1031.45 Q307.345 1036.04 301.535 1036.04 Q295.725 1036.04 292.646 1031.45 Q289.591 1026.85 289.591 1018.12 Q289.591 1009.37 292.646 1004.79 Q295.725 1000.18 301.535 1000.18 Z" fill="#000000" fill-rule="nonzero" fill-opacity="1" /><path clip-path="url(#clip000)" d="M326.175 992.814 Q328.902 993.397 330.425 995.24 Q331.967 997.083 331.967 999.791 Q331.967 1003.95 329.109 1006.22 Q326.25 1008.5 320.984 1008.5 Q319.216 1008.5 317.335 1008.14 Q315.473 1007.8 313.479 1007.11 L313.479 1003.44 Q315.059 1004.36 316.94 1004.83 Q318.821 1005.3 320.871 1005.3 Q324.444 1005.3 326.306 1003.89 Q328.187 1002.48 328.187 999.791 Q328.187 997.309 326.438 995.917 Q324.708 994.506 321.604 994.506 L318.332 994.506 L318.332 991.384 L321.755 991.384 Q324.557 991.384 326.043 990.275 Q327.529 989.146 327.529 987.04 Q327.529 984.877 325.986 983.729 Q324.463 982.563 321.604 982.563 Q320.043 982.563 318.256 982.902 Q316.47 983.24 314.326 983.955 L314.326 980.57 Q316.489 979.968 318.369 979.667 Q320.269 979.366 321.943 979.366 Q326.269 979.366 328.789 981.341 Q331.309 983.297 331.309 986.645 Q331.309 988.977 329.974 990.594 Q328.638 992.193 326.175 992.814 Z" fill="#000000" fill-rule="nonzero" fill-opacity="1" /><path clip-path="url(#clip000)" d="M114.931 657.021 L122.57 657.021 L122.57 630.655 L114.26 632.322 L114.26 628.062 L122.524 626.396 L127.2 626.396 L127.2 657.021 L134.839 657.021 L134.839 660.956 L114.931 660.956 L114.931 657.021 Z" fill="#000000" fill-rule="nonzero" fill-opacity="1" /><path clip-path="url(#clip000)" d="M144.283 655.076 L149.167 655.076 L149.167 660.956 L144.283 660.956 L144.283 655.076 Z" fill="#000000" fill-rule="nonzero" fill-opacity="1" /><path clip-path="url(#clip000)" d="M169.352 629.474 Q165.741 629.474 163.913 633.039 Q162.107 636.581 162.107 643.71 Q162.107 650.817 163.913 654.382 Q165.741 657.923 169.352 657.923 Q172.987 657.923 174.792 654.382 Q176.621 650.817 176.621 643.71 Q176.621 636.581 174.792 633.039 Q172.987 629.474 169.352 629.474 M169.352 625.771 Q175.163 625.771 178.218 630.377 Q181.297 634.96 181.297 643.71 Q181.297 652.437 178.218 657.044 Q175.163 661.627 169.352 661.627 Q163.542 661.627 160.464 657.044 Q157.408 652.437 157.408 643.71 Q157.408 634.96 160.464 630.377 Q163.542 625.771 169.352 625.771 Z" fill="#000000" fill-rule="nonzero" fill-opacity="1" /><path clip-path="url(#clip000)" d="M199.514 629.474 Q195.903 629.474 194.075 633.039 Q192.269 636.581 192.269 643.71 Q192.269 650.817 194.075 654.382 Q195.903 657.923 199.514 657.923 Q203.149 657.923 204.954 654.382 Q206.783 650.817 206.783 643.71 Q206.783 636.581 204.954 633.039 Q203.149 629.474 199.514 629.474 M199.514 625.771 Q205.324 625.771 208.38 630.377 Q211.459 634.96 211.459 643.71 Q211.459 652.437 208.38 657.044 Q205.324 661.627 199.514 661.627 Q193.704 661.627 190.625 657.044 Q187.57 652.437 187.57 643.71 Q187.57 634.96 190.625 630.377 Q193.704 625.771 199.514 625.771 Z" fill="#000000" fill-rule="nonzero" fill-opacity="1" /><path clip-path="url(#clip000)" d="M247.847 635.493 L237.269 646.118 L247.847 656.696 L245.093 659.497 L234.468 648.872 L223.843 659.497 L221.111 656.696 L231.667 646.118 L221.111 635.493 L223.843 632.692 L234.468 643.317 L245.093 632.692 L247.847 635.493 Z" fill="#000000" fill-rule="nonzero" fill-opacity="1" /><path clip-path="url(#clip000)" d="M260.208 657.021 L267.847 657.021 L267.847 630.655 L259.537 632.322 L259.537 628.062 L267.801 626.396 L272.477 626.396 L272.477 657.021 L280.116 657.021 L280.116 660.956 L260.208 660.956 L260.208 657.021 Z" fill="#000000" fill-rule="nonzero" fill-opacity="1" /><path clip-path="url(#clip000)" d="M299.56 629.474 Q295.949 629.474 294.12 633.039 Q292.315 636.581 292.315 643.71 Q292.315 650.817 294.12 654.382 Q295.949 657.923 299.56 657.923 Q303.194 657.923 305 654.382 Q306.829 650.817 306.829 643.71 Q306.829 636.581 305 633.039 Q303.194 629.474 299.56 629.474 M299.56 625.771 Q305.37 625.771 308.426 630.377 Q311.504 634.96 311.504 643.71 Q311.504 652.437 308.426 657.044 Q305.37 661.627 299.56 661.627 Q293.75 661.627 290.671 657.044 Q287.616 652.437 287.616 643.71 Q287.616 634.96 290.671 630.377 Q293.75 625.771 299.56 625.771 Z" fill="#000000" fill-rule="nonzero" fill-opacity="1" /><path clip-path="url(#clip000)" d="M324.181 608.775 L314.589 623.765 L324.181 623.765 L324.181 608.775 M323.184 605.465 L327.961 605.465 L327.961 623.765 L331.967 623.765 L331.967 626.925 L327.961 626.925 L327.961 633.545 L324.181 633.545 L324.181 626.925 L311.504 626.925 L311.504 623.257 L323.184 605.465 Z" fill="#000000" fill-rule="nonzero" fill-opacity="1" /><path clip-path="url(#clip000)" d="M114.931 282.612 L122.57 282.612 L122.57 256.246 L114.26 257.913 L114.26 253.654 L122.524 251.987 L127.2 251.987 L127.2 282.612 L134.839 282.612 L134.839 286.547 L114.931 286.547 L114.931 282.612 Z" fill="#000000" fill-rule="nonzero" fill-opacity="1" /><path clip-path="url(#clip000)" d="M144.283 280.668 L149.167 280.668 L149.167 286.547 L144.283 286.547 L144.283 280.668 Z" fill="#000000" fill-rule="nonzero" fill-opacity="1" /><path clip-path="url(#clip000)" d="M159.399 251.987 L177.755 251.987 L177.755 255.922 L163.681 255.922 L163.681 264.394 Q164.7 264.047 165.718 263.885 Q166.737 263.7 167.755 263.7 Q173.542 263.7 176.922 266.871 Q180.301 270.043 180.301 275.459 Q180.301 281.038 176.829 284.14 Q173.357 287.218 167.038 287.218 Q164.862 287.218 162.593 286.848 Q160.348 286.478 157.94 285.737 L157.94 281.038 Q160.024 282.172 162.246 282.728 Q164.468 283.283 166.945 283.283 Q170.95 283.283 173.288 281.177 Q175.626 279.07 175.626 275.459 Q175.626 271.848 173.288 269.742 Q170.95 267.635 166.945 267.635 Q165.07 267.635 163.195 268.052 Q161.343 268.469 159.399 269.348 L159.399 251.987 Z" fill="#000000" fill-rule="nonzero" fill-opacity="1" /><path clip-path="url(#clip000)" d="M199.514 255.066 Q195.903 255.066 194.075 258.631 Q192.269 262.172 192.269 269.302 Q192.269 276.408 194.075 279.973 Q195.903 283.515 199.514 283.515 Q203.149 283.515 204.954 279.973 Q206.783 276.408 206.783 269.302 Q206.783 262.172 204.954 258.631 Q203.149 255.066 199.514 255.066 M199.514 251.362 Q205.324 251.362 208.38 255.969 Q211.459 260.552 211.459 269.302 Q211.459 278.029 208.38 282.635 Q205.324 287.218 199.514 287.218 Q193.704 287.218 190.625 282.635 Q187.57 278.029 187.57 269.302 Q187.57 260.552 190.625 255.969 Q193.704 251.362 199.514 251.362 Z" fill="#000000" fill-rule="nonzero" fill-opacity="1" /><path clip-path="url(#clip000)" d="M247.847 261.084 L237.269 271.709 L247.847 282.288 L245.093 285.089 L234.468 274.464 L223.843 285.089 L221.111 282.288 L231.667 271.709 L221.111 261.084 L223.843 258.283 L234.468 268.908 L245.093 258.283 L247.847 261.084 Z" fill="#000000" fill-rule="nonzero" fill-opacity="1" /><path clip-path="url(#clip000)" d="M260.208 282.612 L267.847 282.612 L267.847 256.246 L259.537 257.913 L259.537 253.654 L267.801 251.987 L272.477 251.987 L272.477 282.612 L280.116 282.612 L280.116 286.547 L260.208 286.547 L260.208 282.612 Z" fill="#000000" fill-rule="nonzero" fill-opacity="1" /><path clip-path="url(#clip000)" d="M299.56 255.066 Q295.949 255.066 294.12 258.631 Q292.315 262.172 292.315 269.302 Q292.315 276.408 294.12 279.973 Q295.949 283.515 299.56 283.515 Q303.194 283.515 305 279.973 Q306.829 276.408 306.829 269.302 Q306.829 262.172 305 258.631 Q303.194 255.066 299.56 255.066 M299.56 251.362 Q305.37 251.362 308.426 255.969 Q311.504 260.552 311.504 269.302 Q311.504 278.029 308.426 282.635 Q305.37 287.218 299.56 287.218 Q293.75 287.218 290.671 282.635 Q287.616 278.029 287.616 269.302 Q287.616 260.552 290.671 255.969 Q293.75 251.362 299.56 251.362 Z" fill="#000000" fill-rule="nonzero" fill-opacity="1" /><path clip-path="url(#clip000)" d="M324.181 234.367 L314.589 249.357 L324.181 249.357 L324.181 234.367 M323.184 231.057 L327.961 231.057 L327.961 249.357 L331.967 249.357 L331.967 252.516 L327.961 252.516 L327.961 259.137 L324.181 259.137 L324.181 252.516 L311.504 252.516 L311.504 248.849 L323.184 231.057 Z" fill="#000000" fill-rule="nonzero" fill-opacity="1" /><path clip-path="url(#clip000)" d="M41.7242 960.972 Q42.4244 958.903 44.7161 956.961 Q47.0077 954.988 51.0181 953.015 L64.0042 946.49 L64.0042 953.397 L51.8138 959.476 Q47.0395 961.831 45.48 964.059 Q43.9204 966.255 43.9204 970.075 L43.9204 977.077 L64.0042 977.077 L64.0042 983.506 L16.4842 983.506 L16.4842 968.993 Q16.4842 960.844 19.8898 956.834 Q23.2955 952.824 30.1704 952.824 Q34.6582 952.824 37.6183 954.924 Q40.5784 956.993 41.7242 960.972 M21.7677 977.077 L38.6368 977.077 L38.6368 968.993 Q38.6368 964.346 36.5043 961.99 Q34.34 959.603 30.1704 959.603 Q26.0009 959.603 23.9002 961.99 Q21.7677 964.346 21.7677 968.993 L21.7677 977.077 Z" fill="#000000" fill-rule="nonzero" fill-opacity="1" /><path clip-path="url(#clip000)" d="M44.7161 910.905 L47.5806 910.905 L47.5806 937.832 Q53.6281 937.45 56.8109 934.204 Q59.9619 930.926 59.9619 925.101 Q59.9619 921.727 59.1344 918.576 Q58.3069 915.393 56.6518 912.274 L62.1899 912.274 Q63.5267 915.425 64.227 918.735 Q64.9272 922.045 64.9272 925.451 Q64.9272 933.981 59.9619 938.978 Q54.9967 943.943 46.5303 943.943 Q37.7774 943.943 32.6531 939.233 Q27.4968 934.49 27.4968 926.47 Q27.4968 919.276 32.1438 915.107 Q36.7589 910.905 44.7161 910.905 M42.9973 916.762 Q38.1912 916.826 35.3266 919.467 Q32.4621 922.077 32.4621 926.406 Q32.4621 931.308 35.2312 934.268 Q38.0002 937.196 43.0292 937.641 L42.9973 916.762 Z" fill="#000000" fill-rule="nonzero" fill-opacity="1" /><path clip-path="url(#clip000)" d="M14.479 883.246 L19.3487 883.246 L19.3487 888.848 Q19.3487 891.999 20.6219 893.241 Q21.895 894.45 25.2052 894.45 L28.3562 894.45 L28.3562 884.806 L32.9077 884.806 L32.9077 894.45 L64.0042 894.45 L64.0042 900.338 L32.9077 900.338 L32.9077 905.94 L28.3562 905.94 L28.3562 900.338 L25.8736 900.338 Q19.9216 900.338 17.2162 897.569 Q14.479 894.8 14.479 888.785 L14.479 883.246 Z" fill="#000000" fill-rule="nonzero" fill-opacity="1" /><path clip-path="url(#clip000)" d="M14.479 878.345 L14.479 872.488 L64.0042 872.488 L64.0042 878.345 L14.479 878.345 Z" fill="#000000" fill-rule="nonzero" fill-opacity="1" /><path clip-path="url(#clip000)" d="M44.7161 829.743 L47.5806 829.743 L47.5806 856.67 Q53.6281 856.288 56.8109 853.041 Q59.9619 849.763 59.9619 843.938 Q59.9619 840.564 59.1344 837.413 Q58.3069 834.231 56.6518 831.111 L62.1899 831.111 Q63.5267 834.262 64.227 837.573 Q64.9272 840.883 64.9272 844.288 Q64.9272 852.818 59.9619 857.815 Q54.9967 862.781 46.5303 862.781 Q37.7774 862.781 32.6531 858.07 Q27.4968 853.328 27.4968 845.307 Q27.4968 838.114 32.1438 833.944 Q36.7589 829.743 44.7161 829.743 M42.9973 835.599 Q38.1912 835.663 35.3266 838.305 Q32.4621 840.915 32.4621 845.243 Q32.4621 850.145 35.2312 853.105 Q38.0002 856.033 43.0292 856.479 L42.9973 835.599 Z" fill="#000000" fill-rule="nonzero" fill-opacity="1" /><path clip-path="url(#clip000)" d="M29.7248 794.477 L35.1993 794.477 Q33.8307 796.959 33.1623 799.474 Q32.4621 801.956 32.4621 804.503 Q32.4621 810.2 36.0905 813.351 Q39.6872 816.502 46.212 816.502 Q52.7369 816.502 56.3653 813.351 Q59.9619 810.2 59.9619 804.503 Q59.9619 801.956 59.2935 799.474 Q58.5933 796.959 57.2247 794.477 L62.6355 794.477 Q63.7814 796.927 64.3543 799.569 Q64.9272 802.179 64.9272 805.139 Q64.9272 813.192 59.8664 817.934 Q54.8057 822.677 46.212 822.677 Q37.491 822.677 32.4939 817.902 Q27.4968 813.096 27.4968 804.757 Q27.4968 802.052 28.0697 799.474 Q28.6108 796.896 29.7248 794.477 Z" fill="#000000" fill-rule="nonzero" fill-opacity="1" /><path clip-path="url(#clip000)" d="M18.2347 778.499 L28.3562 778.499 L28.3562 766.436 L32.9077 766.436 L32.9077 778.499 L52.2594 778.499 Q56.6199 778.499 57.8613 777.321 Q59.1026 776.112 59.1026 772.451 L59.1026 766.436 L64.0042 766.436 L64.0042 772.451 Q64.0042 779.231 61.4897 781.809 Q58.9434 784.387 52.2594 784.387 L32.9077 784.387 L32.9077 788.684 L28.3562 788.684 L28.3562 784.387 L18.2347 784.387 L18.2347 778.499 Z" fill="#000000" fill-rule="nonzero" fill-opacity="1" /><path clip-path="url(#clip000)" d="M28.3562 758.733 L28.3562 752.877 L64.0042 752.877 L64.0042 758.733 L28.3562 758.733 M14.479 758.733 L14.479 752.877 L21.895 752.877 L21.895 758.733 L14.479 758.733 Z" fill="#000000" fill-rule="nonzero" fill-opacity="1" /><path clip-path="url(#clip000)" d="M28.3562 744.824 L28.3562 738.618 L58.275 727.478 L28.3562 716.338 L28.3562 710.131 L64.0042 723.499 L64.0042 731.456 L28.3562 744.824 Z" fill="#000000" fill-rule="nonzero" fill-opacity="1" /><path clip-path="url(#clip000)" d="M28.3562 702.047 L28.3562 696.19 L64.0042 696.19 L64.0042 702.047 L28.3562 702.047 M14.479 702.047 L14.479 696.19 L21.895 696.19 L21.895 702.047 L14.479 702.047 Z" fill="#000000" fill-rule="nonzero" fill-opacity="1" /><path clip-path="url(#clip000)" d="M18.2347 678.143 L28.3562 678.143 L28.3562 666.08 L32.9077 666.08 L32.9077 678.143 L52.2594 678.143 Q56.6199 678.143 57.8613 676.966 Q59.1026 675.756 59.1026 672.096 L59.1026 666.08 L64.0042 666.08 L64.0042 672.096 Q64.0042 678.875 61.4897 681.454 Q58.9434 684.032 52.2594 684.032 L32.9077 684.032 L32.9077 688.329 L28.3562 688.329 L28.3562 684.032 L18.2347 684.032 L18.2347 678.143 Z" fill="#000000" fill-rule="nonzero" fill-opacity="1" /><path clip-path="url(#clip000)" d="M67.3143 643.546 Q73.68 646.028 75.6216 648.384 Q77.5631 650.739 77.5631 654.686 L77.5631 659.365 L72.6615 659.365 L72.6615 655.927 Q72.6615 653.508 71.5157 652.171 Q70.3699 650.835 66.1048 649.211 L63.4312 648.161 L28.3562 662.579 L28.3562 656.373 L56.238 645.233 L28.3562 634.093 L28.3562 627.886 L67.3143 643.546 Z" fill="#000000" fill-rule="nonzero" fill-opacity="1" /><path clip-path="url(#clip000)" d="M18.0438 570.34 L24.314 570.34 Q22.5634 574 21.704 577.247 Q20.8447 580.493 20.8447 583.517 Q20.8447 588.769 22.8817 591.633 Q24.9187 594.466 28.6745 594.466 Q31.8255 594.466 33.4488 592.588 Q35.0402 590.679 36.0269 585.395 L36.8226 581.512 Q38.1912 574.319 41.6605 570.913 Q45.098 567.476 50.8908 567.476 Q57.7976 567.476 61.3624 572.123 Q64.9272 576.738 64.9272 585.682 Q64.9272 589.055 64.1633 592.875 Q63.3994 596.662 61.9035 600.736 L55.2831 600.736 Q57.4793 596.822 58.5933 593.066 Q59.7073 589.31 59.7073 585.682 Q59.7073 580.175 57.543 577.183 Q55.3786 574.191 51.3682 574.191 Q47.8671 574.191 45.8937 576.356 Q43.9204 578.488 42.9337 583.39 L42.1698 587.305 Q40.7375 594.498 37.682 597.713 Q34.6264 600.927 29.1837 600.927 Q22.8817 600.927 19.2532 596.503 Q15.6248 592.047 15.6248 584.249 Q15.6248 580.907 16.2295 577.438 Q16.8343 573.969 18.0438 570.34 Z" fill="#000000" fill-rule="nonzero" fill-opacity="1" /><path clip-path="url(#clip000)" d="M58.5933 555.763 L58.5933 545.259 L22.3406 545.259 L24.6323 556.686 L18.7758 556.686 L16.4842 545.323 L16.4842 538.894 L58.5933 538.894 L58.5933 528.39 L64.0042 528.39 L64.0042 555.763 L58.5933 555.763 Z" fill="#000000" fill-rule="nonzero" fill-opacity="1" /><path clip-path="url(#clip000)" d="M58.5933 514.29 L58.5933 503.787 L22.3406 503.787 L24.6323 515.213 L18.7758 515.213 L16.4842 503.85 L16.4842 497.421 L58.5933 497.421 L58.5933 486.918 L64.0042 486.918 L64.0042 514.29 L58.5933 514.29 Z" fill="#000000" fill-rule="nonzero" fill-opacity="1" /><polyline clip-path="url(#clip002)" style="stroke:#009af9; stroke-linecap:round; stroke-linejoin:round; stroke-width:4; stroke-opacity:1; fill:none" points="424.141,1384.24 426.015,1384.23 427.889,1384.22 429.764,1384.21 431.638,1384.2 433.512,1384.18 435.386,1384.17 437.261,1384.16 439.135,1384.15 441.009,1384.14 442.884,1384.13 444.758,1384.12 446.632,1384.11 448.507,1384.09 450.381,1384.08 452.255,1384.07 454.13,1384.06 456.004,1384.05 457.878,1384.04 459.753,1384.02 461.627,1384.01 463.501,1384 465.376,1383.99 467.25,1383.97 469.124,1383.96 470.998,1383.95 472.873,1383.94 474.747,1383.92 476.621,1383.91 478.496,1383.9 480.37,1383.88 482.244,1383.87 484.119,1383.86 485.993,1383.85 487.867,1383.83 489.742,1383.82 491.616,1383.8 493.49,1383.79 495.365,1383.78 497.239,1383.76 499.113,1383.75 500.988,1383.74 502.862,1383.72 504.736,1383.71 506.611,1383.69 508.485,1383.68 510.359,1383.66 512.233,1383.65 514.108,1383.63 515.982,1383.62 517.856,1383.6 519.731,1383.59 521.605,1383.57 523.479,1383.56 525.354,1383.54 527.228,1383.53 529.102,1383.51 530.977,1383.49 532.851,1383.48 534.725,1383.46 536.6,1383.45 538.474,1383.43 540.348,1383.41 542.223,1383.4 544.097,1383.38 545.971,1383.36 547.845,1383.35 549.72,1383.33 551.594,1383.31 553.468,1383.29 555.343,1383.28 557.217,1383.26 559.091,1383.24 560.966,1383.22 562.84,1383.2 564.714,1383.19 566.589,1383.17 568.463,1383.15 570.337,1383.13 572.212,1383.11 574.086,1383.09 575.96,1383.07 577.835,1383.05 579.709,1383.04 581.583,1383.02 583.457,1383 585.332,1382.98 587.206,1382.96 589.08,1382.94 590.955,1382.92 592.829,1382.89 594.703,1382.87 596.578,1382.85 598.452,1382.83 600.326,1382.81 602.201,1382.79 604.075,1382.77 605.949,1382.75 607.824,1382.72 609.698,1382.7 611.572,1382.68 613.447,1382.66 615.321,1382.63 617.195,1382.61 619.069,1382.59 620.944,1382.57 622.818,1382.54 624.692,1382.52 626.567,1382.49 628.441,1382.47 630.315,1382.45 632.19,1382.42 634.064,1382.4 635.938,1382.37 637.813,1382.35 639.687,1382.32 641.561,1382.3 643.436,1382.27 645.31,1382.24 647.184,1382.22 649.059,1382.19 650.933,1382.17 652.807,1382.14 654.682,1382.11 656.556,1382.08 658.43,1382.06 660.304,1382.03 662.179,1382 664.053,1381.97 665.927,1381.94 667.802,1381.92 669.676,1381.89 671.55,1381.86 673.425,1381.83 675.299,1381.8 677.173,1381.77 679.048,1381.74 680.922,1381.71 682.796,1381.68 684.671,1381.64 686.545,1381.61 688.419,1381.58 690.294,1381.55 692.168,1381.52 694.042,1381.48 695.916,1381.45 697.791,1381.42 699.665,1381.38 701.539,1381.35 703.414,1381.32 705.288,1381.28 707.162,1381.25 709.037,1381.21 710.911,1381.18 712.785,1381.14 714.66,1381.1 716.534,1381.07 718.408,1381.03 720.283,1380.99 722.157,1380.96 724.031,1380.92 725.906,1380.88 727.78,1380.84 729.654,1380.8 731.528,1380.76 733.403,1380.72 735.277,1380.68 737.151,1380.64 739.026,1380.6 740.9,1380.56 742.774,1380.52 744.649,1380.48 746.523,1380.43 748.397,1380.39 750.272,1380.35 752.146,1380.3 754.02,1380.26 755.895,1380.21 757.769,1380.17 759.643,1380.12 761.518,1380.08 763.392,1380.03 765.266,1379.98 767.14,1379.94 769.015,1379.89 770.889,1379.84 772.763,1379.79 774.638,1379.74 776.512,1379.69 778.386,1379.64 780.261,1379.59 782.135,1379.54 784.009,1379.49 785.884,1379.43 787.758,1379.38 789.632,1379.33 791.507,1379.27 793.381,1379.22 795.255,1379.16 797.13,1379.11 799.004,1379.05 800.878,1378.99 802.752,1378.93 804.627,1378.88 806.501,1378.82 808.375,1378.76 810.25,1378.7 812.124,1378.63 813.998,1378.57 815.873,1378.51 817.747,1378.45 819.621,1378.38 821.496,1378.32 823.37,1378.25 825.244,1378.19 827.119,1378.12 828.993,1378.05 830.867,1377.99 832.742,1377.92 834.616,1377.85 836.49,1377.78 838.365,1377.7 840.239,1377.63 842.113,1377.56 843.987,1377.49 845.862,1377.41 847.736,1377.34 849.61,1377.26 851.485,1377.18 853.359,1377.1 855.233,1377.02 857.108,1376.94 858.982,1376.86 860.856,1376.78 862.731,1376.7 864.605,1376.61 866.479,1376.53 868.354,1376.44 870.228,1376.36 872.102,1376.27 873.977,1376.18 875.851,1376.09 877.725,1376 879.599,1375.9 881.474,1375.81 883.348,1375.72 885.222,1375.62 887.097,1375.52 888.971,1375.43 890.845,1375.33 892.72,1375.22 894.594,1375.12 896.468,1375.02 898.343,1374.91 900.217,1374.81 902.091,1374.7 903.966,1374.59 905.84,1374.48 907.714,1374.37 909.589,1374.26 911.463,1374.14 913.337,1374.03 915.211,1373.91 917.086,1373.79 918.96,1373.67 920.834,1373.55 922.709,1373.42 924.583,1373.3 926.457,1373.17 928.332,1373.04 930.206,1372.91 932.08,1372.78 933.955,1372.64 935.829,1372.51 937.703,1372.37 939.578,1372.23 941.452,1372.09 943.326,1371.94 945.201,1371.8 947.075,1371.65 948.949,1371.5 950.823,1371.34 952.698,1371.19 954.572,1371.03 956.446,1370.87 958.321,1370.71 960.195,1370.55 962.069,1370.38 963.944,1370.21 965.818,1370.04 967.692,1369.87 969.567,1369.69 971.441,1369.52 973.315,1369.33 975.19,1369.15 977.064,1368.96 978.938,1368.77 980.813,1368.58 982.687,1368.39 984.561,1368.19 986.435,1367.98 988.31,1367.78 990.184,1367.57 992.058,1367.36 993.933,1367.15 995.807,1366.93 997.681,1366.71 999.556,1366.48 1001.43,1366.25 1003.3,1366.02 1005.18,1365.79 1007.05,1365.55 1008.93,1365.3 1010.8,1365.05 1012.68,1364.8 1014.55,1364.55 1016.42,1364.29 1018.3,1364.02 1020.17,1363.75 1022.05,1363.48 1023.92,1363.2 1025.8,1362.92 1027.67,1362.63 1029.54,1362.34 1031.42,1362.04 1033.29,1361.73 1035.17,1361.43 1037.04,1361.11 1038.92,1360.79 1040.79,1360.47 1042.66,1360.14 1044.54,1359.8 1046.41,1359.46 1048.29,1359.11 1050.16,1358.75 1052.04,1358.39 1053.91,1358.02 1055.79,1357.64 1057.66,1357.26 1059.53,1356.87 1061.41,1356.47 1063.28,1356.07 1065.16,1355.65 1067.03,1355.23 1068.91,1354.8 1070.78,1354.37 1072.65,1353.92 1074.53,1353.47 1076.4,1353 1078.28,1352.53 1080.15,1352.05 1082.03,1351.56 1083.9,1351.05 1085.77,1350.54 1087.65,1350.02 1089.52,1349.48 1091.4,1348.94 1093.27,1348.38 1095.15,1347.81 1097.02,1347.23 1098.89,1346.64 1100.77,1346.04 1102.64,1345.42 1104.52,1344.79 1106.39,1344.14 1108.27,1343.48 1110.14,1342.81 1112.01,1342.12 1113.89,1341.41 1115.76,1340.69 1117.64,1339.95 1119.51,1339.2 1121.39,1338.43 1123.26,1337.64 1125.13,1336.83 1127.01,1336 1128.88,1335.16 1130.76,1334.29 1132.63,1333.4 1134.51,1332.49 1136.38,1331.56 1138.26,1330.61 1140.13,1329.63 1142,1328.63 1143.88,1327.6 1145.75,1326.54 1147.63,1325.46 1149.5,1324.36 1151.38,1323.22 1153.25,1322.05 1155.12,1320.85 1157,1319.62 1158.87,1318.36 1160.75,1317.07 1162.62,1315.74 1164.5,1314.37 1166.37,1312.96 1168.24,1311.52 1170.12,1310.04 1171.99,1308.51 1173.87,1306.94 1175.74,1305.32 1177.62,1303.66 1179.49,1301.95 1181.36,1300.19 1183.24,1298.38 1185.11,1296.51 1186.99,1294.59 1188.86,1292.61 1190.74,1290.57 1192.61,1288.46 1194.48,1286.29 1196.36,1284.05 1198.23,1281.74 1200.11,1279.36 1201.98,1276.9 1203.86,1274.36 1205.73,1271.73 1207.6,1269.02 1209.48,1266.22 1211.35,1263.32 1213.23,1260.32 1215.1,1257.23 1216.98,1254.02 1218.85,1250.7 1220.73,1247.26 1222.6,1243.71 1224.47,1240.02 1226.35,1236.2 1228.22,1232.24 1230.1,1228.13 1231.97,1223.87 1233.85,1219.45 1235.72,1214.86 1237.59,1210.09 1239.47,1205.14 1241.34,1199.99 1243.22,1194.65 1245.09,1189.09 1246.97,1183.3 1248.84,1177.29 1250.71,1171.02 1252.59,1164.5 1254.46,1157.7 1256.34,1150.63 1258.21,1143.25 1260.09,1135.55 1261.96,1127.53 1263.83,1119.16 1265.71,1110.42 1267.58,1101.3 1269.46,1091.78 1271.33,1081.83 1273.21,1071.44 1275.08,1060.57 1276.95,1049.22 1278.83,1037.35 1280.7,1024.94 1282.58,1011.96 1284.45,998.385 1286.33,984.187 1288.2,969.337 1290.07,953.806 1291.95,937.563 1293.82,920.581 1295.7,902.827 1297.57,884.276 1299.45,864.897 1301.32,844.665 1303.19,823.557 1305.07,801.55 1306.94,778.629 1308.82,754.78 1310.69,729.998 1312.57,704.284 1314.44,677.649 1316.32,650.114 1318.19,621.711 1320.06,592.489 1321.94,562.513 1323.81,531.864 1325.69,500.645 1327.56,468.983 1329.44,437.026 1331.31,404.949 1333.18,372.953 1335.06,341.264 1336.93,310.132 1338.81,279.831 1340.68,250.653 1342.56,222.907 1344.43,196.908 1346.3,172.975 1348.18,151.416 1350.05,132.528 1351.93,116.58 1353.8,103.805 1355.68,94.3968 1357.55,88.4952 1359.42,86.1857 1361.3,87.4941 1363.17,92.3863 1365.05,100.769 1366.92,112.496 1368.8,127.37 1370.67,145.154 1372.54,165.578 1374.42,188.352 1376.29,213.166 1378.17,239.712 1380.04,267.678 1381.92,296.767 1383.79,326.695 1385.66,357.196 1387.54,388.029 1389.41,418.975 1391.29,449.841 1393.16,480.458 1395.04,510.683 1396.91,540.393 1398.79,569.489 1400.66,597.89 1402.53,625.532 1404.41,652.369 1406.28,678.365 1408.16,703.5 1410.03,727.761 1411.91,751.144 1413.78,773.654 1415.65,795.3 1417.53,816.096 1419.4,836.061 1421.28,855.217 1423.15,873.585 1425.03,891.192 1426.9,908.064 1428.77,924.227 1430.65,939.71 1432.52,954.538 1434.4,968.739 1436.27,982.339 1438.15,995.366 1440.02,1007.84 1441.89,1019.8 1443.77,1031.25 1445.64,1042.22 1447.52,1052.74 1449.39,1062.83 1451.27,1072.5 1453.14,1081.78 1455.01,1090.68 1456.89,1099.23 1458.76,1107.43 1460.64,1115.31 1462.51,1122.87 1464.39,1130.15 1466.26,1137.14 1468.13,1143.86 1470.01,1150.32 1471.88,1156.55 1473.76,1162.54 1475.63,1168.3 1477.51,1173.86 1479.38,1179.21 1481.26,1184.37 1483.13,1189.34 1485,1194.14 1486.88,1198.77 1488.75,1203.24 1490.63,1207.55 1492.5,1211.72 1494.38,1215.74 1496.25,1219.63 1498.12,1223.39 1500,1227.02 1501.87,1230.54 1503.75,1233.94 1505.62,1237.24 1507.5,1240.43 1509.37,1243.51 1511.24,1246.51 1513.12,1249.4 1514.99,1252.21 1516.87,1254.94 1518.74,1257.58 1520.62,1260.14 1522.49,1262.63 1524.36,1265.04 1526.24,1267.39 1528.11,1269.66 1529.99,1271.88 1531.86,1274.02 1533.74,1276.11 1535.61,1278.14 1537.48,1280.11 1539.36,1282.03 1541.23,1283.9 1543.11,1285.72 1544.98,1287.48 1546.86,1289.21 1548.73,1290.88 1550.6,1292.51 1552.48,1294.1 1554.35,1295.65 1556.23,1297.16 1558.1,1298.63 1559.98,1300.07 1561.85,1301.47 1563.72,1302.83 1565.6,1304.16 1567.47,1305.46 1569.35,1306.73 1571.22,1307.96 1573.1,1309.17 1574.97,1310.35 1576.85,1311.5 1578.72,1312.63 1580.59,1313.72 1582.47,1314.8 1584.34,1315.85 1586.22,1316.87 1588.09,1317.88 1589.97,1318.86 1591.84,1319.82 1593.71,1320.75 1595.59,1321.67 1597.46,1322.57 1599.34,1323.45 1601.21,1324.31 1603.09,1325.15 1604.96,1325.97 1606.83,1326.78 1608.71,1327.57 1610.58,1328.34 1612.46,1329.1 1614.33,1329.84 1616.21,1330.57 1618.08,1331.28 1619.95,1331.98 1621.83,1332.67 1623.7,1333.34 1625.58,1334 1627.45,1334.64 1629.33,1335.27 1631.2,1335.9 1633.07,1336.5 1634.95,1337.1 1636.82,1337.69 1638.7,1338.26 1640.57,1338.83 1642.45,1339.38 1644.32,1339.93 1646.19,1340.46 1648.07,1340.99 1649.94,1341.5 1651.82,1342.01 1653.69,1342.51 1655.57,1343 1657.44,1343.48 1659.32,1343.95 1661.19,1344.41 1663.06,1344.87 1664.94,1345.31 1666.81,1345.75 1668.69,1346.19 1670.56,1346.61 1672.44,1347.03 1674.31,1347.44 1676.18,1347.84 1678.06,1348.24 1679.93,1348.63 1681.81,1349.02 1683.68,1349.4 1685.56,1349.77 1687.43,1350.14 1689.3,1350.5 1691.18,1350.85 1693.05,1351.2 1694.93,1351.54 1696.8,1351.88 1698.68,1352.22 1700.55,1352.54 1702.42,1352.87 1704.3,1353.19 1706.17,1353.5 1708.05,1353.81 1709.92,1354.11 1711.8,1354.41 1713.67,1354.71 1715.54,1355 1717.42,1355.28 1719.29,1355.56 1721.17,1355.84 1723.04,1356.12 1724.92,1356.39 1726.79,1356.65 1728.66,1356.91 1730.54,1357.17 1732.41,1357.43 1734.29,1357.68 1736.16,1357.93 1738.04,1358.17 1739.91,1358.41 1741.78,1358.65 1743.66,1358.89 1745.53,1359.12 1747.41,1359.34 1749.28,1359.57 1751.16,1359.79 1753.03,1360.01 1754.91,1360.23 1756.78,1360.44 1758.65,1360.65 1760.53,1360.86 1762.4,1361.06 1764.28,1361.27 1766.15,1361.47 1768.03,1361.66 1769.9,1361.86 1771.77,1362.05 1773.65,1362.24 1775.52,1362.43 1777.4,1362.61 1779.27,1362.79 1781.15,1362.97 1783.02,1363.15 1784.89,1363.33 1786.77,1363.5 1788.64,1363.67 1790.52,1363.84 1792.39,1364.01 1794.27,1364.17 1796.14,1364.34 1798.01,1364.5 1799.89,1364.66 1801.76,1364.81 1803.64,1364.97 1805.51,1365.12 1807.39,1365.28 1809.26,1365.43 1811.13,1365.57 1813.01,1365.72 1814.88,1365.87 1816.76,1366.01 1818.63,1366.15 1820.51,1366.29 1822.38,1366.43 1824.25,1366.57 1826.13,1366.7 1828,1366.83 1829.88,1366.97 1831.75,1367.1 1833.63,1367.23 1835.5,1367.35 1837.38,1367.48 1839.25,1367.61 1841.12,1367.73 1843,1367.85 1844.87,1367.97 1846.75,1368.09 1848.62,1368.21 1850.5,1368.33 1852.37,1368.44 1854.24,1368.56 1856.12,1368.67 1857.99,1368.78 1859.87,1368.9 1861.74,1369.01 1863.62,1369.11 1865.49,1369.22 1867.36,1369.33 1869.24,1369.43 1871.11,1369.54 1872.99,1369.64 1874.86,1369.74 1876.74,1369.84 1878.61,1369.94 1880.48,1370.04 1882.36,1370.14 1884.23,1370.24 1886.11,1370.33 1887.98,1370.43 1889.86,1370.52 1891.73,1370.62 1893.6,1370.71 1895.48,1370.8 1897.35,1370.89 1899.23,1370.98 1901.1,1371.07 1902.98,1371.16 1904.85,1371.25 1906.72,1371.33 1908.6,1371.42 1910.47,1371.5 1912.35,1371.59 1914.22,1371.67 1916.1,1371.75 1917.97,1371.83 1919.85,1371.91 1921.72,1371.99 1923.59,1372.07 1925.47,1372.15 1927.34,1372.23 1929.22,1372.3 1931.09,1372.38 1932.97,1372.46 1934.84,1372.53 1936.71,1372.61 1938.59,1372.68 1940.46,1372.75 1942.34,1372.82 1944.21,1372.9 1946.09,1372.97 1947.96,1373.04 1949.83,1373.11 1951.71,1373.18 1953.58,1373.24 1955.46,1373.31 1957.33,1373.38 1959.21,1373.45 1961.08,1373.51 1962.95,1373.58 1964.83,1373.64 1966.7,1373.71 1968.58,1373.77 1970.45,1373.83 1972.33,1373.9 1974.2,1373.96 1976.07,1374.02 1977.95,1374.08 1979.82,1374.14 1981.7,1374.2 1983.57,1374.26 1985.45,1374.32 1987.32,1374.38 1989.19,1374.44 1991.07,1374.49 1992.94,1374.55 1994.82,1374.61 1996.69,1374.66 1998.57,1374.72 2000.44,1374.78 2002.31,1374.83 2004.19,1374.88 2006.06,1374.94 2007.94,1374.99 2009.81,1375.04 2011.69,1375.1 2013.56,1375.15 2015.44,1375.2 2017.31,1375.25 2019.18,1375.3 2021.06,1375.35 2022.93,1375.4 2024.81,1375.45 2026.68,1375.5 2028.56,1375.55 2030.43,1375.6 2032.3,1375.65 2034.18,1375.7 2036.05,1375.74 2037.93,1375.79 2039.8,1375.84 2041.68,1375.88 2043.55,1375.93 2045.42,1375.98 2047.3,1376.02 2049.17,1376.07 2051.05,1376.11 2052.92,1376.16 2054.8,1376.2 2056.67,1376.24 2058.54,1376.29 2060.42,1376.33 2062.29,1376.37 2064.17,1376.41 2066.04,1376.46 2067.92,1376.5 2069.79,1376.54 2071.66,1376.58 2073.54,1376.62 2075.41,1376.66 2077.29,1376.7 2079.16,1376.74 2081.04,1376.78 2082.91,1376.82 2084.78,1376.86 2086.66,1376.9 2088.53,1376.94 2090.41,1376.98 2092.28,1377.01 2094.16,1377.05 2096.03,1377.09 2097.91,1377.13 2099.78,1377.16 2101.65,1377.2 2103.53,1377.24 2105.4,1377.27 2107.28,1377.31 2109.15,1377.34 2111.03,1377.38 2112.9,1377.41 2114.77,1377.45 2116.65,1377.48 2118.52,1377.52 2120.4,1377.55 2122.27,1377.59 2124.15,1377.62 2126.02,1377.65 2127.89,1377.69 2129.77,1377.72 2131.64,1377.75 2133.52,1377.79 2135.39,1377.82 2137.27,1377.85 2139.14,1377.88 2141.01,1377.91 2142.89,1377.95 2144.76,1377.98 2146.64,1378.01 2148.51,1378.04 2150.39,1378.07 2152.26,1378.1 2154.13,1378.13 2156.01,1378.16 2157.88,1378.19 2159.76,1378.22 2161.63,1378.25 2163.51,1378.28 2165.38,1378.31 2167.25,1378.34 2169.13,1378.37 2171,1378.39 2172.88,1378.42 2174.75,1378.45 2176.63,1378.48 2178.5,1378.51 2180.38,1378.53 2182.25,1378.56 2184.12,1378.59 2186,1378.62 2187.87,1378.64 2189.75,1378.67 2191.62,1378.7 2193.5,1378.72 2195.37,1378.75 2197.24,1378.78 2199.12,1378.8 2200.99,1378.83 2202.87,1378.85 2204.74,1378.88 2206.62,1378.9 2208.49,1378.93 2210.36,1378.95 2212.24,1378.98 2214.11,1379 2215.99,1379.03 2217.86,1379.05 2219.74,1379.08 2221.61,1379.1 2223.48,1379.12 2225.36,1379.15 2227.23,1379.17 2229.11,1379.2 2230.98,1379.22 2232.86,1379.24 2234.73,1379.27 2236.6,1379.29 2238.48,1379.31 2240.35,1379.33 2242.23,1379.36 2244.1,1379.38 2245.98,1379.4 2247.85,1379.42 2249.72,1379.45 2251.6,1379.47 2253.47,1379.49 2255.35,1379.51 2257.22,1379.53 2259.1,1379.55 2260.97,1379.58 2262.84,1379.6 2264.72,1379.62 2266.59,1379.64 2268.47,1379.66 2270.34,1379.68 2272.22,1379.7 2274.09,1379.72 2275.97,1379.74 2277.84,1379.76 2279.71,1379.78 2281.59,1379.8 2283.46,1379.82 2285.34,1379.84 2287.21,1379.86 2289.09,1379.88 2290.96,1379.9 2292.83,1379.92 2294.71,1379.94 2296.58,1379.96 "/>
<path clip-path="url(#clip000)" d="M2035.69 196.789 L2286.6 196.789 L2286.6 93.1086 L2035.69 93.1086  Z" fill="#ffffff" fill-rule="evenodd" fill-opacity="1"/>
<polyline clip-path="url(#clip000)" style="stroke:#000000; stroke-linecap:round; stroke-linejoin:round; stroke-width:4; stroke-opacity:1; fill:none" points="2035.69,196.789 2286.6,196.789 2286.6,93.1086 2035.69,93.1086 2035.69,196.789 "/>
<polyline clip-path="url(#clip000)" style="stroke:#009af9; stroke-linecap:round; stroke-linejoin:round; stroke-width:4; stroke-opacity:1; fill:none" points="2057.74,144.949 2190.06,144.949 "/>
<path clip-path="url(#clip000)" d="M2225.96 164.636 Q2224.15 169.266 2222.44 170.678 Q2220.72 172.09 2217.85 172.09 L2214.45 172.09 L2214.45 168.525 L2216.95 168.525 Q2218.71 168.525 2219.68 167.692 Q2220.65 166.858 2221.83 163.756 L2222.6 161.812 L2212.11 136.303 L2216.63 136.303 L2224.73 156.581 L2232.83 136.303 L2237.34 136.303 L2225.96 164.636 Z" fill="#000000" fill-rule="nonzero" fill-opacity="1" /><path clip-path="url(#clip000)" d="M2244.64 158.293 L2252.27 158.293 L2252.27 131.928 L2243.96 133.595 L2243.96 129.335 L2252.23 127.669 L2256.9 127.669 L2256.9 158.293 L2264.54 158.293 L2264.54 162.229 L2244.64 162.229 L2244.64 158.293 Z" fill="#000000" fill-rule="nonzero" fill-opacity="1" /></svg>
