<?xml version="1.0" encoding="utf-8"?>
<svg xmlns="http://www.w3.org/2000/svg" xmlns:xlink="http://www.w3.org/1999/xlink" width="600" height="400" viewBox="0 0 2400 1600">
<defs>
  <clipPath id="clip900">
    <rect x="0" y="0" width="2400" height="1600"/>
  </clipPath>
</defs>
<path clip-path="url(#clip900)" d="M0 1600 L2400 1600 L2400 0 L0 0  Z" fill="#ffffff" fill-rule="evenodd" fill-opacity="1"/>
<defs>
  <clipPath id="clip901">
    <rect x="480" y="0" width="1681" height="1600"/>
  </clipPath>
</defs>
<path clip-path="url(#clip900)" d="M340.028 1423.18 L2352.76 1423.18 L2352.76 123.472 L340.028 123.472  Z" fill="#ffffff" fill-rule="evenodd" fill-opacity="1"/>
<defs>
  <clipPath id="clip902">
    <rect x="340" y="123" width="2014" height="1301"/>
  </clipPath>
</defs>
<polyline clip-path="url(#clip902)" style="stroke:#000000; stroke-linecap:round; stroke-linejoin:round; stroke-width:2; stroke-opacity:0.1; fill:none" points="359.016,1423.18 359.016,123.472 "/>
<polyline clip-path="url(#clip902)" style="stroke:#000000; stroke-linecap:round; stroke-linejoin:round; stroke-width:2; stroke-opacity:0.1; fill:none" points="738.776,1423.18 738.776,123.472 "/>
<polyline clip-path="url(#clip902)" style="stroke:#000000; stroke-linecap:round; stroke-linejoin:round; stroke-width:2; stroke-opacity:0.1; fill:none" points="1118.54,1423.18 1118.54,123.472 "/>
<polyline clip-path="url(#clip902)" style="stroke:#000000; stroke-linecap:round; stroke-linejoin:round; stroke-width:2; stroke-opacity:0.1; fill:none" points="1498.3,1423.18 1498.3,123.472 "/>
<polyline clip-path="url(#clip902)" style="stroke:#000000; stroke-linecap:round; stroke-linejoin:round; stroke-width:2; stroke-opacity:0.1; fill:none" points="1878.06,1423.18 1878.06,123.472 "/>
<polyline clip-path="url(#clip902)" style="stroke:#000000; stroke-linecap:round; stroke-linejoin:round; stroke-width:2; stroke-opacity:0.1; fill:none" points="2257.82,1423.18 2257.82,123.472 "/>
<polyline clip-path="url(#clip900)" style="stroke:#000000; stroke-linecap:round; stroke-linejoin:round; stroke-width:4; stroke-opacity:1; fill:none" points="340.028,1423.18 2352.76,1423.18 "/>
<polyline clip-path="url(#clip900)" style="stroke:#000000; stroke-linecap:round; stroke-linejoin:round; stroke-width:4; stroke-opacity:1; fill:none" points="359.016,1423.18 359.016,1404.28 "/>
<polyline clip-path="url(#clip900)" style="stroke:#000000; stroke-linecap:round; stroke-linejoin:round; stroke-width:4; stroke-opacity:1; fill:none" points="738.776,1423.18 738.776,1404.28 "/>
<polyline clip-path="url(#clip900)" style="stroke:#000000; stroke-linecap:round; stroke-linejoin:round; stroke-width:4; stroke-opacity:1; fill:none" points="1118.54,1423.18 1118.54,1404.28 "/>
<polyline clip-path="url(#clip900)" style="stroke:#000000; stroke-linecap:round; stroke-linejoin:round; stroke-width:4; stroke-opacity:1; fill:none" points="1498.3,1423.18 1498.3,1404.28 "/>
<polyline clip-path="url(#clip900)" style="stroke:#000000; stroke-linecap:round; stroke-linejoin:round; stroke-width:4; stroke-opacity:1; fill:none" points="1878.06,1423.18 1878.06,1404.28 "/>
<polyline clip-path="url(#clip900)" style="stroke:#000000; stroke-linecap:round; stroke-linejoin:round; stroke-width:4; stroke-opacity:1; fill:none" points="2257.82,1423.18 2257.82,1404.28 "/>
<path clip-path="url(#clip900)" d="M359.016 1454.1 Q355.405 1454.1 353.576 1457.66 Q351.77 1461.2 351.77 1468.33 Q351.77 1475.44 353.576 1479.01 Q355.405 1482.55 359.016 1482.55 Q362.65 1482.55 364.455 1479.01 Q366.284 1475.44 366.284 1468.33 Q366.284 1461.2 364.455 1457.66 Q362.65 1454.1 359.016 1454.1 M359.016 1450.39 Q364.826 1450.39 367.881 1455 Q370.96 1459.58 370.96 1468.33 Q370.96 1477.06 367.881 1481.67 Q364.826 1486.25 359.016 1486.25 Q353.206 1486.25 350.127 1481.67 Q347.071 1477.06 347.071 1468.33 Q347.071 1459.58 350.127 1455 Q353.206 1450.39 359.016 1450.39 Z" fill="#000000" fill-rule="nonzero" fill-opacity="1" /><path clip-path="url(#clip900)" d="M713.463 1481.64 L721.102 1481.64 L721.102 1455.28 L712.792 1456.95 L712.792 1452.69 L721.056 1451.02 L725.732 1451.02 L725.732 1481.64 L733.371 1481.64 L733.371 1485.58 L713.463 1485.58 L713.463 1481.64 Z" fill="#000000" fill-rule="nonzero" fill-opacity="1" /><path clip-path="url(#clip900)" d="M752.815 1454.1 Q749.204 1454.1 747.375 1457.66 Q745.57 1461.2 745.57 1468.33 Q745.57 1475.44 747.375 1479.01 Q749.204 1482.55 752.815 1482.55 Q756.449 1482.55 758.255 1479.01 Q760.083 1475.44 760.083 1468.33 Q760.083 1461.2 758.255 1457.66 Q756.449 1454.1 752.815 1454.1 M752.815 1450.39 Q758.625 1450.39 761.681 1455 Q764.759 1459.58 764.759 1468.33 Q764.759 1477.06 761.681 1481.67 Q758.625 1486.25 752.815 1486.25 Q747.005 1486.25 743.926 1481.67 Q740.871 1477.06 740.871 1468.33 Q740.871 1459.58 743.926 1455 Q747.005 1450.39 752.815 1450.39 Z" fill="#000000" fill-rule="nonzero" fill-opacity="1" /><path clip-path="url(#clip900)" d="M1097.31 1481.64 L1113.63 1481.64 L1113.63 1485.58 L1091.68 1485.58 L1091.68 1481.64 Q1094.35 1478.89 1098.93 1474.26 Q1103.54 1469.61 1104.72 1468.27 Q1106.96 1465.74 1107.84 1464.01 Q1108.74 1462.25 1108.74 1460.56 Q1108.74 1457.8 1106.8 1456.07 Q1104.88 1454.33 1101.78 1454.33 Q1099.58 1454.33 1097.12 1455.09 Q1094.69 1455.86 1091.92 1457.41 L1091.92 1452.69 Q1094.74 1451.55 1097.19 1450.97 Q1099.65 1450.39 1101.68 1450.39 Q1107.05 1450.39 1110.25 1453.08 Q1113.44 1455.77 1113.44 1460.26 Q1113.44 1462.39 1112.63 1464.31 Q1111.85 1466.2 1109.74 1468.8 Q1109.16 1469.47 1106.06 1472.69 Q1102.96 1475.88 1097.31 1481.64 Z" fill="#000000" fill-rule="nonzero" fill-opacity="1" /><path clip-path="url(#clip900)" d="M1133.44 1454.1 Q1129.83 1454.1 1128 1457.66 Q1126.2 1461.2 1126.2 1468.33 Q1126.2 1475.44 1128 1479.01 Q1129.83 1482.55 1133.44 1482.55 Q1137.08 1482.55 1138.88 1479.01 Q1140.71 1475.44 1140.71 1468.33 Q1140.71 1461.2 1138.88 1457.66 Q1137.08 1454.1 1133.44 1454.1 M1133.44 1450.39 Q1139.25 1450.39 1142.31 1455 Q1145.39 1459.58 1145.39 1468.33 Q1145.39 1477.06 1142.31 1481.67 Q1139.25 1486.25 1133.44 1486.25 Q1127.63 1486.25 1124.55 1481.67 Q1121.5 1477.06 1121.5 1468.33 Q1121.5 1459.58 1124.55 1455 Q1127.63 1450.39 1133.44 1450.39 Z" fill="#000000" fill-rule="nonzero" fill-opacity="1" /><path clip-path="url(#clip900)" d="M1487.14 1466.95 Q1490.49 1467.66 1492.37 1469.93 Q1494.27 1472.2 1494.27 1475.53 Q1494.27 1480.65 1490.75 1483.45 Q1487.23 1486.25 1480.75 1486.25 Q1478.57 1486.25 1476.26 1485.81 Q1473.97 1485.39 1471.51 1484.54 L1471.51 1480.02 Q1473.46 1481.16 1475.77 1481.74 Q1478.09 1482.32 1480.61 1482.32 Q1485.01 1482.32 1487.3 1480.58 Q1489.62 1478.84 1489.62 1475.53 Q1489.62 1472.48 1487.46 1470.77 Q1485.33 1469.03 1481.51 1469.03 L1477.49 1469.03 L1477.49 1465.19 L1481.7 1465.19 Q1485.15 1465.19 1486.98 1463.82 Q1488.81 1462.43 1488.81 1459.84 Q1488.81 1457.18 1486.91 1455.77 Q1485.03 1454.33 1481.51 1454.33 Q1479.59 1454.33 1477.39 1454.75 Q1475.19 1455.16 1472.56 1456.04 L1472.56 1451.88 Q1475.22 1451.14 1477.53 1450.77 Q1479.87 1450.39 1481.93 1450.39 Q1487.25 1450.39 1490.36 1452.83 Q1493.46 1455.23 1493.46 1459.35 Q1493.46 1462.22 1491.81 1464.21 Q1490.17 1466.18 1487.14 1466.95 Z" fill="#000000" fill-rule="nonzero" fill-opacity="1" /><path clip-path="url(#clip900)" d="M1513.13 1454.1 Q1509.52 1454.1 1507.69 1457.66 Q1505.89 1461.2 1505.89 1468.33 Q1505.89 1475.44 1507.69 1479.01 Q1509.52 1482.55 1513.13 1482.55 Q1516.77 1482.55 1518.57 1479.01 Q1520.4 1475.44 1520.4 1468.33 Q1520.4 1461.2 1518.57 1457.66 Q1516.77 1454.1 1513.13 1454.1 M1513.13 1450.39 Q1518.94 1450.39 1522 1455 Q1525.08 1459.58 1525.08 1468.33 Q1525.08 1477.06 1522 1481.67 Q1518.94 1486.25 1513.13 1486.25 Q1507.32 1486.25 1504.24 1481.67 Q1501.19 1477.06 1501.19 1468.33 Q1501.19 1459.58 1504.24 1455 Q1507.32 1450.39 1513.13 1450.39 Z" fill="#000000" fill-rule="nonzero" fill-opacity="1" /><path clip-path="url(#clip900)" d="M1866.23 1455.09 L1854.42 1473.54 L1866.23 1473.54 L1866.23 1455.09 M1865 1451.02 L1870.88 1451.02 L1870.88 1473.54 L1875.81 1473.54 L1875.81 1477.43 L1870.88 1477.43 L1870.88 1485.58 L1866.23 1485.58 L1866.23 1477.43 L1850.63 1477.43 L1850.63 1472.92 L1865 1451.02 Z" fill="#000000" fill-rule="nonzero" fill-opacity="1" /><path clip-path="url(#clip900)" d="M1893.54 1454.1 Q1889.93 1454.1 1888.1 1457.66 Q1886.3 1461.2 1886.3 1468.33 Q1886.3 1475.44 1888.1 1479.01 Q1889.93 1482.55 1893.54 1482.55 Q1897.18 1482.55 1898.98 1479.01 Q1900.81 1475.44 1900.81 1468.33 Q1900.81 1461.2 1898.98 1457.66 Q1897.18 1454.1 1893.54 1454.1 M1893.54 1450.39 Q1899.35 1450.39 1902.41 1455 Q1905.49 1459.58 1905.49 1468.33 Q1905.49 1477.06 1902.41 1481.67 Q1899.35 1486.25 1893.54 1486.25 Q1887.73 1486.25 1884.65 1481.67 Q1881.6 1477.06 1881.6 1468.33 Q1881.6 1459.58 1884.65 1455 Q1887.73 1450.39 1893.54 1450.39 Z" fill="#000000" fill-rule="nonzero" fill-opacity="1" /><path clip-path="url(#clip900)" d="M2232.52 1451.02 L2250.87 1451.02 L2250.87 1454.96 L2236.8 1454.96 L2236.8 1463.43 Q2237.82 1463.08 2238.83 1462.92 Q2239.85 1462.73 2240.87 1462.73 Q2246.66 1462.73 2250.04 1465.9 Q2253.42 1469.08 2253.42 1474.49 Q2253.42 1480.07 2249.95 1483.17 Q2246.47 1486.25 2240.15 1486.25 Q2237.98 1486.25 2235.71 1485.88 Q2233.46 1485.51 2231.06 1484.77 L2231.06 1480.07 Q2233.14 1481.2 2235.36 1481.76 Q2237.58 1482.32 2240.06 1482.32 Q2244.07 1482.32 2246.4 1480.21 Q2248.74 1478.1 2248.74 1474.49 Q2248.74 1470.88 2246.4 1468.77 Q2244.07 1466.67 2240.06 1466.67 Q2238.19 1466.67 2236.31 1467.08 Q2234.46 1467.5 2232.52 1468.38 L2232.52 1451.02 Z" fill="#000000" fill-rule="nonzero" fill-opacity="1" /><path clip-path="url(#clip900)" d="M2272.63 1454.1 Q2269.02 1454.1 2267.19 1457.66 Q2265.39 1461.2 2265.39 1468.33 Q2265.39 1475.44 2267.19 1479.01 Q2269.02 1482.55 2272.63 1482.55 Q2276.26 1482.55 2278.07 1479.01 Q2279.9 1475.44 2279.9 1468.33 Q2279.9 1461.2 2278.07 1457.66 Q2276.26 1454.1 2272.63 1454.1 M2272.63 1450.39 Q2278.44 1450.39 2281.5 1455 Q2284.58 1459.58 2284.58 1468.33 Q2284.58 1477.06 2281.5 1481.67 Q2278.44 1486.25 2272.63 1486.25 Q2266.82 1486.25 2263.74 1481.67 Q2260.69 1477.06 2260.69 1468.33 Q2260.69 1459.58 2263.74 1455 Q2266.82 1450.39 2272.63 1450.39 Z" fill="#000000" fill-rule="nonzero" fill-opacity="1" /><path clip-path="url(#clip900)" d="M1214.11 1520.52 L1220.54 1520.52 L1220.54 1568.04 L1214.11 1568.04 L1214.11 1520.52 Z" fill="#000000" fill-rule="nonzero" fill-opacity="1" /><path clip-path="url(#clip900)" d="M1238.87 1522.27 L1238.87 1532.4 L1250.94 1532.4 L1250.94 1536.95 L1238.87 1536.95 L1238.87 1556.3 Q1238.87 1560.66 1240.05 1561.9 Q1241.26 1563.14 1244.92 1563.14 L1250.94 1563.14 L1250.94 1568.04 L1244.92 1568.04 Q1238.14 1568.04 1235.56 1565.53 Q1232.99 1562.98 1232.99 1556.3 L1232.99 1536.95 L1228.69 1536.95 L1228.69 1532.4 L1232.99 1532.4 L1232.99 1522.27 L1238.87 1522.27 Z" fill="#000000" fill-rule="nonzero" fill-opacity="1" /><path clip-path="url(#clip900)" d="M1289.13 1548.76 L1289.13 1551.62 L1262.21 1551.62 Q1262.59 1557.67 1265.83 1560.85 Q1269.11 1564 1274.94 1564 Q1278.31 1564 1281.46 1563.17 Q1284.64 1562.35 1287.76 1560.69 L1287.76 1566.23 Q1284.61 1567.57 1281.3 1568.27 Q1277.99 1568.97 1274.59 1568.97 Q1266.06 1568.97 1261.06 1564 Q1256.09 1559.04 1256.09 1550.57 Q1256.09 1541.82 1260.8 1536.69 Q1265.55 1531.54 1273.57 1531.54 Q1280.76 1531.54 1284.93 1536.18 Q1289.13 1540.8 1289.13 1548.76 M1283.28 1547.04 Q1283.21 1542.23 1280.57 1539.37 Q1277.96 1536.5 1273.63 1536.5 Q1268.73 1536.5 1265.77 1539.27 Q1262.84 1542.04 1262.4 1547.07 L1283.28 1547.04 Z" fill="#000000" fill-rule="nonzero" fill-opacity="1" /><path clip-path="url(#clip900)" d="M1319.4 1537.87 Q1318.41 1537.3 1317.24 1537.04 Q1316.09 1536.76 1314.69 1536.76 Q1309.73 1536.76 1307.05 1540 Q1304.41 1543.22 1304.41 1549.27 L1304.41 1568.04 L1298.52 1568.04 L1298.52 1532.4 L1304.41 1532.4 L1304.41 1537.93 Q1306.26 1534.69 1309.22 1533.13 Q1312.18 1531.54 1316.41 1531.54 Q1317.01 1531.54 1317.75 1531.63 Q1318.48 1531.7 1319.37 1531.85 L1319.4 1537.87 Z" fill="#000000" fill-rule="nonzero" fill-opacity="1" /><path clip-path="url(#clip900)" d="M1341.74 1550.12 Q1334.65 1550.12 1331.91 1551.75 Q1329.17 1553.37 1329.17 1557.29 Q1329.17 1560.4 1331.21 1562.25 Q1333.28 1564.07 1336.81 1564.07 Q1341.68 1564.07 1344.61 1560.63 Q1347.57 1557.16 1347.57 1551.43 L1347.57 1550.12 L1341.74 1550.12 M1353.43 1547.71 L1353.43 1568.04 L1347.57 1568.04 L1347.57 1562.63 Q1345.56 1565.88 1342.57 1567.44 Q1339.58 1568.97 1335.25 1568.97 Q1329.78 1568.97 1326.53 1565.91 Q1323.32 1562.82 1323.32 1557.67 Q1323.32 1551.65 1327.33 1548.6 Q1331.37 1545.54 1339.36 1545.54 L1347.57 1545.54 L1347.57 1544.97 Q1347.57 1540.93 1344.9 1538.73 Q1342.25 1536.5 1337.45 1536.5 Q1334.39 1536.5 1331.5 1537.23 Q1328.6 1537.97 1325.93 1539.43 L1325.93 1534.02 Q1329.14 1532.78 1332.16 1532.17 Q1335.19 1531.54 1338.05 1531.54 Q1345.79 1531.54 1349.61 1535.55 Q1353.43 1539.56 1353.43 1547.71 Z" fill="#000000" fill-rule="nonzero" fill-opacity="1" /><path clip-path="url(#clip900)" d="M1371.28 1522.27 L1371.28 1532.4 L1383.34 1532.4 L1383.34 1536.95 L1371.28 1536.95 L1371.28 1556.3 Q1371.28 1560.66 1372.46 1561.9 Q1373.67 1563.14 1377.33 1563.14 L1383.34 1563.14 L1383.34 1568.04 L1377.33 1568.04 Q1370.55 1568.04 1367.97 1565.53 Q1365.39 1562.98 1365.39 1556.3 L1365.39 1536.95 L1361.1 1536.95 L1361.1 1532.4 L1365.39 1532.4 L1365.39 1522.27 L1371.28 1522.27 Z" fill="#000000" fill-rule="nonzero" fill-opacity="1" /><path clip-path="url(#clip900)" d="M1391.05 1532.4 L1396.9 1532.4 L1396.9 1568.04 L1391.05 1568.04 L1391.05 1532.4 M1391.05 1518.52 L1396.9 1518.52 L1396.9 1525.93 L1391.05 1525.93 L1391.05 1518.52 Z" fill="#000000" fill-rule="nonzero" fill-opacity="1" /><path clip-path="url(#clip900)" d="M1422.97 1536.5 Q1418.26 1536.5 1415.52 1540.19 Q1412.79 1543.85 1412.79 1550.25 Q1412.79 1556.65 1415.49 1560.34 Q1418.23 1564 1422.97 1564 Q1427.65 1564 1430.39 1560.31 Q1433.12 1556.62 1433.12 1550.25 Q1433.12 1543.92 1430.39 1540.23 Q1427.65 1536.5 1422.97 1536.5 M1422.97 1531.54 Q1430.61 1531.54 1434.97 1536.5 Q1439.33 1541.47 1439.33 1550.25 Q1439.33 1559 1434.97 1564 Q1430.61 1568.97 1422.97 1568.97 Q1415.3 1568.97 1410.94 1564 Q1406.61 1559 1406.61 1550.25 Q1406.61 1541.47 1410.94 1536.5 Q1415.3 1531.54 1422.97 1531.54 Z" fill="#000000" fill-rule="nonzero" fill-opacity="1" /><path clip-path="url(#clip900)" d="M1478.67 1546.53 L1478.67 1568.04 L1472.81 1568.04 L1472.81 1546.72 Q1472.81 1541.66 1470.84 1539.14 Q1468.87 1536.63 1464.92 1536.63 Q1460.18 1536.63 1457.44 1539.65 Q1454.7 1542.68 1454.7 1547.9 L1454.7 1568.04 L1448.82 1568.04 L1448.82 1532.4 L1454.7 1532.4 L1454.7 1537.93 Q1456.8 1534.72 1459.64 1533.13 Q1462.5 1531.54 1466.23 1531.54 Q1472.37 1531.54 1475.52 1535.36 Q1478.67 1539.14 1478.67 1546.53 Z" fill="#000000" fill-rule="nonzero" fill-opacity="1" /><polyline clip-path="url(#clip902)" style="stroke:#000000; stroke-linecap:round; stroke-linejoin:round; stroke-width:2; stroke-opacity:0.1; fill:none" points="340.028,1250.57 2352.76,1250.57 "/>
<polyline clip-path="url(#clip902)" style="stroke:#000000; stroke-linecap:round; stroke-linejoin:round; stroke-width:2; stroke-opacity:0.1; fill:none" points="340.028,974.437 2352.76,974.437 "/>
<polyline clip-path="url(#clip902)" style="stroke:#000000; stroke-linecap:round; stroke-linejoin:round; stroke-width:2; stroke-opacity:0.1; fill:none" points="340.028,698.303 2352.76,698.303 "/>
<polyline clip-path="url(#clip902)" style="stroke:#000000; stroke-linecap:round; stroke-linejoin:round; stroke-width:2; stroke-opacity:0.1; fill:none" points="340.028,422.168 2352.76,422.168 "/>
<polyline clip-path="url(#clip902)" style="stroke:#000000; stroke-linecap:round; stroke-linejoin:round; stroke-width:2; stroke-opacity:0.1; fill:none" points="340.028,146.034 2352.76,146.034 "/>
<polyline clip-path="url(#clip900)" style="stroke:#000000; stroke-linecap:round; stroke-linejoin:round; stroke-width:4; stroke-opacity:1; fill:none" points="340.028,1423.18 340.028,123.472 "/>
<polyline clip-path="url(#clip900)" style="stroke:#000000; stroke-linecap:round; stroke-linejoin:round; stroke-width:4; stroke-opacity:1; fill:none" points="340.028,1250.57 358.925,1250.57 "/>
<polyline clip-path="url(#clip900)" style="stroke:#000000; stroke-linecap:round; stroke-linejoin:round; stroke-width:4; stroke-opacity:1; fill:none" points="340.028,974.437 358.925,974.437 "/>
<polyline clip-path="url(#clip900)" style="stroke:#000000; stroke-linecap:round; stroke-linejoin:round; stroke-width:4; stroke-opacity:1; fill:none" points="340.028,698.303 358.925,698.303 "/>
<polyline clip-path="url(#clip900)" style="stroke:#000000; stroke-linecap:round; stroke-linejoin:round; stroke-width:4; stroke-opacity:1; fill:none" points="340.028,422.168 358.925,422.168 "/>
<polyline clip-path="url(#clip900)" style="stroke:#000000; stroke-linecap:round; stroke-linejoin:round; stroke-width:4; stroke-opacity:1; fill:none" points="340.028,146.034 358.925,146.034 "/>
<path clip-path="url(#clip900)" d="M127.2 1236.37 Q123.589 1236.37 121.76 1239.93 Q119.955 1243.48 119.955 1250.61 Q119.955 1257.71 121.76 1261.28 Q123.589 1264.82 127.2 1264.82 Q130.834 1264.82 132.64 1261.28 Q134.468 1257.71 134.468 1250.61 Q134.468 1243.48 132.64 1239.93 Q130.834 1236.37 127.2 1236.37 M127.2 1232.67 Q133.01 1232.67 136.066 1237.27 Q139.144 1241.86 139.144 1250.61 Q139.144 1259.33 136.066 1263.94 Q133.01 1268.52 127.2 1268.52 Q121.39 1268.52 118.311 1263.94 Q115.256 1259.33 115.256 1250.61 Q115.256 1241.86 118.311 1237.27 Q121.39 1232.67 127.2 1232.67 Z" fill="#000000" fill-rule="nonzero" fill-opacity="1" /><path clip-path="url(#clip900)" d="M147.362 1261.97 L152.246 1261.97 L152.246 1267.85 L147.362 1267.85 L147.362 1261.97 Z" fill="#000000" fill-rule="nonzero" fill-opacity="1" /><path clip-path="url(#clip900)" d="M172.431 1236.37 Q168.82 1236.37 166.991 1239.93 Q165.186 1243.48 165.186 1250.61 Q165.186 1257.71 166.991 1261.28 Q168.82 1264.82 172.431 1264.82 Q176.065 1264.82 177.871 1261.28 Q179.7 1257.71 179.7 1250.61 Q179.7 1243.48 177.871 1239.93 Q176.065 1236.37 172.431 1236.37 M172.431 1232.67 Q178.241 1232.67 181.297 1237.27 Q184.376 1241.86 184.376 1250.61 Q184.376 1259.33 181.297 1263.94 Q178.241 1268.52 172.431 1268.52 Q166.621 1268.52 163.542 1263.94 Q160.487 1259.33 160.487 1250.61 Q160.487 1241.86 163.542 1237.27 Q166.621 1232.67 172.431 1232.67 Z" fill="#000000" fill-rule="nonzero" fill-opacity="1" /><path clip-path="url(#clip900)" d="M202.593 1236.37 Q198.982 1236.37 197.153 1239.93 Q195.348 1243.48 195.348 1250.61 Q195.348 1257.71 197.153 1261.28 Q198.982 1264.82 202.593 1264.82 Q206.227 1264.82 208.033 1261.28 Q209.861 1257.71 209.861 1250.61 Q209.861 1243.48 208.033 1239.93 Q206.227 1236.37 202.593 1236.37 M202.593 1232.67 Q208.403 1232.67 211.459 1237.27 Q214.537 1241.86 214.537 1250.61 Q214.537 1259.33 211.459 1263.94 Q208.403 1268.52 202.593 1268.52 Q196.783 1268.52 193.704 1263.94 Q190.649 1259.33 190.649 1250.61 Q190.649 1241.86 193.704 1237.27 Q196.783 1232.67 202.593 1232.67 Z" fill="#000000" fill-rule="nonzero" fill-opacity="1" /><path clip-path="url(#clip900)" d="M222.894 1267.13 L222.894 1262.87 Q224.653 1263.71 226.459 1264.15 Q228.264 1264.59 230 1264.59 Q234.63 1264.59 237.06 1261.49 Q239.514 1258.36 239.861 1252.02 Q238.519 1254.01 236.459 1255.07 Q234.398 1256.14 231.898 1256.14 Q226.713 1256.14 223.681 1253.01 Q220.672 1249.87 220.672 1244.43 Q220.672 1239.1 223.82 1235.88 Q226.968 1232.67 232.199 1232.67 Q238.195 1232.67 241.343 1237.27 Q244.514 1241.86 244.514 1250.61 Q244.514 1258.78 240.625 1263.66 Q236.76 1268.52 230.209 1268.52 Q228.449 1268.52 226.644 1268.18 Q224.838 1267.83 222.894 1267.13 M232.199 1252.48 Q235.347 1252.48 237.176 1250.33 Q239.028 1248.18 239.028 1244.43 Q239.028 1240.7 237.176 1238.55 Q235.347 1236.37 232.199 1236.37 Q229.051 1236.37 227.199 1238.55 Q225.371 1240.7 225.371 1244.43 Q225.371 1248.18 227.199 1250.33 Q229.051 1252.48 232.199 1252.48 Z" fill="#000000" fill-rule="nonzero" fill-opacity="1" /><path clip-path="url(#clip900)" d="M251.736 1233.29 L273.958 1233.29 L273.958 1235.28 L261.412 1267.85 L256.528 1267.85 L268.333 1237.23 L251.736 1237.23 L251.736 1233.29 Z" fill="#000000" fill-rule="nonzero" fill-opacity="1" /><path clip-path="url(#clip900)" d="M283.125 1233.29 L301.481 1233.29 L301.481 1237.23 L287.407 1237.23 L287.407 1245.7 Q288.426 1245.35 289.444 1245.19 Q290.463 1245 291.481 1245 Q297.268 1245 300.648 1248.18 Q304.028 1251.35 304.028 1256.76 Q304.028 1262.34 300.555 1265.44 Q297.083 1268.52 290.764 1268.52 Q288.588 1268.52 286.319 1268.15 Q284.074 1267.78 281.667 1267.04 L281.667 1262.34 Q283.75 1263.48 285.972 1264.03 Q288.194 1264.59 290.671 1264.59 Q294.676 1264.59 297.014 1262.48 Q299.352 1260.37 299.352 1256.76 Q299.352 1253.15 297.014 1251.05 Q294.676 1248.94 290.671 1248.94 Q288.796 1248.94 286.921 1249.36 Q285.069 1249.77 283.125 1250.65 L283.125 1233.29 Z" fill="#000000" fill-rule="nonzero" fill-opacity="1" /><path clip-path="url(#clip900)" d="M126.205 960.236 Q122.593 960.236 120.765 963.8 Q118.959 967.342 118.959 974.472 Q118.959 981.578 120.765 985.143 Q122.593 988.685 126.205 988.685 Q129.839 988.685 131.644 985.143 Q133.473 981.578 133.473 974.472 Q133.473 967.342 131.644 963.8 Q129.839 960.236 126.205 960.236 M126.205 956.532 Q132.015 956.532 135.07 961.138 Q138.149 965.722 138.149 974.472 Q138.149 983.198 135.07 987.805 Q132.015 992.388 126.205 992.388 Q120.394 992.388 117.316 987.805 Q114.26 983.198 114.26 974.472 Q114.26 965.722 117.316 961.138 Q120.394 956.532 126.205 956.532 Z" fill="#000000" fill-rule="nonzero" fill-opacity="1" /><path clip-path="url(#clip900)" d="M146.366 985.837 L151.251 985.837 L151.251 991.717 L146.366 991.717 L146.366 985.837 Z" fill="#000000" fill-rule="nonzero" fill-opacity="1" /><path clip-path="url(#clip900)" d="M171.436 960.236 Q167.825 960.236 165.996 963.8 Q164.19 967.342 164.19 974.472 Q164.19 981.578 165.996 985.143 Q167.825 988.685 171.436 988.685 Q175.07 988.685 176.876 985.143 Q178.704 981.578 178.704 974.472 Q178.704 967.342 176.876 963.8 Q175.07 960.236 171.436 960.236 M171.436 956.532 Q177.246 956.532 180.301 961.138 Q183.38 965.722 183.38 974.472 Q183.38 983.198 180.301 987.805 Q177.246 992.388 171.436 992.388 Q165.626 992.388 162.547 987.805 Q159.491 983.198 159.491 974.472 Q159.491 965.722 162.547 961.138 Q165.626 956.532 171.436 956.532 Z" fill="#000000" fill-rule="nonzero" fill-opacity="1" /><path clip-path="url(#clip900)" d="M192.408 987.782 L200.047 987.782 L200.047 961.416 L191.737 963.083 L191.737 958.824 L200 957.157 L204.676 957.157 L204.676 987.782 L212.315 987.782 L212.315 991.717 L192.408 991.717 L192.408 987.782 Z" fill="#000000" fill-rule="nonzero" fill-opacity="1" /><path clip-path="url(#clip900)" d="M231.76 960.236 Q228.148 960.236 226.32 963.8 Q224.514 967.342 224.514 974.472 Q224.514 981.578 226.32 985.143 Q228.148 988.685 231.76 988.685 Q235.394 988.685 237.199 985.143 Q239.028 981.578 239.028 974.472 Q239.028 967.342 237.199 963.8 Q235.394 960.236 231.76 960.236 M231.76 956.532 Q237.57 956.532 240.625 961.138 Q243.704 965.722 243.704 974.472 Q243.704 983.198 240.625 987.805 Q237.57 992.388 231.76 992.388 Q225.949 992.388 222.871 987.805 Q219.815 983.198 219.815 974.472 Q219.815 965.722 222.871 961.138 Q225.949 956.532 231.76 956.532 Z" fill="#000000" fill-rule="nonzero" fill-opacity="1" /><path clip-path="url(#clip900)" d="M261.921 960.236 Q258.31 960.236 256.482 963.8 Q254.676 967.342 254.676 974.472 Q254.676 981.578 256.482 985.143 Q258.31 988.685 261.921 988.685 Q265.556 988.685 267.361 985.143 Q269.19 981.578 269.19 974.472 Q269.19 967.342 267.361 963.8 Q265.556 960.236 261.921 960.236 M261.921 956.532 Q267.732 956.532 270.787 961.138 Q273.866 965.722 273.866 974.472 Q273.866 983.198 270.787 987.805 Q267.732 992.388 261.921 992.388 Q256.111 992.388 253.033 987.805 Q249.977 983.198 249.977 974.472 Q249.977 965.722 253.033 961.138 Q256.111 956.532 261.921 956.532 Z" fill="#000000" fill-rule="nonzero" fill-opacity="1" /><path clip-path="url(#clip900)" d="M292.083 960.236 Q288.472 960.236 286.643 963.8 Q284.838 967.342 284.838 974.472 Q284.838 981.578 286.643 985.143 Q288.472 988.685 292.083 988.685 Q295.718 988.685 297.523 985.143 Q299.352 981.578 299.352 974.472 Q299.352 967.342 297.523 963.8 Q295.718 960.236 292.083 960.236 M292.083 956.532 Q297.893 956.532 300.949 961.138 Q304.028 965.722 304.028 974.472 Q304.028 983.198 300.949 987.805 Q297.893 992.388 292.083 992.388 Q286.273 992.388 283.194 987.805 Q280.139 983.198 280.139 974.472 Q280.139 965.722 283.194 961.138 Q286.273 956.532 292.083 956.532 Z" fill="#000000" fill-rule="nonzero" fill-opacity="1" /><path clip-path="url(#clip900)" d="M127.2 684.101 Q123.589 684.101 121.76 687.666 Q119.955 691.208 119.955 698.337 Q119.955 705.444 121.76 709.009 Q123.589 712.55 127.2 712.55 Q130.834 712.55 132.64 709.009 Q134.468 705.444 134.468 698.337 Q134.468 691.208 132.64 687.666 Q130.834 684.101 127.2 684.101 M127.2 680.398 Q133.01 680.398 136.066 685.004 Q139.144 689.587 139.144 698.337 Q139.144 707.064 136.066 711.671 Q133.01 716.254 127.2 716.254 Q121.39 716.254 118.311 711.671 Q115.256 707.064 115.256 698.337 Q115.256 689.587 118.311 685.004 Q121.39 680.398 127.2 680.398 Z" fill="#000000" fill-rule="nonzero" fill-opacity="1" /><path clip-path="url(#clip900)" d="M147.362 709.703 L152.246 709.703 L152.246 715.583 L147.362 715.583 L147.362 709.703 Z" fill="#000000" fill-rule="nonzero" fill-opacity="1" /><path clip-path="url(#clip900)" d="M172.431 684.101 Q168.82 684.101 166.991 687.666 Q165.186 691.208 165.186 698.337 Q165.186 705.444 166.991 709.009 Q168.82 712.55 172.431 712.55 Q176.065 712.55 177.871 709.009 Q179.7 705.444 179.7 698.337 Q179.7 691.208 177.871 687.666 Q176.065 684.101 172.431 684.101 M172.431 680.398 Q178.241 680.398 181.297 685.004 Q184.376 689.587 184.376 698.337 Q184.376 707.064 181.297 711.671 Q178.241 716.254 172.431 716.254 Q166.621 716.254 163.542 711.671 Q160.487 707.064 160.487 698.337 Q160.487 689.587 163.542 685.004 Q166.621 680.398 172.431 680.398 Z" fill="#000000" fill-rule="nonzero" fill-opacity="1" /><path clip-path="url(#clip900)" d="M193.403 711.648 L201.042 711.648 L201.042 685.282 L192.732 686.949 L192.732 682.689 L200.996 681.023 L205.672 681.023 L205.672 711.648 L213.311 711.648 L213.311 715.583 L193.403 715.583 L193.403 711.648 Z" fill="#000000" fill-rule="nonzero" fill-opacity="1" /><path clip-path="url(#clip900)" d="M232.755 684.101 Q229.144 684.101 227.315 687.666 Q225.51 691.208 225.51 698.337 Q225.51 705.444 227.315 709.009 Q229.144 712.55 232.755 712.55 Q236.389 712.55 238.195 709.009 Q240.023 705.444 240.023 698.337 Q240.023 691.208 238.195 687.666 Q236.389 684.101 232.755 684.101 M232.755 680.398 Q238.565 680.398 241.621 685.004 Q244.699 689.587 244.699 698.337 Q244.699 707.064 241.621 711.671 Q238.565 716.254 232.755 716.254 Q226.945 716.254 223.866 711.671 Q220.811 707.064 220.811 698.337 Q220.811 689.587 223.866 685.004 Q226.945 680.398 232.755 680.398 Z" fill="#000000" fill-rule="nonzero" fill-opacity="1" /><path clip-path="url(#clip900)" d="M256.945 711.648 L273.264 711.648 L273.264 715.583 L251.32 715.583 L251.32 711.648 Q253.982 708.893 258.565 704.263 Q263.171 699.611 264.352 698.268 Q266.597 695.745 267.477 694.009 Q268.38 692.249 268.38 690.56 Q268.38 687.805 266.435 686.069 Q264.514 684.333 261.412 684.333 Q259.213 684.333 256.759 685.097 Q254.329 685.861 251.551 687.412 L251.551 682.689 Q254.375 681.555 256.829 680.976 Q259.283 680.398 261.32 680.398 Q266.69 680.398 269.884 683.083 Q273.079 685.768 273.079 690.259 Q273.079 692.388 272.269 694.31 Q271.482 696.208 269.375 698.8 Q268.796 699.472 265.695 702.689 Q262.593 705.884 256.945 711.648 Z" fill="#000000" fill-rule="nonzero" fill-opacity="1" /><path clip-path="url(#clip900)" d="M283.125 681.023 L301.481 681.023 L301.481 684.958 L287.407 684.958 L287.407 693.43 Q288.426 693.083 289.444 692.921 Q290.463 692.736 291.481 692.736 Q297.268 692.736 300.648 695.907 Q304.028 699.078 304.028 704.495 Q304.028 710.073 300.555 713.175 Q297.083 716.254 290.764 716.254 Q288.588 716.254 286.319 715.884 Q284.074 715.513 281.667 714.772 L281.667 710.073 Q283.75 711.208 285.972 711.763 Q288.194 712.319 290.671 712.319 Q294.676 712.319 297.014 710.212 Q299.352 708.106 299.352 704.495 Q299.352 700.884 297.014 698.777 Q294.676 696.671 290.671 696.671 Q288.796 696.671 286.921 697.087 Q285.069 697.504 283.125 698.384 L283.125 681.023 Z" fill="#000000" fill-rule="nonzero" fill-opacity="1" /><path clip-path="url(#clip900)" d="M126.205 407.967 Q122.593 407.967 120.765 411.532 Q118.959 415.074 118.959 422.203 Q118.959 429.31 120.765 432.874 Q122.593 436.416 126.205 436.416 Q129.839 436.416 131.644 432.874 Q133.473 429.31 133.473 422.203 Q133.473 415.074 131.644 411.532 Q129.839 407.967 126.205 407.967 M126.205 404.263 Q132.015 404.263 135.07 408.87 Q138.149 413.453 138.149 422.203 Q138.149 430.93 135.07 435.536 Q132.015 440.12 126.205 440.12 Q120.394 440.12 117.316 435.536 Q114.26 430.93 114.26 422.203 Q114.26 413.453 117.316 408.87 Q120.394 404.263 126.205 404.263 Z" fill="#000000" fill-rule="nonzero" fill-opacity="1" /><path clip-path="url(#clip900)" d="M146.366 433.569 L151.251 433.569 L151.251 439.448 L146.366 439.448 L146.366 433.569 Z" fill="#000000" fill-rule="nonzero" fill-opacity="1" /><path clip-path="url(#clip900)" d="M171.436 407.967 Q167.825 407.967 165.996 411.532 Q164.19 415.074 164.19 422.203 Q164.19 429.31 165.996 432.874 Q167.825 436.416 171.436 436.416 Q175.07 436.416 176.876 432.874 Q178.704 429.31 178.704 422.203 Q178.704 415.074 176.876 411.532 Q175.07 407.967 171.436 407.967 M171.436 404.263 Q177.246 404.263 180.301 408.87 Q183.38 413.453 183.38 422.203 Q183.38 430.93 180.301 435.536 Q177.246 440.12 171.436 440.12 Q165.626 440.12 162.547 435.536 Q159.491 430.93 159.491 422.203 Q159.491 413.453 162.547 408.87 Q165.626 404.263 171.436 404.263 Z" fill="#000000" fill-rule="nonzero" fill-opacity="1" /><path clip-path="url(#clip900)" d="M192.408 435.513 L200.047 435.513 L200.047 409.148 L191.737 410.814 L191.737 406.555 L200 404.888 L204.676 404.888 L204.676 435.513 L212.315 435.513 L212.315 439.448 L192.408 439.448 L192.408 435.513 Z" fill="#000000" fill-rule="nonzero" fill-opacity="1" /><path clip-path="url(#clip900)" d="M231.76 407.967 Q228.148 407.967 226.32 411.532 Q224.514 415.074 224.514 422.203 Q224.514 429.31 226.32 432.874 Q228.148 436.416 231.76 436.416 Q235.394 436.416 237.199 432.874 Q239.028 429.31 239.028 422.203 Q239.028 415.074 237.199 411.532 Q235.394 407.967 231.76 407.967 M231.76 404.263 Q237.57 404.263 240.625 408.87 Q243.704 413.453 243.704 422.203 Q243.704 430.93 240.625 435.536 Q237.57 440.12 231.76 440.12 Q225.949 440.12 222.871 435.536 Q219.815 430.93 219.815 422.203 Q219.815 413.453 222.871 408.87 Q225.949 404.263 231.76 404.263 Z" fill="#000000" fill-rule="nonzero" fill-opacity="1" /><path clip-path="url(#clip900)" d="M251.968 404.888 L270.324 404.888 L270.324 408.824 L256.25 408.824 L256.25 417.296 Q257.269 416.948 258.287 416.786 Q259.306 416.601 260.324 416.601 Q266.111 416.601 269.491 419.773 Q272.87 422.944 272.87 428.36 Q272.87 433.939 269.398 437.041 Q265.926 440.12 259.607 440.12 Q257.431 440.12 255.162 439.749 Q252.917 439.379 250.509 438.638 L250.509 433.939 Q252.593 435.073 254.815 435.629 Q257.037 436.185 259.514 436.185 Q263.519 436.185 265.857 434.078 Q268.195 431.972 268.195 428.36 Q268.195 424.749 265.857 422.643 Q263.519 420.536 259.514 420.536 Q257.639 420.536 255.764 420.953 Q253.912 421.37 251.968 422.249 L251.968 404.888 Z" fill="#000000" fill-rule="nonzero" fill-opacity="1" /><path clip-path="url(#clip900)" d="M292.083 407.967 Q288.472 407.967 286.643 411.532 Q284.838 415.074 284.838 422.203 Q284.838 429.31 286.643 432.874 Q288.472 436.416 292.083 436.416 Q295.718 436.416 297.523 432.874 Q299.352 429.31 299.352 422.203 Q299.352 415.074 297.523 411.532 Q295.718 407.967 292.083 407.967 M292.083 404.263 Q297.893 404.263 300.949 408.87 Q304.028 413.453 304.028 422.203 Q304.028 430.93 300.949 435.536 Q297.893 440.12 292.083 440.12 Q286.273 440.12 283.194 435.536 Q280.139 430.93 280.139 422.203 Q280.139 413.453 283.194 408.87 Q286.273 404.263 292.083 404.263 Z" fill="#000000" fill-rule="nonzero" fill-opacity="1" /><path clip-path="url(#clip900)" d="M127.2 131.833 Q123.589 131.833 121.76 135.398 Q119.955 138.939 119.955 146.069 Q119.955 153.175 121.76 156.74 Q123.589 160.282 127.2 160.282 Q130.834 160.282 132.64 156.74 Q134.468 153.175 134.468 146.069 Q134.468 138.939 132.64 135.398 Q130.834 131.833 127.2 131.833 M127.2 128.129 Q133.01 128.129 136.066 132.736 Q139.144 137.319 139.144 146.069 Q139.144 154.796 136.066 159.402 Q133.01 163.985 127.2 163.985 Q121.39 163.985 118.311 159.402 Q115.256 154.796 115.256 146.069 Q115.256 137.319 118.311 132.736 Q121.39 128.129 127.2 128.129 Z" fill="#000000" fill-rule="nonzero" fill-opacity="1" /><path clip-path="url(#clip900)" d="M147.362 157.434 L152.246 157.434 L152.246 163.314 L147.362 163.314 L147.362 157.434 Z" fill="#000000" fill-rule="nonzero" fill-opacity="1" /><path clip-path="url(#clip900)" d="M172.431 131.833 Q168.82 131.833 166.991 135.398 Q165.186 138.939 165.186 146.069 Q165.186 153.175 166.991 156.74 Q168.82 160.282 172.431 160.282 Q176.065 160.282 177.871 156.74 Q179.7 153.175 179.7 146.069 Q179.7 138.939 177.871 135.398 Q176.065 131.833 172.431 131.833 M172.431 128.129 Q178.241 128.129 181.297 132.736 Q184.376 137.319 184.376 146.069 Q184.376 154.796 181.297 159.402 Q178.241 163.985 172.431 163.985 Q166.621 163.985 163.542 159.402 Q160.487 154.796 160.487 146.069 Q160.487 137.319 163.542 132.736 Q166.621 128.129 172.431 128.129 Z" fill="#000000" fill-rule="nonzero" fill-opacity="1" /><path clip-path="url(#clip900)" d="M193.403 159.379 L201.042 159.379 L201.042 133.013 L192.732 134.68 L192.732 130.421 L200.996 128.754 L205.672 128.754 L205.672 159.379 L213.311 159.379 L213.311 163.314 L193.403 163.314 L193.403 159.379 Z" fill="#000000" fill-rule="nonzero" fill-opacity="1" /><path clip-path="url(#clip900)" d="M232.755 131.833 Q229.144 131.833 227.315 135.398 Q225.51 138.939 225.51 146.069 Q225.51 153.175 227.315 156.74 Q229.144 160.282 232.755 160.282 Q236.389 160.282 238.195 156.74 Q240.023 153.175 240.023 146.069 Q240.023 138.939 238.195 135.398 Q236.389 131.833 232.755 131.833 M232.755 128.129 Q238.565 128.129 241.621 132.736 Q244.699 137.319 244.699 146.069 Q244.699 154.796 241.621 159.402 Q238.565 163.985 232.755 163.985 Q226.945 163.985 223.866 159.402 Q220.811 154.796 220.811 146.069 Q220.811 137.319 223.866 132.736 Q226.945 128.129 232.755 128.129 Z" fill="#000000" fill-rule="nonzero" fill-opacity="1" /><path clip-path="url(#clip900)" d="M251.736 128.754 L273.958 128.754 L273.958 130.745 L261.412 163.314 L256.528 163.314 L268.333 132.689 L251.736 132.689 L251.736 128.754 Z" fill="#000000" fill-rule="nonzero" fill-opacity="1" /><path clip-path="url(#clip900)" d="M283.125 128.754 L301.481 128.754 L301.481 132.689 L287.407 132.689 L287.407 141.161 Q288.426 140.814 289.444 140.652 Q290.463 140.467 291.481 140.467 Q297.268 140.467 300.648 143.638 Q304.028 146.81 304.028 152.226 Q304.028 157.805 300.555 160.907 Q297.083 163.985 290.764 163.985 Q288.588 163.985 286.319 163.615 Q284.074 163.245 281.667 162.504 L281.667 157.805 Q283.75 158.939 285.972 159.495 Q288.194 160.05 290.671 160.05 Q294.676 160.05 297.014 157.944 Q299.352 155.837 299.352 152.226 Q299.352 148.615 297.014 146.509 Q294.676 144.402 290.671 144.402 Q288.796 144.402 286.921 144.819 Q285.069 145.235 283.125 146.115 L283.125 128.754 Z" fill="#000000" fill-rule="nonzero" fill-opacity="1" /><path clip-path="url(#clip900)" d="M33.7671 788.508 L14.479 788.508 L14.479 782.652 L64.0042 782.652 L64.0042 788.508 L58.657 788.508 Q61.8398 790.354 63.3994 793.187 Q64.9272 795.988 64.9272 799.935 Q64.9272 806.396 59.771 810.47 Q54.6147 814.512 46.212 814.512 Q37.8093 814.512 32.6531 810.47 Q27.4968 806.396 27.4968 799.935 Q27.4968 795.988 29.0564 793.187 Q30.5842 790.354 33.7671 788.508 M46.212 808.465 Q52.6732 808.465 56.3653 805.823 Q60.0256 803.149 60.0256 798.502 Q60.0256 793.855 56.3653 791.182 Q52.6732 788.508 46.212 788.508 Q39.7508 788.508 36.0905 791.182 Q32.3984 793.855 32.3984 798.502 Q32.3984 803.149 36.0905 805.823 Q39.7508 808.465 46.212 808.465 Z" fill="#000000" fill-rule="nonzero" fill-opacity="1" /><path clip-path="url(#clip900)" d="M74.8259 743.503 L79.3773 743.503 L79.3773 777.368 L74.8259 777.368 L74.8259 743.503 Z" fill="#000000" fill-rule="nonzero" fill-opacity="1" /><path clip-path="url(#clip900)" d="M28.3562 737.996 L28.3562 732.14 L64.0042 732.14 L64.0042 737.996 L28.3562 737.996 M14.479 737.996 L14.479 732.14 L21.895 732.14 L21.895 737.996 L14.479 737.996 Z" fill="#000000" fill-rule="nonzero" fill-opacity="1" /><path clip-path="url(#clip900)" d="M809.546 18.8205 L809.546 65.8515 L819.43 65.8515 Q831.947 65.8515 837.74 60.1802 Q843.573 54.509 843.573 42.2752 Q843.573 30.1225 837.74 24.4918 Q831.947 18.8205 819.43 18.8205 L809.546 18.8205 M801.363 12.096 L818.174 12.096 Q835.755 12.096 843.978 19.4281 Q852.202 26.7198 852.202 42.2752 Q852.202 57.9117 843.938 65.2439 Q835.674 72.576 818.174 72.576 L801.363 72.576 L801.363 12.096 Z" fill="#000000" fill-rule="nonzero" fill-opacity="1" /><path clip-path="url(#clip900)" d="M864.922 27.2059 L872.375 27.2059 L872.375 72.576 L864.922 72.576 L864.922 27.2059 M864.922 9.54393 L872.375 9.54393 L872.375 18.9825 L864.922 18.9825 L864.922 9.54393 Z" fill="#000000" fill-rule="nonzero" fill-opacity="1" /><path clip-path="url(#clip900)" d="M916.895 28.5427 L916.895 35.5912 Q913.735 33.9709 910.332 33.1607 Q906.929 32.3505 903.284 32.3505 Q897.734 32.3505 894.939 34.0519 Q892.184 35.7533 892.184 39.156 Q892.184 41.7486 894.169 43.2475 Q896.154 44.7058 902.149 46.0426 L904.701 46.6097 Q912.641 48.3111 915.963 51.4303 Q919.325 54.509 919.325 60.0587 Q919.325 66.3781 914.302 70.0644 Q909.319 73.7508 900.57 73.7508 Q896.924 73.7508 892.954 73.0216 Q889.024 72.3329 884.649 70.9151 L884.649 63.2184 Q888.781 65.3654 892.792 66.4591 Q896.802 67.5124 900.732 67.5124 Q905.998 67.5124 908.833 65.73 Q911.669 63.9071 911.669 60.6258 Q911.669 57.5877 909.603 55.9673 Q907.578 54.3469 900.651 52.8481 L898.058 52.2405 Q891.131 50.7821 888.052 47.7845 Q884.974 44.7463 884.974 39.4801 Q884.974 33.0797 889.511 29.5959 Q894.048 26.1121 902.392 26.1121 Q906.524 26.1121 910.17 26.7198 Q913.816 27.3274 916.895 28.5427 Z" fill="#000000" fill-rule="nonzero" fill-opacity="1" /><path clip-path="url(#clip900)" d="M938.567 14.324 L938.567 27.2059 L953.92 27.2059 L953.92 32.9987 L938.567 32.9987 L938.567 57.6282 Q938.567 63.1779 940.066 64.7578 Q941.605 66.3376 946.264 66.3376 L953.92 66.3376 L953.92 72.576 L946.264 72.576 Q937.635 72.576 934.354 69.3758 Q931.073 66.1351 931.073 57.6282 L931.073 32.9987 L925.604 32.9987 L925.604 27.2059 L931.073 27.2059 L931.073 14.324 L938.567 14.324 Z" fill="#000000" fill-rule="nonzero" fill-opacity="1" /><path clip-path="url(#clip900)" d="M984.342 49.7694 Q975.309 49.7694 971.825 51.8354 Q968.341 53.9013 968.341 58.8839 Q968.341 62.8538 970.934 65.2034 Q973.567 67.5124 978.063 67.5124 Q984.261 67.5124 987.988 63.1374 Q991.755 58.7219 991.755 51.4303 L991.755 49.7694 L984.342 49.7694 M999.209 46.6907 L999.209 72.576 L991.755 72.576 L991.755 65.6895 Q989.203 69.8214 985.395 71.8063 Q981.588 73.7508 976.078 73.7508 Q969.111 73.7508 964.979 69.8619 Q960.887 65.9325 960.887 59.3701 Q960.887 51.7138 965.992 47.825 Q971.136 43.9361 981.304 43.9361 L991.755 43.9361 L991.755 43.2069 Q991.755 38.0623 988.353 35.2672 Q984.99 32.4315 978.873 32.4315 Q974.985 32.4315 971.298 33.3632 Q967.612 34.295 964.209 36.1584 L964.209 29.2718 Q968.301 27.692 972.149 26.9223 Q975.997 26.1121 979.643 26.1121 Q989.487 26.1121 994.348 31.2163 Q999.209 36.3204 999.209 46.6907 Z" fill="#000000" fill-rule="nonzero" fill-opacity="1" /><path clip-path="url(#clip900)" d="M1052.28 45.1919 L1052.28 72.576 L1044.82 72.576 L1044.82 45.4349 Q1044.82 38.994 1042.31 35.7938 Q1039.8 32.5936 1034.78 32.5936 Q1028.74 32.5936 1025.26 36.4419 Q1021.77 40.2903 1021.77 46.9338 L1021.77 72.576 L1014.28 72.576 L1014.28 27.2059 L1021.77 27.2059 L1021.77 34.2544 Q1024.45 30.163 1028.05 28.1376 Q1031.7 26.1121 1036.44 26.1121 Q1044.26 26.1121 1048.27 30.9732 Q1052.28 35.7938 1052.28 45.1919 Z" fill="#000000" fill-rule="nonzero" fill-opacity="1" /><path clip-path="url(#clip900)" d="M1099.79 28.9478 L1099.79 35.9153 Q1096.63 34.1734 1093.43 33.3227 Q1090.27 32.4315 1087.03 32.4315 Q1079.78 32.4315 1075.77 37.0496 Q1071.76 41.6271 1071.76 49.9314 Q1071.76 58.2358 1075.77 62.8538 Q1079.78 67.4314 1087.03 67.4314 Q1090.27 67.4314 1093.43 66.5807 Q1096.63 65.6895 1099.79 63.9476 L1099.79 70.8341 Q1096.67 72.2924 1093.31 73.0216 Q1089.99 73.7508 1086.22 73.7508 Q1075.97 73.7508 1069.94 67.3098 Q1063.9 60.8689 1063.9 49.9314 Q1063.9 38.832 1069.98 32.472 Q1076.1 26.1121 1086.71 26.1121 Q1090.15 26.1121 1093.43 26.8413 Q1096.71 27.5299 1099.79 28.9478 Z" fill="#000000" fill-rule="nonzero" fill-opacity="1" /><path clip-path="url(#clip900)" d="M1151.56 48.0275 L1151.56 51.6733 L1117.29 51.6733 Q1117.78 59.3701 1121.91 63.421 Q1126.08 67.4314 1133.5 67.4314 Q1137.79 67.4314 1141.8 66.3781 Q1145.85 65.3249 1149.82 63.2184 L1149.82 70.267 Q1145.81 71.9684 1141.6 72.8596 Q1137.39 73.7508 1133.05 73.7508 Q1122.19 73.7508 1115.83 67.4314 Q1109.52 61.1119 1109.52 50.3365 Q1109.52 39.1965 1115.51 32.6746 Q1121.55 26.1121 1131.75 26.1121 Q1140.91 26.1121 1146.22 32.0264 Q1151.56 37.9003 1151.56 48.0275 M1144.11 45.84 Q1144.03 39.7232 1140.67 36.0774 Q1137.34 32.4315 1131.84 32.4315 Q1125.6 32.4315 1121.83 35.9558 Q1118.1 39.4801 1117.54 45.8805 L1144.11 45.84 Z" fill="#000000" fill-rule="nonzero" fill-opacity="1" /><path clip-path="url(#clip900)" d="M1197.54 14.324 L1197.54 27.2059 L1212.89 27.2059 L1212.89 32.9987 L1197.54 32.9987 L1197.54 57.6282 Q1197.54 63.1779 1199.04 64.7578 Q1200.58 66.3376 1205.24 66.3376 L1212.89 66.3376 L1212.89 72.576 L1205.24 72.576 Q1196.61 72.576 1193.33 69.3758 Q1190.05 66.1351 1190.05 57.6282 L1190.05 32.9987 L1184.58 32.9987 L1184.58 27.2059 L1190.05 27.2059 L1190.05 14.324 L1197.54 14.324 Z" fill="#000000" fill-rule="nonzero" fill-opacity="1" /><path clip-path="url(#clip900)" d="M1248.99 34.1734 Q1247.73 33.4443 1246.23 33.1202 Q1244.77 32.7556 1242.99 32.7556 Q1236.67 32.7556 1233.27 36.8875 Q1229.91 40.9789 1229.91 48.6757 L1229.91 72.576 L1222.41 72.576 L1222.41 27.2059 L1229.91 27.2059 L1229.91 34.2544 Q1232.26 30.1225 1236.02 28.1376 Q1239.79 26.1121 1245.18 26.1121 Q1245.95 26.1121 1246.88 26.2337 Q1247.81 26.3147 1248.95 26.5172 L1248.99 34.1734 Z" fill="#000000" fill-rule="nonzero" fill-opacity="1" /><path clip-path="url(#clip900)" d="M1277.43 49.7694 Q1268.39 49.7694 1264.91 51.8354 Q1261.42 53.9013 1261.42 58.8839 Q1261.42 62.8538 1264.02 65.2034 Q1266.65 67.5124 1271.15 67.5124 Q1277.34 67.5124 1281.07 63.1374 Q1284.84 58.7219 1284.84 51.4303 L1284.84 49.7694 L1277.43 49.7694 M1292.29 46.6907 L1292.29 72.576 L1284.84 72.576 L1284.84 65.6895 Q1282.29 69.8214 1278.48 71.8063 Q1274.67 73.7508 1269.16 73.7508 Q1262.19 73.7508 1258.06 69.8619 Q1253.97 65.9325 1253.97 59.3701 Q1253.97 51.7138 1259.07 47.825 Q1264.22 43.9361 1274.39 43.9361 L1284.84 43.9361 L1284.84 43.2069 Q1284.84 38.0623 1281.44 35.2672 Q1278.07 32.4315 1271.96 32.4315 Q1268.07 32.4315 1264.38 33.3632 Q1260.69 34.295 1257.29 36.1584 L1257.29 29.2718 Q1261.38 27.692 1265.23 26.9223 Q1269.08 26.1121 1272.73 26.1121 Q1282.57 26.1121 1287.43 31.2163 Q1292.29 36.3204 1292.29 46.6907 Z" fill="#000000" fill-rule="nonzero" fill-opacity="1" /><path clip-path="url(#clip900)" d="M1340.3 28.9478 L1340.3 35.9153 Q1337.14 34.1734 1333.94 33.3227 Q1330.78 32.4315 1327.53 32.4315 Q1320.28 32.4315 1316.27 37.0496 Q1312.26 41.6271 1312.26 49.9314 Q1312.26 58.2358 1316.27 62.8538 Q1320.28 67.4314 1327.53 67.4314 Q1330.78 67.4314 1333.94 66.5807 Q1337.14 65.6895 1340.3 63.9476 L1340.3 70.8341 Q1337.18 72.2924 1333.81 73.0216 Q1330.49 73.7508 1326.72 73.7508 Q1316.48 73.7508 1310.44 67.3098 Q1304.4 60.8689 1304.4 49.9314 Q1304.4 38.832 1310.48 32.472 Q1316.6 26.1121 1327.21 26.1121 Q1330.65 26.1121 1333.94 26.8413 Q1337.22 27.5299 1340.3 28.9478 Z" fill="#000000" fill-rule="nonzero" fill-opacity="1" /><path clip-path="url(#clip900)" d="M1392.07 48.0275 L1392.07 51.6733 L1357.8 51.6733 Q1358.28 59.3701 1362.41 63.421 Q1366.59 67.4314 1374 67.4314 Q1378.29 67.4314 1382.3 66.3781 Q1386.35 65.3249 1390.32 63.2184 L1390.32 70.267 Q1386.31 71.9684 1382.1 72.8596 Q1377.89 73.7508 1373.55 73.7508 Q1362.7 73.7508 1356.34 67.4314 Q1350.02 61.1119 1350.02 50.3365 Q1350.02 39.1965 1356.01 32.6746 Q1362.05 26.1121 1372.26 26.1121 Q1381.41 26.1121 1386.72 32.0264 Q1392.07 37.9003 1392.07 48.0275 M1384.61 45.84 Q1384.53 39.7232 1381.17 36.0774 Q1377.85 32.4315 1372.34 32.4315 Q1366.1 32.4315 1362.33 35.9558 Q1358.61 39.4801 1358.04 45.8805 L1384.61 45.84 Z" fill="#000000" fill-rule="nonzero" fill-opacity="1" /><path clip-path="url(#clip900)" d="M1463.24 49.9314 Q1463.24 41.7081 1459.84 37.0496 Q1456.48 32.3505 1450.56 32.3505 Q1444.65 32.3505 1441.24 37.0496 Q1437.88 41.7081 1437.88 49.9314 Q1437.88 58.1548 1441.24 62.8538 Q1444.65 67.5124 1450.56 67.5124 Q1456.48 67.5124 1459.84 62.8538 Q1463.24 58.1548 1463.24 49.9314 M1437.88 34.0924 Q1440.23 30.0415 1443.8 28.0971 Q1447.4 26.1121 1452.38 26.1121 Q1460.65 26.1121 1465.79 32.6746 Q1470.98 39.2371 1470.98 49.9314 Q1470.98 60.6258 1465.79 67.1883 Q1460.65 73.7508 1452.38 73.7508 Q1447.4 73.7508 1443.8 71.8063 Q1440.23 69.8214 1437.88 65.7705 L1437.88 72.576 L1430.39 72.576 L1430.39 9.54393 L1437.88 9.54393 L1437.88 34.0924 Z" fill="#000000" fill-rule="nonzero" fill-opacity="1" /><path clip-path="url(#clip900)" d="M1522.14 48.0275 L1522.14 51.6733 L1487.87 51.6733 Q1488.36 59.3701 1492.49 63.421 Q1496.66 67.4314 1504.07 67.4314 Q1508.37 67.4314 1512.38 66.3781 Q1516.43 65.3249 1520.4 63.2184 L1520.4 70.267 Q1516.39 71.9684 1512.18 72.8596 Q1507.96 73.7508 1503.63 73.7508 Q1492.77 73.7508 1486.41 67.4314 Q1480.09 61.1119 1480.09 50.3365 Q1480.09 39.1965 1486.09 32.6746 Q1492.12 26.1121 1502.33 26.1121 Q1511.49 26.1121 1516.79 32.0264 Q1522.14 37.9003 1522.14 48.0275 M1514.69 45.84 Q1514.61 39.7232 1511.24 36.0774 Q1507.92 32.4315 1502.41 32.4315 Q1496.17 32.4315 1492.41 35.9558 Q1488.68 39.4801 1488.11 45.8805 L1514.69 45.84 Z" fill="#000000" fill-rule="nonzero" fill-opacity="1" /><path clip-path="url(#clip900)" d="M1563.3 28.5427 L1563.3 35.5912 Q1560.14 33.9709 1556.73 33.1607 Q1553.33 32.3505 1549.69 32.3505 Q1544.14 32.3505 1541.34 34.0519 Q1538.59 35.7533 1538.59 39.156 Q1538.59 41.7486 1540.57 43.2475 Q1542.56 44.7058 1548.55 46.0426 L1551.1 46.6097 Q1559.04 48.3111 1562.37 51.4303 Q1565.73 54.509 1565.73 60.0587 Q1565.73 66.3781 1560.7 70.0644 Q1555.72 73.7508 1546.97 73.7508 Q1543.33 73.7508 1539.36 73.0216 Q1535.43 72.3329 1531.05 70.9151 L1531.05 63.2184 Q1535.18 65.3654 1539.19 66.4591 Q1543.2 67.5124 1547.13 67.5124 Q1552.4 67.5124 1555.24 65.73 Q1558.07 63.9071 1558.07 60.6258 Q1558.07 57.5877 1556.01 55.9673 Q1553.98 54.3469 1547.05 52.8481 L1544.46 52.2405 Q1537.53 50.7821 1534.46 47.7845 Q1531.38 44.7463 1531.38 39.4801 Q1531.38 33.0797 1535.91 29.5959 Q1540.45 26.1121 1548.8 26.1121 Q1552.93 26.1121 1556.57 26.7198 Q1560.22 27.3274 1563.3 28.5427 Z" fill="#000000" fill-rule="nonzero" fill-opacity="1" /><path clip-path="url(#clip900)" d="M1584.97 14.324 L1584.97 27.2059 L1600.32 27.2059 L1600.32 32.9987 L1584.97 32.9987 L1584.97 57.6282 Q1584.97 63.1779 1586.47 64.7578 Q1588.01 66.3376 1592.67 66.3376 L1600.32 66.3376 L1600.32 72.576 L1592.67 72.576 Q1584.04 72.576 1580.76 69.3758 Q1577.48 66.1351 1577.48 57.6282 L1577.48 32.9987 L1572.01 32.9987 L1572.01 27.2059 L1577.48 27.2059 L1577.48 14.324 L1584.97 14.324 Z" fill="#000000" fill-rule="nonzero" fill-opacity="1" /><path clip-path="url(#clip900)" d="M1631.15 27.2059 L1639.05 27.2059 L1653.23 65.2844 L1667.41 27.2059 L1675.3 27.2059 L1658.29 72.576 L1648.16 72.576 L1631.15 27.2059 Z" fill="#000000" fill-rule="nonzero" fill-opacity="1" /><path clip-path="url(#clip900)" d="M1724.4 48.0275 L1724.4 51.6733 L1690.13 51.6733 Q1690.62 59.3701 1694.75 63.421 Q1698.92 67.4314 1706.33 67.4314 Q1710.63 67.4314 1714.64 66.3781 Q1718.69 65.3249 1722.66 63.2184 L1722.66 70.267 Q1718.65 71.9684 1714.44 72.8596 Q1710.22 73.7508 1705.89 73.7508 Q1695.03 73.7508 1688.67 67.4314 Q1682.35 61.1119 1682.35 50.3365 Q1682.35 39.1965 1688.35 32.6746 Q1694.38 26.1121 1704.59 26.1121 Q1713.75 26.1121 1719.05 32.0264 Q1724.4 37.9003 1724.4 48.0275 M1716.95 45.84 Q1716.87 39.7232 1713.5 36.0774 Q1710.18 32.4315 1704.67 32.4315 Q1698.44 32.4315 1694.67 35.9558 Q1690.94 39.4801 1690.37 45.8805 L1716.95 45.84 Z" fill="#000000" fill-rule="nonzero" fill-opacity="1" /><path clip-path="url(#clip900)" d="M1762.93 34.1734 Q1761.67 33.4443 1760.17 33.1202 Q1758.71 32.7556 1756.93 32.7556 Q1750.61 32.7556 1747.21 36.8875 Q1743.85 40.9789 1743.85 48.6757 L1743.85 72.576 L1736.35 72.576 L1736.35 27.2059 L1743.85 27.2059 L1743.85 34.2544 Q1746.2 30.1225 1749.96 28.1376 Q1753.73 26.1121 1759.12 26.1121 Q1759.89 26.1121 1760.82 26.2337 Q1761.75 26.3147 1762.89 26.5172 L1762.93 34.1734 Z" fill="#000000" fill-rule="nonzero" fill-opacity="1" /><path clip-path="url(#clip900)" d="M1778.12 14.324 L1778.12 27.2059 L1793.47 27.2059 L1793.47 32.9987 L1778.12 32.9987 L1778.12 57.6282 Q1778.12 63.1779 1779.62 64.7578 Q1781.16 66.3376 1785.81 66.3376 L1793.47 66.3376 L1793.47 72.576 L1785.81 72.576 Q1777.19 72.576 1773.9 69.3758 Q1770.62 66.1351 1770.62 57.6282 L1770.62 32.9987 L1765.15 32.9987 L1765.15 27.2059 L1770.62 27.2059 L1770.62 14.324 L1778.12 14.324 Z" fill="#000000" fill-rule="nonzero" fill-opacity="1" /><path clip-path="url(#clip900)" d="M1842.08 48.0275 L1842.08 51.6733 L1807.81 51.6733 Q1808.3 59.3701 1812.43 63.421 Q1816.6 67.4314 1824.01 67.4314 Q1828.31 67.4314 1832.32 66.3781 Q1836.37 65.3249 1840.34 63.2184 L1840.34 70.267 Q1836.33 71.9684 1832.12 72.8596 Q1827.9 73.7508 1823.57 73.7508 Q1812.71 73.7508 1806.35 67.4314 Q1800.03 61.1119 1800.03 50.3365 Q1800.03 39.1965 1806.03 32.6746 Q1812.06 26.1121 1822.27 26.1121 Q1831.43 26.1121 1836.73 32.0264 Q1842.08 37.9003 1842.08 48.0275 M1834.63 45.84 Q1834.55 39.7232 1831.18 36.0774 Q1827.86 32.4315 1822.35 32.4315 Q1816.11 32.4315 1812.35 35.9558 Q1808.62 39.4801 1808.05 45.8805 L1834.63 45.84 Z" fill="#000000" fill-rule="nonzero" fill-opacity="1" /><path clip-path="url(#clip900)" d="M1890.57 27.2059 L1874.16 49.2833 L1891.42 72.576 L1882.63 72.576 L1869.42 54.752 L1856.22 72.576 L1847.43 72.576 L1865.05 48.8377 L1848.93 27.2059 L1857.72 27.2059 L1869.75 43.369 L1881.78 27.2059 L1890.57 27.2059 Z" fill="#000000" fill-rule="nonzero" fill-opacity="1" /><polyline clip-path="url(#clip902)" style="stroke:#009af9; stroke-linecap:round; stroke-linejoin:round; stroke-width:4; stroke-opacity:1; fill:none" points="396.992,438.837 434.968,476.111 472.944,534.137 510.92,563.193 548.896,570.599 586.872,572.253 624.848,572.483 662.824,572.498 700.8,572.512 738.776,572.512 776.752,572.513 814.728,572.513 852.704,572.513 890.68,572.513 928.656,572.513 966.632,572.513 1004.61,572.513 1042.58,572.513 1080.56,572.513 1118.54,572.513 1156.51,572.513 1194.49,572.513 1232.46,572.513 1270.44,572.513 1308.42,572.513 1346.39,572.513 1384.37,572.513 1422.34,572.513 1460.32,572.513 1498.3,572.513 1536.27,572.513 1574.25,572.513 1612.22,572.513 1650.2,572.513 1688.18,572.513 1726.15,572.513 1764.13,572.513 1802.1,572.513 1840.08,572.513 1878.06,572.513 1916.03,572.513 1954.01,572.513 1991.98,572.513 2029.96,572.513 2067.94,572.513 2105.91,572.513 2143.89,572.513 2181.86,572.513 2219.84,572.513 2257.82,572.513 2295.79,572.513 "/>
<polyline clip-path="url(#clip902)" style="stroke:#e26f46; stroke-linecap:round; stroke-linejoin:round; stroke-width:4; stroke-opacity:1; fill:none" points="396.992,1336.82 434.968,1346.86 472.944,1296.38 510.92,1286.45 548.896,1279.25 586.872,1277.17 624.848,1277.38 662.824,1277.4 700.8,1277.22 738.776,1277.22 776.752,1277.22 814.728,1277.22 852.704,1277.22 890.68,1277.22 928.656,1277.22 966.632,1277.22 1004.61,1277.22 1042.58,1277.22 1080.56,1277.22 1118.54,1277.22 1156.51,1277.22 1194.49,1277.22 1232.46,1277.22 1270.44,1277.22 1308.42,1277.22 1346.39,1277.22 1384.37,1277.22 1422.34,1277.22 1460.32,1277.22 1498.3,1277.22 1536.27,1277.22 1574.25,1277.22 1612.22,1277.22 1650.2,1277.22 1688.18,1277.22 1726.15,1277.22 1764.13,1277.22 1802.1,1277.22 1840.08,1277.22 1878.06,1277.22 1916.03,1277.22 1954.01,1277.22 1991.98,1277.22 2029.96,1277.22 2067.94,1277.22 2105.91,1277.22 2143.89,1277.22 2181.86,1277.22 2219.84,1277.22 2257.82,1277.22 2295.79,1277.22 "/>
<polyline clip-path="url(#clip902)" style="stroke:#3da44d; stroke-linecap:round; stroke-linejoin:round; stroke-width:4; stroke-opacity:1; fill:none" points="396.992,857.726 434.968,753.519 472.944,836.247 510.92,844.465 548.896,847.054 586.872,847.72 624.848,847.653 662.824,847.648 700.8,847.832 738.776,847.832 776.752,847.833 814.728,847.833 852.704,847.833 890.68,847.833 928.656,847.833 966.632,847.833 1004.61,847.833 1042.58,847.833 1080.56,847.833 1118.54,847.833 1156.51,847.833 1194.49,847.833 1232.46,847.833 1270.44,847.833 1308.42,847.833 1346.39,847.833 1384.37,847.833 1422.34,847.833 1460.32,847.833 1498.3,847.833 1536.27,847.833 1574.25,847.833 1612.22,847.833 1650.2,847.833 1688.18,847.833 1726.15,847.833 1764.13,847.833 1802.1,847.833 1840.08,847.833 1878.06,847.833 1916.03,847.833 1954.01,847.833 1991.98,847.833 2029.96,847.833 2067.94,847.833 2105.91,847.833 2143.89,847.833 2181.86,847.833 2219.84,847.833 2257.82,847.833 2295.79,847.833 "/>
<polyline clip-path="url(#clip902)" style="stroke:#c271d2; stroke-linecap:round; stroke-linejoin:round; stroke-width:4; stroke-opacity:1; fill:none" points="396.992,195.847 434.968,373.025 472.944,318.382 510.92,305.328 548.896,309.715 586.872,311.229 624.848,310.809 662.824,310.778 700.8,311.07 738.776,311.07 776.752,311.07 814.728,311.07 852.704,311.07 890.68,311.07 928.656,311.07 966.632,311.07 1004.61,311.07 1042.58,311.07 1080.56,311.07 1118.54,311.07 1156.51,311.07 1194.49,311.07 1232.46,311.07 1270.44,311.07 1308.42,311.07 1346.39,311.07 1384.37,311.07 1422.34,311.07 1460.32,311.07 1498.3,311.07 1536.27,311.07 1574.25,311.07 1612.22,311.07 1650.2,311.07 1688.18,311.07 1726.15,311.07 1764.13,311.07 1802.1,311.07 1840.08,311.07 1878.06,311.07 1916.03,311.07 1954.01,311.07 1991.98,311.07 2029.96,311.07 2067.94,311.07 2105.91,311.07 2143.89,311.07 2181.86,311.07 2219.84,311.07 2257.82,311.07 2295.79,311.07 "/>
<polyline clip-path="url(#clip902)" style="stroke:#ac8d18; stroke-linecap:round; stroke-linejoin:round; stroke-width:4; stroke-opacity:1; fill:none" points="396.992,681.653 434.968,758.959 472.944,677.699 510.92,673.347 548.896,681.703 586.872,684.196 624.848,684.46 662.824,684.474 700.8,684.137 738.776,684.137 776.752,684.137 814.728,684.137 852.704,684.137 890.68,684.137 928.656,684.137 966.632,684.137 1004.61,684.137 1042.58,684.137 1080.56,684.137 1118.54,684.137 1156.51,684.137 1194.49,684.137 1232.46,684.137 1270.44,684.137 1308.42,684.137 1346.39,684.137 1384.37,684.137 1422.34,684.137 1460.32,684.137 1498.3,684.137 1536.27,684.137 1574.25,684.137 1612.22,684.137 1650.2,684.137 1688.18,684.137 1726.15,684.137 1764.13,684.137 1802.1,684.137 1840.08,684.137 1878.06,684.137 1916.03,684.137 1954.01,684.137 1991.98,684.137 2029.96,684.137 2067.94,684.137 2105.91,684.137 2143.89,684.137 2181.86,684.137 2219.84,684.137 2257.82,684.137 2295.79,684.137 "/>
<polyline clip-path="url(#clip902)" style="stroke:#00a9ad; stroke-linecap:round; stroke-linejoin:round; stroke-width:4; stroke-opacity:1; fill:none" points="396.992,472.205 434.968,350.802 472.944,511.778 510.92,560.318 548.896,563.644 586.872,563.912 624.848,564.094 662.824,564.109 700.8,564.186 738.776,564.186 776.752,564.187 814.728,564.187 852.704,564.187 890.68,564.187 928.656,564.187 966.632,564.187 1004.61,564.187 1042.58,564.187 1080.56,564.187 1118.54,564.187 1156.51,564.187 1194.49,564.187 1232.46,564.187 1270.44,564.187 1308.42,564.187 1346.39,564.187 1384.37,564.187 1422.34,564.187 1460.32,564.187 1498.3,564.187 1536.27,564.187 1574.25,564.187 1612.22,564.187 1650.2,564.187 1688.18,564.187 1726.15,564.187 1764.13,564.187 1802.1,564.187 1840.08,564.187 1878.06,564.187 1916.03,564.187 1954.01,564.187 1991.98,564.187 2029.96,564.187 2067.94,564.187 2105.91,564.187 2143.89,564.187 2181.86,564.187 2219.84,564.187 2257.82,564.187 2295.79,564.187 "/>
<polyline clip-path="url(#clip902)" style="stroke:#ed5d92; stroke-linecap:round; stroke-linejoin:round; stroke-width:4; stroke-opacity:1; fill:none" points="396.992,428.331 434.968,380.663 472.944,255.614 510.92,179.294 548.896,164.258 586.872,161.287 624.848,160.322 662.824,160.256 700.8,160.542 738.776,160.541 776.752,160.539 814.728,160.539 852.704,160.539 890.68,160.539 928.656,160.539 966.632,160.539 1004.61,160.539 1042.58,160.539 1080.56,160.539 1118.54,160.539 1156.51,160.539 1194.49,160.539 1232.46,160.539 1270.44,160.539 1308.42,160.539 1346.39,160.539 1384.37,160.539 1422.34,160.539 1460.32,160.539 1498.3,160.539 1536.27,160.539 1574.25,160.539 1612.22,160.539 1650.2,160.539 1688.18,160.539 1726.15,160.539 1764.13,160.539 1802.1,160.539 1840.08,160.539 1878.06,160.539 1916.03,160.539 1954.01,160.539 1991.98,160.539 2029.96,160.539 2067.94,160.539 2105.91,160.539 2143.89,160.539 2181.86,160.539 2219.84,160.539 2257.82,160.539 2295.79,160.539 "/>
<polyline clip-path="url(#clip902)" style="stroke:#c68125; stroke-linecap:round; stroke-linejoin:round; stroke-width:4; stroke-opacity:1; fill:none" points="396.992,743.995 434.968,637.071 472.944,631.933 510.92,643.864 548.896,630.252 586.872,626.014 624.848,626.592 662.824,626.638 700.8,626.118 738.776,626.118 776.752,626.119 814.728,626.119 852.704,626.119 890.68,626.119 928.656,626.119 966.632,626.119 1004.61,626.119 1042.58,626.119 1080.56,626.119 1118.54,626.119 1156.51,626.119 1194.49,626.119 1232.46,626.119 1270.44,626.119 1308.42,626.119 1346.39,626.119 1384.37,626.119 1422.34,626.119 1460.32,626.119 1498.3,626.119 1536.27,626.119 1574.25,626.119 1612.22,626.119 1650.2,626.119 1688.18,626.119 1726.15,626.119 1764.13,626.119 1802.1,626.119 1840.08,626.119 1878.06,626.119 1916.03,626.119 1954.01,626.119 1991.98,626.119 2029.96,626.119 2067.94,626.119 2105.91,626.119 2143.89,626.119 2181.86,626.119 2219.84,626.119 2257.82,626.119 2295.79,626.119 "/>
<polyline clip-path="url(#clip902)" style="stroke:#00a98d; stroke-linecap:round; stroke-linejoin:round; stroke-width:4; stroke-opacity:1; fill:none" points="396.992,1173.1 434.968,1323.88 472.944,1354.95 510.92,1369.19 548.896,1382.55 586.872,1386.09 624.848,1386.08 662.824,1386.07 700.8,1386.39 738.776,1386.39 776.752,1386.4 814.728,1386.4 852.704,1386.4 890.68,1386.4 928.656,1386.4 966.632,1386.4 1004.61,1386.4 1042.58,1386.4 1080.56,1386.4 1118.54,1386.4 1156.51,1386.4 1194.49,1386.4 1232.46,1386.4 1270.44,1386.4 1308.42,1386.4 1346.39,1386.4 1384.37,1386.4 1422.34,1386.4 1460.32,1386.4 1498.3,1386.4 1536.27,1386.4 1574.25,1386.4 1612.22,1386.4 1650.2,1386.4 1688.18,1386.4 1726.15,1386.4 1764.13,1386.4 1802.1,1386.4 1840.08,1386.4 1878.06,1386.4 1916.03,1386.4 1954.01,1386.4 1991.98,1386.4 2029.96,1386.4 2067.94,1386.4 2105.91,1386.4 2143.89,1386.4 2181.86,1386.4 2219.84,1386.4 2257.82,1386.4 2295.79,1386.4 "/>
<polyline clip-path="url(#clip902)" style="stroke:#8e971d; stroke-linecap:round; stroke-linejoin:round; stroke-width:4; stroke-opacity:1; fill:none" points="396.992,1208.94 434.968,1062.89 472.944,1016 510.92,991.28 548.896,980.261 586.872,977.562 624.848,977.47 662.824,977.466 700.8,977.23 738.776,977.23 776.752,977.23 814.728,977.23 852.704,977.23 890.68,977.23 928.656,977.23 966.632,977.23 1004.61,977.23 1042.58,977.23 1080.56,977.23 1118.54,977.23 1156.51,977.23 1194.49,977.23 1232.46,977.23 1270.44,977.23 1308.42,977.23 1346.39,977.23 1384.37,977.23 1422.34,977.23 1460.32,977.23 1498.3,977.23 1536.27,977.23 1574.25,977.23 1612.22,977.23 1650.2,977.23 1688.18,977.23 1726.15,977.23 1764.13,977.23 1802.1,977.23 1840.08,977.23 1878.06,977.23 1916.03,977.23 1954.01,977.23 1991.98,977.23 2029.96,977.23 2067.94,977.23 2105.91,977.23 2143.89,977.23 2181.86,977.23 2219.84,977.23 2257.82,977.23 2295.79,977.23 "/>
</svg>
