<?xml version="1.0" encoding="utf-8"?>
<svg xmlns="http://www.w3.org/2000/svg" xmlns:xlink="http://www.w3.org/1999/xlink" width="600" height="400" viewBox="0 0 2400 1600">
<defs>
  <clipPath id="clip680">
    <rect x="0" y="0" width="2400" height="1600"/>
  </clipPath>
</defs>
<path clip-path="url(#clip680)" d="M0 1600 L2400 1600 L2400 0 L0 0  Z" fill="#ffffff" fill-rule="evenodd" fill-opacity="1"/>
<defs>
  <clipPath id="clip681">
    <rect x="480" y="0" width="1681" height="1600"/>
  </clipPath>
</defs>
<path clip-path="url(#clip680)" d="M340.028 1423.18 L2352.76 1423.18 L2352.76 123.472 L340.028 123.472  Z" fill="#ffffff" fill-rule="evenodd" fill-opacity="1"/>
<defs>
  <clipPath id="clip682">
    <rect x="340" y="123" width="2014" height="1301"/>
  </clipPath>
</defs>
<polyline clip-path="url(#clip682)" style="stroke:#000000; stroke-linecap:round; stroke-linejoin:round; stroke-width:2; stroke-opacity:0.1; fill:none" points="668.249,1423.18 668.249,123.472 "/>
<polyline clip-path="url(#clip682)" style="stroke:#000000; stroke-linecap:round; stroke-linejoin:round; stroke-width:2; stroke-opacity:0.1; fill:none" points="1210.76,1423.18 1210.76,123.472 "/>
<polyline clip-path="url(#clip682)" style="stroke:#000000; stroke-linecap:round; stroke-linejoin:round; stroke-width:2; stroke-opacity:0.1; fill:none" points="1753.28,1423.18 1753.28,123.472 "/>
<polyline clip-path="url(#clip682)" style="stroke:#000000; stroke-linecap:round; stroke-linejoin:round; stroke-width:2; stroke-opacity:0.1; fill:none" points="2295.79,1423.18 2295.79,123.472 "/>
<polyline clip-path="url(#clip680)" style="stroke:#000000; stroke-linecap:round; stroke-linejoin:round; stroke-width:4; stroke-opacity:1; fill:none" points="340.028,1423.18 2352.76,1423.18 "/>
<polyline clip-path="url(#clip680)" style="stroke:#000000; stroke-linecap:round; stroke-linejoin:round; stroke-width:4; stroke-opacity:1; fill:none" points="668.249,1423.18 668.249,1404.28 "/>
<polyline clip-path="url(#clip680)" style="stroke:#000000; stroke-linecap:round; stroke-linejoin:round; stroke-width:4; stroke-opacity:1; fill:none" points="1210.76,1423.18 1210.76,1404.28 "/>
<polyline clip-path="url(#clip680)" style="stroke:#000000; stroke-linecap:round; stroke-linejoin:round; stroke-width:4; stroke-opacity:1; fill:none" points="1753.28,1423.18 1753.28,1404.28 "/>
<polyline clip-path="url(#clip680)" style="stroke:#000000; stroke-linecap:round; stroke-linejoin:round; stroke-width:4; stroke-opacity:1; fill:none" points="2295.79,1423.18 2295.79,1404.28 "/>
<path clip-path="url(#clip680)" d="M662.902 1481.64 L679.221 1481.64 L679.221 1485.58 L657.277 1485.58 L657.277 1481.64 Q659.939 1478.89 664.522 1474.26 Q669.128 1469.61 670.309 1468.27 Q672.554 1465.74 673.434 1464.01 Q674.337 1462.25 674.337 1460.56 Q674.337 1457.8 672.392 1456.07 Q670.471 1454.33 667.369 1454.33 Q665.17 1454.33 662.716 1455.09 Q660.286 1455.86 657.508 1457.41 L657.508 1452.69 Q660.332 1451.55 662.786 1450.97 Q665.24 1450.39 667.277 1450.39 Q672.647 1450.39 675.841 1453.08 Q679.036 1455.77 679.036 1460.26 Q679.036 1462.39 678.226 1464.31 Q677.439 1466.2 675.332 1468.8 Q674.753 1469.47 671.652 1472.69 Q668.55 1475.88 662.902 1481.64 Z" fill="#000000" fill-rule="nonzero" fill-opacity="1" /><path clip-path="url(#clip680)" d="M1213.77 1455.09 L1201.97 1473.54 L1213.77 1473.54 L1213.77 1455.09 M1212.55 1451.02 L1218.43 1451.02 L1218.43 1473.54 L1223.36 1473.54 L1223.36 1477.43 L1218.43 1477.43 L1218.43 1485.58 L1213.77 1485.58 L1213.77 1477.43 L1198.17 1477.43 L1198.17 1472.92 L1212.55 1451.02 Z" fill="#000000" fill-rule="nonzero" fill-opacity="1" /><path clip-path="url(#clip680)" d="M1753.68 1466.44 Q1750.53 1466.44 1748.68 1468.59 Q1746.85 1470.74 1746.85 1474.49 Q1746.85 1478.22 1748.68 1480.39 Q1750.53 1482.55 1753.68 1482.55 Q1756.83 1482.55 1758.66 1480.39 Q1760.51 1478.22 1760.51 1474.49 Q1760.51 1470.74 1758.66 1468.59 Q1756.83 1466.44 1753.68 1466.44 M1762.96 1451.78 L1762.96 1456.04 Q1761.21 1455.21 1759.4 1454.77 Q1757.62 1454.33 1755.86 1454.33 Q1751.23 1454.33 1748.78 1457.45 Q1746.34 1460.58 1746 1466.9 Q1747.36 1464.89 1749.42 1463.82 Q1751.48 1462.73 1753.96 1462.73 Q1759.17 1462.73 1762.18 1465.9 Q1765.21 1469.05 1765.21 1474.49 Q1765.21 1479.82 1762.06 1483.03 Q1758.91 1486.25 1753.68 1486.25 Q1747.69 1486.25 1744.52 1481.67 Q1741.34 1477.06 1741.34 1468.33 Q1741.34 1460.14 1745.23 1455.28 Q1749.12 1450.39 1755.67 1450.39 Q1757.43 1450.39 1759.22 1450.74 Q1761.02 1451.09 1762.96 1451.78 Z" fill="#000000" fill-rule="nonzero" fill-opacity="1" /><path clip-path="url(#clip680)" d="M2295.79 1469.17 Q2292.46 1469.17 2290.54 1470.95 Q2288.64 1472.73 2288.64 1475.86 Q2288.64 1478.98 2290.54 1480.77 Q2292.46 1482.55 2295.79 1482.55 Q2299.13 1482.55 2301.05 1480.77 Q2302.97 1478.96 2302.97 1475.86 Q2302.97 1472.73 2301.05 1470.95 Q2299.15 1469.17 2295.79 1469.17 M2291.12 1467.18 Q2288.11 1466.44 2286.42 1464.38 Q2284.75 1462.32 2284.75 1459.35 Q2284.75 1455.21 2287.69 1452.8 Q2290.65 1450.39 2295.79 1450.39 Q2300.95 1450.39 2303.89 1452.8 Q2306.83 1455.21 2306.83 1459.35 Q2306.83 1462.32 2305.14 1464.38 Q2303.48 1466.44 2300.49 1467.18 Q2303.87 1467.96 2305.75 1470.26 Q2307.64 1472.55 2307.64 1475.86 Q2307.64 1480.88 2304.56 1483.57 Q2301.51 1486.25 2295.79 1486.25 Q2290.07 1486.25 2287 1483.57 Q2283.94 1480.88 2283.94 1475.86 Q2283.94 1472.55 2285.84 1470.26 Q2287.74 1467.96 2291.12 1467.18 M2289.4 1459.79 Q2289.4 1462.48 2291.07 1463.98 Q2292.76 1465.49 2295.79 1465.49 Q2298.8 1465.49 2300.49 1463.98 Q2302.2 1462.48 2302.2 1459.79 Q2302.2 1457.11 2300.49 1455.6 Q2298.8 1454.1 2295.79 1454.1 Q2292.76 1454.1 2291.07 1455.6 Q2289.4 1457.11 2289.4 1459.79 Z" fill="#000000" fill-rule="nonzero" fill-opacity="1" /><path clip-path="url(#clip680)" d="M1286.11 1525.81 L1286.11 1562.76 L1293.87 1562.76 Q1303.71 1562.76 1308.26 1558.3 Q1312.84 1553.85 1312.84 1544.24 Q1312.84 1534.69 1308.26 1530.26 Q1303.71 1525.81 1293.87 1525.81 L1286.11 1525.81 M1279.68 1520.52 L1292.89 1520.52 Q1306.7 1520.52 1313.16 1526.28 Q1319.62 1532.01 1319.62 1544.24 Q1319.62 1556.52 1313.13 1562.28 Q1306.64 1568.04 1292.89 1568.04 L1279.68 1568.04 L1279.68 1520.52 Z" fill="#000000" fill-rule="nonzero" fill-opacity="1" /><path clip-path="url(#clip680)" d="M1329.62 1532.4 L1335.47 1532.4 L1335.47 1568.04 L1329.62 1568.04 L1329.62 1532.4 M1329.62 1518.52 L1335.47 1518.52 L1335.47 1525.93 L1329.62 1525.93 L1329.62 1518.52 Z" fill="#000000" fill-rule="nonzero" fill-opacity="1" /><path clip-path="url(#clip680)" d="M1370.45 1533.45 L1370.45 1538.98 Q1367.97 1537.71 1365.3 1537.07 Q1362.62 1536.44 1359.76 1536.44 Q1355.4 1536.44 1353.2 1537.77 Q1351.04 1539.11 1351.04 1541.79 Q1351.04 1543.82 1352.6 1545 Q1354.16 1546.15 1358.87 1547.2 L1360.87 1547.64 Q1367.11 1548.98 1369.72 1551.43 Q1372.36 1553.85 1372.36 1558.21 Q1372.36 1563.17 1368.42 1566.07 Q1364.5 1568.97 1357.63 1568.97 Q1354.76 1568.97 1351.64 1568.39 Q1348.56 1567.85 1345.12 1566.74 L1345.12 1560.69 Q1348.37 1562.38 1351.52 1563.24 Q1354.67 1564.07 1357.75 1564.07 Q1361.89 1564.07 1364.12 1562.66 Q1366.35 1561.23 1366.35 1558.65 Q1366.35 1556.27 1364.73 1554.99 Q1363.13 1553.72 1357.69 1552.54 L1355.65 1552.07 Q1350.21 1550.92 1347.79 1548.56 Q1345.37 1546.18 1345.37 1542.04 Q1345.37 1537.01 1348.94 1534.27 Q1352.5 1531.54 1359.06 1531.54 Q1362.31 1531.54 1365.17 1532.01 Q1368.04 1532.49 1370.45 1533.45 Z" fill="#000000" fill-rule="nonzero" fill-opacity="1" /><path clip-path="url(#clip680)" d="M1381.47 1518.52 L1387.36 1518.52 L1387.36 1547.77 L1404.83 1532.4 L1412.31 1532.4 L1393.4 1549.07 L1413.1 1568.04 L1405.47 1568.04 L1387.36 1550.63 L1387.36 1568.04 L1381.47 1568.04 L1381.47 1518.52 Z" fill="#000000" fill-rule="nonzero" fill-opacity="1" /><polyline clip-path="url(#clip682)" style="stroke:#000000; stroke-linecap:round; stroke-linejoin:round; stroke-width:2; stroke-opacity:0.1; fill:none" points="340.028,1317.1 2352.76,1317.1 "/>
<polyline clip-path="url(#clip682)" style="stroke:#000000; stroke-linecap:round; stroke-linejoin:round; stroke-width:2; stroke-opacity:0.1; fill:none" points="340.028,1143.81 2352.76,1143.81 "/>
<polyline clip-path="url(#clip682)" style="stroke:#000000; stroke-linecap:round; stroke-linejoin:round; stroke-width:2; stroke-opacity:0.1; fill:none" points="340.028,970.525 2352.76,970.525 "/>
<polyline clip-path="url(#clip682)" style="stroke:#000000; stroke-linecap:round; stroke-linejoin:round; stroke-width:2; stroke-opacity:0.1; fill:none" points="340.028,797.239 2352.76,797.239 "/>
<polyline clip-path="url(#clip682)" style="stroke:#000000; stroke-linecap:round; stroke-linejoin:round; stroke-width:2; stroke-opacity:0.1; fill:none" points="340.028,623.953 2352.76,623.953 "/>
<polyline clip-path="url(#clip682)" style="stroke:#000000; stroke-linecap:round; stroke-linejoin:round; stroke-width:2; stroke-opacity:0.1; fill:none" points="340.028,450.667 2352.76,450.667 "/>
<polyline clip-path="url(#clip682)" style="stroke:#000000; stroke-linecap:round; stroke-linejoin:round; stroke-width:2; stroke-opacity:0.1; fill:none" points="340.028,277.381 2352.76,277.381 "/>
<polyline clip-path="url(#clip680)" style="stroke:#000000; stroke-linecap:round; stroke-linejoin:round; stroke-width:4; stroke-opacity:1; fill:none" points="340.028,1423.18 340.028,123.472 "/>
<polyline clip-path="url(#clip680)" style="stroke:#000000; stroke-linecap:round; stroke-linejoin:round; stroke-width:4; stroke-opacity:1; fill:none" points="340.028,1317.1 358.925,1317.1 "/>
<polyline clip-path="url(#clip680)" style="stroke:#000000; stroke-linecap:round; stroke-linejoin:round; stroke-width:4; stroke-opacity:1; fill:none" points="340.028,1143.81 358.925,1143.81 "/>
<polyline clip-path="url(#clip680)" style="stroke:#000000; stroke-linecap:round; stroke-linejoin:round; stroke-width:4; stroke-opacity:1; fill:none" points="340.028,970.525 358.925,970.525 "/>
<polyline clip-path="url(#clip680)" style="stroke:#000000; stroke-linecap:round; stroke-linejoin:round; stroke-width:4; stroke-opacity:1; fill:none" points="340.028,797.239 358.925,797.239 "/>
<polyline clip-path="url(#clip680)" style="stroke:#000000; stroke-linecap:round; stroke-linejoin:round; stroke-width:4; stroke-opacity:1; fill:none" points="340.028,623.953 358.925,623.953 "/>
<polyline clip-path="url(#clip680)" style="stroke:#000000; stroke-linecap:round; stroke-linejoin:round; stroke-width:4; stroke-opacity:1; fill:none" points="340.028,450.667 358.925,450.667 "/>
<polyline clip-path="url(#clip680)" style="stroke:#000000; stroke-linecap:round; stroke-linejoin:round; stroke-width:4; stroke-opacity:1; fill:none" points="340.028,277.381 358.925,277.381 "/>
<path clip-path="url(#clip680)" d="M127.2 1302.9 Q123.589 1302.9 121.76 1306.46 Q119.955 1310 119.955 1317.13 Q119.955 1324.24 121.76 1327.8 Q123.589 1331.34 127.2 1331.34 Q130.834 1331.34 132.64 1327.8 Q134.468 1324.24 134.468 1317.13 Q134.468 1310 132.64 1306.46 Q130.834 1302.9 127.2 1302.9 M127.2 1299.19 Q133.01 1299.19 136.066 1303.8 Q139.144 1308.38 139.144 1317.13 Q139.144 1325.86 136.066 1330.47 Q133.01 1335.05 127.2 1335.05 Q121.39 1335.05 118.311 1330.47 Q115.256 1325.86 115.256 1317.13 Q115.256 1308.38 118.311 1303.8 Q121.39 1299.19 127.2 1299.19 Z" fill="#000000" fill-rule="nonzero" fill-opacity="1" /><path clip-path="url(#clip680)" d="M147.362 1328.5 L152.246 1328.5 L152.246 1334.38 L147.362 1334.38 L147.362 1328.5 Z" fill="#000000" fill-rule="nonzero" fill-opacity="1" /><path clip-path="url(#clip680)" d="M172.431 1302.9 Q168.82 1302.9 166.991 1306.46 Q165.186 1310 165.186 1317.13 Q165.186 1324.24 166.991 1327.8 Q168.82 1331.34 172.431 1331.34 Q176.065 1331.34 177.871 1327.8 Q179.7 1324.24 179.7 1317.13 Q179.7 1310 177.871 1306.46 Q176.065 1302.9 172.431 1302.9 M172.431 1299.19 Q178.241 1299.19 181.297 1303.8 Q184.376 1308.38 184.376 1317.13 Q184.376 1325.86 181.297 1330.47 Q178.241 1335.05 172.431 1335.05 Q166.621 1335.05 163.542 1330.47 Q160.487 1325.86 160.487 1317.13 Q160.487 1308.38 163.542 1303.8 Q166.621 1299.19 172.431 1299.19 Z" fill="#000000" fill-rule="nonzero" fill-opacity="1" /><path clip-path="url(#clip680)" d="M202.593 1302.9 Q198.982 1302.9 197.153 1306.46 Q195.348 1310 195.348 1317.13 Q195.348 1324.24 197.153 1327.8 Q198.982 1331.34 202.593 1331.34 Q206.227 1331.34 208.033 1327.8 Q209.861 1324.24 209.861 1317.13 Q209.861 1310 208.033 1306.46 Q206.227 1302.9 202.593 1302.9 M202.593 1299.19 Q208.403 1299.19 211.459 1303.8 Q214.537 1308.38 214.537 1317.13 Q214.537 1325.86 211.459 1330.47 Q208.403 1335.05 202.593 1335.05 Q196.783 1335.05 193.704 1330.47 Q190.649 1325.86 190.649 1317.13 Q190.649 1308.38 193.704 1303.8 Q196.783 1299.19 202.593 1299.19 Z" fill="#000000" fill-rule="nonzero" fill-opacity="1" /><path clip-path="url(#clip680)" d="M222.894 1333.66 L222.894 1329.4 Q224.653 1330.23 226.459 1330.67 Q228.264 1331.11 230 1331.11 Q234.63 1331.11 237.06 1328.01 Q239.514 1324.89 239.861 1318.54 Q238.519 1320.53 236.459 1321.6 Q234.398 1322.66 231.898 1322.66 Q226.713 1322.66 223.681 1319.54 Q220.672 1316.39 220.672 1310.95 Q220.672 1305.63 223.82 1302.41 Q226.968 1299.19 232.199 1299.19 Q238.195 1299.19 241.343 1303.8 Q244.514 1308.38 244.514 1317.13 Q244.514 1325.3 240.625 1330.19 Q236.76 1335.05 230.209 1335.05 Q228.449 1335.05 226.644 1334.7 Q224.838 1334.35 222.894 1333.66 M232.199 1319.01 Q235.347 1319.01 237.176 1316.85 Q239.028 1314.7 239.028 1310.95 Q239.028 1307.22 237.176 1305.07 Q235.347 1302.9 232.199 1302.9 Q229.051 1302.9 227.199 1305.07 Q225.371 1307.22 225.371 1310.95 Q225.371 1314.7 227.199 1316.85 Q229.051 1319.01 232.199 1319.01 Z" fill="#000000" fill-rule="nonzero" fill-opacity="1" /><path clip-path="url(#clip680)" d="M256.945 1330.44 L273.264 1330.44 L273.264 1334.38 L251.32 1334.38 L251.32 1330.44 Q253.982 1327.69 258.565 1323.06 Q263.171 1318.41 264.352 1317.06 Q266.597 1314.54 267.477 1312.8 Q268.38 1311.04 268.38 1309.35 Q268.38 1306.6 266.435 1304.86 Q264.514 1303.13 261.412 1303.13 Q259.213 1303.13 256.759 1303.89 Q254.329 1304.66 251.551 1306.21 L251.551 1301.48 Q254.375 1300.35 256.829 1299.77 Q259.283 1299.19 261.32 1299.19 Q266.69 1299.19 269.884 1301.88 Q273.079 1304.56 273.079 1309.05 Q273.079 1311.18 272.269 1313.1 Q271.482 1315 269.375 1317.6 Q268.796 1318.27 265.695 1321.48 Q262.593 1324.68 256.945 1330.44 Z" fill="#000000" fill-rule="nonzero" fill-opacity="1" /><path clip-path="url(#clip680)" d="M283.125 1299.82 L301.481 1299.82 L301.481 1303.75 L287.407 1303.75 L287.407 1312.22 Q288.426 1311.88 289.444 1311.72 Q290.463 1311.53 291.481 1311.53 Q297.268 1311.53 300.648 1314.7 Q304.028 1317.87 304.028 1323.29 Q304.028 1328.87 300.555 1331.97 Q297.083 1335.05 290.764 1335.05 Q288.588 1335.05 286.319 1334.68 Q284.074 1334.31 281.667 1333.57 L281.667 1328.87 Q283.75 1330 285.972 1330.56 Q288.194 1331.11 290.671 1331.11 Q294.676 1331.11 297.014 1329.01 Q299.352 1326.9 299.352 1323.29 Q299.352 1319.68 297.014 1317.57 Q294.676 1315.47 290.671 1315.47 Q288.796 1315.47 286.921 1315.88 Q285.069 1316.3 283.125 1317.18 L283.125 1299.82 Z" fill="#000000" fill-rule="nonzero" fill-opacity="1" /><path clip-path="url(#clip680)" d="M126.205 1129.61 Q122.593 1129.61 120.765 1133.17 Q118.959 1136.72 118.959 1143.85 Q118.959 1150.95 120.765 1154.52 Q122.593 1158.06 126.205 1158.06 Q129.839 1158.06 131.644 1154.52 Q133.473 1150.95 133.473 1143.85 Q133.473 1136.72 131.644 1133.17 Q129.839 1129.61 126.205 1129.61 M126.205 1125.91 Q132.015 1125.91 135.07 1130.51 Q138.149 1135.1 138.149 1143.85 Q138.149 1152.57 135.07 1157.18 Q132.015 1161.76 126.205 1161.76 Q120.394 1161.76 117.316 1157.18 Q114.26 1152.57 114.26 1143.85 Q114.26 1135.1 117.316 1130.51 Q120.394 1125.91 126.205 1125.91 Z" fill="#000000" fill-rule="nonzero" fill-opacity="1" /><path clip-path="url(#clip680)" d="M146.366 1155.21 L151.251 1155.21 L151.251 1161.09 L146.366 1161.09 L146.366 1155.21 Z" fill="#000000" fill-rule="nonzero" fill-opacity="1" /><path clip-path="url(#clip680)" d="M171.436 1129.61 Q167.825 1129.61 165.996 1133.17 Q164.19 1136.72 164.19 1143.85 Q164.19 1150.95 165.996 1154.52 Q167.825 1158.06 171.436 1158.06 Q175.07 1158.06 176.876 1154.52 Q178.704 1150.95 178.704 1143.85 Q178.704 1136.72 176.876 1133.17 Q175.07 1129.61 171.436 1129.61 M171.436 1125.91 Q177.246 1125.91 180.301 1130.51 Q183.38 1135.1 183.38 1143.85 Q183.38 1152.57 180.301 1157.18 Q177.246 1161.76 171.436 1161.76 Q165.626 1161.76 162.547 1157.18 Q159.491 1152.57 159.491 1143.85 Q159.491 1135.1 162.547 1130.51 Q165.626 1125.91 171.436 1125.91 Z" fill="#000000" fill-rule="nonzero" fill-opacity="1" /><path clip-path="url(#clip680)" d="M201.598 1129.61 Q197.987 1129.61 196.158 1133.17 Q194.352 1136.72 194.352 1143.85 Q194.352 1150.95 196.158 1154.52 Q197.987 1158.06 201.598 1158.06 Q205.232 1158.06 207.037 1154.52 Q208.866 1150.95 208.866 1143.85 Q208.866 1136.72 207.037 1133.17 Q205.232 1129.61 201.598 1129.61 M201.598 1125.91 Q207.408 1125.91 210.463 1130.51 Q213.542 1135.1 213.542 1143.85 Q213.542 1152.57 210.463 1157.18 Q207.408 1161.76 201.598 1161.76 Q195.787 1161.76 192.709 1157.18 Q189.653 1152.57 189.653 1143.85 Q189.653 1135.1 192.709 1130.51 Q195.787 1125.91 201.598 1125.91 Z" fill="#000000" fill-rule="nonzero" fill-opacity="1" /><path clip-path="url(#clip680)" d="M221.898 1160.37 L221.898 1156.11 Q223.658 1156.95 225.463 1157.39 Q227.269 1157.83 229.005 1157.83 Q233.635 1157.83 236.065 1154.73 Q238.519 1151.6 238.866 1145.26 Q237.523 1147.25 235.463 1148.31 Q233.403 1149.38 230.903 1149.38 Q225.718 1149.38 222.686 1146.25 Q219.676 1143.11 219.676 1137.67 Q219.676 1132.34 222.824 1129.12 Q225.973 1125.91 231.204 1125.91 Q237.199 1125.91 240.347 1130.51 Q243.519 1135.1 243.519 1143.85 Q243.519 1152.02 239.63 1156.9 Q235.764 1161.76 229.213 1161.76 Q227.454 1161.76 225.648 1161.42 Q223.843 1161.07 221.898 1160.37 M231.204 1145.72 Q234.352 1145.72 236.181 1143.57 Q238.033 1141.42 238.033 1137.67 Q238.033 1133.94 236.181 1131.79 Q234.352 1129.61 231.204 1129.61 Q228.056 1129.61 226.204 1131.79 Q224.375 1133.94 224.375 1137.67 Q224.375 1141.42 226.204 1143.57 Q228.056 1145.72 231.204 1145.72 Z" fill="#000000" fill-rule="nonzero" fill-opacity="1" /><path clip-path="url(#clip680)" d="M251.968 1126.53 L270.324 1126.53 L270.324 1130.47 L256.25 1130.47 L256.25 1138.94 Q257.269 1138.59 258.287 1138.43 Q259.306 1138.24 260.324 1138.24 Q266.111 1138.24 269.491 1141.42 Q272.87 1144.59 272.87 1150 Q272.87 1155.58 269.398 1158.68 Q265.926 1161.76 259.607 1161.76 Q257.431 1161.76 255.162 1161.39 Q252.917 1161.02 250.509 1160.28 L250.509 1155.58 Q252.593 1156.72 254.815 1157.27 Q257.037 1157.83 259.514 1157.83 Q263.519 1157.83 265.857 1155.72 Q268.195 1153.61 268.195 1150 Q268.195 1146.39 265.857 1144.29 Q263.519 1142.18 259.514 1142.18 Q257.639 1142.18 255.764 1142.6 Q253.912 1143.01 251.968 1143.89 L251.968 1126.53 Z" fill="#000000" fill-rule="nonzero" fill-opacity="1" /><path clip-path="url(#clip680)" d="M292.083 1129.61 Q288.472 1129.61 286.643 1133.17 Q284.838 1136.72 284.838 1143.85 Q284.838 1150.95 286.643 1154.52 Q288.472 1158.06 292.083 1158.06 Q295.718 1158.06 297.523 1154.52 Q299.352 1150.95 299.352 1143.85 Q299.352 1136.72 297.523 1133.17 Q295.718 1129.61 292.083 1129.61 M292.083 1125.91 Q297.893 1125.91 300.949 1130.51 Q304.028 1135.1 304.028 1143.85 Q304.028 1152.57 300.949 1157.18 Q297.893 1161.76 292.083 1161.76 Q286.273 1161.76 283.194 1157.18 Q280.139 1152.57 280.139 1143.85 Q280.139 1135.1 283.194 1130.51 Q286.273 1125.91 292.083 1125.91 Z" fill="#000000" fill-rule="nonzero" fill-opacity="1" /><path clip-path="url(#clip680)" d="M127.2 956.324 Q123.589 956.324 121.76 959.889 Q119.955 963.43 119.955 970.56 Q119.955 977.667 121.76 981.231 Q123.589 984.773 127.2 984.773 Q130.834 984.773 132.64 981.231 Q134.468 977.667 134.468 970.56 Q134.468 963.43 132.64 959.889 Q130.834 956.324 127.2 956.324 M127.2 952.62 Q133.01 952.62 136.066 957.227 Q139.144 961.81 139.144 970.56 Q139.144 979.287 136.066 983.893 Q133.01 988.477 127.2 988.477 Q121.39 988.477 118.311 983.893 Q115.256 979.287 115.256 970.56 Q115.256 961.81 118.311 957.227 Q121.39 952.62 127.2 952.62 Z" fill="#000000" fill-rule="nonzero" fill-opacity="1" /><path clip-path="url(#clip680)" d="M147.362 981.926 L152.246 981.926 L152.246 987.805 L147.362 987.805 L147.362 981.926 Z" fill="#000000" fill-rule="nonzero" fill-opacity="1" /><path clip-path="url(#clip680)" d="M172.431 956.324 Q168.82 956.324 166.991 959.889 Q165.186 963.43 165.186 970.56 Q165.186 977.667 166.991 981.231 Q168.82 984.773 172.431 984.773 Q176.065 984.773 177.871 981.231 Q179.7 977.667 179.7 970.56 Q179.7 963.43 177.871 959.889 Q176.065 956.324 172.431 956.324 M172.431 952.62 Q178.241 952.62 181.297 957.227 Q184.376 961.81 184.376 970.56 Q184.376 979.287 181.297 983.893 Q178.241 988.477 172.431 988.477 Q166.621 988.477 163.542 983.893 Q160.487 979.287 160.487 970.56 Q160.487 961.81 163.542 957.227 Q166.621 952.62 172.431 952.62 Z" fill="#000000" fill-rule="nonzero" fill-opacity="1" /><path clip-path="url(#clip680)" d="M202.593 956.324 Q198.982 956.324 197.153 959.889 Q195.348 963.43 195.348 970.56 Q195.348 977.667 197.153 981.231 Q198.982 984.773 202.593 984.773 Q206.227 984.773 208.033 981.231 Q209.861 977.667 209.861 970.56 Q209.861 963.43 208.033 959.889 Q206.227 956.324 202.593 956.324 M202.593 952.62 Q208.403 952.62 211.459 957.227 Q214.537 961.81 214.537 970.56 Q214.537 979.287 211.459 983.893 Q208.403 988.477 202.593 988.477 Q196.783 988.477 193.704 983.893 Q190.649 979.287 190.649 970.56 Q190.649 961.81 193.704 957.227 Q196.783 952.62 202.593 952.62 Z" fill="#000000" fill-rule="nonzero" fill-opacity="1" /><path clip-path="url(#clip680)" d="M222.894 987.088 L222.894 982.829 Q224.653 983.662 226.459 984.102 Q228.264 984.541 230 984.541 Q234.63 984.541 237.06 981.44 Q239.514 978.315 239.861 971.972 Q238.519 973.963 236.459 975.028 Q234.398 976.092 231.898 976.092 Q226.713 976.092 223.681 972.967 Q220.672 969.819 220.672 964.38 Q220.672 959.055 223.82 955.838 Q226.968 952.62 232.199 952.62 Q238.195 952.62 241.343 957.227 Q244.514 961.81 244.514 970.56 Q244.514 978.731 240.625 983.616 Q236.76 988.477 230.209 988.477 Q228.449 988.477 226.644 988.129 Q224.838 987.782 222.894 987.088 M232.199 972.435 Q235.347 972.435 237.176 970.282 Q239.028 968.13 239.028 964.38 Q239.028 960.653 237.176 958.5 Q235.347 956.324 232.199 956.324 Q229.051 956.324 227.199 958.5 Q225.371 960.653 225.371 964.38 Q225.371 968.13 227.199 970.282 Q229.051 972.435 232.199 972.435 Z" fill="#000000" fill-rule="nonzero" fill-opacity="1" /><path clip-path="url(#clip680)" d="M251.736 953.245 L273.958 953.245 L273.958 955.236 L261.412 987.805 L256.528 987.805 L268.333 957.181 L251.736 957.181 L251.736 953.245 Z" fill="#000000" fill-rule="nonzero" fill-opacity="1" /><path clip-path="url(#clip680)" d="M283.125 953.245 L301.481 953.245 L301.481 957.181 L287.407 957.181 L287.407 965.653 Q288.426 965.305 289.444 965.143 Q290.463 964.958 291.481 964.958 Q297.268 964.958 300.648 968.13 Q304.028 971.301 304.028 976.717 Q304.028 982.296 300.555 985.398 Q297.083 988.477 290.764 988.477 Q288.588 988.477 286.319 988.106 Q284.074 987.736 281.667 986.995 L281.667 982.296 Q283.75 983.43 285.972 983.986 Q288.194 984.541 290.671 984.541 Q294.676 984.541 297.014 982.435 Q299.352 980.329 299.352 976.717 Q299.352 973.106 297.014 971 Q294.676 968.893 290.671 968.893 Q288.796 968.893 286.921 969.31 Q285.069 969.727 283.125 970.606 L283.125 953.245 Z" fill="#000000" fill-rule="nonzero" fill-opacity="1" /><path clip-path="url(#clip680)" d="M126.205 783.038 Q122.593 783.038 120.765 786.603 Q118.959 790.144 118.959 797.274 Q118.959 804.38 120.765 807.945 Q122.593 811.487 126.205 811.487 Q129.839 811.487 131.644 807.945 Q133.473 804.38 133.473 797.274 Q133.473 790.144 131.644 786.603 Q129.839 783.038 126.205 783.038 M126.205 779.334 Q132.015 779.334 135.07 783.941 Q138.149 788.524 138.149 797.274 Q138.149 806.001 135.07 810.607 Q132.015 815.191 126.205 815.191 Q120.394 815.191 117.316 810.607 Q114.26 806.001 114.26 797.274 Q114.26 788.524 117.316 783.941 Q120.394 779.334 126.205 779.334 Z" fill="#000000" fill-rule="nonzero" fill-opacity="1" /><path clip-path="url(#clip680)" d="M146.366 808.64 L151.251 808.64 L151.251 814.519 L146.366 814.519 L146.366 808.64 Z" fill="#000000" fill-rule="nonzero" fill-opacity="1" /><path clip-path="url(#clip680)" d="M171.436 783.038 Q167.825 783.038 165.996 786.603 Q164.19 790.144 164.19 797.274 Q164.19 804.38 165.996 807.945 Q167.825 811.487 171.436 811.487 Q175.07 811.487 176.876 807.945 Q178.704 804.38 178.704 797.274 Q178.704 790.144 176.876 786.603 Q175.07 783.038 171.436 783.038 M171.436 779.334 Q177.246 779.334 180.301 783.941 Q183.38 788.524 183.38 797.274 Q183.38 806.001 180.301 810.607 Q177.246 815.191 171.436 815.191 Q165.626 815.191 162.547 810.607 Q159.491 806.001 159.491 797.274 Q159.491 788.524 162.547 783.941 Q165.626 779.334 171.436 779.334 Z" fill="#000000" fill-rule="nonzero" fill-opacity="1" /><path clip-path="url(#clip680)" d="M192.408 810.584 L200.047 810.584 L200.047 784.219 L191.737 785.885 L191.737 781.626 L200 779.959 L204.676 779.959 L204.676 810.584 L212.315 810.584 L212.315 814.519 L192.408 814.519 L192.408 810.584 Z" fill="#000000" fill-rule="nonzero" fill-opacity="1" /><path clip-path="url(#clip680)" d="M231.76 783.038 Q228.148 783.038 226.32 786.603 Q224.514 790.144 224.514 797.274 Q224.514 804.38 226.32 807.945 Q228.148 811.487 231.76 811.487 Q235.394 811.487 237.199 807.945 Q239.028 804.38 239.028 797.274 Q239.028 790.144 237.199 786.603 Q235.394 783.038 231.76 783.038 M231.76 779.334 Q237.57 779.334 240.625 783.941 Q243.704 788.524 243.704 797.274 Q243.704 806.001 240.625 810.607 Q237.57 815.191 231.76 815.191 Q225.949 815.191 222.871 810.607 Q219.815 806.001 219.815 797.274 Q219.815 788.524 222.871 783.941 Q225.949 779.334 231.76 779.334 Z" fill="#000000" fill-rule="nonzero" fill-opacity="1" /><path clip-path="url(#clip680)" d="M261.921 783.038 Q258.31 783.038 256.482 786.603 Q254.676 790.144 254.676 797.274 Q254.676 804.38 256.482 807.945 Q258.31 811.487 261.921 811.487 Q265.556 811.487 267.361 807.945 Q269.19 804.38 269.19 797.274 Q269.19 790.144 267.361 786.603 Q265.556 783.038 261.921 783.038 M261.921 779.334 Q267.732 779.334 270.787 783.941 Q273.866 788.524 273.866 797.274 Q273.866 806.001 270.787 810.607 Q267.732 815.191 261.921 815.191 Q256.111 815.191 253.033 810.607 Q249.977 806.001 249.977 797.274 Q249.977 788.524 253.033 783.941 Q256.111 779.334 261.921 779.334 Z" fill="#000000" fill-rule="nonzero" fill-opacity="1" /><path clip-path="url(#clip680)" d="M292.083 783.038 Q288.472 783.038 286.643 786.603 Q284.838 790.144 284.838 797.274 Q284.838 804.38 286.643 807.945 Q288.472 811.487 292.083 811.487 Q295.718 811.487 297.523 807.945 Q299.352 804.38 299.352 797.274 Q299.352 790.144 297.523 786.603 Q295.718 783.038 292.083 783.038 M292.083 779.334 Q297.893 779.334 300.949 783.941 Q304.028 788.524 304.028 797.274 Q304.028 806.001 300.949 810.607 Q297.893 815.191 292.083 815.191 Q286.273 815.191 283.194 810.607 Q280.139 806.001 280.139 797.274 Q280.139 788.524 283.194 783.941 Q286.273 779.334 292.083 779.334 Z" fill="#000000" fill-rule="nonzero" fill-opacity="1" /><path clip-path="url(#clip680)" d="M127.2 609.752 Q123.589 609.752 121.76 613.317 Q119.955 616.858 119.955 623.988 Q119.955 631.094 121.76 634.659 Q123.589 638.201 127.2 638.201 Q130.834 638.201 132.64 634.659 Q134.468 631.094 134.468 623.988 Q134.468 616.858 132.64 613.317 Q130.834 609.752 127.2 609.752 M127.2 606.048 Q133.01 606.048 136.066 610.655 Q139.144 615.238 139.144 623.988 Q139.144 632.715 136.066 637.321 Q133.01 641.905 127.2 641.905 Q121.39 641.905 118.311 637.321 Q115.256 632.715 115.256 623.988 Q115.256 615.238 118.311 610.655 Q121.39 606.048 127.2 606.048 Z" fill="#000000" fill-rule="nonzero" fill-opacity="1" /><path clip-path="url(#clip680)" d="M147.362 635.354 L152.246 635.354 L152.246 641.233 L147.362 641.233 L147.362 635.354 Z" fill="#000000" fill-rule="nonzero" fill-opacity="1" /><path clip-path="url(#clip680)" d="M172.431 609.752 Q168.82 609.752 166.991 613.317 Q165.186 616.858 165.186 623.988 Q165.186 631.094 166.991 634.659 Q168.82 638.201 172.431 638.201 Q176.065 638.201 177.871 634.659 Q179.7 631.094 179.7 623.988 Q179.7 616.858 177.871 613.317 Q176.065 609.752 172.431 609.752 M172.431 606.048 Q178.241 606.048 181.297 610.655 Q184.376 615.238 184.376 623.988 Q184.376 632.715 181.297 637.321 Q178.241 641.905 172.431 641.905 Q166.621 641.905 163.542 637.321 Q160.487 632.715 160.487 623.988 Q160.487 615.238 163.542 610.655 Q166.621 606.048 172.431 606.048 Z" fill="#000000" fill-rule="nonzero" fill-opacity="1" /><path clip-path="url(#clip680)" d="M193.403 637.298 L201.042 637.298 L201.042 610.933 L192.732 612.599 L192.732 608.34 L200.996 606.673 L205.672 606.673 L205.672 637.298 L213.311 637.298 L213.311 641.233 L193.403 641.233 L193.403 637.298 Z" fill="#000000" fill-rule="nonzero" fill-opacity="1" /><path clip-path="url(#clip680)" d="M232.755 609.752 Q229.144 609.752 227.315 613.317 Q225.51 616.858 225.51 623.988 Q225.51 631.094 227.315 634.659 Q229.144 638.201 232.755 638.201 Q236.389 638.201 238.195 634.659 Q240.023 631.094 240.023 623.988 Q240.023 616.858 238.195 613.317 Q236.389 609.752 232.755 609.752 M232.755 606.048 Q238.565 606.048 241.621 610.655 Q244.699 615.238 244.699 623.988 Q244.699 632.715 241.621 637.321 Q238.565 641.905 232.755 641.905 Q226.945 641.905 223.866 637.321 Q220.811 632.715 220.811 623.988 Q220.811 615.238 223.866 610.655 Q226.945 606.048 232.755 606.048 Z" fill="#000000" fill-rule="nonzero" fill-opacity="1" /><path clip-path="url(#clip680)" d="M256.945 637.298 L273.264 637.298 L273.264 641.233 L251.32 641.233 L251.32 637.298 Q253.982 634.544 258.565 629.914 Q263.171 625.261 264.352 623.919 Q266.597 621.395 267.477 619.659 Q268.38 617.9 268.38 616.21 Q268.38 613.456 266.435 611.72 Q264.514 609.983 261.412 609.983 Q259.213 609.983 256.759 610.747 Q254.329 611.511 251.551 613.062 L251.551 608.34 Q254.375 607.206 256.829 606.627 Q259.283 606.048 261.32 606.048 Q266.69 606.048 269.884 608.733 Q273.079 611.419 273.079 615.909 Q273.079 618.039 272.269 619.96 Q271.482 621.858 269.375 624.451 Q268.796 625.122 265.695 628.34 Q262.593 631.534 256.945 637.298 Z" fill="#000000" fill-rule="nonzero" fill-opacity="1" /><path clip-path="url(#clip680)" d="M283.125 606.673 L301.481 606.673 L301.481 610.608 L287.407 610.608 L287.407 619.081 Q288.426 618.733 289.444 618.571 Q290.463 618.386 291.481 618.386 Q297.268 618.386 300.648 621.557 Q304.028 624.729 304.028 630.145 Q304.028 635.724 300.555 638.826 Q297.083 641.905 290.764 641.905 Q288.588 641.905 286.319 641.534 Q284.074 641.164 281.667 640.423 L281.667 635.724 Q283.75 636.858 285.972 637.414 Q288.194 637.969 290.671 637.969 Q294.676 637.969 297.014 635.863 Q299.352 633.757 299.352 630.145 Q299.352 626.534 297.014 624.428 Q294.676 622.321 290.671 622.321 Q288.796 622.321 286.921 622.738 Q285.069 623.155 283.125 624.034 L283.125 606.673 Z" fill="#000000" fill-rule="nonzero" fill-opacity="1" /><path clip-path="url(#clip680)" d="M126.205 436.466 Q122.593 436.466 120.765 440.031 Q118.959 443.572 118.959 450.702 Q118.959 457.808 120.765 461.373 Q122.593 464.915 126.205 464.915 Q129.839 464.915 131.644 461.373 Q133.473 457.808 133.473 450.702 Q133.473 443.572 131.644 440.031 Q129.839 436.466 126.205 436.466 M126.205 432.762 Q132.015 432.762 135.07 437.369 Q138.149 441.952 138.149 450.702 Q138.149 459.429 135.07 464.035 Q132.015 468.619 126.205 468.619 Q120.394 468.619 117.316 464.035 Q114.26 459.429 114.26 450.702 Q114.26 441.952 117.316 437.369 Q120.394 432.762 126.205 432.762 Z" fill="#000000" fill-rule="nonzero" fill-opacity="1" /><path clip-path="url(#clip680)" d="M146.366 462.068 L151.251 462.068 L151.251 467.947 L146.366 467.947 L146.366 462.068 Z" fill="#000000" fill-rule="nonzero" fill-opacity="1" /><path clip-path="url(#clip680)" d="M171.436 436.466 Q167.825 436.466 165.996 440.031 Q164.19 443.572 164.19 450.702 Q164.19 457.808 165.996 461.373 Q167.825 464.915 171.436 464.915 Q175.07 464.915 176.876 461.373 Q178.704 457.808 178.704 450.702 Q178.704 443.572 176.876 440.031 Q175.07 436.466 171.436 436.466 M171.436 432.762 Q177.246 432.762 180.301 437.369 Q183.38 441.952 183.38 450.702 Q183.38 459.429 180.301 464.035 Q177.246 468.619 171.436 468.619 Q165.626 468.619 162.547 464.035 Q159.491 459.429 159.491 450.702 Q159.491 441.952 162.547 437.369 Q165.626 432.762 171.436 432.762 Z" fill="#000000" fill-rule="nonzero" fill-opacity="1" /><path clip-path="url(#clip680)" d="M192.408 464.012 L200.047 464.012 L200.047 437.647 L191.737 439.313 L191.737 435.054 L200 433.387 L204.676 433.387 L204.676 464.012 L212.315 464.012 L212.315 467.947 L192.408 467.947 L192.408 464.012 Z" fill="#000000" fill-rule="nonzero" fill-opacity="1" /><path clip-path="url(#clip680)" d="M231.76 436.466 Q228.148 436.466 226.32 440.031 Q224.514 443.572 224.514 450.702 Q224.514 457.808 226.32 461.373 Q228.148 464.915 231.76 464.915 Q235.394 464.915 237.199 461.373 Q239.028 457.808 239.028 450.702 Q239.028 443.572 237.199 440.031 Q235.394 436.466 231.76 436.466 M231.76 432.762 Q237.57 432.762 240.625 437.369 Q243.704 441.952 243.704 450.702 Q243.704 459.429 240.625 464.035 Q237.57 468.619 231.76 468.619 Q225.949 468.619 222.871 464.035 Q219.815 459.429 219.815 450.702 Q219.815 441.952 222.871 437.369 Q225.949 432.762 231.76 432.762 Z" fill="#000000" fill-rule="nonzero" fill-opacity="1" /><path clip-path="url(#clip680)" d="M251.968 433.387 L270.324 433.387 L270.324 437.322 L256.25 437.322 L256.25 445.795 Q257.269 445.447 258.287 445.285 Q259.306 445.1 260.324 445.1 Q266.111 445.1 269.491 448.271 Q272.87 451.443 272.87 456.859 Q272.87 462.438 269.398 465.54 Q265.926 468.619 259.607 468.619 Q257.431 468.619 255.162 468.248 Q252.917 467.878 250.509 467.137 L250.509 462.438 Q252.593 463.572 254.815 464.128 Q257.037 464.683 259.514 464.683 Q263.519 464.683 265.857 462.577 Q268.195 460.47 268.195 456.859 Q268.195 453.248 265.857 451.142 Q263.519 449.035 259.514 449.035 Q257.639 449.035 255.764 449.452 Q253.912 449.869 251.968 450.748 L251.968 433.387 Z" fill="#000000" fill-rule="nonzero" fill-opacity="1" /><path clip-path="url(#clip680)" d="M292.083 436.466 Q288.472 436.466 286.643 440.031 Q284.838 443.572 284.838 450.702 Q284.838 457.808 286.643 461.373 Q288.472 464.915 292.083 464.915 Q295.718 464.915 297.523 461.373 Q299.352 457.808 299.352 450.702 Q299.352 443.572 297.523 440.031 Q295.718 436.466 292.083 436.466 M292.083 432.762 Q297.893 432.762 300.949 437.369 Q304.028 441.952 304.028 450.702 Q304.028 459.429 300.949 464.035 Q297.893 468.619 292.083 468.619 Q286.273 468.619 283.194 464.035 Q280.139 459.429 280.139 450.702 Q280.139 441.952 283.194 437.369 Q286.273 432.762 292.083 432.762 Z" fill="#000000" fill-rule="nonzero" fill-opacity="1" /><path clip-path="url(#clip680)" d="M127.2 263.18 Q123.589 263.18 121.76 266.745 Q119.955 270.286 119.955 277.416 Q119.955 284.522 121.76 288.087 Q123.589 291.629 127.2 291.629 Q130.834 291.629 132.64 288.087 Q134.468 284.522 134.468 277.416 Q134.468 270.286 132.64 266.745 Q130.834 263.18 127.2 263.18 M127.2 259.476 Q133.01 259.476 136.066 264.083 Q139.144 268.666 139.144 277.416 Q139.144 286.143 136.066 290.749 Q133.01 295.333 127.2 295.333 Q121.39 295.333 118.311 290.749 Q115.256 286.143 115.256 277.416 Q115.256 268.666 118.311 264.083 Q121.39 259.476 127.2 259.476 Z" fill="#000000" fill-rule="nonzero" fill-opacity="1" /><path clip-path="url(#clip680)" d="M147.362 288.782 L152.246 288.782 L152.246 294.661 L147.362 294.661 L147.362 288.782 Z" fill="#000000" fill-rule="nonzero" fill-opacity="1" /><path clip-path="url(#clip680)" d="M172.431 263.18 Q168.82 263.18 166.991 266.745 Q165.186 270.286 165.186 277.416 Q165.186 284.522 166.991 288.087 Q168.82 291.629 172.431 291.629 Q176.065 291.629 177.871 288.087 Q179.7 284.522 179.7 277.416 Q179.7 270.286 177.871 266.745 Q176.065 263.18 172.431 263.18 M172.431 259.476 Q178.241 259.476 181.297 264.083 Q184.376 268.666 184.376 277.416 Q184.376 286.143 181.297 290.749 Q178.241 295.333 172.431 295.333 Q166.621 295.333 163.542 290.749 Q160.487 286.143 160.487 277.416 Q160.487 268.666 163.542 264.083 Q166.621 259.476 172.431 259.476 Z" fill="#000000" fill-rule="nonzero" fill-opacity="1" /><path clip-path="url(#clip680)" d="M193.403 290.726 L201.042 290.726 L201.042 264.361 L192.732 266.027 L192.732 261.768 L200.996 260.101 L205.672 260.101 L205.672 290.726 L213.311 290.726 L213.311 294.661 L193.403 294.661 L193.403 290.726 Z" fill="#000000" fill-rule="nonzero" fill-opacity="1" /><path clip-path="url(#clip680)" d="M232.755 263.18 Q229.144 263.18 227.315 266.745 Q225.51 270.286 225.51 277.416 Q225.51 284.522 227.315 288.087 Q229.144 291.629 232.755 291.629 Q236.389 291.629 238.195 288.087 Q240.023 284.522 240.023 277.416 Q240.023 270.286 238.195 266.745 Q236.389 263.18 232.755 263.18 M232.755 259.476 Q238.565 259.476 241.621 264.083 Q244.699 268.666 244.699 277.416 Q244.699 286.143 241.621 290.749 Q238.565 295.333 232.755 295.333 Q226.945 295.333 223.866 290.749 Q220.811 286.143 220.811 277.416 Q220.811 268.666 223.866 264.083 Q226.945 259.476 232.755 259.476 Z" fill="#000000" fill-rule="nonzero" fill-opacity="1" /><path clip-path="url(#clip680)" d="M251.736 260.101 L273.958 260.101 L273.958 262.092 L261.412 294.661 L256.528 294.661 L268.333 264.036 L251.736 264.036 L251.736 260.101 Z" fill="#000000" fill-rule="nonzero" fill-opacity="1" /><path clip-path="url(#clip680)" d="M283.125 260.101 L301.481 260.101 L301.481 264.036 L287.407 264.036 L287.407 272.509 Q288.426 272.161 289.444 271.999 Q290.463 271.814 291.481 271.814 Q297.268 271.814 300.648 274.985 Q304.028 278.157 304.028 283.573 Q304.028 289.152 300.555 292.254 Q297.083 295.333 290.764 295.333 Q288.588 295.333 286.319 294.962 Q284.074 294.592 281.667 293.851 L281.667 289.152 Q283.75 290.286 285.972 290.842 Q288.194 291.397 290.671 291.397 Q294.676 291.397 297.014 289.291 Q299.352 287.184 299.352 283.573 Q299.352 279.962 297.014 277.856 Q294.676 275.749 290.671 275.749 Q288.796 275.749 286.921 276.166 Q285.069 276.583 283.125 277.462 L283.125 260.101 Z" fill="#000000" fill-rule="nonzero" fill-opacity="1" /><path clip-path="url(#clip680)" d="M33.7671 788.508 L14.479 788.508 L14.479 782.652 L64.0042 782.652 L64.0042 788.508 L58.657 788.508 Q61.8398 790.354 63.3994 793.187 Q64.9272 795.988 64.9272 799.935 Q64.9272 806.396 59.771 810.47 Q54.6147 814.512 46.212 814.512 Q37.8093 814.512 32.6531 810.47 Q27.4968 806.396 27.4968 799.935 Q27.4968 795.988 29.0564 793.187 Q30.5842 790.354 33.7671 788.508 M46.212 808.465 Q52.6732 808.465 56.3653 805.823 Q60.0256 803.149 60.0256 798.502 Q60.0256 793.855 56.3653 791.182 Q52.6732 788.508 46.212 788.508 Q39.7508 788.508 36.0905 791.182 Q32.3984 793.855 32.3984 798.502 Q32.3984 803.149 36.0905 805.823 Q39.7508 808.465 46.212 808.465 Z" fill="#000000" fill-rule="nonzero" fill-opacity="1" /><path clip-path="url(#clip680)" d="M74.8259 743.503 L79.3773 743.503 L79.3773 777.368 L74.8259 777.368 L74.8259 743.503 Z" fill="#000000" fill-rule="nonzero" fill-opacity="1" /><path clip-path="url(#clip680)" d="M28.3562 737.996 L28.3562 732.14 L64.0042 732.14 L64.0042 737.996 L28.3562 737.996 M14.479 737.996 L14.479 732.14 L21.895 732.14 L21.895 737.996 L14.479 737.996 Z" fill="#000000" fill-rule="nonzero" fill-opacity="1" /><path clip-path="url(#clip680)" d="M1046.32 12.096 L1081.08 12.096 L1081.08 18.9825 L1054.5 18.9825 L1054.5 36.8065 L1078.49 36.8065 L1078.49 43.6931 L1054.5 43.6931 L1054.5 72.576 L1046.32 72.576 L1046.32 12.096 Z" fill="#000000" fill-rule="nonzero" fill-opacity="1" /><path clip-path="url(#clip680)" d="M1087.68 27.2059 L1095.13 27.2059 L1095.13 72.576 L1087.68 72.576 L1087.68 27.2059 M1087.68 9.54393 L1095.13 9.54393 L1095.13 18.9825 L1087.68 18.9825 L1087.68 9.54393 Z" fill="#000000" fill-rule="nonzero" fill-opacity="1" /><path clip-path="url(#clip680)" d="M1148.44 45.1919 L1148.44 72.576 L1140.99 72.576 L1140.99 45.4349 Q1140.99 38.994 1138.48 35.7938 Q1135.97 32.5936 1130.94 32.5936 Q1124.91 32.5936 1121.42 36.4419 Q1117.94 40.2903 1117.94 46.9338 L1117.94 72.576 L1110.45 72.576 L1110.45 27.2059 L1117.94 27.2059 L1117.94 34.2544 Q1120.61 30.163 1124.22 28.1376 Q1127.87 26.1121 1132.61 26.1121 Q1140.42 26.1121 1144.43 30.9732 Q1148.44 35.7938 1148.44 45.1919 Z" fill="#000000" fill-rule="nonzero" fill-opacity="1" /><path clip-path="url(#clip680)" d="M1183.93 49.7694 Q1174.9 49.7694 1171.41 51.8354 Q1167.93 53.9013 1167.93 58.8839 Q1167.93 62.8538 1170.52 65.2034 Q1173.15 67.5124 1177.65 67.5124 Q1183.85 67.5124 1187.58 63.1374 Q1191.34 58.7219 1191.34 51.4303 L1191.34 49.7694 L1183.93 49.7694 M1198.8 46.6907 L1198.8 72.576 L1191.34 72.576 L1191.34 65.6895 Q1188.79 69.8214 1184.98 71.8063 Q1181.18 73.7508 1175.67 73.7508 Q1168.7 73.7508 1164.57 69.8619 Q1160.48 65.9325 1160.48 59.3701 Q1160.48 51.7138 1165.58 47.825 Q1170.72 43.9361 1180.89 43.9361 L1191.34 43.9361 L1191.34 43.2069 Q1191.34 38.0623 1187.94 35.2672 Q1184.58 32.4315 1178.46 32.4315 Q1174.57 32.4315 1170.89 33.3632 Q1167.2 34.295 1163.8 36.1584 L1163.8 29.2718 Q1167.89 27.692 1171.74 26.9223 Q1175.59 26.1121 1179.23 26.1121 Q1189.07 26.1121 1193.94 31.2163 Q1198.8 36.3204 1198.8 46.6907 Z" fill="#000000" fill-rule="nonzero" fill-opacity="1" /><path clip-path="url(#clip680)" d="M1214.15 9.54393 L1221.6 9.54393 L1221.6 72.576 L1214.15 72.576 L1214.15 9.54393 Z" fill="#000000" fill-rule="nonzero" fill-opacity="1" /><path clip-path="url(#clip680)" d="M1293.43 34.0924 L1293.43 9.54393 L1300.88 9.54393 L1300.88 72.576 L1293.43 72.576 L1293.43 65.7705 Q1291.08 69.8214 1287.47 71.8063 Q1283.91 73.7508 1278.88 73.7508 Q1270.66 73.7508 1265.47 67.1883 Q1260.33 60.6258 1260.33 49.9314 Q1260.33 39.2371 1265.47 32.6746 Q1270.66 26.1121 1278.88 26.1121 Q1283.91 26.1121 1287.47 28.0971 Q1291.08 30.0415 1293.43 34.0924 M1268.03 49.9314 Q1268.03 58.1548 1271.39 62.8538 Q1274.79 67.5124 1280.71 67.5124 Q1286.62 67.5124 1290.02 62.8538 Q1293.43 58.1548 1293.43 49.9314 Q1293.43 41.7081 1290.02 37.0496 Q1286.62 32.3505 1280.71 32.3505 Q1274.79 32.3505 1271.39 37.0496 Q1268.03 41.7081 1268.03 49.9314 Z" fill="#000000" fill-rule="nonzero" fill-opacity="1" /><path clip-path="url(#clip680)" d="M1316.23 27.2059 L1323.69 27.2059 L1323.69 72.576 L1316.23 72.576 L1316.23 27.2059 M1316.23 9.54393 L1323.69 9.54393 L1323.69 18.9825 L1316.23 18.9825 L1316.23 9.54393 Z" fill="#000000" fill-rule="nonzero" fill-opacity="1" /><path clip-path="url(#clip680)" d="M1368.21 28.5427 L1368.21 35.5912 Q1365.05 33.9709 1361.64 33.1607 Q1358.24 32.3505 1354.59 32.3505 Q1349.05 32.3505 1346.25 34.0519 Q1343.5 35.7533 1343.5 39.156 Q1343.5 41.7486 1345.48 43.2475 Q1347.47 44.7058 1353.46 46.0426 L1356.01 46.6097 Q1363.95 48.3111 1367.27 51.4303 Q1370.64 54.509 1370.64 60.0587 Q1370.64 66.3781 1365.61 70.0644 Q1360.63 73.7508 1351.88 73.7508 Q1348.23 73.7508 1344.27 73.0216 Q1340.34 72.3329 1335.96 70.9151 L1335.96 63.2184 Q1340.09 65.3654 1344.1 66.4591 Q1348.11 67.5124 1352.04 67.5124 Q1357.31 67.5124 1360.14 65.73 Q1362.98 63.9071 1362.98 60.6258 Q1362.98 57.5877 1360.91 55.9673 Q1358.89 54.3469 1351.96 52.8481 L1349.37 52.2405 Q1342.44 50.7821 1339.36 47.7845 Q1336.28 44.7463 1336.28 39.4801 Q1336.28 33.0797 1340.82 29.5959 Q1345.36 26.1121 1353.7 26.1121 Q1357.84 26.1121 1361.48 26.7198 Q1365.13 27.3274 1368.21 28.5427 Z" fill="#000000" fill-rule="nonzero" fill-opacity="1" /><path clip-path="url(#clip680)" d="M1389.88 14.324 L1389.88 27.2059 L1405.23 27.2059 L1405.23 32.9987 L1389.88 32.9987 L1389.88 57.6282 Q1389.88 63.1779 1391.38 64.7578 Q1392.92 66.3376 1397.57 66.3376 L1405.23 66.3376 L1405.23 72.576 L1397.57 72.576 Q1388.95 72.576 1385.67 69.3758 Q1382.38 66.1351 1382.38 57.6282 L1382.38 32.9987 L1376.92 32.9987 L1376.92 27.2059 L1382.38 27.2059 L1382.38 14.324 L1389.88 14.324 Z" fill="#000000" fill-rule="nonzero" fill-opacity="1" /><path clip-path="url(#clip680)" d="M1435.65 49.7694 Q1426.62 49.7694 1423.14 51.8354 Q1419.65 53.9013 1419.65 58.8839 Q1419.65 62.8538 1422.24 65.2034 Q1424.88 67.5124 1429.37 67.5124 Q1435.57 67.5124 1439.3 63.1374 Q1443.07 58.7219 1443.07 51.4303 L1443.07 49.7694 L1435.65 49.7694 M1450.52 46.6907 L1450.52 72.576 L1443.07 72.576 L1443.07 65.6895 Q1440.51 69.8214 1436.71 71.8063 Q1432.9 73.7508 1427.39 73.7508 Q1420.42 73.7508 1416.29 69.8619 Q1412.2 65.9325 1412.2 59.3701 Q1412.2 51.7138 1417.3 47.825 Q1422.45 43.9361 1432.62 43.9361 L1443.07 43.9361 L1443.07 43.2069 Q1443.07 38.0623 1439.66 35.2672 Q1436.3 32.4315 1430.18 32.4315 Q1426.3 32.4315 1422.61 33.3632 Q1418.92 34.295 1415.52 36.1584 L1415.52 29.2718 Q1419.61 27.692 1423.46 26.9223 Q1427.31 26.1121 1430.95 26.1121 Q1440.8 26.1121 1445.66 31.2163 Q1450.52 36.3204 1450.52 46.6907 Z" fill="#000000" fill-rule="nonzero" fill-opacity="1" /><path clip-path="url(#clip680)" d="M1503.59 45.1919 L1503.59 72.576 L1496.13 72.576 L1496.13 45.4349 Q1496.13 38.994 1493.62 35.7938 Q1491.11 32.5936 1486.09 32.5936 Q1480.05 32.5936 1476.57 36.4419 Q1473.08 40.2903 1473.08 46.9338 L1473.08 72.576 L1465.59 72.576 L1465.59 27.2059 L1473.08 27.2059 L1473.08 34.2544 Q1475.76 30.163 1479.36 28.1376 Q1483.01 26.1121 1487.75 26.1121 Q1495.57 26.1121 1499.58 30.9732 Q1503.59 35.7938 1503.59 45.1919 Z" fill="#000000" fill-rule="nonzero" fill-opacity="1" /><path clip-path="url(#clip680)" d="M1551.1 28.9478 L1551.1 35.9153 Q1547.94 34.1734 1544.74 33.3227 Q1541.58 32.4315 1538.34 32.4315 Q1531.09 32.4315 1527.08 37.0496 Q1523.07 41.6271 1523.07 49.9314 Q1523.07 58.2358 1527.08 62.8538 Q1531.09 67.4314 1538.34 67.4314 Q1541.58 67.4314 1544.74 66.5807 Q1547.94 65.6895 1551.1 63.9476 L1551.1 70.8341 Q1547.99 72.2924 1544.62 73.0216 Q1541.3 73.7508 1537.53 73.7508 Q1527.28 73.7508 1521.25 67.3098 Q1515.21 60.8689 1515.21 49.9314 Q1515.21 38.832 1521.29 32.472 Q1527.41 26.1121 1538.02 26.1121 Q1541.46 26.1121 1544.74 26.8413 Q1548.03 27.5299 1551.1 28.9478 Z" fill="#000000" fill-rule="nonzero" fill-opacity="1" /><path clip-path="url(#clip680)" d="M1602.87 48.0275 L1602.87 51.6733 L1568.6 51.6733 Q1569.09 59.3701 1573.22 63.421 Q1577.39 67.4314 1584.81 67.4314 Q1589.1 67.4314 1593.11 66.3781 Q1597.16 65.3249 1601.13 63.2184 L1601.13 70.267 Q1597.12 71.9684 1592.91 72.8596 Q1588.7 73.7508 1584.36 73.7508 Q1573.51 73.7508 1567.15 67.4314 Q1560.83 61.1119 1560.83 50.3365 Q1560.83 39.1965 1566.82 32.6746 Q1572.86 26.1121 1583.07 26.1121 Q1592.22 26.1121 1597.53 32.0264 Q1602.87 37.9003 1602.87 48.0275 M1595.42 45.84 Q1595.34 39.7232 1591.98 36.0774 Q1588.66 32.4315 1583.15 32.4315 Q1576.91 32.4315 1573.14 35.9558 Q1569.41 39.4801 1568.85 45.8805 L1595.42 45.84 Z" fill="#000000" fill-rule="nonzero" fill-opacity="1" /><path clip-path="url(#clip680)" d="M1644.03 28.5427 L1644.03 35.5912 Q1640.87 33.9709 1637.47 33.1607 Q1634.07 32.3505 1630.42 32.3505 Q1624.87 32.3505 1622.08 34.0519 Q1619.32 35.7533 1619.32 39.156 Q1619.32 41.7486 1621.31 43.2475 Q1623.29 44.7058 1629.29 46.0426 L1631.84 46.6097 Q1639.78 48.3111 1643.1 51.4303 Q1646.46 54.509 1646.46 60.0587 Q1646.46 66.3781 1641.44 70.0644 Q1636.46 73.7508 1627.71 73.7508 Q1624.06 73.7508 1620.09 73.0216 Q1616.16 72.3329 1611.79 70.9151 L1611.79 63.2184 Q1615.92 65.3654 1619.93 66.4591 Q1623.94 67.5124 1627.87 67.5124 Q1633.14 67.5124 1635.97 65.73 Q1638.81 63.9071 1638.81 60.6258 Q1638.81 57.5877 1636.74 55.9673 Q1634.71 54.3469 1627.79 52.8481 L1625.2 52.2405 Q1618.27 50.7821 1615.19 47.7845 Q1612.11 44.7463 1612.11 39.4801 Q1612.11 33.0797 1616.65 29.5959 Q1621.18 26.1121 1629.53 26.1121 Q1633.66 26.1121 1637.31 26.7198 Q1640.95 27.3274 1644.03 28.5427 Z" fill="#000000" fill-rule="nonzero" fill-opacity="1" /><circle clip-path="url(#clip682)" cx="396.992" cy="1386.4" r="14.4" fill="#009af9" fill-rule="evenodd" fill-opacity="1" stroke="#000000" stroke-opacity="1" stroke-width="3.2"/>
<circle clip-path="url(#clip682)" cx="668.249" cy="783.773" r="14.4" fill="#009af9" fill-rule="evenodd" fill-opacity="1" stroke="#000000" stroke-opacity="1" stroke-width="3.2"/>
<circle clip-path="url(#clip682)" cx="939.506" cy="425.115" r="14.4" fill="#009af9" fill-rule="evenodd" fill-opacity="1" stroke="#000000" stroke-opacity="1" stroke-width="3.2"/>
<circle clip-path="url(#clip682)" cx="1210.76" cy="420.973" r="14.4" fill="#009af9" fill-rule="evenodd" fill-opacity="1" stroke="#000000" stroke-opacity="1" stroke-width="3.2"/>
<circle clip-path="url(#clip682)" cx="1482.02" cy="160.256" r="14.4" fill="#009af9" fill-rule="evenodd" fill-opacity="1" stroke="#000000" stroke-opacity="1" stroke-width="3.2"/>
<circle clip-path="url(#clip682)" cx="1753.28" cy="390.121" r="14.4" fill="#009af9" fill-rule="evenodd" fill-opacity="1" stroke="#000000" stroke-opacity="1" stroke-width="3.2"/>
<circle clip-path="url(#clip682)" cx="2024.53" cy="1159.89" r="14.4" fill="#009af9" fill-rule="evenodd" fill-opacity="1" stroke="#000000" stroke-opacity="1" stroke-width="3.2"/>
<circle clip-path="url(#clip682)" cx="2295.79" cy="752.131" r="14.4" fill="#009af9" fill-rule="evenodd" fill-opacity="1" stroke="#000000" stroke-opacity="1" stroke-width="3.2"/>
</svg>
