<?xml version="1.0" encoding="utf-8"?>
<svg xmlns="http://www.w3.org/2000/svg" xmlns:xlink="http://www.w3.org/1999/xlink" width="600" height="400" viewBox="0 0 2400 1600">
<defs>
  <clipPath id="clip180">
    <rect x="0" y="0" width="2400" height="1600"/>
  </clipPath>
</defs>
<path clip-path="url(#clip180)" d="M0 1600 L2400 1600 L2400 0 L0 0  Z" fill="#ffffff" fill-rule="evenodd" fill-opacity="1"/>
<defs>
  <clipPath id="clip181">
    <rect x="480" y="0" width="1681" height="1600"/>
  </clipPath>
</defs>
<path clip-path="url(#clip180)" d="M310.352 1423.18 L2352.76 1423.18 L2352.76 123.472 L310.352 123.472  Z" fill="#ffffff" fill-rule="evenodd" fill-opacity="1"/>
<defs>
  <clipPath id="clip182">
    <rect x="310" y="123" width="2043" height="1301"/>
  </clipPath>
</defs>
<polyline clip-path="url(#clip182)" style="stroke:#000000; stroke-linecap:round; stroke-linejoin:round; stroke-width:2; stroke-opacity:0.1; fill:none" points="643.412,1423.18 643.412,123.472 "/>
<polyline clip-path="url(#clip182)" style="stroke:#000000; stroke-linecap:round; stroke-linejoin:round; stroke-width:2; stroke-opacity:0.1; fill:none" points="1193.93,1423.18 1193.93,123.472 "/>
<polyline clip-path="url(#clip182)" style="stroke:#000000; stroke-linecap:round; stroke-linejoin:round; stroke-width:2; stroke-opacity:0.1; fill:none" points="1744.44,1423.18 1744.44,123.472 "/>
<polyline clip-path="url(#clip182)" style="stroke:#000000; stroke-linecap:round; stroke-linejoin:round; stroke-width:2; stroke-opacity:0.1; fill:none" points="2294.95,1423.18 2294.95,123.472 "/>
<polyline clip-path="url(#clip182)" style="stroke:#000000; stroke-linecap:round; stroke-linejoin:round; stroke-width:2; stroke-opacity:0.1; fill:none" points="310.352,1219.52 2352.76,1219.52 "/>
<polyline clip-path="url(#clip182)" style="stroke:#000000; stroke-linecap:round; stroke-linejoin:round; stroke-width:2; stroke-opacity:0.1; fill:none" points="310.352,972.687 2352.76,972.687 "/>
<polyline clip-path="url(#clip182)" style="stroke:#000000; stroke-linecap:round; stroke-linejoin:round; stroke-width:2; stroke-opacity:0.1; fill:none" points="310.352,725.859 2352.76,725.859 "/>
<polyline clip-path="url(#clip182)" style="stroke:#000000; stroke-linecap:round; stroke-linejoin:round; stroke-width:2; stroke-opacity:0.1; fill:none" points="310.352,479.03 2352.76,479.03 "/>
<polyline clip-path="url(#clip182)" style="stroke:#000000; stroke-linecap:round; stroke-linejoin:round; stroke-width:2; stroke-opacity:0.1; fill:none" points="310.352,232.202 2352.76,232.202 "/>
<polyline clip-path="url(#clip180)" style="stroke:#000000; stroke-linecap:round; stroke-linejoin:round; stroke-width:4; stroke-opacity:1; fill:none" points="310.352,1423.18 2352.76,1423.18 "/>
<polyline clip-path="url(#clip180)" style="stroke:#000000; stroke-linecap:round; stroke-linejoin:round; stroke-width:4; stroke-opacity:1; fill:none" points="643.412,1423.18 643.412,1404.28 "/>
<polyline clip-path="url(#clip180)" style="stroke:#000000; stroke-linecap:round; stroke-linejoin:round; stroke-width:4; stroke-opacity:1; fill:none" points="1193.93,1423.18 1193.93,1404.28 "/>
<polyline clip-path="url(#clip180)" style="stroke:#000000; stroke-linecap:round; stroke-linejoin:round; stroke-width:4; stroke-opacity:1; fill:none" points="1744.44,1423.18 1744.44,1404.28 "/>
<polyline clip-path="url(#clip180)" style="stroke:#000000; stroke-linecap:round; stroke-linejoin:round; stroke-width:4; stroke-opacity:1; fill:none" points="2294.95,1423.18 2294.95,1404.28 "/>
<path clip-path="url(#clip180)" d="M638.065 1481.64 L654.385 1481.64 L654.385 1485.58 L632.44 1485.58 L632.44 1481.64 Q635.102 1478.89 639.686 1474.26 Q644.292 1469.61 645.473 1468.27 Q647.718 1465.74 648.598 1464.01 Q649.5 1462.25 649.5 1460.56 Q649.5 1457.8 647.556 1456.07 Q645.635 1454.33 642.533 1454.33 Q640.334 1454.33 637.88 1455.09 Q635.449 1455.86 632.672 1457.41 L632.672 1452.69 Q635.496 1451.55 637.949 1450.97 Q640.403 1450.39 642.44 1450.39 Q647.811 1450.39 651.005 1453.08 Q654.199 1455.77 654.199 1460.26 Q654.199 1462.39 653.389 1464.31 Q652.602 1466.2 650.496 1468.8 Q649.917 1469.47 646.815 1472.69 Q643.713 1475.88 638.065 1481.64 Z" fill="#000000" fill-rule="nonzero" fill-opacity="1" /><path clip-path="url(#clip180)" d="M1196.93 1455.09 L1185.13 1473.54 L1196.93 1473.54 L1196.93 1455.09 M1195.71 1451.02 L1201.59 1451.02 L1201.59 1473.54 L1206.52 1473.54 L1206.52 1477.43 L1201.59 1477.43 L1201.59 1485.58 L1196.93 1485.58 L1196.93 1477.43 L1181.33 1477.43 L1181.33 1472.92 L1195.71 1451.02 Z" fill="#000000" fill-rule="nonzero" fill-opacity="1" /><path clip-path="url(#clip180)" d="M1744.84 1466.44 Q1741.7 1466.44 1739.84 1468.59 Q1738.02 1470.74 1738.02 1474.49 Q1738.02 1478.22 1739.84 1480.39 Q1741.7 1482.55 1744.84 1482.55 Q1747.99 1482.55 1749.82 1480.39 Q1751.67 1478.22 1751.67 1474.49 Q1751.67 1470.74 1749.82 1468.59 Q1747.99 1466.44 1744.84 1466.44 M1754.13 1451.78 L1754.13 1456.04 Q1752.37 1455.21 1750.56 1454.77 Q1748.78 1454.33 1747.02 1454.33 Q1742.39 1454.33 1739.94 1457.45 Q1737.51 1460.58 1737.16 1466.9 Q1738.52 1464.89 1740.58 1463.82 Q1742.64 1462.73 1745.12 1462.73 Q1750.33 1462.73 1753.34 1465.9 Q1756.37 1469.05 1756.37 1474.49 Q1756.37 1479.82 1753.22 1483.03 Q1750.08 1486.25 1744.84 1486.25 Q1738.85 1486.25 1735.68 1481.67 Q1732.51 1477.06 1732.51 1468.33 Q1732.51 1460.14 1736.39 1455.28 Q1740.28 1450.39 1746.83 1450.39 Q1748.59 1450.39 1750.38 1450.74 Q1752.18 1451.09 1754.13 1451.78 Z" fill="#000000" fill-rule="nonzero" fill-opacity="1" /><path clip-path="url(#clip180)" d="M2294.95 1469.17 Q2291.62 1469.17 2289.7 1470.95 Q2287.8 1472.73 2287.8 1475.86 Q2287.8 1478.98 2289.7 1480.77 Q2291.62 1482.55 2294.95 1482.55 Q2298.29 1482.55 2300.21 1480.77 Q2302.13 1478.96 2302.13 1475.86 Q2302.13 1472.73 2300.21 1470.95 Q2298.31 1469.17 2294.95 1469.17 M2290.28 1467.18 Q2287.27 1466.44 2285.58 1464.38 Q2283.91 1462.32 2283.91 1459.35 Q2283.91 1455.21 2286.85 1452.8 Q2289.81 1450.39 2294.95 1450.39 Q2300.11 1450.39 2303.05 1452.8 Q2305.99 1455.21 2305.99 1459.35 Q2305.99 1462.32 2304.3 1464.38 Q2302.64 1466.44 2299.65 1467.18 Q2303.03 1467.96 2304.91 1470.26 Q2306.8 1472.55 2306.8 1475.86 Q2306.8 1480.88 2303.73 1483.57 Q2300.67 1486.25 2294.95 1486.25 Q2289.23 1486.25 2286.16 1483.57 Q2283.1 1480.88 2283.1 1475.86 Q2283.1 1472.55 2285 1470.26 Q2286.9 1467.96 2290.28 1467.18 M2288.56 1459.79 Q2288.56 1462.48 2290.23 1463.98 Q2291.92 1465.49 2294.95 1465.49 Q2297.96 1465.49 2299.65 1463.98 Q2301.36 1462.48 2301.36 1459.79 Q2301.36 1457.11 2299.65 1455.6 Q2297.96 1454.1 2294.95 1454.1 Q2291.92 1454.1 2290.23 1455.6 Q2288.56 1457.11 2288.56 1459.79 Z" fill="#000000" fill-rule="nonzero" fill-opacity="1" /><path clip-path="url(#clip180)" d="M1271.27 1525.81 L1271.27 1562.76 L1279.04 1562.76 Q1288.87 1562.76 1293.42 1558.3 Q1298.01 1553.85 1298.01 1544.24 Q1298.01 1534.69 1293.42 1530.26 Q1288.87 1525.81 1279.04 1525.81 L1271.27 1525.81 M1264.84 1520.52 L1278.05 1520.52 Q1291.86 1520.52 1298.32 1526.28 Q1304.79 1532.01 1304.79 1544.24 Q1304.79 1556.52 1298.29 1562.28 Q1291.8 1568.04 1278.05 1568.04 L1264.84 1568.04 L1264.84 1520.52 Z" fill="#000000" fill-rule="nonzero" fill-opacity="1" /><path clip-path="url(#clip180)" d="M1314.78 1532.4 L1320.64 1532.4 L1320.64 1568.04 L1314.78 1568.04 L1314.78 1532.4 M1314.78 1518.52 L1320.64 1518.52 L1320.64 1525.93 L1314.78 1525.93 L1314.78 1518.52 Z" fill="#000000" fill-rule="nonzero" fill-opacity="1" /><path clip-path="url(#clip180)" d="M1355.62 1533.45 L1355.62 1538.98 Q1353.13 1537.71 1350.46 1537.07 Q1347.79 1536.44 1344.92 1536.44 Q1340.56 1536.44 1338.37 1537.77 Q1336.2 1539.11 1336.2 1541.79 Q1336.2 1543.82 1337.76 1545 Q1339.32 1546.15 1344.03 1547.2 L1346.04 1547.64 Q1352.27 1548.98 1354.88 1551.43 Q1357.53 1553.85 1357.53 1558.21 Q1357.53 1563.17 1353.58 1566.07 Q1349.66 1568.97 1342.79 1568.97 Q1339.92 1568.97 1336.81 1568.39 Q1333.72 1567.85 1330.28 1566.74 L1330.28 1560.69 Q1333.53 1562.38 1336.68 1563.24 Q1339.83 1564.07 1342.92 1564.07 Q1347.05 1564.07 1349.28 1562.66 Q1351.51 1561.23 1351.51 1558.65 Q1351.51 1556.27 1349.89 1554.99 Q1348.3 1553.72 1342.85 1552.54 L1340.82 1552.07 Q1335.37 1550.92 1332.95 1548.56 Q1330.54 1546.18 1330.54 1542.04 Q1330.54 1537.01 1334.1 1534.27 Q1337.66 1531.54 1344.22 1531.54 Q1347.47 1531.54 1350.33 1532.01 Q1353.2 1532.49 1355.62 1533.45 Z" fill="#000000" fill-rule="nonzero" fill-opacity="1" /><path clip-path="url(#clip180)" d="M1366.63 1518.52 L1372.52 1518.52 L1372.52 1547.77 L1389.99 1532.4 L1397.47 1532.4 L1378.56 1549.07 L1398.27 1568.04 L1390.63 1568.04 L1372.52 1550.63 L1372.52 1568.04 L1366.63 1568.04 L1366.63 1518.52 Z" fill="#000000" fill-rule="nonzero" fill-opacity="1" /><polyline clip-path="url(#clip180)" style="stroke:#000000; stroke-linecap:round; stroke-linejoin:round; stroke-width:4; stroke-opacity:1; fill:none" points="310.352,1423.18 310.352,123.472 "/>
<polyline clip-path="url(#clip180)" style="stroke:#000000; stroke-linecap:round; stroke-linejoin:round; stroke-width:4; stroke-opacity:1; fill:none" points="310.352,1219.52 329.25,1219.52 "/>
<polyline clip-path="url(#clip180)" style="stroke:#000000; stroke-linecap:round; stroke-linejoin:round; stroke-width:4; stroke-opacity:1; fill:none" points="310.352,972.687 329.25,972.687 "/>
<polyline clip-path="url(#clip180)" style="stroke:#000000; stroke-linecap:round; stroke-linejoin:round; stroke-width:4; stroke-opacity:1; fill:none" points="310.352,725.859 329.25,725.859 "/>
<polyline clip-path="url(#clip180)" style="stroke:#000000; stroke-linecap:round; stroke-linejoin:round; stroke-width:4; stroke-opacity:1; fill:none" points="310.352,479.03 329.25,479.03 "/>
<polyline clip-path="url(#clip180)" style="stroke:#000000; stroke-linecap:round; stroke-linejoin:round; stroke-width:4; stroke-opacity:1; fill:none" points="310.352,232.202 329.25,232.202 "/>
<path clip-path="url(#clip180)" d="M126.205 1205.31 Q122.593 1205.31 120.765 1208.88 Q118.959 1212.42 118.959 1219.55 Q118.959 1226.66 120.765 1230.22 Q122.593 1233.76 126.205 1233.76 Q129.839 1233.76 131.644 1230.22 Q133.473 1226.66 133.473 1219.55 Q133.473 1212.42 131.644 1208.88 Q129.839 1205.31 126.205 1205.31 M126.205 1201.61 Q132.015 1201.61 135.07 1206.22 Q138.149 1210.8 138.149 1219.55 Q138.149 1228.28 135.07 1232.88 Q132.015 1237.47 126.205 1237.47 Q120.394 1237.47 117.316 1232.88 Q114.26 1228.28 114.26 1219.55 Q114.26 1210.8 117.316 1206.22 Q120.394 1201.61 126.205 1201.61 Z" fill="#000000" fill-rule="nonzero" fill-opacity="1" /><path clip-path="url(#clip180)" d="M146.366 1230.92 L151.251 1230.92 L151.251 1236.8 L146.366 1236.8 L146.366 1230.92 Z" fill="#000000" fill-rule="nonzero" fill-opacity="1" /><path clip-path="url(#clip180)" d="M171.436 1205.31 Q167.825 1205.31 165.996 1208.88 Q164.19 1212.42 164.19 1219.55 Q164.19 1226.66 165.996 1230.22 Q167.825 1233.76 171.436 1233.76 Q175.07 1233.76 176.876 1230.22 Q178.704 1226.66 178.704 1219.55 Q178.704 1212.42 176.876 1208.88 Q175.07 1205.31 171.436 1205.31 M171.436 1201.61 Q177.246 1201.61 180.301 1206.22 Q183.38 1210.8 183.38 1219.55 Q183.38 1228.28 180.301 1232.88 Q177.246 1237.47 171.436 1237.47 Q165.626 1237.47 162.547 1232.88 Q159.491 1228.28 159.491 1219.55 Q159.491 1210.8 162.547 1206.22 Q165.626 1201.61 171.436 1201.61 Z" fill="#000000" fill-rule="nonzero" fill-opacity="1" /><path clip-path="url(#clip180)" d="M201.598 1205.31 Q197.987 1205.31 196.158 1208.88 Q194.352 1212.42 194.352 1219.55 Q194.352 1226.66 196.158 1230.22 Q197.987 1233.76 201.598 1233.76 Q205.232 1233.76 207.037 1230.22 Q208.866 1226.66 208.866 1219.55 Q208.866 1212.42 207.037 1208.88 Q205.232 1205.31 201.598 1205.31 M201.598 1201.61 Q207.408 1201.61 210.463 1206.22 Q213.542 1210.8 213.542 1219.55 Q213.542 1228.28 210.463 1232.88 Q207.408 1237.47 201.598 1237.47 Q195.787 1237.47 192.709 1232.88 Q189.653 1228.28 189.653 1219.55 Q189.653 1210.8 192.709 1206.22 Q195.787 1201.61 201.598 1201.61 Z" fill="#000000" fill-rule="nonzero" fill-opacity="1" /><path clip-path="url(#clip180)" d="M231.76 1220.38 Q228.426 1220.38 226.505 1222.17 Q224.607 1223.95 224.607 1227.07 Q224.607 1230.2 226.505 1231.98 Q228.426 1233.76 231.76 1233.76 Q235.093 1233.76 237.014 1231.98 Q238.935 1230.17 238.935 1227.07 Q238.935 1223.95 237.014 1222.17 Q235.116 1220.38 231.76 1220.38 M227.084 1218.39 Q224.074 1217.65 222.385 1215.59 Q220.718 1213.53 220.718 1210.57 Q220.718 1206.42 223.658 1204.02 Q226.621 1201.61 231.76 1201.61 Q236.922 1201.61 239.861 1204.02 Q242.801 1206.42 242.801 1210.57 Q242.801 1213.53 241.111 1215.59 Q239.445 1217.65 236.459 1218.39 Q239.838 1219.18 241.713 1221.47 Q243.611 1223.76 243.611 1227.07 Q243.611 1232.1 240.533 1234.78 Q237.477 1237.47 231.76 1237.47 Q226.042 1237.47 222.963 1234.78 Q219.908 1232.1 219.908 1227.07 Q219.908 1223.76 221.806 1221.47 Q223.704 1219.18 227.084 1218.39 M225.371 1211.01 Q225.371 1213.69 227.037 1215.2 Q228.727 1216.7 231.76 1216.7 Q234.769 1216.7 236.459 1215.2 Q238.172 1213.69 238.172 1211.01 Q238.172 1208.32 236.459 1206.82 Q234.769 1205.31 231.76 1205.31 Q228.727 1205.31 227.037 1206.82 Q225.371 1208.32 225.371 1211.01 Z" fill="#000000" fill-rule="nonzero" fill-opacity="1" /><path clip-path="url(#clip180)" d="M264.769 1206.31 L252.963 1224.76 L264.769 1224.76 L264.769 1206.31 M263.542 1202.24 L269.421 1202.24 L269.421 1224.76 L274.352 1224.76 L274.352 1228.65 L269.421 1228.65 L269.421 1236.8 L264.769 1236.8 L264.769 1228.65 L249.167 1228.65 L249.167 1224.13 L263.542 1202.24 Z" fill="#000000" fill-rule="nonzero" fill-opacity="1" /><path clip-path="url(#clip180)" d="M127.593 958.485 Q123.982 958.485 122.154 962.05 Q120.348 965.592 120.348 972.721 Q120.348 979.828 122.154 983.393 Q123.982 986.934 127.593 986.934 Q131.228 986.934 133.033 983.393 Q134.862 979.828 134.862 972.721 Q134.862 965.592 133.033 962.05 Q131.228 958.485 127.593 958.485 M127.593 954.782 Q133.404 954.782 136.459 959.388 Q139.538 963.972 139.538 972.721 Q139.538 981.448 136.459 986.055 Q133.404 990.638 127.593 990.638 Q121.783 990.638 118.705 986.055 Q115.649 981.448 115.649 972.721 Q115.649 963.972 118.705 959.388 Q121.783 954.782 127.593 954.782 Z" fill="#000000" fill-rule="nonzero" fill-opacity="1" /><path clip-path="url(#clip180)" d="M147.755 984.087 L152.64 984.087 L152.64 989.967 L147.755 989.967 L147.755 984.087 Z" fill="#000000" fill-rule="nonzero" fill-opacity="1" /><path clip-path="url(#clip180)" d="M172.825 958.485 Q169.214 958.485 167.385 962.05 Q165.579 965.592 165.579 972.721 Q165.579 979.828 167.385 983.393 Q169.214 986.934 172.825 986.934 Q176.459 986.934 178.264 983.393 Q180.093 979.828 180.093 972.721 Q180.093 965.592 178.264 962.05 Q176.459 958.485 172.825 958.485 M172.825 954.782 Q178.635 954.782 181.69 959.388 Q184.769 963.972 184.769 972.721 Q184.769 981.448 181.69 986.055 Q178.635 990.638 172.825 990.638 Q167.015 990.638 163.936 986.055 Q160.88 981.448 160.88 972.721 Q160.88 963.972 163.936 959.388 Q167.015 954.782 172.825 954.782 Z" fill="#000000" fill-rule="nonzero" fill-opacity="1" /><path clip-path="url(#clip180)" d="M202.987 958.485 Q199.375 958.485 197.547 962.05 Q195.741 965.592 195.741 972.721 Q195.741 979.828 197.547 983.393 Q199.375 986.934 202.987 986.934 Q206.621 986.934 208.426 983.393 Q210.255 979.828 210.255 972.721 Q210.255 965.592 208.426 962.05 Q206.621 958.485 202.987 958.485 M202.987 954.782 Q208.797 954.782 211.852 959.388 Q214.931 963.972 214.931 972.721 Q214.931 981.448 211.852 986.055 Q208.797 990.638 202.987 990.638 Q197.176 990.638 194.098 986.055 Q191.042 981.448 191.042 972.721 Q191.042 963.972 194.098 959.388 Q197.176 954.782 202.987 954.782 Z" fill="#000000" fill-rule="nonzero" fill-opacity="1" /><path clip-path="url(#clip180)" d="M233.148 973.555 Q229.815 973.555 227.894 975.337 Q225.996 977.12 225.996 980.245 Q225.996 983.37 227.894 985.152 Q229.815 986.934 233.148 986.934 Q236.482 986.934 238.403 985.152 Q240.324 983.346 240.324 980.245 Q240.324 977.12 238.403 975.337 Q236.505 973.555 233.148 973.555 M228.473 971.564 Q225.463 970.823 223.773 968.763 Q222.107 966.703 222.107 963.74 Q222.107 959.597 225.047 957.189 Q228.01 954.782 233.148 954.782 Q238.31 954.782 241.25 957.189 Q244.19 959.597 244.19 963.74 Q244.19 966.703 242.5 968.763 Q240.834 970.823 237.847 971.564 Q241.227 972.351 243.102 974.643 Q245 976.934 245 980.245 Q245 985.268 241.922 987.953 Q238.866 990.638 233.148 990.638 Q227.431 990.638 224.352 987.953 Q221.297 985.268 221.297 980.245 Q221.297 976.934 223.195 974.643 Q225.093 972.351 228.473 971.564 M226.76 964.18 Q226.76 966.865 228.426 968.37 Q230.116 969.874 233.148 969.874 Q236.158 969.874 237.847 968.37 Q239.56 966.865 239.56 964.18 Q239.56 961.495 237.847 959.99 Q236.158 958.485 233.148 958.485 Q230.116 958.485 228.426 959.99 Q226.76 961.495 226.76 964.18 Z" fill="#000000" fill-rule="nonzero" fill-opacity="1" /><path clip-path="url(#clip180)" d="M252.13 955.407 L274.352 955.407 L274.352 957.398 L261.806 989.967 L256.921 989.967 L268.727 959.342 L252.13 959.342 L252.13 955.407 Z" fill="#000000" fill-rule="nonzero" fill-opacity="1" /><path clip-path="url(#clip180)" d="M126.691 711.657 Q123.08 711.657 121.251 715.222 Q119.445 718.764 119.445 725.893 Q119.445 733 121.251 736.564 Q123.08 740.106 126.691 740.106 Q130.325 740.106 132.13 736.564 Q133.959 733 133.959 725.893 Q133.959 718.764 132.13 715.222 Q130.325 711.657 126.691 711.657 M126.691 707.954 Q132.501 707.954 135.556 712.56 Q138.635 717.143 138.635 725.893 Q138.635 734.62 135.556 739.227 Q132.501 743.81 126.691 743.81 Q120.88 743.81 117.802 739.227 Q114.746 734.62 114.746 725.893 Q114.746 717.143 117.802 712.56 Q120.88 707.954 126.691 707.954 Z" fill="#000000" fill-rule="nonzero" fill-opacity="1" /><path clip-path="url(#clip180)" d="M146.853 737.259 L151.737 737.259 L151.737 743.139 L146.853 743.139 L146.853 737.259 Z" fill="#000000" fill-rule="nonzero" fill-opacity="1" /><path clip-path="url(#clip180)" d="M171.922 711.657 Q168.311 711.657 166.482 715.222 Q164.677 718.764 164.677 725.893 Q164.677 733 166.482 736.564 Q168.311 740.106 171.922 740.106 Q175.556 740.106 177.362 736.564 Q179.19 733 179.19 725.893 Q179.19 718.764 177.362 715.222 Q175.556 711.657 171.922 711.657 M171.922 707.954 Q177.732 707.954 180.788 712.56 Q183.866 717.143 183.866 725.893 Q183.866 734.62 180.788 739.227 Q177.732 743.81 171.922 743.81 Q166.112 743.81 163.033 739.227 Q159.978 734.62 159.978 725.893 Q159.978 717.143 163.033 712.56 Q166.112 707.954 171.922 707.954 Z" fill="#000000" fill-rule="nonzero" fill-opacity="1" /><path clip-path="url(#clip180)" d="M202.084 711.657 Q198.473 711.657 196.644 715.222 Q194.838 718.764 194.838 725.893 Q194.838 733 196.644 736.564 Q198.473 740.106 202.084 740.106 Q205.718 740.106 207.524 736.564 Q209.352 733 209.352 725.893 Q209.352 718.764 207.524 715.222 Q205.718 711.657 202.084 711.657 M202.084 707.954 Q207.894 707.954 210.949 712.56 Q214.028 717.143 214.028 725.893 Q214.028 734.62 210.949 739.227 Q207.894 743.81 202.084 743.81 Q196.274 743.81 193.195 739.227 Q190.139 734.62 190.139 725.893 Q190.139 717.143 193.195 712.56 Q196.274 707.954 202.084 707.954 Z" fill="#000000" fill-rule="nonzero" fill-opacity="1" /><path clip-path="url(#clip180)" d="M222.385 742.421 L222.385 738.162 Q224.144 738.995 225.949 739.435 Q227.755 739.875 229.491 739.875 Q234.121 739.875 236.551 736.773 Q239.005 733.648 239.352 727.305 Q238.009 729.296 235.949 730.361 Q233.889 731.426 231.389 731.426 Q226.204 731.426 223.172 728.301 Q220.162 725.153 220.162 719.713 Q220.162 714.389 223.31 711.171 Q226.459 707.954 231.69 707.954 Q237.685 707.954 240.834 712.56 Q244.005 717.143 244.005 725.893 Q244.005 734.065 240.116 738.949 Q236.25 743.81 229.699 743.81 Q227.94 743.81 226.135 743.463 Q224.329 743.115 222.385 742.421 M231.69 727.768 Q234.838 727.768 236.667 725.615 Q238.519 723.463 238.519 719.713 Q238.519 715.986 236.667 713.833 Q234.838 711.657 231.69 711.657 Q228.542 711.657 226.69 713.833 Q224.861 715.986 224.861 719.713 Q224.861 723.463 226.69 725.615 Q228.542 727.768 231.69 727.768 Z" fill="#000000" fill-rule="nonzero" fill-opacity="1" /><path clip-path="url(#clip180)" d="M262.408 711.657 Q258.796 711.657 256.968 715.222 Q255.162 718.764 255.162 725.893 Q255.162 733 256.968 736.564 Q258.796 740.106 262.408 740.106 Q266.042 740.106 267.847 736.564 Q269.676 733 269.676 725.893 Q269.676 718.764 267.847 715.222 Q266.042 711.657 262.408 711.657 M262.408 707.954 Q268.218 707.954 271.273 712.56 Q274.352 717.143 274.352 725.893 Q274.352 734.62 271.273 739.227 Q268.218 743.81 262.408 743.81 Q256.597 743.81 253.519 739.227 Q250.463 734.62 250.463 725.893 Q250.463 717.143 253.519 712.56 Q256.597 707.954 262.408 707.954 Z" fill="#000000" fill-rule="nonzero" fill-opacity="1" /><path clip-path="url(#clip180)" d="M127.339 464.829 Q123.728 464.829 121.899 468.394 Q120.093 471.935 120.093 479.065 Q120.093 486.171 121.899 489.736 Q123.728 493.278 127.339 493.278 Q130.973 493.278 132.779 489.736 Q134.607 486.171 134.607 479.065 Q134.607 471.935 132.779 468.394 Q130.973 464.829 127.339 464.829 M127.339 461.125 Q133.149 461.125 136.204 465.732 Q139.283 470.315 139.283 479.065 Q139.283 487.792 136.204 492.398 Q133.149 496.982 127.339 496.982 Q121.529 496.982 118.45 492.398 Q115.394 487.792 115.394 479.065 Q115.394 470.315 118.45 465.732 Q121.529 461.125 127.339 461.125 Z" fill="#000000" fill-rule="nonzero" fill-opacity="1" /><path clip-path="url(#clip180)" d="M147.501 490.431 L152.385 490.431 L152.385 496.31 L147.501 496.31 L147.501 490.431 Z" fill="#000000" fill-rule="nonzero" fill-opacity="1" /><path clip-path="url(#clip180)" d="M172.57 464.829 Q168.959 464.829 167.13 468.394 Q165.325 471.935 165.325 479.065 Q165.325 486.171 167.13 489.736 Q168.959 493.278 172.57 493.278 Q176.204 493.278 178.01 489.736 Q179.839 486.171 179.839 479.065 Q179.839 471.935 178.01 468.394 Q176.204 464.829 172.57 464.829 M172.57 461.125 Q178.38 461.125 181.436 465.732 Q184.514 470.315 184.514 479.065 Q184.514 487.792 181.436 492.398 Q178.38 496.982 172.57 496.982 Q166.76 496.982 163.681 492.398 Q160.626 487.792 160.626 479.065 Q160.626 470.315 163.681 465.732 Q166.76 461.125 172.57 461.125 Z" fill="#000000" fill-rule="nonzero" fill-opacity="1" /><path clip-path="url(#clip180)" d="M202.732 464.829 Q199.121 464.829 197.292 468.394 Q195.487 471.935 195.487 479.065 Q195.487 486.171 197.292 489.736 Q199.121 493.278 202.732 493.278 Q206.366 493.278 208.172 489.736 Q210 486.171 210 479.065 Q210 471.935 208.172 468.394 Q206.366 464.829 202.732 464.829 M202.732 461.125 Q208.542 461.125 211.598 465.732 Q214.676 470.315 214.676 479.065 Q214.676 487.792 211.598 492.398 Q208.542 496.982 202.732 496.982 Q196.922 496.982 193.843 492.398 Q190.788 487.792 190.788 479.065 Q190.788 470.315 193.843 465.732 Q196.922 461.125 202.732 461.125 Z" fill="#000000" fill-rule="nonzero" fill-opacity="1" /><path clip-path="url(#clip180)" d="M223.033 495.593 L223.033 491.333 Q224.792 492.167 226.598 492.607 Q228.403 493.046 230.139 493.046 Q234.769 493.046 237.199 489.945 Q239.653 486.82 240 480.477 Q238.658 482.468 236.597 483.533 Q234.537 484.597 232.037 484.597 Q226.852 484.597 223.82 481.472 Q220.811 478.324 220.811 472.884 Q220.811 467.56 223.959 464.343 Q227.107 461.125 232.338 461.125 Q238.334 461.125 241.482 465.732 Q244.653 470.315 244.653 479.065 Q244.653 487.236 240.764 492.12 Q236.898 496.982 230.347 496.982 Q228.588 496.982 226.783 496.634 Q224.977 496.287 223.033 495.593 M232.338 480.94 Q235.486 480.94 237.315 478.787 Q239.167 476.634 239.167 472.884 Q239.167 469.158 237.315 467.005 Q235.486 464.829 232.338 464.829 Q229.19 464.829 227.338 467.005 Q225.51 469.158 225.51 472.884 Q225.51 476.634 227.338 478.787 Q229.19 480.94 232.338 480.94 Z" fill="#000000" fill-rule="nonzero" fill-opacity="1" /><path clip-path="url(#clip180)" d="M267.222 477.676 Q270.579 478.394 272.454 480.662 Q274.352 482.931 274.352 486.264 Q274.352 491.38 270.833 494.181 Q267.315 496.982 260.833 496.982 Q258.658 496.982 256.343 496.542 Q254.051 496.125 251.597 495.269 L251.597 490.755 Q253.542 491.889 255.857 492.468 Q258.171 493.046 260.695 493.046 Q265.093 493.046 267.384 491.31 Q269.699 489.574 269.699 486.264 Q269.699 483.209 267.546 481.496 Q265.417 479.759 261.597 479.759 L257.57 479.759 L257.57 475.917 L261.783 475.917 Q265.232 475.917 267.06 474.551 Q268.889 473.162 268.889 470.57 Q268.889 467.908 266.991 466.496 Q265.116 465.06 261.597 465.06 Q259.676 465.06 257.477 465.477 Q255.278 465.894 252.639 466.773 L252.639 462.607 Q255.301 461.866 257.616 461.496 Q259.954 461.125 262.014 461.125 Q267.338 461.125 270.44 463.556 Q273.542 465.963 273.542 470.084 Q273.542 472.954 271.898 474.945 Q270.255 476.912 267.222 477.676 Z" fill="#000000" fill-rule="nonzero" fill-opacity="1" /><path clip-path="url(#clip180)" d="M126.529 218.001 Q122.918 218.001 121.089 221.566 Q119.283 225.107 119.283 232.237 Q119.283 239.343 121.089 242.908 Q122.918 246.45 126.529 246.45 Q130.163 246.45 131.968 242.908 Q133.797 239.343 133.797 232.237 Q133.797 225.107 131.968 221.566 Q130.163 218.001 126.529 218.001 M126.529 214.297 Q132.339 214.297 135.394 218.904 Q138.473 223.487 138.473 232.237 Q138.473 240.964 135.394 245.57 Q132.339 250.153 126.529 250.153 Q120.718 250.153 117.64 245.57 Q114.584 240.964 114.584 232.237 Q114.584 223.487 117.64 218.904 Q120.718 214.297 126.529 214.297 Z" fill="#000000" fill-rule="nonzero" fill-opacity="1" /><path clip-path="url(#clip180)" d="M146.691 243.602 L151.575 243.602 L151.575 249.482 L146.691 249.482 L146.691 243.602 Z" fill="#000000" fill-rule="nonzero" fill-opacity="1" /><path clip-path="url(#clip180)" d="M171.76 218.001 Q168.149 218.001 166.32 221.566 Q164.515 225.107 164.515 232.237 Q164.515 239.343 166.32 242.908 Q168.149 246.45 171.76 246.45 Q175.394 246.45 177.2 242.908 Q179.028 239.343 179.028 232.237 Q179.028 225.107 177.2 221.566 Q175.394 218.001 171.76 218.001 M171.76 214.297 Q177.57 214.297 180.626 218.904 Q183.704 223.487 183.704 232.237 Q183.704 240.964 180.626 245.57 Q177.57 250.153 171.76 250.153 Q165.95 250.153 162.871 245.57 Q159.815 240.964 159.815 232.237 Q159.815 223.487 162.871 218.904 Q165.95 214.297 171.76 214.297 Z" fill="#000000" fill-rule="nonzero" fill-opacity="1" /><path clip-path="url(#clip180)" d="M201.922 218.001 Q198.311 218.001 196.482 221.566 Q194.676 225.107 194.676 232.237 Q194.676 239.343 196.482 242.908 Q198.311 246.45 201.922 246.45 Q205.556 246.45 207.362 242.908 Q209.19 239.343 209.19 232.237 Q209.19 225.107 207.362 221.566 Q205.556 218.001 201.922 218.001 M201.922 214.297 Q207.732 214.297 210.787 218.904 Q213.866 223.487 213.866 232.237 Q213.866 240.964 210.787 245.57 Q207.732 250.153 201.922 250.153 Q196.112 250.153 193.033 245.57 Q189.977 240.964 189.977 232.237 Q189.977 223.487 193.033 218.904 Q196.112 214.297 201.922 214.297 Z" fill="#000000" fill-rule="nonzero" fill-opacity="1" /><path clip-path="url(#clip180)" d="M222.223 248.764 L222.223 244.505 Q223.982 245.339 225.787 245.778 Q227.593 246.218 229.329 246.218 Q233.959 246.218 236.389 243.116 Q238.843 239.991 239.19 233.649 Q237.847 235.64 235.787 236.704 Q233.727 237.769 231.227 237.769 Q226.042 237.769 223.01 234.644 Q220 231.496 220 226.056 Q220 220.732 223.148 217.515 Q226.297 214.297 231.528 214.297 Q237.523 214.297 240.672 218.904 Q243.843 223.487 243.843 232.237 Q243.843 240.408 239.954 245.292 Q236.088 250.153 229.537 250.153 Q227.778 250.153 225.973 249.806 Q224.167 249.459 222.223 248.764 M231.528 234.112 Q234.676 234.112 236.505 231.959 Q238.357 229.806 238.357 226.056 Q238.357 222.329 236.505 220.177 Q234.676 218.001 231.528 218.001 Q228.38 218.001 226.528 220.177 Q224.699 222.329 224.699 226.056 Q224.699 229.806 226.528 231.959 Q228.38 234.112 231.528 234.112 Z" fill="#000000" fill-rule="nonzero" fill-opacity="1" /><path clip-path="url(#clip180)" d="M262.824 230.339 Q259.676 230.339 257.824 232.491 Q255.996 234.644 255.996 238.394 Q255.996 242.121 257.824 244.297 Q259.676 246.45 262.824 246.45 Q265.972 246.45 267.801 244.297 Q269.653 242.121 269.653 238.394 Q269.653 234.644 267.801 232.491 Q265.972 230.339 262.824 230.339 M272.107 215.686 L272.107 219.945 Q270.347 219.112 268.542 218.672 Q266.759 218.232 265 218.232 Q260.37 218.232 257.917 221.357 Q255.486 224.482 255.139 230.802 Q256.505 228.788 258.565 227.723 Q260.625 226.635 263.102 226.635 Q268.31 226.635 271.32 229.806 Q274.352 232.954 274.352 238.394 Q274.352 243.718 271.204 246.936 Q268.056 250.153 262.824 250.153 Q256.829 250.153 253.658 245.57 Q250.486 240.964 250.486 232.237 Q250.486 224.042 254.375 219.181 Q258.264 214.297 264.815 214.297 Q266.574 214.297 268.357 214.644 Q270.162 214.991 272.107 215.686 Z" fill="#000000" fill-rule="nonzero" fill-opacity="1" /><path clip-path="url(#clip180)" d="M33.7671 788.508 L14.479 788.508 L14.479 782.652 L64.0042 782.652 L64.0042 788.508 L58.657 788.508 Q61.8398 790.354 63.3994 793.187 Q64.9272 795.988 64.9272 799.935 Q64.9272 806.396 59.771 810.47 Q54.6147 814.512 46.212 814.512 Q37.8093 814.512 32.6531 810.47 Q27.4968 806.396 27.4968 799.935 Q27.4968 795.988 29.0564 793.187 Q30.5842 790.354 33.7671 788.508 M46.212 808.465 Q52.6732 808.465 56.3653 805.823 Q60.0256 803.149 60.0256 798.502 Q60.0256 793.855 56.3653 791.182 Q52.6732 788.508 46.212 788.508 Q39.7508 788.508 36.0905 791.182 Q32.3984 793.855 32.3984 798.502 Q32.3984 803.149 36.0905 805.823 Q39.7508 808.465 46.212 808.465 Z" fill="#000000" fill-rule="nonzero" fill-opacity="1" /><path clip-path="url(#clip180)" d="M74.8259 743.503 L79.3773 743.503 L79.3773 777.368 L74.8259 777.368 L74.8259 743.503 Z" fill="#000000" fill-rule="nonzero" fill-opacity="1" /><path clip-path="url(#clip180)" d="M28.3562 737.996 L28.3562 732.14 L64.0042 732.14 L64.0042 737.996 L28.3562 737.996 M14.479 737.996 L14.479 732.14 L21.895 732.14 L21.895 737.996 L14.479 737.996 Z" fill="#000000" fill-rule="nonzero" fill-opacity="1" /><path clip-path="url(#clip180)" d="M1031.48 12.096 L1066.24 12.096 L1066.24 18.9825 L1039.67 18.9825 L1039.67 36.8065 L1063.65 36.8065 L1063.65 43.6931 L1039.67 43.6931 L1039.67 72.576 L1031.48 72.576 L1031.48 12.096 Z" fill="#000000" fill-rule="nonzero" fill-opacity="1" /><path clip-path="url(#clip180)" d="M1072.84 27.2059 L1080.3 27.2059 L1080.3 72.576 L1072.84 72.576 L1072.84 27.2059 M1072.84 9.54393 L1080.3 9.54393 L1080.3 18.9825 L1072.84 18.9825 L1072.84 9.54393 Z" fill="#000000" fill-rule="nonzero" fill-opacity="1" /><path clip-path="url(#clip180)" d="M1133.61 45.1919 L1133.61 72.576 L1126.15 72.576 L1126.15 45.4349 Q1126.15 38.994 1123.64 35.7938 Q1121.13 32.5936 1116.11 32.5936 Q1110.07 32.5936 1106.59 36.4419 Q1103.1 40.2903 1103.1 46.9338 L1103.1 72.576 L1095.61 72.576 L1095.61 27.2059 L1103.1 27.2059 L1103.1 34.2544 Q1105.78 30.163 1109.38 28.1376 Q1113.03 26.1121 1117.77 26.1121 Q1125.59 26.1121 1129.6 30.9732 Q1133.61 35.7938 1133.61 45.1919 Z" fill="#000000" fill-rule="nonzero" fill-opacity="1" /><path clip-path="url(#clip180)" d="M1169.09 49.7694 Q1160.06 49.7694 1156.58 51.8354 Q1153.09 53.9013 1153.09 58.8839 Q1153.09 62.8538 1155.68 65.2034 Q1158.32 67.5124 1162.81 67.5124 Q1169.01 67.5124 1172.74 63.1374 Q1176.51 58.7219 1176.51 51.4303 L1176.51 49.7694 L1169.09 49.7694 M1183.96 46.6907 L1183.96 72.576 L1176.51 72.576 L1176.51 65.6895 Q1173.95 69.8214 1170.15 71.8063 Q1166.34 73.7508 1160.83 73.7508 Q1153.86 73.7508 1149.73 69.8619 Q1145.64 65.9325 1145.64 59.3701 Q1145.64 51.7138 1150.74 47.825 Q1155.89 43.9361 1166.05 43.9361 L1176.51 43.9361 L1176.51 43.2069 Q1176.51 38.0623 1173.1 35.2672 Q1169.74 32.4315 1163.62 32.4315 Q1159.73 32.4315 1156.05 33.3632 Q1152.36 34.295 1148.96 36.1584 L1148.96 29.2718 Q1153.05 27.692 1156.9 26.9223 Q1160.75 26.1121 1164.39 26.1121 Q1174.24 26.1121 1179.1 31.2163 Q1183.96 36.3204 1183.96 46.6907 Z" fill="#000000" fill-rule="nonzero" fill-opacity="1" /><path clip-path="url(#clip180)" d="M1199.31 9.54393 L1206.77 9.54393 L1206.77 72.576 L1199.31 72.576 L1199.31 9.54393 Z" fill="#000000" fill-rule="nonzero" fill-opacity="1" /><path clip-path="url(#clip180)" d="M1278.59 34.0924 L1278.59 9.54393 L1286.04 9.54393 L1286.04 72.576 L1278.59 72.576 L1278.59 65.7705 Q1276.24 69.8214 1272.63 71.8063 Q1269.07 73.7508 1264.05 73.7508 Q1255.82 73.7508 1250.64 67.1883 Q1245.49 60.6258 1245.49 49.9314 Q1245.49 39.2371 1250.64 32.6746 Q1255.82 26.1121 1264.05 26.1121 Q1269.07 26.1121 1272.63 28.0971 Q1276.24 30.0415 1278.59 34.0924 M1253.19 49.9314 Q1253.19 58.1548 1256.55 62.8538 Q1259.95 67.5124 1265.87 67.5124 Q1271.78 67.5124 1275.19 62.8538 Q1278.59 58.1548 1278.59 49.9314 Q1278.59 41.7081 1275.19 37.0496 Q1271.78 32.3505 1265.87 32.3505 Q1259.95 32.3505 1256.55 37.0496 Q1253.19 41.7081 1253.19 49.9314 Z" fill="#000000" fill-rule="nonzero" fill-opacity="1" /><path clip-path="url(#clip180)" d="M1301.39 27.2059 L1308.85 27.2059 L1308.85 72.576 L1301.39 72.576 L1301.39 27.2059 M1301.39 9.54393 L1308.85 9.54393 L1308.85 18.9825 L1301.39 18.9825 L1301.39 9.54393 Z" fill="#000000" fill-rule="nonzero" fill-opacity="1" /><path clip-path="url(#clip180)" d="M1353.37 28.5427 L1353.37 35.5912 Q1350.21 33.9709 1346.81 33.1607 Q1343.4 32.3505 1339.76 32.3505 Q1334.21 32.3505 1331.41 34.0519 Q1328.66 35.7533 1328.66 39.156 Q1328.66 41.7486 1330.64 43.2475 Q1332.63 44.7058 1338.62 46.0426 L1341.17 46.6097 Q1349.11 48.3111 1352.44 51.4303 Q1355.8 54.509 1355.8 60.0587 Q1355.8 66.3781 1350.78 70.0644 Q1345.79 73.7508 1337.04 73.7508 Q1333.4 73.7508 1329.43 73.0216 Q1325.5 72.3329 1321.12 70.9151 L1321.12 63.2184 Q1325.25 65.3654 1329.27 66.4591 Q1333.28 67.5124 1337.2 67.5124 Q1342.47 67.5124 1345.31 65.73 Q1348.14 63.9071 1348.14 60.6258 Q1348.14 57.5877 1346.08 55.9673 Q1344.05 54.3469 1337.12 52.8481 L1334.53 52.2405 Q1327.6 50.7821 1324.53 47.7845 Q1321.45 44.7463 1321.45 39.4801 Q1321.45 33.0797 1325.98 29.5959 Q1330.52 26.1121 1338.87 26.1121 Q1343 26.1121 1346.64 26.7198 Q1350.29 27.3274 1353.37 28.5427 Z" fill="#000000" fill-rule="nonzero" fill-opacity="1" /><path clip-path="url(#clip180)" d="M1375.04 14.324 L1375.04 27.2059 L1390.39 27.2059 L1390.39 32.9987 L1375.04 32.9987 L1375.04 57.6282 Q1375.04 63.1779 1376.54 64.7578 Q1378.08 66.3376 1382.74 66.3376 L1390.39 66.3376 L1390.39 72.576 L1382.74 72.576 Q1374.11 72.576 1370.83 69.3758 Q1367.55 66.1351 1367.55 57.6282 L1367.55 32.9987 L1362.08 32.9987 L1362.08 27.2059 L1367.55 27.2059 L1367.55 14.324 L1375.04 14.324 Z" fill="#000000" fill-rule="nonzero" fill-opacity="1" /><path clip-path="url(#clip180)" d="M1420.82 49.7694 Q1411.78 49.7694 1408.3 51.8354 Q1404.81 53.9013 1404.81 58.8839 Q1404.81 62.8538 1407.41 65.2034 Q1410.04 67.5124 1414.54 67.5124 Q1420.73 67.5124 1424.46 63.1374 Q1428.23 58.7219 1428.23 51.4303 L1428.23 49.7694 L1420.82 49.7694 M1435.68 46.6907 L1435.68 72.576 L1428.23 72.576 L1428.23 65.6895 Q1425.68 69.8214 1421.87 71.8063 Q1418.06 73.7508 1412.55 73.7508 Q1405.58 73.7508 1401.45 69.8619 Q1397.36 65.9325 1397.36 59.3701 Q1397.36 51.7138 1402.46 47.825 Q1407.61 43.9361 1417.78 43.9361 L1428.23 43.9361 L1428.23 43.2069 Q1428.23 38.0623 1424.83 35.2672 Q1421.46 32.4315 1415.35 32.4315 Q1411.46 32.4315 1407.77 33.3632 Q1404.09 34.295 1400.68 36.1584 L1400.68 29.2718 Q1404.77 27.692 1408.62 26.9223 Q1412.47 26.1121 1416.12 26.1121 Q1425.96 26.1121 1430.82 31.2163 Q1435.68 36.3204 1435.68 46.6907 Z" fill="#000000" fill-rule="nonzero" fill-opacity="1" /><path clip-path="url(#clip180)" d="M1488.75 45.1919 L1488.75 72.576 L1481.3 72.576 L1481.3 45.4349 Q1481.3 38.994 1478.78 35.7938 Q1476.27 32.5936 1471.25 32.5936 Q1465.21 32.5936 1461.73 36.4419 Q1458.25 40.2903 1458.25 46.9338 L1458.25 72.576 L1450.75 72.576 L1450.75 27.2059 L1458.25 27.2059 L1458.25 34.2544 Q1460.92 30.163 1464.52 28.1376 Q1468.17 26.1121 1472.91 26.1121 Q1480.73 26.1121 1484.74 30.9732 Q1488.75 35.7938 1488.75 45.1919 Z" fill="#000000" fill-rule="nonzero" fill-opacity="1" /><path clip-path="url(#clip180)" d="M1536.27 28.9478 L1536.27 35.9153 Q1533.11 34.1734 1529.91 33.3227 Q1526.75 32.4315 1523.51 32.4315 Q1516.25 32.4315 1512.24 37.0496 Q1508.23 41.6271 1508.23 49.9314 Q1508.23 58.2358 1512.24 62.8538 Q1516.25 67.4314 1523.51 67.4314 Q1526.75 67.4314 1529.91 66.5807 Q1533.11 65.6895 1536.27 63.9476 L1536.27 70.8341 Q1533.15 72.2924 1529.78 73.0216 Q1526.46 73.7508 1522.7 73.7508 Q1512.45 73.7508 1506.41 67.3098 Q1500.38 60.8689 1500.38 49.9314 Q1500.38 38.832 1506.45 32.472 Q1512.57 26.1121 1523.18 26.1121 Q1526.63 26.1121 1529.91 26.8413 Q1533.19 27.5299 1536.27 28.9478 Z" fill="#000000" fill-rule="nonzero" fill-opacity="1" /><path clip-path="url(#clip180)" d="M1588.04 48.0275 L1588.04 51.6733 L1553.77 51.6733 Q1554.25 59.3701 1558.38 63.421 Q1562.56 67.4314 1569.97 67.4314 Q1574.26 67.4314 1578.27 66.3781 Q1582.33 65.3249 1586.3 63.2184 L1586.3 70.267 Q1582.28 71.9684 1578.07 72.8596 Q1573.86 73.7508 1569.52 73.7508 Q1558.67 73.7508 1552.31 67.4314 Q1545.99 61.1119 1545.99 50.3365 Q1545.99 39.1965 1551.98 32.6746 Q1558.02 26.1121 1568.23 26.1121 Q1577.38 26.1121 1582.69 32.0264 Q1588.04 37.9003 1588.04 48.0275 M1580.58 45.84 Q1580.5 39.7232 1577.14 36.0774 Q1573.82 32.4315 1568.31 32.4315 Q1562.07 32.4315 1558.3 35.9558 Q1554.58 39.4801 1554.01 45.8805 L1580.58 45.84 Z" fill="#000000" fill-rule="nonzero" fill-opacity="1" /><path clip-path="url(#clip180)" d="M1629.19 28.5427 L1629.19 35.5912 Q1626.03 33.9709 1622.63 33.1607 Q1619.23 32.3505 1615.58 32.3505 Q1610.03 32.3505 1607.24 34.0519 Q1604.48 35.7533 1604.48 39.156 Q1604.48 41.7486 1606.47 43.2475 Q1608.45 44.7058 1614.45 46.0426 L1617 46.6097 Q1624.94 48.3111 1628.26 51.4303 Q1631.62 54.509 1631.62 60.0587 Q1631.62 66.3781 1626.6 70.0644 Q1621.62 73.7508 1612.87 73.7508 Q1609.22 73.7508 1605.25 73.0216 Q1601.32 72.3329 1596.95 70.9151 L1596.95 63.2184 Q1601.08 65.3654 1605.09 66.4591 Q1609.1 67.5124 1613.03 67.5124 Q1618.3 67.5124 1621.13 65.73 Q1623.97 63.9071 1623.97 60.6258 Q1623.97 57.5877 1621.9 55.9673 Q1619.88 54.3469 1612.95 52.8481 L1610.36 52.2405 Q1603.43 50.7821 1600.35 47.7845 Q1597.27 44.7463 1597.27 39.4801 Q1597.27 33.0797 1601.81 29.5959 Q1606.35 26.1121 1614.69 26.1121 Q1618.82 26.1121 1622.47 26.7198 Q1626.12 27.3274 1629.19 28.5427 Z" fill="#000000" fill-rule="nonzero" fill-opacity="1" /><circle clip-path="url(#clip182)" cx="368.156" cy="1386.4" r="14.4" fill="#009af9" fill-rule="evenodd" fill-opacity="1" stroke="#000000" stroke-opacity="1" stroke-width="3.2"/>
<circle clip-path="url(#clip182)" cx="643.412" cy="431.465" r="14.4" fill="#009af9" fill-rule="evenodd" fill-opacity="1" stroke="#000000" stroke-opacity="1" stroke-width="3.2"/>
<circle clip-path="url(#clip182)" cx="918.669" cy="348.21" r="14.4" fill="#009af9" fill-rule="evenodd" fill-opacity="1" stroke="#000000" stroke-opacity="1" stroke-width="3.2"/>
<circle clip-path="url(#clip182)" cx="1193.93" cy="299.578" r="14.4" fill="#009af9" fill-rule="evenodd" fill-opacity="1" stroke="#000000" stroke-opacity="1" stroke-width="3.2"/>
<circle clip-path="url(#clip182)" cx="1469.18" cy="160.256" r="14.4" fill="#009af9" fill-rule="evenodd" fill-opacity="1" stroke="#000000" stroke-opacity="1" stroke-width="3.2"/>
<circle clip-path="url(#clip182)" cx="1744.44" cy="309.054" r="14.4" fill="#009af9" fill-rule="evenodd" fill-opacity="1" stroke="#000000" stroke-opacity="1" stroke-width="3.2"/>
<circle clip-path="url(#clip182)" cx="2019.7" cy="972.965" r="14.4" fill="#009af9" fill-rule="evenodd" fill-opacity="1" stroke="#000000" stroke-opacity="1" stroke-width="3.2"/>
<circle clip-path="url(#clip182)" cx="2294.95" cy="650.419" r="14.4" fill="#009af9" fill-rule="evenodd" fill-opacity="1" stroke="#000000" stroke-opacity="1" stroke-width="3.2"/>
</svg>
