<?xml version="1.0" encoding="utf-8"?>
<svg xmlns="http://www.w3.org/2000/svg" xmlns:xlink="http://www.w3.org/1999/xlink" width="600" height="400" viewBox="0 0 2400 1600">
<defs>
  <clipPath id="clip510">
    <rect x="0" y="0" width="2400" height="1600"/>
  </clipPath>
</defs>
<path clip-path="url(#clip510)" d="M0 1600 L2400 1600 L2400 0 L0 0  Z" fill="#ffffff" fill-rule="evenodd" fill-opacity="1"/>
<defs>
  <clipPath id="clip511">
    <rect x="480" y="0" width="1681" height="1600"/>
  </clipPath>
</defs>
<path clip-path="url(#clip510)" d="M234.125 1423.18 L2352.76 1423.18 L2352.76 47.2441 L234.125 47.2441  Z" fill="#ffffff" fill-rule="evenodd" fill-opacity="1"/>
<defs>
  <clipPath id="clip512">
    <rect x="234" y="47" width="2120" height="1377"/>
  </clipPath>
</defs>
<polyline clip-path="url(#clip512)" style="stroke:#000000; stroke-linecap:round; stroke-linejoin:round; stroke-width:2; stroke-opacity:0.1; fill:none" points="493.957,1423.18 493.957,47.2441 "/>
<polyline clip-path="url(#clip512)" style="stroke:#000000; stroke-linecap:round; stroke-linejoin:round; stroke-width:2; stroke-opacity:0.1; fill:none" points="893.699,1423.18 893.699,47.2441 "/>
<polyline clip-path="url(#clip512)" style="stroke:#000000; stroke-linecap:round; stroke-linejoin:round; stroke-width:2; stroke-opacity:0.1; fill:none" points="1293.44,1423.18 1293.44,47.2441 "/>
<polyline clip-path="url(#clip512)" style="stroke:#000000; stroke-linecap:round; stroke-linejoin:round; stroke-width:2; stroke-opacity:0.1; fill:none" points="1693.18,1423.18 1693.18,47.2441 "/>
<polyline clip-path="url(#clip512)" style="stroke:#000000; stroke-linecap:round; stroke-linejoin:round; stroke-width:2; stroke-opacity:0.1; fill:none" points="2092.92,1423.18 2092.92,47.2441 "/>
<polyline clip-path="url(#clip512)" style="stroke:#000000; stroke-linecap:round; stroke-linejoin:round; stroke-width:2; stroke-opacity:0.1; fill:none" points="234.125,1138.23 2352.76,1138.23 "/>
<polyline clip-path="url(#clip512)" style="stroke:#000000; stroke-linecap:round; stroke-linejoin:round; stroke-width:2; stroke-opacity:0.1; fill:none" points="234.125,852.47 2352.76,852.47 "/>
<polyline clip-path="url(#clip512)" style="stroke:#000000; stroke-linecap:round; stroke-linejoin:round; stroke-width:2; stroke-opacity:0.1; fill:none" points="234.125,566.705 2352.76,566.705 "/>
<polyline clip-path="url(#clip512)" style="stroke:#000000; stroke-linecap:round; stroke-linejoin:round; stroke-width:2; stroke-opacity:0.1; fill:none" points="234.125,280.94 2352.76,280.94 "/>
<polyline clip-path="url(#clip510)" style="stroke:#000000; stroke-linecap:round; stroke-linejoin:round; stroke-width:4; stroke-opacity:1; fill:none" points="234.125,1423.18 2352.76,1423.18 "/>
<polyline clip-path="url(#clip510)" style="stroke:#000000; stroke-linecap:round; stroke-linejoin:round; stroke-width:4; stroke-opacity:1; fill:none" points="493.957,1423.18 493.957,1404.28 "/>
<polyline clip-path="url(#clip510)" style="stroke:#000000; stroke-linecap:round; stroke-linejoin:round; stroke-width:4; stroke-opacity:1; fill:none" points="893.699,1423.18 893.699,1404.28 "/>
<polyline clip-path="url(#clip510)" style="stroke:#000000; stroke-linecap:round; stroke-linejoin:round; stroke-width:4; stroke-opacity:1; fill:none" points="1293.44,1423.18 1293.44,1404.28 "/>
<polyline clip-path="url(#clip510)" style="stroke:#000000; stroke-linecap:round; stroke-linejoin:round; stroke-width:4; stroke-opacity:1; fill:none" points="1693.18,1423.18 1693.18,1404.28 "/>
<polyline clip-path="url(#clip510)" style="stroke:#000000; stroke-linecap:round; stroke-linejoin:round; stroke-width:4; stroke-opacity:1; fill:none" points="2092.92,1423.18 2092.92,1404.28 "/>
<path clip-path="url(#clip510)" d="M450.034 1481.64 L466.353 1481.64 L466.353 1485.58 L444.409 1485.58 L444.409 1481.64 Q447.071 1478.89 451.654 1474.26 Q456.261 1469.61 457.441 1468.27 Q459.687 1465.74 460.566 1464.01 Q461.469 1462.25 461.469 1460.56 Q461.469 1457.8 459.525 1456.07 Q457.604 1454.33 454.502 1454.33 Q452.303 1454.33 449.849 1455.09 Q447.418 1455.86 444.641 1457.41 L444.641 1452.69 Q447.465 1451.55 449.918 1450.97 Q452.372 1450.39 454.409 1450.39 Q459.779 1450.39 462.974 1453.08 Q466.168 1455.77 466.168 1460.26 Q466.168 1462.39 465.358 1464.31 Q464.571 1466.2 462.465 1468.8 Q461.886 1469.47 458.784 1472.69 Q455.682 1475.88 450.034 1481.64 Z" fill="#000000" fill-rule="nonzero" fill-opacity="1" /><path clip-path="url(#clip510)" d="M486.747 1466.44 Q483.599 1466.44 481.747 1468.59 Q479.918 1470.74 479.918 1474.49 Q479.918 1478.22 481.747 1480.39 Q483.599 1482.55 486.747 1482.55 Q489.895 1482.55 491.724 1480.39 Q493.576 1478.22 493.576 1474.49 Q493.576 1470.74 491.724 1468.59 Q489.895 1466.44 486.747 1466.44 M496.029 1451.78 L496.029 1456.04 Q494.27 1455.21 492.464 1454.77 Q490.682 1454.33 488.923 1454.33 Q484.293 1454.33 481.839 1457.45 Q479.409 1460.58 479.062 1466.9 Q480.427 1464.89 482.488 1463.82 Q484.548 1462.73 487.025 1462.73 Q492.233 1462.73 495.242 1465.9 Q498.275 1469.05 498.275 1474.49 Q498.275 1479.82 495.126 1483.03 Q491.978 1486.25 486.747 1486.25 Q480.752 1486.25 477.58 1481.67 Q474.409 1477.06 474.409 1468.33 Q474.409 1460.14 478.298 1455.28 Q482.187 1450.39 488.738 1450.39 Q490.497 1450.39 492.279 1450.74 Q494.085 1451.09 496.029 1451.78 Z" fill="#000000" fill-rule="nonzero" fill-opacity="1" /><path clip-path="url(#clip510)" d="M506.33 1479.7 L511.214 1479.7 L511.214 1485.58 L506.33 1485.58 L506.33 1479.7 Z" fill="#000000" fill-rule="nonzero" fill-opacity="1" /><path clip-path="url(#clip510)" d="M531.978 1466.44 Q528.83 1466.44 526.978 1468.59 Q525.149 1470.74 525.149 1474.49 Q525.149 1478.22 526.978 1480.39 Q528.83 1482.55 531.978 1482.55 Q535.126 1482.55 536.955 1480.39 Q538.807 1478.22 538.807 1474.49 Q538.807 1470.74 536.955 1468.59 Q535.126 1466.44 531.978 1466.44 M541.26 1451.78 L541.26 1456.04 Q539.501 1455.21 537.696 1454.77 Q535.913 1454.33 534.154 1454.33 Q529.524 1454.33 527.071 1457.45 Q524.64 1460.58 524.293 1466.9 Q525.659 1464.89 527.719 1463.82 Q529.779 1462.73 532.256 1462.73 Q537.464 1462.73 540.473 1465.9 Q543.506 1469.05 543.506 1474.49 Q543.506 1479.82 540.358 1483.03 Q537.21 1486.25 531.978 1486.25 Q525.983 1486.25 522.811 1481.67 Q519.64 1477.06 519.64 1468.33 Q519.64 1460.14 523.529 1455.28 Q527.418 1450.39 533.969 1450.39 Q535.728 1450.39 537.51 1450.74 Q539.316 1451.09 541.26 1451.78 Z" fill="#000000" fill-rule="nonzero" fill-opacity="1" /><path clip-path="url(#clip510)" d="M849.903 1481.64 L866.222 1481.64 L866.222 1485.58 L844.278 1485.58 L844.278 1481.64 Q846.94 1478.89 851.523 1474.26 Q856.13 1469.61 857.31 1468.27 Q859.556 1465.74 860.435 1464.01 Q861.338 1462.25 861.338 1460.56 Q861.338 1457.8 859.394 1456.07 Q857.472 1454.33 854.371 1454.33 Q852.172 1454.33 849.718 1455.09 Q847.287 1455.86 844.51 1457.41 L844.51 1452.69 Q847.334 1451.55 849.787 1450.97 Q852.241 1450.39 854.278 1450.39 Q859.648 1450.39 862.843 1453.08 Q866.037 1455.77 866.037 1460.26 Q866.037 1462.39 865.227 1464.31 Q864.44 1466.2 862.334 1468.8 Q861.755 1469.47 858.653 1472.69 Q855.551 1475.88 849.903 1481.64 Z" fill="#000000" fill-rule="nonzero" fill-opacity="1" /><path clip-path="url(#clip510)" d="M886.616 1466.44 Q883.468 1466.44 881.616 1468.59 Q879.787 1470.74 879.787 1474.49 Q879.787 1478.22 881.616 1480.39 Q883.468 1482.55 886.616 1482.55 Q889.764 1482.55 891.593 1480.39 Q893.444 1478.22 893.444 1474.49 Q893.444 1470.74 891.593 1468.59 Q889.764 1466.44 886.616 1466.44 M895.898 1451.78 L895.898 1456.04 Q894.139 1455.21 892.333 1454.77 Q890.551 1454.33 888.792 1454.33 Q884.162 1454.33 881.708 1457.45 Q879.278 1460.58 878.931 1466.9 Q880.296 1464.89 882.357 1463.82 Q884.417 1462.73 886.894 1462.73 Q892.102 1462.73 895.111 1465.9 Q898.144 1469.05 898.144 1474.49 Q898.144 1479.82 894.995 1483.03 Q891.847 1486.25 886.616 1486.25 Q880.62 1486.25 877.449 1481.67 Q874.278 1477.06 874.278 1468.33 Q874.278 1460.14 878.167 1455.28 Q882.056 1450.39 888.607 1450.39 Q890.366 1450.39 892.148 1450.74 Q893.954 1451.09 895.898 1451.78 Z" fill="#000000" fill-rule="nonzero" fill-opacity="1" /><path clip-path="url(#clip510)" d="M906.199 1479.7 L911.083 1479.7 L911.083 1485.58 L906.199 1485.58 L906.199 1479.7 Z" fill="#000000" fill-rule="nonzero" fill-opacity="1" /><path clip-path="url(#clip510)" d="M931.268 1469.17 Q927.935 1469.17 926.014 1470.95 Q924.116 1472.73 924.116 1475.86 Q924.116 1478.98 926.014 1480.77 Q927.935 1482.55 931.268 1482.55 Q934.602 1482.55 936.523 1480.77 Q938.444 1478.96 938.444 1475.86 Q938.444 1472.73 936.523 1470.95 Q934.625 1469.17 931.268 1469.17 M926.592 1467.18 Q923.583 1466.44 921.893 1464.38 Q920.227 1462.32 920.227 1459.35 Q920.227 1455.21 923.167 1452.8 Q926.129 1450.39 931.268 1450.39 Q936.43 1450.39 939.37 1452.8 Q942.31 1455.21 942.31 1459.35 Q942.31 1462.32 940.62 1464.38 Q938.953 1466.44 935.967 1467.18 Q939.347 1467.96 941.222 1470.26 Q943.12 1472.55 943.12 1475.86 Q943.12 1480.88 940.041 1483.57 Q936.986 1486.25 931.268 1486.25 Q925.551 1486.25 922.472 1483.57 Q919.417 1480.88 919.417 1475.86 Q919.417 1472.55 921.315 1470.26 Q923.213 1467.96 926.592 1467.18 M924.879 1459.79 Q924.879 1462.48 926.546 1463.98 Q928.236 1465.49 931.268 1465.49 Q934.278 1465.49 935.967 1463.98 Q937.68 1462.48 937.68 1459.79 Q937.68 1457.11 935.967 1455.6 Q934.278 1454.1 931.268 1454.1 Q928.236 1454.1 926.546 1455.6 Q924.879 1457.11 924.879 1459.79 Z" fill="#000000" fill-rule="nonzero" fill-opacity="1" /><path clip-path="url(#clip510)" d="M1249.6 1481.64 L1265.92 1481.64 L1265.92 1485.58 L1243.97 1485.58 L1243.97 1481.64 Q1246.64 1478.89 1251.22 1474.26 Q1255.83 1469.61 1257.01 1468.27 Q1259.25 1465.74 1260.13 1464.01 Q1261.03 1462.25 1261.03 1460.56 Q1261.03 1457.8 1259.09 1456.07 Q1257.17 1454.33 1254.07 1454.33 Q1251.87 1454.33 1249.41 1455.09 Q1246.98 1455.86 1244.2 1457.41 L1244.2 1452.69 Q1247.03 1451.55 1249.48 1450.97 Q1251.94 1450.39 1253.97 1450.39 Q1259.34 1450.39 1262.54 1453.08 Q1265.73 1455.77 1265.73 1460.26 Q1265.73 1462.39 1264.92 1464.31 Q1264.14 1466.2 1262.03 1468.8 Q1261.45 1469.47 1258.35 1472.69 Q1255.25 1475.88 1249.6 1481.64 Z" fill="#000000" fill-rule="nonzero" fill-opacity="1" /><path clip-path="url(#clip510)" d="M1274.55 1451.02 L1296.77 1451.02 L1296.77 1453.01 L1284.23 1485.58 L1279.34 1485.58 L1291.15 1454.96 L1274.55 1454.96 L1274.55 1451.02 Z" fill="#000000" fill-rule="nonzero" fill-opacity="1" /><path clip-path="url(#clip510)" d="M1305.89 1479.7 L1310.78 1479.7 L1310.78 1485.58 L1305.89 1485.58 L1305.89 1479.7 Z" fill="#000000" fill-rule="nonzero" fill-opacity="1" /><path clip-path="url(#clip510)" d="M1330.96 1454.1 Q1327.35 1454.1 1325.52 1457.66 Q1323.72 1461.2 1323.72 1468.33 Q1323.72 1475.44 1325.52 1479.01 Q1327.35 1482.55 1330.96 1482.55 Q1334.6 1482.55 1336.4 1479.01 Q1338.23 1475.44 1338.23 1468.33 Q1338.23 1461.2 1336.4 1457.66 Q1334.6 1454.1 1330.96 1454.1 M1330.96 1450.39 Q1336.77 1450.39 1339.83 1455 Q1342.91 1459.58 1342.91 1468.33 Q1342.91 1477.06 1339.83 1481.67 Q1336.77 1486.25 1330.96 1486.25 Q1325.15 1486.25 1322.07 1481.67 Q1319.02 1477.06 1319.02 1468.33 Q1319.02 1459.58 1322.07 1455 Q1325.15 1450.39 1330.96 1450.39 Z" fill="#000000" fill-rule="nonzero" fill-opacity="1" /><path clip-path="url(#clip510)" d="M1650.14 1481.64 L1666.46 1481.64 L1666.46 1485.58 L1644.51 1485.58 L1644.51 1481.64 Q1647.18 1478.89 1651.76 1474.26 Q1656.37 1469.61 1657.55 1468.27 Q1659.79 1465.74 1660.67 1464.01 Q1661.57 1462.25 1661.57 1460.56 Q1661.57 1457.8 1659.63 1456.07 Q1657.71 1454.33 1654.61 1454.33 Q1652.41 1454.33 1649.95 1455.09 Q1647.52 1455.86 1644.75 1457.41 L1644.75 1452.69 Q1647.57 1451.55 1650.02 1450.97 Q1652.48 1450.39 1654.51 1450.39 Q1659.88 1450.39 1663.08 1453.08 Q1666.27 1455.77 1666.27 1460.26 Q1666.27 1462.39 1665.46 1464.31 Q1664.68 1466.2 1662.57 1468.8 Q1661.99 1469.47 1658.89 1472.69 Q1655.79 1475.88 1650.14 1481.64 Z" fill="#000000" fill-rule="nonzero" fill-opacity="1" /><path clip-path="url(#clip510)" d="M1675.09 1451.02 L1697.31 1451.02 L1697.31 1453.01 L1684.77 1485.58 L1679.88 1485.58 L1691.69 1454.96 L1675.09 1454.96 L1675.09 1451.02 Z" fill="#000000" fill-rule="nonzero" fill-opacity="1" /><path clip-path="url(#clip510)" d="M1706.43 1479.7 L1711.32 1479.7 L1711.32 1485.58 L1706.43 1485.58 L1706.43 1479.7 Z" fill="#000000" fill-rule="nonzero" fill-opacity="1" /><path clip-path="url(#clip510)" d="M1725.53 1481.64 L1741.85 1481.64 L1741.85 1485.58 L1719.91 1485.58 L1719.91 1481.64 Q1722.57 1478.89 1727.15 1474.26 Q1731.76 1469.61 1732.94 1468.27 Q1735.18 1465.74 1736.06 1464.01 Q1736.97 1462.25 1736.97 1460.56 Q1736.97 1457.8 1735.02 1456.07 Q1733.1 1454.33 1730 1454.33 Q1727.8 1454.33 1725.35 1455.09 Q1722.92 1455.86 1720.14 1457.41 L1720.14 1452.69 Q1722.96 1451.55 1725.42 1450.97 Q1727.87 1450.39 1729.91 1450.39 Q1735.28 1450.39 1738.47 1453.08 Q1741.67 1455.77 1741.67 1460.26 Q1741.67 1462.39 1740.86 1464.31 Q1740.07 1466.2 1737.96 1468.8 Q1737.38 1469.47 1734.28 1472.69 Q1731.18 1475.88 1725.53 1481.64 Z" fill="#000000" fill-rule="nonzero" fill-opacity="1" /><path clip-path="url(#clip510)" d="M2048.84 1481.64 L2065.16 1481.64 L2065.16 1485.58 L2043.21 1485.58 L2043.21 1481.64 Q2045.88 1478.89 2050.46 1474.26 Q2055.07 1469.61 2056.25 1468.27 Q2058.49 1465.74 2059.37 1464.01 Q2060.27 1462.25 2060.27 1460.56 Q2060.27 1457.8 2058.33 1456.07 Q2056.41 1454.33 2053.31 1454.33 Q2051.11 1454.33 2048.65 1455.09 Q2046.22 1455.86 2043.44 1457.41 L2043.44 1452.69 Q2046.27 1451.55 2048.72 1450.97 Q2051.18 1450.39 2053.21 1450.39 Q2058.58 1450.39 2061.78 1453.08 Q2064.97 1455.77 2064.97 1460.26 Q2064.97 1462.39 2064.16 1464.31 Q2063.38 1466.2 2061.27 1468.8 Q2060.69 1469.47 2057.59 1472.69 Q2054.49 1475.88 2048.84 1481.64 Z" fill="#000000" fill-rule="nonzero" fill-opacity="1" /><path clip-path="url(#clip510)" d="M2073.79 1451.02 L2096.01 1451.02 L2096.01 1453.01 L2083.47 1485.58 L2078.58 1485.58 L2090.39 1454.96 L2073.79 1454.96 L2073.79 1451.02 Z" fill="#000000" fill-rule="nonzero" fill-opacity="1" /><path clip-path="url(#clip510)" d="M2105.13 1479.7 L2110.02 1479.7 L2110.02 1485.58 L2105.13 1485.58 L2105.13 1479.7 Z" fill="#000000" fill-rule="nonzero" fill-opacity="1" /><path clip-path="url(#clip510)" d="M2133.05 1455.09 L2121.25 1473.54 L2133.05 1473.54 L2133.05 1455.09 M2131.82 1451.02 L2137.7 1451.02 L2137.7 1473.54 L2142.63 1473.54 L2142.63 1477.43 L2137.7 1477.43 L2137.7 1485.58 L2133.05 1485.58 L2133.05 1477.43 L2117.45 1477.43 L2117.45 1472.92 L2131.82 1451.02 Z" fill="#000000" fill-rule="nonzero" fill-opacity="1" /><path clip-path="url(#clip510)" d="M1001.6 1520.52 L1028.91 1520.52 L1028.91 1525.93 L1008.03 1525.93 L1008.03 1539.94 L1026.88 1539.94 L1026.88 1545.35 L1008.03 1545.35 L1008.03 1568.04 L1001.6 1568.04 L1001.6 1520.52 Z" fill="#000000" fill-rule="nonzero" fill-opacity="1" /><path clip-path="url(#clip510)" d="M1054.76 1537.87 Q1053.77 1537.3 1052.59 1537.04 Q1051.45 1536.76 1050.05 1536.76 Q1045.08 1536.76 1042.41 1540 Q1039.77 1543.22 1039.77 1549.27 L1039.77 1568.04 L1033.88 1568.04 L1033.88 1532.4 L1039.77 1532.4 L1039.77 1537.93 Q1041.61 1534.69 1044.57 1533.13 Q1047.53 1531.54 1051.77 1531.54 Q1052.37 1531.54 1053.1 1531.63 Q1053.84 1531.7 1054.73 1531.85 L1054.76 1537.87 Z" fill="#000000" fill-rule="nonzero" fill-opacity="1" /><path clip-path="url(#clip510)" d="M1089.96 1548.76 L1089.96 1551.62 L1063.03 1551.62 Q1063.42 1557.67 1066.66 1560.85 Q1069.94 1564 1075.77 1564 Q1079.14 1564 1082.29 1563.17 Q1085.47 1562.35 1088.59 1560.69 L1088.59 1566.23 Q1085.44 1567.57 1082.13 1568.27 Q1078.82 1568.97 1075.42 1568.97 Q1066.89 1568.97 1061.89 1564 Q1056.92 1559.04 1056.92 1550.57 Q1056.92 1541.82 1061.63 1536.69 Q1066.38 1531.54 1074.4 1531.54 Q1081.59 1531.54 1085.76 1536.18 Q1089.96 1540.8 1089.96 1548.76 M1084.1 1547.04 Q1084.04 1542.23 1081.4 1539.37 Q1078.79 1536.5 1074.46 1536.5 Q1069.56 1536.5 1066.6 1539.27 Q1063.67 1542.04 1063.22 1547.07 L1084.1 1547.04 Z" fill="#000000" fill-rule="nonzero" fill-opacity="1" /><path clip-path="url(#clip510)" d="M1103.07 1550.25 Q1103.07 1556.71 1105.72 1560.4 Q1108.39 1564.07 1113.04 1564.07 Q1117.68 1564.07 1120.36 1560.4 Q1123.03 1556.71 1123.03 1550.25 Q1123.03 1543.79 1120.36 1540.13 Q1117.68 1536.44 1113.04 1536.44 Q1108.39 1536.44 1105.72 1540.13 Q1103.07 1543.79 1103.07 1550.25 M1123.03 1562.7 Q1121.18 1565.88 1118.35 1567.44 Q1115.55 1568.97 1111.6 1568.97 Q1105.14 1568.97 1101.07 1563.81 Q1097.03 1558.65 1097.03 1550.25 Q1097.03 1541.85 1101.07 1536.69 Q1105.14 1531.54 1111.6 1531.54 Q1115.55 1531.54 1118.35 1533.1 Q1121.18 1534.62 1123.03 1537.81 L1123.03 1532.4 L1128.89 1532.4 L1128.89 1581.6 L1123.03 1581.6 L1123.03 1562.7 Z" fill="#000000" fill-rule="nonzero" fill-opacity="1" /><path clip-path="url(#clip510)" d="M1140.35 1553.98 L1140.35 1532.4 L1146.2 1532.4 L1146.2 1553.75 Q1146.2 1558.81 1148.18 1561.36 Q1150.15 1563.87 1154.1 1563.87 Q1158.84 1563.87 1161.58 1560.85 Q1164.34 1557.83 1164.34 1552.61 L1164.34 1532.4 L1170.2 1532.4 L1170.2 1568.04 L1164.34 1568.04 L1164.34 1562.57 Q1162.21 1565.82 1159.38 1567.41 Q1156.58 1568.97 1152.85 1568.97 Q1146.71 1568.97 1143.53 1565.15 Q1140.35 1561.33 1140.35 1553.98 M1155.08 1531.54 L1155.08 1531.54 Z" fill="#000000" fill-rule="nonzero" fill-opacity="1" /><path clip-path="url(#clip510)" d="M1212.76 1548.76 L1212.76 1551.62 L1185.83 1551.62 Q1186.21 1557.67 1189.46 1560.85 Q1192.74 1564 1198.56 1564 Q1201.93 1564 1205.08 1563.17 Q1208.27 1562.35 1211.39 1560.69 L1211.39 1566.23 Q1208.24 1567.57 1204.93 1568.27 Q1201.62 1568.97 1198.21 1568.97 Q1189.68 1568.97 1184.68 1564 Q1179.72 1559.04 1179.72 1550.57 Q1179.72 1541.82 1184.43 1536.69 Q1189.17 1531.54 1197.19 1531.54 Q1204.38 1531.54 1208.55 1536.18 Q1212.76 1540.8 1212.76 1548.76 M1206.9 1547.04 Q1206.84 1542.23 1204.19 1539.37 Q1201.58 1536.5 1197.25 1536.5 Q1192.35 1536.5 1189.39 1539.27 Q1186.46 1542.04 1186.02 1547.07 L1206.9 1547.04 Z" fill="#000000" fill-rule="nonzero" fill-opacity="1" /><path clip-path="url(#clip510)" d="M1252 1546.53 L1252 1568.04 L1246.14 1568.04 L1246.14 1546.72 Q1246.14 1541.66 1244.17 1539.14 Q1242.2 1536.63 1238.25 1536.63 Q1233.51 1536.63 1230.77 1539.65 Q1228.03 1542.68 1228.03 1547.9 L1228.03 1568.04 L1222.14 1568.04 L1222.14 1532.4 L1228.03 1532.4 L1228.03 1537.93 Q1230.13 1534.72 1232.97 1533.13 Q1235.83 1531.54 1239.55 1531.54 Q1245.7 1531.54 1248.85 1535.36 Q1252 1539.14 1252 1546.53 Z" fill="#000000" fill-rule="nonzero" fill-opacity="1" /><path clip-path="url(#clip510)" d="M1289.33 1533.76 L1289.33 1539.24 Q1286.85 1537.87 1284.34 1537.2 Q1281.86 1536.5 1279.31 1536.5 Q1273.61 1536.5 1270.46 1540.13 Q1267.31 1543.73 1267.31 1550.25 Q1267.31 1556.78 1270.46 1560.4 Q1273.61 1564 1279.31 1564 Q1281.86 1564 1284.34 1563.33 Q1286.85 1562.63 1289.33 1561.26 L1289.33 1566.68 Q1286.88 1567.82 1284.24 1568.39 Q1281.63 1568.97 1278.67 1568.97 Q1270.62 1568.97 1265.88 1563.91 Q1261.13 1558.85 1261.13 1550.25 Q1261.13 1541.53 1265.91 1536.53 Q1270.72 1531.54 1279.05 1531.54 Q1281.76 1531.54 1284.34 1532.11 Q1286.92 1532.65 1289.33 1533.76 Z" fill="#000000" fill-rule="nonzero" fill-opacity="1" /><path clip-path="url(#clip510)" d="M1299.52 1532.4 L1305.38 1532.4 L1305.38 1568.04 L1299.52 1568.04 L1299.52 1532.4 M1299.52 1518.52 L1305.38 1518.52 L1305.38 1525.93 L1299.52 1525.93 L1299.52 1518.52 Z" fill="#000000" fill-rule="nonzero" fill-opacity="1" /><path clip-path="url(#clip510)" d="M1348.12 1548.76 L1348.12 1551.62 L1321.2 1551.62 Q1321.58 1557.67 1324.82 1560.85 Q1328.1 1564 1333.93 1564 Q1337.3 1564 1340.45 1563.17 Q1343.63 1562.35 1346.75 1560.69 L1346.75 1566.23 Q1343.6 1567.57 1340.29 1568.27 Q1336.98 1568.97 1333.58 1568.97 Q1325.05 1568.97 1320.05 1564 Q1315.08 1559.04 1315.08 1550.57 Q1315.08 1541.82 1319.79 1536.69 Q1324.54 1531.54 1332.56 1531.54 Q1339.75 1531.54 1343.92 1536.18 Q1348.12 1540.8 1348.12 1548.76 M1342.27 1547.04 Q1342.2 1542.23 1339.56 1539.37 Q1336.95 1536.5 1332.62 1536.5 Q1327.72 1536.5 1324.76 1539.27 Q1321.83 1542.04 1321.39 1547.07 L1342.27 1547.04 Z" fill="#000000" fill-rule="nonzero" fill-opacity="1" /><path clip-path="url(#clip510)" d="M1380.46 1533.45 L1380.46 1538.98 Q1377.98 1537.71 1375.3 1537.07 Q1372.63 1536.44 1369.77 1536.44 Q1365.4 1536.44 1363.21 1537.77 Q1361.04 1539.11 1361.04 1541.79 Q1361.04 1543.82 1362.6 1545 Q1364.16 1546.15 1368.87 1547.2 L1370.88 1547.64 Q1377.12 1548.98 1379.73 1551.43 Q1382.37 1553.85 1382.37 1558.21 Q1382.37 1563.17 1378.42 1566.07 Q1374.51 1568.97 1367.63 1568.97 Q1364.77 1568.97 1361.65 1568.39 Q1358.56 1567.85 1355.12 1566.74 L1355.12 1560.69 Q1358.37 1562.38 1361.52 1563.24 Q1364.67 1564.07 1367.76 1564.07 Q1371.9 1564.07 1374.13 1562.66 Q1376.35 1561.23 1376.35 1558.65 Q1376.35 1556.27 1374.73 1554.99 Q1373.14 1553.72 1367.7 1552.54 L1365.66 1552.07 Q1360.22 1550.92 1357.8 1548.56 Q1355.38 1546.18 1355.38 1542.04 Q1355.38 1537.01 1358.94 1534.27 Q1362.51 1531.54 1369.07 1531.54 Q1372.31 1531.54 1375.18 1532.01 Q1378.04 1532.49 1380.46 1533.45 Z" fill="#000000" fill-rule="nonzero" fill-opacity="1" /><path clip-path="url(#clip510)" d="M1411.87 1518.52 L1425.37 1518.52 L1425.37 1523.07 L1417.73 1523.07 L1417.73 1572.09 L1425.37 1572.09 L1425.37 1576.64 L1411.87 1576.64 L1411.87 1518.52 Z" fill="#000000" fill-rule="nonzero" fill-opacity="1" /><path clip-path="url(#clip510)" d="M1470.5 1561.26 L1470.5 1548.5 L1460 1548.5 L1460 1543.22 L1476.87 1543.22 L1476.87 1563.62 Q1473.14 1566.26 1468.66 1567.63 Q1464.17 1568.97 1459.08 1568.97 Q1447.94 1568.97 1441.63 1562.47 Q1435.36 1555.95 1435.36 1544.33 Q1435.36 1532.68 1441.63 1526.19 Q1447.94 1519.66 1459.08 1519.66 Q1463.72 1519.66 1467.89 1520.81 Q1472.09 1521.96 1475.63 1524.18 L1475.63 1531.03 Q1472.06 1528 1468.05 1526.48 Q1464.04 1524.95 1459.62 1524.95 Q1450.9 1524.95 1446.5 1529.82 Q1442.14 1534.69 1442.14 1544.33 Q1442.14 1553.94 1446.5 1558.81 Q1450.9 1563.68 1459.62 1563.68 Q1463.02 1563.68 1465.7 1563.11 Q1468.37 1562.51 1470.5 1561.26 Z" fill="#000000" fill-rule="nonzero" fill-opacity="1" /><path clip-path="url(#clip510)" d="M1488.61 1520.52 L1495.04 1520.52 L1495.04 1540 L1518.4 1540 L1518.4 1520.52 L1524.83 1520.52 L1524.83 1568.04 L1518.4 1568.04 L1518.4 1545.41 L1495.04 1545.41 L1495.04 1568.04 L1488.61 1568.04 L1488.61 1520.52 Z" fill="#000000" fill-rule="nonzero" fill-opacity="1" /><path clip-path="url(#clip510)" d="M1534.83 1532.4 L1562.65 1532.4 L1562.65 1537.74 L1540.62 1563.37 L1562.65 1563.37 L1562.65 1568.04 L1534.03 1568.04 L1534.03 1562.7 L1556.06 1537.07 L1534.83 1537.07 L1534.83 1532.4 Z" fill="#000000" fill-rule="nonzero" fill-opacity="1" /><path clip-path="url(#clip510)" d="M1585.28 1518.52 L1585.28 1576.64 L1571.78 1576.64 L1571.78 1572.09 L1579.39 1572.09 L1579.39 1523.07 L1571.78 1523.07 L1571.78 1518.52 L1585.28 1518.52 Z" fill="#000000" fill-rule="nonzero" fill-opacity="1" /><polyline clip-path="url(#clip510)" style="stroke:#000000; stroke-linecap:round; stroke-linejoin:round; stroke-width:4; stroke-opacity:1; fill:none" points="234.125,1423.18 234.125,47.2441 "/>
<polyline clip-path="url(#clip510)" style="stroke:#000000; stroke-linecap:round; stroke-linejoin:round; stroke-width:4; stroke-opacity:1; fill:none" points="234.125,1138.23 253.023,1138.23 "/>
<polyline clip-path="url(#clip510)" style="stroke:#000000; stroke-linecap:round; stroke-linejoin:round; stroke-width:4; stroke-opacity:1; fill:none" points="234.125,852.47 253.023,852.47 "/>
<polyline clip-path="url(#clip510)" style="stroke:#000000; stroke-linecap:round; stroke-linejoin:round; stroke-width:4; stroke-opacity:1; fill:none" points="234.125,566.705 253.023,566.705 "/>
<polyline clip-path="url(#clip510)" style="stroke:#000000; stroke-linecap:round; stroke-linejoin:round; stroke-width:4; stroke-opacity:1; fill:none" points="234.125,280.94 253.023,280.94 "/>
<path clip-path="url(#clip510)" d="M146.066 1120.95 L164.422 1120.95 L164.422 1124.89 L150.348 1124.89 L150.348 1133.36 Q151.366 1133.01 152.385 1132.85 Q153.403 1132.67 154.422 1132.67 Q160.209 1132.67 163.589 1135.84 Q166.968 1139.01 166.968 1144.43 Q166.968 1150.01 163.496 1153.11 Q160.024 1156.19 153.704 1156.19 Q151.528 1156.19 149.26 1155.82 Q147.015 1155.45 144.607 1154.7 L144.607 1150.01 Q146.691 1151.14 148.913 1151.7 Q151.135 1152.25 153.612 1152.25 Q157.616 1152.25 159.954 1150.14 Q162.292 1148.04 162.292 1144.43 Q162.292 1140.82 159.954 1138.71 Q157.616 1136.6 153.612 1136.6 Q151.737 1136.6 149.862 1137.02 Q148.01 1137.44 146.066 1138.32 L146.066 1120.95 Z" fill="#000000" fill-rule="nonzero" fill-opacity="1" /><path clip-path="url(#clip510)" d="M186.181 1124.03 Q182.57 1124.03 180.741 1127.6 Q178.936 1131.14 178.936 1138.27 Q178.936 1145.38 180.741 1148.94 Q182.57 1152.48 186.181 1152.48 Q189.815 1152.48 191.621 1148.94 Q193.45 1145.38 193.45 1138.27 Q193.45 1131.14 191.621 1127.6 Q189.815 1124.03 186.181 1124.03 M186.181 1120.33 Q191.991 1120.33 195.047 1124.94 Q198.125 1129.52 198.125 1138.27 Q198.125 1147 195.047 1151.6 Q191.991 1156.19 186.181 1156.19 Q180.371 1156.19 177.292 1151.6 Q174.237 1147 174.237 1138.27 Q174.237 1129.52 177.292 1124.94 Q180.371 1120.33 186.181 1120.33 Z" fill="#000000" fill-rule="nonzero" fill-opacity="1" /><path clip-path="url(#clip510)" d="M116.668 865.815 L124.306 865.815 L124.306 839.449 L115.996 841.116 L115.996 836.856 L124.26 835.19 L128.936 835.19 L128.936 865.815 L136.575 865.815 L136.575 869.75 L116.668 869.75 L116.668 865.815 Z" fill="#000000" fill-rule="nonzero" fill-opacity="1" /><path clip-path="url(#clip510)" d="M156.019 838.268 Q152.408 838.268 150.579 841.833 Q148.774 845.375 148.774 852.505 Q148.774 859.611 150.579 863.176 Q152.408 866.717 156.019 866.717 Q159.653 866.717 161.459 863.176 Q163.288 859.611 163.288 852.505 Q163.288 845.375 161.459 841.833 Q159.653 838.268 156.019 838.268 M156.019 834.565 Q161.829 834.565 164.885 839.171 Q167.964 843.755 167.964 852.505 Q167.964 861.231 164.885 865.838 Q161.829 870.421 156.019 870.421 Q150.209 870.421 147.13 865.838 Q144.075 861.231 144.075 852.505 Q144.075 843.755 147.13 839.171 Q150.209 834.565 156.019 834.565 Z" fill="#000000" fill-rule="nonzero" fill-opacity="1" /><path clip-path="url(#clip510)" d="M186.181 838.268 Q182.57 838.268 180.741 841.833 Q178.936 845.375 178.936 852.505 Q178.936 859.611 180.741 863.176 Q182.57 866.717 186.181 866.717 Q189.815 866.717 191.621 863.176 Q193.45 859.611 193.45 852.505 Q193.45 845.375 191.621 841.833 Q189.815 838.268 186.181 838.268 M186.181 834.565 Q191.991 834.565 195.047 839.171 Q198.125 843.755 198.125 852.505 Q198.125 861.231 195.047 865.838 Q191.991 870.421 186.181 870.421 Q180.371 870.421 177.292 865.838 Q174.237 861.231 174.237 852.505 Q174.237 843.755 177.292 839.171 Q180.371 834.565 186.181 834.565 Z" fill="#000000" fill-rule="nonzero" fill-opacity="1" /><path clip-path="url(#clip510)" d="M116.668 580.05 L124.306 580.05 L124.306 553.684 L115.996 555.351 L115.996 551.092 L124.26 549.425 L128.936 549.425 L128.936 580.05 L136.575 580.05 L136.575 583.985 L116.668 583.985 L116.668 580.05 Z" fill="#000000" fill-rule="nonzero" fill-opacity="1" /><path clip-path="url(#clip510)" d="M146.066 549.425 L164.422 549.425 L164.422 553.36 L150.348 553.36 L150.348 561.832 Q151.366 561.485 152.385 561.323 Q153.403 561.138 154.422 561.138 Q160.209 561.138 163.589 564.309 Q166.968 567.48 166.968 572.897 Q166.968 578.476 163.496 581.578 Q160.024 584.656 153.704 584.656 Q151.528 584.656 149.26 584.286 Q147.015 583.916 144.607 583.175 L144.607 578.476 Q146.691 579.61 148.913 580.166 Q151.135 580.721 153.612 580.721 Q157.616 580.721 159.954 578.615 Q162.292 576.508 162.292 572.897 Q162.292 569.286 159.954 567.18 Q157.616 565.073 153.612 565.073 Q151.737 565.073 149.862 565.49 Q148.01 565.906 146.066 566.786 L146.066 549.425 Z" fill="#000000" fill-rule="nonzero" fill-opacity="1" /><path clip-path="url(#clip510)" d="M186.181 552.504 Q182.57 552.504 180.741 556.068 Q178.936 559.61 178.936 566.74 Q178.936 573.846 180.741 577.411 Q182.57 580.953 186.181 580.953 Q189.815 580.953 191.621 577.411 Q193.45 573.846 193.45 566.74 Q193.45 559.61 191.621 556.068 Q189.815 552.504 186.181 552.504 M186.181 548.8 Q191.991 548.8 195.047 553.406 Q198.125 557.99 198.125 566.74 Q198.125 575.467 195.047 580.073 Q191.991 584.656 186.181 584.656 Q180.371 584.656 177.292 580.073 Q174.237 575.467 174.237 566.74 Q174.237 557.99 177.292 553.406 Q180.371 548.8 186.181 548.8 Z" fill="#000000" fill-rule="nonzero" fill-opacity="1" /><path clip-path="url(#clip510)" d="M119.885 294.285 L136.204 294.285 L136.204 298.22 L114.26 298.22 L114.26 294.285 Q116.922 291.53 121.505 286.901 Q126.112 282.248 127.292 280.905 Q129.538 278.382 130.417 276.646 Q131.32 274.887 131.32 273.197 Q131.32 270.443 129.376 268.706 Q127.455 266.97 124.353 266.97 Q122.154 266.97 119.7 267.734 Q117.269 268.498 114.492 270.049 L114.492 265.327 Q117.316 264.193 119.769 263.614 Q122.223 263.035 124.26 263.035 Q129.63 263.035 132.825 265.72 Q136.019 268.406 136.019 272.896 Q136.019 275.026 135.209 276.947 Q134.422 278.845 132.316 281.438 Q131.737 282.109 128.635 285.327 Q125.533 288.521 119.885 294.285 Z" fill="#000000" fill-rule="nonzero" fill-opacity="1" /><path clip-path="url(#clip510)" d="M156.019 266.739 Q152.408 266.739 150.579 270.304 Q148.774 273.845 148.774 280.975 Q148.774 288.081 150.579 291.646 Q152.408 295.188 156.019 295.188 Q159.653 295.188 161.459 291.646 Q163.288 288.081 163.288 280.975 Q163.288 273.845 161.459 270.304 Q159.653 266.739 156.019 266.739 M156.019 263.035 Q161.829 263.035 164.885 267.642 Q167.964 272.225 167.964 280.975 Q167.964 289.702 164.885 294.308 Q161.829 298.891 156.019 298.891 Q150.209 298.891 147.13 294.308 Q144.075 289.702 144.075 280.975 Q144.075 272.225 147.13 267.642 Q150.209 263.035 156.019 263.035 Z" fill="#000000" fill-rule="nonzero" fill-opacity="1" /><path clip-path="url(#clip510)" d="M186.181 266.739 Q182.57 266.739 180.741 270.304 Q178.936 273.845 178.936 280.975 Q178.936 288.081 180.741 291.646 Q182.57 295.188 186.181 295.188 Q189.815 295.188 191.621 291.646 Q193.45 288.081 193.45 280.975 Q193.45 273.845 191.621 270.304 Q189.815 266.739 186.181 266.739 M186.181 263.035 Q191.991 263.035 195.047 267.642 Q198.125 272.225 198.125 280.975 Q198.125 289.702 195.047 294.308 Q191.991 298.891 186.181 298.891 Q180.371 298.891 177.292 294.308 Q174.237 289.702 174.237 280.975 Q174.237 272.225 177.292 267.642 Q180.371 263.035 186.181 263.035 Z" fill="#000000" fill-rule="nonzero" fill-opacity="1" /><path clip-path="url(#clip510)" d="M41.3104 969.884 L58.7206 969.884 L58.7206 959.571 Q58.7206 954.383 56.5881 951.901 Q54.4238 949.386 49.9996 949.386 Q45.5436 949.386 43.4429 951.901 Q41.3104 954.383 41.3104 959.571 L41.3104 969.884 M21.7677 969.884 L36.0905 969.884 L36.0905 960.367 Q36.0905 955.656 34.34 953.365 Q32.5576 951.041 28.9291 951.041 Q25.3325 951.041 23.5501 953.365 Q21.7677 955.656 21.7677 960.367 L21.7677 969.884 M16.4842 976.313 L16.4842 959.89 Q16.4842 952.537 19.5397 948.559 Q22.5952 944.58 28.2289 944.58 Q32.5894 944.58 35.1675 946.617 Q37.7456 948.654 38.3822 952.601 Q39.4007 947.858 42.6472 945.248 Q45.8619 942.607 50.6998 942.607 Q57.0655 942.607 60.5348 946.935 Q64.0042 951.264 64.0042 959.253 L64.0042 976.313 L16.4842 976.313 Z" fill="#000000" fill-rule="nonzero" fill-opacity="1" /><path clip-path="url(#clip510)" d="M32.4621 918.035 Q32.4621 922.746 36.1542 925.483 Q39.8145 928.22 46.212 928.22 Q52.6095 928.22 56.3017 925.515 Q59.9619 922.778 59.9619 918.035 Q59.9619 913.356 56.2698 910.619 Q52.5777 907.882 46.212 907.882 Q39.8781 907.882 36.186 910.619 Q32.4621 913.356 32.4621 918.035 M27.4968 918.035 Q27.4968 910.396 32.4621 906.036 Q37.4273 901.675 46.212 901.675 Q54.9649 901.675 59.9619 906.036 Q64.9272 910.396 64.9272 918.035 Q64.9272 925.706 59.9619 930.066 Q54.9649 934.395 46.212 934.395 Q37.4273 934.395 32.4621 930.066 Q27.4968 925.706 27.4968 918.035 Z" fill="#000000" fill-rule="nonzero" fill-opacity="1" /><path clip-path="url(#clip510)" d="M32.4621 878.154 Q32.4621 882.865 36.1542 885.602 Q39.8145 888.339 46.212 888.339 Q52.6095 888.339 56.3017 885.634 Q59.9619 882.896 59.9619 878.154 Q59.9619 873.475 56.2698 870.738 Q52.5777 868.001 46.212 868.001 Q39.8781 868.001 36.186 870.738 Q32.4621 873.475 32.4621 878.154 M27.4968 878.154 Q27.4968 870.515 32.4621 866.155 Q37.4273 861.794 46.212 861.794 Q54.9649 861.794 59.9619 866.155 Q64.9272 870.515 64.9272 878.154 Q64.9272 885.825 59.9619 890.185 Q54.9649 894.514 46.212 894.514 Q37.4273 894.514 32.4621 890.185 Q27.4968 885.825 27.4968 878.154 Z" fill="#000000" fill-rule="nonzero" fill-opacity="1" /><path clip-path="url(#clip510)" d="M29.4065 829.361 L34.9447 829.361 Q33.6716 831.843 33.035 834.517 Q32.3984 837.191 32.3984 840.055 Q32.3984 844.416 33.7352 846.612 Q35.072 848.776 37.7456 848.776 Q39.7826 848.776 40.9603 847.217 Q42.1061 845.657 43.1565 840.946 L43.6021 838.941 Q44.9389 832.703 47.3897 830.093 Q49.8086 827.451 54.1691 827.451 Q59.1344 827.451 62.0308 831.398 Q64.9272 835.313 64.9272 842.188 Q64.9272 845.052 64.3543 848.171 Q63.8132 851.259 62.6992 854.696 L56.6518 854.696 Q58.3387 851.45 59.198 848.299 Q60.0256 845.148 60.0256 842.06 Q60.0256 837.923 58.6251 835.695 Q57.1929 833.467 54.6147 833.467 Q52.2276 833.467 50.9545 835.09 Q49.6813 836.681 48.5037 842.124 L48.0262 844.161 Q46.8804 849.604 44.5251 852.023 Q42.138 854.442 38.0002 854.442 Q32.9713 854.442 30.2341 850.877 Q27.4968 847.312 27.4968 840.755 Q27.4968 837.509 27.9743 834.644 Q28.4517 831.78 29.4065 829.361 Z" fill="#000000" fill-rule="nonzero" fill-opacity="1" /><path clip-path="url(#clip510)" d="M18.2347 812.333 L28.3562 812.333 L28.3562 800.269 L32.9077 800.269 L32.9077 812.333 L52.2594 812.333 Q56.6199 812.333 57.8613 811.155 Q59.1026 809.945 59.1026 806.285 L59.1026 800.269 L64.0042 800.269 L64.0042 806.285 Q64.0042 813.065 61.4897 815.643 Q58.9434 818.221 52.2594 818.221 L32.9077 818.221 L32.9077 822.518 L28.3562 822.518 L28.3562 818.221 L18.2347 818.221 L18.2347 812.333 Z" fill="#000000" fill-rule="nonzero" fill-opacity="1" /><path clip-path="url(#clip510)" d="M16.4842 771.592 L16.4842 744.283 L21.895 744.283 L21.895 765.163 L35.8996 765.163 L35.8996 746.32 L41.3104 746.32 L41.3104 765.163 L64.0042 765.163 L64.0042 771.592 L16.4842 771.592 Z" fill="#000000" fill-rule="nonzero" fill-opacity="1" /><path clip-path="url(#clip510)" d="M46.0847 724.136 Q46.0847 731.233 47.7079 733.971 Q49.3312 736.708 53.2461 736.708 Q56.3653 736.708 58.2114 734.671 Q60.0256 732.602 60.0256 729.069 Q60.0256 724.199 56.5881 721.271 Q53.1188 718.311 47.3897 718.311 L46.0847 718.311 L46.0847 724.136 M43.6657 712.455 L64.0042 712.455 L64.0042 718.311 L58.5933 718.311 Q61.8398 720.316 63.3994 723.308 Q64.9272 726.3 64.9272 730.629 Q64.9272 736.103 61.8716 739.35 Q58.7843 742.564 53.6281 742.564 Q47.6125 742.564 44.5569 738.554 Q41.5014 734.512 41.5014 726.523 L41.5014 718.311 L40.9285 718.311 Q36.8862 718.311 34.6901 720.985 Q32.4621 723.626 32.4621 728.432 Q32.4621 731.488 33.1941 734.384 Q33.9262 737.281 35.3903 739.954 L29.9795 739.954 Q28.7381 736.74 28.1334 733.716 Q27.4968 730.692 27.4968 727.828 Q27.4968 720.093 31.5072 716.274 Q35.5176 712.455 43.6657 712.455 Z" fill="#000000" fill-rule="nonzero" fill-opacity="1" /><path clip-path="url(#clip510)" d="M29.7248 674.738 L35.1993 674.738 Q33.8307 677.22 33.1623 679.735 Q32.4621 682.217 32.4621 684.764 Q32.4621 690.461 36.0905 693.612 Q39.6872 696.763 46.212 696.763 Q52.7369 696.763 56.3653 693.612 Q59.9619 690.461 59.9619 684.764 Q59.9619 682.217 59.2935 679.735 Q58.5933 677.22 57.2247 674.738 L62.6355 674.738 Q63.7814 677.189 64.3543 679.83 Q64.9272 682.44 64.9272 685.4 Q64.9272 693.453 59.8664 698.195 Q54.8057 702.938 46.212 702.938 Q37.491 702.938 32.4939 698.164 Q27.4968 693.357 27.4968 685.018 Q27.4968 682.313 28.0697 679.735 Q28.6108 677.157 29.7248 674.738 Z" fill="#000000" fill-rule="nonzero" fill-opacity="1" /><path clip-path="url(#clip510)" d="M18.2347 658.76 L28.3562 658.76 L28.3562 646.697 L32.9077 646.697 L32.9077 658.76 L52.2594 658.76 Q56.6199 658.76 57.8613 657.582 Q59.1026 656.373 59.1026 652.712 L59.1026 646.697 L64.0042 646.697 L64.0042 652.712 Q64.0042 659.492 61.4897 662.07 Q58.9434 664.648 52.2594 664.648 L32.9077 664.648 L32.9077 668.945 L28.3562 668.945 L28.3562 664.648 L18.2347 664.648 L18.2347 658.76 Z" fill="#000000" fill-rule="nonzero" fill-opacity="1" /><path clip-path="url(#clip510)" d="M32.4621 625.181 Q32.4621 629.891 36.1542 632.629 Q39.8145 635.366 46.212 635.366 Q52.6095 635.366 56.3017 632.66 Q59.9619 629.923 59.9619 625.181 Q59.9619 620.502 56.2698 617.765 Q52.5777 615.027 46.212 615.027 Q39.8781 615.027 36.186 617.765 Q32.4621 620.502 32.4621 625.181 M27.4968 625.181 Q27.4968 617.542 32.4621 613.181 Q37.4273 608.821 46.212 608.821 Q54.9649 608.821 59.9619 613.181 Q64.9272 617.542 64.9272 625.181 Q64.9272 632.851 59.9619 637.212 Q54.9649 641.541 46.212 641.541 Q37.4273 641.541 32.4621 637.212 Q27.4968 632.851 27.4968 625.181 Z" fill="#000000" fill-rule="nonzero" fill-opacity="1" /><path clip-path="url(#clip510)" d="M33.8307 578.456 Q33.2578 579.443 33.0032 580.621 Q32.7167 581.767 32.7167 583.167 Q32.7167 588.132 35.9632 590.806 Q39.1779 593.448 45.2253 593.448 L64.0042 593.448 L64.0042 599.336 L28.3562 599.336 L28.3562 593.448 L33.8944 593.448 Q30.6479 591.602 29.0883 588.642 Q27.4968 585.682 27.4968 581.448 Q27.4968 580.844 27.5923 580.112 Q27.656 579.379 27.8151 578.488 L33.8307 578.456 Z" fill="#000000" fill-rule="nonzero" fill-opacity="1" /><path clip-path="url(#clip510)" d="M61.808 545.737 L77.5631 545.737 L77.5631 551.625 L28.579 551.625 Q14.0652 551.625 14.0652 538.066 Q14.0652 524.252 26.3192 524.252 Q35.0402 524.252 38.223 529.727 Q41.0876 520.815 49.5858 520.815 Q64.6726 520.815 64.6726 536.156 Q64.6726 542.904 61.808 545.737 M54.1691 545.737 Q59.6755 542.204 59.6755 535.934 Q59.6755 526.767 49.6813 526.767 Q40.7057 526.767 41.4059 541.535 L35.995 541.535 Q35.995 529.982 25.8099 529.982 Q18.8395 529.982 18.8395 537.429 Q18.8395 545.737 28.77 545.737 L54.1691 545.737 Z" fill="#000000" fill-rule="nonzero" fill-opacity="1" /><path clip-path="url(#clip510)" d="M39.1142 507.606 L39.1142 494.111 L42.7427 494.111 L42.7427 513.144 L39.2416 513.144 Q38.2549 512.062 36.4725 510.057 Q26.7648 499.108 23.7729 499.108 Q21.6722 499.108 20.3991 500.763 Q19.0941 502.418 19.0941 505.124 Q19.0941 506.779 19.667 508.72 Q20.2081 510.662 21.3221 512.953 L17.4072 512.953 Q16.516 510.503 16.0704 508.402 Q15.6248 506.269 15.6248 504.455 Q15.6248 499.84 17.7255 497.071 Q19.8262 494.302 23.2636 494.302 Q27.6878 494.302 36.7271 504.837 Q38.2549 506.619 39.1142 507.606 Z" fill="#000000" fill-rule="nonzero" fill-opacity="1" /><polyline clip-path="url(#clip512)" style="stroke:#009af9; stroke-linecap:round; stroke-linejoin:round; stroke-width:4; stroke-opacity:1; fill:none" points="294.087,1007.5 296.087,1006.84 298.088,1006.19 300.089,1005.53 302.09,1004.87 304.09,1004.21 306.091,1003.54 308.092,1002.87 310.092,1002.2 312.093,1001.53 314.094,1000.85 316.094,1000.17 318.095,999.49 320.096,998.805 322.097,998.117 324.097,997.427 326.098,996.734 328.099,996.038 330.099,995.339 332.1,994.637 334.101,993.932 336.102,993.225 338.102,992.515 340.103,991.801 342.104,991.085 344.104,990.366 346.105,989.644 348.106,988.919 350.107,988.191 352.107,987.46 354.108,986.726 356.109,985.988 358.109,985.248 360.11,984.505 362.111,983.759 364.111,983.009 366.112,982.257 368.113,981.501 370.114,980.742 372.114,979.981 374.115,979.215 376.116,978.447 378.116,977.676 380.117,976.901 382.118,976.123 384.119,975.342 386.119,974.557 388.12,973.769 390.121,972.978 392.121,972.184 394.122,971.386 396.123,970.585 398.124,969.781 400.124,968.973 402.125,968.161 404.126,967.347 406.126,966.528 408.127,965.707 410.128,964.882 412.129,964.053 414.129,963.221 416.13,962.385 418.131,961.546 420.131,960.703 422.132,959.857 424.133,959.007 426.133,958.153 428.134,957.296 430.135,956.435 432.136,955.57 434.136,954.702 436.137,953.83 438.138,952.954 440.138,952.074 442.139,951.191 444.14,950.304 446.141,949.413 448.141,948.518 450.142,947.619 452.143,946.716 454.143,945.81 456.144,944.899 458.145,943.985 460.146,943.067 462.146,942.144 464.147,941.218 466.148,940.287 468.148,939.353 470.149,938.414 472.15,937.472 474.15,936.525 476.151,935.574 478.152,934.619 480.153,933.66 482.153,932.696 484.154,931.729 486.155,930.757 488.155,929.78 490.156,928.8 492.157,927.815 494.158,926.826 496.158,925.832 498.159,924.834 500.16,923.832 502.16,922.825 504.161,921.814 506.162,920.798 508.163,919.778 510.163,918.753 512.164,917.724 514.165,916.69 516.165,915.651 518.166,914.608 520.167,913.56 522.167,912.508 524.168,911.45 526.169,910.389 528.17,909.322 530.17,908.25 532.171,907.174 534.172,906.093 536.172,905.007 538.173,903.916 540.174,902.82 542.175,901.72 544.175,900.614 546.176,899.503 548.177,898.387 550.177,897.267 552.178,896.141 554.179,895.01 556.18,893.874 558.18,892.733 560.181,891.586 562.182,890.435 564.182,889.278 566.183,888.116 568.184,886.948 570.184,885.776 572.185,884.598 574.186,883.414 576.187,882.225 578.187,881.031 580.188,879.831 582.189,878.626 584.189,877.415 586.19,876.199 588.191,874.977 590.192,873.75 592.192,872.516 594.193,871.278 596.194,870.033 598.194,868.783 600.195,867.527 602.196,866.265 604.197,864.997 606.197,863.724 608.198,862.444 610.199,861.159 612.199,859.868 614.2,858.57 616.201,857.267 618.201,855.958 620.202,854.642 622.203,853.321 624.204,851.993 626.204,850.659 628.205,849.319 630.206,847.973 632.206,846.621 634.207,845.262 636.208,843.896 638.209,842.525 640.209,841.147 642.21,839.762 644.211,838.372 646.211,836.974 648.212,835.57 650.213,834.16 652.214,832.743 654.214,831.319 656.215,829.888 658.216,828.451 660.216,827.007 662.217,825.556 664.218,824.099 666.219,822.635 668.219,821.163 670.22,819.685 672.221,818.2 674.221,816.708 676.222,815.209 678.223,813.702 680.223,812.189 682.224,810.668 684.225,809.141 686.226,807.606 688.226,806.064 690.227,804.514 692.228,802.958 694.228,801.393 696.229,799.822 698.23,798.243 700.231,796.657 702.231,795.063 704.232,793.461 706.233,791.852 708.233,790.236 710.234,788.611 712.235,786.979 714.236,785.34 716.236,783.692 718.237,782.037 720.238,780.374 722.238,778.703 724.239,777.024 726.24,775.337 728.24,773.642 730.241,771.939 732.242,770.228 734.243,768.509 736.243,766.782 738.244,765.046 740.245,763.302 742.245,761.551 744.246,759.79 746.247,758.022 748.248,756.245 750.248,754.459 752.249,752.666 754.25,750.863 756.25,749.053 758.251,747.233 760.252,745.405 762.253,743.569 764.253,741.723 766.254,739.869 768.255,738.006 770.255,736.135 772.256,734.255 774.257,732.365 776.257,730.467 778.258,728.56 780.259,726.644 782.26,724.719 784.26,722.785 786.261,720.841 788.262,718.889 790.262,716.928 792.263,714.957 794.264,712.977 796.265,710.988 798.265,708.989 800.266,706.981 802.267,704.964 804.267,702.937 806.268,700.901 808.269,698.856 810.27,696.8 812.27,694.736 814.271,692.662 816.272,690.578 818.272,688.484 820.273,686.381 822.274,684.268 824.274,682.146 826.275,680.013 828.276,677.871 830.277,675.719 832.277,673.557 834.278,671.385 836.279,669.203 838.279,667.012 840.28,664.81 842.281,662.598 844.282,660.376 846.282,658.145 848.283,655.903 850.284,653.651 852.284,651.388 854.285,649.116 856.286,646.833 858.287,644.541 860.287,642.238 862.288,639.924 864.289,637.601 866.289,635.267 868.29,632.923 870.291,630.568 872.291,628.203 874.292,625.828 876.293,623.442 878.294,621.046 880.294,618.639 882.295,616.222 884.296,613.795 886.296,611.357 888.297,608.909 890.298,606.45 892.299,603.98 894.299,601.501 896.3,599.01 898.301,596.509 900.301,593.998 902.302,591.476 904.303,588.943 906.304,586.4 908.304,583.847 910.305,581.283 912.306,578.708 914.306,576.123 916.307,573.527 918.308,570.921 920.309,568.304 922.309,565.677 924.31,563.04 926.311,560.392 928.311,557.733 930.312,555.064 932.313,552.385 934.313,549.695 936.314,546.995 938.315,544.284 940.316,541.564 942.316,538.833 944.317,536.091 946.318,533.34 948.318,530.578 950.319,527.806 952.32,525.024 954.321,522.232 956.321,519.43 958.322,516.618 960.323,513.796 962.323,510.964 964.324,508.122 966.325,505.271 968.326,502.41 970.326,499.539 972.327,496.658 974.328,493.768 976.328,490.869 978.329,487.96 980.33,485.042 982.33,482.115 984.331,479.178 986.332,476.232 988.333,473.278 990.333,470.314 992.334,467.342 994.335,464.361 996.335,461.371 998.336,458.373 1000.34,455.367 1002.34,452.352 1004.34,449.329 1006.34,446.298 1008.34,443.259 1010.34,440.212 1012.34,437.157 1014.34,434.095 1016.34,431.026 1018.34,427.949 1020.34,424.866 1022.34,421.775 1024.35,418.677 1026.35,415.573 1028.35,412.462 1030.35,409.345 1032.35,406.222 1034.35,403.093 1036.35,399.958 1038.35,396.818 1040.35,393.672 1042.35,390.521 1044.35,387.364 1046.35,384.203 1048.35,381.038 1050.35,377.868 1052.36,374.694 1054.36,371.516 1056.36,368.334 1058.36,365.149 1060.36,361.96 1062.36,358.769 1064.36,355.575 1066.36,352.378 1068.36,349.18 1070.36,345.979 1072.36,342.777 1074.36,339.573 1076.36,336.369 1078.36,333.164 1080.37,329.958 1082.37,326.752 1084.37,323.546 1086.37,320.341 1088.37,317.137 1090.37,313.934 1092.37,310.732 1094.37,307.532 1096.37,304.335 1098.37,301.14 1100.37,297.948 1102.37,294.759 1104.37,291.574 1106.37,288.394 1108.38,285.217 1110.38,282.046 1112.38,278.88 1114.38,275.72 1116.38,272.566 1118.38,269.418 1120.38,266.278 1122.38,263.145 1124.38,260.02 1126.38,256.904 1128.38,253.797 1130.38,250.698 1132.38,247.61 1134.38,244.532 1136.39,241.465 1138.39,238.409 1140.39,235.366 1142.39,232.334 1144.39,229.316 1146.39,226.311 1148.39,223.32 1150.39,220.343 1152.39,217.382 1154.39,214.436 1156.39,211.507 1158.39,208.594 1160.39,205.699 1162.39,202.822 1164.39,199.963 1166.4,197.124 1168.4,194.305 1170.4,191.506 1172.4,188.728 1174.4,185.971 1176.4,183.237 1178.4,180.526 1180.4,177.839 1182.4,175.176 1184.4,172.538 1186.4,169.925 1188.4,167.339 1190.4,164.78 1192.4,162.248 1194.41,159.745 1196.41,157.27 1198.41,154.826 1200.41,152.411 1202.41,150.028 1204.41,147.677 1206.41,145.358 1208.41,143.072 1210.41,140.821 1212.41,138.604 1214.41,136.422 1216.41,134.277 1218.41,132.168 1220.41,130.097 1222.42,128.064 1224.42,126.07 1226.42,124.116 1228.42,122.202 1230.42,120.329 1232.42,118.499 1234.42,116.711 1236.42,114.966 1238.42,113.266 1240.42,111.61 1242.42,110 1244.42,108.436 1246.42,106.919 1248.42,105.45 1250.43,104.029 1252.43,102.657 1254.43,101.335 1256.43,100.064 1258.43,98.8436 1260.43,97.6753 1262.43,96.5594 1264.43,95.4968 1266.43,94.4881 1268.43,93.534 1270.43,92.635 1272.43,91.7919 1274.43,91.0052 1276.43,90.2756 1278.44,89.6037 1280.44,88.9902 1282.44,88.4355 1284.44,87.9403 1286.44,87.5051 1288.44,87.1306 1290.44,86.8172 1292.44,86.5655 1294.44,86.376 1296.44,86.2493 1298.44,86.1857 1300.44,86.1858 1302.44,86.25 1304.44,86.3789 1306.45,86.5727 1308.45,86.832 1310.45,87.1571 1312.45,87.5485 1314.45,88.0064 1316.45,88.5312 1318.45,89.1233 1320.45,89.783 1322.45,90.5105 1324.45,91.3061 1326.45,92.1702 1328.45,93.1028 1330.45,94.1042 1332.45,95.1747 1334.46,96.3143 1336.46,97.5233 1338.46,98.8018 1340.46,100.15 1342.46,101.567 1344.46,103.055 1346.46,104.612 1348.46,106.239 1350.46,107.936 1352.46,109.702 1354.46,111.538 1356.46,113.444 1358.46,115.42 1360.46,117.464 1362.47,119.579 1364.47,121.762 1366.47,124.014 1368.47,126.335 1370.47,128.724 1372.47,131.182 1374.47,133.708 1376.47,136.301 1378.47,138.962 1380.47,141.69 1382.47,144.484 1384.47,147.345 1386.47,150.272 1388.47,153.264 1390.48,156.321 1392.48,159.442 1394.48,162.628 1396.48,165.877 1398.48,169.189 1400.48,172.563 1402.48,175.999 1404.48,179.497 1406.48,183.055 1408.48,186.673 1410.48,190.35 1412.48,194.086 1414.48,197.88 1416.48,201.731 1418.48,205.639 1420.49,209.603 1422.49,213.621 1424.49,217.694 1426.49,221.82 1428.49,225.999 1430.49,230.23 1432.49,234.512 1434.49,238.844 1436.49,243.226 1438.49,247.656 1440.49,252.133 1442.49,256.658 1444.49,261.228 1446.49,265.843 1448.5,270.502 1450.5,275.204 1452.5,279.948 1454.5,284.733 1456.5,289.559 1458.5,294.424 1460.5,299.327 1462.5,304.267 1464.5,309.244 1466.5,314.256 1468.5,319.303 1470.5,324.383 1472.5,329.495 1474.5,334.639 1476.51,339.814 1478.51,345.018 1480.51,350.25 1482.51,355.51 1484.51,360.796 1486.51,366.108 1488.51,371.444 1490.51,376.804 1492.51,382.186 1494.51,387.59 1496.51,393.015 1498.51,398.459 1500.51,403.922 1502.51,409.402 1504.52,414.899 1506.52,420.412 1508.52,425.939 1510.52,431.481 1512.52,437.035 1514.52,442.601 1516.52,448.179 1518.52,453.766 1520.52,459.363 1522.52,464.968 1524.52,470.58 1526.52,476.199 1528.52,481.824 1530.52,487.453 1532.53,493.087 1534.53,498.723 1536.53,504.362 1538.53,510.003 1540.53,515.644 1542.53,521.285 1544.53,526.924 1546.53,532.563 1548.53,538.198 1550.53,543.831 1552.53,549.46 1554.53,555.083 1556.53,560.702 1558.53,566.314 1560.54,571.92 1562.54,577.518 1564.54,583.107 1566.54,588.688 1568.54,594.26 1570.54,599.821 1572.54,605.372 1574.54,610.911 1576.54,616.439 1578.54,621.953 1580.54,627.455 1582.54,632.943 1584.54,638.417 1586.54,643.876 1588.55,649.32 1590.55,654.748 1592.55,660.16 1594.55,665.555 1596.55,670.933 1598.55,676.294 1600.55,681.636 1602.55,686.959 1604.55,692.264 1606.55,697.55 1608.55,702.815 1610.55,708.061 1612.55,713.285 1614.55,718.49 1616.56,723.672 1618.56,728.834 1620.56,733.973 1622.56,739.09 1624.56,744.185 1626.56,749.256 1628.56,754.305 1630.56,759.33 1632.56,764.332 1634.56,769.31 1636.56,774.263 1638.56,779.192 1640.56,784.097 1642.56,788.977 1644.57,793.832 1646.57,798.661 1648.57,803.466 1650.57,808.244 1652.57,812.997 1654.57,817.724 1656.57,822.425 1658.57,827.1 1660.57,831.749 1662.57,836.371 1664.57,840.967 1666.57,845.536 1668.57,850.078 1670.57,854.593 1672.57,859.082 1674.58,863.543 1676.58,867.978 1678.58,872.385 1680.58,876.765 1682.58,881.118 1684.58,885.444 1686.58,889.742 1688.58,894.013 1690.58,898.256 1692.58,902.473 1694.58,906.661 1696.58,910.823 1698.58,914.957 1700.58,919.063 1702.59,923.143 1704.59,927.194 1706.59,931.219 1708.59,935.216 1710.59,939.186 1712.59,943.129 1714.59,947.044 1716.59,950.932 1718.59,954.793 1720.59,958.627 1722.59,962.434 1724.59,966.214 1726.59,969.967 1728.59,973.694 1730.6,977.393 1732.6,981.066 1734.6,984.712 1736.6,988.332 1738.6,991.925 1740.6,995.492 1742.6,999.033 1744.6,1002.55 1746.6,1006.04 1748.6,1009.5 1750.6,1012.93 1752.6,1016.35 1754.6,1019.73 1756.6,1023.09 1758.61,1026.42 1760.61,1029.73 1762.61,1033.02 1764.61,1036.28 1766.61,1039.51 1768.61,1042.72 1770.61,1045.9 1772.61,1049.06 1774.61,1052.19 1776.61,1055.31 1778.61,1058.39 1780.61,1061.45 1782.61,1064.49 1784.61,1067.5 1786.62,1070.5 1788.62,1073.46 1790.62,1076.41 1792.62,1079.33 1794.62,1082.22 1796.62,1085.1 1798.62,1087.95 1800.62,1090.77 1802.62,1093.58 1804.62,1096.36 1806.62,1099.12 1808.62,1101.86 1810.62,1104.58 1812.62,1107.27 1814.63,1109.94 1816.63,1112.59 1818.63,1115.22 1820.63,1117.83 1822.63,1120.42 1824.63,1122.98 1826.63,1125.53 1828.63,1128.05 1830.63,1130.55 1832.63,1133.04 1834.63,1135.5 1836.63,1137.94 1838.63,1140.36 1840.63,1142.76 1842.64,1145.14 1844.64,1147.51 1846.64,1149.85 1848.64,1152.17 1850.64,1154.48 1852.64,1156.76 1854.64,1159.03 1856.64,1161.27 1858.64,1163.5 1860.64,1165.71 1862.64,1167.9 1864.64,1170.08 1866.64,1172.23 1868.64,1174.37 1870.65,1176.49 1872.65,1178.59 1874.65,1180.67 1876.65,1182.74 1878.65,1184.79 1880.65,1186.82 1882.65,1188.83 1884.65,1190.83 1886.65,1192.81 1888.65,1194.78 1890.65,1196.72 1892.65,1198.66 1894.65,1200.57 1896.65,1202.47 1898.66,1204.35 1900.66,1206.22 1902.66,1208.07 1904.66,1209.91 1906.66,1211.73 1908.66,1213.53 1910.66,1215.32 1912.66,1217.1 1914.66,1218.86 1916.66,1220.6 1918.66,1222.33 1920.66,1224.05 1922.66,1225.75 1924.66,1227.43 1926.66,1229.1 1928.67,1230.76 1930.67,1232.41 1932.67,1234.04 1934.67,1235.65 1936.67,1237.25 1938.67,1238.84 1940.67,1240.42 1942.67,1241.98 1944.67,1243.53 1946.67,1245.07 1948.67,1246.59 1950.67,1248.1 1952.67,1249.59 1954.67,1251.08 1956.68,1252.55 1958.68,1254.01 1960.68,1255.46 1962.68,1256.89 1964.68,1258.31 1966.68,1259.72 1968.68,1261.12 1970.68,1262.51 1972.68,1263.88 1974.68,1265.25 1976.68,1266.6 1978.68,1267.94 1980.68,1269.27 1982.68,1270.58 1984.69,1271.89 1986.69,1273.19 1988.69,1274.47 1990.69,1275.74 1992.69,1277.01 1994.69,1278.26 1996.69,1279.5 1998.69,1280.73 2000.69,1281.95 2002.69,1283.16 2004.69,1284.36 2006.69,1285.55 2008.69,1286.73 2010.69,1287.9 2012.7,1289.06 2014.7,1290.21 2016.7,1291.35 2018.7,1292.48 2020.7,1293.6 2022.7,1294.71 2024.7,1295.81 2026.7,1296.91 2028.7,1297.99 2030.7,1299.07 2032.7,1300.13 2034.7,1301.19 2036.7,1302.24 2038.7,1303.27 2040.71,1304.3 2042.71,1305.33 2044.71,1306.34 2046.71,1307.34 2048.71,1308.34 2050.71,1309.33 2052.71,1310.31 2054.71,1311.28 2056.71,1312.24 2058.71,1313.19 2060.71,1314.14 2062.71,1315.08 2064.71,1316.01 2066.71,1316.93 2068.72,1317.85 2070.72,1318.76 2072.72,1319.66 2074.72,1320.55 2076.72,1321.43 2078.72,1322.31 2080.72,1323.18 2082.72,1324.04 2084.72,1324.9 2086.72,1325.75 2088.72,1326.59 2090.72,1327.42 2092.72,1328.25 2094.72,1329.07 2096.73,1329.89 2098.73,1330.69 2100.73,1331.49 2102.73,1332.29 2104.73,1333.07 2106.73,1333.85 2108.73,1334.63 2110.73,1335.4 2112.73,1336.16 2114.73,1336.91 2116.73,1337.66 2118.73,1338.4 2120.73,1339.14 2122.73,1339.87 2124.74,1340.59 2126.74,1341.31 2128.74,1342.02 2130.74,1342.73 2132.74,1343.43 2134.74,1344.12 2136.74,1344.81 2138.74,1345.49 2140.74,1346.17 2142.74,1346.84 2144.74,1347.51 2146.74,1348.17 2148.74,1348.82 2150.74,1349.47 2152.75,1350.12 2154.75,1350.76 2156.75,1351.39 2158.75,1352.02 2160.75,1352.64 2162.75,1353.26 2164.75,1353.87 2166.75,1354.48 2168.75,1355.08 2170.75,1355.68 2172.75,1356.27 2174.75,1356.86 2176.75,1357.45 2178.75,1358.02 2180.75,1358.6 2182.76,1359.17 2184.76,1359.73 2186.76,1360.29 2188.76,1360.85 2190.76,1361.4 2192.76,1361.94 2194.76,1362.48 2196.76,1363.02 2198.76,1363.55 2200.76,1364.08 2202.76,1364.61 2204.76,1365.13 2206.76,1365.64 2208.76,1366.15 2210.77,1366.66 2212.77,1367.16 2214.77,1367.66 2216.77,1368.16 2218.77,1368.65 2220.77,1369.13 2222.77,1369.62 2224.77,1370.09 2226.77,1370.57 2228.77,1371.04 2230.77,1371.51 2232.77,1371.97 2234.77,1372.43 2236.77,1372.88 2238.78,1373.34 2240.78,1373.78 2242.78,1374.23 2244.78,1374.67 2246.78,1375.11 2248.78,1375.54 2250.78,1375.97 2252.78,1376.4 2254.78,1376.82 2256.78,1377.24 2258.78,1377.66 2260.78,1378.07 2262.78,1378.48 2264.78,1378.89 2266.79,1379.29 2268.79,1379.69 2270.79,1380.09 2272.79,1380.48 2274.79,1380.87 2276.79,1381.26 2278.79,1381.64 2280.79,1382.02 2282.79,1382.4 2284.79,1382.77 2286.79,1383.14 2288.79,1383.51 2290.79,1383.88 2292.79,1384.24 "/>
<polyline clip-path="url(#clip512)" style="stroke:#ff0000; stroke-linecap:round; stroke-linejoin:round; stroke-width:4; stroke-opacity:1; fill:none" points="1193.51,2799.12 1193.51,-1328.69 "/>
<polyline clip-path="url(#clip512)" style="stroke:#ff0000; stroke-linecap:round; stroke-linejoin:round; stroke-width:4; stroke-opacity:1; fill:none" points="1393.38,2799.12 1393.38,-1328.69 "/>
</svg>
