<?xml version="1.0" encoding="utf-8"?>
<svg xmlns="http://www.w3.org/2000/svg" xmlns:xlink="http://www.w3.org/1999/xlink" width="600" height="400" viewBox="0 0 2400 1600">
<defs>
  <clipPath id="clip950">
    <rect x="0" y="0" width="2400" height="1600"/>
  </clipPath>
</defs>
<path clip-path="url(#clip950)" d="M0 1600 L2400 1600 L2400 0 L0 0  Z" fill="#ffffff" fill-rule="evenodd" fill-opacity="1"/>
<defs>
  <clipPath id="clip951">
    <rect x="480" y="0" width="1681" height="1600"/>
  </clipPath>
</defs>
<path clip-path="url(#clip950)" d="M265.445 1423.18 L2352.76 1423.18 L2352.76 47.2441 L265.445 47.2441  Z" fill="#ffffff" fill-rule="evenodd" fill-opacity="1"/>
<defs>
  <clipPath id="clip952">
    <rect x="265" y="47" width="2088" height="1377"/>
  </clipPath>
</defs>
<polyline clip-path="url(#clip952)" style="stroke:#000000; stroke-linecap:round; stroke-linejoin:round; stroke-width:2; stroke-opacity:0.1; fill:none" points="521.436,1423.18 521.436,47.2441 "/>
<polyline clip-path="url(#clip952)" style="stroke:#000000; stroke-linecap:round; stroke-linejoin:round; stroke-width:2; stroke-opacity:0.1; fill:none" points="915.268,1423.18 915.268,47.2441 "/>
<polyline clip-path="url(#clip952)" style="stroke:#000000; stroke-linecap:round; stroke-linejoin:round; stroke-width:2; stroke-opacity:0.1; fill:none" points="1309.1,1423.18 1309.1,47.2441 "/>
<polyline clip-path="url(#clip952)" style="stroke:#000000; stroke-linecap:round; stroke-linejoin:round; stroke-width:2; stroke-opacity:0.1; fill:none" points="1702.93,1423.18 1702.93,47.2441 "/>
<polyline clip-path="url(#clip952)" style="stroke:#000000; stroke-linecap:round; stroke-linejoin:round; stroke-width:2; stroke-opacity:0.1; fill:none" points="2096.76,1423.18 2096.76,47.2441 "/>
<polyline clip-path="url(#clip952)" style="stroke:#000000; stroke-linecap:round; stroke-linejoin:round; stroke-width:2; stroke-opacity:0.1; fill:none" points="265.445,1384.31 2352.76,1384.31 "/>
<polyline clip-path="url(#clip952)" style="stroke:#000000; stroke-linecap:round; stroke-linejoin:round; stroke-width:2; stroke-opacity:0.1; fill:none" points="265.445,1163.91 2352.76,1163.91 "/>
<polyline clip-path="url(#clip952)" style="stroke:#000000; stroke-linecap:round; stroke-linejoin:round; stroke-width:2; stroke-opacity:0.1; fill:none" points="265.445,943.504 2352.76,943.504 "/>
<polyline clip-path="url(#clip952)" style="stroke:#000000; stroke-linecap:round; stroke-linejoin:round; stroke-width:2; stroke-opacity:0.1; fill:none" points="265.445,723.103 2352.76,723.103 "/>
<polyline clip-path="url(#clip952)" style="stroke:#000000; stroke-linecap:round; stroke-linejoin:round; stroke-width:2; stroke-opacity:0.1; fill:none" points="265.445,502.703 2352.76,502.703 "/>
<polyline clip-path="url(#clip952)" style="stroke:#000000; stroke-linecap:round; stroke-linejoin:round; stroke-width:2; stroke-opacity:0.1; fill:none" points="265.445,282.302 2352.76,282.302 "/>
<polyline clip-path="url(#clip952)" style="stroke:#000000; stroke-linecap:round; stroke-linejoin:round; stroke-width:2; stroke-opacity:0.1; fill:none" points="265.445,61.9008 2352.76,61.9008 "/>
<polyline clip-path="url(#clip950)" style="stroke:#000000; stroke-linecap:round; stroke-linejoin:round; stroke-width:4; stroke-opacity:1; fill:none" points="265.445,1423.18 2352.76,1423.18 "/>
<polyline clip-path="url(#clip950)" style="stroke:#000000; stroke-linecap:round; stroke-linejoin:round; stroke-width:4; stroke-opacity:1; fill:none" points="521.436,1423.18 521.436,1404.28 "/>
<polyline clip-path="url(#clip950)" style="stroke:#000000; stroke-linecap:round; stroke-linejoin:round; stroke-width:4; stroke-opacity:1; fill:none" points="915.268,1423.18 915.268,1404.28 "/>
<polyline clip-path="url(#clip950)" style="stroke:#000000; stroke-linecap:round; stroke-linejoin:round; stroke-width:4; stroke-opacity:1; fill:none" points="1309.1,1423.18 1309.1,1404.28 "/>
<polyline clip-path="url(#clip950)" style="stroke:#000000; stroke-linecap:round; stroke-linejoin:round; stroke-width:4; stroke-opacity:1; fill:none" points="1702.93,1423.18 1702.93,1404.28 "/>
<polyline clip-path="url(#clip950)" style="stroke:#000000; stroke-linecap:round; stroke-linejoin:round; stroke-width:4; stroke-opacity:1; fill:none" points="2096.76,1423.18 2096.76,1404.28 "/>
<path clip-path="url(#clip950)" d="M477.512 1481.64 L493.832 1481.64 L493.832 1485.58 L471.887 1485.58 L471.887 1481.64 Q474.549 1478.89 479.133 1474.26 Q483.739 1469.61 484.92 1468.27 Q487.165 1465.74 488.045 1464.01 Q488.947 1462.25 488.947 1460.56 Q488.947 1457.8 487.003 1456.07 Q485.082 1454.33 481.98 1454.33 Q479.781 1454.33 477.327 1455.09 Q474.897 1455.86 472.119 1457.41 L472.119 1452.69 Q474.943 1451.55 477.397 1450.97 Q479.85 1450.39 481.887 1450.39 Q487.258 1450.39 490.452 1453.08 Q493.647 1455.77 493.647 1460.26 Q493.647 1462.39 492.836 1464.31 Q492.049 1466.2 489.943 1468.8 Q489.364 1469.47 486.262 1472.69 Q483.16 1475.88 477.512 1481.64 Z" fill="#000000" fill-rule="nonzero" fill-opacity="1" /><path clip-path="url(#clip950)" d="M503.785 1484.86 L503.785 1480.6 Q505.545 1481.44 507.35 1481.88 Q509.156 1482.32 510.892 1482.32 Q515.521 1482.32 517.952 1479.21 Q520.406 1476.09 520.753 1469.75 Q519.41 1471.74 517.35 1472.8 Q515.29 1473.87 512.79 1473.87 Q507.605 1473.87 504.572 1470.74 Q501.563 1467.59 501.563 1462.15 Q501.563 1456.83 504.711 1453.61 Q507.859 1450.39 513.091 1450.39 Q519.086 1450.39 522.234 1455 Q525.406 1459.58 525.406 1468.33 Q525.406 1476.51 521.517 1481.39 Q517.651 1486.25 511.1 1486.25 Q509.341 1486.25 507.535 1485.9 Q505.73 1485.56 503.785 1484.86 M513.091 1470.21 Q516.239 1470.21 518.068 1468.06 Q519.92 1465.9 519.92 1462.15 Q519.92 1458.43 518.068 1456.27 Q516.239 1454.1 513.091 1454.1 Q509.943 1454.1 508.091 1456.27 Q506.262 1458.43 506.262 1462.15 Q506.262 1465.9 508.091 1468.06 Q509.943 1470.21 513.091 1470.21 Z" fill="#000000" fill-rule="nonzero" fill-opacity="1" /><path clip-path="url(#clip950)" d="M533.808 1479.7 L538.693 1479.7 L538.693 1485.58 L533.808 1485.58 L533.808 1479.7 Z" fill="#000000" fill-rule="nonzero" fill-opacity="1" /><path clip-path="url(#clip950)" d="M559.456 1466.44 Q556.308 1466.44 554.456 1468.59 Q552.628 1470.74 552.628 1474.49 Q552.628 1478.22 554.456 1480.39 Q556.308 1482.55 559.456 1482.55 Q562.604 1482.55 564.433 1480.39 Q566.285 1478.22 566.285 1474.49 Q566.285 1470.74 564.433 1468.59 Q562.604 1466.44 559.456 1466.44 M568.739 1451.78 L568.739 1456.04 Q566.979 1455.21 565.174 1454.77 Q563.392 1454.33 561.632 1454.33 Q557.003 1454.33 554.549 1457.45 Q552.118 1460.58 551.771 1466.9 Q553.137 1464.89 555.197 1463.82 Q557.257 1462.73 559.734 1462.73 Q564.942 1462.73 567.952 1465.9 Q570.984 1469.05 570.984 1474.49 Q570.984 1479.82 567.836 1483.03 Q564.688 1486.25 559.456 1486.25 Q553.461 1486.25 550.29 1481.67 Q547.118 1477.06 547.118 1468.33 Q547.118 1460.14 551.007 1455.28 Q554.896 1450.39 561.447 1450.39 Q563.206 1450.39 564.989 1450.74 Q566.794 1451.09 568.739 1451.78 Z" fill="#000000" fill-rule="nonzero" fill-opacity="1" /><path clip-path="url(#clip950)" d="M871.472 1481.64 L887.791 1481.64 L887.791 1485.58 L865.847 1485.58 L865.847 1481.64 Q868.509 1478.89 873.092 1474.26 Q877.699 1469.61 878.879 1468.27 Q881.125 1465.74 882.004 1464.01 Q882.907 1462.25 882.907 1460.56 Q882.907 1457.8 880.963 1456.07 Q879.041 1454.33 875.94 1454.33 Q873.74 1454.33 871.287 1455.09 Q868.856 1455.86 866.078 1457.41 L866.078 1452.69 Q868.903 1451.55 871.356 1450.97 Q873.81 1450.39 875.847 1450.39 Q881.217 1450.39 884.412 1453.08 Q887.606 1455.77 887.606 1460.26 Q887.606 1462.39 886.796 1464.31 Q886.009 1466.2 883.902 1468.8 Q883.324 1469.47 880.222 1472.69 Q877.12 1475.88 871.472 1481.64 Z" fill="#000000" fill-rule="nonzero" fill-opacity="1" /><path clip-path="url(#clip950)" d="M897.745 1484.86 L897.745 1480.6 Q899.504 1481.44 901.31 1481.88 Q903.115 1482.32 904.851 1482.32 Q909.481 1482.32 911.912 1479.21 Q914.365 1476.09 914.712 1469.75 Q913.37 1471.74 911.31 1472.8 Q909.25 1473.87 906.75 1473.87 Q901.564 1473.87 898.532 1470.74 Q895.523 1467.59 895.523 1462.15 Q895.523 1456.83 898.671 1453.61 Q901.819 1450.39 907.05 1450.39 Q913.046 1450.39 916.194 1455 Q919.365 1459.58 919.365 1468.33 Q919.365 1476.51 915.476 1481.39 Q911.611 1486.25 905.06 1486.25 Q903.3 1486.25 901.495 1485.9 Q899.689 1485.56 897.745 1484.86 M907.05 1470.21 Q910.199 1470.21 912.027 1468.06 Q913.879 1465.9 913.879 1462.15 Q913.879 1458.43 912.027 1456.27 Q910.199 1454.1 907.05 1454.1 Q903.902 1454.1 902.05 1456.27 Q900.222 1458.43 900.222 1462.15 Q900.222 1465.9 902.05 1468.06 Q903.902 1470.21 907.05 1470.21 Z" fill="#000000" fill-rule="nonzero" fill-opacity="1" /><path clip-path="url(#clip950)" d="M927.768 1479.7 L932.652 1479.7 L932.652 1485.58 L927.768 1485.58 L927.768 1479.7 Z" fill="#000000" fill-rule="nonzero" fill-opacity="1" /><path clip-path="url(#clip950)" d="M952.837 1469.17 Q949.504 1469.17 947.583 1470.95 Q945.685 1472.73 945.685 1475.86 Q945.685 1478.98 947.583 1480.77 Q949.504 1482.55 952.837 1482.55 Q956.171 1482.55 958.092 1480.77 Q960.013 1478.96 960.013 1475.86 Q960.013 1472.73 958.092 1470.95 Q956.194 1469.17 952.837 1469.17 M948.161 1467.18 Q945.152 1466.44 943.462 1464.38 Q941.796 1462.32 941.796 1459.35 Q941.796 1455.21 944.735 1452.8 Q947.698 1450.39 952.837 1450.39 Q957.999 1450.39 960.939 1452.8 Q963.879 1455.21 963.879 1459.35 Q963.879 1462.32 962.189 1464.38 Q960.522 1466.44 957.536 1467.18 Q960.916 1467.96 962.791 1470.26 Q964.689 1472.55 964.689 1475.86 Q964.689 1480.88 961.61 1483.57 Q958.555 1486.25 952.837 1486.25 Q947.12 1486.25 944.041 1483.57 Q940.985 1480.88 940.985 1475.86 Q940.985 1472.55 942.884 1470.26 Q944.782 1467.96 948.161 1467.18 M946.448 1459.79 Q946.448 1462.48 948.115 1463.98 Q949.805 1465.49 952.837 1465.49 Q955.847 1465.49 957.536 1463.98 Q959.249 1462.48 959.249 1459.79 Q959.249 1457.11 957.536 1455.6 Q955.847 1454.1 952.837 1454.1 Q949.805 1454.1 948.115 1455.6 Q946.448 1457.11 946.448 1459.79 Z" fill="#000000" fill-rule="nonzero" fill-opacity="1" /><path clip-path="url(#clip950)" d="M1275.33 1466.95 Q1278.68 1467.66 1280.56 1469.93 Q1282.46 1472.2 1282.46 1475.53 Q1282.46 1480.65 1278.94 1483.45 Q1275.42 1486.25 1268.94 1486.25 Q1266.76 1486.25 1264.45 1485.81 Q1262.16 1485.39 1259.7 1484.54 L1259.7 1480.02 Q1261.65 1481.16 1263.96 1481.74 Q1266.28 1482.32 1268.8 1482.32 Q1273.2 1482.32 1275.49 1480.58 Q1277.8 1478.84 1277.8 1475.53 Q1277.8 1472.48 1275.65 1470.77 Q1273.52 1469.03 1269.7 1469.03 L1265.67 1469.03 L1265.67 1465.19 L1269.89 1465.19 Q1273.34 1465.19 1275.17 1463.82 Q1276.99 1462.43 1276.99 1459.84 Q1276.99 1457.18 1275.1 1455.77 Q1273.22 1454.33 1269.7 1454.33 Q1267.78 1454.33 1265.58 1454.75 Q1263.38 1455.16 1260.74 1456.04 L1260.74 1451.88 Q1263.41 1451.14 1265.72 1450.77 Q1268.06 1450.39 1270.12 1450.39 Q1275.44 1450.39 1278.54 1452.83 Q1281.65 1455.23 1281.65 1459.35 Q1281.65 1462.22 1280 1464.21 Q1278.36 1466.18 1275.33 1466.95 Z" fill="#000000" fill-rule="nonzero" fill-opacity="1" /><path clip-path="url(#clip950)" d="M1301.32 1454.1 Q1297.71 1454.1 1295.88 1457.66 Q1294.08 1461.2 1294.08 1468.33 Q1294.08 1475.44 1295.88 1479.01 Q1297.71 1482.55 1301.32 1482.55 Q1304.96 1482.55 1306.76 1479.01 Q1308.59 1475.44 1308.59 1468.33 Q1308.59 1461.2 1306.76 1457.66 Q1304.96 1454.1 1301.32 1454.1 M1301.32 1450.39 Q1307.13 1450.39 1310.19 1455 Q1313.27 1459.58 1313.27 1468.33 Q1313.27 1477.06 1310.19 1481.67 Q1307.13 1486.25 1301.32 1486.25 Q1295.51 1486.25 1292.43 1481.67 Q1289.38 1477.06 1289.38 1468.33 Q1289.38 1459.58 1292.43 1455 Q1295.51 1450.39 1301.32 1450.39 Z" fill="#000000" fill-rule="nonzero" fill-opacity="1" /><path clip-path="url(#clip950)" d="M1321.48 1479.7 L1326.37 1479.7 L1326.37 1485.58 L1321.48 1485.58 L1321.48 1479.7 Z" fill="#000000" fill-rule="nonzero" fill-opacity="1" /><path clip-path="url(#clip950)" d="M1346.55 1454.1 Q1342.94 1454.1 1341.11 1457.66 Q1339.31 1461.2 1339.31 1468.33 Q1339.31 1475.44 1341.11 1479.01 Q1342.94 1482.55 1346.55 1482.55 Q1350.19 1482.55 1351.99 1479.01 Q1353.82 1475.44 1353.82 1468.33 Q1353.82 1461.2 1351.99 1457.66 Q1350.19 1454.1 1346.55 1454.1 M1346.55 1450.39 Q1352.36 1450.39 1355.42 1455 Q1358.5 1459.58 1358.5 1468.33 Q1358.5 1477.06 1355.42 1481.67 Q1352.36 1486.25 1346.55 1486.25 Q1340.74 1486.25 1337.66 1481.67 Q1334.61 1477.06 1334.61 1468.33 Q1334.61 1459.58 1337.66 1455 Q1340.74 1450.39 1346.55 1450.39 Z" fill="#000000" fill-rule="nonzero" fill-opacity="1" /><path clip-path="url(#clip950)" d="M1669.96 1466.95 Q1673.31 1467.66 1675.19 1469.93 Q1677.09 1472.2 1677.09 1475.53 Q1677.09 1480.65 1673.57 1483.45 Q1670.05 1486.25 1663.57 1486.25 Q1661.39 1486.25 1659.08 1485.81 Q1656.79 1485.39 1654.33 1484.54 L1654.33 1480.02 Q1656.28 1481.16 1658.59 1481.74 Q1660.91 1482.32 1663.43 1482.32 Q1667.83 1482.32 1670.12 1480.58 Q1672.44 1478.84 1672.44 1475.53 Q1672.44 1472.48 1670.28 1470.77 Q1668.15 1469.03 1664.33 1469.03 L1660.31 1469.03 L1660.31 1465.19 L1664.52 1465.19 Q1667.97 1465.19 1669.8 1463.82 Q1671.62 1462.43 1671.62 1459.84 Q1671.62 1457.18 1669.73 1455.77 Q1667.85 1454.33 1664.33 1454.33 Q1662.41 1454.33 1660.21 1454.75 Q1658.01 1455.16 1655.37 1456.04 L1655.37 1451.88 Q1658.04 1451.14 1660.35 1450.77 Q1662.69 1450.39 1664.75 1450.39 Q1670.07 1450.39 1673.18 1452.83 Q1676.28 1455.23 1676.28 1459.35 Q1676.28 1462.22 1674.63 1464.21 Q1672.99 1466.18 1669.96 1466.95 Z" fill="#000000" fill-rule="nonzero" fill-opacity="1" /><path clip-path="url(#clip950)" d="M1695.95 1454.1 Q1692.34 1454.1 1690.51 1457.66 Q1688.71 1461.2 1688.71 1468.33 Q1688.71 1475.44 1690.51 1479.01 Q1692.34 1482.55 1695.95 1482.55 Q1699.59 1482.55 1701.39 1479.01 Q1703.22 1475.44 1703.22 1468.33 Q1703.22 1461.2 1701.39 1457.66 Q1699.59 1454.1 1695.95 1454.1 M1695.95 1450.39 Q1701.76 1450.39 1704.82 1455 Q1707.9 1459.58 1707.9 1468.33 Q1707.9 1477.06 1704.82 1481.67 Q1701.76 1486.25 1695.95 1486.25 Q1690.14 1486.25 1687.06 1481.67 Q1684.01 1477.06 1684.01 1468.33 Q1684.01 1459.58 1687.06 1455 Q1690.14 1450.39 1695.95 1450.39 Z" fill="#000000" fill-rule="nonzero" fill-opacity="1" /><path clip-path="url(#clip950)" d="M1716.12 1479.7 L1721 1479.7 L1721 1485.58 L1716.12 1485.58 L1716.12 1479.7 Z" fill="#000000" fill-rule="nonzero" fill-opacity="1" /><path clip-path="url(#clip950)" d="M1735.21 1481.64 L1751.53 1481.64 L1751.53 1485.58 L1729.59 1485.58 L1729.59 1481.64 Q1732.25 1478.89 1736.83 1474.26 Q1741.44 1469.61 1742.62 1468.27 Q1744.87 1465.74 1745.74 1464.01 Q1746.65 1462.25 1746.65 1460.56 Q1746.65 1457.8 1744.7 1456.07 Q1742.78 1454.33 1739.68 1454.33 Q1737.48 1454.33 1735.03 1455.09 Q1732.6 1455.86 1729.82 1457.41 L1729.82 1452.69 Q1732.64 1451.55 1735.1 1450.97 Q1737.55 1450.39 1739.59 1450.39 Q1744.96 1450.39 1748.15 1453.08 Q1751.35 1455.77 1751.35 1460.26 Q1751.35 1462.39 1750.54 1464.31 Q1749.75 1466.2 1747.64 1468.8 Q1747.06 1469.47 1743.96 1472.69 Q1740.86 1475.88 1735.21 1481.64 Z" fill="#000000" fill-rule="nonzero" fill-opacity="1" /><path clip-path="url(#clip950)" d="M2062.75 1466.95 Q2066.11 1467.66 2067.98 1469.93 Q2069.88 1472.2 2069.88 1475.53 Q2069.88 1480.65 2066.36 1483.45 Q2062.84 1486.25 2056.36 1486.25 Q2054.18 1486.25 2051.87 1485.81 Q2049.58 1485.39 2047.12 1484.54 L2047.12 1480.02 Q2049.07 1481.16 2051.38 1481.74 Q2053.7 1482.32 2056.22 1482.32 Q2060.62 1482.32 2062.91 1480.58 Q2065.23 1478.84 2065.23 1475.53 Q2065.23 1472.48 2063.07 1470.77 Q2060.94 1469.03 2057.12 1469.03 L2053.1 1469.03 L2053.1 1465.19 L2057.31 1465.19 Q2060.76 1465.19 2062.59 1463.82 Q2064.42 1462.43 2064.42 1459.84 Q2064.42 1457.18 2062.52 1455.77 Q2060.64 1454.33 2057.12 1454.33 Q2055.2 1454.33 2053 1454.75 Q2050.8 1455.16 2048.17 1456.04 L2048.17 1451.88 Q2050.83 1451.14 2053.14 1450.77 Q2055.48 1450.39 2057.54 1450.39 Q2062.86 1450.39 2065.97 1452.83 Q2069.07 1455.23 2069.07 1459.35 Q2069.07 1462.22 2067.42 1464.21 Q2065.78 1466.18 2062.75 1466.95 Z" fill="#000000" fill-rule="nonzero" fill-opacity="1" /><path clip-path="url(#clip950)" d="M2088.74 1454.1 Q2085.13 1454.1 2083.3 1457.66 Q2081.5 1461.2 2081.5 1468.33 Q2081.5 1475.44 2083.3 1479.01 Q2085.13 1482.55 2088.74 1482.55 Q2092.38 1482.55 2094.18 1479.01 Q2096.01 1475.44 2096.01 1468.33 Q2096.01 1461.2 2094.18 1457.66 Q2092.38 1454.1 2088.74 1454.1 M2088.74 1450.39 Q2094.55 1450.39 2097.61 1455 Q2100.69 1459.58 2100.69 1468.33 Q2100.69 1477.06 2097.61 1481.67 Q2094.55 1486.25 2088.74 1486.25 Q2082.93 1486.25 2079.86 1481.67 Q2076.8 1477.06 2076.8 1468.33 Q2076.8 1459.58 2079.86 1455 Q2082.93 1450.39 2088.74 1450.39 Z" fill="#000000" fill-rule="nonzero" fill-opacity="1" /><path clip-path="url(#clip950)" d="M2108.91 1479.7 L2113.79 1479.7 L2113.79 1485.58 L2108.91 1485.58 L2108.91 1479.7 Z" fill="#000000" fill-rule="nonzero" fill-opacity="1" /><path clip-path="url(#clip950)" d="M2136.82 1455.09 L2125.02 1473.54 L2136.82 1473.54 L2136.82 1455.09 M2135.6 1451.02 L2141.48 1451.02 L2141.48 1473.54 L2146.41 1473.54 L2146.41 1477.43 L2141.48 1477.43 L2141.48 1485.58 L2136.82 1485.58 L2136.82 1477.43 L2121.22 1477.43 L2121.22 1472.92 L2135.6 1451.02 Z" fill="#000000" fill-rule="nonzero" fill-opacity="1" /><path clip-path="url(#clip950)" d="M1017.26 1520.52 L1044.57 1520.52 L1044.57 1525.93 L1023.69 1525.93 L1023.69 1539.94 L1042.54 1539.94 L1042.54 1545.35 L1023.69 1545.35 L1023.69 1568.04 L1017.26 1568.04 L1017.26 1520.52 Z" fill="#000000" fill-rule="nonzero" fill-opacity="1" /><path clip-path="url(#clip950)" d="M1070.42 1537.87 Q1069.43 1537.3 1068.25 1537.04 Q1067.11 1536.76 1065.71 1536.76 Q1060.74 1536.76 1058.07 1540 Q1055.43 1543.22 1055.43 1549.27 L1055.43 1568.04 L1049.54 1568.04 L1049.54 1532.4 L1055.43 1532.4 L1055.43 1537.93 Q1057.27 1534.69 1060.23 1533.13 Q1063.19 1531.54 1067.43 1531.54 Q1068.03 1531.54 1068.76 1531.63 Q1069.5 1531.7 1070.39 1531.85 L1070.42 1537.87 Z" fill="#000000" fill-rule="nonzero" fill-opacity="1" /><path clip-path="url(#clip950)" d="M1105.62 1548.76 L1105.62 1551.62 L1078.69 1551.62 Q1079.08 1557.67 1082.32 1560.85 Q1085.6 1564 1091.42 1564 Q1094.8 1564 1097.95 1563.17 Q1101.13 1562.35 1104.25 1560.69 L1104.25 1566.23 Q1101.1 1567.57 1097.79 1568.27 Q1094.48 1568.97 1091.07 1568.97 Q1082.54 1568.97 1077.55 1564 Q1072.58 1559.04 1072.58 1550.57 Q1072.58 1541.82 1077.29 1536.69 Q1082.04 1531.54 1090.06 1531.54 Q1097.25 1531.54 1101.42 1536.18 Q1105.62 1540.8 1105.62 1548.76 M1099.76 1547.04 Q1099.7 1542.23 1097.06 1539.37 Q1094.45 1536.5 1090.12 1536.5 Q1085.22 1536.5 1082.26 1539.27 Q1079.33 1542.04 1078.88 1547.07 L1099.76 1547.04 Z" fill="#000000" fill-rule="nonzero" fill-opacity="1" /><path clip-path="url(#clip950)" d="M1118.73 1550.25 Q1118.73 1556.71 1121.38 1560.4 Q1124.05 1564.07 1128.7 1564.07 Q1133.34 1564.07 1136.02 1560.4 Q1138.69 1556.71 1138.69 1550.25 Q1138.69 1543.79 1136.02 1540.13 Q1133.34 1536.44 1128.7 1536.44 Q1124.05 1536.44 1121.38 1540.13 Q1118.73 1543.79 1118.73 1550.25 M1138.69 1562.7 Q1136.84 1565.88 1134.01 1567.44 Q1131.21 1568.97 1127.26 1568.97 Q1120.8 1568.97 1116.73 1563.81 Q1112.69 1558.65 1112.69 1550.25 Q1112.69 1541.85 1116.73 1536.69 Q1120.8 1531.54 1127.26 1531.54 Q1131.21 1531.54 1134.01 1533.1 Q1136.84 1534.62 1138.69 1537.81 L1138.69 1532.4 L1144.55 1532.4 L1144.55 1581.6 L1138.69 1581.6 L1138.69 1562.7 Z" fill="#000000" fill-rule="nonzero" fill-opacity="1" /><path clip-path="url(#clip950)" d="M1156.01 1553.98 L1156.01 1532.4 L1161.86 1532.4 L1161.86 1553.75 Q1161.86 1558.81 1163.83 1561.36 Q1165.81 1563.87 1169.75 1563.87 Q1174.5 1563.87 1177.23 1560.85 Q1180 1557.83 1180 1552.61 L1180 1532.4 L1185.86 1532.4 L1185.86 1568.04 L1180 1568.04 L1180 1562.57 Q1177.87 1565.82 1175.04 1567.41 Q1172.24 1568.97 1168.51 1568.97 Q1162.37 1568.97 1159.19 1565.15 Q1156.01 1561.33 1156.01 1553.98 M1170.74 1531.54 L1170.74 1531.54 Z" fill="#000000" fill-rule="nonzero" fill-opacity="1" /><path clip-path="url(#clip950)" d="M1228.41 1548.76 L1228.41 1551.62 L1201.49 1551.62 Q1201.87 1557.67 1205.12 1560.85 Q1208.39 1564 1214.22 1564 Q1217.59 1564 1220.74 1563.17 Q1223.93 1562.35 1227.05 1560.69 L1227.05 1566.23 Q1223.9 1567.57 1220.59 1568.27 Q1217.27 1568.97 1213.87 1568.97 Q1205.34 1568.97 1200.34 1564 Q1195.38 1559.04 1195.38 1550.57 Q1195.38 1541.82 1200.09 1536.69 Q1204.83 1531.54 1212.85 1531.54 Q1220.04 1531.54 1224.21 1536.18 Q1228.41 1540.8 1228.41 1548.76 M1222.56 1547.04 Q1222.49 1542.23 1219.85 1539.37 Q1217.24 1536.5 1212.91 1536.5 Q1208.01 1536.5 1205.05 1539.27 Q1202.12 1542.04 1201.68 1547.07 L1222.56 1547.04 Z" fill="#000000" fill-rule="nonzero" fill-opacity="1" /><path clip-path="url(#clip950)" d="M1267.66 1546.53 L1267.66 1568.04 L1261.8 1568.04 L1261.8 1546.72 Q1261.8 1541.66 1259.83 1539.14 Q1257.86 1536.63 1253.91 1536.63 Q1249.17 1536.63 1246.43 1539.65 Q1243.69 1542.68 1243.69 1547.9 L1243.69 1568.04 L1237.8 1568.04 L1237.8 1532.4 L1243.69 1532.4 L1243.69 1537.93 Q1245.79 1534.72 1248.63 1533.13 Q1251.49 1531.54 1255.21 1531.54 Q1261.36 1531.54 1264.51 1535.36 Q1267.66 1539.14 1267.66 1546.53 Z" fill="#000000" fill-rule="nonzero" fill-opacity="1" /><path clip-path="url(#clip950)" d="M1304.99 1533.76 L1304.99 1539.24 Q1302.51 1537.87 1300 1537.2 Q1297.51 1536.5 1294.97 1536.5 Q1289.27 1536.5 1286.12 1540.13 Q1282.97 1543.73 1282.97 1550.25 Q1282.97 1556.78 1286.12 1560.4 Q1289.27 1564 1294.97 1564 Q1297.51 1564 1300 1563.33 Q1302.51 1562.63 1304.99 1561.26 L1304.99 1566.68 Q1302.54 1567.82 1299.9 1568.39 Q1297.29 1568.97 1294.33 1568.97 Q1286.28 1568.97 1281.54 1563.91 Q1276.79 1558.85 1276.79 1550.25 Q1276.79 1541.53 1281.57 1536.53 Q1286.37 1531.54 1294.71 1531.54 Q1297.42 1531.54 1300 1532.11 Q1302.58 1532.65 1304.99 1533.76 Z" fill="#000000" fill-rule="nonzero" fill-opacity="1" /><path clip-path="url(#clip950)" d="M1315.18 1532.4 L1321.04 1532.4 L1321.04 1568.04 L1315.18 1568.04 L1315.18 1532.4 M1315.18 1518.52 L1321.04 1518.52 L1321.04 1525.93 L1315.18 1525.93 L1315.18 1518.52 Z" fill="#000000" fill-rule="nonzero" fill-opacity="1" /><path clip-path="url(#clip950)" d="M1363.78 1548.76 L1363.78 1551.62 L1336.85 1551.62 Q1337.24 1557.67 1340.48 1560.85 Q1343.76 1564 1349.59 1564 Q1352.96 1564 1356.11 1563.17 Q1359.29 1562.35 1362.41 1560.69 L1362.41 1566.23 Q1359.26 1567.57 1355.95 1568.27 Q1352.64 1568.97 1349.24 1568.97 Q1340.71 1568.97 1335.71 1564 Q1330.74 1559.04 1330.74 1550.57 Q1330.74 1541.82 1335.45 1536.69 Q1340.2 1531.54 1348.22 1531.54 Q1355.41 1531.54 1359.58 1536.18 Q1363.78 1540.8 1363.78 1548.76 M1357.93 1547.04 Q1357.86 1542.23 1355.22 1539.37 Q1352.61 1536.5 1348.28 1536.5 Q1343.38 1536.5 1340.42 1539.27 Q1337.49 1542.04 1337.05 1547.07 L1357.93 1547.04 Z" fill="#000000" fill-rule="nonzero" fill-opacity="1" /><path clip-path="url(#clip950)" d="M1396.12 1533.45 L1396.12 1538.98 Q1393.64 1537.71 1390.96 1537.07 Q1388.29 1536.44 1385.43 1536.44 Q1381.06 1536.44 1378.87 1537.77 Q1376.7 1539.11 1376.7 1541.79 Q1376.7 1543.82 1378.26 1545 Q1379.82 1546.15 1384.53 1547.2 L1386.54 1547.64 Q1392.78 1548.98 1395.39 1551.43 Q1398.03 1553.85 1398.03 1558.21 Q1398.03 1563.17 1394.08 1566.07 Q1390.17 1568.97 1383.29 1568.97 Q1380.43 1568.97 1377.31 1568.39 Q1374.22 1567.85 1370.78 1566.74 L1370.78 1560.69 Q1374.03 1562.38 1377.18 1563.24 Q1380.33 1564.07 1383.42 1564.07 Q1387.56 1564.07 1389.79 1562.66 Q1392.01 1561.23 1392.01 1558.65 Q1392.01 1556.27 1390.39 1554.99 Q1388.8 1553.72 1383.36 1552.54 L1381.32 1552.07 Q1375.88 1550.92 1373.46 1548.56 Q1371.04 1546.18 1371.04 1542.04 Q1371.04 1537.01 1374.6 1534.27 Q1378.17 1531.54 1384.72 1531.54 Q1387.97 1531.54 1390.84 1532.01 Q1393.7 1532.49 1396.12 1533.45 Z" fill="#000000" fill-rule="nonzero" fill-opacity="1" /><path clip-path="url(#clip950)" d="M1427.53 1518.52 L1441.03 1518.52 L1441.03 1523.07 L1433.39 1523.07 L1433.39 1572.09 L1441.03 1572.09 L1441.03 1576.64 L1427.53 1576.64 L1427.53 1518.52 Z" fill="#000000" fill-rule="nonzero" fill-opacity="1" /><path clip-path="url(#clip950)" d="M1486.16 1561.26 L1486.16 1548.5 L1475.66 1548.5 L1475.66 1543.22 L1492.53 1543.22 L1492.53 1563.62 Q1488.8 1566.26 1484.32 1567.63 Q1479.83 1568.97 1474.74 1568.97 Q1463.6 1568.97 1457.29 1562.47 Q1451.02 1555.95 1451.02 1544.33 Q1451.02 1532.68 1457.29 1526.19 Q1463.6 1519.66 1474.74 1519.66 Q1479.38 1519.66 1483.55 1520.81 Q1487.75 1521.96 1491.29 1524.18 L1491.29 1531.03 Q1487.72 1528 1483.71 1526.48 Q1479.7 1524.95 1475.28 1524.95 Q1466.56 1524.95 1462.16 1529.82 Q1457.8 1534.69 1457.8 1544.33 Q1457.8 1553.94 1462.16 1558.81 Q1466.56 1563.68 1475.28 1563.68 Q1478.68 1563.68 1481.36 1563.11 Q1484.03 1562.51 1486.16 1561.26 Z" fill="#000000" fill-rule="nonzero" fill-opacity="1" /><path clip-path="url(#clip950)" d="M1504.27 1520.52 L1510.7 1520.52 L1510.7 1540 L1534.06 1540 L1534.06 1520.52 L1540.49 1520.52 L1540.49 1568.04 L1534.06 1568.04 L1534.06 1545.41 L1510.7 1545.41 L1510.7 1568.04 L1504.27 1568.04 L1504.27 1520.52 Z" fill="#000000" fill-rule="nonzero" fill-opacity="1" /><path clip-path="url(#clip950)" d="M1550.49 1532.4 L1578.31 1532.4 L1578.31 1537.74 L1556.28 1563.37 L1578.31 1563.37 L1578.31 1568.04 L1549.69 1568.04 L1549.69 1562.7 L1571.72 1537.07 L1550.49 1537.07 L1550.49 1532.4 Z" fill="#000000" fill-rule="nonzero" fill-opacity="1" /><path clip-path="url(#clip950)" d="M1600.94 1518.52 L1600.94 1576.64 L1587.44 1576.64 L1587.44 1572.09 L1595.05 1572.09 L1595.05 1523.07 L1587.44 1523.07 L1587.44 1518.52 L1600.94 1518.52 Z" fill="#000000" fill-rule="nonzero" fill-opacity="1" /><polyline clip-path="url(#clip950)" style="stroke:#000000; stroke-linecap:round; stroke-linejoin:round; stroke-width:4; stroke-opacity:1; fill:none" points="265.445,1423.18 265.445,47.2441 "/>
<polyline clip-path="url(#clip950)" style="stroke:#000000; stroke-linecap:round; stroke-linejoin:round; stroke-width:4; stroke-opacity:1; fill:none" points="265.445,1384.31 284.342,1384.31 "/>
<polyline clip-path="url(#clip950)" style="stroke:#000000; stroke-linecap:round; stroke-linejoin:round; stroke-width:4; stroke-opacity:1; fill:none" points="265.445,1163.91 284.342,1163.91 "/>
<polyline clip-path="url(#clip950)" style="stroke:#000000; stroke-linecap:round; stroke-linejoin:round; stroke-width:4; stroke-opacity:1; fill:none" points="265.445,943.504 284.342,943.504 "/>
<polyline clip-path="url(#clip950)" style="stroke:#000000; stroke-linecap:round; stroke-linejoin:round; stroke-width:4; stroke-opacity:1; fill:none" points="265.445,723.103 284.342,723.103 "/>
<polyline clip-path="url(#clip950)" style="stroke:#000000; stroke-linecap:round; stroke-linejoin:round; stroke-width:4; stroke-opacity:1; fill:none" points="265.445,502.703 284.342,502.703 "/>
<polyline clip-path="url(#clip950)" style="stroke:#000000; stroke-linecap:round; stroke-linejoin:round; stroke-width:4; stroke-opacity:1; fill:none" points="265.445,282.302 284.342,282.302 "/>
<polyline clip-path="url(#clip950)" style="stroke:#000000; stroke-linecap:round; stroke-linejoin:round; stroke-width:4; stroke-opacity:1; fill:none" points="265.445,61.9008 284.342,61.9008 "/>
<path clip-path="url(#clip950)" d="M217.5 1370.1 Q213.889 1370.1 212.061 1373.67 Q210.255 1377.21 210.255 1384.34 Q210.255 1391.45 212.061 1395.01 Q213.889 1398.55 217.5 1398.55 Q221.135 1398.55 222.94 1395.01 Q224.769 1391.45 224.769 1384.34 Q224.769 1377.21 222.94 1373.67 Q221.135 1370.1 217.5 1370.1 M217.5 1366.4 Q223.31 1366.4 226.366 1371.01 Q229.445 1375.59 229.445 1384.34 Q229.445 1393.07 226.366 1397.67 Q223.31 1402.26 217.5 1402.26 Q211.69 1402.26 208.612 1397.67 Q205.556 1393.07 205.556 1384.34 Q205.556 1375.59 208.612 1371.01 Q211.69 1366.4 217.5 1366.4 Z" fill="#000000" fill-rule="nonzero" fill-opacity="1" /><path clip-path="url(#clip950)" d="M117.825 1177.25 L125.464 1177.25 L125.464 1150.88 L117.154 1152.55 L117.154 1148.29 L125.418 1146.63 L130.093 1146.63 L130.093 1177.25 L137.732 1177.25 L137.732 1181.19 L117.825 1181.19 L117.825 1177.25 Z" fill="#000000" fill-rule="nonzero" fill-opacity="1" /><path clip-path="url(#clip950)" d="M157.177 1149.7 Q153.566 1149.7 151.737 1153.27 Q149.931 1156.81 149.931 1163.94 Q149.931 1171.05 151.737 1174.61 Q153.566 1178.15 157.177 1178.15 Q160.811 1178.15 162.616 1174.61 Q164.445 1171.05 164.445 1163.94 Q164.445 1156.81 162.616 1153.27 Q160.811 1149.7 157.177 1149.7 M157.177 1146 Q162.987 1146 166.042 1150.61 Q169.121 1155.19 169.121 1163.94 Q169.121 1172.67 166.042 1177.27 Q162.987 1181.86 157.177 1181.86 Q151.366 1181.86 148.288 1177.27 Q145.232 1172.67 145.232 1163.94 Q145.232 1155.19 148.288 1150.61 Q151.366 1146 157.177 1146 Z" fill="#000000" fill-rule="nonzero" fill-opacity="1" /><path clip-path="url(#clip950)" d="M187.338 1149.7 Q183.727 1149.7 181.899 1153.27 Q180.093 1156.81 180.093 1163.94 Q180.093 1171.05 181.899 1174.61 Q183.727 1178.15 187.338 1178.15 Q190.973 1178.15 192.778 1174.61 Q194.607 1171.05 194.607 1163.94 Q194.607 1156.81 192.778 1153.27 Q190.973 1149.7 187.338 1149.7 M187.338 1146 Q193.149 1146 196.204 1150.61 Q199.283 1155.19 199.283 1163.94 Q199.283 1172.67 196.204 1177.27 Q193.149 1181.86 187.338 1181.86 Q181.528 1181.86 178.45 1177.27 Q175.394 1172.67 175.394 1163.94 Q175.394 1155.19 178.45 1150.61 Q181.528 1146 187.338 1146 Z" fill="#000000" fill-rule="nonzero" fill-opacity="1" /><path clip-path="url(#clip950)" d="M217.5 1149.7 Q213.889 1149.7 212.061 1153.27 Q210.255 1156.81 210.255 1163.94 Q210.255 1171.05 212.061 1174.61 Q213.889 1178.15 217.5 1178.15 Q221.135 1178.15 222.94 1174.61 Q224.769 1171.05 224.769 1163.94 Q224.769 1156.81 222.94 1153.27 Q221.135 1149.7 217.5 1149.7 M217.5 1146 Q223.31 1146 226.366 1150.61 Q229.445 1155.19 229.445 1163.94 Q229.445 1172.67 226.366 1177.27 Q223.31 1181.86 217.5 1181.86 Q211.69 1181.86 208.612 1177.27 Q205.556 1172.67 205.556 1163.94 Q205.556 1155.19 208.612 1150.61 Q211.69 1146 217.5 1146 Z" fill="#000000" fill-rule="nonzero" fill-opacity="1" /><path clip-path="url(#clip950)" d="M121.043 956.849 L137.362 956.849 L137.362 960.784 L115.418 960.784 L115.418 956.849 Q118.08 954.094 122.663 949.465 Q127.269 944.812 128.45 943.47 Q130.695 940.946 131.575 939.21 Q132.478 937.451 132.478 935.761 Q132.478 933.007 130.533 931.271 Q128.612 929.534 125.51 929.534 Q123.311 929.534 120.857 930.298 Q118.427 931.062 115.649 932.613 L115.649 927.891 Q118.473 926.757 120.927 926.178 Q123.38 925.599 125.418 925.599 Q130.788 925.599 133.982 928.284 Q137.177 930.97 137.177 935.46 Q137.177 937.59 136.367 939.511 Q135.579 941.409 133.473 944.002 Q132.894 944.673 129.792 947.891 Q126.691 951.085 121.043 956.849 Z" fill="#000000" fill-rule="nonzero" fill-opacity="1" /><path clip-path="url(#clip950)" d="M157.177 929.303 Q153.566 929.303 151.737 932.868 Q149.931 936.409 149.931 943.539 Q149.931 950.645 151.737 954.21 Q153.566 957.752 157.177 957.752 Q160.811 957.752 162.616 954.21 Q164.445 950.645 164.445 943.539 Q164.445 936.409 162.616 932.868 Q160.811 929.303 157.177 929.303 M157.177 925.599 Q162.987 925.599 166.042 930.206 Q169.121 934.789 169.121 943.539 Q169.121 952.266 166.042 956.872 Q162.987 961.456 157.177 961.456 Q151.366 961.456 148.288 956.872 Q145.232 952.266 145.232 943.539 Q145.232 934.789 148.288 930.206 Q151.366 925.599 157.177 925.599 Z" fill="#000000" fill-rule="nonzero" fill-opacity="1" /><path clip-path="url(#clip950)" d="M187.338 929.303 Q183.727 929.303 181.899 932.868 Q180.093 936.409 180.093 943.539 Q180.093 950.645 181.899 954.21 Q183.727 957.752 187.338 957.752 Q190.973 957.752 192.778 954.21 Q194.607 950.645 194.607 943.539 Q194.607 936.409 192.778 932.868 Q190.973 929.303 187.338 929.303 M187.338 925.599 Q193.149 925.599 196.204 930.206 Q199.283 934.789 199.283 943.539 Q199.283 952.266 196.204 956.872 Q193.149 961.456 187.338 961.456 Q181.528 961.456 178.45 956.872 Q175.394 952.266 175.394 943.539 Q175.394 934.789 178.45 930.206 Q181.528 925.599 187.338 925.599 Z" fill="#000000" fill-rule="nonzero" fill-opacity="1" /><path clip-path="url(#clip950)" d="M217.5 929.303 Q213.889 929.303 212.061 932.868 Q210.255 936.409 210.255 943.539 Q210.255 950.645 212.061 954.21 Q213.889 957.752 217.5 957.752 Q221.135 957.752 222.94 954.21 Q224.769 950.645 224.769 943.539 Q224.769 936.409 222.94 932.868 Q221.135 929.303 217.5 929.303 M217.5 925.599 Q223.31 925.599 226.366 930.206 Q229.445 934.789 229.445 943.539 Q229.445 952.266 226.366 956.872 Q223.31 961.456 217.5 961.456 Q211.69 961.456 208.612 956.872 Q205.556 952.266 205.556 943.539 Q205.556 934.789 208.612 930.206 Q211.69 925.599 217.5 925.599 Z" fill="#000000" fill-rule="nonzero" fill-opacity="1" /><path clip-path="url(#clip950)" d="M131.181 721.749 Q134.538 722.467 136.413 724.735 Q138.311 727.004 138.311 730.337 Q138.311 735.453 134.792 738.254 Q131.274 741.055 124.793 741.055 Q122.617 741.055 120.302 740.615 Q118.01 740.198 115.556 739.342 L115.556 734.828 Q117.501 735.962 119.816 736.541 Q122.13 737.12 124.654 737.12 Q129.052 737.12 131.343 735.383 Q133.658 733.647 133.658 730.337 Q133.658 727.282 131.505 725.569 Q129.376 723.833 125.556 723.833 L121.529 723.833 L121.529 719.99 L125.742 719.99 Q129.191 719.99 131.019 718.624 Q132.848 717.235 132.848 714.643 Q132.848 711.981 130.95 710.569 Q129.075 709.134 125.556 709.134 Q123.635 709.134 121.436 709.55 Q119.237 709.967 116.598 710.847 L116.598 706.68 Q119.26 705.939 121.575 705.569 Q123.913 705.198 125.973 705.198 Q131.297 705.198 134.399 707.629 Q137.501 710.036 137.501 714.157 Q137.501 717.027 135.857 719.018 Q134.214 720.985 131.181 721.749 Z" fill="#000000" fill-rule="nonzero" fill-opacity="1" /><path clip-path="url(#clip950)" d="M157.177 708.902 Q153.566 708.902 151.737 712.467 Q149.931 716.009 149.931 723.138 Q149.931 730.245 151.737 733.809 Q153.566 737.351 157.177 737.351 Q160.811 737.351 162.616 733.809 Q164.445 730.245 164.445 723.138 Q164.445 716.009 162.616 712.467 Q160.811 708.902 157.177 708.902 M157.177 705.198 Q162.987 705.198 166.042 709.805 Q169.121 714.388 169.121 723.138 Q169.121 731.865 166.042 736.471 Q162.987 741.055 157.177 741.055 Q151.366 741.055 148.288 736.471 Q145.232 731.865 145.232 723.138 Q145.232 714.388 148.288 709.805 Q151.366 705.198 157.177 705.198 Z" fill="#000000" fill-rule="nonzero" fill-opacity="1" /><path clip-path="url(#clip950)" d="M187.338 708.902 Q183.727 708.902 181.899 712.467 Q180.093 716.009 180.093 723.138 Q180.093 730.245 181.899 733.809 Q183.727 737.351 187.338 737.351 Q190.973 737.351 192.778 733.809 Q194.607 730.245 194.607 723.138 Q194.607 716.009 192.778 712.467 Q190.973 708.902 187.338 708.902 M187.338 705.198 Q193.149 705.198 196.204 709.805 Q199.283 714.388 199.283 723.138 Q199.283 731.865 196.204 736.471 Q193.149 741.055 187.338 741.055 Q181.528 741.055 178.45 736.471 Q175.394 731.865 175.394 723.138 Q175.394 714.388 178.45 709.805 Q181.528 705.198 187.338 705.198 Z" fill="#000000" fill-rule="nonzero" fill-opacity="1" /><path clip-path="url(#clip950)" d="M217.5 708.902 Q213.889 708.902 212.061 712.467 Q210.255 716.009 210.255 723.138 Q210.255 730.245 212.061 733.809 Q213.889 737.351 217.5 737.351 Q221.135 737.351 222.94 733.809 Q224.769 730.245 224.769 723.138 Q224.769 716.009 222.94 712.467 Q221.135 708.902 217.5 708.902 M217.5 705.198 Q223.31 705.198 226.366 709.805 Q229.445 714.388 229.445 723.138 Q229.445 731.865 226.366 736.471 Q223.31 741.055 217.5 741.055 Q211.69 741.055 208.612 736.471 Q205.556 731.865 205.556 723.138 Q205.556 714.388 208.612 709.805 Q211.69 705.198 217.5 705.198 Z" fill="#000000" fill-rule="nonzero" fill-opacity="1" /><path clip-path="url(#clip950)" d="M129.862 489.497 L118.056 507.946 L129.862 507.946 L129.862 489.497 M128.635 485.423 L134.515 485.423 L134.515 507.946 L139.445 507.946 L139.445 511.834 L134.515 511.834 L134.515 519.983 L129.862 519.983 L129.862 511.834 L114.26 511.834 L114.26 507.321 L128.635 485.423 Z" fill="#000000" fill-rule="nonzero" fill-opacity="1" /><path clip-path="url(#clip950)" d="M157.177 488.501 Q153.566 488.501 151.737 492.066 Q149.931 495.608 149.931 502.737 Q149.931 509.844 151.737 513.408 Q153.566 516.95 157.177 516.95 Q160.811 516.95 162.616 513.408 Q164.445 509.844 164.445 502.737 Q164.445 495.608 162.616 492.066 Q160.811 488.501 157.177 488.501 M157.177 484.798 Q162.987 484.798 166.042 489.404 Q169.121 493.987 169.121 502.737 Q169.121 511.464 166.042 516.071 Q162.987 520.654 157.177 520.654 Q151.366 520.654 148.288 516.071 Q145.232 511.464 145.232 502.737 Q145.232 493.987 148.288 489.404 Q151.366 484.798 157.177 484.798 Z" fill="#000000" fill-rule="nonzero" fill-opacity="1" /><path clip-path="url(#clip950)" d="M187.338 488.501 Q183.727 488.501 181.899 492.066 Q180.093 495.608 180.093 502.737 Q180.093 509.844 181.899 513.408 Q183.727 516.95 187.338 516.95 Q190.973 516.95 192.778 513.408 Q194.607 509.844 194.607 502.737 Q194.607 495.608 192.778 492.066 Q190.973 488.501 187.338 488.501 M187.338 484.798 Q193.149 484.798 196.204 489.404 Q199.283 493.987 199.283 502.737 Q199.283 511.464 196.204 516.071 Q193.149 520.654 187.338 520.654 Q181.528 520.654 178.45 516.071 Q175.394 511.464 175.394 502.737 Q175.394 493.987 178.45 489.404 Q181.528 484.798 187.338 484.798 Z" fill="#000000" fill-rule="nonzero" fill-opacity="1" /><path clip-path="url(#clip950)" d="M217.5 488.501 Q213.889 488.501 212.061 492.066 Q210.255 495.608 210.255 502.737 Q210.255 509.844 212.061 513.408 Q213.889 516.95 217.5 516.95 Q221.135 516.95 222.94 513.408 Q224.769 509.844 224.769 502.737 Q224.769 495.608 222.94 492.066 Q221.135 488.501 217.5 488.501 M217.5 484.798 Q223.31 484.798 226.366 489.404 Q229.445 493.987 229.445 502.737 Q229.445 511.464 226.366 516.071 Q223.31 520.654 217.5 520.654 Q211.69 520.654 208.612 516.071 Q205.556 511.464 205.556 502.737 Q205.556 493.987 208.612 489.404 Q211.69 484.798 217.5 484.798 Z" fill="#000000" fill-rule="nonzero" fill-opacity="1" /><path clip-path="url(#clip950)" d="M117.061 265.022 L135.417 265.022 L135.417 268.957 L121.343 268.957 L121.343 277.429 Q122.362 277.082 123.38 276.92 Q124.399 276.735 125.418 276.735 Q131.205 276.735 134.584 279.906 Q137.964 283.077 137.964 288.494 Q137.964 294.072 134.492 297.174 Q131.019 300.253 124.7 300.253 Q122.524 300.253 120.255 299.883 Q118.01 299.512 115.603 298.771 L115.603 294.072 Q117.686 295.207 119.908 295.762 Q122.13 296.318 124.607 296.318 Q128.612 296.318 130.95 294.211 Q133.288 292.105 133.288 288.494 Q133.288 284.883 130.95 282.776 Q128.612 280.67 124.607 280.67 Q122.732 280.67 120.857 281.086 Q119.006 281.503 117.061 282.383 L117.061 265.022 Z" fill="#000000" fill-rule="nonzero" fill-opacity="1" /><path clip-path="url(#clip950)" d="M157.177 268.1 Q153.566 268.1 151.737 271.665 Q149.931 275.207 149.931 282.336 Q149.931 289.443 151.737 293.008 Q153.566 296.549 157.177 296.549 Q160.811 296.549 162.616 293.008 Q164.445 289.443 164.445 282.336 Q164.445 275.207 162.616 271.665 Q160.811 268.1 157.177 268.1 M157.177 264.397 Q162.987 264.397 166.042 269.003 Q169.121 273.586 169.121 282.336 Q169.121 291.063 166.042 295.67 Q162.987 300.253 157.177 300.253 Q151.366 300.253 148.288 295.67 Q145.232 291.063 145.232 282.336 Q145.232 273.586 148.288 269.003 Q151.366 264.397 157.177 264.397 Z" fill="#000000" fill-rule="nonzero" fill-opacity="1" /><path clip-path="url(#clip950)" d="M187.338 268.1 Q183.727 268.1 181.899 271.665 Q180.093 275.207 180.093 282.336 Q180.093 289.443 181.899 293.008 Q183.727 296.549 187.338 296.549 Q190.973 296.549 192.778 293.008 Q194.607 289.443 194.607 282.336 Q194.607 275.207 192.778 271.665 Q190.973 268.1 187.338 268.1 M187.338 264.397 Q193.149 264.397 196.204 269.003 Q199.283 273.586 199.283 282.336 Q199.283 291.063 196.204 295.67 Q193.149 300.253 187.338 300.253 Q181.528 300.253 178.45 295.67 Q175.394 291.063 175.394 282.336 Q175.394 273.586 178.45 269.003 Q181.528 264.397 187.338 264.397 Z" fill="#000000" fill-rule="nonzero" fill-opacity="1" /><path clip-path="url(#clip950)" d="M217.5 268.1 Q213.889 268.1 212.061 271.665 Q210.255 275.207 210.255 282.336 Q210.255 289.443 212.061 293.008 Q213.889 296.549 217.5 296.549 Q221.135 296.549 222.94 293.008 Q224.769 289.443 224.769 282.336 Q224.769 275.207 222.94 271.665 Q221.135 268.1 217.5 268.1 M217.5 264.397 Q223.31 264.397 226.366 269.003 Q229.445 273.586 229.445 282.336 Q229.445 291.063 226.366 295.67 Q223.31 300.253 217.5 300.253 Q211.69 300.253 208.612 295.67 Q205.556 291.063 205.556 282.336 Q205.556 273.586 208.612 269.003 Q211.69 264.397 217.5 264.397 Z" fill="#000000" fill-rule="nonzero" fill-opacity="1" /><path clip-path="url(#clip950)" d="M127.593 60.0374 Q124.445 60.0374 122.593 62.1902 Q120.765 64.3429 120.765 68.0929 Q120.765 71.8197 122.593 73.9957 Q124.445 76.1484 127.593 76.1484 Q130.742 76.1484 132.57 73.9957 Q134.422 71.8197 134.422 68.0929 Q134.422 64.3429 132.57 62.1902 Q130.742 60.0374 127.593 60.0374 M136.876 45.3847 L136.876 49.6439 Q135.117 48.8106 133.311 48.3708 Q131.529 47.931 129.769 47.931 Q125.14 47.931 122.686 51.056 Q120.255 54.181 119.908 60.5004 Q121.274 58.4865 123.334 57.4217 Q125.394 56.3337 127.871 56.3337 Q133.08 56.3337 136.089 59.505 Q139.121 62.6531 139.121 68.0929 Q139.121 73.417 135.973 76.6345 Q132.825 79.8521 127.593 79.8521 Q121.598 79.8521 118.427 75.2688 Q115.256 70.6623 115.256 61.9355 Q115.256 53.7411 119.144 48.8801 Q123.033 43.9958 129.584 43.9958 Q131.343 43.9958 133.126 44.343 Q134.931 44.6903 136.876 45.3847 Z" fill="#000000" fill-rule="nonzero" fill-opacity="1" /><path clip-path="url(#clip950)" d="M157.177 47.6995 Q153.566 47.6995 151.737 51.2643 Q149.931 54.806 149.931 61.9355 Q149.931 69.042 151.737 72.6068 Q153.566 76.1484 157.177 76.1484 Q160.811 76.1484 162.616 72.6068 Q164.445 69.042 164.445 61.9355 Q164.445 54.806 162.616 51.2643 Q160.811 47.6995 157.177 47.6995 M157.177 43.9958 Q162.987 43.9958 166.042 48.6023 Q169.121 53.1856 169.121 61.9355 Q169.121 70.6623 166.042 75.2688 Q162.987 79.8521 157.177 79.8521 Q151.366 79.8521 148.288 75.2688 Q145.232 70.6623 145.232 61.9355 Q145.232 53.1856 148.288 48.6023 Q151.366 43.9958 157.177 43.9958 Z" fill="#000000" fill-rule="nonzero" fill-opacity="1" /><path clip-path="url(#clip950)" d="M187.338 47.6995 Q183.727 47.6995 181.899 51.2643 Q180.093 54.806 180.093 61.9355 Q180.093 69.042 181.899 72.6068 Q183.727 76.1484 187.338 76.1484 Q190.973 76.1484 192.778 72.6068 Q194.607 69.042 194.607 61.9355 Q194.607 54.806 192.778 51.2643 Q190.973 47.6995 187.338 47.6995 M187.338 43.9958 Q193.149 43.9958 196.204 48.6023 Q199.283 53.1856 199.283 61.9355 Q199.283 70.6623 196.204 75.2688 Q193.149 79.8521 187.338 79.8521 Q181.528 79.8521 178.45 75.2688 Q175.394 70.6623 175.394 61.9355 Q175.394 53.1856 178.45 48.6023 Q181.528 43.9958 187.338 43.9958 Z" fill="#000000" fill-rule="nonzero" fill-opacity="1" /><path clip-path="url(#clip950)" d="M217.5 47.6995 Q213.889 47.6995 212.061 51.2643 Q210.255 54.806 210.255 61.9355 Q210.255 69.042 212.061 72.6068 Q213.889 76.1484 217.5 76.1484 Q221.135 76.1484 222.94 72.6068 Q224.769 69.042 224.769 61.9355 Q224.769 54.806 222.94 51.2643 Q221.135 47.6995 217.5 47.6995 M217.5 43.9958 Q223.31 43.9958 226.366 48.6023 Q229.445 53.1856 229.445 61.9355 Q229.445 70.6623 226.366 75.2688 Q223.31 79.8521 217.5 79.8521 Q211.69 79.8521 208.612 75.2688 Q205.556 70.6623 205.556 61.9355 Q205.556 53.1856 208.612 48.6023 Q211.69 43.9958 217.5 43.9958 Z" fill="#000000" fill-rule="nonzero" fill-opacity="1" /><path clip-path="url(#clip950)" d="M41.3104 969.884 L58.7206 969.884 L58.7206 959.571 Q58.7206 954.383 56.5881 951.901 Q54.4238 949.386 49.9996 949.386 Q45.5436 949.386 43.4429 951.901 Q41.3104 954.383 41.3104 959.571 L41.3104 969.884 M21.7677 969.884 L36.0905 969.884 L36.0905 960.367 Q36.0905 955.656 34.34 953.365 Q32.5576 951.041 28.9291 951.041 Q25.3325 951.041 23.5501 953.365 Q21.7677 955.656 21.7677 960.367 L21.7677 969.884 M16.4842 976.313 L16.4842 959.89 Q16.4842 952.537 19.5397 948.559 Q22.5952 944.58 28.2289 944.58 Q32.5894 944.58 35.1675 946.617 Q37.7456 948.654 38.3822 952.601 Q39.4007 947.858 42.6472 945.248 Q45.8619 942.607 50.6998 942.607 Q57.0655 942.607 60.5348 946.935 Q64.0042 951.264 64.0042 959.253 L64.0042 976.313 L16.4842 976.313 Z" fill="#000000" fill-rule="nonzero" fill-opacity="1" /><path clip-path="url(#clip950)" d="M32.4621 918.035 Q32.4621 922.746 36.1542 925.483 Q39.8145 928.22 46.212 928.22 Q52.6095 928.22 56.3017 925.515 Q59.9619 922.778 59.9619 918.035 Q59.9619 913.356 56.2698 910.619 Q52.5777 907.882 46.212 907.882 Q39.8781 907.882 36.186 910.619 Q32.4621 913.356 32.4621 918.035 M27.4968 918.035 Q27.4968 910.396 32.4621 906.036 Q37.4273 901.675 46.212 901.675 Q54.9649 901.675 59.9619 906.036 Q64.9272 910.396 64.9272 918.035 Q64.9272 925.706 59.9619 930.066 Q54.9649 934.395 46.212 934.395 Q37.4273 934.395 32.4621 930.066 Q27.4968 925.706 27.4968 918.035 Z" fill="#000000" fill-rule="nonzero" fill-opacity="1" /><path clip-path="url(#clip950)" d="M32.4621 878.154 Q32.4621 882.865 36.1542 885.602 Q39.8145 888.339 46.212 888.339 Q52.6095 888.339 56.3017 885.634 Q59.9619 882.896 59.9619 878.154 Q59.9619 873.475 56.2698 870.738 Q52.5777 868.001 46.212 868.001 Q39.8781 868.001 36.186 870.738 Q32.4621 873.475 32.4621 878.154 M27.4968 878.154 Q27.4968 870.515 32.4621 866.155 Q37.4273 861.794 46.212 861.794 Q54.9649 861.794 59.9619 866.155 Q64.9272 870.515 64.9272 878.154 Q64.9272 885.825 59.9619 890.185 Q54.9649 894.514 46.212 894.514 Q37.4273 894.514 32.4621 890.185 Q27.4968 885.825 27.4968 878.154 Z" fill="#000000" fill-rule="nonzero" fill-opacity="1" /><path clip-path="url(#clip950)" d="M29.4065 829.361 L34.9447 829.361 Q33.6716 831.843 33.035 834.517 Q32.3984 837.191 32.3984 840.055 Q32.3984 844.416 33.7352 846.612 Q35.072 848.776 37.7456 848.776 Q39.7826 848.776 40.9603 847.217 Q42.1061 845.657 43.1565 840.946 L43.6021 838.941 Q44.9389 832.703 47.3897 830.093 Q49.8086 827.451 54.1691 827.451 Q59.1344 827.451 62.0308 831.398 Q64.9272 835.313 64.9272 842.188 Q64.9272 845.052 64.3543 848.171 Q63.8132 851.259 62.6992 854.696 L56.6518 854.696 Q58.3387 851.45 59.198 848.299 Q60.0256 845.148 60.0256 842.06 Q60.0256 837.923 58.6251 835.695 Q57.1929 833.467 54.6147 833.467 Q52.2276 833.467 50.9545 835.09 Q49.6813 836.681 48.5037 842.124 L48.0262 844.161 Q46.8804 849.604 44.5251 852.023 Q42.138 854.442 38.0002 854.442 Q32.9713 854.442 30.2341 850.877 Q27.4968 847.312 27.4968 840.755 Q27.4968 837.509 27.9743 834.644 Q28.4517 831.78 29.4065 829.361 Z" fill="#000000" fill-rule="nonzero" fill-opacity="1" /><path clip-path="url(#clip950)" d="M18.2347 812.333 L28.3562 812.333 L28.3562 800.269 L32.9077 800.269 L32.9077 812.333 L52.2594 812.333 Q56.6199 812.333 57.8613 811.155 Q59.1026 809.945 59.1026 806.285 L59.1026 800.269 L64.0042 800.269 L64.0042 806.285 Q64.0042 813.065 61.4897 815.643 Q58.9434 818.221 52.2594 818.221 L32.9077 818.221 L32.9077 822.518 L28.3562 822.518 L28.3562 818.221 L18.2347 818.221 L18.2347 812.333 Z" fill="#000000" fill-rule="nonzero" fill-opacity="1" /><path clip-path="url(#clip950)" d="M16.4842 771.592 L16.4842 744.283 L21.895 744.283 L21.895 765.163 L35.8996 765.163 L35.8996 746.32 L41.3104 746.32 L41.3104 765.163 L64.0042 765.163 L64.0042 771.592 L16.4842 771.592 Z" fill="#000000" fill-rule="nonzero" fill-opacity="1" /><path clip-path="url(#clip950)" d="M46.0847 724.136 Q46.0847 731.233 47.7079 733.971 Q49.3312 736.708 53.2461 736.708 Q56.3653 736.708 58.2114 734.671 Q60.0256 732.602 60.0256 729.069 Q60.0256 724.199 56.5881 721.271 Q53.1188 718.311 47.3897 718.311 L46.0847 718.311 L46.0847 724.136 M43.6657 712.455 L64.0042 712.455 L64.0042 718.311 L58.5933 718.311 Q61.8398 720.316 63.3994 723.308 Q64.9272 726.3 64.9272 730.629 Q64.9272 736.103 61.8716 739.35 Q58.7843 742.564 53.6281 742.564 Q47.6125 742.564 44.5569 738.554 Q41.5014 734.512 41.5014 726.523 L41.5014 718.311 L40.9285 718.311 Q36.8862 718.311 34.6901 720.985 Q32.4621 723.626 32.4621 728.432 Q32.4621 731.488 33.1941 734.384 Q33.9262 737.281 35.3903 739.954 L29.9795 739.954 Q28.7381 736.74 28.1334 733.716 Q27.4968 730.692 27.4968 727.828 Q27.4968 720.093 31.5072 716.274 Q35.5176 712.455 43.6657 712.455 Z" fill="#000000" fill-rule="nonzero" fill-opacity="1" /><path clip-path="url(#clip950)" d="M29.7248 674.738 L35.1993 674.738 Q33.8307 677.22 33.1623 679.735 Q32.4621 682.217 32.4621 684.764 Q32.4621 690.461 36.0905 693.612 Q39.6872 696.763 46.212 696.763 Q52.7369 696.763 56.3653 693.612 Q59.9619 690.461 59.9619 684.764 Q59.9619 682.217 59.2935 679.735 Q58.5933 677.22 57.2247 674.738 L62.6355 674.738 Q63.7814 677.189 64.3543 679.83 Q64.9272 682.44 64.9272 685.4 Q64.9272 693.453 59.8664 698.195 Q54.8057 702.938 46.212 702.938 Q37.491 702.938 32.4939 698.164 Q27.4968 693.357 27.4968 685.018 Q27.4968 682.313 28.0697 679.735 Q28.6108 677.157 29.7248 674.738 Z" fill="#000000" fill-rule="nonzero" fill-opacity="1" /><path clip-path="url(#clip950)" d="M18.2347 658.76 L28.3562 658.76 L28.3562 646.697 L32.9077 646.697 L32.9077 658.76 L52.2594 658.76 Q56.6199 658.76 57.8613 657.582 Q59.1026 656.373 59.1026 652.712 L59.1026 646.697 L64.0042 646.697 L64.0042 652.712 Q64.0042 659.492 61.4897 662.07 Q58.9434 664.648 52.2594 664.648 L32.9077 664.648 L32.9077 668.945 L28.3562 668.945 L28.3562 664.648 L18.2347 664.648 L18.2347 658.76 Z" fill="#000000" fill-rule="nonzero" fill-opacity="1" /><path clip-path="url(#clip950)" d="M32.4621 625.181 Q32.4621 629.891 36.1542 632.629 Q39.8145 635.366 46.212 635.366 Q52.6095 635.366 56.3017 632.66 Q59.9619 629.923 59.9619 625.181 Q59.9619 620.502 56.2698 617.765 Q52.5777 615.027 46.212 615.027 Q39.8781 615.027 36.186 617.765 Q32.4621 620.502 32.4621 625.181 M27.4968 625.181 Q27.4968 617.542 32.4621 613.181 Q37.4273 608.821 46.212 608.821 Q54.9649 608.821 59.9619 613.181 Q64.9272 617.542 64.9272 625.181 Q64.9272 632.851 59.9619 637.212 Q54.9649 641.541 46.212 641.541 Q37.4273 641.541 32.4621 637.212 Q27.4968 632.851 27.4968 625.181 Z" fill="#000000" fill-rule="nonzero" fill-opacity="1" /><path clip-path="url(#clip950)" d="M33.8307 578.456 Q33.2578 579.443 33.0032 580.621 Q32.7167 581.767 32.7167 583.167 Q32.7167 588.132 35.9632 590.806 Q39.1779 593.448 45.2253 593.448 L64.0042 593.448 L64.0042 599.336 L28.3562 599.336 L28.3562 593.448 L33.8944 593.448 Q30.6479 591.602 29.0883 588.642 Q27.4968 585.682 27.4968 581.448 Q27.4968 580.844 27.5923 580.112 Q27.656 579.379 27.8151 578.488 L33.8307 578.456 Z" fill="#000000" fill-rule="nonzero" fill-opacity="1" /><path clip-path="url(#clip950)" d="M61.808 545.737 L77.5631 545.737 L77.5631 551.625 L28.579 551.625 Q14.0652 551.625 14.0652 538.066 Q14.0652 524.252 26.3192 524.252 Q35.0402 524.252 38.223 529.727 Q41.0876 520.815 49.5858 520.815 Q64.6726 520.815 64.6726 536.156 Q64.6726 542.904 61.808 545.737 M54.1691 545.737 Q59.6755 542.204 59.6755 535.934 Q59.6755 526.767 49.6813 526.767 Q40.7057 526.767 41.4059 541.535 L35.995 541.535 Q35.995 529.982 25.8099 529.982 Q18.8395 529.982 18.8395 537.429 Q18.8395 545.737 28.77 545.737 L54.1691 545.737 Z" fill="#000000" fill-rule="nonzero" fill-opacity="1" /><path clip-path="url(#clip950)" d="M39.1142 507.606 L39.1142 494.111 L42.7427 494.111 L42.7427 513.144 L39.2416 513.144 Q38.2549 512.062 36.4725 510.057 Q26.7648 499.108 23.7729 499.108 Q21.6722 499.108 20.3991 500.763 Q19.0941 502.418 19.0941 505.124 Q19.0941 506.779 19.667 508.72 Q20.2081 510.662 21.3221 512.953 L17.4072 512.953 Q16.516 510.503 16.0704 508.402 Q15.6248 506.269 15.6248 504.455 Q15.6248 499.84 17.7255 497.071 Q19.8262 494.302 23.2636 494.302 Q27.6878 494.302 36.7271 504.837 Q38.2549 506.619 39.1142 507.606 Z" fill="#000000" fill-rule="nonzero" fill-opacity="1" /><polyline clip-path="url(#clip952)" style="stroke:#009af9; stroke-linecap:round; stroke-linejoin:round; stroke-width:4; stroke-opacity:1; fill:none" points="324.52,1374.55 326.491,1374.53 328.462,1374.5 330.433,1374.48 332.404,1374.45 334.375,1374.43 336.346,1374.4 338.317,1374.38 340.289,1374.35 342.26,1374.32 344.231,1374.3 346.202,1374.27 348.173,1374.25 350.144,1374.22 352.115,1374.19 354.087,1374.17 356.058,1374.14 358.029,1374.11 360,1374.09 361.971,1374.06 363.942,1374.03 365.913,1374.01 367.884,1373.98 369.856,1373.95 371.827,1373.92 373.798,1373.9 375.769,1373.87 377.74,1373.84 379.711,1373.81 381.682,1373.78 383.654,1373.75 385.625,1373.73 387.596,1373.7 389.567,1373.67 391.538,1373.64 393.509,1373.61 395.48,1373.58 397.451,1373.55 399.423,1373.52 401.394,1373.49 403.365,1373.46 405.336,1373.43 407.307,1373.4 409.278,1373.37 411.249,1373.34 413.221,1373.3 415.192,1373.27 417.163,1373.24 419.134,1373.21 421.105,1373.18 423.076,1373.15 425.047,1373.11 427.018,1373.08 428.99,1373.05 430.961,1373.02 432.932,1372.98 434.903,1372.95 436.874,1372.92 438.845,1372.88 440.816,1372.85 442.788,1372.81 444.759,1372.78 446.73,1372.75 448.701,1372.71 450.672,1372.68 452.643,1372.64 454.614,1372.61 456.585,1372.57 458.557,1372.54 460.528,1372.5 462.499,1372.46 464.47,1372.43 466.441,1372.39 468.412,1372.35 470.383,1372.32 472.355,1372.28 474.326,1372.24 476.297,1372.2 478.268,1372.17 480.239,1372.13 482.21,1372.09 484.181,1372.05 486.152,1372.01 488.124,1371.97 490.095,1371.93 492.066,1371.89 494.037,1371.85 496.008,1371.81 497.979,1371.77 499.95,1371.73 501.922,1371.69 503.893,1371.65 505.864,1371.61 507.835,1371.57 509.806,1371.53 511.777,1371.48 513.748,1371.44 515.719,1371.4 517.691,1371.36 519.662,1371.31 521.633,1371.27 523.604,1371.22 525.575,1371.18 527.546,1371.14 529.517,1371.09 531.488,1371.05 533.46,1371 535.431,1370.96 537.402,1370.91 539.373,1370.86 541.344,1370.82 543.315,1370.77 545.286,1370.72 547.258,1370.68 549.229,1370.63 551.2,1370.58 553.171,1370.53 555.142,1370.48 557.113,1370.43 559.084,1370.38 561.055,1370.33 563.027,1370.28 564.998,1370.23 566.969,1370.18 568.94,1370.13 570.911,1370.08 572.882,1370.03 574.853,1369.97 576.825,1369.92 578.796,1369.87 580.767,1369.81 582.738,1369.76 584.709,1369.71 586.68,1369.65 588.651,1369.6 590.622,1369.54 592.594,1369.49 594.565,1369.43 596.536,1369.37 598.507,1369.32 600.478,1369.26 602.449,1369.2 604.42,1369.14 606.392,1369.08 608.363,1369.02 610.334,1368.96 612.305,1368.9 614.276,1368.84 616.247,1368.78 618.218,1368.72 620.189,1368.66 622.161,1368.6 624.132,1368.53 626.103,1368.47 628.074,1368.41 630.045,1368.34 632.016,1368.28 633.987,1368.21 635.959,1368.15 637.93,1368.08 639.901,1368.01 641.872,1367.95 643.843,1367.88 645.814,1367.81 647.785,1367.74 649.756,1367.67 651.728,1367.6 653.699,1367.53 655.67,1367.46 657.641,1367.39 659.612,1367.32 661.583,1367.24 663.554,1367.17 665.526,1367.1 667.497,1367.02 669.468,1366.95 671.439,1366.87 673.41,1366.79 675.381,1366.72 677.352,1366.64 679.323,1366.56 681.295,1366.48 683.266,1366.4 685.237,1366.32 687.208,1366.24 689.179,1366.16 691.15,1366.08 693.121,1365.99 695.093,1365.91 697.064,1365.82 699.035,1365.74 701.006,1365.65 702.977,1365.57 704.948,1365.48 706.919,1365.39 708.89,1365.3 710.862,1365.21 712.833,1365.12 714.804,1365.03 716.775,1364.94 718.746,1364.84 720.717,1364.75 722.688,1364.65 724.659,1364.56 726.631,1364.46 728.602,1364.37 730.573,1364.27 732.544,1364.17 734.515,1364.07 736.486,1363.97 738.457,1363.86 740.429,1363.76 742.4,1363.66 744.371,1363.55 746.342,1363.45 748.313,1363.34 750.284,1363.23 752.255,1363.12 754.226,1363.02 756.198,1362.9 758.169,1362.79 760.14,1362.68 762.111,1362.57 764.082,1362.45 766.053,1362.33 768.024,1362.22 769.996,1362.1 771.967,1361.98 773.938,1361.86 775.909,1361.74 777.88,1361.61 779.851,1361.49 781.822,1361.36 783.793,1361.24 785.765,1361.11 787.736,1360.98 789.707,1360.85 791.678,1360.71 793.649,1360.58 795.62,1360.45 797.591,1360.31 799.563,1360.17 801.534,1360.03 803.505,1359.89 805.476,1359.75 807.447,1359.61 809.418,1359.46 811.389,1359.32 813.36,1359.17 815.332,1359.02 817.303,1358.87 819.274,1358.71 821.245,1358.56 823.216,1358.4 825.187,1358.24 827.158,1358.08 829.13,1357.92 831.101,1357.76 833.072,1357.59 835.043,1357.43 837.014,1357.26 838.985,1357.09 840.956,1356.92 842.927,1356.74 844.899,1356.56 846.87,1356.39 848.841,1356.2 850.812,1356.02 852.783,1355.84 854.754,1355.65 856.725,1355.46 858.697,1355.27 860.668,1355.08 862.639,1354.88 864.61,1354.68 866.581,1354.48 868.552,1354.28 870.523,1354.07 872.494,1353.86 874.466,1353.65 876.437,1353.44 878.408,1353.22 880.379,1353.01 882.35,1352.78 884.321,1352.56 886.292,1352.33 888.264,1352.1 890.235,1351.87 892.206,1351.64 894.177,1351.4 896.148,1351.16 898.119,1350.91 900.09,1350.66 902.061,1350.41 904.033,1350.16 906.004,1349.9 907.975,1349.64 909.946,1349.38 911.917,1349.11 913.888,1348.84 915.859,1348.56 917.83,1348.28 919.802,1348 921.773,1347.71 923.744,1347.42 925.715,1347.13 927.686,1346.83 929.657,1346.53 931.628,1346.22 933.6,1345.91 935.571,1345.59 937.542,1345.27 939.513,1344.95 941.484,1344.62 943.455,1344.28 945.426,1343.94 947.397,1343.6 949.369,1343.25 951.34,1342.89 953.311,1342.53 955.282,1342.17 957.253,1341.8 959.224,1341.42 961.195,1341.04 963.167,1340.65 965.138,1340.26 967.109,1339.86 969.08,1339.45 971.051,1339.04 973.022,1338.62 974.993,1338.19 976.964,1337.76 978.936,1337.32 980.907,1336.87 982.878,1336.42 984.849,1335.96 986.82,1335.49 988.791,1335.01 990.762,1334.53 992.734,1334.04 994.705,1333.54 996.676,1333.03 998.647,1332.51 1000.62,1331.98 1002.59,1331.45 1004.56,1330.9 1006.53,1330.35 1008.5,1329.78 1010.47,1329.21 1012.44,1328.62 1014.42,1328.03 1016.39,1327.42 1018.36,1326.8 1020.33,1326.18 1022.3,1325.54 1024.27,1324.89 1026.24,1324.22 1028.21,1323.55 1030.19,1322.86 1032.16,1322.16 1034.13,1321.44 1036.1,1320.71 1038.07,1319.97 1040.04,1319.21 1042.01,1318.44 1043.98,1317.65 1045.95,1316.85 1047.93,1316.03 1049.9,1315.19 1051.87,1314.34 1053.84,1313.47 1055.81,1312.58 1057.78,1311.67 1059.75,1310.75 1061.72,1309.8 1063.69,1308.84 1065.67,1307.85 1067.64,1306.84 1069.61,1305.81 1071.58,1304.76 1073.55,1303.69 1075.52,1302.59 1077.49,1301.47 1079.46,1300.32 1081.43,1299.14 1083.41,1297.94 1085.38,1296.71 1087.35,1295.45 1089.32,1294.17 1091.29,1292.85 1093.26,1291.5 1095.23,1290.12 1097.2,1288.7 1099.17,1287.25 1101.15,1285.77 1103.12,1284.24 1105.09,1282.68 1107.06,1281.08 1109.03,1279.44 1111,1277.76 1112.97,1276.04 1114.94,1274.27 1116.91,1272.45 1118.89,1270.58 1120.86,1268.67 1122.83,1266.7 1124.8,1264.68 1126.77,1262.6 1128.74,1260.47 1130.71,1258.27 1132.68,1256.02 1134.66,1253.7 1136.63,1251.31 1138.6,1248.86 1140.57,1246.33 1142.54,1243.73 1144.51,1241.05 1146.48,1238.29 1148.45,1235.44 1150.42,1232.51 1152.4,1229.49 1154.37,1226.38 1156.34,1223.16 1158.31,1219.85 1160.28,1216.42 1162.25,1212.89 1164.22,1209.24 1166.19,1205.47 1168.16,1201.57 1170.14,1197.55 1172.11,1193.38 1174.08,1189.08 1176.05,1184.62 1178.02,1180.01 1179.99,1175.24 1181.96,1170.29 1183.93,1165.17 1185.9,1159.86 1187.88,1154.36 1189.85,1148.65 1191.82,1142.73 1193.79,1136.59 1195.76,1130.21 1197.73,1123.59 1199.7,1116.71 1201.67,1109.56 1203.64,1102.13 1205.62,1094.4 1207.59,1086.37 1209.56,1078.01 1211.53,1069.3 1213.5,1060.25 1215.47,1050.81 1217.44,1040.99 1219.41,1030.75 1221.38,1020.08 1223.36,1008.96 1225.33,997.361 1227.3,985.269 1229.27,972.657 1231.24,959.501 1233.21,945.778 1235.18,931.461 1237.15,916.526 1239.13,900.945 1241.1,884.694 1243.07,867.746 1245.04,850.076 1247.01,831.658 1248.98,812.471 1250.95,792.491 1252.92,771.7 1254.89,750.082 1256.87,727.624 1258.84,704.319 1260.81,680.167 1262.78,655.173 1264.75,629.352 1266.72,602.73 1268.69,575.344 1270.66,547.245 1272.63,518.501 1274.61,489.195 1276.58,459.432 1278.55,429.338 1280.52,399.061 1282.49,368.774 1284.46,338.674 1286.43,308.984 1288.4,279.949 1290.37,251.838 1292.35,224.937 1294.32,199.547 1296.29,175.978 1298.26,154.542 1300.23,135.543 1302.2,119.271 1304.17,105.99 1306.14,95.9325 1308.11,89.2852 1310.09,86.1857 1312.06,86.715 1314.03,90.8942 1316,98.683 1317.97,109.981 1319.94,124.631 1321.91,142.426 1323.88,163.117 1325.85,186.42 1327.83,212.026 1329.8,239.616 1331.77,268.861 1333.74,299.438 1335.71,331.034 1337.68,363.354 1339.65,396.122 1341.62,429.087 1343.6,462.024 1345.57,494.737 1347.54,527.055 1349.51,558.833 1351.48,589.951 1353.45,620.311 1355.42,649.836 1357.39,678.469 1359.36,706.168 1361.34,732.906 1363.31,758.666 1365.28,783.444 1367.25,807.244 1369.22,830.076 1371.19,851.958 1373.16,872.91 1375.13,892.957 1377.1,912.128 1379.08,930.45 1381.05,947.956 1383.02,964.676 1384.99,980.643 1386.96,995.888 1388.93,1010.44 1390.9,1024.34 1392.87,1037.6 1394.84,1050.27 1396.82,1062.37 1398.79,1073.92 1400.76,1084.95 1402.73,1095.49 1404.7,1105.57 1406.67,1115.2 1408.64,1124.41 1410.61,1133.22 1412.58,1141.64 1414.56,1149.7 1416.53,1157.42 1418.5,1164.82 1420.47,1171.9 1422.44,1178.68 1424.41,1185.19 1426.38,1191.42 1428.35,1197.41 1430.32,1203.15 1432.3,1208.66 1434.27,1213.95 1436.24,1219.03 1438.21,1223.92 1440.18,1228.61 1442.15,1233.13 1444.12,1237.47 1446.09,1241.65 1448.07,1245.68 1450.04,1249.55 1452.01,1253.28 1453.98,1256.88 1455.95,1260.34 1457.92,1263.69 1459.89,1266.91 1461.86,1270.02 1463.83,1273.02 1465.81,1275.92 1467.78,1278.71 1469.75,1281.42 1471.72,1284.03 1473.69,1286.55 1475.66,1288.99 1477.63,1291.35 1479.6,1293.64 1481.57,1295.85 1483.55,1297.99 1485.52,1300.06 1487.49,1302.06 1489.46,1304 1491.43,1305.89 1493.4,1307.71 1495.37,1309.48 1497.34,1311.19 1499.31,1312.86 1501.29,1314.47 1503.26,1316.04 1505.23,1317.56 1507.2,1319.03 1509.17,1320.47 1511.14,1321.86 1513.11,1323.21 1515.08,1324.52 1517.05,1325.8 1519.03,1327.04 1521,1328.25 1522.97,1329.42 1524.94,1330.57 1526.91,1331.68 1528.88,1332.76 1530.85,1333.81 1532.82,1334.84 1534.8,1335.83 1536.77,1336.81 1538.74,1337.75 1540.71,1338.68 1542.68,1339.57 1544.65,1340.45 1546.62,1341.3 1548.59,1342.14 1550.56,1342.95 1552.54,1343.74 1554.51,1344.51 1556.48,1345.26 1558.45,1346 1560.42,1346.72 1562.39,1347.42 1564.36,1348.1 1566.33,1348.77 1568.3,1349.42 1570.28,1350.05 1572.25,1350.68 1574.22,1351.28 1576.19,1351.88 1578.16,1352.46 1580.13,1353.02 1582.1,1353.58 1584.07,1354.12 1586.04,1354.65 1588.02,1355.16 1589.99,1355.67 1591.96,1356.17 1593.93,1356.65 1595.9,1357.12 1597.87,1357.59 1599.84,1358.04 1601.81,1358.49 1603.78,1358.92 1605.76,1359.35 1607.73,1359.76 1609.7,1360.17 1611.67,1360.57 1613.64,1360.96 1615.61,1361.35 1617.58,1361.72 1619.55,1362.09 1621.52,1362.45 1623.5,1362.8 1625.47,1363.15 1627.44,1363.49 1629.41,1363.82 1631.38,1364.15 1633.35,1364.47 1635.32,1364.78 1637.29,1365.09 1639.27,1365.39 1641.24,1365.69 1643.21,1365.98 1645.18,1366.26 1647.15,1366.54 1649.12,1366.82 1651.09,1367.08 1653.06,1367.35 1655.03,1367.61 1657.01,1367.86 1658.98,1368.11 1660.95,1368.36 1662.92,1368.6 1664.89,1368.83 1666.86,1369.07 1668.83,1369.29 1670.8,1369.52 1672.77,1369.74 1674.75,1369.95 1676.72,1370.16 1678.69,1370.37 1680.66,1370.58 1682.63,1370.78 1684.6,1370.98 1686.57,1371.17 1688.54,1371.36 1690.51,1371.55 1692.49,1371.73 1694.46,1371.91 1696.43,1372.09 1698.4,1372.27 1700.37,1372.44 1702.34,1372.61 1704.31,1372.78 1706.28,1372.94 1708.25,1373.1 1710.23,1373.26 1712.2,1373.42 1714.17,1373.57 1716.14,1373.72 1718.11,1373.87 1720.08,1374.01 1722.05,1374.16 1724.02,1374.3 1725.99,1374.44 1727.97,1374.58 1729.94,1374.71 1731.91,1374.84 1733.88,1374.97 1735.85,1375.1 1737.82,1375.23 1739.79,1375.35 1741.76,1375.48 1743.74,1375.6 1745.71,1375.71 1747.68,1375.83 1749.65,1375.95 1751.62,1376.06 1753.59,1376.17 1755.56,1376.28 1757.53,1376.39 1759.5,1376.5 1761.48,1376.6 1763.45,1376.71 1765.42,1376.81 1767.39,1376.91 1769.36,1377.01 1771.33,1377.11 1773.3,1377.2 1775.27,1377.3 1777.24,1377.39 1779.22,1377.48 1781.19,1377.57 1783.16,1377.66 1785.13,1377.75 1787.1,1377.84 1789.07,1377.92 1791.04,1378.01 1793.01,1378.09 1794.98,1378.17 1796.96,1378.25 1798.93,1378.33 1800.9,1378.41 1802.87,1378.49 1804.84,1378.56 1806.81,1378.64 1808.78,1378.71 1810.75,1378.79 1812.72,1378.86 1814.7,1378.93 1816.67,1379 1818.64,1379.07 1820.61,1379.14 1822.58,1379.2 1824.55,1379.27 1826.52,1379.34 1828.49,1379.4 1830.46,1379.46 1832.44,1379.53 1834.41,1379.59 1836.38,1379.65 1838.35,1379.71 1840.32,1379.77 1842.29,1379.83 1844.26,1379.89 1846.23,1379.94 1848.21,1380 1850.18,1380.06 1852.15,1380.11 1854.12,1380.17 1856.09,1380.22 1858.06,1380.27 1860.03,1380.32 1862,1380.38 1863.97,1380.43 1865.95,1380.48 1867.92,1380.53 1869.89,1380.58 1871.86,1380.62 1873.83,1380.67 1875.8,1380.72 1877.77,1380.77 1879.74,1380.81 1881.71,1380.86 1883.69,1380.9 1885.66,1380.94 1887.63,1380.99 1889.6,1381.03 1891.57,1381.07 1893.54,1381.12 1895.51,1381.16 1897.48,1381.2 1899.45,1381.24 1901.43,1381.28 1903.4,1381.32 1905.37,1381.36 1907.34,1381.39 1909.31,1381.43 1911.28,1381.47 1913.25,1381.51 1915.22,1381.54 1917.19,1381.58 1919.17,1381.62 1921.14,1381.65 1923.11,1381.69 1925.08,1381.72 1927.05,1381.75 1929.02,1381.79 1930.99,1381.82 1932.96,1381.85 1934.93,1381.88 1936.91,1381.92 1938.88,1381.95 1940.85,1381.98 1942.82,1382.01 1944.79,1382.04 1946.76,1382.07 1948.73,1382.1 1950.7,1382.13 1952.68,1382.16 1954.65,1382.19 1956.62,1382.21 1958.59,1382.24 1960.56,1382.27 1962.53,1382.3 1964.5,1382.32 1966.47,1382.35 1968.44,1382.38 1970.42,1382.4 1972.39,1382.43 1974.36,1382.45 1976.33,1382.48 1978.3,1382.5 1980.27,1382.53 1982.24,1382.55 1984.21,1382.58 1986.18,1382.6 1988.16,1382.62 1990.13,1382.65 1992.1,1382.67 1994.07,1382.69 1996.04,1382.71 1998.01,1382.74 1999.98,1382.76 2001.95,1382.78 2003.92,1382.8 2005.9,1382.82 2007.87,1382.84 2009.84,1382.86 2011.81,1382.88 2013.78,1382.9 2015.75,1382.92 2017.72,1382.94 2019.69,1382.96 2021.66,1382.98 2023.64,1383 2025.61,1383.02 2027.58,1383.04 2029.55,1383.05 2031.52,1383.07 2033.49,1383.09 2035.46,1383.11 2037.43,1383.13 2039.4,1383.14 2041.38,1383.16 2043.35,1383.18 2045.32,1383.19 2047.29,1383.21 2049.26,1383.23 2051.23,1383.24 2053.2,1383.26 2055.17,1383.27 2057.15,1383.29 2059.12,1383.3 2061.09,1383.32 2063.06,1383.33 2065.03,1383.35 2067,1383.36 2068.97,1383.38 2070.94,1383.39 2072.91,1383.41 2074.89,1383.42 2076.86,1383.43 2078.83,1383.45 2080.8,1383.46 2082.77,1383.47 2084.74,1383.49 2086.71,1383.5 2088.68,1383.51 2090.65,1383.52 2092.63,1383.54 2094.6,1383.55 2096.57,1383.56 2098.54,1383.57 2100.51,1383.59 2102.48,1383.6 2104.45,1383.61 2106.42,1383.62 2108.39,1383.63 2110.37,1383.64 2112.34,1383.65 2114.31,1383.67 2116.28,1383.68 2118.25,1383.69 2120.22,1383.7 2122.19,1383.71 2124.16,1383.72 2126.13,1383.73 2128.11,1383.74 2130.08,1383.75 2132.05,1383.76 2134.02,1383.77 2135.99,1383.78 2137.96,1383.79 2139.93,1383.8 2141.9,1383.81 2143.87,1383.81 2145.85,1383.82 2147.82,1383.83 2149.79,1383.84 2151.76,1383.85 2153.73,1383.86 2155.7,1383.87 2157.67,1383.87 2159.64,1383.88 2161.62,1383.89 2163.59,1383.9 2165.56,1383.91 2167.53,1383.91 2169.5,1383.92 2171.47,1383.93 2173.44,1383.94 2175.41,1383.95 2177.38,1383.95 2179.36,1383.96 2181.33,1383.97 2183.3,1383.97 2185.27,1383.98 2187.24,1383.99 2189.21,1383.99 2191.18,1384 2193.15,1384.01 2195.12,1384.01 2197.1,1384.02 2199.07,1384.03 2201.04,1384.03 2203.01,1384.04 2204.98,1384.05 2206.95,1384.05 2208.92,1384.06 2210.89,1384.06 2212.86,1384.07 2214.84,1384.07 2216.81,1384.08 2218.78,1384.09 2220.75,1384.09 2222.72,1384.1 2224.69,1384.1 2226.66,1384.11 2228.63,1384.11 2230.6,1384.12 2232.58,1384.12 2234.55,1384.13 2236.52,1384.13 2238.49,1384.14 2240.46,1384.14 2242.43,1384.14 2244.4,1384.15 2246.37,1384.15 2248.35,1384.16 2250.32,1384.16 2252.29,1384.17 2254.26,1384.17 2256.23,1384.17 2258.2,1384.18 2260.17,1384.18 2262.14,1384.19 2264.11,1384.19 2266.09,1384.19 2268.06,1384.2 2270.03,1384.2 2272,1384.2 2273.97,1384.21 2275.94,1384.21 2277.91,1384.21 2279.88,1384.22 2281.85,1384.22 2283.83,1384.22 2285.8,1384.23 2287.77,1384.23 2289.74,1384.23 2291.71,1384.24 2293.68,1384.24 "/>
<polyline clip-path="url(#clip952)" style="stroke:#ff0000; stroke-linecap:round; stroke-linejoin:round; stroke-width:4; stroke-opacity:1; fill:none" points="1259.87,2799.12 1259.87,-1328.69 "/>
<polyline clip-path="url(#clip952)" style="stroke:#ff0000; stroke-linecap:round; stroke-linejoin:round; stroke-width:4; stroke-opacity:1; fill:none" points="1358.33,2799.12 1358.33,-1328.69 "/>
</svg>
