<?xml version="1.0" encoding="utf-8"?>
<svg xmlns="http://www.w3.org/2000/svg" xmlns:xlink="http://www.w3.org/1999/xlink" width="600" height="400" viewBox="0 0 2400 1600">
<defs>
  <clipPath id="clip990">
    <rect x="0" y="0" width="2400" height="1600"/>
  </clipPath>
</defs>
<path clip-path="url(#clip990)" d="M0 1600 L2400 1600 L2400 0 L0 0  Z" fill="#ffffff" fill-rule="evenodd" fill-opacity="1"/>
<defs>
  <clipPath id="clip991">
    <rect x="480" y="0" width="1681" height="1600"/>
  </clipPath>
</defs>
<path clip-path="url(#clip990)" d="M280.19 1423.18 L2352.76 1423.18 L2352.76 47.2441 L280.19 47.2441  Z" fill="#ffffff" fill-rule="evenodd" fill-opacity="1"/>
<defs>
  <clipPath id="clip992">
    <rect x="280" y="47" width="2074" height="1377"/>
  </clipPath>
</defs>
<polyline clip-path="url(#clip992)" style="stroke:#000000; stroke-linecap:round; stroke-linejoin:round; stroke-width:2; stroke-opacity:0.1; fill:none" points="534.373,1423.18 534.373,47.2441 "/>
<polyline clip-path="url(#clip992)" style="stroke:#000000; stroke-linecap:round; stroke-linejoin:round; stroke-width:2; stroke-opacity:0.1; fill:none" points="925.423,1423.18 925.423,47.2441 "/>
<polyline clip-path="url(#clip992)" style="stroke:#000000; stroke-linecap:round; stroke-linejoin:round; stroke-width:2; stroke-opacity:0.1; fill:none" points="1316.47,1423.18 1316.47,47.2441 "/>
<polyline clip-path="url(#clip992)" style="stroke:#000000; stroke-linecap:round; stroke-linejoin:round; stroke-width:2; stroke-opacity:0.1; fill:none" points="1707.52,1423.18 1707.52,47.2441 "/>
<polyline clip-path="url(#clip992)" style="stroke:#000000; stroke-linecap:round; stroke-linejoin:round; stroke-width:2; stroke-opacity:0.1; fill:none" points="2098.57,1423.18 2098.57,47.2441 "/>
<polyline clip-path="url(#clip992)" style="stroke:#000000; stroke-linecap:round; stroke-linejoin:round; stroke-width:2; stroke-opacity:0.1; fill:none" points="280.19,1181 2352.76,1181 "/>
<polyline clip-path="url(#clip992)" style="stroke:#000000; stroke-linecap:round; stroke-linejoin:round; stroke-width:2; stroke-opacity:0.1; fill:none" points="280.19,904.189 2352.76,904.189 "/>
<polyline clip-path="url(#clip992)" style="stroke:#000000; stroke-linecap:round; stroke-linejoin:round; stroke-width:2; stroke-opacity:0.1; fill:none" points="280.19,627.377 2352.76,627.377 "/>
<polyline clip-path="url(#clip992)" style="stroke:#000000; stroke-linecap:round; stroke-linejoin:round; stroke-width:2; stroke-opacity:0.1; fill:none" points="280.19,350.564 2352.76,350.564 "/>
<polyline clip-path="url(#clip992)" style="stroke:#000000; stroke-linecap:round; stroke-linejoin:round; stroke-width:2; stroke-opacity:0.1; fill:none" points="280.19,73.752 2352.76,73.752 "/>
<polyline clip-path="url(#clip990)" style="stroke:#000000; stroke-linecap:round; stroke-linejoin:round; stroke-width:4; stroke-opacity:1; fill:none" points="280.19,1423.18 2352.76,1423.18 "/>
<polyline clip-path="url(#clip990)" style="stroke:#000000; stroke-linecap:round; stroke-linejoin:round; stroke-width:4; stroke-opacity:1; fill:none" points="534.373,1423.18 534.373,1404.28 "/>
<polyline clip-path="url(#clip990)" style="stroke:#000000; stroke-linecap:round; stroke-linejoin:round; stroke-width:4; stroke-opacity:1; fill:none" points="925.423,1423.18 925.423,1404.28 "/>
<polyline clip-path="url(#clip990)" style="stroke:#000000; stroke-linecap:round; stroke-linejoin:round; stroke-width:4; stroke-opacity:1; fill:none" points="1316.47,1423.18 1316.47,1404.28 "/>
<polyline clip-path="url(#clip990)" style="stroke:#000000; stroke-linecap:round; stroke-linejoin:round; stroke-width:4; stroke-opacity:1; fill:none" points="1707.52,1423.18 1707.52,1404.28 "/>
<polyline clip-path="url(#clip990)" style="stroke:#000000; stroke-linecap:round; stroke-linejoin:round; stroke-width:4; stroke-opacity:1; fill:none" points="2098.57,1423.18 2098.57,1404.28 "/>
<path clip-path="url(#clip990)" d="M490.449 1481.64 L506.769 1481.64 L506.769 1485.58 L484.824 1485.58 L484.824 1481.64 Q487.486 1478.89 492.07 1474.26 Q496.676 1469.61 497.857 1468.27 Q500.102 1465.74 500.982 1464.01 Q501.884 1462.25 501.884 1460.56 Q501.884 1457.8 499.94 1456.07 Q498.019 1454.33 494.917 1454.33 Q492.718 1454.33 490.264 1455.09 Q487.834 1455.86 485.056 1457.41 L485.056 1452.69 Q487.88 1451.55 490.334 1450.97 Q492.787 1450.39 494.824 1450.39 Q500.195 1450.39 503.389 1453.08 Q506.583 1455.77 506.583 1460.26 Q506.583 1462.39 505.773 1464.31 Q504.986 1466.2 502.88 1468.8 Q502.301 1469.47 499.199 1472.69 Q496.097 1475.88 490.449 1481.64 Z" fill="#000000" fill-rule="nonzero" fill-opacity="1" /><path clip-path="url(#clip990)" d="M516.722 1484.86 L516.722 1480.6 Q518.482 1481.44 520.287 1481.88 Q522.093 1482.32 523.829 1482.32 Q528.458 1482.32 530.889 1479.21 Q533.343 1476.09 533.69 1469.75 Q532.347 1471.74 530.287 1472.8 Q528.227 1473.87 525.727 1473.87 Q520.542 1473.87 517.509 1470.74 Q514.5 1467.59 514.5 1462.15 Q514.5 1456.83 517.648 1453.61 Q520.796 1450.39 526.028 1450.39 Q532.023 1450.39 535.171 1455 Q538.343 1459.58 538.343 1468.33 Q538.343 1476.51 534.454 1481.39 Q530.588 1486.25 524.037 1486.25 Q522.278 1486.25 520.472 1485.9 Q518.667 1485.56 516.722 1484.86 M526.028 1470.21 Q529.176 1470.21 531.005 1468.06 Q532.856 1465.9 532.856 1462.15 Q532.856 1458.43 531.005 1456.27 Q529.176 1454.1 526.028 1454.1 Q522.88 1454.1 521.028 1456.27 Q519.199 1458.43 519.199 1462.15 Q519.199 1465.9 521.028 1468.06 Q522.88 1470.21 526.028 1470.21 Z" fill="#000000" fill-rule="nonzero" fill-opacity="1" /><path clip-path="url(#clip990)" d="M546.745 1479.7 L551.629 1479.7 L551.629 1485.58 L546.745 1485.58 L546.745 1479.7 Z" fill="#000000" fill-rule="nonzero" fill-opacity="1" /><path clip-path="url(#clip990)" d="M572.393 1466.44 Q569.245 1466.44 567.393 1468.59 Q565.565 1470.74 565.565 1474.49 Q565.565 1478.22 567.393 1480.39 Q569.245 1482.55 572.393 1482.55 Q575.541 1482.55 577.37 1480.39 Q579.222 1478.22 579.222 1474.49 Q579.222 1470.74 577.37 1468.59 Q575.541 1466.44 572.393 1466.44 M581.676 1451.78 L581.676 1456.04 Q579.916 1455.21 578.111 1454.77 Q576.328 1454.33 574.569 1454.33 Q569.94 1454.33 567.486 1457.45 Q565.055 1460.58 564.708 1466.9 Q566.074 1464.89 568.134 1463.82 Q570.194 1462.73 572.671 1462.73 Q577.879 1462.73 580.889 1465.9 Q583.921 1469.05 583.921 1474.49 Q583.921 1479.82 580.773 1483.03 Q577.625 1486.25 572.393 1486.25 Q566.398 1486.25 563.227 1481.67 Q560.055 1477.06 560.055 1468.33 Q560.055 1460.14 563.944 1455.28 Q567.833 1450.39 574.384 1450.39 Q576.143 1450.39 577.926 1450.74 Q579.731 1451.09 581.676 1451.78 Z" fill="#000000" fill-rule="nonzero" fill-opacity="1" /><path clip-path="url(#clip990)" d="M881.627 1481.64 L897.946 1481.64 L897.946 1485.58 L876.002 1485.58 L876.002 1481.64 Q878.664 1478.89 883.247 1474.26 Q887.854 1469.61 889.034 1468.27 Q891.279 1465.74 892.159 1464.01 Q893.062 1462.25 893.062 1460.56 Q893.062 1457.8 891.117 1456.07 Q889.196 1454.33 886.094 1454.33 Q883.895 1454.33 881.442 1455.09 Q879.011 1455.86 876.233 1457.41 L876.233 1452.69 Q879.057 1451.55 881.511 1450.97 Q883.965 1450.39 886.002 1450.39 Q891.372 1450.39 894.566 1453.08 Q897.761 1455.77 897.761 1460.26 Q897.761 1462.39 896.951 1464.31 Q896.164 1466.2 894.057 1468.8 Q893.479 1469.47 890.377 1472.69 Q887.275 1475.88 881.627 1481.64 Z" fill="#000000" fill-rule="nonzero" fill-opacity="1" /><path clip-path="url(#clip990)" d="M907.9 1484.86 L907.9 1480.6 Q909.659 1481.44 911.465 1481.88 Q913.27 1482.32 915.006 1482.32 Q919.636 1482.32 922.066 1479.21 Q924.52 1476.09 924.867 1469.75 Q923.525 1471.74 921.464 1472.8 Q919.404 1473.87 916.904 1473.87 Q911.719 1473.87 908.687 1470.74 Q905.678 1467.59 905.678 1462.15 Q905.678 1456.83 908.826 1453.61 Q911.974 1450.39 917.205 1450.39 Q923.201 1450.39 926.349 1455 Q929.52 1459.58 929.52 1468.33 Q929.52 1476.51 925.631 1481.39 Q921.765 1486.25 915.215 1486.25 Q913.455 1486.25 911.65 1485.9 Q909.844 1485.56 907.9 1484.86 M917.205 1470.21 Q920.353 1470.21 922.182 1468.06 Q924.034 1465.9 924.034 1462.15 Q924.034 1458.43 922.182 1456.27 Q920.353 1454.1 917.205 1454.1 Q914.057 1454.1 912.205 1456.27 Q910.377 1458.43 910.377 1462.15 Q910.377 1465.9 912.205 1468.06 Q914.057 1470.21 917.205 1470.21 Z" fill="#000000" fill-rule="nonzero" fill-opacity="1" /><path clip-path="url(#clip990)" d="M937.923 1479.7 L942.807 1479.7 L942.807 1485.58 L937.923 1485.58 L937.923 1479.7 Z" fill="#000000" fill-rule="nonzero" fill-opacity="1" /><path clip-path="url(#clip990)" d="M962.992 1469.17 Q959.659 1469.17 957.737 1470.95 Q955.839 1472.73 955.839 1475.86 Q955.839 1478.98 957.737 1480.77 Q959.659 1482.55 962.992 1482.55 Q966.325 1482.55 968.247 1480.77 Q970.168 1478.96 970.168 1475.86 Q970.168 1472.73 968.247 1470.95 Q966.349 1469.17 962.992 1469.17 M958.316 1467.18 Q955.307 1466.44 953.617 1464.38 Q951.95 1462.32 951.95 1459.35 Q951.95 1455.21 954.89 1452.8 Q957.853 1450.39 962.992 1450.39 Q968.154 1450.39 971.094 1452.8 Q974.034 1455.21 974.034 1459.35 Q974.034 1462.32 972.344 1464.38 Q970.677 1466.44 967.691 1467.18 Q971.071 1467.96 972.946 1470.26 Q974.844 1472.55 974.844 1475.86 Q974.844 1480.88 971.765 1483.57 Q968.71 1486.25 962.992 1486.25 Q957.274 1486.25 954.196 1483.57 Q951.14 1480.88 951.14 1475.86 Q951.14 1472.55 953.038 1470.26 Q954.937 1467.96 958.316 1467.18 M956.603 1459.79 Q956.603 1462.48 958.27 1463.98 Q959.96 1465.49 962.992 1465.49 Q966.001 1465.49 967.691 1463.98 Q969.404 1462.48 969.404 1459.79 Q969.404 1457.11 967.691 1455.6 Q966.001 1454.1 962.992 1454.1 Q959.96 1454.1 958.27 1455.6 Q956.603 1457.11 956.603 1459.79 Z" fill="#000000" fill-rule="nonzero" fill-opacity="1" /><path clip-path="url(#clip990)" d="M1282.7 1466.95 Q1286.06 1467.66 1287.93 1469.93 Q1289.83 1472.2 1289.83 1475.53 Q1289.83 1480.65 1286.31 1483.45 Q1282.79 1486.25 1276.31 1486.25 Q1274.14 1486.25 1271.82 1485.81 Q1269.53 1485.39 1267.08 1484.54 L1267.08 1480.02 Q1269.02 1481.16 1271.33 1481.74 Q1273.65 1482.32 1276.17 1482.32 Q1280.57 1482.32 1282.86 1480.58 Q1285.18 1478.84 1285.18 1475.53 Q1285.18 1472.48 1283.02 1470.77 Q1280.89 1469.03 1277.08 1469.03 L1273.05 1469.03 L1273.05 1465.19 L1277.26 1465.19 Q1280.71 1465.19 1282.54 1463.82 Q1284.37 1462.43 1284.37 1459.84 Q1284.37 1457.18 1282.47 1455.77 Q1280.59 1454.33 1277.08 1454.33 Q1275.15 1454.33 1272.95 1454.75 Q1270.76 1455.16 1268.12 1456.04 L1268.12 1451.88 Q1270.78 1451.14 1273.09 1450.77 Q1275.43 1450.39 1277.49 1450.39 Q1282.82 1450.39 1285.92 1452.83 Q1289.02 1455.23 1289.02 1459.35 Q1289.02 1462.22 1287.38 1464.21 Q1285.73 1466.18 1282.7 1466.95 Z" fill="#000000" fill-rule="nonzero" fill-opacity="1" /><path clip-path="url(#clip990)" d="M1308.7 1454.1 Q1305.08 1454.1 1303.26 1457.66 Q1301.45 1461.2 1301.45 1468.33 Q1301.45 1475.44 1303.26 1479.01 Q1305.08 1482.55 1308.7 1482.55 Q1312.33 1482.55 1314.14 1479.01 Q1315.96 1475.44 1315.96 1468.33 Q1315.96 1461.2 1314.14 1457.66 Q1312.33 1454.1 1308.7 1454.1 M1308.7 1450.39 Q1314.51 1450.39 1317.56 1455 Q1320.64 1459.58 1320.64 1468.33 Q1320.64 1477.06 1317.56 1481.67 Q1314.51 1486.25 1308.7 1486.25 Q1302.89 1486.25 1299.81 1481.67 Q1296.75 1477.06 1296.75 1468.33 Q1296.75 1459.58 1299.81 1455 Q1302.89 1450.39 1308.7 1450.39 Z" fill="#000000" fill-rule="nonzero" fill-opacity="1" /><path clip-path="url(#clip990)" d="M1328.86 1479.7 L1333.74 1479.7 L1333.74 1485.58 L1328.86 1485.58 L1328.86 1479.7 Z" fill="#000000" fill-rule="nonzero" fill-opacity="1" /><path clip-path="url(#clip990)" d="M1353.93 1454.1 Q1350.32 1454.1 1348.49 1457.66 Q1346.68 1461.2 1346.68 1468.33 Q1346.68 1475.44 1348.49 1479.01 Q1350.32 1482.55 1353.93 1482.55 Q1357.56 1482.55 1359.37 1479.01 Q1361.19 1475.44 1361.19 1468.33 Q1361.19 1461.2 1359.37 1457.66 Q1357.56 1454.1 1353.93 1454.1 M1353.93 1450.39 Q1359.74 1450.39 1362.79 1455 Q1365.87 1459.58 1365.87 1468.33 Q1365.87 1477.06 1362.79 1481.67 Q1359.74 1486.25 1353.93 1486.25 Q1348.12 1486.25 1345.04 1481.67 Q1341.98 1477.06 1341.98 1468.33 Q1341.98 1459.58 1345.04 1455 Q1348.12 1450.39 1353.93 1450.39 Z" fill="#000000" fill-rule="nonzero" fill-opacity="1" /><path clip-path="url(#clip990)" d="M1674.55 1466.95 Q1677.91 1467.66 1679.78 1469.93 Q1681.68 1472.2 1681.68 1475.53 Q1681.68 1480.65 1678.16 1483.45 Q1674.64 1486.25 1668.16 1486.25 Q1665.98 1486.25 1663.67 1485.81 Q1661.38 1485.39 1658.92 1484.54 L1658.92 1480.02 Q1660.87 1481.16 1663.18 1481.74 Q1665.5 1482.32 1668.02 1482.32 Q1672.42 1482.32 1674.71 1480.58 Q1677.03 1478.84 1677.03 1475.53 Q1677.03 1472.48 1674.87 1470.77 Q1672.74 1469.03 1668.92 1469.03 L1664.9 1469.03 L1664.9 1465.19 L1669.11 1465.19 Q1672.56 1465.19 1674.39 1463.82 Q1676.22 1462.43 1676.22 1459.84 Q1676.22 1457.18 1674.32 1455.77 Q1672.44 1454.33 1668.92 1454.33 Q1667 1454.33 1664.8 1454.75 Q1662.6 1455.16 1659.97 1456.04 L1659.97 1451.88 Q1662.63 1451.14 1664.94 1450.77 Q1667.28 1450.39 1669.34 1450.39 Q1674.66 1450.39 1677.77 1452.83 Q1680.87 1455.23 1680.87 1459.35 Q1680.87 1462.22 1679.22 1464.21 Q1677.58 1466.18 1674.55 1466.95 Z" fill="#000000" fill-rule="nonzero" fill-opacity="1" /><path clip-path="url(#clip990)" d="M1700.54 1454.1 Q1696.93 1454.1 1695.1 1457.66 Q1693.3 1461.2 1693.3 1468.33 Q1693.3 1475.44 1695.1 1479.01 Q1696.93 1482.55 1700.54 1482.55 Q1704.18 1482.55 1705.98 1479.01 Q1707.81 1475.44 1707.81 1468.33 Q1707.81 1461.2 1705.98 1457.66 Q1704.18 1454.1 1700.54 1454.1 M1700.54 1450.39 Q1706.35 1450.39 1709.41 1455 Q1712.49 1459.58 1712.49 1468.33 Q1712.49 1477.06 1709.41 1481.67 Q1706.35 1486.25 1700.54 1486.25 Q1694.73 1486.25 1691.66 1481.67 Q1688.6 1477.06 1688.6 1468.33 Q1688.6 1459.58 1691.66 1455 Q1694.73 1450.39 1700.54 1450.39 Z" fill="#000000" fill-rule="nonzero" fill-opacity="1" /><path clip-path="url(#clip990)" d="M1720.71 1479.7 L1725.59 1479.7 L1725.59 1485.58 L1720.71 1485.58 L1720.71 1479.7 Z" fill="#000000" fill-rule="nonzero" fill-opacity="1" /><path clip-path="url(#clip990)" d="M1739.8 1481.64 L1756.12 1481.64 L1756.12 1485.58 L1734.18 1485.58 L1734.18 1481.64 Q1736.84 1478.89 1741.42 1474.26 Q1746.03 1469.61 1747.21 1468.27 Q1749.46 1465.74 1750.34 1464.01 Q1751.24 1462.25 1751.24 1460.56 Q1751.24 1457.8 1749.29 1456.07 Q1747.37 1454.33 1744.27 1454.33 Q1742.07 1454.33 1739.62 1455.09 Q1737.19 1455.86 1734.41 1457.41 L1734.41 1452.69 Q1737.23 1451.55 1739.69 1450.97 Q1742.14 1450.39 1744.18 1450.39 Q1749.55 1450.39 1752.74 1453.08 Q1755.94 1455.77 1755.94 1460.26 Q1755.94 1462.39 1755.13 1464.31 Q1754.34 1466.2 1752.23 1468.8 Q1751.65 1469.47 1748.55 1472.69 Q1745.45 1475.88 1739.8 1481.64 Z" fill="#000000" fill-rule="nonzero" fill-opacity="1" /><path clip-path="url(#clip990)" d="M2064.56 1466.95 Q2067.91 1467.66 2069.79 1469.93 Q2071.69 1472.2 2071.69 1475.53 Q2071.69 1480.65 2068.17 1483.45 Q2064.65 1486.25 2058.17 1486.25 Q2055.99 1486.25 2053.68 1485.81 Q2051.39 1485.39 2048.93 1484.54 L2048.93 1480.02 Q2050.88 1481.16 2053.19 1481.74 Q2055.51 1482.32 2058.03 1482.32 Q2062.43 1482.32 2064.72 1480.58 Q2067.03 1478.84 2067.03 1475.53 Q2067.03 1472.48 2064.88 1470.77 Q2062.75 1469.03 2058.93 1469.03 L2054.9 1469.03 L2054.9 1465.19 L2059.12 1465.19 Q2062.57 1465.19 2064.4 1463.82 Q2066.22 1462.43 2066.22 1459.84 Q2066.22 1457.18 2064.33 1455.77 Q2062.45 1454.33 2058.93 1454.33 Q2057.01 1454.33 2054.81 1454.75 Q2052.61 1455.16 2049.97 1456.04 L2049.97 1451.88 Q2052.64 1451.14 2054.95 1450.77 Q2057.29 1450.39 2059.35 1450.39 Q2064.67 1450.39 2067.77 1452.83 Q2070.88 1455.23 2070.88 1459.35 Q2070.88 1462.22 2069.23 1464.21 Q2067.59 1466.18 2064.56 1466.95 Z" fill="#000000" fill-rule="nonzero" fill-opacity="1" /><path clip-path="url(#clip990)" d="M2090.55 1454.1 Q2086.94 1454.1 2085.11 1457.66 Q2083.31 1461.2 2083.31 1468.33 Q2083.31 1475.44 2085.11 1479.01 Q2086.94 1482.55 2090.55 1482.55 Q2094.19 1482.55 2095.99 1479.01 Q2097.82 1475.44 2097.82 1468.33 Q2097.82 1461.2 2095.99 1457.66 Q2094.19 1454.1 2090.55 1454.1 M2090.55 1450.39 Q2096.36 1450.39 2099.42 1455 Q2102.5 1459.58 2102.5 1468.33 Q2102.5 1477.06 2099.42 1481.67 Q2096.36 1486.25 2090.55 1486.25 Q2084.74 1486.25 2081.66 1481.67 Q2078.61 1477.06 2078.61 1468.33 Q2078.61 1459.58 2081.66 1455 Q2084.74 1450.39 2090.55 1450.39 Z" fill="#000000" fill-rule="nonzero" fill-opacity="1" /><path clip-path="url(#clip990)" d="M2110.71 1479.7 L2115.6 1479.7 L2115.6 1485.58 L2110.71 1485.58 L2110.71 1479.7 Z" fill="#000000" fill-rule="nonzero" fill-opacity="1" /><path clip-path="url(#clip990)" d="M2138.63 1455.09 L2126.83 1473.54 L2138.63 1473.54 L2138.63 1455.09 M2137.4 1451.02 L2143.28 1451.02 L2143.28 1473.54 L2148.21 1473.54 L2148.21 1477.43 L2143.28 1477.43 L2143.28 1485.58 L2138.63 1485.58 L2138.63 1477.43 L2123.03 1477.43 L2123.03 1472.92 L2137.4 1451.02 Z" fill="#000000" fill-rule="nonzero" fill-opacity="1" /><path clip-path="url(#clip990)" d="M1024.64 1520.52 L1051.95 1520.52 L1051.95 1525.93 L1031.07 1525.93 L1031.07 1539.94 L1049.91 1539.94 L1049.91 1545.35 L1031.07 1545.35 L1031.07 1568.04 L1024.64 1568.04 L1024.64 1520.52 Z" fill="#000000" fill-rule="nonzero" fill-opacity="1" /><path clip-path="url(#clip990)" d="M1077.79 1537.87 Q1076.8 1537.3 1075.63 1537.04 Q1074.48 1536.76 1073.08 1536.76 Q1068.11 1536.76 1065.44 1540 Q1062.8 1543.22 1062.8 1549.27 L1062.8 1568.04 L1056.91 1568.04 L1056.91 1532.4 L1062.8 1532.4 L1062.8 1537.93 Q1064.65 1534.69 1067.61 1533.13 Q1070.57 1531.54 1074.8 1531.54 Q1075.4 1531.54 1076.14 1531.63 Q1076.87 1531.7 1077.76 1531.85 L1077.79 1537.87 Z" fill="#000000" fill-rule="nonzero" fill-opacity="1" /><path clip-path="url(#clip990)" d="M1112.99 1548.76 L1112.99 1551.62 L1086.07 1551.62 Q1086.45 1557.67 1089.69 1560.85 Q1092.97 1564 1098.8 1564 Q1102.17 1564 1105.32 1563.17 Q1108.51 1562.35 1111.62 1560.69 L1111.62 1566.23 Q1108.47 1567.57 1105.16 1568.27 Q1101.85 1568.97 1098.45 1568.97 Q1089.92 1568.97 1084.92 1564 Q1079.96 1559.04 1079.96 1550.57 Q1079.96 1541.82 1084.67 1536.69 Q1089.41 1531.54 1097.43 1531.54 Q1104.62 1531.54 1108.79 1536.18 Q1112.99 1540.8 1112.99 1548.76 M1107.14 1547.04 Q1107.07 1542.23 1104.43 1539.37 Q1101.82 1536.5 1097.49 1536.5 Q1092.59 1536.5 1089.63 1539.27 Q1086.7 1542.04 1086.26 1547.07 L1107.14 1547.04 Z" fill="#000000" fill-rule="nonzero" fill-opacity="1" /><path clip-path="url(#clip990)" d="M1126.11 1550.25 Q1126.11 1556.71 1128.75 1560.4 Q1131.42 1564.07 1136.07 1564.07 Q1140.72 1564.07 1143.39 1560.4 Q1146.06 1556.71 1146.06 1550.25 Q1146.06 1543.79 1143.39 1540.13 Q1140.72 1536.44 1136.07 1536.44 Q1131.42 1536.44 1128.75 1540.13 Q1126.11 1543.79 1126.11 1550.25 M1146.06 1562.7 Q1144.22 1565.88 1141.38 1567.44 Q1138.58 1568.97 1134.64 1568.97 Q1128.18 1568.97 1124.1 1563.81 Q1120.06 1558.65 1120.06 1550.25 Q1120.06 1541.85 1124.1 1536.69 Q1128.18 1531.54 1134.64 1531.54 Q1138.58 1531.54 1141.38 1533.1 Q1144.22 1534.62 1146.06 1537.81 L1146.06 1532.4 L1151.92 1532.4 L1151.92 1581.6 L1146.06 1581.6 L1146.06 1562.7 Z" fill="#000000" fill-rule="nonzero" fill-opacity="1" /><path clip-path="url(#clip990)" d="M1163.38 1553.98 L1163.38 1532.4 L1169.23 1532.4 L1169.23 1553.75 Q1169.23 1558.81 1171.21 1561.36 Q1173.18 1563.87 1177.13 1563.87 Q1181.87 1563.87 1184.61 1560.85 Q1187.38 1557.83 1187.38 1552.61 L1187.38 1532.4 L1193.23 1532.4 L1193.23 1568.04 L1187.38 1568.04 L1187.38 1562.57 Q1185.24 1565.82 1182.41 1567.41 Q1179.61 1568.97 1175.89 1568.97 Q1169.74 1568.97 1166.56 1565.15 Q1163.38 1561.33 1163.38 1553.98 M1178.11 1531.54 L1178.11 1531.54 Z" fill="#000000" fill-rule="nonzero" fill-opacity="1" /><path clip-path="url(#clip990)" d="M1235.79 1548.76 L1235.79 1551.62 L1208.86 1551.62 Q1209.24 1557.67 1212.49 1560.85 Q1215.77 1564 1221.59 1564 Q1224.97 1564 1228.12 1563.17 Q1231.3 1562.35 1234.42 1560.69 L1234.42 1566.23 Q1231.27 1567.57 1227.96 1568.27 Q1224.65 1568.97 1221.24 1568.97 Q1212.71 1568.97 1207.71 1564 Q1202.75 1559.04 1202.75 1550.57 Q1202.75 1541.82 1207.46 1536.69 Q1212.2 1531.54 1220.22 1531.54 Q1227.42 1531.54 1231.59 1536.18 Q1235.79 1540.8 1235.79 1548.76 M1229.93 1547.04 Q1229.87 1542.23 1227.23 1539.37 Q1224.62 1536.5 1220.29 1536.5 Q1215.39 1536.5 1212.43 1539.27 Q1209.5 1542.04 1209.05 1547.07 L1229.93 1547.04 Z" fill="#000000" fill-rule="nonzero" fill-opacity="1" /><path clip-path="url(#clip990)" d="M1275.03 1546.53 L1275.03 1568.04 L1269.18 1568.04 L1269.18 1546.72 Q1269.18 1541.66 1267.2 1539.14 Q1265.23 1536.63 1261.28 1536.63 Q1256.54 1536.63 1253.8 1539.65 Q1251.07 1542.68 1251.07 1547.9 L1251.07 1568.04 L1245.18 1568.04 L1245.18 1532.4 L1251.07 1532.4 L1251.07 1537.93 Q1253.17 1534.72 1256 1533.13 Q1258.86 1531.54 1262.59 1531.54 Q1268.73 1531.54 1271.88 1535.36 Q1275.03 1539.14 1275.03 1546.53 Z" fill="#000000" fill-rule="nonzero" fill-opacity="1" /><path clip-path="url(#clip990)" d="M1312.37 1533.76 L1312.37 1539.24 Q1309.88 1537.87 1307.37 1537.2 Q1304.89 1536.5 1302.34 1536.5 Q1296.64 1536.5 1293.49 1540.13 Q1290.34 1543.73 1290.34 1550.25 Q1290.34 1556.78 1293.49 1560.4 Q1296.64 1564 1302.34 1564 Q1304.89 1564 1307.37 1563.33 Q1309.88 1562.63 1312.37 1561.26 L1312.37 1566.68 Q1309.92 1567.82 1307.27 1568.39 Q1304.66 1568.97 1301.7 1568.97 Q1293.65 1568.97 1288.91 1563.91 Q1284.17 1558.85 1284.17 1550.25 Q1284.17 1541.53 1288.94 1536.53 Q1293.75 1531.54 1302.09 1531.54 Q1304.79 1531.54 1307.37 1532.11 Q1309.95 1532.65 1312.37 1533.76 Z" fill="#000000" fill-rule="nonzero" fill-opacity="1" /><path clip-path="url(#clip990)" d="M1322.55 1532.4 L1328.41 1532.4 L1328.41 1568.04 L1322.55 1568.04 L1322.55 1532.4 M1322.55 1518.52 L1328.41 1518.52 L1328.41 1525.93 L1322.55 1525.93 L1322.55 1518.52 Z" fill="#000000" fill-rule="nonzero" fill-opacity="1" /><path clip-path="url(#clip990)" d="M1371.15 1548.76 L1371.15 1551.62 L1344.23 1551.62 Q1344.61 1557.67 1347.86 1560.85 Q1351.13 1564 1356.96 1564 Q1360.33 1564 1363.48 1563.17 Q1366.67 1562.35 1369.79 1560.69 L1369.79 1566.23 Q1366.63 1567.57 1363.32 1568.27 Q1360.01 1568.97 1356.61 1568.97 Q1348.08 1568.97 1343.08 1564 Q1338.12 1559.04 1338.12 1550.57 Q1338.12 1541.82 1342.83 1536.69 Q1347.57 1531.54 1355.59 1531.54 Q1362.78 1531.54 1366.95 1536.18 Q1371.15 1540.8 1371.15 1548.76 M1365.3 1547.04 Q1365.23 1542.23 1362.59 1539.37 Q1359.98 1536.5 1355.65 1536.5 Q1350.75 1536.5 1347.79 1539.27 Q1344.86 1542.04 1344.42 1547.07 L1365.3 1547.04 Z" fill="#000000" fill-rule="nonzero" fill-opacity="1" /><path clip-path="url(#clip990)" d="M1403.49 1533.45 L1403.49 1538.98 Q1401.01 1537.71 1398.34 1537.07 Q1395.66 1536.44 1392.8 1536.44 Q1388.44 1536.44 1386.24 1537.77 Q1384.08 1539.11 1384.08 1541.79 Q1384.08 1543.82 1385.64 1545 Q1387.2 1546.15 1391.91 1547.2 L1393.91 1547.64 Q1400.15 1548.98 1402.76 1551.43 Q1405.4 1553.85 1405.4 1558.21 Q1405.4 1563.17 1401.46 1566.07 Q1397.54 1568.97 1390.67 1568.97 Q1387.8 1568.97 1384.68 1568.39 Q1381.59 1567.85 1378.16 1566.74 L1378.16 1560.69 Q1381.4 1562.38 1384.55 1563.24 Q1387.71 1564.07 1390.79 1564.07 Q1394.93 1564.07 1397.16 1562.66 Q1399.39 1561.23 1399.39 1558.65 Q1399.39 1556.27 1397.76 1554.99 Q1396.17 1553.72 1390.73 1552.54 L1388.69 1552.07 Q1383.25 1550.92 1380.83 1548.56 Q1378.41 1546.18 1378.41 1542.04 Q1378.41 1537.01 1381.98 1534.27 Q1385.54 1531.54 1392.1 1531.54 Q1395.34 1531.54 1398.21 1532.01 Q1401.07 1532.49 1403.49 1533.45 Z" fill="#000000" fill-rule="nonzero" fill-opacity="1" /><path clip-path="url(#clip990)" d="M1434.91 1518.52 L1448.4 1518.52 L1448.4 1523.07 L1440.76 1523.07 L1440.76 1572.09 L1448.4 1572.09 L1448.4 1576.64 L1434.91 1576.64 L1434.91 1518.52 Z" fill="#000000" fill-rule="nonzero" fill-opacity="1" /><path clip-path="url(#clip990)" d="M1493.54 1561.26 L1493.54 1548.5 L1483.03 1548.5 L1483.03 1543.22 L1499.9 1543.22 L1499.9 1563.62 Q1496.18 1566.26 1491.69 1567.63 Q1487.2 1568.97 1482.11 1568.97 Q1470.97 1568.97 1464.67 1562.47 Q1458.4 1555.95 1458.4 1544.33 Q1458.4 1532.68 1464.67 1526.19 Q1470.97 1519.66 1482.11 1519.66 Q1486.76 1519.66 1490.93 1520.81 Q1495.13 1521.96 1498.66 1524.18 L1498.66 1531.03 Q1495.09 1528 1491.08 1526.48 Q1487.07 1524.95 1482.65 1524.95 Q1473.93 1524.95 1469.54 1529.82 Q1465.18 1534.69 1465.18 1544.33 Q1465.18 1553.94 1469.54 1558.81 Q1473.93 1563.68 1482.65 1563.68 Q1486.06 1563.68 1488.73 1563.11 Q1491.4 1562.51 1493.54 1561.26 Z" fill="#000000" fill-rule="nonzero" fill-opacity="1" /><path clip-path="url(#clip990)" d="M1511.65 1520.52 L1518.07 1520.52 L1518.07 1540 L1541.44 1540 L1541.44 1520.52 L1547.87 1520.52 L1547.87 1568.04 L1541.44 1568.04 L1541.44 1545.41 L1518.07 1545.41 L1518.07 1568.04 L1511.65 1568.04 L1511.65 1520.52 Z" fill="#000000" fill-rule="nonzero" fill-opacity="1" /><path clip-path="url(#clip990)" d="M1557.86 1532.4 L1585.68 1532.4 L1585.68 1537.74 L1563.65 1563.37 L1585.68 1563.37 L1585.68 1568.04 L1557.06 1568.04 L1557.06 1562.7 L1579.09 1537.07 L1557.86 1537.07 L1557.86 1532.4 Z" fill="#000000" fill-rule="nonzero" fill-opacity="1" /><path clip-path="url(#clip990)" d="M1608.31 1518.52 L1608.31 1576.64 L1594.81 1576.64 L1594.81 1572.09 L1602.42 1572.09 L1602.42 1523.07 L1594.81 1523.07 L1594.81 1518.52 L1608.31 1518.52 Z" fill="#000000" fill-rule="nonzero" fill-opacity="1" /><polyline clip-path="url(#clip990)" style="stroke:#000000; stroke-linecap:round; stroke-linejoin:round; stroke-width:4; stroke-opacity:1; fill:none" points="280.19,1423.18 280.19,47.2441 "/>
<polyline clip-path="url(#clip990)" style="stroke:#000000; stroke-linecap:round; stroke-linejoin:round; stroke-width:4; stroke-opacity:1; fill:none" points="280.19,1181 299.088,1181 "/>
<polyline clip-path="url(#clip990)" style="stroke:#000000; stroke-linecap:round; stroke-linejoin:round; stroke-width:4; stroke-opacity:1; fill:none" points="280.19,904.189 299.088,904.189 "/>
<polyline clip-path="url(#clip990)" style="stroke:#000000; stroke-linecap:round; stroke-linejoin:round; stroke-width:4; stroke-opacity:1; fill:none" points="280.19,627.377 299.088,627.377 "/>
<polyline clip-path="url(#clip990)" style="stroke:#000000; stroke-linecap:round; stroke-linejoin:round; stroke-width:4; stroke-opacity:1; fill:none" points="280.19,350.564 299.088,350.564 "/>
<polyline clip-path="url(#clip990)" style="stroke:#000000; stroke-linecap:round; stroke-linejoin:round; stroke-width:4; stroke-opacity:1; fill:none" points="280.19,73.752 299.088,73.752 "/>
<path clip-path="url(#clip990)" d="M128.288 1166.8 Q124.677 1166.8 122.848 1170.37 Q121.043 1173.91 121.043 1181.04 Q121.043 1188.14 122.848 1191.71 Q124.677 1195.25 128.288 1195.25 Q131.922 1195.25 133.728 1191.71 Q135.556 1188.14 135.556 1181.04 Q135.556 1173.91 133.728 1170.37 Q131.922 1166.8 128.288 1166.8 M128.288 1163.1 Q134.098 1163.1 137.154 1167.7 Q140.232 1172.29 140.232 1181.04 Q140.232 1189.76 137.154 1194.37 Q134.098 1198.95 128.288 1198.95 Q122.478 1198.95 119.399 1194.37 Q116.343 1189.76 116.343 1181.04 Q116.343 1172.29 119.399 1167.7 Q122.478 1163.1 128.288 1163.1 Z" fill="#000000" fill-rule="nonzero" fill-opacity="1" /><path clip-path="url(#clip990)" d="M148.45 1192.4 L153.334 1192.4 L153.334 1198.28 L148.45 1198.28 L148.45 1192.4 Z" fill="#000000" fill-rule="nonzero" fill-opacity="1" /><path clip-path="url(#clip990)" d="M163.658 1197.56 L163.658 1193.3 Q165.417 1194.14 167.223 1194.58 Q169.028 1195.02 170.764 1195.02 Q175.394 1195.02 177.825 1191.92 Q180.278 1188.79 180.626 1182.45 Q179.283 1184.44 177.223 1185.5 Q175.163 1186.57 172.663 1186.57 Q167.477 1186.57 164.445 1183.44 Q161.436 1180.3 161.436 1174.86 Q161.436 1169.53 164.584 1166.31 Q167.732 1163.1 172.964 1163.1 Q178.959 1163.1 182.107 1167.7 Q185.278 1172.29 185.278 1181.04 Q185.278 1189.21 181.389 1194.09 Q177.524 1198.95 170.973 1198.95 Q169.214 1198.95 167.408 1198.61 Q165.602 1198.26 163.658 1197.56 M172.964 1182.91 Q176.112 1182.91 177.94 1180.76 Q179.792 1178.61 179.792 1174.86 Q179.792 1171.13 177.94 1168.98 Q176.112 1166.8 172.964 1166.8 Q169.815 1166.8 167.964 1168.98 Q166.135 1171.13 166.135 1174.86 Q166.135 1178.61 167.964 1180.76 Q169.815 1182.91 172.964 1182.91 Z" fill="#000000" fill-rule="nonzero" fill-opacity="1" /><path clip-path="url(#clip990)" d="M193.82 1197.56 L193.82 1193.3 Q195.579 1194.14 197.385 1194.58 Q199.19 1195.02 200.926 1195.02 Q205.556 1195.02 207.987 1191.92 Q210.44 1188.79 210.787 1182.45 Q209.445 1184.44 207.385 1185.5 Q205.324 1186.57 202.824 1186.57 Q197.639 1186.57 194.607 1183.44 Q191.598 1180.3 191.598 1174.86 Q191.598 1169.53 194.746 1166.31 Q197.894 1163.1 203.125 1163.1 Q209.121 1163.1 212.269 1167.7 Q215.44 1172.29 215.44 1181.04 Q215.44 1189.21 211.551 1194.09 Q207.686 1198.95 201.135 1198.95 Q199.375 1198.95 197.57 1198.61 Q195.764 1198.26 193.82 1197.56 M203.125 1182.91 Q206.274 1182.91 208.102 1180.76 Q209.954 1178.61 209.954 1174.86 Q209.954 1171.13 208.102 1168.98 Q206.274 1166.8 203.125 1166.8 Q199.977 1166.8 198.125 1168.98 Q196.297 1171.13 196.297 1174.86 Q196.297 1178.61 198.125 1180.76 Q199.977 1182.91 203.125 1182.91 Z" fill="#000000" fill-rule="nonzero" fill-opacity="1" /><path clip-path="url(#clip990)" d="M227.871 1194.35 L244.19 1194.35 L244.19 1198.28 L222.246 1198.28 L222.246 1194.35 Q224.908 1191.59 229.491 1186.96 Q234.097 1182.31 235.278 1180.97 Q237.523 1178.44 238.403 1176.71 Q239.306 1174.95 239.306 1173.26 Q239.306 1170.5 237.361 1168.77 Q235.44 1167.03 232.338 1167.03 Q230.139 1167.03 227.685 1167.8 Q225.255 1168.56 222.477 1170.11 L222.477 1165.39 Q225.301 1164.25 227.755 1163.68 Q230.209 1163.1 232.246 1163.1 Q237.616 1163.1 240.81 1165.78 Q244.005 1168.47 244.005 1172.96 Q244.005 1175.09 243.195 1177.01 Q242.408 1178.91 240.301 1181.5 Q239.722 1182.17 236.621 1185.39 Q233.519 1188.58 227.871 1194.35 Z" fill="#000000" fill-rule="nonzero" fill-opacity="1" /><path clip-path="url(#clip990)" d="M126.205 889.988 Q122.593 889.988 120.765 893.553 Q118.959 897.094 118.959 904.224 Q118.959 911.33 120.765 914.895 Q122.593 918.437 126.205 918.437 Q129.839 918.437 131.644 914.895 Q133.473 911.33 133.473 904.224 Q133.473 897.094 131.644 893.553 Q129.839 889.988 126.205 889.988 M126.205 886.284 Q132.015 886.284 135.07 890.891 Q138.149 895.474 138.149 904.224 Q138.149 912.951 135.07 917.557 Q132.015 922.141 126.205 922.141 Q120.394 922.141 117.316 917.557 Q114.26 912.951 114.26 904.224 Q114.26 895.474 117.316 890.891 Q120.394 886.284 126.205 886.284 Z" fill="#000000" fill-rule="nonzero" fill-opacity="1" /><path clip-path="url(#clip990)" d="M146.366 915.59 L151.251 915.59 L151.251 921.469 L146.366 921.469 L146.366 915.59 Z" fill="#000000" fill-rule="nonzero" fill-opacity="1" /><path clip-path="url(#clip990)" d="M161.575 920.752 L161.575 916.492 Q163.334 917.326 165.14 917.766 Q166.945 918.205 168.681 918.205 Q173.311 918.205 175.741 915.104 Q178.195 911.979 178.542 905.636 Q177.2 907.627 175.139 908.692 Q173.079 909.756 170.579 909.756 Q165.394 909.756 162.362 906.631 Q159.353 903.483 159.353 898.043 Q159.353 892.719 162.501 889.502 Q165.649 886.284 170.88 886.284 Q176.876 886.284 180.024 890.891 Q183.195 895.474 183.195 904.224 Q183.195 912.395 179.306 917.279 Q175.44 922.141 168.889 922.141 Q167.13 922.141 165.325 921.793 Q163.519 921.446 161.575 920.752 M170.88 906.099 Q174.028 906.099 175.857 903.946 Q177.709 901.793 177.709 898.043 Q177.709 894.317 175.857 892.164 Q174.028 889.988 170.88 889.988 Q167.732 889.988 165.88 892.164 Q164.052 894.317 164.052 898.043 Q164.052 901.793 165.88 903.946 Q167.732 906.099 170.88 906.099 Z" fill="#000000" fill-rule="nonzero" fill-opacity="1" /><path clip-path="url(#clip990)" d="M191.737 920.752 L191.737 916.492 Q193.496 917.326 195.301 917.766 Q197.107 918.205 198.843 918.205 Q203.473 918.205 205.903 915.104 Q208.357 911.979 208.704 905.636 Q207.362 907.627 205.301 908.692 Q203.241 909.756 200.741 909.756 Q195.556 909.756 192.524 906.631 Q189.514 903.483 189.514 898.043 Q189.514 892.719 192.663 889.502 Q195.811 886.284 201.042 886.284 Q207.037 886.284 210.186 890.891 Q213.357 895.474 213.357 904.224 Q213.357 912.395 209.468 917.279 Q205.602 922.141 199.051 922.141 Q197.292 922.141 195.487 921.793 Q193.681 921.446 191.737 920.752 M201.042 906.099 Q204.19 906.099 206.019 903.946 Q207.871 901.793 207.871 898.043 Q207.871 894.317 206.019 892.164 Q204.19 889.988 201.042 889.988 Q197.894 889.988 196.042 892.164 Q194.213 894.317 194.213 898.043 Q194.213 901.793 196.042 903.946 Q197.894 906.099 201.042 906.099 Z" fill="#000000" fill-rule="nonzero" fill-opacity="1" /><path clip-path="url(#clip990)" d="M234.607 890.983 L222.801 909.432 L234.607 909.432 L234.607 890.983 M233.38 886.909 L239.259 886.909 L239.259 909.432 L244.19 909.432 L244.19 913.321 L239.259 913.321 L239.259 921.469 L234.607 921.469 L234.607 913.321 L219.005 913.321 L219.005 908.807 L233.38 886.909 Z" fill="#000000" fill-rule="nonzero" fill-opacity="1" /><path clip-path="url(#clip990)" d="M126.529 613.176 Q122.918 613.176 121.089 616.74 Q119.283 620.282 119.283 627.412 Q119.283 634.518 121.089 638.083 Q122.918 641.624 126.529 641.624 Q130.163 641.624 131.968 638.083 Q133.797 634.518 133.797 627.412 Q133.797 620.282 131.968 616.74 Q130.163 613.176 126.529 613.176 M126.529 609.472 Q132.339 609.472 135.394 614.078 Q138.473 618.662 138.473 627.412 Q138.473 636.138 135.394 640.745 Q132.339 645.328 126.529 645.328 Q120.718 645.328 117.64 640.745 Q114.584 636.138 114.584 627.412 Q114.584 618.662 117.64 614.078 Q120.718 609.472 126.529 609.472 Z" fill="#000000" fill-rule="nonzero" fill-opacity="1" /><path clip-path="url(#clip990)" d="M146.691 638.777 L151.575 638.777 L151.575 644.657 L146.691 644.657 L146.691 638.777 Z" fill="#000000" fill-rule="nonzero" fill-opacity="1" /><path clip-path="url(#clip990)" d="M161.899 643.939 L161.899 639.68 Q163.658 640.513 165.464 640.953 Q167.269 641.393 169.005 641.393 Q173.635 641.393 176.065 638.291 Q178.519 635.166 178.866 628.824 Q177.524 630.814 175.464 631.879 Q173.403 632.944 170.903 632.944 Q165.718 632.944 162.686 629.819 Q159.677 626.671 159.677 621.231 Q159.677 615.907 162.825 612.689 Q165.973 609.472 171.204 609.472 Q177.2 609.472 180.348 614.078 Q183.519 618.662 183.519 627.412 Q183.519 635.583 179.63 640.467 Q175.764 645.328 169.214 645.328 Q167.454 645.328 165.649 644.981 Q163.843 644.634 161.899 643.939 M171.204 629.287 Q174.352 629.287 176.181 627.134 Q178.033 624.981 178.033 621.231 Q178.033 617.504 176.181 615.351 Q174.352 613.176 171.204 613.176 Q168.056 613.176 166.204 615.351 Q164.376 617.504 164.376 621.231 Q164.376 624.981 166.204 627.134 Q168.056 629.287 171.204 629.287 Z" fill="#000000" fill-rule="nonzero" fill-opacity="1" /><path clip-path="url(#clip990)" d="M192.061 643.939 L192.061 639.68 Q193.82 640.513 195.625 640.953 Q197.431 641.393 199.167 641.393 Q203.797 641.393 206.227 638.291 Q208.681 635.166 209.028 628.824 Q207.686 630.814 205.625 631.879 Q203.565 632.944 201.065 632.944 Q195.88 632.944 192.848 629.819 Q189.838 626.671 189.838 621.231 Q189.838 615.907 192.987 612.689 Q196.135 609.472 201.366 609.472 Q207.362 609.472 210.51 614.078 Q213.681 618.662 213.681 627.412 Q213.681 635.583 209.792 640.467 Q205.926 645.328 199.375 645.328 Q197.616 645.328 195.811 644.981 Q194.005 644.634 192.061 643.939 M201.366 629.287 Q204.514 629.287 206.343 627.134 Q208.195 624.981 208.195 621.231 Q208.195 617.504 206.343 615.351 Q204.514 613.176 201.366 613.176 Q198.218 613.176 196.366 615.351 Q194.538 617.504 194.538 621.231 Q194.538 624.981 196.366 627.134 Q198.218 629.287 201.366 629.287 Z" fill="#000000" fill-rule="nonzero" fill-opacity="1" /><path clip-path="url(#clip990)" d="M232.662 625.513 Q229.514 625.513 227.662 627.666 Q225.834 629.819 225.834 633.569 Q225.834 637.296 227.662 639.472 Q229.514 641.624 232.662 641.624 Q235.81 641.624 237.639 639.472 Q239.491 637.296 239.491 633.569 Q239.491 629.819 237.639 627.666 Q235.81 625.513 232.662 625.513 M241.945 610.861 L241.945 615.12 Q240.185 614.287 238.38 613.847 Q236.597 613.407 234.838 613.407 Q230.209 613.407 227.755 616.532 Q225.324 619.657 224.977 625.976 Q226.343 623.962 228.403 622.898 Q230.463 621.81 232.94 621.81 Q238.148 621.81 241.158 624.981 Q244.19 628.129 244.19 633.569 Q244.19 638.893 241.042 642.111 Q237.894 645.328 232.662 645.328 Q226.667 645.328 223.496 640.745 Q220.324 636.138 220.324 627.412 Q220.324 619.217 224.213 614.356 Q228.102 609.472 234.653 609.472 Q236.412 609.472 238.195 609.819 Q240 610.166 241.945 610.861 Z" fill="#000000" fill-rule="nonzero" fill-opacity="1" /><path clip-path="url(#clip990)" d="M126.783 336.363 Q123.172 336.363 121.343 339.928 Q119.538 343.47 119.538 350.599 Q119.538 357.706 121.343 361.27 Q123.172 364.812 126.783 364.812 Q130.417 364.812 132.223 361.27 Q134.052 357.706 134.052 350.599 Q134.052 343.47 132.223 339.928 Q130.417 336.363 126.783 336.363 M126.783 332.659 Q132.593 332.659 135.649 337.266 Q138.728 341.849 138.728 350.599 Q138.728 359.326 135.649 363.932 Q132.593 368.516 126.783 368.516 Q120.973 368.516 117.894 363.932 Q114.839 359.326 114.839 350.599 Q114.839 341.849 117.894 337.266 Q120.973 332.659 126.783 332.659 Z" fill="#000000" fill-rule="nonzero" fill-opacity="1" /><path clip-path="url(#clip990)" d="M146.945 361.965 L151.829 361.965 L151.829 367.844 L146.945 367.844 L146.945 361.965 Z" fill="#000000" fill-rule="nonzero" fill-opacity="1" /><path clip-path="url(#clip990)" d="M162.153 367.127 L162.153 362.868 Q163.913 363.701 165.718 364.141 Q167.524 364.581 169.26 364.581 Q173.889 364.581 176.32 361.479 Q178.774 358.354 179.121 352.011 Q177.778 354.002 175.718 355.067 Q173.658 356.132 171.158 356.132 Q165.973 356.132 162.94 353.007 Q159.931 349.858 159.931 344.419 Q159.931 339.095 163.079 335.877 Q166.227 332.659 171.459 332.659 Q177.454 332.659 180.602 337.266 Q183.774 341.849 183.774 350.599 Q183.774 358.77 179.885 363.655 Q176.019 368.516 169.468 368.516 Q167.709 368.516 165.903 368.168 Q164.098 367.821 162.153 367.127 M171.459 352.474 Q174.607 352.474 176.436 350.321 Q178.288 348.169 178.288 344.419 Q178.288 340.692 176.436 338.539 Q174.607 336.363 171.459 336.363 Q168.311 336.363 166.459 338.539 Q164.63 340.692 164.63 344.419 Q164.63 348.169 166.459 350.321 Q168.311 352.474 171.459 352.474 Z" fill="#000000" fill-rule="nonzero" fill-opacity="1" /><path clip-path="url(#clip990)" d="M192.315 367.127 L192.315 362.868 Q194.075 363.701 195.88 364.141 Q197.686 364.581 199.422 364.581 Q204.051 364.581 206.482 361.479 Q208.936 358.354 209.283 352.011 Q207.94 354.002 205.88 355.067 Q203.82 356.132 201.32 356.132 Q196.135 356.132 193.102 353.007 Q190.093 349.858 190.093 344.419 Q190.093 339.095 193.241 335.877 Q196.389 332.659 201.621 332.659 Q207.616 332.659 210.764 337.266 Q213.936 341.849 213.936 350.599 Q213.936 358.77 210.047 363.655 Q206.181 368.516 199.63 368.516 Q197.871 368.516 196.065 368.168 Q194.26 367.821 192.315 367.127 M201.621 352.474 Q204.769 352.474 206.598 350.321 Q208.449 348.169 208.449 344.419 Q208.449 340.692 206.598 338.539 Q204.769 336.363 201.621 336.363 Q198.473 336.363 196.621 338.539 Q194.792 340.692 194.792 344.419 Q194.792 348.169 196.621 350.321 Q198.473 352.474 201.621 352.474 Z" fill="#000000" fill-rule="nonzero" fill-opacity="1" /><path clip-path="url(#clip990)" d="M232.338 351.432 Q229.005 351.432 227.084 353.215 Q225.185 354.997 225.185 358.122 Q225.185 361.247 227.084 363.03 Q229.005 364.812 232.338 364.812 Q235.672 364.812 237.593 363.03 Q239.514 361.224 239.514 358.122 Q239.514 354.997 237.593 353.215 Q235.695 351.432 232.338 351.432 M227.662 349.442 Q224.653 348.701 222.963 346.641 Q221.297 344.581 221.297 341.618 Q221.297 337.474 224.236 335.067 Q227.199 332.659 232.338 332.659 Q237.5 332.659 240.44 335.067 Q243.38 337.474 243.38 341.618 Q243.38 344.581 241.69 346.641 Q240.023 348.701 237.037 349.442 Q240.417 350.229 242.292 352.52 Q244.19 354.812 244.19 358.122 Q244.19 363.145 241.111 365.831 Q238.056 368.516 232.338 368.516 Q226.621 368.516 223.542 365.831 Q220.486 363.145 220.486 358.122 Q220.486 354.812 222.385 352.52 Q224.283 350.229 227.662 349.442 M225.949 342.058 Q225.949 344.743 227.616 346.247 Q229.306 347.752 232.338 347.752 Q235.347 347.752 237.037 346.247 Q238.75 344.743 238.75 342.058 Q238.75 339.372 237.037 337.868 Q235.347 336.363 232.338 336.363 Q229.306 336.363 227.616 337.868 Q225.949 339.372 225.949 342.058 Z" fill="#000000" fill-rule="nonzero" fill-opacity="1" /><path clip-path="url(#clip990)" d="M117.501 87.0968 L125.14 87.0968 L125.14 60.7312 L116.83 62.3979 L116.83 58.1387 L125.093 56.472 L129.769 56.472 L129.769 87.0968 L137.408 87.0968 L137.408 91.032 L117.501 91.032 L117.501 87.0968 Z" fill="#000000" fill-rule="nonzero" fill-opacity="1" /><path clip-path="url(#clip990)" d="M146.853 85.1524 L151.737 85.1524 L151.737 91.032 L146.853 91.032 L146.853 85.1524 Z" fill="#000000" fill-rule="nonzero" fill-opacity="1" /><path clip-path="url(#clip990)" d="M171.922 59.5507 Q168.311 59.5507 166.482 63.1155 Q164.677 66.6571 164.677 73.7867 Q164.677 80.8932 166.482 84.458 Q168.311 87.9996 171.922 87.9996 Q175.556 87.9996 177.362 84.458 Q179.19 80.8932 179.19 73.7867 Q179.19 66.6571 177.362 63.1155 Q175.556 59.5507 171.922 59.5507 M171.922 55.847 Q177.732 55.847 180.788 60.4535 Q183.866 65.0368 183.866 73.7867 Q183.866 82.5135 180.788 87.12 Q177.732 91.7033 171.922 91.7033 Q166.112 91.7033 163.033 87.12 Q159.978 82.5135 159.978 73.7867 Q159.978 65.0368 163.033 60.4535 Q166.112 55.847 171.922 55.847 Z" fill="#000000" fill-rule="nonzero" fill-opacity="1" /><path clip-path="url(#clip990)" d="M202.084 59.5507 Q198.473 59.5507 196.644 63.1155 Q194.838 66.6571 194.838 73.7867 Q194.838 80.8932 196.644 84.458 Q198.473 87.9996 202.084 87.9996 Q205.718 87.9996 207.524 84.458 Q209.352 80.8932 209.352 73.7867 Q209.352 66.6571 207.524 63.1155 Q205.718 59.5507 202.084 59.5507 M202.084 55.847 Q207.894 55.847 210.949 60.4535 Q214.028 65.0368 214.028 73.7867 Q214.028 82.5135 210.949 87.12 Q207.894 91.7033 202.084 91.7033 Q196.274 91.7033 193.195 87.12 Q190.139 82.5135 190.139 73.7867 Q190.139 65.0368 193.195 60.4535 Q196.274 55.847 202.084 55.847 Z" fill="#000000" fill-rule="nonzero" fill-opacity="1" /><path clip-path="url(#clip990)" d="M232.246 59.5507 Q228.635 59.5507 226.806 63.1155 Q225 66.6571 225 73.7867 Q225 80.8932 226.806 84.458 Q228.635 87.9996 232.246 87.9996 Q235.88 87.9996 237.685 84.458 Q239.514 80.8932 239.514 73.7867 Q239.514 66.6571 237.685 63.1155 Q235.88 59.5507 232.246 59.5507 M232.246 55.847 Q238.056 55.847 241.111 60.4535 Q244.19 65.0368 244.19 73.7867 Q244.19 82.5135 241.111 87.12 Q238.056 91.7033 232.246 91.7033 Q226.435 91.7033 223.357 87.12 Q220.301 82.5135 220.301 73.7867 Q220.301 65.0368 223.357 60.4535 Q226.435 55.847 232.246 55.847 Z" fill="#000000" fill-rule="nonzero" fill-opacity="1" /><path clip-path="url(#clip990)" d="M41.7242 981.804 Q42.4244 979.735 44.7161 977.793 Q47.0077 975.82 51.0181 973.846 L64.0042 967.322 L64.0042 974.228 L51.8138 980.308 Q47.0395 982.663 45.48 984.891 Q43.9204 987.087 43.9204 990.906 L43.9204 997.909 L64.0042 997.909 L64.0042 1004.34 L16.4842 1004.34 L16.4842 989.824 Q16.4842 981.676 19.8898 977.666 Q23.2955 973.655 30.1704 973.655 Q34.6582 973.655 37.6183 975.756 Q40.5784 977.825 41.7242 981.804 M21.7677 997.909 L38.6368 997.909 L38.6368 989.824 Q38.6368 985.177 36.5043 982.822 Q34.34 980.435 30.1704 980.435 Q26.0009 980.435 23.9002 982.822 Q21.7677 985.177 21.7677 989.824 L21.7677 997.909 Z" fill="#000000" fill-rule="nonzero" fill-opacity="1" /><path clip-path="url(#clip990)" d="M44.7161 931.737 L47.5806 931.737 L47.5806 958.664 Q53.6281 958.282 56.8109 955.036 Q59.9619 951.757 59.9619 945.933 Q59.9619 942.559 59.1344 939.408 Q58.3069 936.225 56.6518 933.106 L62.1899 933.106 Q63.5267 936.257 64.227 939.567 Q64.9272 942.877 64.9272 946.283 Q64.9272 954.813 59.9619 959.81 Q54.9967 964.775 46.5303 964.775 Q37.7774 964.775 32.6531 960.065 Q27.4968 955.322 27.4968 947.301 Q27.4968 940.108 32.1438 935.939 Q36.7589 931.737 44.7161 931.737 M42.9973 937.594 Q38.1912 937.657 35.3266 940.299 Q32.4621 942.909 32.4621 947.238 Q32.4621 952.139 35.2312 955.099 Q38.0002 958.028 43.0292 958.473 L42.9973 937.594 Z" fill="#000000" fill-rule="nonzero" fill-opacity="1" /><path clip-path="url(#clip990)" d="M14.479 904.078 L19.3487 904.078 L19.3487 909.68 Q19.3487 912.831 20.6219 914.072 Q21.895 915.282 25.2052 915.282 L28.3562 915.282 L28.3562 905.638 L32.9077 905.638 L32.9077 915.282 L64.0042 915.282 L64.0042 921.17 L32.9077 921.17 L32.9077 926.772 L28.3562 926.772 L28.3562 921.17 L25.8736 921.17 Q19.9216 921.17 17.2162 918.401 Q14.479 915.632 14.479 909.616 L14.479 904.078 Z" fill="#000000" fill-rule="nonzero" fill-opacity="1" /><path clip-path="url(#clip990)" d="M14.479 899.177 L14.479 893.32 L64.0042 893.32 L64.0042 899.177 L14.479 899.177 Z" fill="#000000" fill-rule="nonzero" fill-opacity="1" /><path clip-path="url(#clip990)" d="M44.7161 850.574 L47.5806 850.574 L47.5806 877.501 Q53.6281 877.119 56.8109 873.873 Q59.9619 870.595 59.9619 864.77 Q59.9619 861.396 59.1344 858.245 Q58.3069 855.062 56.6518 851.943 L62.1899 851.943 Q63.5267 855.094 64.227 858.404 Q64.9272 861.714 64.9272 865.12 Q64.9272 873.65 59.9619 878.647 Q54.9967 883.613 46.5303 883.613 Q37.7774 883.613 32.6531 878.902 Q27.4968 874.159 27.4968 866.139 Q27.4968 858.945 32.1438 854.776 Q36.7589 850.574 44.7161 850.574 M42.9973 856.431 Q38.1912 856.495 35.3266 859.136 Q32.4621 861.746 32.4621 866.075 Q32.4621 870.977 35.2312 873.937 Q38.0002 876.865 43.0292 877.31 L42.9973 856.431 Z" fill="#000000" fill-rule="nonzero" fill-opacity="1" /><path clip-path="url(#clip990)" d="M29.7248 815.308 L35.1993 815.308 Q33.8307 817.791 33.1623 820.306 Q32.4621 822.788 32.4621 825.334 Q32.4621 831.032 36.0905 834.183 Q39.6872 837.334 46.212 837.334 Q52.7369 837.334 56.3653 834.183 Q59.9619 831.032 59.9619 825.334 Q59.9619 822.788 59.2935 820.306 Q58.5933 817.791 57.2247 815.308 L62.6355 815.308 Q63.7814 817.759 64.3543 820.401 Q64.9272 823.011 64.9272 825.971 Q64.9272 834.024 59.8664 838.766 Q54.8057 843.509 46.212 843.509 Q37.491 843.509 32.4939 838.734 Q27.4968 833.928 27.4968 825.589 Q27.4968 822.884 28.0697 820.306 Q28.6108 817.727 29.7248 815.308 Z" fill="#000000" fill-rule="nonzero" fill-opacity="1" /><path clip-path="url(#clip990)" d="M18.2347 799.331 L28.3562 799.331 L28.3562 787.268 L32.9077 787.268 L32.9077 799.331 L52.2594 799.331 Q56.6199 799.331 57.8613 798.153 Q59.1026 796.943 59.1026 793.283 L59.1026 787.268 L64.0042 787.268 L64.0042 793.283 Q64.0042 800.063 61.4897 802.641 Q58.9434 805.219 52.2594 805.219 L32.9077 805.219 L32.9077 809.516 L28.3562 809.516 L28.3562 805.219 L18.2347 805.219 L18.2347 799.331 Z" fill="#000000" fill-rule="nonzero" fill-opacity="1" /><path clip-path="url(#clip990)" d="M28.3562 779.565 L28.3562 773.709 L64.0042 773.709 L64.0042 779.565 L28.3562 779.565 M14.479 779.565 L14.479 773.709 L21.895 773.709 L21.895 779.565 L14.479 779.565 Z" fill="#000000" fill-rule="nonzero" fill-opacity="1" /><path clip-path="url(#clip990)" d="M28.3562 765.656 L28.3562 759.449 L58.275 748.309 L28.3562 737.169 L28.3562 730.963 L64.0042 744.331 L64.0042 752.288 L28.3562 765.656 Z" fill="#000000" fill-rule="nonzero" fill-opacity="1" /><path clip-path="url(#clip990)" d="M28.3562 722.878 L28.3562 717.022 L64.0042 717.022 L64.0042 722.878 L28.3562 722.878 M14.479 722.878 L14.479 717.022 L21.895 717.022 L21.895 722.878 L14.479 722.878 Z" fill="#000000" fill-rule="nonzero" fill-opacity="1" /><path clip-path="url(#clip990)" d="M18.2347 698.975 L28.3562 698.975 L28.3562 686.912 L32.9077 686.912 L32.9077 698.975 L52.2594 698.975 Q56.6199 698.975 57.8613 697.798 Q59.1026 696.588 59.1026 692.928 L59.1026 686.912 L64.0042 686.912 L64.0042 692.928 Q64.0042 699.707 61.4897 702.285 Q58.9434 704.863 52.2594 704.863 L32.9077 704.863 L32.9077 709.16 L28.3562 709.16 L28.3562 704.863 L18.2347 704.863 L18.2347 698.975 Z" fill="#000000" fill-rule="nonzero" fill-opacity="1" /><path clip-path="url(#clip990)" d="M67.3143 664.378 Q73.68 666.86 75.6216 669.216 Q77.5631 671.571 77.5631 675.518 L77.5631 680.196 L72.6615 680.196 L72.6615 676.759 Q72.6615 674.34 71.5157 673.003 Q70.3699 671.666 66.1048 670.043 L63.4312 668.993 L28.3562 683.411 L28.3562 677.204 L56.238 666.064 L28.3562 654.924 L28.3562 648.718 L67.3143 664.378 Z" fill="#000000" fill-rule="nonzero" fill-opacity="1" /><path clip-path="url(#clip990)" d="M14.1925 612.37 L79.3773 612.37 L79.3773 617.781 L14.1925 617.781 L14.1925 612.37 Z" fill="#000000" fill-rule="nonzero" fill-opacity="1" /><path clip-path="url(#clip990)" d="M18.0438 569.21 L24.314 569.21 Q22.5634 572.871 21.704 576.117 Q20.8447 579.364 20.8447 582.387 Q20.8447 587.639 22.8817 590.504 Q24.9187 593.336 28.6745 593.336 Q31.8255 593.336 33.4488 591.458 Q35.0402 589.549 36.0269 584.265 L36.8226 580.382 Q38.1912 573.189 41.6605 569.783 Q45.098 566.346 50.8908 566.346 Q57.7976 566.346 61.3624 570.993 Q64.9272 575.608 64.9272 584.552 Q64.9272 587.925 64.1633 591.745 Q63.3994 595.532 61.9035 599.607 L55.2831 599.607 Q57.4793 595.692 58.5933 591.936 Q59.7073 588.18 59.7073 584.552 Q59.7073 579.045 57.543 576.053 Q55.3786 573.062 51.3682 573.062 Q47.8671 573.062 45.8937 575.226 Q43.9204 577.358 42.9337 582.26 L42.1698 586.175 Q40.7375 593.368 37.682 596.583 Q34.6264 599.797 29.1837 599.797 Q22.8817 599.797 19.2532 595.373 Q15.6248 590.917 15.6248 583.119 Q15.6248 579.777 16.2295 576.308 Q16.8343 572.839 18.0438 569.21 Z" fill="#000000" fill-rule="nonzero" fill-opacity="1" /><path clip-path="url(#clip990)" d="M58.5933 554.633 L58.5933 544.129 L22.3406 544.129 L24.6323 555.556 L18.7758 555.556 L16.4842 544.193 L16.4842 537.764 L58.5933 537.764 L58.5933 527.26 L64.0042 527.26 L64.0042 554.633 L58.5933 554.633 Z" fill="#000000" fill-rule="nonzero" fill-opacity="1" /><path clip-path="url(#clip990)" d="M58.5933 513.16 L58.5933 502.657 L22.3406 502.657 L24.6323 514.083 L18.7758 514.083 L16.4842 502.72 L16.4842 496.291 L58.5933 496.291 L58.5933 485.788 L64.0042 485.788 L64.0042 513.16 L58.5933 513.16 Z" fill="#000000" fill-rule="nonzero" fill-opacity="1" /><path clip-path="url(#clip990)" d="M14.1925 466.086 L79.3773 466.086 L79.3773 471.497 L14.1925 471.497 L14.1925 466.086 Z" fill="#000000" fill-rule="nonzero" fill-opacity="1" /><polyline clip-path="url(#clip992)" style="stroke:#009af9; stroke-linecap:round; stroke-linejoin:round; stroke-width:4; stroke-opacity:1; fill:none" points="338.848,86.1857 340.805,86.196 342.762,86.2063 344.719,86.2168 346.676,86.2273 348.634,86.2379 350.591,86.2486 352.548,86.2594 354.505,86.2702 356.462,86.2812 358.42,86.2922 360.377,86.3034 362.334,86.3146 364.291,86.3259 366.248,86.3373 368.206,86.3488 370.163,86.3603 372.12,86.372 374.077,86.3838 376.034,86.3956 377.992,86.4075 379.949,86.4196 381.906,86.4317 383.863,86.444 385.821,86.4563 387.778,86.4687 389.735,86.4812 391.692,86.4939 393.649,86.5066 395.607,86.5194 397.564,86.5323 399.521,86.5454 401.478,86.5585 403.435,86.5717 405.393,86.5851 407.35,86.5985 409.307,86.6121 411.264,86.6257 413.221,86.6395 415.179,86.6534 417.136,86.6674 419.093,86.6815 421.05,86.6957 423.007,86.7101 424.965,86.7245 426.922,86.7391 428.879,86.7537 430.836,86.7685 432.794,86.7835 434.751,86.7985 436.708,86.8136 438.665,86.8289 440.622,86.8443 442.58,86.8599 444.537,86.8755 446.494,86.8913 448.451,86.9072 450.408,86.9232 452.366,86.9394 454.323,86.9557 456.28,86.9721 458.237,86.9886 460.194,87.0053 462.152,87.0222 464.109,87.0391 466.066,87.0562 468.023,87.0735 469.98,87.0909 471.938,87.1084 473.895,87.126 475.852,87.1439 477.809,87.1618 479.767,87.1799 481.724,87.1982 483.681,87.2166 485.638,87.2351 487.595,87.2538 489.553,87.2727 491.51,87.2917 493.467,87.3109 495.424,87.3302 497.381,87.3497 499.339,87.3693 501.296,87.3891 503.253,87.4091 505.21,87.4293 507.167,87.4496 509.125,87.47 511.082,87.4907 513.039,87.5115 514.996,87.5325 516.953,87.5537 518.911,87.575 520.868,87.5966 522.825,87.6183 524.782,87.6402 526.74,87.6622 528.697,87.6845 530.654,87.7069 532.611,87.7296 534.568,87.7524 536.526,87.7754 538.483,87.7987 540.44,87.8221 542.397,87.8457 544.354,87.8695 546.312,87.8935 548.269,87.9178 550.226,87.9422 552.183,87.9669 554.14,87.9917 556.098,88.0168 558.055,88.0421 560.012,88.0676 561.969,88.0933 563.926,88.1193 565.884,88.1454 567.841,88.1719 569.798,88.1985 571.755,88.2254 573.713,88.2525 575.67,88.2798 577.627,88.3074 579.584,88.3352 581.541,88.3633 583.499,88.3916 585.456,88.4201 587.413,88.449 589.37,88.478 591.327,88.5074 593.285,88.5369 595.242,88.5668 597.199,88.5969 599.156,88.6273 601.113,88.658 603.071,88.6889 605.028,88.7201 606.985,88.7516 608.942,88.7834 610.899,88.8155 612.857,88.8478 614.814,88.8805 616.771,88.9135 618.728,88.9467 620.686,88.9803 622.643,89.0141 624.6,89.0483 626.557,89.0828 628.514,89.1176 630.472,89.1527 632.429,89.1882 634.386,89.224 636.343,89.2601 638.3,89.2965 640.258,89.3333 642.215,89.3705 644.172,89.408 646.129,89.4458 648.086,89.484 650.044,89.5225 652.001,89.5615 653.958,89.6007 655.915,89.6404 657.872,89.6804 659.83,89.7209 661.787,89.7617 663.744,89.8029 665.701,89.8445 667.658,89.8865 669.616,89.9289 671.573,89.9717 673.53,90.0149 675.487,90.0585 677.445,90.1026 679.402,90.1471 681.359,90.1921 683.316,90.2374 685.273,90.2833 687.231,90.3296 689.188,90.3763 691.145,90.4235 693.102,90.4712 695.059,90.5193 697.017,90.5679 698.974,90.6171 700.931,90.6667 702.888,90.7168 704.845,90.7674 706.803,90.8185 708.76,90.8702 710.717,90.9223 712.674,90.975 714.631,91.0283 716.589,91.0821 718.546,91.1364 720.503,91.1913 722.46,91.2468 724.418,91.3029 726.375,91.3595 728.332,91.4167 730.289,91.4745 732.246,91.533 734.204,91.592 736.161,91.6517 738.118,91.712 740.075,91.7729 742.032,91.8345 743.99,91.8967 745.947,91.9596 747.904,92.0232 749.861,92.0875 751.818,92.1525 753.776,92.2181 755.733,92.2845 757.69,92.3516 759.647,92.4195 761.604,92.488 763.562,92.5574 765.519,92.6275 767.476,92.6984 769.433,92.77 771.391,92.8425 773.348,92.9157 775.305,92.9898 777.262,93.0648 779.219,93.1405 781.177,93.2172 783.134,93.2946 785.091,93.373 787.048,93.4523 789.005,93.5325 790.963,93.6136 792.92,93.6956 794.877,93.7786 796.834,93.8625 798.791,93.9475 800.749,94.0334 802.706,94.1203 804.663,94.2083 806.62,94.2973 808.577,94.3873 810.535,94.4784 812.492,94.5706 814.449,94.6639 816.406,94.7583 818.364,94.8539 820.321,94.9506 822.278,95.0485 824.235,95.1476 826.192,95.2479 828.15,95.3494 830.107,95.4522 832.064,95.5562 834.021,95.6615 835.978,95.7682 837.936,95.8762 839.893,95.9855 841.85,96.0962 843.807,96.2083 845.764,96.3218 847.722,96.4368 849.679,96.5532 851.636,96.6712 853.593,96.7906 855.55,96.9116 857.508,97.0342 859.465,97.1583 861.422,97.2841 863.379,97.4115 865.337,97.5406 867.294,97.6715 869.251,97.804 871.208,97.9383 873.165,98.0745 875.123,98.2124 877.08,98.3522 879.037,98.4939 880.994,98.6375 882.951,98.7831 884.909,98.9307 886.866,99.0803 888.823,99.232 890.78,99.3858 892.737,99.5418 894.695,99.6999 896.652,99.8602 898.609,100.023 900.566,100.188 902.523,100.355 904.481,100.525 906.438,100.697 908.395,100.871 910.352,101.048 912.309,101.228 914.267,101.411 916.224,101.595 918.181,101.783 920.138,101.974 922.096,102.167 924.053,102.363 926.01,102.562 927.967,102.765 929.924,102.97 931.882,103.178 933.839,103.39 935.796,103.605 937.753,103.823 939.71,104.044 941.668,104.269 943.625,104.498 945.582,104.73 947.539,104.966 949.496,105.205 951.454,105.449 953.411,105.696 955.368,105.947 957.325,106.202 959.282,106.462 961.24,106.726 963.197,106.994 965.154,107.266 967.111,107.543 969.069,107.825 971.026,108.111 972.983,108.403 974.94,108.699 976.897,109 978.855,109.306 980.812,109.618 982.769,109.935 984.726,110.258 986.683,110.586 988.641,110.92 990.598,111.26 992.555,111.606 994.512,111.958 996.469,112.317 998.427,112.682 1000.38,113.053 1002.34,113.432 1004.3,113.817 1006.26,114.21 1008.21,114.61 1010.17,115.017 1012.13,115.432 1014.08,115.855 1016.04,116.286 1018,116.725 1019.96,117.173 1021.91,117.63 1023.87,118.095 1025.83,118.569 1027.78,119.053 1029.74,119.546 1031.7,120.05 1033.66,120.563 1035.61,121.087 1037.57,121.621 1039.53,122.167 1041.49,122.723 1043.44,123.292 1045.4,123.872 1047.36,124.464 1049.31,125.069 1051.27,125.686 1053.23,126.317 1055.19,126.962 1057.14,127.62 1059.1,128.293 1061.06,128.981 1063.01,129.684 1064.97,130.402 1066.93,131.137 1068.89,131.888 1070.84,132.657 1072.8,133.443 1074.76,134.247 1076.71,135.07 1078.67,135.912 1080.63,136.774 1082.59,137.656 1084.54,138.56 1086.5,139.485 1088.46,140.433 1090.42,141.404 1092.37,142.399 1094.33,143.418 1096.29,144.463 1098.24,145.535 1100.2,146.633 1102.16,147.76 1104.12,148.915 1106.07,150.101 1108.03,151.317 1109.99,152.566 1111.94,153.848 1113.9,155.164 1115.86,156.516 1117.82,157.904 1119.77,159.331 1121.73,160.797 1123.69,162.303 1125.65,163.853 1127.6,165.446 1129.56,167.084 1131.52,168.77 1133.47,170.505 1135.43,172.29 1137.39,174.129 1139.35,176.022 1141.3,177.972 1143.26,179.981 1145.22,182.052 1147.17,184.186 1149.13,186.387 1151.09,188.657 1153.05,190.999 1155,193.416 1156.96,195.91 1158.92,198.486 1160.87,201.146 1162.83,203.895 1164.79,206.735 1166.75,209.672 1168.7,212.708 1170.66,215.848 1172.62,219.098 1174.58,222.461 1176.53,225.943 1178.49,229.549 1180.45,233.285 1182.4,237.157 1184.36,241.171 1186.32,245.333 1188.28,249.651 1190.23,254.132 1192.19,258.783 1194.15,263.613 1196.1,268.631 1198.06,273.844 1200.02,279.264 1201.98,284.9 1203.93,290.763 1205.89,296.863 1207.85,303.214 1209.81,309.826 1211.76,316.715 1213.72,323.893 1215.68,331.375 1217.63,339.177 1219.59,347.315 1221.55,355.806 1223.51,364.669 1225.46,373.922 1227.42,383.586 1229.38,393.681 1231.33,404.229 1233.29,415.253 1235.25,426.778 1237.21,438.828 1239.16,451.429 1241.12,464.608 1243.08,478.393 1245.03,492.812 1246.99,507.895 1248.95,523.672 1250.91,540.171 1252.86,557.424 1254.82,575.46 1256.78,594.307 1258.74,613.994 1260.69,634.547 1262.65,655.988 1264.61,678.339 1266.56,701.615 1268.52,725.827 1270.48,750.979 1272.44,777.067 1274.39,804.077 1276.35,831.984 1278.31,860.751 1280.26,890.322 1282.22,920.628 1284.18,951.578 1286.14,983.06 1288.09,1014.94 1290.05,1047.05 1292.01,1079.21 1293.97,1111.21 1295.92,1142.81 1297.88,1173.73 1299.84,1203.71 1301.79,1232.42 1303.75,1259.56 1305.71,1284.8 1307.67,1307.81 1309.62,1328.3 1311.58,1345.95 1313.54,1360.52 1315.49,1371.78 1317.45,1379.56 1319.41,1383.73 1321.37,1384.24 1323.32,1381.08 1325.28,1374.32 1327.24,1364.08 1329.19,1350.54 1331.15,1333.91 1333.11,1314.46 1335.07,1292.47 1337.02,1268.26 1338.98,1242.14 1340.94,1214.43 1342.9,1185.45 1344.85,1155.48 1346.81,1124.82 1348.77,1093.73 1350.72,1062.43 1352.68,1031.13 1354.64,1000.03 1356.6,969.276 1358.55,939.005 1360.51,909.329 1362.47,880.337 1364.42,852.101 1366.38,824.675 1368.34,798.099 1370.3,772.399 1372.25,747.59 1374.21,723.68 1376.17,700.665 1378.13,678.538 1380.08,657.285 1382.04,636.888 1384,617.326 1385.95,598.575 1387.91,580.609 1389.87,563.401 1391.83,546.925 1393.78,531.151 1395.74,516.052 1397.7,501.6 1399.65,487.767 1401.61,474.525 1403.57,461.849 1405.53,449.713 1407.48,438.092 1409.44,426.963 1411.4,416.302 1413.35,406.086 1415.31,396.296 1417.27,386.911 1419.23,377.912 1421.18,369.279 1423.14,360.997 1425.1,353.048 1427.06,345.416 1429.01,338.086 1430.97,331.044 1432.93,324.276 1434.88,317.77 1436.84,311.513 1438.8,305.494 1440.76,299.702 1442.71,294.126 1444.67,288.756 1446.63,283.583 1448.58,278.598 1450.54,273.792 1452.5,269.158 1454.46,264.688 1456.41,260.375 1458.37,256.212 1460.33,252.192 1462.28,248.309 1464.24,244.557 1466.2,240.931 1468.16,237.426 1470.11,234.036 1472.07,230.756 1474.03,227.583 1475.99,224.511 1477.94,221.537 1479.9,218.656 1481.86,215.865 1483.81,213.16 1485.77,210.539 1487.73,207.997 1489.69,205.531 1491.64,203.139 1493.6,200.818 1495.56,198.565 1497.51,196.378 1499.47,194.254 1501.43,192.191 1503.39,190.186 1505.34,188.237 1507.3,186.343 1509.26,184.502 1511.22,182.711 1513.17,180.968 1515.13,179.273 1517.09,177.624 1519.04,176.018 1521,174.454 1522.96,172.932 1524.92,171.449 1526.87,170.004 1528.83,168.596 1530.79,167.224 1532.74,165.886 1534.7,164.582 1536.66,163.31 1538.62,162.07 1540.57,160.86 1542.53,159.679 1544.49,158.527 1546.44,157.402 1548.4,156.304 1550.36,155.231 1552.32,154.184 1554.27,153.162 1556.23,152.162 1558.19,151.186 1560.15,150.232 1562.1,149.3 1564.06,148.388 1566.02,147.497 1567.97,146.625 1569.93,145.773 1571.89,144.939 1573.85,144.124 1575.8,143.326 1577.76,142.545 1579.72,141.781 1581.67,141.033 1583.63,140.301 1585.59,139.584 1587.55,138.881 1589.5,138.194 1591.46,137.52 1593.42,136.861 1595.38,136.214 1597.33,135.581 1599.29,134.96 1601.25,134.352 1603.2,133.756 1605.16,133.171 1607.12,132.598 1609.08,132.036 1611.03,131.485 1612.99,130.945 1614.95,130.415 1616.9,129.895 1618.86,129.385 1620.82,128.884 1622.78,128.393 1624.73,127.911 1626.69,127.438 1628.65,126.974 1630.6,126.518 1632.56,126.071 1634.52,125.631 1636.48,125.2 1638.43,124.776 1640.39,124.36 1642.35,123.952 1644.31,123.55 1646.26,123.156 1648.22,122.768 1650.18,122.388 1652.13,122.014 1654.09,121.646 1656.05,121.285 1658.01,120.93 1659.96,120.581 1661.92,120.238 1663.88,119.901 1665.83,119.569 1667.79,119.243 1669.75,118.923 1671.71,118.608 1673.66,118.298 1675.62,117.993 1677.58,117.693 1679.54,117.398 1681.49,117.108 1683.45,116.823 1685.41,116.542 1687.36,116.266 1689.32,115.994 1691.28,115.726 1693.24,115.463 1695.19,115.204 1697.15,114.949 1699.11,114.699 1701.06,114.452 1703.02,114.209 1704.98,113.969 1706.94,113.734 1708.89,113.502 1710.85,113.274 1712.81,113.049 1714.76,112.828 1716.72,112.61 1718.68,112.395 1720.64,112.184 1722.59,111.976 1724.55,111.771 1726.51,111.569 1728.47,111.37 1730.42,111.175 1732.38,110.982 1734.34,110.792 1736.29,110.605 1738.25,110.42 1740.21,110.239 1742.17,110.06 1744.12,109.884 1746.08,109.71 1748.04,109.539 1749.99,109.37 1751.95,109.204 1753.91,109.04 1755.87,108.879 1757.82,108.72 1759.78,108.564 1761.74,108.409 1763.69,108.257 1765.65,108.107 1767.61,107.96 1769.57,107.814 1771.52,107.671 1773.48,107.529 1775.44,107.39 1777.4,107.253 1779.35,107.117 1781.31,106.984 1783.27,106.852 1785.22,106.723 1787.18,106.595 1789.14,106.469 1791.1,106.345 1793.05,106.223 1795.01,106.102 1796.97,105.983 1798.92,105.866 1800.88,105.75 1802.84,105.637 1804.8,105.524 1806.75,105.414 1808.71,105.305 1810.67,105.197 1812.63,105.091 1814.58,104.987 1816.54,104.884 1818.5,104.783 1820.45,104.683 1822.41,104.584 1824.37,104.487 1826.33,104.391 1828.28,104.297 1830.24,104.204 1832.2,104.112 1834.15,104.022 1836.11,103.933 1838.07,103.845 1840.03,103.759 1841.98,103.674 1843.94,103.59 1845.9,103.507 1847.85,103.426 1849.81,103.345 1851.77,103.266 1853.73,103.188 1855.68,103.111 1857.64,103.036 1859.6,102.961 1861.56,102.888 1863.51,102.815 1865.47,102.744 1867.43,102.674 1869.38,102.605 1871.34,102.537 1873.3,102.47 1875.26,102.404 1877.21,102.339 1879.17,102.275 1881.13,102.212 1883.08,102.15 1885.04,102.089 1887,102.029 1888.96,101.97 1890.91,101.912 1892.87,101.855 1894.83,101.798 1896.79,101.743 1898.74,101.688 1900.7,101.635 1902.66,101.582 1904.61,101.53 1906.57,101.479 1908.53,101.429 1910.49,101.38 1912.44,101.331 1914.4,101.284 1916.36,101.237 1918.31,101.191 1920.27,101.146 1922.23,101.102 1924.19,101.058 1926.14,101.015 1928.1,100.973 1930.06,100.932 1932.01,100.892 1933.97,100.852 1935.93,100.813 1937.89,100.775 1939.84,100.738 1941.8,100.701 1943.76,100.665 1945.72,100.63 1947.67,100.595 1949.63,100.561 1951.59,100.528 1953.54,100.496 1955.5,100.464 1957.46,100.433 1959.42,100.403 1961.37,100.373 1963.33,100.344 1965.29,100.316 1967.24,100.288 1969.2,100.261 1971.16,100.235 1973.12,100.209 1975.07,100.184 1977.03,100.16 1978.99,100.136 1980.95,100.113 1982.9,100.09 1984.86,100.068 1986.82,100.047 1988.77,100.027 1990.73,100.007 1992.69,99.9871 1994.65,99.9683 1996.6,99.9501 1998.56,99.9325 2000.52,99.9155 2002.47,99.8991 2004.43,99.8833 2006.39,99.8681 2008.35,99.8535 2010.3,99.8394 2012.26,99.826 2014.22,99.8131 2016.17,99.8007 2018.13,99.789 2020.09,99.7778 2022.05,99.7672 2024,99.7571 2025.96,99.7476 2027.92,99.7387 2029.88,99.7303 2031.83,99.7224 2033.79,99.7152 2035.75,99.7084 2037.7,99.7023 2039.66,99.6966 2041.62,99.6915 2043.58,99.687 2045.53,99.683 2047.49,99.6795 2049.45,99.6765 2051.4,99.6741 2053.36,99.6723 2055.32,99.6709 2057.28,99.6701 2059.23,99.6699 2061.19,99.6701 2063.15,99.6709 2065.11,99.6722 2067.06,99.674 2069.02,99.6763 2070.98,99.6792 2072.93,99.6826 2074.89,99.6865 2076.85,99.6909 2078.81,99.6959 2080.76,99.7014 2082.72,99.7073 2084.68,99.7138 2086.63,99.7208 2088.59,99.7284 2090.55,99.7364 2092.51,99.745 2094.46,99.754 2096.42,99.7636 2098.38,99.7737 2100.33,99.7843 2102.29,99.7954 2104.25,99.807 2106.21,99.8192 2108.16,99.8318 2110.12,99.845 2112.08,99.8586 2114.04,99.8728 2115.99,99.8875 2117.95,99.9027 2119.91,99.9184 2121.86,99.9347 2123.82,99.9514 2125.78,99.9686 2127.74,99.9864 2129.69,100.005 2131.65,100.023 2133.61,100.043 2135.56,100.063 2137.52,100.083 2139.48,100.104 2141.44,100.125 2143.39,100.147 2145.35,100.169 2147.31,100.192 2149.26,100.216 2151.22,100.24 2153.18,100.264 2155.14,100.289 2157.09,100.315 2159.05,100.341 2161.01,100.367 2162.97,100.394 2164.92,100.422 2166.88,100.45 2168.84,100.479 2170.79,100.508 2172.75,100.538 2174.71,100.568 2176.67,100.599 2178.62,100.63 2180.58,100.662 2182.54,100.695 2184.49,100.728 2186.45,100.761 2188.41,100.795 2190.37,100.83 2192.32,100.865 2194.28,100.901 2196.24,100.937 2198.2,100.974 2200.15,101.011 2202.11,101.049 2204.07,101.088 2206.02,101.127 2207.98,101.166 2209.94,101.207 2211.9,101.247 2213.85,101.289 2215.81,101.331 2217.77,101.373 2219.72,101.416 2221.68,101.46 2223.64,101.504 2225.6,101.549 2227.55,101.594 2229.51,101.64 2231.47,101.687 2233.42,101.734 2235.38,101.782 2237.34,101.831 2239.3,101.88 2241.25,101.929 2243.21,101.98 2245.17,102.031 2247.13,102.082 2249.08,102.134 2251.04,102.187 2253,102.24 2254.95,102.294 2256.91,102.349 2258.87,102.405 2260.83,102.461 2262.78,102.517 2264.74,102.574 2266.7,102.632 2268.65,102.691 2270.61,102.75 2272.57,102.81 2274.53,102.871 2276.48,102.932 2278.44,102.994 2280.4,103.057 2282.36,103.12 2284.31,103.184 2286.27,103.249 2288.23,103.315 2290.18,103.381 2292.14,103.448 2294.1,103.515 "/>
<polyline clip-path="url(#clip992)" style="stroke:#ff0000; stroke-linecap:round; stroke-linejoin:round; stroke-width:4; stroke-opacity:1; fill:none" points="1267.59,2799.12 1267.59,-1328.69 "/>
<polyline clip-path="url(#clip992)" style="stroke:#ff0000; stroke-linecap:round; stroke-linejoin:round; stroke-width:4; stroke-opacity:1; fill:none" points="1365.35,2799.12 1365.35,-1328.69 "/>
</svg>
