<?xml version="1.0" encoding="utf-8"?>
<svg xmlns="http://www.w3.org/2000/svg" xmlns:xlink="http://www.w3.org/1999/xlink" width="600" height="400" viewBox="0 0 2400 1600">
<defs>
  <clipPath id="clip160">
    <rect x="0" y="0" width="2400" height="1600"/>
  </clipPath>
</defs>
<path clip-path="url(#clip160)" d="M0 1600 L2400 1600 L2400 0 L0 0  Z" fill="#ffffff" fill-rule="evenodd" fill-opacity="1"/>
<defs>
  <clipPath id="clip161">
    <rect x="480" y="0" width="1681" height="1600"/>
  </clipPath>
</defs>
<path clip-path="url(#clip160)" d="M235.283 1423.18 L2352.76 1423.18 L2352.76 47.2441 L235.283 47.2441  Z" fill="#ffffff" fill-rule="evenodd" fill-opacity="1"/>
<defs>
  <clipPath id="clip162">
    <rect x="235" y="47" width="2118" height="1377"/>
  </clipPath>
</defs>
<polyline clip-path="url(#clip162)" style="stroke:#000000; stroke-linecap:round; stroke-linejoin:round; stroke-width:2; stroke-opacity:0.1; fill:none" points="295.211,1423.18 295.211,47.2441 "/>
<polyline clip-path="url(#clip162)" style="stroke:#000000; stroke-linecap:round; stroke-linejoin:round; stroke-width:2; stroke-opacity:0.1; fill:none" points="794.615,1423.18 794.615,47.2441 "/>
<polyline clip-path="url(#clip162)" style="stroke:#000000; stroke-linecap:round; stroke-linejoin:round; stroke-width:2; stroke-opacity:0.1; fill:none" points="1294.02,1423.18 1294.02,47.2441 "/>
<polyline clip-path="url(#clip162)" style="stroke:#000000; stroke-linecap:round; stroke-linejoin:round; stroke-width:2; stroke-opacity:0.1; fill:none" points="1793.42,1423.18 1793.42,47.2441 "/>
<polyline clip-path="url(#clip162)" style="stroke:#000000; stroke-linecap:round; stroke-linejoin:round; stroke-width:2; stroke-opacity:0.1; fill:none" points="2292.83,1423.18 2292.83,47.2441 "/>
<polyline clip-path="url(#clip162)" style="stroke:#000000; stroke-linecap:round; stroke-linejoin:round; stroke-width:2; stroke-opacity:0.1; fill:none" points="235.283,1394.47 2352.76,1394.47 "/>
<polyline clip-path="url(#clip162)" style="stroke:#000000; stroke-linecap:round; stroke-linejoin:round; stroke-width:2; stroke-opacity:0.1; fill:none" points="235.283,1165.87 2352.76,1165.87 "/>
<polyline clip-path="url(#clip162)" style="stroke:#000000; stroke-linecap:round; stroke-linejoin:round; stroke-width:2; stroke-opacity:0.1; fill:none" points="235.283,937.272 2352.76,937.272 "/>
<polyline clip-path="url(#clip162)" style="stroke:#000000; stroke-linecap:round; stroke-linejoin:round; stroke-width:2; stroke-opacity:0.1; fill:none" points="235.283,708.676 2352.76,708.676 "/>
<polyline clip-path="url(#clip162)" style="stroke:#000000; stroke-linecap:round; stroke-linejoin:round; stroke-width:2; stroke-opacity:0.1; fill:none" points="235.283,480.08 2352.76,480.08 "/>
<polyline clip-path="url(#clip162)" style="stroke:#000000; stroke-linecap:round; stroke-linejoin:round; stroke-width:2; stroke-opacity:0.1; fill:none" points="235.283,251.483 2352.76,251.483 "/>
<polyline clip-path="url(#clip160)" style="stroke:#000000; stroke-linecap:round; stroke-linejoin:round; stroke-width:4; stroke-opacity:1; fill:none" points="235.283,1423.18 2352.76,1423.18 "/>
<polyline clip-path="url(#clip160)" style="stroke:#000000; stroke-linecap:round; stroke-linejoin:round; stroke-width:4; stroke-opacity:1; fill:none" points="295.211,1423.18 295.211,1404.28 "/>
<polyline clip-path="url(#clip160)" style="stroke:#000000; stroke-linecap:round; stroke-linejoin:round; stroke-width:4; stroke-opacity:1; fill:none" points="794.615,1423.18 794.615,1404.28 "/>
<polyline clip-path="url(#clip160)" style="stroke:#000000; stroke-linecap:round; stroke-linejoin:round; stroke-width:4; stroke-opacity:1; fill:none" points="1294.02,1423.18 1294.02,1404.28 "/>
<polyline clip-path="url(#clip160)" style="stroke:#000000; stroke-linecap:round; stroke-linejoin:round; stroke-width:4; stroke-opacity:1; fill:none" points="1793.42,1423.18 1793.42,1404.28 "/>
<polyline clip-path="url(#clip160)" style="stroke:#000000; stroke-linecap:round; stroke-linejoin:round; stroke-width:4; stroke-opacity:1; fill:none" points="2292.83,1423.18 2292.83,1404.28 "/>
<path clip-path="url(#clip160)" d="M236.288 1481.64 L252.607 1481.64 L252.607 1485.58 L230.663 1485.58 L230.663 1481.64 Q233.325 1478.89 237.908 1474.26 Q242.515 1469.61 243.695 1468.27 Q245.941 1465.74 246.82 1464.01 Q247.723 1462.25 247.723 1460.56 Q247.723 1457.8 245.779 1456.07 Q243.857 1454.33 240.756 1454.33 Q238.557 1454.33 236.103 1455.09 Q233.672 1455.86 230.895 1457.41 L230.895 1452.69 Q233.719 1451.55 236.172 1450.97 Q238.626 1450.39 240.663 1450.39 Q246.033 1450.39 249.228 1453.08 Q252.422 1455.77 252.422 1460.26 Q252.422 1462.39 251.612 1464.31 Q250.825 1466.2 248.719 1468.8 Q248.14 1469.47 245.038 1472.69 Q241.936 1475.88 236.288 1481.64 Z" fill="#000000" fill-rule="nonzero" fill-opacity="1" /><path clip-path="url(#clip160)" d="M272.422 1454.1 Q268.811 1454.1 266.982 1457.66 Q265.177 1461.2 265.177 1468.33 Q265.177 1475.44 266.982 1479.01 Q268.811 1482.55 272.422 1482.55 Q276.056 1482.55 277.862 1479.01 Q279.691 1475.44 279.691 1468.33 Q279.691 1461.2 277.862 1457.66 Q276.056 1454.1 272.422 1454.1 M272.422 1450.39 Q278.232 1450.39 281.288 1455 Q284.366 1459.58 284.366 1468.33 Q284.366 1477.06 281.288 1481.67 Q278.232 1486.25 272.422 1486.25 Q266.612 1486.25 263.533 1481.67 Q260.478 1477.06 260.478 1468.33 Q260.478 1459.58 263.533 1455 Q266.612 1450.39 272.422 1450.39 Z" fill="#000000" fill-rule="nonzero" fill-opacity="1" /><path clip-path="url(#clip160)" d="M292.584 1479.7 L297.468 1479.7 L297.468 1485.58 L292.584 1485.58 L292.584 1479.7 Z" fill="#000000" fill-rule="nonzero" fill-opacity="1" /><path clip-path="url(#clip160)" d="M307.792 1484.86 L307.792 1480.6 Q309.552 1481.44 311.357 1481.88 Q313.163 1482.32 314.899 1482.32 Q319.528 1482.32 321.959 1479.21 Q324.413 1476.09 324.76 1469.75 Q323.417 1471.74 321.357 1472.8 Q319.297 1473.87 316.797 1473.87 Q311.612 1473.87 308.579 1470.74 Q305.57 1467.59 305.57 1462.15 Q305.57 1456.83 308.718 1453.61 Q311.866 1450.39 317.098 1450.39 Q323.093 1450.39 326.241 1455 Q329.413 1459.58 329.413 1468.33 Q329.413 1476.51 325.524 1481.39 Q321.658 1486.25 315.107 1486.25 Q313.348 1486.25 311.542 1485.9 Q309.737 1485.56 307.792 1484.86 M317.098 1470.21 Q320.246 1470.21 322.075 1468.06 Q323.926 1465.9 323.926 1462.15 Q323.926 1458.43 322.075 1456.27 Q320.246 1454.1 317.098 1454.1 Q313.95 1454.1 312.098 1456.27 Q310.269 1458.43 310.269 1462.15 Q310.269 1465.9 312.098 1468.06 Q313.95 1470.21 317.098 1470.21 Z" fill="#000000" fill-rule="nonzero" fill-opacity="1" /><path clip-path="url(#clip160)" d="M347.815 1454.1 Q344.204 1454.1 342.375 1457.66 Q340.57 1461.2 340.57 1468.33 Q340.57 1475.44 342.375 1479.01 Q344.204 1482.55 347.815 1482.55 Q351.449 1482.55 353.255 1479.01 Q355.084 1475.44 355.084 1468.33 Q355.084 1461.2 353.255 1457.66 Q351.449 1454.1 347.815 1454.1 M347.815 1450.39 Q353.625 1450.39 356.681 1455 Q359.76 1459.58 359.76 1468.33 Q359.76 1477.06 356.681 1481.67 Q353.625 1486.25 347.815 1486.25 Q342.005 1486.25 338.926 1481.67 Q335.871 1477.06 335.871 1468.33 Q335.871 1459.58 338.926 1455 Q342.005 1450.39 347.815 1450.39 Z" fill="#000000" fill-rule="nonzero" fill-opacity="1" /><path clip-path="url(#clip160)" d="M736.19 1481.64 L752.509 1481.64 L752.509 1485.58 L730.565 1485.58 L730.565 1481.64 Q733.227 1478.89 737.81 1474.26 Q742.417 1469.61 743.597 1468.27 Q745.842 1465.74 746.722 1464.01 Q747.625 1462.25 747.625 1460.56 Q747.625 1457.8 745.68 1456.07 Q743.759 1454.33 740.657 1454.33 Q738.458 1454.33 736.005 1455.09 Q733.574 1455.86 730.796 1457.41 L730.796 1452.69 Q733.62 1451.55 736.074 1450.97 Q738.528 1450.39 740.565 1450.39 Q745.935 1450.39 749.129 1453.08 Q752.324 1455.77 752.324 1460.26 Q752.324 1462.39 751.514 1464.31 Q750.727 1466.2 748.62 1468.8 Q748.042 1469.47 744.94 1472.69 Q741.838 1475.88 736.19 1481.64 Z" fill="#000000" fill-rule="nonzero" fill-opacity="1" /><path clip-path="url(#clip160)" d="M772.324 1454.1 Q768.713 1454.1 766.884 1457.66 Q765.078 1461.2 765.078 1468.33 Q765.078 1475.44 766.884 1479.01 Q768.713 1482.55 772.324 1482.55 Q775.958 1482.55 777.764 1479.01 Q779.592 1475.44 779.592 1468.33 Q779.592 1461.2 777.764 1457.66 Q775.958 1454.1 772.324 1454.1 M772.324 1450.39 Q778.134 1450.39 781.19 1455 Q784.268 1459.58 784.268 1468.33 Q784.268 1477.06 781.19 1481.67 Q778.134 1486.25 772.324 1486.25 Q766.514 1486.25 763.435 1481.67 Q760.379 1477.06 760.379 1468.33 Q760.379 1459.58 763.435 1455 Q766.514 1450.39 772.324 1450.39 Z" fill="#000000" fill-rule="nonzero" fill-opacity="1" /><path clip-path="url(#clip160)" d="M792.486 1479.7 L797.37 1479.7 L797.37 1485.58 L792.486 1485.58 L792.486 1479.7 Z" fill="#000000" fill-rule="nonzero" fill-opacity="1" /><path clip-path="url(#clip160)" d="M807.694 1484.86 L807.694 1480.6 Q809.453 1481.44 811.259 1481.88 Q813.064 1482.32 814.8 1482.32 Q819.43 1482.32 821.861 1479.21 Q824.314 1476.09 824.661 1469.75 Q823.319 1471.74 821.259 1472.8 Q819.199 1473.87 816.699 1473.87 Q811.513 1473.87 808.481 1470.74 Q805.472 1467.59 805.472 1462.15 Q805.472 1456.83 808.62 1453.61 Q811.768 1450.39 816.999 1450.39 Q822.995 1450.39 826.143 1455 Q829.314 1459.58 829.314 1468.33 Q829.314 1476.51 825.425 1481.39 Q821.56 1486.25 815.009 1486.25 Q813.25 1486.25 811.444 1485.9 Q809.638 1485.56 807.694 1484.86 M816.999 1470.21 Q820.148 1470.21 821.976 1468.06 Q823.828 1465.9 823.828 1462.15 Q823.828 1458.43 821.976 1456.27 Q820.148 1454.1 816.999 1454.1 Q813.851 1454.1 812 1456.27 Q810.171 1458.43 810.171 1462.15 Q810.171 1465.9 812 1468.06 Q813.851 1470.21 816.999 1470.21 Z" fill="#000000" fill-rule="nonzero" fill-opacity="1" /><path clip-path="url(#clip160)" d="M837.763 1451.02 L856.12 1451.02 L856.12 1454.96 L842.046 1454.96 L842.046 1463.43 Q843.064 1463.08 844.083 1462.92 Q845.101 1462.73 846.12 1462.73 Q851.907 1462.73 855.286 1465.9 Q858.666 1469.08 858.666 1474.49 Q858.666 1480.07 855.194 1483.17 Q851.722 1486.25 845.402 1486.25 Q843.226 1486.25 840.958 1485.88 Q838.712 1485.51 836.305 1484.77 L836.305 1480.07 Q838.388 1481.2 840.61 1481.76 Q842.833 1482.32 845.31 1482.32 Q849.314 1482.32 851.652 1480.21 Q853.99 1478.1 853.99 1474.49 Q853.99 1470.88 851.652 1468.77 Q849.314 1466.67 845.31 1466.67 Q843.435 1466.67 841.56 1467.08 Q839.708 1467.5 837.763 1468.38 L837.763 1451.02 Z" fill="#000000" fill-rule="nonzero" fill-opacity="1" /><path clip-path="url(#clip160)" d="M1235.1 1481.64 L1251.42 1481.64 L1251.42 1485.58 L1229.47 1485.58 L1229.47 1481.64 Q1232.13 1478.89 1236.72 1474.26 Q1241.32 1469.61 1242.5 1468.27 Q1244.75 1465.74 1245.63 1464.01 Q1246.53 1462.25 1246.53 1460.56 Q1246.53 1457.8 1244.59 1456.07 Q1242.67 1454.33 1239.56 1454.33 Q1237.36 1454.33 1234.91 1455.09 Q1232.48 1455.86 1229.7 1457.41 L1229.7 1452.69 Q1232.53 1451.55 1234.98 1450.97 Q1237.43 1450.39 1239.47 1450.39 Q1244.84 1450.39 1248.04 1453.08 Q1251.23 1455.77 1251.23 1460.26 Q1251.23 1462.39 1250.42 1464.31 Q1249.63 1466.2 1247.53 1468.8 Q1246.95 1469.47 1243.85 1472.69 Q1240.74 1475.88 1235.1 1481.64 Z" fill="#000000" fill-rule="nonzero" fill-opacity="1" /><path clip-path="url(#clip160)" d="M1262.04 1481.64 L1269.68 1481.64 L1269.68 1455.28 L1261.37 1456.95 L1261.37 1452.69 L1269.63 1451.02 L1274.31 1451.02 L1274.31 1481.64 L1281.95 1481.64 L1281.95 1485.58 L1262.04 1485.58 L1262.04 1481.64 Z" fill="#000000" fill-rule="nonzero" fill-opacity="1" /><path clip-path="url(#clip160)" d="M1291.39 1479.7 L1296.28 1479.7 L1296.28 1485.58 L1291.39 1485.58 L1291.39 1479.7 Z" fill="#000000" fill-rule="nonzero" fill-opacity="1" /><path clip-path="url(#clip160)" d="M1316.46 1454.1 Q1312.85 1454.1 1311.02 1457.66 Q1309.22 1461.2 1309.22 1468.33 Q1309.22 1475.44 1311.02 1479.01 Q1312.85 1482.55 1316.46 1482.55 Q1320.1 1482.55 1321.9 1479.01 Q1323.73 1475.44 1323.73 1468.33 Q1323.73 1461.2 1321.9 1457.66 Q1320.1 1454.1 1316.46 1454.1 M1316.46 1450.39 Q1322.27 1450.39 1325.33 1455 Q1328.41 1459.58 1328.41 1468.33 Q1328.41 1477.06 1325.33 1481.67 Q1322.27 1486.25 1316.46 1486.25 Q1310.65 1486.25 1307.57 1481.67 Q1304.52 1477.06 1304.52 1468.33 Q1304.52 1459.58 1307.57 1455 Q1310.65 1450.39 1316.46 1450.39 Z" fill="#000000" fill-rule="nonzero" fill-opacity="1" /><path clip-path="url(#clip160)" d="M1346.62 1454.1 Q1343.01 1454.1 1341.18 1457.66 Q1339.38 1461.2 1339.38 1468.33 Q1339.38 1475.44 1341.18 1479.01 Q1343.01 1482.55 1346.62 1482.55 Q1350.26 1482.55 1352.06 1479.01 Q1353.89 1475.44 1353.89 1468.33 Q1353.89 1461.2 1352.06 1457.66 Q1350.26 1454.1 1346.62 1454.1 M1346.62 1450.39 Q1352.43 1450.39 1355.49 1455 Q1358.57 1459.58 1358.57 1468.33 Q1358.57 1477.06 1355.49 1481.67 Q1352.43 1486.25 1346.62 1486.25 Q1340.81 1486.25 1337.73 1481.67 Q1334.68 1477.06 1334.68 1468.33 Q1334.68 1459.58 1337.73 1455 Q1340.81 1450.39 1346.62 1450.39 Z" fill="#000000" fill-rule="nonzero" fill-opacity="1" /><path clip-path="url(#clip160)" d="M1735 1481.64 L1751.32 1481.64 L1751.32 1485.58 L1729.37 1485.58 L1729.37 1481.64 Q1732.03 1478.89 1736.62 1474.26 Q1741.22 1469.61 1742.41 1468.27 Q1744.65 1465.74 1745.53 1464.01 Q1746.43 1462.25 1746.43 1460.56 Q1746.43 1457.8 1744.49 1456.07 Q1742.57 1454.33 1739.47 1454.33 Q1737.27 1454.33 1734.81 1455.09 Q1732.38 1455.86 1729.6 1457.41 L1729.6 1452.69 Q1732.43 1451.55 1734.88 1450.97 Q1737.34 1450.39 1739.37 1450.39 Q1744.74 1450.39 1747.94 1453.08 Q1751.13 1455.77 1751.13 1460.26 Q1751.13 1462.39 1750.32 1464.31 Q1749.53 1466.2 1747.43 1468.8 Q1746.85 1469.47 1743.75 1472.69 Q1740.65 1475.88 1735 1481.64 Z" fill="#000000" fill-rule="nonzero" fill-opacity="1" /><path clip-path="url(#clip160)" d="M1761.94 1481.64 L1769.58 1481.64 L1769.58 1455.28 L1761.27 1456.95 L1761.27 1452.69 L1769.53 1451.02 L1774.21 1451.02 L1774.21 1481.64 L1781.85 1481.64 L1781.85 1485.58 L1761.94 1485.58 L1761.94 1481.64 Z" fill="#000000" fill-rule="nonzero" fill-opacity="1" /><path clip-path="url(#clip160)" d="M1791.29 1479.7 L1796.18 1479.7 L1796.18 1485.58 L1791.29 1485.58 L1791.29 1479.7 Z" fill="#000000" fill-rule="nonzero" fill-opacity="1" /><path clip-path="url(#clip160)" d="M1816.36 1454.1 Q1812.75 1454.1 1810.92 1457.66 Q1809.12 1461.2 1809.12 1468.33 Q1809.12 1475.44 1810.92 1479.01 Q1812.75 1482.55 1816.36 1482.55 Q1820 1482.55 1821.8 1479.01 Q1823.63 1475.44 1823.63 1468.33 Q1823.63 1461.2 1821.8 1457.66 Q1820 1454.1 1816.36 1454.1 M1816.36 1450.39 Q1822.17 1450.39 1825.23 1455 Q1828.31 1459.58 1828.31 1468.33 Q1828.31 1477.06 1825.23 1481.67 Q1822.17 1486.25 1816.36 1486.25 Q1810.55 1486.25 1807.47 1481.67 Q1804.42 1477.06 1804.42 1468.33 Q1804.42 1459.58 1807.47 1455 Q1810.55 1450.39 1816.36 1450.39 Z" fill="#000000" fill-rule="nonzero" fill-opacity="1" /><path clip-path="url(#clip160)" d="M1836.57 1451.02 L1854.93 1451.02 L1854.93 1454.96 L1840.85 1454.96 L1840.85 1463.43 Q1841.87 1463.08 1842.89 1462.92 Q1843.91 1462.73 1844.93 1462.73 Q1850.71 1462.73 1854.09 1465.9 Q1857.47 1469.08 1857.47 1474.49 Q1857.47 1480.07 1854 1483.17 Q1850.53 1486.25 1844.21 1486.25 Q1842.03 1486.25 1839.77 1485.88 Q1837.52 1485.51 1835.11 1484.77 L1835.11 1480.07 Q1837.2 1481.2 1839.42 1481.76 Q1841.64 1482.32 1844.12 1482.32 Q1848.12 1482.32 1850.46 1480.21 Q1852.8 1478.1 1852.8 1474.49 Q1852.8 1470.88 1850.46 1468.77 Q1848.12 1466.67 1844.12 1466.67 Q1842.24 1466.67 1840.37 1467.08 Q1838.52 1467.5 1836.57 1468.38 L1836.57 1451.02 Z" fill="#000000" fill-rule="nonzero" fill-opacity="1" /><path clip-path="url(#clip160)" d="M2233.9 1481.64 L2250.22 1481.64 L2250.22 1485.58 L2228.28 1485.58 L2228.28 1481.64 Q2230.94 1478.89 2235.52 1474.26 Q2240.13 1469.61 2241.31 1468.27 Q2243.56 1465.74 2244.44 1464.01 Q2245.34 1462.25 2245.34 1460.56 Q2245.34 1457.8 2243.39 1456.07 Q2241.47 1454.33 2238.37 1454.33 Q2236.17 1454.33 2233.72 1455.09 Q2231.29 1455.86 2228.51 1457.41 L2228.51 1452.69 Q2231.33 1451.55 2233.79 1450.97 Q2236.24 1450.39 2238.28 1450.39 Q2243.65 1450.39 2246.84 1453.08 Q2250.04 1455.77 2250.04 1460.26 Q2250.04 1462.39 2249.23 1464.31 Q2248.44 1466.2 2246.33 1468.8 Q2245.76 1469.47 2242.65 1472.69 Q2239.55 1475.88 2233.9 1481.64 Z" fill="#000000" fill-rule="nonzero" fill-opacity="1" /><path clip-path="url(#clip160)" d="M2260.85 1481.64 L2268.49 1481.64 L2268.49 1455.28 L2260.18 1456.95 L2260.18 1452.69 L2268.44 1451.02 L2273.12 1451.02 L2273.12 1481.64 L2280.76 1481.64 L2280.76 1485.58 L2260.85 1485.58 L2260.85 1481.64 Z" fill="#000000" fill-rule="nonzero" fill-opacity="1" /><path clip-path="url(#clip160)" d="M2290.2 1479.7 L2295.08 1479.7 L2295.08 1485.58 L2290.2 1485.58 L2290.2 1479.7 Z" fill="#000000" fill-rule="nonzero" fill-opacity="1" /><path clip-path="url(#clip160)" d="M2306.08 1481.64 L2313.72 1481.64 L2313.72 1455.28 L2305.41 1456.95 L2305.41 1452.69 L2313.67 1451.02 L2318.35 1451.02 L2318.35 1481.64 L2325.99 1481.64 L2325.99 1485.58 L2306.08 1485.58 L2306.08 1481.64 Z" fill="#000000" fill-rule="nonzero" fill-opacity="1" /><path clip-path="url(#clip160)" d="M2345.43 1454.1 Q2341.82 1454.1 2339.99 1457.66 Q2338.19 1461.2 2338.19 1468.33 Q2338.19 1475.44 2339.99 1479.01 Q2341.82 1482.55 2345.43 1482.55 Q2349.07 1482.55 2350.87 1479.01 Q2352.7 1475.44 2352.7 1468.33 Q2352.7 1461.2 2350.87 1457.66 Q2349.07 1454.1 2345.43 1454.1 M2345.43 1450.39 Q2351.24 1450.39 2354.3 1455 Q2357.38 1459.58 2357.38 1468.33 Q2357.38 1477.06 2354.3 1481.67 Q2351.24 1486.25 2345.43 1486.25 Q2339.62 1486.25 2336.54 1481.67 Q2333.49 1477.06 2333.49 1468.33 Q2333.49 1459.58 2336.54 1455 Q2339.62 1450.39 2345.43 1450.39 Z" fill="#000000" fill-rule="nonzero" fill-opacity="1" /><path clip-path="url(#clip160)" d="M1002.18 1520.52 L1029.49 1520.52 L1029.49 1525.93 L1008.61 1525.93 L1008.61 1539.94 L1027.46 1539.94 L1027.46 1545.35 L1008.61 1545.35 L1008.61 1568.04 L1002.18 1568.04 L1002.18 1520.52 Z" fill="#000000" fill-rule="nonzero" fill-opacity="1" /><path clip-path="url(#clip160)" d="M1055.34 1537.87 Q1054.35 1537.3 1053.17 1537.04 Q1052.03 1536.76 1050.63 1536.76 Q1045.66 1536.76 1042.99 1540 Q1040.35 1543.22 1040.35 1549.27 L1040.35 1568.04 L1034.46 1568.04 L1034.46 1532.4 L1040.35 1532.4 L1040.35 1537.93 Q1042.19 1534.69 1045.15 1533.13 Q1048.11 1531.54 1052.35 1531.54 Q1052.95 1531.54 1053.68 1531.63 Q1054.41 1531.7 1055.31 1531.85 L1055.34 1537.87 Z" fill="#000000" fill-rule="nonzero" fill-opacity="1" /><path clip-path="url(#clip160)" d="M1090.54 1548.76 L1090.54 1551.62 L1063.61 1551.62 Q1063.99 1557.67 1067.24 1560.85 Q1070.52 1564 1076.34 1564 Q1079.72 1564 1082.87 1563.17 Q1086.05 1562.35 1089.17 1560.69 L1089.17 1566.23 Q1086.02 1567.57 1082.71 1568.27 Q1079.4 1568.97 1075.99 1568.97 Q1067.46 1568.97 1062.47 1564 Q1057.5 1559.04 1057.5 1550.57 Q1057.5 1541.82 1062.21 1536.69 Q1066.95 1531.54 1074.98 1531.54 Q1082.17 1531.54 1086.34 1536.18 Q1090.54 1540.8 1090.54 1548.76 M1084.68 1547.04 Q1084.62 1542.23 1081.98 1539.37 Q1079.37 1536.5 1075.04 1536.5 Q1070.14 1536.5 1067.18 1539.27 Q1064.25 1542.04 1063.8 1547.07 L1084.68 1547.04 Z" fill="#000000" fill-rule="nonzero" fill-opacity="1" /><path clip-path="url(#clip160)" d="M1103.65 1550.25 Q1103.65 1556.71 1106.29 1560.4 Q1108.97 1564.07 1113.62 1564.07 Q1118.26 1564.07 1120.94 1560.4 Q1123.61 1556.71 1123.61 1550.25 Q1123.61 1543.79 1120.94 1540.13 Q1118.26 1536.44 1113.62 1536.44 Q1108.97 1536.44 1106.29 1540.13 Q1103.65 1543.79 1103.65 1550.25 M1123.61 1562.7 Q1121.76 1565.88 1118.93 1567.44 Q1116.13 1568.97 1112.18 1568.97 Q1105.72 1568.97 1101.65 1563.81 Q1097.61 1558.65 1097.61 1550.25 Q1097.61 1541.85 1101.65 1536.69 Q1105.72 1531.54 1112.18 1531.54 Q1116.13 1531.54 1118.93 1533.1 Q1121.76 1534.62 1123.61 1537.81 L1123.61 1532.4 L1129.47 1532.4 L1129.47 1581.6 L1123.61 1581.6 L1123.61 1562.7 Z" fill="#000000" fill-rule="nonzero" fill-opacity="1" /><path clip-path="url(#clip160)" d="M1140.92 1553.98 L1140.92 1532.4 L1146.78 1532.4 L1146.78 1553.75 Q1146.78 1558.81 1148.75 1561.36 Q1150.73 1563.87 1154.67 1563.87 Q1159.42 1563.87 1162.15 1560.85 Q1164.92 1557.83 1164.92 1552.61 L1164.92 1532.4 L1170.78 1532.4 L1170.78 1568.04 L1164.92 1568.04 L1164.92 1562.57 Q1162.79 1565.82 1159.96 1567.41 Q1157.16 1568.97 1153.43 1568.97 Q1147.29 1568.97 1144.11 1565.15 Q1140.92 1561.33 1140.92 1553.98 M1155.66 1531.54 L1155.66 1531.54 Z" fill="#000000" fill-rule="nonzero" fill-opacity="1" /><path clip-path="url(#clip160)" d="M1213.33 1548.76 L1213.33 1551.62 L1186.41 1551.62 Q1186.79 1557.67 1190.04 1560.85 Q1193.31 1564 1199.14 1564 Q1202.51 1564 1205.66 1563.17 Q1208.85 1562.35 1211.97 1560.69 L1211.97 1566.23 Q1208.81 1567.57 1205.5 1568.27 Q1202.19 1568.97 1198.79 1568.97 Q1190.26 1568.97 1185.26 1564 Q1180.3 1559.04 1180.3 1550.57 Q1180.3 1541.82 1185.01 1536.69 Q1189.75 1531.54 1197.77 1531.54 Q1204.96 1531.54 1209.13 1536.18 Q1213.33 1540.8 1213.33 1548.76 M1207.48 1547.04 Q1207.41 1542.23 1204.77 1539.37 Q1202.16 1536.5 1197.83 1536.5 Q1192.93 1536.5 1189.97 1539.27 Q1187.04 1542.04 1186.6 1547.07 L1207.48 1547.04 Z" fill="#000000" fill-rule="nonzero" fill-opacity="1" /><path clip-path="url(#clip160)" d="M1252.58 1546.53 L1252.58 1568.04 L1246.72 1568.04 L1246.72 1546.72 Q1246.72 1541.66 1244.75 1539.14 Q1242.78 1536.63 1238.83 1536.63 Q1234.09 1536.63 1231.35 1539.65 Q1228.61 1542.68 1228.61 1547.9 L1228.61 1568.04 L1222.72 1568.04 L1222.72 1532.4 L1228.61 1532.4 L1228.61 1537.93 Q1230.71 1534.72 1233.55 1533.13 Q1236.41 1531.54 1240.13 1531.54 Q1246.28 1531.54 1249.43 1535.36 Q1252.58 1539.14 1252.58 1546.53 Z" fill="#000000" fill-rule="nonzero" fill-opacity="1" /><path clip-path="url(#clip160)" d="M1289.91 1533.76 L1289.91 1539.24 Q1287.43 1537.87 1284.92 1537.2 Q1282.43 1536.5 1279.89 1536.5 Q1274.19 1536.5 1271.04 1540.13 Q1267.89 1543.73 1267.89 1550.25 Q1267.89 1556.78 1271.04 1560.4 Q1274.19 1564 1279.89 1564 Q1282.43 1564 1284.92 1563.33 Q1287.43 1562.63 1289.91 1561.26 L1289.91 1566.68 Q1287.46 1567.82 1284.82 1568.39 Q1282.21 1568.97 1279.25 1568.97 Q1271.2 1568.97 1266.46 1563.91 Q1261.71 1558.85 1261.71 1550.25 Q1261.71 1541.53 1266.49 1536.53 Q1271.29 1531.54 1279.63 1531.54 Q1282.34 1531.54 1284.92 1532.11 Q1287.49 1532.65 1289.91 1533.76 Z" fill="#000000" fill-rule="nonzero" fill-opacity="1" /><path clip-path="url(#clip160)" d="M1300.1 1532.4 L1305.96 1532.4 L1305.96 1568.04 L1300.1 1568.04 L1300.1 1532.4 M1300.1 1518.52 L1305.96 1518.52 L1305.96 1525.93 L1300.1 1525.93 L1300.1 1518.52 Z" fill="#000000" fill-rule="nonzero" fill-opacity="1" /><path clip-path="url(#clip160)" d="M1348.7 1548.76 L1348.7 1551.62 L1321.77 1551.62 Q1322.16 1557.67 1325.4 1560.85 Q1328.68 1564 1334.51 1564 Q1337.88 1564 1341.03 1563.17 Q1344.21 1562.35 1347.33 1560.69 L1347.33 1566.23 Q1344.18 1567.57 1340.87 1568.27 Q1337.56 1568.97 1334.16 1568.97 Q1325.63 1568.97 1320.63 1564 Q1315.66 1559.04 1315.66 1550.57 Q1315.66 1541.82 1320.37 1536.69 Q1325.12 1531.54 1333.14 1531.54 Q1340.33 1531.54 1344.5 1536.18 Q1348.7 1540.8 1348.7 1548.76 M1342.84 1547.04 Q1342.78 1542.23 1340.14 1539.37 Q1337.53 1536.5 1333.2 1536.5 Q1328.3 1536.5 1325.34 1539.27 Q1322.41 1542.04 1321.96 1547.07 L1342.84 1547.04 Z" fill="#000000" fill-rule="nonzero" fill-opacity="1" /><path clip-path="url(#clip160)" d="M1381.04 1533.45 L1381.04 1538.98 Q1378.56 1537.71 1375.88 1537.07 Q1373.21 1536.44 1370.34 1536.44 Q1365.98 1536.44 1363.79 1537.77 Q1361.62 1539.11 1361.62 1541.79 Q1361.62 1543.82 1363.18 1545 Q1364.74 1546.15 1369.45 1547.2 L1371.46 1547.64 Q1377.7 1548.98 1380.31 1551.43 Q1382.95 1553.85 1382.95 1558.21 Q1382.95 1563.17 1379 1566.07 Q1375.09 1568.97 1368.21 1568.97 Q1365.35 1568.97 1362.23 1568.39 Q1359.14 1567.85 1355.7 1566.74 L1355.7 1560.69 Q1358.95 1562.38 1362.1 1563.24 Q1365.25 1564.07 1368.34 1564.07 Q1372.48 1564.07 1374.7 1562.66 Q1376.93 1561.23 1376.93 1558.65 Q1376.93 1556.27 1375.31 1554.99 Q1373.72 1553.72 1368.28 1552.54 L1366.24 1552.07 Q1360.8 1550.92 1358.38 1548.56 Q1355.96 1546.18 1355.96 1542.04 Q1355.96 1537.01 1359.52 1534.27 Q1363.09 1531.54 1369.64 1531.54 Q1372.89 1531.54 1375.76 1532.01 Q1378.62 1532.49 1381.04 1533.45 Z" fill="#000000" fill-rule="nonzero" fill-opacity="1" /><path clip-path="url(#clip160)" d="M1412.45 1518.52 L1425.95 1518.52 L1425.95 1523.07 L1418.31 1523.07 L1418.31 1572.09 L1425.95 1572.09 L1425.95 1576.64 L1412.45 1576.64 L1412.45 1518.52 Z" fill="#000000" fill-rule="nonzero" fill-opacity="1" /><path clip-path="url(#clip160)" d="M1471.08 1561.26 L1471.08 1548.5 L1460.58 1548.5 L1460.58 1543.22 L1477.45 1543.22 L1477.45 1563.62 Q1473.72 1566.26 1469.24 1567.63 Q1464.75 1568.97 1459.66 1568.97 Q1448.52 1568.97 1442.21 1562.47 Q1435.94 1555.95 1435.94 1544.33 Q1435.94 1532.68 1442.21 1526.19 Q1448.52 1519.66 1459.66 1519.66 Q1464.3 1519.66 1468.47 1520.81 Q1472.67 1521.96 1476.21 1524.18 L1476.21 1531.03 Q1472.64 1528 1468.63 1526.48 Q1464.62 1524.95 1460.2 1524.95 Q1451.48 1524.95 1447.08 1529.82 Q1442.72 1534.69 1442.72 1544.33 Q1442.72 1553.94 1447.08 1558.81 Q1451.48 1563.68 1460.2 1563.68 Q1463.6 1563.68 1466.28 1563.11 Q1468.95 1562.51 1471.08 1561.26 Z" fill="#000000" fill-rule="nonzero" fill-opacity="1" /><path clip-path="url(#clip160)" d="M1489.19 1520.52 L1495.62 1520.52 L1495.62 1540 L1518.98 1540 L1518.98 1520.52 L1525.41 1520.52 L1525.41 1568.04 L1518.98 1568.04 L1518.98 1545.41 L1495.62 1545.41 L1495.62 1568.04 L1489.19 1568.04 L1489.19 1520.52 Z" fill="#000000" fill-rule="nonzero" fill-opacity="1" /><path clip-path="url(#clip160)" d="M1535.41 1532.4 L1563.23 1532.4 L1563.23 1537.74 L1541.2 1563.37 L1563.23 1563.37 L1563.23 1568.04 L1534.61 1568.04 L1534.61 1562.7 L1556.64 1537.07 L1535.41 1537.07 L1535.41 1532.4 Z" fill="#000000" fill-rule="nonzero" fill-opacity="1" /><path clip-path="url(#clip160)" d="M1585.86 1518.52 L1585.86 1576.64 L1572.36 1576.64 L1572.36 1572.09 L1579.97 1572.09 L1579.97 1523.07 L1572.36 1523.07 L1572.36 1518.52 L1585.86 1518.52 Z" fill="#000000" fill-rule="nonzero" fill-opacity="1" /><polyline clip-path="url(#clip160)" style="stroke:#000000; stroke-linecap:round; stroke-linejoin:round; stroke-width:4; stroke-opacity:1; fill:none" points="235.283,1423.18 235.283,47.2441 "/>
<polyline clip-path="url(#clip160)" style="stroke:#000000; stroke-linecap:round; stroke-linejoin:round; stroke-width:4; stroke-opacity:1; fill:none" points="235.283,1394.47 254.18,1394.47 "/>
<polyline clip-path="url(#clip160)" style="stroke:#000000; stroke-linecap:round; stroke-linejoin:round; stroke-width:4; stroke-opacity:1; fill:none" points="235.283,1165.87 254.18,1165.87 "/>
<polyline clip-path="url(#clip160)" style="stroke:#000000; stroke-linecap:round; stroke-linejoin:round; stroke-width:4; stroke-opacity:1; fill:none" points="235.283,937.272 254.18,937.272 "/>
<polyline clip-path="url(#clip160)" style="stroke:#000000; stroke-linecap:round; stroke-linejoin:round; stroke-width:4; stroke-opacity:1; fill:none" points="235.283,708.676 254.18,708.676 "/>
<polyline clip-path="url(#clip160)" style="stroke:#000000; stroke-linecap:round; stroke-linejoin:round; stroke-width:4; stroke-opacity:1; fill:none" points="235.283,480.08 254.18,480.08 "/>
<polyline clip-path="url(#clip160)" style="stroke:#000000; stroke-linecap:round; stroke-linejoin:round; stroke-width:4; stroke-opacity:1; fill:none" points="235.283,251.483 254.18,251.483 "/>
<path clip-path="url(#clip160)" d="M121.043 1407.81 L137.362 1407.81 L137.362 1411.75 L115.418 1411.75 L115.418 1407.81 Q118.08 1405.06 122.663 1400.43 Q127.269 1395.77 128.45 1394.43 Q130.695 1391.91 131.575 1390.17 Q132.478 1388.41 132.478 1386.72 Q132.478 1383.97 130.533 1382.23 Q128.612 1380.5 125.51 1380.5 Q123.311 1380.5 120.857 1381.26 Q118.427 1382.02 115.649 1383.57 L115.649 1378.85 Q118.473 1377.72 120.927 1377.14 Q123.38 1376.56 125.418 1376.56 Q130.788 1376.56 133.982 1379.25 Q137.177 1381.93 137.177 1386.42 Q137.177 1388.55 136.367 1390.47 Q135.579 1392.37 133.473 1394.96 Q132.894 1395.63 129.792 1398.85 Q126.691 1402.05 121.043 1407.81 Z" fill="#000000" fill-rule="nonzero" fill-opacity="1" /><path clip-path="url(#clip160)" d="M157.177 1380.26 Q153.566 1380.26 151.737 1383.83 Q149.931 1387.37 149.931 1394.5 Q149.931 1401.61 151.737 1405.17 Q153.566 1408.71 157.177 1408.71 Q160.811 1408.71 162.616 1405.17 Q164.445 1401.61 164.445 1394.5 Q164.445 1387.37 162.616 1383.83 Q160.811 1380.26 157.177 1380.26 M157.177 1376.56 Q162.987 1376.56 166.042 1381.17 Q169.121 1385.75 169.121 1394.5 Q169.121 1403.23 166.042 1407.83 Q162.987 1412.42 157.177 1412.42 Q151.366 1412.42 148.288 1407.83 Q145.232 1403.23 145.232 1394.5 Q145.232 1385.75 148.288 1381.17 Q151.366 1376.56 157.177 1376.56 Z" fill="#000000" fill-rule="nonzero" fill-opacity="1" /><path clip-path="url(#clip160)" d="M187.338 1380.26 Q183.727 1380.26 181.899 1383.83 Q180.093 1387.37 180.093 1394.5 Q180.093 1401.61 181.899 1405.17 Q183.727 1408.71 187.338 1408.71 Q190.973 1408.71 192.778 1405.17 Q194.607 1401.61 194.607 1394.5 Q194.607 1387.37 192.778 1383.83 Q190.973 1380.26 187.338 1380.26 M187.338 1376.56 Q193.149 1376.56 196.204 1381.17 Q199.283 1385.75 199.283 1394.5 Q199.283 1403.23 196.204 1407.83 Q193.149 1412.42 187.338 1412.42 Q181.528 1412.42 178.45 1407.83 Q175.394 1403.23 175.394 1394.5 Q175.394 1385.75 178.45 1381.17 Q181.528 1376.56 187.338 1376.56 Z" fill="#000000" fill-rule="nonzero" fill-opacity="1" /><path clip-path="url(#clip160)" d="M131.181 1164.51 Q134.538 1165.23 136.413 1167.5 Q138.311 1169.77 138.311 1173.1 Q138.311 1178.22 134.792 1181.02 Q131.274 1183.82 124.793 1183.82 Q122.617 1183.82 120.302 1183.38 Q118.01 1182.96 115.556 1182.11 L115.556 1177.59 Q117.501 1178.73 119.816 1179.31 Q122.13 1179.89 124.654 1179.89 Q129.052 1179.89 131.343 1178.15 Q133.658 1176.41 133.658 1173.1 Q133.658 1170.05 131.505 1168.33 Q129.376 1166.6 125.556 1166.6 L121.529 1166.6 L121.529 1162.76 L125.742 1162.76 Q129.191 1162.76 131.019 1161.39 Q132.848 1160 132.848 1157.41 Q132.848 1154.75 130.95 1153.33 Q129.075 1151.9 125.556 1151.9 Q123.635 1151.9 121.436 1152.32 Q119.237 1152.73 116.598 1153.61 L116.598 1149.45 Q119.26 1148.7 121.575 1148.33 Q123.913 1147.96 125.973 1147.96 Q131.297 1147.96 134.399 1150.39 Q137.501 1152.8 137.501 1156.92 Q137.501 1159.79 135.857 1161.78 Q134.214 1163.75 131.181 1164.51 Z" fill="#000000" fill-rule="nonzero" fill-opacity="1" /><path clip-path="url(#clip160)" d="M157.177 1151.67 Q153.566 1151.67 151.737 1155.23 Q149.931 1158.77 149.931 1165.9 Q149.931 1173.01 151.737 1176.57 Q153.566 1180.12 157.177 1180.12 Q160.811 1180.12 162.616 1176.57 Q164.445 1173.01 164.445 1165.9 Q164.445 1158.77 162.616 1155.23 Q160.811 1151.67 157.177 1151.67 M157.177 1147.96 Q162.987 1147.96 166.042 1152.57 Q169.121 1157.15 169.121 1165.9 Q169.121 1174.63 166.042 1179.24 Q162.987 1183.82 157.177 1183.82 Q151.366 1183.82 148.288 1179.24 Q145.232 1174.63 145.232 1165.9 Q145.232 1157.15 148.288 1152.57 Q151.366 1147.96 157.177 1147.96 Z" fill="#000000" fill-rule="nonzero" fill-opacity="1" /><path clip-path="url(#clip160)" d="M187.338 1151.67 Q183.727 1151.67 181.899 1155.23 Q180.093 1158.77 180.093 1165.9 Q180.093 1173.01 181.899 1176.57 Q183.727 1180.12 187.338 1180.12 Q190.973 1180.12 192.778 1176.57 Q194.607 1173.01 194.607 1165.9 Q194.607 1158.77 192.778 1155.23 Q190.973 1151.67 187.338 1151.67 M187.338 1147.96 Q193.149 1147.96 196.204 1152.57 Q199.283 1157.15 199.283 1165.9 Q199.283 1174.63 196.204 1179.24 Q193.149 1183.82 187.338 1183.82 Q181.528 1183.82 178.45 1179.24 Q175.394 1174.63 175.394 1165.9 Q175.394 1157.15 178.45 1152.57 Q181.528 1147.96 187.338 1147.96 Z" fill="#000000" fill-rule="nonzero" fill-opacity="1" /><path clip-path="url(#clip160)" d="M129.862 924.067 L118.056 942.516 L129.862 942.516 L129.862 924.067 M128.635 919.992 L134.515 919.992 L134.515 942.516 L139.445 942.516 L139.445 946.404 L134.515 946.404 L134.515 954.552 L129.862 954.552 L129.862 946.404 L114.26 946.404 L114.26 941.891 L128.635 919.992 Z" fill="#000000" fill-rule="nonzero" fill-opacity="1" /><path clip-path="url(#clip160)" d="M157.177 923.071 Q153.566 923.071 151.737 926.636 Q149.931 930.178 149.931 937.307 Q149.931 944.414 151.737 947.978 Q153.566 951.52 157.177 951.52 Q160.811 951.52 162.616 947.978 Q164.445 944.414 164.445 937.307 Q164.445 930.178 162.616 926.636 Q160.811 923.071 157.177 923.071 M157.177 919.367 Q162.987 919.367 166.042 923.974 Q169.121 928.557 169.121 937.307 Q169.121 946.034 166.042 950.64 Q162.987 955.224 157.177 955.224 Q151.366 955.224 148.288 950.64 Q145.232 946.034 145.232 937.307 Q145.232 928.557 148.288 923.974 Q151.366 919.367 157.177 919.367 Z" fill="#000000" fill-rule="nonzero" fill-opacity="1" /><path clip-path="url(#clip160)" d="M187.338 923.071 Q183.727 923.071 181.899 926.636 Q180.093 930.178 180.093 937.307 Q180.093 944.414 181.899 947.978 Q183.727 951.52 187.338 951.52 Q190.973 951.52 192.778 947.978 Q194.607 944.414 194.607 937.307 Q194.607 930.178 192.778 926.636 Q190.973 923.071 187.338 923.071 M187.338 919.367 Q193.149 919.367 196.204 923.974 Q199.283 928.557 199.283 937.307 Q199.283 946.034 196.204 950.64 Q193.149 955.224 187.338 955.224 Q181.528 955.224 178.45 950.64 Q175.394 946.034 175.394 937.307 Q175.394 928.557 178.45 923.974 Q181.528 919.367 187.338 919.367 Z" fill="#000000" fill-rule="nonzero" fill-opacity="1" /><path clip-path="url(#clip160)" d="M117.061 691.396 L135.417 691.396 L135.417 695.331 L121.343 695.331 L121.343 703.803 Q122.362 703.456 123.38 703.294 Q124.399 703.109 125.418 703.109 Q131.205 703.109 134.584 706.28 Q137.964 709.452 137.964 714.868 Q137.964 720.447 134.492 723.549 Q131.019 726.627 124.7 726.627 Q122.524 726.627 120.255 726.257 Q118.01 725.887 115.603 725.146 L115.603 720.447 Q117.686 721.581 119.908 722.137 Q122.13 722.692 124.607 722.692 Q128.612 722.692 130.95 720.586 Q133.288 718.479 133.288 714.868 Q133.288 711.257 130.95 709.151 Q128.612 707.044 124.607 707.044 Q122.732 707.044 120.857 707.461 Q119.006 707.877 117.061 708.757 L117.061 691.396 Z" fill="#000000" fill-rule="nonzero" fill-opacity="1" /><path clip-path="url(#clip160)" d="M157.177 694.475 Q153.566 694.475 151.737 698.04 Q149.931 701.581 149.931 708.711 Q149.931 715.817 151.737 719.382 Q153.566 722.924 157.177 722.924 Q160.811 722.924 162.616 719.382 Q164.445 715.817 164.445 708.711 Q164.445 701.581 162.616 698.04 Q160.811 694.475 157.177 694.475 M157.177 690.771 Q162.987 690.771 166.042 695.378 Q169.121 699.961 169.121 708.711 Q169.121 717.438 166.042 722.044 Q162.987 726.627 157.177 726.627 Q151.366 726.627 148.288 722.044 Q145.232 717.438 145.232 708.711 Q145.232 699.961 148.288 695.378 Q151.366 690.771 157.177 690.771 Z" fill="#000000" fill-rule="nonzero" fill-opacity="1" /><path clip-path="url(#clip160)" d="M187.338 694.475 Q183.727 694.475 181.899 698.04 Q180.093 701.581 180.093 708.711 Q180.093 715.817 181.899 719.382 Q183.727 722.924 187.338 722.924 Q190.973 722.924 192.778 719.382 Q194.607 715.817 194.607 708.711 Q194.607 701.581 192.778 698.04 Q190.973 694.475 187.338 694.475 M187.338 690.771 Q193.149 690.771 196.204 695.378 Q199.283 699.961 199.283 708.711 Q199.283 717.438 196.204 722.044 Q193.149 726.627 187.338 726.627 Q181.528 726.627 178.45 722.044 Q175.394 717.438 175.394 708.711 Q175.394 699.961 178.45 695.378 Q181.528 690.771 187.338 690.771 Z" fill="#000000" fill-rule="nonzero" fill-opacity="1" /><path clip-path="url(#clip160)" d="M127.593 478.216 Q124.445 478.216 122.593 480.369 Q120.765 482.522 120.765 486.272 Q120.765 489.999 122.593 492.174 Q124.445 494.327 127.593 494.327 Q130.742 494.327 132.57 492.174 Q134.422 489.999 134.422 486.272 Q134.422 482.522 132.57 480.369 Q130.742 478.216 127.593 478.216 M136.876 463.563 L136.876 467.823 Q135.117 466.989 133.311 466.55 Q131.529 466.11 129.769 466.11 Q125.14 466.11 122.686 469.235 Q120.255 472.36 119.908 478.679 Q121.274 476.665 123.334 475.6 Q125.394 474.513 127.871 474.513 Q133.08 474.513 136.089 477.684 Q139.121 480.832 139.121 486.272 Q139.121 491.596 135.973 494.813 Q132.825 498.031 127.593 498.031 Q121.598 498.031 118.427 493.448 Q115.256 488.841 115.256 480.114 Q115.256 471.92 119.144 467.059 Q123.033 462.175 129.584 462.175 Q131.343 462.175 133.126 462.522 Q134.931 462.869 136.876 463.563 Z" fill="#000000" fill-rule="nonzero" fill-opacity="1" /><path clip-path="url(#clip160)" d="M157.177 465.878 Q153.566 465.878 151.737 469.443 Q149.931 472.985 149.931 480.114 Q149.931 487.221 151.737 490.786 Q153.566 494.327 157.177 494.327 Q160.811 494.327 162.616 490.786 Q164.445 487.221 164.445 480.114 Q164.445 472.985 162.616 469.443 Q160.811 465.878 157.177 465.878 M157.177 462.175 Q162.987 462.175 166.042 466.781 Q169.121 471.364 169.121 480.114 Q169.121 488.841 166.042 493.448 Q162.987 498.031 157.177 498.031 Q151.366 498.031 148.288 493.448 Q145.232 488.841 145.232 480.114 Q145.232 471.364 148.288 466.781 Q151.366 462.175 157.177 462.175 Z" fill="#000000" fill-rule="nonzero" fill-opacity="1" /><path clip-path="url(#clip160)" d="M187.338 465.878 Q183.727 465.878 181.899 469.443 Q180.093 472.985 180.093 480.114 Q180.093 487.221 181.899 490.786 Q183.727 494.327 187.338 494.327 Q190.973 494.327 192.778 490.786 Q194.607 487.221 194.607 480.114 Q194.607 472.985 192.778 469.443 Q190.973 465.878 187.338 465.878 M187.338 462.175 Q193.149 462.175 196.204 466.781 Q199.283 471.364 199.283 480.114 Q199.283 488.841 196.204 493.448 Q193.149 498.031 187.338 498.031 Q181.528 498.031 178.45 493.448 Q175.394 488.841 175.394 480.114 Q175.394 471.364 178.45 466.781 Q181.528 462.175 187.338 462.175 Z" fill="#000000" fill-rule="nonzero" fill-opacity="1" /><path clip-path="url(#clip160)" d="M115.834 234.203 L138.056 234.203 L138.056 236.194 L125.51 268.763 L120.626 268.763 L132.431 238.138 L115.834 238.138 L115.834 234.203 Z" fill="#000000" fill-rule="nonzero" fill-opacity="1" /><path clip-path="url(#clip160)" d="M157.177 237.282 Q153.566 237.282 151.737 240.847 Q149.931 244.388 149.931 251.518 Q149.931 258.624 151.737 262.189 Q153.566 265.731 157.177 265.731 Q160.811 265.731 162.616 262.189 Q164.445 258.624 164.445 251.518 Q164.445 244.388 162.616 240.847 Q160.811 237.282 157.177 237.282 M157.177 233.578 Q162.987 233.578 166.042 238.185 Q169.121 242.768 169.121 251.518 Q169.121 260.245 166.042 264.851 Q162.987 269.434 157.177 269.434 Q151.366 269.434 148.288 264.851 Q145.232 260.245 145.232 251.518 Q145.232 242.768 148.288 238.185 Q151.366 233.578 157.177 233.578 Z" fill="#000000" fill-rule="nonzero" fill-opacity="1" /><path clip-path="url(#clip160)" d="M187.338 237.282 Q183.727 237.282 181.899 240.847 Q180.093 244.388 180.093 251.518 Q180.093 258.624 181.899 262.189 Q183.727 265.731 187.338 265.731 Q190.973 265.731 192.778 262.189 Q194.607 258.624 194.607 251.518 Q194.607 244.388 192.778 240.847 Q190.973 237.282 187.338 237.282 M187.338 233.578 Q193.149 233.578 196.204 238.185 Q199.283 242.768 199.283 251.518 Q199.283 260.245 196.204 264.851 Q193.149 269.434 187.338 269.434 Q181.528 269.434 178.45 264.851 Q175.394 260.245 175.394 251.518 Q175.394 242.768 178.45 238.185 Q181.528 233.578 187.338 233.578 Z" fill="#000000" fill-rule="nonzero" fill-opacity="1" /><path clip-path="url(#clip160)" d="M41.3104 969.884 L58.7206 969.884 L58.7206 959.571 Q58.7206 954.383 56.5881 951.901 Q54.4238 949.386 49.9996 949.386 Q45.5436 949.386 43.4429 951.901 Q41.3104 954.383 41.3104 959.571 L41.3104 969.884 M21.7677 969.884 L36.0905 969.884 L36.0905 960.367 Q36.0905 955.656 34.34 953.365 Q32.5576 951.041 28.9291 951.041 Q25.3325 951.041 23.5501 953.365 Q21.7677 955.656 21.7677 960.367 L21.7677 969.884 M16.4842 976.313 L16.4842 959.89 Q16.4842 952.537 19.5397 948.559 Q22.5952 944.58 28.2289 944.58 Q32.5894 944.58 35.1675 946.617 Q37.7456 948.654 38.3822 952.601 Q39.4007 947.858 42.6472 945.248 Q45.8619 942.607 50.6998 942.607 Q57.0655 942.607 60.5348 946.935 Q64.0042 951.264 64.0042 959.253 L64.0042 976.313 L16.4842 976.313 Z" fill="#000000" fill-rule="nonzero" fill-opacity="1" /><path clip-path="url(#clip160)" d="M32.4621 918.035 Q32.4621 922.746 36.1542 925.483 Q39.8145 928.22 46.212 928.22 Q52.6095 928.22 56.3017 925.515 Q59.9619 922.778 59.9619 918.035 Q59.9619 913.356 56.2698 910.619 Q52.5777 907.882 46.212 907.882 Q39.8781 907.882 36.186 910.619 Q32.4621 913.356 32.4621 918.035 M27.4968 918.035 Q27.4968 910.396 32.4621 906.036 Q37.4273 901.675 46.212 901.675 Q54.9649 901.675 59.9619 906.036 Q64.9272 910.396 64.9272 918.035 Q64.9272 925.706 59.9619 930.066 Q54.9649 934.395 46.212 934.395 Q37.4273 934.395 32.4621 930.066 Q27.4968 925.706 27.4968 918.035 Z" fill="#000000" fill-rule="nonzero" fill-opacity="1" /><path clip-path="url(#clip160)" d="M32.4621 878.154 Q32.4621 882.865 36.1542 885.602 Q39.8145 888.339 46.212 888.339 Q52.6095 888.339 56.3017 885.634 Q59.9619 882.896 59.9619 878.154 Q59.9619 873.475 56.2698 870.738 Q52.5777 868.001 46.212 868.001 Q39.8781 868.001 36.186 870.738 Q32.4621 873.475 32.4621 878.154 M27.4968 878.154 Q27.4968 870.515 32.4621 866.155 Q37.4273 861.794 46.212 861.794 Q54.9649 861.794 59.9619 866.155 Q64.9272 870.515 64.9272 878.154 Q64.9272 885.825 59.9619 890.185 Q54.9649 894.514 46.212 894.514 Q37.4273 894.514 32.4621 890.185 Q27.4968 885.825 27.4968 878.154 Z" fill="#000000" fill-rule="nonzero" fill-opacity="1" /><path clip-path="url(#clip160)" d="M29.4065 829.361 L34.9447 829.361 Q33.6716 831.843 33.035 834.517 Q32.3984 837.191 32.3984 840.055 Q32.3984 844.416 33.7352 846.612 Q35.072 848.776 37.7456 848.776 Q39.7826 848.776 40.9603 847.217 Q42.1061 845.657 43.1565 840.946 L43.6021 838.941 Q44.9389 832.703 47.3897 830.093 Q49.8086 827.451 54.1691 827.451 Q59.1344 827.451 62.0308 831.398 Q64.9272 835.313 64.9272 842.188 Q64.9272 845.052 64.3543 848.171 Q63.8132 851.259 62.6992 854.696 L56.6518 854.696 Q58.3387 851.45 59.198 848.299 Q60.0256 845.148 60.0256 842.06 Q60.0256 837.923 58.6251 835.695 Q57.1929 833.467 54.6147 833.467 Q52.2276 833.467 50.9545 835.09 Q49.6813 836.681 48.5037 842.124 L48.0262 844.161 Q46.8804 849.604 44.5251 852.023 Q42.138 854.442 38.0002 854.442 Q32.9713 854.442 30.2341 850.877 Q27.4968 847.312 27.4968 840.755 Q27.4968 837.509 27.9743 834.644 Q28.4517 831.78 29.4065 829.361 Z" fill="#000000" fill-rule="nonzero" fill-opacity="1" /><path clip-path="url(#clip160)" d="M18.2347 812.333 L28.3562 812.333 L28.3562 800.269 L32.9077 800.269 L32.9077 812.333 L52.2594 812.333 Q56.6199 812.333 57.8613 811.155 Q59.1026 809.945 59.1026 806.285 L59.1026 800.269 L64.0042 800.269 L64.0042 806.285 Q64.0042 813.065 61.4897 815.643 Q58.9434 818.221 52.2594 818.221 L32.9077 818.221 L32.9077 822.518 L28.3562 822.518 L28.3562 818.221 L18.2347 818.221 L18.2347 812.333 Z" fill="#000000" fill-rule="nonzero" fill-opacity="1" /><path clip-path="url(#clip160)" d="M16.4842 771.592 L16.4842 744.283 L21.895 744.283 L21.895 765.163 L35.8996 765.163 L35.8996 746.32 L41.3104 746.32 L41.3104 765.163 L64.0042 765.163 L64.0042 771.592 L16.4842 771.592 Z" fill="#000000" fill-rule="nonzero" fill-opacity="1" /><path clip-path="url(#clip160)" d="M46.0847 724.136 Q46.0847 731.233 47.7079 733.971 Q49.3312 736.708 53.2461 736.708 Q56.3653 736.708 58.2114 734.671 Q60.0256 732.602 60.0256 729.069 Q60.0256 724.199 56.5881 721.271 Q53.1188 718.311 47.3897 718.311 L46.0847 718.311 L46.0847 724.136 M43.6657 712.455 L64.0042 712.455 L64.0042 718.311 L58.5933 718.311 Q61.8398 720.316 63.3994 723.308 Q64.9272 726.3 64.9272 730.629 Q64.9272 736.103 61.8716 739.35 Q58.7843 742.564 53.6281 742.564 Q47.6125 742.564 44.5569 738.554 Q41.5014 734.512 41.5014 726.523 L41.5014 718.311 L40.9285 718.311 Q36.8862 718.311 34.6901 720.985 Q32.4621 723.626 32.4621 728.432 Q32.4621 731.488 33.1941 734.384 Q33.9262 737.281 35.3903 739.954 L29.9795 739.954 Q28.7381 736.74 28.1334 733.716 Q27.4968 730.692 27.4968 727.828 Q27.4968 720.093 31.5072 716.274 Q35.5176 712.455 43.6657 712.455 Z" fill="#000000" fill-rule="nonzero" fill-opacity="1" /><path clip-path="url(#clip160)" d="M29.7248 674.738 L35.1993 674.738 Q33.8307 677.22 33.1623 679.735 Q32.4621 682.217 32.4621 684.764 Q32.4621 690.461 36.0905 693.612 Q39.6872 696.763 46.212 696.763 Q52.7369 696.763 56.3653 693.612 Q59.9619 690.461 59.9619 684.764 Q59.9619 682.217 59.2935 679.735 Q58.5933 677.22 57.2247 674.738 L62.6355 674.738 Q63.7814 677.189 64.3543 679.83 Q64.9272 682.44 64.9272 685.4 Q64.9272 693.453 59.8664 698.195 Q54.8057 702.938 46.212 702.938 Q37.491 702.938 32.4939 698.164 Q27.4968 693.357 27.4968 685.018 Q27.4968 682.313 28.0697 679.735 Q28.6108 677.157 29.7248 674.738 Z" fill="#000000" fill-rule="nonzero" fill-opacity="1" /><path clip-path="url(#clip160)" d="M18.2347 658.76 L28.3562 658.76 L28.3562 646.697 L32.9077 646.697 L32.9077 658.76 L52.2594 658.76 Q56.6199 658.76 57.8613 657.582 Q59.1026 656.373 59.1026 652.712 L59.1026 646.697 L64.0042 646.697 L64.0042 652.712 Q64.0042 659.492 61.4897 662.07 Q58.9434 664.648 52.2594 664.648 L32.9077 664.648 L32.9077 668.945 L28.3562 668.945 L28.3562 664.648 L18.2347 664.648 L18.2347 658.76 Z" fill="#000000" fill-rule="nonzero" fill-opacity="1" /><path clip-path="url(#clip160)" d="M32.4621 625.181 Q32.4621 629.891 36.1542 632.629 Q39.8145 635.366 46.212 635.366 Q52.6095 635.366 56.3017 632.66 Q59.9619 629.923 59.9619 625.181 Q59.9619 620.502 56.2698 617.765 Q52.5777 615.027 46.212 615.027 Q39.8781 615.027 36.186 617.765 Q32.4621 620.502 32.4621 625.181 M27.4968 625.181 Q27.4968 617.542 32.4621 613.181 Q37.4273 608.821 46.212 608.821 Q54.9649 608.821 59.9619 613.181 Q64.9272 617.542 64.9272 625.181 Q64.9272 632.851 59.9619 637.212 Q54.9649 641.541 46.212 641.541 Q37.4273 641.541 32.4621 637.212 Q27.4968 632.851 27.4968 625.181 Z" fill="#000000" fill-rule="nonzero" fill-opacity="1" /><path clip-path="url(#clip160)" d="M33.8307 578.456 Q33.2578 579.443 33.0032 580.621 Q32.7167 581.767 32.7167 583.167 Q32.7167 588.132 35.9632 590.806 Q39.1779 593.448 45.2253 593.448 L64.0042 593.448 L64.0042 599.336 L28.3562 599.336 L28.3562 593.448 L33.8944 593.448 Q30.6479 591.602 29.0883 588.642 Q27.4968 585.682 27.4968 581.448 Q27.4968 580.844 27.5923 580.112 Q27.656 579.379 27.8151 578.488 L33.8307 578.456 Z" fill="#000000" fill-rule="nonzero" fill-opacity="1" /><path clip-path="url(#clip160)" d="M61.808 545.737 L77.5631 545.737 L77.5631 551.625 L28.579 551.625 Q14.0652 551.625 14.0652 538.066 Q14.0652 524.252 26.3192 524.252 Q35.0402 524.252 38.223 529.727 Q41.0876 520.815 49.5858 520.815 Q64.6726 520.815 64.6726 536.156 Q64.6726 542.904 61.808 545.737 M54.1691 545.737 Q59.6755 542.204 59.6755 535.934 Q59.6755 526.767 49.6813 526.767 Q40.7057 526.767 41.4059 541.535 L35.995 541.535 Q35.995 529.982 25.8099 529.982 Q18.8395 529.982 18.8395 537.429 Q18.8395 545.737 28.77 545.737 L54.1691 545.737 Z" fill="#000000" fill-rule="nonzero" fill-opacity="1" /><path clip-path="url(#clip160)" d="M39.1142 507.606 L39.1142 494.111 L42.7427 494.111 L42.7427 513.144 L39.2416 513.144 Q38.2549 512.062 36.4725 510.057 Q26.7648 499.108 23.7729 499.108 Q21.6722 499.108 20.3991 500.763 Q19.0941 502.418 19.0941 505.124 Q19.0941 506.779 19.667 508.72 Q20.2081 510.662 21.3221 512.953 L17.4072 512.953 Q16.516 510.503 16.0704 508.402 Q15.6248 506.269 15.6248 504.455 Q15.6248 499.84 17.7255 497.071 Q19.8262 494.302 23.2636 494.302 Q27.6878 494.302 36.7271 504.837 Q38.2549 506.619 39.1142 507.606 Z" fill="#000000" fill-rule="nonzero" fill-opacity="1" /><polyline clip-path="url(#clip162)" style="stroke:#009af9; stroke-linecap:round; stroke-linejoin:round; stroke-width:4; stroke-opacity:1; fill:none" points="295.211,1384.24 297.211,1382.61 299.211,1380.98 301.21,1379.33 303.21,1377.69 305.209,1376.03 307.209,1374.37 309.209,1372.7 311.208,1371.03 313.208,1369.35 315.207,1367.66 317.207,1365.96 319.207,1364.26 321.206,1362.55 323.206,1360.84 325.206,1359.12 327.205,1357.39 329.205,1355.65 331.204,1353.91 333.204,1352.16 335.204,1350.4 337.203,1348.64 339.203,1346.87 341.202,1345.09 343.202,1343.31 345.202,1341.52 347.201,1339.72 349.201,1337.91 351.201,1336.1 353.2,1334.28 355.2,1332.45 357.199,1330.61 359.199,1328.77 361.199,1326.92 363.198,1325.06 365.198,1323.2 367.197,1321.33 369.197,1319.45 371.197,1317.56 373.196,1315.67 375.196,1313.77 377.196,1311.86 379.195,1309.94 381.195,1308.02 383.194,1306.08 385.194,1304.15 387.194,1302.2 389.193,1300.24 391.193,1298.28 393.193,1296.31 395.192,1294.33 397.192,1292.35 399.191,1290.35 401.191,1288.35 403.191,1286.34 405.19,1284.32 407.19,1282.3 409.189,1280.27 411.189,1278.23 413.189,1276.18 415.188,1274.12 417.188,1272.05 419.188,1269.98 421.187,1267.9 423.187,1265.81 425.186,1263.71 427.186,1261.61 429.186,1259.49 431.185,1257.37 433.185,1255.24 435.184,1253.1 437.184,1250.95 439.184,1248.8 441.183,1246.64 443.183,1244.46 445.183,1242.28 447.182,1240.09 449.182,1237.9 451.181,1235.69 453.181,1233.48 455.181,1231.25 457.18,1229.02 459.18,1226.78 461.179,1224.53 463.179,1222.28 465.179,1220.01 467.178,1217.74 469.178,1215.45 471.178,1213.16 473.177,1210.86 475.177,1208.55 477.176,1206.24 479.176,1203.91 481.176,1201.57 483.175,1199.23 485.175,1196.88 487.174,1194.51 489.174,1192.14 491.174,1189.76 493.173,1187.37 495.173,1184.98 497.173,1182.57 499.172,1180.15 501.172,1177.73 503.171,1175.3 505.171,1172.85 507.171,1170.4 509.17,1167.94 511.17,1165.47 513.169,1162.99 515.169,1160.5 517.169,1158 519.168,1155.5 521.168,1152.98 523.168,1150.46 525.167,1147.92 527.167,1145.38 529.166,1142.83 531.166,1140.26 533.166,1137.69 535.165,1135.11 537.165,1132.52 539.164,1129.92 541.164,1127.31 543.164,1124.7 545.163,1122.07 547.163,1119.43 549.163,1116.78 551.162,1114.13 553.162,1111.46 555.161,1108.79 557.161,1106.11 559.161,1103.41 561.16,1100.71 563.16,1098 565.159,1095.27 567.159,1092.54 569.159,1089.8 571.158,1087.05 573.158,1084.29 575.158,1081.52 577.157,1078.74 579.157,1075.95 581.156,1073.15 583.156,1070.35 585.156,1067.53 587.155,1064.7 589.155,1061.87 591.154,1059.02 593.154,1056.16 595.154,1053.3 597.153,1050.42 599.153,1047.54 601.153,1044.64 603.152,1041.74 605.152,1038.83 607.151,1035.9 609.151,1032.97 611.151,1030.03 613.15,1027.08 615.15,1024.12 617.149,1021.15 619.149,1018.17 621.149,1015.18 623.148,1012.18 625.148,1009.17 627.148,1006.15 629.147,1003.12 631.147,1000.08 633.146,997.035 635.146,993.978 637.146,990.912 639.145,987.836 641.145,984.751 643.144,981.656 645.144,978.552 647.144,975.438 649.143,972.315 651.143,969.183 653.143,966.041 655.142,962.89 657.142,959.729 659.141,956.559 661.141,953.38 663.141,950.191 665.14,946.993 667.14,943.786 669.139,940.57 671.139,937.345 673.139,934.11 675.138,930.866 677.138,927.613 679.138,924.351 681.137,921.08 683.137,917.8 685.136,914.511 687.136,911.212 689.136,907.905 691.135,904.589 693.135,901.264 695.134,897.931 697.134,894.588 699.134,891.237 701.133,887.877 703.133,884.508 705.133,881.131 707.132,877.745 709.132,874.351 711.131,870.948 713.131,867.536 715.131,864.117 717.13,860.688 719.13,857.252 721.129,853.807 723.129,850.354 725.129,846.893 727.128,843.424 729.128,839.946 731.128,836.461 733.127,832.968 735.127,829.467 737.126,825.958 739.126,822.441 741.126,818.917 743.125,815.385 745.125,811.845 747.124,808.298 749.124,804.744 751.124,801.182 753.123,797.613 755.123,794.036 757.123,790.453 759.122,786.862 761.122,783.265 763.121,779.66 765.121,776.049 767.121,772.431 769.12,768.806 771.12,765.175 773.119,761.537 775.119,757.893 777.119,754.242 779.118,750.585 781.118,746.922 783.118,743.253 785.117,739.578 787.117,735.898 789.116,732.211 791.116,728.519 793.116,724.821 795.115,721.117 797.115,717.409 799.114,713.695 801.114,709.976 803.114,706.251 805.113,702.522 807.113,698.788 809.113,695.05 811.112,691.307 813.112,687.559 815.111,683.807 817.111,680.05 819.111,676.29 821.11,672.525 823.11,668.757 825.109,664.985 827.109,661.209 829.109,657.43 831.108,653.647 833.108,649.861 835.108,646.072 837.107,642.28 839.107,638.485 841.106,634.688 843.106,630.888 845.106,627.085 847.105,623.28 849.105,619.474 851.104,615.665 853.104,611.854 855.104,608.042 857.103,604.228 859.103,600.413 861.103,596.596 863.102,592.779 865.102,588.96 867.101,585.141 869.101,581.321 871.101,577.501 873.1,573.681 875.1,569.86 877.1,566.04 879.099,562.219 881.099,558.4 883.098,554.581 885.098,550.762 887.098,546.945 889.097,543.129 891.097,539.314 893.096,535.5 895.096,531.688 897.096,527.878 899.095,524.071 901.095,520.265 903.095,516.462 905.094,512.661 907.094,508.863 909.093,505.069 911.093,501.277 913.093,497.489 915.092,493.704 917.092,489.923 919.091,486.147 921.091,482.374 923.091,478.606 925.09,474.842 927.09,471.083 929.09,467.33 931.089,463.581 933.089,459.838 935.088,456.101 937.088,452.369 939.088,448.644 941.087,444.925 943.087,441.212 945.086,437.506 947.086,433.807 949.086,430.116 951.085,426.431 953.085,422.755 955.085,419.086 957.084,415.425 959.084,411.773 961.083,408.129 963.083,404.494 965.083,400.868 967.082,397.251 969.082,393.643 971.081,390.045 973.081,386.457 975.081,382.88 977.08,379.312 979.08,375.756 981.08,372.21 983.079,368.675 985.079,365.152 987.078,361.64 989.078,358.14 991.078,354.652 993.077,351.176 995.077,347.713 997.076,344.263 999.076,340.826 1001.08,337.402 1003.08,333.991 1005.07,330.594 1007.07,327.211 1009.07,323.843 1011.07,320.489 1013.07,317.149 1015.07,313.825 1017.07,310.515 1019.07,307.222 1021.07,303.943 1023.07,300.681 1025.07,297.435 1027.07,294.206 1029.07,290.993 1031.07,287.797 1033.07,284.618 1035.07,281.456 1037.07,278.312 1039.07,275.186 1041.07,272.078 1043.07,268.989 1045.07,265.918 1047.07,262.866 1049.07,259.833 1051.07,256.819 1053.07,253.825 1055.07,250.851 1057.06,247.896 1059.06,244.962 1061.06,242.048 1063.06,239.156 1065.06,236.284 1067.06,233.433 1069.06,230.603 1071.06,227.796 1073.06,225.01 1075.06,222.246 1077.06,219.505 1079.06,216.786 1081.06,214.09 1083.06,211.417 1085.06,208.767 1087.06,206.14 1089.06,203.538 1091.06,200.959 1093.06,198.404 1095.06,195.873 1097.06,193.367 1099.06,190.885 1101.06,188.429 1103.06,185.998 1105.06,183.591 1107.06,181.211 1109.05,178.856 1111.05,176.527 1113.05,174.224 1115.05,171.948 1117.05,169.697 1119.05,167.474 1121.05,165.277 1123.05,163.108 1125.05,160.966 1127.05,158.851 1129.05,156.763 1131.05,154.704 1133.05,152.672 1135.05,150.668 1137.05,148.693 1139.05,146.746 1141.05,144.827 1143.05,142.938 1145.05,141.077 1147.05,139.245 1149.05,137.442 1151.05,135.669 1153.05,133.925 1155.05,132.211 1157.05,130.527 1159.05,128.872 1161.04,127.247 1163.04,125.653 1165.04,124.089 1167.04,122.555 1169.04,121.051 1171.04,119.579 1173.04,118.137 1175.04,116.725 1177.04,115.345 1179.04,113.996 1181.04,112.678 1183.04,111.391 1185.04,110.135 1187.04,108.911 1189.04,107.718 1191.04,106.557 1193.04,105.428 1195.04,104.33 1197.04,103.264 1199.04,102.23 1201.04,101.228 1203.04,100.258 1205.04,99.3201 1207.04,98.4142 1209.04,97.5404 1211.04,96.6988 1213.03,95.8894 1215.03,95.1124 1217.03,94.3676 1219.03,93.6552 1221.03,92.9752 1223.03,92.3275 1225.03,91.7123 1227.03,91.1295 1229.03,90.5792 1231.03,90.0614 1233.03,89.576 1235.03,89.1231 1237.03,88.7027 1239.03,88.3147 1241.03,87.9592 1243.03,87.6362 1245.03,87.3456 1247.03,87.0874 1249.03,86.8617 1251.03,86.6682 1253.03,86.5072 1255.03,86.3784 1257.03,86.282 1259.03,86.2177 1261.03,86.1857 1263.03,86.1858 1265.02,86.218 1267.02,86.2822 1269.02,86.3785 1271.02,86.5066 1273.02,86.6667 1275.02,86.8585 1277.02,87.082 1279.02,87.3373 1281.02,87.624 1283.02,87.9423 1285.02,88.2921 1287.02,88.6731 1289.02,89.0854 1291.02,89.5288 1293.02,90.0033 1295.02,90.5087 1297.02,91.045 1299.02,91.6121 1301.02,92.2097 1303.02,92.838 1305.02,93.4966 1307.02,94.1855 1309.02,94.9046 1311.02,95.6538 1313.02,96.4329 1315.02,97.2418 1317.01,98.0804 1319.01,98.9485 1321.01,99.8461 1323.01,100.773 1325.01,101.729 1327.01,102.714 1329.01,103.727 1331.01,104.77 1333.01,105.841 1335.01,106.94 1337.01,108.068 1339.01,109.224 1341.01,110.407 1343.01,111.618 1345.01,112.857 1347.01,114.124 1349.01,115.417 1351.01,116.738 1353.01,118.086 1355.01,119.46 1357.01,120.861 1359.01,122.288 1361.01,123.741 1363.01,125.221 1365.01,126.726 1367.01,128.257 1369,129.814 1371,131.395 1373,133.002 1375,134.634 1377,136.29 1379,137.971 1381,139.676 1383,141.405 1385,143.158 1387,144.935 1389,146.736 1391,148.559 1393,150.406 1395,152.276 1397,154.168 1399,156.083 1401,158.02 1403,159.979 1405,161.961 1407,163.963 1409,165.987 1411,168.033 1413,170.099 1415,172.187 1417,174.294 1419,176.423 1420.99,178.571 1422.99,180.739 1424.99,182.927 1426.99,185.135 1428.99,187.362 1430.99,189.608 1432.99,191.872 1434.99,194.156 1436.99,196.458 1438.99,198.778 1440.99,201.116 1442.99,203.472 1444.99,205.845 1446.99,208.236 1448.99,210.644 1450.99,213.068 1452.99,215.51 1454.99,217.968 1456.99,220.442 1458.99,222.932 1460.99,225.438 1462.99,227.96 1464.99,230.497 1466.99,233.049 1468.99,235.616 1470.99,238.198 1472.98,240.794 1474.98,243.405 1476.98,246.03 1478.98,248.669 1480.98,251.321 1482.98,253.987 1484.98,256.666 1486.98,259.358 1488.98,262.062 1490.98,264.78 1492.98,267.51 1494.98,270.252 1496.98,273.006 1498.98,275.772 1500.98,278.549 1502.98,281.338 1504.98,284.138 1506.98,286.948 1508.98,289.77 1510.98,292.602 1512.98,295.444 1514.98,298.297 1516.98,301.16 1518.98,304.032 1520.98,306.914 1522.98,309.805 1524.97,312.705 1526.97,315.614 1528.97,318.532 1530.97,321.459 1532.97,324.394 1534.97,327.337 1536.97,330.288 1538.97,333.247 1540.97,336.214 1542.97,339.188 1544.97,342.169 1546.97,345.157 1548.97,348.152 1550.97,351.154 1552.97,354.163 1554.97,357.177 1556.97,360.198 1558.97,363.225 1560.97,366.258 1562.97,369.296 1564.97,372.34 1566.97,375.389 1568.97,378.444 1570.97,381.503 1572.97,384.567 1574.97,387.636 1576.97,390.709 1578.96,393.786 1580.96,396.868 1582.96,399.953 1584.96,403.043 1586.96,406.136 1588.96,409.232 1590.96,412.332 1592.96,415.435 1594.96,418.541 1596.96,421.65 1598.96,424.762 1600.96,427.876 1602.96,430.993 1604.96,434.112 1606.96,437.233 1608.96,440.356 1610.96,443.481 1612.96,446.608 1614.96,449.737 1616.96,452.866 1618.96,455.998 1620.96,459.13 1622.96,462.263 1624.96,465.398 1626.96,468.533 1628.96,471.668 1630.95,474.805 1632.95,477.941 1634.95,481.078 1636.95,484.215 1638.95,487.352 1640.95,490.489 1642.95,493.626 1644.95,496.763 1646.95,499.899 1648.95,503.034 1650.95,506.169 1652.95,509.303 1654.95,512.436 1656.95,515.568 1658.95,518.699 1660.95,521.829 1662.95,524.957 1664.95,528.084 1666.95,531.209 1668.95,534.333 1670.95,537.455 1672.95,540.575 1674.95,543.694 1676.95,546.81 1678.95,549.924 1680.95,553.036 1682.94,556.145 1684.94,559.252 1686.94,562.357 1688.94,565.458 1690.94,568.558 1692.94,571.654 1694.94,574.748 1696.94,577.838 1698.94,580.926 1700.94,584.01 1702.94,587.092 1704.94,590.169 1706.94,593.244 1708.94,596.315 1710.94,599.383 1712.94,602.447 1714.94,605.507 1716.94,608.564 1718.94,611.617 1720.94,614.666 1722.94,617.711 1724.94,620.752 1726.94,623.789 1728.94,626.822 1730.94,629.85 1732.94,632.874 1734.93,635.894 1736.93,638.91 1738.93,641.921 1740.93,644.927 1742.93,647.929 1744.93,650.926 1746.93,653.919 1748.93,656.906 1750.93,659.889 1752.93,662.867 1754.93,665.84 1756.93,668.809 1758.93,671.772 1760.93,674.73 1762.93,677.682 1764.93,680.63 1766.93,683.573 1768.93,686.51 1770.93,689.441 1772.93,692.368 1774.93,695.289 1776.93,698.204 1778.93,701.114 1780.93,704.019 1782.93,706.918 1784.93,709.811 1786.92,712.699 1788.92,715.581 1790.92,718.457 1792.92,721.327 1794.92,724.192 1796.92,727.05 1798.92,729.903 1800.92,732.75 1802.92,735.591 1804.92,738.426 1806.92,741.255 1808.92,744.078 1810.92,746.895 1812.92,749.705 1814.92,752.51 1816.92,755.308 1818.92,758.1 1820.92,760.886 1822.92,763.666 1824.92,766.44 1826.92,769.207 1828.92,771.968 1830.92,774.722 1832.92,777.47 1834.92,780.212 1836.92,782.947 1838.91,785.676 1840.91,788.399 1842.91,791.115 1844.91,793.824 1846.91,796.527 1848.91,799.224 1850.91,801.914 1852.91,804.597 1854.91,807.274 1856.91,809.944 1858.91,812.608 1860.91,815.265 1862.91,817.915 1864.91,820.559 1866.91,823.196 1868.91,825.827 1870.91,828.45 1872.91,831.067 1874.91,833.678 1876.91,836.281 1878.91,838.878 1880.91,841.469 1882.91,844.052 1884.91,846.629 1886.91,849.199 1888.91,851.762 1890.9,854.319 1892.9,856.868 1894.9,859.411 1896.9,861.947 1898.9,864.477 1900.9,866.999 1902.9,869.515 1904.9,872.024 1906.9,874.526 1908.9,877.021 1910.9,879.51 1912.9,881.991 1914.9,884.466 1916.9,886.934 1918.9,889.395 1920.9,891.85 1922.9,894.297 1924.9,896.738 1926.9,899.172 1928.9,901.599 1930.9,904.02 1932.9,906.433 1934.9,908.84 1936.9,911.24 1938.9,913.633 1940.9,916.019 1942.89,918.398 1944.89,920.771 1946.89,923.137 1948.89,925.496 1950.89,927.848 1952.89,930.193 1954.89,932.532 1956.89,934.864 1958.89,937.189 1960.89,939.507 1962.89,941.819 1964.89,944.124 1966.89,946.422 1968.89,948.713 1970.89,950.998 1972.89,953.276 1974.89,955.547 1976.89,957.811 1978.89,960.069 1980.89,962.32 1982.89,964.564 1984.89,966.802 1986.89,969.033 1988.89,971.257 1990.89,973.475 1992.89,975.685 1994.88,977.89 1996.88,980.087 1998.88,982.278 2000.88,984.463 2002.88,986.641 2004.88,988.812 2006.88,990.977 2008.88,993.135 2010.88,995.286 2012.88,997.431 2014.88,999.57 2016.88,1001.7 2018.88,1003.83 2020.88,1005.95 2022.88,1008.06 2024.88,1010.16 2026.88,1012.26 2028.88,1014.36 2030.88,1016.44 2032.88,1018.52 2034.88,1020.6 2036.88,1022.66 2038.88,1024.72 2040.88,1026.78 2042.88,1028.83 2044.88,1030.87 2046.87,1032.9 2048.87,1034.93 2050.87,1036.96 2052.87,1038.97 2054.87,1040.98 2056.87,1042.99 2058.87,1044.98 2060.87,1046.98 2062.87,1048.96 2064.87,1050.94 2066.87,1052.91 2068.87,1054.88 2070.87,1056.84 2072.87,1058.79 2074.87,1060.74 2076.87,1062.68 2078.87,1064.62 2080.87,1066.55 2082.87,1068.47 2084.87,1070.39 2086.87,1072.3 2088.87,1074.21 2090.87,1076.11 2092.87,1078 2094.87,1079.89 2096.87,1081.77 2098.86,1083.64 2100.86,1085.51 2102.86,1087.38 2104.86,1089.23 2106.86,1091.08 2108.86,1092.93 2110.86,1094.77 2112.86,1096.6 2114.86,1098.43 2116.86,1100.25 2118.86,1102.07 2120.86,1103.88 2122.86,1105.69 2124.86,1107.48 2126.86,1109.28 2128.86,1111.07 2130.86,1112.85 2132.86,1114.62 2134.86,1116.39 2136.86,1118.16 2138.86,1119.92 2140.86,1121.67 2142.86,1123.42 2144.86,1125.16 2146.86,1126.9 2148.86,1128.63 2150.85,1130.35 2152.85,1132.07 2154.85,1133.79 2156.85,1135.5 2158.85,1137.2 2160.85,1138.9 2162.85,1140.59 2164.85,1142.28 2166.85,1143.96 2168.85,1145.64 2170.85,1147.31 2172.85,1148.97 2174.85,1150.63 2176.85,1152.29 2178.85,1153.94 2180.85,1155.58 2182.85,1157.22 2184.85,1158.85 2186.85,1160.48 2188.85,1162.11 2190.85,1163.72 2192.85,1165.34 2194.85,1166.94 2196.85,1168.54 2198.85,1170.14 2200.85,1171.73 2202.84,1173.32 2204.84,1174.9 2206.84,1176.48 2208.84,1178.05 2210.84,1179.62 2212.84,1181.18 2214.84,1182.73 2216.84,1184.28 2218.84,1185.83 2220.84,1187.37 2222.84,1188.91 2224.84,1190.44 2226.84,1191.97 2228.84,1193.49 2230.84,1195 2232.84,1196.51 2234.84,1198.02 2236.84,1199.52 2238.84,1201.02 2240.84,1202.51 2242.84,1204 2244.84,1205.48 2246.84,1206.96 2248.84,1208.43 2250.84,1209.9 2252.84,1211.36 2254.83,1212.82 2256.83,1214.28 2258.83,1215.73 2260.83,1217.17 2262.83,1218.61 2264.83,1220.05 2266.83,1221.48 2268.83,1222.9 2270.83,1224.33 2272.83,1225.74 2274.83,1227.16 2276.83,1228.56 2278.83,1229.97 2280.83,1231.37 2282.83,1232.76 2284.83,1234.15 2286.83,1235.54 2288.83,1236.92 2290.83,1238.29 2292.83,1239.66 "/>
<path clip-path="url(#clip160)" d="M2018 196.789 L2282.17 196.789 L2282.17 93.1086 L2018 93.1086  Z" fill="#ffffff" fill-rule="evenodd" fill-opacity="1"/>
<polyline clip-path="url(#clip160)" style="stroke:#000000; stroke-linecap:round; stroke-linejoin:round; stroke-width:4; stroke-opacity:1; fill:none" points="2018,196.789 2282.17,196.789 2282.17,93.1086 2018,93.1086 2018,196.789 "/>
<polyline clip-path="url(#clip160)" style="stroke:#009af9; stroke-linecap:round; stroke-linejoin:round; stroke-width:4; stroke-opacity:1; fill:none" points="2041.52,144.949 2182.69,144.949 "/>
<path clip-path="url(#clip160)" d="M2220.06 164.636 Q2218.25 169.266 2216.54 170.678 Q2214.83 172.09 2211.96 172.09 L2208.55 172.09 L2208.55 168.525 L2211.05 168.525 Q2212.81 168.525 2213.79 167.692 Q2214.76 166.858 2215.94 163.756 L2216.7 161.812 L2206.22 136.303 L2210.73 136.303 L2218.83 156.581 L2226.93 136.303 L2231.45 136.303 L2220.06 164.636 Z" fill="#000000" fill-rule="nonzero" fill-opacity="1" /><path clip-path="url(#clip160)" d="M2238.74 158.293 L2246.38 158.293 L2246.38 131.928 L2238.07 133.595 L2238.07 129.335 L2246.33 127.669 L2251.01 127.669 L2251.01 158.293 L2258.65 158.293 L2258.65 162.229 L2238.74 162.229 L2238.74 158.293 Z" fill="#000000" fill-rule="nonzero" fill-opacity="1" /></svg>
