<?xml version="1.0" encoding="utf-8"?>
<svg xmlns="http://www.w3.org/2000/svg" xmlns:xlink="http://www.w3.org/1999/xlink" width="600" height="400" viewBox="0 0 2400 1600">
<defs>
  <clipPath id="clip870">
    <rect x="0" y="0" width="2400" height="1600"/>
  </clipPath>
</defs>
<path clip-path="url(#clip870)" d="M0 1600 L2400 1600 L2400 0 L0 0  Z" fill="#ffffff" fill-rule="evenodd" fill-opacity="1"/>
<defs>
  <clipPath id="clip871">
    <rect x="480" y="0" width="1681" height="1600"/>
  </clipPath>
</defs>
<path clip-path="url(#clip870)" d="M262.551 1423.18 L2352.76 1423.18 L2352.76 47.2441 L262.551 47.2441  Z" fill="#ffffff" fill-rule="evenodd" fill-opacity="1"/>
<defs>
  <clipPath id="clip872">
    <rect x="262" y="47" width="2091" height="1377"/>
  </clipPath>
</defs>
<polyline clip-path="url(#clip872)" style="stroke:#000000; stroke-linecap:round; stroke-linejoin:round; stroke-width:2; stroke-opacity:0.1; fill:none" points="518.897,1423.18 518.897,47.2441 "/>
<polyline clip-path="url(#clip872)" style="stroke:#000000; stroke-linecap:round; stroke-linejoin:round; stroke-width:2; stroke-opacity:0.1; fill:none" points="913.275,1423.18 913.275,47.2441 "/>
<polyline clip-path="url(#clip872)" style="stroke:#000000; stroke-linecap:round; stroke-linejoin:round; stroke-width:2; stroke-opacity:0.1; fill:none" points="1307.65,1423.18 1307.65,47.2441 "/>
<polyline clip-path="url(#clip872)" style="stroke:#000000; stroke-linecap:round; stroke-linejoin:round; stroke-width:2; stroke-opacity:0.1; fill:none" points="1702.03,1423.18 1702.03,47.2441 "/>
<polyline clip-path="url(#clip872)" style="stroke:#000000; stroke-linecap:round; stroke-linejoin:round; stroke-width:2; stroke-opacity:0.1; fill:none" points="2096.41,1423.18 2096.41,47.2441 "/>
<polyline clip-path="url(#clip872)" style="stroke:#000000; stroke-linecap:round; stroke-linejoin:round; stroke-width:2; stroke-opacity:0.1; fill:none" points="262.551,1388.64 2352.76,1388.64 "/>
<polyline clip-path="url(#clip872)" style="stroke:#000000; stroke-linecap:round; stroke-linejoin:round; stroke-width:2; stroke-opacity:0.1; fill:none" points="262.551,1102.03 2352.76,1102.03 "/>
<polyline clip-path="url(#clip872)" style="stroke:#000000; stroke-linecap:round; stroke-linejoin:round; stroke-width:2; stroke-opacity:0.1; fill:none" points="262.551,815.413 2352.76,815.413 "/>
<polyline clip-path="url(#clip872)" style="stroke:#000000; stroke-linecap:round; stroke-linejoin:round; stroke-width:2; stroke-opacity:0.1; fill:none" points="262.551,528.8 2352.76,528.8 "/>
<polyline clip-path="url(#clip872)" style="stroke:#000000; stroke-linecap:round; stroke-linejoin:round; stroke-width:2; stroke-opacity:0.1; fill:none" points="262.551,242.188 2352.76,242.188 "/>
<polyline clip-path="url(#clip870)" style="stroke:#000000; stroke-linecap:round; stroke-linejoin:round; stroke-width:4; stroke-opacity:1; fill:none" points="262.551,1423.18 2352.76,1423.18 "/>
<polyline clip-path="url(#clip870)" style="stroke:#000000; stroke-linecap:round; stroke-linejoin:round; stroke-width:4; stroke-opacity:1; fill:none" points="518.897,1423.18 518.897,1404.28 "/>
<polyline clip-path="url(#clip870)" style="stroke:#000000; stroke-linecap:round; stroke-linejoin:round; stroke-width:4; stroke-opacity:1; fill:none" points="913.275,1423.18 913.275,1404.28 "/>
<polyline clip-path="url(#clip870)" style="stroke:#000000; stroke-linecap:round; stroke-linejoin:round; stroke-width:4; stroke-opacity:1; fill:none" points="1307.65,1423.18 1307.65,1404.28 "/>
<polyline clip-path="url(#clip870)" style="stroke:#000000; stroke-linecap:round; stroke-linejoin:round; stroke-width:4; stroke-opacity:1; fill:none" points="1702.03,1423.18 1702.03,1404.28 "/>
<polyline clip-path="url(#clip870)" style="stroke:#000000; stroke-linecap:round; stroke-linejoin:round; stroke-width:4; stroke-opacity:1; fill:none" points="2096.41,1423.18 2096.41,1404.28 "/>
<path clip-path="url(#clip870)" d="M474.974 1481.64 L491.293 1481.64 L491.293 1485.58 L469.349 1485.58 L469.349 1481.64 Q472.011 1478.89 476.594 1474.26 Q481.201 1469.61 482.381 1468.27 Q484.626 1465.74 485.506 1464.01 Q486.409 1462.25 486.409 1460.56 Q486.409 1457.8 484.464 1456.07 Q482.543 1454.33 479.441 1454.33 Q477.242 1454.33 474.789 1455.09 Q472.358 1455.86 469.58 1457.41 L469.58 1452.69 Q472.404 1451.55 474.858 1450.97 Q477.312 1450.39 479.349 1450.39 Q484.719 1450.39 487.913 1453.08 Q491.108 1455.77 491.108 1460.26 Q491.108 1462.39 490.298 1464.31 Q489.511 1466.2 487.404 1468.8 Q486.825 1469.47 483.724 1472.69 Q480.622 1475.88 474.974 1481.64 Z" fill="#000000" fill-rule="nonzero" fill-opacity="1" /><path clip-path="url(#clip870)" d="M501.247 1484.86 L501.247 1480.6 Q503.006 1481.44 504.812 1481.88 Q506.617 1482.32 508.353 1482.32 Q512.983 1482.32 515.413 1479.21 Q517.867 1476.09 518.214 1469.75 Q516.872 1471.74 514.811 1472.8 Q512.751 1473.87 510.251 1473.87 Q505.066 1473.87 502.034 1470.74 Q499.025 1467.59 499.025 1462.15 Q499.025 1456.83 502.173 1453.61 Q505.321 1450.39 510.552 1450.39 Q516.548 1450.39 519.696 1455 Q522.867 1459.58 522.867 1468.33 Q522.867 1476.51 518.978 1481.39 Q515.112 1486.25 508.561 1486.25 Q506.802 1486.25 504.997 1485.9 Q503.191 1485.56 501.247 1484.86 M510.552 1470.21 Q513.7 1470.21 515.529 1468.06 Q517.381 1465.9 517.381 1462.15 Q517.381 1458.43 515.529 1456.27 Q513.7 1454.1 510.552 1454.1 Q507.404 1454.1 505.552 1456.27 Q503.724 1458.43 503.724 1462.15 Q503.724 1465.9 505.552 1468.06 Q507.404 1470.21 510.552 1470.21 Z" fill="#000000" fill-rule="nonzero" fill-opacity="1" /><path clip-path="url(#clip870)" d="M531.27 1479.7 L536.154 1479.7 L536.154 1485.58 L531.27 1485.58 L531.27 1479.7 Z" fill="#000000" fill-rule="nonzero" fill-opacity="1" /><path clip-path="url(#clip870)" d="M556.918 1466.44 Q553.77 1466.44 551.918 1468.59 Q550.089 1470.74 550.089 1474.49 Q550.089 1478.22 551.918 1480.39 Q553.77 1482.55 556.918 1482.55 Q560.066 1482.55 561.895 1480.39 Q563.746 1478.22 563.746 1474.49 Q563.746 1470.74 561.895 1468.59 Q560.066 1466.44 556.918 1466.44 M566.2 1451.78 L566.2 1456.04 Q564.441 1455.21 562.635 1454.77 Q560.853 1454.33 559.094 1454.33 Q554.464 1454.33 552.01 1457.45 Q549.58 1460.58 549.233 1466.9 Q550.598 1464.89 552.658 1463.82 Q554.719 1462.73 557.195 1462.73 Q562.404 1462.73 565.413 1465.9 Q568.445 1469.05 568.445 1474.49 Q568.445 1479.82 565.297 1483.03 Q562.149 1486.25 556.918 1486.25 Q550.922 1486.25 547.751 1481.67 Q544.58 1477.06 544.58 1468.33 Q544.58 1460.14 548.469 1455.28 Q552.358 1450.39 558.908 1450.39 Q560.668 1450.39 562.45 1450.74 Q564.256 1451.09 566.2 1451.78 Z" fill="#000000" fill-rule="nonzero" fill-opacity="1" /><path clip-path="url(#clip870)" d="M869.479 1481.64 L885.799 1481.64 L885.799 1485.58 L863.854 1485.58 L863.854 1481.64 Q866.516 1478.89 871.1 1474.26 Q875.706 1469.61 876.887 1468.27 Q879.132 1465.74 880.012 1464.01 Q880.914 1462.25 880.914 1460.56 Q880.914 1457.8 878.97 1456.07 Q877.049 1454.33 873.947 1454.33 Q871.748 1454.33 869.294 1455.09 Q866.864 1455.86 864.086 1457.41 L864.086 1452.69 Q866.91 1451.55 869.364 1450.97 Q871.817 1450.39 873.854 1450.39 Q879.225 1450.39 882.419 1453.08 Q885.613 1455.77 885.613 1460.26 Q885.613 1462.39 884.803 1464.31 Q884.016 1466.2 881.91 1468.8 Q881.331 1469.47 878.229 1472.69 Q875.127 1475.88 869.479 1481.64 Z" fill="#000000" fill-rule="nonzero" fill-opacity="1" /><path clip-path="url(#clip870)" d="M895.752 1484.86 L895.752 1480.6 Q897.512 1481.44 899.317 1481.88 Q901.123 1482.32 902.859 1482.32 Q907.488 1482.32 909.919 1479.21 Q912.373 1476.09 912.72 1469.75 Q911.377 1471.74 909.317 1472.8 Q907.257 1473.87 904.757 1473.87 Q899.572 1473.87 896.539 1470.74 Q893.53 1467.59 893.53 1462.15 Q893.53 1456.83 896.678 1453.61 Q899.826 1450.39 905.058 1450.39 Q911.053 1450.39 914.201 1455 Q917.373 1459.58 917.373 1468.33 Q917.373 1476.51 913.484 1481.39 Q909.618 1486.25 903.067 1486.25 Q901.308 1486.25 899.502 1485.9 Q897.697 1485.56 895.752 1484.86 M905.058 1470.21 Q908.206 1470.21 910.035 1468.06 Q911.886 1465.9 911.886 1462.15 Q911.886 1458.43 910.035 1456.27 Q908.206 1454.1 905.058 1454.1 Q901.91 1454.1 900.058 1456.27 Q898.229 1458.43 898.229 1462.15 Q898.229 1465.9 900.058 1468.06 Q901.91 1470.21 905.058 1470.21 Z" fill="#000000" fill-rule="nonzero" fill-opacity="1" /><path clip-path="url(#clip870)" d="M925.775 1479.7 L930.659 1479.7 L930.659 1485.58 L925.775 1485.58 L925.775 1479.7 Z" fill="#000000" fill-rule="nonzero" fill-opacity="1" /><path clip-path="url(#clip870)" d="M950.845 1469.17 Q947.511 1469.17 945.59 1470.95 Q943.692 1472.73 943.692 1475.86 Q943.692 1478.98 945.59 1480.77 Q947.511 1482.55 950.845 1482.55 Q954.178 1482.55 956.099 1480.77 Q958.02 1478.96 958.02 1475.86 Q958.02 1472.73 956.099 1470.95 Q954.201 1469.17 950.845 1469.17 M946.169 1467.18 Q943.159 1466.44 941.47 1464.38 Q939.803 1462.32 939.803 1459.35 Q939.803 1455.21 942.743 1452.8 Q945.706 1450.39 950.845 1450.39 Q956.007 1450.39 958.946 1452.8 Q961.886 1455.21 961.886 1459.35 Q961.886 1462.32 960.196 1464.38 Q958.53 1466.44 955.544 1467.18 Q958.923 1467.96 960.798 1470.26 Q962.696 1472.55 962.696 1475.86 Q962.696 1480.88 959.618 1483.57 Q956.562 1486.25 950.845 1486.25 Q945.127 1486.25 942.048 1483.57 Q938.993 1480.88 938.993 1475.86 Q938.993 1472.55 940.891 1470.26 Q942.789 1467.96 946.169 1467.18 M944.456 1459.79 Q944.456 1462.48 946.122 1463.98 Q947.812 1465.49 950.845 1465.49 Q953.854 1465.49 955.544 1463.98 Q957.257 1462.48 957.257 1459.79 Q957.257 1457.11 955.544 1455.6 Q953.854 1454.1 950.845 1454.1 Q947.812 1454.1 946.122 1455.6 Q944.456 1457.11 944.456 1459.79 Z" fill="#000000" fill-rule="nonzero" fill-opacity="1" /><path clip-path="url(#clip870)" d="M1273.88 1466.95 Q1277.24 1467.66 1279.11 1469.93 Q1281.01 1472.2 1281.01 1475.53 Q1281.01 1480.65 1277.49 1483.45 Q1273.97 1486.25 1267.49 1486.25 Q1265.32 1486.25 1263 1485.81 Q1260.71 1485.39 1258.26 1484.54 L1258.26 1480.02 Q1260.2 1481.16 1262.51 1481.74 Q1264.83 1482.32 1267.35 1482.32 Q1271.75 1482.32 1274.04 1480.58 Q1276.36 1478.84 1276.36 1475.53 Q1276.36 1472.48 1274.2 1470.77 Q1272.08 1469.03 1268.26 1469.03 L1264.23 1469.03 L1264.23 1465.19 L1268.44 1465.19 Q1271.89 1465.19 1273.72 1463.82 Q1275.55 1462.43 1275.55 1459.84 Q1275.55 1457.18 1273.65 1455.77 Q1271.77 1454.33 1268.26 1454.33 Q1266.33 1454.33 1264.14 1454.75 Q1261.94 1455.16 1259.3 1456.04 L1259.3 1451.88 Q1261.96 1451.14 1264.27 1450.77 Q1266.61 1450.39 1268.67 1450.39 Q1274 1450.39 1277.1 1452.83 Q1280.2 1455.23 1280.2 1459.35 Q1280.2 1462.22 1278.56 1464.21 Q1276.91 1466.18 1273.88 1466.95 Z" fill="#000000" fill-rule="nonzero" fill-opacity="1" /><path clip-path="url(#clip870)" d="M1299.88 1454.1 Q1296.26 1454.1 1294.44 1457.66 Q1292.63 1461.2 1292.63 1468.33 Q1292.63 1475.44 1294.44 1479.01 Q1296.26 1482.55 1299.88 1482.55 Q1303.51 1482.55 1305.32 1479.01 Q1307.14 1475.44 1307.14 1468.33 Q1307.14 1461.2 1305.32 1457.66 Q1303.51 1454.1 1299.88 1454.1 M1299.88 1450.39 Q1305.69 1450.39 1308.74 1455 Q1311.82 1459.58 1311.82 1468.33 Q1311.82 1477.06 1308.74 1481.67 Q1305.69 1486.25 1299.88 1486.25 Q1294.07 1486.25 1290.99 1481.67 Q1287.93 1477.06 1287.93 1468.33 Q1287.93 1459.58 1290.99 1455 Q1294.07 1450.39 1299.88 1450.39 Z" fill="#000000" fill-rule="nonzero" fill-opacity="1" /><path clip-path="url(#clip870)" d="M1320.04 1479.7 L1324.92 1479.7 L1324.92 1485.58 L1320.04 1485.58 L1320.04 1479.7 Z" fill="#000000" fill-rule="nonzero" fill-opacity="1" /><path clip-path="url(#clip870)" d="M1345.11 1454.1 Q1341.5 1454.1 1339.67 1457.66 Q1337.86 1461.2 1337.86 1468.33 Q1337.86 1475.44 1339.67 1479.01 Q1341.5 1482.55 1345.11 1482.55 Q1348.74 1482.55 1350.55 1479.01 Q1352.38 1475.44 1352.38 1468.33 Q1352.38 1461.2 1350.55 1457.66 Q1348.74 1454.1 1345.11 1454.1 M1345.11 1450.39 Q1350.92 1450.39 1353.97 1455 Q1357.05 1459.58 1357.05 1468.33 Q1357.05 1477.06 1353.97 1481.67 Q1350.92 1486.25 1345.11 1486.25 Q1339.3 1486.25 1336.22 1481.67 Q1333.16 1477.06 1333.16 1468.33 Q1333.16 1459.58 1336.22 1455 Q1339.3 1450.39 1345.11 1450.39 Z" fill="#000000" fill-rule="nonzero" fill-opacity="1" /><path clip-path="url(#clip870)" d="M1669.06 1466.95 Q1672.41 1467.66 1674.29 1469.93 Q1676.19 1472.2 1676.19 1475.53 Q1676.19 1480.65 1672.67 1483.45 Q1669.15 1486.25 1662.67 1486.25 Q1660.49 1486.25 1658.18 1485.81 Q1655.89 1485.39 1653.43 1484.54 L1653.43 1480.02 Q1655.38 1481.16 1657.69 1481.74 Q1660.01 1482.32 1662.53 1482.32 Q1666.93 1482.32 1669.22 1480.58 Q1671.53 1478.84 1671.53 1475.53 Q1671.53 1472.48 1669.38 1470.77 Q1667.25 1469.03 1663.43 1469.03 L1659.4 1469.03 L1659.4 1465.19 L1663.62 1465.19 Q1667.07 1465.19 1668.9 1463.82 Q1670.72 1462.43 1670.72 1459.84 Q1670.72 1457.18 1668.83 1455.77 Q1666.95 1454.33 1663.43 1454.33 Q1661.51 1454.33 1659.31 1454.75 Q1657.11 1455.16 1654.47 1456.04 L1654.47 1451.88 Q1657.14 1451.14 1659.45 1450.77 Q1661.79 1450.39 1663.85 1450.39 Q1669.17 1450.39 1672.28 1452.83 Q1675.38 1455.23 1675.38 1459.35 Q1675.38 1462.22 1673.73 1464.21 Q1672.09 1466.18 1669.06 1466.95 Z" fill="#000000" fill-rule="nonzero" fill-opacity="1" /><path clip-path="url(#clip870)" d="M1695.05 1454.1 Q1691.44 1454.1 1689.61 1457.66 Q1687.81 1461.2 1687.81 1468.33 Q1687.81 1475.44 1689.61 1479.01 Q1691.44 1482.55 1695.05 1482.55 Q1698.69 1482.55 1700.49 1479.01 Q1702.32 1475.44 1702.32 1468.33 Q1702.32 1461.2 1700.49 1457.66 Q1698.69 1454.1 1695.05 1454.1 M1695.05 1450.39 Q1700.86 1450.39 1703.92 1455 Q1707 1459.58 1707 1468.33 Q1707 1477.06 1703.92 1481.67 Q1700.86 1486.25 1695.05 1486.25 Q1689.24 1486.25 1686.16 1481.67 Q1683.11 1477.06 1683.11 1468.33 Q1683.11 1459.58 1686.16 1455 Q1689.24 1450.39 1695.05 1450.39 Z" fill="#000000" fill-rule="nonzero" fill-opacity="1" /><path clip-path="url(#clip870)" d="M1715.21 1479.7 L1720.1 1479.7 L1720.1 1485.58 L1715.21 1485.58 L1715.21 1479.7 Z" fill="#000000" fill-rule="nonzero" fill-opacity="1" /><path clip-path="url(#clip870)" d="M1734.31 1481.64 L1750.63 1481.64 L1750.63 1485.58 L1728.69 1485.58 L1728.69 1481.64 Q1731.35 1478.89 1735.93 1474.26 Q1740.54 1469.61 1741.72 1468.27 Q1743.96 1465.74 1744.84 1464.01 Q1745.75 1462.25 1745.75 1460.56 Q1745.75 1457.8 1743.8 1456.07 Q1741.88 1454.33 1738.78 1454.33 Q1736.58 1454.33 1734.13 1455.09 Q1731.7 1455.86 1728.92 1457.41 L1728.92 1452.69 Q1731.74 1451.55 1734.2 1450.97 Q1736.65 1450.39 1738.69 1450.39 Q1744.06 1450.39 1747.25 1453.08 Q1750.45 1455.77 1750.45 1460.26 Q1750.45 1462.39 1749.64 1464.31 Q1748.85 1466.2 1746.74 1468.8 Q1746.16 1469.47 1743.06 1472.69 Q1739.96 1475.88 1734.31 1481.64 Z" fill="#000000" fill-rule="nonzero" fill-opacity="1" /><path clip-path="url(#clip870)" d="M2062.39 1466.95 Q2065.75 1467.66 2067.63 1469.93 Q2069.52 1472.2 2069.52 1475.53 Q2069.52 1480.65 2066.01 1483.45 Q2062.49 1486.25 2056.01 1486.25 Q2053.83 1486.25 2051.51 1485.81 Q2049.22 1485.39 2046.77 1484.54 L2046.77 1480.02 Q2048.71 1481.16 2051.03 1481.74 Q2053.34 1482.32 2055.87 1482.32 Q2060.26 1482.32 2062.56 1480.58 Q2064.87 1478.84 2064.87 1475.53 Q2064.87 1472.48 2062.72 1470.77 Q2060.59 1469.03 2056.77 1469.03 L2052.74 1469.03 L2052.74 1465.19 L2056.95 1465.19 Q2060.4 1465.19 2062.23 1463.82 Q2064.06 1462.43 2064.06 1459.84 Q2064.06 1457.18 2062.16 1455.77 Q2060.29 1454.33 2056.77 1454.33 Q2054.85 1454.33 2052.65 1454.75 Q2050.45 1455.16 2047.81 1456.04 L2047.81 1451.88 Q2050.47 1451.14 2052.79 1450.77 Q2055.13 1450.39 2057.19 1450.39 Q2062.51 1450.39 2065.61 1452.83 Q2068.71 1455.23 2068.71 1459.35 Q2068.71 1462.22 2067.07 1464.21 Q2065.43 1466.18 2062.39 1466.95 Z" fill="#000000" fill-rule="nonzero" fill-opacity="1" /><path clip-path="url(#clip870)" d="M2088.39 1454.1 Q2084.78 1454.1 2082.95 1457.66 Q2081.14 1461.2 2081.14 1468.33 Q2081.14 1475.44 2082.95 1479.01 Q2084.78 1482.55 2088.39 1482.55 Q2092.02 1482.55 2093.83 1479.01 Q2095.66 1475.44 2095.66 1468.33 Q2095.66 1461.2 2093.83 1457.66 Q2092.02 1454.1 2088.39 1454.1 M2088.39 1450.39 Q2094.2 1450.39 2097.25 1455 Q2100.33 1459.58 2100.33 1468.33 Q2100.33 1477.06 2097.25 1481.67 Q2094.2 1486.25 2088.39 1486.25 Q2082.58 1486.25 2079.5 1481.67 Q2076.44 1477.06 2076.44 1468.33 Q2076.44 1459.58 2079.5 1455 Q2082.58 1450.39 2088.39 1450.39 Z" fill="#000000" fill-rule="nonzero" fill-opacity="1" /><path clip-path="url(#clip870)" d="M2108.55 1479.7 L2113.44 1479.7 L2113.44 1485.58 L2108.55 1485.58 L2108.55 1479.7 Z" fill="#000000" fill-rule="nonzero" fill-opacity="1" /><path clip-path="url(#clip870)" d="M2136.47 1455.09 L2124.66 1473.54 L2136.47 1473.54 L2136.47 1455.09 M2135.24 1451.02 L2141.12 1451.02 L2141.12 1473.54 L2146.05 1473.54 L2146.05 1477.43 L2141.12 1477.43 L2141.12 1485.58 L2136.47 1485.58 L2136.47 1477.43 L2120.87 1477.43 L2120.87 1472.92 L2135.24 1451.02 Z" fill="#000000" fill-rule="nonzero" fill-opacity="1" /><path clip-path="url(#clip870)" d="M1015.82 1520.52 L1043.13 1520.52 L1043.13 1525.93 L1022.25 1525.93 L1022.25 1539.94 L1041.09 1539.94 L1041.09 1545.35 L1022.25 1545.35 L1022.25 1568.04 L1015.82 1568.04 L1015.82 1520.52 Z" fill="#000000" fill-rule="nonzero" fill-opacity="1" /><path clip-path="url(#clip870)" d="M1068.97 1537.87 Q1067.98 1537.3 1066.81 1537.04 Q1065.66 1536.76 1064.26 1536.76 Q1059.3 1536.76 1056.62 1540 Q1053.98 1543.22 1053.98 1549.27 L1053.98 1568.04 L1048.09 1568.04 L1048.09 1532.4 L1053.98 1532.4 L1053.98 1537.93 Q1055.83 1534.69 1058.79 1533.13 Q1061.75 1531.54 1065.98 1531.54 Q1066.58 1531.54 1067.32 1531.63 Q1068.05 1531.7 1068.94 1531.85 L1068.97 1537.87 Z" fill="#000000" fill-rule="nonzero" fill-opacity="1" /><path clip-path="url(#clip870)" d="M1104.17 1548.76 L1104.17 1551.62 L1077.25 1551.62 Q1077.63 1557.67 1080.88 1560.85 Q1084.15 1564 1089.98 1564 Q1093.35 1564 1096.5 1563.17 Q1099.69 1562.35 1102.81 1560.69 L1102.81 1566.23 Q1099.65 1567.57 1096.34 1568.27 Q1093.03 1568.97 1089.63 1568.97 Q1081.1 1568.97 1076.1 1564 Q1071.14 1559.04 1071.14 1550.57 Q1071.14 1541.82 1075.85 1536.69 Q1080.59 1531.54 1088.61 1531.54 Q1095.8 1531.54 1099.97 1536.18 Q1104.17 1540.8 1104.17 1548.76 M1098.32 1547.04 Q1098.25 1542.23 1095.61 1539.37 Q1093 1536.5 1088.67 1536.5 Q1083.77 1536.5 1080.81 1539.27 Q1077.88 1542.04 1077.44 1547.07 L1098.32 1547.04 Z" fill="#000000" fill-rule="nonzero" fill-opacity="1" /><path clip-path="url(#clip870)" d="M1117.29 1550.25 Q1117.29 1556.71 1119.93 1560.4 Q1122.6 1564.07 1127.25 1564.07 Q1131.9 1564.07 1134.57 1560.4 Q1137.24 1556.71 1137.24 1550.25 Q1137.24 1543.79 1134.57 1540.13 Q1131.9 1536.44 1127.25 1536.44 Q1122.6 1536.44 1119.93 1540.13 Q1117.29 1543.79 1117.29 1550.25 M1137.24 1562.7 Q1135.4 1565.88 1132.56 1567.44 Q1129.76 1568.97 1125.82 1568.97 Q1119.36 1568.97 1115.28 1563.81 Q1111.24 1558.65 1111.24 1550.25 Q1111.24 1541.85 1115.28 1536.69 Q1119.36 1531.54 1125.82 1531.54 Q1129.76 1531.54 1132.56 1533.1 Q1135.4 1534.62 1137.24 1537.81 L1137.24 1532.4 L1143.1 1532.4 L1143.1 1581.6 L1137.24 1581.6 L1137.24 1562.7 Z" fill="#000000" fill-rule="nonzero" fill-opacity="1" /><path clip-path="url(#clip870)" d="M1154.56 1553.98 L1154.56 1532.4 L1160.41 1532.4 L1160.41 1553.75 Q1160.41 1558.81 1162.39 1561.36 Q1164.36 1563.87 1168.31 1563.87 Q1173.05 1563.87 1175.79 1560.85 Q1178.56 1557.83 1178.56 1552.61 L1178.56 1532.4 L1184.41 1532.4 L1184.41 1568.04 L1178.56 1568.04 L1178.56 1562.57 Q1176.42 1565.82 1173.59 1567.41 Q1170.79 1568.97 1167.07 1568.97 Q1160.92 1568.97 1157.74 1565.15 Q1154.56 1561.33 1154.56 1553.98 M1169.29 1531.54 L1169.29 1531.54 Z" fill="#000000" fill-rule="nonzero" fill-opacity="1" /><path clip-path="url(#clip870)" d="M1226.97 1548.76 L1226.97 1551.62 L1200.04 1551.62 Q1200.42 1557.67 1203.67 1560.85 Q1206.95 1564 1212.77 1564 Q1216.15 1564 1219.3 1563.17 Q1222.48 1562.35 1225.6 1560.69 L1225.6 1566.23 Q1222.45 1567.57 1219.14 1568.27 Q1215.83 1568.97 1212.42 1568.97 Q1203.89 1568.97 1198.9 1564 Q1193.93 1559.04 1193.93 1550.57 Q1193.93 1541.82 1198.64 1536.69 Q1203.38 1531.54 1211.4 1531.54 Q1218.6 1531.54 1222.77 1536.18 Q1226.97 1540.8 1226.97 1548.76 M1221.11 1547.04 Q1221.05 1542.23 1218.41 1539.37 Q1215.8 1536.5 1211.47 1536.5 Q1206.57 1536.5 1203.61 1539.27 Q1200.68 1542.04 1200.23 1547.07 L1221.11 1547.04 Z" fill="#000000" fill-rule="nonzero" fill-opacity="1" /><path clip-path="url(#clip870)" d="M1266.21 1546.53 L1266.21 1568.04 L1260.36 1568.04 L1260.36 1546.72 Q1260.36 1541.66 1258.38 1539.14 Q1256.41 1536.63 1252.46 1536.63 Q1247.72 1536.63 1244.98 1539.65 Q1242.25 1542.68 1242.25 1547.9 L1242.25 1568.04 L1236.36 1568.04 L1236.36 1532.4 L1242.25 1532.4 L1242.25 1537.93 Q1244.35 1534.72 1247.18 1533.13 Q1250.04 1531.54 1253.77 1531.54 Q1259.91 1531.54 1263.06 1535.36 Q1266.21 1539.14 1266.21 1546.53 Z" fill="#000000" fill-rule="nonzero" fill-opacity="1" /><path clip-path="url(#clip870)" d="M1303.55 1533.76 L1303.55 1539.24 Q1301.07 1537.87 1298.55 1537.2 Q1296.07 1536.5 1293.52 1536.5 Q1287.82 1536.5 1284.67 1540.13 Q1281.52 1543.73 1281.52 1550.25 Q1281.52 1556.78 1284.67 1560.4 Q1287.82 1564 1293.52 1564 Q1296.07 1564 1298.55 1563.33 Q1301.07 1562.63 1303.55 1561.26 L1303.55 1566.68 Q1301.1 1567.82 1298.46 1568.39 Q1295.85 1568.97 1292.89 1568.97 Q1284.83 1568.97 1280.09 1563.91 Q1275.35 1558.85 1275.35 1550.25 Q1275.35 1541.53 1280.12 1536.53 Q1284.93 1531.54 1293.27 1531.54 Q1295.97 1531.54 1298.55 1532.11 Q1301.13 1532.65 1303.55 1533.76 Z" fill="#000000" fill-rule="nonzero" fill-opacity="1" /><path clip-path="url(#clip870)" d="M1313.73 1532.4 L1319.59 1532.4 L1319.59 1568.04 L1313.73 1568.04 L1313.73 1532.4 M1313.73 1518.52 L1319.59 1518.52 L1319.59 1525.93 L1313.73 1525.93 L1313.73 1518.52 Z" fill="#000000" fill-rule="nonzero" fill-opacity="1" /><path clip-path="url(#clip870)" d="M1362.33 1548.76 L1362.33 1551.62 L1335.41 1551.62 Q1335.79 1557.67 1339.04 1560.85 Q1342.31 1564 1348.14 1564 Q1351.51 1564 1354.66 1563.17 Q1357.85 1562.35 1360.97 1560.69 L1360.97 1566.23 Q1357.82 1567.57 1354.51 1568.27 Q1351.19 1568.97 1347.79 1568.97 Q1339.26 1568.97 1334.26 1564 Q1329.3 1559.04 1329.3 1550.57 Q1329.3 1541.82 1334.01 1536.69 Q1338.75 1531.54 1346.77 1531.54 Q1353.96 1531.54 1358.13 1536.18 Q1362.33 1540.8 1362.33 1548.76 M1356.48 1547.04 Q1356.41 1542.23 1353.77 1539.37 Q1351.16 1536.5 1346.83 1536.5 Q1341.93 1536.5 1338.97 1539.27 Q1336.04 1542.04 1335.6 1547.07 L1356.48 1547.04 Z" fill="#000000" fill-rule="nonzero" fill-opacity="1" /><path clip-path="url(#clip870)" d="M1394.67 1533.45 L1394.67 1538.98 Q1392.19 1537.71 1389.52 1537.07 Q1386.84 1536.44 1383.98 1536.44 Q1379.62 1536.44 1377.42 1537.77 Q1375.26 1539.11 1375.26 1541.79 Q1375.26 1543.82 1376.82 1545 Q1378.38 1546.15 1383.09 1547.2 L1385.09 1547.64 Q1391.33 1548.98 1393.94 1551.43 Q1396.58 1553.85 1396.58 1558.21 Q1396.58 1563.17 1392.64 1566.07 Q1388.72 1568.97 1381.85 1568.97 Q1378.98 1568.97 1375.86 1568.39 Q1372.77 1567.85 1369.34 1566.74 L1369.34 1560.69 Q1372.58 1562.38 1375.73 1563.24 Q1378.89 1564.07 1381.97 1564.07 Q1386.11 1564.07 1388.34 1562.66 Q1390.57 1561.23 1390.57 1558.65 Q1390.57 1556.27 1388.94 1554.99 Q1387.35 1553.72 1381.91 1552.54 L1379.87 1552.07 Q1374.43 1550.92 1372.01 1548.56 Q1369.59 1546.18 1369.59 1542.04 Q1369.59 1537.01 1373.16 1534.27 Q1376.72 1531.54 1383.28 1531.54 Q1386.52 1531.54 1389.39 1532.01 Q1392.25 1532.49 1394.67 1533.45 Z" fill="#000000" fill-rule="nonzero" fill-opacity="1" /><path clip-path="url(#clip870)" d="M1426.09 1518.52 L1439.58 1518.52 L1439.58 1523.07 L1431.94 1523.07 L1431.94 1572.09 L1439.58 1572.09 L1439.58 1576.64 L1426.09 1576.64 L1426.09 1518.52 Z" fill="#000000" fill-rule="nonzero" fill-opacity="1" /><path clip-path="url(#clip870)" d="M1484.72 1561.26 L1484.72 1548.5 L1474.21 1548.5 L1474.21 1543.22 L1491.08 1543.22 L1491.08 1563.62 Q1487.36 1566.26 1482.87 1567.63 Q1478.38 1568.97 1473.29 1568.97 Q1462.15 1568.97 1455.85 1562.47 Q1449.58 1555.95 1449.58 1544.33 Q1449.58 1532.68 1455.85 1526.19 Q1462.15 1519.66 1473.29 1519.66 Q1477.94 1519.66 1482.11 1520.81 Q1486.31 1521.96 1489.84 1524.18 L1489.84 1531.03 Q1486.28 1528 1482.26 1526.48 Q1478.25 1524.95 1473.83 1524.95 Q1465.11 1524.95 1460.72 1529.82 Q1456.36 1534.69 1456.36 1544.33 Q1456.36 1553.94 1460.72 1558.81 Q1465.11 1563.68 1473.83 1563.68 Q1477.24 1563.68 1479.91 1563.11 Q1482.58 1562.51 1484.72 1561.26 Z" fill="#000000" fill-rule="nonzero" fill-opacity="1" /><path clip-path="url(#clip870)" d="M1502.83 1520.52 L1509.26 1520.52 L1509.26 1540 L1532.62 1540 L1532.62 1520.52 L1539.05 1520.52 L1539.05 1568.04 L1532.62 1568.04 L1532.62 1545.41 L1509.26 1545.41 L1509.26 1568.04 L1502.83 1568.04 L1502.83 1520.52 Z" fill="#000000" fill-rule="nonzero" fill-opacity="1" /><path clip-path="url(#clip870)" d="M1549.04 1532.4 L1576.86 1532.4 L1576.86 1537.74 L1554.83 1563.37 L1576.86 1563.37 L1576.86 1568.04 L1548.25 1568.04 L1548.25 1562.7 L1570.27 1537.07 L1549.04 1537.07 L1549.04 1532.4 Z" fill="#000000" fill-rule="nonzero" fill-opacity="1" /><path clip-path="url(#clip870)" d="M1599.49 1518.52 L1599.49 1576.64 L1585.99 1576.64 L1585.99 1572.09 L1593.6 1572.09 L1593.6 1523.07 L1585.99 1523.07 L1585.99 1518.52 L1599.49 1518.52 Z" fill="#000000" fill-rule="nonzero" fill-opacity="1" /><polyline clip-path="url(#clip870)" style="stroke:#000000; stroke-linecap:round; stroke-linejoin:round; stroke-width:4; stroke-opacity:1; fill:none" points="262.551,1423.18 262.551,47.2441 "/>
<polyline clip-path="url(#clip870)" style="stroke:#000000; stroke-linecap:round; stroke-linejoin:round; stroke-width:4; stroke-opacity:1; fill:none" points="262.551,1388.64 281.449,1388.64 "/>
<polyline clip-path="url(#clip870)" style="stroke:#000000; stroke-linecap:round; stroke-linejoin:round; stroke-width:4; stroke-opacity:1; fill:none" points="262.551,1102.03 281.449,1102.03 "/>
<polyline clip-path="url(#clip870)" style="stroke:#000000; stroke-linecap:round; stroke-linejoin:round; stroke-width:4; stroke-opacity:1; fill:none" points="262.551,815.413 281.449,815.413 "/>
<polyline clip-path="url(#clip870)" style="stroke:#000000; stroke-linecap:round; stroke-linejoin:round; stroke-width:4; stroke-opacity:1; fill:none" points="262.551,528.8 281.449,528.8 "/>
<polyline clip-path="url(#clip870)" style="stroke:#000000; stroke-linecap:round; stroke-linejoin:round; stroke-width:4; stroke-opacity:1; fill:none" points="262.551,242.188 281.449,242.188 "/>
<path clip-path="url(#clip870)" d="M214.607 1374.44 Q210.996 1374.44 209.167 1378 Q207.362 1381.54 207.362 1388.67 Q207.362 1395.78 209.167 1399.34 Q210.996 1402.89 214.607 1402.89 Q218.241 1402.89 220.047 1399.34 Q221.875 1395.78 221.875 1388.67 Q221.875 1381.54 220.047 1378 Q218.241 1374.44 214.607 1374.44 M214.607 1370.73 Q220.417 1370.73 223.473 1375.34 Q226.551 1379.92 226.551 1388.67 Q226.551 1397.4 223.473 1402.01 Q220.417 1406.59 214.607 1406.59 Q208.797 1406.59 205.718 1402.01 Q202.662 1397.4 202.662 1388.67 Q202.662 1379.92 205.718 1375.34 Q208.797 1370.73 214.607 1370.73 Z" fill="#000000" fill-rule="nonzero" fill-opacity="1" /><path clip-path="url(#clip870)" d="M148.311 1115.37 L164.63 1115.37 L164.63 1119.31 L142.686 1119.31 L142.686 1115.37 Q145.348 1112.62 149.931 1107.99 Q154.538 1103.33 155.718 1101.99 Q157.964 1099.47 158.843 1097.73 Q159.746 1095.97 159.746 1094.28 Q159.746 1091.53 157.802 1089.79 Q155.88 1088.06 152.778 1088.06 Q150.579 1088.06 148.126 1088.82 Q145.695 1089.58 142.917 1091.13 L142.917 1086.41 Q145.741 1085.28 148.195 1084.7 Q150.649 1084.12 152.686 1084.12 Q158.056 1084.12 161.251 1086.81 Q164.445 1089.49 164.445 1093.98 Q164.445 1096.11 163.635 1098.03 Q162.848 1099.93 160.741 1102.52 Q160.163 1103.19 157.061 1106.41 Q153.959 1109.61 148.311 1115.37 Z" fill="#000000" fill-rule="nonzero" fill-opacity="1" /><path clip-path="url(#clip870)" d="M174.491 1084.75 L192.848 1084.75 L192.848 1088.68 L178.774 1088.68 L178.774 1097.15 Q179.792 1096.81 180.811 1096.64 Q181.829 1096.46 182.848 1096.46 Q188.635 1096.46 192.014 1099.63 Q195.394 1102.8 195.394 1108.22 Q195.394 1113.8 191.922 1116.9 Q188.45 1119.98 182.13 1119.98 Q179.954 1119.98 177.686 1119.61 Q175.44 1119.24 173.033 1118.5 L173.033 1113.8 Q175.116 1114.93 177.339 1115.49 Q179.561 1116.04 182.038 1116.04 Q186.042 1116.04 188.38 1113.93 Q190.718 1111.83 190.718 1108.22 Q190.718 1104.61 188.38 1102.5 Q186.042 1100.39 182.038 1100.39 Q180.163 1100.39 178.288 1100.81 Q176.436 1101.23 174.491 1102.11 L174.491 1084.75 Z" fill="#000000" fill-rule="nonzero" fill-opacity="1" /><path clip-path="url(#clip870)" d="M214.607 1087.82 Q210.996 1087.82 209.167 1091.39 Q207.362 1094.93 207.362 1102.06 Q207.362 1109.17 209.167 1112.73 Q210.996 1116.27 214.607 1116.27 Q218.241 1116.27 220.047 1112.73 Q221.875 1109.17 221.875 1102.06 Q221.875 1094.93 220.047 1091.39 Q218.241 1087.82 214.607 1087.82 M214.607 1084.12 Q220.417 1084.12 223.473 1088.73 Q226.551 1093.31 226.551 1102.06 Q226.551 1110.79 223.473 1115.39 Q220.417 1119.98 214.607 1119.98 Q208.797 1119.98 205.718 1115.39 Q202.662 1110.79 202.662 1102.06 Q202.662 1093.31 205.718 1088.73 Q208.797 1084.12 214.607 1084.12 Z" fill="#000000" fill-rule="nonzero" fill-opacity="1" /><path clip-path="url(#clip870)" d="M144.329 798.133 L162.686 798.133 L162.686 802.068 L148.612 802.068 L148.612 810.54 Q149.63 810.193 150.649 810.031 Q151.667 809.846 152.686 809.846 Q158.473 809.846 161.852 813.017 Q165.232 816.188 165.232 821.605 Q165.232 827.184 161.76 830.285 Q158.288 833.364 151.968 833.364 Q149.792 833.364 147.524 832.994 Q145.279 832.623 142.871 831.883 L142.871 827.184 Q144.954 828.318 147.177 828.873 Q149.399 829.429 151.876 829.429 Q155.88 829.429 158.218 827.323 Q160.556 825.216 160.556 821.605 Q160.556 817.994 158.218 815.887 Q155.88 813.781 151.876 813.781 Q150.001 813.781 148.126 814.198 Q146.274 814.614 144.329 815.494 L144.329 798.133 Z" fill="#000000" fill-rule="nonzero" fill-opacity="1" /><path clip-path="url(#clip870)" d="M184.445 801.212 Q180.834 801.212 179.005 804.776 Q177.2 808.318 177.2 815.448 Q177.2 822.554 179.005 826.119 Q180.834 829.66 184.445 829.66 Q188.079 829.66 189.885 826.119 Q191.713 822.554 191.713 815.448 Q191.713 808.318 189.885 804.776 Q188.079 801.212 184.445 801.212 M184.445 797.508 Q190.255 797.508 193.311 802.114 Q196.389 806.698 196.389 815.448 Q196.389 824.174 193.311 828.781 Q190.255 833.364 184.445 833.364 Q178.635 833.364 175.556 828.781 Q172.501 824.174 172.501 815.448 Q172.501 806.698 175.556 802.114 Q178.635 797.508 184.445 797.508 Z" fill="#000000" fill-rule="nonzero" fill-opacity="1" /><path clip-path="url(#clip870)" d="M214.607 801.212 Q210.996 801.212 209.167 804.776 Q207.362 808.318 207.362 815.448 Q207.362 822.554 209.167 826.119 Q210.996 829.66 214.607 829.66 Q218.241 829.66 220.047 826.119 Q221.875 822.554 221.875 815.448 Q221.875 808.318 220.047 804.776 Q218.241 801.212 214.607 801.212 M214.607 797.508 Q220.417 797.508 223.473 802.114 Q226.551 806.698 226.551 815.448 Q226.551 824.174 223.473 828.781 Q220.417 833.364 214.607 833.364 Q208.797 833.364 205.718 828.781 Q202.662 824.174 202.662 815.448 Q202.662 806.698 205.718 802.114 Q208.797 797.508 214.607 797.508 Z" fill="#000000" fill-rule="nonzero" fill-opacity="1" /><path clip-path="url(#clip870)" d="M143.103 511.52 L165.325 511.52 L165.325 513.511 L152.778 546.08 L147.894 546.08 L159.7 515.456 L143.103 515.456 L143.103 511.52 Z" fill="#000000" fill-rule="nonzero" fill-opacity="1" /><path clip-path="url(#clip870)" d="M174.491 511.52 L192.848 511.52 L192.848 515.456 L178.774 515.456 L178.774 523.928 Q179.792 523.581 180.811 523.419 Q181.829 523.233 182.848 523.233 Q188.635 523.233 192.014 526.405 Q195.394 529.576 195.394 534.993 Q195.394 540.571 191.922 543.673 Q188.45 546.752 182.13 546.752 Q179.954 546.752 177.686 546.381 Q175.44 546.011 173.033 545.27 L173.033 540.571 Q175.116 541.705 177.339 542.261 Q179.561 542.817 182.038 542.817 Q186.042 542.817 188.38 540.71 Q190.718 538.604 190.718 534.993 Q190.718 531.381 188.38 529.275 Q186.042 527.168 182.038 527.168 Q180.163 527.168 178.288 527.585 Q176.436 528.002 174.491 528.881 L174.491 511.52 Z" fill="#000000" fill-rule="nonzero" fill-opacity="1" /><path clip-path="url(#clip870)" d="M214.607 514.599 Q210.996 514.599 209.167 518.164 Q207.362 521.706 207.362 528.835 Q207.362 535.942 209.167 539.506 Q210.996 543.048 214.607 543.048 Q218.241 543.048 220.047 539.506 Q221.875 535.942 221.875 528.835 Q221.875 521.706 220.047 518.164 Q218.241 514.599 214.607 514.599 M214.607 510.895 Q220.417 510.895 223.473 515.502 Q226.551 520.085 226.551 528.835 Q226.551 537.562 223.473 542.168 Q220.417 546.752 214.607 546.752 Q208.797 546.752 205.718 542.168 Q202.662 537.562 202.662 528.835 Q202.662 520.085 205.718 515.502 Q208.797 510.895 214.607 510.895 Z" fill="#000000" fill-rule="nonzero" fill-opacity="1" /><path clip-path="url(#clip870)" d="M114.931 255.533 L122.57 255.533 L122.57 229.167 L114.26 230.834 L114.26 226.575 L122.524 224.908 L127.2 224.908 L127.2 255.533 L134.839 255.533 L134.839 259.468 L114.931 259.468 L114.931 255.533 Z" fill="#000000" fill-rule="nonzero" fill-opacity="1" /><path clip-path="url(#clip870)" d="M154.283 227.987 Q150.672 227.987 148.843 231.551 Q147.038 235.093 147.038 242.223 Q147.038 249.329 148.843 252.894 Q150.672 256.436 154.283 256.436 Q157.917 256.436 159.723 252.894 Q161.552 249.329 161.552 242.223 Q161.552 235.093 159.723 231.551 Q157.917 227.987 154.283 227.987 M154.283 224.283 Q160.093 224.283 163.149 228.889 Q166.227 233.473 166.227 242.223 Q166.227 250.95 163.149 255.556 Q160.093 260.139 154.283 260.139 Q148.473 260.139 145.394 255.556 Q142.339 250.95 142.339 242.223 Q142.339 233.473 145.394 228.889 Q148.473 224.283 154.283 224.283 Z" fill="#000000" fill-rule="nonzero" fill-opacity="1" /><path clip-path="url(#clip870)" d="M184.445 227.987 Q180.834 227.987 179.005 231.551 Q177.2 235.093 177.2 242.223 Q177.2 249.329 179.005 252.894 Q180.834 256.436 184.445 256.436 Q188.079 256.436 189.885 252.894 Q191.713 249.329 191.713 242.223 Q191.713 235.093 189.885 231.551 Q188.079 227.987 184.445 227.987 M184.445 224.283 Q190.255 224.283 193.311 228.889 Q196.389 233.473 196.389 242.223 Q196.389 250.95 193.311 255.556 Q190.255 260.139 184.445 260.139 Q178.635 260.139 175.556 255.556 Q172.501 250.95 172.501 242.223 Q172.501 233.473 175.556 228.889 Q178.635 224.283 184.445 224.283 Z" fill="#000000" fill-rule="nonzero" fill-opacity="1" /><path clip-path="url(#clip870)" d="M214.607 227.987 Q210.996 227.987 209.167 231.551 Q207.362 235.093 207.362 242.223 Q207.362 249.329 209.167 252.894 Q210.996 256.436 214.607 256.436 Q218.241 256.436 220.047 252.894 Q221.875 249.329 221.875 242.223 Q221.875 235.093 220.047 231.551 Q218.241 227.987 214.607 227.987 M214.607 224.283 Q220.417 224.283 223.473 228.889 Q226.551 233.473 226.551 242.223 Q226.551 250.95 223.473 255.556 Q220.417 260.139 214.607 260.139 Q208.797 260.139 205.718 255.556 Q202.662 250.95 202.662 242.223 Q202.662 233.473 205.718 228.889 Q208.797 224.283 214.607 224.283 Z" fill="#000000" fill-rule="nonzero" fill-opacity="1" /><path clip-path="url(#clip870)" d="M41.3104 969.884 L58.7206 969.884 L58.7206 959.571 Q58.7206 954.383 56.5881 951.901 Q54.4238 949.386 49.9996 949.386 Q45.5436 949.386 43.4429 951.901 Q41.3104 954.383 41.3104 959.571 L41.3104 969.884 M21.7677 969.884 L36.0905 969.884 L36.0905 960.367 Q36.0905 955.656 34.34 953.365 Q32.5576 951.041 28.9291 951.041 Q25.3325 951.041 23.5501 953.365 Q21.7677 955.656 21.7677 960.367 L21.7677 969.884 M16.4842 976.313 L16.4842 959.89 Q16.4842 952.537 19.5397 948.559 Q22.5952 944.58 28.2289 944.58 Q32.5894 944.58 35.1675 946.617 Q37.7456 948.654 38.3822 952.601 Q39.4007 947.858 42.6472 945.248 Q45.8619 942.607 50.6998 942.607 Q57.0655 942.607 60.5348 946.935 Q64.0042 951.264 64.0042 959.253 L64.0042 976.313 L16.4842 976.313 Z" fill="#000000" fill-rule="nonzero" fill-opacity="1" /><path clip-path="url(#clip870)" d="M32.4621 918.035 Q32.4621 922.746 36.1542 925.483 Q39.8145 928.22 46.212 928.22 Q52.6095 928.22 56.3017 925.515 Q59.9619 922.778 59.9619 918.035 Q59.9619 913.356 56.2698 910.619 Q52.5777 907.882 46.212 907.882 Q39.8781 907.882 36.186 910.619 Q32.4621 913.356 32.4621 918.035 M27.4968 918.035 Q27.4968 910.396 32.4621 906.036 Q37.4273 901.675 46.212 901.675 Q54.9649 901.675 59.9619 906.036 Q64.9272 910.396 64.9272 918.035 Q64.9272 925.706 59.9619 930.066 Q54.9649 934.395 46.212 934.395 Q37.4273 934.395 32.4621 930.066 Q27.4968 925.706 27.4968 918.035 Z" fill="#000000" fill-rule="nonzero" fill-opacity="1" /><path clip-path="url(#clip870)" d="M32.4621 878.154 Q32.4621 882.865 36.1542 885.602 Q39.8145 888.339 46.212 888.339 Q52.6095 888.339 56.3017 885.634 Q59.9619 882.896 59.9619 878.154 Q59.9619 873.475 56.2698 870.738 Q52.5777 868.001 46.212 868.001 Q39.8781 868.001 36.186 870.738 Q32.4621 873.475 32.4621 878.154 M27.4968 878.154 Q27.4968 870.515 32.4621 866.155 Q37.4273 861.794 46.212 861.794 Q54.9649 861.794 59.9619 866.155 Q64.9272 870.515 64.9272 878.154 Q64.9272 885.825 59.9619 890.185 Q54.9649 894.514 46.212 894.514 Q37.4273 894.514 32.4621 890.185 Q27.4968 885.825 27.4968 878.154 Z" fill="#000000" fill-rule="nonzero" fill-opacity="1" /><path clip-path="url(#clip870)" d="M29.4065 829.361 L34.9447 829.361 Q33.6716 831.843 33.035 834.517 Q32.3984 837.191 32.3984 840.055 Q32.3984 844.416 33.7352 846.612 Q35.072 848.776 37.7456 848.776 Q39.7826 848.776 40.9603 847.217 Q42.1061 845.657 43.1565 840.946 L43.6021 838.941 Q44.9389 832.703 47.3897 830.093 Q49.8086 827.451 54.1691 827.451 Q59.1344 827.451 62.0308 831.398 Q64.9272 835.313 64.9272 842.188 Q64.9272 845.052 64.3543 848.171 Q63.8132 851.259 62.6992 854.696 L56.6518 854.696 Q58.3387 851.45 59.198 848.299 Q60.0256 845.148 60.0256 842.06 Q60.0256 837.923 58.6251 835.695 Q57.1929 833.467 54.6147 833.467 Q52.2276 833.467 50.9545 835.09 Q49.6813 836.681 48.5037 842.124 L48.0262 844.161 Q46.8804 849.604 44.5251 852.023 Q42.138 854.442 38.0002 854.442 Q32.9713 854.442 30.2341 850.877 Q27.4968 847.312 27.4968 840.755 Q27.4968 837.509 27.9743 834.644 Q28.4517 831.78 29.4065 829.361 Z" fill="#000000" fill-rule="nonzero" fill-opacity="1" /><path clip-path="url(#clip870)" d="M18.2347 812.333 L28.3562 812.333 L28.3562 800.269 L32.9077 800.269 L32.9077 812.333 L52.2594 812.333 Q56.6199 812.333 57.8613 811.155 Q59.1026 809.945 59.1026 806.285 L59.1026 800.269 L64.0042 800.269 L64.0042 806.285 Q64.0042 813.065 61.4897 815.643 Q58.9434 818.221 52.2594 818.221 L32.9077 818.221 L32.9077 822.518 L28.3562 822.518 L28.3562 818.221 L18.2347 818.221 L18.2347 812.333 Z" fill="#000000" fill-rule="nonzero" fill-opacity="1" /><path clip-path="url(#clip870)" d="M16.4842 771.592 L16.4842 744.283 L21.895 744.283 L21.895 765.163 L35.8996 765.163 L35.8996 746.32 L41.3104 746.32 L41.3104 765.163 L64.0042 765.163 L64.0042 771.592 L16.4842 771.592 Z" fill="#000000" fill-rule="nonzero" fill-opacity="1" /><path clip-path="url(#clip870)" d="M46.0847 724.136 Q46.0847 731.233 47.7079 733.971 Q49.3312 736.708 53.2461 736.708 Q56.3653 736.708 58.2114 734.671 Q60.0256 732.602 60.0256 729.069 Q60.0256 724.199 56.5881 721.271 Q53.1188 718.311 47.3897 718.311 L46.0847 718.311 L46.0847 724.136 M43.6657 712.455 L64.0042 712.455 L64.0042 718.311 L58.5933 718.311 Q61.8398 720.316 63.3994 723.308 Q64.9272 726.3 64.9272 730.629 Q64.9272 736.103 61.8716 739.35 Q58.7843 742.564 53.6281 742.564 Q47.6125 742.564 44.5569 738.554 Q41.5014 734.512 41.5014 726.523 L41.5014 718.311 L40.9285 718.311 Q36.8862 718.311 34.6901 720.985 Q32.4621 723.626 32.4621 728.432 Q32.4621 731.488 33.1941 734.384 Q33.9262 737.281 35.3903 739.954 L29.9795 739.954 Q28.7381 736.74 28.1334 733.716 Q27.4968 730.692 27.4968 727.828 Q27.4968 720.093 31.5072 716.274 Q35.5176 712.455 43.6657 712.455 Z" fill="#000000" fill-rule="nonzero" fill-opacity="1" /><path clip-path="url(#clip870)" d="M29.7248 674.738 L35.1993 674.738 Q33.8307 677.22 33.1623 679.735 Q32.4621 682.217 32.4621 684.764 Q32.4621 690.461 36.0905 693.612 Q39.6872 696.763 46.212 696.763 Q52.7369 696.763 56.3653 693.612 Q59.9619 690.461 59.9619 684.764 Q59.9619 682.217 59.2935 679.735 Q58.5933 677.22 57.2247 674.738 L62.6355 674.738 Q63.7814 677.189 64.3543 679.83 Q64.9272 682.44 64.9272 685.4 Q64.9272 693.453 59.8664 698.195 Q54.8057 702.938 46.212 702.938 Q37.491 702.938 32.4939 698.164 Q27.4968 693.357 27.4968 685.018 Q27.4968 682.313 28.0697 679.735 Q28.6108 677.157 29.7248 674.738 Z" fill="#000000" fill-rule="nonzero" fill-opacity="1" /><path clip-path="url(#clip870)" d="M18.2347 658.76 L28.3562 658.76 L28.3562 646.697 L32.9077 646.697 L32.9077 658.76 L52.2594 658.76 Q56.6199 658.76 57.8613 657.582 Q59.1026 656.373 59.1026 652.712 L59.1026 646.697 L64.0042 646.697 L64.0042 652.712 Q64.0042 659.492 61.4897 662.07 Q58.9434 664.648 52.2594 664.648 L32.9077 664.648 L32.9077 668.945 L28.3562 668.945 L28.3562 664.648 L18.2347 664.648 L18.2347 658.76 Z" fill="#000000" fill-rule="nonzero" fill-opacity="1" /><path clip-path="url(#clip870)" d="M32.4621 625.181 Q32.4621 629.891 36.1542 632.629 Q39.8145 635.366 46.212 635.366 Q52.6095 635.366 56.3017 632.66 Q59.9619 629.923 59.9619 625.181 Q59.9619 620.502 56.2698 617.765 Q52.5777 615.027 46.212 615.027 Q39.8781 615.027 36.186 617.765 Q32.4621 620.502 32.4621 625.181 M27.4968 625.181 Q27.4968 617.542 32.4621 613.181 Q37.4273 608.821 46.212 608.821 Q54.9649 608.821 59.9619 613.181 Q64.9272 617.542 64.9272 625.181 Q64.9272 632.851 59.9619 637.212 Q54.9649 641.541 46.212 641.541 Q37.4273 641.541 32.4621 637.212 Q27.4968 632.851 27.4968 625.181 Z" fill="#000000" fill-rule="nonzero" fill-opacity="1" /><path clip-path="url(#clip870)" d="M33.8307 578.456 Q33.2578 579.443 33.0032 580.621 Q32.7167 581.767 32.7167 583.167 Q32.7167 588.132 35.9632 590.806 Q39.1779 593.448 45.2253 593.448 L64.0042 593.448 L64.0042 599.336 L28.3562 599.336 L28.3562 593.448 L33.8944 593.448 Q30.6479 591.602 29.0883 588.642 Q27.4968 585.682 27.4968 581.448 Q27.4968 580.844 27.5923 580.112 Q27.656 579.379 27.8151 578.488 L33.8307 578.456 Z" fill="#000000" fill-rule="nonzero" fill-opacity="1" /><path clip-path="url(#clip870)" d="M61.808 545.737 L77.5631 545.737 L77.5631 551.625 L28.579 551.625 Q14.0652 551.625 14.0652 538.066 Q14.0652 524.252 26.3192 524.252 Q35.0402 524.252 38.223 529.727 Q41.0876 520.815 49.5858 520.815 Q64.6726 520.815 64.6726 536.156 Q64.6726 542.904 61.808 545.737 M54.1691 545.737 Q59.6755 542.204 59.6755 535.934 Q59.6755 526.767 49.6813 526.767 Q40.7057 526.767 41.4059 541.535 L35.995 541.535 Q35.995 529.982 25.8099 529.982 Q18.8395 529.982 18.8395 537.429 Q18.8395 545.737 28.77 545.737 L54.1691 545.737 Z" fill="#000000" fill-rule="nonzero" fill-opacity="1" /><path clip-path="url(#clip870)" d="M39.1142 507.606 L39.1142 494.111 L42.7427 494.111 L42.7427 513.144 L39.2416 513.144 Q38.2549 512.062 36.4725 510.057 Q26.7648 499.108 23.7729 499.108 Q21.6722 499.108 20.3991 500.763 Q19.0941 502.418 19.0941 505.124 Q19.0941 506.779 19.667 508.72 Q20.2081 510.662 21.3221 512.953 L17.4072 512.953 Q16.516 510.503 16.0704 508.402 Q15.6248 506.269 15.6248 504.455 Q15.6248 499.84 17.7255 497.071 Q19.8262 494.302 23.2636 494.302 Q27.6878 494.302 36.7271 504.837 Q38.2549 506.619 39.1142 507.606 Z" fill="#000000" fill-rule="nonzero" fill-opacity="1" /><polyline clip-path="url(#clip872)" style="stroke:#009af9; stroke-linecap:round; stroke-linejoin:round; stroke-width:4; stroke-opacity:1; fill:none" points="321.708,1342.98 323.682,1342.87 325.656,1342.75 327.63,1342.64 329.603,1342.52 331.577,1342.4 333.551,1342.29 335.525,1342.17 337.499,1342.05 339.473,1341.93 341.447,1341.81 343.42,1341.69 345.394,1341.57 347.368,1341.45 349.342,1341.33 351.316,1341.2 353.29,1341.08 355.264,1340.96 357.238,1340.83 359.211,1340.71 361.185,1340.58 363.159,1340.45 365.133,1340.33 367.107,1340.2 369.081,1340.07 371.055,1339.94 373.028,1339.81 375.002,1339.68 376.976,1339.55 378.95,1339.41 380.924,1339.28 382.898,1339.15 384.872,1339.01 386.846,1338.88 388.819,1338.74 390.793,1338.6 392.767,1338.47 394.741,1338.33 396.715,1338.19 398.689,1338.05 400.663,1337.91 402.636,1337.77 404.61,1337.63 406.584,1337.48 408.558,1337.34 410.532,1337.19 412.506,1337.05 414.48,1336.9 416.453,1336.76 418.427,1336.61 420.401,1336.46 422.375,1336.31 424.349,1336.16 426.323,1336.01 428.297,1335.85 430.271,1335.7 432.244,1335.55 434.218,1335.39 436.192,1335.24 438.166,1335.08 440.14,1334.92 442.114,1334.76 444.088,1334.61 446.061,1334.44 448.035,1334.28 450.009,1334.12 451.983,1333.96 453.957,1333.79 455.931,1333.63 457.905,1333.46 459.879,1333.3 461.852,1333.13 463.826,1332.96 465.8,1332.79 467.774,1332.62 469.748,1332.44 471.722,1332.27 473.696,1332.1 475.669,1331.92 477.643,1331.75 479.617,1331.57 481.591,1331.39 483.565,1331.21 485.539,1331.03 487.513,1330.85 489.486,1330.66 491.46,1330.48 493.434,1330.29 495.408,1330.11 497.382,1329.92 499.356,1329.73 501.33,1329.54 503.304,1329.35 505.277,1329.16 507.251,1328.96 509.225,1328.77 511.199,1328.57 513.173,1328.38 515.147,1328.18 517.121,1327.98 519.094,1327.78 521.068,1327.57 523.042,1327.37 525.016,1327.16 526.99,1326.96 528.964,1326.75 530.938,1326.54 532.912,1326.33 534.885,1326.12 536.859,1325.91 538.833,1325.69 540.807,1325.48 542.781,1325.26 544.755,1325.04 546.729,1324.82 548.702,1324.6 550.676,1324.37 552.65,1324.15 554.624,1323.92 556.598,1323.7 558.572,1323.47 560.546,1323.24 562.519,1323 564.493,1322.77 566.467,1322.53 568.441,1322.3 570.415,1322.06 572.389,1321.82 574.363,1321.57 576.337,1321.33 578.31,1321.09 580.284,1320.84 582.258,1320.59 584.232,1320.34 586.206,1320.09 588.18,1319.83 590.154,1319.58 592.127,1319.32 594.101,1319.06 596.075,1318.8 598.049,1318.53 600.023,1318.27 601.997,1318 603.971,1317.73 605.945,1317.46 607.918,1317.19 609.892,1316.91 611.866,1316.64 613.84,1316.36 615.814,1316.08 617.788,1315.79 619.762,1315.51 621.735,1315.22 623.709,1314.93 625.683,1314.64 627.657,1314.35 629.631,1314.05 631.605,1313.75 633.579,1313.45 635.553,1313.15 637.526,1312.85 639.5,1312.54 641.474,1312.23 643.448,1311.92 645.422,1311.61 647.396,1311.29 649.37,1310.97 651.343,1310.65 653.317,1310.33 655.291,1310 657.265,1309.67 659.239,1309.34 661.213,1309.01 663.187,1308.67 665.16,1308.33 667.134,1307.99 669.108,1307.65 671.082,1307.3 673.056,1306.95 675.03,1306.6 677.004,1306.24 678.978,1305.88 680.951,1305.52 682.925,1305.16 684.899,1304.79 686.873,1304.42 688.847,1304.05 690.821,1303.67 692.795,1303.29 694.768,1302.91 696.742,1302.53 698.716,1302.14 700.69,1301.75 702.664,1301.35 704.638,1300.95 706.612,1300.55 708.586,1300.15 710.559,1299.74 712.533,1299.33 714.507,1298.91 716.481,1298.49 718.455,1298.07 720.429,1297.65 722.403,1297.22 724.376,1296.78 726.35,1296.35 728.324,1295.91 730.298,1295.46 732.272,1295.01 734.246,1294.56 736.22,1294.11 738.193,1293.65 740.167,1293.18 742.141,1292.71 744.115,1292.24 746.089,1291.77 748.063,1291.29 750.037,1290.8 752.011,1290.31 753.984,1289.82 755.958,1289.32 757.932,1288.82 759.906,1288.31 761.88,1287.8 763.854,1287.28 765.828,1286.76 767.801,1286.24 769.775,1285.71 771.749,1285.17 773.723,1284.63 775.697,1284.08 777.671,1283.53 779.645,1282.98 781.619,1282.42 783.592,1281.85 785.566,1281.28 787.54,1280.7 789.514,1280.12 791.488,1279.53 793.462,1278.94 795.436,1278.34 797.409,1277.73 799.383,1277.12 801.357,1276.5 803.331,1275.88 805.305,1275.25 807.279,1274.62 809.253,1273.97 811.226,1273.33 813.2,1272.67 815.174,1272.01 817.148,1271.34 819.122,1270.67 821.096,1269.99 823.07,1269.3 825.044,1268.6 827.017,1267.9 828.991,1267.19 830.965,1266.48 832.939,1265.75 834.913,1265.02 836.887,1264.28 838.861,1263.54 840.834,1262.78 842.808,1262.02 844.782,1261.25 846.756,1260.47 848.73,1259.69 850.704,1258.89 852.678,1258.09 854.652,1257.28 856.625,1256.45 858.599,1255.62 860.573,1254.79 862.547,1253.94 864.521,1253.08 866.495,1252.22 868.469,1251.34 870.442,1250.45 872.416,1249.56 874.39,1248.65 876.364,1247.74 878.338,1246.81 880.312,1245.88 882.286,1244.93 884.26,1243.97 886.233,1243.01 888.207,1242.03 890.181,1241.04 892.155,1240.04 894.129,1239.02 896.103,1238 898.077,1236.96 900.05,1235.91 902.024,1234.85 903.998,1233.78 905.972,1232.69 907.946,1231.59 909.92,1230.48 911.894,1229.35 913.867,1228.22 915.841,1227.06 917.815,1225.9 919.789,1224.72 921.763,1223.52 923.737,1222.31 925.711,1221.09 927.685,1219.85 929.658,1218.59 931.632,1217.32 933.606,1216.03 935.58,1214.73 937.554,1213.41 939.528,1212.08 941.502,1210.72 943.475,1209.35 945.449,1207.97 947.423,1206.56 949.397,1205.14 951.371,1203.7 953.345,1202.24 955.319,1200.76 957.293,1199.26 959.266,1197.74 961.24,1196.2 963.214,1194.64 965.188,1193.07 967.162,1191.47 969.136,1189.84 971.11,1188.2 973.083,1186.53 975.057,1184.84 977.031,1183.13 979.005,1181.4 980.979,1179.64 982.953,1177.86 984.927,1176.05 986.9,1174.22 988.874,1172.36 990.848,1170.47 992.822,1168.56 994.796,1166.62 996.77,1164.66 998.744,1162.66 1000.72,1160.64 1002.69,1158.59 1004.67,1156.51 1006.64,1154.4 1008.61,1152.25 1010.59,1150.08 1012.56,1147.88 1014.53,1145.64 1016.51,1143.37 1018.48,1141.06 1020.46,1138.73 1022.43,1136.35 1024.4,1133.94 1026.38,1131.5 1028.35,1129.01 1030.33,1126.49 1032.3,1123.93 1034.27,1121.34 1036.25,1118.7 1038.22,1116.02 1040.19,1113.3 1042.17,1110.54 1044.14,1107.73 1046.12,1104.88 1048.09,1101.98 1050.06,1099.04 1052.04,1096.06 1054.01,1093.02 1055.99,1089.94 1057.96,1086.8 1059.93,1083.62 1061.91,1080.39 1063.88,1077.1 1065.86,1073.76 1067.83,1070.36 1069.8,1066.91 1071.78,1063.4 1073.75,1059.84 1075.72,1056.21 1077.7,1052.52 1079.67,1048.78 1081.65,1044.97 1083.62,1041.09 1085.59,1037.16 1087.57,1033.15 1089.54,1029.08 1091.52,1024.93 1093.49,1020.72 1095.46,1016.44 1097.44,1012.08 1099.41,1007.64 1101.38,1003.13 1103.36,998.545 1105.33,993.878 1107.31,989.129 1109.28,984.298 1111.25,979.383 1113.23,974.382 1115.2,969.294 1117.18,964.116 1119.15,958.848 1121.12,953.487 1123.1,948.032 1125.07,942.48 1127.04,936.831 1129.02,931.081 1130.99,925.231 1132.97,919.277 1134.94,913.217 1136.91,907.051 1138.89,900.775 1140.86,894.388 1142.84,887.889 1144.81,881.275 1146.78,874.545 1148.76,867.695 1150.73,860.726 1152.71,853.634 1154.68,846.418 1156.65,839.077 1158.63,831.607 1160.6,824.008 1162.57,816.278 1164.55,808.414 1166.52,800.416 1168.5,792.282 1170.47,784.01 1172.44,775.599 1174.42,767.047 1176.39,758.354 1178.37,749.517 1180.34,740.536 1182.31,731.411 1184.29,722.139 1186.26,712.722 1188.23,703.157 1190.21,693.445 1192.18,683.586 1194.16,673.58 1196.13,663.427 1198.1,653.128 1200.08,642.684 1202.05,632.095 1204.03,621.364 1206,610.493 1207.97,599.483 1209.95,588.336 1211.92,577.057 1213.89,565.649 1215.87,554.114 1217.84,542.458 1219.82,530.686 1221.79,518.803 1223.76,506.814 1225.74,494.727 1227.71,482.548 1229.69,470.286 1231.66,457.949 1233.63,445.545 1235.61,433.086 1237.58,420.581 1239.56,408.042 1241.53,395.482 1243.5,382.912 1245.48,370.348 1247.45,357.803 1249.42,345.292 1251.4,332.833 1253.37,320.442 1255.35,308.137 1257.32,295.937 1259.29,283.861 1261.27,271.929 1263.24,260.162 1265.22,248.581 1267.19,237.21 1269.16,226.069 1271.14,215.183 1273.11,204.574 1275.08,194.268 1277.06,184.287 1279.03,174.657 1281.01,165.401 1282.98,156.543 1284.95,148.108 1286.93,140.119 1288.9,132.599 1290.88,125.571 1292.85,119.057 1294.82,113.078 1296.8,107.653 1298.77,102.802 1300.75,98.5416 1302.72,94.8886 1304.69,91.8575 1306.67,89.4613 1308.64,87.7113 1310.61,86.6169 1312.59,86.1857 1314.56,86.4232 1316.54,87.333 1318.51,88.9166 1320.48,91.1733 1322.46,94.1005 1324.43,97.6933 1326.41,101.945 1328.38,106.847 1330.35,112.387 1332.33,118.554 1334.3,125.333 1336.27,132.708 1338.25,140.66 1340.22,149.171 1342.2,158.219 1344.17,167.784 1346.14,177.841 1348.12,188.368 1350.09,199.34 1352.07,210.73 1354.04,222.515 1356.01,234.666 1357.99,247.159 1359.96,259.966 1361.93,273.061 1363.91,286.418 1365.88,300.011 1367.86,313.814 1369.83,327.803 1371.8,341.953 1373.78,356.239 1375.75,370.639 1377.73,385.13 1379.7,399.691 1381.67,414.301 1383.65,428.94 1385.62,443.589 1387.6,458.231 1389.57,472.847 1391.54,487.423 1393.52,501.942 1395.49,516.391 1397.46,530.757 1399.44,545.026 1401.41,559.189 1403.39,573.233 1405.36,587.15 1407.33,600.931 1409.31,614.567 1411.28,628.051 1413.26,641.377 1415.23,654.539 1417.2,667.531 1419.18,680.349 1421.15,692.989 1423.12,705.448 1425.1,717.723 1427.07,729.811 1429.05,741.711 1431.02,753.42 1432.99,764.939 1434.97,776.266 1436.94,787.401 1438.92,798.344 1440.89,809.096 1442.86,819.657 1444.84,830.028 1446.81,840.21 1448.78,850.204 1450.76,860.012 1452.73,869.635 1454.71,879.076 1456.68,888.337 1458.65,897.419 1460.63,906.324 1462.6,915.056 1464.58,923.616 1466.55,932.007 1468.52,940.232 1470.5,948.292 1472.47,956.191 1474.45,963.932 1476.42,971.516 1478.39,978.948 1480.37,986.228 1482.34,993.361 1484.31,1000.35 1486.29,1007.19 1488.26,1013.9 1490.24,1020.47 1492.21,1026.9 1494.18,1033.21 1496.16,1039.38 1498.13,1045.43 1500.11,1051.35 1502.08,1057.16 1504.05,1062.84 1506.03,1068.41 1508,1073.86 1509.97,1079.21 1511.95,1084.44 1513.92,1089.57 1515.9,1094.6 1517.87,1099.52 1519.84,1104.34 1521.82,1109.06 1523.79,1113.69 1525.77,1118.23 1527.74,1122.67 1529.71,1127.03 1531.69,1131.3 1533.66,1135.48 1535.63,1139.58 1537.61,1143.6 1539.58,1147.54 1541.56,1151.4 1543.53,1155.18 1545.5,1158.89 1547.48,1162.53 1549.45,1166.1 1551.43,1169.59 1553.4,1173.02 1555.37,1176.38 1557.35,1179.68 1559.32,1182.91 1561.3,1186.08 1563.27,1189.2 1565.24,1192.25 1567.22,1195.24 1569.19,1198.17 1571.16,1201.05 1573.14,1203.88 1575.11,1206.65 1577.09,1209.37 1579.06,1212.04 1581.03,1214.67 1583.01,1217.24 1584.98,1219.76 1586.96,1222.24 1588.93,1224.67 1590.9,1227.06 1592.88,1229.4 1594.85,1231.7 1596.82,1233.96 1598.8,1236.18 1600.77,1238.36 1602.75,1240.5 1604.72,1242.61 1606.69,1244.67 1608.67,1246.7 1610.64,1248.69 1612.62,1250.65 1614.59,1252.57 1616.56,1254.46 1618.54,1256.32 1620.51,1258.14 1622.49,1259.93 1624.46,1261.69 1626.43,1263.43 1628.41,1265.13 1630.38,1266.8 1632.35,1268.45 1634.33,1270.06 1636.3,1271.65 1638.28,1273.21 1640.25,1274.75 1642.22,1276.26 1644.2,1277.75 1646.17,1279.21 1648.15,1280.65 1650.12,1282.06 1652.09,1283.45 1654.07,1284.82 1656.04,1286.16 1658.01,1287.49 1659.99,1288.79 1661.96,1290.07 1663.94,1291.33 1665.91,1292.57 1667.88,1293.79 1669.86,1294.99 1671.83,1296.18 1673.81,1297.34 1675.78,1298.49 1677.75,1299.61 1679.73,1300.72 1681.7,1301.82 1683.67,1302.89 1685.65,1303.95 1687.62,1305 1689.6,1306.02 1691.57,1307.03 1693.54,1308.03 1695.52,1309.01 1697.49,1309.98 1699.47,1310.93 1701.44,1311.87 1703.41,1312.79 1705.39,1313.7 1707.36,1314.6 1709.34,1315.48 1711.31,1316.35 1713.28,1317.2 1715.26,1318.05 1717.23,1318.88 1719.2,1319.7 1721.18,1320.51 1723.15,1321.31 1725.13,1322.09 1727.1,1322.86 1729.07,1323.63 1731.05,1324.38 1733.02,1325.12 1735,1325.85 1736.97,1326.57 1738.94,1327.28 1740.92,1327.98 1742.89,1328.67 1744.86,1329.35 1746.84,1330.02 1748.81,1330.68 1750.79,1331.34 1752.76,1331.98 1754.73,1332.61 1756.71,1333.24 1758.68,1333.86 1760.66,1334.47 1762.63,1335.07 1764.6,1335.66 1766.58,1336.25 1768.55,1336.82 1770.52,1337.39 1772.5,1337.95 1774.47,1338.51 1776.45,1339.06 1778.42,1339.59 1780.39,1340.13 1782.37,1340.65 1784.34,1341.17 1786.32,1341.68 1788.29,1342.19 1790.26,1342.69 1792.24,1343.18 1794.21,1343.66 1796.19,1344.14 1798.16,1344.62 1800.13,1345.08 1802.11,1345.55 1804.08,1346 1806.05,1346.45 1808.03,1346.89 1810,1347.33 1811.98,1347.77 1813.95,1348.19 1815.92,1348.61 1817.9,1349.03 1819.87,1349.44 1821.85,1349.85 1823.82,1350.25 1825.79,1350.65 1827.77,1351.04 1829.74,1351.43 1831.71,1351.81 1833.69,1352.18 1835.66,1352.56 1837.64,1352.93 1839.61,1353.29 1841.58,1353.65 1843.56,1354 1845.53,1354.35 1847.51,1354.7 1849.48,1355.04 1851.45,1355.38 1853.43,1355.72 1855.4,1356.05 1857.37,1356.37 1859.35,1356.7 1861.32,1357.01 1863.3,1357.33 1865.27,1357.64 1867.24,1357.95 1869.22,1358.25 1871.19,1358.55 1873.17,1358.85 1875.14,1359.14 1877.11,1359.43 1879.09,1359.72 1881.06,1360 1883.04,1360.28 1885.01,1360.56 1886.98,1360.84 1888.96,1361.11 1890.93,1361.37 1892.9,1361.64 1894.88,1361.9 1896.85,1362.16 1898.83,1362.42 1900.8,1362.67 1902.77,1362.92 1904.75,1363.17 1906.72,1363.41 1908.7,1363.65 1910.67,1363.89 1912.64,1364.13 1914.62,1364.36 1916.59,1364.6 1918.56,1364.82 1920.54,1365.05 1922.51,1365.28 1924.49,1365.5 1926.46,1365.72 1928.43,1365.93 1930.41,1366.15 1932.38,1366.36 1934.36,1366.57 1936.33,1366.78 1938.3,1366.98 1940.28,1367.19 1942.25,1367.39 1944.23,1367.58 1946.2,1367.78 1948.17,1367.98 1950.15,1368.17 1952.12,1368.36 1954.09,1368.55 1956.07,1368.73 1958.04,1368.92 1960.02,1369.1 1961.99,1369.28 1963.96,1369.46 1965.94,1369.64 1967.91,1369.81 1969.89,1369.99 1971.86,1370.16 1973.83,1370.33 1975.81,1370.5 1977.78,1370.66 1979.75,1370.83 1981.73,1370.99 1983.7,1371.15 1985.68,1371.31 1987.65,1371.47 1989.62,1371.63 1991.6,1371.78 1993.57,1371.93 1995.55,1372.09 1997.52,1372.24 1999.49,1372.38 2001.47,1372.53 2003.44,1372.68 2005.41,1372.82 2007.39,1372.96 2009.36,1373.11 2011.34,1373.25 2013.31,1373.38 2015.28,1373.52 2017.26,1373.66 2019.23,1373.79 2021.21,1373.92 2023.18,1374.06 2025.15,1374.19 2027.13,1374.32 2029.1,1374.44 2031.08,1374.57 2033.05,1374.7 2035.02,1374.82 2037,1374.94 2038.97,1375.07 2040.94,1375.19 2042.92,1375.31 2044.89,1375.42 2046.87,1375.54 2048.84,1375.66 2050.81,1375.77 2052.79,1375.89 2054.76,1376 2056.74,1376.11 2058.71,1376.22 2060.68,1376.33 2062.66,1376.44 2064.63,1376.55 2066.6,1376.65 2068.58,1376.76 2070.55,1376.86 2072.53,1376.97 2074.5,1377.07 2076.47,1377.17 2078.45,1377.27 2080.42,1377.37 2082.4,1377.47 2084.37,1377.57 2086.34,1377.67 2088.32,1377.76 2090.29,1377.86 2092.26,1377.95 2094.24,1378.05 2096.21,1378.14 2098.19,1378.23 2100.16,1378.32 2102.13,1378.41 2104.11,1378.5 2106.08,1378.59 2108.06,1378.68 2110.03,1378.76 2112,1378.85 2113.98,1378.93 2115.95,1379.02 2117.93,1379.1 2119.9,1379.19 2121.87,1379.27 2123.85,1379.35 2125.82,1379.43 2127.79,1379.51 2129.77,1379.59 2131.74,1379.67 2133.72,1379.74 2135.69,1379.82 2137.66,1379.9 2139.64,1379.97 2141.61,1380.05 2143.59,1380.12 2145.56,1380.2 2147.53,1380.27 2149.51,1380.34 2151.48,1380.41 2153.45,1380.49 2155.43,1380.56 2157.4,1380.63 2159.38,1380.69 2161.35,1380.76 2163.32,1380.83 2165.3,1380.9 2167.27,1380.97 2169.25,1381.03 2171.22,1381.1 2173.19,1381.16 2175.17,1381.23 2177.14,1381.29 2179.11,1381.35 2181.09,1381.42 2183.06,1381.48 2185.04,1381.54 2187.01,1381.6 2188.98,1381.66 2190.96,1381.72 2192.93,1381.78 2194.91,1381.84 2196.88,1381.9 2198.85,1381.96 2200.83,1382.02 2202.8,1382.07 2204.78,1382.13 2206.75,1382.19 2208.72,1382.24 2210.7,1382.3 2212.67,1382.35 2214.64,1382.41 2216.62,1382.46 2218.59,1382.51 2220.57,1382.57 2222.54,1382.62 2224.51,1382.67 2226.49,1382.72 2228.46,1382.77 2230.44,1382.82 2232.41,1382.87 2234.38,1382.92 2236.36,1382.97 2238.33,1383.02 2240.3,1383.07 2242.28,1383.12 2244.25,1383.17 2246.23,1383.21 2248.2,1383.26 2250.17,1383.31 2252.15,1383.35 2254.12,1383.4 2256.1,1383.44 2258.07,1383.49 2260.04,1383.53 2262.02,1383.58 2263.99,1383.62 2265.97,1383.67 2267.94,1383.71 2269.91,1383.75 2271.89,1383.79 2273.86,1383.84 2275.83,1383.88 2277.81,1383.92 2279.78,1383.96 2281.76,1384 2283.73,1384.04 2285.7,1384.08 2287.68,1384.12 2289.65,1384.16 2291.63,1384.2 2293.6,1384.24 "/>
<polyline clip-path="url(#clip872)" style="stroke:#ff0000; stroke-linecap:round; stroke-linejoin:round; stroke-width:4; stroke-opacity:1; fill:none" points="1209.06,2799.12 1209.06,-1328.69 "/>
<polyline clip-path="url(#clip872)" style="stroke:#ff0000; stroke-linecap:round; stroke-linejoin:round; stroke-width:4; stroke-opacity:1; fill:none" points="1406.25,2799.12 1406.25,-1328.69 "/>
</svg>
