<?xml version="1.0" encoding="utf-8"?>
<svg xmlns="http://www.w3.org/2000/svg" xmlns:xlink="http://www.w3.org/1999/xlink" width="600" height="400" viewBox="0 0 2400 1600">
<defs>
  <clipPath id="clip880">
    <rect x="0" y="0" width="2400" height="1600"/>
  </clipPath>
</defs>
<path clip-path="url(#clip880)" d="M0 1600 L2400 1600 L2400 0 L0 0  Z" fill="#ffffff" fill-rule="evenodd" fill-opacity="1"/>
<defs>
  <clipPath id="clip881">
    <rect x="480" y="0" width="1681" height="1600"/>
  </clipPath>
</defs>
<path clip-path="url(#clip880)" d="M262.551 1423.18 L2352.76 1423.18 L2352.76 47.2441 L262.551 47.2441  Z" fill="#ffffff" fill-rule="evenodd" fill-opacity="1"/>
<defs>
  <clipPath id="clip882">
    <rect x="262" y="47" width="2091" height="1377"/>
  </clipPath>
</defs>
<polyline clip-path="url(#clip882)" style="stroke:#000000; stroke-linecap:round; stroke-linejoin:round; stroke-width:2; stroke-opacity:0.1; fill:none" points="321.708,1423.18 321.708,47.2441 "/>
<polyline clip-path="url(#clip882)" style="stroke:#000000; stroke-linecap:round; stroke-linejoin:round; stroke-width:2; stroke-opacity:0.1; fill:none" points="814.681,1423.18 814.681,47.2441 "/>
<polyline clip-path="url(#clip882)" style="stroke:#000000; stroke-linecap:round; stroke-linejoin:round; stroke-width:2; stroke-opacity:0.1; fill:none" points="1307.65,1423.18 1307.65,47.2441 "/>
<polyline clip-path="url(#clip882)" style="stroke:#000000; stroke-linecap:round; stroke-linejoin:round; stroke-width:2; stroke-opacity:0.1; fill:none" points="1800.63,1423.18 1800.63,47.2441 "/>
<polyline clip-path="url(#clip882)" style="stroke:#000000; stroke-linecap:round; stroke-linejoin:round; stroke-width:2; stroke-opacity:0.1; fill:none" points="2293.6,1423.18 2293.6,47.2441 "/>
<polyline clip-path="url(#clip882)" style="stroke:#000000; stroke-linecap:round; stroke-linejoin:round; stroke-width:2; stroke-opacity:0.1; fill:none" points="262.551,1206.62 2352.76,1206.62 "/>
<polyline clip-path="url(#clip882)" style="stroke:#000000; stroke-linecap:round; stroke-linejoin:round; stroke-width:2; stroke-opacity:0.1; fill:none" points="262.551,904.784 2352.76,904.784 "/>
<polyline clip-path="url(#clip882)" style="stroke:#000000; stroke-linecap:round; stroke-linejoin:round; stroke-width:2; stroke-opacity:0.1; fill:none" points="262.551,602.949 2352.76,602.949 "/>
<polyline clip-path="url(#clip882)" style="stroke:#000000; stroke-linecap:round; stroke-linejoin:round; stroke-width:2; stroke-opacity:0.1; fill:none" points="262.551,301.114 2352.76,301.114 "/>
<polyline clip-path="url(#clip880)" style="stroke:#000000; stroke-linecap:round; stroke-linejoin:round; stroke-width:4; stroke-opacity:1; fill:none" points="262.551,1423.18 2352.76,1423.18 "/>
<polyline clip-path="url(#clip880)" style="stroke:#000000; stroke-linecap:round; stroke-linejoin:round; stroke-width:4; stroke-opacity:1; fill:none" points="321.708,1423.18 321.708,1404.28 "/>
<polyline clip-path="url(#clip880)" style="stroke:#000000; stroke-linecap:round; stroke-linejoin:round; stroke-width:4; stroke-opacity:1; fill:none" points="814.681,1423.18 814.681,1404.28 "/>
<polyline clip-path="url(#clip880)" style="stroke:#000000; stroke-linecap:round; stroke-linejoin:round; stroke-width:4; stroke-opacity:1; fill:none" points="1307.65,1423.18 1307.65,1404.28 "/>
<polyline clip-path="url(#clip880)" style="stroke:#000000; stroke-linecap:round; stroke-linejoin:round; stroke-width:4; stroke-opacity:1; fill:none" points="1800.63,1423.18 1800.63,1404.28 "/>
<polyline clip-path="url(#clip880)" style="stroke:#000000; stroke-linecap:round; stroke-linejoin:round; stroke-width:4; stroke-opacity:1; fill:none" points="2293.6,1423.18 2293.6,1404.28 "/>
<path clip-path="url(#clip880)" d="M262.785 1481.64 L279.104 1481.64 L279.104 1485.58 L257.16 1485.58 L257.16 1481.64 Q259.822 1478.89 264.405 1474.26 Q269.011 1469.61 270.192 1468.27 Q272.437 1465.74 273.317 1464.01 Q274.22 1462.25 274.22 1460.56 Q274.22 1457.8 272.275 1456.07 Q270.354 1454.33 267.252 1454.33 Q265.053 1454.33 262.599 1455.09 Q260.169 1455.86 257.391 1457.41 L257.391 1452.69 Q260.215 1451.55 262.669 1450.97 Q265.123 1450.39 267.16 1450.39 Q272.53 1450.39 275.724 1453.08 Q278.919 1455.77 278.919 1460.26 Q278.919 1462.39 278.109 1464.31 Q277.322 1466.2 275.215 1468.8 Q274.636 1469.47 271.535 1472.69 Q268.433 1475.88 262.785 1481.64 Z" fill="#000000" fill-rule="nonzero" fill-opacity="1" /><path clip-path="url(#clip880)" d="M289.058 1484.86 L289.058 1480.6 Q290.817 1481.44 292.622 1481.88 Q294.428 1482.32 296.164 1482.32 Q300.794 1482.32 303.224 1479.21 Q305.678 1476.09 306.025 1469.75 Q304.683 1471.74 302.622 1472.8 Q300.562 1473.87 298.062 1473.87 Q292.877 1473.87 289.845 1470.74 Q286.835 1467.59 286.835 1462.15 Q286.835 1456.83 289.984 1453.61 Q293.132 1450.39 298.363 1450.39 Q304.359 1450.39 307.507 1455 Q310.678 1459.58 310.678 1468.33 Q310.678 1476.51 306.789 1481.39 Q302.923 1486.25 296.372 1486.25 Q294.613 1486.25 292.808 1485.9 Q291.002 1485.56 289.058 1484.86 M298.363 1470.21 Q301.511 1470.21 303.34 1468.06 Q305.192 1465.9 305.192 1462.15 Q305.192 1458.43 303.34 1456.27 Q301.511 1454.1 298.363 1454.1 Q295.215 1454.1 293.363 1456.27 Q291.535 1458.43 291.535 1462.15 Q291.535 1465.9 293.363 1468.06 Q295.215 1470.21 298.363 1470.21 Z" fill="#000000" fill-rule="nonzero" fill-opacity="1" /><path clip-path="url(#clip880)" d="M319.081 1479.7 L323.965 1479.7 L323.965 1485.58 L319.081 1485.58 L319.081 1479.7 Z" fill="#000000" fill-rule="nonzero" fill-opacity="1" /><path clip-path="url(#clip880)" d="M334.289 1484.86 L334.289 1480.6 Q336.048 1481.44 337.854 1481.88 Q339.659 1482.32 341.395 1482.32 Q346.025 1482.32 348.456 1479.21 Q350.909 1476.09 351.256 1469.75 Q349.914 1471.74 347.854 1472.8 Q345.793 1473.87 343.293 1473.87 Q338.108 1473.87 335.076 1470.74 Q332.067 1467.59 332.067 1462.15 Q332.067 1456.83 335.215 1453.61 Q338.363 1450.39 343.594 1450.39 Q349.59 1450.39 352.738 1455 Q355.909 1459.58 355.909 1468.33 Q355.909 1476.51 352.02 1481.39 Q348.155 1486.25 341.604 1486.25 Q339.844 1486.25 338.039 1485.9 Q336.233 1485.56 334.289 1484.86 M343.594 1470.21 Q346.743 1470.21 348.571 1468.06 Q350.423 1465.9 350.423 1462.15 Q350.423 1458.43 348.571 1456.27 Q346.743 1454.1 343.594 1454.1 Q340.446 1454.1 338.594 1456.27 Q336.766 1458.43 336.766 1462.15 Q336.766 1465.9 338.594 1468.06 Q340.446 1470.21 343.594 1470.21 Z" fill="#000000" fill-rule="nonzero" fill-opacity="1" /><path clip-path="url(#clip880)" d="M374.312 1454.1 Q370.701 1454.1 368.872 1457.66 Q367.067 1461.2 367.067 1468.33 Q367.067 1475.44 368.872 1479.01 Q370.701 1482.55 374.312 1482.55 Q377.946 1482.55 379.752 1479.01 Q381.58 1475.44 381.58 1468.33 Q381.58 1461.2 379.752 1457.66 Q377.946 1454.1 374.312 1454.1 M374.312 1450.39 Q380.122 1450.39 383.178 1455 Q386.256 1459.58 386.256 1468.33 Q386.256 1477.06 383.178 1481.67 Q380.122 1486.25 374.312 1486.25 Q368.502 1486.25 365.423 1481.67 Q362.367 1477.06 362.367 1468.33 Q362.367 1459.58 365.423 1455 Q368.502 1450.39 374.312 1450.39 Z" fill="#000000" fill-rule="nonzero" fill-opacity="1" /><path clip-path="url(#clip880)" d="M756.255 1481.64 L772.575 1481.64 L772.575 1485.58 L750.63 1485.58 L750.63 1481.64 Q753.292 1478.89 757.876 1474.26 Q762.482 1469.61 763.663 1468.27 Q765.908 1465.74 766.787 1464.01 Q767.69 1462.25 767.69 1460.56 Q767.69 1457.8 765.746 1456.07 Q763.825 1454.33 760.723 1454.33 Q758.524 1454.33 756.07 1455.09 Q753.639 1455.86 750.862 1457.41 L750.862 1452.69 Q753.686 1451.55 756.139 1450.97 Q758.593 1450.39 760.63 1450.39 Q766 1450.39 769.195 1453.08 Q772.389 1455.77 772.389 1460.26 Q772.389 1462.39 771.579 1464.31 Q770.792 1466.2 768.686 1468.8 Q768.107 1469.47 765.005 1472.69 Q761.903 1475.88 756.255 1481.64 Z" fill="#000000" fill-rule="nonzero" fill-opacity="1" /><path clip-path="url(#clip880)" d="M782.528 1484.86 L782.528 1480.6 Q784.287 1481.44 786.093 1481.88 Q787.898 1482.32 789.635 1482.32 Q794.264 1482.32 796.695 1479.21 Q799.148 1476.09 799.496 1469.75 Q798.153 1471.74 796.093 1472.8 Q794.033 1473.87 791.533 1473.87 Q786.348 1473.87 783.315 1470.74 Q780.306 1467.59 780.306 1462.15 Q780.306 1456.83 783.454 1453.61 Q786.602 1450.39 791.834 1450.39 Q797.829 1450.39 800.977 1455 Q804.148 1459.58 804.148 1468.33 Q804.148 1476.51 800.26 1481.39 Q796.394 1486.25 789.843 1486.25 Q788.084 1486.25 786.278 1485.9 Q784.473 1485.56 782.528 1484.86 M791.834 1470.21 Q794.982 1470.21 796.81 1468.06 Q798.662 1465.9 798.662 1462.15 Q798.662 1458.43 796.81 1456.27 Q794.982 1454.1 791.834 1454.1 Q788.686 1454.1 786.834 1456.27 Q785.005 1458.43 785.005 1462.15 Q785.005 1465.9 786.834 1468.06 Q788.686 1470.21 791.834 1470.21 Z" fill="#000000" fill-rule="nonzero" fill-opacity="1" /><path clip-path="url(#clip880)" d="M812.551 1479.7 L817.435 1479.7 L817.435 1485.58 L812.551 1485.58 L812.551 1479.7 Z" fill="#000000" fill-rule="nonzero" fill-opacity="1" /><path clip-path="url(#clip880)" d="M827.759 1484.86 L827.759 1480.6 Q829.519 1481.44 831.324 1481.88 Q833.13 1482.32 834.866 1482.32 Q839.495 1482.32 841.926 1479.21 Q844.38 1476.09 844.727 1469.75 Q843.384 1471.74 841.324 1472.8 Q839.264 1473.87 836.764 1473.87 Q831.579 1473.87 828.546 1470.74 Q825.537 1467.59 825.537 1462.15 Q825.537 1456.83 828.685 1453.61 Q831.833 1450.39 837.065 1450.39 Q843.06 1450.39 846.208 1455 Q849.38 1459.58 849.38 1468.33 Q849.38 1476.51 845.491 1481.39 Q841.625 1486.25 835.074 1486.25 Q833.315 1486.25 831.509 1485.9 Q829.704 1485.56 827.759 1484.86 M837.065 1470.21 Q840.213 1470.21 842.042 1468.06 Q843.894 1465.9 843.894 1462.15 Q843.894 1458.43 842.042 1456.27 Q840.213 1454.1 837.065 1454.1 Q833.917 1454.1 832.065 1456.27 Q830.236 1458.43 830.236 1462.15 Q830.236 1465.9 832.065 1468.06 Q833.917 1470.21 837.065 1470.21 Z" fill="#000000" fill-rule="nonzero" fill-opacity="1" /><path clip-path="url(#clip880)" d="M857.829 1451.02 L876.185 1451.02 L876.185 1454.96 L862.111 1454.96 L862.111 1463.43 Q863.13 1463.08 864.148 1462.92 Q865.167 1462.73 866.185 1462.73 Q871.972 1462.73 875.352 1465.9 Q878.731 1469.08 878.731 1474.49 Q878.731 1480.07 875.259 1483.17 Q871.787 1486.25 865.468 1486.25 Q863.292 1486.25 861.023 1485.88 Q858.778 1485.51 856.37 1484.77 L856.37 1480.07 Q858.454 1481.2 860.676 1481.76 Q862.898 1482.32 865.375 1482.32 Q869.38 1482.32 871.717 1480.21 Q874.055 1478.1 874.055 1474.49 Q874.055 1470.88 871.717 1468.77 Q869.38 1466.67 865.375 1466.67 Q863.5 1466.67 861.625 1467.08 Q859.773 1467.5 857.829 1468.38 L857.829 1451.02 Z" fill="#000000" fill-rule="nonzero" fill-opacity="1" /><path clip-path="url(#clip880)" d="M1258.8 1466.95 Q1262.16 1467.66 1264.03 1469.93 Q1265.93 1472.2 1265.93 1475.53 Q1265.93 1480.65 1262.41 1483.45 Q1258.89 1486.25 1252.41 1486.25 Q1250.23 1486.25 1247.92 1485.81 Q1245.63 1485.39 1243.17 1484.54 L1243.17 1480.02 Q1245.12 1481.16 1247.43 1481.74 Q1249.75 1482.32 1252.27 1482.32 Q1256.67 1482.32 1258.96 1480.58 Q1261.28 1478.84 1261.28 1475.53 Q1261.28 1472.48 1259.12 1470.77 Q1256.99 1469.03 1253.17 1469.03 L1249.15 1469.03 L1249.15 1465.19 L1253.36 1465.19 Q1256.81 1465.19 1258.64 1463.82 Q1260.47 1462.43 1260.47 1459.84 Q1260.47 1457.18 1258.57 1455.77 Q1256.69 1454.33 1253.17 1454.33 Q1251.25 1454.33 1249.05 1454.75 Q1246.86 1455.16 1244.22 1456.04 L1244.22 1451.88 Q1246.88 1451.14 1249.19 1450.77 Q1251.53 1450.39 1253.59 1450.39 Q1258.92 1450.39 1262.02 1452.83 Q1265.12 1455.23 1265.12 1459.35 Q1265.12 1462.22 1263.48 1464.21 Q1261.83 1466.18 1258.8 1466.95 Z" fill="#000000" fill-rule="nonzero" fill-opacity="1" /><path clip-path="url(#clip880)" d="M1284.79 1454.1 Q1281.18 1454.1 1279.36 1457.66 Q1277.55 1461.2 1277.55 1468.33 Q1277.55 1475.44 1279.36 1479.01 Q1281.18 1482.55 1284.79 1482.55 Q1288.43 1482.55 1290.23 1479.01 Q1292.06 1475.44 1292.06 1468.33 Q1292.06 1461.2 1290.23 1457.66 Q1288.43 1454.1 1284.79 1454.1 M1284.79 1450.39 Q1290.61 1450.39 1293.66 1455 Q1296.74 1459.58 1296.74 1468.33 Q1296.74 1477.06 1293.66 1481.67 Q1290.61 1486.25 1284.79 1486.25 Q1278.98 1486.25 1275.91 1481.67 Q1272.85 1477.06 1272.85 1468.33 Q1272.85 1459.58 1275.91 1455 Q1278.98 1450.39 1284.79 1450.39 Z" fill="#000000" fill-rule="nonzero" fill-opacity="1" /><path clip-path="url(#clip880)" d="M1304.96 1479.7 L1309.84 1479.7 L1309.84 1485.58 L1304.96 1485.58 L1304.96 1479.7 Z" fill="#000000" fill-rule="nonzero" fill-opacity="1" /><path clip-path="url(#clip880)" d="M1330.03 1454.1 Q1326.42 1454.1 1324.59 1457.66 Q1322.78 1461.2 1322.78 1468.33 Q1322.78 1475.44 1324.59 1479.01 Q1326.42 1482.55 1330.03 1482.55 Q1333.66 1482.55 1335.47 1479.01 Q1337.29 1475.44 1337.29 1468.33 Q1337.29 1461.2 1335.47 1457.66 Q1333.66 1454.1 1330.03 1454.1 M1330.03 1450.39 Q1335.84 1450.39 1338.89 1455 Q1341.97 1459.58 1341.97 1468.33 Q1341.97 1477.06 1338.89 1481.67 Q1335.84 1486.25 1330.03 1486.25 Q1324.22 1486.25 1321.14 1481.67 Q1318.08 1477.06 1318.08 1468.33 Q1318.08 1459.58 1321.14 1455 Q1324.22 1450.39 1330.03 1450.39 Z" fill="#000000" fill-rule="nonzero" fill-opacity="1" /><path clip-path="url(#clip880)" d="M1360.19 1454.1 Q1356.58 1454.1 1354.75 1457.66 Q1352.94 1461.2 1352.94 1468.33 Q1352.94 1475.44 1354.75 1479.01 Q1356.58 1482.55 1360.19 1482.55 Q1363.82 1482.55 1365.63 1479.01 Q1367.46 1475.44 1367.46 1468.33 Q1367.46 1461.2 1365.63 1457.66 Q1363.82 1454.1 1360.19 1454.1 M1360.19 1450.39 Q1366 1450.39 1369.05 1455 Q1372.13 1459.58 1372.13 1468.33 Q1372.13 1477.06 1369.05 1481.67 Q1366 1486.25 1360.19 1486.25 Q1354.38 1486.25 1351.3 1481.67 Q1348.24 1477.06 1348.24 1468.33 Q1348.24 1459.58 1351.3 1455 Q1354.38 1450.39 1360.19 1450.39 Z" fill="#000000" fill-rule="nonzero" fill-opacity="1" /><path clip-path="url(#clip880)" d="M1752.27 1466.95 Q1755.63 1467.66 1757.5 1469.93 Q1759.4 1472.2 1759.4 1475.53 Q1759.4 1480.65 1755.88 1483.45 Q1752.36 1486.25 1745.88 1486.25 Q1743.71 1486.25 1741.39 1485.81 Q1739.1 1485.39 1736.65 1484.54 L1736.65 1480.02 Q1738.59 1481.16 1740.9 1481.74 Q1743.22 1482.32 1745.74 1482.32 Q1750.14 1482.32 1752.43 1480.58 Q1754.75 1478.84 1754.75 1475.53 Q1754.75 1472.48 1752.59 1470.77 Q1750.46 1469.03 1746.65 1469.03 L1742.62 1469.03 L1742.62 1465.19 L1746.83 1465.19 Q1750.28 1465.19 1752.11 1463.82 Q1753.94 1462.43 1753.94 1459.84 Q1753.94 1457.18 1752.04 1455.77 Q1750.16 1454.33 1746.65 1454.33 Q1744.72 1454.33 1742.52 1454.75 Q1740.33 1455.16 1737.69 1456.04 L1737.69 1451.88 Q1740.35 1451.14 1742.66 1450.77 Q1745 1450.39 1747.06 1450.39 Q1752.39 1450.39 1755.49 1452.83 Q1758.59 1455.23 1758.59 1459.35 Q1758.59 1462.22 1756.95 1464.21 Q1755.3 1466.18 1752.27 1466.95 Z" fill="#000000" fill-rule="nonzero" fill-opacity="1" /><path clip-path="url(#clip880)" d="M1778.27 1454.1 Q1774.65 1454.1 1772.83 1457.66 Q1771.02 1461.2 1771.02 1468.33 Q1771.02 1475.44 1772.83 1479.01 Q1774.65 1482.55 1778.27 1482.55 Q1781.9 1482.55 1783.71 1479.01 Q1785.53 1475.44 1785.53 1468.33 Q1785.53 1461.2 1783.71 1457.66 Q1781.9 1454.1 1778.27 1454.1 M1778.27 1450.39 Q1784.08 1450.39 1787.13 1455 Q1790.21 1459.58 1790.21 1468.33 Q1790.21 1477.06 1787.13 1481.67 Q1784.08 1486.25 1778.27 1486.25 Q1772.46 1486.25 1769.38 1481.67 Q1766.32 1477.06 1766.32 1468.33 Q1766.32 1459.58 1769.38 1455 Q1772.46 1450.39 1778.27 1450.39 Z" fill="#000000" fill-rule="nonzero" fill-opacity="1" /><path clip-path="url(#clip880)" d="M1798.43 1479.7 L1803.31 1479.7 L1803.31 1485.58 L1798.43 1485.58 L1798.43 1479.7 Z" fill="#000000" fill-rule="nonzero" fill-opacity="1" /><path clip-path="url(#clip880)" d="M1823.5 1454.1 Q1819.89 1454.1 1818.06 1457.66 Q1816.25 1461.2 1816.25 1468.33 Q1816.25 1475.44 1818.06 1479.01 Q1819.89 1482.55 1823.5 1482.55 Q1827.13 1482.55 1828.94 1479.01 Q1830.77 1475.44 1830.77 1468.33 Q1830.77 1461.2 1828.94 1457.66 Q1827.13 1454.1 1823.5 1454.1 M1823.5 1450.39 Q1829.31 1450.39 1832.36 1455 Q1835.44 1459.58 1835.44 1468.33 Q1835.44 1477.06 1832.36 1481.67 Q1829.31 1486.25 1823.5 1486.25 Q1817.69 1486.25 1814.61 1481.67 Q1811.55 1477.06 1811.55 1468.33 Q1811.55 1459.58 1814.61 1455 Q1817.69 1450.39 1823.5 1450.39 Z" fill="#000000" fill-rule="nonzero" fill-opacity="1" /><path clip-path="url(#clip880)" d="M1843.7 1451.02 L1862.06 1451.02 L1862.06 1454.96 L1847.99 1454.96 L1847.99 1463.43 Q1849.01 1463.08 1850.02 1462.92 Q1851.04 1462.73 1852.06 1462.73 Q1857.85 1462.73 1861.23 1465.9 Q1864.61 1469.08 1864.61 1474.49 Q1864.61 1480.07 1861.14 1483.17 Q1857.66 1486.25 1851.34 1486.25 Q1849.17 1486.25 1846.9 1485.88 Q1844.65 1485.51 1842.25 1484.77 L1842.25 1480.07 Q1844.33 1481.2 1846.55 1481.76 Q1848.77 1482.32 1851.25 1482.32 Q1855.26 1482.32 1857.59 1480.21 Q1859.93 1478.1 1859.93 1474.49 Q1859.93 1470.88 1857.59 1468.77 Q1855.26 1466.67 1851.25 1466.67 Q1849.38 1466.67 1847.5 1467.08 Q1845.65 1467.5 1843.7 1468.38 L1843.7 1451.02 Z" fill="#000000" fill-rule="nonzero" fill-opacity="1" /><path clip-path="url(#clip880)" d="M2244.75 1466.95 Q2248.1 1467.66 2249.98 1469.93 Q2251.87 1472.2 2251.87 1475.53 Q2251.87 1480.65 2248.36 1483.45 Q2244.84 1486.25 2238.36 1486.25 Q2236.18 1486.25 2233.87 1485.81 Q2231.57 1485.39 2229.12 1484.54 L2229.12 1480.02 Q2231.06 1481.16 2233.38 1481.74 Q2235.69 1482.32 2238.22 1482.32 Q2242.62 1482.32 2244.91 1480.58 Q2247.22 1478.84 2247.22 1475.53 Q2247.22 1472.48 2245.07 1470.77 Q2242.94 1469.03 2239.12 1469.03 L2235.09 1469.03 L2235.09 1465.19 L2239.31 1465.19 Q2242.75 1465.19 2244.58 1463.82 Q2246.41 1462.43 2246.41 1459.84 Q2246.41 1457.18 2244.51 1455.77 Q2242.64 1454.33 2239.12 1454.33 Q2237.2 1454.33 2235 1454.75 Q2232.8 1455.16 2230.16 1456.04 L2230.16 1451.88 Q2232.82 1451.14 2235.14 1450.77 Q2237.48 1450.39 2239.54 1450.39 Q2244.86 1450.39 2247.96 1452.83 Q2251.06 1455.23 2251.06 1459.35 Q2251.06 1462.22 2249.42 1464.21 Q2247.78 1466.18 2244.75 1466.95 Z" fill="#000000" fill-rule="nonzero" fill-opacity="1" /><path clip-path="url(#clip880)" d="M2270.74 1454.1 Q2267.13 1454.1 2265.3 1457.66 Q2263.5 1461.2 2263.5 1468.33 Q2263.5 1475.44 2265.3 1479.01 Q2267.13 1482.55 2270.74 1482.55 Q2274.37 1482.55 2276.18 1479.01 Q2278.01 1475.44 2278.01 1468.33 Q2278.01 1461.2 2276.18 1457.66 Q2274.37 1454.1 2270.74 1454.1 M2270.74 1450.39 Q2276.55 1450.39 2279.61 1455 Q2282.68 1459.58 2282.68 1468.33 Q2282.68 1477.06 2279.61 1481.67 Q2276.55 1486.25 2270.74 1486.25 Q2264.93 1486.25 2261.85 1481.67 Q2258.8 1477.06 2258.8 1468.33 Q2258.8 1459.58 2261.85 1455 Q2264.93 1450.39 2270.74 1450.39 Z" fill="#000000" fill-rule="nonzero" fill-opacity="1" /><path clip-path="url(#clip880)" d="M2290.9 1479.7 L2295.79 1479.7 L2295.79 1485.58 L2290.9 1485.58 L2290.9 1479.7 Z" fill="#000000" fill-rule="nonzero" fill-opacity="1" /><path clip-path="url(#clip880)" d="M2306.78 1481.64 L2314.42 1481.64 L2314.42 1455.28 L2306.11 1456.95 L2306.11 1452.69 L2314.37 1451.02 L2319.05 1451.02 L2319.05 1481.64 L2326.69 1481.64 L2326.69 1485.58 L2306.78 1485.58 L2306.78 1481.64 Z" fill="#000000" fill-rule="nonzero" fill-opacity="1" /><path clip-path="url(#clip880)" d="M2346.13 1454.1 Q2342.52 1454.1 2340.69 1457.66 Q2338.89 1461.2 2338.89 1468.33 Q2338.89 1475.44 2340.69 1479.01 Q2342.52 1482.55 2346.13 1482.55 Q2349.77 1482.55 2351.57 1479.01 Q2353.4 1475.44 2353.4 1468.33 Q2353.4 1461.2 2351.57 1457.66 Q2349.77 1454.1 2346.13 1454.1 M2346.13 1450.39 Q2351.94 1450.39 2355 1455 Q2358.08 1459.58 2358.08 1468.33 Q2358.08 1477.06 2355 1481.67 Q2351.94 1486.25 2346.13 1486.25 Q2340.32 1486.25 2337.24 1481.67 Q2334.19 1477.06 2334.19 1468.33 Q2334.19 1459.58 2337.24 1455 Q2340.32 1450.39 2346.13 1450.39 Z" fill="#000000" fill-rule="nonzero" fill-opacity="1" /><path clip-path="url(#clip880)" d="M1015.82 1520.52 L1043.13 1520.52 L1043.13 1525.93 L1022.25 1525.93 L1022.25 1539.94 L1041.09 1539.94 L1041.09 1545.35 L1022.25 1545.35 L1022.25 1568.04 L1015.82 1568.04 L1015.82 1520.52 Z" fill="#000000" fill-rule="nonzero" fill-opacity="1" /><path clip-path="url(#clip880)" d="M1068.97 1537.87 Q1067.98 1537.3 1066.81 1537.04 Q1065.66 1536.76 1064.26 1536.76 Q1059.3 1536.76 1056.62 1540 Q1053.98 1543.22 1053.98 1549.27 L1053.98 1568.04 L1048.09 1568.04 L1048.09 1532.4 L1053.98 1532.4 L1053.98 1537.93 Q1055.83 1534.69 1058.79 1533.13 Q1061.75 1531.54 1065.98 1531.54 Q1066.58 1531.54 1067.32 1531.63 Q1068.05 1531.7 1068.94 1531.85 L1068.97 1537.87 Z" fill="#000000" fill-rule="nonzero" fill-opacity="1" /><path clip-path="url(#clip880)" d="M1104.17 1548.76 L1104.17 1551.62 L1077.25 1551.62 Q1077.63 1557.67 1080.88 1560.85 Q1084.15 1564 1089.98 1564 Q1093.35 1564 1096.5 1563.17 Q1099.69 1562.35 1102.81 1560.69 L1102.81 1566.23 Q1099.65 1567.57 1096.34 1568.27 Q1093.03 1568.97 1089.63 1568.97 Q1081.1 1568.97 1076.1 1564 Q1071.14 1559.04 1071.14 1550.57 Q1071.14 1541.82 1075.85 1536.69 Q1080.59 1531.54 1088.61 1531.54 Q1095.8 1531.54 1099.97 1536.18 Q1104.17 1540.8 1104.17 1548.76 M1098.32 1547.04 Q1098.25 1542.23 1095.61 1539.37 Q1093 1536.5 1088.67 1536.5 Q1083.77 1536.5 1080.81 1539.27 Q1077.88 1542.04 1077.44 1547.07 L1098.32 1547.04 Z" fill="#000000" fill-rule="nonzero" fill-opacity="1" /><path clip-path="url(#clip880)" d="M1117.29 1550.25 Q1117.29 1556.71 1119.93 1560.4 Q1122.6 1564.07 1127.25 1564.07 Q1131.9 1564.07 1134.57 1560.4 Q1137.24 1556.71 1137.24 1550.25 Q1137.24 1543.79 1134.57 1540.13 Q1131.9 1536.44 1127.25 1536.44 Q1122.6 1536.44 1119.93 1540.13 Q1117.29 1543.79 1117.29 1550.25 M1137.24 1562.7 Q1135.4 1565.88 1132.56 1567.44 Q1129.76 1568.97 1125.82 1568.97 Q1119.36 1568.97 1115.28 1563.81 Q1111.24 1558.65 1111.24 1550.25 Q1111.24 1541.85 1115.28 1536.69 Q1119.36 1531.54 1125.82 1531.54 Q1129.76 1531.54 1132.56 1533.1 Q1135.4 1534.62 1137.24 1537.81 L1137.24 1532.4 L1143.1 1532.4 L1143.1 1581.6 L1137.24 1581.6 L1137.24 1562.7 Z" fill="#000000" fill-rule="nonzero" fill-opacity="1" /><path clip-path="url(#clip880)" d="M1154.56 1553.98 L1154.56 1532.4 L1160.41 1532.4 L1160.41 1553.75 Q1160.41 1558.81 1162.39 1561.36 Q1164.36 1563.87 1168.31 1563.87 Q1173.05 1563.87 1175.79 1560.85 Q1178.56 1557.83 1178.56 1552.61 L1178.56 1532.4 L1184.41 1532.4 L1184.41 1568.04 L1178.56 1568.04 L1178.56 1562.57 Q1176.42 1565.82 1173.59 1567.41 Q1170.79 1568.97 1167.07 1568.97 Q1160.92 1568.97 1157.74 1565.15 Q1154.56 1561.33 1154.56 1553.98 M1169.29 1531.54 L1169.29 1531.54 Z" fill="#000000" fill-rule="nonzero" fill-opacity="1" /><path clip-path="url(#clip880)" d="M1226.97 1548.76 L1226.97 1551.62 L1200.04 1551.62 Q1200.42 1557.67 1203.67 1560.85 Q1206.95 1564 1212.77 1564 Q1216.15 1564 1219.3 1563.17 Q1222.48 1562.35 1225.6 1560.69 L1225.6 1566.23 Q1222.45 1567.57 1219.14 1568.27 Q1215.83 1568.97 1212.42 1568.97 Q1203.89 1568.97 1198.9 1564 Q1193.93 1559.04 1193.93 1550.57 Q1193.93 1541.82 1198.64 1536.69 Q1203.38 1531.54 1211.4 1531.54 Q1218.6 1531.54 1222.77 1536.18 Q1226.97 1540.8 1226.97 1548.76 M1221.11 1547.04 Q1221.05 1542.23 1218.41 1539.37 Q1215.8 1536.5 1211.47 1536.5 Q1206.57 1536.5 1203.61 1539.27 Q1200.68 1542.04 1200.23 1547.07 L1221.11 1547.04 Z" fill="#000000" fill-rule="nonzero" fill-opacity="1" /><path clip-path="url(#clip880)" d="M1266.21 1546.53 L1266.21 1568.04 L1260.36 1568.04 L1260.36 1546.72 Q1260.36 1541.66 1258.38 1539.14 Q1256.41 1536.63 1252.46 1536.63 Q1247.72 1536.63 1244.98 1539.65 Q1242.25 1542.68 1242.25 1547.9 L1242.25 1568.04 L1236.36 1568.04 L1236.36 1532.4 L1242.25 1532.4 L1242.25 1537.93 Q1244.35 1534.72 1247.18 1533.13 Q1250.04 1531.54 1253.77 1531.54 Q1259.91 1531.54 1263.06 1535.36 Q1266.21 1539.14 1266.21 1546.53 Z" fill="#000000" fill-rule="nonzero" fill-opacity="1" /><path clip-path="url(#clip880)" d="M1303.55 1533.76 L1303.55 1539.24 Q1301.07 1537.87 1298.55 1537.2 Q1296.07 1536.5 1293.52 1536.5 Q1287.82 1536.5 1284.67 1540.13 Q1281.52 1543.73 1281.52 1550.25 Q1281.52 1556.78 1284.67 1560.4 Q1287.82 1564 1293.52 1564 Q1296.07 1564 1298.55 1563.33 Q1301.07 1562.63 1303.55 1561.26 L1303.55 1566.68 Q1301.1 1567.82 1298.46 1568.39 Q1295.85 1568.97 1292.89 1568.97 Q1284.83 1568.97 1280.09 1563.91 Q1275.35 1558.85 1275.35 1550.25 Q1275.35 1541.53 1280.12 1536.53 Q1284.93 1531.54 1293.27 1531.54 Q1295.97 1531.54 1298.55 1532.11 Q1301.13 1532.65 1303.55 1533.76 Z" fill="#000000" fill-rule="nonzero" fill-opacity="1" /><path clip-path="url(#clip880)" d="M1313.73 1532.4 L1319.59 1532.4 L1319.59 1568.04 L1313.73 1568.04 L1313.73 1532.4 M1313.73 1518.52 L1319.59 1518.52 L1319.59 1525.93 L1313.73 1525.93 L1313.73 1518.52 Z" fill="#000000" fill-rule="nonzero" fill-opacity="1" /><path clip-path="url(#clip880)" d="M1362.33 1548.76 L1362.33 1551.62 L1335.41 1551.62 Q1335.79 1557.67 1339.04 1560.85 Q1342.31 1564 1348.14 1564 Q1351.51 1564 1354.66 1563.17 Q1357.85 1562.35 1360.97 1560.69 L1360.97 1566.23 Q1357.82 1567.57 1354.51 1568.27 Q1351.19 1568.97 1347.79 1568.97 Q1339.26 1568.97 1334.26 1564 Q1329.3 1559.04 1329.3 1550.57 Q1329.3 1541.82 1334.01 1536.69 Q1338.75 1531.54 1346.77 1531.54 Q1353.96 1531.54 1358.13 1536.18 Q1362.33 1540.8 1362.33 1548.76 M1356.48 1547.04 Q1356.41 1542.23 1353.77 1539.37 Q1351.16 1536.5 1346.83 1536.5 Q1341.93 1536.5 1338.97 1539.27 Q1336.04 1542.04 1335.6 1547.07 L1356.48 1547.04 Z" fill="#000000" fill-rule="nonzero" fill-opacity="1" /><path clip-path="url(#clip880)" d="M1394.67 1533.45 L1394.67 1538.98 Q1392.19 1537.71 1389.52 1537.07 Q1386.84 1536.44 1383.98 1536.44 Q1379.62 1536.44 1377.42 1537.77 Q1375.26 1539.11 1375.26 1541.79 Q1375.26 1543.82 1376.82 1545 Q1378.38 1546.15 1383.09 1547.2 L1385.09 1547.64 Q1391.33 1548.98 1393.94 1551.43 Q1396.58 1553.85 1396.58 1558.21 Q1396.58 1563.17 1392.64 1566.07 Q1388.72 1568.97 1381.85 1568.97 Q1378.98 1568.97 1375.86 1568.39 Q1372.77 1567.85 1369.34 1566.74 L1369.34 1560.69 Q1372.58 1562.38 1375.73 1563.24 Q1378.89 1564.07 1381.97 1564.07 Q1386.11 1564.07 1388.34 1562.66 Q1390.57 1561.23 1390.57 1558.65 Q1390.57 1556.27 1388.94 1554.99 Q1387.35 1553.72 1381.91 1552.54 L1379.87 1552.07 Q1374.43 1550.92 1372.01 1548.56 Q1369.59 1546.18 1369.59 1542.04 Q1369.59 1537.01 1373.16 1534.27 Q1376.72 1531.54 1383.28 1531.54 Q1386.52 1531.54 1389.39 1532.01 Q1392.25 1532.49 1394.67 1533.45 Z" fill="#000000" fill-rule="nonzero" fill-opacity="1" /><path clip-path="url(#clip880)" d="M1426.09 1518.52 L1439.58 1518.52 L1439.58 1523.07 L1431.94 1523.07 L1431.94 1572.09 L1439.58 1572.09 L1439.58 1576.64 L1426.09 1576.64 L1426.09 1518.52 Z" fill="#000000" fill-rule="nonzero" fill-opacity="1" /><path clip-path="url(#clip880)" d="M1484.72 1561.26 L1484.72 1548.5 L1474.21 1548.5 L1474.21 1543.22 L1491.08 1543.22 L1491.08 1563.62 Q1487.36 1566.26 1482.87 1567.63 Q1478.38 1568.97 1473.29 1568.97 Q1462.15 1568.97 1455.85 1562.47 Q1449.58 1555.95 1449.58 1544.33 Q1449.58 1532.68 1455.85 1526.19 Q1462.15 1519.66 1473.29 1519.66 Q1477.94 1519.66 1482.11 1520.81 Q1486.31 1521.96 1489.84 1524.18 L1489.84 1531.03 Q1486.28 1528 1482.26 1526.48 Q1478.25 1524.95 1473.83 1524.95 Q1465.11 1524.95 1460.72 1529.82 Q1456.36 1534.69 1456.36 1544.33 Q1456.36 1553.94 1460.72 1558.81 Q1465.11 1563.68 1473.83 1563.68 Q1477.24 1563.68 1479.91 1563.11 Q1482.58 1562.51 1484.72 1561.26 Z" fill="#000000" fill-rule="nonzero" fill-opacity="1" /><path clip-path="url(#clip880)" d="M1502.83 1520.52 L1509.26 1520.52 L1509.26 1540 L1532.62 1540 L1532.62 1520.52 L1539.05 1520.52 L1539.05 1568.04 L1532.62 1568.04 L1532.62 1545.41 L1509.26 1545.41 L1509.26 1568.04 L1502.83 1568.04 L1502.83 1520.52 Z" fill="#000000" fill-rule="nonzero" fill-opacity="1" /><path clip-path="url(#clip880)" d="M1549.04 1532.4 L1576.86 1532.4 L1576.86 1537.74 L1554.83 1563.37 L1576.86 1563.37 L1576.86 1568.04 L1548.25 1568.04 L1548.25 1562.7 L1570.27 1537.07 L1549.04 1537.07 L1549.04 1532.4 Z" fill="#000000" fill-rule="nonzero" fill-opacity="1" /><path clip-path="url(#clip880)" d="M1599.49 1518.52 L1599.49 1576.64 L1585.99 1576.64 L1585.99 1572.09 L1593.6 1572.09 L1593.6 1523.07 L1585.99 1523.07 L1585.99 1518.52 L1599.49 1518.52 Z" fill="#000000" fill-rule="nonzero" fill-opacity="1" /><polyline clip-path="url(#clip880)" style="stroke:#000000; stroke-linecap:round; stroke-linejoin:round; stroke-width:4; stroke-opacity:1; fill:none" points="262.551,1423.18 262.551,47.2441 "/>
<polyline clip-path="url(#clip880)" style="stroke:#000000; stroke-linecap:round; stroke-linejoin:round; stroke-width:4; stroke-opacity:1; fill:none" points="262.551,1206.62 281.449,1206.62 "/>
<polyline clip-path="url(#clip880)" style="stroke:#000000; stroke-linecap:round; stroke-linejoin:round; stroke-width:4; stroke-opacity:1; fill:none" points="262.551,904.784 281.449,904.784 "/>
<polyline clip-path="url(#clip880)" style="stroke:#000000; stroke-linecap:round; stroke-linejoin:round; stroke-width:4; stroke-opacity:1; fill:none" points="262.551,602.949 281.449,602.949 "/>
<polyline clip-path="url(#clip880)" style="stroke:#000000; stroke-linecap:round; stroke-linejoin:round; stroke-width:4; stroke-opacity:1; fill:none" points="262.551,301.114 281.449,301.114 "/>
<path clip-path="url(#clip880)" d="M157.13 1193.41 L145.325 1211.86 L157.13 1211.86 L157.13 1193.41 M155.903 1189.34 L161.783 1189.34 L161.783 1211.86 L166.714 1211.86 L166.714 1215.75 L161.783 1215.75 L161.783 1223.9 L157.13 1223.9 L157.13 1215.75 L141.529 1215.75 L141.529 1211.24 L155.903 1189.34 Z" fill="#000000" fill-rule="nonzero" fill-opacity="1" /><path clip-path="url(#clip880)" d="M184.445 1192.42 Q180.834 1192.42 179.005 1195.98 Q177.2 1199.52 177.2 1206.65 Q177.2 1213.76 179.005 1217.33 Q180.834 1220.87 184.445 1220.87 Q188.079 1220.87 189.885 1217.33 Q191.713 1213.76 191.713 1206.65 Q191.713 1199.52 189.885 1195.98 Q188.079 1192.42 184.445 1192.42 M184.445 1188.71 Q190.255 1188.71 193.311 1193.32 Q196.389 1197.9 196.389 1206.65 Q196.389 1215.38 193.311 1219.99 Q190.255 1224.57 184.445 1224.57 Q178.635 1224.57 175.556 1219.99 Q172.501 1215.38 172.501 1206.65 Q172.501 1197.9 175.556 1193.32 Q178.635 1188.71 184.445 1188.71 Z" fill="#000000" fill-rule="nonzero" fill-opacity="1" /><path clip-path="url(#clip880)" d="M214.607 1192.42 Q210.996 1192.42 209.167 1195.98 Q207.362 1199.52 207.362 1206.65 Q207.362 1213.76 209.167 1217.33 Q210.996 1220.87 214.607 1220.87 Q218.241 1220.87 220.047 1217.33 Q221.875 1213.76 221.875 1206.65 Q221.875 1199.52 220.047 1195.98 Q218.241 1192.42 214.607 1192.42 M214.607 1188.71 Q220.417 1188.71 223.473 1193.32 Q226.551 1197.9 226.551 1206.65 Q226.551 1215.38 223.473 1219.99 Q220.417 1224.57 214.607 1224.57 Q208.797 1224.57 205.718 1219.99 Q202.662 1215.38 202.662 1206.65 Q202.662 1197.9 205.718 1193.32 Q208.797 1188.71 214.607 1188.71 Z" fill="#000000" fill-rule="nonzero" fill-opacity="1" /><path clip-path="url(#clip880)" d="M154.862 902.921 Q151.714 902.921 149.862 905.074 Q148.033 907.226 148.033 910.976 Q148.033 914.703 149.862 916.879 Q151.714 919.032 154.862 919.032 Q158.01 919.032 159.839 916.879 Q161.69 914.703 161.69 910.976 Q161.69 907.226 159.839 905.074 Q158.01 902.921 154.862 902.921 M164.144 888.268 L164.144 892.527 Q162.385 891.694 160.579 891.254 Q158.797 890.814 157.038 890.814 Q152.408 890.814 149.954 893.939 Q147.524 897.064 147.177 903.384 Q148.542 901.37 150.603 900.305 Q152.663 899.217 155.14 899.217 Q160.348 899.217 163.357 902.388 Q166.39 905.537 166.39 910.976 Q166.39 916.3 163.241 919.518 Q160.093 922.736 154.862 922.736 Q148.866 922.736 145.695 918.152 Q142.524 913.546 142.524 904.819 Q142.524 896.625 146.413 891.764 Q150.302 886.879 156.853 886.879 Q158.612 886.879 160.394 887.227 Q162.2 887.574 164.144 888.268 Z" fill="#000000" fill-rule="nonzero" fill-opacity="1" /><path clip-path="url(#clip880)" d="M184.445 890.583 Q180.834 890.583 179.005 894.148 Q177.2 897.689 177.2 904.819 Q177.2 911.925 179.005 915.49 Q180.834 919.032 184.445 919.032 Q188.079 919.032 189.885 915.49 Q191.713 911.925 191.713 904.819 Q191.713 897.689 189.885 894.148 Q188.079 890.583 184.445 890.583 M184.445 886.879 Q190.255 886.879 193.311 891.486 Q196.389 896.069 196.389 904.819 Q196.389 913.546 193.311 918.152 Q190.255 922.736 184.445 922.736 Q178.635 922.736 175.556 918.152 Q172.501 913.546 172.501 904.819 Q172.501 896.069 175.556 891.486 Q178.635 886.879 184.445 886.879 Z" fill="#000000" fill-rule="nonzero" fill-opacity="1" /><path clip-path="url(#clip880)" d="M214.607 890.583 Q210.996 890.583 209.167 894.148 Q207.362 897.689 207.362 904.819 Q207.362 911.925 209.167 915.49 Q210.996 919.032 214.607 919.032 Q218.241 919.032 220.047 915.49 Q221.875 911.925 221.875 904.819 Q221.875 897.689 220.047 894.148 Q218.241 890.583 214.607 890.583 M214.607 886.879 Q220.417 886.879 223.473 891.486 Q226.551 896.069 226.551 904.819 Q226.551 913.546 223.473 918.152 Q220.417 922.736 214.607 922.736 Q208.797 922.736 205.718 918.152 Q202.662 913.546 202.662 904.819 Q202.662 896.069 205.718 891.486 Q208.797 886.879 214.607 886.879 Z" fill="#000000" fill-rule="nonzero" fill-opacity="1" /><path clip-path="url(#clip880)" d="M154.283 603.817 Q150.95 603.817 149.028 605.599 Q147.13 607.382 147.13 610.507 Q147.13 613.632 149.028 615.414 Q150.95 617.197 154.283 617.197 Q157.616 617.197 159.538 615.414 Q161.459 613.609 161.459 610.507 Q161.459 607.382 159.538 605.599 Q157.64 603.817 154.283 603.817 M149.607 601.826 Q146.598 601.086 144.908 599.025 Q143.241 596.965 143.241 594.002 Q143.241 589.859 146.181 587.451 Q149.144 585.044 154.283 585.044 Q159.445 585.044 162.385 587.451 Q165.325 589.859 165.325 594.002 Q165.325 596.965 163.635 599.025 Q161.968 601.086 158.982 601.826 Q162.362 602.613 164.237 604.905 Q166.135 607.197 166.135 610.507 Q166.135 615.53 163.056 618.215 Q160.001 620.9 154.283 620.9 Q148.566 620.9 145.487 618.215 Q142.431 615.53 142.431 610.507 Q142.431 607.197 144.329 604.905 Q146.228 602.613 149.607 601.826 M147.894 594.442 Q147.894 597.127 149.561 598.632 Q151.251 600.137 154.283 600.137 Q157.292 600.137 158.982 598.632 Q160.695 597.127 160.695 594.442 Q160.695 591.757 158.982 590.252 Q157.292 588.748 154.283 588.748 Q151.251 588.748 149.561 590.252 Q147.894 591.757 147.894 594.442 Z" fill="#000000" fill-rule="nonzero" fill-opacity="1" /><path clip-path="url(#clip880)" d="M184.445 588.748 Q180.834 588.748 179.005 592.312 Q177.2 595.854 177.2 602.984 Q177.2 610.09 179.005 613.655 Q180.834 617.197 184.445 617.197 Q188.079 617.197 189.885 613.655 Q191.713 610.09 191.713 602.984 Q191.713 595.854 189.885 592.312 Q188.079 588.748 184.445 588.748 M184.445 585.044 Q190.255 585.044 193.311 589.65 Q196.389 594.234 196.389 602.984 Q196.389 611.711 193.311 616.317 Q190.255 620.9 184.445 620.9 Q178.635 620.9 175.556 616.317 Q172.501 611.711 172.501 602.984 Q172.501 594.234 175.556 589.65 Q178.635 585.044 184.445 585.044 Z" fill="#000000" fill-rule="nonzero" fill-opacity="1" /><path clip-path="url(#clip880)" d="M214.607 588.748 Q210.996 588.748 209.167 592.312 Q207.362 595.854 207.362 602.984 Q207.362 610.09 209.167 613.655 Q210.996 617.197 214.607 617.197 Q218.241 617.197 220.047 613.655 Q221.875 610.09 221.875 602.984 Q221.875 595.854 220.047 592.312 Q218.241 588.748 214.607 588.748 M214.607 585.044 Q220.417 585.044 223.473 589.65 Q226.551 594.234 226.551 602.984 Q226.551 611.711 223.473 616.317 Q220.417 620.9 214.607 620.9 Q208.797 620.9 205.718 616.317 Q202.662 611.711 202.662 602.984 Q202.662 594.234 205.718 589.65 Q208.797 585.044 214.607 585.044 Z" fill="#000000" fill-rule="nonzero" fill-opacity="1" /><path clip-path="url(#clip880)" d="M114.931 314.458 L122.57 314.458 L122.57 288.093 L114.26 289.76 L114.26 285.5 L122.524 283.834 L127.2 283.834 L127.2 314.458 L134.839 314.458 L134.839 318.394 L114.931 318.394 L114.931 314.458 Z" fill="#000000" fill-rule="nonzero" fill-opacity="1" /><path clip-path="url(#clip880)" d="M154.283 286.912 Q150.672 286.912 148.843 290.477 Q147.038 294.019 147.038 301.148 Q147.038 308.255 148.843 311.82 Q150.672 315.361 154.283 315.361 Q157.917 315.361 159.723 311.82 Q161.552 308.255 161.552 301.148 Q161.552 294.019 159.723 290.477 Q157.917 286.912 154.283 286.912 M154.283 283.209 Q160.093 283.209 163.149 287.815 Q166.227 292.398 166.227 301.148 Q166.227 309.875 163.149 314.482 Q160.093 319.065 154.283 319.065 Q148.473 319.065 145.394 314.482 Q142.339 309.875 142.339 301.148 Q142.339 292.398 145.394 287.815 Q148.473 283.209 154.283 283.209 Z" fill="#000000" fill-rule="nonzero" fill-opacity="1" /><path clip-path="url(#clip880)" d="M184.445 286.912 Q180.834 286.912 179.005 290.477 Q177.2 294.019 177.2 301.148 Q177.2 308.255 179.005 311.82 Q180.834 315.361 184.445 315.361 Q188.079 315.361 189.885 311.82 Q191.713 308.255 191.713 301.148 Q191.713 294.019 189.885 290.477 Q188.079 286.912 184.445 286.912 M184.445 283.209 Q190.255 283.209 193.311 287.815 Q196.389 292.398 196.389 301.148 Q196.389 309.875 193.311 314.482 Q190.255 319.065 184.445 319.065 Q178.635 319.065 175.556 314.482 Q172.501 309.875 172.501 301.148 Q172.501 292.398 175.556 287.815 Q178.635 283.209 184.445 283.209 Z" fill="#000000" fill-rule="nonzero" fill-opacity="1" /><path clip-path="url(#clip880)" d="M214.607 286.912 Q210.996 286.912 209.167 290.477 Q207.362 294.019 207.362 301.148 Q207.362 308.255 209.167 311.82 Q210.996 315.361 214.607 315.361 Q218.241 315.361 220.047 311.82 Q221.875 308.255 221.875 301.148 Q221.875 294.019 220.047 290.477 Q218.241 286.912 214.607 286.912 M214.607 283.209 Q220.417 283.209 223.473 287.815 Q226.551 292.398 226.551 301.148 Q226.551 309.875 223.473 314.482 Q220.417 319.065 214.607 319.065 Q208.797 319.065 205.718 314.482 Q202.662 309.875 202.662 301.148 Q202.662 292.398 205.718 287.815 Q208.797 283.209 214.607 283.209 Z" fill="#000000" fill-rule="nonzero" fill-opacity="1" /><path clip-path="url(#clip880)" d="M41.3104 969.884 L58.7206 969.884 L58.7206 959.571 Q58.7206 954.383 56.5881 951.901 Q54.4238 949.386 49.9996 949.386 Q45.5436 949.386 43.4429 951.901 Q41.3104 954.383 41.3104 959.571 L41.3104 969.884 M21.7677 969.884 L36.0905 969.884 L36.0905 960.367 Q36.0905 955.656 34.34 953.365 Q32.5576 951.041 28.9291 951.041 Q25.3325 951.041 23.5501 953.365 Q21.7677 955.656 21.7677 960.367 L21.7677 969.884 M16.4842 976.313 L16.4842 959.89 Q16.4842 952.537 19.5397 948.559 Q22.5952 944.58 28.2289 944.58 Q32.5894 944.58 35.1675 946.617 Q37.7456 948.654 38.3822 952.601 Q39.4007 947.858 42.6472 945.248 Q45.8619 942.607 50.6998 942.607 Q57.0655 942.607 60.5348 946.935 Q64.0042 951.264 64.0042 959.253 L64.0042 976.313 L16.4842 976.313 Z" fill="#000000" fill-rule="nonzero" fill-opacity="1" /><path clip-path="url(#clip880)" d="M32.4621 918.035 Q32.4621 922.746 36.1542 925.483 Q39.8145 928.22 46.212 928.22 Q52.6095 928.22 56.3017 925.515 Q59.9619 922.778 59.9619 918.035 Q59.9619 913.356 56.2698 910.619 Q52.5777 907.882 46.212 907.882 Q39.8781 907.882 36.186 910.619 Q32.4621 913.356 32.4621 918.035 M27.4968 918.035 Q27.4968 910.396 32.4621 906.036 Q37.4273 901.675 46.212 901.675 Q54.9649 901.675 59.9619 906.036 Q64.9272 910.396 64.9272 918.035 Q64.9272 925.706 59.9619 930.066 Q54.9649 934.395 46.212 934.395 Q37.4273 934.395 32.4621 930.066 Q27.4968 925.706 27.4968 918.035 Z" fill="#000000" fill-rule="nonzero" fill-opacity="1" /><path clip-path="url(#clip880)" d="M32.4621 878.154 Q32.4621 882.865 36.1542 885.602 Q39.8145 888.339 46.212 888.339 Q52.6095 888.339 56.3017 885.634 Q59.9619 882.896 59.9619 878.154 Q59.9619 873.475 56.2698 870.738 Q52.5777 868.001 46.212 868.001 Q39.8781 868.001 36.186 870.738 Q32.4621 873.475 32.4621 878.154 M27.4968 878.154 Q27.4968 870.515 32.4621 866.155 Q37.4273 861.794 46.212 861.794 Q54.9649 861.794 59.9619 866.155 Q64.9272 870.515 64.9272 878.154 Q64.9272 885.825 59.9619 890.185 Q54.9649 894.514 46.212 894.514 Q37.4273 894.514 32.4621 890.185 Q27.4968 885.825 27.4968 878.154 Z" fill="#000000" fill-rule="nonzero" fill-opacity="1" /><path clip-path="url(#clip880)" d="M29.4065 829.361 L34.9447 829.361 Q33.6716 831.843 33.035 834.517 Q32.3984 837.191 32.3984 840.055 Q32.3984 844.416 33.7352 846.612 Q35.072 848.776 37.7456 848.776 Q39.7826 848.776 40.9603 847.217 Q42.1061 845.657 43.1565 840.946 L43.6021 838.941 Q44.9389 832.703 47.3897 830.093 Q49.8086 827.451 54.1691 827.451 Q59.1344 827.451 62.0308 831.398 Q64.9272 835.313 64.9272 842.188 Q64.9272 845.052 64.3543 848.171 Q63.8132 851.259 62.6992 854.696 L56.6518 854.696 Q58.3387 851.45 59.198 848.299 Q60.0256 845.148 60.0256 842.06 Q60.0256 837.923 58.6251 835.695 Q57.1929 833.467 54.6147 833.467 Q52.2276 833.467 50.9545 835.09 Q49.6813 836.681 48.5037 842.124 L48.0262 844.161 Q46.8804 849.604 44.5251 852.023 Q42.138 854.442 38.0002 854.442 Q32.9713 854.442 30.2341 850.877 Q27.4968 847.312 27.4968 840.755 Q27.4968 837.509 27.9743 834.644 Q28.4517 831.78 29.4065 829.361 Z" fill="#000000" fill-rule="nonzero" fill-opacity="1" /><path clip-path="url(#clip880)" d="M18.2347 812.333 L28.3562 812.333 L28.3562 800.269 L32.9077 800.269 L32.9077 812.333 L52.2594 812.333 Q56.6199 812.333 57.8613 811.155 Q59.1026 809.945 59.1026 806.285 L59.1026 800.269 L64.0042 800.269 L64.0042 806.285 Q64.0042 813.065 61.4897 815.643 Q58.9434 818.221 52.2594 818.221 L32.9077 818.221 L32.9077 822.518 L28.3562 822.518 L28.3562 818.221 L18.2347 818.221 L18.2347 812.333 Z" fill="#000000" fill-rule="nonzero" fill-opacity="1" /><path clip-path="url(#clip880)" d="M16.4842 771.592 L16.4842 744.283 L21.895 744.283 L21.895 765.163 L35.8996 765.163 L35.8996 746.32 L41.3104 746.32 L41.3104 765.163 L64.0042 765.163 L64.0042 771.592 L16.4842 771.592 Z" fill="#000000" fill-rule="nonzero" fill-opacity="1" /><path clip-path="url(#clip880)" d="M46.0847 724.136 Q46.0847 731.233 47.7079 733.971 Q49.3312 736.708 53.2461 736.708 Q56.3653 736.708 58.2114 734.671 Q60.0256 732.602 60.0256 729.069 Q60.0256 724.199 56.5881 721.271 Q53.1188 718.311 47.3897 718.311 L46.0847 718.311 L46.0847 724.136 M43.6657 712.455 L64.0042 712.455 L64.0042 718.311 L58.5933 718.311 Q61.8398 720.316 63.3994 723.308 Q64.9272 726.3 64.9272 730.629 Q64.9272 736.103 61.8716 739.35 Q58.7843 742.564 53.6281 742.564 Q47.6125 742.564 44.5569 738.554 Q41.5014 734.512 41.5014 726.523 L41.5014 718.311 L40.9285 718.311 Q36.8862 718.311 34.6901 720.985 Q32.4621 723.626 32.4621 728.432 Q32.4621 731.488 33.1941 734.384 Q33.9262 737.281 35.3903 739.954 L29.9795 739.954 Q28.7381 736.74 28.1334 733.716 Q27.4968 730.692 27.4968 727.828 Q27.4968 720.093 31.5072 716.274 Q35.5176 712.455 43.6657 712.455 Z" fill="#000000" fill-rule="nonzero" fill-opacity="1" /><path clip-path="url(#clip880)" d="M29.7248 674.738 L35.1993 674.738 Q33.8307 677.22 33.1623 679.735 Q32.4621 682.217 32.4621 684.764 Q32.4621 690.461 36.0905 693.612 Q39.6872 696.763 46.212 696.763 Q52.7369 696.763 56.3653 693.612 Q59.9619 690.461 59.9619 684.764 Q59.9619 682.217 59.2935 679.735 Q58.5933 677.22 57.2247 674.738 L62.6355 674.738 Q63.7814 677.189 64.3543 679.83 Q64.9272 682.44 64.9272 685.4 Q64.9272 693.453 59.8664 698.195 Q54.8057 702.938 46.212 702.938 Q37.491 702.938 32.4939 698.164 Q27.4968 693.357 27.4968 685.018 Q27.4968 682.313 28.0697 679.735 Q28.6108 677.157 29.7248 674.738 Z" fill="#000000" fill-rule="nonzero" fill-opacity="1" /><path clip-path="url(#clip880)" d="M18.2347 658.76 L28.3562 658.76 L28.3562 646.697 L32.9077 646.697 L32.9077 658.76 L52.2594 658.76 Q56.6199 658.76 57.8613 657.582 Q59.1026 656.373 59.1026 652.712 L59.1026 646.697 L64.0042 646.697 L64.0042 652.712 Q64.0042 659.492 61.4897 662.07 Q58.9434 664.648 52.2594 664.648 L32.9077 664.648 L32.9077 668.945 L28.3562 668.945 L28.3562 664.648 L18.2347 664.648 L18.2347 658.76 Z" fill="#000000" fill-rule="nonzero" fill-opacity="1" /><path clip-path="url(#clip880)" d="M32.4621 625.181 Q32.4621 629.891 36.1542 632.629 Q39.8145 635.366 46.212 635.366 Q52.6095 635.366 56.3017 632.66 Q59.9619 629.923 59.9619 625.181 Q59.9619 620.502 56.2698 617.765 Q52.5777 615.027 46.212 615.027 Q39.8781 615.027 36.186 617.765 Q32.4621 620.502 32.4621 625.181 M27.4968 625.181 Q27.4968 617.542 32.4621 613.181 Q37.4273 608.821 46.212 608.821 Q54.9649 608.821 59.9619 613.181 Q64.9272 617.542 64.9272 625.181 Q64.9272 632.851 59.9619 637.212 Q54.9649 641.541 46.212 641.541 Q37.4273 641.541 32.4621 637.212 Q27.4968 632.851 27.4968 625.181 Z" fill="#000000" fill-rule="nonzero" fill-opacity="1" /><path clip-path="url(#clip880)" d="M33.8307 578.456 Q33.2578 579.443 33.0032 580.621 Q32.7167 581.767 32.7167 583.167 Q32.7167 588.132 35.9632 590.806 Q39.1779 593.448 45.2253 593.448 L64.0042 593.448 L64.0042 599.336 L28.3562 599.336 L28.3562 593.448 L33.8944 593.448 Q30.6479 591.602 29.0883 588.642 Q27.4968 585.682 27.4968 581.448 Q27.4968 580.844 27.5923 580.112 Q27.656 579.379 27.8151 578.488 L33.8307 578.456 Z" fill="#000000" fill-rule="nonzero" fill-opacity="1" /><path clip-path="url(#clip880)" d="M61.808 545.737 L77.5631 545.737 L77.5631 551.625 L28.579 551.625 Q14.0652 551.625 14.0652 538.066 Q14.0652 524.252 26.3192 524.252 Q35.0402 524.252 38.223 529.727 Q41.0876 520.815 49.5858 520.815 Q64.6726 520.815 64.6726 536.156 Q64.6726 542.904 61.808 545.737 M54.1691 545.737 Q59.6755 542.204 59.6755 535.934 Q59.6755 526.767 49.6813 526.767 Q40.7057 526.767 41.4059 541.535 L35.995 541.535 Q35.995 529.982 25.8099 529.982 Q18.8395 529.982 18.8395 537.429 Q18.8395 545.737 28.77 545.737 L54.1691 545.737 Z" fill="#000000" fill-rule="nonzero" fill-opacity="1" /><path clip-path="url(#clip880)" d="M39.1142 507.606 L39.1142 494.111 L42.7427 494.111 L42.7427 513.144 L39.2416 513.144 Q38.2549 512.062 36.4725 510.057 Q26.7648 499.108 23.7729 499.108 Q21.6722 499.108 20.3991 500.763 Q19.0941 502.418 19.0941 505.124 Q19.0941 506.779 19.667 508.72 Q20.2081 510.662 21.3221 512.953 L17.4072 512.953 Q16.516 510.503 16.0704 508.402 Q15.6248 506.269 15.6248 504.455 Q15.6248 499.84 17.7255 497.071 Q19.8262 494.302 23.2636 494.302 Q27.6878 494.302 36.7271 504.837 Q38.2549 506.619 39.1142 507.606 Z" fill="#000000" fill-rule="nonzero" fill-opacity="1" /><polyline clip-path="url(#clip882)" style="stroke:#009af9; stroke-linecap:round; stroke-linejoin:round; stroke-width:4; stroke-opacity:1; fill:none" points="321.708,1273.98 323.682,1272.68 325.656,1271.37 327.63,1270.06 329.603,1268.74 331.577,1267.42 333.551,1266.1 335.525,1264.77 337.499,1263.43 339.473,1262.09 341.447,1260.75 343.42,1259.4 345.394,1258.05 347.368,1256.69 349.342,1255.33 351.316,1253.96 353.29,1252.59 355.264,1251.21 357.238,1249.83 359.211,1248.44 361.185,1247.05 363.159,1245.66 365.133,1244.25 367.107,1242.85 369.081,1241.44 371.055,1240.02 373.028,1238.6 375.002,1237.18 376.976,1235.74 378.95,1234.31 380.924,1232.87 382.898,1231.42 384.872,1229.97 386.846,1228.51 388.819,1227.05 390.793,1225.59 392.767,1224.11 394.741,1222.64 396.715,1221.16 398.689,1219.67 400.663,1218.18 402.636,1216.68 404.61,1215.18 406.584,1213.67 408.558,1212.15 410.532,1210.63 412.506,1209.11 414.48,1207.58 416.453,1206.05 418.427,1204.51 420.401,1202.96 422.375,1201.41 424.349,1199.85 426.323,1198.29 428.297,1196.72 430.271,1195.15 432.244,1193.57 434.218,1191.99 436.192,1190.4 438.166,1188.8 440.14,1187.2 442.114,1185.59 444.088,1183.98 446.061,1182.36 448.035,1180.74 450.009,1179.11 451.983,1177.47 453.957,1175.83 455.931,1174.18 457.905,1172.53 459.879,1170.87 461.852,1169.21 463.826,1167.54 465.8,1165.86 467.774,1164.18 469.748,1162.49 471.722,1160.8 473.696,1159.1 475.669,1157.39 477.643,1155.68 479.617,1153.96 481.591,1152.24 483.565,1150.51 485.539,1148.77 487.513,1147.03 489.486,1145.28 491.46,1143.53 493.434,1141.77 495.408,1140 497.382,1138.23 499.356,1136.45 501.33,1134.66 503.304,1132.87 505.277,1131.07 507.251,1129.27 509.225,1127.46 511.199,1125.64 513.173,1123.82 515.147,1121.99 517.121,1120.15 519.094,1118.31 521.068,1116.46 523.042,1114.6 525.016,1112.74 526.99,1110.87 528.964,1109 530.938,1107.12 532.912,1105.23 534.885,1103.33 536.859,1101.43 538.833,1099.52 540.807,1097.61 542.781,1095.69 544.755,1093.76 546.729,1091.82 548.702,1089.88 550.676,1087.93 552.65,1085.98 554.624,1084.02 556.598,1082.05 558.572,1080.07 560.546,1078.09 562.519,1076.1 564.493,1074.1 566.467,1072.1 568.441,1070.09 570.415,1068.07 572.389,1066.05 574.363,1064.02 576.337,1061.98 578.31,1059.93 580.284,1057.88 582.258,1055.82 584.232,1053.76 586.206,1051.68 588.18,1049.6 590.154,1047.52 592.127,1045.42 594.101,1043.32 596.075,1041.21 598.049,1039.09 600.023,1036.97 601.997,1034.84 603.971,1032.7 605.945,1030.56 607.918,1028.41 609.892,1026.25 611.866,1024.08 613.84,1021.9 615.814,1019.72 617.788,1017.53 619.762,1015.34 621.735,1013.13 623.709,1010.92 625.683,1008.7 627.657,1006.48 629.631,1004.24 631.605,1002 633.579,999.754 635.553,997.498 637.526,995.234 639.5,992.963 641.474,990.684 643.448,988.398 645.422,986.105 647.396,983.803 649.37,981.494 651.343,979.178 653.317,976.854 655.291,974.522 657.265,972.182 659.239,969.835 661.213,967.481 663.187,965.118 665.16,962.748 667.134,960.37 669.108,957.985 671.082,955.592 673.056,953.191 675.03,950.782 677.004,948.366 678.978,945.941 680.951,943.509 682.925,941.07 684.899,938.622 686.873,936.167 688.847,933.704 690.821,931.233 692.795,928.754 694.768,926.268 696.742,923.773 698.716,921.271 700.69,918.761 702.664,916.243 704.638,913.718 706.612,911.184 708.586,908.643 710.559,906.094 712.533,903.537 714.507,900.972 716.481,898.399 718.455,895.818 720.429,893.23 722.403,890.633 724.376,888.029 726.35,885.417 728.324,882.797 730.298,880.169 732.272,877.534 734.246,874.89 736.22,872.239 738.193,869.58 740.167,866.913 742.141,864.238 744.115,861.555 746.089,858.865 748.063,856.166 750.037,853.46 752.011,850.746 753.984,848.024 755.958,845.295 757.932,842.557 759.906,839.812 761.88,837.059 763.854,834.299 765.828,831.53 767.801,828.754 769.775,825.97 771.749,823.179 773.723,820.379 775.697,817.573 777.671,814.758 779.645,811.936 781.619,809.106 783.592,806.268 785.566,803.423 787.54,800.571 789.514,797.711 791.488,794.843 793.462,791.968 795.436,789.085 797.409,786.195 799.383,783.297 801.357,780.392 803.331,777.48 805.305,774.56 807.279,771.633 809.253,768.698 811.226,765.756 813.2,762.807 815.174,759.851 817.148,756.888 819.122,753.917 821.096,750.939 823.07,747.954 825.044,744.963 827.017,741.964 828.991,738.958 830.965,735.945 832.939,732.925 834.913,729.898 836.887,726.865 838.861,723.825 840.834,720.778 842.808,717.724 844.782,714.663 846.756,711.596 848.73,708.523 850.704,705.443 852.678,702.356 854.652,699.263 856.625,696.164 858.599,693.058 860.573,689.946 862.547,686.828 864.521,683.703 866.495,680.573 868.469,677.436 870.442,674.294 872.416,671.146 874.39,667.991 876.364,664.831 878.338,661.665 880.312,658.494 882.286,655.317 884.26,652.134 886.233,648.946 888.207,645.753 890.181,642.554 892.155,639.35 894.129,636.141 896.103,632.926 898.077,629.707 900.05,626.483 902.024,623.254 903.998,620.02 905.972,616.781 907.946,613.538 909.92,610.29 911.894,607.038 913.867,603.781 915.841,600.52 917.815,597.255 919.789,593.986 921.763,590.713 923.737,587.436 925.711,584.155 927.685,580.871 929.658,577.583 931.632,574.291 933.606,570.996 935.58,567.698 937.554,564.397 939.528,561.092 941.502,557.785 943.475,554.474 945.449,551.161 947.423,547.846 949.397,544.528 951.371,541.207 953.345,537.884 955.319,534.559 957.293,531.232 959.266,527.903 961.24,524.573 963.214,521.24 965.188,517.906 967.162,514.571 969.136,511.235 971.11,507.897 973.083,504.558 975.057,501.219 977.031,497.879 979.005,494.538 980.979,491.197 982.953,487.856 984.927,484.514 986.9,481.172 988.874,477.831 990.848,474.49 992.822,471.149 994.796,467.809 996.77,464.47 998.744,461.132 1000.72,457.795 1002.69,454.459 1004.67,451.125 1006.64,447.792 1008.61,444.461 1010.59,441.132 1012.56,437.805 1014.53,434.48 1016.51,431.158 1018.48,427.838 1020.46,424.521 1022.43,421.207 1024.4,417.896 1026.38,414.589 1028.35,411.285 1030.33,407.985 1032.3,404.689 1034.27,401.397 1036.25,398.109 1038.22,394.826 1040.19,391.547 1042.17,388.273 1044.14,385.005 1046.12,381.741 1048.09,378.483 1050.06,375.231 1052.04,371.985 1054.01,368.745 1055.99,365.511 1057.96,362.283 1059.93,359.063 1061.91,355.849 1063.88,352.642 1065.86,349.443 1067.83,346.251 1069.8,343.068 1071.78,339.892 1073.75,336.724 1075.72,333.565 1077.7,330.415 1079.67,327.273 1081.65,324.141 1083.62,321.018 1085.59,317.905 1087.57,314.802 1089.54,311.708 1091.52,308.625 1093.49,305.553 1095.46,302.491 1097.44,299.441 1099.41,296.401 1101.38,293.374 1103.36,290.357 1105.33,287.353 1107.31,284.362 1109.28,281.382 1111.25,278.416 1113.23,275.462 1115.2,272.522 1117.18,269.595 1119.15,266.682 1121.12,263.783 1123.1,260.898 1125.07,258.027 1127.04,255.172 1129.02,252.331 1130.99,249.505 1132.97,246.695 1134.94,243.901 1136.91,241.123 1138.89,238.361 1140.86,235.616 1142.84,232.887 1144.81,230.176 1146.78,227.482 1148.76,224.805 1150.73,222.146 1152.71,219.505 1154.68,216.883 1156.65,214.279 1158.63,211.694 1160.6,209.129 1162.57,206.582 1164.55,204.056 1166.52,201.549 1168.5,199.062 1170.47,196.596 1172.44,194.15 1174.42,191.726 1176.39,189.322 1178.37,186.94 1180.34,184.58 1182.31,182.242 1184.29,179.926 1186.26,177.632 1188.23,175.361 1190.21,173.114 1192.18,170.889 1194.16,168.688 1196.13,166.511 1198.1,164.357 1200.08,162.228 1202.05,160.124 1204.03,158.044 1206,155.989 1207.97,153.959 1209.95,151.955 1211.92,149.977 1213.89,148.024 1215.87,146.098 1217.84,144.198 1219.82,142.325 1221.79,140.479 1223.76,138.66 1225.74,136.868 1227.71,135.104 1229.69,133.368 1231.66,131.66 1233.63,129.98 1235.61,128.329 1237.58,126.706 1239.56,125.112 1241.53,123.548 1243.5,122.012 1245.48,120.507 1247.45,119.031 1249.42,117.585 1251.4,116.169 1253.37,114.784 1255.35,113.429 1257.32,112.105 1259.29,110.812 1261.27,109.55 1263.24,108.32 1265.22,107.121 1267.19,105.953 1269.16,104.818 1271.14,103.714 1273.11,102.643 1275.08,101.604 1277.06,100.598 1279.03,99.6247 1281.01,98.6841 1282.98,97.7765 1284.95,96.902 1286.93,96.0609 1288.9,95.2533 1290.88,94.4792 1292.85,93.7389 1294.82,93.0324 1296.8,92.36 1298.77,91.7217 1300.75,91.1176 1302.72,90.5479 1304.69,90.0127 1306.67,89.512 1308.64,89.046 1310.61,88.6149 1312.59,88.2186 1314.56,87.8573 1316.54,87.531 1318.51,87.24 1320.48,86.9841 1322.46,86.7636 1324.43,86.5784 1326.41,86.4287 1328.38,86.3145 1330.35,86.2359 1332.33,86.193 1334.3,86.1857 1336.27,86.2141 1338.25,86.2783 1340.22,86.3783 1342.2,86.5142 1344.17,86.6859 1346.14,86.8935 1348.12,87.137 1350.09,87.4165 1352.07,87.7319 1354.04,88.0832 1356.01,88.4705 1357.99,88.8937 1359.96,89.3529 1361.93,89.848 1363.91,90.379 1365.88,90.9459 1367.86,91.5486 1369.83,92.1872 1371.8,92.8616 1373.78,93.5718 1375.75,94.3177 1377.73,95.0992 1379.7,95.9164 1381.67,96.7691 1383.65,97.6573 1385.62,98.581 1387.6,99.54 1389.57,100.534 1391.54,101.564 1393.52,102.629 1395.49,103.728 1397.46,104.863 1399.44,106.032 1401.41,107.237 1403.39,108.476 1405.36,109.749 1407.33,111.057 1409.31,112.399 1411.28,113.776 1413.26,115.186 1415.23,116.63 1417.2,118.109 1419.18,119.621 1421.15,121.166 1423.12,122.745 1425.1,124.357 1427.07,126.002 1429.05,127.68 1431.02,129.391 1432.99,131.134 1434.97,132.91 1436.94,134.718 1438.92,136.558 1440.89,138.43 1442.86,140.334 1444.84,142.269 1446.81,144.236 1448.78,146.234 1450.76,148.262 1452.73,150.322 1454.71,152.412 1456.68,154.532 1458.65,156.683 1460.63,158.864 1462.6,161.074 1464.58,163.314 1466.55,165.583 1468.52,167.881 1470.5,170.208 1472.47,172.564 1474.45,174.948 1476.42,177.36 1478.39,179.8 1480.37,182.268 1482.34,184.763 1484.31,187.285 1486.29,189.835 1488.26,192.411 1490.24,195.013 1492.21,197.642 1494.18,200.297 1496.16,202.977 1498.13,205.683 1500.11,208.414 1502.08,211.17 1504.05,213.951 1506.03,216.756 1508,219.585 1509.97,222.438 1511.95,225.314 1513.92,228.214 1515.9,231.137 1517.87,234.083 1519.84,237.052 1521.82,240.042 1523.79,243.055 1525.77,246.089 1527.74,249.145 1529.71,252.222 1531.69,255.32 1533.66,258.438 1535.63,261.577 1537.61,264.735 1539.58,267.914 1541.56,271.111 1543.53,274.329 1545.5,277.564 1547.48,280.819 1549.45,284.092 1551.43,287.383 1553.4,290.692 1555.37,294.018 1557.35,297.361 1559.32,300.722 1561.3,304.099 1563.27,307.492 1565.24,310.901 1567.22,314.327 1569.19,317.767 1571.16,321.223 1573.14,324.694 1575.11,328.18 1577.09,331.68 1579.06,335.194 1581.03,338.722 1583.01,342.263 1584.98,345.818 1586.96,349.385 1588.93,352.966 1590.9,356.559 1592.88,360.164 1594.85,363.781 1596.82,367.409 1598.8,371.049 1600.77,374.7 1602.75,378.361 1604.72,382.034 1606.69,385.716 1608.67,389.409 1610.64,393.111 1612.62,396.822 1614.59,400.543 1616.56,404.273 1618.54,408.012 1620.51,411.759 1622.49,415.514 1624.46,419.277 1626.43,423.047 1628.41,426.825 1630.38,430.611 1632.35,434.403 1634.33,438.201 1636.3,442.006 1638.28,445.818 1640.25,449.635 1642.22,453.458 1644.2,457.286 1646.17,461.12 1648.15,464.958 1650.12,468.801 1652.09,472.649 1654.07,476.501 1656.04,480.356 1658.01,484.216 1659.99,488.079 1661.96,491.946 1663.94,495.816 1665.91,499.688 1667.88,503.564 1669.86,507.441 1671.83,511.321 1673.81,515.203 1675.78,519.087 1677.75,522.973 1679.73,526.859 1681.7,530.747 1683.67,534.637 1685.65,538.526 1687.62,542.417 1689.6,546.308 1691.57,550.199 1693.54,554.09 1695.52,557.981 1697.49,561.871 1699.47,565.761 1701.44,569.65 1703.41,573.539 1705.39,577.426 1707.36,581.312 1709.34,585.196 1711.31,589.079 1713.28,592.96 1715.26,596.839 1717.23,600.716 1719.2,604.591 1721.18,608.463 1723.15,612.332 1725.13,616.199 1727.1,620.063 1729.07,623.923 1731.05,627.781 1733.02,631.635 1735,635.485 1736.97,639.332 1738.94,643.174 1740.92,647.013 1742.89,650.848 1744.86,654.678 1746.84,658.504 1748.81,662.325 1750.79,666.142 1752.76,669.954 1754.73,673.761 1756.71,677.562 1758.68,681.359 1760.66,685.15 1762.63,688.936 1764.6,692.716 1766.58,696.49 1768.55,700.259 1770.52,704.022 1772.5,707.778 1774.47,711.529 1776.45,715.273 1778.42,719.011 1780.39,722.742 1782.37,726.467 1784.34,730.185 1786.32,733.896 1788.29,737.6 1790.26,741.298 1792.24,744.988 1794.21,748.671 1796.19,752.347 1798.16,756.016 1800.13,759.677 1802.11,763.33 1804.08,766.976 1806.05,770.614 1808.03,774.245 1810,777.868 1811.98,781.482 1813.95,785.089 1815.92,788.687 1817.9,792.278 1819.87,795.86 1821.85,799.434 1823.82,802.999 1825.79,806.556 1827.77,810.105 1829.74,813.645 1831.71,817.176 1833.69,820.699 1835.66,824.213 1837.64,827.718 1839.61,831.214 1841.58,834.701 1843.56,838.18 1845.53,841.649 1847.51,845.109 1849.48,848.56 1851.45,852.002 1853.43,855.435 1855.4,858.858 1857.37,862.272 1859.35,865.677 1861.32,869.072 1863.3,872.458 1865.27,875.834 1867.24,879.201 1869.22,882.558 1871.19,885.906 1873.17,889.244 1875.14,892.572 1877.11,895.891 1879.09,899.2 1881.06,902.499 1883.04,905.788 1885.01,909.068 1886.98,912.338 1888.96,915.597 1890.93,918.847 1892.9,922.087 1894.88,925.317 1896.85,928.537 1898.83,931.747 1900.8,934.947 1902.77,938.137 1904.75,941.317 1906.72,944.487 1908.7,947.647 1910.67,950.797 1912.64,953.936 1914.62,957.066 1916.59,960.185 1918.56,963.294 1920.54,966.393 1922.51,969.482 1924.49,972.561 1926.46,975.629 1928.43,978.688 1930.41,981.736 1932.38,984.774 1934.36,987.801 1936.33,990.819 1938.3,993.826 1940.28,996.823 1942.25,999.81 1944.23,1002.79 1946.2,1005.75 1948.17,1008.71 1950.15,1011.65 1952.12,1014.59 1954.09,1017.52 1956.07,1020.43 1958.04,1023.34 1960.02,1026.23 1961.99,1029.11 1963.96,1031.99 1965.94,1034.85 1967.91,1037.71 1969.89,1040.55 1971.86,1043.38 1973.83,1046.21 1975.81,1049.02 1977.78,1051.82 1979.75,1054.62 1981.73,1057.4 1983.7,1060.17 1985.68,1062.93 1987.65,1065.69 1989.62,1068.43 1991.6,1071.16 1993.57,1073.88 1995.55,1076.6 1997.52,1079.3 1999.49,1081.99 2001.47,1084.67 2003.44,1087.34 2005.41,1090.01 2007.39,1092.66 2009.36,1095.3 2011.34,1097.93 2013.31,1100.55 2015.28,1103.17 2017.26,1105.77 2019.23,1108.36 2021.21,1110.94 2023.18,1113.52 2025.15,1116.08 2027.13,1118.63 2029.1,1121.18 2031.08,1123.71 2033.05,1126.24 2035.02,1128.75 2037,1131.25 2038.97,1133.75 2040.94,1136.24 2042.92,1138.71 2044.89,1141.18 2046.87,1143.63 2048.84,1146.08 2050.81,1148.52 2052.79,1150.95 2054.76,1153.36 2056.74,1155.77 2058.71,1158.17 2060.68,1160.56 2062.66,1162.94 2064.63,1165.32 2066.6,1167.68 2068.58,1170.03 2070.55,1172.37 2072.53,1174.71 2074.5,1177.03 2076.47,1179.35 2078.45,1181.66 2080.42,1183.95 2082.4,1186.24 2084.37,1188.52 2086.34,1190.79 2088.32,1193.05 2090.29,1195.31 2092.26,1197.55 2094.24,1199.78 2096.21,1202.01 2098.19,1204.22 2100.16,1206.43 2102.13,1208.63 2104.11,1210.82 2106.08,1213 2108.06,1215.17 2110.03,1217.34 2112,1219.49 2113.98,1221.64 2115.95,1223.77 2117.93,1225.9 2119.9,1228.02 2121.87,1230.13 2123.85,1232.24 2125.82,1234.33 2127.79,1236.42 2129.77,1238.49 2131.74,1240.56 2133.72,1242.62 2135.69,1244.67 2137.66,1246.72 2139.64,1248.75 2141.61,1250.78 2143.59,1252.8 2145.56,1254.81 2147.53,1256.81 2149.51,1258.81 2151.48,1260.79 2153.45,1262.77 2155.43,1264.74 2157.4,1266.7 2159.38,1268.66 2161.35,1270.6 2163.32,1272.54 2165.3,1274.47 2167.27,1276.39 2169.25,1278.31 2171.22,1280.21 2173.19,1282.11 2175.17,1284 2177.14,1285.88 2179.11,1287.76 2181.09,1289.62 2183.06,1291.48 2185.04,1293.34 2187.01,1295.18 2188.98,1297.02 2190.96,1298.85 2192.93,1300.67 2194.91,1302.48 2196.88,1304.29 2198.85,1306.09 2200.83,1307.88 2202.8,1309.66 2204.78,1311.44 2206.75,1313.21 2208.72,1314.97 2210.7,1316.73 2212.67,1318.47 2214.64,1320.22 2216.62,1321.95 2218.59,1323.67 2220.57,1325.39 2222.54,1327.11 2224.51,1328.81 2226.49,1330.51 2228.46,1332.2 2230.44,1333.88 2232.41,1335.56 2234.38,1337.23 2236.36,1338.89 2238.33,1340.55 2240.3,1342.2 2242.28,1343.84 2244.25,1345.48 2246.23,1347.1 2248.2,1348.73 2250.17,1350.34 2252.15,1351.95 2254.12,1353.55 2256.1,1355.15 2258.07,1356.74 2260.04,1358.32 2262.02,1359.9 2263.99,1361.46 2265.97,1363.03 2267.94,1364.58 2269.91,1366.13 2271.89,1367.68 2273.86,1369.21 2275.83,1370.74 2277.81,1372.27 2279.78,1373.79 2281.76,1375.3 2283.73,1376.8 2285.7,1378.3 2287.68,1379.8 2289.65,1381.28 2291.63,1382.76 2293.6,1384.24 "/>
<path clip-path="url(#clip880)" d="M2021.63 196.789 L2283.08 196.789 L2283.08 93.1086 L2021.63 93.1086  Z" fill="#ffffff" fill-rule="evenodd" fill-opacity="1"/>
<polyline clip-path="url(#clip880)" style="stroke:#000000; stroke-linecap:round; stroke-linejoin:round; stroke-width:4; stroke-opacity:1; fill:none" points="2021.63,196.789 2283.08,196.789 2283.08,93.1086 2021.63,93.1086 2021.63,196.789 "/>
<polyline clip-path="url(#clip880)" style="stroke:#009af9; stroke-linecap:round; stroke-linejoin:round; stroke-width:4; stroke-opacity:1; fill:none" points="2044.86,144.949 2184.2,144.949 "/>
<path clip-path="url(#clip880)" d="M2221.27 164.636 Q2219.46 169.266 2217.75 170.678 Q2216.04 172.09 2213.17 172.09 L2209.77 172.09 L2209.77 168.525 L2212.27 168.525 Q2214.02 168.525 2215 167.692 Q2215.97 166.858 2217.15 163.756 L2217.91 161.812 L2207.43 136.303 L2211.94 136.303 L2220.04 156.581 L2228.15 136.303 L2232.66 136.303 L2221.27 164.636 Z" fill="#000000" fill-rule="nonzero" fill-opacity="1" /><path clip-path="url(#clip880)" d="M2239.95 158.293 L2247.59 158.293 L2247.59 131.928 L2239.28 133.595 L2239.28 129.335 L2247.54 127.669 L2252.22 127.669 L2252.22 158.293 L2259.86 158.293 L2259.86 162.229 L2239.95 162.229 L2239.95 158.293 Z" fill="#000000" fill-rule="nonzero" fill-opacity="1" /></svg>
