<?xml version="1.0" encoding="utf-8"?>
<svg xmlns="http://www.w3.org/2000/svg" xmlns:xlink="http://www.w3.org/1999/xlink" width="600" height="400" viewBox="0 0 2400 1600">
<defs>
  <clipPath id="clip310">
    <rect x="0" y="0" width="2400" height="1600"/>
  </clipPath>
</defs>
<path clip-path="url(#clip310)" d="M0 1600 L2400 1600 L2400 0 L0 0  Z" fill="#ffffff" fill-rule="evenodd" fill-opacity="1"/>
<defs>
  <clipPath id="clip311">
    <rect x="480" y="0" width="1681" height="1600"/>
  </clipPath>
</defs>
<path clip-path="url(#clip310)" d="M279.866 1423.18 L2352.76 1423.18 L2352.76 47.2441 L279.866 47.2441  Z" fill="#ffffff" fill-rule="evenodd" fill-opacity="1"/>
<defs>
  <clipPath id="clip312">
    <rect x="279" y="47" width="2074" height="1377"/>
  </clipPath>
</defs>
<polyline clip-path="url(#clip312)" style="stroke:#000000; stroke-linecap:round; stroke-linejoin:round; stroke-width:2; stroke-opacity:0.1; fill:none" points="534.088,1423.18 534.088,47.2441 "/>
<polyline clip-path="url(#clip312)" style="stroke:#000000; stroke-linecap:round; stroke-linejoin:round; stroke-width:2; stroke-opacity:0.1; fill:none" points="925.2,1423.18 925.2,47.2441 "/>
<polyline clip-path="url(#clip312)" style="stroke:#000000; stroke-linecap:round; stroke-linejoin:round; stroke-width:2; stroke-opacity:0.1; fill:none" points="1316.31,1423.18 1316.31,47.2441 "/>
<polyline clip-path="url(#clip312)" style="stroke:#000000; stroke-linecap:round; stroke-linejoin:round; stroke-width:2; stroke-opacity:0.1; fill:none" points="1707.42,1423.18 1707.42,47.2441 "/>
<polyline clip-path="url(#clip312)" style="stroke:#000000; stroke-linecap:round; stroke-linejoin:round; stroke-width:2; stroke-opacity:0.1; fill:none" points="2098.53,1423.18 2098.53,47.2441 "/>
<polyline clip-path="url(#clip312)" style="stroke:#000000; stroke-linecap:round; stroke-linejoin:round; stroke-width:2; stroke-opacity:0.1; fill:none" points="279.866,1238.57 2352.76,1238.57 "/>
<polyline clip-path="url(#clip312)" style="stroke:#000000; stroke-linecap:round; stroke-linejoin:round; stroke-width:2; stroke-opacity:0.1; fill:none" points="279.866,942.987 2352.76,942.987 "/>
<polyline clip-path="url(#clip312)" style="stroke:#000000; stroke-linecap:round; stroke-linejoin:round; stroke-width:2; stroke-opacity:0.1; fill:none" points="279.866,647.4 2352.76,647.4 "/>
<polyline clip-path="url(#clip312)" style="stroke:#000000; stroke-linecap:round; stroke-linejoin:round; stroke-width:2; stroke-opacity:0.1; fill:none" points="279.866,351.812 2352.76,351.812 "/>
<polyline clip-path="url(#clip312)" style="stroke:#000000; stroke-linecap:round; stroke-linejoin:round; stroke-width:2; stroke-opacity:0.1; fill:none" points="279.866,56.2245 2352.76,56.2245 "/>
<polyline clip-path="url(#clip310)" style="stroke:#000000; stroke-linecap:round; stroke-linejoin:round; stroke-width:4; stroke-opacity:1; fill:none" points="279.866,1423.18 2352.76,1423.18 "/>
<polyline clip-path="url(#clip310)" style="stroke:#000000; stroke-linecap:round; stroke-linejoin:round; stroke-width:4; stroke-opacity:1; fill:none" points="534.088,1423.18 534.088,1404.28 "/>
<polyline clip-path="url(#clip310)" style="stroke:#000000; stroke-linecap:round; stroke-linejoin:round; stroke-width:4; stroke-opacity:1; fill:none" points="925.2,1423.18 925.2,1404.28 "/>
<polyline clip-path="url(#clip310)" style="stroke:#000000; stroke-linecap:round; stroke-linejoin:round; stroke-width:4; stroke-opacity:1; fill:none" points="1316.31,1423.18 1316.31,1404.28 "/>
<polyline clip-path="url(#clip310)" style="stroke:#000000; stroke-linecap:round; stroke-linejoin:round; stroke-width:4; stroke-opacity:1; fill:none" points="1707.42,1423.18 1707.42,1404.28 "/>
<polyline clip-path="url(#clip310)" style="stroke:#000000; stroke-linecap:round; stroke-linejoin:round; stroke-width:4; stroke-opacity:1; fill:none" points="2098.53,1423.18 2098.53,1404.28 "/>
<path clip-path="url(#clip310)" d="M490.165 1481.64 L506.484 1481.64 L506.484 1485.58 L484.54 1485.58 L484.54 1481.64 Q487.202 1478.89 491.785 1474.26 Q496.392 1469.61 497.572 1468.27 Q499.818 1465.74 500.697 1464.01 Q501.6 1462.25 501.6 1460.56 Q501.6 1457.8 499.656 1456.07 Q497.734 1454.33 494.632 1454.33 Q492.433 1454.33 489.98 1455.09 Q487.549 1455.86 484.771 1457.41 L484.771 1452.69 Q487.595 1451.55 490.049 1450.97 Q492.503 1450.39 494.54 1450.39 Q499.91 1450.39 503.105 1453.08 Q506.299 1455.77 506.299 1460.26 Q506.299 1462.39 505.489 1464.31 Q504.702 1466.2 502.595 1468.8 Q502.017 1469.47 498.915 1472.69 Q495.813 1475.88 490.165 1481.64 Z" fill="#000000" fill-rule="nonzero" fill-opacity="1" /><path clip-path="url(#clip310)" d="M516.438 1484.86 L516.438 1480.6 Q518.197 1481.44 520.003 1481.88 Q521.808 1482.32 523.544 1482.32 Q528.174 1482.32 530.605 1479.21 Q533.058 1476.09 533.405 1469.75 Q532.063 1471.74 530.003 1472.8 Q527.942 1473.87 525.443 1473.87 Q520.257 1473.87 517.225 1470.74 Q514.216 1467.59 514.216 1462.15 Q514.216 1456.83 517.364 1453.61 Q520.512 1450.39 525.743 1450.39 Q531.739 1450.39 534.887 1455 Q538.058 1459.58 538.058 1468.33 Q538.058 1476.51 534.169 1481.39 Q530.304 1486.25 523.753 1486.25 Q521.993 1486.25 520.188 1485.9 Q518.382 1485.56 516.438 1484.86 M525.743 1470.21 Q528.892 1470.21 530.72 1468.06 Q532.572 1465.9 532.572 1462.15 Q532.572 1458.43 530.72 1456.27 Q528.892 1454.1 525.743 1454.1 Q522.595 1454.1 520.743 1456.27 Q518.915 1458.43 518.915 1462.15 Q518.915 1465.9 520.743 1468.06 Q522.595 1470.21 525.743 1470.21 Z" fill="#000000" fill-rule="nonzero" fill-opacity="1" /><path clip-path="url(#clip310)" d="M546.461 1479.7 L551.345 1479.7 L551.345 1485.58 L546.461 1485.58 L546.461 1479.7 Z" fill="#000000" fill-rule="nonzero" fill-opacity="1" /><path clip-path="url(#clip310)" d="M572.109 1466.44 Q568.961 1466.44 567.109 1468.59 Q565.28 1470.74 565.28 1474.49 Q565.28 1478.22 567.109 1480.39 Q568.961 1482.55 572.109 1482.55 Q575.257 1482.55 577.086 1480.39 Q578.938 1478.22 578.938 1474.49 Q578.938 1470.74 577.086 1468.59 Q575.257 1466.44 572.109 1466.44 M581.391 1451.78 L581.391 1456.04 Q579.632 1455.21 577.826 1454.77 Q576.044 1454.33 574.285 1454.33 Q569.655 1454.33 567.202 1457.45 Q564.771 1460.58 564.424 1466.9 Q565.79 1464.89 567.85 1463.82 Q569.91 1462.73 572.387 1462.73 Q577.595 1462.73 580.604 1465.9 Q583.637 1469.05 583.637 1474.49 Q583.637 1479.82 580.489 1483.03 Q577.34 1486.25 572.109 1486.25 Q566.114 1486.25 562.942 1481.67 Q559.771 1477.06 559.771 1468.33 Q559.771 1460.14 563.66 1455.28 Q567.549 1450.39 574.1 1450.39 Q575.859 1450.39 577.641 1450.74 Q579.447 1451.09 581.391 1451.78 Z" fill="#000000" fill-rule="nonzero" fill-opacity="1" /><path clip-path="url(#clip310)" d="M881.404 1481.64 L897.723 1481.64 L897.723 1485.58 L875.779 1485.58 L875.779 1481.64 Q878.441 1478.89 883.024 1474.26 Q887.63 1469.61 888.811 1468.27 Q891.056 1465.74 891.936 1464.01 Q892.839 1462.25 892.839 1460.56 Q892.839 1457.8 890.894 1456.07 Q888.973 1454.33 885.871 1454.33 Q883.672 1454.33 881.218 1455.09 Q878.788 1455.86 876.01 1457.41 L876.01 1452.69 Q878.834 1451.55 881.288 1450.97 Q883.742 1450.39 885.779 1450.39 Q891.149 1450.39 894.343 1453.08 Q897.538 1455.77 897.538 1460.26 Q897.538 1462.39 896.728 1464.31 Q895.941 1466.2 893.834 1468.8 Q893.255 1469.47 890.154 1472.69 Q887.052 1475.88 881.404 1481.64 Z" fill="#000000" fill-rule="nonzero" fill-opacity="1" /><path clip-path="url(#clip310)" d="M907.677 1484.86 L907.677 1480.6 Q909.436 1481.44 911.241 1481.88 Q913.047 1482.32 914.783 1482.32 Q919.413 1482.32 921.843 1479.21 Q924.297 1476.09 924.644 1469.75 Q923.301 1471.74 921.241 1472.8 Q919.181 1473.87 916.681 1473.87 Q911.496 1473.87 908.464 1470.74 Q905.454 1467.59 905.454 1462.15 Q905.454 1456.83 908.602 1453.61 Q911.751 1450.39 916.982 1450.39 Q922.977 1450.39 926.126 1455 Q929.297 1459.58 929.297 1468.33 Q929.297 1476.51 925.408 1481.39 Q921.542 1486.25 914.991 1486.25 Q913.232 1486.25 911.427 1485.9 Q909.621 1485.56 907.677 1484.86 M916.982 1470.21 Q920.13 1470.21 921.959 1468.06 Q923.811 1465.9 923.811 1462.15 Q923.811 1458.43 921.959 1456.27 Q920.13 1454.1 916.982 1454.1 Q913.834 1454.1 911.982 1456.27 Q910.153 1458.43 910.153 1462.15 Q910.153 1465.9 911.982 1468.06 Q913.834 1470.21 916.982 1470.21 Z" fill="#000000" fill-rule="nonzero" fill-opacity="1" /><path clip-path="url(#clip310)" d="M937.7 1479.7 L942.584 1479.7 L942.584 1485.58 L937.7 1485.58 L937.7 1479.7 Z" fill="#000000" fill-rule="nonzero" fill-opacity="1" /><path clip-path="url(#clip310)" d="M962.769 1469.17 Q959.436 1469.17 957.514 1470.95 Q955.616 1472.73 955.616 1475.86 Q955.616 1478.98 957.514 1480.77 Q959.436 1482.55 962.769 1482.55 Q966.102 1482.55 968.023 1480.77 Q969.945 1478.96 969.945 1475.86 Q969.945 1472.73 968.023 1470.95 Q966.125 1469.17 962.769 1469.17 M958.093 1467.18 Q955.084 1466.44 953.394 1464.38 Q951.727 1462.32 951.727 1459.35 Q951.727 1455.21 954.667 1452.8 Q957.63 1450.39 962.769 1450.39 Q967.931 1450.39 970.871 1452.8 Q973.81 1455.21 973.81 1459.35 Q973.81 1462.32 972.121 1464.38 Q970.454 1466.44 967.468 1467.18 Q970.848 1467.96 972.723 1470.26 Q974.621 1472.55 974.621 1475.86 Q974.621 1480.88 971.542 1483.57 Q968.486 1486.25 962.769 1486.25 Q957.051 1486.25 953.973 1483.57 Q950.917 1480.88 950.917 1475.86 Q950.917 1472.55 952.815 1470.26 Q954.713 1467.96 958.093 1467.18 M956.38 1459.79 Q956.38 1462.48 958.047 1463.98 Q959.736 1465.49 962.769 1465.49 Q965.778 1465.49 967.468 1463.98 Q969.181 1462.48 969.181 1459.79 Q969.181 1457.11 967.468 1455.6 Q965.778 1454.1 962.769 1454.1 Q959.736 1454.1 958.047 1455.6 Q956.38 1457.11 956.38 1459.79 Z" fill="#000000" fill-rule="nonzero" fill-opacity="1" /><path clip-path="url(#clip310)" d="M1282.54 1466.95 Q1285.89 1467.66 1287.77 1469.93 Q1289.67 1472.2 1289.67 1475.53 Q1289.67 1480.65 1286.15 1483.45 Q1282.63 1486.25 1276.15 1486.25 Q1273.97 1486.25 1271.66 1485.81 Q1269.37 1485.39 1266.91 1484.54 L1266.91 1480.02 Q1268.86 1481.16 1271.17 1481.74 Q1273.49 1482.32 1276.01 1482.32 Q1280.41 1482.32 1282.7 1480.58 Q1285.01 1478.84 1285.01 1475.53 Q1285.01 1472.48 1282.86 1470.77 Q1280.73 1469.03 1276.91 1469.03 L1272.89 1469.03 L1272.89 1465.19 L1277.1 1465.19 Q1280.55 1465.19 1282.38 1463.82 Q1284.2 1462.43 1284.2 1459.84 Q1284.2 1457.18 1282.31 1455.77 Q1280.43 1454.33 1276.91 1454.33 Q1274.99 1454.33 1272.79 1454.75 Q1270.59 1455.16 1267.95 1456.04 L1267.95 1451.88 Q1270.62 1451.14 1272.93 1450.77 Q1275.27 1450.39 1277.33 1450.39 Q1282.65 1450.39 1285.76 1452.83 Q1288.86 1455.23 1288.86 1459.35 Q1288.86 1462.22 1287.21 1464.21 Q1285.57 1466.18 1282.54 1466.95 Z" fill="#000000" fill-rule="nonzero" fill-opacity="1" /><path clip-path="url(#clip310)" d="M1308.53 1454.1 Q1304.92 1454.1 1303.09 1457.66 Q1301.29 1461.2 1301.29 1468.33 Q1301.29 1475.44 1303.09 1479.01 Q1304.92 1482.55 1308.53 1482.55 Q1312.17 1482.55 1313.97 1479.01 Q1315.8 1475.44 1315.8 1468.33 Q1315.8 1461.2 1313.97 1457.66 Q1312.17 1454.1 1308.53 1454.1 M1308.53 1450.39 Q1314.34 1450.39 1317.4 1455 Q1320.48 1459.58 1320.48 1468.33 Q1320.48 1477.06 1317.4 1481.67 Q1314.34 1486.25 1308.53 1486.25 Q1302.72 1486.25 1299.64 1481.67 Q1296.59 1477.06 1296.59 1468.33 Q1296.59 1459.58 1299.64 1455 Q1302.72 1450.39 1308.53 1450.39 Z" fill="#000000" fill-rule="nonzero" fill-opacity="1" /><path clip-path="url(#clip310)" d="M1328.7 1479.7 L1333.58 1479.7 L1333.58 1485.58 L1328.7 1485.58 L1328.7 1479.7 Z" fill="#000000" fill-rule="nonzero" fill-opacity="1" /><path clip-path="url(#clip310)" d="M1353.76 1454.1 Q1350.15 1454.1 1348.32 1457.66 Q1346.52 1461.2 1346.52 1468.33 Q1346.52 1475.44 1348.32 1479.01 Q1350.15 1482.55 1353.76 1482.55 Q1357.4 1482.55 1359.2 1479.01 Q1361.03 1475.44 1361.03 1468.33 Q1361.03 1461.2 1359.2 1457.66 Q1357.4 1454.1 1353.76 1454.1 M1353.76 1450.39 Q1359.57 1450.39 1362.63 1455 Q1365.71 1459.58 1365.71 1468.33 Q1365.71 1477.06 1362.63 1481.67 Q1359.57 1486.25 1353.76 1486.25 Q1347.95 1486.25 1344.88 1481.67 Q1341.82 1477.06 1341.82 1468.33 Q1341.82 1459.58 1344.88 1455 Q1347.95 1450.39 1353.76 1450.39 Z" fill="#000000" fill-rule="nonzero" fill-opacity="1" /><path clip-path="url(#clip310)" d="M1674.45 1466.95 Q1677.8 1467.66 1679.68 1469.93 Q1681.58 1472.2 1681.58 1475.53 Q1681.58 1480.65 1678.06 1483.45 Q1674.54 1486.25 1668.06 1486.25 Q1665.88 1486.25 1663.57 1485.81 Q1661.28 1485.39 1658.82 1484.54 L1658.82 1480.02 Q1660.77 1481.16 1663.08 1481.74 Q1665.4 1482.32 1667.92 1482.32 Q1672.32 1482.32 1674.61 1480.58 Q1676.92 1478.84 1676.92 1475.53 Q1676.92 1472.48 1674.77 1470.77 Q1672.64 1469.03 1668.82 1469.03 L1664.8 1469.03 L1664.8 1465.19 L1669.01 1465.19 Q1672.46 1465.19 1674.29 1463.82 Q1676.11 1462.43 1676.11 1459.84 Q1676.11 1457.18 1674.22 1455.77 Q1672.34 1454.33 1668.82 1454.33 Q1666.9 1454.33 1664.7 1454.75 Q1662.5 1455.16 1659.86 1456.04 L1659.86 1451.88 Q1662.53 1451.14 1664.84 1450.77 Q1667.18 1450.39 1669.24 1450.39 Q1674.56 1450.39 1677.67 1452.83 Q1680.77 1455.23 1680.77 1459.35 Q1680.77 1462.22 1679.12 1464.21 Q1677.48 1466.18 1674.45 1466.95 Z" fill="#000000" fill-rule="nonzero" fill-opacity="1" /><path clip-path="url(#clip310)" d="M1700.44 1454.1 Q1696.83 1454.1 1695 1457.66 Q1693.2 1461.2 1693.2 1468.33 Q1693.2 1475.44 1695 1479.01 Q1696.83 1482.55 1700.44 1482.55 Q1704.08 1482.55 1705.88 1479.01 Q1707.71 1475.44 1707.71 1468.33 Q1707.71 1461.2 1705.88 1457.66 Q1704.08 1454.1 1700.44 1454.1 M1700.44 1450.39 Q1706.25 1450.39 1709.31 1455 Q1712.39 1459.58 1712.39 1468.33 Q1712.39 1477.06 1709.31 1481.67 Q1706.25 1486.25 1700.44 1486.25 Q1694.63 1486.25 1691.55 1481.67 Q1688.5 1477.06 1688.5 1468.33 Q1688.5 1459.58 1691.55 1455 Q1694.63 1450.39 1700.44 1450.39 Z" fill="#000000" fill-rule="nonzero" fill-opacity="1" /><path clip-path="url(#clip310)" d="M1720.61 1479.7 L1725.49 1479.7 L1725.49 1485.58 L1720.61 1485.58 L1720.61 1479.7 Z" fill="#000000" fill-rule="nonzero" fill-opacity="1" /><path clip-path="url(#clip310)" d="M1739.7 1481.64 L1756.02 1481.64 L1756.02 1485.58 L1734.08 1485.58 L1734.08 1481.64 Q1736.74 1478.89 1741.32 1474.26 Q1745.93 1469.61 1747.11 1468.27 Q1749.35 1465.74 1750.23 1464.01 Q1751.14 1462.25 1751.14 1460.56 Q1751.14 1457.8 1749.19 1456.07 Q1747.27 1454.33 1744.17 1454.33 Q1741.97 1454.33 1739.52 1455.09 Q1737.09 1455.86 1734.31 1457.41 L1734.31 1452.69 Q1737.13 1451.55 1739.59 1450.97 Q1742.04 1450.39 1744.08 1450.39 Q1749.45 1450.39 1752.64 1453.08 Q1755.84 1455.77 1755.84 1460.26 Q1755.84 1462.39 1755.03 1464.31 Q1754.24 1466.2 1752.13 1468.8 Q1751.55 1469.47 1748.45 1472.69 Q1745.35 1475.88 1739.7 1481.64 Z" fill="#000000" fill-rule="nonzero" fill-opacity="1" /><path clip-path="url(#clip310)" d="M2064.52 1466.95 Q2067.87 1467.66 2069.75 1469.93 Q2071.65 1472.2 2071.65 1475.53 Q2071.65 1480.65 2068.13 1483.45 Q2064.61 1486.25 2058.13 1486.25 Q2055.95 1486.25 2053.64 1485.81 Q2051.35 1485.39 2048.89 1484.54 L2048.89 1480.02 Q2050.84 1481.16 2053.15 1481.74 Q2055.47 1482.32 2057.99 1482.32 Q2062.39 1482.32 2064.68 1480.58 Q2066.99 1478.84 2066.99 1475.53 Q2066.99 1472.48 2064.84 1470.77 Q2062.71 1469.03 2058.89 1469.03 L2054.86 1469.03 L2054.86 1465.19 L2059.08 1465.19 Q2062.53 1465.19 2064.36 1463.82 Q2066.18 1462.43 2066.18 1459.84 Q2066.18 1457.18 2064.29 1455.77 Q2062.41 1454.33 2058.89 1454.33 Q2056.97 1454.33 2054.77 1454.75 Q2052.57 1455.16 2049.93 1456.04 L2049.93 1451.88 Q2052.6 1451.14 2054.91 1450.77 Q2057.25 1450.39 2059.31 1450.39 Q2064.63 1450.39 2067.74 1452.83 Q2070.84 1455.23 2070.84 1459.35 Q2070.84 1462.22 2069.19 1464.21 Q2067.55 1466.18 2064.52 1466.95 Z" fill="#000000" fill-rule="nonzero" fill-opacity="1" /><path clip-path="url(#clip310)" d="M2090.51 1454.1 Q2086.9 1454.1 2085.07 1457.66 Q2083.27 1461.2 2083.27 1468.33 Q2083.27 1475.44 2085.07 1479.01 Q2086.9 1482.55 2090.51 1482.55 Q2094.15 1482.55 2095.95 1479.01 Q2097.78 1475.44 2097.78 1468.33 Q2097.78 1461.2 2095.95 1457.66 Q2094.15 1454.1 2090.51 1454.1 M2090.51 1450.39 Q2096.32 1450.39 2099.38 1455 Q2102.46 1459.58 2102.46 1468.33 Q2102.46 1477.06 2099.38 1481.67 Q2096.32 1486.25 2090.51 1486.25 Q2084.7 1486.25 2081.62 1481.67 Q2078.57 1477.06 2078.57 1468.33 Q2078.57 1459.58 2081.62 1455 Q2084.7 1450.39 2090.51 1450.39 Z" fill="#000000" fill-rule="nonzero" fill-opacity="1" /><path clip-path="url(#clip310)" d="M2110.67 1479.7 L2115.56 1479.7 L2115.56 1485.58 L2110.67 1485.58 L2110.67 1479.7 Z" fill="#000000" fill-rule="nonzero" fill-opacity="1" /><path clip-path="url(#clip310)" d="M2138.59 1455.09 L2126.79 1473.54 L2138.59 1473.54 L2138.59 1455.09 M2137.36 1451.02 L2143.24 1451.02 L2143.24 1473.54 L2148.17 1473.54 L2148.17 1477.43 L2143.24 1477.43 L2143.24 1485.58 L2138.59 1485.58 L2138.59 1477.43 L2122.99 1477.43 L2122.99 1472.92 L2137.36 1451.02 Z" fill="#000000" fill-rule="nonzero" fill-opacity="1" /><path clip-path="url(#clip310)" d="M1024.48 1520.52 L1051.78 1520.52 L1051.78 1525.93 L1030.9 1525.93 L1030.9 1539.94 L1049.75 1539.94 L1049.75 1545.35 L1030.9 1545.35 L1030.9 1568.04 L1024.48 1568.04 L1024.48 1520.52 Z" fill="#000000" fill-rule="nonzero" fill-opacity="1" /><path clip-path="url(#clip310)" d="M1077.63 1537.87 Q1076.64 1537.3 1075.46 1537.04 Q1074.32 1536.76 1072.92 1536.76 Q1067.95 1536.76 1065.28 1540 Q1062.64 1543.22 1062.64 1549.27 L1062.64 1568.04 L1056.75 1568.04 L1056.75 1532.4 L1062.64 1532.4 L1062.64 1537.93 Q1064.48 1534.69 1067.44 1533.13 Q1070.4 1531.54 1074.64 1531.54 Q1075.24 1531.54 1075.97 1531.63 Q1076.71 1531.7 1077.6 1531.85 L1077.63 1537.87 Z" fill="#000000" fill-rule="nonzero" fill-opacity="1" /><path clip-path="url(#clip310)" d="M1112.83 1548.76 L1112.83 1551.62 L1085.9 1551.62 Q1086.29 1557.67 1089.53 1560.85 Q1092.81 1564 1098.64 1564 Q1102.01 1564 1105.16 1563.17 Q1108.34 1562.35 1111.46 1560.69 L1111.46 1566.23 Q1108.31 1567.57 1105 1568.27 Q1101.69 1568.97 1098.29 1568.97 Q1089.76 1568.97 1084.76 1564 Q1079.79 1559.04 1079.79 1550.57 Q1079.79 1541.82 1084.5 1536.69 Q1089.25 1531.54 1097.27 1531.54 Q1104.46 1531.54 1108.63 1536.18 Q1112.83 1540.8 1112.83 1548.76 M1106.97 1547.04 Q1106.91 1542.23 1104.27 1539.37 Q1101.66 1536.5 1097.33 1536.5 Q1092.43 1536.5 1089.47 1539.27 Q1086.54 1542.04 1086.1 1547.07 L1106.97 1547.04 Z" fill="#000000" fill-rule="nonzero" fill-opacity="1" /><path clip-path="url(#clip310)" d="M1125.94 1550.25 Q1125.94 1556.71 1128.59 1560.4 Q1131.26 1564.07 1135.91 1564.07 Q1140.55 1564.07 1143.23 1560.4 Q1145.9 1556.71 1145.9 1550.25 Q1145.9 1543.79 1143.23 1540.13 Q1140.55 1536.44 1135.91 1536.44 Q1131.26 1536.44 1128.59 1540.13 Q1125.94 1543.79 1125.94 1550.25 M1145.9 1562.7 Q1144.05 1565.88 1141.22 1567.44 Q1138.42 1568.97 1134.47 1568.97 Q1128.01 1568.97 1123.94 1563.81 Q1119.9 1558.65 1119.9 1550.25 Q1119.9 1541.85 1123.94 1536.69 Q1128.01 1531.54 1134.47 1531.54 Q1138.42 1531.54 1141.22 1533.1 Q1144.05 1534.62 1145.9 1537.81 L1145.9 1532.4 L1151.76 1532.4 L1151.76 1581.6 L1145.9 1581.6 L1145.9 1562.7 Z" fill="#000000" fill-rule="nonzero" fill-opacity="1" /><path clip-path="url(#clip310)" d="M1163.22 1553.98 L1163.22 1532.4 L1169.07 1532.4 L1169.07 1553.75 Q1169.07 1558.81 1171.05 1561.36 Q1173.02 1563.87 1176.97 1563.87 Q1181.71 1563.87 1184.45 1560.85 Q1187.21 1557.83 1187.21 1552.61 L1187.21 1532.4 L1193.07 1532.4 L1193.07 1568.04 L1187.21 1568.04 L1187.21 1562.57 Q1185.08 1565.82 1182.25 1567.41 Q1179.45 1568.97 1175.72 1568.97 Q1169.58 1568.97 1166.4 1565.15 Q1163.22 1561.33 1163.22 1553.98 M1177.95 1531.54 L1177.95 1531.54 Z" fill="#000000" fill-rule="nonzero" fill-opacity="1" /><path clip-path="url(#clip310)" d="M1235.63 1548.76 L1235.63 1551.62 L1208.7 1551.62 Q1209.08 1557.67 1212.33 1560.85 Q1215.61 1564 1221.43 1564 Q1224.8 1564 1227.95 1563.17 Q1231.14 1562.35 1234.26 1560.69 L1234.26 1566.23 Q1231.11 1567.57 1227.8 1568.27 Q1224.49 1568.97 1221.08 1568.97 Q1212.55 1568.97 1207.55 1564 Q1202.59 1559.04 1202.59 1550.57 Q1202.59 1541.82 1207.3 1536.69 Q1212.04 1531.54 1220.06 1531.54 Q1227.25 1531.54 1231.42 1536.18 Q1235.63 1540.8 1235.63 1548.76 M1229.77 1547.04 Q1229.71 1542.23 1227.06 1539.37 Q1224.45 1536.5 1220.13 1536.5 Q1215.22 1536.5 1212.26 1539.27 Q1209.34 1542.04 1208.89 1547.07 L1229.77 1547.04 Z" fill="#000000" fill-rule="nonzero" fill-opacity="1" /><path clip-path="url(#clip310)" d="M1274.87 1546.53 L1274.87 1568.04 L1269.01 1568.04 L1269.01 1546.72 Q1269.01 1541.66 1267.04 1539.14 Q1265.07 1536.63 1261.12 1536.63 Q1256.38 1536.63 1253.64 1539.65 Q1250.9 1542.68 1250.9 1547.9 L1250.9 1568.04 L1245.02 1568.04 L1245.02 1532.4 L1250.9 1532.4 L1250.9 1537.93 Q1253 1534.72 1255.84 1533.13 Q1258.7 1531.54 1262.43 1531.54 Q1268.57 1531.54 1271.72 1535.36 Q1274.87 1539.14 1274.87 1546.53 Z" fill="#000000" fill-rule="nonzero" fill-opacity="1" /><path clip-path="url(#clip310)" d="M1312.21 1533.76 L1312.21 1539.24 Q1309.72 1537.87 1307.21 1537.2 Q1304.73 1536.5 1302.18 1536.5 Q1296.48 1536.5 1293.33 1540.13 Q1290.18 1543.73 1290.18 1550.25 Q1290.18 1556.78 1293.33 1560.4 Q1296.48 1564 1302.18 1564 Q1304.73 1564 1307.21 1563.33 Q1309.72 1562.63 1312.21 1561.26 L1312.21 1566.68 Q1309.75 1567.82 1307.11 1568.39 Q1304.5 1568.97 1301.54 1568.97 Q1293.49 1568.97 1288.75 1563.91 Q1284 1558.85 1284 1550.25 Q1284 1541.53 1288.78 1536.53 Q1293.59 1531.54 1301.92 1531.54 Q1304.63 1531.54 1307.21 1532.11 Q1309.79 1532.65 1312.21 1533.76 Z" fill="#000000" fill-rule="nonzero" fill-opacity="1" /><path clip-path="url(#clip310)" d="M1322.39 1532.4 L1328.25 1532.4 L1328.25 1568.04 L1322.39 1568.04 L1322.39 1532.4 M1322.39 1518.52 L1328.25 1518.52 L1328.25 1525.93 L1322.39 1525.93 L1322.39 1518.52 Z" fill="#000000" fill-rule="nonzero" fill-opacity="1" /><path clip-path="url(#clip310)" d="M1370.99 1548.76 L1370.99 1551.62 L1344.07 1551.62 Q1344.45 1557.67 1347.69 1560.85 Q1350.97 1564 1356.8 1564 Q1360.17 1564 1363.32 1563.17 Q1366.5 1562.35 1369.62 1560.69 L1369.62 1566.23 Q1366.47 1567.57 1363.16 1568.27 Q1359.85 1568.97 1356.45 1568.97 Q1347.92 1568.97 1342.92 1564 Q1337.95 1559.04 1337.95 1550.57 Q1337.95 1541.82 1342.66 1536.69 Q1347.41 1531.54 1355.43 1531.54 Q1362.62 1531.54 1366.79 1536.18 Q1370.99 1540.8 1370.99 1548.76 M1365.14 1547.04 Q1365.07 1542.23 1362.43 1539.37 Q1359.82 1536.5 1355.49 1536.5 Q1350.59 1536.5 1347.63 1539.27 Q1344.7 1542.04 1344.26 1547.07 L1365.14 1547.04 Z" fill="#000000" fill-rule="nonzero" fill-opacity="1" /><path clip-path="url(#clip310)" d="M1403.33 1533.45 L1403.33 1538.98 Q1400.85 1537.71 1398.17 1537.07 Q1395.5 1536.44 1392.64 1536.44 Q1388.28 1536.44 1386.08 1537.77 Q1383.91 1539.11 1383.91 1541.79 Q1383.91 1543.82 1385.47 1545 Q1387.03 1546.15 1391.74 1547.2 L1393.75 1547.64 Q1399.99 1548.98 1402.6 1551.43 Q1405.24 1553.85 1405.24 1558.21 Q1405.24 1563.17 1401.29 1566.07 Q1397.38 1568.97 1390.5 1568.97 Q1387.64 1568.97 1384.52 1568.39 Q1381.43 1567.85 1377.99 1566.74 L1377.99 1560.69 Q1381.24 1562.38 1384.39 1563.24 Q1387.54 1564.07 1390.63 1564.07 Q1394.77 1564.07 1397 1562.66 Q1399.22 1561.23 1399.22 1558.65 Q1399.22 1556.27 1397.6 1554.99 Q1396.01 1553.72 1390.57 1552.54 L1388.53 1552.07 Q1383.09 1550.92 1380.67 1548.56 Q1378.25 1546.18 1378.25 1542.04 Q1378.25 1537.01 1381.81 1534.27 Q1385.38 1531.54 1391.94 1531.54 Q1395.18 1531.54 1398.05 1532.01 Q1400.91 1532.49 1403.33 1533.45 Z" fill="#000000" fill-rule="nonzero" fill-opacity="1" /><path clip-path="url(#clip310)" d="M1434.74 1518.52 L1448.24 1518.52 L1448.24 1523.07 L1440.6 1523.07 L1440.6 1572.09 L1448.24 1572.09 L1448.24 1576.64 L1434.74 1576.64 L1434.74 1518.52 Z" fill="#000000" fill-rule="nonzero" fill-opacity="1" /><path clip-path="url(#clip310)" d="M1493.37 1561.26 L1493.37 1548.5 L1482.87 1548.5 L1482.87 1543.22 L1499.74 1543.22 L1499.74 1563.62 Q1496.01 1566.26 1491.53 1567.63 Q1487.04 1568.97 1481.95 1568.97 Q1470.81 1568.97 1464.5 1562.47 Q1458.23 1555.95 1458.23 1544.33 Q1458.23 1532.68 1464.5 1526.19 Q1470.81 1519.66 1481.95 1519.66 Q1486.59 1519.66 1490.76 1520.81 Q1494.96 1521.96 1498.5 1524.18 L1498.5 1531.03 Q1494.93 1528 1490.92 1526.48 Q1486.91 1524.95 1482.49 1524.95 Q1473.77 1524.95 1469.37 1529.82 Q1465.01 1534.69 1465.01 1544.33 Q1465.01 1553.94 1469.37 1558.81 Q1473.77 1563.68 1482.49 1563.68 Q1485.89 1563.68 1488.57 1563.11 Q1491.24 1562.51 1493.37 1561.26 Z" fill="#000000" fill-rule="nonzero" fill-opacity="1" /><path clip-path="url(#clip310)" d="M1511.48 1520.52 L1517.91 1520.52 L1517.91 1540 L1541.27 1540 L1541.27 1520.52 L1547.7 1520.52 L1547.7 1568.04 L1541.27 1568.04 L1541.27 1545.41 L1517.91 1545.41 L1517.91 1568.04 L1511.48 1568.04 L1511.48 1520.52 Z" fill="#000000" fill-rule="nonzero" fill-opacity="1" /><path clip-path="url(#clip310)" d="M1557.7 1532.4 L1585.52 1532.4 L1585.52 1537.74 L1563.49 1563.37 L1585.52 1563.37 L1585.52 1568.04 L1556.9 1568.04 L1556.9 1562.7 L1578.93 1537.07 L1557.7 1537.07 L1557.7 1532.4 Z" fill="#000000" fill-rule="nonzero" fill-opacity="1" /><path clip-path="url(#clip310)" d="M1608.15 1518.52 L1608.15 1576.64 L1594.65 1576.64 L1594.65 1572.09 L1602.26 1572.09 L1602.26 1523.07 L1594.65 1523.07 L1594.65 1518.52 L1608.15 1518.52 Z" fill="#000000" fill-rule="nonzero" fill-opacity="1" /><polyline clip-path="url(#clip310)" style="stroke:#000000; stroke-linecap:round; stroke-linejoin:round; stroke-width:4; stroke-opacity:1; fill:none" points="279.866,1423.18 279.866,47.2441 "/>
<polyline clip-path="url(#clip310)" style="stroke:#000000; stroke-linecap:round; stroke-linejoin:round; stroke-width:4; stroke-opacity:1; fill:none" points="279.866,1238.57 298.764,1238.57 "/>
<polyline clip-path="url(#clip310)" style="stroke:#000000; stroke-linecap:round; stroke-linejoin:round; stroke-width:4; stroke-opacity:1; fill:none" points="279.866,942.987 298.764,942.987 "/>
<polyline clip-path="url(#clip310)" style="stroke:#000000; stroke-linecap:round; stroke-linejoin:round; stroke-width:4; stroke-opacity:1; fill:none" points="279.866,647.4 298.764,647.4 "/>
<polyline clip-path="url(#clip310)" style="stroke:#000000; stroke-linecap:round; stroke-linejoin:round; stroke-width:4; stroke-opacity:1; fill:none" points="279.866,351.812 298.764,351.812 "/>
<polyline clip-path="url(#clip310)" style="stroke:#000000; stroke-linecap:round; stroke-linejoin:round; stroke-width:4; stroke-opacity:1; fill:none" points="279.866,56.2245 298.764,56.2245 "/>
<path clip-path="url(#clip310)" d="M126.205 1224.37 Q122.593 1224.37 120.765 1227.94 Q118.959 1231.48 118.959 1238.61 Q118.959 1245.72 120.765 1249.28 Q122.593 1252.82 126.205 1252.82 Q129.839 1252.82 131.644 1249.28 Q133.473 1245.72 133.473 1238.61 Q133.473 1231.48 131.644 1227.94 Q129.839 1224.37 126.205 1224.37 M126.205 1220.67 Q132.015 1220.67 135.07 1225.28 Q138.149 1229.86 138.149 1238.61 Q138.149 1247.34 135.07 1251.94 Q132.015 1256.53 126.205 1256.53 Q120.394 1256.53 117.316 1251.94 Q114.26 1247.34 114.26 1238.61 Q114.26 1229.86 117.316 1225.28 Q120.394 1220.67 126.205 1220.67 Z" fill="#000000" fill-rule="nonzero" fill-opacity="1" /><path clip-path="url(#clip310)" d="M146.366 1249.98 L151.251 1249.98 L151.251 1255.85 L146.366 1255.85 L146.366 1249.98 Z" fill="#000000" fill-rule="nonzero" fill-opacity="1" /><path clip-path="url(#clip310)" d="M161.575 1255.14 L161.575 1250.88 Q163.334 1251.71 165.14 1252.15 Q166.945 1252.59 168.681 1252.59 Q173.311 1252.59 175.741 1249.49 Q178.195 1246.36 178.542 1240.02 Q177.2 1242.01 175.139 1243.08 Q173.079 1244.14 170.579 1244.14 Q165.394 1244.14 162.362 1241.02 Q159.353 1237.87 159.353 1232.43 Q159.353 1227.1 162.501 1223.89 Q165.649 1220.67 170.88 1220.67 Q176.876 1220.67 180.024 1225.28 Q183.195 1229.86 183.195 1238.61 Q183.195 1246.78 179.306 1251.66 Q175.44 1256.53 168.889 1256.53 Q167.13 1256.53 165.325 1256.18 Q163.519 1255.83 161.575 1255.14 M170.88 1240.48 Q174.028 1240.48 175.857 1238.33 Q177.709 1236.18 177.709 1232.43 Q177.709 1228.7 175.857 1226.55 Q174.028 1224.37 170.88 1224.37 Q167.732 1224.37 165.88 1226.55 Q164.052 1228.7 164.052 1232.43 Q164.052 1236.18 165.88 1238.33 Q167.732 1240.48 170.88 1240.48 Z" fill="#000000" fill-rule="nonzero" fill-opacity="1" /><path clip-path="url(#clip310)" d="M191.737 1255.14 L191.737 1250.88 Q193.496 1251.71 195.301 1252.15 Q197.107 1252.59 198.843 1252.59 Q203.473 1252.59 205.903 1249.49 Q208.357 1246.36 208.704 1240.02 Q207.362 1242.01 205.301 1243.08 Q203.241 1244.14 200.741 1244.14 Q195.556 1244.14 192.524 1241.02 Q189.514 1237.87 189.514 1232.43 Q189.514 1227.1 192.663 1223.89 Q195.811 1220.67 201.042 1220.67 Q207.037 1220.67 210.186 1225.28 Q213.357 1229.86 213.357 1238.61 Q213.357 1246.78 209.468 1251.66 Q205.602 1256.53 199.051 1256.53 Q197.292 1256.53 195.487 1256.18 Q193.681 1255.83 191.737 1255.14 M201.042 1240.48 Q204.19 1240.48 206.019 1238.33 Q207.871 1236.18 207.871 1232.43 Q207.871 1228.7 206.019 1226.55 Q204.19 1224.37 201.042 1224.37 Q197.894 1224.37 196.042 1226.55 Q194.213 1228.7 194.213 1232.43 Q194.213 1236.18 196.042 1238.33 Q197.894 1240.48 201.042 1240.48 Z" fill="#000000" fill-rule="nonzero" fill-opacity="1" /><path clip-path="url(#clip310)" d="M232.338 1236.71 Q229.19 1236.71 227.338 1238.86 Q225.51 1241.02 225.51 1244.77 Q225.51 1248.49 227.338 1250.67 Q229.19 1252.82 232.338 1252.82 Q235.486 1252.82 237.315 1250.67 Q239.167 1248.49 239.167 1244.77 Q239.167 1241.02 237.315 1238.86 Q235.486 1236.71 232.338 1236.71 M241.621 1222.06 L241.621 1226.32 Q239.861 1225.48 238.056 1225.04 Q236.273 1224.6 234.514 1224.6 Q229.885 1224.6 227.431 1227.73 Q225 1230.85 224.653 1237.17 Q226.019 1235.16 228.079 1234.1 Q230.139 1233.01 232.616 1233.01 Q237.824 1233.01 240.834 1236.18 Q243.866 1239.33 243.866 1244.77 Q243.866 1250.09 240.718 1253.31 Q237.57 1256.53 232.338 1256.53 Q226.343 1256.53 223.172 1251.94 Q220 1247.34 220 1238.61 Q220 1230.41 223.889 1225.55 Q227.778 1220.67 234.329 1220.67 Q236.088 1220.67 237.871 1221.02 Q239.676 1221.36 241.621 1222.06 Z" fill="#000000" fill-rule="nonzero" fill-opacity="1" /><path clip-path="url(#clip310)" d="M127.269 928.786 Q123.658 928.786 121.83 932.351 Q120.024 935.892 120.024 943.022 Q120.024 950.128 121.83 953.693 Q123.658 957.235 127.269 957.235 Q130.904 957.235 132.709 953.693 Q134.538 950.128 134.538 943.022 Q134.538 935.892 132.709 932.351 Q130.904 928.786 127.269 928.786 M127.269 925.082 Q133.08 925.082 136.135 929.689 Q139.214 934.272 139.214 943.022 Q139.214 951.749 136.135 956.355 Q133.08 960.938 127.269 960.938 Q121.459 960.938 118.381 956.355 Q115.325 951.749 115.325 943.022 Q115.325 934.272 118.381 929.689 Q121.459 925.082 127.269 925.082 Z" fill="#000000" fill-rule="nonzero" fill-opacity="1" /><path clip-path="url(#clip310)" d="M147.431 954.387 L152.316 954.387 L152.316 960.267 L147.431 960.267 L147.431 954.387 Z" fill="#000000" fill-rule="nonzero" fill-opacity="1" /><path clip-path="url(#clip310)" d="M162.64 959.55 L162.64 955.29 Q164.399 956.124 166.204 956.563 Q168.01 957.003 169.746 957.003 Q174.376 957.003 176.806 953.901 Q179.26 950.776 179.607 944.434 Q178.264 946.425 176.204 947.489 Q174.144 948.554 171.644 948.554 Q166.459 948.554 163.427 945.429 Q160.417 942.281 160.417 936.841 Q160.417 931.517 163.565 928.3 Q166.714 925.082 171.945 925.082 Q177.94 925.082 181.089 929.689 Q184.26 934.272 184.26 943.022 Q184.26 951.193 180.371 956.077 Q176.505 960.938 169.954 960.938 Q168.195 960.938 166.39 960.591 Q164.584 960.244 162.64 959.55 M171.945 944.897 Q175.093 944.897 176.922 942.744 Q178.774 940.591 178.774 936.841 Q178.774 933.114 176.922 930.962 Q175.093 928.786 171.945 928.786 Q168.797 928.786 166.945 930.962 Q165.116 933.114 165.116 936.841 Q165.116 940.591 166.945 942.744 Q168.797 944.897 171.945 944.897 Z" fill="#000000" fill-rule="nonzero" fill-opacity="1" /><path clip-path="url(#clip310)" d="M192.801 959.55 L192.801 955.29 Q194.561 956.124 196.366 956.563 Q198.172 957.003 199.908 957.003 Q204.537 957.003 206.968 953.901 Q209.422 950.776 209.769 944.434 Q208.426 946.425 206.366 947.489 Q204.306 948.554 201.806 948.554 Q196.621 948.554 193.588 945.429 Q190.579 942.281 190.579 936.841 Q190.579 931.517 193.727 928.3 Q196.875 925.082 202.107 925.082 Q208.102 925.082 211.25 929.689 Q214.422 934.272 214.422 943.022 Q214.422 951.193 210.533 956.077 Q206.667 960.938 200.116 960.938 Q198.357 960.938 196.551 960.591 Q194.746 960.244 192.801 959.55 M202.107 944.897 Q205.255 944.897 207.084 942.744 Q208.936 940.591 208.936 936.841 Q208.936 933.114 207.084 930.962 Q205.255 928.786 202.107 928.786 Q198.959 928.786 197.107 930.962 Q195.278 933.114 195.278 936.841 Q195.278 940.591 197.107 942.744 Q198.959 944.897 202.107 944.897 Z" fill="#000000" fill-rule="nonzero" fill-opacity="1" /><path clip-path="url(#clip310)" d="M221.644 925.707 L243.866 925.707 L243.866 927.698 L231.32 960.267 L226.435 960.267 L238.241 929.642 L221.644 929.642 L221.644 925.707 Z" fill="#000000" fill-rule="nonzero" fill-opacity="1" /><path clip-path="url(#clip310)" d="M126.459 633.198 Q122.848 633.198 121.019 636.763 Q119.214 640.305 119.214 647.434 Q119.214 654.541 121.019 658.106 Q122.848 661.647 126.459 661.647 Q130.093 661.647 131.899 658.106 Q133.728 654.541 133.728 647.434 Q133.728 640.305 131.899 636.763 Q130.093 633.198 126.459 633.198 M126.459 629.495 Q132.269 629.495 135.325 634.101 Q138.404 638.684 138.404 647.434 Q138.404 656.161 135.325 660.768 Q132.269 665.351 126.459 665.351 Q120.649 665.351 117.57 660.768 Q114.515 656.161 114.515 647.434 Q114.515 638.684 117.57 634.101 Q120.649 629.495 126.459 629.495 Z" fill="#000000" fill-rule="nonzero" fill-opacity="1" /><path clip-path="url(#clip310)" d="M146.621 658.8 L151.505 658.8 L151.505 664.68 L146.621 664.68 L146.621 658.8 Z" fill="#000000" fill-rule="nonzero" fill-opacity="1" /><path clip-path="url(#clip310)" d="M161.829 663.962 L161.829 659.703 Q163.589 660.536 165.394 660.976 Q167.2 661.416 168.936 661.416 Q173.565 661.416 175.996 658.314 Q178.45 655.189 178.797 648.846 Q177.454 650.837 175.394 651.902 Q173.334 652.967 170.834 652.967 Q165.649 652.967 162.616 649.842 Q159.607 646.694 159.607 641.254 Q159.607 635.93 162.755 632.712 Q165.903 629.495 171.135 629.495 Q177.13 629.495 180.278 634.101 Q183.45 638.684 183.45 647.434 Q183.45 655.606 179.561 660.49 Q175.695 665.351 169.144 665.351 Q167.385 665.351 165.579 665.004 Q163.774 664.656 161.829 663.962 M171.135 649.309 Q174.283 649.309 176.112 647.157 Q177.964 645.004 177.964 641.254 Q177.964 637.527 176.112 635.374 Q174.283 633.198 171.135 633.198 Q167.987 633.198 166.135 635.374 Q164.306 637.527 164.306 641.254 Q164.306 645.004 166.135 647.157 Q167.987 649.309 171.135 649.309 Z" fill="#000000" fill-rule="nonzero" fill-opacity="1" /><path clip-path="url(#clip310)" d="M191.991 663.962 L191.991 659.703 Q193.75 660.536 195.556 660.976 Q197.362 661.416 199.098 661.416 Q203.727 661.416 206.158 658.314 Q208.612 655.189 208.959 648.846 Q207.616 650.837 205.556 651.902 Q203.496 652.967 200.996 652.967 Q195.811 652.967 192.778 649.842 Q189.769 646.694 189.769 641.254 Q189.769 635.93 192.917 632.712 Q196.065 629.495 201.297 629.495 Q207.292 629.495 210.44 634.101 Q213.611 638.684 213.611 647.434 Q213.611 655.606 209.723 660.49 Q205.857 665.351 199.306 665.351 Q197.547 665.351 195.741 665.004 Q193.936 664.656 191.991 663.962 M201.297 649.309 Q204.445 649.309 206.274 647.157 Q208.125 645.004 208.125 641.254 Q208.125 637.527 206.274 635.374 Q204.445 633.198 201.297 633.198 Q198.149 633.198 196.297 635.374 Q194.468 637.527 194.468 641.254 Q194.468 645.004 196.297 647.157 Q198.149 649.309 201.297 649.309 Z" fill="#000000" fill-rule="nonzero" fill-opacity="1" /><path clip-path="url(#clip310)" d="M232.014 648.268 Q228.681 648.268 226.76 650.05 Q224.861 651.832 224.861 654.957 Q224.861 658.082 226.76 659.865 Q228.681 661.647 232.014 661.647 Q235.347 661.647 237.269 659.865 Q239.19 658.059 239.19 654.957 Q239.19 651.832 237.269 650.05 Q235.371 648.268 232.014 648.268 M227.338 646.277 Q224.329 645.536 222.639 643.476 Q220.973 641.416 220.973 638.453 Q220.973 634.309 223.912 631.902 Q226.875 629.495 232.014 629.495 Q237.176 629.495 240.116 631.902 Q243.056 634.309 243.056 638.453 Q243.056 641.416 241.366 643.476 Q239.699 645.536 236.713 646.277 Q240.093 647.064 241.968 649.356 Q243.866 651.647 243.866 654.957 Q243.866 659.981 240.787 662.666 Q237.732 665.351 232.014 665.351 Q226.297 665.351 223.218 662.666 Q220.162 659.981 220.162 654.957 Q220.162 651.647 222.061 649.356 Q223.959 647.064 227.338 646.277 M225.625 638.893 Q225.625 641.578 227.292 643.082 Q228.982 644.587 232.014 644.587 Q235.023 644.587 236.713 643.082 Q238.426 641.578 238.426 638.893 Q238.426 636.208 236.713 634.703 Q235.023 633.198 232.014 633.198 Q228.982 633.198 227.292 634.703 Q225.625 636.208 225.625 638.893 Z" fill="#000000" fill-rule="nonzero" fill-opacity="1" /><path clip-path="url(#clip310)" d="M126.552 337.611 Q122.941 337.611 121.112 341.176 Q119.306 344.717 119.306 351.847 Q119.306 358.953 121.112 362.518 Q122.941 366.06 126.552 366.06 Q130.186 366.06 131.992 362.518 Q133.82 358.953 133.82 351.847 Q133.82 344.717 131.992 341.176 Q130.186 337.611 126.552 337.611 M126.552 333.907 Q132.362 333.907 135.417 338.514 Q138.496 343.097 138.496 351.847 Q138.496 360.574 135.417 365.18 Q132.362 369.763 126.552 369.763 Q120.742 369.763 117.663 365.18 Q114.607 360.574 114.607 351.847 Q114.607 343.097 117.663 338.514 Q120.742 333.907 126.552 333.907 Z" fill="#000000" fill-rule="nonzero" fill-opacity="1" /><path clip-path="url(#clip310)" d="M146.714 363.212 L151.598 363.212 L151.598 369.092 L146.714 369.092 L146.714 363.212 Z" fill="#000000" fill-rule="nonzero" fill-opacity="1" /><path clip-path="url(#clip310)" d="M161.922 368.374 L161.922 364.115 Q163.681 364.949 165.487 365.388 Q167.292 365.828 169.028 365.828 Q173.658 365.828 176.089 362.726 Q178.542 359.601 178.889 353.259 Q177.547 355.25 175.487 356.314 Q173.427 357.379 170.927 357.379 Q165.741 357.379 162.709 354.254 Q159.7 351.106 159.7 345.666 Q159.7 340.342 162.848 337.125 Q165.996 333.907 171.227 333.907 Q177.223 333.907 180.371 338.514 Q183.542 343.097 183.542 351.847 Q183.542 360.018 179.653 364.902 Q175.788 369.763 169.237 369.763 Q167.477 369.763 165.672 369.416 Q163.866 369.069 161.922 368.374 M171.227 353.722 Q174.376 353.722 176.204 351.569 Q178.056 349.416 178.056 345.666 Q178.056 341.939 176.204 339.787 Q174.376 337.611 171.227 337.611 Q168.079 337.611 166.227 339.787 Q164.399 341.939 164.399 345.666 Q164.399 349.416 166.227 351.569 Q168.079 353.722 171.227 353.722 Z" fill="#000000" fill-rule="nonzero" fill-opacity="1" /><path clip-path="url(#clip310)" d="M192.084 368.374 L192.084 364.115 Q193.843 364.949 195.649 365.388 Q197.454 365.828 199.19 365.828 Q203.82 365.828 206.25 362.726 Q208.704 359.601 209.051 353.259 Q207.709 355.25 205.649 356.314 Q203.588 357.379 201.088 357.379 Q195.903 357.379 192.871 354.254 Q189.862 351.106 189.862 345.666 Q189.862 340.342 193.01 337.125 Q196.158 333.907 201.389 333.907 Q207.385 333.907 210.533 338.514 Q213.704 343.097 213.704 351.847 Q213.704 360.018 209.815 364.902 Q205.949 369.763 199.399 369.763 Q197.639 369.763 195.834 369.416 Q194.028 369.069 192.084 368.374 M201.389 353.722 Q204.537 353.722 206.366 351.569 Q208.218 349.416 208.218 345.666 Q208.218 341.939 206.366 339.787 Q204.537 337.611 201.389 337.611 Q198.241 337.611 196.389 339.787 Q194.561 341.939 194.561 345.666 Q194.561 349.416 196.389 351.569 Q198.241 353.722 201.389 353.722 Z" fill="#000000" fill-rule="nonzero" fill-opacity="1" /><path clip-path="url(#clip310)" d="M222.246 368.374 L222.246 364.115 Q224.005 364.949 225.81 365.388 Q227.616 365.828 229.352 365.828 Q233.982 365.828 236.412 362.726 Q238.866 359.601 239.213 353.259 Q237.871 355.25 235.81 356.314 Q233.75 357.379 231.25 357.379 Q226.065 357.379 223.033 354.254 Q220.023 351.106 220.023 345.666 Q220.023 340.342 223.172 337.125 Q226.32 333.907 231.551 333.907 Q237.547 333.907 240.695 338.514 Q243.866 343.097 243.866 351.847 Q243.866 360.018 239.977 364.902 Q236.111 369.763 229.56 369.763 Q227.801 369.763 225.996 369.416 Q224.19 369.069 222.246 368.374 M231.551 353.722 Q234.699 353.722 236.528 351.569 Q238.38 349.416 238.38 345.666 Q238.38 341.939 236.528 339.787 Q234.699 337.611 231.551 337.611 Q228.403 337.611 226.551 339.787 Q224.723 341.939 224.723 345.666 Q224.723 349.416 226.551 351.569 Q228.403 353.722 231.551 353.722 Z" fill="#000000" fill-rule="nonzero" fill-opacity="1" /><path clip-path="url(#clip310)" d="M117.177 69.5694 L124.816 69.5694 L124.816 43.2038 L116.506 44.8704 L116.506 40.6112 L124.769 38.9445 L129.445 38.9445 L129.445 69.5694 L137.084 69.5694 L137.084 73.5045 L117.177 73.5045 L117.177 69.5694 Z" fill="#000000" fill-rule="nonzero" fill-opacity="1" /><path clip-path="url(#clip310)" d="M146.529 67.6249 L151.413 67.6249 L151.413 73.5045 L146.529 73.5045 L146.529 67.6249 Z" fill="#000000" fill-rule="nonzero" fill-opacity="1" /><path clip-path="url(#clip310)" d="M171.598 42.0232 Q167.987 42.0232 166.158 45.588 Q164.352 49.1297 164.352 56.2593 Q164.352 63.3657 166.158 66.9305 Q167.987 70.4721 171.598 70.4721 Q175.232 70.4721 177.038 66.9305 Q178.866 63.3657 178.866 56.2593 Q178.866 49.1297 177.038 45.588 Q175.232 42.0232 171.598 42.0232 M171.598 38.3195 Q177.408 38.3195 180.464 42.926 Q183.542 47.5093 183.542 56.2593 Q183.542 64.9861 180.464 69.5925 Q177.408 74.1758 171.598 74.1758 Q165.788 74.1758 162.709 69.5925 Q159.653 64.9861 159.653 56.2593 Q159.653 47.5093 162.709 42.926 Q165.788 38.3195 171.598 38.3195 Z" fill="#000000" fill-rule="nonzero" fill-opacity="1" /><path clip-path="url(#clip310)" d="M201.76 42.0232 Q198.149 42.0232 196.32 45.588 Q194.514 49.1297 194.514 56.2593 Q194.514 63.3657 196.32 66.9305 Q198.149 70.4721 201.76 70.4721 Q205.394 70.4721 207.199 66.9305 Q209.028 63.3657 209.028 56.2593 Q209.028 49.1297 207.199 45.588 Q205.394 42.0232 201.76 42.0232 M201.76 38.3195 Q207.57 38.3195 210.625 42.926 Q213.704 47.5093 213.704 56.2593 Q213.704 64.9861 210.625 69.5925 Q207.57 74.1758 201.76 74.1758 Q195.95 74.1758 192.871 69.5925 Q189.815 64.9861 189.815 56.2593 Q189.815 47.5093 192.871 42.926 Q195.95 38.3195 201.76 38.3195 Z" fill="#000000" fill-rule="nonzero" fill-opacity="1" /><path clip-path="url(#clip310)" d="M231.922 42.0232 Q228.31 42.0232 226.482 45.588 Q224.676 49.1297 224.676 56.2593 Q224.676 63.3657 226.482 66.9305 Q228.31 70.4721 231.922 70.4721 Q235.556 70.4721 237.361 66.9305 Q239.19 63.3657 239.19 56.2593 Q239.19 49.1297 237.361 45.588 Q235.556 42.0232 231.922 42.0232 M231.922 38.3195 Q237.732 38.3195 240.787 42.926 Q243.866 47.5093 243.866 56.2593 Q243.866 64.9861 240.787 69.5925 Q237.732 74.1758 231.922 74.1758 Q226.111 74.1758 223.033 69.5925 Q219.977 64.9861 219.977 56.2593 Q219.977 47.5093 223.033 42.926 Q226.111 38.3195 231.922 38.3195 Z" fill="#000000" fill-rule="nonzero" fill-opacity="1" /><path clip-path="url(#clip310)" d="M41.7242 981.804 Q42.4244 979.735 44.7161 977.793 Q47.0077 975.82 51.0181 973.846 L64.0042 967.322 L64.0042 974.228 L51.8138 980.308 Q47.0395 982.663 45.48 984.891 Q43.9204 987.087 43.9204 990.906 L43.9204 997.909 L64.0042 997.909 L64.0042 1004.34 L16.4842 1004.34 L16.4842 989.824 Q16.4842 981.676 19.8898 977.666 Q23.2955 973.655 30.1704 973.655 Q34.6582 973.655 37.6183 975.756 Q40.5784 977.825 41.7242 981.804 M21.7677 997.909 L38.6368 997.909 L38.6368 989.824 Q38.6368 985.177 36.5043 982.822 Q34.34 980.435 30.1704 980.435 Q26.0009 980.435 23.9002 982.822 Q21.7677 985.177 21.7677 989.824 L21.7677 997.909 Z" fill="#000000" fill-rule="nonzero" fill-opacity="1" /><path clip-path="url(#clip310)" d="M44.7161 931.737 L47.5806 931.737 L47.5806 958.664 Q53.6281 958.282 56.8109 955.036 Q59.9619 951.757 59.9619 945.933 Q59.9619 942.559 59.1344 939.408 Q58.3069 936.225 56.6518 933.106 L62.1899 933.106 Q63.5267 936.257 64.227 939.567 Q64.9272 942.877 64.9272 946.283 Q64.9272 954.813 59.9619 959.81 Q54.9967 964.775 46.5303 964.775 Q37.7774 964.775 32.6531 960.065 Q27.4968 955.322 27.4968 947.301 Q27.4968 940.108 32.1438 935.939 Q36.7589 931.737 44.7161 931.737 M42.9973 937.594 Q38.1912 937.657 35.3266 940.299 Q32.4621 942.909 32.4621 947.238 Q32.4621 952.139 35.2312 955.099 Q38.0002 958.028 43.0292 958.473 L42.9973 937.594 Z" fill="#000000" fill-rule="nonzero" fill-opacity="1" /><path clip-path="url(#clip310)" d="M14.479 904.078 L19.3487 904.078 L19.3487 909.68 Q19.3487 912.831 20.6219 914.072 Q21.895 915.282 25.2052 915.282 L28.3562 915.282 L28.3562 905.638 L32.9077 905.638 L32.9077 915.282 L64.0042 915.282 L64.0042 921.17 L32.9077 921.17 L32.9077 926.772 L28.3562 926.772 L28.3562 921.17 L25.8736 921.17 Q19.9216 921.17 17.2162 918.401 Q14.479 915.632 14.479 909.616 L14.479 904.078 Z" fill="#000000" fill-rule="nonzero" fill-opacity="1" /><path clip-path="url(#clip310)" d="M14.479 899.177 L14.479 893.32 L64.0042 893.32 L64.0042 899.177 L14.479 899.177 Z" fill="#000000" fill-rule="nonzero" fill-opacity="1" /><path clip-path="url(#clip310)" d="M44.7161 850.574 L47.5806 850.574 L47.5806 877.501 Q53.6281 877.119 56.8109 873.873 Q59.9619 870.595 59.9619 864.77 Q59.9619 861.396 59.1344 858.245 Q58.3069 855.062 56.6518 851.943 L62.1899 851.943 Q63.5267 855.094 64.227 858.404 Q64.9272 861.714 64.9272 865.12 Q64.9272 873.65 59.9619 878.647 Q54.9967 883.613 46.5303 883.613 Q37.7774 883.613 32.6531 878.902 Q27.4968 874.159 27.4968 866.139 Q27.4968 858.945 32.1438 854.776 Q36.7589 850.574 44.7161 850.574 M42.9973 856.431 Q38.1912 856.495 35.3266 859.136 Q32.4621 861.746 32.4621 866.075 Q32.4621 870.977 35.2312 873.937 Q38.0002 876.865 43.0292 877.31 L42.9973 856.431 Z" fill="#000000" fill-rule="nonzero" fill-opacity="1" /><path clip-path="url(#clip310)" d="M29.7248 815.308 L35.1993 815.308 Q33.8307 817.791 33.1623 820.306 Q32.4621 822.788 32.4621 825.334 Q32.4621 831.032 36.0905 834.183 Q39.6872 837.334 46.212 837.334 Q52.7369 837.334 56.3653 834.183 Q59.9619 831.032 59.9619 825.334 Q59.9619 822.788 59.2935 820.306 Q58.5933 817.791 57.2247 815.308 L62.6355 815.308 Q63.7814 817.759 64.3543 820.401 Q64.9272 823.011 64.9272 825.971 Q64.9272 834.024 59.8664 838.766 Q54.8057 843.509 46.212 843.509 Q37.491 843.509 32.4939 838.734 Q27.4968 833.928 27.4968 825.589 Q27.4968 822.884 28.0697 820.306 Q28.6108 817.727 29.7248 815.308 Z" fill="#000000" fill-rule="nonzero" fill-opacity="1" /><path clip-path="url(#clip310)" d="M18.2347 799.331 L28.3562 799.331 L28.3562 787.268 L32.9077 787.268 L32.9077 799.331 L52.2594 799.331 Q56.6199 799.331 57.8613 798.153 Q59.1026 796.943 59.1026 793.283 L59.1026 787.268 L64.0042 787.268 L64.0042 793.283 Q64.0042 800.063 61.4897 802.641 Q58.9434 805.219 52.2594 805.219 L32.9077 805.219 L32.9077 809.516 L28.3562 809.516 L28.3562 805.219 L18.2347 805.219 L18.2347 799.331 Z" fill="#000000" fill-rule="nonzero" fill-opacity="1" /><path clip-path="url(#clip310)" d="M28.3562 779.565 L28.3562 773.709 L64.0042 773.709 L64.0042 779.565 L28.3562 779.565 M14.479 779.565 L14.479 773.709 L21.895 773.709 L21.895 779.565 L14.479 779.565 Z" fill="#000000" fill-rule="nonzero" fill-opacity="1" /><path clip-path="url(#clip310)" d="M28.3562 765.656 L28.3562 759.449 L58.275 748.309 L28.3562 737.169 L28.3562 730.963 L64.0042 744.331 L64.0042 752.288 L28.3562 765.656 Z" fill="#000000" fill-rule="nonzero" fill-opacity="1" /><path clip-path="url(#clip310)" d="M28.3562 722.878 L28.3562 717.022 L64.0042 717.022 L64.0042 722.878 L28.3562 722.878 M14.479 722.878 L14.479 717.022 L21.895 717.022 L21.895 722.878 L14.479 722.878 Z" fill="#000000" fill-rule="nonzero" fill-opacity="1" /><path clip-path="url(#clip310)" d="M18.2347 698.975 L28.3562 698.975 L28.3562 686.912 L32.9077 686.912 L32.9077 698.975 L52.2594 698.975 Q56.6199 698.975 57.8613 697.798 Q59.1026 696.588 59.1026 692.928 L59.1026 686.912 L64.0042 686.912 L64.0042 692.928 Q64.0042 699.707 61.4897 702.285 Q58.9434 704.863 52.2594 704.863 L32.9077 704.863 L32.9077 709.16 L28.3562 709.16 L28.3562 704.863 L18.2347 704.863 L18.2347 698.975 Z" fill="#000000" fill-rule="nonzero" fill-opacity="1" /><path clip-path="url(#clip310)" d="M67.3143 664.378 Q73.68 666.86 75.6216 669.216 Q77.5631 671.571 77.5631 675.518 L77.5631 680.196 L72.6615 680.196 L72.6615 676.759 Q72.6615 674.34 71.5157 673.003 Q70.3699 671.666 66.1048 670.043 L63.4312 668.993 L28.3562 683.411 L28.3562 677.204 L56.238 666.064 L28.3562 654.924 L28.3562 648.718 L67.3143 664.378 Z" fill="#000000" fill-rule="nonzero" fill-opacity="1" /><path clip-path="url(#clip310)" d="M14.1925 612.37 L79.3773 612.37 L79.3773 617.781 L14.1925 617.781 L14.1925 612.37 Z" fill="#000000" fill-rule="nonzero" fill-opacity="1" /><path clip-path="url(#clip310)" d="M18.0438 569.21 L24.314 569.21 Q22.5634 572.871 21.704 576.117 Q20.8447 579.364 20.8447 582.387 Q20.8447 587.639 22.8817 590.504 Q24.9187 593.336 28.6745 593.336 Q31.8255 593.336 33.4488 591.458 Q35.0402 589.549 36.0269 584.265 L36.8226 580.382 Q38.1912 573.189 41.6605 569.783 Q45.098 566.346 50.8908 566.346 Q57.7976 566.346 61.3624 570.993 Q64.9272 575.608 64.9272 584.552 Q64.9272 587.925 64.1633 591.745 Q63.3994 595.532 61.9035 599.607 L55.2831 599.607 Q57.4793 595.692 58.5933 591.936 Q59.7073 588.18 59.7073 584.552 Q59.7073 579.045 57.543 576.053 Q55.3786 573.062 51.3682 573.062 Q47.8671 573.062 45.8937 575.226 Q43.9204 577.358 42.9337 582.26 L42.1698 586.175 Q40.7375 593.368 37.682 596.583 Q34.6264 599.797 29.1837 599.797 Q22.8817 599.797 19.2532 595.373 Q15.6248 590.917 15.6248 583.119 Q15.6248 579.777 16.2295 576.308 Q16.8343 572.839 18.0438 569.21 Z" fill="#000000" fill-rule="nonzero" fill-opacity="1" /><path clip-path="url(#clip310)" d="M58.5933 554.633 L58.5933 544.129 L22.3406 544.129 L24.6323 555.556 L18.7758 555.556 L16.4842 544.193 L16.4842 537.764 L58.5933 537.764 L58.5933 527.26 L64.0042 527.26 L64.0042 554.633 L58.5933 554.633 Z" fill="#000000" fill-rule="nonzero" fill-opacity="1" /><path clip-path="url(#clip310)" d="M58.5933 513.16 L58.5933 502.657 L22.3406 502.657 L24.6323 514.083 L18.7758 514.083 L16.4842 502.72 L16.4842 496.291 L58.5933 496.291 L58.5933 485.788 L64.0042 485.788 L64.0042 513.16 L58.5933 513.16 Z" fill="#000000" fill-rule="nonzero" fill-opacity="1" /><path clip-path="url(#clip310)" d="M14.1925 466.086 L79.3773 466.086 L79.3773 471.497 L14.1925 471.497 L14.1925 466.086 Z" fill="#000000" fill-rule="nonzero" fill-opacity="1" /><polyline clip-path="url(#clip312)" style="stroke:#009af9; stroke-linecap:round; stroke-linejoin:round; stroke-width:4; stroke-opacity:1; fill:none" points="338.533,86.1857 340.49,86.2333 342.448,86.2812 344.405,86.3295 346.363,86.3782 348.32,86.4272 350.278,86.4767 352.235,86.5265 354.193,86.5767 356.15,86.6272 358.108,86.6782 360.065,86.7296 362.023,86.7813 363.98,86.8334 365.938,86.886 367.895,86.9389 369.853,86.9923 371.81,87.0461 373.768,87.1003 375.725,87.1549 377.683,87.2099 379.64,87.2654 381.598,87.3212 383.555,87.3775 385.513,87.4343 387.47,87.4915 389.428,87.5491 391.386,87.6072 393.343,87.6657 395.301,87.7247 397.258,87.7842 399.216,87.8441 401.173,87.9045 403.131,87.9653 405.088,88.0266 407.046,88.0884 409.003,88.1507 410.961,88.2135 412.918,88.2768 414.876,88.3405 416.833,88.4048 418.791,88.4695 420.748,88.5348 422.706,88.6006 424.663,88.6669 426.621,88.7337 428.578,88.8011 430.536,88.869 432.493,88.9374 434.451,89.0064 436.408,89.0759 438.366,89.146 440.323,89.2166 442.281,89.2878 444.238,89.3595 446.196,89.4318 448.153,89.5047 450.111,89.5782 452.068,89.6523 454.026,89.7269 455.983,89.8022 457.941,89.878 459.899,89.9545 461.856,90.0316 463.814,90.1093 465.771,90.1876 467.729,90.2666 469.686,90.3462 471.644,90.4264 473.601,90.5073 475.559,90.5888 477.516,90.671 479.474,90.7539 481.431,90.8374 483.389,90.9217 485.346,91.0066 487.304,91.0922 489.261,91.1785 491.219,91.2655 493.176,91.3532 495.134,91.4416 497.091,91.5308 499.049,91.6207 501.006,91.7113 502.964,91.8027 504.921,91.8949 506.879,91.9878 508.836,92.0814 510.794,92.1759 512.751,92.2711 514.709,92.3671 516.666,92.4639 518.624,92.5616 520.581,92.66 522.539,92.7593 524.496,92.8594 526.454,92.9603 528.412,93.0621 530.369,93.1647 532.327,93.2682 534.284,93.3726 536.242,93.4778 538.199,93.584 540.157,93.691 542.114,93.7989 544.072,93.9078 546.029,94.0176 547.987,94.1283 549.944,94.24 551.902,94.3526 553.859,94.4662 555.817,94.5808 557.774,94.6963 559.732,94.8129 561.689,94.9304 563.647,95.049 565.604,95.1686 567.562,95.2892 569.519,95.4108 571.477,95.5336 573.434,95.6573 575.392,95.7822 577.349,95.9082 579.307,96.0352 581.264,96.1634 583.222,96.2927 585.179,96.4231 587.137,96.5547 589.094,96.6875 591.052,96.8214 593.009,96.9565 594.967,97.0928 596.925,97.2303 598.882,97.369 600.84,97.509 602.797,97.6502 604.755,97.7927 606.712,97.9364 608.67,98.0815 610.627,98.2278 612.585,98.3755 614.542,98.5245 616.5,98.6748 618.457,98.8266 620.415,98.9797 622.372,99.1341 624.33,99.29 626.287,99.4474 628.245,99.6061 630.202,99.7663 632.16,99.928 634.117,100.091 636.075,100.256 638.032,100.422 639.99,100.59 641.947,100.759 643.905,100.93 645.862,101.102 647.82,101.276 649.777,101.452 651.735,101.629 653.692,101.809 655.65,101.989 657.607,102.172 659.565,102.356 661.522,102.542 663.48,102.729 665.437,102.919 667.395,103.11 669.353,103.303 671.31,103.498 673.268,103.694 675.225,103.893 677.183,104.094 679.14,104.296 681.098,104.501 683.055,104.707 685.013,104.915 686.97,105.126 688.928,105.338 690.885,105.553 692.843,105.77 694.8,105.989 696.758,106.21 698.715,106.433 700.673,106.658 702.63,106.886 704.588,107.116 706.545,107.348 708.503,107.582 710.46,107.819 712.418,108.058 714.375,108.3 716.333,108.544 718.29,108.79 720.248,109.039 722.205,109.291 724.163,109.545 726.12,109.802 728.078,110.061 730.035,110.323 731.993,110.588 733.95,110.855 735.908,111.125 737.866,111.398 739.823,111.674 741.781,111.953 743.738,112.234 745.696,112.519 747.653,112.806 749.611,113.097 751.568,113.39 753.526,113.687 755.483,113.987 757.441,114.289 759.398,114.596 761.356,114.905 763.313,115.218 765.271,115.534 767.228,115.854 769.186,116.177 771.143,116.503 773.101,116.833 775.058,117.167 777.016,117.504 778.973,117.845 780.931,118.189 782.888,118.538 784.846,118.89 786.803,119.246 788.761,119.606 790.718,119.97 792.676,120.338 794.633,120.711 796.591,121.087 798.548,121.468 800.506,121.853 802.463,122.242 804.421,122.636 806.379,123.034 808.336,123.437 810.294,123.844 812.251,124.256 814.209,124.672 816.166,125.094 818.124,125.52 820.081,125.952 822.039,126.388 823.996,126.829 825.954,127.276 827.911,127.728 829.869,128.185 831.826,128.647 833.784,129.115 835.741,129.589 837.699,130.068 839.656,130.553 841.614,131.043 843.571,131.54 845.529,132.043 847.486,132.551 849.444,133.066 851.401,133.587 853.359,134.114 855.316,134.648 857.274,135.189 859.231,135.736 861.189,136.289 863.146,136.85 865.104,137.418 867.061,137.992 869.019,138.574 870.976,139.163 872.934,139.76 874.891,140.364 876.849,140.976 878.807,141.595 880.764,142.223 882.722,142.858 884.679,143.502 886.637,144.154 888.594,144.814 890.552,145.483 892.509,146.16 894.467,146.847 896.424,147.542 898.382,148.246 900.339,148.96 902.297,149.683 904.254,150.416 906.212,151.159 908.169,151.911 910.127,152.674 912.084,153.446 914.042,154.23 915.999,155.023 917.957,155.828 919.914,156.643 921.872,157.47 923.829,158.308 925.787,159.158 927.744,160.019 929.702,160.892 931.659,161.777 933.617,162.675 935.574,163.585 937.532,164.509 939.489,165.445 941.447,166.394 943.404,167.357 945.362,168.334 947.32,169.324 949.277,170.329 951.235,171.348 953.192,172.382 955.15,173.431 957.107,174.496 959.065,175.576 961.022,176.672 962.98,177.783 964.937,178.912 966.895,180.057 968.852,181.219 970.81,182.399 972.767,183.596 974.725,184.811 976.682,186.045 978.64,187.297 980.597,188.569 982.555,189.859 984.512,191.17 986.47,192.501 988.427,193.853 990.385,195.225 992.342,196.619 994.3,198.034 996.257,199.472 998.215,200.933 1000.17,202.416 1002.13,203.923 1004.09,205.454 1006.04,207.01 1008,208.591 1009.96,210.197 1011.92,211.829 1013.87,213.487 1015.83,215.173 1017.79,216.886 1019.75,218.627 1021.71,220.397 1023.66,222.197 1025.62,224.026 1027.58,225.886 1029.54,227.776 1031.49,229.699 1033.45,231.654 1035.41,233.642 1037.37,235.664 1039.32,237.72 1041.28,239.812 1043.24,241.94 1045.2,244.104 1047.15,246.306 1049.11,248.546 1051.07,250.825 1053.03,253.144 1054.98,255.504 1056.94,257.905 1058.9,260.349 1060.86,262.837 1062.81,265.369 1064.77,267.946 1066.73,270.569 1068.69,273.24 1070.64,275.959 1072.6,278.728 1074.56,281.547 1076.52,284.418 1078.47,287.341 1080.43,290.318 1082.39,293.35 1084.35,296.439 1086.3,299.585 1088.26,302.79 1090.22,306.055 1092.18,309.381 1094.13,312.77 1096.09,316.223 1098.05,319.741 1100.01,323.327 1101.96,326.981 1103.92,330.705 1105.88,334.501 1107.84,338.37 1109.79,342.313 1111.75,346.333 1113.71,350.431 1115.67,354.609 1117.62,358.869 1119.58,363.212 1121.54,367.64 1123.5,372.156 1125.45,376.76 1127.41,381.456 1129.37,386.244 1131.33,391.128 1133.28,396.108 1135.24,401.188 1137.2,406.369 1139.16,411.653 1141.11,417.044 1143.07,422.542 1145.03,428.15 1146.99,433.871 1148.94,439.707 1150.9,445.66 1152.86,451.732 1154.82,457.927 1156.77,464.246 1158.73,470.693 1160.69,477.269 1162.65,483.976 1164.6,490.819 1166.56,497.798 1168.52,504.917 1170.48,512.178 1172.43,519.584 1174.39,527.137 1176.35,534.84 1178.31,542.695 1180.26,550.705 1182.22,558.872 1184.18,567.199 1186.14,575.687 1188.09,584.34 1190.05,593.159 1192.01,602.146 1193.97,611.304 1195.92,620.635 1197.88,630.139 1199.84,639.82 1201.8,649.679 1203.75,659.716 1205.71,669.933 1207.67,680.331 1209.63,690.911 1211.58,701.673 1213.54,712.618 1215.5,723.745 1217.46,735.055 1219.41,746.546 1221.37,758.217 1223.33,770.068 1225.29,782.095 1227.24,794.298 1229.2,806.672 1231.16,819.216 1233.12,831.925 1235.07,844.794 1237.03,857.819 1238.99,870.994 1240.95,884.313 1242.9,897.77 1244.86,911.355 1246.82,925.061 1248.78,938.879 1250.73,952.798 1252.69,966.808 1254.65,980.896 1256.61,995.051 1258.56,1009.26 1260.52,1023.5 1262.48,1037.77 1264.44,1052.05 1266.39,1066.31 1268.35,1080.55 1270.31,1094.74 1272.27,1108.85 1274.22,1122.89 1276.18,1136.81 1278.14,1150.59 1280.1,1164.22 1282.05,1177.67 1284.01,1190.92 1285.97,1203.94 1287.93,1216.7 1289.88,1229.18 1291.84,1241.35 1293.8,1253.19 1295.76,1264.67 1297.71,1275.77 1299.67,1286.46 1301.63,1296.7 1303.59,1306.49 1305.54,1315.79 1307.5,1324.58 1309.46,1332.85 1311.42,1340.55 1313.37,1347.69 1315.33,1354.23 1317.29,1360.17 1319.25,1365.48 1321.2,1370.15 1323.16,1374.17 1325.12,1377.53 1327.08,1380.22 1329.03,1382.24 1330.99,1383.58 1332.95,1384.24 1334.91,1384.22 1336.86,1383.52 1338.82,1382.15 1340.78,1380.11 1342.74,1377.41 1344.69,1374.07 1346.65,1370.09 1348.61,1365.49 1350.57,1360.28 1352.52,1354.48 1354.48,1348.12 1356.44,1341.2 1358.4,1333.76 1360.35,1325.8 1362.31,1317.37 1364.27,1308.47 1366.23,1299.13 1368.19,1289.38 1370.14,1279.25 1372.1,1268.75 1374.06,1257.91 1376.02,1246.76 1377.97,1235.32 1379.93,1223.62 1381.89,1211.68 1383.85,1199.52 1385.8,1187.17 1387.76,1174.66 1389.72,1161.99 1391.68,1149.19 1393.63,1136.29 1395.59,1123.3 1397.55,1110.25 1399.51,1097.14 1401.46,1084 1403.42,1070.85 1405.38,1057.69 1407.34,1044.55 1409.29,1031.43 1411.25,1018.35 1413.21,1005.33 1415.17,992.37 1417.12,979.483 1419.08,966.68 1421.04,953.97 1423,941.36 1424.95,928.859 1426.91,916.473 1428.87,904.208 1430.83,892.071 1432.78,880.066 1434.74,868.198 1436.7,856.471 1438.66,844.888 1440.61,833.453 1442.57,822.167 1444.53,811.034 1446.49,800.055 1448.44,789.232 1450.4,778.565 1452.36,768.056 1454.32,757.705 1456.27,747.512 1458.23,737.478 1460.19,727.602 1462.15,717.883 1464.1,708.322 1466.06,698.917 1468.02,689.667 1469.98,680.571 1471.93,671.629 1473.89,662.838 1475.85,654.197 1477.81,645.704 1479.76,637.359 1481.72,629.159 1483.68,621.102 1485.64,613.186 1487.59,605.411 1489.55,597.773 1491.51,590.27 1493.47,582.901 1495.42,575.664 1497.38,568.556 1499.34,561.576 1501.3,554.721 1503.25,547.99 1505.21,541.379 1507.17,534.888 1509.13,528.514 1511.08,522.255 1513.04,516.108 1515,510.073 1516.96,504.146 1518.91,498.326 1520.87,492.61 1522.83,486.998 1524.79,481.486 1526.74,476.074 1528.7,470.758 1530.66,465.538 1532.62,460.41 1534.57,455.375 1536.53,450.428 1538.49,445.57 1540.45,440.798 1542.4,436.111 1544.36,431.506 1546.32,426.982 1548.28,422.538 1550.23,418.171 1552.19,413.881 1554.15,409.666 1556.11,405.524 1558.06,401.454 1560.02,397.454 1561.98,393.524 1563.94,389.66 1565.89,385.863 1567.85,382.131 1569.81,378.462 1571.77,374.855 1573.72,371.31 1575.68,367.824 1577.64,364.397 1579.6,361.027 1581.55,357.713 1583.51,354.455 1585.47,351.25 1587.43,348.099 1589.38,344.999 1591.34,341.95 1593.3,338.95 1595.26,336 1597.21,333.097 1599.17,330.241 1601.13,327.431 1603.09,324.666 1605.04,321.946 1607,319.268 1608.96,316.633 1610.92,314.04 1612.87,311.487 1614.83,308.974 1616.79,306.501 1618.75,304.066 1620.7,301.668 1622.66,299.308 1624.62,296.983 1626.58,294.695 1628.53,292.441 1630.49,290.221 1632.45,288.035 1634.41,285.882 1636.36,283.761 1638.32,281.672 1640.28,279.614 1642.24,277.586 1644.19,275.588 1646.15,273.62 1648.11,271.68 1650.07,269.769 1652.02,267.885 1653.98,266.029 1655.94,264.2 1657.9,262.396 1659.85,260.619 1661.81,258.866 1663.77,257.139 1665.73,255.436 1667.68,253.757 1669.64,252.101 1671.6,250.468 1673.56,248.859 1675.51,247.271 1677.47,245.705 1679.43,244.161 1681.39,242.638 1683.34,241.135 1685.3,239.653 1687.26,238.191 1689.22,236.749 1691.17,235.326 1693.13,233.922 1695.09,232.536 1697.05,231.169 1699,229.82 1700.96,228.489 1702.92,227.175 1704.88,225.878 1706.83,224.598 1708.79,223.335 1710.75,222.088 1712.71,220.857 1714.67,219.641 1716.62,218.441 1718.58,217.257 1720.54,216.087 1722.5,214.932 1724.45,213.791 1726.41,212.665 1728.37,211.552 1730.33,210.454 1732.28,209.369 1734.24,208.297 1736.2,207.238 1738.16,206.193 1740.11,205.16 1742.07,204.139 1744.03,203.131 1745.99,202.135 1747.94,201.151 1749.9,200.178 1751.86,199.217 1753.82,198.268 1755.77,197.329 1757.73,196.402 1759.69,195.486 1761.65,194.58 1763.6,193.684 1765.56,192.799 1767.52,191.925 1769.48,191.06 1771.43,190.205 1773.39,189.36 1775.35,188.524 1777.31,187.698 1779.26,186.882 1781.22,186.074 1783.18,185.275 1785.14,184.486 1787.09,183.705 1789.05,182.933 1791.01,182.169 1792.97,181.414 1794.92,180.666 1796.88,179.927 1798.84,179.197 1800.8,178.474 1802.75,177.758 1804.71,177.051 1806.67,176.351 1808.63,175.658 1810.58,174.973 1812.54,174.295 1814.5,173.625 1816.46,172.961 1818.41,172.304 1820.37,171.654 1822.33,171.011 1824.29,170.375 1826.24,169.745 1828.2,169.122 1830.16,168.505 1832.12,167.894 1834.07,167.29 1836.03,166.692 1837.99,166.099 1839.95,165.513 1841.9,164.933 1843.86,164.358 1845.82,163.79 1847.78,163.226 1849.73,162.669 1851.69,162.117 1853.65,161.57 1855.61,161.029 1857.56,160.493 1859.52,159.962 1861.48,159.437 1863.44,158.917 1865.39,158.401 1867.35,157.891 1869.31,157.385 1871.27,156.884 1873.22,156.388 1875.18,155.897 1877.14,155.411 1879.1,154.929 1881.05,154.451 1883.01,153.978 1884.97,153.51 1886.93,153.045 1888.88,152.586 1890.84,152.13 1892.8,151.679 1894.76,151.231 1896.71,150.788 1898.67,150.349 1900.63,149.914 1902.59,149.483 1904.54,149.055 1906.5,148.632 1908.46,148.212 1910.42,147.797 1912.37,147.384 1914.33,146.976 1916.29,146.571 1918.25,146.17 1920.2,145.772 1922.16,145.378 1924.12,144.987 1926.08,144.6 1928.03,144.216 1929.99,143.835 1931.95,143.458 1933.91,143.084 1935.86,142.713 1937.82,142.345 1939.78,141.981 1941.74,141.619 1943.69,141.261 1945.65,140.906 1947.61,140.554 1949.57,140.204 1951.52,139.858 1953.48,139.514 1955.44,139.174 1957.4,138.836 1959.35,138.501 1961.31,138.169 1963.27,137.839 1965.23,137.513 1967.18,137.189 1969.14,136.867 1971.1,136.549 1973.06,136.232 1975.01,135.919 1976.97,135.608 1978.93,135.299 1980.89,134.993 1982.84,134.689 1984.8,134.388 1986.76,134.089 1988.72,133.793 1990.67,133.499 1992.63,133.207 1994.59,132.918 1996.55,132.63 1998.5,132.346 2000.46,132.063 2002.42,131.782 2004.38,131.504 2006.33,131.228 2008.29,130.954 2010.25,130.682 2012.21,130.412 2014.16,130.144 2016.12,129.879 2018.08,129.615 2020.04,129.353 2021.99,129.094 2023.95,128.836 2025.91,128.58 2027.87,128.326 2029.82,128.074 2031.78,127.824 2033.74,127.576 2035.7,127.329 2037.65,127.085 2039.61,126.842 2041.57,126.601 2043.53,126.362 2045.48,126.125 2047.44,125.889 2049.4,125.655 2051.36,125.423 2053.31,125.192 2055.27,124.963 2057.23,124.736 2059.19,124.51 2061.15,124.286 2063.1,124.064 2065.06,123.843 2067.02,123.624 2068.98,123.406 2070.93,123.19 2072.89,122.975 2074.85,122.762 2076.81,122.551 2078.76,122.341 2080.72,122.132 2082.68,121.925 2084.64,121.719 2086.59,121.515 2088.55,121.312 2090.51,121.11 2092.47,120.91 2094.42,120.712 2096.38,120.514 2098.34,120.318 2100.3,120.123 2102.25,119.93 2104.21,119.738 2106.17,119.547 2108.13,119.358 2110.08,119.17 2112.04,118.983 2114,118.797 2115.96,118.613 2117.91,118.429 2119.87,118.247 2121.83,118.067 2123.79,117.887 2125.74,117.709 2127.7,117.531 2129.66,117.355 2131.62,117.18 2133.57,117.007 2135.53,116.834 2137.49,116.663 2139.45,116.492 2141.4,116.323 2143.36,116.155 2145.32,115.988 2147.28,115.822 2149.23,115.657 2151.19,115.493 2153.15,115.33 2155.11,115.168 2157.06,115.007 2159.02,114.847 2160.98,114.689 2162.94,114.531 2164.89,114.374 2166.85,114.218 2168.81,114.063 2170.77,113.91 2172.72,113.757 2174.68,113.605 2176.64,113.454 2178.6,113.304 2180.55,113.154 2182.51,113.006 2184.47,112.859 2186.43,112.713 2188.38,112.567 2190.34,112.422 2192.3,112.279 2194.26,112.136 2196.21,111.994 2198.17,111.853 2200.13,111.712 2202.09,111.573 2204.04,111.434 2206,111.296 2207.96,111.159 2209.92,111.023 2211.87,110.888 2213.83,110.753 2215.79,110.62 2217.75,110.487 2219.7,110.355 2221.66,110.223 2223.62,110.093 2225.58,109.963 2227.53,109.834 2229.49,109.705 2231.45,109.578 2233.41,109.451 2235.36,109.325 2237.32,109.199 2239.28,109.075 2241.24,108.951 2243.19,108.828 2245.15,108.705 2247.11,108.583 2249.07,108.462 2251.02,108.342 2252.98,108.222 2254.94,108.103 2256.9,107.985 2258.85,107.867 2260.81,107.75 2262.77,107.633 2264.73,107.518 2266.68,107.402 2268.64,107.288 2270.6,107.174 2272.56,107.061 2274.51,106.948 2276.47,106.837 2278.43,106.725 2280.39,106.614 2282.34,106.504 2284.3,106.395 2286.26,106.286 2288.22,106.178 2290.17,106.07 2292.13,105.963 2294.09,105.856 "/>
<polyline clip-path="url(#clip312)" style="stroke:#ff0000; stroke-linecap:round; stroke-linejoin:round; stroke-width:4; stroke-opacity:1; fill:none" points="1218.53,2799.12 1218.53,-1328.69 "/>
<polyline clip-path="url(#clip312)" style="stroke:#ff0000; stroke-linecap:round; stroke-linejoin:round; stroke-width:4; stroke-opacity:1; fill:none" points="1414.09,2799.12 1414.09,-1328.69 "/>
</svg>
