<?xml version="1.0" encoding="utf-8"?>
<svg xmlns="http://www.w3.org/2000/svg" xmlns:xlink="http://www.w3.org/1999/xlink" width="600" height="400" viewBox="0 0 2400 1600">
<defs>
  <clipPath id="clip670">
    <rect x="0" y="0" width="2400" height="1600"/>
  </clipPath>
</defs>
<path clip-path="url(#clip670)" d="M0 1600 L2400 1600 L2400 0 L0 0  Z" fill="#ffffff" fill-rule="evenodd" fill-opacity="1"/>
<defs>
  <clipPath id="clip671">
    <rect x="480" y="0" width="1681" height="1600"/>
  </clipPath>
</defs>
<path clip-path="url(#clip670)" d="M310.352 1423.18 L2352.76 1423.18 L2352.76 123.472 L310.352 123.472  Z" fill="#ffffff" fill-rule="evenodd" fill-opacity="1"/>
<defs>
  <clipPath id="clip672">
    <rect x="310" y="123" width="2043" height="1301"/>
  </clipPath>
</defs>
<polyline clip-path="url(#clip672)" style="stroke:#000000; stroke-linecap:round; stroke-linejoin:round; stroke-width:2; stroke-opacity:0.1; fill:none" points="329.62,1423.18 329.62,123.472 "/>
<polyline clip-path="url(#clip672)" style="stroke:#000000; stroke-linecap:round; stroke-linejoin:round; stroke-width:2; stroke-opacity:0.1; fill:none" points="714.979,1423.18 714.979,123.472 "/>
<polyline clip-path="url(#clip672)" style="stroke:#000000; stroke-linecap:round; stroke-linejoin:round; stroke-width:2; stroke-opacity:0.1; fill:none" points="1100.34,1423.18 1100.34,123.472 "/>
<polyline clip-path="url(#clip672)" style="stroke:#000000; stroke-linecap:round; stroke-linejoin:round; stroke-width:2; stroke-opacity:0.1; fill:none" points="1485.7,1423.18 1485.7,123.472 "/>
<polyline clip-path="url(#clip672)" style="stroke:#000000; stroke-linecap:round; stroke-linejoin:round; stroke-width:2; stroke-opacity:0.1; fill:none" points="1871.06,1423.18 1871.06,123.472 "/>
<polyline clip-path="url(#clip672)" style="stroke:#000000; stroke-linecap:round; stroke-linejoin:round; stroke-width:2; stroke-opacity:0.1; fill:none" points="2256.42,1423.18 2256.42,123.472 "/>
<polyline clip-path="url(#clip672)" style="stroke:#000000; stroke-linecap:round; stroke-linejoin:round; stroke-width:2; stroke-opacity:0.1; fill:none" points="310.352,1316.61 2352.76,1316.61 "/>
<polyline clip-path="url(#clip672)" style="stroke:#000000; stroke-linecap:round; stroke-linejoin:round; stroke-width:2; stroke-opacity:0.1; fill:none" points="310.352,1050.58 2352.76,1050.58 "/>
<polyline clip-path="url(#clip672)" style="stroke:#000000; stroke-linecap:round; stroke-linejoin:round; stroke-width:2; stroke-opacity:0.1; fill:none" points="310.352,784.547 2352.76,784.547 "/>
<polyline clip-path="url(#clip672)" style="stroke:#000000; stroke-linecap:round; stroke-linejoin:round; stroke-width:2; stroke-opacity:0.1; fill:none" points="310.352,518.514 2352.76,518.514 "/>
<polyline clip-path="url(#clip672)" style="stroke:#000000; stroke-linecap:round; stroke-linejoin:round; stroke-width:2; stroke-opacity:0.1; fill:none" points="310.352,252.481 2352.76,252.481 "/>
<polyline clip-path="url(#clip670)" style="stroke:#000000; stroke-linecap:round; stroke-linejoin:round; stroke-width:4; stroke-opacity:1; fill:none" points="310.352,1423.18 2352.76,1423.18 "/>
<polyline clip-path="url(#clip670)" style="stroke:#000000; stroke-linecap:round; stroke-linejoin:round; stroke-width:4; stroke-opacity:1; fill:none" points="329.62,1423.18 329.62,1404.28 "/>
<polyline clip-path="url(#clip670)" style="stroke:#000000; stroke-linecap:round; stroke-linejoin:round; stroke-width:4; stroke-opacity:1; fill:none" points="714.979,1423.18 714.979,1404.28 "/>
<polyline clip-path="url(#clip670)" style="stroke:#000000; stroke-linecap:round; stroke-linejoin:round; stroke-width:4; stroke-opacity:1; fill:none" points="1100.34,1423.18 1100.34,1404.28 "/>
<polyline clip-path="url(#clip670)" style="stroke:#000000; stroke-linecap:round; stroke-linejoin:round; stroke-width:4; stroke-opacity:1; fill:none" points="1485.7,1423.18 1485.7,1404.28 "/>
<polyline clip-path="url(#clip670)" style="stroke:#000000; stroke-linecap:round; stroke-linejoin:round; stroke-width:4; stroke-opacity:1; fill:none" points="1871.06,1423.18 1871.06,1404.28 "/>
<polyline clip-path="url(#clip670)" style="stroke:#000000; stroke-linecap:round; stroke-linejoin:round; stroke-width:4; stroke-opacity:1; fill:none" points="2256.42,1423.18 2256.42,1404.28 "/>
<path clip-path="url(#clip670)" d="M329.62 1454.1 Q326.009 1454.1 324.18 1457.66 Q322.375 1461.2 322.375 1468.33 Q322.375 1475.44 324.18 1479.01 Q326.009 1482.55 329.62 1482.55 Q333.254 1482.55 335.06 1479.01 Q336.888 1475.44 336.888 1468.33 Q336.888 1461.2 335.06 1457.66 Q333.254 1454.1 329.62 1454.1 M329.62 1450.39 Q335.43 1450.39 338.486 1455 Q341.564 1459.58 341.564 1468.33 Q341.564 1477.06 338.486 1481.67 Q335.43 1486.25 329.62 1486.25 Q323.81 1486.25 320.731 1481.67 Q317.675 1477.06 317.675 1468.33 Q317.675 1459.58 320.731 1455 Q323.81 1450.39 329.62 1450.39 Z" fill="#000000" fill-rule="nonzero" fill-opacity="1" /><path clip-path="url(#clip670)" d="M689.667 1481.64 L697.306 1481.64 L697.306 1455.28 L688.995 1456.95 L688.995 1452.69 L697.259 1451.02 L701.935 1451.02 L701.935 1481.64 L709.574 1481.64 L709.574 1485.58 L689.667 1485.58 L689.667 1481.64 Z" fill="#000000" fill-rule="nonzero" fill-opacity="1" /><path clip-path="url(#clip670)" d="M729.018 1454.1 Q725.407 1454.1 723.579 1457.66 Q721.773 1461.2 721.773 1468.33 Q721.773 1475.44 723.579 1479.01 Q725.407 1482.55 729.018 1482.55 Q732.653 1482.55 734.458 1479.01 Q736.287 1475.44 736.287 1468.33 Q736.287 1461.2 734.458 1457.66 Q732.653 1454.1 729.018 1454.1 M729.018 1450.39 Q734.829 1450.39 737.884 1455 Q740.963 1459.58 740.963 1468.33 Q740.963 1477.06 737.884 1481.67 Q734.829 1486.25 729.018 1486.25 Q723.208 1486.25 720.13 1481.67 Q717.074 1477.06 717.074 1468.33 Q717.074 1459.58 720.13 1455 Q723.208 1450.39 729.018 1450.39 Z" fill="#000000" fill-rule="nonzero" fill-opacity="1" /><path clip-path="url(#clip670)" d="M1079.11 1481.64 L1095.43 1481.64 L1095.43 1485.58 L1073.49 1485.58 L1073.49 1481.64 Q1076.15 1478.89 1080.73 1474.26 Q1085.34 1469.61 1086.52 1468.27 Q1088.76 1465.74 1089.64 1464.01 Q1090.55 1462.25 1090.55 1460.56 Q1090.55 1457.8 1088.6 1456.07 Q1086.68 1454.33 1083.58 1454.33 Q1081.38 1454.33 1078.93 1455.09 Q1076.5 1455.86 1073.72 1457.41 L1073.72 1452.69 Q1076.54 1451.55 1079 1450.97 Q1081.45 1450.39 1083.49 1450.39 Q1088.86 1450.39 1092.05 1453.08 Q1095.25 1455.77 1095.25 1460.26 Q1095.25 1462.39 1094.44 1464.31 Q1093.65 1466.2 1091.54 1468.8 Q1090.96 1469.47 1087.86 1472.69 Q1084.76 1475.88 1079.11 1481.64 Z" fill="#000000" fill-rule="nonzero" fill-opacity="1" /><path clip-path="url(#clip670)" d="M1115.25 1454.1 Q1111.63 1454.1 1109.81 1457.66 Q1108 1461.2 1108 1468.33 Q1108 1475.44 1109.81 1479.01 Q1111.63 1482.55 1115.25 1482.55 Q1118.88 1482.55 1120.69 1479.01 Q1122.51 1475.44 1122.51 1468.33 Q1122.51 1461.2 1120.69 1457.66 Q1118.88 1454.1 1115.25 1454.1 M1115.25 1450.39 Q1121.06 1450.39 1124.11 1455 Q1127.19 1459.58 1127.19 1468.33 Q1127.19 1477.06 1124.11 1481.67 Q1121.06 1486.25 1115.25 1486.25 Q1109.44 1486.25 1106.36 1481.67 Q1103.3 1477.06 1103.3 1468.33 Q1103.3 1459.58 1106.36 1455 Q1109.44 1450.39 1115.25 1450.39 Z" fill="#000000" fill-rule="nonzero" fill-opacity="1" /><path clip-path="url(#clip670)" d="M1474.54 1466.95 Q1477.9 1467.66 1479.77 1469.93 Q1481.67 1472.2 1481.67 1475.53 Q1481.67 1480.65 1478.15 1483.45 Q1474.63 1486.25 1468.15 1486.25 Q1465.98 1486.25 1463.66 1485.81 Q1461.37 1485.39 1458.92 1484.54 L1458.92 1480.02 Q1460.86 1481.16 1463.17 1481.74 Q1465.49 1482.32 1468.01 1482.32 Q1472.41 1482.32 1474.7 1480.58 Q1477.02 1478.84 1477.02 1475.53 Q1477.02 1472.48 1474.86 1470.77 Q1472.73 1469.03 1468.92 1469.03 L1464.89 1469.03 L1464.89 1465.19 L1469.1 1465.19 Q1472.55 1465.19 1474.38 1463.82 Q1476.21 1462.43 1476.21 1459.84 Q1476.21 1457.18 1474.31 1455.77 Q1472.43 1454.33 1468.92 1454.33 Q1466.99 1454.33 1464.79 1454.75 Q1462.6 1455.16 1459.96 1456.04 L1459.96 1451.88 Q1462.62 1451.14 1464.93 1450.77 Q1467.27 1450.39 1469.33 1450.39 Q1474.66 1450.39 1477.76 1452.83 Q1480.86 1455.23 1480.86 1459.35 Q1480.86 1462.22 1479.22 1464.21 Q1477.57 1466.18 1474.54 1466.95 Z" fill="#000000" fill-rule="nonzero" fill-opacity="1" /><path clip-path="url(#clip670)" d="M1500.54 1454.1 Q1496.92 1454.1 1495.1 1457.66 Q1493.29 1461.2 1493.29 1468.33 Q1493.29 1475.44 1495.1 1479.01 Q1496.92 1482.55 1500.54 1482.55 Q1504.17 1482.55 1505.98 1479.01 Q1507.8 1475.44 1507.8 1468.33 Q1507.8 1461.2 1505.98 1457.66 Q1504.17 1454.1 1500.54 1454.1 M1500.54 1450.39 Q1506.35 1450.39 1509.4 1455 Q1512.48 1459.58 1512.48 1468.33 Q1512.48 1477.06 1509.4 1481.67 Q1506.35 1486.25 1500.54 1486.25 Q1494.73 1486.25 1491.65 1481.67 Q1488.59 1477.06 1488.59 1468.33 Q1488.59 1459.58 1491.65 1455 Q1494.73 1450.39 1500.54 1450.39 Z" fill="#000000" fill-rule="nonzero" fill-opacity="1" /><path clip-path="url(#clip670)" d="M1859.23 1455.09 L1847.42 1473.54 L1859.23 1473.54 L1859.23 1455.09 M1858 1451.02 L1863.88 1451.02 L1863.88 1473.54 L1868.81 1473.54 L1868.81 1477.43 L1863.88 1477.43 L1863.88 1485.58 L1859.23 1485.58 L1859.23 1477.43 L1843.63 1477.43 L1843.63 1472.92 L1858 1451.02 Z" fill="#000000" fill-rule="nonzero" fill-opacity="1" /><path clip-path="url(#clip670)" d="M1886.54 1454.1 Q1882.93 1454.1 1881.1 1457.66 Q1879.3 1461.2 1879.3 1468.33 Q1879.3 1475.44 1881.1 1479.01 Q1882.93 1482.55 1886.54 1482.55 Q1890.18 1482.55 1891.98 1479.01 Q1893.81 1475.44 1893.81 1468.33 Q1893.81 1461.2 1891.98 1457.66 Q1890.18 1454.1 1886.54 1454.1 M1886.54 1450.39 Q1892.35 1450.39 1895.41 1455 Q1898.49 1459.58 1898.49 1468.33 Q1898.49 1477.06 1895.41 1481.67 Q1892.35 1486.25 1886.54 1486.25 Q1880.73 1486.25 1877.65 1481.67 Q1874.6 1477.06 1874.6 1468.33 Q1874.6 1459.58 1877.65 1455 Q1880.73 1450.39 1886.54 1450.39 Z" fill="#000000" fill-rule="nonzero" fill-opacity="1" /><path clip-path="url(#clip670)" d="M2231.12 1451.02 L2249.47 1451.02 L2249.47 1454.96 L2235.4 1454.96 L2235.4 1463.43 Q2236.42 1463.08 2237.43 1462.92 Q2238.45 1462.73 2239.47 1462.73 Q2245.26 1462.73 2248.64 1465.9 Q2252.02 1469.08 2252.02 1474.49 Q2252.02 1480.07 2248.55 1483.17 Q2245.07 1486.25 2238.75 1486.25 Q2236.58 1486.25 2234.31 1485.88 Q2232.06 1485.51 2229.66 1484.77 L2229.66 1480.07 Q2231.74 1481.2 2233.96 1481.76 Q2236.18 1482.32 2238.66 1482.32 Q2242.67 1482.32 2245 1480.21 Q2247.34 1478.1 2247.34 1474.49 Q2247.34 1470.88 2245 1468.77 Q2242.67 1466.67 2238.66 1466.67 Q2236.79 1466.67 2234.91 1467.08 Q2233.06 1467.5 2231.12 1468.38 L2231.12 1451.02 Z" fill="#000000" fill-rule="nonzero" fill-opacity="1" /><path clip-path="url(#clip670)" d="M2271.23 1454.1 Q2267.62 1454.1 2265.79 1457.66 Q2263.99 1461.2 2263.99 1468.33 Q2263.99 1475.44 2265.79 1479.01 Q2267.62 1482.55 2271.23 1482.55 Q2274.87 1482.55 2276.67 1479.01 Q2278.5 1475.44 2278.5 1468.33 Q2278.5 1461.2 2276.67 1457.66 Q2274.87 1454.1 2271.23 1454.1 M2271.23 1450.39 Q2277.04 1450.39 2280.1 1455 Q2283.18 1459.58 2283.18 1468.33 Q2283.18 1477.06 2280.1 1481.67 Q2277.04 1486.25 2271.23 1486.25 Q2265.42 1486.25 2262.34 1481.67 Q2259.29 1477.06 2259.29 1468.33 Q2259.29 1459.58 2262.34 1455 Q2265.42 1450.39 2271.23 1450.39 Z" fill="#000000" fill-rule="nonzero" fill-opacity="1" /><path clip-path="url(#clip670)" d="M1199.27 1520.52 L1205.7 1520.52 L1205.7 1568.04 L1199.27 1568.04 L1199.27 1520.52 Z" fill="#000000" fill-rule="nonzero" fill-opacity="1" /><path clip-path="url(#clip670)" d="M1224.04 1522.27 L1224.04 1532.4 L1236.1 1532.4 L1236.1 1536.95 L1224.04 1536.95 L1224.04 1556.3 Q1224.04 1560.66 1225.21 1561.9 Q1226.42 1563.14 1230.08 1563.14 L1236.1 1563.14 L1236.1 1568.04 L1230.08 1568.04 Q1223.31 1568.04 1220.73 1565.53 Q1218.15 1562.98 1218.15 1556.3 L1218.15 1536.95 L1213.85 1536.95 L1213.85 1532.4 L1218.15 1532.4 L1218.15 1522.27 L1224.04 1522.27 Z" fill="#000000" fill-rule="nonzero" fill-opacity="1" /><path clip-path="url(#clip670)" d="M1274.29 1548.76 L1274.29 1551.62 L1247.37 1551.62 Q1247.75 1557.67 1251 1560.85 Q1254.27 1564 1260.1 1564 Q1263.47 1564 1266.62 1563.17 Q1269.81 1562.35 1272.93 1560.69 L1272.93 1566.23 Q1269.77 1567.57 1266.46 1568.27 Q1263.15 1568.97 1259.75 1568.97 Q1251.22 1568.97 1246.22 1564 Q1241.26 1559.04 1241.26 1550.57 Q1241.26 1541.82 1245.97 1536.69 Q1250.71 1531.54 1258.73 1531.54 Q1265.92 1531.54 1270.09 1536.18 Q1274.29 1540.8 1274.29 1548.76 M1268.44 1547.04 Q1268.37 1542.23 1265.73 1539.37 Q1263.12 1536.5 1258.79 1536.5 Q1253.89 1536.5 1250.93 1539.27 Q1248 1542.04 1247.56 1547.07 L1268.44 1547.04 Z" fill="#000000" fill-rule="nonzero" fill-opacity="1" /><path clip-path="url(#clip670)" d="M1304.56 1537.87 Q1303.58 1537.3 1302.4 1537.04 Q1301.25 1536.76 1299.85 1536.76 Q1294.89 1536.76 1292.21 1540 Q1289.57 1543.22 1289.57 1549.27 L1289.57 1568.04 L1283.68 1568.04 L1283.68 1532.4 L1289.57 1532.4 L1289.57 1537.93 Q1291.42 1534.69 1294.38 1533.13 Q1297.34 1531.54 1301.57 1531.54 Q1302.18 1531.54 1302.91 1531.63 Q1303.64 1531.7 1304.53 1531.85 L1304.56 1537.87 Z" fill="#000000" fill-rule="nonzero" fill-opacity="1" /><path clip-path="url(#clip670)" d="M1326.91 1550.12 Q1319.81 1550.12 1317.07 1551.75 Q1314.33 1553.37 1314.33 1557.29 Q1314.33 1560.4 1316.37 1562.25 Q1318.44 1564.07 1321.97 1564.07 Q1326.84 1564.07 1329.77 1560.63 Q1332.73 1557.16 1332.73 1551.43 L1332.73 1550.12 L1326.91 1550.12 M1338.59 1547.71 L1338.59 1568.04 L1332.73 1568.04 L1332.73 1562.63 Q1330.73 1565.88 1327.73 1567.44 Q1324.74 1568.97 1320.41 1568.97 Q1314.94 1568.97 1311.69 1565.91 Q1308.48 1562.82 1308.48 1557.67 Q1308.48 1551.65 1312.49 1548.6 Q1316.53 1545.54 1324.52 1545.54 L1332.73 1545.54 L1332.73 1544.97 Q1332.73 1540.93 1330.06 1538.73 Q1327.42 1536.5 1322.61 1536.5 Q1319.55 1536.5 1316.66 1537.23 Q1313.76 1537.97 1311.09 1539.43 L1311.09 1534.02 Q1314.3 1532.78 1317.33 1532.17 Q1320.35 1531.54 1323.21 1531.54 Q1330.95 1531.54 1334.77 1535.55 Q1338.59 1539.56 1338.59 1547.71 Z" fill="#000000" fill-rule="nonzero" fill-opacity="1" /><path clip-path="url(#clip670)" d="M1356.44 1522.27 L1356.44 1532.4 L1368.51 1532.4 L1368.51 1536.95 L1356.44 1536.95 L1356.44 1556.3 Q1356.44 1560.66 1357.62 1561.9 Q1358.83 1563.14 1362.49 1563.14 L1368.51 1563.14 L1368.51 1568.04 L1362.49 1568.04 Q1355.71 1568.04 1353.13 1565.53 Q1350.56 1562.98 1350.56 1556.3 L1350.56 1536.95 L1346.26 1536.95 L1346.26 1532.4 L1350.56 1532.4 L1350.56 1522.27 L1356.44 1522.27 Z" fill="#000000" fill-rule="nonzero" fill-opacity="1" /><path clip-path="url(#clip670)" d="M1376.21 1532.4 L1382.07 1532.4 L1382.07 1568.04 L1376.21 1568.04 L1376.21 1532.4 M1376.21 1518.52 L1382.07 1518.52 L1382.07 1525.93 L1376.21 1525.93 L1376.21 1518.52 Z" fill="#000000" fill-rule="nonzero" fill-opacity="1" /><path clip-path="url(#clip670)" d="M1408.13 1536.5 Q1403.42 1536.5 1400.69 1540.19 Q1397.95 1543.85 1397.95 1550.25 Q1397.95 1556.65 1400.65 1560.34 Q1403.39 1564 1408.13 1564 Q1412.81 1564 1415.55 1560.31 Q1418.29 1556.62 1418.29 1550.25 Q1418.29 1543.92 1415.55 1540.23 Q1412.81 1536.5 1408.13 1536.5 M1408.13 1531.54 Q1415.77 1531.54 1420.13 1536.5 Q1424.49 1541.47 1424.49 1550.25 Q1424.49 1559 1420.13 1564 Q1415.77 1568.97 1408.13 1568.97 Q1400.46 1568.97 1396.1 1564 Q1391.77 1559 1391.77 1550.25 Q1391.77 1541.47 1396.1 1536.5 Q1400.46 1531.54 1408.13 1531.54 Z" fill="#000000" fill-rule="nonzero" fill-opacity="1" /><path clip-path="url(#clip670)" d="M1463.83 1546.53 L1463.83 1568.04 L1457.98 1568.04 L1457.98 1546.72 Q1457.98 1541.66 1456 1539.14 Q1454.03 1536.63 1450.08 1536.63 Q1445.34 1536.63 1442.6 1539.65 Q1439.87 1542.68 1439.87 1547.9 L1439.87 1568.04 L1433.98 1568.04 L1433.98 1532.4 L1439.87 1532.4 L1439.87 1537.93 Q1441.97 1534.72 1444.8 1533.13 Q1447.66 1531.54 1451.39 1531.54 Q1457.53 1531.54 1460.68 1535.36 Q1463.83 1539.14 1463.83 1546.53 Z" fill="#000000" fill-rule="nonzero" fill-opacity="1" /><polyline clip-path="url(#clip670)" style="stroke:#000000; stroke-linecap:round; stroke-linejoin:round; stroke-width:4; stroke-opacity:1; fill:none" points="310.352,1423.18 310.352,123.472 "/>
<polyline clip-path="url(#clip670)" style="stroke:#000000; stroke-linecap:round; stroke-linejoin:round; stroke-width:4; stroke-opacity:1; fill:none" points="310.352,1316.61 329.25,1316.61 "/>
<polyline clip-path="url(#clip670)" style="stroke:#000000; stroke-linecap:round; stroke-linejoin:round; stroke-width:4; stroke-opacity:1; fill:none" points="310.352,1050.58 329.25,1050.58 "/>
<polyline clip-path="url(#clip670)" style="stroke:#000000; stroke-linecap:round; stroke-linejoin:round; stroke-width:4; stroke-opacity:1; fill:none" points="310.352,784.547 329.25,784.547 "/>
<polyline clip-path="url(#clip670)" style="stroke:#000000; stroke-linecap:round; stroke-linejoin:round; stroke-width:4; stroke-opacity:1; fill:none" points="310.352,518.514 329.25,518.514 "/>
<polyline clip-path="url(#clip670)" style="stroke:#000000; stroke-linecap:round; stroke-linejoin:round; stroke-width:4; stroke-opacity:1; fill:none" points="310.352,252.481 329.25,252.481 "/>
<path clip-path="url(#clip670)" d="M126.783 1302.41 Q123.172 1302.41 121.343 1305.98 Q119.538 1309.52 119.538 1316.65 Q119.538 1323.75 121.343 1327.32 Q123.172 1330.86 126.783 1330.86 Q130.417 1330.86 132.223 1327.32 Q134.052 1323.75 134.052 1316.65 Q134.052 1309.52 132.223 1305.98 Q130.417 1302.41 126.783 1302.41 M126.783 1298.71 Q132.593 1298.71 135.649 1303.31 Q138.728 1307.9 138.728 1316.65 Q138.728 1325.37 135.649 1329.98 Q132.593 1334.56 126.783 1334.56 Q120.973 1334.56 117.894 1329.98 Q114.839 1325.37 114.839 1316.65 Q114.839 1307.9 117.894 1303.31 Q120.973 1298.71 126.783 1298.71 Z" fill="#000000" fill-rule="nonzero" fill-opacity="1" /><path clip-path="url(#clip670)" d="M146.945 1328.01 L151.829 1328.01 L151.829 1333.89 L146.945 1333.89 L146.945 1328.01 Z" fill="#000000" fill-rule="nonzero" fill-opacity="1" /><path clip-path="url(#clip670)" d="M172.014 1302.41 Q168.403 1302.41 166.575 1305.98 Q164.769 1309.52 164.769 1316.65 Q164.769 1323.75 166.575 1327.32 Q168.403 1330.86 172.014 1330.86 Q175.649 1330.86 177.454 1327.32 Q179.283 1323.75 179.283 1316.65 Q179.283 1309.52 177.454 1305.98 Q175.649 1302.41 172.014 1302.41 M172.014 1298.71 Q177.825 1298.71 180.88 1303.31 Q183.959 1307.9 183.959 1316.65 Q183.959 1325.37 180.88 1329.98 Q177.825 1334.56 172.014 1334.56 Q166.204 1334.56 163.126 1329.98 Q160.07 1325.37 160.07 1316.65 Q160.07 1307.9 163.126 1303.31 Q166.204 1298.71 172.014 1298.71 Z" fill="#000000" fill-rule="nonzero" fill-opacity="1" /><path clip-path="url(#clip670)" d="M202.176 1302.41 Q198.565 1302.41 196.737 1305.98 Q194.931 1309.52 194.931 1316.65 Q194.931 1323.75 196.737 1327.32 Q198.565 1330.86 202.176 1330.86 Q205.811 1330.86 207.616 1327.32 Q209.445 1323.75 209.445 1316.65 Q209.445 1309.52 207.616 1305.98 Q205.811 1302.41 202.176 1302.41 M202.176 1298.71 Q207.987 1298.71 211.042 1303.31 Q214.121 1307.9 214.121 1316.65 Q214.121 1325.37 211.042 1329.98 Q207.987 1334.56 202.176 1334.56 Q196.366 1334.56 193.288 1329.98 Q190.232 1325.37 190.232 1316.65 Q190.232 1307.9 193.288 1303.31 Q196.366 1298.71 202.176 1298.71 Z" fill="#000000" fill-rule="nonzero" fill-opacity="1" /><path clip-path="url(#clip670)" d="M232.338 1317.48 Q229.005 1317.48 227.084 1319.26 Q225.185 1321.05 225.185 1324.17 Q225.185 1327.3 227.084 1329.08 Q229.005 1330.86 232.338 1330.86 Q235.672 1330.86 237.593 1329.08 Q239.514 1327.27 239.514 1324.17 Q239.514 1321.05 237.593 1319.26 Q235.695 1317.48 232.338 1317.48 M227.662 1315.49 Q224.653 1314.75 222.963 1312.69 Q221.297 1310.63 221.297 1307.67 Q221.297 1303.52 224.236 1301.12 Q227.199 1298.71 232.338 1298.71 Q237.5 1298.71 240.44 1301.12 Q243.38 1303.52 243.38 1307.67 Q243.38 1310.63 241.69 1312.69 Q240.023 1314.75 237.037 1315.49 Q240.417 1316.28 242.292 1318.57 Q244.19 1320.86 244.19 1324.17 Q244.19 1329.19 241.111 1331.88 Q238.056 1334.56 232.338 1334.56 Q226.621 1334.56 223.542 1331.88 Q220.486 1329.19 220.486 1324.17 Q220.486 1320.86 222.385 1318.57 Q224.283 1316.28 227.662 1315.49 M225.949 1308.11 Q225.949 1310.79 227.616 1312.3 Q229.306 1313.8 232.338 1313.8 Q235.347 1313.8 237.037 1312.3 Q238.75 1310.79 238.75 1308.11 Q238.75 1305.42 237.037 1303.92 Q235.347 1302.41 232.338 1302.41 Q229.306 1302.41 227.616 1303.92 Q225.949 1305.42 225.949 1308.11 Z" fill="#000000" fill-rule="nonzero" fill-opacity="1" /><path clip-path="url(#clip670)" d="M262.5 1317.48 Q259.167 1317.48 257.246 1319.26 Q255.347 1321.05 255.347 1324.17 Q255.347 1327.3 257.246 1329.08 Q259.167 1330.86 262.5 1330.86 Q265.833 1330.86 267.755 1329.08 Q269.676 1327.27 269.676 1324.17 Q269.676 1321.05 267.755 1319.26 Q265.857 1317.48 262.5 1317.48 M257.824 1315.49 Q254.815 1314.75 253.125 1312.69 Q251.458 1310.63 251.458 1307.67 Q251.458 1303.52 254.398 1301.12 Q257.361 1298.71 262.5 1298.71 Q267.662 1298.71 270.602 1301.12 Q273.542 1303.52 273.542 1307.67 Q273.542 1310.63 271.852 1312.69 Q270.185 1314.75 267.199 1315.49 Q270.579 1316.28 272.454 1318.57 Q274.352 1320.86 274.352 1324.17 Q274.352 1329.19 271.273 1331.88 Q268.218 1334.56 262.5 1334.56 Q256.783 1334.56 253.704 1331.88 Q250.648 1329.19 250.648 1324.17 Q250.648 1320.86 252.546 1318.57 Q254.445 1316.28 257.824 1315.49 M256.111 1308.11 Q256.111 1310.79 257.778 1312.3 Q259.468 1313.8 262.5 1313.8 Q265.509 1313.8 267.199 1312.3 Q268.912 1310.79 268.912 1308.11 Q268.912 1305.42 267.199 1303.92 Q265.509 1302.41 262.5 1302.41 Q259.468 1302.41 257.778 1303.92 Q256.111 1305.42 256.111 1308.11 Z" fill="#000000" fill-rule="nonzero" fill-opacity="1" /><path clip-path="url(#clip670)" d="M126.691 1036.38 Q123.08 1036.38 121.251 1039.94 Q119.445 1043.49 119.445 1050.61 Q119.445 1057.72 121.251 1061.29 Q123.08 1064.83 126.691 1064.83 Q130.325 1064.83 132.13 1061.29 Q133.959 1057.72 133.959 1050.61 Q133.959 1043.49 132.13 1039.94 Q130.325 1036.38 126.691 1036.38 M126.691 1032.67 Q132.501 1032.67 135.556 1037.28 Q138.635 1041.86 138.635 1050.61 Q138.635 1059.34 135.556 1063.95 Q132.501 1068.53 126.691 1068.53 Q120.88 1068.53 117.802 1063.95 Q114.746 1059.34 114.746 1050.61 Q114.746 1041.86 117.802 1037.28 Q120.88 1032.67 126.691 1032.67 Z" fill="#000000" fill-rule="nonzero" fill-opacity="1" /><path clip-path="url(#clip670)" d="M146.853 1061.98 L151.737 1061.98 L151.737 1067.86 L146.853 1067.86 L146.853 1061.98 Z" fill="#000000" fill-rule="nonzero" fill-opacity="1" /><path clip-path="url(#clip670)" d="M171.922 1036.38 Q168.311 1036.38 166.482 1039.94 Q164.677 1043.49 164.677 1050.61 Q164.677 1057.72 166.482 1061.29 Q168.311 1064.83 171.922 1064.83 Q175.556 1064.83 177.362 1061.29 Q179.19 1057.72 179.19 1050.61 Q179.19 1043.49 177.362 1039.94 Q175.556 1036.38 171.922 1036.38 M171.922 1032.67 Q177.732 1032.67 180.788 1037.28 Q183.866 1041.86 183.866 1050.61 Q183.866 1059.34 180.788 1063.95 Q177.732 1068.53 171.922 1068.53 Q166.112 1068.53 163.033 1063.95 Q159.978 1059.34 159.978 1050.61 Q159.978 1041.86 163.033 1037.28 Q166.112 1032.67 171.922 1032.67 Z" fill="#000000" fill-rule="nonzero" fill-opacity="1" /><path clip-path="url(#clip670)" d="M202.084 1036.38 Q198.473 1036.38 196.644 1039.94 Q194.838 1043.49 194.838 1050.61 Q194.838 1057.72 196.644 1061.29 Q198.473 1064.83 202.084 1064.83 Q205.718 1064.83 207.524 1061.29 Q209.352 1057.72 209.352 1050.61 Q209.352 1043.49 207.524 1039.94 Q205.718 1036.38 202.084 1036.38 M202.084 1032.67 Q207.894 1032.67 210.949 1037.28 Q214.028 1041.86 214.028 1050.61 Q214.028 1059.34 210.949 1063.95 Q207.894 1068.53 202.084 1068.53 Q196.274 1068.53 193.195 1063.95 Q190.139 1059.34 190.139 1050.61 Q190.139 1041.86 193.195 1037.28 Q196.274 1032.67 202.084 1032.67 Z" fill="#000000" fill-rule="nonzero" fill-opacity="1" /><path clip-path="url(#clip670)" d="M222.385 1067.14 L222.385 1062.88 Q224.144 1063.72 225.949 1064.16 Q227.755 1064.6 229.491 1064.6 Q234.121 1064.6 236.551 1061.49 Q239.005 1058.37 239.352 1052.03 Q238.009 1054.02 235.949 1055.08 Q233.889 1056.15 231.389 1056.15 Q226.204 1056.15 223.172 1053.02 Q220.162 1049.87 220.162 1044.43 Q220.162 1039.11 223.31 1035.89 Q226.459 1032.67 231.69 1032.67 Q237.685 1032.67 240.834 1037.28 Q244.005 1041.86 244.005 1050.61 Q244.005 1058.79 240.116 1063.67 Q236.25 1068.53 229.699 1068.53 Q227.94 1068.53 226.135 1068.18 Q224.329 1067.84 222.385 1067.14 M231.69 1052.49 Q234.838 1052.49 236.667 1050.34 Q238.519 1048.18 238.519 1044.43 Q238.519 1040.71 236.667 1038.55 Q234.838 1036.38 231.69 1036.38 Q228.542 1036.38 226.69 1038.55 Q224.861 1040.71 224.861 1044.43 Q224.861 1048.18 226.69 1050.34 Q228.542 1052.49 231.69 1052.49 Z" fill="#000000" fill-rule="nonzero" fill-opacity="1" /><path clip-path="url(#clip670)" d="M262.408 1036.38 Q258.796 1036.38 256.968 1039.94 Q255.162 1043.49 255.162 1050.61 Q255.162 1057.72 256.968 1061.29 Q258.796 1064.83 262.408 1064.83 Q266.042 1064.83 267.847 1061.29 Q269.676 1057.72 269.676 1050.61 Q269.676 1043.49 267.847 1039.94 Q266.042 1036.38 262.408 1036.38 M262.408 1032.67 Q268.218 1032.67 271.273 1037.28 Q274.352 1041.86 274.352 1050.61 Q274.352 1059.34 271.273 1063.95 Q268.218 1068.53 262.408 1068.53 Q256.597 1068.53 253.519 1063.95 Q250.463 1059.34 250.463 1050.61 Q250.463 1041.86 253.519 1037.28 Q256.597 1032.67 262.408 1032.67 Z" fill="#000000" fill-rule="nonzero" fill-opacity="1" /><path clip-path="url(#clip670)" d="M128.288 770.346 Q124.677 770.346 122.848 773.91 Q121.043 777.452 121.043 784.582 Q121.043 791.688 122.848 795.253 Q124.677 798.794 128.288 798.794 Q131.922 798.794 133.728 795.253 Q135.556 791.688 135.556 784.582 Q135.556 777.452 133.728 773.91 Q131.922 770.346 128.288 770.346 M128.288 766.642 Q134.098 766.642 137.154 771.248 Q140.232 775.832 140.232 784.582 Q140.232 793.308 137.154 797.915 Q134.098 802.498 128.288 802.498 Q122.478 802.498 119.399 797.915 Q116.343 793.308 116.343 784.582 Q116.343 775.832 119.399 771.248 Q122.478 766.642 128.288 766.642 Z" fill="#000000" fill-rule="nonzero" fill-opacity="1" /><path clip-path="url(#clip670)" d="M148.45 795.947 L153.334 795.947 L153.334 801.827 L148.45 801.827 L148.45 795.947 Z" fill="#000000" fill-rule="nonzero" fill-opacity="1" /><path clip-path="url(#clip670)" d="M173.519 770.346 Q169.908 770.346 168.079 773.91 Q166.274 777.452 166.274 784.582 Q166.274 791.688 168.079 795.253 Q169.908 798.794 173.519 798.794 Q177.153 798.794 178.959 795.253 Q180.788 791.688 180.788 784.582 Q180.788 777.452 178.959 773.91 Q177.153 770.346 173.519 770.346 M173.519 766.642 Q179.329 766.642 182.385 771.248 Q185.463 775.832 185.463 784.582 Q185.463 793.308 182.385 797.915 Q179.329 802.498 173.519 802.498 Q167.709 802.498 164.63 797.915 Q161.575 793.308 161.575 784.582 Q161.575 775.832 164.63 771.248 Q167.709 766.642 173.519 766.642 Z" fill="#000000" fill-rule="nonzero" fill-opacity="1" /><path clip-path="url(#clip670)" d="M203.681 770.346 Q200.07 770.346 198.241 773.91 Q196.436 777.452 196.436 784.582 Q196.436 791.688 198.241 795.253 Q200.07 798.794 203.681 798.794 Q207.315 798.794 209.121 795.253 Q210.949 791.688 210.949 784.582 Q210.949 777.452 209.121 773.91 Q207.315 770.346 203.681 770.346 M203.681 766.642 Q209.491 766.642 212.547 771.248 Q215.625 775.832 215.625 784.582 Q215.625 793.308 212.547 797.915 Q209.491 802.498 203.681 802.498 Q197.871 802.498 194.792 797.915 Q191.737 793.308 191.737 784.582 Q191.737 775.832 194.792 771.248 Q197.871 766.642 203.681 766.642 Z" fill="#000000" fill-rule="nonzero" fill-opacity="1" /><path clip-path="url(#clip670)" d="M223.982 801.109 L223.982 796.85 Q225.741 797.683 227.547 798.123 Q229.352 798.563 231.088 798.563 Q235.718 798.563 238.148 795.461 Q240.602 792.336 240.949 785.994 Q239.607 787.984 237.547 789.049 Q235.486 790.114 232.986 790.114 Q227.801 790.114 224.769 786.989 Q221.76 783.841 221.76 778.401 Q221.76 773.077 224.908 769.859 Q228.056 766.642 233.287 766.642 Q239.283 766.642 242.431 771.248 Q245.602 775.832 245.602 784.582 Q245.602 792.753 241.713 797.637 Q237.847 802.498 231.297 802.498 Q229.537 802.498 227.732 802.151 Q225.926 801.804 223.982 801.109 M233.287 786.457 Q236.435 786.457 238.264 784.304 Q240.116 782.151 240.116 778.401 Q240.116 774.674 238.264 772.521 Q236.435 770.346 233.287 770.346 Q230.139 770.346 228.287 772.521 Q226.459 774.674 226.459 778.401 Q226.459 782.151 228.287 784.304 Q230.139 786.457 233.287 786.457 Z" fill="#000000" fill-rule="nonzero" fill-opacity="1" /><path clip-path="url(#clip670)" d="M258.033 797.892 L274.352 797.892 L274.352 801.827 L252.408 801.827 L252.408 797.892 Q255.07 795.137 259.653 790.507 Q264.259 785.855 265.44 784.512 Q267.685 781.989 268.565 780.253 Q269.468 778.494 269.468 776.804 Q269.468 774.049 267.523 772.313 Q265.602 770.577 262.5 770.577 Q260.301 770.577 257.847 771.341 Q255.417 772.105 252.639 773.656 L252.639 768.933 Q255.463 767.799 257.917 767.221 Q260.37 766.642 262.408 766.642 Q267.778 766.642 270.972 769.327 Q274.167 772.012 274.167 776.503 Q274.167 778.633 273.357 780.554 Q272.569 782.452 270.463 785.045 Q269.884 785.716 266.782 788.933 Q263.681 792.128 258.033 797.892 Z" fill="#000000" fill-rule="nonzero" fill-opacity="1" /><path clip-path="url(#clip670)" d="M126.205 504.312 Q122.593 504.312 120.765 507.877 Q118.959 511.419 118.959 518.548 Q118.959 525.655 120.765 529.22 Q122.593 532.761 126.205 532.761 Q129.839 532.761 131.644 529.22 Q133.473 525.655 133.473 518.548 Q133.473 511.419 131.644 507.877 Q129.839 504.312 126.205 504.312 M126.205 500.609 Q132.015 500.609 135.07 505.215 Q138.149 509.799 138.149 518.548 Q138.149 527.275 135.07 531.882 Q132.015 536.465 126.205 536.465 Q120.394 536.465 117.316 531.882 Q114.26 527.275 114.26 518.548 Q114.26 509.799 117.316 505.215 Q120.394 500.609 126.205 500.609 Z" fill="#000000" fill-rule="nonzero" fill-opacity="1" /><path clip-path="url(#clip670)" d="M146.366 529.914 L151.251 529.914 L151.251 535.794 L146.366 535.794 L146.366 529.914 Z" fill="#000000" fill-rule="nonzero" fill-opacity="1" /><path clip-path="url(#clip670)" d="M171.436 504.312 Q167.825 504.312 165.996 507.877 Q164.19 511.419 164.19 518.548 Q164.19 525.655 165.996 529.22 Q167.825 532.761 171.436 532.761 Q175.07 532.761 176.876 529.22 Q178.704 525.655 178.704 518.548 Q178.704 511.419 176.876 507.877 Q175.07 504.312 171.436 504.312 M171.436 500.609 Q177.246 500.609 180.301 505.215 Q183.38 509.799 183.38 518.548 Q183.38 527.275 180.301 531.882 Q177.246 536.465 171.436 536.465 Q165.626 536.465 162.547 531.882 Q159.491 527.275 159.491 518.548 Q159.491 509.799 162.547 505.215 Q165.626 500.609 171.436 500.609 Z" fill="#000000" fill-rule="nonzero" fill-opacity="1" /><path clip-path="url(#clip670)" d="M201.598 504.312 Q197.987 504.312 196.158 507.877 Q194.352 511.419 194.352 518.548 Q194.352 525.655 196.158 529.22 Q197.987 532.761 201.598 532.761 Q205.232 532.761 207.037 529.22 Q208.866 525.655 208.866 518.548 Q208.866 511.419 207.037 507.877 Q205.232 504.312 201.598 504.312 M201.598 500.609 Q207.408 500.609 210.463 505.215 Q213.542 509.799 213.542 518.548 Q213.542 527.275 210.463 531.882 Q207.408 536.465 201.598 536.465 Q195.787 536.465 192.709 531.882 Q189.653 527.275 189.653 518.548 Q189.653 509.799 192.709 505.215 Q195.787 500.609 201.598 500.609 Z" fill="#000000" fill-rule="nonzero" fill-opacity="1" /><path clip-path="url(#clip670)" d="M221.898 535.076 L221.898 530.817 Q223.658 531.65 225.463 532.09 Q227.269 532.53 229.005 532.53 Q233.635 532.53 236.065 529.428 Q238.519 526.303 238.866 519.96 Q237.523 521.951 235.463 523.016 Q233.403 524.081 230.903 524.081 Q225.718 524.081 222.686 520.956 Q219.676 517.808 219.676 512.368 Q219.676 507.044 222.824 503.826 Q225.973 500.609 231.204 500.609 Q237.199 500.609 240.347 505.215 Q243.519 509.799 243.519 518.548 Q243.519 526.72 239.63 531.604 Q235.764 536.465 229.213 536.465 Q227.454 536.465 225.648 536.118 Q223.843 535.771 221.898 535.076 M231.204 520.423 Q234.352 520.423 236.181 518.271 Q238.033 516.118 238.033 512.368 Q238.033 508.641 236.181 506.488 Q234.352 504.312 231.204 504.312 Q228.056 504.312 226.204 506.488 Q224.375 508.641 224.375 512.368 Q224.375 516.118 226.204 518.271 Q228.056 520.423 231.204 520.423 Z" fill="#000000" fill-rule="nonzero" fill-opacity="1" /><path clip-path="url(#clip670)" d="M264.769 505.308 L252.963 523.757 L264.769 523.757 L264.769 505.308 M263.542 501.234 L269.421 501.234 L269.421 523.757 L274.352 523.757 L274.352 527.646 L269.421 527.646 L269.421 535.794 L264.769 535.794 L264.769 527.646 L249.167 527.646 L249.167 523.132 L263.542 501.234 Z" fill="#000000" fill-rule="nonzero" fill-opacity="1" /><path clip-path="url(#clip670)" d="M126.529 238.279 Q122.918 238.279 121.089 241.844 Q119.283 245.386 119.283 252.515 Q119.283 259.622 121.089 263.187 Q122.918 266.728 126.529 266.728 Q130.163 266.728 131.968 263.187 Q133.797 259.622 133.797 252.515 Q133.797 245.386 131.968 241.844 Q130.163 238.279 126.529 238.279 M126.529 234.576 Q132.339 234.576 135.394 239.182 Q138.473 243.765 138.473 252.515 Q138.473 261.242 135.394 265.849 Q132.339 270.432 126.529 270.432 Q120.718 270.432 117.64 265.849 Q114.584 261.242 114.584 252.515 Q114.584 243.765 117.64 239.182 Q120.718 234.576 126.529 234.576 Z" fill="#000000" fill-rule="nonzero" fill-opacity="1" /><path clip-path="url(#clip670)" d="M146.691 263.881 L151.575 263.881 L151.575 269.761 L146.691 269.761 L146.691 263.881 Z" fill="#000000" fill-rule="nonzero" fill-opacity="1" /><path clip-path="url(#clip670)" d="M171.76 238.279 Q168.149 238.279 166.32 241.844 Q164.515 245.386 164.515 252.515 Q164.515 259.622 166.32 263.187 Q168.149 266.728 171.76 266.728 Q175.394 266.728 177.2 263.187 Q179.028 259.622 179.028 252.515 Q179.028 245.386 177.2 241.844 Q175.394 238.279 171.76 238.279 M171.76 234.576 Q177.57 234.576 180.626 239.182 Q183.704 243.765 183.704 252.515 Q183.704 261.242 180.626 265.849 Q177.57 270.432 171.76 270.432 Q165.95 270.432 162.871 265.849 Q159.815 261.242 159.815 252.515 Q159.815 243.765 162.871 239.182 Q165.95 234.576 171.76 234.576 Z" fill="#000000" fill-rule="nonzero" fill-opacity="1" /><path clip-path="url(#clip670)" d="M201.922 238.279 Q198.311 238.279 196.482 241.844 Q194.676 245.386 194.676 252.515 Q194.676 259.622 196.482 263.187 Q198.311 266.728 201.922 266.728 Q205.556 266.728 207.362 263.187 Q209.19 259.622 209.19 252.515 Q209.19 245.386 207.362 241.844 Q205.556 238.279 201.922 238.279 M201.922 234.576 Q207.732 234.576 210.787 239.182 Q213.866 243.765 213.866 252.515 Q213.866 261.242 210.787 265.849 Q207.732 270.432 201.922 270.432 Q196.112 270.432 193.033 265.849 Q189.977 261.242 189.977 252.515 Q189.977 243.765 193.033 239.182 Q196.112 234.576 201.922 234.576 Z" fill="#000000" fill-rule="nonzero" fill-opacity="1" /><path clip-path="url(#clip670)" d="M222.223 269.043 L222.223 264.784 Q223.982 265.617 225.787 266.057 Q227.593 266.497 229.329 266.497 Q233.959 266.497 236.389 263.395 Q238.843 260.27 239.19 253.927 Q237.847 255.918 235.787 256.983 Q233.727 258.048 231.227 258.048 Q226.042 258.048 223.01 254.923 Q220 251.775 220 246.335 Q220 241.011 223.148 237.793 Q226.297 234.576 231.528 234.576 Q237.523 234.576 240.672 239.182 Q243.843 243.765 243.843 252.515 Q243.843 260.687 239.954 265.571 Q236.088 270.432 229.537 270.432 Q227.778 270.432 225.973 270.085 Q224.167 269.738 222.223 269.043 M231.528 254.39 Q234.676 254.39 236.505 252.238 Q238.357 250.085 238.357 246.335 Q238.357 242.608 236.505 240.455 Q234.676 238.279 231.528 238.279 Q228.38 238.279 226.528 240.455 Q224.699 242.608 224.699 246.335 Q224.699 250.085 226.528 252.238 Q228.38 254.39 231.528 254.39 Z" fill="#000000" fill-rule="nonzero" fill-opacity="1" /><path clip-path="url(#clip670)" d="M262.824 250.617 Q259.676 250.617 257.824 252.77 Q255.996 254.923 255.996 258.673 Q255.996 262.4 257.824 264.576 Q259.676 266.728 262.824 266.728 Q265.972 266.728 267.801 264.576 Q269.653 262.4 269.653 258.673 Q269.653 254.923 267.801 252.77 Q265.972 250.617 262.824 250.617 M272.107 235.965 L272.107 240.224 Q270.347 239.39 268.542 238.951 Q266.759 238.511 265 238.511 Q260.37 238.511 257.917 241.636 Q255.486 244.761 255.139 251.08 Q256.505 249.066 258.565 248.002 Q260.625 246.914 263.102 246.914 Q268.31 246.914 271.32 250.085 Q274.352 253.233 274.352 258.673 Q274.352 263.997 271.204 267.214 Q268.056 270.432 262.824 270.432 Q256.829 270.432 253.658 265.849 Q250.486 261.242 250.486 252.515 Q250.486 244.321 254.375 239.46 Q258.264 234.576 264.815 234.576 Q266.574 234.576 268.357 234.923 Q270.162 235.27 272.107 235.965 Z" fill="#000000" fill-rule="nonzero" fill-opacity="1" /><path clip-path="url(#clip670)" d="M33.7671 788.508 L14.479 788.508 L14.479 782.652 L64.0042 782.652 L64.0042 788.508 L58.657 788.508 Q61.8398 790.354 63.3994 793.187 Q64.9272 795.988 64.9272 799.935 Q64.9272 806.396 59.771 810.47 Q54.6147 814.512 46.212 814.512 Q37.8093 814.512 32.6531 810.47 Q27.4968 806.396 27.4968 799.935 Q27.4968 795.988 29.0564 793.187 Q30.5842 790.354 33.7671 788.508 M46.212 808.465 Q52.6732 808.465 56.3653 805.823 Q60.0256 803.149 60.0256 798.502 Q60.0256 793.855 56.3653 791.182 Q52.6732 788.508 46.212 788.508 Q39.7508 788.508 36.0905 791.182 Q32.3984 793.855 32.3984 798.502 Q32.3984 803.149 36.0905 805.823 Q39.7508 808.465 46.212 808.465 Z" fill="#000000" fill-rule="nonzero" fill-opacity="1" /><path clip-path="url(#clip670)" d="M74.8259 743.503 L79.3773 743.503 L79.3773 777.368 L74.8259 777.368 L74.8259 743.503 Z" fill="#000000" fill-rule="nonzero" fill-opacity="1" /><path clip-path="url(#clip670)" d="M28.3562 737.996 L28.3562 732.14 L64.0042 732.14 L64.0042 737.996 L28.3562 737.996 M14.479 737.996 L14.479 732.14 L21.895 732.14 L21.895 737.996 L14.479 737.996 Z" fill="#000000" fill-rule="nonzero" fill-opacity="1" /><path clip-path="url(#clip670)" d="M794.708 18.8205 L794.708 65.8515 L804.592 65.8515 Q817.109 65.8515 822.902 60.1802 Q828.735 54.509 828.735 42.2752 Q828.735 30.1225 822.902 24.4918 Q817.109 18.8205 804.592 18.8205 L794.708 18.8205 M786.525 12.096 L803.336 12.096 Q820.917 12.096 829.141 19.4281 Q837.364 26.7198 837.364 42.2752 Q837.364 57.9117 829.1 65.2439 Q820.836 72.576 803.336 72.576 L786.525 72.576 L786.525 12.096 Z" fill="#000000" fill-rule="nonzero" fill-opacity="1" /><path clip-path="url(#clip670)" d="M850.084 27.2059 L857.537 27.2059 L857.537 72.576 L850.084 72.576 L850.084 27.2059 M850.084 9.54393 L857.537 9.54393 L857.537 18.9825 L850.084 18.9825 L850.084 9.54393 Z" fill="#000000" fill-rule="nonzero" fill-opacity="1" /><path clip-path="url(#clip670)" d="M902.057 28.5427 L902.057 35.5912 Q898.897 33.9709 895.494 33.1607 Q892.092 32.3505 888.446 32.3505 Q882.896 32.3505 880.101 34.0519 Q877.346 35.7533 877.346 39.156 Q877.346 41.7486 879.331 43.2475 Q881.316 44.7058 887.311 46.0426 L889.864 46.6097 Q897.803 48.3111 901.125 51.4303 Q904.487 54.509 904.487 60.0587 Q904.487 66.3781 899.464 70.0644 Q894.482 73.7508 885.732 73.7508 Q882.086 73.7508 878.116 73.0216 Q874.187 72.3329 869.812 70.9151 L869.812 63.2184 Q873.944 65.3654 877.954 66.4591 Q881.964 67.5124 885.894 67.5124 Q891.16 67.5124 893.995 65.73 Q896.831 63.9071 896.831 60.6258 Q896.831 57.5877 894.765 55.9673 Q892.74 54.3469 885.813 52.8481 L883.22 52.2405 Q876.293 50.7821 873.214 47.7845 Q870.136 44.7463 870.136 39.4801 Q870.136 33.0797 874.673 29.5959 Q879.21 26.1121 887.555 26.1121 Q891.686 26.1121 895.332 26.7198 Q898.978 27.3274 902.057 28.5427 Z" fill="#000000" fill-rule="nonzero" fill-opacity="1" /><path clip-path="url(#clip670)" d="M923.729 14.324 L923.729 27.2059 L939.082 27.2059 L939.082 32.9987 L923.729 32.9987 L923.729 57.6282 Q923.729 63.1779 925.228 64.7578 Q926.767 66.3376 931.426 66.3376 L939.082 66.3376 L939.082 72.576 L931.426 72.576 Q922.797 72.576 919.516 69.3758 Q916.235 66.1351 916.235 57.6282 L916.235 32.9987 L910.766 32.9987 L910.766 27.2059 L916.235 27.2059 L916.235 14.324 L923.729 14.324 Z" fill="#000000" fill-rule="nonzero" fill-opacity="1" /><path clip-path="url(#clip670)" d="M969.504 49.7694 Q960.471 49.7694 956.987 51.8354 Q953.503 53.9013 953.503 58.8839 Q953.503 62.8538 956.096 65.2034 Q958.729 67.5124 963.225 67.5124 Q969.423 67.5124 973.15 63.1374 Q976.917 58.7219 976.917 51.4303 L976.917 49.7694 L969.504 49.7694 M984.371 46.6907 L984.371 72.576 L976.917 72.576 L976.917 65.6895 Q974.365 69.8214 970.558 71.8063 Q966.75 73.7508 961.24 73.7508 Q954.273 73.7508 950.141 69.8619 Q946.05 65.9325 946.05 59.3701 Q946.05 51.7138 951.154 47.825 Q956.298 43.9361 966.466 43.9361 L976.917 43.9361 L976.917 43.2069 Q976.917 38.0623 973.515 35.2672 Q970.152 32.4315 964.036 32.4315 Q960.147 32.4315 956.46 33.3632 Q952.774 34.295 949.371 36.1584 L949.371 29.2718 Q953.463 27.692 957.311 26.9223 Q961.159 26.1121 964.805 26.1121 Q974.649 26.1121 979.51 31.2163 Q984.371 36.3204 984.371 46.6907 Z" fill="#000000" fill-rule="nonzero" fill-opacity="1" /><path clip-path="url(#clip670)" d="M1037.44 45.1919 L1037.44 72.576 L1029.98 72.576 L1029.98 45.4349 Q1029.98 38.994 1027.47 35.7938 Q1024.96 32.5936 1019.94 32.5936 Q1013.9 32.5936 1010.42 36.4419 Q1006.93 40.2903 1006.93 46.9338 L1006.93 72.576 L999.441 72.576 L999.441 27.2059 L1006.93 27.2059 L1006.93 34.2544 Q1009.61 30.163 1013.21 28.1376 Q1016.86 26.1121 1021.6 26.1121 Q1029.42 26.1121 1033.43 30.9732 Q1037.44 35.7938 1037.44 45.1919 Z" fill="#000000" fill-rule="nonzero" fill-opacity="1" /><path clip-path="url(#clip670)" d="M1084.96 28.9478 L1084.96 35.9153 Q1081.8 34.1734 1078.6 33.3227 Q1075.44 32.4315 1072.19 32.4315 Q1064.94 32.4315 1060.93 37.0496 Q1056.92 41.6271 1056.92 49.9314 Q1056.92 58.2358 1060.93 62.8538 Q1064.94 67.4314 1072.19 67.4314 Q1075.44 67.4314 1078.6 66.5807 Q1081.8 65.6895 1084.96 63.9476 L1084.96 70.8341 Q1081.84 72.2924 1078.47 73.0216 Q1075.15 73.7508 1071.38 73.7508 Q1061.14 73.7508 1055.1 67.3098 Q1049.06 60.8689 1049.06 49.9314 Q1049.06 38.832 1055.14 32.472 Q1061.26 26.1121 1071.87 26.1121 Q1075.31 26.1121 1078.6 26.8413 Q1081.88 27.5299 1084.96 28.9478 Z" fill="#000000" fill-rule="nonzero" fill-opacity="1" /><path clip-path="url(#clip670)" d="M1136.73 48.0275 L1136.73 51.6733 L1102.46 51.6733 Q1102.94 59.3701 1107.07 63.421 Q1111.25 67.4314 1118.66 67.4314 Q1122.95 67.4314 1126.96 66.3781 Q1131.01 65.3249 1134.98 63.2184 L1134.98 70.267 Q1130.97 71.9684 1126.76 72.8596 Q1122.55 73.7508 1118.21 73.7508 Q1107.36 73.7508 1101 67.4314 Q1094.68 61.1119 1094.68 50.3365 Q1094.68 39.1965 1100.67 32.6746 Q1106.71 26.1121 1116.92 26.1121 Q1126.07 26.1121 1131.38 32.0264 Q1136.73 37.9003 1136.73 48.0275 M1129.27 45.84 Q1129.19 39.7232 1125.83 36.0774 Q1122.51 32.4315 1117 32.4315 Q1110.76 32.4315 1106.99 35.9558 Q1103.27 39.4801 1102.7 45.8805 L1129.27 45.84 Z" fill="#000000" fill-rule="nonzero" fill-opacity="1" /><path clip-path="url(#clip670)" d="M1182.7 14.324 L1182.7 27.2059 L1198.06 27.2059 L1198.06 32.9987 L1182.7 32.9987 L1182.7 57.6282 Q1182.7 63.1779 1184.2 64.7578 Q1185.74 66.3376 1190.4 66.3376 L1198.06 66.3376 L1198.06 72.576 L1190.4 72.576 Q1181.77 72.576 1178.49 69.3758 Q1175.21 66.1351 1175.21 57.6282 L1175.21 32.9987 L1169.74 32.9987 L1169.74 27.2059 L1175.21 27.2059 L1175.21 14.324 L1182.7 14.324 Z" fill="#000000" fill-rule="nonzero" fill-opacity="1" /><path clip-path="url(#clip670)" d="M1234.15 34.1734 Q1232.89 33.4443 1231.4 33.1202 Q1229.94 32.7556 1228.15 32.7556 Q1221.84 32.7556 1218.43 36.8875 Q1215.07 40.9789 1215.07 48.6757 L1215.07 72.576 L1207.58 72.576 L1207.58 27.2059 L1215.07 27.2059 L1215.07 34.2544 Q1217.42 30.1225 1221.19 28.1376 Q1224.95 26.1121 1230.34 26.1121 Q1231.11 26.1121 1232.04 26.2337 Q1232.98 26.3147 1234.11 26.5172 L1234.15 34.1734 Z" fill="#000000" fill-rule="nonzero" fill-opacity="1" /><path clip-path="url(#clip670)" d="M1262.59 49.7694 Q1253.55 49.7694 1250.07 51.8354 Q1246.59 53.9013 1246.59 58.8839 Q1246.59 62.8538 1249.18 65.2034 Q1251.81 67.5124 1256.31 67.5124 Q1262.51 67.5124 1266.23 63.1374 Q1270 58.7219 1270 51.4303 L1270 49.7694 L1262.59 49.7694 M1277.45 46.6907 L1277.45 72.576 L1270 72.576 L1270 65.6895 Q1267.45 69.8214 1263.64 71.8063 Q1259.83 73.7508 1254.32 73.7508 Q1247.36 73.7508 1243.22 69.8619 Q1239.13 65.9325 1239.13 59.3701 Q1239.13 51.7138 1244.24 47.825 Q1249.38 43.9361 1259.55 43.9361 L1270 43.9361 L1270 43.2069 Q1270 38.0623 1266.6 35.2672 Q1263.24 32.4315 1257.12 32.4315 Q1253.23 32.4315 1249.54 33.3632 Q1245.86 34.295 1242.45 36.1584 L1242.45 29.2718 Q1246.55 27.692 1250.39 26.9223 Q1254.24 26.1121 1257.89 26.1121 Q1267.73 26.1121 1272.59 31.2163 Q1277.45 36.3204 1277.45 46.6907 Z" fill="#000000" fill-rule="nonzero" fill-opacity="1" /><path clip-path="url(#clip670)" d="M1325.46 28.9478 L1325.46 35.9153 Q1322.3 34.1734 1319.1 33.3227 Q1315.94 32.4315 1312.7 32.4315 Q1305.45 32.4315 1301.44 37.0496 Q1297.43 41.6271 1297.43 49.9314 Q1297.43 58.2358 1301.44 62.8538 Q1305.45 67.4314 1312.7 67.4314 Q1315.94 67.4314 1319.1 66.5807 Q1322.3 65.6895 1325.46 63.9476 L1325.46 70.8341 Q1322.34 72.2924 1318.98 73.0216 Q1315.65 73.7508 1311.89 73.7508 Q1301.64 73.7508 1295.6 67.3098 Q1289.57 60.8689 1289.57 49.9314 Q1289.57 38.832 1295.64 32.472 Q1301.76 26.1121 1312.37 26.1121 Q1315.82 26.1121 1319.1 26.8413 Q1322.38 27.5299 1325.46 28.9478 Z" fill="#000000" fill-rule="nonzero" fill-opacity="1" /><path clip-path="url(#clip670)" d="M1377.23 48.0275 L1377.23 51.6733 L1342.96 51.6733 Q1343.44 59.3701 1347.58 63.421 Q1351.75 67.4314 1359.16 67.4314 Q1363.45 67.4314 1367.47 66.3781 Q1371.52 65.3249 1375.49 63.2184 L1375.49 70.267 Q1371.48 71.9684 1367.26 72.8596 Q1363.05 73.7508 1358.72 73.7508 Q1347.86 73.7508 1341.5 67.4314 Q1335.18 61.1119 1335.18 50.3365 Q1335.18 39.1965 1341.17 32.6746 Q1347.21 26.1121 1357.42 26.1121 Q1366.57 26.1121 1371.88 32.0264 Q1377.23 37.9003 1377.23 48.0275 M1369.77 45.84 Q1369.69 39.7232 1366.33 36.0774 Q1363.01 32.4315 1357.5 32.4315 Q1351.26 32.4315 1347.49 35.9558 Q1343.77 39.4801 1343.2 45.8805 L1369.77 45.84 Z" fill="#000000" fill-rule="nonzero" fill-opacity="1" /><path clip-path="url(#clip670)" d="M1448.4 49.9314 Q1448.4 41.7081 1445 37.0496 Q1441.64 32.3505 1435.72 32.3505 Q1429.81 32.3505 1426.41 37.0496 Q1423.04 41.7081 1423.04 49.9314 Q1423.04 58.1548 1426.41 62.8538 Q1429.81 67.5124 1435.72 67.5124 Q1441.64 67.5124 1445 62.8538 Q1448.4 58.1548 1448.4 49.9314 M1423.04 34.0924 Q1425.39 30.0415 1428.96 28.0971 Q1432.56 26.1121 1437.55 26.1121 Q1445.81 26.1121 1450.95 32.6746 Q1456.14 39.2371 1456.14 49.9314 Q1456.14 60.6258 1450.95 67.1883 Q1445.81 73.7508 1437.55 73.7508 Q1432.56 73.7508 1428.96 71.8063 Q1425.39 69.8214 1423.04 65.7705 L1423.04 72.576 L1415.55 72.576 L1415.55 9.54393 L1423.04 9.54393 L1423.04 34.0924 Z" fill="#000000" fill-rule="nonzero" fill-opacity="1" /><path clip-path="url(#clip670)" d="M1507.3 48.0275 L1507.3 51.6733 L1473.03 51.6733 Q1473.52 59.3701 1477.65 63.421 Q1481.82 67.4314 1489.24 67.4314 Q1493.53 67.4314 1497.54 66.3781 Q1501.59 65.3249 1505.56 63.2184 L1505.56 70.267 Q1501.55 71.9684 1497.34 72.8596 Q1493.12 73.7508 1488.79 73.7508 Q1477.93 73.7508 1471.57 67.4314 Q1465.25 61.1119 1465.25 50.3365 Q1465.25 39.1965 1471.25 32.6746 Q1477.29 26.1121 1487.49 26.1121 Q1496.65 26.1121 1501.96 32.0264 Q1507.3 37.9003 1507.3 48.0275 M1499.85 45.84 Q1499.77 39.7232 1496.41 36.0774 Q1493.08 32.4315 1487.57 32.4315 Q1481.34 32.4315 1477.57 35.9558 Q1473.84 39.4801 1473.27 45.8805 L1499.85 45.84 Z" fill="#000000" fill-rule="nonzero" fill-opacity="1" /><path clip-path="url(#clip670)" d="M1548.46 28.5427 L1548.46 35.5912 Q1545.3 33.9709 1541.9 33.1607 Q1538.49 32.3505 1534.85 32.3505 Q1529.3 32.3505 1526.5 34.0519 Q1523.75 35.7533 1523.75 39.156 Q1523.75 41.7486 1525.73 43.2475 Q1527.72 44.7058 1533.71 46.0426 L1536.27 46.6097 Q1544.21 48.3111 1547.53 51.4303 Q1550.89 54.509 1550.89 60.0587 Q1550.89 66.3781 1545.87 70.0644 Q1540.88 73.7508 1532.13 73.7508 Q1528.49 73.7508 1524.52 73.0216 Q1520.59 72.3329 1516.21 70.9151 L1516.21 63.2184 Q1520.35 65.3654 1524.36 66.4591 Q1528.37 67.5124 1532.3 67.5124 Q1537.56 67.5124 1540.4 65.73 Q1543.23 63.9071 1543.23 60.6258 Q1543.23 57.5877 1541.17 55.9673 Q1539.14 54.3469 1532.22 52.8481 L1529.62 52.2405 Q1522.7 50.7821 1519.62 47.7845 Q1516.54 44.7463 1516.54 39.4801 Q1516.54 33.0797 1521.08 29.5959 Q1525.61 26.1121 1533.96 26.1121 Q1538.09 26.1121 1541.74 26.7198 Q1545.38 27.3274 1548.46 28.5427 Z" fill="#000000" fill-rule="nonzero" fill-opacity="1" /><path clip-path="url(#clip670)" d="M1570.13 14.324 L1570.13 27.2059 L1585.48 27.2059 L1585.48 32.9987 L1570.13 32.9987 L1570.13 57.6282 Q1570.13 63.1779 1571.63 64.7578 Q1573.17 66.3376 1577.83 66.3376 L1585.48 66.3376 L1585.48 72.576 L1577.83 72.576 Q1569.2 72.576 1565.92 69.3758 Q1562.64 66.1351 1562.64 57.6282 L1562.64 32.9987 L1557.17 32.9987 L1557.17 27.2059 L1562.64 27.2059 L1562.64 14.324 L1570.13 14.324 Z" fill="#000000" fill-rule="nonzero" fill-opacity="1" /><path clip-path="url(#clip670)" d="M1616.31 27.2059 L1624.21 27.2059 L1638.39 65.2844 L1652.57 27.2059 L1660.47 27.2059 L1643.45 72.576 L1633.33 72.576 L1616.31 27.2059 Z" fill="#000000" fill-rule="nonzero" fill-opacity="1" /><path clip-path="url(#clip670)" d="M1709.56 48.0275 L1709.56 51.6733 L1675.29 51.6733 Q1675.78 59.3701 1679.91 63.421 Q1684.08 67.4314 1691.5 67.4314 Q1695.79 67.4314 1699.8 66.3781 Q1703.85 65.3249 1707.82 63.2184 L1707.82 70.267 Q1703.81 71.9684 1699.6 72.8596 Q1695.39 73.7508 1691.05 73.7508 Q1680.19 73.7508 1673.84 67.4314 Q1667.52 61.1119 1667.52 50.3365 Q1667.52 39.1965 1673.51 32.6746 Q1679.55 26.1121 1689.76 26.1121 Q1698.91 26.1121 1704.22 32.0264 Q1709.56 37.9003 1709.56 48.0275 M1702.11 45.84 Q1702.03 39.7232 1698.67 36.0774 Q1695.35 32.4315 1689.84 32.4315 Q1683.6 32.4315 1679.83 35.9558 Q1676.1 39.4801 1675.54 45.8805 L1702.11 45.84 Z" fill="#000000" fill-rule="nonzero" fill-opacity="1" /><path clip-path="url(#clip670)" d="M1748.09 34.1734 Q1746.83 33.4443 1745.33 33.1202 Q1743.88 32.7556 1742.09 32.7556 Q1735.77 32.7556 1732.37 36.8875 Q1729.01 40.9789 1729.01 48.6757 L1729.01 72.576 L1721.51 72.576 L1721.51 27.2059 L1729.01 27.2059 L1729.01 34.2544 Q1731.36 30.1225 1735.13 28.1376 Q1738.89 26.1121 1744.28 26.1121 Q1745.05 26.1121 1745.98 26.2337 Q1746.91 26.3147 1748.05 26.5172 L1748.09 34.1734 Z" fill="#000000" fill-rule="nonzero" fill-opacity="1" /><path clip-path="url(#clip670)" d="M1763.28 14.324 L1763.28 27.2059 L1778.63 27.2059 L1778.63 32.9987 L1763.28 32.9987 L1763.28 57.6282 Q1763.28 63.1779 1764.78 64.7578 Q1766.32 66.3376 1770.98 66.3376 L1778.63 66.3376 L1778.63 72.576 L1770.98 72.576 Q1762.35 72.576 1759.07 69.3758 Q1755.78 66.1351 1755.78 57.6282 L1755.78 32.9987 L1750.32 32.9987 L1750.32 27.2059 L1755.78 27.2059 L1755.78 14.324 L1763.28 14.324 Z" fill="#000000" fill-rule="nonzero" fill-opacity="1" /><path clip-path="url(#clip670)" d="M1827.24 48.0275 L1827.24 51.6733 L1792.97 51.6733 Q1793.46 59.3701 1797.59 63.421 Q1801.76 67.4314 1809.18 67.4314 Q1813.47 67.4314 1817.48 66.3781 Q1821.53 65.3249 1825.5 63.2184 L1825.5 70.267 Q1821.49 71.9684 1817.28 72.8596 Q1813.06 73.7508 1808.73 73.7508 Q1797.87 73.7508 1791.51 67.4314 Q1785.19 61.1119 1785.19 50.3365 Q1785.19 39.1965 1791.19 32.6746 Q1797.23 26.1121 1807.43 26.1121 Q1816.59 26.1121 1821.9 32.0264 Q1827.24 37.9003 1827.24 48.0275 M1819.79 45.84 Q1819.71 39.7232 1816.35 36.0774 Q1813.02 32.4315 1807.51 32.4315 Q1801.28 32.4315 1797.51 35.9558 Q1793.78 39.4801 1793.22 45.8805 L1819.79 45.84 Z" fill="#000000" fill-rule="nonzero" fill-opacity="1" /><path clip-path="url(#clip670)" d="M1875.73 27.2059 L1859.33 49.2833 L1876.58 72.576 L1867.79 72.576 L1854.59 54.752 L1841.38 72.576 L1832.59 72.576 L1850.21 48.8377 L1834.09 27.2059 L1842.88 27.2059 L1854.91 43.369 L1866.94 27.2059 L1875.73 27.2059 Z" fill="#000000" fill-rule="nonzero" fill-opacity="1" /><polyline clip-path="url(#clip672)" style="stroke:#009af9; stroke-linecap:round; stroke-linejoin:round; stroke-width:4; stroke-opacity:1; fill:none" points="368.156,456.713 406.692,394.646 445.228,397.633 483.764,412.937 522.299,411.092 560.835,410.767 599.371,410.616 637.907,410.099 676.443,409.339 714.979,418.065 753.515,435.851 792.051,448.942 830.587,447.826 869.123,447.819 907.659,447.819 946.195,447.819 984.731,447.819 1023.27,447.819 1061.8,447.819 1100.34,447.819 1138.87,447.819 1177.41,447.819 1215.95,447.819 1254.48,447.819 1293.02,447.819 1331.55,447.819 1370.09,447.819 1408.63,447.819 1447.16,447.819 1485.7,447.819 1524.23,447.819 1562.77,447.819 1601.31,447.819 1639.84,447.819 1678.38,447.819 1716.91,447.819 1755.45,447.819 1793.98,447.819 1832.52,447.819 1871.06,447.819 1909.59,447.819 1948.13,447.819 1986.66,447.819 2025.2,447.819 2063.74,447.819 2102.27,447.819 2140.81,447.819 2179.34,447.819 2217.88,447.819 2256.42,447.819 2294.95,447.819 "/>
<polyline clip-path="url(#clip672)" style="stroke:#e26f46; stroke-linecap:round; stroke-linejoin:round; stroke-width:4; stroke-opacity:1; fill:none" points="368.156,981.694 406.692,1100.29 445.228,1112.39 483.764,1089.67 522.299,1090.41 560.835,1090.91 599.371,1091.11 637.907,1092.38 676.443,1093.99 714.979,1078.91 753.515,1043.48 792.051,995.831 830.587,997.725 869.123,997.736 907.659,997.736 946.195,997.736 984.731,997.736 1023.27,997.736 1061.8,997.736 1100.34,997.736 1138.87,997.736 1177.41,997.736 1215.95,997.736 1254.48,997.736 1293.02,997.736 1331.55,997.736 1370.09,997.736 1408.63,997.736 1447.16,997.736 1485.7,997.736 1524.23,997.736 1562.77,997.736 1601.31,997.736 1639.84,997.736 1678.38,997.736 1716.91,997.736 1755.45,997.736 1793.98,997.736 1832.52,997.736 1871.06,997.736 1909.59,997.736 1948.13,997.736 1986.66,997.736 2025.2,997.736 2063.74,997.736 2102.27,997.736 2140.81,997.736 2179.34,997.736 2217.88,997.736 2256.42,997.736 2294.95,997.736 "/>
<polyline clip-path="url(#clip672)" style="stroke:#3da44d; stroke-linecap:round; stroke-linejoin:round; stroke-width:4; stroke-opacity:1; fill:none" points="368.156,860.946 406.692,731.291 445.228,774.113 483.764,801.488 522.299,805.11 560.835,804.851 599.371,804.784 637.907,804.126 676.443,804.245 714.979,809.935 753.515,842.558 792.051,915.196 830.587,914.724 869.123,914.723 907.659,914.723 946.195,914.723 984.731,914.723 1023.27,914.723 1061.8,914.723 1100.34,914.723 1138.87,914.723 1177.41,914.723 1215.95,914.723 1254.48,914.723 1293.02,914.723 1331.55,914.723 1370.09,914.723 1408.63,914.723 1447.16,914.723 1485.7,914.723 1524.23,914.723 1562.77,914.723 1601.31,914.723 1639.84,914.723 1678.38,914.723 1716.91,914.723 1755.45,914.723 1793.98,914.723 1832.52,914.723 1871.06,914.723 1909.59,914.723 1948.13,914.723 1986.66,914.723 2025.2,914.723 2063.74,914.723 2102.27,914.723 2140.81,914.723 2179.34,914.723 2217.88,914.723 2256.42,914.723 2294.95,914.723 "/>
<polyline clip-path="url(#clip672)" style="stroke:#c271d2; stroke-linecap:round; stroke-linejoin:round; stroke-width:4; stroke-opacity:1; fill:none" points="368.156,823.018 406.692,875.684 445.228,804.641 483.764,805.218 522.299,795.512 560.835,795.089 599.371,794.813 637.907,794.512 676.443,794.351 714.979,812.701 753.515,813.687 792.051,735.579 830.587,732.901 869.123,732.881 907.659,732.881 946.195,732.881 984.731,732.881 1023.27,732.881 1061.8,732.881 1100.34,732.881 1138.87,732.881 1177.41,732.881 1215.95,732.881 1254.48,732.881 1293.02,732.881 1331.55,732.881 1370.09,732.881 1408.63,732.881 1447.16,732.881 1485.7,732.881 1524.23,732.881 1562.77,732.881 1601.31,732.881 1639.84,732.881 1678.38,732.881 1716.91,732.881 1755.45,732.881 1793.98,732.881 1832.52,732.881 1871.06,732.881 1909.59,732.881 1948.13,732.881 1986.66,732.881 2025.2,732.881 2063.74,732.881 2102.27,732.881 2140.81,732.881 2179.34,732.881 2217.88,732.881 2256.42,732.881 2294.95,732.881 "/>
<polyline clip-path="url(#clip672)" style="stroke:#ac8d18; stroke-linecap:round; stroke-linejoin:round; stroke-width:4; stroke-opacity:1; fill:none" points="368.156,503.945 406.692,482.81 445.228,489.72 483.764,438.249 522.299,444.632 560.835,445.645 599.371,446.141 637.907,447.798 676.443,446.727 714.979,417.081 753.515,391.489 792.051,458.73 830.587,463.538 869.123,463.574 907.659,463.574 946.195,463.574 984.731,463.574 1023.27,463.574 1061.8,463.574 1100.34,463.574 1138.87,463.574 1177.41,463.574 1215.95,463.574 1254.48,463.574 1293.02,463.574 1331.55,463.574 1370.09,463.574 1408.63,463.574 1447.16,463.574 1485.7,463.574 1524.23,463.574 1562.77,463.574 1601.31,463.574 1639.84,463.574 1678.38,463.574 1716.91,463.574 1755.45,463.574 1793.98,463.574 1832.52,463.574 1871.06,463.574 1909.59,463.574 1948.13,463.574 1986.66,463.574 2025.2,463.574 2063.74,463.574 2102.27,463.574 2140.81,463.574 2179.34,463.574 2217.88,463.574 2256.42,463.574 2294.95,463.574 "/>
<polyline clip-path="url(#clip672)" style="stroke:#00a9ad; stroke-linecap:round; stroke-linejoin:round; stroke-width:4; stroke-opacity:1; fill:none" points="368.156,160.256 406.692,282.422 445.228,294.559 483.764,339.657 522.299,350.16 560.835,349.611 599.371,349.495 637.907,346.286 676.443,346.053 714.979,352.607 753.515,349.844 792.051,318.641 830.587,315.649 869.123,315.633 907.659,315.633 946.195,315.633 984.731,315.633 1023.27,315.633 1061.8,315.633 1100.34,315.633 1138.87,315.633 1177.41,315.633 1215.95,315.633 1254.48,315.633 1293.02,315.633 1331.55,315.633 1370.09,315.633 1408.63,315.633 1447.16,315.633 1485.7,315.633 1524.23,315.633 1562.77,315.633 1601.31,315.633 1639.84,315.633 1678.38,315.633 1716.91,315.633 1755.45,315.633 1793.98,315.633 1832.52,315.633 1871.06,315.633 1909.59,315.633 1948.13,315.633 1986.66,315.633 2025.2,315.633 2063.74,315.633 2102.27,315.633 2140.81,315.633 2179.34,315.633 2217.88,315.633 2256.42,315.633 2294.95,315.633 "/>
<polyline clip-path="url(#clip672)" style="stroke:#ed5d92; stroke-linecap:round; stroke-linejoin:round; stroke-width:4; stroke-opacity:1; fill:none" points="368.156,449.637 406.692,412.015 445.228,495.469 483.764,512.314 522.299,507.639 560.835,507.481 599.371,507.357 637.907,508.716 676.443,508.749 714.979,499.639 753.515,488.413 792.051,452.428 830.587,453.695 869.123,453.696 907.659,453.696 946.195,453.696 984.731,453.696 1023.27,453.696 1061.8,453.696 1100.34,453.696 1138.87,453.696 1177.41,453.696 1215.95,453.696 1254.48,453.696 1293.02,453.696 1331.55,453.696 1370.09,453.696 1408.63,453.696 1447.16,453.696 1485.7,453.696 1524.23,453.696 1562.77,453.696 1601.31,453.696 1639.84,453.696 1678.38,453.696 1716.91,453.696 1755.45,453.696 1793.98,453.696 1832.52,453.696 1871.06,453.696 1909.59,453.696 1948.13,453.696 1986.66,453.696 2025.2,453.696 2063.74,453.696 2102.27,453.696 2140.81,453.696 2179.34,453.696 2217.88,453.696 2256.42,453.696 2294.95,453.696 "/>
<polyline clip-path="url(#clip672)" style="stroke:#c68125; stroke-linecap:round; stroke-linejoin:round; stroke-width:4; stroke-opacity:1; fill:none" points="368.156,826.189 406.692,688.646 445.228,577.189 483.764,537.343 522.299,528.445 560.835,528.66 599.371,528.66 637.907,529.475 676.443,529.738 714.979,550.891 753.515,588.218 792.051,647.591 830.587,646.681 869.123,646.68 907.659,646.68 946.195,646.68 984.731,646.68 1023.27,646.68 1061.8,646.68 1100.34,646.68 1138.87,646.68 1177.41,646.68 1215.95,646.68 1254.48,646.68 1293.02,646.68 1331.55,646.68 1370.09,646.68 1408.63,646.68 1447.16,646.68 1485.7,646.68 1524.23,646.68 1562.77,646.68 1601.31,646.68 1639.84,646.68 1678.38,646.68 1716.91,646.68 1755.45,646.68 1793.98,646.68 1832.52,646.68 1871.06,646.68 1909.59,646.68 1948.13,646.68 1986.66,646.68 2025.2,646.68 2063.74,646.68 2102.27,646.68 2140.81,646.68 2179.34,646.68 2217.88,646.68 2256.42,646.68 2294.95,646.68 "/>
<polyline clip-path="url(#clip672)" style="stroke:#00a98d; stroke-linecap:round; stroke-linejoin:round; stroke-width:4; stroke-opacity:1; fill:none" points="368.156,1083.68 406.692,1210.65 445.228,1268.97 483.764,1286.99 522.299,1292.99 560.835,1292.98 599.371,1293.04 637.907,1292.67 676.443,1293.54 714.979,1281.21 753.515,1256.16 792.051,1216.4 830.587,1216.94 869.123,1216.94 907.659,1216.94 946.195,1216.94 984.731,1216.94 1023.27,1216.94 1061.8,1216.94 1100.34,1216.94 1138.87,1216.94 1177.41,1216.94 1215.95,1216.94 1254.48,1216.94 1293.02,1216.94 1331.55,1216.94 1370.09,1216.94 1408.63,1216.94 1447.16,1216.94 1485.7,1216.94 1524.23,1216.94 1562.77,1216.94 1601.31,1216.94 1639.84,1216.94 1678.38,1216.94 1716.91,1216.94 1755.45,1216.94 1793.98,1216.94 1832.52,1216.94 1871.06,1216.94 1909.59,1216.94 1948.13,1216.94 1986.66,1216.94 2025.2,1216.94 2063.74,1216.94 2102.27,1216.94 2140.81,1216.94 2179.34,1216.94 2217.88,1216.94 2256.42,1216.94 2294.95,1216.94 "/>
<polyline clip-path="url(#clip672)" style="stroke:#8e971d; stroke-linecap:round; stroke-linejoin:round; stroke-width:4; stroke-opacity:1; fill:none" points="368.156,1386.4 406.692,1309.13 445.228,1274.43 483.764,1266.16 522.299,1263.03 560.835,1263 599.371,1262.96 637.907,1263.1 676.443,1262.3 714.979,1267.94 753.515,1280.66 792.051,1302.3 830.587,1302.08 869.123,1302.08 907.659,1302.08 946.195,1302.08 984.731,1302.08 1023.27,1302.08 1061.8,1302.08 1100.34,1302.08 1138.87,1302.08 1177.41,1302.08 1215.95,1302.08 1254.48,1302.08 1293.02,1302.08 1331.55,1302.08 1370.09,1302.08 1408.63,1302.08 1447.16,1302.08 1485.7,1302.08 1524.23,1302.08 1562.77,1302.08 1601.31,1302.08 1639.84,1302.08 1678.38,1302.08 1716.91,1302.08 1755.45,1302.08 1793.98,1302.08 1832.52,1302.08 1871.06,1302.08 1909.59,1302.08 1948.13,1302.08 1986.66,1302.08 2025.2,1302.08 2063.74,1302.08 2102.27,1302.08 2140.81,1302.08 2179.34,1302.08 2217.88,1302.08 2256.42,1302.08 2294.95,1302.08 "/>
</svg>
