<?xml version="1.0" encoding="utf-8"?>
<svg xmlns="http://www.w3.org/2000/svg" xmlns:xlink="http://www.w3.org/1999/xlink" width="600" height="400" viewBox="0 0 2400 1600">
<defs>
  <clipPath id="clip710">
    <rect x="0" y="0" width="2400" height="1600"/>
  </clipPath>
</defs>
<path clip-path="url(#clip710)" d="M0 1600 L2400 1600 L2400 0 L0 0  Z" fill="#ffffff" fill-rule="evenodd" fill-opacity="1"/>
<defs>
  <clipPath id="clip711">
    <rect x="480" y="0" width="1681" height="1600"/>
  </clipPath>
</defs>
<path clip-path="url(#clip710)" d="M310.352 1423.18 L2352.76 1423.18 L2352.76 123.472 L310.352 123.472  Z" fill="#ffffff" fill-rule="evenodd" fill-opacity="1"/>
<defs>
  <clipPath id="clip712">
    <rect x="310" y="123" width="2043" height="1301"/>
  </clipPath>
</defs>
<polyline clip-path="url(#clip712)" style="stroke:#000000; stroke-linecap:round; stroke-linejoin:round; stroke-width:2; stroke-opacity:0.1; fill:none" points="582.244,1423.18 582.244,123.472 "/>
<polyline clip-path="url(#clip712)" style="stroke:#000000; stroke-linecap:round; stroke-linejoin:round; stroke-width:2; stroke-opacity:0.1; fill:none" points="1010.42,1423.18 1010.42,123.472 "/>
<polyline clip-path="url(#clip712)" style="stroke:#000000; stroke-linecap:round; stroke-linejoin:round; stroke-width:2; stroke-opacity:0.1; fill:none" points="1438.6,1423.18 1438.6,123.472 "/>
<polyline clip-path="url(#clip712)" style="stroke:#000000; stroke-linecap:round; stroke-linejoin:round; stroke-width:2; stroke-opacity:0.1; fill:none" points="1866.78,1423.18 1866.78,123.472 "/>
<polyline clip-path="url(#clip712)" style="stroke:#000000; stroke-linecap:round; stroke-linejoin:round; stroke-width:2; stroke-opacity:0.1; fill:none" points="2294.95,1423.18 2294.95,123.472 "/>
<polyline clip-path="url(#clip712)" style="stroke:#000000; stroke-linecap:round; stroke-linejoin:round; stroke-width:2; stroke-opacity:0.1; fill:none" points="310.352,1404.46 2352.76,1404.46 "/>
<polyline clip-path="url(#clip712)" style="stroke:#000000; stroke-linecap:round; stroke-linejoin:round; stroke-width:2; stroke-opacity:0.1; fill:none" points="310.352,1073.79 2352.76,1073.79 "/>
<polyline clip-path="url(#clip712)" style="stroke:#000000; stroke-linecap:round; stroke-linejoin:round; stroke-width:2; stroke-opacity:0.1; fill:none" points="310.352,743.11 2352.76,743.11 "/>
<polyline clip-path="url(#clip712)" style="stroke:#000000; stroke-linecap:round; stroke-linejoin:round; stroke-width:2; stroke-opacity:0.1; fill:none" points="310.352,412.435 2352.76,412.435 "/>
<polyline clip-path="url(#clip710)" style="stroke:#000000; stroke-linecap:round; stroke-linejoin:round; stroke-width:4; stroke-opacity:1; fill:none" points="310.352,1423.18 2352.76,1423.18 "/>
<polyline clip-path="url(#clip710)" style="stroke:#000000; stroke-linecap:round; stroke-linejoin:round; stroke-width:4; stroke-opacity:1; fill:none" points="582.244,1423.18 582.244,1404.28 "/>
<polyline clip-path="url(#clip710)" style="stroke:#000000; stroke-linecap:round; stroke-linejoin:round; stroke-width:4; stroke-opacity:1; fill:none" points="1010.42,1423.18 1010.42,1404.28 "/>
<polyline clip-path="url(#clip710)" style="stroke:#000000; stroke-linecap:round; stroke-linejoin:round; stroke-width:4; stroke-opacity:1; fill:none" points="1438.6,1423.18 1438.6,1404.28 "/>
<polyline clip-path="url(#clip710)" style="stroke:#000000; stroke-linecap:round; stroke-linejoin:round; stroke-width:4; stroke-opacity:1; fill:none" points="1866.78,1423.18 1866.78,1404.28 "/>
<polyline clip-path="url(#clip710)" style="stroke:#000000; stroke-linecap:round; stroke-linejoin:round; stroke-width:4; stroke-opacity:1; fill:none" points="2294.95,1423.18 2294.95,1404.28 "/>
<path clip-path="url(#clip710)" d="M576.897 1481.64 L593.216 1481.64 L593.216 1485.58 L571.272 1485.58 L571.272 1481.64 Q573.934 1478.89 578.517 1474.26 Q583.124 1469.61 584.304 1468.27 Q586.55 1465.74 587.429 1464.01 Q588.332 1462.25 588.332 1460.56 Q588.332 1457.8 586.388 1456.07 Q584.466 1454.33 581.365 1454.33 Q579.166 1454.33 576.712 1455.09 Q574.281 1455.86 571.504 1457.41 L571.504 1452.69 Q574.328 1451.55 576.781 1450.97 Q579.235 1450.39 581.272 1450.39 Q586.642 1450.39 589.837 1453.08 Q593.031 1455.77 593.031 1460.26 Q593.031 1462.39 592.221 1464.31 Q591.434 1466.2 589.328 1468.8 Q588.749 1469.47 585.647 1472.69 Q582.545 1475.88 576.897 1481.64 Z" fill="#000000" fill-rule="nonzero" fill-opacity="1" /><path clip-path="url(#clip710)" d="M1013.43 1455.09 L1001.62 1473.54 L1013.43 1473.54 L1013.43 1455.09 M1012.2 1451.02 L1018.08 1451.02 L1018.08 1473.54 L1023.01 1473.54 L1023.01 1477.43 L1018.08 1477.43 L1018.08 1485.58 L1013.43 1485.58 L1013.43 1477.43 L997.829 1477.43 L997.829 1472.92 L1012.2 1451.02 Z" fill="#000000" fill-rule="nonzero" fill-opacity="1" /><path clip-path="url(#clip710)" d="M1439 1466.44 Q1435.86 1466.44 1434 1468.59 Q1432.17 1470.74 1432.17 1474.49 Q1432.17 1478.22 1434 1480.39 Q1435.86 1482.55 1439 1482.55 Q1442.15 1482.55 1443.98 1480.39 Q1445.83 1478.22 1445.83 1474.49 Q1445.83 1470.74 1443.98 1468.59 Q1442.15 1466.44 1439 1466.44 M1448.29 1451.78 L1448.29 1456.04 Q1446.53 1455.21 1444.72 1454.77 Q1442.94 1454.33 1441.18 1454.33 Q1436.55 1454.33 1434.1 1457.45 Q1431.67 1460.58 1431.32 1466.9 Q1432.68 1464.89 1434.74 1463.82 Q1436.8 1462.73 1439.28 1462.73 Q1444.49 1462.73 1447.5 1465.9 Q1450.53 1469.05 1450.53 1474.49 Q1450.53 1479.82 1447.38 1483.03 Q1444.23 1486.25 1439 1486.25 Q1433.01 1486.25 1429.84 1481.67 Q1426.67 1477.06 1426.67 1468.33 Q1426.67 1460.14 1430.55 1455.28 Q1434.44 1450.39 1440.99 1450.39 Q1442.75 1450.39 1444.54 1450.74 Q1446.34 1451.09 1448.29 1451.78 Z" fill="#000000" fill-rule="nonzero" fill-opacity="1" /><path clip-path="url(#clip710)" d="M1866.78 1469.17 Q1863.44 1469.17 1861.52 1470.95 Q1859.62 1472.73 1859.62 1475.86 Q1859.62 1478.98 1861.52 1480.77 Q1863.44 1482.55 1866.78 1482.55 Q1870.11 1482.55 1872.03 1480.77 Q1873.95 1478.96 1873.95 1475.86 Q1873.95 1472.73 1872.03 1470.95 Q1870.13 1469.17 1866.78 1469.17 M1862.1 1467.18 Q1859.09 1466.44 1857.4 1464.38 Q1855.73 1462.32 1855.73 1459.35 Q1855.73 1455.21 1858.67 1452.8 Q1861.64 1450.39 1866.78 1450.39 Q1871.94 1450.39 1874.88 1452.8 Q1877.82 1455.21 1877.82 1459.35 Q1877.82 1462.32 1876.13 1464.38 Q1874.46 1466.44 1871.47 1467.18 Q1874.85 1467.96 1876.73 1470.26 Q1878.63 1472.55 1878.63 1475.86 Q1878.63 1480.88 1875.55 1483.57 Q1872.49 1486.25 1866.78 1486.25 Q1861.06 1486.25 1857.98 1483.57 Q1854.92 1480.88 1854.92 1475.86 Q1854.92 1472.55 1856.82 1470.26 Q1858.72 1467.96 1862.1 1467.18 M1860.39 1459.79 Q1860.39 1462.48 1862.05 1463.98 Q1863.74 1465.49 1866.78 1465.49 Q1869.78 1465.49 1871.47 1463.98 Q1873.19 1462.48 1873.19 1459.79 Q1873.19 1457.11 1871.47 1455.6 Q1869.78 1454.1 1866.78 1454.1 Q1863.74 1454.1 1862.05 1455.6 Q1860.39 1457.11 1860.39 1459.79 Z" fill="#000000" fill-rule="nonzero" fill-opacity="1" /><path clip-path="url(#clip710)" d="M2269.64 1481.64 L2277.28 1481.64 L2277.28 1455.28 L2268.97 1456.95 L2268.97 1452.69 L2277.23 1451.02 L2281.91 1451.02 L2281.91 1481.64 L2289.55 1481.64 L2289.55 1485.58 L2269.64 1485.58 L2269.64 1481.64 Z" fill="#000000" fill-rule="nonzero" fill-opacity="1" /><path clip-path="url(#clip710)" d="M2308.99 1454.1 Q2305.38 1454.1 2303.55 1457.66 Q2301.75 1461.2 2301.75 1468.33 Q2301.75 1475.44 2303.55 1479.01 Q2305.38 1482.55 2308.99 1482.55 Q2312.63 1482.55 2314.43 1479.01 Q2316.26 1475.44 2316.26 1468.33 Q2316.26 1461.2 2314.43 1457.66 Q2312.63 1454.1 2308.99 1454.1 M2308.99 1450.39 Q2314.8 1450.39 2317.86 1455 Q2320.94 1459.58 2320.94 1468.33 Q2320.94 1477.06 2317.86 1481.67 Q2314.8 1486.25 2308.99 1486.25 Q2303.18 1486.25 2300.1 1481.67 Q2297.05 1477.06 2297.05 1468.33 Q2297.05 1459.58 2300.1 1455 Q2303.18 1450.39 2308.99 1450.39 Z" fill="#000000" fill-rule="nonzero" fill-opacity="1" /><path clip-path="url(#clip710)" d="M1271.27 1525.81 L1271.27 1562.76 L1279.04 1562.76 Q1288.87 1562.76 1293.42 1558.3 Q1298.01 1553.85 1298.01 1544.24 Q1298.01 1534.69 1293.42 1530.26 Q1288.87 1525.81 1279.04 1525.81 L1271.27 1525.81 M1264.84 1520.52 L1278.05 1520.52 Q1291.86 1520.52 1298.32 1526.28 Q1304.79 1532.01 1304.79 1544.24 Q1304.79 1556.52 1298.29 1562.28 Q1291.8 1568.04 1278.05 1568.04 L1264.84 1568.04 L1264.84 1520.52 Z" fill="#000000" fill-rule="nonzero" fill-opacity="1" /><path clip-path="url(#clip710)" d="M1314.78 1532.4 L1320.64 1532.4 L1320.64 1568.04 L1314.78 1568.04 L1314.78 1532.4 M1314.78 1518.52 L1320.64 1518.52 L1320.64 1525.93 L1314.78 1525.93 L1314.78 1518.52 Z" fill="#000000" fill-rule="nonzero" fill-opacity="1" /><path clip-path="url(#clip710)" d="M1355.62 1533.45 L1355.62 1538.98 Q1353.13 1537.71 1350.46 1537.07 Q1347.79 1536.44 1344.92 1536.44 Q1340.56 1536.44 1338.37 1537.77 Q1336.2 1539.11 1336.2 1541.79 Q1336.2 1543.82 1337.76 1545 Q1339.32 1546.15 1344.03 1547.2 L1346.04 1547.64 Q1352.27 1548.98 1354.88 1551.43 Q1357.53 1553.85 1357.53 1558.21 Q1357.53 1563.17 1353.58 1566.07 Q1349.66 1568.97 1342.79 1568.97 Q1339.92 1568.97 1336.81 1568.39 Q1333.72 1567.85 1330.28 1566.74 L1330.28 1560.69 Q1333.53 1562.38 1336.68 1563.24 Q1339.83 1564.07 1342.92 1564.07 Q1347.05 1564.07 1349.28 1562.66 Q1351.51 1561.23 1351.51 1558.65 Q1351.51 1556.27 1349.89 1554.99 Q1348.3 1553.72 1342.85 1552.54 L1340.82 1552.07 Q1335.37 1550.92 1332.95 1548.56 Q1330.54 1546.18 1330.54 1542.04 Q1330.54 1537.01 1334.1 1534.27 Q1337.66 1531.54 1344.22 1531.54 Q1347.47 1531.54 1350.33 1532.01 Q1353.2 1532.49 1355.62 1533.45 Z" fill="#000000" fill-rule="nonzero" fill-opacity="1" /><path clip-path="url(#clip710)" d="M1366.63 1518.52 L1372.52 1518.52 L1372.52 1547.77 L1389.99 1532.4 L1397.47 1532.4 L1378.56 1549.07 L1398.27 1568.04 L1390.63 1568.04 L1372.52 1550.63 L1372.52 1568.04 L1366.63 1568.04 L1366.63 1518.52 Z" fill="#000000" fill-rule="nonzero" fill-opacity="1" /><polyline clip-path="url(#clip710)" style="stroke:#000000; stroke-linecap:round; stroke-linejoin:round; stroke-width:4; stroke-opacity:1; fill:none" points="310.352,1423.18 310.352,123.472 "/>
<polyline clip-path="url(#clip710)" style="stroke:#000000; stroke-linecap:round; stroke-linejoin:round; stroke-width:4; stroke-opacity:1; fill:none" points="310.352,1404.46 329.25,1404.46 "/>
<polyline clip-path="url(#clip710)" style="stroke:#000000; stroke-linecap:round; stroke-linejoin:round; stroke-width:4; stroke-opacity:1; fill:none" points="310.352,1073.79 329.25,1073.79 "/>
<polyline clip-path="url(#clip710)" style="stroke:#000000; stroke-linecap:round; stroke-linejoin:round; stroke-width:4; stroke-opacity:1; fill:none" points="310.352,743.11 329.25,743.11 "/>
<polyline clip-path="url(#clip710)" style="stroke:#000000; stroke-linecap:round; stroke-linejoin:round; stroke-width:4; stroke-opacity:1; fill:none" points="310.352,412.435 329.25,412.435 "/>
<path clip-path="url(#clip710)" d="M126.783 1390.26 Q123.172 1390.26 121.343 1393.82 Q119.538 1397.37 119.538 1404.5 Q119.538 1411.6 121.343 1415.17 Q123.172 1418.71 126.783 1418.71 Q130.417 1418.71 132.223 1415.17 Q134.052 1411.6 134.052 1404.5 Q134.052 1397.37 132.223 1393.82 Q130.417 1390.26 126.783 1390.26 M126.783 1386.56 Q132.593 1386.56 135.649 1391.16 Q138.728 1395.75 138.728 1404.5 Q138.728 1413.22 135.649 1417.83 Q132.593 1422.41 126.783 1422.41 Q120.973 1422.41 117.894 1417.83 Q114.839 1413.22 114.839 1404.5 Q114.839 1395.75 117.894 1391.16 Q120.973 1386.56 126.783 1386.56 Z" fill="#000000" fill-rule="nonzero" fill-opacity="1" /><path clip-path="url(#clip710)" d="M146.945 1415.86 L151.829 1415.86 L151.829 1421.74 L146.945 1421.74 L146.945 1415.86 Z" fill="#000000" fill-rule="nonzero" fill-opacity="1" /><path clip-path="url(#clip710)" d="M172.014 1390.26 Q168.403 1390.26 166.575 1393.82 Q164.769 1397.37 164.769 1404.5 Q164.769 1411.6 166.575 1415.17 Q168.403 1418.71 172.014 1418.71 Q175.649 1418.71 177.454 1415.17 Q179.283 1411.6 179.283 1404.5 Q179.283 1397.37 177.454 1393.82 Q175.649 1390.26 172.014 1390.26 M172.014 1386.56 Q177.825 1386.56 180.88 1391.16 Q183.959 1395.75 183.959 1404.5 Q183.959 1413.22 180.88 1417.83 Q177.825 1422.41 172.014 1422.41 Q166.204 1422.41 163.126 1417.83 Q160.07 1413.22 160.07 1404.5 Q160.07 1395.75 163.126 1391.16 Q166.204 1386.56 172.014 1386.56 Z" fill="#000000" fill-rule="nonzero" fill-opacity="1" /><path clip-path="url(#clip710)" d="M202.176 1390.26 Q198.565 1390.26 196.737 1393.82 Q194.931 1397.37 194.931 1404.5 Q194.931 1411.6 196.737 1415.17 Q198.565 1418.71 202.176 1418.71 Q205.811 1418.71 207.616 1415.17 Q209.445 1411.6 209.445 1404.5 Q209.445 1397.37 207.616 1393.82 Q205.811 1390.26 202.176 1390.26 M202.176 1386.56 Q207.987 1386.56 211.042 1391.16 Q214.121 1395.75 214.121 1404.5 Q214.121 1413.22 211.042 1417.83 Q207.987 1422.41 202.176 1422.41 Q196.366 1422.41 193.288 1417.83 Q190.232 1413.22 190.232 1404.5 Q190.232 1395.75 193.288 1391.16 Q196.366 1386.56 202.176 1386.56 Z" fill="#000000" fill-rule="nonzero" fill-opacity="1" /><path clip-path="url(#clip710)" d="M232.338 1405.33 Q229.005 1405.33 227.084 1407.11 Q225.185 1408.89 225.185 1412.02 Q225.185 1415.14 227.084 1416.93 Q229.005 1418.71 232.338 1418.71 Q235.672 1418.71 237.593 1416.93 Q239.514 1415.12 239.514 1412.02 Q239.514 1408.89 237.593 1407.11 Q235.695 1405.33 232.338 1405.33 M227.662 1403.34 Q224.653 1402.6 222.963 1400.54 Q221.297 1398.48 221.297 1395.51 Q221.297 1391.37 224.236 1388.96 Q227.199 1386.56 232.338 1386.56 Q237.5 1386.56 240.44 1388.96 Q243.38 1391.37 243.38 1395.51 Q243.38 1398.48 241.69 1400.54 Q240.023 1402.6 237.037 1403.34 Q240.417 1404.13 242.292 1406.42 Q244.19 1408.71 244.19 1412.02 Q244.19 1417.04 241.111 1419.73 Q238.056 1422.41 232.338 1422.41 Q226.621 1422.41 223.542 1419.73 Q220.486 1417.04 220.486 1412.02 Q220.486 1408.71 222.385 1406.42 Q224.283 1404.13 227.662 1403.34 M225.949 1395.95 Q225.949 1398.64 227.616 1400.14 Q229.306 1401.65 232.338 1401.65 Q235.347 1401.65 237.037 1400.14 Q238.75 1398.64 238.75 1395.95 Q238.75 1393.27 237.037 1391.76 Q235.347 1390.26 232.338 1390.26 Q229.306 1390.26 227.616 1391.76 Q225.949 1393.27 225.949 1395.95 Z" fill="#000000" fill-rule="nonzero" fill-opacity="1" /><path clip-path="url(#clip710)" d="M262.5 1405.33 Q259.167 1405.33 257.246 1407.11 Q255.347 1408.89 255.347 1412.02 Q255.347 1415.14 257.246 1416.93 Q259.167 1418.71 262.5 1418.71 Q265.833 1418.71 267.755 1416.93 Q269.676 1415.12 269.676 1412.02 Q269.676 1408.89 267.755 1407.11 Q265.857 1405.33 262.5 1405.33 M257.824 1403.34 Q254.815 1402.6 253.125 1400.54 Q251.458 1398.48 251.458 1395.51 Q251.458 1391.37 254.398 1388.96 Q257.361 1386.56 262.5 1386.56 Q267.662 1386.56 270.602 1388.96 Q273.542 1391.37 273.542 1395.51 Q273.542 1398.48 271.852 1400.54 Q270.185 1402.6 267.199 1403.34 Q270.579 1404.13 272.454 1406.42 Q274.352 1408.71 274.352 1412.02 Q274.352 1417.04 271.273 1419.73 Q268.218 1422.41 262.5 1422.41 Q256.783 1422.41 253.704 1419.73 Q250.648 1417.04 250.648 1412.02 Q250.648 1408.71 252.546 1406.42 Q254.445 1404.13 257.824 1403.34 M256.111 1395.95 Q256.111 1398.64 257.778 1400.14 Q259.468 1401.65 262.5 1401.65 Q265.509 1401.65 267.199 1400.14 Q268.912 1398.64 268.912 1395.95 Q268.912 1393.27 267.199 1391.76 Q265.509 1390.26 262.5 1390.26 Q259.468 1390.26 257.778 1391.76 Q256.111 1393.27 256.111 1395.95 Z" fill="#000000" fill-rule="nonzero" fill-opacity="1" /><path clip-path="url(#clip710)" d="M126.691 1059.58 Q123.08 1059.58 121.251 1063.15 Q119.445 1066.69 119.445 1073.82 Q119.445 1080.93 121.251 1084.49 Q123.08 1088.03 126.691 1088.03 Q130.325 1088.03 132.13 1084.49 Q133.959 1080.93 133.959 1073.82 Q133.959 1066.69 132.13 1063.15 Q130.325 1059.58 126.691 1059.58 M126.691 1055.88 Q132.501 1055.88 135.556 1060.49 Q138.635 1065.07 138.635 1073.82 Q138.635 1082.55 135.556 1087.15 Q132.501 1091.74 126.691 1091.74 Q120.88 1091.74 117.802 1087.15 Q114.746 1082.55 114.746 1073.82 Q114.746 1065.07 117.802 1060.49 Q120.88 1055.88 126.691 1055.88 Z" fill="#000000" fill-rule="nonzero" fill-opacity="1" /><path clip-path="url(#clip710)" d="M146.853 1085.19 L151.737 1085.19 L151.737 1091.07 L146.853 1091.07 L146.853 1085.19 Z" fill="#000000" fill-rule="nonzero" fill-opacity="1" /><path clip-path="url(#clip710)" d="M171.922 1059.58 Q168.311 1059.58 166.482 1063.15 Q164.677 1066.69 164.677 1073.82 Q164.677 1080.93 166.482 1084.49 Q168.311 1088.03 171.922 1088.03 Q175.556 1088.03 177.362 1084.49 Q179.19 1080.93 179.19 1073.82 Q179.19 1066.69 177.362 1063.15 Q175.556 1059.58 171.922 1059.58 M171.922 1055.88 Q177.732 1055.88 180.788 1060.49 Q183.866 1065.07 183.866 1073.82 Q183.866 1082.55 180.788 1087.15 Q177.732 1091.74 171.922 1091.74 Q166.112 1091.74 163.033 1087.15 Q159.978 1082.55 159.978 1073.82 Q159.978 1065.07 163.033 1060.49 Q166.112 1055.88 171.922 1055.88 Z" fill="#000000" fill-rule="nonzero" fill-opacity="1" /><path clip-path="url(#clip710)" d="M202.084 1059.58 Q198.473 1059.58 196.644 1063.15 Q194.838 1066.69 194.838 1073.82 Q194.838 1080.93 196.644 1084.49 Q198.473 1088.03 202.084 1088.03 Q205.718 1088.03 207.524 1084.49 Q209.352 1080.93 209.352 1073.82 Q209.352 1066.69 207.524 1063.15 Q205.718 1059.58 202.084 1059.58 M202.084 1055.88 Q207.894 1055.88 210.949 1060.49 Q214.028 1065.07 214.028 1073.82 Q214.028 1082.55 210.949 1087.15 Q207.894 1091.74 202.084 1091.74 Q196.274 1091.74 193.195 1087.15 Q190.139 1082.55 190.139 1073.82 Q190.139 1065.07 193.195 1060.49 Q196.274 1055.88 202.084 1055.88 Z" fill="#000000" fill-rule="nonzero" fill-opacity="1" /><path clip-path="url(#clip710)" d="M222.385 1090.35 L222.385 1086.09 Q224.144 1086.92 225.949 1087.36 Q227.755 1087.8 229.491 1087.8 Q234.121 1087.8 236.551 1084.7 Q239.005 1081.57 239.352 1075.23 Q238.009 1077.22 235.949 1078.29 Q233.889 1079.35 231.389 1079.35 Q226.204 1079.35 223.172 1076.23 Q220.162 1073.08 220.162 1067.64 Q220.162 1062.32 223.31 1059.1 Q226.459 1055.88 231.69 1055.88 Q237.685 1055.88 240.834 1060.49 Q244.005 1065.07 244.005 1073.82 Q244.005 1081.99 240.116 1086.88 Q236.25 1091.74 229.699 1091.74 Q227.94 1091.74 226.135 1091.39 Q224.329 1091.04 222.385 1090.35 M231.69 1075.7 Q234.838 1075.7 236.667 1073.54 Q238.519 1071.39 238.519 1067.64 Q238.519 1063.91 236.667 1061.76 Q234.838 1059.58 231.69 1059.58 Q228.542 1059.58 226.69 1061.76 Q224.861 1063.91 224.861 1067.64 Q224.861 1071.39 226.69 1073.54 Q228.542 1075.7 231.69 1075.7 Z" fill="#000000" fill-rule="nonzero" fill-opacity="1" /><path clip-path="url(#clip710)" d="M262.408 1059.58 Q258.796 1059.58 256.968 1063.15 Q255.162 1066.69 255.162 1073.82 Q255.162 1080.93 256.968 1084.49 Q258.796 1088.03 262.408 1088.03 Q266.042 1088.03 267.847 1084.49 Q269.676 1080.93 269.676 1073.82 Q269.676 1066.69 267.847 1063.15 Q266.042 1059.58 262.408 1059.58 M262.408 1055.88 Q268.218 1055.88 271.273 1060.49 Q274.352 1065.07 274.352 1073.82 Q274.352 1082.55 271.273 1087.15 Q268.218 1091.74 262.408 1091.74 Q256.597 1091.74 253.519 1087.15 Q250.463 1082.55 250.463 1073.82 Q250.463 1065.07 253.519 1060.49 Q256.597 1055.88 262.408 1055.88 Z" fill="#000000" fill-rule="nonzero" fill-opacity="1" /><path clip-path="url(#clip710)" d="M128.288 728.909 Q124.677 728.909 122.848 732.473 Q121.043 736.015 121.043 743.145 Q121.043 750.251 122.848 753.816 Q124.677 757.358 128.288 757.358 Q131.922 757.358 133.728 753.816 Q135.556 750.251 135.556 743.145 Q135.556 736.015 133.728 732.473 Q131.922 728.909 128.288 728.909 M128.288 725.205 Q134.098 725.205 137.154 729.811 Q140.232 734.395 140.232 743.145 Q140.232 751.872 137.154 756.478 Q134.098 761.061 128.288 761.061 Q122.478 761.061 119.399 756.478 Q116.343 751.872 116.343 743.145 Q116.343 734.395 119.399 729.811 Q122.478 725.205 128.288 725.205 Z" fill="#000000" fill-rule="nonzero" fill-opacity="1" /><path clip-path="url(#clip710)" d="M148.45 754.51 L153.334 754.51 L153.334 760.39 L148.45 760.39 L148.45 754.51 Z" fill="#000000" fill-rule="nonzero" fill-opacity="1" /><path clip-path="url(#clip710)" d="M173.519 728.909 Q169.908 728.909 168.079 732.473 Q166.274 736.015 166.274 743.145 Q166.274 750.251 168.079 753.816 Q169.908 757.358 173.519 757.358 Q177.153 757.358 178.959 753.816 Q180.788 750.251 180.788 743.145 Q180.788 736.015 178.959 732.473 Q177.153 728.909 173.519 728.909 M173.519 725.205 Q179.329 725.205 182.385 729.811 Q185.463 734.395 185.463 743.145 Q185.463 751.872 182.385 756.478 Q179.329 761.061 173.519 761.061 Q167.709 761.061 164.63 756.478 Q161.575 751.872 161.575 743.145 Q161.575 734.395 164.63 729.811 Q167.709 725.205 173.519 725.205 Z" fill="#000000" fill-rule="nonzero" fill-opacity="1" /><path clip-path="url(#clip710)" d="M203.681 728.909 Q200.07 728.909 198.241 732.473 Q196.436 736.015 196.436 743.145 Q196.436 750.251 198.241 753.816 Q200.07 757.358 203.681 757.358 Q207.315 757.358 209.121 753.816 Q210.949 750.251 210.949 743.145 Q210.949 736.015 209.121 732.473 Q207.315 728.909 203.681 728.909 M203.681 725.205 Q209.491 725.205 212.547 729.811 Q215.625 734.395 215.625 743.145 Q215.625 751.872 212.547 756.478 Q209.491 761.061 203.681 761.061 Q197.871 761.061 194.792 756.478 Q191.737 751.872 191.737 743.145 Q191.737 734.395 194.792 729.811 Q197.871 725.205 203.681 725.205 Z" fill="#000000" fill-rule="nonzero" fill-opacity="1" /><path clip-path="url(#clip710)" d="M223.982 759.672 L223.982 755.413 Q225.741 756.246 227.547 756.686 Q229.352 757.126 231.088 757.126 Q235.718 757.126 238.148 754.024 Q240.602 750.899 240.949 744.557 Q239.607 746.547 237.547 747.612 Q235.486 748.677 232.986 748.677 Q227.801 748.677 224.769 745.552 Q221.76 742.404 221.76 736.964 Q221.76 731.64 224.908 728.423 Q228.056 725.205 233.287 725.205 Q239.283 725.205 242.431 729.811 Q245.602 734.395 245.602 743.145 Q245.602 751.316 241.713 756.2 Q237.847 761.061 231.297 761.061 Q229.537 761.061 227.732 760.714 Q225.926 760.367 223.982 759.672 M233.287 745.02 Q236.435 745.02 238.264 742.867 Q240.116 740.714 240.116 736.964 Q240.116 733.237 238.264 731.085 Q236.435 728.909 233.287 728.909 Q230.139 728.909 228.287 731.085 Q226.459 733.237 226.459 736.964 Q226.459 740.714 228.287 742.867 Q230.139 745.02 233.287 745.02 Z" fill="#000000" fill-rule="nonzero" fill-opacity="1" /><path clip-path="url(#clip710)" d="M258.033 756.455 L274.352 756.455 L274.352 760.39 L252.408 760.39 L252.408 756.455 Q255.07 753.7 259.653 749.071 Q264.259 744.418 265.44 743.075 Q267.685 740.552 268.565 738.816 Q269.468 737.057 269.468 735.367 Q269.468 732.612 267.523 730.876 Q265.602 729.14 262.5 729.14 Q260.301 729.14 257.847 729.904 Q255.417 730.668 252.639 732.219 L252.639 727.497 Q255.463 726.362 257.917 725.784 Q260.37 725.205 262.408 725.205 Q267.778 725.205 270.972 727.89 Q274.167 730.575 274.167 735.066 Q274.167 737.196 273.357 739.117 Q272.569 741.015 270.463 743.608 Q269.884 744.279 266.782 747.497 Q263.681 750.691 258.033 756.455 Z" fill="#000000" fill-rule="nonzero" fill-opacity="1" /><path clip-path="url(#clip710)" d="M126.205 398.233 Q122.593 398.233 120.765 401.798 Q118.959 405.34 118.959 412.469 Q118.959 419.576 120.765 423.141 Q122.593 426.682 126.205 426.682 Q129.839 426.682 131.644 423.141 Q133.473 419.576 133.473 412.469 Q133.473 405.34 131.644 401.798 Q129.839 398.233 126.205 398.233 M126.205 394.53 Q132.015 394.53 135.07 399.136 Q138.149 403.719 138.149 412.469 Q138.149 421.196 135.07 425.803 Q132.015 430.386 126.205 430.386 Q120.394 430.386 117.316 425.803 Q114.26 421.196 114.26 412.469 Q114.26 403.719 117.316 399.136 Q120.394 394.53 126.205 394.53 Z" fill="#000000" fill-rule="nonzero" fill-opacity="1" /><path clip-path="url(#clip710)" d="M146.366 423.835 L151.251 423.835 L151.251 429.715 L146.366 429.715 L146.366 423.835 Z" fill="#000000" fill-rule="nonzero" fill-opacity="1" /><path clip-path="url(#clip710)" d="M171.436 398.233 Q167.825 398.233 165.996 401.798 Q164.19 405.34 164.19 412.469 Q164.19 419.576 165.996 423.141 Q167.825 426.682 171.436 426.682 Q175.07 426.682 176.876 423.141 Q178.704 419.576 178.704 412.469 Q178.704 405.34 176.876 401.798 Q175.07 398.233 171.436 398.233 M171.436 394.53 Q177.246 394.53 180.301 399.136 Q183.38 403.719 183.38 412.469 Q183.38 421.196 180.301 425.803 Q177.246 430.386 171.436 430.386 Q165.626 430.386 162.547 425.803 Q159.491 421.196 159.491 412.469 Q159.491 403.719 162.547 399.136 Q165.626 394.53 171.436 394.53 Z" fill="#000000" fill-rule="nonzero" fill-opacity="1" /><path clip-path="url(#clip710)" d="M201.598 398.233 Q197.987 398.233 196.158 401.798 Q194.352 405.34 194.352 412.469 Q194.352 419.576 196.158 423.141 Q197.987 426.682 201.598 426.682 Q205.232 426.682 207.037 423.141 Q208.866 419.576 208.866 412.469 Q208.866 405.34 207.037 401.798 Q205.232 398.233 201.598 398.233 M201.598 394.53 Q207.408 394.53 210.463 399.136 Q213.542 403.719 213.542 412.469 Q213.542 421.196 210.463 425.803 Q207.408 430.386 201.598 430.386 Q195.787 430.386 192.709 425.803 Q189.653 421.196 189.653 412.469 Q189.653 403.719 192.709 399.136 Q195.787 394.53 201.598 394.53 Z" fill="#000000" fill-rule="nonzero" fill-opacity="1" /><path clip-path="url(#clip710)" d="M221.898 428.997 L221.898 424.738 Q223.658 425.571 225.463 426.011 Q227.269 426.451 229.005 426.451 Q233.635 426.451 236.065 423.349 Q238.519 420.224 238.866 413.881 Q237.523 415.872 235.463 416.937 Q233.403 418.002 230.903 418.002 Q225.718 418.002 222.686 414.877 Q219.676 411.729 219.676 406.289 Q219.676 400.965 222.824 397.747 Q225.973 394.53 231.204 394.53 Q237.199 394.53 240.347 399.136 Q243.519 403.719 243.519 412.469 Q243.519 420.641 239.63 425.525 Q235.764 430.386 229.213 430.386 Q227.454 430.386 225.648 430.039 Q223.843 429.691 221.898 428.997 M231.204 414.344 Q234.352 414.344 236.181 412.191 Q238.033 410.039 238.033 406.289 Q238.033 402.562 236.181 400.409 Q234.352 398.233 231.204 398.233 Q228.056 398.233 226.204 400.409 Q224.375 402.562 224.375 406.289 Q224.375 410.039 226.204 412.191 Q228.056 414.344 231.204 414.344 Z" fill="#000000" fill-rule="nonzero" fill-opacity="1" /><path clip-path="url(#clip710)" d="M264.769 399.229 L252.963 417.678 L264.769 417.678 L264.769 399.229 M263.542 395.155 L269.421 395.155 L269.421 417.678 L274.352 417.678 L274.352 421.566 L269.421 421.566 L269.421 429.715 L264.769 429.715 L264.769 421.566 L249.167 421.566 L249.167 417.053 L263.542 395.155 Z" fill="#000000" fill-rule="nonzero" fill-opacity="1" /><path clip-path="url(#clip710)" d="M33.7671 788.508 L14.479 788.508 L14.479 782.652 L64.0042 782.652 L64.0042 788.508 L58.657 788.508 Q61.8398 790.354 63.3994 793.187 Q64.9272 795.988 64.9272 799.935 Q64.9272 806.396 59.771 810.47 Q54.6147 814.512 46.212 814.512 Q37.8093 814.512 32.6531 810.47 Q27.4968 806.396 27.4968 799.935 Q27.4968 795.988 29.0564 793.187 Q30.5842 790.354 33.7671 788.508 M46.212 808.465 Q52.6732 808.465 56.3653 805.823 Q60.0256 803.149 60.0256 798.502 Q60.0256 793.855 56.3653 791.182 Q52.6732 788.508 46.212 788.508 Q39.7508 788.508 36.0905 791.182 Q32.3984 793.855 32.3984 798.502 Q32.3984 803.149 36.0905 805.823 Q39.7508 808.465 46.212 808.465 Z" fill="#000000" fill-rule="nonzero" fill-opacity="1" /><path clip-path="url(#clip710)" d="M74.8259 743.503 L79.3773 743.503 L79.3773 777.368 L74.8259 777.368 L74.8259 743.503 Z" fill="#000000" fill-rule="nonzero" fill-opacity="1" /><path clip-path="url(#clip710)" d="M28.3562 737.996 L28.3562 732.14 L64.0042 732.14 L64.0042 737.996 L28.3562 737.996 M14.479 737.996 L14.479 732.14 L21.895 732.14 L21.895 737.996 L14.479 737.996 Z" fill="#000000" fill-rule="nonzero" fill-opacity="1" /><path clip-path="url(#clip710)" d="M1031.48 12.096 L1066.24 12.096 L1066.24 18.9825 L1039.67 18.9825 L1039.67 36.8065 L1063.65 36.8065 L1063.65 43.6931 L1039.67 43.6931 L1039.67 72.576 L1031.48 72.576 L1031.48 12.096 Z" fill="#000000" fill-rule="nonzero" fill-opacity="1" /><path clip-path="url(#clip710)" d="M1072.84 27.2059 L1080.3 27.2059 L1080.3 72.576 L1072.84 72.576 L1072.84 27.2059 M1072.84 9.54393 L1080.3 9.54393 L1080.3 18.9825 L1072.84 18.9825 L1072.84 9.54393 Z" fill="#000000" fill-rule="nonzero" fill-opacity="1" /><path clip-path="url(#clip710)" d="M1133.61 45.1919 L1133.61 72.576 L1126.15 72.576 L1126.15 45.4349 Q1126.15 38.994 1123.64 35.7938 Q1121.13 32.5936 1116.11 32.5936 Q1110.07 32.5936 1106.59 36.4419 Q1103.1 40.2903 1103.1 46.9338 L1103.1 72.576 L1095.61 72.576 L1095.61 27.2059 L1103.1 27.2059 L1103.1 34.2544 Q1105.78 30.163 1109.38 28.1376 Q1113.03 26.1121 1117.77 26.1121 Q1125.59 26.1121 1129.6 30.9732 Q1133.61 35.7938 1133.61 45.1919 Z" fill="#000000" fill-rule="nonzero" fill-opacity="1" /><path clip-path="url(#clip710)" d="M1169.09 49.7694 Q1160.06 49.7694 1156.58 51.8354 Q1153.09 53.9013 1153.09 58.8839 Q1153.09 62.8538 1155.68 65.2034 Q1158.32 67.5124 1162.81 67.5124 Q1169.01 67.5124 1172.74 63.1374 Q1176.51 58.7219 1176.51 51.4303 L1176.51 49.7694 L1169.09 49.7694 M1183.96 46.6907 L1183.96 72.576 L1176.51 72.576 L1176.51 65.6895 Q1173.95 69.8214 1170.15 71.8063 Q1166.34 73.7508 1160.83 73.7508 Q1153.86 73.7508 1149.73 69.8619 Q1145.64 65.9325 1145.64 59.3701 Q1145.64 51.7138 1150.74 47.825 Q1155.89 43.9361 1166.05 43.9361 L1176.51 43.9361 L1176.51 43.2069 Q1176.51 38.0623 1173.1 35.2672 Q1169.74 32.4315 1163.62 32.4315 Q1159.73 32.4315 1156.05 33.3632 Q1152.36 34.295 1148.96 36.1584 L1148.96 29.2718 Q1153.05 27.692 1156.9 26.9223 Q1160.75 26.1121 1164.39 26.1121 Q1174.24 26.1121 1179.1 31.2163 Q1183.96 36.3204 1183.96 46.6907 Z" fill="#000000" fill-rule="nonzero" fill-opacity="1" /><path clip-path="url(#clip710)" d="M1199.31 9.54393 L1206.77 9.54393 L1206.77 72.576 L1199.31 72.576 L1199.31 9.54393 Z" fill="#000000" fill-rule="nonzero" fill-opacity="1" /><path clip-path="url(#clip710)" d="M1278.59 34.0924 L1278.59 9.54393 L1286.04 9.54393 L1286.04 72.576 L1278.59 72.576 L1278.59 65.7705 Q1276.24 69.8214 1272.63 71.8063 Q1269.07 73.7508 1264.05 73.7508 Q1255.82 73.7508 1250.64 67.1883 Q1245.49 60.6258 1245.49 49.9314 Q1245.49 39.2371 1250.64 32.6746 Q1255.82 26.1121 1264.05 26.1121 Q1269.07 26.1121 1272.63 28.0971 Q1276.24 30.0415 1278.59 34.0924 M1253.19 49.9314 Q1253.19 58.1548 1256.55 62.8538 Q1259.95 67.5124 1265.87 67.5124 Q1271.78 67.5124 1275.19 62.8538 Q1278.59 58.1548 1278.59 49.9314 Q1278.59 41.7081 1275.19 37.0496 Q1271.78 32.3505 1265.87 32.3505 Q1259.95 32.3505 1256.55 37.0496 Q1253.19 41.7081 1253.19 49.9314 Z" fill="#000000" fill-rule="nonzero" fill-opacity="1" /><path clip-path="url(#clip710)" d="M1301.39 27.2059 L1308.85 27.2059 L1308.85 72.576 L1301.39 72.576 L1301.39 27.2059 M1301.39 9.54393 L1308.85 9.54393 L1308.85 18.9825 L1301.39 18.9825 L1301.39 9.54393 Z" fill="#000000" fill-rule="nonzero" fill-opacity="1" /><path clip-path="url(#clip710)" d="M1353.37 28.5427 L1353.37 35.5912 Q1350.21 33.9709 1346.81 33.1607 Q1343.4 32.3505 1339.76 32.3505 Q1334.21 32.3505 1331.41 34.0519 Q1328.66 35.7533 1328.66 39.156 Q1328.66 41.7486 1330.64 43.2475 Q1332.63 44.7058 1338.62 46.0426 L1341.17 46.6097 Q1349.11 48.3111 1352.44 51.4303 Q1355.8 54.509 1355.8 60.0587 Q1355.8 66.3781 1350.78 70.0644 Q1345.79 73.7508 1337.04 73.7508 Q1333.4 73.7508 1329.43 73.0216 Q1325.5 72.3329 1321.12 70.9151 L1321.12 63.2184 Q1325.25 65.3654 1329.27 66.4591 Q1333.28 67.5124 1337.2 67.5124 Q1342.47 67.5124 1345.31 65.73 Q1348.14 63.9071 1348.14 60.6258 Q1348.14 57.5877 1346.08 55.9673 Q1344.05 54.3469 1337.12 52.8481 L1334.53 52.2405 Q1327.6 50.7821 1324.53 47.7845 Q1321.45 44.7463 1321.45 39.4801 Q1321.45 33.0797 1325.98 29.5959 Q1330.52 26.1121 1338.87 26.1121 Q1343 26.1121 1346.64 26.7198 Q1350.29 27.3274 1353.37 28.5427 Z" fill="#000000" fill-rule="nonzero" fill-opacity="1" /><path clip-path="url(#clip710)" d="M1375.04 14.324 L1375.04 27.2059 L1390.39 27.2059 L1390.39 32.9987 L1375.04 32.9987 L1375.04 57.6282 Q1375.04 63.1779 1376.54 64.7578 Q1378.08 66.3376 1382.74 66.3376 L1390.39 66.3376 L1390.39 72.576 L1382.74 72.576 Q1374.11 72.576 1370.83 69.3758 Q1367.55 66.1351 1367.55 57.6282 L1367.55 32.9987 L1362.08 32.9987 L1362.08 27.2059 L1367.55 27.2059 L1367.55 14.324 L1375.04 14.324 Z" fill="#000000" fill-rule="nonzero" fill-opacity="1" /><path clip-path="url(#clip710)" d="M1420.82 49.7694 Q1411.78 49.7694 1408.3 51.8354 Q1404.81 53.9013 1404.81 58.8839 Q1404.81 62.8538 1407.41 65.2034 Q1410.04 67.5124 1414.54 67.5124 Q1420.73 67.5124 1424.46 63.1374 Q1428.23 58.7219 1428.23 51.4303 L1428.23 49.7694 L1420.82 49.7694 M1435.68 46.6907 L1435.68 72.576 L1428.23 72.576 L1428.23 65.6895 Q1425.68 69.8214 1421.87 71.8063 Q1418.06 73.7508 1412.55 73.7508 Q1405.58 73.7508 1401.45 69.8619 Q1397.36 65.9325 1397.36 59.3701 Q1397.36 51.7138 1402.46 47.825 Q1407.61 43.9361 1417.78 43.9361 L1428.23 43.9361 L1428.23 43.2069 Q1428.23 38.0623 1424.83 35.2672 Q1421.46 32.4315 1415.35 32.4315 Q1411.46 32.4315 1407.77 33.3632 Q1404.09 34.295 1400.68 36.1584 L1400.68 29.2718 Q1404.77 27.692 1408.62 26.9223 Q1412.47 26.1121 1416.12 26.1121 Q1425.96 26.1121 1430.82 31.2163 Q1435.68 36.3204 1435.68 46.6907 Z" fill="#000000" fill-rule="nonzero" fill-opacity="1" /><path clip-path="url(#clip710)" d="M1488.75 45.1919 L1488.75 72.576 L1481.3 72.576 L1481.3 45.4349 Q1481.3 38.994 1478.78 35.7938 Q1476.27 32.5936 1471.25 32.5936 Q1465.21 32.5936 1461.73 36.4419 Q1458.25 40.2903 1458.25 46.9338 L1458.25 72.576 L1450.75 72.576 L1450.75 27.2059 L1458.25 27.2059 L1458.25 34.2544 Q1460.92 30.163 1464.52 28.1376 Q1468.17 26.1121 1472.91 26.1121 Q1480.73 26.1121 1484.74 30.9732 Q1488.75 35.7938 1488.75 45.1919 Z" fill="#000000" fill-rule="nonzero" fill-opacity="1" /><path clip-path="url(#clip710)" d="M1536.27 28.9478 L1536.27 35.9153 Q1533.11 34.1734 1529.91 33.3227 Q1526.75 32.4315 1523.51 32.4315 Q1516.25 32.4315 1512.24 37.0496 Q1508.23 41.6271 1508.23 49.9314 Q1508.23 58.2358 1512.24 62.8538 Q1516.25 67.4314 1523.51 67.4314 Q1526.75 67.4314 1529.91 66.5807 Q1533.11 65.6895 1536.27 63.9476 L1536.27 70.8341 Q1533.15 72.2924 1529.78 73.0216 Q1526.46 73.7508 1522.7 73.7508 Q1512.45 73.7508 1506.41 67.3098 Q1500.38 60.8689 1500.38 49.9314 Q1500.38 38.832 1506.45 32.472 Q1512.57 26.1121 1523.18 26.1121 Q1526.63 26.1121 1529.91 26.8413 Q1533.19 27.5299 1536.27 28.9478 Z" fill="#000000" fill-rule="nonzero" fill-opacity="1" /><path clip-path="url(#clip710)" d="M1588.04 48.0275 L1588.04 51.6733 L1553.77 51.6733 Q1554.25 59.3701 1558.38 63.421 Q1562.56 67.4314 1569.97 67.4314 Q1574.26 67.4314 1578.27 66.3781 Q1582.33 65.3249 1586.3 63.2184 L1586.3 70.267 Q1582.28 71.9684 1578.07 72.8596 Q1573.86 73.7508 1569.52 73.7508 Q1558.67 73.7508 1552.31 67.4314 Q1545.99 61.1119 1545.99 50.3365 Q1545.99 39.1965 1551.98 32.6746 Q1558.02 26.1121 1568.23 26.1121 Q1577.38 26.1121 1582.69 32.0264 Q1588.04 37.9003 1588.04 48.0275 M1580.58 45.84 Q1580.5 39.7232 1577.14 36.0774 Q1573.82 32.4315 1568.31 32.4315 Q1562.07 32.4315 1558.3 35.9558 Q1554.58 39.4801 1554.01 45.8805 L1580.58 45.84 Z" fill="#000000" fill-rule="nonzero" fill-opacity="1" /><path clip-path="url(#clip710)" d="M1629.19 28.5427 L1629.19 35.5912 Q1626.03 33.9709 1622.63 33.1607 Q1619.23 32.3505 1615.58 32.3505 Q1610.03 32.3505 1607.24 34.0519 Q1604.48 35.7533 1604.48 39.156 Q1604.48 41.7486 1606.47 43.2475 Q1608.45 44.7058 1614.45 46.0426 L1617 46.6097 Q1624.94 48.3111 1628.26 51.4303 Q1631.62 54.509 1631.62 60.0587 Q1631.62 66.3781 1626.6 70.0644 Q1621.62 73.7508 1612.87 73.7508 Q1609.22 73.7508 1605.25 73.0216 Q1601.32 72.3329 1596.95 70.9151 L1596.95 63.2184 Q1601.08 65.3654 1605.09 66.4591 Q1609.1 67.5124 1613.03 67.5124 Q1618.3 67.5124 1621.13 65.73 Q1623.97 63.9071 1623.97 60.6258 Q1623.97 57.5877 1621.9 55.9673 Q1619.88 54.3469 1612.95 52.8481 L1610.36 52.2405 Q1603.43 50.7821 1600.35 47.7845 Q1597.27 44.7463 1597.27 39.4801 Q1597.27 33.0797 1601.81 29.5959 Q1606.35 26.1121 1614.69 26.1121 Q1618.82 26.1121 1622.47 26.7198 Q1626.12 27.3274 1629.19 28.5427 Z" fill="#000000" fill-rule="nonzero" fill-opacity="1" /><circle clip-path="url(#clip712)" cx="368.156" cy="324.561" r="14.4" fill="#009af9" fill-rule="evenodd" fill-opacity="1" stroke="#000000" stroke-opacity="1" stroke-width="3.2"/>
<circle clip-path="url(#clip712)" cx="582.244" cy="1008.1" r="14.4" fill="#009af9" fill-rule="evenodd" fill-opacity="1" stroke="#000000" stroke-opacity="1" stroke-width="3.2"/>
<circle clip-path="url(#clip712)" cx="796.333" cy="904.917" r="14.4" fill="#009af9" fill-rule="evenodd" fill-opacity="1" stroke="#000000" stroke-opacity="1" stroke-width="3.2"/>
<circle clip-path="url(#clip712)" cx="1010.42" cy="678.89" r="14.4" fill="#009af9" fill-rule="evenodd" fill-opacity="1" stroke="#000000" stroke-opacity="1" stroke-width="3.2"/>
<circle clip-path="url(#clip712)" cx="1224.51" cy="344.145" r="14.4" fill="#009af9" fill-rule="evenodd" fill-opacity="1" stroke="#000000" stroke-opacity="1" stroke-width="3.2"/>
<circle clip-path="url(#clip712)" cx="1438.6" cy="160.256" r="14.4" fill="#009af9" fill-rule="evenodd" fill-opacity="1" stroke="#000000" stroke-opacity="1" stroke-width="3.2"/>
<circle clip-path="url(#clip712)" cx="1652.69" cy="331.867" r="14.4" fill="#009af9" fill-rule="evenodd" fill-opacity="1" stroke="#000000" stroke-opacity="1" stroke-width="3.2"/>
<circle clip-path="url(#clip712)" cx="1866.78" cy="571.743" r="14.4" fill="#009af9" fill-rule="evenodd" fill-opacity="1" stroke="#000000" stroke-opacity="1" stroke-width="3.2"/>
<circle clip-path="url(#clip712)" cx="2080.86" cy="1280.57" r="14.4" fill="#009af9" fill-rule="evenodd" fill-opacity="1" stroke="#000000" stroke-opacity="1" stroke-width="3.2"/>
<circle clip-path="url(#clip712)" cx="2294.95" cy="1386.4" r="14.4" fill="#009af9" fill-rule="evenodd" fill-opacity="1" stroke="#000000" stroke-opacity="1" stroke-width="3.2"/>
</svg>
